  0
SECTION
  2
HEADER
  9
$ACADVER
  1
AC1014
  9
$HANDSEED
  5
FFFF
  9
$MEASUREMENT
 70
     1
  0
ENDSEC
  0
SECTION
  2
TABLES
  0
TABLE
  2
VPORT
  5
8
330
0
100
AcDbSymbolTable
 70
     4
  0
VPORT
  5
2E
330
8
100
AcDbSymbolTableRecord
100
AcDbViewportTableRecord
  2
*ACTIVE
 70
     0
 10
0.0
 20
0.0
 11
1.0
 21
1.0
 12
210.0
 22
148.5
 13
0.0
 23
0.0
 14
10.0
 24
10.0
 15
10.0
 25
10.0
 16
0.0
 26
0.0
 36
1.0
 17
0.0
 27
0.0
 37
0.0
 40
341.0
 41
1.24
 42
50.0
 43
0.0
 44
0.0
 50
0.0
 51
0.0
 71
     0
 72
   100
 73
     1
 74
     3
 75
     0
 76
     0
 77
     0
 78
     0
  0
ENDTAB
  0
TABLE
  2
LTYPE
  5
5
330
0
100
AcDbSymbolTable
 70
     1
  0
LTYPE
  5
14
330
5
100
AcDbSymbolTableRecord
100
AcDbLinetypeTableRecord
  2
BYBLOCK
 70
     0
  3

 72
    65
 73
     0
 40
0.0
  0
LTYPE
  5
15
330
5
100
AcDbSymbolTableRecord
100
AcDbLinetypeTableRecord
  2
BYLAYER
 70
     0
  3

 72
    65
 73
     0
 40
0.0
  0
LTYPE
  5
16
330
5
100
AcDbSymbolTableRecord
100
AcDbLinetypeTableRecord
  2
CONTINUOUS
 70
     0
  3
Solid line
 72
    65
 73
     0
 40
0.0
  0
ENDTAB
  0
TABLE
  2
LAYER
  5
2
100
AcDbSymbolTable
 70
5
  0
LAYER
  5
50
100
AcDbSymbolTableRecord
100
AcDbLayerTableRecord
  2
0
 70
0
  6
CONTINUOUS
  0
LAYER
  5
51
100
AcDbSymbolTableRecord
100
AcDbLayerTableRecord
  2
NoCut
 70
0
  6
CONTINUOUS
  0
LAYER
  5
52
100
AcDbSymbolTableRecord
100
AcDbLayerTableRecord
  2
Score
 70
0
  6
CONTINUOUS
  0
LAYER
  5
53
100
AcDbSymbolTableRecord
100
AcDbLayerTableRecord
  2
HalfCuts
 70
0
  6
CONTINUOUS
  0
LAYER
  5
54
100
AcDbSymbolTableRecord
100
AcDbLayerTableRecord
  2
FullCuts
 70
0
  6
CONTINUOUS
  0
ENDTAB
  0
TABLE
  2
STYLE
  5
3
330
0
100
AcDbSymbolTable
 70
     1
  0
STYLE
  5
11
330
3
100
AcDbSymbolTableRecord
100
AcDbTextStyleTableRecord
  2
STANDARD
 70
     0
 40
0.0
 41
1.0
 50
0.0
 71
     0
 42
2.5
  3
txt
  4

  0
ENDTAB
  0
TABLE
  2
VIEW
  5
6
330
0
100
AcDbSymbolTable
 70
     0
  0
ENDTAB
  0
TABLE
  2
UCS
  5
7
330
0
100
AcDbSymbolTable
 70
     0
  0
ENDTAB
  0
TABLE
  2
APPID
  5
9
330
0
100
AcDbSymbolTable
 70
     2
  0
APPID
  5
12
330
9
100
AcDbSymbolTableRecord
100
AcDbRegAppTableRecord
  2
ACAD
 70
     0
  0
ENDTAB
  0
TABLE
  2
DIMSTYLE
  5
A
330
0
100
AcDbSymbolTable
 70
     1
  0
DIMSTYLE
105
27
330
A
100
AcDbSymbolTableRecord
100
AcDbDimStyleTableRecord
  2
ISO-25
 70
     0
  3

  4

  5

  6

  7

 40
1.0
 41
2.5
 42
0.625
 43
3.75
 44
1.25
 45
0.0
 46
0.0
 47
0.0
 48
0.0
140
2.5
141
2.5
142
0.0
143
0.03937007874016
144
1.0
145
0.0
146
1.0
147
0.625
 71
     0
 72
     0
 73
     0
 74
     0
 75
     0
 76
     0
 77
     1
 78
     8
170
     0
171
     3
172
     1
173
     0
174
     0
175
     0
176
     0
177
     0
178
     0
270
     2
271
     2
272
     2
273
     2
274
     3
340
11
275
     0
280
     0
281
     0
282
     0
283
     0
284
     8
285
     0
286
     0
287
     3
288
     0
  0
ENDTAB
  0
TABLE
  2
BLOCK_RECORD
  5
1
330
0
100
AcDbSymbolTable
 70
     1
  0
BLOCK_RECORD
  5
1F
330
1
100
AcDbSymbolTableRecord
100
AcDbBlockTableRecord
  2
*MODEL_SPACE
  0
BLOCK_RECORD
  5
1B
330
1
100
AcDbSymbolTableRecord
100
AcDbBlockTableRecord
  2
*PAPER_SPACE
  0
ENDTAB
  0
ENDSEC
  0
SECTION
  2
BLOCKS
  0
BLOCK
  5
20
330
1F
100
AcDbEntity
  8
0
100
AcDbBlockBegin
  2
*MODEL_SPACE
 70
     0
 10
0.0
 20
0.0
 30
0.0
  3
*MODEL_SPACE
  1

  0
ENDBLK
  5
21
330
1F
100
AcDbEntity
  8
0
100
AcDbBlockEnd
  0
BLOCK
  5
1C
330
1B
100
AcDbEntity
 67
     1
  8
0
100
AcDbBlockBegin
  2
*PAPER_SPACE
  1

  0
ENDBLK
  5
1D
330
1B
100
AcDbEntity
 67
     1
  8
0
100
AcDbBlockEnd
  0
ENDSEC
  0
SECTION
  2
ENTITIES
  0
LWPOLYLINE
  5
100
100
AcDbEntity
  8
Score
 62
3
100
AcDbPolyline
 90
2
 70
0
 10
265.897425
 20
230.662598
 30
0.0
 10
268.437425
 20
230.662598
 30
0.0
  0
LWPOLYLINE
  5
101
100
AcDbEntity
  8
Score
 62
3
100
AcDbPolyline
 90
2
 70
0
 10
288.757445
 20
230.662598
 30
0.0
 10
291.297445
 20
230.662598
 30
0.0
  0
LWPOLYLINE
  5
102
100
AcDbEntity
  8
Score
 62
3
100
AcDbPolyline
 90
2
 70
0
 10
265.897425
 20
214.787598
 30
0.0
 10
291.297445
 20
214.787598
 30
0.0
  0
LWPOLYLINE
  5
103
100
AcDbEntity
  8
Score
 62
3
100
AcDbPolyline
 90
3
 70
0
 10
265.897425
 20
230.662598
 30
0.0
 10
265.897425
 20
212.247598
 30
0.0
 10
291.297445
 20
212.247598
 30
0.0
  0
LWPOLYLINE
  5
104
100
AcDbEntity
  8
Score
 62
3
100
AcDbPolyline
 90
2
 70
0
 10
268.437425
 20
214.787598
 30
0.0
 10
268.437425
 20
230.662598
 30
0.0
  0
LWPOLYLINE
  5
105
100
AcDbEntity
  8
Score
 62
3
100
AcDbPolyline
 90
2
 70
0
 10
288.757445
 20
230.662598
 30
0.0
 10
288.757445
 20
214.787598
 30
0.0
  0
LWPOLYLINE
  5
106
100
AcDbEntity
  8
Score
 62
3
100
AcDbPolyline
 90
2
 70
0
 10
291.297445
 20
230.662598
 30
0.0
 10
291.297445
 20
212.247598
 30
0.0
  0
LWPOLYLINE
  5
107
100
AcDbEntity
  8
Score
 62
3
100
AcDbPolyline
 90
6
 70
0
 10
279.634592
 20
229.096264
 30
0.0
 10
277.390925
 20
229.096264
 30
0.0
 10
272.776592
 20
216.396264
 30
0.0
 10
274.491092
 20
216.396264
 30
0.0
 10
275.718758
 20
219.931098
 30
0.0
 10
281.222092
 20
219.931098
 30
0.0
  0
LWPOLYLINE
  5
108
100
AcDbEntity
  8
Score
 62
3
100
AcDbPolyline
 90
4
 70
0
 10
276.247925
 20
221.370431
 30
0.0
 10
278.470425
 20
227.614598
 30
0.0
 10
280.692925
 20
221.370431
 30
0.0
 10
276.247925
 20
221.370431
 30
0.0
  0
LWPOLYLINE
  5
109
100
AcDbEntity
  8
Score
 62
3
100
AcDbPolyline
 90
4
 70
0
 10
281.222092
 20
219.931098
 30
0.0
 10
282.470916
 20
216.396264
 30
0.0
 10
284.248916
 20
216.396264
 30
0.0
 10
279.634592
 20
229.096264
 30
0.0
  0
LWPOLYLINE
  5
10a
100
AcDbEntity
  8
HalfCuts
 62
1
100
AcDbPolyline
 90
2
 70
0
 10
50.104127
 20
225.931842
 30
0.0
 10
50.104127
 20
11.591283
 30
0.0
  0
LWPOLYLINE
  5
10b
100
AcDbEntity
  8
HalfCuts
 62
1
100
AcDbPolyline
 90
2
 70
0
 10
81.606297
 20
225.931842
 30
0.0
 10
81.606297
 20
11.617304
 30
0.0
  0
LWPOLYLINE
  5
10c
100
AcDbEntity
  8
HalfCuts
 62
1
100
AcDbPolyline
 90
2
 70
0
 10
50.104127
 20
217.521761
 30
0.0
 10
81.535024
 20
217.521761
 30
0.0
  0
LWPOLYLINE
  5
10d
100
AcDbEntity
  8
HalfCuts
 62
1
100
AcDbPolyline
 90
2
 70
0
 10
188.943056
 20
237.292170
 30
0.0
 10
188.943056
 20
16.135541
 30
0.0
  0
LWPOLYLINE
  5
10e
100
AcDbEntity
  8
HalfCuts
 62
1
100
AcDbPolyline
 90
4
 70
0
 10
180.461703
 20
118.410673
 30
0.0
 10
180.461703
 20
104.441378
 30
0.0
 10
183.027489
 20
104.441378
 30
0.0
 10
183.027489
 20
118.410673
 30
0.0
  0
LWPOLYLINE
  5
10f
100
AcDbEntity
  8
HalfCuts
 62
1
100
AcDbPolyline
 90
4
 70
0
 10
180.532975
 20
134.945734
 30
0.0
 10
180.532975
 20
141.716587
 30
0.0
 10
183.027489
 20
141.716587
 30
0.0
 10
183.027489
 20
134.945734
 30
0.0
  0
LWPOLYLINE
  5
110
100
AcDbEntity
  8
HalfCuts
 62
1
100
AcDbPolyline
 90
2
 70
0
 10
258.613439
 20
254.393329
 30
0.0
 10
258.613439
 20
190.533730
 30
0.0
  0
LWPOLYLINE
  5
111
100
AcDbEntity
  8
HalfCuts
 62
1
100
AcDbPolyline
 90
2
 70
0
 10
263.032294
 20
254.535871
 30
0.0
 10
263.032294
 20
190.533730
 30
0.0
  0
LWPOLYLINE
  5
112
100
AcDbEntity
  8
HalfCuts
 62
1
100
AcDbPolyline
 90
2
 70
0
 10
294.011914
 20
252.361022
 30
0.0
 10
294.011914
 20
190.574511
 30
0.0
  0
LWPOLYLINE
  5
113
100
AcDbEntity
  8
HalfCuts
 62
1
100
AcDbPolyline
 90
2
 70
0
 10
298.346058
 20
252.461814
 30
0.0
 10
298.346058
 20
190.473718
 30
0.0
  0
LWPOLYLINE
  5
114
100
AcDbEntity
  8
HalfCuts
 62
1
100
AcDbPolyline
 90
2
 70
0
 10
396.913072
 20
323.004134
 30
0.0
 10
396.913072
 20
304.045814
 30
0.0
  0
LWPOLYLINE
  5
115
100
AcDbEntity
  8
HalfCuts
 62
1
100
AcDbPolyline
 90
2
 70
0
 10
550.789038
 20
328.848428
 30
0.0
 10
550.789038
 20
298.130250
 30
0.0
  0
LWPOLYLINE
  5
116
100
AcDbEntity
  8
HalfCuts
 62
1
100
AcDbPolyline
 90
3
 70
0
 10
572.104774
 20
298.147620
 30
0.0
 10
488.889407
 20
298.147620
 30
0.0
 10
282.699883
 20
311.351181
 30
0.0
  0
LWPOLYLINE
  5
117
100
AcDbEntity
  8
HalfCuts
 62
1
100
AcDbPolyline
 90
3
 70
0
 10
572.170616
 20
328.919698
 30
0.0
 10
488.925052
 20
328.919698
 30
0.0
 10
282.735528
 20
315.591858
 30
0.0
  0
LWPOLYLINE
  5
118
100
AcDbEntity
  8
HalfCuts
 62
1
100
AcDbPolyline
 90
2
 70
0
 10
579.361893
 20
163.789684
 30
0.0
 10
328.990480
 20
163.789684
 30
0.0
  0
LWPOLYLINE
  5
119
100
AcDbEntity
  8
HalfCuts
 62
1
100
AcDbPolyline
 90
2
 70
0
 10
575.834115
 20
128.612696
 30
0.0
 10
261.761111
 20
138.792858
 30
0.0
  0
LWPOLYLINE
  5
11a
100
AcDbEntity
  8
HalfCuts
 62
1
100
AcDbPolyline
 90
2
 70
0
 10
573.515885
 20
94.947620
 30
0.0
 10
261.357937
 20
120.448402
 30
0.0
  0
LWPOLYLINE
  5
11b
100
AcDbEntity
  8
HalfCuts
 62
1
100
AcDbPolyline
 90
2
 70
0
 10
424.845226
 20
68.136509
 30
0.0
 10
263.575396
 20
95.955549
 30
0.0
  0
LWPOLYLINE
  5
11c
100
AcDbEntity
  8
FullCuts
 62
7
100
AcDbPolyline
 90
2
 70
0
 10
148.495456
 20
325.325699
 30
0.0
 10
155.099456
 20
320.393866
 30
0.0
  0
LWPOLYLINE
  5
11d
100
AcDbEntity
  8
FullCuts
 62
7
100
AcDbPolyline
 90
2
 70
0
 10
138.949289
 20
319.187366
 30
0.0
 10
141.214122
 20
314.742366
 30
0.0
  0
LWPOLYLINE
  5
11e
100
AcDbEntity
  8
FullCuts
 62
7
100
AcDbPolyline
 90
2
 70
0
 10
142.251289
 20
320.965366
 30
0.0
 10
147.458289
 20
315.313866
 30
0.0
  0
LWPOLYLINE
  5
11f
100
AcDbEntity
  8
FullCuts
 62
7
100
AcDbPolyline
 90
2
 70
0
 10
145.616789
 20
323.145533
 30
0.0
 10
152.432456
 20
317.705699
 30
0.0
  0
LWPOLYLINE
  5
120
100
AcDbEntity
  8
FullCuts
 62
7
100
AcDbPolyline
 90
4
 70
0
 10
151.395289
 20
327.802199
 30
0.0
 10
157.681789
 20
323.293699
 30
0.0
 10
172.350289
 20
340.438699
 30
0.0
 10
170.487622
 20
348.778366
 30
0.0
  0
LWPOLYLINE
  5
121
100
AcDbEntity
  8
FullCuts
 62
7
100
AcDbPolyline
 90
3
 70
0
 10
185.071456
 20
318.023199
 30
0.0
 10
145.405122
 20
314.784699
 30
0.0
 10
115.115622
 20
313.853366
 30
0.0
  0
LWPOLYLINE
  5
122
100
AcDbEntity
  8
FullCuts
 62
7
100
AcDbPolyline
 90
163
 70
0
 10
51.001789
 20
303.989699
 30
0.0
 10
51.022956
 20
304.540033
 30
0.0
 10
51.044122
 20
304.815199
 30
0.0
 10
51.086456
 20
305.069199
 30
0.0
 10
51.107622
 20
305.344366
 30
0.0
 10
51.149956
 20
305.619533
 30
0.0
 10
51.213456
 20
305.894699
 30
0.0
 10
51.255789
 20
306.148699
 30
0.0
 10
51.319289
 20
306.423866
 30
0.0
 10
51.382789
 20
306.677866
 30
0.0
 10
51.530956
 20
307.207033
 30
0.0
 10
51.679122
 20
307.736199
 30
0.0
 10
51.869622
 20
308.244199
 30
0.0
 10
52.060122
 20
308.752199
 30
0.0
 10
52.271789
 20
309.260199
 30
0.0
 10
52.504622
 20
309.747033
 30
0.0
 10
52.737456
 20
310.255033
 30
0.0
 10
52.991456
 20
310.720699
 30
0.0
 10
53.266622
 20
311.207533
 30
0.0
 10
53.541789
 20
311.673199
 30
0.0
 10
53.816956
 20
312.138866
 30
0.0
 10
54.113289
 20
312.604533
 30
0.0
 10
54.409622
 20
313.049033
 30
0.0
 10
54.727122
 20
313.493533
 30
0.0
 10
55.044622
 20
313.938033
 30
0.0
 10
55.383289
 20
314.382533
 30
0.0
 10
55.721956
 20
314.805866
 30
0.0
 10
56.060622
 20
315.229199
 30
0.0
 10
56.399289
 20
315.652533
 30
0.0
 10
56.759122
 20
316.054699
 30
0.0
 10
57.118956
 20
316.456866
 30
0.0
 10
57.478789
 20
316.880199
 30
0.0
 10
57.859789
 20
317.261199
 30
0.0
 10
58.219622
 20
317.663366
 30
0.0
 10
58.600622
 20
318.065533
 30
0.0
 10
58.981622
 20
318.446533
 30
0.0
 10
59.383789
 20
318.827533
 30
0.0
 10
59.764789
 20
319.208533
 30
0.0
 10
60.166956
 20
319.589533
 30
0.0
 10
60.569122
 20
319.949366
 30
0.0
 10
60.971289
 20
320.309199
 30
0.0
 10
61.775622
 20
321.050033
 30
0.0
 10
62.601122
 20
321.748533
 30
0.0
 10
63.447789
 20
322.447033
 30
0.0
 10
64.294456
 20
323.124366
 30
0.0
 10
65.141122
 20
323.801699
 30
0.0
 10
66.008956
 20
324.457866
 30
0.0
 10
66.876789
 20
325.114033
 30
0.0
 10
67.765789
 20
325.749033
 30
0.0
 10
68.633622
 20
326.384033
 30
0.0
 10
69.543789
 20
326.997866
 30
0.0
 10
70.432789
 20
327.611699
 30
0.0
 10
71.342956
 20
328.204366
 30
0.0
 10
72.253122
 20
328.797033
 30
0.0
 10
73.163289
 20
329.389699
 30
0.0
 10
74.094622
 20
329.961199
 30
0.0
 10
75.025956
 20
330.532699
 30
0.0
 10
75.957289
 20
331.104199
 30
0.0
 10
76.888622
 20
331.654533
 30
0.0
 10
77.841122
 20
332.204866
 30
0.0
 10
78.772456
 20
332.734033
 30
0.0
 10
79.724956
 20
333.263199
 30
0.0
 10
80.677456
 20
333.792366
 30
0.0
 10
81.629956
 20
334.321533
 30
0.0
 10
82.582456
 20
334.829533
 30
0.0
 10
83.556122
 20
335.337533
 30
0.0
 10
84.508622
 20
335.845533
 30
0.0
 10
85.482289
 20
336.332366
 30
0.0
 10
86.455956
 20
336.819199
 30
0.0
 10
87.429622
 20
337.306033
 30
0.0
 10
88.403289
 20
337.792866
 30
0.0
 10
89.376956
 20
338.258533
 30
0.0
 10
90.371789
 20
338.724199
 30
0.0
 10
91.345456
 20
339.189866
 30
0.0
 10
92.340289
 20
339.655533
 30
0.0
 10
93.313956
 20
340.100033
 30
0.0
 10
94.308789
 20
340.565699
 30
0.0
 10
96.298456
 20
341.433533
 30
0.0
 10
98.288122
 20
342.301366
 30
0.0
 10
100.298956
 20
343.148033
 30
0.0
 10
102.309789
 20
343.994699
 30
0.0
 10
104.320622
 20
344.799033
 30
0.0
 10
106.352622
 20
345.603366
 30
0.0
 10
108.363456
 20
346.386533
 30
0.0
 10
110.416622
 20
347.148533
 30
0.0
 10
112.448622
 20
347.889366
 30
0.0
 10
114.501789
 20
348.630199
 30
0.0
 10
116.554956
 20
349.328699
 30
0.0
 10
118.608122
 20
350.027199
 30
0.0
 10
120.682456
 20
350.725699
 30
0.0
 10
122.735622
 20
351.403033
 30
0.0
 10
124.809956
 20
352.080366
 30
0.0
 10
126.884289
 20
352.757699
 30
0.0
 10
128.958622
 20
353.435033
 30
0.0
 10
129.995789
 20
353.752533
 30
0.0
 10
131.032956
 20
354.070033
 30
0.0
 10
132.070122
 20
354.366366
 30
0.0
 10
133.128456
 20
354.662699
 30
0.0
 10
134.186789
 20
354.937866
 30
0.0
 10
135.223956
 20
355.213033
 30
0.0
 10
136.282289
 20
355.445866
 30
0.0
 10
136.811456
 20
355.572866
 30
0.0
 10
137.361789
 20
355.678699
 30
0.0
 10
137.890956
 20
355.784533
 30
0.0
 10
138.420122
 20
355.890366
 30
0.0
 10
138.949289
 20
355.975033
 30
0.0
 10
139.499622
 20
356.059699
 30
0.0
 10
140.028789
 20
356.144366
 30
0.0
 10
140.579122
 20
356.229033
 30
0.0
 10
141.108289
 20
356.292533
 30
0.0
 10
141.658622
 20
356.356033
 30
0.0
 10
142.187789
 20
356.419533
 30
0.0
 10
142.738122
 20
356.483033
 30
0.0
 10
143.267289
 20
356.525366
 30
0.0
 10
143.817622
 20
356.546533
 30
0.0
 10
144.367956
 20
356.588866
 30
0.0
 10
144.897122
 20
356.610033
 30
0.0
 10
145.447456
 20
356.631199
 30
0.0
 10
145.997789
 20
356.631199
 30
0.0
 10
146.526956
 20
356.631199
 30
0.0
 10
147.077289
 20
356.631199
 30
0.0
 10
147.627622
 20
356.610033
 30
0.0
 10
148.156789
 20
356.588866
 30
0.0
 10
148.707122
 20
356.567699
 30
0.0
 10
149.257456
 20
356.525366
 30
0.0
 10
149.786622
 20
356.483033
 30
0.0
 10
150.336956
 20
356.419533
 30
0.0
 10
150.887289
 20
356.377199
 30
0.0
 10
151.416456
 20
356.292533
 30
0.0
 10
151.945622
 20
356.229033
 30
0.0
 10
152.495956
 20
356.144366
 30
0.0
 10
153.025122
 20
356.059699
 30
0.0
 10
153.554289
 20
355.953866
 30
0.0
 10
154.104622
 20
355.848033
 30
0.0
 10
154.633789
 20
355.721033
 30
0.0
 10
155.162956
 20
355.615199
 30
0.0
 10
155.692122
 20
355.467033
 30
0.0
 10
156.221289
 20
355.340033
 30
0.0
 10
156.750456
 20
355.191866
 30
0.0
 10
157.258456
 20
355.043699
 30
0.0
 10
157.787622
 20
354.874366
 30
0.0
 10
158.295622
 20
354.726199
 30
0.0
 10
158.824789
 20
354.535699
 30
0.0
 10
159.332789
 20
354.366366
 30
0.0
 10
159.840789
 20
354.175866
 30
0.0
 10
160.348789
 20
353.985366
 30
0.0
 10
160.856789
 20
353.794866
 30
0.0
 10
161.364789
 20
353.583199
 30
0.0
 10
161.872789
 20
353.371533
 30
0.0
 10
162.380789
 20
353.159866
 30
0.0
 10
162.867622
 20
352.948199
 30
0.0
 10
163.375622
 20
352.715366
 30
0.0
 10
163.862456
 20
352.482533
 30
0.0
 10
164.349289
 20
352.249699
 30
0.0
 10
164.836122
 20
352.016866
 30
0.0
 10
165.322956
 20
351.762866
 30
0.0
 10
165.809789
 20
351.508866
 30
0.0
 10
166.275456
 20
351.254866
 30
0.0
 10
166.762289
 20
351.000866
 30
0.0
 10
167.693622
 20
350.450533
 30
0.0
 10
168.646122
 20
349.900199
 30
0.0
 10
169.577456
 20
349.328699
 30
0.0
 10
170.487622
 20
348.778366
 30
0.0
  0
LWPOLYLINE
  5
123
100
AcDbEntity
  8
FullCuts
 62
7
100
AcDbPolyline
 90
29
 70
0
 10
115.115622
 20
313.853366
 30
0.0
 10
116.639622
 20
313.959199
 30
0.0
 10
118.184789
 20
314.065033
 30
0.0
 10
119.708789
 20
314.192033
 30
0.0
 10
120.470789
 20
314.255533
 30
0.0
 10
121.253956
 20
314.340199
 30
0.0
 10
122.015956
 20
314.424866
 30
0.0
 10
122.777956
 20
314.509533
 30
0.0
 10
123.539956
 20
314.594199
 30
0.0
 10
124.301956
 20
314.700033
 30
0.0
 10
125.063956
 20
314.827033
 30
0.0
 10
125.804789
 20
314.954033
 30
0.0
 10
126.566789
 20
315.081033
 30
0.0
 10
127.328789
 20
315.229199
 30
0.0
 10
128.069622
 20
315.398533
 30
0.0
 10
128.831622
 20
315.567866
 30
0.0
 10
129.572456
 20
315.758366
 30
0.0
 10
130.313289
 20
315.948866
 30
0.0
 10
131.054122
 20
316.160533
 30
0.0
 10
131.794956
 20
316.393366
 30
0.0
 10
132.535789
 20
316.626199
 30
0.0
 10
133.255456
 20
316.859033
 30
0.0
 10
133.975122
 20
317.134199
 30
0.0
 10
134.694789
 20
317.409366
 30
0.0
 10
135.414456
 20
317.684533
 30
0.0
 10
136.112956
 20
317.980866
 30
0.0
 10
136.832622
 20
318.277199
 30
0.0
 10
137.531122
 20
318.573533
 30
0.0
 10
138.949289
 20
319.187366
 30
0.0
  0
LWPOLYLINE
  5
124
100
AcDbEntity
  8
FullCuts
 62
7
100
AcDbPolyline
 90
29
 70
0
 10
145.405122
 20
314.784699
 30
0.0
 10
146.336456
 20
315.017533
 30
0.0
 10
146.802122
 20
315.144533
 30
0.0
 10
147.267789
 20
315.271533
 30
0.0
 10
147.733456
 20
315.398533
 30
0.0
 10
148.177956
 20
315.546699
 30
0.0
 10
148.643622
 20
315.694866
 30
0.0
 10
149.088122
 20
315.843033
 30
0.0
 10
149.532622
 20
316.033533
 30
0.0
 10
149.977122
 20
316.224033
 30
0.0
 10
150.421622
 20
316.414533
 30
0.0
 10
150.844956
 20
316.647366
 30
0.0
 10
151.056622
 20
316.753199
 30
0.0
 10
151.247122
 20
316.880199
 30
0.0
 10
151.458789
 20
317.007199
 30
0.0
 10
151.649289
 20
317.134199
 30
0.0
 10
151.860956
 20
317.282366
 30
0.0
 10
152.051456
 20
317.409366
 30
0.0
 10
152.432456
 20
317.705699
 30
0.0
 10
152.792289
 20
318.023199
 30
0.0
 10
153.152122
 20
318.340699
 30
0.0
 10
153.511956
 20
318.679366
 30
0.0
 10
153.850622
 20
319.018033
 30
0.0
 10
154.189289
 20
319.356699
 30
0.0
 10
154.506789
 20
319.695366
 30
0.0
 10
155.162956
 20
320.415033
 30
0.0
 10
155.797956
 20
321.113533
 30
0.0
 10
156.432956
 20
321.833199
 30
0.0
 10
157.681789
 20
323.293699
 30
0.0
  0
LWPOLYLINE
  5
125
100
AcDbEntity
  8
FullCuts
 62
7
100
AcDbPolyline
 90
2
 70
0
 10
148.495456
 20
282.674866
 30
0.0
 10
155.099456
 20
287.585533
 30
0.0
  0
LWPOLYLINE
  5
126
100
AcDbEntity
  8
FullCuts
 62
7
100
AcDbPolyline
 90
2
 70
0
 10
138.949289
 20
288.792033
 30
0.0
 10
141.214122
 20
293.258199
 30
0.0
  0
LWPOLYLINE
  5
127
100
AcDbEntity
  8
FullCuts
 62
7
100
AcDbPolyline
 90
2
 70
0
 10
142.251289
 20
287.014033
 30
0.0
 10
147.458289
 20
292.686699
 30
0.0
  0
LWPOLYLINE
  5
128
100
AcDbEntity
  8
FullCuts
 62
7
100
AcDbPolyline
 90
2
 70
0
 10
145.616789
 20
284.855033
 30
0.0
 10
152.432456
 20
290.294866
 30
0.0
  0
LWPOLYLINE
  5
129
100
AcDbEntity
  8
FullCuts
 62
7
100
AcDbPolyline
 90
4
 70
0
 10
151.395289
 20
280.177199
 30
0.0
 10
157.681789
 20
284.685699
 30
0.0
 10
172.350289
 20
267.561866
 30
0.0
 10
170.487622
 20
259.222199
 30
0.0
  0
LWPOLYLINE
  5
12a
100
AcDbEntity
  8
FullCuts
 62
7
100
AcDbPolyline
 90
3
 70
0
 10
185.071456
 20
289.956199
 30
0.0
 10
145.405122
 20
293.194699
 30
0.0
 10
115.115622
 20
294.126033
 30
0.0
  0
LWPOLYLINE
  5
12b
100
AcDbEntity
  8
FullCuts
 62
7
100
AcDbPolyline
 90
81
 70
0
 10
51.001789
 20
303.989699
 30
0.0
 10
51.022956
 20
303.460533
 30
0.0
 10
51.086456
 20
302.910199
 30
0.0
 10
51.149956
 20
302.381033
 30
0.0
 10
51.255789
 20
301.830699
 30
0.0
 10
51.530956
 20
300.772366
 30
0.0
 10
51.869622
 20
299.756366
 30
0.0
 10
52.271789
 20
298.740366
 30
0.0
 10
52.737456
 20
297.745533
 30
0.0
 10
53.266622
 20
296.793033
 30
0.0
 10
53.816956
 20
295.840533
 30
0.0
 10
54.409622
 20
294.930366
 30
0.0
 10
55.044622
 20
294.041366
 30
0.0
 10
55.721956
 20
293.194699
 30
0.0
 10
56.399289
 20
292.348033
 30
0.0
 10
57.118956
 20
291.522533
 30
0.0
 10
57.859789
 20
290.718199
 30
0.0
 10
58.600622
 20
289.935033
 30
0.0
 10
59.383789
 20
289.173033
 30
0.0
 10
60.166956
 20
288.411033
 30
0.0
 10
60.971289
 20
287.670199
 30
0.0
 10
62.601122
 20
286.230866
 30
0.0
 10
64.294456
 20
284.855033
 30
0.0
 10
66.008956
 20
283.521533
 30
0.0
 10
67.765789
 20
282.230366
 30
0.0
 10
69.543789
 20
280.981533
 30
0.0
 10
71.342956
 20
279.775033
 30
0.0
 10
73.163289
 20
278.610866
 30
0.0
 10
75.025956
 20
277.446699
 30
0.0
 10
76.888622
 20
276.346033
 30
0.0
 10
78.772456
 20
275.245366
 30
0.0
 10
80.677456
 20
274.187033
 30
0.0
 10
82.582456
 20
273.171033
 30
0.0
 10
84.508622
 20
272.155033
 30
0.0
 10
86.455956
 20
271.160199
 30
0.0
 10
88.403289
 20
270.207699
 30
0.0
 10
90.371789
 20
269.255199
 30
0.0
 10
92.340289
 20
268.345033
 30
0.0
 10
96.298456
 20
266.545866
 30
0.0
 10
100.298956
 20
264.831366
 30
0.0
 10
104.320622
 20
263.180366
 30
0.0
 10
108.363456
 20
261.614033
 30
0.0
 10
112.448622
 20
260.090033
 30
0.0
 10
116.554956
 20
258.650699
 30
0.0
 10
120.682456
 20
257.253699
 30
0.0
 10
124.809956
 20
255.899033
 30
0.0
 10
128.958622
 20
254.565533
 30
0.0
 10
131.032956
 20
253.930533
 30
0.0
 10
133.128456
 20
253.337866
 30
0.0
 10
135.223956
 20
252.787533
 30
0.0
 10
137.361789
 20
252.321866
 30
0.0
 10
138.420122
 20
252.110199
 30
0.0
 10
139.499622
 20
251.919699
 30
0.0
 10
140.579122
 20
251.771533
 30
0.0
 10
141.658622
 20
251.623366
 30
0.0
 10
142.738122
 20
251.517533
 30
0.0
 10
143.817622
 20
251.432866
 30
0.0
 10
144.897122
 20
251.390533
 30
0.0
 10
145.997789
 20
251.348199
 30
0.0
 10
147.077289
 20
251.369366
 30
0.0
 10
148.156789
 20
251.390533
 30
0.0
 10
149.257456
 20
251.454033
 30
0.0
 10
150.336956
 20
251.559866
 30
0.0
 10
151.416456
 20
251.686866
 30
0.0
 10
152.495956
 20
251.856199
 30
0.0
 10
153.554289
 20
252.046699
 30
0.0
 10
154.633789
 20
252.258366
 30
0.0
 10
155.692122
 20
252.512366
 30
0.0
 10
156.750456
 20
252.787533
 30
0.0
 10
157.787622
 20
253.105033
 30
0.0
 10
158.824789
 20
253.443699
 30
0.0
 10
159.840789
 20
253.803533
 30
0.0
 10
160.856789
 20
254.205699
 30
0.0
 10
161.872789
 20
254.607866
 30
0.0
 10
162.867622
 20
255.052366
 30
0.0
 10
163.862456
 20
255.496866
 30
0.0
 10
164.836122
 20
255.983699
 30
0.0
 10
165.809789
 20
256.470533
 30
0.0
 10
166.762289
 20
256.999699
 30
0.0
 10
168.646122
 20
258.079199
 30
0.0
 10
170.487622
 20
259.222199
 30
0.0
  0
LWPOLYLINE
  5
12c
100
AcDbEntity
  8
FullCuts
 62
7
100
AcDbPolyline
 90
20
 70
0
 10
115.115622
 20
294.126033
 30
0.0
 10
118.184789
 20
293.914366
 30
0.0
 10
119.708789
 20
293.787366
 30
0.0
 10
121.253956
 20
293.660366
 30
0.0
 10
122.777956
 20
293.491033
 30
0.0
 10
124.301956
 20
293.279366
 30
0.0
 10
125.804789
 20
293.046533
 30
0.0
 10
127.328789
 20
292.750199
 30
0.0
 10
128.831622
 20
292.411533
 30
0.0
 10
129.572456
 20
292.242199
 30
0.0
 10
130.313289
 20
292.030533
 30
0.0
 10
131.054122
 20
291.818866
 30
0.0
 10
131.794956
 20
291.607199
 30
0.0
 10
132.535789
 20
291.374366
 30
0.0
 10
133.255456
 20
291.120366
 30
0.0
 10
133.975122
 20
290.866366
 30
0.0
 10
134.694789
 20
290.591199
 30
0.0
 10
136.112956
 20
290.019699
 30
0.0
 10
137.531122
 20
289.405866
 30
0.0
 10
138.949289
 20
288.792033
 30
0.0
  0
LWPOLYLINE
  5
12d
100
AcDbEntity
  8
FullCuts
 62
7
100
AcDbPolyline
 90
20
 70
0
 10
145.405122
 20
293.194699
 30
0.0
 10
146.336456
 20
292.961866
 30
0.0
 10
147.267789
 20
292.729033
 30
0.0
 10
148.177956
 20
292.453866
 30
0.0
 10
149.088122
 20
292.136366
 30
0.0
 10
149.532622
 20
291.967033
 30
0.0
 10
149.977122
 20
291.776533
 30
0.0
 10
150.421622
 20
291.564866
 30
0.0
 10
150.844956
 20
291.353199
 30
0.0
 10
151.247122
 20
291.099199
 30
0.0
 10
151.649289
 20
290.845199
 30
0.0
 10
152.051456
 20
290.570033
 30
0.0
 10
152.432456
 20
290.273699
 30
0.0
 10
152.792289
 20
289.977366
 30
0.0
 10
153.152122
 20
289.659866
 30
0.0
 10
153.850622
 20
288.982533
 30
0.0
 10
154.506789
 20
288.284033
 30
0.0
 10
155.162956
 20
287.585533
 30
0.0
 10
156.432956
 20
286.146199
 30
0.0
 10
157.681789
 20
284.685699
 30
0.0
  0
LWPOLYLINE
  5
12e
100
AcDbEntity
  8
FullCuts
 62
7
100
AcDbPolyline
 90
3
 70
0
 10
304.269930
 20
268.952598
 30
0.0
 10
292.712930
 20
268.952598
 30
0.0
 10
292.712930
 20
264.740431
 30
0.0
  0
LWPOLYLINE
  5
12f
100
AcDbEntity
  8
FullCuts
 62
7
100
AcDbPolyline
 90
128
 70
0
 10
304.269930
 20
268.952598
 30
0.0
 10
304.248764
 20
269.841598
 30
0.0
 10
304.227597
 20
270.307265
 30
0.0
 10
304.185264
 20
270.751765
 30
0.0
 10
304.121764
 20
271.196265
 30
0.0
 10
304.058264
 20
271.640765
 30
0.0
 10
303.994764
 20
272.085265
 30
0.0
 10
303.910097
 20
272.529765
 30
0.0
 10
303.804264
 20
272.974265
 30
0.0
 10
303.677264
 20
273.418765
 30
0.0
 10
303.550264
 20
273.842098
 30
0.0
 10
303.423264
 20
274.286598
 30
0.0
 10
303.275097
 20
274.709931
 30
0.0
 10
303.105764
 20
275.133265
 30
0.0
 10
302.915264
 20
275.535431
 30
0.0
 10
302.724764
 20
275.937598
 30
0.0
 10
302.513097
 20
276.339765
 30
0.0
 10
302.301430
 20
276.741931
 30
0.0
 10
302.068597
 20
277.122931
 30
0.0
 10
301.814597
 20
277.503931
 30
0.0
 10
301.560597
 20
277.884931
 30
0.0
 10
301.285430
 20
278.244765
 30
0.0
 10
301.010264
 20
278.604598
 30
0.0
 10
300.713930
 20
278.943265
 30
0.0
 10
300.417597
 20
279.281931
 30
0.0
 10
300.100097
 20
279.599431
 30
0.0
 10
299.761430
 20
279.916931
 30
0.0
 10
299.422764
 20
280.213265
 30
0.0
 10
299.084097
 20
280.509598
 30
0.0
 10
298.724264
 20
280.784765
 30
0.0
 10
298.364430
 20
281.059931
 30
0.0
 10
298.004597
 20
281.313931
 30
0.0
 10
297.623597
 20
281.567931
 30
0.0
 10
297.242597
 20
281.800765
 30
0.0
 10
296.840430
 20
282.033598
 30
0.0
 10
296.438264
 20
282.245265
 30
0.0
 10
296.036097
 20
282.456931
 30
0.0
 10
295.633930
 20
282.647431
 30
0.0
 10
295.231764
 20
282.837931
 30
0.0
 10
294.808430
 20
283.007265
 30
0.0
 10
294.385097
 20
283.176598
 30
0.0
 10
293.961764
 20
283.345931
 30
0.0
 10
293.538430
 20
283.472931
 30
0.0
 10
293.093930
 20
283.621098
 30
0.0
 10
292.670597
 20
283.748098
 30
0.0
 10
292.226097
 20
283.875098
 30
0.0
 10
291.802764
 20
283.980931
 30
0.0
 10
291.358264
 20
284.086765
 30
0.0
 10
290.913764
 20
284.171431
 30
0.0
 10
290.469264
 20
284.277265
 30
0.0
 10
290.024764
 20
284.340765
 30
0.0
 10
289.580264
 20
284.425431
 30
0.0
 10
289.135764
 20
284.488931
 30
0.0
 10
288.691264
 20
284.552431
 30
0.0
 10
288.246764
 20
284.594765
 30
0.0
 10
287.781097
 20
284.637098
 30
0.0
 10
287.336597
 20
284.679431
 30
0.0
 10
286.892097
 20
284.700598
 30
0.0
 10
286.426430
 20
284.742931
 30
0.0
 10
285.981930
 20
284.764098
 30
0.0
 10
285.537430
 20
284.764098
 30
0.0
 10
285.071764
 20
284.785265
 30
0.0
 10
284.182764
 20
284.785265
 30
0.0
 10
283.272597
 20
284.785265
 30
0.0
 10
282.828097
 20
284.764098
 30
0.0
 10
282.362430
 20
284.764098
 30
0.0
 10
281.917930
 20
284.742931
 30
0.0
 10
281.473430
 20
284.700598
 30
0.0
 10
281.028930
 20
284.679431
 30
0.0
 10
280.563264
 20
284.637098
 30
0.0
 10
280.118764
 20
284.594765
 30
0.0
 10
279.674264
 20
284.552431
 30
0.0
 10
279.229764
 20
284.488931
 30
0.0
 10
278.785264
 20
284.425431
 30
0.0
 10
278.319597
 20
284.340765
 30
0.0
 10
277.875097
 20
284.277265
 30
0.0
 10
277.430597
 20
284.171431
 30
0.0
 10
277.007264
 20
284.086765
 30
0.0
 10
276.562764
 20
283.980931
 30
0.0
 10
276.118264
 20
283.875098
 30
0.0
 10
275.694930
 20
283.748098
 30
0.0
 10
275.250430
 20
283.621098
 30
0.0
 10
274.827097
 20
283.472931
 30
0.0
 10
274.403764
 20
283.345931
 30
0.0
 10
273.980430
 20
283.176598
 30
0.0
 10
273.557097
 20
283.007265
 30
0.0
 10
273.133764
 20
282.837931
 30
0.0
 10
272.731597
 20
282.647431
 30
0.0
 10
272.308264
 20
282.456931
 30
0.0
 10
271.906097
 20
282.245265
 30
0.0
 10
271.503930
 20
282.033598
 30
0.0
 10
271.122930
 20
281.800765
 30
0.0
 10
270.741930
 20
281.567931
 30
0.0
 10
270.360930
 20
281.313931
 30
0.0
 10
269.979930
 20
281.059931
 30
0.0
 10
269.620097
 20
280.784765
 30
0.0
 10
269.281430
 20
280.509598
 30
0.0
 10
268.921597
 20
280.213265
 30
0.0
 10
268.582930
 20
279.916931
 30
0.0
 10
268.265430
 20
279.599431
 30
0.0
 10
267.947930
 20
279.281931
 30
0.0
 10
267.651597
 20
278.943265
 30
0.0
 10
267.355264
 20
278.604598
 30
0.0
 10
267.058930
 20
278.244765
 30
0.0
 10
266.804930
 20
277.884931
 30
0.0
 10
266.529764
 20
277.503931
 30
0.0
 10
266.296930
 20
277.122931
 30
0.0
 10
266.064097
 20
276.741931
 30
0.0
 10
265.831264
 20
276.339765
 30
0.0
 10
265.619597
 20
275.937598
 30
0.0
 10
265.429097
 20
275.535431
 30
0.0
 10
265.259764
 20
275.133265
 30
0.0
 10
265.090430
 20
274.709931
 30
0.0
 10
264.942264
 20
274.286598
 30
0.0
 10
264.794097
 20
273.842098
 30
0.0
 10
264.667097
 20
273.418765
 30
0.0
 10
264.561264
 20
272.974265
 30
0.0
 10
264.455430
 20
272.529765
 30
0.0
 10
264.370764
 20
272.085265
 30
0.0
 10
264.286097
 20
271.640765
 30
0.0
 10
264.222597
 20
271.196265
 30
0.0
 10
264.180264
 20
270.751765
 30
0.0
 10
264.137930
 20
270.307265
 30
0.0
 10
264.116764
 20
269.841598
 30
0.0
 10
264.095597
 20
268.952598
 30
0.0
 10
275.652597
 20
268.952598
 30
0.0
 10
275.652597
 20
264.740431
 30
0.0
 10
292.712930
 20
264.740431
 30
0.0
  0
LWPOLYLINE
  5
130
100
AcDbEntity
  8
FullCuts
 62
7
100
AcDbPolyline
 90
60
 70
0
 10
332.908430
 20
264.362081
 30
0.0
 10
349.968764
 20
264.362081
 30
0.0
 10
349.968764
 20
268.807081
 30
0.0
 10
361.525764
 20
268.807081
 30
0.0
 10
361.504597
 20
269.632581
 30
0.0
 10
361.462264
 20
270.055915
 30
0.0
 10
361.419930
 20
270.458081
 30
0.0
 10
361.356430
 20
270.860248
 30
0.0
 10
361.271764
 20
271.262415
 30
0.0
 10
361.165930
 20
271.664581
 30
0.0
 10
361.038930
 20
272.066748
 30
0.0
 10
360.911930
 20
272.447748
 30
0.0
 10
360.742597
 20
272.849915
 30
0.0
 10
360.594430
 20
273.209748
 30
0.0
 10
360.403930
 20
273.590748
 30
0.0
 10
360.213430
 20
273.950581
 30
0.0
 10
360.001764
 20
274.310415
 30
0.0
 10
359.768930
 20
274.649081
 30
0.0
 10
359.514930
 20
274.987748
 30
0.0
 10
359.260930
 20
275.305248
 30
0.0
 10
359.006930
 20
275.622748
 30
0.0
 10
358.731764
 20
275.940248
 30
0.0
 10
358.435430
 20
276.236581
 30
0.0
 10
358.139097
 20
276.511748
 30
0.0
 10
357.821597
 20
276.786915
 30
0.0
 10
357.504097
 20
277.062081
 30
0.0
 10
357.186597
 20
277.294915
 30
0.0
 10
356.847930
 20
277.548915
 30
0.0
 10
356.509264
 20
277.781748
 30
0.0
 10
356.170597
 20
277.993415
 30
0.0
 10
355.810764
 20
278.226248
 30
0.0
 10
355.450930
 20
278.416748
 30
0.0
 10
355.091097
 20
278.607248
 30
0.0
 10
354.710097
 20
278.797748
 30
0.0
 10
354.350264
 20
278.967081
 30
0.0
 10
353.969264
 20
279.136415
 30
0.0
 10
353.588264
 20
279.305748
 30
0.0
 10
353.207264
 20
279.453915
 30
0.0
 10
352.826264
 20
279.602081
 30
0.0
 10
352.424097
 20
279.729081
 30
0.0
 10
352.043097
 20
279.856081
 30
0.0
 10
351.640930
 20
279.983081
 30
0.0
 10
351.238764
 20
280.110081
 30
0.0
 10
350.836597
 20
280.215915
 30
0.0
 10
350.455597
 20
280.300581
 30
0.0
 10
350.053430
 20
280.406415
 30
0.0
 10
349.651264
 20
280.491081
 30
0.0
 10
349.227930
 20
280.575748
 30
0.0
 10
348.825764
 20
280.660415
 30
0.0
 10
348.423597
 20
280.723915
 30
0.0
 10
348.021430
 20
280.787415
 30
0.0
 10
347.619264
 20
280.850915
 30
0.0
 10
347.195930
 20
280.914415
 30
0.0
 10
346.391597
 20
280.999081
 30
0.0
 10
345.566097
 20
281.083748
 30
0.0
 10
344.740597
 20
281.147248
 30
0.0
 10
343.915097
 20
281.189581
 30
0.0
 10
343.089597
 20
281.231915
 30
0.0
 10
342.264097
 20
281.231915
 30
0.0
 10
341.438597
 20
281.231915
 30
0.0
  0
LWPOLYLINE
  5
131
100
AcDbEntity
  8
FullCuts
 62
7
100
AcDbPolyline
 90
59
 70
0
 10
332.908430
 20
264.362081
 30
0.0
 10
332.908430
 20
268.807081
 30
0.0
 10
321.351430
 20
268.807081
 30
0.0
 10
321.393764
 20
269.632581
 30
0.0
 10
321.436097
 20
270.055915
 30
0.0
 10
321.478430
 20
270.458081
 30
0.0
 10
321.541930
 20
270.860248
 30
0.0
 10
321.626597
 20
271.262415
 30
0.0
 10
321.732430
 20
271.664581
 30
0.0
 10
321.838264
 20
272.066748
 30
0.0
 10
321.986430
 20
272.447748
 30
0.0
 10
322.134597
 20
272.849915
 30
0.0
 10
322.303930
 20
273.209748
 30
0.0
 10
322.494430
 20
273.590748
 30
0.0
 10
322.684930
 20
273.950581
 30
0.0
 10
322.896597
 20
274.310415
 30
0.0
 10
323.129430
 20
274.649081
 30
0.0
 10
323.362264
 20
274.987748
 30
0.0
 10
323.616264
 20
275.305248
 30
0.0
 10
323.891430
 20
275.622748
 30
0.0
 10
324.166597
 20
275.940248
 30
0.0
 10
324.441764
 20
276.236581
 30
0.0
 10
324.759264
 20
276.511748
 30
0.0
 10
325.055597
 20
276.786915
 30
0.0
 10
325.373097
 20
277.062081
 30
0.0
 10
325.711764
 20
277.294915
 30
0.0
 10
326.029264
 20
277.548915
 30
0.0
 10
326.367930
 20
277.781748
 30
0.0
 10
326.727764
 20
277.993415
 30
0.0
 10
327.087597
 20
278.226248
 30
0.0
 10
327.447430
 20
278.416748
 30
0.0
 10
327.807264
 20
278.607248
 30
0.0
 10
328.167097
 20
278.797748
 30
0.0
 10
328.548097
 20
278.967081
 30
0.0
 10
328.929097
 20
279.136415
 30
0.0
 10
329.310097
 20
279.305748
 30
0.0
 10
329.691097
 20
279.453915
 30
0.0
 10
330.072097
 20
279.602081
 30
0.0
 10
330.453097
 20
279.729081
 30
0.0
 10
330.855264
 20
279.856081
 30
0.0
 10
331.257430
 20
279.983081
 30
0.0
 10
331.638430
 20
280.110081
 30
0.0
 10
332.040597
 20
280.215915
 30
0.0
 10
332.442764
 20
280.300581
 30
0.0
 10
332.844930
 20
280.406415
 30
0.0
 10
333.247097
 20
280.491081
 30
0.0
 10
333.649264
 20
280.575748
 30
0.0
 10
334.051430
 20
280.660415
 30
0.0
 10
334.453597
 20
280.723915
 30
0.0
 10
334.876930
 20
280.787415
 30
0.0
 10
335.279097
 20
280.850915
 30
0.0
 10
335.681264
 20
280.914415
 30
0.0
 10
336.506764
 20
280.999081
 30
0.0
 10
337.332264
 20
281.083748
 30
0.0
 10
338.157764
 20
281.147248
 30
0.0
 10
338.962097
 20
281.189581
 30
0.0
 10
339.787597
 20
281.231915
 30
0.0
 10
340.613097
 20
281.231915
 30
0.0
 10
341.438597
 20
281.231915
 30
0.0
  0
LWPOLYLINE
  5
132
100
AcDbEntity
  8
FullCuts
 62
7
100
AcDbPolyline
 90
4
 70
0
 10
251.198674
 20
274.990263
 30
0.0
 10
240.403674
 20
274.990263
 30
0.0
 10
240.403674
 20
263.306263
 30
0.0
 10
223.343340
 20
263.306263
 30
0.0
  0
LWPOLYLINE
  5
133
100
AcDbEntity
  8
FullCuts
 62
7
100
AcDbPolyline
 90
103
 70
0
 10
251.198674
 20
274.990263
 30
0.0
 10
250.902340
 20
275.646429
 30
0.0
 10
250.754174
 20
275.963929
 30
0.0
 10
250.584840
 20
276.281429
 30
0.0
 10
250.436674
 20
276.598929
 30
0.0
 10
250.246174
 20
276.895263
 30
0.0
 10
250.055674
 20
277.212763
 30
0.0
 10
249.844007
 20
277.509096
 30
0.0
 10
249.632340
 20
277.784263
 30
0.0
 10
249.420674
 20
278.059429
 30
0.0
 10
249.187840
 20
278.334596
 30
0.0
 10
248.955007
 20
278.609763
 30
0.0
 10
248.701007
 20
278.863763
 30
0.0
 10
248.447007
 20
279.138929
 30
0.0
 10
248.193007
 20
279.371763
 30
0.0
 10
247.939007
 20
279.625763
 30
0.0
 10
247.663840
 20
279.858596
 30
0.0
 10
247.388674
 20
280.091429
 30
0.0
 10
247.092340
 20
280.303096
 30
0.0
 10
246.817174
 20
280.514763
 30
0.0
 10
246.520840
 20
280.726429
 30
0.0
 10
246.224507
 20
280.916929
 30
0.0
 10
245.928174
 20
281.128596
 30
0.0
 10
245.631840
 20
281.319096
 30
0.0
 10
245.314340
 20
281.488429
 30
0.0
 10
244.996840
 20
281.657763
 30
0.0
 10
244.679340
 20
281.848263
 30
0.0
 10
244.361840
 20
281.996429
 30
0.0
 10
244.044340
 20
282.165763
 30
0.0
 10
243.726840
 20
282.313929
 30
0.0
 10
243.388174
 20
282.462096
 30
0.0
 10
243.070674
 20
282.610263
 30
0.0
 10
242.732007
 20
282.737263
 30
0.0
 10
242.414507
 20
282.864263
 30
0.0
 10
242.075840
 20
282.991263
 30
0.0
 10
241.737174
 20
283.118263
 30
0.0
 10
241.398507
 20
283.224096
 30
0.0
 10
241.059840
 20
283.351096
 30
0.0
 10
240.361340
 20
283.541596
 30
0.0
 10
239.684007
 20
283.732096
 30
0.0
 10
238.985507
 20
283.901429
 30
0.0
 10
238.287007
 20
284.049596
 30
0.0
 10
237.588507
 20
284.197763
 30
0.0
 10
236.868840
 20
284.303596
 30
0.0
 10
236.170340
 20
284.409429
 30
0.0
 10
235.450674
 20
284.494096
 30
0.0
 10
234.731007
 20
284.557596
 30
0.0
 10
234.032507
 20
284.599929
 30
0.0
 10
233.312840
 20
284.642263
 30
0.0
 10
232.593174
 20
284.663429
 30
0.0
 10
231.873507
 20
284.663429
 30
0.0
 10
231.175007
 20
284.663429
 30
0.0
 10
230.455340
 20
284.642263
 30
0.0
 10
229.735674
 20
284.599929
 30
0.0
 10
229.016007
 20
284.557596
 30
0.0
 10
228.317507
 20
284.494096
 30
0.0
 10
227.597840
 20
284.409429
 30
0.0
 10
226.878174
 20
284.303596
 30
0.0
 10
226.179674
 20
284.197763
 30
0.0
 10
225.481174
 20
284.049596
 30
0.0
 10
224.782674
 20
283.901429
 30
0.0
 10
224.084174
 20
283.732096
 30
0.0
 10
223.385674
 20
283.541596
 30
0.0
 10
222.708340
 20
283.351096
 30
0.0
 10
222.369674
 20
283.224096
 30
0.0
 10
222.031007
 20
283.118263
 30
0.0
 10
221.692340
 20
282.991263
 30
0.0
 10
221.353674
 20
282.864263
 30
0.0
 10
221.015007
 20
282.737263
 30
0.0
 10
220.697507
 20
282.610263
 30
0.0
 10
220.358840
 20
282.462096
 30
0.0
 10
220.041340
 20
282.313929
 30
0.0
 10
219.702674
 20
282.165763
 30
0.0
 10
219.385174
 20
281.996429
 30
0.0
 10
219.067674
 20
281.848263
 30
0.0
 10
218.750174
 20
281.657763
 30
0.0
 10
218.453840
 20
281.488429
 30
0.0
 10
218.136340
 20
281.319096
 30
0.0
 10
217.840007
 20
281.128596
 30
0.0
 10
217.543674
 20
280.916929
 30
0.0
 10
217.247340
 20
280.726429
 30
0.0
 10
216.951007
 20
280.514763
 30
0.0
 10
216.654674
 20
280.303096
 30
0.0
 10
216.379507
 20
280.091429
 30
0.0
 10
216.104340
 20
279.858596
 30
0.0
 10
215.829174
 20
279.625763
 30
0.0
 10
215.575174
 20
279.371763
 30
0.0
 10
215.300007
 20
279.138929
 30
0.0
 10
215.067174
 20
278.863763
 30
0.0
 10
214.813174
 20
278.609763
 30
0.0
 10
214.580340
 20
278.334596
 30
0.0
 10
214.347507
 20
278.059429
 30
0.0
 10
214.114674
 20
277.784263
 30
0.0
 10
213.903007
 20
277.509096
 30
0.0
 10
213.712507
 20
277.212763
 30
0.0
 10
213.522007
 20
276.895263
 30
0.0
 10
213.331507
 20
276.598929
 30
0.0
 10
213.162174
 20
276.281429
 30
0.0
 10
213.014007
 20
275.963929
 30
0.0
 10
212.844674
 20
275.646429
 30
0.0
 10
212.569507
 20
274.990263
 30
0.0
 10
223.343340
 20
274.990263
 30
0.0
 10
223.343340
 20
263.306263
 30
0.0
  0
SPLINE
  5
134
100
AcDbEntity
  8
FullCuts
 62
7
100
AcDbSpline
 70
0
 71
3
 72
10
 73
6
 74
4
 40
0.000000
 40
0.000000
 40
0.000000
 40
0.000000
 40
9.893458
 40
19.617799
 40
29.511256
 40
29.511256
 40
29.511256
 40
29.511256
 10
185.082378
 20
318.039034
 30
0.0
 10
183.600858
 20
315.060283
 30
0.0
 10
180.663144
 20
309.153700
 30
0.0
 10
180.663144
 20
298.846866
 30
0.0
 10
183.600858
 20
292.940282
 30
0.0
 10
185.082378
 20
289.961531
 30
0.0
 11
185.082378
 21
318.039034
 31
0.0
 11
181.384964
 21
308.862453
 31
0.0
 11
181.384964
 21
299.138112
 31
0.0
 11
185.082378
 21
289.961531
 31
0.0
  0
LWPOLYLINE
  5
135
100
AcDbEntity
  8
FullCuts
 62
7
100
AcDbPolyline
 90
4
 70
0
 10
376.225844
 20
274.041739
 30
0.0
 10
373.664678
 20
274.041739
 30
0.0
 10
373.664678
 20
264.347406
 30
0.0
 10
391.444678
 20
264.347406
 30
0.0
  0
LWPOLYLINE
  5
136
100
AcDbEntity
  8
FullCuts
 62
7
100
AcDbPolyline
 90
2
 70
0
 10
376.225844
 20
274.041739
 30
0.0
 10
376.225844
 20
280.497572
 30
0.0
  0
LWPOLYLINE
  5
137
100
AcDbEntity
  8
FullCuts
 62
7
100
AcDbPolyline
 90
4
 70
0
 10
388.883511
 20
280.497572
 30
0.0
 10
388.883511
 20
274.041739
 30
0.0
 10
391.444678
 20
274.041739
 30
0.0
 10
391.444678
 20
264.347406
 30
0.0
  0
LWPOLYLINE
  5
138
100
AcDbEntity
  8
FullCuts
 62
7
100
AcDbPolyline
 90
5
 70
0
 10
90.800769
 20
238.563166
 30
0.0
 10
113.385603
 20
238.563166
 30
0.0
 10
124.413436
 20
11.063838
 30
0.0
 10
90.800769
 20
10.788672
 30
0.0
 10
90.800769
 20
238.563166
 30
0.0
  0
LWPOLYLINE
  5
139
100
AcDbEntity
  8
FullCuts
 62
7
100
AcDbPolyline
 90
5
 70
0
 10
85.975783
 20
11.312682
 30
0.0
 10
85.996949
 20
226.112024
 30
0.0
 10
45.801449
 20
226.112024
 30
0.0
 10
45.801449
 20
11.312682
 30
0.0
 10
85.975783
 20
11.312682
 30
0.0
  0
LWPOLYLINE
  5
13a
100
AcDbEntity
  8
FullCuts
 62
7
100
AcDbPolyline
 90
2
 70
0
 10
183.066100
 20
134.962216
 30
0.0
 10
183.066100
 20
118.346383
 30
0.0
  0
SPLINE
  5
13b
100
AcDbEntity
  8
FullCuts
 62
7
100
AcDbSpline
 70
0
 71
3
 72
13
 73
9
 74
7
 40
0.000000
 40
0.000000
 40
0.000000
 40
0.000000
 40
2.410031
 40
4.795284
 40
7.205315
 40
9.615346
 40
12.000598
 40
14.410629
 40
14.410629
 40
14.410629
 40
14.410629
 10
388.899856
 20
280.523533
 30
0.0
 10
388.332648
 20
281.100691
 30
0.0
 10
387.204062
 20
282.249074
 30
0.0
 10
384.969556
 20
283.259790
 30
0.0
 10
382.565261
 20
283.625593
 30
0.0
 10
380.160966
 20
283.259790
 30
0.0
 10
377.926459
 20
282.249074
 30
0.0
 10
376.797874
 20
281.100691
 30
0.0
 10
376.230666
 20
280.523533
 30
0.0
 11
388.899856
 21
280.523533
 31
0.0
 11
387.107671
 21
282.134843
 31
0.0
 11
384.949282
 21
283.150120
 31
0.0
 11
382.565261
 21
283.503239
 31
0.0
 11
380.181240
 21
283.150120
 31
0.0
 11
378.022851
 21
282.134843
 31
0.0
 11
376.230666
 21
280.523533
 31
0.0
  0
LWPOLYLINE
  5
13c
100
AcDbEntity
  8
FullCuts
 62
7
100
AcDbPolyline
 90
2
 70
0
 10
225.822767
 20
24.493383
 30
0.0
 10
240.893433
 20
126.643716
 30
0.0
  0
LWPOLYLINE
  5
13d
100
AcDbEntity
  8
FullCuts
 62
7
100
AcDbPolyline
 90
3
 70
0
 10
183.066100
 20
118.346383
 30
0.0
 10
164.354767
 20
118.409883
 30
0.0
 10
177.139433
 20
24.027716
 30
0.0
  0
LWPOLYLINE
  5
13e
100
AcDbEntity
  8
FullCuts
 62
7
100
AcDbPolyline
 90
6
 70
0
 10
209.778433
 20
121.330883
 30
0.0
 10
209.778433
 20
121.330883
 30
0.0
 10
225.484100
 20
120.378383
 30
0.0
 10
225.230100
 20
116.060383
 30
0.0
 10
209.503267
 20
117.012883
 30
0.0
 10
209.778433
 20
121.330883
 30
0.0
  0
LWPOLYLINE
  5
13f
100
AcDbEntity
  8
FullCuts
 62
7
100
AcDbPolyline
 90
2
 70
0
 10
184.187933
 20
142.751552
 30
0.0
 10
174.514767
 20
142.751552
 30
0.0
  0
LWPOLYLINE
  5
140
100
AcDbEntity
  8
FullCuts
 62
7
100
AcDbPolyline
 90
5
 70
0
 10
191.278767
 20
124.484716
 30
0.0
 10
219.811433
 20
124.484716
 30
0.0
 10
219.811433
 20
128.802716
 30
0.0
 10
191.278767
 20
128.802716
 30
0.0
 10
191.278767
 20
124.484716
 30
0.0
  0
LWPOLYLINE
  5
141
100
AcDbEntity
  8
FullCuts
 62
7
100
AcDbPolyline
 90
49
 70
0
 10
177.139433
 20
24.027716
 30
0.0
 10
177.287600
 20
23.646716
 30
0.0
 10
177.372267
 20
23.477383
 30
0.0
 10
177.435767
 20
23.286883
 30
0.0
 10
177.520433
 20
23.096383
 30
0.0
 10
177.626267
 20
22.927049
 30
0.0
 10
177.816767
 20
22.567216
 30
0.0
 10
178.028433
 20
22.207383
 30
0.0
 10
178.240100
 20
21.868716
 30
0.0
 10
178.494100
 20
21.551216
 30
0.0
 10
178.748100
 20
21.233716
 30
0.0
 10
179.023267
 20
20.937383
 30
0.0
 10
179.298433
 20
20.641049
 30
0.0
 10
179.594767
 20
20.344716
 30
0.0
 10
179.891100
 20
20.090716
 30
0.0
 10
180.208600
 20
19.815549
 30
0.0
 10
180.526100
 20
19.582716
 30
0.0
 10
180.864767
 20
19.349883
 30
0.0
 10
181.203433
 20
19.117049
 30
0.0
 10
181.542100
 20
18.905383
 30
0.0
 10
181.880767
 20
18.693716
 30
0.0
 10
182.240600
 20
18.482049
 30
0.0
 10
182.600433
 20
18.312716
 30
0.0
 10
182.960267
 20
18.122216
 30
0.0
 10
183.341267
 20
17.952883
 30
0.0
 10
183.701100
 20
17.783549
 30
0.0
 10
184.082100
 20
17.635383
 30
0.0
 10
184.463100
 20
17.466049
 30
0.0
 10
184.844100
 20
17.339049
 30
0.0
 10
185.225100
 20
17.190883
 30
0.0
 10
185.606100
 20
17.063883
 30
0.0
 10
185.987100
 20
16.936883
 30
0.0
 10
186.368100
 20
16.809883
 30
0.0
 10
187.151267
 20
16.577049
 30
0.0
 10
187.934433
 20
16.365383
 30
0.0
 10
188.717600
 20
16.174883
 30
0.0
 10
189.521933
 20
16.005549
 30
0.0
 10
190.305100
 20
15.836216
 30
0.0
 10
191.109433
 20
15.688049
 30
0.0
 10
191.913767
 20
15.561049
 30
0.0
 10
192.718100
 20
15.434049
 30
0.0
 10
193.522433
 20
15.307049
 30
0.0
 10
194.326767
 20
15.201216
 30
0.0
 10
195.131100
 20
15.095383
 30
0.0
 10
195.935433
 20
15.010716
 30
0.0
 10
196.739767
 20
14.926049
 30
0.0
 10
198.348433
 20
14.756716
 30
0.0
 10
199.978267
 20
14.587383
 30
0.0
 10
212.318433
 20
13.677216
 30
0.0
  0
SPLINE
  5
142
100
AcDbEntity
  8
FullCuts
 62
7
100
AcDbSpline
 70
0
 71
3
 72
10
 73
6
 74
4
 40
0.000000
 40
0.000000
 40
0.000000
 40
0.000000
 40
6.336640
 40
12.500111
 40
18.836751
 40
18.836751
 40
18.836751
 40
18.836751
 10
212.332594
 20
13.689953
 30
0.0
 10
214.472186
 20
13.851672
 30
0.0
 10
218.692900
 20
14.170691
 30
0.0
 10
223.980369
 20
18.408318
 30
0.0
 10
225.210965
 20
22.458235
 30
0.0
 10
225.834787
 20
24.511247
 30
0.0
 11
212.332594
 21
13.689953
 31
0.0
 11
218.568422
 21
14.815769
 31
0.0
 11
223.377887
 21
18.670301
 31
0.0
 11
225.834787
 21
24.511247
 31
0.0
  0
LWPOLYLINE
  5
143
100
AcDbEntity
  8
FullCuts
 62
7
100
AcDbPolyline
 90
2
 70
0
 10
225.822767
 20
228.794052
 30
0.0
 10
240.893433
 20
126.643716
 30
0.0
  0
LWPOLYLINE
  5
144
100
AcDbEntity
  8
FullCuts
 62
7
100
AcDbPolyline
 90
3
 70
0
 10
183.066100
 20
134.962216
 30
0.0
 10
164.354767
 20
134.877549
 30
0.0
 10
177.139433
 20
229.259719
 30
0.0
  0
LWPOLYLINE
  5
145
100
AcDbEntity
  8
FullCuts
 62
7
100
AcDbPolyline
 90
6
 70
0
 10
209.778433
 20
131.956549
 30
0.0
 10
209.778433
 20
131.956549
 30
0.0
 10
225.484100
 20
132.909049
 30
0.0
 10
225.230100
 20
137.227049
 30
0.0
 10
209.503267
 20
136.274549
 30
0.0
 10
209.778433
 20
131.956549
 30
0.0
  0
LWPOLYLINE
  5
146
100
AcDbEntity
  8
FullCuts
 62
7
100
AcDbPolyline
 90
49
 70
0
 10
177.139433
 20
229.259719
 30
0.0
 10
177.287600
 20
229.640719
 30
0.0
 10
177.372267
 20
229.831219
 30
0.0
 10
177.435767
 20
230.000552
 30
0.0
 10
177.520433
 20
230.191052
 30
0.0
 10
177.626267
 20
230.381552
 30
0.0
 10
177.816767
 20
230.741385
 30
0.0
 10
178.028433
 20
231.080052
 30
0.0
 10
178.240100
 20
231.418719
 30
0.0
 10
178.494100
 20
231.736219
 30
0.0
 10
178.748100
 20
232.053719
 30
0.0
 10
179.023267
 20
232.371219
 30
0.0
 10
179.298433
 20
232.646385
 30
0.0
 10
179.594767
 20
232.942719
 30
0.0
 10
179.891100
 20
233.196719
 30
0.0
 10
180.208600
 20
233.471885
 30
0.0
 10
180.526100
 20
233.704719
 30
0.0
 10
180.864767
 20
233.958719
 30
0.0
 10
181.203433
 20
234.170385
 30
0.0
 10
181.542100
 20
234.403219
 30
0.0
 10
181.880767
 20
234.593719
 30
0.0
 10
182.240600
 20
234.805385
 30
0.0
 10
182.600433
 20
234.995885
 30
0.0
 10
182.960267
 20
235.165219
 30
0.0
 10
183.341267
 20
235.334552
 30
0.0
 10
183.701100
 20
235.503885
 30
0.0
 10
184.082100
 20
235.673219
 30
0.0
 10
184.463100
 20
235.821385
 30
0.0
 10
184.844100
 20
235.969552
 30
0.0
 10
185.225100
 20
236.096552
 30
0.0
 10
185.606100
 20
236.223552
 30
0.0
 10
185.987100
 20
236.350552
 30
0.0
 10
186.368100
 20
236.477552
 30
0.0
 10
187.151267
 20
236.710385
 30
0.0
 10
187.934433
 20
236.922052
 30
0.0
 10
188.717600
 20
237.112552
 30
0.0
 10
189.521933
 20
237.281885
 30
0.0
 10
190.305100
 20
237.451219
 30
0.0
 10
191.109433
 20
237.599385
 30
0.0
 10
191.913767
 20
237.747552
 30
0.0
 10
192.718100
 20
237.874552
 30
0.0
 10
193.522433
 20
237.980385
 30
0.0
 10
194.326767
 20
238.086219
 30
0.0
 10
195.131100
 20
238.192052
 30
0.0
 10
195.935433
 20
238.276719
 30
0.0
 10
196.739767
 20
238.361385
 30
0.0
 10
198.348433
 20
238.530719
 30
0.0
 10
199.978267
 20
238.700052
 30
0.0
 10
212.318433
 20
239.610219
 30
0.0
  0
LWPOLYLINE
  5
147
100
AcDbEntity
  8
FullCuts
 62
7
100
AcDbPolyline
 90
7
 70
0
 10
319.554945
 20
252.358431
 30
0.0
 10
318.475445
 20
190.551764
 30
0.0
 10
238.719425
 20
190.551764
 30
0.0
 10
237.639925
 20
254.390431
 30
0.0
 10
263.082258
 20
254.390431
 30
0.0
 10
294.112611
 20
252.358431
 30
0.0
 10
319.554945
 20
252.358431
 30
0.0
  0
SPLINE
  5
148
100
AcDbEntity
  8
FullCuts
 62
7
100
AcDbSpline
 70
0
 71
3
 72
10
 73
6
 74
4
 40
0.000000
 40
0.000000
 40
0.000000
 40
0.000000
 40
6.336640
 40
12.500111
 40
18.836751
 40
18.836751
 40
18.836751
 40
18.836751
 10
225.834787
 20
228.797355
 30
0.0
 10
225.210965
 20
230.850366
 30
0.0
 10
223.980369
 20
234.900283
 30
0.0
 10
218.692900
 20
239.137910
 30
0.0
 10
214.472186
 20
239.456929
 30
0.0
 10
212.332594
 20
239.618648
 30
0.0
 11
225.834787
 21
228.797355
 31
0.0
 11
223.377887
 21
234.638301
 31
0.0
 11
218.568422
 21
238.492832
 31
0.0
 11
212.332594
 21
239.618648
 31
0.0
  0
LWPOLYLINE
  5
149
100
AcDbEntity
  8
FullCuts
 62
7
100
AcDbPolyline
 90
2
 70
0
 10
358.956920
 20
315.596441
 30
0.0
 10
358.956920
 20
311.320774
 30
0.0
  0
LWPOLYLINE
  5
14a
100
AcDbEntity
  8
FullCuts
 62
7
100
AcDbPolyline
 90
2
 70
0
 10
356.649754
 20
309.161774
 30
0.0
 10
327.312754
 20
311.363108
 30
0.0
  0
LWPOLYLINE
  5
14b
100
AcDbEntity
  8
FullCuts
 62
7
100
AcDbPolyline
 90
4
 70
0
 10
282.714587
 20
306.981608
 30
0.0
 10
489.004920
 20
293.625441
 30
0.0
 10
572.062920
 20
293.625441
 30
0.0
 10
572.062920
 20
333.291774
 30
0.0
  0
SPLINE
  5
14c
100
AcDbEntity
  8
FullCuts
 62
7
100
AcDbSpline
 70
0
 71
3
 72
13
 73
9
 74
7
 40
0.000000
 40
0.000000
 40
0.000000
 40
0.000000
 40
0.594935
 40
1.184485
 40
1.779420
 40
2.374355
 40
2.963906
 40
3.558840
 40
3.558840
 40
3.558840
 40
3.558840
 10
356.646618
 20
309.167823
 30
0.0
 10
356.846195
 20
309.168822
 30
0.0
 10
357.243545
 20
309.170811
 30
0.0
 10
357.810857
 20
309.378440
 30
0.0
 10
358.303505
 20
309.720314
 30
0.0
 10
358.681185
 20
310.186079
 30
0.0
 10
358.930566
 20
310.736317
 30
0.0
 10
358.962199
 20
311.132411
 30
0.0
 10
358.978087
 20
311.331358
 30
0.0
 11
356.646618
 21
309.167823
 31
0.0
 11
357.240378
 21
309.205186
 31
0.0
 11
357.796828
 21
309.399950
 31
0.0
 11
358.284286
 21
309.741025
 31
0.0
 11
358.660783
 21
310.201674
 31
0.0
 11
358.896524
 21
310.742041
 31
0.0
 11
358.978087
 21
311.331358
 31
0.0
  0
SPLINE
  5
14d
100
AcDbEntity
  8
FullCuts
 62
7
100
AcDbSpline
 70
0
 71
3
 72
13
 73
9
 74
7
 40
0.000000
 40
0.000000
 40
0.000000
 40
0.000000
 40
0.594935
 40
1.184485
 40
1.779420
 40
2.374355
 40
2.963905
 40
3.558840
 40
3.558840
 40
3.558840
 40
3.558840
 10
358.978087
 20
315.607024
 30
0.0
 10
358.962199
 20
315.805971
 30
0.0
 10
358.930566
 20
316.202065
 30
0.0
 10
358.681185
 20
316.752303
 30
0.0
 10
358.303505
 20
317.218068
 30
0.0
 10
357.810857
 20
317.559942
 30
0.0
 10
357.243545
 20
317.767571
 30
0.0
 10
356.846195
 20
317.769560
 30
0.0
 10
356.646618
 20
317.770560
 30
0.0
 11
358.978087
 21
315.607024
 31
0.0
 11
358.896524
 21
316.196342
 31
0.0
 11
358.660783
 21
316.736708
 31
0.0
 11
358.284286
 21
317.197357
 31
0.0
 11
357.796828
 21
317.538433
 31
0.0
 11
357.240378
 21
317.733197
 31
0.0
 11
356.646618
 21
317.770560
 31
0.0
  0
LWPOLYLINE
  5
14e
100
AcDbEntity
  8
FullCuts
 62
7
100
AcDbPolyline
 90
2
 70
0
 10
356.649754
 20
317.734274
 30
0.0
 10
327.312754
 20
315.554108
 30
0.0
  0
LWPOLYLINE
  5
14f
100
AcDbEntity
  8
FullCuts
 62
7
100
AcDbPolyline
 90
3
 70
0
 10
282.714587
 20
319.935608
 30
0.0
 10
489.004920
 20
333.291774
 30
0.0
 10
572.062920
 20
333.291774
 30
0.0
  0
LWPOLYLINE
  5
150
100
AcDbEntity
  8
FullCuts
 62
7
100
AcDbPolyline
 90
2
 70
0
 10
282.714587
 20
319.935608
 30
0.0
 10
282.714587
 20
306.981608
 30
0.0
  0
LWPOLYLINE
  5
151
100
AcDbEntity
  8
FullCuts
 62
7
100
AcDbPolyline
 90
2
 70
0
 10
568.525660
 20
12.556210
 30
0.0
 10
269.948660
 20
73.325710
 30
0.0
  0
LWPOLYLINE
  5
152
100
AcDbEntity
  8
FullCuts
 62
7
100
AcDbPolyline
 90
3
 70
0
 10
502.189327
 20
210.083543
 30
0.0
 10
483.943660
 20
209.194543
 30
0.0
 10
485.531160
 20
175.116210
 30
0.0
  0
LWPOLYLINE
  5
153
100
AcDbEntity
  8
FullCuts
 62
7
100
AcDbPolyline
 90
2
 70
0
 10
579.278327
 20
163.770876
 30
0.0
 10
576.780660
 20
138.307376
 30
0.0
  0
LWPOLYLINE
  5
154
100
AcDbEntity
  8
FullCuts
 62
7
100
AcDbPolyline
 90
4
 70
0
 10
575.933993
 20
129.629043
 30
0.0
 10
575.828160
 20
128.528376
 30
0.0
 10
573.372827
 20
94.979210
 30
0.0
 10
568.525660
 20
12.556210
 30
0.0
  0
LWPOLYLINE
  5
155
100
AcDbEntity
  8
FullCuts
 62
7
100
AcDbPolyline
 90
2
 70
0
 10
571.044493
 20
278.959876
 30
0.0
 10
579.278327
 20
163.770876
 30
0.0
  0
LWPOLYLINE
  5
156
100
AcDbEntity
  8
FullCuts
 62
7
100
AcDbPolyline
 90
3
 70
0
 10
328.961327
 20
163.770876
 30
0.0
 10
324.029493
 20
235.991543
 30
0.0
 10
571.044493
 20
278.959876
 30
0.0
  0
SPLINE
  5
157
100
AcDbEntity
  8
FullCuts
 62
7
100
AcDbSpline
 70
0
 71
3
 72
13
 73
9
 74
7
 40
0.000000
 40
0.000000
 40
0.000000
 40
0.000000
 40
1.038538
 40
2.048735
 40
3.087272
 40
4.125810
 40
5.136007
 40
6.174545
 40
6.174545
 40
6.174545
 40
6.174545
 10
327.315935
 20
315.548296
 30
0.0
 10
326.970992
 20
315.470504
 30
0.0
 10
326.290519
 20
315.317044
 30
0.0
 10
325.564409
 20
314.503078
 30
0.0
 10
325.296446
 20
313.469191
 30
0.0
 10
325.564409
 20
312.435305
 30
0.0
 10
326.290519
 20
311.621338
 30
0.0
 10
326.970992
 20
311.467878
 30
0.0
 10
327.315935
 20
311.390087
 30
0.0
 11
327.315935
 21
315.548296
 31
0.0
 11
326.332145
 21
315.215555
 31
0.0
 11
325.644994
 21
314.475067
 31
0.0
 11
325.386587
 21
313.469191
 31
0.0
 11
325.644994
 21
312.463315
 31
0.0
 11
326.332145
 21
311.722828
 31
0.0
 11
327.315935
 21
311.390087
 31
0.0
  0
LWPOLYLINE
  5
158
100
AcDbEntity
  8
FullCuts
 62
7
100
AcDbPolyline
 90
128
 70
0
 10
328.961327
 20
163.770876
 30
0.0
 10
277.018327
 20
163.792043
 30
0.0
 10
276.235160
 20
163.749710
 30
0.0
 10
275.854160
 20
163.728543
 30
0.0
 10
275.473160
 20
163.707376
 30
0.0
 10
275.092160
 20
163.665043
 30
0.0
 10
274.711160
 20
163.622710
 30
0.0
 10
274.330160
 20
163.559210
 30
0.0
 10
273.949160
 20
163.474543
 30
0.0
 10
273.568160
 20
163.368710
 30
0.0
 10
273.208327
 20
163.262876
 30
0.0
 10
272.848493
 20
163.114710
 30
0.0
 10
272.488660
 20
162.966543
 30
0.0
 10
272.128827
 20
162.797210
 30
0.0
 10
271.790160
 20
162.606710
 30
0.0
 10
271.451493
 20
162.416210
 30
0.0
 10
271.133993
 20
162.204543
 30
0.0
 10
270.816493
 20
161.992876
 30
0.0
 10
270.498993
 20
161.760043
 30
0.0
 10
270.202660
 20
161.506043
 30
0.0
 10
269.906327
 20
161.252043
 30
0.0
 10
269.609993
 20
160.998043
 30
0.0
 10
269.334827
 20
160.722876
 30
0.0
 10
269.059660
 20
160.447710
 30
0.0
 10
268.805660
 20
160.151376
 30
0.0
 10
268.551660
 20
159.876210
 30
0.0
 10
268.297660
 20
159.558710
 30
0.0
 10
268.064827
 20
159.262376
 30
0.0
 10
267.831993
 20
158.944876
 30
0.0
 10
267.620327
 20
158.627376
 30
0.0
 10
267.387493
 20
158.309876
 30
0.0
 10
267.175827
 20
157.971210
 30
0.0
 10
266.985327
 20
157.653710
 30
0.0
 10
266.773660
 20
157.315043
 30
0.0
 10
266.583160
 20
156.976376
 30
0.0
 10
266.413827
 20
156.637710
 30
0.0
 10
266.223327
 20
156.299043
 30
0.0
 10
266.053993
 20
155.939210
 30
0.0
 10
265.884660
 20
155.600543
 30
0.0
 10
265.715327
 20
155.240710
 30
0.0
 10
265.567160
 20
154.902043
 30
0.0
 10
265.418993
 20
154.542210
 30
0.0
 10
265.270827
 20
154.182376
 30
0.0
 10
264.974493
 20
153.462710
 30
0.0
 10
264.720493
 20
152.743043
 30
0.0
 10
264.466493
 20
152.002210
 30
0.0
 10
264.233660
 20
151.261376
 30
0.0
 10
264.000827
 20
150.520543
 30
0.0
 10
263.789160
 20
149.779710
 30
0.0
 10
263.598660
 20
149.038876
 30
0.0
 10
263.408160
 20
148.298043
 30
0.0
 10
263.238827
 20
147.536043
 30
0.0
 10
263.069493
 20
146.774043
 30
0.0
 10
262.921327
 20
146.033210
 30
0.0
 10
262.773160
 20
145.271210
 30
0.0
 10
262.624993
 20
144.509210
 30
0.0
 10
262.497993
 20
143.747210
 30
0.0
 10
262.370993
 20
142.985210
 30
0.0
 10
262.265160
 20
142.223210
 30
0.0
 10
262.159327
 20
141.461210
 30
0.0
 10
262.053493
 20
140.699210
 30
0.0
 10
261.947660
 20
139.916043
 30
0.0
 10
261.862993
 20
139.154043
 30
0.0
 10
261.778327
 20
138.392043
 30
0.0
 10
261.714827
 20
137.630043
 30
0.0
 10
261.651327
 20
136.846876
 30
0.0
 10
261.566660
 20
136.084876
 30
0.0
 10
261.524327
 20
135.322876
 30
0.0
 10
261.418493
 20
133.777710
 30
0.0
 10
261.333827
 20
132.232543
 30
0.0
 10
261.270327
 20
130.687376
 30
0.0
 10
261.227993
 20
129.142210
 30
0.0
 10
261.185660
 20
127.597043
 30
0.0
 10
261.164493
 20
126.051876
 30
0.0
 10
261.164493
 20
124.506710
 30
0.0
 10
261.185660
 20
122.961543
 30
0.0
 10
261.206827
 20
121.416376
 30
0.0
 10
261.249160
 20
119.871210
 30
0.0
 10
261.291493
 20
118.326043
 30
0.0
 10
261.376160
 20
116.780876
 30
0.0
 10
261.439660
 20
115.256876
 30
0.0
 10
261.524327
 20
113.711710
 30
0.0
 10
261.630160
 20
112.166543
 30
0.0
 10
261.757160
 20
110.621376
 30
0.0
 10
261.862993
 20
109.097376
 30
0.0
 10
262.011160
 20
107.552210
 30
0.0
 10
262.159327
 20
106.007043
 30
0.0
 10
262.307493
 20
104.483043
 30
0.0
 10
262.476827
 20
102.937876
 30
0.0
 10
262.646160
 20
101.413876
 30
0.0
 10
262.836660
 20
99.868710
 30
0.0
 10
263.048327
 20
98.344710
 30
0.0
 10
263.259993
 20
96.820710
 30
0.0
 10
263.492827
 20
95.296710
 30
0.0
 10
263.725660
 20
93.772710
 30
0.0
 10
263.979660
 20
92.248710
 30
0.0
 10
264.254827
 20
90.724710
 30
0.0
 10
264.529993
 20
89.200710
 30
0.0
 10
264.826327
 20
87.676710
 30
0.0
 10
265.143827
 20
86.173876
 30
0.0
 10
265.313160
 20
85.411876
 30
0.0
 10
265.482493
 20
84.649876
 30
0.0
 10
265.651827
 20
83.909043
 30
0.0
 10
265.842327
 20
83.147043
 30
0.0
 10
266.032827
 20
82.406210
 30
0.0
 10
266.223327
 20
81.665376
 30
0.0
 10
266.434993
 20
80.903376
 30
0.0
 10
266.646660
 20
80.162543
 30
0.0
 10
266.858327
 20
79.442876
 30
0.0
 10
267.091160
 20
78.702043
 30
0.0
 10
267.345160
 20
77.961210
 30
0.0
 10
267.599160
 20
77.241543
 30
0.0
 10
267.726160
 20
76.881710
 30
0.0
 10
267.874327
 20
76.521876
 30
0.0
 10
268.022493
 20
76.183210
 30
0.0
 10
268.191827
 20
75.823376
 30
0.0
 10
268.361160
 20
75.463543
 30
0.0
 10
268.530493
 20
75.124876
 30
0.0
 10
268.699827
 20
74.765043
 30
0.0
 10
268.890327
 20
74.426376
 30
0.0
 10
268.996160
 20
74.257043
 30
0.0
 10
269.101993
 20
74.108876
 30
0.0
 10
269.228993
 20
73.939543
 30
0.0
 10
269.355993
 20
73.791376
 30
0.0
 10
269.482993
 20
73.664376
 30
0.0
 10
269.631160
 20
73.537376
 30
0.0
 10
269.779327
 20
73.431543
 30
0.0
 10
269.948660
 20
73.325710
 30
0.0
  0
LWPOLYLINE
  5
159
100
AcDbEntity
  8
FullCuts
 62
7
100
AcDbPolyline
 90
2
 70
0
 10
576.780660
 20
138.307376
 30
0.0
 10
567.446160
 20
138.561376
 30
0.0
  0
LWPOLYLINE
  5
15a
100
AcDbEntity
  8
FullCuts
 62
7
100
AcDbPolyline
 90
2
 70
0
 10
575.933993
 20
129.629043
 30
0.0
 10
567.213327
 20
129.883043
 30
0.0
  0
LWPOLYLINE
  5
15b
100
AcDbEntity
  8
FullCuts
 62
7
100
AcDbPolyline
 90
2
 70
0
 10
319.923160
 20
81.432543
 30
0.0
 10
318.822493
 20
65.705710
 30
0.0
  0
LWPOLYLINE
  5
15c
100
AcDbEntity
  8
FullCuts
 62
7
100
AcDbPolyline
 90
2
 70
0
 10
424.867493
 20
68.076376
 30
0.0
 10
423.089493
 20
42.147210
 30
0.0
  0
SPLINE
  5
15d
100
AcDbEntity
  8
FullCuts
 62
7
100
AcDbSpline
 70
0
 71
3
 72
13
 73
9
 74
7
 40
0.000000
 40
0.000000
 40
0.000000
 40
0.000000
 40
2.274307
 40
4.481158
 40
6.755464
 40
9.029771
 40
11.236622
 40
13.510929
 40
13.510929
 40
13.510929
 40
13.510929
 10
567.473083
 20
138.580818
 30
0.0
 10
566.703236
 20
138.482762
 30
0.0
 10
565.186375
 20
138.289558
 30
0.0
 10
563.475122
 20
136.606541
 30
0.0
 10
562.795471
 20
134.360785
 30
0.0
 10
563.347945
 20
132.080408
 30
0.0
 10
564.961992
 20
130.303956
 30
0.0
 10
566.465611
 20
130.025881
 30
0.0
 10
567.228737
 20
129.884750
 30
0.0
 11
567.473083
 21
138.580818
 31
0.0
 11
565.261867
 21
138.048847
 31
0.0
 11
563.658173
 21
136.532813
 31
0.0
 11
563.002876
 21
134.354957
 31
0.0
 11
563.534847
 21
132.143741
 31
0.0
 11
565.050881
 21
130.540048
 31
0.0
 11
567.228737
 21
129.884750
 31
0.0
  0
LWPOLYLINE
  5
15e
100
AcDbEntity
  8
FullCuts
 62
7
100
AcDbPolyline
 90
5
 70
0
 10
129.166919
 20
238.948594
 30
0.0
 10
151.751752
 20
238.948594
 30
0.0
 10
162.779589
 20
11.449241
 30
0.0
 10
129.166919
 20
11.174074
 30
0.0
 10
129.166919
 20
238.948594
 30
0.0
  0
LWPOLYLINE
  5
15f
100
AcDbEntity
  8
FullCuts
 62
7
100
AcDbPolyline
 90
2
 70
0
 10
382.554678
 20
277.216739
 30
0.0
 10
382.554678
 20
281.788739
 30
0.0
  0
SPLINE
  5
160
100
AcDbEntity
  8
FullCuts
 62
7
100
AcDbSpline
 70
0
 71
3
 72
19
 73
15
 74
13
 40
0.000000
 40
0.000000
 40
0.000000
 40
0.000000
 40
0.337549
 40
0.665087
 40
1.002636
 40
1.340185
 40
1.667723
 40
2.005272
 40
2.342821
 40
2.670358
 40
3.007908
 40
3.345457
 40
3.672994
 40
4.010543
 40
4.010543
 40
4.010543
 40
4.010543
 10
382.565261
 20
280.158906
 30
0.0
 10
382.451455
 20
280.141162
 30
0.0
 10
382.227219
 20
280.106201
 30
0.0
 10
381.980354
 20
279.849183
 30
0.0
 10
381.888883
 20
279.513915
 30
0.0
 10
381.980354
 20
279.175127
 30
0.0
 10
382.227219
 20
278.928460
 30
0.0
 10
382.565261
 20
278.836922
 30
0.0
 10
382.903303
 20
278.928460
 30
0.0
 10
383.150168
 20
279.175127
 30
0.0
 10
383.241639
 20
279.513915
 30
0.0
 10
383.150168
 20
279.849183
 30
0.0
 10
382.903303
 20
280.106201
 30
0.0
 10
382.679067
 20
280.141162
 30
0.0
 10
382.565261
 20
280.158906
 30
0.0
 11
382.565261
 21
280.158906
 31
0.0
 11
382.239423
 21
280.070765
 31
0.0
 11
382.007819
 21
279.839161
 31
0.0
 11
381.919678
 21
279.513322
 31
0.0
 11
382.007819
 21
279.187484
 31
0.0
 11
382.239423
 21
278.955880
 31
0.0
 11
382.565261
 21
278.867739
 31
0.0
 11
382.891099
 21
278.955880
 31
0.0
 11
383.122703
 21
279.187484
 31
0.0
 11
383.210844
 21
279.513322
 31
0.0
 11
383.122703
 21
279.839161
 31
0.0
 11
382.891099
 21
280.070765
 31
0.0
 11
382.565261
 21
280.158906
 31
0.0
  0
SPLINE
  5
161
100
AcDbEntity
  8
FullCuts
 62
7
100
AcDbSpline
 70
0
 71
3
 72
19
 73
15
 74
13
 40
0.000000
 40
0.000000
 40
0.000000
 40
0.000000
 40
1.665611
 40
3.281821
 40
4.947433
 40
6.613044
 40
8.229254
 40
9.894865
 40
11.560476
 40
13.176686
 40
14.842298
 40
16.507909
 40
18.124119
 40
19.789730
 40
19.789730
 40
19.789730
 40
19.789730
 10
529.727160
 20
189.181460
 30
0.0
 10
529.639605
 20
189.743025
 30
0.0
 10
529.467091
 20
190.849501
 30
0.0
 10
528.198857
 20
192.067640
 30
0.0
 10
526.544500
 20
192.518998
 30
0.0
 10
524.872775
 20
192.067640
 30
0.0
 10
523.655617
 20
190.849501
 30
0.0
 10
523.203926
 20
189.181460
 30
0.0
 10
523.655617
 20
187.513418
 30
0.0
 10
524.872775
 20
186.295279
 30
0.0
 10
526.544500
 20
185.843922
 30
0.0
 10
528.198857
 20
186.295279
 30
0.0
 10
529.467091
 20
187.513418
 30
0.0
 10
529.639605
 20
188.619894
 30
0.0
 10
529.727160
 20
189.181460
 30
0.0
 11
529.727160
 21
189.181460
 31
0.0
 11
529.292235
 21
190.789285
 31
0.0
 11
528.149402
 21
191.932117
 31
0.0
 11
526.541577
 21
192.367043
 31
0.0
 11
524.933752
 21
191.932117
 31
0.0
 11
523.790919
 21
190.789285
 31
0.0
 11
523.355993
 21
189.181460
 31
0.0
 11
523.790919
 21
187.573635
 31
0.0
 11
524.933752
 21
186.430802
 31
0.0
 11
526.541577
 21
185.995876
 31
0.0
 11
528.149402
 21
186.430802
 31
0.0
 11
529.292235
 21
187.573635
 31
0.0
 11
529.727160
 21
189.181460
 31
0.0
  0
LWPOLYLINE
  5
162
100
AcDbEntity
  8
FullCuts
 62
7
100
AcDbPolyline
 90
2
 70
0
 10
384.840678
 20
279.502739
 30
0.0
 10
380.268649
 20
279.502739
 30
0.0
  0
ENDSEC
  0
SECTION
  2
OBJECTS
  0
DICTIONARY
  5
C
330
0
100
AcDbDictionary
  3
ACAD_GROUP
350
D
  3
ACAD_MLINESTYLE
350
17
  0
DICTIONARY
  5
D
330
C
100
AcDbDictionary
  0
DICTIONARY
  5
1A
330
C
100
AcDbDictionary
  0
DICTIONARY
  5
17
330
C
100
AcDbDictionary
  3
STANDARD
350
18
  0
DICTIONARY
  5
19
330
C
100
AcDbDictionary
  0
ENDSEC
  0
EOF
