  0
SECTION
  2
HEADER
  9
$ACADVER
  1
AC1014
  9
$HANDSEED
  5
FFFF
  9
$MEASUREMENT
 70
     1
  0
ENDSEC
  0
SECTION
  2
TABLES
  0
TABLE
  2
VPORT
  5
8
330
0
100
AcDbSymbolTable
 70
     4
  0
VPORT
  5
2E
330
8
100
AcDbSymbolTableRecord
100
AcDbViewportTableRecord
  2
*ACTIVE
 70
     0
 10
0.0
 20
0.0
 11
1.0
 21
1.0
 12
210.0
 22
148.5
 13
0.0
 23
0.0
 14
10.0
 24
10.0
 15
10.0
 25
10.0
 16
0.0
 26
0.0
 36
1.0
 17
0.0
 27
0.0
 37
0.0
 40
341.0
 41
1.24
 42
50.0
 43
0.0
 44
0.0
 50
0.0
 51
0.0
 71
     0
 72
   100
 73
     1
 74
     3
 75
     0
 76
     0
 77
     0
 78
     0
  0
ENDTAB
  0
TABLE
  2
LTYPE
  5
5
330
0
100
AcDbSymbolTable
 70
     1
  0
LTYPE
  5
14
330
5
100
AcDbSymbolTableRecord
100
AcDbLinetypeTableRecord
  2
BYBLOCK
 70
     0
  3

 72
    65
 73
     0
 40
0.0
  0
LTYPE
  5
15
330
5
100
AcDbSymbolTableRecord
100
AcDbLinetypeTableRecord
  2
BYLAYER
 70
     0
  3

 72
    65
 73
     0
 40
0.0
  0
LTYPE
  5
16
330
5
100
AcDbSymbolTableRecord
100
AcDbLinetypeTableRecord
  2
CONTINUOUS
 70
     0
  3
Solid line
 72
    65
 73
     0
 40
0.0
  0
ENDTAB
  0
TABLE
  2
LAYER
  5
2
100
AcDbSymbolTable
 70
5
  0
LAYER
  5
50
100
AcDbSymbolTableRecord
100
AcDbLayerTableRecord
  2
0
 70
0
  6
CONTINUOUS
  0
LAYER
  5
51
100
AcDbSymbolTableRecord
100
AcDbLayerTableRecord
  2
NoCut
 70
0
  6
CONTINUOUS
  0
LAYER
  5
52
100
AcDbSymbolTableRecord
100
AcDbLayerTableRecord
  2
Score
 70
0
  6
CONTINUOUS
  0
LAYER
  5
53
100
AcDbSymbolTableRecord
100
AcDbLayerTableRecord
  2
HalfCuts
 70
0
  6
CONTINUOUS
  0
LAYER
  5
54
100
AcDbSymbolTableRecord
100
AcDbLayerTableRecord
  2
FullCuts
 70
0
  6
CONTINUOUS
  0
ENDTAB
  0
TABLE
  2
STYLE
  5
3
330
0
100
AcDbSymbolTable
 70
     1
  0
STYLE
  5
11
330
3
100
AcDbSymbolTableRecord
100
AcDbTextStyleTableRecord
  2
STANDARD
 70
     0
 40
0.0
 41
1.0
 50
0.0
 71
     0
 42
2.5
  3
txt
  4

  0
ENDTAB
  0
TABLE
  2
VIEW
  5
6
330
0
100
AcDbSymbolTable
 70
     0
  0
ENDTAB
  0
TABLE
  2
UCS
  5
7
330
0
100
AcDbSymbolTable
 70
     0
  0
ENDTAB
  0
TABLE
  2
APPID
  5
9
330
0
100
AcDbSymbolTable
 70
     2
  0
APPID
  5
12
330
9
100
AcDbSymbolTableRecord
100
AcDbRegAppTableRecord
  2
ACAD
 70
     0
  0
ENDTAB
  0
TABLE
  2
DIMSTYLE
  5
A
330
0
100
AcDbSymbolTable
 70
     1
  0
DIMSTYLE
105
27
330
A
100
AcDbSymbolTableRecord
100
AcDbDimStyleTableRecord
  2
ISO-25
 70
     0
  3

  4

  5

  6

  7

 40
1.0
 41
2.5
 42
0.625
 43
3.75
 44
1.25
 45
0.0
 46
0.0
 47
0.0
 48
0.0
140
2.5
141
2.5
142
0.0
143
0.03937007874016
144
1.0
145
0.0
146
1.0
147
0.625
 71
     0
 72
     0
 73
     0
 74
     0
 75
     0
 76
     0
 77
     1
 78
     8
170
     0
171
     3
172
     1
173
     0
174
     0
175
     0
176
     0
177
     0
178
     0
270
     2
271
     2
272
     2
273
     2
274
     3
340
11
275
     0
280
     0
281
     0
282
     0
283
     0
284
     8
285
     0
286
     0
287
     3
288
     0
  0
ENDTAB
  0
TABLE
  2
BLOCK_RECORD
  5
1
330
0
100
AcDbSymbolTable
 70
     1
  0
BLOCK_RECORD
  5
1F
330
1
100
AcDbSymbolTableRecord
100
AcDbBlockTableRecord
  2
*MODEL_SPACE
  0
BLOCK_RECORD
  5
1B
330
1
100
AcDbSymbolTableRecord
100
AcDbBlockTableRecord
  2
*PAPER_SPACE
  0
ENDTAB
  0
ENDSEC
  0
SECTION
  2
BLOCKS
  0
BLOCK
  5
20
330
1F
100
AcDbEntity
  8
0
100
AcDbBlockBegin
  2
*MODEL_SPACE
 70
     0
 10
0.0
 20
0.0
 30
0.0
  3
*MODEL_SPACE
  1

  0
ENDBLK
  5
21
330
1F
100
AcDbEntity
  8
0
100
AcDbBlockEnd
  0
BLOCK
  5
1C
330
1B
100
AcDbEntity
 67
     1
  8
0
100
AcDbBlockBegin
  2
*PAPER_SPACE
  1

  0
ENDBLK
  5
1D
330
1B
100
AcDbEntity
 67
     1
  8
0
100
AcDbBlockEnd
  0
ENDSEC
  0
SECTION
  2
ENTITIES
  0
SPLINE
  5
100
100
AcDbEntity
  8
Score
 62
3
100
AcDbSpline
 70
0
 71
3
 72
19
 73
15
 74
13
 40
0.000000
 40
0.000000
 40
0.000000
 40
0.000000
 40
0.337549
 40
0.665087
 40
1.002636
 40
1.340185
 40
1.667723
 40
2.005272
 40
2.342821
 40
2.670358
 40
3.007908
 40
3.345457
 40
3.672994
 40
4.010543
 40
4.010543
 40
4.010543
 40
4.010543
 10
549.910000
 20
71.190549
 30
0.0
 10
549.892256
 20
71.304355
 30
0.0
 10
549.857295
 20
71.528591
 30
0.0
 10
549.600278
 20
71.775456
 30
0.0
 10
549.265009
 20
71.866927
 30
0.0
 10
548.926221
 20
71.775456
 30
0.0
 10
548.679554
 20
71.528591
 30
0.0
 10
548.588016
 20
71.190549
 30
0.0
 10
548.679554
 20
70.852507
 30
0.0
 10
548.926221
 20
70.605642
 30
0.0
 10
549.265009
 20
70.514171
 30
0.0
 10
549.600278
 20
70.605642
 30
0.0
 10
549.857295
 20
70.852507
 30
0.0
 10
549.892256
 20
71.076743
 30
0.0
 10
549.910000
 20
71.190549
 30
0.0
 11
549.910000
 21
71.190549
 31
0.0
 11
549.821859
 21
71.516387
 31
0.0
 11
549.590255
 21
71.747991
 31
0.0
 11
549.264417
 21
71.836132
 31
0.0
 11
548.938578
 21
71.747991
 31
0.0
 11
548.706974
 21
71.516387
 31
0.0
 11
548.618833
 21
71.190549
 31
0.0
 11
548.706974
 21
70.864711
 31
0.0
 11
548.938578
 21
70.633107
 31
0.0
 11
549.264417
 21
70.544966
 31
0.0
 11
549.590255
 21
70.633107
 31
0.0
 11
549.821859
 21
70.864711
 31
0.0
 11
549.910000
 21
71.190549
 31
0.0
  0
SPLINE
  5
101
100
AcDbEntity
  8
Score
 62
3
100
AcDbSpline
 70
0
 71
3
 72
19
 73
15
 74
13
 40
0.000000
 40
0.000000
 40
0.000000
 40
0.000000
 40
0.337549
 40
0.665087
 40
1.002636
 40
1.340185
 40
1.667723
 40
2.005272
 40
2.342821
 40
2.670358
 40
3.007908
 40
3.345457
 40
3.672994
 40
4.010543
 40
4.010543
 40
4.010543
 40
4.010543
 10
512.000500
 20
71.190549
 30
0.0
 10
511.982756
 20
71.304355
 30
0.0
 10
511.947795
 20
71.528591
 30
0.0
 10
511.690778
 20
71.775456
 30
0.0
 10
511.355509
 20
71.866927
 30
0.0
 10
511.016721
 20
71.775456
 30
0.0
 10
510.770054
 20
71.528591
 30
0.0
 10
510.678516
 20
71.190549
 30
0.0
 10
510.770054
 20
70.852507
 30
0.0
 10
511.016721
 20
70.605642
 30
0.0
 10
511.355509
 20
70.514171
 30
0.0
 10
511.690778
 20
70.605642
 30
0.0
 10
511.947795
 20
70.852507
 30
0.0
 10
511.982756
 20
71.076743
 30
0.0
 10
512.000500
 20
71.190549
 30
0.0
 11
512.000500
 21
71.190549
 31
0.0
 11
511.912359
 21
71.516387
 31
0.0
 11
511.680755
 21
71.747991
 31
0.0
 11
511.354917
 21
71.836132
 31
0.0
 11
511.029078
 21
71.747991
 31
0.0
 11
510.797474
 21
71.516387
 31
0.0
 11
510.709333
 21
71.190549
 31
0.0
 11
510.797474
 21
70.864711
 31
0.0
 11
511.029078
 21
70.633107
 31
0.0
 11
511.354917
 21
70.544966
 31
0.0
 11
511.680755
 21
70.633107
 31
0.0
 11
511.912359
 21
70.864711
 31
0.0
 11
512.000500
 21
71.190549
 31
0.0
  0
SPLINE
  5
102
100
AcDbEntity
  8
Score
 62
3
100
AcDbSpline
 70
0
 71
3
 72
19
 73
15
 74
13
 40
0.000000
 40
0.000000
 40
0.000000
 40
0.000000
 40
0.337549
 40
0.665087
 40
1.002636
 40
1.340185
 40
1.667723
 40
2.005272
 40
2.342821
 40
2.670358
 40
3.007908
 40
3.345457
 40
3.672994
 40
4.010543
 40
4.010543
 40
4.010543
 40
4.010543
 10
420.433500
 20
77.138382
 30
0.0
 10
420.415756
 20
77.252188
 30
0.0
 10
420.380795
 20
77.476424
 30
0.0
 10
420.123778
 20
77.723289
 30
0.0
 10
419.788509
 20
77.814760
 30
0.0
 10
419.449721
 20
77.723289
 30
0.0
 10
419.203054
 20
77.476424
 30
0.0
 10
419.111516
 20
77.138382
 30
0.0
 10
419.203054
 20
76.800341
 30
0.0
 10
419.449721
 20
76.553475
 30
0.0
 10
419.788509
 20
76.462004
 30
0.0
 10
420.123778
 20
76.553475
 30
0.0
 10
420.380795
 20
76.800341
 30
0.0
 10
420.415756
 20
77.024577
 30
0.0
 10
420.433500
 20
77.138382
 30
0.0
 11
420.433500
 21
77.138382
 31
0.0
 11
420.345359
 21
77.464221
 31
0.0
 11
420.113755
 21
77.695825
 31
0.0
 11
419.787917
 21
77.783966
 31
0.0
 11
419.462078
 21
77.695825
 31
0.0
 11
419.230474
 21
77.464221
 31
0.0
 11
419.142333
 21
77.138382
 31
0.0
 11
419.230474
 21
76.812544
 31
0.0
 11
419.462078
 21
76.580940
 31
0.0
 11
419.787917
 21
76.492799
 31
0.0
 11
420.113755
 21
76.580940
 31
0.0
 11
420.345359
 21
76.812544
 31
0.0
 11
420.433500
 21
77.138382
 31
0.0
  0
SPLINE
  5
103
100
AcDbEntity
  8
Score
 62
3
100
AcDbSpline
 70
0
 71
3
 72
19
 73
15
 74
13
 40
0.000000
 40
0.000000
 40
0.000000
 40
0.000000
 40
0.337549
 40
0.665087
 40
1.002636
 40
1.340185
 40
1.667723
 40
2.005272
 40
2.342821
 40
2.670358
 40
3.007908
 40
3.345457
 40
3.672994
 40
4.010543
 40
4.010543
 40
4.010543
 40
4.010543
 10
549.910000
 20
134.224882
 30
0.0
 10
549.892256
 20
134.338688
 30
0.0
 10
549.857295
 20
134.562924
 30
0.0
 10
549.600278
 20
134.809789
 30
0.0
 10
549.265009
 20
134.901260
 30
0.0
 10
548.926221
 20
134.809789
 30
0.0
 10
548.679554
 20
134.562924
 30
0.0
 10
548.588016
 20
134.224882
 30
0.0
 10
548.679554
 20
133.886841
 30
0.0
 10
548.926221
 20
133.639975
 30
0.0
 10
549.265009
 20
133.548504
 30
0.0
 10
549.600278
 20
133.639975
 30
0.0
 10
549.857295
 20
133.886841
 30
0.0
 10
549.892256
 20
134.111077
 30
0.0
 10
549.910000
 20
134.224882
 30
0.0
 11
549.910000
 21
134.224882
 31
0.0
 11
549.821859
 21
134.550721
 31
0.0
 11
549.590255
 21
134.782325
 31
0.0
 11
549.264417
 21
134.870466
 31
0.0
 11
548.938578
 21
134.782325
 31
0.0
 11
548.706974
 21
134.550721
 31
0.0
 11
548.618833
 21
134.224882
 31
0.0
 11
548.706974
 21
133.899044
 31
0.0
 11
548.938578
 21
133.667440
 31
0.0
 11
549.264417
 21
133.579299
 31
0.0
 11
549.590255
 21
133.667440
 31
0.0
 11
549.821859
 21
133.899044
 31
0.0
 11
549.910000
 21
134.224882
 31
0.0
  0
SPLINE
  5
104
100
AcDbEntity
  8
Score
 62
3
100
AcDbSpline
 70
0
 71
3
 72
19
 73
15
 74
13
 40
0.000000
 40
0.000000
 40
0.000000
 40
0.000000
 40
0.337549
 40
0.665087
 40
1.002636
 40
1.340185
 40
1.667723
 40
2.005272
 40
2.342821
 40
2.670358
 40
3.007908
 40
3.345457
 40
3.672994
 40
4.010543
 40
4.010543
 40
4.010543
 40
4.010543
 10
512.000500
 20
134.224882
 30
0.0
 10
511.982756
 20
134.338688
 30
0.0
 10
511.947795
 20
134.562924
 30
0.0
 10
511.690778
 20
134.809789
 30
0.0
 10
511.355509
 20
134.901260
 30
0.0
 10
511.016721
 20
134.809789
 30
0.0
 10
510.770054
 20
134.562924
 30
0.0
 10
510.678516
 20
134.224882
 30
0.0
 10
510.770054
 20
133.886841
 30
0.0
 10
511.016721
 20
133.639975
 30
0.0
 10
511.355509
 20
133.548504
 30
0.0
 10
511.690778
 20
133.639975
 30
0.0
 10
511.947795
 20
133.886841
 30
0.0
 10
511.982756
 20
134.111077
 30
0.0
 10
512.000500
 20
134.224882
 30
0.0
 11
512.000500
 21
134.224882
 31
0.0
 11
511.912359
 21
134.550721
 31
0.0
 11
511.680755
 21
134.782325
 31
0.0
 11
511.354917
 21
134.870466
 31
0.0
 11
511.029078
 21
134.782325
 31
0.0
 11
510.797474
 21
134.550721
 31
0.0
 11
510.709333
 21
134.224882
 31
0.0
 11
510.797474
 21
133.899044
 31
0.0
 11
511.029078
 21
133.667440
 31
0.0
 11
511.354917
 21
133.579299
 31
0.0
 11
511.680755
 21
133.667440
 31
0.0
 11
511.912359
 21
133.899044
 31
0.0
 11
512.000500
 21
134.224882
 31
0.0
  0
LWPOLYLINE
  5
105
100
AcDbEntity
  8
Score
 62
3
100
AcDbPolyline
 90
2
 70
0
 10
319.948729
 20
192.945350
 30
0.0
 10
319.948729
 20
122.773546
 30
0.0
  0
LWPOLYLINE
  5
106
100
AcDbEntity
  8
Score
 62
3
100
AcDbPolyline
 90
2
 70
0
 10
319.948729
 20
82.535939
 30
0.0
 10
319.948729
 20
11.713373
 30
0.0
  0
LWPOLYLINE
  5
107
100
AcDbEntity
  8
Score
 62
3
100
AcDbPolyline
 90
2
 70
0
 10
557.360667
 20
109.047141
 30
0.0
 10
557.360667
 20
107.777141
 30
0.0
  0
LWPOLYLINE
  5
108
100
AcDbEntity
  8
Score
 62
3
100
AcDbPolyline
 90
2
 70
0
 10
557.360667
 20
97.617141
 30
0.0
 10
557.360667
 20
96.347141
 30
0.0
  0
LWPOLYLINE
  5
109
100
AcDbEntity
  8
Score
 62
3
100
AcDbPolyline
 90
2
 70
0
 10
549.423167
 20
107.777141
 30
0.0
 10
549.423167
 20
97.617141
 30
0.0
  0
LWPOLYLINE
  5
10a
100
AcDbEntity
  8
Score
 62
3
100
AcDbPolyline
 90
3
 70
0
 10
557.360667
 20
109.047141
 30
0.0
 10
548.153167
 20
109.047141
 30
0.0
 10
548.153167
 20
96.347141
 30
0.0
  0
LWPOLYLINE
  5
10b
100
AcDbEntity
  8
Score
 62
3
100
AcDbPolyline
 90
2
 70
0
 10
548.153167
 20
107.777141
 30
0.0
 10
557.360667
 20
107.777141
 30
0.0
  0
LWPOLYLINE
  5
10c
100
AcDbEntity
  8
Score
 62
3
100
AcDbPolyline
 90
2
 70
0
 10
557.360667
 20
97.617141
 30
0.0
 10
548.153167
 20
97.617141
 30
0.0
  0
LWPOLYLINE
  5
10d
100
AcDbEntity
  8
Score
 62
3
100
AcDbPolyline
 90
2
 70
0
 10
557.360667
 20
96.347141
 30
0.0
 10
548.153167
 20
96.347141
 30
0.0
  0
LWPOLYLINE
  5
10e
100
AcDbEntity
  8
Score
 62
3
100
AcDbPolyline
 90
42
 70
0
 10
553.296667
 20
102.379641
 30
0.0
 10
553.296667
 20
102.231474
 30
0.0
 10
553.296667
 20
102.083307
 30
0.0
 10
553.296667
 20
101.935141
 30
0.0
 10
553.275500
 20
101.808141
 30
0.0
 10
553.275500
 20
101.702307
 30
0.0
 10
553.254333
 20
101.575307
 30
0.0
 10
553.212000
 20
101.448307
 30
0.0
 10
553.169667
 20
101.321307
 30
0.0
 10
553.127333
 20
101.194307
 30
0.0
 10
553.106167
 20
101.173141
 30
0.0
 10
553.042667
 20
101.046141
 30
0.0
 10
552.936833
 20
100.940307
 30
0.0
 10
552.852167
 20
100.855641
 30
0.0
 10
552.746333
 20
100.792141
 30
0.0
 10
552.682833
 20
100.749807
 30
0.0
 10
552.577000
 20
100.728641
 30
0.0
 10
552.450000
 20
100.686307
 30
0.0
 10
552.301833
 20
100.665141
 30
0.0
 10
552.132500
 20
100.665141
 30
0.0
 10
552.111333
 20
100.665141
 30
0.0
 10
551.963167
 20
100.686307
 30
0.0
 10
551.815000
 20
100.707474
 30
0.0
 10
551.688000
 20
100.728641
 30
0.0
 10
551.582167
 20
100.770974
 30
0.0
 10
551.497500
 20
100.834474
 30
0.0
 10
551.391667
 20
100.919141
 30
0.0
 10
551.307000
 20
101.003807
 30
0.0
 10
551.201167
 20
101.130807
 30
0.0
 10
551.180000
 20
101.173141
 30
0.0
 10
551.116500
 20
101.300141
 30
0.0
 10
551.074167
 20
101.427141
 30
0.0
 10
551.031833
 20
101.554141
 30
0.0
 10
550.989500
 20
101.702307
 30
0.0
 10
550.989500
 20
101.765807
 30
0.0
 10
550.968333
 20
101.892807
 30
0.0
 10
550.968333
 20
102.019807
 30
0.0
 10
550.947167
 20
102.146807
 30
0.0
 10
550.947167
 20
102.294974
 30
0.0
 10
550.947167
 20
102.443141
 30
0.0
 10
550.926000
 20
102.612474
 30
0.0
 10
550.926000
 20
103.734307
 30
0.0
  0
LWPOLYLINE
  5
10f
100
AcDbEntity
  8
Score
 62
3
100
AcDbPolyline
 90
22
 70
0
 10
550.883667
 20
100.284141
 30
0.0
 10
550.989500
 20
100.199474
 30
0.0
 10
551.095333
 20
100.114807
 30
0.0
 10
551.201167
 20
100.030141
 30
0.0
 10
551.328167
 20
99.966641
 30
0.0
 10
551.370500
 20
99.945474
 30
0.0
 10
551.476333
 20
99.903141
 30
0.0
 10
551.603333
 20
99.860807
 30
0.0
 10
551.730333
 20
99.839641
 30
0.0
 10
551.878500
 20
99.818474
 30
0.0
 10
552.026667
 20
99.797307
 30
0.0
 10
552.174833
 20
99.797307
 30
0.0
 10
552.259500
 20
99.797307
 30
0.0
 10
552.407667
 20
99.797307
 30
0.0
 10
552.555833
 20
99.818474
 30
0.0
 10
552.682833
 20
99.860807
 30
0.0
 10
552.809833
 20
99.903141
 30
0.0
 10
552.936833
 20
99.945474
 30
0.0
 10
553.042667
 20
100.008974
 30
0.0
 10
553.169667
 20
100.072474
 30
0.0
 10
553.254333
 20
100.157141
 30
0.0
 10
553.317833
 20
100.220641
 30
0.0
  0
LWPOLYLINE
  5
110
100
AcDbEntity
  8
Score
 62
3
100
AcDbPolyline
 90
34
 70
0
 10
555.836667
 20
102.718307
 30
0.0
 10
555.836667
 20
102.548974
 30
0.0
 10
555.836667
 20
102.400807
 30
0.0
 10
555.836667
 20
102.273807
 30
0.0
 10
555.836667
 20
102.146807
 30
0.0
 10
555.815500
 20
102.019807
 30
0.0
 10
555.794333
 20
101.913974
 30
0.0
 10
555.773167
 20
101.765807
 30
0.0
 10
555.730833
 20
101.638807
 30
0.0
 10
555.667333
 20
101.532974
 30
0.0
 10
555.625000
 20
101.448307
 30
0.0
 10
555.519167
 20
101.363641
 30
0.0
 10
555.413333
 20
101.278974
 30
0.0
 10
555.307500
 20
101.236641
 30
0.0
 10
555.180500
 20
101.215474
 30
0.0
 10
555.032333
 20
101.215474
 30
0.0
 10
554.947667
 20
101.215474
 30
0.0
 10
554.799500
 20
101.215474
 30
0.0
 10
554.672500
 20
101.257807
 30
0.0
 10
554.545500
 20
101.300141
 30
0.0
 10
554.524333
 20
101.300141
 30
0.0
 10
554.397333
 20
101.363641
 30
0.0
 10
554.312667
 20
101.469474
 30
0.0
 10
554.228000
 20
101.575307
 30
0.0
 10
554.185667
 20
101.617641
 30
0.0
 10
554.122167
 20
101.744641
 30
0.0
 10
554.079833
 20
101.871641
 30
0.0
 10
554.058667
 20
102.019807
 30
0.0
 10
554.037500
 20
102.062141
 30
0.0
 10
554.037500
 20
102.189141
 30
0.0
 10
554.016333
 20
102.316141
 30
0.0
 10
554.016333
 20
102.485474
 30
0.0
 10
554.016333
 20
102.633641
 30
0.0
 10
554.016333
 20
103.734307
 30
0.0
  0
LWPOLYLINE
  5
111
100
AcDbEntity
  8
Score
 62
3
100
AcDbPolyline
 90
19
 70
0
 10
553.995167
 20
100.940307
 30
0.0
 10
554.079833
 20
100.834474
 30
0.0
 10
554.164500
 20
100.728641
 30
0.0
 10
554.270333
 20
100.643974
 30
0.0
 10
554.376167
 20
100.559307
 30
0.0
 10
554.482000
 20
100.495807
 30
0.0
 10
554.587833
 20
100.432307
 30
0.0
 10
554.714833
 20
100.389974
 30
0.0
 10
554.863000
 20
100.347641
 30
0.0
 10
554.990000
 20
100.347641
 30
0.0
 10
555.138167
 20
100.326474
 30
0.0
 10
555.180500
 20
100.326474
 30
0.0
 10
555.328667
 20
100.347641
 30
0.0
 10
555.455667
 20
100.368807
 30
0.0
 10
555.582667
 20
100.389974
 30
0.0
 10
555.709667
 20
100.432307
 30
0.0
 10
555.836667
 20
100.495807
 30
0.0
 10
555.836667
 20
100.495807
 30
0.0
 10
555.942500
 20
100.559307
 30
0.0
  0
LWPOLYLINE
  5
112
100
AcDbEntity
  8
Score
 62
3
100
AcDbPolyline
 90
21
 70
0
 10
556.556333
 20
102.697141
 30
0.0
 10
556.556333
 20
104.580974
 30
0.0
 10
550.206333
 20
104.580974
 30
0.0
 10
550.206333
 20
102.316141
 30
0.0
 10
550.227500
 20
102.167974
 30
0.0
 10
550.227500
 20
102.019807
 30
0.0
 10
550.227500
 20
101.871641
 30
0.0
 10
550.248667
 20
101.723474
 30
0.0
 10
550.269833
 20
101.596474
 30
0.0
 10
550.291000
 20
101.469474
 30
0.0
 10
550.312167
 20
101.342474
 30
0.0
 10
550.333333
 20
101.236641
 30
0.0
 10
550.354500
 20
101.173141
 30
0.0
 10
550.396833
 20
101.046141
 30
0.0
 10
550.439167
 20
100.919141
 30
0.0
 10
550.502667
 20
100.792141
 30
0.0
 10
550.566167
 20
100.686307
 30
0.0
 10
550.650833
 20
100.559307
 30
0.0
 10
550.735500
 20
100.453474
 30
0.0
 10
550.777833
 20
100.389974
 30
0.0
 10
550.883667
 20
100.284141
 30
0.0
  0
LWPOLYLINE
  5
113
100
AcDbEntity
  8
Score
 62
3
100
AcDbPolyline
 90
3
 70
0
 10
550.926000
 20
103.734307
 30
0.0
 10
553.296667
 20
103.734307
 30
0.0
 10
553.296667
 20
102.379641
 30
0.0
  0
LWPOLYLINE
  5
114
100
AcDbEntity
  8
Score
 62
3
100
AcDbPolyline
 90
12
 70
0
 10
553.317833
 20
100.220641
 30
0.0
 10
553.423667
 20
100.305307
 30
0.0
 10
553.508333
 20
100.411141
 30
0.0
 10
553.571833
 20
100.516974
 30
0.0
 10
553.635333
 20
100.643974
 30
0.0
 10
553.698833
 20
100.770974
 30
0.0
 10
553.741167
 20
100.897974
 30
0.0
 10
553.783500
 20
101.024974
 30
0.0
 10
553.825833
 20
101.173141
 30
0.0
 10
553.868167
 20
101.173141
 30
0.0
 10
553.910500
 20
101.067307
 30
0.0
 10
553.995167
 20
100.940307
 30
0.0
  0
LWPOLYLINE
  5
115
100
AcDbEntity
  8
Score
 62
3
100
AcDbPolyline
 90
3
 70
0
 10
554.016333
 20
103.734307
 30
0.0
 10
555.836667
 20
103.734307
 30
0.0
 10
555.836667
 20
102.718307
 30
0.0
  0
LWPOLYLINE
  5
116
100
AcDbEntity
  8
Score
 62
3
100
AcDbPolyline
 90
19
 70
0
 10
555.942500
 20
100.559307
 30
0.0
 10
556.048333
 20
100.643974
 30
0.0
 10
556.133000
 20
100.749807
 30
0.0
 10
556.217667
 20
100.876807
 30
0.0
 10
556.302333
 20
101.003807
 30
0.0
 10
556.302333
 20
101.003807
 30
0.0
 10
556.365833
 20
101.130807
 30
0.0
 10
556.408167
 20
101.257807
 30
0.0
 10
556.450500
 20
101.384807
 30
0.0
 10
556.492833
 20
101.511807
 30
0.0
 10
556.514000
 20
101.659974
 30
0.0
 10
556.514000
 20
101.702307
 30
0.0
 10
556.535167
 20
101.808141
 30
0.0
 10
556.535167
 20
101.935141
 30
0.0
 10
556.556333
 20
102.062141
 30
0.0
 10
556.556333
 20
102.189141
 30
0.0
 10
556.556333
 20
102.358474
 30
0.0
 10
556.556333
 20
102.527807
 30
0.0
 10
556.556333
 20
102.697141
 30
0.0
  0
LWPOLYLINE
  5
117
100
AcDbEntity
  8
Score
 62
3
100
AcDbPolyline
 90
2
 70
0
 10
546.967833
 20
134.214307
 30
0.0
 10
551.539833
 20
134.214307
 30
0.0
  0
LWPOLYLINE
  5
118
100
AcDbEntity
  8
Score
 62
3
100
AcDbPolyline
 90
2
 70
0
 10
549.253833
 20
131.928307
 30
0.0
 10
549.253833
 20
136.500307
 30
0.0
  0
LWPOLYLINE
  5
119
100
AcDbEntity
  8
Score
 62
3
100
AcDbPolyline
 90
2
 70
0
 10
509.058333
 20
134.214307
 30
0.0
 10
513.630333
 20
134.214307
 30
0.0
  0
LWPOLYLINE
  5
11a
100
AcDbEntity
  8
Score
 62
3
100
AcDbPolyline
 90
2
 70
0
 10
511.344333
 20
131.928307
 30
0.0
 10
511.344333
 20
136.500307
 30
0.0
  0
LWPOLYLINE
  5
11b
100
AcDbEntity
  8
Score
 62
3
100
AcDbPolyline
 90
2
 70
0
 10
417.491333
 20
128.245307
 30
0.0
 10
422.063333
 20
128.245307
 30
0.0
  0
LWPOLYLINE
  5
11c
100
AcDbEntity
  8
Score
 62
3
100
AcDbPolyline
 90
2
 70
0
 10
419.777333
 20
125.959307
 30
0.0
 10
419.777333
 20
130.531307
 30
0.0
  0
LWPOLYLINE
  5
11d
100
AcDbEntity
  8
Score
 62
3
100
AcDbPolyline
 90
2
 70
0
 10
417.491333
 20
77.127807
 30
0.0
 10
422.063333
 20
77.127807
 30
0.0
  0
LWPOLYLINE
  5
11e
100
AcDbEntity
  8
Score
 62
3
100
AcDbPolyline
 90
2
 70
0
 10
419.777333
 20
74.841807
 30
0.0
 10
419.777333
 20
79.413807
 30
0.0
  0
LWPOLYLINE
  5
11f
100
AcDbEntity
  8
Score
 62
3
100
AcDbPolyline
 90
2
 70
0
 10
509.058333
 20
71.179974
 30
0.0
 10
513.630333
 20
71.179974
 30
0.0
  0
LWPOLYLINE
  5
120
100
AcDbEntity
  8
Score
 62
3
100
AcDbPolyline
 90
2
 70
0
 10
511.344333
 20
68.893974
 30
0.0
 10
511.344333
 20
73.465974
 30
0.0
  0
LWPOLYLINE
  5
121
100
AcDbEntity
  8
Score
 62
3
100
AcDbPolyline
 90
2
 70
0
 10
546.967833
 20
71.179974
 30
0.0
 10
551.539833
 20
71.179974
 30
0.0
  0
LWPOLYLINE
  5
122
100
AcDbEntity
  8
Score
 62
3
100
AcDbPolyline
 90
2
 70
0
 10
549.253833
 20
68.893974
 30
0.0
 10
549.253833
 20
73.465974
 30
0.0
  0
LWPOLYLINE
  5
123
100
AcDbEntity
  8
Score
 62
3
100
AcDbPolyline
 90
2
 70
0
 10
541.251704
 20
386.677063
 30
0.0
 10
543.791704
 20
386.677063
 30
0.0
  0
LWPOLYLINE
  5
124
100
AcDbEntity
  8
Score
 62
3
100
AcDbPolyline
 90
2
 70
0
 10
518.391704
 20
370.802063
 30
0.0
 10
543.791704
 20
370.802063
 30
0.0
  0
LWPOLYLINE
  5
125
100
AcDbEntity
  8
Score
 62
3
100
AcDbPolyline
 90
3
 70
0
 10
518.391704
 20
370.802063
 30
0.0
 10
518.391704
 20
368.262063
 30
0.0
 10
543.791704
 20
368.262063
 30
0.0
  0
LWPOLYLINE
  5
126
100
AcDbEntity
  8
Score
 62
3
100
AcDbPolyline
 90
2
 70
0
 10
541.251704
 20
386.677063
 30
0.0
 10
541.251704
 20
370.802063
 30
0.0
  0
LWPOLYLINE
  5
127
100
AcDbEntity
  8
Score
 62
3
100
AcDbPolyline
 90
2
 70
0
 10
543.791704
 20
386.677063
 30
0.0
 10
543.791704
 20
368.262063
 30
0.0
  0
LWPOLYLINE
  5
128
100
AcDbEntity
  8
Score
 62
3
100
AcDbPolyline
 90
6
 70
0
 10
532.150038
 20
385.110729
 30
0.0
 10
529.885204
 20
385.110729
 30
0.0
 10
525.270871
 20
372.410729
 30
0.0
 10
526.985371
 20
372.410729
 30
0.0
 10
528.234204
 20
375.945563
 30
0.0
 10
533.716371
 20
375.945563
 30
0.0
  0
LWPOLYLINE
  5
129
100
AcDbEntity
  8
Score
 62
3
100
AcDbPolyline
 90
4
 70
0
 10
528.742204
 20
377.406063
 30
0.0
 10
530.964704
 20
383.629063
 30
0.0
 10
533.187204
 20
377.406063
 30
0.0
 10
528.742204
 20
377.406063
 30
0.0
  0
SPLINE
  5
12a
100
AcDbEntity
  8
Score
 62
3
100
AcDbSpline
 70
0
 71
3
 72
19
 73
15
 74
13
 40
0.000000
 40
0.000000
 40
0.000000
 40
0.000000
 40
0.337549
 40
0.665087
 40
1.002636
 40
1.340185
 40
1.667723
 40
2.005272
 40
2.342821
 40
2.670358
 40
3.007908
 40
3.345457
 40
3.672994
 40
4.010543
 40
4.010543
 40
4.010543
 40
4.010543
 10
420.433500
 20
128.255882
 30
0.0
 10
420.415756
 20
128.369688
 30
0.0
 10
420.380795
 20
128.593924
 30
0.0
 10
420.123778
 20
128.840789
 30
0.0
 10
419.788509
 20
128.932260
 30
0.0
 10
419.449721
 20
128.840789
 30
0.0
 10
419.203054
 20
128.593924
 30
0.0
 10
419.111516
 20
128.255882
 30
0.0
 10
419.203054
 20
127.917841
 30
0.0
 10
419.449721
 20
127.670975
 30
0.0
 10
419.788509
 20
127.579504
 30
0.0
 10
420.123778
 20
127.670975
 30
0.0
 10
420.380795
 20
127.917841
 30
0.0
 10
420.415756
 20
128.142077
 30
0.0
 10
420.433500
 20
128.255882
 30
0.0
 11
420.433500
 21
128.255882
 31
0.0
 11
420.345359
 21
128.581721
 31
0.0
 11
420.113755
 21
128.813325
 31
0.0
 11
419.787917
 21
128.901466
 31
0.0
 11
419.462078
 21
128.813325
 31
0.0
 11
419.230474
 21
128.581721
 31
0.0
 11
419.142333
 21
128.255882
 31
0.0
 11
419.230474
 21
127.930044
 31
0.0
 11
419.462078
 21
127.698440
 31
0.0
 11
419.787917
 21
127.610299
 31
0.0
 11
420.113755
 21
127.698440
 31
0.0
 11
420.345359
 21
127.930044
 31
0.0
 11
420.433500
 21
128.255882
 31
0.0
  0
SPLINE
  5
12b
100
AcDbEntity
  8
Score
 62
3
100
AcDbSpline
 70
0
 71
3
 72
19
 73
15
 74
13
 40
0.000000
 40
0.000000
 40
0.000000
 40
0.000000
 40
1.665612
 40
3.281822
 40
4.947432
 40
6.613042
 40
8.229252
 40
9.894864
 40
11.560475
 40
13.176686
 40
14.842295
 40
16.507905
 40
18.124116
 40
19.789727
 40
19.789727
 40
19.789727
 40
19.789727
 10
51.652054
 20
313.161560
 30
0.0
 10
51.739610
 20
312.599994
 30
0.0
 10
51.912124
 20
311.493518
 30
0.0
 10
53.180359
 20
310.275380
 30
0.0
 10
54.834714
 20
309.824022
 30
0.0
 10
56.506438
 20
310.275380
 30
0.0
 10
57.723596
 20
311.493518
 30
0.0
 10
58.175289
 20
313.161560
 30
0.0
 10
57.723596
 20
314.829602
 30
0.0
 10
56.506438
 20
316.047740
 30
0.0
 10
54.834714
 20
316.499099
 30
0.0
 10
53.180358
 20
316.047740
 30
0.0
 10
51.912124
 20
314.829602
 30
0.0
 10
51.739610
 20
313.723126
 30
0.0
 10
51.652054
 20
313.161560
 30
0.0
 11
51.652054
 21
313.161560
 31
0.0
 11
52.086981
 21
311.553735
 31
0.0
 11
53.229814
 21
310.410902
 31
0.0
 11
54.837638
 21
309.975977
 31
0.0
 11
56.445461
 21
310.410902
 31
0.0
 11
57.588295
 21
311.553735
 31
0.0
 11
58.023221
 21
313.161560
 31
0.0
 11
57.588295
 21
314.769385
 31
0.0
 11
56.445461
 21
315.912218
 31
0.0
 11
54.837638
 21
316.347144
 31
0.0
 11
53.229814
 21
315.912218
 31
0.0
 11
52.086981
 21
314.769385
 31
0.0
 11
51.652054
 21
313.161560
 31
0.0
  0
LWPOLYLINE
  5
12c
100
AcDbEntity
  8
Score
 62
3
100
AcDbPolyline
 90
4
 70
0
 10
533.716371
 20
375.945563
 30
0.0
 10
534.965204
 20
372.410729
 30
0.0
 10
536.764371
 20
372.410729
 30
0.0
 10
532.150038
 20
385.110729
 30
0.0
  0
LWPOLYLINE
  5
12d
100
AcDbEntity
  8
HalfCuts
 62
1
100
AcDbPolyline
 90
2
 70
0
 10
8.637013
 20
219.074717
 30
0.0
 10
319.081432
 20
244.071543
 30
0.0
  0
LWPOLYLINE
  5
12e
100
AcDbEntity
  8
HalfCuts
 62
1
100
AcDbPolyline
 90
2
 70
0
 10
6.007605
 20
252.529443
 30
0.0
 10
318.906144
 20
262.652633
 30
0.0
  0
LWPOLYLINE
  5
12f
100
AcDbEntity
  8
HalfCuts
 62
1
100
AcDbPolyline
 90
2
 70
0
 10
2.633215
 20
287.807221
 30
0.0
 10
251.724993
 20
287.807221
 30
0.0
  0
LWPOLYLINE
  5
130
100
AcDbEntity
  8
HalfCuts
 62
1
100
AcDbPolyline
 90
2
 70
0
 10
156.474993
 20
192.097078
 30
0.0
 10
317.679070
 20
219.859153
 30
0.0
  0
LWPOLYLINE
  5
131
100
AcDbEntity
  8
HalfCuts
 62
1
100
AcDbPolyline
 90
2
 70
0
 10
563.765333
 20
396.845013
 30
0.0
 10
563.765333
 20
356.824304
 30
0.0
  0
LWPOLYLINE
  5
132
100
AcDbEntity
  8
HalfCuts
 62
1
100
AcDbPolyline
 90
2
 70
0
 10
567.995167
 20
396.302727
 30
0.0
 10
567.995167
 20
357.475047
 30
0.0
  0
LWPOLYLINE
  5
133
100
AcDbEntity
  8
HalfCuts
 62
1
100
AcDbPolyline
 90
2
 70
0
 10
47.749420
 20
127.814430
 30
0.0
 10
47.749420
 20
14.151293
 30
0.0
  0
LWPOLYLINE
  5
134
100
AcDbEntity
  8
HalfCuts
 62
1
100
AcDbPolyline
 90
2
 70
0
 10
574.414255
 20
155.375606
 30
0.0
 10
574.414255
 20
122.551945
 30
0.0
  0
LWPOLYLINE
  5
135
100
AcDbEntity
  8
HalfCuts
 62
1
100
AcDbPolyline
 90
2
 70
0
 10
574.414255
 20
82.826091
 30
0.0
 10
574.414255
 20
50.155793
 30
0.0
  0
LWPOLYLINE
  5
136
100
AcDbEntity
  8
HalfCuts
 62
1
100
AcDbPolyline
 90
4
 70
0
 10
319.954120
 20
118.410645
 30
0.0
 10
559.536233
 20
118.410645
 30
0.0
 10
559.536233
 20
87.120780
 30
0.0
 10
320.260867
 20
87.120780
 30
0.0
  0
LWPOLYLINE
  5
137
100
AcDbEntity
  8
HalfCuts
 62
1
100
AcDbPolyline
 90
2
 70
0
 10
319.877412
 20
122.782013
 30
0.0
 10
559.536233
 20
122.782013
 30
0.0
  0
LWPOLYLINE
  5
138
100
AcDbEntity
  8
HalfCuts
 62
1
100
AcDbPolyline
 90
2
 70
0
 10
319.840271
 20
82.644397
 30
0.0
 10
559.536233
 20
82.644397
 30
0.0
  0
LWPOLYLINE
  5
139
100
AcDbEntity
  8
FullCuts
 62
7
100
AcDbPolyline
 90
3
 70
0
 10
252.396721
 20
287.750977
 30
0.0
 10
257.328554
 20
359.971644
 30
0.0
 10
10.313554
 20
402.939976
 30
0.0
  0
LWPOLYLINE
  5
13a
100
AcDbEntity
  8
FullCuts
 62
7
100
AcDbPolyline
 90
2
 70
0
 10
12.832388
 20
136.536310
 30
0.0
 10
311.409362
 20
197.305810
 30
0.0
  0
LWPOLYLINE
  5
13b
100
AcDbEntity
  8
FullCuts
 62
7
100
AcDbPolyline
 90
2
 70
0
 10
5.424054
 20
253.609144
 30
0.0
 10
14.144721
 20
253.863144
 30
0.0
  0
LWPOLYLINE
  5
13c
100
AcDbEntity
  8
FullCuts
 62
7
100
AcDbPolyline
 90
3
 70
0
 10
79.189888
 20
334.063644
 30
0.0
 10
97.414388
 20
333.174644
 30
0.0
 10
95.848054
 20
299.096310
 30
0.0
  0
LWPOLYLINE
  5
13d
100
AcDbEntity
  8
FullCuts
 62
7
100
AcDbPolyline
 90
2
 70
0
 10
2.079721
 20
287.750977
 30
0.0
 10
4.577388
 20
262.287477
 30
0.0
  0
LWPOLYLINE
  5
13e
100
AcDbEntity
  8
FullCuts
 62
7
100
AcDbPolyline
 90
4
 70
0
 10
5.424054
 20
253.609144
 30
0.0
 10
5.529888
 20
252.508477
 30
0.0
 10
7.985221
 20
218.959310
 30
0.0
 10
12.832388
 20
136.536310
 30
0.0
  0
LWPOLYLINE
  5
13f
100
AcDbEntity
  8
FullCuts
 62
7
100
AcDbPolyline
 90
2
 70
0
 10
10.313554
 20
402.939976
 30
0.0
 10
2.079721
 20
287.750977
 30
0.0
  0
LWPOLYLINE
  5
140
100
AcDbEntity
  8
FullCuts
 62
7
100
AcDbPolyline
 90
2
 70
0
 10
261.456054
 20
205.412644
 30
0.0
 10
262.535554
 20
189.685810
 30
0.0
  0
LWPOLYLINE
  5
141
100
AcDbEntity
  8
FullCuts
 62
7
100
AcDbPolyline
 90
2
 70
0
 10
156.490554
 20
192.056477
 30
0.0
 10
158.268554
 20
166.127310
 30
0.0
  0
SPLINE
  5
142
100
AcDbEntity
  8
Score
 62
3
100
AcDbSpline
 70
0
 71
3
 72
19
 73
15
 74
13
 40
0.000000
 40
0.000000
 40
0.000000
 40
0.000000
 40
0.204743
 40
0.403413
 40
0.608156
 40
0.812899
 40
1.011569
 40
1.216312
 40
1.421055
 40
1.619726
 40
1.824469
 40
2.029211
 40
2.227882
 40
2.432625
 40
2.432625
 40
2.432625
 40
2.432625
 10
506.460788
 20
347.732482
 30
0.0
 10
506.450026
 20
347.801511
 30
0.0
 10
506.428820
 20
347.937523
 30
0.0
 10
506.272924
 20
348.087261
 30
0.0
 10
506.069564
 20
348.142744
 30
0.0
 10
505.864070
 20
348.087261
 30
0.0
 10
505.714452
 20
347.937523
 30
0.0
 10
505.658929
 20
347.732482
 30
0.0
 10
505.714452
 20
347.527440
 30
0.0
 10
505.864070
 20
347.377702
 30
0.0
 10
506.069564
 20
347.322219
 30
0.0
 10
506.272924
 20
347.377702
 30
0.0
 10
506.428820
 20
347.527440
 30
0.0
 10
506.450026
 20
347.663452
 30
0.0
 10
506.460788
 20
347.732482
 30
0.0
 11
506.460788
 21
347.732482
 31
0.0
 11
506.407326
 21
347.930121
 31
0.0
 11
506.266845
 21
348.070602
 31
0.0
 11
506.069205
 21
348.124065
 31
0.0
 11
505.871565
 21
348.070602
 31
0.0
 11
505.731084
 21
347.930121
 31
0.0
 11
505.677622
 21
347.732482
 31
0.0
 11
505.731084
 21
347.534842
 31
0.0
 11
505.871565
 21
347.394361
 31
0.0
 11
506.069205
 21
347.340898
 31
0.0
 11
506.266845
 21
347.394361
 31
0.0
 11
506.407326
 21
347.534842
 31
0.0
 11
506.460788
 21
347.732482
 31
0.0
  0
LWPOLYLINE
  5
143
100
AcDbEntity
  8
FullCuts
 62
7
100
AcDbPolyline
 90
128
 70
0
 10
252.396721
 20
287.750977
 30
0.0
 10
304.339696
 20
287.772144
 30
0.0
 10
305.122862
 20
287.729810
 30
0.0
 10
305.503862
 20
287.708644
 30
0.0
 10
305.884862
 20
287.687477
 30
0.0
 10
306.287029
 20
287.645144
 30
0.0
 10
306.668029
 20
287.602810
 30
0.0
 10
307.049029
 20
287.539310
 30
0.0
 10
307.408862
 20
287.454644
 30
0.0
 10
307.789862
 20
287.348810
 30
0.0
 10
308.149696
 20
287.242977
 30
0.0
 10
308.509529
 20
287.094810
 30
0.0
 10
308.869362
 20
286.946644
 30
0.0
 10
309.229196
 20
286.777310
 30
0.0
 10
309.567862
 20
286.586810
 30
0.0
 10
309.906529
 20
286.396310
 30
0.0
 10
310.224029
 20
286.184644
 30
0.0
 10
310.541529
 20
285.972977
 30
0.0
 10
310.859029
 20
285.740144
 30
0.0
 10
311.155362
 20
285.486144
 30
0.0
 10
311.451696
 20
285.232144
 30
0.0
 10
311.748029
 20
284.978144
 30
0.0
 10
312.023196
 20
284.702977
 30
0.0
 10
312.298362
 20
284.427810
 30
0.0
 10
312.552362
 20
284.131477
 30
0.0
 10
312.806362
 20
283.856310
 30
0.0
 10
313.060362
 20
283.538810
 30
0.0
 10
313.293196
 20
283.242477
 30
0.0
 10
313.526029
 20
282.924977
 30
0.0
 10
313.758862
 20
282.607477
 30
0.0
 10
313.970529
 20
282.289977
 30
0.0
 10
314.182196
 20
281.951310
 30
0.0
 10
314.393862
 20
281.633810
 30
0.0
 10
314.584362
 20
281.295144
 30
0.0
 10
314.774862
 20
280.956477
 30
0.0
 10
314.965362
 20
280.617810
 30
0.0
 10
315.134696
 20
280.279144
 30
0.0
 10
315.304029
 20
279.919310
 30
0.0
 10
315.473362
 20
279.580644
 30
0.0
 10
315.642696
 20
279.220810
 30
0.0
 10
315.790862
 20
278.882144
 30
0.0
 10
315.960196
 20
278.522310
 30
0.0
 10
316.087196
 20
278.162477
 30
0.0
 10
316.383529
 20
277.442810
 30
0.0
 10
316.637529
 20
276.723144
 30
0.0
 10
316.891529
 20
275.982310
 30
0.0
 10
317.124362
 20
275.241477
 30
0.0
 10
317.357196
 20
274.500644
 30
0.0
 10
317.568862
 20
273.759810
 30
0.0
 10
317.759362
 20
273.018977
 30
0.0
 10
317.949862
 20
272.278144
 30
0.0
 10
318.119196
 20
271.516144
 30
0.0
 10
318.288529
 20
270.754144
 30
0.0
 10
318.457862
 20
270.013310
 30
0.0
 10
318.606029
 20
269.251310
 30
0.0
 10
318.733029
 20
268.489310
 30
0.0
 10
318.860029
 20
267.727310
 30
0.0
 10
318.987029
 20
266.965310
 30
0.0
 10
319.092862
 20
266.203310
 30
0.0
 10
319.219862
 20
265.441310
 30
0.0
 10
319.304529
 20
264.679310
 30
0.0
 10
319.410362
 20
263.896144
 30
0.0
 10
319.495029
 20
263.134144
 30
0.0
 10
319.579696
 20
262.372144
 30
0.0
 10
319.643196
 20
261.610144
 30
0.0
 10
319.727862
 20
260.826977
 30
0.0
 10
319.791362
 20
260.064977
 30
0.0
 10
319.854862
 20
259.302977
 30
0.0
 10
319.939529
 20
257.757810
 30
0.0
 10
320.024196
 20
256.212644
 30
0.0
 10
320.087696
 20
254.667477
 30
0.0
 10
320.151196
 20
253.122310
 30
0.0
 10
320.172362
 20
251.577144
 30
0.0
 10
320.193529
 20
250.031977
 30
0.0
 10
320.193529
 20
248.486810
 30
0.0
 10
320.172362
 20
246.941644
 30
0.0
 10
320.151196
 20
245.396477
 30
0.0
 10
320.108862
 20
243.851310
 30
0.0
 10
320.066529
 20
242.306144
 30
0.0
 10
320.003029
 20
240.760977
 30
0.0
 10
319.918362
 20
239.236977
 30
0.0
 10
319.833696
 20
237.691810
 30
0.0
 10
319.727862
 20
236.146644
 30
0.0
 10
319.622029
 20
234.601477
 30
0.0
 10
319.495029
 20
233.077477
 30
0.0
 10
319.346862
 20
231.532310
 30
0.0
 10
319.219862
 20
229.987144
 30
0.0
 10
319.050529
 20
228.463144
 30
0.0
 10
318.881196
 20
226.917977
 30
0.0
 10
318.711862
 20
225.393977
 30
0.0
 10
318.521362
 20
223.848810
 30
0.0
 10
318.309696
 20
222.324810
 30
0.0
 10
318.098029
 20
220.800810
 30
0.0
 10
317.865196
 20
219.276810
 30
0.0
 10
317.632362
 20
217.752810
 30
0.0
 10
317.378362
 20
216.228810
 30
0.0
 10
317.103196
 20
214.704810
 30
0.0
 10
316.828029
 20
213.180810
 30
0.0
 10
316.531696
 20
211.656810
 30
0.0
 10
316.214196
 20
210.153977
 30
0.0
 10
316.044862
 20
209.391977
 30
0.0
 10
315.875529
 20
208.629977
 30
0.0
 10
315.706196
 20
207.889144
 30
0.0
 10
315.515696
 20
207.127144
 30
0.0
 10
315.346362
 20
206.386310
 30
0.0
 10
315.134696
 20
205.645477
 30
0.0
 10
314.944196
 20
204.883477
 30
0.0
 10
314.732529
 20
204.142644
 30
0.0
 10
314.499696
 20
203.422977
 30
0.0
 10
314.266862
 20
202.682144
 30
0.0
 10
314.034029
 20
201.941310
 30
0.0
 10
313.758862
 20
201.221644
 30
0.0
 10
313.631862
 20
200.861810
 30
0.0
 10
313.483696
 20
200.501977
 30
0.0
 10
313.335529
 20
200.163310
 30
0.0
 10
313.166196
 20
199.803477
 30
0.0
 10
313.018029
 20
199.443644
 30
0.0
 10
312.848696
 20
199.104977
 30
0.0
 10
312.658196
 20
198.745144
 30
0.0
 10
312.467696
 20
198.406477
 30
0.0
 10
312.361862
 20
198.237144
 30
0.0
 10
312.256029
 20
198.088977
 30
0.0
 10
312.129029
 20
197.919644
 30
0.0
 10
312.002029
 20
197.771477
 30
0.0
 10
311.875029
 20
197.644477
 30
0.0
 10
311.726862
 20
197.517477
 30
0.0
 10
311.578696
 20
197.411644
 30
0.0
 10
311.409362
 20
197.305810
 30
0.0
  0
LWPOLYLINE
  5
144
100
AcDbEntity
  8
FullCuts
 62
7
100
AcDbPolyline
 90
2
 70
0
 10
4.577388
 20
262.287477
 30
0.0
 10
13.911888
 20
262.541477
 30
0.0
  0
SPLINE
  5
145
100
AcDbEntity
  8
FullCuts
 62
7
100
AcDbSpline
 70
0
 71
3
 72
13
 73
9
 74
7
 40
0.000000
 40
0.000000
 40
0.000000
 40
0.000000
 40
2.274307
 40
4.481158
 40
6.755464
 40
9.029771
 40
11.236622
 40
13.510929
 40
13.510929
 40
13.510929
 40
13.510929
 10
14.171644
 20
253.864860
 30
0.0
 10
14.934770
 20
254.005990
 30
0.0
 10
16.438389
 20
254.284065
 30
0.0
 10
18.052436
 20
256.060518
 30
0.0
 10
18.604909
 20
258.340894
 30
0.0
 10
17.925259
 20
260.586650
 30
0.0
 10
16.214006
 20
262.269667
 30
0.0
 10
14.697145
 20
262.462871
 30
0.0
 10
13.927298
 20
262.560928
 30
0.0
 11
14.171644
 21
253.864860
 31
0.0
 11
16.349500
 21
254.520157
 31
0.0
 11
17.865534
 21
256.123850
 31
0.0
 11
18.397505
 21
258.335067
 31
0.0
 11
17.742208
 21
260.512923
 31
0.0
 11
16.138514
 21
262.028957
 31
0.0
 11
13.927298
 21
262.560928
 31
0.0
  0
LWPOLYLINE
  5
146
100
AcDbEntity
  8
FullCuts
 62
7
100
AcDbPolyline
 90
4
 70
0
 10
410.503172
 20
246.221661
 30
0.0
 10
410.503172
 20
234.389492
 30
0.0
 10
379.388172
 20
225.795828
 30
0.0
 10
341.140006
 20
225.795828
 30
0.0
  0
SPLINE
  5
147
100
AcDbEntity
  8
FullCuts
 62
7
100
AcDbSpline
 70
0
 71
3
 72
10
 73
6
 74
4
 40
0.000000
 40
0.000000
 40
0.000000
 40
0.000000
 40
1.245058
 40
2.453189
 40
3.698247
 40
3.698247
 40
3.698247
 40
3.698247
 10
338.769339
 20
228.198242
 30
0.0
 10
338.834836
 20
227.780985
 30
0.0
 10
338.963886
 20
226.958848
 30
0.0
 10
339.911195
 20
226.011539
 30
0.0
 10
340.733333
 20
225.882488
 30
0.0
 10
341.150589
 20
225.816992
 30
0.0
 11
338.769339
 21
228.198242
 31
0.0
 11
339.094450
 21
226.996379
 31
0.0
 11
339.948727
 21
226.142102
 31
0.0
 11
341.150589
 21
225.816992
 31
0.0
  0
LWPOLYLINE
  5
148
100
AcDbEntity
  8
FullCuts
 62
7
100
AcDbPolyline
 90
4
 70
0
 10
338.769339
 20
228.187661
 30
0.0
 10
338.769339
 20
242.686828
 30
0.0
 10
370.011339
 20
248.592328
 30
0.0
 10
408.111339
 20
248.592328
 30
0.0
  0
LWPOLYLINE
  5
149
100
AcDbEntity
  8
FullCuts
 62
7
100
AcDbPolyline
 90
7
 70
0
 10
309.902042
 20
373.850901
 30
0.0
 10
309.902042
 20
304.212568
 30
0.0
 10
274.469050
 20
304.212568
 30
0.0
 10
274.469050
 20
358.991901
 30
0.0
 10
286.280042
 20
362.653734
 30
0.0
 10
286.280042
 20
373.850901
 30
0.0
 10
309.902042
 20
373.850901
 30
0.0
  0
LWPOLYLINE
  5
14a
100
AcDbEntity
  8
FullCuts
 62
7
100
AcDbPolyline
 90
6
 70
0
 10
465.305704
 20
374.717896
 30
0.0
 10
478.005704
 20
374.717896
 30
0.0
 10
478.005704
 20
379.035896
 30
0.0
 10
465.305704
 20
379.035896
 30
0.0
 10
465.305704
 20
374.717896
 30
0.0
 10
465.305704
 20
374.739063
 30
0.0
  0
LWPOLYLINE
  5
14b
100
AcDbEntity
  8
FullCuts
 62
7
100
AcDbPolyline
 90
3
 70
0
 10
458.722871
 20
384.750896
 30
0.0
 10
463.040871
 20
384.750896
 30
0.0
 10
463.040871
 20
369.002896
 30
0.0
  0
LWPOLYLINE
  5
14c
100
AcDbEntity
  8
FullCuts
 62
7
100
AcDbPolyline
 90
3
 70
0
 10
389.571371
 20
384.750896
 30
0.0
 10
393.889371
 20
384.750896
 30
0.0
 10
393.889371
 20
369.002896
 30
0.0
  0
LWPOLYLINE
  5
14d
100
AcDbEntity
  8
FullCuts
 62
7
100
AcDbPolyline
 90
3
 70
0
 10
563.751871
 20
396.985232
 30
0.0
 10
316.969704
 20
396.985232
 30
0.0
 10
316.969704
 20
356.789729
 30
0.0
  0
LWPOLYLINE
  5
14e
100
AcDbEntity
  8
FullCuts
 62
7
100
AcDbPolyline
 90
126
 70
0
 10
563.751871
 20
396.985232
 30
0.0
 10
564.640871
 20
396.942898
 30
0.0
 10
565.106538
 20
396.921732
 30
0.0
 10
565.551038
 20
396.879398
 30
0.0
 10
565.995538
 20
396.837065
 30
0.0
 10
566.440038
 20
396.773565
 30
0.0
 10
566.884538
 20
396.710065
 30
0.0
 10
567.329038
 20
396.604232
 30
0.0
 10
567.773538
 20
396.519565
 30
0.0
 10
568.218038
 20
396.392565
 30
0.0
 10
568.641371
 20
396.265565
 30
0.0
 10
569.085871
 20
396.138565
 30
0.0
 10
569.509204
 20
395.969232
 30
0.0
 10
569.911371
 20
395.799898
 30
0.0
 10
570.334704
 20
395.630565
 30
0.0
 10
570.736871
 20
395.440065
 30
0.0
 10
571.139038
 20
395.228398
 30
0.0
 10
571.541204
 20
395.016732
 30
0.0
 10
571.922204
 20
394.783899
 30
0.0
 10
572.303204
 20
394.529899
 30
0.0
 10
572.684204
 20
394.275899
 30
0.0
 10
573.044038
 20
394.000732
 30
0.0
 10
573.403871
 20
393.704399
 30
0.0
 10
573.742538
 20
393.429232
 30
0.0
 10
574.081204
 20
393.111732
 30
0.0
 10
574.398704
 20
392.794230
 30
0.0
 10
574.716204
 20
392.476730
 30
0.0
 10
575.012538
 20
392.138063
 30
0.0
 10
575.308871
 20
391.799396
 30
0.0
 10
575.584038
 20
391.439563
 30
0.0
 10
575.859204
 20
391.079729
 30
0.0
 10
576.113204
 20
390.698729
 30
0.0
 10
576.367204
 20
390.317729
 30
0.0
 10
576.600038
 20
389.936729
 30
0.0
 10
576.832871
 20
389.555729
 30
0.0
 10
577.044538
 20
389.153563
 30
0.0
 10
577.256204
 20
388.751396
 30
0.0
 10
577.446704
 20
388.349229
 30
0.0
 10
577.637204
 20
387.925896
 30
0.0
 10
577.806538
 20
387.523729
 30
0.0
 10
577.975871
 20
387.100396
 30
0.0
 10
578.124038
 20
386.677063
 30
0.0
 10
578.272204
 20
386.232563
 30
0.0
 10
578.420371
 20
385.809229
 30
0.0
 10
578.547371
 20
385.385896
 30
0.0
 10
578.674371
 20
384.941396
 30
0.0
 10
578.780204
 20
384.496896
 30
0.0
 10
578.886038
 20
384.073563
 30
0.0
 10
578.970704
 20
383.629063
 30
0.0
 10
579.076538
 20
383.184563
 30
0.0
 10
579.140038
 20
382.740063
 30
0.0
 10
579.224704
 20
382.295563
 30
0.0
 10
579.288204
 20
381.851063
 30
0.0
 10
579.351704
 20
381.385396
 30
0.0
 10
579.394038
 20
380.940896
 30
0.0
 10
579.436371
 20
380.496396
 30
0.0
 10
579.478704
 20
380.051896
 30
0.0
 10
579.499871
 20
379.586229
 30
0.0
 10
579.542204
 20
379.141729
 30
0.0
 10
579.563371
 20
378.697229
 30
0.0
 10
579.563371
 20
378.231563
 30
0.0
 10
579.584538
 20
377.787063
 30
0.0
 10
579.584538
 20
376.876896
 30
0.0
 10
579.584538
 20
375.987896
 30
0.0
 10
579.563371
 20
375.522229
 30
0.0
 10
579.563371
 20
375.077729
 30
0.0
 10
579.542204
 20
374.633229
 30
0.0
 10
579.499871
 20
374.167563
 30
0.0
 10
579.478704
 20
373.723063
 30
0.0
 10
579.436371
 20
373.278563
 30
0.0
 10
579.394038
 20
372.834063
 30
0.0
 10
579.351704
 20
372.368396
 30
0.0
 10
579.288204
 20
371.923896
 30
0.0
 10
579.224704
 20
371.479396
 30
0.0
 10
579.140038
 20
371.034896
 30
0.0
 10
579.076538
 20
370.590396
 30
0.0
 10
578.970704
 20
370.145896
 30
0.0
 10
578.886038
 20
369.701396
 30
0.0
 10
578.780204
 20
369.278063
 30
0.0
 10
578.674371
 20
368.833563
 30
0.0
 10
578.547371
 20
368.389063
 30
0.0
 10
578.420371
 20
367.965729
 30
0.0
 10
578.272204
 20
367.521229
 30
0.0
 10
578.124038
 20
367.097896
 30
0.0
 10
577.975871
 20
366.674563
 30
0.0
 10
577.806538
 20
366.251229
 30
0.0
 10
577.637204
 20
365.849063
 30
0.0
 10
577.446704
 20
365.425729
 30
0.0
 10
577.256204
 20
365.023563
 30
0.0
 10
577.044538
 20
364.621396
 30
0.0
 10
576.832871
 20
364.219229
 30
0.0
 10
576.600038
 20
363.838229
 30
0.0
 10
576.367204
 20
363.436063
 30
0.0
 10
576.113204
 20
363.076229
 30
0.0
 10
575.859204
 20
362.695229
 30
0.0
 10
575.584038
 20
362.335396
 30
0.0
 10
575.308871
 20
361.975563
 30
0.0
 10
575.012538
 20
361.636896
 30
0.0
 10
574.716204
 20
361.298229
 30
0.0
 10
574.398704
 20
360.980729
 30
0.0
 10
574.081204
 20
360.663229
 30
0.0
 10
573.742538
 20
360.345729
 30
0.0
 10
573.403871
 20
360.049396
 30
0.0
 10
573.044038
 20
359.774229
 30
0.0
 10
572.684204
 20
359.499063
 30
0.0
 10
572.303204
 20
359.245063
 30
0.0
 10
571.922204
 20
358.991063
 30
0.0
 10
571.541204
 20
358.758229
 30
0.0
 10
571.139038
 20
358.546563
 30
0.0
 10
570.736871
 20
358.334896
 30
0.0
 10
570.334704
 20
358.144396
 30
0.0
 10
569.911371
 20
357.953896
 30
0.0
 10
569.509204
 20
357.805729
 30
0.0
 10
569.085871
 20
357.636396
 30
0.0
 10
568.641371
 20
357.509396
 30
0.0
 10
568.218038
 20
357.382396
 30
0.0
 10
567.773538
 20
357.255396
 30
0.0
 10
567.329038
 20
357.149563
 30
0.0
 10
566.884538
 20
357.064896
 30
0.0
 10
566.440038
 20
357.001396
 30
0.0
 10
565.995538
 20
356.937896
 30
0.0
 10
565.551038
 20
356.895563
 30
0.0
 10
565.106538
 20
356.853229
 30
0.0
 10
564.640871
 20
356.832063
 30
0.0
 10
563.751871
 20
356.789729
 30
0.0
 10
316.969704
 20
356.789729
 30
0.0
  0
LWPOLYLINE
  5
14f
100
AcDbEntity
  8
FullCuts
 62
7
100
AcDbPolyline
 90
2
 70
0
 10
458.722871
 20
369.002896
 30
0.0
 10
463.040871
 20
369.002896
 30
0.0
  0
LWPOLYLINE
  5
150
100
AcDbEntity
  8
FullCuts
 62
7
100
AcDbPolyline
 90
3
 70
0
 10
389.571371
 20
384.750896
 30
0.0
 10
389.571371
 20
369.002896
 30
0.0
 10
393.889371
 20
369.002896
 30
0.0
  0
LWPOLYLINE
  5
151
100
AcDbEntity
  8
FullCuts
 62
7
100
AcDbPolyline
 90
2
 70
0
 10
458.722871
 20
384.750896
 30
0.0
 10
458.722871
 20
369.002896
 30
0.0
  0
LWPOLYLINE
  5
152
100
AcDbEntity
  8
FullCuts
 62
7
100
AcDbPolyline
 90
3
 70
0
 10
401.643455
 20
271.310232
 30
0.0
 10
401.643455
 20
302.806232
 30
0.0
 10
401.135455
 20
271.331398
 30
0.0
  0
LWPOLYLINE
  5
153
100
AcDbEntity
  8
FullCuts
 62
7
100
AcDbPolyline
 90
3
 70
0
 10
401.643455
 20
345.393565
 30
0.0
 10
401.643455
 20
313.897565
 30
0.0
 10
401.135455
 20
345.372398
 30
0.0
  0
LWPOLYLINE
  5
154
100
AcDbEntity
  8
FullCuts
 62
7
100
AcDbPolyline
 90
3
 70
0
 10
578.871955
 20
265.828065
 30
0.0
 10
578.871955
 20
350.875732
 30
0.0
 10
401.643455
 20
345.393565
 30
0.0
  0
LWPOLYLINE
  5
155
100
AcDbEntity
  8
FullCuts
 62
7
100
AcDbPolyline
 90
4
 70
0
 10
401.135455
 20
345.372398
 30
0.0
 10
322.945788
 20
342.959398
 30
0.0
 10
322.945788
 20
273.744398
 30
0.0
 10
401.135455
 20
271.331398
 30
0.0
  0
LWPOLYLINE
  5
156
100
AcDbEntity
  8
FullCuts
 62
7
100
AcDbPolyline
 90
2
 70
0
 10
401.643455
 20
271.310232
 30
0.0
 10
578.871955
 20
265.828065
 30
0.0
  0
LWPOLYLINE
  5
157
100
AcDbEntity
  8
FullCuts
 62
7
100
AcDbPolyline
 90
13
 70
0
 10
579.392429
 20
175.326112
 30
0.0
 10
579.392429
 20
261.961279
 30
0.0
 10
435.437929
 20
241.725946
 30
0.0
 10
437.723929
 20
229.555112
 30
0.0
 10
399.856762
 20
222.506612
 30
0.0
 10
399.856762
 20
220.728612
 30
0.0
 10
448.857596
 20
220.728612
 30
0.0
 10
448.857596
 20
216.410612
 30
0.0
 10
399.856762
 20
216.410612
 30
0.0
 10
399.856762
 20
214.653779
 30
0.0
 10
437.723929
 20
207.605279
 30
0.0
 10
435.437929
 20
195.434446
 30
0.0
 10
579.392429
 20
175.326112
 30
0.0
  0
LWPOLYLINE
  5
158
100
AcDbEntity
  8
FullCuts
 62
7
100
AcDbPolyline
 90
2
 70
0
 10
148.697944
 20
39.970308
 30
0.0
 10
100.776611
 20
39.970308
 30
0.0
  0
LWPOLYLINE
  5
159
100
AcDbEntity
  8
FullCuts
 62
7
100
AcDbPolyline
 90
2
 70
0
 10
73.958444
 20
124.742808
 30
0.0
 10
99.485444
 20
58.808642
 30
0.0
  0
LWPOLYLINE
  5
15a
100
AcDbEntity
  8
FullCuts
 62
7
100
AcDbPolyline
 90
2
 70
0
 10
103.401278
 20
55.083308
 30
0.0
 10
148.697944
 20
39.970308
 30
0.0
  0
SPLINE
  5
15b
100
AcDbEntity
  8
FullCuts
 62
7
100
AcDbSpline
 70
0
 71
3
 72
10
 73
6
 74
4
 40
0.000000
 40
0.000000
 40
0.000000
 40
0.000000
 40
1.245058
 40
2.453189
 40
3.698247
 40
3.698247
 40
3.698247
 40
3.698247
 10
410.503172
 20
246.232244
 30
0.0
 10
410.437676
 20
246.649501
 30
0.0
 10
410.308625
 20
247.471638
 30
0.0
 10
409.361316
 20
248.418947
 30
0.0
 10
408.539179
 20
248.547998
 30
0.0
 10
408.121922
 20
248.613494
 30
0.0
 11
410.503172
 21
246.232244
 31
0.0
 11
410.178062
 21
247.434107
 31
0.0
 11
409.323785
 21
248.288384
 31
0.0
 11
408.121922
 21
248.613494
 31
0.0
  0
LWPOLYLINE
  5
15c
100
AcDbEntity
  8
FullCuts
 62
7
100
AcDbPolyline
 90
2
 70
0
 10
32.852778
 20
127.176975
 30
0.0
 10
67.735444
 20
128.785642
 30
0.0
  0
SPLINE
  5
15d
100
AcDbEntity
  8
FullCuts
 62
7
100
AcDbSpline
 70
0
 71
3
 72
10
 73
6
 74
4
 40
0.000000
 40
0.000000
 40
0.000000
 40
0.000000
 40
2.643636
 40
5.235000
 40
7.878636
 40
7.878636
 40
7.878636
 40
7.878636
 10
73.973882
 20
124.763929
 30
0.0
 10
73.552168
 20
125.548196
 30
0.0
 10
72.717078
 20
127.101223
 30
0.0
 10
70.394290
 20
128.615058
 30
0.0
 10
68.636305
 20
128.752020
 30
0.0
 10
67.748536
 20
128.821185
 30
0.0
 11
73.973882
 21
124.763929
 31
0.0
 11
72.528111
 21
126.977197
 31
0.0
 11
70.357118
 21
128.392102
 31
0.0
 11
67.748536
 21
128.821185
 31
0.0
  0
LWPOLYLINE
  5
15e
100
AcDbEntity
  8
FullCuts
 62
7
100
AcDbPolyline
 90
2
 70
0
 10
12.723277
 20
33.810808
 30
0.0
 10
26.883777
 20
121.842975
 30
0.0
  0
LWPOLYLINE
  5
15f
100
AcDbEntity
  8
FullCuts
 62
7
100
AcDbPolyline
 90
2
 70
0
 10
47.627111
 20
11.077808
 30
0.0
 10
33.212611
 20
14.824308
 30
0.0
  0
LWPOLYLINE
  5
160
100
AcDbEntity
  8
FullCuts
 62
7
100
AcDbPolyline
 90
2
 70
0
 10
47.627111
 20
14.231642
 30
0.0
 10
55.374111
 20
14.231642
 30
0.0
  0
LWPOLYLINE
  5
161
100
AcDbEntity
  8
FullCuts
 62
7
100
AcDbPolyline
 90
3
 70
0
 10
63.078778
 20
39.970308
 30
0.0
 10
55.374111
 20
39.970308
 30
0.0
 10
55.374111
 20
14.231642
 30
0.0
  0
LWPOLYLINE
  5
162
100
AcDbEntity
  8
FullCuts
 62
7
100
AcDbPolyline
 90
27
 70
0
 10
72.222778
 20
34.996142
 30
0.0
 10
72.222778
 20
39.970308
 30
0.0
 10
66.211444
 20
45.473642
 30
0.0
 10
65.851611
 20
45.240808
 30
0.0
 10
65.512944
 20
45.007975
 30
0.0
 10
65.174278
 20
44.753975
 30
0.0
 10
65.026111
 20
44.626975
 30
0.0
 10
64.856778
 20
44.499975
 30
0.0
 10
64.708611
 20
44.351808
 30
0.0
 10
64.560444
 20
44.203642
 30
0.0
 10
64.412278
 20
44.055475
 30
0.0
 10
64.285278
 20
43.886142
 30
0.0
 10
64.158278
 20
43.716808
 30
0.0
 10
64.031278
 20
43.547475
 30
0.0
 10
63.925444
 20
43.378142
 30
0.0
 10
63.819611
 20
43.187642
 30
0.0
 10
63.734944
 20
43.018308
 30
0.0
 10
63.650278
 20
42.806642
 30
0.0
 10
63.565611
 20
42.616142
 30
0.0
 10
63.502111
 20
42.425642
 30
0.0
 10
63.438611
 20
42.235142
 30
0.0
 10
63.396278
 20
42.023475
 30
0.0
 10
63.353944
 20
41.811808
 30
0.0
 10
63.311611
 20
41.621308
 30
0.0
 10
63.226944
 20
41.197975
 30
0.0
 10
63.163444
 20
40.795808
 30
0.0
 10
63.078778
 20
39.970308
 30
0.0
  0
LWPOLYLINE
  5
163
100
AcDbEntity
  8
FullCuts
 62
7
100
AcDbPolyline
 90
2
 70
0
 10
42.864611
 20
26.106142
 30
0.0
 10
32.196611
 20
26.106142
 30
0.0
  0
LWPOLYLINE
  5
164
100
AcDbEntity
  8
FullCuts
 62
7
100
AcDbPolyline
 90
3
 70
0
 10
100.776611
 20
39.970308
 30
0.0
 10
100.776611
 20
34.996142
 30
0.0
 10
72.222778
 20
34.996142
 30
0.0
  0
SPLINE
  5
165
100
AcDbEntity
  8
FullCuts
 62
7
100
AcDbSpline
 70
0
 71
3
 72
10
 73
6
 74
4
 40
0.000000
 40
0.000000
 40
0.000000
 40
0.000000
 40
2.891797
 40
5.716386
 40
8.608183
 40
8.608183
 40
8.608183
 40
8.608183
 10
32.865869
 20
127.191351
 30
0.0
 10
31.905635
 20
127.014911
 30
0.0
 10
30.007483
 20
126.666132
 30
0.0
 10
27.724959
 20
124.628648
 30
0.0
 10
27.163773
 20
122.782112
 30
0.0
 10
26.879881
 20
121.847989
 30
0.0
 11
32.865869
 21
127.191351
 31
0.0
 11
30.083030
 21
126.405033
 31
0.0
 11
27.975841
 21
124.524061
 31
0.0
 11
26.879881
 21
121.847989
 31
0.0
  0
LWPOLYLINE
  5
166
100
AcDbEntity
  8
FullCuts
 62
7
100
AcDbPolyline
 90
63
 70
0
 10
12.723277
 20
33.810808
 30
0.0
 10
12.596277
 20
32.858308
 30
0.0
 10
12.532777
 20
32.371475
 30
0.0
 10
12.490444
 20
31.884642
 30
0.0
 10
12.469277
 20
31.418975
 30
0.0
 10
12.448110
 20
31.164975
 30
0.0
 10
12.448110
 20
30.932142
 30
0.0
 10
12.469277
 20
30.678142
 30
0.0
 10
12.469277
 20
30.445308
 30
0.0
 10
12.490444
 20
30.212475
 30
0.0
 10
12.511610
 20
29.958475
 30
0.0
 10
12.532777
 20
29.725642
 30
0.0
 10
12.575110
 20
29.492808
 30
0.0
 10
12.617444
 20
29.238808
 30
0.0
 10
12.680944
 20
29.005975
 30
0.0
 10
12.723277
 20
28.773142
 30
0.0
 10
12.786777
 20
28.540308
 30
0.0
 10
12.871444
 20
28.328642
 30
0.0
 10
12.956110
 20
28.095808
 30
0.0
 10
13.040777
 20
27.862975
 30
0.0
 10
13.125444
 20
27.630142
 30
0.0
 10
13.231277
 20
27.418475
 30
0.0
 10
13.315944
 20
27.206808
 30
0.0
 10
13.548777
 20
26.762308
 30
0.0
 10
13.781610
 20
26.338975
 30
0.0
 10
14.014444
 20
25.915642
 30
0.0
 10
14.289610
 20
25.513475
 30
0.0
 10
14.564777
 20
25.111308
 30
0.0
 10
14.861110
 20
24.730308
 30
0.0
 10
15.157444
 20
24.349308
 30
0.0
 10
15.453777
 20
23.989475
 30
0.0
 10
15.792444
 20
23.629642
 30
0.0
 10
16.109944
 20
23.269808
 30
0.0
 10
16.448610
 20
22.931142
 30
0.0
 10
16.808444
 20
22.592475
 30
0.0
 10
17.168277
 20
22.274975
 30
0.0
 10
17.528110
 20
21.978642
 30
0.0
 10
17.909110
 20
21.661142
 30
0.0
 10
18.290110
 20
21.364808
 30
0.0
 10
18.692277
 20
21.089642
 30
0.0
 10
19.073277
 20
20.814475
 30
0.0
 10
19.475444
 20
20.539308
 30
0.0
 10
19.877610
 20
20.264142
 30
0.0
 10
20.300944
 20
20.010142
 30
0.0
 10
20.703110
 20
19.756142
 30
0.0
 10
21.126444
 20
19.523308
 30
0.0
 10
21.528610
 20
19.290475
 30
0.0
 10
21.951944
 20
19.057642
 30
0.0
 10
22.396444
 20
18.824808
 30
0.0
 10
22.819777
 20
18.613142
 30
0.0
 10
23.243110
 20
18.401475
 30
0.0
 10
23.687610
 20
18.189808
 30
0.0
 10
24.110944
 20
17.978142
 30
0.0
 10
24.555444
 20
17.787642
 30
0.0
 10
24.999944
 20
17.597142
 30
0.0
 10
25.888944
 20
17.216142
 30
0.0
 10
26.777944
 20
16.856308
 30
0.0
 10
27.688110
 20
16.517642
 30
0.0
 10
28.598278
 20
16.200142
 30
0.0
 10
29.508444
 20
15.903808
 30
0.0
 10
30.439778
 20
15.607475
 30
0.0
 10
31.349944
 20
15.332308
 30
0.0
 10
33.212611
 20
14.824308
 30
0.0
  0
LWPOLYLINE
  5
167
100
AcDbEntity
  8
FullCuts
 62
7
100
AcDbPolyline
 90
2
 70
0
 10
47.627111
 20
14.231642
 30
0.0
 10
47.627111
 20
11.077808
 30
0.0
  0
LWPOLYLINE
  5
168
100
AcDbEntity
  8
FullCuts
 62
7
100
AcDbPolyline
 90
2
 70
0
 10
118.448672
 20
70.523807
 30
0.0
 10
124.354172
 20
70.523807
 30
0.0
  0
LWPOLYLINE
  5
169
100
AcDbEntity
  8
FullCuts
 62
7
100
AcDbPolyline
 90
2
 70
0
 10
124.354172
 20
74.460807
 30
0.0
 10
118.448672
 20
74.460807
 30
0.0
  0
LWPOLYLINE
  5
16a
100
AcDbEntity
  8
FullCuts
 62
7
100
AcDbPolyline
 90
2
 70
0
 10
467.952667
 20
33.609141
 30
0.0
 10
436.753000
 20
42.245141
 30
0.0
  0
LWPOLYLINE
  5
16b
100
AcDbEntity
  8
FullCuts
 62
7
100
AcDbPolyline
 90
5
 70
0
 10
467.995000
 20
29.291141
 30
0.0
 10
322.050833
 20
29.291141
 30
0.0
 10
322.050833
 20
33.609141
 30
0.0
 10
413.194500
 20
42.245141
 30
0.0
 10
436.753000
 20
42.245141
 30
0.0
  0
LWPOLYLINE
  5
16c
100
AcDbEntity
  8
FullCuts
 62
7
100
AcDbPolyline
 90
3
 70
0
 10
574.463333
 20
82.779307
 30
0.0
 10
559.519667
 20
82.588807
 30
0.0
 10
559.519667
 20
86.906807
 30
0.0
  0
LWPOLYLINE
  5
16d
100
AcDbEntity
  8
FullCuts
 62
7
100
AcDbPolyline
 90
3
 70
0
 10
381.804333
 20
9.161641
 30
0.0
 10
393.446000
 20
23.300974
 30
0.0
 10
465.772500
 20
23.300974
 30
0.0
  0
LWPOLYLINE
  5
16e
100
AcDbEntity
  8
FullCuts
 62
7
100
AcDbPolyline
 90
2
 70
0
 10
118.448672
 20
82.631141
 30
0.0
 10
118.448672
 20
74.460807
 30
0.0
  0
LWPOLYLINE
  5
16f
100
AcDbEntity
  8
FullCuts
 62
7
100
AcDbPolyline
 90
3
 70
0
 10
118.448672
 20
70.523807
 30
0.0
 10
118.448672
 20
56.511474
 30
0.0
 10
230.674339
 20
40.086141
 30
0.0
  0
LWPOLYLINE
  5
170
100
AcDbEntity
  8
FullCuts
 62
7
100
AcDbPolyline
 90
4
 70
0
 10
177.800006
 20
82.588807
 30
0.0
 10
177.800006
 20
86.906807
 30
0.0
 10
162.052006
 20
86.906807
 30
0.0
 10
162.052006
 20
82.588807
 30
0.0
  0
LWPOLYLINE
  5
171
100
AcDbEntity
  8
FullCuts
 62
7
100
AcDbPolyline
 90
2
 70
0
 10
142.261172
 20
82.588807
 30
0.0
 10
133.900339
 20
77.043141
 30
0.0
  0
LWPOLYLINE
  5
172
100
AcDbEntity
  8
FullCuts
 62
7
100
AcDbPolyline
 90
2
 70
0
 10
130.767672
 20
82.609974
 30
0.0
 10
118.448672
 20
82.631141
 30
0.0
  0
LWPOLYLINE
  5
173
100
AcDbEntity
  8
FullCuts
 62
7
100
AcDbPolyline
 90
4
 70
0
 10
574.463333
 20
50.055641
 30
0.0
 10
586.147333
 20
50.055641
 30
0.0
 10
586.147333
 20
82.779307
 30
0.0
 10
574.463333
 20
82.779307
 30
0.0
  0
LWPOLYLINE
  5
174
100
AcDbEntity
  8
FullCuts
 62
7
100
AcDbPolyline
 90
95
 70
0
 10
230.674339
 20
40.086141
 30
0.0
 10
235.182839
 20
38.159974
 30
0.0
 10
239.691339
 20
36.254974
 30
0.0
 10
241.956172
 20
35.323641
 30
0.0
 10
244.199839
 20
34.371141
 30
0.0
 10
246.464672
 20
33.439807
 30
0.0
 10
248.729506
 20
32.508474
 30
0.0
 10
250.994339
 20
31.577141
 30
0.0
 10
253.259172
 20
30.666974
 30
0.0
 10
255.524006
 20
29.756807
 30
0.0
 10
257.810006
 20
28.867807
 30
0.0
 10
260.096006
 20
27.978807
 30
0.0
 10
262.360839
 20
27.089807
 30
0.0
 10
264.646839
 20
26.221974
 30
0.0
 10
266.954006
 20
25.375307
 30
0.0
 10
269.240006
 20
24.528641
 30
0.0
 10
271.547172
 20
23.681974
 30
0.0
 10
273.854339
 20
22.877641
 30
0.0
 10
276.161506
 20
22.052141
 30
0.0
 10
278.468672
 20
21.268974
 30
0.0
 10
280.775839
 20
20.485807
 30
0.0
 10
283.104167
 20
19.702641
 30
0.0
 10
285.432500
 20
18.961807
 30
0.0
 10
287.760833
 20
18.220974
 30
0.0
 10
290.110333
 20
17.501307
 30
0.0
 10
292.459833
 20
16.802807
 30
0.0
 10
294.809333
 20
16.125474
 30
0.0
 10
297.158833
 20
15.448141
 30
0.0
 10
299.508333
 20
14.791974
 30
0.0
 10
300.693667
 20
14.474474
 30
0.0
 10
301.879000
 20
14.178141
 30
0.0
 10
303.064333
 20
13.860641
 30
0.0
 10
304.249667
 20
13.564307
 30
0.0
 10
305.435000
 20
13.267974
 30
0.0
 10
306.620333
 20
12.971641
 30
0.0
 10
307.805667
 20
12.696474
 30
0.0
 10
309.012167
 20
12.400141
 30
0.0
 10
310.197500
 20
12.124974
 30
0.0
 10
311.382833
 20
11.849807
 30
0.0
 10
312.589333
 20
11.595807
 30
0.0
 10
313.774667
 20
11.341807
 30
0.0
 10
314.981167
 20
11.087807
 30
0.0
 10
316.166500
 20
10.833807
 30
0.0
 10
317.373000
 20
10.600974
 30
0.0
 10
318.579500
 20
10.368141
 30
0.0
 10
319.764833
 20
10.135307
 30
0.0
 10
320.971333
 20
9.902474
 30
0.0
 10
322.177833
 20
9.690807
 30
0.0
 10
323.384333
 20
9.479141
 30
0.0
 10
324.590833
 20
9.288641
 30
0.0
 10
325.797333
 20
9.076974
 30
0.0
 10
327.003833
 20
8.886474
 30
0.0
 10
328.210333
 20
8.717141
 30
0.0
 10
329.438000
 20
8.547807
 30
0.0
 10
330.644500
 20
8.378474
 30
0.0
 10
331.851000
 20
8.209141
 30
0.0
 10
333.078667
 20
8.060974
 30
0.0
 10
334.285167
 20
7.912807
 30
0.0
 10
335.491667
 20
7.764641
 30
0.0
 10
336.719333
 20
7.637641
 30
0.0
 10
337.925833
 20
7.531807
 30
0.0
 10
339.153500
 20
7.404807
 30
0.0
 10
340.381167
 20
7.298974
 30
0.0
 10
341.587667
 20
7.193141
 30
0.0
 10
342.815333
 20
7.108474
 30
0.0
 10
344.043000
 20
7.023807
 30
0.0
 10
345.249500
 20
6.960307
 30
0.0
 10
346.477167
 20
6.896807
 30
0.0
 10
347.704833
 20
6.833307
 30
0.0
 10
348.932500
 20
6.790974
 30
0.0
 10
350.139000
 20
6.748641
 30
0.0
 10
351.366667
 20
6.706307
 30
0.0
 10
352.594333
 20
6.685141
 30
0.0
 10
353.822000
 20
6.663974
 30
0.0
 10
355.049667
 20
6.663974
 30
0.0
 10
356.277333
 20
6.663974
 30
0.0
 10
357.483833
 20
6.685141
 30
0.0
 10
358.711500
 20
6.706307
 30
0.0
 10
359.939167
 20
6.727474
 30
0.0
 10
361.166833
 20
6.769807
 30
0.0
 10
362.394500
 20
6.833307
 30
0.0
 10
363.601000
 20
6.896807
 30
0.0
 10
364.828667
 20
6.960307
 30
0.0
 10
366.056333
 20
7.044974
 30
0.0
 10
367.262833
 20
7.150807
 30
0.0
 10
368.490500
 20
7.256641
 30
0.0
 10
369.697000
 20
7.383641
 30
0.0
 10
370.924667
 20
7.510641
 30
0.0
 10
372.131167
 20
7.658807
 30
0.0
 10
373.358833
 20
7.828141
 30
0.0
 10
374.565333
 20
7.997474
 30
0.0
 10
375.771833
 20
8.166807
 30
0.0
 10
376.978333
 20
8.357307
 30
0.0
 10
379.391333
 20
8.759474
 30
0.0
 10
381.804333
 20
9.161641
 30
0.0
  0
LWPOLYLINE
  5
175
100
AcDbEntity
  8
FullCuts
 62
7
100
AcDbPolyline
 90
99
 70
0
 10
465.772500
 20
23.300974
 30
0.0
 10
469.413167
 20
23.406807
 30
0.0
 10
473.053833
 20
23.533807
 30
0.0
 10
476.694500
 20
23.660807
 30
0.0
 10
480.314000
 20
23.808974
 30
0.0
 10
483.954667
 20
23.978307
 30
0.0
 10
487.595333
 20
24.147641
 30
0.0
 10
489.415667
 20
24.253474
 30
0.0
 10
491.236000
 20
24.338141
 30
0.0
 10
493.035167
 20
24.465141
 30
0.0
 10
494.855500
 20
24.570974
 30
0.0
 10
496.675833
 20
24.697974
 30
0.0
 10
498.496167
 20
24.824974
 30
0.0
 10
500.295333
 20
24.951974
 30
0.0
 10
502.115667
 20
25.100141
 30
0.0
 10
503.936000
 20
25.248307
 30
0.0
 10
505.735167
 20
25.396474
 30
0.0
 10
507.555500
 20
25.565807
 30
0.0
 10
509.375833
 20
25.756307
 30
0.0
 10
511.175000
 20
25.946807
 30
0.0
 10
512.995333
 20
26.137307
 30
0.0
 10
514.794500
 20
26.348974
 30
0.0
 10
516.593667
 20
26.581807
 30
0.0
 10
518.414000
 20
26.814641
 30
0.0
 10
520.213167
 20
27.068641
 30
0.0
 10
522.012333
 20
27.322641
 30
0.0
 10
523.811500
 20
27.597807
 30
0.0
 10
525.610667
 20
27.894141
 30
0.0
 10
527.388667
 20
28.211641
 30
0.0
 10
529.187833
 20
28.550307
 30
0.0
 10
530.965833
 20
28.888974
 30
0.0
 10
532.765000
 20
29.248807
 30
0.0
 10
534.543000
 20
29.629807
 30
0.0
 10
536.321000
 20
30.010807
 30
0.0
 10
538.099000
 20
30.434141
 30
0.0
 10
539.855833
 20
30.857474
 30
0.0
 10
541.633833
 20
31.301974
 30
0.0
 10
543.390667
 20
31.746474
 30
0.0
 10
545.147500
 20
32.212141
 30
0.0
 10
546.904333
 20
32.698974
 30
0.0
 10
548.640000
 20
33.185807
 30
0.0
 10
550.396833
 20
33.693807
 30
0.0
 10
552.153667
 20
34.201807
 30
0.0
 10
553.889333
 20
34.709807
 30
0.0
 10
554.757167
 20
34.984974
 30
0.0
 10
555.625000
 20
35.238974
 30
0.0
 10
556.492833
 20
35.514141
 30
0.0
 10
557.360667
 20
35.810474
 30
0.0
 10
558.228500
 20
36.085641
 30
0.0
 10
559.096333
 20
36.381974
 30
0.0
 10
559.943000
 20
36.699474
 30
0.0
 10
560.789667
 20
37.016974
 30
0.0
 10
561.636333
 20
37.334474
 30
0.0
 10
562.483000
 20
37.694307
 30
0.0
 10
563.329667
 20
38.054141
 30
0.0
 10
564.155167
 20
38.413974
 30
0.0
 10
564.980667
 20
38.816141
 30
0.0
 10
565.382833
 20
39.027807
 30
0.0
 10
565.785000
 20
39.239474
 30
0.0
 10
566.187167
 20
39.451141
 30
0.0
 10
566.589333
 20
39.662807
 30
0.0
 10
566.991500
 20
39.895641
 30
0.0
 10
567.393667
 20
40.128474
 30
0.0
 10
567.774667
 20
40.361307
 30
0.0
 10
568.155667
 20
40.615307
 30
0.0
 10
568.536667
 20
40.869307
 30
0.0
 10
568.917667
 20
41.123307
 30
0.0
 10
569.277500
 20
41.398474
 30
0.0
 10
569.637333
 20
41.673641
 30
0.0
 10
569.997167
 20
41.948807
 30
0.0
 10
570.357000
 20
42.245141
 30
0.0
 10
570.695667
 20
42.541474
 30
0.0
 10
571.034333
 20
42.858974
 30
0.0
 10
571.351833
 20
43.176474
 30
0.0
 10
571.669333
 20
43.493974
 30
0.0
 10
571.965667
 20
43.832641
 30
0.0
 10
572.262000
 20
44.192474
 30
0.0
 10
572.537167
 20
44.552307
 30
0.0
 10
572.812333
 20
44.912141
 30
0.0
 10
573.045167
 20
45.314307
 30
0.0
 10
573.278000
 20
45.695307
 30
0.0
 10
573.405000
 20
45.906974
 30
0.0
 10
573.510833
 20
46.097474
 30
0.0
 10
573.595500
 20
46.309141
 30
0.0
 10
573.701333
 20
46.520807
 30
0.0
 10
573.786000
 20
46.711307
 30
0.0
 10
573.870667
 20
46.922974
 30
0.0
 10
573.955333
 20
47.155807
 30
0.0
 10
574.040000
 20
47.367474
 30
0.0
 10
574.103500
 20
47.579141
 30
0.0
 10
574.167000
 20
47.790807
 30
0.0
 10
574.209333
 20
48.023641
 30
0.0
 10
574.272833
 20
48.235307
 30
0.0
 10
574.315167
 20
48.468141
 30
0.0
 10
574.336333
 20
48.679807
 30
0.0
 10
574.378667
 20
48.912641
 30
0.0
 10
574.399833
 20
49.145474
 30
0.0
 10
574.421000
 20
49.589974
 30
0.0
 10
574.463333
 20
50.055641
 30
0.0
  0
SPLINE
  5
176
100
AcDbEntity
  8
FullCuts
 62
7
100
AcDbSpline
 70
0
 71
3
 72
10
 73
6
 74
4
 40
0.000000
 40
0.000000
 40
0.000000
 40
0.000000
 40
1.864130
 40
3.709093
 40
5.573223
 40
5.573223
 40
5.573223
 40
5.573223
 10
99.491173
 20
58.808688
 30
0.0
 10
99.766718
 20
58.248348
 30
0.0
 10
100.314976
 20
57.133428
 30
0.0
 10
101.697171
 20
55.815193
 30
0.0
 10
102.836797
 20
55.320335
 30
0.0
 10
103.409554
 20
55.071628
 30
0.0
 11
99.491173
 21
58.808688
 31
0.0
 11
100.411677
 21
57.187684
 31
0.0
 11
101.746788
 21
55.914355
 31
0.0
 11
103.409554
 21
55.071628
 31
0.0
  0
LWPOLYLINE
  5
177
100
AcDbEntity
  8
FullCuts
 62
7
100
AcDbPolyline
 90
37
 70
0
 10
216.746672
 20
70.163974
 30
0.0
 10
217.043006
 20
70.163974
 30
0.0
 10
217.318172
 20
70.206307
 30
0.0
 10
217.572172
 20
70.248641
 30
0.0
 10
217.805006
 20
70.333307
 30
0.0
 10
218.016672
 20
70.417974
 30
0.0
 10
218.164839
 20
70.523807
 30
0.0
 10
218.270672
 20
70.629641
 30
0.0
 10
218.313006
 20
70.735474
 30
0.0
 10
218.313006
 20
70.862474
 30
0.0
 10
218.270672
 20
70.968307
 30
0.0
 10
218.164839
 20
71.095307
 30
0.0
 10
218.016672
 20
71.179974
 30
0.0
 10
217.805006
 20
71.285807
 30
0.0
 10
217.572172
 20
71.349307
 30
0.0
 10
217.318172
 20
71.412807
 30
0.0
 10
217.043006
 20
71.433974
 30
0.0
 10
216.746672
 20
71.455141
 30
0.0
 10
204.046672
 20
71.455141
 30
0.0
 10
203.771506
 20
71.433974
 30
0.0
 10
203.475172
 20
71.412807
 30
0.0
 10
203.221172
 20
71.349307
 30
0.0
 10
202.988339
 20
71.285807
 30
0.0
 10
202.797839
 20
71.179974
 30
0.0
 10
202.649672
 20
71.095307
 30
0.0
 10
202.543839
 20
70.968307
 30
0.0
 10
202.480339
 20
70.862474
 30
0.0
 10
202.480339
 20
70.735474
 30
0.0
 10
202.543839
 20
70.629641
 30
0.0
 10
202.649672
 20
70.523807
 30
0.0
 10
202.797839
 20
70.417974
 30
0.0
 10
202.988339
 20
70.333307
 30
0.0
 10
203.221172
 20
70.248641
 30
0.0
 10
203.475172
 20
70.206307
 30
0.0
 10
203.771506
 20
70.163974
 30
0.0
 10
204.046672
 20
70.163974
 30
0.0
 10
216.746672
 20
70.163974
 30
0.0
  0
LWPOLYLINE
  5
178
100
AcDbEntity
  8
FullCuts
 62
7
100
AcDbPolyline
 90
2
 70
0
 10
319.891833
 20
82.588807
 30
0.0
 10
177.800006
 20
82.588807
 30
0.0
  0
SPLINE
  5
179
100
AcDbEntity
  8
FullCuts
 62
7
100
AcDbSpline
 70
0
 71
3
 72
13
 73
9
 74
7
 40
0.000000
 40
0.000000
 40
0.000000
 40
0.000000
 40
1.034782
 40
2.038872
 40
3.073654
 40
4.108436
 40
5.112526
 40
6.147308
 40
6.147308
 40
6.147308
 40
6.147308
 10
124.364756
 20
70.523799
 30
0.0
 10
124.713635
 20
70.578234
 30
0.0
 10
125.401047
 20
70.685489
 30
0.0
 10
126.157831
 20
71.472808
 30
0.0
 10
126.438243
 20
72.502882
 30
0.0
 10
126.157831
 20
73.532956
 30
0.0
 10
125.401047
 20
74.320275
 30
0.0
 10
124.713635
 20
74.427531
 30
0.0
 10
124.364756
 20
74.481966
 30
0.0
 11
124.364756
 21
70.523799
 31
0.0
 11
125.363637
 21
70.794002
 31
0.0
 11
126.073636
 21
71.504001
 31
0.0
 11
126.343839
 21
72.502882
 31
0.0
 11
126.073636
 21
73.501764
 31
0.0
 11
125.363637
 21
74.211763
 31
0.0
 11
124.364756
 21
74.481966
 31
0.0
  0
SPLINE
  5
17a
100
AcDbEntity
  8
FullCuts
 62
7
100
AcDbSpline
 70
0
 71
3
 72
10
 73
6
 74
4
 40
0.000000
 40
0.000000
 40
0.000000
 40
0.000000
 40
2.251317
 40
4.462958
 40
6.714275
 40
6.714275
 40
6.714275
 40
6.714275
 10
130.784209
 20
82.633662
 30
0.0
 10
130.815043
 20
81.877001
 30
0.0
 10
130.876169
 20
80.377015
 30
0.0
 10
132.022639
 20
78.327403
 30
0.0
 10
133.268799
 20
77.490277
 30
0.0
 10
133.897418
 20
77.067994
 30
0.0
 11
130.784209
 21
82.633662
 31
0.0
 11
131.055074
 21
80.398698
 31
0.0
 11
132.134748
 21
78.468502
 31
0.0
 11
133.897418
 21
77.067994
 31
0.0
  0
SPLINE
  5
17b
100
AcDbEntity
  8
FullCuts
 62
7
100
AcDbSpline
 70
0
 71
3
 72
10
 73
6
 74
4
 40
0.000000
 40
0.000000
 40
0.000000
 40
0.000000
 40
0.800585
 40
1.583819
 40
2.384404
 40
2.384404
 40
2.384404
 40
2.384404
 10
468.004008
 20
29.308593
 30
0.0
 10
468.254077
 20
29.410403
 30
0.0
 10
468.748795
 20
29.611816
 30
0.0
 10
469.264842
 20
30.279249
 30
0.0
 10
469.335244
 20
30.808736
 30
0.0
 10
469.370830
 20
31.076380
 30
0.0
 11
468.004008
 21
29.308593
 31
0.0
 11
468.715393
 21
29.675836
 31
0.0
 11
469.194476
 21
30.295460
 31
0.0
 11
469.370830
 21
31.076380
 31
0.0
  0
SPLINE
  5
17c
100
AcDbEntity
  8
FullCuts
 62
7
100
AcDbSpline
 70
0
 71
3
 72
10
 73
6
 74
4
 40
0.000000
 40
0.000000
 40
0.000000
 40
0.000000
 40
0.676974
 40
1.350920
 40
2.027894
 40
2.027894
 40
2.027894
 40
2.027894
 10
469.391994
 20
31.073257
 30
0.0
 10
469.379481
 20
31.299021
 30
0.0
 10
469.354511
 20
31.749538
 30
0.0
 10
469.162427
 20
32.406138
 30
0.0
 10
468.940649
 20
32.799081
 30
0.0
 10
468.829512
 20
32.995993
 30
0.0
 11
469.391994
 21
31.073257
 31
0.0
 11
469.328592
 21
31.747256
 31
0.0
 11
469.139365
 21
32.394091
 31
0.0
 11
468.829512
 21
32.995993
 31
0.0
  0
LWPOLYLINE
  5
17d
100
AcDbEntity
  8
FullCuts
 62
7
100
AcDbPolyline
 90
2
 70
0
 10
162.052006
 20
82.588807
 30
0.0
 10
142.261172
 20
82.588807
 30
0.0
  0
LWPOLYLINE
  5
17e
100
AcDbEntity
  8
FullCuts
 62
7
100
AcDbPolyline
 90
2
 70
0
 10
118.448672
 20
134.870474
 30
0.0
 10
124.354172
 20
134.870474
 30
0.0
  0
LWPOLYLINE
  5
17f
100
AcDbEntity
  8
FullCuts
 62
7
100
AcDbPolyline
 90
2
 70
0
 10
124.354172
 20
130.933474
 30
0.0
 10
118.448672
 20
130.933474
 30
0.0
  0
LWPOLYLINE
  5
180
100
AcDbEntity
  8
FullCuts
 62
7
100
AcDbPolyline
 90
2
 70
0
 10
467.952667
 20
171.763974
 30
0.0
 10
436.753000
 20
163.127974
 30
0.0
  0
LWPOLYLINE
  5
181
100
AcDbEntity
  8
FullCuts
 62
7
100
AcDbPolyline
 90
5
 70
0
 10
467.995000
 20
176.081974
 30
0.0
 10
322.050833
 20
176.081974
 30
0.0
 10
322.050833
 20
171.763974
 30
0.0
 10
413.194500
 20
163.127974
 30
0.0
 10
436.753000
 20
163.127974
 30
0.0
  0
LWPOLYLINE
  5
182
100
AcDbEntity
  8
FullCuts
 62
7
100
AcDbPolyline
 90
3
 70
0
 10
574.463333
 20
122.593807
 30
0.0
 10
559.519667
 20
122.784307
 30
0.0
 10
559.519667
 20
118.466307
 30
0.0
  0
LWPOLYLINE
  5
183
100
AcDbEntity
  8
FullCuts
 62
7
100
AcDbPolyline
 90
3
 70
0
 10
381.804333
 20
196.211474
 30
0.0
 10
393.446000
 20
182.093307
 30
0.0
 10
465.772500
 20
182.093307
 30
0.0
  0
LWPOLYLINE
  5
184
100
AcDbEntity
  8
FullCuts
 62
7
100
AcDbPolyline
 90
2
 70
0
 10
118.448672
 20
122.763141
 30
0.0
 10
118.448672
 20
130.933474
 30
0.0
  0
LWPOLYLINE
  5
185
100
AcDbEntity
  8
FullCuts
 62
7
100
AcDbPolyline
 90
3
 70
0
 10
118.448672
 20
134.870474
 30
0.0
 10
118.448672
 20
148.861641
 30
0.0
 10
230.674339
 20
165.308141
 30
0.0
  0
LWPOLYLINE
  5
186
100
AcDbEntity
  8
FullCuts
 62
7
100
AcDbPolyline
 90
4
 70
0
 10
177.800006
 20
122.784307
 30
0.0
 10
177.800006
 20
118.487474
 30
0.0
 10
162.052006
 20
118.487474
 30
0.0
 10
162.052006
 20
122.784307
 30
0.0
  0
LWPOLYLINE
  5
187
100
AcDbEntity
  8
FullCuts
 62
7
100
AcDbPolyline
 90
2
 70
0
 10
142.261172
 20
122.784307
 30
0.0
 10
133.900339
 20
128.351141
 30
0.0
  0
LWPOLYLINE
  5
188
100
AcDbEntity
  8
FullCuts
 62
7
100
AcDbPolyline
 90
2
 70
0
 10
130.767672
 20
122.763141
 30
0.0
 10
118.448672
 20
122.763141
 30
0.0
  0
LWPOLYLINE
  5
189
100
AcDbEntity
  8
FullCuts
 62
7
100
AcDbPolyline
 90
4
 70
0
 10
574.463333
 20
155.338641
 30
0.0
 10
586.147333
 20
155.338641
 30
0.0
 10
586.147333
 20
122.593807
 30
0.0
 10
574.463333
 20
122.593807
 30
0.0
  0
LWPOLYLINE
  5
18a
100
AcDbEntity
  8
FullCuts
 62
7
100
AcDbPolyline
 90
95
 70
0
 10
230.674339
 20
165.308141
 30
0.0
 10
235.182839
 20
167.213141
 30
0.0
 10
239.691339
 20
169.118141
 30
0.0
 10
241.956172
 20
170.070641
 30
0.0
 10
244.199839
 20
171.001974
 30
0.0
 10
246.464672
 20
171.933307
 30
0.0
 10
248.729506
 20
172.864641
 30
0.0
 10
250.994339
 20
173.795974
 30
0.0
 10
253.259172
 20
174.706141
 30
0.0
 10
255.524006
 20
175.616307
 30
0.0
 10
257.810006
 20
176.505307
 30
0.0
 10
260.096006
 20
177.394307
 30
0.0
 10
262.360839
 20
178.283307
 30
0.0
 10
264.646839
 20
179.151141
 30
0.0
 10
266.954006
 20
180.018974
 30
0.0
 10
269.240006
 20
180.865641
 30
0.0
 10
271.547172
 20
181.691141
 30
0.0
 10
273.854339
 20
182.516641
 30
0.0
 10
276.161506
 20
183.320974
 30
0.0
 10
278.468672
 20
184.125307
 30
0.0
 10
280.775839
 20
184.908474
 30
0.0
 10
283.104167
 20
185.670474
 30
0.0
 10
285.432500
 20
186.411307
 30
0.0
 10
287.760833
 20
187.152141
 30
0.0
 10
290.110333
 20
187.871807
 30
0.0
 10
292.459833
 20
188.570307
 30
0.0
 10
294.809333
 20
189.268807
 30
0.0
 10
297.158833
 20
189.924974
 30
0.0
 10
299.508333
 20
190.581141
 30
0.0
 10
300.693667
 20
190.898641
 30
0.0
 10
301.879000
 20
191.216141
 30
0.0
 10
303.064333
 20
191.512474
 30
0.0
 10
304.249667
 20
191.829974
 30
0.0
 10
305.435000
 20
192.126307
 30
0.0
 10
306.620333
 20
192.401474
 30
0.0
 10
307.805667
 20
192.697807
 30
0.0
 10
309.012167
 20
192.972974
 30
0.0
 10
310.197500
 20
193.248141
 30
0.0
 10
311.382833
 20
193.523307
 30
0.0
 10
312.589333
 20
193.777307
 30
0.0
 10
313.774667
 20
194.052474
 30
0.0
 10
314.981167
 20
194.306474
 30
0.0
 10
316.166500
 20
194.539307
 30
0.0
 10
317.373000
 20
194.793307
 30
0.0
 10
318.579500
 20
195.026141
 30
0.0
 10
319.764833
 20
195.258974
 30
0.0
 10
320.971333
 20
195.470641
 30
0.0
 10
322.177833
 20
195.682307
 30
0.0
 10
323.384333
 20
195.893974
 30
0.0
 10
324.590833
 20
196.105641
 30
0.0
 10
325.797333
 20
196.296141
 30
0.0
 10
327.003833
 20
196.486641
 30
0.0
 10
328.210333
 20
196.677141
 30
0.0
 10
329.438000
 20
196.846474
 30
0.0
 10
330.644500
 20
197.015807
 30
0.0
 10
331.851000
 20
197.163974
 30
0.0
 10
333.078667
 20
197.333307
 30
0.0
 10
334.285167
 20
197.460307
 30
0.0
 10
335.491667
 20
197.608474
 30
0.0
 10
336.719333
 20
197.735474
 30
0.0
 10
337.925833
 20
197.862474
 30
0.0
 10
339.153500
 20
197.968307
 30
0.0
 10
340.381167
 20
198.074141
 30
0.0
 10
341.587667
 20
198.179974
 30
0.0
 10
342.815333
 20
198.264641
 30
0.0
 10
344.043000
 20
198.349307
 30
0.0
 10
345.249500
 20
198.433974
 30
0.0
 10
346.477167
 20
198.497474
 30
0.0
 10
347.704833
 20
198.560974
 30
0.0
 10
348.932500
 20
198.603307
 30
0.0
 10
350.139000
 20
198.645641
 30
0.0
 10
351.366667
 20
198.666807
 30
0.0
 10
352.594333
 20
198.687974
 30
0.0
 10
353.822000
 20
198.709141
 30
0.0
 10
355.049667
 20
198.709141
 30
0.0
 10
356.277333
 20
198.709141
 30
0.0
 10
357.483833
 20
198.687974
 30
0.0
 10
358.711500
 20
198.666807
 30
0.0
 10
359.939167
 20
198.645641
 30
0.0
 10
361.166833
 20
198.603307
 30
0.0
 10
362.394500
 20
198.560974
 30
0.0
 10
363.601000
 20
198.497474
 30
0.0
 10
364.828667
 20
198.412807
 30
0.0
 10
366.056333
 20
198.328141
 30
0.0
 10
367.262833
 20
198.222307
 30
0.0
 10
368.490500
 20
198.116474
 30
0.0
 10
369.697000
 20
198.010641
 30
0.0
 10
370.924667
 20
197.862474
 30
0.0
 10
372.131167
 20
197.714307
 30
0.0
 10
373.358833
 20
197.566141
 30
0.0
 10
374.565333
 20
197.396807
 30
0.0
 10
375.771833
 20
197.206307
 30
0.0
 10
376.978333
 20
197.015807
 30
0.0
 10
379.391333
 20
196.613641
 30
0.0
 10
381.804333
 20
196.211474
 30
0.0
  0
LWPOLYLINE
  5
18b
100
AcDbEntity
  8
FullCuts
 62
7
100
AcDbPolyline
 90
99
 70
0
 10
465.772500
 20
182.093307
 30
0.0
 10
469.413167
 20
181.966307
 30
0.0
 10
473.053833
 20
181.860474
 30
0.0
 10
476.694500
 20
181.733474
 30
0.0
 10
480.314000
 20
181.585307
 30
0.0
 10
483.954667
 20
181.415974
 30
0.0
 10
487.595333
 20
181.225474
 30
0.0
 10
489.415667
 20
181.140807
 30
0.0
 10
491.236000
 20
181.034974
 30
0.0
 10
493.035167
 20
180.929141
 30
0.0
 10
494.855500
 20
180.802141
 30
0.0
 10
496.675833
 20
180.696307
 30
0.0
 10
498.496167
 20
180.569307
 30
0.0
 10
500.295333
 20
180.421141
 30
0.0
 10
502.115667
 20
180.294141
 30
0.0
 10
503.936000
 20
180.145974
 30
0.0
 10
505.735167
 20
179.976641
 30
0.0
 10
507.555500
 20
179.807307
 30
0.0
 10
509.375833
 20
179.637974
 30
0.0
 10
511.175000
 20
179.447474
 30
0.0
 10
512.995333
 20
179.235807
 30
0.0
 10
514.794500
 20
179.024141
 30
0.0
 10
516.593667
 20
178.812474
 30
0.0
 10
518.414000
 20
178.579641
 30
0.0
 10
520.213167
 20
178.325641
 30
0.0
 10
522.012333
 20
178.050474
 30
0.0
 10
523.811500
 20
177.775307
 30
0.0
 10
525.610667
 20
177.478974
 30
0.0
 10
527.388667
 20
177.161474
 30
0.0
 10
529.187833
 20
176.843974
 30
0.0
 10
530.965833
 20
176.484141
 30
0.0
 10
532.765000
 20
176.124307
 30
0.0
 10
534.543000
 20
175.764474
 30
0.0
 10
536.321000
 20
175.362307
 30
0.0
 10
538.099000
 20
174.960141
 30
0.0
 10
539.855833
 20
174.536807
 30
0.0
 10
541.633833
 20
174.092307
 30
0.0
 10
543.390667
 20
173.626641
 30
0.0
 10
545.147500
 20
173.160974
 30
0.0
 10
546.904333
 20
172.674141
 30
0.0
 10
548.640000
 20
172.187307
 30
0.0
 10
550.396833
 20
171.679307
 30
0.0
 10
552.153667
 20
171.171307
 30
0.0
 10
553.889333
 20
170.663307
 30
0.0
 10
554.757167
 20
170.409307
 30
0.0
 10
555.625000
 20
170.134141
 30
0.0
 10
556.492833
 20
169.858974
 30
0.0
 10
557.360667
 20
169.583807
 30
0.0
 10
558.228500
 20
169.287474
 30
0.0
 10
559.096333
 20
168.991141
 30
0.0
 10
559.943000
 20
168.694807
 30
0.0
 10
560.789667
 20
168.377307
 30
0.0
 10
561.636333
 20
168.038641
 30
0.0
 10
562.483000
 20
167.699974
 30
0.0
 10
563.329667
 20
167.340141
 30
0.0
 10
564.155167
 20
166.959141
 30
0.0
 10
564.980667
 20
166.556974
 30
0.0
 10
565.382833
 20
166.366474
 30
0.0
 10
565.785000
 20
166.154807
 30
0.0
 10
566.187167
 20
165.943141
 30
0.0
 10
566.589333
 20
165.710307
 30
0.0
 10
566.991500
 20
165.498641
 30
0.0
 10
567.393667
 20
165.265807
 30
0.0
 10
567.774667
 20
165.011807
 30
0.0
 10
568.155667
 20
164.778974
 30
0.0
 10
568.536667
 20
164.524974
 30
0.0
 10
568.917667
 20
164.249807
 30
0.0
 10
569.277500
 20
163.995807
 30
0.0
 10
569.637333
 20
163.720641
 30
0.0
 10
569.997167
 20
163.424307
 30
0.0
 10
570.357000
 20
163.149141
 30
0.0
 10
570.695667
 20
162.831641
 30
0.0
 10
571.034333
 20
162.535307
 30
0.0
 10
571.351833
 20
162.217807
 30
0.0
 10
571.669333
 20
161.879141
 30
0.0
 10
571.965667
 20
161.540474
 30
0.0
 10
572.262000
 20
161.201807
 30
0.0
 10
572.537167
 20
160.841974
 30
0.0
 10
572.812333
 20
160.460974
 30
0.0
 10
573.045167
 20
160.079974
 30
0.0
 10
573.278000
 20
159.677807
 30
0.0
 10
573.405000
 20
159.487307
 30
0.0
 10
573.510833
 20
159.275641
 30
0.0
 10
573.595500
 20
159.085141
 30
0.0
 10
573.701333
 20
158.873474
 30
0.0
 10
573.786000
 20
158.661807
 30
0.0
 10
573.870667
 20
158.450141
 30
0.0
 10
573.955333
 20
158.238474
 30
0.0
 10
574.040000
 20
158.026807
 30
0.0
 10
574.103500
 20
157.793974
 30
0.0
 10
574.167000
 20
157.582307
 30
0.0
 10
574.209333
 20
157.370641
 30
0.0
 10
574.272833
 20
157.137807
 30
0.0
 10
574.315167
 20
156.926141
 30
0.0
 10
574.336333
 20
156.693307
 30
0.0
 10
574.378667
 20
156.460474
 30
0.0
 10
574.399833
 20
156.248807
 30
0.0
 10
574.421000
 20
155.783141
 30
0.0
 10
574.463333
 20
155.338641
 30
0.0
  0
SPLINE
  5
18c
100
AcDbEntity
  8
FullCuts
 62
7
100
AcDbSpline
 70
0
 71
3
 72
10
 73
6
 74
4
 40
0.000000
 40
0.000000
 40
0.000000
 40
0.000000
 40
0.357458
 40
0.712283
 40
1.069741
 40
1.069741
 40
1.069741
 40
1.069741
 10
468.802134
 20
32.985220
 30
0.0
 10
468.730275
 20
33.080774
 30
0.0
 10
468.587086
 20
33.271178
 30
0.0
 10
468.293180
 20
33.485442
 30
0.0
 10
468.068100
 20
33.563514
 30
0.0
 10
467.955143
 20
33.602694
 30
0.0
 11
468.802134
 21
32.985220
 31
0.0
 11
468.573333
 21
33.259859
 31
0.0
 11
468.286612
 21
33.468885
 31
0.0
 11
467.955143
 21
33.602694
 31
0.0
  0
LWPOLYLINE
  5
18d
100
AcDbEntity
  8
FullCuts
 62
7
100
AcDbPolyline
 90
37
 70
0
 10
216.746672
 20
135.230307
 30
0.0
 10
217.043006
 20
135.209141
 30
0.0
 10
217.318172
 20
135.187974
 30
0.0
 10
217.572172
 20
135.124474
 30
0.0
 10
217.805006
 20
135.060974
 30
0.0
 10
218.016672
 20
134.976307
 30
0.0
 10
218.164839
 20
134.870474
 30
0.0
 10
218.270672
 20
134.764641
 30
0.0
 10
218.313006
 20
134.637641
 30
0.0
 10
218.313006
 20
134.510641
 30
0.0
 10
218.270672
 20
134.404807
 30
0.0
 10
218.164839
 20
134.298974
 30
0.0
 10
218.016672
 20
134.193141
 30
0.0
 10
217.805006
 20
134.108474
 30
0.0
 10
217.572172
 20
134.023807
 30
0.0
 10
217.318172
 20
133.981474
 30
0.0
 10
217.043006
 20
133.939141
 30
0.0
 10
216.746672
 20
133.939141
 30
0.0
 10
204.046672
 20
133.939141
 30
0.0
 10
203.771506
 20
133.939141
 30
0.0
 10
203.475172
 20
133.981474
 30
0.0
 10
203.221172
 20
134.023807
 30
0.0
 10
202.988339
 20
134.108474
 30
0.0
 10
202.797839
 20
134.193141
 30
0.0
 10
202.649672
 20
134.298974
 30
0.0
 10
202.543839
 20
134.404807
 30
0.0
 10
202.480339
 20
134.510641
 30
0.0
 10
202.480339
 20
134.637641
 30
0.0
 10
202.543839
 20
134.764641
 30
0.0
 10
202.649672
 20
134.870474
 30
0.0
 10
202.797839
 20
134.976307
 30
0.0
 10
202.988339
 20
135.060974
 30
0.0
 10
203.221172
 20
135.124474
 30
0.0
 10
203.475172
 20
135.187974
 30
0.0
 10
203.771506
 20
135.209141
 30
0.0
 10
204.046672
 20
135.230307
 30
0.0
 10
216.746672
 20
135.230307
 30
0.0
  0
LWPOLYLINE
  5
18e
100
AcDbEntity
  8
FullCuts
 62
7
100
AcDbPolyline
 90
2
 70
0
 10
319.891833
 20
122.784307
 30
0.0
 10
177.800006
 20
122.784307
 30
0.0
  0
SPLINE
  5
18f
100
AcDbEntity
  8
FullCuts
 62
7
100
AcDbSpline
 70
0
 71
3
 72
13
 73
9
 74
7
 40
0.000000
 40
0.000000
 40
0.000000
 40
0.000000
 40
1.034782
 40
2.038872
 40
3.073654
 40
4.108436
 40
5.112526
 40
6.147308
 40
6.147308
 40
6.147308
 40
6.147308
 10
124.364756
 20
130.933466
 30
0.0
 10
124.713635
 20
130.987901
 30
0.0
 10
125.401047
 20
131.095156
 30
0.0
 10
126.157831
 20
131.882475
 30
0.0
 10
126.438243
 20
132.912549
 30
0.0
 10
126.157831
 20
133.942623
 30
0.0
 10
125.401047
 20
134.729942
 30
0.0
 10
124.713635
 20
134.837197
 30
0.0
 10
124.364756
 20
134.891632
 30
0.0
 11
124.364756
 21
130.933466
 31
0.0
 11
125.363637
 21
131.203668
 31
0.0
 11
126.073636
 21
131.913668
 31
0.0
 11
126.343839
 21
132.912549
 31
0.0
 11
126.073636
 21
133.911430
 31
0.0
 11
125.363637
 21
134.621429
 31
0.0
 11
124.364756
 21
134.891632
 31
0.0
  0
SPLINE
  5
190
100
AcDbEntity
  8
FullCuts
 62
7
100
AcDbSpline
 70
0
 71
3
 72
10
 73
6
 74
4
 40
0.000000
 40
0.000000
 40
0.000000
 40
0.000000
 40
2.251317
 40
4.462958
 40
6.714275
 40
6.714275
 40
6.714275
 40
6.714275
 10
133.897418
 20
128.347438
 30
0.0
 10
133.268799
 20
127.925154
 30
0.0
 10
132.022639
 20
127.088028
 30
0.0
 10
130.876169
 20
125.038416
 30
0.0
 10
130.815043
 20
123.538430
 30
0.0
 10
130.784209
 20
122.781769
 30
0.0
 11
133.897418
 21
128.347438
 31
0.0
 11
132.134748
 21
126.946929
 31
0.0
 11
131.055074
 21
125.016733
 31
0.0
 11
130.784209
 21
122.781769
 31
0.0
  0
SPLINE
  5
191
100
AcDbEntity
  8
FullCuts
 62
7
100
AcDbSpline
 70
0
 71
3
 72
10
 73
6
 74
4
 40
0.000000
 40
0.000000
 40
0.000000
 40
0.000000
 40
0.800585
 40
1.583819
 40
2.384404
 40
2.384404
 40
2.384404
 40
2.384404
 10
469.370830
 20
174.317893
 30
0.0
 10
469.335244
 20
174.585537
 30
0.0
 10
469.264842
 20
175.115024
 30
0.0
 10
468.748795
 20
175.782457
 30
0.0
 10
468.254077
 20
175.983870
 30
0.0
 10
468.004008
 20
176.085680
 30
0.0
 11
469.370830
 21
174.317893
 31
0.0
 11
469.194476
 21
175.098813
 31
0.0
 11
468.715393
 21
175.718437
 31
0.0
 11
468.004008
 21
176.085680
 31
0.0
  0
SPLINE
  5
192
100
AcDbEntity
  8
FullCuts
 62
7
100
AcDbSpline
 70
0
 71
3
 72
10
 73
6
 74
4
 40
0.000000
 40
0.000000
 40
0.000000
 40
0.000000
 40
0.676975
 40
1.350920
 40
2.027894
 40
2.027894
 40
2.027894
 40
2.027894
 10
468.829512
 20
172.398280
 30
0.0
 10
468.940649
 20
172.595192
 30
0.0
 10
469.162427
 20
172.988135
 30
0.0
 10
469.354510
 20
173.644735
 30
0.0
 10
469.379481
 20
174.095252
 30
0.0
 10
469.391994
 20
174.321016
 30
0.0
 11
468.829512
 21
172.398280
 31
0.0
 11
469.139364
 21
173.000182
 31
0.0
 11
469.328591
 21
173.647017
 31
0.0
 11
469.391994
 21
174.321016
 31
0.0
  0
LWPOLYLINE
  5
193
100
AcDbEntity
  8
FullCuts
 62
7
100
AcDbPolyline
 90
2
 70
0
 10
162.052006
 20
122.784307
 30
0.0
 10
142.261172
 20
122.784307
 30
0.0
  0
LWPOLYLINE
  5
194
100
AcDbEntity
  8
FullCuts
 62
7
100
AcDbPolyline
 90
5
 70
0
 10
413.427333
 20
100.538141
 30
0.0
 10
426.127333
 20
100.538141
 30
0.0
 10
426.127333
 20
104.856141
 30
0.0
 10
413.427333
 20
104.856141
 30
0.0
 10
413.427333
 20
100.538141
 30
0.0
  0
LWPOLYLINE
  5
195
100
AcDbEntity
  8
FullCuts
 62
7
100
AcDbPolyline
 90
2
 70
0
 10
443.949667
 20
91.245974
 30
0.0
 10
494.749667
 20
91.245974
 30
0.0
  0
LWPOLYLINE
  5
196
100
AcDbEntity
  8
FullCuts
 62
7
100
AcDbPolyline
 90
2
 70
0
 10
335.470500
 20
91.245974
 30
0.0
 10
410.612167
 20
91.245974
 30
0.0
  0
LWPOLYLINE
  5
197
100
AcDbEntity
  8
FullCuts
 62
7
100
AcDbPolyline
 90
2
 70
0
 10
494.749667
 20
118.466307
 30
0.0
 10
494.749667
 20
86.906807
 30
0.0
  0
LWPOLYLINE
  5
198
100
AcDbEntity
  8
FullCuts
 62
7
100
AcDbPolyline
 90
2
 70
0
 10
443.949667
 20
118.466307
 30
0.0
 10
443.949667
 20
86.906807
 30
0.0
  0
LWPOLYLINE
  5
199
100
AcDbEntity
  8
FullCuts
 62
7
100
AcDbPolyline
 90
2
 70
0
 10
410.612167
 20
118.466307
 30
0.0
 10
410.612167
 20
86.906807
 30
0.0
  0
LWPOLYLINE
  5
19a
100
AcDbEntity
  8
FullCuts
 62
7
100
AcDbPolyline
 90
2
 70
0
 10
335.470500
 20
118.466307
 30
0.0
 10
335.470500
 20
86.906807
 30
0.0
  0
LWPOLYLINE
  5
19b
100
AcDbEntity
  8
FullCuts
 62
7
100
AcDbPolyline
 90
2
 70
0
 10
507.238000
 20
106.591807
 30
0.0
 10
507.238000
 20
98.781307
 30
0.0
  0
SPLINE
  5
19c
100
AcDbEntity
  8
FullCuts
 62
7
100
AcDbSpline
 70
0
 71
3
 72
10
 73
6
 74
4
 40
0.000000
 40
0.000000
 40
0.000000
 40
0.000000
 40
0.357458
 40
0.712283
 40
1.069741
 40
1.069741
 40
1.069741
 40
1.069741
 10
467.955143
 20
171.791579
 30
0.0
 10
468.068100
 20
171.830759
 30
0.0
 10
468.293180
 20
171.908831
 30
0.0
 10
468.587086
 20
172.123095
 30
0.0
 10
468.730275
 20
172.313499
 30
0.0
 10
468.802134
 20
172.409053
 30
0.0
 11
467.955143
 21
171.791579
 31
0.0
 11
468.286612
 21
171.925388
 31
0.0
 11
468.573333
 21
172.134414
 31
0.0
 11
468.802134
 21
172.409053
 31
0.0
  0
LWPOLYLINE
  5
19d
100
AcDbEntity
  8
FullCuts
 62
7
100
AcDbPolyline
 90
2
 70
0
 10
511.196167
 20
94.823141
 30
0.0
 10
541.930167
 20
94.823141
 30
0.0
  0
SPLINE
  5
19e
100
AcDbEntity
  8
FullCuts
 62
7
100
AcDbSpline
 70
0
 71
3
 72
10
 73
6
 74
4
 40
0.000000
 40
0.000000
 40
0.000000
 40
0.000000
 40
2.075097
 40
4.088648
 40
6.163745
 40
6.163745
 40
6.163745
 40
6.163745
 10
507.238000
 20
98.791882
 30
0.0
 10
507.347161
 20
98.096455
 30
0.0
 10
507.562246
 20
96.726226
 30
0.0
 10
509.141094
 20
95.147378
 30
0.0
 10
510.511322
 20
94.932293
 30
0.0
 10
511.206750
 20
94.823132
 30
0.0
 11
507.238000
 21
98.791882
 31
0.0
 11
507.779851
 21
96.788778
 31
0.0
 11
509.203646
 21
95.364983
 31
0.0
 11
511.206750
 21
94.823132
 31
0.0
  0
LWPOLYLINE
  5
19f
100
AcDbEntity
  8
FullCuts
 62
7
100
AcDbPolyline
 90
2
 70
0
 10
545.888333
 20
98.781307
 30
0.0
 10
545.888333
 20
106.591807
 30
0.0
  0
LWPOLYLINE
  5
1a0
100
AcDbEntity
  8
FullCuts
 62
7
100
AcDbPolyline
 90
2
 70
0
 10
319.891833
 20
82.588807
 30
0.0
 10
319.891833
 20
122.784307
 30
0.0
  0
LWPOLYLINE
  5
1a1
100
AcDbEntity
  8
FullCuts
 62
7
100
AcDbPolyline
 90
5
 70
0
 10
497.543667
 20
110.571141
 30
0.0
 10
497.543667
 20
94.823141
 30
0.0
 10
501.861667
 20
94.823141
 30
0.0
 10
501.861667
 20
110.571141
 30
0.0
 10
497.543667
 20
110.571141
 30
0.0
  0
LWPOLYLINE
  5
1a2
100
AcDbEntity
  8
FullCuts
 62
7
100
AcDbPolyline
 90
5
 70
0
 10
428.392167
 20
110.571141
 30
0.0
 10
428.392167
 20
94.823141
 30
0.0
 10
432.710167
 20
94.823141
 30
0.0
 10
432.710167
 20
110.571141
 30
0.0
 10
428.392167
 20
110.571141
 30
0.0
  0
LWPOLYLINE
  5
1a3
100
AcDbEntity
  8
FullCuts
 62
7
100
AcDbPolyline
 90
3
 70
0
 10
570.208833
 20
118.466307
 30
0.0
 10
570.208833
 20
86.906807
 30
0.0
 10
559.519667
 20
86.906807
 30
0.0
  0
LWPOLYLINE
  5
1a4
100
AcDbEntity
  8
FullCuts
 62
7
100
AcDbPolyline
 90
5
 70
0
 10
323.384333
 20
110.571141
 30
0.0
 10
323.384333
 20
94.823141
 30
0.0
 10
327.702333
 20
94.823141
 30
0.0
 10
327.702333
 20
110.571141
 30
0.0
 10
323.384333
 20
110.571141
 30
0.0
  0
LWPOLYLINE
  5
1a5
100
AcDbEntity
  8
FullCuts
 62
7
100
AcDbPolyline
 90
2
 70
0
 10
443.949667
 20
114.148307
 30
0.0
 10
494.749667
 20
114.148307
 30
0.0
  0
LWPOLYLINE
  5
1a6
100
AcDbEntity
  8
FullCuts
 62
7
100
AcDbPolyline
 90
2
 70
0
 10
335.470500
 20
114.148307
 30
0.0
 10
410.612167
 20
114.148307
 30
0.0
  0
SPLINE
  5
1a7
100
AcDbEntity
  8
FullCuts
 62
7
100
AcDbSpline
 70
0
 71
3
 72
10
 73
6
 74
4
 40
0.000000
 40
0.000000
 40
0.000000
 40
0.000000
 40
2.075097
 40
4.088648
 40
6.163745
 40
6.163745
 40
6.163745
 40
6.163745
 10
541.940750
 20
94.823132
 30
0.0
 10
542.636178
 20
94.932293
 30
0.0
 10
544.006406
 20
95.147378
 30
0.0
 10
545.585254
 20
96.726226
 30
0.0
 10
545.800339
 20
98.096455
 30
0.0
 10
545.909500
 20
98.791882
 30
0.0
 11
541.940750
 21
94.823132
 31
0.0
 11
543.943854
 21
95.364983
 31
0.0
 11
545.367649
 21
96.788778
 31
0.0
 11
545.909500
 21
98.791882
 31
0.0
  0
SPLINE
  5
1a8
100
AcDbEntity
  8
FullCuts
 62
7
100
AcDbSpline
 70
0
 71
3
 72
10
 73
6
 74
4
 40
0.000000
 40
0.000000
 40
0.000000
 40
0.000000
 40
2.075097
 40
4.088648
 40
6.163745
 40
6.163745
 40
6.163745
 40
6.163745
 10
511.206750
 20
110.571132
 30
0.0
 10
510.511322
 20
110.461971
 30
0.0
 10
509.141094
 20
110.246887
 30
0.0
 10
507.562246
 20
108.668039
 30
0.0
 10
507.347161
 20
107.297810
 30
0.0
 10
507.238000
 20
106.602382
 30
0.0
 11
511.206750
 21
110.571132
 31
0.0
 11
509.203646
 21
110.029282
 31
0.0
 11
507.779851
 21
108.605486
 31
0.0
 11
507.238000
 21
106.602382
 31
0.0
  0
LWPOLYLINE
  5
1a9
100
AcDbEntity
  8
FullCuts
 62
7
100
AcDbPolyline
 90
2
 70
0
 10
511.196167
 20
110.571141
 30
0.0
 10
541.930167
 20
110.571141
 30
0.0
  0
SPLINE
  5
1aa
100
AcDbEntity
  8
FullCuts
 62
7
100
AcDbSpline
 70
0
 71
3
 72
10
 73
6
 74
4
 40
0.000000
 40
0.000000
 40
0.000000
 40
0.000000
 40
2.075097
 40
4.088648
 40
6.163745
 40
6.163745
 40
6.163745
 40
6.163745
 10
545.909500
 20
106.602382
 30
0.0
 10
545.800339
 20
107.297810
 30
0.0
 10
545.585254
 20
108.668039
 30
0.0
 10
544.006406
 20
110.246887
 30
0.0
 10
542.636178
 20
110.461971
 30
0.0
 10
541.940750
 20
110.571132
 30
0.0
 11
545.909500
 21
106.602382
 31
0.0
 11
545.367649
 21
108.605486
 31
0.0
 11
543.943854
 21
110.029282
 31
0.0
 11
541.940750
 21
110.571132
 31
0.0
  0
LWPOLYLINE
  5
1ab
100
AcDbEntity
  8
FullCuts
 62
7
100
AcDbPolyline
 90
2
 70
0
 10
570.208833
 20
118.466307
 30
0.0
 10
559.519667
 20
118.466307
 30
0.0
  0
ENDSEC
  0
SECTION
  2
OBJECTS
  0
DICTIONARY
  5
C
330
0
100
AcDbDictionary
  3
ACAD_GROUP
350
D
  3
ACAD_MLINESTYLE
350
17
  0
DICTIONARY
  5
D
330
C
100
AcDbDictionary
  0
DICTIONARY
  5
1A
330
C
100
AcDbDictionary
  0
DICTIONARY
  5
17
330
C
100
AcDbDictionary
  3
STANDARD
350
18
  0
DICTIONARY
  5
19
330
C
100
AcDbDictionary
  0
ENDSEC
  0
EOF
