  0
SECTION
  2
HEADER
  9
$ACADVER
  1
AC1006
  9
$DWGCODEPAGE
  3
ansi_1252
  9
$INSBASE
 10
0.0
 20
0.0
 30
0.0
  9
$EXTMIN
 10
1.000000000000000E+20
 20
1.000000000000000E+20
  9
$EXTMAX
 10
-1.000000000000000E+20
 20
-1.000000000000000E+20
  9
$LIMMIN
 10
0.0
 20
0.0
  9
$LIMMAX
 10
12.0
 20
9.0
  9
$ORTHOMODE
 70
     0
  9
$REGENMODE
 70
     1
  9
$FILLMODE
 70
     1
  9
$QTEXTMODE
 70
     0
  9
$MIRRTEXT
 70
     1
  9
$DRAGMODE
 70
     2
  9
$LTSCALE
 40
1.0
  9
$OSMODE
 70
    37
  9
$ATTMODE
 70
     1
  9
$TEXTSIZE
 40
0.2
  9
$TRACEWID
 40
0.05
  9
$TEXTSTYLE
  7
STANDARD
  9
$CLAYER
  8
0
  9
$CELTYPE
  6
BYLAYER
  9
$CECOLOR
 62
   256
  9
$DIMSCALE
 40
1.0
  9
$DIMASZ
 40
2.5
  9
$DIMEXO
 40
0.625
  9
$DIMDLI
 40
0.38
  9
$DIMRND
 40
0.0
  9
$DIMDLE
 40
0.0
  9
$DIMEXE
 40
1.25
  9
$DIMTP
 40
0.0
  9
$DIMTM
 40
0.0
  9
$DIMTXT
 40
2.5
  9
$DIMCEN
 40
0.09
  9
$DIMTSZ
 40
0.0
  9
$DIMTOL
 70
     0
  9
$DIMLIM
 70
     0
  9
$DIMTIH
 70
     1
  9
$DIMTOH
 70
     1
  9
$DIMSE1
 70
     0
  9
$DIMSE2
 70
     0
  9
$DIMTAD
 70
     0
  9
$DIMZIN
 70
     8
  9
$DIMBLK
  1

  9
$DIMASO
 70
     1
  9
$DIMSHO
 70
     1
  9
$DIMPOST
  1

  9
$DIMAPOST
  1

  9
$DIMALT
 70
     0
  9
$DIMALTD
 70
     2
  9
$DIMALTF
 40
25.4
  9
$DIMLFAC
 40
1.0
  9
$DIMTOFL
 70
     0
  9
$DIMTVP
 40
0.0
  9
$DIMTIX
 70
     0
  9
$DIMSOXD
 70
     0
  9
$DIMSAH
 70
     0
  9
$DIMBLK1
  1

  9
$DIMBLK2
  1

  9
$LUNITS
 70
     2
  9
$LUPREC
 70
     4
  9
$SKETCHINC
 40
0.1
  9
$FILLETRAD
 40
0.5
  9
$AUNITS
 70
     0
  9
$AUPREC
 70
     0
  9
$MENU
  1
.
  9
$ELEVATION
 40
0.0
  9
$THICKNESS
 40
0.0
  9
$LIMCHECK
 70
     0
  9
$CHAMFERA
 40
0.0
  9
$CHAMFERB
 40
0.0
  9
$SKPOLY
 70
     0
  9
$TDCREATE
 40
2457734.907388831
  9
$TDUPDATE
 40
2457734.907388877
  9
$TDINDWG
 40
0.0000000116
  9
$TDUSRTIMER
 40
0.0000000116
  9
$USRTIMER
 70
     1
  9
$ANGBASE
 50
0.0
  9
$ANGDIR
 70
     0
  9
$PDMODE
 70
     0
  9
$PDSIZE
 40
0.0
  9
$PLINEWID
 40
0.0
  9
$COORDS
 70
     1
  9
$SPLFRAME
 70
     0
  9
$SPLINETYPE
 70
     6
  9
$SPLINESEGS
 70
     8
  9
$ATTDIA
 70
     0
  9
$ATTREQ
 70
     1
  9
$HANDLING
 70
     1
  9
$HANDSEED
  5
B22
  9
$SURFTAB1
 70
     6
  9
$SURFTAB2
 70
     6
  9
$SURFTYPE
 70
     6
  9
$SURFU
 70
     6
  9
$SURFV
 70
     6
  9
$UCSNAME
  2

  9
$UCSORG
 10
0.0
 20
0.0
 30
0.0
  9
$UCSXDIR
 10
1.0
 20
0.0
 30
0.0
  9
$UCSYDIR
 10
0.0
 20
1.0
 30
0.0
  9
$USERI1
 70
     0
  9
$USERI2
 70
     0
  9
$USERI3
 70
     0
  9
$USERI4
 70
     0
  9
$USERI5
 70
     0
  9
$USERR1
 40
0.0
  9
$USERR2
 40
0.0
  9
$USERR3
 40
0.0
  9
$USERR4
 40
0.0
  9
$USERR5
 40
0.0
  9
$WORLDVIEW
 70
     1
  0
ENDSEC
  0
SECTION
  2
TABLES
  0
TABLE
  2
VPORT
 70
     1
  0
VPORT
  2
*ACTIVE
 70
     0
 10
0.0
 20
0.0
 11
1.0
 21
1.0
 12
196.8690800311095
 22
-207.5267922992822
 13
0.0
 23
0.0
 14
0.5
 24
0.5
 15
0.5
 25
0.5
 16
0.0
 26
0.0
 36
1.0
 17
0.0
 27
0.0
 37
0.0
 40
1104.683446897842
 41
2.097629009762901
 42
50.0
 43
0.0
 44
0.0
 50
0.0
 51
0.0
 71
     0
 72
   100
 73
     1
 74
     3
 75
     0
 76
     0
 77
     0
 78
     0
  0
ENDTAB
  0
TABLE
  2
LTYPE
 70
    52
  0
LTYPE
  2
CONTINUOUS
 70
     0
  3
Solid line
 72
    65
 73
     0
 40
0.0
  0
LTYPE
  2
ACAD_ISO15W100
 70
     0
  3
ISO double-dash triple-dot __ __ . . . __ __ . .
 72
    65
 73
    10
 40
39.0
 49
12.0
 49
-3.0
 49
12.0
 49
-3.0
 49
0.0
 49
-3.0
 49
0.0
 49
-3.0
 49
0.0
 49
-3.0
  0
LTYPE
  2
ACAD_ISO14W100
 70
     0
  3
ISO dash triple-dot __ . . . __ . . . __ . . . _
 72
    65
 73
     8
 40
24.0
 49
12.0
 49
-3.0
 49
0.0
 49
-3.0
 49
0.0
 49
-3.0
 49
0.0
 49
-3.0
  0
LTYPE
  2
BORDER
 70
     0
  3
Border __ __ . __ __ . __ __ . __ __ . __ __ .
 72
    65
 73
     6
 40
44.45
 49
12.7
 49
-6.35
 49
12.7
 49
-6.35
 49
0.0
 49
-6.35
  0
LTYPE
  2
BATTING
 70
     0
  3
Batting SSSSSSSSSSSSSSSSSSSSSSSSSSSSSSSSSSSSSSSSSSSSSSS
 72
    65
 73
     4
 40
10.16254
 49
0.00254
 49
-2.54
 49
-5.08
 49
-2.54
  0
LTYPE
  2
ACAD_ISO11W100
 70
     0
  3
ISO double-dash dot __ __ . __ __ . __ __ . __ _
 72
    65
 73
     6
 40
33.0
 49
12.0
 49
-3.0
 49
12.0
 49
-3.0
 49
0.0
 49
-3.0
  0
LTYPE
  2
ACAD_ISO10W100
 70
     0
  3
ISO dash dot __ . __ . __ . __ . __ . __ . __ . 
 72
    65
 73
     4
 40
18.0
 49
12.0
 49
-3.0
 49
0.0
 49
-3.0
  0
LTYPE
  2
ACAD_ISO13W100
 70
     0
  3
ISO double-dash double-dot __ __ . . __ __ . . _
 72
    65
 73
     8
 40
36.0
 49
12.0
 49
-3.0
 49
12.0
 49
-3.0
 49
0.0
 49
-3.0
 49
0.0
 49
-3.0
  0
LTYPE
  2
ACAD_ISO12W100
 70
     0
  3
ISO dash double-dot __ . . __ . . __ . . __ . . 
 72
    65
 73
     6
 40
21.0
 49
12.0
 49
-3.0
 49
0.0
 49
-3.0
 49
0.0
 49
-3.0
  0
LTYPE
  2
CUTLEFT
 70
     0
  3
G41 ----\----\----\----
 72
    65
 73
     2
 40
10.16
 49
5.08
 49
5.08
  0
LTYPE
  2
CENTERX2
 70
     0
  3
Center (2x) ________  __  ________  __  _____
 72
    65
 73
     4
 40
101.6
 49
63.5
 49
-12.7
 49
12.7
 49
-12.7
  0
LTYPE
  2
CUTRIGHT
 70
     0
  3
G42 ----/----/-----/---
 72
    65
 73
     2
 40
10.16
 49
5.08
 49
5.08
  0
LTYPE
  2
CUTLEFT2
 70
     0
  3
G41 reversed----/----/----/----
 72
    65
 73
     2
 40
10.16
 49
5.08
 49
5.08
  0
LTYPE
  2
BORDERX2
 70
     0
  3
Border (2x) ____  ____  .  ____  ____  .  ___
 72
    65
 73
     6
 40
88.89999999999999
 49
25.4
 49
-12.7
 49
25.4
 49
-12.7
 49
0.0
 49
-12.7
  0
LTYPE
  2
BORDER2
 70
     0
  3
Border (.5x) __.__.__.__.__.__.__.__.__.__.__.
 72
    65
 73
     6
 40
22.225
 49
6.35
 49
-3.175
 49
6.35
 49
-3.175
 49
0.0
 49
-3.175
  0
LTYPE
  2
CENTER2
 70
     0
  3
Center (.5x) ___ _ ___ _ ___ _ ___ _ ___ _ ___
 72
    65
 73
     4
 40
28.575
 49
19.05
 49
-3.175
 49
3.175
 49
-3.175
  0
LTYPE
  2
CENTER
 70
     0
  3
Center ____ _ ____ _ ____ _ ____ _ ____ _ ____
 72
    65
 73
     4
 40
50.8
 49
31.75
 49
-6.35
 49
6.35
 49
-6.35
  0
LTYPE
  2
ACAD_ISO07W100
 70
     0
  3
ISO dot . . . . . . . . . . . . . . . . . . . . 
 72
    65
 73
     2
 40
3.0
 49
0.0
 49
-3.0
  0
LTYPE
  2
ACAD_ISO06W100
 70
     0
  3
ISO long-dash triple-dot ____ ... ____ ... ____
 72
    65
 73
     8
 40
36.0
 49
24.0
 49
-3.0
 49
0.0
 49
-3.0
 49
0.0
 49
-3.0
 49
0.0
 49
-3.0
  0
LTYPE
  2
ACAD_ISO09W100
 70
     0
  3
ISO long-dash double-short-dash ____ __ __ ____
 72
    65
 73
     6
 40
45.0
 49
24.0
 49
-3.0
 49
6.0
 49
-3.0
 49
6.0
 49
-3.0
  0
LTYPE
  2
ACAD_ISO08W100
 70
     0
  3
ISO long-dash short-dash ____ __ ____ __ ____ _
 72
    65
 73
     4
 40
36.0
 49
24.0
 49
-3.0
 49
6.0
 49
-3.0
  0
LTYPE
  2
ACAD_ISO03W100
 70
     0
  3
ISO dash space __    __    __    __    __    __
 72
    65
 73
     2
 40
30.0
 49
12.0
 49
-18.0
  0
LTYPE
  2
ACAD_ISO02W100
 70
     0
  3
ISO dash __ __ __ __ __ __ __ __ __ __ __ __ __
 72
    65
 73
     2
 40
15.0
 49
12.0
 49
-3.0
  0
LTYPE
  2
ACAD_ISO05W100
 70
     0
  3
ISO long-dash double-dot ____ .. ____ .. ____ . 
 72
    65
 73
     6
 40
33.0
 49
24.0
 49
-3.0
 49
0.0
 49
-3.0
 49
0.0
 49
-3.0
  0
LTYPE
  2
ACAD_ISO04W100
 70
     0
  3
ISO long-dash dot ____ . ____ . ____ . ____ . _
 72
    65
 73
     4
 40
30.0
 49
24.0
 49
-3.0
 49
0.0
 49
-3.0
  0
LTYPE
  2
HOT_WATER_SUPPLY
 70
     0
  3
Hot water supply ---- HW ---- HW ---- HW ----
 72
    65
 73
     3
 40
22.86
 49
12.7
 49
-5.08
 49
-5.08
  0
LTYPE
  2
HIDDENX2
 70
     0
  3
Hidden (2x) ____ ____ ____ ____ ____ ____ ____ 
 72
    65
 73
     2
 40
19.05
 49
12.7
 49
-6.35
  0
LTYPE
  2
PHANTOM2
 70
     0
  3
Phantom (.5x) ___ _ _ ___ _ _ ___ _ _ ___ _ _
 72
    65
 73
     6
 40
31.75
 49
15.875
 49
-3.175
 49
3.175
 49
-3.175
 49
3.175
 49
-3.175
  0
LTYPE
  2
PHANTOM
 70
     0
  3
Phantom ______  __  __  ______  __  __  ______ 
 72
    65
 73
     6
 40
63.50000000000001
 49
31.75
 49
-6.35
 49
6.35
 49
-6.35
 49
6.35
 49
-6.35
  0
LTYPE
  2
GAS_LINE
 70
     0
  3
Gas line ----GAS----GAS----GAS----GAS----GAS----GAS--
 72
    65
 73
     3
 40
24.13
 49
12.7
 49
-5.08
 49
-6.35
  0
LTYPE
  2
FENCELINE2
 70
     0
  3
Fenceline square ----[]-----[]----[]-----[]----[]---
 72
    65
 73
     4
 40
36.83
 49
6.35
 49
-2.54
 49
-2.54
 49
25.4
  0
LTYPE
  2
HIDDEN2
 70
     0
  3
Hidden (.5x) _ _ _ _ _ _ _ _ _ _ _ _ _ _ _ _ _ 
 72
    65
 73
     2
 40
4.762499999999999
 49
3.175
 49
-1.5875
  0
LTYPE
  2
HIDDEN
 70
     0
  3
Hidden __ __ __ __ __ __ __ __ __ __ __ __ __ __
 72
    65
 73
     2
 40
9.524999999999999
 49
6.35
 49
-3.175
  0
LTYPE
  2
TRACKS
 70
     0
  3
Tracks -|-|-|-|-|-|-|-|-|-|-|-|-|-|-|-|-|-|-|-|-|-|-|-|-
 72
    65
 73
     2
 40
7.62
 49
3.81
 49
3.81
  0
LTYPE
  2
PHANTOMX2
 70
     0
  3
Phantom (2x) ____________    ____    ____   _
 72
    65
 73
     6
 40
127.0
 49
63.5
 49
-12.7
 49
12.7
 49
-12.7
 49
12.7
 49
-12.7
  0
LTYPE
  2
ZIGZAG
 70
     0
  3
Zig zag /\/\/\/\/\/\/\/\/\/\/\/\/\/\/\/\/\/\/\/\/\/\/\/
 72
    65
 73
     4
 40
20.32254
 49
0.00254
 49
-5.08
 49
-10.16
 49
-5.08
  0
LTYPE
  2
DASHED2
 70
     0
  3
Dashed (.5x) _ _ _ _ _ _ _ _ _ _ _ _ _ _ _ _ _ 
 72
    65
 73
     2
 40
9.524999999999999
 49
6.35
 49
-3.175
  0
LTYPE
  2
DASHED
 70
     0
  3
Dashed __ __ __ __ __ __ __ __ __ __ __ __ __ _
 72
    65
 73
     2
 40
19.05
 49
12.7
 49
-6.35
  0
LTYPE
  2
DIVIDE
 70
     0
  3
Divide ____ . . ____ . . ____ . . ____ . . ____
 72
    65
 73
     6
 40
31.75
 49
12.7
 49
-6.35
 49
0.0
 49
-6.35
 49
0.0
 49
-6.35
  0
LTYPE
  2
DASHEDX2
 70
     0
  3
Dashed (2x) ____  ____  ____  ____  ____  ___
 72
    65
 73
     2
 40
38.09999999999999
 49
25.4
 49
-12.7
  0
LTYPE
  2
DASHDOT
 70
     0
  3
Dash dot __ . __ . __ . __ . __ . __ . __ . __
 72
    65
 73
     4
 40
25.4
 49
12.7
 49
-6.35
 49
0.0
 49
-6.35
  0
LTYPE
  2
CUTRIGHT2
 70
     0
  3
G42 reversed----\----\----\----
 72
    65
 73
     2
 40
10.16
 49
5.08
 49
5.08
  0
LTYPE
  2
DASHDOTX2
 70
     0
  3
Dash dot (2x) ____  .  ____  .  ____  .  ___
 72
    65
 73
     4
 40
50.8
 49
25.4
 49
-12.7
 49
0.0
 49
-12.7
  0
LTYPE
  2
DASHDOT2
 70
     0
  3
Dash dot (.5x) _._._._._._._._._._._._._._._.
 72
    65
 73
     4
 40
12.7
 49
6.35
 49
-3.175
 49
0.0
 49
-3.175
  0
LTYPE
  2
DRAINAGE
 70
     0
  3
Drainage ---->---->---->----
 72
    65
 73
     2
 40
10.16
 49
5.08
 49
5.08
  0
LTYPE
  2
DOTX2
 70
     0
  3
Dot (2x) .  .  .  .  .  .  .  .  .  .  .  .  .  .
 72
    65
 73
     2
 40
12.7
 49
0.0
 49
-12.7
  0
LTYPE
  2
FENCELINE1
 70
     0
  3
Fenceline circle ----0-----0----0-----0----0-----0--
 72
    65
 73
     4
 40
36.83
 49
6.35
 49
-2.54
 49
-2.54
 49
25.4
  0
LTYPE
  2
DRAINAGE2
 70
     0
  3
Drainage reversed----<----<----<----
 72
    65
 73
     2
 40
10.16
 49
5.08
 49
5.08
  0
LTYPE
  2
DIVIDEX2
 70
     0
  3
Divide (2x) ________  .  .  ________  .  .  _
 72
    65
 73
     6
 40
63.5
 49
25.4
 49
-12.7
 49
0.0
 49
-12.7
 49
0.0
 49
-12.7
  0
LTYPE
  2
DIVIDE2
 70
     0
  3
Divide (.5x) __..__..__..__..__..__..__..__.._
 72
    65
 73
     6
 40
15.875
 49
6.35
 49
-3.175
 49
0.0
 49
-3.175
 49
0.0
 49
-3.175
  0
LTYPE
  2
DOT2
 70
     0
  3
Dot (.5x) ........................................
 72
    65
 73
     2
 40
3.175
 49
0.0
 49
-3.175
  0
LTYPE
  2
DOT
 70
     0
  3
Dot . . . . . . . . . . . . . . . . . . . . . . . .
 72
    65
 73
     2
 40
6.35
 49
0.0
 49
-6.35
  0
ENDTAB
  0
TABLE
  2
LAYER
 70
     1
  0
LAYER
  2
0
 70
     0
 62
     7
  6
CONTINUOUS
  0
ENDTAB
  0
TABLE
  2
STYLE
 70
    16
  0
STYLE
  2
STANDARD
 70
     0
 40
0.0
 41
1.0
 50
0.0
 71
     0
 42
0.2
  3
txt
  4

  0
STYLE
  2
TEXTSTYLE0
 70
     0
 40
0.0
 41
1.0
 50
0.0
 71
     0
 42
0.2
  3
ltypeshp.shx
  4

  0
STYLE
  2
TEXTSTYLE1
 70
     0
 40
0.0
 41
1.0
 50
0.0
 71
     0
 42
0.2
  3
ltypeshp.shx
  4

  0
STYLE
  2
TEXTSTYLE2
 70
     0
 40
0.0
 41
1.0
 50
0.0
 71
     0
 42
0.2
  3
qcadshp.shx
  4

  0
STYLE
  2
TEXTSTYLE3
 70
     0
 40
0.0
 41
1.0
 50
0.0
 71
     0
 42
0.2
  3
qcadshp.shx
  4

  0
STYLE
  2
TEXTSTYLE4
 70
     0
 40
0.0
 41
1.0
 50
0.0
 71
     0
 42
0.2
  3
qcadshp.shx
  4

  0
STYLE
  2
TEXTSTYLE5
 70
     0
 40
0.0
 41
1.0
 50
0.0
 71
     0
 42
0.2
  3
STANDARD
  4

  0
STYLE
  2
TEXTSTYLE6
 70
     0
 40
0.0
 41
1.0
 50
0.0
 71
     0
 42
0.2
  3
STANDARD
  4

  0
STYLE
  2
TEXTSTYLE7
 70
     0
 40
0.0
 41
1.0
 50
0.0
 71
     0
 42
0.2
  3
ltypeshp.shx
  4

  0
STYLE
  2
TEXTSTYLE8
 70
     0
 40
0.0
 41
1.0
 50
0.0
 71
     0
 42
0.2
  3
ltypeshp.shx
  4

  0
STYLE
  2
TEXTSTYLE9
 70
     0
 40
0.0
 41
1.0
 50
0.0
 71
     0
 42
0.2
  3
ltypeshp.shx
  4

  0
STYLE
  2
TEXTSTYLE10
 70
     0
 40
0.0
 41
1.0
 50
0.0
 71
     0
 42
0.2
  3
ltypeshp.shx
  4

  0
STYLE
  2
TEXTSTYLE11
 70
     0
 40
0.0
 41
1.0
 50
0.0
 71
     0
 42
0.2
  3
qcadshp.shx
  4

  0
STYLE
  2
TEXTSTYLE12
 70
     0
 40
0.0
 41
1.0
 50
0.0
 71
     0
 42
0.2
  3
qcadshp.shx
  4

  0
STYLE
  2
TEXTSTYLE13
 70
     0
 40
0.0
 41
1.0
 50
0.0
 71
     0
 42
0.2
  3
ltypeshp.shx
  4

  0
STYLE
  2
TEXTSTYLE14
 70
     0
 40
0.0
 41
1.0
 50
0.0
 71
     0
 42
0.2
  3
qcadshp.shx
  4

  0
ENDTAB
  0
TABLE
  2
VIEW
 70
     0
  0
ENDTAB
  0
TABLE
  2
UCS
 70
     0
  0
ENDTAB
  0
ENDSEC
  0
SECTION
  2
BLOCKS
  0
ENDSEC
  0
SECTION
  2
ENTITIES
  0
LINE
  5
519
  8
0
 62
    18
 10
48.283415
 20
-67.19020999999998
 30
0.0
 11
263.77465
 21
-71.8748
 31
0.0
  0
LINE
  5
51A
  8
0
 62
    18
 10
263.77465
 20
-71.8748
 30
0.0
 11
261.76697
 21
-201.70492
 31
0.0
  0
LINE
  5
51B
  8
0
 62
    18
 10
261.76697
 20
-201.70492
 30
0.0
 11
50.2911
 21
-200.36647
 31
0.0
  0
LINE
  5
51C
  8
0
 62
    18
 10
50.2911
 20
-200.36647
 30
0.0
 11
48.283415
 21
-67.19020999999998
 31
0.0
  0
LINE
  5
51D
  8
0
 62
    18
 10
158.03671
 20
-201.70492
 30
0.0
 11
157.50628
 21
-279.0003600000001
 31
0.0
  0
LINE
  5
51E
  8
0
 62
    18
 10
156.84278
 20
-305.43302
 30
0.0
 11
155.35981
 21
-437.27298
 31
0.0
  0
LINE
  5
51F
  8
0
 62
    18
 10
155.35981
 20
-437.27298
 30
0.0
 11
164.72899
 21
-438.61143
 31
0.0
  0
LINE
  5
520
  8
0
 62
    18
 10
164.72899
 20
-438.61143
 30
0.0
 11
166.86712
 21
-298.07316
 31
0.0
  0
LINE
  5
521
  8
0
 62
    18
 10
166.87512
 20
-288.2045199999999
 30
0.0
 11
168.0756
 21
-201.70492
 31
0.0
  0
POLYLINE
  5
522
  8
0
 62
    18
 66
     1
 10
0.0
 20
0.0
 30
0.0
  0
VERTEX
  5
680
  8
0
 62
    18
 10
251.55389
 20
-243.65421
 30
0.0
  0
VERTEX
  5
681
  8
0
 62
    18
 10
251.2516433138021
 20
-246.3012638751447
 30
0.0
  0
VERTEX
  5
682
  8
0
 62
    18
 10
251.0597227604167
 20
-248.9339937094907
 30
0.0
  0
VERTEX
  5
683
  8
0
 62
    18
 10
250.9771825976563
 20
-251.5476005664062
 30
0.0
  0
VERTEX
  5
684
  8
0
 62
    18
 10
251.0030770833333
 20
-254.1372855092592
 30
0.0
  0
VERTEX
  5
685
  8
0
 62
    18
 10
251.1364604752604
 20
-256.6982496014178
 30
0.0
  0
VERTEX
  5
686
  8
0
 62
    18
 10
251.37638703125
 20
-259.2256939062499
 30
0.0
  0
VERTEX
  5
687
  8
0
 62
    18
 10
251.7219110091146
 20
-261.7148194871238
 30
0.0
  0
VERTEX
  5
688
  8
0
 62
    18
 10
252.1720866666667
 20
-264.1608274074074
 30
0.0
  0
VERTEX
  5
689
  8
0
 62
    18
 10
252.7259682617187
 20
-266.5589187304687
 30
0.0
  0
VERTEX
  5
68A
  8
0
 62
    18
 10
253.3826100520833
 20
-268.9042945196759
 30
0.0
  0
VERTEX
  5
68B
  8
0
 62
    18
 10
254.1410662955729
 20
-271.192155838397
 30
0.0
  0
VERTEX
  5
68C
  8
0
 62
    18
 10
255.00039125
 20
-273.41770375
 30
0.0
  0
VERTEX
  5
68D
  8
0
 62
    18
 10
255.9596391731771
 20
-275.5761393178529
 30
0.0
  0
VERTEX
  5
68E
  8
0
 62
    18
 10
257.0178643229166
 20
-277.662663605324
 30
0.0
  0
VERTEX
  5
68F
  8
0
 62
    18
 10
258.1741209570312
 20
-279.6724776757812
 30
0.0
  0
VERTEX
  5
690
  8
0
 62
    18
 10
259.4274633333333
 20
-281.6007825925926
 30
0.0
  0
VERTEX
  5
691
  8
0
 62
    18
 10
260.7769457096354
 20
-283.4427794191261
 30
0.0
  0
VERTEX
  5
692
  8
0
 62
    18
 10
262.22162234375
 20
-285.19366921875
 30
0.0
  0
VERTEX
  5
693
  8
0
 62
    18
 10
263.7605474934895
 20
-286.8486530548321
 30
0.0
  0
VERTEX
  5
694
  8
0
 62
    18
 10
265.3927754166666
 20
-288.4029319907407
 30
0.0
  0
VERTEX
  5
695
  8
0
 62
    18
 10
267.1173603710938
 20
-289.8517070898437
 30
0.0
  0
VERTEX
  5
696
  8
0
 62
    18
 10
268.9333566145833
 20
-291.1901794155092
 30
0.0
  0
VERTEX
  5
697
  8
0
 62
    18
 10
270.8398184049479
 20
-292.4135500311053
 30
0.0
  0
VERTEX
  5
698
  8
0
 62
    18
 10
272.8358
 20
-293.5170199999999
 30
0.0
  0
SEQEND
  5
AF5
  8
0
 62
    18
  0
POLYLINE
  5
523
  8
0
 62
    18
 66
     1
 10
0.0
 20
0.0
 30
0.0
  0
VERTEX
  5
699
  8
0
 62
    18
 10
272.8358
 20
-293.5170199999999
 30
0.0
  0
VERTEX
  5
69A
  8
0
 62
    18
 10
275.705609212963
 20
-294.9011670283564
 30
0.0
  0
VERTEX
  5
69B
  8
0
 62
    18
 10
278.7437343287037
 20
-296.2103472685185
 30
0.0
  0
VERTEX
  5
69C
  8
0
 62
    18
 10
281.9336415625
 20
-297.438604453125
 30
0.0
  0
VERTEX
  5
69D
  8
0
 62
    18
 10
285.2587971296297
 20
-298.5799823148148
 30
0.0
  0
VERTEX
  5
69E
  8
0
 62
    18
 10
288.7026672453704
 20
-299.6285245862268
 30
0.0
  0
VERTEX
  5
69F
  8
0
 62
    18
 10
292.248718125
 20
-300.578275
 30
0.0
  0
VERTEX
  5
6A0
  8
0
 62
    18
 10
295.8804159837963
 20
-301.4232772887731
 30
0.0
  0
VERTEX
  5
6A1
  8
0
 62
    18
 10
299.5812270370371
 20
-302.1575751851852
 30
0.0
  0
VERTEX
  5
6A2
  8
0
 62
    18
 10
303.3346175
 20
-302.775212421875
 30
0.0
  0
VERTEX
  5
6A3
  8
0
 62
    18
 10
307.124053587963
 20
-303.2702327314814
 30
0.0
  0
VERTEX
  5
6A4
  8
0
 62
    18
 10
310.9330015162037
 20
-303.6366798466435
 30
0.0
  0
VERTEX
  5
6A5
  8
0
 62
    18
 10
314.7449275
 20
-303.8685974999999
 30
0.0
  0
VERTEX
  5
6A6
  8
0
 62
    18
 10
318.5432977546296
 20
-303.9600294241897
 30
0.0
  0
VERTEX
  5
6A7
  8
0
 62
    18
 10
322.3115784953704
 20
-303.9050193518518
 30
0.0
  0
VERTEX
  5
6A8
  8
0
 62
    18
 10
326.0332359375
 20
-303.6976110156249
 30
0.0
  0
VERTEX
  5
6A9
  8
0
 62
    18
 10
329.6917362962963
 20
-303.3318481481481
 30
0.0
  0
VERTEX
  5
6AA
  8
0
 62
    18
 10
333.270545787037
 20
-302.8017744820601
 30
0.0
  0
VERTEX
  5
6AB
  8
0
 62
    18
 10
336.753130625
 20
-302.10143375
 30
0.0
  0
VERTEX
  5
6AC
  8
0
 62
    18
 10
340.1229570254629
 20
-301.2248696846064
 30
0.0
  0
VERTEX
  5
6AD
  8
0
 62
    18
 10
343.3634912037037
 20
-300.1661260185184
 30
0.0
  0
VERTEX
  5
6AE
  8
0
 62
    18
 10
346.458199375
 20
-298.919246484375
 30
0.0
  0
VERTEX
  5
6AF
  8
0
 62
    18
 10
349.3905477546297
 20
-297.4782748148148
 30
0.0
  0
VERTEX
  5
6B0
  8
0
 62
    18
 10
352.1440025578704
 20
-295.8372547424768
 30
0.0
  0
VERTEX
  5
6B1
  8
0
 62
    18
 10
354.70203
 20
-293.9902299999999
 30
0.0
  0
SEQEND
  5
AF6
  8
0
 62
    18
  0
POLYLINE
  5
524
  8
0
 62
    18
 66
     1
 10
0.0
 20
0.0
 30
0.0
  0
VERTEX
  5
6B2
  8
0
 62
    18
 10
354.70203
 20
-293.9902299999999
 30
0.0
  0
VERTEX
  5
6B3
  8
0
 62
    18
 10
357.1414740364584
 20
-291.9714049891493
 30
0.0
  0
VERTEX
  5
6B4
  8
0
 62
    18
 10
359.4098775000001
 20
-289.9322774131944
 30
0.0
  0
VERTEX
  5
6B5
  8
0
 62
    18
 10
361.510756171875
 20
-287.8726672070312
 30
0.0
  0
VERTEX
  5
6B6
  8
0
 62
    18
 10
363.4476258333334
 20
-285.7923943055555
 30
0.0
  0
VERTEX
  5
6B7
  8
0
 62
    18
 10
365.2240022656251
 20
-283.6912786436632
 30
0.0
  0
VERTEX
  5
6B8
  8
0
 62
    18
 10
366.8434012500001
 20
-281.5691401562499
 30
0.0
  0
VERTEX
  5
6B9
  8
0
 62
    18
 10
368.3093385677083
 20
-279.4257987782117
 30
0.0
  0
VERTEX
  5
6BA
  8
0
 62
    18
 10
369.62533
 20
-277.2610744444444
 30
0.0
  0
VERTEX
  5
6BB
  8
0
 62
    18
 10
370.794891328125
 20
-275.0747870898437
 30
0.0
  0
VERTEX
  5
6BC
  8
0
 62
    18
 10
371.8215383333334
 20
-272.8667566493055
 30
0.0
  0
VERTEX
  5
6BD
  8
0
 62
    18
 10
372.708786796875
 20
-270.6368030577256
 30
0.0
  0
VERTEX
  5
6BE
  8
0
 62
    18
 10
373.4601525
 20
-268.3847462499999
 30
0.0
  0
VERTEX
  5
6BF
  8
0
 62
    18
 10
374.0791512239584
 20
-266.1104061610242
 30
0.0
  0
VERTEX
  5
6C0
  8
0
 62
    18
 10
374.56929875
 20
-263.8136027256944
 30
0.0
  0
VERTEX
  5
6C1
  8
0
 62
    18
 10
374.934110859375
 20
-261.4941558789062
 30
0.0
  0
VERTEX
  5
6C2
  8
0
 62
    18
 10
375.1771033333334
 20
-259.1518855555555
 30
0.0
  0
VERTEX
  5
6C3
  8
0
 62
    18
 10
375.3017919531251
 20
-256.7866116905382
 30
0.0
  0
VERTEX
  5
6C4
  8
0
 62
    18
 10
375.3116925
 20
-254.3981542187499
 30
0.0
  0
VERTEX
  5
6C5
  8
0
 62
    18
 10
375.2103207552084
 20
-251.9863330750867
 30
0.0
  0
VERTEX
  5
6C6
  8
0
 62
    18
 10
375.0011925
 20
-249.5509681944444
 30
0.0
  0
VERTEX
  5
6C7
  8
0
 62
    18
 10
374.687823515625
 20
-247.0918795117187
 30
0.0
  0
VERTEX
  5
6C8
  8
0
 62
    18
 10
374.2737295833334
 20
-244.6088869618055
 30
0.0
  0
VERTEX
  5
6C9
  8
0
 62
    18
 10
373.762426484375
 20
-242.1018104796006
 30
0.0
  0
VERTEX
  5
6CA
  8
0
 62
    18
 10
373.15743
 20
-239.5704699999999
 30
0.0
  0
SEQEND
  5
AF7
  8
0
 62
    18
  0
POLYLINE
  5
525
  8
0
 62
    18
 66
     1
 10
0.0
 20
0.0
 30
0.0
  0
VERTEX
  5
6CB
  8
0
 62
    18
 10
373.15743
 20
-239.5704699999999
 30
0.0
  0
VERTEX
  5
6CC
  8
0
 62
    18
 10
372.9659094531251
 20
-238.88230328125
 30
0.0
  0
VERTEX
  5
6CD
  8
0
 62
    18
 10
372.7445297916667
 20
-238.1949758333333
 30
0.0
  0
VERTEX
  5
6CE
  8
0
 62
    18
 10
372.494767734375
 20
-237.5090767187499
 30
0.0
  0
VERTEX
  5
6CF
  8
0
 62
    18
 10
372.2181000000001
 20
-236.825195
 30
0.0
  0
VERTEX
  5
6D0
  8
0
 62
    18
 10
371.9160033072917
 20
-236.1439197395833
 30
0.0
  0
VERTEX
  5
6D1
  8
0
 62
    18
 10
371.589954375
 20
-235.46584
 30
0.0
  0
VERTEX
  5
6D2
  8
0
 62
    18
 10
371.2414299218751
 20
-234.79154484375
 30
0.0
  0
VERTEX
  5
6D3
  8
0
 62
    18
 10
370.8719066666667
 20
-234.1216233333333
 30
0.0
  0
VERTEX
  5
6D4
  8
0
 62
    18
 10
370.4828613281251
 20
-233.4566645312499
 30
0.0
  0
VERTEX
  5
6D5
  8
0
 62
    18
 10
370.075770625
 20
-232.7972574999999
 30
0.0
  0
VERTEX
  5
6D6
  8
0
 62
    18
 10
369.6521112760417
 20
-232.1439913020833
 30
0.0
  0
VERTEX
  5
6D7
  8
0
 62
    18
 10
369.21336
 20
-231.4974549999999
 30
0.0
  0
VERTEX
  5
6D8
  8
0
 62
    18
 10
368.760993515625
 20
-230.85823765625
 30
0.0
  0
VERTEX
  5
6D9
  8
0
 62
    18
 10
368.2964885416667
 20
-230.2269283333333
 30
0.0
  0
VERTEX
  5
6DA
  8
0
 62
    18
 10
367.8213217968751
 20
-229.60411609375
 30
0.0
  0
VERTEX
  5
6DB
  8
0
 62
    18
 10
367.33697
 20
-228.99039
 30
0.0
  0
VERTEX
  5
6DC
  8
0
 62
    18
 10
366.8449098697918
 20
-228.3863391145833
 30
0.0
  0
VERTEX
  5
6DD
  8
0
 62
    18
 10
366.346618125
 20
-227.7925524999999
 30
0.0
  0
VERTEX
  5
6DE
  8
0
 62
    18
 10
365.843571484375
 20
-227.2096192187499
 30
0.0
  0
VERTEX
  5
6DF
  8
0
 62
    18
 10
365.3372466666667
 20
-226.6381283333333
 30
0.0
  0
VERTEX
  5
6E0
  8
0
 62
    18
 10
364.829120390625
 20
-226.07866890625
 30
0.0
  0
VERTEX
  5
6E1
  8
0
 62
    18
 10
364.3206693750001
 20
-225.53183
 30
0.0
  0
VERTEX
  5
6E2
  8
0
 62
    18
 10
363.8133703385417
 20
-224.9982006770833
 30
0.0
  0
VERTEX
  5
6E3
  8
0
 62
    18
 10
363.3087
 20
-224.47837
 30
0.0
  0
SEQEND
  5
AF8
  8
0
 62
    18
  0
POLYLINE
  5
526
  8
0
 62
    18
 66
     1
 10
0.0
 20
0.0
 30
0.0
  0
VERTEX
  5
6E4
  8
0
 62
    18
 10
308.6314
 20
-197.71222
 30
0.0
  0
VERTEX
  5
6E5
  8
0
 62
    18
 10
306.1144545160591
 20
-197.4417696346933
 30
0.0
  0
VERTEX
  5
6E6
  8
0
 62
    18
 10
303.6053865451389
 20
-197.2753797858796
 30
0.0
  0
VERTEX
  5
6E7
  8
0
 62
    18
 10
301.1087350585938
 20
-197.2129285742188
 30
0.0
  0
VERTEX
  5
6E8
  8
0
 62
    18
 10
298.6290390277779
 20
-197.2542941203704
 30
0.0
  0
VERTEX
  5
6E9
  8
0
 62
    18
 10
296.1708374240453
 20
-197.3993545449942
 30
0.0
  0
VERTEX
  5
6EA
  8
0
 62
    18
 10
293.73866921875
 20
-197.64798796875
 30
0.0
  0
VERTEX
  5
6EB
  8
0
 62
    18
 10
291.3370733832465
 20
-198.0000725122974
 30
0.0
  0
VERTEX
  5
6EC
  8
0
 62
    18
 10
288.970588888889
 20
-198.4554862962963
 30
0.0
  0
VERTEX
  5
6ED
  8
0
 62
    18
 10
286.6437547070313
 20
-199.0141074414063
 30
0.0
  0
VERTEX
  5
6EE
  8
0
 62
    18
 10
284.3611098090279
 20
-199.675814068287
 30
0.0
  0
VERTEX
  5
6EF
  8
0
 62
    18
 10
282.1271931662327
 20
-200.4404842975984
 30
0.0
  0
VERTEX
  5
6F0
  8
0
 62
    18
 10
279.94654375
 20
-201.30799625
 30
0.0
  0
VERTEX
  5
6F1
  8
0
 62
    18
 10
277.8237005316841
 20
-202.2782280461516
 30
0.0
  0
VERTEX
  5
6F2
  8
0
 62
    18
 10
275.763202482639
 20
-203.351057806713
 30
0.0
  0
VERTEX
  5
6F3
  8
0
 62
    18
 10
273.7695885742188
 20
-204.5263636523437
 30
0.0
  0
VERTEX
  5
6F4
  8
0
 62
    18
 10
271.8473977777778
 20
-205.8040237037037
 30
0.0
  0
VERTEX
  5
6F5
  8
0
 62
    18
 10
270.0011690646702
 20
-207.1839160814526
 30
0.0
  0
VERTEX
  5
6F6
  8
0
 62
    18
 10
268.2354414062501
 20
-208.66591890625
 30
0.0
  0
VERTEX
  5
6F7
  8
0
 62
    18
 10
266.5547537738715
 20
-210.2499102987558
 30
0.0
  0
VERTEX
  5
6F8
  8
0
 62
    18
 10
264.963645138889
 20
-211.9357683796296
 30
0.0
  0
VERTEX
  5
6F9
  8
0
 62
    18
 10
263.4666544726563
 20
-213.7233712695312
 30
0.0
  0
VERTEX
  5
6FA
  8
0
 62
    18
 10
262.0683207465278
 20
-215.6125970891204
 30
0.0
  0
VERTEX
  5
6FB
  8
0
 62
    18
 10
260.7731829318577
 20
-217.6033239590567
 30
0.0
  0
VERTEX
  5
6FC
  8
0
 62
    18
 10
259.5857800000001
 20
-219.69543
 30
0.0
  0
SEQEND
  5
AF9
  8
0
 62
    18
  0
ARC
  5
527
  8
0
 62
    18
 10
299.5374322485717
 20
-244.8939671638695
 30
0.0
 40
47.23452966411023
 50
147.7593130118815
 51
163.0015637094362
  0
POLYLINE
  5
528
  8
0
 62
    18
 66
     1
 10
0.0
 20
0.0
 30
0.0
  0
VERTEX
  5
6FD
  8
0
 62
    18
 10
263.3715
 20
-285.94557
 30
0.0
  0
VERTEX
  5
6FE
  8
0
 62
    18
 10
262.6484966601563
 20
-287.1159419545718
 30
0.0
  0
VERTEX
  5
6FF
  8
0
 62
    18
 10
262.0140159895834
 20
-288.2596135532408
 30
0.0
  0
VERTEX
  5
700
  8
0
 62
    18
 10
261.4629232617187
 20
-289.3745308984376
 30
0.0
  0
VERTEX
  5
701
  8
0
 62
    18
 10
260.9900837500001
 20
-290.4586400925926
 30
0.0
  0
VERTEX
  5
702
  8
0
 62
    18
 10
260.5903627278646
 20
-291.5098872381366
 30
0.0
  0
VERTEX
  5
703
  8
0
 62
    18
 10
260.25862546875
 20
-292.5262184375
 30
0.0
  0
VERTEX
  5
704
  8
0
 62
    18
 10
259.9897372460937
 20
-293.5055797931135
 30
0.0
  0
VERTEX
  5
705
  8
0
 62
    18
 10
259.7785633333334
 20
-294.4459174074075
 30
0.0
  0
VERTEX
  5
706
  8
0
 62
    18
 10
259.6199690039062
 20
-295.3451773828125
 30
0.0
  0
VERTEX
  5
707
  8
0
 62
    18
 10
259.50881953125
 20
-296.2013058217593
 30
0.0
  0
VERTEX
  5
708
  8
0
 62
    18
 10
259.4399801888021
 20
-297.0122488266783
 30
0.0
  0
VERTEX
  5
709
  8
0
 62
    18
 10
259.40831625
 20
-297.7759525000001
 30
0.0
  0
VERTEX
  5
70A
  8
0
 62
    18
 10
259.4086929882813
 20
-298.4903629441552
 30
0.0
  0
VERTEX
  5
70B
  8
0
 62
    18
 10
259.4359756770834
 20
-299.1534262615741
 30
0.0
  0
VERTEX
  5
70C
  8
0
 62
    18
 10
259.4850295898438
 20
-299.7630885546876
 30
0.0
  0
VERTEX
  5
70D
  8
0
 62
    18
 10
259.5507200000001
 20
-300.317295925926
 30
0.0
  0
VERTEX
  5
70E
  8
0
 62
    18
 10
259.6279121809896
 20
-300.8139944777199
 30
0.0
  0
VERTEX
  5
70F
  8
0
 62
    18
 10
259.71147140625
 20
-301.2511303125
 30
0.0
  0
VERTEX
  5
710
  8
0
 62
    18
 10
259.7962629492188
 20
-301.6266495326968
 30
0.0
  0
VERTEX
  5
711
  8
0
 62
    18
 10
259.8771520833334
 20
-301.9384982407408
 30
0.0
  0
VERTEX
  5
712
  8
0
 62
    18
 10
259.9490040820313
 20
-302.1846225390626
 30
0.0
  0
VERTEX
  5
713
  8
0
 62
    18
 10
260.0066842187501
 20
-302.3629685300926
 30
0.0
  0
VERTEX
  5
714
  8
0
 62
    18
 10
260.0450577669271
 20
-302.4714823162616
 30
0.0
  0
VERTEX
  5
715
  8
0
 62
    18
 10
260.0589900000001
 20
-302.50811
 30
0.0
  0
SEQEND
  5
AFA
  8
0
 62
    18
  0
ARC
  5
529
  8
0
 62
    18
 10
297.1195609459619
 20
-243.8208806250896
 30
0.0
 40
69.4094864593022
 50
237.7278785602635
 51
252.6237502915248
  0
ARC
  5
52A
  8
0
 62
    18
 10
321.8676453904112
 20
-223.9650837755801
 30
0.0
 40
95.47012433650093
 50
257.5151347337647
 51
264.9912249826729
  0
POLYLINE
  5
52B
  8
0
 62
    18
 66
     1
 10
0.0
 20
0.0
 30
0.0
  0
VERTEX
  5
716
  8
0
 62
    18
 10
313.5323100000001
 20
-319.0706400000001
 30
0.0
  0
VERTEX
  5
717
  8
0
 62
    18
 10
317.3621909657119
 20
-319.3051256886575
 30
0.0
  0
VERTEX
  5
718
  8
0
 62
    18
 10
321.0429598090278
 20
-319.4233613425927
 30
0.0
  0
VERTEX
  5
719
  8
0
 62
    18
 10
324.5733841992188
 20
-319.4347948437501
 30
0.0
  0
VERTEX
  5
71A
  8
0
 62
    18
 10
327.9522318055556
 20
-319.3488740740742
 30
0.0
  0
VERTEX
  5
71B
  8
0
 62
    18
 10
331.1782702973091
 20
-319.1750469155094
 30
0.0
  0
VERTEX
  5
71C
  8
0
 62
    18
 10
334.2502673437501
 20
-318.9227612500001
 30
0.0
  0
VERTEX
  5
71D
  8
0
 62
    18
 10
337.1669906141494
 20
-318.6014649594908
 30
0.0
  0
VERTEX
  5
71E
  8
0
 62
    18
 10
339.9272077777778
 20
-318.220605925926
 30
0.0
  0
VERTEX
  5
71F
  8
0
 62
    18
 10
342.5296865039063
 20
-317.7896320312501
 30
0.0
  0
VERTEX
  5
720
  8
0
 62
    18
 10
344.9731944618056
 20
-317.3179911574075
 30
0.0
  0
VERTEX
  5
721
  8
0
 62
    18
 10
347.2564993207466
 20
-316.8151311863427
 30
0.0
  0
VERTEX
  5
722
  8
0
 62
    18
 10
349.37836875
 20
-316.2905000000001
 30
0.0
  0
VERTEX
  5
723
  8
0
 62
    18
 10
351.3375704188369
 20
-315.7535454803242
 30
0.0
  0
VERTEX
  5
724
  8
0
 62
    18
 10
353.1328719965279
 20
-315.2137155092593
 30
0.0
  0
VERTEX
  5
725
  8
0
 62
    18
 10
354.7630411523438
 20
-314.6804579687501
 30
0.0
  0
VERTEX
  5
726
  8
0
 62
    18
 10
356.2268455555557
 20
-314.1632207407408
 30
0.0
  0
VERTEX
  5
727
  8
0
 62
    18
 10
357.5230528754341
 20
-313.6714517071761
 30
0.0
  0
VERTEX
  5
728
  8
0
 62
    18
 10
358.6504307812501
 20
-313.2145987500001
 30
0.0
  0
VERTEX
  5
729
  8
0
 62
    18
 10
359.6077469422744
 20
-312.8021097511575
 30
0.0
  0
VERTEX
  5
72A
  8
0
 62
    18
 10
360.3937690277778
 20
-312.4434325925927
 30
0.0
  0
VERTEX
  5
72B
  8
0
 62
    18
 10
361.0072647070313
 20
-312.1480151562501
 30
0.0
  0
VERTEX
  5
72C
  8
0
 62
    18
 10
361.4470016493056
 20
-311.9253053240742
 30
0.0
  0
VERTEX
  5
72D
  8
0
 62
    18
 10
361.7117475238716
 20
-311.7847509780094
 30
0.0
  0
VERTEX
  5
72E
  8
0
 62
    18
 10
361.8002700000001
 20
-311.7358000000001
 30
0.0
  0
SEQEND
  5
AFB
  8
0
 62
    18
  0
POLYLINE
  5
52C
  8
0
 62
    18
 66
     1
 10
0.0
 20
0.0
 30
0.0
  0
VERTEX
  5
72F
  8
0
 62
    18
 10
361.8002700000001
 20
-311.7358000000001
 30
0.0
  0
VERTEX
  5
730
  8
0
 62
    18
 10
361.8131409968172
 20
-311.6586081213832
 30
0.0
  0
VERTEX
  5
731
  8
0
 62
    18
 10
361.8490154745371
 20
-311.433741846065
 30
0.0
  0
VERTEX
  5
732
  8
0
 62
    18
 10
361.9037856640626
 20
-311.0712652148438
 30
0.0
  0
VERTEX
  5
733
  8
0
 62
    18
 10
361.9733437962964
 20
-310.5812422685186
 30
0.0
  0
VERTEX
  5
734
  8
0
 62
    18
 10
362.0535821021413
 20
-309.9737370478878
 30
0.0
  0
VERTEX
  5
735
  8
0
 62
    18
 10
362.1403928125001
 20
-309.2588135937501
 30
0.0
  0
VERTEX
  5
736
  8
0
 62
    18
 10
362.2296681582756
 20
-308.446535946904
 30
0.0
  0
VERTEX
  5
737
  8
0
 62
    18
 10
362.3173003703705
 20
-307.5469681481483
 30
0.0
  0
VERTEX
  5
738
  8
0
 62
    18
 10
362.3991816796876
 20
-306.5701742382814
 30
0.0
  0
VERTEX
  5
739
  8
0
 62
    18
 10
362.4712043171298
 20
-305.5262182581019
 30
0.0
  0
VERTEX
  5
73A
  8
0
 62
    18
 10
362.5292605135996
 20
-304.4251642484087
 30
0.0
  0
VERTEX
  5
73B
  8
0
 62
    18
 10
362.5692425000001
 20
-303.2770762500001
 30
0.0
  0
VERTEX
  5
73C
  8
0
 62
    18
 10
362.5870425072339
 20
-302.0920183036749
 30
0.0
  0
VERTEX
  5
73D
  8
0
 62
    18
 10
362.5785527662038
 20
-300.8800544502316
 30
0.0
  0
VERTEX
  5
73E
  8
0
 62
    18
 10
362.5396655078126
 20
-299.6512487304689
 30
0.0
  0
VERTEX
  5
73F
  8
0
 62
    18
 10
362.466272962963
 20
-298.4156651851853
 30
0.0
  0
VERTEX
  5
740
  8
0
 62
    18
 10
362.3542673625579
 20
-297.1833678551795
 30
0.0
  0
VERTEX
  5
741
  8
0
 62
    18
 10
362.1995409375
 20
-295.9644207812501
 30
0.0
  0
VERTEX
  5
742
  8
0
 62
    18
 10
361.9979859186922
 20
-294.7688880041957
 30
0.0
  0
VERTEX
  5
743
  8
0
 62
    18
 10
361.7454945370371
 20
-293.6068335648149
 30
0.0
  0
VERTEX
  5
744
  8
0
 62
    18
 10
361.4379590234376
 20
-292.4883215039064
 30
0.0
  0
VERTEX
  5
745
  8
0
 62
    18
 10
361.0712716087964
 20
-291.4234158622687
 30
0.0
  0
VERTEX
  5
746
  8
0
 62
    18
 10
360.6413245240163
 20
-290.4221806807003
 30
0.0
  0
VERTEX
  5
747
  8
0
 62
    18
 10
360.1440100000001
 20
-289.4946800000001
 30
0.0
  0
SEQEND
  5
AFC
  8
0
 62
    18
  0
ARC
  5
52D
  8
0
 62
    18
 10
307.3699740371781
 20
-338.2078754173772
 30
0.0
 40
59.97850196958642
 50
143.1906494955313
 51
173.6852608999926
  0
POLYLINE
  5
52E
  8
0
 62
    18
 66
     1
 10
0.0
 20
0.0
 30
0.0
  0
VERTEX
  5
748
  8
0
 62
    18
 10
247.75538
 20
-331.61084
 30
0.0
  0
VERTEX
  5
749
  8
0
 62
    18
 10
247.6040429152199
 20
-331.7145954651332
 30
0.0
  0
VERTEX
  5
74A
  8
0
 62
    18
 10
247.1657781134259
 20
-332.0218910127315
 30
0.0
  0
VERTEX
  5
74B
  8
0
 62
    18
 10
246.4642052734375
 20
-332.5267703710937
 30
0.0
  0
VERTEX
  5
74C
  8
0
 62
    18
 10
245.5229440740741
 20
-333.2232772685185
 30
0.0
  0
VERTEX
  5
74D
  8
0
 62
    18
 10
244.3656141941551
 20
-334.1054554333045
 30
0.0
  0
VERTEX
  5
74E
  8
0
 62
    18
 10
243.0158353125
 20
-335.16734859375
 30
0.0
  0
VERTEX
  5
74F
  8
0
 62
    18
 10
241.4972271079282
 20
-336.4030004781539
 30
0.0
  0
VERTEX
  5
750
  8
0
 62
    18
 10
239.8334092592593
 20
-337.8064548148149
 30
0.0
  0
VERTEX
  5
751
  8
0
 62
    18
 10
238.0480014453125
 20
-339.3717553320312
 30
0.0
  0
VERTEX
  5
752
  8
0
 62
    18
 10
236.1646233449074
 20
-341.0929457581018
 30
0.0
  0
VERTEX
  5
753
  8
0
 62
    18
 10
234.2068946368634
 20
-342.9640698213252
 30
0.0
  0
VERTEX
  5
754
  8
0
 62
    18
 10
232.198435
 20
-344.97917125
 30
0.0
  0
VERTEX
  5
755
  8
0
 62
    18
 10
230.1628641131366
 20
-347.1322937724248
 30
0.0
  0
VERTEX
  5
756
  8
0
 62
    18
 10
228.1238016550926
 20
-349.4174811168982
 30
0.0
  0
VERTEX
  5
757
  8
0
 62
    18
 10
226.1048673046876
 20
-351.8287770117188
 30
0.0
  0
VERTEX
  5
758
  8
0
 62
    18
 10
224.1296807407408
 20
-354.3602251851852
 30
0.0
  0
VERTEX
  5
759
  8
0
 62
    18
 10
222.2218616420718
 20
-357.0058693655961
 30
0.0
  0
VERTEX
  5
75A
  8
0
 62
    18
 10
220.4050296875
 20
-359.75975328125
 30
0.0
  0
VERTEX
  5
75B
  8
0
 62
    18
 10
218.7028045558449
 20
-362.6159206604456
 30
0.0
  0
VERTEX
  5
75C
  8
0
 62
    18
 10
217.138805925926
 20
-365.5684152314815
 30
0.0
  0
VERTEX
  5
75D
  8
0
 62
    18
 10
215.7366534765625
 20
-368.6112807226563
 30
0.0
  0
VERTEX
  5
75E
  8
0
 62
    18
 10
214.5199668865741
 20
-371.7385608622685
 30
0.0
  0
VERTEX
  5
75F
  8
0
 62
    18
 10
213.5123658347801
 20
-374.9442993786169
 30
0.0
  0
VERTEX
  5
760
  8
0
 62
    18
 10
212.73747
 20
-378.22254
 30
0.0
  0
SEQEND
  5
AFD
  8
0
 62
    18
  0
POLYLINE
  5
52F
  8
0
 62
    18
 66
     1
 10
0.0
 20
0.0
 30
0.0
  0
VERTEX
  5
761
  8
0
 62
    18
 10
212.73747
 20
-378.22254
 30
0.0
  0
VERTEX
  5
762
  8
0
 62
    18
 10
212.1312653515625
 20
-381.5604814105903
 30
0.0
  0
VERTEX
  5
763
  8
0
 62
    18
 10
211.6144046875
 20
-384.9425812847223
 30
0.0
  0
VERTEX
  5
764
  8
0
 62
    18
 10
211.1875041796875
 20
-388.3587755859376
 30
0.0
  0
VERTEX
  5
765
  8
0
 62
    18
 10
210.85118
 20
-391.7990002777778
 30
0.0
  0
VERTEX
  5
766
  8
0
 62
    18
 10
210.6060483203125
 20
-395.2531913237848
 30
0.0
  0
VERTEX
  5
767
  8
0
 62
    18
 10
210.4527253125
 20
-398.7112846875
 30
0.0
  0
VERTEX
  5
768
  8
0
 62
    18
 10
210.3918271484375
 20
-402.1632163324653
 30
0.0
  0
VERTEX
  5
769
  8
0
 62
    18
 10
210.42397
 20
-405.5989222222222
 30
0.0
  0
VERTEX
  5
76A
  8
0
 62
    18
 10
210.5497700390625
 20
-409.0083383203126
 30
0.0
  0
VERTEX
  5
76B
  8
0
 62
    18
 10
210.7698434375
 20
-412.3814005902778
 30
0.0
  0
VERTEX
  5
76C
  8
0
 62
    18
 10
211.0848063671875
 20
-415.7080449956597
 30
0.0
  0
VERTEX
  5
76D
  8
0
 62
    18
 10
211.495275
 20
-418.9782075
 30
0.0
  0
VERTEX
  5
76E
  8
0
 62
    18
 10
212.0018655078125
 20
-422.1818240668402
 30
0.0
  0
VERTEX
  5
76F
  8
0
 62
    18
 10
212.6051940625
 20
-425.3088306597222
 30
0.0
  0
VERTEX
  5
770
  8
0
 62
    18
 10
213.3058768359375
 20
-428.3491632421875
 30
0.0
  0
VERTEX
  5
771
  8
0
 62
    18
 10
214.10453
 20
-431.2927577777778
 30
0.0
  0
VERTEX
  5
772
  8
0
 62
    18
 10
215.0017697265625
 20
-434.1295502300348
 30
0.0
  0
VERTEX
  5
773
  8
0
 62
    18
 10
215.9982121875
 20
-436.8494765625
 30
0.0
  0
VERTEX
  5
774
  8
0
 62
    18
 10
217.0944735546875
 20
-439.4424727387153
 30
0.0
  0
VERTEX
  5
775
  8
0
 62
    18
 10
218.29117
 20
-441.8984747222222
 30
0.0
  0
VERTEX
  5
776
  8
0
 62
    18
 10
219.5889176953125
 20
-444.2074184765625
 30
0.0
  0
VERTEX
  5
777
  8
0
 62
    18
 10
220.9883328125
 20
-446.3592399652778
 30
0.0
  0
VERTEX
  5
778
  8
0
 62
    18
 10
222.4900315234375
 20
-448.3438751519097
 30
0.0
  0
VERTEX
  5
779
  8
0
 62
    18
 10
224.09463
 20
-450.15126
 30
0.0
  0
SEQEND
  5
AFE
  8
0
 62
    18
  0
POLYLINE
  5
530
  8
0
 62
    18
 66
     1
 10
0.0
 20
0.0
 30
0.0
  0
VERTEX
  5
77A
  8
0
 62
    18
 10
224.09463
 20
-450.15126
 30
0.0
  0
VERTEX
  5
77B
  8
0
 62
    18
 10
225.8264324956597
 20
-451.8656392556425
 30
0.0
  0
VERTEX
  5
77C
  8
0
 62
    18
 10
227.7059093402778
 20
-453.5738567534722
 30
0.0
  0
VERTEX
  5
77D
  8
0
 62
    18
 10
229.7279258203125
 20
-455.2697508398438
 30
0.0
  0
VERTEX
  5
77E
  8
0
 62
    18
 10
231.8873472222223
 20
-456.9471598611112
 30
0.0
  0
VERTEX
  5
77F
  8
0
 62
    18
 10
234.1790388324653
 20
-458.5999221636286
 30
0.0
  0
VERTEX
  5
780
  8
0
 62
    18
 10
236.5978659375
 20
-460.22187609375
 30
0.0
  0
VERTEX
  5
781
  8
0
 62
    18
 10
239.1386938237847
 20
-461.8068599978299
 30
0.0
  0
VERTEX
  5
782
  8
0
 62
    18
 10
241.7963877777778
 20
-463.3487122222223
 30
0.0
  0
VERTEX
  5
783
  8
0
 62
    18
 10
244.5658130859375
 20
-464.8412711132813
 30
0.0
  0
VERTEX
  5
784
  8
0
 62
    18
 10
247.4418350347222
 20
-466.2783750173612
 30
0.0
  0
VERTEX
  5
785
  8
0
 62
    18
 10
250.4193189105903
 20
-467.653862280816
 30
0.0
  0
VERTEX
  5
786
  8
0
 62
    18
 10
253.49313
 20
-468.96157125
 30
0.0
  0
VERTEX
  5
787
  8
0
 62
    18
 10
256.6581335894098
 20
-470.1953402712674
 30
0.0
  0
VERTEX
  5
788
  8
0
 62
    18
 10
259.9091949652778
 20
-471.3490076909723
 30
0.0
  0
VERTEX
  5
789
  8
0
 62
    18
 10
263.2411794140625
 20
-472.4164118554688
 30
0.0
  0
VERTEX
  5
78A
  8
0
 62
    18
 10
266.6489522222222
 20
-473.3913911111111
 30
0.0
  0
VERTEX
  5
78B
  8
0
 62
    18
 10
270.1273786762153
 20
-474.2677838042536
 30
0.0
  0
VERTEX
  5
78C
  8
0
 62
    18
 10
273.6713240625
 20
-475.03942828125
 30
0.0
  0
VERTEX
  5
78D
  8
0
 62
    18
 10
277.2756536675347
 20
-475.7001628884549
 30
0.0
  0
VERTEX
  5
78E
  8
0
 62
    18
 10
280.9352327777777
 20
-476.2438259722222
 30
0.0
  0
VERTEX
  5
78F
  8
0
 62
    18
 10
284.6449266796875
 20
-476.6642558789063
 30
0.0
  0
VERTEX
  5
790
  8
0
 62
    18
 10
288.3996006597222
 20
-476.9552909548611
 30
0.0
  0
VERTEX
  5
791
  8
0
 62
    18
 10
292.1941200043402
 20
-477.110769546441
 30
0.0
  0
VERTEX
  5
792
  8
0
 62
    18
 10
296.02335
 20
-477.12453
 30
0.0
  0
SEQEND
  5
AFF
  8
0
 62
    18
  0
POLYLINE
  5
531
  8
0
 62
    18
 66
     1
 10
0.0
 20
0.0
 30
0.0
  0
VERTEX
  5
793
  8
0
 62
    18
 10
296.02335
 20
-477.12453
 30
0.0
  0
VERTEX
  5
794
  8
0
 62
    18
 10
299.8356696542245
 20
-477.0693826258681
 30
0.0
  0
VERTEX
  5
795
  8
0
 62
    18
 10
303.5808272337963
 20
-477.0185485069445
 30
0.0
  0
VERTEX
  5
796
  8
0
 62
    18
 10
307.2557419140624
 20
-476.9664821484375
 30
0.0
  0
VERTEX
  5
797
  8
0
 62
    18
 10
310.8573328703704
 20
-476.9076380555556
 30
0.0
  0
VERTEX
  5
798
  8
0
 62
    18
 10
314.3825192780672
 20
-476.836470733507
 30
0.0
  0
VERTEX
  5
799
  8
0
 62
    18
 10
317.8282203125
 20
-476.7474346875
 30
0.0
  0
VERTEX
  5
79A
  8
0
 62
    18
 10
321.1913551490162
 20
-476.6349844227431
 30
0.0
  0
VERTEX
  5
79B
  8
0
 62
    18
 10
324.4688429629629
 20
-476.4935744444444
 30
0.0
  0
VERTEX
  5
79C
  8
0
 62
    18
 10
327.6576029296875
 20
-476.3176592578125
 30
0.0
  0
VERTEX
  5
79D
  8
0
 62
    18
 10
330.754554224537
 20
-476.1016933680556
 30
0.0
  0
VERTEX
  5
79E
  8
0
 62
    18
 10
333.7566160228587
 20
-475.840131280382
 30
0.0
  0
VERTEX
  5
79F
  8
0
 62
    18
 10
336.6607075
 20
-475.5274275
 30
0.0
  0
VERTEX
  5
7A0
  8
0
 62
    18
 10
339.4637478313078
 20
-475.1580365321181
 30
0.0
  0
VERTEX
  5
7A1
  8
0
 62
    18
 10
342.1626561921296
 20
-474.7264128819444
 30
0.0
  0
VERTEX
  5
7A2
  8
0
 62
    18
 10
344.7543517578125
 20
-474.2270110546875
 30
0.0
  0
VERTEX
  5
7A3
  8
0
 62
    18
 10
347.2357537037037
 20
-473.6542855555555
 30
0.0
  0
VERTEX
  5
7A4
  8
0
 62
    18
 10
349.6037812051504
 20
-473.002690889757
 30
0.0
  0
VERTEX
  5
7A5
  8
0
 62
    18
 10
351.8553534375
 20
-472.2666815625
 30
0.0
  0
VERTEX
  5
7A6
  8
0
 62
    18
 10
353.9873895760995
 20
-471.440712078993
 30
0.0
  0
VERTEX
  5
7A7
  8
0
 62
    18
 10
355.9968087962962
 20
-470.5192369444444
 30
0.0
  0
VERTEX
  5
7A8
  8
0
 62
    18
 10
357.8805302734374
 20
-469.4967106640624
 30
0.0
  0
VERTEX
  5
7A9
  8
0
 62
    18
 10
359.6354731828703
 20
-468.3675877430556
 30
0.0
  0
VERTEX
  5
7AA
  8
0
 62
    18
 10
361.2585566999421
 20
-467.1263226866319
 30
0.0
  0
VERTEX
  5
7AB
  8
0
 62
    18
 10
362.7467
 20
-465.76737
 30
0.0
  0
SEQEND
  5
B00
  8
0
 62
    18
  0
POLYLINE
  5
532
  8
0
 62
    18
 66
     1
 10
0.0
 20
0.0
 30
0.0
  0
VERTEX
  5
7AC
  8
0
 62
    18
 10
362.7467
 20
-465.76737
 30
0.0
  0
VERTEX
  5
7AD
  8
0
 62
    18
 10
364.1825023010706
 20
-464.3089395638021
 30
0.0
  0
VERTEX
  5
7AE
  8
0
 62
    18
 10
365.6462375752315
 20
-462.77554234375
 30
0.0
  0
VERTEX
  5
7AF
  8
0
 62
    18
 10
367.1313333789062
 20
-461.1710807226563
 30
0.0
  0
VERTEX
  5
7B0
  8
0
 62
    18
 10
368.6312172685185
 20
-459.4994570833334
 30
0.0
  0
VERTEX
  5
7B1
  8
0
 62
    18
 10
370.1393168004919
 20
-457.7645738085938
 30
0.0
  0
VERTEX
  5
7B2
  8
0
 62
    18
 10
371.64905953125
 20
-455.97033328125
 30
0.0
  0
VERTEX
  5
7B3
  8
0
 62
    18
 10
373.1538730172165
 20
-454.1206378841146
 30
0.0
  0
VERTEX
  5
7B4
  8
0
 62
    18
 10
374.6471848148148
 20
-452.21939
 30
0.0
  0
VERTEX
  5
7B5
  8
0
 62
    18
 10
376.1224224804687
 20
-450.2704920117187
 30
0.0
  0
VERTEX
  5
7B6
  8
0
 62
    18
 10
377.5730135706018
 20
-448.2778463020833
 30
0.0
  0
VERTEX
  5
7B7
  8
0
 62
    18
 10
378.9923856416377
 20
-446.2453552539063
 30
0.0
  0
VERTEX
  5
7B8
  8
0
 62
    18
 10
380.37396625
 20
-444.1769212499999
 30
0.0
  0
VERTEX
  5
7B9
  8
0
 62
    18
 10
381.7111829521123
 20
-442.076446673177
 30
0.0
  0
VERTEX
  5
7BA
  8
0
 62
    18
 10
382.9974633043981
 20
-439.94783390625
 30
0.0
  0
VERTEX
  5
7BB
  8
0
 62
    18
 10
384.2262348632813
 20
-437.7949853320312
 30
0.0
  0
VERTEX
  5
7BC
  8
0
 62
    18
 10
385.3909251851852
 20
-435.6218033333332
 30
0.0
  0
VERTEX
  5
7BD
  8
0
 62
    18
 10
386.4849618265335
 20
-433.4321902929687
 30
0.0
  0
VERTEX
  5
7BE
  8
0
 62
    18
 10
387.50177234375
 20
-431.2300485937499
 30
0.0
  0
VERTEX
  5
7BF
  8
0
 62
    18
 10
388.4347842932581
 20
-429.0192806184895
 30
0.0
  0
VERTEX
  5
7C0
  8
0
 62
    18
 10
389.2774252314814
 20
-426.80378875
 30
0.0
  0
VERTEX
  5
7C1
  8
0
 62
    18
 10
390.0231227148437
 20
-424.5874753710937
 30
0.0
  0
VERTEX
  5
7C2
  8
0
 62
    18
 10
390.6653042997685
 20
-422.3742428645833
 30
0.0
  0
VERTEX
  5
7C3
  8
0
 62
    18
 10
391.1973975426794
 20
-420.1679936132812
 30
0.0
  0
VERTEX
  5
7C4
  8
0
 62
    18
 10
391.61283
 20
-417.9726299999999
 30
0.0
  0
SEQEND
  5
B01
  8
0
 62
    18
  0
POLYLINE
  5
533
  8
0
 62
    18
 66
     1
 10
0.0
 20
0.0
 30
0.0
  0
VERTEX
  5
7C5
  8
0
 62
    18
 10
391.61283
 20
-417.9726299999999
 30
0.0
  0
VERTEX
  5
7C6
  8
0
 62
    18
 10
391.897601066985
 20
-415.7031199305555
 30
0.0
  0
VERTEX
  5
7C7
  8
0
 62
    18
 10
392.047431869213
 20
-413.2834709027777
 30
0.0
  0
VERTEX
  5
7C8
  8
0
 62
    18
 10
392.0703325585937
 20
-410.7311409375
 30
0.0
  0
VERTEX
  5
7C9
  8
0
 62
    18
 10
391.9743132870371
 20
-408.0635880555556
 30
0.0
  0
VERTEX
  5
7CA
  8
0
 62
    18
 10
391.7673842064526
 20
-405.2982702777777
 30
0.0
  0
VERTEX
  5
7CB
  8
0
 62
    18
 10
391.4575554687499
 20
-402.4526456249999
 30
0.0
  0
VERTEX
  5
7CC
  8
0
 62
    18
 10
391.0528372258391
 20
-399.5441721180555
 30
0.0
  0
VERTEX
  5
7CD
  8
0
 62
    18
 10
390.5612396296297
 20
-396.5903077777778
 30
0.0
  0
VERTEX
  5
7CE
  8
0
 62
    18
 10
389.9907728320312
 20
-393.608510625
 30
0.0
  0
VERTEX
  5
7CF
  8
0
 62
    18
 10
389.3494469849537
 20
-390.6162386805555
 30
0.0
  0
VERTEX
  5
7D0
  8
0
 62
    18
 10
388.6452722403067
 20
-387.6309499652778
 30
0.0
  0
VERTEX
  5
7D1
  8
0
 62
    18
 10
387.88625875
 20
-384.6701024999999
 30
0.0
  0
VERTEX
  5
7D2
  8
0
 62
    18
 10
387.0804166659433
 20
-381.7511543055555
 30
0.0
  0
VERTEX
  5
7D3
  8
0
 62
    18
 10
386.2357561400463
 20
-378.8915634027777
 30
0.0
  0
VERTEX
  5
7D4
  8
0
 62
    18
 10
385.3602873242187
 20
-376.1087878124999
 30
0.0
  0
VERTEX
  5
7D5
  8
0
 62
    18
 10
384.4620203703703
 20
-373.4202855555554
 30
0.0
  0
VERTEX
  5
7D6
  8
0
 62
    18
 10
383.5489654304109
 20
-370.8435146527777
 30
0.0
  0
VERTEX
  5
7D7
  8
0
 62
    18
 10
382.62913265625
 20
-368.3959331249999
 30
0.0
  0
VERTEX
  5
7D8
  8
0
 62
    18
 10
381.7105321997974
 20
-366.0949989930555
 30
0.0
  0
VERTEX
  5
7D9
  8
0
 62
    18
 10
380.8011742129629
 20
-363.9581702777777
 30
0.0
  0
VERTEX
  5
7DA
  8
0
 62
    18
 10
379.9090688476562
 20
-362.0029049999999
 30
0.0
  0
VERTEX
  5
7DB
  8
0
 62
    18
 10
379.0422262557871
 20
-360.2466611805555
 30
0.0
  0
VERTEX
  5
7DC
  8
0
 62
    18
 10
378.208656589265
 20
-358.7068968402777
 30
0.0
  0
VERTEX
  5
7DD
  8
0
 62
    18
 10
377.41637
 20
-357.4010699999999
 30
0.0
  0
SEQEND
  5
B02
  8
0
 62
    18
  0
POLYLINE
  5
534
  8
0
 62
    18
 66
     1
 10
0.0
 20
0.0
 30
0.0
  0
VERTEX
  5
7DE
  8
0
 62
    18
 10
377.41637
 20
-357.4010699999999
 30
0.0
  0
VERTEX
  5
7DF
  8
0
 62
    18
 10
376.675397479022
 20
-356.2750277835648
 30
0.0
  0
VERTEX
  5
7E0
  8
0
 62
    18
 10
375.9890581655092
 20
-355.2592791435185
 30
0.0
  0
VERTEX
  5
7E1
  8
0
 62
    18
 10
375.3552981835938
 20
-354.34827859375
 30
0.0
  0
VERTEX
  5
7E2
  8
0
 62
    18
 10
374.7720636574074
 20
-353.5364806481481
 30
0.0
  0
VERTEX
  5
7E3
  8
0
 62
    18
 10
374.2373007110822
 20
-352.8183398206019
 30
0.0
  0
VERTEX
  5
7E4
  8
0
 62
    18
 10
373.7489554687499
 20
-352.1883106249999
 30
0.0
  0
VERTEX
  5
7E5
  8
0
 62
    18
 10
373.3049740545428
 20
-351.6408475752314
 30
0.0
  0
VERTEX
  5
7E6
  8
0
 62
    18
 10
372.9033025925926
 20
-351.1704051851852
 30
0.0
  0
VERTEX
  5
7E7
  8
0
 62
    18
 10
372.5418872070312
 20
-350.77143796875
 30
0.0
  0
VERTEX
  5
7E8
  8
0
 62
    18
 10
372.2186740219907
 20
-350.4384004398148
 30
0.0
  0
VERTEX
  5
7E9
  8
0
 62
    18
 10
371.931609161603
 20
-350.1657471122685
 30
0.0
  0
VERTEX
  5
7EA
  8
0
 62
    18
 10
371.6786387499999
 20
-349.9479324999999
 30
0.0
  0
VERTEX
  5
7EB
  8
0
 62
    18
 10
371.4577089113136
 20
-349.7794111168981
 30
0.0
  0
VERTEX
  5
7EC
  8
0
 62
    18
 10
371.2667657696758
 20
-349.6546374768518
 30
0.0
  0
VERTEX
  5
7ED
  8
0
 62
    18
 10
371.1037554492187
 20
-349.56806609375
 30
0.0
  0
VERTEX
  5
7EE
  8
0
 62
    18
 10
370.966624074074
 20
-349.5141514814815
 30
0.0
  0
VERTEX
  5
7EF
  8
0
 62
    18
 10
370.8533177683738
 20
-349.4873481539352
 30
0.0
  0
VERTEX
  5
7F0
  8
0
 62
    18
 10
370.7617826562499
 20
-349.482110625
 30
0.0
  0
VERTEX
  5
7F1
  8
0
 62
    18
 10
370.6899648618344
 20
-349.4928934085648
 30
0.0
  0
VERTEX
  5
7F2
  8
0
 62
    18
 10
370.6358105092592
 20
-349.5141510185185
 30
0.0
  0
VERTEX
  5
7F3
  8
0
 62
    18
 10
370.5972657226562
 20
-349.54033796875
 30
0.0
  0
VERTEX
  5
7F4
  8
0
 62
    18
 10
370.5722766261574
 20
-349.5659087731481
 30
0.0
  0
VERTEX
  5
7F5
  8
0
 62
    18
 10
370.5587893438947
 20
-349.5853179456018
 30
0.0
  0
VERTEX
  5
7F6
  8
0
 62
    18
 10
370.55475
 20
-349.59302
 30
0.0
  0
SEQEND
  5
B03
  8
0
 62
    18
  0
POLYLINE
  5
535
  8
0
 62
    18
 66
     1
 10
0.0
 20
0.0
 30
0.0
  0
VERTEX
  5
7F7
  8
0
 62
    18
 10
370.55475
 20
-349.59302
 30
0.0
  0
VERTEX
  5
7F8
  8
0
 62
    18
 10
370.5689560351562
 20
-349.5300684382234
 30
0.0
  0
VERTEX
  5
7F9
  8
0
 62
    18
 10
370.6092464062499
 20
-349.3457322974537
 30
0.0
  0
VERTEX
  5
7FA
  8
0
 62
    18
 10
370.6721295117187
 20
-349.0467893945312
 30
0.0
  0
VERTEX
  5
7FB
  8
0
 62
    18
 10
370.75411375
 20
-348.6400175462963
 30
0.0
  0
VERTEX
  5
7FC
  8
0
 62
    18
 10
370.8517075195313
 20
-348.1321945695891
 30
0.0
  0
VERTEX
  5
7FD
  8
0
 62
    18
 10
370.9614192187499
 20
-347.53009828125
 30
0.0
  0
VERTEX
  5
7FE
  8
0
 62
    18
 10
371.0797572460937
 20
-346.8405064981192
 30
0.0
  0
VERTEX
  5
7FF
  8
0
 62
    18
 10
371.20323
 20
-346.070197037037
 30
0.0
  0
VERTEX
  5
800
  8
0
 62
    18
 10
371.3283458789062
 20
-345.2259477148438
 30
0.0
  0
VERTEX
  5
801
  8
0
 62
    18
 10
371.45161328125
 20
-344.3145363483796
 30
0.0
  0
VERTEX
  5
802
  8
0
 62
    18
 10
371.5695406054687
 20
-343.3427407544849
 30
0.0
  0
VERTEX
  5
803
  8
0
 62
    18
 10
371.67863625
 20
-342.3173387499999
 30
0.0
  0
VERTEX
  5
804
  8
0
 62
    18
 10
371.7754086132812
 20
-341.245108151765
 30
0.0
  0
VERTEX
  5
805
  8
0
 62
    18
 10
371.85636609375
 20
-340.1328267766204
 30
0.0
  0
VERTEX
  5
806
  8
0
 62
    18
 10
371.9180170898437
 20
-338.9872724414062
 30
0.0
  0
VERTEX
  5
807
  8
0
 62
    18
 10
371.95687
 20
-337.8152229629629
 30
0.0
  0
VERTEX
  5
808
  8
0
 62
    18
 10
371.9694332226562
 20
-336.6234561581308
 30
0.0
  0
VERTEX
  5
809
  8
0
 62
    18
 10
371.95221515625
 20
-335.41874984375
 30
0.0
  0
VERTEX
  5
80A
  8
0
 62
    18
 10
371.9017241992187
 20
-334.2078818366609
 30
0.0
  0
VERTEX
  5
80B
  8
0
 62
    18
 10
371.8144687499999
 20
-332.9976299537037
 30
0.0
  0
VERTEX
  5
80C
  8
0
 62
    18
 10
371.6869572070312
 20
-331.7947720117187
 30
0.0
  0
VERTEX
  5
80D
  8
0
 62
    18
 10
371.51569796875
 20
-330.6060858275463
 30
0.0
  0
VERTEX
  5
80E
  8
0
 62
    18
 10
371.2971994335937
 20
-329.4383492180266
 30
0.0
  0
VERTEX
  5
80F
  8
0
 62
    18
 10
371.02797
 20
-328.29834
 30
0.0
  0
SEQEND
  5
B04
  8
0
 62
    18
  0
ARC
  5
536
  8
0
 62
    18
 10
323.4728866495423
 20
-343.6469620046423
 30
0.0
 40
49.97065288657269
 50
17.88772373874666
 51
40.7532556518105
  0
POLYLINE
  5
537
  8
0
 62
    18
 66
     1
 10
0.0
 20
0.0
 30
0.0
  0
VERTEX
  5
810
  8
0
 62
    18
 10
279.93403
 20
-297.30274
 30
0.0
  0
VERTEX
  5
811
  8
0
 62
    18
 10
279.2935597106482
 20
-299.692504384404
 30
0.0
  0
VERTEX
  5
812
  8
0
 62
    18
 10
278.6748606018519
 20
-302.1258111168982
 30
0.0
  0
VERTEX
  5
813
  8
0
 62
    18
 10
278.0799865625
 20
-304.5969093164063
 30
0.0
  0
VERTEX
  5
814
  8
0
 62
    18
 10
277.5109914814815
 20
-307.1000481018519
 30
0.0
  0
VERTEX
  5
815
  8
0
 62
    18
 10
276.9699292476852
 20
-309.6294765921586
 30
0.0
  0
VERTEX
  5
816
  8
0
 62
    18
 10
276.45885375
 20
-312.1794439062501
 30
0.0
  0
VERTEX
  5
817
  8
0
 62
    18
 10
275.9798188773148
 20
-314.7441991630498
 30
0.0
  0
VERTEX
  5
818
  8
0
 62
    18
 10
275.5348785185185
 20
-317.3179914814815
 30
0.0
  0
VERTEX
  5
819
  8
0
 62
    18
 10
275.1260865625
 20
-319.8950699804687
 30
0.0
  0
VERTEX
  5
81A
  8
0
 62
    18
 10
274.7554968981481
 20
-322.4696837789352
 30
0.0
  0
VERTEX
  5
81B
  8
0
 62
    18
 10
274.4251634143519
 20
-325.0360819958045
 30
0.0
  0
VERTEX
  5
81C
  8
0
 62
    18
 10
274.13714
 20
-327.5885137500001
 30
0.0
  0
VERTEX
  5
81D
  8
0
 62
    18
 10
273.8934805439815
 20
-330.1212281604456
 30
0.0
  0
VERTEX
  5
81E
  8
0
 62
    18
 10
273.6962389351852
 20
-332.6284743460649
 30
0.0
  0
VERTEX
  5
81F
  8
0
 62
    18
 10
273.5474690625
 20
-335.1045014257813
 30
0.0
  0
VERTEX
  5
820
  8
0
 62
    18
 10
273.4492248148148
 20
-337.5435585185186
 30
0.0
  0
VERTEX
  5
821
  8
0
 62
    18
 10
273.4035600810186
 20
-339.9398947432003
 30
0.0
  0
VERTEX
  5
822
  8
0
 62
    18
 10
273.41252875
 20
-342.28775921875
 30
0.0
  0
VERTEX
  5
823
  8
0
 62
    18
 10
273.4781847106482
 20
-344.5814010640914
 30
0.0
  0
VERTEX
  5
824
  8
0
 62
    18
 10
273.6025818518518
 20
-346.8150693981482
 30
0.0
  0
VERTEX
  5
825
  8
0
 62
    18
 10
273.7877740625
 20
-348.9830133398438
 30
0.0
  0
VERTEX
  5
826
  8
0
 62
    18
 10
274.0358152314815
 20
-351.0794820081019
 30
0.0
  0
VERTEX
  5
827
  8
0
 62
    18
 10
274.3487592476852
 20
-353.0987245218461
 30
0.0
  0
VERTEX
  5
828
  8
0
 62
    18
 10
274.72866
 20
-355.0349900000001
 30
0.0
  0
SEQEND
  5
B05
  8
0
 62
    18
  0
POLYLINE
  5
538
  8
0
 62
    18
 66
     1
 10
0.0
 20
0.0
 30
0.0
  0
VERTEX
  5
829
  8
0
 62
    18
 10
274.72866
 20
-355.0349900000001
 30
0.0
  0
VERTEX
  5
82A
  8
0
 62
    18
 10
275.2006559266493
 20
-356.9892113230615
 30
0.0
  0
VERTEX
  5
82B
  8
0
 62
    18
 10
275.7835132465277
 20
-359.0564816261574
 30
0.0
  0
VERTEX
  5
82C
  8
0
 62
    18
 10
276.4697275195312
 20
-361.2222941601563
 30
0.0
  0
VERTEX
  5
82D
  8
0
 62
    18
 10
277.2517943055556
 20
-363.472142175926
 30
0.0
  0
VERTEX
  5
82E
  8
0
 62
    18
 10
278.1222091644965
 20
-365.7915189243346
 30
0.0
  0
VERTEX
  5
82F
  8
0
 62
    18
 10
279.07346765625
 20
-368.16591765625
 30
0.0
  0
VERTEX
  5
830
  8
0
 62
    18
 10
280.0980653407118
 20
-370.5808316225405
 30
0.0
  0
VERTEX
  5
831
  8
0
 62
    18
 10
281.1884977777777
 20
-373.0217540740741
 30
0.0
  0
VERTEX
  5
832
  8
0
 62
    18
 10
282.3372605273437
 20
-375.4741782617187
 30
0.0
  0
VERTEX
  5
833
  8
0
 62
    18
 10
283.5368491493056
 20
-377.9235974363426
 30
0.0
  0
VERTEX
  5
834
  8
0
 62
    18
 10
284.779759203559
 20
-380.3555048488137
 30
0.0
  0
VERTEX
  5
835
  8
0
 62
    18
 10
286.05848625
 20
-382.75539375
 30
0.0
  0
VERTEX
  5
836
  8
0
 62
    18
 10
287.3655258485243
 20
-385.1087573907697
 30
0.0
  0
VERTEX
  5
837
  8
0
 62
    18
 10
288.6933735590278
 20
-387.4010890219907
 30
0.0
  0
VERTEX
  5
838
  8
0
 62
    18
 10
290.0345249414062
 20
-389.6178818945313
 30
0.0
  0
VERTEX
  5
839
  8
0
 62
    18
 10
291.3814755555555
 20
-391.7446292592593
 30
0.0
  0
VERTEX
  5
83A
  8
0
 62
    18
 10
292.7267209613715
 20
-393.7668243670429
 30
0.0
  0
VERTEX
  5
83B
  8
0
 62
    18
 10
294.06275671875
 20
-395.66996046875
 30
0.0
  0
VERTEX
  5
83C
  8
0
 62
    18
 10
295.3820783875868
 20
-397.4395308152489
 30
0.0
  0
VERTEX
  5
83D
  8
0
 62
    18
 10
296.6771815277777
 20
-399.0610286574075
 30
0.0
  0
VERTEX
  5
83E
  8
0
 62
    18
 10
297.9405616992187
 20
-400.5199472460938
 30
0.0
  0
VERTEX
  5
83F
  8
0
 62
    18
 10
299.1647144618055
 20
-401.801779832176
 30
0.0
  0
VERTEX
  5
840
  8
0
 62
    18
 10
300.3421353754341
 20
-402.8920196665221
 30
0.0
  0
VERTEX
  5
841
  8
0
 62
    18
 10
301.46532
 20
-403.7761600000001
 30
0.0
  0
SEQEND
  5
B06
  8
0
 62
    18
  0
POLYLINE
  5
539
  8
0
 62
    18
 66
     1
 10
0.0
 20
0.0
 30
0.0
  0
VERTEX
  5
842
  8
0
 62
    18
 10
301.46532
 20
-403.7761600000001
 30
0.0
  0
VERTEX
  5
843
  8
0
 62
    18
 10
301.4909593887443
 20
-403.7182746875001
 30
0.0
  0
VERTEX
  5
844
  8
0
 62
    18
 10
301.5669190682871
 20
-403.5496850000001
 30
0.0
  0
VERTEX
  5
845
  8
0
 62
    18
 10
301.6917613085938
 20
-403.2779903125
 30
0.0
  0
VERTEX
  5
846
  8
0
 62
    18
 10
301.8640483796297
 20
-402.9107900000001
 30
0.0
  0
VERTEX
  5
847
  8
0
 62
    18
 10
302.08234255136
 20
-402.4556834375001
 30
0.0
  0
VERTEX
  5
848
  8
0
 62
    18
 10
302.34520609375
 20
-401.9202700000001
 30
0.0
  0
VERTEX
  5
849
  8
0
 62
    18
 10
302.6512012767651
 20
-401.3121490625001
 30
0.0
  0
VERTEX
  5
84A
  8
0
 62
    18
 10
302.9988903703704
 20
-400.6389200000001
 30
0.0
  0
VERTEX
  5
84B
  8
0
 62
    18
 10
303.3868356445313
 20
-399.9081821875001
 30
0.0
  0
VERTEX
  5
84C
  8
0
 62
    18
 10
303.813599369213
 20
-399.1275350000001
 30
0.0
  0
VERTEX
  5
84D
  8
0
 62
    18
 10
304.2777438143808
 20
-398.3045778125
 30
0.0
  0
VERTEX
  5
84E
  8
0
 62
    18
 10
304.77783125
 20
-397.44691
 30
0.0
  0
VERTEX
  5
84F
  8
0
 62
    18
 10
305.3124239460359
 20
-396.5621309375001
 30
0.0
  0
VERTEX
  5
850
  8
0
 62
    18
 10
305.8800841724537
 20
-395.6578400000001
 30
0.0
  0
VERTEX
  5
851
  8
0
 62
    18
 10
306.4793741992188
 20
-394.7416365625001
 30
0.0
  0
VERTEX
  5
852
  8
0
 62
    18
 10
307.1088562962963
 20
-393.8211200000001
 30
0.0
  0
VERTEX
  5
853
  8
0
 62
    18
 10
307.7670927336517
 20
-392.9038896875001
 30
0.0
  0
VERTEX
  5
854
  8
0
 62
    18
 10
308.45264578125
 20
-391.9975450000001
 30
0.0
  0
VERTEX
  5
855
  8
0
 62
    18
 10
309.1640777090567
 20
-391.1096853125001
 30
0.0
  0
VERTEX
  5
856
  8
0
 62
    18
 10
309.899950787037
 20
-390.24791
 30
0.0
  0
VERTEX
  5
857
  8
0
 62
    18
 10
310.6588272851562
 20
-389.4198184375001
 30
0.0
  0
VERTEX
  5
858
  8
0
 62
    18
 10
311.4392694733797
 20
-388.6330100000001
 30
0.0
  0
VERTEX
  5
859
  8
0
 62
    18
 10
312.2398396216724
 20
-387.8950840625001
 30
0.0
  0
VERTEX
  5
85A
  8
0
 62
    18
 10
313.0591
 20
-387.2136400000001
 30
0.0
  0
SEQEND
  5
B07
  8
0
 62
    18
  0
ARC
  5
53A
  8
0
 62
    18
 10
448.2604595838629
 20
-564.5533446101231
 30
0.0
 40
222.9995032831481
 50
122.4292637075532
 51
127.3214004648174
  0
POLYLINE
  5
53B
  8
0
 62
    18
 66
     1
 10
0.0
 20
0.0
 30
0.0
  0
VERTEX
  5
85B
  8
0
 62
    18
 10
328.6752
 20
-376.3296900000001
 30
0.0
  0
VERTEX
  5
85C
  8
0
 62
    18
 10
328.6029032132524
 20
-376.2759466362848
 30
0.0
  0
VERTEX
  5
85D
  8
0
 62
    18
 10
328.3925852893519
 20
-376.1166335069446
 30
0.0
  0
VERTEX
  5
85E
  8
0
 62
    18
 10
328.0541048828125
 20
-375.8546260546876
 30
0.0
  0
VERTEX
  5
85F
  8
0
 62
    18
 10
327.5973206481482
 20
-375.4927997222223
 30
0.0
  0
VERTEX
  5
860
  8
0
 62
    18
 10
327.0320912398727
 20
-375.0340299522571
 30
0.0
  0
VERTEX
  5
861
  8
0
 62
    18
 10
326.3682753125
 20
-374.4811921875001
 30
0.0
  0
VERTEX
  5
862
  8
0
 62
    18
 10
325.615731520544
 20
-373.8371618706598
 30
0.0
  0
VERTEX
  5
863
  8
0
 62
    18
 10
324.7843185185185
 20
-373.1048144444445
 30
0.0
  0
VERTEX
  5
864
  8
0
 62
    18
 10
323.8838949609375
 20
-372.2870253515625
 30
0.0
  0
VERTEX
  5
865
  8
0
 62
    18
 10
322.9243195023149
 20
-371.3866700347223
 30
0.0
  0
VERTEX
  5
866
  8
0
 62
    18
 10
321.9154507971643
 20
-370.406623936632
 30
0.0
  0
VERTEX
  5
867
  8
0
 62
    18
 10
320.8671475
 20
-369.3497625000001
 30
0.0
  0
VERTEX
  5
868
  8
0
 62
    18
 10
319.7892682653356
 20
-368.2189611675349
 30
0.0
  0
VERTEX
  5
869
  8
0
 62
    18
 10
318.6916717476852
 20
-367.0170953819445
 30
0.0
  0
VERTEX
  5
86A
  8
0
 62
    18
 10
317.5842166015626
 20
-365.7470405859376
 30
0.0
  0
VERTEX
  5
86B
  8
0
 62
    18
 10
316.4767614814815
 20
-364.4116722222223
 30
0.0
  0
VERTEX
  5
86C
  8
0
 62
    18
 10
315.3791650419561
 20
-363.013865733507
 30
0.0
  0
VERTEX
  5
86D
  8
0
 62
    18
 10
314.3012859375
 20
-361.5564965625
 30
0.0
  0
VERTEX
  5
86E
  8
0
 62
    18
 10
313.2529828226273
 20
-360.0424401519098
 30
0.0
  0
VERTEX
  5
86F
  8
0
 62
    18
 10
312.2441143518519
 20
-358.4745719444445
 30
0.0
  0
VERTEX
  5
870
  8
0
 62
    18
 10
311.2845391796875
 20
-356.8557673828126
 30
0.0
  0
VERTEX
  5
871
  8
0
 62
    18
 10
310.3841159606482
 20
-355.1889019097223
 30
0.0
  0
VERTEX
  5
872
  8
0
 62
    18
 10
309.5527033492477
 20
-353.476850967882
 30
0.0
  0
VERTEX
  5
873
  8
0
 62
    18
 10
308.80016
 20
-351.7224900000001
 30
0.0
  0
SEQEND
  5
B08
  8
0
 62
    18
  0
POLYLINE
  5
53C
  8
0
 62
    18
 66
     1
 10
0.0
 20
0.0
 30
0.0
  0
VERTEX
  5
874
  8
0
 62
    18
 10
308.80016
 20
-351.7224900000001
 30
0.0
  0
VERTEX
  5
875
  8
0
 62
    18
 10
308.0934856170429
 20
-349.9428662514468
 30
0.0
  0
VERTEX
  5
876
  8
0
 62
    18
 10
307.3958484780093
 20
-348.1525623032408
 30
0.0
  0
VERTEX
  5
877
  8
0
 62
    18
 10
306.7113563476562
 20
-346.3507566015626
 30
0.0
  0
VERTEX
  5
878
  8
0
 62
    18
 10
306.0441169907408
 20
-344.5366275925926
 30
0.0
  0
VERTEX
  5
879
  8
0
 62
    18
 10
305.3982381720197
 20
-342.7093537225117
 30
0.0
  0
VERTEX
  5
87A
  8
0
 62
    18
 10
304.7778276562499
 20
-340.8681134375
 30
0.0
  0
VERTEX
  5
87B
  8
0
 62
    18
 10
304.1869932081887
 20
-339.0120851837385
 30
0.0
  0
VERTEX
  5
87C
  8
0
 62
    18
 10
303.6298425925926
 20
-337.1404474074075
 30
0.0
  0
VERTEX
  5
87D
  8
0
 62
    18
 10
303.1104835742188
 20
-335.2523785546875
 30
0.0
  0
VERTEX
  5
87E
  8
0
 62
    18
 10
302.6330239178241
 20
-333.3470570717594
 30
0.0
  0
VERTEX
  5
87F
  8
0
 62
    18
 10
302.2015713881655
 20
-331.4236614048033
 30
0.0
  0
VERTEX
  5
880
  8
0
 62
    18
 10
301.82023375
 20
-329.4813700000001
 30
0.0
  0
VERTEX
  5
881
  8
0
 62
    18
 10
301.4931187680845
 20
-327.5193613035302
 30
0.0
  0
VERTEX
  5
882
  8
0
 62
    18
 10
301.224334207176
 20
-325.5368137615741
 30
0.0
  0
VERTEX
  5
883
  8
0
 62
    18
 10
301.0179878320313
 20
-323.5329058203125
 30
0.0
  0
VERTEX
  5
884
  8
0
 62
    18
 10
300.8781874074074
 20
-321.5068159259259
 30
0.0
  0
VERTEX
  5
885
  8
0
 62
    18
 10
300.8090406980614
 20
-319.457722524595
 30
0.0
  0
VERTEX
  5
886
  8
0
 62
    18
 10
300.8146554687499
 20
-317.3848040625001
 30
0.0
  0
VERTEX
  5
887
  8
0
 62
    18
 10
300.8991394842303
 20
-315.2872389858218
 30
0.0
  0
VERTEX
  5
888
  8
0
 62
    18
 10
301.0666005092592
 20
-313.1642057407408
 30
0.0
  0
VERTEX
  5
889
  8
0
 62
    18
 10
301.3211463085938
 20
-311.0148827734375
 30
0.0
  0
VERTEX
  5
88A
  8
0
 62
    18
 10
301.6668846469908
 20
-308.8384485300926
 30
0.0
  0
VERTEX
  5
88B
  8
0
 62
    18
 10
302.1079232892072
 20
-306.6340814568866
 30
0.0
  0
VERTEX
  5
88C
  8
0
 62
    18
 10
302.64837
 20
-304.40096
 30
0.0
  0
SEQEND
  5
B09
  8
0
 62
    18
  0
POLYLINE
  5
53D
  8
0
 62
    18
 66
     1
 10
0.0
 20
0.0
 30
0.0
  0
VERTEX
  5
88D
  8
0
 62
    18
 10
276.62152
 20
-309.60633
 30
0.0
  0
VERTEX
  5
88E
  8
0
 62
    18
 10
275.7277384563079
 20
-312.0003738599538
 30
0.0
  0
VERTEX
  5
88F
  8
0
 62
    18
 10
274.8245089004629
 20
-314.335471087963
 30
0.0
  0
VERTEX
  5
890
  8
0
 62
    18
 10
273.9171714453125
 20
-316.61675640625
 30
0.0
  0
VERTEX
  5
891
  8
0
 62
    18
 10
273.0110662037036
 20
-318.8493645370371
 30
0.0
  0
VERTEX
  5
892
  8
0
 62
    18
 10
272.1115332884838
 20
-321.0384302025464
 30
0.0
  0
VERTEX
  5
893
  8
0
 62
    18
 10
271.2239128125
 20
-323.189088125
 30
0.0
  0
VERTEX
  5
894
  8
0
 62
    18
 10
270.3535448885995
 20
-325.3064730266204
 30
0.0
  0
VERTEX
  5
895
  8
0
 62
    18
 10
269.5057696296296
 20
-327.3957196296297
 30
0.0
  0
VERTEX
  5
896
  8
0
 62
    18
 10
268.6859271484374
 20
-329.4619626562501
 30
0.0
  0
VERTEX
  5
897
  8
0
 62
    18
 10
267.8993575578704
 20
-331.5103368287038
 30
0.0
  0
VERTEX
  5
898
  8
0
 62
    18
 10
267.1514009707754
 20
-333.545976869213
 30
0.0
  0
VERTEX
  5
899
  8
0
 62
    18
 10
266.4473975
 20
-335.5740175
 30
0.0
  0
VERTEX
  5
89A
  8
0
 62
    18
 10
265.7926872583912
 20
-337.5995934432871
 30
0.0
  0
VERTEX
  5
89B
  8
0
 62
    18
 10
265.1926103587963
 20
-339.6278394212964
 30
0.0
  0
VERTEX
  5
89C
  8
0
 62
    18
 10
264.6525069140625
 20
-341.66389015625
 30
0.0
  0
VERTEX
  5
89D
  8
0
 62
    18
 10
264.177717037037
 20
-343.7128803703704
 30
0.0
  0
VERTEX
  5
89E
  8
0
 62
    18
 10
263.7735808405671
 20
-345.7799447858796
 30
0.0
  0
VERTEX
  5
89F
  8
0
 62
    18
 10
263.4454384374999
 20
-347.870218125
 30
0.0
  0
VERTEX
  5
8A0
  8
0
 62
    18
 10
263.1986299406828
 20
-349.9888351099537
 30
0.0
  0
VERTEX
  5
8A1
  8
0
 62
    18
 10
263.0384954629629
 20
-352.140930462963
 30
0.0
  0
VERTEX
  5
8A2
  8
0
 62
    18
 10
262.9703751171875
 20
-354.33163890625
 30
0.0
  0
VERTEX
  5
8A3
  8
0
 62
    18
 10
262.9996090162037
 20
-356.5660951620371
 30
0.0
  0
VERTEX
  5
8A4
  8
0
 62
    18
 10
263.1315372728587
 20
-358.8494339525463
 30
0.0
  0
VERTEX
  5
8A5
  8
0
 62
    18
 10
263.3715
 20
-361.18679
 30
0.0
  0
SEQEND
  5
B0A
  8
0
 62
    18
  0
POLYLINE
  5
53E
  8
0
 62
    18
 66
     1
 10
0.0
 20
0.0
 30
0.0
  0
VERTEX
  5
8A6
  8
0
 62
    18
 10
263.3715
 20
-361.18679
 30
0.0
  0
VERTEX
  5
8A7
  8
0
 62
    18
 10
263.6790686118345
 20
-363.4987817708334
 30
0.0
  0
VERTEX
  5
8A8
  8
0
 62
    18
 10
264.0082030613426
 20
-365.7031497916667
 30
0.0
  0
VERTEX
  5
8A9
  8
0
 62
    18
 10
264.3558225195312
 20
-367.800715625
 30
0.0
  0
VERTEX
  5
8AA
  8
0
 62
    18
 10
264.7188461574074
 20
-369.7923008333333
 30
0.0
  0
VERTEX
  5
8AB
  8
0
 62
    18
 10
265.094193145978
 20
-371.6787269791667
 30
0.0
  0
VERTEX
  5
8AC
  8
0
 62
    18
 10
265.47878265625
 20
-373.4608156250001
 30
0.0
  0
VERTEX
  5
8AD
  8
0
 62
    18
 10
265.8695338592303
 20
-375.1393883333334
 30
0.0
  0
VERTEX
  5
8AE
  8
0
 62
    18
 10
266.2633659259259
 20
-376.7152666666667
 30
0.0
  0
VERTEX
  5
8AF
  8
0
 62
    18
 10
266.6571980273437
 20
-378.1892721875001
 30
0.0
  0
VERTEX
  5
8B0
  8
0
 62
    18
 10
267.0479493344907
 20
-379.5622264583334
 30
0.0
  0
VERTEX
  5
8B1
  8
0
 62
    18
 10
267.4325390183739
 20
-380.8349510416667
 30
0.0
  0
VERTEX
  5
8B2
  8
0
 62
    18
 10
267.80788625
 20
-382.0082675
 30
0.0
  0
VERTEX
  5
8B3
  8
0
 62
    18
 10
268.1709102003761
 20
-383.0829973958333
 30
0.0
  0
VERTEX
  5
8B4
  8
0
 62
    18
 10
268.5185300405093
 20
-384.0599622916667
 30
0.0
  0
VERTEX
  5
8B5
  8
0
 62
    18
 10
268.8476649414063
 20
-384.93998375
 30
0.0
  0
VERTEX
  5
8B6
  8
0
 62
    18
 10
269.155234074074
 20
-385.7238833333334
 30
0.0
  0
VERTEX
  5
8B7
  8
0
 62
    18
 10
269.4381566095197
 20
-386.4124826041668
 30
0.0
  0
VERTEX
  5
8B8
  8
0
 62
    18
 10
269.69335171875
 20
-387.0066031250001
 30
0.0
  0
VERTEX
  5
8B9
  8
0
 62
    18
 10
269.917738572772
 20
-387.5070664583334
 30
0.0
  0
VERTEX
  5
8BA
  8
0
 62
    18
 10
270.1082363425926
 20
-387.9146941666667
 30
0.0
  0
VERTEX
  5
8BB
  8
0
 62
    18
 10
270.2617641992188
 20
-388.2303078125001
 30
0.0
  0
VERTEX
  5
8BC
  8
0
 62
    18
 10
270.3752413136574
 20
-388.4547289583335
 30
0.0
  0
VERTEX
  5
8BD
  8
0
 62
    18
 10
270.4455868569155
 20
-388.5887791666667
 30
0.0
  0
VERTEX
  5
8BE
  8
0
 62
    18
 10
270.46972
 20
-388.6332800000001
 30
0.0
  0
SEQEND
  5
B0B
  8
0
 62
    18
  0
POLYLINE
  5
53F
  8
0
 62
    18
 66
     1
 10
0.0
 20
0.0
 30
0.0
  0
VERTEX
  5
8BF
  8
0
 62
    18
 10
270.46972
 20
-388.6332800000001
 30
0.0
  0
VERTEX
  5
8C0
  8
0
 62
    18
 10
270.4988509295429
 20
-388.5838840639469
 30
0.0
  0
VERTEX
  5
8C1
  8
0
 62
    18
 10
270.5844636863426
 20
-388.4402148032408
 30
0.0
  0
VERTEX
  5
8C2
  8
0
 62
    18
 10
270.7238882226562
 20
-388.2090500390626
 30
0.0
  0
VERTEX
  5
8C3
  8
0
 62
    18
 10
270.9144544907408
 20
-387.8971675925927
 30
0.0
  0
VERTEX
  5
8C4
  8
0
 62
    18
 10
271.1534924428531
 20
-387.5113452850117
 30
0.0
  0
VERTEX
  5
8C5
  8
0
 62
    18
 10
271.43833203125
 20
-387.0583609375
 30
0.0
  0
VERTEX
  5
8C6
  8
0
 62
    18
 10
271.7663032081887
 20
-386.5449923712385
 30
0.0
  0
VERTEX
  5
8C7
  8
0
 62
    18
 10
272.134735925926
 20
-385.9780174074075
 30
0.0
  0
VERTEX
  5
8C8
  8
0
 62
    18
 10
272.5409601367187
 20
-385.3642138671875
 30
0.0
  0
VERTEX
  5
8C9
  8
0
 62
    18
 10
272.9823057928241
 20
-384.7103595717593
 30
0.0
  0
VERTEX
  5
8CA
  8
0
 62
    18
 10
273.4561028464988
 20
-384.0232323423033
 30
0.0
  0
VERTEX
  5
8CB
  8
0
 62
    18
 10
273.95968125
 20
-383.3096100000001
 30
0.0
  0
VERTEX
  5
8CC
  8
0
 62
    18
 10
274.4903709555845
 20
-382.5762703660301
 30
0.0
  0
VERTEX
  5
8CD
  8
0
 62
    18
 10
275.0455019155092
 20
-381.8299912615742
 30
0.0
  0
VERTEX
  5
8CE
  8
0
 62
    18
 10
275.6224040820313
 20
-381.0775505078126
 30
0.0
  0
VERTEX
  5
8CF
  8
0
 62
    18
 10
276.2184074074074
 20
-380.325725925926
 30
0.0
  0
VERTEX
  5
8D0
  8
0
 62
    18
 10
276.8308418438947
 20
-379.581295337095
 30
0.0
  0
VERTEX
  5
8D1
  8
0
 62
    18
 10
277.45703734375
 20
-378.8510365625001
 30
0.0
  0
VERTEX
  5
8D2
  8
0
 62
    18
 10
278.0943238592303
 20
-378.1417274233218
 30
0.0
  0
VERTEX
  5
8D3
  8
0
 62
    18
 10
278.7400313425926
 20
-377.4601457407408
 30
0.0
  0
VERTEX
  5
8D4
  8
0
 62
    18
 10
279.3914897460938
 20
-376.8130693359376
 30
0.0
  0
VERTEX
  5
8D5
  8
0
 62
    18
 10
280.0460290219908
 20
-376.2072760300927
 30
0.0
  0
VERTEX
  5
8D6
  8
0
 62
    18
 10
280.7009791225405
 20
-375.6495436443867
 30
0.0
  0
VERTEX
  5
8D7
  8
0
 62
    18
 10
281.35367
 20
-375.1466500000001
 30
0.0
  0
SEQEND
  5
B0C
  8
0
 62
    18
  0
POLYLINE
  5
540
  8
0
 62
    18
 66
     1
 10
0.0
 20
0.0
 30
0.0
  0
VERTEX
  5
8D8
  8
0
 62
    18
 10
277.09474
 20
-270.80268
 30
0.0
  0
VERTEX
  5
8D9
  8
0
 62
    18
 10
280.4245337109376
 20
-273.9260930425348
 30
0.0
  0
VERTEX
  5
8DA
  8
0
 62
    18
 10
283.6707342708333
 20
-276.6839143402777
 30
0.0
  0
VERTEX
  5
8DB
  8
0
 62
    18
 10
286.8335470703125
 20
-279.0950396484374
 30
0.0
  0
VERTEX
  5
8DC
  8
0
 62
    18
 10
289.9131775
 20
-281.1783647222222
 30
0.0
  0
VERTEX
  5
8DD
  8
0
 62
    18
 10
292.9098309505208
 20
-282.9527853168402
 30
0.0
  0
VERTEX
  5
8DE
  8
0
 62
    18
 10
295.8237128125
 20
-284.4371971874999
 30
0.0
  0
VERTEX
  5
8DF
  8
0
 62
    18
 10
298.6550284765625
 20
-285.6504960894097
 30
0.0
  0
VERTEX
  5
8E0
  8
0
 62
    18
 10
301.4039833333334
 20
-286.6115777777777
 30
0.0
  0
VERTEX
  5
8E1
  8
0
 62
    18
 10
304.0707827734375
 20
-287.3393380078124
 30
0.0
  0
VERTEX
  5
8E2
  8
0
 62
    18
 10
306.6556321875
 20
-287.8526725347222
 30
0.0
  0
VERTEX
  5
8E3
  8
0
 62
    18
 10
309.1587369661459
 20
-288.1704771137153
 30
0.0
  0
VERTEX
  5
8E4
  8
0
 62
    18
 10
311.5803025
 20
-288.3116474999999
 30
0.0
  0
VERTEX
  5
8E5
  8
0
 62
    18
 10
313.9205341796875
 20
-288.2950794487847
 30
0.0
  0
VERTEX
  5
8E6
  8
0
 62
    18
 10
316.1796373958334
 20
-288.1396687152778
 30
0.0
  0
VERTEX
  5
8E7
  8
0
 62
    18
 10
318.3578175390625
 20
-287.8643110546874
 30
0.0
  0
VERTEX
  5
8E8
  8
0
 62
    18
 10
320.45528
 20
-287.4879022222221
 30
0.0
  0
VERTEX
  5
8E9
  8
0
 62
    18
 10
322.4722301692709
 20
-287.0293379730903
 30
0.0
  0
VERTEX
  5
8EA
  8
0
 62
    18
 10
324.4088734375
 20
-286.5075140625
 30
0.0
  0
VERTEX
  5
8EB
  8
0
 62
    18
 10
326.2654151953125
 20
-285.9413262456596
 30
0.0
  0
VERTEX
  5
8EC
  8
0
 62
    18
 10
328.0420608333333
 20
-285.3496702777777
 30
0.0
  0
VERTEX
  5
8ED
  8
0
 62
    18
 10
329.7390157421875
 20
-284.7514419140624
 30
0.0
  0
VERTEX
  5
8EE
  8
0
 62
    18
 10
331.3564853125
 20
-284.1655369097222
 30
0.0
  0
VERTEX
  5
8EF
  8
0
 62
    18
 10
332.8946749348958
 20
-283.6108510199652
 30
0.0
  0
VERTEX
  5
8F0
  8
0
 62
    18
 10
334.35379
 20
-283.1062799999999
 30
0.0
  0
SEQEND
  5
B0D
  8
0
 62
    18
  0
POLYLINE
  5
541
  8
0
 62
    18
 66
     1
 10
0.0
 20
0.0
 30
0.0
  0
VERTEX
  5
8F1
  8
0
 62
    18
 10
334.35379
 20
-283.1062799999999
 30
0.0
  0
VERTEX
  5
8F2
  8
0
 62
    18
 10
335.7751808275463
 20
-282.5629932291666
 30
0.0
  0
VERTEX
  5
8F3
  8
0
 62
    18
 10
337.1971878703704
 20
-281.8851768749999
 30
0.0
  0
VERTEX
  5
8F4
  8
0
 62
    18
 10
338.61549796875
 20
-281.0812518749999
 30
0.0
  0
VERTEX
  5
8F5
  8
0
 62
    18
 10
340.025797962963
 20
-280.1596391666666
 30
0.0
  0
VERTEX
  5
8F6
  8
0
 62
    18
 10
341.4237746932871
 20
-279.1287596875
 30
0.0
  0
VERTEX
  5
8F7
  8
0
 62
    18
 10
342.805115
 20
-277.9970343749999
 30
0.0
  0
VERTEX
  5
8F8
  8
0
 62
    18
 10
344.1655057233797
 20
-276.7728841666666
 30
0.0
  0
VERTEX
  5
8F9
  8
0
 62
    18
 10
345.5006337037037
 20
-275.4647299999999
 30
0.0
  0
VERTEX
  5
8FA
  8
0
 62
    18
 10
346.80618578125
 20
-274.0809928125
 30
0.0
  0
VERTEX
  5
8FB
  8
0
 62
    18
 10
348.0778487962963
 20
-272.6300935416666
 30
0.0
  0
VERTEX
  5
8FC
  8
0
 62
    18
 10
349.3113095891204
 20
-271.1204531249999
 30
0.0
  0
VERTEX
  5
8FD
  8
0
 62
    18
 10
350.502255
 20
-269.5604925
 30
0.0
  0
VERTEX
  5
8FE
  8
0
 62
    18
 10
351.646371869213
 20
-267.9586326041666
 30
0.0
  0
VERTEX
  5
8FF
  8
0
 62
    18
 10
352.7393470370371
 20
-266.3232943749999
 30
0.0
  0
VERTEX
  5
900
  8
0
 62
    18
 10
353.77686734375
 20
-264.66289875
 30
0.0
  0
VERTEX
  5
901
  8
0
 62
    18
 10
354.7546196296296
 20
-262.9858666666666
 30
0.0
  0
VERTEX
  5
902
  8
0
 62
    18
 10
355.6682907349538
 20
-261.3006190624999
 30
0.0
  0
VERTEX
  5
903
  8
0
 62
    18
 10
356.5135675
 20
-259.6155768749999
 30
0.0
  0
VERTEX
  5
904
  8
0
 62
    18
 10
357.2861367650463
 20
-257.9391610416666
 30
0.0
  0
VERTEX
  5
905
  8
0
 62
    18
 10
357.9816853703704
 20
-256.2797924999999
 30
0.0
  0
VERTEX
  5
906
  8
0
 62
    18
 10
358.59590015625
 20
-254.6458921874999
 30
0.0
  0
VERTEX
  5
907
  8
0
 62
    18
 10
359.124467962963
 20
-253.0458810416666
 30
0.0
  0
VERTEX
  5
908
  8
0
 62
    18
 10
359.5630756307871
 20
-251.4881799999999
 30
0.0
  0
VERTEX
  5
909
  8
0
 62
    18
 10
359.90741
 20
-249.9812099999999
 30
0.0
  0
SEQEND
  5
B0E
  8
0
 62
    18
  0
ARC
  5
542
  8
0
 62
    18
 10
329.544380528971
 20
-300.2521370341061
 30
0.0
 40
59.19536707192241
 50
52.49298060342928
 51
64.84973386319616
  0
CIRCLE
  5
543
  8
0
 62
    18
 10
305.25107
 20
-229.8695499999999
 30
0.0
 40
4.022329800000023
  0
POLYLINE
  5
544
  8
0
 62
    18
 66
     1
 10
0.0
 20
0.0
 30
0.0
 70
     1
  0
VERTEX
  5
90A
  8
0
 62
    18
 10
329.87726
 20
-238.6240631
 30
0.0
  0
VERTEX
  5
90B
  8
0
 62
    18
 10
330.9389367722079
 20
-238.5149507180265
 30
0.0
  0
VERTEX
  5
90C
  8
0
 62
    18
 10
331.959813901455
 20
-238.1918066997545
 30
0.0
  0
VERTEX
  5
90D
  8
0
 62
    18
 10
332.9006596521789
 20
-237.6670492885848
 30
0.0
  0
VERTEX
  5
90E
  8
0
 62
    18
 10
333.7253178498117
 20
-236.9608446175413
 30
0.0
  0
VERTEX
  5
90F
  8
0
 62
    18
 10
334.4020973422919
 20
-236.1003317360882
 30
0.0
  0
VERTEX
  5
910
  8
0
 62
    18
 10
334.9049898732658
 20
-235.1185796716784
 30
0.0
  0
VERTEX
  5
911
  8
0
 62
    18
 10
335.2146695647935
 20
-234.0533166055744
 30
0.0
  0
VERTEX
  5
912
  8
0
 62
    18
 10
335.3192356
 20
-232.94548
 30
0.0
  0
VERTEX
  5
913
  8
0
 62
    18
 10
335.2146695647935
 20
-231.8376433944257
 30
0.0
  0
VERTEX
  5
914
  8
0
 62
    18
 10
334.9049898732658
 20
-230.7723803283216
 30
0.0
  0
VERTEX
  5
915
  8
0
 62
    18
 10
334.4020973422919
 20
-229.7906282639119
 30
0.0
  0
VERTEX
  5
916
  8
0
 62
    18
 10
333.7253178498117
 20
-228.9301153824587
 30
0.0
  0
VERTEX
  5
917
  8
0
 62
    18
 10
332.9006596521789
 20
-228.2239107114153
 30
0.0
  0
VERTEX
  5
918
  8
0
 62
    18
 10
331.959813901455
 20
-227.6991533002456
 30
0.0
  0
VERTEX
  5
919
  8
0
 62
    18
 10
330.9389367722079
 20
-227.3760092819735
 30
0.0
  0
VERTEX
  5
91A
  8
0
 62
    18
 10
329.87726
 20
-227.2668969000001
 30
0.0
  0
VERTEX
  5
91B
  8
0
 62
    18
 10
328.815583227792
 20
-227.3760092819735
 30
0.0
  0
VERTEX
  5
91C
  8
0
 62
    18
 10
327.7947060985449
 20
-227.6991533002456
 30
0.0
  0
VERTEX
  5
91D
  8
0
 62
    18
 10
326.853860347821
 20
-228.2239107114153
 30
0.0
  0
VERTEX
  5
91E
  8
0
 62
    18
 10
326.0292021501883
 20
-228.9301153824587
 30
0.0
  0
VERTEX
  5
91F
  8
0
 62
    18
 10
325.3524226577081
 20
-229.7906282639119
 30
0.0
  0
VERTEX
  5
920
  8
0
 62
    18
 10
324.8495301267342
 20
-230.7723803283217
 30
0.0
  0
VERTEX
  5
921
  8
0
 62
    18
 10
324.5398504352065
 20
-231.8376433944257
 30
0.0
  0
VERTEX
  5
922
  8
0
 62
    18
 10
324.4352844
 20
-232.94548
 30
0.0
  0
VERTEX
  5
923
  8
0
 62
    18
 10
324.5398504352065
 20
-234.0533166055744
 30
0.0
  0
VERTEX
  5
924
  8
0
 62
    18
 10
324.8495301267342
 20
-235.1185796716784
 30
0.0
  0
VERTEX
  5
925
  8
0
 62
    18
 10
325.3524226577081
 20
-236.1003317360882
 30
0.0
  0
VERTEX
  5
926
  8
0
 62
    18
 10
326.0292021501883
 20
-236.9608446175413
 30
0.0
  0
VERTEX
  5
927
  8
0
 62
    18
 10
326.853860347821
 20
-237.6670492885848
 30
0.0
  0
VERTEX
  5
928
  8
0
 62
    18
 10
327.794706098545
 20
-238.1918066997545
 30
0.0
  0
VERTEX
  5
929
  8
0
 62
    18
 10
328.8155832277921
 20
-238.5149507180265
 30
0.0
  0
SEQEND
  5
B0F
  8
0
 62
    18
  0
ARC
  5
545
  8
0
 62
    18
 10
195.7207807968726
 20
-776.6966836532226
 30
0.0
 40
548.569194936769
 50
78.27671408279107
 51
82.06111523420175
  0
POLYLINE
  5
546
  8
0
 62
    18
 66
     1
 10
0.0
 20
0.0
 30
0.0
  0
VERTEX
  5
92A
  8
0
 62
    18
 10
271.4873699999999
 20
-233.385
 30
0.0
  0
VERTEX
  5
92B
  8
0
 62
    18
 10
269.7171202148438
 20
-233.1689138787617
 30
0.0
  0
VERTEX
  5
92C
  8
0
 62
    18
 10
267.8748219270833
 20
-232.9372316550926
 30
0.0
  0
VERTEX
  5
92D
  8
0
 62
    18
 10
265.9725704882812
 20
-232.6937237890625
 30
0.0
  0
VERTEX
  5
92E
  8
0
 62
    18
 10
264.02246125
 20
-232.4421607407408
 30
0.0
  0
VERTEX
  5
92F
  8
0
 62
    18
 10
262.0365895638021
 20
-232.1863129701968
 30
0.0
  0
VERTEX
  5
930
  8
0
 62
    18
 10
260.02705078125
 20
-231.9299509375001
 30
0.0
  0
VERTEX
  5
931
  8
0
 62
    18
 10
258.0059402539062
 20
-231.67684510272
 30
0.0
  0
VERTEX
  5
932
  8
0
 62
    18
 10
255.9853533333333
 20
-231.430765925926
 30
0.0
  0
VERTEX
  5
933
  8
0
 62
    18
 10
253.9773853710937
 20
-231.1954838671875
 30
0.0
  0
VERTEX
  5
934
  8
0
 62
    18
 10
251.99413171875
 20
-230.9747693865741
 30
0.0
  0
VERTEX
  5
935
  8
0
 62
    18
 10
250.0476877278645
 20
-230.7723929441551
 30
0.0
  0
VERTEX
  5
936
  8
0
 62
    18
 10
248.15014875
 20
-230.592125
 30
0.0
  0
VERTEX
  5
937
  8
0
 62
    18
 10
246.3136101367187
 20
-230.4377360141783
 30
0.0
  0
VERTEX
  5
938
  8
0
 62
    18
 10
244.5501672395833
 20
-230.3129964467593
 30
0.0
  0
VERTEX
  5
939
  8
0
 62
    18
 10
242.8719154101562
 20
-230.2216767578125
 30
0.0
  0
VERTEX
  5
93A
  8
0
 62
    18
 10
241.29095
 20
-230.1675474074074
 30
0.0
  0
VERTEX
  5
93B
  8
0
 62
    18
 10
239.819366360677
 20
-230.1543788556135
 30
0.0
  0
VERTEX
  5
93C
  8
0
 62
    18
 10
238.4692598437499
 20
-230.1859415625
 30
0.0
  0
VERTEX
  5
93D
  8
0
 62
    18
 10
237.2527258007812
 20
-230.2660059881366
 30
0.0
  0
VERTEX
  5
93E
  8
0
 62
    18
 10
236.1818595833333
 20
-230.3983425925926
 30
0.0
  0
VERTEX
  5
93F
  8
0
 62
    18
 10
235.2687565429687
 20
-230.5867218359375
 30
0.0
  0
VERTEX
  5
940
  8
0
 62
    18
 10
234.5255120312499
 20
-230.8349141782408
 30
0.0
  0
VERTEX
  5
941
  8
0
 62
    18
 10
233.9642213997395
 20
-231.1466900795718
 30
0.0
  0
VERTEX
  5
942
  8
0
 62
    18
 10
233.5969799999999
 20
-231.52582
 30
0.0
  0
SEQEND
  5
B10
  8
0
 62
    18
  0
POLYLINE
  5
547
  8
0
 62
    18
 66
     1
 10
0.0
 20
0.0
 30
0.0
  0
VERTEX
  5
943
  8
0
 62
    18
 10
233.5969799999999
 20
-231.52582
 30
0.0
  0
VERTEX
  5
944
  8
0
 62
    18
 10
233.7993994249132
 20
-232.0662746990741
 30
0.0
  0
VERTEX
  5
945
  8
0
 62
    18
 10
234.2189293576388
 20
-232.6778636342593
 30
0.0
  0
VERTEX
  5
946
  8
0
 62
    18
 10
234.8401635351562
 20
-233.3542978125
 30
0.0
  0
VERTEX
  5
947
  8
0
 62
    18
 10
235.6476956944444
 20
-234.0892882407408
 30
0.0
  0
VERTEX
  5
948
  8
0
 62
    18
 10
236.6261195724826
 20
-234.876545925926
 30
0.0
  0
VERTEX
  5
949
  8
0
 62
    18
 10
237.7600289062499
 20
-235.709781875
 30
0.0
  0
VERTEX
  5
94A
  8
0
 62
    18
 10
239.0340174327256
 20
-236.5827070949074
 30
0.0
  0
VERTEX
  5
94B
  8
0
 62
    18
 10
240.4326788888889
 20
-237.4890325925926
 30
0.0
  0
VERTEX
  5
94C
  8
0
 62
    18
 10
241.9406070117187
 20
-238.422469375
 30
0.0
  0
VERTEX
  5
94D
  8
0
 62
    18
 10
243.5423955381944
 20
-239.3767284490741
 30
0.0
  0
VERTEX
  5
94E
  8
0
 62
    18
 10
245.2226382052951
 20
-240.3455208217593
 30
0.0
  0
VERTEX
  5
94F
  8
0
 62
    18
 10
246.96592875
 20
-241.3225575
 30
0.0
  0
VERTEX
  5
950
  8
0
 62
    18
 10
248.7568609092882
 20
-242.3015494907408
 30
0.0
  0
VERTEX
  5
951
  8
0
 62
    18
 10
250.5800284201389
 20
-243.276207800926
 30
0.0
  0
VERTEX
  5
952
  8
0
 62
    18
 10
252.4200250195312
 20
-244.2402434375001
 30
0.0
  0
VERTEX
  5
953
  8
0
 62
    18
 10
254.2614444444444
 20
-245.1873674074074
 30
0.0
  0
VERTEX
  5
954
  8
0
 62
    18
 10
256.0888804318576
 20
-246.1112907175926
 30
0.0
  0
VERTEX
  5
955
  8
0
 62
    18
 10
257.8869267187499
 20
-247.005724375
 30
0.0
  0
VERTEX
  5
956
  8
0
 62
    18
 10
259.6401770421006
 20
-247.8643793865741
 30
0.0
  0
VERTEX
  5
957
  8
0
 62
    18
 10
261.3332251388888
 20
-248.6809667592593
 30
0.0
  0
VERTEX
  5
958
  8
0
 62
    18
 10
262.9506647460937
 20
-249.4491975
 30
0.0
  0
VERTEX
  5
959
  8
0
 62
    18
 10
264.4770896006944
 20
-250.1627826157408
 30
0.0
  0
VERTEX
  5
95A
  8
0
 62
    18
 10
265.8970934396701
 20
-250.8154331134259
 30
0.0
  0
VERTEX
  5
95B
  8
0
 62
    18
 10
267.1952699999999
 20
-251.40086
 30
0.0
  0
SEQEND
  5
B11
  8
0
 62
    18
  0
ARC
  5
548
  8
0
 62
    18
 10
555.8127800546147
 20
407.2239289120974
 30
0.0
 40
719.0873936314216
 50
246.3363741628947
 51
249.2284405915793
  0
POLYLINE
  5
549
  8
0
 62
    18
 66
     1
 10
0.0
 20
0.0
 30
0.0
  0
VERTEX
  5
95C
  8
0
 62
    18
 10
300.7935499999999
 20
-265.1241000000001
 30
0.0
  0
VERTEX
  5
95D
  8
0
 62
    18
 10
301.3752785677083
 20
-264.9894243359376
 30
0.0
  0
VERTEX
  5
95E
  8
0
 62
    18
 10
301.9377006249999
 20
-264.8501788541666
 30
0.0
  0
VERTEX
  5
95F
  8
0
 62
    18
 10
302.481226953125
 20
-264.7042583203126
 30
0.0
  0
VERTEX
  5
960
  8
0
 62
    18
 10
303.0062683333333
 20
-264.5495575000001
 30
0.0
  0
VERTEX
  5
961
  8
0
 62
    18
 10
303.5132355468749
 20
-264.3839711588543
 30
0.0
  0
VERTEX
  5
962
  8
0
 62
    18
 10
304.002539375
 20
-264.2053940625
 30
0.0
  0
VERTEX
  5
963
  8
0
 62
    18
 10
304.4745905989582
 20
-264.0117209765625
 30
0.0
  0
VERTEX
  5
964
  8
0
 62
    18
 10
304.9297999999999
 20
-263.8008466666667
 30
0.0
  0
VERTEX
  5
965
  8
0
 62
    18
 10
305.3685783593749
 20
-263.5706658984375
 30
0.0
  0
VERTEX
  5
966
  8
0
 62
    18
 10
305.7913364583333
 20
-263.3190734375
 30
0.0
  0
VERTEX
  5
967
  8
0
 62
    18
 10
306.1984850781249
 20
-263.0439640494792
 30
0.0
  0
VERTEX
  5
968
  8
0
 62
    18
 10
306.590435
 20
-262.7432325
 30
0.0
  0
VERTEX
  5
969
  8
0
 62
    18
 10
306.9675970052082
 20
-262.4147735546875
 30
0.0
  0
VERTEX
  5
96A
  8
0
 62
    18
 10
307.3303818749999
 20
-262.0564819791667
 30
0.0
  0
VERTEX
  5
96B
  8
0
 62
    18
 10
307.6792003906249
 20
-261.6662525390626
 30
0.0
  0
VERTEX
  5
96C
  8
0
 62
    18
 10
308.0144633333333
 20
-261.24198
 30
0.0
  0
VERTEX
  5
96D
  8
0
 62
    18
 10
308.336581484375
 20
-260.7815591276043
 30
0.0
  0
VERTEX
  5
96E
  8
0
 62
    18
 10
308.6459656249999
 20
-260.2828846875001
 30
0.0
  0
VERTEX
  5
96F
  8
0
 62
    18
 10
308.9430265364582
 20
-259.7438514453125
 30
0.0
  0
VERTEX
  5
970
  8
0
 62
    18
 10
309.2281749999999
 20
-259.1623541666668
 30
0.0
  0
VERTEX
  5
971
  8
0
 62
    18
 10
309.5018217968749
 20
-258.5362876171876
 30
0.0
  0
VERTEX
  5
972
  8
0
 62
    18
 10
309.7643777083333
 20
-257.8635465625001
 30
0.0
  0
VERTEX
  5
973
  8
0
 62
    18
 10
310.0162535156249
 20
-257.1420257682292
 30
0.0
  0
VERTEX
  5
974
  8
0
 62
    18
 10
310.2578599999999
 20
-256.3696200000001
 30
0.0
  0
SEQEND
  5
B12
  8
0
 62
    18
  0
POLYLINE
  5
54A
  8
0
 62
    18
 66
     1
 10
0.0
 20
0.0
 30
0.0
  0
VERTEX
  5
975
  8
0
 62
    18
 10
310.2578599999999
 20
-256.3696200000001
 30
0.0
  0
VERTEX
  5
976
  8
0
 62
    18
 10
310.4832041550925
 20
-255.5771448379631
 30
0.0
  0
VERTEX
  5
977
  8
0
 62
    18
 10
310.6853394907407
 20
-254.7964795370371
 30
0.0
  0
VERTEX
  5
978
  8
0
 62
    18
 10
310.8632390624999
 20
-254.0271106250001
 30
0.0
  0
VERTEX
  5
979
  8
0
 62
    18
 10
311.0158759259259
 20
-253.2685246296298
 30
0.0
  0
VERTEX
  5
97A
  8
0
 62
    18
 10
311.142223136574
 20
-252.5202080787038
 30
0.0
  0
VERTEX
  5
97B
  8
0
 62
    18
 10
311.2412537499999
 20
-251.7816475000001
 30
0.0
  0
VERTEX
  5
97C
  8
0
 62
    18
 10
311.3119408217592
 20
-251.0523294212964
 30
0.0
  0
VERTEX
  5
97D
  8
0
 62
    18
 10
311.3532574074073
 20
-250.3317403703705
 30
0.0
  0
VERTEX
  5
97E
  8
0
 62
    18
 10
311.3641765624999
 20
-249.6193668750001
 30
0.0
  0
VERTEX
  5
97F
  8
0
 62
    18
 10
311.3436713425925
 20
-248.9146954629631
 30
0.0
  0
VERTEX
  5
980
  8
0
 62
    18
 10
311.2907148032407
 20
-248.2172126620371
 30
0.0
  0
VERTEX
  5
981
  8
0
 62
    18
 10
311.2042799999999
 20
-247.5264050000001
 30
0.0
  0
VERTEX
  5
982
  8
0
 62
    18
 10
311.0833399884258
 20
-246.8417590046297
 30
0.0
  0
VERTEX
  5
983
  8
0
 62
    18
 10
310.926867824074
 20
-246.1627612037038
 30
0.0
  0
VERTEX
  5
984
  8
0
 62
    18
 10
310.7338365625
 20
-245.4888981250001
 30
0.0
  0
VERTEX
  5
985
  8
0
 62
    18
 10
310.5032192592592
 20
-244.8196562962964
 30
0.0
  0
VERTEX
  5
986
  8
0
 62
    18
 10
310.2339889699074
 20
-244.1545222453705
 30
0.0
  0
VERTEX
  5
987
  8
0
 62
    18
 10
309.9251187499999
 20
-243.4929825000001
 30
0.0
  0
VERTEX
  5
988
  8
0
 62
    18
 10
309.5755816550925
 20
-242.834523587963
 30
0.0
  0
VERTEX
  5
989
  8
0
 62
    18
 10
309.1843507407407
 20
-242.1786320370371
 30
0.0
  0
VERTEX
  5
98A
  8
0
 62
    18
 10
308.7503990624999
 20
-241.5247943750001
 30
0.0
  0
VERTEX
  5
98B
  8
0
 62
    18
 10
308.2726996759259
 20
-240.8724971296297
 30
0.0
  0
VERTEX
  5
98C
  8
0
 62
    18
 10
307.750225636574
 20
-240.2212268287038
 30
0.0
  0
VERTEX
  5
98D
  8
0
 62
    18
 10
307.1819499999999
 20
-239.5704700000001
 30
0.0
  0
SEQEND
  5
B13
  8
0
 62
    18
  0
LINE
  5
54B
  8
0
 62
    18
 10
307.1819499999999
 20
-239.5704700000001
 30
0.0
 11
307.18195
 21
-239.5704700000001
 31
0.0
  0
POLYLINE
  5
54C
  8
0
 62
    18
 66
     1
 10
0.0
 20
0.0
 30
0.0
 70
     1
  0
VERTEX
  5
98E
  8
0
 62
    18
 10
289.53992
 20
-398.1231962
 30
0.0
  0
VERTEX
  5
98F
  8
0
 62
    18
 10
288.0384823488317
 20
-398.2935781875076
 30
0.0
  0
VERTEX
  5
990
  8
0
 62
    18
 10
286.5947441045818
 20
-398.7981764658018
 30
0.0
  0
VERTEX
  5
991
  8
0
 62
    18
 10
285.2641873183192
 20
-399.6175996060296
 30
0.0
  0
VERTEX
  5
992
  8
0
 62
    18
 10
284.0979445411551
 20
-400.72035763645
 30
0.0
  0
VERTEX
  5
993
  8
0
 62
    18
 10
283.1408338289794
 20
-402.0640721843877
 30
0.0
  0
VERTEX
  5
994
  8
0
 62
    18
 10
282.4296364097071
 20
-403.5971050533293
 30
0.0
  0
VERTEX
  5
995
  8
0
 62
    18
 10
281.9916832013168
 20
-405.2605426498561
 30
0.0
  0
VERTEX
  5
996
  8
0
 62
    18
 10
281.8438045
 20
-406.99046
 30
0.0
  0
VERTEX
  5
997
  8
0
 62
    18
 10
281.9916832013168
 20
-408.720377350144
 30
0.0
  0
VERTEX
  5
998
  8
0
 62
    18
 10
282.4296364097071
 20
-410.3838149466708
 30
0.0
  0
VERTEX
  5
999
  8
0
 62
    18
 10
283.1408338289794
 20
-411.9168478156124
 30
0.0
  0
VERTEX
  5
99A
  8
0
 62
    18
 10
284.0979445411551
 20
-413.2605623635501
 30
0.0
  0
VERTEX
  5
99B
  8
0
 62
    18
 10
285.2641873183192
 20
-414.3633203939705
 30
0.0
  0
VERTEX
  5
99C
  8
0
 62
    18
 10
286.5947441045818
 20
-415.1827435341983
 30
0.0
  0
VERTEX
  5
99D
  8
0
 62
    18
 10
288.0384823488317
 20
-415.6873418124925
 30
0.0
  0
VERTEX
  5
99E
  8
0
 62
    18
 10
289.53992
 20
-415.8577238000001
 30
0.0
  0
VERTEX
  5
99F
  8
0
 62
    18
 10
291.0413576511683
 20
-415.6873418124925
 30
0.0
  0
VERTEX
  5
9A0
  8
0
 62
    18
 10
292.4850958954182
 20
-415.1827435341983
 30
0.0
  0
VERTEX
  5
9A1
  8
0
 62
    18
 10
293.8156526816808
 20
-414.3633203939705
 30
0.0
  0
VERTEX
  5
9A2
  8
0
 62
    18
 10
294.9818954588449
 20
-413.26056236355
 30
0.0
  0
VERTEX
  5
9A3
  8
0
 62
    18
 10
295.9390061710207
 20
-411.9168478156124
 30
0.0
  0
VERTEX
  5
9A4
  8
0
 62
    18
 10
296.6502035902929
 20
-410.3838149466707
 30
0.0
  0
VERTEX
  5
9A5
  8
0
 62
    18
 10
297.0881567986831
 20
-408.720377350144
 30
0.0
  0
VERTEX
  5
9A6
  8
0
 62
    18
 10
297.2360355
 20
-406.99046
 30
0.0
  0
VERTEX
  5
9A7
  8
0
 62
    18
 10
297.0881567986831
 20
-405.2605426498561
 30
0.0
  0
VERTEX
  5
9A8
  8
0
 62
    18
 10
296.6502035902928
 20
-403.5971050533293
 30
0.0
  0
VERTEX
  5
9A9
  8
0
 62
    18
 10
295.9390061710206
 20
-402.0640721843877
 30
0.0
  0
VERTEX
  5
9AA
  8
0
 62
    18
 10
294.9818954588449
 20
-400.72035763645
 30
0.0
  0
VERTEX
  5
9AB
  8
0
 62
    18
 10
293.8156526816808
 20
-399.6175996060296
 30
0.0
  0
VERTEX
  5
9AC
  8
0
 62
    18
 10
292.4850958954182
 20
-398.7981764658017
 30
0.0
  0
VERTEX
  5
9AD
  8
0
 62
    18
 10
291.0413576511683
 20
-398.2935781875076
 30
0.0
  0
SEQEND
  5
B14
  8
0
 62
    18
  0
ARC
  5
54D
  8
0
 62
    18
 10
253.7993456412351
 20
-240.3339929374573
 30
0.0
 40
11.84349497435711
 50
15.47478228076287
 51
44.80812207598801
  0
ARC
  5
54E
  8
0
 62
    18
 10
260.8813369887823
 20
-234.8316799999998
 30
0.0
 40
4.924826799249105
 50
331.6008841579765
 51
28.39911584202057
  0
ARC
  5
54F
  8
0
 62
    18
 10
268.520020224064
 20
-251.402781831621
 30
0.0
 40
25.06948164729067
 50
19.51138825956319
 51
37.90040630831653
  0
ARC
  5
550
  8
0
 62
    18
 10
287.1096152023007
 20
-239.8074904354052
 30
0.0
 40
5.982234816794574
 50
327.4093649255339
 51
35.45470765702333
  0
ARC
  5
551
  8
0
 62
    18
 10
256.9255878133599
 20
-241.2369831535133
 30
0.0
 40
10.1040448371433
 50
305.5477509440412
 51
335.4149853961886
  0
POLYLINE
  5
552
  8
0
 62
    18
 66
     1
 10
0.0
 20
0.0
 30
0.0
  0
VERTEX
  5
9AE
  8
0
 62
    18
 10
266.11365
 20
-245.4407
 30
0.0
  0
VERTEX
  5
9AF
  8
0
 62
    18
 10
266.1249817165799
 20
-245.4605334244793
 30
0.0
  0
VERTEX
  5
9B0
  8
0
 62
    18
 10
266.1572335243056
 20
-245.5182901041667
 30
0.0
  0
VERTEX
  5
9B1
  8
0
 62
    18
 10
266.2077904101562
 20
-245.6113546484376
 30
0.0
  0
VERTEX
  5
9B2
  8
0
 62
    18
 10
266.2740373611111
 20
-245.7371116666667
 30
0.0
  0
VERTEX
  5
9B3
  8
0
 62
    18
 10
266.3533593641494
 20
-245.8929457682292
 30
0.0
  0
VERTEX
  5
9B4
  8
0
 62
    18
 10
266.44314140625
 20
-246.0762415625001
 30
0.0
  0
VERTEX
  5
9B5
  8
0
 62
    18
 10
266.5407684743924
 20
-246.2843836588542
 30
0.0
  0
VERTEX
  5
9B6
  8
0
 62
    18
 10
266.6436255555556
 20
-246.5147566666667
 30
0.0
  0
VERTEX
  5
9B7
  8
0
 62
    18
 10
266.7490976367187
 20
-246.7647451953125
 30
0.0
  0
VERTEX
  5
9B8
  8
0
 62
    18
 10
266.8545697048611
 20
-247.0317338541667
 30
0.0
  0
VERTEX
  5
9B9
  8
0
 62
    18
 10
266.9574267469618
 20
-247.3131072526043
 30
0.0
  0
VERTEX
  5
9BA
  8
0
 62
    18
 10
267.05505375
 20
-247.60625
 30
0.0
  0
VERTEX
  5
9BB
  8
0
 62
    18
 10
267.1448357009548
 20
-247.9085467057292
 30
0.0
  0
VERTEX
  5
9BC
  8
0
 62
    18
 10
267.2241575868056
 20
-248.2173819791667
 30
0.0
  0
VERTEX
  5
9BD
  8
0
 62
    18
 10
267.2904043945313
 20
-248.5301404296875
 30
0.0
  0
VERTEX
  5
9BE
  8
0
 62
    18
 10
267.3409611111111
 20
-248.8442066666667
 30
0.0
  0
VERTEX
  5
9BF
  8
0
 62
    18
 10
267.3732127235243
 20
-249.1569652994792
 30
0.0
  0
VERTEX
  5
9C0
  8
0
 62
    18
 10
267.38454421875
 20
-249.4658009375
 30
0.0
  0
VERTEX
  5
9C1
  8
0
 62
    18
 10
267.3723405837674
 20
-249.7680981901042
 30
0.0
  0
VERTEX
  5
9C2
  8
0
 62
    18
 10
267.3339868055556
 20
-250.0612416666667
 30
0.0
  0
VERTEX
  5
9C3
  8
0
 62
    18
 10
267.2668678710938
 20
-250.3426159765625
 30
0.0
  0
VERTEX
  5
9C4
  8
0
 62
    18
 10
267.1683687673611
 20
-250.6096057291667
 30
0.0
  0
VERTEX
  5
9C5
  8
0
 62
    18
 10
267.0358744813368
 20
-250.8595955338542
 30
0.0
  0
VERTEX
  5
9C6
  8
0
 62
    18
 10
266.86677
 20
-251.0899700000001
 30
0.0
  0
SEQEND
  5
B15
  8
0
 62
    18
  0
ARC
  5
553
  8
0
 62
    18
 10
277.1515611600833
 20
-249.2612139323329
 30
0.0
 40
12.82932030980851
 50
312.0926030038186
 51
343.251381289965
  0
POLYLINE
  5
554
  8
0
 62
    18
 66
     1
 10
0.0
 20
0.0
 30
0.0
  0
VERTEX
  5
9C7
  8
0
 62
    18
 10
289.43664
 20
-252.95828
 30
0.0
  0
VERTEX
  5
9C8
  8
0
 62
    18
 10
289.4442420710359
 20
-252.9844062934028
 30
0.0
  0
VERTEX
  5
9C9
  8
0
 62
    18
 10
289.465687818287
 20
-253.0604182638889
 30
0.0
  0
VERTEX
  5
9CA
  8
0
 62
    18
 10
289.4989365429687
 20
-253.182765546875
 30
0.0
  0
VERTEX
  5
9CB
  8
0
 62
    18
 10
289.5419475462963
 20
-253.3478977777778
 30
0.0
  0
VERTEX
  5
9CC
  8
0
 62
    18
 10
289.5926801294849
 20
-253.5522645920139
 30
0.0
  0
VERTEX
  5
9CD
  8
0
 62
    18
 10
289.64909359375
 20
-253.792315625
 30
0.0
  0
VERTEX
  5
9CE
  8
0
 62
    18
 10
289.7091472403067
 20
-254.0645005121528
 30
0.0
  0
VERTEX
  5
9CF
  8
0
 62
    18
 10
289.7708003703704
 20
-254.3652688888889
 30
0.0
  0
VERTEX
  5
9D0
  8
0
 62
    18
 10
289.8320122851562
 20
-254.691070390625
 30
0.0
  0
VERTEX
  5
9D1
  8
0
 62
    18
 10
289.8907422858796
 20
-255.0383546527778
 30
0.0
  0
VERTEX
  5
9D2
  8
0
 62
    18
 10
289.9449496737557
 20
-255.4035713107639
 30
0.0
  0
VERTEX
  5
9D3
  8
0
 62
    18
 10
289.99259375
 20
-255.78317
 30
0.0
  0
VERTEX
  5
9D4
  8
0
 62
    18
 10
290.0316338158275
 20
-256.1736003559027
 30
0.0
  0
VERTEX
  5
9D5
  8
0
 62
    18
 10
290.0600291724537
 20
-256.5713120138889
 30
0.0
  0
VERTEX
  5
9D6
  8
0
 62
    18
 10
290.0757391210937
 20
-256.972754609375
 30
0.0
  0
VERTEX
  5
9D7
  8
0
 62
    18
 10
290.0767229629629
 20
-257.3743777777777
 30
0.0
  0
VERTEX
  5
9D8
  8
0
 62
    18
 10
290.0609399992766
 20
-257.7726311545139
 30
0.0
  0
VERTEX
  5
9D9
  8
0
 62
    18
 10
290.0263495312499
 20
-258.163964375
 30
0.0
  0
VERTEX
  5
9DA
  8
0
 62
    18
 10
289.9709108600983
 20
-258.5448270746527
 30
0.0
  0
VERTEX
  5
9DB
  8
0
 62
    18
 10
289.892583287037
 20
-258.9116688888889
 30
0.0
  0
VERTEX
  5
9DC
  8
0
 62
    18
 10
289.7893261132812
 20
-259.2609394531249
 30
0.0
  0
VERTEX
  5
9DD
  8
0
 62
    18
 10
289.6590986400463
 20
-259.5890884027777
 30
0.0
  0
VERTEX
  5
9DE
  8
0
 62
    18
 10
289.4998601685474
 20
-259.8925653732638
 30
0.0
  0
VERTEX
  5
9DF
  8
0
 62
    18
 10
289.30957
 20
-260.1678199999999
 30
0.0
  0
SEQEND
  5
B16
  8
0
 62
    18
  0
LINE
  5
555
  8
0
 62
    18
 10
291.04567
 20
-175.43774
 30
0.0
 11
286.52838
 21
-179.95503
 31
0.0
  0
POLYLINE
  5
556
  8
0
 62
    18
 66
     1
 10
0.0
 20
0.0
 30
0.0
  0
VERTEX
  5
9E0
  8
0
 62
    18
 10
286.52838
 20
-179.95503
 30
0.0
  0
VERTEX
  5
9E1
  8
0
 62
    18
 10
286.601625180845
 20
-180.0348469039352
 30
0.0
  0
VERTEX
  5
9E2
  8
0
 62
    18
 10
286.8215543634259
 20
-180.2694081481482
 30
0.0
  0
VERTEX
  5
9E3
  8
0
 62
    18
 10
287.1884580078125
 20
-180.65137953125
 30
0.0
  0
VERTEX
  5
9E4
  8
0
 62
    18
 10
287.7026265740741
 20
-181.1734268518519
 30
0.0
  0
VERTEX
  5
9E5
  8
0
 62
    18
 10
288.3643505222801
 20
-181.8282159085649
 30
0.0
  0
VERTEX
  5
9E6
  8
0
 62
    18
 10
289.1739203124999
 20
-182.6084125
 30
0.0
  0
VERTEX
  5
9E7
  8
0
 62
    18
 10
290.1316264048032
 20
-183.5066824247685
 30
0.0
  0
VERTEX
  5
9E8
  8
0
 62
    18
 10
291.2377592592592
 20
-184.5156914814815
 30
0.0
  0
VERTEX
  5
9E9
  8
0
 62
    18
 10
292.4926093359375
 20
-185.6281054687501
 30
0.0
  0
VERTEX
  5
9EA
  8
0
 62
    18
 10
293.8964670949075
 20
-186.8365901851852
 30
0.0
  0
VERTEX
  5
9EB
  8
0
 62
    18
 10
295.4496229962384
 20
-188.1338114293982
 30
0.0
  0
VERTEX
  5
9EC
  8
0
 62
    18
 10
297.1523675
 20
-189.512435
 30
0.0
  0
VERTEX
  5
9ED
  8
0
 62
    18
 10
299.0049910662616
 20
-190.9651266956019
 30
0.0
  0
VERTEX
  5
9EE
  8
0
 62
    18
 10
301.0077841550926
 20
-192.4845523148149
 30
0.0
  0
VERTEX
  5
9EF
  8
0
 62
    18
 10
303.1610372265625
 20
-194.06337765625
 30
0.0
  0
VERTEX
  5
9F0
  8
0
 62
    18
 10
305.4650407407407
 20
-195.6942685185185
 30
0.0
  0
VERTEX
  5
9F1
  8
0
 62
    18
 10
307.9200851576967
 20
-197.3698907002315
 30
0.0
  0
VERTEX
  5
9F2
  8
0
 62
    18
 10
310.5264609375
 20
-199.08291
 30
0.0
  0
VERTEX
  5
9F3
  8
0
 62
    18
 10
313.2844585402198
 20
-200.8259922164352
 30
0.0
  0
VERTEX
  5
9F4
  8
0
 62
    18
 10
316.1943684259259
 20
-202.5918031481482
 30
0.0
  0
VERTEX
  5
9F5
  8
0
 62
    18
 10
319.2564810546875
 20
-204.37300859375
 30
0.0
  0
VERTEX
  5
9F6
  8
0
 62
    18
 10
322.471086886574
 20
-206.1622743518519
 30
0.0
  0
VERTEX
  5
9F7
  8
0
 62
    18
 10
325.838476381655
 20
-207.9522662210648
 30
0.0
  0
VERTEX
  5
9F8
  8
0
 62
    18
 10
329.35894
 20
-209.73565
 30
0.0
  0
SEQEND
  5
B17
  8
0
 62
    18
  0
ARC
  5
557
  8
0
 62
    18
 10
522.4963121459485
 20
193.5505699591896
 30
0.0
 40
447.1485432475601
 50
244.4098234190072
 51
252.7534670936181
  0
LINE
  5
558
  8
0
 62
    18
 10
389.92402
 20
-233.49323
 30
0.0
 11
389.75671
 21
-226.29903
 31
0.0
  0
POLYLINE
  5
559
  8
0
 62
    18
 66
     1
 10
0.0
 20
0.0
 30
0.0
  0
VERTEX
  5
9F9
  8
0
 62
    18
 10
389.75671
 20
-226.29903
 30
0.0
  0
VERTEX
  5
9FA
  8
0
 62
    18
 10
389.6494564301216
 20
-226.2826187912326
 30
0.0
  0
VERTEX
  5
9FB
  8
0
 62
    18
 10
389.3308908159723
 20
-226.2304805381944
 30
0.0
  0
VERTEX
  5
9FC
  8
0
 62
    18
 10
388.8058058007812
 20
-226.1382583007812
 30
0.0
  0
VERTEX
  5
9FD
  8
0
 62
    18
 10
388.0789940277779
 20
-226.0015951388889
 30
0.0
  0
VERTEX
  5
9FE
  8
0
 62
    18
 10
387.155248140191
 20
-225.8161341124132
 30
0.0
  0
VERTEX
  5
9FF
  8
0
 62
    18
 10
386.03936078125
 20
-225.57751828125
 30
0.0
  0
VERTEX
  5
A00
  8
0
 62
    18
 10
384.736124594184
 20
-225.2813907052951
 30
0.0
  0
VERTEX
  5
A01
  8
0
 62
    18
 10
383.2503322222222
 20
-224.9233944444444
 30
0.0
  0
VERTEX
  5
A02
  8
0
 62
    18
 10
381.5867763085937
 20
-224.4991725585937
 30
0.0
  0
VERTEX
  5
A03
  8
0
 62
    18
 10
379.7502494965278
 20
-224.0043681076388
 30
0.0
  0
VERTEX
  5
A04
  8
0
 62
    18
 10
377.7455444292535
 20
-223.4346241514756
 30
0.0
  0
VERTEX
  5
A05
  8
0
 62
    18
 10
375.57745375
 20
-222.78558375
 30
0.0
  0
VERTEX
  5
A06
  8
0
 62
    18
 10
373.2507701019965
 20
-222.0528899631076
 30
0.0
  0
VERTEX
  5
A07
  8
0
 62
    18
 10
370.7702861284722
 20
-221.2321858506944
 30
0.0
  0
VERTEX
  5
A08
  8
0
 62
    18
 10
368.1407944726563
 20
-220.3191144726562
 30
0.0
  0
VERTEX
  5
A09
  8
0
 62
    18
 10
365.3670877777778
 20
-219.3093188888888
 30
0.0
  0
VERTEX
  5
A0A
  8
0
 62
    18
 10
362.453958687066
 20
-218.1984421592882
 30
0.0
  0
VERTEX
  5
A0B
  8
0
 62
    18
 10
359.40619984375
 20
-216.9821273437499
 30
0.0
  0
VERTEX
  5
A0C
  8
0
 62
    18
 10
356.228603891059
 20
-215.6560175021701
 30
0.0
  0
VERTEX
  5
A0D
  8
0
 62
    18
 10
352.9259634722222
 20
-214.2157556944444
 30
0.0
  0
VERTEX
  5
A0E
  8
0
 62
    18
 10
349.5030712304688
 20
-212.6569849804687
 30
0.0
  0
VERTEX
  5
A0F
  8
0
 62
    18
 10
345.9647198090278
 20
-210.9753484201389
 30
0.0
  0
VERTEX
  5
A10
  8
0
 62
    18
 10
342.3157018511285
 20
-209.1664890733506
 30
0.0
  0
VERTEX
  5
A11
  8
0
 62
    18
 10
338.56081
 20
-207.2260499999999
 30
0.0
  0
SEQEND
  5
B18
  8
0
 62
    18
  0
POLYLINE
  5
55A
  8
0
 62
    18
 66
     1
 10
0.0
 20
0.0
 30
0.0
  0
VERTEX
  5
A12
  8
0
 62
    18
 10
338.56081
 20
-207.2260499999999
 30
0.0
  0
VERTEX
  5
A13
  8
0
 62
    18
 10
334.8245562565104
 20
-205.2212237037036
 30
0.0
  0
VERTEX
  5
A14
  8
0
 62
    18
 10
331.2293225520833
 20
-203.2265635879629
 30
0.0
  0
VERTEX
  5
A15
  8
0
 62
    18
 10
327.7767064257813
 20
-201.2487503124999
 30
0.0
  0
VERTEX
  5
A16
  8
0
 62
    18
 10
324.4683054166667
 20
-199.294464537037
 30
0.0
  0
VERTEX
  5
A17
  8
0
 62
    18
 10
321.3057170638021
 20
-197.3703869212962
 30
0.0
  0
VERTEX
  5
A18
  8
0
 62
    18
 10
318.29053890625
 20
-195.4831981249999
 30
0.0
  0
VERTEX
  5
A19
  8
0
 62
    18
 10
315.4243684830729
 20
-193.6395788078703
 30
0.0
  0
VERTEX
  5
A1A
  8
0
 62
    18
 10
312.7088033333333
 20
-191.8462096296296
 30
0.0
  0
VERTEX
  5
A1B
  8
0
 62
    18
 10
310.1454409960937
 20
-190.1097712499999
 30
0.0
  0
VERTEX
  5
A1C
  8
0
 62
    18
 10
307.7358790104166
 20
-188.4369443287036
 30
0.0
  0
VERTEX
  5
A1D
  8
0
 62
    18
 10
305.4817149153646
 20
-186.8344095254629
 30
0.0
  0
VERTEX
  5
A1E
  8
0
 62
    18
 10
303.38454625
 20
-185.3088474999999
 30
0.0
  0
VERTEX
  5
A1F
  8
0
 62
    18
 10
301.4459705533854
 20
-183.8669389120369
 30
0.0
  0
VERTEX
  5
A20
  8
0
 62
    18
 10
299.6675853645833
 20
-182.5153644212962
 30
0.0
  0
VERTEX
  5
A21
  8
0
 62
    18
 10
298.0509882226563
 20
-181.2608046874999
 30
0.0
  0
VERTEX
  5
A22
  8
0
 62
    18
 10
296.5977766666666
 20
-180.1099403703703
 30
0.0
  0
VERTEX
  5
A23
  8
0
 62
    18
 10
295.3095482356771
 20
-179.0694521296296
 30
0.0
  0
VERTEX
  5
A24
  8
0
 62
    18
 10
294.1879004687499
 20
-178.1460206249999
 30
0.0
  0
VERTEX
  5
A25
  8
0
 62
    18
 10
293.2344309049479
 20
-177.3463265162036
 30
0.0
  0
VERTEX
  5
A26
  8
0
 62
    18
 10
292.4507370833333
 20
-176.6770504629629
 30
0.0
  0
VERTEX
  5
A27
  8
0
 62
    18
 10
291.8384165429687
 20
-176.1448731249999
 30
0.0
  0
VERTEX
  5
A28
  8
0
 62
    18
 10
291.3990668229167
 20
-175.756475162037
 30
0.0
  0
VERTEX
  5
A29
  8
0
 62
    18
 10
291.1342854622396
 20
-175.5185372337962
 30
0.0
  0
VERTEX
  5
A2A
  8
0
 62
    18
 10
291.04567
 20
-175.4377399999999
 30
0.0
  0
SEQEND
  5
B19
  8
0
 62
    18
  0
LINE
  5
55B
  8
0
 62
    18
 10
291.04567
 20
-175.4377399999999
 30
0.0
 11
291.04567
 21
-175.43774
 31
0.0
  0
ARC
  5
55C
  8
0
 62
    18
 10
393.0975035394972
 20
-175.8249581531229
 30
0.0
 40
83.06900622548531
 50
170.6909982099937
 51
190.6413869153174
  0
ARC
  5
55D
  8
0
 62
    18
 10
1214.688827926717
 20
-328.0684870259253
 30
0.0
 40
918.6306187875879
 50
167.6509116766349
 51
169.6094950781933
  0
POLYLINE
  5
55E
  8
0
 62
    18
 66
     1
 10
0.0
 20
0.0
 30
0.0
  0
VERTEX
  5
A2B
  8
0
 62
    18
 10
317.3128400000001
 20
-131.60335
 30
0.0
  0
VERTEX
  5
A2C
  8
0
 62
    18
 10
317.4250314561633
 20
-131.6132741854745
 30
0.0
  0
VERTEX
  5
A2D
  8
0
 62
    18
 10
317.7537633159723
 20
-131.6444022337963
 30
0.0
  0
VERTEX
  5
A2E
  8
0
 62
    18
 10
318.2872718164063
 20
-131.6987673828125
 30
0.0
  0
VERTEX
  5
A2F
  8
0
 62
    18
 10
319.0137931944445
 20
-131.7784028703704
 30
0.0
  0
VERTEX
  5
A30
  8
0
 62
    18
 10
319.9215636870661
 20
-131.8853419343171
 30
0.0
  0
VERTEX
  5
A31
  8
0
 62
    18
 10
320.99881953125
 20
-132.0216178125
 30
0.0
  0
VERTEX
  5
A32
  8
0
 62
    18
 10
322.2337969639757
 20
-132.1892637427661
 30
0.0
  0
VERTEX
  5
A33
  8
0
 62
    18
 10
323.6147322222222
 20
-132.390312962963
 30
0.0
  0
VERTEX
  5
A34
  8
0
 62
    18
 10
325.1298615429688
 20
-132.6267987109375
 30
0.0
  0
VERTEX
  5
A35
  8
0
 62
    18
 10
326.7674211631945
 20
-132.900754224537
 30
0.0
  0
VERTEX
  5
A36
  8
0
 62
    18
 10
328.5156473198786
 20
-133.2142127416088
 30
0.0
  0
VERTEX
  5
A37
  8
0
 62
    18
 10
330.3627762500001
 20
-133.5692075
 30
0.0
  0
VERTEX
  5
A38
  8
0
 62
    18
 10
332.2970441905383
 20
-133.9677717375579
 30
0.0
  0
VERTEX
  5
A39
  8
0
 62
    18
 10
334.3066873784722
 20
-134.4119386921296
 30
0.0
  0
VERTEX
  5
A3A
  8
0
 62
    18
 10
336.3799420507813
 20
-134.9037416015625
 30
0.0
  0
VERTEX
  5
A3B
  8
0
 62
    18
 10
338.5050444444445
 20
-135.4452137037037
 30
0.0
  0
VERTEX
  5
A3C
  8
0
 62
    18
 10
340.670230796441
 20
-136.0383882364004
 30
0.0
  0
VERTEX
  5
A3D
  8
0
 62
    18
 10
342.86373734375
 20
-136.6852984375
 30
0.0
  0
VERTEX
  5
A3E
  8
0
 62
    18
 10
345.0738003233507
 20
-137.3879775448495
 30
0.0
  0
VERTEX
  5
A3F
  8
0
 62
    18
 10
347.2886559722223
 20
-138.1484587962963
 30
0.0
  0
VERTEX
  5
A40
  8
0
 62
    18
 10
349.4965405273438
 20
-138.9687754296875
 30
0.0
  0
VERTEX
  5
A41
  8
0
 62
    18
 10
351.6856902256945
 20
-139.8509606828703
 30
0.0
  0
VERTEX
  5
A42
  8
0
 62
    18
 10
353.8443413042535
 20
-140.7970477936921
 30
0.0
  0
VERTEX
  5
A43
  8
0
 62
    18
 10
355.9607300000001
 20
-141.80907
 30
0.0
  0
SEQEND
  5
B1A
  8
0
 62
    18
  0
POLYLINE
  5
55F
  8
0
 62
    18
 66
     1
 10
0.0
 20
0.0
 30
0.0
  0
VERTEX
  5
A44
  8
0
 62
    18
 10
355.9607300000001
 20
-141.80907
 30
0.0
  0
VERTEX
  5
A45
  8
0
 62
    18
 10
358.0593277886286
 20
-142.8990331857638
 30
0.0
  0
VERTEX
  5
A46
  8
0
 62
    18
 10
360.1666393923612
 20
-144.0700356944444
 30
0.0
  0
VERTEX
  5
A47
  8
0
 62
    18
 10
362.2739509179688
 20
-145.310749453125
 30
0.0
  0
VERTEX
  5
A48
  8
0
 62
    18
 10
364.3725484722223
 20
-146.6098463888889
 30
0.0
  0
VERTEX
  5
A49
  8
0
 62
    18
 10
366.4537181618925
 20
-147.9559984288194
 30
0.0
  0
VERTEX
  5
A4A
  8
0
 62
    18
 10
368.5087460937501
 20
-149.3378775
 30
0.0
  0
VERTEX
  5
A4B
  8
0
 62
    18
 10
370.528918374566
 20
-150.7441555295138
 30
0.0
  0
VERTEX
  5
A4C
  8
0
 62
    18
 10
372.5055211111111
 20
-152.1635044444444
 30
0.0
  0
VERTEX
  5
A4D
  8
0
 62
    18
 10
374.4298404101563
 20
-153.5845961718749
 30
0.0
  0
VERTEX
  5
A4E
  8
0
 62
    18
 10
376.2931623784723
 20
-154.9961026388889
 30
0.0
  0
VERTEX
  5
A4F
  8
0
 62
    18
 10
378.0867731228299
 20
-156.3866957725694
 30
0.0
  0
VERTEX
  5
A50
  8
0
 62
    18
 10
379.80195875
 20
-157.7450475
 30
0.0
  0
VERTEX
  5
A51
  8
0
 62
    18
 10
381.4300053667535
 20
-159.0598297482639
 30
0.0
  0
VERTEX
  5
A52
  8
0
 62
    18
 10
382.9621990798611
 20
-160.3197144444444
 30
0.0
  0
VERTEX
  5
A53
  8
0
 62
    18
 10
384.3898259960938
 20
-161.513373515625
 30
0.0
  0
VERTEX
  5
A54
  8
0
 62
    18
 10
385.7041722222223
 20
-162.6294788888889
 30
0.0
  0
VERTEX
  5
A55
  8
0
 62
    18
 10
386.8965238650175
 20
-163.6567024913194
 30
0.0
  0
VERTEX
  5
A56
  8
0
 62
    18
 10
387.9581670312501
 20
-164.58371625
 30
0.0
  0
VERTEX
  5
A57
  8
0
 62
    18
 10
388.880387827691
 20
-165.3991920920139
 30
0.0
  0
VERTEX
  5
A58
  8
0
 62
    18
 10
389.6544723611112
 20
-166.0918019444444
 30
0.0
  0
VERTEX
  5
A59
  8
0
 62
    18
 10
390.2717067382813
 20
-166.650217734375
 30
0.0
  0
VERTEX
  5
A5A
  8
0
 62
    18
 10
390.7233770659723
 20
-167.0631113888889
 30
0.0
  0
VERTEX
  5
A5B
  8
0
 62
    18
 10
391.0007694509549
 20
-167.3191548350694
 30
0.0
  0
VERTEX
  5
A5C
  8
0
 62
    18
 10
391.0951700000001
 20
-167.40702
 30
0.0
  0
SEQEND
  5
B1B
  8
0
 62
    18
  0
ARC
  5
560
  8
0
 62
    18
 10
82.67969792973526
 20
-6.564519593275577
 30
0.0
 40
347.836762504212
 50
327.2939774806433
 51
332.4573994087864
  0
ARC
  5
561
  8
0
 62
    18
 10
-337.8132686641151
 20
323.1218667023392
 30
0.0
 40
881.2329418728676
 50
322.2326416927604
 51
324.0275713175934
  0
ARC
  5
562
  8
0
 62
    18
 10
299.5145646407872
 20
-280.5203373774361
 30
0.0
 40
103.7517111818561
 50
66.59009390188808
 51
84.31948992826402
  0
ARC
  5
563
  8
0
 62
    18
 10
256.0120927644591
 20
-358.3316134886613
 30
0.0
 40
192.6524935031644
 50
53.96510851613788
 51
63.91048813473456
  0
ARC
  5
564
  8
0
 62
    18
 10
297.9309135974339
 20
-290.5638095992394
 30
0.0
 40
116.2219568631182
 50
51.0338733498796
 51
66.51347123493827
  0
ARC
  5
565
  8
0
 62
    18
 10
291.8026841654179
 20
-303.8771495511088
 30
0.0
 40
130.8750199837755
 50
66.37569081253723
 51
82.02901196434166
  0
LINE
  5
566
  8
0
 62
    18
 10
370.0145
 20
-325.512
 30
0.0
 11
405.65087
 21
-308.4467
 31
0.0
  0
LINE
  5
567
  8
0
 62
    18
 10
405.65087
 20
-308.4467
 30
0.0
 11
425.22577
 21
-279.1680000000001
 31
0.0
  0
LINE
  5
568
  8
0
 62
    18
 10
425.22577
 20
-279.1680000000001
 30
0.0
 11
426.56423
 21
-259.0911800000001
 31
0.0
  0
LINE
  5
569
  8
0
 62
    18
 10
426.56423
 20
-259.0911800000001
 30
0.0
 11
436.43533
 21
-259.0911800000001
 31
0.0
  0
LINE
  5
56A
  8
0
 62
    18
 10
436.43533
 20
-259.0911800000001
 30
0.0
 11
433.75842
 21
-269.9661200000001
 31
0.0
  0
LINE
  5
56B
  8
0
 62
    18
 10
433.75842
 20
-269.9661200000001
 30
0.0
 11
462.7025
 21
-255.4104300000001
 31
0.0
  0
LINE
  5
56C
  8
0
 62
    18
 10
462.7025
 20
-255.4104300000001
 30
0.0
 11
468.72556
 21
-262.6046200000001
 31
0.0
  0
LINE
  5
56D
  8
0
 62
    18
 10
468.72556
 20
-262.6046200000001
 30
0.0
 11
439.61416
 21
-272.9776500000001
 31
0.0
  0
LINE
  5
56E
  8
0
 62
    18
 10
439.61416
 20
-272.9776500000001
 30
0.0
 11
470.06401
 21
-277.1603100000002
 31
0.0
  0
LINE
  5
56F
  8
0
 62
    18
 10
470.06401
 20
-277.1603100000002
 30
0.0
 11
468.39094
 21
-285.8602800000002
 31
0.0
  0
LINE
  5
570
  8
0
 62
    18
 10
468.39094
 20
-285.8602800000002
 30
0.0
 11
434.76227
 21
-277.6622400000002
 31
0.0
  0
LINE
  5
571
  8
0
 62
    18
 10
434.76227
 20
-277.6622400000002
 30
0.0
 11
416.69312
 21
-309.2832400000001
 31
0.0
  0
POLYLINE
  5
572
  8
0
 62
    18
 66
     1
 10
0.0
 20
0.0
 30
0.0
  0
VERTEX
  5
A5D
  8
0
 62
    18
 10
416.69312
 20
-309.2832400000001
 30
0.0
  0
VERTEX
  5
A5E
  8
0
 62
    18
 10
416.3635049826389
 20
-309.7320540371819
 30
0.0
  0
VERTEX
  5
A5F
  8
0
 62
    18
 10
416.0046256944445
 20
-310.1585022974538
 30
0.0
  0
VERTEX
  5
A60
  8
0
 62
    18
 10
415.6203307812501
 20
-310.5628752539064
 30
0.0
  0
VERTEX
  5
A61
  8
0
 62
    18
 10
415.214468888889
 20
-310.9454633796298
 30
0.0
  0
VERTEX
  5
A62
  8
0
 62
    18
 10
414.7908886631945
 20
-311.3065571477142
 30
0.0
  0
VERTEX
  5
A63
  8
0
 62
    18
 10
414.3534387500001
 20
-311.6464470312501
 30
0.0
  0
VERTEX
  5
A64
  8
0
 62
    18
 10
413.9059677951389
 20
-311.9654235033277
 30
0.0
  0
VERTEX
  5
A65
  8
0
 62
    18
 10
413.4523244444445
 20
-312.2637770370372
 30
0.0
  0
VERTEX
  5
A66
  8
0
 62
    18
 10
412.99635734375
 20
-312.541798105469
 30
0.0
  0
VERTEX
  5
A67
  8
0
 62
    18
 10
412.541915138889
 20
-312.7997771817131
 30
0.0
  0
VERTEX
  5
A68
  8
0
 62
    18
 10
412.0928464756945
 20
-313.0380047388601
 30
0.0
  0
VERTEX
  5
A69
  8
0
 62
    18
 10
411.653
 20
-313.2567712500001
 30
0.0
  0
VERTEX
  5
A6A
  8
0
 62
    18
 10
411.226224357639
 20
-313.4563671882236
 30
0.0
  0
VERTEX
  5
A6B
  8
0
 62
    18
 10
410.8163681944445
 20
-313.6370830266205
 30
0.0
  0
VERTEX
  5
A6C
  8
0
 62
    18
 10
410.4272801562501
 20
-313.7992092382814
 30
0.0
  0
VERTEX
  5
A6D
  8
0
 62
    18
 10
410.0628088888889
 20
-313.9430362962964
 30
0.0
  0
VERTEX
  5
A6E
  8
0
 62
    18
 10
409.7268030381945
 20
-314.0688546737559
 30
0.0
  0
VERTEX
  5
A6F
  8
0
 62
    18
 10
409.42311125
 20
-314.1769548437502
 30
0.0
  0
VERTEX
  5
A70
  8
0
 62
    18
 10
409.1555821701389
 20
-314.2676272793693
 30
0.0
  0
VERTEX
  5
A71
  8
0
 62
    18
 10
408.9280644444444
 20
-314.3411624537039
 30
0.0
  0
VERTEX
  5
A72
  8
0
 62
    18
 10
408.74440671875
 20
-314.397850839844
 30
0.0
  0
VERTEX
  5
A73
  8
0
 62
    18
 10
408.6084576388889
 20
-314.4379829108798
 30
0.0
  0
VERTEX
  5
A74
  8
0
 62
    18
 10
408.5240658506945
 20
-314.4618491399018
 30
0.0
  0
VERTEX
  5
A75
  8
0
 62
    18
 10
408.49508
 20
-314.4697400000002
 30
0.0
  0
SEQEND
  5
B1C
  8
0
 62
    18
  0
LINE
  5
573
  8
0
 62
    18
 10
408.49508
 20
-314.4697400000002
 30
0.0
 11
372.18949
 21
-336.2196400000002
 31
0.0
  0
POLYLINE
  5
574
  8
0
 62
    18
 66
     1
 10
0.0
 20
0.0
 30
0.0
  0
VERTEX
  5
A76
  8
0
 62
    18
 10
248.54972
 20
-326.34853
 30
0.0
  0
VERTEX
  5
A77
  8
0
 62
    18
 10
248.3917322012442
 20
-326.3221099558739
 30
0.0
  0
VERTEX
  5
A78
  8
0
 62
    18
 10
247.934131568287
 20
-326.2452219386574
 30
0.0
  0
VERTEX
  5
A79
  8
0
 62
    18
 10
247.2014622460938
 20
-326.1214241210938
 30
0.0
  0
VERTEX
  5
A7A
  8
0
 62
    18
 10
246.2182683796296
 20
-325.9542746759259
 30
0.0
  0
VERTEX
  5
A7B
  8
0
 62
    18
 10
245.00909411386
 20
-325.747331775897
 30
0.0
  0
VERTEX
  5
A7C
  8
0
 62
    18
 10
243.59848359375
 20
-325.5041535937501
 30
0.0
  0
VERTEX
  5
A7D
  8
0
 62
    18
 10
242.0109809642651
 20
-325.228298302228
 30
0.0
  0
VERTEX
  5
A7E
  8
0
 62
    18
 10
240.2711303703704
 20
-324.9233240740742
 30
0.0
  0
VERTEX
  5
A7F
  8
0
 62
    18
 10
238.4034759570312
 20
-324.5927890820313
 30
0.0
  0
VERTEX
  5
A80
  8
0
 62
    18
 10
236.432561869213
 20
-324.2402514988427
 30
0.0
  0
VERTEX
  5
A81
  8
0
 62
    18
 10
234.3829322518808
 20
-323.8692694972513
 30
0.0
  0
VERTEX
  5
A82
  8
0
 62
    18
 10
232.27913125
 20
-323.48340125
 30
0.0
  0
VERTEX
  5
A83
  8
0
 62
    18
 10
230.1457030085359
 20
-323.0862049298322
 30
0.0
  0
VERTEX
  5
A84
  8
0
 62
    18
 10
228.0071916724537
 20
-322.6812387094908
 30
0.0
  0
VERTEX
  5
A85
  8
0
 62
    18
 10
225.8881413867188
 20
-322.2720607617188
 30
0.0
  0
VERTEX
  5
A86
  8
0
 62
    18
 10
223.8130962962963
 20
-321.8622292592593
 30
0.0
  0
VERTEX
  5
A87
  8
0
 62
    18
 10
221.8066005461517
 20
-321.4553023748554
 30
0.0
  0
VERTEX
  5
A88
  8
0
 62
    18
 10
219.89319828125
 20
-321.05483828125
 30
0.0
  0
VERTEX
  5
A89
  8
0
 62
    18
 10
218.0974336465567
 20
-320.6643951511863
 30
0.0
  0
VERTEX
  5
A8A
  8
0
 62
    18
 10
216.443850787037
 20
-320.2875311574074
 30
0.0
  0
VERTEX
  5
A8B
  8
0
 62
    18
 10
214.9569938476563
 20
-319.9278044726563
 30
0.0
  0
VERTEX
  5
A8C
  8
0
 62
    18
 10
213.6614069733797
 20
-319.588773269676
 30
0.0
  0
VERTEX
  5
A8D
  8
0
 62
    18
 10
212.5816343091725
 20
-319.2739957212096
 30
0.0
  0
VERTEX
  5
A8E
  8
0
 62
    18
 10
211.74222
 20
-318.9870300000001
 30
0.0
  0
SEQEND
  5
B1D
  8
0
 62
    18
  0
POLYLINE
  5
575
  8
0
 62
    18
 66
     1
 10
0.0
 20
0.0
 30
0.0
  0
VERTEX
  5
A8F
  8
0
 62
    18
 10
211.74222
 20
-318.9870300000001
 30
0.0
  0
VERTEX
  5
A90
  8
0
 62
    18
 10
210.916359447338
 20
-318.6297479521123
 30
0.0
  0
VERTEX
  5
A91
  8
0
 62
    18
 10
209.875701412037
 20
-318.1120575752315
 30
0.0
  0
VERTEX
  5
A92
  8
0
 62
    18
 10
208.642466328125
 20
-317.4495712695313
 30
0.0
  0
VERTEX
  5
A93
  8
0
 62
    18
 10
207.2388746296297
 20
-316.6579014351853
 30
0.0
  0
VERTEX
  5
A94
  8
0
 62
    18
 10
205.6871467505787
 20
-315.752660472367
 30
0.0
  0
VERTEX
  5
A95
  8
0
 62
    18
 10
204.009503125
 20
-314.74946078125
 30
0.0
  0
VERTEX
  5
A96
  8
0
 62
    18
 10
202.2281641869213
 20
-313.6639147620082
 30
0.0
  0
VERTEX
  5
A97
  8
0
 62
    18
 10
200.3653503703704
 20
-312.5116348148149
 30
0.0
  0
VERTEX
  5
A98
  8
0
 62
    18
 10
198.443282109375
 20
-311.3082333398439
 30
0.0
  0
VERTEX
  5
A99
  8
0
 62
    18
 10
196.484179837963
 20
-310.0693227372686
 30
0.0
  0
VERTEX
  5
A9A
  8
0
 62
    18
 10
194.510263990162
 20
-308.8105154072628
 30
0.0
  0
VERTEX
  5
A9B
  8
0
 62
    18
 10
192.543755
 20
-307.54742375
 30
0.0
  0
VERTEX
  5
A9C
  8
0
 62
    18
 10
190.6068733015046
 20
-306.295660165654
 30
0.0
  0
VERTEX
  5
A9D
  8
0
 62
    18
 10
188.7218393287037
 20
-305.0708370543982
 30
0.0
  0
VERTEX
  5
A9E
  8
0
 62
    18
 10
186.910873515625
 20
-303.8885668164063
 30
0.0
  0
VERTEX
  5
A9F
  8
0
 62
    18
 10
185.1961962962963
 20
-302.7644618518519
 30
0.0
  0
VERTEX
  5
AA0
  8
0
 62
    18
 10
183.6000281047454
 20
-301.7141345609086
 30
0.0
  0
VERTEX
  5
AA1
  8
0
 62
    18
 10
182.144589375
 20
-300.7531973437501
 30
0.0
  0
VERTEX
  5
AA2
  8
0
 62
    18
 10
180.852100541088
 20
-299.8972626005498
 30
0.0
  0
VERTEX
  5
AA3
  8
0
 62
    18
 10
179.7447820370371
 20
-299.1619427314815
 30
0.0
  0
VERTEX
  5
AA4
  8
0
 62
    18
 10
178.844854296875
 20
-298.5628501367188
 30
0.0
  0
VERTEX
  5
AA5
  8
0
 62
    18
 10
178.1745377546297
 20
-298.1155972164353
 30
0.0
  0
VERTEX
  5
AA6
  8
0
 62
    18
 10
177.7560528443287
 20
-297.8357963708044
 30
0.0
  0
VERTEX
  5
AA7
  8
0
 62
    18
 10
177.61162
 20
-297.7390600000001
 30
0.0
  0
SEQEND
  5
B1E
  8
0
 62
    18
  0
ARC
  5
576
  8
0
 62
    18
 10
149.7072700900276
 20
-299.3400225071318
 30
0.0
 40
27.9502383683471
 50
3.283643818167453
 51
23.85729036576215
  0
ARC
  5
577
  8
0
 62
    18
 10
-510.6634611510601
 20
-675.4539319692669
 30
0.0
 40
787.7797915024763
 50
29.45800361970287
 51
30.62472646798585
  0
LINE
  5
578
  8
0
 62
    18
 10
157.20018
 20
-279.1679999999999
 30
0.0
 11
169.58089
 21
-292.0506299999999
 31
0.0
  0
LINE
  5
579
  8
0
 62
    18
 10
169.58089
 20
-292.0506299999999
 30
0.0
 11
167.23859
 21
-297.2371299999999
 31
0.0
  0
LINE
  5
57A
  8
0
 62
    18
 10
167.23859
 20
-297.2371299999999
 30
0.0
 11
154.35596
 21
-296.2332999999999
 31
0.0
  0
LINE
  5
57B
  8
0
 62
    18
 10
154.35596
 20
-296.2332999999999
 30
0.0
 11
148.16561
 21
-289.5410199999999
 31
0.0
  0
LINE
  5
57C
  8
0
 62
    18
 10
148.16561
 20
-289.5410199999999
 30
0.0
 11
157.20018
 21
-279.1679999999999
 31
0.0
  0
LINE
  5
57D
  8
0
 62
    18
 10
153.18482
 20
-295.73138
 30
0.0
 11
150.17329
 21
-299.91405
 31
0.0
  0
LINE
  5
57E
  8
0
 62
    18
 10
150.17329
 20
-299.91405
 30
0.0
 11
155.35981
 21
-304.93325
 31
0.0
  0
LINE
  5
57F
  8
0
 62
    18
 10
155.35981
 20
-304.93325
 30
0.0
 11
165.39821
 21
-304.59864
 31
0.0
  0
LINE
  5
580
  8
0
 62
    18
 10
165.39821
 20
-304.59864
 30
0.0
 11
163.05592
 21
-297.06983
 31
0.0
  0
LINE
  5
581
  8
0
 62
    18
 10
166.73668
 20
-301.92173
 30
0.0
 11
172.4251
 21
-303.4275
 31
0.0
  0
POLYLINE
  5
582
  8
0
 62
    18
 66
     1
 10
0.0
 20
0.0
 30
0.0
  0
VERTEX
  5
AA8
  8
0
 62
    18
 10
172.4251
 20
-303.4275
 30
0.0
  0
VERTEX
  5
AA9
  8
0
 62
    18
 10
172.5406681206597
 20
-303.5123515610533
 30
0.0
  0
VERTEX
  5
AAA
  8
0
 62
    18
 10
172.8756087152778
 20
-303.7577566550926
 30
0.0
  0
VERTEX
  5
AAB
  8
0
 62
    18
 10
173.4122761328125
 20
-304.1499908984375
 30
0.0
  0
VERTEX
  5
AAC
  8
0
 62
    18
 10
174.1330247222222
 20
-304.6753299074074
 30
0.0
  0
VERTEX
  5
AAD
  8
0
 62
    18
 10
175.0202088324653
 20
-305.3200492983217
 30
0.0
  0
VERTEX
  5
AAE
  8
0
 62
    18
 10
176.0561828125
 20
-306.0704246875
 30
0.0
  0
VERTEX
  5
AAF
  8
0
 62
    18
 10
177.2233010112847
 20
-306.9127316912615
 30
0.0
  0
VERTEX
  5
AB0
  8
0
 62
    18
 10
178.5039177777778
 20
-307.8332459259259
 30
0.0
  0
VERTEX
  5
AB1
  8
0
 62
    18
 10
179.8803874609375
 20
-308.8182430078124
 30
0.0
  0
VERTEX
  5
AB2
  8
0
 62
    18
 10
181.3350644097222
 20
-309.8539985532407
 30
0.0
  0
VERTEX
  5
AB3
  8
0
 62
    18
 10
182.8503029730903
 20
-310.92678817853
 30
0.0
  0
VERTEX
  5
AB4
  8
0
 62
    18
 10
184.4084575
 20
-312.0228875
 30
0.0
  0
VERTEX
  5
AB5
  8
0
 62
    18
 10
185.9918823394097
 20
-313.1285721339698
 30
0.0
  0
VERTEX
  5
AB6
  8
0
 62
    18
 10
187.5829318402778
 20
-314.2301176967592
 30
0.0
  0
VERTEX
  5
AB7
  8
0
 62
    18
 10
189.1639603515625
 20
-315.3137998046875
 30
0.0
  0
VERTEX
  5
AB8
  8
0
 62
    18
 10
190.7173222222222
 20
-316.365894074074
 30
0.0
  0
VERTEX
  5
AB9
  8
0
 62
    18
 10
192.2253718012153
 20
-317.3726761212384
 30
0.0
  0
VERTEX
  5
ABA
  8
0
 62
    18
 10
193.6704634375
 20
-318.3204215625
 30
0.0
  0
VERTEX
  5
ABB
  8
0
 62
    18
 10
195.0349514800347
 20
-319.1954060141782
 30
0.0
  0
VERTEX
  5
ABC
  8
0
 62
    18
 10
196.3011902777778
 20
-319.9839050925925
 30
0.0
  0
VERTEX
  5
ABD
  8
0
 62
    18
 10
197.4515341796875
 20
-320.6721944140625
 30
0.0
  0
VERTEX
  5
ABE
  8
0
 62
    18
 10
198.4683375347222
 20
-321.2465495949074
 30
0.0
  0
VERTEX
  5
ABF
  8
0
 62
    18
 10
199.3339546918403
 20
-321.6932462514467
 30
0.0
  0
VERTEX
  5
AC0
  8
0
 62
    18
 10
200.03074
 20
-321.9985599999999
 30
0.0
  0
SEQEND
  5
B1F
  8
0
 62
    18
  0
LINE
  5
583
  8
0
 62
    18
 10
200.03074
 20
-321.9985599999999
 30
0.0
 11
239.51516
 21
-337.8926999999999
 31
0.0
  0
LINE
  5
584
  8
0
 62
    18
 10
165.27539
 20
-426.4082
 30
0.0
 11
210.2793
 21
-412.68945
 31
0.0
  0
POLYLINE
  5
585
  8
0
 62
    18
 66
     1
 10
0.0
 20
0.0
 30
0.0
  0
VERTEX
  5
AC1
  8
0
 62
    18
 10
155.19531
 20
-429.91797
 30
0.0
  0
VERTEX
  5
AC2
  8
0
 62
    18
 10
151.0216112177372
 20
-431.7140621455441
 30
0.0
  0
VERTEX
  5
AC3
  8
0
 62
    18
 10
146.9574391585648
 20
-433.5493932060185
 30
0.0
  0
VERTEX
  5
AC4
  8
0
 62
    18
 10
143.0053577539062
 20
-435.4221101171876
 30
0.0
  0
VERTEX
  5
AC5
  8
0
 62
    18
 10
139.1679309351852
 20
-437.3303598148148
 30
0.0
  0
VERTEX
  5
AC6
  8
0
 62
    18
 10
135.4477226338252
 20
-439.2722892346644
 30
0.0
  0
VERTEX
  5
AC7
  8
0
 62
    18
 10
131.84729678125
 20
-441.2460453125
 30
0.0
  0
VERTEX
  5
AC8
  8
0
 62
    18
 10
128.3692173088831
 20
-443.2497749840856
 30
0.0
  0
VERTEX
  5
AC9
  8
0
 62
    18
 10
125.0160481481481
 20
-445.2816251851852
 30
0.0
  0
VERTEX
  5
ACA
  8
0
 62
    18
 10
121.7903532304687
 20
-447.3397428515625
 30
0.0
  0
VERTEX
  5
ACB
  8
0
 62
    18
 10
118.6946964872685
 20
-449.4222749189815
 30
0.0
  0
VERTEX
  5
ACC
  8
0
 62
    18
 10
115.7316418499711
 20
-451.5273683232061
 30
0.0
  0
VERTEX
  5
ACD
  8
0
 62
    18
 10
112.90375325
 20
-453.65317
 30
0.0
  0
VERTEX
  5
ACE
  8
0
 62
    18
 10
110.2135946187789
 20
-455.7978268851274
 30
0.0
  0
VERTEX
  5
ACF
  8
0
 62
    18
 10
107.6637298877314
 20
-457.9594859143519
 30
0.0
  0
VERTEX
  5
AD0
  8
0
 62
    18
 10
105.2567229882812
 20
-460.1362940234375
 30
0.0
  0
VERTEX
  5
AD1
  8
0
 62
    18
 10
102.9951378518518
 20
-462.3263981481482
 30
0.0
  0
VERTEX
  5
AD2
  8
0
 62
    18
 10
100.8815384098669
 20
-464.5279452242477
 30
0.0
  0
VERTEX
  5
AD3
  8
0
 62
    18
 10
98.91848859374998
 20
-466.7390821875
 30
0.0
  0
VERTEX
  5
AD4
  8
0
 62
    18
 10
97.10855233492475
 20
-468.957955973669
 30
0.0
  0
VERTEX
  5
AD5
  8
0
 62
    18
 10
95.4542935648148
 20
-471.1827135185185
 30
0.0
  0
VERTEX
  5
AD6
  8
0
 62
    18
 10
93.95827621484375
 20
-473.4115017578125
 30
0.0
  0
VERTEX
  5
AD7
  8
0
 62
    18
 10
92.62306421643518
 20
-475.6424676273148
 30
0.0
  0
VERTEX
  5
AD8
  8
0
 62
    18
 10
91.45122150101271
 20
-477.8737580627894
 30
0.0
  0
VERTEX
  5
AD9
  8
0
 62
    18
 10
90.44531199999997
 20
-480.10352
 30
0.0
  0
SEQEND
  5
B20
  8
0
 62
    18
  0
LINE
  5
586
  8
0
 62
    18
 10
90.44531199999997
 20
-480.10352
 30
0.0
 11
120.59375
 21
-480.15042
 31
0.0
  0
LINE
  5
587
  8
0
 62
    18
 10
120.59375
 20
-480.15042
 30
0.0
 11
120.59375
 21
-490.46878
 31
0.0
  0
LINE
  5
588
  8
0
 62
    18
 10
120.59375
 20
-490.46878
 30
0.0
 11
156.02734
 21
-490.46878
 31
0.0
  0
LINE
  5
589
  8
0
 62
    18
 10
156.02734
 20
-490.46878
 30
0.0
 11
156.02734
 21
-480.20706
 31
0.0
  0
LINE
  5
58A
  8
0
 62
    18
 10
156.02734
 20
-480.20706
 30
0.0
 11
287.23047
 21
-480.41214
 31
0.0
  0
LINE
  5
58B
  8
0
 62
    18
 10
287.23047
 20
-480.41214
 30
0.0
 11
287.23047
 21
-490.46878
 31
0.0
  0
LINE
  5
58C
  8
0
 62
    18
 10
287.23047
 20
-490.46878
 30
0.0
 11
322.66211
 21
-490.46878
 31
0.0
  0
LINE
  5
58D
  8
0
 62
    18
 10
322.66211
 20
-490.46878
 30
0.0
 11
322.66211
 21
-480.46878
 31
0.0
  0
LINE
  5
58E
  8
0
 62
    18
 10
322.66211
 20
-480.46878
 30
0.0
 11
452.89453
 21
-480.67191
 31
0.0
  0
LINE
  5
58F
  8
0
 62
    18
 10
452.89453
 20
-480.67191
 30
0.0
 11
452.89453
 21
-490.46878
 31
0.0
  0
LINE
  5
590
  8
0
 62
    18
 10
452.89453
 20
-490.46878
 30
0.0
 11
488.32812
 21
-490.46878
 31
0.0
  0
LINE
  5
591
  8
0
 62
    18
 10
488.32812
 20
-490.46878
 30
0.0
 11
488.32812
 21
-480.72855
 31
0.0
  0
LINE
  5
592
  8
0
 62
    18
 10
488.32812
 20
-480.72855
 30
0.0
 11
517.41211
 21
-480.77345
 31
0.0
  0
POLYLINE
  5
593
  8
0
 62
    18
 66
     1
 10
0.0
 20
0.0
 30
0.0
  0
VERTEX
  5
ADA
  8
0
 62
    18
 10
517.41211
 20
-480.77345
 30
0.0
  0
VERTEX
  5
ADB
  8
0
 62
    18
 10
515.7083474110244
 20
-477.5920375969329
 30
0.0
  0
VERTEX
  5
ADC
  8
0
 62
    18
 10
513.6175101215277
 20
-474.4245853587963
 30
0.0
  0
VERTEX
  5
ADD
  8
0
 62
    18
 10
511.1506463476563
 20
-471.2750269921875
 30
0.0
  0
VERTEX
  5
ADE
  8
0
 62
    18
 10
508.3188043055556
 20
-468.1472962037037
 30
0.0
  0
VERTEX
  5
ADF
  8
0
 62
    18
 10
505.1330322113716
 20
-465.0453266999422
 30
0.0
  0
VERTEX
  5
AE0
  8
0
 62
    18
 10
501.60437828125
 20
-461.9730521875
 30
0.0
  0
VERTEX
  5
AE1
  8
0
 62
    18
 10
497.7438907313368
 20
-458.9344063729745
 30
0.0
  0
VERTEX
  5
AE2
  8
0
 62
    18
 10
493.5626177777778
 20
-455.933322962963
 30
0.0
  0
VERTEX
  5
AE3
  8
0
 62
    18
 10
489.0716076367187
 20
-452.9737356640625
 30
0.0
  0
VERTEX
  5
AE4
  8
0
 62
    18
 10
484.2819085243055
 20
-450.0595781828703
 30
0.0
  0
VERTEX
  5
AE5
  8
0
 62
    18
 10
479.204568656684
 20
-447.1947842259838
 30
0.0
  0
VERTEX
  5
AE6
  8
0
 62
    18
 10
473.85063625
 20
-444.3832874999999
 30
0.0
  0
VERTEX
  5
AE7
  8
0
 62
    18
 10
468.2311595203993
 20
-441.6290217115162
 30
0.0
  0
VERTEX
  5
AE8
  8
0
 62
    18
 10
462.3571866840277
 20
-438.9359205671296
 30
0.0
  0
VERTEX
  5
AE9
  8
0
 62
    18
 10
456.2397659570313
 20
-436.3079177734376
 30
0.0
  0
VERTEX
  5
AEA
  8
0
 62
    18
 10
449.8899455555556
 20
-433.7489470370371
 30
0.0
  0
VERTEX
  5
AEB
  8
0
 62
    18
 10
443.3187736957466
 20
-431.2629420645255
 30
0.0
  0
VERTEX
  5
AEC
  8
0
 62
    18
 10
436.5372985937501
 20
-428.8538365625
 30
0.0
  0
VERTEX
  5
AED
  8
0
 62
    18
 10
429.5565684657118
 20
-426.5255642375579
 30
0.0
  0
VERTEX
  5
AEE
  8
0
 62
    18
 10
422.3876315277778
 20
-424.2820587962963
 30
0.0
  0
VERTEX
  5
AEF
  8
0
 62
    18
 10
415.0415359960938
 20
-422.1272539453125
 30
0.0
  0
VERTEX
  5
AF0
  8
0
 62
    18
 10
407.5293300868057
 20
-420.0650833912038
 30
0.0
  0
VERTEX
  5
AF1
  8
0
 62
    18
 10
399.8620620160591
 20
-418.0994808405671
 30
0.0
  0
VERTEX
  5
AF2
  8
0
 62
    18
 10
392.05078
 20
-416.23438
 30
0.0
  0
SEQEND
  5
B21
  8
0
 62
    18
  0
ENDSEC
  0
EOF
