  0
SECTION
  2
HEADER
  9
$ACADVER
  1
AC1006
  9
$DWGCODEPAGE
  3
ansi_1252
  9
$INSBASE
 10
0.0
 20
0.0
 30
0.0
  9
$EXTMIN
 10
1.000000000000000E+20
 20
1.000000000000000E+20
  9
$EXTMAX
 10
-1.000000000000000E+20
 20
-1.000000000000000E+20
  9
$LIMMIN
 10
0.0
 20
0.0
  9
$LIMMAX
 10
12.0
 20
9.0
  9
$ORTHOMODE
 70
     0
  9
$REGENMODE
 70
     1
  9
$FILLMODE
 70
     1
  9
$QTEXTMODE
 70
     0
  9
$MIRRTEXT
 70
     1
  9
$DRAGMODE
 70
     2
  9
$LTSCALE
 40
1.0
  9
$OSMODE
 70
    37
  9
$ATTMODE
 70
     1
  9
$TEXTSIZE
 40
0.2
  9
$TRACEWID
 40
0.05
  9
$TEXTSTYLE
  7
STANDARD
  9
$CLAYER
  8
0
  9
$CELTYPE
  6
BYLAYER
  9
$CECOLOR
 62
   256
  9
$DIMSCALE
 40
1.0
  9
$DIMASZ
 40
2.5
  9
$DIMEXO
 40
0.625
  9
$DIMDLI
 40
0.38
  9
$DIMRND
 40
0.0
  9
$DIMDLE
 40
0.0
  9
$DIMEXE
 40
1.25
  9
$DIMTP
 40
0.0
  9
$DIMTM
 40
0.0
  9
$DIMTXT
 40
2.5
  9
$DIMCEN
 40
0.09
  9
$DIMTSZ
 40
0.0
  9
$DIMTOL
 70
     0
  9
$DIMLIM
 70
     0
  9
$DIMTIH
 70
     1
  9
$DIMTOH
 70
     1
  9
$DIMSE1
 70
     0
  9
$DIMSE2
 70
     0
  9
$DIMTAD
 70
     0
  9
$DIMZIN
 70
     8
  9
$DIMBLK
  1

  9
$DIMASO
 70
     1
  9
$DIMSHO
 70
     1
  9
$DIMPOST
  1

  9
$DIMAPOST
  1

  9
$DIMALT
 70
     0
  9
$DIMALTD
 70
     2
  9
$DIMALTF
 40
25.4
  9
$DIMLFAC
 40
1.0
  9
$DIMTOFL
 70
     0
  9
$DIMTVP
 40
0.0
  9
$DIMTIX
 70
     0
  9
$DIMSOXD
 70
     0
  9
$DIMSAH
 70
     0
  9
$DIMBLK1
  1

  9
$DIMBLK2
  1

  9
$LUNITS
 70
     2
  9
$LUPREC
 70
     4
  9
$SKETCHINC
 40
0.1
  9
$FILLETRAD
 40
0.5
  9
$AUNITS
 70
     0
  9
$AUPREC
 70
     0
  9
$MENU
  1
.
  9
$ELEVATION
 40
0.0
  9
$THICKNESS
 40
0.0
  9
$LIMCHECK
 70
     0
  9
$CHAMFERA
 40
0.0
  9
$CHAMFERB
 40
0.0
  9
$SKPOLY
 70
     0
  9
$TDCREATE
 40
2457734.907117604
  9
$TDUPDATE
 40
2457734.907117824
  9
$TDINDWG
 40
0.0000000116
  9
$TDUSRTIMER
 40
0.0000000116
  9
$USRTIMER
 70
     1
  9
$ANGBASE
 50
0.0
  9
$ANGDIR
 70
     0
  9
$PDMODE
 70
     0
  9
$PDSIZE
 40
0.0
  9
$PLINEWID
 40
0.0
  9
$COORDS
 70
     1
  9
$SPLFRAME
 70
     0
  9
$SPLINETYPE
 70
     6
  9
$SPLINESEGS
 70
     8
  9
$ATTDIA
 70
     0
  9
$ATTREQ
 70
     1
  9
$HANDLING
 70
     1
  9
$HANDSEED
  5
864
  9
$SURFTAB1
 70
     6
  9
$SURFTAB2
 70
     6
  9
$SURFTYPE
 70
     6
  9
$SURFU
 70
     6
  9
$SURFV
 70
     6
  9
$UCSNAME
  2

  9
$UCSORG
 10
0.0
 20
0.0
 30
0.0
  9
$UCSXDIR
 10
1.0
 20
0.0
 30
0.0
  9
$UCSYDIR
 10
0.0
 20
1.0
 30
0.0
  9
$USERI1
 70
     0
  9
$USERI2
 70
     0
  9
$USERI3
 70
     0
  9
$USERI4
 70
     0
  9
$USERI5
 70
     0
  9
$USERR1
 40
0.0
  9
$USERR2
 40
0.0
  9
$USERR3
 40
0.0
  9
$USERR4
 40
0.0
  9
$USERR5
 40
0.0
  9
$WORLDVIEW
 70
     1
  0
ENDSEC
  0
SECTION
  2
TABLES
  0
TABLE
  2
VPORT
 70
     1
  0
VPORT
  2
*ACTIVE
 70
     0
 10
0.0
 20
0.0
 11
1.0
 21
1.0
 12
196.8690800311095
 22
-207.5267922992822
 13
0.0
 23
0.0
 14
0.5
 24
0.5
 15
0.5
 25
0.5
 16
0.0
 26
0.0
 36
1.0
 17
0.0
 27
0.0
 37
0.0
 40
1104.683446897842
 41
2.097629009762901
 42
50.0
 43
0.0
 44
0.0
 50
0.0
 51
0.0
 71
     0
 72
   100
 73
     1
 74
     3
 75
     0
 76
     0
 77
     0
 78
     0
  0
ENDTAB
  0
TABLE
  2
LTYPE
 70
    52
  0
LTYPE
  2
CONTINUOUS
 70
     0
  3
Solid line
 72
    65
 73
     0
 40
0.0
  0
LTYPE
  2
ACAD_ISO15W100
 70
     0
  3
ISO double-dash triple-dot __ __ . . . __ __ . .
 72
    65
 73
    10
 40
39.0
 49
12.0
 49
-3.0
 49
12.0
 49
-3.0
 49
0.0
 49
-3.0
 49
0.0
 49
-3.0
 49
0.0
 49
-3.0
  0
LTYPE
  2
ACAD_ISO14W100
 70
     0
  3
ISO dash triple-dot __ . . . __ . . . __ . . . _
 72
    65
 73
     8
 40
24.0
 49
12.0
 49
-3.0
 49
0.0
 49
-3.0
 49
0.0
 49
-3.0
 49
0.0
 49
-3.0
  0
LTYPE
  2
BORDER
 70
     0
  3
Border __ __ . __ __ . __ __ . __ __ . __ __ .
 72
    65
 73
     6
 40
44.45
 49
12.7
 49
-6.35
 49
12.7
 49
-6.35
 49
0.0
 49
-6.35
  0
LTYPE
  2
BATTING
 70
     0
  3
Batting SSSSSSSSSSSSSSSSSSSSSSSSSSSSSSSSSSSSSSSSSSSSSSS
 72
    65
 73
     4
 40
10.16254
 49
0.00254
 49
-2.54
 49
-5.08
 49
-2.54
  0
LTYPE
  2
ACAD_ISO11W100
 70
     0
  3
ISO double-dash dot __ __ . __ __ . __ __ . __ _
 72
    65
 73
     6
 40
33.0
 49
12.0
 49
-3.0
 49
12.0
 49
-3.0
 49
0.0
 49
-3.0
  0
LTYPE
  2
ACAD_ISO10W100
 70
     0
  3
ISO dash dot __ . __ . __ . __ . __ . __ . __ . 
 72
    65
 73
     4
 40
18.0
 49
12.0
 49
-3.0
 49
0.0
 49
-3.0
  0
LTYPE
  2
ACAD_ISO13W100
 70
     0
  3
ISO double-dash double-dot __ __ . . __ __ . . _
 72
    65
 73
     8
 40
36.0
 49
12.0
 49
-3.0
 49
12.0
 49
-3.0
 49
0.0
 49
-3.0
 49
0.0
 49
-3.0
  0
LTYPE
  2
ACAD_ISO12W100
 70
     0
  3
ISO dash double-dot __ . . __ . . __ . . __ . . 
 72
    65
 73
     6
 40
21.0
 49
12.0
 49
-3.0
 49
0.0
 49
-3.0
 49
0.0
 49
-3.0
  0
LTYPE
  2
CUTLEFT
 70
     0
  3
G41 ----\----\----\----
 72
    65
 73
     2
 40
10.16
 49
5.08
 49
5.08
  0
LTYPE
  2
CENTERX2
 70
     0
  3
Center (2x) ________  __  ________  __  _____
 72
    65
 73
     4
 40
101.6
 49
63.5
 49
-12.7
 49
12.7
 49
-12.7
  0
LTYPE
  2
CUTRIGHT
 70
     0
  3
G42 ----/----/-----/---
 72
    65
 73
     2
 40
10.16
 49
5.08
 49
5.08
  0
LTYPE
  2
CUTLEFT2
 70
     0
  3
G41 reversed----/----/----/----
 72
    65
 73
     2
 40
10.16
 49
5.08
 49
5.08
  0
LTYPE
  2
BORDERX2
 70
     0
  3
Border (2x) ____  ____  .  ____  ____  .  ___
 72
    65
 73
     6
 40
88.89999999999999
 49
25.4
 49
-12.7
 49
25.4
 49
-12.7
 49
0.0
 49
-12.7
  0
LTYPE
  2
BORDER2
 70
     0
  3
Border (.5x) __.__.__.__.__.__.__.__.__.__.__.
 72
    65
 73
     6
 40
22.225
 49
6.35
 49
-3.175
 49
6.35
 49
-3.175
 49
0.0
 49
-3.175
  0
LTYPE
  2
CENTER2
 70
     0
  3
Center (.5x) ___ _ ___ _ ___ _ ___ _ ___ _ ___
 72
    65
 73
     4
 40
28.575
 49
19.05
 49
-3.175
 49
3.175
 49
-3.175
  0
LTYPE
  2
CENTER
 70
     0
  3
Center ____ _ ____ _ ____ _ ____ _ ____ _ ____
 72
    65
 73
     4
 40
50.8
 49
31.75
 49
-6.35
 49
6.35
 49
-6.35
  0
LTYPE
  2
ACAD_ISO07W100
 70
     0
  3
ISO dot . . . . . . . . . . . . . . . . . . . . 
 72
    65
 73
     2
 40
3.0
 49
0.0
 49
-3.0
  0
LTYPE
  2
ACAD_ISO06W100
 70
     0
  3
ISO long-dash triple-dot ____ ... ____ ... ____
 72
    65
 73
     8
 40
36.0
 49
24.0
 49
-3.0
 49
0.0
 49
-3.0
 49
0.0
 49
-3.0
 49
0.0
 49
-3.0
  0
LTYPE
  2
ACAD_ISO09W100
 70
     0
  3
ISO long-dash double-short-dash ____ __ __ ____
 72
    65
 73
     6
 40
45.0
 49
24.0
 49
-3.0
 49
6.0
 49
-3.0
 49
6.0
 49
-3.0
  0
LTYPE
  2
ACAD_ISO08W100
 70
     0
  3
ISO long-dash short-dash ____ __ ____ __ ____ _
 72
    65
 73
     4
 40
36.0
 49
24.0
 49
-3.0
 49
6.0
 49
-3.0
  0
LTYPE
  2
ACAD_ISO03W100
 70
     0
  3
ISO dash space __    __    __    __    __    __
 72
    65
 73
     2
 40
30.0
 49
12.0
 49
-18.0
  0
LTYPE
  2
ACAD_ISO02W100
 70
     0
  3
ISO dash __ __ __ __ __ __ __ __ __ __ __ __ __
 72
    65
 73
     2
 40
15.0
 49
12.0
 49
-3.0
  0
LTYPE
  2
ACAD_ISO05W100
 70
     0
  3
ISO long-dash double-dot ____ .. ____ .. ____ . 
 72
    65
 73
     6
 40
33.0
 49
24.0
 49
-3.0
 49
0.0
 49
-3.0
 49
0.0
 49
-3.0
  0
LTYPE
  2
ACAD_ISO04W100
 70
     0
  3
ISO long-dash dot ____ . ____ . ____ . ____ . _
 72
    65
 73
     4
 40
30.0
 49
24.0
 49
-3.0
 49
0.0
 49
-3.0
  0
LTYPE
  2
HOT_WATER_SUPPLY
 70
     0
  3
Hot water supply ---- HW ---- HW ---- HW ----
 72
    65
 73
     3
 40
22.86
 49
12.7
 49
-5.08
 49
-5.08
  0
LTYPE
  2
HIDDENX2
 70
     0
  3
Hidden (2x) ____ ____ ____ ____ ____ ____ ____ 
 72
    65
 73
     2
 40
19.05
 49
12.7
 49
-6.35
  0
LTYPE
  2
PHANTOM2
 70
     0
  3
Phantom (.5x) ___ _ _ ___ _ _ ___ _ _ ___ _ _
 72
    65
 73
     6
 40
31.75
 49
15.875
 49
-3.175
 49
3.175
 49
-3.175
 49
3.175
 49
-3.175
  0
LTYPE
  2
PHANTOM
 70
     0
  3
Phantom ______  __  __  ______  __  __  ______ 
 72
    65
 73
     6
 40
63.50000000000001
 49
31.75
 49
-6.35
 49
6.35
 49
-6.35
 49
6.35
 49
-6.35
  0
LTYPE
  2
GAS_LINE
 70
     0
  3
Gas line ----GAS----GAS----GAS----GAS----GAS----GAS--
 72
    65
 73
     3
 40
24.13
 49
12.7
 49
-5.08
 49
-6.35
  0
LTYPE
  2
FENCELINE2
 70
     0
  3
Fenceline square ----[]-----[]----[]-----[]----[]---
 72
    65
 73
     4
 40
36.83
 49
6.35
 49
-2.54
 49
-2.54
 49
25.4
  0
LTYPE
  2
HIDDEN2
 70
     0
  3
Hidden (.5x) _ _ _ _ _ _ _ _ _ _ _ _ _ _ _ _ _ 
 72
    65
 73
     2
 40
4.762499999999999
 49
3.175
 49
-1.5875
  0
LTYPE
  2
HIDDEN
 70
     0
  3
Hidden __ __ __ __ __ __ __ __ __ __ __ __ __ __
 72
    65
 73
     2
 40
9.524999999999999
 49
6.35
 49
-3.175
  0
LTYPE
  2
TRACKS
 70
     0
  3
Tracks -|-|-|-|-|-|-|-|-|-|-|-|-|-|-|-|-|-|-|-|-|-|-|-|-
 72
    65
 73
     2
 40
7.62
 49
3.81
 49
3.81
  0
LTYPE
  2
PHANTOMX2
 70
     0
  3
Phantom (2x) ____________    ____    ____   _
 72
    65
 73
     6
 40
127.0
 49
63.5
 49
-12.7
 49
12.7
 49
-12.7
 49
12.7
 49
-12.7
  0
LTYPE
  2
ZIGZAG
 70
     0
  3
Zig zag /\/\/\/\/\/\/\/\/\/\/\/\/\/\/\/\/\/\/\/\/\/\/\/
 72
    65
 73
     4
 40
20.32254
 49
0.00254
 49
-5.08
 49
-10.16
 49
-5.08
  0
LTYPE
  2
DASHED2
 70
     0
  3
Dashed (.5x) _ _ _ _ _ _ _ _ _ _ _ _ _ _ _ _ _ 
 72
    65
 73
     2
 40
9.524999999999999
 49
6.35
 49
-3.175
  0
LTYPE
  2
DASHED
 70
     0
  3
Dashed __ __ __ __ __ __ __ __ __ __ __ __ __ _
 72
    65
 73
     2
 40
19.05
 49
12.7
 49
-6.35
  0
LTYPE
  2
DIVIDE
 70
     0
  3
Divide ____ . . ____ . . ____ . . ____ . . ____
 72
    65
 73
     6
 40
31.75
 49
12.7
 49
-6.35
 49
0.0
 49
-6.35
 49
0.0
 49
-6.35
  0
LTYPE
  2
DASHEDX2
 70
     0
  3
Dashed (2x) ____  ____  ____  ____  ____  ___
 72
    65
 73
     2
 40
38.09999999999999
 49
25.4
 49
-12.7
  0
LTYPE
  2
DASHDOT
 70
     0
  3
Dash dot __ . __ . __ . __ . __ . __ . __ . __
 72
    65
 73
     4
 40
25.4
 49
12.7
 49
-6.35
 49
0.0
 49
-6.35
  0
LTYPE
  2
CUTRIGHT2
 70
     0
  3
G42 reversed----\----\----\----
 72
    65
 73
     2
 40
10.16
 49
5.08
 49
5.08
  0
LTYPE
  2
DASHDOTX2
 70
     0
  3
Dash dot (2x) ____  .  ____  .  ____  .  ___
 72
    65
 73
     4
 40
50.8
 49
25.4
 49
-12.7
 49
0.0
 49
-12.7
  0
LTYPE
  2
DASHDOT2
 70
     0
  3
Dash dot (.5x) _._._._._._._._._._._._._._._.
 72
    65
 73
     4
 40
12.7
 49
6.35
 49
-3.175
 49
0.0
 49
-3.175
  0
LTYPE
  2
DRAINAGE
 70
     0
  3
Drainage ---->---->---->----
 72
    65
 73
     2
 40
10.16
 49
5.08
 49
5.08
  0
LTYPE
  2
DOTX2
 70
     0
  3
Dot (2x) .  .  .  .  .  .  .  .  .  .  .  .  .  .
 72
    65
 73
     2
 40
12.7
 49
0.0
 49
-12.7
  0
LTYPE
  2
FENCELINE1
 70
     0
  3
Fenceline circle ----0-----0----0-----0----0-----0--
 72
    65
 73
     4
 40
36.83
 49
6.35
 49
-2.54
 49
-2.54
 49
25.4
  0
LTYPE
  2
DRAINAGE2
 70
     0
  3
Drainage reversed----<----<----<----
 72
    65
 73
     2
 40
10.16
 49
5.08
 49
5.08
  0
LTYPE
  2
DIVIDEX2
 70
     0
  3
Divide (2x) ________  .  .  ________  .  .  _
 72
    65
 73
     6
 40
63.5
 49
25.4
 49
-12.7
 49
0.0
 49
-12.7
 49
0.0
 49
-12.7
  0
LTYPE
  2
DIVIDE2
 70
     0
  3
Divide (.5x) __..__..__..__..__..__..__..__.._
 72
    65
 73
     6
 40
15.875
 49
6.35
 49
-3.175
 49
0.0
 49
-3.175
 49
0.0
 49
-3.175
  0
LTYPE
  2
DOT2
 70
     0
  3
Dot (.5x) ........................................
 72
    65
 73
     2
 40
3.175
 49
0.0
 49
-3.175
  0
LTYPE
  2
DOT
 70
     0
  3
Dot . . . . . . . . . . . . . . . . . . . . . . . .
 72
    65
 73
     2
 40
6.35
 49
0.0
 49
-6.35
  0
ENDTAB
  0
TABLE
  2
LAYER
 70
     1
  0
LAYER
  2
0
 70
     0
 62
     7
  6
CONTINUOUS
  0
ENDTAB
  0
TABLE
  2
STYLE
 70
    16
  0
STYLE
  2
STANDARD
 70
     0
 40
0.0
 41
1.0
 50
0.0
 71
     0
 42
0.2
  3
txt
  4

  0
STYLE
  2
TEXTSTYLE0
 70
     0
 40
0.0
 41
1.0
 50
0.0
 71
     0
 42
0.2
  3
ltypeshp.shx
  4

  0
STYLE
  2
TEXTSTYLE1
 70
     0
 40
0.0
 41
1.0
 50
0.0
 71
     0
 42
0.2
  3
ltypeshp.shx
  4

  0
STYLE
  2
TEXTSTYLE2
 70
     0
 40
0.0
 41
1.0
 50
0.0
 71
     0
 42
0.2
  3
qcadshp.shx
  4

  0
STYLE
  2
TEXTSTYLE3
 70
     0
 40
0.0
 41
1.0
 50
0.0
 71
     0
 42
0.2
  3
qcadshp.shx
  4

  0
STYLE
  2
TEXTSTYLE4
 70
     0
 40
0.0
 41
1.0
 50
0.0
 71
     0
 42
0.2
  3
qcadshp.shx
  4

  0
STYLE
  2
TEXTSTYLE5
 70
     0
 40
0.0
 41
1.0
 50
0.0
 71
     0
 42
0.2
  3
STANDARD
  4

  0
STYLE
  2
TEXTSTYLE6
 70
     0
 40
0.0
 41
1.0
 50
0.0
 71
     0
 42
0.2
  3
STANDARD
  4

  0
STYLE
  2
TEXTSTYLE7
 70
     0
 40
0.0
 41
1.0
 50
0.0
 71
     0
 42
0.2
  3
ltypeshp.shx
  4

  0
STYLE
  2
TEXTSTYLE8
 70
     0
 40
0.0
 41
1.0
 50
0.0
 71
     0
 42
0.2
  3
ltypeshp.shx
  4

  0
STYLE
  2
TEXTSTYLE9
 70
     0
 40
0.0
 41
1.0
 50
0.0
 71
     0
 42
0.2
  3
ltypeshp.shx
  4

  0
STYLE
  2
TEXTSTYLE10
 70
     0
 40
0.0
 41
1.0
 50
0.0
 71
     0
 42
0.2
  3
ltypeshp.shx
  4

  0
STYLE
  2
TEXTSTYLE11
 70
     0
 40
0.0
 41
1.0
 50
0.0
 71
     0
 42
0.2
  3
qcadshp.shx
  4

  0
STYLE
  2
TEXTSTYLE12
 70
     0
 40
0.0
 41
1.0
 50
0.0
 71
     0
 42
0.2
  3
qcadshp.shx
  4

  0
STYLE
  2
TEXTSTYLE13
 70
     0
 40
0.0
 41
1.0
 50
0.0
 71
     0
 42
0.2
  3
ltypeshp.shx
  4

  0
STYLE
  2
TEXTSTYLE14
 70
     0
 40
0.0
 41
1.0
 50
0.0
 71
     0
 42
0.2
  3
qcadshp.shx
  4

  0
ENDTAB
  0
TABLE
  2
VIEW
 70
     0
  0
ENDTAB
  0
TABLE
  2
UCS
 70
     0
  0
ENDTAB
  0
ENDSEC
  0
SECTION
  2
BLOCKS
  0
ENDSEC
  0
SECTION
  2
ENTITIES
  0
LINE
  5
4B4
  8
0
 62
     1
 10
165.34101
 20
-426.18693
 30
0.0
 11
210.34492
 21
-412.46818
 31
0.0
  0
POLYLINE
  5
4B5
  8
0
 62
     1
 66
     1
 10
0.0
 20
0.0
 30
0.0
  0
VERTEX
  5
605
  8
0
 62
     1
 10
155.26093
 20
-429.6967
 30
0.0
  0
VERTEX
  5
606
  8
0
 62
     1
 10
151.0872312225116
 20
-431.4927921433739
 30
0.0
  0
VERTEX
  5
607
  8
0
 62
     1
 10
147.0230591759259
 20
-433.3281231886575
 30
0.0
  0
VERTEX
  5
608
  8
0
 62
     1
 10
143.0709777890625
 20
-435.2008400585937
 30
0.0
  0
VERTEX
  5
609
  8
0
 62
     1
 10
139.2335509907408
 20
-437.109089675926
 30
0.0
  0
VERTEX
  5
60A
  8
0
 62
     1
 10
135.5133427097801
 20
-439.051018963397
 30
0.0
  0
VERTEX
  5
60B
  8
0
 62
     1
 10
131.912916875
 20
-441.02477484375
 30
0.0
  0
VERTEX
  5
60C
  8
0
 62
     1
 10
128.4348374152199
 20
-443.028504239728
 30
0.0
  0
VERTEX
  5
60D
  8
0
 62
     1
 10
125.0816682592593
 20
-445.0603540740741
 30
0.0
  0
VERTEX
  5
60E
  8
0
 62
     1
 10
121.8559733359375
 20
-447.1184712695313
 30
0.0
  0
VERTEX
  5
60F
  8
0
 62
     1
 10
118.7603165740741
 20
-449.2010027488426
 30
0.0
  0
VERTEX
  5
610
  8
0
 62
     1
 10
115.7972619024884
 20
-451.3060954347512
 30
0.0
  0
VERTEX
  5
611
  8
0
 62
     1
 10
112.96937325
 20
-453.43189625
 30
0.0
  0
VERTEX
  5
612
  8
0
 62
     1
 10
110.2792145454282
 20
-455.5765521173322
 30
0.0
  0
VERTEX
  5
613
  8
0
 62
     1
 10
107.7293497175926
 20
-457.7382099594908
 30
0.0
  0
VERTEX
  5
614
  8
0
 62
     1
 10
105.3223426953125
 20
-459.9150166992188
 30
0.0
  0
VERTEX
  5
615
  8
0
 62
     1
 10
103.0607574074074
 20
-462.1051192592593
 30
0.0
  0
VERTEX
  5
616
  8
0
 62
     1
 10
100.9471577826968
 20
-464.3066645623554
 30
0.0
  0
VERTEX
  5
617
  8
0
 62
     1
 10
98.98410775000002
 20
-466.51779953125
 30
0.0
  0
VERTEX
  5
618
  8
0
 62
     1
 10
97.17417123813658
 20
-468.7366710886864
 30
0.0
  0
VERTEX
  5
619
  8
0
 62
     1
 10
95.51991217592594
 20
-470.9614261574074
 30
0.0
  0
VERTEX
  5
61A
  8
0
 62
     1
 10
94.02389449218751
 20
-473.1902116601563
 30
0.0
  0
VERTEX
  5
61B
  8
0
 62
     1
 10
92.68868211574076
 20
-475.421174519676
 30
0.0
  0
VERTEX
  5
61C
  8
0
 62
     1
 10
91.51683897540511
 20
-477.6524616587095
 30
0.0
  0
VERTEX
  5
61D
  8
0
 62
     1
 10
90.510929
 20
-479.88222
 30
0.0
  0
SEQEND
  5
84D
  8
0
 62
     1
  0
LINE
  5
4B6
  8
0
 62
     1
 10
90.510929
 20
-479.88222
 30
0.0
 11
120.65937
 21
-479.92922
 31
0.0
  0
LINE
  5
4B7
  8
0
 62
     1
 10
120.65937
 20
-479.92922
 30
0.0
 11
120.65937
 21
-490.24762
 31
0.0
  0
LINE
  5
4B8
  8
0
 62
     1
 10
120.65937
 20
-490.24762
 30
0.0
 11
156.09296
 21
-490.24762
 31
0.0
  0
LINE
  5
4B9
  8
0
 62
     1
 10
156.09296
 20
-490.24762
 30
0.0
 11
156.09296
 21
-479.98592
 31
0.0
  0
LINE
  5
4BA
  8
0
 62
     1
 10
156.09296
 20
-479.98592
 30
0.0
 11
287.29609
 21
-480.19102
 31
0.0
  0
LINE
  5
4BB
  8
0
 62
     1
 10
287.29609
 20
-480.19102
 30
0.0
 11
287.29609
 21
-490.24762
 31
0.0
  0
LINE
  5
4BC
  8
0
 62
     1
 10
287.29609
 20
-490.24762
 30
0.0
 11
322.72773
 21
-490.24762
 31
0.0
  0
LINE
  5
4BD
  8
0
 62
     1
 10
322.72773
 20
-490.24762
 30
0.0
 11
322.72773
 21
-480.24762
 31
0.0
  0
LINE
  5
4BE
  8
0
 62
     1
 10
322.72773
 20
-480.24762
 30
0.0
 11
452.96015
 21
-480.45072
 31
0.0
  0
LINE
  5
4BF
  8
0
 62
     1
 10
452.96015
 20
-480.45072
 30
0.0
 11
452.96015
 21
-490.24762
 31
0.0
  0
LINE
  5
4C0
  8
0
 62
     1
 10
452.96015
 20
-490.24762
 30
0.0
 11
488.39374
 21
-490.24762
 31
0.0
  0
LINE
  5
4C1
  8
0
 62
     1
 10
488.39374
 20
-490.24762
 30
0.0
 11
488.39374
 21
-480.50742
 31
0.0
  0
LINE
  5
4C2
  8
0
 62
     1
 10
488.39374
 20
-480.50742
 30
0.0
 11
517.47773
 21
-480.55242
 31
0.0
  0
POLYLINE
  5
4C3
  8
0
 62
     1
 66
     1
 10
0.0
 20
0.0
 30
0.0
  0
VERTEX
  5
61E
  8
0
 62
     1
 10
517.47773
 20
-480.55242
 30
0.0
  0
VERTEX
  5
61F
  8
0
 62
     1
 10
515.7739674110244
 20
-477.3709788295719
 30
0.0
  0
VERTEX
  5
620
  8
0
 62
     1
 10
513.6831301215277
 20
-474.2035002199074
 30
0.0
  0
VERTEX
  5
621
  8
0
 62
     1
 10
511.2162663476562
 20
-471.0539177734375
 30
0.0
  0
VERTEX
  5
622
  8
0
 62
     1
 10
508.3844243055555
 20
-467.9261650925927
 30
0.0
  0
VERTEX
  5
623
  8
0
 62
     1
 10
505.1986522113716
 20
-464.8241757798033
 30
0.0
  0
VERTEX
  5
624
  8
0
 62
     1
 10
501.6699982812499
 20
-461.7518834375001
 30
0.0
  0
VERTEX
  5
625
  8
0
 62
     1
 10
497.8095107313367
 20
-458.7132216681135
 30
0.0
  0
VERTEX
  5
626
  8
0
 62
     1
 10
493.6282377777777
 20
-455.7121240740742
 30
0.0
  0
VERTEX
  5
627
  8
0
 62
     1
 10
489.1372276367187
 20
-452.7525242578125
 30
0.0
  0
VERTEX
  5
628
  8
0
 62
     1
 10
484.3475285243056
 20
-449.8383558217593
 30
0.0
  0
VERTEX
  5
629
  8
0
 62
     1
 10
479.270188656684
 20
-446.9735523683449
 30
0.0
  0
VERTEX
  5
62A
  8
0
 62
     1
 10
473.9162562499999
 20
-444.1620475
 30
0.0
  0
VERTEX
  5
62B
  8
0
 62
     1
 10
468.2967795203992
 20
-441.4077748191551
 30
0.0
  0
VERTEX
  5
62C
  8
0
 62
     1
 10
462.4228066840278
 20
-438.7146679282408
 30
0.0
  0
VERTEX
  5
62D
  8
0
 62
     1
 10
456.3053859570313
 20
-436.0866604296876
 30
0.0
  0
VERTEX
  5
62E
  8
0
 62
     1
 10
449.9555655555556
 20
-433.527685925926
 30
0.0
  0
VERTEX
  5
62F
  8
0
 62
     1
 10
443.3843936957465
 20
-431.0416780193866
 30
0.0
  0
VERTEX
  5
630
  8
0
 62
     1
 10
436.60291859375
 20
-428.6325703125
 30
0.0
  0
VERTEX
  5
631
  8
0
 62
     1
 10
429.6221884657118
 20
-426.3042964076968
 30
0.0
  0
VERTEX
  5
632
  8
0
 62
     1
 10
422.4532515277778
 20
-424.0607899074074
 30
0.0
  0
VERTEX
  5
633
  8
0
 62
     1
 10
415.1071559960938
 20
-421.9059844140626
 30
0.0
  0
VERTEX
  5
634
  8
0
 62
     1
 10
407.5949500868056
 20
-419.8438135300927
 30
0.0
  0
VERTEX
  5
635
  8
0
 62
     1
 10
399.9276820160591
 20
-417.8782108579283
 30
0.0
  0
VERTEX
  5
636
  8
0
 62
     1
 10
392.1163999999999
 20
-416.01311
 30
0.0
  0
SEQEND
  5
84E
  8
0
 62
     1
  0
LINE
  5
4C4
  8
0
 62
     1
 10
166.8022999999999
 20
-301.70046
 30
0.0
 11
172.49072
 21
-303.20623
 31
0.0
  0
POLYLINE
  5
4C5
  8
0
 62
     1
 66
     1
 10
0.0
 20
0.0
 30
0.0
  0
VERTEX
  5
637
  8
0
 62
     1
 10
172.49072
 20
-303.20623
 30
0.0
  0
VERTEX
  5
638
  8
0
 62
     1
 10
172.6062881206597
 20
-303.2910815610533
 30
0.0
  0
VERTEX
  5
639
  8
0
 62
     1
 10
172.9412287152777
 20
-303.5364866550926
 30
0.0
  0
VERTEX
  5
63A
  8
0
 62
     1
 10
173.4778961328124
 20
-303.9287208984375
 30
0.0
  0
VERTEX
  5
63B
  8
0
 62
     1
 10
174.1986447222222
 20
-304.4540599074075
 30
0.0
  0
VERTEX
  5
63C
  8
0
 62
     1
 10
175.0858288324653
 20
-305.0987792983218
 30
0.0
  0
VERTEX
  5
63D
  8
0
 62
     1
 10
176.1218028124999
 20
-305.8491546875
 30
0.0
  0
VERTEX
  5
63E
  8
0
 62
     1
 10
177.2889210112846
 20
-306.6914616912616
 30
0.0
  0
VERTEX
  5
63F
  8
0
 62
     1
 10
178.5695377777777
 20
-307.6119759259259
 30
0.0
  0
VERTEX
  5
640
  8
0
 62
     1
 10
179.9460074609374
 20
-308.5969730078125
 30
0.0
  0
VERTEX
  5
641
  8
0
 62
     1
 10
181.4006844097222
 20
-309.6327285532407
 30
0.0
  0
VERTEX
  5
642
  8
0
 62
     1
 10
182.9159229730903
 20
-310.7055181785301
 30
0.0
  0
VERTEX
  5
643
  8
0
 62
     1
 10
184.4740775
 20
-311.8016175
 30
0.0
  0
VERTEX
  5
644
  8
0
 62
     1
 10
186.0575023394097
 20
-312.9073021339699
 30
0.0
  0
VERTEX
  5
645
  8
0
 62
     1
 10
187.6485518402777
 20
-314.0088476967593
 30
0.0
  0
VERTEX
  5
646
  8
0
 62
     1
 10
189.2295803515625
 20
-315.0925298046875
 30
0.0
  0
VERTEX
  5
647
  8
0
 62
     1
 10
190.7829422222222
 20
-316.144624074074
 30
0.0
  0
VERTEX
  5
648
  8
0
 62
     1
 10
192.2909918012152
 20
-317.1514061212384
 30
0.0
  0
VERTEX
  5
649
  8
0
 62
     1
 10
193.7360834374999
 20
-318.0991515625
 30
0.0
  0
VERTEX
  5
64A
  8
0
 62
     1
 10
195.1005714800347
 20
-318.9741360141782
 30
0.0
  0
VERTEX
  5
64B
  8
0
 62
     1
 10
196.3668102777777
 20
-319.7626350925926
 30
0.0
  0
VERTEX
  5
64C
  8
0
 62
     1
 10
197.5171541796875
 20
-320.4509244140625
 30
0.0
  0
VERTEX
  5
64D
  8
0
 62
     1
 10
198.5339575347222
 20
-321.0252795949074
 30
0.0
  0
VERTEX
  5
64E
  8
0
 62
     1
 10
199.3995746918402
 20
-321.4719762514467
 30
0.0
  0
VERTEX
  5
64F
  8
0
 62
     1
 10
200.0963599999999
 20
-321.77729
 30
0.0
  0
SEQEND
  5
84F
  8
0
 62
     1
  0
LINE
  5
4C6
  8
0
 62
     1
 10
200.0963599999999
 20
-321.77729
 30
0.0
 11
239.5807799999999
 21
-337.67143
 31
0.0
  0
LINE
  5
4C7
  8
0
 62
     1
 10
153.2504399999999
 20
-295.51011
 30
0.0
 11
150.2389099999999
 21
-299.69278
 31
0.0
  0
LINE
  5
4C8
  8
0
 62
     1
 10
150.2389099999999
 20
-299.69278
 30
0.0
 11
155.4254299999999
 21
-304.71198
 31
0.0
  0
LINE
  5
4C9
  8
0
 62
     1
 10
155.4254299999999
 20
-304.71198
 30
0.0
 11
156.91184
 21
-304.66238
 31
0.0
  0
LINE
  5
4CA
  8
0
 62
     1
 10
153.35015
 20
-295.11917
 30
0.0
 11
148.23123
 21
-289.31975
 31
0.0
  0
LINE
  5
4CB
  8
0
 62
     1
 10
148.23123
 20
-289.31975
 30
0.0
 11
157.2658
 21
-278.94673
 31
0.0
  0
POLYLINE
  5
4CC
  8
0
 62
     1
 66
     1
 10
0.0
 20
0.0
 30
0.0
  0
VERTEX
  5
650
  8
0
 62
     1
 10
248.6153399999999
 20
-326.12726
 30
0.0
  0
VERTEX
  5
651
  8
0
 62
     1
 10
248.4573522012442
 20
-326.1008399558738
 30
0.0
  0
VERTEX
  5
652
  8
0
 62
     1
 10
247.999751568287
 20
-326.0239519386574
 30
0.0
  0
VERTEX
  5
653
  8
0
 62
     1
 10
247.2670822460937
 20
-325.9001541210937
 30
0.0
  0
VERTEX
  5
654
  8
0
 62
     1
 10
246.2838883796296
 20
-325.7330046759259
 30
0.0
  0
VERTEX
  5
655
  8
0
 62
     1
 10
245.0747141138599
 20
-325.526061775897
 30
0.0
  0
VERTEX
  5
656
  8
0
 62
     1
 10
243.66410359375
 20
-325.2828835937499
 30
0.0
  0
VERTEX
  5
657
  8
0
 62
     1
 10
242.076600964265
 20
-325.007028302228
 30
0.0
  0
VERTEX
  5
658
  8
0
 62
     1
 10
240.3367503703703
 20
-324.702054074074
 30
0.0
  0
VERTEX
  5
659
  8
0
 62
     1
 10
238.4690959570312
 20
-324.3715190820312
 30
0.0
  0
VERTEX
  5
65A
  8
0
 62
     1
 10
236.4981818692129
 20
-324.0189814988426
 30
0.0
  0
VERTEX
  5
65B
  8
0
 62
     1
 10
234.4485522518808
 20
-323.6479994972511
 30
0.0
  0
VERTEX
  5
65C
  8
0
 62
     1
 10
232.3447512499999
 20
-323.26213125
 30
0.0
  0
VERTEX
  5
65D
  8
0
 62
     1
 10
230.2113230085358
 20
-322.8649349298321
 30
0.0
  0
VERTEX
  5
65E
  8
0
 62
     1
 10
228.0728116724536
 20
-322.4599687094907
 30
0.0
  0
VERTEX
  5
65F
  8
0
 62
     1
 10
225.9537613867187
 20
-322.0507907617188
 30
0.0
  0
VERTEX
  5
660
  8
0
 62
     1
 10
223.8787162962963
 20
-321.6409592592593
 30
0.0
  0
VERTEX
  5
661
  8
0
 62
     1
 10
221.8722205461516
 20
-321.2340323748553
 30
0.0
  0
VERTEX
  5
662
  8
0
 62
     1
 10
219.95881828125
 20
-320.83356828125
 30
0.0
  0
VERTEX
  5
663
  8
0
 62
     1
 10
218.1630536465566
 20
-320.4431251511863
 30
0.0
  0
VERTEX
  5
664
  8
0
 62
     1
 10
216.509470787037
 20
-320.0662611574074
 30
0.0
  0
VERTEX
  5
665
  8
0
 62
     1
 10
215.0226138476562
 20
-319.7065344726562
 30
0.0
  0
VERTEX
  5
666
  8
0
 62
     1
 10
213.7270269733796
 20
-319.3675032696759
 30
0.0
  0
VERTEX
  5
667
  8
0
 62
     1
 10
212.6472543091724
 20
-319.0527257212095
 30
0.0
  0
VERTEX
  5
668
  8
0
 62
     1
 10
211.8078399999999
 20
-318.76576
 30
0.0
  0
SEQEND
  5
850
  8
0
 62
     1
  0
POLYLINE
  5
4CD
  8
0
 62
     1
 66
     1
 10
0.0
 20
0.0
 30
0.0
  0
VERTEX
  5
669
  8
0
 62
     1
 10
211.8078399999999
 20
-318.76576
 30
0.0
  0
VERTEX
  5
66A
  8
0
 62
     1
 10
210.9819794473379
 20
-318.4084779521123
 30
0.0
  0
VERTEX
  5
66B
  8
0
 62
     1
 10
209.941321412037
 20
-317.8907875752315
 30
0.0
  0
VERTEX
  5
66C
  8
0
 62
     1
 10
208.7080863281249
 20
-317.2283012695313
 30
0.0
  0
VERTEX
  5
66D
  8
0
 62
     1
 10
207.3044946296296
 20
-316.4366314351852
 30
0.0
  0
VERTEX
  5
66E
  8
0
 62
     1
 10
205.7527667505787
 20
-315.5313904723669
 30
0.0
  0
VERTEX
  5
66F
  8
0
 62
     1
 10
204.0751231249999
 20
-314.52819078125
 30
0.0
  0
VERTEX
  5
670
  8
0
 62
     1
 10
202.2937841869212
 20
-313.4426447620081
 30
0.0
  0
VERTEX
  5
671
  8
0
 62
     1
 10
200.4309703703703
 20
-312.2903648148149
 30
0.0
  0
VERTEX
  5
672
  8
0
 62
     1
 10
198.5089021093749
 20
-311.0869633398437
 30
0.0
  0
VERTEX
  5
673
  8
0
 62
     1
 10
196.5497998379629
 20
-309.8480527372685
 30
0.0
  0
VERTEX
  5
674
  8
0
 62
     1
 10
194.575883990162
 20
-308.5892454072628
 30
0.0
  0
VERTEX
  5
675
  8
0
 62
     1
 10
192.6093749999999
 20
-307.32615375
 30
0.0
  0
VERTEX
  5
676
  8
0
 62
     1
 10
190.6724933015045
 20
-306.074390165654
 30
0.0
  0
VERTEX
  5
677
  8
0
 62
     1
 10
188.7874593287036
 20
-304.8495670543981
 30
0.0
  0
VERTEX
  5
678
  8
0
 62
     1
 10
186.976493515625
 20
-303.6672968164063
 30
0.0
  0
VERTEX
  5
679
  8
0
 62
     1
 10
185.2618162962962
 20
-302.5431918518519
 30
0.0
  0
VERTEX
  5
67A
  8
0
 62
     1
 10
183.6656481047453
 20
-301.4928645609086
 30
0.0
  0
VERTEX
  5
67B
  8
0
 62
     1
 10
182.2102093749999
 20
-300.53192734375
 30
0.0
  0
VERTEX
  5
67C
  8
0
 62
     1
 10
180.9177205410879
 20
-299.6759926005498
 30
0.0
  0
VERTEX
  5
67D
  8
0
 62
     1
 10
179.810402037037
 20
-298.9406727314815
 30
0.0
  0
VERTEX
  5
67E
  8
0
 62
     1
 10
178.9104742968749
 20
-298.3415801367187
 30
0.0
  0
VERTEX
  5
67F
  8
0
 62
     1
 10
178.2401577546296
 20
-297.8943272164352
 30
0.0
  0
VERTEX
  5
680
  8
0
 62
     1
 10
177.8216728443286
 20
-297.6145263708044
 30
0.0
  0
VERTEX
  5
681
  8
0
 62
     1
 10
177.6772399999999
 20
-297.51779
 30
0.0
  0
SEQEND
  5
851
  8
0
 62
     1
  0
ARC
  5
4CE
  8
0
 62
     1
 10
149.7728900900256
 20
-299.118752507132
 30
0.0
 40
27.95023836834901
 50
3.283643818168009
 51
23.85729036576106
  0
ARC
  5
4CF
  8
0
 62
     1
 10
-510.5978411510641
 20
-675.232661969279
 30
0.0
 40
787.7797915024859
 50
29.45800361970347
 51
30.62472646798646
  0
LINE
  5
4D0
  8
0
 62
     1
 10
370.08012
 20
-325.29073
 30
0.0
 11
405.71649
 21
-308.22543
 31
0.0
  0
LINE
  5
4D1
  8
0
 62
     1
 10
405.71649
 20
-308.22543
 30
0.0
 11
425.29139
 21
-278.94673
 31
0.0
  0
LINE
  5
4D2
  8
0
 62
     1
 10
425.29139
 20
-278.94673
 30
0.0
 11
426.62985
 21
-258.86991
 31
0.0
  0
LINE
  5
4D3
  8
0
 62
     1
 10
426.62985
 20
-258.86991
 30
0.0
 11
436.50095
 21
-258.86991
 31
0.0
  0
LINE
  5
4D4
  8
0
 62
     1
 10
436.50095
 20
-258.86991
 30
0.0
 11
433.82404
 21
-269.74485
 31
0.0
  0
LINE
  5
4D5
  8
0
 62
     1
 10
433.82404
 20
-269.74485
 30
0.0
 11
462.76812
 21
-255.18916
 31
0.0
  0
LINE
  5
4D6
  8
0
 62
     1
 10
462.76812
 20
-255.18916
 30
0.0
 11
468.7911799999999
 21
-262.38335
 31
0.0
  0
LINE
  5
4D7
  8
0
 62
     1
 10
468.7911799999999
 20
-262.38335
 30
0.0
 11
439.6797799999999
 21
-272.75638
 31
0.0
  0
LINE
  5
4D8
  8
0
 62
     1
 10
439.6797799999999
 20
-272.75638
 30
0.0
 11
470.12963
 21
-276.93904
 31
0.0
  0
LINE
  5
4D9
  8
0
 62
     1
 10
470.12963
 20
-276.93904
 30
0.0
 11
468.45656
 21
-285.63901
 31
0.0
  0
LINE
  5
4DA
  8
0
 62
     1
 10
468.45656
 20
-285.63901
 30
0.0
 11
434.82789
 21
-277.44097
 31
0.0
  0
LINE
  5
4DB
  8
0
 62
     1
 10
434.82789
 20
-277.44097
 30
0.0
 11
416.75874
 21
-309.06197
 31
0.0
  0
POLYLINE
  5
4DC
  8
0
 62
     1
 66
     1
 10
0.0
 20
0.0
 30
0.0
  0
VERTEX
  5
682
  8
0
 62
     1
 10
416.75874
 20
-309.06197
 30
0.0
  0
VERTEX
  5
683
  8
0
 62
     1
 10
416.4291249826389
 20
-309.5107840371818
 30
0.0
  0
VERTEX
  5
684
  8
0
 62
     1
 10
416.0702456944445
 20
-309.9372322974538
 30
0.0
  0
VERTEX
  5
685
  8
0
 62
     1
 10
415.68595078125
 20
-310.3416052539063
 30
0.0
  0
VERTEX
  5
686
  8
0
 62
     1
 10
415.2800888888889
 20
-310.7241933796297
 30
0.0
  0
VERTEX
  5
687
  8
0
 62
     1
 10
414.8565086631945
 20
-311.0852871477142
 30
0.0
  0
VERTEX
  5
688
  8
0
 62
     1
 10
414.4190587500001
 20
-311.42517703125
 30
0.0
  0
VERTEX
  5
689
  8
0
 62
     1
 10
413.9715877951389
 20
-311.7441535033275
 30
0.0
  0
VERTEX
  5
68A
  8
0
 62
     1
 10
413.5179444444445
 20
-312.0425070370371
 30
0.0
  0
VERTEX
  5
68B
  8
0
 62
     1
 10
413.06197734375
 20
-312.3205281054688
 30
0.0
  0
VERTEX
  5
68C
  8
0
 62
     1
 10
412.6075351388889
 20
-312.578507181713
 30
0.0
  0
VERTEX
  5
68D
  8
0
 62
     1
 10
412.1584664756945
 20
-312.81673473886
 30
0.0
  0
VERTEX
  5
68E
  8
0
 62
     1
 10
411.71862
 20
-313.03550125
 30
0.0
  0
VERTEX
  5
68F
  8
0
 62
     1
 10
411.2918443576389
 20
-313.2350971882234
 30
0.0
  0
VERTEX
  5
690
  8
0
 62
     1
 10
410.8819881944444
 20
-313.4158130266204
 30
0.0
  0
VERTEX
  5
691
  8
0
 62
     1
 10
410.49290015625
 20
-313.5779392382813
 30
0.0
  0
VERTEX
  5
692
  8
0
 62
     1
 10
410.1284288888889
 20
-313.7217662962963
 30
0.0
  0
VERTEX
  5
693
  8
0
 62
     1
 10
409.7924230381944
 20
-313.8475846737558
 30
0.0
  0
VERTEX
  5
694
  8
0
 62
     1
 10
409.48873125
 20
-313.9556848437501
 30
0.0
  0
VERTEX
  5
695
  8
0
 62
     1
 10
409.2212021701389
 20
-314.0463572793693
 30
0.0
  0
VERTEX
  5
696
  8
0
 62
     1
 10
408.9936844444444
 20
-314.1198924537038
 30
0.0
  0
VERTEX
  5
697
  8
0
 62
     1
 10
408.81002671875
 20
-314.1765808398438
 30
0.0
  0
VERTEX
  5
698
  8
0
 62
     1
 10
408.6740776388889
 20
-314.2167129108797
 30
0.0
  0
VERTEX
  5
699
  8
0
 62
     1
 10
408.5896858506944
 20
-314.2405791399016
 30
0.0
  0
VERTEX
  5
69A
  8
0
 62
     1
 10
408.5607
 20
-314.2484700000001
 30
0.0
  0
SEQEND
  5
852
  8
0
 62
     1
  0
LINE
  5
4DD
  8
0
 62
     1
 10
408.5607
 20
-314.2484700000001
 30
0.0
 11
372.25511
 21
-335.9983700000001
 31
0.0
  0
ARC
  5
4DE
  8
0
 62
     1
 10
393.1631696498198
 20
-175.6036829475215
 30
0.0
 40
83.06905250408606
 50
170.6910000912476
 51
190.6413845710978
  0
ARC
  5
4DF
  8
0
 62
     1
 10
1214.754447926719
 20
-327.847207025925
 30
0.0
 40
918.63061878759
 50
167.6509116766349
 51
169.6094950781934
  0
POLYLINE
  5
4E0
  8
0
 62
     1
 66
     1
 10
0.0
 20
0.0
 30
0.0
  0
VERTEX
  5
69B
  8
0
 62
     1
 10
317.37846
 20
-131.38207
 30
0.0
  0
VERTEX
  5
69C
  8
0
 62
     1
 10
317.4906514561633
 20
-131.3919941854746
 30
0.0
  0
VERTEX
  5
69D
  8
0
 62
     1
 10
317.8193833159723
 20
-131.4231222337963
 30
0.0
  0
VERTEX
  5
69E
  8
0
 62
     1
 10
318.3528918164063
 20
-131.4774873828125
 30
0.0
  0
VERTEX
  5
69F
  8
0
 62
     1
 10
319.0794131944445
 20
-131.5571228703704
 30
0.0
  0
VERTEX
  5
6A0
  8
0
 62
     1
 10
319.987183687066
 20
-131.6640619343171
 30
0.0
  0
VERTEX
  5
6A1
  8
0
 62
     1
 10
321.0644395312501
 20
-131.8003378125
 30
0.0
  0
VERTEX
  5
6A2
  8
0
 62
     1
 10
322.2994169639757
 20
-131.9679837427662
 30
0.0
  0
VERTEX
  5
6A3
  8
0
 62
     1
 10
323.6803522222223
 20
-132.169032962963
 30
0.0
  0
VERTEX
  5
6A4
  8
0
 62
     1
 10
325.1954815429688
 20
-132.4055187109375
 30
0.0
  0
VERTEX
  5
6A5
  8
0
 62
     1
 10
326.8330411631945
 20
-132.679474224537
 30
0.0
  0
VERTEX
  5
6A6
  8
0
 62
     1
 10
328.5812673198785
 20
-132.9929327416088
 30
0.0
  0
VERTEX
  5
6A7
  8
0
 62
     1
 10
330.42839625
 20
-133.3479275
 30
0.0
  0
VERTEX
  5
6A8
  8
0
 62
     1
 10
332.3626641905382
 20
-133.7464917375579
 30
0.0
  0
VERTEX
  5
6A9
  8
0
 62
     1
 10
334.3723073784722
 20
-134.1906586921296
 30
0.0
  0
VERTEX
  5
6AA
  8
0
 62
     1
 10
336.4455620507813
 20
-134.6824616015625
 30
0.0
  0
VERTEX
  5
6AB
  8
0
 62
     1
 10
338.5706644444444
 20
-135.2239337037037
 30
0.0
  0
VERTEX
  5
6AC
  8
0
 62
     1
 10
340.735850796441
 20
-135.8171082364005
 30
0.0
  0
VERTEX
  5
6AD
  8
0
 62
     1
 10
342.92935734375
 20
-136.4640184375
 30
0.0
  0
VERTEX
  5
6AE
  8
0
 62
     1
 10
345.1394203233507
 20
-137.1666975448495
 30
0.0
  0
VERTEX
  5
6AF
  8
0
 62
     1
 10
347.3542759722222
 20
-137.9271787962963
 30
0.0
  0
VERTEX
  5
6B0
  8
0
 62
     1
 10
349.5621605273437
 20
-138.7474954296875
 30
0.0
  0
VERTEX
  5
6B1
  8
0
 62
     1
 10
351.7513102256945
 20
-139.6296806828704
 30
0.0
  0
VERTEX
  5
6B2
  8
0
 62
     1
 10
353.9099613042534
 20
-140.5757677936921
 30
0.0
  0
VERTEX
  5
6B3
  8
0
 62
     1
 10
356.02635
 20
-141.58779
 30
0.0
  0
SEQEND
  5
853
  8
0
 62
     1
  0
POLYLINE
  5
4E1
  8
0
 62
     1
 66
     1
 10
0.0
 20
0.0
 30
0.0
  0
VERTEX
  5
6B4
  8
0
 62
     1
 10
356.02635
 20
-141.58779
 30
0.0
  0
VERTEX
  5
6B5
  8
0
 62
     1
 10
358.1249477886286
 20
-142.6777532364004
 30
0.0
  0
VERTEX
  5
6B6
  8
0
 62
     1
 10
360.2322593923611
 20
-143.8487558912037
 30
0.0
  0
VERTEX
  5
6B7
  8
0
 62
     1
 10
362.3395709179688
 20
-145.0894698828125
 30
0.0
  0
VERTEX
  5
6B8
  8
0
 62
     1
 10
364.4381684722223
 20
-146.3885671296296
 30
0.0
  0
VERTEX
  5
6B9
  8
0
 62
     1
 10
366.5193381618924
 20
-147.7347195500579
 30
0.0
  0
VERTEX
  5
6BA
  8
0
 62
     1
 10
368.5743660937501
 20
-149.1165990625
 30
0.0
  0
VERTEX
  5
6BB
  8
0
 62
     1
 10
370.594538374566
 20
-150.5228775853588
 30
0.0
  0
VERTEX
  5
6BC
  8
0
 62
     1
 10
372.5711411111112
 20
-151.942227037037
 30
0.0
  0
VERTEX
  5
6BD
  8
0
 62
     1
 10
374.4954604101563
 20
-153.3633193359375
 30
0.0
  0
VERTEX
  5
6BE
  8
0
 62
     1
 10
376.3587823784723
 20
-154.774826400463
 30
0.0
  0
VERTEX
  5
6BF
  8
0
 62
     1
 10
378.1523931228299
 20
-156.1654201490162
 30
0.0
  0
VERTEX
  5
6C0
  8
0
 62
     1
 10
379.86757875
 20
-157.5237725
 30
0.0
  0
VERTEX
  5
6C1
  8
0
 62
     1
 10
381.4956253667535
 20
-158.8385553718171
 30
0.0
  0
VERTEX
  5
6C2
  8
0
 62
     1
 10
383.0278190798612
 20
-160.0984406828703
 30
0.0
  0
VERTEX
  5
6C3
  8
0
 62
     1
 10
384.4554459960938
 20
-161.2921003515625
 30
0.0
  0
VERTEX
  5
6C4
  8
0
 62
     1
 10
385.7697922222223
 20
-162.4082062962963
 30
0.0
  0
VERTEX
  5
6C5
  8
0
 62
     1
 10
386.9621438650174
 20
-163.4354304354745
 30
0.0
  0
VERTEX
  5
6C6
  8
0
 62
     1
 10
388.02378703125
 20
-164.3624446875
 30
0.0
  0
VERTEX
  5
6C7
  8
0
 62
     1
 10
388.946007827691
 20
-165.1779209707754
 30
0.0
  0
VERTEX
  5
6C8
  8
0
 62
     1
 10
389.7200923611111
 20
-165.8705312037037
 30
0.0
  0
VERTEX
  5
6C9
  8
0
 62
     1
 10
390.3373267382813
 20
-166.4289473046875
 30
0.0
  0
VERTEX
  5
6CA
  8
0
 62
     1
 10
390.7889970659722
 20
-166.8418411921296
 30
0.0
  0
VERTEX
  5
6CB
  8
0
 62
     1
 10
391.0663894509549
 20
-167.0978847844328
 30
0.0
  0
VERTEX
  5
6CC
  8
0
 62
     1
 10
391.16079
 20
-167.18575
 30
0.0
  0
SEQEND
  5
854
  8
0
 62
     1
  0
ARC
  5
4E2
  8
0
 62
     1
 10
82.74531792956952
 20
-6.34324959318559
 30
0.0
 40
347.8367625044
 50
327.2939774806456
 51
332.4573994087859
  0
ARC
  5
4E3
  8
0
 62
     1
 10
-337.747648662071
 20
323.3431367007996
 30
0.0
 40
881.2329418703091
 50
322.2326416927581
 51
324.0275713175963
  0
POLYLINE
  5
4E4
  8
0
 62
     1
 66
     1
 10
0.0
 20
0.0
 30
0.0
  0
VERTEX
  5
6CD
  8
0
 62
     1
 10
363.5138900000001
 20
-224.45337
 30
0.0
  0
VERTEX
  5
6CE
  8
0
 62
     1
 10
365.7490943706597
 20
-225.3265338324653
 30
0.0
  0
VERTEX
  5
6CF
  8
0
 62
     1
 10
367.8796335069445
 20
-226.1429467013889
 30
0.0
  0
VERTEX
  5
6D0
  8
0
 62
     1
 10
369.9063564453126
 20
-226.9043506640625
 30
0.0
  0
VERTEX
  5
6D1
  8
0
 62
     1
 10
371.8301122222223
 20
-227.6124877777777
 30
0.0
  0
VERTEX
  5
6D2
  8
0
 62
     1
 10
373.651749874132
 20
-228.2691000998264
 30
0.0
  0
VERTEX
  5
6D3
  8
0
 62
     1
 10
375.3721184375001
 20
-228.8759296875
 30
0.0
  0
VERTEX
  5
6D4
  8
0
 62
     1
 10
376.9920669487848
 20
-229.4347185980903
 30
0.0
  0
VERTEX
  5
6D5
  8
0
 62
     1
 10
378.5124444444446
 20
-229.9472088888889
 30
0.0
  0
VERTEX
  5
6D6
  8
0
 62
     1
 10
379.9340999609376
 20
-230.4151426171875
 30
0.0
  0
VERTEX
  5
6D7
  8
0
 62
     1
 10
381.2578825347223
 20
-230.8402618402778
 30
0.0
  0
VERTEX
  5
6D8
  8
0
 62
     1
 10
382.484641202257
 20
-231.2243086154513
 30
0.0
  0
VERTEX
  5
6D9
  8
0
 62
     1
 10
383.6152250000001
 20
-231.569025
 30
0.0
  0
VERTEX
  5
6DA
  8
0
 62
     1
 10
384.6504829644098
 20
-231.8761530512153
 30
0.0
  0
VERTEX
  5
6DB
  8
0
 62
     1
 10
385.5912641319445
 20
-232.1474348263889
 30
0.0
  0
VERTEX
  5
6DC
  8
0
 62
     1
 10
386.4384175390626
 20
-232.3846123828125
 30
0.0
  0
VERTEX
  5
6DD
  8
0
 62
     1
 10
387.1927922222222
 20
-232.5894277777778
 30
0.0
  0
VERTEX
  5
6DE
  8
0
 62
     1
 10
387.8552372178821
 20
-232.7636230685764
 30
0.0
  0
VERTEX
  5
6DF
  8
0
 62
     1
 10
388.4266015625001
 20
-232.9089403125
 30
0.0
  0
VERTEX
  5
6E0
  8
0
 62
     1
 10
388.9077342925348
 20
-233.0271215668403
 30
0.0
  0
VERTEX
  5
6E1
  8
0
 62
     1
 10
389.2994844444445
 20
-233.1199088888889
 30
0.0
  0
VERTEX
  5
6E2
  8
0
 62
     1
 10
389.6027010546876
 20
-233.1890443359375
 30
0.0
  0
VERTEX
  5
6E3
  8
0
 62
     1
 10
389.8182331597223
 20
-233.2362699652778
 30
0.0
  0
VERTEX
  5
6E4
  8
0
 62
     1
 10
389.946929796007
 20
-233.2633278342014
 30
0.0
  0
VERTEX
  5
6E5
  8
0
 62
     1
 10
389.9896400000001
 20
-233.27196
 30
0.0
  0
SEQEND
  5
855
  8
0
 62
     1
  0
LINE
  5
4E5
  8
0
 62
     1
 10
389.9896400000001
 20
-233.27196
 30
0.0
 11
389.8223300000001
 21
-226.07776
 31
0.0
  0
POLYLINE
  5
4E6
  8
0
 62
     1
 66
     1
 10
0.0
 20
0.0
 30
0.0
  0
VERTEX
  5
6E6
  8
0
 62
     1
 10
389.8223300000001
 20
-226.07776
 30
0.0
  0
VERTEX
  5
6E7
  8
0
 62
     1
 10
389.7601332096355
 20
-226.0683605447049
 30
0.0
  0
VERTEX
  5
6E8
  8
0
 62
     1
 10
389.5749500520835
 20
-226.0388828993055
 30
0.0
  0
VERTEX
  5
6E9
  8
0
 62
     1
 10
389.2688913476563
 20
-225.9874081445313
 30
0.0
  0
VERTEX
  5
6EA
  8
0
 62
     1
 10
388.8440679166667
 20
-225.9120173611111
 30
0.0
  0
VERTEX
  5
6EB
  8
0
 62
     1
 10
388.3025905794272
 20
-225.8107916297743
 30
0.0
  0
VERTEX
  5
6EC
  8
0
 62
     1
 10
387.64657015625
 20
-225.68181203125
 30
0.0
  0
VERTEX
  5
6ED
  8
0
 62
     1
 10
386.878117467448
 20
-225.5231596462673
 30
0.0
  0
VERTEX
  5
6EE
  8
0
 62
     1
 10
385.9993433333334
 20
-225.3329155555556
 30
0.0
  0
VERTEX
  5
6EF
  8
0
 62
     1
 10
385.0123585742188
 20
-225.1091608398438
 30
0.0
  0
VERTEX
  5
6F0
  8
0
 62
     1
 10
383.9192740104167
 20
-224.8499765798611
 30
0.0
  0
VERTEX
  5
6F1
  8
0
 62
     1
 10
382.7222004622396
 20
-224.5534438563368
 30
0.0
  0
VERTEX
  5
6F2
  8
0
 62
     1
 10
381.4232487500001
 20
-224.21764375
 30
0.0
  0
VERTEX
  5
6F3
  8
0
 62
     1
 10
380.0245296940105
 20
-223.8406573415798
 30
0.0
  0
VERTEX
  5
6F4
  8
0
 62
     1
 10
378.5281541145835
 20
-223.4205657118056
 30
0.0
  0
VERTEX
  5
6F5
  8
0
 62
     1
 10
376.9362328320314
 20
-222.9554499414062
 30
0.0
  0
VERTEX
  5
6F6
  8
0
 62
     1
 10
375.2508766666667
 20
-222.4433911111111
 30
0.0
  0
VERTEX
  5
6F7
  8
0
 62
     1
 10
373.4741964388022
 20
-221.8824703016493
 30
0.0
  0
VERTEX
  5
6F8
  8
0
 62
     1
 10
371.6083029687501
 20
-221.27076859375
 30
0.0
  0
VERTEX
  5
6F9
  8
0
 62
     1
 10
369.655307076823
 20
-220.6063670681423
 30
0.0
  0
VERTEX
  5
6FA
  8
0
 62
     1
 10
367.6173195833334
 20
-219.8873468055555
 30
0.0
  0
VERTEX
  5
6FB
  8
0
 62
     1
 10
365.4964513085938
 20
-219.1117888867187
 30
0.0
  0
VERTEX
  5
6FC
  8
0
 62
     1
 10
363.2948130729168
 20
-218.2777743923611
 30
0.0
  0
VERTEX
  5
6FD
  8
0
 62
     1
 10
361.0145156966146
 20
-217.3833844032118
 30
0.0
  0
VERTEX
  5
6FE
  8
0
 62
     1
 10
358.6576700000001
 20
-216.4267
 30
0.0
  0
SEQEND
  5
856
  8
0
 62
     1
  0
ARC
  5
4E7
  8
0
 62
     1
 10
386.5707717369621
 20
-73.04410516593668
 30
0.0
 40
139.8274107221982
 50
226.945395253537
 51
237.4797141467953
  0
LINE
  5
4E8
  8
0
 62
     1
 10
291.1112900000001
 20
-175.21647
 30
0.0
 11
286.5940000000001
 21
-179.73376
 31
0.0
  0
POLYLINE
  5
4E9
  8
0
 62
     1
 66
     1
 10
0.0
 20
0.0
 30
0.0
  0
VERTEX
  5
6FF
  8
0
 62
     1
 10
286.5940000000001
 20
-179.73376
 30
0.0
  0
VERTEX
  5
700
  8
0
 62
     1
 10
286.6289088592304
 20
-179.7733730287905
 30
0.0
  0
VERTEX
  5
701
  8
0
 62
     1
 10
286.7343346238426
 20
-179.8907302719907
 30
0.0
  0
VERTEX
  5
702
  8
0
 62
     1
 10
286.9113260742188
 20
-180.0836089648437
 30
0.0
  0
VERTEX
  5
703
  8
0
 62
     1
 10
287.1609319907408
 20
-180.3497863425926
 30
0.0
  0
VERTEX
  5
704
  8
0
 62
     1
 10
287.4842011537906
 20
-180.6870396404803
 30
0.0
  0
VERTEX
  5
705
  8
0
 62
     1
 10
287.8821823437501
 20
-181.09314609375
 30
0.0
  0
VERTEX
  5
706
  8
0
 62
     1
 10
288.3559243410012
 20
-181.5658829376447
 30
0.0
  0
VERTEX
  5
707
  8
0
 62
     1
 10
288.906475925926
 20
-182.1030274074074
 30
0.0
  0
VERTEX
  5
708
  8
0
 62
     1
 10
289.5348858789064
 20
-182.7023567382813
 30
0.0
  0
VERTEX
  5
709
  8
0
 62
     1
 10
290.2422029803241
 20
-183.3616481655093
 30
0.0
  0
VERTEX
  5
70A
  8
0
 62
     1
 10
291.0294760105614
 20
-184.0786789243345
 30
0.0
  0
VERTEX
  5
70B
  8
0
 62
     1
 10
291.89775375
 20
-184.85122625
 30
0.0
  0
VERTEX
  5
70C
  8
0
 62
     1
 10
292.848084979022
 20
-185.6770673777488
 30
0.0
  0
VERTEX
  5
70D
  8
0
 62
     1
 10
293.8815184780093
 20
-186.5539795428241
 30
0.0
  0
VERTEX
  5
70E
  8
0
 62
     1
 10
294.9991030273438
 20
-187.4797399804687
 30
0.0
  0
VERTEX
  5
70F
  8
0
 62
     1
 10
296.2018874074075
 20
-188.4521259259259
 30
0.0
  0
VERTEX
  5
710
  8
0
 62
     1
 10
297.4909203985823
 20
-189.4689146144387
 30
0.0
  0
VERTEX
  5
711
  8
0
 62
     1
 10
298.86725078125
 20
-190.52788328125
 30
0.0
  0
VERTEX
  5
712
  8
0
 62
     1
 10
300.3319273357928
 20
-191.626809161603
 30
0.0
  0
VERTEX
  5
713
  8
0
 62
     1
 10
301.8859988425926
 20
-192.7634694907407
 30
0.0
  0
VERTEX
  5
714
  8
0
 62
     1
 10
303.5305140820312
 20
-193.9356415039063
 30
0.0
  0
VERTEX
  5
715
  8
0
 62
     1
 10
305.2665218344908
 20
-195.1411024363426
 30
0.0
  0
VERTEX
  5
716
  8
0
 62
     1
 10
307.095070880353
 20
-196.3776295232928
 30
0.0
  0
VERTEX
  5
717
  8
0
 62
     1
 10
309.01721
 20
-197.643
 30
0.0
  0
SEQEND
  5
857
  8
0
 62
     1
  0
POLYLINE
  5
4EA
  8
0
 62
     1
 66
     1
 10
0.0
 20
0.0
 30
0.0
  0
VERTEX
  5
718
  8
0
 62
     1
 10
254.33332
 20
-231.00756
 30
0.0
  0
VERTEX
  5
719
  8
0
 62
     1
 10
253.0756115407987
 20
-230.8649256807003
 30
0.0
  0
VERTEX
  5
71A
  8
0
 62
     1
 10
251.8300850347223
 20
-230.7288219039352
 30
0.0
  0
VERTEX
  5
71B
  8
0
 62
     1
 10
250.5997800390626
 20
-230.6001961914063
 30
0.0
  0
VERTEX
  5
71C
  8
0
 62
     1
 10
249.3877361111112
 20
-230.4799960648149
 30
0.0
  0
VERTEX
  5
71D
  8
0
 62
     1
 10
248.1969928081598
 20
-230.3691690458623
 30
0.0
  0
VERTEX
  5
71E
  8
0
 62
     1
 10
247.0305896875
 20
-230.26866265625
 30
0.0
  0
VERTEX
  5
71F
  8
0
 62
     1
 10
245.8915663064236
 20
-230.1794244176794
 30
0.0
  0
VERTEX
  5
720
  8
0
 62
     1
 10
244.7829622222223
 20
-230.1024018518519
 30
0.0
  0
VERTEX
  5
721
  8
0
 62
     1
 10
243.7078169921875
 20
-230.0385424804688
 30
0.0
  0
VERTEX
  5
722
  8
0
 62
     1
 10
242.6691701736112
 20
-229.9887938252315
 30
0.0
  0
VERTEX
  5
723
  8
0
 62
     1
 10
241.6700613237848
 20
-229.9541034078414
 30
0.0
  0
VERTEX
  5
724
  8
0
 62
     1
 10
240.71353
 20
-229.93541875
 30
0.0
  0
VERTEX
  5
725
  8
0
 62
     1
 10
239.8026157595486
 20
-229.9336873734086
 30
0.0
  0
VERTEX
  5
726
  8
0
 62
     1
 10
238.9403581597223
 20
-229.9498567997686
 30
0.0
  0
VERTEX
  5
727
  8
0
 62
     1
 10
238.1297967578126
 20
-229.9848745507813
 30
0.0
  0
VERTEX
  5
728
  8
0
 62
     1
 10
237.3739711111112
 20
-230.0396881481481
 30
0.0
  0
VERTEX
  5
729
  8
0
 62
     1
 10
236.6759207769098
 20
-230.1152451135706
 30
0.0
  0
VERTEX
  5
72A
  8
0
 62
     1
 10
236.0386853125
 20
-230.21249296875
 30
0.0
  0
VERTEX
  5
72B
  8
0
 62
     1
 10
235.4653042751737
 20
-230.3323792353877
 30
0.0
  0
VERTEX
  5
72C
  8
0
 62
     1
 10
234.9588172222223
 20
-230.4758514351852
 30
0.0
  0
VERTEX
  5
72D
  8
0
 62
     1
 10
234.5222637109376
 20
-230.6438570898437
 30
0.0
  0
VERTEX
  5
72E
  8
0
 62
     1
 10
234.1586832986112
 20
-230.8373437210648
 30
0.0
  0
VERTEX
  5
72F
  8
0
 62
     1
 10
233.8711155425348
 20
-231.0572588505498
 30
0.0
  0
VERTEX
  5
730
  8
0
 62
     1
 10
233.6626000000001
 20
-231.30455
 30
0.0
  0
SEQEND
  5
858
  8
0
 62
     1
  0
POLYLINE
  5
4EB
  8
0
 62
     1
 66
     1
 10
0.0
 20
0.0
 30
0.0
  0
VERTEX
  5
731
  8
0
 62
     1
 10
233.6626000000001
 20
-231.30455
 30
0.0
  0
VERTEX
  5
732
  8
0
 62
     1
 10
233.7600025629341
 20
-231.6268657617188
 30
0.0
  0
VERTEX
  5
733
  8
0
 62
     1
 10
233.9411311284723
 20
-231.9767940104167
 30
0.0
  0
VERTEX
  5
734
  8
0
 62
     1
 10
234.2024432617188
 20
-232.3528886914063
 30
0.0
  0
VERTEX
  5
735
  8
0
 62
     1
 10
234.5403965277779
 20
-232.75370375
 30
0.0
  0
VERTEX
  5
736
  8
0
 62
     1
 10
234.9514484917536
 20
-233.1777931315104
 30
0.0
  0
VERTEX
  5
737
  8
0
 62
     1
 10
235.4320567187501
 20
-233.62371078125
 30
0.0
  0
VERTEX
  5
738
  8
0
 62
     1
 10
235.9786787738716
 20
-234.0900106445312
 30
0.0
  0
VERTEX
  5
739
  8
0
 62
     1
 10
236.5877722222223
 20
-234.5752466666667
 30
0.0
  0
VERTEX
  5
73A
  8
0
 62
     1
 10
237.2557946289063
 20
-235.0779727929688
 30
0.0
  0
VERTEX
  5
73B
  8
0
 62
     1
 10
237.9792035590279
 20
-235.59674296875
 30
0.0
  0
VERTEX
  5
73C
  8
0
 62
     1
 10
238.7544565776911
 20
-236.1301111393229
 30
0.0
  0
VERTEX
  5
73D
  8
0
 62
     1
 10
239.5780112500001
 20
-236.67663125
 30
0.0
  0
VERTEX
  5
73E
  8
0
 62
     1
 10
240.4463251410591
 20
-237.2348572460938
 30
0.0
  0
VERTEX
  5
73F
  8
0
 62
     1
 10
241.3558558159723
 20
-237.8033430729167
 30
0.0
  0
VERTEX
  5
740
  8
0
 62
     1
 10
242.3030608398438
 20
-238.3806426757812
 30
0.0
  0
VERTEX
  5
741
  8
0
 62
     1
 10
243.2843977777778
 20
-238.96531
 30
0.0
  0
VERTEX
  5
742
  8
0
 62
     1
 10
244.2963241948785
 20
-239.5558989908855
 30
0.0
  0
VERTEX
  5
743
  8
0
 62
     1
 10
245.33529765625
 20
-240.15096359375
 30
0.0
  0
VERTEX
  5
744
  8
0
 62
     1
 10
246.3977757269966
 20
-240.7490577539062
 30
0.0
  0
VERTEX
  5
745
  8
0
 62
     1
 10
247.4802159722223
 20
-241.3487354166667
 30
0.0
  0
VERTEX
  5
746
  8
0
 62
     1
 10
248.5790759570313
 20
-241.9485505273438
 30
0.0
  0
VERTEX
  5
747
  8
0
 62
     1
 10
249.6908132465279
 20
-242.54705703125
 30
0.0
  0
VERTEX
  5
748
  8
0
 62
     1
 10
250.811885405816
 20
-243.1428088736979
 30
0.0
  0
VERTEX
  5
749
  8
0
 62
     1
 10
251.9387500000001
 20
-243.73436
 30
0.0
  0
SEQEND
  5
859
  8
0
 62
     1
  0
ARC
  5
4EC
  8
0
 62
     1
 10
306.2652605735111
 20
-337.4748963259415
 30
0.0
 40
58.73562443069557
 50
142.9062758223797
 51
168.5499221965948
  0
POLYLINE
  5
4ED
  8
0
 62
     1
 66
     1
 10
0.0
 20
0.0
 30
0.0
  0
VERTEX
  5
74A
  8
0
 62
     1
 10
239.54901
 20
-337.88714
 30
0.0
  0
VERTEX
  5
74B
  8
0
 62
     1
 10
238.3711520384838
 20
-338.9208110322627
 30
0.0
  0
VERTEX
  5
74C
  8
0
 62
     1
 10
237.1494000578704
 20
-340.0223988831018
 30
0.0
  0
VERTEX
  5
74D
  8
0
 62
     1
 10
235.8904919140625
 20
-341.1902044335937
 30
0.0
  0
VERTEX
  5
74E
  8
0
 62
     1
 10
234.601165462963
 20
-342.4225285648149
 30
0.0
  0
VERTEX
  5
74F
  8
0
 62
     1
 10
233.2881585604746
 20
-343.7176721578415
 30
0.0
  0
VERTEX
  5
750
  8
0
 62
     1
 10
231.9582090625
 20
-345.07393609375
 30
0.0
  0
VERTEX
  5
751
  8
0
 62
     1
 10
230.6180548249422
 20
-346.4896212536169
 30
0.0
  0
VERTEX
  5
752
  8
0
 62
     1
 10
229.2744337037037
 20
-347.9630285185185
 30
0.0
  0
VERTEX
  5
753
  8
0
 62
     1
 10
227.9340835546875
 20
-349.4924587695313
 30
0.0
  0
VERTEX
  5
754
  8
0
 62
     1
 10
226.6037422337963
 20
-351.0762128877315
 30
0.0
  0
VERTEX
  5
755
  8
0
 62
     1
 10
225.2901475969329
 20
-352.7125917541956
 30
0.0
  0
VERTEX
  5
756
  8
0
 62
     1
 10
224.0000375
 20
-354.39989625
 30
0.0
  0
VERTEX
  5
757
  8
0
 62
     1
 10
222.7401497989005
 20
-356.1364272562211
 30
0.0
  0
VERTEX
  5
758
  8
0
 62
     1
 10
221.5172223495371
 20
-357.9204856539352
 30
0.0
  0
VERTEX
  5
759
  8
0
 62
     1
 10
220.3379930078125
 20
-359.7503723242187
 30
0.0
  0
VERTEX
  5
75A
  8
0
 62
     1
 10
219.2091996296296
 20
-361.6243881481481
 30
0.0
  0
VERTEX
  5
75B
  8
0
 62
     1
 10
218.1375800708912
 20
-363.5408340067997
 30
0.0
  0
VERTEX
  5
75C
  8
0
 62
     1
 10
217.1298721875
 20
-365.4980107812499
 30
0.0
  0
VERTEX
  5
75D
  8
0
 62
     1
 10
216.1928138353588
 20
-367.4942193525752
 30
0.0
  0
VERTEX
  5
75E
  8
0
 62
     1
 10
215.3331428703704
 20
-369.5277606018518
 30
0.0
  0
VERTEX
  5
75F
  8
0
 62
     1
 10
214.5575971484375
 20
-371.5969354101562
 30
0.0
  0
VERTEX
  5
760
  8
0
 62
     1
 10
213.872914525463
 20
-373.7000446585648
 30
0.0
  0
VERTEX
  5
761
  8
0
 62
     1
 10
213.2858328573495
 20
-375.8353892281539
 30
0.0
  0
VERTEX
  5
762
  8
0
 62
     1
 10
212.80309
 20
-378.00127
 30
0.0
  0
SEQEND
  5
85A
  8
0
 62
     1
  0
ARC
  5
4EE
  8
0
 62
     1
 10
338.4127029987332
 20
-402.3704090392457
 30
0.0
 40
127.9516698414119
 50
169.0206140085491
 51
184.4779990343573
  0
POLYLINE
  5
4EF
  8
0
 62
     1
 66
     1
 10
0.0
 20
0.0
 30
0.0
  0
VERTEX
  5
763
  8
0
 62
     1
 10
391.91904
 20
-415.93184
 30
0.0
  0
VERTEX
  5
764
  8
0
 62
     1
 10
392.0905149696181
 20
-413.6225433239294
 30
0.0
  0
VERTEX
  5
765
  8
0
 62
     1
 10
392.1417591319444
 20
-411.1856467997684
 30
0.0
  0
VERTEX
  5
766
  8
0
 62
     1
 10
392.0800013671875
 20
-408.6369056835937
 30
0.0
  0
VERTEX
  5
767
  8
0
 62
     1
 10
391.9124705555556
 20
-405.9920752314815
 30
0.0
  0
VERTEX
  5
768
  8
0
 62
     1
 10
391.646395577257
 20
-403.2669106995081
 30
0.0
  0
VERTEX
  5
769
  8
0
 62
     1
 10
391.2890053125
 20
-400.47716734375
 30
0.0
  0
VERTEX
  5
76A
  8
0
 62
     1
 10
390.847528641493
 20
-397.6386004202835
 30
0.0
  0
VERTEX
  5
76B
  8
0
 62
     1
 10
390.3291944444445
 20
-394.7669651851852
 30
0.0
  0
VERTEX
  5
76C
  8
0
 62
     1
 10
389.7412316015625
 20
-391.8780168945312
 30
0.0
  0
VERTEX
  5
76D
  8
0
 62
     1
 10
389.0908689930556
 20
-388.9875108043981
 30
0.0
  0
VERTEX
  5
76E
  8
0
 62
     1
 10
388.3853354991319
 20
-386.1112021708623
 30
0.0
  0
VERTEX
  5
76F
  8
0
 62
     1
 10
387.63186
 20
-383.2648462499999
 30
0.0
  0
VERTEX
  5
770
  8
0
 62
     1
 10
386.8376713758681
 20
-380.4641982978877
 30
0.0
  0
VERTEX
  5
771
  8
0
 62
     1
 10
386.0099985069445
 20
-377.7250135706018
 30
0.0
  0
VERTEX
  5
772
  8
0
 62
     1
 10
385.1560702734375
 20
-375.0630473242188
 30
0.0
  0
VERTEX
  5
773
  8
0
 62
     1
 10
384.2831155555556
 20
-372.4940548148148
 30
0.0
  0
VERTEX
  5
774
  8
0
 62
     1
 10
383.398363233507
 20
-370.0337912984664
 30
0.0
  0
VERTEX
  5
775
  8
0
 62
     1
 10
382.5090421875
 20
-367.69801203125
 30
0.0
  0
VERTEX
  5
776
  8
0
 62
     1
 10
381.622381297743
 20
-365.5024722692418
 30
0.0
  0
VERTEX
  5
777
  8
0
 62
     1
 10
380.7456094444444
 20
-363.4629272685185
 30
0.0
  0
VERTEX
  5
778
  8
0
 62
     1
 10
379.8859555078125
 20
-361.5951322851562
 30
0.0
  0
VERTEX
  5
779
  8
0
 62
     1
 10
379.0506483680556
 20
-359.9148425752315
 30
0.0
  0
VERTEX
  5
77A
  8
0
 62
     1
 10
378.2469169053819
 20
-358.4378133948206
 30
0.0
  0
VERTEX
  5
77B
  8
0
 62
     1
 10
377.48199
 20
-357.1797999999999
 30
0.0
  0
SEQEND
  5
85B
  8
0
 62
     1
  0
POLYLINE
  5
4F0
  8
0
 62
     1
 66
     1
 10
0.0
 20
0.0
 30
0.0
  0
VERTEX
  5
77C
  8
0
 62
     1
 10
377.48199
 20
-357.1797999999999
 30
0.0
  0
VERTEX
  5
77D
  8
0
 62
     1
 10
376.741017479022
 20
-356.0537577835648
 30
0.0
  0
VERTEX
  5
77E
  8
0
 62
     1
 10
376.0546781655092
 20
-355.0380091435185
 30
0.0
  0
VERTEX
  5
77F
  8
0
 62
     1
 10
375.4209181835937
 20
-354.1270085937499
 30
0.0
  0
VERTEX
  5
780
  8
0
 62
     1
 10
374.8376836574075
 20
-353.3152106481481
 30
0.0
  0
VERTEX
  5
781
  8
0
 62
     1
 10
374.3029207110822
 20
-352.5970698206019
 30
0.0
  0
VERTEX
  5
782
  8
0
 62
     1
 10
373.81457546875
 20
-351.967040625
 30
0.0
  0
VERTEX
  5
783
  8
0
 62
     1
 10
373.3705940545428
 20
-351.4195775752314
 30
0.0
  0
VERTEX
  5
784
  8
0
 62
     1
 10
372.9689225925926
 20
-350.9491351851852
 30
0.0
  0
VERTEX
  5
785
  8
0
 62
     1
 10
372.6075072070312
 20
-350.5501679687499
 30
0.0
  0
VERTEX
  5
786
  8
0
 62
     1
 10
372.2842940219907
 20
-350.2171304398148
 30
0.0
  0
VERTEX
  5
787
  8
0
 62
     1
 10
371.997229161603
 20
-349.9444771122685
 30
0.0
  0
VERTEX
  5
788
  8
0
 62
     1
 10
371.74425875
 20
-349.7266624999999
 30
0.0
  0
VERTEX
  5
789
  8
0
 62
     1
 10
371.5233289113136
 20
-349.5581411168981
 30
0.0
  0
VERTEX
  5
78A
  8
0
 62
     1
 10
371.3323857696759
 20
-349.4333674768519
 30
0.0
  0
VERTEX
  5
78B
  8
0
 62
     1
 10
371.1693754492188
 20
-349.34679609375
 30
0.0
  0
VERTEX
  5
78C
  8
0
 62
     1
 10
371.0322440740741
 20
-349.2928814814815
 30
0.0
  0
VERTEX
  5
78D
  8
0
 62
     1
 10
370.9189377683739
 20
-349.2660781539352
 30
0.0
  0
VERTEX
  5
78E
  8
0
 62
     1
 10
370.82740265625
 20
-349.260840625
 30
0.0
  0
VERTEX
  5
78F
  8
0
 62
     1
 10
370.7555848618344
 20
-349.2716234085648
 30
0.0
  0
VERTEX
  5
790
  8
0
 62
     1
 10
370.7014305092592
 20
-349.2928810185185
 30
0.0
  0
VERTEX
  5
791
  8
0
 62
     1
 10
370.6628857226563
 20
-349.3190679687499
 30
0.0
  0
VERTEX
  5
792
  8
0
 62
     1
 10
370.6378966261574
 20
-349.3446387731482
 30
0.0
  0
VERTEX
  5
793
  8
0
 62
     1
 10
370.6244093438946
 20
-349.3640479456018
 30
0.0
  0
VERTEX
  5
794
  8
0
 62
     1
 10
370.62037
 20
-349.37175
 30
0.0
  0
SEQEND
  5
85C
  8
0
 62
     1
  0
ARC
  5
4F1
  8
0
 62
     1
 10
307.4411694941427
 20
-335.926782525713
 30
0.0
 40
64.59395116374276
 50
347.986279413481
 51
359.7389085812094
  0
ARC
  5
4F2
  8
0
 62
     1
 10
320.627818381857
 20
-345.5648911899972
 30
0.0
 40
53.57278529076729
 50
22.68875488162628
 51
40.4542211740105
  0
POLYLINE
  5
4F3
  8
0
 62
     1
 66
     1
 10
0.0
 20
0.0
 30
0.0
  0
VERTEX
  5
795
  8
0
 62
     1
 10
263.43712
 20
-285.7243
 30
0.0
  0
VERTEX
  5
796
  8
0
 62
     1
 10
262.7141166601562
 20
-286.8946719545718
 30
0.0
  0
VERTEX
  5
797
  8
0
 62
     1
 10
262.0796359895833
 20
-288.0383435532408
 30
0.0
  0
VERTEX
  5
798
  8
0
 62
     1
 10
261.5285432617188
 20
-289.1532608984375
 30
0.0
  0
VERTEX
  5
799
  8
0
 62
     1
 10
261.05570375
 20
-290.2373700925926
 30
0.0
  0
VERTEX
  5
79A
  8
0
 62
     1
 10
260.6559827278646
 20
-291.2886172381366
 30
0.0
  0
VERTEX
  5
79B
  8
0
 62
     1
 10
260.32424546875
 20
-292.3049484375
 30
0.0
  0
VERTEX
  5
79C
  8
0
 62
     1
 10
260.0553572460938
 20
-293.2843097931134
 30
0.0
  0
VERTEX
  5
79D
  8
0
 62
     1
 10
259.8441833333333
 20
-294.2246474074075
 30
0.0
  0
VERTEX
  5
79E
  8
0
 62
     1
 10
259.6855890039062
 20
-295.1239073828125
 30
0.0
  0
VERTEX
  5
79F
  8
0
 62
     1
 10
259.57443953125
 20
-295.9800358217593
 30
0.0
  0
VERTEX
  5
7A0
  8
0
 62
     1
 10
259.5056001888021
 20
-296.7909788266783
 30
0.0
  0
VERTEX
  5
7A1
  8
0
 62
     1
 10
259.47393625
 20
-297.5546825000001
 30
0.0
  0
VERTEX
  5
7A2
  8
0
 62
     1
 10
259.4743129882813
 20
-298.2690929441551
 30
0.0
  0
VERTEX
  5
7A3
  8
0
 62
     1
 10
259.5015956770834
 20
-298.9321562615741
 30
0.0
  0
VERTEX
  5
7A4
  8
0
 62
     1
 10
259.5506495898438
 20
-299.5418185546876
 30
0.0
  0
VERTEX
  5
7A5
  8
0
 62
     1
 10
259.61634
 20
-300.096025925926
 30
0.0
  0
VERTEX
  5
7A6
  8
0
 62
     1
 10
259.6935321809896
 20
-300.59272447772
 30
0.0
  0
VERTEX
  5
7A7
  8
0
 62
     1
 10
259.77709140625
 20
-301.0298603125
 30
0.0
  0
VERTEX
  5
7A8
  8
0
 62
     1
 10
259.8618829492187
 20
-301.4053795326968
 30
0.0
  0
VERTEX
  5
7A9
  8
0
 62
     1
 10
259.9427720833334
 20
-301.7172282407408
 30
0.0
  0
VERTEX
  5
7AA
  8
0
 62
     1
 10
260.0146240820313
 20
-301.9633525390625
 30
0.0
  0
VERTEX
  5
7AB
  8
0
 62
     1
 10
260.07230421875
 20
-302.1416985300926
 30
0.0
  0
VERTEX
  5
7AC
  8
0
 62
     1
 10
260.1106777669271
 20
-302.2502123162616
 30
0.0
  0
VERTEX
  5
7AD
  8
0
 62
     1
 10
260.12461
 20
-302.28684
 30
0.0
  0
SEQEND
  5
85D
  8
0
 62
     1
  0
POLYLINE
  5
4F4
  8
0
 62
     1
 66
     1
 10
0.0
 20
0.0
 30
0.0
  0
VERTEX
  5
7AE
  8
0
 62
     1
 10
361.86589
 20
-311.51453
 30
0.0
  0
VERTEX
  5
7AF
  8
0
 62
     1
 10
361.8787609968172
 20
-311.4373381213832
 30
0.0
  0
VERTEX
  5
7B0
  8
0
 62
     1
 10
361.9146354745371
 20
-311.2124718460649
 30
0.0
  0
VERTEX
  5
7B1
  8
0
 62
     1
 10
361.9694056640625
 20
-310.8499952148438
 30
0.0
  0
VERTEX
  5
7B2
  8
0
 62
     1
 10
362.0389637962963
 20
-310.3599722685186
 30
0.0
  0
VERTEX
  5
7B3
  8
0
 62
     1
 10
362.1192021021413
 20
-309.7524670478878
 30
0.0
  0
VERTEX
  5
7B4
  8
0
 62
     1
 10
362.2060128125
 20
-309.0375435937501
 30
0.0
  0
VERTEX
  5
7B5
  8
0
 62
     1
 10
362.2952881582755
 20
-308.225265946904
 30
0.0
  0
VERTEX
  5
7B6
  8
0
 62
     1
 10
362.3829203703704
 20
-307.3256981481482
 30
0.0
  0
VERTEX
  5
7B7
  8
0
 62
     1
 10
362.4648016796875
 20
-306.3489042382812
 30
0.0
  0
VERTEX
  5
7B8
  8
0
 62
     1
 10
362.5368243171297
 20
-305.3049482581019
 30
0.0
  0
VERTEX
  5
7B9
  8
0
 62
     1
 10
362.5948805135996
 20
-304.2038942484086
 30
0.0
  0
VERTEX
  5
7BA
  8
0
 62
     1
 10
362.6348625000001
 20
-303.05580625
 30
0.0
  0
VERTEX
  5
7BB
  8
0
 62
     1
 10
362.6526625072339
 20
-301.8707483036748
 30
0.0
  0
VERTEX
  5
7BC
  8
0
 62
     1
 10
362.6441727662038
 20
-300.6587844502315
 30
0.0
  0
VERTEX
  5
7BD
  8
0
 62
     1
 10
362.6052855078126
 20
-299.4299787304688
 30
0.0
  0
VERTEX
  5
7BE
  8
0
 62
     1
 10
362.531892962963
 20
-298.1943951851852
 30
0.0
  0
VERTEX
  5
7BF
  8
0
 62
     1
 10
362.4198873625579
 20
-296.9620978551794
 30
0.0
  0
VERTEX
  5
7C0
  8
0
 62
     1
 10
362.2651609375
 20
-295.74315078125
 30
0.0
  0
VERTEX
  5
7C1
  8
0
 62
     1
 10
362.0636059186921
 20
-294.5476180041957
 30
0.0
  0
VERTEX
  5
7C2
  8
0
 62
     1
 10
361.8111145370371
 20
-293.3855635648148
 30
0.0
  0
VERTEX
  5
7C3
  8
0
 62
     1
 10
361.5035790234376
 20
-292.2670515039063
 30
0.0
  0
VERTEX
  5
7C4
  8
0
 62
     1
 10
361.1368916087964
 20
-291.2021458622686
 30
0.0
  0
VERTEX
  5
7C5
  8
0
 62
     1
 10
360.7069445240163
 20
-290.2009106807002
 30
0.0
  0
VERTEX
  5
7C6
  8
0
 62
     1
 10
360.2096300000001
 20
-289.27341
 30
0.0
  0
SEQEND
  5
85E
  8
0
 62
     1
  0
POLYLINE
  5
4F5
  8
0
 62
     1
 66
     1
 10
0.0
 20
0.0
 30
0.0
  0
VERTEX
  5
7C7
  8
0
 62
     1
 10
251.61951
 20
-243.43294
 30
0.0
  0
VERTEX
  5
7C8
  8
0
 62
     1
 10
251.3768485322627
 20
-245.4735095486111
 30
0.0
  0
VERTEX
  5
7C9
  8
0
 62
     1
 10
251.1998082581019
 20
-247.5062299305556
 30
0.0
  0
VERTEX
  5
7CA
  8
0
 62
     1
 10
251.0879566210938
 20
-249.52890625
 30
0.0
  0
VERTEX
  5
7CB
  8
0
 62
     1
 10
251.0408610648148
 20
-251.5393436111112
 30
0.0
  0
VERTEX
  5
7CC
  8
0
 62
     1
 10
251.0580890328414
 20
-253.5353471180556
 30
0.0
  0
VERTEX
  5
7CD
  8
0
 62
     1
 10
251.13920796875
 20
-255.514721875
 30
0.0
  0
VERTEX
  5
7CE
  8
0
 62
     1
 10
251.2837853161169
 20
-257.4752729861111
 30
0.0
  0
VERTEX
  5
7CF
  8
0
 62
     1
 10
251.4913885185185
 20
-259.4148055555556
 30
0.0
  0
VERTEX
  5
7D0
  8
0
 62
     1
 10
251.7615850195312
 20
-261.3311246875
 30
0.0
  0
VERTEX
  5
7D1
  8
0
 62
     1
 10
252.0939422627315
 20
-263.2220354861111
 30
0.0
  0
VERTEX
  5
7D2
  8
0
 62
     1
 10
252.4880276916956
 20
-265.0853430555556
 30
0.0
  0
VERTEX
  5
7D3
  8
0
 62
     1
 10
252.94340875
 20
-266.9188525
 30
0.0
  0
VERTEX
  5
7D4
  8
0
 62
     1
 10
253.459652881221
 20
-268.7203689236111
 30
0.0
  0
VERTEX
  5
7D5
  8
0
 62
     1
 10
254.0363275289352
 20
-270.4876974305556
 30
0.0
  0
VERTEX
  5
7D6
  8
0
 62
     1
 10
254.6730001367188
 20
-272.218643125
 30
0.0
  0
VERTEX
  5
7D7
  8
0
 62
     1
 10
255.3692381481481
 20
-273.9110111111111
 30
0.0
  0
VERTEX
  5
7D8
  8
0
 62
     1
 10
256.1246090067998
 20
-275.5626064930556
 30
0.0
  0
VERTEX
  5
7D9
  8
0
 62
     1
 10
256.93868015625
 20
-277.171234375
 30
0.0
  0
VERTEX
  5
7DA
  8
0
 62
     1
 10
257.8110190400752
 20
-278.734699861111
 30
0.0
  0
VERTEX
  5
7DB
  8
0
 62
     1
 10
258.7411931018518
 20
-280.2508080555555
 30
0.0
  0
VERTEX
  5
7DC
  8
0
 62
     1
 10
259.7287697851563
 20
-281.7173640625
 30
0.0
  0
VERTEX
  5
7DD
  8
0
 62
     1
 10
260.7733165335648
 20
-283.1321729861111
 30
0.0
  0
VERTEX
  5
7DE
  8
0
 62
     1
 10
261.8744007906539
 20
-284.4930399305555
 30
0.0
  0
VERTEX
  5
7DF
  8
0
 62
     1
 10
263.03159
 20
-285.79777
 30
0.0
  0
SEQEND
  5
85F
  8
0
 62
     1
  0
POLYLINE
  5
4F6
  8
0
 62
     1
 66
     1
 10
0.0
 20
0.0
 30
0.0
  0
VERTEX
  5
7E0
  8
0
 62
     1
 10
360.22652
 20
-288.99554
 30
0.0
  0
VERTEX
  5
7E1
  8
0
 62
     1
 10
362.0771337188947
 20
-287.1319061414931
 30
0.0
  0
VERTEX
  5
7E2
  8
0
 62
     1
 10
363.7949832928241
 20
-285.2514189236111
 30
0.0
  0
VERTEX
  5
7E3
  8
0
 62
     1
 10
365.3826500976562
 20
-283.3539461328125
 30
0.0
  0
VERTEX
  5
7E4
  8
0
 62
     1
 10
366.8427155092592
 20
-281.4393555555556
 30
0.0
  0
VERTEX
  5
7E5
  8
0
 62
     1
 10
368.1777609035012
 20
-279.5075149782986
 30
0.0
  0
VERTEX
  5
7E6
  8
0
 62
     1
 10
369.39036765625
 20
-277.5582921875
 30
0.0
  0
VERTEX
  5
7E7
  8
0
 62
     1
 10
370.4831171433739
 20
-275.591554969618
 30
0.0
  0
VERTEX
  5
7E8
  8
0
 62
     1
 10
371.4585907407408
 20
-273.6071711111111
 30
0.0
  0
VERTEX
  5
7E9
  8
0
 62
     1
 10
372.3193698242187
 20
-271.6050083984375
 30
0.0
  0
VERTEX
  5
7EA
  8
0
 62
     1
 10
373.0680357696759
 20
-269.5849346180556
 30
0.0
  0
VERTEX
  5
7EB
  8
0
 62
     1
 10
373.7071699529803
 20
-267.5468175564236
 30
0.0
  0
VERTEX
  5
7EC
  8
0
 62
     1
 10
374.23935375
 20
-265.490525
 30
0.0
  0
VERTEX
  5
7ED
  8
0
 62
     1
 10
374.6671685366031
 20
-263.415924735243
 30
0.0
  0
VERTEX
  5
7EE
  8
0
 62
     1
 10
374.9931956886575
 20
-261.3228845486112
 30
0.0
  0
VERTEX
  5
7EF
  8
0
 62
     1
 10
375.2200165820312
 20
-259.2112722265625
 30
0.0
  0
VERTEX
  5
7F0
  8
0
 62
     1
 10
375.3502125925926
 20
-257.0809555555556
 30
0.0
  0
VERTEX
  5
7F1
  8
0
 62
     1
 10
375.3863650962095
 20
-254.9318023220486
 30
0.0
  0
VERTEX
  5
7F2
  8
0
 62
     1
 10
375.33105546875
 20
-252.7636803125
 30
0.0
  0
VERTEX
  5
7F3
  8
0
 62
     1
 10
375.1868650860822
 20
-250.5764573133681
 30
0.0
  0
VERTEX
  5
7F4
  8
0
 62
     1
 10
374.956375324074
 20
-248.3700011111111
 30
0.0
  0
VERTEX
  5
7F5
  8
0
 62
     1
 10
374.6421675585938
 20
-246.1441794921875
 30
0.0
  0
VERTEX
  5
7F6
  8
0
 62
     1
 10
374.2468231655093
 20
-243.8988602430556
 30
0.0
  0
VERTEX
  5
7F7
  8
0
 62
     1
 10
373.7729235206887
 20
-241.6339111501736
 30
0.0
  0
VERTEX
  5
7F8
  8
0
 62
     1
 10
373.22305
 20
-239.3492
 30
0.0
  0
SEQEND
  5
860
  8
0
 62
     1
  0
POLYLINE
  5
4F7
  8
0
 62
     1
 66
     1
 10
0.0
 20
0.0
 30
0.0
  0
VERTEX
  5
7F9
  8
0
 62
     1
 10
373.22305
 20
-239.3492
 30
0.0
  0
VERTEX
  5
7FA
  8
0
 62
     1
 10
373.0315283051215
 20
-238.66103328125
 30
0.0
  0
VERTEX
  5
7FB
  8
0
 62
     1
 10
372.8101476909722
 20
-237.9737058333333
 30
0.0
  0
VERTEX
  5
7FC
  8
0
 62
     1
 10
372.5603848632812
 20
-237.28780671875
 30
0.0
  0
VERTEX
  5
7FD
  8
0
 62
     1
 10
372.2837165277778
 20
-236.603925
 30
0.0
  0
VERTEX
  5
7FE
  8
0
 62
     1
 10
371.981619390191
 20
-235.9226497395833
 30
0.0
  0
VERTEX
  5
7FF
  8
0
 62
     1
 10
371.65557015625
 20
-235.24457
 30
0.0
  0
VERTEX
  5
800
  8
0
 62
     1
 10
371.307045531684
 20
-234.57027484375
 30
0.0
  0
VERTEX
  5
801
  8
0
 62
     1
 10
370.9375222222222
 20
-233.9003533333333
 30
0.0
  0
VERTEX
  5
802
  8
0
 62
     1
 10
370.5484769335937
 20
-233.23539453125
 30
0.0
  0
VERTEX
  5
803
  8
0
 62
     1
 10
370.1413863715277
 20
-232.5759875
 30
0.0
  0
VERTEX
  5
804
  8
0
 62
     1
 10
369.7177272417535
 20
-231.9227213020833
 30
0.0
  0
VERTEX
  5
805
  8
0
 62
     1
 10
369.27897625
 20
-231.276185
 30
0.0
  0
VERTEX
  5
806
  8
0
 62
     1
 10
368.8266101019966
 20
-230.63696765625
 30
0.0
  0
VERTEX
  5
807
  8
0
 62
     1
 10
368.3621055034722
 20
-230.0056583333333
 30
0.0
  0
VERTEX
  5
808
  8
0
 62
     1
 10
367.8869391601563
 20
-229.38284609375
 30
0.0
  0
VERTEX
  5
809
  8
0
 62
     1
 10
367.4025877777778
 20
-228.76912
 30
0.0
  0
VERTEX
  5
80A
  8
0
 62
     1
 10
366.910528062066
 20
-228.1650691145834
 30
0.0
  0
VERTEX
  5
80B
  8
0
 62
     1
 10
366.41223671875
 20
-227.5712825
 30
0.0
  0
VERTEX
  5
80C
  8
0
 62
     1
 10
365.909190453559
 20
-226.98834921875
 30
0.0
  0
VERTEX
  5
80D
  8
0
 62
     1
 10
365.4028659722222
 20
-226.4168583333334
 30
0.0
  0
VERTEX
  5
80E
  8
0
 62
     1
 10
364.8947399804687
 20
-225.85739890625
 30
0.0
  0
VERTEX
  5
80F
  8
0
 62
     1
 10
364.3862891840278
 20
-225.31056
 30
0.0
  0
VERTEX
  5
810
  8
0
 62
     1
 10
363.8789902886285
 20
-224.7769306770833
 30
0.0
  0
VERTEX
  5
811
  8
0
 62
     1
 10
363.37432
 20
-224.2571
 30
0.0
  0
SEQEND
  5
861
  8
0
 62
     1
  0
POLYLINE
  5
4F8
  8
0
 62
     1
 66
     1
 10
0.0
 20
0.0
 30
0.0
  0
VERTEX
  5
812
  8
0
 62
     1
 10
308.69702
 20
-197.49095
 30
0.0
  0
VERTEX
  5
813
  8
0
 62
     1
 10
306.1800745160591
 20
-197.2204996346933
 30
0.0
  0
VERTEX
  5
814
  8
0
 62
     1
 10
303.6710065451389
 20
-197.0541097858797
 30
0.0
  0
VERTEX
  5
815
  8
0
 62
     1
 10
301.1743550585937
 20
-196.9916585742187
 30
0.0
  0
VERTEX
  5
816
  8
0
 62
     1
 10
298.6946590277778
 20
-197.0330241203704
 30
0.0
  0
VERTEX
  5
817
  8
0
 62
     1
 10
296.2364574240452
 20
-197.1780845449942
 30
0.0
  0
VERTEX
  5
818
  8
0
 62
     1
 10
293.80428921875
 20
-197.42671796875
 30
0.0
  0
VERTEX
  5
819
  8
0
 62
     1
 10
291.4026933832465
 20
-197.7788025122974
 30
0.0
  0
VERTEX
  5
81A
  8
0
 62
     1
 10
289.0362088888889
 20
-198.2342162962963
 30
0.0
  0
VERTEX
  5
81B
  8
0
 62
     1
 10
286.7093747070313
 20
-198.7928374414063
 30
0.0
  0
VERTEX
  5
81C
  8
0
 62
     1
 10
284.4267298090278
 20
-199.454544068287
 30
0.0
  0
VERTEX
  5
81D
  8
0
 62
     1
 10
282.1928131662327
 20
-200.2192142975984
 30
0.0
  0
VERTEX
  5
81E
  8
0
 62
     1
 10
280.01216375
 20
-201.08672625
 30
0.0
  0
VERTEX
  5
81F
  8
0
 62
     1
 10
277.8893205316841
 20
-202.0569580461516
 30
0.0
  0
VERTEX
  5
820
  8
0
 62
     1
 10
275.8288224826389
 20
-203.129787806713
 30
0.0
  0
VERTEX
  5
821
  8
0
 62
     1
 10
273.8352085742188
 20
-204.3050936523438
 30
0.0
  0
VERTEX
  5
822
  8
0
 62
     1
 10
271.9130177777778
 20
-205.5827537037037
 30
0.0
  0
VERTEX
  5
823
  8
0
 62
     1
 10
270.0667890646702
 20
-206.9626460814525
 30
0.0
  0
VERTEX
  5
824
  8
0
 62
     1
 10
268.30106140625
 20
-208.44464890625
 30
0.0
  0
VERTEX
  5
825
  8
0
 62
     1
 10
266.6203737738715
 20
-210.0286402987558
 30
0.0
  0
VERTEX
  5
826
  8
0
 62
     1
 10
265.0292651388889
 20
-211.7144983796296
 30
0.0
  0
VERTEX
  5
827
  8
0
 62
     1
 10
263.5322744726562
 20
-213.5021012695312
 30
0.0
  0
VERTEX
  5
828
  8
0
 62
     1
 10
262.1339407465279
 20
-215.3913270891204
 30
0.0
  0
VERTEX
  5
829
  8
0
 62
     1
 10
260.8388029318577
 20
-217.3820539590567
 30
0.0
  0
VERTEX
  5
82A
  8
0
 62
     1
 10
259.6514
 20
-219.47416
 30
0.0
  0
SEQEND
  5
862
  8
0
 62
     1
  0
ARC
  5
4F9
  8
0
 62
     1
 10
299.6030522485717
 20
-244.6726971638693
 30
0.0
 40
47.23452966411026
 50
147.7593130118817
 51
163.0015637094363
  0
LINE
  5
4FA
  8
0
 62
     1
 10
158.10233
 20
-201.48365
 30
0.0
 11
157.5719
 21
-278.7790899999999
 31
0.0
  0
LINE
  5
4FB
  8
0
 62
     1
 10
156.9084
 20
-305.2117499999999
 30
0.0
 11
155.51127
 21
-429.42067
 31
0.0
  0
LINE
  5
4FC
  8
0
 62
     1
 10
164.99555
 20
-426.12251
 30
0.0
 11
167.02203
 21
-302.4054599999999
 31
0.0
  0
LINE
  5
4FD
  8
0
 62
     1
 10
167.11933
 20
-274.2332499999999
 30
0.0
 11
168.14124
 21
-201.48365
 31
0.0
  0
LINE
  5
4FE
  8
0
 62
     1
 10
157.96904
 20
-200.8262899999999
 30
0.0
 11
50.35671899999998
 21
-200.1451999999999
 31
0.0
  0
LINE
  5
4FF
  8
0
 62
     1
 10
50.35671899999998
 20
-200.1451999999999
 30
0.0
 11
48.34902899999999
 21
-66.96893499999993
 31
0.0
  0
LINE
  5
500
  8
0
 62
     1
 10
48.34902899999999
 20
-66.96893499999993
 30
0.0
 11
263.84027
 21
-71.65352499999993
 31
0.0
  0
LINE
  5
501
  8
0
 62
     1
 10
263.84027
 20
-71.65352499999993
 30
0.0
 11
261.83259
 21
-201.48365
 31
0.0
  0
LINE
  5
502
  8
0
 62
     1
 10
261.83259
 20
-201.48365
 30
0.0
 11
168.00783
 21
-200.88982
 31
0.0
  0
LINE
  5
503
  8
0
 62
     1
 10
61.428571
 20
-22.665909
 30
0.0
 11
508.57145
 21
-22.665909
 31
0.0
  0
ARC
  5
504
  8
0
 62
     1
 10
508.6747037440799
 20
-69.70550526906177
 30
0.0
 40
47.03970959191829
 50
359.8742264444371
 51
90.12576626337125
  0
LINE
  5
505
  8
0
 62
     1
 10
555.7143
 20
-69.808765
 30
0.0
 11
555.7143
 21
-664.09446
 31
0.0
  0
ARC
  5
506
  8
0
 62
     1
 10
508.6747054360138
 20
-664.1977254141121
 30
0.0
 40
47.03970791246228
 50
269.8742316713077
 51
0.1257804823442839
  0
LINE
  5
507
  8
0
 62
     1
 10
508.57145
 20
-711.2373200000001
 30
0.0
 11
61.42857099999998
 21
-711.2373200000001
 31
0.0
  0
ARC
  5
508
  8
0
 62
     1
 10
61.32531262308415
 20
-664.1977213703466
 30
0.0
 40
47.03971196267541
 50
179.8742244539251
 51
270.1257718999792
  0
LINE
  5
509
  8
0
 62
     1
 10
14.28571399999998
 20
-664.09446
 30
0.0
 11
14.28571399999998
 21
-69.808765
 31
0.0
  0
ARC
  5
50A
  8
0
 62
     1
 10
61.32531431501981
 20
-69.70550931282942
 30
0.0
 40
47.03971364213153
 50
89.87423016534453
 51
180.1257686192852
  0
LINE
  5
50B
  8
0
 62
     1
 10
61.42857099999998
 20
-22.66590899999999
 30
0.0
 11
61.428571
 21
-22.665909
 31
0.0
  0
POLYLINE
  5
50C
  8
0
 62
     1
 66
     1
 10
0.0
 20
0.0
 30
0.0
 70
     1
  0
VERTEX
  5
82B
  8
0
 62
     1
 10
46.42860000000002
 20
-600.84862
 30
0.0
  0
VERTEX
  5
82C
  8
0
 62
     1
 10
50.98598024327953
 20
-617.0153536846841
 30
0.0
  0
VERTEX
  5
82D
  8
0
 62
     1
 10
64.48298340617711
 20
-632.5608088602746
 30
0.0
  0
VERTEX
  5
82E
  8
0
 62
     1
 10
86.40092722634918
 20
-646.8875824023651
 30
0.0
  0
VERTEX
  5
82F
  8
0
 62
     1
 10
115.897517414511
 20
-659.4451044382803
 30
0.0
  0
VERTEX
  5
830
  8
0
 62
     1
 10
151.83921655161
 20
-669.7507964385194
 30
0.0
  0
VERTEX
  5
831
  8
0
 62
     1
 10
192.8448052961444
 20
-677.4086164390119
 30
0.0
  0
VERTEX
  5
832
  8
0
 62
     1
 10
237.3384618688609
 20
-682.1242787116939
 30
0.0
  0
VERTEX
  5
833
  8
0
 62
     1
 10
283.6103200000001
 20
-683.716563
 30
0.0
  0
VERTEX
  5
834
  8
0
 62
     1
 10
329.8821781311392
 20
-682.1242787116939
 30
0.0
  0
VERTEX
  5
835
  8
0
 62
     1
 10
374.3758347038557
 20
-677.4086164390119
 30
0.0
  0
VERTEX
  5
836
  8
0
 62
     1
 10
415.3814234483901
 20
-669.7507964385194
 30
0.0
  0
VERTEX
  5
837
  8
0
 62
     1
 10
451.323122585489
 20
-659.4451044382803
 30
0.0
  0
VERTEX
  5
838
  8
0
 62
     1
 10
480.819712773651
 20
-646.8875824023651
 30
0.0
  0
VERTEX
  5
839
  8
0
 62
     1
 10
502.737656593823
 20
-632.5608088602746
 30
0.0
  0
VERTEX
  5
83A
  8
0
 62
     1
 10
516.2346597567206
 20
-617.0153536846841
 30
0.0
  0
VERTEX
  5
83B
  8
0
 62
     1
 10
520.79204
 20
-600.8486199999999
 30
0.0
  0
VERTEX
  5
83C
  8
0
 62
     1
 10
516.2346597567205
 20
-584.6818863153158
 30
0.0
  0
VERTEX
  5
83D
  8
0
 62
     1
 10
502.7376565938229
 20
-569.1364311397252
 30
0.0
  0
VERTEX
  5
83E
  8
0
 62
     1
 10
480.8197127736507
 20
-554.8096575976348
 30
0.0
  0
VERTEX
  5
83F
  8
0
 62
     1
 10
451.3231225854888
 20
-542.2521355617196
 30
0.0
  0
VERTEX
  5
840
  8
0
 62
     1
 10
415.3814234483898
 20
-531.9464435614805
 30
0.0
  0
VERTEX
  5
841
  8
0
 62
     1
 10
374.3758347038553
 20
-524.288623560988
 30
0.0
  0
VERTEX
  5
842
  8
0
 62
     1
 10
329.8821781311387
 20
-519.572961288306
 30
0.0
  0
VERTEX
  5
843
  8
0
 62
     1
 10
283.6103199999995
 20
-517.980677
 30
0.0
  0
VERTEX
  5
844
  8
0
 62
     1
 10
237.3384618688602
 20
-519.5729612883061
 30
0.0
  0
VERTEX
  5
845
  8
0
 62
     1
 10
192.8448052961438
 20
-524.2886235609881
 30
0.0
  0
VERTEX
  5
846
  8
0
 62
     1
 10
151.8392165516094
 20
-531.9464435614807
 30
0.0
  0
VERTEX
  5
847
  8
0
 62
     1
 10
115.8975174145105
 20
-542.2521355617199
 30
0.0
  0
VERTEX
  5
848
  8
0
 62
     1
 10
86.4009272263487
 20
-554.8096575976351
 30
0.0
  0
VERTEX
  5
849
  8
0
 62
     1
 10
64.48298340617677
 20
-569.1364311397257
 30
0.0
  0
VERTEX
  5
84A
  8
0
 62
     1
 10
50.98598024327936
 20
-584.6818863153162
 30
0.0
  0
SEQEND
  5
863
  8
0
 62
     1
  0
LINE
  5
50D
  8
0
 62
     1
 10
99.717741
 20
-595.30032
 30
0.0
 11
99.717741
 21
-606.3976
 31
0.0
  0
LINE
  5
50E
  8
0
 62
     1
 10
99.717741
 20
-606.3976
 30
0.0
 11
135.15623
 21
-606.3976
 31
0.0
  0
LINE
  5
50F
  8
0
 62
     1
 10
135.15623
 20
-606.3976
 30
0.0
 11
135.15623
 21
-595.3513399999999
 31
0.0
  0
LINE
  5
510
  8
0
 62
     1
 10
135.15623
 20
-595.3513399999999
 30
0.0
 11
99.717741
 21
-595.30032
 31
0.0
  0
LINE
  5
511
  8
0
 62
     1
 10
266.37747
 20
-595.5361
 30
0.0
 11
266.37747
 21
-606.3976
 31
0.0
  0
LINE
  5
512
  8
0
 62
     1
 10
266.37747
 20
-606.3976
 30
0.0
 11
301.814
 21
-606.3976
 31
0.0
  0
LINE
  5
513
  8
0
 62
     1
 10
301.814
 20
-606.3976
 30
0.0
 11
301.814
 21
-595.5871199999999
 31
0.0
  0
LINE
  5
514
  8
0
 62
     1
 10
301.814
 20
-595.5871199999999
 30
0.0
 11
266.37747
 21
-595.5361
 31
0.0
  0
LINE
  5
515
  8
0
 62
     1
 10
432.06441
 20
-595.7701199999999
 30
0.0
 11
432.06441
 21
-606.3976
 31
0.0
  0
LINE
  5
516
  8
0
 62
     1
 10
432.06441
 20
-606.3976
 30
0.0
 11
467.5029
 21
-606.3976
 31
0.0
  0
LINE
  5
517
  8
0
 62
     1
 10
467.5029
 20
-606.3976
 30
0.0
 11
467.5029
 21
-595.82114
 31
0.0
  0
LINE
  5
518
  8
0
 62
     1
 10
467.5029
 20
-595.82114
 30
0.0
 11
432.06441
 21
-595.7701199999999
 31
0.0
  0
ENDSEC
  0
EOF
