<?xml version="1.0" encoding="UTF-8" standalone="no"?>
<svg
   xmlns:dc="http://purl.org/dc/elements/1.1/"
   xmlns:cc="http://creativecommons.org/ns#"
   xmlns:rdf="http://www.w3.org/1999/02/22-rdf-syntax-ns#"
   xmlns:svg="http://www.w3.org/2000/svg"
   xmlns="http://www.w3.org/2000/svg"
   xmlns:sodipodi="http://sodipodi.sourceforge.net/DTD/sodipodi-0.dtd"
   xmlns:inkscape="http://www.inkscape.org/namespaces/inkscape"
   width="744.094488189"
   height="1052.36220472"
   id="svg4696"
   version="1.1"
   inkscape:version="0.91 r13725"
   sodipodi:docname="fox and chicken pieces.svg">
  <metadata
     id="metadata4791">
    <rdf:RDF>
      <cc:Work
         rdf:about="">
        <dc:format>image/svg+xml</dc:format>
        <dc:type
           rdf:resource="http://purl.org/dc/dcmitype/StillImage" />
        <dc:title></dc:title>
      </cc:Work>
    </rdf:RDF>
  </metadata>
  <sodipodi:namedview
     pagecolor="#ffffff"
     bordercolor="#666666"
     borderopacity="1"
     objecttolerance="10"
     gridtolerance="10"
     guidetolerance="10"
     inkscape:pageopacity="0"
     inkscape:pageshadow="2"
     inkscape:window-width="1920"
     inkscape:window-height="1018"
     id="namedview4789"
     showgrid="false"
     inkscape:document-units="mm"
     inkscape:zoom="2.56"
     inkscape:cx="415.56649"
     inkscape:cy="447.31008"
     inkscape:window-x="-8"
     inkscape:window-y="-8"
     inkscape:window-maximized="1"
     inkscape:current-layer="g4715" />
  <desc
     id="desc4698">C:\Users\axford\Documents\repos\LaserDesigns\chicken.dxf - scale = 1.000000, origin = (0.000000, 0.000000), auto = False</desc>
  <defs
     id="defs4700">
    <marker
       refY="0.0"
       refX="0.0"
       style="overflow:visible"
       id="DistanceX"
       orient="auto">
      <path
         style="stroke:#000000; stroke-width:0.5"
         d="M 3,-3 L -3,3 M 0,-5 L  0,5"
         id="path4703" />
    </marker>
    <pattern
       height="8"
       width="8"
       patternUnits="userSpaceOnUse"
       y="0"
       x="0"
       id="Hatch">
      <path
         linecap="square"
         stroke="#000000"
         stroke-width="0.25"
         d="M8 4 l-4,4"
         id="path4706" />
      <path
         linecap="square"
         stroke="#000000"
         stroke-width="0.25"
         d="M6 2 l-4,4"
         id="path4708" />
      <path
         linecap="square"
         stroke="#000000"
         stroke-width="0.25"
         d="M4 0 l-4,4"
         id="path4710" />
    </pattern>
    <symbol
       id="*Model_Space" />
    <symbol
       id="*Paper_Space" />
    <symbol
       id="*Paper_Space0" />
  </defs>
  <g
     inkscape:label="0"
     inkscape:groupmode="layer"
     id="g4715">
    <path
       style="fill:none;stroke:#808000;stroke-width:0.85626978;stroke-miterlimit:4;stroke-dasharray:none"
       d="m 410.19571,593.37912 c -2.40935,0.0555 -4.63962,0.66608 -5.70437,2.51026 -1.2922,2.23811 3.18993,4.75042 2.66425,7.28075 -0.68135,3.27964 -4.83529,4.66398 -6.92639,7.28074 -3.99724,5.00207 -5.1984,12.63422 -10.65536,15.98385 -5.13125,3.14971 -12.40297,4.50486 -17.93609,2.13108 -7.26795,-3.11807 -7.56488,-14.70994 -14.20714,-19.00247 -3.20861,-2.07354 -7.51894,-3.55518 -11.18688,-2.48707 -2.30443,0.68773 -4.1076,2.4909 -4.79532,4.79532 -1.18126,5.12609 2.39947,10.43323 5.14967,14.91749 1.24755,2.03417 4.45087,2.82112 4.97249,5.14968 0.38262,1.70794 -1.96555,3.24448 -1.6873,4.97249 0.64839,4.02675 6.13146,5.88206 7.2377,9.35387 1.10623,3.47181 -1.23196,7.01478 -0.15069,10.03606 0.86821,2.42595 4.52701,6.11113 6.32202,7.95964 2.90282,2.98934 7.11729,2.41136 8.82067,6.22432 l 0,38.06541 19.6913,0 0,-40.16171 c 3.36154,-5.1628 12.76626,-6.90476 16.9492,-11.23159 3.51633,-3.64078 6.07941,-8.09544 7.45958,-12.96525 1.98238,-7.19138 -4.16193,-16.43833 0.35435,-22.37541 0.63507,-0.83485 2.19324,-0.24229 3.02026,-0.88754 0.88897,-0.79924 1.50842,-1.85328 1.77506,-3.01859 0.65084,-2.27739 -1.16245,-4.38509 0.53319,-6.03887 0.97467,-0.95062 6.57039,0.35601 6.57039,0.35601 -0.9325,-1.51914 -2.20983,-2.79812 -3.72897,-3.73062 -1.27558,-0.9557 -3.33992,-0.99612 -3.90779,-2.48542 -0.50704,-1.32978 1.23135,-2.66186 1.24354,-4.08496 0.0757,-1.7674 -0.42272,-3.51187 -1.42071,-4.9725 -1.24386,-1.56774 -3.00773,-2.63825 -4.9725,-3.0186 -1.62758,-0.30695 -3.61021,-0.59954 -5.48416,-0.55637 z"
       id="rect5343"
       inkscape:connector-curvature="0"
       sodipodi:nodetypes="sssssssccscssssccccccsccsccscccs" />
    <path
       style="fill:none;fill-rule:evenodd;stroke:#ff0000;stroke-width:0.58175027;stroke-linecap:butt;stroke-linejoin:miter;stroke-miterlimit:4;stroke-dasharray:none;stroke-opacity:1"
       d="m 519.88477,538.26758 c -0.43721,-5.4e-4 -1.11794,0.51585 -1.39649,0.88867 -2.59754,3.47657 0.30376,8.80478 1.23438,13.57227 -2.60484,1.3766 -5.29971,4.93218 -6.80274,7.84765 -2.02885,-1.16531 -7.12473,-2.37177 -10.18945,-1.45117 -1.13215,0.34008 -2.31014,0.39483 -1.84961,1.81055 3.15494,6.72975 9.08566,7.94106 10.32031,12.67578 0.35918,1.28031 -3.15633,2.38709 -4.60547,4.70898 1.71812,1.89277 3.69263,-0.35311 5.80469,-0.0644 -1.75986,1.76895 -3.1514,2.28523 -3.06836,4.03711 0.33474,1.70057 3.91644,-0.27859 4.0957,1.44531 0.67347,6.47648 -9.85204,10.90631 -16.43945,13.49219 -3.27476,1.28551 -6.92016,4.28656 -8.73242,5.8457 -2.45535,2.11242 -3.86076,4.38264 -5.28516,6.16602 -2.01842,2.52708 -2.80424,4.08575 -3.41406,5.48828 -0.77895,1.79148 -2.34377,2.91867 -2.89453,13.95703 -0.20153,4.03874 2.67457,5.92725 1.90039,9.16016 -0.39823,1.66303 -3.09436,3.51438 -3.45703,5.18554 -0.51841,2.38873 1.66486,5.6221 2.87109,7.74805 2.30449,4.06169 6.7595,5.92376 11.07227,7.71484 4.48223,1.8614 7.82335,3.35107 11.73242,5.1836 l 0,44.68164 19.48828,0 0,-37.71875 c 0.62331,0.0916 1.22472,0.16263 1.80078,0.21289 6.07849,0.53039 12.48889,-0.75854 18.46485,-1.99024 2.88882,-0.59542 6.25769,-1.44322 9.375,-3.18359 -2.77731,-2.51289 -5.15992,-2.84359 -8.95118,-6.60156 -2.05448,-2.03645 -6.27755,-4.55167 -5.68359,-7.38281 0.4086,-1.94755 4.68936,-3.63862 4.125,-5.54688 -1.22042,-4.12665 -5.71671,-3.06135 -8.92969,-8.4707 -1.88404,-3.17198 -2.12902,-9.62789 -2.47656,-14.69727 -0.2781,-4.05661 -0.58906,-9.93749 0.15039,-11.54883 0.80024,-1.74379 1.22577,-5.02079 2.41211,-5.26953 0.84581,-0.17734 1.56995,3.52362 1.95117,2.74805 0.86585,-1.76157 2.48421,-6.11409 2.46094,-9.46484 -0.0263,-3.77479 -0.0703,-4.79532 -0.30469,-6.25782 2.71956,0.58942 2.69786,3.19473 3.30274,4.59961 0.75619,-1.32507 1.23161,-5.49342 0.50781,-7.5664 -1.74239,-4.9902 -5.86904,-7.37784 -4.08399,-11.66016 2.53012,-6.06972 14.58132,-5.1181 15.41993,-11.64062 0.1941,-1.5097 -4.88361,-0.7946 -3.77344,-1.83594 1.07197,-1.00553 3.16463,-3.13445 4.4043,-4.20117 0.75669,-0.65111 1.02176,-5.75218 -2.54102,-4.62696 -3.33141,1.05214 -9.37078,3.94567 -12.48633,0.68946 -0.76615,-0.80073 3.31214,-2.27654 2.47266,-3 -1.45756,-1.25614 -6.94887,0.37334 -3.82227,-3.44532 1.00362,-1.22578 -6.35932,-0.32676 -7.92968,-1.75976 -1.68086,-1.53383 -1.94598,-2.10614 -5.91797,-10.27735 -0.0678,-0.13952 -0.1863,-0.19708 -0.33203,-0.19726 z"
       id="path4148"
       inkscape:connector-curvature="0"
       sodipodi:nodetypes="ssccscccccssssssssssccccsscsssssssscccssssssssssss" />
  </g>
</svg>
