  0
SECTION
  2
HEADER
  9
$ACADVER
  1
AC1014
  9
$ACADMAINTVER
 70
     9
  9
$DWGCODEPAGE
  3
ANSI_932
  9
$INSBASE
 10
0.0
 20
0.0
 30
0.0
  9
$EXTMIN
 10
1.000000000000000E+20
 20
1.000000000000000E+20
 30
1.000000000000000E+20
  9
$EXTMAX
 10
-1.000000000000000E+20
 20
-1.000000000000000E+20
 30
-1.000000000000000E+20
  9
$LIMMIN
 10
0.0
 20
0.0
  9
$LIMMAX
 10
12.0
 20
9.0
  9
$ORTHOMODE
 70
     0
  9
$REGENMODE
 70
     1
  9
$FILLMODE
 70
     1
  9
$QTEXTMODE
 70
     0
  9
$MIRRTEXT
 70
     1
  9
$DRAGMODE
 70
     2
  9
$LTSCALE
 40
1.0
  9
$OSMODE
 70
    37
  9
$ATTMODE
 70
     1
  9
$TEXTSIZE
 40
0.2
  9
$TRACEWID
 40
0.05
  9
$TEXTSTYLE
  7
STANDARD
  9
$CLAYER
  8
0
  9
$CELTYPE
  6
BYLAYER
  9
$CECOLOR
 62
   256
  9
$CELTSCALE
 40
1.0
  9
$DELOBJ
 70
     1
  9
$DISPSILH
 70
     0
  9
$DIMSCALE
 40
1.0
  9
$DIMASZ
 40
0.18
  9
$DIMEXO
 40
0.0625
  9
$DIMDLI
 40
0.38
  9
$DIMRND
 40
0.0
  9
$DIMDLE
 40
0.0
  9
$DIMEXE
 40
0.18
  9
$DIMTP
 40
0.0
  9
$DIMTM
 40
0.0
  9
$DIMTXT
 40
0.18
  9
$DIMCEN
 40
0.09
  9
$DIMTSZ
 40
0.0
  9
$DIMTOL
 70
     0
  9
$DIMLIM
 70
     0
  9
$DIMTIH
 70
     1
  9
$DIMTOH
 70
     1
  9
$DIMSE1
 70
     0
  9
$DIMSE2
 70
     0
  9
$DIMTAD
 70
     0
  9
$DIMZIN
 70
     0
  9
$DIMBLK
  1

  9
$DIMASO
 70
     1
  9
$DIMSHO
 70
     1
  9
$DIMPOST
  1

  9
$DIMAPOST
  1

  9
$DIMALT
 70
     0
  9
$DIMALTD
 70
     2
  9
$DIMALTF
 40
25.4
  9
$DIMLFAC
 40
1.0
  9
$DIMTOFL
 70
     0
  9
$DIMTVP
 40
0.0
  9
$DIMTIX
 70
     0
  9
$DIMSOXD
 70
     0
  9
$DIMSAH
 70
     0
  9
$DIMBLK1
  1

  9
$DIMBLK2
  1

  9
$DIMSTYLE
  2
STANDARD
  9
$DIMCLRD
 70
     0
  9
$DIMCLRE
 70
     0
  9
$DIMCLRT
 70
     0
  9
$DIMTFAC
 40
1.0
  9
$DIMGAP
 40
0.09
  9
$DIMJUST
 70
     0
  9
$DIMSD1
 70
     0
  9
$DIMSD2
 70
     0
  9
$DIMTOLJ
 70
     1
  9
$DIMTZIN
 70
     0
  9
$DIMALTZ
 70
     0
  9
$DIMALTTZ
 70
     0
  9
$DIMFIT
 70
     3
  9
$DIMUPT
 70
     0
  9
$DIMUNIT
 70
     2
  9
$DIMDEC
 70
     4
  9
$DIMTDEC
 70
     4
  9
$DIMALTU
 70
     2
  9
$DIMALTTD
 70
     2
  9
$DIMTXSTY
  7
STANDARD
  9
$DIMAUNIT
 70
     0
  9
$LUNITS
 70
     2
  9
$LUPREC
 70
     4
  9
$SKETCHINC
 40
0.1
  9
$FILLETRAD
 40
0.5
  9
$AUNITS
 70
     0
  9
$AUPREC
 70
     0
  9
$MENU
  1
.
  9
$ELEVATION
 40
0.0
  9
$PELEVATION
 40
0.0
  9
$THICKNESS
 40
0.0
  9
$LIMCHECK
 70
     0
  9
$CHAMFERA
 40
0.5
  9
$CHAMFERB
 40
0.5
  9
$CHAMFERC
 40
1.0
  9
$CHAMFERD
 40
0.0
  9
$SKPOLY
 70
     0
  9
$TDCREATE
 40
2457832.585393519
  9
$TDUPDATE
 40
2457832.58539353
  9
$TDINDWG
 40
0.0000000116
  9
$TDUSRTIMER
 40
0.0000000116
  9
$USRTIMER
 70
     1
  9
$ANGBASE
 50
0.0
  9
$ANGDIR
 70
     0
  9
$PDMODE
 70
     0
  9
$PDSIZE
 40
0.0
  9
$PLINEWID
 40
0.0
  9
$COORDS
 70
     1
  9
$SPLFRAME
 70
     0
  9
$SPLINETYPE
 70
     6
  9
$SPLINESEGS
 70
     8
  9
$ATTDIA
 70
     0
  9
$ATTREQ
 70
     1
  9
$HANDLING
 70
     1
  9
$HANDSEED
  5
93
  9
$SURFTAB1
 70
     6
  9
$SURFTAB2
 70
     6
  9
$SURFTYPE
 70
     6
  9
$SURFU
 70
     6
  9
$SURFV
 70
     6
  9
$UCSNAME
  2

  9
$UCSORG
 10
0.0
 20
0.0
 30
0.0
  9
$UCSXDIR
 10
1.0
 20
0.0
 30
0.0
  9
$UCSYDIR
 10
0.0
 20
1.0
 30
0.0
  9
$PUCSNAME
  2

  9
$PUCSORG
 10
0.0
 20
0.0
 30
0.0
  9
$PUCSXDIR
 10
1.0
 20
0.0
 30
0.0
  9
$PUCSYDIR
 10
0.0
 20
1.0
 30
0.0
  9
$USERI1
 70
     0
  9
$USERI2
 70
     0
  9
$USERI3
 70
     0
  9
$USERI4
 70
     0
  9
$USERI5
 70
     0
  9
$USERR1
 40
0.0
  9
$USERR2
 40
0.0
  9
$USERR3
 40
0.0
  9
$USERR4
 40
0.0
  9
$USERR5
 40
0.0
  9
$WORLDVIEW
 70
     1
  9
$SHADEDGE
 70
     3
  9
$SHADEDIF
 70
    70
  9
$TILEMODE
 70
     1
  9
$MAXACTVP
 70
    64
  9
$PINSBASE
 10
0.0
 20
0.0
 30
0.0
  9
$PLIMCHECK
 70
     0
  9
$PEXTMIN
 10
1.000000000000000E+20
 20
1.000000000000000E+20
 30
1.000000000000000E+20
  9
$PEXTMAX
 10
-1.000000000000000E+20
 20
-1.000000000000000E+20
 30
-1.000000000000000E+20
  9
$PLIMMIN
 10
0.0
 20
0.0
  9
$PLIMMAX
 10
12.0
 20
9.0
  9
$UNITMODE
 70
     0
  9
$VISRETAIN
 70
     1
  9
$PLINEGEN
 70
     0
  9
$PSLTSCALE
 70
     1
  9
$TREEDEPTH
 70
  3020
  9
$PICKSTYLE
 70
     1
  9
$CMLSTYLE
  2
STANDARD
  9
$CMLJUST
 70
     0
  9
$CMLSCALE
 40
1.0
  9
$PROXYGRAPHICS
 70
     1
  9
$MEASUREMENT
 70
     0
  0
ENDSEC
  0
SECTION
  2
CLASSES
  0
CLASS
  1
ACDBDICTIONARYWDFLT
  2
AcDbDictionaryWithDefault
  3
ObjectDBX Classes
 90
        0
280
     0
281
     0
  0
CLASS
  1
VISUALSTYLE
  2
AcDbVisualStyle
  3
ObjectDBX Classes
 90
     4095
280
     0
281
     0
  0
CLASS
  1
IMAGEDEF
  2
AcDbRasterImageDef
  3
ISM
 90
        0
280
     0
281
     0
  0
CLASS
  1
RASTERVARIABLES
  2
AcDbRasterVariables
  3
ISM
 90
        0
280
     0
281
     0
  0
CLASS
  1
IMAGE
  2
AcDbRasterImage
  3
ISM
 90
      127
280
     0
281
     1
  0
CLASS
  1
IMAGEDEF_REACTOR
  2
AcDbRasterImageDefReactor
  3
ISM
 90
        1
280
     0
281
     0
  0
CLASS
  1
XRECORD
  2
AcDbXrecord
  3
AutoCAD 2000
 90
        0
280
     0
281
     0
  0
CLASS
  1
LWPOLYLINE
  2
AcDbPolyline
  3
AutoCAD 2000
 90
        0
280
     0
281
     1
  0
CLASS
  1
HATCH
  2
AcDbHatch
  3
AutoCAD 2000
 90
        0
280
     0
281
     1
  0
CLASS
  1
ACDBPLACEHOLDER
  2
AcDbPlaceHolder
  3
ObjectDBX Classes
 90
        0
280
     0
281
     0
  0
CLASS
  1
LAYOUT
  2
AcDbLayout
  3
ObjectDBX Classes
 90
        0
280
     0
281
     0
  0
ENDSEC
  0
SECTION
  2
TABLES
  0
TABLE
  2
VPORT
  5
8
330
0
100
AcDbSymbolTable
 70
     1
  0
VPORT
  5
29
330
8
100
AcDbSymbolTableRecord
100
AcDbViewportTableRecord
  2
*ACTIVE
 70
     0
 10
0.0
 20
0.0
 11
1.0
 21
1.0
 12
0.0
 22
0.0
 13
0.0
 23
0.0
 14
0.5
 24
0.5
 15
0.5
 25
0.5
 16
0.0
 26
0.0
 36
1.0
 17
105.0008259828644
 27
-148.4999796178229
 37
0.0
 40
296.9999592356459
 41
0.7070763662937379
 42
50.0
 43
0.0
 44
0.0
 50
0.0
 51
0.0
 71
     0
 72
   100
 73
     1
 74
     3
 75
     0
 76
     0
 77
     0
 78
     0
  0
ENDTAB
  0
TABLE
  2
LTYPE
  5
5
330
0
100
AcDbSymbolTable
 70
     1
  0
LTYPE
  5
14
330
5
100
AcDbSymbolTableRecord
100
AcDbLinetypeTableRecord
  2
BYBLOCK
 70
     0
  3

 72
    65
 73
     0
 40
0.0
  0
LTYPE
  5
15
330
5
100
AcDbSymbolTableRecord
100
AcDbLinetypeTableRecord
  2
BYLAYER
 70
     0
  3

 72
    65
 73
     0
 40
0.0
  0
LTYPE
  5
16
330
5
100
AcDbSymbolTableRecord
100
AcDbLinetypeTableRecord
  2
CONTINUOUS
 70
     0
  3
Solid line
 72
    65
 73
     0
 40
0.0
  0
ENDTAB
  0
TABLE
  2
LAYER
  5
2
330
0
100
AcDbSymbolTable
 70
     2
  0
LAYER
  5
10
330
2
100
AcDbSymbolTableRecord
100
AcDbLayerTableRecord
  2
0
 70
     0
 62
     7
  6
CONTINUOUS
  0
LAYER
  5
3B
330
2
100
AcDbSymbolTableRecord
100
AcDbLayerTableRecord
  2
LAYER_1
 70
     0
 62
     7
  6
CONTINUOUS
  0
ENDTAB
  0
TABLE
  2
STYLE
  5
3
330
0
100
AcDbSymbolTable
 70
     1
  0
STYLE
  5
11
330
3
100
AcDbSymbolTableRecord
100
AcDbTextStyleTableRecord
  2
STANDARD
 70
     0
 40
0.0
 41
1.0
 50
0.0
 71
     0
 42
0.2
  3
txt
  4

  0
ENDTAB
  0
TABLE
  2
VIEW
  5
6
330
0
100
AcDbSymbolTable
 70
     0
  0
ENDTAB
  0
TABLE
  2
UCS
  5
7
330
0
100
AcDbSymbolTable
 70
     0
  0
ENDTAB
  0
TABLE
  2
APPID
  5
9
330
0
100
AcDbSymbolTable
 70
     1
  0
APPID
  5
12
330
9
100
AcDbSymbolTableRecord
100
AcDbRegAppTableRecord
  2
ACAD
 70
     0
  0
ENDTAB
  0
TABLE
  2
DIMSTYLE
  5
A
330
0
100
AcDbSymbolTable
 70
     1
  0
DIMSTYLE
105
27
330
A
100
AcDbSymbolTableRecord
100
AcDbDimStyleTableRecord
  2
STANDARD
 70
     0
  3

  4

  5

  6

  7

 40
1.0
 41
0.18
 42
0.0625
 43
0.38
 44
0.18
 45
0.0
 46
0.0
 47
0.0
 48
0.0
140
0.18
141
0.09
142
0.0
143
25.4
144
1.0
145
0.0
146
1.0
147
0.09
 71
     0
 72
     0
 73
     1
 74
     1
 75
     0
 76
     0
 77
     0
 78
     0
170
     0
171
     2
172
     0
173
     0
174
     0
175
     0
176
     0
177
     0
178
     0
270
     2
271
     4
272
     4
273
     2
274
     2
340
11
275
     0
280
     0
281
     0
282
     0
283
     1
284
     0
285
     0
286
     0
287
     3
288
     0
  0
ENDTAB
  0
TABLE
  2
BLOCK_RECORD
  5
1
330
0
100
AcDbSymbolTable
 70
     3
  0
BLOCK_RECORD
  5
1F
330
1
100
AcDbSymbolTableRecord
100
AcDbBlockTableRecord
  2
*MODEL_SPACE
  0
BLOCK_RECORD
  5
1B
330
1
100
AcDbSymbolTableRecord
100
AcDbBlockTableRecord
  2
*PAPER_SPACE
  0
BLOCK_RECORD
  5
3C
330
1
100
AcDbSymbolTableRecord
100
AcDbBlockTableRecord
  2
BLOCK_2
  0
BLOCK_RECORD
  5
4C
330
1
100
AcDbSymbolTableRecord
100
AcDbBlockTableRecord
  2
BLOCK_3
  0
ENDTAB
  0
ENDSEC
  0
SECTION
  2
BLOCKS
  0
BLOCK
  5
20
330
1F
100
AcDbEntity
  8
0
100
AcDbBlockBegin
  2
*MODEL_SPACE
 70
     0
 71
     0
 10
0.0
 20
0.0
 30
0.0
  3
*MODEL_SPACE
  1

  0
ENDBLK
  5
21
330
1F
100
AcDbEntity
  8
0
100
AcDbBlockEnd
  0
BLOCK
  5
1C
330
1B
100
AcDbEntity
 67
     1
  8
0
100
AcDbBlockBegin
  2
*PAPER_SPACE
 70
     0
 71
     0
 10
0.0
 20
0.0
 30
0.0
  3
*PAPER_SPACE
  1

  0
ENDBLK
  5
1D
330
1B
100
AcDbEntity
 67
     1
  8
0
100
AcDbBlockEnd
  0
BLOCK
  5
3E
330
3C
100
AcDbEntity
  8
0
100
AcDbBlockBegin
  2
BLOCK_2
 70
     0
 71
     0
 10
0.0
 20
0.0
 30
0.0
  3
BLOCK_2
  1

  0
IMAGE
  5
43
330
3C
100
AcDbEntity
  8
LAYER_1
 92
        8
310
0800000000000000
100
AcDbRasterImage
 90
        0
 10
109.7138900756836
 20
-204.9637145996094
 30
0.0
 11
0.3527777791023254
 21
0.0
 31
0.0
 12
0.0
 22
0.3527777791023254
 32
0.0
 13
512.0
 23
512.0
340
41
 70
     3
280
     0
281
    50
282
    50
283
     0
360
44
 71
     1
 91
        2
 14
-0.5
 24
-0.5
 14
511.5
 24
511.5
  0
ENDBLK
  5
3F
330
3C
100
AcDbEntity
  8
0
100
AcDbBlockEnd
  0
BLOCK
  5
4E
330
4C
100
AcDbEntity
  8
0
100
AcDbBlockBegin
  2
BLOCK_3
 70
     0
 71
     0
 10
0.0
 20
0.0
 30
0.0
  3
BLOCK_3
  1

  0
SPLINE
  5
50
330
4C
100
AcDbEntity
  8
LAYER_1
 62
     1
100
AcDbSpline
210
0.0
220
0.0
230
1.0
 70
    11
 71
     3
 72
    23
 73
    19
 74
     0
 42
0.0000000001
 43
0.0000000001
 40
0.0
 40
0.0
 40
0.0
 40
0.0
 40
1.0
 40
1.0
 40
1.0
 40
2.0
 40
2.0
 40
2.0
 40
3.0
 40
3.0
 40
3.0
 40
4.0
 40
4.0
 40
4.0
 40
5.0
 40
5.0
 40
5.0
 40
6.0
 40
6.0
 40
6.0
 40
6.0
 10
168.9805555133104
 20
-52.09087726562311
 30
0.0
 10
168.9805555133104
 20
-52.09087726562311
 30
0.0
 10
168.9809000228589
 20
-190.9006645573096
 30
0.0
 10
168.9809000228589
 20
-190.9006645573096
 30
0.0
 10
168.9809000228589
 20
-190.9006645573096
 30
0.0
 10
165.306016668743
 20
-193.6429605635684
 30
0.0
 10
161.1608777808903
 20
-193.6429605635684
 30
0.0
 10
156.9275444486154
 20
-193.6429605635684
 30
0.0
 10
153.9809542800812
 20
-190.9006645573096
 30
0.0
 10
153.9809542800812
 20
-190.9006645573096
 30
0.0
 10
153.9809542800812
 20
-190.9006645573096
 30
0.0
 10
153.9806097705326
 20
-52.09087726562311
 30
0.0
 10
153.9806097705326
 20
-52.09087726562311
 30
0.0
 10
153.9806097705326
 20
-52.09087726562311
 30
0.0
 10
157.2803222263049
 20
-49.70962726621843
 30
0.0
 10
161.5136555585799
 20
-49.70962726621843
 30
0.0
 10
165.7469888908549
 20
-49.70962726621843
 30
0.0
 10
168.9805555133104
 20
-52.09087726562311
 30
0.0
 10
168.9805555133104
 20
-52.09087726562311
 30
0.0
  0
POLYLINE
  5
51
330
4C
100
AcDbEntity
  8
LAYER_1
 62
     1
100
AcDb2dPolyline
 66
     1
 10
0.0
 20
0.0
 30
0.0
  0
VERTEX
  5
52
330
51
100
AcDbEntity
  8
LAYER_1
 62
     1
100
AcDbVertex
100
AcDb2dVertex
 10
163.1807372638923
 20
-55.80985784195032
 30
0.0
  0
VERTEX
  5
53
330
51
100
AcDbEntity
  8
LAYER_1
 62
     1
100
AcDbVertex
100
AcDb2dVertex
 10
163.1807372638923
 20
-71.80957029454761
 30
0.0
  0
VERTEX
  5
54
330
51
100
AcDbEntity
  8
LAYER_1
 62
     1
100
AcDbVertex
100
AcDb2dVertex
 10
159.7807725294992
 20
-71.80957029454761
 30
0.0
  0
VERTEX
  5
55
330
51
100
AcDbEntity
  8
LAYER_1
 62
     1
100
AcDbVertex
100
AcDb2dVertex
 10
159.7807725294992
 20
-55.80985784195032
 30
0.0
  0
VERTEX
  5
56
330
51
100
AcDbEntity
  8
LAYER_1
 62
     1
100
AcDbVertex
100
AcDb2dVertex
 10
163.1807372638923
 20
-55.80985784195032
 30
0.0
  0
SEQEND
  5
57
330
51
100
AcDbEntity
  8
LAYER_1
  0
POLYLINE
  5
58
330
4C
100
AcDbEntity
  8
LAYER_1
 62
     1
100
AcDb2dPolyline
 66
     1
 10
0.0
 20
0.0
 30
0.0
  0
VERTEX
  5
59
330
58
100
AcDbEntity
  8
LAYER_1
 62
     1
100
AcDbVertex
100
AcDb2dVertex
 10
164.9807996549354
 20
-117.3306504697993
 30
0.0
  0
VERTEX
  5
5A
330
58
100
AcDbEntity
  8
LAYER_1
 62
     1
100
AcDbVertex
100
AcDb2dVertex
 10
164.9807996549354
 20
-125.6605468435849
 30
0.0
  0
VERTEX
  5
5B
330
58
100
AcDbEntity
  8
LAYER_1
 62
     1
100
AcDbVertex
100
AcDb2dVertex
 10
157.9807101384562
 20
-125.6605468435849
 30
0.0
  0
VERTEX
  5
5C
330
58
100
AcDbEntity
  8
LAYER_1
 62
     1
100
AcDbVertex
100
AcDb2dVertex
 10
157.9807101384562
 20
-117.3306504697993
 30
0.0
  0
VERTEX
  5
5D
330
58
100
AcDbEntity
  8
LAYER_1
 62
     1
100
AcDbVertex
100
AcDb2dVertex
 10
164.9807996549354
 20
-117.3306504697993
 30
0.0
  0
SEQEND
  5
5E
330
58
100
AcDbEntity
  8
LAYER_1
  0
ENDBLK
  5
4F
330
4C
100
AcDbEntity
  8
0
100
AcDbBlockEnd
  0
ENDSEC
  0
SECTION
  2
ENTITIES
  0
INSERT
  5
3D
330
1F
100
AcDbEntity
  8
LAYER_1
100
AcDbBlockReference
  2
BLOCK_2
 10
0.0
 20
0.0
 30
0.0
  0
SPLINE
  5
45
330
1F
100
AcDbEntity
  8
LAYER_1
 62
     1
100
AcDbSpline
210
0.0
220
0.0
230
1.0
 70
    11
 71
     3
 72
    29
 73
    25
 74
     0
 42
0.0000000001
 43
0.0000000001
 40
0.0
 40
0.0
 40
0.0
 40
0.0
 40
1.0
 40
1.0
 40
1.0
 40
2.0
 40
2.0
 40
2.0
 40
3.0
 40
3.0
 40
3.0
 40
4.0
 40
4.0
 40
4.0
 40
5.0
 40
5.0
 40
5.0
 40
6.0
 40
6.0
 40
6.0
 40
7.0
 40
7.0
 40
7.0
 40
8.0
 40
8.0
 40
8.0
 40
8.0
 10
116.4555962165458
 20
-125.4371324013664
 30
0.0
 10
119.3508544623498
 20
-134.566979946827
 30
0.0
 10
121.3066351693261
 20
-142.0714314423467
 30
0.0
 10
128.3353189783329
 20
-151.4994520020557
 30
0.0
 10
135.3646918064366
 20
-160.9273003069904
 30
0.0
 10
139.0571451475274
 20
-164.8581542556605
 30
0.0
 10
141.7608560843514
 20
-165.4472655836382
 30
0.0
 10
144.4649115307241
 20
-166.0363769116159
 30
0.0
 10
149.0586018507562
 20
-165.3866319030978
 30
0.0
 10
150.5324136993461
 20
-163.2238009574579
 30
0.0
 10
152.0065700574845
 20
-161.0616590309151
 30
0.0
 10
153.5272352046738
 20
-157.0488118096961
 30
0.0
 10
151.1911159561258
 20
-155.1753688848173
 30
0.0
 10
148.8553412171264
 20
-153.3012369408414
 30
0.0
 10
139.6924207550074
 20
-146.4926947333421
 30
0.0
 10
138.1359266147716
 20
-143.1802354242744
 30
0.0
 10
136.5794324745357
 20
-139.8682928795295
 30
0.0
 10
134.8334580826111
 20
-135.2904499987295
 30
0.0
 10
132.5476372281478
 20
-131.2994791338418
 30
0.0
 10
130.8585069117298
 20
-128.3485825959511
 30
0.0
 10
119.4862467149201
 20
-123.5080511844008
 30
0.0
 10
118.1777994496222
 20
-123.4424221154068
 30
0.0
 10
116.8690076747758
 20
-123.3764485368642
 30
0.0
 10
116.2564696974984
 20
-124.8089192396311
 30
0.0
 10
116.4555962165458
 20
-125.4371324013664
 30
0.0
  0
SPLINE
  5
46
330
1F
100
AcDbEntity
  8
LAYER_1
 62
     1
100
AcDbSpline
210
0.0
220
0.0
230
1.0
 70
    11
 71
     3
 72
    29
 73
    25
 74
     0
 42
0.0000000001
 43
0.0000000001
 40
0.0
 40
0.0
 40
0.0
 40
0.0
 40
1.0
 40
1.0
 40
1.0
 40
2.0
 40
2.0
 40
2.0
 40
3.0
 40
3.0
 40
3.0
 40
4.0
 40
4.0
 40
4.0
 40
5.0
 40
5.0
 40
5.0
 40
6.0
 40
6.0
 40
6.0
 40
7.0
 40
7.0
 40
7.0
 40
8.0
 40
8.0
 40
8.0
 40
8.0
 10
121.9822183939836
 20
-145.3651149810198
 30
0.0
 10
126.7491970169238
 20
-153.6719292150542
 30
0.0
 10
130.9553140948653
 20
-160.1879828158558
 30
0.0
 10
133.1467393330328
 20
-171.7414550351896
 30
0.0
 10
135.3378200616517
 20
-183.2949272545235
 30
0.0
 10
135.7360730997465
 20
-188.6740993451926
 30
0.0
 10
134.3418429568659
 20
-191.0643065928589
 30
0.0
 10
132.9476128139853
 20
-193.4545138405253
 30
0.0
 10
129.3619574329373
 20
-196.3993814613168
 30
0.0
 10
126.7719346471265
 20
-196.0224880152305
 30
0.0
 10
124.1826008804127
 20
-195.6455945691442
 30
0.0
 10
120.1983479517212
 20
-194.0525824167646
 30
0.0
 10
120.3978189803172
 20
-191.0643065928589
 30
0.0
 10
120.5969454993647
 20
-188.0760307689532
 30
0.0
 10
121.7779242317083
 20
-176.7216850686668
 30
0.0
 10
120.3905842797982
 20
-173.3351562066662
 30
0.0
 10
119.0032443278881
 20
-169.9486273446656
 30
0.0
 10
116.8121635992692
 20
-165.5664658874278
 30
0.0
 10
115.4175889468401
 20
-161.183615411093
 30
0.0
 10
114.3864718681048
 20
-157.943847616764
 30
0.0
 10
118.5112846925944
 20
-146.2928791951976
 30
0.0
 10
119.3477538764131
 20
-145.284499746665
 30
0.0
 10
120.1842230602317
 20
-144.2759480433581
 30
0.0
 10
121.6542453037878
 20
-144.7932291304684
 30
0.0
 10
121.9822183939836
 20
-145.3651149810198
 30
0.0
  0
SPLINE
  5
47
330
1F
100
AcDbEntity
  8
LAYER_1
 62
     1
100
AcDbSpline
210
0.0
220
0.0
230
1.0
 70
    11
 71
     3
 72
    29
 73
    25
 74
     0
 42
0.0000000001
 43
0.0000000001
 40
0.0
 40
0.0
 40
0.0
 40
0.0
 40
1.0
 40
1.0
 40
1.0
 40
2.0
 40
2.0
 40
2.0
 40
3.0
 40
3.0
 40
3.0
 40
4.0
 40
4.0
 40
4.0
 40
5.0
 40
5.0
 40
5.0
 40
6.0
 40
6.0
 40
6.0
 40
7.0
 40
7.0
 40
7.0
 40
8.0
 40
8.0
 40
8.0
 40
8.0
 10
133.9838975359485
 20
-118.1833116023986
 30
0.0
 10
133.9838975359485
 20
-120.0546874699863
 30
0.0
 10
132.6299750102453
 20
-121.5712185025933
 30
0.0
 10
130.9591036998991
 20
-121.5712185025933
 30
0.0
 10
130.9591036998991
 20
-121.5712185025933
 30
0.0
 10
112.9557237130805
 20
-121.5712185025933
 30
0.0
 10
112.9557237130805
 20
-121.5712185025933
 30
0.0
 10
111.2855414218314
 20
-121.5712185025933
 30
0.0
 10
109.9312743865797
 20
-120.0546874699863
 30
0.0
 10
109.9312743865797
 20
-118.1833116023986
 30
0.0
 10
109.9312743865797
 20
-118.1833116023986
 30
0.0
 10
109.9312743865797
 20
-74.36152477524642
 30
0.0
 10
109.9312743865797
 20
-74.36152477524642
 30
0.0
 10
109.9312743865797
 20
-72.49032116243298
 30
0.0
 10
111.2855414218314
 20
-70.97344562027747
 30
0.0
 10
112.9557237130805
 20
-70.97344562027747
 30
0.0
 10
112.9557237130805
 20
-70.97344562027747
 30
0.0
 10
130.9591036998991
 20
-70.97344562027747
 30
0.0
 10
130.9591036998991
 20
-70.97344562027747
 30
0.0
 10
132.6299750102453
 20
-70.97344562027747
 30
0.0
 10
133.9838975359485
 20
-72.49032116243298
 30
0.0
 10
133.9838975359485
 20
-74.36152477524642
 30
0.0
 10
133.9838975359485
 20
-74.36152477524642
 30
0.0
 10
133.9838975359485
 20
-118.1833116023986
 30
0.0
 10
133.9838975359485
 20
-118.1833116023986
 30
0.0
  0
SPLINE
  5
48
330
1F
100
AcDbEntity
  8
LAYER_1
 62
     1
100
AcDbSpline
210
0.0
220
0.0
230
1.0
 70
    11
 71
     3
 72
    32
 73
    28
 74
     0
 42
0.0000000001
 43
0.0000000001
 40
0.0
 40
0.0
 40
0.0
 40
0.0
 40
1.0
 40
1.0
 40
1.0
 40
2.0
 40
2.0
 40
2.0
 40
3.0
 40
3.0
 40
3.0
 40
4.0
 40
4.0
 40
4.0
 40
5.0
 40
5.0
 40
5.0
 40
6.0
 40
6.0
 40
6.0
 40
7.0
 40
7.0
 40
7.0
 40
8.0
 40
8.0
 40
8.0
 40
9.0
 40
9.0
 40
9.0
 40
9.0
 10
162.0979437528783
 20
-195.6049424424182
 30
0.0
 10
162.0979437528783
 20
-195.6049424424182
 30
0.0
 10
162.0979437528783
 20
-225.6206813672059
 30
0.0
 10
162.0979437528783
 20
-225.6206813672059
 30
0.0
 10
159.6774196649418
 20
-223.9064018537456
 30
0.0
 10
156.7239393054371
 20
-222.8956108383733
 30
0.0
 10
153.5324028479016
 20
-222.8956108383733
 30
0.0
 10
145.3361761789437
 20
-222.8956108383733
 30
0.0
 10
138.6919650260909
 20
-229.5398219912262
 30
0.0
 10
138.6919650260909
 20
-237.7363931697326
 30
0.0
 10
138.6919650260909
 20
-245.9326198386905
 30
0.0
 10
145.3361761789437
 20
-252.5768309915433
 30
0.0
 10
153.5324028479016
 20
-252.5768309915433
 30
0.0
 10
156.7239393054371
 20
-252.5768309915433
 30
0.0
 10
159.6774196649418
 20
-251.566039976171
 30
0.0
 10
162.0979437528783
 20
-249.8517604627107
 30
0.0
 10
162.0979437528783
 20
-249.8517604627107
 30
0.0
 10
162.0979437528783
 20
-249.987152715281
 30
0.0
 10
162.0979437528783
 20
-249.987152715281
 30
0.0
 10
162.0979437528783
 20
-249.987152715281
 30
0.0
 10
169.2692545149744
 20
-249.987152715281
 30
0.0
 10
169.2692545149744
 20
-249.987152715281
 30
0.0
 10
169.2692545149744
 20
-249.987152715281
 30
0.0
 10
169.2692545149744
 20
-195.6049424424182
 30
0.0
 10
169.2692545149744
 20
-195.6049424424182
 30
0.0
 10
169.2692545149744
 20
-195.6049424424182
 30
0.0
 10
162.0979437528783
 20
-195.6049424424182
 30
0.0
 10
162.0979437528783
 20
-195.6049424424182
 30
0.0
  0
SPLINE
  5
49
330
1F
100
AcDbEntity
  8
LAYER_1
 62
     1
100
AcDbSpline
210
0.0
220
0.0
230
1.0
 70
    11
 71
     3
 72
    32
 73
    28
 74
     0
 42
0.0000000001
 43
0.0000000001
 40
0.0
 40
0.0
 40
0.0
 40
0.0
 40
1.0
 40
1.0
 40
1.0
 40
2.0
 40
2.0
 40
2.0
 40
3.0
 40
3.0
 40
3.0
 40
4.0
 40
4.0
 40
4.0
 40
5.0
 40
5.0
 40
5.0
 40
6.0
 40
6.0
 40
6.0
 40
7.0
 40
7.0
 40
7.0
 40
8.0
 40
8.0
 40
8.0
 40
9.0
 40
9.0
 40
9.0
 40
9.0
 10
130.9949326929457
 20
-197.7216091085557
 30
0.0
 10
128.8696532880951
 20
-197.7216091085557
 30
0.0
 10
126.9772623380474
 20
-197.7216091085557
 30
0.0
 10
126.7281819344638
 20
-201.0413031181425
 30
0.0
 10
126.4791015308802
 20
-204.3609971277292
 30
0.0
 10
125.2839979070471
 20
-217.6418402233673
 30
0.0
 10
124.4871473213088
 20
-222.1569823663358
 30
0.0
 10
123.6902967355705
 20
-226.6721245093042
 30
0.0
 10
121.8313232117297
 20
-239.2880641762891
 30
0.0
 10
121.9639593879118
 20
-243.0067002430678
 30
0.0
 10
122.0969400736424
 20
-246.7253363098465
 30
0.0
 10
123.9228406808248
 20
-251.6387314909098
 30
0.0
 10
126.7281819344638
 20
-252.0369845290047
 30
0.0
 10
129.5335231881027
 20
-252.4352375670995
 30
0.0
 10
134.845860426358
 20
-251.3727701194485
 30
0.0
 10
135.2441134644529
 20
-247.256570033672
 30
0.0
 10
135.6427110120963
 20
-243.1396809287984
 30
0.0
 10
138.1069878126955
 20
-216.313411404255
 30
0.0
 10
138.1069878126955
 20
-213.790223470858
 30
0.0
 10
138.1069878126955
 20
-211.267035537461
 30
0.0
 10
138.1069878126955
 20
-200.7753417466812
 30
0.0
 10
138.1069878126955
 20
-200.7753417466812
 30
0.0
 10
138.1069878126955
 20
-200.7753417466812
 30
0.0
 10
137.1041205169392
 20
-197.7216091085557
 30
0.0
 10
134.9788411120886
 20
-197.7216091085557
 30
0.0
 10
132.8539062167865
 20
-197.7216091085557
 30
0.0
 10
130.9949326929457
 20
-197.7216091085557
 30
0.0
 10
130.9949326929457
 20
-197.7216091085557
 30
0.0
  0
SPLINE
  5
4A
330
1F
100
AcDbEntity
  8
LAYER_1
 62
     1
100
AcDbSpline
210
0.0
220
0.0
230
1.0
 70
    11
 71
     3
 72
    32
 73
    28
 74
     0
 42
0.0000000001
 43
0.0000000001
 40
0.0
 40
0.0
 40
0.0
 40
0.0
 40
1.0
 40
1.0
 40
1.0
 40
2.0
 40
2.0
 40
2.0
 40
3.0
 40
3.0
 40
3.0
 40
4.0
 40
4.0
 40
4.0
 40
5.0
 40
5.0
 40
5.0
 40
6.0
 40
6.0
 40
6.0
 40
7.0
 40
7.0
 40
7.0
 40
8.0
 40
8.0
 40
8.0
 40
9.0
 40
9.0
 40
9.0
 40
9.0
 10
145.4512423681511
 20
-167.561520682936
 30
0.0
 10
147.5765217730017
 20
-167.561520682936
 30
0.0
 10
149.4689127230494
 20
-167.561520682936
 30
0.0
 10
149.717993126633
 20
-170.8812146925227
 30
0.0
 10
149.9670735302166
 20
-174.2009087021095
 30
0.0
 10
151.1621771540497
 20
-187.4817517977476
 30
0.0
 10
151.959027739788
 20
-191.9968939407161
 30
0.0
 10
152.7558783255263
 20
-196.5120360836845
 30
0.0
 10
154.6148518493671
 20
-209.1279757506694
 30
0.0
 10
154.482215673185
 20
-212.8466118174481
 30
0.0
 10
154.3492349874544
 20
-216.5652478842267
 30
0.0
 10
152.523334380272
 20
-221.4786430652901
 30
0.0
 10
149.717993126633
 20
-221.876896103385
 30
0.0
 10
146.9126518729941
 20
-222.2751491414798
 30
0.0
 10
141.6003146347388
 20
-221.2126816938288
 30
0.0
 10
141.2020615966439
 20
-217.0964816080523
 30
0.0
 10
140.8038085585491
 20
-212.9795925031787
 30
0.0
 10
138.3391872484013
 20
-186.1533229786353
 30
0.0
 10
138.3391872484013
 20
-183.6301350452383
 30
0.0
 10
138.3391872484013
 20
-181.1069471118413
 30
0.0
 10
138.3391872484013
 20
-170.6152533210615
 30
0.0
 10
138.3391872484013
 20
-170.6152533210615
 30
0.0
 10
138.3391872484013
 20
-170.6152533210615
 30
0.0
 10
139.3423990537061
 20
-167.561520682936
 30
0.0
 10
141.4673339490082
 20
-167.561520682936
 30
0.0
 10
143.5922688443103
 20
-167.561520682936
 30
0.0
 10
145.4512423681511
 20
-167.561520682936
 30
0.0
 10
145.4512423681511
 20
-167.561520682936
 30
0.0
  0
SPLINE
  5
4B
330
1F
100
AcDbEntity
  8
LAYER_1
 62
     1
100
AcDbSpline
210
0.0
220
0.0
230
1.0
 70
    11
 71
     3
 72
    50
 73
    46
 74
     0
 42
0.0000000001
 43
0.0000000001
 40
0.0
 40
0.0
 40
0.0
 40
0.0
 40
1.0
 40
1.0
 40
1.0
 40
2.0
 40
2.0
 40
2.0
 40
3.0
 40
3.0
 40
3.0
 40
4.0
 40
4.0
 40
4.0
 40
5.0
 40
5.0
 40
5.0
 40
6.0
 40
6.0
 40
6.0
 40
7.0
 40
7.0
 40
7.0
 40
8.0
 40
8.0
 40
8.0
 40
9.0
 40
9.0
 40
9.0
 40
10.0
 40
10.0
 40
10.0
 40
11.0
 40
11.0
 40
11.0
 40
12.0
 40
12.0
 40
12.0
 40
13.0
 40
13.0
 40
13.0
 40
14.0
 40
14.0
 40
14.0
 40
15.0
 40
15.0
 40
15.0
 40
15.0
 10
186.9866915765172
 20
-246.5889105286305
 30
0.0
 10
186.9866915765172
 20
-246.5889105286305
 30
0.0
 10
171.9867458337394
 20
-246.5889105286305
 30
0.0
 10
171.9867458337394
 20
-246.5889105286305
 30
0.0
 10
171.9867458337394
 20
-246.5889105286305
 30
0.0
 10
171.9867458337394
 20
-110.228069362634
 30
0.0
 10
171.9867458337394
 20
-110.228069362634
 30
0.0
 10
171.9867458337394
 20
-110.228069362634
 30
0.0
 10
176.3120632154706
 20
-114.5533867443651
 30
0.0
 10
176.3120632154706
 20
-114.5533867443651
 30
0.0
 10
176.3120632154706
 20
-114.5533867443651
 30
0.0
 10
178.7160508450779
 20
-112.1490546052093
 30
0.0
 10
178.7160508450779
 20
-112.1490546052093
 30
0.0
 10
178.7160508450779
 20
-112.1490546052093
 30
0.0
 10
171.9867458337394
 20
-105.4197495938708
 30
0.0
 10
171.9867458337394
 20
-105.4197495938708
 30
0.0
 10
171.9867458337394
 20
-105.4197495938708
 30
0.0
 10
171.9867458337394
 20
-59.33780787362041
 30
0.0
 10
171.9867458337394
 20
-59.33780787362041
 30
0.0
 10
171.9867458337394
 20
-59.33780787362041
 30
0.0
 10
171.9867458337394
 20
-55.93784313922735
 30
0.0
 10
171.9867458337394
 20
-55.93784313922735
 30
0.0
 10
171.9867458337394
 20
-55.93784313922735
 30
0.0
 10
172.6406249568398
 20
-52.38663871303181
 30
0.0
 10
172.6406249568398
 20
-52.38663871303181
 30
0.0
 10
172.6406249568398
 20
-52.38663871303181
 30
0.0
 10
175.6857448562522
 20
-49.54477944724923
 30
0.0
 10
178.875558766045
 20
-49.33014999851816
 30
0.0
 10
182.3737087217677
 20
-49.09484997687559
 30
0.0
 10
186.2556423145472
 20
-52.62262775377143
 30
0.0
 10
186.2556423145472
 20
-52.62262775377143
 30
0.0
 10
186.2556423145472
 20
-52.62262775377143
 30
0.0
 10
186.9866915765172
 20
-55.93767088445308
 30
0.0
 10
186.9866915765172
 20
-55.93767088445308
 30
0.0
 10
186.9866915765172
 20
-55.93767088445308
 30
0.0
 10
180.0951225678234
 20
-55.93784313922735
 30
0.0
 10
180.0951225678234
 20
-55.93784313922735
 30
0.0
 10
180.0951225678234
 20
-55.93784313922735
 30
0.0
 10
180.1795274072121
 20
-59.70763887396198
 30
0.0
 10
180.1795274072121
 20
-59.70763887396198
 30
0.0
 10
180.1795274072121
 20
-59.70763887396198
 30
0.0
 10
186.9866915765172
 20
-59.79583331838437
 30
0.0
 10
186.9866915765172
 20
-59.79583331838437
 30
0.0
 10
186.9866915765172
 20
-59.79583331838437
 30
0.0
 10
186.9866915765172
 20
-246.5889105286305
 30
0.0
 10
186.9866915765172
 20
-246.5889105286305
 30
0.0
  0
INSERT
  5
4D
330
1F
100
AcDbEntity
  8
LAYER_1
100
AcDbBlockReference
  2
BLOCK_3
 10
0.0
 20
0.0
 30
0.0
  0
POLYLINE
  5
5F
330
1F
100
AcDbEntity
  8
LAYER_1
 62
     1
100
AcDb2dPolyline
 66
     1
 10
0.0
 20
0.0
 30
0.0
  0
VERTEX
  5
60
330
5F
100
AcDbEntity
  8
LAYER_1
 62
     1
100
AcDbVertex
100
AcDb2dVertex
 10
178.7160508450779
 20
-112.1490546052093
 30
0.0
  0
VERTEX
  5
61
330
5F
100
AcDbEntity
  8
LAYER_1
 62
     1
100
AcDbVertex
100
AcDb2dVertex
 10
176.3117187059221
 20
-114.5532144895909
 30
0.0
  0
SEQEND
  5
62
330
5F
100
AcDbEntity
  8
LAYER_1
  0
POLYLINE
  5
63
330
1F
100
AcDbEntity
  8
LAYER_1
 62
     1
100
AcDb2dPolyline
 66
     1
 10
0.0
 20
0.0
 30
0.0
  0
VERTEX
  5
64
330
63
100
AcDbEntity
  8
LAYER_1
 62
     1
100
AcDbVertex
100
AcDb2dVertex
 10
145.0733153934192
 20
-58.70925020233658
 30
0.0
  0
VERTEX
  5
65
330
63
100
AcDbEntity
  8
LAYER_1
 62
     1
100
AcDbVertex
100
AcDb2dVertex
 10
141.6733506590261
 20
-58.70925020233658
 30
0.0
  0
VERTEX
  5
66
330
63
100
AcDbEntity
  8
LAYER_1
 62
     1
100
AcDbVertex
100
AcDb2dVertex
 10
141.6733506590261
 20
-50.7683051088357
 30
0.0
  0
VERTEX
  5
67
330
63
100
AcDbEntity
  8
LAYER_1
 62
     1
100
AcDbVertex
100
AcDb2dVertex
 10
135.990321146558
 20
-50.7683051088357
 30
0.0
  0
VERTEX
  5
68
330
63
100
AcDbEntity
  8
LAYER_1
 62
     1
100
AcDbVertex
100
AcDb2dVertex
 10
135.9916991847521
 20
-133.3958197366163
 30
0.0
  0
VERTEX
  5
69
330
63
100
AcDbEntity
  8
LAYER_1
 62
     1
100
AcDbVertex
100
AcDb2dVertex
 10
139.8732882679831
 20
-133.3958197366163
 30
0.0
  0
VERTEX
  5
6A
330
63
100
AcDbEntity
  8
LAYER_1
 62
     1
100
AcDbVertex
100
AcDb2dVertex
 10
139.8732882679831
 20
-141.7765312688094
 30
0.0
  0
VERTEX
  5
6B
330
63
100
AcDbEntity
  8
LAYER_1
 62
     1
100
AcDbVertex
100
AcDb2dVertex
 10
146.8733777844622
 20
-141.7765312688094
 30
0.0
  0
VERTEX
  5
6C
330
63
100
AcDbEntity
  8
LAYER_1
 62
     1
100
AcDbVertex
100
AcDb2dVertex
 10
146.8733777844622
 20
-133.3958197366163
 30
0.0
  0
VERTEX
  5
6D
330
63
100
AcDbEntity
  8
LAYER_1
 62
     1
100
AcDbVertex
100
AcDb2dVertex
 10
150.9888888511417
 20
-133.3958197366163
 30
0.0
  0
VERTEX
  5
6E
330
63
100
AcDbEntity
  8
LAYER_1
 62
     1
100
AcDbVertex
100
AcDb2dVertex
 10
150.9888888511417
 20
-50.76796059928718
 30
0.0
  0
VERTEX
  5
6F
330
63
100
AcDbEntity
  8
LAYER_1
 62
     1
100
AcDbVertex
100
AcDb2dVertex
 10
145.0733153934192
 20
-50.76796059928718
 30
0.0
  0
VERTEX
  5
70
330
63
100
AcDbEntity
  8
LAYER_1
 62
     1
100
AcDbVertex
100
AcDb2dVertex
 10
145.0733153934192
 20
-58.70925020233658
 30
0.0
  0
SEQEND
  5
71
330
63
100
AcDbEntity
  8
LAYER_1
  0
ENDSEC
  0
SECTION
  2
OBJECTS
  0
DICTIONARY
  5
C
330
0
100
AcDbDictionary
  3
ACAD_GROUP
350
D
  3
ACAD_IMAGE_DICT
350
40
  3
ACAD_IMAGE_VARS
350
42
  3
ACAD_LAYOUT
350
1A
  3
ACAD_MLINESTYLE
350
17
  3
ACAD_PLOTSETTINGS
350
19
  3
ACAD_TABLESTYLE
350
92
  3
ACAD_VISUALSTYLE
350
2A
  3
ACDBHEADERROUNDTRIPXREC
350
72
  0
IMAGEDEF_REACTOR
  5
44
330
43
100
AcDbRasterImageDefReactor
 90
        2
330
43
  0
DICTIONARY
  5
D
102
{ACAD_REACTORS
330
C
102
}
330
C
100
AcDbDictionary
  0
DICTIONARY
  5
40
102
{ACAD_REACTORS
330
C
102
}
330
C
100
AcDbDictionary
  3
/USERS/DAMIAN/DOCUMENTS/RE
350
41
  0
RASTERVARIABLES
  5
42
102
{ACAD_REACTORS
330
C
102
}
330
C
100
AcDbRasterVariables
 90
        0
 70
     0
 71
     1
 72
     0
  0
DICTIONARY
  5
1A
102
{ACAD_REACTORS
330
C
102
}
330
C
100
AcDbDictionary
  0
DICTIONARY
  5
17
102
{ACAD_REACTORS
330
C
102
}
330
C
100
AcDbDictionary
  3
STANDARD
350
18
  0
DICTIONARY
  5
19
102
{ACAD_REACTORS
330
C
102
}
330
C
100
AcDbDictionary
  0
DICTIONARY
  5
92
102
{ACAD_REACTORS
330
C
102
}
330
C
100
AcDbDictionary
  0
DICTIONARY
  5
2A
102
{ACAD_REACTORS
330
C
102
}
330
C
100
AcDbDictionary
  3
2DWIREFRAME
350
2F
  3
3DWIREFRAME
350
30
  3
3D_HIDDEN
350
31
  3
BASIC
350
32
  3
BRIGHTEN
350
36
  3
COLORCHANGE
350
3A
  3
CONCEPTUAL
350
34
  3
DIM
350
35
  3
FACEPATTERN
350
39
  3
FLAT
350
2B
  3
FLATWITHEDGES
350
2C
  3
GOURAUD
350
2D
  3
GOURAUDWITHEDGES
350
2E
  3
LINEPATTERN
350
38
  3
REALISTIC
350
33
  3
THICKEN
350
37
  0
DICTIONARY
  5
72
102
{ACAD_REACTORS
330
C
102
}
330
C
100
AcDbDictionary
  3
CEPSNTYPE
350
7B
  3
DIMSTYLEDATA
350
91
  3
FINGERPRINTGUID
350
7C
  3
HYPERLINKBASE
350
75
  3
INSUNITS
350
7A
  3
LAYOUTDICT
350
77
  3
LWETCUNION
350
79
  3
PLOTSETDICT
350
78
  3
PSVPSCALE
350
7E
  3
PUCSBASE
350
81
  3
PUCSORGBACK
350
87
  3
PUCSORGBOTTOM
350
83
  3
PUCSORGFRONT
350
86
  3
PUCSORGLEFT
350
84
  3
PUCSORGRIGHT
350
85
  3
PUCSORGTOP
350
82
  3
PUCSORTHOREF
350
7F
  3
PUCSORTHOVIEW
350
80
  3
STYLESHEET
350
76
  3
TSTACKALIGN
350
73
  3
TSTACKSIZE
350
74
  3
UCSBASE
350
8A
  3
UCSORGBACK
350
90
  3
UCSORGBOTTOM
350
8C
  3
UCSORGFRONT
350
8F
  3
UCSORGLEFT
350
8D
  3
UCSORGRIGHT
350
8E
  3
UCSORGTOP
350
8B
  3
UCSORTHOREF
350
88
  3
UCSORTHOVIEW
350
89
  3
VERSIONGUID
350
7D
  0
IMAGEDEF
  5
41
102
{ACAD_REACTORS
330
40
330
44
102
}
330
40
100
AcDbRasterImageDef
 90
        0
  1
/Users/damian/Documents/repos/LaserDesigns/Hangman_1.png
 10
512.0
 20
512.0
 11
0.3527777777777777
 21
0.3527777777777777
280
     1
281
     5
  0
MLINESTYLE
  5
18
102
{ACAD_REACTORS
330
17
102
}
330
17
100
AcDbMlineStyle
  2
Standard
 70
     0
  3

 62
   256
 51
90.0
 52
90.0
 71
     2
 49
0.5
 62
   256
  6
BYLAYER
 49
-0.5
 62
   256
  6
BYLAYER
  0
VISUALSTYLE
  5
2F
102
{ACAD_REACTORS
330
2A
102
}
330
2A
100
AcDbVisualStyle
  2
2dWireframe
 70
     4
 71
     0
 72
     2
 73
     0
 90
        0
 40
-0.6
 41
-30.0
 62
     5
 63
     7
 74
     1
 91
        4
 64
     7
 65
   257
 75
     1
175
     1
 42
1.0
 92
        0
 66
   257
 43
1.0
 76
     1
 77
     6
 78
     2
 67
     7
 79
     5
170
     0
171
     0
290
     0
174
     0
 93
        1
 44
0.0
173
     0
291
     0
 45
0.0
1001
ACAD
1000
AcDbSavedByObjectVersion
1070
     0
  0
VISUALSTYLE
  5
30
102
{ACAD_REACTORS
330
2A
102
}
330
2A
100
AcDbVisualStyle
  2
3dWireframe
 70
     5
 71
     0
 72
     2
 73
     0
 90
        0
 40
-0.6
 41
-30.0
 62
     5
 63
     7
 74
     1
 91
        4
 64
     7
 65
   257
 75
     1
175
     1
 42
1.0
 92
        0
 66
   257
 43
1.0
 76
     1
 77
     6
 78
     2
 67
     7
 79
     5
170
     0
171
     0
290
     0
174
     0
 93
        1
 44
0.0
173
     0
291
     0
 45
0.0
1001
ACAD
1000
AcDbSavedByObjectVersion
1070
     0
  0
VISUALSTYLE
  5
31
102
{ACAD_REACTORS
330
2A
102
}
330
2A
100
AcDbVisualStyle
  2
3D Hidden
 70
     6
 71
     1
 72
     2
 73
     2
 90
        0
 40
-0.6
 41
-30.0
 62
     5
 63
     7
 74
     2
 91
        2
 64
     7
 65
   257
 75
     2
175
     1
 42
40.0
 92
        0
 66
   257
 43
1.0
 76
     1
 77
     6
 78
     2
 67
     7
 79
     3
170
     0
171
     0
290
     0
174
     0
 93
        1
 44
0.0
173
     0
291
     0
 45
0.0
1001
ACAD
1000
AcDbSavedByObjectVersion
1070
     0
  0
VISUALSTYLE
  5
32
102
{ACAD_REACTORS
330
2A
102
}
330
2A
100
AcDbVisualStyle
  2
Basic
 70
     7
 71
     1
 72
     0
 73
     1
 90
        0
 40
-0.6
 41
-30.0
 62
     5
 63
     7
 74
     0
 91
        4
 64
     7
 65
   257
 75
     1
175
     1
 42
1.0
 92
        8
 66
     7
 43
1.0
 76
     1
 77
     6
 78
     2
 67
     7
 79
     5
170
     0
171
     0
290
     0
174
     0
 93
        1
 44
0.0
173
     0
291
     1
 45
0.0
1001
ACAD
1000
AcDbSavedByObjectVersion
1070
     0
  0
VISUALSTYLE
  5
36
102
{ACAD_REACTORS
330
2A
102
}
330
2A
100
AcDbVisualStyle
  2
Brighten
 70
    12
 71
     2
 72
     2
 73
     0
 90
        0
 40
-0.6
 41
-30.0
 62
     5
 63
     7
 74
     1
 91
        4
 64
     7
 65
   257
 75
     1
175
     1
 42
1.0
 92
        8
 66
     7
 43
1.0
 76
     1
 77
     6
 78
     2
 67
     7
 79
     5
170
     0
171
     0
290
     0
174
     0
 93
        1
 44
50.0
173
     0
291
     1
 45
0.0
1001
ACAD
1000
AcDbSavedByObjectVersion
1070
     0
  0
VISUALSTYLE
  5
3A
102
{ACAD_REACTORS
330
2A
102
}
330
2A
100
AcDbVisualStyle
  2
ColorChange
 70
    16
 71
     2
 72
     2
 73
     3
 90
        0
 40
-0.6
 41
-30.0
 62
     5
 63
     8
 74
     1
 91
        4
 64
     7
 65
   257
 75
     1
175
     1
 42
1.0
 92
        8
 66
     8
 43
1.0
 76
     1
 77
     6
 78
     2
 67
     7
 79
     5
170
     0
171
     0
290
     0
174
     0
 93
        1
 44
0.0
173
     0
291
     1
 45
0.0
1001
ACAD
1000
AcDbSavedByObjectVersion
1070
     0
  0
VISUALSTYLE
  5
34
102
{ACAD_REACTORS
330
2A
102
}
330
2A
100
AcDbVisualStyle
  2
Conceptual
 70
     9
 71
     3
 72
     2
 73
     0
 90
        0
 40
-0.6
 41
-30.0
 62
     5
 63
     7
 74
     2
 91
        2
 64
     7
 65
   257
 75
     1
175
     1
 42
40.0
 92
        8
 66
     7
 43
1.0
 76
     1
 77
     6
 78
     2
 67
     7
 79
     3
170
     0
171
     0
290
     0
174
     0
 93
        1
 44
0.0
173
     0
291
     0
 45
0.0
1001
ACAD
1000
AcDbSavedByObjectVersion
1070
     0
  0
VISUALSTYLE
  5
35
102
{ACAD_REACTORS
330
2A
102
}
330
2A
100
AcDbVisualStyle
  2
Dim
 70
    11
 71
     2
 72
     2
 73
     0
 90
        0
 40
-0.6
 41
-30.0
 62
     5
 63
     7
 74
     1
 91
        4
 64
     7
 65
   257
 75
     1
175
     1
 42
1.0
 92
        8
 66
     7
 43
1.0
 76
     1
 77
     6
 78
     2
 67
     7
 79
     5
170
     0
171
     0
290
     0
174
     0
 93
        1
 44
-50.0
173
     0
291
     1
 45
0.0
1001
ACAD
1000
AcDbSavedByObjectVersion
1070
     0
  0
VISUALSTYLE
  5
39
102
{ACAD_REACTORS
330
2A
102
}
330
2A
100
AcDbVisualStyle
  2
Facepattern
 70
    15
 71
     2
 72
     2
 73
     0
 90
        0
 40
-0.6
 41
-30.0
 62
     5
 63
     7
 74
     1
 91
        4
 64
     7
 65
   257
 75
     1
175
     1
 42
1.0
 92
        8
 66
     7
 43
1.0
 76
     1
 77
     6
 78
     2
 67
     7
 79
     5
170
     0
171
     0
290
     0
174
     0
 93
        1
 44
0.0
173
     0
291
     1
 45
0.0
1001
ACAD
1000
AcDbSavedByObjectVersion
1070
     0
  0
VISUALSTYLE
  5
2B
102
{ACAD_REACTORS
330
2A
102
}
330
2A
100
AcDbVisualStyle
  2
Flat
 70
     0
 71
     2
 72
     1
 73
     1
 90
        2
 40
-0.6
 41
30.0
 62
     5
 63
     7
 74
     0
 91
        4
 64
     7
 65
   257
 75
     1
175
     1
 42
1.0
 92
        8
 66
     7
 43
1.0
 76
     1
 77
     6
 78
     2
 67
     7
 79
     5
170
     0
171
     0
290
     0
174
     0
 93
       13
 44
0.0
173
     0
291
     1
 45
0.0
1001
ACAD
1000
AcDbSavedByObjectVersion
1070
     0
  0
VISUALSTYLE
  5
2C
102
{ACAD_REACTORS
330
2A
102
}
330
2A
100
AcDbVisualStyle
  2
FlatWithEdges
 70
     1
 71
     2
 72
     1
 73
     1
 90
        2
 40
-0.6
 41
30.0
 62
     5
 63
     7
 74
     1
 91
        4
 64
     7
 65
   257
 75
     1
175
     1
 42
1.0
 92
        0
 66
   257
 43
1.0
 76
     1
 77
     6
 78
     2
 67
     7
 79
     5
170
     0
171
     0
290
     0
174
     0
 93
       13
 44
0.0
173
     0
291
     1
 45
0.0
1001
ACAD
1000
AcDbSavedByObjectVersion
1070
     0
  0
VISUALSTYLE
  5
2D
102
{ACAD_REACTORS
330
2A
102
}
330
2A
100
AcDbVisualStyle
  2
Gouraud
 70
     2
 71
     2
 72
     2
 73
     1
 90
        2
 40
-0.6
 41
30.0
 62
     5
 63
     7
 74
     0
 91
        4
 64
     7
 65
   257
 75
     1
175
     1
 42
1.0
 92
        0
 66
     7
 43
1.0
 76
     1
 77
     6
 78
     2
 67
     7
 79
     5
170
     0
171
     0
290
     0
174
     0
 93
       13
 44
0.0
173
     0
291
     1
 45
0.0
1001
ACAD
1000
AcDbSavedByObjectVersion
1070
     0
  0
VISUALSTYLE
  5
2E
102
{ACAD_REACTORS
330
2A
102
}
330
2A
100
AcDbVisualStyle
  2
GouraudWithEdges
 70
     3
 71
     2
 72
     2
 73
     1
 90
        2
 40
-0.6
 41
30.0
 62
     5
 63
     7
 74
     1
 91
        4
 64
     7
 65
   257
 75
     1
175
     1
 42
1.0
 92
        0
 66
   257
 43
1.0
 76
     1
 77
     6
 78
     2
 67
     7
 79
     5
170
     0
171
     0
290
     0
174
     0
 93
       13
 44
0.0
173
     0
291
     1
 45
0.0
1001
ACAD
1000
AcDbSavedByObjectVersion
1070
     0
  0
VISUALSTYLE
  5
38
102
{ACAD_REACTORS
330
2A
102
}
330
2A
100
AcDbVisualStyle
  2
Linepattern
 70
    14
 71
     2
 72
     2
 73
     0
 90
        0
 40
-0.6
 41
-30.0
 62
     5
 63
     7
 74
     1
 91
        4
 64
     7
 65
   257
 75
     7
175
     7
 42
1.0
 92
        8
 66
     7
 43
1.0
 76
     1
 77
     6
 78
     2
 67
     7
 79
     5
170
     0
171
     0
290
     0
174
     0
 93
        1
 44
0.0
173
     0
291
     1
 45
0.0
1001
ACAD
1000
AcDbSavedByObjectVersion
1070
     0
  0
VISUALSTYLE
  5
33
102
{ACAD_REACTORS
330
2A
102
}
330
2A
100
AcDbVisualStyle
  2
Realistic
 70
     8
 71
     2
 72
     2
 73
     0
 90
        0
 40
-0.6
 41
-30.0
 62
     5
 63
     7
 74
     1
 91
        0
 64
     7
 65
   257
 75
     1
175
     1
 42
1.0
 92
        8
 66
     8
 43
1.0
 76
     1
 77
     6
 78
     2
 67
     7
 79
     5
170
     0
171
     0
290
     0
174
     0
 93
       13
 44
0.0
173
     0
291
     0
 45
0.0
1001
ACAD
1000
AcDbSavedByObjectVersion
1070
     0
  0
VISUALSTYLE
  5
37
102
{ACAD_REACTORS
330
2A
102
}
330
2A
100
AcDbVisualStyle
  2
Thicken
 70
    13
 71
     2
 72
     2
 73
     0
 90
        0
 40
-0.6
 41
-30.0
 62
     5
 63
     7
 74
     1
 91
        4
 64
     7
 65
   257
 75
     1
175
     1
 42
1.0
 92
       12
 66
     7
 43
1.0
 76
     1
 77
     6
 78
     2
 67
     7
 79
     5
170
     0
171
     0
290
     0
174
     0
 93
        1
 44
0.0
173
     0
291
     1
 45
0.0
1001
ACAD
1000
AcDbSavedByObjectVersion
1070
     0
  0
XRECORD
  5
7B
102
{ACAD_REACTORS
330
72
102
}
330
72
100
AcDbXrecord
 90
        0
  0
XRECORD
  5
91
102
{ACAD_REACTORS
330
72
102
}
330
72
100
AcDbXrecord
1000
DSTYLE
1002
{
1070
   340
340
11
1002
}
  0
XRECORD
  5
7C
102
{ACAD_REACTORS
330
72
102
}
330
72
100
AcDbXrecord
  1
{E106ED8C-A84A-03F8-B5A6-D0E183479B95}
  0
XRECORD
  5
75
102
{ACAD_REACTORS
330
72
102
}
330
72
100
AcDbXrecord
  1

  0
XRECORD
  5
7A
102
{ACAD_REACTORS
330
72
102
}
330
72
100
AcDbXrecord
 90
        1
  0
XRECORD
  5
77
102
{ACAD_REACTORS
330
72
102
}
330
72
100
AcDbXrecord
340
1A
  0
XRECORD
  5
79
102
{ACAD_REACTORS
330
72
102
}
330
72
100
AcDbXrecord
 90
    10269
  0
XRECORD
  5
78
102
{ACAD_REACTORS
330
72
102
}
330
72
100
AcDbXrecord
340
19
  0
XRECORD
  5
7E
102
{ACAD_REACTORS
330
72
102
}
330
72
100
AcDbXrecord
 40
0.0
  0
XRECORD
  5
81
102
{ACAD_REACTORS
330
72
102
}
330
72
100
AcDbXrecord
340
0
  0
XRECORD
  5
87
102
{ACAD_REACTORS
330
72
102
}
330
72
100
AcDbXrecord
 10
0.0
 20
0.0
 30
0.0
  0
XRECORD
  5
83
102
{ACAD_REACTORS
330
72
102
}
330
72
100
AcDbXrecord
 10
0.0
 20
0.0
 30
0.0
  0
XRECORD
  5
86
102
{ACAD_REACTORS
330
72
102
}
330
72
100
AcDbXrecord
 10
0.0
 20
0.0
 30
0.0
  0
XRECORD
  5
84
102
{ACAD_REACTORS
330
72
102
}
330
72
100
AcDbXrecord
 10
0.0
 20
0.0
 30
0.0
  0
XRECORD
  5
85
102
{ACAD_REACTORS
330
72
102
}
330
72
100
AcDbXrecord
 10
0.0
 20
0.0
 30
0.0
  0
XRECORD
  5
82
102
{ACAD_REACTORS
330
72
102
}
330
72
100
AcDbXrecord
 10
0.0
 20
0.0
 30
0.0
  0
XRECORD
  5
7F
102
{ACAD_REACTORS
330
72
102
}
330
72
100
AcDbXrecord
340
0
  0
XRECORD
  5
80
102
{ACAD_REACTORS
330
72
102
}
330
72
100
AcDbXrecord
 70
     0
  0
XRECORD
  5
76
102
{ACAD_REACTORS
330
72
102
}
330
72
100
AcDbXrecord
  1

  0
XRECORD
  5
73
102
{ACAD_REACTORS
330
72
102
}
330
72
100
AcDbXrecord
 90
        1
  0
XRECORD
  5
74
102
{ACAD_REACTORS
330
72
102
}
330
72
100
AcDbXrecord
 90
       70
  0
XRECORD
  5
8A
102
{ACAD_REACTORS
330
72
102
}
330
72
100
AcDbXrecord
340
0
  0
XRECORD
  5
90
102
{ACAD_REACTORS
330
72
102
}
330
72
100
AcDbXrecord
 10
0.0
 20
0.0
 30
0.0
  0
XRECORD
  5
8C
102
{ACAD_REACTORS
330
72
102
}
330
72
100
AcDbXrecord
 10
0.0
 20
0.0
 30
0.0
  0
XRECORD
  5
8F
102
{ACAD_REACTORS
330
72
102
}
330
72
100
AcDbXrecord
 10
0.0
 20
0.0
 30
0.0
  0
XRECORD
  5
8D
102
{ACAD_REACTORS
330
72
102
}
330
72
100
AcDbXrecord
 10
0.0
 20
0.0
 30
0.0
  0
XRECORD
  5
8E
102
{ACAD_REACTORS
330
72
102
}
330
72
100
AcDbXrecord
 10
0.0
 20
0.0
 30
0.0
  0
XRECORD
  5
8B
102
{ACAD_REACTORS
330
72
102
}
330
72
100
AcDbXrecord
 10
0.0
 20
0.0
 30
0.0
  0
XRECORD
  5
88
102
{ACAD_REACTORS
330
72
102
}
330
72
100
AcDbXrecord
340
0
  0
XRECORD
  5
89
102
{ACAD_REACTORS
330
72
102
}
330
72
100
AcDbXrecord
 70
     0
  0
XRECORD
  5
7D
102
{ACAD_REACTORS
330
72
102
}
330
72
100
AcDbXrecord
  1
{FAEB1C32-E019-11D5-929B-00C0DF256EC4}
  0
ENDSEC
  0
EOF
