  0
SECTION
  2
HEADER
  9
$ACADVER
  1
AC1014
  9
$HANDSEED
  5
FFFF
  9
$MEASUREMENT
 70
     1
  0
ENDSEC
  0
SECTION
  2
TABLES
  0
TABLE
  2
VPORT
  5
8
330
0
100
AcDbSymbolTable
 70
     4
  0
VPORT
  5
2E
330
8
100
AcDbSymbolTableRecord
100
AcDbViewportTableRecord
  2
*ACTIVE
 70
     0
 10
0.0
 20
0.0
 11
1.0
 21
1.0
 12
210.0
 22
148.5
 13
0.0
 23
0.0
 14
10.0
 24
10.0
 15
10.0
 25
10.0
 16
0.0
 26
0.0
 36
1.0
 17
0.0
 27
0.0
 37
0.0
 40
341.0
 41
1.24
 42
50.0
 43
0.0
 44
0.0
 50
0.0
 51
0.0
 71
     0
 72
   100
 73
     1
 74
     3
 75
     0
 76
     0
 77
     0
 78
     0
  0
ENDTAB
  0
TABLE
  2
LTYPE
  5
5
330
0
100
AcDbSymbolTable
 70
     1
  0
LTYPE
  5
14
330
5
100
AcDbSymbolTableRecord
100
AcDbLinetypeTableRecord
  2
BYBLOCK
 70
     0
  3

 72
    65
 73
     0
 40
0.0
  0
LTYPE
  5
15
330
5
100
AcDbSymbolTableRecord
100
AcDbLinetypeTableRecord
  2
BYLAYER
 70
     0
  3

 72
    65
 73
     0
 40
0.0
  0
LTYPE
  5
16
330
5
100
AcDbSymbolTableRecord
100
AcDbLinetypeTableRecord
  2
CONTINUOUS
 70
     0
  3
Solid line
 72
    65
 73
     0
 40
0.0
  0
ENDTAB
  0
TABLE
  2
LAYER
  5
2
100
AcDbSymbolTable
 70
5
  0
LAYER
  5
50
100
AcDbSymbolTableRecord
100
AcDbLayerTableRecord
  2
0
 70
0
  6
CONTINUOUS
  0
LAYER
  5
51
100
AcDbSymbolTableRecord
100
AcDbLayerTableRecord
  2
Construction
 70
0
  6
CONTINUOUS
  0
LAYER
  5
52
100
AcDbSymbolTableRecord
100
AcDbLayerTableRecord
  2
Text
 70
0
  6
CONTINUOUS
  0
LAYER
  5
53
100
AcDbSymbolTableRecord
100
AcDbLayerTableRecord
  2
S
 70
0
  6
CONTINUOUS
  0
LAYER
  5
54
100
AcDbSymbolTableRecord
100
AcDbLayerTableRecord
  2
M
 70
0
  6
CONTINUOUS
  0
ENDTAB
  0
TABLE
  2
STYLE
  5
3
330
0
100
AcDbSymbolTable
 70
     1
  0
STYLE
  5
11
330
3
100
AcDbSymbolTableRecord
100
AcDbTextStyleTableRecord
  2
STANDARD
 70
     0
 40
0.0
 41
1.0
 50
0.0
 71
     0
 42
2.5
  3
txt
  4

  0
ENDTAB
  0
TABLE
  2
VIEW
  5
6
330
0
100
AcDbSymbolTable
 70
     0
  0
ENDTAB
  0
TABLE
  2
UCS
  5
7
330
0
100
AcDbSymbolTable
 70
     0
  0
ENDTAB
  0
TABLE
  2
APPID
  5
9
330
0
100
AcDbSymbolTable
 70
     2
  0
APPID
  5
12
330
9
100
AcDbSymbolTableRecord
100
AcDbRegAppTableRecord
  2
ACAD
 70
     0
  0
ENDTAB
  0
TABLE
  2
DIMSTYLE
  5
A
330
0
100
AcDbSymbolTable
 70
     1
  0
DIMSTYLE
105
27
330
A
100
AcDbSymbolTableRecord
100
AcDbDimStyleTableRecord
  2
ISO-25
 70
     0
  3

  4

  5

  6

  7

 40
1.0
 41
2.5
 42
0.625
 43
3.75
 44
1.25
 45
0.0
 46
0.0
 47
0.0
 48
0.0
140
2.5
141
2.5
142
0.0
143
0.03937007874016
144
1.0
145
0.0
146
1.0
147
0.625
 71
     0
 72
     0
 73
     0
 74
     0
 75
     0
 76
     0
 77
     1
 78
     8
170
     0
171
     3
172
     1
173
     0
174
     0
175
     0
176
     0
177
     0
178
     0
270
     2
271
     2
272
     2
273
     2
274
     3
340
11
275
     0
280
     0
281
     0
282
     0
283
     0
284
     8
285
     0
286
     0
287
     3
288
     0
  0
ENDTAB
  0
TABLE
  2
BLOCK_RECORD
  5
1
330
0
100
AcDbSymbolTable
 70
     1
  0
BLOCK_RECORD
  5
1F
330
1
100
AcDbSymbolTableRecord
100
AcDbBlockTableRecord
  2
*MODEL_SPACE
  0
BLOCK_RECORD
  5
1B
330
1
100
AcDbSymbolTableRecord
100
AcDbBlockTableRecord
  2
*PAPER_SPACE
  0
ENDTAB
  0
ENDSEC
  0
SECTION
  2
BLOCKS
  0
BLOCK
  5
20
330
1F
100
AcDbEntity
  8
0
100
AcDbBlockBegin
  2
*MODEL_SPACE
 70
     0
 10
0.0
 20
0.0
 30
0.0
  3
*MODEL_SPACE
  1

  0
ENDBLK
  5
21
330
1F
100
AcDbEntity
  8
0
100
AcDbBlockEnd
  0
BLOCK
  5
1C
330
1B
100
AcDbEntity
 67
     1
  8
0
100
AcDbBlockBegin
  2
*PAPER_SPACE
  1

  0
ENDBLK
  5
1D
330
1B
100
AcDbEntity
 67
     1
  8
0
100
AcDbBlockEnd
  0
ENDSEC
  0
SECTION
  2
ENTITIES
  0
SPLINE
  5
100
100
AcDbEntity
  8
Construction
 62
7
100
AcDbSpline
 70
8
 71
3
 72
8
 73
4
 74
0
 40
0
 40
0
 40
0
 40
0
 40
1
 40
1
 40
1
 40
1
 10
203.589328
 20
58.755412
 30
0.0
 10
339.561379
 20
-11.843533
 30
0.0
 10
505.972165
 20
17.396117
 30
0.0
 10
609.733432
 20
130.118044
 30
0.0
  0
SPLINE
  5
101
100
AcDbEntity
  8
Construction
 62
7
100
AcDbSpline
 70
8
 71
3
 72
8
 73
4
 74
0
 40
0
 40
0
 40
0
 40
0
 40
1
 40
1
 40
1
 40
1
 10
609.733432
 20
130.118044
 30
0.0
 10
713.494701
 20
242.839967
 30
0.0
 10
728.881975
 20
411.098166
 30
0.0
 10
647.287792
 20
540.770965
 30
0.0
  0
SPLINE
  5
102
100
AcDbEntity
  8
Construction
 62
7
100
AcDbSpline
 70
8
 71
3
 72
8
 73
4
 74
0
 40
0
 40
0
 40
0
 40
0
 40
1
 40
1
 40
1
 40
1
 10
146.634710
 20
251.059540
 30
0.0
 10
100.804656
 20
340.820613
 30
0.0
 10
116.053420
 20
449.666683
 30
0.0
 10
184.785128
 20
523.378200
 30
0.0
  0
SPLINE
  5
103
100
AcDbEntity
  8
Construction
 62
7
100
AcDbSpline
 70
8
 71
3
 72
8
 73
4
 74
0
 40
0
 40
0
 40
0
 40
0
 40
1
 40
1
 40
1
 40
1
 10
184.785128
 20
523.378200
 30
0.0
 10
253.516836
 20
597.089717
 30
0.0
 10
361.032136
 20
619.902321
 30
0.0
 10
453.774376
 20
580.452357
 30
0.0
  0
SPLINE
  5
104
100
AcDbEntity
  8
Text
 62
7
100
AcDbSpline
 70
8
 71
3
 72
8
 73
4
 74
0
 40
0
 40
0
 40
0
 40
0
 40
1
 40
1
 40
1
 40
1
 10
5.379083
 20
32.345764
 30
0.0
 10
5.752213
 20
31.244597
 30
0.0
 10
6.302466
 20
30.817249
 30
0.0
 10
7.029842
 20
31.063721
 30
0.0
  0
SPLINE
  5
105
100
AcDbEntity
  8
Text
 62
7
100
AcDbSpline
 70
8
 71
3
 72
8
 73
4
 74
0
 40
0
 40
0
 40
0
 40
0
 40
1
 40
1
 40
1
 40
1
 10
7.029842
 20
31.063721
 30
0.0
 10
7.353121
 20
31.173263
 30
0.0
 10
7.554417
 20
31.393515
 30
0.0
 10
7.633732
 20
31.724476
 30
0.0
  0
SPLINE
  5
106
100
AcDbEntity
  8
Text
 62
7
100
AcDbSpline
 70
8
 71
3
 72
8
 73
4
 74
0
 40
0
 40
0
 40
0
 40
0
 40
1
 40
1
 40
1
 40
1
 10
7.633732
 20
31.724476
 30
0.0
 10
7.713047
 20
32.055436
 30
0.0
 10
7.744894
 20
32.775759
 30
0.0
 10
7.729275
 20
33.885444
 30
0.0
  0
SPLINE
  5
107
100
AcDbEntity
  8
Text
 62
7
100
AcDbSpline
 70
8
 71
3
 72
8
 73
4
 74
0
 40
0
 40
0
 40
0
 40
0
 40
1
 40
1
 40
1
 40
1
 10
7.729275
 20
33.885444
 30
0.0
 10
7.710232
 20
35.005231
 30
0.0
 10
7.839346
 20
35.837349
 30
0.0
 10
8.116618
 20
36.381799
 30
0.0
  0
SPLINE
  5
108
100
AcDbEntity
  8
Text
 62
7
100
AcDbSpline
 70
8
 71
3
 72
8
 73
4
 74
0
 40
0
 40
0
 40
0
 40
0
 40
1
 40
1
 40
1
 40
1
 10
8.116618
 20
36.381799
 30
0.0
 10
8.383787
 20
36.922825
 30
0.0
 10
8.941675
 20
37.337113
 30
0.0
 10
9.790280
 20
37.624663
 30
0.0
  0
SPLINE
  5
109
100
AcDbEntity
  8
Text
 62
7
100
AcDbSpline
 70
8
 71
3
 72
8
 73
4
 74
0
 40
0
 40
0
 40
0
 40
0
 40
1
 40
1
 40
1
 40
1
 10
9.790280
 20
37.624663
 30
0.0
 10
10.871242
 20
37.990947
 30
0.0
 10
11.800794
 20
37.939898
 30
0.0
 10
12.578937
 20
37.471516
 30
0.0
  0
SPLINE
  5
10a
100
AcDbEntity
  8
Text
 62
7
100
AcDbSpline
 70
8
 71
3
 72
8
 73
4
 74
0
 40
0
 40
0
 40
0
 40
0
 40
1
 40
1
 40
1
 40
1
 10
12.578937
 20
37.471516
 30
0.0
 10
13.357081
 20
37.003133
 30
0.0
 10
13.925871
 20
36.238563
 30
0.0
 10
14.285308
 20
35.177807
 30
0.0
  0
SPLINE
  5
10b
100
AcDbEntity
  8
Text
 62
7
100
AcDbSpline
 70
8
 71
3
 72
8
 73
4
 74
0
 40
0
 40
0
 40
0
 40
0
 40
1
 40
1
 40
1
 40
1
 10
14.285308
 20
35.177807
 30
0.0
 10
14.552319
 20
34.389816
 30
0.0
 10
14.758006
 20
33.383954
 30
0.0
 10
14.902370
 20
32.160221
 30
0.0
  0
LWPOLYLINE
  5
10c
100
AcDbEntity
  8
Construction
 62
7
100
AcDbPolyline
 90
3
 70
1
 10
453.774376
 20
580.452357
 30
0.0
 10
360.000272
 20
359.999724
 30
0.0
 10
146.634710
 20
251.059540
 30
0.0
  0
SPLINE
  5
10d
100
AcDbEntity
  8
Text
 62
7
100
AcDbSpline
 70
8
 71
3
 72
8
 73
4
 74
0
 40
0
 40
0
 40
0
 40
0
 40
1
 40
1
 40
1
 40
1
 10
13.287818
 20
31.241471
 30
0.0
 10
13.010952
 20
32.656816
 30
0.0
 10
12.750995
 20
33.723126
 30
0.0
 10
12.507947
 20
34.440400
 30
0.0
  0
SPLINE
  5
10e
100
AcDbEntity
  8
Text
 62
7
100
AcDbSpline
 70
8
 71
3
 72
8
 73
4
 74
0
 40
0
 40
0
 40
0
 40
0
 40
1
 40
1
 40
1
 40
1
 10
12.507947
 20
34.440400
 30
0.0
 10
12.145086
 20
35.511258
 30
0.0
 10
11.519148
 20
35.896066
 30
0.0
 10
10.630133
 20
35.594824
 30
0.0
  0
SPLINE
  5
10f
100
AcDbEntity
  8
Text
 62
7
100
AcDbSpline
 70
8
 71
3
 72
8
 73
4
 74
0
 40
0
 40
0
 40
0
 40
0
 40
1
 40
1
 40
1
 40
1
 10
10.630133
 20
35.594824
 30
0.0
 10
10.306855
 20
35.485281
 30
0.0
 10
10.097084
 20
35.273420
 30
0.0
 10
10.000820
 20
34.959242
 30
0.0
  0
SPLINE
  5
110
100
AcDbEntity
  8
Text
 62
7
100
AcDbSpline
 70
8
 71
3
 72
8
 73
4
 74
0
 40
0
 40
0
 40
0
 40
0
 40
1
 40
1
 40
1
 40
1
 10
10.000820
 20
34.959242
 30
0.0
 10
9.901133
 20
34.655165
 30
0.0
 10
9.870161
 20
34.098444
 30
0.0
 10
9.907905
 20
33.289078
 30
0.0
  0
SPLINE
  5
111
100
AcDbEntity
  8
Text
 62
7
100
AcDbSpline
 70
8
 71
3
 72
8
 73
4
 74
0
 40
0
 40
0
 40
0
 40
0
 40
1
 40
1
 40
1
 40
1
 10
9.907905
 20
33.289078
 30
0.0
 10
9.971616
 20
32.004228
 30
0.0
 10
9.858324
 20
31.042323
 30
0.0
 10
9.568029
 20
30.403361
 30
0.0
  0
SPLINE
  5
112
100
AcDbEntity
  8
Text
 62
7
100
AcDbSpline
 70
8
 71
3
 72
8
 73
4
 74
0
 40
0
 40
0
 40
0
 40
0
 40
1
 40
1
 40
1
 40
1
 10
9.568029
 20
30.403361
 30
0.0
 10
9.264207
 20
29.771078
 30
0.0
 10
8.703147
 20
29.316297
 30
0.0
 10
7.884849
 20
29.039017
 30
0.0
  0
SPLINE
  5
113
100
AcDbEntity
  8
Text
 62
7
100
AcDbSpline
 70
8
 71
3
 72
8
 73
4
 74
0
 40
0
 40
0
 40
0
 40
0
 40
1
 40
1
 40
1
 40
1
 10
7.884849
 20
29.039017
 30
0.0
 10
6.854400
 20
28.689849
 30
0.0
 10
5.980494
 20
28.742860
 30
0.0
 10
5.263133
 20
29.198052
 30
0.0
  0
SPLINE
  5
114
100
AcDbEntity
  8
Text
 62
7
100
AcDbSpline
 70
8
 71
3
 72
8
 73
4
 74
0
 40
0
 40
0
 40
0
 40
0
 40
1
 40
1
 40
1
 40
1
 10
5.263133
 20
29.198052
 30
0.0
 10
4.545772
 20
29.653242
 30
0.0
 10
4.002237
 20
30.426370
 30
0.0
 10
3.632531
 20
31.517434
 30
0.0
  0
SPLINE
  5
115
100
AcDbEntity
  8
Text
 62
7
100
AcDbSpline
 70
8
 71
3
 72
8
 73
4
 74
0
 40
0
 40
0
 40
0
 40
0
 40
1
 40
1
 40
1
 40
1
 10
3.632531
 20
31.517434
 30
0.0
 10
3.379213
 20
32.265015
 30
0.0
 10
3.158455
 20
33.248877
 30
0.0
 10
2.970258
 20
34.469020
 30
0.0
  0
LWPOLYLINE
  5
116
100
AcDbEntity
  8
Text
 62
7
100
AcDbPolyline
 90
3
 70
1
 10
14.902370
 20
32.160221
 30
0.0
 10
14.981148
 20
31.578745
 30
0.0
 10
13.287818
 20
31.241471
 30
0.0
  0
SPLINE
  5
117
100
AcDbEntity
  8
Text
 62
7
100
AcDbSpline
 70
8
 71
3
 72
8
 73
4
 74
0
 40
0
 40
0
 40
0
 40
0
 40
1
 40
1
 40
1
 40
1
 10
4.599713
 20
35.443501
 30
0.0
 10
4.920747
 20
33.964284
 30
0.0
 10
5.180537
 20
32.931705
 30
0.0
 10
5.379083
 20
32.345764
 30
0.0
  0
LWPOLYLINE
  5
118
100
AcDbEntity
  8
Text
 62
7
100
AcDbPolyline
 90
3
 70
1
 10
2.970258
 20
34.469020
 30
0.0
 10
2.891480
 20
35.050496
 30
0.0
 10
4.599713
 20
35.443501
 30
0.0
  0
LWPOLYLINE
  5
119
100
AcDbEntity
  8
Text
 62
7
100
AcDbPolyline
 90
2
 70
1
 10
5.379083
 20
32.345764
 30
0.0
 10
5.379083
 20
32.345764
 30
0.0
  0
LWPOLYLINE
  5
11a
100
AcDbEntity
  8
Text
 62
7
100
AcDbPolyline
 90
17
 70
1
 10
1.076165
 20
41.845363
 30
0.0
 10
1.255765
 20
44.158401
 30
0.0
 10
10.324825
 20
44.802262
 30
0.0
 10
10.343404
 20
45.041542
 30
0.0
 10
1.529501
 20
47.683790
 30
0.0
 10
1.727680
 20
50.236107
 30
0.0
 10
10.843807
 20
51.486144
 30
0.0
 10
10.862387
 20
51.725424
 30
0.0
 10
2.001415
 20
53.761496
 30
0.0
 10
2.181016
 20
56.074533
 30
0.0
 10
12.867344
 20
53.158513
 30
0.0
 10
12.608473
 20
49.824548
 30
0.0
 10
4.228764
 20
48.758053
 30
0.0
 10
12.343408
 20
46.410823
 30
0.0
 10
12.084536
 20
43.076859
 30
0.0
 10
1.076165
 20
41.845363
 30
0.0
 10
1.076165
 20
41.845363
 30
0.0
  0
LWPOLYLINE
  5
11b
100
AcDbEntity
  8
Text
 62
7
100
AcDbPolyline
 90
6
 70
1
 10
14.667788
 20
57.652664
 30
0.0
 10
4.697426
 20
62.007695
 30
0.0
 10
5.581242
 20
64.031091
 30
0.0
 10
15.551603
 20
59.676060
 30
0.0
 10
14.667788
 20
57.652664
 30
0.0
 10
14.667788
 20
57.652664
 30
0.0
  0
LWPOLYLINE
  5
11c
100
AcDbEntity
  8
Text
 62
7
100
AcDbPolyline
 90
14
 70
1
 10
16.951212
 20
62.813795
 30
0.0
 10
8.515106
 20
69.684495
 30
0.0
 10
10.869332
 20
72.575101
 30
0.0
 10
19.473764
 20
68.951468
 30
0.0
 10
19.574804
 20
69.075529
 30
0.0
 10
12.627422
 20
74.733752
 30
0.0
 10
14.021770
 20
76.445785
 30
0.0
 10
22.457876
 20
69.575085
 30
0.0
 10
20.164275
 20
66.758915
 30
0.0
 10
11.499219
 20
70.308112
 30
0.0
 10
11.398179
 20
70.184051
 30
0.0
 10
18.345560
 20
64.525828
 30
0.0
 10
16.951212
 20
62.813795
 30
0.0
 10
16.951212
 20
62.813795
 30
0.0
  0
SPLINE
  5
11d
100
AcDbEntity
  8
Text
 62
7
100
AcDbSpline
 70
8
 71
3
 72
8
 73
4
 74
0
 40
0
 40
0
 40
0
 40
0
 40
1
 40
1
 40
1
 40
1
 10
23.105353
 20
83.190367
 30
0.0
 10
23.919249
 20
83.657987
 30
0.0
 10
24.640270
 20
83.955378
 30
0.0
 10
25.268416
 20
84.082541
 30
0.0
  0
SPLINE
  5
11e
100
AcDbEntity
  8
Text
 62
7
100
AcDbSpline
 70
8
 71
3
 72
8
 73
4
 74
0
 40
0
 40
0
 40
0
 40
0
 40
1
 40
1
 40
1
 40
1
 10
25.268416
 20
84.082541
 30
0.0
 10
25.891248
 20
84.218953
 30
0.0
 10
26.460269
 20
84.170674
 30
0.0
 10
26.975478
 20
83.937705
 30
0.0
  0
SPLINE
  5
11f
100
AcDbEntity
  8
Text
 62
7
100
AcDbSpline
 70
8
 71
3
 72
8
 73
4
 74
0
 40
0
 40
0
 40
0
 40
0
 40
1
 40
1
 40
1
 40
1
 10
26.975478
 20
83.937705
 30
0.0
 10
27.494623
 20
83.719298
 30
0.0
 10
27.963790
 20
83.373762
 30
0.0
 10
28.382980
 20
82.901097
 30
0.0
  0
SPLINE
  5
120
100
AcDbEntity
  8
Text
 62
7
100
AcDbSpline
 70
8
 71
3
 72
8
 73
4
 74
0
 40
0
 40
0
 40
0
 40
0
 40
1
 40
1
 40
1
 40
1
 10
28.382980
 20
82.901097
 30
0.0
 10
28.796856
 20
82.437681
 30
0.0
 10
29.248232
 20
81.780527
 30
0.0
 10
29.737107
 20
80.929636
 30
0.0
  0
SPLINE
  5
121
100
AcDbEntity
  8
Text
 62
7
100
AcDbSpline
 70
8
 71
3
 72
8
 73
4
 74
0
 40
0
 40
0
 40
0
 40
0
 40
1
 40
1
 40
1
 40
1
 10
29.737107
 20
80.929636
 30
0.0
 10
30.225983
 20
80.078745
 30
0.0
 10
30.581625
 20
79.341984
 30
0.0
 10
30.804034
 20
78.719354
 30
0.0
  0
SPLINE
  5
122
100
AcDbEntity
  8
Text
 62
7
100
AcDbSpline
 70
8
 71
3
 72
8
 73
4
 74
0
 40
0
 40
0
 40
0
 40
0
 40
1
 40
1
 40
1
 40
1
 10
30.804034
 20
78.719354
 30
0.0
 10
31.021129
 20
78.105972
 30
0.0
 10
31.113852
 20
77.494945
 30
0.0
 10
31.082204
 20
76.886272
 30
0.0
  0
SPLINE
  5
123
100
AcDbEntity
  8
Text
 62
7
100
AcDbSpline
 70
8
 71
3
 72
8
 73
4
 74
0
 40
0
 40
0
 40
0
 40
0
 40
1
 40
1
 40
1
 40
1
 10
31.082204
 20
76.886272
 30
0.0
 10
31.054491
 20
76.292162
 30
0.0
 10
30.830872
 20
75.739267
 30
0.0
 10
30.411346
 20
75.227589
 30
0.0
  0
SPLINE
  5
124
100
AcDbEntity
  8
Text
 62
7
100
AcDbSpline
 70
8
 71
3
 72
8
 73
4
 74
0
 40
0
 40
0
 40
0
 40
0
 40
1
 40
1
 40
1
 40
1
 10
30.411346
 20
75.227589
 30
0.0
 10
29.986505
 20
74.725160
 30
0.0
 10
29.357888
 20
74.234821
 30
0.0
 10
28.525495
 20
73.756573
 30
0.0
  0
LWPOLYLINE
  5
125
100
AcDbEntity
  8
Text
 62
7
100
AcDbPolyline
 90
4
 70
1
 10
28.525495
 20
73.756573
 30
0.0
 10
25.348526
 20
71.931261
 30
0.0
 10
19.928384
 20
81.365054
 30
0.0
 10
23.105353
 20
83.190367
 30
0.0
  0
SPLINE
  5
126
100
AcDbEntity
  8
Text
 62
7
100
AcDbSpline
 70
8
 71
3
 72
8
 73
4
 74
0
 40
0
 40
0
 40
0
 40
0
 40
1
 40
1
 40
1
 40
1
 10
28.384997
 20
78.658110
 30
0.0
 10
28.233451
 20
78.964700
 30
0.0
 10
28.008890
 20
79.376962
 30
0.0
 10
27.711314
 20
79.894895
 30
0.0
  0
SPLINE
  5
127
100
AcDbEntity
  8
Text
 62
7
100
AcDbSpline
 70
8
 71
3
 72
8
 73
4
 74
0
 40
0
 40
0
 40
0
 40
0
 40
1
 40
1
 40
1
 40
1
 10
27.711314
 20
79.894895
 30
0.0
 10
27.408423
 20
80.422078
 30
0.0
 10
27.148145
 20
80.832271
 30
0.0
 10
26.930478
 20
81.125476
 30
0.0
  0
SPLINE
  5
128
100
AcDbEntity
  8
Text
 62
7
100
AcDbSpline
 70
8
 71
3
 72
8
 73
4
 74
0
 40
0
 40
0
 40
0
 40
0
 40
1
 40
1
 40
1
 40
1
 10
26.930478
 20
81.125476
 30
0.0
 10
26.712811
 20
81.418680
 30
0.0
 10
26.460218
 20
81.654912
 30
0.0
 10
26.172697
 20
81.834171
 30
0.0
  0
SPLINE
  5
129
100
AcDbEntity
  8
Text
 62
7
100
AcDbSpline
 70
8
 71
3
 72
8
 73
4
 74
0
 40
0
 40
0
 40
0
 40
0
 40
1
 40
1
 40
1
 40
1
 10
26.172697
 20
81.834171
 30
0.0
 10
25.885177
 20
82.013430
 30
0.0
 10
25.576115
 20
82.069595
 30
0.0
 10
25.245512
 20
82.002667
 30
0.0
  0
SPLINE
  5
12a
100
AcDbEntity
  8
Text
 62
7
100
AcDbSpline
 70
8
 71
3
 72
8
 73
4
 74
0
 40
0
 40
0
 40
0
 40
0
 40
1
 40
1
 40
1
 40
1
 10
25.245512
 20
82.002667
 30
0.0
 10
24.918844
 20
81.950302
 30
0.0
 10
24.524289
 20
81.791273
 30
0.0
 10
24.061848
 20
81.525580
 30
0.0
  0
LWPOLYLINE
  5
12b
100
AcDbEntity
  8
Text
 62
7
100
AcDbPolyline
 90
2
 70
1
 10
28.525495
 20
73.756573
 30
0.0
 10
28.525495
 20
73.756573
 30
0.0
  0
SPLINE
  5
12c
100
AcDbEntity
  8
Text
 62
7
100
AcDbSpline
 70
8
 71
3
 72
8
 73
4
 74
0
 40
0
 40
0
 40
0
 40
0
 40
1
 40
1
 40
1
 40
1
 10
27.568999
 20
75.421361
 30
0.0
 10
28.262660
 20
75.819900
 30
0.0
 10
28.665758
 20
76.285234
 30
0.0
 10
28.778291
 20
76.817360
 30
0.0
  0
SPLINE
  5
12d
100
AcDbEntity
  8
Text
 62
7
100
AcDbSpline
 70
8
 71
3
 72
8
 73
4
 74
0
 40
0
 40
0
 40
0
 40
0
 40
1
 40
1
 40
1
 40
1
 10
28.778291
 20
76.817360
 30
0.0
 10
28.881776
 20
77.258175
 30
0.0
 10
28.750678
 20
77.871759
 30
0.0
 10
28.384997
 20
78.658110
 30
0.0
  0
LWPOLYLINE
  5
12e
100
AcDbEntity
  8
Text
 62
7
100
AcDbPolyline
 90
4
 70
1
 10
24.061848
 20
81.525580
 30
0.0
 10
22.799385
 20
80.800237
 30
0.0
 10
26.306536
 20
74.696018
 30
0.0
 10
27.568999
 20
75.421361
 30
0.0
  0
SPLINE
  5
12f
100
AcDbEntity
  8
Text
 62
7
100
AcDbSpline
 70
8
 71
3
 72
8
 73
4
 74
0
 40
0
 40
0
 40
0
 40
0
 40
1
 40
1
 40
1
 40
1
 10
37.419374
 20
80.000993
 30
0.0
 10
37.826973
 20
79.507112
 30
0.0
 10
38.456784
 20
79.331852
 30
0.0
 10
39.308807
 20
79.475214
 30
0.0
  0
SPLINE
  5
130
100
AcDbEntity
  8
Text
 62
7
100
AcDbSpline
 70
8
 71
3
 72
8
 73
4
 74
0
 40
0
 40
0
 40
0
 40
0
 40
1
 40
1
 40
1
 40
1
 10
39.308807
 20
79.475214
 30
0.0
 10
40.160830
 20
79.618575
 30
0.0
 10
40.693347
 20
79.989408
 30
0.0
 10
40.906358
 20
80.587713
 30
0.0
  0
SPLINE
  5
131
100
AcDbEntity
  8
Text
 62
7
100
AcDbSpline
 70
8
 71
3
 72
8
 73
4
 74
0
 40
0
 40
0
 40
0
 40
0
 40
1
 40
1
 40
1
 40
1
 10
40.906358
 20
80.587713
 30
0.0
 10
41.128118
 20
81.198306
 30
0.0
 10
41.130148
 20
82.150510
 30
0.0
 10
40.912448
 20
83.444323
 30
0.0
  0
SPLINE
  5
132
100
AcDbEntity
  8
Text
 62
7
100
AcDbSpline
 70
8
 71
3
 72
8
 73
4
 74
0
 40
0
 40
0
 40
0
 40
0
 40
1
 40
1
 40
1
 40
1
 10
40.912448
 20
83.444323
 30
0.0
 10
40.692981
 20
84.748655
 30
0.0
 10
40.375909
 20
85.668799
 30
0.0
 10
39.961230
 20
86.204755
 30
0.0
  0
SPLINE
  5
133
100
AcDbEntity
  8
Text
 62
7
100
AcDbSpline
 70
8
 71
3
 72
8
 73
4
 74
0
 40
0
 40
0
 40
0
 40
0
 40
1
 40
1
 40
1
 40
1
 10
39.961230
 20
86.204755
 30
0.0
 10
39.546552
 20
86.740711
 30
0.0
 10
38.918461
 20
86.937893
 30
0.0
 10
38.076956
 20
86.796302
 30
0.0
  0
SPLINE
  5
134
100
AcDbEntity
  8
Text
 62
7
100
AcDbSpline
 70
8
 71
3
 72
8
 73
4
 74
0
 40
0
 40
0
 40
0
 40
0
 40
1
 40
1
 40
1
 40
1
 10
38.076956
 20
86.796302
 30
0.0
 10
37.235452
 20
86.654710
 30
0.0
 10
36.706475
 20
86.262839
 30
0.0
 10
36.490025
 20
85.620690
 30
0.0
  0
SPLINE
  5
135
100
AcDbEntity
  8
Text
 62
7
100
AcDbSpline
 70
8
 71
3
 72
8
 73
4
 74
0
 40
0
 40
0
 40
0
 40
0
 40
1
 40
1
 40
1
 40
1
 10
36.490025
 20
85.620690
 30
0.0
 10
36.273575
 20
84.978540
 30
0.0
 10
36.275082
 20
84.005299
 30
0.0
 10
36.494545
 20
82.700967
 30
0.0
  0
SPLINE
  5
136
100
AcDbEntity
  8
Text
 62
7
100
AcDbSpline
 70
8
 71
3
 72
8
 73
4
 74
0
 40
0
 40
0
 40
0
 40
0
 40
1
 40
1
 40
1
 40
1
 10
36.494545
 20
82.700967
 30
0.0
 10
36.712242
 20
81.407154
 30
0.0
 10
37.020516
 20
80.507163
 30
0.0
 10
37.419365
 20
80.000993
 30
0.0
  0
LWPOLYLINE
  5
137
100
AcDbEntity
  8
Text
 62
7
100
AcDbPolyline
 90
2
 70
1
 10
28.384997
 20
78.658110
 30
0.0
 10
28.384997
 20
78.658110
 30
0.0
  0
SPLINE
  5
138
100
AcDbEntity
  8
Text
 62
7
100
AcDbSpline
 70
8
 71
3
 72
8
 73
4
 74
0
 40
0
 40
0
 40
0
 40
0
 40
1
 40
1
 40
1
 40
1
 10
42.844031
 20
79.485954
 30
0.0
 10
42.330017
 20
78.490871
 30
0.0
 10
41.257803
 20
77.856162
 30
0.0
 10
39.627388
 20
77.581829
 30
0.0
  0
SPLINE
  5
139
100
AcDbEntity
  8
Text
 62
7
100
AcDbSpline
 70
8
 71
3
 72
8
 73
4
 74
0
 40
0
 40
0
 40
0
 40
0
 40
1
 40
1
 40
1
 40
1
 10
39.627388
 20
77.581829
 30
0.0
 10
37.996973
 20
77.307495
 30
0.0
 10
36.770829
 20
77.555481
 30
0.0
 10
35.948954
 20
78.325788
 30
0.0
  0
SPLINE
  5
13a
100
AcDbEntity
  8
Text
 62
7
100
AcDbSpline
 70
8
 71
3
 72
8
 73
4
 74
0
 40
0
 40
0
 40
0
 40
0
 40
1
 40
1
 40
1
 40
1
 10
35.948954
 20
78.325788
 30
0.0
 10
35.135828
 20
79.108383
 30
0.0
 10
34.569975
 20
80.446373
 30
0.0
 10
34.251394
 20
82.339757
 30
0.0
  0
SPLINE
  5
13b
100
AcDbEntity
  8
Text
 62
7
100
AcDbSpline
 70
8
 71
3
 72
8
 73
4
 74
0
 40
0
 40
0
 40
0
 40
0
 40
1
 40
1
 40
1
 40
1
 10
34.251394
 20
82.339757
 30
0.0
 10
33.932813
 20
84.233142
 30
0.0
 10
34.027874
 20
85.693154
 30
0.0
 10
34.536578
 20
86.719794
 30
0.0
  0
SPLINE
  5
13c
100
AcDbEntity
  8
Text
 62
7
100
AcDbSpline
 70
8
 71
3
 72
8
 73
4
 74
0
 40
0
 40
0
 40
0
 40
0
 40
1
 40
1
 40
1
 40
1
 10
34.536578
 20
86.719794
 30
0.0
 10
35.054031
 20
87.758722
 30
0.0
 10
36.127964
 20
88.415353
 30
0.0
 10
37.758379
 20
88.689687
 30
0.0
  0
SPLINE
  5
13d
100
AcDbEntity
  8
Text
 62
7
100
AcDbSpline
 70
8
 71
3
 72
8
 73
4
 74
0
 40
0
 40
0
 40
0
 40
0
 40
1
 40
1
 40
1
 40
1
 10
37.758379
 20
88.689687
 30
0.0
 10
39.388794
 20
88.964020
 30
0.0
 10
40.613219
 20
88.694111
 30
0.0
 10
41.431654
 20
87.879960
 30
0.0
  0
SPLINE
  5
13e
100
AcDbEntity
  8
Text
 62
7
100
AcDbSpline
 70
8
 71
3
 72
8
 73
4
 74
0
 40
0
 40
0
 40
0
 40
0
 40
1
 40
1
 40
1
 40
1
 10
41.431654
 20
87.879960
 30
0.0
 10
42.258839
 20
87.078097
 30
0.0
 10
42.831722
 20
85.730473
 30
0.0
 10
43.150303
 20
83.837089
 30
0.0
  0
SPLINE
  5
13f
100
AcDbEntity
  8
Text
 62
7
100
AcDbSpline
 70
8
 71
3
 72
8
 73
4
 74
0
 40
0
 40
0
 40
0
 40
0
 40
1
 40
1
 40
1
 40
1
 10
43.150303
 20
83.837089
 30
0.0
 10
43.468884
 20
81.943704
 30
0.0
 10
43.366793
 20
80.493325
 30
0.0
 10
42.844031
 20
79.485954
 30
0.0
  0
LWPOLYLINE
  5
140
100
AcDbEntity
  8
Text
 62
7
100
AcDbPolyline
 90
2
 70
1
 10
37.419365
 20
80.000993
 30
0.0
 10
37.419374
 20
80.000993
 30
0.0
  0
LWPOLYLINE
  5
141
100
AcDbEntity
  8
Text
 62
7
100
AcDbPolyline
 90
2
 70
1
 10
42.844031
 20
79.485954
 30
0.0
 10
42.844031
 20
79.485954
 30
0.0
  0
LWPOLYLINE
  5
142
100
AcDbEntity
  8
Text
 62
7
100
AcDbPolyline
 90
14
 70
1
 10
47.313384
 20
78.435439
 30
0.0
 10
49.506736
 20
89.092062
 30
0.0
 10
53.158197
 20
88.340516
 30
0.0
 10
53.922034
 20
79.035489
 30
0.0
 10
54.078749
 20
79.003234
 30
0.0
 10
55.885038
 20
87.779276
 30
0.0
 10
58.047706
 20
87.334155
 30
0.0
 10
55.854354
 20
76.677532
 30
0.0
 10
52.296923
 20
77.409724
 30
0.0
 10
51.439057
 20
86.734105
 30
0.0
 10
51.282342
 20
86.766360
 30
0.0
 10
49.476052
 20
77.990317
 30
0.0
 10
47.313384
 20
78.435439
 30
0.0
 10
47.313384
 20
78.435439
 30
0.0
  0
LWPOLYLINE
  5
143
100
AcDbEntity
  8
Text
 62
7
100
AcDbPolyline
 90
17
 70
1
 10
25.966065
 20
5.779106
 30
0.0
 10
29.362794
 20
16.115286
 30
0.0
 10
32.934856
 20
14.941417
 30
0.0
 10
32.281274
 20
6.802662
 30
0.0
 10
36.582920
 20
13.742571
 30
0.0
 10
40.154982
 20
12.568702
 30
0.0
 10
36.758253
 20
2.232521
 30
0.0
 10
34.660617
 20
2.921857
 30
0.0
 10
37.288086
 20
10.917197
 30
0.0
 10
37.060082
 20
10.992125
 30
0.0
 10
32.560833
 20
4.117153
 30
0.0
 10
30.463196
 20
4.806489
 30
0.0
 10
30.919175
 20
13.010181
 30
0.0
 10
30.691171
 20
13.085109
 30
0.0
 10
28.063701
 20
5.089769
 30
0.0
 10
25.966065
 20
5.779106
 30
0.0
 10
25.966065
 20
5.779106
 30
0.0
  0
LWPOLYLINE
  5
144
100
AcDbEntity
  8
Text
 62
7
100
AcDbPolyline
 90
10
 70
1
 10
40.102793
 20
1.862405
 30
0.0
 10
42.638777
 20
12.722234
 30
0.0
 10
46.830640
 20
12.688303
 30
0.0
 10
49.190495
 20
1.788845
 30
0.0
 10
46.982568
 20
1.806717
 30
0.0
 10
46.566511
 20
3.778149
 30
0.0
 10
42.758636
 20
3.808972
 30
0.0
 10
42.310721
 20
1.844533
 30
0.0
 10
40.102793
 20
1.862405
 30
0.0
 10
40.102793
 20
1.862405
 30
0.0
  0
LWPOLYLINE
  5
145
100
AcDbEntity
  8
Text
 62
7
100
AcDbPolyline
 90
6
 70
1
 10
44.335957
 20
10.884437
 30
0.0
 10
43.190163
 20
5.725542
 30
0.0
 10
46.166065
 20
5.701454
 30
0.0
 10
45.103932
 20
10.878220
 30
0.0
 10
44.335957
 20
10.884440
 30
0.0
 10
44.335957
 20
10.884437
 30
0.0
  0
LWPOLYLINE
  5
146
100
AcDbEntity
  8
Text
 62
7
100
AcDbPolyline
 90
15
 70
1
 10
54.552954
 20
2.857030
 30
0.0
 10
52.413882
 20
2.309641
 30
0.0
 10
49.716604
 20
12.849997
 30
0.0
 10
51.855676
 20
13.397385
 30
0.0
 10
53.041685
 20
8.762729
 30
0.0
 10
54.428067
 20
9.282660
 30
0.0
 10
55.017782
 20
14.206569
 30
0.0
 10
57.451364
 20
14.829323
 30
0.0
 10
56.509893
 20
8.956590
 30
0.0
 10
60.210645
 20
4.304834
 30
0.0
 10
57.746062
 20
3.674147
 30
0.0
 10
54.904057
 20
7.422598
 30
0.0
 10
53.517675
 20
6.902667
 30
0.0
 10
54.552954
 20
2.857030
 30
0.0
 10
54.552954
 20
2.857030
 30
0.0
  0
LWPOLYLINE
  5
147
100
AcDbEntity
  8
Text
 62
7
100
AcDbPolyline
 90
14
 70
1
 10
63.178651
 20
5.638653
 30
0.0
 10
57.954279
 20
15.182254
 30
0.0
 10
64.129550
 20
18.562730
 30
0.0
 10
65.051498
 20
16.878565
 30
0.0
 10
60.813016
 20
14.558330
 30
0.0
 10
62.034598
 20
12.326811
 30
0.0
 10
65.430997
 20
14.186073
 30
0.0
 10
66.337579
 20
12.529977
 30
0.0
 10
62.941180
 20
10.670715
 30
0.0
 10
64.193493
 20
8.383058
 30
0.0
 10
68.431974
 20
10.703294
 30
0.0
 10
69.353923
 20
9.019129
 30
0.0
 10
63.178651
 20
5.638653
 30
0.0
 10
63.178651
 20
5.638653
 30
0.0
  0
SPLINE
  5
148
100
AcDbEntity
  8
Text
 62
7
100
AcDbSpline
 70
8
 71
3
 72
8
 73
4
 74
0
 40
0
 40
0
 40
0
 40
0
 40
1
 40
1
 40
1
 40
1
 10
67.901147
 20
21.974998
 30
0.0
 10
69.763194
 20
23.731808
 30
0.0
 10
71.514062
 20
23.741257
 30
0.0
 10
73.153751
 20
22.003347
 30
0.0
  0
SPLINE
  5
149
100
AcDbEntity
  8
Text
 62
7
100
AcDbSpline
 70
8
 71
3
 72
8
 73
4
 74
0
 40
0
 40
0
 40
0
 40
0
 40
1
 40
1
 40
1
 40
1
 10
73.153751
 20
22.003347
 30
0.0
 10
74.127317
 20
20.971463
 30
0.0
 10
74.456755
 20
19.845125
 30
0.0
 10
74.142064
 20
18.624333
 30
0.0
  0
LWPOLYLINE
  5
14a
100
AcDbEntity
  8
Text
 62
7
100
AcDbPolyline
 90
5
 70
1
 10
71.397773
 20
15.331227
 30
0.0
 10
73.901228
 20
12.677811
 30
0.0
 10
72.295212
 20
11.162562
 30
0.0
 10
64.828770
 20
19.076261
 30
0.0
 10
67.901147
 20
21.974998
 30
0.0
  0
SPLINE
  5
14b
100
AcDbEntity
  8
Text
 62
7
100
AcDbSpline
 70
8
 71
3
 72
8
 73
4
 74
0
 40
0
 40
0
 40
0
 40
0
 40
1
 40
1
 40
1
 40
1
 10
71.591764
 20
18.109935
 30
0.0
 10
71.971931
 20
18.468617
 30
0.0
 10
72.145317
 20
18.852176
 30
0.0
 10
72.111921
 20
19.260613
 30
0.0
  0
SPLINE
  5
14c
100
AcDbEntity
  8
Text
 62
7
100
AcDbSpline
 70
8
 71
3
 72
8
 73
4
 74
0
 40
0
 40
0
 40
0
 40
0
 40
1
 40
1
 40
1
 40
1
 10
72.111921
 20
19.260613
 30
0.0
 10
72.078524
 20
19.669050
 30
0.0
 10
71.882485
 20
20.063353
 30
0.0
 10
71.523803
 20
20.443521
 30
0.0
  0
SPLINE
  5
14d
100
AcDbEntity
  8
Text
 62
7
100
AcDbSpline
 70
8
 71
3
 72
8
 73
4
 74
0
 40
0
 40
0
 40
0
 40
0
 40
1
 40
1
 40
1
 40
1
 10
71.523803
 20
20.443521
 30
0.0
 10
71.165121
 20
20.823688
 30
0.0
 10
70.778778
 20
21.031110
 30
0.0
 10
70.364775
 20
21.065787
 30
0.0
  0
SPLINE
  5
14e
100
AcDbEntity
  8
Text
 62
7
100
AcDbSpline
 70
8
 71
3
 72
8
 73
4
 74
0
 40
0
 40
0
 40
0
 40
0
 40
1
 40
1
 40
1
 40
1
 10
70.364775
 20
21.065787
 30
0.0
 10
69.958531
 20
21.107783
 30
0.0
 10
69.569204
 20
20.953100
 30
0.0
 10
69.196794
 20
20.601738
 30
0.0
  0
LWPOLYLINE
  5
14f
100
AcDbEntity
  8
Text
 62
7
100
AcDbPolyline
 90
6
 70
1
 10
74.142064
 20
18.624333
 30
0.0
 10
78.125747
 20
16.663573
 30
0.0
 10
76.368440
 20
15.005584
 30
0.0
 10
72.945600
 20
16.791576
 30
0.0
 10
71.397773
 20
15.331227
 30
0.0
 10
71.397773
 20
15.331227
 30
0.0
  0
SPLINE
  5
150
100
AcDbEntity
  8
Text
 62
7
100
AcDbSpline
 70
8
 71
3
 72
8
 73
4
 74
0
 40
0
 40
0
 40
0
 40
0
 40
1
 40
1
 40
1
 40
1
 10
74.402629
 20
27.303586
 30
0.0
 10
73.783228
 20
26.319647
 30
0.0
 10
73.798498
 20
25.623105
 30
0.0
 10
74.448439
 20
25.213959
 30
0.0
  0
SPLINE
  5
151
100
AcDbEntity
  8
Text
 62
7
100
AcDbSpline
 70
8
 71
3
 72
8
 73
4
 74
0
 40
0
 40
0
 40
0
 40
0
 40
1
 40
1
 40
1
 40
1
 10
74.448439
 20
25.213959
 30
0.0
 10
74.737302
 20
25.032116
 30
0.0
 10
75.035177
 20
25.014757
 30
0.0
 10
75.342065
 20
25.161881
 30
0.0
  0
SPLINE
  5
152
100
AcDbEntity
  8
Text
 62
7
100
AcDbSpline
 70
8
 71
3
 72
8
 73
4
 74
0
 40
0
 40
0
 40
0
 40
0
 40
1
 40
1
 40
1
 40
1
 10
75.342065
 20
25.161881
 30
0.0
 10
75.648953
 20
25.309005
 30
0.0
 10
76.228116
 20
25.738480
 30
0.0
 10
77.079555
 20
26.450307
 30
0.0
  0
SPLINE
  5
153
100
AcDbEntity
  8
Text
 62
7
100
AcDbSpline
 70
8
 71
3
 72
8
 73
4
 74
0
 40
0
 40
0
 40
0
 40
0
 40
1
 40
1
 40
1
 40
1
 10
77.079555
 20
26.450307
 30
0.0
 10
77.936676
 20
27.171160
 30
0.0
 10
78.663941
 20
27.595633
 30
0.0
 10
79.261350
 20
27.723726
 30
0.0
  0
SPLINE
  5
154
100
AcDbEntity
  8
Text
 62
7
100
AcDbSpline
 70
8
 71
3
 72
8
 73
4
 74
0
 40
0
 40
0
 40
0
 40
0
 40
1
 40
1
 40
1
 40
1
 10
79.261350
 20
27.723726
 30
0.0
 10
79.849731
 20
27.857500
 30
0.0
 10
80.523054
 20
27.685719
 30
0.0
 10
81.281319
 20
27.208383
 30
0.0
  0
SPLINE
  5
155
100
AcDbEntity
  8
Text
 62
7
100
AcDbSpline
 70
8
 71
3
 72
8
 73
4
 74
0
 40
0
 40
0
 40
0
 40
0
 40
1
 40
1
 40
1
 40
1
 10
81.281319
 20
27.208383
 30
0.0
 10
82.247204
 20
26.600346
 30
0.0
 10
82.793704
 20
25.846680
 30
0.0
 10
82.920819
 20
24.947386
 30
0.0
  0
SPLINE
  5
156
100
AcDbEntity
  8
Text
 62
7
100
AcDbSpline
 70
8
 71
3
 72
8
 73
4
 74
0
 40
0
 40
0
 40
0
 40
0
 40
1
 40
1
 40
1
 40
1
 10
82.920819
 20
24.947386
 30
0.0
 10
83.047934
 20
24.048091
 30
0.0
 10
82.813155
 20
23.124528
 30
0.0
 10
82.216484
 20
22.176698
 30
0.0
  0
SPLINE
  5
157
100
AcDbEntity
  8
Text
 62
7
100
AcDbSpline
 70
8
 71
3
 72
8
 73
4
 74
0
 40
0
 40
0
 40
0
 40
0
 40
1
 40
1
 40
1
 40
1
 10
82.216484
 20
22.176698
 30
0.0
 10
81.773243
 20
21.472595
 30
0.0
 10
81.122232
 20
20.678711
 30
0.0
 10
80.263453
 20
19.795047
 30
0.0
  0
LWPOLYLINE
  5
158
100
AcDbEntity
  8
Text
 62
7
100
AcDbPolyline
 90
5
 70
1
 10
69.196794
 20
20.601738
 30
0.0
 10
67.730433
 20
19.218250
 30
0.0
 10
70.102126
 20
16.704487
 30
0.0
 10
71.591764
 20
18.109935
 30
0.0
 10
71.591764
 20
18.109935
 30
0.0
  0
SPLINE
  5
159
100
AcDbEntity
  8
Text
 62
7
100
AcDbSpline
 70
8
 71
3
 72
8
 73
4
 74
0
 40
0
 40
0
 40
0
 40
0
 40
1
 40
1
 40
1
 40
1
 10
78.532318
 20
20.468879
 30
0.0
 10
79.456269
 20
21.576205
 30
0.0
 10
80.119977
 20
22.450325
 30
0.0
 10
80.523440
 20
23.091240
 30
0.0
  0
SPLINE
  5
15a
100
AcDbEntity
  8
Text
 62
7
100
AcDbSpline
 70
8
 71
3
 72
8
 73
4
 74
0
 40
0
 40
0
 40
0
 40
0
 40
1
 40
1
 40
1
 40
1
 10
80.523440
 20
23.091240
 30
0.0
 10
81.125794
 20
24.048097
 30
0.0
 10
81.029785
 20
24.776559
 30
0.0
 10
80.235412
 20
25.276627
 30
0.0
  0
SPLINE
  5
15b
100
AcDbEntity
  8
Text
 62
7
100
AcDbSpline
 70
8
 71
3
 72
8
 73
4
 74
0
 40
0
 40
0
 40
0
 40
0
 40
1
 40
1
 40
1
 40
1
 10
80.235412
 20
25.276627
 30
0.0
 10
79.946549
 20
25.458469
 30
0.0
 10
79.649843
 20
25.487697
 30
0.0
 10
79.345293
 20
25.364310
 30
0.0
  0
SPLINE
  5
15c
100
AcDbEntity
  8
Text
 62
7
100
AcDbSpline
 70
8
 71
3
 72
8
 73
4
 74
0
 40
0
 40
0
 40
0
 40
0
 40
1
 40
1
 40
1
 40
1
 10
79.345293
 20
25.364310
 30
0.0
 10
79.046426
 20
25.249949
 30
0.0
 10
78.594795
 20
24.922952
 30
0.0
 10
77.990400
 20
24.383319
 30
0.0
  0
SPLINE
  5
15d
100
AcDbEntity
  8
Text
 62
7
100
AcDbSpline
 70
8
 71
3
 72
8
 73
4
 74
0
 40
0
 40
0
 40
0
 40
0
 40
1
 40
1
 40
1
 40
1
 10
77.990400
 20
24.383319
 30
0.0
 10
77.033331
 20
23.523716
 30
0.0
 10
76.215307
 20
23.005126
 30
0.0
 10
75.536330
 20
22.827549
 30
0.0
  0
SPLINE
  5
15e
100
AcDbEntity
  8
Text
 62
7
100
AcDbSpline
 70
8
 71
3
 72
8
 73
4
 74
0
 40
0
 40
0
 40
0
 40
0
 40
1
 40
1
 40
1
 40
1
 10
75.536330
 20
22.827549
 30
0.0
 10
74.854009
 20
22.664680
 30
0.0
 10
74.147256
 20
22.813390
 30
0.0
 10
73.416072
 20
23.273680
 30
0.0
  0
SPLINE
  5
15f
100
AcDbEntity
  8
Text
 62
7
100
AcDbSpline
 70
8
 71
3
 72
8
 73
4
 74
0
 40
0
 40
0
 40
0
 40
0
 40
1
 40
1
 40
1
 40
1
 10
73.416072
 20
23.273680
 30
0.0
 10
72.495322
 20
23.853303
 30
0.0
 10
71.985433
 20
24.565015
 30
0.0
 10
71.886405
 20
25.408817
 30
0.0
  0
SPLINE
  5
160
100
AcDbEntity
  8
Text
 62
7
100
AcDbSpline
 70
8
 71
3
 72
8
 73
4
 74
0
 40
0
 40
0
 40
0
 40
0
 40
1
 40
1
 40
1
 40
1
 10
71.886405
 20
25.408817
 30
0.0
 10
71.787378
 20
26.252617
 30
0.0
 10
72.044723
 20
27.161973
 30
0.0
 10
72.658442
 20
28.136885
 30
0.0
  0
SPLINE
  5
161
100
AcDbEntity
  8
Text
 62
7
100
AcDbSpline
 70
8
 71
3
 72
8
 73
4
 74
0
 40
0
 40
0
 40
0
 40
0
 40
1
 40
1
 40
1
 40
1
 10
72.658442
 20
28.136885
 30
0.0
 10
73.078953
 20
28.804880
 30
0.0
 10
73.703386
 20
29.596589
 30
0.0
 10
74.531740
 20
30.512011
 30
0.0
  0
LWPOLYLINE
  5
162
100
AcDbEntity
  8
Text
 62
7
100
AcDbPolyline
 90
3
 70
1
 10
80.263453
 20
19.795047
 30
0.0
 10
79.861811
 20
19.367258
 30
0.0
 10
78.532318
 20
20.468879
 30
0.0
  0
SPLINE
  5
163
100
AcDbEntity
  8
Text
 62
7
100
AcDbSpline
 70
8
 71
3
 72
8
 73
4
 74
0
 40
0
 40
0
 40
0
 40
0
 40
1
 40
1
 40
1
 40
1
 10
76.315528
 20
29.861752
 30
0.0
 10
75.369852
 20
28.679872
 30
0.0
 10
74.732219
 20
27.827150
 30
0.0
 10
74.402629
 20
27.303586
 30
0.0
  0
LWPOLYLINE
  5
164
100
AcDbEntity
  8
Text
 62
7
100
AcDbPolyline
 90
3
 70
1
 10
74.531740
 20
30.512011
 30
0.0
 10
74.933382
 20
30.939799
 30
0.0
 10
76.315528
 20
29.861752
 30
0.0
  0
LWPOLYLINE
  5
165
100
AcDbEntity
  8
Text
 62
7
100
AcDbPolyline
 90
2
 70
1
 10
74.402629
 20
27.303586
 30
0.0
 10
74.402629
 20
27.303586
 30
0.0
  0
SPLINE
  5
166
100
AcDbEntity
  8
Text
 62
7
100
AcDbSpline
 70
8
 71
3
 72
8
 73
4
 74
0
 40
0
 40
0
 40
0
 40
0
 40
1
 40
1
 40
1
 40
1
 10
76.447258
 20
35.910940
 30
0.0
 10
77.252368
 20
38.363506
 30
0.0
 10
78.850802
 20
39.197214
 30
0.0
 10
81.242561
 20
38.412066
 30
0.0
  0
SPLINE
  5
167
100
AcDbEntity
  8
Text
 62
7
100
AcDbSpline
 70
8
 71
3
 72
8
 73
4
 74
0
 40
0
 40
0
 40
0
 40
0
 40
1
 40
1
 40
1
 40
1
 10
81.242561
 20
38.412066
 30
0.0
 10
82.448575
 20
38.016164
 30
0.0
 10
83.272754
 20
37.397581
 30
0.0
 10
83.715099
 20
36.556316
 30
0.0
  0
SPLINE
  5
168
100
AcDbEntity
  8
Text
 62
7
100
AcDbSpline
 70
8
 71
3
 72
8
 73
4
 74
0
 40
0
 40
0
 40
0
 40
0
 40
1
 40
1
 40
1
 40
1
 10
83.715099
 20
36.556316
 30
0.0
 10
84.150636
 20
35.728512
 30
0.0
 10
84.170453
 20
34.711604
 30
0.0
 10
83.774552
 20
33.505590
 30
0.0
  0
LWPOLYLINE
  5
169
100
AcDbEntity
  8
Text
 62
7
100
AcDbPolyline
 90
6
 70
1
 10
83.774552
 20
33.505590
 30
0.0
 10
83.215633
 20
31.802983
 30
0.0
 10
86.225600
 20
30.814893
 30
0.0
 10
85.536932
 20
28.717037
 30
0.0
 10
75.199670
 20
32.110476
 30
0.0
 10
76.447258
 20
35.910940
 30
0.0
  0
LWPOLYLINE
  5
16a
100
AcDbEntity
  8
Text
 62
7
100
AcDbPolyline
 90
2
 70
1
 10
83.774552
 20
33.505590
 30
0.0
 10
83.774552
 20
33.505590
 30
0.0
  0
SPLINE
  5
16b
100
AcDbEntity
  8
Text
 62
7
100
AcDbSpline
 70
8
 71
3
 72
8
 73
4
 74
0
 40
0
 40
0
 40
0
 40
0
 40
1
 40
1
 40
1
 40
1
 10
81.975743
 20
34.079250
 30
0.0
 10
82.318414
 20
35.123110
 30
0.0
 10
81.841137
 20
35.857962
 30
0.0
 10
80.543912
 20
36.283806
 30
0.0
  0
SPLINE
  5
16c
100
AcDbEntity
  8
Text
 62
7
100
AcDbSpline
 70
8
 71
3
 72
8
 73
4
 74
0
 40
0
 40
0
 40
0
 40
0
 40
1
 40
1
 40
1
 40
1
 10
80.543912
 20
36.283806
 30
0.0
 10
79.905434
 20
36.493400
 30
0.0
 10
79.407792
 20
36.516429
 30
0.0
 10
79.050986
 20
36.352891
 30
0.0
  0
SPLINE
  5
16d
100
AcDbEntity
  8
Text
 62
7
100
AcDbSpline
 70
8
 71
3
 72
8
 73
4
 74
0
 40
0
 40
0
 40
0
 40
0
 40
1
 40
1
 40
1
 40
1
 10
79.050986
 20
36.352891
 30
0.0
 10
78.684045
 20
36.192680
 30
0.0
 10
78.412412
 20
35.844008
 30
0.0
 10
78.236087
 20
35.306876
 30
0.0
  0
LWPOLYLINE
  5
16e
100
AcDbEntity
  8
Text
 62
7
100
AcDbPolyline
 90
2
 70
1
 10
81.421814
 20
32.391844
 30
0.0
 10
81.975743
 20
34.079250
 30
0.0
  0
LWPOLYLINE
  5
16f
100
AcDbEntity
  8
Text
 62
7
100
AcDbPolyline
 90
4
 70
1
 10
78.236087
 20
35.306876
 30
0.0
 10
77.682158
 20
33.619470
 30
0.0
 10
81.421814
 20
32.391844
 30
0.0
 10
81.421814
 20
32.391844
 30
0.0
  0
LWPOLYLINE
  5
170
100
AcDbEntity
  8
Text
 62
7
100
AcDbPolyline
 90
10
 70
1
 10
88.395775
 20
38.310412
 30
0.0
 10
77.696846
 20
41.456840
 30
0.0
 10
77.967920
 20
45.640066
 30
0.0
 10
88.983448
 20
47.379391
 30
0.0
 10
88.840669
 20
45.176012
 30
0.0
 10
86.848852
 20
44.872176
 30
0.0
 10
86.602609
 20
41.072146
 30
0.0
 10
88.538555
 20
40.513790
 30
0.0
 10
88.395775
 20
38.310412
 30
0.0
 10
88.395775
 20
38.310412
 30
0.0
  0
SPLINE
  5
171
100
AcDbEntity
  8
Text
 62
7
100
AcDbSpline
 70
8
 71
3
 72
8
 73
4
 74
0
 40
0
 40
0
 40
0
 40
0
 40
1
 40
1
 40
1
 40
1
 10
87.195285
 20
57.199851
 30
0.0
 10
87.642074
 20
56.132623
 30
0.0
 10
87.947879
 20
55.153230
 30
0.0
 10
88.112702
 20
54.261671
 30
0.0
  0
SPLINE
  5
172
100
AcDbEntity
  8
Text
 62
7
100
AcDbSpline
 70
8
 71
3
 72
8
 73
4
 74
0
 40
0
 40
0
 40
0
 40
0
 40
1
 40
1
 40
1
 40
1
 10
88.112702
 20
54.261671
 30
0.0
 10
88.277525
 20
53.370111
 30
0.0
 10
88.299250
 20
52.636503
 30
0.0
 10
88.177876
 20
52.060847
 30
0.0
  0
SPLINE
  5
173
100
AcDbEntity
  8
Text
 62
7
100
AcDbSpline
 70
8
 71
3
 72
8
 73
4
 74
0
 40
0
 40
0
 40
0
 40
0
 40
1
 40
1
 40
1
 40
1
 10
88.177876
 20
52.060847
 30
0.0
 10
88.056502
 20
51.485190
 30
0.0
 10
87.782686
 20
51.000673
 30
0.0
 10
87.356429
 20
50.607297
 30
0.0
  0
SPLINE
  5
174
100
AcDbEntity
  8
Text
 62
7
100
AcDbSpline
 70
8
 71
3
 72
8
 73
4
 74
0
 40
0
 40
0
 40
0
 40
0
 40
1
 40
1
 40
1
 40
1
 10
87.356429
 20
50.607297
 30
0.0
 10
86.930172
 20
50.213919
 30
0.0
 10
86.402551
 20
49.899430
 30
0.0
 10
85.773567
 20
49.663828
 30
0.0
  0
SPLINE
  5
175
100
AcDbEntity
  8
Text
 62
7
100
AcDbSpline
 70
8
 71
3
 72
8
 73
4
 74
0
 40
0
 40
0
 40
0
 40
0
 40
1
 40
1
 40
1
 40
1
 10
85.773567
 20
49.663828
 30
0.0
 10
85.144584
 20
49.428226
 30
0.0
 10
84.337112
 20
49.219287
 30
0.0
 10
83.351152
 20
49.037013
 30
0.0
  0
SPLINE
  5
176
100
AcDbEntity
  8
Text
 62
7
100
AcDbSpline
 70
8
 71
3
 72
8
 73
4
 74
0
 40
0
 40
0
 40
0
 40
0
 40
1
 40
1
 40
1
 40
1
 10
83.351152
 20
49.037013
 30
0.0
 10
81.284833
 20
48.655012
 30
0.0
 10
79.794524
 20
48.677802
 30
0.0
 10
78.880226
 20
49.105383
 30
0.0
  0
SPLINE
  5
177
100
AcDbEntity
  8
Text
 62
7
100
AcDbSpline
 70
8
 71
3
 72
8
 73
4
 74
0
 40
0
 40
0
 40
0
 40
0
 40
1
 40
1
 40
1
 40
1
 10
78.880226
 20
49.105383
 30
0.0
 10
77.953500
 20
49.541514
 30
0.0
 10
77.345675
 20
50.541005
 30
0.0
 10
77.056750
 20
52.103856
 30
0.0
  0
SPLINE
  5
178
100
AcDbEntity
  8
Text
 62
7
100
AcDbSpline
 70
8
 71
3
 72
8
 73
4
 74
0
 40
0
 40
0
 40
0
 40
0
 40
1
 40
1
 40
1
 40
1
 10
77.056750
 20
52.103856
 30
0.0
 10
76.889988
 20
53.005904
 30
0.0
 10
76.838649
 20
54.075731
 30
0.0
 10
76.902733
 20
55.313336
 30
0.0
  0
LWPOLYLINE
  5
179
100
AcDbEntity
  8
Text
 62
7
100
AcDbPolyline
 90
6
 70
1
 10
79.627734
 20
43.047308
 30
0.0
 10
84.713528
 20
41.611432
 30
0.0
 10
84.905970
 20
44.581203
 30
0.0
 10
79.677397
 20
43.813701
 30
0.0
 10
79.627734
 20
43.047308
 30
0.0
 10
79.627734
 20
43.047308
 30
0.0
  0
SPLINE
  5
17a
100
AcDbEntity
  8
Text
 62
7
100
AcDbSpline
 70
8
 71
3
 72
8
 73
4
 74
0
 40
0
 40
0
 40
0
 40
0
 40
1
 40
1
 40
1
 40
1
 10
78.645042
 20
55.570352
 30
0.0
 10
78.679678
 20
54.502861
 30
0.0
 10
78.760986
 20
53.622981
 30
0.0
 10
78.888966
 20
52.930712
 30
0.0
  0
SPLINE
  5
17b
100
AcDbEntity
  8
Text
 62
7
100
AcDbSpline
 70
8
 71
3
 72
8
 73
4
 74
0
 40
0
 40
0
 40
0
 40
0
 40
1
 40
1
 40
1
 40
1
 10
78.888966
 20
52.930712
 30
0.0
 10
79.015007
 20
52.248931
 30
0.0
 10
79.199575
 20
51.778647
 30
0.0
 10
79.442670
 20
51.519861
 30
0.0
  0
SPLINE
  5
17c
100
AcDbEntity
  8
Text
 62
7
100
AcDbSpline
 70
8
 71
3
 72
8
 73
4
 74
0
 40
0
 40
0
 40
0
 40
0
 40
1
 40
1
 40
1
 40
1
 10
79.442670
 20
51.519861
 30
0.0
 10
79.675277
 20
51.259135
 30
0.0
 10
80.062132
 20
51.102858
 30
0.0
 10
80.603237
 20
51.051029
 30
0.0
  0
SPLINE
  5
17d
100
AcDbEntity
  8
Text
 62
7
100
AcDbSpline
 70
8
 71
3
 72
8
 73
4
 74
0
 40
0
 40
0
 40
0
 40
0
 40
1
 40
1
 40
1
 40
1
 10
80.603237
 20
51.051029
 30
0.0
 10
81.142403
 20
51.009688
 30
0.0
 10
82.030833
 20
51.103424
 30
0.0
 10
83.268527
 20
51.332237
 30
0.0
  0
SPLINE
  5
17e
100
AcDbEntity
  8
Text
 62
7
100
AcDbSpline
 70
8
 71
3
 72
8
 73
4
 74
0
 40
0
 40
0
 40
0
 40
0
 40
1
 40
1
 40
1
 40
1
 10
83.268527
 20
51.332237
 30
0.0
 10
84.506221
 20
51.561049
 30
0.0
 10
85.340136
 20
51.861655
 30
0.0
 10
85.770271
 20
52.234055
 30
0.0
  0
SPLINE
  5
17f
100
AcDbEntity
  8
Text
 62
7
100
AcDbSpline
 70
8
 71
3
 72
8
 73
4
 74
0
 40
0
 40
0
 40
0
 40
0
 40
1
 40
1
 40
1
 40
1
 10
85.770271
 20
52.234055
 30
0.0
 10
86.187978
 20
52.615004
 30
0.0
 10
86.317329
 20
53.235525
 30
0.0
 10
86.158324
 20
54.095618
 30
0.0
  0
SPLINE
  5
180
100
AcDbEntity
  8
Text
 62
7
100
AcDbSpline
 70
8
 71
3
 72
8
 73
4
 74
0
 40
0
 40
0
 40
0
 40
0
 40
1
 40
1
 40
1
 40
1
 10
86.158324
 20
54.095618
 30
0.0
 10
85.997379
 20
54.966199
 30
0.0
 10
85.753317
 20
55.875651
 30
0.0
 10
85.426136
 20
56.823975
 30
0.0
  0
LWPOLYLINE
  5
181
100
AcDbEntity
  8
Text
 62
7
100
AcDbPolyline
 90
2
 70
1
 10
76.902733
 20
55.313336
 30
0.0
 10
78.645042
 20
55.570352
 30
0.0
  0
LWPOLYLINE
  5
182
100
AcDbEntity
  8
Text
 62
7
100
AcDbPolyline
 90
3
 70
1
 10
85.426136
 20
56.823975
 30
0.0
 10
87.195285
 20
57.199851
 30
0.0
 10
87.195285
 20
57.199851
 30
0.0
  0
LWPOLYLINE
  5
183
100
AcDbEntity
  8
Text
 62
7
100
AcDbPolyline
 90
14
 70
1
 10
86.245474
 20
60.622401
 30
0.0
 10
76.329568
 20
56.144767
 30
0.0
 10
73.432275
 20
62.560942
 30
0.0
 10
75.182141
 20
63.351112
 30
0.0
 10
77.170737
 20
58.947283
 30
0.0
 10
79.489309
 20
59.994260
 30
0.0
 10
77.895798
 20
63.523155
 30
0.0
 10
79.616500
 20
64.300157
 30
0.0
 10
81.210011
 20
60.771261
 30
0.0
 10
83.586912
 20
61.844576
 30
0.0
 10
81.598315
 20
66.248405
 30
0.0
 10
83.348181
 20
67.038576
 30
0.0
 10
86.245474
 20
60.622401
 30
0.0
 10
86.245474
 20
60.622401
 30
0.0
  0
LWPOLYLINE
  5
184
100
AcDbEntity
  8
S
 62
7
100
AcDbPolyline
 90
212
 70
0
 10
31.066084
 20
63.879892
 30
0.0
 10
31.473444
 20
62.359524
 30
0.0
 10
31.462162
 20
61.912534
 30
0.0
 10
31.220468
 20
61.536356
 30
0.0
 10
29.065620
 20
59.381508
 30
0.0
 10
28.689458
 20
59.139800
 30
0.0
 10
28.242484
 20
59.128516
 30
0.0
 10
26.722404
 20
59.535892
 30
0.0
 10
26.239672
 20
59.511528
 30
0.0
 10
25.851908
 20
59.222900
 30
0.0
 10
24.647620
 20
57.347732
 30
0.0
 10
23.626116
 20
55.367108
 30
0.0
 10
23.569848
 20
54.887034
 30
0.0
 10
23.789892
 20
54.456676
 30
0.0
 10
24.903012
 20
53.343812
 30
0.0
 10
25.116814
 20
52.951080
 30
0.0
 10
25.095668
 20
52.504420
 30
0.0
 10
24.306916
 20
49.560708
 30
0.0
 10
24.101954
 20
49.163394
 30
0.0
 10
23.720532
 20
48.930180
 30
0.0
 10
22.200132
 20
48.522804
 30
0.0
 10
21.794398
 20
48.260220
 30
0.0
 10
21.603044
 20
47.816388
 30
0.0
 10
21.497564
 20
45.590404
 30
0.0
 10
21.603044
 20
43.364420
 30
0.0
 10
21.794392
 20
42.920606
 30
0.0
 10
22.200132
 20
42.658004
 30
0.0
 10
23.720532
 20
42.250612
 30
0.0
 10
24.101948
 20
42.017386
 30
0.0
 10
24.306916
 20
41.620084
 30
0.0
 10
24.874514
 20
39.350356
 30
0.0
 10
25.689876
 20
37.157428
 30
0.0
 10
25.990888
 20
36.806502
 30
0.0
 10
26.432900
 20
36.670916
 30
0.0
 10
30.596324
 20
36.670916
 30
0.0
 10
30.906160
 20
36.733364
 30
0.0
 10
31.169412
 20
36.908324
 30
0.0
 10
55.830052
 20
61.571460
 30
0.0
 10
56.093428
 20
61.746490
 30
0.0
 10
56.403460
 20
61.808948
 30
0.0
 10
69.804116
 20
61.808948
 30
0.0
 10
70.197132
 20
61.704880
 30
0.0
 10
70.492996
 20
61.426020
 30
0.0
 10
71.694282
 20
59.304011
 30
0.0
 10
72.719362
 20
57.091444
 30
0.0
 10
73.562075
 20
54.803181
 30
0.0
 10
74.216260
 20
52.454084
 30
0.0
 10
74.676602
 20
50.059445
 30
0.0
 10
74.941064
 20
47.635316
 30
0.0
 10
75.008552
 20
45.197735
 30
0.0
 10
74.877972
 20
42.762740
 30
0.0
 10
74.549118
 20
40.346526
 30
0.0
 10
74.025238
 20
37.964942
 30
0.0
 10
73.310417
 20
35.633545
 30
0.0
 10
72.408740
 20
33.367892
 30
0.0
 10
71.325172
 20
31.183395
 30
0.0
 10
70.067866
 20
29.094052
 30
0.0
 10
68.645653
 20
27.113297
 30
0.0
 10
67.067364
 20
25.254564
 30
0.0
 10
65.342650
 20
23.530791
 30
0.0
 10
63.483718
 20
21.952702
 30
0.0
 10
61.503229
 20
20.530196
 30
0.0
 10
59.413844
 20
19.273172
 30
0.0
 10
57.228835
 20
18.190866
 30
0.0
 10
54.963166
 20
17.289472
 30
0.0
 10
52.632004
 20
16.574324
 30
0.0
 10
50.250516
 20
16.050756
 30
0.0
 10
47.834232
 20
15.723331
 30
0.0
 10
45.399314
 20
15.593120
 30
0.0
 10
42.961837
 20
15.660327
 30
0.0
 10
40.537876
 20
15.925156
 30
0.0
 10
38.143632
 20
16.386951
 30
0.0
 10
35.794760
 20
17.041580
 30
0.0
 10
33.506554
 20
17.884105
 30
0.0
 10
31.294308
 20
18.909588
 30
0.0
 10
31.009176
 20
19.156910
 30
0.0
 10
30.864132
 20
19.505380
 30
0.0
 10
30.895908
 20
19.881494
 30
0.0
 10
31.091940
 20
20.204052
 30
0.0
 10
36.607748
 20
25.720180
 30
0.0
 10
37.012968
 20
25.936372
 30
0.0
 10
37.471108
 20
25.904068
 30
0.0
 10
39.233788
 20
25.316650
 30
0.0
 10
41.041348
 20
24.886612
 30
0.0
 10
41.438644
 20
24.681646
 30
0.0
 10
41.671828
 20
24.300196
 30
0.0
 10
42.079188
 20
22.779716
 30
0.0
 10
42.341762
 20
22.373966
 30
0.0
 10
42.785572
 20
22.182596
 30
0.0
 10
45.011434
 20
22.077116
 30
0.0
 10
47.237284
 20
22.182596
 30
0.0
 10
47.681076
 20
22.373960
 30
0.0
 10
47.943668
 20
22.779716
 30
0.0
 10
48.351028
 20
24.300196
 30
0.0
 10
48.584244
 20
24.681640
 30
0.0
 10
48.981524
 20
24.886612
 30
0.0
 10
51.925060
 20
25.675412
 30
0.0
 10
52.371696
 20
25.696510
 30
0.0
 10
52.764404
 20
25.482756
 30
0.0
 10
53.877204
 20
24.369572
 30
0.0
 10
54.307538
 20
24.149514
 30
0.0
 10
54.787588
 20
24.205780
 30
0.0
 10
56.768100
 20
25.227372
 30
0.0
 10
58.643156
 20
26.431700
 30
0.0
 10
58.931752
 20
26.819470
 30
0.0
 10
58.956132
 20
27.302244
 30
0.0
 10
58.548788
 20
28.822404
 30
0.0
 10
58.560068
 20
29.269396
 30
0.0
 10
58.801748
 20
29.645588
 30
0.0
 10
60.956596
 20
31.800548
 30
0.0
 10
61.332758
 20
32.042256
 30
0.0
 10
61.779732
 20
32.053540
 30
0.0
 10
63.299812
 20
31.646164
 30
0.0
 10
63.782556
 20
31.670528
 30
0.0
 10
64.170308
 20
31.959156
 30
0.0
 10
65.374610
 20
33.834324
 30
0.0
 10
66.396116
 20
35.814948
 30
0.0
 10
66.452382
 20
36.295022
 30
0.0
 10
66.232324
 20
36.725380
 30
0.0
 10
65.118884
 20
37.837252
 30
0.0
 10
64.905082
 20
38.229998
 30
0.0
 10
64.926228
 20
38.676660
 30
0.0
 10
65.714980
 20
41.620356
 30
0.0
 10
65.919942
 20
42.017676
 30
0.0
 10
66.301364
 20
42.250884
 30
0.0
 10
67.821764
 20
42.658276
 30
0.0
 10
68.227492
 20
42.920860
 30
0.0
 10
68.418852
 20
43.364692
 30
0.0
 10
68.524332
 20
45.590676
 30
0.0
 10
68.418852
 20
47.816660
 30
0.0
 10
68.227498
 20
48.260468
 30
0.0
 10
67.821764
 20
48.523076
 30
0.0
 10
66.301364
 20
48.930452
 30
0.0
 10
65.919948
 20
49.163680
 30
0.0
 10
65.714980
 20
49.560996
 30
0.0
 10
65.147382
 20
51.830718
 30
0.0
 10
64.332020
 20
54.023652
 30
0.0
 10
64.031008
 20
54.374578
 30
0.0
 10
63.588996
 20
54.510164
 30
0.0
 10
59.425572
 20
54.510164
 30
0.0
 10
59.115736
 20
54.447708
 30
0.0
 10
58.852484
 20
54.272740
 30
0.0
 10
34.191844
 20
29.609620
 30
0.0
 10
33.928462
 20
29.434610
 30
0.0
 10
33.618436
 20
29.372196
 30
0.0
 10
20.217780
 20
29.372196
 30
0.0
 10
19.824740
 20
29.476286
 30
0.0
 10
19.528900
 20
29.755252
 30
0.0
 10
18.327678
 20
31.877261
 30
0.0
 10
17.302630
 20
34.089826
 30
0.0
 10
16.459925
 20
36.378084
 30
0.0
 10
15.805732
 20
38.727172
 30
0.0
 10
15.345424
 20
41.121820
 30
0.0
 10
15.080988
 20
43.545954
 30
0.0
 10
15.013521
 20
45.983537
 30
0.0
 10
15.144116
 20
48.418532
 30
0.0
 10
15.472992
 20
50.834729
 30
0.0
 10
15.996904
 20
53.216274
 30
0.0
 10
16.711754
 20
55.547632
 30
0.0
 10
17.613444
 20
57.813268
 30
0.0
 10
18.697012
 20
59.997751
 30
0.0
 10
19.954318
 20
62.087072
 30
0.0
 10
21.376531
 20
64.067822
 30
0.0
 10
22.954820
 20
65.926596
 30
0.0
 10
24.679541
 20
67.650315
 30
0.0
 10
26.538472
 20
69.228388
 30
0.0
 10
28.518957
 20
70.650916
 30
0.0
 10
30.608340
 20
71.908004
 30
0.0
 10
32.793349
 20
72.990307
 30
0.0
 10
35.059020
 20
73.891696
 30
0.0
 10
37.390186
 20
74.606838
 30
0.0
 10
39.771684
 20
75.130404
 30
0.0
 10
42.187950
 20
75.457831
 30
0.0
 10
44.622830
 20
75.588046
 30
0.0
 10
47.060269
 20
75.520840
 30
0.0
 10
49.484212
 20
75.256004
 30
0.0
 10
51.878454
 20
74.794218
 30
0.0
 10
54.227322
 20
74.139602
 30
0.0
 10
56.515527
 20
73.297111
 30
0.0
 10
58.727780
 20
72.271700
 30
0.0
 10
59.012920
 20
72.024370
 30
0.0
 10
59.157972
 20
71.675892
 30
0.0
 10
59.126194
 20
71.299758
 30
0.0
 10
58.930148
 20
70.977204
 30
0.0
 10
53.414340
 20
65.461076
 30
0.0
 10
53.009108
 20
65.244898
 30
0.0
 10
52.550980
 20
65.277204
 30
0.0
 10
50.788288
 20
65.864652
 30
0.0
 10
48.980740
 20
66.294708
 30
0.0
 10
48.583436
 20
66.499700
 30
0.0
 10
48.350244
 20
66.881188
 30
0.0
 10
47.942900
 20
68.401556
 30
0.0
 10
47.680344
 20
68.807448
 30
0.0
 10
47.236516
 20
68.998900
 30
0.0
 10
45.010654
 20
69.104380
 30
0.0
 10
42.784804
 20
68.998900
 30
0.0
 10
42.340958
 20
68.807460
 30
0.0
 10
42.078420
 20
68.401556
 30
0.0
 10
41.671060
 20
66.881188
 30
0.0
 10
41.437850
 20
66.499706
 30
0.0
 10
41.040564
 20
66.294708
 30
0.0
 10
38.097028
 20
65.505972
 30
0.0
 10
37.650392
 20
65.484750
 30
0.0
 10
37.257684
 20
65.698596
 30
0.0
 10
36.144884
 20
66.811668
 30
0.0
 10
35.714592
 20
67.031884
 30
0.0
 10
35.234500
 20
66.975764
 30
0.0
 10
33.253944
 20
65.954132
 30
0.0
 10
31.378916
 20
64.749716
 30
0.0
 10
31.090314
 20
64.361952
 30
0.0
 10
31.065940
 20
63.879172
 30
0.0
 10
31.066084
 20
63.879892
 30
0.0
  0
LWPOLYLINE
  5
185
100
AcDbEntity
  8
M
 62
7
100
AcDbPolyline
 90
118
 70
0
 10
51.891348
 20
31.829268
 30
0.0
 10
46.157972
 20
37.562964
 30
0.0
 10
45.889711
 20
37.741155
 30
0.0
 10
45.584540
 20
37.800552
 30
0.0
 10
45.279370
 20
37.741155
 30
0.0
 10
45.011108
 20
37.562964
 30
0.0
 10
44.742844
 20
37.384782
 30
0.0
 10
44.437668
 20
37.325388
 30
0.0
 10
44.132492
 20
37.384782
 30
0.0
 10
43.864228
 20
37.562964
 30
0.0
 10
43.577844
 20
37.849700
 30
0.0
 10
43.399662
 20
38.117976
 30
0.0
 10
43.340268
 20
38.423166
 30
0.0
 10
43.399662
 20
38.728359
 30
0.0
 10
43.577844
 20
38.996644
 30
0.0
 10
43.820116
 20
39.238932
 30
0.0
 10
44.183648
 20
39.448812
 30
0.0
 10
44.603412
 20
39.448788
 30
0.0
 10
52.193300
 20
37.415060
 30
0.0
 10
52.625344
 20
37.417449
 30
0.0
 10
52.976148
 20
37.625046
 30
0.0
 10
53.183732
 20
37.975866
 30
0.0
 10
53.186116
 20
38.407924
 30
0.0
 10
51.152500
 20
45.998260
 30
0.0
 10
51.152390
 20
46.418034
 30
0.0
 10
51.362340
 20
46.781588
 30
0.0
 10
51.604628
 20
47.023876
 30
0.0
 10
51.872889
 20
47.202067
 30
0.0
 10
52.178060
 20
47.261464
 30
0.0
 10
52.483231
 20
47.202067
 30
0.0
 10
52.751492
 20
47.023876
 30
0.0
 10
53.038212
 20
46.737476
 30
0.0
 10
53.216385
 20
46.469191
 30
0.0
 10
53.275776
 20
46.163998
 30
0.0
 10
53.216385
 20
45.858808
 30
0.0
 10
53.038212
 20
45.590532
 30
0.0
 10
52.860039
 20
45.322256
 30
0.0
 10
52.800648
 20
45.017068
 30
0.0
 10
52.860039
 20
44.711880
 30
0.0
 10
53.038212
 20
44.443604
 30
0.0
 10
58.771588
 20
38.709908
 30
0.0
 10
59.039850
 20
38.531717
 30
0.0
 10
59.345020
 20
38.472320
 30
0.0
 10
59.650191
 20
38.531717
 30
0.0
 10
59.918452
 20
38.709908
 30
0.0
 10
66.225252
 20
45.017076
 30
0.0
 10
66.403434
 20
45.285352
 30
0.0
 10
66.462828
 20
45.590540
 30
0.0
 10
66.403434
 20
45.895728
 30
0.0
 10
66.225252
 20
46.164004
 30
0.0
 10
60.491892
 20
51.897828
 30
0.0
 10
60.223628
 20
52.076019
 30
0.0
 10
59.918452
 20
52.135416
 30
0.0
 10
59.613276
 20
52.076019
 30
0.0
 10
59.345012
 20
51.897828
 30
0.0
 10
59.076810
 20
51.719763
 30
0.0
 10
58.771740
 20
51.660408
 30
0.0
 10
58.466670
 20
51.719763
 30
0.0
 10
58.198468
 20
51.897828
 30
0.0
 10
51.317908
 20
58.778516
 30
0.0
 10
51.139780
 20
59.046774
 30
0.0
 10
51.080404
 20
59.351924
 30
0.0
 10
51.139780
 20
59.657073
 30
0.0
 10
51.317908
 20
59.925332
 30
0.0
 10
51.496027
 20
60.193578
 30
0.0
 10
51.555400
 20
60.498716
 30
0.0
 10
51.496027
 20
60.803853
 30
0.0
 10
51.317908
 20
61.072100
 30
0.0
 10
45.584532
 20
66.806020
 30
0.0
 10
45.316271
 20
66.984211
 30
0.0
 10
45.011100
 20
67.043608
 30
0.0
 10
44.705930
 20
66.984211
 30
0.0
 10
44.437668
 20
66.806020
 30
0.0
 10
39.035124
 20
61.403140
 30
0.0
 10
38.825268
 20
61.039624
 30
0.0
 10
38.825268
 20
60.619876
 30
0.0
 10
41.698612
 20
49.896500
 30
0.0
 10
41.696392
 20
49.464205
 30
0.0
 10
41.488742
 20
49.113196
 30
0.0
 10
41.137743
 20
48.905550
 30
0.0
 10
40.705476
 20
48.903348
 30
0.0
 10
29.982436
 20
51.776676
 30
0.0
 10
29.562804
 20
51.776720
 30
0.0
 10
29.199380
 20
51.566788
 30
0.0
 10
23.796804
 20
46.164004
 30
0.0
 10
23.618631
 20
45.895728
 30
0.0
 10
23.559240
 20
45.590540
 30
0.0
 10
23.618631
 20
45.285352
 30
0.0
 10
23.796804
 20
45.017076
 30
0.0
 10
29.530308
 20
39.283364
 30
0.0
 10
29.798570
 20
39.105182
 30
0.0
 10
30.103742
 20
39.045788
 30
0.0
 10
30.408917
 20
39.105182
 30
0.0
 10
30.677188
 20
39.283364
 30
0.0
 10
30.945384
 20
39.461429
 30
0.0
 10
31.250454
 20
39.520784
 30
0.0
 10
31.555527
 20
39.461429
 30
0.0
 10
31.823732
 20
39.283364
 30
0.0
 10
38.704292
 20
32.402420
 30
0.0
 10
38.882348
 20
32.134203
 30
0.0
 10
38.941700
 20
31.829116
 30
0.0
 10
38.882348
 20
31.524029
 30
0.0
 10
38.704292
 20
31.255812
 30
0.0
 10
38.526119
 20
30.987536
 30
0.0
 10
38.466728
 20
30.682346
 30
0.0
 10
38.526119
 20
30.377153
 30
0.0
 10
38.704292
 20
30.108868
 30
0.0
 10
44.437668
 20
24.375188
 30
0.0
 10
44.705930
 20
24.196997
 30
0.0
 10
45.011100
 20
24.137600
 30
0.0
 10
45.316271
 20
24.196997
 30
0.0
 10
45.584532
 20
24.375188
 30
0.0
 10
51.891348
 20
30.682340
 30
0.0
 10
52.069521
 20
30.950616
 30
0.0
 10
52.128912
 20
31.255804
 30
0.0
 10
52.069521
 20
31.560992
 30
0.0
 10
51.891348
 20
31.829268
 30
0.0
 10
51.891348
 20
31.829268
 30
0.0
  0
ENDSEC
  0
SECTION
  2
OBJECTS
  0
DICTIONARY
  5
C
330
0
100
AcDbDictionary
  3
ACAD_GROUP
350
D
  3
ACAD_MLINESTYLE
350
17
  0
DICTIONARY
  5
D
330
C
100
AcDbDictionary
  0
DICTIONARY
  5
1A
330
C
100
AcDbDictionary
  0
DICTIONARY
  5
17
330
C
100
AcDbDictionary
  3
STANDARD
350
18
  0
DICTIONARY
  5
19
330
C
100
AcDbDictionary
  0
ENDSEC
  0
EOF
