  0
SECTION
  2
HEADER
  9
$ACADVER
  1
AC1006
  9
$DWGCODEPAGE
  3
ansi_1252
  9
$INSBASE
 10
0.0
 20
0.0
 30
0.0
  9
$EXTMIN
 10
1.000000000000000E+20
 20
1.000000000000000E+20
  9
$EXTMAX
 10
-1.000000000000000E+20
 20
-1.000000000000000E+20
  9
$LIMMIN
 10
0.0
 20
0.0
  9
$LIMMAX
 10
12.0
 20
9.0
  9
$ORTHOMODE
 70
     0
  9
$REGENMODE
 70
     1
  9
$FILLMODE
 70
     1
  9
$QTEXTMODE
 70
     0
  9
$MIRRTEXT
 70
     1
  9
$DRAGMODE
 70
     2
  9
$LTSCALE
 40
1.0
  9
$OSMODE
 70
    37
  9
$ATTMODE
 70
     1
  9
$TEXTSIZE
 40
0.2
  9
$TRACEWID
 40
0.05
  9
$TEXTSTYLE
  7
STANDARD
  9
$CLAYER
  8
0
  9
$CELTYPE
  6
BYLAYER
  9
$CECOLOR
 62
   256
  9
$DIMSCALE
 40
1.0
  9
$DIMASZ
 40
2.5
  9
$DIMEXO
 40
0.625
  9
$DIMDLI
 40
0.38
  9
$DIMRND
 40
0.0
  9
$DIMDLE
 40
0.0
  9
$DIMEXE
 40
1.25
  9
$DIMTP
 40
0.0
  9
$DIMTM
 40
0.0
  9
$DIMTXT
 40
2.5
  9
$DIMCEN
 40
0.09
  9
$DIMTSZ
 40
0.0
  9
$DIMTOL
 70
     0
  9
$DIMLIM
 70
     0
  9
$DIMTIH
 70
     1
  9
$DIMTOH
 70
     1
  9
$DIMSE1
 70
     0
  9
$DIMSE2
 70
     0
  9
$DIMTAD
 70
     0
  9
$DIMZIN
 70
     8
  9
$DIMBLK
  1

  9
$DIMASO
 70
     1
  9
$DIMSHO
 70
     1
  9
$DIMPOST
  1

  9
$DIMAPOST
  1

  9
$DIMALT
 70
     0
  9
$DIMALTD
 70
     2
  9
$DIMALTF
 40
25.4
  9
$DIMLFAC
 40
1.0
  9
$DIMTOFL
 70
     0
  9
$DIMTVP
 40
0.0
  9
$DIMTIX
 70
     0
  9
$DIMSOXD
 70
     0
  9
$DIMSAH
 70
     0
  9
$DIMBLK1
  1

  9
$DIMBLK2
  1

  9
$LUNITS
 70
     2
  9
$LUPREC
 70
     4
  9
$SKETCHINC
 40
0.1
  9
$FILLETRAD
 40
0.5
  9
$AUNITS
 70
     0
  9
$AUPREC
 70
     0
  9
$MENU
  1
.
  9
$ELEVATION
 40
0.0
  9
$THICKNESS
 40
0.0
  9
$LIMCHECK
 70
     0
  9
$CHAMFERA
 40
0.0
  9
$CHAMFERB
 40
0.0
  9
$SKPOLY
 70
     0
  9
$TDCREATE
 40
2457753.618879514
  9
$TDUPDATE
 40
2457753.618880718
  9
$TDINDWG
 40
0.0000000116
  9
$TDUSRTIMER
 40
0.0000000116
  9
$USRTIMER
 70
     1
  9
$ANGBASE
 50
0.0
  9
$ANGDIR
 70
     0
  9
$PDMODE
 70
     0
  9
$PDSIZE
 40
0.0
  9
$PLINEWID
 40
0.0
  9
$COORDS
 70
     1
  9
$SPLFRAME
 70
     0
  9
$SPLINETYPE
 70
     6
  9
$SPLINESEGS
 70
     8
  9
$ATTDIA
 70
     0
  9
$ATTREQ
 70
     1
  9
$HANDLING
 70
     1
  9
$HANDSEED
  5
5B8
  9
$SURFTAB1
 70
     6
  9
$SURFTAB2
 70
     6
  9
$SURFTYPE
 70
     6
  9
$SURFU
 70
     6
  9
$SURFV
 70
     6
  9
$UCSNAME
  2

  9
$UCSORG
 10
0.0
 20
0.0
 30
0.0
  9
$UCSXDIR
 10
1.0
 20
0.0
 30
0.0
  9
$UCSYDIR
 10
0.0
 20
1.0
 30
0.0
  9
$USERI1
 70
     0
  9
$USERI2
 70
     0
  9
$USERI3
 70
     0
  9
$USERI4
 70
     0
  9
$USERI5
 70
     0
  9
$USERR1
 40
0.0
  9
$USERR2
 40
0.0
  9
$USERR3
 40
0.0
  9
$USERR4
 40
0.0
  9
$USERR5
 40
0.0
  9
$WORLDVIEW
 70
     1
  0
ENDSEC
  0
SECTION
  2
TABLES
  0
TABLE
  2
VPORT
 70
     1
  0
VPORT
  2
*ACTIVE
 70
     0
 10
0.0
 20
0.0
 11
1.0
 21
1.0
 12
317.1171076315164
 22
-544.018959714226
 13
0.0
 23
0.0
 14
0.5
 24
0.5
 15
0.5
 25
0.5
 16
0.0
 26
0.0
 36
1.0
 17
0.0
 27
0.0
 37
0.0
 40
100.944
 41
2.145506419400856
 42
50.0
 43
0.0
 44
0.0
 50
0.0
 51
0.0
 71
     0
 72
   100
 73
     1
 74
     3
 75
     0
 76
     0
 77
     0
 78
     0
  0
ENDTAB
  0
TABLE
  2
LTYPE
 70
    52
  0
LTYPE
  2
CONTINUOUS
 70
     0
  3
Solid line
 72
    65
 73
     0
 40
0.0
  0
LTYPE
  2
ZIGZAG
 70
     0
  3
Zig zag /\/\/\/\/\/\/\/\/\/\/\/\/\/\/\/\/\/\/\/\/\/\/\/
 72
    65
 73
     4
 40
20.32254
 49
0.00254
 49
-5.08
 49
-10.16
 49
-5.08
  0
LTYPE
  2
TRACKS
 70
     0
  3
Tracks -|-|-|-|-|-|-|-|-|-|-|-|-|-|-|-|-|-|-|-|-|-|-|-|-
 72
    65
 73
     2
 40
7.62
 49
3.81
 49
3.81
  0
LTYPE
  2
PHANTOMX2
 70
     0
  3
Phantom (2x) ____________    ____    ____   _
 72
    65
 73
     6
 40
127.0
 49
63.5
 49
-12.7
 49
12.7
 49
-12.7
 49
12.7
 49
-12.7
  0
LTYPE
  2
PHANTOM2
 70
     0
  3
Phantom (.5x) ___ _ _ ___ _ _ ___ _ _ ___ _ _
 72
    65
 73
     6
 40
31.75
 49
15.875
 49
-3.175
 49
3.175
 49
-3.175
 49
3.175
 49
-3.175
  0
LTYPE
  2
PHANTOM
 70
     0
  3
Phantom ______  __  __  ______  __  __  ______ 
 72
    65
 73
     6
 40
63.50000000000001
 49
31.75
 49
-6.35
 49
6.35
 49
-6.35
 49
6.35
 49
-6.35
  0
LTYPE
  2
HOT_WATER_SUPPLY
 70
     0
  3
Hot water supply ---- HW ---- HW ---- HW ----
 72
    65
 73
     3
 40
22.86
 49
12.7
 49
-5.08
 49
-5.08
  0
LTYPE
  2
HIDDENX2
 70
     0
  3
Hidden (2x) ____ ____ ____ ____ ____ ____ ____ 
 72
    65
 73
     2
 40
19.05
 49
12.7
 49
-6.35
  0
LTYPE
  2
HIDDEN2
 70
     0
  3
Hidden (.5x) _ _ _ _ _ _ _ _ _ _ _ _ _ _ _ _ _ 
 72
    65
 73
     2
 40
4.762499999999999
 49
3.175
 49
-1.5875
  0
LTYPE
  2
HIDDEN
 70
     0
  3
Hidden __ __ __ __ __ __ __ __ __ __ __ __ __ __
 72
    65
 73
     2
 40
9.524999999999999
 49
6.35
 49
-3.175
  0
LTYPE
  2
GAS_LINE
 70
     0
  3
Gas line ----GAS----GAS----GAS----GAS----GAS----GAS--
 72
    65
 73
     3
 40
24.13
 49
12.7
 49
-5.08
 49
-6.35
  0
LTYPE
  2
FENCELINE2
 70
     0
  3
Fenceline square ----[]-----[]----[]-----[]----[]---
 72
    65
 73
     4
 40
36.83
 49
6.35
 49
-2.54
 49
-2.54
 49
25.4
  0
LTYPE
  2
FENCELINE1
 70
     0
  3
Fenceline circle ----0-----0----0-----0----0-----0--
 72
    65
 73
     4
 40
36.83
 49
6.35
 49
-2.54
 49
-2.54
 49
25.4
  0
LTYPE
  2
DRAINAGE2
 70
     0
  3
Drainage reversed----<----<----<----
 72
    65
 73
     2
 40
10.16
 49
5.08
 49
5.08
  0
LTYPE
  2
DRAINAGE
 70
     0
  3
Drainage ---->---->---->----
 72
    65
 73
     2
 40
10.16
 49
5.08
 49
5.08
  0
LTYPE
  2
DOTX2
 70
     0
  3
Dot (2x) .  .  .  .  .  .  .  .  .  .  .  .  .  .
 72
    65
 73
     2
 40
12.7
 49
0.0
 49
-12.7
  0
LTYPE
  2
DOT2
 70
     0
  3
Dot (.5x) ........................................
 72
    65
 73
     2
 40
3.175
 49
0.0
 49
-3.175
  0
LTYPE
  2
DOT
 70
     0
  3
Dot . . . . . . . . . . . . . . . . . . . . . . . .
 72
    65
 73
     2
 40
6.35
 49
0.0
 49
-6.35
  0
LTYPE
  2
DIVIDEX2
 70
     0
  3
Divide (2x) ________  .  .  ________  .  .  _
 72
    65
 73
     6
 40
63.5
 49
25.4
 49
-12.7
 49
0.0
 49
-12.7
 49
0.0
 49
-12.7
  0
LTYPE
  2
DIVIDE2
 70
     0
  3
Divide (.5x) __..__..__..__..__..__..__..__.._
 72
    65
 73
     6
 40
15.875
 49
6.35
 49
-3.175
 49
0.0
 49
-3.175
 49
0.0
 49
-3.175
  0
LTYPE
  2
DIVIDE
 70
     0
  3
Divide ____ . . ____ . . ____ . . ____ . . ____
 72
    65
 73
     6
 40
31.75
 49
12.7
 49
-6.35
 49
0.0
 49
-6.35
 49
0.0
 49
-6.35
  0
LTYPE
  2
DASHEDX2
 70
     0
  3
Dashed (2x) ____  ____  ____  ____  ____  ___
 72
    65
 73
     2
 40
38.09999999999999
 49
25.4
 49
-12.7
  0
LTYPE
  2
DASHED2
 70
     0
  3
Dashed (.5x) _ _ _ _ _ _ _ _ _ _ _ _ _ _ _ _ _ 
 72
    65
 73
     2
 40
9.524999999999999
 49
6.35
 49
-3.175
  0
LTYPE
  2
DASHED
 70
     0
  3
Dashed __ __ __ __ __ __ __ __ __ __ __ __ __ _
 72
    65
 73
     2
 40
19.05
 49
12.7
 49
-6.35
  0
LTYPE
  2
DASHDOTX2
 70
     0
  3
Dash dot (2x) ____  .  ____  .  ____  .  ___
 72
    65
 73
     4
 40
50.8
 49
25.4
 49
-12.7
 49
0.0
 49
-12.7
  0
LTYPE
  2
DASHDOT2
 70
     0
  3
Dash dot (.5x) _._._._._._._._._._._._._._._.
 72
    65
 73
     4
 40
12.7
 49
6.35
 49
-3.175
 49
0.0
 49
-3.175
  0
LTYPE
  2
DASHDOT
 70
     0
  3
Dash dot __ . __ . __ . __ . __ . __ . __ . __
 72
    65
 73
     4
 40
25.4
 49
12.7
 49
-6.35
 49
0.0
 49
-6.35
  0
LTYPE
  2
CUTRIGHT2
 70
     0
  3
G42 reversed----\----\----\----
 72
    65
 73
     2
 40
10.16
 49
5.08
 49
5.08
  0
LTYPE
  2
CUTRIGHT
 70
     0
  3
G42 ----/----/-----/---
 72
    65
 73
     2
 40
10.16
 49
5.08
 49
5.08
  0
LTYPE
  2
CUTLEFT2
 70
     0
  3
G41 reversed----/----/----/----
 72
    65
 73
     2
 40
10.16
 49
5.08
 49
5.08
  0
LTYPE
  2
CUTLEFT
 70
     0
  3
G41 ----\----\----\----
 72
    65
 73
     2
 40
10.16
 49
5.08
 49
5.08
  0
LTYPE
  2
CENTERX2
 70
     0
  3
Center (2x) ________  __  ________  __  _____
 72
    65
 73
     4
 40
101.6
 49
63.5
 49
-12.7
 49
12.7
 49
-12.7
  0
LTYPE
  2
CENTER2
 70
     0
  3
Center (.5x) ___ _ ___ _ ___ _ ___ _ ___ _ ___
 72
    65
 73
     4
 40
28.575
 49
19.05
 49
-3.175
 49
3.175
 49
-3.175
  0
LTYPE
  2
CENTER
 70
     0
  3
Center ____ _ ____ _ ____ _ ____ _ ____ _ ____
 72
    65
 73
     4
 40
50.8
 49
31.75
 49
-6.35
 49
6.35
 49
-6.35
  0
LTYPE
  2
BORDERX2
 70
     0
  3
Border (2x) ____  ____  .  ____  ____  .  ___
 72
    65
 73
     6
 40
88.89999999999999
 49
25.4
 49
-12.7
 49
25.4
 49
-12.7
 49
0.0
 49
-12.7
  0
LTYPE
  2
BORDER2
 70
     0
  3
Border (.5x) __.__.__.__.__.__.__.__.__.__.__.
 72
    65
 73
     6
 40
22.225
 49
6.35
 49
-3.175
 49
6.35
 49
-3.175
 49
0.0
 49
-3.175
  0
LTYPE
  2
BORDER
 70
     0
  3
Border __ __ . __ __ . __ __ . __ __ . __ __ .
 72
    65
 73
     6
 40
44.45
 49
12.7
 49
-6.35
 49
12.7
 49
-6.35
 49
0.0
 49
-6.35
  0
LTYPE
  2
BATTING
 70
     0
  3
Batting SSSSSSSSSSSSSSSSSSSSSSSSSSSSSSSSSSSSSSSSSSSSSSS
 72
    65
 73
     4
 40
10.16254
 49
0.00254
 49
-2.54
 49
-5.08
 49
-2.54
  0
LTYPE
  2
ACAD_ISO15W100
 70
     0
  3
ISO double-dash triple-dot __ __ . . . __ __ . .
 72
    65
 73
    10
 40
39.0
 49
12.0
 49
-3.0
 49
12.0
 49
-3.0
 49
0.0
 49
-3.0
 49
0.0
 49
-3.0
 49
0.0
 49
-3.0
  0
LTYPE
  2
ACAD_ISO14W100
 70
     0
  3
ISO dash triple-dot __ . . . __ . . . __ . . . _
 72
    65
 73
     8
 40
24.0
 49
12.0
 49
-3.0
 49
0.0
 49
-3.0
 49
0.0
 49
-3.0
 49
0.0
 49
-3.0
  0
LTYPE
  2
ACAD_ISO13W100
 70
     0
  3
ISO double-dash double-dot __ __ . . __ __ . . _
 72
    65
 73
     8
 40
36.0
 49
12.0
 49
-3.0
 49
12.0
 49
-3.0
 49
0.0
 49
-3.0
 49
0.0
 49
-3.0
  0
LTYPE
  2
ACAD_ISO12W100
 70
     0
  3
ISO dash double-dot __ . . __ . . __ . . __ . . 
 72
    65
 73
     6
 40
21.0
 49
12.0
 49
-3.0
 49
0.0
 49
-3.0
 49
0.0
 49
-3.0
  0
LTYPE
  2
ACAD_ISO11W100
 70
     0
  3
ISO double-dash dot __ __ . __ __ . __ __ . __ _
 72
    65
 73
     6
 40
33.0
 49
12.0
 49
-3.0
 49
12.0
 49
-3.0
 49
0.0
 49
-3.0
  0
LTYPE
  2
ACAD_ISO10W100
 70
     0
  3
ISO dash dot __ . __ . __ . __ . __ . __ . __ . 
 72
    65
 73
     4
 40
18.0
 49
12.0
 49
-3.0
 49
0.0
 49
-3.0
  0
LTYPE
  2
ACAD_ISO09W100
 70
     0
  3
ISO long-dash double-short-dash ____ __ __ ____
 72
    65
 73
     6
 40
45.0
 49
24.0
 49
-3.0
 49
6.0
 49
-3.0
 49
6.0
 49
-3.0
  0
LTYPE
  2
ACAD_ISO08W100
 70
     0
  3
ISO long-dash short-dash ____ __ ____ __ ____ _
 72
    65
 73
     4
 40
36.0
 49
24.0
 49
-3.0
 49
6.0
 49
-3.0
  0
LTYPE
  2
ACAD_ISO07W100
 70
     0
  3
ISO dot . . . . . . . . . . . . . . . . . . . . 
 72
    65
 73
     2
 40
3.0
 49
0.0
 49
-3.0
  0
LTYPE
  2
ACAD_ISO06W100
 70
     0
  3
ISO long-dash triple-dot ____ ... ____ ... ____
 72
    65
 73
     8
 40
36.0
 49
24.0
 49
-3.0
 49
0.0
 49
-3.0
 49
0.0
 49
-3.0
 49
0.0
 49
-3.0
  0
LTYPE
  2
ACAD_ISO05W100
 70
     0
  3
ISO long-dash double-dot ____ .. ____ .. ____ . 
 72
    65
 73
     6
 40
33.0
 49
24.0
 49
-3.0
 49
0.0
 49
-3.0
 49
0.0
 49
-3.0
  0
LTYPE
  2
ACAD_ISO04W100
 70
     0
  3
ISO long-dash dot ____ . ____ . ____ . ____ . _
 72
    65
 73
     4
 40
30.0
 49
24.0
 49
-3.0
 49
0.0
 49
-3.0
  0
LTYPE
  2
ACAD_ISO03W100
 70
     0
  3
ISO dash space __    __    __    __    __    __
 72
    65
 73
     2
 40
30.0
 49
12.0
 49
-18.0
  0
LTYPE
  2
ACAD_ISO02W100
 70
     0
  3
ISO dash __ __ __ __ __ __ __ __ __ __ __ __ __
 72
    65
 73
     2
 40
15.0
 49
12.0
 49
-3.0
  0
ENDTAB
  0
TABLE
  2
LAYER
 70
     1
  0
LAYER
  2
0
 70
     0
 62
     7
  6
CONTINUOUS
  0
ENDTAB
  0
TABLE
  2
STYLE
 70
    16
  0
STYLE
  2
STANDARD
 70
     0
 40
0.0
 41
1.0
 50
0.0
 71
     0
 42
0.2
  3
txt
  4

  0
STYLE
  2
TEXTSTYLE0
 70
     0
 40
0.0
 41
1.0
 50
0.0
 71
     0
 42
0.2
  3
ltypeshp.shx
  4

  0
STYLE
  2
TEXTSTYLE1
 70
     0
 40
0.0
 41
1.0
 50
0.0
 71
     0
 42
0.2
  3
ltypeshp.shx
  4

  0
STYLE
  2
TEXTSTYLE2
 70
     0
 40
0.0
 41
1.0
 50
0.0
 71
     0
 42
0.2
  3
ltypeshp.shx
  4

  0
STYLE
  2
TEXTSTYLE3
 70
     0
 40
0.0
 41
1.0
 50
0.0
 71
     0
 42
0.2
  3
STANDARD
  4

  0
STYLE
  2
TEXTSTYLE4
 70
     0
 40
0.0
 41
1.0
 50
0.0
 71
     0
 42
0.2
  3
STANDARD
  4

  0
STYLE
  2
TEXTSTYLE5
 70
     0
 40
0.0
 41
1.0
 50
0.0
 71
     0
 42
0.2
  3
ltypeshp.shx
  4

  0
STYLE
  2
TEXTSTYLE6
 70
     0
 40
0.0
 41
1.0
 50
0.0
 71
     0
 42
0.2
  3
ltypeshp.shx
  4

  0
STYLE
  2
TEXTSTYLE7
 70
     0
 40
0.0
 41
1.0
 50
0.0
 71
     0
 42
0.2
  3
qcadshp.shx
  4

  0
STYLE
  2
TEXTSTYLE8
 70
     0
 40
0.0
 41
1.0
 50
0.0
 71
     0
 42
0.2
  3
qcadshp.shx
  4

  0
STYLE
  2
TEXTSTYLE9
 70
     0
 40
0.0
 41
1.0
 50
0.0
 71
     0
 42
0.2
  3
qcadshp.shx
  4

  0
STYLE
  2
TEXTSTYLE10
 70
     0
 40
0.0
 41
1.0
 50
0.0
 71
     0
 42
0.2
  3
qcadshp.shx
  4

  0
STYLE
  2
TEXTSTYLE11
 70
     0
 40
0.0
 41
1.0
 50
0.0
 71
     0
 42
0.2
  3
qcadshp.shx
  4

  0
STYLE
  2
TEXTSTYLE12
 70
     0
 40
0.0
 41
1.0
 50
0.0
 71
     0
 42
0.2
  3
qcadshp.shx
  4

  0
STYLE
  2
TEXTSTYLE13
 70
     0
 40
0.0
 41
1.0
 50
0.0
 71
     0
 42
0.2
  3
ltypeshp.shx
  4

  0
STYLE
  2
TEXTSTYLE14
 70
     0
 40
0.0
 41
1.0
 50
0.0
 71
     0
 42
0.2
  3
ltypeshp.shx
  4

  0
ENDTAB
  0
TABLE
  2
VIEW
 70
     0
  0
ENDTAB
  0
TABLE
  2
UCS
 70
     0
  0
ENDTAB
  0
ENDSEC
  0
SECTION
  2
BLOCKS
  0
ENDSEC
  0
SECTION
  2
ENTITIES
  0
POLYLINE
  5
3C
  8
0
 62
     1
 66
     1
 10
0.0
 20
0.0
 30
0.0
  0
VERTEX
  5
158
  8
0
 62
     1
 10
250.1390389194671
 20
-522.1431123717308
 30
0.0
  0
VERTEX
  5
159
  8
0
 62
     1
 10
250.0775791989121
 20
-522.1098429112083
 30
0.0
  0
VERTEX
  5
15A
  8
0
 62
     1
 10
250.0093321511204
 20
-522.0766875062342
 30
0.0
  0
VERTEX
  5
15B
  8
0
 62
     1
 10
249.934802831668
 20
-522.0438612662315
 30
0.0
  0
VERTEX
  5
15C
  8
0
 62
     1
 10
249.8544962961309
 20
-522.0115793006227
 30
0.0
  0
VERTEX
  5
15D
  8
0
 62
     1
 10
249.7689176000848
 20
-521.9800567188298
 30
0.0
  0
VERTEX
  5
15E
  8
0
 62
     1
 10
249.6785717991058
 20
-521.9495086302758
 30
0.0
  0
VERTEX
  5
15F
  8
0
 62
     1
 10
249.5839639487697
 20
-521.9201501443828
 30
0.0
  0
VERTEX
  5
160
  8
0
 62
     1
 10
249.4855991046523
 20
-521.8921963705735
 30
0.0
  0
VERTEX
  5
161
  8
0
 62
     1
 10
249.3839823223296
 20
-521.86586241827
 30
0.0
  0
VERTEX
  5
162
  8
0
 62
     1
 10
249.2796186573777
 20
-521.8413633968954
 30
0.0
  0
VERTEX
  5
163
  8
0
 62
     1
 10
249.1730131653721
 20
-521.8189144158716
 30
0.0
  0
VERTEX
  5
164
  8
0
 62
     1
 10
249.064670901889
 20
-521.7987305846215
 30
0.0
  0
VERTEX
  5
165
  8
0
 62
     1
 10
248.9550969225042
 20
-521.7810270125672
 30
0.0
  0
VERTEX
  5
166
  8
0
 62
     1
 10
248.8447962827936
 20
-521.7660188091313
 30
0.0
  0
VERTEX
  5
167
  8
0
 62
     1
 10
248.7342740383331
 20
-521.7539210837364
 30
0.0
  0
VERTEX
  5
168
  8
0
 62
     1
 10
248.6240352446986
 20
-521.7449489458049
 30
0.0
  0
VERTEX
  5
169
  8
0
 62
     1
 10
248.514584957466
 20
-521.7393175047591
 30
0.0
  0
VERTEX
  5
16A
  8
0
 62
     1
 10
248.4064282322112
 20
-521.7372418700218
 30
0.0
  0
VERTEX
  5
16B
  8
0
 62
     1
 10
248.3000701245102
 20
-521.7389371510152
 30
0.0
  0
VERTEX
  5
16C
  8
0
 62
     1
 10
248.1960156899387
 20
-521.7446184571619
 30
0.0
  0
VERTEX
  5
16D
  8
0
 62
     1
 10
248.0947699840728
 20
-521.7545008978843
 30
0.0
  0
VERTEX
  5
16E
  8
0
 62
     1
 10
247.9968380624883
 20
-521.768799582605
 30
0.0
  0
VERTEX
  5
16F
  8
0
 62
     1
 10
247.9027249807611
 20
-521.7877296207463
 30
0.0
  0
VERTEX
  5
170
  8
0
 62
     1
 10
247.8129357944671
 20
-521.8115061217308
 30
0.0
  0
SEQEND
  5
58D
  8
0
 62
     1
  0
POLYLINE
  5
3D
  8
0
 62
     1
 66
     1
 10
0.0
 20
0.0
 30
0.0
  0
VERTEX
  5
171
  8
0
 62
     1
 10
247.8129357944671
 20
-521.8115061217308
 30
0.0
  0
VERTEX
  5
172
  8
0
 62
     1
 10
247.7805994103933
 20
-521.8208989837824
 30
0.0
  0
VERTEX
  5
173
  8
0
 62
     1
 10
247.7483187453135
 20
-521.8297762723746
 30
0.0
  0
VERTEX
  5
174
  8
0
 62
     1
 10
247.7162608951751
 20
-521.838301129055
 30
0.0
  0
VERTEX
  5
175
  8
0
 62
     1
 10
247.6845929559254
 20
-521.8466366953709
 30
0.0
  0
VERTEX
  5
176
  8
0
 62
     1
 10
247.6534820235117
 20
-521.8549461128695
 30
0.0
  0
VERTEX
  5
177
  8
0
 62
     1
 10
247.6230951938812
 20
-521.863392523098
 30
0.0
  0
VERTEX
  5
178
  8
0
 62
     1
 10
247.5935995629811
 20
-521.8721390676039
 30
0.0
  0
VERTEX
  5
179
  8
0
 62
     1
 10
247.5651622267588
 20
-521.8813488879345
 30
0.0
  0
VERTEX
  5
17A
  8
0
 62
     1
 10
247.5379502811614
 20
-521.8911851256371
 30
0.0
  0
VERTEX
  5
17B
  8
0
 62
     1
 10
247.5121308221364
 20
-521.9018109222588
 30
0.0
  0
VERTEX
  5
17C
  8
0
 62
     1
 10
247.4878709456309
 20
-521.9133894193473
 30
0.0
  0
VERTEX
  5
17D
  8
0
 62
     1
 10
247.4653377475921
 20
-521.9260837584495
 30
0.0
  0
VERTEX
  5
17E
  8
0
 62
     1
 10
247.4446983239674
 20
-521.9400570811131
 30
0.0
  0
VERTEX
  5
17F
  8
0
 62
     1
 10
247.4261197707041
 20
-521.955472528885
 30
0.0
  0
VERTEX
  5
180
  8
0
 62
     1
 10
247.4097691837493
 20
-521.9724932433129
 30
0.0
  0
VERTEX
  5
181
  8
0
 62
     1
 10
247.3958136590504
 20
-521.9912823659438
 30
0.0
  0
VERTEX
  5
182
  8
0
 62
     1
 10
247.3844202925547
 20
-522.0120030383252
 30
0.0
  0
VERTEX
  5
183
  8
0
 62
     1
 10
247.3757561802093
 20
-522.0348184020042
 30
0.0
  0
VERTEX
  5
184
  8
0
 62
     1
 10
247.3699884179616
 20
-522.0598915985283
 30
0.0
  0
VERTEX
  5
185
  8
0
 62
     1
 10
247.3672841017587
 20
-522.087385769445
 30
0.0
  0
VERTEX
  5
186
  8
0
 62
     1
 10
247.3678103275482
 20
-522.1174640563011
 30
0.0
  0
VERTEX
  5
187
  8
0
 62
     1
 10
247.371734191277
 20
-522.1502896006443
 30
0.0
  0
VERTEX
  5
188
  8
0
 62
     1
 10
247.3792227888925
 20
-522.1860255440217
 30
0.0
  0
VERTEX
  5
189
  8
0
 62
     1
 10
247.3904432163421
 20
-522.2248350279808
 30
0.0
  0
SEQEND
  5
58E
  8
0
 62
     1
  0
POLYLINE
  5
3E
  8
0
 62
     1
 66
     1
 10
0.0
 20
0.0
 30
0.0
  0
VERTEX
  5
18A
  8
0
 62
     1
 10
247.3904432163421
 20
-522.2248350279808
 30
0.0
  0
VERTEX
  5
18B
  8
0
 62
     1
 10
247.4836552779345
 20
-522.4104722247548
 30
0.0
  0
VERTEX
  5
18C
  8
0
 62
     1
 10
247.5827308223624
 20
-522.5838838228756
 30
0.0
  0
VERTEX
  5
18D
  8
0
 62
     1
 10
247.686929230899
 20
-522.7459655859948
 30
0.0
  0
VERTEX
  5
18E
  8
0
 62
     1
 10
247.7955098848172
 20
-522.8976132777639
 30
0.0
  0
VERTEX
  5
18F
  8
0
 62
     1
 10
247.9077321653902
 20
-523.0397226618344
 30
0.0
  0
VERTEX
  5
190
  8
0
 62
     1
 10
248.0228554538909
 20
-523.1731895018578
 30
0.0
  0
VERTEX
  5
191
  8
0
 62
     1
 10
248.1401391315925
 20
-523.2989095614856
 30
0.0
  0
VERTEX
  5
192
  8
0
 62
     1
 10
248.258842579768
 20
-523.4177786043697
 30
0.0
  0
VERTEX
  5
193
  8
0
 62
     1
 10
248.3782251796905
 20
-523.5306923941612
 30
0.0
  0
VERTEX
  5
194
  8
0
 62
     1
 10
248.497546312633
 20
-523.6385466945118
 30
0.0
  0
VERTEX
  5
195
  8
0
 62
     1
 10
248.6160653598685
 20
-523.742237269073
 30
0.0
  0
VERTEX
  5
196
  8
0
 62
     1
 10
248.7330417026702
 20
-523.8426598814965
 30
0.0
  0
VERTEX
  5
197
  8
0
 62
     1
 10
248.8477347223111
 20
-523.9407102954335
 30
0.0
  0
VERTEX
  5
198
  8
0
 62
     1
 10
248.9594038000643
 20
-524.0372842745358
 30
0.0
  0
VERTEX
  5
199
  8
0
 62
     1
 10
249.0673083172027
 20
-524.1332775824548
 30
0.0
  0
VERTEX
  5
19A
  8
0
 62
     1
 10
249.1707076549995
 20
-524.2295859828419
 30
0.0
  0
VERTEX
  5
19B
  8
0
 62
     1
 10
249.2688611947278
 20
-524.3271052393491
 30
0.0
  0
VERTEX
  5
19C
  8
0
 62
     1
 10
249.3610283176605
 20
-524.4267311156273
 30
0.0
  0
VERTEX
  5
19D
  8
0
 62
     1
 10
249.4464684050707
 20
-524.5293593753285
 30
0.0
  0
VERTEX
  5
19E
  8
0
 62
     1
 10
249.5244408382316
 20
-524.6358857821041
 30
0.0
  0
VERTEX
  5
19F
  8
0
 62
     1
 10
249.5942049984161
 20
-524.7472060996056
 30
0.0
  0
VERTEX
  5
1A0
  8
0
 62
     1
 10
249.6550202668973
 20
-524.8642160914845
 30
0.0
  0
VERTEX
  5
1A1
  8
0
 62
     1
 10
249.7061460249483
 20
-524.9878115213924
 30
0.0
  0
VERTEX
  5
1A2
  8
0
 62
     1
 10
249.7468416538421
 20
-525.1188881529808
 30
0.0
  0
SEQEND
  5
58F
  8
0
 62
     1
  0
POLYLINE
  5
3F
  8
0
 62
     1
 66
     1
 10
0.0
 20
0.0
 30
0.0
  0
VERTEX
  5
1A3
  8
0
 62
     1
 10
249.7468416538421
 20
-525.1188881529808
 30
0.0
  0
VERTEX
  5
1A4
  8
0
 62
     1
 10
249.7525822617467
 20
-525.1552408097622
 30
0.0
  0
VERTEX
  5
1A5
  8
0
 62
     1
 10
249.7496969451381
 20
-525.1913176103557
 30
0.0
  0
VERTEX
  5
1A6
  8
0
 62
     1
 10
249.7387744075957
 20
-525.2272562239647
 30
0.0
  0
VERTEX
  5
1A7
  8
0
 62
     1
 10
249.7204033526992
 20
-525.2631943197922
 30
0.0
  0
VERTEX
  5
1A8
  8
0
 62
     1
 10
249.6951724840276
 20
-525.2992695670412
 30
0.0
  0
VERTEX
  5
1A9
  8
0
 62
     1
 10
249.6636705051605
 20
-525.3356196349143
 30
0.0
  0
VERTEX
  5
1AA
  8
0
 62
     1
 10
249.6264861196771
 20
-525.3723821926151
 30
0.0
  0
VERTEX
  5
1AB
  8
0
 62
     1
 10
249.5842080311569
 20
-525.4096949093465
 30
0.0
  0
VERTEX
  5
1AC
  8
0
 62
     1
 10
249.5374249431793
 20
-525.4476954543114
 30
0.0
  0
VERTEX
  5
1AD
  8
0
 62
     1
 10
249.4867255593235
 20
-525.4865214967127
 30
0.0
  0
VERTEX
  5
1AE
  8
0
 62
     1
 10
249.4326985831691
 20
-525.5263107057535
 30
0.0
  0
VERTEX
  5
1AF
  8
0
 62
     1
 10
249.3759327182952
 20
-525.5672007506371
 30
0.0
  0
VERTEX
  5
1B0
  8
0
 62
     1
 10
249.3170166682815
 20
-525.6093293005661
 30
0.0
  0
VERTEX
  5
1B1
  8
0
 62
     1
 10
249.2565391367071
 20
-525.6528340247437
 30
0.0
  0
VERTEX
  5
1B2
  8
0
 62
     1
 10
249.1950888271514
 20
-525.6978525923729
 30
0.0
  0
VERTEX
  5
1B3
  8
0
 62
     1
 10
249.133254443194
 20
-525.7445226726567
 30
0.0
  0
VERTEX
  5
1B4
  8
0
 62
     1
 10
249.071624688414
 20
-525.7929819347983
 30
0.0
  0
VERTEX
  5
1B5
  8
0
 62
     1
 10
249.0107882663909
 20
-525.8433680480003
 30
0.0
  0
VERTEX
  5
1B6
  8
0
 62
     1
 10
248.9513338807041
 20
-525.8958186814662
 30
0.0
  0
VERTEX
  5
1B7
  8
0
 62
     1
 10
248.893850234933
 20
-525.9504715043986
 30
0.0
  0
VERTEX
  5
1B8
  8
0
 62
     1
 10
248.8389260326568
 20
-526.0074641860008
 30
0.0
  0
VERTEX
  5
1B9
  8
0
 62
     1
 10
248.787149977455
 20
-526.0669343954758
 30
0.0
  0
VERTEX
  5
1BA
  8
0
 62
     1
 10
248.739110772907
 20
-526.1290198020264
 30
0.0
  0
VERTEX
  5
1BB
  8
0
 62
     1
 10
248.6953971225921
 20
-526.1938580748558
 30
0.0
  0
SEQEND
  5
590
  8
0
 62
     1
  0
POLYLINE
  5
40
  8
0
 62
     1
 66
     1
 10
0.0
 20
0.0
 30
0.0
  0
VERTEX
  5
1BC
  8
0
 62
     1
 10
248.6953971225921
 20
-526.1938580748558
 30
0.0
  0
VERTEX
  5
1BD
  8
0
 62
     1
 10
248.7447309052403
 20
-526.2430611876771
 30
0.0
  0
VERTEX
  5
1BE
  8
0
 62
     1
 10
248.7946632333868
 20
-526.2830828634934
 30
0.0
  0
VERTEX
  5
1BF
  8
0
 62
     1
 10
248.8451822765533
 20
-526.314584381771
 30
0.0
  0
VERTEX
  5
1C0
  8
0
 62
     1
 10
248.8962762042617
 20
-526.3382270219769
 30
0.0
  0
VERTEX
  5
1C1
  8
0
 62
     1
 10
248.9479331860337
 20
-526.3546720635768
 30
0.0
  0
VERTEX
  5
1C2
  8
0
 62
     1
 10
249.0001413913909
 20
-526.3645807860374
 30
0.0
  0
VERTEX
  5
1C3
  8
0
 62
     1
 10
249.0528889898553
 20
-526.3686144688253
 30
0.0
  0
VERTEX
  5
1C4
  8
0
 62
     1
 10
249.1061641509486
 20
-526.3674343914068
 30
0.0
  0
VERTEX
  5
1C5
  8
0
 62
     1
 10
249.1599550441924
 20
-526.3617018332482
 30
0.0
  0
VERTEX
  5
1C6
  8
0
 62
     1
 10
249.2142498391087
 20
-526.352078073816
 30
0.0
  0
VERTEX
  5
1C7
  8
0
 62
     1
 10
249.269036705219
 20
-526.3392243925766
 30
0.0
  0
VERTEX
  5
1C8
  8
0
 62
     1
 10
249.3243038120452
 20
-526.3238020689964
 30
0.0
  0
VERTEX
  5
1C9
  8
0
 62
     1
 10
249.3800393291091
 20
-526.306472382542
 30
0.0
  0
VERTEX
  5
1CA
  8
0
 62
     1
 10
249.4362314259323
 20
-526.2878966126796
 30
0.0
  0
VERTEX
  5
1CB
  8
0
 62
     1
 10
249.4928682720367
 20
-526.2687360388757
 30
0.0
  0
VERTEX
  5
1CC
  8
0
 62
     1
 10
249.549938036944
 20
-526.2496519405966
 30
0.0
  0
VERTEX
  5
1CD
  8
0
 62
     1
 10
249.6074288901759
 20
-526.2313055973088
 30
0.0
  0
VERTEX
  5
1CE
  8
0
 62
     1
 10
249.6653290012542
 20
-526.2143582884788
 30
0.0
  0
VERTEX
  5
1CF
  8
0
 62
     1
 10
249.7236265397007
 20
-526.199471293573
 30
0.0
  0
VERTEX
  5
1D0
  8
0
 62
     1
 10
249.7823096750371
 20
-526.1873058920578
 30
0.0
  0
VERTEX
  5
1D1
  8
0
 62
     1
 10
249.8413665767852
 20
-526.1785233633996
 30
0.0
  0
VERTEX
  5
1D2
  8
0
 62
     1
 10
249.9007854144668
 20
-526.1737849870647
 30
0.0
  0
VERTEX
  5
1D3
  8
0
 62
     1
 10
249.9605543576034
 20
-526.1737520425196
 30
0.0
  0
VERTEX
  5
1D4
  8
0
 62
     1
 10
250.0206615757171
 20
-526.1790858092309
 30
0.0
  0
SEQEND
  5
591
  8
0
 62
     1
  0
POLYLINE
  5
41
  8
0
 62
     1
 66
     1
 10
0.0
 20
0.0
 30
0.0
  0
VERTEX
  5
1D5
  8
0
 62
     1
 10
250.0206615757171
 20
-526.1790858092309
 30
0.0
  0
VERTEX
  5
1D6
  8
0
 62
     1
 10
249.970895220471
 20
-526.2281197117453
 30
0.0
  0
VERTEX
  5
1D7
  8
0
 62
     1
 10
249.922112602238
 20
-526.2744236309087
 30
0.0
  0
VERTEX
  5
1D8
  8
0
 62
     1
 10
249.8744234996978
 20
-526.3182439017296
 30
0.0
  0
VERTEX
  5
1D9
  8
0
 62
     1
 10
249.8279376915302
 20
-526.3598268592164
 30
0.0
  0
VERTEX
  5
1DA
  8
0
 62
     1
 10
249.7827649564149
 20
-526.3994188383773
 30
0.0
  0
VERTEX
  5
1DB
  8
0
 62
     1
 10
249.7390150730315
 20
-526.437266174221
 30
0.0
  0
VERTEX
  5
1DC
  8
0
 62
     1
 10
249.6967978200601
 20
-526.4736152017558
 30
0.0
  0
VERTEX
  5
1DD
  8
0
 62
     1
 10
249.6562229761801
 20
-526.5087122559902
 30
0.0
  0
VERTEX
  5
1DE
  8
0
 62
     1
 10
249.6174003200714
 20
-526.5428036719322
 30
0.0
  0
VERTEX
  5
1DF
  8
0
 62
     1
 10
249.5804396304137
 20
-526.5761357845907
 30
0.0
  0
VERTEX
  5
1E0
  8
0
 62
     1
 10
249.5454506858867
 20
-526.6089549289738
 30
0.0
  0
VERTEX
  5
1E1
  8
0
 62
     1
 10
249.5125432651702
 20
-526.6415074400902
 30
0.0
  0
VERTEX
  5
1E2
  8
0
 62
     1
 10
249.481827146944
 20
-526.6740396529481
 30
0.0
  0
VERTEX
  5
1E3
  8
0
 62
     1
 10
249.4534121098878
 20
-526.7067979025559
 30
0.0
  0
VERTEX
  5
1E4
  8
0
 62
     1
 10
249.4274079326813
 20
-526.7400285239221
 30
0.0
  0
VERTEX
  5
1E5
  8
0
 62
     1
 10
249.4039243940042
 20
-526.7739778520549
 30
0.0
  0
VERTEX
  5
1E6
  8
0
 62
     1
 10
249.3830712725363
 20
-526.808892221963
 30
0.0
  0
VERTEX
  5
1E7
  8
0
 62
     1
 10
249.3649583469573
 20
-526.8450179686547
 30
0.0
  0
VERTEX
  5
1E8
  8
0
 62
     1
 10
249.3496953959471
 20
-526.8826014271383
 30
0.0
  0
VERTEX
  5
1E9
  8
0
 62
     1
 10
249.3373921981853
 20
-526.9218889324223
 30
0.0
  0
VERTEX
  5
1EA
  8
0
 62
     1
 10
249.3281585323516
 20
-526.9631268195153
 30
0.0
  0
VERTEX
  5
1EB
  8
0
 62
     1
 10
249.3221041771259
 20
-527.0065614234254
 30
0.0
  0
VERTEX
  5
1EC
  8
0
 62
     1
 10
249.3193389111878
 20
-527.0524390791611
 30
0.0
  0
VERTEX
  5
1ED
  8
0
 62
     1
 10
249.3199725132171
 20
-527.1010061217308
 30
0.0
  0
SEQEND
  5
592
  8
0
 62
     1
  0
POLYLINE
  5
42
  8
0
 62
     1
 66
     1
 10
0.0
 20
0.0
 30
0.0
  0
VERTEX
  5
1EE
  8
0
 62
     1
 10
249.3199725132171
 20
-527.1010061217308
 30
0.0
  0
VERTEX
  5
1EF
  8
0
 62
     1
 10
249.3332763170072
 20
-527.1452803525749
 30
0.0
  0
VERTEX
  5
1F0
  8
0
 62
     1
 10
249.3536429093579
 20
-527.1815321462173
 30
0.0
  0
VERTEX
  5
1F1
  8
0
 62
     1
 10
249.3804134113494
 20
-527.2104933379173
 30
0.0
  0
VERTEX
  5
1F2
  8
0
 62
     1
 10
249.412928944062
 20
-527.2328957629345
 30
0.0
  0
VERTEX
  5
1F3
  8
0
 62
     1
 10
249.4505306285758
 20
-527.2494712565281
 30
0.0
  0
VERTEX
  5
1F4
  8
0
 62
     1
 10
249.492559585971
 20
-527.2609516539574
 30
0.0
  0
VERTEX
  5
1F5
  8
0
 62
     1
 10
249.5383569373278
 20
-527.2680687904817
 30
0.0
  0
VERTEX
  5
1F6
  8
0
 62
     1
 10
249.5872638037264
 20
-527.2715545013605
 30
0.0
  0
VERTEX
  5
1F7
  8
0
 62
     1
 10
249.6386213062469
 20
-527.2721406218529
 30
0.0
  0
VERTEX
  5
1F8
  8
0
 62
     1
 10
249.6917705659696
 20
-527.2705589872184
 30
0.0
  0
VERTEX
  5
1F9
  8
0
 62
     1
 10
249.7460527039746
 20
-527.2675414327163
 30
0.0
  0
VERTEX
  5
1FA
  8
0
 62
     1
 10
249.8008088413421
 20
-527.2638197936058
 30
0.0
  0
VERTEX
  5
1FB
  8
0
 62
     1
 10
249.8553800991523
 20
-527.2601259051464
 30
0.0
  0
VERTEX
  5
1FC
  8
0
 62
     1
 10
249.9091075984855
 20
-527.2571916025975
 30
0.0
  0
VERTEX
  5
1FD
  8
0
 62
     1
 10
249.9613324604217
 20
-527.2557487212182
 30
0.0
  0
VERTEX
  5
1FE
  8
0
 62
     1
 10
250.0113958060412
 20
-527.2565290962679
 30
0.0
  0
VERTEX
  5
1FF
  8
0
 62
     1
 10
250.0586387564241
 20
-527.260264563006
 30
0.0
  0
VERTEX
  5
200
  8
0
 62
     1
 10
250.1024024326507
 20
-527.2676869566917
 30
0.0
  0
VERTEX
  5
201
  8
0
 62
     1
 10
250.1420279558011
 20
-527.2795281125846
 30
0.0
  0
VERTEX
  5
202
  8
0
 62
     1
 10
250.1768564469555
 20
-527.2965198659438
 30
0.0
  0
VERTEX
  5
203
  8
0
 62
     1
 10
250.2062290271942
 20
-527.3193940520287
 30
0.0
  0
VERTEX
  5
204
  8
0
 62
     1
 10
250.2294868175972
 20
-527.3488825060987
 30
0.0
  0
VERTEX
  5
205
  8
0
 62
     1
 10
250.2459709392448
 20
-527.3857170634128
 30
0.0
  0
VERTEX
  5
206
  8
0
 62
     1
 10
250.2550225132171
 20
-527.4306295592309
 30
0.0
  0
SEQEND
  5
593
  8
0
 62
     1
  0
POLYLINE
  5
43
  8
0
 62
     1
 66
     1
 10
0.0
 20
0.0
 30
0.0
  0
VERTEX
  5
207
  8
0
 62
     1
 10
250.2550225132171
 20
-527.4306295592309
 30
0.0
  0
VERTEX
  5
208
  8
0
 62
     1
 10
250.2611759359613
 20
-527.6130203051426
 30
0.0
  0
VERTEX
  5
209
  8
0
 62
     1
 10
250.2421978932175
 20
-527.7905635750276
 30
0.0
  0
VERTEX
  5
20A
  8
0
 62
     1
 10
250.1995881939117
 20
-527.9632794913292
 30
0.0
  0
VERTEX
  5
20B
  8
0
 62
     1
 10
250.13484664697
 20
-528.1311881764906
 30
0.0
  0
VERTEX
  5
20C
  8
0
 62
     1
 10
250.0494730613185
 20
-528.2943097529553
 30
0.0
  0
VERTEX
  5
20D
  8
0
 62
     1
 10
249.9449672458831
 20
-528.4526643431664
 30
0.0
  0
VERTEX
  5
20E
  8
0
 62
     1
 10
249.82282900959
 20
-528.6062720695671
 30
0.0
  0
VERTEX
  5
20F
  8
0
 62
     1
 10
249.6845581613653
 20
-528.7551530546012
 30
0.0
  0
VERTEX
  5
210
  8
0
 62
     1
 10
249.5316545101348
 20
-528.8993274207115
 30
0.0
  0
VERTEX
  5
211
  8
0
 62
     1
 10
249.3656178648248
 20
-529.0388152903416
 30
0.0
  0
VERTEX
  5
212
  8
0
 62
     1
 10
249.1879480343613
 20
-529.1736367859346
 30
0.0
  0
VERTEX
  5
213
  8
0
 62
     1
 10
249.0001448276702
 20
-529.303812029934
 30
0.0
  0
VERTEX
  5
214
  8
0
 62
     1
 10
248.8037080536778
 20
-529.4293611447829
 30
0.0
  0
VERTEX
  5
215
  8
0
 62
     1
 10
248.6001375213099
 20
-529.5503042529247
 30
0.0
  0
VERTEX
  5
216
  8
0
 62
     1
 10
248.3909330394928
 20
-529.6666614768028
 30
0.0
  0
VERTEX
  5
217
  8
0
 62
     1
 10
248.1775944171523
 20
-529.7784529388605
 30
0.0
  0
VERTEX
  5
218
  8
0
 62
     1
 10
247.9616214632147
 20
-529.8856987615409
 30
0.0
  0
VERTEX
  5
219
  8
0
 62
     1
 10
247.7445139866058
 20
-529.9884190672874
 30
0.0
  0
VERTEX
  5
21A
  8
0
 62
     1
 10
247.5277717962518
 20
-530.0866339785434
 30
0.0
  0
VERTEX
  5
21B
  8
0
 62
     1
 10
247.3128947010788
 20
-530.1803636177522
 30
0.0
  0
VERTEX
  5
21C
  8
0
 62
     1
 10
247.1013825100127
 20
-530.269628107357
 30
0.0
  0
VERTEX
  5
21D
  8
0
 62
     1
 10
246.8947350319798
 20
-530.3544475698012
 30
0.0
  0
VERTEX
  5
21E
  8
0
 62
     1
 10
246.6944520759058
 20
-530.434842127528
 30
0.0
  0
VERTEX
  5
21F
  8
0
 62
     1
 10
246.5020334507171
 20
-530.5108319029808
 30
0.0
  0
SEQEND
  5
594
  8
0
 62
     1
  0
POLYLINE
  5
44
  8
0
 62
     1
 66
     1
 10
0.0
 20
0.0
 30
0.0
  0
VERTEX
  5
220
  8
0
 62
     1
 10
246.5020334507171
 20
-530.5108319029808
 30
0.0
  0
VERTEX
  5
221
  8
0
 62
     1
 10
246.408175772777
 20
-530.5495059746531
 30
0.0
  0
VERTEX
  5
222
  8
0
 62
     1
 10
246.3136543188631
 20
-530.5919495333249
 30
0.0
  0
VERTEX
  5
223
  8
0
 62
     1
 10
246.2186875232879
 20
-530.6378494772911
 30
0.0
  0
VERTEX
  5
224
  8
0
 62
     1
 10
246.1234938203641
 20
-530.6868927048472
 30
0.0
  0
VERTEX
  5
225
  8
0
 62
     1
 10
246.0282916444043
 20
-530.738766114288
 30
0.0
  0
VERTEX
  5
226
  8
0
 62
     1
 10
245.933299429721
 20
-530.7931566039085
 30
0.0
  0
VERTEX
  5
227
  8
0
 62
     1
 10
245.8387356106269
 20
-530.8497510720041
 30
0.0
  0
VERTEX
  5
228
  8
0
 62
     1
 10
245.7448186214347
 20
-530.9082364168697
 30
0.0
  0
VERTEX
  5
229
  8
0
 62
     1
 10
245.6517668964569
 20
-530.9682995368004
 30
0.0
  0
VERTEX
  5
22A
  8
0
 62
     1
 10
245.5597988700061
 20
-531.0296273300912
 30
0.0
  0
VERTEX
  5
22B
  8
0
 62
     1
 10
245.4691329763948
 20
-531.0919066950374
 30
0.0
  0
VERTEX
  5
22C
  8
0
 62
     1
 10
245.3799876499359
 20
-531.154824529934
 30
0.0
  0
VERTEX
  5
22D
  8
0
 62
     1
 10
245.2925813249418
 20
-531.2180677330758
 30
0.0
  0
VERTEX
  5
22E
  8
0
 62
     1
 10
245.2071324357251
 20
-531.2813232027584
 30
0.0
  0
VERTEX
  5
22F
  8
0
 62
     1
 10
245.1238594165985
 20
-531.3442778372764
 30
0.0
  0
VERTEX
  5
230
  8
0
 62
     1
 10
245.0429807018745
 20
-531.4066185349252
 30
0.0
  0
VERTEX
  5
231
  8
0
 62
     1
 10
244.9647147258659
 20
-531.4680321939999
 30
0.0
  0
VERTEX
  5
232
  8
0
 62
     1
 10
244.8892799228851
 20
-531.5282057127952
 30
0.0
  0
VERTEX
  5
233
  8
0
 62
     1
 10
244.8168947272448
 20
-531.5868259896066
 30
0.0
  0
VERTEX
  5
234
  8
0
 62
     1
 10
244.7477775732576
 20
-531.643579922729
 30
0.0
  0
VERTEX
  5
235
  8
0
 62
     1
 10
244.6821468952361
 20
-531.6981544104576
 30
0.0
  0
VERTEX
  5
236
  8
0
 62
     1
 10
244.620221127493
 20
-531.7502363510873
 30
0.0
  0
VERTEX
  5
237
  8
0
 62
     1
 10
244.5622187043408
 20
-531.7995126429134
 30
0.0
  0
VERTEX
  5
238
  8
0
 62
     1
 10
244.5083580600921
 20
-531.8456701842308
 30
0.0
  0
SEQEND
  5
595
  8
0
 62
     1
  0
POLYLINE
  5
45
  8
0
 62
     1
 66
     1
 10
0.0
 20
0.0
 30
0.0
  0
VERTEX
  5
239
  8
0
 62
     1
 10
244.5083580600921
 20
-531.8456701842308
 30
0.0
  0
VERTEX
  5
23A
  8
0
 62
     1
 10
244.4395192680965
 20
-531.906129221277
 30
0.0
  0
VERTEX
  5
23B
  8
0
 62
     1
 10
244.3730702420311
 20
-531.9668984864588
 30
0.0
  0
VERTEX
  5
23C
  8
0
 62
     1
 10
244.3089051708404
 20
-532.0279142088891
 30
0.0
  0
VERTEX
  5
23D
  8
0
 62
     1
 10
244.2469182434689
 20
-532.08911261768
 30
0.0
  0
VERTEX
  5
23E
  8
0
 62
     1
 10
244.187003648861
 20
-532.1504299419439
 30
0.0
  0
VERTEX
  5
23F
  8
0
 62
     1
 10
244.1290555759612
 20
-532.2118024107933
 30
0.0
  0
VERTEX
  5
240
  8
0
 62
     1
 10
244.0729682137142
 20
-532.2731662533407
 30
0.0
  0
VERTEX
  5
241
  8
0
 62
     1
 10
244.0186357510643
 20
-532.3344576986984
 30
0.0
  0
VERTEX
  5
242
  8
0
 62
     1
 10
243.9659523769561
 20
-532.3956129759788
 30
0.0
  0
VERTEX
  5
243
  8
0
 62
     1
 10
243.9148122803341
 20
-532.4565683142945
 30
0.0
  0
VERTEX
  5
244
  8
0
 62
     1
 10
243.8651096501427
 20
-532.5172599427576
 30
0.0
  0
VERTEX
  5
245
  8
0
 62
     1
 10
243.8167386753265
 20
-532.5776240904808
 30
0.0
  0
VERTEX
  5
246
  8
0
 62
     1
 10
243.7695935448299
 20
-532.6375969865763
 30
0.0
  0
VERTEX
  5
247
  8
0
 62
     1
 10
243.7235684475975
 20
-532.6971148601567
 30
0.0
  0
VERTEX
  5
248
  8
0
 62
     1
 10
243.6785575725738
 20
-532.7561139403342
 30
0.0
  0
VERTEX
  5
249
  8
0
 62
     1
 10
243.6344551087032
 20
-532.8145304562215
 30
0.0
  0
VERTEX
  5
24A
  8
0
 62
     1
 10
243.5911552449303
 20
-532.8723006369308
 30
0.0
  0
VERTEX
  5
24B
  8
0
 62
     1
 10
243.5485521701995
 20
-532.9293607115745
 30
0.0
  0
VERTEX
  5
24C
  8
0
 62
     1
 10
243.5065400734554
 20
-532.9856469092651
 30
0.0
  0
VERTEX
  5
24D
  8
0
 62
     1
 10
243.4650131436424
 20
-533.041095459115
 30
0.0
  0
VERTEX
  5
24E
  8
0
 62
     1
 10
243.4238655697052
 20
-533.0956425902366
 30
0.0
  0
VERTEX
  5
24F
  8
0
 62
     1
 10
243.382991540588
 20
-533.1492245317424
 30
0.0
  0
VERTEX
  5
250
  8
0
 62
     1
 10
243.3422852452355
 20
-533.2017775127446
 30
0.0
  0
VERTEX
  5
251
  8
0
 62
     1
 10
243.3016408725921
 20
-533.2532377623558
 30
0.0
  0
SEQEND
  5
596
  8
0
 62
     1
  0
POLYLINE
  5
46
  8
0
 62
     1
 66
     1
 10
0.0
 20
0.0
 30
0.0
  0
VERTEX
  5
252
  8
0
 62
     1
 10
243.3016408725921
 20
-533.2532377623558
 30
0.0
  0
VERTEX
  5
253
  8
0
 62
     1
 10
243.2454895353289
 20
-533.3242150846023
 30
0.0
  0
VERTEX
  5
254
  8
0
 62
     1
 10
243.1921657620506
 20
-533.3929685636343
 30
0.0
  0
VERTEX
  5
255
  8
0
 62
     1
 10
243.1415647640411
 20
-533.4595788077354
 30
0.0
  0
VERTEX
  5
256
  8
0
 62
     1
 10
243.0935817525834
 20
-533.5241264251886
 30
0.0
  0
VERTEX
  5
257
  8
0
 62
     1
 10
243.0481119389611
 20
-533.5866920242769
 30
0.0
  0
VERTEX
  5
258
  8
0
 62
     1
 10
243.0050505344573
 20
-533.6473562132836
 30
0.0
  0
VERTEX
  5
259
  8
0
 62
     1
 10
242.9642927503557
 20
-533.7061996004917
 30
0.0
  0
VERTEX
  5
25A
  8
0
 62
     1
 10
242.9257337979394
 20
-533.7633027941845
 30
0.0
  0
VERTEX
  5
25B
  8
0
 62
     1
 10
242.8892688884918
 20
-533.818746402645
 30
0.0
  0
VERTEX
  5
25C
  8
0
 62
     1
 10
242.8547932332963
 20
-533.8726110341566
 30
0.0
  0
VERTEX
  5
25D
  8
0
 62
     1
 10
242.8222020436364
 20
-533.9249772970022
 30
0.0
  0
VERTEX
  5
25E
  8
0
 62
     1
 10
242.7913905307952
 20
-533.9759257994651
 30
0.0
  0
VERTEX
  5
25F
  8
0
 62
     1
 10
242.7622539060563
 20
-534.0255371498284
 30
0.0
  0
VERTEX
  5
260
  8
0
 62
     1
 10
242.734687380703
 20
-534.0738919563753
 30
0.0
  0
VERTEX
  5
261
  8
0
 62
     1
 10
242.7085861660186
 20
-534.1210708273888
 30
0.0
  0
VERTEX
  5
262
  8
0
 62
     1
 10
242.6838454732866
 20
-534.167154371152
 30
0.0
  0
VERTEX
  5
263
  8
0
 62
     1
 10
242.6603605137902
 20
-534.2122231959485
 30
0.0
  0
VERTEX
  5
264
  8
0
 62
     1
 10
242.6380264988128
 20
-534.256357910061
 30
0.0
  0
VERTEX
  5
265
  8
0
 62
     1
 10
242.6167386396378
 20
-534.2996391217725
 30
0.0
  0
VERTEX
  5
266
  8
0
 62
     1
 10
242.5963921475487
 20
-534.3421474393667
 30
0.0
  0
VERTEX
  5
267
  8
0
 62
     1
 10
242.5768822338287
 20
-534.3839634711265
 30
0.0
  0
VERTEX
  5
268
  8
0
 62
     1
 10
242.5581041097612
 20
-534.4251678253352
 30
0.0
  0
VERTEX
  5
269
  8
0
 62
     1
 10
242.5399529866295
 20
-534.4658411102755
 30
0.0
  0
VERTEX
  5
26A
  8
0
 62
     1
 10
242.5223240757171
 20
-534.5060639342308
 30
0.0
  0
SEQEND
  5
597
  8
0
 62
     1
  0
POLYLINE
  5
47
  8
0
 62
     1
 66
     1
 10
0.0
 20
0.0
 30
0.0
  0
VERTEX
  5
26B
  8
0
 62
     1
 10
242.5223240757171
 20
-534.5060639342308
 30
0.0
  0
VERTEX
  5
26C
  8
0
 62
     1
 10
242.4991899031786
 20
-534.5565724100644
 30
0.0
  0
VERTEX
  5
26D
  8
0
 62
     1
 10
242.4743639766593
 20
-534.6065486110158
 30
0.0
  0
VERTEX
  5
26E
  8
0
 62
     1
 10
242.448024757022
 20
-534.6570404746057
 30
0.0
  0
VERTEX
  5
26F
  8
0
 62
     1
 10
242.4203507051297
 20
-534.709095938354
 30
0.0
  0
VERTEX
  5
270
  8
0
 62
     1
 10
242.3915202818453
 20
-534.7637629397816
 30
0.0
  0
VERTEX
  5
271
  8
0
 62
     1
 10
242.3617119480316
 20
-534.8220894164085
 30
0.0
  0
VERTEX
  5
272
  8
0
 62
     1
 10
242.3311041645515
 20
-534.8851233057552
 30
0.0
  0
VERTEX
  5
273
  8
0
 62
     1
 10
242.2998753922681
 20
-534.953912545342
 30
0.0
  0
VERTEX
  5
274
  8
0
 62
     1
 10
242.268204092044
 20
-535.0295050726891
 30
0.0
  0
VERTEX
  5
275
  8
0
 62
     1
 10
242.2362687247424
 20
-535.1129488253168
 30
0.0
  0
VERTEX
  5
276
  8
0
 62
     1
 10
242.204247751226
 20
-535.2052917407459
 30
0.0
  0
VERTEX
  5
277
  8
0
 62
     1
 10
242.1723196323577
 20
-535.3075817564965
 30
0.0
  0
VERTEX
  5
278
  8
0
 62
     1
 10
242.1406628290005
 20
-535.4208668100887
 30
0.0
  0
VERTEX
  5
279
  8
0
 62
     1
 10
242.1094558020174
 20
-535.5461948390431
 30
0.0
  0
VERTEX
  5
27A
  8
0
 62
     1
 10
242.0788770122711
 20
-535.68461378088
 30
0.0
  0
VERTEX
  5
27B
  8
0
 62
     1
 10
242.0491049206245
 20
-535.8371715731197
 30
0.0
  0
VERTEX
  5
27C
  8
0
 62
     1
 10
242.0203179879407
 20
-536.0049161532826
 30
0.0
  0
VERTEX
  5
27D
  8
0
 62
     1
 10
241.9926946750824
 20
-536.188895458889
 30
0.0
  0
VERTEX
  5
27E
  8
0
 62
     1
 10
241.9664134429125
 20
-536.3901574274593
 30
0.0
  0
VERTEX
  5
27F
  8
0
 62
     1
 10
241.9416527522941
 20
-536.6097499965138
 30
0.0
  0
VERTEX
  5
280
  8
0
 62
     1
 10
241.9185910640899
 20
-536.8487211035728
 30
0.0
  0
VERTEX
  5
281
  8
0
 62
     1
 10
241.897406839163
 20
-537.1081186861568
 30
0.0
  0
VERTEX
  5
282
  8
0
 62
     1
 10
241.878278538376
 20
-537.3889906817859
 30
0.0
  0
VERTEX
  5
283
  8
0
 62
     1
 10
241.8613846225921
 20
-537.6923850279808
 30
0.0
  0
SEQEND
  5
598
  8
0
 62
     1
  0
POLYLINE
  5
48
  8
0
 62
     1
 66
     1
 10
0.0
 20
0.0
 30
0.0
  0
VERTEX
  5
284
  8
0
 62
     1
 10
241.8613846225921
 20
-537.6923850279808
 30
0.0
  0
VERTEX
  5
285
  8
0
 62
     1
 10
241.8591831463043
 20
-537.8051422886214
 30
0.0
  0
VERTEX
  5
286
  8
0
 62
     1
 10
241.8636357354665
 20
-537.913132785956
 30
0.0
  0
VERTEX
  5
287
  8
0
 62
     1
 10
241.8740755733673
 20
-538.0167027571678
 30
0.0
  0
VERTEX
  5
288
  8
0
 62
     1
 10
241.8898358432953
 20
-538.1161984394392
 30
0.0
  0
VERTEX
  5
289
  8
0
 62
     1
 10
241.910249728539
 20
-538.2119660699527
 30
0.0
  0
VERTEX
  5
28A
  8
0
 62
     1
 10
241.934650412387
 20
-538.304351885891
 30
0.0
  0
VERTEX
  5
28B
  8
0
 62
     1
 10
241.962371078128
 20
-538.3937021244367
 30
0.0
  0
VERTEX
  5
28C
  8
0
 62
     1
 10
241.9927449090505
 20
-538.4803630227725
 30
0.0
  0
VERTEX
  5
28D
  8
0
 62
     1
 10
242.0251050884429
 20
-538.5646808180809
 30
0.0
  0
VERTEX
  5
28E
  8
0
 62
     1
 10
242.0587847995941
 20
-538.6470017475447
 30
0.0
  0
VERTEX
  5
28F
  8
0
 62
     1
 10
242.0931172257924
 20
-538.7276720483462
 30
0.0
  0
VERTEX
  5
290
  8
0
 62
     1
 10
242.1274355503265
 20
-538.8070379576684
 30
0.0
  0
VERTEX
  5
291
  8
0
 62
     1
 10
242.1610729564849
 20
-538.8854457126936
 30
0.0
  0
VERTEX
  5
292
  8
0
 62
     1
 10
242.1933626275563
 20
-538.9632415506046
 30
0.0
  0
VERTEX
  5
293
  8
0
 62
     1
 10
242.2236377468292
 20
-539.0407717085839
 30
0.0
  0
VERTEX
  5
294
  8
0
 62
     1
 10
242.2512314975921
 20
-539.1183824238142
 30
0.0
  0
VERTEX
  5
295
  8
0
 62
     1
 10
242.2754770631337
 20
-539.1964199334781
 30
0.0
  0
VERTEX
  5
296
  8
0
 62
     1
 10
242.2957076267425
 20
-539.2752304747582
 30
0.0
  0
VERTEX
  5
297
  8
0
 62
     1
 10
242.3112563717071
 20
-539.3551602848371
 30
0.0
  0
VERTEX
  5
298
  8
0
 62
     1
 10
242.3214564813161
 20
-539.4365556008975
 30
0.0
  0
VERTEX
  5
299
  8
0
 62
     1
 10
242.325641138858
 20
-539.519762660122
 30
0.0
  0
VERTEX
  5
29A
  8
0
 62
     1
 10
242.3231435276214
 20
-539.6051276996932
 30
0.0
  0
VERTEX
  5
29B
  8
0
 62
     1
 10
242.3132968308949
 20
-539.6929969567934
 30
0.0
  0
VERTEX
  5
29C
  8
0
 62
     1
 10
242.2954342319671
 20
-539.7837166686058
 30
0.0
  0
SEQEND
  5
599
  8
0
 62
     1
  0
POLYLINE
  5
49
  8
0
 62
     1
 66
     1
 10
0.0
 20
0.0
 30
0.0
  0
VERTEX
  5
29D
  8
0
 62
     1
 10
242.2954342319671
 20
-539.7837166686058
 30
0.0
  0
VERTEX
  5
29E
  8
0
 62
     1
 10
242.2814141269019
 20
-539.8313927803217
 30
0.0
  0
VERTEX
  5
29F
  8
0
 62
     1
 10
242.2623888211327
 20
-539.8794794360302
 30
0.0
  0
VERTEX
  5
2A0
  8
0
 62
     1
 10
242.2388171764556
 20
-539.9279401907921
 30
0.0
  0
VERTEX
  5
2A1
  8
0
 62
     1
 10
242.2111580546668
 20
-539.9767385996678
 30
0.0
  0
VERTEX
  5
2A2
  8
0
 62
     1
 10
242.1798703175621
 20
-540.0258382177177
 30
0.0
  0
VERTEX
  5
2A3
  8
0
 62
     1
 10
242.1454128269378
 20
-540.0752026000023
 30
0.0
  0
VERTEX
  5
2A4
  8
0
 62
     1
 10
242.1082444445898
 20
-540.1247953015823
 30
0.0
  0
VERTEX
  5
2A5
  8
0
 62
     1
 10
242.0688240323144
 20
-540.1745798775179
 30
0.0
  0
VERTEX
  5
2A6
  8
0
 62
     1
 10
242.0276104519073
 20
-540.2245198828697
 30
0.0
  0
VERTEX
  5
2A7
  8
0
 62
     1
 10
241.9850625651648
 20
-540.2745788726984
 30
0.0
  0
VERTEX
  5
2A8
  8
0
 62
     1
 10
241.9416392338829
 20
-540.3247204020641
 30
0.0
  0
VERTEX
  5
2A9
  8
0
 62
     1
 10
241.8977993198577
 20
-540.3749080260277
 30
0.0
  0
VERTEX
  5
2AA
  8
0
 62
     1
 10
241.8540016848852
 20
-540.4251052996494
 30
0.0
  0
VERTEX
  5
2AB
  8
0
 62
     1
 10
241.8107051907616
 20
-540.4752757779899
 30
0.0
  0
VERTEX
  5
2AC
  8
0
 62
     1
 10
241.7683686992828
 20
-540.5253830161095
 30
0.0
  0
VERTEX
  5
2AD
  8
0
 62
     1
 10
241.7274510722449
 20
-540.5753905690688
 30
0.0
  0
VERTEX
  5
2AE
  8
0
 62
     1
 10
241.688411171444
 20
-540.6252619919283
 30
0.0
  0
VERTEX
  5
2AF
  8
0
 62
     1
 10
241.6517078586761
 20
-540.6749608397483
 30
0.0
  0
VERTEX
  5
2B0
  8
0
 62
     1
 10
241.6177999957373
 20
-540.7244506675897
 30
0.0
  0
VERTEX
  5
2B1
  8
0
 62
     1
 10
241.5871464444237
 20
-540.7736950305126
 30
0.0
  0
VERTEX
  5
2B2
  8
0
 62
     1
 10
241.5602060665313
 20
-540.8226574835778
 30
0.0
  0
VERTEX
  5
2B3
  8
0
 62
     1
 10
241.5374377238562
 20
-540.8713015818455
 30
0.0
  0
VERTEX
  5
2B4
  8
0
 62
     1
 10
241.5193002781944
 20
-540.9195908803763
 30
0.0
  0
VERTEX
  5
2B5
  8
0
 62
     1
 10
241.5062525913421
 20
-540.9674889342308
 30
0.0
  0
SEQEND
  5
59A
  8
0
 62
     1
  0
POLYLINE
  5
4A
  8
0
 62
     1
 66
     1
 10
0.0
 20
0.0
 30
0.0
  0
VERTEX
  5
2B6
  8
0
 62
     1
 10
241.5062525913421
 20
-540.9674889342308
 30
0.0
  0
VERTEX
  5
2B7
  8
0
 62
     1
 10
241.4946094494614
 20
-541.0366287542167
 30
0.0
  0
VERTEX
  5
2B8
  8
0
 62
     1
 10
241.4890249123509
 20
-541.1075839996514
 30
0.0
  0
VERTEX
  5
2B9
  8
0
 62
     1
 10
241.4891346233551
 20
-541.1801612296103
 30
0.0
  0
VERTEX
  5
2BA
  8
0
 62
     1
 10
241.4945742258184
 20
-541.254167003169
 30
0.0
  0
VERTEX
  5
2BB
  8
0
 62
     1
 10
241.5049793630853
 20
-541.3294078794021
 30
0.0
  0
VERTEX
  5
2BC
  8
0
 62
     1
 10
241.5199856785003
 20
-541.405690417385
 30
0.0
  0
VERTEX
  5
2BD
  8
0
 62
     1
 10
241.5392288154078
 20
-541.4828211761933
 30
0.0
  0
VERTEX
  5
2BE
  8
0
 62
     1
 10
241.5623444171523
 20
-541.5606067149021
 30
0.0
  0
VERTEX
  5
2BF
  8
0
 62
     1
 10
241.5889681270782
 20
-541.6388535925865
 30
0.0
  0
VERTEX
  5
2C0
  8
0
 62
     1
 10
241.61873558853
 20
-541.7173683683218
 30
0.0
  0
VERTEX
  5
2C1
  8
0
 62
     1
 10
241.6512824448521
 20
-541.7959576011834
 30
0.0
  0
VERTEX
  5
2C2
  8
0
 62
     1
 10
241.686244339389
 20
-541.8744278502464
 30
0.0
  0
VERTEX
  5
2C3
  8
0
 62
     1
 10
241.7232569154851
 20
-541.9525856745861
 30
0.0
  0
VERTEX
  5
2C4
  8
0
 62
     1
 10
241.761955816485
 20
-542.0302376332777
 30
0.0
  0
VERTEX
  5
2C5
  8
0
 62
     1
 10
241.801976685733
 20
-542.1071902853967
 30
0.0
  0
VERTEX
  5
2C6
  8
0
 62
     1
 10
241.8429551665736
 20
-542.1832501900178
 30
0.0
  0
VERTEX
  5
2C7
  8
0
 62
     1
 10
241.8845269023513
 20
-542.2582239062168
 30
0.0
  0
VERTEX
  5
2C8
  8
0
 62
     1
 10
241.9263275364104
 20
-542.3319179930687
 30
0.0
  0
VERTEX
  5
2C9
  8
0
 62
     1
 10
241.9679927120956
 20
-542.4041390096488
 30
0.0
  0
VERTEX
  5
2CA
  8
0
 62
     1
 10
242.0091580727512
 20
-542.4746935150323
 30
0.0
  0
VERTEX
  5
2CB
  8
0
 62
     1
 10
242.0494592617217
 20
-542.5433880682945
 30
0.0
  0
VERTEX
  5
2CC
  8
0
 62
     1
 10
242.0885319223516
 20
-542.6100292285106
 30
0.0
  0
VERTEX
  5
2CD
  8
0
 62
     1
 10
242.1260116979852
 20
-542.674423554756
 30
0.0
  0
VERTEX
  5
2CE
  8
0
 62
     1
 10
242.1615342319671
 20
-542.7363776061057
 30
0.0
  0
SEQEND
  5
59B
  8
0
 62
     1
  0
POLYLINE
  5
4B
  8
0
 62
     1
 66
     1
 10
0.0
 20
0.0
 30
0.0
  0
VERTEX
  5
2CF
  8
0
 62
     1
 10
242.1615342319671
 20
-542.7363776061057
 30
0.0
  0
VERTEX
  5
2D0
  8
0
 62
     1
 10
242.2298173383118
 20
-542.8497063089617
 30
0.0
  0
VERTEX
  5
2D1
  8
0
 62
     1
 10
242.3029873721129
 20
-542.9580153344225
 30
0.0
  0
VERTEX
  5
2D2
  8
0
 62
     1
 10
242.3808171535674
 20
-543.0615155714988
 30
0.0
  0
VERTEX
  5
2D3
  8
0
 62
     1
 10
242.4630795028727
 20
-543.1604179092018
 30
0.0
  0
VERTEX
  5
2D4
  8
0
 62
     1
 10
242.5495472402261
 20
-543.2549332365425
 30
0.0
  0
VERTEX
  5
2D5
  8
0
 62
     1
 10
242.6399931858245
 20
-543.3452724425315
 30
0.0
  0
VERTEX
  5
2D6
  8
0
 62
     1
 10
242.7341901598654
 20
-543.4316464161802
 30
0.0
  0
VERTEX
  5
2D7
  8
0
 62
     1
 10
242.8319109825458
 20
-543.5142660464994
 30
0.0
  0
VERTEX
  5
2D8
  8
0
 62
     1
 10
242.932928474063
 20
-543.5933422224998
 30
0.0
  0
VERTEX
  5
2D9
  8
0
 62
     1
 10
243.0370154546143
 20
-543.6690858331928
 30
0.0
  0
VERTEX
  5
2DA
  8
0
 62
     1
 10
243.1439447443968
 20
-543.741707767589
 30
0.0
  0
VERTEX
  5
2DB
  8
0
 62
     1
 10
243.2534891636078
 20
-543.8114189146995
 30
0.0
  0
VERTEX
  5
2DC
  8
0
 62
     1
 10
243.3654215324443
 20
-543.8784301635354
 30
0.0
  0
VERTEX
  5
2DD
  8
0
 62
     1
 10
243.4795146711037
 20
-543.9429524031074
 30
0.0
  0
VERTEX
  5
2DE
  8
0
 62
     1
 10
243.5955413997833
 20
-544.0051965224267
 30
0.0
  0
VERTEX
  5
2DF
  8
0
 62
     1
 10
243.7132745386801
 20
-544.065373410504
 30
0.0
  0
VERTEX
  5
2E0
  8
0
 62
     1
 10
243.8324869079914
 20
-544.1236939563505
 30
0.0
  0
VERTEX
  5
2E1
  8
0
 62
     1
 10
243.9529513279144
 20
-544.1803690489769
 30
0.0
  0
VERTEX
  5
2E2
  8
0
 62
     1
 10
244.0744406186463
 20
-544.2356095773944
 30
0.0
  0
VERTEX
  5
2E3
  8
0
 62
     1
 10
244.1967276003843
 20
-544.2896264306139
 30
0.0
  0
VERTEX
  5
2E4
  8
0
 62
     1
 10
244.3195850933257
 20
-544.3426304976464
 30
0.0
  0
VERTEX
  5
2E5
  8
0
 62
     1
 10
244.4427859176677
 20
-544.3948326675027
 30
0.0
  0
VERTEX
  5
2E6
  8
0
 62
     1
 10
244.5661028936074
 20
-544.4464438291939
 30
0.0
  0
VERTEX
  5
2E7
  8
0
 62
     1
 10
244.6893088413421
 20
-544.4976748717309
 30
0.0
  0
SEQEND
  5
59C
  8
0
 62
     1
  0
LINE
  5
4C
  8
0
 62
     1
 10
244.6893088413421
 20
-544.4976748717309
 30
0.0
 11
248.3466248569671
 21
-546.1453819029808
 31
0.0
  0
POLYLINE
  5
4D
  8
0
 62
     1
 66
     1
 10
0.0
 20
0.0
 30
0.0
  0
VERTEX
  5
2E8
  8
0
 62
     1
 10
248.3466248569671
 20
-546.1453819029808
 30
0.0
  0
VERTEX
  5
2E9
  8
0
 62
     1
 10
248.5323876670031
 20
-546.2327396823636
 30
0.0
  0
VERTEX
  5
2EA
  8
0
 62
     1
 10
248.7167467871248
 20
-546.3165678685118
 30
0.0
  0
VERTEX
  5
2EB
  8
0
 62
     1
 10
248.8996087406341
 20
-546.396892043972
 30
0.0
  0
VERTEX
  5
2EC
  8
0
 62
     1
 10
249.0808800508329
 20
-546.4737377912911
 30
0.0
  0
VERTEX
  5
2ED
  8
0
 62
     1
 10
249.260467241023
 20
-546.5471306930154
 30
0.0
  0
VERTEX
  5
2EE
  8
0
 62
     1
 10
249.4382768345062
 20
-546.6170963316919
 30
0.0
  0
VERTEX
  5
2EF
  8
0
 62
     1
 10
249.6142153545845
 20
-546.6836602898668
 30
0.0
  0
VERTEX
  5
2F0
  8
0
 62
     1
 10
249.7881893245597
 20
-546.7468481500873
 30
0.0
  0
VERTEX
  5
2F1
  8
0
 62
     1
 10
249.9601052677337
 20
-546.8066854948997
 30
0.0
  0
VERTEX
  5
2F2
  8
0
 62
     1
 10
250.1298697074084
 20
-546.8631979068509
 30
0.0
  0
VERTEX
  5
2F3
  8
0
 62
     1
 10
250.2973891668856
 20
-546.9164109684873
 30
0.0
  0
VERTEX
  5
2F4
  8
0
 62
     1
 10
250.4625701694671
 20
-546.9663502623558
 30
0.0
  0
VERTEX
  5
2F5
  8
0
 62
     1
 10
250.6253192384549
 20
-547.0130413710029
 30
0.0
  0
VERTEX
  5
2F6
  8
0
 62
     1
 10
250.7855428971508
 20
-547.0565098769753
 30
0.0
  0
VERTEX
  5
2F7
  8
0
 62
     1
 10
250.9431476688567
 20
-547.0967813628197
 30
0.0
  0
VERTEX
  5
2F8
  8
0
 62
     1
 10
251.0980400768745
 20
-547.1338814110827
 30
0.0
  0
VERTEX
  5
2F9
  8
0
 62
     1
 10
251.250126644506
 20
-547.167835604311
 30
0.0
  0
VERTEX
  5
2FA
  8
0
 62
     1
 10
251.399313895053
 20
-547.1986695250512
 30
0.0
  0
VERTEX
  5
2FB
  8
0
 62
     1
 10
251.5455083518175
 20
-547.2264087558499
 30
0.0
  0
VERTEX
  5
2FC
  8
0
 62
     1
 10
251.6886165381013
 20
-547.2510788792539
 30
0.0
  0
VERTEX
  5
2FD
  8
0
 62
     1
 10
251.8285449772064
 20
-547.27270547781
 30
0.0
  0
VERTEX
  5
2FE
  8
0
 62
     1
 10
251.9652001924344
 20
-547.2913141340645
 30
0.0
  0
VERTEX
  5
2FF
  8
0
 62
     1
 10
252.0984887070874
 20
-547.3069304305641
 30
0.0
  0
VERTEX
  5
300
  8
0
 62
     1
 10
252.2283170444671
 20
-547.3195799498558
 30
0.0
  0
SEQEND
  5
59D
  8
0
 62
     1
  0
POLYLINE
  5
4E
  8
0
 62
     1
 66
     1
 10
0.0
 20
0.0
 30
0.0
  0
VERTEX
  5
301
  8
0
 62
     1
 10
252.2283170444671
 20
-547.3195799498558
 30
0.0
  0
VERTEX
  5
302
  8
0
 62
     1
 10
252.40216168575
 20
-547.3325835586725
 30
0.0
  0
VERTEX
  5
303
  8
0
 62
     1
 10
252.5767184048729
 20
-547.341446751704
 30
0.0
  0
VERTEX
  5
304
  8
0
 62
     1
 10
252.7519113849822
 20
-547.34635545187
 30
0.0
  0
VERTEX
  5
305
  8
0
 62
     1
 10
252.9276648092241
 20
-547.3474955820897
 30
0.0
  0
VERTEX
  5
306
  8
0
 62
     1
 10
253.1039028607445
 20
-547.3450530652823
 30
0.0
  0
VERTEX
  5
307
  8
0
 62
     1
 10
253.2805497226898
 20
-547.3392138243674
 30
0.0
  0
VERTEX
  5
308
  8
0
 62
     1
 10
253.457529578206
 20
-547.3301637822645
 30
0.0
  0
VERTEX
  5
309
  8
0
 62
     1
 10
253.6347666104393
 20
-547.3180888618929
 30
0.0
  0
VERTEX
  5
30A
  8
0
 62
     1
 10
253.812185002536
 20
-547.3031749861717
 30
0.0
  0
VERTEX
  5
30B
  8
0
 62
     1
 10
253.989708937642
 20
-547.2856080780206
 30
0.0
  0
VERTEX
  5
30C
  8
0
 62
     1
 10
254.1672625989037
 20
-547.2655740603589
 30
0.0
  0
VERTEX
  5
30D
  8
0
 62
     1
 10
254.3447701694671
 20
-547.2432588561057
 30
0.0
  0
VERTEX
  5
30E
  8
0
 62
     1
 10
254.5221558324784
 20
-547.2188483881808
 30
0.0
  0
VERTEX
  5
30F
  8
0
 62
     1
 10
254.6993437710839
 20
-547.1925285795035
 30
0.0
  0
VERTEX
  5
310
  8
0
 62
     1
 10
254.8762581684295
 20
-547.164485352993
 30
0.0
  0
VERTEX
  5
311
  8
0
 62
     1
 10
255.0528232076616
 20
-547.1349046315687
 30
0.0
  0
VERTEX
  5
312
  8
0
 62
     1
 10
255.2289630719262
 20
-547.1039723381502
 30
0.0
  0
VERTEX
  5
313
  8
0
 62
     1
 10
255.4046019443695
 20
-547.0718743956566
 30
0.0
  0
VERTEX
  5
314
  8
0
 62
     1
 10
255.5796640081376
 20
-547.0387967270074
 30
0.0
  0
VERTEX
  5
315
  8
0
 62
     1
 10
255.7540734463768
 20
-547.004925255122
 30
0.0
  0
VERTEX
  5
316
  8
0
 62
     1
 10
255.9277544422332
 20
-546.9704459029197
 30
0.0
  0
VERTEX
  5
317
  8
0
 62
     1
 10
256.100631178853
 20
-546.9355445933201
 30
0.0
  0
VERTEX
  5
318
  8
0
 62
     1
 10
256.2726278393822
 20
-546.9004072492422
 30
0.0
  0
VERTEX
  5
319
  8
0
 62
     1
 10
256.4436686069671
 20
-546.8652197936058
 30
0.0
  0
SEQEND
  5
59E
  8
0
 62
     1
  0
POLYLINE
  5
4F
  8
0
 62
     1
 66
     1
 10
0.0
 20
0.0
 30
0.0
  0
VERTEX
  5
31A
  8
0
 62
     1
 10
256.4436686069671
 20
-546.8652197936058
 30
0.0
  0
VERTEX
  5
31B
  8
0
 62
     1
 10
256.5266670170861
 20
-546.8479160795035
 30
0.0
  0
VERTEX
  5
31C
  8
0
 62
     1
 10
256.6107351685177
 20
-546.8299468434828
 30
0.0
  0
VERTEX
  5
31D
  8
0
 62
     1
 10
256.6958005092803
 20
-546.811248821926
 30
0.0
  0
VERTEX
  5
31E
  8
0
 62
     1
 10
256.7817904873925
 20
-546.7917587512159
 30
0.0
  0
VERTEX
  5
31F
  8
0
 62
     1
 10
256.8686325508724
 20
-546.7714133677342
 30
0.0
  0
VERTEX
  5
320
  8
0
 62
     1
 10
256.9562541477386
 20
-546.7501494078637
 30
0.0
  0
VERTEX
  5
321
  8
0
 62
     1
 10
257.0445827260094
 20
-546.7279036079866
 30
0.0
  0
VERTEX
  5
322
  8
0
 62
     1
 10
257.1335457337032
 20
-546.7046127044854
 30
0.0
  0
VERTEX
  5
323
  8
0
 62
     1
 10
257.2230706188384
 20
-546.6802134337424
 30
0.0
  0
VERTEX
  5
324
  8
0
 62
     1
 10
257.3130848294335
 20
-546.6546425321402
 30
0.0
  0
VERTEX
  5
325
  8
0
 62
     1
 10
257.4035158135067
 20
-546.6278367360609
 30
0.0
  0
VERTEX
  5
326
  8
0
 62
     1
 10
257.4942910190765
 20
-546.599732781887
 30
0.0
  0
VERTEX
  5
327
  8
0
 62
     1
 10
257.5853378941612
 20
-546.5702674060009
 30
0.0
  0
VERTEX
  5
328
  8
0
 62
     1
 10
257.6765838867794
 20
-546.539377344785
 30
0.0
  0
VERTEX
  5
329
  8
0
 62
     1
 10
257.7679564449493
 20
-546.5069993346215
 30
0.0
  0
VERTEX
  5
32A
  8
0
 62
     1
 10
257.8593830166893
 20
-546.4730701118929
 30
0.0
  0
VERTEX
  5
32B
  8
0
 62
     1
 10
257.9507910500179
 20
-546.4375264129816
 30
0.0
  0
VERTEX
  5
32C
  8
0
 62
     1
 10
258.0421079929534
 20
-546.4003049742698
 30
0.0
  0
VERTEX
  5
32D
  8
0
 62
     1
 10
258.1332612935142
 20
-546.3613425321403
 30
0.0
  0
VERTEX
  5
32E
  8
0
 62
     1
 10
258.2241783997188
 20
-546.320575822975
 30
0.0
  0
VERTEX
  5
32F
  8
0
 62
     1
 10
258.3147867595855
 20
-546.2779415831566
 30
0.0
  0
VERTEX
  5
330
  8
0
 62
     1
 10
258.4050138211327
 20
-546.2333765490673
 30
0.0
  0
VERTEX
  5
331
  8
0
 62
     1
 10
258.4947870323787
 20
-546.1868174570897
 30
0.0
  0
VERTEX
  5
332
  8
0
 62
     1
 10
258.5840338413421
 20
-546.1382010436058
 30
0.0
  0
SEQEND
  5
59F
  8
0
 62
     1
  0
POLYLINE
  5
50
  8
0
 62
     1
 66
     1
 10
0.0
 20
0.0
 30
0.0
  0
VERTEX
  5
333
  8
0
 62
     1
 10
258.5840338413421
 20
-546.1382010436058
 30
0.0
  0
VERTEX
  5
334
  8
0
 62
     1
 10
258.5052149965964
 20
-546.068993387904
 30
0.0
  0
VERTEX
  5
335
  8
0
 62
     1
 10
258.4271529075946
 20
-546.0044208689549
 30
0.0
  0
VERTEX
  5
336
  8
0
 62
     1
 10
258.3496691738311
 20
-545.9439275183679
 30
0.0
  0
VERTEX
  5
337
  8
0
 62
     1
 10
258.2725853947999
 20
-545.8869573677523
 30
0.0
  0
VERTEX
  5
338
  8
0
 62
     1
 10
258.195723169995
 20
-545.8329544487177
 30
0.0
  0
VERTEX
  5
339
  8
0
 62
     1
 10
258.1189040989104
 20
-545.7813627928734
 30
0.0
  0
VERTEX
  5
33A
  8
0
 62
     1
 10
258.0419497810405
 20
-545.7316264318289
 30
0.0
  0
VERTEX
  5
33B
  8
0
 62
     1
 10
257.9646818158791
 20
-545.6831893971938
 30
0.0
  0
VERTEX
  5
33C
  8
0
 62
     1
 10
257.8869218029205
 20
-545.6354957205773
 30
0.0
  0
VERTEX
  5
33D
  8
0
 62
     1
 10
257.8084913416586
 20
-545.5879894335889
 30
0.0
  0
VERTEX
  5
33E
  8
0
 62
     1
 10
257.7292120315876
 20
-545.5401145678379
 30
0.0
  0
VERTEX
  5
33F
  8
0
 62
     1
 10
257.6489054722015
 20
-545.4913151549339
 30
0.0
  0
VERTEX
  5
340
  8
0
 62
     1
 10
257.5673932629945
 20
-545.4410352264864
 30
0.0
  0
VERTEX
  5
341
  8
0
 62
     1
 10
257.4844970034605
 20
-545.3887188141045
 30
0.0
  0
VERTEX
  5
342
  8
0
 62
     1
 10
257.4000382930938
 20
-545.3338099493981
 30
0.0
  0
VERTEX
  5
343
  8
0
 62
     1
 10
257.3138387313884
 20
-545.2757526639762
 30
0.0
  0
VERTEX
  5
344
  8
0
 62
     1
 10
257.2257199178384
 20
-545.2139909894483
 30
0.0
  0
VERTEX
  5
345
  8
0
 62
     1
 10
257.1355034519378
 20
-545.1479689574242
 30
0.0
  0
VERTEX
  5
346
  8
0
 62
     1
 10
257.0430109331808
 20
-545.0771305995129
 30
0.0
  0
VERTEX
  5
347
  8
0
 62
     1
 10
256.9480639610615
 20
-545.0009199473238
 30
0.0
  0
VERTEX
  5
348
  8
0
 62
     1
 10
256.8504841350738
 20
-544.9187810324668
 30
0.0
  0
VERTEX
  5
349
  8
0
 62
     1
 10
256.750093054712
 20
-544.830157886551
 30
0.0
  0
VERTEX
  5
34A
  8
0
 62
     1
 10
256.6467123194701
 20
-544.7344945411858
 30
0.0
  0
VERTEX
  5
34B
  8
0
 62
     1
 10
256.5401635288421
 20
-544.6312350279808
 30
0.0
  0
SEQEND
  5
5A0
  8
0
 62
     1
  0
POLYLINE
  5
51
  8
0
 62
     1
 66
     1
 10
0.0
 20
0.0
 30
0.0
  0
VERTEX
  5
34C
  8
0
 62
     1
 10
256.5401635288421
 20
-544.6312350279808
 30
0.0
  0
VERTEX
  5
34D
  8
0
 62
     1
 10
256.479072262747
 20
-544.5725532649183
 30
0.0
  0
VERTEX
  5
34E
  8
0
 62
     1
 10
256.4135178239087
 20
-544.512747907529
 30
0.0
  0
VERTEX
  5
34F
  8
0
 62
     1
 10
256.3441922397796
 20
-544.4518352011681
 30
0.0
  0
VERTEX
  5
350
  8
0
 62
     1
 10
256.271787537812
 20
-544.3898313911898
 30
0.0
  0
VERTEX
  5
351
  8
0
 62
     1
 10
256.1969957454582
 20
-544.3267527229485
 30
0.0
  0
VERTEX
  5
352
  8
0
 62
     1
 10
256.1205088901702
 20
-544.2626154417992
 30
0.0
  0
VERTEX
  5
353
  8
0
 62
     1
 10
256.0430189994005
 20
-544.1974357930961
 30
0.0
  0
VERTEX
  5
354
  8
0
 62
     1
 10
255.9652181006014
 20
-544.1312300221939
 30
0.0
  0
VERTEX
  5
355
  8
0
 62
     1
 10
255.8877982212249
 20
-544.0640143744469
 30
0.0
  0
VERTEX
  5
356
  8
0
 62
     1
 10
255.8114513887235
 20
-543.99580509521
 30
0.0
  0
VERTEX
  5
357
  8
0
 62
     1
 10
255.7368696305493
 20
-543.9266184298375
 30
0.0
  0
VERTEX
  5
358
  8
0
 62
     1
 10
255.6647449741546
 20
-543.8564706236839
 30
0.0
  0
VERTEX
  5
359
  8
0
 62
     1
 10
255.5957694469917
 20
-543.7853779221041
 30
0.0
  0
VERTEX
  5
35A
  8
0
 62
     1
 10
255.5306350765129
 20
-543.7133565704523
 30
0.0
  0
VERTEX
  5
35B
  8
0
 62
     1
 10
255.4700338901702
 20
-543.6404228140832
 30
0.0
  0
VERTEX
  5
35C
  8
0
 62
     1
 10
255.4146579154162
 20
-543.5665928983512
 30
0.0
  0
VERTEX
  5
35D
  8
0
 62
     1
 10
255.3651991797029
 20
-543.4918830686111
 30
0.0
  0
VERTEX
  5
35E
  8
0
 62
     1
 10
255.3223497104827
 20
-543.4163095702172
 30
0.0
  0
VERTEX
  5
35F
  8
0
 62
     1
 10
255.2868015352078
 20
-543.339888648524
 30
0.0
  0
VERTEX
  5
360
  8
0
 62
     1
 10
255.2592466813305
 20
-543.2626365488865
 30
0.0
  0
VERTEX
  5
361
  8
0
 62
     1
 10
255.240377176303
 20
-543.1845695166588
 30
0.0
  0
VERTEX
  5
362
  8
0
 62
     1
 10
255.2308850475777
 20
-543.1057037971956
 30
0.0
  0
VERTEX
  5
363
  8
0
 62
     1
 10
255.2314623226066
 20
-543.0260556358514
 30
0.0
  0
VERTEX
  5
364
  8
0
 62
     1
 10
255.2428010288421
 20
-542.9456412779808
 30
0.0
  0
SEQEND
  5
5A1
  8
0
 62
     1
  0
POLYLINE
  5
52
  8
0
 62
     1
 66
     1
 10
0.0
 20
0.0
 30
0.0
  0
VERTEX
  5
365
  8
0
 62
     1
 10
255.2428010288421
 20
-542.9456412779808
 30
0.0
  0
VERTEX
  5
366
  8
0
 62
     1
 10
255.2589218907715
 20
-542.8903605859156
 30
0.0
  0
VERTEX
  5
367
  8
0
 62
     1
 10
255.2833882611916
 20
-542.8356431617066
 30
0.0
  0
VERTEX
  5
368
  8
0
 62
     1
 10
255.3153362858001
 20
-542.7814420477868
 30
0.0
  0
VERTEX
  5
369
  8
0
 62
     1
 10
255.3539021102947
 20
-542.7277102865891
 30
0.0
  0
VERTEX
  5
36A
  8
0
 62
     1
 10
255.398221880373
 20
-542.6744009205465
 30
0.0
  0
VERTEX
  5
36B
  8
0
 62
     1
 10
255.4474317417327
 20
-542.6214669920921
 30
0.0
  0
VERTEX
  5
36C
  8
0
 62
     1
 10
255.5006678400717
 20
-542.568861543659
 30
0.0
  0
VERTEX
  5
36D
  8
0
 62
     1
 10
255.5570663210875
 20
-542.5165376176799
 30
0.0
  0
VERTEX
  5
36E
  8
0
 62
     1
 10
255.6157633304778
 20
-542.464448256588
 30
0.0
  0
VERTEX
  5
36F
  8
0
 62
     1
 10
255.6758950139405
 20
-542.4125465028162
 30
0.0
  0
VERTEX
  5
370
  8
0
 62
     1
 10
255.7365975171731
 20
-542.3607853987976
 30
0.0
  0
VERTEX
  5
371
  8
0
 62
     1
 10
255.7970069858733
 20
-542.3091179869652
 30
0.0
  0
VERTEX
  5
372
  8
0
 62
     1
 10
255.856259565739
 20
-542.2574973097519
 30
0.0
  0
VERTEX
  5
373
  8
0
 62
     1
 10
255.9134914024677
 20
-542.2058764095907
 30
0.0
  0
VERTEX
  5
374
  8
0
 62
     1
 10
255.9678386417572
 20
-542.1542083289146
 30
0.0
  0
VERTEX
  5
375
  8
0
 62
     1
 10
256.0184374293051
 20
-542.1024461101567
 30
0.0
  0
VERTEX
  5
376
  8
0
 62
     1
 10
256.0644239108092
 20
-542.05054279575
 30
0.0
  0
VERTEX
  5
377
  8
0
 62
     1
 10
256.1049342319671
 20
-541.9984514281273
 30
0.0
  0
VERTEX
  5
378
  8
0
 62
     1
 10
256.1391045384766
 20
-541.9461250497218
 30
0.0
  0
VERTEX
  5
379
  8
0
 62
     1
 10
256.1660709760354
 20
-541.8935167029663
 30
0.0
  0
VERTEX
  5
37A
  8
0
 62
     1
 10
256.1849696903411
 20
-541.840579430294
 30
0.0
  0
VERTEX
  5
37B
  8
0
 62
     1
 10
256.1949368270915
 20
-541.7872662741379
 30
0.0
  0
VERTEX
  5
37C
  8
0
 62
     1
 10
256.1951085319843
 20
-541.7335302769308
 30
0.0
  0
VERTEX
  5
37D
  8
0
 62
     1
 10
256.1846209507171
 20
-541.6793244811058
 30
0.0
  0
SEQEND
  5
5A2
  8
0
 62
     1
  0
POLYLINE
  5
53
  8
0
 62
     1
 66
     1
 10
0.0
 20
0.0
 30
0.0
  0
VERTEX
  5
37E
  8
0
 62
     1
 10
256.1846209507171
 20
-541.6793244811058
 30
0.0
  0
VERTEX
  5
37F
  8
0
 62
     1
 10
256.1459740092284
 20
-541.5675436599626
 30
0.0
  0
VERTEX
  5
380
  8
0
 62
     1
 10
256.0999896570883
 20
-541.4669556056446
 30
0.0
  0
VERTEX
  5
381
  8
0
 62
     1
 10
256.0471195461456
 20
-541.3764041388512
 30
0.0
  0
VERTEX
  5
382
  8
0
 62
     1
 10
255.987815328249
 20
-541.2947330802813
 30
0.0
  0
VERTEX
  5
383
  8
0
 62
     1
 10
255.9225286552471
 20
-541.2207862506338
 30
0.0
  0
VERTEX
  5
384
  8
0
 62
     1
 10
255.8517111789886
 20
-541.1534074706078
 30
0.0
  0
VERTEX
  5
385
  8
0
 62
     1
 10
255.7758145513222
 20
-541.0914405609025
 30
0.0
  0
VERTEX
  5
386
  8
0
 62
     1
 10
255.6952904240967
 20
-541.0337293422169
 30
0.0
  0
VERTEX
  5
387
  8
0
 62
     1
 10
255.6105904491607
 20
-540.9791176352501
 30
0.0
  0
VERTEX
  5
388
  8
0
 62
     1
 10
255.5221662783629
 20
-540.926449260701
 30
0.0
  0
VERTEX
  5
389
  8
0
 62
     1
 10
255.4304695635519
 20
-540.8745680392689
 30
0.0
  0
VERTEX
  5
38A
  8
0
 62
     1
 10
255.3359519565765
 20
-540.8223177916526
 30
0.0
  0
VERTEX
  5
38B
  8
0
 62
     1
 10
255.2390651092853
 20
-540.7685423385514
 30
0.0
  0
VERTEX
  5
38C
  8
0
 62
     1
 10
255.1402606735271
 20
-540.7120855006642
 30
0.0
  0
VERTEX
  5
38D
  8
0
 62
     1
 10
255.0399903011505
 20
-540.65179109869
 30
0.0
  0
VERTEX
  5
38E
  8
0
 62
     1
 10
254.9387056440041
 20
-540.5865029533279
 30
0.0
  0
VERTEX
  5
38F
  8
0
 62
     1
 10
254.8368583539368
 20
-540.5150648852773
 30
0.0
  0
VERTEX
  5
390
  8
0
 62
     1
 10
254.7349000827972
 20
-540.4363207152367
 30
0.0
  0
VERTEX
  5
391
  8
0
 62
     1
 10
254.6332824824339
 20
-540.3491142639053
 30
0.0
  0
VERTEX
  5
392
  8
0
 62
     1
 10
254.5324572046957
 20
-540.2522893519824
 30
0.0
  0
VERTEX
  5
393
  8
0
 62
     1
 10
254.4328759014312
 20
-540.144689800167
 30
0.0
  0
VERTEX
  5
394
  8
0
 62
     1
 10
254.3349902244892
 20
-540.0251594291581
 30
0.0
  0
VERTEX
  5
395
  8
0
 62
     1
 10
254.2392518257182
 20
-539.8925420596546
 30
0.0
  0
VERTEX
  5
396
  8
0
 62
     1
 10
254.1461123569671
 20
-539.7456815123558
 30
0.0
  0
SEQEND
  5
5A3
  8
0
 62
     1
  0
POLYLINE
  5
54
  8
0
 62
     1
 66
     1
 10
0.0
 20
0.0
 30
0.0
  0
VERTEX
  5
397
  8
0
 62
     1
 10
254.1461123569671
 20
-539.7456815123558
 30
0.0
  0
VERTEX
  5
398
  8
0
 62
     1
 10
254.0942671213827
 20
-539.6513342275442
 30
0.0
  0
VERTEX
  5
399
  8
0
 62
     1
 10
254.0461473147398
 20
-539.5496391469495
 30
0.0
  0
VERTEX
  5
39A
  8
0
 62
     1
 10
254.0015803516571
 20
-539.441059155941
 30
0.0
  0
VERTEX
  5
39B
  8
0
 62
     1
 10
253.960393646753
 20
-539.3260571398877
 30
0.0
  0
VERTEX
  5
39C
  8
0
 62
     1
 10
253.9224146146462
 20
-539.2050959841587
 30
0.0
  0
VERTEX
  5
39D
  8
0
 62
     1
 10
253.8874706699554
 20
-539.0786385741234
 30
0.0
  0
VERTEX
  5
39E
  8
0
 62
     1
 10
253.8553892272991
 20
-538.9471477951508
 30
0.0
  0
VERTEX
  5
39F
  8
0
 62
     1
 10
253.8259977012958
 20
-538.8110865326105
 30
0.0
  0
VERTEX
  5
3A0
  8
0
 62
     1
 10
253.7991235065643
 20
-538.6709176718713
 30
0.0
  0
VERTEX
  5
3A1
  8
0
 62
     1
 10
253.774594057723
 20
-538.5271040983024
 30
0.0
  0
VERTEX
  5
3A2
  8
0
 62
     1
 10
253.7522367693907
 20
-538.3801086972732
 30
0.0
  0
VERTEX
  5
3A3
  8
0
 62
     1
 10
253.7318790561859
 20
-538.2303943541526
 30
0.0
  0
VERTEX
  5
3A4
  8
0
 62
     1
 10
253.7133483327271
 20
-538.0784239543102
 30
0.0
  0
VERTEX
  5
3A5
  8
0
 62
     1
 10
253.696472013633
 20
-537.924660383115
 30
0.0
  0
VERTEX
  5
3A6
  8
0
 62
     1
 10
253.6810775135223
 20
-537.7695665259362
 30
0.0
  0
VERTEX
  5
3A7
  8
0
 62
     1
 10
253.6669922470134
 20
-537.6136052681428
 30
0.0
  0
VERTEX
  5
3A8
  8
0
 62
     1
 10
253.654043628725
 20
-537.4572394951043
 30
0.0
  0
VERTEX
  5
3A9
  8
0
 62
     1
 10
253.6420590732757
 20
-537.3009320921898
 30
0.0
  0
VERTEX
  5
3AA
  8
0
 62
     1
 10
253.6308659952841
 20
-537.1451459447684
 30
0.0
  0
VERTEX
  5
3AB
  8
0
 62
     1
 10
253.6202918093687
 20
-536.9903439382094
 30
0.0
  0
VERTEX
  5
3AC
  8
0
 62
     1
 10
253.6101639301482
 20
-536.8369889578819
 30
0.0
  0
VERTEX
  5
3AD
  8
0
 62
     1
 10
253.6003097722413
 20
-536.6855438891553
 30
0.0
  0
VERTEX
  5
3AE
  8
0
 62
     1
 10
253.5905567502664
 20
-536.5364716173984
 30
0.0
  0
VERTEX
  5
3AF
  8
0
 62
     1
 10
253.5807322788421
 20
-536.3902350279808
 30
0.0
  0
SEQEND
  5
5A4
  8
0
 62
     1
  0
POLYLINE
  5
55
  8
0
 62
     1
 66
     1
 10
0.0
 20
0.0
 30
0.0
  0
VERTEX
  5
3B0
  8
0
 62
     1
 10
253.5807322788421
 20
-536.3902350279808
 30
0.0
  0
VERTEX
  5
3B1
  8
0
 62
     1
 10
253.5727742714535
 20
-536.2724019046819
 30
0.0
  0
VERTEX
  5
3B2
  8
0
 62
     1
 10
253.564844798509
 20
-536.1508342831258
 30
0.0
  0
VERTEX
  5
3B3
  8
0
 62
     1
 10
253.5570512600128
 20
-536.0261359869957
 30
0.0
  0
VERTEX
  5
3B4
  8
0
 62
     1
 10
253.5495010559689
 20
-535.8989108399745
 30
0.0
  0
VERTEX
  5
3B5
  8
0
 62
     1
 10
253.5423015863813
 20
-535.7697626657451
 30
0.0
  0
VERTEX
  5
3B6
  8
0
 62
     1
 10
253.5355602512542
 20
-535.6392952879906
 30
0.0
  0
VERTEX
  5
3B7
  8
0
 62
     1
 10
253.5293844505917
 20
-535.508112530394
 30
0.0
  0
VERTEX
  5
3B8
  8
0
 62
     1
 10
253.5238815843977
 20
-535.3768182166382
 30
0.0
  0
VERTEX
  5
3B9
  8
0
 62
     1
 10
253.5191590526764
 20
-535.2460161704063
 30
0.0
  0
VERTEX
  5
3BA
  8
0
 62
     1
 10
253.5153242554318
 20
-535.1163102153813
 30
0.0
  0
VERTEX
  5
3BB
  8
0
 62
     1
 10
253.5124845926679
 20
-534.9883041752462
 30
0.0
  0
VERTEX
  5
3BC
  8
0
 62
     1
 10
253.510747464389
 20
-534.862601873684
 30
0.0
  0
VERTEX
  5
3BD
  8
0
 62
     1
 10
253.510220270599
 20
-534.7398071343775
 30
0.0
  0
VERTEX
  5
3BE
  8
0
 62
     1
 10
253.511010411302
 20
-534.62052378101
 30
0.0
  0
VERTEX
  5
3BF
  8
0
 62
     1
 10
253.513225286502
 20
-534.5053556372643
 30
0.0
  0
VERTEX
  5
3C0
  8
0
 62
     1
 10
253.5169722962032
 20
-534.3949065268234
 30
0.0
  0
VERTEX
  5
3C1
  8
0
 62
     1
 10
253.5223588404097
 20
-534.2897802733704
 30
0.0
  0
VERTEX
  5
3C2
  8
0
 62
     1
 10
253.5294923191253
 20
-534.1905807005883
 30
0.0
  0
VERTEX
  5
3C3
  8
0
 62
     1
 10
253.5384801323543
 20
-534.0979116321598
 30
0.0
  0
VERTEX
  5
3C4
  8
0
 62
     1
 10
253.5494296801008
 20
-534.0123768917683
 30
0.0
  0
VERTEX
  5
3C5
  8
0
 62
     1
 10
253.5624483623687
 20
-533.9345803030967
 30
0.0
  0
VERTEX
  5
3C6
  8
0
 62
     1
 10
253.5776435791622
 20
-533.865125689828
 30
0.0
  0
VERTEX
  5
3C7
  8
0
 62
     1
 10
253.5951227304853
 20
-533.8046168756449
 30
0.0
  0
VERTEX
  5
3C8
  8
0
 62
     1
 10
253.6149932163421
 20
-533.7536576842308
 30
0.0
  0
SEQEND
  5
5A5
  8
0
 62
     1
  0
POLYLINE
  5
56
  8
0
 62
     1
 66
     1
 10
0.0
 20
0.0
 30
0.0
  0
VERTEX
  5
3C9
  8
0
 62
     1
 10
253.6149932163421
 20
-533.7536576842308
 30
0.0
  0
VERTEX
  5
3CA
  8
0
 62
     1
 10
253.637401846911
 20
-533.7021453483194
 30
0.0
  0
VERTEX
  5
3CB
  8
0
 62
     1
 10
253.6590296437058
 20
-533.6474359175118
 30
0.0
  0
VERTEX
  5
3CC
  8
0
 62
     1
 10
253.6799893276397
 20
-533.5899816458702
 30
0.0
  0
VERTEX
  5
3CD
  8
0
 62
     1
 10
253.7003936196263
 20
-533.5302347874572
 30
0.0
  0
VERTEX
  5
3CE
  8
0
 62
     1
 10
253.7203552405787
 20
-533.4686475963346
 30
0.0
  0
VERTEX
  5
3CF
  8
0
 62
     1
 10
253.7399869114105
 20
-533.4056723265647
 30
0.0
  0
VERTEX
  5
3D0
  8
0
 62
     1
 10
253.7594013530349
 20
-533.3417612322102
 30
0.0
  0
VERTEX
  5
3D1
  8
0
 62
     1
 10
253.7787112863653
 20
-533.2773665673327
 30
0.0
  0
VERTEX
  5
3D2
  8
0
 62
     1
 10
253.798029432315
 20
-533.2129405859947
 30
0.0
  0
VERTEX
  5
3D3
  8
0
 62
     1
 10
253.8174685117975
 20
-533.1489355422585
 30
0.0
  0
VERTEX
  5
3D4
  8
0
 62
     1
 10
253.837141245726
 20
-533.0858036901863
 30
0.0
  0
VERTEX
  5
3D5
  8
0
 62
     1
 10
253.857160355014
 20
-533.0239972838402
 30
0.0
  0
VERTEX
  5
3D6
  8
0
 62
     1
 10
253.8776385605748
 20
-532.9639685772826
 30
0.0
  0
VERTEX
  5
3D7
  8
0
 62
     1
 10
253.8986885833216
 20
-532.9061698245755
 30
0.0
  0
VERTEX
  5
3D8
  8
0
 62
     1
 10
253.9204231441681
 20
-532.8510532797814
 30
0.0
  0
VERTEX
  5
3D9
  8
0
 62
     1
 10
253.9429549640273
 20
-532.7990711969624
 30
0.0
  0
VERTEX
  5
3DA
  8
0
 62
     1
 10
253.9663967638128
 20
-532.7506758301806
 30
0.0
  0
VERTEX
  5
3DB
  8
0
 62
     1
 10
253.9908612644378
 20
-532.7063194334984
 30
0.0
  0
VERTEX
  5
3DC
  8
0
 62
     1
 10
254.0164611868158
 20
-532.666454260978
 30
0.0
  0
VERTEX
  5
3DD
  8
0
 62
     1
 10
254.0433092518601
 20
-532.6315325666816
 30
0.0
  0
VERTEX
  5
3DE
  8
0
 62
     1
 10
254.071518180484
 20
-532.6020066046714
 30
0.0
  0
VERTEX
  5
3DF
  8
0
 62
     1
 10
254.1012006936009
 20
-532.5783286290098
 30
0.0
  0
VERTEX
  5
3E0
  8
0
 62
     1
 10
254.1324695121241
 20
-532.5609508937588
 30
0.0
  0
VERTEX
  5
3E1
  8
0
 62
     1
 10
254.1654373569671
 20
-532.5503256529807
 30
0.0
  0
SEQEND
  5
5A6
  8
0
 62
     1
  0
POLYLINE
  5
57
  8
0
 62
     1
 66
     1
 10
0.0
 20
0.0
 30
0.0
  0
VERTEX
  5
3E2
  8
0
 62
     1
 10
254.1654373569671
 20
-532.5503256529807
 30
0.0
  0
VERTEX
  5
3E3
  8
0
 62
     1
 10
254.1894269517445
 20
-532.5497384177773
 30
0.0
  0
VERTEX
  5
3E4
  8
0
 62
     1
 10
254.2131068088714
 20
-532.5575463830064
 30
0.0
  0
VERTEX
  5
3E5
  8
0
 62
     1
 10
254.2364548656646
 20
-532.572921681881
 30
0.0
  0
VERTEX
  5
3E6
  8
0
 62
     1
 10
254.2594490594411
 20
-532.5950364476133
 30
0.0
  0
VERTEX
  5
3E7
  8
0
 62
     1
 10
254.2820673275176
 20
-532.6230628134161
 30
0.0
  0
VERTEX
  5
3E8
  8
0
 62
     1
 10
254.3042876072113
 20
-532.6561729125023
 30
0.0
  0
VERTEX
  5
3E9
  8
0
 62
     1
 10
254.3260878358388
 20
-532.693538878084
 30
0.0
  0
VERTEX
  5
3EA
  8
0
 62
     1
 10
254.3474459507171
 20
-532.7343328433743
 30
0.0
  0
VERTEX
  5
3EB
  8
0
 62
     1
 10
254.3683398891632
 20
-532.7777269415855
 30
0.0
  0
VERTEX
  5
3EC
  8
0
 62
     1
 10
254.3887475884938
 20
-532.8228933059304
 30
0.0
  0
VERTEX
  5
3ED
  8
0
 62
     1
 10
254.408646986026
 20
-532.8690040696214
 30
0.0
  0
VERTEX
  5
3EE
  8
0
 62
     1
 10
254.4280160190765
 20
-532.9152313658714
 30
0.0
  0
VERTEX
  5
3EF
  8
0
 62
     1
 10
254.4468326249623
 20
-532.9607473278928
 30
0.0
  0
VERTEX
  5
3F0
  8
0
 62
     1
 10
254.4650747410003
 20
-533.0047240888983
 30
0.0
  0
VERTEX
  5
3F1
  8
0
 62
     1
 10
254.4827203045074
 20
-533.0463337821006
 30
0.0
  0
VERTEX
  5
3F2
  8
0
 62
     1
 10
254.4997472528004
 20
-533.0847485407123
 30
0.0
  0
VERTEX
  5
3F3
  8
0
 62
     1
 10
254.5161335231963
 20
-533.1191404979459
 30
0.0
  0
VERTEX
  5
3F4
  8
0
 62
     1
 10
254.531857053012
 20
-533.148681787014
 30
0.0
  0
VERTEX
  5
3F5
  8
0
 62
     1
 10
254.5468957795644
 20
-533.1725445411294
 30
0.0
  0
VERTEX
  5
3F6
  8
0
 62
     1
 10
254.5612276401702
 20
-533.1899008935045
 30
0.0
  0
VERTEX
  5
3F7
  8
0
 62
     1
 10
254.5748305721465
 20
-533.1999229773521
 30
0.0
  0
VERTEX
  5
3F8
  8
0
 62
     1
 10
254.5876825128102
 20
-533.2017829258848
 30
0.0
  0
VERTEX
  5
3F9
  8
0
 62
     1
 10
254.5997613994781
 20
-533.1946528723151
 30
0.0
  0
VERTEX
  5
3FA
  8
0
 62
     1
 10
254.6110451694671
 20
-533.1777049498558
 30
0.0
  0
SEQEND
  5
5A7
  8
0
 62
     1
  0
POLYLINE
  5
58
  8
0
 62
     1
 66
     1
 10
0.0
 20
0.0
 30
0.0
  0
VERTEX
  5
3FB
  8
0
 62
     1
 10
254.6110451694671
 20
-533.1777049498558
 30
0.0
  0
VERTEX
  5
3FC
  8
0
 62
     1
 10
254.6366082857527
 20
-533.12441402584
 30
0.0
  0
VERTEX
  5
3FD
  8
0
 62
     1
 10
254.6637214539181
 20
-533.0653187442532
 30
0.0
  0
VERTEX
  5
3FE
  8
0
 62
     1
 10
254.6921476490204
 20
-533.0007749892235
 30
0.0
  0
VERTEX
  5
3FF
  8
0
 62
     1
 10
254.7216498461164
 20
-532.931138644879
 30
0.0
  0
VERTEX
  5
400
  8
0
 62
     1
 10
254.7519910202633
 20
-532.8567655953478
 30
0.0
  0
VERTEX
  5
401
  8
0
 62
     1
 10
254.7829341465179
 20
-532.7780117247581
 30
0.0
  0
VERTEX
  5
402
  8
0
 62
     1
 10
254.8142421999372
 20
-532.6952329172382
 30
0.0
  0
VERTEX
  5
403
  8
0
 62
     1
 10
254.8456781555782
 20
-532.608785056916
 30
0.0
  0
VERTEX
  5
404
  8
0
 62
     1
 10
254.8770049884979
 20
-532.5190240279197
 30
0.0
  0
VERTEX
  5
405
  8
0
 62
     1
 10
254.9079856737532
 20
-532.4263057143777
 30
0.0
  0
VERTEX
  5
406
  8
0
 62
     1
 10
254.938383186401
 20
-532.3309860004179
 30
0.0
  0
VERTEX
  5
407
  8
0
 62
     1
 10
254.9679605014984
 20
-532.2334207701683
 30
0.0
  0
VERTEX
  5
408
  8
0
 62
     1
 10
254.9964805941023
 20
-532.1339659077574
 30
0.0
  0
VERTEX
  5
409
  8
0
 62
     1
 10
255.0237064392696
 20
-532.0329772973132
 30
0.0
  0
VERTEX
  5
40A
  8
0
 62
     1
 10
255.0494010120574
 20
-531.9308108229637
 30
0.0
  0
VERTEX
  5
40B
  8
0
 62
     1
 10
255.0733272875227
 20
-531.8278223688374
 30
0.0
  0
VERTEX
  5
40C
  8
0
 62
     1
 10
255.0952482407222
 20
-531.7243678190621
 30
0.0
  0
VERTEX
  5
40D
  8
0
 62
     1
 10
255.1149268467132
 20
-531.6208030577659
 30
0.0
  0
VERTEX
  5
40E
  8
0
 62
     1
 10
255.1321260805524
 20
-531.5174839690774
 30
0.0
  0
VERTEX
  5
40F
  8
0
 62
     1
 10
255.146608917297
 20
-531.4147664371244
 30
0.0
  0
VERTEX
  5
410
  8
0
 62
     1
 10
255.1581383320037
 20
-531.313006346035
 30
0.0
  0
VERTEX
  5
411
  8
0
 62
     1
 10
255.1664772997297
 20
-531.2125595799375
 30
0.0
  0
VERTEX
  5
412
  8
0
 62
     1
 10
255.1713887955318
 20
-531.1137820229601
 30
0.0
  0
VERTEX
  5
413
  8
0
 62
     1
 10
255.1726357944671
 20
-531.0170295592308
 30
0.0
  0
SEQEND
  5
5A8
  8
0
 62
     1
  0
POLYLINE
  5
59
  8
0
 62
     1
 66
     1
 10
0.0
 20
0.0
 30
0.0
  0
VERTEX
  5
414
  8
0
 62
     1
 10
255.1726357944671
 20
-531.0170295592308
 30
0.0
  0
VERTEX
  5
415
  8
0
 62
     1
 10
255.1718645074109
 20
-530.9125300348529
 30
0.0
  0
VERTEX
  5
416
  8
0
 62
     1
 10
255.1710356233426
 20
-530.8142648827624
 30
0.0
  0
VERTEX
  5
417
  8
0
 62
     1
 10
255.1701318813506
 20
-530.7219172911645
 30
0.0
  0
VERTEX
  5
418
  8
0
 62
     1
 10
255.1691360205233
 20
-530.6351704482645
 30
0.0
  0
VERTEX
  5
419
  8
0
 62
     1
 10
255.1680307799487
 20
-530.5537075422675
 30
0.0
  0
VERTEX
  5
41A
  8
0
 62
     1
 10
255.1667988987151
 20
-530.4772117613793
 30
0.0
  0
VERTEX
  5
41B
  8
0
 62
     1
 10
255.165423115911
 20
-530.4053662938047
 30
0.0
  0
VERTEX
  5
41C
  8
0
 62
     1
 10
255.1638861706245
 20
-530.3378543277494
 30
0.0
  0
VERTEX
  5
41D
  8
0
 62
     1
 10
255.1621708019439
 20
-530.2743590514184
 30
0.0
  0
VERTEX
  5
41E
  8
0
 62
     1
 10
255.1602597489575
 20
-530.214563653017
 30
0.0
  0
VERTEX
  5
41F
  8
0
 62
     1
 10
255.1581357507535
 20
-530.1581513207507
 30
0.0
  0
VERTEX
  5
420
  8
0
 62
     1
 10
255.1557815464202
 20
-530.1048052428246
 30
0.0
  0
VERTEX
  5
421
  8
0
 62
     1
 10
255.153179875046
 20
-530.054208607444
 30
0.0
  0
VERTEX
  5
422
  8
0
 62
     1
 10
255.1503134757189
 20
-530.0060446028144
 30
0.0
  0
VERTEX
  5
423
  8
0
 62
     1
 10
255.1471650875274
 20
-529.9599964171409
 30
0.0
  0
VERTEX
  5
424
  8
0
 62
     1
 10
255.1437174495597
 20
-529.9157472386289
 30
0.0
  0
VERTEX
  5
425
  8
0
 62
     1
 10
255.1399533009041
 20
-529.8729802554838
 30
0.0
  0
VERTEX
  5
426
  8
0
 62
     1
 10
255.1358553806487
 20
-529.8313786559105
 30
0.0
  0
VERTEX
  5
427
  8
0
 62
     1
 10
255.131406427882
 20
-529.7906256281146
 30
0.0
  0
VERTEX
  5
428
  8
0
 62
     1
 10
255.1265891816922
 20
-529.7504043603014
 30
0.0
  0
VERTEX
  5
429
  8
0
 62
     1
 10
255.1213863811676
 20
-529.7103980406762
 30
0.0
  0
VERTEX
  5
42A
  8
0
 62
     1
 10
255.1157807653963
 20
-529.6702898574441
 30
0.0
  0
VERTEX
  5
42B
  8
0
 62
     1
 10
255.1097550734667
 20
-529.6297629988105
 30
0.0
  0
VERTEX
  5
42C
  8
0
 62
     1
 10
255.1032920444671
 20
-529.5885006529808
 30
0.0
  0
SEQEND
  5
5A9
  8
0
 62
     1
  0
POLYLINE
  5
5A
  8
0
 62
     1
 66
     1
 10
0.0
 20
0.0
 30
0.0
  0
VERTEX
  5
42D
  8
0
 62
     1
 10
255.1032920444671
 20
-529.5885006529808
 30
0.0
  0
VERTEX
  5
42E
  8
0
 62
     1
 10
255.1776974916853
 20
-529.6076639695802
 30
0.0
  0
VERTEX
  5
42F
  8
0
 62
     1
 10
255.2459184835405
 20
-529.6313005614281
 30
0.0
  0
VERTEX
  5
430
  8
0
 62
     1
 10
255.3082886554901
 20
-529.6590919150352
 30
0.0
  0
VERTEX
  5
431
  8
0
 62
     1
 10
255.3651416429914
 20
-529.6907195169132
 30
0.0
  0
VERTEX
  5
432
  8
0
 62
     1
 10
255.4168110815019
 20
-529.7258648535728
 30
0.0
  0
VERTEX
  5
433
  8
0
 62
     1
 10
255.4636306064788
 20
-529.7642094115257
 30
0.0
  0
VERTEX
  5
434
  8
0
 62
     1
 10
255.5059338533796
 20
-529.805434677283
 30
0.0
  0
VERTEX
  5
435
  8
0
 62
     1
 10
255.5440544576616
 20
-529.8492221373558
 30
0.0
  0
VERTEX
  5
436
  8
0
 62
     1
 10
255.5783260547821
 20
-529.8952532782554
 30
0.0
  0
VERTEX
  5
437
  8
0
 62
     1
 10
255.6090822801984
 20
-529.9432095864931
 30
0.0
  0
VERTEX
  5
438
  8
0
 62
     1
 10
255.6366567693681
 20
-529.9927725485801
 30
0.0
  0
VERTEX
  5
439
  8
0
 62
     1
 10
255.6613831577484
 20
-530.0436236510277
 30
0.0
  0
VERTEX
  5
43A
  8
0
 62
     1
 10
255.6835950807966
 20
-530.095444380347
 30
0.0
  0
VERTEX
  5
43B
  8
0
 62
     1
 10
255.7036261739701
 20
-530.1479162230492
 30
0.0
  0
VERTEX
  5
43C
  8
0
 62
     1
 10
255.7218100727264
 20
-530.2007206656456
 30
0.0
  0
VERTEX
  5
43D
  8
0
 62
     1
 10
255.7384804125226
 20
-530.2535391946475
 30
0.0
  0
VERTEX
  5
43E
  8
0
 62
     1
 10
255.7539708288164
 20
-530.306053296566
 30
0.0
  0
VERTEX
  5
43F
  8
0
 62
     1
 10
255.7686149570648
 20
-530.3579444579125
 30
0.0
  0
VERTEX
  5
440
  8
0
 62
     1
 10
255.7827464327253
 20
-530.408894165198
 30
0.0
  0
VERTEX
  5
441
  8
0
 62
     1
 10
255.7966988912553
 20
-530.4585839049339
 30
0.0
  0
VERTEX
  5
442
  8
0
 62
     1
 10
255.8108059681121
 20
-530.5066951636314
 30
0.0
  0
VERTEX
  5
443
  8
0
 62
     1
 10
255.8254012987531
 20
-530.5529094278018
 30
0.0
  0
VERTEX
  5
444
  8
0
 62
     1
 10
255.8408185186356
 20
-530.5969081839562
 30
0.0
  0
VERTEX
  5
445
  8
0
 62
     1
 10
255.8573912632171
 20
-530.6383729186058
 30
0.0
  0
SEQEND
  5
5AA
  8
0
 62
     1
  0
POLYLINE
  5
5B
  8
0
 62
     1
 66
     1
 10
0.0
 20
0.0
 30
0.0
  0
VERTEX
  5
446
  8
0
 62
     1
 10
255.8573912632171
 20
-530.6383729186058
 30
0.0
  0
VERTEX
  5
447
  8
0
 62
     1
 10
255.8786220123615
 20
-530.5972617082562
 30
0.0
  0
VERTEX
  5
448
  8
0
 62
     1
 10
255.8990945724528
 20
-530.5498816488937
 30
0.0
  0
VERTEX
  5
449
  8
0
 62
     1
 10
255.9187178890411
 20
-530.4967217894554
 30
0.0
  0
VERTEX
  5
44A
  8
0
 62
     1
 10
255.937400907676
 20
-530.4382711788777
 30
0.0
  0
VERTEX
  5
44B
  8
0
 62
     1
 10
255.9550525739075
 20
-530.3750188660975
 30
0.0
  0
VERTEX
  5
44C
  8
0
 62
     1
 10
255.9715818332854
 20
-530.3074539000511
 30
0.0
  0
VERTEX
  5
44D
  8
0
 62
     1
 10
255.9868976313597
 20
-530.2360653296754
 30
0.0
  0
VERTEX
  5
44E
  8
0
 62
     1
 10
256.0009089136801
 20
-530.1613422039068
 30
0.0
  0
VERTEX
  5
44F
  8
0
 62
     1
 10
256.0135246257964
 20
-530.083773571682
 30
0.0
  0
VERTEX
  5
450
  8
0
 62
     1
 10
256.0246537132587
 20
-530.0038484819377
 30
0.0
  0
VERTEX
  5
451
  8
0
 62
     1
 10
256.0342051216167
 20
-529.9220559836104
 30
0.0
  0
VERTEX
  5
452
  8
0
 62
     1
 10
256.0420877964202
 20
-529.838885125637
 30
0.0
  0
VERTEX
  5
453
  8
0
 62
     1
 10
256.0482106832192
 20
-529.7548249569539
 30
0.0
  0
VERTEX
  5
454
  8
0
 62
     1
 10
256.0524827275635
 20
-529.6703645264979
 30
0.0
  0
VERTEX
  5
455
  8
0
 62
     1
 10
256.054812875003
 20
-529.5859928832053
 30
0.0
  0
VERTEX
  5
456
  8
0
 62
     1
 10
256.0551100710875
 20
-529.5021990760132
 30
0.0
  0
VERTEX
  5
457
  8
0
 62
     1
 10
256.0532832613669
 20
-529.419472153858
 30
0.0
  0
VERTEX
  5
458
  8
0
 62
     1
 10
256.0492413913909
 20
-529.3383011656761
 30
0.0
  0
VERTEX
  5
459
  8
0
 62
     1
 10
256.0428934067096
 20
-529.2591751604044
 30
0.0
  0
VERTEX
  5
45A
  8
0
 62
     1
 10
256.0341482528728
 20
-529.1825831869796
 30
0.0
  0
VERTEX
  5
45B
  8
0
 62
     1
 10
256.0229148754302
 20
-529.1090142943383
 30
0.0
  0
VERTEX
  5
45C
  8
0
 62
     1
 10
256.0091022199319
 20
-529.0389575314168
 30
0.0
  0
VERTEX
  5
45D
  8
0
 62
     1
 10
255.9926192319275
 20
-528.9729019471522
 30
0.0
  0
VERTEX
  5
45E
  8
0
 62
     1
 10
255.9733748569671
 20
-528.9113365904808
 30
0.0
  0
SEQEND
  5
5AB
  8
0
 62
     1
  0
POLYLINE
  5
5C
  8
0
 62
     1
 66
     1
 10
0.0
 20
0.0
 30
0.0
  0
VERTEX
  5
45F
  8
0
 62
     1
 10
255.9733748569671
 20
-528.9113365904808
 30
0.0
  0
VERTEX
  5
460
  8
0
 62
     1
 10
255.9209525205583
 20
-528.7719498337817
 30
0.0
  0
VERTEX
  5
461
  8
0
 62
     1
 10
255.8636794013736
 20
-528.6383057204812
 30
0.0
  0
VERTEX
  5
462
  8
0
 62
     1
 10
255.8023777797881
 20
-528.5099587103844
 30
0.0
  0
VERTEX
  5
463
  8
0
 62
     1
 10
255.7378699361772
 20
-528.3864632632963
 30
0.0
  0
VERTEX
  5
464
  8
0
 62
     1
 10
255.6709781509158
 20
-528.2673738390216
 30
0.0
  0
VERTEX
  5
465
  8
0
 62
     1
 10
255.6025247043792
 20
-528.1522448973656
 30
0.0
  0
VERTEX
  5
466
  8
0
 62
     1
 10
255.5333318769426
 20
-528.0406308981329
 30
0.0
  0
VERTEX
  5
467
  8
0
 62
     1
 10
255.464221948981
 20
-527.932086301129
 30
0.0
  0
VERTEX
  5
468
  8
0
 62
     1
 10
255.3960172008697
 20
-527.8261655661582
 30
0.0
  0
VERTEX
  5
469
  8
0
 62
     1
 10
255.3295399129838
 20
-527.722423153026
 30
0.0
  0
VERTEX
  5
46A
  8
0
 62
     1
 10
255.2656123656985
 20
-527.6204135215371
 30
0.0
  0
VERTEX
  5
46B
  8
0
 62
     1
 10
255.205056839389
 20
-527.5196911314964
 30
0.0
  0
VERTEX
  5
46C
  8
0
 62
     1
 10
255.1486956144304
 20
-527.419810442709
 30
0.0
  0
VERTEX
  5
46D
  8
0
 62
     1
 10
255.0973509711978
 20
-527.3203259149799
 30
0.0
  0
VERTEX
  5
46E
  8
0
 62
     1
 10
255.0518451900665
 20
-527.2207920081139
 30
0.0
  0
VERTEX
  5
46F
  8
0
 62
     1
 10
255.0130005514116
 20
-527.1207631819159
 30
0.0
  0
VERTEX
  5
470
  8
0
 62
     1
 10
254.9816393356082
 20
-527.0197938961912
 30
0.0
  0
VERTEX
  5
471
  8
0
 62
     1
 10
254.9585838230316
 20
-526.9174386107444
 30
0.0
  0
VERTEX
  5
472
  8
0
 62
     1
 10
254.9446562940568
 20
-526.8132517853808
 30
0.0
  0
VERTEX
  5
473
  8
0
 62
     1
 10
254.9406790290591
 20
-526.7067878799049
 30
0.0
  0
VERTEX
  5
474
  8
0
 62
     1
 10
254.9474743084136
 20
-526.5976013541222
 30
0.0
  0
VERTEX
  5
475
  8
0
 62
     1
 10
254.9658644124955
 20
-526.4852466678373
 30
0.0
  0
VERTEX
  5
476
  8
0
 62
     1
 10
254.99667162168
 20
-526.369278280855
 30
0.0
  0
VERTEX
  5
477
  8
0
 62
     1
 10
255.0407182163421
 20
-526.2492506529808
 30
0.0
  0
SEQEND
  5
5AC
  8
0
 62
     1
  0
POLYLINE
  5
5D
  8
0
 62
     1
 66
     1
 10
0.0
 20
0.0
 30
0.0
  0
VERTEX
  5
478
  8
0
 62
     1
 10
255.0407182163421
 20
-526.2492506529808
 30
0.0
  0
VERTEX
  5
479
  8
0
 62
     1
 10
255.1239006212064
 20
-526.0841459305552
 30
0.0
  0
VERTEX
  5
47A
  8
0
 62
     1
 10
255.2276733536938
 20
-525.9343006828202
 30
0.0
  0
VERTEX
  5
47B
  8
0
 62
     1
 10
255.3499817218963
 20
-525.798278738308
 30
0.0
  0
VERTEX
  5
47C
  8
0
 62
     1
 10
255.4887710339057
 20
-525.6746439255503
 30
0.0
  0
VERTEX
  5
47D
  8
0
 62
     1
 10
255.6419865978141
 20
-525.561960073079
 30
0.0
  0
VERTEX
  5
47E
  8
0
 62
     1
 10
255.8075737217132
 20
-525.4587910094261
 30
0.0
  0
VERTEX
  5
47F
  8
0
 62
     1
 10
255.983477713695
 20
-525.3637005631235
 30
0.0
  0
VERTEX
  5
480
  8
0
 62
     1
 10
256.1676438818513
 20
-525.275252562703
 30
0.0
  0
VERTEX
  5
481
  8
0
 62
     1
 10
256.3580175342743
 20
-525.1920108366966
 30
0.0
  0
VERTEX
  5
482
  8
0
 62
     1
 10
256.5525439790555
 20
-525.1125392136362
 30
0.0
  0
VERTEX
  5
483
  8
0
 62
     1
 10
256.749168524287
 20
-525.0354015220536
 30
0.0
  0
VERTEX
  5
484
  8
0
 62
     1
 10
256.9458364780609
 20
-524.9591615904808
 30
0.0
  0
VERTEX
  5
485
  8
0
 62
     1
 10
257.1404931484687
 20
-524.8823832474496
 30
0.0
  0
VERTEX
  5
486
  8
0
 62
     1
 10
257.3310838436026
 20
-524.803630321492
 30
0.0
  0
VERTEX
  5
487
  8
0
 62
     1
 10
257.5155538715545
 20
-524.72146664114
 30
0.0
  0
VERTEX
  5
488
  8
0
 62
     1
 10
257.6918485404162
 20
-524.6344560349253
 30
0.0
  0
VERTEX
  5
489
  8
0
 62
     1
 10
257.8579131582796
 20
-524.5411623313798
 30
0.0
  0
VERTEX
  5
48A
  8
0
 62
     1
 10
258.0116930332366
 20
-524.4401493590354
 30
0.0
  0
VERTEX
  5
48B
  8
0
 62
     1
 10
258.1511334733792
 20
-524.3299809464243
 30
0.0
  0
VERTEX
  5
48C
  8
0
 62
     1
 10
258.2741797867993
 20
-524.209220922078
 30
0.0
  0
VERTEX
  5
48D
  8
0
 62
     1
 10
258.3787772815887
 20
-524.0764331145286
 30
0.0
  0
VERTEX
  5
48E
  8
0
 62
     1
 10
258.4628712658393
 20
-523.9301813523081
 30
0.0
  0
VERTEX
  5
48F
  8
0
 62
     1
 10
258.5244070476432
 20
-523.7690294639482
 30
0.0
  0
VERTEX
  5
490
  8
0
 62
     1
 10
258.5613299350921
 20
-523.5915412779808
 30
0.0
  0
SEQEND
  5
5AD
  8
0
 62
     1
  0
POLYLINE
  5
5E
  8
0
 62
     1
 66
     1
 10
0.0
 20
0.0
 30
0.0
  0
VERTEX
  5
491
  8
0
 62
     1
 10
258.5613299350921
 20
-523.5915412779808
 30
0.0
  0
VERTEX
  5
492
  8
0
 62
     1
 10
258.5607885137811
 20
-523.5510375399449
 30
0.0
  0
VERTEX
  5
493
  8
0
 62
     1
 10
258.5488430958541
 20
-523.5154288378857
 30
0.0
  0
VERTEX
  5
494
  8
0
 62
     1
 10
258.5266294307891
 20
-523.4843207953453
 30
0.0
  0
VERTEX
  5
495
  8
0
 62
     1
 10
258.4952832680638
 20
-523.4573190358657
 30
0.0
  0
VERTEX
  5
496
  8
0
 62
     1
 10
258.4559403571559
 20
-523.4340291829888
 30
0.0
  0
VERTEX
  5
497
  8
0
 62
     1
 10
258.4097364475433
 20
-523.4140568602562
 30
0.0
  0
VERTEX
  5
498
  8
0
 62
     1
 10
258.3578072887038
 20
-523.3970076912103
 30
0.0
  0
VERTEX
  5
499
  8
0
 62
     1
 10
258.3012886301153
 20
-523.3824872993929
 30
0.0
  0
VERTEX
  5
49A
  8
0
 62
     1
 10
258.2413162212554
 20
-523.3701013083457
 30
0.0
  0
VERTEX
  5
49B
  8
0
 62
     1
 10
258.1790258116022
 20
-523.3594553416111
 30
0.0
  0
VERTEX
  5
49C
  8
0
 62
     1
 10
258.1155531506332
 20
-523.3501550227307
 30
0.0
  0
VERTEX
  5
49D
  8
0
 62
     1
 10
258.0520339878265
 20
-523.3418059752464
 30
0.0
  0
VERTEX
  5
49E
  8
0
 62
     1
 10
257.9896040726597
 20
-523.3340138227004
 30
0.0
  0
VERTEX
  5
49F
  8
0
 62
     1
 10
257.9293991546107
 20
-523.3263841886344
 30
0.0
  0
VERTEX
  5
4A0
  8
0
 62
     1
 10
257.8725549831573
 20
-523.3185226965904
 30
0.0
  0
VERTEX
  5
4A1
  8
0
 62
     1
 10
257.8202073077773
 20
-523.3100349701105
 30
0.0
  0
VERTEX
  5
4A2
  8
0
 62
     1
 10
257.7734918779485
 20
-523.3005266327364
 30
0.0
  0
VERTEX
  5
4A3
  8
0
 62
     1
 10
257.7335444431487
 20
-523.2896033080101
 30
0.0
  0
VERTEX
  5
4A4
  8
0
 62
     1
 10
257.7015007528558
 20
-523.2768706194736
 30
0.0
  0
VERTEX
  5
4A5
  8
0
 62
     1
 10
257.6784965565475
 20
-523.2619341906689
 30
0.0
  0
VERTEX
  5
4A6
  8
0
 62
     1
 10
257.6656676037018
 20
-523.2443996451378
 30
0.0
  0
VERTEX
  5
4A7
  8
0
 62
     1
 10
257.6641496437962
 20
-523.2238726064223
 30
0.0
  0
VERTEX
  5
4A8
  8
0
 62
     1
 10
257.6750784263087
 20
-523.1999586980643
 30
0.0
  0
VERTEX
  5
4A9
  8
0
 62
     1
 10
257.6995897007171
 20
-523.1722635436058
 30
0.0
  0
SEQEND
  5
5AE
  8
0
 62
     1
  0
LINE
  5
5F
  8
0
 62
     1
 10
257.6995897007171
 20
-523.1722635436058
 30
0.0
 11
258.7052150913421
 21
-522.2132772154808
 31
0.0
  0
POLYLINE
  5
60
  8
0
 62
     1
 66
     1
 10
0.0
 20
0.0
 30
0.0
  0
VERTEX
  5
4AA
  8
0
 62
     1
 10
258.7052150913421
 20
-522.2132772154808
 30
0.0
  0
VERTEX
  5
4AB
  8
0
 62
     1
 10
258.7261679951745
 20
-522.1895817283242
 30
0.0
  0
VERTEX
  5
4AC
  8
0
 62
     1
 10
258.7456191406856
 20
-522.156362577668
 30
0.0
  0
VERTEX
  5
4AD
  8
0
 62
     1
 10
258.7632381359283
 20
-522.11467756567
 30
0.0
  0
VERTEX
  5
4AE
  8
0
 62
     1
 10
258.778694588955
 20
-522.0655844944885
 30
0.0
  0
VERTEX
  5
4AF
  8
0
 62
     1
 10
258.7916581078183
 20
-522.0101411662808
 30
0.0
  0
VERTEX
  5
4B0
  8
0
 62
     1
 10
258.8017983005706
 20
-521.9494053832054
 30
0.0
  0
VERTEX
  5
4B1
  8
0
 62
     1
 10
258.8087847752648
 20
-521.8844349474201
 30
0.0
  0
VERTEX
  5
4B2
  8
0
 62
     1
 10
258.8122871399532
 20
-521.8162876610827
 30
0.0
  0
VERTEX
  5
4B3
  8
0
 62
     1
 10
258.8119750026885
 20
-521.7460213263513
 30
0.0
  0
VERTEX
  5
4B4
  8
0
 62
     1
 10
258.8075179715233
 20
-521.6746937453836
 30
0.0
  0
VERTEX
  5
4B5
  8
0
 62
     1
 10
258.7985856545101
 20
-521.6033627203376
 30
0.0
  0
VERTEX
  5
4B6
  8
0
 62
     1
 10
258.7848476597015
 20
-521.5330860533714
 30
0.0
  0
VERTEX
  5
4B7
  8
0
 62
     1
 10
258.7659735951501
 20
-521.4649215466429
 30
0.0
  0
VERTEX
  5
4B8
  8
0
 62
     1
 10
258.7416330689083
 20
-521.3999270023099
 30
0.0
  0
VERTEX
  5
4B9
  8
0
 62
     1
 10
258.7114956890289
 20
-521.3391602225304
 30
0.0
  0
VERTEX
  5
4BA
  8
0
 62
     1
 10
258.6752310635644
 20
-521.2836790094623
 30
0.0
  0
VERTEX
  5
4BB
  8
0
 62
     1
 10
258.6325088005673
 20
-521.2345411652636
 30
0.0
  0
VERTEX
  5
4BC
  8
0
 62
     1
 10
258.5829985080902
 20
-521.1928044920921
 30
0.0
  0
VERTEX
  5
4BD
  8
0
 62
     1
 10
258.5263697941857
 20
-521.1595267921059
 30
0.0
  0
VERTEX
  5
4BE
  8
0
 62
     1
 10
258.4622922669064
 20
-521.1357658674629
 30
0.0
  0
VERTEX
  5
4BF
  8
0
 62
     1
 10
258.3904355343047
 20
-521.1225795203209
 30
0.0
  0
VERTEX
  5
4C0
  8
0
 62
     1
 10
258.3104692044335
 20
-521.121025552838
 30
0.0
  0
VERTEX
  5
4C1
  8
0
 62
     1
 10
258.2220628853451
 20
-521.132161767172
 30
0.0
  0
VERTEX
  5
4C2
  8
0
 62
     1
 10
258.1248861850921
 20
-521.1570459654808
 30
0.0
  0
SEQEND
  5
5AF
  8
0
 62
     1
  0
POLYLINE
  5
61
  8
0
 62
     1
 66
     1
 10
0.0
 20
0.0
 30
0.0
  0
VERTEX
  5
4C3
  8
0
 62
     1
 10
258.1248861850921
 20
-521.1570459654808
 30
0.0
  0
VERTEX
  5
4C4
  8
0
 62
     1
 10
258.026692007959
 20
-521.1891290393584
 30
0.0
  0
VERTEX
  5
4C5
  8
0
 62
     1
 10
257.9226197553323
 20
-521.2247994887917
 30
0.0
  0
VERTEX
  5
4C6
  8
0
 62
     1
 10
257.8132271305266
 20
-521.2632654738426
 30
0.0
  0
VERTEX
  5
4C7
  8
0
 62
     1
 10
257.6990718368572
 20
-521.3037351545722
 30
0.0
  0
VERTEX
  5
4C8
  8
0
 62
     1
 10
257.5807115776386
 20
-521.3454166910419
 30
0.0
  0
VERTEX
  5
4C9
  8
0
 62
     1
 10
257.4587040561859
 20
-521.3875182433128
 30
0.0
  0
VERTEX
  5
4CA
  8
0
 62
     1
 10
257.3336069758138
 20
-521.4292479714464
 30
0.0
  0
VERTEX
  5
4CB
  8
0
 62
     1
 10
257.2059780398375
 20
-521.469814035504
 30
0.0
  0
VERTEX
  5
4CC
  8
0
 62
     1
 10
257.0763749515716
 20
-521.5084245955467
 30
0.0
  0
VERTEX
  5
4CD
  8
0
 62
     1
 10
256.9453554143311
 20
-521.5442878116361
 30
0.0
  0
VERTEX
  5
4CE
  8
0
 62
     1
 10
256.8134771314309
 20
-521.5766118438332
 30
0.0
  0
VERTEX
  5
4CF
  8
0
 62
     1
 10
256.6812978061859
 20
-521.6046048521996
 30
0.0
  0
VERTEX
  5
4D0
  8
0
 62
     1
 10
256.5493751419109
 20
-521.6274749967963
 30
0.0
  0
VERTEX
  5
4D1
  8
0
 62
     1
 10
256.4182668419209
 20
-521.644430437685
 30
0.0
  0
VERTEX
  5
4D2
  8
0
 62
     1
 10
256.2885306095306
 20
-521.6546793349266
 30
0.0
  0
VERTEX
  5
4D3
  8
0
 62
     1
 10
256.1607241480551
 20
-521.6574298485826
 30
0.0
  0
VERTEX
  5
4D4
  8
0
 62
     1
 10
256.0354051608092
 20
-521.6518901387144
 30
0.0
  0
VERTEX
  5
4D5
  8
0
 62
     1
 10
255.9131313511077
 20
-521.6372683653831
 30
0.0
  0
VERTEX
  5
4D6
  8
0
 62
     1
 10
255.7944604222657
 20
-521.6127726886502
 30
0.0
  0
VERTEX
  5
4D7
  8
0
 62
     1
 10
255.6799500775979
 20
-521.5776112685768
 30
0.0
  0
VERTEX
  5
4D8
  8
0
 62
     1
 10
255.5701580204193
 20
-521.5309922652244
 30
0.0
  0
VERTEX
  5
4D9
  8
0
 62
     1
 10
255.4656419540447
 20
-521.4721238386543
 30
0.0
  0
VERTEX
  5
4DA
  8
0
 62
     1
 10
255.366959581789
 20
-521.4002141489276
 30
0.0
  0
VERTEX
  5
4DB
  8
0
 62
     1
 10
255.2746686069671
 20
-521.3144713561057
 30
0.0
  0
SEQEND
  5
5B0
  8
0
 62
     1
  0
POLYLINE
  5
62
  8
0
 62
     1
 66
     1
 10
0.0
 20
0.0
 30
0.0
  0
VERTEX
  5
4DC
  8
0
 62
     1
 10
255.2746686069671
 20
-521.3144713561057
 30
0.0
  0
VERTEX
  5
4DD
  8
0
 62
     1
 10
255.2584035422473
 20
-521.2908423047843
 30
0.0
  0
VERTEX
  5
4DE
  8
0
 62
     1
 10
255.2526906836092
 20
-521.2657506317315
 30
0.0
  0
VERTEX
  5
4DF
  8
0
 62
     1
 10
255.256562811679
 20
-521.2393376540184
 30
0.0
  0
VERTEX
  5
4E0
  8
0
 62
     1
 10
255.2690527070829
 20
-521.2117446887157
 30
0.0
  0
VERTEX
  5
4E1
  8
0
 62
     1
 10
255.2891931504468
 20
-521.1831130528946
 30
0.0
  0
VERTEX
  5
4E2
  8
0
 62
     1
 10
255.3160169223968
 20
-521.1535840636253
 30
0.0
  0
VERTEX
  5
4E3
  8
0
 62
     1
 10
255.3485568035591
 20
-521.1232990379792
 30
0.0
  0
VERTEX
  5
4E4
  8
0
 62
     1
 10
255.3858455745597
 20
-521.0923992930271
 30
0.0
  0
VERTEX
  5
4E5
  8
0
 62
     1
 10
255.4269160160247
 20
-521.0610261458397
 30
0.0
  0
VERTEX
  5
4E6
  8
0
 62
     1
 10
255.4708009085803
 20
-521.0293209134878
 30
0.0
  0
VERTEX
  5
4E7
  8
0
 62
     1
 10
255.5165330328524
 20
-520.9974249130426
 30
0.0
  0
VERTEX
  5
4E8
  8
0
 62
     1
 10
255.5631451694671
 20
-520.9654794615745
 30
0.0
  0
VERTEX
  5
4E9
  8
0
 62
     1
 10
255.6096700990506
 20
-520.9336258761547
 30
0.0
  0
VERTEX
  5
4EA
  8
0
 62
     1
 10
255.655140602229
 20
-520.9020054738539
 30
0.0
  0
VERTEX
  5
4EB
  8
0
 62
     1
 10
255.6985894596283
 20
-520.8707595717431
 30
0.0
  0
VERTEX
  5
4EC
  8
0
 62
     1
 10
255.7390494518746
 20
-520.8400294868928
 30
0.0
  0
VERTEX
  5
4ED
  8
0
 62
     1
 10
255.7755533595939
 20
-520.8099565363742
 30
0.0
  0
VERTEX
  5
4EE
  8
0
 62
     1
 10
255.8071339634125
 20
-520.7806820372582
 30
0.0
  0
VERTEX
  5
4EF
  8
0
 62
     1
 10
255.8328240439562
 20
-520.7523473066153
 30
0.0
  0
VERTEX
  5
4F0
  8
0
 62
     1
 10
255.8516563818514
 20
-520.7250936615167
 30
0.0
  0
VERTEX
  5
4F1
  8
0
 62
     1
 10
255.862663757724
 20
-520.6990624190331
 30
0.0
  0
VERTEX
  5
4F2
  8
0
 62
     1
 10
255.8648789522001
 20
-520.6743948962353
 30
0.0
  0
VERTEX
  5
4F3
  8
0
 62
     1
 10
255.8573347459057
 20
-520.6512324101942
 30
0.0
  0
VERTEX
  5
4F4
  8
0
 62
     1
 10
255.8390639194671
 20
-520.6297162779808
 30
0.0
  0
SEQEND
  5
5B1
  8
0
 62
     1
  0
POLYLINE
  5
63
  8
0
 62
     1
 66
     1
 10
0.0
 20
0.0
 30
0.0
  0
VERTEX
  5
4F5
  8
0
 62
     1
 10
255.8390639194671
 20
-520.6297162779808
 30
0.0
  0
VERTEX
  5
4F6
  8
0
 62
     1
 10
255.7928802440261
 20
-520.5971619645472
 30
0.0
  0
VERTEX
  5
4F7
  8
0
 62
     1
 10
255.7383549651576
 20
-520.5706420000041
 30
0.0
  0
VERTEX
  5
4F8
  8
0
 62
     1
 10
255.6767419384185
 20
-520.5493308089256
 30
0.0
  0
VERTEX
  5
4F9
  8
0
 62
     1
 10
255.6092950193658
 20
-520.5324028158859
 30
0.0
  0
VERTEX
  5
4FA
  8
0
 62
     1
 10
255.5372680635564
 20
-520.5190324454591
 30
0.0
  0
VERTEX
  5
4FB
  8
0
 62
     1
 10
255.4619149265472
 20
-520.5083941222191
 30
0.0
  0
VERTEX
  5
4FC
  8
0
 62
     1
 10
255.3844894638951
 20
-520.4996622707403
 30
0.0
  0
VERTEX
  5
4FD
  8
0
 62
     1
 10
255.3062455311569
 20
-520.4920113155966
 30
0.0
  0
VERTEX
  5
4FE
  8
0
 62
     1
 10
255.2284369838897
 20
-520.4846156813621
 30
0.0
  0
VERTEX
  5
4FF
  8
0
 62
     1
 10
255.1523176776504
 20
-520.4766497926112
 30
0.0
  0
VERTEX
  5
500
  8
0
 62
     1
 10
255.0791414679957
 20
-520.4672880739176
 30
0.0
  0
VERTEX
  5
501
  8
0
 62
     1
 10
255.0101622104827
 20
-520.4557049498558
 30
0.0
  0
VERTEX
  5
502
  8
0
 62
     1
 10
254.9466337606684
 20
-520.4410748449997
 30
0.0
  0
VERTEX
  5
503
  8
0
 62
     1
 10
254.8898099741094
 20
-520.4225721839234
 30
0.0
  0
VERTEX
  5
504
  8
0
 62
     1
 10
254.8409447063628
 20
-520.399371391201
 30
0.0
  0
VERTEX
  5
505
  8
0
 62
     1
 10
254.8012918129856
 20
-520.3706468914068
 30
0.0
  0
VERTEX
  5
506
  8
0
 62
     1
 10
254.7721051495346
 20
-520.3355731091146
 30
0.0
  0
VERTEX
  5
507
  8
0
 62
     1
 10
254.7546385715667
 20
-520.2933244688987
 30
0.0
  0
VERTEX
  5
508
  8
0
 62
     1
 10
254.7501459346389
 20
-520.2430753953332
 30
0.0
  0
VERTEX
  5
509
  8
0
 62
     1
 10
254.759881094308
 20
-520.1840003129923
 30
0.0
  0
VERTEX
  5
50A
  8
0
 62
     1
 10
254.7850979061309
 20
-520.1152736464501
 30
0.0
  0
VERTEX
  5
50B
  8
0
 62
     1
 10
254.8270502256647
 20
-520.0360698202804
 30
0.0
  0
VERTEX
  5
50C
  8
0
 62
     1
 10
254.8869919084661
 20
-519.9455632590576
 30
0.0
  0
VERTEX
  5
50D
  8
0
 62
     1
 10
254.9661768100921
 20
-519.8429283873558
 30
0.0
  0
SEQEND
  5
5B2
  8
0
 62
     1
  0
POLYLINE
  5
64
  8
0
 62
     1
 66
     1
 10
0.0
 20
0.0
 30
0.0
  0
VERTEX
  5
50E
  8
0
 62
     1
 10
254.9661768100921
 20
-519.8429283873558
 30
0.0
  0
VERTEX
  5
50F
  8
0
 62
     1
 10
254.9851030260198
 20
-519.8104008859882
 30
0.0
  0
VERTEX
  5
510
  8
0
 62
     1
 10
254.9855356586074
 20
-519.7824845320135
 30
0.0
  0
VERTEX
  5
511
  8
0
 62
     1
 10
254.968877706546
 20
-519.7587377303123
 30
0.0
  0
VERTEX
  5
512
  8
0
 62
     1
 10
254.9365321685267
 20
-519.7387188857643
 30
0.0
  0
VERTEX
  5
513
  8
0
 62
     1
 10
254.8899020432408
 20
-519.7219864032497
 30
0.0
  0
VERTEX
  5
514
  8
0
 62
     1
 10
254.8303903293792
 20
-519.7080986876488
 30
0.0
  0
VERTEX
  5
515
  8
0
 62
     1
 10
254.7594000256332
 20
-519.6966141438413
 30
0.0
  0
VERTEX
  5
516
  8
0
 62
     1
 10
254.678334130694
 20
-519.6870911767077
 30
0.0
  0
VERTEX
  5
517
  8
0
 62
     1
 10
254.5885956432525
 20
-519.6790881911277
 30
0.0
  0
VERTEX
  5
518
  8
0
 62
     1
 10
254.491587562
 20
-519.6721635919819
 30
0.0
  0
VERTEX
  5
519
  8
0
 62
     1
 10
254.3887128856277
 20
-519.6658757841499
 30
0.0
  0
VERTEX
  5
51A
  8
0
 62
     1
 10
254.2813746128265
 20
-519.659783172512
 30
0.0
  0
VERTEX
  5
51B
  8
0
 62
     1
 10
254.1709757422877
 20
-519.6534441619484
 30
0.0
  0
VERTEX
  5
51C
  8
0
 62
     1
 10
254.0589192727024
 20
-519.6464171573391
 30
0.0
  0
VERTEX
  5
51D
  8
0
 62
     1
 10
253.9466082027618
 20
-519.6382605635642
 30
0.0
  0
VERTEX
  5
51E
  8
0
 62
     1
 10
253.8354455311569
 20
-519.6285327855039
 30
0.0
  0
VERTEX
  5
51F
  8
0
 62
     1
 10
253.726834256579
 20
-519.6167922280382
 30
0.0
  0
VERTEX
  5
520
  8
0
 62
     1
 10
253.622177377719
 20
-519.6025972960472
 30
0.0
  0
VERTEX
  5
521
  8
0
 62
     1
 10
253.5228778932683
 20
-519.5855063944109
 30
0.0
  0
VERTEX
  5
522
  8
0
 62
     1
 10
253.4303388019179
 20
-519.5650779280097
 30
0.0
  0
VERTEX
  5
523
  8
0
 62
     1
 10
253.345963102359
 20
-519.5408703017234
 30
0.0
  0
VERTEX
  5
524
  8
0
 62
     1
 10
253.2711537932826
 20
-519.5124419204324
 30
0.0
  0
VERTEX
  5
525
  8
0
 62
     1
 10
253.2073138733799
 20
-519.4793511890164
 30
0.0
  0
VERTEX
  5
526
  8
0
 62
     1
 10
253.1558463413421
 20
-519.4411565123557
 30
0.0
  0
SEQEND
  5
5B3
  8
0
 62
     1
  0
POLYLINE
  5
65
  8
0
 62
     1
 66
     1
 10
0.0
 20
0.0
 30
0.0
  0
VERTEX
  5
527
  8
0
 62
     1
 10
253.1558463413421
 20
-519.4411565123557
 30
0.0
  0
VERTEX
  5
528
  8
0
 62
     1
 10
253.1094794937175
 20
-519.3983864354628
 30
0.0
  0
VERTEX
  5
529
  8
0
 62
     1
 10
253.0659745730406
 20
-519.3570536527455
 30
0.0
  0
VERTEX
  5
52A
  8
0
 62
     1
 10
253.0248237430755
 20
-519.3163100295066
 30
0.0
  0
VERTEX
  5
52B
  8
0
 62
     1
 10
252.9855191675863
 20
-519.2753074310478
 30
0.0
  0
VERTEX
  5
52C
  8
0
 62
     1
 10
252.9475530103372
 20
-519.2331977226717
 30
0.0
  0
VERTEX
  5
52D
  8
0
 62
     1
 10
252.9104174350921
 20
-519.18913276968
 30
0.0
  0
VERTEX
  5
52E
  8
0
 62
     1
 10
252.8736046056153
 20
-519.1422644373753
 30
0.0
  0
VERTEX
  5
52F
  8
0
 62
     1
 10
252.8366066856708
 20
-519.0917445910595
 30
0.0
  0
VERTEX
  5
530
  8
0
 62
     1
 10
252.7989158390228
 20
-519.036725096035
 30
0.0
  0
VERTEX
  5
531
  8
0
 62
     1
 10
252.7600242294353
 20
-518.9763578176039
 30
0.0
  0
VERTEX
  5
532
  8
0
 62
     1
 10
252.7194240206724
 20
-518.9097946210684
 30
0.0
  0
VERTEX
  5
533
  8
0
 62
     1
 10
252.6766073764983
 20
-518.8361873717307
 30
0.0
  0
VERTEX
  5
534
  8
0
 62
     1
 10
252.6310664606772
 20
-518.7546879348931
 30
0.0
  0
VERTEX
  5
535
  8
0
 62
     1
 10
252.5822934369729
 20
-518.6644481758577
 30
0.0
  0
VERTEX
  5
536
  8
0
 62
     1
 10
252.5297804691497
 20
-518.5646199599266
 30
0.0
  0
VERTEX
  5
537
  8
0
 62
     1
 10
252.4730197209717
 20
-518.4543551524021
 30
0.0
  0
VERTEX
  5
538
  8
0
 62
     1
 10
252.4115033562031
 20
-518.3328056185863
 30
0.0
  0
VERTEX
  5
539
  8
0
 62
     1
 10
252.3447235386077
 20
-518.1991232237815
 30
0.0
  0
VERTEX
  5
53A
  8
0
 62
     1
 10
252.2721724319499
 20
-518.05245983329
 30
0.0
  0
VERTEX
  5
53B
  8
0
 62
     1
 10
252.1933421999937
 20
-517.8919673124136
 30
0.0
  0
VERTEX
  5
53C
  8
0
 62
     1
 10
252.1077250065032
 20
-517.7167975264549
 30
0.0
  0
VERTEX
  5
53D
  8
0
 62
     1
 10
252.0148130152426
 20
-517.5261023407159
 30
0.0
  0
VERTEX
  5
53E
  8
0
 62
     1
 10
251.9140983899758
 20
-517.3190336204988
 30
0.0
  0
VERTEX
  5
53F
  8
0
 62
     1
 10
251.8050732944671
 20
-517.0947432311058
 30
0.0
  0
SEQEND
  5
5B4
  8
0
 62
     1
  0
POLYLINE
  5
66
  8
0
 62
     1
 66
     1
 10
0.0
 20
0.0
 30
0.0
  0
VERTEX
  5
540
  8
0
 62
     1
 10
251.8050732944671
 20
-517.0947432311058
 30
0.0
  0
VERTEX
  5
541
  8
0
 62
     1
 10
251.7963886211296
 20
-517.0803496052106
 30
0.0
  0
VERTEX
  5
542
  8
0
 62
     1
 10
251.7859185965685
 20
-517.0689171568871
 30
0.0
  0
VERTEX
  5
543
  8
0
 62
     1
 10
251.773814702243
 20
-517.0602907469749
 30
0.0
  0
VERTEX
  5
544
  8
0
 62
     1
 10
251.7602284196118
 20
-517.0543152363142
 30
0.0
  0
VERTEX
  5
545
  8
0
 62
     1
 10
251.7453112301338
 20
-517.0508354857445
 30
0.0
  0
VERTEX
  5
546
  8
0
 62
     1
 10
251.7292146152679
 20
-517.0496963561058
 30
0.0
  0
VERTEX
  5
547
  8
0
 62
     1
 10
251.712090056473
 20
-517.050742708238
 30
0.0
  0
VERTEX
  5
548
  8
0
 62
     1
 10
251.6940890352078
 20
-517.0538194029808
 30
0.0
  0
VERTEX
  5
549
  8
0
 62
     1
 10
251.6753630329314
 20
-517.0587713011741
 30
0.0
  0
VERTEX
  5
54A
  8
0
 62
     1
 10
251.6560635311027
 20
-517.0654432636579
 30
0.0
  0
VERTEX
  5
54B
  8
0
 62
     1
 10
251.6363420111803
 20
-517.0736801512719
 30
0.0
  0
VERTEX
  5
54C
  8
0
 62
     1
 10
251.6163499546233
 20
-517.0833268248558
 30
0.0
  0
VERTEX
  5
54D
  8
0
 62
     1
 10
251.5962388428906
 20
-517.0942281452496
 30
0.0
  0
VERTEX
  5
54E
  8
0
 62
     1
 10
251.5761601574409
 20
-517.1062289732932
 30
0.0
  0
VERTEX
  5
54F
  8
0
 62
     1
 10
251.5562653797332
 20
-517.1191741698265
 30
0.0
  0
VERTEX
  5
550
  8
0
 62
     1
 10
251.5367059912264
 20
-517.1329085956891
 30
0.0
  0
VERTEX
  5
551
  8
0
 62
     1
 10
251.5176334733792
 20
-517.147277111721
 30
0.0
  0
VERTEX
  5
552
  8
0
 62
     1
 10
251.4991993076507
 20
-517.162124578762
 30
0.0
  0
VERTEX
  5
553
  8
0
 62
     1
 10
251.4815549754996
 20
-517.177295857652
 30
0.0
  0
VERTEX
  5
554
  8
0
 62
     1
 10
251.4648519583849
 20
-517.1926358092308
 30
0.0
  0
VERTEX
  5
555
  8
0
 62
     1
 10
251.4492417377654
 20
-517.2079892943382
 30
0.0
  0
VERTEX
  5
556
  8
0
 62
     1
 10
251.4348757951001
 20
-517.2232011738141
 30
0.0
  0
VERTEX
  5
557
  8
0
 62
     1
 10
251.4219056118477
 20
-517.2381163084983
 30
0.0
  0
VERTEX
  5
558
  8
0
 62
     1
 10
251.4104826694671
 20
-517.2525795592308
 30
0.0
  0
SEQEND
  5
5B5
  8
0
 62
     1
  0
POLYLINE
  5
67
  8
0
 62
     1
 66
     1
 10
0.0
 20
0.0
 30
0.0
  0
VERTEX
  5
559
  8
0
 62
     1
 10
251.4104826694671
 20
-517.2525795592308
 30
0.0
  0
VERTEX
  5
55A
  8
0
 62
     1
 10
251.3427713072642
 20
-517.3539553339534
 30
0.0
  0
VERTEX
  5
55B
  8
0
 62
     1
 10
251.2873967197601
 20
-517.4594994288867
 30
0.0
  0
VERTEX
  5
55C
  8
0
 62
     1
 10
251.2436187610809
 20
-517.5689724493981
 30
0.0
  0
VERTEX
  5
55D
  8
0
 62
     1
 10
251.2106972853526
 20
-517.6821350008541
 30
0.0
  0
VERTEX
  5
55E
  8
0
 62
     1
 10
251.187892146701
 20
-517.7987476886219
 30
0.0
  0
VERTEX
  5
55F
  8
0
 62
     1
 10
251.1744631992523
 20
-517.9185711180686
 30
0.0
  0
VERTEX
  5
560
  8
0
 62
     1
 10
251.1696702971323
 20
-518.0413658945613
 30
0.0
  0
VERTEX
  5
561
  8
0
 62
     1
 10
251.1727732944671
 20
-518.1668926234669
 30
0.0
  0
VERTEX
  5
562
  8
0
 62
     1
 10
251.1830320453826
 20
-518.2949119101525
 30
0.0
  0
VERTEX
  5
563
  8
0
 62
     1
 10
251.1997064040049
 20
-518.4251843599849
 30
0.0
  0
VERTEX
  5
564
  8
0
 62
     1
 10
251.2220562244598
 20
-518.5574705783314
 30
0.0
  0
VERTEX
  5
565
  8
0
 62
     1
 10
251.2493413608734
 20
-518.6915311705588
 30
0.0
  0
VERTEX
  5
566
  8
0
 62
     1
 10
251.2808216673716
 20
-518.8271267420345
 30
0.0
  0
VERTEX
  5
567
  8
0
 62
     1
 10
251.3157569980804
 20
-518.9640178981251
 30
0.0
  0
VERTEX
  5
568
  8
0
 62
     1
 10
251.3534072071258
 20
-519.1019652441978
 30
0.0
  0
VERTEX
  5
569
  8
0
 62
     1
 10
251.3930321486338
 20
-519.2407293856196
 30
0.0
  0
VERTEX
  5
56A
  8
0
 62
     1
 10
251.4338916767303
 20
-519.3800709277577
 30
0.0
  0
VERTEX
  5
56B
  8
0
 62
     1
 10
251.4752456455413
 20
-519.5197504759788
 30
0.0
  0
VERTEX
  5
56C
  8
0
 62
     1
 10
251.5163539091928
 20
-519.6595286356501
 30
0.0
  0
VERTEX
  5
56D
  8
0
 62
     1
 10
251.5564763218109
 20
-519.7991660121388
 30
0.0
  0
VERTEX
  5
56E
  8
0
 62
     1
 10
251.5948727375213
 20
-519.9384232108116
 30
0.0
  0
VERTEX
  5
56F
  8
0
 62
     1
 10
251.6308030104502
 20
-520.0770608370357
 30
0.0
  0
VERTEX
  5
570
  8
0
 62
     1
 10
251.6635269947234
 20
-520.2148394961781
 30
0.0
  0
VERTEX
  5
571
  8
0
 62
     1
 10
251.6923045444671
 20
-520.3515197936058
 30
0.0
  0
SEQEND
  5
5B6
  8
0
 62
     1
  0
POLYLINE
  5
68
  8
0
 62
     1
 66
     1
 10
0.0
 20
0.0
 30
0.0
  0
VERTEX
  5
572
  8
0
 62
     1
 10
251.6923045444671
 20
-520.3515197936058
 30
0.0
  0
VERTEX
  5
573
  8
0
 62
     1
 10
251.6178827073315
 20
-520.3933484751843
 30
0.0
  0
VERTEX
  5
574
  8
0
 62
     1
 10
251.5433717256375
 20
-520.4400795522231
 30
0.0
  0
VERTEX
  5
575
  8
0
 62
     1
 10
251.4688988041107
 20
-520.4914336981774
 30
0.0
  0
VERTEX
  5
576
  8
0
 62
     1
 10
251.3945911474764
 20
-520.5471315865022
 30
0.0
  0
VERTEX
  5
577
  8
0
 62
     1
 10
251.3205759604601
 20
-520.6068938906528
 30
0.0
  0
VERTEX
  5
578
  8
0
 62
     1
 10
251.2469804477874
 20
-520.6704412840843
 30
0.0
  0
VERTEX
  5
579
  8
0
 62
     1
 10
251.1739318141837
 20
-520.7374944402518
 30
0.0
  0
VERTEX
  5
57A
  8
0
 62
     1
 10
251.1015572643745
 20
-520.8077740326104
 30
0.0
  0
VERTEX
  5
57B
  8
0
 62
     1
 10
251.0299840030852
 20
-520.8810007346153
 30
0.0
  0
VERTEX
  5
57C
  8
0
 62
     1
 10
250.9593392350415
 20
-520.9568952197216
 30
0.0
  0
VERTEX
  5
57D
  8
0
 62
     1
 10
250.8897501649686
 20
-521.0351781613845
 30
0.0
  0
VERTEX
  5
57E
  8
0
 62
     1
 10
250.8213439975921
 20
-521.115570233059
 30
0.0
  0
VERTEX
  5
57F
  8
0
 62
     1
 10
250.7542479376375
 20
-521.1977921082001
 30
0.0
  0
VERTEX
  5
580
  8
0
 62
     1
 10
250.6885891898302
 20
-521.2815644602634
 30
0.0
  0
VERTEX
  5
581
  8
0
 62
     1
 10
250.6244949588958
 20
-521.3666079627037
 30
0.0
  0
VERTEX
  5
582
  8
0
 62
     1
 10
250.5620924495597
 20
-521.4526432889761
 30
0.0
  0
VERTEX
  5
583
  8
0
 62
     1
 10
250.5015088665474
 20
-521.5393911125359
 30
0.0
  0
VERTEX
  5
584
  8
0
 62
     1
 10
250.4428714145843
 20
-521.6265721068382
 30
0.0
  0
VERTEX
  5
585
  8
0
 62
     1
 10
250.386307298396
 20
-521.7139069453381
 30
0.0
  0
VERTEX
  5
586
  8
0
 62
     1
 10
250.3319437227078
 20
-521.8011163014905
 30
0.0
  0
VERTEX
  5
587
  8
0
 62
     1
 10
250.2799078922454
 20
-521.887920848751
 30
0.0
  0
VERTEX
  5
588
  8
0
 62
     1
 10
250.2303270117342
 20
-521.9740412605745
 30
0.0
  0
VERTEX
  5
589
  8
0
 62
     1
 10
250.1833282858996
 20
-522.059198210416
 30
0.0
  0
VERTEX
  5
58A
  8
0
 62
     1
 10
250.1390389194671
 20
-522.1431123717308
 30
0.0
  0
SEQEND
  5
5B7
  8
0
 62
     1
  0
LINE
  5
69
  8
0
 62
     1
 10
250.1390389194671
 20
-522.1431123717308
 30
0.0
 11
250.1390389194671
 21
-522.1431123717308
 31
0.0
  0
ENDSEC
  0
EOF
