  0
SECTION
  2
BLOCKS
  0
ENDSEC
  0
SECTION
  2
ENTITIES
  0
LINE
  8
0
 10
170
 20
110
 11
-10
 21
110
  0
LINE
  8
0
 10
-10
 20
110
 11
-10
 21
-10
  0
LINE
  8
0
 10
-10
 20
-10
 11
170
 21
-10
  0
LINE
  8
0
 10
170
 20
-10
 11
170
 21
110
  0
LINE
  8
0
 10
3
 20
3
 11
3
 21
97
  0
LINE
  8
0
 10
3
 20
97
 11
157
 21
97
  0
LINE
  8
0
 10
157
 20
97
 11
157
 21
3
  0
LINE
  8
0
 10
157
 20
3
 11
3
 21
3
  0
LINE
  8
0
 10
164.686
 20
72.0564
 11
164.073
 21
72.1868
  0
LINE
  8
0
 10
164.073
 20
72.1868
 11
163.5
 21
72.4419
  0
LINE
  8
0
 10
163.5
 20
72.4419
 11
162.993
 21
72.8106
  0
LINE
  8
0
 10
162.993
 20
72.8106
 11
162.573
 21
73.2766
  0
LINE
  8
0
 10
162.573
 20
73.2766
 11
162.259
 21
73.8198
  0
LINE
  8
0
 10
162.259
 20
73.8198
 11
162.066
 21
74.4163
  0
LINE
  8
0
 10
162.066
 20
74.4163
 11
162
 21
75.04
  0
LINE
  8
0
 10
162
 20
75.04
 11
162.066
 21
75.6637
  0
LINE
  8
0
 10
162.066
 20
75.6637
 11
162.259
 21
76.2602
  0
LINE
  8
0
 10
162.259
 20
76.2602
 11
162.573
 21
76.8033
  0
LINE
  8
0
 10
162.573
 20
76.8033
 11
162.993
 21
77.2694
  0
LINE
  8
0
 10
162.993
 20
77.2694
 11
163.5
 21
77.6381
  0
LINE
  8
0
 10
163.5
 20
77.6381
 11
164.073
 21
77.8932
  0
LINE
  8
0
 10
164.073
 20
77.8932
 11
164.686
 21
78.0236
  0
LINE
  8
0
 10
164.686
 20
78.0236
 11
165.314
 21
78.0236
  0
LINE
  8
0
 10
165.314
 20
78.0236
 11
165.927
 21
77.8932
  0
LINE
  8
0
 10
165.927
 20
77.8932
 11
166.5
 21
77.6381
  0
LINE
  8
0
 10
166.5
 20
77.6381
 11
167.007
 21
77.2694
  0
LINE
  8
0
 10
167.007
 20
77.2694
 11
167.427
 21
76.8033
  0
LINE
  8
0
 10
167.427
 20
76.8033
 11
167.741
 21
76.2602
  0
LINE
  8
0
 10
167.741
 20
76.2602
 11
167.934
 21
75.6637
  0
LINE
  8
0
 10
167.934
 20
75.6637
 11
168
 21
75.04
  0
LINE
  8
0
 10
168
 20
75.04
 11
167.934
 21
74.4163
  0
LINE
  8
0
 10
167.934
 20
74.4163
 11
167.741
 21
73.8198
  0
LINE
  8
0
 10
167.741
 20
73.8198
 11
167.427
 21
73.2766
  0
LINE
  8
0
 10
167.427
 20
73.2766
 11
167.007
 21
72.8106
  0
LINE
  8
0
 10
167.007
 20
72.8106
 11
166.5
 21
72.4419
  0
LINE
  8
0
 10
166.5
 20
72.4419
 11
165.927
 21
72.1868
  0
LINE
  8
0
 10
165.927
 20
72.1868
 11
165.314
 21
72.0564
  0
LINE
  8
0
 10
165.314
 20
72.0564
 11
164.686
 21
72.0564
  0
LINE
  8
0
 10
-5.31358
 20
72.0564
 11
-5.92705
 21
72.1868
  0
LINE
  8
0
 10
-5.92705
 20
72.1868
 11
-6.5
 21
72.4419
  0
LINE
  8
0
 10
-6.5
 20
72.4419
 11
-7.00739
 21
72.8106
  0
LINE
  8
0
 10
-7.00739
 20
72.8106
 11
-7.42705
 21
73.2766
  0
LINE
  8
0
 10
-7.42705
 20
73.2766
 11
-7.74063
 21
73.8198
  0
LINE
  8
0
 10
-7.74063
 20
73.8198
 11
-7.93443
 21
74.4163
  0
LINE
  8
0
 10
-7.93443
 20
74.4163
 11
-8
 21
75.04
  0
LINE
  8
0
 10
-8
 20
75.04
 11
-7.93443
 21
75.6637
  0
LINE
  8
0
 10
-7.93443
 20
75.6637
 11
-7.74063
 21
76.2602
  0
LINE
  8
0
 10
-7.74063
 20
76.2602
 11
-7.42705
 21
76.8033
  0
LINE
  8
0
 10
-7.42705
 20
76.8033
 11
-7.00739
 21
77.2694
  0
LINE
  8
0
 10
-7.00739
 20
77.2694
 11
-6.49998
 21
77.6381
  0
LINE
  8
0
 10
-6.49998
 20
77.6381
 11
-5.92705
 21
77.8932
  0
LINE
  8
0
 10
-5.92705
 20
77.8932
 11
-5.31358
 21
78.0236
  0
LINE
  8
0
 10
-5.31358
 20
78.0236
 11
-4.6864
 21
78.0236
  0
LINE
  8
0
 10
-4.6864
 20
78.0236
 11
-4.07294
 21
77.8932
  0
LINE
  8
0
 10
-4.07294
 20
77.8932
 11
-3.49998
 21
77.6381
  0
LINE
  8
0
 10
-3.49998
 20
77.6381
 11
-2.9926
 21
77.2694
  0
LINE
  8
0
 10
-2.9926
 20
77.2694
 11
-2.57294
 21
76.8033
  0
LINE
  8
0
 10
-2.57294
 20
76.8033
 11
-2.25935
 21
76.2602
  0
LINE
  8
0
 10
-2.25935
 20
76.2602
 11
-2.06555
 21
75.6637
  0
LINE
  8
0
 10
-2.06555
 20
75.6637
 11
-2
 21
75.04
  0
LINE
  8
0
 10
-2
 20
75.04
 11
-2.06555
 21
74.4163
  0
LINE
  8
0
 10
-2.06555
 20
74.4163
 11
-2.25935
 21
73.8198
  0
LINE
  8
0
 10
-2.25935
 20
73.8198
 11
-2.57294
 21
73.2766
  0
LINE
  8
0
 10
-2.57294
 20
73.2766
 11
-2.9926
 21
72.8106
  0
LINE
  8
0
 10
-2.9926
 20
72.8106
 11
-3.49998
 21
72.4419
  0
LINE
  8
0
 10
-3.49998
 20
72.4419
 11
-4.07294
 21
72.1868
  0
LINE
  8
0
 10
-4.07294
 20
72.1868
 11
-4.6864
 21
72.0564
  0
LINE
  8
0
 10
-4.6864
 20
72.0564
 11
-5.31358
 21
72.0564
  0
LINE
  8
0
 10
164.686
 20
47.0164
 11
164.073
 21
47.1468
  0
LINE
  8
0
 10
164.073
 20
47.1468
 11
163.5
 21
47.4019
  0
LINE
  8
0
 10
163.5
 20
47.4019
 11
162.993
 21
47.7706
  0
LINE
  8
0
 10
162.993
 20
47.7706
 11
162.573
 21
48.2366
  0
LINE
  8
0
 10
162.573
 20
48.2366
 11
162.259
 21
48.7798
  0
LINE
  8
0
 10
162.259
 20
48.7798
 11
162.066
 21
49.3763
  0
LINE
  8
0
 10
162.066
 20
49.3763
 11
162
 21
50
  0
LINE
  8
0
 10
162
 20
50
 11
162.066
 21
50.6237
  0
LINE
  8
0
 10
162.066
 20
50.6237
 11
162.259
 21
51.2202
  0
LINE
  8
0
 10
162.259
 20
51.2202
 11
162.573
 21
51.7634
  0
LINE
  8
0
 10
162.573
 20
51.7634
 11
162.993
 21
52.2294
  0
LINE
  8
0
 10
162.993
 20
52.2294
 11
163.5
 21
52.5981
  0
LINE
  8
0
 10
163.5
 20
52.5981
 11
164.073
 21
52.8532
  0
LINE
  8
0
 10
164.073
 20
52.8532
 11
164.686
 21
52.9836
  0
LINE
  8
0
 10
164.686
 20
52.9836
 11
165.314
 21
52.9836
  0
LINE
  8
0
 10
165.314
 20
52.9836
 11
165.927
 21
52.8532
  0
LINE
  8
0
 10
165.927
 20
52.8532
 11
166.5
 21
52.5981
  0
LINE
  8
0
 10
166.5
 20
52.5981
 11
167.007
 21
52.2294
  0
LINE
  8
0
 10
167.007
 20
52.2294
 11
167.427
 21
51.7634
  0
LINE
  8
0
 10
167.427
 20
51.7634
 11
167.741
 21
51.2202
  0
LINE
  8
0
 10
167.741
 20
51.2202
 11
167.934
 21
50.6237
  0
LINE
  8
0
 10
167.934
 20
50.6237
 11
168
 21
50
  0
LINE
  8
0
 10
168
 20
50
 11
167.934
 21
49.3763
  0
LINE
  8
0
 10
167.934
 20
49.3763
 11
167.741
 21
48.7798
  0
LINE
  8
0
 10
167.741
 20
48.7798
 11
167.427
 21
48.2366
  0
LINE
  8
0
 10
167.427
 20
48.2366
 11
167.007
 21
47.7706
  0
LINE
  8
0
 10
167.007
 20
47.7706
 11
166.5
 21
47.4019
  0
LINE
  8
0
 10
166.5
 20
47.4019
 11
165.927
 21
47.1468
  0
LINE
  8
0
 10
165.927
 20
47.1468
 11
165.314
 21
47.0164
  0
LINE
  8
0
 10
165.314
 20
47.0164
 11
164.686
 21
47.0164
  0
LINE
  8
0
 10
-5.31358
 20
47.0164
 11
-5.92705
 21
47.1468
  0
LINE
  8
0
 10
-5.92705
 20
47.1468
 11
-6.5
 21
47.4019
  0
LINE
  8
0
 10
-6.5
 20
47.4019
 11
-7.00739
 21
47.7706
  0
LINE
  8
0
 10
-7.00739
 20
47.7706
 11
-7.42705
 21
48.2366
  0
LINE
  8
0
 10
-7.42705
 20
48.2366
 11
-7.74063
 21
48.7798
  0
LINE
  8
0
 10
-7.74063
 20
48.7798
 11
-7.93443
 21
49.3763
  0
LINE
  8
0
 10
-7.93443
 20
49.3763
 11
-8
 21
50
  0
LINE
  8
0
 10
-8
 20
50
 11
-7.93443
 21
50.6237
  0
LINE
  8
0
 10
-7.93443
 20
50.6237
 11
-7.74063
 21
51.2202
  0
LINE
  8
0
 10
-7.74063
 20
51.2202
 11
-7.42705
 21
51.7634
  0
LINE
  8
0
 10
-7.42705
 20
51.7634
 11
-7.00739
 21
52.2294
  0
LINE
  8
0
 10
-7.00739
 20
52.2294
 11
-6.49998
 21
52.5981
  0
LINE
  8
0
 10
-6.49998
 20
52.5981
 11
-5.92705
 21
52.8532
  0
LINE
  8
0
 10
-5.92705
 20
52.8532
 11
-5.31358
 21
52.9836
  0
LINE
  8
0
 10
-5.31358
 20
52.9836
 11
-4.6864
 21
52.9836
  0
LINE
  8
0
 10
-4.6864
 20
52.9836
 11
-4.07294
 21
52.8532
  0
LINE
  8
0
 10
-4.07294
 20
52.8532
 11
-3.49998
 21
52.5981
  0
LINE
  8
0
 10
-3.49998
 20
52.5981
 11
-2.9926
 21
52.2294
  0
LINE
  8
0
 10
-2.9926
 20
52.2294
 11
-2.57294
 21
51.7634
  0
LINE
  8
0
 10
-2.57294
 20
51.7634
 11
-2.25935
 21
51.2202
  0
LINE
  8
0
 10
-2.25935
 20
51.2202
 11
-2.06555
 21
50.6237
  0
LINE
  8
0
 10
-2.06555
 20
50.6237
 11
-2
 21
50
  0
LINE
  8
0
 10
-2
 20
50
 11
-2.06555
 21
49.3763
  0
LINE
  8
0
 10
-2.06555
 20
49.3763
 11
-2.25935
 21
48.7798
  0
LINE
  8
0
 10
-2.25935
 20
48.7798
 11
-2.57294
 21
48.2366
  0
LINE
  8
0
 10
-2.57294
 20
48.2366
 11
-2.9926
 21
47.7706
  0
LINE
  8
0
 10
-2.9926
 20
47.7706
 11
-3.49998
 21
47.4019
  0
LINE
  8
0
 10
-3.49998
 20
47.4019
 11
-4.07294
 21
47.1468
  0
LINE
  8
0
 10
-4.07294
 20
47.1468
 11
-4.6864
 21
47.0164
  0
LINE
  8
0
 10
-4.6864
 20
47.0164
 11
-5.31358
 21
47.0164
  0
LINE
  8
0
 10
164.686
 20
21.9764
 11
164.073
 21
22.1068
  0
LINE
  8
0
 10
164.073
 20
22.1068
 11
163.5
 21
22.3619
  0
LINE
  8
0
 10
163.5
 20
22.3619
 11
162.993
 21
22.7306
  0
LINE
  8
0
 10
162.993
 20
22.7306
 11
162.573
 21
23.1966
  0
LINE
  8
0
 10
162.573
 20
23.1966
 11
162.259
 21
23.7398
  0
LINE
  8
0
 10
162.259
 20
23.7398
 11
162.066
 21
24.3363
  0
LINE
  8
0
 10
162.066
 20
24.3363
 11
162
 21
24.96
  0
LINE
  8
0
 10
162
 20
24.96
 11
162.066
 21
25.5837
  0
LINE
  8
0
 10
162.066
 20
25.5837
 11
162.259
 21
26.1802
  0
LINE
  8
0
 10
162.259
 20
26.1802
 11
162.573
 21
26.7233
  0
LINE
  8
0
 10
162.573
 20
26.7233
 11
162.993
 21
27.1894
  0
LINE
  8
0
 10
162.993
 20
27.1894
 11
163.5
 21
27.5581
  0
LINE
  8
0
 10
163.5
 20
27.5581
 11
164.073
 21
27.8132
  0
LINE
  8
0
 10
164.073
 20
27.8132
 11
164.686
 21
27.9436
  0
LINE
  8
0
 10
164.686
 20
27.9436
 11
165.314
 21
27.9436
  0
LINE
  8
0
 10
165.314
 20
27.9436
 11
165.927
 21
27.8132
  0
LINE
  8
0
 10
165.927
 20
27.8132
 11
166.5
 21
27.5581
  0
LINE
  8
0
 10
166.5
 20
27.5581
 11
167.007
 21
27.1894
  0
LINE
  8
0
 10
167.007
 20
27.1894
 11
167.427
 21
26.7233
  0
LINE
  8
0
 10
167.427
 20
26.7233
 11
167.741
 21
26.1802
  0
LINE
  8
0
 10
167.741
 20
26.1802
 11
167.934
 21
25.5837
  0
LINE
  8
0
 10
167.934
 20
25.5837
 11
168
 21
24.96
  0
LINE
  8
0
 10
168
 20
24.96
 11
167.934
 21
24.3363
  0
LINE
  8
0
 10
167.934
 20
24.3363
 11
167.741
 21
23.7398
  0
LINE
  8
0
 10
167.741
 20
23.7398
 11
167.427
 21
23.1966
  0
LINE
  8
0
 10
167.427
 20
23.1966
 11
167.007
 21
22.7306
  0
LINE
  8
0
 10
167.007
 20
22.7306
 11
166.5
 21
22.3619
  0
LINE
  8
0
 10
166.5
 20
22.3619
 11
165.927
 21
22.1068
  0
LINE
  8
0
 10
165.927
 20
22.1068
 11
165.314
 21
21.9764
  0
LINE
  8
0
 10
165.314
 20
21.9764
 11
164.686
 21
21.9764
  0
LINE
  8
0
 10
-5.31358
 20
21.9764
 11
-5.92705
 21
22.1068
  0
LINE
  8
0
 10
-5.92705
 20
22.1068
 11
-6.5
 21
22.3619
  0
LINE
  8
0
 10
-6.5
 20
22.3619
 11
-7.00739
 21
22.7306
  0
LINE
  8
0
 10
-7.00739
 20
22.7306
 11
-7.42705
 21
23.1966
  0
LINE
  8
0
 10
-7.42705
 20
23.1966
 11
-7.74063
 21
23.7398
  0
LINE
  8
0
 10
-7.74063
 20
23.7398
 11
-7.93443
 21
24.3363
  0
LINE
  8
0
 10
-7.93443
 20
24.3363
 11
-8
 21
24.96
  0
LINE
  8
0
 10
-8
 20
24.96
 11
-7.93443
 21
25.5837
  0
LINE
  8
0
 10
-7.93443
 20
25.5837
 11
-7.74063
 21
26.1802
  0
LINE
  8
0
 10
-7.74063
 20
26.1802
 11
-7.42705
 21
26.7233
  0
LINE
  8
0
 10
-7.42705
 20
26.7233
 11
-7.00739
 21
27.1894
  0
LINE
  8
0
 10
-7.00739
 20
27.1894
 11
-6.49998
 21
27.5581
  0
LINE
  8
0
 10
-6.49998
 20
27.5581
 11
-5.92705
 21
27.8132
  0
LINE
  8
0
 10
-5.92705
 20
27.8132
 11
-5.31358
 21
27.9436
  0
LINE
  8
0
 10
-5.31358
 20
27.9436
 11
-4.6864
 21
27.9436
  0
LINE
  8
0
 10
-4.6864
 20
27.9436
 11
-4.07294
 21
27.8132
  0
LINE
  8
0
 10
-4.07294
 20
27.8132
 11
-3.49998
 21
27.5581
  0
LINE
  8
0
 10
-3.49998
 20
27.5581
 11
-2.9926
 21
27.1894
  0
LINE
  8
0
 10
-2.9926
 20
27.1894
 11
-2.57294
 21
26.7233
  0
LINE
  8
0
 10
-2.57294
 20
26.7233
 11
-2.25935
 21
26.1802
  0
LINE
  8
0
 10
-2.25935
 20
26.1802
 11
-2.06555
 21
25.5837
  0
LINE
  8
0
 10
-2.06555
 20
25.5837
 11
-2
 21
24.96
  0
LINE
  8
0
 10
-2
 20
24.96
 11
-2.06555
 21
24.3363
  0
LINE
  8
0
 10
-2.06555
 20
24.3363
 11
-2.25935
 21
23.7398
  0
LINE
  8
0
 10
-2.25935
 20
23.7398
 11
-2.57294
 21
23.1966
  0
LINE
  8
0
 10
-2.57294
 20
23.1966
 11
-2.9926
 21
22.7306
  0
LINE
  8
0
 10
-2.9926
 20
22.7306
 11
-3.49998
 21
22.3619
  0
LINE
  8
0
 10
-3.49998
 20
22.3619
 11
-4.07294
 21
22.1068
  0
LINE
  8
0
 10
-4.07294
 20
22.1068
 11
-4.6864
 21
21.9764
  0
LINE
  8
0
 10
-4.6864
 20
21.9764
 11
-5.31358
 21
21.9764
  0
ENDSEC
  0
SECTION
  2
OBJECTS
  0
DICTIONARY
  0
ENDSEC
  0
EOF
