<?xml version="1.0" encoding="UTF-8" standalone="no"?>
<!-- Created with Inkscape (http://www.inkscape.org/) -->

<svg
   xmlns:dc="http://purl.org/dc/elements/1.1/"
   xmlns:cc="http://creativecommons.org/ns#"
   xmlns:rdf="http://www.w3.org/1999/02/22-rdf-syntax-ns#"
   xmlns:svg="http://www.w3.org/2000/svg"
   xmlns="http://www.w3.org/2000/svg"
   xmlns:sodipodi="http://sodipodi.sourceforge.net/DTD/sodipodi-0.dtd"
   xmlns:inkscape="http://www.inkscape.org/namespaces/inkscape"
   width="210mm"
   height="297mm"
   viewBox="0 0 744.09448819 1052.3622047"
   id="svg2"
   version="1.1"
   inkscape:version="0.91 r13725"
   sodipodi:docname="reindeer.svg">
  <defs
     id="defs4" />
  <sodipodi:namedview
     id="base"
     pagecolor="#ffffff"
     bordercolor="#666666"
     borderopacity="1.0"
     inkscape:pageopacity="0.0"
     inkscape:pageshadow="2"
     inkscape:zoom="2.8"
     inkscape:cx="200.9284"
     inkscape:cy="799.31011"
     inkscape:document-units="px"
     inkscape:current-layer="layer1"
     showgrid="false"
     inkscape:window-width="1920"
     inkscape:window-height="1018"
     inkscape:window-x="-8"
     inkscape:window-y="-8"
     inkscape:window-maximized="1" />
  <metadata
     id="metadata7">
    <rdf:RDF>
      <cc:Work
         rdf:about="">
        <dc:format>image/svg+xml</dc:format>
        <dc:type
           rdf:resource="http://purl.org/dc/dcmitype/StillImage" />
        <dc:title></dc:title>
      </cc:Work>
    </rdf:RDF>
  </metadata>
  <g
     inkscape:label="Layer1"
     inkscape:groupmode="layer"
     id="layer1">
    <path
       style="fill:none;fill-rule:evenodd;stroke:#000000;stroke-width:0.83188176px;stroke-linecap:butt;stroke-linejoin:miter;stroke-opacity:1"
       d="m 117.41016,176.35156 0,13.41602 -2.56836,0 0,-13.41406 c -17.966511,0.775 -23.644112,6.33064 -23.427738,19.40234 0.189751,11.46327 6.690589,15.31279 8.570313,16.19141 l 0.886715,-17.6543 2.5625,0.12695 -0.91992,18.37696 c 2.50979,0.68807 7.27397,1.70898 13.63867,1.70898 6.26559,0 10.98744,-0.99025 13.5293,-1.67774 l -0.90625,-18.06054 2.5625,-0.12891 0.87109,17.36719 c 1.75269,-0.79465 8.49075,-4.59931 8.6836,-16.25 0.21659,-13.08479 -5.4732,-18.63813 -23.48242,-19.4043 z"
       id="rect3349"
       inkscape:connector-curvature="0"
       sodipodi:nodetypes="ccccsccccsccccsc" />
    <path
       style="fill:none;fill-rule:evenodd;stroke:#000000;stroke-width:0.83188176px;stroke-linecap:butt;stroke-linejoin:miter;stroke-opacity:1"
       d="m 250.2176,322.53393 13.41602,0 0,2.56836 -13.41406,0 c 0.775,17.96651 6.33064,23.64411 19.40234,23.42774 11.46327,-0.18975 15.31279,-6.69059 16.19141,-8.57032 l -17.6543,-0.88671 0.12695,-2.5625 18.37696,0.91992 c 0.68807,-2.50979 1.70898,-7.27397 1.70898,-13.63867 0,-6.26559 -0.99025,-10.98744 -1.67774,-13.5293 l -18.06054,0.90625 -0.12891,-2.5625 17.36719,-0.87109 c -0.79465,-1.75269 -4.59931,-8.49075 -16.25,-8.6836 -13.08479,-0.21659 -18.63813,5.4732 -19.4043,23.48242 z"
       id="rect3349-0"
       inkscape:connector-curvature="0"
       sodipodi:nodetypes="ccccsccccsccccsc" />
    <path
       style="fill:none;fill-rule:evenodd;stroke:#000000;stroke-width:1px;stroke-linecap:butt;stroke-linejoin:miter;stroke-opacity:1"
       d="m 168.3125,180.70703 c -0.6679,-0.0753 -1.08064,0.2048 -1.16992,0.94141 -0.71429,5.89285 9.28683,18.57058 22.67969,25.17773 6.30283,3.1094 11.964,10.00057 12.14257,24.46485 0.1095,8.86937 -4.19042,17.77654 -7.39453,21.54492 -2.02119,2.37715 -4.21233,3.54324 -2.24804,-7.97461 1.96429,-11.51786 -12.2666,-28.6968 -7.32227,-11.07031 1.80778,6.4447 -3.92885,22.85603 -10.35742,23.57031 -6.42857,0.71429 -9.92629,-29.43125 -12.67774,-24.46289 -5.08018,9.17344 0.71318,33.57058 12.32032,41.42773 l 0.18554,0.008 3.25977,-7.23046 3.09961,1.39648 -2.69336,5.97461 0.79101,0.0312 c 31.17205,-6.60713 33.92857,-42.85881 35,-52.14453 1.07143,-9.28571 0.5374,-16.60602 -1.60546,-17.32031 -2.14286,-0.71428 -1.60826,0.17913 -2.67969,4.46484 -1.07143,4.28571 -2.67801,3.03571 -3.03516,0 -0.35714,-3.03571 -0.35658,-27.3231 -3.03515,-28.39453 -2.67857,-1.07143 -2.67914,2.67969 -3.21485,6.42969 -0.53572,3.75 2.85687,11.24915 -4.10742,11.42773 -6.09375,0.15625 -23.26221,-17.73438 -27.9375,-18.26172 z"
       id="path4214"
       inkscape:connector-curvature="0"
       sodipodi:nodetypes="sssssssssccccccssssssss" />
    <path
       style="fill:none;fill-rule:evenodd;stroke:#000000;stroke-width:1px;stroke-linecap:butt;stroke-linejoin:miter;stroke-opacity:1"
       d="m 247.41311,205.07686 c 6.30283,3.1094 14.05642,10.97451 14.23499,25.43879 0.1095,8.86937 -3.11899,13.58011 -6.3231,17.34849 -2.02119,2.37715 -6.17662,5.0611 -4.21233,-6.45675 1.96429,-11.51786 -13.15946,-26.64323 -8.21513,-9.01674 1.80778,6.4447 -3.03599,20.80246 -9.46456,21.51674 -6.42857,0.71429 -9.12272,-26.03839 -11.87417,-21.07003 -5.08018,9.17344 -0.0904,30.17772 11.51675,38.03487 l 0.18554,0.008 3.25977,-7.23046 3.09961,1.39648 -2.69336,5.97461 0.79101,0.0312 c 34.29705,-8.12499 33.93446,-41.28302 34.19643,-50.62667 0.26786,-9.55357 -2.13143,-19.82851 -4.27429,-20.5428 -2.14286,-0.71428 -0.97691,2.01003 -1.35386,4.46484 -0.67049,4.36643 -3.62503,2.59377 -3.98218,-0.44194 -0.35714,-3.03571 0.59044,-22.52488 -4.48725,-26.62677 -2.24414,-1.81288 -2.616,3.62671 -3.15171,7.37671 -0.53572,3.75 3.28954,12.27074 -3.66548,11.86967 -11.52332,-0.6645 -27.55536,-19.12334 -28.71884,-15.03102 -3.56259,9.52189 23.31271,22.64623 25.13216,23.58278 z"
       id="path4214-3"
       inkscape:connector-curvature="0"
       sodipodi:nodetypes="cssssssccccccssssssscc" />
    <path
       style="fill:none;fill-rule:evenodd;stroke:#000000;stroke-width:1px;stroke-linecap:butt;stroke-linejoin:miter;stroke-opacity:1"
       d="m 294.68555,167.29688 5.89257,18.35546 -3.23632,1.03907 -5.97461,-18.60938 c -0.69009,0.21848 -1.41402,0.46749 -2.21094,0.77539 -5.55584,2.14658 -5.93398,12.75286 -4.92383,21.21289 1.01016,8.46002 10.60607,20.70773 15.4043,25.88477 4.79822,5.17703 4.41836,6.94602 3.4082,14.64844 -1.01015,7.70241 -2.77679,18.56086 -10.4792,21.5913 -6.53378,2.57066 -7.44949,6.81885 -3.66142,6.81885 0,0 15.90889,0.37822 18.56054,0.25195 2.65165,-0.12626 1.01074,-2.39855 -0.25195,-5.30273 -1.26269,-2.90419 -0.7575,-4.6726 2.9043,-14.90039 3.6618,-10.2278 6.81837,-11.74211 9.34375,-16.41406 2.52538,-4.67196 -3.40976,-5.78023 -3.40977,-10.98643 0,-4.79822 2.65175,-7.44946 1.89414,-18.6874 -1.31919,-19.56798 -12.5004,-24.1168 -16.54101,-25.12695 -2.42805,-0.60702 -4.36224,-0.88349 -6.71875,-0.55078 z"
       id="path4234"
       inkscape:connector-curvature="0"
       sodipodi:nodetypes="ccccssssscsssssssc" />
    <path
       style="fill:none;fill-rule:evenodd;stroke:#000000;stroke-width:1px;stroke-linecap:butt;stroke-linejoin:miter;stroke-opacity:1"
       d="m 294.74258,262.59305 5.89257,18.35546 -3.23632,1.03907 -5.97461,-18.60938 c -0.69009,0.21848 -1.41402,0.46749 -2.21094,0.77539 -5.55584,2.14658 -5.93398,12.75286 -4.92383,21.21289 1.01016,8.46002 15.1929,19.81487 19.99113,24.99191 4.79822,5.17703 4.92344,10.73409 5.17597,18.68905 0.24649,7.76446 -2.52425,14.52025 -10.22666,17.55069 -6.53378,2.57066 -7.44949,6.81885 -3.66142,6.81885 0,0 15.90889,0.37822 18.56054,0.25195 2.65165,-0.12626 2.27343,-2.39855 1.01074,-5.30273 -1.26269,-2.90419 -2.02019,-4.6726 1.64161,-14.90039 3.6618,-10.2278 4.67551,-11.2064 7.20089,-15.87835 2.52538,-4.67196 -1.25664,-7.59975 -3.94548,-12.05785 -2.67857,-4.44108 -1.4554,-6.73518 -2.21301,-17.97312 -1.31919,-19.56798 -12.14325,-23.58108 -16.18386,-24.59123 -2.42805,-0.60702 -4.54081,-0.70492 -6.89732,-0.37221 z"
       id="path4234-4"
       inkscape:connector-curvature="0"
       sodipodi:nodetypes="ccccssssscsssssssc" />
    <path
       style="fill:none;fill-rule:evenodd;stroke:#000000;stroke-width:1px;stroke-linecap:butt;stroke-linejoin:miter;stroke-opacity:1"
       d="m 346.15625,172.98633 -4.42773,17.97461 -3.30079,-0.81446 4.41407,-17.92382 c -0.6937,-0.12262 -1.40869,-0.23556 -2.16797,-0.33399 -6.81853,-0.88388 -13.88858,4.92337 -16.03516,13.13086 -2.14657,8.20749 0.12529,15.53216 1.26172,23.99219 1.13642,8.46002 2.77773,25.1264 1.76758,32.95508 -1.01015,7.82869 -6.43917,12.62793 -7.82813,13.89062 -1.38896,1.26269 -2.39901,3.15694 0.37891,3.2832 0,0 10.98477,0.125 12.5,0.125 1.51522,0 2.39854,-0.75645 2.77734,-3.02929 0.37881,-2.27284 -0.12577,-7.82934 1.89453,-22.47656 2.02031,-14.64721 5.68333,-18.30863 12.12305,-28.41016 6.43972,-10.10152 5.42861,-22.22443 3.78711,-26.51758 -1.14256,-2.98825 -3.51236,-4.75092 -7.14453,-5.8457 z"
       id="path4254"
       inkscape:connector-curvature="0"
       sodipodi:nodetypes="ccccssssscsssssc" />
    <path
       style="fill:none;fill-rule:evenodd;stroke:#000000;stroke-width:1px;stroke-linecap:butt;stroke-linejoin:miter;stroke-opacity:1"
       d="m 346.67168,268.11178 -4.42773,17.97461 -3.30079,-0.81446 4.41407,-17.92382 c -0.6937,-0.12262 -1.40869,-0.23556 -2.16797,-0.33399 -6.81853,-0.88388 -13.88858,4.92337 -16.03516,13.13086 -2.14657,8.20749 1.97258,20.7807 4.92353,28.79041 2.65164,7.19733 4.9243,18.43414 5.17684,27.65178 0.21618,7.89063 -5.05021,12.88047 -6.43917,14.14316 -1.38896,1.26269 -2.39901,3.15694 0.37891,3.2832 0,0 10.98477,0.125 12.5,0.125 1.51522,0 2.39854,-0.75645 2.77734,-3.02929 0.37881,-2.27284 -1.67719,-9.60603 -0.88339,-24.3706 0.63135,-11.74302 1.39018,-16.03578 6.69348,-26.76866 5.30683,-10.74003 5.17607,-21.71935 3.53457,-26.0125 -1.14256,-2.98825 -3.51236,-4.75092 -7.14453,-5.8457 z"
       id="path4254-1"
       inkscape:connector-curvature="0"
       sodipodi:nodetypes="ccccssssscsssssc" />
    <path
       style="fill:none;stroke:#000000"
       d="m 97.078125,259.55273 c -3.787578,0.11049 -6.922569,2.44437 -9.574219,5.64844 -3.030458,3.6618 -2.65156,5.17649 -2.146484,12.87891 0.505076,7.70241 2.739612,7.20673 0.757812,11.99609 -1.036598,2.50511 -1.460625,5.11244 -1.638672,6.56641 l 9.341797,0 0,3.39844 -9.191406,0 c 0.24194,1.50862 0.675204,3.53701 1.488281,5.50195 1.9818,4.78936 -0.252736,4.29368 -0.757812,11.99609 -0.505076,7.70242 -0.883974,9.21711 2.146484,12.87891 2.65165,3.20407 5.786641,5.53795 9.574219,5.64844 0.541083,0.0158 1.095851,-0.0129 1.664063,-0.0918 5.765382,-0.80075 7.197652,-3.91428 6.187502,-9.72266 -0.90699,-5.21511 -3.43639,-10.73296 -3.85352,-15.27929 l -6.878904,0 0,-3.40039 7.062504,0 c 0.78069,-3.2857 3.16406,-4.74158 3.16406,-9.79297 0,-5.05138 -2.38337,-6.44672 -3.16406,-9.73242 l -7.062504,0 0,-3.4004 6.878904,0 c 0.41713,-4.54633 2.94653,-10.06418 3.85352,-15.27929 1.01015,-5.80838 -0.42212,-8.92191 -6.187502,-9.72266 -0.568212,-0.0789 -1.12298,-0.1076 -1.664063,-0.0918 z"
       id="rect4274"
       inkscape:connector-curvature="0"
       sodipodi:nodetypes="csssccccsssscsccccsccccscc" />
    <path
       style="fill:none;stroke:#000000"
       d="m 144.24414,230.98242 -3.77734,10.6543 -3.20508,-1.13672 4.10937,-11.58594 c -3.62505,-2.16745 -7.86784,-3.35979 -11.72851,-4.05273 -6.96429,-1.25 -21.07031,5.5e-4 -27.32031,-0.53516 -6.250005,-0.53572 -15.358542,-1.96317 -16.787114,0.17969 -1.428571,2.14286 -0.713169,5.71289 0.179688,10.71289 0.923243,5.17016 8.191717,6.7794 14.642576,8.92969 5.35714,1.78571 6.47703,3.94325 8.57031,6.60742 1.96429,2.5 1.42886,1.6063 5.35743,2.67773 3.92858,1.07143 5.17885,4.46373 5.35742,10.53516 0.17857,6.07142 -5.17913,11.96568 -8.21485,18.03711 -3.03571,6.07143 -2.47815,7.95465 -2.19335,11.87695 0.3265,4.49678 1.99385,4.01424 2.88671,5.97852 0.89282,1.96429 -0.91601,2.27827 0.0625,4.89648 0.93432,2.5 2.81641,2.0678 4.06641,3.85352 1.25,1.78571 -0.34367,3.43251 0.89258,5.35742 1.7924,2.79086 2.49944,2.8e-4 4.28515,4.10742 1.70404,3.9193 8.4609,14.58005 17.44922,19.03125 l 3.73633,-17.28711 3.32422,0.71875 -3.875,17.91797 c 9.1614,3.3931 19.49913,4.27437 34.36523,4.44141 12.79901,0.14381 31.26135,-3.41904 42.53907,-6.49024 l -5.63086,-16.43164 3.21679,-1.10351 5.68555,16.5957 c 1.32097,-0.40082 2.51014,-0.78757 3.47656,-1.14258 8.75,-3.21429 9.28488,-13.21457 8.92774,-17.85742 -0.35715,-4.64286 -0.8365,-7.54564 1.96484,-8.92773 2.86984,-1.41588 5.17884,-3.92886 5.35742,-6.60743 0.17857,-2.67857 1.74219,-1.39816 4.24219,-3.54101 2.5,-2.14286 0.40039,-4.13839 -0.84961,-6.28125 -1.25,-2.14285 0.97404,-7.31377 -2.22656,-7.18555 -2.60394,0.10431 -2.26787,5.28806 -7.1543,6.24219 -4.15484,0.81128 -8.73079,3.97928 -10.48047,5.74023 -1.74968,1.76094 -2.63923,5.73885 -4.60351,5.20313 -1.96429,-0.53571 -6.96346,-3.03516 -12.67774,-3.03516 -5.71429,0 -13.75,3.74945 -23.75,4.28516 -10,0.53572 -18.75139,-1.42857 -26.78711,-3.75 -8.03571,-2.32143 -11.07143,-6.24917 -11.25,-12.67774 -0.17857,-6.42857 4.64286,-14.10714 6.25,-23.75 1.60714,-9.64286 -0.71372,-18.57114 -4.28515,-25.89257 -1.03705,-2.12595 -2.47273,-3.86553 -4.14844,-5.3086 z"
       id="rect4297"
       inkscape:connector-curvature="0"
       sodipodi:nodetypes="ccccsssssssssscssssccccsccccssssssssssssssssc" />
  </g>
</svg>
