  0
SECTION
  2
BLOCKS
  0
ENDSEC
  0
SECTION
  2
ENTITIES
  0
LINE
  8
0
 10
207.213
 20
0.0805969
 11
208.836
 21
1.16446
  0
LINE
  8
0
 10
208.836
 20
1.16446
 11
209.919
 21
2.78658
  0
LINE
  8
0
 10
209.919
 20
2.78658
 11
210.3
 21
4.7
  0
LINE
  8
0
 10
210.3
 20
4.7
 11
210.3
 21
100.3
  0
LINE
  8
0
 10
210.3
 20
100.3
 11
209.919
 21
102.213
  0
LINE
  8
0
 10
209.919
 20
102.213
 11
208.836
 21
103.836
  0
LINE
  8
0
 10
208.836
 20
103.836
 11
207.213
 21
104.919
  0
LINE
  8
0
 10
207.213
 20
104.919
 11
205.3
 21
105.3
  0
LINE
  8
0
 10
205.3
 20
105.3
 11
4.7
 21
105.3
  0
LINE
  8
0
 10
4.7
 20
105.3
 11
2.78658
 21
104.919
  0
LINE
  8
0
 10
2.78658
 20
104.919
 11
1.16446
 21
103.836
  0
LINE
  8
0
 10
1.16446
 20
103.836
 11
0.0805969
 21
102.213
  0
LINE
  8
0
 10
0.0805969
 20
102.213
 11
-0.299988
 21
100.3
  0
LINE
  8
0
 10
-0.299988
 20
100.3
 11
-0.299988
 21
4.7
  0
LINE
  8
0
 10
-0.299988
 20
4.7
 11
0.0805969
 21
2.78658
  0
LINE
  8
0
 10
0.0805969
 20
2.78658
 11
1.16446
 21
1.16446
  0
LINE
  8
0
 10
1.16446
 20
1.16446
 11
2.78658
 21
0.0805969
  0
LINE
  8
0
 10
2.78658
 20
0.0805969
 11
4.7
 21
-0.299988
  0
LINE
  8
0
 10
4.7
 20
-0.299988
 11
205.3
 21
-0.299988
  0
LINE
  8
0
 10
205.3
 20
-0.299988
 11
207.213
 21
0.0805969
  0
LINE
  8
0
 10
191
 20
47
 11
191
 21
49
  0
LINE
  8
0
 10
191
 20
49
 11
188
 21
49
  0
LINE
  8
0
 10
188
 20
49
 11
188
 21
53
  0
LINE
  8
0
 10
188
 20
53
 11
191
 21
53
  0
LINE
  8
0
 10
191
 20
53
 11
191
 21
56
  0
LINE
  8
0
 10
191
 20
56
 11
186
 21
56
  0
LINE
  8
0
 10
186
 20
56
 11
186
 21
57
  0
LINE
  8
0
 10
186
 20
57
 11
188.1
 21
64
  0
LINE
  8
0
 10
188.1
 20
64
 11
185.5
 21
64
  0
LINE
  8
0
 10
185.5
 20
64
 11
185.5
 21
67
  0
LINE
  8
0
 10
185.5
 20
67
 11
188.92
 21
67
  0
LINE
  8
0
 10
188.92
 20
67
 11
183.307
 21
93
  0
LINE
  8
0
 10
183.307
 20
93
 11
182.75
 21
93
  0
LINE
  8
0
 10
182.75
 20
93
 11
182.25
 21
93.134
  0
LINE
  8
0
 10
182.25
 20
93.134
 11
181.884
 21
93.5
  0
LINE
  8
0
 10
181.884
 20
93.5
 11
181.75
 21
94
  0
LINE
  8
0
 10
181.75
 20
94
 11
181.75
 21
96
  0
LINE
  8
0
 10
181.75
 20
96
 11
181.884
 21
96.5
  0
LINE
  8
0
 10
181.884
 20
96.5
 11
182.25
 21
96.866
  0
LINE
  8
0
 10
182.25
 20
96.866
 11
182.75
 21
97
  0
LINE
  8
0
 10
182.75
 20
97
 11
184.45
 21
97
  0
LINE
  8
0
 10
184.45
 20
97
 11
184.45
 21
100.3
  0
LINE
  8
0
 10
184.45
 20
100.3
 11
201.55
 21
100.3
  0
LINE
  8
0
 10
201.55
 20
100.3
 11
201.55
 21
97
  0
LINE
  8
0
 10
201.55
 20
97
 11
203.25
 21
97
  0
LINE
  8
0
 10
203.25
 20
97
 11
203.75
 21
96.866
  0
LINE
  8
0
 10
203.75
 20
96.866
 11
204.116
 21
96.5
  0
LINE
  8
0
 10
204.116
 20
96.5
 11
204.25
 21
96
  0
LINE
  8
0
 10
204.25
 20
96
 11
204.25
 21
94
  0
LINE
  8
0
 10
204.25
 20
94
 11
204.116
 21
93.5
  0
LINE
  8
0
 10
204.116
 20
93.5
 11
203.75
 21
93.134
  0
LINE
  8
0
 10
203.75
 20
93.134
 11
203.25
 21
93
  0
LINE
  8
0
 10
203.25
 20
93
 11
202.693
 21
93
  0
LINE
  8
0
 10
202.693
 20
93
 11
197.08
 21
67
  0
LINE
  8
0
 10
197.08
 20
67
 11
200.5
 21
67
  0
LINE
  8
0
 10
200.5
 20
67
 11
200.5
 21
64
  0
LINE
  8
0
 10
200.5
 20
64
 11
197.9
 21
64
  0
LINE
  8
0
 10
197.9
 20
64
 11
200
 21
57
  0
LINE
  8
0
 10
200
 20
57
 11
200
 21
56
  0
LINE
  8
0
 10
200
 20
56
 11
195
 21
56
  0
LINE
  8
0
 10
195
 20
56
 11
195
 21
53
  0
LINE
  8
0
 10
195
 20
53
 11
198
 21
53
  0
LINE
  8
0
 10
198
 20
53
 11
198
 21
49
  0
LINE
  8
0
 10
198
 20
49
 11
195
 21
49
  0
LINE
  8
0
 10
195
 20
49
 11
195
 21
47
  0
LINE
  8
0
 10
195
 20
47
 11
191
 21
47
  0
LINE
  8
0
 10
159.45
 20
48.7
 11
159.45
 21
52
  0
LINE
  8
0
 10
159.45
 20
52
 11
157.75
 21
52
  0
LINE
  8
0
 10
157.75
 20
52
 11
157.25
 21
52.134
  0
LINE
  8
0
 10
157.25
 20
52.134
 11
156.884
 21
52.5
  0
LINE
  8
0
 10
156.884
 20
52.5
 11
156.75
 21
53
  0
LINE
  8
0
 10
156.75
 20
53
 11
156.75
 21
55
  0
LINE
  8
0
 10
156.75
 20
55
 11
156.884
 21
55.5
  0
LINE
  8
0
 10
156.884
 20
55.5
 11
157.25
 21
55.866
  0
LINE
  8
0
 10
157.25
 20
55.866
 11
157.75
 21
56
  0
LINE
  8
0
 10
157.75
 20
56
 11
158.25
 21
56
  0
LINE
  8
0
 10
158.25
 20
56
 11
162.938
 21
81
  0
LINE
  8
0
 10
162.938
 20
81
 11
160.5
 21
81
  0
LINE
  8
0
 10
160.5
 20
81
 11
160.5
 21
84
  0
LINE
  8
0
 10
160.5
 20
84
 11
163.1
 21
84
  0
LINE
  8
0
 10
163.1
 20
84
 11
161.197
 21
90.3437
  0
LINE
  8
0
 10
161.197
 20
90.3437
 11
161.121
 21
90.3159
  0
LINE
  8
0
 10
161.121
 20
90.3159
 11
161.144
 21
90.5197
  0
LINE
  8
0
 10
161.144
 20
90.5197
 11
161
 21
91
  0
LINE
  8
0
 10
161
 20
91
 11
161
 21
92
  0
LINE
  8
0
 10
161
 20
92
 11
161.314
 21
92
  0
LINE
  8
0
 10
161.314
 20
92
 11
161.632
 21
94.7588
  0
LINE
  8
0
 10
161.632
 20
94.7588
 11
163.831
 21
92.677
  0
LINE
  8
0
 10
163.831
 20
92.677
 11
164.458
 21
96.9088
  0
LINE
  8
0
 10
164.458
 20
96.9088
 11
166.524
 21
93.0944
  0
LINE
  8
0
 10
166.524
 20
93.0944
 11
168
 21
99
  0
LINE
  8
0
 10
168
 20
99
 11
169.476
 21
93.0944
  0
LINE
  8
0
 10
169.476
 20
93.0944
 11
171.542
 21
96.9088
  0
LINE
  8
0
 10
171.542
 20
96.9088
 11
172.169
 21
92.677
  0
LINE
  8
0
 10
172.169
 20
92.677
 11
174.368
 21
94.7588
  0
LINE
  8
0
 10
174.368
 20
94.7588
 11
174.686
 21
92
  0
LINE
  8
0
 10
174.686
 20
92
 11
175
 21
92
  0
LINE
  8
0
 10
175
 20
92
 11
175
 21
91
  0
LINE
  8
0
 10
175
 20
91
 11
174.856
 21
90.5197
  0
LINE
  8
0
 10
174.856
 20
90.5197
 11
174.879
 21
90.3159
  0
LINE
  8
0
 10
174.879
 20
90.3159
 11
174.803
 21
90.3437
  0
LINE
  8
0
 10
174.803
 20
90.3437
 11
172.9
 21
84
  0
LINE
  8
0
 10
172.9
 20
84
 11
175.5
 21
84
  0
LINE
  8
0
 10
175.5
 20
84
 11
175.5
 21
81
  0
LINE
  8
0
 10
175.5
 20
81
 11
173.062
 21
81
  0
LINE
  8
0
 10
173.062
 20
81
 11
177.75
 21
56
  0
LINE
  8
0
 10
177.75
 20
56
 11
178.25
 21
56
  0
LINE
  8
0
 10
178.25
 20
56
 11
178.75
 21
55.866
  0
LINE
  8
0
 10
178.75
 20
55.866
 11
179.116
 21
55.5
  0
LINE
  8
0
 10
179.116
 20
55.5
 11
179.25
 21
55
  0
LINE
  8
0
 10
179.25
 20
55
 11
179.25
 21
53
  0
LINE
  8
0
 10
179.25
 20
53
 11
179.116
 21
52.5
  0
LINE
  8
0
 10
179.116
 20
52.5
 11
178.75
 21
52.134
  0
LINE
  8
0
 10
178.75
 20
52.134
 11
178.25
 21
52
  0
LINE
  8
0
 10
178.25
 20
52
 11
176.55
 21
52
  0
LINE
  8
0
 10
176.55
 20
52
 11
176.55
 21
48.7
  0
LINE
  8
0
 10
176.55
 20
48.7
 11
159.45
 21
48.7
  0
LINE
  8
0
 10
141.753
 20
49.9363
 11
141
 21
51.5
  0
LINE
  8
0
 10
141
 20
51.5
 11
141.473
 21
52.4818
  0
LINE
  8
0
 10
141.473
 20
52.4818
 11
141.455
 21
52.4894
  0
LINE
  8
0
 10
141.455
 20
52.4894
 11
140.5
 21
53.3398
  0
LINE
  8
0
 10
140.5
 20
53.3398
 11
139.654
 21
54.5686
  0
LINE
  8
0
 10
139.654
 20
54.5686
 11
139.308
 21
55.3376
  0
LINE
  8
0
 10
139.308
 20
55.3376
 11
142.866
 21
61.5
  0
LINE
  8
0
 10
142.866
 20
61.5
 11
142
 21
62
  0
LINE
  8
0
 10
142
 20
62
 11
138.839
 21
56.5246
  0
LINE
  8
0
 10
138.839
 20
56.5246
 11
138.432
 21
57.9326
  0
LINE
  8
0
 10
138.432
 20
57.9326
 11
138.109
 21
59.9209
  0
LINE
  8
0
 10
138.109
 20
59.9209
 11
138
 21
62
  0
LINE
  8
0
 10
138
 20
62
 11
138.109
 21
64.0791
  0
LINE
  8
0
 10
138.109
 20
64.0791
 11
138.432
 21
66.0674
  0
LINE
  8
0
 10
138.432
 20
66.0674
 11
138.702
 21
67
  0
LINE
  8
0
 10
138.702
 20
67
 11
135.5
 21
67
  0
LINE
  8
0
 10
135.5
 20
67
 11
135.5
 21
70
  0
LINE
  8
0
 10
135.5
 20
70
 11
139.94
 21
70
  0
LINE
  8
0
 10
139.94
 20
70
 11
133.582
 21
88
  0
LINE
  8
0
 10
133.582
 20
88
 11
132.75
 21
88
  0
LINE
  8
0
 10
132.75
 20
88
 11
132.25
 21
88.134
  0
LINE
  8
0
 10
132.25
 20
88.134
 11
131.884
 21
88.5
  0
LINE
  8
0
 10
131.884
 20
88.5
 11
131.75
 21
89
  0
LINE
  8
0
 10
131.75
 20
89
 11
131.75
 21
91
  0
LINE
  8
0
 10
131.75
 20
91
 11
131.884
 21
91.5
  0
LINE
  8
0
 10
131.884
 20
91.5
 11
132.25
 21
91.866
  0
LINE
  8
0
 10
132.25
 20
91.866
 11
132.75
 21
92
  0
LINE
  8
0
 10
132.75
 20
92
 11
134.45
 21
92
  0
LINE
  8
0
 10
134.45
 20
92
 11
134.45
 21
95.3
  0
LINE
  8
0
 10
134.45
 20
95.3
 11
151.55
 21
95.3
  0
LINE
  8
0
 10
151.55
 20
95.3
 11
151.55
 21
92
  0
LINE
  8
0
 10
151.55
 20
92
 11
153.25
 21
92
  0
LINE
  8
0
 10
153.25
 20
92
 11
153.75
 21
91.866
  0
LINE
  8
0
 10
153.75
 20
91.866
 11
154.116
 21
91.5
  0
LINE
  8
0
 10
154.116
 20
91.5
 11
154.25
 21
91
  0
LINE
  8
0
 10
154.25
 20
91
 11
154.25
 21
89
  0
LINE
  8
0
 10
154.25
 20
89
 11
154.116
 21
88.5
  0
LINE
  8
0
 10
154.116
 20
88.5
 11
153.75
 21
88.134
  0
LINE
  8
0
 10
153.75
 20
88.134
 11
153.25
 21
88
  0
LINE
  8
0
 10
153.25
 20
88
 11
152.418
 21
88
  0
LINE
  8
0
 10
152.418
 20
88
 11
146.06
 21
70
  0
LINE
  8
0
 10
146.06
 20
70
 11
150.5
 21
70
  0
LINE
  8
0
 10
150.5
 20
70
 11
150.5
 21
67
  0
LINE
  8
0
 10
150.5
 20
67
 11
147.298
 21
67
  0
LINE
  8
0
 10
147.298
 20
67
 11
147.568
 21
66.0674
  0
LINE
  8
0
 10
147.568
 20
66.0674
 11
147.891
 21
64.0791
  0
LINE
  8
0
 10
147.891
 20
64.0791
 11
148
 21
62
  0
LINE
  8
0
 10
148
 20
62
 11
147.891
 21
59.9209
  0
LINE
  8
0
 10
147.891
 20
59.9209
 11
147.568
 21
57.9326
  0
LINE
  8
0
 10
147.568
 20
57.9326
 11
147.045
 21
56.1222
  0
LINE
  8
0
 10
147.045
 20
56.1222
 11
146.346
 21
54.5686
  0
LINE
  8
0
 10
146.346
 20
54.5686
 11
145.5
 21
53.3398
  0
LINE
  8
0
 10
145.5
 20
53.3398
 11
144.594
 21
52.5333
  0
LINE
  8
0
 10
144.594
 20
52.5333
 11
144.802
 21
52.3678
  0
LINE
  8
0
 10
144.802
 20
52.3678
 11
144.802
 21
50.6322
  0
LINE
  8
0
 10
144.802
 20
50.6322
 11
143.445
 21
49.5502
  0
LINE
  8
0
 10
143.445
 20
49.5502
 11
141.753
 21
49.9363
  0
LINE
  8
0
 10
109.45
 20
48.7
 11
109.45
 21
52
  0
LINE
  8
0
 10
109.45
 20
52
 11
107.75
 21
52
  0
LINE
  8
0
 10
107.75
 20
52
 11
107.25
 21
52.134
  0
LINE
  8
0
 10
107.25
 20
52.134
 11
106.884
 21
52.5
  0
LINE
  8
0
 10
106.884
 20
52.5
 11
106.75
 21
53
  0
LINE
  8
0
 10
106.75
 20
53
 11
106.75
 21
55
  0
LINE
  8
0
 10
106.75
 20
55
 11
106.884
 21
55.5
  0
LINE
  8
0
 10
106.884
 20
55.5
 11
107.25
 21
55.866
  0
LINE
  8
0
 10
107.25
 20
55.866
 11
107.75
 21
56
  0
LINE
  8
0
 10
107.75
 20
56
 11
108.582
 21
56
  0
LINE
  8
0
 10
108.582
 20
56
 11
114.94
 21
74
  0
LINE
  8
0
 10
114.94
 20
74
 11
110.5
 21
74
  0
LINE
  8
0
 10
110.5
 20
74
 11
110.5
 21
77
  0
LINE
  8
0
 10
110.5
 20
77
 11
113.702
 21
77
  0
LINE
  8
0
 10
113.702
 20
77
 11
113.432
 21
77.9326
  0
LINE
  8
0
 10
113.432
 20
77.9326
 11
113.109
 21
79.9209
  0
LINE
  8
0
 10
113.109
 20
79.9209
 11
113
 21
82
  0
LINE
  8
0
 10
113
 20
82
 11
113.109
 21
84.0791
  0
LINE
  8
0
 10
113.109
 20
84.0791
 11
113.432
 21
86.0674
  0
LINE
  8
0
 10
113.432
 20
86.0674
 11
113.955
 21
87.8778
  0
LINE
  8
0
 10
113.955
 20
87.8778
 11
114.654
 21
89.4314
  0
LINE
  8
0
 10
114.654
 20
89.4314
 11
115.5
 21
90.6602
  0
LINE
  8
0
 10
115.5
 20
90.6602
 11
116.406
 21
91.4667
  0
LINE
  8
0
 10
116.406
 20
91.4667
 11
116.198
 21
91.6322
  0
LINE
  8
0
 10
116.198
 20
91.6322
 11
116.198
 21
93.3678
  0
LINE
  8
0
 10
116.198
 20
93.3678
 11
117.555
 21
94.4498
  0
LINE
  8
0
 10
117.555
 20
94.4498
 11
119.247
 21
94.0637
  0
LINE
  8
0
 10
119.247
 20
94.0637
 11
120
 21
92.5
  0
LINE
  8
0
 10
120
 20
92.5
 11
119.527
 21
91.5182
  0
LINE
  8
0
 10
119.527
 20
91.5182
 11
119.545
 21
91.5106
  0
LINE
  8
0
 10
119.545
 20
91.5106
 11
120.5
 21
90.6602
  0
LINE
  8
0
 10
120.5
 20
90.6602
 11
121.346
 21
89.4314
  0
LINE
  8
0
 10
121.346
 20
89.4314
 11
121.692
 21
88.6624
  0
LINE
  8
0
 10
121.692
 20
88.6624
 11
118.134
 21
82.5
  0
LINE
  8
0
 10
118.134
 20
82.5
 11
119
 21
82
  0
LINE
  8
0
 10
119
 20
82
 11
122.161
 21
87.4754
  0
LINE
  8
0
 10
122.161
 20
87.4754
 11
122.568
 21
86.0674
  0
LINE
  8
0
 10
122.568
 20
86.0674
 11
122.891
 21
84.0791
  0
LINE
  8
0
 10
122.891
 20
84.0791
 11
123
 21
82
  0
LINE
  8
0
 10
123
 20
82
 11
122.891
 21
79.9209
  0
LINE
  8
0
 10
122.891
 20
79.9209
 11
122.568
 21
77.9326
  0
LINE
  8
0
 10
122.568
 20
77.9326
 11
122.298
 21
77
  0
LINE
  8
0
 10
122.298
 20
77
 11
125.5
 21
77
  0
LINE
  8
0
 10
125.5
 20
77
 11
125.5
 21
74
  0
LINE
  8
0
 10
125.5
 20
74
 11
121.06
 21
74
  0
LINE
  8
0
 10
121.06
 20
74
 11
127.418
 21
56
  0
LINE
  8
0
 10
127.418
 20
56
 11
128.25
 21
56
  0
LINE
  8
0
 10
128.25
 20
56
 11
128.75
 21
55.866
  0
LINE
  8
0
 10
128.75
 20
55.866
 11
129.116
 21
55.5
  0
LINE
  8
0
 10
129.116
 20
55.5
 11
129.25
 21
55
  0
LINE
  8
0
 10
129.25
 20
55
 11
129.25
 21
53
  0
LINE
  8
0
 10
129.25
 20
53
 11
129.116
 21
52.5
  0
LINE
  8
0
 10
129.116
 20
52.5
 11
128.75
 21
52.134
  0
LINE
  8
0
 10
128.75
 20
52.134
 11
128.25
 21
52
  0
LINE
  8
0
 10
128.25
 20
52
 11
126.55
 21
52
  0
LINE
  8
0
 10
126.55
 20
52
 11
126.55
 21
48.7
  0
LINE
  8
0
 10
126.55
 20
48.7
 11
109.45
 21
48.7
  0
LINE
  8
0
 10
93.2985
 20
50.932
 11
81.8185
 21
57.0459
  0
LINE
  8
0
 10
81.8185
 20
57.0459
 11
83.8706
 21
62.6841
  0
LINE
  8
0
 10
83.8706
 20
62.6841
 11
91.9344
 21
60.6568
  0
LINE
  8
0
 10
91.9344
 20
60.6568
 11
84.8869
 21
69.695
  0
LINE
  8
0
 10
84.8869
 20
69.695
 11
83.7914
 21
71.2822
  0
LINE
  8
0
 10
83.7914
 20
71.2822
 11
83.1075
 21
73.0855
  0
LINE
  8
0
 10
83.1075
 20
73.0855
 11
82.875
 21
75
  0
LINE
  8
0
 10
82.875
 20
75
 11
83.1075
 21
76.9145
  0
LINE
  8
0
 10
83.1075
 20
76.9145
 11
83.7914
 21
78.7178
  0
LINE
  8
0
 10
83.7914
 20
78.7178
 11
84.8869
 21
80.305
  0
LINE
  8
0
 10
84.8869
 20
80.305
 11
85.875
 21
81.1804
  0
LINE
  8
0
 10
85.875
 20
81.1804
 11
85.875
 21
83
  0
LINE
  8
0
 10
85.875
 20
83
 11
82.75
 21
83
  0
LINE
  8
0
 10
82.75
 20
83
 11
82.25
 21
83.134
  0
LINE
  8
0
 10
82.25
 20
83.134
 11
81.884
 21
83.5
  0
LINE
  8
0
 10
81.884
 20
83.5
 11
81.75
 21
84
  0
LINE
  8
0
 10
81.75
 20
84
 11
81.75
 21
86
  0
LINE
  8
0
 10
81.75
 20
86
 11
81.884
 21
86.5
  0
LINE
  8
0
 10
81.884
 20
86.5
 11
82.25
 21
86.866
  0
LINE
  8
0
 10
82.25
 20
86.866
 11
82.75
 21
87
  0
LINE
  8
0
 10
82.75
 20
87
 11
84.45
 21
87
  0
LINE
  8
0
 10
84.45
 20
87
 11
84.45
 21
90.3
  0
LINE
  8
0
 10
84.45
 20
90.3
 11
101.55
 21
90.3
  0
LINE
  8
0
 10
101.55
 20
90.3
 11
101.55
 21
87
  0
LINE
  8
0
 10
101.55
 20
87
 11
103.25
 21
87
  0
LINE
  8
0
 10
103.25
 20
87
 11
103.75
 21
86.866
  0
LINE
  8
0
 10
103.75
 20
86.866
 11
104.116
 21
86.5
  0
LINE
  8
0
 10
104.116
 20
86.5
 11
104.25
 21
86
  0
LINE
  8
0
 10
104.25
 20
86
 11
104.25
 21
84
  0
LINE
  8
0
 10
104.25
 20
84
 11
104.116
 21
83.5
  0
LINE
  8
0
 10
104.116
 20
83.5
 11
103.75
 21
83.134
  0
LINE
  8
0
 10
103.75
 20
83.134
 11
103.25
 21
83
  0
LINE
  8
0
 10
103.25
 20
83
 11
100.125
 21
83
  0
LINE
  8
0
 10
100.125
 20
83
 11
100.125
 21
81.5161
  0
LINE
  8
0
 10
100.125
 20
81.5161
 11
103.125
 21
81
  0
LINE
  8
0
 10
103.125
 20
81
 11
103.125
 21
76.8
  0
LINE
  8
0
 10
103.125
 20
76.8
 11
102.653
 21
75.8168
  0
LINE
  8
0
 10
102.653
 20
75.8168
 11
101.817
 21
73.1011
  0
LINE
  8
0
 10
101.817
 20
73.1011
 11
101.3
 21
70.1187
  0
LINE
  8
0
 10
101.3
 20
70.1187
 11
101.125
 21
67
  0
LINE
  8
0
 10
101.125
 20
67
 11
101.3
 21
63.8813
  0
LINE
  8
0
 10
101.3
 20
63.8813
 11
101.817
 21
60.899
  0
LINE
  8
0
 10
101.817
 20
60.899
 11
102.653
 21
58.1832
  0
LINE
  8
0
 10
102.653
 20
58.1832
 11
103.125
 21
57.2
  0
LINE
  8
0
 10
103.125
 20
57.2
 11
103.125
 21
54
  0
LINE
  8
0
 10
103.125
 20
54
 11
103.012
 21
53.4319
  0
LINE
  8
0
 10
103.012
 20
53.4319
 11
103.521
 21
50.5456
  0
LINE
  8
0
 10
103.521
 20
50.5456
 11
101.158
 21
50.129
  0
LINE
  8
0
 10
101.158
 20
50.129
 11
100.038
 21
49.3806
  0
LINE
  8
0
 10
100.038
 20
49.3806
 11
98.125
 21
49
  0
LINE
  8
0
 10
98.125
 20
49
 11
96.5417
 21
49.315
  0
LINE
  8
0
 10
96.5417
 20
49.315
 11
93.6729
 21
48.8091
  0
LINE
  8
0
 10
93.6729
 20
48.8091
 11
93.2985
 21
50.932
  0
LINE
  8
0
 10
59.45
 20
48.7
 11
59.45
 21
52
  0
LINE
  8
0
 10
59.45
 20
52
 11
57.75
 21
52
  0
LINE
  8
0
 10
57.75
 20
52
 11
57.25
 21
52.134
  0
LINE
  8
0
 10
57.25
 20
52.134
 11
56.884
 21
52.5
  0
LINE
  8
0
 10
56.884
 20
52.5
 11
56.75
 21
53
  0
LINE
  8
0
 10
56.75
 20
53
 11
56.75
 21
55
  0
LINE
  8
0
 10
56.75
 20
55
 11
56.884
 21
55.5
  0
LINE
  8
0
 10
56.884
 20
55.5
 11
57.25
 21
55.866
  0
LINE
  8
0
 10
57.25
 20
55.866
 11
57.75
 21
56
  0
LINE
  8
0
 10
57.75
 20
56
 11
60.875
 21
56
  0
LINE
  8
0
 10
60.875
 20
56
 11
60.875
 21
57.4839
  0
LINE
  8
0
 10
60.875
 20
57.4839
 11
57.875
 21
58
  0
LINE
  8
0
 10
57.875
 20
58
 11
57.875
 21
62.2
  0
LINE
  8
0
 10
57.875
 20
62.2
 11
58.3471
 21
63.1832
  0
LINE
  8
0
 10
58.3471
 20
63.1832
 11
59.1834
 21
65.8989
  0
LINE
  8
0
 10
59.1834
 20
65.8989
 11
59.7002
 21
68.8813
  0
LINE
  8
0
 10
59.7002
 20
68.8813
 11
59.875
 21
72
  0
LINE
  8
0
 10
59.875
 20
72
 11
59.7002
 21
75.1187
  0
LINE
  8
0
 10
59.7002
 20
75.1187
 11
59.1834
 21
78.101
  0
LINE
  8
0
 10
59.1834
 20
78.101
 11
58.3471
 21
80.8168
  0
LINE
  8
0
 10
58.3471
 20
80.8168
 11
57.875
 21
81.8
  0
LINE
  8
0
 10
57.875
 20
81.8
 11
57.875
 21
85
  0
LINE
  8
0
 10
57.875
 20
85
 11
57.988
 21
85.5681
  0
LINE
  8
0
 10
57.988
 20
85.5681
 11
57.4791
 21
88.4544
  0
LINE
  8
0
 10
57.4791
 20
88.4544
 11
59.8415
 21
88.871
  0
LINE
  8
0
 10
59.8415
 20
88.871
 11
60.9616
 21
89.6194
  0
LINE
  8
0
 10
60.9616
 20
89.6194
 11
62.875
 21
90
  0
LINE
  8
0
 10
62.875
 20
90
 11
64.4583
 21
89.685
  0
LINE
  8
0
 10
64.4583
 20
89.685
 11
67.3271
 21
90.1909
  0
LINE
  8
0
 10
67.3271
 20
90.1909
 11
67.7015
 21
88.068
  0
LINE
  8
0
 10
67.7015
 20
88.068
 11
79.1815
 21
81.9541
  0
LINE
  8
0
 10
79.1815
 20
81.9541
 11
77.1294
 21
76.3159
  0
LINE
  8
0
 10
77.1294
 20
76.3159
 11
69.0656
 21
78.3432
  0
LINE
  8
0
 10
69.0656
 20
78.3432
 11
76.1131
 21
69.305
  0
LINE
  8
0
 10
76.1131
 20
69.305
 11
77.2086
 21
67.7178
  0
LINE
  8
0
 10
77.2086
 20
67.7178
 11
77.8925
 21
65.9145
  0
LINE
  8
0
 10
77.8925
 20
65.9145
 11
78.125
 21
64
  0
LINE
  8
0
 10
78.125
 20
64
 11
77.8925
 21
62.0855
  0
LINE
  8
0
 10
77.8925
 20
62.0855
 11
77.2086
 21
60.2822
  0
LINE
  8
0
 10
77.2086
 20
60.2822
 11
76.1131
 21
58.695
  0
LINE
  8
0
 10
76.1131
 20
58.695
 11
75.125
 21
57.8196
  0
LINE
  8
0
 10
75.125
 20
57.8196
 11
75.125
 21
56
  0
LINE
  8
0
 10
75.125
 20
56
 11
78.25
 21
56
  0
LINE
  8
0
 10
78.25
 20
56
 11
78.75
 21
55.866
  0
LINE
  8
0
 10
78.75
 20
55.866
 11
79.116
 21
55.5
  0
LINE
  8
0
 10
79.116
 20
55.5
 11
79.25
 21
55
  0
LINE
  8
0
 10
79.25
 20
55
 11
79.25
 21
53
  0
LINE
  8
0
 10
79.25
 20
53
 11
79.116
 21
52.5
  0
LINE
  8
0
 10
79.116
 20
52.5
 11
78.75
 21
52.134
  0
LINE
  8
0
 10
78.75
 20
52.134
 11
78.25
 21
52
  0
LINE
  8
0
 10
78.25
 20
52
 11
76.55
 21
52
  0
LINE
  8
0
 10
76.55
 20
52
 11
76.55
 21
48.7
  0
LINE
  8
0
 10
76.55
 20
48.7
 11
59.45
 21
48.7
  0
LINE
  8
0
 10
35.5
 20
49
 11
35.5
 21
59
  0
LINE
  8
0
 10
35.5
 20
59
 11
38.7277
 21
59
  0
LINE
  8
0
 10
38.7277
 20
59
 11
33.3839
 21
80
  0
LINE
  8
0
 10
33.3839
 20
80
 11
32.75
 21
80
  0
LINE
  8
0
 10
32.75
 20
80
 11
32.25
 21
80.134
  0
LINE
  8
0
 10
32.25
 20
80.134
 11
31.884
 21
80.5
  0
LINE
  8
0
 10
31.884
 20
80.5
 11
31.75
 21
81
  0
LINE
  8
0
 10
31.75
 20
81
 11
31.75
 21
83
  0
LINE
  8
0
 10
31.75
 20
83
 11
31.884
 21
83.5
  0
LINE
  8
0
 10
31.884
 20
83.5
 11
32.25
 21
83.866
  0
LINE
  8
0
 10
32.25
 20
83.866
 11
32.75
 21
84
  0
LINE
  8
0
 10
32.75
 20
84
 11
34.45
 21
84
  0
LINE
  8
0
 10
34.45
 20
84
 11
34.45
 21
87.3
  0
LINE
  8
0
 10
34.45
 20
87.3
 11
51.55
 21
87.3
  0
LINE
  8
0
 10
51.55
 20
87.3
 11
51.55
 21
84
  0
LINE
  8
0
 10
51.55
 20
84
 11
53.25
 21
84
  0
LINE
  8
0
 10
53.25
 20
84
 11
53.75
 21
83.866
  0
LINE
  8
0
 10
53.75
 20
83.866
 11
54.116
 21
83.5
  0
LINE
  8
0
 10
54.116
 20
83.5
 11
54.25
 21
83
  0
LINE
  8
0
 10
54.25
 20
83
 11
54.25
 21
81
  0
LINE
  8
0
 10
54.25
 20
81
 11
54.116
 21
80.5
  0
LINE
  8
0
 10
54.116
 20
80.5
 11
53.75
 21
80.134
  0
LINE
  8
0
 10
53.75
 20
80.134
 11
53.25
 21
80
  0
LINE
  8
0
 10
53.25
 20
80
 11
52.6161
 21
80
  0
LINE
  8
0
 10
52.6161
 20
80
 11
47.2723
 21
59
  0
LINE
  8
0
 10
47.2723
 20
59
 11
50.5
 21
59
  0
LINE
  8
0
 10
50.5
 20
59
 11
50.5
 21
49
  0
LINE
  8
0
 10
50.5
 20
49
 11
46.5
 21
49
  0
LINE
  8
0
 10
46.5
 20
49
 11
46.5
 21
53
  0
LINE
  8
0
 10
46.5
 20
53
 11
45
 21
53
  0
LINE
  8
0
 10
45
 20
53
 11
45
 21
49
  0
LINE
  8
0
 10
45
 20
49
 11
41
 21
49
  0
LINE
  8
0
 10
41
 20
49
 11
41
 21
53
  0
LINE
  8
0
 10
41
 20
53
 11
39.5
 21
53
  0
LINE
  8
0
 10
39.5
 20
53
 11
39.5
 21
49
  0
LINE
  8
0
 10
39.5
 20
49
 11
35.5
 21
49
  0
LINE
  8
0
 10
9.45001
 20
48.7
 11
9.45001
 21
52
  0
LINE
  8
0
 10
9.45001
 20
52
 11
7.75
 21
52
  0
LINE
  8
0
 10
7.75
 20
52
 11
7.25
 21
52.134
  0
LINE
  8
0
 10
7.25
 20
52.134
 11
6.88399
 21
52.5
  0
LINE
  8
0
 10
6.88399
 20
52.5
 11
6.75
 21
53
  0
LINE
  8
0
 10
6.75
 20
53
 11
6.75
 21
55
  0
LINE
  8
0
 10
6.75
 20
55
 11
6.88399
 21
55.5
  0
LINE
  8
0
 10
6.88399
 20
55.5
 11
7.25
 21
55.866
  0
LINE
  8
0
 10
7.25
 20
55.866
 11
7.75
 21
56
  0
LINE
  8
0
 10
7.75
 20
56
 11
8.38393
 21
56
  0
LINE
  8
0
 10
8.38393
 20
56
 11
13.7277
 21
77
  0
LINE
  8
0
 10
13.7277
 20
77
 11
10.5
 21
77
  0
LINE
  8
0
 10
10.5
 20
77
 11
10.5
 21
87
  0
LINE
  8
0
 10
10.5
 20
87
 11
14.5
 21
87
  0
LINE
  8
0
 10
14.5
 20
87
 11
14.5
 21
83
  0
LINE
  8
0
 10
14.5
 20
83
 11
16
 21
83
  0
LINE
  8
0
 10
16
 20
83
 11
16
 21
87
  0
LINE
  8
0
 10
16
 20
87
 11
20
 21
87
  0
LINE
  8
0
 10
20
 20
87
 11
20
 21
83
  0
LINE
  8
0
 10
20
 20
83
 11
21.5
 21
83
  0
LINE
  8
0
 10
21.5
 20
83
 11
21.5
 21
87
  0
LINE
  8
0
 10
21.5
 20
87
 11
25.5
 21
87
  0
LINE
  8
0
 10
25.5
 20
87
 11
25.5
 21
77
  0
LINE
  8
0
 10
25.5
 20
77
 11
22.2723
 21
77
  0
LINE
  8
0
 10
22.2723
 20
77
 11
27.6161
 21
56
  0
LINE
  8
0
 10
27.6161
 20
56
 11
28.25
 21
56
  0
LINE
  8
0
 10
28.25
 20
56
 11
28.75
 21
55.866
  0
LINE
  8
0
 10
28.75
 20
55.866
 11
29.116
 21
55.5
  0
LINE
  8
0
 10
29.116
 20
55.5
 11
29.25
 21
55
  0
LINE
  8
0
 10
29.25
 20
55
 11
29.25
 21
53
  0
LINE
  8
0
 10
29.25
 20
53
 11
29.116
 21
52.5
  0
LINE
  8
0
 10
29.116
 20
52.5
 11
28.75
 21
52.134
  0
LINE
  8
0
 10
28.75
 20
52.134
 11
28.25
 21
52
  0
LINE
  8
0
 10
28.25
 20
52
 11
26.55
 21
52
  0
LINE
  8
0
 10
26.55
 20
52
 11
26.55
 21
48.7
  0
LINE
  8
0
 10
26.55
 20
48.7
 11
9.45001
 21
48.7
  0
LINE
  8
0
 10
191.087
 20
7.88062
 11
189.464
 21
8.96448
  0
LINE
  8
0
 10
189.464
 20
8.96448
 11
188.381
 21
10.5866
  0
LINE
  8
0
 10
188.381
 20
10.5866
 11
188
 21
12.5
  0
LINE
  8
0
 10
188
 20
12.5
 11
188.381
 21
14.4134
  0
LINE
  8
0
 10
188.381
 20
14.4134
 11
189.441
 21
16
  0
LINE
  8
0
 10
189.441
 20
16
 11
188
 21
16
  0
LINE
  8
0
 10
188
 20
16
 11
188
 21
19
  0
LINE
  8
0
 10
188
 20
19
 11
190
 21
19
  0
LINE
  8
0
 10
190
 20
19
 11
183.625
 21
36
  0
LINE
  8
0
 10
183.625
 20
36
 11
182.75
 21
36
  0
LINE
  8
0
 10
182.75
 20
36
 11
182.25
 21
36.134
  0
LINE
  8
0
 10
182.25
 20
36.134
 11
181.884
 21
36.5
  0
LINE
  8
0
 10
181.884
 20
36.5
 11
181.75
 21
37
  0
LINE
  8
0
 10
181.75
 20
37
 11
181.75
 21
39
  0
LINE
  8
0
 10
181.75
 20
39
 11
181.884
 21
39.5
  0
LINE
  8
0
 10
181.884
 20
39.5
 11
182.25
 21
39.866
  0
LINE
  8
0
 10
182.25
 20
39.866
 11
182.75
 21
40
  0
LINE
  8
0
 10
182.75
 20
40
 11
184.45
 21
40
  0
LINE
  8
0
 10
184.45
 20
40
 11
184.45
 21
43.3
  0
LINE
  8
0
 10
184.45
 20
43.3
 11
201.55
 21
43.3
  0
LINE
  8
0
 10
201.55
 20
43.3
 11
201.55
 21
40
  0
LINE
  8
0
 10
201.55
 20
40
 11
203.25
 21
40
  0
LINE
  8
0
 10
203.25
 20
40
 11
203.75
 21
39.866
  0
LINE
  8
0
 10
203.75
 20
39.866
 11
204.116
 21
39.5
  0
LINE
  8
0
 10
204.116
 20
39.5
 11
204.25
 21
39
  0
LINE
  8
0
 10
204.25
 20
39
 11
204.25
 21
37
  0
LINE
  8
0
 10
204.25
 20
37
 11
204.116
 21
36.5
  0
LINE
  8
0
 10
204.116
 20
36.5
 11
203.75
 21
36.134
  0
LINE
  8
0
 10
203.75
 20
36.134
 11
203.25
 21
36
  0
LINE
  8
0
 10
203.25
 20
36
 11
202.375
 21
36
  0
LINE
  8
0
 10
202.375
 20
36
 11
196
 21
19
  0
LINE
  8
0
 10
196
 20
19
 11
198
 21
19
  0
LINE
  8
0
 10
198
 20
19
 11
198
 21
16
  0
LINE
  8
0
 10
198
 20
16
 11
196.559
 21
16
  0
LINE
  8
0
 10
196.559
 20
16
 11
197.619
 21
14.4134
  0
LINE
  8
0
 10
197.619
 20
14.4134
 11
198
 21
12.5
  0
LINE
  8
0
 10
198
 20
12.5
 11
197.619
 21
10.5866
  0
LINE
  8
0
 10
197.619
 20
10.5866
 11
196.536
 21
8.96448
  0
LINE
  8
0
 10
196.536
 20
8.96448
 11
194.913
 21
7.88062
  0
LINE
  8
0
 10
194.913
 20
7.88062
 11
193
 21
7.5
  0
LINE
  8
0
 10
193
 20
7.5
 11
191.087
 21
7.88062
  0
LINE
  8
0
 10
141.087
 20
7.88062
 11
139.464
 21
8.96448
  0
LINE
  8
0
 10
139.464
 20
8.96448
 11
138.381
 21
10.5866
  0
LINE
  8
0
 10
138.381
 20
10.5866
 11
138
 21
12.5
  0
LINE
  8
0
 10
138
 20
12.5
 11
138.381
 21
14.4134
  0
LINE
  8
0
 10
138.381
 20
14.4134
 11
139.441
 21
16
  0
LINE
  8
0
 10
139.441
 20
16
 11
138
 21
16
  0
LINE
  8
0
 10
138
 20
16
 11
138
 21
19
  0
LINE
  8
0
 10
138
 20
19
 11
140
 21
19
  0
LINE
  8
0
 10
140
 20
19
 11
133.625
 21
36
  0
LINE
  8
0
 10
133.625
 20
36
 11
132.75
 21
36
  0
LINE
  8
0
 10
132.75
 20
36
 11
132.25
 21
36.134
  0
LINE
  8
0
 10
132.25
 20
36.134
 11
131.884
 21
36.5
  0
LINE
  8
0
 10
131.884
 20
36.5
 11
131.75
 21
37
  0
LINE
  8
0
 10
131.75
 20
37
 11
131.75
 21
39
  0
LINE
  8
0
 10
131.75
 20
39
 11
131.884
 21
39.5
  0
LINE
  8
0
 10
131.884
 20
39.5
 11
132.25
 21
39.866
  0
LINE
  8
0
 10
132.25
 20
39.866
 11
132.75
 21
40
  0
LINE
  8
0
 10
132.75
 20
40
 11
134.45
 21
40
  0
LINE
  8
0
 10
134.45
 20
40
 11
134.45
 21
43.3
  0
LINE
  8
0
 10
134.45
 20
43.3
 11
151.55
 21
43.3
  0
LINE
  8
0
 10
151.55
 20
43.3
 11
151.55
 21
40
  0
LINE
  8
0
 10
151.55
 20
40
 11
153.25
 21
40
  0
LINE
  8
0
 10
153.25
 20
40
 11
153.75
 21
39.866
  0
LINE
  8
0
 10
153.75
 20
39.866
 11
154.116
 21
39.5
  0
LINE
  8
0
 10
154.116
 20
39.5
 11
154.25
 21
39
  0
LINE
  8
0
 10
154.25
 20
39
 11
154.25
 21
37
  0
LINE
  8
0
 10
154.25
 20
37
 11
154.116
 21
36.5
  0
LINE
  8
0
 10
154.116
 20
36.5
 11
153.75
 21
36.134
  0
LINE
  8
0
 10
153.75
 20
36.134
 11
153.25
 21
36
  0
LINE
  8
0
 10
153.25
 20
36
 11
152.375
 21
36
  0
LINE
  8
0
 10
152.375
 20
36
 11
146
 21
19
  0
LINE
  8
0
 10
146
 20
19
 11
148
 21
19
  0
LINE
  8
0
 10
148
 20
19
 11
148
 21
16
  0
LINE
  8
0
 10
148
 20
16
 11
146.559
 21
16
  0
LINE
  8
0
 10
146.559
 20
16
 11
147.619
 21
14.4134
  0
LINE
  8
0
 10
147.619
 20
14.4134
 11
148
 21
12.5
  0
LINE
  8
0
 10
148
 20
12.5
 11
147.619
 21
10.5866
  0
LINE
  8
0
 10
147.619
 20
10.5866
 11
146.536
 21
8.96448
  0
LINE
  8
0
 10
146.536
 20
8.96448
 11
144.913
 21
7.88062
  0
LINE
  8
0
 10
144.913
 20
7.88062
 11
143
 21
7.5
  0
LINE
  8
0
 10
143
 20
7.5
 11
141.087
 21
7.88062
  0
LINE
  8
0
 10
91.0866
 20
7.88062
 11
89.4645
 21
8.96448
  0
LINE
  8
0
 10
89.4645
 20
8.96448
 11
88.3806
 21
10.5866
  0
LINE
  8
0
 10
88.3806
 20
10.5866
 11
88
 21
12.5
  0
LINE
  8
0
 10
88
 20
12.5
 11
88.3806
 21
14.4134
  0
LINE
  8
0
 10
88.3806
 20
14.4134
 11
89.4407
 21
16
  0
LINE
  8
0
 10
89.4407
 20
16
 11
88
 21
16
  0
LINE
  8
0
 10
88
 20
16
 11
88
 21
19
  0
LINE
  8
0
 10
88
 20
19
 11
90
 21
19
  0
LINE
  8
0
 10
90
 20
19
 11
83.625
 21
36
  0
LINE
  8
0
 10
83.625
 20
36
 11
82.75
 21
36
  0
LINE
  8
0
 10
82.75
 20
36
 11
82.25
 21
36.134
  0
LINE
  8
0
 10
82.25
 20
36.134
 11
81.884
 21
36.5
  0
LINE
  8
0
 10
81.884
 20
36.5
 11
81.75
 21
37
  0
LINE
  8
0
 10
81.75
 20
37
 11
81.75
 21
39
  0
LINE
  8
0
 10
81.75
 20
39
 11
81.884
 21
39.5
  0
LINE
  8
0
 10
81.884
 20
39.5
 11
82.25
 21
39.866
  0
LINE
  8
0
 10
82.25
 20
39.866
 11
82.75
 21
40
  0
LINE
  8
0
 10
82.75
 20
40
 11
84.45
 21
40
  0
LINE
  8
0
 10
84.45
 20
40
 11
84.45
 21
43.3
  0
LINE
  8
0
 10
84.45
 20
43.3
 11
101.55
 21
43.3
  0
LINE
  8
0
 10
101.55
 20
43.3
 11
101.55
 21
40
  0
LINE
  8
0
 10
101.55
 20
40
 11
103.25
 21
40
  0
LINE
  8
0
 10
103.25
 20
40
 11
103.75
 21
39.866
  0
LINE
  8
0
 10
103.75
 20
39.866
 11
104.116
 21
39.5
  0
LINE
  8
0
 10
104.116
 20
39.5
 11
104.25
 21
39
  0
LINE
  8
0
 10
104.25
 20
39
 11
104.25
 21
37
  0
LINE
  8
0
 10
104.25
 20
37
 11
104.116
 21
36.5
  0
LINE
  8
0
 10
104.116
 20
36.5
 11
103.75
 21
36.134
  0
LINE
  8
0
 10
103.75
 20
36.134
 11
103.25
 21
36
  0
LINE
  8
0
 10
103.25
 20
36
 11
102.375
 21
36
  0
LINE
  8
0
 10
102.375
 20
36
 11
96
 21
19
  0
LINE
  8
0
 10
96
 20
19
 11
98
 21
19
  0
LINE
  8
0
 10
98
 20
19
 11
98
 21
16
  0
LINE
  8
0
 10
98
 20
16
 11
96.5593
 21
16
  0
LINE
  8
0
 10
96.5593
 20
16
 11
97.6194
 21
14.4134
  0
LINE
  8
0
 10
97.6194
 20
14.4134
 11
98
 21
12.5
  0
LINE
  8
0
 10
98
 20
12.5
 11
97.6194
 21
10.5866
  0
LINE
  8
0
 10
97.6194
 20
10.5866
 11
96.5355
 21
8.96448
  0
LINE
  8
0
 10
96.5355
 20
8.96448
 11
94.9134
 21
7.88062
  0
LINE
  8
0
 10
94.9134
 20
7.88062
 11
93
 21
7.5
  0
LINE
  8
0
 10
93
 20
7.5
 11
91.0866
 21
7.88062
  0
LINE
  8
0
 10
41.0866
 20
7.88062
 11
39.4645
 21
8.96448
  0
LINE
  8
0
 10
39.4645
 20
8.96448
 11
38.3806
 21
10.5866
  0
LINE
  8
0
 10
38.3806
 20
10.5866
 11
38
 21
12.5
  0
LINE
  8
0
 10
38
 20
12.5
 11
38.3806
 21
14.4134
  0
LINE
  8
0
 10
38.3806
 20
14.4134
 11
39.4407
 21
16
  0
LINE
  8
0
 10
39.4407
 20
16
 11
38
 21
16
  0
LINE
  8
0
 10
38
 20
16
 11
38
 21
19
  0
LINE
  8
0
 10
38
 20
19
 11
40
 21
19
  0
LINE
  8
0
 10
40
 20
19
 11
33.625
 21
36
  0
LINE
  8
0
 10
33.625
 20
36
 11
32.75
 21
36
  0
LINE
  8
0
 10
32.75
 20
36
 11
32.25
 21
36.134
  0
LINE
  8
0
 10
32.25
 20
36.134
 11
31.884
 21
36.5
  0
LINE
  8
0
 10
31.884
 20
36.5
 11
31.75
 21
37
  0
LINE
  8
0
 10
31.75
 20
37
 11
31.75
 21
39
  0
LINE
  8
0
 10
31.75
 20
39
 11
31.884
 21
39.5
  0
LINE
  8
0
 10
31.884
 20
39.5
 11
32.25
 21
39.866
  0
LINE
  8
0
 10
32.25
 20
39.866
 11
32.75
 21
40
  0
LINE
  8
0
 10
32.75
 20
40
 11
34.45
 21
40
  0
LINE
  8
0
 10
34.45
 20
40
 11
34.45
 21
43.3
  0
LINE
  8
0
 10
34.45
 20
43.3
 11
51.55
 21
43.3
  0
LINE
  8
0
 10
51.55
 20
43.3
 11
51.55
 21
40
  0
LINE
  8
0
 10
51.55
 20
40
 11
53.25
 21
40
  0
LINE
  8
0
 10
53.25
 20
40
 11
53.75
 21
39.866
  0
LINE
  8
0
 10
53.75
 20
39.866
 11
54.116
 21
39.5
  0
LINE
  8
0
 10
54.116
 20
39.5
 11
54.25
 21
39
  0
LINE
  8
0
 10
54.25
 20
39
 11
54.25
 21
37
  0
LINE
  8
0
 10
54.25
 20
37
 11
54.116
 21
36.5
  0
LINE
  8
0
 10
54.116
 20
36.5
 11
53.75
 21
36.134
  0
LINE
  8
0
 10
53.75
 20
36.134
 11
53.25
 21
36
  0
LINE
  8
0
 10
53.25
 20
36
 11
52.375
 21
36
  0
LINE
  8
0
 10
52.375
 20
36
 11
46
 21
19
  0
LINE
  8
0
 10
46
 20
19
 11
48
 21
19
  0
LINE
  8
0
 10
48
 20
19
 11
48
 21
16
  0
LINE
  8
0
 10
48
 20
16
 11
46.5592
 21
16
  0
LINE
  8
0
 10
46.5592
 20
16
 11
47.6194
 21
14.4134
  0
LINE
  8
0
 10
47.6194
 20
14.4134
 11
48
 21
12.5
  0
LINE
  8
0
 10
48
 20
12.5
 11
47.6194
 21
10.5866
  0
LINE
  8
0
 10
47.6194
 20
10.5866
 11
46.5355
 21
8.96448
  0
LINE
  8
0
 10
46.5355
 20
8.96448
 11
44.9134
 21
7.88062
  0
LINE
  8
0
 10
44.9134
 20
7.88062
 11
43
 21
7.5
  0
LINE
  8
0
 10
43
 20
7.5
 11
41.0866
 21
7.88062
  0
LINE
  8
0
 10
159.45
 20
6.70001
 11
159.45
 21
10
  0
LINE
  8
0
 10
159.45
 20
10
 11
157.75
 21
10
  0
LINE
  8
0
 10
157.75
 20
10
 11
157.25
 21
10.134
  0
LINE
  8
0
 10
157.25
 20
10.134
 11
156.884
 21
10.5
  0
LINE
  8
0
 10
156.884
 20
10.5
 11
156.75
 21
11
  0
LINE
  8
0
 10
156.75
 20
11
 11
156.75
 21
13
  0
LINE
  8
0
 10
156.75
 20
13
 11
156.884
 21
13.5
  0
LINE
  8
0
 10
156.884
 20
13.5
 11
157.25
 21
13.866
  0
LINE
  8
0
 10
157.25
 20
13.866
 11
157.75
 21
14
  0
LINE
  8
0
 10
157.75
 20
14
 11
158.625
 21
14
  0
LINE
  8
0
 10
158.625
 20
14
 11
165
 21
31
  0
LINE
  8
0
 10
165
 20
31
 11
163
 21
31
  0
LINE
  8
0
 10
163
 20
31
 11
163
 21
34
  0
LINE
  8
0
 10
163
 20
34
 11
164.441
 21
34
  0
LINE
  8
0
 10
164.441
 20
34
 11
163.381
 21
35.5866
  0
LINE
  8
0
 10
163.381
 20
35.5866
 11
163
 21
37.5
  0
LINE
  8
0
 10
163
 20
37.5
 11
163.381
 21
39.4134
  0
LINE
  8
0
 10
163.381
 20
39.4134
 11
164.464
 21
41.0355
  0
LINE
  8
0
 10
164.464
 20
41.0355
 11
166.087
 21
42.1194
  0
LINE
  8
0
 10
166.087
 20
42.1194
 11
168
 21
42.5
  0
LINE
  8
0
 10
168
 20
42.5
 11
169.913
 21
42.1194
  0
LINE
  8
0
 10
169.913
 20
42.1194
 11
171.536
 21
41.0355
  0
LINE
  8
0
 10
171.536
 20
41.0355
 11
172.619
 21
39.4134
  0
LINE
  8
0
 10
172.619
 20
39.4134
 11
173
 21
37.5
  0
LINE
  8
0
 10
173
 20
37.5
 11
172.619
 21
35.5866
  0
LINE
  8
0
 10
172.619
 20
35.5866
 11
171.559
 21
34
  0
LINE
  8
0
 10
171.559
 20
34
 11
173
 21
34
  0
LINE
  8
0
 10
173
 20
34
 11
173
 21
31
  0
LINE
  8
0
 10
173
 20
31
 11
171
 21
31
  0
LINE
  8
0
 10
171
 20
31
 11
177.375
 21
14
  0
LINE
  8
0
 10
177.375
 20
14
 11
178.25
 21
14
  0
LINE
  8
0
 10
178.25
 20
14
 11
178.75
 21
13.866
  0
LINE
  8
0
 10
178.75
 20
13.866
 11
179.116
 21
13.5
  0
LINE
  8
0
 10
179.116
 20
13.5
 11
179.25
 21
13
  0
LINE
  8
0
 10
179.25
 20
13
 11
179.25
 21
11
  0
LINE
  8
0
 10
179.25
 20
11
 11
179.116
 21
10.5
  0
LINE
  8
0
 10
179.116
 20
10.5
 11
178.75
 21
10.134
  0
LINE
  8
0
 10
178.75
 20
10.134
 11
178.25
 21
10
  0
LINE
  8
0
 10
178.25
 20
10
 11
176.55
 21
10
  0
LINE
  8
0
 10
176.55
 20
10
 11
176.55
 21
6.70001
  0
LINE
  8
0
 10
176.55
 20
6.70001
 11
159.45
 21
6.70001
  0
LINE
  8
0
 10
109.45
 20
6.70001
 11
109.45
 21
10
  0
LINE
  8
0
 10
109.45
 20
10
 11
107.75
 21
10
  0
LINE
  8
0
 10
107.75
 20
10
 11
107.25
 21
10.134
  0
LINE
  8
0
 10
107.25
 20
10.134
 11
106.884
 21
10.5
  0
LINE
  8
0
 10
106.884
 20
10.5
 11
106.75
 21
11
  0
LINE
  8
0
 10
106.75
 20
11
 11
106.75
 21
13
  0
LINE
  8
0
 10
106.75
 20
13
 11
106.884
 21
13.5
  0
LINE
  8
0
 10
106.884
 20
13.5
 11
107.25
 21
13.866
  0
LINE
  8
0
 10
107.25
 20
13.866
 11
107.75
 21
14
  0
LINE
  8
0
 10
107.75
 20
14
 11
108.625
 21
14
  0
LINE
  8
0
 10
108.625
 20
14
 11
115
 21
31
  0
LINE
  8
0
 10
115
 20
31
 11
113
 21
31
  0
LINE
  8
0
 10
113
 20
31
 11
113
 21
34
  0
LINE
  8
0
 10
113
 20
34
 11
114.441
 21
34
  0
LINE
  8
0
 10
114.441
 20
34
 11
113.381
 21
35.5866
  0
LINE
  8
0
 10
113.381
 20
35.5866
 11
113
 21
37.5
  0
LINE
  8
0
 10
113
 20
37.5
 11
113.381
 21
39.4134
  0
LINE
  8
0
 10
113.381
 20
39.4134
 11
114.464
 21
41.0355
  0
LINE
  8
0
 10
114.464
 20
41.0355
 11
116.087
 21
42.1194
  0
LINE
  8
0
 10
116.087
 20
42.1194
 11
118
 21
42.5
  0
LINE
  8
0
 10
118
 20
42.5
 11
119.913
 21
42.1194
  0
LINE
  8
0
 10
119.913
 20
42.1194
 11
121.536
 21
41.0355
  0
LINE
  8
0
 10
121.536
 20
41.0355
 11
122.619
 21
39.4134
  0
LINE
  8
0
 10
122.619
 20
39.4134
 11
123
 21
37.5
  0
LINE
  8
0
 10
123
 20
37.5
 11
122.619
 21
35.5866
  0
LINE
  8
0
 10
122.619
 20
35.5866
 11
121.559
 21
34
  0
LINE
  8
0
 10
121.559
 20
34
 11
123
 21
34
  0
LINE
  8
0
 10
123
 20
34
 11
123
 21
31
  0
LINE
  8
0
 10
123
 20
31
 11
121
 21
31
  0
LINE
  8
0
 10
121
 20
31
 11
127.375
 21
14
  0
LINE
  8
0
 10
127.375
 20
14
 11
128.25
 21
14
  0
LINE
  8
0
 10
128.25
 20
14
 11
128.75
 21
13.866
  0
LINE
  8
0
 10
128.75
 20
13.866
 11
129.116
 21
13.5
  0
LINE
  8
0
 10
129.116
 20
13.5
 11
129.25
 21
13
  0
LINE
  8
0
 10
129.25
 20
13
 11
129.25
 21
11
  0
LINE
  8
0
 10
129.25
 20
11
 11
129.116
 21
10.5
  0
LINE
  8
0
 10
129.116
 20
10.5
 11
128.75
 21
10.134
  0
LINE
  8
0
 10
128.75
 20
10.134
 11
128.25
 21
10
  0
LINE
  8
0
 10
128.25
 20
10
 11
126.55
 21
10
  0
LINE
  8
0
 10
126.55
 20
10
 11
126.55
 21
6.70001
  0
LINE
  8
0
 10
126.55
 20
6.70001
 11
109.45
 21
6.70001
  0
LINE
  8
0
 10
59.45
 20
6.70001
 11
59.45
 21
10
  0
LINE
  8
0
 10
59.45
 20
10
 11
57.75
 21
10
  0
LINE
  8
0
 10
57.75
 20
10
 11
57.25
 21
10.134
  0
LINE
  8
0
 10
57.25
 20
10.134
 11
56.884
 21
10.5
  0
LINE
  8
0
 10
56.884
 20
10.5
 11
56.75
 21
11
  0
LINE
  8
0
 10
56.75
 20
11
 11
56.75
 21
13
  0
LINE
  8
0
 10
56.75
 20
13
 11
56.884
 21
13.5
  0
LINE
  8
0
 10
56.884
 20
13.5
 11
57.25
 21
13.866
  0
LINE
  8
0
 10
57.25
 20
13.866
 11
57.75
 21
14
  0
LINE
  8
0
 10
57.75
 20
14
 11
58.625
 21
14
  0
LINE
  8
0
 10
58.625
 20
14
 11
65
 21
31
  0
LINE
  8
0
 10
65
 20
31
 11
63
 21
31
  0
LINE
  8
0
 10
63
 20
31
 11
63
 21
34
  0
LINE
  8
0
 10
63
 20
34
 11
64.4407
 21
34
  0
LINE
  8
0
 10
64.4407
 20
34
 11
63.3806
 21
35.5866
  0
LINE
  8
0
 10
63.3806
 20
35.5866
 11
63
 21
37.5
  0
LINE
  8
0
 10
63
 20
37.5
 11
63.3806
 21
39.4134
  0
LINE
  8
0
 10
63.3806
 20
39.4134
 11
64.4645
 21
41.0355
  0
LINE
  8
0
 10
64.4645
 20
41.0355
 11
66.0866
 21
42.1194
  0
LINE
  8
0
 10
66.0866
 20
42.1194
 11
68
 21
42.5
  0
LINE
  8
0
 10
68
 20
42.5
 11
69.9134
 21
42.1194
  0
LINE
  8
0
 10
69.9134
 20
42.1194
 11
71.5355
 21
41.0355
  0
LINE
  8
0
 10
71.5355
 20
41.0355
 11
72.6194
 21
39.4134
  0
LINE
  8
0
 10
72.6194
 20
39.4134
 11
73
 21
37.5
  0
LINE
  8
0
 10
73
 20
37.5
 11
72.6194
 21
35.5866
  0
LINE
  8
0
 10
72.6194
 20
35.5866
 11
71.5593
 21
34
  0
LINE
  8
0
 10
71.5593
 20
34
 11
73
 21
34
  0
LINE
  8
0
 10
73
 20
34
 11
73
 21
31
  0
LINE
  8
0
 10
73
 20
31
 11
71
 21
31
  0
LINE
  8
0
 10
71
 20
31
 11
77.375
 21
14
  0
LINE
  8
0
 10
77.375
 20
14
 11
78.25
 21
14
  0
LINE
  8
0
 10
78.25
 20
14
 11
78.75
 21
13.866
  0
LINE
  8
0
 10
78.75
 20
13.866
 11
79.116
 21
13.5
  0
LINE
  8
0
 10
79.116
 20
13.5
 11
79.25
 21
13
  0
LINE
  8
0
 10
79.25
 20
13
 11
79.25
 21
11
  0
LINE
  8
0
 10
79.25
 20
11
 11
79.116
 21
10.5
  0
LINE
  8
0
 10
79.116
 20
10.5
 11
78.75
 21
10.134
  0
LINE
  8
0
 10
78.75
 20
10.134
 11
78.25
 21
10
  0
LINE
  8
0
 10
78.25
 20
10
 11
76.55
 21
10
  0
LINE
  8
0
 10
76.55
 20
10
 11
76.55
 21
6.70001
  0
LINE
  8
0
 10
76.55
 20
6.70001
 11
59.45
 21
6.70001
  0
LINE
  8
0
 10
9.45001
 20
6.70001
 11
9.45001
 21
10
  0
LINE
  8
0
 10
9.45001
 20
10
 11
7.75
 21
10
  0
LINE
  8
0
 10
7.75
 20
10
 11
7.25
 21
10.134
  0
LINE
  8
0
 10
7.25
 20
10.134
 11
6.88399
 21
10.5
  0
LINE
  8
0
 10
6.88399
 20
10.5
 11
6.75
 21
11
  0
LINE
  8
0
 10
6.75
 20
11
 11
6.75
 21
13
  0
LINE
  8
0
 10
6.75
 20
13
 11
6.88399
 21
13.5
  0
LINE
  8
0
 10
6.88399
 20
13.5
 11
7.25
 21
13.866
  0
LINE
  8
0
 10
7.25
 20
13.866
 11
7.75
 21
14
  0
LINE
  8
0
 10
7.75
 20
14
 11
8.625
 21
14
  0
LINE
  8
0
 10
8.625
 20
14
 11
15
 21
31
  0
LINE
  8
0
 10
15
 20
31
 11
13
 21
31
  0
LINE
  8
0
 10
13
 20
31
 11
13
 21
34
  0
LINE
  8
0
 10
13
 20
34
 11
14.4407
 21
34
  0
LINE
  8
0
 10
14.4407
 20
34
 11
13.3806
 21
35.5866
  0
LINE
  8
0
 10
13.3806
 20
35.5866
 11
13
 21
37.5
  0
LINE
  8
0
 10
13
 20
37.5
 11
13.3806
 21
39.4134
  0
LINE
  8
0
 10
13.3806
 20
39.4134
 11
14.4645
 21
41.0355
  0
LINE
  8
0
 10
14.4645
 20
41.0355
 11
16.0866
 21
42.1194
  0
LINE
  8
0
 10
16.0866
 20
42.1194
 11
18
 21
42.5
  0
LINE
  8
0
 10
18
 20
42.5
 11
19.9134
 21
42.1194
  0
LINE
  8
0
 10
19.9134
 20
42.1194
 11
21.5355
 21
41.0355
  0
LINE
  8
0
 10
21.5355
 20
41.0355
 11
22.6194
 21
39.4134
  0
LINE
  8
0
 10
22.6194
 20
39.4134
 11
23
 21
37.5
  0
LINE
  8
0
 10
23
 20
37.5
 11
22.6194
 21
35.5866
  0
LINE
  8
0
 10
22.6194
 20
35.5866
 11
21.5593
 21
34
  0
LINE
  8
0
 10
21.5593
 20
34
 11
23
 21
34
  0
LINE
  8
0
 10
23
 20
34
 11
23
 21
31
  0
LINE
  8
0
 10
23
 20
31
 11
21
 21
31
  0
LINE
  8
0
 10
21
 20
31
 11
27.375
 21
14
  0
LINE
  8
0
 10
27.375
 20
14
 11
28.25
 21
14
  0
LINE
  8
0
 10
28.25
 20
14
 11
28.75
 21
13.866
  0
LINE
  8
0
 10
28.75
 20
13.866
 11
29.116
 21
13.5
  0
LINE
  8
0
 10
29.116
 20
13.5
 11
29.25
 21
13
  0
LINE
  8
0
 10
29.25
 20
13
 11
29.25
 21
11
  0
LINE
  8
0
 10
29.25
 20
11
 11
29.116
 21
10.5
  0
LINE
  8
0
 10
29.116
 20
10.5
 11
28.75
 21
10.134
  0
LINE
  8
0
 10
28.75
 20
10.134
 11
28.25
 21
10
  0
LINE
  8
0
 10
28.25
 20
10
 11
26.55
 21
10
  0
LINE
  8
0
 10
26.55
 20
10
 11
26.55
 21
6.70001
  0
LINE
  8
0
 10
26.55
 20
6.70001
 11
9.45001
 21
6.70001
  0
ENDSEC
  0
SECTION
  2
OBJECTS
  0
DICTIONARY
  0
ENDSEC
  0
EOF
