  0
SECTION
  2
BLOCKS
  0
ENDSEC
  0
SECTION
  2
ENTITIES
  0
LINE
  8
0
 10
212.213
 20
-4.91939
 11
213.836
 21
-3.83553
  0
LINE
  8
0
 10
213.836
 20
-3.83553
 11
214.919
 21
-2.21341
  0
LINE
  8
0
 10
214.919
 20
-2.21341
 11
215.3
 21
-0.299988
  0
LINE
  8
0
 10
215.3
 20
-0.299988
 11
215.3
 21
110.3
  0
LINE
  8
0
 10
215.3
 20
110.3
 11
-5.29999
 21
110.3
  0
LINE
  8
0
 10
-5.29999
 20
110.3
 11
-5.29999
 21
-0.299988
  0
LINE
  8
0
 10
-5.29999
 20
-0.299988
 11
-4.91939
 21
-2.21341
  0
LINE
  8
0
 10
-4.91939
 20
-2.21341
 11
-3.83553
 21
-3.83553
  0
LINE
  8
0
 10
-3.83553
 20
-3.83553
 11
-2.21341
 21
-4.91939
  0
LINE
  8
0
 10
-2.21341
 20
-4.91939
 11
-0.299988
 21
-5.29999
  0
LINE
  8
0
 10
-0.299988
 20
-5.29999
 11
210.3
 21
-5.29999
  0
LINE
  8
0
 10
210.3
 20
-5.29999
 11
212.213
 21
-4.91939
  0
LINE
  8
0
 10
32.7
 20
79.7
 11
31.5519
 21
79.9284
  0
LINE
  8
0
 10
31.5519
 20
79.9284
 11
30.5787
 21
80.5787
  0
LINE
  8
0
 10
30.5787
 20
80.5787
 11
29.9284
 21
81.5519
  0
LINE
  8
0
 10
29.9284
 20
81.5519
 11
29.7
 21
82.7
  0
LINE
  8
0
 10
29.7
 20
82.7
 11
29.7
 21
102.3
  0
LINE
  8
0
 10
29.7
 20
102.3
 11
29.9284
 21
103.448
  0
LINE
  8
0
 10
29.9284
 20
103.448
 11
30.5787
 21
104.421
  0
LINE
  8
0
 10
30.5787
 20
104.421
 11
31.5519
 21
105.072
  0
LINE
  8
0
 10
31.5519
 20
105.072
 11
32.7
 21
105.3
  0
LINE
  8
0
 10
32.7
 20
105.3
 11
52.3
 21
105.3
  0
LINE
  8
0
 10
52.3
 20
105.3
 11
53.448
 21
105.072
  0
LINE
  8
0
 10
53.448
 20
105.072
 11
54.4213
 21
104.421
  0
LINE
  8
0
 10
54.4213
 20
104.421
 11
55.0716
 21
103.448
  0
LINE
  8
0
 10
55.0716
 20
103.448
 11
55.3
 21
102.3
  0
LINE
  8
0
 10
55.3
 20
102.3
 11
55.3
 21
82.7
  0
LINE
  8
0
 10
55.3
 20
82.7
 11
55.0716
 21
81.5519
  0
LINE
  8
0
 10
55.0716
 20
81.5519
 11
54.4213
 21
80.5787
  0
LINE
  8
0
 10
54.4213
 20
80.5787
 11
53.448
 21
79.9284
  0
LINE
  8
0
 10
53.448
 20
79.9284
 11
52.3
 21
79.7
  0
LINE
  8
0
 10
52.3
 20
79.7
 11
32.7
 21
79.7
  0
LINE
  8
0
 10
182.7
 20
79.7
 11
181.552
 21
79.9284
  0
LINE
  8
0
 10
181.552
 20
79.9284
 11
180.579
 21
80.5787
  0
LINE
  8
0
 10
180.579
 20
80.5787
 11
179.928
 21
81.5519
  0
LINE
  8
0
 10
179.928
 20
81.5519
 11
179.7
 21
82.7
  0
LINE
  8
0
 10
179.7
 20
82.7
 11
179.7
 21
102.3
  0
LINE
  8
0
 10
179.7
 20
102.3
 11
179.928
 21
103.448
  0
LINE
  8
0
 10
179.928
 20
103.448
 11
180.579
 21
104.421
  0
LINE
  8
0
 10
180.579
 20
104.421
 11
181.552
 21
105.072
  0
LINE
  8
0
 10
181.552
 20
105.072
 11
182.7
 21
105.3
  0
LINE
  8
0
 10
182.7
 20
105.3
 11
202.3
 21
105.3
  0
LINE
  8
0
 10
202.3
 20
105.3
 11
203.448
 21
105.072
  0
LINE
  8
0
 10
203.448
 20
105.072
 11
204.421
 21
104.421
  0
LINE
  8
0
 10
204.421
 20
104.421
 11
205.072
 21
103.448
  0
LINE
  8
0
 10
205.072
 20
103.448
 11
205.3
 21
102.3
  0
LINE
  8
0
 10
205.3
 20
102.3
 11
205.3
 21
82.7
  0
LINE
  8
0
 10
205.3
 20
82.7
 11
205.072
 21
81.5519
  0
LINE
  8
0
 10
205.072
 20
81.5519
 11
204.421
 21
80.5787
  0
LINE
  8
0
 10
204.421
 20
80.5787
 11
203.448
 21
79.9284
  0
LINE
  8
0
 10
203.448
 20
79.9284
 11
202.3
 21
79.7
  0
LINE
  8
0
 10
202.3
 20
79.7
 11
182.7
 21
79.7
  0
LINE
  8
0
 10
132.7
 20
79.7
 11
131.552
 21
79.9284
  0
LINE
  8
0
 10
131.552
 20
79.9284
 11
130.579
 21
80.5787
  0
LINE
  8
0
 10
130.579
 20
80.5787
 11
129.928
 21
81.5519
  0
LINE
  8
0
 10
129.928
 20
81.5519
 11
129.7
 21
82.7
  0
LINE
  8
0
 10
129.7
 20
82.7
 11
129.7
 21
102.3
  0
LINE
  8
0
 10
129.7
 20
102.3
 11
129.928
 21
103.448
  0
LINE
  8
0
 10
129.928
 20
103.448
 11
130.579
 21
104.421
  0
LINE
  8
0
 10
130.579
 20
104.421
 11
131.552
 21
105.072
  0
LINE
  8
0
 10
131.552
 20
105.072
 11
132.7
 21
105.3
  0
LINE
  8
0
 10
132.7
 20
105.3
 11
152.3
 21
105.3
  0
LINE
  8
0
 10
152.3
 20
105.3
 11
153.448
 21
105.072
  0
LINE
  8
0
 10
153.448
 20
105.072
 11
154.421
 21
104.421
  0
LINE
  8
0
 10
154.421
 20
104.421
 11
155.072
 21
103.448
  0
LINE
  8
0
 10
155.072
 20
103.448
 11
155.3
 21
102.3
  0
LINE
  8
0
 10
155.3
 20
102.3
 11
155.3
 21
82.7
  0
LINE
  8
0
 10
155.3
 20
82.7
 11
155.072
 21
81.5519
  0
LINE
  8
0
 10
155.072
 20
81.5519
 11
154.421
 21
80.5787
  0
LINE
  8
0
 10
154.421
 20
80.5787
 11
153.448
 21
79.9284
  0
LINE
  8
0
 10
153.448
 20
79.9284
 11
152.3
 21
79.7
  0
LINE
  8
0
 10
152.3
 20
79.7
 11
132.7
 21
79.7
  0
LINE
  8
0
 10
82.7
 20
79.7
 11
81.5519
 21
79.9284
  0
LINE
  8
0
 10
81.5519
 20
79.9284
 11
80.5787
 21
80.5787
  0
LINE
  8
0
 10
80.5787
 20
80.5787
 11
79.9284
 21
81.5519
  0
LINE
  8
0
 10
79.9284
 20
81.5519
 11
79.7
 21
82.7
  0
LINE
  8
0
 10
79.7
 20
82.7
 11
79.7
 21
102.3
  0
LINE
  8
0
 10
79.7
 20
102.3
 11
79.9284
 21
103.448
  0
LINE
  8
0
 10
79.9284
 20
103.448
 11
80.5787
 21
104.421
  0
LINE
  8
0
 10
80.5787
 20
104.421
 11
81.5519
 21
105.072
  0
LINE
  8
0
 10
81.5519
 20
105.072
 11
82.7
 21
105.3
  0
LINE
  8
0
 10
82.7
 20
105.3
 11
102.3
 21
105.3
  0
LINE
  8
0
 10
102.3
 20
105.3
 11
103.448
 21
105.072
  0
LINE
  8
0
 10
103.448
 20
105.072
 11
104.421
 21
104.421
  0
LINE
  8
0
 10
104.421
 20
104.421
 11
105.072
 21
103.448
  0
LINE
  8
0
 10
105.072
 20
103.448
 11
105.3
 21
102.3
  0
LINE
  8
0
 10
105.3
 20
102.3
 11
105.3
 21
82.7
  0
LINE
  8
0
 10
105.3
 20
82.7
 11
105.072
 21
81.5519
  0
LINE
  8
0
 10
105.072
 20
81.5519
 11
104.421
 21
80.5787
  0
LINE
  8
0
 10
104.421
 20
80.5787
 11
103.448
 21
79.9284
  0
LINE
  8
0
 10
103.448
 20
79.9284
 11
102.3
 21
79.7
  0
LINE
  8
0
 10
102.3
 20
79.7
 11
82.7
 21
79.7
  0
LINE
  8
0
 10
7.7
 20
54.7
 11
6.55194
 21
54.9284
  0
LINE
  8
0
 10
6.55194
 20
54.9284
 11
5.57867
 21
55.5787
  0
LINE
  8
0
 10
5.57867
 20
55.5787
 11
4.92836
 21
56.5519
  0
LINE
  8
0
 10
4.92836
 20
56.5519
 11
4.7
 21
57.7
  0
LINE
  8
0
 10
4.7
 20
57.7
 11
4.7
 21
77.3
  0
LINE
  8
0
 10
4.7
 20
77.3
 11
4.92836
 21
78.448
  0
LINE
  8
0
 10
4.92836
 20
78.448
 11
5.57867
 21
79.4213
  0
LINE
  8
0
 10
5.57867
 20
79.4213
 11
6.55194
 21
80.0716
  0
LINE
  8
0
 10
6.55194
 20
80.0716
 11
7.7
 21
80.3
  0
LINE
  8
0
 10
7.7
 20
80.3
 11
27.3
 21
80.3
  0
LINE
  8
0
 10
27.3
 20
80.3
 11
28.448
 21
80.0716
  0
LINE
  8
0
 10
28.448
 20
80.0716
 11
29.4213
 21
79.4213
  0
LINE
  8
0
 10
29.4213
 20
79.4213
 11
30.0716
 21
78.448
  0
LINE
  8
0
 10
30.0716
 20
78.448
 11
30.3
 21
77.3
  0
LINE
  8
0
 10
30.3
 20
77.3
 11
30.3
 21
57.7
  0
LINE
  8
0
 10
30.3
 20
57.7
 11
30.0716
 21
56.5519
  0
LINE
  8
0
 10
30.0716
 20
56.5519
 11
29.4213
 21
55.5787
  0
LINE
  8
0
 10
29.4213
 20
55.5787
 11
28.448
 21
54.9284
  0
LINE
  8
0
 10
28.448
 20
54.9284
 11
27.3
 21
54.7
  0
LINE
  8
0
 10
27.3
 20
54.7
 11
7.7
 21
54.7
  0
LINE
  8
0
 10
57.7
 20
54.7
 11
56.5519
 21
54.9284
  0
LINE
  8
0
 10
56.5519
 20
54.9284
 11
55.5787
 21
55.5787
  0
LINE
  8
0
 10
55.5787
 20
55.5787
 11
54.9284
 21
56.5519
  0
LINE
  8
0
 10
54.9284
 20
56.5519
 11
54.7
 21
57.7
  0
LINE
  8
0
 10
54.7
 20
57.7
 11
54.7
 21
77.3
  0
LINE
  8
0
 10
54.7
 20
77.3
 11
54.9284
 21
78.448
  0
LINE
  8
0
 10
54.9284
 20
78.448
 11
55.5787
 21
79.4213
  0
LINE
  8
0
 10
55.5787
 20
79.4213
 11
56.5519
 21
80.0716
  0
LINE
  8
0
 10
56.5519
 20
80.0716
 11
57.7
 21
80.3
  0
LINE
  8
0
 10
57.7
 20
80.3
 11
77.3
 21
80.3
  0
LINE
  8
0
 10
77.3
 20
80.3
 11
78.448
 21
80.0716
  0
LINE
  8
0
 10
78.448
 20
80.0716
 11
79.4213
 21
79.4213
  0
LINE
  8
0
 10
79.4213
 20
79.4213
 11
80.0716
 21
78.448
  0
LINE
  8
0
 10
80.0716
 20
78.448
 11
80.3
 21
77.3
  0
LINE
  8
0
 10
80.3
 20
77.3
 11
80.3
 21
57.7
  0
LINE
  8
0
 10
80.3
 20
57.7
 11
80.0716
 21
56.5519
  0
LINE
  8
0
 10
80.0716
 20
56.5519
 11
79.4213
 21
55.5787
  0
LINE
  8
0
 10
79.4213
 20
55.5787
 11
78.448
 21
54.9284
  0
LINE
  8
0
 10
78.448
 20
54.9284
 11
77.3
 21
54.7
  0
LINE
  8
0
 10
77.3
 20
54.7
 11
57.7
 21
54.7
  0
LINE
  8
0
 10
107.7
 20
54.7
 11
106.552
 21
54.9284
  0
LINE
  8
0
 10
106.552
 20
54.9284
 11
105.579
 21
55.5787
  0
LINE
  8
0
 10
105.579
 20
55.5787
 11
104.928
 21
56.5519
  0
LINE
  8
0
 10
104.928
 20
56.5519
 11
104.7
 21
57.7
  0
LINE
  8
0
 10
104.7
 20
57.7
 11
104.7
 21
77.3
  0
LINE
  8
0
 10
104.7
 20
77.3
 11
104.928
 21
78.448
  0
LINE
  8
0
 10
104.928
 20
78.448
 11
105.579
 21
79.4213
  0
LINE
  8
0
 10
105.579
 20
79.4213
 11
106.552
 21
80.0716
  0
LINE
  8
0
 10
106.552
 20
80.0716
 11
107.7
 21
80.3
  0
LINE
  8
0
 10
107.7
 20
80.3
 11
127.3
 21
80.3
  0
LINE
  8
0
 10
127.3
 20
80.3
 11
128.448
 21
80.0716
  0
LINE
  8
0
 10
128.448
 20
80.0716
 11
129.421
 21
79.4213
  0
LINE
  8
0
 10
129.421
 20
79.4213
 11
130.072
 21
78.448
  0
LINE
  8
0
 10
130.072
 20
78.448
 11
130.3
 21
77.3
  0
LINE
  8
0
 10
130.3
 20
77.3
 11
130.3
 21
57.7
  0
LINE
  8
0
 10
130.3
 20
57.7
 11
130.072
 21
56.5519
  0
LINE
  8
0
 10
130.072
 20
56.5519
 11
129.421
 21
55.5787
  0
LINE
  8
0
 10
129.421
 20
55.5787
 11
128.448
 21
54.9284
  0
LINE
  8
0
 10
128.448
 20
54.9284
 11
127.3
 21
54.7
  0
LINE
  8
0
 10
127.3
 20
54.7
 11
107.7
 21
54.7
  0
LINE
  8
0
 10
157.7
 20
54.7
 11
156.552
 21
54.9284
  0
LINE
  8
0
 10
156.552
 20
54.9284
 11
155.579
 21
55.5787
  0
LINE
  8
0
 10
155.579
 20
55.5787
 11
154.928
 21
56.5519
  0
LINE
  8
0
 10
154.928
 20
56.5519
 11
154.7
 21
57.7
  0
LINE
  8
0
 10
154.7
 20
57.7
 11
154.7
 21
77.3
  0
LINE
  8
0
 10
154.7
 20
77.3
 11
154.928
 21
78.448
  0
LINE
  8
0
 10
154.928
 20
78.448
 11
155.579
 21
79.4213
  0
LINE
  8
0
 10
155.579
 20
79.4213
 11
156.552
 21
80.0716
  0
LINE
  8
0
 10
156.552
 20
80.0716
 11
157.7
 21
80.3
  0
LINE
  8
0
 10
157.7
 20
80.3
 11
177.3
 21
80.3
  0
LINE
  8
0
 10
177.3
 20
80.3
 11
178.448
 21
80.0716
  0
LINE
  8
0
 10
178.448
 20
80.0716
 11
179.421
 21
79.4213
  0
LINE
  8
0
 10
179.421
 20
79.4213
 11
180.072
 21
78.448
  0
LINE
  8
0
 10
180.072
 20
78.448
 11
180.3
 21
77.3
  0
LINE
  8
0
 10
180.3
 20
77.3
 11
180.3
 21
57.7
  0
LINE
  8
0
 10
180.3
 20
57.7
 11
180.072
 21
56.5519
  0
LINE
  8
0
 10
180.072
 20
56.5519
 11
179.421
 21
55.5787
  0
LINE
  8
0
 10
179.421
 20
55.5787
 11
178.448
 21
54.9284
  0
LINE
  8
0
 10
178.448
 20
54.9284
 11
177.3
 21
54.7
  0
LINE
  8
0
 10
177.3
 20
54.7
 11
157.7
 21
54.7
  0
LINE
  8
0
 10
32.7
 20
29.7
 11
31.5519
 21
29.9284
  0
LINE
  8
0
 10
31.5519
 20
29.9284
 11
30.5787
 21
30.5787
  0
LINE
  8
0
 10
30.5787
 20
30.5787
 11
29.9284
 21
31.5519
  0
LINE
  8
0
 10
29.9284
 20
31.5519
 11
29.7
 21
32.7
  0
LINE
  8
0
 10
29.7
 20
32.7
 11
29.7
 21
52.3
  0
LINE
  8
0
 10
29.7
 20
52.3
 11
29.9284
 21
53.448
  0
LINE
  8
0
 10
29.9284
 20
53.448
 11
30.5787
 21
54.4213
  0
LINE
  8
0
 10
30.5787
 20
54.4213
 11
31.5519
 21
55.0716
  0
LINE
  8
0
 10
31.5519
 20
55.0716
 11
32.7
 21
55.3
  0
LINE
  8
0
 10
32.7
 20
55.3
 11
52.3
 21
55.3
  0
LINE
  8
0
 10
52.3
 20
55.3
 11
53.448
 21
55.0716
  0
LINE
  8
0
 10
53.448
 20
55.0716
 11
54.4213
 21
54.4213
  0
LINE
  8
0
 10
54.4213
 20
54.4213
 11
55.0716
 21
53.448
  0
LINE
  8
0
 10
55.0716
 20
53.448
 11
55.3
 21
52.3
  0
LINE
  8
0
 10
55.3
 20
52.3
 11
55.3
 21
32.7
  0
LINE
  8
0
 10
55.3
 20
32.7
 11
55.0716
 21
31.5519
  0
LINE
  8
0
 10
55.0716
 20
31.5519
 11
54.4213
 21
30.5787
  0
LINE
  8
0
 10
54.4213
 20
30.5787
 11
53.448
 21
29.9284
  0
LINE
  8
0
 10
53.448
 20
29.9284
 11
52.3
 21
29.7
  0
LINE
  8
0
 10
52.3
 20
29.7
 11
32.7
 21
29.7
  0
LINE
  8
0
 10
82.7
 20
29.7
 11
81.5519
 21
29.9284
  0
LINE
  8
0
 10
81.5519
 20
29.9284
 11
80.5787
 21
30.5787
  0
LINE
  8
0
 10
80.5787
 20
30.5787
 11
79.9284
 21
31.5519
  0
LINE
  8
0
 10
79.9284
 20
31.5519
 11
79.7
 21
32.7
  0
LINE
  8
0
 10
79.7
 20
32.7
 11
79.7
 21
52.3
  0
LINE
  8
0
 10
79.7
 20
52.3
 11
79.9284
 21
53.448
  0
LINE
  8
0
 10
79.9284
 20
53.448
 11
80.5787
 21
54.4213
  0
LINE
  8
0
 10
80.5787
 20
54.4213
 11
81.5519
 21
55.0716
  0
LINE
  8
0
 10
81.5519
 20
55.0716
 11
82.7
 21
55.3
  0
LINE
  8
0
 10
82.7
 20
55.3
 11
102.3
 21
55.3
  0
LINE
  8
0
 10
102.3
 20
55.3
 11
103.448
 21
55.0716
  0
LINE
  8
0
 10
103.448
 20
55.0716
 11
104.421
 21
54.4213
  0
LINE
  8
0
 10
104.421
 20
54.4213
 11
105.072
 21
53.448
  0
LINE
  8
0
 10
105.072
 20
53.448
 11
105.3
 21
52.3
  0
LINE
  8
0
 10
105.3
 20
52.3
 11
105.3
 21
32.7
  0
LINE
  8
0
 10
105.3
 20
32.7
 11
105.072
 21
31.5519
  0
LINE
  8
0
 10
105.072
 20
31.5519
 11
104.421
 21
30.5787
  0
LINE
  8
0
 10
104.421
 20
30.5787
 11
103.448
 21
29.9284
  0
LINE
  8
0
 10
103.448
 20
29.9284
 11
102.3
 21
29.7
  0
LINE
  8
0
 10
102.3
 20
29.7
 11
82.7
 21
29.7
  0
LINE
  8
0
 10
132.7
 20
29.7
 11
131.552
 21
29.9284
  0
LINE
  8
0
 10
131.552
 20
29.9284
 11
130.579
 21
30.5787
  0
LINE
  8
0
 10
130.579
 20
30.5787
 11
129.928
 21
31.5519
  0
LINE
  8
0
 10
129.928
 20
31.5519
 11
129.7
 21
32.7
  0
LINE
  8
0
 10
129.7
 20
32.7
 11
129.7
 21
52.3
  0
LINE
  8
0
 10
129.7
 20
52.3
 11
129.928
 21
53.448
  0
LINE
  8
0
 10
129.928
 20
53.448
 11
130.579
 21
54.4213
  0
LINE
  8
0
 10
130.579
 20
54.4213
 11
131.552
 21
55.0716
  0
LINE
  8
0
 10
131.552
 20
55.0716
 11
132.7
 21
55.3
  0
LINE
  8
0
 10
132.7
 20
55.3
 11
152.3
 21
55.3
  0
LINE
  8
0
 10
152.3
 20
55.3
 11
153.448
 21
55.0716
  0
LINE
  8
0
 10
153.448
 20
55.0716
 11
154.421
 21
54.4213
  0
LINE
  8
0
 10
154.421
 20
54.4213
 11
155.072
 21
53.448
  0
LINE
  8
0
 10
155.072
 20
53.448
 11
155.3
 21
52.3
  0
LINE
  8
0
 10
155.3
 20
52.3
 11
155.3
 21
32.7
  0
LINE
  8
0
 10
155.3
 20
32.7
 11
155.072
 21
31.5519
  0
LINE
  8
0
 10
155.072
 20
31.5519
 11
154.421
 21
30.5787
  0
LINE
  8
0
 10
154.421
 20
30.5787
 11
153.448
 21
29.9284
  0
LINE
  8
0
 10
153.448
 20
29.9284
 11
152.3
 21
29.7
  0
LINE
  8
0
 10
152.3
 20
29.7
 11
132.7
 21
29.7
  0
LINE
  8
0
 10
182.7
 20
29.7
 11
181.552
 21
29.9284
  0
LINE
  8
0
 10
181.552
 20
29.9284
 11
180.579
 21
30.5787
  0
LINE
  8
0
 10
180.579
 20
30.5787
 11
179.928
 21
31.5519
  0
LINE
  8
0
 10
179.928
 20
31.5519
 11
179.7
 21
32.7
  0
LINE
  8
0
 10
179.7
 20
32.7
 11
179.7
 21
52.3
  0
LINE
  8
0
 10
179.7
 20
52.3
 11
179.928
 21
53.448
  0
LINE
  8
0
 10
179.928
 20
53.448
 11
180.579
 21
54.4213
  0
LINE
  8
0
 10
180.579
 20
54.4213
 11
181.552
 21
55.0716
  0
LINE
  8
0
 10
181.552
 20
55.0716
 11
182.7
 21
55.3
  0
LINE
  8
0
 10
182.7
 20
55.3
 11
202.3
 21
55.3
  0
LINE
  8
0
 10
202.3
 20
55.3
 11
203.448
 21
55.0716
  0
LINE
  8
0
 10
203.448
 20
55.0716
 11
204.421
 21
54.4213
  0
LINE
  8
0
 10
204.421
 20
54.4213
 11
205.072
 21
53.448
  0
LINE
  8
0
 10
205.072
 20
53.448
 11
205.3
 21
52.3
  0
LINE
  8
0
 10
205.3
 20
52.3
 11
205.3
 21
32.7
  0
LINE
  8
0
 10
205.3
 20
32.7
 11
205.072
 21
31.5519
  0
LINE
  8
0
 10
205.072
 20
31.5519
 11
204.421
 21
30.5787
  0
LINE
  8
0
 10
204.421
 20
30.5787
 11
203.448
 21
29.9284
  0
LINE
  8
0
 10
203.448
 20
29.9284
 11
202.3
 21
29.7
  0
LINE
  8
0
 10
202.3
 20
29.7
 11
182.7
 21
29.7
  0
LINE
  8
0
 10
7.7
 20
4.7
 11
6.55194
 21
4.92836
  0
LINE
  8
0
 10
6.55194
 20
4.92836
 11
5.57867
 21
5.57867
  0
LINE
  8
0
 10
5.57867
 20
5.57867
 11
4.92836
 21
6.55194
  0
LINE
  8
0
 10
4.92836
 20
6.55194
 11
4.7
 21
7.7
  0
LINE
  8
0
 10
4.7
 20
7.7
 11
4.7
 21
27.3
  0
LINE
  8
0
 10
4.7
 20
27.3
 11
4.92836
 21
28.448
  0
LINE
  8
0
 10
4.92836
 20
28.448
 11
5.57867
 21
29.4213
  0
LINE
  8
0
 10
5.57867
 20
29.4213
 11
6.55194
 21
30.0716
  0
LINE
  8
0
 10
6.55194
 20
30.0716
 11
7.7
 21
30.3
  0
LINE
  8
0
 10
7.7
 20
30.3
 11
27.3
 21
30.3
  0
LINE
  8
0
 10
27.3
 20
30.3
 11
28.448
 21
30.0716
  0
LINE
  8
0
 10
28.448
 20
30.0716
 11
29.4213
 21
29.4213
  0
LINE
  8
0
 10
29.4213
 20
29.4213
 11
30.0716
 21
28.448
  0
LINE
  8
0
 10
30.0716
 20
28.448
 11
30.3
 21
27.3
  0
LINE
  8
0
 10
30.3
 20
27.3
 11
30.3
 21
7.7
  0
LINE
  8
0
 10
30.3
 20
7.7
 11
30.0716
 21
6.55194
  0
LINE
  8
0
 10
30.0716
 20
6.55194
 11
29.4213
 21
5.57867
  0
LINE
  8
0
 10
29.4213
 20
5.57867
 11
28.448
 21
4.92836
  0
LINE
  8
0
 10
28.448
 20
4.92836
 11
27.3
 21
4.7
  0
LINE
  8
0
 10
27.3
 20
4.7
 11
7.7
 21
4.7
  0
LINE
  8
0
 10
57.7
 20
4.7
 11
56.5519
 21
4.92836
  0
LINE
  8
0
 10
56.5519
 20
4.92836
 11
55.5787
 21
5.57867
  0
LINE
  8
0
 10
55.5787
 20
5.57867
 11
54.9284
 21
6.55194
  0
LINE
  8
0
 10
54.9284
 20
6.55194
 11
54.7
 21
7.7
  0
LINE
  8
0
 10
54.7
 20
7.7
 11
54.7
 21
27.3
  0
LINE
  8
0
 10
54.7
 20
27.3
 11
54.9284
 21
28.448
  0
LINE
  8
0
 10
54.9284
 20
28.448
 11
55.5787
 21
29.4213
  0
LINE
  8
0
 10
55.5787
 20
29.4213
 11
56.5519
 21
30.0716
  0
LINE
  8
0
 10
56.5519
 20
30.0716
 11
57.7
 21
30.3
  0
LINE
  8
0
 10
57.7
 20
30.3
 11
77.3
 21
30.3
  0
LINE
  8
0
 10
77.3
 20
30.3
 11
78.448
 21
30.0716
  0
LINE
  8
0
 10
78.448
 20
30.0716
 11
79.4213
 21
29.4213
  0
LINE
  8
0
 10
79.4213
 20
29.4213
 11
80.0716
 21
28.448
  0
LINE
  8
0
 10
80.0716
 20
28.448
 11
80.3
 21
27.3
  0
LINE
  8
0
 10
80.3
 20
27.3
 11
80.3
 21
7.7
  0
LINE
  8
0
 10
80.3
 20
7.7
 11
80.0716
 21
6.55194
  0
LINE
  8
0
 10
80.0716
 20
6.55194
 11
79.4213
 21
5.57867
  0
LINE
  8
0
 10
79.4213
 20
5.57867
 11
78.448
 21
4.92836
  0
LINE
  8
0
 10
78.448
 20
4.92836
 11
77.3
 21
4.7
  0
LINE
  8
0
 10
77.3
 20
4.7
 11
57.7
 21
4.7
  0
LINE
  8
0
 10
107.7
 20
4.7
 11
106.552
 21
4.92836
  0
LINE
  8
0
 10
106.552
 20
4.92836
 11
105.579
 21
5.57867
  0
LINE
  8
0
 10
105.579
 20
5.57867
 11
104.928
 21
6.55194
  0
LINE
  8
0
 10
104.928
 20
6.55194
 11
104.7
 21
7.7
  0
LINE
  8
0
 10
104.7
 20
7.7
 11
104.7
 21
27.3
  0
LINE
  8
0
 10
104.7
 20
27.3
 11
104.928
 21
28.448
  0
LINE
  8
0
 10
104.928
 20
28.448
 11
105.579
 21
29.4213
  0
LINE
  8
0
 10
105.579
 20
29.4213
 11
106.552
 21
30.0716
  0
LINE
  8
0
 10
106.552
 20
30.0716
 11
107.7
 21
30.3
  0
LINE
  8
0
 10
107.7
 20
30.3
 11
127.3
 21
30.3
  0
LINE
  8
0
 10
127.3
 20
30.3
 11
128.448
 21
30.0716
  0
LINE
  8
0
 10
128.448
 20
30.0716
 11
129.421
 21
29.4213
  0
LINE
  8
0
 10
129.421
 20
29.4213
 11
130.072
 21
28.448
  0
LINE
  8
0
 10
130.072
 20
28.448
 11
130.3
 21
27.3
  0
LINE
  8
0
 10
130.3
 20
27.3
 11
130.3
 21
7.7
  0
LINE
  8
0
 10
130.3
 20
7.7
 11
130.072
 21
6.55194
  0
LINE
  8
0
 10
130.072
 20
6.55194
 11
129.421
 21
5.57867
  0
LINE
  8
0
 10
129.421
 20
5.57867
 11
128.448
 21
4.92836
  0
LINE
  8
0
 10
128.448
 20
4.92836
 11
127.3
 21
4.7
  0
LINE
  8
0
 10
127.3
 20
4.7
 11
107.7
 21
4.7
  0
LINE
  8
0
 10
157.7
 20
4.7
 11
156.552
 21
4.92836
  0
LINE
  8
0
 10
156.552
 20
4.92836
 11
155.579
 21
5.57867
  0
LINE
  8
0
 10
155.579
 20
5.57867
 11
154.928
 21
6.55194
  0
LINE
  8
0
 10
154.928
 20
6.55194
 11
154.7
 21
7.7
  0
LINE
  8
0
 10
154.7
 20
7.7
 11
154.7
 21
27.3
  0
LINE
  8
0
 10
154.7
 20
27.3
 11
154.928
 21
28.448
  0
LINE
  8
0
 10
154.928
 20
28.448
 11
155.579
 21
29.4213
  0
LINE
  8
0
 10
155.579
 20
29.4213
 11
156.552
 21
30.0716
  0
LINE
  8
0
 10
156.552
 20
30.0716
 11
157.7
 21
30.3
  0
LINE
  8
0
 10
157.7
 20
30.3
 11
177.3
 21
30.3
  0
LINE
  8
0
 10
177.3
 20
30.3
 11
178.448
 21
30.0716
  0
LINE
  8
0
 10
178.448
 20
30.0716
 11
179.421
 21
29.4213
  0
LINE
  8
0
 10
179.421
 20
29.4213
 11
180.072
 21
28.448
  0
LINE
  8
0
 10
180.072
 20
28.448
 11
180.3
 21
27.3
  0
LINE
  8
0
 10
180.3
 20
27.3
 11
180.3
 21
7.7
  0
LINE
  8
0
 10
180.3
 20
7.7
 11
180.072
 21
6.55194
  0
LINE
  8
0
 10
180.072
 20
6.55194
 11
179.421
 21
5.57867
  0
LINE
  8
0
 10
179.421
 20
5.57867
 11
178.448
 21
4.92836
  0
LINE
  8
0
 10
178.448
 20
4.92836
 11
177.3
 21
4.7
  0
LINE
  8
0
 10
177.3
 20
4.7
 11
157.7
 21
4.7
  0
ENDSEC
  0
SECTION
  2
OBJECTS
  0
DICTIONARY
  0
ENDSEC
  0
EOF
