  0
SECTION
  2
HEADER
  9
$ACADVER
  1
AC1014
  9
$HANDSEED
  5
FFFF
  9
$MEASUREMENT
 70
     1
  0
ENDSEC
  0
SECTION
  2
TABLES
  0
TABLE
  2
VPORT
  5
8
330
0
100
AcDbSymbolTable
 70
     4
  0
VPORT
  5
2E
330
8
100
AcDbSymbolTableRecord
100
AcDbViewportTableRecord
  2
*ACTIVE
 70
     0
 10
0.0
 20
0.0
 11
1.0
 21
1.0
 12
210.0
 22
148.5
 13
0.0
 23
0.0
 14
10.0
 24
10.0
 15
10.0
 25
10.0
 16
0.0
 26
0.0
 36
1.0
 17
0.0
 27
0.0
 37
0.0
 40
341.0
 41
1.24
 42
50.0
 43
0.0
 44
0.0
 50
0.0
 51
0.0
 71
     0
 72
   100
 73
     1
 74
     3
 75
     0
 76
     0
 77
     0
 78
     0
  0
ENDTAB
  0
TABLE
  2
LTYPE
  5
5
330
0
100
AcDbSymbolTable
 70
     1
  0
LTYPE
  5
14
330
5
100
AcDbSymbolTableRecord
100
AcDbLinetypeTableRecord
  2
BYBLOCK
 70
     0
  3

 72
    65
 73
     0
 40
0.0
  0
LTYPE
  5
15
330
5
100
AcDbSymbolTableRecord
100
AcDbLinetypeTableRecord
  2
BYLAYER
 70
     0
  3

 72
    65
 73
     0
 40
0.0
  0
LTYPE
  5
16
330
5
100
AcDbSymbolTableRecord
100
AcDbLinetypeTableRecord
  2
CONTINUOUS
 70
     0
  3
Solid line
 72
    65
 73
     0
 40
0.0
  0
ENDTAB
  0
TABLE
  2
LAYER
  5
2
100
AcDbSymbolTable
 70
2
  0
LAYER
  5
50
100
AcDbSymbolTableRecord
100
AcDbLayerTableRecord
  2
0
 70
0
  6
CONTINUOUS
  0
LAYER
  5
51
100
AcDbSymbolTableRecord
100
AcDbLayerTableRecord
  2
Layer_1
 70
0
  6
CONTINUOUS
  0
ENDTAB
  0
TABLE
  2
STYLE
  5
3
330
0
100
AcDbSymbolTable
 70
     1
  0
STYLE
  5
11
330
3
100
AcDbSymbolTableRecord
100
AcDbTextStyleTableRecord
  2
STANDARD
 70
     0
 40
0.0
 41
1.0
 50
0.0
 71
     0
 42
2.5
  3
txt
  4

  0
ENDTAB
  0
TABLE
  2
VIEW
  5
6
330
0
100
AcDbSymbolTable
 70
     0
  0
ENDTAB
  0
TABLE
  2
UCS
  5
7
330
0
100
AcDbSymbolTable
 70
     0
  0
ENDTAB
  0
TABLE
  2
APPID
  5
9
330
0
100
AcDbSymbolTable
 70
     2
  0
APPID
  5
12
330
9
100
AcDbSymbolTableRecord
100
AcDbRegAppTableRecord
  2
ACAD
 70
     0
  0
ENDTAB
  0
TABLE
  2
DIMSTYLE
  5
A
330
0
100
AcDbSymbolTable
 70
     1
  0
DIMSTYLE
105
27
330
A
100
AcDbSymbolTableRecord
100
AcDbDimStyleTableRecord
  2
ISO-25
 70
     0
  3

  4

  5

  6

  7

 40
1.0
 41
2.5
 42
0.625
 43
3.75
 44
1.25
 45
0.0
 46
0.0
 47
0.0
 48
0.0
140
2.5
141
2.5
142
0.0
143
0.03937007874016
144
1.0
145
0.0
146
1.0
147
0.625
 71
     0
 72
     0
 73
     0
 74
     0
 75
     0
 76
     0
 77
     1
 78
     8
170
     0
171
     3
172
     1
173
     0
174
     0
175
     0
176
     0
177
     0
178
     0
270
     2
271
     2
272
     2
273
     2
274
     3
340
11
275
     0
280
     0
281
     0
282
     0
283
     0
284
     8
285
     0
286
     0
287
     3
288
     0
  0
ENDTAB
  0
TABLE
  2
BLOCK_RECORD
  5
1
330
0
100
AcDbSymbolTable
 70
     1
  0
BLOCK_RECORD
  5
1F
330
1
100
AcDbSymbolTableRecord
100
AcDbBlockTableRecord
  2
*MODEL_SPACE
  0
BLOCK_RECORD
  5
1B
330
1
100
AcDbSymbolTableRecord
100
AcDbBlockTableRecord
  2
*PAPER_SPACE
  0
ENDTAB
  0
ENDSEC
  0
SECTION
  2
BLOCKS
  0
BLOCK
  5
20
330
1F
100
AcDbEntity
  8
0
100
AcDbBlockBegin
  2
*MODEL_SPACE
 70
     0
 10
0.0
 20
0.0
 30
0.0
  3
*MODEL_SPACE
  1

  0
ENDBLK
  5
21
330
1F
100
AcDbEntity
  8
0
100
AcDbBlockEnd
  0
BLOCK
  5
1C
330
1B
100
AcDbEntity
 67
     1
  8
0
100
AcDbBlockBegin
  2
*PAPER_SPACE
  1

  0
ENDBLK
  5
1D
330
1B
100
AcDbEntity
 67
     1
  8
0
100
AcDbBlockEnd
  0
ENDSEC
  0
SECTION
  2
ENTITIES
  0
LINE
  5
100
100
AcDbEntity
  8
Layer_1
 62
7
100
AcDbLine
 10
68.716497
 20
376.872430
 30
0.0
 11
7.280246
 21
376.872430
 31
0.0
  0
LINE
  5
101
100
AcDbEntity
  8
Layer_1
 62
7
100
AcDbLine
 10
4.105246
 20
373.697430
 30
0.0
 11
4.105246
 21
363.294014
 31
0.0
  0
SPLINE
  5
102
100
AcDbEntity
  8
Layer_1
 62
7
100
AcDbSpline
 70
8
 71
3
 72
8
 73
4
 74
0
 40
0
 40
0
 40
0
 40
0
 40
1
 40
1
 40
1
 40
1
 10
7.285551
 20
376.883014
 30
0.0
 10
5.529113
 20
376.883014
 30
0.0
 10
4.105246
 20
375.459146
 30
0.0
 10
4.105246
 20
373.702708
 30
0.0
  0
LINE
  5
103
100
AcDbEntity
  8
Layer_1
 62
7
100
AcDbLine
 10
45.094497
 20
342.444847
 30
0.0
 11
103.048830
 21
342.444847
 31
0.0
  0
LINE
  5
104
100
AcDbEntity
  8
Layer_1
 62
7
100
AcDbLine
 10
106.223830
 20
345.619847
 30
0.0
 11
106.223830
 21
362.479097
 31
0.0
  0
SPLINE
  5
105
100
AcDbEntity
  8
Layer_1
 62
7
100
AcDbSpline
 70
8
 71
3
 72
8
 73
4
 74
0
 40
0
 40
0
 40
0
 40
0
 40
1
 40
1
 40
1
 40
1
 10
103.054136
 20
342.444847
 30
0.0
 10
104.810546
 20
342.444847
 30
0.0
 10
106.234413
 20
343.868714
 30
0.0
 10
106.234413
 20
345.625124
 30
0.0
  0
LINE
  5
106
100
AcDbEntity
  8
Layer_1
 62
7
100
AcDbLine
 10
4.105246
 20
363.294014
 30
0.0
 11
45.094497
 21
342.444847
 31
0.0
  0
LINE
  5
107
100
AcDbEntity
  8
Layer_1
 62
7
100
AcDbLine
 10
68.716497
 20
376.872430
 30
0.0
 11
106.223830
 21
362.479097
 31
0.0
  0
LINE
  5
108
100
AcDbEntity
  8
Layer_1
 62
7
100
AcDbLine
 10
4.105246
 20
328.420488
 30
0.0
 11
4.105246
 21
316.217904
 31
0.0
  0
SPLINE
  5
109
100
AcDbEntity
  8
Layer_1
 62
7
100
AcDbSpline
 70
8
 71
3
 72
8
 73
4
 74
0
 40
0
 40
0
 40
0
 40
0
 40
1
 40
1
 40
1
 40
1
 10
15.223051
 20
339.543571
 30
0.0
 10
9.082855
 20
339.543571
 30
0.0
 10
4.105246
 20
334.565962
 30
0.0
 10
4.105246
 20
328.425766
 30
0.0
  0
LINE
  5
10a
100
AcDbEntity
  8
Layer_1
 62
7
100
AcDbLine
 10
106.223830
 20
331.479071
 30
0.0
 11
53.476497
 21
339.532988
 31
0.0
  0
LINE
  5
10b
100
AcDbEntity
  8
Layer_1
 62
7
100
AcDbLine
 10
53.476497
 20
339.532988
 30
0.0
 11
15.217746
 21
339.532988
 31
0.0
  0
LINE
  5
10c
100
AcDbEntity
  8
Layer_1
 62
7
100
AcDbLine
 10
15.217746
 20
305.105404
 30
0.0
 11
95.111330
 21
305.105404
 31
0.0
  0
SPLINE
  5
10d
100
AcDbEntity
  8
Layer_1
 62
7
100
AcDbSpline
 70
8
 71
3
 72
8
 73
4
 74
0
 40
0
 40
0
 40
0
 40
0
 40
1
 40
1
 40
1
 40
1
 10
4.105246
 20
316.223181
 30
0.0
 10
4.105246
 20
310.082985
 30
0.0
 10
9.082855
 20
305.105404
 30
0.0
 10
15.223051
 20
305.105404
 30
0.0
  0
LINE
  5
10e
100
AcDbEntity
  8
Layer_1
 62
7
100
AcDbLine
 10
106.223830
 20
316.217904
 30
0.0
 11
106.223830
 21
331.479071
 31
0.0
  0
SPLINE
  5
10f
100
AcDbEntity
  8
Layer_1
 62
7
100
AcDbSpline
 70
8
 71
3
 72
8
 73
4
 74
0
 40
0
 40
0
 40
0
 40
0
 40
1
 40
1
 40
1
 40
1
 10
95.116636
 20
305.105404
 30
0.0
 10
101.256832
 20
305.105404
 30
0.0
 10
106.234413
 20
310.082985
 30
0.0
 10
106.234413
 20
316.223181
 30
0.0
  0
LINE
  5
110
100
AcDbEntity
  8
Layer_1
 62
7
100
AcDbLine
 10
52.598080
 20
359.854430
 30
0.0
 11
73.553080
 21
359.854430
 31
0.0
  0
SPLINE
  5
111
100
AcDbEntity
  8
Layer_1
 62
7
100
AcDbSpline
 70
8
 71
3
 72
8
 73
4
 74
0
 40
0
 40
0
 40
0
 40
0
 40
1
 40
1
 40
1
 40
1
 10
52.608663
 20
359.859708
 30
0.0
 10
52.608663
 20
362.317525
 30
0.0
 10
50.616203
 20
364.310014
 30
0.0
 10
48.158386
 20
364.310014
 30
0.0
  0
SPLINE
  5
112
100
AcDbEntity
  8
Layer_1
 62
7
100
AcDbSpline
 70
8
 71
3
 72
8
 73
4
 74
0
 40
0
 40
0
 40
0
 40
0
 40
1
 40
1
 40
1
 40
1
 10
48.158386
 20
364.310014
 30
0.0
 10
45.700541
 20
364.310014
 30
0.0
 10
43.708080
 20
362.317525
 30
0.0
 10
43.708080
 20
359.859708
 30
0.0
  0
SPLINE
  5
113
100
AcDbEntity
  8
Layer_1
 62
7
100
AcDbSpline
 70
8
 71
3
 72
8
 73
4
 74
0
 40
0
 40
0
 40
0
 40
0
 40
1
 40
1
 40
1
 40
1
 10
43.708080
 20
359.859708
 30
0.0
 10
43.708080
 20
357.401919
 30
0.0
 10
45.700541
 20
355.409430
 30
0.0
 10
48.158386
 20
355.409430
 30
0.0
  0
SPLINE
  5
114
100
AcDbEntity
  8
Layer_1
 62
7
100
AcDbSpline
 70
8
 71
3
 72
8
 73
4
 74
0
 40
0
 40
0
 40
0
 40
0
 40
1
 40
1
 40
1
 40
1
 10
48.158386
 20
355.409430
 30
0.0
 10
50.616203
 20
355.409430
 30
0.0
 10
52.608663
 20
357.401919
 30
0.0
 10
52.608663
 20
359.859708
 30
0.0
  0
LINE
  5
115
100
AcDbEntity
  8
Layer_1
 62
7
100
AcDbLine
 10
34.902747
 20
321.192071
 30
0.0
 11
61.096497
 21
321.192071
 31
0.0
  0
SPLINE
  5
116
100
AcDbEntity
  8
Layer_1
 62
7
100
AcDbSpline
 70
8
 71
3
 72
8
 73
4
 74
0
 40
0
 40
0
 40
0
 40
0
 40
1
 40
1
 40
1
 40
1
 10
34.913330
 20
321.197348
 30
0.0
 10
34.913330
 20
324.268942
 30
0.0
 10
32.423340
 20
326.758905
 30
0.0
 10
29.351803
 20
326.758905
 30
0.0
  0
SPLINE
  5
117
100
AcDbEntity
  8
Layer_1
 62
7
100
AcDbSpline
 70
8
 71
3
 72
8
 73
4
 74
0
 40
0
 40
0
 40
0
 40
0
 40
1
 40
1
 40
1
 40
1
 10
29.351803
 20
326.758905
 30
0.0
 10
26.280236
 20
326.758905
 30
0.0
 10
23.790246
 20
324.268942
 30
0.0
 10
23.790246
 20
321.197348
 30
0.0
  0
SPLINE
  5
118
100
AcDbEntity
  8
Layer_1
 62
7
100
AcDbSpline
 70
8
 71
3
 72
8
 73
4
 74
0
 40
0
 40
0
 40
0
 40
0
 40
1
 40
1
 40
1
 40
1
 10
23.790246
 20
321.197348
 30
0.0
 10
23.790246
 20
318.125782
 30
0.0
 10
26.280236
 20
315.635820
 30
0.0
 10
29.351803
 20
315.635820
 30
0.0
  0
SPLINE
  5
119
100
AcDbEntity
  8
Layer_1
 62
7
100
AcDbSpline
 70
8
 71
3
 72
8
 73
4
 74
0
 40
0
 40
0
 40
0
 40
0
 40
1
 40
1
 40
1
 40
1
 10
29.351803
 20
315.635820
 30
0.0
 10
32.423340
 20
315.635820
 30
0.0
 10
34.913330
 20
318.125782
 30
0.0
 10
34.913330
 20
321.197348
 30
0.0
  0
LINE
  5
11a
100
AcDbEntity
  8
Layer_1
 62
7
100
AcDbLine
 10
444.775646
 20
79.298869
 30
0.0
 11
487.659313
 21
79.298869
 31
0.0
  0
LINE
  5
11b
100
AcDbEntity
  8
Layer_1
 62
7
100
AcDbLine
 10
487.659313
 20
79.298869
 30
0.0
 11
488.315480
 21
85.278452
 31
0.0
  0
LINE
  5
11c
100
AcDbEntity
  8
Layer_1
 62
7
100
AcDbLine
 10
488.315480
 20
85.278452
 30
0.0
 11
488.632980
 21
88.262952
 31
0.0
  0
LINE
  5
11d
100
AcDbEntity
  8
Layer_1
 62
7
100
AcDbLine
 10
488.632980
 20
88.262952
 30
0.0
 11
488.929313
 21
91.258035
 31
0.0
  0
LINE
  5
11e
100
AcDbEntity
  8
Layer_1
 62
7
100
AcDbLine
 10
488.929313
 20
91.258035
 30
0.0
 11
489.225646
 21
94.253119
 31
0.0
  0
LINE
  5
11f
100
AcDbEntity
  8
Layer_1
 62
7
100
AcDbLine
 10
489.225646
 20
94.253119
 30
0.0
 11
489.500813
 21
97.248193
 31
0.0
  0
LINE
  5
120
100
AcDbEntity
  8
Layer_1
 62
7
100
AcDbLine
 10
489.500813
 20
97.248193
 30
0.0
 11
489.765396
 21
100.243277
 31
0.0
  0
LINE
  5
121
100
AcDbEntity
  8
Layer_1
 62
7
100
AcDbLine
 10
489.765396
 20
100.243277
 30
0.0
 11
490.019396
 21
103.238360
 31
0.0
  0
LINE
  5
122
100
AcDbEntity
  8
Layer_1
 62
7
100
AcDbLine
 10
490.019396
 20
103.238360
 30
0.0
 11
490.495646
 21
109.239110
 31
0.0
  0
LINE
  5
123
100
AcDbEntity
  8
Layer_1
 62
7
100
AcDbLine
 10
490.495646
 20
109.239110
 30
0.0
 11
490.717896
 21
112.234193
 31
0.0
  0
LINE
  5
124
100
AcDbEntity
  8
Layer_1
 62
7
100
AcDbLine
 10
490.717896
 20
112.234193
 30
0.0
 11
490.929563
 21
115.229277
 31
0.0
  0
LINE
  5
125
100
AcDbEntity
  8
Layer_1
 62
7
100
AcDbLine
 10
490.929563
 20
115.229277
 30
0.0
 11
491.130646
 21
118.234943
 31
0.0
  0
LINE
  5
126
100
AcDbEntity
  8
Layer_1
 62
7
100
AcDbLine
 10
491.130646
 20
118.234943
 30
0.0
 11
491.321146
 21
121.240610
 31
0.0
  0
LINE
  5
127
100
AcDbEntity
  8
Layer_1
 62
7
100
AcDbLine
 10
491.321146
 20
121.240610
 30
0.0
 11
491.501063
 21
124.235693
 31
0.0
  0
LINE
  5
128
100
AcDbEntity
  8
Layer_1
 62
7
100
AcDbLine
 10
491.501063
 20
124.235693
 30
0.0
 11
491.659813
 21
127.241360
 31
0.0
  0
LINE
  5
129
100
AcDbEntity
  8
Layer_1
 62
7
100
AcDbLine
 10
491.659813
 20
127.241360
 30
0.0
 11
491.818563
 21
130.247027
 31
0.0
  0
LINE
  5
12a
100
AcDbEntity
  8
Layer_1
 62
7
100
AcDbLine
 10
491.818563
 20
130.247027
 30
0.0
 11
491.945563
 21
133.252693
 31
0.0
  0
LINE
  5
12b
100
AcDbEntity
  8
Layer_1
 62
7
100
AcDbLine
 10
491.945563
 20
133.252693
 30
0.0
 11
492.072563
 21
136.258360
 31
0.0
  0
LINE
  5
12c
100
AcDbEntity
  8
Layer_1
 62
7
100
AcDbLine
 10
492.072563
 20
136.258360
 30
0.0
 11
492.188980
 21
139.253441
 31
0.0
  0
LINE
  5
12d
100
AcDbEntity
  8
Layer_1
 62
7
100
AcDbLine
 10
492.188980
 20
139.253441
 30
0.0
 11
492.284230
 21
142.269691
 31
0.0
  0
LINE
  5
12e
100
AcDbEntity
  8
Layer_1
 62
7
100
AcDbLine
 10
492.284230
 20
142.269691
 30
0.0
 11
492.368896
 21
145.275357
 31
0.0
  0
LINE
  5
12f
100
AcDbEntity
  8
Layer_1
 62
7
100
AcDbLine
 10
492.368896
 20
145.275357
 30
0.0
 11
492.517063
 21
151.286691
 31
0.0
  0
LINE
  5
130
100
AcDbEntity
  8
Layer_1
 62
7
100
AcDbLine
 10
492.517063
 20
151.286691
 30
0.0
 11
492.622896
 21
157.298024
 31
0.0
  0
LINE
  5
131
100
AcDbEntity
  8
Layer_1
 62
7
100
AcDbLine
 10
492.622896
 20
157.298024
 30
0.0
 11
492.696980
 21
163.309357
 31
0.0
  0
LINE
  5
132
100
AcDbEntity
  8
Layer_1
 62
7
100
AcDbLine
 10
492.696980
 20
163.309357
 30
0.0
 11
492.739313
 21
169.331274
 31
0.0
  0
LINE
  5
133
100
AcDbEntity
  8
Layer_1
 62
7
100
AcDbLine
 10
492.739313
 20
169.331274
 30
0.0
 11
492.771063
 21
175.342607
 31
0.0
  0
LINE
  5
134
100
AcDbEntity
  8
Layer_1
 62
7
100
AcDbLine
 10
492.771063
 20
175.342607
 30
0.0
 11
492.792230
 21
187.375857
 31
0.0
  0
LINE
  5
135
100
AcDbEntity
  8
Layer_1
 62
7
100
AcDbLine
 10
492.792230
 20
187.375857
 30
0.0
 11
492.792230
 21
199.398524
 31
0.0
  0
LINE
  5
136
100
AcDbEntity
  8
Layer_1
 62
7
100
AcDbLine
 10
492.792230
 20
199.398524
 30
0.0
 11
492.802954
 21
211.431774
 31
0.0
  0
LINE
  5
137
100
AcDbEntity
  8
Layer_1
 62
7
100
AcDbLine
 10
492.802954
 20
211.431774
 30
0.0
 11
492.792230
 21
217.443107
 31
0.0
  0
LINE
  5
138
100
AcDbEntity
  8
Layer_1
 62
7
100
AcDbLine
 10
492.792230
 20
217.443107
 30
0.0
 11
492.760480
 21
223.465038
 31
0.0
  0
LINE
  5
139
100
AcDbEntity
  8
Layer_1
 62
7
100
AcDbLine
 10
492.760480
 20
223.465038
 30
0.0
 11
492.707563
 21
229.476371
 31
0.0
  0
LINE
  5
13a
100
AcDbEntity
  8
Layer_1
 62
7
100
AcDbLine
 10
492.707563
 20
229.476371
 30
0.0
 11
492.612313
 21
235.487705
 31
0.0
  0
LINE
  5
13b
100
AcDbEntity
  8
Layer_1
 62
7
100
AcDbLine
 10
492.612313
 20
235.487705
 30
0.0
 11
492.485313
 21
241.499038
 31
0.0
  0
LINE
  5
13c
100
AcDbEntity
  8
Layer_1
 62
7
100
AcDbLine
 10
492.485313
 20
241.499038
 30
0.0
 11
492.411230
 21
244.504705
 31
0.0
  0
LINE
  5
13d
100
AcDbEntity
  8
Layer_1
 62
7
100
AcDbLine
 10
492.411230
 20
244.504705
 30
0.0
 11
492.315980
 21
247.510371
 31
0.0
  0
LINE
  5
13e
100
AcDbEntity
  8
Layer_1
 62
7
100
AcDbLine
 10
492.315980
 20
247.510371
 30
0.0
 11
492.104313
 21
253.521705
 31
0.0
  0
LINE
  5
13f
100
AcDbEntity
  8
Layer_1
 62
7
100
AcDbLine
 10
492.104313
 20
253.521705
 30
0.0
 11
491.860896
 21
259.533038
 31
0.0
  0
LINE
  5
140
100
AcDbEntity
  8
Layer_1
 62
7
100
AcDbLine
 10
491.860896
 20
259.533038
 30
0.0
 11
491.575146
 21
265.544371
 31
0.0
  0
LINE
  5
141
100
AcDbEntity
  8
Layer_1
 62
7
100
AcDbLine
 10
491.575146
 20
265.544371
 30
0.0
 11
491.416396
 21
268.550038
 31
0.0
  0
LINE
  5
142
100
AcDbEntity
  8
Layer_1
 62
7
100
AcDbLine
 10
491.416396
 20
268.550038
 30
0.0
 11
491.236480
 21
271.545120
 31
0.0
  0
LINE
  5
143
100
AcDbEntity
  8
Layer_1
 62
7
100
AcDbLine
 10
491.236480
 20
271.545120
 30
0.0
 11
491.035396
 21
274.550786
 31
0.0
  0
LINE
  5
144
100
AcDbEntity
  8
Layer_1
 62
7
100
AcDbLine
 10
491.035396
 20
274.550786
 30
0.0
 11
490.813146
 21
277.545869
 31
0.0
  0
LINE
  5
145
100
AcDbEntity
  8
Layer_1
 62
7
100
AcDbLine
 10
490.813146
 20
277.545869
 30
0.0
 11
490.559146
 21
280.551536
 31
0.0
  0
LINE
  5
146
100
AcDbEntity
  8
Layer_1
 62
7
100
AcDbLine
 10
490.559146
 20
280.551536
 30
0.0
 11
490.273396
 21
283.536036
 31
0.0
  0
LINE
  5
147
100
AcDbEntity
  8
Layer_1
 62
7
100
AcDbLine
 10
490.273396
 20
283.536036
 30
0.0
 11
489.966480
 21
286.531119
 31
0.0
  0
LINE
  5
148
100
AcDbEntity
  8
Layer_1
 62
7
100
AcDbLine
 10
489.966480
 20
286.531119
 30
0.0
 11
489.627813
 21
289.526202
 31
0.0
  0
LINE
  5
149
100
AcDbEntity
  8
Layer_1
 62
7
100
AcDbLine
 10
489.627813
 20
289.526202
 30
0.0
 11
489.257396
 21
292.510702
 31
0.0
  0
LINE
  5
14a
100
AcDbEntity
  8
Layer_1
 62
7
100
AcDbLine
 10
489.257396
 20
292.510702
 30
0.0
 11
488.855230
 21
295.484619
 31
0.0
  0
LINE
  5
14b
100
AcDbEntity
  8
Layer_1
 62
7
100
AcDbLine
 10
488.855230
 20
295.484619
 30
0.0
 11
488.431896
 21
298.469119
 31
0.0
  0
LINE
  5
14c
100
AcDbEntity
  8
Layer_1
 62
7
100
AcDbLine
 10
488.431896
 20
298.469119
 30
0.0
 11
487.976813
 21
301.443036
 31
0.0
  0
LINE
  5
14d
100
AcDbEntity
  8
Layer_1
 62
7
100
AcDbLine
 10
487.976813
 20
301.443036
 30
0.0
 11
487.500563
 21
304.406369
 31
0.0
  0
LINE
  5
14e
100
AcDbEntity
  8
Layer_1
 62
7
100
AcDbLine
 10
487.500563
 20
304.406369
 30
0.0
 11
487.003146
 21
307.380286
 31
0.0
  0
LINE
  5
14f
100
AcDbEntity
  8
Layer_1
 62
7
100
AcDbLine
 10
487.003146
 20
307.380286
 30
0.0
 11
486.473980
 21
310.333036
 31
0.0
  0
LINE
  5
150
100
AcDbEntity
  8
Layer_1
 62
7
100
AcDbLine
 10
486.473980
 20
310.333036
 30
0.0
 11
485.923646
 21
313.296369
 31
0.0
  0
LINE
  5
151
100
AcDbEntity
  8
Layer_1
 62
7
100
AcDbLine
 10
485.923646
 20
313.296369
 30
0.0
 11
485.341563
 21
316.249119
 31
0.0
  0
LINE
  5
152
100
AcDbEntity
  8
Layer_1
 62
7
100
AcDbLine
 10
485.341563
 20
316.249119
 30
0.0
 11
484.727730
 21
319.191286
 31
0.0
  0
LINE
  5
153
100
AcDbEntity
  8
Layer_1
 62
7
100
AcDbLine
 10
484.727730
 20
319.191286
 30
0.0
 11
484.092730
 21
322.133452
 31
0.0
  0
LINE
  5
154
100
AcDbEntity
  8
Layer_1
 62
7
100
AcDbLine
 10
484.092730
 20
322.133452
 30
0.0
 11
483.425980
 21
325.065036
 31
0.0
  0
LINE
  5
155
100
AcDbEntity
  8
Layer_1
 62
7
100
AcDbLine
 10
483.425980
 20
325.065036
 30
0.0
 11
482.738063
 21
327.996619
 31
0.0
  0
LINE
  5
156
100
AcDbEntity
  8
Layer_1
 62
7
100
AcDbLine
 10
482.738063
 20
327.996619
 30
0.0
 11
482.007813
 21
330.907038
 31
0.0
  0
LINE
  5
157
100
AcDbEntity
  8
Layer_1
 62
7
100
AcDbLine
 10
482.007813
 20
330.907038
 30
0.0
 11
481.245813
 21
333.817455
 31
0.0
  0
LINE
  5
158
100
AcDbEntity
  8
Layer_1
 62
7
100
AcDbLine
 10
481.245813
 20
333.817455
 30
0.0
 11
480.441480
 21
336.717288
 31
0.0
  0
LINE
  5
159
100
AcDbEntity
  8
Layer_1
 62
7
100
AcDbLine
 10
480.441480
 20
336.717288
 30
0.0
 11
480.018146
 21
338.167205
 31
0.0
  0
LINE
  5
15a
100
AcDbEntity
  8
Layer_1
 62
7
100
AcDbLine
 10
480.018146
 20
338.167205
 30
0.0
 11
479.594813
 21
339.606538
 31
0.0
  0
LINE
  5
15b
100
AcDbEntity
  8
Layer_1
 62
7
100
AcDbLine
 10
479.594813
 20
339.606538
 30
0.0
 11
479.160896
 21
341.045871
 31
0.0
  0
LINE
  5
15c
100
AcDbEntity
  8
Layer_1
 62
7
100
AcDbLine
 10
479.160896
 20
341.045871
 30
0.0
 11
478.705813
 21
342.485205
 31
0.0
  0
LINE
  5
15d
100
AcDbEntity
  8
Layer_1
 62
7
100
AcDbLine
 10
478.705813
 20
342.485205
 30
0.0
 11
478.240146
 21
343.913955
 31
0.0
  0
LINE
  5
15e
100
AcDbEntity
  8
Layer_1
 62
7
100
AcDbLine
 10
478.240146
 20
343.913955
 30
0.0
 11
477.763896
 21
345.342705
 31
0.0
  0
LINE
  5
15f
100
AcDbEntity
  8
Layer_1
 62
7
100
AcDbLine
 10
477.763896
 20
345.342705
 30
0.0
 11
477.277063
 21
346.760871
 31
0.0
  0
LINE
  5
160
100
AcDbEntity
  8
Layer_1
 62
7
100
AcDbLine
 10
477.277063
 20
346.760871
 30
0.0
 11
476.779646
 21
348.179038
 31
0.0
  0
LINE
  5
161
100
AcDbEntity
  8
Layer_1
 62
7
100
AcDbLine
 10
476.779646
 20
348.179038
 30
0.0
 11
476.261063
 21
349.597202
 31
0.0
  0
LINE
  5
162
100
AcDbEntity
  8
Layer_1
 62
7
100
AcDbLine
 10
476.261063
 20
349.597202
 30
0.0
 11
475.731896
 21
350.994202
 31
0.0
  0
LINE
  5
163
100
AcDbEntity
  8
Layer_1
 62
7
100
AcDbLine
 10
475.731896
 20
350.994202
 30
0.0
 11
475.181563
 21
352.401785
 31
0.0
  0
LINE
  5
164
100
AcDbEntity
  8
Layer_1
 62
7
100
AcDbLine
 10
475.181563
 20
352.401785
 30
0.0
 11
474.610063
 21
353.788202
 31
0.0
  0
LINE
  5
165
100
AcDbEntity
  8
Layer_1
 62
7
100
AcDbLine
 10
474.610063
 20
353.788202
 30
0.0
 11
474.027980
 21
355.174619
 31
0.0
  0
LINE
  5
166
100
AcDbEntity
  8
Layer_1
 62
7
100
AcDbLine
 10
474.027980
 20
355.174619
 30
0.0
 11
473.414146
 21
356.550452
 31
0.0
  0
LINE
  5
167
100
AcDbEntity
  8
Layer_1
 62
7
100
AcDbLine
 10
473.414146
 20
356.550452
 30
0.0
 11
472.779146
 21
357.915702
 31
0.0
  0
LINE
  5
168
100
AcDbEntity
  8
Layer_1
 62
7
100
AcDbLine
 10
472.779146
 20
357.915702
 30
0.0
 11
472.122980
 21
359.280952
 31
0.0
  0
LINE
  5
169
100
AcDbEntity
  8
Layer_1
 62
7
100
AcDbLine
 10
472.122980
 20
359.280952
 30
0.0
 11
471.445646
 21
360.625035
 31
0.0
  0
LINE
  5
16a
100
AcDbEntity
  8
Layer_1
 62
7
100
AcDbLine
 10
471.445646
 20
360.625035
 30
0.0
 11
470.736563
 21
361.958535
 31
0.0
  0
LINE
  5
16b
100
AcDbEntity
  8
Layer_1
 62
7
100
AcDbLine
 10
470.736563
 20
361.958535
 30
0.0
 11
469.995730
 21
363.270869
 31
0.0
  0
LINE
  5
16c
100
AcDbEntity
  8
Layer_1
 62
7
100
AcDbLine
 10
469.995730
 20
363.270869
 30
0.0
 11
469.604146
 21
363.927035
 31
0.0
  0
LINE
  5
16d
100
AcDbEntity
  8
Layer_1
 62
7
100
AcDbLine
 10
469.604146
 20
363.927035
 30
0.0
 11
469.212563
 21
364.562035
 31
0.0
  0
LINE
  5
16e
100
AcDbEntity
  8
Layer_1
 62
7
100
AcDbLine
 10
469.212563
 20
364.562035
 30
0.0
 11
468.810396
 21
365.197035
 31
0.0
  0
LINE
  5
16f
100
AcDbEntity
  8
Layer_1
 62
7
100
AcDbLine
 10
468.810396
 20
365.197035
 30
0.0
 11
468.397646
 21
365.832035
 31
0.0
  0
LINE
  5
170
100
AcDbEntity
  8
Layer_1
 62
7
100
AcDbLine
 10
468.397646
 20
365.832035
 30
0.0
 11
467.963730
 21
366.445869
 31
0.0
  0
LINE
  5
171
100
AcDbEntity
  8
Layer_1
 62
7
100
AcDbLine
 10
467.963730
 20
366.445869
 30
0.0
 11
467.529813
 21
367.059702
 31
0.0
  0
LINE
  5
172
100
AcDbEntity
  8
Layer_1
 62
7
100
AcDbLine
 10
467.529813
 20
367.059702
 30
0.0
 11
467.074730
 21
367.662952
 31
0.0
  0
LINE
  5
173
100
AcDbEntity
  8
Layer_1
 62
7
100
AcDbLine
 10
467.074730
 20
367.662952
 30
0.0
 11
466.609063
 21
368.255619
 31
0.0
  0
LINE
  5
174
100
AcDbEntity
  8
Layer_1
 62
7
100
AcDbLine
 10
466.609063
 20
368.255619
 30
0.0
 11
466.132813
 21
368.837702
 31
0.0
  0
LINE
  5
175
100
AcDbEntity
  8
Layer_1
 62
7
100
AcDbLine
 10
466.132813
 20
368.837702
 30
0.0
 11
465.645980
 21
369.409202
 31
0.0
  0
LINE
  5
176
100
AcDbEntity
  8
Layer_1
 62
7
100
AcDbLine
 10
465.645980
 20
369.409202
 30
0.0
 11
465.137980
 21
369.970119
 31
0.0
  0
LINE
  5
177
100
AcDbEntity
  8
Layer_1
 62
7
100
AcDbLine
 10
465.137980
 20
369.970119
 30
0.0
 11
464.619396
 21
370.509869
 31
0.0
  0
LINE
  5
178
100
AcDbEntity
  8
Layer_1
 62
7
100
AcDbLine
 10
464.619396
 20
370.509869
 30
0.0
 11
464.069063
 21
371.039035
 31
0.0
  0
LINE
  5
179
100
AcDbEntity
  8
Layer_1
 62
7
100
AcDbLine
 10
464.069063
 20
371.039035
 30
0.0
 11
463.518730
 21
371.547035
 31
0.0
  0
LINE
  5
17a
100
AcDbEntity
  8
Layer_1
 62
7
100
AcDbLine
 10
463.518730
 20
371.547035
 30
0.0
 11
462.936646
 21
372.023285
 31
0.0
  0
LINE
  5
17b
100
AcDbEntity
  8
Layer_1
 62
7
100
AcDbLine
 10
462.936646
 20
372.023285
 30
0.0
 11
462.343980
 21
372.488952
 31
0.0
  0
LINE
  5
17c
100
AcDbEntity
  8
Layer_1
 62
7
100
AcDbLine
 10
462.343980
 20
372.488952
 30
0.0
 11
461.719563
 21
372.922869
 31
0.0
  0
LINE
  5
17d
100
AcDbEntity
  8
Layer_1
 62
7
100
AcDbLine
 10
461.719563
 20
372.922869
 30
0.0
 11
461.073980
 21
373.314452
 31
0.0
  0
LINE
  5
17e
100
AcDbEntity
  8
Layer_1
 62
7
100
AcDbLine
 10
461.073980
 20
373.314452
 30
0.0
 11
460.745896
 21
373.504952
 31
0.0
  0
LINE
  5
17f
100
AcDbEntity
  8
Layer_1
 62
7
100
AcDbLine
 10
460.745896
 20
373.504952
 30
0.0
 11
460.417813
 21
373.684869
 31
0.0
  0
LINE
  5
180
100
AcDbEntity
  8
Layer_1
 62
7
100
AcDbLine
 10
460.417813
 20
373.684869
 30
0.0
 11
460.079146
 21
373.854202
 31
0.0
  0
LINE
  5
181
100
AcDbEntity
  8
Layer_1
 62
7
100
AcDbLine
 10
460.079146
 20
373.854202
 30
0.0
 11
459.729896
 21
374.002369
 31
0.0
  0
LINE
  5
182
100
AcDbEntity
  8
Layer_1
 62
7
100
AcDbLine
 10
459.729896
 20
374.002369
 30
0.0
 11
459.380646
 21
374.150535
 31
0.0
  0
LINE
  5
183
100
AcDbEntity
  8
Layer_1
 62
7
100
AcDbLine
 10
459.380646
 20
374.150535
 30
0.0
 11
459.031396
 21
374.277535
 31
0.0
  0
LINE
  5
184
100
AcDbEntity
  8
Layer_1
 62
7
100
AcDbLine
 10
459.031396
 20
374.277535
 30
0.0
 11
458.671563
 21
374.393952
 31
0.0
  0
LINE
  5
185
100
AcDbEntity
  8
Layer_1
 62
7
100
AcDbLine
 10
458.671563
 20
374.393952
 30
0.0
 11
458.311730
 21
374.499785
 31
0.0
  0
LINE
  5
186
100
AcDbEntity
  8
Layer_1
 62
7
100
AcDbLine
 10
458.311730
 20
374.499785
 30
0.0
 11
457.951896
 21
374.595035
 31
0.0
  0
LINE
  5
187
100
AcDbEntity
  8
Layer_1
 62
7
100
AcDbLine
 10
457.951896
 20
374.595035
 30
0.0
 11
457.581480
 21
374.669119
 31
0.0
  0
LINE
  5
188
100
AcDbEntity
  8
Layer_1
 62
7
100
AcDbLine
 10
457.581480
 20
374.669119
 30
0.0
 11
457.211063
 21
374.722035
 31
0.0
  0
LINE
  5
189
100
AcDbEntity
  8
Layer_1
 62
7
100
AcDbLine
 10
457.211063
 20
374.722035
 30
0.0
 11
456.840646
 21
374.774952
 31
0.0
  0
LINE
  5
18a
100
AcDbEntity
  8
Layer_1
 62
7
100
AcDbLine
 10
456.840646
 20
374.774952
 30
0.0
 11
456.089230
 21
374.838452
 31
0.0
  0
LINE
  5
18b
100
AcDbEntity
  8
Layer_1
 62
7
100
AcDbLine
 10
456.089230
 20
374.838452
 30
0.0
 11
455.327230
 21
374.870202
 31
0.0
  0
LINE
  5
18c
100
AcDbEntity
  8
Layer_1
 62
7
100
AcDbLine
 10
455.327230
 20
374.870202
 30
0.0
 11
454.575813
 21
374.870202
 31
0.0
  0
LINE
  5
18d
100
AcDbEntity
  8
Layer_1
 62
7
100
AcDbLine
 10
454.575813
 20
374.870202
 30
0.0
 11
453.813813
 21
374.838452
 31
0.0
  0
LINE
  5
18e
100
AcDbEntity
  8
Layer_1
 62
7
100
AcDbLine
 10
453.813813
 20
374.838452
 30
0.0
 11
453.051813
 21
374.785535
 31
0.0
  0
LINE
  5
18f
100
AcDbEntity
  8
Layer_1
 62
7
100
AcDbLine
 10
453.051813
 20
374.785535
 30
0.0
 11
452.300396
 21
374.711452
 31
0.0
  0
LINE
  5
190
100
AcDbEntity
  8
Layer_1
 62
7
100
AcDbLine
 10
452.300396
 20
374.711452
 30
0.0
 11
451.548980
 21
374.595035
 31
0.0
  0
LINE
  5
191
100
AcDbEntity
  8
Layer_1
 62
7
100
AcDbLine
 10
451.548980
 20
374.595035
 30
0.0
 11
451.178563
 21
374.520952
 31
0.0
  0
LINE
  5
192
100
AcDbEntity
  8
Layer_1
 62
7
100
AcDbLine
 10
451.178563
 20
374.520952
 30
0.0
 11
450.818730
 21
374.436285
 31
0.0
  0
LINE
  5
193
100
AcDbEntity
  8
Layer_1
 62
7
100
AcDbLine
 10
450.818730
 20
374.436285
 30
0.0
 11
450.448313
 21
374.351619
 31
0.0
  0
LINE
  5
194
100
AcDbEntity
  8
Layer_1
 62
7
100
AcDbLine
 10
450.448313
 20
374.351619
 30
0.0
 11
450.088480
 21
374.245785
 31
0.0
  0
LINE
  5
195
100
AcDbEntity
  8
Layer_1
 62
7
100
AcDbLine
 10
450.088480
 20
374.245785
 30
0.0
 11
449.739230
 21
374.129369
 31
0.0
  0
LINE
  5
196
100
AcDbEntity
  8
Layer_1
 62
7
100
AcDbLine
 10
449.739230
 20
374.129369
 30
0.0
 11
449.379396
 21
374.002369
 31
0.0
  0
LINE
  5
197
100
AcDbEntity
  8
Layer_1
 62
7
100
AcDbLine
 10
449.379396
 20
374.002369
 30
0.0
 11
449.040730
 21
373.854202
 31
0.0
  0
LINE
  5
198
100
AcDbEntity
  8
Layer_1
 62
7
100
AcDbLine
 10
449.040730
 20
373.854202
 30
0.0
 11
448.691480
 21
373.706035
 31
0.0
  0
LINE
  5
199
100
AcDbEntity
  8
Layer_1
 62
7
100
AcDbLine
 10
448.691480
 20
373.706035
 30
0.0
 11
448.352813
 21
373.536702
 31
0.0
  0
LINE
  5
19a
100
AcDbEntity
  8
Layer_1
 62
7
100
AcDbLine
 10
448.352813
 20
373.536702
 30
0.0
 11
448.024730
 21
373.356785
 31
0.0
  0
LINE
  5
19b
100
AcDbEntity
  8
Layer_1
 62
7
100
AcDbLine
 10
448.024730
 20
373.356785
 30
0.0
 11
447.696646
 21
373.166285
 31
0.0
  0
LINE
  5
19c
100
AcDbEntity
  8
Layer_1
 62
7
100
AcDbLine
 10
447.696646
 20
373.166285
 30
0.0
 11
447.368563
 21
372.965202
 31
0.0
  0
LINE
  5
19d
100
AcDbEntity
  8
Layer_1
 62
7
100
AcDbLine
 10
447.368563
 20
372.965202
 30
0.0
 11
447.061646
 21
372.753535
 31
0.0
  0
LINE
  5
19e
100
AcDbEntity
  8
Layer_1
 62
7
100
AcDbLine
 10
447.061646
 20
372.753535
 30
0.0
 11
446.744146
 21
372.541869
 31
0.0
  0
LINE
  5
19f
100
AcDbEntity
  8
Layer_1
 62
7
100
AcDbLine
 10
446.744146
 20
372.541869
 30
0.0
 11
446.447813
 21
372.309035
 31
0.0
  0
LINE
  5
1a0
100
AcDbEntity
  8
Layer_1
 62
7
100
AcDbLine
 10
446.447813
 20
372.309035
 30
0.0
 11
446.140896
 21
372.076202
 31
0.0
  0
LINE
  5
1a1
100
AcDbEntity
  8
Layer_1
 62
7
100
AcDbLine
 10
446.140896
 20
372.076202
 30
0.0
 11
445.569396
 21
371.578785
 31
0.0
  0
LINE
  5
1a2
100
AcDbEntity
  8
Layer_1
 62
7
100
AcDbLine
 10
445.569396
 20
371.578785
 30
0.0
 11
445.029646
 21
371.049619
 31
0.0
  0
LINE
  5
1a3
100
AcDbEntity
  8
Layer_1
 62
7
100
AcDbLine
 10
445.029646
 20
371.049619
 30
0.0
 11
444.511063
 21
370.499285
 31
0.0
  0
LINE
  5
1a4
100
AcDbEntity
  8
Layer_1
 62
7
100
AcDbLine
 10
444.511063
 20
370.499285
 30
0.0
 11
444.013646
 21
369.917202
 31
0.0
  0
LINE
  5
1a5
100
AcDbEntity
  8
Layer_1
 62
7
100
AcDbLine
 10
444.013646
 20
369.917202
 30
0.0
 11
443.558563
 21
369.324535
 31
0.0
  0
LINE
  5
1a6
100
AcDbEntity
  8
Layer_1
 62
7
100
AcDbLine
 10
443.558563
 20
369.324535
 30
0.0
 11
443.114063
 21
368.710702
 31
0.0
  0
LINE
  5
1a7
100
AcDbEntity
  8
Layer_1
 62
7
100
AcDbLine
 10
443.114063
 20
368.710702
 30
0.0
 11
442.701313
 21
368.086285
 31
0.0
  0
LINE
  5
1a8
100
AcDbEntity
  8
Layer_1
 62
7
100
AcDbLine
 10
442.701313
 20
368.086285
 30
0.0
 11
442.299146
 21
367.440702
 31
0.0
  0
LINE
  5
1a9
100
AcDbEntity
  8
Layer_1
 62
7
100
AcDbLine
 10
442.299146
 20
367.440702
 30
0.0
 11
441.928730
 21
366.784535
 31
0.0
  0
LINE
  5
1aa
100
AcDbEntity
  8
Layer_1
 62
7
100
AcDbLine
 10
441.928730
 20
366.784535
 30
0.0
 11
441.568896
 21
366.117785
 31
0.0
  0
LINE
  5
1ab
100
AcDbEntity
  8
Layer_1
 62
7
100
AcDbLine
 10
441.568896
 20
366.117785
 30
0.0
 11
441.230230
 21
365.451035
 31
0.0
  0
LINE
  5
1ac
100
AcDbEntity
  8
Layer_1
 62
7
100
AcDbLine
 10
441.230230
 20
365.451035
 30
0.0
 11
440.912730
 21
364.763119
 31
0.0
  0
LINE
  5
1ad
100
AcDbEntity
  8
Layer_1
 62
7
100
AcDbLine
 10
440.912730
 20
364.763119
 30
0.0
 11
440.605813
 21
364.075202
 31
0.0
  0
LINE
  5
1ae
100
AcDbEntity
  8
Layer_1
 62
7
100
AcDbLine
 10
440.605813
 20
364.075202
 30
0.0
 11
440.320063
 21
363.387285
 31
0.0
  0
LINE
  5
1af
100
AcDbEntity
  8
Layer_1
 62
7
100
AcDbLine
 10
440.320063
 20
363.387285
 30
0.0
 11
440.044896
 21
362.678202
 31
0.0
  0
LINE
  5
1b0
100
AcDbEntity
  8
Layer_1
 62
7
100
AcDbLine
 10
440.044896
 20
362.678202
 30
0.0
 11
439.780313
 21
361.979702
 31
0.0
  0
LINE
  5
1b1
100
AcDbEntity
  8
Layer_1
 62
7
100
AcDbLine
 10
439.780313
 20
361.979702
 30
0.0
 11
439.526313
 21
361.270619
 31
0.0
  0
LINE
  5
1b2
100
AcDbEntity
  8
Layer_1
 62
7
100
AcDbLine
 10
439.526313
 20
361.270619
 30
0.0
 11
439.293480
 21
360.550952
 31
0.0
  0
LINE
  5
1b3
100
AcDbEntity
  8
Layer_1
 62
7
100
AcDbLine
 10
439.293480
 20
360.550952
 30
0.0
 11
439.071230
 21
359.831285
 31
0.0
  0
LINE
  5
1b4
100
AcDbEntity
  8
Layer_1
 62
7
100
AcDbLine
 10
439.071230
 20
359.831285
 30
0.0
 11
438.859563
 21
359.101035
 31
0.0
  0
LINE
  5
1b5
100
AcDbEntity
  8
Layer_1
 62
7
100
AcDbLine
 10
438.859563
 20
359.101035
 30
0.0
 11
438.647896
 21
358.381369
 31
0.0
  0
LINE
  5
1b6
100
AcDbEntity
  8
Layer_1
 62
7
100
AcDbLine
 10
438.647896
 20
358.381369
 30
0.0
 11
438.277480
 21
356.920869
 31
0.0
  0
LINE
  5
1b7
100
AcDbEntity
  8
Layer_1
 62
7
100
AcDbLine
 10
438.277480
 20
356.920869
 30
0.0
 11
437.928230
 21
355.449785
 31
0.0
  0
LINE
  5
1b8
100
AcDbEntity
  8
Layer_1
 62
7
100
AcDbLine
 10
437.928230
 20
355.449785
 30
0.0
 11
437.610730
 21
353.968119
 31
0.0
  0
LINE
  5
1b9
100
AcDbEntity
  8
Layer_1
 62
7
100
AcDbLine
 10
437.610730
 20
353.968119
 30
0.0
 11
437.324980
 21
352.486452
 31
0.0
  0
LINE
  5
1ba
100
AcDbEntity
  8
Layer_1
 62
7
100
AcDbLine
 10
437.324980
 20
352.486452
 30
0.0
 11
437.060396
 21
351.004785
 31
0.0
  0
LINE
  5
1bb
100
AcDbEntity
  8
Layer_1
 62
7
100
AcDbLine
 10
437.060396
 20
351.004785
 30
0.0
 11
436.816980
 21
349.523119
 31
0.0
  0
LINE
  5
1bc
100
AcDbEntity
  8
Layer_1
 62
7
100
AcDbLine
 10
436.816980
 20
349.523119
 30
0.0
 11
436.594730
 21
348.030871
 31
0.0
  0
LINE
  5
1bd
100
AcDbEntity
  8
Layer_1
 62
7
100
AcDbLine
 10
436.594730
 20
348.030871
 30
0.0
 11
436.383063
 21
346.538621
 31
0.0
  0
LINE
  5
1be
100
AcDbEntity
  8
Layer_1
 62
7
100
AcDbLine
 10
436.383063
 20
346.538621
 30
0.0
 11
436.203146
 21
345.046371
 31
0.0
  0
LINE
  5
1bf
100
AcDbEntity
  8
Layer_1
 62
7
100
AcDbLine
 10
436.203146
 20
345.046371
 30
0.0
 11
436.033813
 21
343.554121
 31
0.0
  0
LINE
  5
1c0
100
AcDbEntity
  8
Layer_1
 62
7
100
AcDbLine
 10
436.033813
 20
343.554121
 30
0.0
 11
435.875063
 21
342.061871
 31
0.0
  0
LINE
  5
1c1
100
AcDbEntity
  8
Layer_1
 62
7
100
AcDbLine
 10
435.875063
 20
342.061871
 30
0.0
 11
435.737480
 21
340.569621
 31
0.0
  0
LINE
  5
1c2
100
AcDbEntity
  8
Layer_1
 62
7
100
AcDbLine
 10
435.737480
 20
340.569621
 30
0.0
 11
435.610480
 21
339.066788
 31
0.0
  0
LINE
  5
1c3
100
AcDbEntity
  8
Layer_1
 62
7
100
AcDbLine
 10
435.610480
 20
339.066788
 30
0.0
 11
435.388230
 21
336.071705
 31
0.0
  0
LINE
  5
1c4
100
AcDbEntity
  8
Layer_1
 62
7
100
AcDbLine
 10
435.388230
 20
336.071705
 30
0.0
 11
435.197730
 21
333.066038
 31
0.0
  0
LINE
  5
1c5
100
AcDbEntity
  8
Layer_1
 62
7
100
AcDbLine
 10
435.197730
 20
333.066038
 30
0.0
 11
435.049563
 21
330.060369
 31
0.0
  0
LINE
  5
1c6
100
AcDbEntity
  8
Layer_1
 62
7
100
AcDbLine
 10
435.049563
 20
330.060369
 30
0.0
 11
434.922563
 21
327.054702
 31
0.0
  0
LINE
  5
1c7
100
AcDbEntity
  8
Layer_1
 62
7
100
AcDbLine
 10
434.922563
 20
327.054702
 30
0.0
 11
434.827313
 21
324.049036
 31
0.0
  0
LINE
  5
1c8
100
AcDbEntity
  8
Layer_1
 62
7
100
AcDbLine
 10
434.827313
 20
324.049036
 30
0.0
 11
434.753230
 21
321.043369
 31
0.0
  0
LINE
  5
1c9
100
AcDbEntity
  8
Layer_1
 62
7
100
AcDbLine
 10
434.753230
 20
321.043369
 30
0.0
 11
434.689730
 21
318.037702
 31
0.0
  0
LINE
  5
1ca
100
AcDbEntity
  8
Layer_1
 62
7
100
AcDbLine
 10
434.689730
 20
318.037702
 30
0.0
 11
434.657980
 21
315.032036
 31
0.0
  0
LINE
  5
1cb
100
AcDbEntity
  8
Layer_1
 62
7
100
AcDbLine
 10
434.657980
 20
315.032036
 30
0.0
 11
434.626230
 21
312.026369
 31
0.0
  0
LINE
  5
1cc
100
AcDbEntity
  8
Layer_1
 62
7
100
AcDbLine
 10
434.626230
 20
312.026369
 30
0.0
 11
434.615505
 21
306.004452
 31
0.0
  0
LINE
  5
1cd
100
AcDbEntity
  8
Layer_1
 62
7
100
AcDbLine
 10
434.615505
 20
306.004452
 30
0.0
 11
444.775505
 21
306.004452
 31
0.0
  0
LINE
  5
1ce
100
AcDbEntity
  8
Layer_1
 62
7
100
AcDbLine
 10
444.775505
 20
306.004452
 30
0.0
 11
444.775505
 21
219.104691
 31
0.0
  0
LINE
  5
1cf
100
AcDbEntity
  8
Layer_1
 62
7
100
AcDbLine
 10
444.775505
 20
219.104691
 30
0.0
 11
470.799922
 21
219.104691
 31
0.0
  0
LINE
  5
1d0
100
AcDbEntity
  8
Layer_1
 62
7
100
AcDbLine
 10
470.799922
 20
219.104691
 30
0.0
 11
470.799922
 21
171.617274
 31
0.0
  0
LINE
  5
1d1
100
AcDbEntity
  8
Layer_1
 62
7
100
AcDbLine
 10
470.799922
 20
171.617274
 30
0.0
 11
444.775505
 21
171.617274
 31
0.0
  0
LINE
  5
1d2
100
AcDbEntity
  8
Layer_1
 62
7
100
AcDbLine
 10
444.775505
 20
171.617274
 30
0.0
 11
444.775505
 21
79.298869
 31
0.0
  0
LINE
  5
1d3
100
AcDbEntity
  8
Layer_1
 62
7
100
AcDbLine
 10
392.637377
 20
225.643156
 30
0.0
 11
392.637377
 21
308.224905
 31
0.0
  0
LINE
  5
1d4
100
AcDbEntity
  8
Layer_1
 62
7
100
AcDbLine
 10
392.637377
 20
308.224905
 30
0.0
 11
387.557377
 21
308.224905
 31
0.0
  0
LINE
  5
1d5
100
AcDbEntity
  8
Layer_1
 62
7
100
AcDbLine
 10
387.557377
 20
308.224905
 30
0.0
 11
387.525627
 21
315.283988
 31
0.0
  0
LINE
  5
1d6
100
AcDbEntity
  8
Layer_1
 62
7
100
AcDbLine
 10
387.525627
 20
315.283988
 30
0.0
 11
387.515185
 21
318.818821
 31
0.0
  0
LINE
  5
1d7
100
AcDbEntity
  8
Layer_1
 62
7
100
AcDbLine
 10
387.515185
 20
318.818821
 30
0.0
 11
387.525627
 21
322.343071
 31
0.0
  0
LINE
  5
1d8
100
AcDbEntity
  8
Layer_1
 62
7
100
AcDbLine
 10
387.525627
 20
322.343071
 30
0.0
 11
387.557377
 21
325.877906
 31
0.0
  0
LINE
  5
1d9
100
AcDbEntity
  8
Layer_1
 62
7
100
AcDbLine
 10
387.557377
 20
325.877906
 30
0.0
 11
387.631460
 21
329.402156
 31
0.0
  0
LINE
  5
1da
100
AcDbEntity
  8
Layer_1
 62
7
100
AcDbLine
 10
387.631460
 20
329.402156
 30
0.0
 11
387.684377
 21
331.169572
 31
0.0
  0
LINE
  5
1db
100
AcDbEntity
  8
Layer_1
 62
7
100
AcDbLine
 10
387.684377
 20
331.169572
 30
0.0
 11
387.747877
 21
332.936989
 31
0.0
  0
LINE
  5
1dc
100
AcDbEntity
  8
Layer_1
 62
7
100
AcDbLine
 10
387.747877
 20
332.936989
 30
0.0
 11
387.821960
 21
334.693822
 31
0.0
  0
LINE
  5
1dd
100
AcDbEntity
  8
Layer_1
 62
7
100
AcDbLine
 10
387.821960
 20
334.693822
 30
0.0
 11
387.917210
 21
336.461239
 31
0.0
  0
LINE
  5
1de
100
AcDbEntity
  8
Layer_1
 62
7
100
AcDbLine
 10
387.917210
 20
336.461239
 30
0.0
 11
388.012460
 21
338.218072
 31
0.0
  0
LINE
  5
1df
100
AcDbEntity
  8
Layer_1
 62
7
100
AcDbLine
 10
388.012460
 20
338.218072
 30
0.0
 11
388.139460
 21
339.985489
 31
0.0
  0
LINE
  5
1e0
100
AcDbEntity
  8
Layer_1
 62
7
100
AcDbLine
 10
388.139460
 20
339.985489
 30
0.0
 11
388.266460
 21
341.742322
 31
0.0
  0
LINE
  5
1e1
100
AcDbEntity
  8
Layer_1
 62
7
100
AcDbLine
 10
388.266460
 20
341.742322
 30
0.0
 11
388.425210
 21
343.499153
 31
0.0
  0
LINE
  5
1e2
100
AcDbEntity
  8
Layer_1
 62
7
100
AcDbLine
 10
388.425210
 20
343.499153
 30
0.0
 11
388.605127
 21
345.255986
 31
0.0
  0
LINE
  5
1e3
100
AcDbEntity
  8
Layer_1
 62
7
100
AcDbLine
 10
388.605127
 20
345.255986
 30
0.0
 11
388.795627
 21
347.012820
 31
0.0
  0
LINE
  5
1e4
100
AcDbEntity
  8
Layer_1
 62
7
100
AcDbLine
 10
388.795627
 20
347.012820
 30
0.0
 11
389.017877
 21
348.759070
 31
0.0
  0
LINE
  5
1e5
100
AcDbEntity
  8
Layer_1
 62
7
100
AcDbLine
 10
389.017877
 20
348.759070
 30
0.0
 11
389.271877
 21
350.505320
 31
0.0
  0
LINE
  5
1e6
100
AcDbEntity
  8
Layer_1
 62
7
100
AcDbLine
 10
389.271877
 20
350.505320
 30
0.0
 11
389.557627
 21
352.251570
 31
0.0
  0
LINE
  5
1e7
100
AcDbEntity
  8
Layer_1
 62
7
100
AcDbLine
 10
389.557627
 20
352.251570
 30
0.0
 11
389.864544
 21
353.987236
 31
0.0
  0
LINE
  5
1e8
100
AcDbEntity
  8
Layer_1
 62
7
100
AcDbLine
 10
389.864544
 20
353.987236
 30
0.0
 11
390.213794
 21
355.722903
 31
0.0
  0
LINE
  5
1e9
100
AcDbEntity
  8
Layer_1
 62
7
100
AcDbLine
 10
390.213794
 20
355.722903
 30
0.0
 11
390.414877
 21
356.580153
 31
0.0
  0
LINE
  5
1ea
100
AcDbEntity
  8
Layer_1
 62
7
100
AcDbLine
 10
390.414877
 20
356.580153
 30
0.0
 11
390.615960
 21
357.437403
 31
0.0
  0
LINE
  5
1eb
100
AcDbEntity
  8
Layer_1
 62
7
100
AcDbLine
 10
390.615960
 20
357.437403
 30
0.0
 11
390.827627
 21
358.294653
 31
0.0
  0
LINE
  5
1ec
100
AcDbEntity
  8
Layer_1
 62
7
100
AcDbLine
 10
390.827627
 20
358.294653
 30
0.0
 11
391.060460
 21
359.151903
 31
0.0
  0
LINE
  5
1ed
100
AcDbEntity
  8
Layer_1
 62
7
100
AcDbLine
 10
391.060460
 20
359.151903
 30
0.0
 11
391.303877
 21
359.998570
 31
0.0
  0
LINE
  5
1ee
100
AcDbEntity
  8
Layer_1
 62
7
100
AcDbLine
 10
391.303877
 20
359.998570
 30
0.0
 11
391.568460
 21
360.845236
 31
0.0
  0
LINE
  5
1ef
100
AcDbEntity
  8
Layer_1
 62
7
100
AcDbLine
 10
391.568460
 20
360.845236
 30
0.0
 11
391.843627
 21
361.681320
 31
0.0
  0
LINE
  5
1f0
100
AcDbEntity
  8
Layer_1
 62
7
100
AcDbLine
 10
391.843627
 20
361.681320
 30
0.0
 11
392.139960
 21
362.517403
 31
0.0
  0
LINE
  5
1f1
100
AcDbEntity
  8
Layer_1
 62
7
100
AcDbLine
 10
392.139960
 20
362.517403
 30
0.0
 11
392.446877
 21
363.342903
 31
0.0
  0
LINE
  5
1f2
100
AcDbEntity
  8
Layer_1
 62
7
100
AcDbLine
 10
392.446877
 20
363.342903
 30
0.0
 11
392.785544
 21
364.157820
 31
0.0
  0
LINE
  5
1f3
100
AcDbEntity
  8
Layer_1
 62
7
100
AcDbLine
 10
392.785544
 20
364.157820
 30
0.0
 11
393.145377
 21
364.962153
 31
0.0
  0
LINE
  5
1f4
100
AcDbEntity
  8
Layer_1
 62
7
100
AcDbLine
 10
393.145377
 20
364.962153
 30
0.0
 11
393.536960
 21
365.755903
 31
0.0
  0
LINE
  5
1f5
100
AcDbEntity
  8
Layer_1
 62
7
100
AcDbLine
 10
393.536960
 20
365.755903
 30
0.0
 11
393.949710
 21
366.539070
 31
0.0
  0
LINE
  5
1f6
100
AcDbEntity
  8
Layer_1
 62
7
100
AcDbLine
 10
393.949710
 20
366.539070
 30
0.0
 11
394.394210
 21
367.301070
 31
0.0
  0
LINE
  5
1f7
100
AcDbEntity
  8
Layer_1
 62
7
100
AcDbLine
 10
394.394210
 20
367.301070
 30
0.0
 11
394.637627
 21
367.682070
 31
0.0
  0
LINE
  5
1f8
100
AcDbEntity
  8
Layer_1
 62
7
100
AcDbLine
 10
394.637627
 20
367.682070
 30
0.0
 11
394.881044
 21
368.052486
 31
0.0
  0
LINE
  5
1f9
100
AcDbEntity
  8
Layer_1
 62
7
100
AcDbLine
 10
394.881044
 20
368.052486
 30
0.0
 11
395.135044
 21
368.412320
 31
0.0
  0
LINE
  5
1fa
100
AcDbEntity
  8
Layer_1
 62
7
100
AcDbLine
 10
395.135044
 20
368.412320
 30
0.0
 11
395.399627
 21
368.772153
 31
0.0
  0
LINE
  5
1fb
100
AcDbEntity
  8
Layer_1
 62
7
100
AcDbLine
 10
395.399627
 20
368.772153
 30
0.0
 11
395.674794
 21
369.121403
 31
0.0
  0
LINE
  5
1fc
100
AcDbEntity
  8
Layer_1
 62
7
100
AcDbLine
 10
395.674794
 20
369.121403
 30
0.0
 11
395.960544
 21
369.460070
 31
0.0
  0
LINE
  5
1fd
100
AcDbEntity
  8
Layer_1
 62
7
100
AcDbLine
 10
395.960544
 20
369.460070
 30
0.0
 11
396.256877
 21
369.788153
 31
0.0
  0
LINE
  5
1fe
100
AcDbEntity
  8
Layer_1
 62
7
100
AcDbLine
 10
396.256877
 20
369.788153
 30
0.0
 11
396.563794
 21
370.105653
 31
0.0
  0
LINE
  5
1ff
100
AcDbEntity
  8
Layer_1
 62
7
100
AcDbLine
 10
396.563794
 20
370.105653
 30
0.0
 11
396.881294
 21
370.412570
 31
0.0
  0
LINE
  5
200
100
AcDbEntity
  8
Layer_1
 62
7
100
AcDbLine
 10
396.881294
 20
370.412570
 30
0.0
 11
397.219960
 21
370.698320
 31
0.0
  0
LINE
  5
201
100
AcDbEntity
  8
Layer_1
 62
7
100
AcDbLine
 10
397.219960
 20
370.698320
 30
0.0
 11
397.558627
 21
370.984070
 31
0.0
  0
LINE
  5
202
100
AcDbEntity
  8
Layer_1
 62
7
100
AcDbLine
 10
397.558627
 20
370.984070
 30
0.0
 11
397.918460
 21
371.248653
 31
0.0
  0
LINE
  5
203
100
AcDbEntity
  8
Layer_1
 62
7
100
AcDbLine
 10
397.918460
 20
371.248653
 30
0.0
 11
398.288877
 21
371.492070
 31
0.0
  0
LINE
  5
204
100
AcDbEntity
  8
Layer_1
 62
7
100
AcDbLine
 10
398.288877
 20
371.492070
 30
0.0
 11
398.669877
 21
371.724903
 31
0.0
  0
LINE
  5
205
100
AcDbEntity
  8
Layer_1
 62
7
100
AcDbLine
 10
398.669877
 20
371.724903
 30
0.0
 11
399.050877
 21
371.925986
 31
0.0
  0
LINE
  5
206
100
AcDbEntity
  8
Layer_1
 62
7
100
AcDbLine
 10
399.050877
 20
371.925986
 30
0.0
 11
399.453044
 21
372.116486
 31
0.0
  0
LINE
  5
207
100
AcDbEntity
  8
Layer_1
 62
7
100
AcDbLine
 10
399.453044
 20
372.116486
 30
0.0
 11
399.865794
 21
372.285820
 31
0.0
  0
LINE
  5
208
100
AcDbEntity
  8
Layer_1
 62
7
100
AcDbLine
 10
399.865794
 20
372.285820
 30
0.0
 11
400.278544
 21
372.433986
 31
0.0
  0
LINE
  5
209
100
AcDbEntity
  8
Layer_1
 62
7
100
AcDbLine
 10
400.278544
 20
372.433986
 30
0.0
 11
400.701877
 21
372.550403
 31
0.0
  0
LINE
  5
20a
100
AcDbEntity
  8
Layer_1
 62
7
100
AcDbLine
 10
400.701877
 20
372.550403
 30
0.0
 11
401.135794
 21
372.656236
 31
0.0
  0
LINE
  5
20b
100
AcDbEntity
  8
Layer_1
 62
7
100
AcDbLine
 10
401.135794
 20
372.656236
 30
0.0
 11
401.569710
 21
372.730320
 31
0.0
  0
LINE
  5
20c
100
AcDbEntity
  8
Layer_1
 62
7
100
AcDbLine
 10
401.569710
 20
372.730320
 30
0.0
 11
402.014210
 21
372.793820
 31
0.0
  0
LINE
  5
20d
100
AcDbEntity
  8
Layer_1
 62
7
100
AcDbLine
 10
402.014210
 20
372.793820
 30
0.0
 11
402.458710
 21
372.825570
 31
0.0
  0
LINE
  5
20e
100
AcDbEntity
  8
Layer_1
 62
7
100
AcDbLine
 10
402.458710
 20
372.825570
 30
0.0
 11
402.892627
 21
372.836012
 31
0.0
  0
LINE
  5
20f
100
AcDbEntity
  8
Layer_1
 62
7
100
AcDbLine
 10
402.892627
 20
372.836012
 30
0.0
 11
403.337127
 21
372.804262
 31
0.0
  0
LINE
  5
210
100
AcDbEntity
  8
Layer_1
 62
7
100
AcDbLine
 10
403.337127
 20
372.804262
 30
0.0
 11
403.771044
 21
372.740762
 31
0.0
  0
LINE
  5
211
100
AcDbEntity
  8
Layer_1
 62
7
100
AcDbLine
 10
403.771044
 20
372.740762
 30
0.0
 11
404.204960
 21
372.645512
 31
0.0
  0
LINE
  5
212
100
AcDbEntity
  8
Layer_1
 62
7
100
AcDbLine
 10
404.204960
 20
372.645512
 30
0.0
 11
404.628294
 21
372.518512
 31
0.0
  0
LINE
  5
213
100
AcDbEntity
  8
Layer_1
 62
7
100
AcDbLine
 10
404.628294
 20
372.518512
 30
0.0
 11
405.041044
 21
372.349179
 31
0.0
  0
LINE
  5
214
100
AcDbEntity
  8
Layer_1
 62
7
100
AcDbLine
 10
405.041044
 20
372.349179
 30
0.0
 11
405.443210
 21
372.169262
 31
0.0
  0
LINE
  5
215
100
AcDbEntity
  8
Layer_1
 62
7
100
AcDbLine
 10
405.443210
 20
372.169262
 30
0.0
 11
405.834794
 21
371.957595
 31
0.0
  0
LINE
  5
216
100
AcDbEntity
  8
Layer_1
 62
7
100
AcDbLine
 10
405.834794
 20
371.957595
 30
0.0
 11
406.215794
 21
371.724762
 31
0.0
  0
LINE
  5
217
100
AcDbEntity
  8
Layer_1
 62
7
100
AcDbLine
 10
406.215794
 20
371.724762
 30
0.0
 11
406.575627
 21
371.470762
 31
0.0
  0
LINE
  5
218
100
AcDbEntity
  8
Layer_1
 62
7
100
AcDbLine
 10
406.575627
 20
371.470762
 30
0.0
 11
406.935460
 21
371.206179
 31
0.0
  0
LINE
  5
219
100
AcDbEntity
  8
Layer_1
 62
7
100
AcDbLine
 10
406.935460
 20
371.206179
 30
0.0
 11
407.274127
 21
370.931012
 31
0.0
  0
LINE
  5
21a
100
AcDbEntity
  8
Layer_1
 62
7
100
AcDbLine
 10
407.274127
 20
370.931012
 30
0.0
 11
407.602210
 21
370.634679
 31
0.0
  0
LINE
  5
21b
100
AcDbEntity
  8
Layer_1
 62
7
100
AcDbLine
 10
407.602210
 20
370.634679
 30
0.0
 11
407.930294
 21
370.327762
 31
0.0
  0
LINE
  5
21c
100
AcDbEntity
  8
Layer_1
 62
7
100
AcDbLine
 10
407.930294
 20
370.327762
 30
0.0
 11
408.247794
 21
370.020845
 31
0.0
  0
LINE
  5
21d
100
AcDbEntity
  8
Layer_1
 62
7
100
AcDbLine
 10
408.247794
 20
370.020845
 30
0.0
 11
408.851044
 21
369.375262
 31
0.0
  0
LINE
  5
21e
100
AcDbEntity
  8
Layer_1
 62
7
100
AcDbLine
 10
408.851044
 20
369.375262
 30
0.0
 11
409.422544
 21
368.708512
 31
0.0
  0
LINE
  5
21f
100
AcDbEntity
  8
Layer_1
 62
7
100
AcDbLine
 10
409.422544
 20
368.708512
 30
0.0
 11
409.983460
 21
368.020595
 31
0.0
  0
LINE
  5
220
100
AcDbEntity
  8
Layer_1
 62
7
100
AcDbLine
 10
409.983460
 20
368.020595
 30
0.0
 11
410.512627
 21
367.322095
 31
0.0
  0
LINE
  5
221
100
AcDbEntity
  8
Layer_1
 62
7
100
AcDbLine
 10
410.512627
 20
367.322095
 30
0.0
 11
411.020627
 21
366.602429
 31
0.0
  0
LINE
  5
222
100
AcDbEntity
  8
Layer_1
 62
7
100
AcDbLine
 10
411.020627
 20
366.602429
 30
0.0
 11
411.518044
 21
365.861595
 31
0.0
  0
LINE
  5
223
100
AcDbEntity
  8
Layer_1
 62
7
100
AcDbLine
 10
411.518044
 20
365.861595
 30
0.0
 11
411.994294
 21
365.120762
 31
0.0
  0
LINE
  5
224
100
AcDbEntity
  8
Layer_1
 62
7
100
AcDbLine
 10
411.994294
 20
365.120762
 30
0.0
 11
412.449377
 21
364.369345
 31
0.0
  0
LINE
  5
225
100
AcDbEntity
  8
Layer_1
 62
7
100
AcDbLine
 10
412.449377
 20
364.369345
 30
0.0
 11
412.893877
 21
363.596762
 31
0.0
  0
LINE
  5
226
100
AcDbEntity
  8
Layer_1
 62
7
100
AcDbLine
 10
412.893877
 20
363.596762
 30
0.0
 11
413.327794
 21
362.824179
 31
0.0
  0
LINE
  5
227
100
AcDbEntity
  8
Layer_1
 62
7
100
AcDbLine
 10
413.327794
 20
362.824179
 30
0.0
 11
413.740544
 21
362.051595
 31
0.0
  0
LINE
  5
228
100
AcDbEntity
  8
Layer_1
 62
7
100
AcDbLine
 10
413.740544
 20
362.051595
 30
0.0
 11
414.555460
 21
360.474679
 31
0.0
  0
LINE
  5
229
100
AcDbEntity
  8
Layer_1
 62
7
100
AcDbLine
 10
414.555460
 20
360.474679
 30
0.0
 11
415.328044
 21
358.887179
 31
0.0
  0
LINE
  5
22a
100
AcDbEntity
  8
Layer_1
 62
7
100
AcDbLine
 10
415.328044
 20
358.887179
 30
0.0
 11
416.068877
 21
357.289095
 31
0.0
  0
LINE
  5
22b
100
AcDbEntity
  8
Layer_1
 62
7
100
AcDbLine
 10
416.068877
 20
357.289095
 30
0.0
 11
416.788544
 21
355.669845
 31
0.0
  0
LINE
  5
22c
100
AcDbEntity
  8
Layer_1
 62
7
100
AcDbLine
 10
416.788544
 20
355.669845
 30
0.0
 11
417.476460
 21
354.050595
 31
0.0
  0
LINE
  5
22d
100
AcDbEntity
  8
Layer_1
 62
7
100
AcDbLine
 10
417.476460
 20
354.050595
 30
0.0
 11
418.143210
 21
352.420762
 31
0.0
  0
LINE
  5
22e
100
AcDbEntity
  8
Layer_1
 62
7
100
AcDbLine
 10
418.143210
 20
352.420762
 30
0.0
 11
418.799377
 21
350.769762
 31
0.0
  0
LINE
  5
22f
100
AcDbEntity
  8
Layer_1
 62
7
100
AcDbLine
 10
418.799377
 20
350.769762
 30
0.0
 11
419.423794
 21
349.129345
 31
0.0
  0
LINE
  5
230
100
AcDbEntity
  8
Layer_1
 62
7
100
AcDbLine
 10
419.423794
 20
349.129345
 30
0.0
 11
420.037627
 21
347.467762
 31
0.0
  0
LINE
  5
231
100
AcDbEntity
  8
Layer_1
 62
7
100
AcDbLine
 10
420.037627
 20
347.467762
 30
0.0
 11
420.630294
 21
345.806179
 31
0.0
  0
LINE
  5
232
100
AcDbEntity
  8
Layer_1
 62
7
100
AcDbLine
 10
420.630294
 20
345.806179
 30
0.0
 11
421.212377
 21
344.144595
 31
0.0
  0
LINE
  5
233
100
AcDbEntity
  8
Layer_1
 62
7
100
AcDbLine
 10
421.212377
 20
344.144595
 30
0.0
 11
421.773294
 21
342.461848
 31
0.0
  0
LINE
  5
234
100
AcDbEntity
  8
Layer_1
 62
7
100
AcDbLine
 10
421.773294
 20
342.461848
 30
0.0
 11
422.323627
 21
340.789681
 31
0.0
  0
LINE
  5
235
100
AcDbEntity
  8
Layer_1
 62
7
100
AcDbLine
 10
422.323627
 20
340.789681
 30
0.0
 11
422.863377
 21
339.106931
 31
0.0
  0
LINE
  5
236
100
AcDbEntity
  8
Layer_1
 62
7
100
AcDbLine
 10
422.863377
 20
339.106931
 30
0.0
 11
423.381960
 21
337.424181
 31
0.0
  0
LINE
  5
237
100
AcDbEntity
  8
Layer_1
 62
7
100
AcDbLine
 10
423.381960
 20
337.424181
 30
0.0
 11
423.900544
 21
335.741431
 31
0.0
  0
LINE
  5
238
100
AcDbEntity
  8
Layer_1
 62
7
100
AcDbLine
 10
423.900544
 20
335.741431
 30
0.0
 11
424.408544
 21
334.048098
 31
0.0
  0
LINE
  5
239
100
AcDbEntity
  8
Layer_1
 62
7
100
AcDbLine
 10
424.408544
 20
334.048098
 30
0.0
 11
425.382210
 21
330.650848
 31
0.0
  0
LINE
  5
23a
100
AcDbEntity
  8
Layer_1
 62
7
100
AcDbLine
 10
425.382210
 20
330.650848
 30
0.0
 11
426.324127
 21
327.253598
 31
0.0
  0
LINE
  5
23b
100
AcDbEntity
  8
Layer_1
 62
7
100
AcDbLine
 10
426.324127
 20
327.253598
 30
0.0
 11
427.223710
 21
323.835180
 31
0.0
  0
LINE
  5
23c
100
AcDbEntity
  8
Layer_1
 62
7
100
AcDbLine
 10
427.223710
 20
323.835180
 30
0.0
 11
427.657627
 21
322.120680
 31
0.0
  0
LINE
  5
23d
100
AcDbEntity
  8
Layer_1
 62
7
100
AcDbLine
 10
427.657627
 20
322.120680
 30
0.0
 11
428.080960
 21
320.406180
 31
0.0
  0
LINE
  5
23e
100
AcDbEntity
  8
Layer_1
 62
7
100
AcDbLine
 10
428.080960
 20
320.406180
 30
0.0
 11
428.493710
 21
318.691680
 31
0.0
  0
LINE
  5
23f
100
AcDbEntity
  8
Layer_1
 62
7
100
AcDbLine
 10
428.493710
 20
318.691680
 30
0.0
 11
428.885294
 21
316.977180
 31
0.0
  0
LINE
  5
240
100
AcDbEntity
  8
Layer_1
 62
7
100
AcDbLine
 10
428.885294
 20
316.977180
 30
0.0
 11
429.276877
 21
315.252097
 31
0.0
  0
LINE
  5
241
100
AcDbEntity
  8
Layer_1
 62
7
100
AcDbLine
 10
429.276877
 20
315.252097
 30
0.0
 11
429.647294
 21
313.527014
 31
0.0
  0
LINE
  5
242
100
AcDbEntity
  8
Layer_1
 62
7
100
AcDbLine
 10
429.647294
 20
313.527014
 30
0.0
 11
430.007127
 21
311.801930
 31
0.0
  0
LINE
  5
243
100
AcDbEntity
  8
Layer_1
 62
7
100
AcDbLine
 10
430.007127
 20
311.801930
 30
0.0
 11
430.356377
 21
310.066264
 31
0.0
  0
LINE
  5
244
100
AcDbEntity
  8
Layer_1
 62
7
100
AcDbLine
 10
430.356377
 20
310.066264
 30
0.0
 11
430.673877
 21
308.330597
 31
0.0
  0
LINE
  5
245
100
AcDbEntity
  8
Layer_1
 62
7
100
AcDbLine
 10
430.673877
 20
308.330597
 30
0.0
 11
430.991377
 21
306.594930
 31
0.0
  0
LINE
  5
246
100
AcDbEntity
  8
Layer_1
 62
7
100
AcDbLine
 10
430.991377
 20
306.594930
 30
0.0
 11
431.277127
 21
304.848680
 31
0.0
  0
LINE
  5
247
100
AcDbEntity
  8
Layer_1
 62
7
100
AcDbLine
 10
431.277127
 20
304.848680
 30
0.0
 11
431.552294
 21
303.113014
 31
0.0
  0
LINE
  5
248
100
AcDbEntity
  8
Layer_1
 62
7
100
AcDbLine
 10
431.552294
 20
303.113014
 30
0.0
 11
431.806294
 21
301.366764
 31
0.0
  0
LINE
  5
249
100
AcDbEntity
  8
Layer_1
 62
7
100
AcDbLine
 10
431.806294
 20
301.366764
 30
0.0
 11
432.049710
 21
299.620514
 31
0.0
  0
LINE
  5
24a
100
AcDbEntity
  8
Layer_1
 62
7
100
AcDbLine
 10
432.049710
 20
299.620514
 30
0.0
 11
432.271960
 21
297.863680
 31
0.0
  0
LINE
  5
24b
100
AcDbEntity
  8
Layer_1
 62
7
100
AcDbLine
 10
432.271960
 20
297.863680
 30
0.0
 11
432.483627
 21
296.117430
 31
0.0
  0
LINE
  5
24c
100
AcDbEntity
  8
Layer_1
 62
7
100
AcDbLine
 10
432.483627
 20
296.117430
 30
0.0
 11
432.684710
 21
294.360597
 31
0.0
  0
LINE
  5
24d
100
AcDbEntity
  8
Layer_1
 62
7
100
AcDbLine
 10
432.684710
 20
294.360597
 30
0.0
 11
432.875210
 21
292.603764
 31
0.0
  0
LINE
  5
24e
100
AcDbEntity
  8
Layer_1
 62
7
100
AcDbLine
 10
432.875210
 20
292.603764
 30
0.0
 11
433.224460
 21
289.090097
 31
0.0
  0
LINE
  5
24f
100
AcDbEntity
  8
Layer_1
 62
7
100
AcDbLine
 10
433.224460
 20
289.090097
 30
0.0
 11
433.541960
 21
285.576430
 31
0.0
  0
LINE
  5
250
100
AcDbEntity
  8
Layer_1
 62
7
100
AcDbLine
 10
433.541960
 20
285.576430
 30
0.0
 11
433.838294
 21
282.052180
 31
0.0
  0
LINE
  5
251
100
AcDbEntity
  8
Layer_1
 62
7
100
AcDbLine
 10
433.838294
 20
282.052180
 30
0.0
 11
434.113460
 21
278.538514
 31
0.0
  0
LINE
  5
252
100
AcDbEntity
  8
Layer_1
 62
7
100
AcDbLine
 10
434.113460
 20
278.538514
 30
0.0
 11
434.378044
 21
275.014264
 31
0.0
  0
LINE
  5
253
100
AcDbEntity
  8
Layer_1
 62
7
100
AcDbLine
 10
434.378044
 20
275.014264
 30
0.0
 11
434.610877
 21
271.490014
 31
0.0
  0
LINE
  5
254
100
AcDbEntity
  8
Layer_1
 62
7
100
AcDbLine
 10
434.610877
 20
271.490014
 30
0.0
 11
434.822544
 21
267.965765
 31
0.0
  0
LINE
  5
255
100
AcDbEntity
  8
Layer_1
 62
7
100
AcDbLine
 10
434.822544
 20
267.965765
 30
0.0
 11
435.023627
 21
264.441515
 31
0.0
  0
LINE
  5
256
100
AcDbEntity
  8
Layer_1
 62
7
100
AcDbLine
 10
435.023627
 20
264.441515
 30
0.0
 11
435.203544
 21
260.917265
 31
0.0
  0
LINE
  5
257
100
AcDbEntity
  8
Layer_1
 62
7
100
AcDbLine
 10
435.203544
 20
260.917265
 30
0.0
 11
435.351710
 21
257.393015
 31
0.0
  0
LINE
  5
258
100
AcDbEntity
  8
Layer_1
 62
7
100
AcDbLine
 10
435.351710
 20
257.393015
 30
0.0
 11
435.499877
 21
253.868765
 31
0.0
  0
LINE
  5
259
100
AcDbEntity
  8
Layer_1
 62
7
100
AcDbLine
 10
435.499877
 20
253.868765
 30
0.0
 11
435.626877
 21
250.344515
 31
0.0
  0
LINE
  5
25a
100
AcDbEntity
  8
Layer_1
 62
7
100
AcDbLine
 10
435.626877
 20
250.344515
 30
0.0
 11
435.743294
 21
246.809681
 31
0.0
  0
LINE
  5
25b
100
AcDbEntity
  8
Layer_1
 62
7
100
AcDbLine
 10
435.743294
 20
246.809681
 30
0.0
 11
435.944377
 21
239.750598
 31
0.0
  0
LINE
  5
25c
100
AcDbEntity
  8
Layer_1
 62
7
100
AcDbLine
 10
435.944377
 20
239.750598
 30
0.0
 11
436.113710
 21
232.702098
 31
0.0
  0
LINE
  5
25d
100
AcDbEntity
  8
Layer_1
 62
7
100
AcDbLine
 10
436.113710
 20
232.702098
 30
0.0
 11
436.261877
 21
225.643015
 31
0.0
  0
LINE
  5
25e
100
AcDbEntity
  8
Layer_1
 62
7
100
AcDbLine
 10
436.261877
 20
225.643015
 30
0.0
 11
392.637377
 21
225.643015
 31
0.0
  0
LINE
  5
25f
100
AcDbEntity
  8
Layer_1
 62
7
100
AcDbLine
 10
324.959049
 20
78.994393
 30
0.0
 11
282.064796
 21
78.994393
 31
0.0
  0
LINE
  5
260
100
AcDbEntity
  8
Layer_1
 62
7
100
AcDbLine
 10
282.064796
 20
78.994393
 30
0.0
 11
281.408629
 21
84.973976
 31
0.0
  0
LINE
  5
261
100
AcDbEntity
  8
Layer_1
 62
7
100
AcDbLine
 10
281.408629
 20
84.973976
 30
0.0
 11
281.091129
 21
87.958476
 31
0.0
  0
LINE
  5
262
100
AcDbEntity
  8
Layer_1
 62
7
100
AcDbLine
 10
281.091129
 20
87.958476
 30
0.0
 11
280.794796
 21
90.953560
 31
0.0
  0
LINE
  5
263
100
AcDbEntity
  8
Layer_1
 62
7
100
AcDbLine
 10
280.794796
 20
90.953560
 30
0.0
 11
280.498463
 21
93.948643
 31
0.0
  0
LINE
  5
264
100
AcDbEntity
  8
Layer_1
 62
7
100
AcDbLine
 10
280.498463
 20
93.948643
 30
0.0
 11
280.223296
 21
96.943726
 31
0.0
  0
LINE
  5
265
100
AcDbEntity
  8
Layer_1
 62
7
100
AcDbLine
 10
280.223296
 20
96.943726
 30
0.0
 11
279.958713
 21
99.938810
 31
0.0
  0
LINE
  5
266
100
AcDbEntity
  8
Layer_1
 62
7
100
AcDbLine
 10
279.958713
 20
99.938810
 30
0.0
 11
279.704713
 21
102.933893
 31
0.0
  0
LINE
  5
267
100
AcDbEntity
  8
Layer_1
 62
7
100
AcDbLine
 10
279.704713
 20
102.933893
 30
0.0
 11
279.228463
 21
108.934643
 31
0.0
  0
LINE
  5
268
100
AcDbEntity
  8
Layer_1
 62
7
100
AcDbLine
 10
279.228463
 20
108.934643
 30
0.0
 11
279.006213
 21
111.929726
 31
0.0
  0
LINE
  5
269
100
AcDbEntity
  8
Layer_1
 62
7
100
AcDbLine
 10
279.006213
 20
111.929726
 30
0.0
 11
278.794546
 21
114.924810
 31
0.0
  0
LINE
  5
26a
100
AcDbEntity
  8
Layer_1
 62
7
100
AcDbLine
 10
278.794546
 20
114.924810
 30
0.0
 11
278.593463
 21
117.930476
 31
0.0
  0
LINE
  5
26b
100
AcDbEntity
  8
Layer_1
 62
7
100
AcDbLine
 10
278.593463
 20
117.930476
 30
0.0
 11
278.402963
 21
120.936143
 31
0.0
  0
LINE
  5
26c
100
AcDbEntity
  8
Layer_1
 62
7
100
AcDbLine
 10
278.402963
 20
120.936143
 30
0.0
 11
278.223046
 21
123.931226
 31
0.0
  0
LINE
  5
26d
100
AcDbEntity
  8
Layer_1
 62
7
100
AcDbLine
 10
278.223046
 20
123.931226
 30
0.0
 11
278.064296
 21
126.936893
 31
0.0
  0
LINE
  5
26e
100
AcDbEntity
  8
Layer_1
 62
7
100
AcDbLine
 10
278.064296
 20
126.936893
 30
0.0
 11
277.916129
 21
129.942560
 31
0.0
  0
LINE
  5
26f
100
AcDbEntity
  8
Layer_1
 62
7
100
AcDbLine
 10
277.916129
 20
129.942560
 30
0.0
 11
277.778546
 21
132.948226
 31
0.0
  0
LINE
  5
270
100
AcDbEntity
  8
Layer_1
 62
7
100
AcDbLine
 10
277.778546
 20
132.948226
 30
0.0
 11
277.651546
 21
135.953893
 31
0.0
  0
LINE
  5
271
100
AcDbEntity
  8
Layer_1
 62
7
100
AcDbLine
 10
277.651546
 20
135.953893
 30
0.0
 11
277.545713
 21
138.948976
 31
0.0
  0
LINE
  5
272
100
AcDbEntity
  8
Layer_1
 62
7
100
AcDbLine
 10
277.545713
 20
138.948976
 30
0.0
 11
277.439879
 21
141.965212
 31
0.0
  0
LINE
  5
273
100
AcDbEntity
  8
Layer_1
 62
7
100
AcDbLine
 10
277.439879
 20
141.965212
 30
0.0
 11
277.355213
 21
144.970879
 31
0.0
  0
LINE
  5
274
100
AcDbEntity
  8
Layer_1
 62
7
100
AcDbLine
 10
277.355213
 20
144.970879
 30
0.0
 11
277.207046
 21
150.982212
 31
0.0
  0
LINE
  5
275
100
AcDbEntity
  8
Layer_1
 62
7
100
AcDbLine
 10
277.207046
 20
150.982212
 30
0.0
 11
277.101213
 21
156.993546
 31
0.0
  0
LINE
  5
276
100
AcDbEntity
  8
Layer_1
 62
7
100
AcDbLine
 10
277.101213
 20
156.993546
 30
0.0
 11
277.027129
 21
163.004879
 31
0.0
  0
LINE
  5
277
100
AcDbEntity
  8
Layer_1
 62
7
100
AcDbLine
 10
277.027129
 20
163.004879
 30
0.0
 11
276.984796
 21
169.026796
 31
0.0
  0
LINE
  5
278
100
AcDbEntity
  8
Layer_1
 62
7
100
AcDbLine
 10
276.984796
 20
169.026796
 30
0.0
 11
276.953046
 21
175.038129
 31
0.0
  0
LINE
  5
279
100
AcDbEntity
  8
Layer_1
 62
7
100
AcDbLine
 10
276.953046
 20
175.038129
 30
0.0
 11
276.931879
 21
187.071379
 31
0.0
  0
LINE
  5
27a
100
AcDbEntity
  8
Layer_1
 62
7
100
AcDbLine
 10
276.931879
 20
187.071379
 30
0.0
 11
276.931879
 21
199.094046
 31
0.0
  0
LINE
  5
27b
100
AcDbEntity
  8
Layer_1
 62
7
100
AcDbLine
 10
276.931879
 20
199.094046
 30
0.0
 11
276.921155
 21
211.127296
 31
0.0
  0
LINE
  5
27c
100
AcDbEntity
  8
Layer_1
 62
7
100
AcDbLine
 10
276.921155
 20
211.127296
 30
0.0
 11
276.931879
 21
217.138629
 31
0.0
  0
LINE
  5
27d
100
AcDbEntity
  8
Layer_1
 62
7
100
AcDbLine
 10
276.931879
 20
217.138629
 30
0.0
 11
276.963629
 21
223.160546
 31
0.0
  0
LINE
  5
27e
100
AcDbEntity
  8
Layer_1
 62
7
100
AcDbLine
 10
276.963629
 20
223.160546
 30
0.0
 11
277.027129
 21
229.171879
 31
0.0
  0
LINE
  5
27f
100
AcDbEntity
  8
Layer_1
 62
7
100
AcDbLine
 10
277.027129
 20
229.171879
 30
0.0
 11
277.111796
 21
235.183212
 31
0.0
  0
LINE
  5
280
100
AcDbEntity
  8
Layer_1
 62
7
100
AcDbLine
 10
277.111796
 20
235.183212
 30
0.0
 11
277.238796
 21
241.194546
 31
0.0
  0
LINE
  5
281
100
AcDbEntity
  8
Layer_1
 62
7
100
AcDbLine
 10
277.238796
 20
241.194546
 30
0.0
 11
277.323463
 21
244.200212
 31
0.0
  0
LINE
  5
282
100
AcDbEntity
  8
Layer_1
 62
7
100
AcDbLine
 10
277.323463
 20
244.200212
 30
0.0
 11
277.408129
 21
247.205879
 31
0.0
  0
LINE
  5
283
100
AcDbEntity
  8
Layer_1
 62
7
100
AcDbLine
 10
277.408129
 20
247.205879
 30
0.0
 11
277.619796
 21
253.217212
 31
0.0
  0
LINE
  5
284
100
AcDbEntity
  8
Layer_1
 62
7
100
AcDbLine
 10
277.619796
 20
253.217212
 30
0.0
 11
277.873796
 21
259.228546
 31
0.0
  0
LINE
  5
285
100
AcDbEntity
  8
Layer_1
 62
7
100
AcDbLine
 10
277.873796
 20
259.228546
 30
0.0
 11
278.148963
 21
265.239879
 31
0.0
  0
LINE
  5
286
100
AcDbEntity
  8
Layer_1
 62
7
100
AcDbLine
 10
278.148963
 20
265.239879
 30
0.0
 11
278.318296
 21
268.245546
 31
0.0
  0
LINE
  5
287
100
AcDbEntity
  8
Layer_1
 62
7
100
AcDbLine
 10
278.318296
 20
268.245546
 30
0.0
 11
278.487629
 21
271.240630
 31
0.0
  0
LINE
  5
288
100
AcDbEntity
  8
Layer_1
 62
7
100
AcDbLine
 10
278.487629
 20
271.240630
 30
0.0
 11
278.688713
 21
274.246296
 31
0.0
  0
LINE
  5
289
100
AcDbEntity
  8
Layer_1
 62
7
100
AcDbLine
 10
278.688713
 20
274.246296
 30
0.0
 11
278.910963
 21
277.241380
 31
0.0
  0
LINE
  5
28a
100
AcDbEntity
  8
Layer_1
 62
7
100
AcDbLine
 10
278.910963
 20
277.241380
 30
0.0
 11
279.164963
 21
280.247046
 31
0.0
  0
LINE
  5
28b
100
AcDbEntity
  8
Layer_1
 62
7
100
AcDbLine
 10
279.164963
 20
280.247046
 30
0.0
 11
279.450713
 21
283.231546
 31
0.0
  0
LINE
  5
28c
100
AcDbEntity
  8
Layer_1
 62
7
100
AcDbLine
 10
279.450713
 20
283.231546
 30
0.0
 11
279.757629
 21
286.226630
 31
0.0
  0
LINE
  5
28d
100
AcDbEntity
  8
Layer_1
 62
7
100
AcDbLine
 10
279.757629
 20
286.226630
 30
0.0
 11
280.096296
 21
289.221713
 31
0.0
  0
LINE
  5
28e
100
AcDbEntity
  8
Layer_1
 62
7
100
AcDbLine
 10
280.096296
 20
289.221713
 30
0.0
 11
280.466713
 21
292.206213
 31
0.0
  0
LINE
  5
28f
100
AcDbEntity
  8
Layer_1
 62
7
100
AcDbLine
 10
280.466713
 20
292.206213
 30
0.0
 11
280.868879
 21
295.180130
 31
0.0
  0
LINE
  5
290
100
AcDbEntity
  8
Layer_1
 62
7
100
AcDbLine
 10
280.868879
 20
295.180130
 30
0.0
 11
281.292213
 21
298.164630
 31
0.0
  0
LINE
  5
291
100
AcDbEntity
  8
Layer_1
 62
7
100
AcDbLine
 10
281.292213
 20
298.164630
 30
0.0
 11
281.747296
 21
301.138546
 31
0.0
  0
LINE
  5
292
100
AcDbEntity
  8
Layer_1
 62
7
100
AcDbLine
 10
281.747296
 20
301.138546
 30
0.0
 11
282.223546
 21
304.101880
 31
0.0
  0
LINE
  5
293
100
AcDbEntity
  8
Layer_1
 62
7
100
AcDbLine
 10
282.223546
 20
304.101880
 30
0.0
 11
282.720963
 21
307.075796
 31
0.0
  0
LINE
  5
294
100
AcDbEntity
  8
Layer_1
 62
7
100
AcDbLine
 10
282.720963
 20
307.075796
 30
0.0
 11
283.250129
 21
310.028546
 31
0.0
  0
LINE
  5
295
100
AcDbEntity
  8
Layer_1
 62
7
100
AcDbLine
 10
283.250129
 20
310.028546
 30
0.0
 11
283.800463
 21
312.991880
 31
0.0
  0
LINE
  5
296
100
AcDbEntity
  8
Layer_1
 62
7
100
AcDbLine
 10
283.800463
 20
312.991880
 30
0.0
 11
284.382546
 21
315.944628
 31
0.0
  0
LINE
  5
297
100
AcDbEntity
  8
Layer_1
 62
7
100
AcDbLine
 10
284.382546
 20
315.944628
 30
0.0
 11
284.996379
 21
318.886795
 31
0.0
  0
LINE
  5
298
100
AcDbEntity
  8
Layer_1
 62
7
100
AcDbLine
 10
284.996379
 20
318.886795
 30
0.0
 11
285.631379
 21
321.828962
 31
0.0
  0
LINE
  5
299
100
AcDbEntity
  8
Layer_1
 62
7
100
AcDbLine
 10
285.631379
 20
321.828962
 30
0.0
 11
286.298129
 21
324.760545
 31
0.0
  0
LINE
  5
29a
100
AcDbEntity
  8
Layer_1
 62
7
100
AcDbLine
 10
286.298129
 20
324.760545
 30
0.0
 11
286.986046
 21
327.692129
 31
0.0
  0
LINE
  5
29b
100
AcDbEntity
  8
Layer_1
 62
7
100
AcDbLine
 10
286.986046
 20
327.692129
 30
0.0
 11
287.716296
 21
330.602546
 31
0.0
  0
LINE
  5
29c
100
AcDbEntity
  8
Layer_1
 62
7
100
AcDbLine
 10
287.716296
 20
330.602546
 30
0.0
 11
288.478296
 21
333.512962
 31
0.0
  0
LINE
  5
29d
100
AcDbEntity
  8
Layer_1
 62
7
100
AcDbLine
 10
288.478296
 20
333.512962
 30
0.0
 11
289.282629
 21
336.412796
 31
0.0
  0
LINE
  5
29e
100
AcDbEntity
  8
Layer_1
 62
7
100
AcDbLine
 10
289.282629
 20
336.412796
 30
0.0
 11
289.705963
 21
337.862712
 31
0.0
  0
LINE
  5
29f
100
AcDbEntity
  8
Layer_1
 62
7
100
AcDbLine
 10
289.705963
 20
337.862712
 30
0.0
 11
290.129296
 21
339.302046
 31
0.0
  0
LINE
  5
2a0
100
AcDbEntity
  8
Layer_1
 62
7
100
AcDbLine
 10
290.129296
 20
339.302046
 30
0.0
 11
290.573796
 21
340.741379
 31
0.0
  0
LINE
  5
2a1
100
AcDbEntity
  8
Layer_1
 62
7
100
AcDbLine
 10
290.573796
 20
340.741379
 30
0.0
 11
291.018296
 21
342.180712
 31
0.0
  0
LINE
  5
2a2
100
AcDbEntity
  8
Layer_1
 62
7
100
AcDbLine
 10
291.018296
 20
342.180712
 30
0.0
 11
291.483963
 21
343.609462
 31
0.0
  0
LINE
  5
2a3
100
AcDbEntity
  8
Layer_1
 62
7
100
AcDbLine
 10
291.483963
 20
343.609462
 30
0.0
 11
291.960213
 21
345.038212
 31
0.0
  0
LINE
  5
2a4
100
AcDbEntity
  8
Layer_1
 62
7
100
AcDbLine
 10
291.960213
 20
345.038212
 30
0.0
 11
292.447046
 21
346.456379
 31
0.0
  0
LINE
  5
2a5
100
AcDbEntity
  8
Layer_1
 62
7
100
AcDbLine
 10
292.447046
 20
346.456379
 30
0.0
 11
292.944463
 21
347.874546
 31
0.0
  0
LINE
  5
2a6
100
AcDbEntity
  8
Layer_1
 62
7
100
AcDbLine
 10
292.944463
 20
347.874546
 30
0.0
 11
293.463046
 21
349.292712
 31
0.0
  0
LINE
  5
2a7
100
AcDbEntity
  8
Layer_1
 62
7
100
AcDbLine
 10
293.463046
 20
349.292712
 30
0.0
 11
293.992213
 21
350.689712
 31
0.0
  0
LINE
  5
2a8
100
AcDbEntity
  8
Layer_1
 62
7
100
AcDbLine
 10
293.992213
 20
350.689712
 30
0.0
 11
294.542546
 21
352.097296
 31
0.0
  0
LINE
  5
2a9
100
AcDbEntity
  8
Layer_1
 62
7
100
AcDbLine
 10
294.542546
 20
352.097296
 30
0.0
 11
295.114046
 21
353.483712
 31
0.0
  0
LINE
  5
2aa
100
AcDbEntity
  8
Layer_1
 62
7
100
AcDbLine
 10
295.114046
 20
353.483712
 30
0.0
 11
295.706713
 21
354.870129
 31
0.0
  0
LINE
  5
2ab
100
AcDbEntity
  8
Layer_1
 62
7
100
AcDbLine
 10
295.706713
 20
354.870129
 30
0.0
 11
296.309963
 21
356.245962
 31
0.0
  0
LINE
  5
2ac
100
AcDbEntity
  8
Layer_1
 62
7
100
AcDbLine
 10
296.309963
 20
356.245962
 30
0.0
 11
296.944963
 21
357.611212
 31
0.0
  0
LINE
  5
2ad
100
AcDbEntity
  8
Layer_1
 62
7
100
AcDbLine
 10
296.944963
 20
357.611212
 30
0.0
 11
297.601129
 21
358.976462
 31
0.0
  0
LINE
  5
2ae
100
AcDbEntity
  8
Layer_1
 62
7
100
AcDbLine
 10
297.601129
 20
358.976462
 30
0.0
 11
298.278463
 21
360.320546
 31
0.0
  0
LINE
  5
2af
100
AcDbEntity
  8
Layer_1
 62
7
100
AcDbLine
 10
298.278463
 20
360.320546
 30
0.0
 11
298.987546
 21
361.654046
 31
0.0
  0
LINE
  5
2b0
100
AcDbEntity
  8
Layer_1
 62
7
100
AcDbLine
 10
298.987546
 20
361.654046
 30
0.0
 11
299.728379
 21
362.966379
 31
0.0
  0
LINE
  5
2b1
100
AcDbEntity
  8
Layer_1
 62
7
100
AcDbLine
 10
299.728379
 20
362.966379
 30
0.0
 11
300.119963
 21
363.622546
 31
0.0
  0
LINE
  5
2b2
100
AcDbEntity
  8
Layer_1
 62
7
100
AcDbLine
 10
300.119963
 20
363.622546
 30
0.0
 11
300.511546
 21
364.257546
 31
0.0
  0
LINE
  5
2b3
100
AcDbEntity
  8
Layer_1
 62
7
100
AcDbLine
 10
300.511546
 20
364.257546
 30
0.0
 11
300.913713
 21
364.892546
 31
0.0
  0
LINE
  5
2b4
100
AcDbEntity
  8
Layer_1
 62
7
100
AcDbLine
 10
300.913713
 20
364.892546
 30
0.0
 11
301.326463
 21
365.527546
 31
0.0
  0
LINE
  5
2b5
100
AcDbEntity
  8
Layer_1
 62
7
100
AcDbLine
 10
301.326463
 20
365.527546
 30
0.0
 11
301.760379
 21
366.141379
 31
0.0
  0
LINE
  5
2b6
100
AcDbEntity
  8
Layer_1
 62
7
100
AcDbLine
 10
301.760379
 20
366.141379
 30
0.0
 11
302.194296
 21
366.755212
 31
0.0
  0
LINE
  5
2b7
100
AcDbEntity
  8
Layer_1
 62
7
100
AcDbLine
 10
302.194296
 20
366.755212
 30
0.0
 11
302.649379
 21
367.358462
 31
0.0
  0
LINE
  5
2b8
100
AcDbEntity
  8
Layer_1
 62
7
100
AcDbLine
 10
302.649379
 20
367.358462
 30
0.0
 11
303.115046
 21
367.951129
 31
0.0
  0
LINE
  5
2b9
100
AcDbEntity
  8
Layer_1
 62
7
100
AcDbLine
 10
303.115046
 20
367.951129
 30
0.0
 11
303.591296
 21
368.533212
 31
0.0
  0
LINE
  5
2ba
100
AcDbEntity
  8
Layer_1
 62
7
100
AcDbLine
 10
303.591296
 20
368.533212
 30
0.0
 11
304.078129
 21
369.104712
 31
0.0
  0
LINE
  5
2bb
100
AcDbEntity
  8
Layer_1
 62
7
100
AcDbLine
 10
304.078129
 20
369.104712
 30
0.0
 11
304.586129
 21
369.665629
 31
0.0
  0
LINE
  5
2bc
100
AcDbEntity
  8
Layer_1
 62
7
100
AcDbLine
 10
304.586129
 20
369.665629
 30
0.0
 11
305.115296
 21
370.205379
 31
0.0
  0
LINE
  5
2bd
100
AcDbEntity
  8
Layer_1
 62
7
100
AcDbLine
 10
305.115296
 20
370.205379
 30
0.0
 11
305.655046
 21
370.734546
 31
0.0
  0
LINE
  5
2be
100
AcDbEntity
  8
Layer_1
 62
7
100
AcDbLine
 10
305.655046
 20
370.734546
 30
0.0
 11
306.205379
 21
371.242546
 31
0.0
  0
LINE
  5
2bf
100
AcDbEntity
  8
Layer_1
 62
7
100
AcDbLine
 10
306.205379
 20
371.242546
 30
0.0
 11
306.787463
 21
371.718796
 31
0.0
  0
LINE
  5
2c0
100
AcDbEntity
  8
Layer_1
 62
7
100
AcDbLine
 10
306.787463
 20
371.718796
 30
0.0
 11
307.380129
 21
372.184462
 31
0.0
  0
LINE
  5
2c1
100
AcDbEntity
  8
Layer_1
 62
7
100
AcDbLine
 10
307.380129
 20
372.184462
 30
0.0
 11
308.004546
 21
372.618379
 31
0.0
  0
LINE
  5
2c2
100
AcDbEntity
  8
Layer_1
 62
7
100
AcDbLine
 10
308.004546
 20
372.618379
 30
0.0
 11
308.650129
 21
373.009962
 31
0.0
  0
LINE
  5
2c3
100
AcDbEntity
  8
Layer_1
 62
7
100
AcDbLine
 10
308.650129
 20
373.009962
 30
0.0
 11
308.978213
 21
373.200462
 31
0.0
  0
LINE
  5
2c4
100
AcDbEntity
  8
Layer_1
 62
7
100
AcDbLine
 10
308.978213
 20
373.200462
 30
0.0
 11
309.306296
 21
373.380379
 31
0.0
  0
LINE
  5
2c5
100
AcDbEntity
  8
Layer_1
 62
7
100
AcDbLine
 10
309.306296
 20
373.380379
 30
0.0
 11
309.644963
 21
373.549712
 31
0.0
  0
LINE
  5
2c6
100
AcDbEntity
  8
Layer_1
 62
7
100
AcDbLine
 10
309.644963
 20
373.549712
 30
0.0
 11
309.994213
 21
373.697879
 31
0.0
  0
LINE
  5
2c7
100
AcDbEntity
  8
Layer_1
 62
7
100
AcDbLine
 10
309.994213
 20
373.697879
 30
0.0
 11
310.343463
 21
373.846046
 31
0.0
  0
LINE
  5
2c8
100
AcDbEntity
  8
Layer_1
 62
7
100
AcDbLine
 10
310.343463
 20
373.846046
 30
0.0
 11
310.692713
 21
373.973046
 31
0.0
  0
LINE
  5
2c9
100
AcDbEntity
  8
Layer_1
 62
7
100
AcDbLine
 10
310.692713
 20
373.973046
 30
0.0
 11
311.052546
 21
374.089462
 31
0.0
  0
LINE
  5
2ca
100
AcDbEntity
  8
Layer_1
 62
7
100
AcDbLine
 10
311.052546
 20
374.089462
 30
0.0
 11
311.412379
 21
374.195296
 31
0.0
  0
LINE
  5
2cb
100
AcDbEntity
  8
Layer_1
 62
7
100
AcDbLine
 10
311.412379
 20
374.195296
 30
0.0
 11
311.772215
 21
374.290546
 31
0.0
  0
LINE
  5
2cc
100
AcDbEntity
  8
Layer_1
 62
7
100
AcDbLine
 10
311.772215
 20
374.290546
 30
0.0
 11
312.142632
 21
374.364629
 31
0.0
  0
LINE
  5
2cd
100
AcDbEntity
  8
Layer_1
 62
7
100
AcDbLine
 10
312.142632
 20
374.364629
 30
0.0
 11
312.513049
 21
374.417546
 31
0.0
  0
LINE
  5
2ce
100
AcDbEntity
  8
Layer_1
 62
7
100
AcDbLine
 10
312.513049
 20
374.417546
 30
0.0
 11
312.883465
 21
374.470462
 31
0.0
  0
LINE
  5
2cf
100
AcDbEntity
  8
Layer_1
 62
7
100
AcDbLine
 10
312.883465
 20
374.470462
 30
0.0
 11
313.634882
 21
374.533962
 31
0.0
  0
LINE
  5
2d0
100
AcDbEntity
  8
Layer_1
 62
7
100
AcDbLine
 10
313.634882
 20
374.533962
 30
0.0
 11
314.396882
 21
374.565712
 31
0.0
  0
LINE
  5
2d1
100
AcDbEntity
  8
Layer_1
 62
7
100
AcDbLine
 10
314.396882
 20
374.565712
 30
0.0
 11
315.148299
 21
374.565712
 31
0.0
  0
LINE
  5
2d2
100
AcDbEntity
  8
Layer_1
 62
7
100
AcDbLine
 10
315.148299
 20
374.565712
 30
0.0
 11
315.910299
 21
374.533962
 31
0.0
  0
LINE
  5
2d3
100
AcDbEntity
  8
Layer_1
 62
7
100
AcDbLine
 10
315.910299
 20
374.533962
 30
0.0
 11
316.672299
 21
374.481046
 31
0.0
  0
LINE
  5
2d4
100
AcDbEntity
  8
Layer_1
 62
7
100
AcDbLine
 10
316.672299
 20
374.481046
 30
0.0
 11
317.423715
 21
374.406962
 31
0.0
  0
LINE
  5
2d5
100
AcDbEntity
  8
Layer_1
 62
7
100
AcDbLine
 10
317.423715
 20
374.406962
 30
0.0
 11
318.175132
 21
374.290546
 31
0.0
  0
LINE
  5
2d6
100
AcDbEntity
  8
Layer_1
 62
7
100
AcDbLine
 10
318.175132
 20
374.290546
 30
0.0
 11
318.545549
 21
374.216462
 31
0.0
  0
LINE
  5
2d7
100
AcDbEntity
  8
Layer_1
 62
7
100
AcDbLine
 10
318.545549
 20
374.216462
 30
0.0
 11
318.905382
 21
374.131796
 31
0.0
  0
LINE
  5
2d8
100
AcDbEntity
  8
Layer_1
 62
7
100
AcDbLine
 10
318.905382
 20
374.131796
 30
0.0
 11
319.275799
 21
374.047129
 31
0.0
  0
LINE
  5
2d9
100
AcDbEntity
  8
Layer_1
 62
7
100
AcDbLine
 10
319.275799
 20
374.047129
 30
0.0
 11
319.635632
 21
373.941296
 31
0.0
  0
LINE
  5
2da
100
AcDbEntity
  8
Layer_1
 62
7
100
AcDbLine
 10
319.635632
 20
373.941296
 30
0.0
 11
319.984882
 21
373.824879
 31
0.0
  0
LINE
  5
2db
100
AcDbEntity
  8
Layer_1
 62
7
100
AcDbLine
 10
319.984882
 20
373.824879
 30
0.0
 11
320.344715
 21
373.697879
 31
0.0
  0
LINE
  5
2dc
100
AcDbEntity
  8
Layer_1
 62
7
100
AcDbLine
 10
320.344715
 20
373.697879
 30
0.0
 11
320.693965
 21
373.549712
 31
0.0
  0
LINE
  5
2dd
100
AcDbEntity
  8
Layer_1
 62
7
100
AcDbLine
 10
320.693965
 20
373.549712
 30
0.0
 11
321.032632
 21
373.401546
 31
0.0
  0
LINE
  5
2de
100
AcDbEntity
  8
Layer_1
 62
7
100
AcDbLine
 10
321.032632
 20
373.401546
 30
0.0
 11
321.371299
 21
373.232212
 31
0.0
  0
LINE
  5
2df
100
AcDbEntity
  8
Layer_1
 62
7
100
AcDbLine
 10
321.371299
 20
373.232212
 30
0.0
 11
321.699382
 21
373.052296
 31
0.0
  0
LINE
  5
2e0
100
AcDbEntity
  8
Layer_1
 62
7
100
AcDbLine
 10
321.699382
 20
373.052296
 30
0.0
 11
322.027465
 21
372.861796
 31
0.0
  0
LINE
  5
2e1
100
AcDbEntity
  8
Layer_1
 62
7
100
AcDbLine
 10
322.027465
 20
372.861796
 30
0.0
 11
322.355549
 21
372.660712
 31
0.0
  0
LINE
  5
2e2
100
AcDbEntity
  8
Layer_1
 62
7
100
AcDbLine
 10
322.355549
 20
372.660712
 30
0.0
 11
322.673049
 21
372.449046
 31
0.0
  0
LINE
  5
2e3
100
AcDbEntity
  8
Layer_1
 62
7
100
AcDbLine
 10
322.673049
 20
372.449046
 30
0.0
 11
322.979965
 21
372.237379
 31
0.0
  0
LINE
  5
2e4
100
AcDbEntity
  8
Layer_1
 62
7
100
AcDbLine
 10
322.979965
 20
372.237379
 30
0.0
 11
323.286882
 21
372.004546
 31
0.0
  0
LINE
  5
2e5
100
AcDbEntity
  8
Layer_1
 62
7
100
AcDbLine
 10
323.286882
 20
372.004546
 30
0.0
 11
323.583215
 21
371.771712
 31
0.0
  0
LINE
  5
2e6
100
AcDbEntity
  8
Layer_1
 62
7
100
AcDbLine
 10
323.583215
 20
371.771712
 30
0.0
 11
324.154715
 21
371.274296
 31
0.0
  0
LINE
  5
2e7
100
AcDbEntity
  8
Layer_1
 62
7
100
AcDbLine
 10
324.154715
 20
371.274296
 30
0.0
 11
324.705049
 21
370.745129
 31
0.0
  0
LINE
  5
2e8
100
AcDbEntity
  8
Layer_1
 62
7
100
AcDbLine
 10
324.705049
 20
370.745129
 30
0.0
 11
325.213049
 21
370.194796
 31
0.0
  0
LINE
  5
2e9
100
AcDbEntity
  8
Layer_1
 62
7
100
AcDbLine
 10
325.213049
 20
370.194796
 30
0.0
 11
325.710465
 21
369.612712
 31
0.0
  0
LINE
  5
2ea
100
AcDbEntity
  8
Layer_1
 62
7
100
AcDbLine
 10
325.710465
 20
369.612712
 30
0.0
 11
326.176132
 21
369.020046
 31
0.0
  0
LINE
  5
2eb
100
AcDbEntity
  8
Layer_1
 62
7
100
AcDbLine
 10
326.176132
 20
369.020046
 30
0.0
 11
326.610049
 21
368.406212
 31
0.0
  0
LINE
  5
2ec
100
AcDbEntity
  8
Layer_1
 62
7
100
AcDbLine
 10
326.610049
 20
368.406212
 30
0.0
 11
327.022799
 21
367.781796
 31
0.0
  0
LINE
  5
2ed
100
AcDbEntity
  8
Layer_1
 62
7
100
AcDbLine
 10
327.022799
 20
367.781796
 30
0.0
 11
327.424965
 21
367.136212
 31
0.0
  0
LINE
  5
2ee
100
AcDbEntity
  8
Layer_1
 62
7
100
AcDbLine
 10
327.424965
 20
367.136212
 30
0.0
 11
327.795382
 21
366.480046
 31
0.0
  0
LINE
  5
2ef
100
AcDbEntity
  8
Layer_1
 62
7
100
AcDbLine
 10
327.795382
 20
366.480046
 30
0.0
 11
328.155215
 21
365.813296
 31
0.0
  0
LINE
  5
2f0
100
AcDbEntity
  8
Layer_1
 62
7
100
AcDbLine
 10
328.155215
 20
365.813296
 30
0.0
 11
328.493882
 21
365.146546
 31
0.0
  0
LINE
  5
2f1
100
AcDbEntity
  8
Layer_1
 62
7
100
AcDbLine
 10
328.493882
 20
365.146546
 30
0.0
 11
328.811382
 21
364.458629
 31
0.0
  0
LINE
  5
2f2
100
AcDbEntity
  8
Layer_1
 62
7
100
AcDbLine
 10
328.811382
 20
364.458629
 30
0.0
 11
329.118299
 21
363.770712
 31
0.0
  0
LINE
  5
2f3
100
AcDbEntity
  8
Layer_1
 62
7
100
AcDbLine
 10
329.118299
 20
363.770712
 30
0.0
 11
329.404049
 21
363.082796
 31
0.0
  0
LINE
  5
2f4
100
AcDbEntity
  8
Layer_1
 62
7
100
AcDbLine
 10
329.404049
 20
363.082796
 30
0.0
 11
329.679215
 21
362.373712
 31
0.0
  0
LINE
  5
2f5
100
AcDbEntity
  8
Layer_1
 62
7
100
AcDbLine
 10
329.679215
 20
362.373712
 30
0.0
 11
329.943799
 21
361.675212
 31
0.0
  0
LINE
  5
2f6
100
AcDbEntity
  8
Layer_1
 62
7
100
AcDbLine
 10
329.943799
 20
361.675212
 30
0.0
 11
330.197799
 21
360.966129
 31
0.0
  0
LINE
  5
2f7
100
AcDbEntity
  8
Layer_1
 62
7
100
AcDbLine
 10
330.197799
 20
360.966129
 30
0.0
 11
330.430632
 21
360.246462
 31
0.0
  0
LINE
  5
2f8
100
AcDbEntity
  8
Layer_1
 62
7
100
AcDbLine
 10
330.430632
 20
360.246462
 30
0.0
 11
330.652882
 21
359.526796
 31
0.0
  0
LINE
  5
2f9
100
AcDbEntity
  8
Layer_1
 62
7
100
AcDbLine
 10
330.652882
 20
359.526796
 30
0.0
 11
330.864549
 21
358.796546
 31
0.0
  0
LINE
  5
2fa
100
AcDbEntity
  8
Layer_1
 62
7
100
AcDbLine
 10
330.864549
 20
358.796546
 30
0.0
 11
331.076215
 21
358.076879
 31
0.0
  0
LINE
  5
2fb
100
AcDbEntity
  8
Layer_1
 62
7
100
AcDbLine
 10
331.076215
 20
358.076879
 30
0.0
 11
331.446632
 21
356.616379
 31
0.0
  0
LINE
  5
2fc
100
AcDbEntity
  8
Layer_1
 62
7
100
AcDbLine
 10
331.446632
 20
356.616379
 30
0.0
 11
331.795882
 21
355.145296
 31
0.0
  0
LINE
  5
2fd
100
AcDbEntity
  8
Layer_1
 62
7
100
AcDbLine
 10
331.795882
 20
355.145296
 30
0.0
 11
332.113382
 21
353.663629
 31
0.0
  0
LINE
  5
2fe
100
AcDbEntity
  8
Layer_1
 62
7
100
AcDbLine
 10
332.113382
 20
353.663629
 30
0.0
 11
332.399132
 21
352.181962
 31
0.0
  0
LINE
  5
2ff
100
AcDbEntity
  8
Layer_1
 62
7
100
AcDbLine
 10
332.399132
 20
352.181962
 30
0.0
 11
332.663715
 21
350.700296
 31
0.0
  0
LINE
  5
300
100
AcDbEntity
  8
Layer_1
 62
7
100
AcDbLine
 10
332.663715
 20
350.700296
 30
0.0
 11
332.907132
 21
349.218629
 31
0.0
  0
LINE
  5
301
100
AcDbEntity
  8
Layer_1
 62
7
100
AcDbLine
 10
332.907132
 20
349.218629
 30
0.0
 11
333.139965
 21
347.726379
 31
0.0
  0
LINE
  5
302
100
AcDbEntity
  8
Layer_1
 62
7
100
AcDbLine
 10
333.139965
 20
347.726379
 30
0.0
 11
333.341049
 21
346.234129
 31
0.0
  0
LINE
  5
303
100
AcDbEntity
  8
Layer_1
 62
7
100
AcDbLine
 10
333.341049
 20
346.234129
 30
0.0
 11
333.520965
 21
344.741879
 31
0.0
  0
LINE
  5
304
100
AcDbEntity
  8
Layer_1
 62
7
100
AcDbLine
 10
333.520965
 20
344.741879
 30
0.0
 11
333.690299
 21
343.249629
 31
0.0
  0
LINE
  5
305
100
AcDbEntity
  8
Layer_1
 62
7
100
AcDbLine
 10
333.690299
 20
343.249629
 30
0.0
 11
333.849049
 21
341.757379
 31
0.0
  0
LINE
  5
306
100
AcDbEntity
  8
Layer_1
 62
7
100
AcDbLine
 10
333.849049
 20
341.757379
 30
0.0
 11
333.986632
 21
340.265129
 31
0.0
  0
LINE
  5
307
100
AcDbEntity
  8
Layer_1
 62
7
100
AcDbLine
 10
333.986632
 20
340.265129
 30
0.0
 11
334.113632
 21
338.762296
 31
0.0
  0
LINE
  5
308
100
AcDbEntity
  8
Layer_1
 62
7
100
AcDbLine
 10
334.113632
 20
338.762296
 30
0.0
 11
334.335882
 21
335.767212
 31
0.0
  0
LINE
  5
309
100
AcDbEntity
  8
Layer_1
 62
7
100
AcDbLine
 10
334.335882
 20
335.767212
 30
0.0
 11
334.526382
 21
332.761546
 31
0.0
  0
LINE
  5
30a
100
AcDbEntity
  8
Layer_1
 62
7
100
AcDbLine
 10
334.526382
 20
332.761546
 30
0.0
 11
334.685132
 21
329.755879
 31
0.0
  0
LINE
  5
30b
100
AcDbEntity
  8
Layer_1
 62
7
100
AcDbLine
 10
334.685132
 20
329.755879
 30
0.0
 11
334.801549
 21
326.750212
 31
0.0
  0
LINE
  5
30c
100
AcDbEntity
  8
Layer_1
 62
7
100
AcDbLine
 10
334.801549
 20
326.750212
 30
0.0
 11
334.896799
 21
323.744545
 31
0.0
  0
LINE
  5
30d
100
AcDbEntity
  8
Layer_1
 62
7
100
AcDbLine
 10
334.896799
 20
323.744545
 30
0.0
 11
334.981465
 21
320.738878
 31
0.0
  0
LINE
  5
30e
100
AcDbEntity
  8
Layer_1
 62
7
100
AcDbLine
 10
334.981465
 20
320.738878
 30
0.0
 11
335.034382
 21
317.733212
 31
0.0
  0
LINE
  5
30f
100
AcDbEntity
  8
Layer_1
 62
7
100
AcDbLine
 10
335.034382
 20
317.733212
 30
0.0
 11
335.076715
 21
314.727545
 31
0.0
  0
LINE
  5
310
100
AcDbEntity
  8
Layer_1
 62
7
100
AcDbLine
 10
335.076715
 20
314.727545
 30
0.0
 11
335.097882
 21
311.721880
 31
0.0
  0
LINE
  5
311
100
AcDbEntity
  8
Layer_1
 62
7
100
AcDbLine
 10
335.097882
 20
311.721880
 30
0.0
 11
335.119049
 21
305.699963
 31
0.0
  0
LINE
  5
312
100
AcDbEntity
  8
Layer_1
 62
7
100
AcDbLine
 10
335.119049
 20
305.699963
 30
0.0
 11
324.959049
 21
305.699963
 31
0.0
  0
LINE
  5
313
100
AcDbEntity
  8
Layer_1
 62
7
100
AcDbLine
 10
324.959049
 20
305.699963
 30
0.0
 11
324.959049
 21
218.800212
 31
0.0
  0
LINE
  5
314
100
AcDbEntity
  8
Layer_1
 62
7
100
AcDbLine
 10
324.959049
 20
218.800212
 30
0.0
 11
298.924046
 21
218.800212
 31
0.0
  0
LINE
  5
315
100
AcDbEntity
  8
Layer_1
 62
7
100
AcDbLine
 10
298.924046
 20
218.800212
 30
0.0
 11
298.924046
 21
171.312796
 31
0.0
  0
LINE
  5
316
100
AcDbEntity
  8
Layer_1
 62
7
100
AcDbLine
 10
298.924046
 20
171.312796
 30
0.0
 11
324.959049
 21
171.312796
 31
0.0
  0
LINE
  5
317
100
AcDbEntity
  8
Layer_1
 62
7
100
AcDbLine
 10
324.959049
 20
171.312796
 30
0.0
 11
324.959049
 21
78.994393
 31
0.0
  0
LINE
  5
318
100
AcDbEntity
  8
Layer_1
 62
7
100
AcDbLine
 10
378.301702
 20
225.822861
 30
0.0
 11
378.301702
 21
308.404610
 31
0.0
  0
LINE
  5
319
100
AcDbEntity
  8
Layer_1
 62
7
100
AcDbLine
 10
378.301702
 20
308.404610
 30
0.0
 11
383.381702
 21
308.404610
 31
0.0
  0
LINE
  5
31a
100
AcDbEntity
  8
Layer_1
 62
7
100
AcDbLine
 10
383.381702
 20
308.404610
 30
0.0
 11
383.413452
 21
315.463693
 31
0.0
  0
LINE
  5
31b
100
AcDbEntity
  8
Layer_1
 62
7
100
AcDbLine
 10
383.413452
 20
315.463693
 30
0.0
 11
383.424176
 21
318.998526
 31
0.0
  0
LINE
  5
31c
100
AcDbEntity
  8
Layer_1
 62
7
100
AcDbLine
 10
383.424176
 20
318.998526
 30
0.0
 11
383.413452
 21
322.522776
 31
0.0
  0
LINE
  5
31d
100
AcDbEntity
  8
Layer_1
 62
7
100
AcDbLine
 10
383.413452
 20
322.522776
 30
0.0
 11
383.381702
 21
326.057611
 31
0.0
  0
LINE
  5
31e
100
AcDbEntity
  8
Layer_1
 62
7
100
AcDbLine
 10
383.381702
 20
326.057611
 30
0.0
 11
383.307618
 21
329.581861
 31
0.0
  0
LINE
  5
31f
100
AcDbEntity
  8
Layer_1
 62
7
100
AcDbLine
 10
383.307618
 20
329.581861
 30
0.0
 11
383.254702
 21
331.349277
 31
0.0
  0
LINE
  5
320
100
AcDbEntity
  8
Layer_1
 62
7
100
AcDbLine
 10
383.254702
 20
331.349277
 30
0.0
 11
383.191202
 21
333.116694
 31
0.0
  0
LINE
  5
321
100
AcDbEntity
  8
Layer_1
 62
7
100
AcDbLine
 10
383.191202
 20
333.116694
 30
0.0
 11
383.117118
 21
334.873527
 31
0.0
  0
LINE
  5
322
100
AcDbEntity
  8
Layer_1
 62
7
100
AcDbLine
 10
383.117118
 20
334.873527
 30
0.0
 11
383.021868
 21
336.640944
 31
0.0
  0
LINE
  5
323
100
AcDbEntity
  8
Layer_1
 62
7
100
AcDbLine
 10
383.021868
 20
336.640944
 30
0.0
 11
382.926618
 21
338.397777
 31
0.0
  0
LINE
  5
324
100
AcDbEntity
  8
Layer_1
 62
7
100
AcDbLine
 10
382.926618
 20
338.397777
 30
0.0
 11
382.810202
 21
340.165194
 31
0.0
  0
LINE
  5
325
100
AcDbEntity
  8
Layer_1
 62
7
100
AcDbLine
 10
382.810202
 20
340.165194
 30
0.0
 11
382.672618
 21
341.922027
 31
0.0
  0
LINE
  5
326
100
AcDbEntity
  8
Layer_1
 62
7
100
AcDbLine
 10
382.672618
 20
341.922027
 30
0.0
 11
382.513868
 21
343.678861
 31
0.0
  0
LINE
  5
327
100
AcDbEntity
  8
Layer_1
 62
7
100
AcDbLine
 10
382.513868
 20
343.678861
 30
0.0
 11
382.333952
 21
345.435694
 31
0.0
  0
LINE
  5
328
100
AcDbEntity
  8
Layer_1
 62
7
100
AcDbLine
 10
382.333952
 20
345.435694
 30
0.0
 11
382.143452
 21
347.192527
 31
0.0
  0
LINE
  5
329
100
AcDbEntity
  8
Layer_1
 62
7
100
AcDbLine
 10
382.143452
 20
347.192527
 30
0.0
 11
381.921202
 21
348.938777
 31
0.0
  0
LINE
  5
32a
100
AcDbEntity
  8
Layer_1
 62
7
100
AcDbLine
 10
381.921202
 20
348.938777
 30
0.0
 11
381.667202
 21
350.685027
 31
0.0
  0
LINE
  5
32b
100
AcDbEntity
  8
Layer_1
 62
7
100
AcDbLine
 10
381.667202
 20
350.685027
 30
0.0
 11
381.381452
 21
352.431277
 31
0.0
  0
LINE
  5
32c
100
AcDbEntity
  8
Layer_1
 62
7
100
AcDbLine
 10
381.381452
 20
352.431277
 30
0.0
 11
381.074535
 21
354.166944
 31
0.0
  0
LINE
  5
32d
100
AcDbEntity
  8
Layer_1
 62
7
100
AcDbLine
 10
381.074535
 20
354.166944
 30
0.0
 11
380.725285
 21
355.902611
 31
0.0
  0
LINE
  5
32e
100
AcDbEntity
  8
Layer_1
 62
7
100
AcDbLine
 10
380.725285
 20
355.902611
 30
0.0
 11
380.524202
 21
356.759861
 31
0.0
  0
LINE
  5
32f
100
AcDbEntity
  8
Layer_1
 62
7
100
AcDbLine
 10
380.524202
 20
356.759861
 30
0.0
 11
380.323118
 21
357.617111
 31
0.0
  0
LINE
  5
330
100
AcDbEntity
  8
Layer_1
 62
7
100
AcDbLine
 10
380.323118
 20
357.617111
 30
0.0
 11
380.111452
 21
358.474361
 31
0.0
  0
LINE
  5
331
100
AcDbEntity
  8
Layer_1
 62
7
100
AcDbLine
 10
380.111452
 20
358.474361
 30
0.0
 11
379.878618
 21
359.331611
 31
0.0
  0
LINE
  5
332
100
AcDbEntity
  8
Layer_1
 62
7
100
AcDbLine
 10
379.878618
 20
359.331611
 30
0.0
 11
379.635202
 21
360.178277
 31
0.0
  0
LINE
  5
333
100
AcDbEntity
  8
Layer_1
 62
7
100
AcDbLine
 10
379.635202
 20
360.178277
 30
0.0
 11
379.370618
 21
361.024944
 31
0.0
  0
LINE
  5
334
100
AcDbEntity
  8
Layer_1
 62
7
100
AcDbLine
 10
379.370618
 20
361.024944
 30
0.0
 11
379.095452
 21
361.861027
 31
0.0
  0
LINE
  5
335
100
AcDbEntity
  8
Layer_1
 62
7
100
AcDbLine
 10
379.095452
 20
361.861027
 30
0.0
 11
378.799118
 21
362.697111
 31
0.0
  0
LINE
  5
336
100
AcDbEntity
  8
Layer_1
 62
7
100
AcDbLine
 10
378.799118
 20
362.697111
 30
0.0
 11
378.492202
 21
363.522611
 31
0.0
  0
LINE
  5
337
100
AcDbEntity
  8
Layer_1
 62
7
100
AcDbLine
 10
378.492202
 20
363.522611
 30
0.0
 11
378.153535
 21
364.337527
 31
0.0
  0
LINE
  5
338
100
AcDbEntity
  8
Layer_1
 62
7
100
AcDbLine
 10
378.153535
 20
364.337527
 30
0.0
 11
377.793702
 21
365.141861
 31
0.0
  0
LINE
  5
339
100
AcDbEntity
  8
Layer_1
 62
7
100
AcDbLine
 10
377.793702
 20
365.141861
 30
0.0
 11
377.402118
 21
365.935611
 31
0.0
  0
LINE
  5
33a
100
AcDbEntity
  8
Layer_1
 62
7
100
AcDbLine
 10
377.402118
 20
365.935611
 30
0.0
 11
376.989368
 21
366.718777
 31
0.0
  0
LINE
  5
33b
100
AcDbEntity
  8
Layer_1
 62
7
100
AcDbLine
 10
376.989368
 20
366.718777
 30
0.0
 11
376.544868
 21
367.480777
 31
0.0
  0
LINE
  5
33c
100
AcDbEntity
  8
Layer_1
 62
7
100
AcDbLine
 10
376.544868
 20
367.480777
 30
0.0
 11
376.301452
 21
367.861777
 31
0.0
  0
LINE
  5
33d
100
AcDbEntity
  8
Layer_1
 62
7
100
AcDbLine
 10
376.301452
 20
367.861777
 30
0.0
 11
376.058035
 21
368.232194
 31
0.0
  0
LINE
  5
33e
100
AcDbEntity
  8
Layer_1
 62
7
100
AcDbLine
 10
376.058035
 20
368.232194
 30
0.0
 11
375.804035
 21
368.592027
 31
0.0
  0
LINE
  5
33f
100
AcDbEntity
  8
Layer_1
 62
7
100
AcDbLine
 10
375.804035
 20
368.592027
 30
0.0
 11
375.539452
 21
368.951861
 31
0.0
  0
LINE
  5
340
100
AcDbEntity
  8
Layer_1
 62
7
100
AcDbLine
 10
375.539452
 20
368.951861
 30
0.0
 11
375.264285
 21
369.301111
 31
0.0
  0
LINE
  5
341
100
AcDbEntity
  8
Layer_1
 62
7
100
AcDbLine
 10
375.264285
 20
369.301111
 30
0.0
 11
374.978535
 21
369.639777
 31
0.0
  0
LINE
  5
342
100
AcDbEntity
  8
Layer_1
 62
7
100
AcDbLine
 10
374.978535
 20
369.639777
 30
0.0
 11
374.682202
 21
369.967861
 31
0.0
  0
LINE
  5
343
100
AcDbEntity
  8
Layer_1
 62
7
100
AcDbLine
 10
374.682202
 20
369.967861
 30
0.0
 11
374.375285
 21
370.285361
 31
0.0
  0
LINE
  5
344
100
AcDbEntity
  8
Layer_1
 62
7
100
AcDbLine
 10
374.375285
 20
370.285361
 30
0.0
 11
374.057785
 21
370.592277
 31
0.0
  0
LINE
  5
345
100
AcDbEntity
  8
Layer_1
 62
7
100
AcDbLine
 10
374.057785
 20
370.592277
 30
0.0
 11
373.719118
 21
370.878027
 31
0.0
  0
LINE
  5
346
100
AcDbEntity
  8
Layer_1
 62
7
100
AcDbLine
 10
373.719118
 20
370.878027
 30
0.0
 11
373.380452
 21
371.163777
 31
0.0
  0
LINE
  5
347
100
AcDbEntity
  8
Layer_1
 62
7
100
AcDbLine
 10
373.380452
 20
371.163777
 30
0.0
 11
373.020618
 21
371.428361
 31
0.0
  0
LINE
  5
348
100
AcDbEntity
  8
Layer_1
 62
7
100
AcDbLine
 10
373.020618
 20
371.428361
 30
0.0
 11
372.650202
 21
371.671777
 31
0.0
  0
LINE
  5
349
100
AcDbEntity
  8
Layer_1
 62
7
100
AcDbLine
 10
372.650202
 20
371.671777
 30
0.0
 11
372.269202
 21
371.904611
 31
0.0
  0
LINE
  5
34a
100
AcDbEntity
  8
Layer_1
 62
7
100
AcDbLine
 10
372.269202
 20
371.904611
 30
0.0
 11
371.888202
 21
372.105694
 31
0.0
  0
LINE
  5
34b
100
AcDbEntity
  8
Layer_1
 62
7
100
AcDbLine
 10
371.888202
 20
372.105694
 30
0.0
 11
371.486035
 21
372.296194
 31
0.0
  0
LINE
  5
34c
100
AcDbEntity
  8
Layer_1
 62
7
100
AcDbLine
 10
371.486035
 20
372.296194
 30
0.0
 11
371.073285
 21
372.465527
 31
0.0
  0
LINE
  5
34d
100
AcDbEntity
  8
Layer_1
 62
7
100
AcDbLine
 10
371.073285
 20
372.465527
 30
0.0
 11
370.660535
 21
372.613694
 31
0.0
  0
LINE
  5
34e
100
AcDbEntity
  8
Layer_1
 62
7
100
AcDbLine
 10
370.660535
 20
372.613694
 30
0.0
 11
370.237202
 21
372.730111
 31
0.0
  0
LINE
  5
34f
100
AcDbEntity
  8
Layer_1
 62
7
100
AcDbLine
 10
370.237202
 20
372.730111
 30
0.0
 11
369.803285
 21
372.835944
 31
0.0
  0
LINE
  5
350
100
AcDbEntity
  8
Layer_1
 62
7
100
AcDbLine
 10
369.803285
 20
372.835944
 30
0.0
 11
369.369368
 21
372.910027
 31
0.0
  0
LINE
  5
351
100
AcDbEntity
  8
Layer_1
 62
7
100
AcDbLine
 10
369.369368
 20
372.910027
 30
0.0
 11
368.924868
 21
372.973527
 31
0.0
  0
LINE
  5
352
100
AcDbEntity
  8
Layer_1
 62
7
100
AcDbLine
 10
368.924868
 20
372.973527
 30
0.0
 11
368.480368
 21
373.005277
 31
0.0
  0
LINE
  5
353
100
AcDbEntity
  8
Layer_1
 62
7
100
AcDbLine
 10
368.480368
 20
373.005277
 30
0.0
 11
368.046452
 21
373.016002
 31
0.0
  0
LINE
  5
354
100
AcDbEntity
  8
Layer_1
 62
7
100
AcDbLine
 10
368.046452
 20
373.016002
 30
0.0
 11
367.601952
 21
372.984252
 31
0.0
  0
LINE
  5
355
100
AcDbEntity
  8
Layer_1
 62
7
100
AcDbLine
 10
367.601952
 20
372.984252
 30
0.0
 11
367.168035
 21
372.920752
 31
0.0
  0
LINE
  5
356
100
AcDbEntity
  8
Layer_1
 62
7
100
AcDbLine
 10
367.168035
 20
372.920752
 30
0.0
 11
366.734118
 21
372.825502
 31
0.0
  0
LINE
  5
357
100
AcDbEntity
  8
Layer_1
 62
7
100
AcDbLine
 10
366.734118
 20
372.825502
 30
0.0
 11
366.310785
 21
372.698502
 31
0.0
  0
LINE
  5
358
100
AcDbEntity
  8
Layer_1
 62
7
100
AcDbLine
 10
366.310785
 20
372.698502
 30
0.0
 11
365.898035
 21
372.529169
 31
0.0
  0
LINE
  5
359
100
AcDbEntity
  8
Layer_1
 62
7
100
AcDbLine
 10
365.898035
 20
372.529169
 30
0.0
 11
365.495868
 21
372.349252
 31
0.0
  0
LINE
  5
35a
100
AcDbEntity
  8
Layer_1
 62
7
100
AcDbLine
 10
365.495868
 20
372.349252
 30
0.0
 11
365.104285
 21
372.137585
 31
0.0
  0
LINE
  5
35b
100
AcDbEntity
  8
Layer_1
 62
7
100
AcDbLine
 10
365.104285
 20
372.137585
 30
0.0
 11
364.723285
 21
371.904752
 31
0.0
  0
LINE
  5
35c
100
AcDbEntity
  8
Layer_1
 62
7
100
AcDbLine
 10
364.723285
 20
371.904752
 30
0.0
 11
364.363452
 21
371.650752
 31
0.0
  0
LINE
  5
35d
100
AcDbEntity
  8
Layer_1
 62
7
100
AcDbLine
 10
364.363452
 20
371.650752
 30
0.0
 11
364.003618
 21
371.386169
 31
0.0
  0
LINE
  5
35e
100
AcDbEntity
  8
Layer_1
 62
7
100
AcDbLine
 10
364.003618
 20
371.386169
 30
0.0
 11
363.664952
 21
371.111002
 31
0.0
  0
LINE
  5
35f
100
AcDbEntity
  8
Layer_1
 62
7
100
AcDbLine
 10
363.664952
 20
371.111002
 30
0.0
 11
363.336868
 21
370.814669
 31
0.0
  0
LINE
  5
360
100
AcDbEntity
  8
Layer_1
 62
7
100
AcDbLine
 10
363.336868
 20
370.814669
 30
0.0
 11
363.008785
 21
370.507752
 31
0.0
  0
LINE
  5
361
100
AcDbEntity
  8
Layer_1
 62
7
100
AcDbLine
 10
363.008785
 20
370.507752
 30
0.0
 11
362.691285
 21
370.200835
 31
0.0
  0
LINE
  5
362
100
AcDbEntity
  8
Layer_1
 62
7
100
AcDbLine
 10
362.691285
 20
370.200835
 30
0.0
 11
362.088035
 21
369.555252
 31
0.0
  0
LINE
  5
363
100
AcDbEntity
  8
Layer_1
 62
7
100
AcDbLine
 10
362.088035
 20
369.555252
 30
0.0
 11
361.516535
 21
368.888502
 31
0.0
  0
LINE
  5
364
100
AcDbEntity
  8
Layer_1
 62
7
100
AcDbLine
 10
361.516535
 20
368.888502
 30
0.0
 11
360.955618
 21
368.200585
 31
0.0
  0
LINE
  5
365
100
AcDbEntity
  8
Layer_1
 62
7
100
AcDbLine
 10
360.955618
 20
368.200585
 30
0.0
 11
360.426452
 21
367.502085
 31
0.0
  0
LINE
  5
366
100
AcDbEntity
  8
Layer_1
 62
7
100
AcDbLine
 10
360.426452
 20
367.502085
 30
0.0
 11
359.918452
 21
366.782419
 31
0.0
  0
LINE
  5
367
100
AcDbEntity
  8
Layer_1
 62
7
100
AcDbLine
 10
359.918452
 20
366.782419
 30
0.0
 11
359.421035
 21
366.041585
 31
0.0
  0
LINE
  5
368
100
AcDbEntity
  8
Layer_1
 62
7
100
AcDbLine
 10
359.421035
 20
366.041585
 30
0.0
 11
358.944785
 21
365.300752
 31
0.0
  0
LINE
  5
369
100
AcDbEntity
  8
Layer_1
 62
7
100
AcDbLine
 10
358.944785
 20
365.300752
 30
0.0
 11
358.489702
 21
364.549335
 31
0.0
  0
LINE
  5
36a
100
AcDbEntity
  8
Layer_1
 62
7
100
AcDbLine
 10
358.489702
 20
364.549335
 30
0.0
 11
358.045202
 21
363.776752
 31
0.0
  0
LINE
  5
36b
100
AcDbEntity
  8
Layer_1
 62
7
100
AcDbLine
 10
358.045202
 20
363.776752
 30
0.0
 11
357.611285
 21
363.004169
 31
0.0
  0
LINE
  5
36c
100
AcDbEntity
  8
Layer_1
 62
7
100
AcDbLine
 10
357.611285
 20
363.004169
 30
0.0
 11
357.198535
 21
362.231585
 31
0.0
  0
LINE
  5
36d
100
AcDbEntity
  8
Layer_1
 62
7
100
AcDbLine
 10
357.198535
 20
362.231585
 30
0.0
 11
356.383618
 21
360.654669
 31
0.0
  0
LINE
  5
36e
100
AcDbEntity
  8
Layer_1
 62
7
100
AcDbLine
 10
356.383618
 20
360.654669
 30
0.0
 11
355.611035
 21
359.067169
 31
0.0
  0
LINE
  5
36f
100
AcDbEntity
  8
Layer_1
 62
7
100
AcDbLine
 10
355.611035
 20
359.067169
 30
0.0
 11
354.870202
 21
357.469085
 31
0.0
  0
LINE
  5
370
100
AcDbEntity
  8
Layer_1
 62
7
100
AcDbLine
 10
354.870202
 20
357.469085
 30
0.0
 11
354.150535
 21
355.849835
 31
0.0
  0
LINE
  5
371
100
AcDbEntity
  8
Layer_1
 62
7
100
AcDbLine
 10
354.150535
 20
355.849835
 30
0.0
 11
353.462618
 21
354.230585
 31
0.0
  0
LINE
  5
372
100
AcDbEntity
  8
Layer_1
 62
7
100
AcDbLine
 10
353.462618
 20
354.230585
 30
0.0
 11
352.795868
 21
352.600752
 31
0.0
  0
LINE
  5
373
100
AcDbEntity
  8
Layer_1
 62
7
100
AcDbLine
 10
352.795868
 20
352.600752
 30
0.0
 11
352.139702
 21
350.949752
 31
0.0
  0
LINE
  5
374
100
AcDbEntity
  8
Layer_1
 62
7
100
AcDbLine
 10
352.139702
 20
350.949752
 30
0.0
 11
351.515285
 21
349.309335
 31
0.0
  0
LINE
  5
375
100
AcDbEntity
  8
Layer_1
 62
7
100
AcDbLine
 10
351.515285
 20
349.309335
 30
0.0
 11
350.901452
 21
347.647752
 31
0.0
  0
LINE
  5
376
100
AcDbEntity
  8
Layer_1
 62
7
100
AcDbLine
 10
350.901452
 20
347.647752
 30
0.0
 11
350.308785
 21
345.986169
 31
0.0
  0
LINE
  5
377
100
AcDbEntity
  8
Layer_1
 62
7
100
AcDbLine
 10
350.308785
 20
345.986169
 30
0.0
 11
349.726702
 21
344.324585
 31
0.0
  0
LINE
  5
378
100
AcDbEntity
  8
Layer_1
 62
7
100
AcDbLine
 10
349.726702
 20
344.324585
 30
0.0
 11
349.165785
 21
342.641835
 31
0.0
  0
LINE
  5
379
100
AcDbEntity
  8
Layer_1
 62
7
100
AcDbLine
 10
349.165785
 20
342.641835
 30
0.0
 11
348.615452
 21
340.969669
 31
0.0
  0
LINE
  5
37a
100
AcDbEntity
  8
Layer_1
 62
7
100
AcDbLine
 10
348.615452
 20
340.969669
 30
0.0
 11
348.075702
 21
339.286919
 31
0.0
  0
LINE
  5
37b
100
AcDbEntity
  8
Layer_1
 62
7
100
AcDbLine
 10
348.075702
 20
339.286919
 30
0.0
 11
347.557118
 21
337.604169
 31
0.0
  0
LINE
  5
37c
100
AcDbEntity
  8
Layer_1
 62
7
100
AcDbLine
 10
347.557118
 20
337.604169
 30
0.0
 11
347.038535
 21
335.921419
 31
0.0
  0
LINE
  5
37d
100
AcDbEntity
  8
Layer_1
 62
7
100
AcDbLine
 10
347.038535
 20
335.921419
 30
0.0
 11
346.530535
 21
334.228085
 31
0.0
  0
LINE
  5
37e
100
AcDbEntity
  8
Layer_1
 62
7
100
AcDbLine
 10
346.530535
 20
334.228085
 30
0.0
 11
345.556868
 21
330.830835
 31
0.0
  0
LINE
  5
37f
100
AcDbEntity
  8
Layer_1
 62
7
100
AcDbLine
 10
345.556868
 20
330.830835
 30
0.0
 11
344.614952
 21
327.433585
 31
0.0
  0
LINE
  5
380
100
AcDbEntity
  8
Layer_1
 62
7
100
AcDbLine
 10
344.614952
 20
327.433585
 30
0.0
 11
343.715368
 21
324.015167
 31
0.0
  0
LINE
  5
381
100
AcDbEntity
  8
Layer_1
 62
7
100
AcDbLine
 10
343.715368
 20
324.015167
 30
0.0
 11
343.281452
 21
322.300667
 31
0.0
  0
LINE
  5
382
100
AcDbEntity
  8
Layer_1
 62
7
100
AcDbLine
 10
343.281452
 20
322.300667
 30
0.0
 11
342.858118
 21
320.586167
 31
0.0
  0
LINE
  5
383
100
AcDbEntity
  8
Layer_1
 62
7
100
AcDbLine
 10
342.858118
 20
320.586167
 30
0.0
 11
342.455952
 21
318.871667
 31
0.0
  0
LINE
  5
384
100
AcDbEntity
  8
Layer_1
 62
7
100
AcDbLine
 10
342.455952
 20
318.871667
 30
0.0
 11
342.053785
 21
317.157167
 31
0.0
  0
LINE
  5
385
100
AcDbEntity
  8
Layer_1
 62
7
100
AcDbLine
 10
342.053785
 20
317.157167
 30
0.0
 11
341.662202
 21
315.432084
 31
0.0
  0
LINE
  5
386
100
AcDbEntity
  8
Layer_1
 62
7
100
AcDbLine
 10
341.662202
 20
315.432084
 30
0.0
 11
341.291785
 21
313.707001
 31
0.0
  0
LINE
  5
387
100
AcDbEntity
  8
Layer_1
 62
7
100
AcDbLine
 10
341.291785
 20
313.707001
 30
0.0
 11
340.931952
 21
311.981917
 31
0.0
  0
LINE
  5
388
100
AcDbEntity
  8
Layer_1
 62
7
100
AcDbLine
 10
340.931952
 20
311.981917
 30
0.0
 11
340.593285
 21
310.246251
 31
0.0
  0
LINE
  5
389
100
AcDbEntity
  8
Layer_1
 62
7
100
AcDbLine
 10
340.593285
 20
310.246251
 30
0.0
 11
340.265202
 21
308.510584
 31
0.0
  0
LINE
  5
38a
100
AcDbEntity
  8
Layer_1
 62
7
100
AcDbLine
 10
340.265202
 20
308.510584
 30
0.0
 11
339.947702
 21
306.774917
 31
0.0
  0
LINE
  5
38b
100
AcDbEntity
  8
Layer_1
 62
7
100
AcDbLine
 10
339.947702
 20
306.774917
 30
0.0
 11
339.661952
 21
305.028667
 31
0.0
  0
LINE
  5
38c
100
AcDbEntity
  8
Layer_1
 62
7
100
AcDbLine
 10
339.661952
 20
305.028667
 30
0.0
 11
339.386785
 21
303.293001
 31
0.0
  0
LINE
  5
38d
100
AcDbEntity
  8
Layer_1
 62
7
100
AcDbLine
 10
339.386785
 20
303.293001
 30
0.0
 11
339.132785
 21
301.546751
 31
0.0
  0
LINE
  5
38e
100
AcDbEntity
  8
Layer_1
 62
7
100
AcDbLine
 10
339.132785
 20
301.546751
 30
0.0
 11
338.889368
 21
299.800501
 31
0.0
  0
LINE
  5
38f
100
AcDbEntity
  8
Layer_1
 62
7
100
AcDbLine
 10
338.889368
 20
299.800501
 30
0.0
 11
338.667118
 21
298.043667
 31
0.0
  0
LINE
  5
390
100
AcDbEntity
  8
Layer_1
 62
7
100
AcDbLine
 10
338.667118
 20
298.043667
 30
0.0
 11
338.455452
 21
296.297417
 31
0.0
  0
LINE
  5
391
100
AcDbEntity
  8
Layer_1
 62
7
100
AcDbLine
 10
338.455452
 20
296.297417
 30
0.0
 11
338.254368
 21
294.540584
 31
0.0
  0
LINE
  5
392
100
AcDbEntity
  8
Layer_1
 62
7
100
AcDbLine
 10
338.254368
 20
294.540584
 30
0.0
 11
338.063868
 21
292.783751
 31
0.0
  0
LINE
  5
393
100
AcDbEntity
  8
Layer_1
 62
7
100
AcDbLine
 10
338.063868
 20
292.783751
 30
0.0
 11
337.714618
 21
289.270084
 31
0.0
  0
LINE
  5
394
100
AcDbEntity
  8
Layer_1
 62
7
100
AcDbLine
 10
337.714618
 20
289.270084
 30
0.0
 11
337.397118
 21
285.756417
 31
0.0
  0
LINE
  5
395
100
AcDbEntity
  8
Layer_1
 62
7
100
AcDbLine
 10
337.397118
 20
285.756417
 30
0.0
 11
337.100785
 21
282.232167
 31
0.0
  0
LINE
  5
396
100
AcDbEntity
  8
Layer_1
 62
7
100
AcDbLine
 10
337.100785
 20
282.232167
 30
0.0
 11
336.825618
 21
278.718501
 31
0.0
  0
LINE
  5
397
100
AcDbEntity
  8
Layer_1
 62
7
100
AcDbLine
 10
336.825618
 20
278.718501
 30
0.0
 11
336.571618
 21
275.194251
 31
0.0
  0
LINE
  5
398
100
AcDbEntity
  8
Layer_1
 62
7
100
AcDbLine
 10
336.571618
 20
275.194251
 30
0.0
 11
336.328202
 21
271.670001
 31
0.0
  0
LINE
  5
399
100
AcDbEntity
  8
Layer_1
 62
7
100
AcDbLine
 10
336.328202
 20
271.670001
 30
0.0
 11
336.116535
 21
268.145752
 31
0.0
  0
LINE
  5
39a
100
AcDbEntity
  8
Layer_1
 62
7
100
AcDbLine
 10
336.116535
 20
268.145752
 30
0.0
 11
335.915452
 21
264.621502
 31
0.0
  0
LINE
  5
39b
100
AcDbEntity
  8
Layer_1
 62
7
100
AcDbLine
 10
335.915452
 20
264.621502
 30
0.0
 11
335.735535
 21
261.097252
 31
0.0
  0
LINE
  5
39c
100
AcDbEntity
  8
Layer_1
 62
7
100
AcDbLine
 10
335.735535
 20
261.097252
 30
0.0
 11
335.587368
 21
257.573002
 31
0.0
  0
LINE
  5
39d
100
AcDbEntity
  8
Layer_1
 62
7
100
AcDbLine
 10
335.587368
 20
257.573002
 30
0.0
 11
335.439202
 21
254.048752
 31
0.0
  0
LINE
  5
39e
100
AcDbEntity
  8
Layer_1
 62
7
100
AcDbLine
 10
335.439202
 20
254.048752
 30
0.0
 11
335.312202
 21
250.524502
 31
0.0
  0
LINE
  5
39f
100
AcDbEntity
  8
Layer_1
 62
7
100
AcDbLine
 10
335.312202
 20
250.524502
 30
0.0
 11
335.195785
 21
246.989669
 31
0.0
  0
LINE
  5
3a0
100
AcDbEntity
  8
Layer_1
 62
7
100
AcDbLine
 10
335.195785
 20
246.989669
 30
0.0
 11
334.994702
 21
239.930585
 31
0.0
  0
LINE
  5
3a1
100
AcDbEntity
  8
Layer_1
 62
7
100
AcDbLine
 10
334.994702
 20
239.930585
 30
0.0
 11
334.825368
 21
232.882085
 31
0.0
  0
LINE
  5
3a2
100
AcDbEntity
  8
Layer_1
 62
7
100
AcDbLine
 10
334.825368
 20
232.882085
 30
0.0
 11
334.677202
 21
225.823002
 31
0.0
  0
LINE
  5
3a3
100
AcDbEntity
  8
Layer_1
 62
7
100
AcDbLine
 10
334.677202
 20
225.823002
 30
0.0
 11
378.301702
 21
225.823002
 31
0.0
  0
LINE
  5
3a4
100
AcDbEntity
  8
Layer_1
 62
3
100
AcDbLine
 10
225.079944
 20
286.482382
 30
0.0
 11
225.079944
 21
287.974632
 31
0.0
  0
LINE
  5
3a5
100
AcDbEntity
  8
Layer_1
 62
3
100
AcDbLine
 10
225.079944
 20
288.768382
 30
0.0
 11
225.079944
 21
290.260632
 31
0.0
  0
LINE
  5
3a6
100
AcDbEntity
  8
Layer_1
 62
3
100
AcDbLine
 10
221.269944
 20
294.070632
 30
0.0
 11
219.693027
 21
294.070632
 31
0.0
  0
LINE
  5
3a7
100
AcDbEntity
  8
Layer_1
 62
3
100
AcDbLine
 10
218.899277
 20
294.070632
 30
0.0
 11
217.311777
 21
294.070632
 31
0.0
  0
LINE
  5
3a8
100
AcDbEntity
  8
Layer_1
 62
3
100
AcDbLine
 10
216.518027
 20
294.070632
 30
0.0
 11
214.930527
 21
294.070632
 31
0.0
  0
LINE
  5
3a9
100
AcDbEntity
  8
Layer_1
 62
3
100
AcDbLine
 10
214.136777
 20
294.070632
 30
0.0
 11
212.549277
 21
294.070632
 31
0.0
  0
LINE
  5
3aa
100
AcDbEntity
  8
Layer_1
 62
3
100
AcDbLine
 10
211.755527
 20
294.070632
 30
0.0
 11
210.168027
 21
294.070632
 31
0.0
  0
LINE
  5
3ab
100
AcDbEntity
  8
Layer_1
 62
3
100
AcDbLine
 10
209.374277
 20
294.070632
 30
0.0
 11
207.786777
 21
294.070632
 31
0.0
  0
LINE
  5
3ac
100
AcDbEntity
  8
Layer_1
 62
3
100
AcDbLine
 10
206.993027
 20
294.070632
 30
0.0
 11
205.405527
 21
294.070632
 31
0.0
  0
LINE
  5
3ad
100
AcDbEntity
  8
Layer_1
 62
3
100
AcDbLine
 10
204.611777
 20
294.070632
 30
0.0
 11
203.024277
 21
294.070632
 31
0.0
  0
LINE
  5
3ae
100
AcDbEntity
  8
Layer_1
 62
3
100
AcDbLine
 10
202.230527
 20
294.070632
 30
0.0
 11
200.643027
 21
294.070632
 31
0.0
  0
LINE
  5
3af
100
AcDbEntity
  8
Layer_1
 62
3
100
AcDbLine
 10
199.849277
 20
294.070632
 30
0.0
 11
198.272360
 21
294.070632
 31
0.0
  0
LINE
  5
3b0
100
AcDbEntity
  8
Layer_1
 62
3
100
AcDbLine
 10
198.272360
 20
294.070632
 30
0.0
 11
197.870194
 21
294.049465
 31
0.0
  0
LINE
  5
3b1
100
AcDbEntity
  8
Layer_1
 62
3
100
AcDbLine
 10
197.870194
 20
294.049465
 30
0.0
 11
197.478610
 21
293.985965
 31
0.0
  0
LINE
  5
3b2
100
AcDbEntity
  8
Layer_1
 62
3
100
AcDbLine
 10
197.478610
 20
293.985965
 30
0.0
 11
197.097610
 21
293.880132
 31
0.0
  0
LINE
  5
3b3
100
AcDbEntity
  8
Layer_1
 62
3
100
AcDbLine
 10
197.097610
 20
293.880132
 30
0.0
 11
196.896527
 21
293.806048
 31
0.0
  0
LINE
  5
3b4
100
AcDbEntity
  8
Layer_1
 62
3
100
AcDbLine
 10
196.198027
 20
293.446215
 30
0.0
 11
196.028694
 21
293.340382
 31
0.0
  0
LINE
  5
3b5
100
AcDbEntity
  8
Layer_1
 62
3
100
AcDbLine
 10
196.028694
 20
293.340382
 30
0.0
 11
195.721777
 21
293.086382
 31
0.0
  0
LINE
  5
3b6
100
AcDbEntity
  8
Layer_1
 62
3
100
AcDbLine
 10
195.721777
 20
293.086382
 30
0.0
 11
195.446610
 21
292.811215
 31
0.0
  0
LINE
  5
3b7
100
AcDbEntity
  8
Layer_1
 62
3
100
AcDbLine
 10
195.446610
 20
292.811215
 30
0.0
 11
195.192610
 21
292.493715
 31
0.0
  0
LINE
  5
3b8
100
AcDbEntity
  8
Layer_1
 62
3
100
AcDbLine
 10
195.192610
 20
292.493715
 30
0.0
 11
195.086777
 21
292.334965
 31
0.0
  0
LINE
  5
3b9
100
AcDbEntity
  8
Layer_1
 62
3
100
AcDbLine
 10
194.726944
 20
291.625882
 30
0.0
 11
194.652860
 21
291.435382
 31
0.0
  0
LINE
  5
3ba
100
AcDbEntity
  8
Layer_1
 62
3
100
AcDbLine
 10
194.652860
 20
291.435382
 30
0.0
 11
194.547027
 21
291.054382
 31
0.0
  0
LINE
  5
3bb
100
AcDbEntity
  8
Layer_1
 62
3
100
AcDbLine
 10
194.547027
 20
291.054382
 30
0.0
 11
194.483527
 21
290.652215
 31
0.0
  0
LINE
  5
3bc
100
AcDbEntity
  8
Layer_1
 62
3
100
AcDbLine
 10
194.483527
 20
290.652215
 30
0.0
 11
194.462360
 21
290.260632
 31
0.0
  0
LINE
  5
3bd
100
AcDbEntity
  8
Layer_1
 62
3
100
AcDbLine
 10
225.079944
 20
290.260632
 30
0.0
 11
225.069501
 21
290.652215
 31
0.0
  0
LINE
  5
3be
100
AcDbEntity
  8
Layer_1
 62
3
100
AcDbLine
 10
225.069501
 20
290.652215
 30
0.0
 11
225.006001
 21
291.054382
 31
0.0
  0
LINE
  5
3bf
100
AcDbEntity
  8
Layer_1
 62
3
100
AcDbLine
 10
225.006001
 20
291.054382
 30
0.0
 11
224.900168
 21
291.435382
 31
0.0
  0
LINE
  5
3c0
100
AcDbEntity
  8
Layer_1
 62
3
100
AcDbLine
 10
224.900168
 20
291.435382
 30
0.0
 11
224.826085
 21
291.625882
 31
0.0
  0
LINE
  5
3c1
100
AcDbEntity
  8
Layer_1
 62
3
100
AcDbLine
 10
224.466110
 20
292.334965
 30
0.0
 11
224.360277
 21
292.493715
 31
0.0
  0
LINE
  5
3c2
100
AcDbEntity
  8
Layer_1
 62
3
100
AcDbLine
 10
224.360277
 20
292.493715
 30
0.0
 11
224.106277
 21
292.811215
 31
0.0
  0
LINE
  5
3c3
100
AcDbEntity
  8
Layer_1
 62
3
100
AcDbLine
 10
224.106277
 20
292.811215
 30
0.0
 11
223.820527
 21
293.086382
 31
0.0
  0
LINE
  5
3c4
100
AcDbEntity
  8
Layer_1
 62
3
100
AcDbLine
 10
223.820527
 20
293.086382
 30
0.0
 11
223.513610
 21
293.340382
 31
0.0
  0
LINE
  5
3c5
100
AcDbEntity
  8
Layer_1
 62
3
100
AcDbLine
 10
223.513610
 20
293.340382
 30
0.0
 11
223.344277
 21
293.446215
 31
0.0
  0
LINE
  5
3c6
100
AcDbEntity
  8
Layer_1
 62
3
100
AcDbLine
 10
222.645777
 20
293.806048
 30
0.0
 11
222.455277
 21
293.880132
 31
0.0
  0
LINE
  5
3c7
100
AcDbEntity
  8
Layer_1
 62
3
100
AcDbLine
 10
222.455277
 20
293.880132
 30
0.0
 11
222.063694
 21
293.985965
 31
0.0
  0
LINE
  5
3c8
100
AcDbEntity
  8
Layer_1
 62
3
100
AcDbLine
 10
222.063694
 20
293.985965
 30
0.0
 11
221.672110
 21
294.049465
 31
0.0
  0
LINE
  5
3c9
100
AcDbEntity
  8
Layer_1
 62
3
100
AcDbLine
 10
221.672110
 20
294.049465
 30
0.0
 11
221.269944
 21
294.070632
 31
0.0
  0
LINE
  5
3ca
100
AcDbEntity
  8
Layer_1
 62
7
100
AcDbLine
 10
271.244444
 20
371.836966
 30
0.0
 11
271.244444
 21
286.482382
 31
0.0
  0
LINE
  5
3cb
100
AcDbEntity
  8
Layer_1
 62
7
100
AcDbLine
 10
271.244444
 20
286.482382
 30
0.0
 11
265.402444
 21
286.482382
 31
0.0
  0
LINE
  5
3cc
100
AcDbEntity
  8
Layer_1
 62
7
100
AcDbLine
 10
265.402444
 20
286.482382
 30
0.0
 11
265.402444
 21
282.672382
 31
0.0
  0
LINE
  5
3cd
100
AcDbEntity
  8
Layer_1
 62
7
100
AcDbLine
 10
265.402444
 20
282.672382
 30
0.0
 11
257.464944
 21
282.672382
 31
0.0
  0
LINE
  5
3ce
100
AcDbEntity
  8
Layer_1
 62
7
100
AcDbLine
 10
257.464944
 20
282.672382
 30
0.0
 11
257.464944
 21
286.482382
 31
0.0
  0
LINE
  5
3cf
100
AcDbEntity
  8
Layer_1
 62
7
100
AcDbLine
 10
257.464944
 20
286.482382
 30
0.0
 11
162.077360
 21
286.482382
 31
0.0
  0
LINE
  5
3d0
100
AcDbEntity
  8
Layer_1
 62
7
100
AcDbLine
 10
162.077360
 20
286.482382
 30
0.0
 11
162.077360
 21
282.672382
 31
0.0
  0
LINE
  5
3d1
100
AcDbEntity
  8
Layer_1
 62
7
100
AcDbLine
 10
162.077360
 20
282.672382
 30
0.0
 11
154.139860
 21
282.672382
 31
0.0
  0
LINE
  5
3d2
100
AcDbEntity
  8
Layer_1
 62
7
100
AcDbLine
 10
154.139860
 20
282.672382
 30
0.0
 11
154.139860
 21
286.482382
 31
0.0
  0
LINE
  5
3d3
100
AcDbEntity
  8
Layer_1
 62
7
100
AcDbLine
 10
154.139860
 20
286.482382
 30
0.0
 11
148.308444
 21
286.482382
 31
0.0
  0
LINE
  5
3d4
100
AcDbEntity
  8
Layer_1
 62
7
100
AcDbLine
 10
148.308444
 20
286.482382
 30
0.0
 11
148.308444
 21
371.836966
 31
0.0
  0
LINE
  5
3d5
100
AcDbEntity
  8
Layer_1
 62
7
100
AcDbLine
 10
148.308444
 20
371.836966
 30
0.0
 11
271.244444
 21
371.836966
 31
0.0
  0
LINE
  5
3d6
100
AcDbEntity
  8
Layer_1
 62
3
100
AcDbLine
 10
194.462360
 20
290.260632
 30
0.0
 11
194.462360
 21
288.768382
 31
0.0
  0
LINE
  5
3d7
100
AcDbEntity
  8
Layer_1
 62
3
100
AcDbLine
 10
194.462360
 20
287.974632
 30
0.0
 11
194.462360
 21
286.482382
 31
0.0
  0
LINE
  5
3d8
100
AcDbEntity
  8
Layer_1
 62
3
100
AcDbLine
 10
197.065860
 20
335.398548
 30
0.0
 11
199.605860
 21
335.398548
 31
0.0
  0
LINE
  5
3d9
100
AcDbEntity
  8
Layer_1
 62
3
100
AcDbLine
 10
219.936444
 20
335.398548
 30
0.0
 11
222.465860
 21
335.398548
 31
0.0
  0
LINE
  5
3da
100
AcDbEntity
  8
Layer_1
 62
3
100
AcDbLine
 10
197.065860
 20
319.523548
 30
0.0
 11
222.465860
 21
319.523548
 31
0.0
  0
LINE
  5
3db
100
AcDbEntity
  8
Layer_1
 62
3
100
AcDbLine
 10
197.065860
 20
335.398548
 30
0.0
 11
197.065860
 21
316.983548
 31
0.0
  0
LINE
  5
3dc
100
AcDbEntity
  8
Layer_1
 62
3
100
AcDbLine
 10
197.065860
 20
316.983548
 30
0.0
 11
222.465860
 21
316.983548
 31
0.0
  0
LINE
  5
3dd
100
AcDbEntity
  8
Layer_1
 62
3
100
AcDbLine
 10
199.605860
 20
319.523548
 30
0.0
 11
199.605860
 21
335.398548
 31
0.0
  0
LINE
  5
3de
100
AcDbEntity
  8
Layer_1
 62
3
100
AcDbLine
 10
219.936444
 20
335.398548
 30
0.0
 11
219.936444
 21
319.523548
 31
0.0
  0
LINE
  5
3df
100
AcDbEntity
  8
Layer_1
 62
3
100
AcDbLine
 10
222.465860
 20
335.398548
 30
0.0
 11
222.465860
 21
316.983548
 31
0.0
  0
LINE
  5
3e0
100
AcDbEntity
  8
Layer_1
 62
3
100
AcDbLine
 10
210.813610
 20
333.821632
 30
0.0
 11
208.569944
 21
333.821632
 31
0.0
  0
LINE
  5
3e1
100
AcDbEntity
  8
Layer_1
 62
3
100
AcDbLine
 10
208.569944
 20
333.821632
 30
0.0
 11
203.945027
 21
321.121632
 31
0.0
  0
LINE
  5
3e2
100
AcDbEntity
  8
Layer_1
 62
3
100
AcDbLine
 10
203.945027
 20
321.121632
 30
0.0
 11
205.659527
 21
321.121632
 31
0.0
  0
LINE
  5
3e3
100
AcDbEntity
  8
Layer_1
 62
3
100
AcDbLine
 10
205.659527
 20
321.121632
 30
0.0
 11
206.908360
 21
324.656465
 31
0.0
  0
LINE
  5
3e4
100
AcDbEntity
  8
Layer_1
 62
3
100
AcDbLine
 10
206.908360
 20
324.656465
 30
0.0
 11
212.390527
 21
324.656465
 31
0.0
  0
LINE
  5
3e5
100
AcDbEntity
  8
Layer_1
 62
3
100
AcDbLine
 10
207.416360
 20
326.106382
 30
0.0
 11
209.649444
 21
332.339965
 31
0.0
  0
LINE
  5
3e6
100
AcDbEntity
  8
Layer_1
 62
3
100
AcDbLine
 10
209.649444
 20
332.339965
 30
0.0
 11
211.871944
 21
326.106382
 31
0.0
  0
LINE
  5
3e7
100
AcDbEntity
  8
Layer_1
 62
3
100
AcDbLine
 10
211.871944
 20
326.106382
 30
0.0
 11
207.416360
 21
326.106382
 31
0.0
  0
LINE
  5
3e8
100
AcDbEntity
  8
Layer_1
 62
3
100
AcDbLine
 10
212.390527
 20
324.656465
 30
0.0
 11
213.639360
 21
321.121632
 31
0.0
  0
LINE
  5
3e9
100
AcDbEntity
  8
Layer_1
 62
3
100
AcDbLine
 10
213.639360
 20
321.121632
 30
0.0
 11
215.438527
 21
321.121632
 31
0.0
  0
LINE
  5
3ea
100
AcDbEntity
  8
Layer_1
 62
3
100
AcDbLine
 10
215.438527
 20
321.121632
 30
0.0
 11
210.813610
 21
333.821632
 31
0.0
  0
LINE
  5
3eb
100
AcDbEntity
  8
Layer_1
 62
3
100
AcDbLine
 10
203.426444
 20
364.026465
 30
0.0
 11
203.447610
 21
363.518465
 31
0.0
  0
LINE
  5
3ec
100
AcDbEntity
  8
Layer_1
 62
3
100
AcDbLine
 10
203.447610
 20
363.518465
 30
0.0
 11
203.511110
 21
363.010465
 31
0.0
  0
LINE
  5
3ed
100
AcDbEntity
  8
Layer_1
 62
3
100
AcDbLine
 10
203.511110
 20
363.010465
 30
0.0
 11
203.553444
 21
362.798798
 31
0.0
  0
LINE
  5
3ee
100
AcDbEntity
  8
Layer_1
 62
3
100
AcDbLine
 10
203.743944
 20
362.026215
 30
0.0
 11
203.754386
 21
362.015773
 31
0.0
  0
LINE
  5
3ef
100
AcDbEntity
  8
Layer_1
 62
3
100
AcDbLine
 10
203.754386
 20
362.015773
 30
0.0
 11
203.934302
 21
361.539523
 31
0.0
  0
LINE
  5
3f0
100
AcDbEntity
  8
Layer_1
 62
3
100
AcDbLine
 10
203.934302
 20
361.539523
 30
0.0
 11
204.156552
 21
361.084439
 31
0.0
  0
LINE
  5
3f1
100
AcDbEntity
  8
Layer_1
 62
3
100
AcDbLine
 10
204.156552
 20
361.084439
 30
0.0
 11
204.410552
 21
360.639939
 31
0.0
  0
LINE
  5
3f2
100
AcDbEntity
  8
Layer_1
 62
3
100
AcDbLine
 10
204.410552
 20
360.639939
 30
0.0
 11
204.431719
 21
360.597606
 31
0.0
  0
LINE
  5
3f3
100
AcDbEntity
  8
Layer_1
 62
3
100
AcDbLine
 10
204.908110
 20
359.962465
 30
0.0
 11
205.024527
 21
359.824882
 31
0.0
  0
LINE
  5
3f4
100
AcDbEntity
  8
Layer_1
 62
3
100
AcDbLine
 10
205.024527
 20
359.824882
 30
0.0
 11
205.373777
 21
359.454465
 31
0.0
  0
LINE
  5
3f5
100
AcDbEntity
  8
Layer_1
 62
3
100
AcDbLine
 10
205.373777
 20
359.454465
 30
0.0
 11
205.754777
 21
359.115798
 31
0.0
  0
LINE
  5
3f6
100
AcDbEntity
  8
Layer_1
 62
3
100
AcDbLine
 10
205.754777
 20
359.115798
 30
0.0
 11
206.061694
 21
358.882965
 31
0.0
  0
LINE
  5
3f7
100
AcDbEntity
  8
Layer_1
 62
3
100
AcDbLine
 10
206.728444
 20
358.459632
 30
0.0
 11
207.056527
 21
358.290298
 31
0.0
  0
LINE
  5
3f8
100
AcDbEntity
  8
Layer_1
 62
3
100
AcDbLine
 10
207.056527
 20
358.290298
 30
0.0
 11
207.522194
 21
358.089215
 31
0.0
  0
LINE
  5
3f9
100
AcDbEntity
  8
Layer_1
 62
3
100
AcDbLine
 10
207.522194
 20
358.089215
 30
0.0
 11
208.009027
 21
357.930465
 31
0.0
  0
LINE
  5
3fa
100
AcDbEntity
  8
Layer_1
 62
3
100
AcDbLine
 10
208.009027
 20
357.930465
 30
0.0
 11
208.210110
 21
357.877548
 31
0.0
  0
LINE
  5
3fb
100
AcDbEntity
  8
Layer_1
 62
3
100
AcDbLine
 10
208.982694
 20
357.729382
 30
0.0
 11
209.003860
 21
357.729382
 31
0.0
  0
LINE
  5
3fc
100
AcDbEntity
  8
Layer_1
 62
3
100
AcDbLine
 10
209.003860
 20
357.729382
 30
0.0
 11
209.522444
 21
357.687048
 31
0.0
  0
LINE
  5
3fd
100
AcDbEntity
  8
Layer_1
 62
3
100
AcDbLine
 10
209.522444
 20
357.687048
 30
0.0
 11
210.030444
 21
357.687048
 31
0.0
  0
LINE
  5
3fe
100
AcDbEntity
  8
Layer_1
 62
3
100
AcDbLine
 10
210.030444
 20
357.687048
 30
0.0
 11
210.538444
 21
357.729382
 31
0.0
  0
LINE
  5
3ff
100
AcDbEntity
  8
Layer_1
 62
3
100
AcDbLine
 10
210.538444
 20
357.729382
 30
0.0
 11
210.570194
 21
357.729382
 31
0.0
  0
LINE
  5
400
100
AcDbEntity
  8
Layer_1
 62
3
100
AcDbLine
 10
211.342777
 20
357.888132
 30
0.0
 11
211.543860
 21
357.930465
 31
0.0
  0
LINE
  5
401
100
AcDbEntity
  8
Layer_1
 62
3
100
AcDbLine
 10
211.543860
 20
357.930465
 30
0.0
 11
212.030694
 21
358.089215
 31
0.0
  0
LINE
  5
402
100
AcDbEntity
  8
Layer_1
 62
3
100
AcDbLine
 10
212.030694
 20
358.089215
 30
0.0
 11
212.496360
 21
358.290298
 31
0.0
  0
LINE
  5
403
100
AcDbEntity
  8
Layer_1
 62
3
100
AcDbLine
 10
212.496360
 20
358.290298
 30
0.0
 11
212.824444
 21
358.459632
 31
0.0
  0
LINE
  5
404
100
AcDbEntity
  8
Layer_1
 62
3
100
AcDbLine
 10
213.491194
 20
358.882965
 30
0.0
 11
213.787527
 21
359.115798
 31
0.0
  0
LINE
  5
405
100
AcDbEntity
  8
Layer_1
 62
3
100
AcDbLine
 10
213.787527
 20
359.115798
 30
0.0
 11
214.168527
 21
359.454465
 31
0.0
  0
LINE
  5
406
100
AcDbEntity
  8
Layer_1
 62
3
100
AcDbLine
 10
214.168527
 20
359.454465
 30
0.0
 11
214.528360
 21
359.824882
 31
0.0
  0
LINE
  5
407
100
AcDbEntity
  8
Layer_1
 62
3
100
AcDbLine
 10
214.528360
 20
359.824882
 30
0.0
 11
214.644777
 21
359.962465
 31
0.0
  0
LINE
  5
408
100
AcDbEntity
  8
Layer_1
 62
3
100
AcDbLine
 10
215.121027
 20
360.608048
 30
0.0
 11
215.142194
 21
360.639798
 31
0.0
  0
LINE
  5
409
100
AcDbEntity
  8
Layer_1
 62
3
100
AcDbLine
 10
215.142194
 20
360.639798
 30
0.0
 11
215.396194
 21
361.084298
 31
0.0
  0
LINE
  5
40a
100
AcDbEntity
  8
Layer_1
 62
3
100
AcDbLine
 10
215.396194
 20
361.084298
 30
0.0
 11
215.618444
 21
361.539382
 31
0.0
  0
LINE
  5
40b
100
AcDbEntity
  8
Layer_1
 62
3
100
AcDbLine
 10
215.618444
 20
361.539382
 30
0.0
 11
215.798360
 21
362.015632
 31
0.0
  0
LINE
  5
40c
100
AcDbEntity
  8
Layer_1
 62
3
100
AcDbLine
 10
215.798360
 20
362.015632
 30
0.0
 11
215.798360
 21
362.036798
 31
0.0
  0
LINE
  5
40d
100
AcDbEntity
  8
Layer_1
 62
3
100
AcDbLine
 10
215.999444
 20
362.798798
 30
0.0
 11
216.041777
 21
363.010465
 31
0.0
  0
LINE
  5
40e
100
AcDbEntity
  8
Layer_1
 62
3
100
AcDbLine
 10
216.041777
 20
363.010465
 30
0.0
 11
216.105277
 21
363.518465
 31
0.0
  0
LINE
  5
40f
100
AcDbEntity
  8
Layer_1
 62
3
100
AcDbLine
 10
216.105277
 20
363.518465
 30
0.0
 11
216.126444
 21
364.026465
 31
0.0
  0
LINE
  5
410
100
AcDbEntity
  8
Layer_1
 62
3
100
AcDbLine
 10
216.126444
 20
364.026465
 30
0.0
 11
216.126444
 21
365.148298
 31
0.0
  0
LINE
  5
411
100
AcDbEntity
  8
Layer_1
 62
3
100
AcDbLine
 10
216.126444
 20
365.942048
 30
0.0
 11
216.126444
 21
367.529549
 31
0.0
  0
LINE
  5
412
100
AcDbEntity
  8
Layer_1
 62
3
100
AcDbLine
 10
216.126444
 20
368.323299
 30
0.0
 11
216.126444
 21
369.910799
 31
0.0
  0
LINE
  5
413
100
AcDbEntity
  8
Layer_1
 62
3
100
AcDbLine
 10
216.126444
 20
370.704549
 30
0.0
 11
216.126444
 21
371.836966
 31
0.0
  0
LINE
  5
414
100
AcDbEntity
  8
Layer_1
 62
3
100
AcDbLine
 10
203.426444
 20
364.026465
 30
0.0
 11
203.426444
 21
365.148298
 31
0.0
  0
LINE
  5
415
100
AcDbEntity
  8
Layer_1
 62
3
100
AcDbLine
 10
203.426444
 20
365.942048
 30
0.0
 11
203.426444
 21
367.529549
 31
0.0
  0
LINE
  5
416
100
AcDbEntity
  8
Layer_1
 62
3
100
AcDbLine
 10
203.426444
 20
368.323299
 30
0.0
 11
203.426444
 21
369.910799
 31
0.0
  0
LINE
  5
417
100
AcDbEntity
  8
Layer_1
 62
3
100
AcDbLine
 10
203.426444
 20
370.704549
 30
0.0
 11
203.426444
 21
371.836966
 31
0.0
  0
LINE
  5
418
100
AcDbEntity
  8
Layer_1
 62
1
100
AcDbLine
 10
180.017677
 20
371.866975
 30
0.0
 11
180.042879
 21
286.494751
 31
0.0
  0
LINE
  5
419
100
AcDbEntity
  8
Layer_1
 62
1
100
AcDbLine
 10
184.377002
 20
286.494751
 30
0.0
 11
184.373757
 21
371.838081
 31
0.0
  0
LINE
  5
41a
100
AcDbEntity
  8
Layer_1
 62
1
100
AcDbLine
 10
235.166919
 20
371.874090
 30
0.0
 11
235.192121
 21
286.501866
 31
0.0
  0
LINE
  5
41b
100
AcDbEntity
  8
Layer_1
 62
1
100
AcDbLine
 10
239.526244
 20
286.501866
 30
0.0
 11
239.522999
 21
371.845196
 31
0.0
  0
LINE
  5
41c
100
AcDbEntity
  8
Layer_1
 62
7
100
AcDbLine
 10
437.171056
 20
66.434291
 30
0.0
 11
437.171056
 21
218.834291
 31
0.0
  0
LINE
  5
41d
100
AcDbEntity
  8
Layer_1
 62
7
100
AcDbLine
 10
437.171056
 20
218.834291
 30
0.0
 11
408.088056
 21
218.834291
 31
0.0
  0
LINE
  5
41e
100
AcDbEntity
  8
Layer_1
 62
7
100
AcDbLine
 10
408.088056
 20
218.834291
 30
0.0
 11
408.088056
 21
66.434291
 31
0.0
  0
LINE
  5
41f
100
AcDbEntity
  8
Layer_1
 62
7
100
AcDbLine
 10
408.088056
 20
66.434291
 30
0.0
 11
437.171056
 21
66.434291
 31
0.0
  0
LINE
  5
420
100
AcDbEntity
  8
Layer_1
 62
7
100
AcDbLine
 10
400.114968
 20
66.749911
 30
0.0
 11
400.114968
 21
219.149911
 31
0.0
  0
LINE
  5
421
100
AcDbEntity
  8
Layer_1
 62
7
100
AcDbLine
 10
400.114968
 20
219.149911
 30
0.0
 11
371.021384
 21
219.149911
 31
0.0
  0
LINE
  5
422
100
AcDbEntity
  8
Layer_1
 62
7
100
AcDbLine
 10
371.021384
 20
219.149911
 30
0.0
 11
371.021384
 21
66.749911
 31
0.0
  0
LINE
  5
423
100
AcDbEntity
  8
Layer_1
 62
7
100
AcDbLine
 10
371.021384
 20
66.749911
 30
0.0
 11
400.114968
 21
66.749911
 31
0.0
  0
LINE
  5
424
100
AcDbEntity
  8
Layer_1
 62
7
100
AcDbLine
 10
365.334296
 20
65.947663
 30
0.0
 11
365.334296
 21
218.347663
 31
0.0
  0
LINE
  5
425
100
AcDbEntity
  8
Layer_1
 62
7
100
AcDbLine
 10
365.334296
 20
218.347663
 30
0.0
 11
336.240713
 21
218.347663
 31
0.0
  0
LINE
  5
426
100
AcDbEntity
  8
Layer_1
 62
7
100
AcDbLine
 10
336.240713
 20
218.347663
 30
0.0
 11
336.240713
 21
65.947663
 31
0.0
  0
LINE
  5
427
100
AcDbEntity
  8
Layer_1
 62
7
100
AcDbLine
 10
336.240713
 20
65.947663
 30
0.0
 11
365.334296
 21
65.947663
 31
0.0
  0
LINE
  5
428
100
AcDbEntity
  8
Layer_1
 62
7
100
AcDbLine
 10
486.285709
 20
60.667255
 30
0.0
 11
333.885709
 21
60.667255
 31
0.0
  0
LINE
  5
429
100
AcDbEntity
  8
Layer_1
 62
7
100
AcDbLine
 10
333.885709
 20
60.667255
 30
0.0
 11
333.885709
 21
31.573671
 31
0.0
  0
LINE
  5
42a
100
AcDbEntity
  8
Layer_1
 62
7
100
AcDbLine
 10
333.885709
 20
31.573671
 30
0.0
 11
486.285709
 21
31.573671
 31
0.0
  0
LINE
  5
42b
100
AcDbEntity
  8
Layer_1
 62
7
100
AcDbLine
 10
486.285709
 20
31.573671
 30
0.0
 11
486.285709
 21
60.667255
 31
0.0
  0
LINE
  5
42c
100
AcDbEntity
  8
Layer_1
 62
7
100
AcDbLine
 10
249.686408
 20
174.445180
 30
0.0
 11
249.686408
 21
133.170180
 31
0.0
  0
SPLINE
  5
42d
100
AcDbEntity
  8
Layer_1
 62
7
100
AcDbSpline
 70
8
 71
3
 72
8
 73
4
 74
0
 40
0
 40
0
 40
0
 40
0
 40
1
 40
1
 40
1
 40
1
 10
248.104186
 20
131.582680
 30
0.0
 10
248.983844
 20
131.582680
 30
0.0
 10
249.696992
 20
132.295796
 30
0.0
 10
249.696992
 20
133.175472
 30
0.0
  0
LINE
  5
42e
100
AcDbEntity
  8
Layer_1
 62
7
100
AcDbLine
 10
248.098908
 20
131.582680
 30
0.0
 11
233.673825
 21
131.582680
 31
0.0
  0
SPLINE
  5
42f
100
AcDbEntity
  8
Layer_1
 62
7
100
AcDbSpline
 70
8
 71
3
 72
8
 73
4
 74
0
 40
0
 40
0
 40
0
 40
0
 40
1
 40
1
 40
1
 40
1
 10
232.086325
 20
133.175472
 30
0.0
 10
232.086325
 20
132.295796
 30
0.0
 10
232.799444
 20
131.582680
 30
0.0
 10
233.679103
 20
131.582680
 30
0.0
  0
LINE
  5
430
100
AcDbEntity
  8
Layer_1
 62
7
100
AcDbLine
 10
249.686408
 20
245.237097
 30
0.0
 11
249.686408
 21
223.012097
 31
0.0
  0
LINE
  5
431
100
AcDbEntity
  8
Layer_1
 62
7
100
AcDbLine
 10
249.686408
 20
223.012097
 30
0.0
 11
232.086325
 21
223.012097
 31
0.0
  0
LINE
  5
432
100
AcDbEntity
  8
Layer_1
 62
7
100
AcDbLine
 10
211.258314
 20
108.860263
 30
0.0
 11
183.953314
 21
108.860263
 31
0.0
  0
SPLINE
  5
433
100
AcDbEntity
  8
Layer_1
 62
7
100
AcDbSpline
 70
8
 71
3
 72
8
 73
4
 74
0
 40
0
 40
0
 40
0
 40
0
 40
1
 40
1
 40
1
 40
1
 10
211.263605
 20
108.860263
 30
0.0
 10
214.773547
 20
108.860263
 30
0.0
 10
217.618908
 20
111.705619
 30
0.0
 10
217.618908
 20
115.215555
 30
0.0
  0
LINE
  5
434
100
AcDbEntity
  8
Layer_1
 62
7
100
AcDbLine
 10
177.603314
 20
115.210263
 30
0.0
 11
177.603314
 21
192.415680
 31
0.0
  0
SPLINE
  5
435
100
AcDbEntity
  8
Layer_1
 62
7
100
AcDbSpline
 70
8
 71
3
 72
8
 73
4
 74
0
 40
0
 40
0
 40
0
 40
0
 40
1
 40
1
 40
1
 40
1
 10
177.603314
 20
115.215555
 30
0.0
 10
177.603314
 20
111.705619
 30
0.0
 10
180.448684
 20
108.860263
 30
0.0
 10
183.958605
 20
108.860263
 30
0.0
  0
SPLINE
  5
436
100
AcDbEntity
  8
Layer_1
 62
7
100
AcDbSpline
 70
8
 71
3
 72
8
 73
4
 74
0
 40
0
 40
0
 40
0
 40
0
 40
1
 40
1
 40
1
 40
1
 10
183.958605
 20
198.776263
 30
0.0
 10
180.448684
 20
198.776263
 30
0.0
 10
177.603314
 20
195.930891
 30
0.0
 10
177.603314
 20
192.420972
 30
0.0
  0
LINE
  5
437
100
AcDbEntity
  8
Layer_1
 62
7
100
AcDbLine
 10
217.608325
 20
192.415680
 30
0.0
 11
217.608325
 21
115.210263
 31
0.0
  0
LINE
  5
438
100
AcDbEntity
  8
Layer_1
 62
7
100
AcDbLine
 10
232.086325
 20
245.237097
 30
0.0
 11
232.086325
 21
223.012097
 31
0.0
  0
LINE
  5
439
100
AcDbEntity
  8
Layer_1
 62
7
100
AcDbLine
 10
183.953314
 20
198.765680
 30
0.0
 11
211.258314
 21
198.765680
 31
0.0
  0
SPLINE
  5
43a
100
AcDbEntity
  8
Layer_1
 62
7
100
AcDbSpline
 70
8
 71
3
 72
8
 73
4
 74
0
 40
0
 40
0
 40
0
 40
0
 40
1
 40
1
 40
1
 40
1
 10
217.618908
 20
192.420972
 30
0.0
 10
217.618908
 20
195.930891
 30
0.0
 10
214.773547
 20
198.776263
 30
0.0
 10
211.263605
 20
198.776263
 30
0.0
  0
LINE
  5
43b
100
AcDbEntity
  8
Layer_1
 62
7
100
AcDbLine
 10
123.783028
 20
268.093064
 30
0.0
 11
123.783028
 21
39.482489
 31
0.0
  0
LINE
  5
43c
100
AcDbEntity
  8
Layer_1
 62
7
100
AcDbLine
 10
123.808228
 20
39.507691
 30
0.0
 11
271.403408
 21
39.507691
 31
0.0
  0
LINE
  5
43d
100
AcDbEntity
  8
Layer_1
 62
7
100
AcDbLine
 10
271.403408
 20
39.507691
 30
0.0
 11
271.403408
 21
268.118263
 31
0.0
  0
LINE
  5
43e
100
AcDbEntity
  8
Layer_1
 62
7
100
AcDbLine
 10
271.403408
 20
268.118263
 30
0.0
 11
123.808228
 21
268.118263
 31
0.0
  0
LINE
  5
43f
100
AcDbEntity
  8
Layer_1
 62
7
100
AcDbLine
 10
232.086325
 20
245.237097
 30
0.0
 11
249.686408
 21
245.237097
 31
0.0
  0
LINE
  5
440
100
AcDbEntity
  8
Layer_1
 62
7
100
AcDbLine
 10
233.673825
 20
176.032680
 30
0.0
 11
248.098908
 21
176.032680
 31
0.0
  0
SPLINE
  5
441
100
AcDbEntity
  8
Layer_1
 62
7
100
AcDbSpline
 70
8
 71
3
 72
8
 73
4
 74
0
 40
0
 40
0
 40
0
 40
0
 40
1
 40
1
 40
1
 40
1
 10
233.679103
 20
176.043263
 30
0.0
 10
232.799444
 20
176.043263
 30
0.0
 10
232.086325
 20
175.330147
 30
0.0
 10
232.086325
 20
174.450472
 30
0.0
  0
SPLINE
  5
442
100
AcDbEntity
  8
Layer_1
 62
7
100
AcDbSpline
 70
8
 71
3
 72
8
 73
4
 74
0
 40
0
 40
0
 40
0
 40
0
 40
1
 40
1
 40
1
 40
1
 10
249.696992
 20
174.450472
 30
0.0
 10
249.696992
 20
175.330147
 30
0.0
 10
248.983844
 20
176.043263
 30
0.0
 10
248.104186
 20
176.043263
 30
0.0
  0
LINE
  5
443
100
AcDbEntity
  8
Layer_1
 62
7
100
AcDbLine
 10
257.623908
 20
179.218263
 30
0.0
 11
265.561408
 21
179.218263
 31
0.0
  0
LINE
  5
444
100
AcDbEntity
  8
Layer_1
 62
7
100
AcDbLine
 10
265.561408
 20
179.218263
 30
0.0
 11
265.561408
 21
174.900263
 31
0.0
  0
LINE
  5
445
100
AcDbEntity
  8
Layer_1
 62
7
100
AcDbLine
 10
265.561408
 20
174.900263
 30
0.0
 11
257.623908
 21
174.900263
 31
0.0
  0
LINE
  5
446
100
AcDbEntity
  8
Layer_1
 62
7
100
AcDbLine
 10
257.623908
 20
174.900263
 30
0.0
 11
257.623908
 21
179.218263
 31
0.0
  0
LINE
  5
447
100
AcDbEntity
  8
Layer_1
 62
3
100
AcDbLine
 10
184.916397
 20
238.506097
 30
0.0
 11
187.456397
 21
238.506097
 31
0.0
  0
LINE
  5
448
100
AcDbEntity
  8
Layer_1
 62
3
100
AcDbLine
 10
207.776397
 20
238.506097
 30
0.0
 11
210.316397
 21
238.506097
 31
0.0
  0
LINE
  5
449
100
AcDbEntity
  8
Layer_1
 62
3
100
AcDbLine
 10
184.916397
 20
222.631097
 30
0.0
 11
210.316397
 21
222.631097
 31
0.0
  0
LINE
  5
44a
100
AcDbEntity
  8
Layer_1
 62
3
100
AcDbLine
 10
184.916397
 20
238.506097
 30
0.0
 11
184.916397
 21
220.091097
 31
0.0
  0
LINE
  5
44b
100
AcDbEntity
  8
Layer_1
 62
3
100
AcDbLine
 10
184.916397
 20
220.091097
 30
0.0
 11
210.316397
 21
220.091097
 31
0.0
  0
LINE
  5
44c
100
AcDbEntity
  8
Layer_1
 62
3
100
AcDbLine
 10
187.456397
 20
222.631097
 30
0.0
 11
187.456397
 21
238.506097
 31
0.0
  0
LINE
  5
44d
100
AcDbEntity
  8
Layer_1
 62
3
100
AcDbLine
 10
207.776397
 20
238.506097
 30
0.0
 11
207.776397
 21
222.631097
 31
0.0
  0
LINE
  5
44e
100
AcDbEntity
  8
Layer_1
 62
3
100
AcDbLine
 10
210.316397
 20
238.506097
 30
0.0
 11
210.316397
 21
220.091097
 31
0.0
  0
LINE
  5
44f
100
AcDbEntity
  8
Layer_1
 62
3
100
AcDbLine
 10
198.653564
 20
236.929180
 30
0.0
 11
196.409897
 21
236.929180
 31
0.0
  0
LINE
  5
450
100
AcDbEntity
  8
Layer_1
 62
3
100
AcDbLine
 10
196.409897
 20
236.929180
 30
0.0
 11
191.795564
 21
224.229180
 31
0.0
  0
LINE
  5
451
100
AcDbEntity
  8
Layer_1
 62
3
100
AcDbLine
 10
191.795564
 20
224.229180
 30
0.0
 11
193.499480
 21
224.229180
 31
0.0
  0
LINE
  5
452
100
AcDbEntity
  8
Layer_1
 62
3
100
AcDbLine
 10
193.499480
 20
224.229180
 30
0.0
 11
194.748314
 21
227.774597
 31
0.0
  0
LINE
  5
453
100
AcDbEntity
  8
Layer_1
 62
3
100
AcDbLine
 10
194.748314
 20
227.774597
 30
0.0
 11
200.230480
 21
227.774597
 31
0.0
  0
LINE
  5
454
100
AcDbEntity
  8
Layer_1
 62
3
100
AcDbLine
 10
195.256314
 20
229.224513
 30
0.0
 11
197.489397
 21
235.458097
 31
0.0
  0
LINE
  5
455
100
AcDbEntity
  8
Layer_1
 62
3
100
AcDbLine
 10
197.489397
 20
235.458097
 30
0.0
 11
199.711897
 21
229.224513
 31
0.0
  0
LINE
  5
456
100
AcDbEntity
  8
Layer_1
 62
3
100
AcDbLine
 10
199.711897
 20
229.224513
 30
0.0
 11
195.256314
 21
229.224513
 31
0.0
  0
LINE
  5
457
100
AcDbEntity
  8
Layer_1
 62
3
100
AcDbLine
 10
200.230480
 20
227.774597
 30
0.0
 11
201.479314
 21
224.229180
 31
0.0
  0
LINE
  5
458
100
AcDbEntity
  8
Layer_1
 62
3
100
AcDbLine
 10
201.479314
 20
224.229180
 30
0.0
 11
203.278480
 21
224.229180
 31
0.0
  0
LINE
  5
459
100
AcDbEntity
  8
Layer_1
 62
3
100
AcDbLine
 10
203.278480
 20
224.229180
 30
0.0
 11
198.653564
 21
236.929180
 31
0.0
  0
LINE
  5
45a
100
AcDbEntity
  8
Layer_1
 62
7
100
AcDbLine
 10
232.086325
 20
174.445180
 30
0.0
 11
232.086325
 21
133.170180
 31
0.0
  0
LINE
  5
45b
100
AcDbEntity
  8
Layer_1
 62
7
100
AcDbLine
 10
249.686408
 20
62.388858
 30
0.0
 11
249.686408
 21
84.613858
 31
0.0
  0
LINE
  5
45c
100
AcDbEntity
  8
Layer_1
 62
7
100
AcDbLine
 10
249.686408
 20
84.613858
 30
0.0
 11
232.086325
 21
84.613858
 31
0.0
  0
LINE
  5
45d
100
AcDbEntity
  8
Layer_1
 62
7
100
AcDbLine
 10
232.086325
 20
84.613858
 30
0.0
 11
232.086325
 21
62.388858
 31
0.0
  0
LINE
  5
45e
100
AcDbEntity
  8
Layer_1
 62
7
100
AcDbLine
 10
232.086325
 20
62.388858
 30
0.0
 11
249.686408
 21
62.388858
 31
0.0
  0
LINE
  5
45f
100
AcDbEntity
  8
Layer_1
 62
7
100
AcDbLine
 10
257.623908
 20
128.407680
 30
0.0
 11
265.561408
 21
128.407680
 31
0.0
  0
LINE
  5
460
100
AcDbEntity
  8
Layer_1
 62
7
100
AcDbLine
 10
265.561408
 20
128.407680
 30
0.0
 11
265.561408
 21
132.725680
 31
0.0
  0
LINE
  5
461
100
AcDbEntity
  8
Layer_1
 62
7
100
AcDbLine
 10
265.561408
 20
132.725680
 30
0.0
 11
257.623908
 21
132.725680
 31
0.0
  0
LINE
  5
462
100
AcDbEntity
  8
Layer_1
 62
7
100
AcDbLine
 10
257.623908
 20
132.725680
 30
0.0
 11
257.623908
 21
128.407680
 31
0.0
  0
LINE
  5
463
100
AcDbEntity
  8
Layer_1
 62
7
100
AcDbLine
 10
145.514644
 20
174.445180
 30
0.0
 11
145.514644
 21
133.170180
 31
0.0
  0
SPLINE
  5
464
100
AcDbEntity
  8
Layer_1
 62
7
100
AcDbSpline
 70
8
 71
3
 72
8
 73
4
 74
0
 40
0
 40
0
 40
0
 40
0
 40
1
 40
1
 40
1
 40
1
 10
145.514644
 20
133.175472
 30
0.0
 10
145.514644
 20
132.295796
 30
0.0
 10
146.227760
 20
131.582680
 30
0.0
 10
147.107436
 20
131.582680
 30
0.0
  0
LINE
  5
465
100
AcDbEntity
  8
Layer_1
 62
7
100
AcDbLine
 10
147.102144
 20
131.582680
 30
0.0
 11
161.537814
 21
131.582680
 31
0.0
  0
SPLINE
  5
466
100
AcDbEntity
  8
Layer_1
 62
7
100
AcDbSpline
 70
8
 71
3
 72
8
 73
4
 74
0
 40
0
 40
0
 40
0
 40
0
 40
1
 40
1
 40
1
 40
1
 10
161.543105
 20
131.582680
 30
0.0
 10
162.422781
 20
131.582680
 30
0.0
 10
163.135897
 20
132.295796
 30
0.0
 10
163.135897
 20
133.175472
 30
0.0
  0
LINE
  5
467
100
AcDbEntity
  8
Layer_1
 62
7
100
AcDbLine
 10
145.514644
 20
245.237097
 30
0.0
 11
145.514644
 21
223.012097
 31
0.0
  0
LINE
  5
468
100
AcDbEntity
  8
Layer_1
 62
7
100
AcDbLine
 10
145.514644
 20
223.012097
 30
0.0
 11
163.125314
 21
223.012097
 31
0.0
  0
LINE
  5
469
100
AcDbEntity
  8
Layer_1
 62
7
100
AcDbLine
 10
163.125314
 20
245.237097
 30
0.0
 11
163.125314
 21
223.012097
 31
0.0
  0
LINE
  5
46a
100
AcDbEntity
  8
Layer_1
 62
7
100
AcDbLine
 10
163.125314
 20
245.237097
 30
0.0
 11
145.514644
 21
245.237097
 31
0.0
  0
LINE
  5
46b
100
AcDbEntity
  8
Layer_1
 62
7
100
AcDbLine
 10
161.537814
 20
176.032680
 30
0.0
 11
147.102144
 21
176.032680
 31
0.0
  0
SPLINE
  5
46c
100
AcDbEntity
  8
Layer_1
 62
7
100
AcDbSpline
 70
8
 71
3
 72
8
 73
4
 74
0
 40
0
 40
0
 40
0
 40
0
 40
1
 40
1
 40
1
 40
1
 10
163.135897
 20
174.450472
 30
0.0
 10
163.135897
 20
175.330147
 30
0.0
 10
162.422781
 20
176.043263
 30
0.0
 10
161.543105
 20
176.043263
 30
0.0
  0
SPLINE
  5
46d
100
AcDbEntity
  8
Layer_1
 62
7
100
AcDbSpline
 70
8
 71
3
 72
8
 73
4
 74
0
 40
0
 40
0
 40
0
 40
0
 40
1
 40
1
 40
1
 40
1
 10
147.107436
 20
176.043263
 30
0.0
 10
146.227760
 20
176.043263
 30
0.0
 10
145.514644
 20
175.330147
 30
0.0
 10
145.514644
 20
174.450472
 30
0.0
  0
LINE
  5
46e
100
AcDbEntity
  8
Layer_1
 62
7
100
AcDbLine
 10
163.125314
 20
174.445180
 30
0.0
 11
163.125314
 21
133.170180
 31
0.0
  0
LINE
  5
46f
100
AcDbEntity
  8
Layer_1
 62
7
100
AcDbLine
 10
145.514644
 20
62.388858
 30
0.0
 11
145.514644
 21
84.613858
 31
0.0
  0
LINE
  5
470
100
AcDbEntity
  8
Layer_1
 62
7
100
AcDbLine
 10
145.514644
 20
84.613858
 30
0.0
 11
163.125314
 21
84.613858
 31
0.0
  0
LINE
  5
471
100
AcDbEntity
  8
Layer_1
 62
7
100
AcDbLine
 10
163.125314
 20
84.613858
 30
0.0
 11
163.125314
 21
62.388858
 31
0.0
  0
LINE
  5
472
100
AcDbEntity
  8
Layer_1
 62
7
100
AcDbLine
 10
163.125314
 20
62.388858
 30
0.0
 11
145.514644
 21
62.388858
 31
0.0
  0
LINE
  5
473
100
AcDbEntity
  8
Layer_1
 62
1
100
AcDbLine
 10
232.101390
 20
268.144471
 30
0.0
 11
232.101390
 21
39.500382
 31
0.0
  0
LINE
  5
474
100
AcDbEntity
  8
Layer_1
 62
1
100
AcDbLine
 10
227.751603
 20
268.165380
 30
0.0
 11
227.751603
 21
39.521295
 31
0.0
  0
LINE
  5
475
100
AcDbEntity
  8
Layer_1
 62
1
100
AcDbLine
 10
167.448687
 20
268.116336
 30
0.0
 11
167.448687
 21
39.472244
 31
0.0
  0
LINE
  5
476
100
AcDbEntity
  8
Layer_1
 62
1
100
AcDbLine
 10
163.098901
 20
268.137246
 30
0.0
 11
163.098901
 21
39.493157
 31
0.0
  0
LINE
  5
477
100
AcDbEntity
  8
Layer_1
 62
7
100
AcDbLine
 10
26.951582
 20
267.635999
 30
0.0
 11
117.883584
 21
267.635999
 31
0.0
  0
LINE
  5
478
100
AcDbEntity
  8
Layer_1
 62
7
100
AcDbLine
 10
117.883584
 20
267.635999
 30
0.0
 11
117.883584
 21
36.496005
 31
0.0
  0
LINE
  5
479
100
AcDbEntity
  8
Layer_1
 62
7
100
AcDbLine
 10
117.883584
 20
36.496005
 30
0.0
 11
26.951582
 21
36.496005
 31
0.0
  0
LINE
  5
47a
100
AcDbEntity
  8
Layer_1
 62
7
100
AcDbLine
 10
26.951582
 20
36.496005
 30
0.0
 11
26.951582
 21
61.896005
 31
0.0
  0
LINE
  5
47b
100
AcDbEntity
  8
Layer_1
 62
7
100
AcDbLine
 10
26.951582
 20
112.696005
 30
0.0
 11
26.951582
 21
191.435999
 31
0.0
  0
LINE
  5
47c
100
AcDbEntity
  8
Layer_1
 62
7
100
AcDbLine
 10
26.951582
 20
242.235999
 30
0.0
 11
26.951582
 21
267.635999
 31
0.0
  0
LINE
  5
47d
100
AcDbEntity
  8
Layer_1
 62
3
100
AcDbLine
 10
59.590582
 20
170.068249
 30
0.0
 11
62.130582
 21
170.068249
 31
0.0
  0
LINE
  5
47e
100
AcDbEntity
  8
Layer_1
 62
3
100
AcDbLine
 10
82.450582
 20
170.068249
 30
0.0
 11
84.990582
 21
170.068249
 31
0.0
  0
LINE
  5
47f
100
AcDbEntity
  8
Layer_1
 62
3
100
AcDbLine
 10
59.590582
 20
154.193249
 30
0.0
 11
84.990582
 21
154.193249
 31
0.0
  0
LINE
  5
480
100
AcDbEntity
  8
Layer_1
 62
3
100
AcDbLine
 10
59.590582
 20
170.068249
 30
0.0
 11
59.590582
 21
151.653249
 31
0.0
  0
LINE
  5
481
100
AcDbEntity
  8
Layer_1
 62
3
100
AcDbLine
 10
59.590582
 20
151.653249
 30
0.0
 11
84.990582
 21
151.653249
 31
0.0
  0
LINE
  5
482
100
AcDbEntity
  8
Layer_1
 62
3
100
AcDbLine
 10
62.130582
 20
154.193249
 30
0.0
 11
62.130582
 21
170.068249
 31
0.0
  0
LINE
  5
483
100
AcDbEntity
  8
Layer_1
 62
3
100
AcDbLine
 10
82.450582
 20
170.068249
 30
0.0
 11
82.450582
 21
154.193249
 31
0.0
  0
LINE
  5
484
100
AcDbEntity
  8
Layer_1
 62
3
100
AcDbLine
 10
84.990582
 20
170.068249
 30
0.0
 11
84.990582
 21
151.653249
 31
0.0
  0
LINE
  5
485
100
AcDbEntity
  8
Layer_1
 62
3
100
AcDbLine
 10
73.338332
 20
168.491333
 30
0.0
 11
71.084084
 21
168.491333
 31
0.0
  0
LINE
  5
486
100
AcDbEntity
  8
Layer_1
 62
3
100
AcDbLine
 10
71.084084
 20
168.491333
 30
0.0
 11
66.469748
 21
155.791333
 31
0.0
  0
LINE
  5
487
100
AcDbEntity
  8
Layer_1
 62
3
100
AcDbLine
 10
66.469748
 20
155.791333
 30
0.0
 11
68.184251
 21
155.791333
 31
0.0
  0
LINE
  5
488
100
AcDbEntity
  8
Layer_1
 62
3
100
AcDbLine
 10
68.184251
 20
155.791333
 30
0.0
 11
69.433084
 21
159.336749
 31
0.0
  0
LINE
  5
489
100
AcDbEntity
  8
Layer_1
 62
3
100
AcDbLine
 10
69.433084
 20
159.336749
 30
0.0
 11
74.915248
 21
159.336749
 31
0.0
  0
LINE
  5
48a
100
AcDbEntity
  8
Layer_1
 62
3
100
AcDbLine
 10
69.941084
 20
160.786666
 30
0.0
 11
72.174168
 21
167.020249
 31
0.0
  0
LINE
  5
48b
100
AcDbEntity
  8
Layer_1
 62
3
100
AcDbLine
 10
72.174168
 20
167.020249
 30
0.0
 11
74.396665
 21
160.786666
 31
0.0
  0
LINE
  5
48c
100
AcDbEntity
  8
Layer_1
 62
3
100
AcDbLine
 10
74.396665
 20
160.786666
 30
0.0
 11
69.941084
 21
160.786666
 31
0.0
  0
LINE
  5
48d
100
AcDbEntity
  8
Layer_1
 62
3
100
AcDbLine
 10
74.915248
 20
159.336749
 30
0.0
 11
76.164082
 21
155.791333
 31
0.0
  0
LINE
  5
48e
100
AcDbEntity
  8
Layer_1
 62
3
100
AcDbLine
 10
76.164082
 20
155.791333
 30
0.0
 11
77.952665
 21
155.791333
 31
0.0
  0
LINE
  5
48f
100
AcDbEntity
  8
Layer_1
 62
3
100
AcDbLine
 10
77.952665
 20
155.791333
 30
0.0
 11
73.338332
 21
168.491333
 31
0.0
  0
LINE
  5
490
100
AcDbEntity
  8
Layer_1
 62
7
100
AcDbLine
 10
59.717582
 20
101.266005
 30
0.0
 11
59.717582
 21
88.566005
 31
0.0
  0
SPLINE
  5
491
100
AcDbEntity
  8
Layer_1
 62
7
100
AcDbSpline
 70
8
 71
3
 72
8
 73
4
 74
0
 40
0
 40
0
 40
0
 40
0
 40
1
 40
1
 40
1
 40
1
 10
66.072873
 20
107.626588
 30
0.0
 10
62.562943
 20
107.626588
 30
0.0
 10
59.717582
 20
104.781224
 30
0.0
 10
59.717582
 20
101.271282
 30
0.0
  0
LINE
  5
492
100
AcDbEntity
  8
Layer_1
 62
7
100
AcDbLine
 10
85.117582
 20
101.266005
 30
0.0
 11
85.117582
 21
88.566005
 31
0.0
  0
SPLINE
  5
493
100
AcDbEntity
  8
Layer_1
 62
7
100
AcDbSpline
 70
8
 71
3
 72
8
 73
4
 74
0
 40
0
 40
0
 40
0
 40
0
 40
1
 40
1
 40
1
 40
1
 10
85.128165
 20
101.271282
 30
0.0
 10
85.128165
 20
104.781224
 30
0.0
 10
82.282792
 20
107.626588
 30
0.0
 10
78.772873
 20
107.626588
 30
0.0
  0
SPLINE
  5
494
100
AcDbEntity
  8
Layer_1
 62
7
100
AcDbSpline
 70
8
 71
3
 72
8
 73
4
 74
0
 40
0
 40
0
 40
0
 40
0
 40
1
 40
1
 40
1
 40
1
 10
78.772873
 20
82.216005
 30
0.0
 10
82.282792
 20
82.216005
 30
0.0
 10
85.128165
 20
85.061369
 30
0.0
 10
85.128165
 20
88.571282
 30
0.0
  0
LINE
  5
495
100
AcDbEntity
  8
Layer_1
 62
7
100
AcDbLine
 10
66.067582
 20
107.616005
 30
0.0
 11
78.767582
 21
107.616005
 31
0.0
  0
LINE
  5
496
100
AcDbEntity
  8
Layer_1
 62
7
100
AcDbLine
 10
66.067582
 20
82.216005
 30
0.0
 11
78.767582
 21
82.216005
 31
0.0
  0
SPLINE
  5
497
100
AcDbEntity
  8
Layer_1
 62
7
100
AcDbSpline
 70
8
 71
3
 72
8
 73
4
 74
0
 40
0
 40
0
 40
0
 40
0
 40
1
 40
1
 40
1
 40
1
 10
59.717582
 20
88.571282
 30
0.0
 10
59.717582
 20
85.061369
 30
0.0
 10
62.562943
 20
82.216005
 30
0.0
 10
66.072873
 20
82.216005
 30
0.0
  0
LINE
  5
498
100
AcDbEntity
  8
Layer_1
 62
7
100
AcDbLine
 10
59.717582
 20
202.865999
 30
0.0
 11
59.717582
 21
215.565999
 31
0.0
  0
SPLINE
  5
499
100
AcDbEntity
  8
Layer_1
 62
7
100
AcDbSpline
 70
8
 71
3
 72
8
 73
4
 74
0
 40
0
 40
0
 40
0
 40
0
 40
1
 40
1
 40
1
 40
1
 10
59.717582
 20
202.871291
 30
0.0
 10
59.717582
 20
199.361369
 30
0.0
 10
62.562943
 20
196.515999
 30
0.0
 10
66.072873
 20
196.515999
 30
0.0
  0
LINE
  5
49a
100
AcDbEntity
  8
Layer_1
 62
7
100
AcDbLine
 10
85.117582
 20
202.865999
 30
0.0
 11
85.117582
 21
215.565999
 31
0.0
  0
SPLINE
  5
49b
100
AcDbEntity
  8
Layer_1
 62
7
100
AcDbSpline
 70
8
 71
3
 72
8
 73
4
 74
0
 40
0
 40
0
 40
0
 40
0
 40
1
 40
1
 40
1
 40
1
 10
78.772873
 20
196.515999
 30
0.0
 10
82.282792
 20
196.515999
 30
0.0
 10
85.128165
 20
199.361369
 30
0.0
 10
85.128165
 20
202.871291
 30
0.0
  0
SPLINE
  5
49c
100
AcDbEntity
  8
Layer_1
 62
7
100
AcDbSpline
 70
8
 71
3
 72
8
 73
4
 74
0
 40
0
 40
0
 40
0
 40
0
 40
1
 40
1
 40
1
 40
1
 10
85.128165
 20
215.571291
 30
0.0
 10
85.128165
 20
219.081213
 30
0.0
 10
82.282792
 20
221.926583
 30
0.0
 10
78.772873
 20
221.926583
 30
0.0
  0
LINE
  5
49d
100
AcDbEntity
  8
Layer_1
 62
7
100
AcDbLine
 10
66.067582
 20
196.515999
 30
0.0
 11
78.767582
 21
196.515999
 31
0.0
  0
LINE
  5
49e
100
AcDbEntity
  8
Layer_1
 62
7
100
AcDbLine
 10
66.067582
 20
221.915999
 30
0.0
 11
78.767582
 21
221.915999
 31
0.0
  0
SPLINE
  5
49f
100
AcDbEntity
  8
Layer_1
 62
7
100
AcDbSpline
 70
8
 71
3
 72
8
 73
4
 74
0
 40
0
 40
0
 40
0
 40
0
 40
1
 40
1
 40
1
 40
1
 10
66.072873
 20
221.926583
 30
0.0
 10
62.562943
 20
221.926583
 30
0.0
 10
59.717582
 20
219.081213
 30
0.0
 10
59.717582
 20
215.571291
 30
0.0
  0
LINE
  5
4a0
100
AcDbEntity
  8
Layer_1
 62
7
100
AcDbLine
 10
26.951582
 20
242.235999
 30
0.0
 11
22.633582
 21
242.235999
 31
0.0
  0
LINE
  5
4a1
100
AcDbEntity
  8
Layer_1
 62
7
100
AcDbLine
 10
22.633582
 20
242.235999
 30
0.0
 11
22.633582
 21
191.435999
 31
0.0
  0
LINE
  5
4a2
100
AcDbEntity
  8
Layer_1
 62
7
100
AcDbLine
 10
22.633582
 20
191.435999
 30
0.0
 11
26.951582
 21
191.435999
 31
0.0
  0
LINE
  5
4a3
100
AcDbEntity
  8
Layer_1
 62
7
100
AcDbLine
 10
26.951582
 20
61.896005
 30
0.0
 11
22.633582
 21
61.896005
 31
0.0
  0
LINE
  5
4a4
100
AcDbEntity
  8
Layer_1
 62
7
100
AcDbLine
 10
22.633582
 20
61.896005
 30
0.0
 11
22.633582
 21
112.696005
 31
0.0
  0
LINE
  5
4a5
100
AcDbEntity
  8
Layer_1
 62
7
100
AcDbLine
 10
22.633582
 20
112.696005
 30
0.0
 11
26.951582
 21
112.696005
 31
0.0
  0
LINE
  5
4a6
100
AcDbEntity
  8
Layer_1
 62
1
100
AcDbLine
 10
100.493325
 20
267.661523
 30
0.0
 11
100.493325
 21
36.480886
 31
0.0
  0
LINE
  5
4a7
100
AcDbEntity
  8
Layer_1
 62
1
100
AcDbLine
 10
96.165086
 20
267.601071
 30
0.0
 11
96.165086
 21
36.420443
 31
0.0
  0
LINE
  5
4a8
100
AcDbEntity
  8
Layer_1
 62
1
100
AcDbLine
 10
48.686819
 20
267.668647
 30
0.0
 11
48.686819
 21
36.488001
 31
0.0
  0
LINE
  5
4a9
100
AcDbEntity
  8
Layer_1
 62
1
100
AcDbLine
 10
44.358580
 20
267.608195
 30
0.0
 11
44.358580
 21
36.427577
 31
0.0
  0
ENDSEC
  0
SECTION
  2
OBJECTS
  0
DICTIONARY
  5
C
330
0
100
AcDbDictionary
  3
ACAD_GROUP
350
D
  3
ACAD_MLINESTYLE
350
17
  0
DICTIONARY
  5
D
330
C
100
AcDbDictionary
  0
DICTIONARY
  5
1A
330
C
100
AcDbDictionary
  0
DICTIONARY
  5
17
330
C
100
AcDbDictionary
  3
STANDARD
350
18
  0
DICTIONARY
  5
19
330
C
100
AcDbDictionary
  0
ENDSEC
  0
EOF
