<?xml version="1.0" encoding="UTF-8" standalone="no"?>
<!-- Created with Inkscape (http://www.inkscape.org/) -->

<svg
   xmlns:dc="http://purl.org/dc/elements/1.1/"
   xmlns:cc="http://creativecommons.org/ns#"
   xmlns:rdf="http://www.w3.org/1999/02/22-rdf-syntax-ns#"
   xmlns:svg="http://www.w3.org/2000/svg"
   xmlns="http://www.w3.org/2000/svg"
   xmlns:xlink="http://www.w3.org/1999/xlink"
   xmlns:sodipodi="http://sodipodi.sourceforge.net/DTD/sodipodi-0.dtd"
   xmlns:inkscape="http://www.inkscape.org/namespaces/inkscape"
   width="500mm"
   height="380mm"
   viewBox="0 0 1771.6535 1346.4567"
   id="svg24286"
   version="1.1"
   inkscape:version="0.91 r13725"
   sodipodi:docname="5-Fins.svg">
  <defs
     id="defs24288">
    <clipPath
       id="clipPath46128"
       clipPathUnits="userSpaceOnUse">
      <path
         inkscape:connector-curvature="0"
         id="path46130"
         d="m 7199,1499 72000,0 0,48000 -72000,0 0,-48000" />
    </clipPath>
    <clipPath
       id="clipPath50248"
       clipPathUnits="userSpaceOnUse">
      <path
         inkscape:connector-curvature="0"
         id="path50250"
         d="m 0,0 81449,0 0,52649 L 0,52649 0,0" />
    </clipPath>
    <clipPath
       id="clipPath50400"
       clipPathUnits="userSpaceOnUse">
      <path
         inkscape:connector-curvature="0"
         id="path50402"
         d="m 0,0 81449,0 0,52649 L 0,52649 0,0" />
    </clipPath>
    <clipPath
       id="clipPath50408"
       clipPathUnits="userSpaceOnUse">
      <path
         inkscape:connector-curvature="0"
         id="path50410"
         d="m 0,0 81449,0 0,52649 L 0,52649 0,0" />
    </clipPath>
    <mask
       id="mask50414"
       height="1"
       width="1"
       y="0"
       x="0"
       maskUnits="userSpaceOnUse">
      <image
         sodipodi:absref="C:\Users\robert\Documents\Projects\LaserDesigns\FliteTest\FTSpear\FT_Spear_v1.0_Full-Size_img5.png"
         xlink:href="FT_Spear_v1.0_Full-Size_img5.png"
         width="1"
         height="1"
         preserveAspectRatio="none"
         id="image50416" />
    </mask>
  </defs>
  <sodipodi:namedview
     id="base"
     pagecolor="#ffffff"
     bordercolor="#666666"
     borderopacity="1.0"
     inkscape:pageopacity="0.0"
     inkscape:pageshadow="2"
     inkscape:zoom="0.24748737"
     inkscape:cx="1445.8306"
     inkscape:cy="930.28589"
     inkscape:document-units="px"
     inkscape:current-layer="layer1"
     showgrid="false"
     inkscape:window-width="1920"
     inkscape:window-height="1057"
     inkscape:window-x="633"
     inkscape:window-y="-8"
     inkscape:window-maximized="1" />
  <metadata
     id="metadata24291">
    <rdf:RDF>
      <cc:Work
         rdf:about="">
        <dc:format>image/svg+xml</dc:format>
        <dc:type
           rdf:resource="http://purl.org/dc/dcmitype/StillImage" />
        <dc:title></dc:title>
      </cc:Work>
    </rdf:RDF>
  </metadata>
  <g
     inkscape:label="Layer 1"
     inkscape:groupmode="layer"
     id="layer1"
     transform="translate(0,294.09449)">
    <path
       d="m 700.9043,619.79788 18.15,-5.475 9.0375,-2.775 9.0375,-2.8875 9.0375,-2.9625 8.9625,-3.0375 8.9625,-3.15 8.925,-3.225 8.8875,-3.2625 8.85,-3.375 8.85,-3.45 8.8125,-3.525 8.775,-3.6 8.7375,-3.675 8.7,-3.7875 8.6625,-3.825 8.6625,-3.9 8.5875,-4.0125 8.5875,-4.05 8.5125,-4.125 8.5125,-4.2 8.475,-4.275 8.4375,-4.35 8.4,-4.3875 8.3625,-4.4625 8.325,-4.5375 8.2875,-4.6125 8.2875,-4.65 8.2125,-4.725 8.2125,-4.7625 8.1375,-4.8375 8.1375,-4.875 8.1,-4.95 8.0625,-4.9875 8.0625,-5.0625 7.9875,-5.0625 7.9875,-5.1375 7.95,-5.175 7.9125,-5.25 7.875,-5.24997 7.875,-5.325 7.8,-5.36251 7.8,-5.3625 7.8,-5.4375 7.7625,-5.475 7.725,-5.475 7.6875,-5.55 7.6875,-5.55 15.3,-11.25 15.1875,-11.325 15.15,-11.475 15.0375,-11.5125 15,-11.6625 14.9625,-11.7 14.85,-11.775 14.8125,-11.8875 14.7375,-11.925 14.7,-12.0375 14.625,-12.075 14.55,-12.1875 14.475,-12.225 14.4375,-12.3375 14.325,-12.375 14.2875,-12.4875 14.2125,-12.525 14.175,-12.6 14.1375,-12.5625 14.2125,-12.5625 7.1625,-6.2625 7.1625,-6.225 7.2,-6.1875 7.275,-6.15 7.3125,-6.1125 7.35,-6 3.75,-2.925 3.75,-2.925 3.75,-2.8875 3.825,-2.85 3.825,-2.8125 3.8625,-2.7375 3.9,-2.7 3.9375,-2.625 3.975,-2.5875 3.975,-2.5125 4.0875,-2.4375 4.0875,-2.3625 4.125,-2.325 4.1625,-2.25 4.2375,-2.175 4.2375,-2.1375 4.2375,-2.1 4.3125,-2.025 4.3125,-1.9875 4.3125,-1.95 4.35,-1.9125 4.3875,-1.875 8.775,-3.675 8.775,-3.525 8.8875,-3.4125 4.425,-1.65 4.4625,-1.6125 4.4625,-1.575 4.5,-1.5375 4.5,-1.5 4.5,-1.4625 4.5375,-1.425 4.5375,-1.3875 4.5375,-1.35 4.575,-1.3125 4.575,-1.2375 4.575,-1.2 4.6125,-1.1625 4.6125,-1.0875 4.65,-1.05 4.6125,-0.975 4.6875,-0.9375 4.65,-0.8625 4.6875,-0.7875 4.6875,-0.75 4.6875,-0.675 4.6875,-0.6 4.725,-0.4875 4.725,-0.4125 4.725,-0.3375 4.7625,-0.225 4.725,-0.1125 4.7625,0.0375 2.3625,0.0375 2.4,0.1125 2.3625,0.15 2.3625,0.1875 2.3625,0.225 2.3625,0.3 2.3625,0.3375 2.325,0.375 2.3625,0.45 2.325,0.4875 2.2875,0.6 2.2875,0.6375 2.25,0.75 2.25,0.825 2.175,0.9 2.175,1.05 2.1,1.125 2.025,1.2375 1.9875,1.35 1.875,1.4625 0.9,0.7875 0.8625,0.7875 0.8625,0.8625 0.825,0.8625 0.7875,0.9 0.75,0.9 0.7125,0.975 0.675,0.975 0.6375,1.0125 0.6,1.05 0.5625,1.05 0.525,1.05 0.4875,1.0875 0.4125,1.125 0.375,1.125 0.3375,1.125 0.3,1.1625 0.225,1.1625 0.225,1.1625 0.15,1.2 0.225,2.3625 0.075,2.4 -0.037,2.4 -0.1125,2.3625 -0.2625,2.3625 -0.3,2.3625 -0.4125,2.325 -0.4875,2.325 -0.525,2.325 -0.6,2.2875 -0.675,2.2875 -0.675,2.25 -1.5,4.5 -3.1875,8.9625 -1.6125,4.4625 -1.5375,4.5 -1.4625,4.5 -1.425,4.5 -1.3875,4.5375 -1.35,4.575 -1.3125,4.5375 -1.2375,4.575 -2.4375,9.1875 -2.25,9.225 -2.175,9.225 -2.0625,9.2625 -1.95,9.3 -1.875,9.3 -1.7625,9.3 -1.65,9.375 -1.5375,9.3375 -1.425,9.375 -1.3125,9.4125 -1.1625,9.4125 -1.0875,9.4125 -0.9375,9.45 -0.7875,9.45 -0.7125,9.45 -0.6,9.4875 -0.45,9.4875 -0.375,9.45 -0.225,9.4875 -0.15,9.4875 -0.037,9.4875 0.037,9.4875 0.15,9.4875 0.2625,9.4875 0.3375,9.4875 0.4125,9.4875 0.525,9.45 0.6,9.4875 0.675,9.45 0.75,9.45001 0.825,9.45 0.8625,9.44997 0.9375,9.4125 0.975,9.45 1.05,9.4125 2.1375,18.8625 4.5375,37.65 1.0875,9.45 1.05,9.4125 0.975,9.45 0.9,9.45 0.75,9.45 0.3375,4.725 0.2625,4.725 0.2625,4.725 0.1875,4.7625 0.15,4.725 0.075,4.7625 0,4.725 -0.075,4.7625 -0.15,4.725 -0.3,4.725 -0.375,4.7625 -0.525,4.725 -0.3375,2.3625 -0.3375,2.3625 -0.4125,2.325 -0.4125,2.3625 -0.4875,2.3625 -0.525,2.325 -0.5625,2.325 -0.6375,2.325 -0.675,2.2875 -0.7125,2.2875 -0.7875,2.25 -0.825,2.2125 -0.9,2.2125 -0.975,2.175 -1.05,2.1375 -1.0875,2.1 -1.1625,2.1 -1.2375,2.025 -1.3125,1.9875 -1.3875,1.95 -1.425,1.875 -1.5375,1.875 -1.575,1.8 -1.6125,1.725 -1.725,1.6875 -1.7625,1.6125 -1.8,1.575 -1.8375,1.4625 -1.9125,1.425 -1.95,1.35 -1.9875,1.3125 -2.0625,1.2 -2.0625,1.1625 -2.1,1.0875 -2.1375,1.05 -2.175,0.975 -2.175,0.9375 -2.2125,0.9 -2.2125,0.8625 -2.25,0.825 -4.5,1.5375 -4.5375,1.4625 -4.575,1.35 -4.575,1.3125 -4.575,1.2 -4.6125,1.1625 -4.6125,1.0875 -4.6125,1.0875 -9.2625,2.025 -18.525,4.0125 -9.225,2.1375 -9.225,2.2125 -18.4125,4.575 -18.4125,4.575 -9.225,2.25 -9.225,2.175 -9.225,2.1375 -9.2625,2.025 -9.2625,2.025 -9.3,1.91253 -9.3,1.8375 -9.3375,1.8 -9.3,1.725 -9.3375,1.65 -9.375,1.575 -9.375,1.4625 -9.375,1.3875 -9.4125,1.3125 -9.4125,1.1625 -9.4125,1.05 -9.45,0.9 -9.45,0.7875 -4.725,0.3 -4.7625,0.3 -4.725,0.2625 -4.725,0.1875 -4.7625,0.15 -4.725,0.1125 -4.7625,0.075 -4.725,0 -4.7625,-0.037 -4.725,-0.1125 -4.7625,-0.15 -4.7625,-0.225 -4.725,-0.3 -4.725,-0.3375 -4.7625,-0.45 -4.725,-0.4875 -4.725,-0.5625 -4.725,-0.6375 -4.6875,-0.7125 -4.6875,-0.825 -4.65,-0.9 -4.6125,-1.0125 -4.6125,-1.125 -4.575,-1.2 -4.5375,-1.3125 -4.5375,-1.425 -4.4625,-1.5375 -4.4625,-1.575 -4.425,-1.6875 -4.425,-1.725 -4.3875,-1.80003 -4.3875,-1.8375 -8.7375,-3.75 -8.7,-3.8625 -8.7,-3.8625 -8.7,-3.7875 -8.7375,-3.7125 -8.7375,-3.675 -17.475,-7.275 60.975,-12.3 -33.9,-168.1125 -479.8875,66.7875"
       style="fill:none;stroke:#000000;stroke-width:1.04999995;stroke-linecap:round;stroke-linejoin:round;stroke-miterlimit:10;stroke-dasharray:none;stroke-opacity:1"
       id="path50164"
       inkscape:connector-curvature="0" />
    <path
       d="m 1726.0008,-83.467592 -18.15,5.475 -9.075,2.8125 -9.0375,2.8875 -9,2.9625 -9,3.0375 -8.925,3.15 -8.925,3.225 -8.8875,3.2625 -8.8875,3.375 -8.8125,3.45 -8.8125,3.525 -8.775,3.6 -8.7375,3.675 -8.7,3.7875 -8.7,3.825 -8.625,3.9 -8.625,3.975 -8.55,4.0875 -8.55,4.125 -8.5125,4.2 -8.4375,4.2750001 -8.4375,4.35 -8.4,4.3875 -8.3625,4.4625 -8.3625,4.5374999 -8.2875,4.6125 -8.25,4.65 -8.25,4.725 -8.175,4.7625 -8.175,4.8375 -8.1375,4.875 -8.1,4.95 -8.0625,4.9875 -8.025,5.025 -8.025,5.1 -7.95,5.1375 -7.95,5.175 -7.9125,5.25 -7.875,5.25 -7.875,5.325 -7.8375,5.325 -7.8,5.4 -7.7625,5.437502 -7.7625,5.475 -7.725,5.475 -7.725,5.55 -7.65,5.55 -15.3,11.25 -15.225,11.325 -15.1125,11.4375 -15.075,11.55 -15,11.6625 -14.925,11.7 -14.8875,11.775 -14.8125,11.8875 -14.7375,11.925 -14.6625,12.0375 -14.625,12.075 -14.55,12.1875 -14.5125,12.225 -14.4,12.3375 -14.3625,12.37498 -14.25,12.4875 -14.2125,12.525 -14.175,12.6 -14.175,12.5625 -14.2125,12.5625 -7.125,6.2625 -7.2,6.225 -7.2,6.1875 -7.2375,6.15 -7.31254,6.1125 -7.3875,6 -3.71247,2.925 -3.75,2.925 -3.7875,2.8875 -3.7875,2.85 -3.825,2.8125 -3.8625,2.7375 -3.9,2.7 -3.9375,2.625 -3.975,2.5875 -4.0125,2.5125 -4.05,2.4375 -4.0875,2.3625 -4.1625,2.325 -4.1625,2.25 -4.2,2.175 -4.2375,2.1375 -4.275,2.1 -4.275,2.025 -4.3125,1.9875 -4.35,1.95 -4.35,1.9125 -4.35,1.875 -8.775,3.675 -8.8125,3.525 -8.85,3.4125 -4.4625,1.65 -4.425,1.6125 -4.5,1.575 -4.4625,1.5375 -4.5,1.5 -4.5,1.4625 -4.5375,1.425 -4.5375,1.3875 -4.5375,1.35 -4.575,1.3125 -4.575,1.2375 -4.6125,1.2 -4.6125,1.125 -4.6125,1.125 -4.6125,1.0125 -4.65,1.0125 -4.65,0.9 -4.65,0.9 -4.6875,0.7875 -4.6875,0.75 -4.6875,0.675 -4.725,0.6 -4.6875,0.4875 -4.725,0.4125 -4.7625,0.3375 -4.725,0.225 -4.7625,0.1125 -4.7625,-0.038 -2.3625,-0.037 -2.3625,-0.1125 -2.3625,-0.15 -2.4,-0.1875 -2.3625,-0.225 -2.325,-0.3 -2.3625,-0.3375 -2.3625,-0.375 -2.325,-0.45 -2.325,-0.525 -2.325,-0.5625 -2.2875,-0.6375 -2.25,-0.75 -2.2125,-0.825 -2.2125,-0.9 -2.1375,-1.05 -2.1,-1.125 -2.0625,-1.2375 -1.95,-1.35 -1.875,-1.4625 -0.9,-0.7875 -0.9,-0.7875 -0.825,-0.8625 -0.825,-0.8625 -0.7875,-0.9 -0.75,-0.9375 -0.7125,-0.9375 -0.675,-0.975 -0.675,-1.0125 -0.6,-1.05 -0.5625,-1.05 -0.4875,-1.05 -0.4875,-1.0875 -0.4125,-1.125 -0.4125,-1.125 -0.3375,-1.125 -0.2625,-1.1625 -0.2625,-1.1625 -0.1875,-1.1625 -0.1875,-1.2 -0.1875,-2.3625 -0.1125,-2.4 0.037,-2.4 0.15,-2.3625 0.225,-2.3625 0.3375,-2.3625 0.4125,-2.325 0.45,-2.325 0.5625,-2.325 0.6,-2.2875 0.6375,-2.2875 0.7125,-2.25 1.5,-4.5 3.1875,-8.9625 1.575,-4.4625 1.5375,-4.5 1.5,-4.5 1.425,-4.5 1.3875,-4.5375 1.35,-4.575 1.275,-4.5375 1.275,-4.575 2.4,-9.1875 2.2875,-9.225 2.1375,-9.225 2.0625,-9.2625 1.9875,-9.3 1.875,-9.3 1.725,-9.3375 1.6875,-9.3375 1.5375,-9.33747 1.425,-9.37501 1.275,-9.4125 1.2,-9.4125 1.05,-9.4125 0.9375,-9.45 0.825,-9.45 0.7125,-9.45 0.5625,-9.4875 0.4875,-9.4875 0.3375,-9.45 0.2625,-9.4875 0.15,-9.4875 0.037,-9.4875 -0.037,-9.4875 -0.1875,-9.4875 -0.225,-9.4875 -0.3375,-9.4875 -0.45,-9.4875 -0.4875,-9.45 -0.6,-9.4875 -0.675,-9.450002 -0.75,-9.45 -0.825,-9.45 -0.9,-9.45 -0.9,-9.4125 -1.0125,-9.45 -1.0125,-9.4125 -2.175,-18.8625 -4.5,-37.65 -1.125,-9.45 -1.05,-9.4125 -0.975,-9.45 -0.8625,-9.45 -0.7875,-9.45 -0.3,-4.725 -0.3,-4.725 -0.225,-4.725 -0.1875,-4.7625 -0.15,-4.725 -0.075,-4.7625 -0.037,-4.725 0.075,-4.7625 0.1875,-4.724998 0.2625,-4.725 0.4125,-4.7625 0.525,-4.725 0.3,-2.3625 0.375,-2.3625 0.375,-2.325 0.45,-2.3625 0.45,-2.3625 0.525,-2.325 0.6,-2.325 0.6,-2.325 0.675,-2.2875 0.75,-2.2875 0.75,-2.25 0.8625,-2.2125 0.9,-2.2125 0.975,-2.175 1.0125,-2.1375 1.0875,-2.1 1.1625,-2.1 1.2375,-2.025 1.3125,-1.9875 1.3875,-1.95 1.4625,-1.875 1.5,-1.875 1.575,-1.8 1.65,-1.725 1.6875,-1.6875 1.7625,-1.6125 1.8,-1.575 1.875,-1.4625 1.9125,-1.425 1.95,-1.3875 1.9875,-1.275 2.025,-1.2 2.1,-1.1625 2.1,-1.0875 2.1375,-1.05 2.1375,-0.975 2.2125,-0.9375 2.2125,-0.9 2.2125,-0.8625 2.25,-0.825 4.5,-1.5375 4.5375,-1.4625 4.5375,-1.35 4.575,-1.3125 4.6125,-1.2 4.575,-1.1625 4.6125,-1.0875 4.6125,-1.0875 9.2625,-2.025 18.525,-4.05 9.2625,-2.1 9.225,-2.2125 18.375,-4.575 18.4125,-4.6125 9.225,-2.2125 9.225,-2.175 9.2625,-2.1375 9.2625,-2.025 9.2625,-2.025 9.3,-1.9125 9.3,-1.8375 9.3,-1.8 9.3375,-1.725 9.3375,-1.65 9.37497,-1.575 9.3375,-1.4625 9.41254,-1.3875 9.375,-1.3125 9.4125,-1.1625 9.45,-1.05 9.45,-0.9 9.45,-0.7875 4.725,-0.3375 4.725,-0.2625 4.7625,-0.2625 4.725,-0.1875 4.725,-0.15 4.7625,-0.1125 4.725,-0.075 4.7625,0 4.725,0.0375 4.7625,0.1125 4.7625,0.15 4.725,0.225 4.7625,0.3 4.725,0.3375 4.725,0.4125 4.7625,0.525 4.725,0.5625 4.6875,0.6375 4.6875,0.7125 4.6875,0.825 4.65,0.9 4.65,1.0125 4.6125,1.125 4.575,1.2 4.5375,1.3125 4.5,1.425 4.5,1.5375 4.4625,1.575 4.425,1.6875 4.425,1.725 4.3875,1.8 4.3875,1.8375 8.7,3.75 8.7,3.8625 8.7,3.8625 8.7375,3.7875 8.7,3.7125 8.7375,3.675 17.5125,7.275 -61.0125,12.3 33.9,168.112498 479.925,-66.825"
       style="fill:none;stroke:#000000;stroke-width:1.04999995;stroke-linecap:round;stroke-linejoin:round;stroke-miterlimit:10;stroke-dasharray:none;stroke-opacity:1"
       id="path50166"
       inkscape:connector-curvature="0" />
    <g
       id="g50396"
       transform="matrix(0.0375,0,0,-0.0375,106.48462,1557.4515)">
      <g
         id="g50398"
         clip-path="url(#clipPath50400)" />
    </g>
    <text
       xml:space="preserve"
       style="font-style:normal;font-weight:normal;font-size:40px;line-height:125%;font-family:sans-serif;letter-spacing:0px;word-spacing:0px;fill:#000000;fill-opacity:1;stroke:none;stroke-width:1px;stroke-linecap:butt;stroke-linejoin:miter;stroke-opacity:1"
       x="2.6728699"
       y="1046.3912"
       id="text59772"
       sodipodi:linespacing="125%"><tspan
         sodipodi:role="line"
         x="2.6728699"
         y="1046.3912"
         id="tspan59776">500mm x 380mm (1/2 Board)</tspan></text>
    <g
       id="g41705"
       transform="translate(-2303.1478,44.446712)">
      <path
         inkscape:connector-curvature="0"
         id="path50094"
         style="fill:none;stroke:#000000;stroke-width:1.04999995;stroke-linecap:round;stroke-linejoin:round;stroke-miterlimit:10;stroke-dasharray:none;stroke-opacity:1"
         d="m 2938.5369,15.917966 -1.7625,-166.837496 -0.1875,-3.8625 -0.3,-3.825 -0.1875,-1.9125 -0.1875,-1.9125 -0.3,-1.9125 -0.3375,-1.9125 -0.375,-1.9125 -0.4875,-1.875 -0.525,-1.875 -0.6,-1.8375 -0.675,-1.8375 -0.75,-1.8 -0.7875,-1.7625 -0.9,-1.725 -0.9375,-1.725 -1.0125,-1.65 -1.0875,-1.575 -1.1625,-1.575 -1.2,-1.5 -1.275,-1.4625 -1.35,-1.3875 -1.425,-1.3125 -1.425,-1.3125 -1.5375,-1.2 -1.5375,-1.2 -1.575,-1.0875 -1.65,-1.0875 -1.65,-1.0125 -1.6875,-0.9375 -1.6875,-0.9375 -1.7625,-0.825 -1.725,-0.825 -1.8,-0.75 -1.7625,-0.7125 -1.8375,-0.675 -1.8,-0.6375 -1.8375,-0.6 -1.875,-0.5625 -3.7125,-1.0125 -3.7875,-0.9 -3.7875,-0.7875 -3.7875,-0.75 -3.825,-0.675 -3.825,-0.6 -3.7875,-0.5625 -3.825,-0.525 -7.6125,-0.9375 -7.6875,-0.7875 -7.65,-0.7125 -7.6875,-0.6 -15.375,-1.125 -15.375,-1.125 -15.375,-1.125 -15.3375,-1.2375 -7.6875,-0.675 -7.65,-0.7125 -7.6875,-0.7875 -7.65,-0.8625 -7.65,-0.9 -7.65,-0.975 -7.6125,-1.0125 -7.65,-1.125 -7.6125,-1.2 -7.575,-1.275 -7.6125,-1.35 -7.575,-1.425 -7.5375,-1.5375 -7.5375,-1.6125 -7.5375,-1.6875 -7.5,-1.8 -7.4625,-1.875 -7.4625,-1.95 -7.425,-2.0625 -7.3875,-2.175 -7.35,-2.25 -7.35,-2.325 -7.3125,-2.4375 -7.275,-2.5125 -7.275,-2.5875 -7.2375,-2.625 -7.2,-2.7375 -7.2,-2.775 -7.1625,-2.8875 -7.125,-2.925 -7.05,-3.075 -7.0125,-3.1875 -3.4875,-1.65 -3.4875,-1.6875 -3.45,-1.6875 -3.4125,-1.7625 -6.825,-3.6 -3.45,-1.7625 -1.725,-0.825 -1.725,-0.825 -1.8,-0.75 -1.7625,-0.7125 -1.8375,-0.675 -1.8375,-0.6 -1.875,-0.4875 -1.875,-0.45 -1.875,-0.375 -1.9125,-0.225 -1.95,-0.1875 -1.95,-0.0375 -1.9125,0.075 -1.95,0.1875 -1.9125,0.2625 -1.9125,0.4125 -1.875,0.525 -1.8,0.6375 -1.8,0.75 -1.725,0.8625 -1.6875,0.975 -1.6125,1.05 -1.575,1.125 -1.5375,1.2375 -1.4625,1.275 -1.3875,1.35 -1.35,1.3875 -1.275,1.4625 -1.2,1.5 -1.1625,1.5375 -1.125,1.575 -1.0875,1.6125 -1.0125,1.6125 -0.975,1.6875 -0.975,1.6875 -0.9,1.6875 -0.8625,1.725 -0.8625,1.725 -1.575,3.4875 -1.4625,3.6 -1.3125,3.6 -1.2375,3.675 -1.125,3.7125 -1.05,3.7125 -0.9375,3.7875 -0.8625,3.7875 -0.7875,3.7875 -0.7125,3.825 -0.675,3.825 -0.6,3.825 -0.525,3.825 -0.525,3.8625 -0.4125,3.825 -0.4125,3.825 -0.3375,3.8625 -0.2625,3.8625 -0.2625,3.825 -0.1875,3.8625 -0.15,3.825 -0.075,3.8625 -0.075,3.8625 0,3.8625 0.037,3.825 0.075,3.8625 0.1125,3.8625 0.15,3.825 0.1875,3.8625 0.225,3.825 0.2625,3.8625 0.3375,3.825 0.3375,3.825 0.4125,3.825 0.4125,3.825 0.4875,3.825 0.525,3.825 0.6,3.825 0.6,3.825 0.675,3.7875 0.7125,3.825 0.75,3.7875 0.7875,3.7875 0.8625,3.7875 0.9375,3.749996 0.975,3.75 1.05,3.75 1.125,3.7125 1.2,3.6375 1.2375,3.675 1.35,3.6 1.425,3.5625 1.5375,3.525 1.6125,3.4875 1.725,3.4125 1.7625,3.375 1.875,3.375 1.95,3.3 2.025,3.2625 2.0625,3.2625 2.1375,3.1875 2.175,3.225 4.425,6.3 4.5375,6.3 9.1125,12.525 4.4625,6.3374995 4.425,6.33750002 4.35,6.33749998 4.3125,6.3750005 8.5125,12.825 8.5125,12.824995 8.55,12.787497 17.2125,25.575 8.5875,12.7875 8.5875,12.787502 8.5125,12.8625 8.4375,12.9 8.325,12.9375 8.25,13.0125 8.1375,13.0875 4.0125,6.6 3.975,6.5625 3.9375,6.6375 3.9,6.6375 3.8625,6.675 3.7875,6.7125 3.75,6.7125 3.675,6.7875 3.6,6.82501 3.525,6.825 3.45,6.9 3.375,6.9375 3.2625,6.975 3.1875,7.0125 3.075,7.05 3,7.0875 2.925,7.125 2.8125,7.2 2.7375,7.2 2.7,7.2 2.625,7.275 2.55,7.275 5.025,14.5875 4.9125,14.5875 4.95,14.625 2.55,7.275 2.55,7.2375 2.6625,7.2375 2.7375,7.2 2.8125,7.1625 2.925,7.0875 3.075,7.0875 3.1875,7.0125 3.3,6.9375 3.45,6.9 1.7625,3.4125 1.8375,3.4125 1.8375,3.4125 1.875,3.375 1.9125,3.3375 1.95,3.3375 1.9875,3.3 2.0625,3.3 2.1,3.225 2.1375,3.225 2.2125,3.1875 2.25,3.1125 2.325,3.075 2.4,3 2.475,2.9625 2.55,2.8875 2.625,2.8125 2.7,2.7375 1.425,1.3125 1.425,1.3125 1.425,1.275 1.5,1.2375 1.5,1.2 1.5375,1.1625 1.575,1.1625 1.575,1.0875 1.65,1.0125 1.65,1.0125 1.6875,0.9 1.725,0.9 1.7625,0.7875 1.8,0.75 1.8,0.6375 1.8375,0.6 1.875,0.4875 1.9125,0.4125 1.9125,0.3 1.9125,0.225 1.9125,0.1125 1.95,0 1.9125,-0.1125 1.95,-0.225 1.9125,-0.2625 1.9125,-0.4125 1.875,-0.45 1.875,-0.5625 1.8375,-0.6 1.8,-0.7125 1.7625,-0.75 1.725,-0.825 1.725,-0.9 1.65,-0.9375 1.65,-1.0125 1.6125,-1.05 1.575,-1.0875 1.575,-1.1625 1.5375,-1.2 1.5,-1.2375 1.4625,-1.3125 1.4625,-1.3125 1.3875,-1.35 1.425,-1.3875 2.7,-2.85 2.6625,-2.9625 2.5125,-3 2.475,-3.075 2.4,-3.075 2.2875,-3.1125 2.25,-3.15 2.175,-3.1875 2.1375,-3.225 2.0625,-3.225 2.025,-3.2625 1.95,-3.3 1.95,-3.3 1.875,-3.3375 1.8375,-3.375 1.8375,-3.375 1.7625,-3.4125 1.7625,-3.45 1.6875,-3.45 1.6875,-3.45 1.6125,-3.4875 1.6125,-3.525 1.575,-3.525 1.5,-3.5625 1.5,-3.5625 1.4625,-3.5625 1.425,-3.6 1.3875,-3.6 2.6625,-7.2375 2.5125,-7.3125 2.4,-7.3125 2.2875,-7.3875 2.1375,-7.3875 2.025,-7.425 1.9125,-7.4625 1.8375,-7.5 1.725,-7.5 1.65,-7.5375 1.575,-7.5375 1.4625,-7.575 1.3875,-7.575 1.35,-7.575 1.2375,-7.6125 1.2,-7.6125 1.0875,-7.65 1.0875,-7.6125 0.975,-7.65 0.975,-7.65 0.8625,-7.65 0.8625,-7.65 0.7875,-7.65001 0.75,-7.6875 0.7125,-7.65 0.6375,-7.6875 0.6375,-7.6875 0.5625,-7.6875 1.05,-15.375 0.9375,-15.375 0.7875,-15.375 0.675,-15.4125 0.5625,-15.375 0.45,-15.412502 0.3375,-15.4125 0.2625,-15.375 0.15,-15.4125 0.225,-30.824992" />
      <path
         inkscape:connector-curvature="0"
         id="path41701"
         d="m 2813.3093,-137.39993 0.1786,473.21428"
         style="fill:none;fill-rule:evenodd;stroke:#ff0000;stroke-width:1px;stroke-linecap:butt;stroke-linejoin:miter;stroke-opacity:1" />
    </g>
    <g
       id="g41709"
       transform="matrix(0,-1,1,0,309.38997,994.82131)">
      <path
         inkscape:connector-curvature="0"
         id="path46154"
         style="fill:none;stroke:#000000;stroke-width:1.04999995;stroke-linecap:round;stroke-linejoin:round;stroke-miterlimit:10;stroke-dasharray:none;stroke-opacity:1"
         d="m 42.43689,41.483627 1.7625,-166.874987 0.1875,-3.825 0.3,-3.8625 0.15,-1.9125 0.225,-1.9125 0.3,-1.9125 0.3375,-1.875 0.375,-1.9125 0.4875,-1.875 0.525,-1.875 0.6,-1.8375 0.675,-1.8375 0.75,-1.8 0.7875,-1.7625 0.9,-1.7625 0.937498,-1.6875 1.0125,-1.65 1.0875,-1.6125 1.125,-1.5375 1.2375,-1.5375 1.275,-1.425 1.35,-1.3875 1.425,-1.35 1.425,-1.275 1.5,-1.2375 1.575,-1.1625 1.575,-1.125 1.6125,-1.05 1.6875,-1.0125 1.6875,-0.975 1.6875,-0.9 1.7625,-0.8625 1.725,-0.7875 1.8,-0.7875 1.7625,-0.7125 1.8375,-0.675 1.8,-0.6 1.8375,-0.6 1.875,-0.5625 3.7125,-1.0125 3.7875,-0.9 3.7875,-0.825 3.787502,-0.7125 3.825,-0.675 3.7875,-0.6 3.825,-0.6 3.825,-0.4875 7.6125,-0.9375 7.65,-0.825 7.6875,-0.675 7.6875,-0.6375 15.375,-1.125 15.375,-1.0875 15.375,-1.125 15.3375,-1.275 7.6875,-0.675 7.65,-0.7125 7.65,-0.7875 7.6875,-0.825 7.65,-0.9 7.65,-0.975 7.6125,-1.05 7.6125,-1.125 7.6125,-1.1625 7.6125,-1.275 7.6125,-1.35 7.5375,-1.4625 7.575,-1.5 7.5375,-1.6125 7.5375,-1.725 7.5,-1.7625 7.4625,-1.875 7.4625,-1.9875 7.425,-2.0625 7.3875,-2.1375 7.35,-2.25 7.35,-2.325 7.3125,-2.4375 7.275,-2.5125 7.275,-2.5875 7.2375,-2.6625 7.2,-2.7 7.2,-2.8125 7.1625,-2.85 7.0875,-2.9625 7.0875,-3.075 7.0125,-3.1875 3.4875,-1.6125 3.4875,-1.6875 3.45,-1.725 3.4125,-1.7625 6.825,-3.6 3.4125,-1.725 1.7625,-0.8625 1.725,-0.7875 1.8,-0.7875 1.7625,-0.7125 1.8375,-0.6375 1.8375,-0.6 1.8375,-0.525 1.9125,-0.45 1.875,-0.3375 1.9125,-0.2625 1.95,-0.15 1.95,-0.0375 1.9125,0.0375 1.95,0.1875 1.9125,0.3 1.9125,0.4125 1.875,0.4875 1.8,0.6375 1.8,0.7875 1.725,0.8625 1.6875,0.9375 1.6125,1.05 1.575,1.1625 1.5375,1.2 1.4625,1.3125 1.3875,1.35 1.35,1.3875 1.275,1.4625 1.2,1.5 1.1625,1.5375 1.125,1.575 1.0875,1.575 1.0125,1.65 0.975,1.65 0.975,1.6875 0.9,1.6875 0.8625,1.725 0.8625,1.725 1.575,3.525 1.4625,3.5625 1.3125,3.6375 1.2375,3.6375 1.125,3.7125 1.05,3.75 0.9375,3.75 0.8625,3.7875 0.7875,3.825 0.7125,3.825 0.675,3.825 0.6,3.825 0.525,3.825 0.525,3.825 0.4125,3.8625 0.4125,3.825 0.3375,3.825 0.2625,3.8625 0.2625,3.8625 0.1875,3.825 0.15,3.8625 0.075,3.8625 0.075,3.825 0,3.8625 -0.038,3.8625 -0.075,3.825 -0.1125,3.8625 -0.15,3.8625 -0.1875,3.825 -0.225,3.8625 -0.2625,3.825 -0.3375,3.825 -0.3375,3.8625 -0.4125,3.825 -0.45,3.825 -0.45,3.825 -0.525,3.825 -0.6,3.824995 -0.6,3.7875 -0.675,3.825 -0.7125,3.7875 -0.75,3.825 -0.825,3.7875 -0.825,3.7875 -0.9375,3.75 -0.975,3.75 -1.05,3.7125 -1.125,3.7125 -1.2,3.675 -1.2375,3.6375 -1.35,3.6 -1.4625,3.5625 -1.5,3.525 -1.6125,3.4875 -1.725,3.45 -1.8,3.375 -1.875,3.3375 -1.9125,3.3 -2.025,3.3 -2.0625,3.225 -2.1375,3.225 -2.175,3.1875 -4.425,6.3375003 -4.5375,6.30000004 -9.1125,12.52499966 -4.4625,6.29999 -4.425,6.3375 -4.35,6.375005 -4.3125,6.375 -8.5125,12.787497 -8.5125,12.825 -8.55,12.825 -17.2125,25.537503 -8.5875,12.7875 -8.5875,12.825 -8.5125,12.825 -8.4375,12.9 -8.325,12.975 -8.25,13.0125 -8.1375,13.0875 -4.0125,6.5625 -3.975,6.6 -3.9375,6.6 -3.9,6.67501 -3.8625,6.675 -3.7875,6.675 -3.75,6.75 -3.675,6.7875 -3.6,6.7875 -3.525,6.8625 -3.45,6.9 -3.375,6.9 -3.2625,6.975 -3.1875,7.0125 -3.075,7.0875 -3,7.0875 -2.925,7.125 -2.8125,7.1625 -2.7375,7.2 -2.7,7.2375 -2.625,7.2375 -2.55,7.275 -5.025,14.5875 -4.9125,14.625 -4.95,14.5875 -2.55,7.275 -2.5875,7.275 -2.625,7.2 -2.7375,7.2 -2.8125,7.1625 -2.925,7.125 -3.075,7.05 -3.1875,7.0125 -3.3,6.975 -3.45,6.9 -1.7625,3.4125 -1.8375,3.4125 -1.8375,3.375 -1.875,3.375 -1.9125,3.375 -1.95,3.3375 -1.9875,3.3 -2.0625,3.2625 -2.1,3.2625 -2.1375,3.225 -2.2125,3.15 -2.25,3.1125 -2.325,3.075 -2.4,3.0375 -2.475,2.925 -2.55,2.8875 -2.625,2.85 -2.7375,2.7 -1.3875,1.35 -1.425,1.3125 -1.425,1.2375 -1.5,1.275 -1.5,1.2 -1.5375,1.1625 -1.575,1.125 -1.575,1.0875 -1.65,1.05 -1.65,0.975 -1.6875,0.9375 -1.725,0.8625 -1.7625,0.825 -1.8,0.7125 -1.8,0.675 -1.8375,0.5625 -1.875,0.525 -1.9125,0.375 -1.9125,0.3375 -1.9125,0.1875 -1.9125,0.1125 -1.95,0 -1.9125,-0.1125 -1.95,-0.1875 -1.9125,-0.3 -1.9125,-0.375 -1.875,-0.45 -1.875,-0.5625 -1.8375,-0.6375 -1.8,-0.675 -1.7625,-0.75 -1.725,-0.825 -1.725,-0.9 -1.65,-0.9375 -1.65,-1.0125 -1.6125,-1.05 -1.6125,-1.125 -1.5375,-1.1625 -1.5375,-1.2 -1.5,-1.2375 -1.4625,-1.275 -1.4625,-1.3125 -1.425,-1.3875 -1.3875,-1.3875 -2.7,-2.85 -2.6625,-2.925 -2.5125,-3.0375 -2.475,-3.0375 -2.4,-3.1125 -2.2875,-3.1125 -2.25,-3.15 -2.2125,-3.1875 -2.1,-3.1875 -2.0625,-3.225 -2.025,-3.2625 -1.95,-3.3 -1.95,-3.3 -1.875,-3.3375 -1.8375,-3.375 -1.8375,-3.4125 -1.7625,-3.375 -1.7625,-3.45 -1.6875,-3.45 -1.687502,-3.4875 -1.6125,-3.4875 -1.6125,-3.525 -1.575,-3.525 -1.5,-3.525 -1.5,-3.5625 -1.4625,-3.6 -1.425,-3.6 -1.3875,-3.6 -2.6625,-7.2375 -2.5125,-7.275 -2.4,-7.35 -2.2875,-7.35 -2.1375,-7.425 -2.025,-7.425 -1.9125,-7.4625 -1.8375,-7.4625 -1.725,-7.5375 -1.65,-7.5 -1.575,-7.575 -1.4625,-7.5375 -1.3875,-7.575 -1.35,-7.6125 -1.2375,-7.6125 -1.2,-7.6125 -1.0875,-7.6125 -1.0875,-7.65 -0.975,-7.6125 -0.975,-7.65 -0.9,-7.65 -0.825,-7.6875 -0.787498,-7.65 -0.75,-7.65 -0.7125,-7.6875 -0.675,-7.6875 -0.6,-7.65 -0.6,-7.68751 -1.05,-15.375 -0.9,-15.375 -0.7875,-15.4125 -0.675,-15.375 -0.5625,-15.4125 -0.45,-15.375 -0.375,-15.4125 -0.225,-15.412503 -0.15,-15.4125 -0.225,-30.7875" />
      <path
         inkscape:connector-curvature="0"
         id="path41703"
         d="m 167.30639,-111.7755 0.084,473.12427"
         style="fill:none;fill-rule:evenodd;stroke:#ff0000;stroke-width:1px;stroke-linecap:butt;stroke-linejoin:miter;stroke-opacity:1" />
    </g>
  </g>
</svg>
