  0
SECTION
  2
HEADER
  9
$ACADVER
  1
AC1014
  9
$HANDSEED
  5
FFFF
  9
$MEASUREMENT
 70
     1
  0
ENDSEC
  0
SECTION
  2
TABLES
  0
TABLE
  2
VPORT
  5
8
330
0
100
AcDbSymbolTable
 70
     4
  0
VPORT
  5
2E
330
8
100
AcDbSymbolTableRecord
100
AcDbViewportTableRecord
  2
*ACTIVE
 70
     0
 10
0.0
 20
0.0
 11
1.0
 21
1.0
 12
210.0
 22
148.5
 13
0.0
 23
0.0
 14
10.0
 24
10.0
 15
10.0
 25
10.0
 16
0.0
 26
0.0
 36
1.0
 17
0.0
 27
0.0
 37
0.0
 40
341.0
 41
1.24
 42
50.0
 43
0.0
 44
0.0
 50
0.0
 51
0.0
 71
     0
 72
   100
 73
     1
 74
     3
 75
     0
 76
     0
 77
     0
 78
     0
  0
ENDTAB
  0
TABLE
  2
LTYPE
  5
5
330
0
100
AcDbSymbolTable
 70
     1
  0
LTYPE
  5
14
330
5
100
AcDbSymbolTableRecord
100
AcDbLinetypeTableRecord
  2
BYBLOCK
 70
     0
  3

 72
    65
 73
     0
 40
0.0
  0
LTYPE
  5
15
330
5
100
AcDbSymbolTableRecord
100
AcDbLinetypeTableRecord
  2
BYLAYER
 70
     0
  3

 72
    65
 73
     0
 40
0.0
  0
LTYPE
  5
16
330
5
100
AcDbSymbolTableRecord
100
AcDbLinetypeTableRecord
  2
CONTINUOUS
 70
     0
  3
Solid line
 72
    65
 73
     0
 40
0.0
  0
ENDTAB
  0
TABLE
  2
LAYER
  5
2
100
AcDbSymbolTable
 70
2
  0
LAYER
  5
50
100
AcDbSymbolTableRecord
100
AcDbLayerTableRecord
  2
0
 70
0
  6
CONTINUOUS
  0
LAYER
  5
51
100
AcDbSymbolTableRecord
100
AcDbLayerTableRecord
  2
Layer_1
 70
0
  6
CONTINUOUS
  0
ENDTAB
  0
TABLE
  2
STYLE
  5
3
330
0
100
AcDbSymbolTable
 70
     1
  0
STYLE
  5
11
330
3
100
AcDbSymbolTableRecord
100
AcDbTextStyleTableRecord
  2
STANDARD
 70
     0
 40
0.0
 41
1.0
 50
0.0
 71
     0
 42
2.5
  3
txt
  4

  0
ENDTAB
  0
TABLE
  2
VIEW
  5
6
330
0
100
AcDbSymbolTable
 70
     0
  0
ENDTAB
  0
TABLE
  2
UCS
  5
7
330
0
100
AcDbSymbolTable
 70
     0
  0
ENDTAB
  0
TABLE
  2
APPID
  5
9
330
0
100
AcDbSymbolTable
 70
     2
  0
APPID
  5
12
330
9
100
AcDbSymbolTableRecord
100
AcDbRegAppTableRecord
  2
ACAD
 70
     0
  0
ENDTAB
  0
TABLE
  2
DIMSTYLE
  5
A
330
0
100
AcDbSymbolTable
 70
     1
  0
DIMSTYLE
105
27
330
A
100
AcDbSymbolTableRecord
100
AcDbDimStyleTableRecord
  2
ISO-25
 70
     0
  3

  4

  5

  6

  7

 40
1.0
 41
2.5
 42
0.625
 43
3.75
 44
1.25
 45
0.0
 46
0.0
 47
0.0
 48
0.0
140
2.5
141
2.5
142
0.0
143
0.03937007874016
144
1.0
145
0.0
146
1.0
147
0.625
 71
     0
 72
     0
 73
     0
 74
     0
 75
     0
 76
     0
 77
     1
 78
     8
170
     0
171
     3
172
     1
173
     0
174
     0
175
     0
176
     0
177
     0
178
     0
270
     2
271
     2
272
     2
273
     2
274
     3
340
11
275
     0
280
     0
281
     0
282
     0
283
     0
284
     8
285
     0
286
     0
287
     3
288
     0
  0
ENDTAB
  0
TABLE
  2
BLOCK_RECORD
  5
1
330
0
100
AcDbSymbolTable
 70
     1
  0
BLOCK_RECORD
  5
1F
330
1
100
AcDbSymbolTableRecord
100
AcDbBlockTableRecord
  2
*MODEL_SPACE
  0
BLOCK_RECORD
  5
1B
330
1
100
AcDbSymbolTableRecord
100
AcDbBlockTableRecord
  2
*PAPER_SPACE
  0
ENDTAB
  0
ENDSEC
  0
SECTION
  2
BLOCKS
  0
BLOCK
  5
20
330
1F
100
AcDbEntity
  8
0
100
AcDbBlockBegin
  2
*MODEL_SPACE
 70
     0
 10
0.0
 20
0.0
 30
0.0
  3
*MODEL_SPACE
  1

  0
ENDBLK
  5
21
330
1F
100
AcDbEntity
  8
0
100
AcDbBlockEnd
  0
BLOCK
  5
1C
330
1B
100
AcDbEntity
 67
     1
  8
0
100
AcDbBlockBegin
  2
*PAPER_SPACE
  1

  0
ENDBLK
  5
1D
330
1B
100
AcDbEntity
 67
     1
  8
0
100
AcDbBlockEnd
  0
ENDSEC
  0
SECTION
  2
ENTITIES
  0
LINE
  5
100
100
AcDbEntity
  8
Layer_1
 62
7
100
AcDbLine
 10
180.724556
 20
61.155570
 30
0.0
 11
70.488556
 21
61.155570
 31
0.0
  0
LINE
  5
101
100
AcDbEntity
  8
Layer_1
 62
7
100
AcDbLine
 10
180.724556
 20
61.155570
 30
0.0
 11
185.190723
 21
61.134403
 31
0.0
  0
LINE
  5
102
100
AcDbEntity
  8
Layer_1
 62
7
100
AcDbLine
 10
185.190723
 20
61.134403
 30
0.0
 11
189.656889
 21
61.113237
 31
0.0
  0
LINE
  5
103
100
AcDbEntity
  8
Layer_1
 62
7
100
AcDbLine
 10
189.656889
 20
61.113237
 30
0.0
 11
194.133639
 21
61.123961
 31
0.0
  0
LINE
  5
104
100
AcDbEntity
  8
Layer_1
 62
7
100
AcDbLine
 10
194.133639
 20
61.123961
 30
0.0
 11
196.366723
 21
61.134403
 31
0.0
  0
LINE
  5
105
100
AcDbEntity
  8
Layer_1
 62
7
100
AcDbLine
 10
196.366723
 20
61.134403
 30
0.0
 11
198.599806
 21
61.166153
 31
0.0
  0
LINE
  5
106
100
AcDbEntity
  8
Layer_1
 62
7
100
AcDbLine
 10
198.599806
 20
61.166153
 30
0.0
 11
200.832889
 21
61.208487
 31
0.0
  0
LINE
  5
107
100
AcDbEntity
  8
Layer_1
 62
7
100
AcDbLine
 10
200.832889
 20
61.208487
 30
0.0
 11
203.065973
 21
61.261403
 31
0.0
  0
LINE
  5
108
100
AcDbEntity
  8
Layer_1
 62
7
100
AcDbLine
 10
203.065973
 20
61.261403
 30
0.0
 11
205.309639
 21
61.346070
 31
0.0
  0
LINE
  5
109
100
AcDbEntity
  8
Layer_1
 62
7
100
AcDbLine
 10
205.309639
 20
61.346070
 30
0.0
 11
207.542723
 21
61.441320
 31
0.0
  0
LINE
  5
10a
100
AcDbEntity
  8
Layer_1
 62
7
100
AcDbLine
 10
207.542723
 20
61.441320
 30
0.0
 11
209.765223
 21
61.557737
 31
0.0
  0
LINE
  5
10b
100
AcDbEntity
  8
Layer_1
 62
7
100
AcDbLine
 10
209.765223
 20
61.557737
 30
0.0
 11
211.998306
 21
61.695320
 31
0.0
  0
LINE
  5
10c
100
AcDbEntity
  8
Layer_1
 62
7
100
AcDbLine
 10
211.998306
 20
61.695320
 30
0.0
 11
214.231389
 21
61.864653
 31
0.0
  0
LINE
  5
10d
100
AcDbEntity
  8
Layer_1
 62
7
100
AcDbLine
 10
214.231389
 20
61.864653
 30
0.0
 11
216.453889
 21
62.065737
 31
0.0
  0
LINE
  5
10e
100
AcDbEntity
  8
Layer_1
 62
7
100
AcDbLine
 10
216.453889
 20
62.065737
 30
0.0
 11
218.676389
 21
62.298570
 31
0.0
  0
LINE
  5
10f
100
AcDbEntity
  8
Layer_1
 62
7
100
AcDbLine
 10
218.676389
 20
62.298570
 30
0.0
 11
220.898889
 21
62.573737
 31
0.0
  0
LINE
  5
110
100
AcDbEntity
  8
Layer_1
 62
7
100
AcDbLine
 10
220.898889
 20
62.573737
 30
0.0
 11
221.999556
 21
62.721903
 31
0.0
  0
LINE
  5
111
100
AcDbEntity
  8
Layer_1
 62
7
100
AcDbLine
 10
221.999556
 20
62.721903
 30
0.0
 11
223.110806
 21
62.891237
 31
0.0
  0
LINE
  5
112
100
AcDbEntity
  8
Layer_1
 62
7
100
AcDbLine
 10
223.110806
 20
62.891237
 30
0.0
 11
224.211473
 21
63.060570
 31
0.0
  0
LINE
  5
113
100
AcDbEntity
  8
Layer_1
 62
7
100
AcDbLine
 10
224.211473
 20
63.060570
 30
0.0
 11
225.322723
 21
63.251070
 31
0.0
  0
LINE
  5
114
100
AcDbEntity
  8
Layer_1
 62
7
100
AcDbLine
 10
225.322723
 20
63.251070
 30
0.0
 11
226.423389
 21
63.452153
 31
0.0
  0
LINE
  5
115
100
AcDbEntity
  8
Layer_1
 62
7
100
AcDbLine
 10
226.423389
 20
63.452153
 30
0.0
 11
227.524056
 21
63.663820
 31
0.0
  0
LINE
  5
116
100
AcDbEntity
  8
Layer_1
 62
7
100
AcDbLine
 10
227.524056
 20
63.663820
 30
0.0
 11
228.614139
 21
63.896653
 31
0.0
  0
LINE
  5
117
100
AcDbEntity
  8
Layer_1
 62
7
100
AcDbLine
 10
228.614139
 20
63.896653
 30
0.0
 11
229.704223
 21
64.150653
 31
0.0
  0
LINE
  5
118
100
AcDbEntity
  8
Layer_1
 62
7
100
AcDbLine
 10
229.704223
 20
64.150653
 30
0.0
 11
230.794306
 21
64.425820
 31
0.0
  0
LINE
  5
119
100
AcDbEntity
  8
Layer_1
 62
7
100
AcDbLine
 10
230.794306
 20
64.425820
 30
0.0
 11
231.873806
 21
64.711570
 31
0.0
  0
LINE
  5
11a
100
AcDbEntity
  8
Layer_1
 62
7
100
AcDbLine
 10
231.873806
 20
64.711570
 30
0.0
 11
232.942723
 21
65.039653
 31
0.0
  0
LINE
  5
11b
100
AcDbEntity
  8
Layer_1
 62
7
100
AcDbLine
 10
232.942723
 20
65.039653
 30
0.0
 11
234.011639
 21
65.378320
 31
0.0
  0
LINE
  5
11c
100
AcDbEntity
  8
Layer_1
 62
7
100
AcDbLine
 10
234.011639
 20
65.378320
 30
0.0
 11
235.059389
 21
65.759320
 31
0.0
  0
LINE
  5
11d
100
AcDbEntity
  8
Layer_1
 62
7
100
AcDbLine
 10
235.059389
 20
65.759320
 30
0.0
 11
236.107139
 21
66.161487
 31
0.0
  0
LINE
  5
11e
100
AcDbEntity
  8
Layer_1
 62
7
100
AcDbLine
 10
236.107139
 20
66.161487
 30
0.0
 11
237.133723
 21
66.595403
 31
0.0
  0
LINE
  5
11f
100
AcDbEntity
  8
Layer_1
 62
7
100
AcDbLine
 10
237.133723
 20
66.595403
 30
0.0
 11
237.641723
 21
66.838820
 31
0.0
  0
LINE
  5
120
100
AcDbEntity
  8
Layer_1
 62
7
100
AcDbLine
 10
237.641723
 20
66.838820
 30
0.0
 11
238.149723
 21
67.082237
 31
0.0
  0
LINE
  5
121
100
AcDbEntity
  8
Layer_1
 62
7
100
AcDbLine
 10
238.149723
 20
67.082237
 30
0.0
 11
238.647139
 21
67.336237
 31
0.0
  0
LINE
  5
122
100
AcDbEntity
  8
Layer_1
 62
7
100
AcDbLine
 10
238.647139
 20
67.336237
 30
0.0
 11
239.133973
 21
67.600820
 31
0.0
  0
LINE
  5
123
100
AcDbEntity
  8
Layer_1
 62
7
100
AcDbLine
 10
239.133973
 20
67.600820
 30
0.0
 11
239.620806
 21
67.886570
 31
0.0
  0
LINE
  5
124
100
AcDbEntity
  8
Layer_1
 62
7
100
AcDbLine
 10
239.620806
 20
67.886570
 30
0.0
 11
240.097056
 21
68.182903
 31
0.0
  0
LINE
  5
125
100
AcDbEntity
  8
Layer_1
 62
7
100
AcDbLine
 10
240.097056
 20
68.182903
 30
0.0
 11
240.562723
 21
68.489820
 31
0.0
  0
LINE
  5
126
100
AcDbEntity
  8
Layer_1
 62
7
100
AcDbLine
 10
240.562723
 20
68.489820
 30
0.0
 11
241.017806
 21
68.817903
 31
0.0
  0
LINE
  5
127
100
AcDbEntity
  8
Layer_1
 62
7
100
AcDbLine
 10
241.017806
 20
68.817903
 30
0.0
 11
241.462306
 21
69.156570
 31
0.0
  0
LINE
  5
128
100
AcDbEntity
  8
Layer_1
 62
7
100
AcDbLine
 10
241.462306
 20
69.156570
 30
0.0
 11
241.896223
 21
69.516403
 31
0.0
  0
LINE
  5
129
100
AcDbEntity
  8
Layer_1
 62
7
100
AcDbLine
 10
241.896223
 20
69.516403
 30
0.0
 11
242.319556
 21
69.886820
 31
0.0
  0
LINE
  5
12a
100
AcDbEntity
  8
Layer_1
 62
7
100
AcDbLine
 10
242.319556
 20
69.886820
 30
0.0
 11
242.721723
 21
70.288987
 31
0.0
  0
LINE
  5
12b
100
AcDbEntity
  8
Layer_1
 62
7
100
AcDbLine
 10
242.721723
 20
70.288987
 30
0.0
 11
243.092139
 21
70.691153
 31
0.0
  0
LINE
  5
12c
100
AcDbEntity
  8
Layer_1
 62
7
100
AcDbLine
 10
243.092139
 20
70.691153
 30
0.0
 11
243.451973
 21
71.125070
 31
0.0
  0
LINE
  5
12d
100
AcDbEntity
  8
Layer_1
 62
7
100
AcDbLine
 10
243.451973
 20
71.125070
 30
0.0
 11
243.780056
 21
71.580153
 31
0.0
  0
LINE
  5
12e
100
AcDbEntity
  8
Layer_1
 62
7
100
AcDbLine
 10
243.780056
 20
71.580153
 30
0.0
 11
244.086973
 21
72.045820
 31
0.0
  0
LINE
  5
12f
100
AcDbEntity
  8
Layer_1
 62
7
100
AcDbLine
 10
244.086973
 20
72.045820
 30
0.0
 11
244.362139
 21
72.543237
 31
0.0
  0
LINE
  5
130
100
AcDbEntity
  8
Layer_1
 62
7
100
AcDbLine
 10
244.362139
 20
72.543237
 30
0.0
 11
244.616139
 21
73.040653
 31
0.0
  0
LINE
  5
131
100
AcDbEntity
  8
Layer_1
 62
7
100
AcDbLine
 10
244.616139
 20
73.040653
 30
0.0
 11
244.817223
 21
73.569820
 31
0.0
  0
LINE
  5
132
100
AcDbEntity
  8
Layer_1
 62
7
100
AcDbLine
 10
244.817223
 20
73.569820
 30
0.0
 11
244.997139
 21
74.098987
 31
0.0
  0
LINE
  5
133
100
AcDbEntity
  8
Layer_1
 62
7
100
AcDbLine
 10
244.997139
 20
74.098987
 30
0.0
 11
245.134723
 21
74.649320
 31
0.0
  0
LINE
  5
134
100
AcDbEntity
  8
Layer_1
 62
7
100
AcDbLine
 10
245.134723
 20
74.649320
 30
0.0
 11
245.229973
 21
75.199653
 31
0.0
  0
LINE
  5
135
100
AcDbEntity
  8
Layer_1
 62
7
100
AcDbLine
 10
245.229973
 20
75.199653
 30
0.0
 11
245.282889
 21
75.760570
 31
0.0
  0
LINE
  5
136
100
AcDbEntity
  8
Layer_1
 62
7
100
AcDbLine
 10
245.282889
 20
75.760570
 30
0.0
 11
245.304056
 21
76.332070
 31
0.0
  0
LINE
  5
137
100
AcDbEntity
  8
Layer_1
 62
7
100
AcDbLine
 10
245.304056
 20
76.332070
 30
0.0
 11
245.282889
 21
76.892987
 31
0.0
  0
LINE
  5
138
100
AcDbEntity
  8
Layer_1
 62
7
100
AcDbLine
 10
245.282889
 20
76.892987
 30
0.0
 11
245.219389
 21
77.453903
 31
0.0
  0
LINE
  5
139
100
AcDbEntity
  8
Layer_1
 62
7
100
AcDbLine
 10
245.219389
 20
77.453903
 30
0.0
 11
245.166473
 21
77.739653
 31
0.0
  0
LINE
  5
13a
100
AcDbEntity
  8
Layer_1
 62
7
100
AcDbLine
 10
245.166473
 20
77.739653
 30
0.0
 11
245.113556
 21
78.014820
 31
0.0
  0
LINE
  5
13b
100
AcDbEntity
  8
Layer_1
 62
7
100
AcDbLine
 10
245.113556
 20
78.014820
 30
0.0
 11
244.965389
 21
78.554570
 31
0.0
  0
LINE
  5
13c
100
AcDbEntity
  8
Layer_1
 62
7
100
AcDbLine
 10
244.965389
 20
78.554570
 30
0.0
 11
244.774889
 21
79.094320
 31
0.0
  0
LINE
  5
13d
100
AcDbEntity
  8
Layer_1
 62
7
100
AcDbLine
 10
244.774889
 20
79.094320
 30
0.0
 11
244.552639
 21
79.612903
 31
0.0
  0
LINE
  5
13e
100
AcDbEntity
  8
Layer_1
 62
7
100
AcDbLine
 10
244.552639
 20
79.612903
 30
0.0
 11
244.288056
 21
80.110320
 31
0.0
  0
LINE
  5
13f
100
AcDbEntity
  8
Layer_1
 62
7
100
AcDbLine
 10
244.288056
 20
80.110320
 30
0.0
 11
243.991723
 21
80.586570
 31
0.0
  0
LINE
  5
140
100
AcDbEntity
  8
Layer_1
 62
7
100
AcDbLine
 10
243.991723
 20
80.586570
 30
0.0
 11
243.663639
 21
81.031070
 31
0.0
  0
LINE
  5
141
100
AcDbEntity
  8
Layer_1
 62
7
100
AcDbLine
 10
243.663639
 20
81.031070
 30
0.0
 11
243.293223
 21
81.464987
 31
0.0
  0
LINE
  5
142
100
AcDbEntity
  8
Layer_1
 62
7
100
AcDbLine
 10
243.293223
 20
81.464987
 30
0.0
 11
242.912223
 21
81.856570
 31
0.0
  0
LINE
  5
143
100
AcDbEntity
  8
Layer_1
 62
7
100
AcDbLine
 10
242.912223
 20
81.856570
 30
0.0
 11
242.499473
 21
82.237570
 31
0.0
  0
LINE
  5
144
100
AcDbEntity
  8
Layer_1
 62
7
100
AcDbLine
 10
242.499473
 20
82.237570
 30
0.0
 11
242.076139
 21
82.607987
 31
0.0
  0
LINE
  5
145
100
AcDbEntity
  8
Layer_1
 62
7
100
AcDbLine
 10
242.076139
 20
82.607987
 30
0.0
 11
241.631639
 21
82.957237
 31
0.0
  0
LINE
  5
146
100
AcDbEntity
  8
Layer_1
 62
7
100
AcDbLine
 10
241.631639
 20
82.957237
 30
0.0
 11
240.732056
 21
83.634570
 31
0.0
  0
LINE
  5
147
100
AcDbEntity
  8
Layer_1
 62
7
100
AcDbLine
 10
240.732056
 20
83.634570
 30
0.0
 11
239.821889
 21
84.290737
 31
0.0
  0
LINE
  5
148
100
AcDbEntity
  8
Layer_1
 62
7
100
AcDbLine
 10
239.821889
 20
84.290737
 30
0.0
 11
238.911723
 21
84.936320
 31
0.0
  0
LINE
  5
149
100
AcDbEntity
  8
Layer_1
 62
7
100
AcDbLine
 10
238.911723
 20
84.936320
 30
0.0
 11
237.980389
 21
85.571320
 31
0.0
  0
LINE
  5
14a
100
AcDbEntity
  8
Layer_1
 62
7
100
AcDbLine
 10
237.980389
 20
85.571320
 30
0.0
 11
237.049056
 21
86.174570
 31
0.0
  0
LINE
  5
14b
100
AcDbEntity
  8
Layer_1
 62
7
100
AcDbLine
 10
237.049056
 20
86.174570
 30
0.0
 11
236.107139
 21
86.767237
 31
0.0
  0
LINE
  5
14c
100
AcDbEntity
  8
Layer_1
 62
7
100
AcDbLine
 10
236.107139
 20
86.767237
 30
0.0
 11
235.144056
 21
87.338737
 31
0.0
  0
LINE
  5
14d
100
AcDbEntity
  8
Layer_1
 62
7
100
AcDbLine
 10
235.144056
 20
87.338737
 30
0.0
 11
234.170389
 21
87.878487
 31
0.0
  0
LINE
  5
14e
100
AcDbEntity
  8
Layer_1
 62
7
100
AcDbLine
 10
234.170389
 20
87.878487
 30
0.0
 11
233.186139
 21
88.397070
 31
0.0
  0
LINE
  5
14f
100
AcDbEntity
  8
Layer_1
 62
7
100
AcDbLine
 10
233.186139
 20
88.397070
 30
0.0
 11
232.180723
 21
88.905070
 31
0.0
  0
LINE
  5
150
100
AcDbEntity
  8
Layer_1
 62
7
100
AcDbLine
 10
232.180723
 20
88.905070
 30
0.0
 11
231.175306
 21
89.381320
 31
0.0
  0
LINE
  5
151
100
AcDbEntity
  8
Layer_1
 62
7
100
AcDbLine
 10
231.175306
 20
89.381320
 30
0.0
 11
230.159306
 21
89.857570
 31
0.0
  0
LINE
  5
152
100
AcDbEntity
  8
Layer_1
 62
7
100
AcDbLine
 10
230.159306
 20
89.857570
 30
0.0
 11
229.132723
 21
90.312653
 31
0.0
  0
LINE
  5
153
100
AcDbEntity
  8
Layer_1
 62
7
100
AcDbLine
 10
229.132723
 20
90.312653
 30
0.0
 11
228.106139
 21
90.757153
 31
0.0
  0
LINE
  5
154
100
AcDbEntity
  8
Layer_1
 62
7
100
AcDbLine
 10
228.106139
 20
90.757153
 30
0.0
 11
226.042389
 21
91.614403
 31
0.0
  0
LINE
  5
155
100
AcDbEntity
  8
Layer_1
 62
7
100
AcDbLine
 10
226.042389
 20
91.614403
 30
0.0
 11
223.968056
 21
92.439903
 31
0.0
  0
LINE
  5
156
100
AcDbEntity
  8
Layer_1
 62
7
100
AcDbLine
 10
223.968056
 20
92.439903
 30
0.0
 11
221.872556
 21
93.233653
 31
0.0
  0
LINE
  5
157
100
AcDbEntity
  8
Layer_1
 62
7
100
AcDbLine
 10
221.872556
 20
93.233653
 30
0.0
 11
219.777056
 21
93.995653
 31
0.0
  0
LINE
  5
158
100
AcDbEntity
  8
Layer_1
 62
7
100
AcDbLine
 10
219.777056
 20
93.995653
 30
0.0
 11
217.660389
 21
94.725903
 31
0.0
  0
LINE
  5
159
100
AcDbEntity
  8
Layer_1
 62
7
100
AcDbLine
 10
217.660389
 20
94.725903
 30
0.0
 11
215.543723
 21
95.424403
 31
0.0
  0
LINE
  5
15a
100
AcDbEntity
  8
Layer_1
 62
7
100
AcDbLine
 10
215.543723
 20
95.424403
 30
0.0
 11
213.405889
 21
96.101737
 31
0.0
  0
LINE
  5
15b
100
AcDbEntity
  8
Layer_1
 62
7
100
AcDbLine
 10
213.405889
 20
96.101737
 30
0.0
 11
211.268056
 21
96.747320
 31
0.0
  0
LINE
  5
15c
100
AcDbEntity
  8
Layer_1
 62
7
100
AcDbLine
 10
211.268056
 20
96.747320
 30
0.0
 11
209.130223
 21
97.371737
 31
0.0
  0
LINE
  5
15d
100
AcDbEntity
  8
Layer_1
 62
7
100
AcDbLine
 10
209.130223
 20
97.371737
 30
0.0
 11
206.971223
 21
97.974987
 31
0.0
  0
LINE
  5
15e
100
AcDbEntity
  8
Layer_1
 62
7
100
AcDbLine
 10
206.971223
 20
97.974987
 30
0.0
 11
204.812223
 21
98.557070
 31
0.0
  0
LINE
  5
15f
100
AcDbEntity
  8
Layer_1
 62
7
100
AcDbLine
 10
204.812223
 20
98.557070
 30
0.0
 11
202.653223
 21
99.117987
 31
0.0
  0
LINE
  5
160
100
AcDbEntity
  8
Layer_1
 62
7
100
AcDbLine
 10
202.653223
 20
99.117987
 30
0.0
 11
200.483639
 21
99.647153
 31
0.0
  0
LINE
  5
161
100
AcDbEntity
  8
Layer_1
 62
7
100
AcDbLine
 10
200.483639
 20
99.647153
 30
0.0
 11
198.303473
 21
100.165737
 31
0.0
  0
LINE
  5
162
100
AcDbEntity
  8
Layer_1
 62
7
100
AcDbLine
 10
198.303473
 20
100.165737
 30
0.0
 11
196.123306
 21
100.652570
 31
0.0
  0
LINE
  5
163
100
AcDbEntity
  8
Layer_1
 62
7
100
AcDbLine
 10
196.123306
 20
100.652570
 30
0.0
 11
193.943139
 21
101.118237
 31
0.0
  0
LINE
  5
164
100
AcDbEntity
  8
Layer_1
 62
7
100
AcDbLine
 10
193.943139
 20
101.118237
 30
0.0
 11
191.752389
 21
101.562737
 31
0.0
  0
LINE
  5
165
100
AcDbEntity
  8
Layer_1
 62
7
100
AcDbLine
 10
191.752389
 20
101.562737
 30
0.0
 11
189.551056
 21
101.986070
 31
0.0
  0
LINE
  5
166
100
AcDbEntity
  8
Layer_1
 62
7
100
AcDbLine
 10
189.551056
 20
101.986070
 30
0.0
 11
187.349723
 21
102.377653
 31
0.0
  0
LINE
  5
167
100
AcDbEntity
  8
Layer_1
 62
7
100
AcDbLine
 10
187.349723
 20
102.377653
 30
0.0
 11
185.148389
 21
102.748070
 31
0.0
  0
LINE
  5
168
100
AcDbEntity
  8
Layer_1
 62
7
100
AcDbLine
 10
185.148389
 20
102.748070
 30
0.0
 11
182.936473
 21
103.076153
 31
0.0
  0
LINE
  5
169
100
AcDbEntity
  8
Layer_1
 62
7
100
AcDbLine
 10
182.936473
 20
103.076153
 30
0.0
 11
180.724556
 21
103.372487
 31
0.0
  0
LINE
  5
16a
100
AcDbEntity
  8
Layer_1
 62
7
100
AcDbLine
 10
180.724556
 20
103.372487
 30
0.0
 11
176.406556
 21
103.372487
 31
0.0
  0
LINE
  5
16b
100
AcDbEntity
  8
Layer_1
 62
7
100
AcDbLine
 10
176.406556
 20
103.372487
 30
0.0
 11
176.406556
 21
153.431653
 31
0.0
  0
LINE
  5
16c
100
AcDbEntity
  8
Layer_1
 62
7
100
AcDbLine
 10
176.406556
 20
153.431653
 30
0.0
 11
74.806556
 21
153.431653
 31
0.0
  0
LINE
  5
16d
100
AcDbEntity
  8
Layer_1
 62
7
100
AcDbLine
 10
70.488556
 20
61.155570
 30
0.0
 11
66.011806
 21
61.134403
 31
0.0
  0
LINE
  5
16e
100
AcDbEntity
  8
Layer_1
 62
7
100
AcDbLine
 10
66.011806
 20
61.134403
 30
0.0
 11
61.545639
 21
61.113237
 31
0.0
  0
LINE
  5
16f
100
AcDbEntity
  8
Layer_1
 62
7
100
AcDbLine
 10
61.545639
 20
61.113237
 30
0.0
 11
57.068889
 21
61.123961
 31
0.0
  0
LINE
  5
170
100
AcDbEntity
  8
Layer_1
 62
7
100
AcDbLine
 10
57.068889
 20
61.123961
 30
0.0
 11
54.835806
 21
61.134403
 31
0.0
  0
LINE
  5
171
100
AcDbEntity
  8
Layer_1
 62
7
100
AcDbLine
 10
54.835806
 20
61.134403
 30
0.0
 11
52.602723
 21
61.166153
 31
0.0
  0
LINE
  5
172
100
AcDbEntity
  8
Layer_1
 62
7
100
AcDbLine
 10
52.602723
 20
61.166153
 30
0.0
 11
50.369639
 21
61.208487
 31
0.0
  0
LINE
  5
173
100
AcDbEntity
  8
Layer_1
 62
7
100
AcDbLine
 10
50.369639
 20
61.208487
 30
0.0
 11
48.136556
 21
61.261403
 31
0.0
  0
LINE
  5
174
100
AcDbEntity
  8
Layer_1
 62
7
100
AcDbLine
 10
48.136556
 20
61.261403
 30
0.0
 11
45.903473
 21
61.346070
 31
0.0
  0
LINE
  5
175
100
AcDbEntity
  8
Layer_1
 62
7
100
AcDbLine
 10
45.903473
 20
61.346070
 30
0.0
 11
43.670389
 21
61.441320
 31
0.0
  0
LINE
  5
176
100
AcDbEntity
  8
Layer_1
 62
7
100
AcDbLine
 10
43.670389
 20
61.441320
 30
0.0
 11
41.437306
 21
61.557737
 31
0.0
  0
LINE
  5
177
100
AcDbEntity
  8
Layer_1
 62
7
100
AcDbLine
 10
41.437306
 20
61.557737
 30
0.0
 11
39.204223
 21
61.695320
 31
0.0
  0
LINE
  5
178
100
AcDbEntity
  8
Layer_1
 62
7
100
AcDbLine
 10
39.204223
 20
61.695320
 30
0.0
 11
36.981723
 21
61.864653
 31
0.0
  0
LINE
  5
179
100
AcDbEntity
  8
Layer_1
 62
7
100
AcDbLine
 10
36.981723
 20
61.864653
 30
0.0
 11
34.748639
 21
62.065737
 31
0.0
  0
LINE
  5
17a
100
AcDbEntity
  8
Layer_1
 62
7
100
AcDbLine
 10
34.748639
 20
62.065737
 30
0.0
 11
32.526139
 21
62.298570
 31
0.0
  0
LINE
  5
17b
100
AcDbEntity
  8
Layer_1
 62
7
100
AcDbLine
 10
32.526139
 20
62.298570
 30
0.0
 11
30.314223
 21
62.573737
 31
0.0
  0
LINE
  5
17c
100
AcDbEntity
  8
Layer_1
 62
7
100
AcDbLine
 10
30.314223
 20
62.573737
 30
0.0
 11
29.202973
 21
62.721903
 31
0.0
  0
LINE
  5
17d
100
AcDbEntity
  8
Layer_1
 62
7
100
AcDbLine
 10
29.202973
 20
62.721903
 30
0.0
 11
28.091723
 21
62.891237
 31
0.0
  0
LINE
  5
17e
100
AcDbEntity
  8
Layer_1
 62
7
100
AcDbLine
 10
28.091723
 20
62.891237
 30
0.0
 11
26.991056
 21
63.060570
 31
0.0
  0
LINE
  5
17f
100
AcDbEntity
  8
Layer_1
 62
7
100
AcDbLine
 10
26.991056
 20
63.060570
 30
0.0
 11
25.890389
 21
63.251070
 31
0.0
  0
LINE
  5
180
100
AcDbEntity
  8
Layer_1
 62
7
100
AcDbLine
 10
25.890389
 20
63.251070
 30
0.0
 11
24.789723
 21
63.452153
 31
0.0
  0
LINE
  5
181
100
AcDbEntity
  8
Layer_1
 62
7
100
AcDbLine
 10
24.789723
 20
63.452153
 30
0.0
 11
23.689056
 21
63.663820
 31
0.0
  0
LINE
  5
182
100
AcDbEntity
  8
Layer_1
 62
7
100
AcDbLine
 10
23.689056
 20
63.663820
 30
0.0
 11
22.588389
 21
63.896653
 31
0.0
  0
LINE
  5
183
100
AcDbEntity
  8
Layer_1
 62
7
100
AcDbLine
 10
22.588389
 20
63.896653
 30
0.0
 11
21.498306
 21
64.150653
 31
0.0
  0
LINE
  5
184
100
AcDbEntity
  8
Layer_1
 62
7
100
AcDbLine
 10
21.498306
 20
64.150653
 30
0.0
 11
20.408223
 21
64.425820
 31
0.0
  0
LINE
  5
185
100
AcDbEntity
  8
Layer_1
 62
7
100
AcDbLine
 10
20.408223
 20
64.425820
 30
0.0
 11
19.328723
 21
64.711570
 31
0.0
  0
LINE
  5
186
100
AcDbEntity
  8
Layer_1
 62
7
100
AcDbLine
 10
19.328723
 20
64.711570
 30
0.0
 11
18.259806
 21
65.039653
 31
0.0
  0
LINE
  5
187
100
AcDbEntity
  8
Layer_1
 62
7
100
AcDbLine
 10
18.259806
 20
65.039653
 30
0.0
 11
17.190889
 21
65.378320
 31
0.0
  0
LINE
  5
188
100
AcDbEntity
  8
Layer_1
 62
7
100
AcDbLine
 10
17.190889
 20
65.378320
 30
0.0
 11
16.143139
 21
65.759320
 31
0.0
  0
LINE
  5
189
100
AcDbEntity
  8
Layer_1
 62
7
100
AcDbLine
 10
16.143139
 20
65.759320
 30
0.0
 11
15.095389
 21
66.161487
 31
0.0
  0
LINE
  5
18a
100
AcDbEntity
  8
Layer_1
 62
7
100
AcDbLine
 10
15.095389
 20
66.161487
 30
0.0
 11
14.068806
 21
66.595403
 31
0.0
  0
LINE
  5
18b
100
AcDbEntity
  8
Layer_1
 62
7
100
AcDbLine
 10
14.068806
 20
66.595403
 30
0.0
 11
13.560806
 21
66.838820
 31
0.0
  0
LINE
  5
18c
100
AcDbEntity
  8
Layer_1
 62
7
100
AcDbLine
 10
13.560806
 20
66.838820
 30
0.0
 11
13.052806
 21
67.082237
 31
0.0
  0
LINE
  5
18d
100
AcDbEntity
  8
Layer_1
 62
7
100
AcDbLine
 10
13.052806
 20
67.082237
 30
0.0
 11
12.555389
 21
67.336237
 31
0.0
  0
LINE
  5
18e
100
AcDbEntity
  8
Layer_1
 62
7
100
AcDbLine
 10
12.555389
 20
67.336237
 30
0.0
 11
12.068556
 21
67.600820
 31
0.0
  0
LINE
  5
18f
100
AcDbEntity
  8
Layer_1
 62
7
100
AcDbLine
 10
12.068556
 20
67.600820
 30
0.0
 11
11.581723
 21
67.886570
 31
0.0
  0
LINE
  5
190
100
AcDbEntity
  8
Layer_1
 62
7
100
AcDbLine
 10
11.581723
 20
67.886570
 30
0.0
 11
11.105473
 21
68.182903
 31
0.0
  0
LINE
  5
191
100
AcDbEntity
  8
Layer_1
 62
7
100
AcDbLine
 10
11.105473
 20
68.182903
 30
0.0
 11
10.639806
 21
68.489820
 31
0.0
  0
LINE
  5
192
100
AcDbEntity
  8
Layer_1
 62
7
100
AcDbLine
 10
10.639806
 20
68.489820
 30
0.0
 11
10.184723
 21
68.817903
 31
0.0
  0
LINE
  5
193
100
AcDbEntity
  8
Layer_1
 62
7
100
AcDbLine
 10
10.184723
 20
68.817903
 30
0.0
 11
9.740223
 21
69.156570
 31
0.0
  0
LINE
  5
194
100
AcDbEntity
  8
Layer_1
 62
7
100
AcDbLine
 10
9.740223
 20
69.156570
 30
0.0
 11
9.306306
 21
69.516403
 31
0.0
  0
LINE
  5
195
100
AcDbEntity
  8
Layer_1
 62
7
100
AcDbLine
 10
9.306306
 20
69.516403
 30
0.0
 11
8.893556
 21
69.886820
 31
0.0
  0
LINE
  5
196
100
AcDbEntity
  8
Layer_1
 62
7
100
AcDbLine
 10
8.893556
 20
69.886820
 30
0.0
 11
8.491389
 21
70.288987
 31
0.0
  0
LINE
  5
197
100
AcDbEntity
  8
Layer_1
 62
7
100
AcDbLine
 10
8.491389
 20
70.288987
 30
0.0
 11
8.110389
 21
70.691153
 31
0.0
  0
LINE
  5
198
100
AcDbEntity
  8
Layer_1
 62
7
100
AcDbLine
 10
8.110389
 20
70.691153
 30
0.0
 11
7.750556
 21
71.125070
 31
0.0
  0
LINE
  5
199
100
AcDbEntity
  8
Layer_1
 62
7
100
AcDbLine
 10
7.750556
 20
71.125070
 30
0.0
 11
7.422473
 21
71.580153
 31
0.0
  0
LINE
  5
19a
100
AcDbEntity
  8
Layer_1
 62
7
100
AcDbLine
 10
7.422473
 20
71.580153
 30
0.0
 11
7.115556
 21
72.045820
 31
0.0
  0
LINE
  5
19b
100
AcDbEntity
  8
Layer_1
 62
7
100
AcDbLine
 10
7.115556
 20
72.045820
 30
0.0
 11
6.840389
 21
72.543237
 31
0.0
  0
LINE
  5
19c
100
AcDbEntity
  8
Layer_1
 62
7
100
AcDbLine
 10
6.840389
 20
72.543237
 30
0.0
 11
6.596973
 21
73.040653
 31
0.0
  0
LINE
  5
19d
100
AcDbEntity
  8
Layer_1
 62
7
100
AcDbLine
 10
6.596973
 20
73.040653
 30
0.0
 11
6.385306
 21
73.569820
 31
0.0
  0
LINE
  5
19e
100
AcDbEntity
  8
Layer_1
 62
7
100
AcDbLine
 10
6.385306
 20
73.569820
 30
0.0
 11
6.205389
 21
74.098987
 31
0.0
  0
LINE
  5
19f
100
AcDbEntity
  8
Layer_1
 62
7
100
AcDbLine
 10
6.205389
 20
74.098987
 30
0.0
 11
6.078389
 21
74.649320
 31
0.0
  0
LINE
  5
1a0
100
AcDbEntity
  8
Layer_1
 62
7
100
AcDbLine
 10
6.078389
 20
74.649320
 30
0.0
 11
5.972556
 21
75.199653
 31
0.0
  0
LINE
  5
1a1
100
AcDbEntity
  8
Layer_1
 62
7
100
AcDbLine
 10
5.972556
 20
75.199653
 30
0.0
 11
5.919639
 21
75.760570
 31
0.0
  0
LINE
  5
1a2
100
AcDbEntity
  8
Layer_1
 62
7
100
AcDbLine
 10
5.919639
 20
75.760570
 30
0.0
 11
5.898473
 21
76.332070
 31
0.0
  0
LINE
  5
1a3
100
AcDbEntity
  8
Layer_1
 62
7
100
AcDbLine
 10
5.898473
 20
76.332070
 30
0.0
 11
5.930223
 21
76.892987
 31
0.0
  0
LINE
  5
1a4
100
AcDbEntity
  8
Layer_1
 62
7
100
AcDbLine
 10
5.930223
 20
76.892987
 30
0.0
 11
5.993723
 21
77.453903
 31
0.0
  0
LINE
  5
1a5
100
AcDbEntity
  8
Layer_1
 62
7
100
AcDbLine
 10
5.993723
 20
77.453903
 30
0.0
 11
6.036056
 21
77.739653
 31
0.0
  0
LINE
  5
1a6
100
AcDbEntity
  8
Layer_1
 62
7
100
AcDbLine
 10
6.036056
 20
77.739653
 30
0.0
 11
6.099556
 21
78.014820
 31
0.0
  0
LINE
  5
1a7
100
AcDbEntity
  8
Layer_1
 62
7
100
AcDbLine
 10
6.099556
 20
78.014820
 30
0.0
 11
6.247723
 21
78.554570
 31
0.0
  0
LINE
  5
1a8
100
AcDbEntity
  8
Layer_1
 62
7
100
AcDbLine
 10
6.247723
 20
78.554570
 30
0.0
 11
6.427639
 21
79.094320
 31
0.0
  0
LINE
  5
1a9
100
AcDbEntity
  8
Layer_1
 62
7
100
AcDbLine
 10
6.427639
 20
79.094320
 30
0.0
 11
6.660473
 21
79.612903
 31
0.0
  0
LINE
  5
1aa
100
AcDbEntity
  8
Layer_1
 62
7
100
AcDbLine
 10
6.660473
 20
79.612903
 30
0.0
 11
6.914473
 21
80.110320
 31
0.0
  0
LINE
  5
1ab
100
AcDbEntity
  8
Layer_1
 62
7
100
AcDbLine
 10
6.914473
 20
80.110320
 30
0.0
 11
7.221389
 21
80.586570
 31
0.0
  0
LINE
  5
1ac
100
AcDbEntity
  8
Layer_1
 62
7
100
AcDbLine
 10
7.221389
 20
80.586570
 30
0.0
 11
7.549473
 21
81.031070
 31
0.0
  0
LINE
  5
1ad
100
AcDbEntity
  8
Layer_1
 62
7
100
AcDbLine
 10
7.549473
 20
81.031070
 30
0.0
 11
7.909306
 21
81.464987
 31
0.0
  0
LINE
  5
1ae
100
AcDbEntity
  8
Layer_1
 62
7
100
AcDbLine
 10
7.909306
 20
81.464987
 30
0.0
 11
8.300889
 21
81.856570
 31
0.0
  0
LINE
  5
1af
100
AcDbEntity
  8
Layer_1
 62
7
100
AcDbLine
 10
8.300889
 20
81.856570
 30
0.0
 11
8.703056
 21
82.237570
 31
0.0
  0
LINE
  5
1b0
100
AcDbEntity
  8
Layer_1
 62
7
100
AcDbLine
 10
8.703056
 20
82.237570
 30
0.0
 11
9.136973
 21
82.607987
 31
0.0
  0
LINE
  5
1b1
100
AcDbEntity
  8
Layer_1
 62
7
100
AcDbLine
 10
9.136973
 20
82.607987
 30
0.0
 11
9.570889
 21
82.957237
 31
0.0
  0
LINE
  5
1b2
100
AcDbEntity
  8
Layer_1
 62
7
100
AcDbLine
 10
9.570889
 20
82.957237
 30
0.0
 11
10.470473
 21
83.634570
 31
0.0
  0
LINE
  5
1b3
100
AcDbEntity
  8
Layer_1
 62
7
100
AcDbLine
 10
10.470473
 20
83.634570
 30
0.0
 11
11.380639
 21
84.290737
 31
0.0
  0
LINE
  5
1b4
100
AcDbEntity
  8
Layer_1
 62
7
100
AcDbLine
 10
11.380639
 20
84.290737
 30
0.0
 11
12.301389
 21
84.936320
 31
0.0
  0
LINE
  5
1b5
100
AcDbEntity
  8
Layer_1
 62
7
100
AcDbLine
 10
12.301389
 20
84.936320
 30
0.0
 11
13.222139
 21
85.571320
 31
0.0
  0
LINE
  5
1b6
100
AcDbEntity
  8
Layer_1
 62
7
100
AcDbLine
 10
13.222139
 20
85.571320
 30
0.0
 11
14.153473
 21
86.174570
 31
0.0
  0
LINE
  5
1b7
100
AcDbEntity
  8
Layer_1
 62
7
100
AcDbLine
 10
14.153473
 20
86.174570
 30
0.0
 11
15.095389
 21
86.767237
 31
0.0
  0
LINE
  5
1b8
100
AcDbEntity
  8
Layer_1
 62
7
100
AcDbLine
 10
15.095389
 20
86.767237
 30
0.0
 11
16.058473
 21
87.338737
 31
0.0
  0
LINE
  5
1b9
100
AcDbEntity
  8
Layer_1
 62
7
100
AcDbLine
 10
16.058473
 20
87.338737
 30
0.0
 11
17.032139
 21
87.878487
 31
0.0
  0
LINE
  5
1ba
100
AcDbEntity
  8
Layer_1
 62
7
100
AcDbLine
 10
17.032139
 20
87.878487
 30
0.0
 11
18.026973
 21
88.397070
 31
0.0
  0
LINE
  5
1bb
100
AcDbEntity
  8
Layer_1
 62
7
100
AcDbLine
 10
18.026973
 20
88.397070
 30
0.0
 11
19.021806
 21
88.905070
 31
0.0
  0
LINE
  5
1bc
100
AcDbEntity
  8
Layer_1
 62
7
100
AcDbLine
 10
19.021806
 20
88.905070
 30
0.0
 11
20.027223
 21
89.381320
 31
0.0
  0
LINE
  5
1bd
100
AcDbEntity
  8
Layer_1
 62
7
100
AcDbLine
 10
20.027223
 20
89.381320
 30
0.0
 11
21.043223
 21
89.857570
 31
0.0
  0
LINE
  5
1be
100
AcDbEntity
  8
Layer_1
 62
7
100
AcDbLine
 10
21.043223
 20
89.857570
 30
0.0
 11
22.069806
 21
90.312653
 31
0.0
  0
LINE
  5
1bf
100
AcDbEntity
  8
Layer_1
 62
7
100
AcDbLine
 10
22.069806
 20
90.312653
 30
0.0
 11
23.096389
 21
90.757153
 31
0.0
  0
LINE
  5
1c0
100
AcDbEntity
  8
Layer_1
 62
7
100
AcDbLine
 10
23.096389
 20
90.757153
 30
0.0
 11
25.160139
 21
91.614403
 31
0.0
  0
LINE
  5
1c1
100
AcDbEntity
  8
Layer_1
 62
7
100
AcDbLine
 10
25.160139
 20
91.614403
 30
0.0
 11
27.245056
 21
92.439903
 31
0.0
  0
LINE
  5
1c2
100
AcDbEntity
  8
Layer_1
 62
7
100
AcDbLine
 10
27.245056
 20
92.439903
 30
0.0
 11
29.329973
 21
93.233653
 31
0.0
  0
LINE
  5
1c3
100
AcDbEntity
  8
Layer_1
 62
7
100
AcDbLine
 10
29.329973
 20
93.233653
 30
0.0
 11
31.436056
 21
93.995653
 31
0.0
  0
LINE
  5
1c4
100
AcDbEntity
  8
Layer_1
 62
7
100
AcDbLine
 10
31.436056
 20
93.995653
 30
0.0
 11
33.542139
 21
94.725903
 31
0.0
  0
LINE
  5
1c5
100
AcDbEntity
  8
Layer_1
 62
7
100
AcDbLine
 10
33.542139
 20
94.725903
 30
0.0
 11
35.658806
 21
95.424403
 31
0.0
  0
LINE
  5
1c6
100
AcDbEntity
  8
Layer_1
 62
7
100
AcDbLine
 10
35.658806
 20
95.424403
 30
0.0
 11
37.796639
 21
96.101737
 31
0.0
  0
LINE
  5
1c7
100
AcDbEntity
  8
Layer_1
 62
7
100
AcDbLine
 10
37.796639
 20
96.101737
 30
0.0
 11
39.934473
 21
96.747320
 31
0.0
  0
LINE
  5
1c8
100
AcDbEntity
  8
Layer_1
 62
7
100
AcDbLine
 10
39.934473
 20
96.747320
 30
0.0
 11
42.082889
 21
97.371737
 31
0.0
  0
LINE
  5
1c9
100
AcDbEntity
  8
Layer_1
 62
7
100
AcDbLine
 10
42.082889
 20
97.371737
 30
0.0
 11
44.231306
 21
97.974987
 31
0.0
  0
LINE
  5
1ca
100
AcDbEntity
  8
Layer_1
 62
7
100
AcDbLine
 10
44.231306
 20
97.974987
 30
0.0
 11
46.390306
 21
98.557070
 31
0.0
  0
LINE
  5
1cb
100
AcDbEntity
  8
Layer_1
 62
7
100
AcDbLine
 10
46.390306
 20
98.557070
 30
0.0
 11
48.559889
 21
99.117987
 31
0.0
  0
LINE
  5
1cc
100
AcDbEntity
  8
Layer_1
 62
7
100
AcDbLine
 10
48.559889
 20
99.117987
 30
0.0
 11
50.729473
 21
99.647153
 31
0.0
  0
LINE
  5
1cd
100
AcDbEntity
  8
Layer_1
 62
7
100
AcDbLine
 10
50.729473
 20
99.647153
 30
0.0
 11
52.899056
 21
100.165737
 31
0.0
  0
LINE
  5
1ce
100
AcDbEntity
  8
Layer_1
 62
7
100
AcDbLine
 10
52.899056
 20
100.165737
 30
0.0
 11
55.079223
 21
100.652570
 31
0.0
  0
LINE
  5
1cf
100
AcDbEntity
  8
Layer_1
 62
7
100
AcDbLine
 10
55.079223
 20
100.652570
 30
0.0
 11
57.269973
 21
101.118237
 31
0.0
  0
LINE
  5
1d0
100
AcDbEntity
  8
Layer_1
 62
7
100
AcDbLine
 10
57.269973
 20
101.118237
 30
0.0
 11
59.460723
 21
101.562737
 31
0.0
  0
LINE
  5
1d1
100
AcDbEntity
  8
Layer_1
 62
7
100
AcDbLine
 10
59.460723
 20
101.562737
 30
0.0
 11
61.651473
 21
101.986070
 31
0.0
  0
LINE
  5
1d2
100
AcDbEntity
  8
Layer_1
 62
7
100
AcDbLine
 10
61.651473
 20
101.986070
 30
0.0
 11
63.852806
 21
102.377653
 31
0.0
  0
LINE
  5
1d3
100
AcDbEntity
  8
Layer_1
 62
7
100
AcDbLine
 10
63.852806
 20
102.377653
 30
0.0
 11
66.054139
 21
102.748070
 31
0.0
  0
LINE
  5
1d4
100
AcDbEntity
  8
Layer_1
 62
7
100
AcDbLine
 10
66.054139
 20
102.748070
 30
0.0
 11
68.266056
 21
103.076153
 31
0.0
  0
LINE
  5
1d5
100
AcDbEntity
  8
Layer_1
 62
7
100
AcDbLine
 10
68.266056
 20
103.076153
 30
0.0
 11
70.488556
 21
103.372487
 31
0.0
  0
LINE
  5
1d6
100
AcDbEntity
  8
Layer_1
 62
7
100
AcDbLine
 10
70.488556
 20
103.372487
 30
0.0
 11
74.806556
 21
103.372487
 31
0.0
  0
LINE
  5
1d7
100
AcDbEntity
  8
Layer_1
 62
7
100
AcDbLine
 10
74.806556
 20
103.372487
 30
0.0
 11
74.806556
 21
153.431653
 31
0.0
  0
LINE
  5
1d8
100
AcDbEntity
  8
Layer_1
 62
3
100
AcDbLine
 10
117.139889
 20
124.708487
 30
0.0
 11
134.073223
 21
124.708487
 31
0.0
  0
LINE
  5
1d9
100
AcDbEntity
  8
Layer_1
 62
3
100
AcDbLine
 10
134.073223
 20
127.248487
 30
0.0
 11
117.139889
 21
127.248487
 31
0.0
  0
LINE
  5
1da
100
AcDbEntity
  8
Layer_1
 62
3
100
AcDbLine
 10
131.533223
 20
127.248487
 30
0.0
 11
131.533223
 21
129.788487
 31
0.0
  0
LINE
  5
1db
100
AcDbEntity
  8
Layer_1
 62
3
100
AcDbLine
 10
131.533223
 20
129.788487
 30
0.0
 11
117.139889
 21
129.788487
 31
0.0
  0
LINE
  5
1dc
100
AcDbEntity
  8
Layer_1
 62
3
100
AcDbLine
 10
117.139889
 20
129.788487
 30
0.0
 11
117.139889
 21
127.248487
 31
0.0
  0
LINE
  5
1dd
100
AcDbEntity
  8
Layer_1
 62
3
100
AcDbLine
 10
117.139889
 20
127.248487
 30
0.0
 11
117.139889
 21
124.708487
 31
0.0
  0
LINE
  5
1de
100
AcDbEntity
  8
Layer_1
 62
3
100
AcDbLine
 10
125.828806
 20
145.472987
 30
0.0
 11
124.855139
 21
145.409487
 31
0.0
  0
LINE
  5
1df
100
AcDbEntity
  8
Layer_1
 62
3
100
AcDbLine
 10
124.855139
 20
145.409487
 30
0.0
 11
123.944973
 21
145.218987
 31
0.0
  0
LINE
  5
1e0
100
AcDbEntity
  8
Layer_1
 62
3
100
AcDbLine
 10
123.944973
 20
145.218987
 30
0.0
 11
123.108889
 21
144.933237
 31
0.0
  0
LINE
  5
1e1
100
AcDbEntity
  8
Layer_1
 62
3
100
AcDbLine
 10
123.108889
 20
144.933237
 30
0.0
 11
122.325723
 21
144.552237
 31
0.0
  0
LINE
  5
1e2
100
AcDbEntity
  8
Layer_1
 62
3
100
AcDbLine
 10
122.325723
 20
144.552237
 30
0.0
 11
121.595473
 21
144.054820
 31
0.0
  0
LINE
  5
1e3
100
AcDbEntity
  8
Layer_1
 62
3
100
AcDbLine
 10
121.595473
 20
144.054820
 30
0.0
 11
120.918139
 21
143.472737
 31
0.0
  0
LINE
  5
1e4
100
AcDbEntity
  8
Layer_1
 62
3
100
AcDbLine
 10
120.918139
 20
143.472737
 30
0.0
 11
120.706473
 21
143.229320
 31
0.0
  0
LINE
  5
1e5
100
AcDbEntity
  8
Layer_1
 62
3
100
AcDbLine
 10
120.706473
 20
143.229320
 30
0.0
 11
120.166723
 21
142.541403
 31
0.0
  0
LINE
  5
1e6
100
AcDbEntity
  8
Layer_1
 62
3
100
AcDbLine
 10
120.166723
 20
142.541403
 30
0.0
 11
119.711639
 21
141.800570
 31
0.0
  0
LINE
  5
1e7
100
AcDbEntity
  8
Layer_1
 62
3
100
AcDbLine
 10
119.711639
 20
141.800570
 30
0.0
 11
119.362389
 21
140.985653
 31
0.0
  0
LINE
  5
1e8
100
AcDbEntity
  8
Layer_1
 62
3
100
AcDbLine
 10
119.362389
 20
140.985653
 30
0.0
 11
119.108389
 21
140.117820
 31
0.0
  0
LINE
  5
1e9
100
AcDbEntity
  8
Layer_1
 62
3
100
AcDbLine
 10
119.108389
 20
140.117820
 30
0.0
 11
118.960223
 21
139.175903
 31
0.0
  0
LINE
  5
1ea
100
AcDbEntity
  8
Layer_1
 62
3
100
AcDbLine
 10
118.960223
 20
139.175903
 30
0.0
 11
118.917889
 21
138.202237
 31
0.0
  0
LINE
  5
1eb
100
AcDbEntity
  8
Layer_1
 62
3
100
AcDbLine
 10
118.917889
 20
138.202237
 30
0.0
 11
118.939056
 21
137.334403
 31
0.0
  0
LINE
  5
1ec
100
AcDbEntity
  8
Layer_1
 62
3
100
AcDbLine
 10
118.939056
 20
137.334403
 30
0.0
 11
119.087223
 21
136.392487
 31
0.0
  0
LINE
  5
1ed
100
AcDbEntity
  8
Layer_1
 62
3
100
AcDbLine
 10
119.087223
 20
136.392487
 30
0.0
 11
119.330639
 21
135.503487
 31
0.0
  0
LINE
  5
1ee
100
AcDbEntity
  8
Layer_1
 62
3
100
AcDbLine
 10
119.330639
 20
135.503487
 30
0.0
 11
119.690473
 21
134.709737
 31
0.0
  0
LINE
  5
1ef
100
AcDbEntity
  8
Layer_1
 62
3
100
AcDbLine
 10
119.690473
 20
134.709737
 30
0.0
 11
120.134973
 21
133.979487
 31
0.0
  0
LINE
  5
1f0
100
AcDbEntity
  8
Layer_1
 62
3
100
AcDbLine
 10
120.134973
 20
133.979487
 30
0.0
 11
120.695889
 21
133.302153
 31
0.0
  0
LINE
  5
1f1
100
AcDbEntity
  8
Layer_1
 62
3
100
AcDbLine
 10
120.695889
 20
133.302153
 30
0.0
 11
121.267389
 21
132.783570
 31
0.0
  0
LINE
  5
1f2
100
AcDbEntity
  8
Layer_1
 62
3
100
AcDbLine
 10
121.267389
 20
132.783570
 30
0.0
 11
121.987056
 21
132.307320
 31
0.0
  0
LINE
  5
1f3
100
AcDbEntity
  8
Layer_1
 62
3
100
AcDbLine
 10
121.987056
 20
132.307320
 30
0.0
 11
122.770223
 21
131.947487
 31
0.0
  0
LINE
  5
1f4
100
AcDbEntity
  8
Layer_1
 62
3
100
AcDbLine
 10
122.770223
 20
131.947487
 30
0.0
 11
123.638056
 21
131.693487
 31
0.0
  0
LINE
  5
1f5
100
AcDbEntity
  8
Layer_1
 62
3
100
AcDbLine
 10
123.638056
 20
131.693487
 30
0.0
 11
124.579973
 21
131.524153
 31
0.0
  0
LINE
  5
1f6
100
AcDbEntity
  8
Layer_1
 62
3
100
AcDbLine
 10
124.579973
 20
131.524153
 30
0.0
 11
125.606556
 21
131.481820
 31
0.0
  0
LINE
  5
1f7
100
AcDbEntity
  8
Layer_1
 62
3
100
AcDbLine
 10
125.606556
 20
131.481820
 30
0.0
 11
125.913473
 21
131.481820
 31
0.0
  0
LINE
  5
1f8
100
AcDbEntity
  8
Layer_1
 62
3
100
AcDbLine
 10
125.913473
 20
131.481820
 30
0.0
 11
126.950639
 21
131.534737
 31
0.0
  0
LINE
  5
1f9
100
AcDbEntity
  8
Layer_1
 62
3
100
AcDbLine
 10
126.950639
 20
131.534737
 30
0.0
 11
127.892556
 21
131.682903
 31
0.0
  0
LINE
  5
1fa
100
AcDbEntity
  8
Layer_1
 62
3
100
AcDbLine
 10
127.892556
 20
131.682903
 30
0.0
 11
128.728639
 21
131.905153
 31
0.0
  0
LINE
  5
1fb
100
AcDbEntity
  8
Layer_1
 62
3
100
AcDbLine
 10
128.728639
 20
131.905153
 30
0.0
 11
129.469473
 21
132.201487
 31
0.0
  0
LINE
  5
1fc
100
AcDbEntity
  8
Layer_1
 62
3
100
AcDbLine
 10
129.469473
 20
132.201487
 30
0.0
 11
129.469473
 21
134.984903
 31
0.0
  0
LINE
  5
1fd
100
AcDbEntity
  8
Layer_1
 62
3
100
AcDbLine
 10
129.469473
 20
134.984903
 30
0.0
 11
128.897973
 21
134.677987
 31
0.0
  0
LINE
  5
1fe
100
AcDbEntity
  8
Layer_1
 62
3
100
AcDbLine
 10
128.897973
 20
134.677987
 30
0.0
 11
128.040723
 21
134.371070
 31
0.0
  0
LINE
  5
1ff
100
AcDbEntity
  8
Layer_1
 62
3
100
AcDbLine
 10
128.040723
 20
134.371070
 30
0.0
 11
127.141139
 21
134.169987
 31
0.0
  0
LINE
  5
200
100
AcDbEntity
  8
Layer_1
 62
3
100
AcDbLine
 10
127.141139
 20
134.169987
 30
0.0
 11
126.209806
 21
134.117070
 31
0.0
  0
LINE
  5
201
100
AcDbEntity
  8
Layer_1
 62
3
100
AcDbLine
 10
126.209806
 20
134.117070
 30
0.0
 11
125.585389
 21
134.148820
 31
0.0
  0
LINE
  5
202
100
AcDbEntity
  8
Layer_1
 62
3
100
AcDbLine
 10
125.585389
 20
134.148820
 30
0.0
 11
124.675223
 21
134.339320
 31
0.0
  0
LINE
  5
203
100
AcDbEntity
  8
Layer_1
 62
3
100
AcDbLine
 10
124.675223
 20
134.339320
 30
0.0
 11
123.892056
 21
134.720320
 31
0.0
  0
LINE
  5
204
100
AcDbEntity
  8
Layer_1
 62
3
100
AcDbLine
 10
123.892056
 20
134.720320
 30
0.0
 11
123.235889
 21
135.281237
 31
0.0
  0
LINE
  5
205
100
AcDbEntity
  8
Layer_1
 62
3
100
AcDbLine
 10
123.235889
 20
135.281237
 30
0.0
 11
122.844306
 21
135.757487
 31
0.0
  0
LINE
  5
206
100
AcDbEntity
  8
Layer_1
 62
3
100
AcDbLine
 10
122.844306
 20
135.757487
 30
0.0
 11
122.431556
 21
136.530070
 31
0.0
  0
LINE
  5
207
100
AcDbEntity
  8
Layer_1
 62
3
100
AcDbLine
 10
122.431556
 20
136.530070
 30
0.0
 11
122.198723
 21
137.408487
 31
0.0
  0
LINE
  5
208
100
AcDbEntity
  8
Layer_1
 62
3
100
AcDbLine
 10
122.198723
 20
137.408487
 30
0.0
 11
122.124639
 21
138.413903
 31
0.0
  0
LINE
  5
209
100
AcDbEntity
  8
Layer_1
 62
3
100
AcDbLine
 10
122.124639
 20
138.413903
 30
0.0
 11
122.177556
 21
139.302903
 31
0.0
  0
LINE
  5
20a
100
AcDbEntity
  8
Layer_1
 62
3
100
AcDbLine
 10
122.177556
 20
139.302903
 30
0.0
 11
122.389223
 21
140.202487
 31
0.0
  0
LINE
  5
20b
100
AcDbEntity
  8
Layer_1
 62
3
100
AcDbLine
 10
122.389223
 20
140.202487
 30
0.0
 11
122.770223
 21
140.985653
 31
0.0
  0
LINE
  5
20c
100
AcDbEntity
  8
Layer_1
 62
3
100
AcDbLine
 10
122.770223
 20
140.985653
 30
0.0
 11
123.288806
 21
141.662987
 31
0.0
  0
LINE
  5
20d
100
AcDbEntity
  8
Layer_1
 62
3
100
AcDbLine
 10
123.288806
 20
141.662987
 30
0.0
 11
123.775639
 21
142.086320
 31
0.0
  0
LINE
  5
20e
100
AcDbEntity
  8
Layer_1
 62
3
100
AcDbLine
 10
123.775639
 20
142.086320
 30
0.0
 11
124.537639
 21
142.520237
 31
0.0
  0
LINE
  5
20f
100
AcDbEntity
  8
Layer_1
 62
3
100
AcDbLine
 10
124.537639
 20
142.520237
 30
0.0
 11
125.405473
 21
142.774237
 31
0.0
  0
LINE
  5
210
100
AcDbEntity
  8
Layer_1
 62
3
100
AcDbLine
 10
125.405473
 20
142.774237
 30
0.0
 11
126.379139
 21
142.858903
 31
0.0
  0
LINE
  5
211
100
AcDbEntity
  8
Layer_1
 62
3
100
AcDbLine
 10
126.379139
 20
142.858903
 30
0.0
 11
126.865973
 21
142.837737
 31
0.0
  0
LINE
  5
212
100
AcDbEntity
  8
Layer_1
 62
3
100
AcDbLine
 10
126.865973
 20
142.837737
 30
0.0
 11
127.786723
 21
142.710737
 31
0.0
  0
LINE
  5
213
100
AcDbEntity
  8
Layer_1
 62
3
100
AcDbLine
 10
127.786723
 20
142.710737
 30
0.0
 11
128.654556
 21
142.446153
 31
0.0
  0
LINE
  5
214
100
AcDbEntity
  8
Layer_1
 62
3
100
AcDbLine
 10
128.654556
 20
142.446153
 30
0.0
 11
129.469473
 21
142.043987
 31
0.0
  0
LINE
  5
215
100
AcDbEntity
  8
Layer_1
 62
3
100
AcDbLine
 10
129.469473
 20
142.043987
 30
0.0
 11
129.469473
 21
144.986153
 31
0.0
  0
LINE
  5
216
100
AcDbEntity
  8
Layer_1
 62
3
100
AcDbLine
 10
129.469473
 20
144.986153
 30
0.0
 11
128.972056
 21
145.155487
 31
0.0
  0
LINE
  5
217
100
AcDbEntity
  8
Layer_1
 62
3
100
AcDbLine
 10
128.972056
 20
145.155487
 30
0.0
 11
128.114806
 21
145.335403
 31
0.0
  0
LINE
  5
218
100
AcDbEntity
  8
Layer_1
 62
3
100
AcDbLine
 10
128.114806
 20
145.335403
 30
0.0
 11
127.162306
 21
145.451820
 31
0.0
  0
LINE
  5
219
100
AcDbEntity
  8
Layer_1
 62
3
100
AcDbLine
 10
127.162306
 20
145.451820
 30
0.0
 11
126.125139
 21
145.494153
 31
0.0
  0
LINE
  5
21a
100
AcDbEntity
  8
Layer_1
 62
3
100
AcDbLine
 10
126.125139
 20
145.494153
 30
0.0
 11
125.828806
 21
145.472987
 31
0.0
  0
LINE
  5
21b
100
AcDbEntity
  8
Layer_1
 62
3
100
AcDbLine
 10
134.073223
 20
127.248487
 30
0.0
 11
134.073223
 21
124.708487
 31
0.0
  0
LINE
  5
21c
100
AcDbEntity
  8
Layer_1
 62
3
100
AcDbLine
 10
208.886806
 20
91.466237
 30
0.0
 11
211.426806
 21
91.466237
 31
0.0
  0
LINE
  5
21d
100
AcDbEntity
  8
Layer_1
 62
3
100
AcDbLine
 10
188.566806
 20
75.591237
 30
0.0
 11
208.886806
 21
75.591237
 31
0.0
  0
LINE
  5
21e
100
AcDbEntity
  8
Layer_1
 62
3
100
AcDbLine
 10
188.566806
 20
75.591237
 30
0.0
 11
188.566806
 21
73.051237
 31
0.0
  0
LINE
  5
21f
100
AcDbEntity
  8
Layer_1
 62
3
100
AcDbLine
 10
188.566806
 20
73.051237
 30
0.0
 11
211.426806
 21
73.051237
 31
0.0
  0
LINE
  5
220
100
AcDbEntity
  8
Layer_1
 62
3
100
AcDbLine
 10
208.886806
 20
91.466237
 30
0.0
 11
208.886806
 21
73.051237
 31
0.0
  0
LINE
  5
221
100
AcDbEntity
  8
Layer_1
 62
3
100
AcDbLine
 10
211.426806
 20
91.466237
 30
0.0
 11
211.426806
 21
73.051237
 31
0.0
  0
LINE
  5
222
100
AcDbEntity
  8
Layer_1
 62
3
100
AcDbLine
 10
199.340639
 20
83.359403
 30
0.0
 11
199.647556
 21
83.359403
 31
0.0
  0
LINE
  5
223
100
AcDbEntity
  8
Layer_1
 62
3
100
AcDbLine
 10
199.647556
 20
83.359403
 30
0.0
 11
199.943889
 21
83.348961
 31
0.0
  0
LINE
  5
224
100
AcDbEntity
  8
Layer_1
 62
3
100
AcDbLine
 10
199.943889
 20
83.348961
 30
0.0
 11
200.219056
 21
83.338237
 31
0.0
  0
LINE
  5
225
100
AcDbEntity
  8
Layer_1
 62
3
100
AcDbLine
 10
200.219056
 20
83.338237
 30
0.0
 11
200.483639
 21
83.317070
 31
0.0
  0
LINE
  5
226
100
AcDbEntity
  8
Layer_1
 62
3
100
AcDbLine
 10
200.483639
 20
83.317070
 30
0.0
 11
200.716473
 21
83.295903
 31
0.0
  0
LINE
  5
227
100
AcDbEntity
  8
Layer_1
 62
3
100
AcDbLine
 10
200.716473
 20
83.295903
 30
0.0
 11
200.938723
 21
83.264153
 31
0.0
  0
LINE
  5
228
100
AcDbEntity
  8
Layer_1
 62
3
100
AcDbLine
 10
200.938723
 20
83.264153
 30
0.0
 11
201.224473
 21
83.211237
 31
0.0
  0
LINE
  5
229
100
AcDbEntity
  8
Layer_1
 62
3
100
AcDbLine
 10
201.224473
 20
83.211237
 30
0.0
 11
201.478473
 21
83.115987
 31
0.0
  0
LINE
  5
22a
100
AcDbEntity
  8
Layer_1
 62
3
100
AcDbLine
 10
201.478473
 20
83.115987
 30
0.0
 11
201.711306
 21
83.020737
 31
0.0
  0
LINE
  5
22b
100
AcDbEntity
  8
Layer_1
 62
3
100
AcDbLine
 10
201.711306
 20
83.020737
 30
0.0
 11
201.764223
 21
82.988987
 31
0.0
  0
LINE
  5
22c
100
AcDbEntity
  8
Layer_1
 62
3
100
AcDbLine
 10
201.764223
 20
82.988987
 30
0.0
 11
202.028806
 21
82.830237
 31
0.0
  0
LINE
  5
22d
100
AcDbEntity
  8
Layer_1
 62
3
100
AcDbLine
 10
202.028806
 20
82.830237
 30
0.0
 11
202.240473
 21
82.650320
 31
0.0
  0
LINE
  5
22e
100
AcDbEntity
  8
Layer_1
 62
3
100
AcDbLine
 10
202.240473
 20
82.650320
 30
0.0
 11
202.409806
 21
82.459820
 31
0.0
  0
LINE
  5
22f
100
AcDbEntity
  8
Layer_1
 62
3
100
AcDbLine
 10
202.409806
 20
82.459820
 30
0.0
 11
202.547389
 21
82.248153
 31
0.0
  0
LINE
  5
230
100
AcDbEntity
  8
Layer_1
 62
3
100
AcDbLine
 10
202.547389
 20
82.248153
 30
0.0
 11
202.589723
 21
82.142320
 31
0.0
  0
LINE
  5
231
100
AcDbEntity
  8
Layer_1
 62
3
100
AcDbLine
 10
202.589723
 20
82.142320
 30
0.0
 11
202.674389
 21
81.909487
 31
0.0
  0
LINE
  5
232
100
AcDbEntity
  8
Layer_1
 62
3
100
AcDbLine
 10
202.674389
 20
81.909487
 30
0.0
 11
202.727306
 21
81.644903
 31
0.0
  0
LINE
  5
233
100
AcDbEntity
  8
Layer_1
 62
3
100
AcDbLine
 10
202.727306
 20
81.644903
 30
0.0
 11
202.759056
 21
81.359153
 31
0.0
  0
LINE
  5
234
100
AcDbEntity
  8
Layer_1
 62
3
100
AcDbLine
 10
202.759056
 20
81.359153
 30
0.0
 11
202.769498
 21
81.031070
 31
0.0
  0
LINE
  5
235
100
AcDbEntity
  8
Layer_1
 62
3
100
AcDbLine
 10
202.769498
 20
81.031070
 30
0.0
 11
202.769498
 21
80.999320
 31
0.0
  0
LINE
  5
236
100
AcDbEntity
  8
Layer_1
 62
3
100
AcDbLine
 10
202.769498
 20
80.999320
 30
0.0
 11
202.759056
 21
80.681820
 31
0.0
  0
LINE
  5
237
100
AcDbEntity
  8
Layer_1
 62
3
100
AcDbLine
 10
202.759056
 20
80.681820
 30
0.0
 11
202.716723
 21
80.406653
 31
0.0
  0
LINE
  5
238
100
AcDbEntity
  8
Layer_1
 62
3
100
AcDbLine
 10
202.716723
 20
80.406653
 30
0.0
 11
202.642639
 21
80.152653
 31
0.0
  0
LINE
  5
239
100
AcDbEntity
  8
Layer_1
 62
3
100
AcDbLine
 10
202.642639
 20
80.152653
 30
0.0
 11
202.547389
 21
79.930403
 31
0.0
  0
LINE
  5
23a
100
AcDbEntity
  8
Layer_1
 62
3
100
AcDbLine
 10
202.547389
 20
79.930403
 30
0.0
 11
202.452139
 21
79.761070
 31
0.0
  0
LINE
  5
23b
100
AcDbEntity
  8
Layer_1
 62
3
100
AcDbLine
 10
202.452139
 20
79.761070
 30
0.0
 11
202.282806
 21
79.549403
 31
0.0
  0
LINE
  5
23c
100
AcDbEntity
  8
Layer_1
 62
3
100
AcDbLine
 10
202.282806
 20
79.549403
 30
0.0
 11
202.081723
 21
79.358903
 31
0.0
  0
LINE
  5
23d
100
AcDbEntity
  8
Layer_1
 62
3
100
AcDbLine
 10
202.081723
 20
79.358903
 30
0.0
 11
201.848889
 21
79.168403
 31
0.0
  0
LINE
  5
23e
100
AcDbEntity
  8
Layer_1
 62
3
100
AcDbLine
 10
201.848889
 20
79.168403
 30
0.0
 11
201.743056
 21
79.104903
 31
0.0
  0
LINE
  5
23f
100
AcDbEntity
  8
Layer_1
 62
3
100
AcDbLine
 10
201.743056
 20
79.104903
 30
0.0
 11
201.520806
 21
78.988487
 31
0.0
  0
LINE
  5
240
100
AcDbEntity
  8
Layer_1
 62
3
100
AcDbLine
 10
201.520806
 20
78.988487
 30
0.0
 11
201.266806
 21
78.893237
 31
0.0
  0
LINE
  5
241
100
AcDbEntity
  8
Layer_1
 62
3
100
AcDbLine
 10
201.266806
 20
78.893237
 30
0.0
 11
200.991639
 21
78.808570
 31
0.0
  0
LINE
  5
242
100
AcDbEntity
  8
Layer_1
 62
3
100
AcDbLine
 10
200.991639
 20
78.808570
 30
0.0
 11
200.695306
 21
78.755653
 31
0.0
  0
LINE
  5
243
100
AcDbEntity
  8
Layer_1
 62
3
100
AcDbLine
 10
200.695306
 20
78.755653
 30
0.0
 11
200.568306
 21
78.734487
 31
0.0
  0
LINE
  5
244
100
AcDbEntity
  8
Layer_1
 62
3
100
AcDbLine
 10
200.568306
 20
78.734487
 30
0.0
 11
200.335473
 21
78.702737
 31
0.0
  0
LINE
  5
245
100
AcDbEntity
  8
Layer_1
 62
3
100
AcDbLine
 10
200.335473
 20
78.702737
 30
0.0
 11
200.081473
 21
78.681570
 31
0.0
  0
LINE
  5
246
100
AcDbEntity
  8
Layer_1
 62
3
100
AcDbLine
 10
200.081473
 20
78.681570
 30
0.0
 11
199.806306
 21
78.660403
 31
0.0
  0
LINE
  5
247
100
AcDbEntity
  8
Layer_1
 62
3
100
AcDbLine
 10
199.806306
 20
78.660403
 30
0.0
 11
199.520556
 21
78.649679
 31
0.0
  0
LINE
  5
248
100
AcDbEntity
  8
Layer_1
 62
3
100
AcDbLine
 10
199.520556
 20
78.649679
 30
0.0
 11
199.203056
 21
78.639237
 31
0.0
  0
LINE
  5
249
100
AcDbEntity
  8
Layer_1
 62
3
100
AcDbLine
 10
199.203056
 20
78.639237
 30
0.0
 11
198.874973
 21
78.628512
 31
0.0
  0
LINE
  5
24a
100
AcDbEntity
  8
Layer_1
 62
3
100
AcDbLine
 10
198.874973
 20
78.628512
 30
0.0
 11
196.641889
 21
78.628512
 31
0.0
  0
LINE
  5
24b
100
AcDbEntity
  8
Layer_1
 62
3
100
AcDbLine
 10
203.531639
 20
78.522820
 30
0.0
 11
203.711556
 21
78.723903
 31
0.0
  0
LINE
  5
24c
100
AcDbEntity
  8
Layer_1
 62
3
100
AcDbLine
 10
203.711556
 20
78.723903
 30
0.0
 11
203.880889
 21
78.946153
 31
0.0
  0
LINE
  5
24d
100
AcDbEntity
  8
Layer_1
 62
3
100
AcDbLine
 10
203.880889
 20
78.946153
 30
0.0
 11
204.029056
 21
79.178987
 31
0.0
  0
LINE
  5
24e
100
AcDbEntity
  8
Layer_1
 62
3
100
AcDbLine
 10
204.029056
 20
79.178987
 30
0.0
 11
204.166639
 21
79.432987
 31
0.0
  0
LINE
  5
24f
100
AcDbEntity
  8
Layer_1
 62
3
100
AcDbLine
 10
204.166639
 20
79.432987
 30
0.0
 11
204.198389
 21
79.485903
 31
0.0
  0
LINE
  5
250
100
AcDbEntity
  8
Layer_1
 62
3
100
AcDbLine
 10
204.198389
 20
79.485903
 30
0.0
 11
204.293639
 21
79.729320
 31
0.0
  0
LINE
  5
251
100
AcDbEntity
  8
Layer_1
 62
3
100
AcDbLine
 10
204.293639
 20
79.729320
 30
0.0
 11
204.378306
 21
79.972737
 31
0.0
  0
LINE
  5
252
100
AcDbEntity
  8
Layer_1
 62
3
100
AcDbLine
 10
204.378306
 20
79.972737
 30
0.0
 11
204.441806
 21
80.237320
 31
0.0
  0
LINE
  5
253
100
AcDbEntity
  8
Layer_1
 62
3
100
AcDbLine
 10
204.441806
 20
80.237320
 30
0.0
 11
204.494723
 21
80.512487
 31
0.0
  0
LINE
  5
254
100
AcDbEntity
  8
Layer_1
 62
3
100
AcDbLine
 10
204.494723
 20
80.512487
 30
0.0
 11
204.515889
 21
80.798237
 31
0.0
  0
LINE
  5
255
100
AcDbEntity
  8
Layer_1
 62
3
100
AcDbLine
 10
204.515889
 20
80.798237
 30
0.0
 11
204.526614
 21
81.105153
 31
0.0
  0
LINE
  5
256
100
AcDbEntity
  8
Layer_1
 62
3
100
AcDbLine
 10
204.526614
 20
81.105153
 30
0.0
 11
204.526614
 21
81.295653
 31
0.0
  0
LINE
  5
257
100
AcDbEntity
  8
Layer_1
 62
3
100
AcDbLine
 10
204.526614
 20
81.295653
 30
0.0
 11
204.505447
 21
81.591987
 31
0.0
  0
LINE
  5
258
100
AcDbEntity
  8
Layer_1
 62
3
100
AcDbLine
 10
204.505447
 20
81.591987
 30
0.0
 11
204.463114
 21
81.867153
 31
0.0
  0
LINE
  5
259
100
AcDbEntity
  8
Layer_1
 62
3
100
AcDbLine
 10
204.463114
 20
81.867153
 30
0.0
 11
204.389030
 21
82.142320
 31
0.0
  0
LINE
  5
25a
100
AcDbEntity
  8
Layer_1
 62
3
100
AcDbLine
 10
204.389030
 20
82.142320
 30
0.0
 11
204.314947
 21
82.396320
 31
0.0
  0
LINE
  5
25b
100
AcDbEntity
  8
Layer_1
 62
3
100
AcDbLine
 10
204.314947
 20
82.396320
 30
0.0
 11
204.209114
 21
82.639737
 31
0.0
  0
LINE
  5
25c
100
AcDbEntity
  8
Layer_1
 62
3
100
AcDbLine
 10
204.209114
 20
82.639737
 30
0.0
 11
204.092697
 21
82.861987
 31
0.0
  0
LINE
  5
25d
100
AcDbEntity
  8
Layer_1
 62
3
100
AcDbLine
 10
204.092697
 20
82.861987
 30
0.0
 11
203.944530
 21
83.084237
 31
0.0
  0
LINE
  5
25e
100
AcDbEntity
  8
Layer_1
 62
3
100
AcDbLine
 10
203.944530
 20
83.084237
 30
0.0
 11
203.785780
 21
83.295903
 31
0.0
  0
LINE
  5
25f
100
AcDbEntity
  8
Layer_1
 62
3
100
AcDbLine
 10
203.785780
 20
83.295903
 30
0.0
 11
203.669364
 21
83.412320
 31
0.0
  0
LINE
  5
260
100
AcDbEntity
  8
Layer_1
 62
3
100
AcDbLine
 10
198.684473
 20
88.449987
 30
0.0
 11
199.001973
 21
88.449987
 31
0.0
  0
LINE
  5
261
100
AcDbEntity
  8
Layer_1
 62
3
100
AcDbLine
 10
199.001973
 20
88.449987
 30
0.0
 11
199.298306
 21
88.439262
 31
0.0
  0
LINE
  5
262
100
AcDbEntity
  8
Layer_1
 62
3
100
AcDbLine
 10
199.298306
 20
88.439262
 30
0.0
 11
199.573473
 21
88.428820
 31
0.0
  0
LINE
  5
263
100
AcDbEntity
  8
Layer_1
 62
3
100
AcDbLine
 10
199.573473
 20
88.428820
 30
0.0
 11
199.838056
 21
88.418096
 31
0.0
  0
LINE
  5
264
100
AcDbEntity
  8
Layer_1
 62
3
100
AcDbLine
 10
199.838056
 20
88.418096
 30
0.0
 11
200.070889
 21
88.396929
 31
0.0
  0
LINE
  5
265
100
AcDbEntity
  8
Layer_1
 62
3
100
AcDbLine
 10
200.070889
 20
88.396929
 30
0.0
 11
200.282556
 21
88.375762
 31
0.0
  0
LINE
  5
266
100
AcDbEntity
  8
Layer_1
 62
3
100
AcDbLine
 10
200.282556
 20
88.375762
 30
0.0
 11
200.557723
 21
88.312262
 31
0.0
  0
LINE
  5
267
100
AcDbEntity
  8
Layer_1
 62
3
100
AcDbLine
 10
200.557723
 20
88.312262
 30
0.0
 11
200.811723
 21
88.217012
 31
0.0
  0
LINE
  5
268
100
AcDbEntity
  8
Layer_1
 62
3
100
AcDbLine
 10
200.811723
 20
88.217012
 30
0.0
 11
201.044556
 21
88.111179
 31
0.0
  0
LINE
  5
269
100
AcDbEntity
  8
Layer_1
 62
3
100
AcDbLine
 10
201.044556
 20
88.111179
 30
0.0
 11
201.192723
 21
88.005346
 31
0.0
  0
LINE
  5
26a
100
AcDbEntity
  8
Layer_1
 62
3
100
AcDbLine
 10
201.192723
 20
88.005346
 30
0.0
 11
201.393806
 21
87.825429
 31
0.0
  0
LINE
  5
26b
100
AcDbEntity
  8
Layer_1
 62
3
100
AcDbLine
 10
201.393806
 20
87.825429
 30
0.0
 11
201.531389
 21
87.592596
 31
0.0
  0
LINE
  5
26c
100
AcDbEntity
  8
Layer_1
 62
3
100
AcDbLine
 10
201.531389
 20
87.592596
 30
0.0
 11
201.616056
 21
87.391512
 31
0.0
  0
LINE
  5
26d
100
AcDbEntity
  8
Layer_1
 62
3
100
AcDbLine
 10
201.616056
 20
87.391512
 30
0.0
 11
201.668973
 21
87.126929
 31
0.0
  0
LINE
  5
26e
100
AcDbEntity
  8
Layer_1
 62
3
100
AcDbLine
 10
201.668973
 20
87.126929
 30
0.0
 11
201.690139
 21
86.820012
 31
0.0
  0
LINE
  5
26f
100
AcDbEntity
  8
Layer_1
 62
3
100
AcDbLine
 10
201.690139
 20
86.820012
 30
0.0
 11
201.690139
 21
86.661262
 31
0.0
  0
LINE
  5
270
100
AcDbEntity
  8
Layer_1
 62
3
100
AcDbLine
 10
201.690139
 20
86.661262
 30
0.0
 11
201.658389
 21
86.375512
 31
0.0
  0
LINE
  5
271
100
AcDbEntity
  8
Layer_1
 62
3
100
AcDbLine
 10
201.658389
 20
86.375512
 30
0.0
 11
201.605473
 21
86.110929
 31
0.0
  0
LINE
  5
272
100
AcDbEntity
  8
Layer_1
 62
3
100
AcDbLine
 10
201.605473
 20
86.110929
 30
0.0
 11
201.531389
 21
85.867512
 31
0.0
  0
LINE
  5
273
100
AcDbEntity
  8
Layer_1
 62
3
100
AcDbLine
 10
201.531389
 20
85.867512
 30
0.0
 11
201.499639
 21
85.804012
 31
0.0
  0
LINE
  5
274
100
AcDbEntity
  8
Layer_1
 62
3
100
AcDbLine
 10
201.499639
 20
85.804012
 30
0.0
 11
201.362056
 21
85.571179
 31
0.0
  0
LINE
  5
275
100
AcDbEntity
  8
Layer_1
 62
3
100
AcDbLine
 10
201.362056
 20
85.571179
 30
0.0
 11
201.182139
 21
85.370096
 31
0.0
  0
LINE
  5
276
100
AcDbEntity
  8
Layer_1
 62
3
100
AcDbLine
 10
201.182139
 20
85.370096
 30
0.0
 11
200.959889
 21
85.200762
 31
0.0
  0
LINE
  5
277
100
AcDbEntity
  8
Layer_1
 62
3
100
AcDbLine
 10
200.959889
 20
85.200762
 30
0.0
 11
200.864639
 21
85.147846
 31
0.0
  0
LINE
  5
278
100
AcDbEntity
  8
Layer_1
 62
3
100
AcDbLine
 10
200.864639
 20
85.147846
 30
0.0
 11
200.621223
 21
85.020846
 31
0.0
  0
LINE
  5
279
100
AcDbEntity
  8
Layer_1
 62
3
100
AcDbLine
 10
200.621223
 20
85.020846
 30
0.0
 11
200.356639
 21
84.925596
 31
0.0
  0
LINE
  5
27a
100
AcDbEntity
  8
Layer_1
 62
3
100
AcDbLine
 10
200.356639
 20
84.925596
 30
0.0
 11
200.092056
 21
84.872679
 31
0.0
  0
LINE
  5
27b
100
AcDbEntity
  8
Layer_1
 62
3
100
AcDbLine
 10
200.092056
 20
84.872679
 30
0.0
 11
199.965056
 21
84.851512
 31
0.0
  0
LINE
  5
27c
100
AcDbEntity
  8
Layer_1
 62
3
100
AcDbLine
 10
199.965056
 20
84.851512
 30
0.0
 11
199.732223
 21
84.819762
 31
0.0
  0
LINE
  5
27d
100
AcDbEntity
  8
Layer_1
 62
3
100
AcDbLine
 10
199.732223
 20
84.819762
 30
0.0
 11
199.457056
 21
84.798596
 31
0.0
  0
LINE
  5
27e
100
AcDbEntity
  8
Layer_1
 62
3
100
AcDbLine
 10
199.457056
 20
84.798596
 30
0.0
 11
199.160723
 21
84.787871
 31
0.0
  0
LINE
  5
27f
100
AcDbEntity
  8
Layer_1
 62
3
100
AcDbLine
 10
199.160723
 20
84.787871
 30
0.0
 11
198.822056
 21
84.787871
 31
0.0
  0
LINE
  5
280
100
AcDbEntity
  8
Layer_1
 62
3
100
AcDbLine
 10
198.822056
 20
84.787871
 30
0.0
 11
196.641889
 21
84.787871
 31
0.0
  0
LINE
  5
281
100
AcDbEntity
  8
Layer_1
 62
3
100
AcDbLine
 10
202.208723
 20
84.756403
 30
0.0
 11
202.430973
 21
84.925737
 31
0.0
  0
LINE
  5
282
100
AcDbEntity
  8
Layer_1
 62
3
100
AcDbLine
 10
202.430973
 20
84.925737
 30
0.0
 11
202.632056
 21
85.105653
 31
0.0
  0
LINE
  5
283
100
AcDbEntity
  8
Layer_1
 62
3
100
AcDbLine
 10
202.632056
 20
85.105653
 30
0.0
 11
202.822556
 21
85.296153
 31
0.0
  0
LINE
  5
284
100
AcDbEntity
  8
Layer_1
 62
3
100
AcDbLine
 10
202.822556
 20
85.296153
 30
0.0
 11
202.981306
 21
85.507820
 31
0.0
  0
LINE
  5
285
100
AcDbEntity
  8
Layer_1
 62
3
100
AcDbLine
 10
202.981306
 20
85.507820
 30
0.0
 11
203.118889
 21
85.719487
 31
0.0
  0
LINE
  5
286
100
AcDbEntity
  8
Layer_1
 62
3
100
AcDbLine
 10
203.118889
 20
85.719487
 30
0.0
 11
203.235306
 21
85.952320
 31
0.0
  0
LINE
  5
287
100
AcDbEntity
  8
Layer_1
 62
3
100
AcDbLine
 10
203.235306
 20
85.952320
 30
0.0
 11
203.330556
 21
86.206320
 31
0.0
  0
LINE
  5
288
100
AcDbEntity
  8
Layer_1
 62
3
100
AcDbLine
 10
203.330556
 20
86.206320
 30
0.0
 11
203.394056
 21
86.470903
 31
0.0
  0
LINE
  5
289
100
AcDbEntity
  8
Layer_1
 62
3
100
AcDbLine
 10
203.394056
 20
86.470903
 30
0.0
 11
203.436389
 21
86.746070
 31
0.0
  0
LINE
  5
28a
100
AcDbEntity
  8
Layer_1
 62
3
100
AcDbLine
 10
203.436389
 20
86.746070
 30
0.0
 11
203.446832
 21
87.042403
 31
0.0
  0
LINE
  5
28b
100
AcDbEntity
  8
Layer_1
 62
3
100
AcDbLine
 10
203.446832
 20
87.042403
 30
0.0
 11
203.446832
 21
87.105903
 31
0.0
  0
LINE
  5
28c
100
AcDbEntity
  8
Layer_1
 62
3
100
AcDbLine
 10
203.446832
 20
87.105903
 30
0.0
 11
203.425665
 21
87.402237
 31
0.0
  0
LINE
  5
28d
100
AcDbEntity
  8
Layer_1
 62
3
100
AcDbLine
 10
203.425665
 20
87.402237
 30
0.0
 11
203.393915
 21
87.677403
 31
0.0
  0
LINE
  5
28e
100
AcDbEntity
  8
Layer_1
 62
3
100
AcDbLine
 10
203.393915
 20
87.677403
 30
0.0
 11
203.330415
 21
87.941987
 31
0.0
  0
LINE
  5
28f
100
AcDbEntity
  8
Layer_1
 62
3
100
AcDbLine
 10
203.330415
 20
87.941987
 30
0.0
 11
203.245748
 21
88.195987
 31
0.0
  0
LINE
  5
290
100
AcDbEntity
  8
Layer_1
 62
3
100
AcDbLine
 10
203.245748
 20
88.195987
 30
0.0
 11
203.129332
 21
88.428820
 31
0.0
  0
LINE
  5
291
100
AcDbEntity
  8
Layer_1
 62
3
100
AcDbLine
 10
203.129332
 20
88.428820
 30
0.0
 11
203.118889
 21
88.449987
 31
0.0
  0
LINE
  5
292
100
AcDbEntity
  8
Layer_1
 62
3
100
AcDbLine
 10
203.118889
 20
88.449987
 30
0.0
 11
202.970723
 21
88.661653
 31
0.0
  0
LINE
  5
293
100
AcDbEntity
  8
Layer_1
 62
3
100
AcDbLine
 10
198.716223
 20
89.889320
 30
0.0
 11
194.959139
 21
89.889320
 31
0.0
  0
LINE
  5
294
100
AcDbEntity
  8
Layer_1
 62
3
100
AcDbLine
 10
194.959139
 20
89.889320
 30
0.0
 11
194.959139
 21
77.189320
 31
0.0
  0
LINE
  5
295
100
AcDbEntity
  8
Layer_1
 62
3
100
AcDbLine
 10
194.959139
 20
77.189320
 30
0.0
 11
199.457056
 21
77.189320
 31
0.0
  0
LINE
  5
296
100
AcDbEntity
  8
Layer_1
 62
3
100
AcDbLine
 10
199.457056
 20
77.189320
 30
0.0
 11
199.763973
 21
77.199762
 31
0.0
  0
LINE
  5
297
100
AcDbEntity
  8
Layer_1
 62
3
100
AcDbLine
 10
199.763973
 20
77.199762
 30
0.0
 11
200.070889
 21
77.210487
 31
0.0
  0
LINE
  5
298
100
AcDbEntity
  8
Layer_1
 62
3
100
AcDbLine
 10
200.070889
 20
77.210487
 30
0.0
 11
200.367223
 21
77.220929
 31
0.0
  0
LINE
  5
299
100
AcDbEntity
  8
Layer_1
 62
3
100
AcDbLine
 10
200.367223
 20
77.220929
 30
0.0
 11
200.652973
 21
77.252679
 31
0.0
  0
LINE
  5
29a
100
AcDbEntity
  8
Layer_1
 62
3
100
AcDbLine
 10
200.652973
 20
77.252679
 30
0.0
 11
200.917556
 21
77.284429
 31
0.0
  0
LINE
  5
29b
100
AcDbEntity
  8
Layer_1
 62
3
100
AcDbLine
 10
200.917556
 20
77.284429
 30
0.0
 11
201.171556
 21
77.326762
 31
0.0
  0
LINE
  5
29c
100
AcDbEntity
  8
Layer_1
 62
3
100
AcDbLine
 10
201.171556
 20
77.326762
 30
0.0
 11
201.414973
 21
77.379679
 31
0.0
  0
LINE
  5
29d
100
AcDbEntity
  8
Layer_1
 62
3
100
AcDbLine
 10
201.414973
 20
77.379679
 30
0.0
 11
201.637223
 21
77.432596
 31
0.0
  0
LINE
  5
29e
100
AcDbEntity
  8
Layer_1
 62
3
100
AcDbLine
 10
201.637223
 20
77.432596
 30
0.0
 11
201.743056
 21
77.464346
 31
0.0
  0
LINE
  5
29f
100
AcDbEntity
  8
Layer_1
 62
3
100
AcDbLine
 10
201.743056
 20
77.464346
 30
0.0
 11
202.007639
 21
77.549012
 31
0.0
  0
LINE
  5
2a0
100
AcDbEntity
  8
Layer_1
 62
3
100
AcDbLine
 10
202.007639
 20
77.549012
 30
0.0
 11
202.261639
 21
77.654846
 31
0.0
  0
LINE
  5
2a1
100
AcDbEntity
  8
Layer_1
 62
3
100
AcDbLine
 10
202.261639
 20
77.654846
 30
0.0
 11
202.505056
 21
77.781846
 31
0.0
  0
LINE
  5
2a2
100
AcDbEntity
  8
Layer_1
 62
3
100
AcDbLine
 10
202.505056
 20
77.781846
 30
0.0
 11
202.748473
 21
77.908846
 31
0.0
  0
LINE
  5
2a3
100
AcDbEntity
  8
Layer_1
 62
3
100
AcDbLine
 10
202.748473
 20
77.908846
 30
0.0
 11
202.981306
 21
78.067596
 31
0.0
  0
LINE
  5
2a4
100
AcDbEntity
  8
Layer_1
 62
3
100
AcDbLine
 10
202.981306
 20
78.067596
 30
0.0
 11
203.203556
 21
78.236929
 31
0.0
  0
LINE
  5
2a5
100
AcDbEntity
  8
Layer_1
 62
3
100
AcDbLine
 10
203.203556
 20
78.236929
 30
0.0
 11
203.330556
 21
78.342762
 31
0.0
  0
LINE
  5
2a6
100
AcDbEntity
  8
Layer_1
 62
3
100
AcDbLine
 10
203.330556
 20
78.342762
 30
0.0
 11
203.531639
 21
78.522679
 31
0.0
  0
LINE
  5
2a7
100
AcDbEntity
  8
Layer_1
 62
3
100
AcDbLine
 10
196.641889
 20
78.628653
 30
0.0
 11
196.641889
 21
83.359403
 31
0.0
  0
LINE
  5
2a8
100
AcDbEntity
  8
Layer_1
 62
3
100
AcDbLine
 10
196.641889
 20
83.359403
 30
0.0
 11
199.340639
 21
83.359403
 31
0.0
  0
LINE
  5
2a9
100
AcDbEntity
  8
Layer_1
 62
3
100
AcDbLine
 10
203.669223
 20
83.412320
 30
0.0
 11
203.478723
 21
83.602820
 31
0.0
  0
LINE
  5
2aa
100
AcDbEntity
  8
Layer_1
 62
3
100
AcDbLine
 10
203.478723
 20
83.602820
 30
0.0
 11
203.277639
 21
83.761570
 31
0.0
  0
LINE
  5
2ab
100
AcDbEntity
  8
Layer_1
 62
3
100
AcDbLine
 10
203.277639
 20
83.761570
 30
0.0
 11
203.065973
 21
83.909737
 31
0.0
  0
LINE
  5
2ac
100
AcDbEntity
  8
Layer_1
 62
3
100
AcDbLine
 10
203.065973
 20
83.909737
 30
0.0
 11
202.833139
 21
84.047320
 31
0.0
  0
LINE
  5
2ad
100
AcDbEntity
  8
Layer_1
 62
3
100
AcDbLine
 10
202.833139
 20
84.047320
 30
0.0
 11
202.589723
 21
84.163737
 31
0.0
  0
LINE
  5
2ae
100
AcDbEntity
  8
Layer_1
 62
3
100
AcDbLine
 10
202.589723
 20
84.163737
 30
0.0
 11
202.325139
 21
84.258987
 31
0.0
  0
LINE
  5
2af
100
AcDbEntity
  8
Layer_1
 62
3
100
AcDbLine
 10
202.325139
 20
84.258987
 30
0.0
 11
202.049973
 21
84.343653
 31
0.0
  0
LINE
  5
2b0
100
AcDbEntity
  8
Layer_1
 62
3
100
AcDbLine
 10
202.049973
 20
84.343653
 30
0.0
 11
201.753639
 21
84.417737
 31
0.0
  0
LINE
  5
2b1
100
AcDbEntity
  8
Layer_1
 62
3
100
AcDbLine
 10
201.753639
 20
84.417737
 30
0.0
 11
201.753639
 21
84.481237
 31
0.0
  0
LINE
  5
2b2
100
AcDbEntity
  8
Layer_1
 62
3
100
AcDbLine
 10
201.753639
 20
84.481237
 30
0.0
 11
201.975889
 21
84.597653
 31
0.0
  0
LINE
  5
2b3
100
AcDbEntity
  8
Layer_1
 62
3
100
AcDbLine
 10
201.975889
 20
84.597653
 30
0.0
 11
202.208723
 21
84.756403
 31
0.0
  0
LINE
  5
2b4
100
AcDbEntity
  8
Layer_1
 62
3
100
AcDbLine
 10
196.641889
 20
84.788153
 30
0.0
 11
196.641889
 21
88.449987
 31
0.0
  0
LINE
  5
2b5
100
AcDbEntity
  8
Layer_1
 62
3
100
AcDbLine
 10
196.641889
 20
88.449987
 30
0.0
 11
198.684473
 21
88.449987
 31
0.0
  0
LINE
  5
2b6
100
AcDbEntity
  8
Layer_1
 62
3
100
AcDbLine
 10
202.970723
 20
88.661653
 30
0.0
 11
202.801389
 21
88.862737
 31
0.0
  0
LINE
  5
2b7
100
AcDbEntity
  8
Layer_1
 62
3
100
AcDbLine
 10
202.801389
 20
88.862737
 30
0.0
 11
202.600306
 21
89.042653
 31
0.0
  0
LINE
  5
2b8
100
AcDbEntity
  8
Layer_1
 62
3
100
AcDbLine
 10
202.600306
 20
89.042653
 30
0.0
 11
202.378056
 21
89.211987
 31
0.0
  0
LINE
  5
2b9
100
AcDbEntity
  8
Layer_1
 62
3
100
AcDbLine
 10
202.378056
 20
89.211987
 30
0.0
 11
202.113473
 21
89.360153
 31
0.0
  0
LINE
  5
2ba
100
AcDbEntity
  8
Layer_1
 62
3
100
AcDbLine
 10
202.113473
 20
89.360153
 30
0.0
 11
202.113473
 21
89.370596
 31
0.0
  0
LINE
  5
2bb
100
AcDbEntity
  8
Layer_1
 62
3
100
AcDbLine
 10
202.113473
 20
89.370596
 30
0.0
 11
201.848889
 21
89.487012
 31
0.0
  0
LINE
  5
2bc
100
AcDbEntity
  8
Layer_1
 62
3
100
AcDbLine
 10
201.848889
 20
89.487012
 30
0.0
 11
201.594889
 21
89.592846
 31
0.0
  0
LINE
  5
2bd
100
AcDbEntity
  8
Layer_1
 62
3
100
AcDbLine
 10
201.594889
 20
89.592846
 30
0.0
 11
201.330306
 21
89.677512
 31
0.0
  0
LINE
  5
2be
100
AcDbEntity
  8
Layer_1
 62
3
100
AcDbLine
 10
201.330306
 20
89.677512
 30
0.0
 11
201.065723
 21
89.741012
 31
0.0
  0
LINE
  5
2bf
100
AcDbEntity
  8
Layer_1
 62
3
100
AcDbLine
 10
201.065723
 20
89.741012
 30
0.0
 11
200.790556
 21
89.793929
 31
0.0
  0
LINE
  5
2c0
100
AcDbEntity
  8
Layer_1
 62
3
100
AcDbLine
 10
200.790556
 20
89.793929
 30
0.0
 11
200.705889
 21
89.804653
 31
0.0
  0
LINE
  5
2c1
100
AcDbEntity
  8
Layer_1
 62
3
100
AcDbLine
 10
200.705889
 20
89.804653
 30
0.0
 11
200.494223
 21
89.825820
 31
0.0
  0
LINE
  5
2c2
100
AcDbEntity
  8
Layer_1
 62
3
100
AcDbLine
 10
200.494223
 20
89.825820
 30
0.0
 11
200.261389
 21
89.846987
 31
0.0
  0
LINE
  5
2c3
100
AcDbEntity
  8
Layer_1
 62
3
100
AcDbLine
 10
200.261389
 20
89.846987
 30
0.0
 11
199.996806
 21
89.868153
 31
0.0
  0
LINE
  5
2c4
100
AcDbEntity
  8
Layer_1
 62
3
100
AcDbLine
 10
199.996806
 20
89.868153
 30
0.0
 11
199.711056
 21
89.878878
 31
0.0
  0
LINE
  5
2c5
100
AcDbEntity
  8
Layer_1
 62
3
100
AcDbLine
 10
199.711056
 20
89.878878
 30
0.0
 11
199.404139
 21
89.889320
 31
0.0
  0
LINE
  5
2c6
100
AcDbEntity
  8
Layer_1
 62
3
100
AcDbLine
 10
199.404139
 20
89.889320
 30
0.0
 11
199.076056
 21
89.889320
 31
0.0
  0
LINE
  5
2c7
100
AcDbEntity
  8
Layer_1
 62
3
100
AcDbLine
 10
199.076056
 20
89.889320
 30
0.0
 11
198.716223
 21
89.889320
 31
0.0
  0
LINE
  5
2c8
100
AcDbEntity
  8
Layer_1
 62
3
100
AcDbLine
 10
61.154056
 20
91.201653
 30
0.0
 11
63.694056
 21
91.201653
 31
0.0
  0
LINE
  5
2c9
100
AcDbEntity
  8
Layer_1
 62
3
100
AcDbLine
 10
40.834056
 20
75.326653
 30
0.0
 11
61.154056
 21
75.326653
 31
0.0
  0
LINE
  5
2ca
100
AcDbEntity
  8
Layer_1
 62
3
100
AcDbLine
 10
40.834056
 20
75.326653
 30
0.0
 11
40.834056
 21
72.786653
 31
0.0
  0
LINE
  5
2cb
100
AcDbEntity
  8
Layer_1
 62
3
100
AcDbLine
 10
40.834056
 20
72.786653
 30
0.0
 11
63.694056
 21
72.786653
 31
0.0
  0
LINE
  5
2cc
100
AcDbEntity
  8
Layer_1
 62
3
100
AcDbLine
 10
61.154056
 20
91.201653
 30
0.0
 11
61.154056
 21
72.786653
 31
0.0
  0
LINE
  5
2cd
100
AcDbEntity
  8
Layer_1
 62
3
100
AcDbLine
 10
63.694056
 20
91.201653
 30
0.0
 11
63.694056
 21
72.786653
 31
0.0
  0
LINE
  5
2ce
100
AcDbEntity
  8
Layer_1
 62
3
100
AcDbLine
 10
51.607889
 20
83.094820
 30
0.0
 11
51.914806
 21
83.084378
 31
0.0
  0
LINE
  5
2cf
100
AcDbEntity
  8
Layer_1
 62
3
100
AcDbLine
 10
51.914806
 20
83.084378
 30
0.0
 11
52.211139
 21
83.084378
 31
0.0
  0
LINE
  5
2d0
100
AcDbEntity
  8
Layer_1
 62
3
100
AcDbLine
 10
52.211139
 20
83.084378
 30
0.0
 11
52.496889
 21
83.073653
 31
0.0
  0
LINE
  5
2d1
100
AcDbEntity
  8
Layer_1
 62
3
100
AcDbLine
 10
52.496889
 20
83.073653
 30
0.0
 11
52.750889
 21
83.052487
 31
0.0
  0
LINE
  5
2d2
100
AcDbEntity
  8
Layer_1
 62
3
100
AcDbLine
 10
52.750889
 20
83.052487
 30
0.0
 11
52.983723
 21
83.031320
 31
0.0
  0
LINE
  5
2d3
100
AcDbEntity
  8
Layer_1
 62
3
100
AcDbLine
 10
52.983723
 20
83.031320
 30
0.0
 11
53.205973
 21
82.999570
 31
0.0
  0
LINE
  5
2d4
100
AcDbEntity
  8
Layer_1
 62
3
100
AcDbLine
 10
53.205973
 20
82.999570
 30
0.0
 11
53.491723
 21
82.936070
 31
0.0
  0
LINE
  5
2d5
100
AcDbEntity
  8
Layer_1
 62
3
100
AcDbLine
 10
53.491723
 20
82.936070
 30
0.0
 11
53.745723
 21
82.851403
 31
0.0
  0
LINE
  5
2d6
100
AcDbEntity
  8
Layer_1
 62
3
100
AcDbLine
 10
53.745723
 20
82.851403
 30
0.0
 11
53.978556
 21
82.745570
 31
0.0
  0
LINE
  5
2d7
100
AcDbEntity
  8
Layer_1
 62
3
100
AcDbLine
 10
53.978556
 20
82.745570
 30
0.0
 11
54.031473
 21
82.713820
 31
0.0
  0
LINE
  5
2d8
100
AcDbEntity
  8
Layer_1
 62
3
100
AcDbLine
 10
54.031473
 20
82.713820
 30
0.0
 11
54.296056
 21
82.555070
 31
0.0
  0
LINE
  5
2d9
100
AcDbEntity
  8
Layer_1
 62
3
100
AcDbLine
 10
54.296056
 20
82.555070
 30
0.0
 11
54.507723
 21
82.375153
 31
0.0
  0
LINE
  5
2da
100
AcDbEntity
  8
Layer_1
 62
3
100
AcDbLine
 10
54.507723
 20
82.375153
 30
0.0
 11
54.677056
 21
82.184653
 31
0.0
  0
LINE
  5
2db
100
AcDbEntity
  8
Layer_1
 62
3
100
AcDbLine
 10
54.677056
 20
82.184653
 30
0.0
 11
54.814639
 21
81.983570
 31
0.0
  0
LINE
  5
2dc
100
AcDbEntity
  8
Layer_1
 62
3
100
AcDbLine
 10
54.814639
 20
81.983570
 30
0.0
 11
54.856973
 21
81.867153
 31
0.0
  0
LINE
  5
2dd
100
AcDbEntity
  8
Layer_1
 62
3
100
AcDbLine
 10
54.856973
 20
81.867153
 30
0.0
 11
54.941639
 21
81.634320
 31
0.0
  0
LINE
  5
2de
100
AcDbEntity
  8
Layer_1
 62
3
100
AcDbLine
 10
54.941639
 20
81.634320
 30
0.0
 11
54.994556
 21
81.380320
 31
0.0
  0
LINE
  5
2df
100
AcDbEntity
  8
Layer_1
 62
3
100
AcDbLine
 10
54.994556
 20
81.380320
 30
0.0
 11
55.026306
 21
81.083987
 31
0.0
  0
LINE
  5
2e0
100
AcDbEntity
  8
Layer_1
 62
3
100
AcDbLine
 10
55.026306
 20
81.083987
 30
0.0
 11
55.036748
 21
80.766487
 31
0.0
  0
LINE
  5
2e1
100
AcDbEntity
  8
Layer_1
 62
3
100
AcDbLine
 10
55.036748
 20
80.766487
 30
0.0
 11
55.036748
 21
80.724153
 31
0.0
  0
LINE
  5
2e2
100
AcDbEntity
  8
Layer_1
 62
3
100
AcDbLine
 10
55.036748
 20
80.724153
 30
0.0
 11
55.026306
 21
80.417237
 31
0.0
  0
LINE
  5
2e3
100
AcDbEntity
  8
Layer_1
 62
3
100
AcDbLine
 10
55.026306
 20
80.417237
 30
0.0
 11
54.983973
 21
80.131487
 31
0.0
  0
LINE
  5
2e4
100
AcDbEntity
  8
Layer_1
 62
3
100
AcDbLine
 10
54.983973
 20
80.131487
 30
0.0
 11
54.909889
 21
79.877487
 31
0.0
  0
LINE
  5
2e5
100
AcDbEntity
  8
Layer_1
 62
3
100
AcDbLine
 10
54.909889
 20
79.877487
 30
0.0
 11
54.814639
 21
79.665820
 31
0.0
  0
LINE
  5
2e6
100
AcDbEntity
  8
Layer_1
 62
3
100
AcDbLine
 10
54.814639
 20
79.665820
 30
0.0
 11
54.719389
 21
79.485903
 31
0.0
  0
LINE
  5
2e7
100
AcDbEntity
  8
Layer_1
 62
3
100
AcDbLine
 10
54.719389
 20
79.485903
 30
0.0
 11
54.560639
 21
79.284820
 31
0.0
  0
LINE
  5
2e8
100
AcDbEntity
  8
Layer_1
 62
3
100
AcDbLine
 10
54.560639
 20
79.284820
 30
0.0
 11
54.359556
 21
79.083737
 31
0.0
  0
LINE
  5
2e9
100
AcDbEntity
  8
Layer_1
 62
3
100
AcDbLine
 10
54.359556
 20
79.083737
 30
0.0
 11
54.126723
 21
78.903820
 31
0.0
  0
LINE
  5
2ea
100
AcDbEntity
  8
Layer_1
 62
3
100
AcDbLine
 10
54.126723
 20
78.903820
 30
0.0
 11
54.020889
 21
78.840320
 31
0.0
  0
LINE
  5
2eb
100
AcDbEntity
  8
Layer_1
 62
3
100
AcDbLine
 10
54.020889
 20
78.840320
 30
0.0
 11
53.788056
 21
78.723903
 31
0.0
  0
LINE
  5
2ec
100
AcDbEntity
  8
Layer_1
 62
3
100
AcDbLine
 10
53.788056
 20
78.723903
 30
0.0
 11
53.544639
 21
78.618070
 31
0.0
  0
LINE
  5
2ed
100
AcDbEntity
  8
Layer_1
 62
3
100
AcDbLine
 10
53.544639
 20
78.618070
 30
0.0
 11
53.258889
 21
78.543987
 31
0.0
  0
LINE
  5
2ee
100
AcDbEntity
  8
Layer_1
 62
3
100
AcDbLine
 10
53.258889
 20
78.543987
 30
0.0
 11
52.962556
 21
78.480487
 31
0.0
  0
LINE
  5
2ef
100
AcDbEntity
  8
Layer_1
 62
3
100
AcDbLine
 10
52.962556
 20
78.480487
 30
0.0
 11
52.846139
 21
78.469762
 31
0.0
  0
LINE
  5
2f0
100
AcDbEntity
  8
Layer_1
 62
3
100
AcDbLine
 10
52.846139
 20
78.469762
 30
0.0
 11
52.602723
 21
78.438012
 31
0.0
  0
LINE
  5
2f1
100
AcDbEntity
  8
Layer_1
 62
3
100
AcDbLine
 10
52.602723
 20
78.438012
 30
0.0
 11
52.348723
 21
78.406262
 31
0.0
  0
LINE
  5
2f2
100
AcDbEntity
  8
Layer_1
 62
3
100
AcDbLine
 10
52.348723
 20
78.406262
 30
0.0
 11
52.073556
 21
78.385096
 31
0.0
  0
LINE
  5
2f3
100
AcDbEntity
  8
Layer_1
 62
3
100
AcDbLine
 10
52.073556
 20
78.385096
 30
0.0
 11
51.787806
 21
78.374653
 31
0.0
  0
LINE
  5
2f4
100
AcDbEntity
  8
Layer_1
 62
3
100
AcDbLine
 10
51.787806
 20
78.374653
 30
0.0
 11
51.480889
 21
78.363929
 31
0.0
  0
LINE
  5
2f5
100
AcDbEntity
  8
Layer_1
 62
3
100
AcDbLine
 10
51.480889
 20
78.363929
 30
0.0
 11
51.152806
 21
78.363929
 31
0.0
  0
LINE
  5
2f6
100
AcDbEntity
  8
Layer_1
 62
3
100
AcDbLine
 10
51.152806
 20
78.363929
 30
0.0
 11
48.919723
 21
78.363929
 31
0.0
  0
LINE
  5
2f7
100
AcDbEntity
  8
Layer_1
 62
3
100
AcDbLine
 10
55.798889
 20
78.258237
 30
0.0
 11
55.989389
 21
78.459320
 31
0.0
  0
LINE
  5
2f8
100
AcDbEntity
  8
Layer_1
 62
3
100
AcDbLine
 10
55.989389
 20
78.459320
 30
0.0
 11
56.148139
 21
78.670987
 31
0.0
  0
LINE
  5
2f9
100
AcDbEntity
  8
Layer_1
 62
3
100
AcDbLine
 10
56.148139
 20
78.670987
 30
0.0
 11
56.306889
 21
78.903820
 31
0.0
  0
LINE
  5
2fa
100
AcDbEntity
  8
Layer_1
 62
3
100
AcDbLine
 10
56.306889
 20
78.903820
 30
0.0
 11
56.444473
 21
79.157820
 31
0.0
  0
LINE
  5
2fb
100
AcDbEntity
  8
Layer_1
 62
3
100
AcDbLine
 10
56.444473
 20
79.157820
 30
0.0
 11
56.465639
 21
79.210737
 31
0.0
  0
LINE
  5
2fc
100
AcDbEntity
  8
Layer_1
 62
3
100
AcDbLine
 10
56.465639
 20
79.210737
 30
0.0
 11
56.571473
 21
79.454153
 31
0.0
  0
LINE
  5
2fd
100
AcDbEntity
  8
Layer_1
 62
3
100
AcDbLine
 10
56.571473
 20
79.454153
 30
0.0
 11
56.645556
 21
79.708153
 31
0.0
  0
LINE
  5
2fe
100
AcDbEntity
  8
Layer_1
 62
3
100
AcDbLine
 10
56.645556
 20
79.708153
 30
0.0
 11
56.719639
 21
79.972737
 31
0.0
  0
LINE
  5
2ff
100
AcDbEntity
  8
Layer_1
 62
3
100
AcDbLine
 10
56.719639
 20
79.972737
 30
0.0
 11
56.761973
 21
80.247903
 31
0.0
  0
LINE
  5
300
100
AcDbEntity
  8
Layer_1
 62
3
100
AcDbLine
 10
56.761973
 20
80.247903
 30
0.0
 11
56.793723
 21
80.533653
 31
0.0
  0
LINE
  5
301
100
AcDbEntity
  8
Layer_1
 62
3
100
AcDbLine
 10
56.793723
 20
80.533653
 30
0.0
 11
56.793723
 21
80.829987
 31
0.0
  0
LINE
  5
302
100
AcDbEntity
  8
Layer_1
 62
3
100
AcDbLine
 10
56.793723
 20
80.829987
 30
0.0
 11
56.793723
 21
81.031070
 31
0.0
  0
LINE
  5
303
100
AcDbEntity
  8
Layer_1
 62
3
100
AcDbLine
 10
56.793723
 20
81.031070
 30
0.0
 11
56.772556
 21
81.316820
 31
0.0
  0
LINE
  5
304
100
AcDbEntity
  8
Layer_1
 62
3
100
AcDbLine
 10
56.772556
 20
81.316820
 30
0.0
 11
56.730223
 21
81.602570
 31
0.0
  0
LINE
  5
305
100
AcDbEntity
  8
Layer_1
 62
3
100
AcDbLine
 10
56.730223
 20
81.602570
 30
0.0
 11
56.666723
 21
81.867153
 31
0.0
  0
LINE
  5
306
100
AcDbEntity
  8
Layer_1
 62
3
100
AcDbLine
 10
56.666723
 20
81.867153
 30
0.0
 11
56.582056
 21
82.121153
 31
0.0
  0
LINE
  5
307
100
AcDbEntity
  8
Layer_1
 62
3
100
AcDbLine
 10
56.582056
 20
82.121153
 30
0.0
 11
56.476223
 21
82.364570
 31
0.0
  0
LINE
  5
308
100
AcDbEntity
  8
Layer_1
 62
3
100
AcDbLine
 10
56.476223
 20
82.364570
 30
0.0
 11
56.359806
 21
82.597403
 31
0.0
  0
LINE
  5
309
100
AcDbEntity
  8
Layer_1
 62
3
100
AcDbLine
 10
56.359806
 20
82.597403
 30
0.0
 11
56.222223
 21
82.809070
 31
0.0
  0
LINE
  5
30a
100
AcDbEntity
  8
Layer_1
 62
3
100
AcDbLine
 10
56.222223
 20
82.809070
 30
0.0
 11
56.052889
 21
83.020737
 31
0.0
  0
LINE
  5
30b
100
AcDbEntity
  8
Layer_1
 62
3
100
AcDbLine
 10
56.052889
 20
83.020737
 30
0.0
 11
55.947056
 21
83.147737
 31
0.0
  0
LINE
  5
30c
100
AcDbEntity
  8
Layer_1
 62
3
100
AcDbLine
 10
50.951723
 20
88.185403
 30
0.0
 11
51.279806
 21
88.174679
 31
0.0
  0
LINE
  5
30d
100
AcDbEntity
  8
Layer_1
 62
3
100
AcDbLine
 10
51.279806
 20
88.174679
 30
0.0
 11
51.576139
 21
88.174679
 31
0.0
  0
LINE
  5
30e
100
AcDbEntity
  8
Layer_1
 62
3
100
AcDbLine
 10
51.576139
 20
88.174679
 30
0.0
 11
51.851306
 21
88.164237
 31
0.0
  0
LINE
  5
30f
100
AcDbEntity
  8
Layer_1
 62
3
100
AcDbLine
 10
51.851306
 20
88.164237
 30
0.0
 11
52.105306
 21
88.153512
 31
0.0
  0
LINE
  5
310
100
AcDbEntity
  8
Layer_1
 62
3
100
AcDbLine
 10
52.105306
 20
88.153512
 30
0.0
 11
52.338139
 21
88.132346
 31
0.0
  0
LINE
  5
311
100
AcDbEntity
  8
Layer_1
 62
3
100
AcDbLine
 10
52.338139
 20
88.132346
 30
0.0
 11
52.549806
 21
88.100596
 31
0.0
  0
LINE
  5
312
100
AcDbEntity
  8
Layer_1
 62
3
100
AcDbLine
 10
52.549806
 20
88.100596
 30
0.0
 11
52.824973
 21
88.037096
 31
0.0
  0
LINE
  5
313
100
AcDbEntity
  8
Layer_1
 62
3
100
AcDbLine
 10
52.824973
 20
88.037096
 30
0.0
 11
53.078973
 21
87.952429
 31
0.0
  0
LINE
  5
314
100
AcDbEntity
  8
Layer_1
 62
3
100
AcDbLine
 10
53.078973
 20
87.952429
 30
0.0
 11
53.311806
 21
87.836012
 31
0.0
  0
LINE
  5
315
100
AcDbEntity
  8
Layer_1
 62
3
100
AcDbLine
 10
53.311806
 20
87.836012
 30
0.0
 11
53.470556
 21
87.740762
 31
0.0
  0
LINE
  5
316
100
AcDbEntity
  8
Layer_1
 62
3
100
AcDbLine
 10
53.470556
 20
87.740762
 30
0.0
 11
53.661056
 21
87.550262
 31
0.0
  0
LINE
  5
317
100
AcDbEntity
  8
Layer_1
 62
3
100
AcDbLine
 10
53.661056
 20
87.550262
 30
0.0
 11
53.809223
 21
87.328012
 31
0.0
  0
LINE
  5
318
100
AcDbEntity
  8
Layer_1
 62
3
100
AcDbLine
 10
53.809223
 20
87.328012
 30
0.0
 11
53.883306
 21
87.116346
 31
0.0
  0
LINE
  5
319
100
AcDbEntity
  8
Layer_1
 62
3
100
AcDbLine
 10
53.883306
 20
87.116346
 30
0.0
 11
53.936223
 21
86.851762
 31
0.0
  0
LINE
  5
31a
100
AcDbEntity
  8
Layer_1
 62
3
100
AcDbLine
 10
53.936223
 20
86.851762
 30
0.0
 11
53.957389
 21
86.555429
 31
0.0
  0
LINE
  5
31b
100
AcDbEntity
  8
Layer_1
 62
3
100
AcDbLine
 10
53.957389
 20
86.555429
 30
0.0
 11
53.957389
 21
86.386096
 31
0.0
  0
LINE
  5
31c
100
AcDbEntity
  8
Layer_1
 62
3
100
AcDbLine
 10
53.957389
 20
86.386096
 30
0.0
 11
53.925639
 21
86.100346
 31
0.0
  0
LINE
  5
31d
100
AcDbEntity
  8
Layer_1
 62
3
100
AcDbLine
 10
53.925639
 20
86.100346
 30
0.0
 11
53.872723
 21
85.835762
 31
0.0
  0
LINE
  5
31e
100
AcDbEntity
  8
Layer_1
 62
3
100
AcDbLine
 10
53.872723
 20
85.835762
 30
0.0
 11
53.798639
 21
85.592346
 31
0.0
  0
LINE
  5
31f
100
AcDbEntity
  8
Layer_1
 62
3
100
AcDbLine
 10
53.798639
 20
85.592346
 30
0.0
 11
53.766889
 21
85.539429
 31
0.0
  0
LINE
  5
320
100
AcDbEntity
  8
Layer_1
 62
3
100
AcDbLine
 10
53.766889
 20
85.539429
 30
0.0
 11
53.629306
 21
85.306596
 31
0.0
  0
LINE
  5
321
100
AcDbEntity
  8
Layer_1
 62
3
100
AcDbLine
 10
53.629306
 20
85.306596
 30
0.0
 11
53.449389
 21
85.105512
 31
0.0
  0
LINE
  5
322
100
AcDbEntity
  8
Layer_1
 62
3
100
AcDbLine
 10
53.449389
 20
85.105512
 30
0.0
 11
53.227139
 21
84.936179
 31
0.0
  0
LINE
  5
323
100
AcDbEntity
  8
Layer_1
 62
3
100
AcDbLine
 10
53.227139
 20
84.936179
 30
0.0
 11
53.131889
 21
84.872679
 31
0.0
  0
LINE
  5
324
100
AcDbEntity
  8
Layer_1
 62
3
100
AcDbLine
 10
53.131889
 20
84.872679
 30
0.0
 11
52.888473
 21
84.756262
 31
0.0
  0
LINE
  5
325
100
AcDbEntity
  8
Layer_1
 62
3
100
AcDbLine
 10
52.888473
 20
84.756262
 30
0.0
 11
52.623889
 21
84.661012
 31
0.0
  0
LINE
  5
326
100
AcDbEntity
  8
Layer_1
 62
3
100
AcDbLine
 10
52.623889
 20
84.661012
 30
0.0
 11
52.359306
 21
84.597512
 31
0.0
  0
LINE
  5
327
100
AcDbEntity
  8
Layer_1
 62
3
100
AcDbLine
 10
52.359306
 20
84.597512
 30
0.0
 11
52.242889
 21
84.576346
 31
0.0
  0
LINE
  5
328
100
AcDbEntity
  8
Layer_1
 62
3
100
AcDbLine
 10
52.242889
 20
84.576346
 30
0.0
 11
51.999473
 21
84.555179
 31
0.0
  0
LINE
  5
329
100
AcDbEntity
  8
Layer_1
 62
3
100
AcDbLine
 10
51.999473
 20
84.555179
 30
0.0
 11
51.734889
 21
84.534012
 31
0.0
  0
LINE
  5
32a
100
AcDbEntity
  8
Layer_1
 62
3
100
AcDbLine
 10
51.734889
 20
84.534012
 30
0.0
 11
51.427973
 21
84.523288
 31
0.0
  0
LINE
  5
32b
100
AcDbEntity
  8
Layer_1
 62
3
100
AcDbLine
 10
51.427973
 20
84.523288
 30
0.0
 11
51.099889
 21
84.512846
 31
0.0
  0
LINE
  5
32c
100
AcDbEntity
  8
Layer_1
 62
3
100
AcDbLine
 10
51.099889
 20
84.512846
 30
0.0
 11
48.919723
 21
84.512846
 31
0.0
  0
LINE
  5
32d
100
AcDbEntity
  8
Layer_1
 62
3
100
AcDbLine
 10
54.486556
 20
84.481237
 30
0.0
 11
54.698223
 21
84.650570
 31
0.0
  0
LINE
  5
32e
100
AcDbEntity
  8
Layer_1
 62
3
100
AcDbLine
 10
54.698223
 20
84.650570
 30
0.0
 11
54.909889
 21
84.830487
 31
0.0
  0
LINE
  5
32f
100
AcDbEntity
  8
Layer_1
 62
3
100
AcDbLine
 10
54.909889
 20
84.830487
 30
0.0
 11
55.089806
 21
85.031570
 31
0.0
  0
LINE
  5
330
100
AcDbEntity
  8
Layer_1
 62
3
100
AcDbLine
 10
55.089806
 20
85.031570
 30
0.0
 11
55.259139
 21
85.243237
 31
0.0
  0
LINE
  5
331
100
AcDbEntity
  8
Layer_1
 62
3
100
AcDbLine
 10
55.259139
 20
85.243237
 30
0.0
 11
55.386139
 21
85.444320
 31
0.0
  0
LINE
  5
332
100
AcDbEntity
  8
Layer_1
 62
3
100
AcDbLine
 10
55.386139
 20
85.444320
 30
0.0
 11
55.513139
 21
85.677153
 31
0.0
  0
LINE
  5
333
100
AcDbEntity
  8
Layer_1
 62
3
100
AcDbLine
 10
55.513139
 20
85.677153
 30
0.0
 11
55.597806
 21
85.931153
 31
0.0
  0
LINE
  5
334
100
AcDbEntity
  8
Layer_1
 62
3
100
AcDbLine
 10
55.597806
 20
85.931153
 30
0.0
 11
55.661306
 21
86.195737
 31
0.0
  0
LINE
  5
335
100
AcDbEntity
  8
Layer_1
 62
3
100
AcDbLine
 10
55.661306
 20
86.195737
 30
0.0
 11
55.703639
 21
86.481487
 31
0.0
  0
LINE
  5
336
100
AcDbEntity
  8
Layer_1
 62
3
100
AcDbLine
 10
55.703639
 20
86.481487
 30
0.0
 11
55.714082
 21
86.777820
 31
0.0
  0
LINE
  5
337
100
AcDbEntity
  8
Layer_1
 62
3
100
AcDbLine
 10
55.714082
 20
86.777820
 30
0.0
 11
55.714082
 21
86.830737
 31
0.0
  0
LINE
  5
338
100
AcDbEntity
  8
Layer_1
 62
3
100
AcDbLine
 10
55.714082
 20
86.830737
 30
0.0
 11
55.703639
 21
87.127070
 31
0.0
  0
LINE
  5
339
100
AcDbEntity
  8
Layer_1
 62
3
100
AcDbLine
 10
55.703639
 20
87.127070
 30
0.0
 11
55.661306
 21
87.412820
 31
0.0
  0
LINE
  5
33a
100
AcDbEntity
  8
Layer_1
 62
3
100
AcDbLine
 10
55.661306
 20
87.412820
 30
0.0
 11
55.597806
 21
87.677403
 31
0.0
  0
LINE
  5
33b
100
AcDbEntity
  8
Layer_1
 62
3
100
AcDbLine
 10
55.597806
 20
87.677403
 30
0.0
 11
55.513139
 21
87.920820
 31
0.0
  0
LINE
  5
33c
100
AcDbEntity
  8
Layer_1
 62
3
100
AcDbLine
 10
55.513139
 20
87.920820
 30
0.0
 11
55.396723
 21
88.153653
 31
0.0
  0
LINE
  5
33d
100
AcDbEntity
  8
Layer_1
 62
3
100
AcDbLine
 10
55.396723
 20
88.153653
 30
0.0
 11
55.386280
 21
88.174820
 31
0.0
  0
LINE
  5
33e
100
AcDbEntity
  8
Layer_1
 62
3
100
AcDbLine
 10
55.386280
 20
88.174820
 30
0.0
 11
55.248697
 21
88.397070
 31
0.0
  0
LINE
  5
33f
100
AcDbEntity
  8
Layer_1
 62
3
100
AcDbLine
 10
50.983473
 20
89.624737
 30
0.0
 11
47.226389
 21
89.624737
 31
0.0
  0
LINE
  5
340
100
AcDbEntity
  8
Layer_1
 62
3
100
AcDbLine
 10
47.226389
 20
89.624737
 30
0.0
 11
47.226389
 21
76.924737
 31
0.0
  0
LINE
  5
341
100
AcDbEntity
  8
Layer_1
 62
3
100
AcDbLine
 10
47.226389
 20
76.924737
 30
0.0
 11
51.724306
 21
76.924737
 31
0.0
  0
LINE
  5
342
100
AcDbEntity
  8
Layer_1
 62
3
100
AcDbLine
 10
51.724306
 20
76.924737
 30
0.0
 11
52.031223
 21
76.924737
 31
0.0
  0
LINE
  5
343
100
AcDbEntity
  8
Layer_1
 62
3
100
AcDbLine
 10
52.031223
 20
76.924737
 30
0.0
 11
52.348723
 21
76.935179
 31
0.0
  0
LINE
  5
344
100
AcDbEntity
  8
Layer_1
 62
3
100
AcDbLine
 10
52.348723
 20
76.935179
 30
0.0
 11
52.645056
 21
76.956346
 31
0.0
  0
LINE
  5
345
100
AcDbEntity
  8
Layer_1
 62
3
100
AcDbLine
 10
52.645056
 20
76.956346
 30
0.0
 11
52.920223
 21
76.977512
 31
0.0
  0
LINE
  5
346
100
AcDbEntity
  8
Layer_1
 62
3
100
AcDbLine
 10
52.920223
 20
76.977512
 30
0.0
 11
53.195389
 21
77.019846
 31
0.0
  0
LINE
  5
347
100
AcDbEntity
  8
Layer_1
 62
3
100
AcDbLine
 10
53.195389
 20
77.019846
 30
0.0
 11
53.449389
 21
77.062179
 31
0.0
  0
LINE
  5
348
100
AcDbEntity
  8
Layer_1
 62
3
100
AcDbLine
 10
53.449389
 20
77.062179
 30
0.0
 11
53.682223
 21
77.104512
 31
0.0
  0
LINE
  5
349
100
AcDbEntity
  8
Layer_1
 62
3
100
AcDbLine
 10
53.682223
 20
77.104512
 30
0.0
 11
53.904473
 21
77.168012
 31
0.0
  0
LINE
  5
34a
100
AcDbEntity
  8
Layer_1
 62
3
100
AcDbLine
 10
53.904473
 20
77.168012
 30
0.0
 11
54.020889
 21
77.189179
 31
0.0
  0
LINE
  5
34b
100
AcDbEntity
  8
Layer_1
 62
3
100
AcDbLine
 10
54.020889
 20
77.189179
 30
0.0
 11
54.274889
 21
77.284429
 31
0.0
  0
LINE
  5
34c
100
AcDbEntity
  8
Layer_1
 62
3
100
AcDbLine
 10
54.274889
 20
77.284429
 30
0.0
 11
54.528889
 21
77.390262
 31
0.0
  0
LINE
  5
34d
100
AcDbEntity
  8
Layer_1
 62
3
100
AcDbLine
 10
54.528889
 20
77.390262
 30
0.0
 11
54.772306
 21
77.506679
 31
0.0
  0
LINE
  5
34e
100
AcDbEntity
  8
Layer_1
 62
3
100
AcDbLine
 10
54.772306
 20
77.506679
 30
0.0
 11
55.015723
 21
77.644262
 31
0.0
  0
LINE
  5
34f
100
AcDbEntity
  8
Layer_1
 62
3
100
AcDbLine
 10
55.015723
 20
77.644262
 30
0.0
 11
55.248556
 21
77.792429
 31
0.0
  0
LINE
  5
350
100
AcDbEntity
  8
Layer_1
 62
3
100
AcDbLine
 10
55.248556
 20
77.792429
 30
0.0
 11
55.481389
 21
77.961762
 31
0.0
  0
LINE
  5
351
100
AcDbEntity
  8
Layer_1
 62
3
100
AcDbLine
 10
55.481389
 20
77.961762
 30
0.0
 11
55.608389
 21
78.067596
 31
0.0
  0
LINE
  5
352
100
AcDbEntity
  8
Layer_1
 62
3
100
AcDbLine
 10
55.608389
 20
78.067596
 30
0.0
 11
55.798889
 21
78.258096
 31
0.0
  0
LINE
  5
353
100
AcDbEntity
  8
Layer_1
 62
3
100
AcDbLine
 10
48.919723
 20
78.364070
 30
0.0
 11
48.919723
 21
83.094820
 31
0.0
  0
LINE
  5
354
100
AcDbEntity
  8
Layer_1
 62
3
100
AcDbLine
 10
48.919723
 20
83.094820
 30
0.0
 11
51.607889
 21
83.094820
 31
0.0
  0
LINE
  5
355
100
AcDbEntity
  8
Layer_1
 62
3
100
AcDbLine
 10
55.947056
 20
83.147737
 30
0.0
 11
55.756556
 21
83.327653
 31
0.0
  0
LINE
  5
356
100
AcDbEntity
  8
Layer_1
 62
3
100
AcDbLine
 10
55.756556
 20
83.327653
 30
0.0
 11
55.555473
 21
83.496987
 31
0.0
  0
LINE
  5
357
100
AcDbEntity
  8
Layer_1
 62
3
100
AcDbLine
 10
55.555473
 20
83.496987
 30
0.0
 11
55.333223
 21
83.645153
 31
0.0
  0
LINE
  5
358
100
AcDbEntity
  8
Layer_1
 62
3
100
AcDbLine
 10
55.333223
 20
83.645153
 30
0.0
 11
55.100389
 21
83.772153
 31
0.0
  0
LINE
  5
359
100
AcDbEntity
  8
Layer_1
 62
3
100
AcDbLine
 10
55.100389
 20
83.772153
 30
0.0
 11
54.856973
 21
83.888570
 31
0.0
  0
LINE
  5
35a
100
AcDbEntity
  8
Layer_1
 62
3
100
AcDbLine
 10
54.856973
 20
83.888570
 30
0.0
 11
54.592389
 21
83.994403
 31
0.0
  0
LINE
  5
35b
100
AcDbEntity
  8
Layer_1
 62
3
100
AcDbLine
 10
54.592389
 20
83.994403
 30
0.0
 11
54.317223
 21
84.079070
 31
0.0
  0
LINE
  5
35c
100
AcDbEntity
  8
Layer_1
 62
3
100
AcDbLine
 10
54.317223
 20
84.079070
 30
0.0
 11
54.031473
 21
84.142570
 31
0.0
  0
LINE
  5
35d
100
AcDbEntity
  8
Layer_1
 62
3
100
AcDbLine
 10
54.031473
 20
84.142570
 30
0.0
 11
54.031473
 21
84.216653
 31
0.0
  0
LINE
  5
35e
100
AcDbEntity
  8
Layer_1
 62
3
100
AcDbLine
 10
54.031473
 20
84.216653
 30
0.0
 11
54.243139
 21
84.333070
 31
0.0
  0
LINE
  5
35f
100
AcDbEntity
  8
Layer_1
 62
3
100
AcDbLine
 10
54.243139
 20
84.333070
 30
0.0
 11
54.486556
 21
84.481237
 31
0.0
  0
LINE
  5
360
100
AcDbEntity
  8
Layer_1
 62
3
100
AcDbLine
 10
48.919723
 20
84.512987
 30
0.0
 11
48.919723
 21
88.185403
 31
0.0
  0
LINE
  5
361
100
AcDbEntity
  8
Layer_1
 62
3
100
AcDbLine
 10
48.919723
 20
88.185403
 30
0.0
 11
50.951723
 21
88.185403
 31
0.0
  0
LINE
  5
362
100
AcDbEntity
  8
Layer_1
 62
3
100
AcDbLine
 10
55.248556
 20
88.397070
 30
0.0
 11
55.079223
 21
88.587570
 31
0.0
  0
LINE
  5
363
100
AcDbEntity
  8
Layer_1
 62
3
100
AcDbLine
 10
55.079223
 20
88.587570
 30
0.0
 11
54.878139
 21
88.778070
 31
0.0
  0
LINE
  5
364
100
AcDbEntity
  8
Layer_1
 62
3
100
AcDbLine
 10
54.878139
 20
88.778070
 30
0.0
 11
54.645306
 21
88.947403
 31
0.0
  0
LINE
  5
365
100
AcDbEntity
  8
Layer_1
 62
3
100
AcDbLine
 10
54.645306
 20
88.947403
 30
0.0
 11
54.380723
 21
89.095570
 31
0.0
  0
LINE
  5
366
100
AcDbEntity
  8
Layer_1
 62
3
100
AcDbLine
 10
54.380723
 20
89.095570
 30
0.0
 11
54.380723
 21
89.095570
 31
0.0
  0
LINE
  5
367
100
AcDbEntity
  8
Layer_1
 62
3
100
AcDbLine
 10
54.380723
 20
89.095570
 30
0.0
 11
54.126723
 21
89.211987
 31
0.0
  0
LINE
  5
368
100
AcDbEntity
  8
Layer_1
 62
3
100
AcDbLine
 10
54.126723
 20
89.211987
 30
0.0
 11
53.862139
 21
89.317820
 31
0.0
  0
LINE
  5
369
100
AcDbEntity
  8
Layer_1
 62
3
100
AcDbLine
 10
53.862139
 20
89.317820
 30
0.0
 11
53.608139
 21
89.402487
 31
0.0
  0
LINE
  5
36a
100
AcDbEntity
  8
Layer_1
 62
3
100
AcDbLine
 10
53.608139
 20
89.402487
 30
0.0
 11
53.332973
 21
89.476570
 31
0.0
  0
LINE
  5
36b
100
AcDbEntity
  8
Layer_1
 62
3
100
AcDbLine
 10
53.332973
 20
89.476570
 30
0.0
 11
53.068389
 21
89.518903
 31
0.0
  0
LINE
  5
36c
100
AcDbEntity
  8
Layer_1
 62
3
100
AcDbLine
 10
53.068389
 20
89.518903
 30
0.0
 11
52.973139
 21
89.529346
 31
0.0
  0
LINE
  5
36d
100
AcDbEntity
  8
Layer_1
 62
3
100
AcDbLine
 10
52.973139
 20
89.529346
 30
0.0
 11
52.761473
 21
89.561096
 31
0.0
  0
LINE
  5
36e
100
AcDbEntity
  8
Layer_1
 62
3
100
AcDbLine
 10
52.761473
 20
89.561096
 30
0.0
 11
52.528639
 21
89.582262
 31
0.0
  0
LINE
  5
36f
100
AcDbEntity
  8
Layer_1
 62
3
100
AcDbLine
 10
52.528639
 20
89.582262
 30
0.0
 11
52.274639
 21
89.592987
 31
0.0
  0
LINE
  5
370
100
AcDbEntity
  8
Layer_1
 62
3
100
AcDbLine
 10
52.274639
 20
89.592987
 30
0.0
 11
51.988889
 21
89.603429
 31
0.0
  0
LINE
  5
371
100
AcDbEntity
  8
Layer_1
 62
3
100
AcDbLine
 10
51.988889
 20
89.603429
 30
0.0
 11
51.671389
 21
89.614153
 31
0.0
  0
LINE
  5
372
100
AcDbEntity
  8
Layer_1
 62
3
100
AcDbLine
 10
51.671389
 20
89.614153
 30
0.0
 11
51.343306
 21
89.624596
 31
0.0
  0
LINE
  5
373
100
AcDbEntity
  8
Layer_1
 62
3
100
AcDbLine
 10
51.343306
 20
89.624596
 30
0.0
 11
50.983473
 21
89.624596
 31
0.0
  0
LINE
  5
374
100
AcDbEntity
  8
Layer_1
 62
1
100
AcDbLine
 10
180.690802
 20
103.501378
 30
0.0
 11
180.762092
 21
61.094610
 31
0.0
  0
LINE
  5
375
100
AcDbEntity
  8
Layer_1
 62
1
100
AcDbLine
 10
176.378870
 20
103.465761
 30
0.0
 11
176.450159
 21
61.058994
 31
0.0
  0
LINE
  5
376
100
AcDbEntity
  8
Layer_1
 62
1
100
AcDbLine
 10
74.834242
 20
103.554859
 30
0.0
 11
74.905531
 21
61.148091
 31
0.0
  0
LINE
  5
377
100
AcDbEntity
  8
Layer_1
 62
1
100
AcDbLine
 10
70.522310
 20
103.519242
 30
0.0
 11
70.593599
 21
61.112475
 31
0.0
  0
LINE
  5
378
100
AcDbEntity
  8
Layer_1
 62
1
100
AcDbLine
 10
74.794872
 20
112.028158
 30
0.0
 11
176.420046
 21
112.028158
 31
0.0
  0
LINE
  5
379
100
AcDbEntity
  8
Layer_1
 62
1
100
AcDbLine
 10
74.711560
 20
103.395657
 30
0.0
 11
176.336734
 21
103.395657
 31
0.0
  0
LINE
  5
37a
100
AcDbEntity
  8
Layer_1
 62
7
100
AcDbLine
 10
579.738750
 20
395.585590
 30
0.0
 11
579.738750
 21
348.373340
 31
0.0
  0
LINE
  5
37b
100
AcDbEntity
  8
Layer_1
 62
7
100
AcDbLine
 10
436.641494
 20
348.373368
 30
0.0
 11
436.641494
 21
301.161118
 31
0.0
  0
LINE
  5
37c
100
AcDbEntity
  8
Layer_1
 62
7
100
AcDbLine
 10
672.025411
 20
301.161118
 30
0.0
 11
672.025411
 21
348.373368
 31
0.0
  0
LINE
  5
37d
100
AcDbEntity
  8
Layer_1
 62
7
100
AcDbLine
 10
666.945411
 20
348.373368
 30
0.0
 11
667.030077
 21
395.585618
 31
0.0
  0
LINE
  5
37e
100
AcDbEntity
  8
Layer_1
 62
7
100
AcDbLine
 10
667.030077
 20
395.585618
 30
0.0
 11
579.738750
 21
395.585618
 31
0.0
  0
LINE
  5
37f
100
AcDbEntity
  8
Layer_1
 62
7
100
AcDbLine
 10
528.938752
 20
348.373368
 30
0.0
 11
528.938752
 21
395.585618
 31
0.0
  0
LINE
  5
380
100
AcDbEntity
  8
Layer_1
 62
7
100
AcDbLine
 10
528.938752
 20
395.585618
 30
0.0
 11
441.636827
 21
395.585618
 31
0.0
  0
LINE
  5
381
100
AcDbEntity
  8
Layer_1
 62
7
100
AcDbLine
 10
672.025411
 20
348.373368
 30
0.0
 11
666.945411
 21
348.373368
 31
0.0
  0
LINE
  5
382
100
AcDbEntity
  8
Layer_1
 62
7
100
AcDbLine
 10
436.641494
 20
348.373368
 30
0.0
 11
441.636827
 21
348.373368
 31
0.0
  0
LINE
  5
383
100
AcDbEntity
  8
Layer_1
 62
7
100
AcDbLine
 10
441.636827
 20
348.373368
 30
0.0
 11
441.636827
 21
395.585618
 31
0.0
  0
LINE
  5
384
100
AcDbEntity
  8
Layer_1
 62
7
100
AcDbLine
 10
528.938752
 20
348.373368
 30
0.0
 11
579.738750
 21
348.373368
 31
0.0
  0
LINE
  5
385
100
AcDbEntity
  8
Layer_1
 62
3
100
AcDbLine
 10
476.815827
 20
363.221785
 30
0.0
 11
493.759744
 21
363.221785
 31
0.0
  0
LINE
  5
386
100
AcDbEntity
  8
Layer_1
 62
3
100
AcDbLine
 10
493.759744
 20
365.761785
 30
0.0
 11
476.815827
 21
365.761785
 31
0.0
  0
LINE
  5
387
100
AcDbEntity
  8
Layer_1
 62
3
100
AcDbLine
 10
491.219744
 20
365.761785
 30
0.0
 11
491.219744
 21
368.301785
 31
0.0
  0
LINE
  5
388
100
AcDbEntity
  8
Layer_1
 62
3
100
AcDbLine
 10
491.219744
 20
368.301785
 30
0.0
 11
476.815827
 21
368.301785
 31
0.0
  0
LINE
  5
389
100
AcDbEntity
  8
Layer_1
 62
3
100
AcDbLine
 10
476.815827
 20
368.301785
 30
0.0
 11
476.815827
 21
365.761785
 31
0.0
  0
LINE
  5
38a
100
AcDbEntity
  8
Layer_1
 62
3
100
AcDbLine
 10
476.815827
 20
365.761785
 30
0.0
 11
476.815827
 21
363.221785
 31
0.0
  0
LINE
  5
38b
100
AcDbEntity
  8
Layer_1
 62
3
100
AcDbLine
 10
485.515327
 20
383.986285
 30
0.0
 11
484.541661
 21
383.912202
 31
0.0
  0
LINE
  5
38c
100
AcDbEntity
  8
Layer_1
 62
3
100
AcDbLine
 10
484.541661
 20
383.912202
 30
0.0
 11
483.631494
 21
383.732285
 31
0.0
  0
LINE
  5
38d
100
AcDbEntity
  8
Layer_1
 62
3
100
AcDbLine
 10
483.631494
 20
383.732285
 30
0.0
 11
482.795411
 21
383.435952
 31
0.0
  0
LINE
  5
38e
100
AcDbEntity
  8
Layer_1
 62
3
100
AcDbLine
 10
482.795411
 20
383.435952
 30
0.0
 11
482.001661
 21
383.054952
 31
0.0
  0
LINE
  5
38f
100
AcDbEntity
  8
Layer_1
 62
3
100
AcDbLine
 10
482.001661
 20
383.054952
 30
0.0
 11
481.281994
 21
382.568118
 31
0.0
  0
LINE
  5
390
100
AcDbEntity
  8
Layer_1
 62
3
100
AcDbLine
 10
481.281994
 20
382.568118
 30
0.0
 11
480.604661
 21
381.975452
 31
0.0
  0
LINE
  5
391
100
AcDbEntity
  8
Layer_1
 62
3
100
AcDbLine
 10
480.604661
 20
381.975452
 30
0.0
 11
480.392994
 21
381.742618
 31
0.0
  0
LINE
  5
392
100
AcDbEntity
  8
Layer_1
 62
3
100
AcDbLine
 10
480.392994
 20
381.742618
 30
0.0
 11
479.842661
 21
381.054702
 31
0.0
  0
LINE
  5
393
100
AcDbEntity
  8
Layer_1
 62
3
100
AcDbLine
 10
479.842661
 20
381.054702
 30
0.0
 11
479.398161
 21
380.313868
 31
0.0
  0
LINE
  5
394
100
AcDbEntity
  8
Layer_1
 62
3
100
AcDbLine
 10
479.398161
 20
380.313868
 30
0.0
 11
479.048911
 21
379.498952
 31
0.0
  0
LINE
  5
395
100
AcDbEntity
  8
Layer_1
 62
3
100
AcDbLine
 10
479.048911
 20
379.498952
 30
0.0
 11
478.794911
 21
378.631118
 31
0.0
  0
LINE
  5
396
100
AcDbEntity
  8
Layer_1
 62
3
100
AcDbLine
 10
478.794911
 20
378.631118
 30
0.0
 11
478.646744
 21
377.689202
 31
0.0
  0
LINE
  5
397
100
AcDbEntity
  8
Layer_1
 62
3
100
AcDbLine
 10
478.646744
 20
377.689202
 30
0.0
 11
478.604411
 21
376.704952
 31
0.0
  0
LINE
  5
398
100
AcDbEntity
  8
Layer_1
 62
3
100
AcDbLine
 10
478.604411
 20
376.704952
 30
0.0
 11
478.625577
 21
375.837118
 31
0.0
  0
LINE
  5
399
100
AcDbEntity
  8
Layer_1
 62
3
100
AcDbLine
 10
478.625577
 20
375.837118
 30
0.0
 11
478.763161
 21
374.895202
 31
0.0
  0
LINE
  5
39a
100
AcDbEntity
  8
Layer_1
 62
3
100
AcDbLine
 10
478.763161
 20
374.895202
 30
0.0
 11
479.017161
 21
374.016785
 31
0.0
  0
LINE
  5
39b
100
AcDbEntity
  8
Layer_1
 62
3
100
AcDbLine
 10
479.017161
 20
374.016785
 30
0.0
 11
479.366411
 21
373.212452
 31
0.0
  0
LINE
  5
39c
100
AcDbEntity
  8
Layer_1
 62
3
100
AcDbLine
 10
479.366411
 20
373.212452
 30
0.0
 11
479.821494
 21
372.492785
 31
0.0
  0
LINE
  5
39d
100
AcDbEntity
  8
Layer_1
 62
3
100
AcDbLine
 10
479.821494
 20
372.492785
 30
0.0
 11
480.382411
 21
371.815452
 31
0.0
  0
LINE
  5
39e
100
AcDbEntity
  8
Layer_1
 62
3
100
AcDbLine
 10
480.382411
 20
371.815452
 30
0.0
 11
480.953911
 21
371.296868
 31
0.0
  0
LINE
  5
39f
100
AcDbEntity
  8
Layer_1
 62
3
100
AcDbLine
 10
480.953911
 20
371.296868
 30
0.0
 11
481.673577
 21
370.820618
 31
0.0
  0
LINE
  5
3a0
100
AcDbEntity
  8
Layer_1
 62
3
100
AcDbLine
 10
481.673577
 20
370.820618
 30
0.0
 11
482.456744
 21
370.450202
 31
0.0
  0
LINE
  5
3a1
100
AcDbEntity
  8
Layer_1
 62
3
100
AcDbLine
 10
482.456744
 20
370.450202
 30
0.0
 11
483.324577
 21
370.206785
 31
0.0
  0
LINE
  5
3a2
100
AcDbEntity
  8
Layer_1
 62
3
100
AcDbLine
 10
483.324577
 20
370.206785
 30
0.0
 11
484.266494
 21
370.037452
 31
0.0
  0
LINE
  5
3a3
100
AcDbEntity
  8
Layer_1
 62
3
100
AcDbLine
 10
484.266494
 20
370.037452
 30
0.0
 11
485.282494
 21
369.995118
 31
0.0
  0
LINE
  5
3a4
100
AcDbEntity
  8
Layer_1
 62
3
100
AcDbLine
 10
485.282494
 20
369.995118
 30
0.0
 11
485.599994
 21
369.995118
 31
0.0
  0
LINE
  5
3a5
100
AcDbEntity
  8
Layer_1
 62
3
100
AcDbLine
 10
485.599994
 20
369.995118
 30
0.0
 11
486.637161
 21
370.048035
 31
0.0
  0
LINE
  5
3a6
100
AcDbEntity
  8
Layer_1
 62
3
100
AcDbLine
 10
486.637161
 20
370.048035
 30
0.0
 11
487.568494
 21
370.185618
 31
0.0
  0
LINE
  5
3a7
100
AcDbEntity
  8
Layer_1
 62
3
100
AcDbLine
 10
487.568494
 20
370.185618
 30
0.0
 11
488.415161
 21
370.407868
 31
0.0
  0
LINE
  5
3a8
100
AcDbEntity
  8
Layer_1
 62
3
100
AcDbLine
 10
488.415161
 20
370.407868
 30
0.0
 11
489.155994
 21
370.704202
 31
0.0
  0
LINE
  5
3a9
100
AcDbEntity
  8
Layer_1
 62
3
100
AcDbLine
 10
489.155994
 20
370.704202
 30
0.0
 11
489.155994
 21
373.498202
 31
0.0
  0
LINE
  5
3aa
100
AcDbEntity
  8
Layer_1
 62
3
100
AcDbLine
 10
489.155994
 20
373.498202
 30
0.0
 11
488.584494
 21
373.191285
 31
0.0
  0
LINE
  5
3ab
100
AcDbEntity
  8
Layer_1
 62
3
100
AcDbLine
 10
488.584494
 20
373.191285
 30
0.0
 11
487.727244
 21
372.884368
 31
0.0
  0
LINE
  5
3ac
100
AcDbEntity
  8
Layer_1
 62
3
100
AcDbLine
 10
487.727244
 20
372.884368
 30
0.0
 11
486.827661
 21
372.683285
 31
0.0
  0
LINE
  5
3ad
100
AcDbEntity
  8
Layer_1
 62
3
100
AcDbLine
 10
486.827661
 20
372.683285
 30
0.0
 11
485.885744
 21
372.630368
 31
0.0
  0
LINE
  5
3ae
100
AcDbEntity
  8
Layer_1
 62
3
100
AcDbLine
 10
485.885744
 20
372.630368
 30
0.0
 11
485.271911
 21
372.651535
 31
0.0
  0
LINE
  5
3af
100
AcDbEntity
  8
Layer_1
 62
3
100
AcDbLine
 10
485.271911
 20
372.651535
 30
0.0
 11
484.361744
 21
372.852618
 31
0.0
  0
LINE
  5
3b0
100
AcDbEntity
  8
Layer_1
 62
3
100
AcDbLine
 10
484.361744
 20
372.852618
 30
0.0
 11
483.578577
 21
373.233618
 31
0.0
  0
LINE
  5
3b1
100
AcDbEntity
  8
Layer_1
 62
3
100
AcDbLine
 10
483.578577
 20
373.233618
 30
0.0
 11
482.922411
 21
373.794535
 31
0.0
  0
LINE
  5
3b2
100
AcDbEntity
  8
Layer_1
 62
3
100
AcDbLine
 10
482.922411
 20
373.794535
 30
0.0
 11
482.520244
 21
374.270785
 31
0.0
  0
LINE
  5
3b3
100
AcDbEntity
  8
Layer_1
 62
3
100
AcDbLine
 10
482.520244
 20
374.270785
 30
0.0
 11
482.118077
 21
375.043368
 31
0.0
  0
LINE
  5
3b4
100
AcDbEntity
  8
Layer_1
 62
3
100
AcDbLine
 10
482.118077
 20
375.043368
 30
0.0
 11
481.885244
 21
375.921785
 31
0.0
  0
LINE
  5
3b5
100
AcDbEntity
  8
Layer_1
 62
3
100
AcDbLine
 10
481.885244
 20
375.921785
 30
0.0
 11
481.811161
 21
376.916618
 31
0.0
  0
LINE
  5
3b6
100
AcDbEntity
  8
Layer_1
 62
3
100
AcDbLine
 10
481.811161
 20
376.916618
 30
0.0
 11
481.864077
 21
377.816202
 31
0.0
  0
LINE
  5
3b7
100
AcDbEntity
  8
Layer_1
 62
3
100
AcDbLine
 10
481.864077
 20
377.816202
 30
0.0
 11
482.075744
 21
378.715785
 31
0.0
  0
LINE
  5
3b8
100
AcDbEntity
  8
Layer_1
 62
3
100
AcDbLine
 10
482.075744
 20
378.715785
 30
0.0
 11
482.456744
 21
379.498952
 31
0.0
  0
LINE
  5
3b9
100
AcDbEntity
  8
Layer_1
 62
3
100
AcDbLine
 10
482.456744
 20
379.498952
 30
0.0
 11
482.975327
 21
380.176285
 31
0.0
  0
LINE
  5
3ba
100
AcDbEntity
  8
Layer_1
 62
3
100
AcDbLine
 10
482.975327
 20
380.176285
 30
0.0
 11
483.462161
 21
380.589035
 31
0.0
  0
LINE
  5
3bb
100
AcDbEntity
  8
Layer_1
 62
3
100
AcDbLine
 10
483.462161
 20
380.589035
 30
0.0
 11
484.224161
 21
381.022952
 31
0.0
  0
LINE
  5
3bc
100
AcDbEntity
  8
Layer_1
 62
3
100
AcDbLine
 10
484.224161
 20
381.022952
 30
0.0
 11
485.091994
 21
381.276952
 31
0.0
  0
LINE
  5
3bd
100
AcDbEntity
  8
Layer_1
 62
3
100
AcDbLine
 10
485.091994
 20
381.276952
 30
0.0
 11
486.055077
 21
381.361618
 31
0.0
  0
LINE
  5
3be
100
AcDbEntity
  8
Layer_1
 62
3
100
AcDbLine
 10
486.055077
 20
381.361618
 30
0.0
 11
486.552494
 21
381.351176
 31
0.0
  0
LINE
  5
3bf
100
AcDbEntity
  8
Layer_1
 62
3
100
AcDbLine
 10
486.552494
 20
381.351176
 30
0.0
 11
487.473244
 21
381.224176
 31
0.0
  0
LINE
  5
3c0
100
AcDbEntity
  8
Layer_1
 62
3
100
AcDbLine
 10
487.473244
 20
381.224176
 30
0.0
 11
488.341077
 21
380.959593
 31
0.0
  0
LINE
  5
3c1
100
AcDbEntity
  8
Layer_1
 62
3
100
AcDbLine
 10
488.341077
 20
380.959593
 30
0.0
 11
489.155994
 21
380.546843
 31
0.0
  0
LINE
  5
3c2
100
AcDbEntity
  8
Layer_1
 62
3
100
AcDbLine
 10
489.155994
 20
380.546843
 30
0.0
 11
489.155994
 21
383.499593
 31
0.0
  0
LINE
  5
3c3
100
AcDbEntity
  8
Layer_1
 62
3
100
AcDbLine
 10
489.155994
 20
383.499593
 30
0.0
 11
488.647994
 21
383.658343
 31
0.0
  0
LINE
  5
3c4
100
AcDbEntity
  8
Layer_1
 62
3
100
AcDbLine
 10
488.647994
 20
383.658343
 30
0.0
 11
487.801327
 21
383.848843
 31
0.0
  0
LINE
  5
3c5
100
AcDbEntity
  8
Layer_1
 62
3
100
AcDbLine
 10
487.801327
 20
383.848843
 30
0.0
 11
486.848827
 21
383.954676
 31
0.0
  0
LINE
  5
3c6
100
AcDbEntity
  8
Layer_1
 62
3
100
AcDbLine
 10
486.848827
 20
383.954676
 30
0.0
 11
485.811661
 21
383.997009
 31
0.0
  0
LINE
  5
3c7
100
AcDbEntity
  8
Layer_1
 62
3
100
AcDbLine
 10
485.811661
 20
383.997009
 30
0.0
 11
485.515327
 21
383.986567
 31
0.0
  0
LINE
  5
3c8
100
AcDbEntity
  8
Layer_1
 62
3
100
AcDbLine
 10
493.759744
 20
365.761785
 30
0.0
 11
493.759744
 21
363.221785
 31
0.0
  0
LINE
  5
3c9
100
AcDbEntity
  8
Layer_1
 62
3
100
AcDbLine
 10
614.928333
 20
363.221785
 30
0.0
 11
631.861666
 21
363.221785
 31
0.0
  0
LINE
  5
3ca
100
AcDbEntity
  8
Layer_1
 62
3
100
AcDbLine
 10
631.861666
 20
365.761785
 30
0.0
 11
614.928333
 21
365.761785
 31
0.0
  0
LINE
  5
3cb
100
AcDbEntity
  8
Layer_1
 62
3
100
AcDbLine
 10
629.321666
 20
365.761785
 30
0.0
 11
629.321666
 21
368.301785
 31
0.0
  0
LINE
  5
3cc
100
AcDbEntity
  8
Layer_1
 62
3
100
AcDbLine
 10
629.321666
 20
368.301785
 30
0.0
 11
614.928333
 21
368.301785
 31
0.0
  0
LINE
  5
3cd
100
AcDbEntity
  8
Layer_1
 62
3
100
AcDbLine
 10
614.928333
 20
368.301785
 30
0.0
 11
614.928333
 21
365.761785
 31
0.0
  0
LINE
  5
3ce
100
AcDbEntity
  8
Layer_1
 62
3
100
AcDbLine
 10
614.928333
 20
365.761785
 30
0.0
 11
614.928333
 21
363.221785
 31
0.0
  0
LINE
  5
3cf
100
AcDbEntity
  8
Layer_1
 62
3
100
AcDbLine
 10
623.617250
 20
383.986285
 30
0.0
 11
622.643583
 21
383.912202
 31
0.0
  0
LINE
  5
3d0
100
AcDbEntity
  8
Layer_1
 62
3
100
AcDbLine
 10
622.643583
 20
383.912202
 30
0.0
 11
621.733416
 21
383.732285
 31
0.0
  0
LINE
  5
3d1
100
AcDbEntity
  8
Layer_1
 62
3
100
AcDbLine
 10
621.733416
 20
383.732285
 30
0.0
 11
620.897333
 21
383.435952
 31
0.0
  0
LINE
  5
3d2
100
AcDbEntity
  8
Layer_1
 62
3
100
AcDbLine
 10
620.897333
 20
383.435952
 30
0.0
 11
620.114166
 21
383.054952
 31
0.0
  0
LINE
  5
3d3
100
AcDbEntity
  8
Layer_1
 62
3
100
AcDbLine
 10
620.114166
 20
383.054952
 30
0.0
 11
619.383916
 21
382.568118
 31
0.0
  0
LINE
  5
3d4
100
AcDbEntity
  8
Layer_1
 62
3
100
AcDbLine
 10
619.383916
 20
382.568118
 30
0.0
 11
618.706583
 21
381.975452
 31
0.0
  0
LINE
  5
3d5
100
AcDbEntity
  8
Layer_1
 62
3
100
AcDbLine
 10
618.706583
 20
381.975452
 30
0.0
 11
618.494916
 21
381.742618
 31
0.0
  0
LINE
  5
3d6
100
AcDbEntity
  8
Layer_1
 62
3
100
AcDbLine
 10
618.494916
 20
381.742618
 30
0.0
 11
617.955166
 21
381.054702
 31
0.0
  0
LINE
  5
3d7
100
AcDbEntity
  8
Layer_1
 62
3
100
AcDbLine
 10
617.955166
 20
381.054702
 30
0.0
 11
617.500083
 21
380.313868
 31
0.0
  0
LINE
  5
3d8
100
AcDbEntity
  8
Layer_1
 62
3
100
AcDbLine
 10
617.500083
 20
380.313868
 30
0.0
 11
617.150833
 21
379.498952
 31
0.0
  0
LINE
  5
3d9
100
AcDbEntity
  8
Layer_1
 62
3
100
AcDbLine
 10
617.150833
 20
379.498952
 30
0.0
 11
616.896833
 21
378.631118
 31
0.0
  0
LINE
  5
3da
100
AcDbEntity
  8
Layer_1
 62
3
100
AcDbLine
 10
616.896833
 20
378.631118
 30
0.0
 11
616.748666
 21
377.689202
 31
0.0
  0
LINE
  5
3db
100
AcDbEntity
  8
Layer_1
 62
3
100
AcDbLine
 10
616.748666
 20
377.689202
 30
0.0
 11
616.706333
 21
376.704952
 31
0.0
  0
LINE
  5
3dc
100
AcDbEntity
  8
Layer_1
 62
3
100
AcDbLine
 10
616.706333
 20
376.704952
 30
0.0
 11
616.727500
 21
375.837118
 31
0.0
  0
LINE
  5
3dd
100
AcDbEntity
  8
Layer_1
 62
3
100
AcDbLine
 10
616.727500
 20
375.837118
 30
0.0
 11
616.875666
 21
374.895202
 31
0.0
  0
LINE
  5
3de
100
AcDbEntity
  8
Layer_1
 62
3
100
AcDbLine
 10
616.875666
 20
374.895202
 30
0.0
 11
617.119083
 21
374.016785
 31
0.0
  0
LINE
  5
3df
100
AcDbEntity
  8
Layer_1
 62
3
100
AcDbLine
 10
617.119083
 20
374.016785
 30
0.0
 11
617.478916
 21
373.212452
 31
0.0
  0
LINE
  5
3e0
100
AcDbEntity
  8
Layer_1
 62
3
100
AcDbLine
 10
617.478916
 20
373.212452
 30
0.0
 11
617.923416
 21
372.492785
 31
0.0
  0
LINE
  5
3e1
100
AcDbEntity
  8
Layer_1
 62
3
100
AcDbLine
 10
617.923416
 20
372.492785
 30
0.0
 11
618.484333
 21
371.815452
 31
0.0
  0
LINE
  5
3e2
100
AcDbEntity
  8
Layer_1
 62
3
100
AcDbLine
 10
618.484333
 20
371.815452
 30
0.0
 11
619.055833
 21
371.296868
 31
0.0
  0
LINE
  5
3e3
100
AcDbEntity
  8
Layer_1
 62
3
100
AcDbLine
 10
619.055833
 20
371.296868
 30
0.0
 11
619.775500
 21
370.820618
 31
0.0
  0
LINE
  5
3e4
100
AcDbEntity
  8
Layer_1
 62
3
100
AcDbLine
 10
619.775500
 20
370.820618
 30
0.0
 11
620.558666
 21
370.450202
 31
0.0
  0
LINE
  5
3e5
100
AcDbEntity
  8
Layer_1
 62
3
100
AcDbLine
 10
620.558666
 20
370.450202
 30
0.0
 11
621.426500
 21
370.206785
 31
0.0
  0
LINE
  5
3e6
100
AcDbEntity
  8
Layer_1
 62
3
100
AcDbLine
 10
621.426500
 20
370.206785
 30
0.0
 11
622.368416
 21
370.037452
 31
0.0
  0
LINE
  5
3e7
100
AcDbEntity
  8
Layer_1
 62
3
100
AcDbLine
 10
622.368416
 20
370.037452
 30
0.0
 11
623.395000
 21
369.995118
 31
0.0
  0
LINE
  5
3e8
100
AcDbEntity
  8
Layer_1
 62
3
100
AcDbLine
 10
623.395000
 20
369.995118
 30
0.0
 11
623.701916
 21
369.995118
 31
0.0
  0
LINE
  5
3e9
100
AcDbEntity
  8
Layer_1
 62
3
100
AcDbLine
 10
623.701916
 20
369.995118
 30
0.0
 11
624.739083
 21
370.048035
 31
0.0
  0
LINE
  5
3ea
100
AcDbEntity
  8
Layer_1
 62
3
100
AcDbLine
 10
624.739083
 20
370.048035
 30
0.0
 11
625.681000
 21
370.185618
 31
0.0
  0
LINE
  5
3eb
100
AcDbEntity
  8
Layer_1
 62
3
100
AcDbLine
 10
625.681000
 20
370.185618
 30
0.0
 11
626.517083
 21
370.407868
 31
0.0
  0
LINE
  5
3ec
100
AcDbEntity
  8
Layer_1
 62
3
100
AcDbLine
 10
626.517083
 20
370.407868
 30
0.0
 11
627.257916
 21
370.704202
 31
0.0
  0
LINE
  5
3ed
100
AcDbEntity
  8
Layer_1
 62
3
100
AcDbLine
 10
627.257916
 20
370.704202
 30
0.0
 11
627.257916
 21
373.498202
 31
0.0
  0
LINE
  5
3ee
100
AcDbEntity
  8
Layer_1
 62
3
100
AcDbLine
 10
627.257916
 20
373.498202
 30
0.0
 11
626.686416
 21
373.191285
 31
0.0
  0
LINE
  5
3ef
100
AcDbEntity
  8
Layer_1
 62
3
100
AcDbLine
 10
626.686416
 20
373.191285
 30
0.0
 11
625.829166
 21
372.884368
 31
0.0
  0
LINE
  5
3f0
100
AcDbEntity
  8
Layer_1
 62
3
100
AcDbLine
 10
625.829166
 20
372.884368
 30
0.0
 11
624.929583
 21
372.683285
 31
0.0
  0
LINE
  5
3f1
100
AcDbEntity
  8
Layer_1
 62
3
100
AcDbLine
 10
624.929583
 20
372.683285
 30
0.0
 11
623.998250
 21
372.630368
 31
0.0
  0
LINE
  5
3f2
100
AcDbEntity
  8
Layer_1
 62
3
100
AcDbLine
 10
623.998250
 20
372.630368
 30
0.0
 11
623.373833
 21
372.651535
 31
0.0
  0
LINE
  5
3f3
100
AcDbEntity
  8
Layer_1
 62
3
100
AcDbLine
 10
623.373833
 20
372.651535
 30
0.0
 11
622.463666
 21
372.852618
 31
0.0
  0
LINE
  5
3f4
100
AcDbEntity
  8
Layer_1
 62
3
100
AcDbLine
 10
622.463666
 20
372.852618
 30
0.0
 11
621.680500
 21
373.233618
 31
0.0
  0
LINE
  5
3f5
100
AcDbEntity
  8
Layer_1
 62
3
100
AcDbLine
 10
621.680500
 20
373.233618
 30
0.0
 11
621.024333
 21
373.794535
 31
0.0
  0
LINE
  5
3f6
100
AcDbEntity
  8
Layer_1
 62
3
100
AcDbLine
 10
621.024333
 20
373.794535
 30
0.0
 11
620.632750
 21
374.270785
 31
0.0
  0
LINE
  5
3f7
100
AcDbEntity
  8
Layer_1
 62
3
100
AcDbLine
 10
620.632750
 20
374.270785
 30
0.0
 11
620.220000
 21
375.043368
 31
0.0
  0
LINE
  5
3f8
100
AcDbEntity
  8
Layer_1
 62
3
100
AcDbLine
 10
620.220000
 20
375.043368
 30
0.0
 11
619.987166
 21
375.921785
 31
0.0
  0
LINE
  5
3f9
100
AcDbEntity
  8
Layer_1
 62
3
100
AcDbLine
 10
619.987166
 20
375.921785
 30
0.0
 11
619.913083
 21
376.916618
 31
0.0
  0
LINE
  5
3fa
100
AcDbEntity
  8
Layer_1
 62
3
100
AcDbLine
 10
619.913083
 20
376.916618
 30
0.0
 11
619.966000
 21
377.816202
 31
0.0
  0
LINE
  5
3fb
100
AcDbEntity
  8
Layer_1
 62
3
100
AcDbLine
 10
619.966000
 20
377.816202
 30
0.0
 11
620.177666
 21
378.715785
 31
0.0
  0
LINE
  5
3fc
100
AcDbEntity
  8
Layer_1
 62
3
100
AcDbLine
 10
620.177666
 20
378.715785
 30
0.0
 11
620.558666
 21
379.498952
 31
0.0
  0
LINE
  5
3fd
100
AcDbEntity
  8
Layer_1
 62
3
100
AcDbLine
 10
620.558666
 20
379.498952
 30
0.0
 11
621.077250
 21
380.176285
 31
0.0
  0
LINE
  5
3fe
100
AcDbEntity
  8
Layer_1
 62
3
100
AcDbLine
 10
621.077250
 20
380.176285
 30
0.0
 11
621.564083
 21
380.589035
 31
0.0
  0
LINE
  5
3ff
100
AcDbEntity
  8
Layer_1
 62
3
100
AcDbLine
 10
621.564083
 20
380.589035
 30
0.0
 11
622.326083
 21
381.022952
 31
0.0
  0
LINE
  5
400
100
AcDbEntity
  8
Layer_1
 62
3
100
AcDbLine
 10
622.326083
 20
381.022952
 30
0.0
 11
623.193916
 21
381.276952
 31
0.0
  0
LINE
  5
401
100
AcDbEntity
  8
Layer_1
 62
3
100
AcDbLine
 10
623.193916
 20
381.276952
 30
0.0
 11
624.167583
 21
381.361618
 31
0.0
  0
LINE
  5
402
100
AcDbEntity
  8
Layer_1
 62
3
100
AcDbLine
 10
624.167583
 20
381.361618
 30
0.0
 11
624.654416
 21
381.351176
 31
0.0
  0
LINE
  5
403
100
AcDbEntity
  8
Layer_1
 62
3
100
AcDbLine
 10
624.654416
 20
381.351176
 30
0.0
 11
625.575166
 21
381.224176
 31
0.0
  0
LINE
  5
404
100
AcDbEntity
  8
Layer_1
 62
3
100
AcDbLine
 10
625.575166
 20
381.224176
 30
0.0
 11
626.443000
 21
380.959593
 31
0.0
  0
LINE
  5
405
100
AcDbEntity
  8
Layer_1
 62
3
100
AcDbLine
 10
626.443000
 20
380.959593
 30
0.0
 11
627.257916
 21
380.546843
 31
0.0
  0
LINE
  5
406
100
AcDbEntity
  8
Layer_1
 62
3
100
AcDbLine
 10
627.257916
 20
380.546843
 30
0.0
 11
627.257916
 21
383.499593
 31
0.0
  0
LINE
  5
407
100
AcDbEntity
  8
Layer_1
 62
3
100
AcDbLine
 10
627.257916
 20
383.499593
 30
0.0
 11
626.760500
 21
383.658343
 31
0.0
  0
LINE
  5
408
100
AcDbEntity
  8
Layer_1
 62
3
100
AcDbLine
 10
626.760500
 20
383.658343
 30
0.0
 11
625.903250
 21
383.848843
 31
0.0
  0
LINE
  5
409
100
AcDbEntity
  8
Layer_1
 62
3
100
AcDbLine
 10
625.903250
 20
383.848843
 30
0.0
 11
624.950750
 21
383.954676
 31
0.0
  0
LINE
  5
40a
100
AcDbEntity
  8
Layer_1
 62
3
100
AcDbLine
 10
624.950750
 20
383.954676
 30
0.0
 11
623.913583
 21
383.997009
 31
0.0
  0
LINE
  5
40b
100
AcDbEntity
  8
Layer_1
 62
3
100
AcDbLine
 10
623.913583
 20
383.997009
 30
0.0
 11
623.617250
 21
383.986567
 31
0.0
  0
LINE
  5
40c
100
AcDbEntity
  8
Layer_1
 62
3
100
AcDbLine
 10
631.861666
 20
365.761785
 30
0.0
 11
631.861666
 21
363.221785
 31
0.0
  0
LINE
  5
40d
100
AcDbEntity
  8
Layer_1
 62
1
100
AcDbLine
 10
436.611381
 20
301.176669
 30
0.0
 11
672.031309
 21
301.176669
 31
0.0
  0
LINE
  5
40e
100
AcDbEntity
  8
Layer_1
 62
1
100
AcDbLine
 10
528.939176
 20
348.408674
 30
0.0
 11
441.627147
 21
348.408674
 31
0.0
  0
LINE
  5
40f
100
AcDbEntity
  8
Layer_1
 62
1
100
AcDbLine
 10
441.627147
 20
348.408674
 30
0.0
 11
441.627147
 21
301.155361
 31
0.0
  0
LINE
  5
410
100
AcDbEntity
  8
Layer_1
 62
1
100
AcDbLine
 10
441.620374
 20
357.032849
 30
0.0
 11
528.935196
 21
357.032849
 31
0.0
  0
LINE
  5
411
100
AcDbEntity
  8
Layer_1
 62
1
100
AcDbLine
 10
441.627147
 20
305.470793
 30
0.0
 11
666.944282
 21
305.470793
 31
0.0
  0
LINE
  5
412
100
AcDbEntity
  8
Layer_1
 62
1
100
AcDbLine
 10
666.925683
 20
301.161655
 30
0.0
 11
666.925683
 21
348.394281
 31
0.0
  0
LINE
  5
413
100
AcDbEntity
  8
Layer_1
 62
1
100
AcDbLine
 10
666.925683
 20
348.394281
 30
0.0
 11
579.739176
 21
348.394281
 31
0.0
  0
LINE
  5
414
100
AcDbEntity
  8
Layer_1
 62
1
100
AcDbLine
 10
579.738679
 20
357.013715
 30
0.0
 11
666.969795
 21
357.013715
 31
0.0
  0
LINE
  5
415
100
AcDbEntity
  8
Layer_1
 62
1
100
AcDbLine
 10
672.030632
 20
74.080575
 30
0.0
 11
671.660215
 21
74.461575
 31
0.0
  0
LINE
  5
416
100
AcDbEntity
  8
Layer_1
 62
7
100
AcDbLine
 10
431.566709
 20
301.167147
 30
0.0
 11
431.566709
 21
74.461575
 31
0.0
  0
LINE
  5
417
100
AcDbEntity
  8
Layer_1
 62
7
100
AcDbLine
 10
677.110632
 20
74.461575
 30
0.0
 11
677.110632
 21
301.167147
 31
0.0
  0
LINE
  5
418
100
AcDbEntity
  8
Layer_1
 62
7
100
AcDbLine
 10
677.110632
 20
301.167147
 30
0.0
 11
672.030632
 21
301.167147
 31
0.0
  0
LINE
  5
419
100
AcDbEntity
  8
Layer_1
 62
7
100
AcDbLine
 10
431.566709
 20
301.167147
 30
0.0
 11
436.646709
 21
301.167147
 31
0.0
  0
LINE
  5
41a
100
AcDbEntity
  8
Layer_1
 62
3
100
AcDbLine
 10
546.120721
 20
282.900313
 30
0.0
 11
546.120721
 21
285.440313
 31
0.0
  0
LINE
  5
41b
100
AcDbEntity
  8
Layer_1
 62
3
100
AcDbLine
 10
561.995718
 20
260.040313
 30
0.0
 11
561.995718
 21
285.440313
 31
0.0
  0
LINE
  5
41c
100
AcDbEntity
  8
Layer_1
 62
3
100
AcDbLine
 10
561.995718
 20
260.040313
 30
0.0
 11
564.535718
 21
260.040313
 31
0.0
  0
LINE
  5
41d
100
AcDbEntity
  8
Layer_1
 62
3
100
AcDbLine
 10
564.535718
 20
260.040313
 30
0.0
 11
564.535718
 21
285.440313
 31
0.0
  0
LINE
  5
41e
100
AcDbEntity
  8
Layer_1
 62
3
100
AcDbLine
 10
546.120721
 20
282.900313
 30
0.0
 11
561.995718
 21
282.900313
 31
0.0
  0
LINE
  5
41f
100
AcDbEntity
  8
Layer_1
 62
3
100
AcDbLine
 10
546.120721
 20
285.440313
 30
0.0
 11
564.535718
 21
285.440313
 31
0.0
  0
LINE
  5
420
100
AcDbEntity
  8
Layer_1
 62
3
100
AcDbLine
 10
547.697637
 20
273.788063
 30
0.0
 11
547.697637
 21
271.533813
 31
0.0
  0
LINE
  5
421
100
AcDbEntity
  8
Layer_1
 62
3
100
AcDbLine
 10
547.697637
 20
271.533813
 30
0.0
 11
560.397635
 21
266.919480
 31
0.0
  0
LINE
  5
422
100
AcDbEntity
  8
Layer_1
 62
3
100
AcDbLine
 10
560.397635
 20
266.919480
 30
0.0
 11
560.397635
 21
268.633980
 31
0.0
  0
LINE
  5
423
100
AcDbEntity
  8
Layer_1
 62
3
100
AcDbLine
 10
560.397635
 20
268.633980
 30
0.0
 11
556.862804
 21
269.872230
 31
0.0
  0
LINE
  5
424
100
AcDbEntity
  8
Layer_1
 62
3
100
AcDbLine
 10
556.862804
 20
269.872230
 30
0.0
 11
556.862804
 21
275.364980
 31
0.0
  0
LINE
  5
425
100
AcDbEntity
  8
Layer_1
 62
3
100
AcDbLine
 10
555.412887
 20
270.390813
 30
0.0
 11
549.179304
 21
272.623897
 31
0.0
  0
LINE
  5
426
100
AcDbEntity
  8
Layer_1
 62
3
100
AcDbLine
 10
549.179304
 20
272.623897
 30
0.0
 11
555.412887
 21
274.846397
 31
0.0
  0
LINE
  5
427
100
AcDbEntity
  8
Layer_1
 62
3
100
AcDbLine
 10
555.412887
 20
274.846397
 30
0.0
 11
555.412887
 21
270.390813
 31
0.0
  0
LINE
  5
428
100
AcDbEntity
  8
Layer_1
 62
3
100
AcDbLine
 10
556.862804
 20
275.364980
 30
0.0
 11
560.397635
 21
276.613813
 31
0.0
  0
LINE
  5
429
100
AcDbEntity
  8
Layer_1
 62
3
100
AcDbLine
 10
560.397635
 20
276.613813
 30
0.0
 11
560.397635
 21
278.402397
 31
0.0
  0
LINE
  5
42a
100
AcDbEntity
  8
Layer_1
 62
3
100
AcDbLine
 10
560.397635
 20
278.402397
 30
0.0
 11
547.697637
 21
273.788063
 31
0.0
  0
LINE
  5
42b
100
AcDbEntity
  8
Layer_1
 62
7
100
AcDbLine
 10
672.030632
 20
74.461575
 30
0.0
 11
677.110632
 21
74.461575
 31
0.0
  0
LINE
  5
42c
100
AcDbEntity
  8
Layer_1
 62
7
100
AcDbLine
 10
436.646709
 20
74.461575
 30
0.0
 11
431.566709
 21
74.461575
 31
0.0
  0
LINE
  5
42d
100
AcDbEntity
  8
Layer_1
 62
7
100
AcDbLine
 10
436.634433
 20
74.449044
 30
0.0
 11
672.045420
 21
74.449044
 31
0.0
  0
LINE
  5
42e
100
AcDbEntity
  8
Layer_1
 62
1
100
AcDbLine
 10
436.623708
 20
74.476476
 30
0.0
 11
436.623708
 21
301.164861
 31
0.0
  0
LINE
  5
42f
100
AcDbEntity
  8
Layer_1
 62
1
100
AcDbLine
 10
672.027273
 20
301.192885
 30
0.0
 11
672.027273
 21
74.451273
 31
0.0
  0
LINE
  5
430
100
AcDbEntity
  8
Layer_1
 62
7
100
AcDbLine
 10
4.235507
 20
395.593171
 30
0.0
 11
4.235507
 21
303.295910
 31
0.0
  0
LINE
  5
431
100
AcDbEntity
  8
Layer_1
 62
7
100
AcDbLine
 10
4.235507
 20
252.495915
 30
0.0
 11
4.235507
 21
160.209248
 31
0.0
  0
LINE
  5
432
100
AcDbEntity
  8
Layer_1
 62
7
100
AcDbLine
 10
424.561085
 20
395.593171
 30
0.0
 11
4.240630
 21
395.593171
 31
0.0
  0
LINE
  5
433
100
AcDbEntity
  8
Layer_1
 62
7
100
AcDbLine
 10
4.235507
 20
303.295910
 30
0.0
 11
103.295504
 21
303.295910
 31
0.0
  0
LINE
  5
434
100
AcDbEntity
  8
Layer_1
 62
7
100
AcDbLine
 10
103.295504
 20
252.495915
 30
0.0
 11
4.235507
 21
252.495915
 31
0.0
  0
LINE
  5
435
100
AcDbEntity
  8
Layer_1
 62
7
100
AcDbLine
 10
4.240655
 20
160.209248
 30
0.0
 11
424.574631
 21
160.209248
 31
0.0
  0
LINE
  5
436
100
AcDbEntity
  8
Layer_1
 62
7
100
AcDbLine
 10
90.595504
 20
303.295910
 30
0.0
 11
90.595504
 21
252.495915
 31
0.0
  0
LINE
  5
437
100
AcDbEntity
  8
Layer_1
 62
1
100
AcDbLine
 10
251.911121
 20
390.545146
 30
0.0
 11
251.911121
 21
165.326027
 31
0.0
  0
LINE
  5
438
100
AcDbEntity
  8
Layer_1
 62
1
100
AcDbLine
 10
4.261007
 20
165.277482
 30
0.0
 11
410.648404
 21
165.277482
 31
0.0
  0
LINE
  5
439
100
AcDbEntity
  8
Layer_1
 62
1
100
AcDbLine
 10
4.235808
 20
390.513509
 30
0.0
 11
410.635817
 21
390.513509
 31
0.0
  0
LINE
  5
43a
100
AcDbEntity
  8
Layer_1
 62
1
100
AcDbLine
 10
103.273626
 20
303.326192
 30
0.0
 11
103.273626
 21
252.482622
 31
0.0
  0
LINE
  5
43b
100
AcDbEntity
  8
Layer_1
 62
1
100
AcDbLine
 10
4.170089
 20
364.832532
 30
0.0
 11
251.927905
 21
364.832532
 31
0.0
  0
LINE
  5
43c
100
AcDbEntity
  8
Layer_1
 62
1
100
AcDbLine
 10
4.116180
 20
191.291062
 30
0.0
 11
251.873997
 21
191.291062
 31
0.0
  0
LINE
  5
43d
100
AcDbEntity
  8
Layer_1
 62
1
100
AcDbLine
 10
410.704256
 20
395.712923
 30
0.0
 11
410.704256
 21
160.301930
 31
0.0
  0
LINE
  5
43e
100
AcDbEntity
  8
Layer_1
 62
7
100
AcDbLine
 10
424.567943
 20
395.746197
 30
0.0
 11
424.567943
 21
160.335204
 31
0.0
  0
ENDSEC
  0
SECTION
  2
OBJECTS
  0
DICTIONARY
  5
C
330
0
100
AcDbDictionary
  3
ACAD_GROUP
350
D
  3
ACAD_MLINESTYLE
350
17
  0
DICTIONARY
  5
D
330
C
100
AcDbDictionary
  0
DICTIONARY
  5
1A
330
C
100
AcDbDictionary
  0
DICTIONARY
  5
17
330
C
100
AcDbDictionary
  3
STANDARD
350
18
  0
DICTIONARY
  5
19
330
C
100
AcDbDictionary
  0
ENDSEC
  0
EOF
