  0
SECTION
  2
HEADER
  9
$ACADVER
  1
AC1014
  9
$HANDSEED
  5
FFFF
  9
$MEASUREMENT
 70
     1
  0
ENDSEC
  0
SECTION
  2
TABLES
  0
TABLE
  2
VPORT
  5
8
330
0
100
AcDbSymbolTable
 70
     4
  0
VPORT
  5
2E
330
8
100
AcDbSymbolTableRecord
100
AcDbViewportTableRecord
  2
*ACTIVE
 70
     0
 10
0.0
 20
0.0
 11
1.0
 21
1.0
 12
210.0
 22
148.5
 13
0.0
 23
0.0
 14
10.0
 24
10.0
 15
10.0
 25
10.0
 16
0.0
 26
0.0
 36
1.0
 17
0.0
 27
0.0
 37
0.0
 40
341.0
 41
1.24
 42
50.0
 43
0.0
 44
0.0
 50
0.0
 51
0.0
 71
     0
 72
   100
 73
     1
 74
     3
 75
     0
 76
     0
 77
     0
 78
     0
  0
ENDTAB
  0
TABLE
  2
LTYPE
  5
5
330
0
100
AcDbSymbolTable
 70
     1
  0
LTYPE
  5
14
330
5
100
AcDbSymbolTableRecord
100
AcDbLinetypeTableRecord
  2
BYBLOCK
 70
     0
  3

 72
    65
 73
     0
 40
0.0
  0
LTYPE
  5
15
330
5
100
AcDbSymbolTableRecord
100
AcDbLinetypeTableRecord
  2
BYLAYER
 70
     0
  3

 72
    65
 73
     0
 40
0.0
  0
LTYPE
  5
16
330
5
100
AcDbSymbolTableRecord
100
AcDbLinetypeTableRecord
  2
CONTINUOUS
 70
     0
  3
Solid line
 72
    65
 73
     0
 40
0.0
  0
ENDTAB
  0
TABLE
  2
LAYER
  5
2
100
AcDbSymbolTable
 70
2
  0
LAYER
  5
50
100
AcDbSymbolTableRecord
100
AcDbLayerTableRecord
  2
0
 70
0
  6
CONTINUOUS
  0
LAYER
  5
51
100
AcDbSymbolTableRecord
100
AcDbLayerTableRecord
  2
Layer_1
 70
0
  6
CONTINUOUS
  0
ENDTAB
  0
TABLE
  2
STYLE
  5
3
330
0
100
AcDbSymbolTable
 70
     1
  0
STYLE
  5
11
330
3
100
AcDbSymbolTableRecord
100
AcDbTextStyleTableRecord
  2
STANDARD
 70
     0
 40
0.0
 41
1.0
 50
0.0
 71
     0
 42
2.5
  3
txt
  4

  0
ENDTAB
  0
TABLE
  2
VIEW
  5
6
330
0
100
AcDbSymbolTable
 70
     0
  0
ENDTAB
  0
TABLE
  2
UCS
  5
7
330
0
100
AcDbSymbolTable
 70
     0
  0
ENDTAB
  0
TABLE
  2
APPID
  5
9
330
0
100
AcDbSymbolTable
 70
     2
  0
APPID
  5
12
330
9
100
AcDbSymbolTableRecord
100
AcDbRegAppTableRecord
  2
ACAD
 70
     0
  0
ENDTAB
  0
TABLE
  2
DIMSTYLE
  5
A
330
0
100
AcDbSymbolTable
 70
     1
  0
DIMSTYLE
105
27
330
A
100
AcDbSymbolTableRecord
100
AcDbDimStyleTableRecord
  2
ISO-25
 70
     0
  3

  4

  5

  6

  7

 40
1.0
 41
2.5
 42
0.625
 43
3.75
 44
1.25
 45
0.0
 46
0.0
 47
0.0
 48
0.0
140
2.5
141
2.5
142
0.0
143
0.03937007874016
144
1.0
145
0.0
146
1.0
147
0.625
 71
     0
 72
     0
 73
     0
 74
     0
 75
     0
 76
     0
 77
     1
 78
     8
170
     0
171
     3
172
     1
173
     0
174
     0
175
     0
176
     0
177
     0
178
     0
270
     2
271
     2
272
     2
273
     2
274
     3
340
11
275
     0
280
     0
281
     0
282
     0
283
     0
284
     8
285
     0
286
     0
287
     3
288
     0
  0
ENDTAB
  0
TABLE
  2
BLOCK_RECORD
  5
1
330
0
100
AcDbSymbolTable
 70
     1
  0
BLOCK_RECORD
  5
1F
330
1
100
AcDbSymbolTableRecord
100
AcDbBlockTableRecord
  2
*MODEL_SPACE
  0
BLOCK_RECORD
  5
1B
330
1
100
AcDbSymbolTableRecord
100
AcDbBlockTableRecord
  2
*PAPER_SPACE
  0
ENDTAB
  0
ENDSEC
  0
SECTION
  2
BLOCKS
  0
BLOCK
  5
20
330
1F
100
AcDbEntity
  8
0
100
AcDbBlockBegin
  2
*MODEL_SPACE
 70
     0
 10
0.0
 20
0.0
 30
0.0
  3
*MODEL_SPACE
  1

  0
ENDBLK
  5
21
330
1F
100
AcDbEntity
  8
0
100
AcDbBlockEnd
  0
BLOCK
  5
1C
330
1B
100
AcDbEntity
 67
     1
  8
0
100
AcDbBlockBegin
  2
*PAPER_SPACE
  1

  0
ENDBLK
  5
1D
330
1B
100
AcDbEntity
 67
     1
  8
0
100
AcDbBlockEnd
  0
ENDSEC
  0
SECTION
  2
ENTITIES
  0
LINE
  5
100
100
AcDbEntity
  8
Layer_1
 62
7
100
AcDbLine
 10
334.784446
 20
217.985643
 30
0.0
 11
287.572196
 21
217.985643
 31
0.0
  0
LINE
  5
101
100
AcDbEntity
  8
Layer_1
 62
7
100
AcDbLine
 10
287.572224
 20
361.082898
 30
0.0
 11
240.359974
 21
361.082898
 31
0.0
  0
LINE
  5
102
100
AcDbEntity
  8
Layer_1
 62
7
100
AcDbLine
 10
240.359974
 20
125.698982
 30
0.0
 11
287.572224
 21
125.698982
 31
0.0
  0
LINE
  5
103
100
AcDbEntity
  8
Layer_1
 62
7
100
AcDbLine
 10
287.572224
 20
130.778982
 30
0.0
 11
334.784474
 21
130.694315
 31
0.0
  0
LINE
  5
104
100
AcDbEntity
  8
Layer_1
 62
7
100
AcDbLine
 10
334.784474
 20
130.694315
 30
0.0
 11
334.784474
 21
217.985643
 31
0.0
  0
LINE
  5
105
100
AcDbEntity
  8
Layer_1
 62
7
100
AcDbLine
 10
287.572224
 20
268.785640
 30
0.0
 11
334.784474
 21
268.785640
 31
0.0
  0
LINE
  5
106
100
AcDbEntity
  8
Layer_1
 62
7
100
AcDbLine
 10
334.784474
 20
268.785640
 30
0.0
 11
334.784474
 21
356.087565
 31
0.0
  0
LINE
  5
107
100
AcDbEntity
  8
Layer_1
 62
7
100
AcDbLine
 10
287.572224
 20
125.698982
 30
0.0
 11
287.572224
 21
130.778982
 31
0.0
  0
LINE
  5
108
100
AcDbEntity
  8
Layer_1
 62
7
100
AcDbLine
 10
287.572224
 20
361.082898
 30
0.0
 11
287.572224
 21
356.087565
 31
0.0
  0
LINE
  5
109
100
AcDbEntity
  8
Layer_1
 62
7
100
AcDbLine
 10
287.572224
 20
356.087565
 30
0.0
 11
334.784474
 21
356.087565
 31
0.0
  0
LINE
  5
10a
100
AcDbEntity
  8
Layer_1
 62
7
100
AcDbLine
 10
287.572224
 20
268.785640
 30
0.0
 11
287.572224
 21
217.985643
 31
0.0
  0
LINE
  5
10b
100
AcDbEntity
  8
Layer_1
 62
3
100
AcDbLine
 10
302.420641
 20
320.908565
 30
0.0
 11
302.420641
 21
303.964648
 31
0.0
  0
LINE
  5
10c
100
AcDbEntity
  8
Layer_1
 62
3
100
AcDbLine
 10
304.960641
 20
303.964648
 30
0.0
 11
304.960641
 21
320.908565
 31
0.0
  0
LINE
  5
10d
100
AcDbEntity
  8
Layer_1
 62
3
100
AcDbLine
 10
304.960641
 20
306.504648
 30
0.0
 11
307.500641
 21
306.504648
 31
0.0
  0
LINE
  5
10e
100
AcDbEntity
  8
Layer_1
 62
3
100
AcDbLine
 10
307.500641
 20
306.504648
 30
0.0
 11
307.500641
 21
320.908565
 31
0.0
  0
LINE
  5
10f
100
AcDbEntity
  8
Layer_1
 62
3
100
AcDbLine
 10
307.500641
 20
320.908565
 30
0.0
 11
304.960641
 21
320.908565
 31
0.0
  0
LINE
  5
110
100
AcDbEntity
  8
Layer_1
 62
3
100
AcDbLine
 10
304.960641
 20
320.908565
 30
0.0
 11
302.420641
 21
320.908565
 31
0.0
  0
LINE
  5
111
100
AcDbEntity
  8
Layer_1
 62
3
100
AcDbLine
 10
323.185141
 20
312.209065
 30
0.0
 11
323.111058
 21
313.182732
 31
0.0
  0
LINE
  5
112
100
AcDbEntity
  8
Layer_1
 62
3
100
AcDbLine
 10
323.111058
 20
313.182732
 30
0.0
 11
322.931141
 21
314.092898
 31
0.0
  0
LINE
  5
113
100
AcDbEntity
  8
Layer_1
 62
3
100
AcDbLine
 10
322.931141
 20
314.092898
 30
0.0
 11
322.634808
 21
314.928982
 31
0.0
  0
LINE
  5
114
100
AcDbEntity
  8
Layer_1
 62
3
100
AcDbLine
 10
322.634808
 20
314.928982
 30
0.0
 11
322.253808
 21
315.722732
 31
0.0
  0
LINE
  5
115
100
AcDbEntity
  8
Layer_1
 62
3
100
AcDbLine
 10
322.253808
 20
315.722732
 30
0.0
 11
321.766974
 21
316.442398
 31
0.0
  0
LINE
  5
116
100
AcDbEntity
  8
Layer_1
 62
3
100
AcDbLine
 10
321.766974
 20
316.442398
 30
0.0
 11
321.174308
 21
317.119732
 31
0.0
  0
LINE
  5
117
100
AcDbEntity
  8
Layer_1
 62
3
100
AcDbLine
 10
321.174308
 20
317.119732
 30
0.0
 11
320.941474
 21
317.331398
 31
0.0
  0
LINE
  5
118
100
AcDbEntity
  8
Layer_1
 62
3
100
AcDbLine
 10
320.941474
 20
317.331398
 30
0.0
 11
320.253558
 21
317.881732
 31
0.0
  0
LINE
  5
119
100
AcDbEntity
  8
Layer_1
 62
3
100
AcDbLine
 10
320.253558
 20
317.881732
 30
0.0
 11
319.512724
 21
318.326232
 31
0.0
  0
LINE
  5
11a
100
AcDbEntity
  8
Layer_1
 62
3
100
AcDbLine
 10
319.512724
 20
318.326232
 30
0.0
 11
318.697808
 21
318.675482
 31
0.0
  0
LINE
  5
11b
100
AcDbEntity
  8
Layer_1
 62
3
100
AcDbLine
 10
318.697808
 20
318.675482
 30
0.0
 11
317.829974
 21
318.929482
 31
0.0
  0
LINE
  5
11c
100
AcDbEntity
  8
Layer_1
 62
3
100
AcDbLine
 10
317.829974
 20
318.929482
 30
0.0
 11
316.888058
 21
319.077648
 31
0.0
  0
LINE
  5
11d
100
AcDbEntity
  8
Layer_1
 62
3
100
AcDbLine
 10
316.888058
 20
319.077648
 30
0.0
 11
315.903808
 21
319.119982
 31
0.0
  0
LINE
  5
11e
100
AcDbEntity
  8
Layer_1
 62
3
100
AcDbLine
 10
315.903808
 20
319.119982
 30
0.0
 11
315.035974
 21
319.098815
 31
0.0
  0
LINE
  5
11f
100
AcDbEntity
  8
Layer_1
 62
3
100
AcDbLine
 10
315.035974
 20
319.098815
 30
0.0
 11
314.094058
 21
318.961232
 31
0.0
  0
LINE
  5
120
100
AcDbEntity
  8
Layer_1
 62
3
100
AcDbLine
 10
314.094058
 20
318.961232
 30
0.0
 11
313.215641
 21
318.707232
 31
0.0
  0
LINE
  5
121
100
AcDbEntity
  8
Layer_1
 62
3
100
AcDbLine
 10
313.215641
 20
318.707232
 30
0.0
 11
312.411308
 21
318.357982
 31
0.0
  0
LINE
  5
122
100
AcDbEntity
  8
Layer_1
 62
3
100
AcDbLine
 10
312.411308
 20
318.357982
 30
0.0
 11
311.691641
 21
317.902898
 31
0.0
  0
LINE
  5
123
100
AcDbEntity
  8
Layer_1
 62
3
100
AcDbLine
 10
311.691641
 20
317.902898
 30
0.0
 11
311.014308
 21
317.341982
 31
0.0
  0
LINE
  5
124
100
AcDbEntity
  8
Layer_1
 62
3
100
AcDbLine
 10
311.014308
 20
317.341982
 30
0.0
 11
310.495724
 21
316.770482
 31
0.0
  0
LINE
  5
125
100
AcDbEntity
  8
Layer_1
 62
3
100
AcDbLine
 10
310.495724
 20
316.770482
 30
0.0
 11
310.019474
 21
316.050815
 31
0.0
  0
LINE
  5
126
100
AcDbEntity
  8
Layer_1
 62
3
100
AcDbLine
 10
310.019474
 20
316.050815
 30
0.0
 11
309.649058
 21
315.267648
 31
0.0
  0
LINE
  5
127
100
AcDbEntity
  8
Layer_1
 62
3
100
AcDbLine
 10
309.649058
 20
315.267648
 30
0.0
 11
309.405641
 21
314.399815
 31
0.0
  0
LINE
  5
128
100
AcDbEntity
  8
Layer_1
 62
3
100
AcDbLine
 10
309.405641
 20
314.399815
 30
0.0
 11
309.236308
 21
313.457898
 31
0.0
  0
LINE
  5
129
100
AcDbEntity
  8
Layer_1
 62
3
100
AcDbLine
 10
309.236308
 20
313.457898
 30
0.0
 11
309.193974
 21
312.441898
 31
0.0
  0
LINE
  5
12a
100
AcDbEntity
  8
Layer_1
 62
3
100
AcDbLine
 10
309.193974
 20
312.441898
 30
0.0
 11
309.193974
 21
312.124398
 31
0.0
  0
LINE
  5
12b
100
AcDbEntity
  8
Layer_1
 62
3
100
AcDbLine
 10
309.193974
 20
312.124398
 30
0.0
 11
309.246891
 21
311.087232
 31
0.0
  0
LINE
  5
12c
100
AcDbEntity
  8
Layer_1
 62
3
100
AcDbLine
 10
309.246891
 20
311.087232
 30
0.0
 11
309.384474
 21
310.155898
 31
0.0
  0
LINE
  5
12d
100
AcDbEntity
  8
Layer_1
 62
3
100
AcDbLine
 10
309.384474
 20
310.155898
 30
0.0
 11
309.606724
 21
309.309232
 31
0.0
  0
LINE
  5
12e
100
AcDbEntity
  8
Layer_1
 62
3
100
AcDbLine
 10
309.606724
 20
309.309232
 30
0.0
 11
309.903058
 21
308.568398
 31
0.0
  0
LINE
  5
12f
100
AcDbEntity
  8
Layer_1
 62
3
100
AcDbLine
 10
309.903058
 20
308.568398
 30
0.0
 11
312.697058
 21
308.568398
 31
0.0
  0
LINE
  5
130
100
AcDbEntity
  8
Layer_1
 62
3
100
AcDbLine
 10
312.697058
 20
308.568398
 30
0.0
 11
312.390141
 21
309.139898
 31
0.0
  0
LINE
  5
131
100
AcDbEntity
  8
Layer_1
 62
3
100
AcDbLine
 10
312.390141
 20
309.139898
 30
0.0
 11
312.083224
 21
309.997148
 31
0.0
  0
LINE
  5
132
100
AcDbEntity
  8
Layer_1
 62
3
100
AcDbLine
 10
312.083224
 20
309.997148
 30
0.0
 11
311.882141
 21
310.896732
 31
0.0
  0
LINE
  5
133
100
AcDbEntity
  8
Layer_1
 62
3
100
AcDbLine
 10
311.882141
 20
310.896732
 30
0.0
 11
311.829224
 21
311.838648
 31
0.0
  0
LINE
  5
134
100
AcDbEntity
  8
Layer_1
 62
3
100
AcDbLine
 10
311.829224
 20
311.838648
 30
0.0
 11
311.850391
 21
312.452482
 31
0.0
  0
LINE
  5
135
100
AcDbEntity
  8
Layer_1
 62
3
100
AcDbLine
 10
311.850391
 20
312.452482
 30
0.0
 11
312.051474
 21
313.362648
 31
0.0
  0
LINE
  5
136
100
AcDbEntity
  8
Layer_1
 62
3
100
AcDbLine
 10
312.051474
 20
313.362648
 30
0.0
 11
312.432474
 21
314.145815
 31
0.0
  0
LINE
  5
137
100
AcDbEntity
  8
Layer_1
 62
3
100
AcDbLine
 10
312.432474
 20
314.145815
 30
0.0
 11
312.993391
 21
314.801982
 31
0.0
  0
LINE
  5
138
100
AcDbEntity
  8
Layer_1
 62
3
100
AcDbLine
 10
312.993391
 20
314.801982
 30
0.0
 11
313.469641
 21
315.204148
 31
0.0
  0
LINE
  5
139
100
AcDbEntity
  8
Layer_1
 62
3
100
AcDbLine
 10
313.469641
 20
315.204148
 30
0.0
 11
314.242224
 21
315.606315
 31
0.0
  0
LINE
  5
13a
100
AcDbEntity
  8
Layer_1
 62
3
100
AcDbLine
 10
314.242224
 20
315.606315
 30
0.0
 11
315.120641
 21
315.839148
 31
0.0
  0
LINE
  5
13b
100
AcDbEntity
  8
Layer_1
 62
3
100
AcDbLine
 10
315.120641
 20
315.839148
 30
0.0
 11
316.115474
 21
315.913232
 31
0.0
  0
LINE
  5
13c
100
AcDbEntity
  8
Layer_1
 62
3
100
AcDbLine
 10
316.115474
 20
315.913232
 30
0.0
 11
317.015058
 21
315.860315
 31
0.0
  0
LINE
  5
13d
100
AcDbEntity
  8
Layer_1
 62
3
100
AcDbLine
 10
317.015058
 20
315.860315
 30
0.0
 11
317.914641
 21
315.648648
 31
0.0
  0
LINE
  5
13e
100
AcDbEntity
  8
Layer_1
 62
3
100
AcDbLine
 10
317.914641
 20
315.648648
 30
0.0
 11
318.697808
 21
315.267648
 31
0.0
  0
LINE
  5
13f
100
AcDbEntity
  8
Layer_1
 62
3
100
AcDbLine
 10
318.697808
 20
315.267648
 30
0.0
 11
319.375141
 21
314.749065
 31
0.0
  0
LINE
  5
140
100
AcDbEntity
  8
Layer_1
 62
3
100
AcDbLine
 10
319.375141
 20
314.749065
 30
0.0
 11
319.787891
 21
314.262232
 31
0.0
  0
LINE
  5
141
100
AcDbEntity
  8
Layer_1
 62
3
100
AcDbLine
 10
319.787891
 20
314.262232
 30
0.0
 11
320.221808
 21
313.500232
 31
0.0
  0
LINE
  5
142
100
AcDbEntity
  8
Layer_1
 62
3
100
AcDbLine
 10
320.221808
 20
313.500232
 30
0.0
 11
320.475808
 21
312.632398
 31
0.0
  0
LINE
  5
143
100
AcDbEntity
  8
Layer_1
 62
3
100
AcDbLine
 10
320.475808
 20
312.632398
 30
0.0
 11
320.560474
 21
311.669315
 31
0.0
  0
LINE
  5
144
100
AcDbEntity
  8
Layer_1
 62
3
100
AcDbLine
 10
320.560474
 20
311.669315
 30
0.0
 11
320.550032
 21
311.171898
 31
0.0
  0
LINE
  5
145
100
AcDbEntity
  8
Layer_1
 62
3
100
AcDbLine
 10
320.550032
 20
311.171898
 30
0.0
 11
320.423032
 21
310.251148
 31
0.0
  0
LINE
  5
146
100
AcDbEntity
  8
Layer_1
 62
3
100
AcDbLine
 10
320.423032
 20
310.251148
 30
0.0
 11
320.158449
 21
309.383315
 31
0.0
  0
LINE
  5
147
100
AcDbEntity
  8
Layer_1
 62
3
100
AcDbLine
 10
320.158449
 20
309.383315
 30
0.0
 11
319.745699
 21
308.568398
 31
0.0
  0
LINE
  5
148
100
AcDbEntity
  8
Layer_1
 62
3
100
AcDbLine
 10
319.745699
 20
308.568398
 30
0.0
 11
322.698449
 21
308.568398
 31
0.0
  0
LINE
  5
149
100
AcDbEntity
  8
Layer_1
 62
3
100
AcDbLine
 10
322.698449
 20
308.568398
 30
0.0
 11
322.857199
 21
309.076398
 31
0.0
  0
LINE
  5
14a
100
AcDbEntity
  8
Layer_1
 62
3
100
AcDbLine
 10
322.857199
 20
309.076398
 30
0.0
 11
323.047699
 21
309.923065
 31
0.0
  0
LINE
  5
14b
100
AcDbEntity
  8
Layer_1
 62
3
100
AcDbLine
 10
323.047699
 20
309.923065
 30
0.0
 11
323.153532
 21
310.875565
 31
0.0
  0
LINE
  5
14c
100
AcDbEntity
  8
Layer_1
 62
3
100
AcDbLine
 10
323.153532
 20
310.875565
 30
0.0
 11
323.195865
 21
311.912732
 31
0.0
  0
LINE
  5
14d
100
AcDbEntity
  8
Layer_1
 62
3
100
AcDbLine
 10
323.195865
 20
311.912732
 30
0.0
 11
323.185423
 21
312.209065
 31
0.0
  0
LINE
  5
14e
100
AcDbEntity
  8
Layer_1
 62
3
100
AcDbLine
 10
304.960641
 20
303.964648
 30
0.0
 11
302.420641
 21
303.964648
 31
0.0
  0
LINE
  5
14f
100
AcDbEntity
  8
Layer_1
 62
3
100
AcDbLine
 10
302.420641
 20
182.796059
 30
0.0
 11
302.420641
 21
165.862726
 31
0.0
  0
LINE
  5
150
100
AcDbEntity
  8
Layer_1
 62
3
100
AcDbLine
 10
304.960641
 20
165.862726
 30
0.0
 11
304.960641
 21
182.796059
 31
0.0
  0
LINE
  5
151
100
AcDbEntity
  8
Layer_1
 62
3
100
AcDbLine
 10
304.960641
 20
168.402726
 30
0.0
 11
307.500641
 21
168.402726
 31
0.0
  0
LINE
  5
152
100
AcDbEntity
  8
Layer_1
 62
3
100
AcDbLine
 10
307.500641
 20
168.402726
 30
0.0
 11
307.500641
 21
182.796059
 31
0.0
  0
LINE
  5
153
100
AcDbEntity
  8
Layer_1
 62
3
100
AcDbLine
 10
307.500641
 20
182.796059
 30
0.0
 11
304.960641
 21
182.796059
 31
0.0
  0
LINE
  5
154
100
AcDbEntity
  8
Layer_1
 62
3
100
AcDbLine
 10
304.960641
 20
182.796059
 30
0.0
 11
302.420641
 21
182.796059
 31
0.0
  0
LINE
  5
155
100
AcDbEntity
  8
Layer_1
 62
3
100
AcDbLine
 10
323.185141
 20
174.107143
 30
0.0
 11
323.111058
 21
175.080809
 31
0.0
  0
LINE
  5
156
100
AcDbEntity
  8
Layer_1
 62
3
100
AcDbLine
 10
323.111058
 20
175.080809
 30
0.0
 11
322.931141
 21
175.990976
 31
0.0
  0
LINE
  5
157
100
AcDbEntity
  8
Layer_1
 62
3
100
AcDbLine
 10
322.931141
 20
175.990976
 30
0.0
 11
322.634808
 21
176.827059
 31
0.0
  0
LINE
  5
158
100
AcDbEntity
  8
Layer_1
 62
3
100
AcDbLine
 10
322.634808
 20
176.827059
 30
0.0
 11
322.253808
 21
177.610226
 31
0.0
  0
LINE
  5
159
100
AcDbEntity
  8
Layer_1
 62
3
100
AcDbLine
 10
322.253808
 20
177.610226
 30
0.0
 11
321.766974
 21
178.340476
 31
0.0
  0
LINE
  5
15a
100
AcDbEntity
  8
Layer_1
 62
3
100
AcDbLine
 10
321.766974
 20
178.340476
 30
0.0
 11
321.174308
 21
179.017809
 31
0.0
  0
LINE
  5
15b
100
AcDbEntity
  8
Layer_1
 62
3
100
AcDbLine
 10
321.174308
 20
179.017809
 30
0.0
 11
320.941474
 21
179.229476
 31
0.0
  0
LINE
  5
15c
100
AcDbEntity
  8
Layer_1
 62
3
100
AcDbLine
 10
320.941474
 20
179.229476
 30
0.0
 11
320.253558
 21
179.769226
 31
0.0
  0
LINE
  5
15d
100
AcDbEntity
  8
Layer_1
 62
3
100
AcDbLine
 10
320.253558
 20
179.769226
 30
0.0
 11
319.512724
 21
180.224309
 31
0.0
  0
LINE
  5
15e
100
AcDbEntity
  8
Layer_1
 62
3
100
AcDbLine
 10
319.512724
 20
180.224309
 30
0.0
 11
318.697808
 21
180.573559
 31
0.0
  0
LINE
  5
15f
100
AcDbEntity
  8
Layer_1
 62
3
100
AcDbLine
 10
318.697808
 20
180.573559
 30
0.0
 11
317.829974
 21
180.827559
 31
0.0
  0
LINE
  5
160
100
AcDbEntity
  8
Layer_1
 62
3
100
AcDbLine
 10
317.829974
 20
180.827559
 30
0.0
 11
316.888058
 21
180.975726
 31
0.0
  0
LINE
  5
161
100
AcDbEntity
  8
Layer_1
 62
3
100
AcDbLine
 10
316.888058
 20
180.975726
 30
0.0
 11
315.903808
 21
181.018059
 31
0.0
  0
LINE
  5
162
100
AcDbEntity
  8
Layer_1
 62
3
100
AcDbLine
 10
315.903808
 20
181.018059
 30
0.0
 11
315.035974
 21
180.996893
 31
0.0
  0
LINE
  5
163
100
AcDbEntity
  8
Layer_1
 62
3
100
AcDbLine
 10
315.035974
 20
180.996893
 30
0.0
 11
314.094058
 21
180.848726
 31
0.0
  0
LINE
  5
164
100
AcDbEntity
  8
Layer_1
 62
3
100
AcDbLine
 10
314.094058
 20
180.848726
 30
0.0
 11
313.215641
 21
180.605309
 31
0.0
  0
LINE
  5
165
100
AcDbEntity
  8
Layer_1
 62
3
100
AcDbLine
 10
313.215641
 20
180.605309
 30
0.0
 11
312.411308
 21
180.245476
 31
0.0
  0
LINE
  5
166
100
AcDbEntity
  8
Layer_1
 62
3
100
AcDbLine
 10
312.411308
 20
180.245476
 30
0.0
 11
311.691641
 21
179.800976
 31
0.0
  0
LINE
  5
167
100
AcDbEntity
  8
Layer_1
 62
3
100
AcDbLine
 10
311.691641
 20
179.800976
 30
0.0
 11
311.014308
 21
179.240059
 31
0.0
  0
LINE
  5
168
100
AcDbEntity
  8
Layer_1
 62
3
100
AcDbLine
 10
311.014308
 20
179.240059
 30
0.0
 11
310.495724
 21
178.668559
 31
0.0
  0
LINE
  5
169
100
AcDbEntity
  8
Layer_1
 62
3
100
AcDbLine
 10
310.495724
 20
178.668559
 30
0.0
 11
310.019474
 21
177.948893
 31
0.0
  0
LINE
  5
16a
100
AcDbEntity
  8
Layer_1
 62
3
100
AcDbLine
 10
310.019474
 20
177.948893
 30
0.0
 11
309.649058
 21
177.165726
 31
0.0
  0
LINE
  5
16b
100
AcDbEntity
  8
Layer_1
 62
3
100
AcDbLine
 10
309.649058
 20
177.165726
 30
0.0
 11
309.405641
 21
176.297893
 31
0.0
  0
LINE
  5
16c
100
AcDbEntity
  8
Layer_1
 62
3
100
AcDbLine
 10
309.405641
 20
176.297893
 30
0.0
 11
309.236308
 21
175.355976
 31
0.0
  0
LINE
  5
16d
100
AcDbEntity
  8
Layer_1
 62
3
100
AcDbLine
 10
309.236308
 20
175.355976
 30
0.0
 11
309.193974
 21
174.329393
 31
0.0
  0
LINE
  5
16e
100
AcDbEntity
  8
Layer_1
 62
3
100
AcDbLine
 10
309.193974
 20
174.329393
 30
0.0
 11
309.193974
 21
174.022476
 31
0.0
  0
LINE
  5
16f
100
AcDbEntity
  8
Layer_1
 62
3
100
AcDbLine
 10
309.193974
 20
174.022476
 30
0.0
 11
309.246891
 21
172.985309
 31
0.0
  0
LINE
  5
170
100
AcDbEntity
  8
Layer_1
 62
3
100
AcDbLine
 10
309.246891
 20
172.985309
 30
0.0
 11
309.384474
 21
172.043393
 31
0.0
  0
LINE
  5
171
100
AcDbEntity
  8
Layer_1
 62
3
100
AcDbLine
 10
309.384474
 20
172.043393
 30
0.0
 11
309.606724
 21
171.207309
 31
0.0
  0
LINE
  5
172
100
AcDbEntity
  8
Layer_1
 62
3
100
AcDbLine
 10
309.606724
 20
171.207309
 30
0.0
 11
309.903058
 21
170.466476
 31
0.0
  0
LINE
  5
173
100
AcDbEntity
  8
Layer_1
 62
3
100
AcDbLine
 10
309.903058
 20
170.466476
 30
0.0
 11
312.697058
 21
170.466476
 31
0.0
  0
LINE
  5
174
100
AcDbEntity
  8
Layer_1
 62
3
100
AcDbLine
 10
312.697058
 20
170.466476
 30
0.0
 11
312.390141
 21
171.037976
 31
0.0
  0
LINE
  5
175
100
AcDbEntity
  8
Layer_1
 62
3
100
AcDbLine
 10
312.390141
 20
171.037976
 30
0.0
 11
312.083224
 21
171.895226
 31
0.0
  0
LINE
  5
176
100
AcDbEntity
  8
Layer_1
 62
3
100
AcDbLine
 10
312.083224
 20
171.895226
 30
0.0
 11
311.882141
 21
172.794809
 31
0.0
  0
LINE
  5
177
100
AcDbEntity
  8
Layer_1
 62
3
100
AcDbLine
 10
311.882141
 20
172.794809
 30
0.0
 11
311.829224
 21
173.726143
 31
0.0
  0
LINE
  5
178
100
AcDbEntity
  8
Layer_1
 62
3
100
AcDbLine
 10
311.829224
 20
173.726143
 30
0.0
 11
311.850391
 21
174.350559
 31
0.0
  0
LINE
  5
179
100
AcDbEntity
  8
Layer_1
 62
3
100
AcDbLine
 10
311.850391
 20
174.350559
 30
0.0
 11
312.051474
 21
175.260726
 31
0.0
  0
LINE
  5
17a
100
AcDbEntity
  8
Layer_1
 62
3
100
AcDbLine
 10
312.051474
 20
175.260726
 30
0.0
 11
312.432474
 21
176.043893
 31
0.0
  0
LINE
  5
17b
100
AcDbEntity
  8
Layer_1
 62
3
100
AcDbLine
 10
312.432474
 20
176.043893
 30
0.0
 11
312.993391
 21
176.700059
 31
0.0
  0
LINE
  5
17c
100
AcDbEntity
  8
Layer_1
 62
3
100
AcDbLine
 10
312.993391
 20
176.700059
 30
0.0
 11
313.469641
 21
177.091643
 31
0.0
  0
LINE
  5
17d
100
AcDbEntity
  8
Layer_1
 62
3
100
AcDbLine
 10
313.469641
 20
177.091643
 30
0.0
 11
314.242224
 21
177.504393
 31
0.0
  0
LINE
  5
17e
100
AcDbEntity
  8
Layer_1
 62
3
100
AcDbLine
 10
314.242224
 20
177.504393
 30
0.0
 11
315.120641
 21
177.737226
 31
0.0
  0
LINE
  5
17f
100
AcDbEntity
  8
Layer_1
 62
3
100
AcDbLine
 10
315.120641
 20
177.737226
 30
0.0
 11
316.115474
 21
177.811309
 31
0.0
  0
LINE
  5
180
100
AcDbEntity
  8
Layer_1
 62
3
100
AcDbLine
 10
316.115474
 20
177.811309
 30
0.0
 11
317.015058
 21
177.758393
 31
0.0
  0
LINE
  5
181
100
AcDbEntity
  8
Layer_1
 62
3
100
AcDbLine
 10
317.015058
 20
177.758393
 30
0.0
 11
317.914641
 21
177.546726
 31
0.0
  0
LINE
  5
182
100
AcDbEntity
  8
Layer_1
 62
3
100
AcDbLine
 10
317.914641
 20
177.546726
 30
0.0
 11
318.697808
 21
177.165726
 31
0.0
  0
LINE
  5
183
100
AcDbEntity
  8
Layer_1
 62
3
100
AcDbLine
 10
318.697808
 20
177.165726
 30
0.0
 11
319.375141
 21
176.647143
 31
0.0
  0
LINE
  5
184
100
AcDbEntity
  8
Layer_1
 62
3
100
AcDbLine
 10
319.375141
 20
176.647143
 30
0.0
 11
319.787891
 21
176.160309
 31
0.0
  0
LINE
  5
185
100
AcDbEntity
  8
Layer_1
 62
3
100
AcDbLine
 10
319.787891
 20
176.160309
 30
0.0
 11
320.221808
 21
175.398309
 31
0.0
  0
LINE
  5
186
100
AcDbEntity
  8
Layer_1
 62
3
100
AcDbLine
 10
320.221808
 20
175.398309
 30
0.0
 11
320.475808
 21
174.530476
 31
0.0
  0
LINE
  5
187
100
AcDbEntity
  8
Layer_1
 62
3
100
AcDbLine
 10
320.475808
 20
174.530476
 30
0.0
 11
320.560474
 21
173.556809
 31
0.0
  0
LINE
  5
188
100
AcDbEntity
  8
Layer_1
 62
3
100
AcDbLine
 10
320.560474
 20
173.556809
 30
0.0
 11
320.550032
 21
173.069976
 31
0.0
  0
LINE
  5
189
100
AcDbEntity
  8
Layer_1
 62
3
100
AcDbLine
 10
320.550032
 20
173.069976
 30
0.0
 11
320.423032
 21
172.149226
 31
0.0
  0
LINE
  5
18a
100
AcDbEntity
  8
Layer_1
 62
3
100
AcDbLine
 10
320.423032
 20
172.149226
 30
0.0
 11
320.158449
 21
171.281393
 31
0.0
  0
LINE
  5
18b
100
AcDbEntity
  8
Layer_1
 62
3
100
AcDbLine
 10
320.158449
 20
171.281393
 30
0.0
 11
319.745699
 21
170.466476
 31
0.0
  0
LINE
  5
18c
100
AcDbEntity
  8
Layer_1
 62
3
100
AcDbLine
 10
319.745699
 20
170.466476
 30
0.0
 11
322.698449
 21
170.466476
 31
0.0
  0
LINE
  5
18d
100
AcDbEntity
  8
Layer_1
 62
3
100
AcDbLine
 10
322.698449
 20
170.466476
 30
0.0
 11
322.857199
 21
170.963893
 31
0.0
  0
LINE
  5
18e
100
AcDbEntity
  8
Layer_1
 62
3
100
AcDbLine
 10
322.857199
 20
170.963893
 30
0.0
 11
323.047699
 21
171.821143
 31
0.0
  0
LINE
  5
18f
100
AcDbEntity
  8
Layer_1
 62
3
100
AcDbLine
 10
323.047699
 20
171.821143
 30
0.0
 11
323.153532
 21
172.773643
 31
0.0
  0
LINE
  5
190
100
AcDbEntity
  8
Layer_1
 62
3
100
AcDbLine
 10
323.153532
 20
172.773643
 30
0.0
 11
323.195865
 21
173.810809
 31
0.0
  0
LINE
  5
191
100
AcDbEntity
  8
Layer_1
 62
3
100
AcDbLine
 10
323.195865
 20
173.810809
 30
0.0
 11
323.185423
 21
174.107143
 31
0.0
  0
LINE
  5
192
100
AcDbEntity
  8
Layer_1
 62
3
100
AcDbLine
 10
304.960641
 20
165.862726
 30
0.0
 11
302.420641
 21
165.862726
 31
0.0
  0
LINE
  5
193
100
AcDbEntity
  8
Layer_1
 62
1
100
AcDbLine
 10
240.375525
 20
361.113012
 30
0.0
 11
240.375525
 21
125.693083
 31
0.0
  0
LINE
  5
194
100
AcDbEntity
  8
Layer_1
 62
1
100
AcDbLine
 10
287.607530
 20
268.785217
 30
0.0
 11
287.607530
 21
356.097245
 31
0.0
  0
LINE
  5
195
100
AcDbEntity
  8
Layer_1
 62
1
100
AcDbLine
 10
287.607530
 20
356.097245
 30
0.0
 11
240.354217
 21
356.097245
 31
0.0
  0
LINE
  5
196
100
AcDbEntity
  8
Layer_1
 62
1
100
AcDbLine
 10
296.231705
 20
356.104019
 30
0.0
 11
296.231705
 21
268.789196
 31
0.0
  0
LINE
  5
197
100
AcDbEntity
  8
Layer_1
 62
1
100
AcDbLine
 10
244.669649
 20
356.097245
 30
0.0
 11
244.669649
 21
130.780111
 31
0.0
  0
LINE
  5
198
100
AcDbEntity
  8
Layer_1
 62
1
100
AcDbLine
 10
240.360510
 20
130.798709
 30
0.0
 11
287.593137
 21
130.798709
 31
0.0
  0
LINE
  5
199
100
AcDbEntity
  8
Layer_1
 62
1
100
AcDbLine
 10
287.593137
 20
130.798709
 30
0.0
 11
287.593137
 21
217.985217
 31
0.0
  0
LINE
  5
19a
100
AcDbEntity
  8
Layer_1
 62
1
100
AcDbLine
 10
296.212570
 20
217.985713
 30
0.0
 11
296.212570
 21
130.754598
 31
0.0
  0
LINE
  5
19b
100
AcDbEntity
  8
Layer_1
 62
1
100
AcDbLine
 10
13.279430
 20
125.693761
 30
0.0
 11
13.660430
 21
126.064177
 31
0.0
  0
LINE
  5
19c
100
AcDbEntity
  8
Layer_1
 62
7
100
AcDbLine
 10
240.366002
 20
366.157683
 30
0.0
 11
13.660430
 21
366.157683
 31
0.0
  0
LINE
  5
19d
100
AcDbEntity
  8
Layer_1
 62
7
100
AcDbLine
 10
13.660430
 20
120.613761
 30
0.0
 11
240.366002
 21
120.613761
 31
0.0
  0
LINE
  5
19e
100
AcDbEntity
  8
Layer_1
 62
7
100
AcDbLine
 10
240.366002
 20
120.613761
 30
0.0
 11
240.366002
 21
125.693761
 31
0.0
  0
LINE
  5
19f
100
AcDbEntity
  8
Layer_1
 62
7
100
AcDbLine
 10
240.366002
 20
366.157683
 30
0.0
 11
240.366002
 21
361.077683
 31
0.0
  0
LINE
  5
1a0
100
AcDbEntity
  8
Layer_1
 62
3
100
AcDbLine
 10
222.099169
 20
251.603672
 30
0.0
 11
224.639169
 21
251.603672
 31
0.0
  0
LINE
  5
1a1
100
AcDbEntity
  8
Layer_1
 62
3
100
AcDbLine
 10
199.239169
 20
235.728675
 30
0.0
 11
224.639169
 21
235.728675
 31
0.0
  0
LINE
  5
1a2
100
AcDbEntity
  8
Layer_1
 62
3
100
AcDbLine
 10
199.239169
 20
235.728675
 30
0.0
 11
199.239169
 21
233.188675
 31
0.0
  0
LINE
  5
1a3
100
AcDbEntity
  8
Layer_1
 62
3
100
AcDbLine
 10
199.239169
 20
233.188675
 30
0.0
 11
224.639169
 21
233.188675
 31
0.0
  0
LINE
  5
1a4
100
AcDbEntity
  8
Layer_1
 62
3
100
AcDbLine
 10
222.099169
 20
251.603672
 30
0.0
 11
222.099169
 21
235.728675
 31
0.0
  0
LINE
  5
1a5
100
AcDbEntity
  8
Layer_1
 62
3
100
AcDbLine
 10
224.639169
 20
251.603672
 30
0.0
 11
224.639169
 21
233.188675
 31
0.0
  0
LINE
  5
1a6
100
AcDbEntity
  8
Layer_1
 62
3
100
AcDbLine
 10
212.986919
 20
250.026755
 30
0.0
 11
210.732669
 21
250.026755
 31
0.0
  0
LINE
  5
1a7
100
AcDbEntity
  8
Layer_1
 62
3
100
AcDbLine
 10
210.732669
 20
250.026755
 30
0.0
 11
206.118336
 21
237.326758
 31
0.0
  0
LINE
  5
1a8
100
AcDbEntity
  8
Layer_1
 62
3
100
AcDbLine
 10
206.118336
 20
237.326758
 30
0.0
 11
207.832836
 21
237.326758
 31
0.0
  0
LINE
  5
1a9
100
AcDbEntity
  8
Layer_1
 62
3
100
AcDbLine
 10
207.832836
 20
237.326758
 30
0.0
 11
209.071086
 21
240.861588
 31
0.0
  0
LINE
  5
1aa
100
AcDbEntity
  8
Layer_1
 62
3
100
AcDbLine
 10
209.071086
 20
240.861588
 30
0.0
 11
214.563836
 21
240.861588
 31
0.0
  0
LINE
  5
1ab
100
AcDbEntity
  8
Layer_1
 62
3
100
AcDbLine
 10
209.589669
 20
242.311505
 30
0.0
 11
211.822752
 21
248.545088
 31
0.0
  0
LINE
  5
1ac
100
AcDbEntity
  8
Layer_1
 62
3
100
AcDbLine
 10
211.822752
 20
248.545088
 30
0.0
 11
214.045252
 21
242.311505
 31
0.0
  0
LINE
  5
1ad
100
AcDbEntity
  8
Layer_1
 62
3
100
AcDbLine
 10
214.045252
 20
242.311505
 30
0.0
 11
209.589669
 21
242.311505
 31
0.0
  0
LINE
  5
1ae
100
AcDbEntity
  8
Layer_1
 62
3
100
AcDbLine
 10
214.563836
 20
240.861588
 30
0.0
 11
215.812669
 21
237.326758
 31
0.0
  0
LINE
  5
1af
100
AcDbEntity
  8
Layer_1
 62
3
100
AcDbLine
 10
215.812669
 20
237.326758
 30
0.0
 11
217.601252
 21
237.326758
 31
0.0
  0
LINE
  5
1b0
100
AcDbEntity
  8
Layer_1
 62
3
100
AcDbLine
 10
217.601252
 20
237.326758
 30
0.0
 11
212.986919
 21
250.026755
 31
0.0
  0
LINE
  5
1b1
100
AcDbEntity
  8
Layer_1
 62
7
100
AcDbLine
 10
13.660430
 20
125.693761
 30
0.0
 11
13.660430
 21
120.613761
 31
0.0
  0
LINE
  5
1b2
100
AcDbEntity
  8
Layer_1
 62
7
100
AcDbLine
 10
13.660430
 20
361.077683
 30
0.0
 11
13.660430
 21
366.157683
 31
0.0
  0
LINE
  5
1b3
100
AcDbEntity
  8
Layer_1
 62
7
100
AcDbLine
 10
13.647900
 20
361.089960
 30
0.0
 11
13.647900
 21
125.678972
 31
0.0
  0
LINE
  5
1b4
100
AcDbEntity
  8
Layer_1
 62
1
100
AcDbLine
 10
13.675332
 20
361.100684
 30
0.0
 11
240.363716
 21
361.100684
 31
0.0
  0
LINE
  5
1b5
100
AcDbEntity
  8
Layer_1
 62
1
100
AcDbLine
 10
240.391741
 20
125.697119
 30
0.0
 11
13.650129
 21
125.697119
 31
0.0
  0
ENDSEC
  0
SECTION
  2
OBJECTS
  0
DICTIONARY
  5
C
330
0
100
AcDbDictionary
  3
ACAD_GROUP
350
D
  3
ACAD_MLINESTYLE
350
17
  0
DICTIONARY
  5
D
330
C
100
AcDbDictionary
  0
DICTIONARY
  5
1A
330
C
100
AcDbDictionary
  0
DICTIONARY
  5
17
330
C
100
AcDbDictionary
  3
STANDARD
350
18
  0
DICTIONARY
  5
19
330
C
100
AcDbDictionary
  0
ENDSEC
  0
EOF
