  0
SECTION
  2
HEADER
  9
$ACADVER
  1
AC1014
  9
$HANDSEED
  5
FFFF
  9
$MEASUREMENT
 70
     1
  0
ENDSEC
  0
SECTION
  2
TABLES
  0
TABLE
  2
VPORT
  5
8
330
0
100
AcDbSymbolTable
 70
     4
  0
VPORT
  5
2E
330
8
100
AcDbSymbolTableRecord
100
AcDbViewportTableRecord
  2
*ACTIVE
 70
     0
 10
0.0
 20
0.0
 11
1.0
 21
1.0
 12
210.0
 22
148.5
 13
0.0
 23
0.0
 14
10.0
 24
10.0
 15
10.0
 25
10.0
 16
0.0
 26
0.0
 36
1.0
 17
0.0
 27
0.0
 37
0.0
 40
341.0
 41
1.24
 42
50.0
 43
0.0
 44
0.0
 50
0.0
 51
0.0
 71
     0
 72
   100
 73
     1
 74
     3
 75
     0
 76
     0
 77
     0
 78
     0
  0
ENDTAB
  0
TABLE
  2
LTYPE
  5
5
330
0
100
AcDbSymbolTable
 70
     1
  0
LTYPE
  5
14
330
5
100
AcDbSymbolTableRecord
100
AcDbLinetypeTableRecord
  2
BYBLOCK
 70
     0
  3

 72
    65
 73
     0
 40
0.0
  0
LTYPE
  5
15
330
5
100
AcDbSymbolTableRecord
100
AcDbLinetypeTableRecord
  2
BYLAYER
 70
     0
  3

 72
    65
 73
     0
 40
0.0
  0
LTYPE
  5
16
330
5
100
AcDbSymbolTableRecord
100
AcDbLinetypeTableRecord
  2
CONTINUOUS
 70
     0
  3
Solid line
 72
    65
 73
     0
 40
0.0
  0
ENDTAB
  0
TABLE
  2
LAYER
  5
2
100
AcDbSymbolTable
 70
2
  0
LAYER
  5
50
100
AcDbSymbolTableRecord
100
AcDbLayerTableRecord
  2
0
 70
0
  6
CONTINUOUS
  0
LAYER
  5
51
100
AcDbSymbolTableRecord
100
AcDbLayerTableRecord
  2
Layer_1
 70
0
  6
CONTINUOUS
  0
ENDTAB
  0
TABLE
  2
STYLE
  5
3
330
0
100
AcDbSymbolTable
 70
     1
  0
STYLE
  5
11
330
3
100
AcDbSymbolTableRecord
100
AcDbTextStyleTableRecord
  2
STANDARD
 70
     0
 40
0.0
 41
1.0
 50
0.0
 71
     0
 42
2.5
  3
txt
  4

  0
ENDTAB
  0
TABLE
  2
VIEW
  5
6
330
0
100
AcDbSymbolTable
 70
     0
  0
ENDTAB
  0
TABLE
  2
UCS
  5
7
330
0
100
AcDbSymbolTable
 70
     0
  0
ENDTAB
  0
TABLE
  2
APPID
  5
9
330
0
100
AcDbSymbolTable
 70
     2
  0
APPID
  5
12
330
9
100
AcDbSymbolTableRecord
100
AcDbRegAppTableRecord
  2
ACAD
 70
     0
  0
ENDTAB
  0
TABLE
  2
DIMSTYLE
  5
A
330
0
100
AcDbSymbolTable
 70
     1
  0
DIMSTYLE
105
27
330
A
100
AcDbSymbolTableRecord
100
AcDbDimStyleTableRecord
  2
ISO-25
 70
     0
  3

  4

  5

  6

  7

 40
1.0
 41
2.5
 42
0.625
 43
3.75
 44
1.25
 45
0.0
 46
0.0
 47
0.0
 48
0.0
140
2.5
141
2.5
142
0.0
143
0.03937007874016
144
1.0
145
0.0
146
1.0
147
0.625
 71
     0
 72
     0
 73
     0
 74
     0
 75
     0
 76
     0
 77
     1
 78
     8
170
     0
171
     3
172
     1
173
     0
174
     0
175
     0
176
     0
177
     0
178
     0
270
     2
271
     2
272
     2
273
     2
274
     3
340
11
275
     0
280
     0
281
     0
282
     0
283
     0
284
     8
285
     0
286
     0
287
     3
288
     0
  0
ENDTAB
  0
TABLE
  2
BLOCK_RECORD
  5
1
330
0
100
AcDbSymbolTable
 70
     1
  0
BLOCK_RECORD
  5
1F
330
1
100
AcDbSymbolTableRecord
100
AcDbBlockTableRecord
  2
*MODEL_SPACE
  0
BLOCK_RECORD
  5
1B
330
1
100
AcDbSymbolTableRecord
100
AcDbBlockTableRecord
  2
*PAPER_SPACE
  0
ENDTAB
  0
ENDSEC
  0
SECTION
  2
BLOCKS
  0
BLOCK
  5
20
330
1F
100
AcDbEntity
  8
0
100
AcDbBlockBegin
  2
*MODEL_SPACE
 70
     0
 10
0.0
 20
0.0
 30
0.0
  3
*MODEL_SPACE
  1

  0
ENDBLK
  5
21
330
1F
100
AcDbEntity
  8
0
100
AcDbBlockEnd
  0
BLOCK
  5
1C
330
1B
100
AcDbEntity
 67
     1
  8
0
100
AcDbBlockBegin
  2
*PAPER_SPACE
  1

  0
ENDBLK
  5
1D
330
1B
100
AcDbEntity
 67
     1
  8
0
100
AcDbBlockEnd
  0
ENDSEC
  0
SECTION
  2
ENTITIES
  0
LINE
  5
100
100
AcDbEntity
  8
Layer_1
 62
7
100
AcDbLine
 10
15.268109
 20
87.971366
 30
0.0
 11
66.068109
 21
87.971366
 31
0.0
  0
LINE
  5
101
100
AcDbEntity
  8
Layer_1
 62
7
100
AcDbLine
 10
66.068109
 20
87.971366
 30
0.0
 11
66.068109
 21
130.833866
 31
0.0
  0
LINE
  5
102
100
AcDbEntity
  8
Layer_1
 62
7
100
AcDbLine
 10
66.068109
 20
130.833866
 30
0.0
 11
15.268109
 21
130.833866
 31
0.0
  0
LINE
  5
103
100
AcDbEntity
  8
Layer_1
 62
7
100
AcDbLine
 10
15.268109
 20
130.833866
 30
0.0
 11
15.268109
 21
87.971366
 31
0.0
  0
LINE
  5
104
100
AcDbEntity
  8
Layer_1
 62
7
100
AcDbLine
 10
19.639026
 20
97.189449
 30
0.0
 11
19.639026
 21
94.755283
 31
0.0
  0
SPLINE
  5
105
100
AcDbEntity
  8
Layer_1
 62
7
100
AcDbSpline
 70
8
 71
3
 72
8
 73
4
 74
0
 40
0
 40
0
 40
0
 40
0
 40
1
 40
1
 40
1
 40
1
 10
22.184318
 20
99.740033
 30
0.0
 10
20.778597
 20
99.740033
 30
0.0
 10
19.639026
 20
98.600462
 30
0.0
 10
19.639026
 20
97.194741
 30
0.0
  0
LINE
  5
106
100
AcDbEntity
  8
Layer_1
 62
7
100
AcDbLine
 10
24.846026
 20
99.729449
 30
0.0
 11
22.179026
 21
99.729449
 31
0.0
  0
LINE
  5
107
100
AcDbEntity
  8
Layer_1
 62
7
100
AcDbLine
 10
27.386026
 20
94.755283
 30
0.0
 11
27.386026
 21
97.189449
 31
0.0
  0
SPLINE
  5
108
100
AcDbEntity
  8
Layer_1
 62
7
100
AcDbSpline
 70
8
 71
3
 72
8
 73
4
 74
0
 40
0
 40
0
 40
0
 40
0
 40
1
 40
1
 40
1
 40
1
 10
24.851318
 20
92.215283
 30
0.0
 10
26.257038
 20
92.215283
 30
0.0
 10
27.396609
 20
93.354854
 30
0.0
 10
27.396609
 20
94.760574
 30
0.0
  0
SPLINE
  5
109
100
AcDbEntity
  8
Layer_1
 62
7
100
AcDbSpline
 70
8
 71
3
 72
8
 73
4
 74
0
 40
0
 40
0
 40
0
 40
0
 40
1
 40
1
 40
1
 40
1
 10
27.396609
 20
97.194741
 30
0.0
 10
27.396609
 20
98.600462
 30
0.0
 10
26.257038
 20
99.740033
 30
0.0
 10
24.851318
 20
99.740033
 30
0.0
  0
LINE
  5
10a
100
AcDbEntity
  8
Layer_1
 62
7
100
AcDbLine
 10
22.179026
 20
92.215283
 30
0.0
 11
24.846026
 21
92.215283
 31
0.0
  0
SPLINE
  5
10b
100
AcDbEntity
  8
Layer_1
 62
7
100
AcDbSpline
 70
8
 71
3
 72
8
 73
4
 74
0
 40
0
 40
0
 40
0
 40
0
 40
1
 40
1
 40
1
 40
1
 10
19.639026
 20
94.760574
 30
0.0
 10
19.639026
 20
93.354854
 30
0.0
 10
20.778597
 20
92.215283
 30
0.0
 10
22.184318
 20
92.215283
 30
0.0
  0
SPLINE
  5
10c
100
AcDbEntity
  8
Layer_1
 62
7
100
AcDbSpline
 70
8
 71
3
 72
8
 73
4
 74
0
 40
0
 40
0
 40
0
 40
0
 40
1
 40
1
 40
1
 40
1
 10
45.113109
 20
107.820408
 30
0.0
 10
45.113109
 20
110.272397
 30
0.0
 10
43.125390
 20
112.260116
 30
0.0
 10
40.673401
 20
112.260116
 30
0.0
  0
SPLINE
  5
10d
100
AcDbEntity
  8
Layer_1
 62
7
100
AcDbSpline
 70
8
 71
3
 72
8
 73
4
 74
0
 40
0
 40
0
 40
0
 40
0
 40
1
 40
1
 40
1
 40
1
 10
40.673401
 20
112.260116
 30
0.0
 10
38.221412
 20
112.260116
 30
0.0
 10
36.233693
 20
110.272397
 30
0.0
 10
36.233693
 20
107.820408
 30
0.0
  0
SPLINE
  5
10e
100
AcDbEntity
  8
Layer_1
 62
7
100
AcDbSpline
 70
8
 71
3
 72
8
 73
4
 74
0
 40
0
 40
0
 40
0
 40
0
 40
1
 40
1
 40
1
 40
1
 10
36.233693
 20
107.820408
 30
0.0
 10
36.233693
 20
105.368419
 30
0.0
 10
38.221412
 20
103.380699
 30
0.0
 10
40.673401
 20
103.380699
 30
0.0
  0
SPLINE
  5
10f
100
AcDbEntity
  8
Layer_1
 62
7
100
AcDbSpline
 70
8
 71
3
 72
8
 73
4
 74
0
 40
0
 40
0
 40
0
 40
0
 40
1
 40
1
 40
1
 40
1
 10
40.673401
 20
103.380699
 30
0.0
 10
43.125390
 20
103.380699
 30
0.0
 10
45.113109
 20
105.368419
 30
0.0
 10
45.113109
 20
107.820408
 30
0.0
  0
SPLINE
  5
110
100
AcDbEntity
  8
Layer_1
 62
7
100
AcDbSpline
 70
8
 71
3
 72
8
 73
4
 74
0
 40
0
 40
0
 40
0
 40
0
 40
1
 40
1
 40
1
 40
1
 10
30.021276
 20
126.214241
 30
0.0
 10
30.021276
 20
127.368651
 30
0.0
 10
29.085455
 20
128.304449
 30
0.0
 10
27.931068
 20
128.304449
 30
0.0
  0
SPLINE
  5
111
100
AcDbEntity
  8
Layer_1
 62
7
100
AcDbSpline
 70
8
 71
3
 72
8
 73
4
 74
0
 40
0
 40
0
 40
0
 40
0
 40
1
 40
1
 40
1
 40
1
 10
27.931068
 20
128.304449
 30
0.0
 10
26.776680
 20
128.304449
 30
0.0
 10
25.840859
 20
127.368651
 30
0.0
 10
25.840859
 20
126.214241
 30
0.0
  0
SPLINE
  5
112
100
AcDbEntity
  8
Layer_1
 62
7
100
AcDbSpline
 70
8
 71
3
 72
8
 73
4
 74
0
 40
0
 40
0
 40
0
 40
0
 40
1
 40
1
 40
1
 40
1
 10
25.840859
 20
126.214241
 30
0.0
 10
25.840859
 20
125.059831
 30
0.0
 10
26.776680
 20
124.124033
 30
0.0
 10
27.931068
 20
124.124033
 30
0.0
  0
SPLINE
  5
113
100
AcDbEntity
  8
Layer_1
 62
7
100
AcDbSpline
 70
8
 71
3
 72
8
 73
4
 74
0
 40
0
 40
0
 40
0
 40
0
 40
1
 40
1
 40
1
 40
1
 10
27.931068
 20
124.124033
 30
0.0
 10
29.085455
 20
124.124033
 30
0.0
 10
30.021276
 20
125.059831
 30
0.0
 10
30.021276
 20
126.214241
 30
0.0
  0
SPLINE
  5
114
100
AcDbEntity
  8
Layer_1
 62
7
100
AcDbSpline
 70
8
 71
3
 72
8
 73
4
 74
0
 40
0
 40
0
 40
0
 40
0
 40
1
 40
1
 40
1
 40
1
 10
55.622359
 20
126.214241
 30
0.0
 10
55.622359
 20
127.368651
 30
0.0
 10
54.686539
 20
128.304449
 30
0.0
 10
53.532151
 20
128.304449
 30
0.0
  0
SPLINE
  5
115
100
AcDbEntity
  8
Layer_1
 62
7
100
AcDbSpline
 70
8
 71
3
 72
8
 73
4
 74
0
 40
0
 40
0
 40
0
 40
0
 40
1
 40
1
 40
1
 40
1
 10
53.532151
 20
128.304449
 30
0.0
 10
52.377763
 20
128.304449
 30
0.0
 10
51.441943
 20
127.368651
 30
0.0
 10
51.441943
 20
126.214241
 30
0.0
  0
SPLINE
  5
116
100
AcDbEntity
  8
Layer_1
 62
7
100
AcDbSpline
 70
8
 71
3
 72
8
 73
4
 74
0
 40
0
 40
0
 40
0
 40
0
 40
1
 40
1
 40
1
 40
1
 10
51.441943
 20
126.214241
 30
0.0
 10
51.441943
 20
125.059831
 30
0.0
 10
52.377763
 20
124.124033
 30
0.0
 10
53.532151
 20
124.124033
 30
0.0
  0
SPLINE
  5
117
100
AcDbEntity
  8
Layer_1
 62
7
100
AcDbSpline
 70
8
 71
3
 72
8
 73
4
 74
0
 40
0
 40
0
 40
0
 40
0
 40
1
 40
1
 40
1
 40
1
 10
53.532151
 20
124.124033
 30
0.0
 10
54.686539
 20
124.124033
 30
0.0
 10
55.622359
 20
125.059831
 30
0.0
 10
55.622359
 20
126.214241
 30
0.0
  0
SPLINE
  5
118
100
AcDbEntity
  8
Layer_1
 62
7
100
AcDbSpline
 70
8
 71
3
 72
8
 73
4
 74
0
 40
0
 40
0
 40
0
 40
0
 40
1
 40
1
 40
1
 40
1
 10
42.075693
 20
99.808824
 30
0.0
 10
42.075693
 20
100.583270
 30
0.0
 10
41.447867
 20
101.211116
 30
0.0
 10
40.673401
 20
101.211116
 30
0.0
  0
SPLINE
  5
119
100
AcDbEntity
  8
Layer_1
 62
7
100
AcDbSpline
 70
8
 71
3
 72
8
 73
4
 74
0
 40
0
 40
0
 40
0
 40
0
 40
1
 40
1
 40
1
 40
1
 10
40.673401
 20
101.211116
 30
0.0
 10
39.898932
 20
101.211116
 30
0.0
 10
39.271109
 20
100.583270
 30
0.0
 10
39.271109
 20
99.808824
 30
0.0
  0
SPLINE
  5
11a
100
AcDbEntity
  8
Layer_1
 62
7
100
AcDbSpline
 70
8
 71
3
 72
8
 73
4
 74
0
 40
0
 40
0
 40
0
 40
0
 40
1
 40
1
 40
1
 40
1
 10
39.271109
 20
99.808824
 30
0.0
 10
39.271109
 20
99.034378
 30
0.0
 10
39.898932
 20
98.406533
 30
0.0
 10
40.673401
 20
98.406533
 30
0.0
  0
SPLINE
  5
11b
100
AcDbEntity
  8
Layer_1
 62
7
100
AcDbSpline
 70
8
 71
3
 72
8
 73
4
 74
0
 40
0
 40
0
 40
0
 40
0
 40
1
 40
1
 40
1
 40
1
 10
40.673401
 20
98.406533
 30
0.0
 10
41.447867
 20
98.406533
 30
0.0
 10
42.075693
 20
99.034378
 30
0.0
 10
42.075693
 20
99.808824
 30
0.0
  0
SPLINE
  5
11c
100
AcDbEntity
  8
Layer_1
 62
7
100
AcDbSpline
 70
8
 71
3
 72
8
 73
4
 74
0
 40
0
 40
0
 40
0
 40
0
 40
1
 40
1
 40
1
 40
1
 10
51.600693
 20
107.820408
 30
0.0
 10
51.600693
 20
108.594854
 30
0.0
 10
50.972867
 20
109.222699
 30
0.0
 10
50.198401
 20
109.222699
 30
0.0
  0
SPLINE
  5
11d
100
AcDbEntity
  8
Layer_1
 62
7
100
AcDbSpline
 70
8
 71
3
 72
8
 73
4
 74
0
 40
0
 40
0
 40
0
 40
0
 40
1
 40
1
 40
1
 40
1
 10
50.198401
 20
109.222699
 30
0.0
 10
49.423932
 20
109.222699
 30
0.0
 10
48.796109
 20
108.594854
 30
0.0
 10
48.796109
 20
107.820408
 30
0.0
  0
SPLINE
  5
11e
100
AcDbEntity
  8
Layer_1
 62
7
100
AcDbSpline
 70
8
 71
3
 72
8
 73
4
 74
0
 40
0
 40
0
 40
0
 40
0
 40
1
 40
1
 40
1
 40
1
 10
48.796109
 20
107.820408
 30
0.0
 10
48.796109
 20
107.045962
 30
0.0
 10
49.423932
 20
106.418116
 30
0.0
 10
50.198401
 20
106.418116
 30
0.0
  0
SPLINE
  5
11f
100
AcDbEntity
  8
Layer_1
 62
7
100
AcDbSpline
 70
8
 71
3
 72
8
 73
4
 74
0
 40
0
 40
0
 40
0
 40
0
 40
1
 40
1
 40
1
 40
1
 10
50.198401
 20
106.418116
 30
0.0
 10
50.972867
 20
106.418116
 30
0.0
 10
51.600693
 20
107.045962
 30
0.0
 10
51.600693
 20
107.820408
 30
0.0
  0
SPLINE
  5
120
100
AcDbEntity
  8
Layer_1
 62
7
100
AcDbSpline
 70
8
 71
3
 72
8
 73
4
 74
0
 40
0
 40
0
 40
0
 40
0
 40
1
 40
1
 40
1
 40
1
 10
32.550693
 20
107.820408
 30
0.0
 10
32.550693
 20
108.594854
 30
0.0
 10
31.922867
 20
109.222699
 30
0.0
 10
31.148401
 20
109.222699
 30
0.0
  0
SPLINE
  5
121
100
AcDbEntity
  8
Layer_1
 62
7
100
AcDbSpline
 70
8
 71
3
 72
8
 73
4
 74
0
 40
0
 40
0
 40
0
 40
0
 40
1
 40
1
 40
1
 40
1
 10
31.148401
 20
109.222699
 30
0.0
 10
30.373932
 20
109.222699
 30
0.0
 10
29.746109
 20
108.594854
 30
0.0
 10
29.746109
 20
107.820408
 30
0.0
  0
SPLINE
  5
122
100
AcDbEntity
  8
Layer_1
 62
7
100
AcDbSpline
 70
8
 71
3
 72
8
 73
4
 74
0
 40
0
 40
0
 40
0
 40
0
 40
1
 40
1
 40
1
 40
1
 10
29.746109
 20
107.820408
 30
0.0
 10
29.746109
 20
107.045962
 30
0.0
 10
30.373932
 20
106.418116
 30
0.0
 10
31.148401
 20
106.418116
 30
0.0
  0
SPLINE
  5
123
100
AcDbEntity
  8
Layer_1
 62
7
100
AcDbSpline
 70
8
 71
3
 72
8
 73
4
 74
0
 40
0
 40
0
 40
0
 40
0
 40
1
 40
1
 40
1
 40
1
 10
31.148401
 20
106.418116
 30
0.0
 10
31.922867
 20
106.418116
 30
0.0
 10
32.550693
 20
107.045962
 30
0.0
 10
32.550693
 20
107.820408
 30
0.0
  0
SPLINE
  5
124
100
AcDbEntity
  8
Layer_1
 62
7
100
AcDbSpline
 70
8
 71
3
 72
8
 73
4
 74
0
 40
0
 40
0
 40
0
 40
0
 40
1
 40
1
 40
1
 40
1
 10
48.965443
 20
115.599158
 30
0.0
 10
48.965443
 20
115.882633
 30
0.0
 10
48.735626
 20
116.112449
 30
0.0
 10
48.452151
 20
116.112449
 30
0.0
  0
SPLINE
  5
125
100
AcDbEntity
  8
Layer_1
 62
7
100
AcDbSpline
 70
8
 71
3
 72
8
 73
4
 74
0
 40
0
 40
0
 40
0
 40
0
 40
1
 40
1
 40
1
 40
1
 10
48.452151
 20
116.112449
 30
0.0
 10
48.168676
 20
116.112449
 30
0.0
 10
47.938859
 20
115.882633
 30
0.0
 10
47.938859
 20
115.599158
 30
0.0
  0
SPLINE
  5
126
100
AcDbEntity
  8
Layer_1
 62
7
100
AcDbSpline
 70
8
 71
3
 72
8
 73
4
 74
0
 40
0
 40
0
 40
0
 40
0
 40
1
 40
1
 40
1
 40
1
 10
47.938859
 20
115.599158
 30
0.0
 10
47.938859
 20
115.315682
 30
0.0
 10
48.168676
 20
115.085866
 30
0.0
 10
48.452151
 20
115.085866
 30
0.0
  0
SPLINE
  5
127
100
AcDbEntity
  8
Layer_1
 62
7
100
AcDbSpline
 70
8
 71
3
 72
8
 73
4
 74
0
 40
0
 40
0
 40
0
 40
0
 40
1
 40
1
 40
1
 40
1
 10
48.452151
 20
115.085866
 30
0.0
 10
48.735626
 20
115.085866
 30
0.0
 10
48.965443
 20
115.315682
 30
0.0
 10
48.965443
 20
115.599158
 30
0.0
  0
SPLINE
  5
128
100
AcDbEntity
  8
Layer_1
 62
7
100
AcDbSpline
 70
8
 71
3
 72
8
 73
4
 74
0
 40
0
 40
0
 40
0
 40
0
 40
1
 40
1
 40
1
 40
1
 10
33.407943
 20
115.599158
 30
0.0
 10
33.407943
 20
115.882633
 30
0.0
 10
33.178126
 20
116.112449
 30
0.0
 10
32.894651
 20
116.112449
 30
0.0
  0
SPLINE
  5
129
100
AcDbEntity
  8
Layer_1
 62
7
100
AcDbSpline
 70
8
 71
3
 72
8
 73
4
 74
0
 40
0
 40
0
 40
0
 40
0
 40
1
 40
1
 40
1
 40
1
 10
32.894651
 20
116.112449
 30
0.0
 10
32.611176
 20
116.112449
 30
0.0
 10
32.381359
 20
115.882633
 30
0.0
 10
32.381359
 20
115.599158
 30
0.0
  0
SPLINE
  5
12a
100
AcDbEntity
  8
Layer_1
 62
7
100
AcDbSpline
 70
8
 71
3
 72
8
 73
4
 74
0
 40
0
 40
0
 40
0
 40
0
 40
1
 40
1
 40
1
 40
1
 10
32.381359
 20
115.599158
 30
0.0
 10
32.381359
 20
115.315682
 30
0.0
 10
32.611176
 20
115.085866
 30
0.0
 10
32.894651
 20
115.085866
 30
0.0
  0
SPLINE
  5
12b
100
AcDbEntity
  8
Layer_1
 62
7
100
AcDbSpline
 70
8
 71
3
 72
8
 73
4
 74
0
 40
0
 40
0
 40
0
 40
0
 40
1
 40
1
 40
1
 40
1
 10
32.894651
 20
115.085866
 30
0.0
 10
33.178126
 20
115.085866
 30
0.0
 10
33.407943
 20
115.315682
 30
0.0
 10
33.407943
 20
115.599158
 30
0.0
  0
SPLINE
  5
12c
100
AcDbEntity
  8
Layer_1
 62
7
100
AcDbSpline
 70
8
 71
3
 72
8
 73
4
 74
0
 40
0
 40
0
 40
0
 40
0
 40
1
 40
1
 40
1
 40
1
 10
33.407943
 20
100.041658
 30
0.0
 10
33.407943
 20
100.325133
 30
0.0
 10
33.178126
 20
100.554949
 30
0.0
 10
32.894651
 20
100.554949
 30
0.0
  0
SPLINE
  5
12d
100
AcDbEntity
  8
Layer_1
 62
7
100
AcDbSpline
 70
8
 71
3
 72
8
 73
4
 74
0
 40
0
 40
0
 40
0
 40
0
 40
1
 40
1
 40
1
 40
1
 10
32.894651
 20
100.554949
 30
0.0
 10
32.611176
 20
100.554949
 30
0.0
 10
32.381359
 20
100.325133
 30
0.0
 10
32.381359
 20
100.041658
 30
0.0
  0
SPLINE
  5
12e
100
AcDbEntity
  8
Layer_1
 62
7
100
AcDbSpline
 70
8
 71
3
 72
8
 73
4
 74
0
 40
0
 40
0
 40
0
 40
0
 40
1
 40
1
 40
1
 40
1
 10
32.381359
 20
100.041658
 30
0.0
 10
32.381359
 20
99.758182
 30
0.0
 10
32.611176
 20
99.528366
 30
0.0
 10
32.894651
 20
99.528366
 30
0.0
  0
SPLINE
  5
12f
100
AcDbEntity
  8
Layer_1
 62
7
100
AcDbSpline
 70
8
 71
3
 72
8
 73
4
 74
0
 40
0
 40
0
 40
0
 40
0
 40
1
 40
1
 40
1
 40
1
 10
32.894651
 20
99.528366
 30
0.0
 10
33.178126
 20
99.528366
 30
0.0
 10
33.407943
 20
99.758182
 30
0.0
 10
33.407943
 20
100.041658
 30
0.0
  0
SPLINE
  5
130
100
AcDbEntity
  8
Layer_1
 62
7
100
AcDbSpline
 70
8
 71
3
 72
8
 73
4
 74
0
 40
0
 40
0
 40
0
 40
0
 40
1
 40
1
 40
1
 40
1
 10
48.965443
 20
100.041658
 30
0.0
 10
48.965443
 20
100.325133
 30
0.0
 10
48.735626
 20
100.554949
 30
0.0
 10
48.452151
 20
100.554949
 30
0.0
  0
SPLINE
  5
131
100
AcDbEntity
  8
Layer_1
 62
7
100
AcDbSpline
 70
8
 71
3
 72
8
 73
4
 74
0
 40
0
 40
0
 40
0
 40
0
 40
1
 40
1
 40
1
 40
1
 10
48.452151
 20
100.554949
 30
0.0
 10
48.168676
 20
100.554949
 30
0.0
 10
47.938859
 20
100.325133
 30
0.0
 10
47.938859
 20
100.041658
 30
0.0
  0
SPLINE
  5
132
100
AcDbEntity
  8
Layer_1
 62
7
100
AcDbSpline
 70
8
 71
3
 72
8
 73
4
 74
0
 40
0
 40
0
 40
0
 40
0
 40
1
 40
1
 40
1
 40
1
 10
47.938859
 20
100.041658
 30
0.0
 10
47.938859
 20
99.758182
 30
0.0
 10
48.168676
 20
99.528366
 30
0.0
 10
48.452151
 20
99.528366
 30
0.0
  0
SPLINE
  5
133
100
AcDbEntity
  8
Layer_1
 62
7
100
AcDbSpline
 70
8
 71
3
 72
8
 73
4
 74
0
 40
0
 40
0
 40
0
 40
0
 40
1
 40
1
 40
1
 40
1
 10
48.452151
 20
99.528366
 30
0.0
 10
48.735626
 20
99.528366
 30
0.0
 10
48.965443
 20
99.758182
 30
0.0
 10
48.965443
 20
100.041658
 30
0.0
  0
SPLINE
  5
134
100
AcDbEntity
  8
Layer_1
 62
7
100
AcDbSpline
 70
8
 71
3
 72
8
 73
4
 74
0
 40
0
 40
0
 40
0
 40
0
 40
1
 40
1
 40
1
 40
1
 10
42.075693
 20
115.831991
 30
0.0
 10
42.075693
 20
116.606437
 30
0.0
 10
41.447867
 20
117.234283
 30
0.0
 10
40.673401
 20
117.234283
 30
0.0
  0
SPLINE
  5
135
100
AcDbEntity
  8
Layer_1
 62
7
100
AcDbSpline
 70
8
 71
3
 72
8
 73
4
 74
0
 40
0
 40
0
 40
0
 40
0
 40
1
 40
1
 40
1
 40
1
 10
40.673401
 20
117.234283
 30
0.0
 10
39.898932
 20
117.234283
 30
0.0
 10
39.271109
 20
116.606437
 30
0.0
 10
39.271109
 20
115.831991
 30
0.0
  0
SPLINE
  5
136
100
AcDbEntity
  8
Layer_1
 62
7
100
AcDbSpline
 70
8
 71
3
 72
8
 73
4
 74
0
 40
0
 40
0
 40
0
 40
0
 40
1
 40
1
 40
1
 40
1
 10
39.271109
 20
115.831991
 30
0.0
 10
39.271109
 20
115.057545
 30
0.0
 10
39.898932
 20
114.429699
 30
0.0
 10
40.673401
 20
114.429699
 30
0.0
  0
SPLINE
  5
137
100
AcDbEntity
  8
Layer_1
 62
7
100
AcDbSpline
 70
8
 71
3
 72
8
 73
4
 74
0
 40
0
 40
0
 40
0
 40
0
 40
1
 40
1
 40
1
 40
1
 10
40.673401
 20
114.429699
 30
0.0
 10
41.447867
 20
114.429699
 30
0.0
 10
42.075693
 20
115.057545
 30
0.0
 10
42.075693
 20
115.831991
 30
0.0
  0
SPLINE
  5
138
100
AcDbEntity
  8
Layer_1
 62
7
100
AcDbSpline
 70
8
 71
3
 72
8
 73
4
 74
0
 40
0
 40
0
 40
0
 40
0
 40
1
 40
1
 40
1
 40
1
 10
57.940109
 20
107.905074
 30
0.0
 10
57.940109
 20
108.188550
 30
0.0
 10
57.710293
 20
108.418366
 30
0.0
 10
57.426818
 20
108.418366
 30
0.0
  0
SPLINE
  5
139
100
AcDbEntity
  8
Layer_1
 62
7
100
AcDbSpline
 70
8
 71
3
 72
8
 73
4
 74
0
 40
0
 40
0
 40
0
 40
0
 40
1
 40
1
 40
1
 40
1
 10
57.426818
 20
108.418366
 30
0.0
 10
57.143342
 20
108.418366
 30
0.0
 10
56.913526
 20
108.188550
 30
0.0
 10
56.913526
 20
107.905074
 30
0.0
  0
SPLINE
  5
13a
100
AcDbEntity
  8
Layer_1
 62
7
100
AcDbSpline
 70
8
 71
3
 72
8
 73
4
 74
0
 40
0
 40
0
 40
0
 40
0
 40
1
 40
1
 40
1
 40
1
 10
56.913526
 20
107.905074
 30
0.0
 10
56.913526
 20
107.621599
 30
0.0
 10
57.143342
 20
107.391783
 30
0.0
 10
57.426818
 20
107.391783
 30
0.0
  0
SPLINE
  5
13b
100
AcDbEntity
  8
Layer_1
 62
7
100
AcDbSpline
 70
8
 71
3
 72
8
 73
4
 74
0
 40
0
 40
0
 40
0
 40
0
 40
1
 40
1
 40
1
 40
1
 10
57.426818
 20
107.391783
 30
0.0
 10
57.710293
 20
107.391783
 30
0.0
 10
57.940109
 20
107.621599
 30
0.0
 10
57.940109
 20
107.905074
 30
0.0
  0
SPLINE
  5
13c
100
AcDbEntity
  8
Layer_1
 62
7
100
AcDbSpline
 70
8
 71
3
 72
8
 73
4
 74
0
 40
0
 40
0
 40
0
 40
0
 40
1
 40
1
 40
1
 40
1
 10
41.176109
 20
124.605574
 30
0.0
 10
41.176109
 20
124.889050
 30
0.0
 10
40.946293
 20
125.118866
 30
0.0
 10
40.662818
 20
125.118866
 30
0.0
  0
SPLINE
  5
13d
100
AcDbEntity
  8
Layer_1
 62
7
100
AcDbSpline
 70
8
 71
3
 72
8
 73
4
 74
0
 40
0
 40
0
 40
0
 40
0
 40
1
 40
1
 40
1
 40
1
 10
40.662818
 20
125.118866
 30
0.0
 10
40.379342
 20
125.118866
 30
0.0
 10
40.149526
 20
124.889050
 30
0.0
 10
40.149526
 20
124.605574
 30
0.0
  0
SPLINE
  5
13e
100
AcDbEntity
  8
Layer_1
 62
7
100
AcDbSpline
 70
8
 71
3
 72
8
 73
4
 74
0
 40
0
 40
0
 40
0
 40
0
 40
1
 40
1
 40
1
 40
1
 10
40.149526
 20
124.605574
 30
0.0
 10
40.149526
 20
124.322099
 30
0.0
 10
40.379342
 20
124.092283
 30
0.0
 10
40.662818
 20
124.092283
 30
0.0
  0
SPLINE
  5
13f
100
AcDbEntity
  8
Layer_1
 62
7
100
AcDbSpline
 70
8
 71
3
 72
8
 73
4
 74
0
 40
0
 40
0
 40
0
 40
0
 40
1
 40
1
 40
1
 40
1
 10
40.662818
 20
124.092283
 30
0.0
 10
40.946293
 20
124.092283
 30
0.0
 10
41.176109
 20
124.322099
 30
0.0
 10
41.176109
 20
124.605574
 30
0.0
  0
SPLINE
  5
140
100
AcDbEntity
  8
Layer_1
 62
7
100
AcDbSpline
 70
8
 71
3
 72
8
 73
4
 74
0
 40
0
 40
0
 40
0
 40
0
 40
1
 40
1
 40
1
 40
1
 10
24.412109
 20
107.841574
 30
0.0
 10
24.412109
 20
108.125050
 30
0.0
 10
24.182301
 20
108.354866
 30
0.0
 10
23.898818
 20
108.354866
 30
0.0
  0
SPLINE
  5
141
100
AcDbEntity
  8
Layer_1
 62
7
100
AcDbSpline
 70
8
 71
3
 72
8
 73
4
 74
0
 40
0
 40
0
 40
0
 40
0
 40
1
 40
1
 40
1
 40
1
 10
23.898818
 20
108.354866
 30
0.0
 10
23.615331
 20
108.354866
 30
0.0
 10
23.385526
 20
108.125050
 30
0.0
 10
23.385526
 20
107.841574
 30
0.0
  0
SPLINE
  5
142
100
AcDbEntity
  8
Layer_1
 62
7
100
AcDbSpline
 70
8
 71
3
 72
8
 73
4
 74
0
 40
0
 40
0
 40
0
 40
0
 40
1
 40
1
 40
1
 40
1
 10
23.385526
 20
107.841574
 30
0.0
 10
23.385526
 20
107.558099
 30
0.0
 10
23.615331
 20
107.328283
 30
0.0
 10
23.898818
 20
107.328283
 30
0.0
  0
SPLINE
  5
143
100
AcDbEntity
  8
Layer_1
 62
7
100
AcDbSpline
 70
8
 71
3
 72
8
 73
4
 74
0
 40
0
 40
0
 40
0
 40
0
 40
1
 40
1
 40
1
 40
1
 10
23.898818
 20
107.328283
 30
0.0
 10
24.182301
 20
107.328283
 30
0.0
 10
24.412109
 20
107.558099
 30
0.0
 10
24.412109
 20
107.841574
 30
0.0
  0
SPLINE
  5
144
100
AcDbEntity
  8
Layer_1
 62
7
100
AcDbSpline
 70
8
 71
3
 72
8
 73
4
 74
0
 40
0
 40
0
 40
0
 40
0
 40
1
 40
1
 40
1
 40
1
 10
41.239609
 20
91.077574
 30
0.0
 10
41.239609
 20
91.361050
 30
0.0
 10
41.009793
 20
91.590866
 30
0.0
 10
40.726318
 20
91.590866
 30
0.0
  0
SPLINE
  5
145
100
AcDbEntity
  8
Layer_1
 62
7
100
AcDbSpline
 70
8
 71
3
 72
8
 73
4
 74
0
 40
0
 40
0
 40
0
 40
0
 40
1
 40
1
 40
1
 40
1
 10
40.726318
 20
91.590866
 30
0.0
 10
40.442842
 20
91.590866
 30
0.0
 10
40.213026
 20
91.361050
 30
0.0
 10
40.213026
 20
91.077574
 30
0.0
  0
SPLINE
  5
146
100
AcDbEntity
  8
Layer_1
 62
7
100
AcDbSpline
 70
8
 71
3
 72
8
 73
4
 74
0
 40
0
 40
0
 40
0
 40
0
 40
1
 40
1
 40
1
 40
1
 10
40.213026
 20
91.077574
 30
0.0
 10
40.213026
 20
90.794099
 30
0.0
 10
40.442842
 20
90.564283
 30
0.0
 10
40.726318
 20
90.564283
 30
0.0
  0
SPLINE
  5
147
100
AcDbEntity
  8
Layer_1
 62
7
100
AcDbSpline
 70
8
 71
3
 72
8
 73
4
 74
0
 40
0
 40
0
 40
0
 40
0
 40
1
 40
1
 40
1
 40
1
 10
40.726318
 20
90.564283
 30
0.0
 10
41.009793
 20
90.564283
 30
0.0
 10
41.239609
 20
90.794099
 30
0.0
 10
41.239609
 20
91.077574
 30
0.0
  0
LINE
  5
148
100
AcDbEntity
  8
Layer_1
 62
7
100
AcDbLine
 10
74.216486
 20
280.688091
 30
0.0
 11
74.216486
 21
49.537508
 31
0.0
  0
LINE
  5
149
100
AcDbEntity
  8
Layer_1
 62
7
100
AcDbLine
 10
74.216486
 20
49.537508
 30
0.0
 11
95.933486
 21
49.537508
 31
0.0
  0
LINE
  5
14a
100
AcDbEntity
  8
Layer_1
 62
7
100
AcDbLine
 10
95.933486
 20
49.537508
 30
0.0
 11
95.933486
 21
280.688091
 31
0.0
  0
LINE
  5
14b
100
AcDbEntity
  8
Layer_1
 62
7
100
AcDbLine
 10
95.933486
 20
280.688091
 30
0.0
 11
74.216486
 21
280.688091
 31
0.0
  0
LINE
  5
14c
100
AcDbEntity
  8
Layer_1
 62
7
100
AcDbLine
 10
28.933817
 20
138.451659
 30
0.0
 11
28.944401
 21
138.441076
 31
0.0
  0
LINE
  5
14d
100
AcDbEntity
  8
Layer_1
 62
7
100
AcDbLine
 10
28.944401
 20
138.441076
 30
0.0
 11
28.954984
 21
138.430492
 31
0.0
  0
LINE
  5
14e
100
AcDbEntity
  8
Layer_1
 62
7
100
AcDbLine
 10
28.954984
 20
138.430492
 30
0.0
 11
28.976151
 21
138.419909
 31
0.0
  0
LINE
  5
14f
100
AcDbEntity
  8
Layer_1
 62
7
100
AcDbLine
 10
28.976151
 20
138.419909
 30
0.0
 11
28.986734
 21
138.398742
 31
0.0
  0
LINE
  5
150
100
AcDbEntity
  8
Layer_1
 62
7
100
AcDbLine
 10
28.986734
 20
138.398742
 30
0.0
 11
28.997317
 21
138.366992
 31
0.0
  0
LINE
  5
151
100
AcDbEntity
  8
Layer_1
 62
7
100
AcDbLine
 10
28.997317
 20
138.366992
 30
0.0
 11
29.007901
 21
138.345826
 31
0.0
  0
LINE
  5
152
100
AcDbEntity
  8
Layer_1
 62
7
100
AcDbLine
 10
29.007901
 20
138.345826
 30
0.0
 11
29.018484
 21
138.314076
 31
0.0
  0
LINE
  5
153
100
AcDbEntity
  8
Layer_1
 62
7
100
AcDbLine
 10
29.018484
 20
138.314076
 30
0.0
 11
29.029067
 21
138.271742
 31
0.0
  0
LINE
  5
154
100
AcDbEntity
  8
Layer_1
 62
7
100
AcDbLine
 10
29.029067
 20
138.271742
 30
0.0
 11
29.039651
 21
138.229409
 31
0.0
  0
LINE
  5
155
100
AcDbEntity
  8
Layer_1
 62
7
100
AcDbLine
 10
29.039651
 20
138.229409
 30
0.0
 11
29.050234
 21
138.187076
 31
0.0
  0
LINE
  5
156
100
AcDbEntity
  8
Layer_1
 62
7
100
AcDbLine
 10
29.050234
 20
138.187076
 30
0.0
 11
29.060817
 21
138.144742
 31
0.0
  0
LINE
  5
157
100
AcDbEntity
  8
Layer_1
 62
7
100
AcDbLine
 10
29.060817
 20
138.144742
 30
0.0
 11
29.071401
 21
138.091826
 31
0.0
  0
LINE
  5
158
100
AcDbEntity
  8
Layer_1
 62
7
100
AcDbLine
 10
29.071401
 20
138.091826
 30
0.0
 11
29.071401
 21
138.038909
 31
0.0
  0
LINE
  5
159
100
AcDbEntity
  8
Layer_1
 62
7
100
AcDbLine
 10
29.071401
 20
138.038909
 30
0.0
 11
29.081984
 21
137.985992
 31
0.0
  0
LINE
  5
15a
100
AcDbEntity
  8
Layer_1
 62
7
100
AcDbLine
 10
29.081984
 20
137.985992
 30
0.0
 11
29.081984
 21
137.922492
 31
0.0
  0
LINE
  5
15b
100
AcDbEntity
  8
Layer_1
 62
7
100
AcDbLine
 10
29.081984
 20
137.922492
 30
0.0
 11
29.081984
 21
137.869576
 31
0.0
  0
LINE
  5
15c
100
AcDbEntity
  8
Layer_1
 62
7
100
AcDbLine
 10
29.081984
 20
137.869576
 30
0.0
 11
29.092567
 21
137.806076
 31
0.0
  0
LINE
  5
15d
100
AcDbEntity
  8
Layer_1
 62
7
100
AcDbLine
 10
29.092567
 20
137.806076
 30
0.0
 11
29.081984
 21
137.679076
 31
0.0
  0
LINE
  5
15e
100
AcDbEntity
  8
Layer_1
 62
7
100
AcDbLine
 10
29.081984
 20
137.679076
 30
0.0
 11
29.081984
 21
137.626159
 31
0.0
  0
LINE
  5
15f
100
AcDbEntity
  8
Layer_1
 62
7
100
AcDbLine
 10
29.081984
 20
137.626159
 30
0.0
 11
29.081984
 21
137.562659
 31
0.0
  0
LINE
  5
160
100
AcDbEntity
  8
Layer_1
 62
7
100
AcDbLine
 10
29.081984
 20
137.562659
 30
0.0
 11
29.081984
 21
137.509742
 31
0.0
  0
LINE
  5
161
100
AcDbEntity
  8
Layer_1
 62
7
100
AcDbLine
 10
29.081984
 20
137.509742
 30
0.0
 11
29.071401
 21
137.456826
 31
0.0
  0
LINE
  5
162
100
AcDbEntity
  8
Layer_1
 62
7
100
AcDbLine
 10
29.071401
 20
137.456826
 30
0.0
 11
29.060817
 21
137.403909
 31
0.0
  0
LINE
  5
163
100
AcDbEntity
  8
Layer_1
 62
7
100
AcDbLine
 10
29.060817
 20
137.403909
 30
0.0
 11
29.060817
 21
137.350992
 31
0.0
  0
LINE
  5
164
100
AcDbEntity
  8
Layer_1
 62
7
100
AcDbLine
 10
29.060817
 20
137.350992
 30
0.0
 11
29.050234
 21
137.308659
 31
0.0
  0
LINE
  5
165
100
AcDbEntity
  8
Layer_1
 62
7
100
AcDbLine
 10
29.050234
 20
137.308659
 30
0.0
 11
29.039651
 21
137.266326
 31
0.0
  0
LINE
  5
166
100
AcDbEntity
  8
Layer_1
 62
7
100
AcDbLine
 10
29.039651
 20
137.266326
 30
0.0
 11
29.029067
 21
137.223992
 31
0.0
  0
LINE
  5
167
100
AcDbEntity
  8
Layer_1
 62
7
100
AcDbLine
 10
29.029067
 20
137.223992
 30
0.0
 11
29.018484
 21
137.181659
 31
0.0
  0
LINE
  5
168
100
AcDbEntity
  8
Layer_1
 62
7
100
AcDbLine
 10
29.018484
 20
137.181659
 30
0.0
 11
29.007901
 21
137.149909
 31
0.0
  0
LINE
  5
169
100
AcDbEntity
  8
Layer_1
 62
7
100
AcDbLine
 10
29.007901
 20
137.149909
 30
0.0
 11
28.997317
 21
137.128742
 31
0.0
  0
LINE
  5
16a
100
AcDbEntity
  8
Layer_1
 62
7
100
AcDbLine
 10
28.997317
 20
137.128742
 30
0.0
 11
28.976151
 21
137.107576
 31
0.0
  0
LINE
  5
16b
100
AcDbEntity
  8
Layer_1
 62
7
100
AcDbLine
 10
28.976151
 20
137.107576
 30
0.0
 11
28.965567
 21
137.086409
 31
0.0
  0
LINE
  5
16c
100
AcDbEntity
  8
Layer_1
 62
7
100
AcDbLine
 10
28.965567
 20
137.086409
 30
0.0
 11
28.954984
 21
137.075826
 31
0.0
  0
LINE
  5
16d
100
AcDbEntity
  8
Layer_1
 62
7
100
AcDbLine
 10
28.954984
 20
137.075826
 30
0.0
 11
28.944401
 21
137.065242
 31
0.0
  0
LINE
  5
16e
100
AcDbEntity
  8
Layer_1
 62
7
100
AcDbLine
 10
28.944401
 20
137.065242
 30
0.0
 11
28.923234
 21
137.054659
 31
0.0
  0
LINE
  5
16f
100
AcDbEntity
  8
Layer_1
 62
7
100
AcDbLine
 10
28.923234
 20
137.054659
 30
0.0
 11
28.923234
 21
134.906242
 31
0.0
  0
SPLINE
  5
170
100
AcDbEntity
  8
Layer_1
 62
7
100
AcDbSpline
 70
8
 71
3
 72
8
 73
4
 74
0
 40
0
 40
0
 40
0
 40
0
 40
1
 40
1
 40
1
 40
1
 10
28.293526
 20
134.271242
 30
0.0
 10
28.647147
 20
134.271242
 30
0.0
 10
28.933817
 20
134.557901
 30
0.0
 10
28.933817
 20
134.911534
 30
0.0
  0
LINE
  5
171
100
AcDbEntity
  8
Layer_1
 62
7
100
AcDbLine
 10
28.288234
 20
134.271242
 30
0.0
 11
23.208234
 21
134.271242
 31
0.0
  0
SPLINE
  5
172
100
AcDbEntity
  8
Layer_1
 62
7
100
AcDbSpline
 70
8
 71
3
 72
8
 73
4
 74
0
 40
0
 40
0
 40
0
 40
0
 40
1
 40
1
 40
1
 40
1
 10
22.573234
 20
134.911534
 30
0.0
 10
22.573234
 20
134.557901
 30
0.0
 10
22.859904
 20
134.271242
 30
0.0
 10
23.213526
 20
134.271242
 30
0.0
  0
LINE
  5
173
100
AcDbEntity
  8
Layer_1
 62
7
100
AcDbLine
 10
22.573234
 20
134.906242
 30
0.0
 11
22.573234
 21
137.054659
 31
0.0
  0
LINE
  5
174
100
AcDbEntity
  8
Layer_1
 62
7
100
AcDbLine
 10
22.573234
 20
137.054659
 30
0.0
 11
22.562651
 21
137.054659
 31
0.0
  0
LINE
  5
175
100
AcDbEntity
  8
Layer_1
 62
7
100
AcDbLine
 10
22.562651
 20
137.054659
 30
0.0
 11
22.552067
 21
137.065242
 31
0.0
  0
LINE
  5
176
100
AcDbEntity
  8
Layer_1
 62
7
100
AcDbLine
 10
22.552067
 20
137.065242
 30
0.0
 11
22.541484
 21
137.075826
 31
0.0
  0
LINE
  5
177
100
AcDbEntity
  8
Layer_1
 62
7
100
AcDbLine
 10
22.541484
 20
137.075826
 30
0.0
 11
22.520317
 21
137.086409
 31
0.0
  0
LINE
  5
178
100
AcDbEntity
  8
Layer_1
 62
7
100
AcDbLine
 10
22.520317
 20
137.086409
 30
0.0
 11
22.509734
 21
137.107576
 31
0.0
  0
LINE
  5
179
100
AcDbEntity
  8
Layer_1
 62
7
100
AcDbLine
 10
22.509734
 20
137.107576
 30
0.0
 11
22.499151
 21
137.139326
 31
0.0
  0
LINE
  5
17a
100
AcDbEntity
  8
Layer_1
 62
7
100
AcDbLine
 10
22.499151
 20
137.139326
 30
0.0
 11
22.488567
 21
137.160492
 31
0.0
  0
LINE
  5
17b
100
AcDbEntity
  8
Layer_1
 62
7
100
AcDbLine
 10
22.488567
 20
137.160492
 30
0.0
 11
22.477984
 21
137.192242
 31
0.0
  0
LINE
  5
17c
100
AcDbEntity
  8
Layer_1
 62
7
100
AcDbLine
 10
22.477984
 20
137.192242
 30
0.0
 11
22.467401
 21
137.234576
 31
0.0
  0
LINE
  5
17d
100
AcDbEntity
  8
Layer_1
 62
7
100
AcDbLine
 10
22.467401
 20
137.234576
 30
0.0
 11
22.456817
 21
137.276909
 31
0.0
  0
LINE
  5
17e
100
AcDbEntity
  8
Layer_1
 62
7
100
AcDbLine
 10
22.456817
 20
137.276909
 30
0.0
 11
22.446234
 21
137.319242
 31
0.0
  0
LINE
  5
17f
100
AcDbEntity
  8
Layer_1
 62
7
100
AcDbLine
 10
22.446234
 20
137.319242
 30
0.0
 11
22.435651
 21
137.361576
 31
0.0
  0
LINE
  5
180
100
AcDbEntity
  8
Layer_1
 62
7
100
AcDbLine
 10
22.435651
 20
137.361576
 30
0.0
 11
22.425067
 21
137.414492
 31
0.0
  0
LINE
  5
181
100
AcDbEntity
  8
Layer_1
 62
7
100
AcDbLine
 10
22.425067
 20
137.414492
 30
0.0
 11
22.425067
 21
137.467409
 31
0.0
  0
LINE
  5
182
100
AcDbEntity
  8
Layer_1
 62
7
100
AcDbLine
 10
22.425067
 20
137.467409
 30
0.0
 11
22.414484
 21
137.520326
 31
0.0
  0
LINE
  5
183
100
AcDbEntity
  8
Layer_1
 62
7
100
AcDbLine
 10
22.414484
 20
137.520326
 30
0.0
 11
22.414484
 21
137.583826
 31
0.0
  0
LINE
  5
184
100
AcDbEntity
  8
Layer_1
 62
7
100
AcDbLine
 10
22.414484
 20
137.583826
 30
0.0
 11
22.414484
 21
137.636742
 31
0.0
  0
LINE
  5
185
100
AcDbEntity
  8
Layer_1
 62
7
100
AcDbLine
 10
22.414484
 20
137.636742
 30
0.0
 11
22.403901
 21
137.700242
 31
0.0
  0
LINE
  5
186
100
AcDbEntity
  8
Layer_1
 62
7
100
AcDbLine
 10
22.403901
 20
137.700242
 30
0.0
 11
22.403901
 21
137.827242
 31
0.0
  0
LINE
  5
187
100
AcDbEntity
  8
Layer_1
 62
7
100
AcDbLine
 10
22.403901
 20
137.827242
 30
0.0
 11
22.414484
 21
137.880159
 31
0.0
  0
LINE
  5
188
100
AcDbEntity
  8
Layer_1
 62
7
100
AcDbLine
 10
22.414484
 20
137.880159
 30
0.0
 11
22.414484
 21
137.943659
 31
0.0
  0
LINE
  5
189
100
AcDbEntity
  8
Layer_1
 62
7
100
AcDbLine
 10
22.414484
 20
137.943659
 30
0.0
 11
22.414484
 21
137.996576
 31
0.0
  0
LINE
  5
18a
100
AcDbEntity
  8
Layer_1
 62
7
100
AcDbLine
 10
22.414484
 20
137.996576
 30
0.0
 11
22.425067
 21
138.049492
 31
0.0
  0
LINE
  5
18b
100
AcDbEntity
  8
Layer_1
 62
7
100
AcDbLine
 10
22.425067
 20
138.049492
 30
0.0
 11
22.425067
 21
138.102409
 31
0.0
  0
LINE
  5
18c
100
AcDbEntity
  8
Layer_1
 62
7
100
AcDbLine
 10
22.425067
 20
138.102409
 30
0.0
 11
22.435651
 21
138.155326
 31
0.0
  0
LINE
  5
18d
100
AcDbEntity
  8
Layer_1
 62
7
100
AcDbLine
 10
22.435651
 20
138.155326
 30
0.0
 11
22.446234
 21
138.197659
 31
0.0
  0
LINE
  5
18e
100
AcDbEntity
  8
Layer_1
 62
7
100
AcDbLine
 10
22.446234
 20
138.197659
 30
0.0
 11
22.456817
 21
138.239992
 31
0.0
  0
LINE
  5
18f
100
AcDbEntity
  8
Layer_1
 62
7
100
AcDbLine
 10
22.456817
 20
138.239992
 30
0.0
 11
22.467401
 21
138.282326
 31
0.0
  0
LINE
  5
190
100
AcDbEntity
  8
Layer_1
 62
7
100
AcDbLine
 10
22.467401
 20
138.282326
 30
0.0
 11
22.477984
 21
138.324659
 31
0.0
  0
LINE
  5
191
100
AcDbEntity
  8
Layer_1
 62
7
100
AcDbLine
 10
22.477984
 20
138.324659
 30
0.0
 11
22.488567
 21
138.356409
 31
0.0
  0
LINE
  5
192
100
AcDbEntity
  8
Layer_1
 62
7
100
AcDbLine
 10
22.488567
 20
138.356409
 30
0.0
 11
22.499151
 21
138.377576
 31
0.0
  0
LINE
  5
193
100
AcDbEntity
  8
Layer_1
 62
7
100
AcDbLine
 10
22.499151
 20
138.377576
 30
0.0
 11
22.509734
 21
138.398742
 31
0.0
  0
LINE
  5
194
100
AcDbEntity
  8
Layer_1
 62
7
100
AcDbLine
 10
22.509734
 20
138.398742
 30
0.0
 11
22.530901
 21
138.419909
 31
0.0
  0
LINE
  5
195
100
AcDbEntity
  8
Layer_1
 62
7
100
AcDbLine
 10
22.530901
 20
138.419909
 30
0.0
 11
22.541484
 21
138.430492
 31
0.0
  0
LINE
  5
196
100
AcDbEntity
  8
Layer_1
 62
7
100
AcDbLine
 10
22.541484
 20
138.430492
 30
0.0
 11
22.552067
 21
138.441076
 31
0.0
  0
LINE
  5
197
100
AcDbEntity
  8
Layer_1
 62
7
100
AcDbLine
 10
22.552067
 20
138.441076
 30
0.0
 11
22.573234
 21
138.451659
 31
0.0
  0
LINE
  5
198
100
AcDbEntity
  8
Layer_1
 62
7
100
AcDbLine
 10
22.573234
 20
138.451659
 30
0.0
 11
22.573234
 21
140.949326
 31
0.0
  0
LINE
  5
199
100
AcDbEntity
  8
Layer_1
 62
7
100
AcDbLine
 10
22.573234
 20
140.949326
 30
0.0
 11
19.398234
 21
140.949326
 31
0.0
  0
LINE
  5
19a
100
AcDbEntity
  8
Layer_1
 62
7
100
AcDbLine
 10
19.398234
 20
140.949326
 30
0.0
 11
19.398234
 21
144.505326
 31
0.0
  0
SPLINE
  5
19b
100
AcDbEntity
  8
Layer_1
 62
7
100
AcDbSpline
 70
8
 71
3
 72
8
 73
4
 74
0
 40
0
 40
0
 40
0
 40
0
 40
1
 40
1
 40
1
 40
1
 10
24.483526
 20
149.595909
 30
0.0
 10
21.674994
 20
149.595909
 30
0.0
 10
19.398234
 20
147.319149
 30
0.0
 10
19.398234
 20
144.510617
 30
0.0
  0
LINE
  5
19c
100
AcDbEntity
  8
Layer_1
 62
7
100
AcDbLine
 10
24.478234
 20
149.585326
 30
0.0
 11
27.018234
 21
149.585326
 31
0.0
  0
SPLINE
  5
19d
100
AcDbEntity
  8
Layer_1
 62
7
100
AcDbSpline
 70
8
 71
3
 72
8
 73
4
 74
0
 40
0
 40
0
 40
0
 40
0
 40
1
 40
1
 40
1
 40
1
 10
32.108817
 20
144.510617
 30
0.0
 10
32.108817
 20
147.319149
 30
0.0
 10
29.832057
 20
149.595909
 30
0.0
 10
27.023526
 20
149.595909
 30
0.0
  0
LINE
  5
19e
100
AcDbEntity
  8
Layer_1
 62
7
100
AcDbLine
 10
32.098234
 20
144.505326
 30
0.0
 11
32.098234
 21
140.949326
 31
0.0
  0
LINE
  5
19f
100
AcDbEntity
  8
Layer_1
 62
7
100
AcDbLine
 10
32.098234
 20
140.949326
 30
0.0
 11
28.923234
 21
140.949326
 31
0.0
  0
LINE
  5
1a0
100
AcDbEntity
  8
Layer_1
 62
7
100
AcDbLine
 10
28.923234
 20
140.949326
 30
0.0
 11
28.923234
 21
138.451659
 31
0.0
  0
LINE
  5
1a1
100
AcDbEntity
  8
Layer_1
 62
7
100
AcDbLine
 10
28.923234
 20
138.451659
 30
0.0
 11
28.933817
 21
138.451659
 31
0.0
  0
LINE
  5
1a2
100
AcDbEntity
  8
Layer_1
 62
2
100
AcDbLine
 10
39.057532
 20
184.551652
 30
0.0
 11
39.046949
 21
184.541068
 31
0.0
  0
LINE
  5
1a3
100
AcDbEntity
  8
Layer_1
 62
7
100
AcDbLine
 10
26.346949
 20
178.222818
 30
0.0
 11
26.346949
 21
184.551652
 31
0.0
  0
LINE
  5
1a4
100
AcDbEntity
  8
Layer_1
 62
7
100
AcDbLine
 10
26.346949
 20
184.551652
 30
0.0
 11
19.996949
 21
184.551652
 31
0.0
  0
LINE
  5
1a5
100
AcDbEntity
  8
Layer_1
 62
7
100
AcDbLine
 10
19.996949
 20
184.551652
 30
0.0
 11
19.996949
 21
193.187652
 31
0.0
  0
LINE
  5
1a6
100
AcDbEntity
  8
Layer_1
 62
7
100
AcDbLine
 10
19.996949
 20
193.187652
 30
0.0
 11
45.396949
 21
193.187652
 31
0.0
  0
LINE
  5
1a7
100
AcDbEntity
  8
Layer_1
 62
7
100
AcDbLine
 10
45.396949
 20
193.187652
 30
0.0
 11
45.396949
 21
184.551652
 31
0.0
  0
LINE
  5
1a8
100
AcDbEntity
  8
Layer_1
 62
7
100
AcDbLine
 10
45.396949
 20
184.551652
 30
0.0
 11
39.046949
 21
184.551652
 31
0.0
  0
LINE
  5
1a9
100
AcDbEntity
  8
Layer_1
 62
7
100
AcDbLine
 10
39.046949
 20
184.551652
 30
0.0
 11
39.046949
 21
178.222818
 31
0.0
  0
SPLINE
  5
1aa
100
AcDbEntity
  8
Layer_1
 62
7
100
AcDbSpline
 70
8
 71
3
 72
8
 73
4
 74
0
 40
0
 40
0
 40
0
 40
0
 40
1
 40
1
 40
1
 40
1
 10
35.877240
 20
175.047818
 30
0.0
 10
37.633662
 20
175.047818
 30
0.0
 10
39.057532
 20
176.471689
 30
0.0
 10
39.057532
 20
178.228110
 30
0.0
  0
LINE
  5
1ab
100
AcDbEntity
  8
Layer_1
 62
7
100
AcDbLine
 10
35.871949
 20
175.047818
 30
0.0
 11
29.521949
 21
175.047818
 31
0.0
  0
SPLINE
  5
1ac
100
AcDbEntity
  8
Layer_1
 62
7
100
AcDbSpline
 70
8
 71
3
 72
8
 73
4
 74
0
 40
0
 40
0
 40
0
 40
0
 40
1
 40
1
 40
1
 40
1
 10
26.346949
 20
178.228110
 30
0.0
 10
26.346949
 20
176.471689
 30
0.0
 10
27.770819
 20
175.047818
 30
0.0
 10
29.527240
 20
175.047818
 30
0.0
  0
LINE
  5
1ad
100
AcDbEntity
  8
Layer_1
 62
7
100
AcDbLine
 10
29.521949
 20
177.873568
 30
0.0
 11
35.871949
 21
177.873568
 31
0.0
  0
LINE
  5
1ae
100
AcDbEntity
  8
Layer_1
 62
7
100
AcDbLine
 10
35.871949
 20
177.873568
 30
0.0
 11
35.871949
 21
180.233652
 31
0.0
  0
LINE
  5
1af
100
AcDbEntity
  8
Layer_1
 62
7
100
AcDbLine
 10
35.871949
 20
180.233652
 30
0.0
 11
29.521949
 21
180.233652
 31
0.0
  0
LINE
  5
1b0
100
AcDbEntity
  8
Layer_1
 62
7
100
AcDbLine
 10
29.521949
 20
180.233652
 30
0.0
 11
29.521949
 21
177.873568
 31
0.0
  0
LINE
  5
1b1
100
AcDbEntity
  8
Layer_1
 62
7
100
AcDbLine
 10
45.558724
 20
138.451659
 30
0.0
 11
45.569307
 21
138.441076
 31
0.0
  0
LINE
  5
1b2
100
AcDbEntity
  8
Layer_1
 62
7
100
AcDbLine
 10
45.569307
 20
138.441076
 30
0.0
 11
45.590474
 21
138.430492
 31
0.0
  0
LINE
  5
1b3
100
AcDbEntity
  8
Layer_1
 62
7
100
AcDbLine
 10
45.590474
 20
138.430492
 30
0.0
 11
45.601057
 21
138.419909
 31
0.0
  0
LINE
  5
1b4
100
AcDbEntity
  8
Layer_1
 62
7
100
AcDbLine
 10
45.601057
 20
138.419909
 30
0.0
 11
45.611641
 21
138.398742
 31
0.0
  0
LINE
  5
1b5
100
AcDbEntity
  8
Layer_1
 62
7
100
AcDbLine
 10
45.611641
 20
138.398742
 30
0.0
 11
45.622224
 21
138.366992
 31
0.0
  0
LINE
  5
1b6
100
AcDbEntity
  8
Layer_1
 62
7
100
AcDbLine
 10
45.622224
 20
138.366992
 30
0.0
 11
45.632807
 21
138.345826
 31
0.0
  0
LINE
  5
1b7
100
AcDbEntity
  8
Layer_1
 62
7
100
AcDbLine
 10
45.632807
 20
138.345826
 30
0.0
 11
45.653974
 21
138.314076
 31
0.0
  0
LINE
  5
1b8
100
AcDbEntity
  8
Layer_1
 62
7
100
AcDbLine
 10
45.653974
 20
138.314076
 30
0.0
 11
45.664557
 21
138.271742
 31
0.0
  0
LINE
  5
1b9
100
AcDbEntity
  8
Layer_1
 62
7
100
AcDbLine
 10
45.664557
 20
138.271742
 30
0.0
 11
45.664557
 21
138.229409
 31
0.0
  0
LINE
  5
1ba
100
AcDbEntity
  8
Layer_1
 62
7
100
AcDbLine
 10
45.664557
 20
138.229409
 30
0.0
 11
45.675141
 21
138.187076
 31
0.0
  0
LINE
  5
1bb
100
AcDbEntity
  8
Layer_1
 62
7
100
AcDbLine
 10
45.675141
 20
138.187076
 30
0.0
 11
45.685724
 21
138.144742
 31
0.0
  0
LINE
  5
1bc
100
AcDbEntity
  8
Layer_1
 62
7
100
AcDbLine
 10
45.685724
 20
138.144742
 30
0.0
 11
45.696307
 21
138.091826
 31
0.0
  0
LINE
  5
1bd
100
AcDbEntity
  8
Layer_1
 62
7
100
AcDbLine
 10
45.696307
 20
138.091826
 30
0.0
 11
45.696307
 21
138.038909
 31
0.0
  0
LINE
  5
1be
100
AcDbEntity
  8
Layer_1
 62
7
100
AcDbLine
 10
45.696307
 20
138.038909
 30
0.0
 11
45.706891
 21
137.985992
 31
0.0
  0
LINE
  5
1bf
100
AcDbEntity
  8
Layer_1
 62
7
100
AcDbLine
 10
45.706891
 20
137.985992
 30
0.0
 11
45.706891
 21
137.922492
 31
0.0
  0
LINE
  5
1c0
100
AcDbEntity
  8
Layer_1
 62
7
100
AcDbLine
 10
45.706891
 20
137.922492
 30
0.0
 11
45.717474
 21
137.869576
 31
0.0
  0
LINE
  5
1c1
100
AcDbEntity
  8
Layer_1
 62
7
100
AcDbLine
 10
45.717474
 20
137.869576
 30
0.0
 11
45.717474
 21
137.806076
 31
0.0
  0
LINE
  5
1c2
100
AcDbEntity
  8
Layer_1
 62
7
100
AcDbLine
 10
45.717474
 20
137.806076
 30
0.0
 11
45.717474
 21
137.679076
 31
0.0
  0
LINE
  5
1c3
100
AcDbEntity
  8
Layer_1
 62
7
100
AcDbLine
 10
45.717474
 20
137.679076
 30
0.0
 11
45.717474
 21
137.626159
 31
0.0
  0
LINE
  5
1c4
100
AcDbEntity
  8
Layer_1
 62
7
100
AcDbLine
 10
45.717474
 20
137.626159
 30
0.0
 11
45.706891
 21
137.562659
 31
0.0
  0
LINE
  5
1c5
100
AcDbEntity
  8
Layer_1
 62
7
100
AcDbLine
 10
45.706891
 20
137.562659
 30
0.0
 11
45.706891
 21
137.509742
 31
0.0
  0
LINE
  5
1c6
100
AcDbEntity
  8
Layer_1
 62
7
100
AcDbLine
 10
45.706891
 20
137.509742
 30
0.0
 11
45.696307
 21
137.456826
 31
0.0
  0
LINE
  5
1c7
100
AcDbEntity
  8
Layer_1
 62
7
100
AcDbLine
 10
45.696307
 20
137.456826
 30
0.0
 11
45.696307
 21
137.403909
 31
0.0
  0
LINE
  5
1c8
100
AcDbEntity
  8
Layer_1
 62
7
100
AcDbLine
 10
45.696307
 20
137.403909
 30
0.0
 11
45.685724
 21
137.350992
 31
0.0
  0
LINE
  5
1c9
100
AcDbEntity
  8
Layer_1
 62
7
100
AcDbLine
 10
45.685724
 20
137.350992
 30
0.0
 11
45.675141
 21
137.308659
 31
0.0
  0
LINE
  5
1ca
100
AcDbEntity
  8
Layer_1
 62
7
100
AcDbLine
 10
45.675141
 20
137.308659
 30
0.0
 11
45.664557
 21
137.266326
 31
0.0
  0
LINE
  5
1cb
100
AcDbEntity
  8
Layer_1
 62
7
100
AcDbLine
 10
45.664557
 20
137.266326
 30
0.0
 11
45.653974
 21
137.223992
 31
0.0
  0
LINE
  5
1cc
100
AcDbEntity
  8
Layer_1
 62
7
100
AcDbLine
 10
45.653974
 20
137.223992
 30
0.0
 11
45.643391
 21
137.181659
 31
0.0
  0
LINE
  5
1cd
100
AcDbEntity
  8
Layer_1
 62
7
100
AcDbLine
 10
45.643391
 20
137.181659
 30
0.0
 11
45.632807
 21
137.149909
 31
0.0
  0
LINE
  5
1ce
100
AcDbEntity
  8
Layer_1
 62
7
100
AcDbLine
 10
45.632807
 20
137.149909
 30
0.0
 11
45.622224
 21
137.128742
 31
0.0
  0
LINE
  5
1cf
100
AcDbEntity
  8
Layer_1
 62
7
100
AcDbLine
 10
45.622224
 20
137.128742
 30
0.0
 11
45.611641
 21
137.107576
 31
0.0
  0
LINE
  5
1d0
100
AcDbEntity
  8
Layer_1
 62
7
100
AcDbLine
 10
45.611641
 20
137.107576
 30
0.0
 11
45.590474
 21
137.086409
 31
0.0
  0
LINE
  5
1d1
100
AcDbEntity
  8
Layer_1
 62
7
100
AcDbLine
 10
45.590474
 20
137.086409
 30
0.0
 11
45.579891
 21
137.075826
 31
0.0
  0
LINE
  5
1d2
100
AcDbEntity
  8
Layer_1
 62
7
100
AcDbLine
 10
45.579891
 20
137.075826
 30
0.0
 11
45.569307
 21
137.065242
 31
0.0
  0
LINE
  5
1d3
100
AcDbEntity
  8
Layer_1
 62
7
100
AcDbLine
 10
45.569307
 20
137.065242
 30
0.0
 11
45.548141
 21
137.054659
 31
0.0
  0
LINE
  5
1d4
100
AcDbEntity
  8
Layer_1
 62
7
100
AcDbLine
 10
45.548141
 20
137.054659
 30
0.0
 11
45.548141
 21
134.906242
 31
0.0
  0
SPLINE
  5
1d5
100
AcDbEntity
  8
Layer_1
 62
7
100
AcDbSpline
 70
8
 71
3
 72
8
 73
4
 74
0
 40
0
 40
0
 40
0
 40
0
 40
1
 40
1
 40
1
 40
1
 10
44.918432
 20
134.271242
 30
0.0
 10
45.272063
 20
134.271242
 30
0.0
 10
45.558724
 20
134.557901
 30
0.0
 10
45.558724
 20
134.911534
 30
0.0
  0
LINE
  5
1d6
100
AcDbEntity
  8
Layer_1
 62
7
100
AcDbLine
 10
44.913141
 20
134.271242
 30
0.0
 11
39.833141
 21
134.271242
 31
0.0
  0
SPLINE
  5
1d7
100
AcDbEntity
  8
Layer_1
 62
7
100
AcDbSpline
 70
8
 71
3
 72
8
 73
4
 74
0
 40
0
 40
0
 40
0
 40
0
 40
1
 40
1
 40
1
 40
1
 10
39.198141
 20
134.911534
 30
0.0
 10
39.198141
 20
134.557901
 30
0.0
 10
39.484800
 20
134.271242
 30
0.0
 10
39.838432
 20
134.271242
 30
0.0
  0
LINE
  5
1d8
100
AcDbEntity
  8
Layer_1
 62
7
100
AcDbLine
 10
39.198141
 20
134.906242
 30
0.0
 11
39.198141
 21
137.054659
 31
0.0
  0
LINE
  5
1d9
100
AcDbEntity
  8
Layer_1
 62
7
100
AcDbLine
 10
39.198141
 20
137.054659
 30
0.0
 11
39.176974
 21
137.065242
 31
0.0
  0
LINE
  5
1da
100
AcDbEntity
  8
Layer_1
 62
7
100
AcDbLine
 10
39.176974
 20
137.065242
 30
0.0
 11
39.166391
 21
137.075826
 31
0.0
  0
LINE
  5
1db
100
AcDbEntity
  8
Layer_1
 62
7
100
AcDbLine
 10
39.166391
 20
137.075826
 30
0.0
 11
39.155807
 21
137.086409
 31
0.0
  0
LINE
  5
1dc
100
AcDbEntity
  8
Layer_1
 62
7
100
AcDbLine
 10
39.155807
 20
137.086409
 30
0.0
 11
39.134641
 21
137.107576
 31
0.0
  0
LINE
  5
1dd
100
AcDbEntity
  8
Layer_1
 62
7
100
AcDbLine
 10
39.134641
 20
137.107576
 30
0.0
 11
39.124057
 21
137.139326
 31
0.0
  0
LINE
  5
1de
100
AcDbEntity
  8
Layer_1
 62
7
100
AcDbLine
 10
39.124057
 20
137.139326
 30
0.0
 11
39.113474
 21
137.160492
 31
0.0
  0
LINE
  5
1df
100
AcDbEntity
  8
Layer_1
 62
7
100
AcDbLine
 10
39.113474
 20
137.160492
 30
0.0
 11
39.102891
 21
137.192242
 31
0.0
  0
LINE
  5
1e0
100
AcDbEntity
  8
Layer_1
 62
7
100
AcDbLine
 10
39.102891
 20
137.192242
 30
0.0
 11
39.092307
 21
137.234576
 31
0.0
  0
LINE
  5
1e1
100
AcDbEntity
  8
Layer_1
 62
7
100
AcDbLine
 10
39.092307
 20
137.234576
 30
0.0
 11
39.081724
 21
137.276909
 31
0.0
  0
LINE
  5
1e2
100
AcDbEntity
  8
Layer_1
 62
7
100
AcDbLine
 10
39.081724
 20
137.276909
 30
0.0
 11
39.071141
 21
137.319242
 31
0.0
  0
LINE
  5
1e3
100
AcDbEntity
  8
Layer_1
 62
7
100
AcDbLine
 10
39.071141
 20
137.319242
 30
0.0
 11
39.060557
 21
137.361576
 31
0.0
  0
LINE
  5
1e4
100
AcDbEntity
  8
Layer_1
 62
7
100
AcDbLine
 10
39.060557
 20
137.361576
 30
0.0
 11
39.060557
 21
137.414492
 31
0.0
  0
LINE
  5
1e5
100
AcDbEntity
  8
Layer_1
 62
7
100
AcDbLine
 10
39.060557
 20
137.414492
 30
0.0
 11
39.049974
 21
137.467409
 31
0.0
  0
LINE
  5
1e6
100
AcDbEntity
  8
Layer_1
 62
7
100
AcDbLine
 10
39.049974
 20
137.467409
 30
0.0
 11
39.039391
 21
137.520326
 31
0.0
  0
LINE
  5
1e7
100
AcDbEntity
  8
Layer_1
 62
7
100
AcDbLine
 10
39.039391
 20
137.520326
 30
0.0
 11
39.039391
 21
137.583826
 31
0.0
  0
LINE
  5
1e8
100
AcDbEntity
  8
Layer_1
 62
7
100
AcDbLine
 10
39.039391
 20
137.583826
 30
0.0
 11
39.039391
 21
137.636742
 31
0.0
  0
LINE
  5
1e9
100
AcDbEntity
  8
Layer_1
 62
7
100
AcDbLine
 10
39.039391
 20
137.636742
 30
0.0
 11
39.039391
 21
137.700242
 31
0.0
  0
LINE
  5
1ea
100
AcDbEntity
  8
Layer_1
 62
7
100
AcDbLine
 10
39.039391
 20
137.700242
 30
0.0
 11
39.039391
 21
137.827242
 31
0.0
  0
LINE
  5
1eb
100
AcDbEntity
  8
Layer_1
 62
7
100
AcDbLine
 10
39.039391
 20
137.827242
 30
0.0
 11
39.039391
 21
137.880159
 31
0.0
  0
LINE
  5
1ec
100
AcDbEntity
  8
Layer_1
 62
7
100
AcDbLine
 10
39.039391
 20
137.880159
 30
0.0
 11
39.039391
 21
137.943659
 31
0.0
  0
LINE
  5
1ed
100
AcDbEntity
  8
Layer_1
 62
7
100
AcDbLine
 10
39.039391
 20
137.943659
 30
0.0
 11
39.049974
 21
137.996576
 31
0.0
  0
LINE
  5
1ee
100
AcDbEntity
  8
Layer_1
 62
7
100
AcDbLine
 10
39.049974
 20
137.996576
 30
0.0
 11
39.049974
 21
138.049492
 31
0.0
  0
LINE
  5
1ef
100
AcDbEntity
  8
Layer_1
 62
7
100
AcDbLine
 10
39.049974
 20
138.049492
 30
0.0
 11
39.060557
 21
138.102409
 31
0.0
  0
LINE
  5
1f0
100
AcDbEntity
  8
Layer_1
 62
7
100
AcDbLine
 10
39.060557
 20
138.102409
 30
0.0
 11
39.060557
 21
138.155326
 31
0.0
  0
LINE
  5
1f1
100
AcDbEntity
  8
Layer_1
 62
7
100
AcDbLine
 10
39.060557
 20
138.155326
 30
0.0
 11
39.071141
 21
138.197659
 31
0.0
  0
LINE
  5
1f2
100
AcDbEntity
  8
Layer_1
 62
7
100
AcDbLine
 10
39.071141
 20
138.197659
 30
0.0
 11
39.081724
 21
138.239992
 31
0.0
  0
LINE
  5
1f3
100
AcDbEntity
  8
Layer_1
 62
7
100
AcDbLine
 10
39.081724
 20
138.239992
 30
0.0
 11
39.092307
 21
138.282326
 31
0.0
  0
LINE
  5
1f4
100
AcDbEntity
  8
Layer_1
 62
7
100
AcDbLine
 10
39.092307
 20
138.282326
 30
0.0
 11
39.102891
 21
138.324659
 31
0.0
  0
LINE
  5
1f5
100
AcDbEntity
  8
Layer_1
 62
7
100
AcDbLine
 10
39.102891
 20
138.324659
 30
0.0
 11
39.113474
 21
138.356409
 31
0.0
  0
LINE
  5
1f6
100
AcDbEntity
  8
Layer_1
 62
7
100
AcDbLine
 10
39.113474
 20
138.356409
 30
0.0
 11
39.124057
 21
138.377576
 31
0.0
  0
LINE
  5
1f7
100
AcDbEntity
  8
Layer_1
 62
7
100
AcDbLine
 10
39.124057
 20
138.377576
 30
0.0
 11
39.145224
 21
138.398742
 31
0.0
  0
LINE
  5
1f8
100
AcDbEntity
  8
Layer_1
 62
7
100
AcDbLine
 10
39.145224
 20
138.398742
 30
0.0
 11
39.155807
 21
138.419909
 31
0.0
  0
LINE
  5
1f9
100
AcDbEntity
  8
Layer_1
 62
7
100
AcDbLine
 10
39.155807
 20
138.419909
 30
0.0
 11
39.166391
 21
138.430492
 31
0.0
  0
LINE
  5
1fa
100
AcDbEntity
  8
Layer_1
 62
7
100
AcDbLine
 10
39.166391
 20
138.430492
 30
0.0
 11
39.187557
 21
138.441076
 31
0.0
  0
LINE
  5
1fb
100
AcDbEntity
  8
Layer_1
 62
7
100
AcDbLine
 10
39.187557
 20
138.441076
 30
0.0
 11
39.198141
 21
138.451659
 31
0.0
  0
LINE
  5
1fc
100
AcDbEntity
  8
Layer_1
 62
7
100
AcDbLine
 10
39.198141
 20
138.451659
 30
0.0
 11
39.198141
 21
140.949326
 31
0.0
  0
LINE
  5
1fd
100
AcDbEntity
  8
Layer_1
 62
7
100
AcDbLine
 10
39.198141
 20
140.949326
 30
0.0
 11
36.023141
 21
140.949326
 31
0.0
  0
LINE
  5
1fe
100
AcDbEntity
  8
Layer_1
 62
7
100
AcDbLine
 10
36.023141
 20
140.949326
 30
0.0
 11
36.023141
 21
144.505326
 31
0.0
  0
SPLINE
  5
1ff
100
AcDbEntity
  8
Layer_1
 62
7
100
AcDbSpline
 70
8
 71
3
 72
8
 73
4
 74
0
 40
0
 40
0
 40
0
 40
0
 40
1
 40
1
 40
1
 40
1
 10
41.108432
 20
149.595909
 30
0.0
 10
38.299901
 20
149.595909
 30
0.0
 10
36.023141
 20
147.319149
 30
0.0
 10
36.023141
 20
144.510617
 30
0.0
  0
LINE
  5
200
100
AcDbEntity
  8
Layer_1
 62
7
100
AcDbLine
 10
41.103141
 20
149.585326
 30
0.0
 11
43.643141
 21
149.585326
 31
0.0
  0
SPLINE
  5
201
100
AcDbEntity
  8
Layer_1
 62
7
100
AcDbSpline
 70
8
 71
3
 72
8
 73
4
 74
0
 40
0
 40
0
 40
0
 40
0
 40
1
 40
1
 40
1
 40
1
 10
48.733724
 20
144.510617
 30
0.0
 10
48.733724
 20
147.319149
 30
0.0
 10
46.456964
 20
149.595909
 30
0.0
 10
43.648432
 20
149.595909
 30
0.0
  0
LINE
  5
202
100
AcDbEntity
  8
Layer_1
 62
7
100
AcDbLine
 10
48.723141
 20
144.505326
 30
0.0
 11
48.723141
 21
140.949326
 31
0.0
  0
LINE
  5
203
100
AcDbEntity
  8
Layer_1
 62
7
100
AcDbLine
 10
48.723141
 20
140.949326
 30
0.0
 11
45.548141
 21
140.949326
 31
0.0
  0
LINE
  5
204
100
AcDbEntity
  8
Layer_1
 62
7
100
AcDbLine
 10
45.548141
 20
140.949326
 30
0.0
 11
45.548141
 21
138.451659
 31
0.0
  0
LINE
  5
205
100
AcDbEntity
  8
Layer_1
 62
7
100
AcDbLine
 10
45.548141
 20
138.451659
 30
0.0
 11
45.558724
 21
138.451659
 31
0.0
  0
LINE
  5
206
100
AcDbEntity
  8
Layer_1
 62
2
100
AcDbLine
 10
39.365961
 20
163.183396
 30
0.0
 11
39.355378
 21
163.172813
 31
0.0
  0
LINE
  5
207
100
AcDbEntity
  8
Layer_1
 62
7
100
AcDbLine
 10
26.655378
 20
156.854563
 30
0.0
 11
26.655378
 21
163.183396
 31
0.0
  0
LINE
  5
208
100
AcDbEntity
  8
Layer_1
 62
7
100
AcDbLine
 10
26.655378
 20
163.183396
 30
0.0
 11
20.305378
 21
163.183396
 31
0.0
  0
LINE
  5
209
100
AcDbEntity
  8
Layer_1
 62
7
100
AcDbLine
 10
20.305378
 20
163.183396
 30
0.0
 11
20.305378
 21
171.819396
 31
0.0
  0
LINE
  5
20a
100
AcDbEntity
  8
Layer_1
 62
7
100
AcDbLine
 10
20.305378
 20
171.819396
 30
0.0
 11
45.705378
 21
171.819396
 31
0.0
  0
LINE
  5
20b
100
AcDbEntity
  8
Layer_1
 62
7
100
AcDbLine
 10
45.705378
 20
171.819396
 30
0.0
 11
45.705378
 21
163.183396
 31
0.0
  0
LINE
  5
20c
100
AcDbEntity
  8
Layer_1
 62
7
100
AcDbLine
 10
45.705378
 20
163.183396
 30
0.0
 11
39.355378
 21
163.183396
 31
0.0
  0
LINE
  5
20d
100
AcDbEntity
  8
Layer_1
 62
7
100
AcDbLine
 10
39.355378
 20
163.183396
 30
0.0
 11
39.355378
 21
156.854563
 31
0.0
  0
SPLINE
  5
20e
100
AcDbEntity
  8
Layer_1
 62
7
100
AcDbSpline
 70
8
 71
3
 72
8
 73
4
 74
0
 40
0
 40
0
 40
0
 40
0
 40
1
 40
1
 40
1
 40
1
 10
36.185670
 20
153.679563
 30
0.0
 10
37.942091
 20
153.679563
 30
0.0
 10
39.365961
 20
155.103433
 30
0.0
 10
39.365961
 20
156.859855
 30
0.0
  0
LINE
  5
20f
100
AcDbEntity
  8
Layer_1
 62
7
100
AcDbLine
 10
36.180378
 20
153.679563
 30
0.0
 11
29.830378
 21
153.679563
 31
0.0
  0
SPLINE
  5
210
100
AcDbEntity
  8
Layer_1
 62
7
100
AcDbSpline
 70
8
 71
3
 72
8
 73
4
 74
0
 40
0
 40
0
 40
0
 40
0
 40
1
 40
1
 40
1
 40
1
 10
26.655378
 20
156.859855
 30
0.0
 10
26.655378
 20
155.103433
 30
0.0
 10
28.079237
 20
153.679563
 30
0.0
 10
29.835670
 20
153.679563
 30
0.0
  0
LINE
  5
211
100
AcDbEntity
  8
Layer_1
 62
7
100
AcDbLine
 10
29.830378
 20
156.505313
 30
0.0
 11
36.180378
 21
156.505313
 31
0.0
  0
LINE
  5
212
100
AcDbEntity
  8
Layer_1
 62
7
100
AcDbLine
 10
36.180378
 20
156.505313
 30
0.0
 11
36.180378
 21
158.865396
 31
0.0
  0
LINE
  5
213
100
AcDbEntity
  8
Layer_1
 62
7
100
AcDbLine
 10
36.180378
 20
158.865396
 30
0.0
 11
29.830378
 21
158.865396
 31
0.0
  0
LINE
  5
214
100
AcDbEntity
  8
Layer_1
 62
7
100
AcDbLine
 10
29.830378
 20
158.865396
 30
0.0
 11
29.830378
 21
156.505313
 31
0.0
  0
LINE
  5
215
100
AcDbEntity
  8
Layer_1
 62
7
100
AcDbLine
 10
35.384108
 20
50.975874
 30
0.0
 11
41.384858
 21
50.975874
 31
0.0
  0
LINE
  5
216
100
AcDbEntity
  8
Layer_1
 62
7
100
AcDbLine
 10
41.384858
 20
50.975874
 30
0.0
 11
43.385108
 21
47.980790
 31
0.0
  0
LINE
  5
217
100
AcDbEntity
  8
Layer_1
 62
7
100
AcDbLine
 10
25.382857
 20
50.986457
 30
0.0
 11
27.383107
 21
47.980790
 31
0.0
  0
LINE
  5
218
100
AcDbEntity
  8
Layer_1
 62
7
100
AcDbLine
 10
27.383107
 20
47.980790
 30
0.0
 11
33.383858
 21
47.980790
 31
0.0
  0
LINE
  5
219
100
AcDbEntity
  8
Layer_1
 62
7
100
AcDbLine
 10
33.383858
 20
47.980790
 30
0.0
 11
35.384108
 21
50.975874
 31
0.0
  0
LINE
  5
21a
100
AcDbEntity
  8
Layer_1
 62
7
100
AcDbLine
 10
68.382941
 20
52.976124
 30
0.0
 11
51.386108
 21
52.976124
 31
0.0
  0
LINE
  5
21b
100
AcDbEntity
  8
Layer_1
 62
7
100
AcDbLine
 10
51.386108
 20
52.976124
 30
0.0
 11
51.386108
 21
50.975874
 31
0.0
  0
LINE
  5
21c
100
AcDbEntity
  8
Layer_1
 62
7
100
AcDbLine
 10
51.386108
 20
50.975874
 30
0.0
 11
49.385858
 21
47.980790
 31
0.0
  0
LINE
  5
21d
100
AcDbEntity
  8
Layer_1
 62
7
100
AcDbLine
 10
49.385858
 20
47.980790
 30
0.0
 11
43.385108
 21
47.980790
 31
0.0
  0
LINE
  5
21e
100
AcDbEntity
  8
Layer_1
 62
7
100
AcDbLine
 10
25.382857
 20
50.986457
 30
0.0
 11
25.382857
 21
52.976124
 31
0.0
  0
LINE
  5
21f
100
AcDbEntity
  8
Layer_1
 62
7
100
AcDbLine
 10
25.382857
 20
52.976124
 30
0.0
 11
21.287107
 21
52.976124
 31
0.0
  0
LINE
  5
220
100
AcDbEntity
  8
Layer_1
 62
7
100
AcDbLine
 10
15.381607
 20
59.495457
 30
0.0
 11
15.381607
 21
67.104874
 31
0.0
  0
LINE
  5
221
100
AcDbEntity
  8
Layer_1
 62
7
100
AcDbLine
 10
18.292024
 20
69.295624
 30
0.0
 11
67.112941
 21
55.145707
 31
0.0
  0
LINE
  5
222
100
AcDbEntity
  8
Layer_1
 62
7
100
AcDbLine
 10
67.112941
 20
55.145707
 30
0.0
 11
68.382941
 21
52.976124
 31
0.0
  0
SPLINE
  5
223
100
AcDbEntity
  8
Layer_1
 62
7
100
AcDbSpline
 70
8
 71
3
 72
8
 73
4
 74
0
 40
0
 40
0
 40
0
 40
0
 40
1
 40
1
 40
1
 40
1
 10
18.293965
 20
69.290640
 30
0.0
 10
17.608343
 20
69.489268
 30
0.0
 10
16.869237
 20
69.353832
 30
0.0
 10
16.298584
 20
68.925018
 30
0.0
  0
SPLINE
  5
224
100
AcDbEntity
  8
Layer_1
 62
7
100
AcDbSpline
 70
8
 71
3
 72
8
 73
4
 74
0
 40
0
 40
0
 40
0
 40
0
 40
1
 40
1
 40
1
 40
1
 10
16.298584
 20
68.925018
 30
0.0
 10
15.727922
 20
68.496212
 30
0.0
 10
15.392190
 20
67.823979
 30
0.0
 10
15.392190
 20
67.110165
 30
0.0
  0
SPLINE
  5
225
100
AcDbEntity
  8
Layer_1
 62
7
100
AcDbSpline
 70
8
 71
3
 72
8
 73
4
 74
0
 40
0
 40
0
 40
0
 40
0
 40
1
 40
1
 40
1
 40
1
 10
18.397857
 20
66.337582
 30
0.0
 10
18.397857
 20
66.533396
 30
0.0
 10
18.239127
 20
66.692124
 30
0.0
 10
18.043315
 20
66.692124
 30
0.0
  0
SPLINE
  5
226
100
AcDbEntity
  8
Layer_1
 62
7
100
AcDbSpline
 70
8
 71
3
 72
8
 73
4
 74
0
 40
0
 40
0
 40
0
 40
0
 40
1
 40
1
 40
1
 40
1
 10
18.043315
 20
66.692124
 30
0.0
 10
17.847504
 20
66.692124
 30
0.0
 10
17.688774
 20
66.533396
 30
0.0
 10
17.688774
 20
66.337582
 30
0.0
  0
SPLINE
  5
227
100
AcDbEntity
  8
Layer_1
 62
7
100
AcDbSpline
 70
8
 71
3
 72
8
 73
4
 74
0
 40
0
 40
0
 40
0
 40
0
 40
1
 40
1
 40
1
 40
1
 10
17.688774
 20
66.337582
 30
0.0
 10
17.688774
 20
66.141768
 30
0.0
 10
17.847504
 20
65.983040
 30
0.0
 10
18.043315
 20
65.983040
 30
0.0
  0
SPLINE
  5
228
100
AcDbEntity
  8
Layer_1
 62
7
100
AcDbSpline
 70
8
 71
3
 72
8
 73
4
 74
0
 40
0
 40
0
 40
0
 40
0
 40
1
 40
1
 40
1
 40
1
 10
18.043315
 20
65.983040
 30
0.0
 10
18.239127
 20
65.983040
 30
0.0
 10
18.397857
 20
66.141768
 30
0.0
 10
18.397857
 20
66.337582
 30
0.0
  0
SPLINE
  5
229
100
AcDbEntity
  8
Layer_1
 62
7
100
AcDbSpline
 70
8
 71
3
 72
8
 73
4
 74
0
 40
0
 40
0
 40
0
 40
0
 40
1
 40
1
 40
1
 40
1
 10
18.397857
 20
62.961499
 30
0.0
 10
18.397857
 20
63.157313
 30
0.0
 10
18.239127
 20
63.316040
 30
0.0
 10
18.043315
 20
63.316040
 30
0.0
  0
SPLINE
  5
22a
100
AcDbEntity
  8
Layer_1
 62
7
100
AcDbSpline
 70
8
 71
3
 72
8
 73
4
 74
0
 40
0
 40
0
 40
0
 40
0
 40
1
 40
1
 40
1
 40
1
 10
18.043315
 20
63.316040
 30
0.0
 10
17.847504
 20
63.316040
 30
0.0
 10
17.688774
 20
63.157313
 30
0.0
 10
17.688774
 20
62.961499
 30
0.0
  0
SPLINE
  5
22b
100
AcDbEntity
  8
Layer_1
 62
7
100
AcDbSpline
 70
8
 71
3
 72
8
 73
4
 74
0
 40
0
 40
0
 40
0
 40
0
 40
1
 40
1
 40
1
 40
1
 10
17.688774
 20
62.961499
 30
0.0
 10
17.688774
 20
62.765687
 30
0.0
 10
17.847504
 20
62.606957
 30
0.0
 10
18.043315
 20
62.606957
 30
0.0
  0
SPLINE
  5
22c
100
AcDbEntity
  8
Layer_1
 62
7
100
AcDbSpline
 70
8
 71
3
 72
8
 73
4
 74
0
 40
0
 40
0
 40
0
 40
0
 40
1
 40
1
 40
1
 40
1
 10
18.043315
 20
62.606957
 30
0.0
 10
18.239127
 20
62.606957
 30
0.0
 10
18.397857
 20
62.765687
 30
0.0
 10
18.397857
 20
62.961499
 30
0.0
  0
SPLINE
  5
22d
100
AcDbEntity
  8
Layer_1
 62
7
100
AcDbSpline
 70
8
 71
3
 72
8
 73
4
 74
0
 40
0
 40
0
 40
0
 40
0
 40
1
 40
1
 40
1
 40
1
 10
21.293587
 20
52.985903
 30
0.0
 10
21.072454
 20
55.129874
 30
0.0
 10
19.446329
 20
56.861963
 30
0.0
 10
17.320570
 20
57.217828
 30
0.0
  0
SPLINE
  5
22e
100
AcDbEntity
  8
Layer_1
 62
7
100
AcDbSpline
 70
8
 71
3
 72
8
 73
4
 74
0
 40
0
 40
0
 40
0
 40
0
 40
1
 40
1
 40
1
 40
1
 10
15.392190
 20
59.500749
 30
0.0
 10
15.392190
 20
58.370957
 30
0.0
 10
16.208563
 20
57.406550
 30
0.0
 10
17.322853
 20
57.220018
 30
0.0
  0
LINE
  5
22f
100
AcDbEntity
  8
Layer_1
 62
7
100
AcDbLine
 10
48.380441
 20
81.318290
 30
0.0
 11
42.379691
 21
81.318290
 31
0.0
  0
LINE
  5
230
100
AcDbEntity
  8
Layer_1
 62
7
100
AcDbLine
 10
42.379691
 20
81.318290
 30
0.0
 11
40.379441
 21
84.313374
 31
0.0
  0
LINE
  5
231
100
AcDbEntity
  8
Layer_1
 62
7
100
AcDbLine
 10
58.381691
 20
81.318290
 30
0.0
 11
56.381441
 21
84.313374
 31
0.0
  0
LINE
  5
232
100
AcDbEntity
  8
Layer_1
 62
7
100
AcDbLine
 10
56.381441
 20
84.313374
 30
0.0
 11
50.380691
 21
84.313374
 31
0.0
  0
LINE
  5
233
100
AcDbEntity
  8
Layer_1
 62
7
100
AcDbLine
 10
50.380691
 20
84.313374
 30
0.0
 11
48.380441
 21
81.318290
 31
0.0
  0
LINE
  5
234
100
AcDbEntity
  8
Layer_1
 62
7
100
AcDbLine
 10
15.381607
 20
79.318040
 30
0.0
 11
32.378441
 21
79.318040
 31
0.0
  0
LINE
  5
235
100
AcDbEntity
  8
Layer_1
 62
7
100
AcDbLine
 10
32.378441
 20
79.318040
 30
0.0
 11
32.378441
 21
81.318290
 31
0.0
  0
LINE
  5
236
100
AcDbEntity
  8
Layer_1
 62
7
100
AcDbLine
 10
32.378441
 20
81.318290
 30
0.0
 11
34.378691
 21
84.313374
 31
0.0
  0
LINE
  5
237
100
AcDbEntity
  8
Layer_1
 62
7
100
AcDbLine
 10
34.378691
 20
84.313374
 30
0.0
 11
40.379441
 21
84.313374
 31
0.0
  0
LINE
  5
238
100
AcDbEntity
  8
Layer_1
 62
7
100
AcDbLine
 10
58.381691
 20
81.318290
 30
0.0
 11
58.381691
 21
79.318040
 31
0.0
  0
LINE
  5
239
100
AcDbEntity
  8
Layer_1
 62
7
100
AcDbLine
 10
58.381691
 20
79.318040
 30
0.0
 11
62.477441
 21
79.318040
 31
0.0
  0
LINE
  5
23a
100
AcDbEntity
  8
Layer_1
 62
7
100
AcDbLine
 10
68.382941
 20
72.809290
 30
0.0
 11
68.382941
 21
65.189290
 31
0.0
  0
LINE
  5
23b
100
AcDbEntity
  8
Layer_1
 62
7
100
AcDbLine
 10
65.472524
 20
63.009124
 30
0.0
 11
16.651607
 21
77.148457
 31
0.0
  0
LINE
  5
23c
100
AcDbEntity
  8
Layer_1
 62
7
100
AcDbLine
 10
16.651607
 20
77.148457
 30
0.0
 11
15.381607
 21
79.318040
 31
0.0
  0
SPLINE
  5
23d
100
AcDbEntity
  8
Layer_1
 62
7
100
AcDbSpline
 70
8
 71
3
 72
8
 73
4
 74
0
 40
0
 40
0
 40
0
 40
0
 40
1
 40
1
 40
1
 40
1
 10
65.481160
 20
63.014108
 30
0.0
 10
66.166791
 20
62.815480
 30
0.0
 10
66.905900
 20
62.950915
 30
0.0
 10
67.476542
 20
63.379732
 30
0.0
  0
SPLINE
  5
23e
100
AcDbEntity
  8
Layer_1
 62
7
100
AcDbSpline
 70
8
 71
3
 72
8
 73
4
 74
0
 40
0
 40
0
 40
0
 40
0
 40
1
 40
1
 40
1
 40
1
 10
67.476542
 20
63.379732
 30
0.0
 10
68.047207
 20
63.808535
 30
0.0
 10
68.382941
 20
64.480769
 30
0.0
 10
68.382941
 20
65.194582
 30
0.0
  0
SPLINE
  5
23f
100
AcDbEntity
  8
Layer_1
 62
7
100
AcDbSpline
 70
8
 71
3
 72
8
 73
4
 74
0
 40
0
 40
0
 40
0
 40
0
 40
1
 40
1
 40
1
 40
1
 10
66.086358
 20
65.967165
 30
0.0
 10
66.086358
 20
66.162980
 30
0.0
 10
65.927628
 20
66.321707
 30
0.0
 10
65.731816
 20
66.321707
 30
0.0
  0
SPLINE
  5
240
100
AcDbEntity
  8
Layer_1
 62
7
100
AcDbSpline
 70
8
 71
3
 72
8
 73
4
 74
0
 40
0
 40
0
 40
0
 40
0
 40
1
 40
1
 40
1
 40
1
 10
65.731816
 20
66.321707
 30
0.0
 10
65.536002
 20
66.321707
 30
0.0
 10
65.377274
 20
66.162980
 30
0.0
 10
65.377274
 20
65.967165
 30
0.0
  0
SPLINE
  5
241
100
AcDbEntity
  8
Layer_1
 62
7
100
AcDbSpline
 70
8
 71
3
 72
8
 73
4
 74
0
 40
0
 40
0
 40
0
 40
0
 40
1
 40
1
 40
1
 40
1
 10
65.377274
 20
65.967165
 30
0.0
 10
65.377274
 20
65.771351
 30
0.0
 10
65.536002
 20
65.612624
 30
0.0
 10
65.731816
 20
65.612624
 30
0.0
  0
SPLINE
  5
242
100
AcDbEntity
  8
Layer_1
 62
7
100
AcDbSpline
 70
8
 71
3
 72
8
 73
4
 74
0
 40
0
 40
0
 40
0
 40
0
 40
1
 40
1
 40
1
 40
1
 10
65.731816
 20
65.612624
 30
0.0
 10
65.927628
 20
65.612624
 30
0.0
 10
66.086358
 20
65.771351
 30
0.0
 10
66.086358
 20
65.967165
 30
0.0
  0
SPLINE
  5
243
100
AcDbEntity
  8
Layer_1
 62
7
100
AcDbSpline
 70
8
 71
3
 72
8
 73
4
 74
0
 40
0
 40
0
 40
0
 40
0
 40
1
 40
1
 40
1
 40
1
 10
66.086358
 20
69.353832
 30
0.0
 10
66.086358
 20
69.549646
 30
0.0
 10
65.927628
 20
69.708374
 30
0.0
 10
65.731816
 20
69.708374
 30
0.0
  0
SPLINE
  5
244
100
AcDbEntity
  8
Layer_1
 62
7
100
AcDbSpline
 70
8
 71
3
 72
8
 73
4
 74
0
 40
0
 40
0
 40
0
 40
0
 40
1
 40
1
 40
1
 40
1
 10
65.731816
 20
69.708374
 30
0.0
 10
65.536002
 20
69.708374
 30
0.0
 10
65.377274
 20
69.549646
 30
0.0
 10
65.377274
 20
69.353832
 30
0.0
  0
SPLINE
  5
245
100
AcDbEntity
  8
Layer_1
 62
7
100
AcDbSpline
 70
8
 71
3
 72
8
 73
4
 74
0
 40
0
 40
0
 40
0
 40
0
 40
1
 40
1
 40
1
 40
1
 10
65.377274
 20
69.353832
 30
0.0
 10
65.377274
 20
69.158018
 30
0.0
 10
65.536002
 20
68.999290
 30
0.0
 10
65.731816
 20
68.999290
 30
0.0
  0
SPLINE
  5
246
100
AcDbEntity
  8
Layer_1
 62
7
100
AcDbSpline
 70
8
 71
3
 72
8
 73
4
 74
0
 40
0
 40
0
 40
0
 40
0
 40
1
 40
1
 40
1
 40
1
 10
65.731816
 20
68.999290
 30
0.0
 10
65.927628
 20
68.999290
 30
0.0
 10
66.086358
 20
69.158018
 30
0.0
 10
66.086358
 20
69.353832
 30
0.0
  0
SPLINE
  5
247
100
AcDbEntity
  8
Layer_1
 62
7
100
AcDbSpline
 70
8
 71
3
 72
8
 73
4
 74
0
 40
0
 40
0
 40
0
 40
0
 40
1
 40
1
 40
1
 40
1
 10
62.481547
 20
79.318845
 30
0.0
 10
62.702677
 20
77.174873
 30
0.0
 10
64.328805
 20
75.442785
 30
0.0
 10
66.454562
 20
75.086920
 30
0.0
  0
SPLINE
  5
248
100
AcDbEntity
  8
Layer_1
 62
7
100
AcDbSpline
 70
8
 71
3
 72
8
 73
4
 74
0
 40
0
 40
0
 40
0
 40
0
 40
1
 40
1
 40
1
 40
1
 10
68.382941
 20
72.814582
 30
0.0
 10
68.382941
 20
73.944374
 30
0.0
 10
67.566563
 20
74.908781
 30
0.0
 10
66.452276
 20
75.095313
 30
0.0
  0
SPLINE
  5
249
100
AcDbEntity
  8
Layer_1
 62
7
100
AcDbSpline
 70
8
 71
3
 72
8
 73
4
 74
0
 40
0
 40
0
 40
0
 40
0
 40
1
 40
1
 40
1
 40
1
 10
152.689470
 20
207.500159
 30
0.0
 10
152.689470
 20
208.204490
 30
0.0
 10
152.118506
 20
208.775451
 30
0.0
 10
151.414164
 20
208.775451
 30
0.0
  0
SPLINE
  5
24a
100
AcDbEntity
  8
Layer_1
 62
7
100
AcDbSpline
 70
8
 71
3
 72
8
 73
4
 74
0
 40
0
 40
0
 40
0
 40
0
 40
1
 40
1
 40
1
 40
1
 10
151.414164
 20
208.775451
 30
0.0
 10
150.709850
 20
208.775451
 30
0.0
 10
150.138886
 20
208.204490
 30
0.0
 10
150.138886
 20
207.500159
 30
0.0
  0
LINE
  5
24b
100
AcDbEntity
  8
Layer_1
 62
7
100
AcDbLine
 10
150.138886
 20
207.494868
 30
0.0
 11
150.138886
 21
193.514284
 31
0.0
  0
SPLINE
  5
24c
100
AcDbEntity
  8
Layer_1
 62
7
100
AcDbSpline
 70
8
 71
3
 72
8
 73
4
 74
0
 40
0
 40
0
 40
0
 40
0
 40
1
 40
1
 40
1
 40
1
 10
150.138886
 20
193.519576
 30
0.0
 10
150.138886
 20
192.815245
 30
0.0
 10
150.709850
 20
192.244284
 30
0.0
 10
151.414164
 20
192.244284
 30
0.0
  0
SPLINE
  5
24d
100
AcDbEntity
  8
Layer_1
 62
7
100
AcDbSpline
 70
8
 71
3
 72
8
 73
4
 74
0
 40
0
 40
0
 40
0
 40
0
 40
1
 40
1
 40
1
 40
1
 10
151.414164
 20
192.244284
 30
0.0
 10
152.118506
 20
192.244284
 30
0.0
 10
152.689470
 20
192.815245
 30
0.0
 10
152.689470
 20
193.519576
 30
0.0
  0
LINE
  5
24e
100
AcDbEntity
  8
Layer_1
 62
7
100
AcDbLine
 10
152.678886
 20
193.514284
 30
0.0
 11
152.678886
 21
207.494868
 31
0.0
  0
LINE
  5
24f
100
AcDbEntity
  8
Layer_1
 62
7
100
AcDbLine
 10
105.646553
 20
179.544284
 30
0.0
 11
202.473470
 21
179.544284
 31
0.0
  0
LINE
  5
250
100
AcDbEntity
  8
Layer_1
 62
7
100
AcDbLine
 10
202.473470
 20
179.544284
 30
0.0
 11
202.526386
 21
183.153201
 31
0.0
  0
LINE
  5
251
100
AcDbEntity
  8
Layer_1
 62
7
100
AcDbLine
 10
202.526386
 20
183.153201
 30
0.0
 11
204.854720
 21
183.163784
 31
0.0
  0
LINE
  5
252
100
AcDbEntity
  8
Layer_1
 62
7
100
AcDbLine
 10
204.854720
 20
183.163784
 30
0.0
 11
204.854720
 21
195.863784
 31
0.0
  0
LINE
  5
253
100
AcDbEntity
  8
Layer_1
 62
7
100
AcDbLine
 10
204.854720
 20
195.863784
 30
0.0
 11
202.473470
 21
195.863784
 31
0.0
  0
LINE
  5
254
100
AcDbEntity
  8
Layer_1
 62
7
100
AcDbLine
 10
202.473470
 20
195.863784
 30
0.0
 11
202.473470
 21
212.458451
 31
0.0
  0
LINE
  5
255
100
AcDbEntity
  8
Layer_1
 62
7
100
AcDbLine
 10
202.473470
 20
212.458451
 30
0.0
 11
204.854720
 21
212.458451
 31
0.0
  0
LINE
  5
256
100
AcDbEntity
  8
Layer_1
 62
7
100
AcDbLine
 10
204.854720
 20
212.458451
 30
0.0
 11
204.854720
 21
225.158451
 31
0.0
  0
LINE
  5
257
100
AcDbEntity
  8
Layer_1
 62
7
100
AcDbLine
 10
204.854720
 20
225.158451
 30
0.0
 11
202.473470
 21
225.158451
 31
0.0
  0
LINE
  5
258
100
AcDbEntity
  8
Layer_1
 62
7
100
AcDbLine
 10
202.473470
 20
225.158451
 30
0.0
 11
202.473470
 21
229.963284
 31
0.0
  0
LINE
  5
259
100
AcDbEntity
  8
Layer_1
 62
7
100
AcDbLine
 10
202.473470
 20
229.963284
 30
0.0
 11
188.979720
 21
229.963284
 31
0.0
  0
LINE
  5
25a
100
AcDbEntity
  8
Layer_1
 62
7
100
AcDbLine
 10
188.979720
 20
229.963284
 30
0.0
 11
188.979720
 21
232.344534
 31
0.0
  0
LINE
  5
25b
100
AcDbEntity
  8
Layer_1
 62
7
100
AcDbLine
 10
188.979720
 20
232.344534
 30
0.0
 11
176.279720
 21
232.344534
 31
0.0
  0
LINE
  5
25c
100
AcDbEntity
  8
Layer_1
 62
7
100
AcDbLine
 10
176.279720
 20
232.344534
 30
0.0
 11
176.279720
 21
229.963284
 31
0.0
  0
LINE
  5
25d
100
AcDbEntity
  8
Layer_1
 62
7
100
AcDbLine
 10
176.279720
 20
229.963284
 30
0.0
 11
131.829720
 21
229.963284
 31
0.0
  0
LINE
  5
25e
100
AcDbEntity
  8
Layer_1
 62
7
100
AcDbLine
 10
131.829720
 20
229.963284
 30
0.0
 11
131.829720
 21
232.344534
 31
0.0
  0
LINE
  5
25f
100
AcDbEntity
  8
Layer_1
 62
7
100
AcDbLine
 10
131.829720
 20
232.344534
 30
0.0
 11
119.129720
 21
232.344534
 31
0.0
  0
LINE
  5
260
100
AcDbEntity
  8
Layer_1
 62
7
100
AcDbLine
 10
119.129720
 20
232.344534
 30
0.0
 11
119.129720
 21
229.963284
 31
0.0
  0
LINE
  5
261
100
AcDbEntity
  8
Layer_1
 62
7
100
AcDbLine
 10
119.129720
 20
229.963284
 30
0.0
 11
105.646553
 21
229.963284
 31
0.0
  0
LINE
  5
262
100
AcDbEntity
  8
Layer_1
 62
7
100
AcDbLine
 10
105.646553
 20
229.963284
 30
0.0
 11
105.646553
 21
225.158451
 31
0.0
  0
LINE
  5
263
100
AcDbEntity
  8
Layer_1
 62
7
100
AcDbLine
 10
105.646553
 20
225.158451
 30
0.0
 11
103.254720
 21
225.158451
 31
0.0
  0
LINE
  5
264
100
AcDbEntity
  8
Layer_1
 62
7
100
AcDbLine
 10
103.254720
 20
225.158451
 30
0.0
 11
103.254720
 21
212.458451
 31
0.0
  0
LINE
  5
265
100
AcDbEntity
  8
Layer_1
 62
7
100
AcDbLine
 10
103.254720
 20
212.458451
 30
0.0
 11
105.646553
 21
212.458451
 31
0.0
  0
LINE
  5
266
100
AcDbEntity
  8
Layer_1
 62
7
100
AcDbLine
 10
105.646553
 20
212.458451
 30
0.0
 11
105.646553
 21
195.863784
 31
0.0
  0
LINE
  5
267
100
AcDbEntity
  8
Layer_1
 62
7
100
AcDbLine
 10
105.646553
 20
195.863784
 30
0.0
 11
103.254720
 21
195.863784
 31
0.0
  0
LINE
  5
268
100
AcDbEntity
  8
Layer_1
 62
7
100
AcDbLine
 10
103.254720
 20
195.863784
 30
0.0
 11
103.254720
 21
183.163784
 31
0.0
  0
LINE
  5
269
100
AcDbEntity
  8
Layer_1
 62
7
100
AcDbLine
 10
103.254720
 20
183.163784
 30
0.0
 11
105.699470
 21
183.153201
 31
0.0
  0
LINE
  5
26a
100
AcDbEntity
  8
Layer_1
 62
7
100
AcDbLine
 10
105.699470
 20
183.153201
 30
0.0
 11
105.646553
 21
179.544284
 31
0.0
  0
SPLINE
  5
26b
100
AcDbEntity
  8
Layer_1
 62
7
100
AcDbSpline
 70
8
 71
3
 72
8
 73
4
 74
0
 40
0
 40
0
 40
0
 40
0
 40
1
 40
1
 40
1
 40
1
 10
117.367581
 20
189.429118
 30
0.0
 10
116.663267
 20
189.429118
 30
0.0
 10
116.092303
 20
188.858157
 30
0.0
 10
116.092303
 20
188.153826
 30
0.0
  0
SPLINE
  5
26c
100
AcDbEntity
  8
Layer_1
 62
7
100
AcDbSpline
 70
8
 71
3
 72
8
 73
4
 74
0
 40
0
 40
0
 40
0
 40
0
 40
1
 40
1
 40
1
 40
1
 10
116.092303
 20
188.153826
 30
0.0
 10
116.092303
 20
187.449495
 30
0.0
 10
116.663267
 20
186.878534
 30
0.0
 10
117.367581
 20
186.878534
 30
0.0
  0
LINE
  5
26d
100
AcDbEntity
  8
Layer_1
 62
7
100
AcDbLine
 10
117.362303
 20
186.878534
 30
0.0
 11
131.332303
 21
186.878534
 31
0.0
  0
SPLINE
  5
26e
100
AcDbEntity
  8
Layer_1
 62
7
100
AcDbSpline
 70
8
 71
3
 72
8
 73
4
 74
0
 40
0
 40
0
 40
0
 40
0
 40
1
 40
1
 40
1
 40
1
 10
131.337581
 20
186.878534
 30
0.0
 10
132.041923
 20
186.878534
 30
0.0
 10
132.612886
 20
187.449495
 30
0.0
 10
132.612886
 20
188.153826
 30
0.0
  0
SPLINE
  5
26f
100
AcDbEntity
  8
Layer_1
 62
7
100
AcDbSpline
 70
8
 71
3
 72
8
 73
4
 74
0
 40
0
 40
0
 40
0
 40
0
 40
1
 40
1
 40
1
 40
1
 10
132.612886
 20
188.153826
 30
0.0
 10
132.612886
 20
188.858157
 30
0.0
 10
132.041923
 20
189.429118
 30
0.0
 10
131.337581
 20
189.429118
 30
0.0
  0
LINE
  5
270
100
AcDbEntity
  8
Layer_1
 62
7
100
AcDbLine
 10
131.332303
 20
189.418534
 30
0.0
 11
117.362303
 21
189.418534
 31
0.0
  0
SPLINE
  5
271
100
AcDbEntity
  8
Layer_1
 62
7
100
AcDbSpline
 70
8
 71
3
 72
8
 73
4
 74
0
 40
0
 40
0
 40
0
 40
0
 40
1
 40
1
 40
1
 40
1
 10
112.049470
 20
207.500159
 30
0.0
 10
112.049470
 20
208.204490
 30
0.0
 10
111.478506
 20
208.775451
 30
0.0
 10
110.774164
 20
208.775451
 30
0.0
  0
SPLINE
  5
272
100
AcDbEntity
  8
Layer_1
 62
7
100
AcDbSpline
 70
8
 71
3
 72
8
 73
4
 74
0
 40
0
 40
0
 40
0
 40
0
 40
1
 40
1
 40
1
 40
1
 10
110.774164
 20
208.775451
 30
0.0
 10
110.069850
 20
208.775451
 30
0.0
 10
109.498886
 20
208.204490
 30
0.0
 10
109.498886
 20
207.500159
 30
0.0
  0
LINE
  5
273
100
AcDbEntity
  8
Layer_1
 62
7
100
AcDbLine
 10
109.498886
 20
207.494868
 30
0.0
 11
109.498886
 21
193.514284
 31
0.0
  0
SPLINE
  5
274
100
AcDbEntity
  8
Layer_1
 62
7
100
AcDbSpline
 70
8
 71
3
 72
8
 73
4
 74
0
 40
0
 40
0
 40
0
 40
0
 40
1
 40
1
 40
1
 40
1
 10
109.498886
 20
193.519576
 30
0.0
 10
109.498886
 20
192.815245
 30
0.0
 10
110.069850
 20
192.244284
 30
0.0
 10
110.774164
 20
192.244284
 30
0.0
  0
SPLINE
  5
275
100
AcDbEntity
  8
Layer_1
 62
7
100
AcDbSpline
 70
8
 71
3
 72
8
 73
4
 74
0
 40
0
 40
0
 40
0
 40
0
 40
1
 40
1
 40
1
 40
1
 10
110.774164
 20
192.244284
 30
0.0
 10
111.478506
 20
192.244284
 30
0.0
 10
112.049470
 20
192.815245
 30
0.0
 10
112.049470
 20
193.519576
 30
0.0
  0
LINE
  5
276
100
AcDbEntity
  8
Layer_1
 62
7
100
AcDbLine
 10
112.038886
 20
193.514284
 30
0.0
 11
112.038886
 21
207.494868
 31
0.0
  0
SPLINE
  5
277
100
AcDbEntity
  8
Layer_1
 62
7
100
AcDbSpline
 70
8
 71
3
 72
8
 73
4
 74
0
 40
0
 40
0
 40
0
 40
0
 40
1
 40
1
 40
1
 40
1
 10
117.367581
 20
214.141201
 30
0.0
 10
116.663267
 20
214.141201
 30
0.0
 10
116.092303
 20
213.570240
 30
0.0
 10
116.092303
 20
212.865909
 30
0.0
  0
SPLINE
  5
278
100
AcDbEntity
  8
Layer_1
 62
7
100
AcDbSpline
 70
8
 71
3
 72
8
 73
4
 74
0
 40
0
 40
0
 40
0
 40
0
 40
1
 40
1
 40
1
 40
1
 10
116.092303
 20
212.865909
 30
0.0
 10
116.092303
 20
212.161579
 30
0.0
 10
116.663267
 20
211.590618
 30
0.0
 10
117.367581
 20
211.590618
 30
0.0
  0
LINE
  5
279
100
AcDbEntity
  8
Layer_1
 62
7
100
AcDbLine
 10
117.362303
 20
211.590618
 30
0.0
 11
131.332303
 21
211.590618
 31
0.0
  0
SPLINE
  5
27a
100
AcDbEntity
  8
Layer_1
 62
7
100
AcDbSpline
 70
8
 71
3
 72
8
 73
4
 74
0
 40
0
 40
0
 40
0
 40
0
 40
1
 40
1
 40
1
 40
1
 10
131.337581
 20
211.590618
 30
0.0
 10
132.041923
 20
211.590618
 30
0.0
 10
132.612886
 20
212.161579
 30
0.0
 10
132.612886
 20
212.865909
 30
0.0
  0
SPLINE
  5
27b
100
AcDbEntity
  8
Layer_1
 62
7
100
AcDbSpline
 70
8
 71
3
 72
8
 73
4
 74
0
 40
0
 40
0
 40
0
 40
0
 40
1
 40
1
 40
1
 40
1
 10
132.612886
 20
212.865909
 30
0.0
 10
132.612886
 20
213.570240
 30
0.0
 10
132.041923
 20
214.141201
 30
0.0
 10
131.337581
 20
214.141201
 30
0.0
  0
LINE
  5
27c
100
AcDbEntity
  8
Layer_1
 62
7
100
AcDbLine
 10
131.332303
 20
214.130618
 30
0.0
 11
117.362303
 21
214.130618
 31
0.0
  0
LINE
  5
27d
100
AcDbEntity
  8
Layer_1
 62
7
100
AcDbLine
 10
202.071303
 20
279.366285
 30
0.0
 11
105.244386
 21
279.366285
 31
0.0
  0
LINE
  5
27e
100
AcDbEntity
  8
Layer_1
 62
7
100
AcDbLine
 10
105.244386
 20
279.366285
 30
0.0
 11
105.244386
 21
273.016285
 31
0.0
  0
LINE
  5
27f
100
AcDbEntity
  8
Layer_1
 62
7
100
AcDbLine
 10
105.244386
 20
273.016285
 30
0.0
 11
102.863136
 21
273.016285
 31
0.0
  0
LINE
  5
280
100
AcDbEntity
  8
Layer_1
 62
7
100
AcDbLine
 10
102.863136
 20
273.016285
 30
0.0
 11
102.863136
 21
246.547368
 31
0.0
  0
LINE
  5
281
100
AcDbEntity
  8
Layer_1
 62
7
100
AcDbLine
 10
102.863136
 20
246.547368
 30
0.0
 11
105.244386
 21
246.547368
 31
0.0
  0
LINE
  5
282
100
AcDbEntity
  8
Layer_1
 62
7
100
AcDbLine
 10
105.244386
 20
246.547368
 30
0.0
 11
105.244386
 21
238.556951
 31
0.0
  0
LINE
  5
283
100
AcDbEntity
  8
Layer_1
 62
7
100
AcDbLine
 10
105.244386
 20
238.556951
 30
0.0
 11
202.071303
 21
238.556951
 31
0.0
  0
LINE
  5
284
100
AcDbEntity
  8
Layer_1
 62
7
100
AcDbLine
 10
202.071303
 20
238.556951
 30
0.0
 11
202.071303
 21
246.547368
 31
0.0
  0
LINE
  5
285
100
AcDbEntity
  8
Layer_1
 62
7
100
AcDbLine
 10
202.071303
 20
246.547368
 30
0.0
 11
204.463136
 21
246.547368
 31
0.0
  0
LINE
  5
286
100
AcDbEntity
  8
Layer_1
 62
7
100
AcDbLine
 10
204.463136
 20
246.547368
 30
0.0
 11
204.463136
 21
273.016285
 31
0.0
  0
LINE
  5
287
100
AcDbEntity
  8
Layer_1
 62
7
100
AcDbLine
 10
204.463136
 20
273.016285
 30
0.0
 11
202.071303
 21
273.016285
 31
0.0
  0
LINE
  5
288
100
AcDbEntity
  8
Layer_1
 62
7
100
AcDbLine
 10
202.071303
 20
273.016285
 30
0.0
 11
202.071303
 21
279.366285
 31
0.0
  0
SPLINE
  5
289
100
AcDbEntity
  8
Layer_1
 62
7
100
AcDbSpline
 70
8
 71
3
 72
8
 73
4
 74
0
 40
0
 40
0
 40
0
 40
0
 40
1
 40
1
 40
1
 40
1
 10
113.483497
 20
273.227951
 30
0.0
 10
112.825948
 20
273.227951
 30
0.0
 10
112.292886
 20
272.694901
 30
0.0
 10
112.292886
 20
272.037326
 30
0.0
  0
LINE
  5
28a
100
AcDbEntity
  8
Layer_1
 62
7
100
AcDbLine
 10
112.282303
 20
272.032035
 30
0.0
 11
112.282303
 21
250.823034
 31
0.0
  0
SPLINE
  5
28b
100
AcDbEntity
  8
Layer_1
 62
7
100
AcDbSpline
 70
8
 71
3
 72
8
 73
4
 74
0
 40
0
 40
0
 40
0
 40
0
 40
1
 40
1
 40
1
 40
1
 10
112.292886
 20
250.828326
 30
0.0
 10
112.292886
 20
250.170751
 30
0.0
 10
112.825948
 20
249.637701
 30
0.0
 10
113.483497
 20
249.637701
 30
0.0
  0
LINE
  5
28c
100
AcDbEntity
  8
Layer_1
 62
7
100
AcDbLine
 10
113.478220
 20
249.627118
 30
0.0
 11
118.738136
 21
249.627118
 31
0.0
  0
LINE
  5
28d
100
AcDbEntity
  8
Layer_1
 62
7
100
AcDbLine
 10
118.738136
 20
249.627118
 30
0.0
 11
118.738136
 21
247.245868
 31
0.0
  0
LINE
  5
28e
100
AcDbEntity
  8
Layer_1
 62
7
100
AcDbLine
 10
118.738136
 20
247.245868
 30
0.0
 11
131.438136
 21
247.245868
 31
0.0
  0
LINE
  5
28f
100
AcDbEntity
  8
Layer_1
 62
7
100
AcDbLine
 10
131.438136
 20
247.245868
 30
0.0
 11
131.438136
 21
249.627118
 31
0.0
  0
LINE
  5
290
100
AcDbEntity
  8
Layer_1
 62
7
100
AcDbLine
 10
131.438136
 20
249.627118
 30
0.0
 11
175.888136
 21
249.627118
 31
0.0
  0
LINE
  5
291
100
AcDbEntity
  8
Layer_1
 62
7
100
AcDbLine
 10
175.888136
 20
249.627118
 30
0.0
 11
175.888136
 21
247.245868
 31
0.0
  0
LINE
  5
292
100
AcDbEntity
  8
Layer_1
 62
7
100
AcDbLine
 10
175.888136
 20
247.245868
 30
0.0
 11
188.588136
 21
247.245868
 31
0.0
  0
LINE
  5
293
100
AcDbEntity
  8
Layer_1
 62
7
100
AcDbLine
 10
188.588136
 20
247.245868
 30
0.0
 11
188.588136
 21
249.627118
 31
0.0
  0
LINE
  5
294
100
AcDbEntity
  8
Layer_1
 62
7
100
AcDbLine
 10
188.588136
 20
249.627118
 30
0.0
 11
193.848053
 21
249.627118
 31
0.0
  0
SPLINE
  5
295
100
AcDbEntity
  8
Layer_1
 62
7
100
AcDbSpline
 70
8
 71
3
 72
8
 73
4
 74
0
 40
0
 40
0
 40
0
 40
0
 40
1
 40
1
 40
1
 40
1
 10
193.853331
 20
249.637701
 30
0.0
 10
194.510908
 20
249.637701
 30
0.0
 10
195.043970
 20
250.170751
 30
0.0
 10
195.043970
 20
250.828326
 30
0.0
  0
LINE
  5
296
100
AcDbEntity
  8
Layer_1
 62
7
100
AcDbLine
 10
195.043970
 20
250.823034
 30
0.0
 11
195.043970
 21
272.032035
 31
0.0
  0
SPLINE
  5
297
100
AcDbEntity
  8
Layer_1
 62
7
100
AcDbSpline
 70
8
 71
3
 72
8
 73
4
 74
0
 40
0
 40
0
 40
0
 40
0
 40
1
 40
1
 40
1
 40
1
 10
195.043970
 20
272.037326
 30
0.0
 10
195.043970
 20
272.694901
 30
0.0
 10
194.510908
 20
273.227951
 30
0.0
 10
193.853331
 20
273.227951
 30
0.0
  0
LINE
  5
298
100
AcDbEntity
  8
Layer_1
 62
7
100
AcDbLine
 10
193.848053
 20
273.217368
 30
0.0
 11
113.478220
 21
273.217368
 31
0.0
  0
LINE
  5
299
100
AcDbEntity
  8
Layer_1
 62
7
100
AcDbLine
 10
43.757255
 20
254.648658
 30
0.0
 11
56.457255
 21
254.648658
 31
0.0
  0
LINE
  5
29a
100
AcDbEntity
  8
Layer_1
 62
7
100
AcDbLine
 10
56.457255
 20
254.648658
 30
0.0
 11
56.457255
 21
257.040491
 31
0.0
  0
LINE
  5
29b
100
AcDbEntity
  8
Layer_1
 62
7
100
AcDbLine
 10
56.457255
 20
257.040491
 30
0.0
 11
43.757255
 21
257.040491
 31
0.0
  0
LINE
  5
29c
100
AcDbEntity
  8
Layer_1
 62
7
100
AcDbLine
 10
43.757255
 20
257.040491
 30
0.0
 11
43.757255
 21
254.648658
 31
0.0
  0
LINE
  5
29d
100
AcDbEntity
  8
Layer_1
 62
7
100
AcDbLine
 10
14.462588
 20
257.040491
 30
0.0
 11
14.462588
 21
254.648658
 31
0.0
  0
LINE
  5
29e
100
AcDbEntity
  8
Layer_1
 62
7
100
AcDbLine
 10
14.462588
 20
254.648658
 30
0.0
 11
27.162588
 21
254.648658
 31
0.0
  0
LINE
  5
29f
100
AcDbEntity
  8
Layer_1
 62
7
100
AcDbLine
 10
27.162588
 20
254.648658
 30
0.0
 11
27.162588
 21
257.040491
 31
0.0
  0
LINE
  5
2a0
100
AcDbEntity
  8
Layer_1
 62
7
100
AcDbLine
 10
27.162588
 20
257.040491
 30
0.0
 11
14.462588
 21
257.040491
 31
0.0
  0
LINE
  5
2a1
100
AcDbEntity
  8
Layer_1
 62
7
100
AcDbLine
 10
8.102005
 20
263.517491
 30
0.0
 11
7.805671
 21
262.490908
 31
0.0
  0
LINE
  5
2a2
100
AcDbEntity
  8
Layer_1
 62
7
100
AcDbLine
 10
7.805671
 20
262.490908
 30
0.0
 11
7.678671
 21
261.443158
 31
0.0
  0
LINE
  5
2a3
100
AcDbEntity
  8
Layer_1
 62
7
100
AcDbLine
 10
7.678671
 20
261.443158
 30
0.0
 11
7.710421
 21
260.681158
 31
0.0
  0
LINE
  5
2a4
100
AcDbEntity
  8
Layer_1
 62
7
100
AcDbLine
 10
7.710421
 20
260.681158
 30
0.0
 11
7.795088
 21
260.014408
 31
0.0
  0
LINE
  5
2a5
100
AcDbEntity
  8
Layer_1
 62
7
100
AcDbLine
 10
7.795088
 20
260.014408
 30
0.0
 11
7.932671
 21
259.368825
 31
0.0
  0
LINE
  5
2a6
100
AcDbEntity
  8
Layer_1
 62
7
100
AcDbLine
 10
7.932671
 20
259.368825
 30
0.0
 11
8.112588
 21
258.733825
 31
0.0
  0
LINE
  5
2a7
100
AcDbEntity
  8
Layer_1
 62
7
100
AcDbLine
 10
8.112588
 20
258.733825
 30
0.0
 11
8.334838
 21
258.130575
 31
0.0
  0
LINE
  5
2a8
100
AcDbEntity
  8
Layer_1
 62
7
100
AcDbLine
 10
8.334838
 20
258.130575
 30
0.0
 11
8.927505
 21
256.966408
 31
0.0
  0
LINE
  5
2a9
100
AcDbEntity
  8
Layer_1
 62
7
100
AcDbLine
 10
8.927505
 20
256.966408
 30
0.0
 11
9.678921
 21
255.886908
 31
0.0
  0
LINE
  5
2aa
100
AcDbEntity
  8
Layer_1
 62
7
100
AcDbLine
 10
9.678921
 20
255.886908
 30
0.0
 11
10.589088
 21
254.870908
 31
0.0
  0
LINE
  5
2ab
100
AcDbEntity
  8
Layer_1
 62
7
100
AcDbLine
 10
10.589088
 20
254.870908
 30
0.0
 11
11.658005
 21
253.928991
 31
0.0
  0
LINE
  5
2ac
100
AcDbEntity
  8
Layer_1
 62
7
100
AcDbLine
 10
11.658005
 20
253.928991
 30
0.0
 11
12.864505
 21
253.050575
 31
0.0
  0
LINE
  5
2ad
100
AcDbEntity
  8
Layer_1
 62
7
100
AcDbLine
 10
12.864505
 20
253.050575
 30
0.0
 11
14.208588
 21
252.246241
 31
0.0
  0
LINE
  5
2ae
100
AcDbEntity
  8
Layer_1
 62
7
100
AcDbLine
 10
14.208588
 20
252.246241
 30
0.0
 11
15.679671
 21
251.505408
 31
0.0
  0
LINE
  5
2af
100
AcDbEntity
  8
Layer_1
 62
7
100
AcDbLine
 10
15.679671
 20
251.505408
 30
0.0
 11
17.267171
 21
250.817491
 31
0.0
  0
LINE
  5
2b0
100
AcDbEntity
  8
Layer_1
 62
7
100
AcDbLine
 10
17.267171
 20
250.817491
 30
0.0
 11
18.960505
 21
250.193075
 31
0.0
  0
LINE
  5
2b1
100
AcDbEntity
  8
Layer_1
 62
7
100
AcDbLine
 10
18.960505
 20
250.193075
 30
0.0
 11
20.759671
 21
249.621575
 31
0.0
  0
LINE
  5
2b2
100
AcDbEntity
  8
Layer_1
 62
7
100
AcDbLine
 10
20.759671
 20
249.621575
 30
0.0
 11
22.632921
 21
249.102991
 31
0.0
  0
LINE
  5
2b3
100
AcDbEntity
  8
Layer_1
 62
7
100
AcDbLine
 10
22.632921
 20
249.102991
 30
0.0
 11
24.601421
 21
248.626741
 31
0.0
  0
LINE
  5
2b4
100
AcDbEntity
  8
Layer_1
 62
7
100
AcDbLine
 10
24.601421
 20
248.626741
 30
0.0
 11
26.633421
 21
248.213991
 31
0.0
  0
LINE
  5
2b5
100
AcDbEntity
  8
Layer_1
 62
7
100
AcDbLine
 10
26.633421
 20
248.213991
 30
0.0
 11
28.739505
 21
247.832991
 31
0.0
  0
LINE
  5
2b6
100
AcDbEntity
  8
Layer_1
 62
7
100
AcDbLine
 10
28.739505
 20
247.832991
 30
0.0
 11
30.887921
 21
247.504908
 31
0.0
  0
LINE
  5
2b7
100
AcDbEntity
  8
Layer_1
 62
7
100
AcDbLine
 10
30.887921
 20
247.504908
 30
0.0
 11
33.089255
 21
247.208575
 31
0.0
  0
LINE
  5
2b8
100
AcDbEntity
  8
Layer_1
 62
7
100
AcDbLine
 10
33.089255
 20
247.208575
 30
0.0
 11
37.587171
 21
246.742908
 31
0.0
  0
LINE
  5
2b9
100
AcDbEntity
  8
Layer_1
 62
7
100
AcDbLine
 10
37.587171
 20
246.742908
 30
0.0
 11
42.148588
 21
246.404241
 31
0.0
  0
LINE
  5
2ba
100
AcDbEntity
  8
Layer_1
 62
7
100
AcDbLine
 10
42.148588
 20
246.404241
 30
0.0
 11
46.731171
 21
246.171408
 31
0.0
  0
LINE
  5
2bb
100
AcDbEntity
  8
Layer_1
 62
7
100
AcDbLine
 10
46.731171
 20
246.171408
 30
0.0
 11
51.239671
 21
246.033825
 31
0.0
  0
LINE
  5
2bc
100
AcDbEntity
  8
Layer_1
 62
7
100
AcDbLine
 10
51.239671
 20
246.033825
 30
0.0
 11
55.600005
 21
245.959741
 31
0.0
  0
LINE
  5
2bd
100
AcDbEntity
  8
Layer_1
 62
7
100
AcDbLine
 10
55.600005
 20
245.959741
 30
0.0
 11
57.716671
 21
245.949158
 31
0.0
  0
LINE
  5
2be
100
AcDbEntity
  8
Layer_1
 62
7
100
AcDbLine
 10
57.716671
 20
245.949158
 30
0.0
 11
59.759255
 21
245.949158
 31
0.0
  0
LINE
  5
2bf
100
AcDbEntity
  8
Layer_1
 62
7
100
AcDbLine
 10
59.759255
 20
245.949158
 30
0.0
 11
61.738338
 21
245.949158
 31
0.0
  0
LINE
  5
2c0
100
AcDbEntity
  8
Layer_1
 62
7
100
AcDbLine
 10
61.738338
 20
245.949158
 30
0.0
 11
63.643338
 21
245.959741
 31
0.0
  0
LINE
  5
2c1
100
AcDbEntity
  8
Layer_1
 62
7
100
AcDbLine
 10
63.643338
 20
245.959741
 30
0.0
 11
63.643338
 21
253.950158
 31
0.0
  0
LINE
  5
2c2
100
AcDbEntity
  8
Layer_1
 62
7
100
AcDbLine
 10
63.643338
 20
253.950158
 30
0.0
 11
61.262088
 21
253.950158
 31
0.0
  0
LINE
  5
2c3
100
AcDbEntity
  8
Layer_1
 62
7
100
AcDbLine
 10
61.262088
 20
253.950158
 30
0.0
 11
61.262088
 21
280.429655
 31
0.0
  0
LINE
  5
2c4
100
AcDbEntity
  8
Layer_1
 62
7
100
AcDbLine
 10
61.262088
 20
280.429655
 30
0.0
 11
63.643338
 21
280.429655
 31
0.0
  0
LINE
  5
2c5
100
AcDbEntity
  8
Layer_1
 62
7
100
AcDbLine
 10
63.643338
 20
280.429655
 30
0.0
 11
63.643338
 21
286.779655
 31
0.0
  0
LINE
  5
2c6
100
AcDbEntity
  8
Layer_1
 62
7
100
AcDbLine
 10
63.643338
 20
286.779655
 30
0.0
 11
61.452588
 21
286.356322
 31
0.0
  0
LINE
  5
2c7
100
AcDbEntity
  8
Layer_1
 62
7
100
AcDbLine
 10
61.452588
 20
286.356322
 30
0.0
 11
59.208921
 21
285.911822
 31
0.0
  0
LINE
  5
2c8
100
AcDbEntity
  8
Layer_1
 62
7
100
AcDbLine
 10
59.208921
 20
285.911822
 30
0.0
 11
54.605171
 21
284.906405
 31
0.0
  0
LINE
  5
2c9
100
AcDbEntity
  8
Layer_1
 62
7
100
AcDbLine
 10
54.605171
 20
284.906405
 30
0.0
 11
49.916755
 21
283.795155
 31
0.0
  0
LINE
  5
2ca
100
AcDbEntity
  8
Layer_1
 62
7
100
AcDbLine
 10
49.916755
 20
283.795155
 30
0.0
 11
45.186005
 21
282.567489
 31
0.0
  0
LINE
  5
2cb
100
AcDbEntity
  8
Layer_1
 62
7
100
AcDbLine
 10
45.186005
 20
282.567489
 30
0.0
 11
40.476421
 21
281.233989
 31
0.0
  0
LINE
  5
2cc
100
AcDbEntity
  8
Layer_1
 62
7
100
AcDbLine
 10
40.476421
 20
281.233989
 30
0.0
 11
35.851505
 21
279.805239
 31
0.0
  0
LINE
  5
2cd
100
AcDbEntity
  8
Layer_1
 62
7
100
AcDbLine
 10
35.851505
 20
279.805239
 30
0.0
 11
31.374755
 21
278.281239
 31
0.0
  0
LINE
  5
2ce
100
AcDbEntity
  8
Layer_1
 62
7
100
AcDbLine
 10
31.374755
 20
278.281239
 30
0.0
 11
29.205171
 21
277.487489
 31
0.0
  0
LINE
  5
2cf
100
AcDbEntity
  8
Layer_1
 62
7
100
AcDbLine
 10
29.205171
 20
277.487489
 30
0.0
 11
27.099088
 21
276.672572
 31
0.0
  0
LINE
  5
2d0
100
AcDbEntity
  8
Layer_1
 62
7
100
AcDbLine
 10
27.099088
 20
276.672572
 30
0.0
 11
25.067088
 21
275.836489
 31
0.0
  0
LINE
  5
2d1
100
AcDbEntity
  8
Layer_1
 62
7
100
AcDbLine
 10
25.067088
 20
275.836489
 30
0.0
 11
23.098588
 21
274.979239
 31
0.0
  0
LINE
  5
2d2
100
AcDbEntity
  8
Layer_1
 62
7
100
AcDbLine
 10
23.098588
 20
274.979239
 30
0.0
 11
21.214755
 21
274.111408
 31
0.0
  0
LINE
  5
2d3
100
AcDbEntity
  8
Layer_1
 62
7
100
AcDbLine
 10
21.214755
 20
274.111408
 30
0.0
 11
19.426171
 21
273.222408
 31
0.0
  0
LINE
  5
2d4
100
AcDbEntity
  8
Layer_1
 62
7
100
AcDbLine
 10
19.426171
 20
273.222408
 30
0.0
 11
17.722255
 21
272.312241
 31
0.0
  0
LINE
  5
2d5
100
AcDbEntity
  8
Layer_1
 62
7
100
AcDbLine
 10
17.722255
 20
272.312241
 30
0.0
 11
16.134755
 21
271.391491
 31
0.0
  0
LINE
  5
2d6
100
AcDbEntity
  8
Layer_1
 62
7
100
AcDbLine
 10
16.134755
 20
271.391491
 30
0.0
 11
14.663671
 21
270.449575
 31
0.0
  0
LINE
  5
2d7
100
AcDbEntity
  8
Layer_1
 62
7
100
AcDbLine
 10
14.663671
 20
270.449575
 30
0.0
 11
13.298421
 21
269.497075
 31
0.0
  0
LINE
  5
2d8
100
AcDbEntity
  8
Layer_1
 62
7
100
AcDbLine
 10
13.298421
 20
269.497075
 30
0.0
 11
12.070755
 21
268.523408
 31
0.0
  0
LINE
  5
2d9
100
AcDbEntity
  8
Layer_1
 62
7
100
AcDbLine
 10
12.070755
 20
268.523408
 30
0.0
 11
10.980671
 21
267.549741
 31
0.0
  0
LINE
  5
2da
100
AcDbEntity
  8
Layer_1
 62
7
100
AcDbLine
 10
10.980671
 20
267.549741
 30
0.0
 11
10.028171
 21
266.554908
 31
0.0
  0
LINE
  5
2db
100
AcDbEntity
  8
Layer_1
 62
7
100
AcDbLine
 10
10.028171
 20
266.554908
 30
0.0
 11
9.223838
 21
265.549491
 31
0.0
  0
LINE
  5
2dc
100
AcDbEntity
  8
Layer_1
 62
7
100
AcDbLine
 10
9.223838
 20
265.549491
 30
0.0
 11
8.578255
 21
264.544075
 31
0.0
  0
LINE
  5
2dd
100
AcDbEntity
  8
Layer_1
 62
7
100
AcDbLine
 10
8.578255
 20
264.544075
 30
0.0
 11
8.102005
 21
263.517491
 31
0.0
  0
LINE
  5
2de
100
AcDbEntity
  8
Layer_1
 62
7
100
AcDbLine
 10
28.157421
 20
211.227259
 30
0.0
 11
15.457421
 21
211.227259
 31
0.0
  0
LINE
  5
2df
100
AcDbEntity
  8
Layer_1
 62
7
100
AcDbLine
 10
15.457421
 20
211.227259
 30
0.0
 11
15.457421
 21
213.608509
 31
0.0
  0
LINE
  5
2e0
100
AcDbEntity
  8
Layer_1
 62
7
100
AcDbLine
 10
15.457421
 20
213.608509
 30
0.0
 11
28.157421
 21
213.608509
 31
0.0
  0
LINE
  5
2e1
100
AcDbEntity
  8
Layer_1
 62
7
100
AcDbLine
 10
28.157421
 20
213.608509
 30
0.0
 11
28.157421
 21
211.227259
 31
0.0
  0
LINE
  5
2e2
100
AcDbEntity
  8
Layer_1
 62
7
100
AcDbLine
 10
57.462671
 20
213.608509
 30
0.0
 11
57.462671
 21
211.227259
 31
0.0
  0
LINE
  5
2e3
100
AcDbEntity
  8
Layer_1
 62
7
100
AcDbLine
 10
57.462671
 20
211.227259
 30
0.0
 11
44.762671
 21
211.227259
 31
0.0
  0
LINE
  5
2e4
100
AcDbEntity
  8
Layer_1
 62
7
100
AcDbLine
 10
44.762671
 20
211.227259
 30
0.0
 11
44.762671
 21
213.608509
 31
0.0
  0
LINE
  5
2e5
100
AcDbEntity
  8
Layer_1
 62
7
100
AcDbLine
 10
44.762671
 20
213.608509
 30
0.0
 11
57.462671
 21
213.608509
 31
0.0
  0
LINE
  5
2e6
100
AcDbEntity
  8
Layer_1
 62
7
100
AcDbLine
 10
63.823255
 20
220.096093
 30
0.0
 11
64.119588
 21
219.058926
 31
0.0
  0
LINE
  5
2e7
100
AcDbEntity
  8
Layer_1
 62
7
100
AcDbLine
 10
64.119588
 20
219.058926
 30
0.0
 11
64.246588
 21
218.021759
 31
0.0
  0
LINE
  5
2e8
100
AcDbEntity
  8
Layer_1
 62
7
100
AcDbLine
 10
64.246588
 20
218.021759
 30
0.0
 11
64.204255
 21
217.259759
 31
0.0
  0
LINE
  5
2e9
100
AcDbEntity
  8
Layer_1
 62
7
100
AcDbLine
 10
64.204255
 20
217.259759
 30
0.0
 11
64.119588
 21
216.593009
 31
0.0
  0
LINE
  5
2ea
100
AcDbEntity
  8
Layer_1
 62
7
100
AcDbLine
 10
64.119588
 20
216.593009
 30
0.0
 11
63.992588
 21
215.936843
 31
0.0
  0
LINE
  5
2eb
100
AcDbEntity
  8
Layer_1
 62
7
100
AcDbLine
 10
63.992588
 20
215.936843
 30
0.0
 11
63.812671
 21
215.312426
 31
0.0
  0
LINE
  5
2ec
100
AcDbEntity
  8
Layer_1
 62
7
100
AcDbLine
 10
63.812671
 20
215.312426
 30
0.0
 11
63.579838
 21
214.698593
 31
0.0
  0
LINE
  5
2ed
100
AcDbEntity
  8
Layer_1
 62
7
100
AcDbLine
 10
63.579838
 20
214.698593
 30
0.0
 11
62.997755
 21
213.545009
 31
0.0
  0
LINE
  5
2ee
100
AcDbEntity
  8
Layer_1
 62
7
100
AcDbLine
 10
62.997755
 20
213.545009
 30
0.0
 11
62.246338
 21
212.454926
 31
0.0
  0
LINE
  5
2ef
100
AcDbEntity
  8
Layer_1
 62
7
100
AcDbLine
 10
62.246338
 20
212.454926
 30
0.0
 11
61.336171
 21
211.438926
 31
0.0
  0
LINE
  5
2f0
100
AcDbEntity
  8
Layer_1
 62
7
100
AcDbLine
 10
61.336171
 20
211.438926
 30
0.0
 11
60.267255
 21
210.497009
 31
0.0
  0
LINE
  5
2f1
100
AcDbEntity
  8
Layer_1
 62
7
100
AcDbLine
 10
60.267255
 20
210.497009
 30
0.0
 11
59.050171
 21
209.629176
 31
0.0
  0
LINE
  5
2f2
100
AcDbEntity
  8
Layer_1
 62
7
100
AcDbLine
 10
59.050171
 20
209.629176
 30
0.0
 11
57.706088
 21
208.814259
 31
0.0
  0
LINE
  5
2f3
100
AcDbEntity
  8
Layer_1
 62
7
100
AcDbLine
 10
57.706088
 20
208.814259
 30
0.0
 11
56.245588
 21
208.073426
 31
0.0
  0
LINE
  5
2f4
100
AcDbEntity
  8
Layer_1
 62
7
100
AcDbLine
 10
56.245588
 20
208.073426
 30
0.0
 11
54.658088
 21
207.385509
 31
0.0
  0
LINE
  5
2f5
100
AcDbEntity
  8
Layer_1
 62
7
100
AcDbLine
 10
54.658088
 20
207.385509
 30
0.0
 11
52.964755
 21
206.761093
 31
0.0
  0
LINE
  5
2f6
100
AcDbEntity
  8
Layer_1
 62
7
100
AcDbLine
 10
52.964755
 20
206.761093
 30
0.0
 11
51.165588
 21
206.189593
 31
0.0
  0
LINE
  5
2f7
100
AcDbEntity
  8
Layer_1
 62
7
100
AcDbLine
 10
51.165588
 20
206.189593
 30
0.0
 11
49.281755
 21
205.671009
 31
0.0
  0
LINE
  5
2f8
100
AcDbEntity
  8
Layer_1
 62
7
100
AcDbLine
 10
49.281755
 20
205.671009
 30
0.0
 11
47.323838
 21
205.205343
 31
0.0
  0
LINE
  5
2f9
100
AcDbEntity
  8
Layer_1
 62
7
100
AcDbLine
 10
47.323838
 20
205.205343
 30
0.0
 11
45.291838
 21
204.782009
 31
0.0
  0
LINE
  5
2fa
100
AcDbEntity
  8
Layer_1
 62
7
100
AcDbLine
 10
45.291838
 20
204.782009
 30
0.0
 11
43.185755
 21
204.411593
 31
0.0
  0
LINE
  5
2fb
100
AcDbEntity
  8
Layer_1
 62
7
100
AcDbLine
 10
43.185755
 20
204.411593
 30
0.0
 11
41.037338
 21
204.072926
 31
0.0
  0
LINE
  5
2fc
100
AcDbEntity
  8
Layer_1
 62
7
100
AcDbLine
 10
41.037338
 20
204.072926
 30
0.0
 11
38.836005
 21
203.787176
 31
0.0
  0
LINE
  5
2fd
100
AcDbEntity
  8
Layer_1
 62
7
100
AcDbLine
 10
38.836005
 20
203.787176
 30
0.0
 11
34.338088
 21
203.310926
 31
0.0
  0
LINE
  5
2fe
100
AcDbEntity
  8
Layer_1
 62
7
100
AcDbLine
 10
34.338088
 20
203.310926
 30
0.0
 11
29.766088
 21
202.972259
 31
0.0
  0
LINE
  5
2ff
100
AcDbEntity
  8
Layer_1
 62
7
100
AcDbLine
 10
29.766088
 20
202.972259
 30
0.0
 11
25.194088
 21
202.739426
 31
0.0
  0
LINE
  5
300
100
AcDbEntity
  8
Layer_1
 62
7
100
AcDbLine
 10
25.194088
 20
202.739426
 30
0.0
 11
20.685588
 21
202.601843
 31
0.0
  0
LINE
  5
301
100
AcDbEntity
  8
Layer_1
 62
7
100
AcDbLine
 10
20.685588
 20
202.601843
 30
0.0
 11
16.314671
 21
202.538343
 31
0.0
  0
LINE
  5
302
100
AcDbEntity
  8
Layer_1
 62
7
100
AcDbLine
 10
16.314671
 20
202.538343
 30
0.0
 11
14.208588
 21
202.527759
 31
0.0
  0
LINE
  5
303
100
AcDbEntity
  8
Layer_1
 62
7
100
AcDbLine
 10
14.208588
 20
202.527759
 30
0.0
 11
12.155421
 21
202.517176
 31
0.0
  0
LINE
  5
304
100
AcDbEntity
  8
Layer_1
 62
7
100
AcDbLine
 10
12.155421
 20
202.517176
 30
0.0
 11
10.176338
 21
202.527759
 31
0.0
  0
LINE
  5
305
100
AcDbEntity
  8
Layer_1
 62
7
100
AcDbLine
 10
10.176338
 20
202.527759
 30
0.0
 11
8.271338
 21
202.538343
 31
0.0
  0
LINE
  5
306
100
AcDbEntity
  8
Layer_1
 62
7
100
AcDbLine
 10
8.271338
 20
202.538343
 30
0.0
 11
8.271338
 21
210.528759
 31
0.0
  0
LINE
  5
307
100
AcDbEntity
  8
Layer_1
 62
7
100
AcDbLine
 10
8.271338
 20
210.528759
 30
0.0
 11
10.663171
 21
210.528759
 31
0.0
  0
LINE
  5
308
100
AcDbEntity
  8
Layer_1
 62
7
100
AcDbLine
 10
10.663171
 20
210.528759
 30
0.0
 11
10.663171
 21
236.997676
 31
0.0
  0
LINE
  5
309
100
AcDbEntity
  8
Layer_1
 62
7
100
AcDbLine
 10
10.663171
 20
236.997676
 30
0.0
 11
8.271338
 21
236.997676
 31
0.0
  0
LINE
  5
30a
100
AcDbEntity
  8
Layer_1
 62
7
100
AcDbLine
 10
8.271338
 20
236.997676
 30
0.0
 11
8.271338
 21
243.347676
 31
0.0
  0
LINE
  5
30b
100
AcDbEntity
  8
Layer_1
 62
7
100
AcDbLine
 10
8.271338
 20
243.347676
 30
0.0
 11
10.472671
 21
242.934926
 31
0.0
  0
LINE
  5
30c
100
AcDbEntity
  8
Layer_1
 62
7
100
AcDbLine
 10
10.472671
 20
242.934926
 30
0.0
 11
12.716338
 21
242.479843
 31
0.0
  0
LINE
  5
30d
100
AcDbEntity
  8
Layer_1
 62
7
100
AcDbLine
 10
12.716338
 20
242.479843
 30
0.0
 11
17.309505
 21
241.485009
 31
0.0
  0
LINE
  5
30e
100
AcDbEntity
  8
Layer_1
 62
7
100
AcDbLine
 10
17.309505
 20
241.485009
 30
0.0
 11
22.008505
 21
240.373759
 31
0.0
  0
LINE
  5
30f
100
AcDbEntity
  8
Layer_1
 62
7
100
AcDbLine
 10
22.008505
 20
240.373759
 30
0.0
 11
26.739255
 21
239.146093
 31
0.0
  0
LINE
  5
310
100
AcDbEntity
  8
Layer_1
 62
7
100
AcDbLine
 10
26.739255
 20
239.146093
 30
0.0
 11
31.448838
 21
237.812593
 31
0.0
  0
LINE
  5
311
100
AcDbEntity
  8
Layer_1
 62
7
100
AcDbLine
 10
31.448838
 20
237.812593
 30
0.0
 11
36.073755
 21
236.383843
 31
0.0
  0
LINE
  5
312
100
AcDbEntity
  8
Layer_1
 62
7
100
AcDbLine
 10
36.073755
 20
236.383843
 30
0.0
 11
40.550505
 21
234.859843
 31
0.0
  0
LINE
  5
313
100
AcDbEntity
  8
Layer_1
 62
7
100
AcDbLine
 10
40.550505
 20
234.859843
 30
0.0
 11
42.720088
 21
234.066093
 31
0.0
  0
LINE
  5
314
100
AcDbEntity
  8
Layer_1
 62
7
100
AcDbLine
 10
42.720088
 20
234.066093
 30
0.0
 11
44.826171
 21
233.251176
 31
0.0
  0
LINE
  5
315
100
AcDbEntity
  8
Layer_1
 62
7
100
AcDbLine
 10
44.826171
 20
233.251176
 30
0.0
 11
46.858171
 21
232.415093
 31
0.0
  0
LINE
  5
316
100
AcDbEntity
  8
Layer_1
 62
7
100
AcDbLine
 10
46.858171
 20
232.415093
 30
0.0
 11
48.826671
 21
231.557843
 31
0.0
  0
LINE
  5
317
100
AcDbEntity
  8
Layer_1
 62
7
100
AcDbLine
 10
48.826671
 20
231.557843
 30
0.0
 11
50.710505
 21
230.679426
 31
0.0
  0
LINE
  5
318
100
AcDbEntity
  8
Layer_1
 62
7
100
AcDbLine
 10
50.710505
 20
230.679426
 30
0.0
 11
52.499088
 21
229.790426
 31
0.0
  0
LINE
  5
319
100
AcDbEntity
  8
Layer_1
 62
7
100
AcDbLine
 10
52.499088
 20
229.790426
 30
0.0
 11
54.192421
 21
228.880259
 31
0.0
  0
LINE
  5
31a
100
AcDbEntity
  8
Layer_1
 62
7
100
AcDbLine
 10
54.192421
 20
228.880259
 30
0.0
 11
55.790505
 21
227.959509
 31
0.0
  0
LINE
  5
31b
100
AcDbEntity
  8
Layer_1
 62
7
100
AcDbLine
 10
55.790505
 20
227.959509
 30
0.0
 11
57.261588
 21
227.017593
 31
0.0
  0
LINE
  5
31c
100
AcDbEntity
  8
Layer_1
 62
7
100
AcDbLine
 10
57.261588
 20
227.017593
 30
0.0
 11
58.626838
 21
226.065093
 31
0.0
  0
LINE
  5
31d
100
AcDbEntity
  8
Layer_1
 62
7
100
AcDbLine
 10
58.626838
 20
226.065093
 30
0.0
 11
59.854505
 21
225.102009
 31
0.0
  0
LINE
  5
31e
100
AcDbEntity
  8
Layer_1
 62
7
100
AcDbLine
 10
59.854505
 20
225.102009
 30
0.0
 11
60.944588
 21
224.117759
 31
0.0
  0
LINE
  5
31f
100
AcDbEntity
  8
Layer_1
 62
7
100
AcDbLine
 10
60.944588
 20
224.117759
 30
0.0
 11
61.897088
 21
223.133509
 31
0.0
  0
LINE
  5
320
100
AcDbEntity
  8
Layer_1
 62
7
100
AcDbLine
 10
61.897088
 20
223.133509
 30
0.0
 11
62.701421
 21
222.128093
 31
0.0
  0
LINE
  5
321
100
AcDbEntity
  8
Layer_1
 62
7
100
AcDbLine
 10
62.701421
 20
222.128093
 30
0.0
 11
63.336421
 21
221.112093
 31
0.0
  0
LINE
  5
322
100
AcDbEntity
  8
Layer_1
 62
7
100
AcDbLine
 10
63.336421
 20
221.112093
 30
0.0
 11
63.823255
 21
220.096093
 31
0.0
  0
ENDSEC
  0
SECTION
  2
OBJECTS
  0
DICTIONARY
  5
C
330
0
100
AcDbDictionary
  3
ACAD_GROUP
350
D
  3
ACAD_MLINESTYLE
350
17
  0
DICTIONARY
  5
D
330
C
100
AcDbDictionary
  0
DICTIONARY
  5
1A
330
C
100
AcDbDictionary
  0
DICTIONARY
  5
17
330
C
100
AcDbDictionary
  3
STANDARD
350
18
  0
DICTIONARY
  5
19
330
C
100
AcDbDictionary
  0
ENDSEC
  0
EOF
