  0
SECTION
  2
HEADER
  9
$ACADVER
  1
AC1014
  9
$HANDSEED
  5
FFFF
  9
$MEASUREMENT
 70
     1
  0
ENDSEC
  0
SECTION
  2
TABLES
  0
TABLE
  2
VPORT
  5
8
330
0
100
AcDbSymbolTable
 70
     4
  0
VPORT
  5
2E
330
8
100
AcDbSymbolTableRecord
100
AcDbViewportTableRecord
  2
*ACTIVE
 70
     0
 10
0.0
 20
0.0
 11
1.0
 21
1.0
 12
210.0
 22
148.5
 13
0.0
 23
0.0
 14
10.0
 24
10.0
 15
10.0
 25
10.0
 16
0.0
 26
0.0
 36
1.0
 17
0.0
 27
0.0
 37
0.0
 40
341.0
 41
1.24
 42
50.0
 43
0.0
 44
0.0
 50
0.0
 51
0.0
 71
     0
 72
   100
 73
     1
 74
     3
 75
     0
 76
     0
 77
     0
 78
     0
  0
ENDTAB
  0
TABLE
  2
LTYPE
  5
5
330
0
100
AcDbSymbolTable
 70
     1
  0
LTYPE
  5
14
330
5
100
AcDbSymbolTableRecord
100
AcDbLinetypeTableRecord
  2
BYBLOCK
 70
     0
  3

 72
    65
 73
     0
 40
0.0
  0
LTYPE
  5
15
330
5
100
AcDbSymbolTableRecord
100
AcDbLinetypeTableRecord
  2
BYLAYER
 70
     0
  3

 72
    65
 73
     0
 40
0.0
  0
LTYPE
  5
16
330
5
100
AcDbSymbolTableRecord
100
AcDbLinetypeTableRecord
  2
CONTINUOUS
 70
     0
  3
Solid line
 72
    65
 73
     0
 40
0.0
  0
ENDTAB
  0
TABLE
  2
LAYER
  5
2
100
AcDbSymbolTable
 70
2
  0
LAYER
  5
50
100
AcDbSymbolTableRecord
100
AcDbLayerTableRecord
  2
0
 70
0
  6
CONTINUOUS
  0
LAYER
  5
51
100
AcDbSymbolTableRecord
100
AcDbLayerTableRecord
  2
Layer_1
 70
0
  6
CONTINUOUS
  0
ENDTAB
  0
TABLE
  2
STYLE
  5
3
330
0
100
AcDbSymbolTable
 70
     1
  0
STYLE
  5
11
330
3
100
AcDbSymbolTableRecord
100
AcDbTextStyleTableRecord
  2
STANDARD
 70
     0
 40
0.0
 41
1.0
 50
0.0
 71
     0
 42
2.5
  3
txt
  4

  0
ENDTAB
  0
TABLE
  2
VIEW
  5
6
330
0
100
AcDbSymbolTable
 70
     0
  0
ENDTAB
  0
TABLE
  2
UCS
  5
7
330
0
100
AcDbSymbolTable
 70
     0
  0
ENDTAB
  0
TABLE
  2
APPID
  5
9
330
0
100
AcDbSymbolTable
 70
     2
  0
APPID
  5
12
330
9
100
AcDbSymbolTableRecord
100
AcDbRegAppTableRecord
  2
ACAD
 70
     0
  0
ENDTAB
  0
TABLE
  2
DIMSTYLE
  5
A
330
0
100
AcDbSymbolTable
 70
     1
  0
DIMSTYLE
105
27
330
A
100
AcDbSymbolTableRecord
100
AcDbDimStyleTableRecord
  2
ISO-25
 70
     0
  3

  4

  5

  6

  7

 40
1.0
 41
2.5
 42
0.625
 43
3.75
 44
1.25
 45
0.0
 46
0.0
 47
0.0
 48
0.0
140
2.5
141
2.5
142
0.0
143
0.03937007874016
144
1.0
145
0.0
146
1.0
147
0.625
 71
     0
 72
     0
 73
     0
 74
     0
 75
     0
 76
     0
 77
     1
 78
     8
170
     0
171
     3
172
     1
173
     0
174
     0
175
     0
176
     0
177
     0
178
     0
270
     2
271
     2
272
     2
273
     2
274
     3
340
11
275
     0
280
     0
281
     0
282
     0
283
     0
284
     8
285
     0
286
     0
287
     3
288
     0
  0
ENDTAB
  0
TABLE
  2
BLOCK_RECORD
  5
1
330
0
100
AcDbSymbolTable
 70
     1
  0
BLOCK_RECORD
  5
1F
330
1
100
AcDbSymbolTableRecord
100
AcDbBlockTableRecord
  2
*MODEL_SPACE
  0
BLOCK_RECORD
  5
1B
330
1
100
AcDbSymbolTableRecord
100
AcDbBlockTableRecord
  2
*PAPER_SPACE
  0
ENDTAB
  0
ENDSEC
  0
SECTION
  2
BLOCKS
  0
BLOCK
  5
20
330
1F
100
AcDbEntity
  8
0
100
AcDbBlockBegin
  2
*MODEL_SPACE
 70
     0
 10
0.0
 20
0.0
 30
0.0
  3
*MODEL_SPACE
  1

  0
ENDBLK
  5
21
330
1F
100
AcDbEntity
  8
0
100
AcDbBlockEnd
  0
BLOCK
  5
1C
330
1B
100
AcDbEntity
 67
     1
  8
0
100
AcDbBlockBegin
  2
*PAPER_SPACE
  1

  0
ENDBLK
  5
1D
330
1B
100
AcDbEntity
 67
     1
  8
0
100
AcDbBlockEnd
  0
ENDSEC
  0
SECTION
  2
ENTITIES
  0
LWPOLYLINE
  5
100
100
AcDbEntity
  8
Layer_1
 62
7
100
AcDbPolyline
 90
6
 70
0
 10
36.593698
 20
252.046236
 30
0.0
 10
36.593698
 20
257.930569
 30
0.0
 10
34.434698
 20
260.047236
 30
0.0
 10
32.550865
 20
260.047236
 30
0.0
 10
32.550865
 20
262.798903
 30
0.0
 10
30.688198
 20
262.798903
 30
0.0
  0
SPLINE
  5
101
100
AcDbEntity
  8
Layer_1
 62
7
100
AcDbSpline
 70
8
 71
3
 72
8
 73
4
 74
0
 40
0
 40
0
 40
0
 40
0
 40
1
 40
1
 40
1
 40
1
 10
20.531974
 20
246.096997
 30
0.0
 10
20.104814
 20
245.360345
 30
0.0
 10
20.103529
 20
244.451663
 30
0.0
 10
20.528604
 20
243.713806
 30
0.0
  0
SPLINE
  5
102
100
AcDbEntity
  8
Layer_1
 62
7
100
AcDbSpline
 70
8
 71
3
 72
8
 73
4
 74
0
 40
0
 40
0
 40
0
 40
0
 40
1
 40
1
 40
1
 40
1
 10
20.528604
 20
243.713806
 30
0.0
 10
20.953678
 20
242.975949
 30
0.0
 10
21.740407
 20
242.521236
 30
0.0
 10
22.591948
 20
242.521236
 30
0.0
  0
LWPOLYLINE
  5
103
100
AcDbEntity
  8
Layer_1
 62
7
100
AcDbPolyline
 90
2
 70
0
 10
28.190531
 20
242.521236
 30
0.0
 10
22.602531
 20
242.521236
 30
0.0
  0
LWPOLYLINE
  5
104
100
AcDbEntity
  8
Layer_1
 62
7
100
AcDbPolyline
 90
4
 70
0
 10
36.593698
 20
252.046236
 30
0.0
 10
34.434698
 20
249.866069
 30
0.0
 10
32.550865
 20
249.866069
 30
0.0
 10
32.550865
 20
246.881569
 30
0.0
  0
LWPOLYLINE
  5
105
100
AcDbEntity
  8
Layer_1
 62
7
100
AcDbPolyline
 90
14
 70
0
 10
25.079031
 20
245.040069
 30
0.0
 10
24.952031
 20
245.230569
 30
0.0
 10
24.613365
 20
245.336403
 30
0.0
 10
24.380531
 20
245.272903
 30
0.0
 10
24.253531
 20
245.230569
 30
0.0
 10
24.147698
 20
245.040069
 30
0.0
 10
24.084198
 20
244.807236
 30
0.0
 10
24.147698
 20
244.637903
 30
0.0
 10
24.253531
 20
244.468569
 30
0.0
 10
24.380531
 20
244.405069
 30
0.0
 10
24.613365
 20
244.341569
 30
0.0
 10
24.952031
 20
244.468569
 30
0.0
 10
25.079031
 20
244.637903
 30
0.0
 10
25.079031
 20
245.040069
 30
0.0
  0
SPLINE
  5
106
100
AcDbEntity
  8
Layer_1
 62
7
100
AcDbSpline
 70
8
 71
3
 72
8
 73
4
 74
0
 40
0
 40
0
 40
0
 40
0
 40
1
 40
1
 40
1
 40
1
 10
30.677615
 20
262.820069
 30
0.0
 10
30.394570
 20
262.820069
 30
0.0
 10
30.132941
 20
262.669347
 30
0.0
 10
29.990957
 20
262.424490
 30
0.0
  0
SPLINE
  5
107
100
AcDbEntity
  8
Layer_1
 62
7
100
AcDbSpline
 70
8
 71
3
 72
8
 73
4
 74
0
 40
0
 40
0
 40
0
 40
0
 40
1
 40
1
 40
1
 40
1
 10
32.540281
 20
246.902736
 30
0.0
 10
30.126291
 20
246.902736
 30
0.0
 10
28.169365
 20
244.945810
 30
0.0
 10
28.169365
 20
242.531819
 30
0.0
  0
LWPOLYLINE
  5
108
100
AcDbEntity
  8
Layer_1
 62
7
100
AcDbPolyline
 90
2
 70
0
 10
20.528198
 20
246.098403
 30
0.0
 10
29.989698
 20
262.417903
 30
0.0
  0
SPLINE
  5
109
100
AcDbEntity
  8
Layer_1
 62
7
100
AcDbSpline
 70
8
 71
3
 72
8
 73
4
 74
0
 40
0
 40
0
 40
0
 40
0
 40
1
 40
1
 40
1
 40
1
 10
15.213008
 20
273.807432
 30
0.0
 10
15.213008
 20
274.245808
 30
0.0
 10
14.857634
 20
274.601182
 30
0.0
 10
14.419258
 20
274.601182
 30
0.0
  0
LWPOLYLINE
  5
10a
100
AcDbEntity
  8
Layer_1
 62
7
100
AcDbPolyline
 90
2
 70
0
 10
10.873842
 20
274.580015
 30
0.0
 10
14.408675
 20
274.580015
 30
0.0
  0
SPLINE
  5
10b
100
AcDbEntity
  8
Layer_1
 62
7
100
AcDbSpline
 70
8
 71
3
 72
8
 73
4
 74
0
 40
0
 40
0
 40
0
 40
0
 40
1
 40
1
 40
1
 40
1
 10
14.419258
 20
269.415349
 30
0.0
 10
14.857634
 20
269.415349
 30
0.0
 10
15.213008
 20
269.770723
 30
0.0
 10
15.213008
 20
270.209099
 30
0.0
  0
LWPOLYLINE
  5
10c
100
AcDbEntity
  8
Layer_1
 62
7
100
AcDbPolyline
 90
2
 70
0
 10
15.213008
 20
273.796849
 30
0.0
 10
15.213008
 20
270.198515
 30
0.0
  0
SPLINE
  5
10d
100
AcDbEntity
  8
Layer_1
 62
7
100
AcDbSpline
 70
8
 71
3
 72
8
 73
4
 74
0
 40
0
 40
0
 40
0
 40
0
 40
1
 40
1
 40
1
 40
1
 10
10.090675
 20
270.209099
 30
0.0
 10
10.090675
 20
269.770723
 30
0.0
 10
10.446049
 20
269.415349
 30
0.0
 10
10.884425
 20
269.415349
 30
0.0
  0
LWPOLYLINE
  5
10e
100
AcDbEntity
  8
Layer_1
 62
7
100
AcDbPolyline
 90
2
 70
0
 10
14.408675
 20
269.415349
 30
0.0
 10
10.873842
 20
269.415349
 30
0.0
  0
SPLINE
  5
10f
100
AcDbEntity
  8
Layer_1
 62
7
100
AcDbSpline
 70
8
 71
3
 72
8
 73
4
 74
0
 40
0
 40
0
 40
0
 40
0
 40
1
 40
1
 40
1
 40
1
 10
10.884425
 20
274.601182
 30
0.0
 10
10.446049
 20
274.601182
 30
0.0
 10
10.090675
 20
274.245808
 30
0.0
 10
10.090675
 20
273.807432
 30
0.0
  0
LWPOLYLINE
  5
110
100
AcDbEntity
  8
Layer_1
 62
7
100
AcDbPolyline
 90
2
 70
0
 10
10.090675
 20
270.198515
 30
0.0
 10
10.090675
 20
273.796849
 30
0.0
  0
SPLINE
  5
111
100
AcDbEntity
  8
Layer_1
 62
7
100
AcDbSpline
 70
8
 71
3
 72
8
 73
4
 74
0
 40
0
 40
0
 40
0
 40
0
 40
1
 40
1
 40
1
 40
1
 10
32.537925
 20
288.126682
 30
0.0
 10
32.976301
 20
288.126682
 30
0.0
 10
33.331675
 20
288.482056
 30
0.0
 10
33.331675
 20
288.920432
 30
0.0
  0
LWPOLYLINE
  5
112
100
AcDbEntity
  8
Layer_1
 62
7
100
AcDbPolyline
 90
2
 70
0
 10
33.310508
 20
288.909849
 30
0.0
 10
33.310508
 20
291.661515
 30
0.0
  0
SPLINE
  5
113
100
AcDbEntity
  8
Layer_1
 62
7
100
AcDbSpline
 70
8
 71
3
 72
8
 73
4
 74
0
 40
0
 40
0
 40
0
 40
0
 40
1
 40
1
 40
1
 40
1
 10
28.209342
 20
288.920432
 30
0.0
 10
28.209342
 20
288.482056
 30
0.0
 10
28.564716
 20
288.126682
 30
0.0
 10
29.003092
 20
288.126682
 30
0.0
  0
LWPOLYLINE
  5
114
100
AcDbEntity
  8
Layer_1
 62
7
100
AcDbPolyline
 90
2
 70
0
 10
28.992508
 20
288.105515
 30
0.0
 10
32.527342
 20
288.105515
 30
0.0
  0
LWPOLYLINE
  5
115
100
AcDbEntity
  8
Layer_1
 62
7
100
AcDbPolyline
 90
2
 70
0
 10
28.209342
 20
288.909849
 30
0.0
 10
28.209342
 20
291.661515
 30
0.0
  0
LWPOLYLINE
  5
116
100
AcDbEntity
  8
Layer_1
 62
7
100
AcDbPolyline
 90
2
 70
0
 10
6.492342
 20
266.261515
 30
0.0
 10
36.972342
 20
266.261515
 30
0.0
  0
LWPOLYLINE
  5
117
100
AcDbEntity
  8
Layer_1
 62
7
100
AcDbPolyline
 90
2
 70
0
 10
6.492342
 20
291.661515
 30
0.0
 10
28.209342
 20
291.661515
 30
0.0
  0
SPLINE
  5
118
100
AcDbEntity
  8
Layer_1
 62
7
100
AcDbSpline
 70
8
 71
3
 72
8
 73
4
 74
0
 40
0
 40
0
 40
0
 40
0
 40
1
 40
1
 40
1
 40
1
 10
14.662675
 20
279.480099
 30
0.0
 10
14.662675
 20
279.918475
 30
0.0
 10
14.307301
 20
280.273849
 30
0.0
 10
13.868925
 20
280.273849
 30
0.0
  0
SPLINE
  5
119
100
AcDbEntity
  8
Layer_1
 62
7
100
AcDbSpline
 70
8
 71
3
 72
8
 73
4
 74
0
 40
0
 40
0
 40
0
 40
0
 40
1
 40
1
 40
1
 40
1
 10
13.868925
 20
280.273849
 30
0.0
 10
13.430549
 20
280.273849
 30
0.0
 10
13.075175
 20
279.918475
 30
0.0
 10
13.075175
 20
279.480099
 30
0.0
  0
SPLINE
  5
11a
100
AcDbEntity
  8
Layer_1
 62
7
100
AcDbSpline
 70
8
 71
3
 72
8
 73
4
 74
0
 40
0
 40
0
 40
0
 40
0
 40
1
 40
1
 40
1
 40
1
 10
13.075175
 20
279.480099
 30
0.0
 10
13.075175
 20
279.041723
 30
0.0
 10
13.430549
 20
278.686349
 30
0.0
 10
13.868925
 20
278.686349
 30
0.0
  0
SPLINE
  5
11b
100
AcDbEntity
  8
Layer_1
 62
7
100
AcDbSpline
 70
8
 71
3
 72
8
 73
4
 74
0
 40
0
 40
0
 40
0
 40
0
 40
1
 40
1
 40
1
 40
1
 10
13.868925
 20
278.686349
 30
0.0
 10
14.307301
 20
278.686349
 30
0.0
 10
14.662675
 20
279.041723
 30
0.0
 10
14.662675
 20
279.480099
 30
0.0
  0
SPLINE
  5
11c
100
AcDbEntity
  8
Layer_1
 62
7
100
AcDbSpline
 70
8
 71
3
 72
8
 73
4
 74
0
 40
0
 40
0
 40
0
 40
0
 40
1
 40
1
 40
1
 40
1
 10
30.410675
 20
279.480099
 30
0.0
 10
30.410675
 20
279.918475
 30
0.0
 10
30.055301
 20
280.273849
 30
0.0
 10
29.616925
 20
280.273849
 30
0.0
  0
SPLINE
  5
11d
100
AcDbEntity
  8
Layer_1
 62
7
100
AcDbSpline
 70
8
 71
3
 72
8
 73
4
 74
0
 40
0
 40
0
 40
0
 40
0
 40
1
 40
1
 40
1
 40
1
 10
29.616925
 20
280.273849
 30
0.0
 10
29.178549
 20
280.273849
 30
0.0
 10
28.823175
 20
279.918475
 30
0.0
 10
28.823175
 20
279.480099
 30
0.0
  0
SPLINE
  5
11e
100
AcDbEntity
  8
Layer_1
 62
7
100
AcDbSpline
 70
8
 71
3
 72
8
 73
4
 74
0
 40
0
 40
0
 40
0
 40
0
 40
1
 40
1
 40
1
 40
1
 10
28.823175
 20
279.480099
 30
0.0
 10
28.823175
 20
279.041723
 30
0.0
 10
29.178549
 20
278.686349
 30
0.0
 10
29.616925
 20
278.686349
 30
0.0
  0
SPLINE
  5
11f
100
AcDbEntity
  8
Layer_1
 62
7
100
AcDbSpline
 70
8
 71
3
 72
8
 73
4
 74
0
 40
0
 40
0
 40
0
 40
0
 40
1
 40
1
 40
1
 40
1
 10
29.616925
 20
278.686349
 30
0.0
 10
30.055301
 20
278.686349
 30
0.0
 10
30.410675
 20
279.041723
 30
0.0
 10
30.410675
 20
279.480099
 30
0.0
  0
SPLINE
  5
120
100
AcDbEntity
  8
Layer_1
 62
7
100
AcDbSpline
 70
8
 71
3
 72
8
 73
4
 74
0
 40
0
 40
0
 40
0
 40
0
 40
1
 40
1
 40
1
 40
1
 10
22.282675
 20
285.639599
 30
0.0
 10
22.282675
 20
285.937694
 30
0.0
 10
22.041021
 20
286.179349
 30
0.0
 10
21.742925
 20
286.179349
 30
0.0
  0
SPLINE
  5
121
100
AcDbEntity
  8
Layer_1
 62
7
100
AcDbSpline
 70
8
 71
3
 72
8
 73
4
 74
0
 40
0
 40
0
 40
0
 40
0
 40
1
 40
1
 40
1
 40
1
 10
21.742925
 20
286.179349
 30
0.0
 10
21.444829
 20
286.179349
 30
0.0
 10
21.203175
 20
285.937694
 30
0.0
 10
21.203175
 20
285.639599
 30
0.0
  0
SPLINE
  5
122
100
AcDbEntity
  8
Layer_1
 62
7
100
AcDbSpline
 70
8
 71
3
 72
8
 73
4
 74
0
 40
0
 40
0
 40
0
 40
0
 40
1
 40
1
 40
1
 40
1
 10
21.203175
 20
285.639599
 30
0.0
 10
21.203175
 20
285.341503
 30
0.0
 10
21.444829
 20
285.099849
 30
0.0
 10
21.742925
 20
285.099849
 30
0.0
  0
SPLINE
  5
123
100
AcDbEntity
  8
Layer_1
 62
7
100
AcDbSpline
 70
8
 71
3
 72
8
 73
4
 74
0
 40
0
 40
0
 40
0
 40
0
 40
1
 40
1
 40
1
 40
1
 10
21.742925
 20
285.099849
 30
0.0
 10
22.041021
 20
285.099849
 30
0.0
 10
22.282675
 20
285.341503
 30
0.0
 10
22.282675
 20
285.639599
 30
0.0
  0
SPLINE
  5
124
100
AcDbEntity
  8
Layer_1
 62
7
100
AcDbSpline
 70
8
 71
3
 72
8
 73
4
 74
0
 40
0
 40
0
 40
0
 40
0
 40
1
 40
1
 40
1
 40
1
 10
22.282675
 20
273.532265
 30
0.0
 10
22.282675
 20
273.830361
 30
0.0
 10
22.041021
 20
274.072015
 30
0.0
 10
21.742925
 20
274.072015
 30
0.0
  0
SPLINE
  5
125
100
AcDbEntity
  8
Layer_1
 62
7
100
AcDbSpline
 70
8
 71
3
 72
8
 73
4
 74
0
 40
0
 40
0
 40
0
 40
0
 40
1
 40
1
 40
1
 40
1
 10
21.742925
 20
274.072015
 30
0.0
 10
21.444829
 20
274.072015
 30
0.0
 10
21.203175
 20
273.830361
 30
0.0
 10
21.203175
 20
273.532265
 30
0.0
  0
SPLINE
  5
126
100
AcDbEntity
  8
Layer_1
 62
7
100
AcDbSpline
 70
8
 71
3
 72
8
 73
4
 74
0
 40
0
 40
0
 40
0
 40
0
 40
1
 40
1
 40
1
 40
1
 10
21.203175
 20
273.532265
 30
0.0
 10
21.203175
 20
273.234170
 30
0.0
 10
21.444829
 20
272.992515
 30
0.0
 10
21.742925
 20
272.992515
 30
0.0
  0
SPLINE
  5
127
100
AcDbEntity
  8
Layer_1
 62
7
100
AcDbSpline
 70
8
 71
3
 72
8
 73
4
 74
0
 40
0
 40
0
 40
0
 40
0
 40
1
 40
1
 40
1
 40
1
 10
21.742925
 20
272.992515
 30
0.0
 10
22.041021
 20
272.992515
 30
0.0
 10
22.282675
 20
273.234170
 30
0.0
 10
22.282675
 20
273.532265
 30
0.0
  0
SPLINE
  5
128
100
AcDbEntity
  8
Layer_1
 62
7
100
AcDbSpline
 70
8
 71
3
 72
8
 73
4
 74
0
 40
0
 40
0
 40
0
 40
0
 40
1
 40
1
 40
1
 40
1
 10
24.928508
 20
279.585932
 30
0.0
 10
24.928508
 20
281.345281
 30
0.0
 10
23.502274
 20
282.771515
 30
0.0
 10
21.742925
 20
282.771515
 30
0.0
  0
SPLINE
  5
129
100
AcDbEntity
  8
Layer_1
 62
7
100
AcDbSpline
 70
8
 71
3
 72
8
 73
4
 74
0
 40
0
 40
0
 40
0
 40
0
 40
1
 40
1
 40
1
 40
1
 10
21.742925
 20
282.771515
 30
0.0
 10
19.983576
 20
282.771515
 30
0.0
 10
18.557342
 20
281.345281
 30
0.0
 10
18.557342
 20
279.585932
 30
0.0
  0
SPLINE
  5
12a
100
AcDbEntity
  8
Layer_1
 62
7
100
AcDbSpline
 70
8
 71
3
 72
8
 73
4
 74
0
 40
0
 40
0
 40
0
 40
0
 40
1
 40
1
 40
1
 40
1
 10
18.557342
 20
279.585932
 30
0.0
 10
18.557342
 20
277.826583
 30
0.0
 10
19.983576
 20
276.400349
 30
0.0
 10
21.742925
 20
276.400349
 30
0.0
  0
SPLINE
  5
12b
100
AcDbEntity
  8
Layer_1
 62
7
100
AcDbSpline
 70
8
 71
3
 72
8
 73
4
 74
0
 40
0
 40
0
 40
0
 40
0
 40
1
 40
1
 40
1
 40
1
 10
21.742925
 20
276.400349
 30
0.0
 10
23.502274
 20
276.400349
 30
0.0
 10
24.928508
 20
277.826583
 30
0.0
 10
24.928508
 20
279.585932
 30
0.0
  0
LWPOLYLINE
  5
12c
100
AcDbEntity
  8
Layer_1
 62
7
100
AcDbPolyline
 90
2
 70
0
 10
33.310508
 20
291.661515
 30
0.0
 10
36.972342
 20
291.661515
 30
0.0
  0
LWPOLYLINE
  5
12d
100
AcDbEntity
  8
Layer_1
 62
7
100
AcDbPolyline
 90
2
 70
0
 10
36.972342
 20
266.261515
 30
0.0
 10
36.972342
 20
291.661515
 30
0.0
  0
LWPOLYLINE
  5
12e
100
AcDbEntity
  8
Layer_1
 62
7
100
AcDbPolyline
 90
2
 70
0
 10
6.492342
 20
266.261515
 30
0.0
 10
6.492342
 20
291.661515
 30
0.0
  0
LWPOLYLINE
  5
12f
100
AcDbEntity
  8
Layer_1
 62
7
100
AcDbPolyline
 90
6
 70
0
 10
6.612862
 20
253.589978
 30
0.0
 10
6.612862
 20
247.705644
 30
0.0
 10
8.771862
 20
245.588978
 30
0.0
 10
10.655695
 20
245.588978
 30
0.0
 10
10.655695
 20
242.837311
 30
0.0
 10
12.518362
 20
242.837311
 30
0.0
  0
SPLINE
  5
130
100
AcDbEntity
  8
Layer_1
 62
7
100
AcDbSpline
 70
8
 71
3
 72
8
 73
4
 74
0
 40
0
 40
0
 40
0
 40
0
 40
1
 40
1
 40
1
 40
1
 10
22.674586
 20
259.539216
 30
0.0
 10
23.101746
 20
260.275868
 30
0.0
 10
23.103031
 20
261.184551
 30
0.0
 10
22.677956
 20
261.922408
 30
0.0
  0
SPLINE
  5
131
100
AcDbEntity
  8
Layer_1
 62
7
100
AcDbSpline
 70
8
 71
3
 72
8
 73
4
 74
0
 40
0
 40
0
 40
0
 40
0
 40
1
 40
1
 40
1
 40
1
 10
22.677956
 20
261.922408
 30
0.0
 10
22.252882
 20
262.660265
 30
0.0
 10
21.466152
 20
263.114978
 30
0.0
 10
20.614612
 20
263.114978
 30
0.0
  0
LWPOLYLINE
  5
132
100
AcDbEntity
  8
Layer_1
 62
7
100
AcDbPolyline
 90
2
 70
0
 10
15.016028
 20
263.114978
 30
0.0
 10
20.604028
 20
263.114978
 30
0.0
  0
LWPOLYLINE
  5
133
100
AcDbEntity
  8
Layer_1
 62
7
100
AcDbPolyline
 90
4
 70
0
 10
6.612862
 20
253.589978
 30
0.0
 10
8.771862
 20
255.770147
 30
0.0
 10
10.655695
 20
255.770147
 30
0.0
 10
10.655695
 20
258.754644
 30
0.0
  0
LWPOLYLINE
  5
134
100
AcDbEntity
  8
Layer_1
 62
7
100
AcDbPolyline
 90
14
 70
0
 10
18.127528
 20
260.596144
 30
0.0
 10
18.254528
 20
260.405644
 30
0.0
 10
18.593195
 20
260.299811
 30
0.0
 10
18.826028
 20
260.363311
 30
0.0
 10
18.953028
 20
260.405644
 30
0.0
 10
19.058862
 20
260.596144
 30
0.0
 10
19.122362
 20
260.828978
 30
0.0
 10
19.058862
 20
260.998311
 30
0.0
 10
18.953028
 20
261.167644
 30
0.0
 10
18.826028
 20
261.231144
 30
0.0
 10
18.593195
 20
261.294644
 30
0.0
 10
18.254528
 20
261.167644
 30
0.0
 10
18.127528
 20
260.998311
 30
0.0
 10
18.127528
 20
260.596144
 30
0.0
  0
SPLINE
  5
135
100
AcDbEntity
  8
Layer_1
 62
7
100
AcDbSpline
 70
8
 71
3
 72
8
 73
4
 74
0
 40
0
 40
0
 40
0
 40
0
 40
1
 40
1
 40
1
 40
1
 10
12.528945
 20
242.816144
 30
0.0
 10
12.811990
 20
242.816144
 30
0.0
 10
13.073619
 20
242.966867
 30
0.0
 10
13.215603
 20
243.211724
 30
0.0
  0
SPLINE
  5
136
100
AcDbEntity
  8
Layer_1
 62
7
100
AcDbSpline
 70
8
 71
3
 72
8
 73
4
 74
0
 40
0
 40
0
 40
0
 40
0
 40
1
 40
1
 40
1
 40
1
 10
10.666278
 20
258.733478
 30
0.0
 10
13.080269
 20
258.733478
 30
0.0
 10
15.037195
 20
260.690403
 30
0.0
 10
15.037195
 20
263.104394
 30
0.0
  0
LWPOLYLINE
  5
137
100
AcDbEntity
  8
Layer_1
 62
7
100
AcDbPolyline
 90
2
 70
0
 10
22.678362
 20
259.537811
 30
0.0
 10
13.216862
 20
243.218311
 30
0.0
  0
ENDSEC
  0
SECTION
  2
OBJECTS
  0
DICTIONARY
  5
C
330
0
100
AcDbDictionary
  3
ACAD_GROUP
350
D
  3
ACAD_MLINESTYLE
350
17
  0
DICTIONARY
  5
D
330
C
100
AcDbDictionary
  0
DICTIONARY
  5
1A
330
C
100
AcDbDictionary
  0
DICTIONARY
  5
17
330
C
100
AcDbDictionary
  3
STANDARD
350
18
  0
DICTIONARY
  5
19
330
C
100
AcDbDictionary
  0
ENDSEC
  0
EOF
