  0
SECTION
  2
HEADER
  9
$ACADVER
  1
AC1014
  9
$HANDSEED
  5
FFFF
  9
$MEASUREMENT
 70
     1
  0
ENDSEC
  0
SECTION
  2
TABLES
  0
TABLE
  2
VPORT
  5
8
330
0
100
AcDbSymbolTable
 70
     4
  0
VPORT
  5
2E
330
8
100
AcDbSymbolTableRecord
100
AcDbViewportTableRecord
  2
*ACTIVE
 70
     0
 10
0.0
 20
0.0
 11
1.0
 21
1.0
 12
210.0
 22
148.5
 13
0.0
 23
0.0
 14
10.0
 24
10.0
 15
10.0
 25
10.0
 16
0.0
 26
0.0
 36
1.0
 17
0.0
 27
0.0
 37
0.0
 40
341.0
 41
1.24
 42
50.0
 43
0.0
 44
0.0
 50
0.0
 51
0.0
 71
     0
 72
   100
 73
     1
 74
     3
 75
     0
 76
     0
 77
     0
 78
     0
  0
ENDTAB
  0
TABLE
  2
LTYPE
  5
5
330
0
100
AcDbSymbolTable
 70
     1
  0
LTYPE
  5
14
330
5
100
AcDbSymbolTableRecord
100
AcDbLinetypeTableRecord
  2
BYBLOCK
 70
     0
  3

 72
    65
 73
     0
 40
0.0
  0
LTYPE
  5
15
330
5
100
AcDbSymbolTableRecord
100
AcDbLinetypeTableRecord
  2
BYLAYER
 70
     0
  3

 72
    65
 73
     0
 40
0.0
  0
LTYPE
  5
16
330
5
100
AcDbSymbolTableRecord
100
AcDbLinetypeTableRecord
  2
CONTINUOUS
 70
     0
  3
Solid line
 72
    65
 73
     0
 40
0.0
  0
ENDTAB
  0
TABLE
  2
LAYER
  5
2
100
AcDbSymbolTable
 70
4
  0
LAYER
  5
50
100
AcDbSymbolTableRecord
100
AcDbLayerTableRecord
  2
0
 70
0
  6
CONTINUOUS
  0
LAYER
  5
51
100
AcDbSymbolTableRecord
100
AcDbLayerTableRecord
  2
Halfcuts
 70
0
  6
CONTINUOUS
  0
LAYER
  5
52
100
AcDbSymbolTableRecord
100
AcDbLayerTableRecord
  2
Fullcuts
 70
0
  6
CONTINUOUS
  0
LAYER
  5
53
100
AcDbSymbolTableRecord
100
AcDbLayerTableRecord
  2
Score
 70
0
  6
CONTINUOUS
  0
ENDTAB
  0
TABLE
  2
STYLE
  5
3
330
0
100
AcDbSymbolTable
 70
     1
  0
STYLE
  5
11
330
3
100
AcDbSymbolTableRecord
100
AcDbTextStyleTableRecord
  2
STANDARD
 70
     0
 40
0.0
 41
1.0
 50
0.0
 71
     0
 42
2.5
  3
txt
  4

  0
ENDTAB
  0
TABLE
  2
VIEW
  5
6
330
0
100
AcDbSymbolTable
 70
     0
  0
ENDTAB
  0
TABLE
  2
UCS
  5
7
330
0
100
AcDbSymbolTable
 70
     0
  0
ENDTAB
  0
TABLE
  2
APPID
  5
9
330
0
100
AcDbSymbolTable
 70
     2
  0
APPID
  5
12
330
9
100
AcDbSymbolTableRecord
100
AcDbRegAppTableRecord
  2
ACAD
 70
     0
  0
ENDTAB
  0
TABLE
  2
DIMSTYLE
  5
A
330
0
100
AcDbSymbolTable
 70
     1
  0
DIMSTYLE
105
27
330
A
100
AcDbSymbolTableRecord
100
AcDbDimStyleTableRecord
  2
ISO-25
 70
     0
  3

  4

  5

  6

  7

 40
1.0
 41
2.5
 42
0.625
 43
3.75
 44
1.25
 45
0.0
 46
0.0
 47
0.0
 48
0.0
140
2.5
141
2.5
142
0.0
143
0.03937007874016
144
1.0
145
0.0
146
1.0
147
0.625
 71
     0
 72
     0
 73
     0
 74
     0
 75
     0
 76
     0
 77
     1
 78
     8
170
     0
171
     3
172
     1
173
     0
174
     0
175
     0
176
     0
177
     0
178
     0
270
     2
271
     2
272
     2
273
     2
274
     3
340
11
275
     0
280
     0
281
     0
282
     0
283
     0
284
     8
285
     0
286
     0
287
     3
288
     0
  0
ENDTAB
  0
TABLE
  2
BLOCK_RECORD
  5
1
330
0
100
AcDbSymbolTable
 70
     1
  0
BLOCK_RECORD
  5
1F
330
1
100
AcDbSymbolTableRecord
100
AcDbBlockTableRecord
  2
*MODEL_SPACE
  0
BLOCK_RECORD
  5
1B
330
1
100
AcDbSymbolTableRecord
100
AcDbBlockTableRecord
  2
*PAPER_SPACE
  0
ENDTAB
  0
ENDSEC
  0
SECTION
  2
BLOCKS
  0
BLOCK
  5
20
330
1F
100
AcDbEntity
  8
0
100
AcDbBlockBegin
  2
*MODEL_SPACE
 70
     0
 10
0.0
 20
0.0
 30
0.0
  3
*MODEL_SPACE
  1

  0
ENDBLK
  5
21
330
1F
100
AcDbEntity
  8
0
100
AcDbBlockEnd
  0
BLOCK
  5
1C
330
1B
100
AcDbEntity
 67
     1
  8
0
100
AcDbBlockBegin
  2
*PAPER_SPACE
  1

  0
ENDBLK
  5
1D
330
1B
100
AcDbEntity
 67
     1
  8
0
100
AcDbBlockEnd
  0
ENDSEC
  0
SECTION
  2
ENTITIES
  0
LWPOLYLINE
  5
100
100
AcDbEntity
  8
Halfcuts
 62
1
100
AcDbPolyline
 90
2
 70
0
 10
469.722906
 20
181.486360
 30
0.0
 10
469.722906
 20
242.496144
 30
0.0
  0
LWPOLYLINE
  5
101
100
AcDbEntity
  8
Halfcuts
 62
1
100
AcDbPolyline
 90
2
 70
0
 10
474.184500
 20
181.486360
 30
0.0
 10
473.976982
 20
242.496144
 30
0.0
  0
LWPOLYLINE
  5
102
100
AcDbEntity
  8
Halfcuts
 62
1
100
AcDbPolyline
 90
2
 70
0
 10
434.341355
 20
181.382587
 30
0.0
 10
434.341355
 20
242.392399
 30
0.0
  0
LWPOLYLINE
  5
103
100
AcDbEntity
  8
Halfcuts
 62
1
100
AcDbPolyline
 90
2
 70
0
 10
438.906722
 20
181.486360
 30
0.0
 10
438.699204
 20
242.392399
 30
0.0
  0
LWPOLYLINE
  5
104
100
AcDbEntity
  8
Halfcuts
 62
1
100
AcDbPolyline
 90
4
 70
0
 10
396.494875
 20
164.662698
 30
0.0
 10
308.893351
 20
164.662698
 30
0.0
 10
309.040078
 20
169.211528
 30
0.0
 10
396.641602
 20
169.211528
 30
0.0
  0
LWPOLYLINE
  5
105
100
AcDbEntity
  8
Halfcuts
 62
1
100
AcDbPolyline
 90
4
 70
0
 10
396.494875
 20
209.123762
 30
0.0
 10
309.040078
 20
209.123762
 30
0.0
 10
309.040078
 20
213.672591
 30
0.0
 10
396.348119
 20
213.672591
 30
0.0
  0
LWPOLYLINE
  5
106
100
AcDbEntity
  8
Halfcuts
 62
1
100
AcDbPolyline
 90
2
 70
0
 10
308.893351
 20
173.320119
 30
0.0
 10
308.893351
 20
205.161898
 30
0.0
  0
LWPOLYLINE
  5
107
100
AcDbEntity
  8
Halfcuts
 62
1
100
AcDbPolyline
 90
2
 70
0
 10
26.078874
 20
160.793093
 30
0.0
 10
26.078874
 20
192.543093
 30
0.0
  0
LWPOLYLINE
  5
108
100
AcDbEntity
  8
Halfcuts
 62
1
100
AcDbPolyline
 90
4
 70
0
 10
180.484218
 20
160.977046
 30
0.0
 10
34.628424
 20
160.977046
 30
0.0
 10
34.628424
 20
192.085131
 30
0.0
 10
181.071164
 20
192.085131
 30
0.0
  0
LWPOLYLINE
  5
109
100
AcDbEntity
  8
Halfcuts
 62
1
100
AcDbPolyline
 90
2
 70
0
 10
106.822641
 20
160.683591
 30
0.0
 10
106.822641
 20
192.085131
 30
0.0
  0
LWPOLYLINE
  5
10a
100
AcDbEntity
  8
Halfcuts
 62
1
100
AcDbPolyline
 90
2
 70
0
 10
25.257365
 20
210.363310
 30
0.0
 10
25.257365
 20
241.905792
 30
0.0
  0
LWPOLYLINE
  5
10b
100
AcDbEntity
  8
Halfcuts
 62
1
100
AcDbPolyline
 90
4
 70
0
 10
179.662709
 20
210.365060
 30
0.0
 10
33.806915
 20
210.365060
 30
0.0
 10
33.806915
 20
241.766600
 30
0.0
 10
179.662709
 20
241.766600
 30
0.0
  0
LWPOLYLINE
  5
10c
100
AcDbEntity
  8
Halfcuts
 62
1
100
AcDbPolyline
 90
2
 70
0
 10
106.001131
 20
210.365060
 30
0.0
 10
106.001131
 20
241.766600
 30
0.0
  0
LWPOLYLINE
  5
10d
100
AcDbEntity
  8
Halfcuts
 62
1
100
AcDbPolyline
 90
2
 70
0
 10
430.348842
 20
270.896110
 30
0.0
 10
14.791890
 20
270.896110
 30
0.0
  0
LWPOLYLINE
  5
10e
100
AcDbEntity
  8
Halfcuts
 62
1
100
AcDbPolyline
 90
2
 70
0
 10
14.791890
 20
275.591695
 30
0.0
 10
430.348842
 20
275.591695
 30
0.0
  0
LWPOLYLINE
  5
10f
100
AcDbEntity
  8
Halfcuts
 62
1
100
AcDbPolyline
 90
2
 70
0
 10
430.348842
 20
291.732661
 30
0.0
 10
15.085362
 20
312.569213
 30
0.0
  0
LWPOLYLINE
  5
110
100
AcDbEntity
  8
Halfcuts
 62
1
100
AcDbPolyline
 90
2
 70
0
 10
14.791890
 20
317.264758
 30
0.0
 10
430.348842
 20
296.428246
 30
0.0
  0
LWPOLYLINE
  5
111
100
AcDbEntity
  8
Halfcuts
 62
1
100
AcDbPolyline
 90
2
 70
0
 10
431.522745
 20
347.225695
 30
0.0
 10
16.259251
 20
347.225695
 30
0.0
  0
LWPOLYLINE
  5
112
100
AcDbEntity
  8
Halfcuts
 62
1
100
AcDbPolyline
 90
2
 70
0
 10
16.259251
 20
351.921252
 30
0.0
 10
431.522745
 20
352.214735
 30
0.0
  0
LWPOLYLINE
  5
113
100
AcDbEntity
  8
Halfcuts
 62
1
100
AcDbPolyline
 90
2
 70
0
 10
16.259251
 20
367.768764
 30
0.0
 10
431.816200
 20
388.898798
 30
0.0
  0
LWPOLYLINE
  5
114
100
AcDbEntity
  8
Halfcuts
 62
1
100
AcDbPolyline
 90
2
 70
0
 10
431.522745
 20
393.594355
 30
0.0
 10
15.965780
 20
372.464321
 30
0.0
  0
LWPOLYLINE
  5
115
100
AcDbEntity
  8
Halfcuts
 62
1
100
AcDbPolyline
 90
2
 70
0
 10
469.284530
 20
114.458780
 30
0.0
 10
469.284530
 20
175.468564
 30
0.0
  0
LWPOLYLINE
  5
116
100
AcDbEntity
  8
Halfcuts
 62
1
100
AcDbPolyline
 90
2
 70
0
 10
473.746124
 20
114.458780
 30
0.0
 10
473.538606
 20
175.468564
 30
0.0
  0
LWPOLYLINE
  5
117
100
AcDbEntity
  8
Halfcuts
 62
1
100
AcDbPolyline
 90
2
 70
0
 10
433.902979
 20
114.355007
 30
0.0
 10
433.902979
 20
175.364819
 30
0.0
  0
LWPOLYLINE
  5
118
100
AcDbEntity
  8
Halfcuts
 62
1
100
AcDbPolyline
 90
2
 70
0
 10
438.468347
 20
114.458780
 30
0.0
 10
438.260829
 20
175.364819
 30
0.0
  0
LWPOLYLINE
  5
119
100
AcDbEntity
  8
Halfcuts
 62
1
100
AcDbPolyline
 90
2
 70
0
 10
561.396134
 20
181.199820
 30
0.0
 10
561.396134
 20
242.209604
 30
0.0
  0
LWPOLYLINE
  5
11a
100
AcDbEntity
  8
Halfcuts
 62
1
100
AcDbPolyline
 90
2
 70
0
 10
565.857729
 20
181.199820
 30
0.0
 10
565.650211
 20
242.209604
 30
0.0
  0
LWPOLYLINE
  5
11b
100
AcDbEntity
  8
Halfcuts
 62
1
100
AcDbPolyline
 90
2
 70
0
 10
526.014583
 20
181.096047
 30
0.0
 10
526.014583
 20
242.105859
 30
0.0
  0
LWPOLYLINE
  5
11c
100
AcDbEntity
  8
Halfcuts
 62
1
100
AcDbPolyline
 90
2
 70
0
 10
530.579951
 20
181.199820
 30
0.0
 10
530.372433
 20
242.105859
 30
0.0
  0
LWPOLYLINE
  5
11d
100
AcDbEntity
  8
Halfcuts
 62
1
100
AcDbPolyline
 90
2
 70
0
 10
560.957758
 20
114.172268
 30
0.0
 10
560.957758
 20
175.182024
 30
0.0
  0
LWPOLYLINE
  5
11e
100
AcDbEntity
  8
Halfcuts
 62
1
100
AcDbPolyline
 90
2
 70
0
 10
565.419353
 20
114.172268
 30
0.0
 10
565.211835
 20
175.182024
 30
0.0
  0
LWPOLYLINE
  5
11f
100
AcDbEntity
  8
Halfcuts
 62
1
100
AcDbPolyline
 90
2
 70
0
 10
525.576207
 20
114.068495
 30
0.0
 10
525.576207
 20
175.078279
 30
0.0
  0
LWPOLYLINE
  5
120
100
AcDbEntity
  8
Halfcuts
 62
1
100
AcDbPolyline
 90
2
 70
0
 10
530.141575
 20
114.172268
 30
0.0
 10
529.934057
 20
175.078279
 30
0.0
  0
LWPOLYLINE
  5
121
100
AcDbEntity
  8
Fullcuts
 62
7
100
AcDbPolyline
 90
5
 70
0
 10
495.162360
 20
242.280414
 30
0.0
 10
413.332027
 20
242.280414
 30
0.0
 10
413.332027
 20
181.489747
 30
0.0
 10
495.162360
 20
181.489747
 30
0.0
 10
495.162360
 20
242.280414
 30
0.0
  0
LWPOLYLINE
  5
122
100
AcDbEntity
  8
Fullcuts
 62
7
100
AcDbPolyline
 90
2
 70
0
 10
269.330983
 20
140.243957
 30
0.0
 10
260.440983
 20
140.243957
 30
0.0
  0
LWPOLYLINE
  5
123
100
AcDbEntity
  8
Fullcuts
 62
7
100
AcDbPolyline
 90
2
 70
0
 10
260.440983
 20
146.593957
 30
0.0
 10
269.330983
 20
146.593957
 30
0.0
  0
LWPOLYLINE
  5
124
100
AcDbEntity
  8
Fullcuts
 62
7
100
AcDbPolyline
 90
2
 70
0
 10
290.539988
 20
151.546957
 30
0.0
 10
304.277155
 20
151.546957
 30
0.0
  0
SPLINE
  5
125
100
AcDbEntity
  8
Fullcuts
 62
7
100
AcDbSpline
 70
8
 71
3
 72
8
 73
4
 74
0
 40
0
 40
0
 40
0
 40
0
 40
1
 40
1
 40
1
 40
1
 10
309.039655
 20
146.795040
 30
0.0
 10
309.039655
 20
149.431141
 30
0.0
 10
306.902673
 20
151.568124
 30
0.0
 10
304.266572
 20
151.568124
 30
0.0
  0
LWPOLYLINE
  5
126
100
AcDbEntity
  8
Fullcuts
 62
7
100
AcDbPolyline
 90
2
 70
0
 10
309.039655
 20
146.784457
 30
0.0
 10
309.039655
 20
136.306957
 30
0.0
  0
LWPOLYLINE
  5
127
100
AcDbEntity
  8
Fullcuts
 62
7
100
AcDbPolyline
 90
2
 70
0
 10
255.403316
 20
169.030624
 30
0.0
 10
309.039655
 20
169.030624
 30
0.0
  0
LWPOLYLINE
  5
128
100
AcDbEntity
  8
Fullcuts
 62
7
100
AcDbPolyline
 90
7
 70
0
 10
252.842149
 20
131.988957
 30
0.0
 10
252.842149
 20
136.306957
 30
0.0
 10
227.442155
 20
136.306957
 30
0.0
 10
227.442155
 20
131.988957
 30
0.0
 10
214.742155
 20
131.988957
 30
0.0
 10
214.742155
 20
136.306957
 30
0.0
 10
197.152655
 20
136.306957
 30
0.0
  0
LWPOLYLINE
  5
129
100
AcDbEntity
  8
Fullcuts
 62
7
100
AcDbPolyline
 90
6
 70
0
 10
396.457988
 20
136.306957
 30
0.0
 10
371.057988
 20
136.306957
 30
0.0
 10
371.057988
 20
131.988957
 30
0.0
 10
345.657988
 20
131.988957
 30
0.0
 10
345.657988
 20
136.306957
 30
0.0
 10
309.039655
 20
136.306957
 30
0.0
  0
LWPOLYLINE
  5
12a
100
AcDbEntity
  8
Fullcuts
 62
7
100
AcDbPolyline
 90
4
 70
0
 10
285.777488
 20
136.306957
 30
0.0
 10
278.242155
 20
136.306957
 30
0.0
 10
278.242155
 20
131.988957
 30
0.0
 10
252.842149
 20
131.988957
 30
0.0
  0
LWPOLYLINE
  5
12b
100
AcDbEntity
  8
Fullcuts
 62
7
100
AcDbPolyline
 90
2
 70
0
 10
396.457988
 20
136.306957
 30
0.0
 10
396.457988
 20
241.970957
 30
0.0
  0
SPLINE
  5
12c
100
AcDbEntity
  8
Fullcuts
 62
7
100
AcDbSpline
 70
8
 71
3
 72
8
 73
4
 74
0
 40
0
 40
0
 40
0
 40
0
 40
1
 40
1
 40
1
 40
1
 10
269.320399
 20
140.243957
 30
0.0
 10
271.079749
 20
140.243957
 30
0.0
 10
272.505983
 20
141.670191
 30
0.0
 10
272.505983
 20
143.429540
 30
0.0
  0
SPLINE
  5
12d
100
AcDbEntity
  8
Fullcuts
 62
7
100
AcDbSpline
 70
8
 71
3
 72
8
 73
4
 74
0
 40
0
 40
0
 40
0
 40
0
 40
1
 40
1
 40
1
 40
1
 10
272.505983
 20
143.429540
 30
0.0
 10
272.505983
 20
145.188889
 30
0.0
 10
271.079749
 20
146.615124
 30
0.0
 10
269.320399
 20
146.615124
 30
0.0
  0
SPLINE
  5
12e
100
AcDbEntity
  8
Fullcuts
 62
7
100
AcDbSpline
 70
8
 71
3
 72
8
 73
4
 74
0
 40
0
 40
0
 40
0
 40
0
 40
1
 40
1
 40
1
 40
1
 10
260.430399
 20
146.615124
 30
0.0
 10
258.671050
 20
146.615124
 30
0.0
 10
257.244816
 20
145.188889
 30
0.0
 10
257.244816
 20
143.429540
 30
0.0
  0
SPLINE
  5
12f
100
AcDbEntity
  8
Fullcuts
 62
7
100
AcDbSpline
 70
8
 71
3
 72
8
 73
4
 74
0
 40
0
 40
0
 40
0
 40
0
 40
1
 40
1
 40
1
 40
1
 10
257.244816
 20
143.429540
 30
0.0
 10
257.244816
 20
141.670191
 30
0.0
 10
258.671050
 20
140.243957
 30
0.0
 10
260.430399
 20
140.243957
 30
0.0
  0
LWPOLYLINE
  5
130
100
AcDbEntity
  8
Fullcuts
 62
7
100
AcDbPolyline
 90
58
 70
0
 10
255.403316
 20
169.030624
 30
0.0
 10
255.043483
 20
169.030624
 30
0.0
 10
254.620149
 20
169.030624
 30
0.0
 10
254.133316
 20
169.030624
 30
0.0
 10
253.604149
 20
169.030624
 30
0.0
 10
253.053816
 20
169.009457
 30
0.0
 10
252.439983
 20
169.009457
 30
0.0
 10
251.826149
 20
168.988290
 30
0.0
 10
251.169983
 20
168.988290
 30
0.0
 10
248.502983
 20
168.903624
 30
0.0
 10
247.190649
 20
168.861290
 30
0.0
 10
245.962983
 20
168.797790
 30
0.0
 10
244.777649
 20
168.734290
 30
0.0
 10
243.634649
 20
168.670790
 30
0.0
 10
241.390983
 20
168.480290
 30
0.0
 10
239.126149
 20
168.268624
 30
0.0
 10
236.818988
 20
168.014624
 30
0.0
 10
234.490655
 20
167.697124
 30
0.0
 10
232.162322
 20
167.358457
 30
0.0
 10
229.833988
 20
166.935124
 30
0.0
 10
227.547988
 20
166.469457
 30
0.0
 10
225.283155
 20
165.919124
 30
0.0
 10
223.018322
 20
165.326457
 30
0.0
 10
220.795822
 20
164.627957
 30
0.0
 10
219.695155
 20
164.268124
 30
0.0
 10
218.594488
 20
163.865957
 30
0.0
 10
217.514988
 20
163.442624
 30
0.0
 10
216.435488
 20
162.998124
 30
0.0
 10
215.355988
 20
162.532457
 30
0.0
 10
214.297655
 20
162.024457
 30
0.0
 10
213.260488
 20
161.516457
 30
0.0
 10
212.223322
 20
160.944957
 30
0.0
 10
211.207322
 20
160.373457
 30
0.0
 10
210.212488
 20
159.759624
 30
0.0
 10
209.217655
 20
159.103457
 30
0.0
 10
208.265155
 20
158.426124
 30
0.0
 10
207.354988
 20
157.706457
 30
0.0
 10
206.444822
 20
156.965624
 30
0.0
 10
205.576988
 20
156.182457
 30
0.0
 10
204.751488
 20
155.356957
 30
0.0
 10
203.947155
 20
154.510290
 30
0.0
 10
203.185155
 20
153.621290
 30
0.0
 10
202.444322
 20
152.711124
 30
0.0
 10
201.766988
 20
151.758624
 30
0.0
 10
201.131988
 20
150.784957
 30
0.0
 10
200.539322
 20
149.768957
 30
0.0
 10
199.988988
 20
148.731790
 30
0.0
 10
199.502155
 20
147.673457
 30
0.0
 10
199.057655
 20
146.593957
 30
0.0
 10
198.655488
 20
145.493290
 30
0.0
 10
198.316822
 20
144.371457
 30
0.0
 10
198.020488
 20
143.249624
 30
0.0
 10
197.766488
 20
142.106624
 30
0.0
 10
197.554822
 20
140.942457
 30
0.0
 10
197.385488
 20
139.799457
 30
0.0
 10
197.258488
 20
138.635290
 30
0.0
 10
197.173822
 20
137.471124
 30
0.0
 10
197.152655
 20
136.306957
 30
0.0
  0
SPLINE
  5
131
100
AcDbEntity
  8
Fullcuts
 62
7
100
AcDbSpline
 70
8
 71
3
 72
8
 73
4
 74
0
 40
0
 40
0
 40
0
 40
0
 40
1
 40
1
 40
1
 40
1
 10
290.529405
 20
151.568124
 30
0.0
 10
287.893304
 20
151.568124
 30
0.0
 10
285.756322
 20
149.431141
 30
0.0
 10
285.756322
 20
146.795040
 30
0.0
  0
LWPOLYLINE
  5
132
100
AcDbEntity
  8
Fullcuts
 62
7
100
AcDbPolyline
 90
2
 70
0
 10
285.777488
 20
146.784457
 30
0.0
 10
285.777488
 20
136.306957
 30
0.0
  0
LWPOLYLINE
  5
133
100
AcDbEntity
  8
Fullcuts
 62
7
100
AcDbPolyline
 90
2
 70
0
 10
269.330983
 20
238.033957
 30
0.0
 10
260.440983
 20
238.033957
 30
0.0
  0
LWPOLYLINE
  5
134
100
AcDbEntity
  8
Fullcuts
 62
7
100
AcDbPolyline
 90
2
 70
0
 10
260.440983
 20
231.683957
 30
0.0
 10
269.330983
 20
231.683957
 30
0.0
  0
LWPOLYLINE
  5
135
100
AcDbEntity
  8
Fullcuts
 62
7
100
AcDbPolyline
 90
2
 70
0
 10
290.539988
 20
226.730957
 30
0.0
 10
304.277155
 20
226.730957
 30
0.0
  0
SPLINE
  5
136
100
AcDbEntity
  8
Fullcuts
 62
7
100
AcDbSpline
 70
8
 71
3
 72
8
 73
4
 74
0
 40
0
 40
0
 40
0
 40
0
 40
1
 40
1
 40
1
 40
1
 10
304.266572
 20
226.730957
 30
0.0
 10
306.902673
 20
226.730957
 30
0.0
 10
309.039655
 20
228.867939
 30
0.0
 10
309.039655
 20
231.504040
 30
0.0
  0
LWPOLYLINE
  5
137
100
AcDbEntity
  8
Fullcuts
 62
7
100
AcDbPolyline
 90
2
 70
0
 10
309.039655
 20
231.493457
 30
0.0
 10
309.039655
 20
241.970957
 30
0.0
  0
LWPOLYLINE
  5
138
100
AcDbEntity
  8
Fullcuts
 62
7
100
AcDbPolyline
 90
2
 70
0
 10
255.403316
 20
209.226124
 30
0.0
 10
309.039655
 20
209.226124
 30
0.0
  0
LWPOLYLINE
  5
139
100
AcDbEntity
  8
Fullcuts
 62
7
100
AcDbPolyline
 90
7
 70
0
 10
252.842149
 20
246.288957
 30
0.0
 10
252.842149
 20
241.970957
 30
0.0
 10
227.442155
 20
241.970957
 30
0.0
 10
227.442155
 20
246.288957
 30
0.0
 10
214.742155
 20
246.288957
 30
0.0
 10
214.742155
 20
241.970957
 30
0.0
 10
197.152655
 20
241.970957
 30
0.0
  0
LWPOLYLINE
  5
13a
100
AcDbEntity
  8
Fullcuts
 62
7
100
AcDbPolyline
 90
6
 70
0
 10
396.457988
 20
241.970957
 30
0.0
 10
371.057988
 20
241.970957
 30
0.0
 10
371.057988
 20
246.288957
 30
0.0
 10
345.657988
 20
246.288957
 30
0.0
 10
345.657988
 20
241.970957
 30
0.0
 10
309.039655
 20
241.970957
 30
0.0
  0
LWPOLYLINE
  5
13b
100
AcDbEntity
  8
Fullcuts
 62
7
100
AcDbPolyline
 90
4
 70
0
 10
285.777488
 20
241.970957
 30
0.0
 10
278.242155
 20
241.970957
 30
0.0
 10
278.242155
 20
246.288957
 30
0.0
 10
252.842149
 20
246.288957
 30
0.0
  0
LWPOLYLINE
  5
13c
100
AcDbEntity
  8
Fullcuts
 62
7
100
AcDbPolyline
 90
3
 70
0
 10
297.397988
 20
204.908124
 30
0.0
 10
309.039655
 20
204.908124
 30
0.0
 10
309.039655
 20
209.226124
 30
0.0
  0
SPLINE
  5
13d
100
AcDbEntity
  8
Fullcuts
 62
7
100
AcDbSpline
 70
8
 71
3
 72
8
 73
4
 74
0
 40
0
 40
0
 40
0
 40
0
 40
1
 40
1
 40
1
 40
1
 10
269.320399
 20
231.683957
 30
0.0
 10
271.079749
 20
231.683957
 30
0.0
 10
272.505983
 20
233.110191
 30
0.0
 10
272.505983
 20
234.869540
 30
0.0
  0
SPLINE
  5
13e
100
AcDbEntity
  8
Fullcuts
 62
7
100
AcDbSpline
 70
8
 71
3
 72
8
 73
4
 74
0
 40
0
 40
0
 40
0
 40
0
 40
1
 40
1
 40
1
 40
1
 10
272.505983
 20
234.869540
 30
0.0
 10
272.505983
 20
236.628889
 30
0.0
 10
271.079749
 20
238.055124
 30
0.0
 10
269.320399
 20
238.055124
 30
0.0
  0
SPLINE
  5
13f
100
AcDbEntity
  8
Fullcuts
 62
7
100
AcDbSpline
 70
8
 71
3
 72
8
 73
4
 74
0
 40
0
 40
0
 40
0
 40
0
 40
1
 40
1
 40
1
 40
1
 10
260.430399
 20
238.055124
 30
0.0
 10
258.671050
 20
238.055124
 30
0.0
 10
257.244816
 20
236.628889
 30
0.0
 10
257.244816
 20
234.869540
 30
0.0
  0
SPLINE
  5
140
100
AcDbEntity
  8
Fullcuts
 62
7
100
AcDbSpline
 70
8
 71
3
 72
8
 73
4
 74
0
 40
0
 40
0
 40
0
 40
0
 40
1
 40
1
 40
1
 40
1
 10
257.244816
 20
234.869540
 30
0.0
 10
257.244816
 20
233.110191
 30
0.0
 10
258.671050
 20
231.683957
 30
0.0
 10
260.430399
 20
231.683957
 30
0.0
  0
LWPOLYLINE
  5
141
100
AcDbEntity
  8
Fullcuts
 62
7
100
AcDbPolyline
 90
58
 70
0
 10
255.403316
 20
209.226124
 30
0.0
 10
255.043483
 20
209.226124
 30
0.0
 10
254.620149
 20
209.226124
 30
0.0
 10
254.133316
 20
209.226124
 30
0.0
 10
253.604149
 20
209.247290
 30
0.0
 10
253.053816
 20
209.247290
 30
0.0
 10
252.439983
 20
209.247290
 30
0.0
 10
251.826149
 20
209.268457
 30
0.0
 10
251.169983
 20
209.289624
 30
0.0
 10
248.502983
 20
209.353124
 30
0.0
 10
247.190649
 20
209.395457
 30
0.0
 10
245.962983
 20
209.458957
 30
0.0
 10
244.777649
 20
209.522457
 30
0.0
 10
243.634649
 20
209.607124
 30
0.0
 10
241.390983
 20
209.776457
 30
0.0
 10
239.126149
 20
209.988124
 30
0.0
 10
236.818988
 20
210.263290
 30
0.0
 10
234.490655
 20
210.559624
 30
0.0
 10
232.162322
 20
210.919457
 30
0.0
 10
229.833988
 20
211.321624
 30
0.0
 10
227.547988
 20
211.808457
 30
0.0
 10
225.283155
 20
212.337624
 30
0.0
 10
223.018322
 20
212.951457
 30
0.0
 10
220.795822
 20
213.628790
 30
0.0
 10
219.695155
 20
214.009790
 30
0.0
 10
218.594488
 20
214.411957
 30
0.0
 10
217.514988
 20
214.814124
 30
0.0
 10
216.435488
 20
215.258624
 30
0.0
 10
215.355988
 20
215.724290
 30
0.0
 10
214.297655
 20
216.232290
 30
0.0
 10
213.260488
 20
216.761457
 30
0.0
 10
212.223322
 20
217.311790
 30
0.0
 10
211.207322
 20
217.904457
 30
0.0
 10
210.212488
 20
218.518290
 30
0.0
 10
209.217655
 20
219.153290
 30
0.0
 10
208.265155
 20
219.830624
 30
0.0
 10
207.354988
 20
220.550290
 30
0.0
 10
206.444822
 20
221.291124
 30
0.0
 10
205.576988
 20
222.074290
 30
0.0
 10
204.751488
 20
222.899790
 30
0.0
 10
203.947155
 20
223.746457
 30
0.0
 10
203.185155
 20
224.635457
 30
0.0
 10
202.444322
 20
225.566790
 30
0.0
 10
201.766988
 20
226.498124
 30
0.0
 10
201.131988
 20
227.492957
 30
0.0
 10
200.539322
 20
228.508957
 30
0.0
 10
199.988988
 20
229.546124
 30
0.0
 10
199.502155
 20
230.604457
 30
0.0
 10
199.057655
 20
231.683957
 30
0.0
 10
198.655488
 20
232.784624
 30
0.0
 10
198.316822
 20
233.906457
 30
0.0
 10
198.020488
 20
235.028290
 30
0.0
 10
197.766488
 20
236.171290
 30
0.0
 10
197.554822
 20
237.314290
 30
0.0
 10
197.385488
 20
238.478457
 30
0.0
 10
197.258488
 20
239.642624
 30
0.0
 10
197.173822
 20
240.806790
 30
0.0
 10
197.152655
 20
241.970957
 30
0.0
  0
SPLINE
  5
142
100
AcDbEntity
  8
Fullcuts
 62
7
100
AcDbSpline
 70
8
 71
3
 72
8
 73
4
 74
0
 40
0
 40
0
 40
0
 40
0
 40
1
 40
1
 40
1
 40
1
 10
285.756322
 20
231.504040
 30
0.0
 10
285.756322
 20
228.867939
 30
0.0
 10
287.893304
 20
226.730957
 30
0.0
 10
290.529405
 20
226.730957
 30
0.0
  0
LWPOLYLINE
  5
143
100
AcDbEntity
  8
Fullcuts
 62
7
100
AcDbPolyline
 90
2
 70
0
 10
285.777488
 20
231.493457
 30
0.0
 10
285.777488
 20
241.970957
 30
0.0
  0
SPLINE
  5
144
100
AcDbEntity
  8
Fullcuts
 62
7
100
AcDbSpline
 70
8
 71
3
 72
8
 73
4
 74
0
 40
0
 40
0
 40
0
 40
0
 40
1
 40
1
 40
1
 40
1
 10
130.678823
 20
126.585841
 30
0.0
 10
132.438172
 20
126.585841
 30
0.0
 10
133.864406
 20
128.012075
 30
0.0
 10
133.864406
 20
129.771424
 30
0.0
  0
LWPOLYLINE
  5
145
100
AcDbEntity
  8
Fullcuts
 62
7
100
AcDbPolyline
 90
2
 70
0
 10
133.864406
 20
147.159869
 30
0.0
 10
133.864406
 20
129.782036
 30
0.0
  0
SPLINE
  5
146
100
AcDbEntity
  8
Fullcuts
 62
7
100
AcDbSpline
 70
8
 71
3
 72
8
 73
4
 74
0
 40
0
 40
0
 40
0
 40
0
 40
1
 40
1
 40
1
 40
1
 10
133.864406
 20
147.149257
 30
0.0
 10
133.864406
 20
148.908607
 30
0.0
 10
132.438172
 20
150.334841
 30
0.0
 10
130.678823
 20
150.334841
 30
0.0
  0
SPLINE
  5
147
100
AcDbEntity
  8
Fullcuts
 62
7
100
AcDbSpline
 70
8
 71
3
 72
8
 73
4
 74
0
 40
0
 40
0
 40
0
 40
0
 40
1
 40
1
 40
1
 40
1
 10
37.873573
 20
134.999591
 30
0.0
 10
37.873573
 20
133.382187
 30
0.0
 10
39.085615
 20
132.021493
 30
0.0
 10
40.692254
 20
131.835207
 30
0.0
  0
LWPOLYLINE
  5
148
100
AcDbEntity
  8
Fullcuts
 62
7
100
AcDbPolyline
 90
2
 70
0
 10
41.069740
 20
150.334869
 30
0.0
 10
130.689406
 20
150.334869
 30
0.0
  0
SPLINE
  5
149
100
AcDbEntity
  8
Fullcuts
 62
7
100
AcDbSpline
 70
8
 71
3
 72
8
 73
4
 74
0
 40
0
 40
0
 40
0
 40
0
 40
1
 40
1
 40
1
 40
1
 10
41.059156
 20
150.334841
 30
0.0
 10
39.299807
 20
150.334841
 30
0.0
 10
37.873573
 20
148.908607
 30
0.0
 10
37.873573
 20
147.149257
 30
0.0
  0
LWPOLYLINE
  5
14a
100
AcDbEntity
  8
Fullcuts
 62
7
100
AcDbPolyline
 90
2
 70
0
 10
37.894740
 20
135.010202
 30
0.0
 10
37.894740
 20
147.159869
 30
0.0
  0
LWPOLYLINE
  5
14b
100
AcDbEntity
  8
Fullcuts
 62
7
100
AcDbPolyline
 90
3
 70
0
 10
130.689406
 20
126.607036
 30
0.0
 10
85.879573
 20
126.607036
 30
0.0
 10
40.709906
 20
131.856369
 30
0.0
  0
SPLINE
  5
14c
100
AcDbEntity
  8
Fullcuts
 62
7
100
AcDbSpline
 70
8
 71
3
 72
8
 73
4
 74
0
 40
0
 40
0
 40
0
 40
0
 40
1
 40
1
 40
1
 40
1
 10
439.496341
 20
256.819656
 30
0.0
 10
439.496341
 20
252.430050
 30
0.0
 10
443.054819
 20
248.871572
 30
0.0
 10
447.444424
 20
248.871572
 30
0.0
  0
LWPOLYLINE
  5
14d
100
AcDbEntity
  8
Fullcuts
 62
7
100
AcDbPolyline
 90
2
 70
0
 10
502.700036
 20
248.871572
 30
0.0
 10
447.455036
 20
248.871572
 30
0.0
  0
SPLINE
  5
14e
100
AcDbEntity
  8
Fullcuts
 62
7
100
AcDbSpline
 70
8
 71
3
 72
8
 73
4
 74
0
 40
0
 40
0
 40
0
 40
0
 40
1
 40
1
 40
1
 40
1
 10
502.689424
 20
248.871572
 30
0.0
 10
507.079030
 20
248.871572
 30
0.0
 10
510.637508
 20
252.430050
 30
0.0
 10
510.637508
 20
256.819656
 30
0.0
  0
LWPOLYLINE
  5
14f
100
AcDbEntity
  8
Fullcuts
 62
7
100
AcDbPolyline
 90
56
 70
0
 10
439.517536
 20
256.809072
 30
0.0
 10
439.517536
 20
306.254406
 30
0.0
 10
439.559869
 20
308.011239
 30
0.0
 10
439.665703
 20
309.789239
 30
0.0
 10
439.792703
 20
311.546072
 30
0.0
 10
439.962036
 20
313.281731
 30
0.0
 10
440.364203
 20
316.795397
 30
0.0
 10
440.808703
 20
320.287897
 30
0.0
 10
441.316703
 20
323.780397
 30
0.0
 10
441.867036
 20
327.251731
 30
0.0
 10
442.459703
 20
330.723064
 30
0.0
 10
443.073536
 20
334.194397
 30
0.0
 10
443.729703
 20
337.665731
 30
0.0
 10
444.407036
 20
341.115897
 30
0.0
 10
445.126703
 20
344.566064
 30
0.0
 10
445.888703
 20
348.016231
 30
0.0
 10
446.671869
 20
351.466397
 30
0.0
 10
447.476203
 20
354.895397
 30
0.0
 10
448.322869
 20
358.303231
 30
0.0
 10
449.190703
 20
361.732231
 30
0.0
 10
450.122036
 20
365.118897
 30
0.0
 10
451.074536
 20
368.526731
 30
0.0
 10
452.069369
 20
371.892231
 30
0.0
 10
453.127703
 20
375.257731
 30
0.0
 10
454.228369
 20
378.602064
 30
0.0
 10
455.392536
 20
381.946397
 30
0.0
 10
456.620203
 20
385.248397
 30
0.0
 10
457.276369
 20
386.878231
 30
0.0
 10
457.932536
 20
388.508064
 30
0.0
 10
458.609869
 20
390.137897
 30
0.0
 10
459.329536
 20
391.746564
 30
0.0
 10
460.070369
 20
393.355231
 30
0.0
 10
460.853536
 20
394.942731
 30
0.0
 10
461.657869
 20
396.509064
 30
0.0
 10
462.504536
 20
398.054231
 30
0.0
 10
463.393536
 20
399.578231
 30
0.0
 10
464.324869
 20
401.059897
 30
0.0
 10
465.319703
 20
402.520397
 30
0.0
 10
465.848869
 20
403.218897
 30
0.0
 10
466.399203
 20
403.917397
 30
0.0
 10
466.949536
 20
404.594731
 30
0.0
 10
467.542203
 20
405.250897
 30
0.0
 10
468.156036
 20
405.885897
 30
0.0
 10
468.791036
 20
406.499731
 30
0.0
 10
469.468369
 20
407.071231
 30
0.0
 10
470.166869
 20
407.600397
 30
0.0
 10
470.907703
 20
408.087231
 30
0.0
 10
471.690869
 20
408.510564
 30
0.0
 10
472.093036
 20
408.701064
 30
0.0
 10
472.495203
 20
408.849231
 30
0.0
 10
472.918536
 20
408.997397
 30
0.0
 10
473.341869
 20
409.124397
 30
0.0
 10
473.765203
 20
409.230231
 30
0.0
 10
474.209703
 20
409.293731
 30
0.0
 10
474.633036
 20
409.336064
 30
0.0
 10
475.077536
 20
409.357231
 30
0.0
  0
LWPOLYLINE
  5
150
100
AcDbEntity
  8
Fullcuts
 62
7
100
AcDbPolyline
 90
56
 70
0
 10
510.637536
 20
256.809072
 30
0.0
 10
510.637536
 20
306.254406
 30
0.0
 10
510.595203
 20
308.011239
 30
0.0
 10
510.510536
 20
309.789239
 30
0.0
 10
510.362369
 20
311.546072
 30
0.0
 10
510.193036
 20
313.281731
 30
0.0
 10
509.812036
 20
316.795397
 30
0.0
 10
509.346369
 20
320.287897
 30
0.0
 10
508.838369
 20
323.780397
 30
0.0
 10
508.288036
 20
327.251731
 30
0.0
 10
507.695369
 20
330.723064
 30
0.0
 10
507.081536
 20
334.194397
 30
0.0
 10
506.425369
 20
337.665731
 30
0.0
 10
505.748036
 20
341.115897
 30
0.0
 10
505.028369
 20
344.566064
 30
0.0
 10
504.287536
 20
348.016231
 30
0.0
 10
503.504369
 20
351.466397
 30
0.0
 10
502.678869
 20
354.895397
 30
0.0
 10
501.832203
 20
358.303231
 30
0.0
 10
500.964369
 20
361.732231
 30
0.0
 10
500.033036
 20
365.118897
 30
0.0
 10
499.080536
 20
368.526731
 30
0.0
 10
498.085703
 20
371.892231
 30
0.0
 10
497.027369
 20
375.257731
 30
0.0
 10
495.926703
 20
378.602064
 30
0.0
 10
494.762536
 20
381.946397
 30
0.0
 10
493.534869
 20
385.248397
 30
0.0
 10
492.899869
 20
386.878231
 30
0.0
 10
492.222536
 20
388.508064
 30
0.0
 10
491.545203
 20
390.137897
 30
0.0
 10
490.825536
 20
391.746564
 30
0.0
 10
490.084703
 20
393.355231
 30
0.0
 10
489.322703
 20
394.942731
 30
0.0
 10
488.518369
 20
396.509064
 30
0.0
 10
487.671703
 20
398.054231
 30
0.0
 10
486.782703
 20
399.578231
 30
0.0
 10
485.830203
 20
401.059897
 30
0.0
 10
484.835369
 20
402.520397
 30
0.0
 10
484.306203
 20
403.218897
 30
0.0
 10
483.777036
 20
403.917397
 30
0.0
 10
483.205536
 20
404.594731
 30
0.0
 10
482.612869
 20
405.250897
 30
0.0
 10
481.999036
 20
405.885897
 30
0.0
 10
481.364036
 20
406.499731
 30
0.0
 10
480.686703
 20
407.071231
 30
0.0
 10
479.988203
 20
407.600397
 30
0.0
 10
479.247369
 20
408.087231
 30
0.0
 10
478.464203
 20
408.510564
 30
0.0
 10
478.083203
 20
408.701064
 30
0.0
 10
477.659869
 20
408.849231
 30
0.0
 10
477.257703
 20
408.997397
 30
0.0
 10
476.834369
 20
409.124397
 30
0.0
 10
476.389869
 20
409.230231
 30
0.0
 10
475.966536
 20
409.293731
 30
0.0
 10
475.522036
 20
409.336064
 30
0.0
 10
475.077536
 20
409.357231
 30
0.0
  0
LWPOLYLINE
  5
151
100
AcDbEntity
  8
Fullcuts
 62
7
100
AcDbPolyline
 90
4
 70
0
 10
297.397988
 20
204.908124
 30
0.0
 10
297.397988
 20
173.348624
 30
0.0
 10
309.039655
 20
173.348624
 30
0.0
 10
309.039655
 20
169.030624
 30
0.0
  0
LWPOLYLINE
  5
152
100
AcDbEntity
  8
Fullcuts
 62
7
100
AcDbPolyline
 90
2
 70
0
 10
259.570988
 20
200.560406
 30
0.0
 10
212.030654
 20
200.560406
 30
0.0
  0
LWPOLYLINE
  5
153
100
AcDbEntity
  8
Fullcuts
 62
7
100
AcDbPolyline
 90
2
 70
0
 10
285.859982
 20
180.875406
 30
0.0
 10
285.859982
 20
187.183072
 30
0.0
  0
LWPOLYLINE
  5
154
100
AcDbEntity
  8
Fullcuts
 62
7
100
AcDbPolyline
 90
2
 70
0
 10
233.684154
 20
178.504739
 30
0.0
 10
283.468149
 20
178.504739
 30
0.0
  0
SPLINE
  5
155
100
AcDbEntity
  8
Fullcuts
 62
7
100
AcDbSpline
 70
8
 71
3
 72
8
 73
4
 74
0
 40
0
 40
0
 40
0
 40
0
 40
1
 40
1
 40
1
 40
1
 10
212.020071
 20
200.560406
 30
0.0
 10
210.704943
 20
200.560406
 30
0.0
 10
209.638821
 20
199.494284
 30
0.0
 10
209.638821
 20
198.179156
 30
0.0
  0
LWPOLYLINE
  5
156
100
AcDbEntity
  8
Fullcuts
 62
7
100
AcDbPolyline
 90
2
 70
0
 10
209.659988
 20
198.189739
 30
0.0
 10
209.659988
 20
187.733406
 30
0.0
  0
LWPOLYLINE
  5
157
100
AcDbEntity
  8
Fullcuts
 62
7
100
AcDbPolyline
 90
2
 70
0
 10
233.684154
 20
178.504739
 30
0.0
 10
209.659988
 20
187.733406
 30
0.0
  0
SPLINE
  5
158
100
AcDbEntity
  8
Fullcuts
 62
7
100
AcDbSpline
 70
8
 71
3
 72
8
 73
4
 74
0
 40
0
 40
0
 40
0
 40
0
 40
1
 40
1
 40
1
 40
1
 10
283.457565
 20
178.483572
 30
0.0
 10
284.772694
 20
178.483572
 30
0.0
 10
285.838815
 20
179.549694
 30
0.0
 10
285.838815
 20
180.864822
 30
0.0
  0
LWPOLYLINE
  5
159
100
AcDbEntity
  8
Fullcuts
 62
7
100
AcDbPolyline
 90
2
 70
0
 10
259.570988
 20
200.560406
 30
0.0
 10
285.859982
 20
187.183072
 30
0.0
  0
LWPOLYLINE
  5
15a
100
AcDbEntity
  8
Fullcuts
 62
7
100
AcDbPolyline
 90
2
 70
0
 10
16.311920
 20
192.335575
 30
0.0
 10
16.311920
 20
160.797242
 30
0.0
  0
LWPOLYLINE
  5
15b
100
AcDbEntity
  8
Fullcuts
 62
7
100
AcDbPolyline
 90
6
 70
0
 10
34.811583
 20
156.479242
 30
0.0
 10
180.628750
 20
156.479242
 30
0.0
 10
180.628750
 20
196.653575
 30
0.0
 10
34.811583
 20
196.653575
 30
0.0
 10
34.811583
 20
192.335575
 30
0.0
 10
16.311920
 20
192.335575
 30
0.0
  0
LWPOLYLINE
  5
15c
100
AcDbEntity
  8
Fullcuts
 62
7
100
AcDbPolyline
 90
3
 70
0
 10
16.311920
 20
160.797242
 30
0.0
 10
34.811583
 20
160.797242
 30
0.0
 10
34.811583
 20
156.479242
 30
0.0
  0
LWPOLYLINE
  5
15d
100
AcDbEntity
  8
Fullcuts
 62
7
100
AcDbPolyline
 90
2
 70
0
 10
15.490410
 20
241.854766
 30
0.0
 10
15.490410
 20
210.316404
 30
0.0
  0
LWPOLYLINE
  5
15e
100
AcDbEntity
  8
Fullcuts
 62
7
100
AcDbPolyline
 90
6
 70
0
 10
33.990074
 20
205.998404
 30
0.0
 10
179.807241
 20
205.998404
 30
0.0
 10
179.807241
 20
246.172766
 30
0.0
 10
33.990074
 20
246.172766
 30
0.0
 10
33.990074
 20
241.854766
 30
0.0
 10
15.490410
 20
241.854766
 30
0.0
  0
LWPOLYLINE
  5
15f
100
AcDbEntity
  8
Fullcuts
 62
7
100
AcDbPolyline
 90
3
 70
0
 10
15.490410
 20
210.316404
 30
0.0
 10
33.990074
 20
210.316404
 30
0.0
 10
33.990074
 20
205.998404
 30
0.0
  0
LWPOLYLINE
  5
160
100
AcDbEntity
  8
Fullcuts
 62
7
100
AcDbPolyline
 90
2
 70
0
 10
15.872257
 20
332.161816
 30
0.0
 10
146.237757
 20
322.975483
 30
0.0
  0
LWPOLYLINE
  5
161
100
AcDbEntity
  8
Fullcuts
 62
7
100
AcDbPolyline
 90
3
 70
0
 10
153.836590
 20
322.446316
 30
0.0
 10
430.908291
 20
302.930646
 30
0.0
 10
430.379124
 20
291.775813
 30
0.0
  0
LWPOLYLINE
  5
162
100
AcDbEntity
  8
Fullcuts
 62
7
100
AcDbPolyline
 90
2
 70
0
 10
14.898590
 20
312.624980
 30
0.0
 10
15.872257
 20
332.161816
 30
0.0
  0
LWPOLYLINE
  5
163
100
AcDbEntity
  8
Fullcuts
 62
7
100
AcDbPolyline
 90
2
 70
0
 10
14.898590
 20
255.982980
 30
0.0
 10
144.946590
 20
258.607646
 30
0.0
  0
LWPOLYLINE
  5
164
100
AcDbEntity
  8
Fullcuts
 62
7
100
AcDbPolyline
 90
2
 70
0
 10
152.566590
 20
258.776980
 30
0.0
 10
430.379124
 20
264.364980
 30
0.0
  0
LWPOLYLINE
  5
165
100
AcDbEntity
  8
Fullcuts
 62
7
100
AcDbPolyline
 90
2
 70
0
 10
147.084423
 20
266.269980
 30
0.0
 10
150.132423
 20
266.333480
 30
0.0
  0
LWPOLYLINE
  5
166
100
AcDbEntity
  8
Fullcuts
 62
7
100
AcDbPolyline
 90
2
 70
0
 10
14.898590
 20
255.982980
 30
0.0
 10
14.898590
 20
312.624980
 30
0.0
  0
LWPOLYLINE
  5
167
100
AcDbEntity
  8
Fullcuts
 62
7
100
AcDbPolyline
 90
2
 70
0
 10
430.379124
 20
291.775813
 30
0.0
 10
430.379124
 20
264.364980
 30
0.0
  0
SPLINE
  5
168
100
AcDbEntity
  8
Fullcuts
 62
7
100
AcDbSpline
 70
8
 71
3
 72
8
 73
4
 74
0
 40
0
 40
0
 40
0
 40
0
 40
1
 40
1
 40
1
 40
1
 10
147.069718
 20
266.290677
 30
0.0
 10
145.801610
 20
266.265020
 30
0.0
 10
144.794403
 20
265.216216
 30
0.0
 10
144.820060
 20
263.948108
 30
0.0
  0
LWPOLYLINE
  5
169
100
AcDbEntity
  8
Fullcuts
 62
7
100
AcDbPolyline
 90
2
 70
0
 10
144.840757
 20
263.941646
 30
0.0
 10
144.946590
 20
258.607646
 30
0.0
  0
SPLINE
  5
16a
100
AcDbEntity
  8
Fullcuts
 62
7
100
AcDbSpline
 70
8
 71
3
 72
8
 73
4
 74
0
 40
0
 40
0
 40
0
 40
0
 40
1
 40
1
 40
1
 40
1
 10
152.460287
 20
264.104518
 30
0.0
 10
152.434630
 20
265.372627
 30
0.0
 10
151.385827
 20
266.379833
 30
0.0
 10
150.117718
 20
266.354177
 30
0.0
  0
LWPOLYLINE
  5
16b
100
AcDbEntity
  8
Fullcuts
 62
7
100
AcDbPolyline
 90
2
 70
0
 10
152.460757
 20
264.110980
 30
0.0
 10
152.566590
 20
258.776980
 30
0.0
  0
LWPOLYLINE
  5
16c
100
AcDbEntity
  8
Fullcuts
 62
7
100
AcDbPolyline
 90
5
 70
0
 10
139.930090
 20
297.808313
 30
0.0
 10
150.301757
 20
280.578646
 30
0.0
 10
156.821090
 20
284.494480
 30
0.0
 10
146.449423
 20
301.724146
 30
0.0
 10
139.930090
 20
297.808313
 30
0.0
  0
LWPOLYLINE
  5
16d
100
AcDbEntity
  8
Fullcuts
 62
7
100
AcDbPolyline
 90
2
 70
0
 10
147.973423
 20
315.207316
 30
0.0
 10
151.021423
 20
314.995649
 30
0.0
  0
SPLINE
  5
16e
100
AcDbEntity
  8
Fullcuts
 62
7
100
AcDbSpline
 70
8
 71
3
 72
8
 73
4
 74
0
 40
0
 40
0
 40
0
 40
0
 40
1
 40
1
 40
1
 40
1
 10
145.841259
 20
317.665174
 30
0.0
 10
145.752197
 20
316.399937
 30
0.0
 10
146.705675
 20
315.302061
 30
0.0
 10
147.970913
 20
315.212999
 30
0.0
  0
LWPOLYLINE
  5
16f
100
AcDbEntity
  8
Fullcuts
 62
7
100
AcDbPolyline
 90
2
 70
0
 10
145.856757
 20
317.662649
 30
0.0
 10
146.237757
 20
322.975483
 30
0.0
  0
SPLINE
  5
170
100
AcDbEntity
  8
Fullcuts
 62
7
100
AcDbSpline
 70
8
 71
3
 72
8
 73
4
 74
0
 40
0
 40
0
 40
0
 40
0
 40
1
 40
1
 40
1
 40
1
 10
151.018913
 20
315.001332
 30
0.0
 10
152.284150
 20
314.912270
 30
0.0
 10
153.382026
 20
315.865749
 30
0.0
 10
153.471088
 20
317.130986
 30
0.0
  0
LWPOLYLINE
  5
171
100
AcDbEntity
  8
Fullcuts
 62
7
100
AcDbPolyline
 90
2
 70
0
 10
153.455590
 20
317.112316
 30
0.0
 10
153.836590
 20
322.446316
 30
0.0
  0
LWPOLYLINE
  5
172
100
AcDbEntity
  8
Fullcuts
 62
7
100
AcDbPolyline
 90
2
 70
0
 10
430.908291
 20
408.453228
 30
0.0
 10
300.542762
 20
399.266894
 30
0.0
  0
LWPOLYLINE
  5
173
100
AcDbEntity
  8
Fullcuts
 62
7
100
AcDbPolyline
 90
3
 70
0
 10
292.943929
 20
398.737728
 30
0.0
 10
15.872257
 20
379.222061
 30
0.0
 10
16.422590
 20
368.067228
 30
0.0
  0
LWPOLYLINE
  5
174
100
AcDbEntity
  8
Fullcuts
 62
7
100
AcDbPolyline
 90
2
 70
0
 10
431.881957
 20
388.916394
 30
0.0
 10
430.908291
 20
408.453228
 30
0.0
  0
LWPOLYLINE
  5
175
100
AcDbEntity
  8
Fullcuts
 62
7
100
AcDbPolyline
 90
2
 70
0
 10
431.881957
 20
332.295561
 30
0.0
 10
301.833929
 20
334.920228
 30
0.0
  0
LWPOLYLINE
  5
176
100
AcDbEntity
  8
Fullcuts
 62
7
100
AcDbPolyline
 90
2
 70
0
 10
294.213929
 20
335.068394
 30
0.0
 10
16.422590
 20
340.677561
 30
0.0
  0
LWPOLYLINE
  5
177
100
AcDbEntity
  8
Fullcuts
 62
7
100
AcDbPolyline
 90
2
 70
0
 10
299.717262
 20
342.582561
 30
0.0
 10
296.669262
 20
342.646061
 30
0.0
  0
LWPOLYLINE
  5
178
100
AcDbEntity
  8
Fullcuts
 62
7
100
AcDbPolyline
 90
2
 70
0
 10
431.881957
 20
332.295561
 30
0.0
 10
431.881957
 20
388.916394
 30
0.0
  0
LWPOLYLINE
  5
179
100
AcDbEntity
  8
Fullcuts
 62
7
100
AcDbPolyline
 90
2
 70
0
 10
16.422590
 20
368.067228
 30
0.0
 10
16.422590
 20
340.677561
 30
0.0
  0
SPLINE
  5
17a
100
AcDbEntity
  8
Fullcuts
 62
7
100
AcDbSpline
 70
8
 71
3
 72
8
 73
4
 74
0
 40
0
 40
0
 40
0
 40
0
 40
1
 40
1
 40
1
 40
1
 10
301.939293
 20
340.260675
 30
0.0
 10
301.964949
 20
341.528784
 30
0.0
 10
300.957743
 20
342.577587
 30
0.0
 10
299.689634
 20
342.603244
 30
0.0
  0
LWPOLYLINE
  5
17b
100
AcDbEntity
  8
Fullcuts
 62
7
100
AcDbPolyline
 90
2
 70
0
 10
301.939762
 20
340.254228
 30
0.0
 10
301.833929
 20
334.920228
 30
0.0
  0
SPLINE
  5
17c
100
AcDbEntity
  8
Fullcuts
 62
7
100
AcDbSpline
 70
8
 71
3
 72
8
 73
4
 74
0
 40
0
 40
0
 40
0
 40
0
 40
1
 40
1
 40
1
 40
1
 10
296.641634
 20
342.666772
 30
0.0
 10
295.373526
 20
342.692428
 30
0.0
 10
294.324722
 20
341.685222
 30
0.0
 10
294.299066
 20
340.417114
 30
0.0
  0
LWPOLYLINE
  5
17d
100
AcDbEntity
  8
Fullcuts
 62
7
100
AcDbPolyline
 90
2
 70
0
 10
294.319762
 20
340.402394
 30
0.0
 10
294.213929
 20
335.068394
 30
0.0
  0
LWPOLYLINE
  5
17e
100
AcDbEntity
  8
Fullcuts
 62
7
100
AcDbPolyline
 90
5
 70
0
 10
306.850429
 20
374.099728
 30
0.0
 10
296.499929
 20
356.870061
 30
0.0
 10
289.959429
 20
360.807061
 30
0.0
 10
300.331096
 20
378.036728
 30
0.0
 10
306.850429
 20
374.099728
 30
0.0
  0
LWPOLYLINE
  5
17f
100
AcDbEntity
  8
Fullcuts
 62
7
100
AcDbPolyline
 90
2
 70
0
 10
298.807096
 20
391.519894
 30
0.0
 10
295.759096
 20
391.308228
 30
0.0
  0
SPLINE
  5
180
100
AcDbEntity
  8
Fullcuts
 62
7
100
AcDbSpline
 70
8
 71
3
 72
8
 73
4
 74
0
 40
0
 40
0
 40
0
 40
0
 40
1
 40
1
 40
1
 40
1
 10
298.788440
 20
391.504410
 30
0.0
 10
300.053677
 20
391.593472
 30
0.0
 10
301.007156
 20
392.691349
 30
0.0
 10
300.918094
 20
393.956586
 30
0.0
  0
LWPOLYLINE
  5
181
100
AcDbEntity
  8
Fullcuts
 62
7
100
AcDbPolyline
 90
2
 70
0
 10
300.923762
 20
393.954061
 30
0.0
 10
300.542762
 20
399.266894
 30
0.0
  0
SPLINE
  5
182
100
AcDbEntity
  8
Fullcuts
 62
7
100
AcDbSpline
 70
8
 71
3
 72
8
 73
4
 74
0
 40
0
 40
0
 40
0
 40
0
 40
1
 40
1
 40
1
 40
1
 10
293.309431
 20
393.422398
 30
0.0
 10
293.398493
 20
392.157160
 30
0.0
 10
294.496369
 20
391.203682
 30
0.0
 10
295.761607
 20
391.292744
 30
0.0
  0
LWPOLYLINE
  5
183
100
AcDbEntity
  8
Fullcuts
 62
7
100
AcDbPolyline
 90
2
 70
0
 10
293.324929
 20
393.424894
 30
0.0
 10
292.943929
 20
398.737728
 30
0.0
  0
LWPOLYLINE
  5
184
100
AcDbEntity
  8
Fullcuts
 62
7
100
AcDbPolyline
 90
2
 70
0
 10
142.130574
 20
234.340571
 30
0.0
 10
150.491407
 20
234.340571
 30
0.0
  0
SPLINE
  5
185
100
AcDbEntity
  8
Fullcuts
 62
7
100
AcDbSpline
 70
8
 71
3
 72
8
 73
4
 74
0
 40
0
 40
0
 40
0
 40
0
 40
1
 40
1
 40
1
 40
1
 10
150.480824
 20
217.830571
 30
0.0
 10
155.045780
 20
217.830571
 30
0.0
 10
158.746407
 20
221.531199
 30
0.0
 10
158.746407
 20
226.096154
 30
0.0
  0
SPLINE
  5
186
100
AcDbEntity
  8
Fullcuts
 62
7
100
AcDbSpline
 70
8
 71
3
 72
8
 73
4
 74
0
 40
0
 40
0
 40
0
 40
0
 40
1
 40
1
 40
1
 40
1
 10
158.746407
 20
226.096154
 30
0.0
 10
158.746407
 20
230.661110
 30
0.0
 10
155.045780
 20
234.361738
 30
0.0
 10
150.480824
 20
234.361738
 30
0.0
  0
SPLINE
  5
187
100
AcDbEntity
  8
Fullcuts
 62
7
100
AcDbSpline
 70
8
 71
3
 72
8
 73
4
 74
0
 40
0
 40
0
 40
0
 40
0
 40
1
 40
1
 40
1
 40
1
 10
142.119991
 20
234.361738
 30
0.0
 10
137.555035
 20
234.361738
 30
0.0
 10
133.854407
 20
230.661110
 30
0.0
 10
133.854407
 20
226.096154
 30
0.0
  0
SPLINE
  5
188
100
AcDbEntity
  8
Fullcuts
 62
7
100
AcDbSpline
 70
8
 71
3
 72
8
 73
4
 74
0
 40
0
 40
0
 40
0
 40
0
 40
1
 40
1
 40
1
 40
1
 10
133.854407
 20
226.096154
 30
0.0
 10
133.854407
 20
221.531199
 30
0.0
 10
137.555035
 20
217.830571
 30
0.0
 10
142.119991
 20
217.830571
 30
0.0
  0
LWPOLYLINE
  5
189
100
AcDbEntity
  8
Fullcuts
 62
7
100
AcDbPolyline
 90
2
 70
0
 10
150.491407
 20
217.830571
 30
0.0
 10
142.130574
 20
217.830571
 30
0.0
  0
LWPOLYLINE
  5
18a
100
AcDbEntity
  8
Fullcuts
 62
7
100
AcDbPolyline
 90
5
 70
0
 10
494.723984
 20
175.252833
 30
0.0
 10
412.893651
 20
175.252833
 30
0.0
 10
412.893651
 20
114.462167
 30
0.0
 10
494.723984
 20
114.462167
 30
0.0
 10
494.723984
 20
175.252833
 30
0.0
  0
SPLINE
  5
18b
100
AcDbEntity
  8
Fullcuts
 62
7
100
AcDbSpline
 70
8
 71
3
 72
8
 73
4
 74
0
 40
0
 40
0
 40
0
 40
0
 40
1
 40
1
 40
1
 40
1
 10
587.294228
 20
256.858518
 30
0.0
 10
587.294228
 20
252.468912
 30
0.0
 10
583.735750
 20
248.910434
 30
0.0
 10
579.346145
 20
248.910434
 30
0.0
  0
LWPOLYLINE
  5
18c
100
AcDbEntity
  8
Fullcuts
 62
7
100
AcDbPolyline
 90
2
 70
0
 10
524.090533
 20
248.910434
 30
0.0
 10
579.335533
 20
248.910434
 30
0.0
  0
SPLINE
  5
18d
100
AcDbEntity
  8
Fullcuts
 62
7
100
AcDbSpline
 70
8
 71
3
 72
8
 73
4
 74
0
 40
0
 40
0
 40
0
 40
0
 40
1
 40
1
 40
1
 40
1
 10
524.101145
 20
248.910434
 30
0.0
 10
519.711539
 20
248.910434
 30
0.0
 10
516.153061
 20
252.468912
 30
0.0
 10
516.153061
 20
256.858518
 30
0.0
  0
LWPOLYLINE
  5
18e
100
AcDbEntity
  8
Fullcuts
 62
7
100
AcDbPolyline
 90
56
 70
0
 10
587.273033
 20
256.847934
 30
0.0
 10
587.273033
 20
306.293268
 30
0.0
 10
587.230700
 20
308.050101
 30
0.0
 10
587.124866
 20
309.828101
 30
0.0
 10
586.997866
 20
311.584934
 30
0.0
 10
586.828533
 20
313.320595
 30
0.0
 10
586.426366
 20
316.834262
 30
0.0
 10
585.981866
 20
320.326762
 30
0.0
 10
585.473866
 20
323.819262
 30
0.0
 10
584.923533
 20
327.290595
 30
0.0
 10
584.330866
 20
330.761929
 30
0.0
 10
583.717033
 20
334.233262
 30
0.0
 10
583.060866
 20
337.704595
 30
0.0
 10
582.383533
 20
341.154762
 30
0.0
 10
581.663866
 20
344.604929
 30
0.0
 10
580.901866
 20
348.055095
 30
0.0
 10
580.118700
 20
351.505262
 30
0.0
 10
579.314366
 20
354.934262
 30
0.0
 10
578.467700
 20
358.342095
 30
0.0
 10
577.599866
 20
361.771095
 30
0.0
 10
576.668533
 20
365.157762
 30
0.0
 10
575.716033
 20
368.565595
 30
0.0
 10
574.721200
 20
371.931095
 30
0.0
 10
573.662866
 20
375.296595
 30
0.0
 10
572.562200
 20
378.640929
 30
0.0
 10
571.398033
 20
381.985262
 30
0.0
 10
570.170366
 20
385.287262
 30
0.0
 10
569.514200
 20
386.917095
 30
0.0
 10
568.858033
 20
388.546929
 30
0.0
 10
568.180700
 20
390.176762
 30
0.0
 10
567.461033
 20
391.785429
 30
0.0
 10
566.720200
 20
393.394095
 30
0.0
 10
565.937033
 20
394.981595
 30
0.0
 10
565.132700
 20
396.547929
 30
0.0
 10
564.286033
 20
398.093095
 30
0.0
 10
563.397033
 20
399.617095
 30
0.0
 10
562.465700
 20
401.098762
 30
0.0
 10
561.470866
 20
402.559262
 30
0.0
 10
560.941700
 20
403.257762
 30
0.0
 10
560.391366
 20
403.956262
 30
0.0
 10
559.841033
 20
404.633595
 30
0.0
 10
559.248366
 20
405.289762
 30
0.0
 10
558.634533
 20
405.924762
 30
0.0
 10
557.999533
 20
406.538595
 30
0.0
 10
557.322200
 20
407.110095
 30
0.0
 10
556.623700
 20
407.639262
 30
0.0
 10
555.882866
 20
408.126095
 30
0.0
 10
555.099700
 20
408.549429
 30
0.0
 10
554.697533
 20
408.739929
 30
0.0
 10
554.295366
 20
408.888095
 30
0.0
 10
553.872033
 20
409.036262
 30
0.0
 10
553.448700
 20
409.163262
 30
0.0
 10
553.025366
 20
409.269095
 30
0.0
 10
552.580866
 20
409.332595
 30
0.0
 10
552.157533
 20
409.374929
 30
0.0
 10
551.713033
 20
409.396095
 30
0.0
  0
LWPOLYLINE
  5
18f
100
AcDbEntity
  8
Fullcuts
 62
7
100
AcDbPolyline
 90
56
 70
0
 10
516.153033
 20
256.847934
 30
0.0
 10
516.153033
 20
306.293268
 30
0.0
 10
516.195366
 20
308.050101
 30
0.0
 10
516.280033
 20
309.828101
 30
0.0
 10
516.428200
 20
311.584934
 30
0.0
 10
516.597533
 20
313.320595
 30
0.0
 10
516.978533
 20
316.834262
 30
0.0
 10
517.444200
 20
320.326762
 30
0.0
 10
517.952200
 20
323.819262
 30
0.0
 10
518.502533
 20
327.290595
 30
0.0
 10
519.095200
 20
330.761929
 30
0.0
 10
519.709033
 20
334.233262
 30
0.0
 10
520.365200
 20
337.704595
 30
0.0
 10
521.042533
 20
341.154762
 30
0.0
 10
521.762200
 20
344.604929
 30
0.0
 10
522.503033
 20
348.055095
 30
0.0
 10
523.286200
 20
351.505262
 30
0.0
 10
524.111700
 20
354.934262
 30
0.0
 10
524.958366
 20
358.342095
 30
0.0
 10
525.826200
 20
361.771095
 30
0.0
 10
526.757533
 20
365.157762
 30
0.0
 10
527.710033
 20
368.565595
 30
0.0
 10
528.704866
 20
371.931095
 30
0.0
 10
529.763200
 20
375.296595
 30
0.0
 10
530.863866
 20
378.640929
 30
0.0
 10
532.028033
 20
381.985262
 30
0.0
 10
533.255700
 20
385.287262
 30
0.0
 10
533.890700
 20
386.917095
 30
0.0
 10
534.568033
 20
388.546929
 30
0.0
 10
535.245366
 20
390.176762
 30
0.0
 10
535.965033
 20
391.785429
 30
0.0
 10
536.705866
 20
393.394095
 30
0.0
 10
537.467866
 20
394.981595
 30
0.0
 10
538.272200
 20
396.547929
 30
0.0
 10
539.118866
 20
398.093095
 30
0.0
 10
540.007866
 20
399.617095
 30
0.0
 10
540.960366
 20
401.098762
 30
0.0
 10
541.955200
 20
402.559262
 30
0.0
 10
542.484366
 20
403.257762
 30
0.0
 10
543.013533
 20
403.956262
 30
0.0
 10
543.585033
 20
404.633595
 30
0.0
 10
544.177700
 20
405.289762
 30
0.0
 10
544.791533
 20
405.924762
 30
0.0
 10
545.426533
 20
406.538595
 30
0.0
 10
546.103866
 20
407.110095
 30
0.0
 10
546.802366
 20
407.639262
 30
0.0
 10
547.543200
 20
408.126095
 30
0.0
 10
548.326366
 20
408.549429
 30
0.0
 10
548.707366
 20
408.739929
 30
0.0
 10
549.130700
 20
408.888095
 30
0.0
 10
549.532866
 20
409.036262
 30
0.0
 10
549.956200
 20
409.163262
 30
0.0
 10
550.400700
 20
409.269095
 30
0.0
 10
550.824033
 20
409.332595
 30
0.0
 10
551.268533
 20
409.374929
 30
0.0
 10
551.713033
 20
409.396095
 30
0.0
  0
LWPOLYLINE
  5
190
100
AcDbEntity
  8
Fullcuts
 62
7
100
AcDbPolyline
 90
5
 70
0
 10
586.835589
 20
241.993873
 30
0.0
 10
505.005255
 20
241.993873
 30
0.0
 10
505.005255
 20
181.203207
 30
0.0
 10
586.835589
 20
181.203207
 30
0.0
 10
586.835589
 20
241.993873
 30
0.0
  0
LWPOLYLINE
  5
191
100
AcDbEntity
  8
Fullcuts
 62
7
100
AcDbPolyline
 90
5
 70
0
 10
586.397213
 20
174.966293
 30
0.0
 10
504.566880
 20
174.966293
 30
0.0
 10
504.566880
 20
114.175655
 30
0.0
 10
586.397213
 20
114.175655
 30
0.0
 10
586.397213
 20
174.966293
 30
0.0
  0
LWPOLYLINE
  5
192
100
AcDbEntity
  8
Score
 62
3
100
AcDbPolyline
 90
2
 70
0
 10
480.390369
 20
294.358739
 30
0.0
 10
480.390369
 20
303.100572
 30
0.0
  0
LWPOLYLINE
  5
193
100
AcDbEntity
  8
Score
 62
3
100
AcDbPolyline
 90
2
 70
0
 10
480.390369
 20
306.275572
 30
0.0
 10
480.390369
 20
309.450572
 30
0.0
  0
LWPOLYLINE
  5
194
100
AcDbEntity
  8
Score
 62
3
100
AcDbPolyline
 90
2
 70
0
 10
480.390369
 20
312.625564
 30
0.0
 10
480.390369
 20
328.500564
 30
0.0
  0
LWPOLYLINE
  5
195
100
AcDbEntity
  8
Score
 62
3
100
AcDbPolyline
 90
2
 70
0
 10
480.390369
 20
331.675564
 30
0.0
 10
480.390369
 20
334.850564
 30
0.0
  0
LWPOLYLINE
  5
196
100
AcDbEntity
  8
Score
 62
3
100
AcDbPolyline
 90
2
 70
0
 10
480.390369
 20
338.025564
 30
0.0
 10
480.390369
 20
353.900564
 30
0.0
  0
LWPOLYLINE
  5
197
100
AcDbEntity
  8
Score
 62
3
100
AcDbPolyline
 90
2
 70
0
 10
480.390369
 20
357.075564
 30
0.0
 10
480.390369
 20
360.250564
 30
0.0
  0
LWPOLYLINE
  5
198
100
AcDbEntity
  8
Score
 62
3
100
AcDbPolyline
 90
2
 70
0
 10
480.390369
 20
363.425564
 30
0.0
 10
480.390369
 20
379.300564
 30
0.0
  0
LWPOLYLINE
  5
199
100
AcDbEntity
  8
Score
 62
3
100
AcDbPolyline
 90
2
 70
0
 10
480.390369
 20
382.475564
 30
0.0
 10
480.390369
 20
385.650564
 30
0.0
  0
LWPOLYLINE
  5
19a
100
AcDbEntity
  8
Score
 62
3
100
AcDbPolyline
 90
2
 70
0
 10
480.390369
 20
388.825564
 30
0.0
 10
480.390369
 20
397.588564
 30
0.0
  0
LWPOLYLINE
  5
19b
100
AcDbEntity
  8
Score
 62
3
100
AcDbPolyline
 90
2
 70
0
 10
316.024655
 20
176.438957
 30
0.0
 10
316.024655
 20
178.978957
 30
0.0
  0
LWPOLYLINE
  5
19c
100
AcDbEntity
  8
Score
 62
3
100
AcDbPolyline
 90
2
 70
0
 10
316.024655
 20
199.298957
 30
0.0
 10
316.024655
 20
201.838957
 30
0.0
  0
LWPOLYLINE
  5
19d
100
AcDbEntity
  8
Score
 62
3
100
AcDbPolyline
 90
2
 70
0
 10
331.899655
 20
176.438957
 30
0.0
 10
331.899655
 20
201.838957
 30
0.0
  0
LWPOLYLINE
  5
19e
100
AcDbEntity
  8
Score
 62
3
100
AcDbPolyline
 90
3
 70
0
 10
316.024655
 20
176.438957
 30
0.0
 10
334.439655
 20
176.438957
 30
0.0
 10
334.439655
 20
201.838957
 30
0.0
  0
LWPOLYLINE
  5
19f
100
AcDbEntity
  8
Score
 62
3
100
AcDbPolyline
 90
2
 70
0
 10
331.899655
 20
178.978957
 30
0.0
 10
316.024655
 20
178.978957
 30
0.0
  0
LWPOLYLINE
  5
1a0
100
AcDbEntity
  8
Score
 62
3
100
AcDbPolyline
 90
2
 70
0
 10
316.024655
 20
199.298957
 30
0.0
 10
331.899655
 20
199.298957
 30
0.0
  0
LWPOLYLINE
  5
1a1
100
AcDbEntity
  8
Score
 62
3
100
AcDbPolyline
 90
2
 70
0
 10
316.024655
 20
201.838957
 30
0.0
 10
334.439655
 20
201.838957
 30
0.0
  0
LWPOLYLINE
  5
1a2
100
AcDbEntity
  8
Score
 62
3
100
AcDbPolyline
 90
6
 70
0
 10
317.590988
 20
190.176124
 30
0.0
 10
317.590988
 20
187.932457
 30
0.0
 10
330.290988
 20
183.318124
 30
0.0
 10
330.290988
 20
185.011457
 30
0.0
 10
326.756155
 20
186.260290
 30
0.0
 10
326.756155
 20
191.763624
 30
0.0
  0
LWPOLYLINE
  5
1a3
100
AcDbEntity
  8
Score
 62
3
100
AcDbPolyline
 90
4
 70
0
 10
325.316822
 20
186.768290
 30
0.0
 10
319.072655
 20
189.011957
 30
0.0
 10
325.316822
 20
191.234457
 30
0.0
 10
325.316822
 20
186.768290
 30
0.0
  0
LWPOLYLINE
  5
1a4
100
AcDbEntity
  8
Score
 62
3
100
AcDbPolyline
 90
4
 70
0
 10
326.756155
 20
191.763624
 30
0.0
 10
330.290988
 20
192.991290
 30
0.0
 10
330.290988
 20
194.790457
 30
0.0
 10
317.590988
 20
190.176124
 30
0.0
  0
LWPOLYLINE
  5
1a5
100
AcDbEntity
  8
Score
 62
3
100
AcDbPolyline
 90
2
 70
0
 10
466.947194
 20
188.474747
 30
0.0
 10
464.407194
 20
188.474747
 30
0.0
  0
LWPOLYLINE
  5
1a6
100
AcDbEntity
  8
Score
 62
3
100
AcDbPolyline
 90
2
 70
0
 10
444.087194
 20
188.474747
 30
0.0
 10
441.547194
 20
188.474747
 30
0.0
  0
LWPOLYLINE
  5
1a7
100
AcDbEntity
  8
Score
 62
3
100
AcDbPolyline
 90
2
 70
0
 10
466.947194
 20
204.349747
 30
0.0
 10
441.547194
 20
204.349747
 30
0.0
  0
LWPOLYLINE
  5
1a8
100
AcDbEntity
  8
Score
 62
3
100
AcDbPolyline
 90
3
 70
0
 10
466.947194
 20
188.474747
 30
0.0
 10
466.947194
 20
206.889747
 30
0.0
 10
441.547194
 20
206.889747
 30
0.0
  0
LWPOLYLINE
  5
1a9
100
AcDbEntity
  8
Score
 62
3
100
AcDbPolyline
 90
2
 70
0
 10
464.407194
 20
204.349747
 30
0.0
 10
464.407194
 20
188.474747
 30
0.0
  0
LWPOLYLINE
  5
1aa
100
AcDbEntity
  8
Score
 62
3
100
AcDbPolyline
 90
2
 70
0
 10
444.087194
 20
188.474747
 30
0.0
 10
444.087194
 20
204.349747
 30
0.0
  0
LWPOLYLINE
  5
1ab
100
AcDbEntity
  8
Score
 62
3
100
AcDbPolyline
 90
2
 70
0
 10
441.547194
 20
188.474747
 30
0.0
 10
441.547194
 20
206.889747
 30
0.0
  0
LWPOLYLINE
  5
1ac
100
AcDbEntity
  8
Score
 62
3
100
AcDbPolyline
 90
6
 70
0
 10
453.210027
 20
190.062247
 30
0.0
 10
455.453694
 20
190.062247
 30
0.0
 10
460.068027
 20
202.762247
 30
0.0
 10
458.353527
 20
202.762247
 30
0.0
 10
457.104694
 20
199.227414
 30
0.0
 10
451.622527
 20
199.227414
 30
0.0
  0
LWPOLYLINE
  5
1ad
100
AcDbEntity
  8
Score
 62
3
100
AcDbPolyline
 90
4
 70
0
 10
456.596694
 20
197.766914
 30
0.0
 10
454.374194
 20
191.543914
 30
0.0
 10
452.151694
 20
197.766914
 30
0.0
 10
456.596694
 20
197.766914
 30
0.0
  0
LWPOLYLINE
  5
1ae
100
AcDbEntity
  8
Score
 62
3
100
AcDbPolyline
 90
4
 70
0
 10
451.622527
 20
199.227414
 30
0.0
 10
450.373694
 20
202.762247
 30
0.0
 10
448.574527
 20
202.762247
 30
0.0
 10
453.210027
 20
190.062247
 30
0.0
  0
LWPOLYLINE
  5
1af
100
AcDbEntity
  8
Score
 62
3
100
AcDbPolyline
 90
2
 70
0
 10
396.321957
 20
356.213894
 30
0.0
 10
396.321957
 20
358.753894
 30
0.0
  0
LWPOLYLINE
  5
1b0
100
AcDbEntity
  8
Score
 62
3
100
AcDbPolyline
 90
2
 70
0
 10
396.321957
 20
379.073894
 30
0.0
 10
396.321957
 20
381.613894
 30
0.0
  0
LWPOLYLINE
  5
1b1
100
AcDbEntity
  8
Score
 62
3
100
AcDbPolyline
 90
2
 70
0
 10
412.218124
 20
356.213894
 30
0.0
 10
412.218124
 20
381.613894
 30
0.0
  0
LWPOLYLINE
  5
1b2
100
AcDbEntity
  8
Score
 62
3
100
AcDbPolyline
 90
3
 70
0
 10
395.935341
 20
355.827284
 30
0.0
 10
414.371508
 20
355.827284
 30
0.0
 10
414.371508
 20
381.227284
 30
0.0
  0
LWPOLYLINE
  5
1b3
100
AcDbEntity
  8
Score
 62
3
100
AcDbPolyline
 90
2
 70
0
 10
412.218124
 20
358.753894
 30
0.0
 10
396.321957
 20
358.753894
 30
0.0
  0
LWPOLYLINE
  5
1b4
100
AcDbEntity
  8
Score
 62
3
100
AcDbPolyline
 90
2
 70
0
 10
396.321957
 20
379.073894
 30
0.0
 10
412.218124
 20
379.073894
 30
0.0
  0
LWPOLYLINE
  5
1b5
100
AcDbEntity
  8
Score
 62
3
100
AcDbPolyline
 90
2
 70
0
 10
396.321957
 20
381.613894
 30
0.0
 10
414.758124
 20
381.613894
 30
0.0
  0
LWPOLYLINE
  5
1b6
100
AcDbEntity
  8
Score
 62
3
100
AcDbPolyline
 90
6
 70
0
 10
397.909457
 20
369.951061
 30
0.0
 10
397.909457
 20
367.707394
 30
0.0
 10
410.609457
 20
363.093061
 30
0.0
 10
410.609457
 20
364.807561
 30
0.0
 10
407.074624
 20
366.056394
 30
0.0
 10
407.074624
 20
371.538561
 30
0.0
  0
LWPOLYLINE
  5
1b7
100
AcDbEntity
  8
Score
 62
3
100
AcDbPolyline
 90
4
 70
0
 10
405.614124
 20
366.564394
 30
0.0
 10
399.391124
 20
368.786894
 30
0.0
 10
405.614124
 20
371.009394
 30
0.0
 10
405.614124
 20
366.564394
 30
0.0
  0
LWPOLYLINE
  5
1b8
100
AcDbEntity
  8
Score
 62
3
100
AcDbPolyline
 90
4
 70
0
 10
407.074624
 20
371.538561
 30
0.0
 10
410.609457
 20
372.787394
 30
0.0
 10
410.609457
 20
374.586561
 30
0.0
 10
397.909457
 20
369.951061
 30
0.0
  0
LWPOLYLINE
  5
1b9
100
AcDbEntity
  8
Score
 62
3
100
AcDbPolyline
 90
2
 70
0
 10
47.262426
 20
306.592480
 30
0.0
 10
47.262426
 20
304.052480
 30
0.0
  0
LWPOLYLINE
  5
1ba
100
AcDbEntity
  8
Score
 62
3
100
AcDbPolyline
 90
2
 70
0
 10
47.262426
 20
283.732480
 30
0.0
 10
47.262426
 20
281.192480
 30
0.0
  0
LWPOLYLINE
  5
1bb
100
AcDbEntity
  8
Score
 62
3
100
AcDbPolyline
 90
2
 70
0
 10
31.387426
 20
306.592480
 30
0.0
 10
31.387426
 20
281.192480
 30
0.0
  0
LWPOLYLINE
  5
1bc
100
AcDbEntity
  8
Score
 62
3
100
AcDbPolyline
 90
3
 70
0
 10
47.262426
 20
306.592480
 30
0.0
 10
28.826257
 20
306.592480
 30
0.0
 10
28.826257
 20
281.192480
 30
0.0
  0
LWPOLYLINE
  5
1bd
100
AcDbEntity
  8
Score
 62
3
100
AcDbPolyline
 90
2
 70
0
 10
31.387426
 20
304.052480
 30
0.0
 10
47.262426
 20
304.052480
 30
0.0
  0
LWPOLYLINE
  5
1be
100
AcDbEntity
  8
Score
 62
3
100
AcDbPolyline
 90
2
 70
0
 10
47.262426
 20
283.732480
 30
0.0
 10
31.387426
 20
283.732480
 30
0.0
  0
LWPOLYLINE
  5
1bf
100
AcDbEntity
  8
Score
 62
3
100
AcDbPolyline
 90
2
 70
0
 10
47.262426
 20
281.192480
 30
0.0
 10
28.826257
 20
281.192480
 30
0.0
  0
LWPOLYLINE
  5
1c0
100
AcDbEntity
  8
Score
 62
3
100
AcDbPolyline
 90
6
 70
0
 10
45.674926
 20
292.834146
 30
0.0
 10
45.674926
 20
295.098980
 30
0.0
 10
32.974926
 20
299.713313
 30
0.0
 10
32.974926
 20
297.998813
 30
0.0
 10
36.509760
 20
296.749980
 30
0.0
 10
36.509760
 20
291.267813
 30
0.0
  0
LWPOLYLINE
  5
1c1
100
AcDbEntity
  8
Score
 62
3
100
AcDbPolyline
 90
4
 70
0
 10
37.970260
 20
296.241980
 30
0.0
 10
44.193260
 20
293.998313
 30
0.0
 10
37.970260
 20
291.775813
 30
0.0
 10
37.970260
 20
296.241980
 30
0.0
  0
LWPOLYLINE
  5
1c2
100
AcDbEntity
  8
Score
 62
3
100
AcDbPolyline
 90
4
 70
0
 10
36.509760
 20
291.267813
 30
0.0
 10
32.974926
 20
290.018980
 30
0.0
 10
32.974926
 20
288.219813
 30
0.0
 10
45.674926
 20
292.834146
 30
0.0
  0
LWPOLYLINE
  5
1c3
100
AcDbEntity
  8
Score
 62
3
100
AcDbPolyline
 90
2
 70
0
 10
56.850074
 20
217.618904
 30
0.0
 10
56.850074
 20
234.552238
 30
0.0
  0
LWPOLYLINE
  5
1c4
100
AcDbEntity
  8
Score
 62
3
100
AcDbPolyline
 90
2
 70
0
 10
54.310074
 20
234.552238
 30
0.0
 10
54.310074
 20
217.618904
 30
0.0
  0
LWPOLYLINE
  5
1c5
100
AcDbEntity
  8
Score
 62
3
100
AcDbPolyline
 90
5
 70
0
 10
54.310074
 20
232.012238
 30
0.0
 10
51.770074
 20
232.012238
 30
0.0
 10
51.770074
 20
217.618904
 30
0.0
 10
54.310074
 20
217.618904
 30
0.0
 10
56.850074
 20
217.618904
 30
0.0
  0
LWPOLYLINE
  5
1c6
100
AcDbEntity
  8
Score
 62
3
100
AcDbPolyline
 90
62
 70
0
 10
36.085574
 20
226.297238
 30
0.0
 10
36.149074
 20
225.344738
 30
0.0
 10
36.318407
 20
224.434571
 30
0.0
 10
36.614741
 20
223.587904
 30
0.0
 10
36.995741
 20
222.804738
 30
0.0
 10
37.482574
 20
222.063904
 30
0.0
 10
38.075241
 20
221.407738
 30
0.0
 10
38.329241
 20
221.196071
 30
0.0
 10
39.006574
 20
220.645738
 30
0.0
 10
39.747407
 20
220.201238
 30
0.0
 10
40.572907
 20
219.841404
 30
0.0
 10
41.440741
 20
219.587404
 30
0.0
 10
42.372074
 20
219.439238
 30
0.0
 10
43.345741
 20
219.396904
 30
0.0
 10
44.213574
 20
219.418071
 30
0.0
 10
45.166074
 20
219.566238
 30
0.0
 10
46.055074
 20
219.820238
 30
0.0
 10
46.838241
 20
220.158904
 30
0.0
 10
47.579074
 20
220.603404
 30
0.0
 10
48.256407
 20
221.174904
 30
0.0
 10
48.764407
 20
221.746404
 30
0.0
 10
49.251241
 20
222.466071
 30
0.0
 10
49.611074
 20
223.249238
 30
0.0
 10
49.865074
 20
224.117071
 30
0.0
 10
50.034407
 20
225.048404
 30
0.0
 10
50.076741
 20
226.085571
 30
0.0
 10
50.076741
 20
226.381904
 30
0.0
 10
50.013241
 20
227.419071
 30
0.0
 10
49.865074
 20
228.371571
 30
0.0
 10
49.653407
 20
229.197071
 30
0.0
 10
49.357074
 20
229.959071
 30
0.0
 10
46.563074
 20
229.959071
 30
0.0
 10
46.880574
 20
229.366404
 30
0.0
 10
47.176907
 20
228.519738
 30
0.0
 10
47.367407
 20
227.630738
 30
0.0
 10
47.430907
 20
226.678238
 30
0.0
 10
47.409741
 20
226.064404
 30
0.0
 10
47.219241
 20
225.154238
 30
0.0
 10
46.838241
 20
224.371071
 30
0.0
 10
46.266741
 20
223.714904
 30
0.0
 10
45.801074
 20
223.312738
 30
0.0
 10
45.017907
 20
222.910571
 30
0.0
 10
44.128907
 20
222.677738
 30
0.0
 10
43.134074
 20
222.593071
 30
0.0
 10
42.245074
 20
222.656571
 30
0.0
 10
41.356074
 20
222.868238
 30
0.0
 10
40.572907
 20
223.249238
 30
0.0
 10
39.895574
 20
223.757238
 30
0.0
 10
39.472241
 20
224.265238
 30
0.0
 10
39.027741
 20
225.006071
 30
0.0
 10
38.773741
 20
225.895071
 30
0.0
 10
38.689074
 20
226.847571
 30
0.0
 10
38.710241
 20
227.334404
 30
0.0
 10
38.837241
 20
228.265738
 30
0.0
 10
39.112407
 20
229.133571
 30
0.0
 10
39.514574
 20
229.959071
 30
0.0
 10
36.572407
 20
229.959071
 30
0.0
 10
36.403074
 20
229.451071
 30
0.0
 10
36.212574
 20
228.583238
 30
0.0
 10
36.106741
 20
227.630738
 30
0.0
 10
36.064407
 20
226.593571
 30
0.0
 10
36.085574
 20
226.297238
 30
0.0
  0
LWPOLYLINE
  5
1c7
100
AcDbEntity
  8
Score
 62
3
100
AcDbPolyline
 90
2
 70
0
 10
54.310074
 20
234.552238
 30
0.0
 10
56.850074
 20
234.552238
 30
0.0
  0
LWPOLYLINE
  5
1c8
100
AcDbEntity
  8
Score
 62
3
100
AcDbPolyline
 90
2
 70
0
 10
57.671583
 20
168.099742
 30
0.0
 10
57.671583
 20
185.033075
 30
0.0
  0
LWPOLYLINE
  5
1c9
100
AcDbEntity
  8
Score
 62
3
100
AcDbPolyline
 90
2
 70
0
 10
55.131583
 20
185.033075
 30
0.0
 10
55.131583
 20
168.099742
 30
0.0
  0
LWPOLYLINE
  5
1ca
100
AcDbEntity
  8
Score
 62
3
100
AcDbPolyline
 90
5
 70
0
 10
55.131583
 20
182.493075
 30
0.0
 10
52.591583
 20
182.493075
 30
0.0
 10
52.591583
 20
168.099742
 30
0.0
 10
55.131583
 20
168.099742
 30
0.0
 10
57.671583
 20
168.099742
 30
0.0
  0
LWPOLYLINE
  5
1cb
100
AcDbEntity
  8
Score
 62
3
100
AcDbPolyline
 90
62
 70
0
 10
36.907083
 20
176.799242
 30
0.0
 10
36.970583
 20
175.825575
 30
0.0
 10
37.139917
 20
174.915408
 30
0.0
 10
37.436250
 20
174.068742
 30
0.0
 10
37.817250
 20
173.285575
 30
0.0
 10
38.304083
 20
172.565908
 30
0.0
 10
38.896750
 20
171.888575
 30
0.0
 10
39.150750
 20
171.676908
 30
0.0
 10
39.828083
 20
171.126575
 30
0.0
 10
40.568917
 20
170.682075
 30
0.0
 10
41.394417
 20
170.322242
 30
0.0
 10
42.262250
 20
170.089408
 30
0.0
 10
43.193583
 20
169.920075
 30
0.0
 10
44.167250
 20
169.877742
 30
0.0
 10
45.035083
 20
169.920075
 30
0.0
 10
45.987583
 20
170.047075
 30
0.0
 10
46.876583
 20
170.301075
 30
0.0
 10
47.659750
 20
170.660908
 30
0.0
 10
48.400583
 20
171.105408
 30
0.0
 10
49.077917
 20
171.655742
 30
0.0
 10
49.585917
 20
172.248408
 30
0.0
 10
50.072750
 20
172.946908
 30
0.0
 10
50.432583
 20
173.730075
 30
0.0
 10
50.686583
 20
174.597908
 30
0.0
 10
50.855917
 20
175.550408
 30
0.0
 10
50.898250
 20
176.566408
 30
0.0
 10
50.898250
 20
176.883908
 30
0.0
 10
50.834750
 20
177.921075
 30
0.0
 10
50.686583
 20
178.852408
 30
0.0
 10
50.474917
 20
179.699075
 30
0.0
 10
50.178583
 20
180.439908
 30
0.0
 10
47.384583
 20
180.439908
 30
0.0
 10
47.702083
 20
179.868408
 30
0.0
 10
47.998417
 20
179.000575
 30
0.0
 10
48.188917
 20
178.111575
 30
0.0
 10
48.252417
 20
177.180242
 30
0.0
 10
48.231250
 20
176.566408
 30
0.0
 10
48.040750
 20
175.635075
 30
0.0
 10
47.659750
 20
174.851908
 30
0.0
 10
47.088250
 20
174.195742
 30
0.0
 10
46.622583
 20
173.814742
 30
0.0
 10
45.839417
 20
173.391408
 30
0.0
 10
44.950417
 20
173.158575
 30
0.0
 10
43.955583
 20
173.095075
 30
0.0
 10
43.066583
 20
173.158575
 30
0.0
 10
42.177583
 20
173.370242
 30
0.0
 10
41.394417
 20
173.730075
 30
0.0
 10
40.717083
 20
174.259242
 30
0.0
 10
40.293750
 20
174.746075
 30
0.0
 10
39.849250
 20
175.508075
 30
0.0
 10
39.595250
 20
176.375908
 30
0.0
 10
39.510583
 20
177.349575
 30
0.0
 10
39.531750
 20
177.836408
 30
0.0
 10
39.658750
 20
178.767742
 30
0.0
 10
39.933917
 20
179.635575
 30
0.0
 10
40.336083
 20
180.439908
 30
0.0
 10
37.393917
 20
180.439908
 30
0.0
 10
37.224583
 20
179.931908
 30
0.0
 10
37.034083
 20
179.085242
 30
0.0
 10
36.928250
 20
178.132742
 30
0.0
 10
36.885917
 20
177.095575
 30
0.0
 10
36.907083
 20
176.799242
 30
0.0
  0
LWPOLYLINE
  5
1cc
100
AcDbEntity
  8
Score
 62
3
100
AcDbPolyline
 90
2
 70
0
 10
55.131583
 20
185.033075
 30
0.0
 10
57.671583
 20
185.033075
 30
0.0
  0
LWPOLYLINE
  5
1cd
100
AcDbEntity
  8
Score
 62
3
100
AcDbPolyline
 90
2
 70
0
 10
466.508818
 20
121.447167
 30
0.0
 10
463.968818
 20
121.447167
 30
0.0
  0
LWPOLYLINE
  5
1ce
100
AcDbEntity
  8
Score
 62
3
100
AcDbPolyline
 90
2
 70
0
 10
443.648818
 20
121.447167
 30
0.0
 10
441.108818
 20
121.447167
 30
0.0
  0
LWPOLYLINE
  5
1cf
100
AcDbEntity
  8
Score
 62
3
100
AcDbPolyline
 90
2
 70
0
 10
466.508818
 20
137.322167
 30
0.0
 10
441.108818
 20
137.322167
 30
0.0
  0
LWPOLYLINE
  5
1d0
100
AcDbEntity
  8
Score
 62
3
100
AcDbPolyline
 90
3
 70
0
 10
466.508818
 20
121.447167
 30
0.0
 10
466.508818
 20
139.862167
 30
0.0
 10
441.108818
 20
139.862167
 30
0.0
  0
LWPOLYLINE
  5
1d1
100
AcDbEntity
  8
Score
 62
3
100
AcDbPolyline
 90
2
 70
0
 10
463.968818
 20
137.322167
 30
0.0
 10
463.968818
 20
121.447167
 30
0.0
  0
LWPOLYLINE
  5
1d2
100
AcDbEntity
  8
Score
 62
3
100
AcDbPolyline
 90
2
 70
0
 10
443.648818
 20
121.447167
 30
0.0
 10
443.648818
 20
137.322167
 30
0.0
  0
LWPOLYLINE
  5
1d3
100
AcDbEntity
  8
Score
 62
3
100
AcDbPolyline
 90
2
 70
0
 10
441.108818
 20
121.447167
 30
0.0
 10
441.108818
 20
139.862167
 30
0.0
  0
LWPOLYLINE
  5
1d4
100
AcDbEntity
  8
Score
 62
3
100
AcDbPolyline
 90
6
 70
0
 10
452.771651
 20
123.034667
 30
0.0
 10
455.015318
 20
123.034667
 30
0.0
 10
459.629651
 20
135.734667
 30
0.0
 10
457.915151
 20
135.734667
 30
0.0
 10
456.666318
 20
132.199833
 30
0.0
 10
451.184151
 20
132.199833
 30
0.0
  0
LWPOLYLINE
  5
1d5
100
AcDbEntity
  8
Score
 62
3
100
AcDbPolyline
 90
4
 70
0
 10
456.158318
 20
130.739333
 30
0.0
 10
453.935818
 20
124.516333
 30
0.0
 10
451.713318
 20
130.739333
 30
0.0
 10
456.158318
 20
130.739333
 30
0.0
  0
LWPOLYLINE
  5
1d6
100
AcDbEntity
  8
Score
 62
3
100
AcDbPolyline
 90
4
 70
0
 10
451.184151
 20
132.199833
 30
0.0
 10
449.935318
 20
135.734667
 30
0.0
 10
448.136151
 20
135.734667
 30
0.0
 10
452.771651
 20
123.034667
 30
0.0
  0
LWPOLYLINE
  5
1d7
100
AcDbEntity
  8
Score
 62
3
100
AcDbPolyline
 90
2
 70
0
 10
546.400200
 20
294.397601
 30
0.0
 10
546.400200
 20
303.139434
 30
0.0
  0
LWPOLYLINE
  5
1d8
100
AcDbEntity
  8
Score
 62
3
100
AcDbPolyline
 90
2
 70
0
 10
546.400200
 20
306.314434
 30
0.0
 10
546.400200
 20
309.489434
 30
0.0
  0
LWPOLYLINE
  5
1d9
100
AcDbEntity
  8
Score
 62
3
100
AcDbPolyline
 90
2
 70
0
 10
546.400200
 20
312.664429
 30
0.0
 10
546.400200
 20
328.539429
 30
0.0
  0
LWPOLYLINE
  5
1da
100
AcDbEntity
  8
Score
 62
3
100
AcDbPolyline
 90
2
 70
0
 10
546.400200
 20
331.714429
 30
0.0
 10
546.400200
 20
334.889429
 30
0.0
  0
LWPOLYLINE
  5
1db
100
AcDbEntity
  8
Score
 62
3
100
AcDbPolyline
 90
2
 70
0
 10
546.400200
 20
338.064429
 30
0.0
 10
546.400200
 20
353.939429
 30
0.0
  0
LWPOLYLINE
  5
1dc
100
AcDbEntity
  8
Score
 62
3
100
AcDbPolyline
 90
2
 70
0
 10
546.400200
 20
357.114429
 30
0.0
 10
546.400200
 20
360.289429
 30
0.0
  0
LWPOLYLINE
  5
1dd
100
AcDbEntity
  8
Score
 62
3
100
AcDbPolyline
 90
2
 70
0
 10
546.400200
 20
363.464429
 30
0.0
 10
546.400200
 20
379.339429
 30
0.0
  0
LWPOLYLINE
  5
1de
100
AcDbEntity
  8
Score
 62
3
100
AcDbPolyline
 90
2
 70
0
 10
546.400200
 20
382.514429
 30
0.0
 10
546.400200
 20
385.689429
 30
0.0
  0
LWPOLYLINE
  5
1df
100
AcDbEntity
  8
Score
 62
3
100
AcDbPolyline
 90
2
 70
0
 10
546.400200
 20
388.864429
 30
0.0
 10
546.400200
 20
397.627429
 30
0.0
  0
LWPOLYLINE
  5
1e0
100
AcDbEntity
  8
Score
 62
3
100
AcDbPolyline
 90
2
 70
0
 10
558.620422
 20
188.188207
 30
0.0
 10
556.080422
 20
188.188207
 30
0.0
  0
LWPOLYLINE
  5
1e1
100
AcDbEntity
  8
Score
 62
3
100
AcDbPolyline
 90
2
 70
0
 10
535.760422
 20
188.188207
 30
0.0
 10
533.220422
 20
188.188207
 30
0.0
  0
LWPOLYLINE
  5
1e2
100
AcDbEntity
  8
Score
 62
3
100
AcDbPolyline
 90
2
 70
0
 10
558.620422
 20
204.063207
 30
0.0
 10
533.220422
 20
204.063207
 30
0.0
  0
LWPOLYLINE
  5
1e3
100
AcDbEntity
  8
Score
 62
3
100
AcDbPolyline
 90
3
 70
0
 10
558.620422
 20
188.188207
 30
0.0
 10
558.620422
 20
206.603207
 30
0.0
 10
533.220422
 20
206.603207
 30
0.0
  0
LWPOLYLINE
  5
1e4
100
AcDbEntity
  8
Score
 62
3
100
AcDbPolyline
 90
2
 70
0
 10
556.080422
 20
204.063207
 30
0.0
 10
556.080422
 20
188.188207
 30
0.0
  0
LWPOLYLINE
  5
1e5
100
AcDbEntity
  8
Score
 62
3
100
AcDbPolyline
 90
2
 70
0
 10
535.760422
 20
188.188207
 30
0.0
 10
535.760422
 20
204.063207
 30
0.0
  0
LWPOLYLINE
  5
1e6
100
AcDbEntity
  8
Score
 62
3
100
AcDbPolyline
 90
2
 70
0
 10
533.220422
 20
188.188207
 30
0.0
 10
533.220422
 20
206.603207
 30
0.0
  0
LWPOLYLINE
  5
1e7
100
AcDbEntity
  8
Score
 62
3
100
AcDbPolyline
 90
6
 70
0
 10
544.883255
 20
189.775707
 30
0.0
 10
547.126922
 20
189.775707
 30
0.0
 10
551.741255
 20
202.475707
 30
0.0
 10
550.026755
 20
202.475707
 30
0.0
 10
548.777922
 20
198.940873
 30
0.0
 10
543.295755
 20
198.940873
 30
0.0
  0
LWPOLYLINE
  5
1e8
100
AcDbEntity
  8
Score
 62
3
100
AcDbPolyline
 90
4
 70
0
 10
548.269922
 20
197.480373
 30
0.0
 10
546.047422
 20
191.257373
 30
0.0
 10
543.824922
 20
197.480373
 30
0.0
 10
548.269922
 20
197.480373
 30
0.0
  0
LWPOLYLINE
  5
1e9
100
AcDbEntity
  8
Score
 62
3
100
AcDbPolyline
 90
4
 70
0
 10
543.295755
 20
198.940873
 30
0.0
 10
542.046922
 20
202.475707
 30
0.0
 10
540.247755
 20
202.475707
 30
0.0
 10
544.883255
 20
189.775707
 30
0.0
  0
LWPOLYLINE
  5
1ea
100
AcDbEntity
  8
Score
 62
3
100
AcDbPolyline
 90
2
 70
0
 10
558.182046
 20
121.160655
 30
0.0
 10
555.642046
 20
121.160655
 30
0.0
  0
LWPOLYLINE
  5
1eb
100
AcDbEntity
  8
Score
 62
3
100
AcDbPolyline
 90
2
 70
0
 10
535.322046
 20
121.160655
 30
0.0
 10
532.782046
 20
121.160655
 30
0.0
  0
LWPOLYLINE
  5
1ec
100
AcDbEntity
  8
Score
 62
3
100
AcDbPolyline
 90
2
 70
0
 10
558.182046
 20
137.035626
 30
0.0
 10
532.782046
 20
137.035626
 30
0.0
  0
LWPOLYLINE
  5
1ed
100
AcDbEntity
  8
Score
 62
3
100
AcDbPolyline
 90
3
 70
0
 10
558.182046
 20
121.160655
 30
0.0
 10
558.182046
 20
139.575626
 30
0.0
 10
532.782046
 20
139.575626
 30
0.0
  0
LWPOLYLINE
  5
1ee
100
AcDbEntity
  8
Score
 62
3
100
AcDbPolyline
 90
2
 70
0
 10
555.642046
 20
137.035626
 30
0.0
 10
555.642046
 20
121.160655
 30
0.0
  0
LWPOLYLINE
  5
1ef
100
AcDbEntity
  8
Score
 62
3
100
AcDbPolyline
 90
2
 70
0
 10
535.322046
 20
121.160655
 30
0.0
 10
535.322046
 20
137.035626
 30
0.0
  0
LWPOLYLINE
  5
1f0
100
AcDbEntity
  8
Score
 62
3
100
AcDbPolyline
 90
2
 70
0
 10
532.782046
 20
121.160655
 30
0.0
 10
532.782046
 20
139.575626
 30
0.0
  0
LWPOLYLINE
  5
1f1
100
AcDbEntity
  8
Score
 62
3
100
AcDbPolyline
 90
6
 70
0
 10
544.444880
 20
122.748155
 30
0.0
 10
546.688546
 20
122.748155
 30
0.0
 10
551.302880
 20
135.448126
 30
0.0
 10
549.588380
 20
135.448126
 30
0.0
 10
548.339546
 20
131.913321
 30
0.0
 10
542.857380
 20
131.913321
 30
0.0
  0
LWPOLYLINE
  5
1f2
100
AcDbEntity
  8
Score
 62
3
100
AcDbPolyline
 90
4
 70
0
 10
547.831546
 20
130.452821
 30
0.0
 10
545.609046
 20
124.229821
 30
0.0
 10
543.386546
 20
130.452821
 30
0.0
 10
547.831546
 20
130.452821
 30
0.0
  0
LWPOLYLINE
  5
1f3
100
AcDbEntity
  8
Score
 62
3
100
AcDbPolyline
 90
4
 70
0
 10
542.857380
 20
131.913321
 30
0.0
 10
541.608546
 20
135.448126
 30
0.0
 10
539.809380
 20
135.448126
 30
0.0
 10
544.444880
 20
122.748155
 30
0.0
  0
ENDSEC
  0
SECTION
  2
OBJECTS
  0
DICTIONARY
  5
C
330
0
100
AcDbDictionary
  3
ACAD_GROUP
350
D
  3
ACAD_MLINESTYLE
350
17
  0
DICTIONARY
  5
D
330
C
100
AcDbDictionary
  0
DICTIONARY
  5
1A
330
C
100
AcDbDictionary
  0
DICTIONARY
  5
17
330
C
100
AcDbDictionary
  3
STANDARD
350
18
  0
DICTIONARY
  5
19
330
C
100
AcDbDictionary
  0
ENDSEC
  0
EOF
