  0
SECTION
  2
HEADER
  9
$ACADVER
  1
AC1014
  9
$HANDSEED
  5
FFFF
  9
$MEASUREMENT
 70
     1
  0
ENDSEC
  0
SECTION
  2
TABLES
  0
TABLE
  2
VPORT
  5
8
330
0
100
AcDbSymbolTable
 70
     4
  0
VPORT
  5
2E
330
8
100
AcDbSymbolTableRecord
100
AcDbViewportTableRecord
  2
*ACTIVE
 70
     0
 10
0.0
 20
0.0
 11
1.0
 21
1.0
 12
210.0
 22
148.5
 13
0.0
 23
0.0
 14
10.0
 24
10.0
 15
10.0
 25
10.0
 16
0.0
 26
0.0
 36
1.0
 17
0.0
 27
0.0
 37
0.0
 40
341.0
 41
1.24
 42
50.0
 43
0.0
 44
0.0
 50
0.0
 51
0.0
 71
     0
 72
   100
 73
     1
 74
     3
 75
     0
 76
     0
 77
     0
 78
     0
  0
ENDTAB
  0
TABLE
  2
LTYPE
  5
5
330
0
100
AcDbSymbolTable
 70
     1
  0
LTYPE
  5
14
330
5
100
AcDbSymbolTableRecord
100
AcDbLinetypeTableRecord
  2
BYBLOCK
 70
     0
  3

 72
    65
 73
     0
 40
0.0
  0
LTYPE
  5
15
330
5
100
AcDbSymbolTableRecord
100
AcDbLinetypeTableRecord
  2
BYLAYER
 70
     0
  3

 72
    65
 73
     0
 40
0.0
  0
LTYPE
  5
16
330
5
100
AcDbSymbolTableRecord
100
AcDbLinetypeTableRecord
  2
CONTINUOUS
 70
     0
  3
Solid line
 72
    65
 73
     0
 40
0.0
  0
ENDTAB
  0
TABLE
  2
LAYER
  5
2
100
AcDbSymbolTable
 70
2
  0
LAYER
  5
50
100
AcDbSymbolTableRecord
100
AcDbLayerTableRecord
  2
0
 70
0
  6
CONTINUOUS
  0
LAYER
  5
51
100
AcDbSymbolTableRecord
100
AcDbLayerTableRecord
  2
FullCuts
 70
0
  6
CONTINUOUS
  0
ENDTAB
  0
TABLE
  2
STYLE
  5
3
330
0
100
AcDbSymbolTable
 70
     1
  0
STYLE
  5
11
330
3
100
AcDbSymbolTableRecord
100
AcDbTextStyleTableRecord
  2
STANDARD
 70
     0
 40
0.0
 41
1.0
 50
0.0
 71
     0
 42
2.5
  3
txt
  4

  0
ENDTAB
  0
TABLE
  2
VIEW
  5
6
330
0
100
AcDbSymbolTable
 70
     0
  0
ENDTAB
  0
TABLE
  2
UCS
  5
7
330
0
100
AcDbSymbolTable
 70
     0
  0
ENDTAB
  0
TABLE
  2
APPID
  5
9
330
0
100
AcDbSymbolTable
 70
     2
  0
APPID
  5
12
330
9
100
AcDbSymbolTableRecord
100
AcDbRegAppTableRecord
  2
ACAD
 70
     0
  0
ENDTAB
  0
TABLE
  2
DIMSTYLE
  5
A
330
0
100
AcDbSymbolTable
 70
     1
  0
DIMSTYLE
105
27
330
A
100
AcDbSymbolTableRecord
100
AcDbDimStyleTableRecord
  2
ISO-25
 70
     0
  3

  4

  5

  6

  7

 40
1.0
 41
2.5
 42
0.625
 43
3.75
 44
1.25
 45
0.0
 46
0.0
 47
0.0
 48
0.0
140
2.5
141
2.5
142
0.0
143
0.03937007874016
144
1.0
145
0.0
146
1.0
147
0.625
 71
     0
 72
     0
 73
     0
 74
     0
 75
     0
 76
     0
 77
     1
 78
     8
170
     0
171
     3
172
     1
173
     0
174
     0
175
     0
176
     0
177
     0
178
     0
270
     2
271
     2
272
     2
273
     2
274
     3
340
11
275
     0
280
     0
281
     0
282
     0
283
     0
284
     8
285
     0
286
     0
287
     3
288
     0
  0
ENDTAB
  0
TABLE
  2
BLOCK_RECORD
  5
1
330
0
100
AcDbSymbolTable
 70
     1
  0
BLOCK_RECORD
  5
1F
330
1
100
AcDbSymbolTableRecord
100
AcDbBlockTableRecord
  2
*MODEL_SPACE
  0
BLOCK_RECORD
  5
1B
330
1
100
AcDbSymbolTableRecord
100
AcDbBlockTableRecord
  2
*PAPER_SPACE
  0
ENDTAB
  0
ENDSEC
  0
SECTION
  2
BLOCKS
  0
BLOCK
  5
20
330
1F
100
AcDbEntity
  8
0
100
AcDbBlockBegin
  2
*MODEL_SPACE
 70
     0
 10
0.0
 20
0.0
 30
0.0
  3
*MODEL_SPACE
  1

  0
ENDBLK
  5
21
330
1F
100
AcDbEntity
  8
0
100
AcDbBlockEnd
  0
BLOCK
  5
1C
330
1B
100
AcDbEntity
 67
     1
  8
0
100
AcDbBlockBegin
  2
*PAPER_SPACE
  1

  0
ENDBLK
  5
1D
330
1B
100
AcDbEntity
 67
     1
  8
0
100
AcDbBlockEnd
  0
ENDSEC
  0
SECTION
  2
ENTITIES
  0
LWPOLYLINE
  5
100
100
AcDbEntity
  8
FullCuts
 62
7
100
AcDbPolyline
 90
2
 70
0
 10
251.915346
 20
363.061966
 30
0.0
 10
197.889862
 20
393.603947
 30
0.0
  0
SPLINE
  5
101
100
AcDbEntity
  8
FullCuts
 62
7
100
AcDbSpline
 70
8
 71
3
 72
8
 73
4
 74
0
 40
0
 40
0
 40
0
 40
0
 40
1
 40
1
 40
1
 40
1
 10
16.897874
 20
183.708526
 30
0.0
 10
15.726267
 20
182.253826
 30
0.0
 10
15.253282
 20
180.357679
 30
0.0
 10
15.604405
 20
178.523142
 30
0.0
  0
SPLINE
  5
102
100
AcDbEntity
  8
FullCuts
 62
7
100
AcDbSpline
 70
8
 71
3
 72
8
 73
4
 74
0
 40
0
 40
0
 40
0
 40
0
 40
1
 40
1
 40
1
 40
1
 10
15.604405
 20
178.523142
 30
0.0
 10
15.955528
 20
176.688604
 30
0.0
 10
17.095264
 20
175.101125
 30
0.0
 10
18.721237
 20
174.181871
 30
0.0
  0
SPLINE
  5
103
100
AcDbEntity
  8
FullCuts
 62
7
100
AcDbSpline
 70
8
 71
3
 72
8
 73
4
 74
0
 40
0
 40
0
 40
0
 40
0
 40
1
 40
1
 40
1
 40
1
 10
197.916317
 20
393.632034
 30
0.0
 10
193.176836
 20
396.311531
 30
0.0
 10
187.194346
 20
395.166507
 30
0.0
 10
183.779275
 20
390.926262
 30
0.0
  0
LWPOLYLINE
  5
104
100
AcDbEntity
  8
FullCuts
 62
7
100
AcDbPolyline
 90
2
 70
0
 10
183.780628
 20
390.894044
 30
0.0
 10
16.883395
 20
183.681313
 30
0.0
  0
LWPOLYLINE
  5
105
100
AcDbEntity
  8
FullCuts
 62
7
100
AcDbPolyline
 90
2
 70
0
 10
516.034472
 20
82.890190
 30
0.0
 10
577.970283
 20
288.787926
 30
0.0
  0
SPLINE
  5
106
100
AcDbEntity
  8
FullCuts
 62
7
100
AcDbSpline
 70
8
 71
3
 72
8
 73
4
 74
0
 40
0
 40
0
 40
0
 40
0
 40
1
 40
1
 40
1
 40
1
 10
456.787906
 20
100.616829
 30
0.0
 10
449.098268
 20
102.914096
 30
0.0
 10
440.810249
 20
102.053263
 30
0.0
 10
433.756867
 20
98.224717
 30
0.0
  0
SPLINE
  5
107
100
AcDbEntity
  8
FullCuts
 62
7
100
AcDbSpline
 70
8
 71
3
 72
8
 73
4
 74
0
 40
0
 40
0
 40
0
 40
0
 40
1
 40
1
 40
1
 40
1
 10
433.756867
 20
98.224717
 30
0.0
 10
426.703484
 20
94.396173
 30
0.0
 10
421.465949
 20
87.915394
 30
0.0
 10
419.202619
 20
80.215698
 30
0.0
  0
LWPOLYLINE
  5
108
100
AcDbEntity
  8
FullCuts
 62
7
100
AcDbPolyline
 90
2
 70
0
 10
401.266378
 20
19.170847
 30
0.0
 10
419.206228
 20
80.204111
 30
0.0
  0
LWPOLYLINE
  5
109
100
AcDbEntity
  8
FullCuts
 62
7
100
AcDbPolyline
 90
2
 70
0
 10
456.786516
 20
100.592550
 30
0.0
 10
516.034472
 20
82.890190
 30
0.0
  0
LWPOLYLINE
  5
10a
100
AcDbEntity
  8
FullCuts
 62
7
100
AcDbPolyline
 90
3
 70
0
 10
401.266378
 20
19.170847
 30
0.0
 10
101.212057
 20
18.637898
 30
0.0
 10
127.547903
 20
106.805503
 30
0.0
  0
LWPOLYLINE
  5
10b
100
AcDbEntity
  8
FullCuts
 62
7
100
AcDbPolyline
 90
5
 70
0
 10
386.332617
 20
400.636414
 30
0.0
 10
466.453220
 20
355.343027
 30
0.0
 10
504.059980
 20
334.079253
 30
0.0
 10
543.072828
 20
311.991004
 30
0.0
 10
577.970283
 20
288.787926
 30
0.0
  0
LWPOLYLINE
  5
10c
100
AcDbEntity
  8
FullCuts
 62
7
100
AcDbPolyline
 90
2
 70
0
 10
257.188863
 20
367.977741
 30
0.0
 10
317.464863
 20
333.774473
 30
0.0
  0
SPLINE
  5
10d
100
AcDbEntity
  8
FullCuts
 62
7
100
AcDbSpline
 70
8
 71
3
 72
8
 73
4
 74
0
 40
0
 40
0
 40
0
 40
0
 40
1
 40
1
 40
1
 40
1
 10
317.468912
 20
333.773659
 30
0.0
 10
323.702993
 20
330.234967
 30
0.0
 10
331.088464
 20
329.320805
 30
0.0
 10
337.997210
 20
331.232696
 30
0.0
  0
SPLINE
  5
10e
100
AcDbEntity
  8
FullCuts
 62
7
100
AcDbSpline
 70
8
 71
3
 72
8
 73
4
 74
0
 40
0
 40
0
 40
0
 40
0
 40
1
 40
1
 40
1
 40
1
 10
337.997210
 20
331.232696
 30
0.0
 10
344.905956
 20
333.144588
 30
0.0
 10
350.770732
 20
337.725557
 30
0.0
 10
354.298659
 20
343.965735
 30
0.0
  0
LWPOLYLINE
  5
10f
100
AcDbEntity
  8
FullCuts
 62
7
100
AcDbPolyline
 90
2
 70
0
 10
354.286594
 20
343.948649
 30
0.0
 10
386.332617
 20
400.636414
 30
0.0
  0
LWPOLYLINE
  5
110
100
AcDbEntity
  8
FullCuts
 62
7
100
AcDbPolyline
 90
2
 70
0
 10
37.723355
 20
157.583800
 30
0.0
 10
127.547903
 20
106.805503
 30
0.0
  0
LWPOLYLINE
  5
111
100
AcDbEntity
  8
FullCuts
 62
7
100
AcDbPolyline
 90
2
 70
0
 10
257.188863
 20
367.977741
 30
0.0
 10
251.915346
 20
363.061966
 30
0.0
  0
LWPOLYLINE
  5
112
100
AcDbEntity
  8
FullCuts
 62
7
100
AcDbPolyline
 90
2
 70
0
 10
18.716559
 20
174.171750
 30
0.0
 10
41.558659
 20
161.256443
 30
0.0
  0
LWPOLYLINE
  5
113
100
AcDbEntity
  8
FullCuts
 62
7
100
AcDbPolyline
 90
2
 70
0
 10
530.704834
 20
257.112684
 30
0.0
 10
520.375275
 20
215.157303
 30
0.0
  0
SPLINE
  5
114
100
AcDbEntity
  8
FullCuts
 62
7
100
AcDbSpline
 70
8
 71
3
 72
8
 73
4
 74
0
 40
0
 40
0
 40
0
 40
0
 40
1
 40
1
 40
1
 40
1
 10
447.761090
 20
194.459456
 30
0.0
 10
447.295090
 20
192.573032
 30
0.0
 10
447.889648
 20
190.582315
 30
0.0
 10
449.313857
 20
189.260431
 30
0.0
  0
SPLINE
  5
115
100
AcDbEntity
  8
FullCuts
 62
7
100
AcDbSpline
 70
8
 71
3
 72
8
 73
4
 74
0
 40
0
 40
0
 40
0
 40
0
 40
1
 40
1
 40
1
 40
1
 10
449.313857
 20
189.260431
 30
0.0
 10
450.738067
 20
187.938546
 30
0.0
 10
452.767511
 20
187.493788
 30
0.0
 10
454.614024
 20
188.098884
 30
0.0
  0
SPLINE
  5
116
100
AcDbEntity
  8
FullCuts
 62
7
100
AcDbSpline
 70
8
 71
3
 72
8
 73
4
 74
0
 40
0
 40
0
 40
0
 40
0
 40
1
 40
1
 40
1
 40
1
 10
513.069802
 20
207.256173
 30
0.0
 10
516.716907
 20
208.451317
 30
0.0
 10
519.490243
 20
211.442205
 30
0.0
 10
520.407079
 20
215.169021
 30
0.0
  0
LWPOLYLINE
  5
117
100
AcDbEntity
  8
FullCuts
 62
7
100
AcDbPolyline
 90
2
 70
0
 10
454.608410
 20
188.083528
 30
0.0
 10
513.048589
 20
207.243256
 30
0.0
  0
LWPOLYLINE
  5
118
100
AcDbEntity
  8
FullCuts
 62
7
100
AcDbPolyline
 90
2
 70
0
 10
455.732473
 20
226.662092
 30
0.0
 10
447.766779
 20
194.450941
 30
0.0
  0
LWPOLYLINE
  5
119
100
AcDbEntity
  8
FullCuts
 62
7
100
AcDbPolyline
 90
5
 70
0
 10
538.048087
 20
226.224168
 30
0.0
 10
530.750752
 20
201.907929
 30
0.0
 10
534.886126
 20
200.656612
 30
0.0
 10
542.175531
 20
224.992493
 30
0.0
 10
538.048087
 20
226.224168
 30
0.0
  0
LWPOLYLINE
  5
11a
100
AcDbEntity
  8
FullCuts
 62
7
100
AcDbPolyline
 90
5
 70
0
 10
549.005788
 20
262.726084
 30
0.0
 10
545.357135
 20
250.567979
 30
0.0
 10
549.492509
 20
249.316662
 30
0.0
 10
553.141162
 20
261.474767
 30
0.0
 10
549.005788
 20
262.726084
 30
0.0
  0
LWPOLYLINE
  5
11b
100
AcDbEntity
  8
FullCuts
 62
7
100
AcDbPolyline
 90
5
 70
0
 10
511.388501
 20
137.332211
 30
0.0
 10
504.079482
 20
112.988428
 30
0.0
 10
508.226540
 20
111.764656
 30
0.0
 10
515.523875
 20
136.080894
 30
0.0
 10
511.388501
 20
137.332211
 30
0.0
  0
LWPOLYLINE
  5
11c
100
AcDbEntity
  8
FullCuts
 62
7
100
AcDbPolyline
 90
5
 70
0
 10
392.365258
 20
282.924813
 30
0.0
 10
365.888157
 20
297.887146
 30
0.0
 10
362.129917
 20
291.255031
 30
0.0
 10
388.607046
 20
276.292704
 30
0.0
 10
392.365258
 20
282.924813
 30
0.0
  0
LWPOLYLINE
  5
11d
100
AcDbEntity
  8
FullCuts
 62
7
100
AcDbPolyline
 90
2
 70
0
 10
41.558659
 20
161.256443
 30
0.0
 10
37.723355
 20
157.583800
 30
0.0
  0
LWPOLYLINE
  5
11e
100
AcDbEntity
  8
FullCuts
 62
1
100
AcDbPolyline
 90
2
 70
0
 10
127.270253
 20
106.838523
 30
0.0
 10
577.512067
 20
288.747992
 30
0.0
  0
LWPOLYLINE
  5
11f
100
AcDbEntity
  8
FullCuts
 62
1
100
AcDbPolyline
 90
2
 70
0
 10
109.183774
 20
116.924637
 30
0.0
 10
542.992112
 20
312.003828
 30
0.0
  0
LWPOLYLINE
  5
120
100
AcDbEntity
  8
FullCuts
 62
1
100
AcDbPolyline
 90
2
 70
0
 10
91.512650
 20
127.178561
 30
0.0
 10
504.981549
 20
334.332520
 30
0.0
  0
LWPOLYLINE
  5
121
100
AcDbEntity
  8
FullCuts
 62
1
100
AcDbPolyline
 90
2
 70
0
 10
77.092962
 20
135.364050
 30
0.0
 10
466.891285
 20
355.662675
 30
0.0
  0
LWPOLYLINE
  5
122
100
AcDbEntity
  8
FullCuts
 62
1
100
AcDbPolyline
 90
2
 70
0
 10
41.398342
 20
161.527348
 30
0.0
 10
252.075648
 20
363.569545
 30
0.0
  0
LWPOLYLINE
  5
123
100
AcDbEntity
  8
FullCuts
 62
1
100
AcDbPolyline
 90
2
 70
0
 10
455.608126
 20
226.933618
 30
0.0
 10
530.371530
 20
257.140003
 30
0.0
  0
LWPOLYLINE
  5
124
100
AcDbEntity
  8
FullCuts
 62
1
100
AcDbPolyline
 90
2
 70
0
 10
231.587390
 20
353.707490
 30
0.0
 10
222.792744
 20
358.806407
 30
0.0
  0
LWPOLYLINE
  5
125
100
AcDbEntity
  8
FullCuts
 62
3
100
AcDbPolyline
 90
5
 70
0
 10
376.038985
 20
383.215362
 30
0.0
 10
520.068020
 20
301.775610
 30
0.0
 10
548.668222
 20
282.409041
 30
0.0
 10
554.852219
 20
274.278174
 30
0.0
 10
571.508100
 20
268.928736
 30
0.0
  0
LWPOLYLINE
  5
126
100
AcDbEntity
  8
FullCuts
 62
3
100
AcDbPolyline
 90
5
 70
1
 10
468.080003
 20
146.356846
 30
0.0
 10
468.095861
 20
146.317595
 30
0.0
 10
467.644477
 20
146.135224
 30
0.0
 10
468.080003
 20
146.356846
 30
0.0
 10
468.080003
 20
146.356846
 30
0.0
  0
LWPOLYLINE
  5
127
100
AcDbEntity
  8
FullCuts
 62
3
100
AcDbPolyline
 90
5
 70
1
 10
468.095861
 20
146.317595
 30
0.0
 10
467.644477
 20
146.135224
 30
0.0
 10
468.143436
 20
146.199843
 30
0.0
 10
468.095861
 20
146.317595
 30
0.0
 10
468.095861
 20
146.317595
 30
0.0
  0
LWPOLYLINE
  5
128
100
AcDbEntity
  8
FullCuts
 62
3
100
AcDbPolyline
 90
5
 70
1
 10
467.644477
 20
146.135224
 30
0.0
 10
468.143436
 20
146.199843
 30
0.0
 10
467.240668
 20
145.835101
 30
0.0
 10
467.644477
 20
146.135224
 30
0.0
 10
467.644477
 20
146.135224
 30
0.0
  0
LWPOLYLINE
  5
129
100
AcDbEntity
  8
FullCuts
 62
3
100
AcDbPolyline
 90
5
 70
1
 10
468.143436
 20
146.199843
 30
0.0
 10
467.240668
 20
145.835101
 30
0.0
 10
468.214799
 20
146.023215
 30
0.0
 10
468.143436
 20
146.199843
 30
0.0
 10
468.143436
 20
146.199843
 30
0.0
  0
LWPOLYLINE
  5
12a
100
AcDbEntity
  8
FullCuts
 62
3
100
AcDbPolyline
 90
5
 70
1
 10
467.240668
 20
145.835101
 30
0.0
 10
468.214799
 20
146.023215
 30
0.0
 10
466.880272
 20
145.484031
 30
0.0
 10
467.240668
 20
145.835101
 30
0.0
 10
467.240668
 20
145.835101
 30
0.0
  0
LWPOLYLINE
  5
12b
100
AcDbEntity
  8
FullCuts
 62
3
100
AcDbPolyline
 90
5
 70
1
 10
468.214799
 20
146.023215
 30
0.0
 10
466.880272
 20
145.484031
 30
0.0
 10
468.309949
 20
145.787710
 30
0.0
 10
468.214799
 20
146.023215
 30
0.0
 10
468.214799
 20
146.023215
 30
0.0
  0
LWPOLYLINE
  5
12c
100
AcDbEntity
  8
FullCuts
 62
3
100
AcDbPolyline
 90
5
 70
1
 10
466.880272
 20
145.484031
 30
0.0
 10
468.309949
 20
145.787710
 30
0.0
 10
466.582914
 20
145.089943
 30
0.0
 10
466.880272
 20
145.484031
 30
0.0
 10
466.880272
 20
145.484031
 30
0.0
  0
LWPOLYLINE
  5
12d
100
AcDbEntity
  8
FullCuts
 62
3
100
AcDbPolyline
 90
5
 70
1
 10
468.309949
 20
145.787710
 30
0.0
 10
466.582914
 20
145.089943
 30
0.0
 10
468.428886
 20
145.493329
 30
0.0
 10
468.309949
 20
145.787710
 30
0.0
 10
468.309949
 20
145.787710
 30
0.0
  0
LWPOLYLINE
  5
12e
100
AcDbEntity
  8
FullCuts
 62
3
100
AcDbPolyline
 90
5
 70
1
 10
466.582914
 20
145.089943
 30
0.0
 10
468.428886
 20
145.493329
 30
0.0
 10
466.348595
 20
144.652837
 30
0.0
 10
466.582914
 20
145.089943
 30
0.0
 10
466.582914
 20
145.089943
 30
0.0
  0
LWPOLYLINE
  5
12f
100
AcDbEntity
  8
FullCuts
 62
3
100
AcDbPolyline
 90
5
 70
1
 10
468.428886
 20
145.493329
 30
0.0
 10
466.348595
 20
144.652837
 30
0.0
 10
468.571611
 20
145.140072
 30
0.0
 10
468.428886
 20
145.493329
 30
0.0
 10
468.428886
 20
145.493329
 30
0.0
  0
LWPOLYLINE
  5
130
100
AcDbEntity
  8
FullCuts
 62
3
100
AcDbPolyline
 90
5
 70
1
 10
466.348595
 20
144.652837
 30
0.0
 10
468.571611
 20
145.140072
 30
0.0
 10
466.196939
 20
144.180642
 30
0.0
 10
466.348595
 20
144.652837
 30
0.0
 10
466.348595
 20
144.652837
 30
0.0
  0
LWPOLYLINE
  5
131
100
AcDbEntity
  8
FullCuts
 62
3
100
AcDbPolyline
 90
5
 70
1
 10
468.571611
 20
145.140072
 30
0.0
 10
466.196939
 20
144.180642
 30
0.0
 10
468.730195
 20
144.747564
 30
0.0
 10
468.571611
 20
145.140072
 30
0.0
 10
468.571611
 20
145.140072
 30
0.0
  0
LWPOLYLINE
  5
132
100
AcDbEntity
  8
FullCuts
 62
3
100
AcDbPolyline
 90
5
 70
1
 10
466.196939
 20
144.180642
 30
0.0
 10
468.730195
 20
144.747564
 30
0.0
 10
466.120018
 20
143.692984
 30
0.0
 10
466.196939
 20
144.180642
 30
0.0
 10
466.196939
 20
144.180642
 30
0.0
  0
LWPOLYLINE
  5
133
100
AcDbEntity
  8
FullCuts
 62
3
100
AcDbPolyline
 90
5
 70
1
 10
468.730195
 20
144.747564
 30
0.0
 10
466.120018
 20
143.692984
 30
0.0
 10
468.904637
 20
144.315805
 30
0.0
 10
468.730195
 20
144.747564
 30
0.0
 10
468.730195
 20
144.747564
 30
0.0
  0
LWPOLYLINE
  5
134
100
AcDbEntity
  8
FullCuts
 62
3
100
AcDbPolyline
 90
5
 70
1
 10
466.120018
 20
143.692984
 30
0.0
 10
468.904637
 20
144.315805
 30
0.0
 10
466.098205
 20
143.181934
 30
0.0
 10
466.120018
 20
143.692984
 30
0.0
 10
466.120018
 20
143.692984
 30
0.0
  0
LWPOLYLINE
  5
135
100
AcDbEntity
  8
FullCuts
 62
3
100
AcDbPolyline
 90
5
 70
1
 10
468.904637
 20
144.315805
 30
0.0
 10
466.098205
 20
143.181934
 30
0.0
 10
469.087007
 20
143.864421
 30
0.0
 10
468.904637
 20
144.315805
 30
0.0
 10
468.904637
 20
144.315805
 30
0.0
  0
LWPOLYLINE
  5
136
100
AcDbEntity
  8
FullCuts
 62
3
100
AcDbPolyline
 90
5
 70
1
 10
466.098205
 20
143.181934
 30
0.0
 10
469.087007
 20
143.864421
 30
0.0
 10
466.182449
 20
142.690904
 30
0.0
 10
466.098205
 20
143.181934
 30
0.0
 10
466.098205
 20
143.181934
 30
0.0
  0
LWPOLYLINE
  5
137
100
AcDbEntity
  8
FullCuts
 62
3
100
AcDbPolyline
 90
5
 70
1
 10
469.087007
 20
143.864421
 30
0.0
 10
466.182449
 20
142.690904
 30
0.0
 10
469.269378
 20
143.413037
 30
0.0
 10
469.087007
 20
143.864421
 30
0.0
 10
469.087007
 20
143.864421
 30
0.0
  0
LWPOLYLINE
  5
138
100
AcDbEntity
  8
FullCuts
 62
3
100
AcDbPolyline
 90
5
 70
1
 10
466.182449
 20
142.690904
 30
0.0
 10
469.269378
 20
143.413037
 30
0.0
 10
466.325570
 20
142.223662
 30
0.0
 10
466.182449
 20
142.690904
 30
0.0
 10
466.182449
 20
142.690904
 30
0.0
  0
LWPOLYLINE
  5
139
100
AcDbEntity
  8
FullCuts
 62
3
100
AcDbPolyline
 90
5
 70
1
 10
472.213187
 20
144.602413
 30
0.0
 10
469.269378
 20
143.413037
 30
0.0
 10
472.364237
 20
144.115545
 30
0.0
 10
472.213187
 20
144.602413
 30
0.0
 10
472.213187
 20
144.602413
 30
0.0
  0
LWPOLYLINE
  5
13a
100
AcDbEntity
  8
FullCuts
 62
3
100
AcDbPolyline
 90
5
 70
1
 10
469.269378
 20
143.413037
 30
0.0
 10
472.364237
 20
144.115545
 30
0.0
 10
469.459679
 20
142.942028
 30
0.0
 10
469.269378
 20
143.413037
 30
0.0
 10
469.269378
 20
143.413037
 30
0.0
  0
LWPOLYLINE
  5
13b
100
AcDbEntity
  8
FullCuts
 62
3
100
AcDbPolyline
 90
5
 70
1
 10
472.364237
 20
144.115545
 30
0.0
 10
469.459679
 20
142.942028
 30
0.0
 10
472.448481
 20
143.624516
 30
0.0
 10
472.364237
 20
144.115545
 30
0.0
 10
472.364237
 20
144.115545
 30
0.0
  0
LWPOLYLINE
  5
13c
100
AcDbEntity
  8
FullCuts
 62
3
100
AcDbPolyline
 90
5
 70
1
 10
469.459679
 20
142.942028
 30
0.0
 10
472.448481
 20
143.624516
 30
0.0
 10
469.642049
 20
142.490644
 30
0.0
 10
469.459679
 20
142.942028
 30
0.0
 10
469.459679
 20
142.942028
 30
0.0
  0
LWPOLYLINE
  5
13d
100
AcDbEntity
  8
FullCuts
 62
3
100
AcDbPolyline
 90
5
 70
1
 10
472.448481
 20
143.624516
 30
0.0
 10
469.642049
 20
142.490644
 30
0.0
 10
472.446294
 20
143.121394
 30
0.0
 10
472.448481
 20
143.624516
 30
0.0
 10
472.448481
 20
143.624516
 30
0.0
  0
LWPOLYLINE
  5
13e
100
AcDbEntity
  8
FullCuts
 62
3
100
AcDbPolyline
 90
5
 70
1
 10
469.642049
 20
142.490644
 30
0.0
 10
472.446294
 20
143.121394
 30
0.0
 10
469.816491
 20
142.058885
 30
0.0
 10
469.642049
 20
142.490644
 30
0.0
 10
469.642049
 20
142.490644
 30
0.0
  0
LWPOLYLINE
  5
13f
100
AcDbEntity
  8
FullCuts
 62
3
100
AcDbPolyline
 90
5
 70
1
 10
472.446294
 20
143.121394
 30
0.0
 10
469.816491
 20
142.058885
 30
0.0
 10
472.369373
 20
142.633736
 30
0.0
 10
472.446294
 20
143.121394
 30
0.0
 10
472.446294
 20
143.121394
 30
0.0
  0
LWPOLYLINE
  5
140
100
AcDbEntity
  8
FullCuts
 62
3
100
AcDbPolyline
 90
5
 70
1
 10
469.816491
 20
142.058885
 30
0.0
 10
472.369373
 20
142.633736
 30
0.0
 10
469.975075
 20
141.666378
 30
0.0
 10
469.816491
 20
142.058885
 30
0.0
 10
469.816491
 20
142.058885
 30
0.0
  0
LWPOLYLINE
  5
141
100
AcDbEntity
  8
FullCuts
 62
3
100
AcDbPolyline
 90
5
 70
1
 10
472.369373
 20
142.633736
 30
0.0
 10
469.975075
 20
141.666378
 30
0.0
 10
472.198091
 20
142.153613
 30
0.0
 10
472.369373
 20
142.633736
 30
0.0
 10
472.369373
 20
142.633736
 30
0.0
  0
LWPOLYLINE
  5
142
100
AcDbEntity
  8
FullCuts
 62
3
100
AcDbPolyline
 90
5
 70
1
 10
469.975075
 20
141.666378
 30
0.0
 10
472.198091
 20
142.153613
 30
0.0
 10
470.117800
 20
141.313120
 30
0.0
 10
469.975075
 20
141.666378
 30
0.0
 10
469.975075
 20
141.666378
 30
0.0
  0
LWPOLYLINE
  5
143
100
AcDbEntity
  8
FullCuts
 62
3
100
AcDbPolyline
 90
5
 70
1
 10
472.198091
 20
142.153613
 30
0.0
 10
470.117800
 20
141.313120
 30
0.0
 10
471.963772
 20
141.716507
 30
0.0
 10
472.198091
 20
142.153613
 30
0.0
 10
472.198091
 20
142.153613
 30
0.0
  0
LWPOLYLINE
  5
144
100
AcDbEntity
  8
FullCuts
 62
3
100
AcDbPolyline
 90
5
 70
1
 10
470.117800
 20
141.313120
 30
0.0
 10
471.963772
 20
141.716507
 30
0.0
 10
470.236737
 20
141.018740
 30
0.0
 10
470.117800
 20
141.313120
 30
0.0
 10
470.117800
 20
141.313120
 30
0.0
  0
LWPOLYLINE
  5
145
100
AcDbEntity
  8
FullCuts
 62
3
100
AcDbPolyline
 90
5
 70
1
 10
471.963772
 20
141.716507
 30
0.0
 10
470.236737
 20
141.018740
 30
0.0
 10
471.666414
 20
141.322419
 30
0.0
 10
471.963772
 20
141.716507
 30
0.0
 10
471.963772
 20
141.716507
 30
0.0
  0
LWPOLYLINE
  5
146
100
AcDbEntity
  8
FullCuts
 62
3
100
AcDbPolyline
 90
5
 70
1
 10
470.236737
 20
141.018740
 30
0.0
 10
471.666414
 20
141.322419
 30
0.0
 10
470.331887
 20
140.783235
 30
0.0
 10
470.236737
 20
141.018740
 30
0.0
 10
470.236737
 20
141.018740
 30
0.0
  0
LWPOLYLINE
  5
147
100
AcDbEntity
  8
FullCuts
 62
3
100
AcDbPolyline
 90
5
 70
1
 10
471.666414
 20
141.322419
 30
0.0
 10
470.331887
 20
140.783235
 30
0.0
 10
471.325643
 20
140.979277
 30
0.0
 10
471.666414
 20
141.322419
 30
0.0
 10
471.666414
 20
141.322419
 30
0.0
  0
LWPOLYLINE
  5
148
100
AcDbEntity
  8
FullCuts
 62
3
100
AcDbPolyline
 90
5
 70
1
 10
470.331887
 20
140.783235
 30
0.0
 10
471.325643
 20
140.979277
 30
0.0
 10
470.403250
 20
140.606606
 30
0.0
 10
470.331887
 20
140.783235
 30
0.0
 10
470.331887
 20
140.783235
 30
0.0
  0
LWPOLYLINE
  5
149
100
AcDbEntity
  8
FullCuts
 62
3
100
AcDbPolyline
 90
5
 70
1
 10
470.403250
 20
140.606606
 30
0.0
 10
470.450825
 20
140.488854
 30
0.0
 10
470.921834
 20
140.679154
 30
0.0
 10
470.403250
 20
140.606606
 30
0.0
 10
470.403250
 20
140.606606
 30
0.0
  0
LWPOLYLINE
  5
14a
100
AcDbEntity
  8
FullCuts
 62
3
100
AcDbPolyline
 90
5
 70
1
 10
470.450825
 20
140.488854
 30
0.0
 10
470.921834
 20
140.679154
 30
0.0
 10
470.458754
 20
140.469229
 30
0.0
 10
470.450825
 20
140.488854
 30
0.0
 10
470.450825
 20
140.488854
 30
0.0
  0
SPLINE
  5
14b
100
AcDbEntity
  8
FullCuts
 62
3
100
AcDbSpline
 70
8
 71
3
 72
8
 73
4
 74
0
 40
0
 40
0
 40
0
 40
0
 40
1
 40
1
 40
1
 40
1
 10
472.228810
 20
144.620197
 30
0.0
 10
471.569746
 20
146.251437
 30
0.0
 10
469.713088
 20
147.039541
 30
0.0
 10
468.081848
 20
146.380478
 30
0.0
  0
SPLINE
  5
14c
100
AcDbEntity
  8
FullCuts
 62
3
100
AcDbSpline
 70
8
 71
3
 72
8
 73
4
 74
0
 40
0
 40
0
 40
0
 40
0
 40
1
 40
1
 40
1
 40
1
 10
468.081848
 20
146.380478
 30
0.0
 10
466.450608
 20
145.721414
 30
0.0
 10
465.662503
 20
143.864756
 30
0.0
 10
466.321567
 20
142.233516
 30
0.0
  0
SPLINE
  5
14d
100
AcDbEntity
  8
FullCuts
 62
3
100
AcDbSpline
 70
8
 71
3
 72
8
 73
4
 74
0
 40
0
 40
0
 40
0
 40
0
 40
1
 40
1
 40
1
 40
1
 10
466.321567
 20
142.233516
 30
0.0
 10
466.980630
 20
140.602276
 30
0.0
 10
468.837288
 20
139.814171
 30
0.0
 10
470.468529
 20
140.473235
 30
0.0
  0
SPLINE
  5
14e
100
AcDbEntity
  8
FullCuts
 62
3
100
AcDbSpline
 70
8
 71
3
 72
8
 73
4
 74
0
 40
0
 40
0
 40
0
 40
0
 40
1
 40
1
 40
1
 40
1
 10
470.468529
 20
140.473235
 30
0.0
 10
472.099769
 20
141.132299
 30
0.0
 10
472.887873
 20
142.988956
 30
0.0
 10
472.228810
 20
144.620197
 30
0.0
  0
LWPOLYLINE
  5
14f
100
AcDbEntity
  8
FullCuts
 62
3
100
AcDbPolyline
 90
5
 70
1
 10
470.403250
 20
140.606606
 30
0.0
 10
471.325643
 20
140.979277
 30
0.0
 10
470.921834
 20
140.679154
 30
0.0
 10
470.403250
 20
140.606606
 30
0.0
 10
470.403250
 20
140.606606
 30
0.0
  0
LWPOLYLINE
  5
150
100
AcDbEntity
  8
FullCuts
 62
3
100
AcDbPolyline
 90
2
 70
0
 10
468.079977
 20
146.356876
 30
0.0
 10
470.458715
 20
140.469261
 30
0.0
  0
LWPOLYLINE
  5
151
100
AcDbEntity
  8
FullCuts
 62
3
100
AcDbPolyline
 90
2
 70
0
 10
466.325543
 20
142.223692
 30
0.0
 10
472.213150
 20
144.602445
 30
0.0
  0
ENDSEC
  0
SECTION
  2
OBJECTS
  0
DICTIONARY
  5
C
330
0
100
AcDbDictionary
  3
ACAD_GROUP
350
D
  3
ACAD_MLINESTYLE
350
17
  0
DICTIONARY
  5
D
330
C
100
AcDbDictionary
  0
DICTIONARY
  5
1A
330
C
100
AcDbDictionary
  0
DICTIONARY
  5
17
330
C
100
AcDbDictionary
  3
STANDARD
350
18
  0
DICTIONARY
  5
19
330
C
100
AcDbDictionary
  0
ENDSEC
  0
EOF
