  0
SECTION
  2
HEADER
  9
$ACADVER
  1
AC1014
  9
$HANDSEED
  5
FFFF
  9
$MEASUREMENT
 70
     1
  0
ENDSEC
  0
SECTION
  2
TABLES
  0
TABLE
  2
VPORT
  5
8
330
0
100
AcDbSymbolTable
 70
     4
  0
VPORT
  5
2E
330
8
100
AcDbSymbolTableRecord
100
AcDbViewportTableRecord
  2
*ACTIVE
 70
     0
 10
0.0
 20
0.0
 11
1.0
 21
1.0
 12
210.0
 22
148.5
 13
0.0
 23
0.0
 14
10.0
 24
10.0
 15
10.0
 25
10.0
 16
0.0
 26
0.0
 36
1.0
 17
0.0
 27
0.0
 37
0.0
 40
341.0
 41
1.24
 42
50.0
 43
0.0
 44
0.0
 50
0.0
 51
0.0
 71
     0
 72
   100
 73
     1
 74
     3
 75
     0
 76
     0
 77
     0
 78
     0
  0
ENDTAB
  0
TABLE
  2
LTYPE
  5
5
330
0
100
AcDbSymbolTable
 70
     1
  0
LTYPE
  5
14
330
5
100
AcDbSymbolTableRecord
100
AcDbLinetypeTableRecord
  2
BYBLOCK
 70
     0
  3

 72
    65
 73
     0
 40
0.0
  0
LTYPE
  5
15
330
5
100
AcDbSymbolTableRecord
100
AcDbLinetypeTableRecord
  2
BYLAYER
 70
     0
  3

 72
    65
 73
     0
 40
0.0
  0
LTYPE
  5
16
330
5
100
AcDbSymbolTableRecord
100
AcDbLinetypeTableRecord
  2
CONTINUOUS
 70
     0
  3
Solid line
 72
    65
 73
     0
 40
0.0
  0
ENDTAB
  0
TABLE
  2
LAYER
  5
2
100
AcDbSymbolTable
 70
4
  0
LAYER
  5
50
100
AcDbSymbolTableRecord
100
AcDbLayerTableRecord
  2
0
 70
0
  6
CONTINUOUS
  0
LAYER
  5
51
100
AcDbSymbolTableRecord
100
AcDbLayerTableRecord
  2
Fullcuts
 70
0
  6
CONTINUOUS
  0
LAYER
  5
52
100
AcDbSymbolTableRecord
100
AcDbLayerTableRecord
  2
Halfcuts
 70
0
  6
CONTINUOUS
  0
LAYER
  5
53
100
AcDbSymbolTableRecord
100
AcDbLayerTableRecord
  2
Score
 70
0
  6
CONTINUOUS
  0
ENDTAB
  0
TABLE
  2
STYLE
  5
3
330
0
100
AcDbSymbolTable
 70
     1
  0
STYLE
  5
11
330
3
100
AcDbSymbolTableRecord
100
AcDbTextStyleTableRecord
  2
STANDARD
 70
     0
 40
0.0
 41
1.0
 50
0.0
 71
     0
 42
2.5
  3
txt
  4

  0
ENDTAB
  0
TABLE
  2
VIEW
  5
6
330
0
100
AcDbSymbolTable
 70
     0
  0
ENDTAB
  0
TABLE
  2
UCS
  5
7
330
0
100
AcDbSymbolTable
 70
     0
  0
ENDTAB
  0
TABLE
  2
APPID
  5
9
330
0
100
AcDbSymbolTable
 70
     2
  0
APPID
  5
12
330
9
100
AcDbSymbolTableRecord
100
AcDbRegAppTableRecord
  2
ACAD
 70
     0
  0
ENDTAB
  0
TABLE
  2
DIMSTYLE
  5
A
330
0
100
AcDbSymbolTable
 70
     1
  0
DIMSTYLE
105
27
330
A
100
AcDbSymbolTableRecord
100
AcDbDimStyleTableRecord
  2
ISO-25
 70
     0
  3

  4

  5

  6

  7

 40
1.0
 41
2.5
 42
0.625
 43
3.75
 44
1.25
 45
0.0
 46
0.0
 47
0.0
 48
0.0
140
2.5
141
2.5
142
0.0
143
0.03937007874016
144
1.0
145
0.0
146
1.0
147
0.625
 71
     0
 72
     0
 73
     0
 74
     0
 75
     0
 76
     0
 77
     1
 78
     8
170
     0
171
     3
172
     1
173
     0
174
     0
175
     0
176
     0
177
     0
178
     0
270
     2
271
     2
272
     2
273
     2
274
     3
340
11
275
     0
280
     0
281
     0
282
     0
283
     0
284
     8
285
     0
286
     0
287
     3
288
     0
  0
ENDTAB
  0
TABLE
  2
BLOCK_RECORD
  5
1
330
0
100
AcDbSymbolTable
 70
     1
  0
BLOCK_RECORD
  5
1F
330
1
100
AcDbSymbolTableRecord
100
AcDbBlockTableRecord
  2
*MODEL_SPACE
  0
BLOCK_RECORD
  5
1B
330
1
100
AcDbSymbolTableRecord
100
AcDbBlockTableRecord
  2
*PAPER_SPACE
  0
ENDTAB
  0
ENDSEC
  0
SECTION
  2
BLOCKS
  0
BLOCK
  5
20
330
1F
100
AcDbEntity
  8
0
100
AcDbBlockBegin
  2
*MODEL_SPACE
 70
     0
 10
0.0
 20
0.0
 30
0.0
  3
*MODEL_SPACE
  1

  0
ENDBLK
  5
21
330
1F
100
AcDbEntity
  8
0
100
AcDbBlockEnd
  0
BLOCK
  5
1C
330
1B
100
AcDbEntity
 67
     1
  8
0
100
AcDbBlockBegin
  2
*PAPER_SPACE
  1

  0
ENDBLK
  5
1D
330
1B
100
AcDbEntity
 67
     1
  8
0
100
AcDbBlockEnd
  0
ENDSEC
  0
SECTION
  2
ENTITIES
  0
LWPOLYLINE
  5
100
100
AcDbEntity
  8
Fullcuts
 62
7
100
AcDbPolyline
 90
2
 70
0
 10
63.001593
 20
258.743562
 30
0.0
 10
73.331157
 20
216.788181
 30
0.0
  0
SPLINE
  5
101
100
AcDbEntity
  8
Fullcuts
 62
7
100
AcDbSpline
 70
8
 71
3
 72
8
 73
4
 74
0
 40
0
 40
0
 40
0
 40
0
 40
1
 40
1
 40
1
 40
1
 10
139.112018
 20
189.721803
 30
0.0
 10
140.958530
 20
189.116706
 30
0.0
 10
142.987975
 20
189.561465
 30
0.0
 10
144.412184
 20
190.883350
 30
0.0
  0
SPLINE
  5
102
100
AcDbEntity
  8
Fullcuts
 62
7
100
AcDbSpline
 70
8
 71
3
 72
8
 73
4
 74
0
 40
0
 40
0
 40
0
 40
0
 40
1
 40
1
 40
1
 40
1
 10
144.412184
 20
190.883350
 30
0.0
 10
145.836393
 20
192.205234
 30
0.0
 10
146.430951
 20
194.195951
 30
0.0
 10
145.964952
 20
196.082375
 30
0.0
  0
SPLINE
  5
103
100
AcDbEntity
  8
Fullcuts
 62
7
100
AcDbSpline
 70
8
 71
3
 72
8
 73
4
 74
0
 40
0
 40
0
 40
0
 40
0
 40
1
 40
1
 40
1
 40
1
 10
73.318953
 20
216.791940
 30
0.0
 10
74.235790
 20
213.065124
 30
0.0
 10
77.009126
 20
210.074236
 30
0.0
 10
80.656231
 20
208.879092
 30
0.0
  0
LWPOLYLINE
  5
104
100
AcDbEntity
  8
Fullcuts
 62
7
100
AcDbPolyline
 90
2
 70
0
 10
139.098031
 20
189.714405
 30
0.0
 10
80.657833
 20
208.874133
 30
0.0
  0
LWPOLYLINE
  5
105
100
AcDbEntity
  8
Fullcuts
 62
7
100
AcDbPolyline
 90
2
 70
0
 10
137.973960
 20
228.292969
 30
0.0
 10
145.939648
 20
196.081818
 30
0.0
  0
LWPOLYLINE
  5
106
100
AcDbEntity
  8
Fullcuts
 62
7
100
AcDbPolyline
 90
2
 70
0
 10
341.791092
 20
364.692849
 30
0.0
 10
395.816582
 20
395.234831
 30
0.0
  0
SPLINE
  5
107
100
AcDbEntity
  8
Fullcuts
 62
7
100
AcDbSpline
 70
8
 71
3
 72
8
 73
4
 74
0
 40
0
 40
0
 40
0
 40
0
 40
1
 40
1
 40
1
 40
1
 10
575.004808
 20
175.804790
 30
0.0
 10
576.630781
 20
176.724044
 30
0.0
 10
577.770517
 20
178.311523
 30
0.0
 10
578.121640
 20
180.146061
 30
0.0
  0
SPLINE
  5
108
100
AcDbEntity
  8
Fullcuts
 62
7
100
AcDbSpline
 70
8
 71
3
 72
8
 73
4
 74
0
 40
0
 40
0
 40
0
 40
0
 40
1
 40
1
 40
1
 40
1
 10
578.121640
 20
180.146061
 30
0.0
 10
578.472763
 20
181.980598
 30
0.0
 10
577.999778
 20
183.876745
 30
0.0
 10
576.828171
 20
185.331445
 30
0.0
  0
SPLINE
  5
109
100
AcDbEntity
  8
Fullcuts
 62
7
100
AcDbSpline
 70
8
 71
3
 72
8
 73
4
 74
0
 40
0
 40
0
 40
0
 40
0
 40
1
 40
1
 40
1
 40
1
 10
409.946758
 20
392.549170
 30
0.0
 10
406.531687
 20
396.789414
 30
0.0
 10
400.549197
 20
397.934439
 30
0.0
 10
395.809716
 20
395.254942
 30
0.0
  0
LWPOLYLINE
  5
10a
100
AcDbEntity
  8
Fullcuts
 62
7
100
AcDbPolyline
 90
2
 70
0
 10
409.925802
 20
392.524930
 30
0.0
 10
576.823050
 20
185.312218
 30
0.0
  0
LWPOLYLINE
  5
10b
100
AcDbEntity
  8
Fullcuts
 62
7
100
AcDbPolyline
 90
5
 70
0
 10
55.658345
 20
227.855045
 30
0.0
 10
62.955684
 20
203.538807
 30
0.0
 10
58.820312
 20
202.287490
 30
0.0
 10
51.530902
 20
226.623371
 30
0.0
 10
55.658345
 20
227.855045
 30
0.0
  0
LWPOLYLINE
  5
10c
100
AcDbEntity
  8
Fullcuts
 62
7
100
AcDbPolyline
 90
5
 70
0
 10
44.700639
 20
264.356962
 30
0.0
 10
48.349309
 20
252.198857
 30
0.0
 10
44.213938
 20
250.947540
 30
0.0
 10
40.565268
 20
263.105673
 30
0.0
 10
44.700639
 20
264.356962
 30
0.0
  0
LWPOLYLINE
  5
10d
100
AcDbEntity
  8
Fullcuts
 62
7
100
AcDbPolyline
 90
5
 70
0
 10
82.317917
 20
138.963089
 30
0.0
 10
89.626954
 20
114.619305
 30
0.0
 10
85.479887
 20
113.395533
 30
0.0
 10
78.182546
 20
137.711800
 30
0.0
 10
82.317917
 20
138.963089
 30
0.0
  0
LWPOLYLINE
  5
10e
100
AcDbEntity
  8
Fullcuts
 62
7
100
AcDbPolyline
 90
2
 70
0
 10
362.119051
 20
355.338373
 30
0.0
 10
370.913688
 20
360.437294
 30
0.0
  0
LWPOLYLINE
  5
10f
100
AcDbEntity
  8
Fullcuts
 62
7
100
AcDbPolyline
 90
2
 70
0
 10
77.671950
 20
84.521095
 30
0.0
 10
15.736160
 20
290.418810
 30
0.0
  0
SPLINE
  5
110
100
AcDbEntity
  8
Fullcuts
 62
7
100
AcDbSpline
 70
8
 71
3
 72
8
 73
4
 74
0
 40
0
 40
0
 40
0
 40
0
 40
1
 40
1
 40
1
 40
1
 10
174.523434
 20
81.838616
 30
0.0
 10
172.260104
 20
89.538312
 30
0.0
 10
167.022569
 20
96.019092
 30
0.0
 10
159.969186
 20
99.847636
 30
0.0
  0
SPLINE
  5
111
100
AcDbEntity
  8
Fullcuts
 62
7
100
AcDbSpline
 70
8
 71
3
 72
8
 73
4
 74
0
 40
0
 40
0
 40
0
 40
0
 40
1
 40
1
 40
1
 40
1
 10
159.969186
 20
99.847636
 30
0.0
 10
152.915803
 20
103.676182
 30
0.0
 10
144.627785
 20
104.537015
 30
0.0
 10
136.938146
 20
102.239748
 30
0.0
  0
LWPOLYLINE
  5
112
100
AcDbEntity
  8
Fullcuts
 62
7
100
AcDbPolyline
 90
2
 70
0
 10
192.440066
 20
20.801752
 30
0.0
 10
174.500213
 20
81.834989
 30
0.0
  0
LWPOLYLINE
  5
113
100
AcDbEntity
  8
Fullcuts
 62
7
100
AcDbPolyline
 90
2
 70
0
 10
136.919902
 20
102.223428
 30
0.0
 10
77.671950
 20
84.521095
 30
0.0
  0
LWPOLYLINE
  5
114
100
AcDbEntity
  8
Fullcuts
 62
7
100
AcDbPolyline
 90
3
 70
0
 10
192.440066
 20
20.801752
 30
0.0
 10
492.494372
 20
20.268804
 30
0.0
 10
466.158524
 20
108.436381
 30
0.0
  0
LWPOLYLINE
  5
115
100
AcDbEntity
  8
Fullcuts
 62
7
100
AcDbPolyline
 90
5
 70
0
 10
207.373810
 20
402.267298
 30
0.0
 10
127.253207
 20
356.973913
 30
0.0
 10
89.646447
 20
335.710140
 30
0.0
 10
50.633616
 20
313.621887
 30
0.0
 10
15.736160
 20
290.418810
 30
0.0
  0
LWPOLYLINE
  5
116
100
AcDbEntity
  8
Fullcuts
 62
7
100
AcDbPolyline
 90
2
 70
0
 10
336.517573
 20
369.608624
 30
0.0
 10
276.241572
 20
335.405359
 30
0.0
  0
SPLINE
  5
117
100
AcDbEntity
  8
Fullcuts
 62
7
100
AcDbSpline
 70
8
 71
3
 72
8
 73
4
 74
0
 40
0
 40
0
 40
0
 40
0
 40
1
 40
1
 40
1
 40
1
 10
239.427382
 20
345.588646
 30
0.0
 10
242.955309
 20
339.348467
 30
0.0
 10
248.820086
 20
334.767498
 30
0.0
 10
255.728832
 20
332.855607
 30
0.0
  0
SPLINE
  5
118
100
AcDbEntity
  8
Fullcuts
 62
7
100
AcDbSpline
 70
8
 71
3
 72
8
 73
4
 74
0
 40
0
 40
0
 40
0
 40
0
 40
1
 40
1
 40
1
 40
1
 10
255.728832
 20
332.855607
 30
0.0
 10
262.637577
 20
330.943716
 30
0.0
 10
270.023048
 20
331.857878
 30
0.0
 10
276.257130
 20
335.396569
 30
0.0
  0
LWPOLYLINE
  5
119
100
AcDbEntity
  8
Fullcuts
 62
7
100
AcDbPolyline
 90
2
 70
0
 10
239.419836
 20
345.579532
 30
0.0
 10
207.373810
 20
402.267298
 30
0.0
  0
LWPOLYLINE
  5
11a
100
AcDbEntity
  8
Fullcuts
 62
7
100
AcDbPolyline
 90
2
 70
0
 10
555.983084
 20
159.214678
 30
0.0
 10
466.158524
 20
108.436381
 30
0.0
  0
LWPOLYLINE
  5
11b
100
AcDbEntity
  8
Fullcuts
 62
7
100
AcDbPolyline
 90
2
 70
0
 10
574.989875
 20
175.802628
 30
0.0
 10
552.147768
 20
162.887320
 30
0.0
  0
LWPOLYLINE
  5
11c
100
AcDbEntity
  8
Fullcuts
 62
7
100
AcDbPolyline
 90
5
 70
0
 10
201.341169
 20
284.555699
 30
0.0
 10
227.818284
 20
299.518029
 30
0.0
 10
231.576510
 20
292.885917
 30
0.0
 10
205.099395
 20
277.923584
 30
0.0
 10
201.341169
 20
284.555699
 30
0.0
  0
LWPOLYLINE
  5
11d
100
AcDbEntity
  8
Fullcuts
 62
7
100
AcDbPolyline
 90
2
 70
0
 10
336.517573
 20
369.608624
 30
0.0
 10
341.791092
 20
364.692849
 30
0.0
  0
LWPOLYLINE
  5
11e
100
AcDbEntity
  8
Fullcuts
 62
7
100
AcDbPolyline
 90
2
 70
0
 10
552.147768
 20
162.887320
 30
0.0
 10
555.983084
 20
159.214678
 30
0.0
  0
LWPOLYLINE
  5
11f
100
AcDbEntity
  8
Halfcuts
 62
1
100
AcDbPolyline
 90
2
 70
0
 10
15.515121
 20
290.592026
 30
0.0
 10
466.080094
 20
108.551979
 30
0.0
  0
LWPOLYLINE
  5
120
100
AcDbEntity
  8
Halfcuts
 62
1
100
AcDbPolyline
 90
2
 70
0
 10
50.158419
 20
314.031934
 30
0.0
 10
484.895454
 20
118.377489
 30
0.0
  0
LWPOLYLINE
  5
121
100
AcDbEntity
  8
Halfcuts
 62
1
100
AcDbPolyline
 90
2
 70
0
 10
89.464967
 20
336.233224
 30
0.0
 10
502.601032
 20
128.651394
 30
0.0
  0
LWPOLYLINE
  5
122
100
AcDbEntity
  8
Halfcuts
 62
1
100
AcDbPolyline
 90
2
 70
0
 10
127.213374
 20
357.773130
 30
0.0
 10
516.741974
 20
136.492769
 30
0.0
  0
LWPOLYLINE
  5
123
100
AcDbEntity
  8
Halfcuts
 62
1
100
AcDbPolyline
 90
2
 70
0
 10
341.722146
 20
364.697734
 30
0.0
 10
551.951342
 20
162.931262
 30
0.0
  0
LWPOLYLINE
  5
124
100
AcDbEntity
  8
Halfcuts
 62
1
100
AcDbPolyline
 90
2
 70
0
 10
62.859672
 20
259.199831
 30
0.0
 10
138.099574
 20
228.155471
 30
0.0
  0
LWPOLYLINE
  5
125
100
AcDbEntity
  8
Score
 62
3
100
AcDbPolyline
 90
5
 70
0
 10
217.271620
 20
384.963486
 30
0.0
 10
73.330463
 20
303.459813
 30
0.0
 10
44.516613
 20
284.215088
 30
0.0
 10
38.631848
 20
276.297276
 30
0.0
 10
21.579789
 20
270.653199
 30
0.0
  0
ENDSEC
  0
SECTION
  2
OBJECTS
  0
DICTIONARY
  5
C
330
0
100
AcDbDictionary
  3
ACAD_GROUP
350
D
  3
ACAD_MLINESTYLE
350
17
  0
DICTIONARY
  5
D
330
C
100
AcDbDictionary
  0
DICTIONARY
  5
1A
330
C
100
AcDbDictionary
  0
DICTIONARY
  5
17
330
C
100
AcDbDictionary
  3
STANDARD
350
18
  0
DICTIONARY
  5
19
330
C
100
AcDbDictionary
  0
ENDSEC
  0
EOF
