  0
SECTION
  2
HEADER
  9
$ACADVER
  1
AC1014
  9
$HANDSEED
  5
FFFF
  9
$MEASUREMENT
 70
     1
  0
ENDSEC
  0
SECTION
  2
TABLES
  0
TABLE
  2
VPORT
  5
8
330
0
100
AcDbSymbolTable
 70
     4
  0
VPORT
  5
2E
330
8
100
AcDbSymbolTableRecord
100
AcDbViewportTableRecord
  2
*ACTIVE
 70
     0
 10
0.0
 20
0.0
 11
1.0
 21
1.0
 12
210.0
 22
148.5
 13
0.0
 23
0.0
 14
10.0
 24
10.0
 15
10.0
 25
10.0
 16
0.0
 26
0.0
 36
1.0
 17
0.0
 27
0.0
 37
0.0
 40
341.0
 41
1.24
 42
50.0
 43
0.0
 44
0.0
 50
0.0
 51
0.0
 71
     0
 72
   100
 73
     1
 74
     3
 75
     0
 76
     0
 77
     0
 78
     0
  0
ENDTAB
  0
TABLE
  2
LTYPE
  5
5
330
0
100
AcDbSymbolTable
 70
     1
  0
LTYPE
  5
14
330
5
100
AcDbSymbolTableRecord
100
AcDbLinetypeTableRecord
  2
BYBLOCK
 70
     0
  3

 72
    65
 73
     0
 40
0.0
  0
LTYPE
  5
15
330
5
100
AcDbSymbolTableRecord
100
AcDbLinetypeTableRecord
  2
BYLAYER
 70
     0
  3

 72
    65
 73
     0
 40
0.0
  0
LTYPE
  5
16
330
5
100
AcDbSymbolTableRecord
100
AcDbLinetypeTableRecord
  2
CONTINUOUS
 70
     0
  3
Solid line
 72
    65
 73
     0
 40
0.0
  0
ENDTAB
  0
TABLE
  2
LAYER
  5
2
100
AcDbSymbolTable
 70
2
  0
LAYER
  5
50
100
AcDbSymbolTableRecord
100
AcDbLayerTableRecord
  2
0
 70
0
  6
CONTINUOUS
  0
LAYER
  5
51
100
AcDbSymbolTableRecord
100
AcDbLayerTableRecord
  2
Layer_1
 70
0
  6
CONTINUOUS
  0
ENDTAB
  0
TABLE
  2
STYLE
  5
3
330
0
100
AcDbSymbolTable
 70
     1
  0
STYLE
  5
11
330
3
100
AcDbSymbolTableRecord
100
AcDbTextStyleTableRecord
  2
STANDARD
 70
     0
 40
0.0
 41
1.0
 50
0.0
 71
     0
 42
2.5
  3
txt
  4

  0
ENDTAB
  0
TABLE
  2
VIEW
  5
6
330
0
100
AcDbSymbolTable
 70
     0
  0
ENDTAB
  0
TABLE
  2
UCS
  5
7
330
0
100
AcDbSymbolTable
 70
     0
  0
ENDTAB
  0
TABLE
  2
APPID
  5
9
330
0
100
AcDbSymbolTable
 70
     2
  0
APPID
  5
12
330
9
100
AcDbSymbolTableRecord
100
AcDbRegAppTableRecord
  2
ACAD
 70
     0
  0
ENDTAB
  0
TABLE
  2
DIMSTYLE
  5
A
330
0
100
AcDbSymbolTable
 70
     1
  0
DIMSTYLE
105
27
330
A
100
AcDbSymbolTableRecord
100
AcDbDimStyleTableRecord
  2
ISO-25
 70
     0
  3

  4

  5

  6

  7

 40
1.0
 41
2.5
 42
0.625
 43
3.75
 44
1.25
 45
0.0
 46
0.0
 47
0.0
 48
0.0
140
2.5
141
2.5
142
0.0
143
0.03937007874016
144
1.0
145
0.0
146
1.0
147
0.625
 71
     0
 72
     0
 73
     0
 74
     0
 75
     0
 76
     0
 77
     1
 78
     8
170
     0
171
     3
172
     1
173
     0
174
     0
175
     0
176
     0
177
     0
178
     0
270
     2
271
     2
272
     2
273
     2
274
     3
340
11
275
     0
280
     0
281
     0
282
     0
283
     0
284
     8
285
     0
286
     0
287
     3
288
     0
  0
ENDTAB
  0
TABLE
  2
BLOCK_RECORD
  5
1
330
0
100
AcDbSymbolTable
 70
     1
  0
BLOCK_RECORD
  5
1F
330
1
100
AcDbSymbolTableRecord
100
AcDbBlockTableRecord
  2
*MODEL_SPACE
  0
BLOCK_RECORD
  5
1B
330
1
100
AcDbSymbolTableRecord
100
AcDbBlockTableRecord
  2
*PAPER_SPACE
  0
ENDTAB
  0
ENDSEC
  0
SECTION
  2
BLOCKS
  0
BLOCK
  5
20
330
1F
100
AcDbEntity
  8
0
100
AcDbBlockBegin
  2
*MODEL_SPACE
 70
     0
 10
0.0
 20
0.0
 30
0.0
  3
*MODEL_SPACE
  1

  0
ENDBLK
  5
21
330
1F
100
AcDbEntity
  8
0
100
AcDbBlockEnd
  0
BLOCK
  5
1C
330
1B
100
AcDbEntity
 67
     1
  8
0
100
AcDbBlockBegin
  2
*PAPER_SPACE
  1

  0
ENDBLK
  5
1D
330
1B
100
AcDbEntity
 67
     1
  8
0
100
AcDbBlockEnd
  0
ENDSEC
  0
SECTION
  2
ENTITIES
  0
LINE
  5
100
100
AcDbEntity
  8
Layer_1
 62
1
100
AcDbLine
 10
62.142800
 20
84.145477
 30
0.0
 11
323.285316
 21
38.099006
 31
0.0
  0
LINE
  5
101
100
AcDbEntity
  8
Layer_1
 62
3
100
AcDbLine
 10
191.921630
 20
118.055235
 30
0.0
 11
210.557035
 21
132.754100
 31
0.0
  0
LINE
  5
102
100
AcDbEntity
  8
Layer_1
 62
1
100
AcDbLine
 10
178.864452
 20
59.949758
 30
0.0
 11
181.853424
 21
26.934685
 31
0.0
  0
LINE
  5
103
100
AcDbEntity
  8
Layer_1
 62
1
100
AcDbLine
 10
181.853424
 20
26.934685
 30
0.0
 11
178.843875
 21
7.814834
 31
0.0
  0
LINE
  5
104
100
AcDbEntity
  8
Layer_1
 62
3
100
AcDbLine
 10
177.089170
 20
87.309610
 30
0.0
 11
178.532274
 21
63.618608
 31
0.0
  0
LINE
  5
105
100
AcDbEntity
  8
Layer_1
 62
1
100
AcDbLine
 10
324.987972
 20
46.205163
 30
0.0
 11
240.062993
 21
154.733522
 31
0.0
  0
LINE
  5
106
100
AcDbEntity
  8
Layer_1
 62
1
100
AcDbLine
 10
240.062993
 20
154.733522
 30
0.0
 11
177.654883
 21
256.682991
 31
0.0
  0
LINE
  5
107
100
AcDbEntity
  8
Layer_1
 62
1
100
AcDbLine
 10
319.960059
 20
35.353175
 30
0.0
 11
181.854272
 21
26.935348
 31
0.0
  0
LINE
  5
108
100
AcDbEntity
  8
Layer_1
 62
1
100
AcDbLine
 10
181.854272
 20
26.935348
 30
0.0
 11
181.853451
 21
26.934782
 31
0.0
  0
LINE
  5
109
100
AcDbEntity
  8
Layer_1
 62
1
100
AcDbLine
 10
181.853451
 20
26.934782
 30
0.0
 11
64.018951
 21
5.821581
 31
0.0
  0
LINE
  5
10a
100
AcDbEntity
  8
Layer_1
 62
1
100
AcDbLine
 10
321.711857
 20
40.060300
 30
0.0
 11
177.089388
 21
87.309754
 31
0.0
  0
LINE
  5
10b
100
AcDbEntity
  8
Layer_1
 62
1
100
AcDbLine
 10
177.089388
 20
87.309754
 30
0.0
 11
62.295549
 21
95.591828
 31
0.0
  0
LINE
  5
10c
100
AcDbEntity
  8
Layer_1
 62
1
100
AcDbLine
 10
322.724916
 20
42.244995
 30
0.0
 11
191.921679
 21
118.055227
 31
0.0
  0
LINE
  5
10d
100
AcDbEntity
  8
Layer_1
 62
1
100
AcDbLine
 10
191.921679
 20
118.055227
 30
0.0
 11
109.299222
 21
198.181628
 31
0.0
  0
LINE
  5
10e
100
AcDbEntity
  8
Layer_1
 62
1
100
AcDbLine
 10
188.523110
 20
119.552580
 30
0.0
 11
78.666922
 21
167.953691
 31
0.0
  0
LINE
  5
10f
100
AcDbEntity
  8
Layer_1
 62
1
100
AcDbLine
 10
74.362148
 20
165.841175
 30
0.0
 11
64.729500
 21
145.270924
 31
0.0
  0
LINE
  5
110
100
AcDbEntity
  8
Layer_1
 62
1
100
AcDbLine
 10
66.800200
 20
140.948514
 30
0.0
 11
174.372148
 21
88.621090
 31
0.0
  0
LINE
  5
111
100
AcDbEntity
  8
Layer_1
 62
1
100
AcDbLine
 10
178.645875
 20
90.569394
 30
0.0
 11
190.635370
 21
115.392387
 31
0.0
  0
LINE
  5
112
100
AcDbEntity
  8
Layer_1
 62
1
100
AcDbLine
 10
251.910615
 20
169.133904
 30
0.0
 11
240.063067
 21
154.733367
 31
0.0
  0
LINE
  5
113
100
AcDbEntity
  8
Layer_1
 62
1
100
AcDbLine
 10
240.063067
 20
154.733367
 30
0.0
 11
212.952858
 21
134.538891
 31
0.0
  0
LINE
  5
114
100
AcDbEntity
  8
Layer_1
 62
1
100
AcDbLine
 10
324.329855
 20
37.838390
 30
0.0
 11
323.166209
 21
35.352835
 31
0.0
  0
LINE
  5
115
100
AcDbEntity
  8
Layer_1
 62
1
100
AcDbLine
 10
326.149259
 20
41.722787
 30
0.0
 11
324.329855
 21
37.838390
 31
0.0
  0
LINE
  5
116
100
AcDbEntity
  8
Layer_1
 62
1
100
AcDbLine
 10
327.121553
 20
43.799534
 30
0.0
 11
326.149259
 21
41.722787
 31
0.0
  0
LINE
  5
117
100
AcDbEntity
  8
Layer_1
 62
1
100
AcDbLine
 10
323.409835
 20
43.525829
 30
0.0
 11
118.116485
 21
205.776808
 31
0.0
  0
SPLINE
  5
118
100
AcDbEntity
  8
Layer_1
 62
1
100
AcDbSpline
 70
8
 71
3
 72
8
 73
4
 74
0
 40
0
 40
0
 40
0
 40
0
 40
1
 40
1
 40
1
 40
1
 10
52.307149
 20
175.713235
 30
0.0
 10
52.482457
 20
176.087828
 30
0.0
 10
52.320829
 20
176.534370
 30
0.0
 10
51.945888
 20
176.709740
 30
0.0
  0
SPLINE
  5
119
100
AcDbEntity
  8
Layer_1
 62
1
100
AcDbSpline
 70
8
 71
3
 72
8
 73
4
 74
0
 40
0
 40
0
 40
0
 40
0
 40
1
 40
1
 40
1
 40
1
 10
51.945888
 20
176.709740
 30
0.0
 10
51.570783
 20
176.886213
 30
0.0
 10
51.124057
 20
176.723542
 30
0.0
 10
50.948811
 20
176.349296
 30
0.0
  0
SPLINE
  5
11a
100
AcDbEntity
  8
Layer_1
 62
1
100
AcDbSpline
 70
8
 71
3
 72
8
 73
4
 74
0
 40
0
 40
0
 40
0
 40
0
 40
1
 40
1
 40
1
 40
1
 10
50.948811
 20
176.349296
 30
0.0
 10
50.773380
 20
175.974008
 30
0.0
 10
50.935069
 20
175.527813
 30
0.0
 10
51.309888
 20
175.351749
 30
0.0
  0
SPLINE
  5
11b
100
AcDbEntity
  8
Layer_1
 62
1
100
AcDbSpline
 70
8
 71
3
 72
8
 73
4
 74
0
 40
0
 40
0
 40
0
 40
0
 40
1
 40
1
 40
1
 40
1
 10
51.309888
 20
175.351749
 30
0.0
 10
51.684829
 20
175.176380
 30
0.0
 10
52.131309
 20
175.337661
 30
0.0
 10
52.307149
 20
175.713235
 30
0.0
  0
LINE
  5
11c
100
AcDbEntity
  8
Layer_1
 62
1
100
AcDbLine
 10
52.307149
 20
175.713235
 30
0.0
 11
52.307149
 21
175.713235
 31
0.0
  0
SPLINE
  5
11d
100
AcDbEntity
  8
Layer_1
 62
1
100
AcDbSpline
 70
8
 71
3
 72
8
 73
4
 74
0
 40
0
 40
0
 40
0
 40
0
 40
1
 40
1
 40
1
 40
1
 10
43.316737
 20
156.515065
 30
0.0
 10
43.492392
 20
156.889597
 30
0.0
 10
43.330478
 20
157.336548
 30
0.0
 10
42.955476
 20
157.511570
 30
0.0
  0
SPLINE
  5
11e
100
AcDbEntity
  8
Layer_1
 62
1
100
AcDbSpline
 70
8
 71
3
 72
8
 73
4
 74
0
 40
0
 40
0
 40
0
 40
0
 40
1
 40
1
 40
1
 40
1
 10
42.955476
 20
157.511570
 30
0.0
 10
42.580658
 20
157.687634
 30
0.0
 10
42.133707
 20
157.525720
 30
0.0
 10
41.958399
 20
157.151126
 30
0.0
  0
SPLINE
  5
11f
100
AcDbEntity
  8
Layer_1
 62
1
100
AcDbSpline
 70
8
 71
3
 72
8
 73
4
 74
0
 40
0
 40
0
 40
0
 40
0
 40
1
 40
1
 40
1
 40
1
 10
41.958399
 20
157.151126
 30
0.0
 10
41.782968
 20
156.775838
 30
0.0
 10
41.944821
 20
156.328540
 30
0.0
 10
42.319823
 20
156.153518
 30
0.0
  0
SPLINE
  5
120
100
AcDbEntity
  8
Layer_1
 62
1
100
AcDbSpline
 70
8
 71
3
 72
8
 73
4
 74
0
 40
0
 40
0
 40
0
 40
0
 40
1
 40
1
 40
1
 40
1
 10
42.319823
 20
156.153518
 30
0.0
 10
42.694356
 20
155.977863
 30
0.0
 10
43.140898
 20
156.139491
 30
0.0
 10
43.316737
 20
156.515065
 30
0.0
  0
LINE
  5
121
100
AcDbEntity
  8
Layer_1
 62
1
100
AcDbLine
 10
43.316737
 20
156.515065
 30
0.0
 11
43.316737
 21
156.515065
 31
0.0
  0
LINE
  5
122
100
AcDbEntity
  8
Layer_1
 62
1
100
AcDbLine
 10
22.285560
 20
141.962271
 30
0.0
 11
20.558650
 21
138.148963
 31
0.0
  0
LINE
  5
123
100
AcDbEntity
  8
Layer_1
 62
1
100
AcDbLine
 10
51.838742
 20
204.954247
 30
0.0
 11
50.024933
 21
201.158912
 31
0.0
  0
SPLINE
  5
124
100
AcDbEntity
  8
Layer_1
 62
7
100
AcDbSpline
 70
8
 71
3
 72
8
 73
4
 74
0
 40
0
 40
0
 40
0
 40
0
 40
1
 40
1
 40
1
 40
1
 10
92.107217
 20
73.453688
 30
0.0
 10
91.019448
 20
73.645491
 30
0.0
 10
90.293237
 20
74.683060
 30
0.0
 10
90.485040
 20
75.770829
 30
0.0
  0
SPLINE
  5
125
100
AcDbEntity
  8
Layer_1
 62
7
100
AcDbSpline
 70
8
 71
3
 72
8
 73
4
 74
0
 40
0
 40
0
 40
0
 40
0
 40
1
 40
1
 40
1
 40
1
 10
90.485040
 20
75.770829
 30
0.0
 10
90.676843
 20
76.858598
 30
0.0
 10
91.714127
 20
77.585215
 30
0.0
 10
92.801897
 20
77.393412
 30
0.0
  0
SPLINE
  5
126
100
AcDbEntity
  8
Layer_1
 62
7
100
AcDbSpline
 70
8
 71
3
 72
8
 73
4
 74
0
 40
0
 40
0
 40
0
 40
0
 40
1
 40
1
 40
1
 40
1
 10
92.801897
 20
77.393412
 30
0.0
 10
93.889666
 20
77.201609
 30
0.0
 10
94.615877
 20
76.164040
 30
0.0
 10
94.424074
 20
75.076271
 30
0.0
  0
SPLINE
  5
127
100
AcDbEntity
  8
Layer_1
 62
7
100
AcDbSpline
 70
8
 71
3
 72
8
 73
4
 74
0
 40
0
 40
0
 40
0
 40
0
 40
1
 40
1
 40
1
 40
1
 10
94.424074
 20
75.076271
 30
0.0
 10
94.232271
 20
73.988502
 30
0.0
 10
93.194987
 20
73.261885
 30
0.0
 10
92.107217
 20
73.453688
 30
0.0
  0
LINE
  5
128
100
AcDbEntity
  8
Layer_1
 62
7
100
AcDbLine
 10
92.107217
 20
73.453688
 30
0.0
 11
92.107217
 21
73.453688
 31
0.0
  0
SPLINE
  5
129
100
AcDbEntity
  8
Layer_1
 62
7
100
AcDbSpline
 70
8
 71
3
 72
8
 73
4
 74
0
 40
0
 40
0
 40
0
 40
0
 40
1
 40
1
 40
1
 40
1
 10
140.873577
 20
189.275743
 30
0.0
 10
140.062185
 20
190.025280
 30
0.0
 10
140.012356
 20
191.290701
 30
0.0
 10
140.762234
 20
192.102029
 30
0.0
  0
SPLINE
  5
12a
100
AcDbEntity
  8
Layer_1
 62
7
100
AcDbSpline
 70
8
 71
3
 72
8
 73
4
 74
0
 40
0
 40
0
 40
0
 40
0
 40
1
 40
1
 40
1
 40
1
 10
140.762234
 20
192.102029
 30
0.0
 10
141.512122
 20
192.913354
 30
0.0
 10
142.777479
 20
192.962843
 30
0.0
 10
143.588932
 20
192.213654
 30
0.0
  0
SPLINE
  5
12b
100
AcDbEntity
  8
Layer_1
 62
7
100
AcDbSpline
 70
8
 71
3
 72
8
 73
4
 74
0
 40
0
 40
0
 40
0
 40
0
 40
1
 40
1
 40
1
 40
1
 10
143.588932
 20
192.213654
 30
0.0
 10
144.399907
 20
191.463833
 30
0.0
 10
144.449746
 20
190.198409
 30
0.0
 10
143.699858
 20
189.387084
 30
0.0
  0
SPLINE
  5
12c
100
AcDbEntity
  8
Layer_1
 62
7
100
AcDbSpline
 70
8
 71
3
 72
8
 73
4
 74
0
 40
0
 40
0
 40
0
 40
0
 40
1
 40
1
 40
1
 40
1
 10
143.699858
 20
189.387084
 30
0.0
 10
142.950325
 20
188.575695
 30
0.0
 10
141.684906
 20
188.525859
 30
0.0
 10
140.873577
 20
189.275743
 30
0.0
  0
LINE
  5
12d
100
AcDbEntity
  8
Layer_1
 62
7
100
AcDbLine
 10
140.873577
 20
189.275743
 30
0.0
 11
140.873577
 21
189.275743
 31
0.0
  0
LINE
  5
12e
100
AcDbEntity
  8
Layer_1
 62
1
100
AcDbLine
 10
38.689687
 20
213.778237
 30
0.0
 11
5.655200
 21
142.969118
 31
0.0
  0
LINE
  5
12f
100
AcDbEntity
  8
Layer_1
 62
1
100
AcDbLine
 10
52.678942
 20
207.049271
 30
0.0
 11
38.689777
 21
213.778039
 31
0.0
  0
LINE
  5
130
100
AcDbEntity
  8
Layer_1
 62
1
100
AcDbLine
 10
19.644426
 20
136.240303
 30
0.0
 11
5.655260
 21
142.969071
 31
0.0
  0
LINE
  5
131
100
AcDbEntity
  8
Layer_1
 62
1
100
AcDbLine
 10
254.688696
 20
171.215502
 30
0.0
 11
331.728853
 21
37.395799
 31
0.0
  0
LINE
  5
132
100
AcDbEntity
  8
Layer_1
 62
1
100
AcDbLine
 10
177.000116
 20
258.223455
 30
0.0
 11
253.914120
 21
172.352589
 31
0.0
  0
LINE
  5
133
100
AcDbEntity
  8
Layer_1
 62
1
100
AcDbLine
 10
52.722277
 20
206.876313
 30
0.0
 11
52.722589
 21
206.878085
 31
0.0
  0
LINE
  5
134
100
AcDbEntity
  8
Layer_1
 62
1
100
AcDbLine
 10
52.722589
 20
206.878085
 30
0.0
 11
75.918116
 21
169.164491
 31
0.0
  0
LINE
  5
135
100
AcDbEntity
  8
Layer_1
 62
1
100
AcDbLine
 10
75.918116
 20
169.164491
 30
0.0
 11
107.151718
 21
200.264017
 31
0.0
  0
LINE
  5
136
100
AcDbEntity
  8
Layer_1
 62
1
100
AcDbLine
 10
107.151718
 20
200.264017
 30
0.0
 11
175.425603
 21
258.673736
 31
0.0
  0
LINE
  5
137
100
AcDbEntity
  8
Layer_1
 62
1
100
AcDbLine
 10
59.506864
 20
85.625818
 30
0.0
 11
59.309692
 21
95.807168
 31
0.0
  0
LINE
  5
138
100
AcDbEntity
  8
Layer_1
 62
1
100
AcDbLine
 10
59.309692
 20
95.807168
 30
0.0
 11
63.464878
 21
142.570874
 31
0.0
  0
LINE
  5
139
100
AcDbEntity
  8
Layer_1
 62
1
100
AcDbLine
 10
63.464878
 20
142.570874
 30
0.0
 11
19.644521
 21
136.240322
 31
0.0
  0
LINE
  5
13a
100
AcDbEntity
  8
Layer_1
 62
1
100
AcDbLine
 10
61.044384
 20
6.348237
 30
0.0
 11
59.544864
 21
83.673625
 31
0.0
  0
LINE
  5
13b
100
AcDbEntity
  8
Layer_1
 62
1
100
AcDbLine
 10
177.871957
 20
4.864429
 30
0.0
 11
61.064933
 21
5.292518
 31
0.0
  0
LINE
  5
13c
100
AcDbEntity
  8
Layer_1
 62
1
100
AcDbLine
 10
330.936767
 20
36.154491
 30
0.0
 11
178.905151
 21
4.970609
 31
0.0
  0
LINE
  5
13d
100
AcDbEntity
  8
Layer_1
 62
1
100
AcDbLine
 10
39.338098
 20
206.350346
 30
0.0
 11
50.104705
 21
201.287387
 31
0.0
  0
LINE
  5
13e
100
AcDbEntity
  8
Layer_1
 62
1
100
AcDbLine
 10
50.104705
 20
201.287387
 30
0.0
 11
69.055555
 21
170.474313
 31
0.0
  0
LINE
  5
13f
100
AcDbEntity
  8
Layer_1
 62
1
100
AcDbLine
 10
72.640455
 20
171.975145
 30
0.0
 11
59.491679
 21
144.119936
 31
0.0
  0
LINE
  5
140
100
AcDbEntity
  8
Layer_1
 62
1
100
AcDbLine
 10
57.356255
 20
146.900949
 30
0.0
 11
22.262221
 21
141.830482
 31
0.0
  0
LINE
  5
141
100
AcDbEntity
  8
Layer_1
 62
1
100
AcDbLine
 10
22.262221
 20
141.830482
 30
0.0
 11
10.971733
 21
147.248029
 31
0.0
  0
LINE
  5
142
100
AcDbEntity
  8
Layer_1
 62
1
100
AcDbLine
 10
338.554124
 20
51.184749
 30
0.0
 11
483.898563
 21
34.184741
 31
0.0
  0
LINE
  5
143
100
AcDbEntity
  8
Layer_1
 62
1
100
AcDbLine
 10
483.898563
 20
271.184748
 30
0.0
 11
338.554123
 21
254.185093
 31
0.0
  0
SPLINE
  5
144
100
AcDbEntity
  8
Layer_1
 62
1
100
AcDbSpline
 70
8
 71
3
 72
8
 73
4
 74
0
 40
0
 40
0
 40
0
 40
0
 40
1
 40
1
 40
1
 40
1
 10
338.554124
 20
254.184948
 30
0.0
 10
353.370437
 20
143.920375
 30
0.0
 10
338.554124
 20
51.184626
 30
0.0
 10
338.554124
 20
51.184626
 30
0.0
  0
SPLINE
  5
145
100
AcDbEntity
  8
Layer_1
 62
1
100
AcDbSpline
 70
8
 71
3
 72
8
 73
4
 74
0
 40
0
 40
0
 40
0
 40
0
 40
1
 40
1
 40
1
 40
1
 10
483.898563
 20
271.184748
 30
0.0
 10
503.653766
 20
147.447592
 30
0.0
 10
483.898563
 20
34.184410
 30
0.0
 10
483.898563
 20
34.184410
 30
0.0
  0
LINE
  5
146
100
AcDbEntity
  8
Layer_1
 62
1
100
AcDbLine
 10
276.697950
 20
186.532900
 30
0.0
 11
98.011312
 21
344.408796
 31
0.0
  0
LINE
  5
147
100
AcDbEntity
  8
Layer_1
 62
1
100
AcDbLine
 10
369.319850
 20
367.675914
 30
0.0
 11
396.520940
 21
343.758902
 31
0.0
  0
LINE
  5
148
100
AcDbEntity
  8
Layer_1
 62
1
100
AcDbLine
 10
396.520940
 20
343.758902
 30
0.0
 11
365.975920
 21
319.333722
 31
0.0
  0
LINE
  5
149
100
AcDbEntity
  8
Layer_1
 62
1
100
AcDbLine
 10
365.975920
 20
319.333722
 30
0.0
 11
290.146370
 21
199.942197
 31
0.0
  0
LINE
  5
14a
100
AcDbEntity
  8
Layer_1
 62
1
100
AcDbLine
 10
290.146370
 20
199.942197
 30
0.0
 11
277.580550
 21
185.754700
 31
0.0
  0
LINE
  5
14b
100
AcDbEntity
  8
Layer_1
 62
1
100
AcDbLine
 10
98.700149
 20
345.179072
 30
0.0
 11
117.403050
 21
366.295499
 31
0.0
  0
LINE
  5
14c
100
AcDbEntity
  8
Layer_1
 62
1
100
AcDbLine
 10
117.403050
 20
366.295499
 30
0.0
 11
368.574810
 21
368.331216
 31
0.0
  0
ENDSEC
  0
SECTION
  2
OBJECTS
  0
DICTIONARY
  5
C
330
0
100
AcDbDictionary
  3
ACAD_GROUP
350
D
  3
ACAD_MLINESTYLE
350
17
  0
DICTIONARY
  5
D
330
C
100
AcDbDictionary
  0
DICTIONARY
  5
1A
330
C
100
AcDbDictionary
  0
DICTIONARY
  5
17
330
C
100
AcDbDictionary
  3
STANDARD
350
18
  0
DICTIONARY
  5
19
330
C
100
AcDbDictionary
  0
ENDSEC
  0
EOF
