<?xml version="1.0" encoding="UTF-8" standalone="no"?>
<!-- Created with Inkscape (http://www.inkscape.org/) -->

<svg
   xmlns:dc="http://purl.org/dc/elements/1.1/"
   xmlns:cc="http://creativecommons.org/ns#"
   xmlns:rdf="http://www.w3.org/1999/02/22-rdf-syntax-ns#"
   xmlns:svg="http://www.w3.org/2000/svg"
   xmlns="http://www.w3.org/2000/svg"
   xmlns:sodipodi="http://sodipodi.sourceforge.net/DTD/sodipodi-0.dtd"
   xmlns:inkscape="http://www.inkscape.org/namespaces/inkscape"
   width="500mm"
   height="380mm"
   viewBox="0 0 500 380"
   version="1.1"
   id="svg8589"
   inkscape:version="0.92.3 (2405546, 2018-03-11)"
   sodipodi:docname="01_HalfBoard.svg">
  <defs
     id="defs8583" />
  <sodipodi:namedview
     id="base"
     pagecolor="#ffffff"
     bordercolor="#666666"
     borderopacity="1.0"
     inkscape:pageopacity="0.0"
     inkscape:pageshadow="2"
     inkscape:zoom="0.7"
     inkscape:cx="878.29966"
     inkscape:cy="132.39954"
     inkscape:document-units="mm"
     inkscape:current-layer="g10033"
     showgrid="false"
     inkscape:window-width="1920"
     inkscape:window-height="1001"
     inkscape:window-x="-9"
     inkscape:window-y="-9"
     inkscape:window-maximized="1" />
  <metadata
     id="metadata8586">
    <rdf:RDF>
      <cc:Work
         rdf:about="">
        <dc:format>image/svg+xml</dc:format>
        <dc:type
           rdf:resource="http://purl.org/dc/dcmitype/StillImage" />
        <dc:title></dc:title>
      </cc:Work>
    </rdf:RDF>
  </metadata>
  <g
     inkscape:label="Layer 1"
     inkscape:groupmode="layer"
     id="layer1"
     transform="translate(0,83)">
    <g
       id="g3087"
       transform="matrix(0.35277777,0,0,-0.35277777,385.1092,168.57235)" />
    <g
       id="g3091"
       transform="matrix(0.35277777,0,0,-0.35277777,384.277,171.65816)" />
    <g
       id="g3479"
       transform="matrix(0.35277777,0,0,-0.35277777,66.25117,130.92881)" />
    <g
       id="g3483"
       transform="matrix(0.35277777,0,0,-0.35277777,86.48797,55.459203)" />
    <g
       id="g10033"
       transform="rotate(10,-127.53652,-120.51451)">
      <path
         d="M 117.15007,174.85243 H 382.32113"
         style="fill:none;stroke:#ff003f;stroke-width:0.35277778;stroke-linecap:round;stroke-linejoin:round;stroke-miterlimit:4;stroke-dasharray:none;stroke-dashoffset:0;stroke-opacity:1"
         id="path2865"
         inkscape:connector-curvature="0" />
      <path
         d="m 239.0689,118.92198 15.79986,-17.71156"
         style="fill:none;stroke:#00ff00;stroke-width:0.35277778;stroke-linecap:butt;stroke-linejoin:miter;stroke-miterlimit:10;stroke-dasharray:none;stroke-dashoffset:0;stroke-opacity:1"
         id="path2977"
         inkscape:connector-curvature="0" />
      <path
         d="m 236.3,178.41206 8.67657,31.99447 0.3563,19.35198"
         style="fill:none;stroke:#ec1c24;stroke-width:0.35277778;stroke-linecap:round;stroke-linejoin:round;stroke-miterlimit:4;stroke-dasharray:none;stroke-dashoffset:0;stroke-opacity:1"
         id="path2985"
         inkscape:connector-curvature="0" />
      <path
         d="m 229.8007,151.77614 5.53508,23.08049"
         style="fill:none;stroke:#00ff00;stroke-width:0.35277778;stroke-linecap:butt;stroke-linejoin:miter;stroke-miterlimit:10;stroke-dasharray:none;stroke-dashoffset:0;stroke-opacity:1"
         id="path2993"
         inkscape:connector-curvature="0" />
      <path
         d="M 382.5903,166.57376 280.10977,74.441259 200.94644,-15.122314"
         style="fill:none;stroke:#ec1c24;stroke-width:0.35299999;stroke-linecap:round;stroke-linejoin:round;stroke-miterlimit:4;stroke-dasharray:none;stroke-dashoffset:0;stroke-opacity:1"
         id="path3001"
         inkscape:connector-curvature="0" />
      <path
         d="m 379.5232,178.13397 -134.54591,32.27176 -7.1e-4,7e-4 -112.37806,41.25419"
         style="fill:none;stroke:#ec1c24;stroke-width:0.35277778;stroke-linecap:round;stroke-linejoin:round;stroke-miterlimit:4;stroke-dasharray:none;stroke-dashoffset:0;stroke-opacity:1"
         id="path3013"
         inkscape:connector-curvature="0" />
      <path
         d="M 380.431,173.19416 229.80089,151.77596 115.31286,163.55345"
         style="fill:none;stroke:#ec1c24;stroke-width:0.35277778;stroke-linecap:round;stroke-linejoin:round;stroke-miterlimit:4;stroke-dasharray:none;stroke-dashoffset:0;stroke-opacity:1"
         id="path3025"
         inkscape:connector-curvature="0" />
      <path
         d="M 381.0493,170.86674 239.06895,118.92198 143.78791,54.360118"
         style="fill:none;stroke:#ec1c24;stroke-width:0.35277778;stroke-linecap:round;stroke-linejoin:round;stroke-miterlimit:4;stroke-dasharray:none;stroke-dashoffset:0;stroke-opacity:1"
         id="path3037"
         inkscape:connector-curvature="0" />
      <path
         d="M 235.462,118.03753 118.87001,89.448067"
         style="fill:none;stroke:#ec1c24;stroke-width:0.35277778;stroke-linecap:round;stroke-linejoin:round;stroke-miterlimit:4;stroke-dasharray:none;stroke-dashoffset:0;stroke-opacity:1"
         id="path3049"
         inkscape:connector-curvature="0" />
      <path
         d="m 114.99747,92.276006 -5.91432,21.930434"
         style="fill:none;stroke:#ec1c24;stroke-width:0.35277778;stroke-linecap:round;stroke-linejoin:round;stroke-miterlimit:4;stroke-dasharray:none;stroke-dashoffset:0;stroke-opacity:1"
         id="path3057"
         inkscape:connector-curvature="0" />
      <path
         d="m 111.87297,118.10361 115.02425,32.85278"
         style="fill:none;stroke:#ec1c24;stroke-width:0.35277778;stroke-linecap:round;stroke-linejoin:round;stroke-miterlimit:4;stroke-dasharray:none;stroke-dashoffset:0;stroke-opacity:1"
         id="path3065"
         inkscape:connector-curvature="0" />
      <path
         d="m 230.7677,148.29556 7.49688,-26.52783"
         style="fill:none;stroke:#ec1c24;stroke-width:0.35277778;stroke-linecap:round;stroke-linejoin:round;stroke-miterlimit:4;stroke-dasharray:none;stroke-dashoffset:0;stroke-opacity:1"
         id="path3073"
         inkscape:connector-curvature="0" />
      <path
         d="m 289.2768,58.202333 -9.16693,16.239066 -23.19161,24.595314"
         style="fill:none;stroke:#ec1c24;stroke-width:0.35277778;stroke-linecap:round;stroke-linejoin:round;stroke-miterlimit:4;stroke-dasharray:none;stroke-dashoffset:0;stroke-opacity:1"
         id="path3081"
         inkscape:connector-curvature="0" />
      <g
         transform="matrix(0.35277777,0,0,-0.35277777,383.2776,175.36353)"
         id="g3095">
        <path
           sodipodi:nodetypes="cccccc"
           inkscape:connector-curvature="0"
           d="M 0.33294494,1.2354113 -1.692,-6.276 M 3.4999371,12.974589 0.33294494,1.2354113 m 4.85899216,18.0151777 -1.692,-6.276"
           style="fill:none;stroke:#ec1c24;stroke-width:1;stroke-linecap:round;stroke-linejoin:round;stroke-miterlimit:4;stroke-dasharray:none;stroke-opacity:1"
           id="path3097" />
      </g>
      <path
         d="M 381.5014,169.48643 151.15233,45.349224"
         style="fill:none;stroke:#ec1c24;stroke-width:0.35277778;stroke-linecap:round;stroke-linejoin:round;stroke-miterlimit:4;stroke-dasharray:none;stroke-dashoffset:0;stroke-opacity:1"
         id="path3377"
         inkscape:connector-curvature="0" />
      <g
         transform="matrix(0.35277777,0,0,-0.35277777,91.56327,86.383735)"
         id="g3383"
         style="stroke:#000000;stroke-opacity:1">
        <path
           inkscape:connector-curvature="0"
           id="path3385"
           style="fill:none;stroke:#000000;stroke-width:1;stroke-linecap:round;stroke-linejoin:round;stroke-miterlimit:10;stroke-dasharray:none;stroke-opacity:1"
           d="M 0,0 C 0.305,1.132 -0.366,2.299 -1.499,2.604 -2.633,2.912 -3.8,2.238 -4.105,1.107 -4.41,-0.027 -3.739,-1.193 -2.606,-1.5 -1.473,-1.805 -0.306,-1.135 0,0 Z" />
      </g>
      <g
         transform="matrix(0.35277777,0,0,-0.35277777,86.04317,106.85141)"
         id="g3387"
         style="stroke:#000000;stroke-opacity:1">
        <path
           inkscape:connector-curvature="0"
           id="path3389"
           style="fill:none;stroke:#000000;stroke-width:1;stroke-linecap:round;stroke-linejoin:round;stroke-miterlimit:10;stroke-dasharray:none;stroke-opacity:1"
           d="M 0,0 C 0.306,1.132 -0.366,2.3 -1.499,2.604 -2.632,2.911 -3.8,2.239 -4.105,1.107 -4.41,-0.027 -3.738,-1.196 -2.605,-1.5 -1.473,-1.806 -0.306,-1.135 0,0 Z" />
      </g>
      <g
         transform="matrix(0.35277777,0,0,-0.35277777,67.85857,124.83514)"
         id="g3447">
        <path
           sodipodi:nodetypes="cc"
           inkscape:connector-curvature="0"
           id="path3449"
           style="fill:none;stroke:#ec1c24;stroke-width:1;stroke-linecap:butt;stroke-linejoin:miter;stroke-miterlimit:2.61299992;stroke-dasharray:none;stroke-opacity:1"
           d="M 0,0 -2.9437796,-11.495197" />
      </g>
      <g
         transform="matrix(0.35277777,0,0,-0.35277777,85.51167,59.511843)"
         id="g3459">
        <path
           sodipodi:nodetypes="cc"
           inkscape:connector-curvature="0"
           id="path3461"
           style="fill:none;stroke:#ec1c24;stroke-width:1;stroke-linecap:butt;stroke-linejoin:miter;stroke-miterlimit:2.61299992;stroke-dasharray:none;stroke-opacity:1"
           d="M 1.4532127,5.2257987 -1.742,-6.262" />
      </g>
      <path
         d="m 148.51587,180.17852 c -1.10455,0 -1.9999,-0.8957 -1.9999,-2.00025 0,-1.10455 0.89535,-2.00025 1.9999,-2.00025 1.10455,0 1.9999,0.8957 1.9999,2.00025 0,1.10455 -0.89535,2.00025 -1.9999,2.00025 z"
         style="fill:none;stroke:#000000;stroke-width:0.35277778;stroke-linecap:butt;stroke-linejoin:miter;stroke-miterlimit:10;stroke-dasharray:none;stroke-dashoffset:0;stroke-opacity:1"
         id="path3465"
         inkscape:connector-curvature="0" />
      <path
         d="m 176.42907,57.647873 c -0.92922,-0.597253 -1.19803,-1.834797 -0.60043,-2.764014 0.59761,-0.929216 1.83515,-1.19768 2.76437,-0.60078 0.92886,0.597605 1.19768,1.83515 0.60007,2.764366 -0.59725,0.929217 -1.83479,1.198034 -2.76401,0.600428 z"
         style="fill:none;stroke:#000000;stroke-width:0.35277778;stroke-linecap:butt;stroke-linejoin:miter;stroke-miterlimit:10;stroke-dasharray:none;stroke-dashoffset:0;stroke-opacity:1"
         id="path3473"
         inkscape:connector-curvature="0" />
      <path
         id="path3489"
         style="fill:none;stroke:#000000;stroke-width:0.35277778;stroke-linecap:round;stroke-linejoin:round;stroke-miterlimit:10;stroke-dasharray:none;stroke-opacity:1"
         d="M 71.54277,51.261673 51.306026,126.73142 M 86.48797,55.459203 71.542893,51.261853 M 66.25117,130.92881 51.306093,126.73146 M 291.65121,55.66995 390.7585,174.07875 M 200.03412,-16.525676 290.69095,54.684642 M 86.56068,55.622008 v -0.0018 l 29.39203,33.112778 25.35872,-36.050712 57.09391,-69.377979 m -84.10822,190.548005 -1.96215,-9.99243 -4.02837,-46.7748 -42.05534,13.8437 m 63.32643,120.72972 -14.90415,-75.89025 m 130.21451,57.06462 -115.1068,19.86174 M 390.194,175.43874 245.88711,232.54888"
         inkscape:connector-curvature="0" />
      <path
         d="m 73.47117,58.464123 11.482211,3.116439 24.013579,27.054174"
         style="fill:none;stroke:#ec1c24;stroke-width:0.35277778;stroke-linecap:butt;stroke-linejoin:miter;stroke-miterlimit:2.61299992;stroke-dasharray:none;stroke-dashoffset:0;stroke-opacity:1"
         id="path3497"
         inkscape:connector-curvature="0" />
      <path
         sodipodi:nodetypes="cc"
         d="m 112.23678,86.534193 -8.11201,29.715287"
         style="fill:none;stroke:#ec1c24;stroke-width:0.35277778;stroke-linecap:butt;stroke-linejoin:miter;stroke-miterlimit:2.61299992;stroke-dasharray:none;stroke-dashoffset:0;stroke-opacity:1"
         id="path3509"
         inkscape:connector-curvature="0" />
      <path
         d="M 101.53887,113.88153 67.858471,124.96898 55.798763,121.59431"
         style="fill:none;stroke:#ec1c24;stroke-width:0.35277778;stroke-linecap:butt;stroke-linejoin:miter;stroke-miterlimit:2.61299992;stroke-dasharray:none;stroke-dashoffset:0;stroke-opacity:1"
         id="path3521"
         inkscape:connector-curvature="0" />
    </g>
    <g
       id="g2855"
       transform="matrix(0,0.35277777,0.35277777,0,340.69228,263.45504)">
      <path
         id="path2857"
         style="fill:none;stroke:#000000;stroke-width:1;stroke-linecap:butt;stroke-linejoin:miter;stroke-miterlimit:10;stroke-dasharray:none;stroke-opacity:1"
         d="M -50.002552,-6.0609154 -1.8135521,405.93908 m -671.8110579,0 48.188,-411.9999989 m 4.1e-4,3.5e-6 c 312.561,41.9990004 575.433997,0 575.433997,0 M -673.62461,405.93908 c 350.751,55.999 671.8119969,0 671.8119969,0"
         inkscape:connector-curvature="0" />
    </g>
    <path
       id="path9181"
       style="fill:none;stroke:#000000;stroke-width:0.35277778;stroke-linecap:round;stroke-linejoin:round;stroke-miterlimit:10;stroke-dasharray:none;stroke-opacity:1"
       d="M 276.69795,110.4671 98.011312,-47.408796 m 271.308538,-23.267118 27.20109,23.917012 -30.54502,24.42518 L 290.14637,97.057803 277.58055,111.2453 M 98.700149,-48.179072 117.40305,-69.295499 368.57481,-71.331216"
       inkscape:connector-curvature="0" />
  </g>
</svg>
