  0
SECTION
  2
HEADER
  9
$ACADVER
  1
AC1014
  9
$HANDSEED
  5
FFFF
  9
$MEASUREMENT
 70
     1
  0
ENDSEC
  0
SECTION
  2
TABLES
  0
TABLE
  2
VPORT
  5
8
330
0
100
AcDbSymbolTable
 70
     4
  0
VPORT
  5
2E
330
8
100
AcDbSymbolTableRecord
100
AcDbViewportTableRecord
  2
*ACTIVE
 70
     0
 10
0.0
 20
0.0
 11
1.0
 21
1.0
 12
210.0
 22
148.5
 13
0.0
 23
0.0
 14
10.0
 24
10.0
 15
10.0
 25
10.0
 16
0.0
 26
0.0
 36
1.0
 17
0.0
 27
0.0
 37
0.0
 40
341.0
 41
1.24
 42
50.0
 43
0.0
 44
0.0
 50
0.0
 51
0.0
 71
     0
 72
   100
 73
     1
 74
     3
 75
     0
 76
     0
 77
     0
 78
     0
  0
ENDTAB
  0
TABLE
  2
LTYPE
  5
5
330
0
100
AcDbSymbolTable
 70
     1
  0
LTYPE
  5
14
330
5
100
AcDbSymbolTableRecord
100
AcDbLinetypeTableRecord
  2
BYBLOCK
 70
     0
  3

 72
    65
 73
     0
 40
0.0
  0
LTYPE
  5
15
330
5
100
AcDbSymbolTableRecord
100
AcDbLinetypeTableRecord
  2
BYLAYER
 70
     0
  3

 72
    65
 73
     0
 40
0.0
  0
LTYPE
  5
16
330
5
100
AcDbSymbolTableRecord
100
AcDbLinetypeTableRecord
  2
CONTINUOUS
 70
     0
  3
Solid line
 72
    65
 73
     0
 40
0.0
  0
ENDTAB
  0
TABLE
  2
LAYER
  5
2
100
AcDbSymbolTable
 70
2
  0
LAYER
  5
50
100
AcDbSymbolTableRecord
100
AcDbLayerTableRecord
  2
0
 70
0
  6
CONTINUOUS
  0
LAYER
  5
51
100
AcDbSymbolTableRecord
100
AcDbLayerTableRecord
  2
Layer_1
 70
0
  6
CONTINUOUS
  0
ENDTAB
  0
TABLE
  2
STYLE
  5
3
330
0
100
AcDbSymbolTable
 70
     1
  0
STYLE
  5
11
330
3
100
AcDbSymbolTableRecord
100
AcDbTextStyleTableRecord
  2
STANDARD
 70
     0
 40
0.0
 41
1.0
 50
0.0
 71
     0
 42
2.5
  3
txt
  4

  0
ENDTAB
  0
TABLE
  2
VIEW
  5
6
330
0
100
AcDbSymbolTable
 70
     0
  0
ENDTAB
  0
TABLE
  2
UCS
  5
7
330
0
100
AcDbSymbolTable
 70
     0
  0
ENDTAB
  0
TABLE
  2
APPID
  5
9
330
0
100
AcDbSymbolTable
 70
     2
  0
APPID
  5
12
330
9
100
AcDbSymbolTableRecord
100
AcDbRegAppTableRecord
  2
ACAD
 70
     0
  0
ENDTAB
  0
TABLE
  2
DIMSTYLE
  5
A
330
0
100
AcDbSymbolTable
 70
     1
  0
DIMSTYLE
105
27
330
A
100
AcDbSymbolTableRecord
100
AcDbDimStyleTableRecord
  2
ISO-25
 70
     0
  3

  4

  5

  6

  7

 40
1.0
 41
2.5
 42
0.625
 43
3.75
 44
1.25
 45
0.0
 46
0.0
 47
0.0
 48
0.0
140
2.5
141
2.5
142
0.0
143
0.03937007874016
144
1.0
145
0.0
146
1.0
147
0.625
 71
     0
 72
     0
 73
     0
 74
     0
 75
     0
 76
     0
 77
     1
 78
     8
170
     0
171
     3
172
     1
173
     0
174
     0
175
     0
176
     0
177
     0
178
     0
270
     2
271
     2
272
     2
273
     2
274
     3
340
11
275
     0
280
     0
281
     0
282
     0
283
     0
284
     8
285
     0
286
     0
287
     3
288
     0
  0
ENDTAB
  0
TABLE
  2
BLOCK_RECORD
  5
1
330
0
100
AcDbSymbolTable
 70
     1
  0
BLOCK_RECORD
  5
1F
330
1
100
AcDbSymbolTableRecord
100
AcDbBlockTableRecord
  2
*MODEL_SPACE
  0
BLOCK_RECORD
  5
1B
330
1
100
AcDbSymbolTableRecord
100
AcDbBlockTableRecord
  2
*PAPER_SPACE
  0
ENDTAB
  0
ENDSEC
  0
SECTION
  2
BLOCKS
  0
BLOCK
  5
20
330
1F
100
AcDbEntity
  8
0
100
AcDbBlockBegin
  2
*MODEL_SPACE
 70
     0
 10
0.0
 20
0.0
 30
0.0
  3
*MODEL_SPACE
  1

  0
ENDBLK
  5
21
330
1F
100
AcDbEntity
  8
0
100
AcDbBlockEnd
  0
BLOCK
  5
1C
330
1B
100
AcDbEntity
 67
     1
  8
0
100
AcDbBlockBegin
  2
*PAPER_SPACE
  1

  0
ENDBLK
  5
1D
330
1B
100
AcDbEntity
 67
     1
  8
0
100
AcDbBlockEnd
  0
ENDSEC
  0
SECTION
  2
ENTITIES
  0
LINE
  5
100
100
AcDbEntity
  8
Layer_1
 62
3
100
AcDbLine
 10
122.620970
 20
277.383336
 30
0.0
 11
130.176410
 21
274.622496
 31
0.0
  0
LINE
  5
101
100
AcDbEntity
  8
Layer_1
 62
3
100
AcDbLine
 10
130.176410
 20
274.622496
 30
0.0
 11
130.176410
 21
278.690726
 31
0.0
  0
LINE
  5
102
100
AcDbEntity
  8
Layer_1
 62
3
100
AcDbLine
 10
122.620970
 20
271.911216
 30
0.0
 11
122.620970
 21
272.297156
 31
0.0
  0
SPLINE
  5
103
100
AcDbEntity
  8
Layer_1
 62
3
100
AcDbSpline
 70
0
 71
3
 72
10
 73
6
 74
4
 40
0.000000
 40
0.000000
 40
0.000000
 40
0.000000
 40
0.860984
 40
1.696840
 40
2.558229
 40
2.558229
 40
2.558229
 40
2.558229
 10
124.268090
 20
270.263746
 30
0.0
 10
123.979563
 20
270.309095
 30
0.0
 10
123.410928
 20
270.398470
 30
0.0
 10
122.755672
 20
271.053769
 30
0.0
 10
122.666319
 20
271.622548
 30
0.0
 10
122.620970
 20
271.911216
 30
0.0
 11
124.268090
 21
270.263746
 31
0.0
 11
123.437010
 21
270.488688
 31
0.0
 11
122.845977
 21
271.079734
 31
0.0
 11
122.620970
 21
271.911216
 31
0.0
  0
LINE
  5
104
100
AcDbEntity
  8
Layer_1
 62
3
100
AcDbLine
 10
124.268090
 20
273.944626
 30
0.0
 11
128.528580
 21
273.944626
 31
0.0
  0
SPLINE
  5
105
100
AcDbEntity
  8
Layer_1
 62
3
100
AcDbSpline
 70
0
 71
3
 72
10
 73
6
 74
4
 40
0.000000
 40
0.000000
 40
0.000000
 40
0.000000
 40
0.861388
 40
1.697245
 40
2.558229
 40
2.558229
 40
2.558229
 40
2.558229
 10
122.620970
 20
272.297156
 30
0.0
 10
122.666319
 20
272.585824
 30
0.0
 10
122.755672
 20
273.154603
 30
0.0
 10
123.410928
 20
273.809902
 30
0.0
 10
123.979563
 20
273.899277
 30
0.0
 10
124.268090
 20
273.944626
 30
0.0
 11
122.620970
 21
272.297156
 31
0.0
 11
122.845977
 21
273.128638
 31
0.0
 11
123.437010
 21
273.719684
 31
0.0
 11
124.268090
 21
273.944626
 31
0.0
  0
LINE
  5
106
100
AcDbEntity
  8
Layer_1
 62
3
100
AcDbLine
 10
130.176410
 20
272.297156
 30
0.0
 11
130.176410
 21
271.911216
 31
0.0
  0
SPLINE
  5
107
100
AcDbEntity
  8
Layer_1
 62
3
100
AcDbSpline
 70
0
 71
3
 72
10
 73
6
 74
4
 40
0.000000
 40
0.000000
 40
0.000000
 40
0.000000
 40
0.861466
 40
1.697453
 40
2.558848
 40
2.558848
 40
2.558848
 40
2.558848
 10
128.528580
 20
273.944626
 30
0.0
 10
128.817275
 20
273.899300
 30
0.0
 10
129.386126
 20
273.809987
 30
0.0
 10
130.041695
 20
273.154669
 30
0.0
 10
130.131059
 20
272.585832
 30
0.0
 10
130.176410
 20
272.297156
 30
0.0
 11
128.528580
 21
273.944626
 31
0.0
 11
129.360160
 21
273.719684
 31
0.0
 11
129.951377
 21
273.128638
 31
0.0
 11
130.176410
 21
272.297156
 31
0.0
  0
LINE
  5
108
100
AcDbEntity
  8
Layer_1
 62
3
100
AcDbLine
 10
128.528580
 20
270.263746
 30
0.0
 11
124.268090
 21
270.263746
 31
0.0
  0
SPLINE
  5
109
100
AcDbEntity
  8
Layer_1
 62
3
100
AcDbSpline
 70
0
 71
3
 72
10
 73
6
 74
4
 40
0.000000
 40
0.000000
 40
0.000000
 40
0.000000
 40
0.861395
 40
1.697382
 40
2.558848
 40
2.558848
 40
2.558848
 40
2.558848
 10
130.176410
 20
271.911216
 30
0.0
 10
130.131059
 20
271.622540
 30
0.0
 10
130.041695
 20
271.053703
 30
0.0
 10
129.386126
 20
270.398385
 30
0.0
 10
128.817275
 20
270.309072
 30
0.0
 10
128.528580
 20
270.263746
 30
0.0
 11
130.176410
 21
271.911216
 31
0.0
 11
129.951377
 21
271.079734
 31
0.0
 11
129.360160
 21
270.488688
 31
0.0
 11
128.528580
 21
270.263746
 31
0.0
  0
LINE
  5
10a
100
AcDbEntity
  8
Layer_1
 62
3
100
AcDbLine
 10
122.591690
 20
267.941046
 30
0.0
 11
122.591690
 21
268.822986
 31
0.0
  0
LINE
  5
10b
100
AcDbEntity
  8
Layer_1
 62
3
100
AcDbLine
 10
122.591690
 20
268.822986
 30
0.0
 11
130.176410
 21
268.822986
 31
0.0
  0
LINE
  5
10c
100
AcDbEntity
  8
Layer_1
 62
3
100
AcDbLine
 10
130.176410
 20
268.822986
 30
0.0
 11
130.176410
 21
267.941046
 31
0.0
  0
SPLINE
  5
10d
100
AcDbEntity
  8
Layer_1
 62
3
100
AcDbSpline
 70
0
 71
3
 72
13
 73
9
 74
7
 40
0.000000
 40
0.000000
 40
0.000000
 40
0.000000
 40
0.991498
 40
1.953476
 40
2.944969
 40
3.936467
 40
4.898443
 40
5.889941
 40
5.889941
 40
5.889941
 40
5.889941
 10
126.384050
 20
267.941046
 30
0.0
 10
126.331916
 20
267.606754
 30
0.0
 10
126.229199
 20
266.948124
 30
0.0
 10
125.474834
 20
266.223002
 30
0.0
 10
124.487869
 20
265.954453
 30
0.0
 10
123.500903
 20
266.223000
 30
0.0
 10
122.746538
 20
266.948124
 30
0.0
 10
122.643824
 20
267.606754
 30
0.0
 10
122.591690
 20
267.941046
 30
0.0
 11
126.384050
 21
267.941046
 31
0.0
 11
126.125201
 21
266.983933
 31
0.0
 11
125.444979
 21
266.303713
 31
0.0
 11
124.487870
 21
266.044866
 31
0.0
 11
123.530757
 21
266.303713
 31
0.0
 11
122.850537
 21
266.983933
 31
0.0
 11
122.591690
 21
267.941046
 31
0.0
  0
LINE
  5
10e
100
AcDbEntity
  8
Layer_1
 62
3
100
AcDbLine
 10
126.384050
 20
267.941046
 30
0.0
 11
126.384050
 21
268.822986
 31
0.0
  0
LINE
  5
10f
100
AcDbEntity
  8
Layer_1
 62
3
100
AcDbLine
 10
122.620970
 20
138.476740
 30
0.0
 11
130.176410
 21
135.716250
 31
0.0
  0
LINE
  5
110
100
AcDbEntity
  8
Layer_1
 62
3
100
AcDbLine
 10
130.176410
 20
135.716250
 30
0.0
 11
130.176410
 21
139.784490
 31
0.0
  0
SPLINE
  5
111
100
AcDbEntity
  8
Layer_1
 62
3
100
AcDbSpline
 70
0
 71
3
 72
13
 73
9
 74
7
 40
0.000000
 40
0.000000
 40
0.000000
 40
0.000000
 40
0.991498
 40
1.953476
 40
2.944969
 40
3.936467
 40
4.898443
 40
5.889941
 40
5.889941
 40
5.889941
 40
5.889941
 10
130.176410
 20
267.941046
 30
0.0
 10
130.124276
 20
267.606754
 30
0.0
 10
130.021559
 20
266.948124
 30
0.0
 10
129.267194
 20
266.223002
 30
0.0
 10
128.280229
 20
265.954453
 30
0.0
 10
127.293263
 20
266.223000
 30
0.0
 10
126.538898
 20
266.948124
 30
0.0
 10
126.436184
 20
267.606754
 30
0.0
 10
126.384050
 20
267.941046
 30
0.0
 11
130.176410
 21
267.941046
 31
0.0
 11
129.917561
 21
266.983933
 31
0.0
 11
129.237339
 21
266.303713
 31
0.0
 11
128.280230
 21
266.044866
 31
0.0
 11
127.323117
 21
266.303713
 31
0.0
 11
126.642897
 21
266.983933
 31
0.0
 11
126.384050
 21
267.941046
 31
0.0
  0
LINE
  5
112
100
AcDbEntity
  8
Layer_1
 62
3
100
AcDbLine
 10
122.620970
 20
133.004590
 30
0.0
 11
122.620970
 21
133.390530
 31
0.0
  0
SPLINE
  5
113
100
AcDbEntity
  8
Layer_1
 62
3
100
AcDbSpline
 70
0
 71
3
 72
10
 73
6
 74
4
 40
0.000000
 40
0.000000
 40
0.000000
 40
0.000000
 40
0.860984
 40
1.696840
 40
2.558229
 40
2.558229
 40
2.558229
 40
2.558229
 10
124.268090
 20
131.357120
 30
0.0
 10
123.979563
 20
131.402469
 30
0.0
 10
123.410928
 20
131.491844
 30
0.0
 10
122.755672
 20
132.147143
 30
0.0
 10
122.666319
 20
132.715922
 30
0.0
 10
122.620970
 20
133.004590
 30
0.0
 11
124.268090
 21
131.357120
 31
0.0
 11
123.437010
 21
131.582062
 31
0.0
 11
122.845977
 21
132.173108
 31
0.0
 11
122.620970
 21
133.004590
 31
0.0
  0
LINE
  5
114
100
AcDbEntity
  8
Layer_1
 62
3
100
AcDbLine
 10
124.268090
 20
135.038000
 30
0.0
 11
128.528580
 21
135.038000
 31
0.0
  0
SPLINE
  5
115
100
AcDbEntity
  8
Layer_1
 62
3
100
AcDbSpline
 70
0
 71
3
 72
10
 73
6
 74
4
 40
0.000000
 40
0.000000
 40
0.000000
 40
0.000000
 40
0.861543
 40
1.697343
 40
2.558306
 40
2.558306
 40
2.558306
 40
2.558306
 10
122.620970
 20
133.390530
 30
0.0
 10
122.666302
 20
133.679259
 30
0.0
 10
122.755612
 20
134.248089
 30
0.0
 10
123.410948
 20
134.903363
 30
0.0
 10
123.979565
 20
134.992680
 30
0.0
 10
124.268090
 20
135.038000
 30
0.0
 11
122.620970
 21
133.390530
 31
0.0
 11
122.845977
 21
134.222172
 31
0.0
 11
123.437010
 21
134.813138
 31
0.0
 11
124.268090
 21
135.038000
 31
0.0
  0
LINE
  5
116
100
AcDbEntity
  8
Layer_1
 62
3
100
AcDbLine
 10
130.176410
 20
133.390530
 30
0.0
 11
130.176410
 21
133.004590
 31
0.0
  0
SPLINE
  5
117
100
AcDbEntity
  8
Layer_1
 62
3
100
AcDbSpline
 70
0
 71
3
 72
10
 73
6
 74
4
 40
0.000000
 40
0.000000
 40
0.000000
 40
0.000000
 40
0.861445
 40
1.697375
 40
2.558925
 40
2.558925
 40
2.558925
 40
2.558925
 10
128.528580
 20
135.038000
 30
0.0
 10
128.817272
 20
134.992702
 30
0.0
 10
129.386106
 20
134.903449
 30
0.0
 10
130.041755
 20
134.248155
 30
0.0
 10
130.131076
 20
133.679267
 30
0.0
 10
130.176410
 20
133.390530
 30
0.0
 11
128.528580
 21
135.038000
 31
0.0
 11
129.360160
 21
134.813138
 31
0.0
 11
129.951377
 21
134.222172
 31
0.0
 11
130.176410
 21
133.390530
 31
0.0
  0
LINE
  5
118
100
AcDbEntity
  8
Layer_1
 62
3
100
AcDbLine
 10
128.528580
 20
131.357120
 30
0.0
 11
124.268090
 21
131.357120
 31
0.0
  0
LINE
  5
119
100
AcDbEntity
  8
Layer_1
 62
3
100
AcDbLine
 10
122.620970
 20
22.897650
 30
0.0
 11
130.176410
 21
20.136810
 31
0.0
  0
LINE
  5
11a
100
AcDbEntity
  8
Layer_1
 62
3
100
AcDbLine
 10
130.176410
 20
20.136810
 30
0.0
 11
130.176410
 21
24.205040
 31
0.0
  0
SPLINE
  5
11b
100
AcDbEntity
  8
Layer_1
 62
3
100
AcDbSpline
 70
0
 71
3
 72
10
 73
6
 74
4
 40
0.000000
 40
0.000000
 40
0.000000
 40
0.000000
 40
0.861395
 40
1.697382
 40
2.558848
 40
2.558848
 40
2.558848
 40
2.558848
 10
130.176410
 20
133.004590
 30
0.0
 10
130.131059
 20
132.715914
 30
0.0
 10
130.041695
 20
132.147077
 30
0.0
 10
129.386126
 20
131.491759
 30
0.0
 10
128.817275
 20
131.402446
 30
0.0
 10
128.528580
 20
131.357120
 30
0.0
 11
130.176410
 21
133.004590
 31
0.0
 11
129.951377
 21
132.173108
 31
0.0
 11
129.360160
 21
131.582062
 31
0.0
 11
128.528580
 21
131.357120
 31
0.0
  0
LINE
  5
11c
100
AcDbEntity
  8
Layer_1
 62
3
100
AcDbLine
 10
122.620970
 20
17.425500
 30
0.0
 11
122.620970
 21
17.811440
 31
0.0
  0
SPLINE
  5
11d
100
AcDbEntity
  8
Layer_1
 62
3
100
AcDbSpline
 70
0
 71
3
 72
10
 73
6
 74
4
 40
0.000000
 40
0.000000
 40
0.000000
 40
0.000000
 40
0.860984
 40
1.696840
 40
2.558229
 40
2.558229
 40
2.558229
 40
2.558229
 10
124.268090
 20
15.778030
 30
0.0
 10
123.979563
 20
15.823379
 30
0.0
 10
123.410928
 20
15.912754
 30
0.0
 10
122.755672
 20
16.568053
 30
0.0
 10
122.666319
 20
17.136832
 30
0.0
 10
122.620970
 20
17.425500
 30
0.0
 11
124.268090
 21
15.778030
 31
0.0
 11
123.437010
 21
16.002972
 31
0.0
 11
122.845977
 21
16.594018
 31
0.0
 11
122.620970
 21
17.425500
 31
0.0
  0
LINE
  5
11e
100
AcDbEntity
  8
Layer_1
 62
3
100
AcDbLine
 10
124.268090
 20
19.458910
 30
0.0
 11
128.528580
 21
19.458910
 31
0.0
  0
SPLINE
  5
11f
100
AcDbEntity
  8
Layer_1
 62
3
100
AcDbSpline
 70
0
 71
3
 72
10
 73
6
 74
4
 40
0.000000
 40
0.000000
 40
0.000000
 40
0.000000
 40
0.861388
 40
1.697245
 40
2.558229
 40
2.558229
 40
2.558229
 40
2.558229
 10
122.620970
 20
17.811440
 30
0.0
 10
122.666319
 20
18.100108
 30
0.0
 10
122.755672
 20
18.668887
 30
0.0
 10
123.410928
 20
19.324186
 30
0.0
 10
123.979563
 20
19.413561
 30
0.0
 10
124.268090
 20
19.458910
 30
0.0
 11
122.620970
 21
17.811440
 31
0.0
 11
122.845977
 21
18.642922
 31
0.0
 11
123.437010
 21
19.233968
 31
0.0
 11
124.268090
 21
19.458910
 31
0.0
  0
LINE
  5
120
100
AcDbEntity
  8
Layer_1
 62
3
100
AcDbLine
 10
130.176410
 20
17.811440
 30
0.0
 11
130.176410
 21
17.425500
 31
0.0
  0
SPLINE
  5
121
100
AcDbEntity
  8
Layer_1
 62
3
100
AcDbSpline
 70
0
 71
3
 72
10
 73
6
 74
4
 40
0.000000
 40
0.000000
 40
0.000000
 40
0.000000
 40
0.861466
 40
1.697453
 40
2.558848
 40
2.558848
 40
2.558848
 40
2.558848
 10
128.528580
 20
19.458910
 30
0.0
 10
128.817275
 20
19.413584
 30
0.0
 10
129.386126
 20
19.324271
 30
0.0
 10
130.041695
 20
18.668953
 30
0.0
 10
130.131059
 20
18.100116
 30
0.0
 10
130.176410
 20
17.811440
 30
0.0
 11
128.528580
 21
19.458910
 31
0.0
 11
129.360160
 21
19.233968
 31
0.0
 11
129.951377
 21
18.642922
 31
0.0
 11
130.176410
 21
17.811440
 31
0.0
  0
LINE
  5
122
100
AcDbEntity
  8
Layer_1
 62
3
100
AcDbLine
 10
128.528580
 20
15.778030
 30
0.0
 11
124.268090
 21
15.778030
 31
0.0
  0
LINE
  5
123
100
AcDbEntity
  8
Layer_1
 62
3
100
AcDbLine
 10
126.395450
 20
127.711930
 30
0.0
 11
126.380650
 21
129.916790
 31
0.0
  0
LINE
  5
124
100
AcDbEntity
  8
Layer_1
 62
3
100
AcDbLine
 10
126.380650
 20
129.916790
 30
0.0
 11
122.602750
 21
129.916790
 31
0.0
  0
LINE
  5
125
100
AcDbEntity
  8
Layer_1
 62
3
100
AcDbLine
 10
122.602750
 20
129.916790
 30
0.0
 11
130.180070
 21
129.916790
 31
0.0
  0
LINE
  5
126
100
AcDbEntity
  8
Layer_1
 62
3
100
AcDbLine
 10
130.180070
 20
129.916790
 30
0.0
 11
130.173070
 21
129.916790
 31
0.0
  0
LINE
  5
127
100
AcDbEntity
  8
Layer_1
 62
3
100
AcDbLine
 10
130.173070
 20
129.916790
 30
0.0
 11
130.158570
 21
126.565400
 31
0.0
  0
SPLINE
  5
128
100
AcDbEntity
  8
Layer_1
 62
3
100
AcDbSpline
 70
0
 71
3
 72
10
 73
6
 74
4
 40
0.000000
 40
0.000000
 40
0.000000
 40
0.000000
 40
0.861395
 40
1.697382
 40
2.558848
 40
2.558848
 40
2.558848
 40
2.558848
 10
130.176410
 20
17.425500
 30
0.0
 10
130.131059
 20
17.136824
 30
0.0
 10
130.041695
 20
16.567987
 30
0.0
 10
129.386126
 20
15.912669
 30
0.0
 10
128.817275
 20
15.823356
 30
0.0
 10
128.528580
 20
15.778030
 30
0.0
 11
130.176410
 21
17.425500
 31
0.0
 11
129.951377
 21
16.594018
 31
0.0
 11
129.360160
 21
16.002972
 31
0.0
 11
128.528580
 21
15.778030
 31
0.0
  0
SPLINE
  5
129
100
AcDbEntity
  8
Layer_1
 62
7
100
AcDbSpline
 70
0
 71
3
 72
10
 73
6
 74
4
 40
0.000000
 40
0.000000
 40
0.000000
 40
0.000000
 40
18.640130
 40
36.753761
 40
55.426036
 40
55.426036
 40
55.426036
 40
55.426036
 10
191.277100
 20
314.614123
 30
0.0
 10
190.219329
 20
320.845775
 30
0.0
 10
188.133666
 20
333.133063
 30
0.0
 10
173.864092
 20
347.219940
 30
0.0
 10
161.537338
 20
349.138759
 30
0.0
 10
155.280362
 20
350.112739
 30
0.0
 11
191.277100
 21
314.614123
 31
0.0
 11
186.206403
 21
332.551305
 31
0.0
 11
173.315407
 21
345.276312
 31
0.0
 11
155.280362
 21
350.112739
 31
0.0
  0
SPLINE
  5
12a
100
AcDbEntity
  8
Layer_1
 62
7
100
AcDbSpline
 70
0
 71
3
 72
10
 73
6
 74
4
 40
0.000000
 40
0.000000
 40
0.000000
 40
0.000000
 40
18.672401
 40
36.786621
 40
55.427135
 40
55.427135
 40
55.427135
 40
55.427135
 10
155.280362
 20
350.112739
 30
0.0
 10
149.023386
 20
349.138560
 30
0.0
 10
136.696475
 20
347.219325
 30
0.0
 10
122.426847
 20
333.131889
 30
0.0
 10
120.341553
 20
320.844185
 30
0.0
 10
119.283977
 20
314.612359
 30
0.0
 11
155.280362
 21
350.112739
 31
0.0
 11
137.245330
 21
345.275777
 31
0.0
 11
124.354190
 21
332.550077
 31
0.0
 11
119.283977
 21
314.612359
 31
0.0
  0
SPLINE
  5
12b
100
AcDbEntity
  8
Layer_1
 62
7
100
AcDbSpline
 70
0
 71
3
 72
13
 73
9
 74
7
 40
0.000000
 40
0.000000
 40
0.000000
 40
0.000000
 40
18.640412
 40
36.754218
 40
55.426194
 40
74.098761
 40
92.212813
 40
110.853554
 40
110.853554
 40
110.853554
 40
110.853554
 10
119.283840
 20
313.611325
 30
0.0
 10
120.341655
 20
307.342223
 30
0.0
 10
122.427401
 20
294.981125
 30
0.0
 10
136.697038
 20
281.440296
 30
0.0
 10
155.280759
 20
276.423102
 30
0.0
 10
173.864665
 20
281.440408
 30
0.0
 10
188.134129
 20
294.982102
 30
0.0
 10
190.219392
 20
307.343480
 30
0.0
 10
191.276963
 20
313.612736
 30
0.0
 11
119.283840
 21
313.611325
 31
0.0
 11
124.354694
 21
295.673895
 31
0.0
 11
137.245847
 21
282.948796
 31
0.0
 11
155.280578
 21
278.112356
 31
0.0
 11
173.315845
 21
282.949083
 31
0.0
 11
186.206750
 21
295.674784
 31
0.0
 11
191.276963
 21
313.612736
 31
0.0
  0
SPLINE
  5
12c
100
AcDbEntity
  8
Layer_1
 62
7
100
AcDbSpline
 70
0
 71
3
 72
13
 73
9
 74
7
 40
0.000000
 40
0.000000
 40
0.000000
 40
0.000000
 40
18.640087
 40
36.753771
 40
55.426285
 40
74.098639
 40
92.212785
 40
110.852897
 40
110.852897
 40
110.852897
 40
110.852897
 10
191.276740
 20
180.520730
 30
0.0
 10
190.219155
 20
186.789771
 30
0.0
 10
188.133851
 20
199.150813
 30
0.0
 10
173.864275
 20
212.691853
 30
0.0
 10
155.280382
 20
217.708985
 30
0.0
 10
136.696488
 20
212.691456
 30
0.0
 10
122.426926
 20
199.150252
 30
0.0
 10
120.341569
 20
186.789065
 30
0.0
 10
119.283969
 20
180.520024
 30
0.0
 11
191.276740
 21
180.520730
 31
0.0
 11
186.206526
 21
198.458003
 31
0.0
 11
173.315622
 21
211.183181
 31
0.0
 11
155.280355
 21
216.019699
 31
0.0
 11
137.245323
 21
211.182919
 31
0.0
 11
124.354183
 21
198.457324
 31
0.0
 11
119.283969
 21
180.520024
 31
0.0
  0
SPLINE
  5
12d
100
AcDbEntity
  8
Layer_1
 62
7
100
AcDbSpline
 70
0
 71
3
 72
13
 73
9
 74
7
 40
0.000000
 40
0.000000
 40
0.000000
 40
0.000000
 40
18.641004
 40
36.755406
 40
55.428001
 40
74.100899
 40
92.215190
 40
110.856151
 40
110.856151
 40
110.856151
 40
110.856151
 10
119.284080
 20
179.520630
 30
0.0
 10
120.341539
 20
173.251250
 30
0.0
 10
122.426586
 20
160.889596
 30
0.0
 10
136.696306
 20
147.347768
 30
0.0
 10
155.280552
 20
142.330202
 30
0.0
 10
173.864850
 20
147.347654
 30
0.0
 10
188.134514
 20
160.889635
 30
0.0
 10
190.219447
 20
173.251255
 30
0.0
 10
191.276851
 20
179.520630
 30
0.0
 11
119.284080
 21
179.520630
 31
0.0
 11
124.354058
 21
161.582338
 31
0.0
 11
137.245198
 21
148.856376
 31
0.0
 11
155.280465
 21
144.019545
 31
0.0
 11
173.316046
 21
148.856376
 31
0.0
 11
186.207029
 21
161.582338
 31
0.0
 11
191.276851
 21
179.520630
 31
0.0
  0
SPLINE
  5
12e
100
AcDbEntity
  8
Layer_1
 62
7
100
AcDbSpline
 70
0
 71
3
 72
13
 73
9
 74
7
 40
0.000000
 40
0.000000
 40
0.000000
 40
0.000000
 40
16.287971
 40
32.118911
 40
48.438191
 40
64.758309
 40
80.589675
 40
96.877551
 40
96.877551
 40
96.877551
 40
96.877551
 10
186.776570
 20
60.052640
 30
0.0
 10
185.842846
 20
65.528602
 30
0.0
 10
184.001596
 20
76.326873
 30
0.0
 10
171.522522
 20
88.147775
 30
0.0
 10
155.280640
 20
92.527686
 30
0.0
 10
139.038629
 20
88.147693
 30
0.0
 10
126.559097
 20
76.326644
 30
0.0
 10
124.717901
 20
65.528232
 30
0.0
 10
123.784219
 20
60.052287
 30
0.0
 11
186.776570
 21
60.052640
 31
0.0
 11
182.320921
 21
75.719331
 31
0.0
 11
171.044511
 21
86.830642
 31
0.0
 11
155.280923
 21
91.052987
 31
0.0
 11
139.516513
 21
86.830472
 31
0.0
 11
128.239750
 21
75.718913
 31
0.0
 11
123.784219
 21
60.052287
 31
0.0
  0
LINE
  5
12f
100
AcDbEntity
  8
Layer_1
 62
7
100
AcDbLine
 10
114.341810
 20
60.053010
 30
0.0
 11
114.341810
 21
110.990920
 31
0.0
  0
LINE
  5
130
100
AcDbEntity
  8
Layer_1
 62
7
100
AcDbLine
 10
114.341810
 20
110.990920
 30
0.0
 11
153.914650
 21
110.990650
 31
0.0
  0
LINE
  5
131
100
AcDbEntity
  8
Layer_1
 62
7
100
AcDbLine
 10
153.914650
 20
110.990650
 30
0.0
 11
197.694370
 21
87.236350
 31
0.0
  0
LINE
  5
132
100
AcDbEntity
  8
Layer_1
 62
7
100
AcDbLine
 10
197.694370
 20
87.236350
 30
0.0
 11
197.694370
 21
60.053040
 31
0.0
  0
LINE
  5
133
100
AcDbEntity
  8
Layer_1
 62
7
100
AcDbLine
 10
197.694370
 20
59.053230
 30
0.0
 11
197.694370
 21
31.868510
 31
0.0
  0
LINE
  5
134
100
AcDbEntity
  8
Layer_1
 62
7
100
AcDbLine
 10
197.694370
 20
31.868510
 30
0.0
 11
153.914650
 21
8.114220
 31
0.0
  0
LINE
  5
135
100
AcDbEntity
  8
Layer_1
 62
7
100
AcDbLine
 10
153.914650
 20
8.114220
 30
0.0
 11
114.341810
 21
8.114220
 31
0.0
  0
LINE
  5
136
100
AcDbEntity
  8
Layer_1
 62
7
100
AcDbLine
 10
114.341810
 20
8.114220
 30
0.0
 11
114.341810
 21
59.053230
 31
0.0
  0
LINE
  5
137
100
AcDbEntity
  8
Layer_1
 62
7
100
AcDbLine
 10
115.047360
 20
180.520220
 30
0.0
 11
115.047360
 21
243.799116
 31
0.0
  0
LINE
  5
138
100
AcDbEntity
  8
Layer_1
 62
7
100
AcDbLine
 10
115.047360
 20
243.799116
 30
0.0
 11
153.516720
 21
243.799116
 31
0.0
  0
LINE
  5
139
100
AcDbEntity
  8
Layer_1
 62
7
100
AcDbLine
 10
153.516720
 20
243.799116
 30
0.0
 11
197.694370
 21
215.369816
 31
0.0
  0
LINE
  5
13a
100
AcDbEntity
  8
Layer_1
 62
7
100
AcDbLine
 10
197.694370
 20
215.369816
 30
0.0
 11
197.694370
 21
180.520620
 31
0.0
  0
LINE
  5
13b
100
AcDbEntity
  8
Layer_1
 62
7
100
AcDbLine
 10
197.694370
 20
179.520520
 30
0.0
 11
197.694370
 21
144.669620
 31
0.0
  0
LINE
  5
13c
100
AcDbEntity
  8
Layer_1
 62
7
100
AcDbLine
 10
197.694370
 20
144.669620
 30
0.0
 11
153.516720
 21
116.242720
 31
0.0
  0
LINE
  5
13d
100
AcDbEntity
  8
Layer_1
 62
7
100
AcDbLine
 10
153.516720
 20
116.242720
 30
0.0
 11
115.047360
 21
116.242720
 31
0.0
  0
LINE
  5
13e
100
AcDbEntity
  8
Layer_1
 62
7
100
AcDbLine
 10
115.047360
 20
116.242720
 30
0.0
 11
115.047360
 21
179.520820
 31
0.0
  0
LINE
  5
13f
100
AcDbEntity
  8
Layer_1
 62
7
100
AcDbLine
 10
115.047360
 20
314.613212
 30
0.0
 11
115.047360
 21
374.212514
 31
0.0
  0
LINE
  5
140
100
AcDbEntity
  8
Layer_1
 62
7
100
AcDbLine
 10
115.047360
 20
374.212514
 30
0.0
 11
153.516720
 21
374.212514
 31
0.0
  0
LINE
  5
141
100
AcDbEntity
  8
Layer_1
 62
7
100
AcDbLine
 10
153.516720
 20
374.212514
 30
0.0
 11
197.694370
 21
347.104414
 31
0.0
  0
LINE
  5
142
100
AcDbEntity
  8
Layer_1
 62
7
100
AcDbLine
 10
197.694370
 20
347.104414
 30
0.0
 11
197.694370
 21
314.613914
 31
0.0
  0
LINE
  5
143
100
AcDbEntity
  8
Layer_1
 62
7
100
AcDbLine
 10
197.694370
 20
313.611315
 30
0.0
 11
197.694370
 21
281.120516
 31
0.0
  0
LINE
  5
144
100
AcDbEntity
  8
Layer_1
 62
7
100
AcDbLine
 10
197.694370
 20
281.120516
 30
0.0
 11
153.516720
 21
254.012316
 31
0.0
  0
LINE
  5
145
100
AcDbEntity
  8
Layer_1
 62
7
100
AcDbLine
 10
153.516720
 20
254.012316
 30
0.0
 11
115.047360
 21
254.012316
 31
0.0
  0
LINE
  5
146
100
AcDbEntity
  8
Layer_1
 62
7
100
AcDbLine
 10
115.047360
 20
254.012316
 30
0.0
 11
115.047360
 21
313.612013
 31
0.0
  0
LINE
  5
147
100
AcDbEntity
  8
Layer_1
 62
3
100
AcDbLine
 10
21.593070
 20
274.977695
 30
0.0
 11
29.148512
 21
272.216855
 31
0.0
  0
LINE
  5
148
100
AcDbEntity
  8
Layer_1
 62
3
100
AcDbLine
 10
29.148512
 20
272.216855
 30
0.0
 11
29.148512
 21
276.285085
 31
0.0
  0
SPLINE
  5
149
100
AcDbEntity
  8
Layer_1
 62
7
100
AcDbSpline
 70
0
 71
3
 72
13
 73
9
 74
7
 40
0.000000
 40
0.000000
 40
0.000000
 40
0.000000
 40
16.287587
 40
32.118474
 40
48.438433
 40
64.758019
 40
80.589079
 40
96.877182
 40
96.877182
 40
96.877182
 40
96.877182
 10
123.784570
 20
59.052540
 30
0.0
 10
124.718209
 20
53.576676
 30
0.0
 10
126.559307
 20
42.778490
 30
0.0
 10
139.038865
 20
30.957858
 30
0.0
 10
155.280803
 20
26.578289
 30
0.0
 10
171.522764
 20
30.958045
 30
0.0
 10
184.002110
 20
42.779093
 30
0.0
 10
185.843017
 20
53.577544
 30
0.0
 10
186.776569
 20
59.053598
 30
0.0
 11
123.784570
 21
59.052540
 31
0.0
 11
128.240010
 21
43.386189
 31
0.0
 11
139.516603
 21
32.275139
 31
0.0
 11
155.280922
 21
28.052899
 31
0.0
 11
171.044823
 21
32.275257
 31
0.0
 11
182.321312
 21
43.386659
 31
0.0
 11
186.776569
 21
59.053598
 31
0.0
  0
LINE
  5
14a
100
AcDbEntity
  8
Layer_1
 62
3
100
AcDbLine
 10
21.593091
 20
269.505575
 30
0.0
 11
21.593091
 21
269.891515
 31
0.0
  0
SPLINE
  5
14b
100
AcDbEntity
  8
Layer_1
 62
3
100
AcDbSpline
 70
0
 71
3
 72
10
 73
6
 74
4
 40
0.000000
 40
0.000000
 40
0.000000
 40
0.000000
 40
0.860983
 40
1.696839
 40
2.558228
 40
2.558228
 40
2.558228
 40
2.558228
 10
23.240210
 20
267.858105
 30
0.0
 10
22.951683
 20
267.903454
 30
0.0
 10
22.383049
 20
267.992829
 30
0.0
 10
21.727793
 20
268.648128
 30
0.0
 10
21.638440
 20
269.216907
 30
0.0
 10
21.593091
 20
269.505575
 30
0.0
 11
23.240210
 21
267.858105
 31
0.0
 11
22.409131
 21
268.083047
 31
0.0
 11
21.818098
 21
268.674093
 31
0.0
 11
21.593091
 21
269.505575
 31
0.0
  0
LINE
  5
14c
100
AcDbEntity
  8
Layer_1
 62
3
100
AcDbLine
 10
23.240210
 20
271.538985
 30
0.0
 11
27.500707
 21
271.538985
 31
0.0
  0
SPLINE
  5
14d
100
AcDbEntity
  8
Layer_1
 62
3
100
AcDbSpline
 70
0
 71
3
 72
10
 73
6
 74
4
 40
0.000000
 40
0.000000
 40
0.000000
 40
0.000000
 40
0.861389
 40
1.697245
 40
2.558228
 40
2.558228
 40
2.558228
 40
2.558228
 10
21.593091
 20
269.891515
 30
0.0
 10
21.638440
 20
270.180183
 30
0.0
 10
21.727793
 20
270.748962
 30
0.0
 10
22.383049
 20
271.404261
 30
0.0
 10
22.951683
 20
271.493636
 30
0.0
 10
23.240210
 20
271.538985
 30
0.0
 11
21.593091
 21
269.891515
 31
0.0
 11
21.818098
 21
270.722997
 31
0.0
 11
22.409131
 21
271.314043
 31
0.0
 11
23.240210
 21
271.538985
 31
0.0
  0
LINE
  5
14e
100
AcDbEntity
  8
Layer_1
 62
3
100
AcDbLine
 10
29.148532
 20
269.891515
 30
0.0
 11
29.148532
 21
269.505575
 31
0.0
  0
SPLINE
  5
14f
100
AcDbEntity
  8
Layer_1
 62
3
100
AcDbSpline
 70
0
 71
3
 72
10
 73
6
 74
4
 40
0.000000
 40
0.000000
 40
0.000000
 40
0.000000
 40
0.861462
 40
1.697448
 40
2.558843
 40
2.558843
 40
2.558843
 40
2.558843
 10
27.500707
 20
271.538985
 30
0.0
 10
27.789401
 20
271.493658
 30
0.0
 10
28.358250
 20
271.404346
 30
0.0
 10
29.013817
 20
270.749028
 30
0.0
 10
29.103181
 20
270.180191
 30
0.0
 10
29.148532
 20
269.891515
 30
0.0
 11
27.500707
 21
271.538985
 31
0.0
 11
28.332283
 21
271.314043
 31
0.0
 11
28.923499
 21
270.722997
 31
0.0
 11
29.148532
 21
269.891515
 31
0.0
  0
LINE
  5
150
100
AcDbEntity
  8
Layer_1
 62
3
100
AcDbLine
 10
27.500707
 20
267.858105
 30
0.0
 11
23.240210
 21
267.858105
 31
0.0
  0
SPLINE
  5
151
100
AcDbEntity
  8
Layer_1
 62
3
100
AcDbSpline
 70
0
 71
3
 72
10
 73
6
 74
4
 40
0.000000
 40
0.000000
 40
0.000000
 40
0.000000
 40
0.861395
 40
1.697381
 40
2.558843
 40
2.558843
 40
2.558843
 40
2.558843
 10
29.148532
 20
269.505575
 30
0.0
 10
29.103181
 20
269.216899
 30
0.0
 10
29.013817
 20
268.648062
 30
0.0
 10
28.358250
 20
267.992744
 30
0.0
 10
27.789401
 20
267.903432
 30
0.0
 10
27.500707
 20
267.858105
 30
0.0
 11
29.148532
 21
269.505575
 31
0.0
 11
28.923499
 21
268.674093
 31
0.0
 11
28.332283
 21
268.083047
 31
0.0
 11
27.500707
 21
267.858105
 31
0.0
  0
LINE
  5
152
100
AcDbEntity
  8
Layer_1
 62
3
100
AcDbLine
 10
21.563799
 20
265.535405
 30
0.0
 11
21.563799
 21
266.417345
 31
0.0
  0
LINE
  5
153
100
AcDbEntity
  8
Layer_1
 62
3
100
AcDbLine
 10
21.563799
 20
266.417345
 30
0.0
 11
29.148521
 21
266.417345
 31
0.0
  0
LINE
  5
154
100
AcDbEntity
  8
Layer_1
 62
3
100
AcDbLine
 10
29.148521
 20
266.417345
 30
0.0
 11
29.148521
 21
265.535405
 31
0.0
  0
SPLINE
  5
155
100
AcDbEntity
  8
Layer_1
 62
3
100
AcDbSpline
 70
0
 71
3
 72
13
 73
9
 74
7
 40
0.000000
 40
0.000000
 40
0.000000
 40
0.000000
 40
0.991498
 40
1.953475
 40
2.944972
 40
3.936468
 40
4.898445
 40
5.889943
 40
5.889943
 40
5.889943
 40
5.889943
 10
25.356160
 20
265.535405
 30
0.0
 10
25.304026
 20
265.201113
 30
0.0
 10
25.201311
 20
264.542483
 30
0.0
 10
24.446946
 20
263.817360
 30
0.0
 10
23.459979
 20
263.548812
 30
0.0
 10
22.473013
 20
263.817360
 30
0.0
 10
21.718648
 20
264.542483
 30
0.0
 10
21.615933
 20
265.201113
 30
0.0
 10
21.563799
 20
265.535405
 30
0.0
 11
25.356160
 21
265.535405
 31
0.0
 11
25.097313
 21
264.578292
 31
0.0
 11
24.417092
 21
263.898072
 31
0.0
 11
23.459979
 21
263.639225
 31
0.0
 11
22.502867
 21
263.898072
 31
0.0
 11
21.822646
 21
264.578292
 31
0.0
 11
21.563799
 21
265.535405
 31
0.0
  0
LINE
  5
156
100
AcDbEntity
  8
Layer_1
 62
3
100
AcDbLine
 10
25.356160
 20
265.535405
 30
0.0
 11
25.356160
 21
266.417345
 31
0.0
  0
LINE
  5
157
100
AcDbEntity
  8
Layer_1
 62
3
100
AcDbLine
 10
21.593070
 20
136.071110
 30
0.0
 11
29.148512
 21
133.310624
 31
0.0
  0
LINE
  5
158
100
AcDbEntity
  8
Layer_1
 62
3
100
AcDbLine
 10
29.148512
 20
133.310624
 30
0.0
 11
29.148512
 21
137.378857
 31
0.0
  0
SPLINE
  5
159
100
AcDbEntity
  8
Layer_1
 62
3
100
AcDbSpline
 70
0
 71
3
 72
13
 73
9
 74
7
 40
0.000000
 40
0.000000
 40
0.000000
 40
0.000000
 40
0.991498
 40
1.953475
 40
2.944971
 40
3.936468
 40
4.898445
 40
5.889943
 40
5.889943
 40
5.889943
 40
5.889943
 10
29.148521
 20
265.535405
 30
0.0
 10
29.096387
 20
265.201113
 30
0.0
 10
28.993672
 20
264.542483
 30
0.0
 10
28.239307
 20
263.817360
 30
0.0
 10
27.252341
 20
263.548812
 30
0.0
 10
26.265374
 20
263.817360
 30
0.0
 10
25.511009
 20
264.542483
 30
0.0
 10
25.408294
 20
265.201113
 30
0.0
 10
25.356160
 20
265.535405
 30
0.0
 11
29.148521
 21
265.535405
 31
0.0
 11
28.889674
 21
264.578292
 31
0.0
 11
28.209453
 21
263.898072
 31
0.0
 11
27.252341
 21
263.639225
 31
0.0
 11
26.295228
 21
263.898072
 31
0.0
 11
25.615007
 21
264.578292
 31
0.0
 11
25.356160
 21
265.535405
 31
0.0
  0
LINE
  5
15a
100
AcDbEntity
  8
Layer_1
 62
3
100
AcDbLine
 10
21.593091
 20
130.598992
 30
0.0
 11
21.593091
 21
130.984931
 31
0.0
  0
SPLINE
  5
15b
100
AcDbEntity
  8
Layer_1
 62
3
100
AcDbSpline
 70
0
 71
3
 72
10
 73
6
 74
4
 40
0.000000
 40
0.000000
 40
0.000000
 40
0.000000
 40
0.860983
 40
1.696839
 40
2.558230
 40
2.558230
 40
2.558230
 40
2.558230
 10
23.240210
 20
128.951520
 30
0.0
 10
22.951683
 20
128.996869
 30
0.0
 10
22.383049
 20
129.086244
 30
0.0
 10
21.727792
 20
129.741543
 30
0.0
 10
21.638439
 20
130.310323
 30
0.0
 10
21.593091
 20
130.598992
 30
0.0
 11
23.240210
 21
128.951520
 31
0.0
 11
22.409131
 21
129.176462
 31
0.0
 11
21.818097
 21
129.767508
 31
0.0
 11
21.593091
 21
130.598992
 31
0.0
  0
LINE
  5
15c
100
AcDbEntity
  8
Layer_1
 62
3
100
AcDbLine
 10
23.240210
 20
132.632403
 30
0.0
 11
27.500707
 21
132.632403
 31
0.0
  0
SPLINE
  5
15d
100
AcDbEntity
  8
Layer_1
 62
3
100
AcDbSpline
 70
0
 71
3
 72
10
 73
6
 74
4
 40
0.000000
 40
0.000000
 40
0.000000
 40
0.000000
 40
0.861542
 40
1.697343
 40
2.558306
 40
2.558306
 40
2.558306
 40
2.558306
 10
21.593091
 20
130.984931
 30
0.0
 10
21.638423
 20
131.273659
 30
0.0
 10
21.727733
 20
131.842489
 30
0.0
 10
22.383069
 20
132.497765
 30
0.0
 10
22.951686
 20
132.587082
 30
0.0
 10
23.240210
 20
132.632403
 30
0.0
 11
21.593091
 21
130.984931
 31
0.0
 11
21.818097
 21
131.816572
 31
0.0
 11
22.409131
 21
132.407540
 31
0.0
 11
23.240210
 21
132.632403
 31
0.0
  0
LINE
  5
15e
100
AcDbEntity
  8
Layer_1
 62
3
100
AcDbLine
 10
29.148532
 20
130.984931
 30
0.0
 11
29.148532
 21
130.598992
 31
0.0
  0
SPLINE
  5
15f
100
AcDbEntity
  8
Layer_1
 62
3
100
AcDbSpline
 70
0
 71
3
 72
10
 73
6
 74
4
 40
0.000000
 40
0.000000
 40
0.000000
 40
0.000000
 40
0.861441
 40
1.697372
 40
2.558921
 40
2.558921
 40
2.558921
 40
2.558921
 10
27.500707
 20
132.632403
 30
0.0
 10
27.789398
 20
132.587105
 30
0.0
 10
28.358231
 20
132.497850
 30
0.0
 10
29.013876
 20
131.842555
 30
0.0
 10
29.103197
 20
131.273667
 30
0.0
 10
29.148532
 20
130.984931
 30
0.0
 11
27.500707
 21
132.632403
 31
0.0
 11
28.332283
 21
132.407540
 31
0.0
 11
28.923499
 21
131.816572
 31
0.0
 11
29.148532
 21
130.984931
 31
0.0
  0
LINE
  5
160
100
AcDbEntity
  8
Layer_1
 62
3
100
AcDbLine
 10
27.500707
 20
128.951520
 30
0.0
 11
23.240210
 21
128.951520
 31
0.0
  0
LINE
  5
161
100
AcDbEntity
  8
Layer_1
 62
3
100
AcDbLine
 10
21.593070
 20
20.492010
 30
0.0
 11
29.148512
 21
17.731170
 31
0.0
  0
LINE
  5
162
100
AcDbEntity
  8
Layer_1
 62
3
100
AcDbLine
 10
29.148512
 20
17.731170
 30
0.0
 11
29.148512
 21
21.799400
 31
0.0
  0
SPLINE
  5
163
100
AcDbEntity
  8
Layer_1
 62
3
100
AcDbSpline
 70
0
 71
3
 72
10
 73
6
 74
4
 40
0.000000
 40
0.000000
 40
0.000000
 40
0.000000
 40
0.861398
 40
1.697384
 40
2.558846
 40
2.558846
 40
2.558846
 40
2.558846
 10
29.148532
 20
130.598992
 30
0.0
 10
29.103181
 20
130.310315
 30
0.0
 10
29.013817
 20
129.741478
 30
0.0
 10
28.358251
 20
129.086159
 30
0.0
 10
27.789401
 20
128.996846
 30
0.0
 10
27.500707
 20
128.951520
 30
0.0
 11
29.148532
 21
130.598992
 31
0.0
 11
28.923499
 21
129.767508
 31
0.0
 11
28.332283
 21
129.176462
 31
0.0
 11
27.500707
 21
128.951520
 31
0.0
  0
LINE
  5
164
100
AcDbEntity
  8
Layer_1
 62
3
100
AcDbLine
 10
21.593091
 20
15.019780
 30
0.0
 11
21.593091
 21
15.405720
 31
0.0
  0
SPLINE
  5
165
100
AcDbEntity
  8
Layer_1
 62
3
100
AcDbSpline
 70
0
 71
3
 72
10
 73
6
 74
4
 40
0.000000
 40
0.000000
 40
0.000000
 40
0.000000
 40
0.860983
 40
1.696839
 40
2.558228
 40
2.558228
 40
2.558228
 40
2.558228
 10
23.240210
 20
13.372310
 30
0.0
 10
22.951683
 20
13.417659
 30
0.0
 10
22.383049
 20
13.507034
 30
0.0
 10
21.727793
 20
14.162333
 30
0.0
 10
21.638440
 20
14.731112
 30
0.0
 10
21.593091
 20
15.019780
 30
0.0
 11
23.240210
 21
13.372310
 31
0.0
 11
22.409131
 21
13.597252
 31
0.0
 11
21.818098
 21
14.188298
 31
0.0
 11
21.593091
 21
15.019780
 31
0.0
  0
LINE
  5
166
100
AcDbEntity
  8
Layer_1
 62
3
100
AcDbLine
 10
23.240210
 20
17.053190
 30
0.0
 11
27.500707
 21
17.053190
 31
0.0
  0
SPLINE
  5
167
100
AcDbEntity
  8
Layer_1
 62
3
100
AcDbSpline
 70
0
 71
3
 72
10
 73
6
 74
4
 40
0.000000
 40
0.000000
 40
0.000000
 40
0.000000
 40
0.861389
 40
1.697245
 40
2.558228
 40
2.558228
 40
2.558228
 40
2.558228
 10
21.593091
 20
15.405720
 30
0.0
 10
21.638440
 20
15.694388
 30
0.0
 10
21.727793
 20
16.263167
 30
0.0
 10
22.383049
 20
16.918466
 30
0.0
 10
22.951683
 20
17.007841
 30
0.0
 10
23.240210
 20
17.053190
 30
0.0
 11
21.593091
 21
15.405720
 31
0.0
 11
21.818098
 21
16.237202
 31
0.0
 11
22.409131
 21
16.828248
 31
0.0
 11
23.240210
 21
17.053190
 31
0.0
  0
LINE
  5
168
100
AcDbEntity
  8
Layer_1
 62
3
100
AcDbLine
 10
29.148532
 20
15.405720
 30
0.0
 11
29.148532
 21
15.019780
 31
0.0
  0
SPLINE
  5
169
100
AcDbEntity
  8
Layer_1
 62
3
100
AcDbSpline
 70
0
 71
3
 72
10
 73
6
 74
4
 40
0.000000
 40
0.000000
 40
0.000000
 40
0.000000
 40
0.861462
 40
1.697448
 40
2.558843
 40
2.558843
 40
2.558843
 40
2.558843
 10
27.500707
 20
17.053190
 30
0.0
 10
27.789401
 20
17.007863
 30
0.0
 10
28.358250
 20
16.918551
 30
0.0
 10
29.013817
 20
16.263233
 30
0.0
 10
29.103181
 20
15.694396
 30
0.0
 10
29.148532
 20
15.405720
 30
0.0
 11
27.500707
 21
17.053190
 31
0.0
 11
28.332283
 21
16.828248
 31
0.0
 11
28.923499
 21
16.237202
 31
0.0
 11
29.148532
 21
15.405720
 31
0.0
  0
LINE
  5
16a
100
AcDbEntity
  8
Layer_1
 62
3
100
AcDbLine
 10
27.500707
 20
13.372310
 30
0.0
 11
23.240210
 21
13.372310
 31
0.0
  0
LINE
  5
16b
100
AcDbEntity
  8
Layer_1
 62
3
100
AcDbLine
 10
25.367510
 20
125.306300
 30
0.0
 11
25.352690
 21
127.511160
 31
0.0
  0
LINE
  5
16c
100
AcDbEntity
  8
Layer_1
 62
3
100
AcDbLine
 10
25.352690
 20
127.511160
 30
0.0
 11
21.574793
 21
127.511160
 31
0.0
  0
LINE
  5
16d
100
AcDbEntity
  8
Layer_1
 62
3
100
AcDbLine
 10
21.574793
 20
127.511160
 30
0.0
 11
29.152460
 21
127.511160
 31
0.0
  0
LINE
  5
16e
100
AcDbEntity
  8
Layer_1
 62
3
100
AcDbLine
 10
29.152460
 20
127.511160
 30
0.0
 11
29.145060
 21
127.511160
 31
0.0
  0
LINE
  5
16f
100
AcDbEntity
  8
Layer_1
 62
3
100
AcDbLine
 10
29.145060
 20
127.511160
 30
0.0
 11
29.130600
 21
124.159770
 31
0.0
  0
SPLINE
  5
170
100
AcDbEntity
  8
Layer_1
 62
3
100
AcDbSpline
 70
0
 71
3
 72
10
 73
6
 74
4
 40
0.000000
 40
0.000000
 40
0.000000
 40
0.000000
 40
0.861395
 40
1.697381
 40
2.558843
 40
2.558843
 40
2.558843
 40
2.558843
 10
29.148532
 20
15.019780
 30
0.0
 10
29.103181
 20
14.731104
 30
0.0
 10
29.013817
 20
14.162267
 30
0.0
 10
28.358250
 20
13.506949
 30
0.0
 10
27.789401
 20
13.417637
 30
0.0
 10
27.500707
 20
13.372310
 30
0.0
 11
29.148532
 21
15.019780
 31
0.0
 11
28.923499
 21
14.188298
 31
0.0
 11
28.332283
 21
13.597252
 31
0.0
 11
27.500707
 21
13.372310
 31
0.0
  0
SPLINE
  5
171
100
AcDbEntity
  8
Layer_1
 62
7
100
AcDbSpline
 70
0
 71
3
 72
10
 73
6
 74
4
 40
0.000000
 40
0.000000
 40
0.000000
 40
0.000000
 40
18.640130
 40
36.753761
 40
55.426036
 40
55.426036
 40
55.426036
 40
55.426036
 10
90.249220
 20
312.208493
 30
0.0
 10
89.191449
 20
318.440145
 30
0.0
 10
87.105786
 20
330.727433
 30
0.0
 10
72.836212
 20
344.814310
 30
0.0
 10
60.509458
 20
346.733129
 30
0.0
 10
54.252482
 20
347.707109
 30
0.0
 11
90.249220
 21
312.208493
 31
0.0
 11
85.178523
 21
330.145675
 31
0.0
 11
72.287527
 21
342.870682
 31
0.0
 11
54.252482
 21
347.707109
 31
0.0
  0
SPLINE
  5
172
100
AcDbEntity
  8
Layer_1
 62
7
100
AcDbSpline
 70
0
 71
3
 72
10
 73
6
 74
4
 40
0.000000
 40
0.000000
 40
0.000000
 40
0.000000
 40
18.672401
 40
36.786621
 40
55.427135
 40
55.427135
 40
55.427135
 40
55.427135
 10
54.252482
 20
347.707109
 30
0.0
 10
47.995506
 20
346.732930
 30
0.0
 10
35.668595
 20
344.813695
 30
0.0
 10
21.398967
 20
330.726259
 30
0.0
 10
19.313673
 20
318.438555
 30
0.0
 10
18.256097
 20
312.206729
 30
0.0
 11
54.252482
 21
347.707109
 31
0.0
 11
36.217450
 21
342.870147
 31
0.0
 11
23.326310
 21
330.144447
 31
0.0
 11
18.256097
 21
312.206729
 31
0.0
  0
SPLINE
  5
173
100
AcDbEntity
  8
Layer_1
 62
7
100
AcDbSpline
 70
0
 71
3
 72
13
 73
9
 74
7
 40
0.000000
 40
0.000000
 40
0.000000
 40
0.000000
 40
18.640412
 40
36.754218
 40
55.426194
 40
74.098761
 40
92.212813
 40
110.853554
 40
110.853554
 40
110.853554
 40
110.853554
 10
18.256023
 20
311.205590
 30
0.0
 10
19.313838
 20
304.936488
 30
0.0
 10
21.399584
 20
292.575390
 30
0.0
 10
35.669221
 20
279.034561
 30
0.0
 10
54.252942
 20
274.017367
 30
0.0
 10
72.836848
 20
279.034673
 30
0.0
 10
87.106312
 20
292.576367
 30
0.0
 10
89.191575
 20
304.937745
 30
0.0
 10
90.249146
 20
311.207001
 30
0.0
 11
18.256023
 21
311.205590
 31
0.0
 11
23.326877
 21
293.268160
 31
0.0
 11
36.218030
 21
280.543061
 31
0.0
 11
54.252761
 21
275.706621
 31
0.0
 11
72.288028
 21
280.543348
 31
0.0
 11
85.178933
 21
293.269049
 31
0.0
 11
90.249146
 21
311.207001
 31
0.0
  0
SPLINE
  5
174
100
AcDbEntity
  8
Layer_1
 62
7
100
AcDbSpline
 70
0
 71
3
 72
13
 73
9
 74
7
 40
0.000000
 40
0.000000
 40
0.000000
 40
0.000000
 40
18.640087
 40
36.753771
 40
55.426285
 40
74.098639
 40
92.212785
 40
110.852897
 40
110.852897
 40
110.852897
 40
110.852897
 10
90.248850
 20
178.115100
 30
0.0
 10
89.191265
 20
184.384141
 30
0.0
 10
87.105961
 20
196.745183
 30
0.0
 10
72.836385
 20
210.286223
 30
0.0
 10
54.252492
 20
215.303355
 30
0.0
 10
35.668598
 20
210.285826
 30
0.0
 10
21.399036
 20
196.744622
 30
0.0
 10
19.313679
 20
184.383435
 30
0.0
 10
18.256079
 20
178.114394
 30
0.0
 11
90.248850
 21
178.115100
 31
0.0
 11
85.178636
 21
196.052373
 31
0.0
 11
72.287732
 21
208.777551
 31
0.0
 11
54.252465
 21
213.614069
 31
0.0
 11
36.217433
 21
208.777289
 31
0.0
 11
23.326293
 21
196.051694
 31
0.0
 11
18.256079
 21
178.114394
 31
0.0
  0
SPLINE
  5
175
100
AcDbEntity
  8
Layer_1
 62
7
100
AcDbSpline
 70
0
 71
3
 72
13
 73
9
 74
7
 40
0.000000
 40
0.000000
 40
0.000000
 40
0.000000
 40
18.641004
 40
36.755406
 40
55.428001
 40
74.100899
 40
92.215190
 40
110.856151
 40
110.856151
 40
110.856151
 40
110.856151
 10
18.256153
 20
177.115000
 30
0.0
 10
19.313612
 20
170.845620
 30
0.0
 10
21.398659
 20
158.483966
 30
0.0
 10
35.668379
 20
144.942138
 30
0.0
 10
54.252625
 20
139.924572
 30
0.0
 10
72.836923
 20
144.942024
 30
0.0
 10
87.106587
 20
158.484005
 30
0.0
 10
89.191520
 20
170.845625
 30
0.0
 10
90.248924
 20
177.115000
 30
0.0
 11
18.256153
 21
177.115000
 31
0.0
 11
23.326131
 21
159.176708
 31
0.0
 11
36.217271
 21
146.450746
 31
0.0
 11
54.252538
 21
141.613915
 31
0.0
 11
72.288119
 21
146.450746
 31
0.0
 11
85.179102
 21
159.176708
 31
0.0
 11
90.248924
 21
177.115000
 31
0.0
  0
SPLINE
  5
176
100
AcDbEntity
  8
Layer_1
 62
7
100
AcDbSpline
 70
0
 71
3
 72
13
 73
9
 74
7
 40
0.000000
 40
0.000000
 40
0.000000
 40
0.000000
 40
16.287971
 40
32.118911
 40
48.438191
 40
64.758309
 40
80.589675
 40
96.877551
 40
96.877551
 40
96.877551
 40
96.877551
 10
85.748690
 20
57.647000
 30
0.0
 10
84.814966
 20
63.122962
 30
0.0
 10
82.973716
 20
73.921233
 30
0.0
 10
70.494642
 20
85.742135
 30
0.0
 10
54.252760
 20
90.122046
 30
0.0
 10
38.010749
 20
85.742053
 30
0.0
 10
25.531217
 20
73.921004
 30
0.0
 10
23.690021
 20
63.122592
 30
0.0
 10
22.756339
 20
57.646647
 30
0.0
 11
85.748690
 21
57.647000
 31
0.0
 11
81.293041
 21
73.313691
 31
0.0
 11
70.016631
 21
84.425002
 31
0.0
 11
54.253043
 21
88.647347
 31
0.0
 11
38.488633
 21
84.424832
 31
0.0
 11
27.211870
 21
73.313273
 31
0.0
 11
22.756339
 21
57.646647
 31
0.0
  0
LINE
  5
177
100
AcDbEntity
  8
Layer_1
 62
7
100
AcDbLine
 10
13.313923
 20
57.647180
 30
0.0
 11
13.313923
 21
108.585490
 31
0.0
  0
LINE
  5
178
100
AcDbEntity
  8
Layer_1
 62
7
100
AcDbLine
 10
13.313923
 20
108.585490
 30
0.0
 11
52.886770
 21
108.585220
 31
0.0
  0
LINE
  5
179
100
AcDbEntity
  8
Layer_1
 62
7
100
AcDbLine
 10
52.886770
 20
108.585220
 30
0.0
 11
96.666490
 21
84.830920
 31
0.0
  0
LINE
  5
17a
100
AcDbEntity
  8
Layer_1
 62
7
100
AcDbLine
 10
96.666490
 20
84.830920
 30
0.0
 11
96.666490
 21
57.647210
 31
0.0
  0
LINE
  5
17b
100
AcDbEntity
  8
Layer_1
 62
7
100
AcDbLine
 10
96.666490
 20
56.647480
 30
0.0
 11
96.666490
 21
29.463080
 31
0.0
  0
LINE
  5
17c
100
AcDbEntity
  8
Layer_1
 62
7
100
AcDbLine
 10
96.666490
 20
29.463080
 30
0.0
 11
52.886770
 21
5.708790
 31
0.0
  0
LINE
  5
17d
100
AcDbEntity
  8
Layer_1
 62
7
100
AcDbLine
 10
52.886770
 20
5.708790
 30
0.0
 11
13.313923
 21
5.708790
 31
0.0
  0
LINE
  5
17e
100
AcDbEntity
  8
Layer_1
 62
7
100
AcDbLine
 10
13.313923
 20
5.708790
 30
0.0
 11
13.313923
 21
56.647480
 31
0.0
  0
LINE
  5
17f
100
AcDbEntity
  8
Layer_1
 62
7
100
AcDbLine
 10
14.019483
 20
178.114790
 30
0.0
 11
14.019483
 21
241.393685
 31
0.0
  0
LINE
  5
180
100
AcDbEntity
  8
Layer_1
 62
7
100
AcDbLine
 10
14.019483
 20
241.393685
 30
0.0
 11
52.488830
 21
241.393685
 31
0.0
  0
LINE
  5
181
100
AcDbEntity
  8
Layer_1
 62
7
100
AcDbLine
 10
52.488830
 20
241.393685
 30
0.0
 11
96.666490
 21
212.964385
 31
0.0
  0
LINE
  5
182
100
AcDbEntity
  8
Layer_1
 62
7
100
AcDbLine
 10
96.666490
 20
212.964385
 30
0.0
 11
96.666490
 21
178.115190
 31
0.0
  0
LINE
  5
183
100
AcDbEntity
  8
Layer_1
 62
7
100
AcDbLine
 10
96.666490
 20
177.115090
 30
0.0
 11
96.666490
 21
142.264190
 31
0.0
  0
LINE
  5
184
100
AcDbEntity
  8
Layer_1
 62
7
100
AcDbLine
 10
96.666490
 20
142.264190
 30
0.0
 11
52.488830
 21
113.837290
 31
0.0
  0
LINE
  5
185
100
AcDbEntity
  8
Layer_1
 62
7
100
AcDbLine
 10
52.488830
 20
113.837290
 30
0.0
 11
14.019483
 21
113.837290
 31
0.0
  0
LINE
  5
186
100
AcDbEntity
  8
Layer_1
 62
7
100
AcDbLine
 10
14.019483
 20
113.837290
 30
0.0
 11
14.019483
 21
177.115390
 31
0.0
  0
LINE
  5
187
100
AcDbEntity
  8
Layer_1
 62
7
100
AcDbLine
 10
14.019483
 20
312.207387
 30
0.0
 11
14.019483
 21
371.807088
 31
0.0
  0
LINE
  5
188
100
AcDbEntity
  8
Layer_1
 62
7
100
AcDbLine
 10
14.019483
 20
371.807088
 30
0.0
 11
52.488830
 21
371.807088
 31
0.0
  0
LINE
  5
189
100
AcDbEntity
  8
Layer_1
 62
7
100
AcDbLine
 10
52.488830
 20
371.807088
 30
0.0
 11
96.666490
 21
344.698988
 31
0.0
  0
LINE
  5
18a
100
AcDbEntity
  8
Layer_1
 62
7
100
AcDbLine
 10
96.666490
 20
344.698988
 30
0.0
 11
96.666490
 21
312.208088
 31
0.0
  0
LINE
  5
18b
100
AcDbEntity
  8
Layer_1
 62
7
100
AcDbLine
 10
96.666490
 20
311.205587
 30
0.0
 11
96.666490
 21
278.715085
 31
0.0
  0
LINE
  5
18c
100
AcDbEntity
  8
Layer_1
 62
7
100
AcDbLine
 10
96.666490
 20
278.715085
 30
0.0
 11
52.488830
 21
251.606885
 31
0.0
  0
LINE
  5
18d
100
AcDbEntity
  8
Layer_1
 62
7
100
AcDbLine
 10
52.488830
 20
251.606885
 30
0.0
 11
14.019483
 21
251.606885
 31
0.0
  0
LINE
  5
18e
100
AcDbEntity
  8
Layer_1
 62
7
100
AcDbLine
 10
14.019483
 20
251.606885
 30
0.0
 11
14.019483
 21
311.206288
 31
0.0
  0
LINE
  5
18f
100
AcDbEntity
  8
Layer_1
 62
1
100
AcDbLine
 10
405.988800
 20
237.992309
 30
0.0
 11
380.911458
 21
242.414121
 31
0.0
  0
LINE
  5
190
100
AcDbEntity
  8
Layer_1
 62
1
100
AcDbLine
 10
447.654594
 20
346.285050
 30
0.0
 11
409.766769
 21
237.326212
 31
0.0
  0
LINE
  5
191
100
AcDbEntity
  8
Layer_1
 62
1
100
AcDbLine
 10
409.766769
 20
237.326212
 30
0.0
 11
368.647114
 21
96.400832
 31
0.0
  0
LINE
  5
192
100
AcDbEntity
  8
Layer_1
 62
1
100
AcDbLine
 10
368.647114
 20
96.400832
 30
0.0
 11
367.299962
 21
88.760752
 31
0.0
  0
LINE
  5
193
100
AcDbEntity
  8
Layer_1
 62
1
100
AcDbLine
 10
367.422941
 20
89.457340
 30
0.0
 11
368.647206
 21
96.400491
 31
0.0
  0
LINE
  5
194
100
AcDbEntity
  8
Layer_1
 62
1
100
AcDbLine
 10
368.647206
 20
96.400491
 30
0.0
 11
377.630737
 21
242.992702
 31
0.0
  0
LINE
  5
195
100
AcDbEntity
  8
Layer_1
 62
1
100
AcDbLine
 10
377.630737
 20
242.992702
 30
0.0
 11
379.878259
 21
358.942654
 31
0.0
  0
LINE
  5
196
100
AcDbEntity
  8
Layer_1
 62
7
100
AcDbLine
 10
373.088482
 20
93.146343
 30
0.0
 11
366.779039
 21
85.805645
 31
0.0
  0
LINE
  5
197
100
AcDbEntity
  8
Layer_1
 62
7
100
AcDbLine
 10
366.779039
 20
85.805645
 30
0.0
 11
363.360768
 21
94.861602
 31
0.0
  0
LINE
  5
198
100
AcDbEntity
  8
Layer_1
 62
7
100
AcDbLine
 10
363.360768
 20
94.861602
 30
0.0
 11
369.284662
 21
244.411325
 31
0.0
  0
LINE
  5
199
100
AcDbEntity
  8
Layer_1
 62
7
100
AcDbLine
 10
369.284662
 20
244.411325
 30
0.0
 11
373.981411
 21
362.992558
 31
0.0
  0
LINE
  5
19a
100
AcDbEntity
  8
Layer_1
 62
7
100
AcDbLine
 10
374.972601
 20
362.817785
 30
0.0
 11
454.814530
 21
348.739498
 31
0.0
  0
LINE
  5
19b
100
AcDbEntity
  8
Layer_1
 62
7
100
AcDbLine
 10
454.814530
 20
348.739498
 30
0.0
 11
373.396217
 21
94.109437
 31
0.0
  0
LINE
  5
19c
100
AcDbEntity
  8
Layer_1
 62
1
100
AcDbLine
 10
437.615302
 20
139.510622
 30
0.0
 11
462.692644
 21
135.088810
 31
0.0
  0
LINE
  5
19d
100
AcDbEntity
  8
Layer_1
 62
1
100
AcDbLine
 10
395.949508
 20
31.217881
 30
0.0
 11
433.837333
 21
140.176719
 31
0.0
  0
LINE
  5
19e
100
AcDbEntity
  8
Layer_1
 62
1
100
AcDbLine
 10
433.837333
 20
140.176719
 30
0.0
 11
474.956988
 21
281.102099
 31
0.0
  0
LINE
  5
19f
100
AcDbEntity
  8
Layer_1
 62
1
100
AcDbLine
 10
474.956988
 20
281.102099
 30
0.0
 11
476.304141
 21
288.742179
 31
0.0
  0
LINE
  5
1a0
100
AcDbEntity
  8
Layer_1
 62
1
100
AcDbLine
 10
476.181161
 20
288.045591
 30
0.0
 11
474.956896
 21
281.102440
 31
0.0
  0
LINE
  5
1a1
100
AcDbEntity
  8
Layer_1
 62
1
100
AcDbLine
 10
474.956896
 20
281.102440
 30
0.0
 11
465.973366
 21
134.510229
 31
0.0
  0
LINE
  5
1a2
100
AcDbEntity
  8
Layer_1
 62
1
100
AcDbLine
 10
465.973366
 20
134.510229
 30
0.0
 11
463.725843
 21
18.560277
 31
0.0
  0
LINE
  5
1a3
100
AcDbEntity
  8
Layer_1
 62
7
100
AcDbLine
 10
470.515620
 20
284.356588
 30
0.0
 11
476.825064
 21
291.697286
 31
0.0
  0
LINE
  5
1a4
100
AcDbEntity
  8
Layer_1
 62
7
100
AcDbLine
 10
476.825064
 20
291.697286
 30
0.0
 11
480.243334
 21
282.641329
 31
0.0
  0
LINE
  5
1a5
100
AcDbEntity
  8
Layer_1
 62
7
100
AcDbLine
 10
480.243334
 20
282.641329
 30
0.0
 11
474.319440
 21
133.091606
 31
0.0
  0
LINE
  5
1a6
100
AcDbEntity
  8
Layer_1
 62
7
100
AcDbLine
 10
474.319440
 20
133.091606
 30
0.0
 11
469.622691
 21
14.510373
 31
0.0
  0
LINE
  5
1a7
100
AcDbEntity
  8
Layer_1
 62
7
100
AcDbLine
 10
468.631502
 20
14.685146
 30
0.0
 11
388.789572
 21
28.763433
 31
0.0
  0
LINE
  5
1a8
100
AcDbEntity
  8
Layer_1
 62
7
100
AcDbLine
 10
388.789572
 20
28.763433
 30
0.0
 11
470.207885
 21
283.393494
 31
0.0
  0
LINE
  5
1a9
100
AcDbEntity
  8
Layer_1
 62
3
100
AcDbLine
 10
261.593620
 20
26.009290
 30
0.0
 11
261.593620
 21
96.538740
 31
0.0
  0
LINE
  5
1aa
100
AcDbEntity
  8
Layer_1
 62
3
100
AcDbLine
 10
300.593493
 20
26.009290
 30
0.0
 11
300.593493
 21
96.538740
 31
0.0
  0
LINE
  5
1ab
100
AcDbEntity
  8
Layer_1
 62
7
100
AcDbLine
 10
301.729683
 20
138.869590
 30
0.0
 11
301.729683
 21
126.744265
 31
0.0
  0
LINE
  5
1ac
100
AcDbEntity
  8
Layer_1
 62
7
100
AcDbLine
 10
301.729683
 20
126.744265
 30
0.0
 11
306.402577
 21
126.744265
 31
0.0
  0
LINE
  5
1ad
100
AcDbEntity
  8
Layer_1
 62
7
100
AcDbLine
 10
306.402577
 20
126.744265
 30
0.0
 11
306.402577
 21
151.993981
 31
0.0
  0
LINE
  5
1ae
100
AcDbEntity
  8
Layer_1
 62
7
100
AcDbLine
 10
306.402577
 20
151.993981
 30
0.0
 11
301.729683
 21
151.993981
 31
0.0
  0
LINE
  5
1af
100
AcDbEntity
  8
Layer_1
 62
7
100
AcDbLine
 10
301.729683
 20
151.993981
 30
0.0
 11
301.729683
 21
139.869715
 31
0.0
  0
LINE
  5
1b0
100
AcDbEntity
  8
Layer_1
 62
7
100
AcDbLine
 10
260.457430
 20
139.869680
 30
0.0
 11
260.457430
 21
151.993946
 31
0.0
  0
LINE
  5
1b1
100
AcDbEntity
  8
Layer_1
 62
7
100
AcDbLine
 10
260.457430
 20
151.993946
 30
0.0
 11
255.784536
 21
151.993946
 31
0.0
  0
LINE
  5
1b2
100
AcDbEntity
  8
Layer_1
 62
7
100
AcDbLine
 10
255.784536
 20
151.993946
 30
0.0
 11
255.784536
 21
126.744230
 31
0.0
  0
LINE
  5
1b3
100
AcDbEntity
  8
Layer_1
 62
7
100
AcDbLine
 10
255.784536
 20
126.744230
 30
0.0
 11
260.457430
 21
126.744230
 31
0.0
  0
LINE
  5
1b4
100
AcDbEntity
  8
Layer_1
 62
7
100
AcDbLine
 10
260.457430
 20
126.744230
 30
0.0
 11
260.457430
 21
138.869908
 31
0.0
  0
LINE
  5
1b5
100
AcDbEntity
  8
Layer_1
 62
7
100
AcDbLine
 10
301.729683
 20
315.334600
 30
0.0
 11
301.729683
 21
302.709742
 31
0.0
  0
LINE
  5
1b6
100
AcDbEntity
  8
Layer_1
 62
7
100
AcDbLine
 10
301.729683
 20
302.709742
 30
0.0
 11
306.402577
 21
302.709742
 31
0.0
  0
LINE
  5
1b7
100
AcDbEntity
  8
Layer_1
 62
7
100
AcDbLine
 10
306.402577
 20
302.709742
 30
0.0
 11
306.402577
 21
327.959458
 31
0.0
  0
LINE
  5
1b8
100
AcDbEntity
  8
Layer_1
 62
7
100
AcDbLine
 10
306.402577
 20
327.959458
 30
0.0
 11
301.729683
 21
327.959458
 31
0.0
  0
LINE
  5
1b9
100
AcDbEntity
  8
Layer_1
 62
7
100
AcDbLine
 10
301.729683
 20
327.959458
 30
0.0
 11
301.729683
 21
316.334372
 31
0.0
  0
LINE
  5
1ba
100
AcDbEntity
  8
Layer_1
 62
7
100
AcDbLine
 10
260.457430
 20
316.334380
 30
0.0
 11
260.457430
 21
327.959466
 31
0.0
  0
LINE
  5
1bb
100
AcDbEntity
  8
Layer_1
 62
7
100
AcDbLine
 10
260.457430
 20
327.959466
 30
0.0
 11
255.784536
 21
327.959466
 31
0.0
  0
LINE
  5
1bc
100
AcDbEntity
  8
Layer_1
 62
7
100
AcDbLine
 10
255.784536
 20
327.959466
 30
0.0
 11
255.784536
 21
302.709750
 31
0.0
  0
LINE
  5
1bd
100
AcDbEntity
  8
Layer_1
 62
7
100
AcDbLine
 10
255.784536
 20
302.709750
 30
0.0
 11
260.457430
 21
302.709750
 31
0.0
  0
LINE
  5
1be
100
AcDbEntity
  8
Layer_1
 62
7
100
AcDbLine
 10
260.457430
 20
302.709750
 30
0.0
 11
260.457430
 21
315.334608
 31
0.0
  0
LINE
  5
1bf
100
AcDbEntity
  8
Layer_1
 62
7
100
AcDbLine
 10
231.424840
 20
27.009070
 30
0.0
 11
224.094470
 21
136.616070
 31
0.0
  0
LINE
  5
1c0
100
AcDbEntity
  8
Layer_1
 62
7
100
AcDbLine
 10
224.094470
 20
136.616070
 30
0.0
 11
226.400580
 21
168.554070
 31
0.0
  0
LINE
  5
1c1
100
AcDbEntity
  8
Layer_1
 62
7
100
AcDbLine
 10
226.400580
 20
168.554070
 30
0.0
 11
226.428080
 21
168.554070
 31
0.0
  0
LINE
  5
1c2
100
AcDbEntity
  8
Layer_1
 62
7
100
AcDbLine
 10
226.428080
 20
168.554070
 30
0.0
 11
234.655910
 21
169.087470
 31
0.0
  0
LINE
  5
1c3
100
AcDbEntity
  8
Layer_1
 62
7
100
AcDbLine
 10
234.655910
 20
169.087470
 30
0.0
 11
233.033840
 21
191.016870
 31
0.0
  0
LINE
  5
1c4
100
AcDbEntity
  8
Layer_1
 62
7
100
AcDbLine
 10
233.033840
 20
191.016870
 30
0.0
 11
227.977480
 21
190.707770
 31
0.0
  0
LINE
  5
1c5
100
AcDbEntity
  8
Layer_1
 62
7
100
AcDbLine
 10
227.977480
 20
190.707770
 30
0.0
 11
227.953180
 21
190.708300
 31
0.0
  0
LINE
  5
1c6
100
AcDbEntity
  8
Layer_1
 62
7
100
AcDbLine
 10
227.953180
 20
190.708300
 30
0.0
 11
245.482350
 21
341.747870
 31
0.0
  0
LINE
  5
1c7
100
AcDbEntity
  8
Layer_1
 62
7
100
AcDbLine
 10
245.603010
 20
342.787170
 30
0.0
 11
316.584363
 21
342.787170
 31
0.0
  0
LINE
  5
1c8
100
AcDbEntity
  8
Layer_1
 62
7
100
AcDbLine
 10
316.716303
 20
341.647670
 30
0.0
 11
334.191503
 21
190.653470
 31
0.0
  0
LINE
  5
1c9
100
AcDbEntity
  8
Layer_1
 62
7
100
AcDbLine
 10
334.191503
 20
190.653470
 30
0.0
 11
329.170773
 21
191.030570
 31
0.0
  0
LINE
  5
1ca
100
AcDbEntity
  8
Layer_1
 62
7
100
AcDbLine
 10
329.170773
 20
191.030570
 30
0.0
 11
327.549053
 21
169.100870
 31
0.0
  0
LINE
  5
1cb
100
AcDbEntity
  8
Layer_1
 62
7
100
AcDbLine
 10
327.549053
 20
169.100870
 30
0.0
 11
335.741263
 21
168.499070
 31
0.0
  0
LINE
  5
1cc
100
AcDbEntity
  8
Layer_1
 62
7
100
AcDbLine
 10
335.741263
 20
168.499070
 30
0.0
 11
338.055483
 21
136.685170
 31
0.0
  0
LINE
  5
1cd
100
AcDbEntity
  8
Layer_1
 62
7
100
AcDbLine
 10
338.055483
 20
136.685170
 30
0.0
 11
330.757213
 21
26.940970
 31
0.0
  0
LINE
  5
1ce
100
AcDbEntity
  8
Layer_1
 62
7
100
AcDbLine
 10
330.695513
 20
26.012070
 30
0.0
 11
231.491930
 21
26.012070
 31
0.0
  0
SPLINE
  5
1cf
100
AcDbEntity
  8
Layer_1
 62
7
100
AcDbSpline
 70
0
 71
3
 72
13
 73
9
 74
7
 40
0.000000
 40
0.000000
 40
0.000000
 40
0.000000
 40
16.287587
 40
32.118474
 40
48.438433
 40
64.758019
 40
80.589079
 40
96.877182
 40
96.877182
 40
96.877182
 40
96.877182
 10
22.756680
 20
56.646900
 30
0.0
 10
23.690319
 20
51.171036
 30
0.0
 10
25.531417
 20
40.372850
 30
0.0
 10
38.010975
 20
28.552218
 30
0.0
 10
54.252913
 20
24.172649
 30
0.0
 10
70.494874
 20
28.552405
 30
0.0
 10
82.974220
 20
40.373453
 30
0.0
 10
84.815127
 20
51.171904
 30
0.0
 10
85.748679
 20
56.647958
 30
0.0
 11
22.756680
 21
56.646900
 31
0.0
 11
27.212120
 21
40.980549
 31
0.0
 11
38.488713
 21
29.869499
 31
0.0
 11
54.253032
 21
25.647259
 31
0.0
 11
70.016933
 21
29.869617
 31
0.0
 11
81.293422
 21
40.981019
 31
0.0
 11
85.748679
 21
56.647958
 31
0.0
  0
ENDSEC
  0
SECTION
  2
OBJECTS
  0
DICTIONARY
  5
C
330
0
100
AcDbDictionary
  3
ACAD_GROUP
350
D
  3
ACAD_MLINESTYLE
350
17
  0
DICTIONARY
  5
D
330
C
100
AcDbDictionary
  0
DICTIONARY
  5
1A
330
C
100
AcDbDictionary
  0
DICTIONARY
  5
17
330
C
100
AcDbDictionary
  3
STANDARD
350
18
  0
DICTIONARY
  5
19
330
C
100
AcDbDictionary
  0
ENDSEC
  0
EOF
