  0
SECTION
  2
HEADER
  9
$ACADVER
  1
AC1014
  9
$HANDSEED
  5
FFFF
  9
$MEASUREMENT
 70
     1
  0
ENDSEC
  0
SECTION
  2
TABLES
  0
TABLE
  2
VPORT
  5
8
330
0
100
AcDbSymbolTable
 70
     4
  0
VPORT
  5
2E
330
8
100
AcDbSymbolTableRecord
100
AcDbViewportTableRecord
  2
*ACTIVE
 70
     0
 10
0.0
 20
0.0
 11
1.0
 21
1.0
 12
210.0
 22
148.5
 13
0.0
 23
0.0
 14
10.0
 24
10.0
 15
10.0
 25
10.0
 16
0.0
 26
0.0
 36
1.0
 17
0.0
 27
0.0
 37
0.0
 40
341.0
 41
1.24
 42
50.0
 43
0.0
 44
0.0
 50
0.0
 51
0.0
 71
     0
 72
   100
 73
     1
 74
     3
 75
     0
 76
     0
 77
     0
 78
     0
  0
ENDTAB
  0
TABLE
  2
LTYPE
  5
5
330
0
100
AcDbSymbolTable
 70
     1
  0
LTYPE
  5
14
330
5
100
AcDbSymbolTableRecord
100
AcDbLinetypeTableRecord
  2
BYBLOCK
 70
     0
  3

 72
    65
 73
     0
 40
0.0
  0
LTYPE
  5
15
330
5
100
AcDbSymbolTableRecord
100
AcDbLinetypeTableRecord
  2
BYLAYER
 70
     0
  3

 72
    65
 73
     0
 40
0.0
  0
LTYPE
  5
16
330
5
100
AcDbSymbolTableRecord
100
AcDbLinetypeTableRecord
  2
CONTINUOUS
 70
     0
  3
Solid line
 72
    65
 73
     0
 40
0.0
  0
ENDTAB
  0
TABLE
  2
LAYER
  5
2
100
AcDbSymbolTable
 70
2
  0
LAYER
  5
50
100
AcDbSymbolTableRecord
100
AcDbLayerTableRecord
  2
0
 70
0
  6
CONTINUOUS
  0
LAYER
  5
51
100
AcDbSymbolTableRecord
100
AcDbLayerTableRecord
  2
Layer_1
 70
0
  6
CONTINUOUS
  0
ENDTAB
  0
TABLE
  2
STYLE
  5
3
330
0
100
AcDbSymbolTable
 70
     1
  0
STYLE
  5
11
330
3
100
AcDbSymbolTableRecord
100
AcDbTextStyleTableRecord
  2
STANDARD
 70
     0
 40
0.0
 41
1.0
 50
0.0
 71
     0
 42
2.5
  3
txt
  4

  0
ENDTAB
  0
TABLE
  2
VIEW
  5
6
330
0
100
AcDbSymbolTable
 70
     0
  0
ENDTAB
  0
TABLE
  2
UCS
  5
7
330
0
100
AcDbSymbolTable
 70
     0
  0
ENDTAB
  0
TABLE
  2
APPID
  5
9
330
0
100
AcDbSymbolTable
 70
     2
  0
APPID
  5
12
330
9
100
AcDbSymbolTableRecord
100
AcDbRegAppTableRecord
  2
ACAD
 70
     0
  0
ENDTAB
  0
TABLE
  2
DIMSTYLE
  5
A
330
0
100
AcDbSymbolTable
 70
     1
  0
DIMSTYLE
105
27
330
A
100
AcDbSymbolTableRecord
100
AcDbDimStyleTableRecord
  2
ISO-25
 70
     0
  3

  4

  5

  6

  7

 40
1.0
 41
2.5
 42
0.625
 43
3.75
 44
1.25
 45
0.0
 46
0.0
 47
0.0
 48
0.0
140
2.5
141
2.5
142
0.0
143
0.03937007874016
144
1.0
145
0.0
146
1.0
147
0.625
 71
     0
 72
     0
 73
     0
 74
     0
 75
     0
 76
     0
 77
     1
 78
     8
170
     0
171
     3
172
     1
173
     0
174
     0
175
     0
176
     0
177
     0
178
     0
270
     2
271
     2
272
     2
273
     2
274
     3
340
11
275
     0
280
     0
281
     0
282
     0
283
     0
284
     8
285
     0
286
     0
287
     3
288
     0
  0
ENDTAB
  0
TABLE
  2
BLOCK_RECORD
  5
1
330
0
100
AcDbSymbolTable
 70
     1
  0
BLOCK_RECORD
  5
1F
330
1
100
AcDbSymbolTableRecord
100
AcDbBlockTableRecord
  2
*MODEL_SPACE
  0
BLOCK_RECORD
  5
1B
330
1
100
AcDbSymbolTableRecord
100
AcDbBlockTableRecord
  2
*PAPER_SPACE
  0
ENDTAB
  0
ENDSEC
  0
SECTION
  2
BLOCKS
  0
BLOCK
  5
20
330
1F
100
AcDbEntity
  8
0
100
AcDbBlockBegin
  2
*MODEL_SPACE
 70
     0
 10
0.0
 20
0.0
 30
0.0
  3
*MODEL_SPACE
  1

  0
ENDBLK
  5
21
330
1F
100
AcDbEntity
  8
0
100
AcDbBlockEnd
  0
BLOCK
  5
1C
330
1B
100
AcDbEntity
 67
     1
  8
0
100
AcDbBlockBegin
  2
*PAPER_SPACE
  1

  0
ENDBLK
  5
1D
330
1B
100
AcDbEntity
 67
     1
  8
0
100
AcDbBlockEnd
  0
ENDSEC
  0
SECTION
  2
ENTITIES
  0
LINE
  5
100
100
AcDbEntity
  8
Layer_1
 62
3
100
AcDbLine
 10
81.469450
 20
369.679020
 30
0.0
 11
81.469450
 21
299.149570
 31
0.0
  0
LINE
  5
101
100
AcDbEntity
  8
Layer_1
 62
3
100
AcDbLine
 10
42.469577
 20
369.679020
 30
0.0
 11
42.469577
 21
299.149570
 31
0.0
  0
LINE
  5
102
100
AcDbEntity
  8
Layer_1
 62
7
100
AcDbLine
 10
41.333387
 20
256.818720
 30
0.0
 11
41.333387
 21
268.944045
 31
0.0
  0
LINE
  5
103
100
AcDbEntity
  8
Layer_1
 62
7
100
AcDbLine
 10
41.333387
 20
268.944045
 30
0.0
 11
36.660493
 21
268.944045
 31
0.0
  0
LINE
  5
104
100
AcDbEntity
  8
Layer_1
 62
7
100
AcDbLine
 10
36.660493
 20
268.944045
 30
0.0
 11
36.660493
 21
243.694329
 31
0.0
  0
LINE
  5
105
100
AcDbEntity
  8
Layer_1
 62
7
100
AcDbLine
 10
36.660493
 20
243.694329
 30
0.0
 11
41.333387
 21
243.694329
 31
0.0
  0
LINE
  5
106
100
AcDbEntity
  8
Layer_1
 62
7
100
AcDbLine
 10
41.333387
 20
243.694329
 30
0.0
 11
41.333387
 21
255.818595
 31
0.0
  0
LINE
  5
107
100
AcDbEntity
  8
Layer_1
 62
7
100
AcDbLine
 10
82.605640
 20
255.818630
 30
0.0
 11
82.605640
 21
243.694364
 31
0.0
  0
LINE
  5
108
100
AcDbEntity
  8
Layer_1
 62
7
100
AcDbLine
 10
82.605640
 20
243.694364
 30
0.0
 11
87.278534
 21
243.694364
 31
0.0
  0
LINE
  5
109
100
AcDbEntity
  8
Layer_1
 62
7
100
AcDbLine
 10
87.278534
 20
243.694364
 30
0.0
 11
87.278534
 21
268.944080
 31
0.0
  0
LINE
  5
10a
100
AcDbEntity
  8
Layer_1
 62
7
100
AcDbLine
 10
87.278534
 20
268.944080
 30
0.0
 11
82.605640
 21
268.944080
 31
0.0
  0
LINE
  5
10b
100
AcDbEntity
  8
Layer_1
 62
7
100
AcDbLine
 10
82.605640
 20
268.944080
 30
0.0
 11
82.605640
 21
256.818402
 31
0.0
  0
LINE
  5
10c
100
AcDbEntity
  8
Layer_1
 62
7
100
AcDbLine
 10
41.333387
 20
80.353710
 30
0.0
 11
41.333387
 21
92.978568
 31
0.0
  0
LINE
  5
10d
100
AcDbEntity
  8
Layer_1
 62
7
100
AcDbLine
 10
41.333387
 20
92.978568
 30
0.0
 11
36.660493
 21
92.978568
 31
0.0
  0
LINE
  5
10e
100
AcDbEntity
  8
Layer_1
 62
7
100
AcDbLine
 10
36.660493
 20
92.978568
 30
0.0
 11
36.660493
 21
67.728852
 31
0.0
  0
LINE
  5
10f
100
AcDbEntity
  8
Layer_1
 62
7
100
AcDbLine
 10
36.660493
 20
67.728852
 30
0.0
 11
41.333387
 21
67.728852
 31
0.0
  0
LINE
  5
110
100
AcDbEntity
  8
Layer_1
 62
7
100
AcDbLine
 10
41.333387
 20
67.728852
 30
0.0
 11
41.333387
 21
79.353938
 31
0.0
  0
LINE
  5
111
100
AcDbEntity
  8
Layer_1
 62
7
100
AcDbLine
 10
82.605640
 20
79.353930
 30
0.0
 11
82.605640
 21
67.728844
 31
0.0
  0
LINE
  5
112
100
AcDbEntity
  8
Layer_1
 62
7
100
AcDbLine
 10
82.605640
 20
67.728844
 30
0.0
 11
87.278534
 21
67.728844
 31
0.0
  0
LINE
  5
113
100
AcDbEntity
  8
Layer_1
 62
7
100
AcDbLine
 10
87.278534
 20
67.728844
 30
0.0
 11
87.278534
 21
92.978560
 31
0.0
  0
LINE
  5
114
100
AcDbEntity
  8
Layer_1
 62
7
100
AcDbLine
 10
87.278534
 20
92.978560
 30
0.0
 11
82.605640
 21
92.978560
 31
0.0
  0
LINE
  5
115
100
AcDbEntity
  8
Layer_1
 62
7
100
AcDbLine
 10
82.605640
 20
92.978560
 30
0.0
 11
82.605640
 21
80.353702
 31
0.0
  0
LINE
  5
116
100
AcDbEntity
  8
Layer_1
 62
7
100
AcDbLine
 10
111.638230
 20
368.679240
 30
0.0
 11
118.968600
 21
259.072240
 31
0.0
  0
LINE
  5
117
100
AcDbEntity
  8
Layer_1
 62
7
100
AcDbLine
 10
118.968600
 20
259.072240
 30
0.0
 11
116.662490
 21
227.134240
 31
0.0
  0
LINE
  5
118
100
AcDbEntity
  8
Layer_1
 62
7
100
AcDbLine
 10
116.662490
 20
227.134240
 30
0.0
 11
116.634990
 21
227.134240
 31
0.0
  0
LINE
  5
119
100
AcDbEntity
  8
Layer_1
 62
7
100
AcDbLine
 10
116.634990
 20
227.134240
 30
0.0
 11
108.407160
 21
226.600840
 31
0.0
  0
LINE
  5
11a
100
AcDbEntity
  8
Layer_1
 62
7
100
AcDbLine
 10
108.407160
 20
226.600840
 30
0.0
 11
110.029230
 21
204.671440
 31
0.0
  0
LINE
  5
11b
100
AcDbEntity
  8
Layer_1
 62
7
100
AcDbLine
 10
110.029230
 20
204.671440
 30
0.0
 11
115.085590
 21
204.980540
 31
0.0
  0
LINE
  5
11c
100
AcDbEntity
  8
Layer_1
 62
7
100
AcDbLine
 10
115.085590
 20
204.980540
 30
0.0
 11
115.109890
 21
204.980010
 31
0.0
  0
LINE
  5
11d
100
AcDbEntity
  8
Layer_1
 62
7
100
AcDbLine
 10
115.109890
 20
204.980010
 30
0.0
 11
97.580720
 21
53.940440
 31
0.0
  0
LINE
  5
11e
100
AcDbEntity
  8
Layer_1
 62
7
100
AcDbLine
 10
97.460060
 20
52.901140
 30
0.0
 11
26.478707
 21
52.901140
 31
0.0
  0
LINE
  5
11f
100
AcDbEntity
  8
Layer_1
 62
7
100
AcDbLine
 10
26.346767
 20
54.040640
 30
0.0
 11
8.871567
 21
205.034840
 31
0.0
  0
LINE
  5
120
100
AcDbEntity
  8
Layer_1
 62
7
100
AcDbLine
 10
8.871567
 20
205.034840
 30
0.0
 11
13.892297
 21
204.657740
 31
0.0
  0
LINE
  5
121
100
AcDbEntity
  8
Layer_1
 62
7
100
AcDbLine
 10
13.892297
 20
204.657740
 30
0.0
 11
15.514017
 21
226.587440
 31
0.0
  0
LINE
  5
122
100
AcDbEntity
  8
Layer_1
 62
7
100
AcDbLine
 10
15.514017
 20
226.587440
 30
0.0
 11
7.321807
 21
227.189240
 31
0.0
  0
LINE
  5
123
100
AcDbEntity
  8
Layer_1
 62
7
100
AcDbLine
 10
7.321807
 20
227.189240
 30
0.0
 11
5.007587
 21
259.003140
 31
0.0
  0
LINE
  5
124
100
AcDbEntity
  8
Layer_1
 62
7
100
AcDbLine
 10
5.007587
 20
259.003140
 30
0.0
 11
12.305857
 21
368.747340
 31
0.0
  0
LINE
  5
125
100
AcDbEntity
  8
Layer_1
 62
7
100
AcDbLine
 10
12.367557
 20
369.676240
 30
0.0
 11
111.571140
 21
369.676240
 31
0.0
  0
LINE
  5
126
100
AcDbEntity
  8
Layer_1
 62
1
100
AcDbLine
 10
492.199552
 20
215.980475
 30
0.0
 11
218.926252
 21
229.828061
 31
0.0
  0
LINE
  5
127
100
AcDbEntity
  8
Layer_1
 62
1
100
AcDbLine
 10
219.408552
 20
225.480045
 30
0.0
 11
492.681502
 21
211.632459
 31
0.0
  0
LINE
  5
128
100
AcDbEntity
  8
Layer_1
 62
1
100
AcDbLine
 10
492.078642
 20
283.881235
 30
0.0
 11
218.805692
 21
270.033649
 31
0.0
  0
LINE
  5
129
100
AcDbEntity
  8
Layer_1
 62
1
100
AcDbLine
 10
219.287952
 20
274.381741
 30
0.0
 11
492.560902
 21
288.229327
 31
0.0
  0
LINE
  5
12a
100
AcDbEntity
  8
Layer_1
 62
1
100
AcDbLine
 10
211.617262
 20
269.940684
 30
0.0
 11
211.617262
 21
229.979782
 31
0.0
  0
LINE
  5
12b
100
AcDbEntity
  8
Layer_1
 62
1
100
AcDbLine
 10
215.935342
 20
229.979655
 30
0.0
 11
215.814692
 21
269.881996
 31
0.0
  0
LINE
  5
12c
100
AcDbEntity
  8
Layer_1
 62
3
100
AcDbLine
 10
434.902872
 20
241.088365
 30
0.0
 11
432.691562
 21
241.088365
 31
0.0
  0
LINE
  5
12d
100
AcDbEntity
  8
Layer_1
 62
3
100
AcDbLine
 10
432.691562
 20
241.088365
 30
0.0
 11
432.691562
 21
258.773115
 31
0.0
  0
LINE
  5
12e
100
AcDbEntity
  8
Layer_1
 62
3
100
AcDbLine
 10
432.691562
 20
258.773115
 30
0.0
 11
434.902872
 21
258.773115
 31
0.0
  0
LINE
  5
12f
100
AcDbEntity
  8
Layer_1
 62
3
100
AcDbLine
 10
434.902872
 20
258.773115
 30
0.0
 11
434.902872
 21
241.088365
 31
0.0
  0
LINE
  5
130
100
AcDbEntity
  8
Layer_1
 62
3
100
AcDbLine
 10
448.718962
 20
238.877865
 30
0.0
 11
432.691562
 21
238.877865
 31
0.0
  0
LINE
  5
131
100
AcDbEntity
  8
Layer_1
 62
3
100
AcDbLine
 10
432.691562
 20
238.877865
 30
0.0
 11
432.691562
 21
241.088365
 31
0.0
  0
LINE
  5
132
100
AcDbEntity
  8
Layer_1
 62
3
100
AcDbLine
 10
432.691562
 20
241.088365
 30
0.0
 11
448.718962
 21
241.088365
 31
0.0
  0
LINE
  5
133
100
AcDbEntity
  8
Layer_1
 62
3
100
AcDbLine
 10
448.718962
 20
241.088365
 30
0.0
 11
448.718962
 21
238.877865
 31
0.0
  0
LINE
  5
134
100
AcDbEntity
  8
Layer_1
 62
3
100
AcDbLine
 10
448.718962
 20
258.773115
 30
0.0
 11
432.691562
 21
258.773115
 31
0.0
  0
LINE
  5
135
100
AcDbEntity
  8
Layer_1
 62
3
100
AcDbLine
 10
432.691562
 20
258.773115
 30
0.0
 11
432.691562
 21
260.983975
 31
0.0
  0
LINE
  5
136
100
AcDbEntity
  8
Layer_1
 62
3
100
AcDbLine
 10
432.691562
 20
260.983975
 30
0.0
 11
448.718962
 21
260.983975
 31
0.0
  0
LINE
  5
137
100
AcDbEntity
  8
Layer_1
 62
3
100
AcDbLine
 10
448.718962
 20
260.983975
 30
0.0
 11
448.718962
 21
258.773115
 31
0.0
  0
LINE
  5
138
100
AcDbEntity
  8
Layer_1
 62
3
100
AcDbLine
 10
447.889442
 20
253.065555
 30
0.0
 11
436.237545
 21
253.065555
 31
0.0
  0
LINE
  5
139
100
AcDbEntity
  8
Layer_1
 62
3
100
AcDbLine
 10
436.237545
 20
253.065555
 30
0.0
 11
436.237545
 21
249.317997
 31
0.0
  0
LINE
  5
13a
100
AcDbEntity
  8
Layer_1
 62
3
100
AcDbLine
 10
442.432462
 20
248.969355
 30
0.0
 11
442.432462
 21
253.065458
 31
0.0
  0
LINE
  5
13b
100
AcDbEntity
  8
Layer_1
 62
3
100
AcDbLine
 10
447.889442
 20
253.065555
 30
0.0
 11
447.889442
 21
249.309177
 31
0.0
  0
SPLINE
  5
13c
100
AcDbEntity
  8
Layer_1
 62
3
100
AcDbSpline
 70
0
 71
3
 72
10
 73
6
 74
4
 40
0.000000
 40
0.000000
 40
0.000000
 40
0.000000
 40
2.449519
 40
4.910481
 40
7.237633
 40
7.237633
 40
7.237633
 40
7.237633
 10
447.889442
 20
249.309177
 30
0.0
 10
447.530046
 20
248.508238
 30
0.0
 10
446.809574
 20
246.902616
 30
0.0
 10
443.789074
 20
246.899452
 30
0.0
 10
442.876068
 20
248.292428
 30
0.0
 10
442.432323
 20
248.969452
 30
0.0
 11
447.889442
 21
249.309177
 31
0.0
 11
446.480591
 21
247.305360
 31
0.0
 11
444.019914
 21
247.267927
 31
0.0
 11
442.432323
 21
248.969452
 31
0.0
  0
LINE
  5
13d
100
AcDbEntity
  8
Layer_1
 62
3
100
AcDbLine
 10
183.563162
 20
259.773245
 30
0.0
 11
181.594662
 21
259.773245
 31
0.0
  0
LINE
  5
13e
100
AcDbEntity
  8
Layer_1
 62
3
100
AcDbLine
 10
181.594662
 20
259.773245
 30
0.0
 11
181.594662
 21
240.088595
 31
0.0
  0
LINE
  5
13f
100
AcDbEntity
  8
Layer_1
 62
3
100
AcDbLine
 10
181.594662
 20
240.088595
 30
0.0
 11
183.563162
 21
240.088595
 31
0.0
  0
LINE
  5
140
100
AcDbEntity
  8
Layer_1
 62
3
100
AcDbLine
 10
183.563162
 20
240.088595
 30
0.0
 11
183.563162
 21
259.773245
 31
0.0
  0
LINE
  5
141
100
AcDbEntity
  8
Layer_1
 62
3
100
AcDbLine
 10
195.866262
 20
259.773245
 30
0.0
 11
183.563162
 21
259.773245
 31
0.0
  0
LINE
  5
142
100
AcDbEntity
  8
Layer_1
 62
3
100
AcDbLine
 10
183.563162
 20
259.773245
 30
0.0
 11
183.563162
 21
257.804745
 31
0.0
  0
LINE
  5
143
100
AcDbEntity
  8
Layer_1
 62
3
100
AcDbLine
 10
183.563162
 20
257.804745
 30
0.0
 11
195.866262
 21
257.804745
 31
0.0
  0
LINE
  5
144
100
AcDbEntity
  8
Layer_1
 62
3
100
AcDbLine
 10
195.866262
 20
257.804745
 30
0.0
 11
195.866262
 21
259.773245
 31
0.0
  0
LINE
  5
145
100
AcDbEntity
  8
Layer_1
 62
3
100
AcDbLine
 10
195.866262
 20
242.057445
 30
0.0
 11
183.563162
 21
242.057445
 31
0.0
  0
LINE
  5
146
100
AcDbEntity
  8
Layer_1
 62
3
100
AcDbLine
 10
183.563162
 20
242.057445
 30
0.0
 11
183.563162
 21
240.088595
 31
0.0
  0
LINE
  5
147
100
AcDbEntity
  8
Layer_1
 62
3
100
AcDbLine
 10
183.563162
 20
240.088595
 30
0.0
 11
195.866262
 21
240.088595
 31
0.0
  0
LINE
  5
148
100
AcDbEntity
  8
Layer_1
 62
3
100
AcDbLine
 10
195.866262
 20
240.088595
 30
0.0
 11
195.866262
 21
242.057445
 31
0.0
  0
LINE
  5
149
100
AcDbEntity
  8
Layer_1
 62
3
100
AcDbLine
 10
184.436742
 20
246.019305
 30
0.0
 11
195.075108
 21
249.865641
 31
0.0
  0
LINE
  5
14a
100
AcDbEntity
  8
Layer_1
 62
3
100
AcDbLine
 10
195.075108
 20
249.865641
 30
0.0
 11
184.436742
 21
253.842152
 31
0.0
  0
LINE
  5
14b
100
AcDbEntity
  8
Layer_1
 62
3
100
AcDbLine
 10
188.656342
 20
247.485175
 30
0.0
 11
188.656342
 21
252.113267
 31
0.0
  0
LINE
  5
14c
100
AcDbEntity
  8
Layer_1
 62
7
100
AcDbLine
 10
486.108162
 20
250.101725
 30
0.0
 11
469.174829
 21
250.101725
 31
0.0
  0
LINE
  5
14d
100
AcDbEntity
  8
Layer_1
 62
7
100
AcDbLine
 10
404.263562
 20
250.101725
 30
0.0
 11
387.330229
 21
250.101725
 31
0.0
  0
LINE
  5
14e
100
AcDbEntity
  8
Layer_1
 62
7
100
AcDbLine
 10
334.413562
 20
250.101725
 30
0.0
 11
317.480229
 21
250.101725
 31
0.0
  0
LINE
  5
14f
100
AcDbEntity
  8
Layer_1
 62
7
100
AcDbLine
 10
263.857942
 20
250.101725
 30
0.0
 11
246.924609
 21
250.101725
 31
0.0
  0
LINE
  5
150
100
AcDbEntity
  8
Layer_1
 62
7
100
AcDbLine
 10
270.935372
 20
360.516028
 30
0.0
 11
295.049472
 21
361.686198
 31
0.0
  0
LINE
  5
151
100
AcDbEntity
  8
Layer_1
 62
7
100
AcDbLine
 10
295.049472
 20
361.686198
 30
0.0
 11
295.220972
 21
356.854198
 31
0.0
  0
LINE
  5
152
100
AcDbEntity
  8
Layer_1
 62
7
100
AcDbLine
 10
295.220972
 20
356.854198
 30
0.0
 11
295.243972
 21
356.425928
 31
0.0
  0
LINE
  5
153
100
AcDbEntity
  8
Layer_1
 62
7
100
AcDbLine
 10
295.243972
 20
356.425928
 30
0.0
 11
419.337492
 21
362.744528
 31
0.0
  0
LINE
  5
154
100
AcDbEntity
  8
Layer_1
 62
7
100
AcDbLine
 10
419.337492
 20
362.744528
 30
0.0
 11
419.321392
 21
363.069788
 31
0.0
  0
LINE
  5
155
100
AcDbEntity
  8
Layer_1
 62
7
100
AcDbLine
 10
419.321392
 20
363.069788
 30
0.0
 11
419.149602
 21
367.902138
 31
0.0
  0
LINE
  5
156
100
AcDbEntity
  8
Layer_1
 62
7
100
AcDbLine
 10
419.149602
 20
367.902138
 30
0.0
 11
443.555802
 21
369.086418
 31
0.0
  0
LINE
  5
157
100
AcDbEntity
  8
Layer_1
 62
7
100
AcDbLine
 10
444.593762
 20
369.136868
 30
0.0
 11
444.765582
 21
364.304518
 31
0.0
  0
LINE
  5
158
100
AcDbEntity
  8
Layer_1
 62
7
100
AcDbLine
 10
444.765582
 20
364.304518
 30
0.0
 11
444.782482
 21
364.039928
 31
0.0
  0
LINE
  5
159
100
AcDbEntity
  8
Layer_1
 62
7
100
AcDbLine
 10
444.782482
 20
364.039928
 30
0.0
 11
489.894582
 21
366.430358
 31
0.0
  0
LINE
  5
15a
100
AcDbEntity
  8
Layer_1
 62
7
100
AcDbLine
 10
489.894582
 20
366.430358
 30
0.0
 11
495.890382
 21
284.009817
 31
0.0
  0
LINE
  5
15b
100
AcDbEntity
  8
Layer_1
 62
7
100
AcDbLine
 10
495.890382
 20
284.009817
 30
0.0
 11
495.890382
 21
250.601405
 31
0.0
  0
LINE
  5
15c
100
AcDbEntity
  8
Layer_1
 62
7
100
AcDbLine
 10
495.890462
 20
249.601635
 30
0.0
 11
495.890462
 21
215.793535
 31
0.0
  0
LINE
  5
15d
100
AcDbEntity
  8
Layer_1
 62
7
100
AcDbLine
 10
495.890462
 20
215.793535
 30
0.0
 11
489.897172
 21
133.431565
 31
0.0
  0
LINE
  5
15e
100
AcDbEntity
  8
Layer_1
 62
7
100
AcDbLine
 10
489.897172
 20
133.431565
 30
0.0
 11
444.764182
 21
135.768365
 31
0.0
  0
LINE
  5
15f
100
AcDbEntity
  8
Layer_1
 62
7
100
AcDbLine
 10
444.764182
 20
135.768365
 30
0.0
 11
444.594872
 21
131.006215
 31
0.0
  0
LINE
  5
160
100
AcDbEntity
  8
Layer_1
 62
7
100
AcDbLine
 10
443.501962
 20
131.059115
 30
0.0
 11
419.150772
 21
132.240915
 31
0.0
  0
LINE
  5
161
100
AcDbEntity
  8
Layer_1
 62
7
100
AcDbLine
 10
419.150772
 20
132.240915
 30
0.0
 11
419.322162
 21
137.064095
 31
0.0
  0
LINE
  5
162
100
AcDbEntity
  8
Layer_1
 62
7
100
AcDbLine
 10
419.322162
 20
137.064095
 30
0.0
 11
295.225272
 21
143.442315
 31
0.0
  0
LINE
  5
163
100
AcDbEntity
  8
Layer_1
 62
7
100
AcDbLine
 10
295.225272
 20
143.442315
 30
0.0
 11
295.225272
 21
143.349215
 31
0.0
  0
LINE
  5
164
100
AcDbEntity
  8
Layer_1
 62
7
100
AcDbLine
 10
295.225272
 20
143.349215
 30
0.0
 11
295.053772
 21
138.517215
 31
0.0
  0
LINE
  5
165
100
AcDbEntity
  8
Layer_1
 62
7
100
AcDbLine
 10
295.053772
 20
138.517215
 30
0.0
 11
270.609472
 21
139.703615
 31
0.0
  0
LINE
  5
166
100
AcDbEntity
  8
Layer_1
 62
7
100
AcDbLine
 10
269.609672
 20
139.751915
 30
0.0
 11
269.781172
 21
144.583905
 31
0.0
  0
LINE
  5
167
100
AcDbEntity
  8
Layer_1
 62
7
100
AcDbLine
 10
269.781172
 20
144.583905
 30
0.0
 11
216.392762
 21
147.456575
 31
0.0
  0
LINE
  5
168
100
AcDbEntity
  8
Layer_1
 62
7
100
AcDbLine
 10
216.392762
 20
147.456575
 30
0.0
 11
217.328062
 21
169.387365
 31
0.0
  0
LINE
  5
169
100
AcDbEntity
  8
Layer_1
 62
7
100
AcDbLine
 10
217.328062
 20
169.387365
 30
0.0
 11
212.955362
 21
169.678755
 31
0.0
  0
LINE
  5
16a
100
AcDbEntity
  8
Layer_1
 62
7
100
AcDbLine
 10
212.955362
 20
169.678755
 30
0.0
 11
215.939462
 21
229.979765
 31
0.0
  0
LINE
  5
16b
100
AcDbEntity
  8
Layer_1
 62
7
100
AcDbLine
 10
215.939462
 20
229.979765
 30
0.0
 11
160.498362
 21
229.979765
 31
0.0
  0
LINE
  5
16c
100
AcDbEntity
  8
Layer_1
 62
7
100
AcDbLine
 10
160.498362
 20
229.979765
 30
0.0
 11
160.498362
 21
225.723505
 31
0.0
  0
LINE
  5
16d
100
AcDbEntity
  8
Layer_1
 62
7
100
AcDbLine
 10
160.498362
 20
225.723505
 30
0.0
 11
137.932262
 21
225.723505
 31
0.0
  0
LINE
  5
16e
100
AcDbEntity
  8
Layer_1
 62
7
100
AcDbLine
 10
137.932262
 20
225.723505
 30
0.0
 11
137.932262
 21
248.842085
 31
0.0
  0
LINE
  5
16f
100
AcDbEntity
  8
Layer_1
 62
7
100
AcDbLine
 10
137.932262
 20
249.840445
 30
0.0
 11
137.932262
 21
274.196938
 31
0.0
  0
LINE
  5
170
100
AcDbEntity
  8
Layer_1
 62
7
100
AcDbLine
 10
137.932262
 20
274.196938
 30
0.0
 11
160.498362
 21
274.196938
 31
0.0
  0
LINE
  5
171
100
AcDbEntity
  8
Layer_1
 62
7
100
AcDbLine
 10
160.498362
 20
274.196938
 30
0.0
 11
160.498362
 21
269.940668
 31
0.0
  0
LINE
  5
172
100
AcDbEntity
  8
Layer_1
 62
7
100
AcDbLine
 10
160.498362
 20
269.940668
 30
0.0
 11
215.816062
 21
269.940668
 31
0.0
  0
LINE
  5
173
100
AcDbEntity
  8
Layer_1
 62
7
100
AcDbLine
 10
215.816062
 20
269.940668
 30
0.0
 11
212.847762
 21
329.925948
 31
0.0
  0
LINE
  5
174
100
AcDbEntity
  8
Layer_1
 62
7
100
AcDbLine
 10
212.847762
 20
329.925948
 30
0.0
 11
212.832762
 21
329.925948
 31
0.0
  0
LINE
  5
175
100
AcDbEntity
  8
Layer_1
 62
7
100
AcDbLine
 10
212.832762
 20
329.925948
 30
0.0
 11
217.205062
 21
330.217339
 31
0.0
  0
LINE
  5
176
100
AcDbEntity
  8
Layer_1
 62
7
100
AcDbLine
 10
217.205062
 20
330.217339
 30
0.0
 11
216.270162
 21
352.148128
 31
0.0
  0
LINE
  5
177
100
AcDbEntity
  8
Layer_1
 62
7
100
AcDbLine
 10
216.270162
 20
352.148128
 30
0.0
 11
216.218162
 21
352.401778
 31
0.0
  0
LINE
  5
178
100
AcDbEntity
  8
Layer_1
 62
7
100
AcDbLine
 10
216.218162
 20
352.401778
 30
0.0
 11
269.804772
 21
355.130158
 31
0.0
  0
LINE
  5
179
100
AcDbEntity
  8
Layer_1
 62
7
100
AcDbLine
 10
269.804772
 20
355.130158
 30
0.0
 11
269.781772
 21
355.619458
 31
0.0
  0
LINE
  5
17a
100
AcDbEntity
  8
Layer_1
 62
7
100
AcDbLine
 10
269.781772
 20
355.619458
 30
0.0
 11
269.610272
 21
360.451458
 31
0.0
  0
LINE
  5
17b
100
AcDbEntity
  8
Layer_1
 62
7
100
AcDbLine
 10
305.205170
 20
87.961020
 30
0.0
 11
302.654260
 21
92.068930
 31
0.0
  0
LINE
  5
17c
100
AcDbEntity
  8
Layer_1
 62
7
100
AcDbLine
 10
302.654260
 20
92.068930
 30
0.0
 11
205.819560
 21
33.224470
 31
0.0
  0
LINE
  5
17d
100
AcDbEntity
  8
Layer_1
 62
7
100
AcDbLine
 10
205.819560
 20
33.224470
 30
0.0
 11
208.363250
 21
29.129330
 31
0.0
  0
LINE
  5
17e
100
AcDbEntity
  8
Layer_1
 62
7
100
AcDbLine
 10
208.363250
 20
29.129330
 30
0.0
 11
186.548890
 21
15.972780
 31
0.0
  0
LINE
  5
17f
100
AcDbEntity
  8
Layer_1
 62
7
100
AcDbLine
 10
186.548890
 20
15.972780
 30
0.0
 11
183.998520
 21
20.080610
 31
0.0
  0
LINE
  5
180
100
AcDbEntity
  8
Layer_1
 62
7
100
AcDbLine
 10
183.998520
 20
20.080610
 30
0.0
 11
184.047820
 21
19.994510
 31
0.0
  0
LINE
  5
181
100
AcDbEntity
  8
Layer_1
 62
7
100
AcDbLine
 10
184.047820
 20
19.994510
 30
0.0
 11
164.129880
 21
7.891230
 31
0.0
  0
LINE
  5
182
100
AcDbEntity
  8
Layer_1
 62
7
100
AcDbLine
 10
164.129880
 20
7.891230
 30
0.0
 11
121.872660
 21
102.941010
 31
0.0
  0
LINE
  5
183
100
AcDbEntity
  8
Layer_1
 62
7
100
AcDbLine
 10
122.805030
 20
103.510140
 30
0.0
 11
156.341400
 21
123.987860
 31
0.0
  0
LINE
  5
184
100
AcDbEntity
  8
Layer_1
 62
7
100
AcDbLine
 10
156.341400
 20
123.987860
 30
0.0
 11
344.064240
 21
117.232300
 31
0.0
  0
LINE
  5
185
100
AcDbEntity
  8
Layer_1
 62
7
100
AcDbLine
 10
344.064240
 20
117.232300
 30
0.0
 11
324.425420
 21
105.298230
 31
0.0
  0
LINE
  5
186
100
AcDbEntity
  8
Layer_1
 62
7
100
AcDbLine
 10
324.425420
 20
105.298230
 30
0.0
 11
324.468420
 21
105.224530
 31
0.0
  0
LINE
  5
187
100
AcDbEntity
  8
Layer_1
 62
7
100
AcDbLine
 10
324.468420
 20
105.224530
 30
0.0
 11
327.019210
 21
101.117320
 31
0.0
  0
LINE
  5
188
100
AcDbEntity
  8
Layer_1
 62
7
100
AcDbLine
 10
327.019210
 20
101.117320
 30
0.0
 11
306.177330
 21
88.487290
 31
0.0
  0
LINE
  5
189
100
AcDbEntity
  8
Layer_1
 62
7
100
AcDbLine
 10
463.929310
 20
115.542220
 30
0.0
 11
474.859210
 21
12.097850
 31
0.0
  0
LINE
  5
18a
100
AcDbEntity
  8
Layer_1
 62
7
100
AcDbLine
 10
474.859210
 20
12.097850
 30
0.0
 11
451.558160
 21
12.620430
 31
0.0
  0
LINE
  5
18b
100
AcDbEntity
  8
Layer_1
 62
7
100
AcDbLine
 10
451.558160
 20
12.620430
 30
0.0
 11
451.557830
 21
12.719930
 31
0.0
  0
LINE
  5
18c
100
AcDbEntity
  8
Layer_1
 62
7
100
AcDbLine
 10
451.557830
 20
12.719930
 30
0.0
 11
451.403110
 21
7.887260
 31
0.0
  0
LINE
  5
18d
100
AcDbEntity
  8
Layer_1
 62
7
100
AcDbLine
 10
451.403110
 20
7.887260
 30
0.0
 11
425.933090
 21
8.374010
 31
0.0
  0
LINE
  5
18e
100
AcDbEntity
  8
Layer_1
 62
7
100
AcDbLine
 10
425.933090
 20
8.374010
 30
0.0
 11
426.088340
 21
13.192450
 31
0.0
  0
LINE
  5
18f
100
AcDbEntity
  8
Layer_1
 62
7
100
AcDbLine
 10
426.088340
 20
13.192450
 30
0.0
 11
312.804660
 21
15.734520
 31
0.0
  0
LINE
  5
190
100
AcDbEntity
  8
Layer_1
 62
7
100
AcDbLine
 10
312.804660
 20
15.734520
 30
0.0
 11
312.649550
 21
10.901520
 31
0.0
  0
LINE
  5
191
100
AcDbEntity
  8
Layer_1
 62
7
100
AcDbLine
 10
311.556880
 20
10.922320
 30
0.0
 11
287.179610
 21
11.387840
 31
0.0
  0
LINE
  5
192
100
AcDbEntity
  8
Layer_1
 62
7
100
AcDbLine
 10
287.179610
 20
11.387840
 30
0.0
 11
287.335040
 21
16.220440
 31
0.0
  0
LINE
  5
193
100
AcDbEntity
  8
Layer_1
 62
7
100
AcDbLine
 10
287.335040
 20
16.220440
 30
0.0
 11
287.335480
 21
16.305740
 31
0.0
  0
LINE
  5
194
100
AcDbEntity
  8
Layer_1
 62
7
100
AcDbLine
 10
287.335480
 20
16.305740
 30
0.0
 11
264.360660
 21
16.821360
 31
0.0
  0
LINE
  5
195
100
AcDbEntity
  8
Layer_1
 62
7
100
AcDbLine
 10
264.360660
 20
16.821360
 30
0.0
 11
423.554860
 21
116.534970
 31
0.0
  0
LINE
  5
196
100
AcDbEntity
  8
Layer_1
 62
7
100
AcDbLine
 10
423.554860
 20
116.534970
 30
0.0
 11
462.920790
 21
115.566940
 31
0.0
  0
SPLINE
  5
197
100
AcDbEntity
  8
Layer_1
 62
3
100
AcDbSpline
 70
0
 71
3
 72
10
 73
6
 74
4
 40
0.000000
 40
0.000000
 40
0.000000
 40
0.000000
 40
2.468938
 40
5.493772
 40
8.501627
 40
8.501627
 40
8.501627
 40
8.501627
 10
442.432323
 20
248.969452
 30
0.0
 10
442.036051
 20
248.210270
 30
0.0
 10
441.154285
 20
246.520971
 30
0.0
 10
437.484799
 20
246.271546
 30
0.0
 10
436.652515
 20
248.304420
 30
0.0
 10
436.237545
 20
249.317997
 30
0.0
 11
442.432323
 21
248.969452
 31
0.0
 11
440.942686
 21
247.000534
 31
0.0
 11
437.922856
 21
246.826628
 31
0.0
 11
436.237545
 21
249.317997
 31
0.0
  0
ENDSEC
  0
SECTION
  2
OBJECTS
  0
DICTIONARY
  5
C
330
0
100
AcDbDictionary
  3
ACAD_GROUP
350
D
  3
ACAD_MLINESTYLE
350
17
  0
DICTIONARY
  5
D
330
C
100
AcDbDictionary
  0
DICTIONARY
  5
1A
330
C
100
AcDbDictionary
  0
DICTIONARY
  5
17
330
C
100
AcDbDictionary
  3
STANDARD
350
18
  0
DICTIONARY
  5
19
330
C
100
AcDbDictionary
  0
ENDSEC
  0
EOF
