  0
SECTION
  2
HEADER
  9
$ACADVER
  1
AC1014
  9
$HANDSEED
  5
FFFF
  9
$MEASUREMENT
 70
     1
  0
ENDSEC
  0
SECTION
  2
TABLES
  0
TABLE
  2
VPORT
  5
8
330
0
100
AcDbSymbolTable
 70
     4
  0
VPORT
  5
2E
330
8
100
AcDbSymbolTableRecord
100
AcDbViewportTableRecord
  2
*ACTIVE
 70
     0
 10
0.0
 20
0.0
 11
1.0
 21
1.0
 12
210.0
 22
148.5
 13
0.0
 23
0.0
 14
10.0
 24
10.0
 15
10.0
 25
10.0
 16
0.0
 26
0.0
 36
1.0
 17
0.0
 27
0.0
 37
0.0
 40
341.0
 41
1.24
 42
50.0
 43
0.0
 44
0.0
 50
0.0
 51
0.0
 71
     0
 72
   100
 73
     1
 74
     3
 75
     0
 76
     0
 77
     0
 78
     0
  0
ENDTAB
  0
TABLE
  2
LTYPE
  5
5
330
0
100
AcDbSymbolTable
 70
     1
  0
LTYPE
  5
14
330
5
100
AcDbSymbolTableRecord
100
AcDbLinetypeTableRecord
  2
BYBLOCK
 70
     0
  3

 72
    65
 73
     0
 40
0.0
  0
LTYPE
  5
15
330
5
100
AcDbSymbolTableRecord
100
AcDbLinetypeTableRecord
  2
BYLAYER
 70
     0
  3

 72
    65
 73
     0
 40
0.0
  0
LTYPE
  5
16
330
5
100
AcDbSymbolTableRecord
100
AcDbLinetypeTableRecord
  2
CONTINUOUS
 70
     0
  3
Solid line
 72
    65
 73
     0
 40
0.0
  0
ENDTAB
  0
TABLE
  2
LAYER
  5
2
100
AcDbSymbolTable
 70
2
  0
LAYER
  5
50
100
AcDbSymbolTableRecord
100
AcDbLayerTableRecord
  2
0
 70
0
  6
CONTINUOUS
  0
LAYER
  5
51
100
AcDbSymbolTableRecord
100
AcDbLayerTableRecord
  2
Layer_1
 70
0
  6
CONTINUOUS
  0
ENDTAB
  0
TABLE
  2
STYLE
  5
3
330
0
100
AcDbSymbolTable
 70
     1
  0
STYLE
  5
11
330
3
100
AcDbSymbolTableRecord
100
AcDbTextStyleTableRecord
  2
STANDARD
 70
     0
 40
0.0
 41
1.0
 50
0.0
 71
     0
 42
2.5
  3
txt
  4

  0
ENDTAB
  0
TABLE
  2
VIEW
  5
6
330
0
100
AcDbSymbolTable
 70
     0
  0
ENDTAB
  0
TABLE
  2
UCS
  5
7
330
0
100
AcDbSymbolTable
 70
     0
  0
ENDTAB
  0
TABLE
  2
APPID
  5
9
330
0
100
AcDbSymbolTable
 70
     2
  0
APPID
  5
12
330
9
100
AcDbSymbolTableRecord
100
AcDbRegAppTableRecord
  2
ACAD
 70
     0
  0
ENDTAB
  0
TABLE
  2
DIMSTYLE
  5
A
330
0
100
AcDbSymbolTable
 70
     1
  0
DIMSTYLE
105
27
330
A
100
AcDbSymbolTableRecord
100
AcDbDimStyleTableRecord
  2
ISO-25
 70
     0
  3

  4

  5

  6

  7

 40
1.0
 41
2.5
 42
0.625
 43
3.75
 44
1.25
 45
0.0
 46
0.0
 47
0.0
 48
0.0
140
2.5
141
2.5
142
0.0
143
0.03937007874016
144
1.0
145
0.0
146
1.0
147
0.625
 71
     0
 72
     0
 73
     0
 74
     0
 75
     0
 76
     0
 77
     1
 78
     8
170
     0
171
     3
172
     1
173
     0
174
     0
175
     0
176
     0
177
     0
178
     0
270
     2
271
     2
272
     2
273
     2
274
     3
340
11
275
     0
280
     0
281
     0
282
     0
283
     0
284
     8
285
     0
286
     0
287
     3
288
     0
  0
ENDTAB
  0
TABLE
  2
BLOCK_RECORD
  5
1
330
0
100
AcDbSymbolTable
 70
     1
  0
BLOCK_RECORD
  5
1F
330
1
100
AcDbSymbolTableRecord
100
AcDbBlockTableRecord
  2
*MODEL_SPACE
  0
BLOCK_RECORD
  5
1B
330
1
100
AcDbSymbolTableRecord
100
AcDbBlockTableRecord
  2
*PAPER_SPACE
  0
ENDTAB
  0
ENDSEC
  0
SECTION
  2
BLOCKS
  0
BLOCK
  5
20
330
1F
100
AcDbEntity
  8
0
100
AcDbBlockBegin
  2
*MODEL_SPACE
 70
     0
 10
0.0
 20
0.0
 30
0.0
  3
*MODEL_SPACE
  1

  0
ENDBLK
  5
21
330
1F
100
AcDbEntity
  8
0
100
AcDbBlockEnd
  0
BLOCK
  5
1C
330
1B
100
AcDbEntity
 67
     1
  8
0
100
AcDbBlockBegin
  2
*PAPER_SPACE
  1

  0
ENDBLK
  5
1D
330
1B
100
AcDbEntity
 67
     1
  8
0
100
AcDbBlockEnd
  0
ENDSEC
  0
SECTION
  2
ENTITIES
  0
LINE
  5
100
100
AcDbEntity
  8
Layer_1
 62
1
100
AcDbLine
 10
330.726134
 20
324.286200
 30
0.0
 11
330.726134
 21
300.158317
 31
0.0
  0
LINE
  5
101
100
AcDbEntity
  8
Layer_1
 62
1
100
AcDbLine
 10
327.009534
 20
292.926020
 30
0.0
 11
37.247046
 21
298.615972
 31
0.0
  0
LINE
  5
102
100
AcDbEntity
  8
Layer_1
 62
1
100
AcDbLine
 10
327.009534
 20
332.113700
 30
0.0
 11
37.247046
 21
326.423747
 31
0.0
  0
LINE
  5
103
100
AcDbEntity
  8
Layer_1
 62
1
100
AcDbLine
 10
95.776134
 20
310.322760
 30
0.0
 11
62.834099
 21
310.322760
 31
0.0
  0
LINE
  5
104
100
AcDbEntity
  8
Layer_1
 62
1
100
AcDbLine
 10
62.834099
 20
310.322760
 30
0.0
 11
62.834099
 21
314.722957
 31
0.0
  0
LINE
  5
105
100
AcDbEntity
  8
Layer_1
 62
1
100
AcDbLine
 10
62.834099
 20
314.722957
 30
0.0
 11
95.776134
 21
314.722957
 31
0.0
  0
LINE
  5
106
100
AcDbEntity
  8
Layer_1
 62
1
100
AcDbLine
 10
248.881734
 20
310.322760
 30
0.0
 11
112.356737
 21
310.322760
 31
0.0
  0
LINE
  5
107
100
AcDbEntity
  8
Layer_1
 62
1
100
AcDbLine
 10
262.992834
 20
314.722820
 30
0.0
 11
301.781103
 21
314.722820
 31
0.0
  0
LINE
  5
108
100
AcDbEntity
  8
Layer_1
 62
1
100
AcDbLine
 10
301.781103
 20
314.722820
 30
0.0
 11
301.781103
 21
310.322622
 31
0.0
  0
LINE
  5
109
100
AcDbEntity
  8
Layer_1
 62
1
100
AcDbLine
 10
301.781103
 20
310.322622
 30
0.0
 11
262.992834
 21
310.322622
 31
0.0
  0
LINE
  5
10a
100
AcDbEntity
  8
Layer_1
 62
1
100
AcDbLine
 10
112.356734
 20
314.722820
 30
0.0
 11
248.881731
 21
314.722820
 31
0.0
  0
LINE
  5
10b
100
AcDbEntity
  8
Layer_1
 62
1
100
AcDbLine
 10
102.766934
 20
349.737070
 30
0.0
 11
102.758820
 21
349.936389
 31
0.0
  0
LINE
  5
10c
100
AcDbEntity
  8
Layer_1
 62
1
100
AcDbLine
 10
29.924534
 20
322.104970
 30
0.0
 11
29.924534
 21
302.937142
 31
0.0
  0
LINE
  5
10d
100
AcDbEntity
  8
Layer_1
 62
1
100
AcDbLine
 10
34.242634
 20
302.935100
 30
0.0
 11
34.242634
 21
322.105044
 31
0.0
  0
LINE
  5
10e
100
AcDbEntity
  8
Layer_1
 62
1
100
AcDbLine
 10
466.192634
 20
330.036260
 30
0.0
 11
466.192634
 21
295.168057
 31
0.0
  0
LINE
  5
10f
100
AcDbEntity
  8
Layer_1
 62
1
100
AcDbLine
 10
484.384134
 20
295.262180
 30
0.0
 11
466.192794
 21
295.262180
 31
0.0
  0
LINE
  5
110
100
AcDbEntity
  8
Layer_1
 62
1
100
AcDbLine
 10
466.192794
 20
295.262180
 30
0.0
 11
34.242522
 21
302.935096
 31
0.0
  0
LINE
  5
111
100
AcDbEntity
  8
Layer_1
 62
1
100
AcDbLine
 10
34.242522
 20
302.935096
 30
0.0
 11
17.241103
 21
302.935096
 31
0.0
  0
LINE
  5
112
100
AcDbEntity
  8
Layer_1
 62
1
100
AcDbLine
 10
484.384134
 20
329.913990
 30
0.0
 11
466.192794
 21
329.913990
 31
0.0
  0
LINE
  5
113
100
AcDbEntity
  8
Layer_1
 62
1
100
AcDbLine
 10
466.192794
 20
329.913990
 30
0.0
 11
34.242522
 21
322.104901
 31
0.0
  0
LINE
  5
114
100
AcDbEntity
  8
Layer_1
 62
1
100
AcDbLine
 10
34.242522
 20
322.104901
 30
0.0
 11
17.241103
 21
322.104901
 31
0.0
  0
LINE
  5
115
100
AcDbEntity
  8
Layer_1
 62
1
100
AcDbLine
 10
470.510734
 20
295.164320
 30
0.0
 11
470.510734
 21
330.036402
 31
0.0
  0
LINE
  5
116
100
AcDbEntity
  8
Layer_1
 62
1
100
AcDbLine
 10
384.546934
 20
255.557210
 30
0.0
 11
384.717334
 21
259.852280
 31
0.0
  0
LINE
  5
117
100
AcDbEntity
  8
Layer_1
 62
1
100
AcDbLine
 10
384.717334
 20
259.852280
 30
0.0
 11
128.193934
 21
274.102030
 31
0.0
  0
LINE
  5
118
100
AcDbEntity
  8
Layer_1
 62
1
100
AcDbLine
 10
128.193934
 20
274.102030
 30
0.0
 11
128.030934
 21
269.483110
 31
0.0
  0
LINE
  5
119
100
AcDbEntity
  8
Layer_1
 62
1
100
AcDbLine
 10
128.030934
 20
269.483110
 30
0.0
 11
103.568234
 21
270.670210
 31
0.0
  0
LINE
  5
11a
100
AcDbEntity
  8
Layer_1
 62
1
100
AcDbLine
 10
488.088234
 20
312.102550
 30
0.0
 11
488.088234
 21
290.296300
 31
0.0
  0
LINE
  5
11b
100
AcDbEntity
  8
Layer_1
 62
1
100
AcDbLine
 10
488.088234
 20
290.296300
 30
0.0
 11
466.192034
 21
290.296300
 31
0.0
  0
LINE
  5
11c
100
AcDbEntity
  8
Layer_1
 62
1
100
AcDbLine
 10
466.192034
 20
290.296300
 30
0.0
 11
330.725734
 21
292.852880
 31
0.0
  0
LINE
  5
11d
100
AcDbEntity
  8
Layer_1
 62
1
100
AcDbLine
 10
330.725734
 20
292.852880
 30
0.0
 11
466.192034
 21
278.170980
 31
0.0
  0
LINE
  5
11e
100
AcDbEntity
  8
Layer_1
 62
1
100
AcDbLine
 10
466.192034
 20
278.170980
 30
0.0
 11
466.192034
 21
255.886360
 31
0.0
  0
LINE
  5
11f
100
AcDbEntity
  8
Layer_1
 62
1
100
AcDbLine
 10
466.192034
 20
255.886360
 30
0.0
 11
410.161034
 21
258.613680
 31
0.0
  0
LINE
  5
120
100
AcDbEntity
  8
Layer_1
 62
1
100
AcDbLine
 10
410.161034
 20
258.613680
 30
0.0
 11
409.990634
 21
254.322490
 31
0.0
  0
LINE
  5
121
100
AcDbEntity
  8
Layer_1
 62
1
100
AcDbLine
 10
409.990634
 20
254.322490
 30
0.0
 11
385.525534
 21
255.509590
 31
0.0
  0
LINE
  5
122
100
AcDbEntity
  8
Layer_1
 62
1
100
AcDbLine
 10
385.790134
 20
370.053360
 30
0.0
 11
409.990634
 21
371.228110
 31
0.0
  0
LINE
  5
123
100
AcDbEntity
  8
Layer_1
 62
1
100
AcDbLine
 10
409.990634
 20
371.228110
 30
0.0
 11
410.161034
 21
366.426100
 31
0.0
  0
LINE
  5
124
100
AcDbEntity
  8
Layer_1
 62
1
100
AcDbLine
 10
410.161034
 20
366.426100
 30
0.0
 11
466.192034
 21
369.153420
 31
0.0
  0
LINE
  5
125
100
AcDbEntity
  8
Layer_1
 62
1
100
AcDbLine
 10
466.192034
 20
369.153420
 30
0.0
 11
466.192034
 21
346.915370
 31
0.0
  0
LINE
  5
126
100
AcDbEntity
  8
Layer_1
 62
1
100
AcDbLine
 10
466.192034
 20
346.915370
 30
0.0
 11
330.725734
 21
332.186900
 31
0.0
  0
LINE
  5
127
100
AcDbEntity
  8
Layer_1
 62
1
100
AcDbLine
 10
330.725734
 20
332.186900
 30
0.0
 11
466.192034
 21
334.743480
 31
0.0
  0
LINE
  5
128
100
AcDbEntity
  8
Layer_1
 62
1
100
AcDbLine
 10
466.192034
 20
334.743480
 30
0.0
 11
488.088234
 21
334.743480
 31
0.0
  0
LINE
  5
129
100
AcDbEntity
  8
Layer_1
 62
1
100
AcDbLine
 10
488.088234
 20
334.743480
 30
0.0
 11
488.088234
 21
313.101970
 31
0.0
  0
LINE
  5
12a
100
AcDbEntity
  8
Layer_1
 62
1
100
AcDbLine
 10
103.757734
 20
354.472550
 30
0.0
 11
128.030934
 21
355.650470
 31
0.0
  0
LINE
  5
12b
100
AcDbEntity
  8
Layer_1
 62
1
100
AcDbLine
 10
128.030934
 20
355.650470
 30
0.0
 11
128.197434
 21
350.938420
 31
0.0
  0
LINE
  5
12c
100
AcDbEntity
  8
Layer_1
 62
1
100
AcDbLine
 10
128.197434
 20
350.938420
 30
0.0
 11
384.717334
 21
365.187460
 31
0.0
  0
LINE
  5
12d
100
AcDbEntity
  8
Layer_1
 62
1
100
AcDbLine
 10
384.717334
 20
365.187460
 30
0.0
 11
384.546934
 21
369.993360
 31
0.0
  0
LINE
  5
12e
100
AcDbEntity
  8
Layer_1
 62
1
100
AcDbLine
 10
102.586834
 20
270.717850
 30
0.0
 11
102.750534
 21
275.340290
 31
0.0
  0
LINE
  5
12f
100
AcDbEntity
  8
Layer_1
 62
1
100
AcDbLine
 10
102.750534
 20
275.340290
 30
0.0
 11
34.242134
 21
278.674750
 31
0.0
  0
LINE
  5
130
100
AcDbEntity
  8
Layer_1
 62
1
100
AcDbLine
 10
34.242134
 20
278.674750
 30
0.0
 11
34.242134
 21
298.674780
 31
0.0
  0
LINE
  5
131
100
AcDbEntity
  8
Layer_1
 62
1
100
AcDbLine
 10
34.242134
 20
298.674780
 30
0.0
 11
29.924134
 21
298.674780
 31
0.0
  0
LINE
  5
132
100
AcDbEntity
  8
Layer_1
 62
1
100
AcDbLine
 10
29.924134
 20
298.674780
 30
0.0
 11
14.242104
 21
298.674780
 31
0.0
  0
LINE
  5
133
100
AcDbEntity
  8
Layer_1
 62
1
100
AcDbLine
 10
14.242104
 20
298.674780
 30
0.0
 11
14.242104
 21
326.364980
 31
0.0
  0
LINE
  5
134
100
AcDbEntity
  8
Layer_1
 62
1
100
AcDbLine
 10
14.242104
 20
326.364980
 30
0.0
 11
29.924134
 21
326.364980
 31
0.0
  0
LINE
  5
135
100
AcDbEntity
  8
Layer_1
 62
1
100
AcDbLine
 10
29.924134
 20
326.364980
 30
0.0
 11
34.242134
 21
326.364980
 31
0.0
  0
LINE
  5
136
100
AcDbEntity
  8
Layer_1
 62
1
100
AcDbLine
 10
34.242134
 20
326.364980
 30
0.0
 11
34.242134
 21
346.365010
 31
0.0
  0
LINE
  5
137
100
AcDbEntity
  8
Layer_1
 62
1
100
AcDbLine
 10
34.242134
 20
346.365010
 30
0.0
 11
102.754034
 21
349.699460
 31
0.0
  0
LINE
  5
138
100
AcDbEntity
  8
Layer_1
 62
1
100
AcDbLine
 10
102.754034
 20
349.699460
 30
0.0
 11
102.586834
 21
354.415750
 31
0.0
  0
LINE
  5
139
100
AcDbEntity
  8
Layer_1
 62
3
100
AcDbLine
 10
310.813734
 20
303.759650
 30
0.0
 11
308.602534
 21
303.759650
 31
0.0
  0
LINE
  5
13a
100
AcDbEntity
  8
Layer_1
 62
3
100
AcDbLine
 10
308.602534
 20
303.759650
 30
0.0
 11
308.602534
 21
321.444400
 31
0.0
  0
LINE
  5
13b
100
AcDbEntity
  8
Layer_1
 62
3
100
AcDbLine
 10
308.602534
 20
321.444400
 30
0.0
 11
310.813734
 21
321.444400
 31
0.0
  0
LINE
  5
13c
100
AcDbEntity
  8
Layer_1
 62
3
100
AcDbLine
 10
310.813734
 20
321.444400
 30
0.0
 11
310.813734
 21
303.759650
 31
0.0
  0
LINE
  5
13d
100
AcDbEntity
  8
Layer_1
 62
3
100
AcDbLine
 10
324.629934
 20
301.549140
 30
0.0
 11
308.602534
 21
301.549140
 31
0.0
  0
LINE
  5
13e
100
AcDbEntity
  8
Layer_1
 62
3
100
AcDbLine
 10
308.602534
 20
301.549140
 30
0.0
 11
308.602534
 21
303.759650
 31
0.0
  0
LINE
  5
13f
100
AcDbEntity
  8
Layer_1
 62
3
100
AcDbLine
 10
308.602534
 20
303.759650
 30
0.0
 11
324.629934
 21
303.759650
 31
0.0
  0
LINE
  5
140
100
AcDbEntity
  8
Layer_1
 62
3
100
AcDbLine
 10
324.629934
 20
303.759650
 30
0.0
 11
324.629934
 21
301.549140
 31
0.0
  0
LINE
  5
141
100
AcDbEntity
  8
Layer_1
 62
3
100
AcDbLine
 10
324.629934
 20
321.444040
 30
0.0
 11
308.602534
 21
321.444040
 31
0.0
  0
LINE
  5
142
100
AcDbEntity
  8
Layer_1
 62
3
100
AcDbLine
 10
308.602534
 20
321.444040
 30
0.0
 11
308.602534
 21
323.654900
 31
0.0
  0
LINE
  5
143
100
AcDbEntity
  8
Layer_1
 62
3
100
AcDbLine
 10
308.602534
 20
323.654900
 30
0.0
 11
324.629934
 21
323.654900
 31
0.0
  0
LINE
  5
144
100
AcDbEntity
  8
Layer_1
 62
3
100
AcDbLine
 10
324.629934
 20
323.654900
 30
0.0
 11
324.629934
 21
321.444040
 31
0.0
  0
LINE
  5
145
100
AcDbEntity
  8
Layer_1
 62
3
100
AcDbLine
 10
323.800234
 20
315.736730
 30
0.0
 11
312.148337
 21
315.736730
 31
0.0
  0
LINE
  5
146
100
AcDbEntity
  8
Layer_1
 62
3
100
AcDbLine
 10
312.148337
 20
315.736730
 30
0.0
 11
312.148337
 21
311.989171
 31
0.0
  0
LINE
  5
147
100
AcDbEntity
  8
Layer_1
 62
3
100
AcDbLine
 10
318.343234
 20
311.640490
 30
0.0
 11
318.343234
 21
315.736592
 31
0.0
  0
LINE
  5
148
100
AcDbEntity
  8
Layer_1
 62
3
100
AcDbLine
 10
323.800234
 20
315.736730
 30
0.0
 11
323.800234
 21
311.980352
 31
0.0
  0
SPLINE
  5
149
100
AcDbEntity
  8
Layer_1
 62
3
100
AcDbSpline
 70
8
 71
3
 72
8
 73
4
 74
0
 40
0
 40
0
 40
0
 40
0
 40
1
 40
1
 40
1
 40
1
 10
323.800234
 20
311.980352
 30
0.0
 10
323.558934
 20
308.917535
 30
0.0
 10
318.852526
 20
309.145430
 30
0.0
 10
318.343115
 20
311.640627
 30
0.0
  0
SPLINE
  5
14a
100
AcDbEntity
  8
Layer_1
 62
3
100
AcDbSpline
 70
8
 71
3
 72
8
 73
4
 74
0
 40
0
 40
0
 40
0
 40
0
 40
1
 40
1
 40
1
 40
1
 10
318.343115
 20
311.640627
 30
0.0
 10
318.573479
 20
309.064291
 30
0.0
 10
312.211485
 20
307.875077
 30
0.0
 10
312.148337
 20
311.989171
 30
0.0
  0
LINE
  5
14b
100
AcDbEntity
  8
Layer_1
 62
1
100
AcDbLine
 10
93.877698
 20
184.064576
 30
0.0
 11
93.877698
 21
206.777816
 31
0.0
  0
LINE
  5
14c
100
AcDbEntity
  8
Layer_1
 62
1
100
AcDbLine
 10
143.085198
 20
179.531486
 30
0.0
 11
277.299148
 21
147.431886
 31
0.0
  0
LINE
  5
14d
100
AcDbEntity
  8
Layer_1
 62
1
100
AcDbLine
 10
143.085198
 20
210.622666
 30
0.0
 11
277.299148
 21
242.722621
 31
0.0
  0
LINE
  5
14e
100
AcDbEntity
  8
Layer_1
 62
1
100
AcDbLine
 10
357.125898
 20
172.907196
 30
0.0
 11
161.739928
 21
175.742116
 31
0.0
  0
LINE
  5
14f
100
AcDbEntity
  8
Layer_1
 62
1
100
AcDbLine
 10
357.125898
 20
217.246426
 30
0.0
 11
161.739928
 21
214.382226
 31
0.0
  0
LINE
  5
150
100
AcDbEntity
  8
Layer_1
 62
1
100
AcDbLine
 10
414.234198
 20
177.819036
 30
0.0
 11
360.631378
 21
177.819036
 31
0.0
  0
LINE
  5
151
100
AcDbEntity
  8
Layer_1
 62
1
100
AcDbLine
 10
360.631378
 20
177.819036
 30
0.0
 11
312.247208
 21
177.819036
 31
0.0
  0
LINE
  5
152
100
AcDbEntity
  8
Layer_1
 62
1
100
AcDbLine
 10
312.247208
 20
177.819036
 30
0.0
 11
139.474998
 21
180.395016
 31
0.0
  0
LINE
  5
153
100
AcDbEntity
  8
Layer_1
 62
1
100
AcDbLine
 10
139.474998
 20
180.395016
 30
0.0
 11
96.879198
 21
180.395016
 31
0.0
  0
LINE
  5
154
100
AcDbEntity
  8
Layer_1
 62
1
100
AcDbLine
 10
414.300898
 20
212.471196
 30
0.0
 11
363.596148
 21
212.471196
 31
0.0
  0
LINE
  5
155
100
AcDbEntity
  8
Layer_1
 62
1
100
AcDbLine
 10
357.128098
 20
212.471196
 30
0.0
 11
312.247008
 21
212.471196
 31
0.0
  0
LINE
  5
156
100
AcDbEntity
  8
Layer_1
 62
1
100
AcDbLine
 10
312.247008
 20
212.471196
 30
0.0
 11
139.474798
 21
209.759396
 31
0.0
  0
LINE
  5
157
100
AcDbEntity
  8
Layer_1
 62
1
100
AcDbLine
 10
139.474798
 20
209.759396
 30
0.0
 11
96.868418
 21
209.759396
 31
0.0
  0
LINE
  5
158
100
AcDbEntity
  8
Layer_1
 62
1
100
AcDbLine
 10
364.949498
 20
177.721876
 30
0.0
 11
364.949498
 21
212.593253
 31
0.0
  0
LINE
  5
159
100
AcDbEntity
  8
Layer_1
 62
1
100
AcDbLine
 10
360.631498
 20
181.463366
 30
0.0
 11
360.631498
 21
209.502496
 31
0.0
  0
LINE
  5
15a
100
AcDbEntity
  8
Layer_1
 62
1
100
AcDbLine
 10
52.622698
 20
224.206946
 30
0.0
 11
52.622698
 21
165.245786
 31
0.0
  0
LINE
  5
15b
100
AcDbEntity
  8
Layer_1
 62
1
100
AcDbLine
 10
86.615098
 20
208.358826
 30
0.0
 11
59.339026
 21
226.285936
 31
0.0
  0
LINE
  5
15c
100
AcDbEntity
  8
Layer_1
 62
1
100
AcDbLine
 10
56.877398
 20
224.206946
 30
0.0
 11
56.877398
 21
165.245786
 31
0.0
  0
LINE
  5
15d
100
AcDbEntity
  8
Layer_1
 62
1
100
AcDbLine
 10
59.884598
 20
164.227206
 30
0.0
 11
87.160668
 21
182.154316
 31
0.0
  0
LINE
  5
15e
100
AcDbEntity
  8
Layer_1
 62
1
100
AcDbLine
 10
89.622298
 20
181.467176
 30
0.0
 11
89.622298
 21
209.585326
 31
0.0
  0
LINE
  5
15f
100
AcDbEntity
  8
Layer_1
 62
1
100
AcDbLine
 10
385.422398
 20
177.721876
 30
0.0
 11
385.422398
 21
212.593253
 31
0.0
  0
LINE
  5
160
100
AcDbEntity
  8
Layer_1
 62
1
100
AcDbLine
 10
381.104298
 20
181.463366
 30
0.0
 11
381.104298
 21
209.502496
 31
0.0
  0
SPLINE
  5
161
100
AcDbEntity
  8
Layer_1
 62
1
100
AcDbSpline
 70
8
 71
3
 72
8
 73
4
 74
0
 40
0
 40
0
 40
0
 40
0
 40
1
 40
1
 40
1
 40
1
 10
23.318198
 20
195.076916
 30
0.0
 10
23.318198
 20
195.629366
 30
0.0
 10
22.870170
 20
196.077394
 30
0.0
 10
22.318073
 20
196.077394
 30
0.0
  0
SPLINE
  5
162
100
AcDbEntity
  8
Layer_1
 62
1
100
AcDbSpline
 70
8
 71
3
 72
8
 73
4
 74
0
 40
0
 40
0
 40
0
 40
0
 40
1
 40
1
 40
1
 40
1
 10
22.318073
 20
196.077394
 30
0.0
 10
21.765976
 20
196.077394
 30
0.0
 10
21.317948
 20
195.629366
 30
0.0
 10
21.317948
 20
195.076916
 30
0.0
  0
SPLINE
  5
163
100
AcDbEntity
  8
Layer_1
 62
1
100
AcDbSpline
 70
8
 71
3
 72
8
 73
4
 74
0
 40
0
 40
0
 40
0
 40
0
 40
1
 40
1
 40
1
 40
1
 10
21.317948
 20
195.076916
 30
0.0
 10
21.317948
 20
194.525172
 30
0.0
 10
21.765976
 20
194.077144
 30
0.0
 10
22.318073
 20
194.077144
 30
0.0
  0
SPLINE
  5
164
100
AcDbEntity
  8
Layer_1
 62
1
100
AcDbSpline
 70
8
 71
3
 72
8
 73
4
 74
0
 40
0
 40
0
 40
0
 40
0
 40
1
 40
1
 40
1
 40
1
 10
22.318073
 20
194.077144
 30
0.0
 10
22.870170
 20
194.077144
 30
0.0
 10
23.318198
 20
194.525172
 30
0.0
 10
23.318198
 20
195.076916
 30
0.0
  0
LINE
  5
165
100
AcDbEntity
  8
Layer_1
 62
1
100
AcDbLine
 10
23.318198
 20
195.076916
 30
0.0
 11
23.318198
 21
195.076916
 31
0.0
  0
SPLINE
  5
166
100
AcDbEntity
  8
Layer_1
 62
1
100
AcDbSpline
 70
8
 71
3
 72
8
 73
4
 74
0
 40
0
 40
0
 40
0
 40
0
 40
1
 40
1
 40
1
 40
1
 10
400.687598
 20
195.157526
 30
0.0
 10
400.687598
 20
194.605076
 30
0.0
 10
401.135626
 20
194.157401
 30
0.0
 10
401.688076
 20
194.157401
 30
0.0
  0
SPLINE
  5
167
100
AcDbEntity
  8
Layer_1
 62
1
100
AcDbSpline
 70
8
 71
3
 72
8
 73
4
 74
0
 40
0
 40
0
 40
0
 40
0
 40
1
 40
1
 40
1
 40
1
 10
401.688076
 20
194.157401
 30
0.0
 10
402.240173
 20
194.157401
 30
0.0
 10
402.687848
 20
194.605076
 30
0.0
 10
402.687848
 20
195.157526
 30
0.0
  0
SPLINE
  5
168
100
AcDbEntity
  8
Layer_1
 62
1
100
AcDbSpline
 70
8
 71
3
 72
8
 73
4
 74
0
 40
0
 40
0
 40
0
 40
0
 40
1
 40
1
 40
1
 40
1
 10
402.687848
 20
195.157526
 30
0.0
 10
402.687848
 20
195.709976
 30
0.0
 10
402.240173
 20
196.157298
 30
0.0
 10
401.688076
 20
196.157298
 30
0.0
  0
SPLINE
  5
169
100
AcDbEntity
  8
Layer_1
 62
1
100
AcDbSpline
 70
8
 71
3
 72
8
 73
4
 74
0
 40
0
 40
0
 40
0
 40
0
 40
1
 40
1
 40
1
 40
1
 10
401.688076
 20
196.157298
 30
0.0
 10
401.135626
 20
196.157298
 30
0.0
 10
400.687598
 20
195.709976
 30
0.0
 10
400.687598
 20
195.157526
 30
0.0
  0
LINE
  5
16a
100
AcDbEntity
  8
Layer_1
 62
1
100
AcDbLine
 10
400.687598
 20
195.157526
 30
0.0
 11
400.687598
 21
195.157526
 31
0.0
  0
SPLINE
  5
16b
100
AcDbEntity
  8
Layer_1
 62
1
100
AcDbSpline
 70
8
 71
3
 72
8
 73
4
 74
0
 40
0
 40
0
 40
0
 40
0
 40
1
 40
1
 40
1
 40
1
 10
68.217298
 20
205.676766
 30
0.0
 10
68.217298
 20
205.262605
 30
0.0
 10
68.553142
 20
204.926760
 30
0.0
 10
68.967304
 20
204.926760
 30
0.0
  0
SPLINE
  5
16c
100
AcDbEntity
  8
Layer_1
 62
1
100
AcDbSpline
 70
8
 71
3
 72
8
 73
4
 74
0
 40
0
 40
0
 40
0
 40
0
 40
1
 40
1
 40
1
 40
1
 10
68.967304
 20
204.926760
 30
0.0
 10
69.381817
 20
204.926760
 30
0.0
 10
69.717309
 20
205.262605
 30
0.0
 10
69.717309
 20
205.676766
 30
0.0
  0
SPLINE
  5
16d
100
AcDbEntity
  8
Layer_1
 62
1
100
AcDbSpline
 70
8
 71
3
 72
8
 73
4
 74
0
 40
0
 40
0
 40
0
 40
0
 40
1
 40
1
 40
1
 40
1
 10
69.717309
 20
205.676766
 30
0.0
 10
69.717309
 20
206.090927
 30
0.0
 10
69.381817
 20
206.426772
 30
0.0
 10
68.967304
 20
206.426772
 30
0.0
  0
SPLINE
  5
16e
100
AcDbEntity
  8
Layer_1
 62
1
100
AcDbSpline
 70
8
 71
3
 72
8
 73
4
 74
0
 40
0
 40
0
 40
0
 40
0
 40
1
 40
1
 40
1
 40
1
 10
68.967304
 20
206.426772
 30
0.0
 10
68.553142
 20
206.426772
 30
0.0
 10
68.217298
 20
206.090927
 30
0.0
 10
68.217298
 20
205.676766
 30
0.0
  0
LINE
  5
16f
100
AcDbEntity
  8
Layer_1
 62
1
100
AcDbLine
 10
68.217298
 20
205.676766
 30
0.0
 11
68.217298
 21
205.676766
 31
0.0
  0
SPLINE
  5
170
100
AcDbEntity
  8
Layer_1
 62
1
100
AcDbSpline
 70
8
 71
3
 72
8
 73
4
 74
0
 40
0
 40
0
 40
0
 40
0
 40
1
 40
1
 40
1
 40
1
 10
68.217298
 20
184.477706
 30
0.0
 10
68.217298
 20
184.063545
 30
0.0
 10
68.553142
 20
183.727348
 30
0.0
 10
68.967304
 20
183.727348
 30
0.0
  0
SPLINE
  5
171
100
AcDbEntity
  8
Layer_1
 62
1
100
AcDbSpline
 70
8
 71
3
 72
8
 73
4
 74
0
 40
0
 40
0
 40
0
 40
0
 40
1
 40
1
 40
1
 40
1
 10
68.967304
 20
183.727348
 30
0.0
 10
69.381817
 20
183.727348
 30
0.0
 10
69.717309
 20
184.063545
 30
0.0
 10
69.717309
 20
184.477706
 30
0.0
  0
SPLINE
  5
172
100
AcDbEntity
  8
Layer_1
 62
1
100
AcDbSpline
 70
8
 71
3
 72
8
 73
4
 74
0
 40
0
 40
0
 40
0
 40
0
 40
1
 40
1
 40
1
 40
1
 10
69.717309
 20
184.477706
 30
0.0
 10
69.717309
 20
184.891867
 30
0.0
 10
69.381817
 20
185.227712
 30
0.0
 10
68.967304
 20
185.227712
 30
0.0
  0
SPLINE
  5
173
100
AcDbEntity
  8
Layer_1
 62
1
100
AcDbSpline
 70
8
 71
3
 72
8
 73
4
 74
0
 40
0
 40
0
 40
0
 40
0
 40
1
 40
1
 40
1
 40
1
 10
68.967304
 20
185.227712
 30
0.0
 10
68.553142
 20
185.227712
 30
0.0
 10
68.217298
 20
184.891867
 30
0.0
 10
68.217298
 20
184.477706
 30
0.0
  0
LINE
  5
174
100
AcDbEntity
  8
Layer_1
 62
1
100
AcDbLine
 10
68.217298
 20
184.477706
 30
0.0
 11
68.217298
 21
184.477706
 31
0.0
  0
LINE
  5
175
100
AcDbEntity
  8
Layer_1
 62
1
100
AcDbLine
 10
93.877498
 20
136.119026
 30
0.0
 11
93.877498
 21
180.395086
 31
0.0
  0
SPLINE
  5
176
100
AcDbEntity
  8
Layer_1
 62
1
100
AcDbSpline
 70
8
 71
3
 72
8
 73
4
 74
0
 40
0
 40
0
 40
0
 40
0
 40
1
 40
1
 40
1
 40
1
 10
93.877498
 20
180.395086
 30
0.0
 10
93.877498
 20
180.395436
 30
0.0
 10
56.877098
 20
156.077056
 30
0.0
 10
56.877098
 20
156.077056
 30
0.0
  0
LINE
  5
177
100
AcDbEntity
  8
Layer_1
 62
1
100
AcDbLine
 10
56.877098
 20
156.077056
 30
0.0
 11
56.877098
 21
162.250666
 31
0.0
  0
LINE
  5
178
100
AcDbEntity
  8
Layer_1
 62
1
100
AcDbLine
 10
56.877098
 20
162.250666
 30
0.0
 11
11.242458
 21
162.361086
 31
0.0
  0
LINE
  5
179
100
AcDbEntity
  8
Layer_1
 62
1
100
AcDbLine
 10
11.242458
 20
162.361086
 30
0.0
 11
11.242458
 21
194.577456
 31
0.0
  0
LINE
  5
17a
100
AcDbEntity
  8
Layer_1
 62
1
100
AcDbLine
 10
11.242458
 20
195.576876
 30
0.0
 11
11.242458
 21
228.014086
 31
0.0
  0
LINE
  5
17b
100
AcDbEntity
  8
Layer_1
 62
1
100
AcDbLine
 10
11.242458
 20
228.014086
 30
0.0
 11
56.877098
 21
227.904016
 31
0.0
  0
LINE
  5
17c
100
AcDbEntity
  8
Layer_1
 62
1
100
AcDbLine
 10
56.877098
 20
227.904016
 30
0.0
 11
56.877098
 21
234.077276
 31
0.0
  0
LINE
  5
17d
100
AcDbEntity
  8
Layer_1
 62
1
100
AcDbLine
 10
56.877098
 20
234.077276
 30
0.0
 11
93.877498
 21
209.759246
 31
0.0
  0
LINE
  5
17e
100
AcDbEntity
  8
Layer_1
 62
1
100
AcDbLine
 10
93.877498
 20
209.759246
 30
0.0
 11
93.877498
 21
254.035676
 31
0.0
  0
LINE
  5
17f
100
AcDbEntity
  8
Layer_1
 62
1
100
AcDbLine
 10
94.877198
 20
254.035676
 30
0.0
 11
128.890998
 21
254.035676
 31
0.0
  0
LINE
  5
180
100
AcDbEntity
  8
Layer_1
 62
1
100
AcDbLine
 10
128.890998
 20
254.035676
 30
0.0
 11
361.141898
 21
239.868476
 31
0.0
  0
LINE
  5
181
100
AcDbEntity
  8
Layer_1
 62
1
100
AcDbLine
 10
362.141998
 20
239.792276
 30
0.0
 11
360.816298
 21
217.300576
 31
0.0
  0
LINE
  5
182
100
AcDbEntity
  8
Layer_1
 62
1
100
AcDbLine
 10
360.816298
 20
217.300576
 30
0.0
 11
361.160268
 21
217.300226
 31
0.0
  0
SPLINE
  5
183
100
AcDbEntity
  8
Layer_1
 62
1
100
AcDbSpline
 70
8
 71
3
 72
8
 73
4
 74
0
 40
0
 40
0
 40
0
 40
0
 40
1
 40
1
 40
1
 40
1
 10
361.160268
 20
217.300226
 30
0.0
 10
361.160268
 20
217.300226
 30
0.0
 10
418.465868
 20
217.300226
 30
0.0
 10
418.465468
 20
217.300576
 30
0.0
  0
SPLINE
  5
184
100
AcDbEntity
  8
Layer_1
 62
1
100
AcDbSpline
 70
8
 71
3
 72
8
 73
4
 74
0
 40
0
 40
0
 40
0
 40
0
 40
1
 40
1
 40
1
 40
1
 10
418.465468
 20
217.300576
 30
0.0
 10
418.465468
 20
217.300576
 30
0.0
 10
417.936298
 20
172.853756
 30
0.0
 10
417.936698
 20
172.853396
 30
0.0
  0
LINE
  5
185
100
AcDbEntity
  8
Layer_1
 62
1
100
AcDbLine
 10
417.936698
 20
172.853396
 30
0.0
 11
360.816298
 21
172.853396
 31
0.0
  0
LINE
  5
186
100
AcDbEntity
  8
Layer_1
 62
1
100
AcDbLine
 10
360.816298
 20
172.853396
 30
0.0
 11
362.132898
 21
150.369816
 31
0.0
  0
LINE
  5
187
100
AcDbEntity
  8
Layer_1
 62
1
100
AcDbLine
 10
360.961298
 20
150.280206
 30
0.0
 11
139.474398
 21
136.118996
 31
0.0
  0
LINE
  5
188
100
AcDbEntity
  8
Layer_1
 62
1
100
AcDbLine
 10
138.474898
 20
136.118996
 30
0.0
 11
94.877198
 21
136.118996
 31
0.0
  0
LINE
  5
189
100
AcDbEntity
  8
Layer_1
 62
3
100
AcDbLine
 10
261.993598
 20
186.234576
 30
0.0
 11
259.782398
 21
186.234576
 31
0.0
  0
LINE
  5
18a
100
AcDbEntity
  8
Layer_1
 62
3
100
AcDbLine
 10
259.782398
 20
186.234576
 30
0.0
 11
259.782398
 21
203.919326
 31
0.0
  0
LINE
  5
18b
100
AcDbEntity
  8
Layer_1
 62
3
100
AcDbLine
 10
259.782398
 20
203.919326
 30
0.0
 11
261.993598
 21
203.919326
 31
0.0
  0
LINE
  5
18c
100
AcDbEntity
  8
Layer_1
 62
3
100
AcDbLine
 10
261.993598
 20
203.919326
 30
0.0
 11
261.993598
 21
186.234576
 31
0.0
  0
LINE
  5
18d
100
AcDbEntity
  8
Layer_1
 62
3
100
AcDbLine
 10
275.809798
 20
184.024426
 30
0.0
 11
259.782398
 21
184.024426
 31
0.0
  0
LINE
  5
18e
100
AcDbEntity
  8
Layer_1
 62
3
100
AcDbLine
 10
259.782398
 20
184.024426
 30
0.0
 11
259.782398
 21
186.234936
 31
0.0
  0
LINE
  5
18f
100
AcDbEntity
  8
Layer_1
 62
3
100
AcDbLine
 10
259.782398
 20
186.234936
 30
0.0
 11
275.809798
 21
186.234936
 31
0.0
  0
LINE
  5
190
100
AcDbEntity
  8
Layer_1
 62
3
100
AcDbLine
 10
275.809798
 20
186.234936
 30
0.0
 11
275.809798
 21
184.024426
 31
0.0
  0
LINE
  5
191
100
AcDbEntity
  8
Layer_1
 62
3
100
AcDbLine
 10
275.809798
 20
203.919326
 30
0.0
 11
259.782398
 21
203.919326
 31
0.0
  0
LINE
  5
192
100
AcDbEntity
  8
Layer_1
 62
3
100
AcDbLine
 10
259.782398
 20
203.919326
 30
0.0
 11
259.782398
 21
206.130186
 31
0.0
  0
LINE
  5
193
100
AcDbEntity
  8
Layer_1
 62
3
100
AcDbLine
 10
259.782398
 20
206.130186
 30
0.0
 11
275.809798
 21
206.130186
 31
0.0
  0
LINE
  5
194
100
AcDbEntity
  8
Layer_1
 62
3
100
AcDbLine
 10
275.809798
 20
206.130186
 30
0.0
 11
275.809798
 21
203.919326
 31
0.0
  0
LINE
  5
195
100
AcDbEntity
  8
Layer_1
 62
3
100
AcDbLine
 10
274.980198
 20
198.211946
 30
0.0
 11
263.328301
 21
198.211946
 31
0.0
  0
LINE
  5
196
100
AcDbEntity
  8
Layer_1
 62
3
100
AcDbLine
 10
263.328301
 20
198.211946
 30
0.0
 11
263.328301
 21
194.464388
 31
0.0
  0
LINE
  5
197
100
AcDbEntity
  8
Layer_1
 62
3
100
AcDbLine
 10
269.523098
 20
194.115736
 30
0.0
 11
269.523098
 21
198.211839
 31
0.0
  0
LINE
  5
198
100
AcDbEntity
  8
Layer_1
 62
3
100
AcDbLine
 10
274.980198
 20
198.211946
 30
0.0
 11
274.980198
 21
194.455568
 31
0.0
  0
SPLINE
  5
199
100
AcDbEntity
  8
Layer_1
 62
3
100
AcDbSpline
 70
8
 71
3
 72
8
 73
4
 74
0
 40
0
 40
0
 40
0
 40
0
 40
1
 40
1
 40
1
 40
1
 10
274.980198
 20
194.455568
 30
0.0
 10
274.738898
 20
191.392752
 30
0.0
 10
270.032490
 20
191.620646
 30
0.0
 10
269.523079
 20
194.115843
 30
0.0
  0
SPLINE
  5
19a
100
AcDbEntity
  8
Layer_1
 62
3
100
AcDbSpline
 70
8
 71
3
 72
8
 73
4
 74
0
 40
0
 40
0
 40
0
 40
0
 40
1
 40
1
 40
1
 40
1
 10
269.523079
 20
194.115843
 30
0.0
 10
269.753443
 20
191.539507
 30
0.0
 10
263.391448
 20
190.350293
 30
0.0
 10
263.328301
 20
194.464388
 30
0.0
  0
ENDSEC
  0
SECTION
  2
OBJECTS
  0
DICTIONARY
  5
C
330
0
100
AcDbDictionary
  3
ACAD_GROUP
350
D
  3
ACAD_MLINESTYLE
350
17
  0
DICTIONARY
  5
D
330
C
100
AcDbDictionary
  0
DICTIONARY
  5
1A
330
C
100
AcDbDictionary
  0
DICTIONARY
  5
17
330
C
100
AcDbDictionary
  3
STANDARD
350
18
  0
DICTIONARY
  5
19
330
C
100
AcDbDictionary
  0
ENDSEC
  0
EOF
