  0
SECTION
  2
HEADER
  9
$ACADVER
  1
AC1014
  9
$HANDSEED
  5
FFFF
  9
$MEASUREMENT
 70
     1
  0
ENDSEC
  0
SECTION
  2
TABLES
  0
TABLE
  2
VPORT
  5
8
330
0
100
AcDbSymbolTable
 70
     4
  0
VPORT
  5
2E
330
8
100
AcDbSymbolTableRecord
100
AcDbViewportTableRecord
  2
*ACTIVE
 70
     0
 10
0.0
 20
0.0
 11
1.0
 21
1.0
 12
210.0
 22
148.5
 13
0.0
 23
0.0
 14
10.0
 24
10.0
 15
10.0
 25
10.0
 16
0.0
 26
0.0
 36
1.0
 17
0.0
 27
0.0
 37
0.0
 40
341.0
 41
1.24
 42
50.0
 43
0.0
 44
0.0
 50
0.0
 51
0.0
 71
     0
 72
   100
 73
     1
 74
     3
 75
     0
 76
     0
 77
     0
 78
     0
  0
ENDTAB
  0
TABLE
  2
LTYPE
  5
5
330
0
100
AcDbSymbolTable
 70
     1
  0
LTYPE
  5
14
330
5
100
AcDbSymbolTableRecord
100
AcDbLinetypeTableRecord
  2
BYBLOCK
 70
     0
  3

 72
    65
 73
     0
 40
0.0
  0
LTYPE
  5
15
330
5
100
AcDbSymbolTableRecord
100
AcDbLinetypeTableRecord
  2
BYLAYER
 70
     0
  3

 72
    65
 73
     0
 40
0.0
  0
LTYPE
  5
16
330
5
100
AcDbSymbolTableRecord
100
AcDbLinetypeTableRecord
  2
CONTINUOUS
 70
     0
  3
Solid line
 72
    65
 73
     0
 40
0.0
  0
ENDTAB
  0
TABLE
  2
LAYER
  5
2
100
AcDbSymbolTable
 70
2
  0
LAYER
  5
50
100
AcDbSymbolTableRecord
100
AcDbLayerTableRecord
  2
0
 70
0
  6
CONTINUOUS
  0
LAYER
  5
51
100
AcDbSymbolTableRecord
100
AcDbLayerTableRecord
  2
Layer_1
 70
0
  6
CONTINUOUS
  0
ENDTAB
  0
TABLE
  2
STYLE
  5
3
330
0
100
AcDbSymbolTable
 70
     1
  0
STYLE
  5
11
330
3
100
AcDbSymbolTableRecord
100
AcDbTextStyleTableRecord
  2
STANDARD
 70
     0
 40
0.0
 41
1.0
 50
0.0
 71
     0
 42
2.5
  3
txt
  4

  0
ENDTAB
  0
TABLE
  2
VIEW
  5
6
330
0
100
AcDbSymbolTable
 70
     0
  0
ENDTAB
  0
TABLE
  2
UCS
  5
7
330
0
100
AcDbSymbolTable
 70
     0
  0
ENDTAB
  0
TABLE
  2
APPID
  5
9
330
0
100
AcDbSymbolTable
 70
     2
  0
APPID
  5
12
330
9
100
AcDbSymbolTableRecord
100
AcDbRegAppTableRecord
  2
ACAD
 70
     0
  0
ENDTAB
  0
TABLE
  2
DIMSTYLE
  5
A
330
0
100
AcDbSymbolTable
 70
     1
  0
DIMSTYLE
105
27
330
A
100
AcDbSymbolTableRecord
100
AcDbDimStyleTableRecord
  2
ISO-25
 70
     0
  3

  4

  5

  6

  7

 40
1.0
 41
2.5
 42
0.625
 43
3.75
 44
1.25
 45
0.0
 46
0.0
 47
0.0
 48
0.0
140
2.5
141
2.5
142
0.0
143
0.03937007874016
144
1.0
145
0.0
146
1.0
147
0.625
 71
     0
 72
     0
 73
     0
 74
     0
 75
     0
 76
     0
 77
     1
 78
     8
170
     0
171
     3
172
     1
173
     0
174
     0
175
     0
176
     0
177
     0
178
     0
270
     2
271
     2
272
     2
273
     2
274
     3
340
11
275
     0
280
     0
281
     0
282
     0
283
     0
284
     8
285
     0
286
     0
287
     3
288
     0
  0
ENDTAB
  0
TABLE
  2
BLOCK_RECORD
  5
1
330
0
100
AcDbSymbolTable
 70
     1
  0
BLOCK_RECORD
  5
1F
330
1
100
AcDbSymbolTableRecord
100
AcDbBlockTableRecord
  2
*MODEL_SPACE
  0
BLOCK_RECORD
  5
1B
330
1
100
AcDbSymbolTableRecord
100
AcDbBlockTableRecord
  2
*PAPER_SPACE
  0
ENDTAB
  0
ENDSEC
  0
SECTION
  2
BLOCKS
  0
BLOCK
  5
20
330
1F
100
AcDbEntity
  8
0
100
AcDbBlockBegin
  2
*MODEL_SPACE
 70
     0
 10
0.0
 20
0.0
 30
0.0
  3
*MODEL_SPACE
  1

  0
ENDBLK
  5
21
330
1F
100
AcDbEntity
  8
0
100
AcDbBlockEnd
  0
BLOCK
  5
1C
330
1B
100
AcDbEntity
 67
     1
  8
0
100
AcDbBlockBegin
  2
*PAPER_SPACE
  1

  0
ENDBLK
  5
1D
330
1B
100
AcDbEntity
 67
     1
  8
0
100
AcDbBlockEnd
  0
ENDSEC
  0
SECTION
  2
ENTITIES
  0
LINE
  5
100
100
AcDbEntity
  8
Layer_1
 62
1
100
AcDbLine
 10
310.651970
 20
11.169000
 30
0.0
 11
295.672440
 21
371.163836
 31
0.0
  0
LINE
  5
101
100
AcDbEntity
  8
Layer_1
 62
1
100
AcDbLine
 10
192.812410
 20
11.169000
 30
0.0
 11
207.792480
 21
371.172346
 31
0.0
  0
LINE
  5
102
100
AcDbEntity
  8
Layer_1
 62
1
100
AcDbLine
 10
402.177660
 20
241.209300
 30
0.0
 11
422.008360
 21
10.602000
 31
0.0
  0
LINE
  5
103
100
AcDbEntity
  8
Layer_1
 62
1
100
AcDbLine
 10
357.075300
 20
248.754200
 30
0.0
 11
351.554010
 21
371.100469
 31
0.0
  0
LINE
  5
104
100
AcDbEntity
  8
Layer_1
 62
1
100
AcDbLine
 10
397.013910
 20
241.193300
 30
0.0
 11
390.159440
 21
9.169240
 31
0.0
  0
LINE
  5
105
100
AcDbEntity
  8
Layer_1
 62
1
100
AcDbLine
 10
147.561780
 20
223.581800
 30
0.0
 11
146.411720
 21
242.007383
 31
0.0
  0
LINE
  5
106
100
AcDbEntity
  8
Layer_1
 62
1
100
AcDbLine
 10
155.781540
 20
84.745700
 30
0.0
 11
149.390970
 21
192.627960
 31
0.0
  0
LINE
  5
107
100
AcDbEntity
  8
Layer_1
 62
1
100
AcDbLine
 10
160.238810
 20
9.963900
 30
0.0
 11
157.623320
 21
53.833930
 31
0.0
  0
LINE
  5
108
100
AcDbEntity
  8
Layer_1
 62
1
100
AcDbLine
 10
101.286770
 20
241.209300
 30
0.0
 11
81.456073
 21
10.602000
 31
0.0
  0
LINE
  5
109
100
AcDbEntity
  8
Layer_1
 62
1
100
AcDbLine
 10
146.389220
 20
248.754200
 30
0.0
 11
151.907960
 21
371.152335
 31
0.0
  0
LINE
  5
10a
100
AcDbEntity
  8
Layer_1
 62
1
100
AcDbLine
 10
106.450770
 20
241.193300
 30
0.0
 11
113.304890
 21
9.169240
 31
0.0
  0
LINE
  5
10b
100
AcDbEntity
  8
Layer_1
 62
3
100
AcDbLine
 10
106.341570
 20
244.889300
 30
0.0
 11
146.222040
 21
245.048050
 31
0.0
  0
LINE
  5
10c
100
AcDbEntity
  8
Layer_1
 62
3
100
AcDbLine
 10
146.222040
 20
245.048050
 30
0.0
 11
202.537720
 21
244.889300
 31
0.0
  0
LINE
  5
10d
100
AcDbEntity
  8
Layer_1
 62
3
100
AcDbLine
 10
397.123130
 20
244.889300
 30
0.0
 11
300.920280
 21
245.048050
 31
0.0
  0
LINE
  5
10e
100
AcDbEntity
  8
Layer_1
 62
7
100
AcDbLine
 10
192.658430
 20
7.468700
 30
0.0
 11
160.464640
 21
6.175060
 31
0.0
  0
LINE
  5
10f
100
AcDbEntity
  8
Layer_1
 62
7
100
AcDbLine
 10
160.464640
 20
6.175060
 30
0.0
 11
113.393150
 21
6.175060
 31
0.0
  0
LINE
  5
110
100
AcDbEntity
  8
Layer_1
 62
7
100
AcDbLine
 10
113.393150
 20
6.175060
 30
0.0
 11
81.199705
 21
7.544190
 31
0.0
  0
LINE
  5
111
100
AcDbEntity
  8
Layer_1
 62
7
100
AcDbLine
 10
81.199705
 20
7.544190
 30
0.0
 11
81.199705
 21
7.468690
 31
0.0
  0
LINE
  5
112
100
AcDbEntity
  8
Layer_1
 62
7
100
AcDbLine
 10
81.199705
 20
7.468690
 30
0.0
 11
22.302398
 21
5.425410
 31
0.0
  0
LINE
  5
113
100
AcDbEntity
  8
Layer_1
 62
7
100
AcDbLine
 10
22.302398
 20
5.425410
 30
0.0
 11
17.564239
 21
244.889198
 31
0.0
  0
LINE
  5
114
100
AcDbEntity
  8
Layer_1
 62
7
100
AcDbLine
 10
17.564239
 20
244.889198
 30
0.0
 11
101.603310
 21
244.889198
 31
0.0
  0
LINE
  5
115
100
AcDbEntity
  8
Layer_1
 62
7
100
AcDbLine
 10
101.603310
 20
244.889198
 30
0.0
 11
106.341470
 21
244.889198
 31
0.0
  0
LINE
  5
116
100
AcDbEntity
  8
Layer_1
 62
7
100
AcDbLine
 10
106.341470
 20
244.889198
 30
0.0
 11
107.949080
 21
280.525044
 31
0.0
  0
LINE
  5
117
100
AcDbEntity
  8
Layer_1
 62
7
100
AcDbLine
 10
107.949080
 20
280.525044
 30
0.0
 11
107.909180
 21
280.525397
 31
0.0
  0
LINE
  5
118
100
AcDbEntity
  8
Layer_1
 62
7
100
AcDbLine
 10
107.909180
 20
280.525397
 30
0.0
 11
103.076830
 21
280.696847
 31
0.0
  0
LINE
  5
119
100
AcDbEntity
  8
Layer_1
 62
7
100
AcDbLine
 10
103.076830
 20
280.696847
 30
0.0
 11
104.311550
 21
306.140943
 31
0.0
  0
LINE
  5
11a
100
AcDbEntity
  8
Layer_1
 62
7
100
AcDbLine
 10
104.311550
 20
306.140943
 30
0.0
 11
109.143900
 21
305.969493
 31
0.0
  0
LINE
  5
11b
100
AcDbEntity
  8
Layer_1
 62
7
100
AcDbLine
 10
109.143900
 20
305.969493
 30
0.0
 11
109.097000
 21
305.970199
 31
0.0
  0
LINE
  5
11c
100
AcDbEntity
  8
Layer_1
 62
7
100
AcDbLine
 10
109.097000
 20
305.970199
 30
0.0
 11
112.038430
 21
371.172703
 31
0.0
  0
LINE
  5
11d
100
AcDbEntity
  8
Layer_1
 62
7
100
AcDbLine
 10
391.425090
 20
371.201729
 30
0.0
 11
394.365110
 21
306.030904
 31
0.0
  0
LINE
  5
11e
100
AcDbEntity
  8
Layer_1
 62
7
100
AcDbLine
 10
394.365110
 20
306.030904
 30
0.0
 11
394.502690
 21
306.036904
 31
0.0
  0
LINE
  5
11f
100
AcDbEntity
  8
Layer_1
 62
7
100
AcDbLine
 10
394.502690
 20
306.036904
 30
0.0
 11
399.334690
 21
306.208707
 31
0.0
  0
LINE
  5
120
100
AcDbEntity
  8
Layer_1
 62
7
100
AcDbLine
 10
399.334690
 20
306.208707
 30
0.0
 11
400.569410
 21
280.764610
 31
0.0
  0
LINE
  5
121
100
AcDbEntity
  8
Layer_1
 62
7
100
AcDbLine
 10
400.569410
 20
280.764610
 30
0.0
 11
395.737410
 21
280.592808
 31
0.0
  0
LINE
  5
122
100
AcDbEntity
  8
Layer_1
 62
7
100
AcDbLine
 10
395.737410
 20
280.592808
 30
0.0
 11
395.513050
 21
280.582578
 31
0.0
  0
LINE
  5
123
100
AcDbEntity
  8
Layer_1
 62
7
100
AcDbLine
 10
395.513050
 20
280.582578
 30
0.0
 11
397.123120
 21
244.891698
 31
0.0
  0
LINE
  5
124
100
AcDbEntity
  8
Layer_1
 62
7
100
AcDbLine
 10
397.123120
 20
244.891698
 30
0.0
 11
401.861280
 21
244.891698
 31
0.0
  0
LINE
  5
125
100
AcDbEntity
  8
Layer_1
 62
7
100
AcDbLine
 10
401.861280
 20
244.891698
 30
0.0
 11
485.900000
 21
244.891698
 31
0.0
  0
LINE
  5
126
100
AcDbEntity
  8
Layer_1
 62
7
100
AcDbLine
 10
485.900000
 20
244.891698
 30
0.0
 11
481.161840
 21
5.458950
 31
0.0
  0
LINE
  5
127
100
AcDbEntity
  8
Layer_1
 62
7
100
AcDbLine
 10
481.161840
 20
5.458950
 30
0.0
 11
422.264540
 21
7.469080
 31
0.0
  0
LINE
  5
128
100
AcDbEntity
  8
Layer_1
 62
7
100
AcDbLine
 10
422.264540
 20
7.469080
 30
0.0
 11
422.264540
 21
7.544580
 31
0.0
  0
LINE
  5
129
100
AcDbEntity
  8
Layer_1
 62
7
100
AcDbLine
 10
422.264540
 20
7.544580
 30
0.0
 11
390.071100
 21
6.175450
 31
0.0
  0
LINE
  5
12a
100
AcDbEntity
  8
Layer_1
 62
7
100
AcDbLine
 10
390.071100
 20
6.175450
 30
0.0
 11
342.999610
 21
6.175450
 31
0.0
  0
LINE
  5
12b
100
AcDbEntity
  8
Layer_1
 62
7
100
AcDbLine
 10
342.999610
 20
6.175450
 30
0.0
 11
310.805810
 21
7.469090
 31
0.0
  0
LINE
  5
12c
100
AcDbEntity
  8
Layer_1
 62
7
100
AcDbLine
 10
310.805810
 20
7.469090
 30
0.0
 11
193.011910
 21
7.469090
 31
0.0
  0
LINE
  5
12d
100
AcDbEntity
  8
Layer_1
 62
7
100
AcDbLine
 10
143.703280
 20
207.024800
 30
0.0
 11
144.392255
 21
195.260720
 31
0.0
  0
LINE
  5
12e
100
AcDbEntity
  8
Layer_1
 62
7
100
AcDbLine
 10
144.392255
 20
195.260720
 30
0.0
 11
149.213316
 21
195.626903
 31
0.0
  0
LINE
  5
12f
100
AcDbEntity
  8
Layer_1
 62
7
100
AcDbLine
 10
149.213316
 20
195.626903
 30
0.0
 11
147.798324
 21
219.789005
 31
0.0
  0
LINE
  5
130
100
AcDbEntity
  8
Layer_1
 62
7
100
AcDbLine
 10
147.798324
 20
219.789005
 30
0.0
 11
142.977263
 21
219.422469
 31
0.0
  0
LINE
  5
131
100
AcDbEntity
  8
Layer_1
 62
7
100
AcDbLine
 10
142.977263
 20
219.422469
 30
0.0
 11
143.644719
 21
208.024572
 31
0.0
  0
LINE
  5
132
100
AcDbEntity
  8
Layer_1
 62
7
100
AcDbLine
 10
151.956690
 20
68.273000
 30
0.0
 11
152.645665
 21
56.508567
 31
0.0
  0
LINE
  5
133
100
AcDbEntity
  8
Layer_1
 62
7
100
AcDbLine
 10
152.645665
 20
56.508567
 30
0.0
 11
157.466726
 21
56.874750
 31
0.0
  0
LINE
  5
134
100
AcDbEntity
  8
Layer_1
 62
7
100
AcDbLine
 10
157.466726
 20
56.874750
 30
0.0
 11
156.051382
 21
81.037205
 31
0.0
  0
LINE
  5
135
100
AcDbEntity
  8
Layer_1
 62
7
100
AcDbLine
 10
156.051382
 20
81.037205
 30
0.0
 11
151.230321
 21
80.670669
 31
0.0
  0
LINE
  5
136
100
AcDbEntity
  8
Layer_1
 62
7
100
AcDbLine
 10
151.230321
 20
80.670669
 30
0.0
 11
151.898129
 21
69.272772
 31
0.0
  0
LINE
  5
137
100
AcDbEntity
  8
Layer_1
 62
1
100
AcDbLine
 10
355.902570
 20
223.581800
 30
0.0
 11
357.052630
 21
242.007383
 31
0.0
  0
LINE
  5
138
100
AcDbEntity
  8
Layer_1
 62
1
100
AcDbLine
 10
347.683130
 20
84.745700
 30
0.0
 11
354.073350
 21
192.627960
 31
0.0
  0
LINE
  5
139
100
AcDbEntity
  8
Layer_1
 62
1
100
AcDbLine
 10
343.225530
 20
9.963900
 30
0.0
 11
345.841020
 21
53.833930
 31
0.0
  0
LINE
  5
13a
100
AcDbEntity
  8
Layer_1
 62
7
100
AcDbLine
 10
359.731760
 20
206.525100
 30
0.0
 11
359.072066
 21
195.260553
 31
0.0
  0
LINE
  5
13b
100
AcDbEntity
  8
Layer_1
 62
7
100
AcDbLine
 10
359.072066
 20
195.260553
 30
0.0
 11
354.251005
 21
195.626736
 31
0.0
  0
LINE
  5
13c
100
AcDbEntity
  8
Layer_1
 62
7
100
AcDbLine
 10
354.251005
 20
195.626736
 30
0.0
 11
355.665996
 21
219.789191
 31
0.0
  0
LINE
  5
13d
100
AcDbEntity
  8
Layer_1
 62
7
100
AcDbLine
 10
355.665996
 20
219.789191
 30
0.0
 11
360.487057
 21
219.422655
 31
0.0
  0
LINE
  5
13e
100
AcDbEntity
  8
Layer_1
 62
7
100
AcDbLine
 10
360.487057
 20
219.422655
 30
0.0
 11
359.790321
 21
207.524519
 31
0.0
  0
LINE
  5
13f
100
AcDbEntity
  8
Layer_1
 62
7
100
AcDbLine
 10
351.507630
 20
68.273000
 30
0.0
 11
350.818655
 21
56.508567
 31
0.0
  0
LINE
  5
140
100
AcDbEntity
  8
Layer_1
 62
7
100
AcDbLine
 10
350.818655
 20
56.508567
 30
0.0
 11
345.997594
 21
56.874750
 31
0.0
  0
LINE
  5
141
100
AcDbEntity
  8
Layer_1
 62
7
100
AcDbLine
 10
345.997594
 20
56.874750
 30
0.0
 11
347.412938
 21
81.037205
 31
0.0
  0
LINE
  5
142
100
AcDbEntity
  8
Layer_1
 62
7
100
AcDbLine
 10
347.412938
 20
81.037205
 30
0.0
 11
352.233999
 21
80.670669
 31
0.0
  0
LINE
  5
143
100
AcDbEntity
  8
Layer_1
 62
7
100
AcDbLine
 10
352.233999
 20
80.670669
 30
0.0
 11
351.566191
 21
69.272772
 31
0.0
  0
LINE
  5
144
100
AcDbEntity
  8
Layer_1
 62
1
100
AcDbLine
 10
283.256380
 20
51.997730
 30
0.0
 11
287.128465
 21
52.049919
 31
0.0
  0
LINE
  5
145
100
AcDbEntity
  8
Layer_1
 62
1
100
AcDbLine
 10
287.885740
 20
55.863200
 30
0.0
 11
286.994270
 21
73.317590
 31
0.0
  0
LINE
  5
146
100
AcDbEntity
  8
Layer_1
 62
1
100
AcDbLine
 10
286.037440
 20
76.234100
 30
0.0
 11
281.983526
 21
76.157194
 31
0.0
  0
LINE
  5
147
100
AcDbEntity
  8
Layer_1
 62
1
100
AcDbLine
 10
220.559610
 20
51.999580
 30
0.0
 11
216.313523
 21
52.048074
 31
0.0
  0
LINE
  5
148
100
AcDbEntity
  8
Layer_1
 62
1
100
AcDbLine
 10
215.932200
 20
55.863200
 30
0.0
 11
216.823670
 21
73.317590
 31
0.0
  0
LINE
  5
149
100
AcDbEntity
  8
Layer_1
 62
1
100
AcDbLine
 10
217.736520
 20
76.234100
 30
0.0
 11
221.834491
 21
76.157194
 31
0.0
  0
LINE
  5
14a
100
AcDbEntity
  8
Layer_1
 62
7
100
AcDbLine
 10
235.943130
 20
347.895400
 30
0.0
 11
236.068366
 21
357.183333
 31
0.0
  0
LINE
  5
14b
100
AcDbEntity
  8
Layer_1
 62
7
100
AcDbLine
 10
236.068366
 20
357.183333
 30
0.0
 11
231.233547
 21
357.164636
 31
0.0
  0
LINE
  5
14c
100
AcDbEntity
  8
Layer_1
 62
7
100
AcDbLine
 10
231.233547
 20
357.164636
 30
0.0
 11
231.108663
 21
347.895753
 31
0.0
  0
LINE
  5
14d
100
AcDbEntity
  8
Layer_1
 62
7
100
AcDbLine
 10
231.032640
 20
342.251300
 30
0.0
 11
230.907404
 21
332.963720
 31
0.0
  0
LINE
  5
14e
100
AcDbEntity
  8
Layer_1
 62
7
100
AcDbLine
 10
230.907404
 20
332.963720
 30
0.0
 11
235.742223
 21
332.982417
 31
0.0
  0
LINE
  5
14f
100
AcDbEntity
  8
Layer_1
 62
7
100
AcDbLine
 10
235.742223
 20
332.982417
 30
0.0
 11
235.867107
 21
342.251300
 31
0.0
  0
LINE
  5
150
100
AcDbEntity
  8
Layer_1
 62
7
100
AcDbLine
 10
272.449560
 20
342.251100
 30
0.0
 11
272.607604
 21
332.973045
 31
0.0
  0
LINE
  5
151
100
AcDbEntity
  8
Layer_1
 62
7
100
AcDbLine
 10
272.607604
 20
332.973045
 30
0.0
 11
267.772785
 21
332.974456
 31
0.0
  0
LINE
  5
152
100
AcDbEntity
  8
Layer_1
 62
7
100
AcDbLine
 10
267.772785
 20
332.974456
 30
0.0
 11
267.614741
 21
342.251100
 31
0.0
  0
LINE
  5
153
100
AcDbEntity
  8
Layer_1
 62
7
100
AcDbLine
 10
267.518440
 20
347.895600
 30
0.0
 11
267.360043
 21
357.174008
 31
0.0
  0
LINE
  5
154
100
AcDbEntity
  8
Layer_1
 62
7
100
AcDbLine
 10
267.360043
 20
357.174008
 30
0.0
 11
272.194862
 21
357.173303
 31
0.0
  0
LINE
  5
155
100
AcDbEntity
  8
Layer_1
 62
7
100
AcDbLine
 10
272.194862
 20
357.173303
 30
0.0
 11
272.353259
 21
347.895600
 31
0.0
  0
LINE
  5
156
100
AcDbEntity
  8
Layer_1
 62
1
100
AcDbLine
 10
271.655570
 20
226.566535
 30
0.0
 11
276.897884
 21
226.590900
 31
0.0
  0
LINE
  5
157
100
AcDbEntity
  8
Layer_1
 62
1
100
AcDbLine
 10
279.462290
 20
222.996100
 30
0.0
 11
280.357640
 21
205.469395
 31
0.0
  0
LINE
  5
158
100
AcDbEntity
  8
Layer_1
 62
1
100
AcDbLine
 10
277.944220
 20
202.424400
 30
0.0
 11
271.642239
 21
202.382067
 31
0.0
  0
LINE
  5
159
100
AcDbEntity
  8
Layer_1
 62
1
100
AcDbLine
 10
232.204530
 20
202.395262
 30
0.0
 11
225.358163
 21
202.411319
 31
0.0
  0
LINE
  5
15a
100
AcDbEntity
  8
Layer_1
 62
1
100
AcDbLine
 10
223.516960
 20
206.260300
 30
0.0
 11
224.408430
 21
223.714686
 31
0.0
  0
LINE
  5
15b
100
AcDbEntity
  8
Layer_1
 62
1
100
AcDbLine
 10
226.490130
 20
226.603100
 30
0.0
 11
232.219357
 21
226.554417
 31
0.0
  0
LINE
  5
15c
100
AcDbEntity
  8
Layer_1
 62
7
100
AcDbLine
 10
254.442230
 20
33.530000
 30
0.0
 11
284.301693
 21
33.574097
 31
0.0
  0
LINE
  5
15d
100
AcDbEntity
  8
Layer_1
 62
7
100
AcDbLine
 10
284.301693
 20
33.574097
 30
0.0
 11
279.462288
 21
126.254462
 31
0.0
  0
LINE
  5
15e
100
AcDbEntity
  8
Layer_1
 62
7
100
AcDbLine
 10
249.022230
 20
33.530000
 30
0.0
 11
219.501433
 21
33.530000
 31
0.0
  0
LINE
  5
15f
100
AcDbEntity
  8
Layer_1
 62
7
100
AcDbLine
 10
219.501433
 20
33.530000
 30
0.0
 11
224.344719
 21
126.254462
 31
0.0
  0
LINE
  5
160
100
AcDbEntity
  8
Layer_1
 62
7
100
AcDbLine
 10
232.219140
 20
276.473800
 30
0.0
 11
232.219140
 21
193.867710
 31
0.0
  0
LINE
  5
161
100
AcDbEntity
  8
Layer_1
 62
7
100
AcDbLine
 10
271.642230
 20
276.552700
 30
0.0
 11
271.642230
 21
193.867588
 31
0.0
  0
LINE
  5
162
100
AcDbEntity
  8
Layer_1
 62
7
100
AcDbLine
 10
278.999060
 20
135.130000
 30
0.0
 11
271.642232
 21
186.926243
 31
0.0
  0
LINE
  5
163
100
AcDbEntity
  8
Layer_1
 62
7
100
AcDbLine
 10
232.219140
 20
186.847400
 30
0.0
 11
224.808337
 21
135.130179
 31
0.0
  0
LINE
  5
164
100
AcDbEntity
  8
Layer_1
 62
7
100
AcDbLine
 10
271.642760
 20
276.552700
 30
0.0
 11
254.642399
 21
276.552700
 31
0.0
  0
LINE
  5
165
100
AcDbEntity
  8
Layer_1
 62
7
100
AcDbLine
 10
232.219460
 20
276.473800
 30
0.0
 11
249.219468
 21
276.473800
 31
0.0
  0
LINE
  5
166
100
AcDbEntity
  8
Layer_1
 62
7
100
AcDbLine
 10
250.732040
 20
255.890400
 30
0.0
 11
250.732040
 21
255.890400
 31
0.0
  0
SPLINE
  5
167
100
AcDbEntity
  8
Layer_1
 62
7
100
AcDbSpline
 70
0
 71
3
 72
19
 73
15
 74
13
 40
0.000000
 40
0.000000
 40
0.000000
 40
0.000000
 40
0.522960
 40
1.030345
 40
1.553305
 40
2.076025
 40
2.583345
 40
3.106302
 40
3.629019
 40
4.136274
 40
4.658991
 40
5.181948
 40
5.689268
 40
6.211988
 40
6.211988
 40
6.211988
 40
6.211988
 10
250.732040
 20
255.890400
 30
0.0
 10
250.759516
 20
256.066721
 30
0.0
 10
250.813650
 20
256.414112
 30
0.0
 10
251.211831
 20
256.796565
 30
0.0
 10
251.731169
 20
256.938220
 30
0.0
 10
252.255922
 20
256.796529
 30
0.0
 10
252.637916
 20
256.414080
 30
0.0
 10
252.779666
 20
255.890478
 30
0.0
 10
252.637881
 20
255.366915
 30
0.0
 10
252.255889
 20
254.984615
 30
0.0
 10
251.731169
 20
254.842934
 30
0.0
 10
251.211864
 20
254.984579
 30
0.0
 10
250.813693
 20
255.366881
 30
0.0
 10
250.759528
 20
255.714163
 30
0.0
 10
250.732040
 20
255.890400
 30
0.0
 11
250.732040
 21
255.890400
 31
0.0
 11
250.868565
 21
256.395225
 31
0.0
 11
251.227340
 21
256.754000
 31
0.0
 11
251.732165
 21
256.890525
 31
0.0
 11
252.236742
 21
256.754000
 31
0.0
 11
252.595425
 21
256.395225
 31
0.0
 11
252.731937
 21
255.890400
 31
0.0
 11
252.595425
 21
255.385823
 31
0.0
 11
252.236742
 21
255.027140
 31
0.0
 11
251.732165
 21
254.890628
 31
0.0
 11
251.227340
 21
255.027140
 31
0.0
 11
250.868565
 21
255.385823
 31
0.0
 11
250.732040
 21
255.890400
 31
0.0
  0
LINE
  5
168
100
AcDbEntity
  8
Layer_1
 62
7
100
AcDbLine
 10
252.732070
 20
44.397200
 30
0.0
 11
252.732070
 21
44.397200
 31
0.0
  0
LINE
  5
169
100
AcDbEntity
  8
Layer_1
 62
3
100
AcDbLine
 10
109.785960
 20
318.969500
 30
0.0
 11
121.767350
 21
318.428300
 31
0.0
  0
LINE
  5
16a
100
AcDbEntity
  8
Layer_1
 62
3
100
AcDbLine
 10
110.778140
 20
340.937000
 30
0.0
 11
122.759530
 21
340.395800
 31
0.0
  0
LINE
  5
16b
100
AcDbEntity
  8
Layer_1
 62
3
100
AcDbLine
 10
121.767310
 20
318.428500
 30
0.0
 11
122.759670
 21
340.396000
 31
0.0
  0
LINE
  5
16c
100
AcDbEntity
  8
Layer_1
 62
3
100
AcDbLine
 10
393.594970
 20
318.969500
 30
0.0
 11
381.613580
 21
318.428339
 31
0.0
  0
LINE
  5
16d
100
AcDbEntity
  8
Layer_1
 62
3
100
AcDbLine
 10
392.603130
 20
340.937000
 30
0.0
 11
380.621390
 21
340.395839
 31
0.0
  0
LINE
  5
16e
100
AcDbEntity
  8
Layer_1
 62
3
100
AcDbLine
 10
381.613610
 20
318.428500
 30
0.0
 11
380.621250
 21
340.395972
 31
0.0
  0
LINE
  5
16f
100
AcDbEntity
  8
Layer_1
 62
7
100
AcDbLine
 10
112.038430
 20
371.172703
 30
0.0
 11
391.683500
 21
371.172703
 31
0.0
  0
SPLINE
  5
170
100
AcDbEntity
  8
Layer_1
 62
7
100
AcDbSpline
 70
0
 71
3
 72
19
 73
15
 74
13
 40
0.000000
 40
0.000000
 40
0.000000
 40
0.000000
 40
0.522960
 40
1.030345
 40
1.553305
 40
2.076025
 40
2.583345
 40
3.106302
 40
3.629019
 40
4.136274
 40
4.658991
 40
5.181948
 40
5.689268
 40
6.211988
 40
6.211988
 40
6.211988
 40
6.211988
 10
252.732070
 20
44.397200
 30
0.0
 10
252.704594
 20
44.220879
 30
0.0
 10
252.650460
 20
43.873488
 30
0.0
 10
252.252279
 20
43.491035
 30
0.0
 10
251.732941
 20
43.349380
 30
0.0
 10
251.208188
 20
43.491071
 30
0.0
 10
250.826194
 20
43.873520
 30
0.0
 10
250.684444
 20
44.397122
 30
0.0
 10
250.826229
 20
44.920685
 30
0.0
 10
251.208221
 20
45.302985
 30
0.0
 10
251.732941
 20
45.444666
 30
0.0
 10
252.252246
 20
45.303021
 30
0.0
 10
252.650417
 20
44.920719
 30
0.0
 10
252.704582
 20
44.573437
 30
0.0
 10
252.732070
 20
44.397200
 30
0.0
 11
252.732070
 21
44.397200
 31
0.0
 11
252.595545
 21
43.892375
 31
0.0
 11
252.236770
 21
43.533600
 31
0.0
 11
251.731945
 21
43.397075
 31
0.0
 11
251.227368
 21
43.533600
 31
0.0
 11
250.868685
 21
43.892375
 31
0.0
 11
250.732173
 21
44.397200
 31
0.0
 11
250.868685
 21
44.901777
 31
0.0
 11
251.227368
 21
45.260460
 31
0.0
 11
251.731945
 21
45.396972
 31
0.0
 11
252.236770
 21
45.260460
 31
0.0
 11
252.595545
 21
44.901777
 31
0.0
 11
252.732070
 21
44.397200
 31
0.0
  0
ENDSEC
  0
SECTION
  2
OBJECTS
  0
DICTIONARY
  5
C
330
0
100
AcDbDictionary
  3
ACAD_GROUP
350
D
  3
ACAD_MLINESTYLE
350
17
  0
DICTIONARY
  5
D
330
C
100
AcDbDictionary
  0
DICTIONARY
  5
1A
330
C
100
AcDbDictionary
  0
DICTIONARY
  5
17
330
C
100
AcDbDictionary
  3
STANDARD
350
18
  0
DICTIONARY
  5
19
330
C
100
AcDbDictionary
  0
ENDSEC
  0
EOF
