<?xml version="1.0" encoding="UTF-8" standalone="no"?>
<!-- Created with Inkscape (http://www.inkscape.org/) -->

<svg
   xmlns:dc="http://purl.org/dc/elements/1.1/"
   xmlns:cc="http://creativecommons.org/ns#"
   xmlns:rdf="http://www.w3.org/1999/02/22-rdf-syntax-ns#"
   xmlns:svg="http://www.w3.org/2000/svg"
   xmlns="http://www.w3.org/2000/svg"
   xmlns:sodipodi="http://sodipodi.sourceforge.net/DTD/sodipodi-0.dtd"
   xmlns:inkscape="http://www.inkscape.org/namespaces/inkscape"
   width="500mm"
   height="380mm"
   viewBox="0 0 500 380"
   version="1.1"
   id="svg15576"
   inkscape:version="0.92.4 (5da689c313, 2019-01-14)"
   sodipodi:docname="08_HalfBoard_FuselageB.svg">
  <defs
     id="defs15570" />
  <sodipodi:namedview
     id="base"
     pagecolor="#ffffff"
     bordercolor="#666666"
     borderopacity="1.0"
     inkscape:pageopacity="0.0"
     inkscape:pageshadow="2"
     inkscape:zoom="0.49497475"
     inkscape:cx="211.18015"
     inkscape:cy="1527.751"
     inkscape:document-units="mm"
     inkscape:current-layer="layer1"
     showgrid="false"
     inkscape:window-width="3840"
     inkscape:window-height="2115"
     inkscape:window-x="2515"
     inkscape:window-y="-13"
     inkscape:window-maximized="1" />
  <metadata
     id="metadata15573">
    <rdf:RDF>
      <cc:Work
         rdf:about="">
        <dc:format>image/svg+xml</dc:format>
        <dc:type
           rdf:resource="http://purl.org/dc/dcmitype/StillImage" />
        <dc:title></dc:title>
      </cc:Work>
    </rdf:RDF>
  </metadata>
  <g
     inkscape:label="Layer 1"
     inkscape:groupmode="layer"
     id="layer1"
     transform="translate(0,83)">
    <g
       id="g2843"
       transform="matrix(0.35277777,0,0,-0.35277777,434.98441,583.54906)" />
    <g
       id="g2847"
       transform="matrix(0.35277777,0,0,-0.35277777,451.9842,728.8935)" />
    <g
       id="g2851"
       transform="matrix(0.35277777,0,0,-0.35277777,434.98441,583.54906)" />
    <g
       id="g1640"
       transform="translate(-95.682491,432.97663)">
      <path
         inkscape:connector-curvature="0"
         id="path2353"
         d="M 293.02661,-155.05074 279.1274,-489.08266"
         style="fill:none;stroke:#ec1c24;stroke-width:0.35277778;stroke-linecap:butt;stroke-linejoin:miter;stroke-miterlimit:10;stroke-dasharray:none;stroke-dashoffset:0;stroke-opacity:1" />
      <path
         inkscape:connector-curvature="0"
         id="path2365"
         d="m 205.14665,-155.05925 13.89902,-334.02341"
         style="fill:none;stroke:#ec1c24;stroke-width:0.35277778;stroke-linecap:butt;stroke-linejoin:miter;stroke-miterlimit:10;stroke-dasharray:none;stroke-dashoffset:0;stroke-opacity:1" />
      <path
         inkscape:connector-curvature="0"
         id="path2389"
         d="M 348.90818,-154.98737 333.83113,-489.0798"
         style="fill:none;stroke:#ec1c24;stroke-width:0.35277778;stroke-linecap:butt;stroke-linejoin:miter;stroke-miterlimit:10;stroke-dasharray:none;stroke-dashoffset:0;stroke-opacity:1" />
      <path
         inkscape:connector-curvature="0"
         id="path2461"
         d="M 149.26213,-155.03924 164.34138,-489.0798"
         style="fill:none;stroke:#ec1c24;stroke-width:0.35277778;stroke-linecap:butt;stroke-linejoin:miter;stroke-miterlimit:10;stroke-dasharray:none;stroke-dashoffset:0;stroke-opacity:1" />
      <path
         inkscape:connector-curvature="0"
         id="path1487"
         d="m 109.3926,-155.05961 3.01346,-66.79917 -0.1016,-0.004 -4.83235,-0.17145 1.23472,-25.44409 4.83235,0.17145 h 0.0152 l 6.0205,-133.45583 -0.0868,-0.004 -4.832,-0.1718 1.23473,-25.4441 c 0,0 4.83199,0.1718 4.83199,0.17215 l 3.8735,-85.87104 h 39.88047 54.69326 59.83252 54.69325 39.88012 l 3.87173,85.81354 0.18451,-0.008 4.83199,-0.17145 1.23472,25.44409 -4.83199,0.17145 -0.27129,0.0109 6.02121,133.45548 0.19932,-0.008 4.832,-0.1718 1.23472,25.4441 -4.832,0.1718 -0.28645,0.0106 3.01487,66.83015"
         style="fill:none;stroke:#231f20;stroke-width:0.35277778;stroke-linecap:round;stroke-linejoin:round;stroke-miterlimit:10;stroke-dasharray:none;stroke-opacity:1" />
      <g
         transform="matrix(0,0.35277777,0.35277777,0,238.69988,-413.67518)"
         id="g2591">
        <path
           inkscape:connector-curvature="0"
           id="path2593"
           style="fill:none;stroke:#231f20;stroke-width:1;stroke-linecap:round;stroke-linejoin:round;stroke-miterlimit:10;stroke-dasharray:none;stroke-opacity:1"
           d="M 0,0 -26.327,0.355 -26.274,-13.35 0,-13.705" />
      </g>
      <g
         transform="matrix(0,0.35277777,0.35277777,0,233.78907,-408.03073)"
         id="g2595">
        <path
           inkscape:connector-curvature="0"
           id="path2597"
           style="fill:none;stroke:#231f20;stroke-width:1;stroke-linecap:round;stroke-linejoin:round;stroke-miterlimit:10;stroke-dasharray:none;stroke-opacity:1"
           d="M 0,0 26.327,-0.354 26.274,13.351 0,13.705" />
      </g>
      <g
         transform="matrix(0,0.35277777,0.35277777,0,264.35568,-408.03073)"
         id="g2607">
        <path
           inkscape:connector-curvature="0"
           id="path2609"
           style="fill:none;stroke:#231f20;stroke-width:1;stroke-linecap:round;stroke-linejoin:round;stroke-miterlimit:10;stroke-dasharray:none;stroke-opacity:1"
           d="M 0,0 26.108,0.445 26.104,-13.26 0,-13.705" />
      </g>
      <g
         transform="matrix(0,0.35277777,0.35277777,0,259.42438,-413.67536)"
         id="g2611">
        <path
           inkscape:connector-curvature="0"
           id="path2613"
           style="fill:none;stroke:#231f20;stroke-width:1;stroke-linecap:round;stroke-linejoin:round;stroke-miterlimit:10;stroke-dasharray:none;stroke-opacity:1"
           d="M 0,0 -26.492,-0.451 -26.49,13.253 0,13.706" />
      </g>
      <path
         d="m 213.82954,-363.72802 h 70.51428"
         style="fill:none;stroke:#00ff00;stroke-width:0.35277778;stroke-linecap:butt;stroke-linejoin:miter;stroke-miterlimit:10;stroke-dasharray:none;stroke-dashoffset:0;stroke-opacity:1"
         id="path2713"
         inkscape:connector-curvature="0" />
      <path
         d="m 117.4079,-331.31812 11.98139,0.54116"
         style="fill:none;stroke:#00ff00;stroke-width:0.35277778;stroke-linecap:butt;stroke-linejoin:miter;stroke-miterlimit:10;stroke-dasharray:none;stroke-dashoffset:0;stroke-opacity:1"
         id="path2717"
         inkscape:connector-curvature="0" />
      <path
         d="m 118.40009,-353.28559 11.98139,0.54116"
         style="fill:none;stroke:#00ff00;stroke-width:0.35277778;stroke-linecap:butt;stroke-linejoin:miter;stroke-miterlimit:10;stroke-dasharray:none;stroke-dashoffset:0;stroke-opacity:1"
         id="path2721"
         inkscape:connector-curvature="0" />
      <path
         d="m 129.38926,-330.77706 0.99236,-21.96747"
         style="fill:none;stroke:#00ff00;stroke-width:0.35277778;stroke-linecap:butt;stroke-linejoin:miter;stroke-miterlimit:10;stroke-dasharray:none;stroke-dashoffset:0;stroke-opacity:1"
         id="path2725"
         inkscape:connector-curvature="0" />
      <path
         d="m 380.58079,-331.31812 -11.98104,0.54116"
         style="fill:none;stroke:#00ff00;stroke-width:0.35299999;stroke-linecap:butt;stroke-linejoin:miter;stroke-miterlimit:10;stroke-dasharray:none;stroke-dashoffset:0;stroke-opacity:1"
         id="path2729"
         inkscape:connector-curvature="0" />
      <path
         d="m 379.58913,-353.28559 -11.98174,0.54116"
         style="fill:none;stroke:#00ff00;stroke-width:0.35299999;stroke-linecap:butt;stroke-linejoin:miter;stroke-miterlimit:10;stroke-dasharray:none;stroke-dashoffset:0;stroke-opacity:1"
         id="path2733"
         inkscape:connector-curvature="0" />
      <path
         d="m 368.59961,-330.77706 -0.99237,-21.96747"
         style="fill:none;stroke:#00ff00;stroke-width:0.35299999;stroke-linecap:butt;stroke-linejoin:miter;stroke-miterlimit:10;stroke-dasharray:none;stroke-dashoffset:0;stroke-opacity:1"
         id="path2737"
         inkscape:connector-curvature="0" />
      <path
         d="m 133.29049,-237.451 c 0,-0.5524 0.44767,-0.9998 1.00012,-0.9998 0.5521,0 1.00013,0.4474 1.00013,0.9998 0,0.5524 -0.44803,0.9998 -1.00013,0.9998 -0.55245,0 -1.00012,-0.4474 -1.00012,-0.9998 z"
         style="fill:none;stroke:#000000;stroke-width:0.35299999;stroke-linecap:butt;stroke-linejoin:miter;stroke-miterlimit:10;stroke-dasharray:none;stroke-dashoffset:0;stroke-opacity:1"
         id="path2765"
         inkscape:connector-curvature="0" />
      <path
         d="m 364.99189,-237.451 c 0,-0.5524 -0.44767,-0.9998 -1.00012,-0.9998 -0.5521,0 -0.99978,0.4474 -0.99978,0.9998 0,0.5524 0.44768,0.9998 0.99978,0.9998 0.55245,0 1.00012,-0.4474 1.00012,-0.9998 z"
         style="fill:none;stroke:#000000;stroke-width:0.35277778;stroke-linecap:butt;stroke-linejoin:miter;stroke-miterlimit:10;stroke-dasharray:none;stroke-dashoffset:0;stroke-opacity:1"
         id="path2769"
         inkscape:connector-curvature="0" />
      <path
         inkscape:connector-curvature="0"
         id="path1482"
         d="M 109.18787,-155.05952 H 388.96172"
         style="fill:none;stroke:#000000;stroke-width:0.25513923px;stroke-linecap:butt;stroke-linejoin:miter;stroke-opacity:1" />
    </g>
  </g>
</svg>
