  0
SECTION
  2
HEADER
  9
$ACADVER
  1
AC1014
  9
$HANDSEED
  5
FFFF
  9
$MEASUREMENT
 70
     1
  0
ENDSEC
  0
SECTION
  2
TABLES
  0
TABLE
  2
VPORT
  5
8
330
0
100
AcDbSymbolTable
 70
     4
  0
VPORT
  5
2E
330
8
100
AcDbSymbolTableRecord
100
AcDbViewportTableRecord
  2
*ACTIVE
 70
     0
 10
0.0
 20
0.0
 11
1.0
 21
1.0
 12
210.0
 22
148.5
 13
0.0
 23
0.0
 14
10.0
 24
10.0
 15
10.0
 25
10.0
 16
0.0
 26
0.0
 36
1.0
 17
0.0
 27
0.0
 37
0.0
 40
341.0
 41
1.24
 42
50.0
 43
0.0
 44
0.0
 50
0.0
 51
0.0
 71
     0
 72
   100
 73
     1
 74
     3
 75
     0
 76
     0
 77
     0
 78
     0
  0
ENDTAB
  0
TABLE
  2
LTYPE
  5
5
330
0
100
AcDbSymbolTable
 70
     1
  0
LTYPE
  5
14
330
5
100
AcDbSymbolTableRecord
100
AcDbLinetypeTableRecord
  2
BYBLOCK
 70
     0
  3

 72
    65
 73
     0
 40
0.0
  0
LTYPE
  5
15
330
5
100
AcDbSymbolTableRecord
100
AcDbLinetypeTableRecord
  2
BYLAYER
 70
     0
  3

 72
    65
 73
     0
 40
0.0
  0
LTYPE
  5
16
330
5
100
AcDbSymbolTableRecord
100
AcDbLinetypeTableRecord
  2
CONTINUOUS
 70
     0
  3
Solid line
 72
    65
 73
     0
 40
0.0
  0
ENDTAB
  0
TABLE
  2
LAYER
  5
2
100
AcDbSymbolTable
 70
2
  0
LAYER
  5
50
100
AcDbSymbolTableRecord
100
AcDbLayerTableRecord
  2
0
 70
0
  6
CONTINUOUS
  0
LAYER
  5
51
100
AcDbSymbolTableRecord
100
AcDbLayerTableRecord
  2
Layer_1
 70
0
  6
CONTINUOUS
  0
ENDTAB
  0
TABLE
  2
STYLE
  5
3
330
0
100
AcDbSymbolTable
 70
     1
  0
STYLE
  5
11
330
3
100
AcDbSymbolTableRecord
100
AcDbTextStyleTableRecord
  2
STANDARD
 70
     0
 40
0.0
 41
1.0
 50
0.0
 71
     0
 42
2.5
  3
txt
  4

  0
ENDTAB
  0
TABLE
  2
VIEW
  5
6
330
0
100
AcDbSymbolTable
 70
     0
  0
ENDTAB
  0
TABLE
  2
UCS
  5
7
330
0
100
AcDbSymbolTable
 70
     0
  0
ENDTAB
  0
TABLE
  2
APPID
  5
9
330
0
100
AcDbSymbolTable
 70
     2
  0
APPID
  5
12
330
9
100
AcDbSymbolTableRecord
100
AcDbRegAppTableRecord
  2
ACAD
 70
     0
  0
ENDTAB
  0
TABLE
  2
DIMSTYLE
  5
A
330
0
100
AcDbSymbolTable
 70
     1
  0
DIMSTYLE
105
27
330
A
100
AcDbSymbolTableRecord
100
AcDbDimStyleTableRecord
  2
ISO-25
 70
     0
  3

  4

  5

  6

  7

 40
1.0
 41
2.5
 42
0.625
 43
3.75
 44
1.25
 45
0.0
 46
0.0
 47
0.0
 48
0.0
140
2.5
141
2.5
142
0.0
143
0.03937007874016
144
1.0
145
0.0
146
1.0
147
0.625
 71
     0
 72
     0
 73
     0
 74
     0
 75
     0
 76
     0
 77
     1
 78
     8
170
     0
171
     3
172
     1
173
     0
174
     0
175
     0
176
     0
177
     0
178
     0
270
     2
271
     2
272
     2
273
     2
274
     3
340
11
275
     0
280
     0
281
     0
282
     0
283
     0
284
     8
285
     0
286
     0
287
     3
288
     0
  0
ENDTAB
  0
TABLE
  2
BLOCK_RECORD
  5
1
330
0
100
AcDbSymbolTable
 70
     1
  0
BLOCK_RECORD
  5
1F
330
1
100
AcDbSymbolTableRecord
100
AcDbBlockTableRecord
  2
*MODEL_SPACE
  0
BLOCK_RECORD
  5
1B
330
1
100
AcDbSymbolTableRecord
100
AcDbBlockTableRecord
  2
*PAPER_SPACE
  0
ENDTAB
  0
ENDSEC
  0
SECTION
  2
BLOCKS
  0
BLOCK
  5
20
330
1F
100
AcDbEntity
  8
0
100
AcDbBlockBegin
  2
*MODEL_SPACE
 70
     0
 10
0.0
 20
0.0
 30
0.0
  3
*MODEL_SPACE
  1

  0
ENDBLK
  5
21
330
1F
100
AcDbEntity
  8
0
100
AcDbBlockEnd
  0
BLOCK
  5
1C
330
1B
100
AcDbEntity
 67
     1
  8
0
100
AcDbBlockBegin
  2
*PAPER_SPACE
  1

  0
ENDBLK
  5
1D
330
1B
100
AcDbEntity
 67
     1
  8
0
100
AcDbBlockEnd
  0
ENDSEC
  0
SECTION
  2
ENTITIES
  0
LINE
  5
100
100
AcDbEntity
  8
Layer_1
 62
1
100
AcDbLine
 10
197.344119
 20
19.074110
 30
0.0
 11
183.444909
 21
353.106030
 31
0.0
  0
LINE
  5
101
100
AcDbEntity
  8
Layer_1
 62
1
100
AcDbLine
 10
109.464159
 20
19.082620
 30
0.0
 11
123.363179
 21
353.106030
 31
0.0
  0
LINE
  5
102
100
AcDbEntity
  8
Layer_1
 62
1
100
AcDbLine
 10
253.225689
 20
19.010740
 30
0.0
 11
238.148639
 21
353.103170
 31
0.0
  0
LINE
  5
103
100
AcDbEntity
  8
Layer_1
 62
1
100
AcDbLine
 10
53.579639
 20
19.062610
 30
0.0
 11
68.658889
 21
353.103170
 31
0.0
  0
LINE
  5
104
100
AcDbEntity
  8
Layer_1
 62
7
100
AcDbLine
 10
13.710109
 20
19.082980
 30
0.0
 11
16.723569
 21
85.882150
 31
0.0
  0
LINE
  5
105
100
AcDbEntity
  8
Layer_1
 62
7
100
AcDbLine
 10
16.723569
 20
85.882150
 30
0.0
 11
16.621969
 21
85.886150
 31
0.0
  0
LINE
  5
106
100
AcDbEntity
  8
Layer_1
 62
7
100
AcDbLine
 10
16.621969
 20
85.886150
 30
0.0
 11
11.789619
 21
86.057600
 31
0.0
  0
LINE
  5
107
100
AcDbEntity
  8
Layer_1
 62
7
100
AcDbLine
 10
11.789619
 20
86.057600
 30
0.0
 11
13.024339
 21
111.501690
 31
0.0
  0
LINE
  5
108
100
AcDbEntity
  8
Layer_1
 62
7
100
AcDbLine
 10
13.024339
 20
111.501690
 30
0.0
 11
17.856689
 21
111.330240
 31
0.0
  0
LINE
  5
109
100
AcDbEntity
  8
Layer_1
 62
7
100
AcDbLine
 10
17.856689
 20
111.330240
 30
0.0
 11
17.871889
 21
111.330240
 31
0.0
  0
LINE
  5
10a
100
AcDbEntity
  8
Layer_1
 62
7
100
AcDbLine
 10
17.871889
 20
111.330240
 30
0.0
 11
23.892389
 21
244.786070
 31
0.0
  0
LINE
  5
10b
100
AcDbEntity
  8
Layer_1
 62
7
100
AcDbLine
 10
23.892389
 20
244.786070
 30
0.0
 11
23.805589
 21
244.790070
 31
0.0
  0
LINE
  5
10c
100
AcDbEntity
  8
Layer_1
 62
7
100
AcDbLine
 10
23.805589
 20
244.790070
 30
0.0
 11
18.973589
 21
244.961870
 31
0.0
  0
LINE
  5
10d
100
AcDbEntity
  8
Layer_1
 62
7
100
AcDbLine
 10
18.973589
 20
244.961870
 30
0.0
 11
20.208319
 21
270.405970
 31
0.0
  0
LINE
  5
10e
100
AcDbEntity
  8
Layer_1
 62
7
100
AcDbLine
 10
25.040309
 20
270.233820
 30
0.0
 11
28.913809
 21
356.104860
 31
0.0
  0
LINE
  5
10f
100
AcDbEntity
  8
Layer_1
 62
7
100
AcDbLine
 10
28.913809
 20
356.104860
 30
0.0
 11
68.794279
 21
356.104860
 31
0.0
  0
LINE
  5
110
100
AcDbEntity
  8
Layer_1
 62
7
100
AcDbLine
 10
68.794279
 20
356.104860
 30
0.0
 11
123.487539
 21
356.104860
 31
0.0
  0
LINE
  5
111
100
AcDbEntity
  8
Layer_1
 62
7
100
AcDbLine
 10
123.487539
 20
356.104860
 30
0.0
 11
183.320059
 21
356.104860
 31
0.0
  0
LINE
  5
112
100
AcDbEntity
  8
Layer_1
 62
7
100
AcDbLine
 10
183.320059
 20
356.104860
 30
0.0
 11
238.013309
 21
356.104860
 31
0.0
  0
LINE
  5
113
100
AcDbEntity
  8
Layer_1
 62
7
100
AcDbLine
 10
238.013309
 20
356.104860
 30
0.0
 11
277.893429
 21
356.104860
 31
0.0
  0
LINE
  5
114
100
AcDbEntity
  8
Layer_1
 62
7
100
AcDbLine
 10
277.893429
 20
356.104860
 30
0.0
 11
281.765159
 21
270.291320
 31
0.0
  0
LINE
  5
115
100
AcDbEntity
  8
Layer_1
 62
7
100
AcDbLine
 10
281.765159
 20
270.291320
 30
0.0
 11
281.949669
 21
270.299320
 31
0.0
  0
LINE
  5
116
100
AcDbEntity
  8
Layer_1
 62
7
100
AcDbLine
 10
281.949669
 20
270.299320
 30
0.0
 11
286.781659
 21
270.470770
 31
0.0
  0
LINE
  5
117
100
AcDbEntity
  8
Layer_1
 62
7
100
AcDbLine
 10
286.781659
 20
270.470770
 30
0.0
 11
288.016379
 21
245.026680
 31
0.0
  0
LINE
  5
118
100
AcDbEntity
  8
Layer_1
 62
7
100
AcDbLine
 10
288.016379
 20
245.026680
 30
0.0
 11
283.184389
 21
244.855230
 31
0.0
  0
LINE
  5
119
100
AcDbEntity
  8
Layer_1
 62
7
100
AcDbLine
 10
283.184389
 20
244.855230
 30
0.0
 11
282.913099
 21
244.844330
 31
0.0
  0
LINE
  5
11a
100
AcDbEntity
  8
Layer_1
 62
7
100
AcDbLine
 10
282.913099
 20
244.844330
 30
0.0
 11
288.934309
 21
111.388850
 31
0.0
  0
LINE
  5
11b
100
AcDbEntity
  8
Layer_1
 62
7
100
AcDbLine
 10
288.934309
 20
111.388850
 30
0.0
 11
289.133629
 21
111.396850
 31
0.0
  0
LINE
  5
11c
100
AcDbEntity
  8
Layer_1
 62
7
100
AcDbLine
 10
289.133629
 20
111.396850
 30
0.0
 11
293.965629
 21
111.568650
 31
0.0
  0
LINE
  5
11d
100
AcDbEntity
  8
Layer_1
 62
7
100
AcDbLine
 10
293.965629
 20
111.568650
 30
0.0
 11
295.200349
 21
86.124550
 31
0.0
  0
LINE
  5
11e
100
AcDbEntity
  8
Layer_1
 62
7
100
AcDbLine
 10
295.200349
 20
86.124550
 30
0.0
 11
290.368349
 21
85.952750
 31
0.0
  0
LINE
  5
11f
100
AcDbEntity
  8
Layer_1
 62
7
100
AcDbLine
 10
290.368349
 20
85.952750
 30
0.0
 11
290.081899
 21
85.942150
 31
0.0
  0
LINE
  5
120
100
AcDbEntity
  8
Layer_1
 62
7
100
AcDbLine
 10
290.081899
 20
85.942150
 30
0.0
 11
293.096769
 21
19.112000
 31
0.0
  0
LINE
  5
121
100
AcDbEntity
  8
Layer_1
 62
7
100
AcDbLine
 10
143.017389
 20
277.698550
 30
0.0
 11
143.142625
 21
286.986130
 31
0.0
  0
LINE
  5
122
100
AcDbEntity
  8
Layer_1
 62
7
100
AcDbLine
 10
143.142625
 20
286.986130
 30
0.0
 11
138.307806
 21
286.967433
 31
0.0
  0
LINE
  5
123
100
AcDbEntity
  8
Layer_1
 62
7
100
AcDbLine
 10
138.307806
 20
286.967433
 30
0.0
 11
138.182570
 21
277.698550
 31
0.0
  0
LINE
  5
124
100
AcDbEntity
  8
Layer_1
 62
7
100
AcDbLine
 10
138.106579
 20
272.054100
 30
0.0
 11
137.981696
 21
262.766520
 31
0.0
  0
LINE
  5
125
100
AcDbEntity
  8
Layer_1
 62
7
100
AcDbLine
 10
137.981696
 20
262.766520
 30
0.0
 11
142.816515
 21
262.785217
 31
0.0
  0
LINE
  5
126
100
AcDbEntity
  8
Layer_1
 62
7
100
AcDbLine
 10
142.816515
 20
262.785217
 30
0.0
 11
142.941398
 21
272.054100
 31
0.0
  0
LINE
  5
127
100
AcDbEntity
  8
Layer_1
 62
7
100
AcDbLine
 10
168.673189
 20
272.054100
 30
0.0
 11
168.830175
 21
262.843778
 31
0.0
  0
LINE
  5
128
100
AcDbEntity
  8
Layer_1
 62
7
100
AcDbLine
 10
168.830175
 20
262.843778
 30
0.0
 11
163.995356
 21
262.845189
 31
0.0
  0
LINE
  5
129
100
AcDbEntity
  8
Layer_1
 62
7
100
AcDbLine
 10
163.995356
 20
262.845189
 30
0.0
 11
163.838370
 21
272.054100
 31
0.0
  0
LINE
  5
12a
100
AcDbEntity
  8
Layer_1
 62
7
100
AcDbLine
 10
163.741889
 20
277.698730
 30
0.0
 11
163.582786
 21
287.044519
 31
0.0
  0
LINE
  5
12b
100
AcDbEntity
  8
Layer_1
 62
7
100
AcDbLine
 10
163.582786
 20
287.044519
 30
0.0
 11
168.417253
 21
287.043813
 31
0.0
  0
LINE
  5
12c
100
AcDbEntity
  8
Layer_1
 62
7
100
AcDbLine
 10
168.417253
 20
287.043813
 30
0.0
 11
168.577061
 21
277.698730
 31
0.0
  0
LINE
  5
12d
100
AcDbEntity
  8
Layer_1
 62
3
100
AcDbLine
 10
118.147049
 20
227.751390
 30
0.0
 11
188.661329
 21
227.751390
 31
0.0
  0
LINE
  5
12e
100
AcDbEntity
  8
Layer_1
 62
3
100
AcDbLine
 10
21.725409
 20
195.341490
 30
0.0
 11
33.706799
 21
194.800330
 31
0.0
  0
LINE
  5
12f
100
AcDbEntity
  8
Layer_1
 62
3
100
AcDbLine
 10
22.717599
 20
217.308960
 30
0.0
 11
34.698989
 21
216.767800
 31
0.0
  0
LINE
  5
130
100
AcDbEntity
  8
Layer_1
 62
3
100
AcDbLine
 10
33.706769
 20
194.800430
 30
0.0
 11
34.699129
 21
216.767900
 31
0.0
  0
LINE
  5
131
100
AcDbEntity
  8
Layer_1
 62
3
100
AcDbLine
 10
284.898299
 20
195.341490
 30
0.0
 11
272.917259
 21
194.800330
 31
0.0
  0
LINE
  5
132
100
AcDbEntity
  8
Layer_1
 62
3
100
AcDbLine
 10
283.906639
 20
217.308960
 30
0.0
 11
271.924899
 21
216.767800
 31
0.0
  0
LINE
  5
133
100
AcDbEntity
  8
Layer_1
 62
3
100
AcDbLine
 10
272.917119
 20
194.800430
 30
0.0
 11
271.924749
 21
216.767900
 31
0.0
  0
SPLINE
  5
134
100
AcDbEntity
  8
Layer_1
 62
7
100
AcDbSpline
 70
0
 71
3
 72
10
 73
6
 74
4
 40
0.000000
 40
0.000000
 40
0.000000
 40
0.000000
 40
1.253530
 40
3.581517
 40
4.835056
 40
4.835056
 40
4.835056
 40
4.835056
 10
20.208319
 20
270.405970
 30
0.0
 10
20.625898
 20
270.391117
 30
0.0
 10
21.818983
 20
270.348680
 30
0.0
 10
23.429652
 20
270.291450
 30
0.0
 10
24.622730
 20
270.248761
 30
0.0
 10
25.040309
 20
270.233820
 30
0.0
 11
20.208319
 21
270.405970
 31
0.0
 11
21.461057
 21
270.361416
 31
0.0
 11
23.787571
 21
270.278607
 31
0.0
 11
25.040309
 21
270.233820
 31
0.0
  0
LINE
  5
135
100
AcDbEntity
  8
Layer_1
 62
7
100
AcDbLine
 10
37.607999
 20
101.474370
 30
0.0
 11
37.607999
 21
101.474370
 31
0.0
  0
SPLINE
  5
136
100
AcDbEntity
  8
Layer_1
 62
7
100
AcDbSpline
 70
0
 71
3
 72
19
 73
15
 74
13
 40
0.000000
 40
0.000000
 40
0.000000
 40
0.000000
 40
0.522857
 40
1.030137
 40
1.553077
 40
2.075869
 40
2.583207
 40
3.106086
 40
3.628964
 40
4.136302
 40
4.659094
 40
5.182034
 40
5.689314
 40
6.212171
 40
6.212171
 40
6.212171
 40
6.212171
 10
37.607999
 20
101.474370
 30
0.0
 10
37.635473
 20
101.650660
 30
0.0
 10
37.689601
 20
101.997987
 30
0.0
 10
38.087831
 20
102.380297
 30
0.0
 10
38.607159
 20
102.521830
 30
0.0
 10
39.131916
 20
102.380239
 30
0.0
 10
39.514136
 20
101.998008
 30
0.0
 10
39.656015
 20
101.474370
 30
0.0
 10
39.514136
 20
100.950732
 30
0.0
 10
39.131916
 20
100.568501
 30
0.0
 10
38.607159
 20
100.426910
 30
0.0
 10
38.087831
 20
100.568443
 30
0.0
 10
37.689601
 20
100.950753
 30
0.0
 10
37.635473
 20
101.298080
 30
0.0
 10
37.607999
 20
101.474370
 30
0.0
 11
37.607999
 21
101.474370
 31
0.0
 11
37.744523
 21
101.979089
 31
0.0
 11
38.103295
 21
102.337718
 31
0.0
 11
38.608119
 21
102.474170
 31
0.0
 11
39.112790
 21
102.337718
 31
0.0
 11
39.471645
 21
101.979089
 31
0.0
 11
39.608249
 21
101.474370
 31
0.0
 11
39.471645
 21
100.969651
 31
0.0
 11
39.112790
 21
100.611022
 31
0.0
 11
38.608119
 21
100.474570
 31
0.0
 11
38.103295
 21
100.611022
 31
0.0
 11
37.744523
 21
100.969651
 31
0.0
 11
37.607999
 21
101.474370
 31
0.0
  0
LINE
  5
137
100
AcDbEntity
  8
Layer_1
 62
7
100
AcDbLine
 10
269.309399
 20
101.474370
 30
0.0
 11
269.309399
 21
101.474370
 31
0.0
  0
LINE
  5
138
100
AcDbEntity
  8
Layer_1
 62
7
100
AcDbLine
 10
13.505379
 20
19.082890
 30
0.0
 11
293.279229
 21
19.082890
 31
0.0
  0
SPLINE
  5
139
100
AcDbEntity
  8
Layer_1
 62
7
100
AcDbSpline
 70
0
 71
3
 72
19
 73
15
 74
13
 40
0.000000
 40
0.000000
 40
0.000000
 40
0.000000
 40
0.522857
 40
1.030137
 40
1.553077
 40
2.075781
 40
2.583001
 40
3.105855
 40
3.628709
 40
4.135929
 40
4.658633
 40
5.181573
 40
5.688853
 40
6.211710
 40
6.211710
 40
6.211710
 40
6.211710
 10
269.309399
 20
101.474370
 30
0.0
 10
269.281925
 20
101.650660
 30
0.0
 10
269.227797
 20
101.997987
 30
0.0
 10
268.829566
 20
102.380296
 30
0.0
 10
268.310273
 20
102.521826
 30
0.0
 10
267.785566
 20
102.380260
 30
0.0
 10
267.403505
 20
101.997956
 30
0.0
 10
267.261782
 20
101.474370
 30
0.0
 10
267.403505
 20
100.950784
 30
0.0
 10
267.785566
 20
100.568480
 30
0.0
 10
268.310273
 20
100.426914
 30
0.0
 10
268.829566
 20
100.568444
 30
0.0
 10
269.227797
 20
100.950753
 30
0.0
 10
269.281925
 20
101.298080
 30
0.0
 10
269.309399
 20
101.474370
 30
0.0
 11
269.309399
 21
101.474370
 31
0.0
 11
269.172875
 21
101.979089
 31
0.0
 11
268.814103
 21
102.337718
 31
0.0
 11
268.309279
 21
102.474170
 31
0.0
 11
267.804699
 21
102.337718
 31
0.0
 11
267.446012
 21
101.979089
 31
0.0
 11
267.309499
 21
101.474370
 31
0.0
 11
267.446012
 21
100.969651
 31
0.0
 11
267.804699
 21
100.611022
 31
0.0
 11
268.309279
 21
100.474570
 31
0.0
 11
268.814103
 21
100.611022
 31
0.0
 11
269.172875
 21
100.969651
 31
0.0
 11
269.309399
 21
101.474370
 31
0.0
  0
ENDSEC
  0
SECTION
  2
OBJECTS
  0
DICTIONARY
  5
C
330
0
100
AcDbDictionary
  3
ACAD_GROUP
350
D
  3
ACAD_MLINESTYLE
350
17
  0
DICTIONARY
  5
D
330
C
100
AcDbDictionary
  0
DICTIONARY
  5
1A
330
C
100
AcDbDictionary
  0
DICTIONARY
  5
17
330
C
100
AcDbDictionary
  3
STANDARD
350
18
  0
DICTIONARY
  5
19
330
C
100
AcDbDictionary
  0
ENDSEC
  0
EOF
