  0
SECTION
  2
HEADER
  9
$ACADVER
  1
AC1014
  9
$HANDSEED
  5
FFFF
  9
$MEASUREMENT
 70
     1
  0
ENDSEC
  0
SECTION
  2
TABLES
  0
TABLE
  2
VPORT
  5
8
330
0
100
AcDbSymbolTable
 70
     4
  0
VPORT
  5
2E
330
8
100
AcDbSymbolTableRecord
100
AcDbViewportTableRecord
  2
*ACTIVE
 70
     0
 10
0.0
 20
0.0
 11
1.0
 21
1.0
 12
210.0
 22
148.5
 13
0.0
 23
0.0
 14
10.0
 24
10.0
 15
10.0
 25
10.0
 16
0.0
 26
0.0
 36
1.0
 17
0.0
 27
0.0
 37
0.0
 40
341.0
 41
1.24
 42
50.0
 43
0.0
 44
0.0
 50
0.0
 51
0.0
 71
     0
 72
   100
 73
     1
 74
     3
 75
     0
 76
     0
 77
     0
 78
     0
  0
ENDTAB
  0
TABLE
  2
LTYPE
  5
5
330
0
100
AcDbSymbolTable
 70
     1
  0
LTYPE
  5
14
330
5
100
AcDbSymbolTableRecord
100
AcDbLinetypeTableRecord
  2
BYBLOCK
 70
     0
  3

 72
    65
 73
     0
 40
0.0
  0
LTYPE
  5
15
330
5
100
AcDbSymbolTableRecord
100
AcDbLinetypeTableRecord
  2
BYLAYER
 70
     0
  3

 72
    65
 73
     0
 40
0.0
  0
LTYPE
  5
16
330
5
100
AcDbSymbolTableRecord
100
AcDbLinetypeTableRecord
  2
CONTINUOUS
 70
     0
  3
Solid line
 72
    65
 73
     0
 40
0.0
  0
ENDTAB
  0
TABLE
  2
LAYER
  5
2
100
AcDbSymbolTable
 70
2
  0
LAYER
  5
50
100
AcDbSymbolTableRecord
100
AcDbLayerTableRecord
  2
0
 70
0
  6
CONTINUOUS
  0
LAYER
  5
51
100
AcDbSymbolTableRecord
100
AcDbLayerTableRecord
  2
Layer_1
 70
0
  6
CONTINUOUS
  0
ENDTAB
  0
TABLE
  2
STYLE
  5
3
330
0
100
AcDbSymbolTable
 70
     1
  0
STYLE
  5
11
330
3
100
AcDbSymbolTableRecord
100
AcDbTextStyleTableRecord
  2
STANDARD
 70
     0
 40
0.0
 41
1.0
 50
0.0
 71
     0
 42
2.5
  3
txt
  4

  0
ENDTAB
  0
TABLE
  2
VIEW
  5
6
330
0
100
AcDbSymbolTable
 70
     0
  0
ENDTAB
  0
TABLE
  2
UCS
  5
7
330
0
100
AcDbSymbolTable
 70
     0
  0
ENDTAB
  0
TABLE
  2
APPID
  5
9
330
0
100
AcDbSymbolTable
 70
     2
  0
APPID
  5
12
330
9
100
AcDbSymbolTableRecord
100
AcDbRegAppTableRecord
  2
ACAD
 70
     0
  0
ENDTAB
  0
TABLE
  2
DIMSTYLE
  5
A
330
0
100
AcDbSymbolTable
 70
     1
  0
DIMSTYLE
105
27
330
A
100
AcDbSymbolTableRecord
100
AcDbDimStyleTableRecord
  2
ISO-25
 70
     0
  3

  4

  5

  6

  7

 40
1.0
 41
2.5
 42
0.625
 43
3.75
 44
1.25
 45
0.0
 46
0.0
 47
0.0
 48
0.0
140
2.5
141
2.5
142
0.0
143
0.03937007874016
144
1.0
145
0.0
146
1.0
147
0.625
 71
     0
 72
     0
 73
     0
 74
     0
 75
     0
 76
     0
 77
     1
 78
     8
170
     0
171
     3
172
     1
173
     0
174
     0
175
     0
176
     0
177
     0
178
     0
270
     2
271
     2
272
     2
273
     2
274
     3
340
11
275
     0
280
     0
281
     0
282
     0
283
     0
284
     8
285
     0
286
     0
287
     3
288
     0
  0
ENDTAB
  0
TABLE
  2
BLOCK_RECORD
  5
1
330
0
100
AcDbSymbolTable
 70
     1
  0
BLOCK_RECORD
  5
1F
330
1
100
AcDbSymbolTableRecord
100
AcDbBlockTableRecord
  2
*MODEL_SPACE
  0
BLOCK_RECORD
  5
1B
330
1
100
AcDbSymbolTableRecord
100
AcDbBlockTableRecord
  2
*PAPER_SPACE
  0
ENDTAB
  0
ENDSEC
  0
SECTION
  2
BLOCKS
  0
BLOCK
  5
20
330
1F
100
AcDbEntity
  8
0
100
AcDbBlockBegin
  2
*MODEL_SPACE
 70
     0
 10
0.0
 20
0.0
 30
0.0
  3
*MODEL_SPACE
  1

  0
ENDBLK
  5
21
330
1F
100
AcDbEntity
  8
0
100
AcDbBlockEnd
  0
BLOCK
  5
1C
330
1B
100
AcDbEntity
 67
     1
  8
0
100
AcDbBlockBegin
  2
*PAPER_SPACE
  1

  0
ENDBLK
  5
1D
330
1B
100
AcDbEntity
 67
     1
  8
0
100
AcDbBlockEnd
  0
ENDSEC
  0
SECTION
  2
ENTITIES
  0
LINE
  5
100
100
AcDbEntity
  8
Layer_1
 62
5
100
AcDbLine
 10
302.359004
 20
184.175570
 30
0.0
 11
357.279095
 21
192.643295
 31
0.0
  0
LINE
  5
101
100
AcDbEntity
  8
Layer_1
 62
5
100
AcDbLine
 10
302.524047
 20
23.832598
 30
0.0
 11
302.538158
 21
10.918815
 31
0.0
  0
SPLINE
  5
102
100
AcDbEntity
  8
Layer_1
 62
5
100
AcDbSpline
 70
8
 71
3
 72
8
 73
4
 74
0
 40
0
 40
0
 40
0
 40
0
 40
1
 40
1
 40
1
 40
1
 10
302.538158
 20
10.918815
 30
0.0
 10
302.540980
 20
8.082834
 30
0.0
 10
304.863669
 20
5.765790
 30
0.0
 10
307.699297
 20
5.768612
 30
0.0
  0
LINE
  5
103
100
AcDbEntity
  8
Layer_1
 62
5
100
AcDbLine
 10
307.699297
 20
5.768612
 30
0.0
 11
348.244400
 21
23.881634
 31
0.0
  0
SPLINE
  5
104
100
AcDbEntity
  8
Layer_1
 62
5
100
AcDbSpline
 70
8
 71
3
 72
8
 73
4
 74
0
 40
0
 40
0
 40
0
 40
0
 40
1
 40
1
 40
1
 40
1
 10
237.821724
 20
217.101759
 30
0.0
 10
239.341138
 20
222.645662
 30
0.0
 10
239.631121
 20
224.762329
 30
0.0
 10
247.464552
 20
225.145446
 30
0.0
  0
LINE
  5
105
100
AcDbEntity
  8
Layer_1
 62
5
100
AcDbLine
 10
248.226552
 20
225.145375
 30
0.0
 11
302.346896
 21
225.127736
 31
0.0
  0
LINE
  5
106
100
AcDbEntity
  8
Layer_1
 62
5
100
AcDbLine
 10
398.264916
 20
127.054526
 30
0.0
 11
348.144366
 21
117.087143
 31
0.0
  0
LINE
  5
107
100
AcDbEntity
  8
Layer_1
 62
5
100
AcDbLine
 10
238.425256
 20
219.217043
 30
0.0
 11
185.844081
 21
36.168768
 31
0.0
  0
SPLINE
  5
108
100
AcDbEntity
  8
Layer_1
 62
5
100
AcDbSpline
 70
8
 71
3
 72
8
 73
4
 74
0
 40
0
 40
0
 40
0
 40
0
 40
1
 40
1
 40
1
 40
1
 10
185.844152
 20
36.168743
 30
0.0
 10
184.467260
 20
29.462085
 30
0.0
 10
191.458963
 20
23.726976
 30
0.0
 10
198.305321
 20
23.734032
 30
0.0
  0
LINE
  5
109
100
AcDbEntity
  8
Layer_1
 62
5
100
AcDbLine
 10
199.067448
 20
23.734066
 30
0.0
 11
301.762118
 21
23.832491
 31
0.0
  0
LINE
  5
10a
100
AcDbEntity
  8
Layer_1
 62
5
100
AcDbLine
 10
348.206653
 20
58.956706
 30
0.0
 11
307.403317
 21
85.195964
 31
0.0
  0
SPLINE
  5
10b
100
AcDbEntity
  8
Layer_1
 62
5
100
AcDbSpline
 70
8
 71
3
 72
8
 73
4
 74
0
 40
0
 40
0
 40
0
 40
0
 40
1
 40
1
 40
1
 40
1
 10
292.830899
 20
105.875092
 30
0.0
 10
275.494341
 20
94.014703
 30
0.0
 10
276.820080
 20
76.208950
 30
0.0
 10
292.254107
 20
64.370786
 30
0.0
  0
LINE
  5
10c
100
AcDbEntity
  8
Layer_1
 62
5
100
AcDbLine
 10
306.772846
 20
84.930675
 30
0.0
 11
292.254277
 21
64.370786
 31
0.0
  0
LINE
  5
10d
100
AcDbEntity
  8
Layer_1
 62
5
100
AcDbLine
 10
307.403302
 20
85.195927
 30
0.0
 11
292.830758
 21
105.875055
 31
0.0
  0
LINE
  5
10e
100
AcDbEntity
  8
Layer_1
 62
5
100
AcDbLine
 10
348.244273
 20
24.643527
 30
0.0
 11
348.144790
 21
116.469818
 31
0.0
  0
LINE
  5
10f
100
AcDbEntity
  8
Layer_1
 62
1
100
AcDbLine
 10
302.359004
 20
184.175570
 30
0.0
 11
302.524104
 21
23.832426
 31
0.0
  0
LINE
  5
110
100
AcDbEntity
  8
Layer_1
 62
5
100
AcDbLine
 10
294.869334
 20
52.158184
 30
0.0
 11
269.469334
 21
52.125728
 31
0.0
  0
LINE
  5
111
100
AcDbEntity
  8
Layer_1
 62
5
100
AcDbLine
 10
302.346924
 20
225.127793
 30
0.0
 11
331.441213
 21
225.127793
 31
0.0
  0
SPLINE
  5
112
100
AcDbEntity
  8
Layer_1
 62
5
100
AcDbSpline
 70
8
 71
3
 72
8
 73
4
 74
0
 40
0
 40
0
 40
0
 40
0
 40
1
 40
1
 40
1
 40
1
 10
332.203213
 20
225.127793
 30
0.0
 10
337.218655
 20
225.127793
 30
0.0
 10
339.001594
 20
222.042751
 30
0.0
 10
341.153891
 20
218.592231
 30
0.0
  0
LINE
  5
113
100
AcDbEntity
  8
Layer_1
 62
5
100
AcDbLine
 10
341.153891
 20
218.592231
 30
0.0
 11
397.916894
 21
127.611901
 31
0.0
  0
SPLINE
  5
114
100
AcDbEntity
  8
Layer_1
 62
5
100
AcDbSpline
 70
8
 71
3
 72
8
 73
4
 74
0
 40
0
 40
0
 40
0
 40
0
 40
1
 40
1
 40
1
 40
1
 10
383.891355
 20
115.394205
 30
0.0
 10
386.691000
 20
115.267557
 30
0.0
 10
389.194664
 20
114.696057
 30
0.0
 10
391.686686
 20
113.735091
 30
0.0
  0
SPLINE
  5
115
100
AcDbEntity
  8
Layer_1
 62
5
100
AcDbSpline
 70
8
 71
3
 72
8
 73
4
 74
0
 40
0
 40
0
 40
0
 40
0
 40
1
 40
1
 40
1
 40
1
 10
391.686686
 20
113.735091
 30
0.0
 10
401.198986
 20
110.065143
 30
0.0
 10
407.946919
 20
100.835066
 30
0.0
 10
407.946919
 20
90.029482
 30
0.0
  0
SPLINE
  5
116
100
AcDbEntity
  8
Layer_1
 62
5
100
AcDbSpline
 70
8
 71
3
 72
8
 73
4
 74
0
 40
0
 40
0
 40
0
 40
0
 40
1
 40
1
 40
1
 40
1
 10
407.946764
 20
89.888052
 30
0.0
 10
407.946764
 20
76.363963
 30
0.0
 10
397.550050
 20
65.458897
 30
0.0
 10
384.219989
 20
64.683138
 30
0.0
  0
SPLINE
  5
117
100
AcDbEntity
  8
Layer_1
 62
5
100
AcDbSpline
 70
8
 71
3
 72
8
 73
4
 74
0
 40
0
 40
0
 40
0
 40
0
 40
1
 40
1
 40
1
 40
1
 10
384.046352
 20
64.672710
 30
0.0
 10
383.550346
 20
64.643783
 30
0.0
 10
383.050460
 20
64.629319
 30
0.0
 10
382.547046
 20
64.629319
 30
0.0
  0
SPLINE
  5
118
100
AcDbEntity
  8
Layer_1
 62
5
100
AcDbSpline
 70
8
 71
3
 72
8
 73
4
 74
0
 40
0
 40
0
 40
0
 40
0
 40
1
 40
1
 40
1
 40
1
 10
382.547046
 20
64.629319
 30
0.0
 10
368.518838
 20
64.629319
 30
0.0
 10
357.147399
 20
75.895277
 30
0.0
 10
357.147399
 20
89.923133
 30
0.0
  0
SPLINE
  5
119
100
AcDbEntity
  8
Layer_1
 62
5
100
AcDbSpline
 70
8
 71
3
 72
8
 73
4
 74
0
 40
0
 40
0
 40
0
 40
0
 40
1
 40
1
 40
1
 40
1
 10
357.147046
 20
90.029333
 30
0.0
 10
357.147046
 20
104.057188
 30
0.0
 10
368.518838
 20
115.429333
 30
0.0
 10
382.547046
 20
115.429333
 30
0.0
  0
SPLINE
  5
11a
100
AcDbEntity
  8
Layer_1
 62
5
100
AcDbSpline
 70
8
 71
3
 72
8
 73
4
 74
0
 40
0
 40
0
 40
0
 40
0
 40
1
 40
1
 40
1
 40
1
 10
382.547046
 20
115.429333
 30
0.0
 10
382.937924
 20
115.429333
 30
0.0
 10
383.327038
 20
115.420161
 30
0.0
 10
383.713682
 20
115.402522
 30
0.0
  0
SPLINE
  5
11b
100
AcDbEntity
  8
Layer_1
 62
5
100
AcDbSpline
 70
8
 71
3
 72
8
 73
4
 74
0
 40
0
 40
0
 40
0
 40
0
 40
1
 40
1
 40
1
 40
1
 10
383.816905
 20
90.029333
 30
0.0
 10
383.816905
 20
90.729949
 30
0.0
 10
383.248580
 20
91.298980
 30
0.0
 10
382.546905
 20
91.298980
 30
0.0
  0
SPLINE
  5
11c
100
AcDbEntity
  8
Layer_1
 62
5
100
AcDbSpline
 70
8
 71
3
 72
8
 73
4
 74
0
 40
0
 40
0
 40
0
 40
0
 40
1
 40
1
 40
1
 40
1
 10
382.546905
 20
91.298980
 30
0.0
 10
381.845583
 20
91.298980
 30
0.0
 10
381.277258
 20
90.729949
 30
0.0
 10
381.277258
 20
90.029333
 30
0.0
  0
SPLINE
  5
11d
100
AcDbEntity
  8
Layer_1
 62
5
100
AcDbSpline
 70
8
 71
3
 72
8
 73
4
 74
0
 40
0
 40
0
 40
0
 40
0
 40
1
 40
1
 40
1
 40
1
 10
381.277258
 20
90.029333
 30
0.0
 10
381.277258
 20
89.328011
 30
0.0
 10
381.845583
 20
88.758627
 30
0.0
 10
382.546905
 20
88.758627
 30
0.0
  0
SPLINE
  5
11e
100
AcDbEntity
  8
Layer_1
 62
5
100
AcDbSpline
 70
8
 71
3
 72
8
 73
4
 74
0
 40
0
 40
0
 40
0
 40
0
 40
1
 40
1
 40
1
 40
1
 10
382.546905
 20
88.758627
 30
0.0
 10
383.248580
 20
88.758627
 30
0.0
 10
383.816905
 20
89.328011
 30
0.0
 10
383.816905
 20
90.029333
 30
0.0
  0
LINE
  5
11f
100
AcDbEntity
  8
Layer_1
 62
5
100
AcDbLine
 10
383.816905
 20
90.029333
 30
0.0
 11
383.816905
 21
90.029333
 31
0.0
  0
LINE
  5
120
100
AcDbEntity
  8
Layer_1
 62
5
100
AcDbLine
 10
422.814372
 20
373.377582
 30
0.0
 11
7.397020
 21
373.377582
 31
0.0
  0
LINE
  5
121
100
AcDbEntity
  8
Layer_1
 62
5
100
AcDbLine
 10
6.634819
 20
373.377582
 30
0.0
 11
6.634819
 21
347.977582
 31
0.0
  0
LINE
  5
122
100
AcDbEntity
  8
Layer_1
 62
5
100
AcDbLine
 10
422.814372
 20
347.977582
 30
0.0
 11
422.814372
 21
372.615582
 31
0.0
  0
LINE
  5
123
100
AcDbEntity
  8
Layer_1
 62
5
100
AcDbLine
 10
422.814372
 20
323.339574
 30
0.0
 11
422.814372
 21
347.977574
 31
0.0
  0
LINE
  5
124
100
AcDbEntity
  8
Layer_1
 62
5
100
AcDbLine
 10
422.052337
 20
347.977582
 30
0.0
 11
7.396984
 21
347.977582
 31
0.0
  0
LINE
  5
125
100
AcDbEntity
  8
Layer_1
 62
5
100
AcDbLine
 10
6.634819
 20
347.977582
 30
0.0
 11
6.634819
 21
322.577582
 31
0.0
  0
LINE
  5
126
100
AcDbEntity
  8
Layer_1
 62
5
100
AcDbLine
 10
7.396847
 20
322.577574
 30
0.0
 11
422.814200
 21
322.577574
 31
0.0
  0
SPLINE
  5
127
100
AcDbEntity
  8
Layer_1
 62
5
100
AcDbSpline
 70
8
 71
3
 72
8
 73
4
 74
0
 40
0
 40
0
 40
0
 40
0
 40
1
 40
1
 40
1
 40
1
 10
463.524354
 20
317.161060
 30
0.0
 10
466.323999
 20
317.034413
 30
0.0
 10
468.827663
 20
316.462913
 30
0.0
 10
471.319685
 20
315.501947
 30
0.0
  0
SPLINE
  5
128
100
AcDbEntity
  8
Layer_1
 62
5
100
AcDbSpline
 70
8
 71
3
 72
8
 73
4
 74
0
 40
0
 40
0
 40
0
 40
0
 40
1
 40
1
 40
1
 40
1
 10
471.319685
 20
315.501947
 30
0.0
 10
480.831985
 20
311.831999
 30
0.0
 10
487.579918
 20
302.601922
 30
0.0
 10
487.579918
 20
291.796338
 30
0.0
  0
SPLINE
  5
129
100
AcDbEntity
  8
Layer_1
 62
5
100
AcDbSpline
 70
8
 71
3
 72
8
 73
4
 74
0
 40
0
 40
0
 40
0
 40
0
 40
1
 40
1
 40
1
 40
1
 10
487.579763
 20
291.654908
 30
0.0
 10
487.579763
 20
278.130819
 30
0.0
 10
477.183049
 20
267.225753
 30
0.0
 10
463.852988
 20
266.449994
 30
0.0
  0
SPLINE
  5
12a
100
AcDbEntity
  8
Layer_1
 62
5
100
AcDbSpline
 70
8
 71
3
 72
8
 73
4
 74
0
 40
0
 40
0
 40
0
 40
0
 40
1
 40
1
 40
1
 40
1
 10
463.679351
 20
266.439566
 30
0.0
 10
463.183345
 20
266.410638
 30
0.0
 10
462.683459
 20
266.396174
 30
0.0
 10
462.180045
 20
266.396174
 30
0.0
  0
SPLINE
  5
12b
100
AcDbEntity
  8
Layer_1
 62
5
100
AcDbSpline
 70
8
 71
3
 72
8
 73
4
 74
0
 40
0
 40
0
 40
0
 40
0
 40
1
 40
1
 40
1
 40
1
 10
462.180045
 20
266.396174
 30
0.0
 10
448.151837
 20
266.396174
 30
0.0
 10
436.780398
 20
277.662133
 30
0.0
 10
436.780398
 20
291.689988
 30
0.0
  0
SPLINE
  5
12c
100
AcDbEntity
  8
Layer_1
 62
5
100
AcDbSpline
 70
8
 71
3
 72
8
 73
4
 74
0
 40
0
 40
0
 40
0
 40
0
 40
1
 40
1
 40
1
 40
1
 10
436.780045
 20
291.796189
 30
0.0
 10
436.780045
 20
305.824044
 30
0.0
 10
448.151837
 20
317.196189
 30
0.0
 10
462.180045
 20
317.196189
 30
0.0
  0
SPLINE
  5
12d
100
AcDbEntity
  8
Layer_1
 62
5
100
AcDbSpline
 70
8
 71
3
 72
8
 73
4
 74
0
 40
0
 40
0
 40
0
 40
0
 40
1
 40
1
 40
1
 40
1
 10
462.180045
 20
317.196189
 30
0.0
 10
462.570923
 20
317.196189
 30
0.0
 10
462.960037
 20
317.187016
 30
0.0
 10
463.346681
 20
317.169377
 30
0.0
  0
SPLINE
  5
12e
100
AcDbEntity
  8
Layer_1
 62
5
100
AcDbSpline
 70
8
 71
3
 72
8
 73
4
 74
0
 40
0
 40
0
 40
0
 40
0
 40
1
 40
1
 40
1
 40
1
 10
463.449904
 20
291.796189
 30
0.0
 10
463.449904
 20
292.496805
 30
0.0
 10
462.881579
 20
293.065836
 30
0.0
 10
462.179904
 20
293.065836
 30
0.0
  0
SPLINE
  5
12f
100
AcDbEntity
  8
Layer_1
 62
5
100
AcDbSpline
 70
8
 71
3
 72
8
 73
4
 74
0
 40
0
 40
0
 40
0
 40
0
 40
1
 40
1
 40
1
 40
1
 10
462.179904
 20
293.065836
 30
0.0
 10
461.478582
 20
293.065836
 30
0.0
 10
460.910257
 20
292.496805
 30
0.0
 10
460.910257
 20
291.796189
 30
0.0
  0
SPLINE
  5
130
100
AcDbEntity
  8
Layer_1
 62
5
100
AcDbSpline
 70
8
 71
3
 72
8
 73
4
 74
0
 40
0
 40
0
 40
0
 40
0
 40
1
 40
1
 40
1
 40
1
 10
460.910257
 20
291.796189
 30
0.0
 10
460.910257
 20
291.094866
 30
0.0
 10
461.478582
 20
290.525483
 30
0.0
 10
462.179904
 20
290.525483
 30
0.0
  0
SPLINE
  5
131
100
AcDbEntity
  8
Layer_1
 62
5
100
AcDbSpline
 70
8
 71
3
 72
8
 73
4
 74
0
 40
0
 40
0
 40
0
 40
0
 40
1
 40
1
 40
1
 40
1
 10
462.179904
 20
290.525483
 30
0.0
 10
462.881579
 20
290.525483
 30
0.0
 10
463.449904
 20
291.094866
 30
0.0
 10
463.449904
 20
291.796189
 30
0.0
  0
LINE
  5
132
100
AcDbEntity
  8
Layer_1
 62
5
100
AcDbLine
 10
463.449904
 20
291.796189
 30
0.0
 11
463.449904
 21
291.796189
 31
0.0
  0
SPLINE
  5
133
100
AcDbEntity
  8
Layer_1
 62
5
100
AcDbSpline
 70
8
 71
3
 72
8
 73
4
 74
0
 40
0
 40
0
 40
0
 40
0
 40
1
 40
1
 40
1
 40
1
 10
385.133700
 20
60.043738
 30
0.0
 10
387.933345
 20
59.917091
 30
0.0
 10
390.437009
 20
59.345591
 30
0.0
 10
392.929031
 20
58.384624
 30
0.0
  0
SPLINE
  5
134
100
AcDbEntity
  8
Layer_1
 62
5
100
AcDbSpline
 70
8
 71
3
 72
8
 73
4
 74
0
 40
0
 40
0
 40
0
 40
0
 40
1
 40
1
 40
1
 40
1
 10
392.929031
 20
58.384624
 30
0.0
 10
402.441331
 20
54.714677
 30
0.0
 10
409.189264
 20
45.484599
 30
0.0
 10
409.189264
 20
34.679016
 30
0.0
  0
SPLINE
  5
135
100
AcDbEntity
  8
Layer_1
 62
5
100
AcDbSpline
 70
8
 71
3
 72
8
 73
4
 74
0
 40
0
 40
0
 40
0
 40
0
 40
1
 40
1
 40
1
 40
1
 10
409.189109
 20
34.537586
 30
0.0
 10
409.189109
 20
21.013497
 30
0.0
 10
398.792395
 20
10.108430
 30
0.0
 10
385.462334
 20
9.332672
 30
0.0
  0
SPLINE
  5
136
100
AcDbEntity
  8
Layer_1
 62
5
100
AcDbSpline
 70
8
 71
3
 72
8
 73
4
 74
0
 40
0
 40
0
 40
0
 40
0
 40
1
 40
1
 40
1
 40
1
 10
385.288697
 20
9.322244
 30
0.0
 10
384.792691
 20
9.293316
 30
0.0
 10
384.292805
 20
9.278852
 30
0.0
 10
383.789391
 20
9.278852
 30
0.0
  0
SPLINE
  5
137
100
AcDbEntity
  8
Layer_1
 62
5
100
AcDbSpline
 70
8
 71
3
 72
8
 73
4
 74
0
 40
0
 40
0
 40
0
 40
0
 40
1
 40
1
 40
1
 40
1
 10
383.789391
 20
9.278852
 30
0.0
 10
369.761183
 20
9.278852
 30
0.0
 10
358.389744
 20
20.544811
 30
0.0
 10
358.389744
 20
34.572666
 30
0.0
  0
SPLINE
  5
138
100
AcDbEntity
  8
Layer_1
 62
5
100
AcDbSpline
 70
8
 71
3
 72
8
 73
4
 74
0
 40
0
 40
0
 40
0
 40
0
 40
1
 40
1
 40
1
 40
1
 10
358.389391
 20
34.678866
 30
0.0
 10
358.389391
 20
48.706722
 30
0.0
 10
369.761183
 20
60.078866
 30
0.0
 10
383.789391
 20
60.078866
 30
0.0
  0
SPLINE
  5
139
100
AcDbEntity
  8
Layer_1
 62
5
100
AcDbSpline
 70
8
 71
3
 72
8
 73
4
 74
0
 40
0
 40
0
 40
0
 40
0
 40
1
 40
1
 40
1
 40
1
 10
383.789391
 20
60.078866
 30
0.0
 10
384.180269
 20
60.078866
 30
0.0
 10
384.569383
 20
60.069694
 30
0.0
 10
384.956027
 20
60.052055
 30
0.0
  0
SPLINE
  5
13a
100
AcDbEntity
  8
Layer_1
 62
5
100
AcDbSpline
 70
8
 71
3
 72
8
 73
4
 74
0
 40
0
 40
0
 40
0
 40
0
 40
1
 40
1
 40
1
 40
1
 10
385.059250
 20
34.678866
 30
0.0
 10
385.059250
 20
35.379483
 30
0.0
 10
384.490925
 20
35.948514
 30
0.0
 10
383.789250
 20
35.948514
 30
0.0
  0
SPLINE
  5
13b
100
AcDbEntity
  8
Layer_1
 62
5
100
AcDbSpline
 70
8
 71
3
 72
8
 73
4
 74
0
 40
0
 40
0
 40
0
 40
0
 40
1
 40
1
 40
1
 40
1
 10
383.789250
 20
35.948514
 30
0.0
 10
383.087928
 20
35.948514
 30
0.0
 10
382.519603
 20
35.379483
 30
0.0
 10
382.519603
 20
34.678866
 30
0.0
  0
SPLINE
  5
13c
100
AcDbEntity
  8
Layer_1
 62
5
100
AcDbSpline
 70
8
 71
3
 72
8
 73
4
 74
0
 40
0
 40
0
 40
0
 40
0
 40
1
 40
1
 40
1
 40
1
 10
382.519603
 20
34.678866
 30
0.0
 10
382.519603
 20
33.977544
 30
0.0
 10
383.087928
 20
33.408161
 30
0.0
 10
383.789250
 20
33.408161
 30
0.0
  0
SPLINE
  5
13d
100
AcDbEntity
  8
Layer_1
 62
5
100
AcDbSpline
 70
8
 71
3
 72
8
 73
4
 74
0
 40
0
 40
0
 40
0
 40
0
 40
1
 40
1
 40
1
 40
1
 10
383.789250
 20
33.408161
 30
0.0
 10
384.490925
 20
33.408161
 30
0.0
 10
385.059250
 20
33.977544
 30
0.0
 10
385.059250
 20
34.678866
 30
0.0
  0
LINE
  5
13e
100
AcDbEntity
  8
Layer_1
 62
5
100
AcDbLine
 10
385.059250
 20
34.678866
 30
0.0
 11
385.059250
 21
34.678866
 31
0.0
  0
SPLINE
  5
13f
100
AcDbEntity
  8
Layer_1
 62
5
100
AcDbSpline
 70
8
 71
3
 72
8
 73
4
 74
0
 40
0
 40
0
 40
0
 40
0
 40
1
 40
1
 40
1
 40
1
 10
463.204221
 20
374.608125
 30
0.0
 10
466.003866
 20
374.481477
 30
0.0
 10
468.507530
 20
373.909977
 30
0.0
 10
470.999552
 20
372.949011
 30
0.0
  0
SPLINE
  5
140
100
AcDbEntity
  8
Layer_1
 62
5
100
AcDbSpline
 70
8
 71
3
 72
8
 73
4
 74
0
 40
0
 40
0
 40
0
 40
0
 40
1
 40
1
 40
1
 40
1
 10
470.999552
 20
372.949011
 30
0.0
 10
480.511852
 20
369.279064
 30
0.0
 10
487.259785
 20
360.048986
 30
0.0
 10
487.259785
 20
349.243402
 30
0.0
  0
SPLINE
  5
141
100
AcDbEntity
  8
Layer_1
 62
5
100
AcDbSpline
 70
8
 71
3
 72
8
 73
4
 74
0
 40
0
 40
0
 40
0
 40
0
 40
1
 40
1
 40
1
 40
1
 10
487.259630
 20
349.101972
 30
0.0
 10
487.259630
 20
335.577884
 30
0.0
 10
476.862916
 20
324.672817
 30
0.0
 10
463.532855
 20
323.897059
 30
0.0
  0
SPLINE
  5
142
100
AcDbEntity
  8
Layer_1
 62
5
100
AcDbSpline
 70
8
 71
3
 72
8
 73
4
 74
0
 40
0
 40
0
 40
0
 40
0
 40
1
 40
1
 40
1
 40
1
 10
463.359218
 20
323.886630
 30
0.0
 10
462.863212
 20
323.857703
 30
0.0
 10
462.363326
 20
323.843239
 30
0.0
 10
461.859912
 20
323.843239
 30
0.0
  0
SPLINE
  5
143
100
AcDbEntity
  8
Layer_1
 62
5
100
AcDbSpline
 70
8
 71
3
 72
8
 73
4
 74
0
 40
0
 40
0
 40
0
 40
0
 40
1
 40
1
 40
1
 40
1
 10
461.859912
 20
323.843239
 30
0.0
 10
447.831704
 20
323.843239
 30
0.0
 10
436.460265
 20
335.109197
 30
0.0
 10
436.460265
 20
349.137053
 30
0.0
  0
SPLINE
  5
144
100
AcDbEntity
  8
Layer_1
 62
5
100
AcDbSpline
 70
8
 71
3
 72
8
 73
4
 74
0
 40
0
 40
0
 40
0
 40
0
 40
1
 40
1
 40
1
 40
1
 10
436.459912
 20
349.243253
 30
0.0
 10
436.459912
 20
363.271108
 30
0.0
 10
447.831704
 20
374.643253
 30
0.0
 10
461.859912
 20
374.643253
 30
0.0
  0
SPLINE
  5
145
100
AcDbEntity
  8
Layer_1
 62
5
100
AcDbSpline
 70
8
 71
3
 72
8
 73
4
 74
0
 40
0
 40
0
 40
0
 40
0
 40
1
 40
1
 40
1
 40
1
 10
461.859912
 20
374.643253
 30
0.0
 10
462.250790
 20
374.643253
 30
0.0
 10
462.639904
 20
374.634081
 30
0.0
 10
463.026548
 20
374.616442
 30
0.0
  0
SPLINE
  5
146
100
AcDbEntity
  8
Layer_1
 62
5
100
AcDbSpline
 70
8
 71
3
 72
8
 73
4
 74
0
 40
0
 40
0
 40
0
 40
0
 40
1
 40
1
 40
1
 40
1
 10
463.129771
 20
349.243253
 30
0.0
 10
463.129771
 20
349.943870
 30
0.0
 10
462.561446
 20
350.512900
 30
0.0
 10
461.859771
 20
350.512900
 30
0.0
  0
SPLINE
  5
147
100
AcDbEntity
  8
Layer_1
 62
5
100
AcDbSpline
 70
8
 71
3
 72
8
 73
4
 74
0
 40
0
 40
0
 40
0
 40
0
 40
1
 40
1
 40
1
 40
1
 10
461.859771
 20
350.512900
 30
0.0
 10
461.158449
 20
350.512900
 30
0.0
 10
460.590124
 20
349.943870
 30
0.0
 10
460.590124
 20
349.243253
 30
0.0
  0
SPLINE
  5
148
100
AcDbEntity
  8
Layer_1
 62
5
100
AcDbSpline
 70
8
 71
3
 72
8
 73
4
 74
0
 40
0
 40
0
 40
0
 40
0
 40
1
 40
1
 40
1
 40
1
 10
460.590124
 20
349.243253
 30
0.0
 10
460.590124
 20
348.541931
 30
0.0
 10
461.158449
 20
347.972547
 30
0.0
 10
461.859771
 20
347.972547
 30
0.0
  0
SPLINE
  5
149
100
AcDbEntity
  8
Layer_1
 62
5
100
AcDbSpline
 70
8
 71
3
 72
8
 73
4
 74
0
 40
0
 40
0
 40
0
 40
0
 40
1
 40
1
 40
1
 40
1
 10
461.859771
 20
347.972547
 30
0.0
 10
462.561446
 20
347.972547
 30
0.0
 10
463.129771
 20
348.541931
 30
0.0
 10
463.129771
 20
349.243253
 30
0.0
  0
LINE
  5
14a
100
AcDbEntity
  8
Layer_1
 62
5
100
AcDbLine
 10
463.129771
 20
349.243253
 30
0.0
 11
463.129771
 21
349.243253
 31
0.0
  0
LINE
  5
14b
100
AcDbEntity
  8
Layer_1
 62
5
100
AcDbLine
 10
423.806073
 20
316.247575
 30
0.0
 11
8.388720
 21
316.247575
 31
0.0
  0
LINE
  5
14c
100
AcDbEntity
  8
Layer_1
 62
5
100
AcDbLine
 10
7.626519
 20
316.247575
 30
0.0
 11
7.626519
 21
290.847575
 31
0.0
  0
LINE
  5
14d
100
AcDbEntity
  8
Layer_1
 62
5
100
AcDbLine
 10
423.806073
 20
290.847575
 30
0.0
 11
423.806073
 21
315.485575
 31
0.0
  0
LINE
  5
14e
100
AcDbEntity
  8
Layer_1
 62
5
100
AcDbLine
 10
423.806073
 20
266.209566
 30
0.0
 11
423.806073
 21
290.847566
 31
0.0
  0
LINE
  5
14f
100
AcDbEntity
  8
Layer_1
 62
5
100
AcDbLine
 10
423.044038
 20
290.847575
 30
0.0
 11
8.388685
 21
290.847575
 31
0.0
  0
LINE
  5
150
100
AcDbEntity
  8
Layer_1
 62
5
100
AcDbLine
 10
7.626519
 20
290.847575
 30
0.0
 11
7.626519
 21
265.447575
 31
0.0
  0
LINE
  5
151
100
AcDbEntity
  8
Layer_1
 62
5
100
AcDbLine
 10
8.388548
 20
265.447566
 30
0.0
 11
423.805900
 21
265.447566
 31
0.0
  0
SPLINE
  5
152
100
AcDbEntity
  8
Layer_1
 62
5
100
AcDbSpline
 70
8
 71
3
 72
8
 73
4
 74
0
 40
0
 40
0
 40
0
 40
0
 40
1
 40
1
 40
1
 40
1
 10
140.928288
 20
95.603851
 30
0.0
 10
140.928288
 20
95.603851
 30
0.0
 10
190.282604
 20
86.042162
 30
0.0
 10
190.359157
 20
86.027698
 30
0.0
  0
LINE
  5
153
100
AcDbEntity
  8
Layer_1
 62
5
100
AcDbLine
 10
190.801188
 20
85.942397
 30
0.0
 11
175.312832
 21
5.994838
 31
0.0
  0
LINE
  5
154
100
AcDbEntity
  8
Layer_1
 62
1
100
AcDbLine
 10
186.562012
 20
86.762986
 30
0.0
 11
170.953359
 21
6.194539
 31
0.0
  0
LINE
  5
155
100
AcDbEntity
  8
Layer_1
 62
1
100
AcDbLine
 10
140.928288
 20
95.603851
 30
0.0
 11
125.319635
 21
15.035404
 31
0.0
  0
LINE
  5
156
100
AcDbEntity
  8
Layer_1
 62
1
100
AcDbLine
 10
129.558768
 20
14.214179
 30
0.0
 11
145.167421
 21
94.782627
 31
0.0
  0
LINE
  5
157
100
AcDbEntity
  8
Layer_1
 62
5
100
AcDbLine
 10
175.192492
 20
5.373343
 30
0.0
 11
125.319592
 21
15.035573
 31
0.0
  0
SPLINE
  5
158
100
AcDbEntity
  8
Layer_1
 62
5
100
AcDbSpline
 70
8
 71
3
 72
8
 73
4
 74
0
 40
0
 40
0
 40
0
 40
0
 40
1
 40
1
 40
1
 40
1
 10
140.928288
 20
95.603851
 30
0.0
 10
148.953276
 20
144.515079
 30
0.0
 10
137.606179
 20
188.983776
 30
0.0
 10
105.165793
 20
206.903123
 30
0.0
  0
LINE
  5
159
100
AcDbEntity
  8
Layer_1
 62
5
100
AcDbLine
 10
125.319564
 20
15.035446
 30
0.0
 11
105.137500
 21
20.076288
 31
0.0
  0
LINE
  5
15a
100
AcDbEntity
  8
Layer_1
 62
5
100
AcDbLine
 10
105.137500
 20
20.076288
 30
0.0
 11
105.165370
 21
129.941166
 31
0.0
  0
LINE
  5
15b
100
AcDbEntity
  8
Layer_1
 62
5
100
AcDbLine
 10
105.165454
 20
130.703151
 30
0.0
 11
45.729807
 21
130.703151
 31
0.0
  0
LINE
  5
15c
100
AcDbEntity
  8
Layer_1
 62
4
100
AcDbLine
 10
146.631604
 20
46.950123
 30
0.0
 11
166.580834
 21
43.085442
 31
0.0
  0
LINE
  5
15d
100
AcDbEntity
  8
Layer_1
 62
4
100
AcDbLine
 10
166.580834
 20
43.085442
 30
0.0
 11
166.097529
 21
40.592009
 31
0.0
  0
LINE
  5
15e
100
AcDbEntity
  8
Layer_1
 62
4
100
AcDbLine
 10
166.097529
 20
40.592009
 30
0.0
 11
146.148651
 21
44.456689
 31
0.0
  0
LINE
  5
15f
100
AcDbEntity
  8
Layer_1
 62
4
100
AcDbLine
 10
146.148651
 20
44.456689
 30
0.0
 11
146.631604
 21
46.950123
 31
0.0
  0
LINE
  5
160
100
AcDbEntity
  8
Layer_1
 62
4
100
AcDbLine
 10
146.631604
 20
46.950123
 30
0.0
 11
146.631604
 21
46.950123
 31
0.0
  0
LINE
  5
161
100
AcDbEntity
  8
Layer_1
 62
4
100
AcDbLine
 10
169.599751
 20
58.671066
 30
0.0
 11
172.093537
 21
58.188113
 31
0.0
  0
LINE
  5
162
100
AcDbEntity
  8
Layer_1
 62
4
100
AcDbLine
 10
172.093537
 20
58.188113
 30
0.0
 11
168.591512
 21
40.108957
 31
0.0
  0
LINE
  5
163
100
AcDbEntity
  8
Layer_1
 62
4
100
AcDbLine
 10
168.591512
 20
40.108957
 30
0.0
 11
166.097373
 21
40.591910
 31
0.0
  0
LINE
  5
164
100
AcDbEntity
  8
Layer_1
 62
4
100
AcDbLine
 10
166.097373
 20
40.591910
 30
0.0
 11
169.599751
 21
58.671066
 31
0.0
  0
LINE
  5
165
100
AcDbEntity
  8
Layer_1
 62
4
100
AcDbLine
 10
169.599751
 20
58.671066
 30
0.0
 11
169.599751
 21
58.671066
 31
0.0
  0
LINE
  5
166
100
AcDbEntity
  8
Layer_1
 62
4
100
AcDbLine
 10
147.157355
 20
63.018755
 30
0.0
 11
149.650789
 21
62.535803
 31
0.0
  0
LINE
  5
167
100
AcDbEntity
  8
Layer_1
 62
4
100
AcDbLine
 10
149.650789
 20
62.535803
 30
0.0
 11
146.148764
 21
44.456647
 31
0.0
  0
LINE
  5
168
100
AcDbEntity
  8
Layer_1
 62
4
100
AcDbLine
 10
146.148764
 20
44.456647
 30
0.0
 11
143.654625
 21
44.939600
 31
0.0
  0
LINE
  5
169
100
AcDbEntity
  8
Layer_1
 62
4
100
AcDbLine
 10
143.654625
 20
44.939600
 30
0.0
 11
147.157355
 21
63.018755
 31
0.0
  0
LINE
  5
16a
100
AcDbEntity
  8
Layer_1
 62
4
100
AcDbLine
 10
147.157355
 20
63.018755
 30
0.0
 11
147.157355
 21
63.018755
 31
0.0
  0
LINE
  5
16b
100
AcDbEntity
  8
Layer_1
 62
4
100
AcDbLine
 10
151.848199
 20
47.220238
 30
0.0
 11
154.410071
 21
60.446582
 31
0.0
  0
LINE
  5
16c
100
AcDbEntity
  8
Layer_1
 62
4
100
AcDbLine
 10
154.410071
 20
60.446582
 30
0.0
 11
159.372244
 21
59.483499
 31
0.0
  0
SPLINE
  5
16d
100
AcDbEntity
  8
Layer_1
 62
4
100
AcDbSpline
 70
8
 71
3
 72
8
 73
4
 74
0
 40
0
 40
0
 40
0
 40
0
 40
1
 40
1
 40
1
 40
1
 10
159.372244
 20
59.483499
 30
0.0
 10
160.382952
 20
59.289118
 30
0.0
 10
161.167882
 20
58.997724
 30
0.0
 10
161.723155
 20
58.612490
 30
0.0
  0
SPLINE
  5
16e
100
AcDbEntity
  8
Layer_1
 62
4
100
AcDbSpline
 70
8
 71
3
 72
8
 73
4
 74
0
 40
0
 40
0
 40
0
 40
0
 40
1
 40
1
 40
1
 40
1
 10
161.723155
 20
58.612490
 30
0.0
 10
162.282307
 20
58.226552
 30
0.0
 10
162.680946
 20
57.721374
 30
0.0
 10
162.920130
 20
57.097310
 30
0.0
  0
SPLINE
  5
16f
100
AcDbEntity
  8
Layer_1
 62
4
100
AcDbSpline
 70
8
 71
3
 72
8
 73
4
 74
0
 40
0
 40
0
 40
0
 40
0
 40
1
 40
1
 40
1
 40
1
 10
162.920130
 20
57.097310
 30
0.0
 10
163.159313
 20
56.475715
 30
0.0
 10
163.218932
 20
55.861177
 30
0.0
 10
163.100399
 20
55.251929
 30
0.0
  0
SPLINE
  5
170
100
AcDbEntity
  8
Layer_1
 62
4
100
AcDbSpline
 70
8
 71
3
 72
8
 73
4
 74
0
 40
0
 40
0
 40
0
 40
0
 40
1
 40
1
 40
1
 40
1
 10
163.100399
 20
55.251929
 30
0.0
 10
162.990685
 20
54.687132
 30
0.0
 10
162.733510
 20
54.184777
 30
0.0
 10
162.332402
 20
53.745215
 30
0.0
  0
SPLINE
  5
171
100
AcDbEntity
  8
Layer_1
 62
4
100
AcDbSpline
 70
8
 71
3
 72
8
 73
4
 74
0
 40
0
 40
0
 40
0
 40
0
 40
1
 40
1
 40
1
 40
1
 10
162.332402
 20
53.745215
 30
0.0
 10
161.927413
 20
53.305654
 30
0.0
 10
161.384841
 20
52.991329
 30
0.0
 10
160.707155
 20
52.806121
 30
0.0
  0
SPLINE
  5
172
100
AcDbEntity
  8
Layer_1
 62
4
100
AcDbSpline
 70
8
 71
3
 72
8
 73
4
 74
0
 40
0
 40
0
 40
0
 40
0
 40
1
 40
1
 40
1
 40
1
 10
160.707155
 20
52.806121
 30
0.0
 10
161.460688
 20
52.414185
 30
0.0
 10
162.000791
 20
51.896660
 30
0.0
 10
162.321113
 20
51.246843
 30
0.0
  0
SPLINE
  5
173
100
AcDbEntity
  8
Layer_1
 62
4
100
AcDbSpline
 70
8
 71
3
 72
8
 73
4
 74
0
 40
0
 40
0
 40
0
 40
0
 40
1
 40
1
 40
1
 40
1
 10
162.321113
 20
51.246843
 30
0.0
 10
162.641788
 20
50.600554
 30
0.0
 10
162.726807
 20
49.891471
 30
0.0
 10
162.576877
 20
49.119946
 30
0.0
  0
SPLINE
  5
174
100
AcDbEntity
  8
Layer_1
 62
4
100
AcDbSpline
 70
8
 71
3
 72
8
 73
4
 74
0
 40
0
 40
0
 40
0
 40
0
 40
1
 40
1
 40
1
 40
1
 10
162.576877
 20
49.119946
 30
0.0
 10
162.457991
 20
48.501174
 30
0.0
 10
162.213516
 20
47.951899
 30
0.0
 10
161.849449
 20
47.468240
 30
0.0
  0
SPLINE
  5
175
100
AcDbEntity
  8
Layer_1
 62
4
100
AcDbSpline
 70
8
 71
3
 72
8
 73
4
 74
0
 40
0
 40
0
 40
0
 40
0
 40
1
 40
1
 40
1
 40
1
 10
161.849449
 20
47.468240
 30
0.0
 10
161.485735
 20
46.988110
 30
0.0
 10
161.081452
 20
46.639565
 30
0.0
 10
160.642244
 20
46.425782
 30
0.0
  0
SPLINE
  5
176
100
AcDbEntity
  8
Layer_1
 62
4
100
AcDbSpline
 70
8
 71
3
 72
8
 73
4
 74
0
 40
0
 40
0
 40
0
 40
0
 40
1
 40
1
 40
1
 40
1
 10
160.642244
 20
46.425782
 30
0.0
 10
160.199860
 20
46.211999
 30
0.0
 10
159.675280
 20
46.086057
 30
0.0
 10
159.067091
 20
46.050779
 30
0.0
  0
SPLINE
  5
177
100
AcDbEntity
  8
Layer_1
 62
4
100
AcDbSpline
 70
8
 71
3
 72
8
 73
4
 74
0
 40
0
 40
0
 40
0
 40
0
 40
1
 40
1
 40
1
 40
1
 10
159.067091
 20
46.050779
 30
0.0
 10
158.457844
 20
46.016560
 30
0.0
 10
157.733238
 20
46.081824
 30
0.0
 10
156.892216
 20
46.244454
 30
0.0
  0
LINE
  5
178
100
AcDbEntity
  8
Layer_1
 62
4
100
AcDbLine
 10
156.892216
 20
46.244454
 30
0.0
 11
151.848199
 21
47.220238
 31
0.0
  0
LINE
  5
179
100
AcDbEntity
  8
Layer_1
 62
4
100
AcDbLine
 10
151.848199
 20
47.220238
 30
0.0
 11
151.848199
 21
47.220238
 31
0.0
  0
LINE
  5
17a
100
AcDbEntity
  8
Layer_1
 62
4
100
AcDbLine
 10
155.085175
 20
54.549972
 30
0.0
 11
157.944439
 21
53.996817
 31
0.0
  0
SPLINE
  5
17b
100
AcDbEntity
  8
Layer_1
 62
4
100
AcDbSpline
 70
8
 71
3
 72
8
 73
4
 74
0
 40
0
 40
0
 40
0
 40
0
 40
1
 40
1
 40
1
 40
1
 10
157.944439
 20
53.996817
 30
0.0
 10
158.719845
 20
53.846533
 30
0.0
 10
159.284642
 20
53.790089
 30
0.0
 10
159.642711
 20
53.825014
 30
0.0
  0
SPLINE
  5
17c
100
AcDbEntity
  8
Layer_1
 62
4
100
AcDbSpline
 70
8
 71
3
 72
8
 73
4
 74
0
 40
0
 40
0
 40
0
 40
0
 40
1
 40
1
 40
1
 40
1
 10
159.642711
 20
53.825014
 30
0.0
 10
160.113317
 20
53.872639
 30
0.0
 10
160.489731
 20
54.026450
 30
0.0
 10
160.775128
 20
54.290328
 30
0.0
  0
SPLINE
  5
17d
100
AcDbEntity
  8
Layer_1
 62
4
100
AcDbSpline
 70
8
 71
3
 72
8
 73
4
 74
0
 40
0
 40
0
 40
0
 40
0
 40
1
 40
1
 40
1
 40
1
 10
160.775128
 20
54.290328
 30
0.0
 10
161.060878
 20
54.550678
 30
0.0
 10
161.248556
 20
54.915097
 30
0.0
 10
161.336397
 20
55.379705
 30
0.0
  0
SPLINE
  5
17e
100
AcDbEntity
  8
Layer_1
 62
4
100
AcDbSpline
 70
8
 71
3
 72
8
 73
4
 74
0
 40
0
 40
0
 40
0
 40
0
 40
1
 40
1
 40
1
 40
1
 10
161.336397
 20
55.379705
 30
0.0
 10
161.420711
 20
55.819267
 30
0.0
 10
161.392136
 20
56.223550
 30
0.0
 10
161.244675
 20
56.600317
 30
0.0
  0
SPLINE
  5
17f
100
AcDbEntity
  8
Layer_1
 62
4
100
AcDbSpline
 70
8
 71
3
 72
8
 73
4
 74
0
 40
0
 40
0
 40
0
 40
0
 40
1
 40
1
 40
1
 40
1
 10
161.244675
 20
56.600317
 30
0.0
 10
161.100036
 20
56.973908
 30
0.0
 10
160.842156
 20
57.259305
 30
0.0
 10
160.474914
 20
57.459683
 30
0.0
  0
SPLINE
  5
180
100
AcDbEntity
  8
Layer_1
 62
4
100
AcDbSpline
 70
8
 71
3
 72
8
 73
4
 74
0
 40
0
 40
0
 40
0
 40
0
 40
1
 40
1
 40
1
 40
1
 10
160.474914
 20
57.459683
 30
0.0
 10
160.110847
 20
57.657592
 30
0.0
 10
159.451858
 20
57.848444
 30
0.0
 10
158.500770
 20
58.032947
 30
0.0
  0
LINE
  5
181
100
AcDbEntity
  8
Layer_1
 62
4
100
AcDbLine
 10
158.500770
 20
58.032947
 30
0.0
 11
155.858111
 21
58.545533
 31
0.0
  0
LINE
  5
182
100
AcDbEntity
  8
Layer_1
 62
4
100
AcDbLine
 10
155.858111
 20
58.545533
 30
0.0
 11
155.085175
 21
54.549972
 31
0.0
  0
LINE
  5
183
100
AcDbEntity
  8
Layer_1
 62
4
100
AcDbLine
 10
155.085175
 20
54.549972
 30
0.0
 11
155.085175
 21
54.549972
 31
0.0
  0
LINE
  5
184
100
AcDbEntity
  8
Layer_1
 62
4
100
AcDbLine
 10
153.899757
 20
48.442514
 30
0.0
 11
157.192232
 21
47.804339
 31
0.0
  0
SPLINE
  5
185
100
AcDbEntity
  8
Layer_1
 62
4
100
AcDbSpline
 70
8
 71
3
 72
8
 73
4
 74
0
 40
0
 40
0
 40
0
 40
0
 40
1
 40
1
 40
1
 40
1
 10
157.192232
 20
47.804339
 30
0.0
 10
157.757382
 20
47.694978
 30
0.0
 10
158.158843
 20
47.638533
 30
0.0
 10
158.397321
 20
47.638533
 30
0.0
  0
SPLINE
  5
186
100
AcDbEntity
  8
Layer_1
 62
4
100
AcDbSpline
 70
8
 71
3
 72
8
 73
4
 74
0
 40
0
 40
0
 40
0
 40
0
 40
1
 40
1
 40
1
 40
1
 10
158.397321
 20
47.638533
 30
0.0
 10
158.811835
 20
47.632889
 30
0.0
 10
159.172727
 20
47.686511
 30
0.0
 10
159.477174
 20
47.802575
 30
0.0
  0
SPLINE
  5
187
100
AcDbEntity
  8
Layer_1
 62
4
100
AcDbSpline
 70
8
 71
3
 72
8
 73
4
 74
0
 40
0
 40
0
 40
0
 40
0
 40
1
 40
1
 40
1
 40
1
 10
159.477174
 20
47.802575
 30
0.0
 10
159.781268
 20
47.918992
 30
0.0
 10
160.050790
 20
48.120075
 30
0.0
 10
160.286446
 20
48.408647
 30
0.0
  0
SPLINE
  5
188
100
AcDbEntity
  8
Layer_1
 62
4
100
AcDbSpline
 70
8
 71
3
 72
8
 73
4
 74
0
 40
0
 40
0
 40
0
 40
0
 40
1
 40
1
 40
1
 40
1
 10
160.286446
 20
48.408647
 30
0.0
 10
160.524571
 20
48.697572
 30
0.0
 10
160.681557
 20
49.049644
 30
0.0
 10
160.762696
 20
49.472625
 30
0.0
  0
SPLINE
  5
189
100
AcDbEntity
  8
Layer_1
 62
4
100
AcDbSpline
 70
8
 71
3
 72
8
 73
4
 74
0
 40
0
 40
0
 40
0
 40
0
 40
1
 40
1
 40
1
 40
1
 10
160.762696
 20
49.472625
 30
0.0
 10
160.859710
 20
49.965808
 30
0.0
 10
160.815613
 20
50.418069
 30
0.0
 10
160.633227
 20
50.832231
 30
0.0
  0
SPLINE
  5
18a
100
AcDbEntity
  8
Layer_1
 62
4
100
AcDbSpline
 70
8
 71
3
 72
8
 73
4
 74
0
 40
0
 40
0
 40
0
 40
0
 40
1
 40
1
 40
1
 40
1
 10
160.633227
 20
50.832231
 30
0.0
 10
160.450488
 20
51.242511
 30
0.0
 10
160.152743
 20
51.566008
 30
0.0
 10
159.731879
 20
51.800958
 30
0.0
  0
SPLINE
  5
18b
100
AcDbEntity
  8
Layer_1
 62
4
100
AcDbSpline
 70
8
 71
3
 72
8
 73
4
 74
0
 40
0
 40
0
 40
0
 40
0
 40
1
 40
1
 40
1
 40
1
 10
159.731879
 20
51.800958
 30
0.0
 10
159.311015
 20
52.035908
 30
0.0
 10
158.680249
 20
52.233464
 30
0.0
 10
157.839227
 20
52.396094
 30
0.0
  0
LINE
  5
18c
100
AcDbEntity
  8
Layer_1
 62
4
100
AcDbLine
 10
157.839227
 20
52.396094
 30
0.0
 11
154.782054
 21
52.990172
 31
0.0
  0
LINE
  5
18d
100
AcDbEntity
  8
Layer_1
 62
4
100
AcDbLine
 10
154.782054
 20
52.990172
 30
0.0
 11
153.899757
 21
48.442514
 31
0.0
  0
LINE
  5
18e
100
AcDbEntity
  8
Layer_1
 62
4
100
AcDbLine
 10
153.899757
 20
48.442514
 30
0.0
 11
153.899757
 21
48.442514
 31
0.0
  0
LINE
  5
18f
100
AcDbEntity
  8
Layer_1
 62
5
100
AcDbLine
 10
104.403370
 20
206.903151
 30
0.0
 11
46.491723
 21
206.903151
 31
0.0
  0
LINE
  5
190
100
AcDbEntity
  8
Layer_1
 62
1
100
AcDbLine
 10
50.047680
 20
206.903151
 30
0.0
 11
50.047680
 21
130.703151
 31
0.0
  0
LINE
  5
191
100
AcDbEntity
  8
Layer_1
 62
1
100
AcDbLine
 10
45.729624
 20
130.703151
 30
0.0
 11
45.729624
 21
206.903151
 31
0.0
  0
LINE
  5
192
100
AcDbEntity
  8
Layer_1
 62
1
100
AcDbLine
 10
105.165454
 20
206.903151
 30
0.0
 11
105.165454
 21
130.703151
 31
0.0
  0
LINE
  5
193
100
AcDbEntity
  8
Layer_1
 62
1
100
AcDbLine
 10
100.847680
 20
130.703151
 30
0.0
 11
100.847680
 21
206.903151
 31
0.0
  0
SPLINE
  5
194
100
AcDbEntity
  8
Layer_1
 62
5
100
AcDbSpline
 70
8
 71
3
 72
8
 73
4
 74
0
 40
0
 40
0
 40
0
 40
0
 40
1
 40
1
 40
1
 40
1
 10
9.966762
 20
95.603851
 30
0.0
 10
1.942126
 20
144.515079
 30
0.0
 10
13.288871
 20
188.983776
 30
0.0
 10
45.729610
 20
206.903123
 30
0.0
  0
SPLINE
  5
195
100
AcDbEntity
  8
Layer_1
 62
5
100
AcDbSpline
 70
8
 71
3
 72
8
 73
4
 74
0
 40
0
 40
0
 40
0
 40
0
 40
1
 40
1
 40
1
 40
1
 10
45.729624
 20
129.941095
 30
0.0
 10
45.735974
 20
87.117753
 30
0.0
 10
45.757493
 20
20.076217
 30
0.0
 10
45.757493
 20
20.076217
 30
0.0
  0
LINE
  5
196
100
AcDbEntity
  8
Layer_1
 62
5
100
AcDbLine
 10
45.757493
 20
20.076217
 30
0.0
 11
25.575429
 21
15.035376
 31
0.0
  0
LINE
  5
197
100
AcDbEntity
  8
Layer_1
 62
5
100
AcDbLine
 10
25.575429
 20
15.035376
 30
0.0
 11
9.966777
 21
95.603823
 31
0.0
  0
LINE
  5
198
100
AcDbEntity
  8
Layer_1
 62
4
100
AcDbLine
 10
62.747793
 20
161.068936
 30
0.0
 11
88.147793
 21
161.068936
 31
0.0
  0
LINE
  5
199
100
AcDbEntity
  8
Layer_1
 62
4
100
AcDbLine
 10
88.147793
 20
161.068936
 30
0.0
 11
88.147793
 21
158.528569
 31
0.0
  0
LINE
  5
19a
100
AcDbEntity
  8
Layer_1
 62
4
100
AcDbLine
 10
88.147793
 20
158.528569
 30
0.0
 11
62.747793
 21
158.528569
 31
0.0
  0
LINE
  5
19b
100
AcDbEntity
  8
Layer_1
 62
4
100
AcDbLine
 10
62.747793
 20
158.528569
 30
0.0
 11
62.747793
 21
161.068936
 31
0.0
  0
LINE
  5
19c
100
AcDbEntity
  8
Layer_1
 62
4
100
AcDbLine
 10
62.747793
 20
161.068936
 30
0.0
 11
62.747793
 21
161.068936
 31
0.0
  0
LINE
  5
19d
100
AcDbEntity
  8
Layer_1
 62
4
100
AcDbLine
 10
85.607793
 20
176.943936
 30
0.0
 11
88.147793
 21
176.943936
 31
0.0
  0
LINE
  5
19e
100
AcDbEntity
  8
Layer_1
 62
4
100
AcDbLine
 10
88.147793
 20
176.943936
 30
0.0
 11
88.147793
 21
161.068936
 31
0.0
  0
LINE
  5
19f
100
AcDbEntity
  8
Layer_1
 62
4
100
AcDbLine
 10
88.147793
 20
161.068936
 30
0.0
 11
85.607793
 21
161.068936
 31
0.0
  0
LINE
  5
1a0
100
AcDbEntity
  8
Layer_1
 62
4
100
AcDbLine
 10
85.607793
 20
161.068936
 30
0.0
 11
85.607793
 21
176.943936
 31
0.0
  0
LINE
  5
1a1
100
AcDbEntity
  8
Layer_1
 62
4
100
AcDbLine
 10
85.607793
 20
176.943936
 30
0.0
 11
85.607793
 21
176.943936
 31
0.0
  0
LINE
  5
1a2
100
AcDbEntity
  8
Layer_1
 62
4
100
AcDbLine
 10
62.747793
 20
176.943936
 30
0.0
 11
65.287426
 21
176.943936
 31
0.0
  0
LINE
  5
1a3
100
AcDbEntity
  8
Layer_1
 62
4
100
AcDbLine
 10
65.287426
 20
176.943936
 30
0.0
 11
65.287426
 21
161.068936
 31
0.0
  0
LINE
  5
1a4
100
AcDbEntity
  8
Layer_1
 62
4
100
AcDbLine
 10
65.287426
 20
161.068936
 30
0.0
 11
62.747793
 21
161.068936
 31
0.0
  0
LINE
  5
1a5
100
AcDbEntity
  8
Layer_1
 62
4
100
AcDbLine
 10
62.747793
 20
161.068936
 30
0.0
 11
62.747793
 21
176.943936
 31
0.0
  0
LINE
  5
1a6
100
AcDbEntity
  8
Layer_1
 62
4
100
AcDbLine
 10
62.747793
 20
176.943936
 30
0.0
 11
62.747793
 21
176.943936
 31
0.0
  0
LINE
  5
1a7
100
AcDbEntity
  8
Layer_1
 62
4
100
AcDbLine
 10
69.083230
 20
162.005321
 30
0.0
 11
74.298697
 21
175.601024
 31
0.0
  0
LINE
  5
1a8
100
AcDbEntity
  8
Layer_1
 62
4
100
AcDbLine
 10
74.298697
 20
175.601024
 30
0.0
 11
76.276722
 21
175.601024
 31
0.0
  0
LINE
  5
1a9
100
AcDbEntity
  8
Layer_1
 62
4
100
AcDbLine
 10
76.276722
 20
175.601024
 30
0.0
 11
81.811805
 21
162.005321
 31
0.0
  0
LINE
  5
1aa
100
AcDbEntity
  8
Layer_1
 62
4
100
AcDbLine
 10
81.811805
 20
162.005321
 30
0.0
 11
79.764283
 21
162.005321
 31
0.0
  0
LINE
  5
1ab
100
AcDbEntity
  8
Layer_1
 62
4
100
AcDbLine
 10
79.764283
 20
162.005321
 30
0.0
 11
78.191247
 21
166.125766
 31
0.0
  0
LINE
  5
1ac
100
AcDbEntity
  8
Layer_1
 62
4
100
AcDbLine
 10
78.191247
 20
166.125766
 30
0.0
 11
72.466369
 21
166.125766
 31
0.0
  0
LINE
  5
1ad
100
AcDbEntity
  8
Layer_1
 62
4
100
AcDbLine
 10
72.466369
 20
166.125766
 30
0.0
 11
70.991405
 21
162.005321
 31
0.0
  0
LINE
  5
1ae
100
AcDbEntity
  8
Layer_1
 62
4
100
AcDbLine
 10
70.991405
 20
162.005321
 30
0.0
 11
69.083230
 21
162.005321
 31
0.0
  0
LINE
  5
1af
100
AcDbEntity
  8
Layer_1
 62
4
100
AcDbLine
 10
69.083230
 20
162.005321
 30
0.0
 11
69.083230
 21
162.005321
 31
0.0
  0
LINE
  5
1b0
100
AcDbEntity
  8
Layer_1
 62
4
100
AcDbLine
 10
72.994774
 20
167.587733
 30
0.0
 11
77.628157
 21
167.587733
 31
0.0
  0
LINE
  5
1b1
100
AcDbEntity
  8
Layer_1
 62
4
100
AcDbLine
 10
77.628157
 20
167.587733
 30
0.0
 11
76.210343
 21
171.357164
 31
0.0
  0
SPLINE
  5
1b2
100
AcDbEntity
  8
Layer_1
 62
4
100
AcDbSpline
 70
8
 71
3
 72
8
 73
4
 74
0
 40
0
 40
0
 40
0
 40
0
 40
1
 40
1
 40
1
 40
1
 10
76.210343
 20
171.357164
 30
0.0
 10
75.782777
 20
172.502633
 30
0.0
 10
75.459985
 20
173.449136
 30
0.0
 10
75.235266
 20
174.195967
 30
0.0
  0
SPLINE
  5
1b3
100
AcDbEntity
  8
Layer_1
 62
4
100
AcDbSpline
 70
8
 71
3
 72
8
 73
4
 74
0
 40
0
 40
0
 40
0
 40
0
 40
1
 40
1
 40
1
 40
1
 10
75.235266
 20
174.195967
 30
0.0
 10
75.048646
 20
173.310142
 30
0.0
 10
74.798527
 20
172.439839
 30
0.0
 10
74.485613
 20
171.578708
 30
0.0
  0
LINE
  5
1b4
100
AcDbEntity
  8
Layer_1
 62
4
100
AcDbLine
 10
74.485613
 20
171.578708
 30
0.0
 11
72.994774
 21
167.587733
 31
0.0
  0
LINE
  5
1b5
100
AcDbEntity
  8
Layer_1
 62
4
100
AcDbLine
 10
72.994774
 20
167.587733
 30
0.0
 11
72.994774
 21
167.587733
 31
0.0
  0
LINE
  5
1b6
100
AcDbEntity
  8
Layer_1
 62
1
100
AcDbLine
 10
94.133464
 20
226.561247
 30
0.0
 11
8.408111
 21
226.561247
 31
0.0
  0
LINE
  5
1b7
100
AcDbEntity
  8
Layer_1
 62
1
100
AcDbLine
 10
8.408111
 20
226.561247
 30
0.0
 11
8.408111
 21
258.311247
 31
0.0
  0
LINE
  5
1b8
100
AcDbEntity
  8
Layer_1
 62
1
100
AcDbLine
 10
8.408111
 20
258.311247
 30
0.0
 11
94.133464
 21
258.311247
 31
0.0
  0
SPLINE
  5
1b9
100
AcDbEntity
  8
Layer_1
 62
1
100
AcDbSpline
 70
8
 71
3
 72
8
 73
4
 74
0
 40
0
 40
0
 40
0
 40
0
 40
1
 40
1
 40
1
 40
1
 10
94.133464
 20
258.311247
 30
0.0
 10
102.864361
 20
258.311247
 30
0.0
 10
110.008111
 20
251.167497
 30
0.0
 10
110.008111
 20
242.436247
 30
0.0
  0
SPLINE
  5
1ba
100
AcDbEntity
  8
Layer_1
 62
1
100
AcDbSpline
 70
8
 71
3
 72
8
 73
4
 74
0
 40
0
 40
0
 40
0
 40
0
 40
1
 40
1
 40
1
 40
1
 10
110.008111
 20
242.436247
 30
0.0
 10
110.008111
 20
233.704997
 30
0.0
 10
102.864361
 20
226.561247
 30
0.0
 10
94.133464
 20
226.561247
 30
0.0
  0
LINE
  5
1bb
100
AcDbEntity
  8
Layer_1
 62
1
100
AcDbLine
 10
94.133464
 20
226.561247
 30
0.0
 11
94.133464
 21
226.561247
 31
0.0
  0
LINE
  5
1bc
100
AcDbEntity
  8
Layer_1
 62
1
100
AcDbLine
 10
348.598518
 20
229.412121
 30
0.0
 11
262.873165
 21
229.412121
 31
0.0
  0
LINE
  5
1bd
100
AcDbEntity
  8
Layer_1
 62
1
100
AcDbLine
 10
262.873165
 20
229.412121
 30
0.0
 11
262.873165
 21
261.162121
 31
0.0
  0
LINE
  5
1be
100
AcDbEntity
  8
Layer_1
 62
1
100
AcDbLine
 10
262.873165
 20
261.162121
 30
0.0
 11
348.598518
 21
261.162121
 31
0.0
  0
SPLINE
  5
1bf
100
AcDbEntity
  8
Layer_1
 62
1
100
AcDbSpline
 70
8
 71
3
 72
8
 73
4
 74
0
 40
0
 40
0
 40
0
 40
0
 40
1
 40
1
 40
1
 40
1
 10
348.598518
 20
261.162121
 30
0.0
 10
357.329415
 20
261.162121
 30
0.0
 10
364.473165
 20
254.018371
 30
0.0
 10
364.473165
 20
245.287121
 30
0.0
  0
SPLINE
  5
1c0
100
AcDbEntity
  8
Layer_1
 62
1
100
AcDbSpline
 70
8
 71
3
 72
8
 73
4
 74
0
 40
0
 40
0
 40
0
 40
0
 40
1
 40
1
 40
1
 40
1
 10
364.473165
 20
245.287121
 30
0.0
 10
364.473165
 20
236.555871
 30
0.0
 10
357.329415
 20
229.412121
 30
0.0
 10
348.598518
 20
229.412121
 30
0.0
  0
LINE
  5
1c1
100
AcDbEntity
  8
Layer_1
 62
1
100
AcDbLine
 10
348.598518
 20
229.412121
 30
0.0
 11
348.598518
 21
229.412121
 31
0.0
  0
LINE
  5
1c2
100
AcDbEntity
  8
Layer_1
 62
1
100
AcDbLine
 10
486.149706
 20
10.715386
 30
0.0
 11
431.285354
 21
10.715386
 31
0.0
  0
LINE
  5
1c3
100
AcDbEntity
  8
Layer_1
 62
1
100
AcDbLine
 10
431.285354
 20
10.715386
 30
0.0
 11
431.285354
 21
15.033386
 31
0.0
  0
LINE
  5
1c4
100
AcDbEntity
  8
Layer_1
 62
1
100
AcDbLine
 10
431.285354
 20
15.033386
 30
0.0
 11
426.967706
 21
15.033386
 31
0.0
  0
LINE
  5
1c5
100
AcDbEntity
  8
Layer_1
 62
1
100
AcDbLine
 10
426.967706
 20
15.033386
 30
0.0
 11
426.967706
 21
223.440386
 31
0.0
  0
LINE
  5
1c6
100
AcDbEntity
  8
Layer_1
 62
1
100
AcDbLine
 10
426.967706
 20
223.440386
 30
0.0
 11
490.467706
 21
223.440386
 31
0.0
  0
LINE
  5
1c7
100
AcDbEntity
  8
Layer_1
 62
1
100
AcDbLine
 10
490.467706
 20
223.440386
 30
0.0
 11
490.467706
 21
15.033386
 31
0.0
  0
LINE
  5
1c8
100
AcDbEntity
  8
Layer_1
 62
1
100
AcDbLine
 10
490.467706
 20
15.033386
 30
0.0
 11
486.149706
 21
15.033386
 31
0.0
  0
LINE
  5
1c9
100
AcDbEntity
  8
Layer_1
 62
1
100
AcDbLine
 10
486.149706
 20
15.033386
 30
0.0
 11
486.149706
 21
10.715386
 31
0.0
  0
LINE
  5
1ca
100
AcDbEntity
  8
Layer_1
 62
1
100
AcDbLine
 10
486.149706
 20
10.715386
 30
0.0
 11
486.149706
 21
10.715386
 31
0.0
  0
SPLINE
  5
1cb
100
AcDbEntity
  8
Layer_1
 62
5
100
AcDbSpline
 70
8
 71
3
 72
8
 73
4
 74
0
 40
0
 40
0
 40
0
 40
0
 40
1
 40
1
 40
1
 40
1
 10
399.326501
 20
207.820882
 30
0.0
 10
402.126145
 20
207.694234
 30
0.0
 10
404.629809
 20
207.122734
 30
0.0
 10
407.121831
 20
206.161768
 30
0.0
  0
SPLINE
  5
1cc
100
AcDbEntity
  8
Layer_1
 62
5
100
AcDbSpline
 70
8
 71
3
 72
8
 73
4
 74
0
 40
0
 40
0
 40
0
 40
0
 40
1
 40
1
 40
1
 40
1
 10
407.121831
 20
206.161768
 30
0.0
 10
416.634131
 20
202.491821
 30
0.0
 10
423.382065
 20
193.261743
 30
0.0
 10
423.382065
 20
182.456159
 30
0.0
  0
SPLINE
  5
1cd
100
AcDbEntity
  8
Layer_1
 62
5
100
AcDbSpline
 70
8
 71
3
 72
8
 73
4
 74
0
 40
0
 40
0
 40
0
 40
0
 40
1
 40
1
 40
1
 40
1
 10
423.381909
 20
182.314729
 30
0.0
 10
423.381909
 20
168.790641
 30
0.0
 10
412.985196
 20
157.885574
 30
0.0
 10
399.655134
 20
157.109816
 30
0.0
  0
SPLINE
  5
1ce
100
AcDbEntity
  8
Layer_1
 62
5
100
AcDbSpline
 70
8
 71
3
 72
8
 73
4
 74
0
 40
0
 40
0
 40
0
 40
0
 40
1
 40
1
 40
1
 40
1
 10
399.481497
 20
157.099387
 30
0.0
 10
398.985492
 20
157.070460
 30
0.0
 10
398.485606
 20
157.055996
 30
0.0
 10
397.982192
 20
157.055996
 30
0.0
  0
SPLINE
  5
1cf
100
AcDbEntity
  8
Layer_1
 62
5
100
AcDbSpline
 70
8
 71
3
 72
8
 73
4
 74
0
 40
0
 40
0
 40
0
 40
0
 40
1
 40
1
 40
1
 40
1
 10
397.982192
 20
157.055996
 30
0.0
 10
383.953983
 20
157.055996
 30
0.0
 10
372.582544
 20
168.321954
 30
0.0
 10
372.582544
 20
182.349810
 30
0.0
  0
SPLINE
  5
1d0
100
AcDbEntity
  8
Layer_1
 62
5
100
AcDbSpline
 70
8
 71
3
 72
8
 73
4
 74
0
 40
0
 40
0
 40
0
 40
0
 40
1
 40
1
 40
1
 40
1
 10
372.582192
 20
182.456010
 30
0.0
 10
372.582192
 20
196.483865
 30
0.0
 10
383.953983
 20
207.856010
 30
0.0
 10
397.982192
 20
207.856010
 30
0.0
  0
SPLINE
  5
1d1
100
AcDbEntity
  8
Layer_1
 62
5
100
AcDbSpline
 70
8
 71
3
 72
8
 73
4
 74
0
 40
0
 40
0
 40
0
 40
0
 40
1
 40
1
 40
1
 40
1
 10
397.982192
 20
207.856010
 30
0.0
 10
398.373069
 20
207.856010
 30
0.0
 10
398.762183
 20
207.846838
 30
0.0
 10
399.148828
 20
207.829199
 30
0.0
  0
SPLINE
  5
1d2
100
AcDbEntity
  8
Layer_1
 62
5
100
AcDbSpline
 70
8
 71
3
 72
8
 73
4
 74
0
 40
0
 40
0
 40
0
 40
0
 40
1
 40
1
 40
1
 40
1
 10
399.252051
 20
182.456010
 30
0.0
 10
399.252051
 20
183.156627
 30
0.0
 10
398.683726
 20
183.725657
 30
0.0
 10
397.982051
 20
183.725657
 30
0.0
  0
SPLINE
  5
1d3
100
AcDbEntity
  8
Layer_1
 62
5
100
AcDbSpline
 70
8
 71
3
 72
8
 73
4
 74
0
 40
0
 40
0
 40
0
 40
0
 40
1
 40
1
 40
1
 40
1
 10
397.982051
 20
183.725657
 30
0.0
 10
397.280728
 20
183.725657
 30
0.0
 10
396.712403
 20
183.156627
 30
0.0
 10
396.712403
 20
182.456010
 30
0.0
  0
SPLINE
  5
1d4
100
AcDbEntity
  8
Layer_1
 62
5
100
AcDbSpline
 70
8
 71
3
 72
8
 73
4
 74
0
 40
0
 40
0
 40
0
 40
0
 40
1
 40
1
 40
1
 40
1
 10
396.712403
 20
182.456010
 30
0.0
 10
396.712403
 20
181.754688
 30
0.0
 10
397.280728
 20
181.185304
 30
0.0
 10
397.982051
 20
181.185304
 30
0.0
  0
SPLINE
  5
1d5
100
AcDbEntity
  8
Layer_1
 62
5
100
AcDbSpline
 70
8
 71
3
 72
8
 73
4
 74
0
 40
0
 40
0
 40
0
 40
0
 40
1
 40
1
 40
1
 40
1
 10
397.982051
 20
181.185304
 30
0.0
 10
398.683726
 20
181.185304
 30
0.0
 10
399.252051
 20
181.754688
 30
0.0
 10
399.252051
 20
182.456010
 30
0.0
  0
LINE
  5
1d6
100
AcDbEntity
  8
Layer_1
 62
5
100
AcDbLine
 10
399.252051
 20
182.456010
 30
0.0
 11
399.252051
 21
182.456010
 31
0.0
  0
SPLINE
  5
1d7
100
AcDbEntity
  8
Layer_1
 62
5
100
AcDbSpline
 70
8
 71
3
 72
8
 73
4
 74
0
 40
0
 40
0
 40
0
 40
0
 40
1
 40
1
 40
1
 40
1
 10
397.615974
 20
262.557684
 30
0.0
 10
400.415619
 20
262.431037
 30
0.0
 10
402.919283
 20
261.859537
 30
0.0
 10
405.411305
 20
260.898570
 30
0.0
  0
SPLINE
  5
1d8
100
AcDbEntity
  8
Layer_1
 62
5
100
AcDbSpline
 70
8
 71
3
 72
8
 73
4
 74
0
 40
0
 40
0
 40
0
 40
0
 40
1
 40
1
 40
1
 40
1
 10
405.411305
 20
260.898570
 30
0.0
 10
414.923605
 20
257.228623
 30
0.0
 10
421.671538
 20
247.998545
 30
0.0
 10
421.671538
 20
237.192962
 30
0.0
  0
SPLINE
  5
1d9
100
AcDbEntity
  8
Layer_1
 62
5
100
AcDbSpline
 70
8
 71
3
 72
8
 73
4
 74
0
 40
0
 40
0
 40
0
 40
0
 40
1
 40
1
 40
1
 40
1
 10
421.671383
 20
237.051532
 30
0.0
 10
421.671383
 20
223.527443
 30
0.0
 10
411.274669
 20
212.622376
 30
0.0
 10
397.944608
 20
211.846618
 30
0.0
  0
SPLINE
  5
1da
100
AcDbEntity
  8
Layer_1
 62
5
100
AcDbSpline
 70
8
 71
3
 72
8
 73
4
 74
0
 40
0
 40
0
 40
0
 40
0
 40
1
 40
1
 40
1
 40
1
 10
397.770971
 20
211.836190
 30
0.0
 10
397.274965
 20
211.807262
 30
0.0
 10
396.775079
 20
211.792798
 30
0.0
 10
396.271665
 20
211.792798
 30
0.0
  0
SPLINE
  5
1db
100
AcDbEntity
  8
Layer_1
 62
5
100
AcDbSpline
 70
8
 71
3
 72
8
 73
4
 74
0
 40
0
 40
0
 40
0
 40
0
 40
1
 40
1
 40
1
 40
1
 10
396.271665
 20
211.792798
 30
0.0
 10
382.243457
 20
211.792798
 30
0.0
 10
370.872018
 20
223.058757
 30
0.0
 10
370.872018
 20
237.086612
 30
0.0
  0
SPLINE
  5
1dc
100
AcDbEntity
  8
Layer_1
 62
5
100
AcDbSpline
 70
8
 71
3
 72
8
 73
4
 74
0
 40
0
 40
0
 40
0
 40
0
 40
1
 40
1
 40
1
 40
1
 10
370.871665
 20
237.192812
 30
0.0
 10
370.871665
 20
251.220668
 30
0.0
 10
382.243457
 20
262.592812
 30
0.0
 10
396.271665
 20
262.592812
 30
0.0
  0
SPLINE
  5
1dd
100
AcDbEntity
  8
Layer_1
 62
5
100
AcDbSpline
 70
8
 71
3
 72
8
 73
4
 74
0
 40
0
 40
0
 40
0
 40
0
 40
1
 40
1
 40
1
 40
1
 10
396.271665
 20
262.592812
 30
0.0
 10
396.662543
 20
262.592812
 30
0.0
 10
397.051657
 20
262.583640
 30
0.0
 10
397.438301
 20
262.566001
 30
0.0
  0
SPLINE
  5
1de
100
AcDbEntity
  8
Layer_1
 62
5
100
AcDbSpline
 70
8
 71
3
 72
8
 73
4
 74
0
 40
0
 40
0
 40
0
 40
0
 40
1
 40
1
 40
1
 40
1
 10
397.541524
 20
237.192812
 30
0.0
 10
397.541524
 20
237.893429
 30
0.0
 10
396.973199
 20
238.462460
 30
0.0
 10
396.271524
 20
238.462460
 30
0.0
  0
SPLINE
  5
1df
100
AcDbEntity
  8
Layer_1
 62
5
100
AcDbSpline
 70
8
 71
3
 72
8
 73
4
 74
0
 40
0
 40
0
 40
0
 40
0
 40
1
 40
1
 40
1
 40
1
 10
396.271524
 20
238.462460
 30
0.0
 10
395.570202
 20
238.462460
 30
0.0
 10
395.001877
 20
237.893429
 30
0.0
 10
395.001877
 20
237.192812
 30
0.0
  0
SPLINE
  5
1e0
100
AcDbEntity
  8
Layer_1
 62
5
100
AcDbSpline
 70
8
 71
3
 72
8
 73
4
 74
0
 40
0
 40
0
 40
0
 40
0
 40
1
 40
1
 40
1
 40
1
 10
395.001877
 20
237.192812
 30
0.0
 10
395.001877
 20
236.491490
 30
0.0
 10
395.570202
 20
235.922107
 30
0.0
 10
396.271524
 20
235.922107
 30
0.0
  0
SPLINE
  5
1e1
100
AcDbEntity
  8
Layer_1
 62
5
100
AcDbSpline
 70
8
 71
3
 72
8
 73
4
 74
0
 40
0
 40
0
 40
0
 40
0
 40
1
 40
1
 40
1
 40
1
 10
396.271524
 20
235.922107
 30
0.0
 10
396.973199
 20
235.922107
 30
0.0
 10
397.541524
 20
236.491490
 30
0.0
 10
397.541524
 20
237.192812
 30
0.0
  0
LINE
  5
1e2
100
AcDbEntity
  8
Layer_1
 62
5
100
AcDbLine
 10
397.541524
 20
237.192812
 30
0.0
 11
397.541524
 21
237.192812
 31
0.0
  0
LINE
  5
1e3
100
AcDbEntity
  8
Layer_1
 62
1
100
AcDbLine
 10
137.966182
 20
205.023377
 30
0.0
 11
137.966182
 21
229.753452
 31
0.0
  0
SPLINE
  5
1e4
100
AcDbEntity
  8
Layer_1
 62
1
100
AcDbSpline
 70
8
 71
3
 72
8
 73
4
 74
0
 40
0
 40
0
 40
0
 40
0
 40
1
 40
1
 40
1
 40
1
 10
137.966182
 20
229.753452
 30
0.0
 10
137.966182
 20
229.945715
 30
0.0
 10
137.730526
 20
230.102349
 30
0.0
 10
137.442660
 20
230.102349
 30
0.0
  0
LINE
  5
1e5
100
AcDbEntity
  8
Layer_1
 62
1
100
AcDbLine
 10
137.442660
 20
230.102349
 30
0.0
 11
124.907760
 21
230.102349
 31
0.0
  0
SPLINE
  5
1e6
100
AcDbEntity
  8
Layer_1
 62
1
100
AcDbSpline
 70
8
 71
3
 72
8
 73
4
 74
0
 40
0
 40
0
 40
0
 40
0
 40
1
 40
1
 40
1
 40
1
 10
124.907760
 20
230.102349
 30
0.0
 10
123.707610
 20
230.102349
 30
0.0
 10
122.424557
 20
229.421840
 30
0.0
 10
122.726182
 20
228.647846
 30
0.0
  0
LINE
  5
1e7
100
AcDbEntity
  8
Layer_1
 62
1
100
AcDbLine
 10
122.726182
 20
228.647846
 30
0.0
 11
131.755882
 21
205.461527
 31
0.0
  0
SPLINE
  5
1e8
100
AcDbEntity
  8
Layer_1
 62
1
100
AcDbSpline
 70
8
 71
3
 72
8
 73
4
 74
0
 40
0
 40
0
 40
0
 40
0
 40
1
 40
1
 40
1
 40
1
 10
131.755882
 20
205.461527
 30
0.0
 10
131.913221
 20
205.057949
 30
0.0
 10
132.269174
 20
204.702349
 30
0.0
 10
132.894649
 20
204.702349
 30
0.0
  0
LINE
  5
1e9
100
AcDbEntity
  8
Layer_1
 62
1
100
AcDbLine
 10
132.894649
 20
204.702349
 30
0.0
 11
137.484640
 21
204.702349
 31
0.0
  0
SPLINE
  5
1ea
100
AcDbEntity
  8
Layer_1
 62
1
100
AcDbSpline
 70
8
 71
3
 72
8
 73
4
 74
0
 40
0
 40
0
 40
0
 40
0
 40
1
 40
1
 40
1
 40
1
 10
137.484640
 20
204.702349
 30
0.0
 10
137.749224
 20
204.702349
 30
0.0
 10
137.966182
 20
204.846988
 30
0.0
 10
137.966182
 20
205.023377
 30
0.0
  0
LINE
  5
1eb
100
AcDbEntity
  8
Layer_1
 62
1
100
AcDbLine
 10
137.966182
 20
205.023377
 30
0.0
 11
137.966182
 21
205.023377
 31
0.0
  0
LINE
  5
1ec
100
AcDbEntity
  8
Layer_1
 62
1
100
AcDbLine
 10
158.007685
 20
205.023377
 30
0.0
 11
158.007685
 21
229.753452
 31
0.0
  0
SPLINE
  5
1ed
100
AcDbEntity
  8
Layer_1
 62
1
100
AcDbSpline
 70
8
 71
3
 72
8
 73
4
 74
0
 40
0
 40
0
 40
0
 40
0
 40
1
 40
1
 40
1
 40
1
 10
158.007685
 20
229.753452
 30
0.0
 10
158.007685
 20
229.945715
 30
0.0
 10
157.772382
 20
230.102349
 30
0.0
 10
157.484868
 20
230.102349
 30
0.0
  0
LINE
  5
1ee
100
AcDbEntity
  8
Layer_1
 62
1
100
AcDbLine
 10
157.484868
 20
230.102349
 30
0.0
 11
144.949263
 21
230.102349
 31
0.0
  0
SPLINE
  5
1ef
100
AcDbEntity
  8
Layer_1
 62
1
100
AcDbSpline
 70
8
 71
3
 72
8
 73
4
 74
0
 40
0
 40
0
 40
0
 40
0
 40
1
 40
1
 40
1
 40
1
 10
144.949263
 20
230.102349
 30
0.0
 10
143.749818
 20
230.102349
 30
0.0
 10
142.466413
 20
229.421840
 30
0.0
 10
142.768038
 20
228.647846
 30
0.0
  0
LINE
  5
1f0
100
AcDbEntity
  8
Layer_1
 62
1
100
AcDbLine
 10
142.768038
 20
228.647846
 30
0.0
 11
151.797738
 21
205.461527
 31
0.0
  0
SPLINE
  5
1f1
100
AcDbEntity
  8
Layer_1
 62
1
100
AcDbSpline
 70
8
 71
3
 72
8
 73
4
 74
0
 40
0
 40
0
 40
0
 40
0
 40
1
 40
1
 40
1
 40
1
 10
151.797738
 20
205.461527
 30
0.0
 10
151.955077
 20
205.057949
 30
0.0
 10
152.311029
 20
204.702349
 30
0.0
 10
152.936504
 20
204.702349
 30
0.0
  0
LINE
  5
1f2
100
AcDbEntity
  8
Layer_1
 62
1
100
AcDbLine
 10
152.936504
 20
204.702349
 30
0.0
 11
157.526849
 21
204.702349
 31
0.0
  0
SPLINE
  5
1f3
100
AcDbEntity
  8
Layer_1
 62
1
100
AcDbSpline
 70
8
 71
3
 72
8
 73
4
 74
0
 40
0
 40
0
 40
0
 40
0
 40
1
 40
1
 40
1
 40
1
 10
157.526849
 20
204.702349
 30
0.0
 10
157.790727
 20
204.702349
 30
0.0
 10
158.007685
 20
204.846988
 30
0.0
 10
158.007685
 20
205.023377
 30
0.0
  0
LINE
  5
1f4
100
AcDbEntity
  8
Layer_1
 62
1
100
AcDbLine
 10
158.007685
 20
205.023377
 30
0.0
 11
158.007685
 21
205.023377
 31
0.0
  0
LINE
  5
1f5
100
AcDbEntity
  8
Layer_1
 62
1
100
AcDbLine
 10
178.042302
 20
205.023377
 30
0.0
 11
178.042302
 21
229.753452
 31
0.0
  0
SPLINE
  5
1f6
100
AcDbEntity
  8
Layer_1
 62
1
100
AcDbSpline
 70
8
 71
3
 72
8
 73
4
 74
0
 40
0
 40
0
 40
0
 40
0
 40
1
 40
1
 40
1
 40
1
 10
178.042302
 20
229.753452
 30
0.0
 10
178.042302
 20
229.945715
 30
0.0
 10
177.806646
 20
230.102349
 30
0.0
 10
177.518780
 20
230.102349
 30
0.0
  0
LINE
  5
1f7
100
AcDbEntity
  8
Layer_1
 62
1
100
AcDbLine
 10
177.518780
 20
230.102349
 30
0.0
 11
164.983880
 21
230.102349
 31
0.0
  0
SPLINE
  5
1f8
100
AcDbEntity
  8
Layer_1
 62
1
100
AcDbSpline
 70
8
 71
3
 72
8
 73
4
 74
0
 40
0
 40
0
 40
0
 40
0
 40
1
 40
1
 40
1
 40
1
 10
164.983880
 20
230.102349
 30
0.0
 10
163.783730
 20
230.102349
 30
0.0
 10
162.500677
 20
229.421840
 30
0.0
 10
162.801949
 20
228.647846
 30
0.0
  0
LINE
  5
1f9
100
AcDbEntity
  8
Layer_1
 62
1
100
AcDbLine
 10
162.801949
 20
228.647846
 30
0.0
 11
171.832002
 21
205.461527
 31
0.0
  0
SPLINE
  5
1fa
100
AcDbEntity
  8
Layer_1
 62
1
100
AcDbSpline
 70
8
 71
3
 72
8
 73
4
 74
0
 40
0
 40
0
 40
0
 40
0
 40
1
 40
1
 40
1
 40
1
 10
171.832002
 20
205.461527
 30
0.0
 10
171.989341
 20
205.057949
 30
0.0
 10
172.345294
 20
204.702349
 30
0.0
 10
172.970769
 20
204.702349
 30
0.0
  0
LINE
  5
1fb
100
AcDbEntity
  8
Layer_1
 62
1
100
AcDbLine
 10
172.970769
 20
204.702349
 30
0.0
 11
177.561113
 21
204.702349
 31
0.0
  0
SPLINE
  5
1fc
100
AcDbEntity
  8
Layer_1
 62
1
100
AcDbSpline
 70
8
 71
3
 72
8
 73
4
 74
0
 40
0
 40
0
 40
0
 40
0
 40
1
 40
1
 40
1
 40
1
 10
177.561113
 20
204.702349
 30
0.0
 10
177.825344
 20
204.702349
 30
0.0
 10
178.042302
 20
204.846988
 30
0.0
 10
178.042302
 20
205.023377
 30
0.0
  0
LINE
  5
1fd
100
AcDbEntity
  8
Layer_1
 62
1
100
AcDbLine
 10
178.042302
 20
205.023377
 30
0.0
 11
178.042302
 21
205.023377
 31
0.0
  0
LINE
  5
1fe
100
AcDbEntity
  8
Layer_1
 62
1
100
AcDbLine
 10
198.083805
 20
205.023377
 30
0.0
 11
198.083805
 21
229.753452
 31
0.0
  0
SPLINE
  5
1ff
100
AcDbEntity
  8
Layer_1
 62
1
100
AcDbSpline
 70
8
 71
3
 72
8
 73
4
 74
0
 40
0
 40
0
 40
0
 40
0
 40
1
 40
1
 40
1
 40
1
 10
198.083805
 20
229.753452
 30
0.0
 10
198.083805
 20
229.945715
 30
0.0
 10
197.848502
 20
230.102349
 30
0.0
 10
197.560636
 20
230.102349
 30
0.0
  0
LINE
  5
200
100
AcDbEntity
  8
Layer_1
 62
1
100
AcDbLine
 10
197.560636
 20
230.102349
 30
0.0
 11
185.025383
 21
230.102349
 31
0.0
  0
SPLINE
  5
201
100
AcDbEntity
  8
Layer_1
 62
1
100
AcDbSpline
 70
8
 71
3
 72
8
 73
4
 74
0
 40
0
 40
0
 40
0
 40
0
 40
1
 40
1
 40
1
 40
1
 10
185.025383
 20
230.102349
 30
0.0
 10
183.825938
 20
230.102349
 30
0.0
 10
182.542533
 20
229.421840
 30
0.0
 10
182.844158
 20
228.647846
 30
0.0
  0
LINE
  5
202
100
AcDbEntity
  8
Layer_1
 62
1
100
AcDbLine
 10
182.844158
 20
228.647846
 30
0.0
 11
191.873858
 21
205.461527
 31
0.0
  0
SPLINE
  5
203
100
AcDbEntity
  8
Layer_1
 62
1
100
AcDbSpline
 70
8
 71
3
 72
8
 73
4
 74
0
 40
0
 40
0
 40
0
 40
0
 40
1
 40
1
 40
1
 40
1
 10
191.873858
 20
205.461527
 30
0.0
 10
192.031197
 20
205.057949
 30
0.0
 10
192.386797
 20
204.702349
 30
0.0
 10
193.012624
 20
204.702349
 30
0.0
  0
LINE
  5
204
100
AcDbEntity
  8
Layer_1
 62
1
100
AcDbLine
 10
193.012624
 20
204.702349
 30
0.0
 11
197.602969
 21
204.702349
 31
0.0
  0
SPLINE
  5
205
100
AcDbEntity
  8
Layer_1
 62
1
100
AcDbSpline
 70
8
 71
3
 72
8
 73
4
 74
0
 40
0
 40
0
 40
0
 40
0
 40
1
 40
1
 40
1
 40
1
 10
197.602969
 20
204.702349
 30
0.0
 10
197.866847
 20
204.702349
 30
0.0
 10
198.083805
 20
204.846988
 30
0.0
 10
198.083805
 20
205.023377
 30
0.0
  0
LINE
  5
206
100
AcDbEntity
  8
Layer_1
 62
1
100
AcDbLine
 10
198.083805
 20
205.023377
 30
0.0
 11
198.083805
 21
205.023377
 31
0.0
  0
LINE
  5
207
100
AcDbEntity
  8
Layer_1
 62
1
100
AcDbLine
 10
216.322072
 20
204.453203
 30
0.0
 11
216.322072
 21
229.183278
 31
0.0
  0
SPLINE
  5
208
100
AcDbEntity
  8
Layer_1
 62
1
100
AcDbSpline
 70
8
 71
3
 72
8
 73
4
 74
0
 40
0
 40
0
 40
0
 40
0
 40
1
 40
1
 40
1
 40
1
 10
216.322072
 20
229.183278
 30
0.0
 10
216.322072
 20
229.375542
 30
0.0
 10
216.086769
 20
229.532175
 30
0.0
 10
215.798902
 20
229.532175
 30
0.0
  0
LINE
  5
209
100
AcDbEntity
  8
Layer_1
 62
1
100
AcDbLine
 10
215.798902
 20
229.532175
 30
0.0
 11
203.263650
 21
229.532175
 31
0.0
  0
SPLINE
  5
20a
100
AcDbEntity
  8
Layer_1
 62
1
100
AcDbSpline
 70
8
 71
3
 72
8
 73
4
 74
0
 40
0
 40
0
 40
0
 40
0
 40
1
 40
1
 40
1
 40
1
 10
203.263650
 20
229.532175
 30
0.0
 10
202.063852
 20
229.532175
 30
0.0
 10
200.780447
 20
228.851667
 30
0.0
 10
201.082072
 20
228.077672
 30
0.0
  0
LINE
  5
20b
100
AcDbEntity
  8
Layer_1
 62
1
100
AcDbLine
 10
201.082072
 20
228.077672
 30
0.0
 11
210.111772
 21
204.891353
 31
0.0
  0
SPLINE
  5
20c
100
AcDbEntity
  8
Layer_1
 62
1
100
AcDbSpline
 70
8
 71
3
 72
8
 73
4
 74
0
 40
0
 40
0
 40
0
 40
0
 40
1
 40
1
 40
1
 40
1
 10
210.111772
 20
204.891353
 30
0.0
 10
210.269111
 20
204.487775
 30
0.0
 10
210.625416
 20
204.132175
 30
0.0
 10
211.250891
 20
204.132175
 30
0.0
  0
LINE
  5
20d
100
AcDbEntity
  8
Layer_1
 62
1
100
AcDbLine
 10
211.250891
 20
204.132175
 30
0.0
 11
215.840883
 21
204.132175
 31
0.0
  0
SPLINE
  5
20e
100
AcDbEntity
  8
Layer_1
 62
1
100
AcDbSpline
 70
8
 71
3
 72
8
 73
4
 74
0
 40
0
 40
0
 40
0
 40
0
 40
1
 40
1
 40
1
 40
1
 10
215.840883
 20
204.132175
 30
0.0
 10
216.105113
 20
204.132175
 30
0.0
 10
216.322072
 20
204.276814
 30
0.0
 10
216.322072
 20
204.453203
 30
0.0
  0
LINE
  5
20f
100
AcDbEntity
  8
Layer_1
 62
1
100
AcDbLine
 10
216.322072
 20
204.453203
 30
0.0
 11
216.322072
 21
204.453203
 31
0.0
  0
LINE
  5
210
100
AcDbEntity
  8
Layer_1
 62
1
100
AcDbLine
 10
161.100815
 20
145.725180
 30
0.0
 11
161.100815
 21
170.455255
 31
0.0
  0
SPLINE
  5
211
100
AcDbEntity
  8
Layer_1
 62
1
100
AcDbSpline
 70
8
 71
3
 72
8
 73
4
 74
0
 40
0
 40
0
 40
0
 40
0
 40
1
 40
1
 40
1
 40
1
 10
161.100815
 20
170.455255
 30
0.0
 10
161.100815
 20
170.647519
 30
0.0
 10
160.865160
 20
170.804152
 30
0.0
 10
160.577646
 20
170.804152
 30
0.0
  0
LINE
  5
212
100
AcDbEntity
  8
Layer_1
 62
1
100
AcDbLine
 10
160.577646
 20
170.804152
 30
0.0
 11
148.042393
 21
170.804152
 31
0.0
  0
SPLINE
  5
213
100
AcDbEntity
  8
Layer_1
 62
1
100
AcDbSpline
 70
8
 71
3
 72
8
 73
4
 74
0
 40
0
 40
0
 40
0
 40
0
 40
1
 40
1
 40
1
 40
1
 10
148.042393
 20
170.804152
 30
0.0
 10
146.842596
 20
170.804152
 30
0.0
 10
145.559190
 20
170.123644
 30
0.0
 10
145.860815
 20
169.349649
 30
0.0
  0
LINE
  5
214
100
AcDbEntity
  8
Layer_1
 62
1
100
AcDbLine
 10
145.860815
 20
169.349649
 30
0.0
 11
154.890515
 21
146.163330
 31
0.0
  0
SPLINE
  5
215
100
AcDbEntity
  8
Layer_1
 62
1
100
AcDbSpline
 70
8
 71
3
 72
8
 73
4
 74
0
 40
0
 40
0
 40
0
 40
0
 40
1
 40
1
 40
1
 40
1
 10
154.890515
 20
146.163330
 30
0.0
 10
155.047854
 20
145.759752
 30
0.0
 10
155.403807
 20
145.404152
 30
0.0
 10
156.029282
 20
145.404152
 30
0.0
  0
LINE
  5
216
100
AcDbEntity
  8
Layer_1
 62
1
100
AcDbLine
 10
156.029282
 20
145.404152
 30
0.0
 11
160.619626
 21
145.404152
 31
0.0
  0
SPLINE
  5
217
100
AcDbEntity
  8
Layer_1
 62
1
100
AcDbSpline
 70
8
 71
3
 72
8
 73
4
 74
0
 40
0
 40
0
 40
0
 40
0
 40
1
 40
1
 40
1
 40
1
 10
160.619626
 20
145.404152
 30
0.0
 10
160.883857
 20
145.404152
 30
0.0
 10
161.100815
 20
145.548791
 30
0.0
 10
161.100815
 20
145.725180
 30
0.0
  0
LINE
  5
218
100
AcDbEntity
  8
Layer_1
 62
1
100
AcDbLine
 10
161.100815
 20
145.725180
 30
0.0
 11
161.100815
 21
145.725180
 31
0.0
  0
LINE
  5
219
100
AcDbEntity
  8
Layer_1
 62
1
100
AcDbLine
 10
181.135122
 20
145.725180
 30
0.0
 11
181.135122
 21
170.455255
 31
0.0
  0
SPLINE
  5
21a
100
AcDbEntity
  8
Layer_1
 62
1
100
AcDbSpline
 70
8
 71
3
 72
8
 73
4
 74
0
 40
0
 40
0
 40
0
 40
0
 40
1
 40
1
 40
1
 40
1
 10
181.135122
 20
170.455255
 30
0.0
 10
181.135122
 20
170.647519
 30
0.0
 10
180.899819
 20
170.804152
 30
0.0
 10
180.611952
 20
170.804152
 30
0.0
  0
LINE
  5
21b
100
AcDbEntity
  8
Layer_1
 62
1
100
AcDbLine
 10
180.611952
 20
170.804152
 30
0.0
 11
168.076699
 21
170.804152
 31
0.0
  0
SPLINE
  5
21c
100
AcDbEntity
  8
Layer_1
 62
1
100
AcDbSpline
 70
8
 71
3
 72
8
 73
4
 74
0
 40
0
 40
0
 40
0
 40
0
 40
1
 40
1
 40
1
 40
1
 10
168.076699
 20
170.804152
 30
0.0
 10
166.876902
 20
170.804152
 30
0.0
 10
165.593497
 20
170.123644
 30
0.0
 10
165.895122
 20
169.349649
 30
0.0
  0
LINE
  5
21d
100
AcDbEntity
  8
Layer_1
 62
1
100
AcDbLine
 10
165.895122
 20
169.349649
 30
0.0
 11
174.924822
 21
146.163330
 31
0.0
  0
SPLINE
  5
21e
100
AcDbEntity
  8
Layer_1
 62
1
100
AcDbSpline
 70
8
 71
3
 72
8
 73
4
 74
0
 40
0
 40
0
 40
0
 40
0
 40
1
 40
1
 40
1
 40
1
 10
174.924822
 20
146.163330
 30
0.0
 10
175.082160
 20
145.759752
 30
0.0
 10
175.438113
 20
145.404152
 30
0.0
 10
176.063588
 20
145.404152
 30
0.0
  0
LINE
  5
21f
100
AcDbEntity
  8
Layer_1
 62
1
100
AcDbLine
 10
176.063588
 20
145.404152
 30
0.0
 11
180.653933
 21
145.404152
 31
0.0
  0
SPLINE
  5
220
100
AcDbEntity
  8
Layer_1
 62
1
100
AcDbSpline
 70
8
 71
3
 72
8
 73
4
 74
0
 40
0
 40
0
 40
0
 40
0
 40
1
 40
1
 40
1
 40
1
 10
180.653933
 20
145.404152
 30
0.0
 10
180.918163
 20
145.404152
 30
0.0
 10
181.135122
 20
145.548791
 30
0.0
 10
181.135122
 20
145.725180
 30
0.0
  0
LINE
  5
221
100
AcDbEntity
  8
Layer_1
 62
1
100
AcDbLine
 10
181.135122
 20
145.725180
 30
0.0
 11
181.135122
 21
145.725180
 31
0.0
  0
LINE
  5
222
100
AcDbEntity
  8
Layer_1
 62
1
100
AcDbLine
 10
201.176924
 20
145.725180
 30
0.0
 11
201.176924
 21
170.455255
 31
0.0
  0
SPLINE
  5
223
100
AcDbEntity
  8
Layer_1
 62
1
100
AcDbSpline
 70
8
 71
3
 72
8
 73
4
 74
0
 40
0
 40
0
 40
0
 40
0
 40
1
 40
1
 40
1
 40
1
 10
201.176924
 20
170.455255
 30
0.0
 10
201.176924
 20
170.647519
 30
0.0
 10
200.941268
 20
170.804152
 30
0.0
 10
200.653754
 20
170.804152
 30
0.0
  0
LINE
  5
224
100
AcDbEntity
  8
Layer_1
 62
1
100
AcDbLine
 10
200.653754
 20
170.804152
 30
0.0
 11
188.118502
 21
170.804152
 31
0.0
  0
SPLINE
  5
225
100
AcDbEntity
  8
Layer_1
 62
1
100
AcDbSpline
 70
8
 71
3
 72
8
 73
4
 74
0
 40
0
 40
0
 40
0
 40
0
 40
1
 40
1
 40
1
 40
1
 10
188.118502
 20
170.804152
 30
0.0
 10
186.918704
 20
170.804152
 30
0.0
 10
185.635299
 20
170.123644
 30
0.0
 10
185.936924
 20
169.349649
 30
0.0
  0
LINE
  5
226
100
AcDbEntity
  8
Layer_1
 62
1
100
AcDbLine
 10
185.936924
 20
169.349649
 30
0.0
 11
194.966624
 21
146.163330
 31
0.0
  0
SPLINE
  5
227
100
AcDbEntity
  8
Layer_1
 62
1
100
AcDbSpline
 70
8
 71
3
 72
8
 73
4
 74
0
 40
0
 40
0
 40
0
 40
0
 40
1
 40
1
 40
1
 40
1
 10
194.966624
 20
146.163330
 30
0.0
 10
195.123963
 20
145.759752
 30
0.0
 10
195.479916
 20
145.404152
 30
0.0
 10
196.105391
 20
145.404152
 30
0.0
  0
LINE
  5
228
100
AcDbEntity
  8
Layer_1
 62
1
100
AcDbLine
 10
196.105391
 20
145.404152
 30
0.0
 11
200.695735
 21
145.404152
 31
0.0
  0
SPLINE
  5
229
100
AcDbEntity
  8
Layer_1
 62
1
100
AcDbSpline
 70
8
 71
3
 72
8
 73
4
 74
0
 40
0
 40
0
 40
0
 40
0
 40
1
 40
1
 40
1
 40
1
 10
200.695735
 20
145.404152
 30
0.0
 10
200.959966
 20
145.404152
 30
0.0
 10
201.176924
 20
145.548791
 30
0.0
 10
201.176924
 20
145.725180
 30
0.0
  0
LINE
  5
22a
100
AcDbEntity
  8
Layer_1
 62
1
100
AcDbLine
 10
201.176924
 20
145.725180
 30
0.0
 11
201.176924
 21
145.725180
 31
0.0
  0
LINE
  5
22b
100
AcDbEntity
  8
Layer_1
 62
1
100
AcDbLine
 10
137.966179
 20
234.340771
 30
0.0
 11
137.966179
 21
259.071198
 31
0.0
  0
SPLINE
  5
22c
100
AcDbEntity
  8
Layer_1
 62
1
100
AcDbSpline
 70
8
 71
3
 72
8
 73
4
 74
0
 40
0
 40
0
 40
0
 40
0
 40
1
 40
1
 40
1
 40
1
 10
137.966179
 20
259.071198
 30
0.0
 10
137.966179
 20
259.262757
 30
0.0
 10
137.730524
 20
259.420096
 30
0.0
 10
137.442657
 20
259.420096
 30
0.0
  0
LINE
  5
22d
100
AcDbEntity
  8
Layer_1
 62
1
100
AcDbLine
 10
137.442657
 20
259.420096
 30
0.0
 11
124.907757
 21
259.420096
 31
0.0
  0
SPLINE
  5
22e
100
AcDbEntity
  8
Layer_1
 62
1
100
AcDbSpline
 70
8
 71
3
 72
8
 73
4
 74
0
 40
0
 40
0
 40
0
 40
0
 40
1
 40
1
 40
1
 40
1
 10
124.907757
 20
259.420096
 30
0.0
 10
123.707607
 20
259.420096
 30
0.0
 10
122.424554
 20
258.739234
 30
0.0
 10
122.726179
 20
257.965593
 30
0.0
  0
LINE
  5
22f
100
AcDbEntity
  8
Layer_1
 62
1
100
AcDbLine
 10
122.726179
 20
257.965593
 30
0.0
 11
131.755879
 21
234.779273
 31
0.0
  0
SPLINE
  5
230
100
AcDbEntity
  8
Layer_1
 62
1
100
AcDbSpline
 70
8
 71
3
 72
8
 73
4
 74
0
 40
0
 40
0
 40
0
 40
0
 40
1
 40
1
 40
1
 40
1
 10
131.755879
 20
234.779273
 30
0.0
 10
131.913218
 20
234.375696
 30
0.0
 10
132.269171
 20
234.020096
 30
0.0
 10
132.894646
 20
234.020096
 30
0.0
  0
LINE
  5
231
100
AcDbEntity
  8
Layer_1
 62
1
100
AcDbLine
 10
132.894646
 20
234.020096
 30
0.0
 11
137.484637
 21
234.020096
 31
0.0
  0
SPLINE
  5
232
100
AcDbEntity
  8
Layer_1
 62
1
100
AcDbSpline
 70
8
 71
3
 72
8
 73
4
 74
0
 40
0
 40
0
 40
0
 40
0
 40
1
 40
1
 40
1
 40
1
 10
137.484637
 20
234.020096
 30
0.0
 10
137.749221
 20
234.020096
 30
0.0
 10
137.966179
 20
234.164382
 30
0.0
 10
137.966179
 20
234.340771
 30
0.0
  0
LINE
  5
233
100
AcDbEntity
  8
Layer_1
 62
1
100
AcDbLine
 10
137.966179
 20
234.340771
 30
0.0
 11
137.966179
 21
234.340771
 31
0.0
  0
LINE
  5
234
100
AcDbEntity
  8
Layer_1
 62
1
100
AcDbLine
 10
158.007682
 20
234.340771
 30
0.0
 11
158.007682
 21
259.071198
 31
0.0
  0
SPLINE
  5
235
100
AcDbEntity
  8
Layer_1
 62
1
100
AcDbSpline
 70
8
 71
3
 72
8
 73
4
 74
0
 40
0
 40
0
 40
0
 40
0
 40
1
 40
1
 40
1
 40
1
 10
158.007682
 20
259.071198
 30
0.0
 10
158.007682
 20
259.262757
 30
0.0
 10
157.772379
 20
259.420096
 30
0.0
 10
157.484866
 20
259.420096
 30
0.0
  0
LINE
  5
236
100
AcDbEntity
  8
Layer_1
 62
1
100
AcDbLine
 10
157.484866
 20
259.420096
 30
0.0
 11
144.949260
 21
259.420096
 31
0.0
  0
SPLINE
  5
237
100
AcDbEntity
  8
Layer_1
 62
1
100
AcDbSpline
 70
8
 71
3
 72
8
 73
4
 74
0
 40
0
 40
0
 40
0
 40
0
 40
1
 40
1
 40
1
 40
1
 10
144.949260
 20
259.420096
 30
0.0
 10
143.749816
 20
259.420096
 30
0.0
 10
142.466410
 20
258.739234
 30
0.0
 10
142.768035
 20
257.965593
 30
0.0
  0
LINE
  5
238
100
AcDbEntity
  8
Layer_1
 62
1
100
AcDbLine
 10
142.768035
 20
257.965593
 30
0.0
 11
151.797735
 21
234.779273
 31
0.0
  0
SPLINE
  5
239
100
AcDbEntity
  8
Layer_1
 62
1
100
AcDbSpline
 70
8
 71
3
 72
8
 73
4
 74
0
 40
0
 40
0
 40
0
 40
0
 40
1
 40
1
 40
1
 40
1
 10
151.797735
 20
234.779273
 30
0.0
 10
151.955074
 20
234.375696
 30
0.0
 10
152.311027
 20
234.020096
 30
0.0
 10
152.936502
 20
234.020096
 30
0.0
  0
LINE
  5
23a
100
AcDbEntity
  8
Layer_1
 62
1
100
AcDbLine
 10
152.936502
 20
234.020096
 30
0.0
 11
157.526846
 21
234.020096
 31
0.0
  0
SPLINE
  5
23b
100
AcDbEntity
  8
Layer_1
 62
1
100
AcDbSpline
 70
8
 71
3
 72
8
 73
4
 74
0
 40
0
 40
0
 40
0
 40
0
 40
1
 40
1
 40
1
 40
1
 10
157.526846
 20
234.020096
 30
0.0
 10
157.790724
 20
234.020096
 30
0.0
 10
158.007682
 20
234.164382
 30
0.0
 10
158.007682
 20
234.340771
 30
0.0
  0
LINE
  5
23c
100
AcDbEntity
  8
Layer_1
 62
1
100
AcDbLine
 10
158.007682
 20
234.340771
 30
0.0
 11
158.007682
 21
234.340771
 31
0.0
  0
LINE
  5
23d
100
AcDbEntity
  8
Layer_1
 62
1
100
AcDbLine
 10
178.042299
 20
234.340771
 30
0.0
 11
178.042299
 21
259.071198
 31
0.0
  0
SPLINE
  5
23e
100
AcDbEntity
  8
Layer_1
 62
1
100
AcDbSpline
 70
8
 71
3
 72
8
 73
4
 74
0
 40
0
 40
0
 40
0
 40
0
 40
1
 40
1
 40
1
 40
1
 10
178.042299
 20
259.071198
 30
0.0
 10
178.042299
 20
259.262757
 30
0.0
 10
177.806644
 20
259.420096
 30
0.0
 10
177.518777
 20
259.420096
 30
0.0
  0
LINE
  5
23f
100
AcDbEntity
  8
Layer_1
 62
1
100
AcDbLine
 10
177.518777
 20
259.420096
 30
0.0
 11
164.983877
 21
259.420096
 31
0.0
  0
SPLINE
  5
240
100
AcDbEntity
  8
Layer_1
 62
1
100
AcDbSpline
 70
8
 71
3
 72
8
 73
4
 74
0
 40
0
 40
0
 40
0
 40
0
 40
1
 40
1
 40
1
 40
1
 10
164.983877
 20
259.420096
 30
0.0
 10
163.783727
 20
259.420096
 30
0.0
 10
162.500674
 20
258.739234
 30
0.0
 10
162.801946
 20
257.965593
 30
0.0
  0
LINE
  5
241
100
AcDbEntity
  8
Layer_1
 62
1
100
AcDbLine
 10
162.801946
 20
257.965593
 30
0.0
 11
171.831999
 21
234.779273
 31
0.0
  0
SPLINE
  5
242
100
AcDbEntity
  8
Layer_1
 62
1
100
AcDbSpline
 70
8
 71
3
 72
8
 73
4
 74
0
 40
0
 40
0
 40
0
 40
0
 40
1
 40
1
 40
1
 40
1
 10
171.831999
 20
234.779273
 30
0.0
 10
171.989338
 20
234.375696
 30
0.0
 10
172.345291
 20
234.020096
 30
0.0
 10
172.970766
 20
234.020096
 30
0.0
  0
LINE
  5
243
100
AcDbEntity
  8
Layer_1
 62
1
100
AcDbLine
 10
172.970766
 20
234.020096
 30
0.0
 11
177.561110
 21
234.020096
 31
0.0
  0
SPLINE
  5
244
100
AcDbEntity
  8
Layer_1
 62
1
100
AcDbSpline
 70
8
 71
3
 72
8
 73
4
 74
0
 40
0
 40
0
 40
0
 40
0
 40
1
 40
1
 40
1
 40
1
 10
177.561110
 20
234.020096
 30
0.0
 10
177.825341
 20
234.020096
 30
0.0
 10
178.042299
 20
234.164382
 30
0.0
 10
178.042299
 20
234.340771
 30
0.0
  0
LINE
  5
245
100
AcDbEntity
  8
Layer_1
 62
1
100
AcDbLine
 10
178.042299
 20
234.340771
 30
0.0
 11
178.042299
 21
234.340771
 31
0.0
  0
LINE
  5
246
100
AcDbEntity
  8
Layer_1
 62
1
100
AcDbLine
 10
198.083802
 20
234.340771
 30
0.0
 11
198.083802
 21
259.071198
 31
0.0
  0
SPLINE
  5
247
100
AcDbEntity
  8
Layer_1
 62
1
100
AcDbSpline
 70
8
 71
3
 72
8
 73
4
 74
0
 40
0
 40
0
 40
0
 40
0
 40
1
 40
1
 40
1
 40
1
 10
198.083802
 20
259.071198
 30
0.0
 10
198.083802
 20
259.262757
 30
0.0
 10
197.848499
 20
259.420096
 30
0.0
 10
197.560633
 20
259.420096
 30
0.0
  0
LINE
  5
248
100
AcDbEntity
  8
Layer_1
 62
1
100
AcDbLine
 10
197.560633
 20
259.420096
 30
0.0
 11
185.025380
 21
259.420096
 31
0.0
  0
SPLINE
  5
249
100
AcDbEntity
  8
Layer_1
 62
1
100
AcDbSpline
 70
8
 71
3
 72
8
 73
4
 74
0
 40
0
 40
0
 40
0
 40
0
 40
1
 40
1
 40
1
 40
1
 10
185.025380
 20
259.420096
 30
0.0
 10
183.825936
 20
259.420096
 30
0.0
 10
182.542530
 20
258.739234
 30
0.0
 10
182.844155
 20
257.965593
 30
0.0
  0
LINE
  5
24a
100
AcDbEntity
  8
Layer_1
 62
1
100
AcDbLine
 10
182.844155
 20
257.965593
 30
0.0
 11
191.873855
 21
234.779273
 31
0.0
  0
SPLINE
  5
24b
100
AcDbEntity
  8
Layer_1
 62
1
100
AcDbSpline
 70
8
 71
3
 72
8
 73
4
 74
0
 40
0
 40
0
 40
0
 40
0
 40
1
 40
1
 40
1
 40
1
 10
191.873855
 20
234.779273
 30
0.0
 10
192.031194
 20
234.375696
 30
0.0
 10
192.386794
 20
234.020096
 30
0.0
 10
193.012622
 20
234.020096
 30
0.0
  0
LINE
  5
24c
100
AcDbEntity
  8
Layer_1
 62
1
100
AcDbLine
 10
193.012622
 20
234.020096
 30
0.0
 11
197.602966
 21
234.020096
 31
0.0
  0
SPLINE
  5
24d
100
AcDbEntity
  8
Layer_1
 62
1
100
AcDbSpline
 70
8
 71
3
 72
8
 73
4
 74
0
 40
0
 40
0
 40
0
 40
0
 40
1
 40
1
 40
1
 40
1
 10
197.602966
 20
234.020096
 30
0.0
 10
197.866844
 20
234.020096
 30
0.0
 10
198.083802
 20
234.164382
 30
0.0
 10
198.083802
 20
234.340771
 30
0.0
  0
LINE
  5
24e
100
AcDbEntity
  8
Layer_1
 62
1
100
AcDbLine
 10
198.083802
 20
234.340771
 30
0.0
 11
198.083802
 21
234.340771
 31
0.0
  0
LINE
  5
24f
100
AcDbEntity
  8
Layer_1
 62
1
100
AcDbLine
 10
216.322069
 20
234.340771
 30
0.0
 11
216.322069
 21
259.071198
 31
0.0
  0
SPLINE
  5
250
100
AcDbEntity
  8
Layer_1
 62
1
100
AcDbSpline
 70
8
 71
3
 72
8
 73
4
 74
0
 40
0
 40
0
 40
0
 40
0
 40
1
 40
1
 40
1
 40
1
 10
216.322069
 20
259.071198
 30
0.0
 10
216.322069
 20
259.262757
 30
0.0
 10
216.086766
 20
259.420096
 30
0.0
 10
215.798900
 20
259.420096
 30
0.0
  0
LINE
  5
251
100
AcDbEntity
  8
Layer_1
 62
1
100
AcDbLine
 10
215.798900
 20
259.420096
 30
0.0
 11
203.263647
 21
259.420096
 31
0.0
  0
SPLINE
  5
252
100
AcDbEntity
  8
Layer_1
 62
1
100
AcDbSpline
 70
8
 71
3
 72
8
 73
4
 74
0
 40
0
 40
0
 40
0
 40
0
 40
1
 40
1
 40
1
 40
1
 10
203.263647
 20
259.420096
 30
0.0
 10
202.063850
 20
259.420096
 30
0.0
 10
200.780444
 20
258.739234
 30
0.0
 10
201.082069
 20
257.965593
 30
0.0
  0
LINE
  5
253
100
AcDbEntity
  8
Layer_1
 62
1
100
AcDbLine
 10
201.082069
 20
257.965593
 30
0.0
 11
210.111769
 21
234.779273
 31
0.0
  0
SPLINE
  5
254
100
AcDbEntity
  8
Layer_1
 62
1
100
AcDbSpline
 70
8
 71
3
 72
8
 73
4
 74
0
 40
0
 40
0
 40
0
 40
0
 40
1
 40
1
 40
1
 40
1
 10
210.111769
 20
234.779273
 30
0.0
 10
210.269108
 20
234.375696
 30
0.0
 10
210.625413
 20
234.020096
 30
0.0
 10
211.250888
 20
234.020096
 30
0.0
  0
LINE
  5
255
100
AcDbEntity
  8
Layer_1
 62
1
100
AcDbLine
 10
211.250888
 20
234.020096
 30
0.0
 11
215.840880
 21
234.020096
 31
0.0
  0
SPLINE
  5
256
100
AcDbEntity
  8
Layer_1
 62
1
100
AcDbSpline
 70
8
 71
3
 72
8
 73
4
 74
0
 40
0
 40
0
 40
0
 40
0
 40
1
 40
1
 40
1
 40
1
 10
215.840880
 20
234.020096
 30
0.0
 10
216.105111
 20
234.020096
 30
0.0
 10
216.322069
 20
234.164382
 30
0.0
 10
216.322069
 20
234.340771
 30
0.0
  0
LINE
  5
257
100
AcDbEntity
  8
Layer_1
 62
1
100
AcDbLine
 10
216.322069
 20
234.340771
 30
0.0
 11
216.322069
 21
234.340771
 31
0.0
  0
LINE
  5
258
100
AcDbEntity
  8
Layer_1
 62
1
100
AcDbLine
 10
161.670986
 20
174.472398
 30
0.0
 11
161.670986
 21
199.202825
 31
0.0
  0
SPLINE
  5
259
100
AcDbEntity
  8
Layer_1
 62
1
100
AcDbSpline
 70
8
 71
3
 72
8
 73
4
 74
0
 40
0
 40
0
 40
0
 40
0
 40
1
 40
1
 40
1
 40
1
 10
161.670986
 20
199.202825
 30
0.0
 10
161.670986
 20
199.394384
 30
0.0
 10
161.435330
 20
199.551723
 30
0.0
 10
161.147816
 20
199.551723
 30
0.0
  0
LINE
  5
25a
100
AcDbEntity
  8
Layer_1
 62
1
100
AcDbLine
 10
161.147816
 20
199.551723
 30
0.0
 11
148.612564
 21
199.551723
 31
0.0
  0
SPLINE
  5
25b
100
AcDbEntity
  8
Layer_1
 62
1
100
AcDbSpline
 70
8
 71
3
 72
8
 73
4
 74
0
 40
0
 40
0
 40
0
 40
0
 40
1
 40
1
 40
1
 40
1
 10
148.612564
 20
199.551723
 30
0.0
 10
147.412766
 20
199.551723
 30
0.0
 10
146.129361
 20
198.870862
 30
0.0
 10
146.430986
 20
198.097220
 30
0.0
  0
LINE
  5
25c
100
AcDbEntity
  8
Layer_1
 62
1
100
AcDbLine
 10
146.430986
 20
198.097220
 30
0.0
 11
155.460686
 21
174.910900
 31
0.0
  0
SPLINE
  5
25d
100
AcDbEntity
  8
Layer_1
 62
1
100
AcDbSpline
 70
8
 71
3
 72
8
 73
4
 74
0
 40
0
 40
0
 40
0
 40
0
 40
1
 40
1
 40
1
 40
1
 10
155.460686
 20
174.910900
 30
0.0
 10
155.618025
 20
174.507323
 30
0.0
 10
155.973978
 20
174.151723
 30
0.0
 10
156.599453
 20
174.151723
 30
0.0
  0
LINE
  5
25e
100
AcDbEntity
  8
Layer_1
 62
1
100
AcDbLine
 10
156.599453
 20
174.151723
 30
0.0
 11
161.189797
 21
174.151723
 31
0.0
  0
SPLINE
  5
25f
100
AcDbEntity
  8
Layer_1
 62
1
100
AcDbSpline
 70
8
 71
3
 72
8
 73
4
 74
0
 40
0
 40
0
 40
0
 40
0
 40
1
 40
1
 40
1
 40
1
 10
161.189797
 20
174.151723
 30
0.0
 10
161.454028
 20
174.151723
 30
0.0
 10
161.670986
 20
174.296009
 30
0.0
 10
161.670986
 20
174.472398
 30
0.0
  0
LINE
  5
260
100
AcDbEntity
  8
Layer_1
 62
1
100
AcDbLine
 10
161.670986
 20
174.472398
 30
0.0
 11
161.670986
 21
174.472398
 31
0.0
  0
LINE
  5
261
100
AcDbEntity
  8
Layer_1
 62
1
100
AcDbLine
 10
181.705292
 20
174.472398
 30
0.0
 11
181.705292
 21
199.202825
 31
0.0
  0
SPLINE
  5
262
100
AcDbEntity
  8
Layer_1
 62
1
100
AcDbSpline
 70
8
 71
3
 72
8
 73
4
 74
0
 40
0
 40
0
 40
0
 40
0
 40
1
 40
1
 40
1
 40
1
 10
181.705292
 20
199.202825
 30
0.0
 10
181.705292
 20
199.394384
 30
0.0
 10
181.469990
 20
199.551723
 30
0.0
 10
181.182123
 20
199.551723
 30
0.0
  0
LINE
  5
263
100
AcDbEntity
  8
Layer_1
 62
1
100
AcDbLine
 10
181.182123
 20
199.551723
 30
0.0
 11
168.646870
 21
199.551723
 31
0.0
  0
SPLINE
  5
264
100
AcDbEntity
  8
Layer_1
 62
1
100
AcDbSpline
 70
8
 71
3
 72
8
 73
4
 74
0
 40
0
 40
0
 40
0
 40
0
 40
1
 40
1
 40
1
 40
1
 10
168.646870
 20
199.551723
 30
0.0
 10
167.447073
 20
199.551723
 30
0.0
 10
166.163667
 20
198.870862
 30
0.0
 10
166.465292
 20
198.097220
 30
0.0
  0
LINE
  5
265
100
AcDbEntity
  8
Layer_1
 62
1
100
AcDbLine
 10
166.465292
 20
198.097220
 30
0.0
 11
175.494992
 21
174.910900
 31
0.0
  0
SPLINE
  5
266
100
AcDbEntity
  8
Layer_1
 62
1
100
AcDbSpline
 70
8
 71
3
 72
8
 73
4
 74
0
 40
0
 40
0
 40
0
 40
0
 40
1
 40
1
 40
1
 40
1
 10
175.494992
 20
174.910900
 30
0.0
 10
175.652331
 20
174.507323
 30
0.0
 10
176.008284
 20
174.151723
 30
0.0
 10
176.633759
 20
174.151723
 30
0.0
  0
LINE
  5
267
100
AcDbEntity
  8
Layer_1
 62
1
100
AcDbLine
 10
176.633759
 20
174.151723
 30
0.0
 11
181.224103
 21
174.151723
 31
0.0
  0
SPLINE
  5
268
100
AcDbEntity
  8
Layer_1
 62
1
100
AcDbSpline
 70
8
 71
3
 72
8
 73
4
 74
0
 40
0
 40
0
 40
0
 40
0
 40
1
 40
1
 40
1
 40
1
 10
181.224103
 20
174.151723
 30
0.0
 10
181.488334
 20
174.151723
 30
0.0
 10
181.705292
 20
174.296009
 30
0.0
 10
181.705292
 20
174.472398
 30
0.0
  0
LINE
  5
269
100
AcDbEntity
  8
Layer_1
 62
1
100
AcDbLine
 10
181.705292
 20
174.472398
 30
0.0
 11
181.705292
 21
174.472398
 31
0.0
  0
LINE
  5
26a
100
AcDbEntity
  8
Layer_1
 62
1
100
AcDbLine
 10
201.747097
 20
174.472398
 30
0.0
 11
201.747097
 21
199.202825
 31
0.0
  0
SPLINE
  5
26b
100
AcDbEntity
  8
Layer_1
 62
1
100
AcDbSpline
 70
8
 71
3
 72
8
 73
4
 74
0
 40
0
 40
0
 40
0
 40
0
 40
1
 40
1
 40
1
 40
1
 10
201.747097
 20
199.202825
 30
0.0
 10
201.747097
 20
199.394384
 30
0.0
 10
201.511442
 20
199.551723
 30
0.0
 10
201.223928
 20
199.551723
 30
0.0
  0
LINE
  5
26c
100
AcDbEntity
  8
Layer_1
 62
1
100
AcDbLine
 10
201.223928
 20
199.551723
 30
0.0
 11
188.688675
 21
199.551723
 31
0.0
  0
SPLINE
  5
26d
100
AcDbEntity
  8
Layer_1
 62
1
100
AcDbSpline
 70
8
 71
3
 72
8
 73
4
 74
0
 40
0
 40
0
 40
0
 40
0
 40
1
 40
1
 40
1
 40
1
 10
188.688675
 20
199.551723
 30
0.0
 10
187.488878
 20
199.551723
 30
0.0
 10
186.205472
 20
198.870862
 30
0.0
 10
186.507097
 20
198.097220
 30
0.0
  0
LINE
  5
26e
100
AcDbEntity
  8
Layer_1
 62
1
100
AcDbLine
 10
186.507097
 20
198.097220
 30
0.0
 11
195.536797
 21
174.910900
 31
0.0
  0
SPLINE
  5
26f
100
AcDbEntity
  8
Layer_1
 62
1
100
AcDbSpline
 70
8
 71
3
 72
8
 73
4
 74
0
 40
0
 40
0
 40
0
 40
0
 40
1
 40
1
 40
1
 40
1
 10
195.536797
 20
174.910900
 30
0.0
 10
195.694136
 20
174.507323
 30
0.0
 10
196.050089
 20
174.151723
 30
0.0
 10
196.675564
 20
174.151723
 30
0.0
  0
LINE
  5
270
100
AcDbEntity
  8
Layer_1
 62
1
100
AcDbLine
 10
196.675564
 20
174.151723
 30
0.0
 11
201.265909
 21
174.151723
 31
0.0
  0
SPLINE
  5
271
100
AcDbEntity
  8
Layer_1
 62
1
100
AcDbSpline
 70
8
 71
3
 72
8
 73
4
 74
0
 40
0
 40
0
 40
0
 40
0
 40
1
 40
1
 40
1
 40
1
 10
201.265909
 20
174.151723
 30
0.0
 10
201.530139
 20
174.151723
 30
0.0
 10
201.747097
 20
174.296009
 30
0.0
 10
201.747097
 20
174.472398
 30
0.0
  0
LINE
  5
272
100
AcDbEntity
  8
Layer_1
 62
1
100
AcDbLine
 10
201.747097
 20
174.472398
 30
0.0
 11
201.747097
 21
174.472398
 31
0.0
  0
ENDSEC
  0
SECTION
  2
OBJECTS
  0
DICTIONARY
  5
C
330
0
100
AcDbDictionary
  3
ACAD_GROUP
350
D
  3
ACAD_MLINESTYLE
350
17
  0
DICTIONARY
  5
D
330
C
100
AcDbDictionary
  0
DICTIONARY
  5
1A
330
C
100
AcDbDictionary
  0
DICTIONARY
  5
17
330
C
100
AcDbDictionary
  3
STANDARD
350
18
  0
DICTIONARY
  5
19
330
C
100
AcDbDictionary
  0
ENDSEC
  0
EOF
