  0
SECTION
  2
HEADER
  9
$ACADVER
  1
AC1014
  9
$HANDSEED
  5
FFFF
  9
$MEASUREMENT
 70
     1
  0
ENDSEC
  0
SECTION
  2
TABLES
  0
TABLE
  2
VPORT
  5
8
330
0
100
AcDbSymbolTable
 70
     4
  0
VPORT
  5
2E
330
8
100
AcDbSymbolTableRecord
100
AcDbViewportTableRecord
  2
*ACTIVE
 70
     0
 10
0.0
 20
0.0
 11
1.0
 21
1.0
 12
210.0
 22
148.5
 13
0.0
 23
0.0
 14
10.0
 24
10.0
 15
10.0
 25
10.0
 16
0.0
 26
0.0
 36
1.0
 17
0.0
 27
0.0
 37
0.0
 40
341.0
 41
1.24
 42
50.0
 43
0.0
 44
0.0
 50
0.0
 51
0.0
 71
     0
 72
   100
 73
     1
 74
     3
 75
     0
 76
     0
 77
     0
 78
     0
  0
ENDTAB
  0
TABLE
  2
LTYPE
  5
5
330
0
100
AcDbSymbolTable
 70
     1
  0
LTYPE
  5
14
330
5
100
AcDbSymbolTableRecord
100
AcDbLinetypeTableRecord
  2
BYBLOCK
 70
     0
  3

 72
    65
 73
     0
 40
0.0
  0
LTYPE
  5
15
330
5
100
AcDbSymbolTableRecord
100
AcDbLinetypeTableRecord
  2
BYLAYER
 70
     0
  3

 72
    65
 73
     0
 40
0.0
  0
LTYPE
  5
16
330
5
100
AcDbSymbolTableRecord
100
AcDbLinetypeTableRecord
  2
CONTINUOUS
 70
     0
  3
Solid line
 72
    65
 73
     0
 40
0.0
  0
ENDTAB
  0
TABLE
  2
LAYER
  5
2
100
AcDbSymbolTable
 70
2
  0
LAYER
  5
50
100
AcDbSymbolTableRecord
100
AcDbLayerTableRecord
  2
0
 70
0
  6
CONTINUOUS
  0
LAYER
  5
51
100
AcDbSymbolTableRecord
100
AcDbLayerTableRecord
  2
Layer_1
 70
0
  6
CONTINUOUS
  0
ENDTAB
  0
TABLE
  2
STYLE
  5
3
330
0
100
AcDbSymbolTable
 70
     1
  0
STYLE
  5
11
330
3
100
AcDbSymbolTableRecord
100
AcDbTextStyleTableRecord
  2
STANDARD
 70
     0
 40
0.0
 41
1.0
 50
0.0
 71
     0
 42
2.5
  3
txt
  4

  0
ENDTAB
  0
TABLE
  2
VIEW
  5
6
330
0
100
AcDbSymbolTable
 70
     0
  0
ENDTAB
  0
TABLE
  2
UCS
  5
7
330
0
100
AcDbSymbolTable
 70
     0
  0
ENDTAB
  0
TABLE
  2
APPID
  5
9
330
0
100
AcDbSymbolTable
 70
     2
  0
APPID
  5
12
330
9
100
AcDbSymbolTableRecord
100
AcDbRegAppTableRecord
  2
ACAD
 70
     0
  0
ENDTAB
  0
TABLE
  2
DIMSTYLE
  5
A
330
0
100
AcDbSymbolTable
 70
     1
  0
DIMSTYLE
105
27
330
A
100
AcDbSymbolTableRecord
100
AcDbDimStyleTableRecord
  2
ISO-25
 70
     0
  3

  4

  5

  6

  7

 40
1.0
 41
2.5
 42
0.625
 43
3.75
 44
1.25
 45
0.0
 46
0.0
 47
0.0
 48
0.0
140
2.5
141
2.5
142
0.0
143
0.03937007874016
144
1.0
145
0.0
146
1.0
147
0.625
 71
     0
 72
     0
 73
     0
 74
     0
 75
     0
 76
     0
 77
     1
 78
     8
170
     0
171
     3
172
     1
173
     0
174
     0
175
     0
176
     0
177
     0
178
     0
270
     2
271
     2
272
     2
273
     2
274
     3
340
11
275
     0
280
     0
281
     0
282
     0
283
     0
284
     8
285
     0
286
     0
287
     3
288
     0
  0
ENDTAB
  0
TABLE
  2
BLOCK_RECORD
  5
1
330
0
100
AcDbSymbolTable
 70
     1
  0
BLOCK_RECORD
  5
1F
330
1
100
AcDbSymbolTableRecord
100
AcDbBlockTableRecord
  2
*MODEL_SPACE
  0
BLOCK_RECORD
  5
1B
330
1
100
AcDbSymbolTableRecord
100
AcDbBlockTableRecord
  2
*PAPER_SPACE
  0
ENDTAB
  0
ENDSEC
  0
SECTION
  2
BLOCKS
  0
BLOCK
  5
20
330
1F
100
AcDbEntity
  8
0
100
AcDbBlockBegin
  2
*MODEL_SPACE
 70
     0
 10
0.0
 20
0.0
 30
0.0
  3
*MODEL_SPACE
  1

  0
ENDBLK
  5
21
330
1F
100
AcDbEntity
  8
0
100
AcDbBlockEnd
  0
BLOCK
  5
1C
330
1B
100
AcDbEntity
 67
     1
  8
0
100
AcDbBlockBegin
  2
*PAPER_SPACE
  1

  0
ENDBLK
  5
1D
330
1B
100
AcDbEntity
 67
     1
  8
0
100
AcDbBlockEnd
  0
ENDSEC
  0
SECTION
  2
ENTITIES
  0
LINE
  5
100
100
AcDbEntity
  8
Layer_1
 62
5
100
AcDbLine
 10
385.933386
 20
351.018129
 30
0.0
 11
344.709186
 21
192.166529
 31
0.0
  0
LINE
  5
101
100
AcDbEntity
  8
Layer_1
 62
5
100
AcDbLine
 10
413.479686
 20
316.193354
 30
0.0
 11
376.792208
 21
315.794363
 31
0.0
  0
LINE
  5
102
100
AcDbEntity
  8
Layer_1
 62
5
100
AcDbLine
 10
385.933386
 20
29.686858
 30
0.0
 11
344.709186
 21
188.538458
 31
0.0
  0
LINE
  5
103
100
AcDbEntity
  8
Layer_1
 62
5
100
AcDbLine
 10
344.709186
 20
188.538458
 30
0.0
 11
344.709186
 21
190.009894
 31
0.0
  0
LINE
  5
104
100
AcDbEntity
  8
Layer_1
 62
5
100
AcDbLine
 10
344.709044
 20
191.025858
 30
0.0
 11
344.709044
 21
192.166389
 31
0.0
  0
LINE
  5
105
100
AcDbEntity
  8
Layer_1
 62
5
100
AcDbLine
 10
413.479686
 20
64.684211
 30
0.0
 11
376.792208
 21
64.910694
 31
0.0
  0
LINE
  5
106
100
AcDbEntity
  8
Layer_1
 62
1
100
AcDbLine
 10
413.479686
 20
64.684211
 30
0.0
 11
413.479686
 21
188.279905
 31
0.0
  0
LINE
  5
107
100
AcDbEntity
  8
Layer_1
 62
1
100
AcDbLine
 10
413.479686
 20
192.597836
 30
0.0
 11
413.479686
 21
316.193530
 31
0.0
  0
LINE
  5
108
100
AcDbEntity
  8
Layer_1
 62
5
100
AcDbLine
 10
421.099911
 20
158.985769
 30
0.0
 11
446.499911
 21
158.985769
 31
0.0
  0
SPLINE
  5
109
100
AcDbEntity
  8
Layer_1
 62
5
100
AcDbSpline
 70
8
 71
3
 72
8
 73
4
 74
0
 40
0
 40
0
 40
0
 40
0
 40
1
 40
1
 40
1
 40
1
 10
385.725670
 20
350.885521
 30
0.0
 10
387.533656
 20
357.176960
 30
0.0
 10
391.212776
 20
362.764254
 30
0.0
 10
397.917670
 20
362.764254
 30
0.0
  0
LINE
  5
10a
100
AcDbEntity
  8
Layer_1
 62
5
100
AcDbLine
 10
397.917670
 20
362.764254
 30
0.0
 11
470.965248
 21
362.764254
 31
0.0
  0
SPLINE
  5
10b
100
AcDbEntity
  8
Layer_1
 62
5
100
AcDbSpline
 70
8
 71
3
 72
8
 73
4
 74
0
 40
0
 40
0
 40
0
 40
0
 40
1
 40
1
 40
1
 40
1
 10
471.727276
 20
362.764184
 30
0.0
 10
479.270723
 20
362.764184
 30
0.0
 10
484.710204
 20
356.713339
 30
0.0
 10
485.443276
 20
349.400609
 30
0.0
  0
LINE
  5
10c
100
AcDbEntity
  8
Layer_1
 62
5
100
AcDbLine
 10
485.443276
 20
349.400609
 30
0.0
 11
495.538365
 21
256.314900
 31
0.0
  0
SPLINE
  5
10d
100
AcDbEntity
  8
Layer_1
 62
5
100
AcDbSpline
 70
8
 71
3
 72
8
 73
4
 74
0
 40
0
 40
0
 40
0
 40
0
 40
1
 40
1
 40
1
 40
1
 10
495.538365
 20
256.314900
 30
0.0
 10
496.426659
 20
247.457003
 30
0.0
 10
493.159584
 20
246.110450
 30
0.0
 10
487.553240
 20
242.526228
 30
0.0
  0
LINE
  5
10e
100
AcDbEntity
  8
Layer_1
 62
5
100
AcDbLine
 10
487.553240
 20
242.526228
 30
0.0
 11
428.719784
 21
201.868589
 31
0.0
  0
LINE
  5
10f
100
AcDbEntity
  8
Layer_1
 62
5
100
AcDbLine
 10
428.719770
 20
201.868590
 30
0.0
 11
428.719770
 21
179.008943
 31
0.0
  0
SPLINE
  5
110
100
AcDbEntity
  8
Layer_1
 62
5
100
AcDbSpline
 70
8
 71
3
 72
8
 73
4
 74
0
 40
0
 40
0
 40
0
 40
0
 40
1
 40
1
 40
1
 40
1
 10
385.725670
 20
29.992081
 30
0.0
 10
387.533656
 20
23.700642
 30
0.0
 10
391.212776
 20
18.112642
 30
0.0
 10
397.917670
 20
18.112642
 30
0.0
  0
LINE
  5
111
100
AcDbEntity
  8
Layer_1
 62
5
100
AcDbLine
 10
397.917670
 20
18.112642
 30
0.0
 11
470.965248
 21
18.112642
 31
0.0
  0
SPLINE
  5
112
100
AcDbEntity
  8
Layer_1
 62
5
100
AcDbSpline
 70
8
 71
3
 72
8
 73
4
 74
0
 40
0
 40
0
 40
0
 40
0
 40
1
 40
1
 40
1
 40
1
 10
471.727276
 20
18.112713
 30
0.0
 10
479.270723
 20
18.112713
 30
0.0
 10
484.710204
 20
24.164263
 30
0.0
 10
485.443276
 20
31.476993
 30
0.0
  0
LINE
  5
113
100
AcDbEntity
  8
Layer_1
 62
5
100
AcDbLine
 10
485.443276
 20
31.476993
 30
0.0
 11
495.538365
 21
124.562701
 31
0.0
  0
SPLINE
  5
114
100
AcDbEntity
  8
Layer_1
 62
5
100
AcDbSpline
 70
8
 71
3
 72
8
 73
4
 74
0
 40
0
 40
0
 40
0
 40
0
 40
1
 40
1
 40
1
 40
1
 10
495.538365
 20
124.562701
 30
0.0
 10
496.426659
 20
133.420599
 30
0.0
 10
493.159584
 20
134.767151
 30
0.0
 10
487.553240
 20
138.351374
 30
0.0
  0
LINE
  5
115
100
AcDbEntity
  8
Layer_1
 62
5
100
AcDbLine
 10
487.553240
 20
138.351374
 30
0.0
 11
428.719784
 21
179.009013
 31
0.0
  0
LINE
  5
116
100
AcDbEntity
  8
Layer_1
 62
5
100
AcDbLine
 10
367.759770
 20
192.597836
 30
0.0
 11
413.479770
 21
192.597836
 31
0.0
  0
LINE
  5
117
100
AcDbEntity
  8
Layer_1
 62
5
100
AcDbLine
 10
413.479770
 20
192.597836
 30
0.0
 11
413.479770
 21
188.279836
 31
0.0
  0
LINE
  5
118
100
AcDbEntity
  8
Layer_1
 62
5
100
AcDbLine
 10
413.479770
 20
188.279836
 30
0.0
 11
367.759770
 21
188.279836
 31
0.0
  0
LINE
  5
119
100
AcDbEntity
  8
Layer_1
 62
5
100
AcDbLine
 10
367.759770
 20
188.279836
 30
0.0
 11
367.759770
 21
192.597836
 31
0.0
  0
LINE
  5
11a
100
AcDbEntity
  8
Layer_1
 62
5
100
AcDbLine
 10
367.759770
 20
192.597836
 30
0.0
 11
367.759770
 21
192.597836
 31
0.0
  0
LINE
  5
11b
100
AcDbEntity
  8
Layer_1
 62
5
100
AcDbLine
 10
307.413227
 20
108.505463
 30
0.0
 11
311.642917
 21
108.513993
 31
0.0
  0
LINE
  5
11c
100
AcDbEntity
  8
Layer_1
 62
5
100
AcDbLine
 10
369.030345
 20
363.118877
 30
0.0
 11
308.417968
 21
368.935174
 31
0.0
  0
LINE
  5
11d
100
AcDbEntity
  8
Layer_1
 62
5
100
AcDbLine
 10
315.938746
 20
108.082866
 30
0.0
 11
320.505726
 21
153.574043
 31
0.0
  0
LINE
  5
11e
100
AcDbEntity
  8
Layer_1
 62
5
100
AcDbLine
 10
320.505726
 20
153.574043
 30
0.0
 11
316.209922
 21
154.005481
 31
0.0
  0
LINE
  5
11f
100
AcDbEntity
  8
Layer_1
 62
5
100
AcDbLine
 10
316.209922
 20
154.005481
 30
0.0
 11
311.643010
 21
108.513957
 31
0.0
  0
LINE
  5
120
100
AcDbEntity
  8
Layer_1
 62
1
100
AcDbLine
 10
364.731699
 20
363.531362
 30
0.0
 11
315.938633
 21
108.082547
 31
0.0
  0
LINE
  5
121
100
AcDbEntity
  8
Layer_1
 62
1
100
AcDbLine
 10
312.714792
 20
368.504107
 30
0.0
 11
311.643266
 21
108.513955
 31
0.0
  0
LINE
  5
122
100
AcDbEntity
  8
Layer_1
 62
7
100
AcDbLine
 10
308.418056
 20
368.935163
 30
0.0
 11
307.413203
 21
108.505869
 31
0.0
  0
LINE
  5
123
100
AcDbEntity
  8
Layer_1
 62
5
100
AcDbLine
 10
369.030040
 20
363.118818
 30
0.0
 11
320.171536
 21
107.224589
 31
0.0
  0
LINE
  5
124
100
AcDbEntity
  8
Layer_1
 62
5
100
AcDbLine
 10
320.171536
 20
107.224589
 30
0.0
 11
315.938649
 21
108.082982
 31
0.0
  0
ENDSEC
  0
SECTION
  2
OBJECTS
  0
DICTIONARY
  5
C
330
0
100
AcDbDictionary
  3
ACAD_GROUP
350
D
  3
ACAD_MLINESTYLE
350
17
  0
DICTIONARY
  5
D
330
C
100
AcDbDictionary
  0
DICTIONARY
  5
1A
330
C
100
AcDbDictionary
  0
DICTIONARY
  5
17
330
C
100
AcDbDictionary
  3
STANDARD
350
18
  0
DICTIONARY
  5
19
330
C
100
AcDbDictionary
  0
ENDSEC
  0
EOF
