  0
SECTION
  2
BLOCKS
  0
ENDSEC
  0
SECTION
  2
ENTITIES
  0
LINE
  8
0
 10
-7.39999
 20
-31.2
 11
-2.59999
 21
-31.2
  0
LINE
  8
0
 10
-2.59999
 20
-31.2
 11
-2.59999
 21
-34.5
  0
LINE
  8
0
 10
-2.59999
 20
-34.5
 11
2.59998
 21
-34.5
  0
LINE
  8
0
 10
2.59998
 20
-34.5
 11
2.59998
 21
-31.2
  0
LINE
  8
0
 10
2.59998
 20
-31.2
 11
7.39998
 21
-31.2
  0
LINE
  8
0
 10
7.39998
 20
-31.2
 11
7.39998
 21
-34.5
  0
LINE
  8
0
 10
7.39998
 20
-34.5
 11
12.6
 21
-34.5
  0
LINE
  8
0
 10
12.6
 20
-34.5
 11
12.6
 21
-31.2
  0
LINE
  8
0
 10
12.6
 20
-31.2
 11
15
 21
-31.2
  0
LINE
  8
0
 10
15
 20
-31.2
 11
15
 21
-31.009
  0
LINE
  8
0
 10
15
 20
-31.009
 11
16.7352
 21
-31.009
  0
LINE
  8
0
 10
16.7352
 20
-31.009
 11
20.1297
 21
-30.2875
  0
LINE
  8
0
 10
20.1297
 20
-30.2875
 11
23.3
 21
-28.876
  0
LINE
  8
0
 10
23.3
 20
-28.876
 11
26.1076
 21
-26.8362
  0
LINE
  8
0
 10
26.1076
 20
-26.8362
 11
28.4297
 21
-24.2572
  0
LINE
  8
0
 10
28.4297
 20
-24.2572
 11
30.1648
 21
-21.2518
  0
LINE
  8
0
 10
30.1648
 20
-21.2518
 11
31.2372
 21
-17.9513
  0
LINE
  8
0
 10
31.2372
 20
-17.9513
 11
31.6
 21
-14.5
  0
LINE
  8
0
 10
31.6
 20
-14.5
 11
31.7
 21
-14.5
  0
LINE
  8
0
 10
31.7
 20
-14.5
 11
31.7
 21
-12.1
  0
LINE
  8
0
 10
31.7
 20
-12.1
 11
35
 21
-12.1
  0
LINE
  8
0
 10
35
 20
-12.1
 11
35
 21
-6.89998
  0
LINE
  8
0
 10
35
 20
-6.89998
 11
31.7
 21
-6.89998
  0
LINE
  8
0
 10
31.7
 20
-6.89998
 11
31.7
 21
-2.09998
  0
LINE
  8
0
 10
31.7
 20
-2.09998
 11
35
 21
-2.09998
  0
LINE
  8
0
 10
35
 20
-2.09998
 11
35
 21
3.09999
  0
LINE
  8
0
 10
35
 20
3.09999
 11
31.7
 21
3.09999
  0
LINE
  8
0
 10
31.7
 20
3.09999
 11
31.7
 21
7.89999
  0
LINE
  8
0
 10
31.7
 20
7.89999
 11
35
 21
7.89999
  0
LINE
  8
0
 10
35
 20
7.89999
 11
35
 21
13.1
  0
LINE
  8
0
 10
35
 20
13.1
 11
31.7
 21
13.1
  0
LINE
  8
0
 10
31.7
 20
13.1
 11
31.7
 21
15.5
  0
LINE
  8
0
 10
31.7
 20
15.5
 11
31.6
 21
15.5
  0
LINE
  8
0
 10
31.6
 20
15.5
 11
31.2372
 21
18.9513
  0
LINE
  8
0
 10
31.2372
 20
18.9513
 11
30.1648
 21
22.2518
  0
LINE
  8
0
 10
30.1648
 20
22.2518
 11
28.4297
 21
25.2572
  0
LINE
  8
0
 10
28.4297
 20
25.2572
 11
26.1076
 21
27.8362
  0
LINE
  8
0
 10
26.1076
 20
27.8362
 11
23.3
 21
29.876
  0
LINE
  8
0
 10
23.3
 20
29.876
 11
20.1297
 21
31.2875
  0
LINE
  8
0
 10
20.1297
 20
31.2875
 11
16.7352
 21
32.009
  0
LINE
  8
0
 10
16.7352
 20
32.009
 11
15
 21
32.009
  0
LINE
  8
0
 10
15
 20
32.009
 11
15
 21
32.2
  0
LINE
  8
0
 10
15
 20
32.2
 11
12.6
 21
32.2
  0
LINE
  8
0
 10
12.6
 20
32.2
 11
12.6
 21
35.5
  0
LINE
  8
0
 10
12.6
 20
35.5
 11
7.39999
 21
35.5
  0
LINE
  8
0
 10
7.39999
 20
35.5
 11
7.39999
 21
32.2
  0
LINE
  8
0
 10
7.39999
 20
32.2
 11
2.59999
 21
32.2
  0
LINE
  8
0
 10
2.59999
 20
32.2
 11
2.59999
 21
35.5
  0
LINE
  8
0
 10
2.59999
 20
35.5
 11
-2.59999
 21
35.5
  0
LINE
  8
0
 10
-2.59999
 20
35.5
 11
-2.59999
 21
32.2
  0
LINE
  8
0
 10
-2.59999
 20
32.2
 11
-7.39999
 21
32.2
  0
LINE
  8
0
 10
-7.39999
 20
32.2
 11
-7.39999
 21
35.5
  0
LINE
  8
0
 10
-7.39999
 20
35.5
 11
-12.6
 21
35.5
  0
LINE
  8
0
 10
-12.6
 20
35.5
 11
-12.6
 21
32.2
  0
LINE
  8
0
 10
-12.6
 20
32.2
 11
-15
 21
32.2
  0
LINE
  8
0
 10
-15
 20
32.2
 11
-15
 21
32.009
  0
LINE
  8
0
 10
-15
 20
32.009
 11
-16.7352
 21
32.009
  0
LINE
  8
0
 10
-16.7352
 20
32.009
 11
-20.1297
 21
31.2875
  0
LINE
  8
0
 10
-20.1297
 20
31.2875
 11
-23.3
 21
29.876
  0
LINE
  8
0
 10
-23.3
 20
29.876
 11
-26.1076
 21
27.8362
  0
LINE
  8
0
 10
-26.1076
 20
27.8362
 11
-28.4297
 21
25.2572
  0
LINE
  8
0
 10
-28.4297
 20
25.2572
 11
-30.1648
 21
22.2518
  0
LINE
  8
0
 10
-30.1648
 20
22.2518
 11
-31.2372
 21
18.9513
  0
LINE
  8
0
 10
-31.2372
 20
18.9513
 11
-31.6
 21
15.5
  0
LINE
  8
0
 10
-31.6
 20
15.5
 11
-31.7
 21
15.5
  0
LINE
  8
0
 10
-31.7
 20
15.5
 11
-31.7
 21
13.1
  0
LINE
  8
0
 10
-31.7
 20
13.1
 11
-35
 21
13.1
  0
LINE
  8
0
 10
-35
 20
13.1
 11
-35
 21
7.89999
  0
LINE
  8
0
 10
-35
 20
7.89999
 11
-31.7
 21
7.89999
  0
LINE
  8
0
 10
-31.7
 20
7.89999
 11
-31.7
 21
3.09999
  0
LINE
  8
0
 10
-31.7
 20
3.09999
 11
-35
 21
3.09999
  0
LINE
  8
0
 10
-35
 20
3.09999
 11
-35
 21
-2.09998
  0
LINE
  8
0
 10
-35
 20
-2.09998
 11
-31.7
 21
-2.09998
  0
LINE
  8
0
 10
-31.7
 20
-2.09998
 11
-31.7
 21
-6.89998
  0
LINE
  8
0
 10
-31.7
 20
-6.89998
 11
-35
 21
-6.89998
  0
LINE
  8
0
 10
-35
 20
-6.89998
 11
-35
 21
-12.1
  0
LINE
  8
0
 10
-35
 20
-12.1
 11
-31.7
 21
-12.1
  0
LINE
  8
0
 10
-31.7
 20
-12.1
 11
-31.7
 21
-14.5
  0
LINE
  8
0
 10
-31.7
 20
-14.5
 11
-31.6
 21
-14.5
  0
LINE
  8
0
 10
-31.6
 20
-14.5
 11
-31.2372
 21
-17.9513
  0
LINE
  8
0
 10
-31.2372
 20
-17.9513
 11
-30.1648
 21
-21.2518
  0
LINE
  8
0
 10
-30.1648
 20
-21.2518
 11
-28.4297
 21
-24.2572
  0
LINE
  8
0
 10
-28.4297
 20
-24.2572
 11
-26.1076
 21
-26.8362
  0
LINE
  8
0
 10
-26.1076
 20
-26.8362
 11
-23.3
 21
-28.876
  0
LINE
  8
0
 10
-23.3
 20
-28.876
 11
-20.1297
 21
-30.2875
  0
LINE
  8
0
 10
-20.1297
 20
-30.2875
 11
-16.7352
 21
-31.009
  0
LINE
  8
0
 10
-16.7352
 20
-31.009
 11
-15
 21
-31.009
  0
LINE
  8
0
 10
-15
 20
-31.009
 11
-15
 21
-31.2
  0
LINE
  8
0
 10
-15
 20
-31.2
 11
-12.6
 21
-31.2
  0
LINE
  8
0
 10
-12.6
 20
-31.2
 11
-12.6
 21
-34.5
  0
LINE
  8
0
 10
-12.6
 20
-34.5
 11
-7.39999
 21
-34.5
  0
LINE
  8
0
 10
-7.39999
 20
-34.5
 11
-7.39999
 21
-31.2
  0
LINE
  8
0
 10
-112.09
 20
-51.7
 11
-107.29
 21
-51.7
  0
LINE
  8
0
 10
-107.29
 20
-51.7
 11
-107.29
 21
-55
  0
LINE
  8
0
 10
-107.29
 20
-55
 11
-101.773
 21
-55
  0
LINE
  8
0
 10
-101.773
 20
-55
 11
-101.773
 21
-47.5
  0
LINE
  8
0
 10
-101.773
 20
-47.5
 11
-101.763
 21
-47.5
  0
LINE
  8
0
 10
-101.763
 20
-47.5
 11
-101.763
 21
-55
  0
LINE
  8
0
 10
-101.763
 20
-55
 11
-97.7727
 21
-55
  0
LINE
  8
0
 10
-97.7727
 20
-55
 11
-97.7727
 21
-47.5
  0
LINE
  8
0
 10
-97.7727
 20
-47.5
 11
-97.7627
 21
-47.5
  0
LINE
  8
0
 10
-97.7627
 20
-47.5
 11
-97.7627
 21
-55
  0
LINE
  8
0
 10
-97.7627
 20
-55
 11
-93.7727
 21
-55
  0
LINE
  8
0
 10
-93.7727
 20
-55
 11
-93.7727
 21
-47.5
  0
LINE
  8
0
 10
-93.7727
 20
-47.5
 11
-93.7627
 21
-47.5
  0
LINE
  8
0
 10
-93.7627
 20
-47.5
 11
-93.7627
 21
-55
  0
LINE
  8
0
 10
-93.7627
 20
-55
 11
-89.7727
 21
-55
  0
LINE
  8
0
 10
-89.7727
 20
-55
 11
-89.7727
 21
-47.5
  0
LINE
  8
0
 10
-89.7727
 20
-47.5
 11
-89.7627
 21
-47.5
  0
LINE
  8
0
 10
-89.7627
 20
-47.5
 11
-89.7627
 21
-55
  0
LINE
  8
0
 10
-89.7627
 20
-55
 11
-85.7727
 21
-55
  0
LINE
  8
0
 10
-85.7727
 20
-55
 11
-85.7727
 21
-47.5
  0
LINE
  8
0
 10
-85.7727
 20
-47.5
 11
-85.7627
 21
-47.5
  0
LINE
  8
0
 10
-85.7627
 20
-47.5
 11
-85.7627
 21
-55
  0
LINE
  8
0
 10
-85.7627
 20
-55
 11
-81.7727
 21
-55
  0
LINE
  8
0
 10
-81.7727
 20
-55
 11
-81.7727
 21
-47.5
  0
LINE
  8
0
 10
-81.7727
 20
-47.5
 11
-81.7627
 21
-47.5
  0
LINE
  8
0
 10
-81.7627
 20
-47.5
 11
-81.7627
 21
-55
  0
LINE
  8
0
 10
-81.7627
 20
-55
 11
-77.7727
 21
-55
  0
LINE
  8
0
 10
-77.7727
 20
-55
 11
-77.7727
 21
-47.5
  0
LINE
  8
0
 10
-77.7727
 20
-47.5
 11
-77.7627
 21
-47.5
  0
LINE
  8
0
 10
-77.7627
 20
-47.5
 11
-77.7627
 21
-55
  0
LINE
  8
0
 10
-77.7627
 20
-55
 11
-72.2451
 21
-55
  0
LINE
  8
0
 10
-72.2451
 20
-55
 11
-72.2451
 21
-51.7
  0
LINE
  8
0
 10
-72.2451
 20
-51.7
 11
-67.4451
 21
-51.7
  0
LINE
  8
0
 10
-67.4451
 20
-51.7
 11
-67.4451
 21
-55
  0
LINE
  8
0
 10
-67.4451
 20
-55
 11
-62.2451
 21
-55
  0
LINE
  8
0
 10
-62.2451
 20
-55
 11
-62.2451
 21
-51.7
  0
LINE
  8
0
 10
-62.2451
 20
-51.7
 11
-57.4451
 21
-51.7
  0
LINE
  8
0
 10
-57.4451
 20
-51.7
 11
-57.4451
 21
-55
  0
LINE
  8
0
 10
-57.4451
 20
-55
 11
-52.2451
 21
-55
  0
LINE
  8
0
 10
-52.2451
 20
-55
 11
-52.2451
 21
-51.7
  0
LINE
  8
0
 10
-52.2451
 20
-51.7
 11
-47.4451
 21
-51.7
  0
LINE
  8
0
 10
-47.4451
 20
-51.7
 11
-47.4451
 21
-55
  0
LINE
  8
0
 10
-47.4451
 20
-55
 11
-41.9276
 21
-55
  0
LINE
  8
0
 10
-41.9276
 20
-55
 11
-41.9276
 21
-47.5
  0
LINE
  8
0
 10
-41.9276
 20
-47.5
 11
-41.9176
 21
-47.5
  0
LINE
  8
0
 10
-41.9176
 20
-47.5
 11
-41.9176
 21
-55
  0
LINE
  8
0
 10
-41.9176
 20
-55
 11
-37.9276
 21
-55
  0
LINE
  8
0
 10
-37.9276
 20
-55
 11
-37.9276
 21
-47.5
  0
LINE
  8
0
 10
-37.9276
 20
-47.5
 11
-37.9176
 21
-47.5
  0
LINE
  8
0
 10
-37.9176
 20
-47.5
 11
-37.9176
 21
-55
  0
LINE
  8
0
 10
-37.9176
 20
-55
 11
-33.9276
 21
-55
  0
LINE
  8
0
 10
-33.9276
 20
-55
 11
-33.9276
 21
-47.5
  0
LINE
  8
0
 10
-33.9276
 20
-47.5
 11
-33.9176
 21
-47.5
  0
LINE
  8
0
 10
-33.9176
 20
-47.5
 11
-33.9176
 21
-55
  0
LINE
  8
0
 10
-33.9176
 20
-55
 11
-29.9276
 21
-55
  0
LINE
  8
0
 10
-29.9276
 20
-55
 11
-29.9276
 21
-47.5
  0
LINE
  8
0
 10
-29.9276
 20
-47.5
 11
-29.9176
 21
-47.5
  0
LINE
  8
0
 10
-29.9176
 20
-47.5
 11
-29.9176
 21
-55
  0
LINE
  8
0
 10
-29.9176
 20
-55
 11
-25.9276
 21
-55
  0
LINE
  8
0
 10
-25.9276
 20
-55
 11
-25.9276
 21
-47.5
  0
LINE
  8
0
 10
-25.9276
 20
-47.5
 11
-25.9176
 21
-47.5
  0
LINE
  8
0
 10
-25.9176
 20
-47.5
 11
-25.9176
 21
-55
  0
LINE
  8
0
 10
-25.9176
 20
-55
 11
-21.9276
 21
-55
  0
LINE
  8
0
 10
-21.9276
 20
-55
 11
-21.9276
 21
-47.5
  0
LINE
  8
0
 10
-21.9276
 20
-47.5
 11
-21.9176
 21
-47.5
  0
LINE
  8
0
 10
-21.9176
 20
-47.5
 11
-21.9176
 21
-55
  0
LINE
  8
0
 10
-21.9176
 20
-55
 11
-17.9276
 21
-55
  0
LINE
  8
0
 10
-17.9276
 20
-55
 11
-17.9276
 21
-47.5
  0
LINE
  8
0
 10
-17.9276
 20
-47.5
 11
-17.9176
 21
-47.5
  0
LINE
  8
0
 10
-17.9176
 20
-47.5
 11
-17.9176
 21
-55
  0
LINE
  8
0
 10
-17.9176
 20
-55
 11
-12.4
 21
-55
  0
LINE
  8
0
 10
-12.4
 20
-55
 11
-12.4
 21
-51.7
  0
LINE
  8
0
 10
-12.4
 20
-51.7
 11
-7.59999
 21
-51.7
  0
LINE
  8
0
 10
-7.59999
 20
-51.7
 11
-7.59999
 21
-55
  0
LINE
  8
0
 10
-7.59999
 20
-55
 11
-2.39999
 21
-55
  0
LINE
  8
0
 10
-2.39999
 20
-55
 11
-2.39999
 21
-51.7
  0
LINE
  8
0
 10
-2.39999
 20
-51.7
 11
2.39999
 21
-51.7
  0
LINE
  8
0
 10
2.39999
 20
-51.7
 11
2.39999
 21
-55
  0
LINE
  8
0
 10
2.39999
 20
-55
 11
7.59998
 21
-55
  0
LINE
  8
0
 10
7.59998
 20
-55
 11
7.59998
 21
-51.7
  0
LINE
  8
0
 10
7.59998
 20
-51.7
 11
12.4
 21
-51.7
  0
LINE
  8
0
 10
12.4
 20
-51.7
 11
12.4
 21
-55
  0
LINE
  8
0
 10
12.4
 20
-55
 11
17.9176
 21
-55
  0
LINE
  8
0
 10
17.9176
 20
-55
 11
17.9176
 21
-47.5
  0
LINE
  8
0
 10
17.9176
 20
-47.5
 11
17.9276
 21
-47.5
  0
LINE
  8
0
 10
17.9276
 20
-47.5
 11
17.9276
 21
-55
  0
LINE
  8
0
 10
17.9276
 20
-55
 11
21.9176
 21
-55
  0
LINE
  8
0
 10
21.9176
 20
-55
 11
21.9176
 21
-47.5
  0
LINE
  8
0
 10
21.9176
 20
-47.5
 11
21.9276
 21
-47.5
  0
LINE
  8
0
 10
21.9276
 20
-47.5
 11
21.9276
 21
-55
  0
LINE
  8
0
 10
21.9276
 20
-55
 11
25.9176
 21
-55
  0
LINE
  8
0
 10
25.9176
 20
-55
 11
25.9176
 21
-47.5
  0
LINE
  8
0
 10
25.9176
 20
-47.5
 11
25.9276
 21
-47.5
  0
LINE
  8
0
 10
25.9276
 20
-47.5
 11
25.9276
 21
-55
  0
LINE
  8
0
 10
25.9276
 20
-55
 11
29.9176
 21
-55
  0
LINE
  8
0
 10
29.9176
 20
-55
 11
29.9176
 21
-47.5
  0
LINE
  8
0
 10
29.9176
 20
-47.5
 11
29.9276
 21
-47.5
  0
LINE
  8
0
 10
29.9276
 20
-47.5
 11
29.9276
 21
-55
  0
LINE
  8
0
 10
29.9276
 20
-55
 11
33.9176
 21
-55
  0
LINE
  8
0
 10
33.9176
 20
-55
 11
33.9176
 21
-47.5
  0
LINE
  8
0
 10
33.9176
 20
-47.5
 11
33.9276
 21
-47.5
  0
LINE
  8
0
 10
33.9276
 20
-47.5
 11
33.9276
 21
-55
  0
LINE
  8
0
 10
33.9276
 20
-55
 11
37.9176
 21
-55
  0
LINE
  8
0
 10
37.9176
 20
-55
 11
37.9176
 21
-47.5
  0
LINE
  8
0
 10
37.9176
 20
-47.5
 11
37.9276
 21
-47.5
  0
LINE
  8
0
 10
37.9276
 20
-47.5
 11
37.9276
 21
-55
  0
LINE
  8
0
 10
37.9276
 20
-55
 11
41.9176
 21
-55
  0
LINE
  8
0
 10
41.9176
 20
-55
 11
41.9176
 21
-47.5
  0
LINE
  8
0
 10
41.9176
 20
-47.5
 11
41.9276
 21
-47.5
  0
LINE
  8
0
 10
41.9276
 20
-47.5
 11
41.9276
 21
-55
  0
LINE
  8
0
 10
41.9276
 20
-55
 11
47.4451
 21
-55
  0
LINE
  8
0
 10
47.4451
 20
-55
 11
47.4451
 21
-51.7
  0
LINE
  8
0
 10
47.4451
 20
-51.7
 11
52.2451
 21
-51.7
  0
LINE
  8
0
 10
52.2451
 20
-51.7
 11
52.2451
 21
-55
  0
LINE
  8
0
 10
52.2451
 20
-55
 11
57.4451
 21
-55
  0
LINE
  8
0
 10
57.4451
 20
-55
 11
57.4451
 21
-51.7
  0
LINE
  8
0
 10
57.4451
 20
-51.7
 11
62.2451
 21
-51.7
  0
LINE
  8
0
 10
62.2451
 20
-51.7
 11
62.2451
 21
-55
  0
LINE
  8
0
 10
62.2451
 20
-55
 11
67.4451
 21
-55
  0
LINE
  8
0
 10
67.4451
 20
-55
 11
67.4451
 21
-51.7
  0
LINE
  8
0
 10
67.4451
 20
-51.7
 11
72.2451
 21
-51.7
  0
LINE
  8
0
 10
72.2451
 20
-51.7
 11
72.2451
 21
-55
  0
LINE
  8
0
 10
72.2451
 20
-55
 11
77.7627
 21
-55
  0
LINE
  8
0
 10
77.7627
 20
-55
 11
77.7627
 21
-47.5
  0
LINE
  8
0
 10
77.7627
 20
-47.5
 11
77.7727
 21
-47.5
  0
LINE
  8
0
 10
77.7727
 20
-47.5
 11
77.7727
 21
-55
  0
LINE
  8
0
 10
77.7727
 20
-55
 11
81.7627
 21
-55
  0
LINE
  8
0
 10
81.7627
 20
-55
 11
81.7627
 21
-47.5
  0
LINE
  8
0
 10
81.7627
 20
-47.5
 11
81.7727
 21
-47.5
  0
LINE
  8
0
 10
81.7727
 20
-47.5
 11
81.7727
 21
-55
  0
LINE
  8
0
 10
81.7727
 20
-55
 11
85.7627
 21
-55
  0
LINE
  8
0
 10
85.7627
 20
-55
 11
85.7627
 21
-47.5
  0
LINE
  8
0
 10
85.7627
 20
-47.5
 11
85.7727
 21
-47.5
  0
LINE
  8
0
 10
85.7727
 20
-47.5
 11
85.7727
 21
-55
  0
LINE
  8
0
 10
85.7727
 20
-55
 11
89.7627
 21
-55
  0
LINE
  8
0
 10
89.7627
 20
-55
 11
89.7627
 21
-47.5
  0
LINE
  8
0
 10
89.7627
 20
-47.5
 11
89.7727
 21
-47.5
  0
LINE
  8
0
 10
89.7727
 20
-47.5
 11
89.7727
 21
-55
  0
LINE
  8
0
 10
89.7727
 20
-55
 11
93.7627
 21
-55
  0
LINE
  8
0
 10
93.7627
 20
-55
 11
93.7627
 21
-47.5
  0
LINE
  8
0
 10
93.7627
 20
-47.5
 11
93.7727
 21
-47.5
  0
LINE
  8
0
 10
93.7727
 20
-47.5
 11
93.7727
 21
-55
  0
LINE
  8
0
 10
93.7727
 20
-55
 11
97.7627
 21
-55
  0
LINE
  8
0
 10
97.7627
 20
-55
 11
97.7627
 21
-47.5
  0
LINE
  8
0
 10
97.7627
 20
-47.5
 11
97.7727
 21
-47.5
  0
LINE
  8
0
 10
97.7727
 20
-47.5
 11
97.7727
 21
-55
  0
LINE
  8
0
 10
97.7727
 20
-55
 11
101.763
 21
-55
  0
LINE
  8
0
 10
101.763
 20
-55
 11
101.763
 21
-47.5
  0
LINE
  8
0
 10
101.763
 20
-47.5
 11
101.773
 21
-47.5
  0
LINE
  8
0
 10
101.773
 20
-47.5
 11
101.773
 21
-55
  0
LINE
  8
0
 10
101.773
 20
-55
 11
107.39
 21
-55
  0
LINE
  8
0
 10
107.39
 20
-55
 11
107.39
 21
-51.7
  0
LINE
  8
0
 10
107.39
 20
-51.7
 11
112.19
 21
-51.7
  0
LINE
  8
0
 10
112.19
 20
-51.7
 11
112.19
 21
-55
  0
LINE
  8
0
 10
112.19
 20
-55
 11
117.39
 21
-55
  0
LINE
  8
0
 10
117.39
 20
-55
 11
117.39
 21
-51.7
  0
LINE
  8
0
 10
117.39
 20
-51.7
 11
121.39
 21
-51.7
  0
LINE
  8
0
 10
121.39
 20
-51.7
 11
121.39
 21
-47.4
  0
LINE
  8
0
 10
121.39
 20
-47.4
 11
118.09
 21
-47.4
  0
LINE
  8
0
 10
118.09
 20
-47.4
 11
118.09
 21
-42.6
  0
LINE
  8
0
 10
118.09
 20
-42.6
 11
121.39
 21
-42.6
  0
LINE
  8
0
 10
121.39
 20
-42.6
 11
121.39
 21
-38.3
  0
LINE
  8
0
 10
121.39
 20
-38.3
 11
117.39
 21
-38.3
  0
LINE
  8
0
 10
117.39
 20
-38.3
 11
117.39
 21
-35
  0
LINE
  8
0
 10
117.39
 20
-35
 11
112.19
 21
-35
  0
LINE
  8
0
 10
112.19
 20
-35
 11
112.19
 21
-38.3
  0
LINE
  8
0
 10
112.19
 20
-38.3
 11
107.39
 21
-38.3
  0
LINE
  8
0
 10
107.39
 20
-38.3
 11
107.39
 21
-35
  0
LINE
  8
0
 10
107.39
 20
-35
 11
101.773
 21
-35
  0
LINE
  8
0
 10
101.773
 20
-35
 11
101.773
 21
-42.5
  0
LINE
  8
0
 10
101.773
 20
-42.5
 11
101.763
 21
-42.5
  0
LINE
  8
0
 10
101.763
 20
-42.5
 11
101.763
 21
-35
  0
LINE
  8
0
 10
101.763
 20
-35
 11
97.7727
 21
-35
  0
LINE
  8
0
 10
97.7727
 20
-35
 11
97.7727
 21
-42.5
  0
LINE
  8
0
 10
97.7727
 20
-42.5
 11
97.7627
 21
-42.5
  0
LINE
  8
0
 10
97.7627
 20
-42.5
 11
97.7627
 21
-35
  0
LINE
  8
0
 10
97.7627
 20
-35
 11
93.7727
 21
-35
  0
LINE
  8
0
 10
93.7727
 20
-35
 11
93.7727
 21
-42.5
  0
LINE
  8
0
 10
93.7727
 20
-42.5
 11
93.7627
 21
-42.5
  0
LINE
  8
0
 10
93.7627
 20
-42.5
 11
93.7627
 21
-35
  0
LINE
  8
0
 10
93.7627
 20
-35
 11
89.7727
 21
-35
  0
LINE
  8
0
 10
89.7727
 20
-35
 11
89.7727
 21
-42.5
  0
LINE
  8
0
 10
89.7727
 20
-42.5
 11
89.7627
 21
-42.5
  0
LINE
  8
0
 10
89.7627
 20
-42.5
 11
89.7627
 21
-35
  0
LINE
  8
0
 10
89.7627
 20
-35
 11
85.7727
 21
-35
  0
LINE
  8
0
 10
85.7727
 20
-35
 11
85.7727
 21
-42.5
  0
LINE
  8
0
 10
85.7727
 20
-42.5
 11
85.7627
 21
-42.5
  0
LINE
  8
0
 10
85.7627
 20
-42.5
 11
85.7627
 21
-35
  0
LINE
  8
0
 10
85.7627
 20
-35
 11
81.7727
 21
-35
  0
LINE
  8
0
 10
81.7727
 20
-35
 11
81.7727
 21
-42.5
  0
LINE
  8
0
 10
81.7727
 20
-42.5
 11
81.7627
 21
-42.5
  0
LINE
  8
0
 10
81.7627
 20
-42.5
 11
81.7627
 21
-35
  0
LINE
  8
0
 10
81.7627
 20
-35
 11
77.7727
 21
-35
  0
LINE
  8
0
 10
77.7727
 20
-35
 11
77.7727
 21
-42.5
  0
LINE
  8
0
 10
77.7727
 20
-42.5
 11
77.7627
 21
-42.5
  0
LINE
  8
0
 10
77.7627
 20
-42.5
 11
77.7627
 21
-35
  0
LINE
  8
0
 10
77.7627
 20
-35
 11
72.2451
 21
-35
  0
LINE
  8
0
 10
72.2451
 20
-35
 11
72.2451
 21
-38.3
  0
LINE
  8
0
 10
72.2451
 20
-38.3
 11
67.4451
 21
-38.3
  0
LINE
  8
0
 10
67.4451
 20
-38.3
 11
67.4451
 21
-35
  0
LINE
  8
0
 10
67.4451
 20
-35
 11
62.2451
 21
-35
  0
LINE
  8
0
 10
62.2451
 20
-35
 11
62.2451
 21
-38.3
  0
LINE
  8
0
 10
62.2451
 20
-38.3
 11
57.4451
 21
-38.3
  0
LINE
  8
0
 10
57.4451
 20
-38.3
 11
57.4451
 21
-35
  0
LINE
  8
0
 10
57.4451
 20
-35
 11
52.2451
 21
-35
  0
LINE
  8
0
 10
52.2451
 20
-35
 11
52.2451
 21
-38.3
  0
LINE
  8
0
 10
52.2451
 20
-38.3
 11
47.4451
 21
-38.3
  0
LINE
  8
0
 10
47.4451
 20
-38.3
 11
47.4451
 21
-35
  0
LINE
  8
0
 10
47.4451
 20
-35
 11
41.9276
 21
-35
  0
LINE
  8
0
 10
41.9276
 20
-35
 11
41.9276
 21
-42.5
  0
LINE
  8
0
 10
41.9276
 20
-42.5
 11
41.9176
 21
-42.5
  0
LINE
  8
0
 10
41.9176
 20
-42.5
 11
41.9176
 21
-35
  0
LINE
  8
0
 10
41.9176
 20
-35
 11
37.9276
 21
-35
  0
LINE
  8
0
 10
37.9276
 20
-35
 11
37.9276
 21
-42.5
  0
LINE
  8
0
 10
37.9276
 20
-42.5
 11
37.9176
 21
-42.5
  0
LINE
  8
0
 10
37.9176
 20
-42.5
 11
37.9176
 21
-35
  0
LINE
  8
0
 10
37.9176
 20
-35
 11
33.9276
 21
-35
  0
LINE
  8
0
 10
33.9276
 20
-35
 11
33.9276
 21
-42.5
  0
LINE
  8
0
 10
33.9276
 20
-42.5
 11
33.9176
 21
-42.5
  0
LINE
  8
0
 10
33.9176
 20
-42.5
 11
33.9176
 21
-35
  0
LINE
  8
0
 10
33.9176
 20
-35
 11
29.9276
 21
-35
  0
LINE
  8
0
 10
29.9276
 20
-35
 11
29.9276
 21
-42.5
  0
LINE
  8
0
 10
29.9276
 20
-42.5
 11
29.9176
 21
-42.5
  0
LINE
  8
0
 10
29.9176
 20
-42.5
 11
29.9176
 21
-35
  0
LINE
  8
0
 10
29.9176
 20
-35
 11
25.9276
 21
-35
  0
LINE
  8
0
 10
25.9276
 20
-35
 11
25.9276
 21
-42.5
  0
LINE
  8
0
 10
25.9276
 20
-42.5
 11
25.9176
 21
-42.5
  0
LINE
  8
0
 10
25.9176
 20
-42.5
 11
25.9176
 21
-35
  0
LINE
  8
0
 10
25.9176
 20
-35
 11
21.9276
 21
-35
  0
LINE
  8
0
 10
21.9276
 20
-35
 11
21.9276
 21
-42.5
  0
LINE
  8
0
 10
21.9276
 20
-42.5
 11
21.9176
 21
-42.5
  0
LINE
  8
0
 10
21.9176
 20
-42.5
 11
21.9176
 21
-35
  0
LINE
  8
0
 10
21.9176
 20
-35
 11
17.9276
 21
-35
  0
LINE
  8
0
 10
17.9276
 20
-35
 11
17.9276
 21
-42.5
  0
LINE
  8
0
 10
17.9276
 20
-42.5
 11
17.9176
 21
-42.5
  0
LINE
  8
0
 10
17.9176
 20
-42.5
 11
17.9176
 21
-35
  0
LINE
  8
0
 10
17.9176
 20
-35
 11
12.4
 21
-35
  0
LINE
  8
0
 10
12.4
 20
-35
 11
12.4
 21
-38.3
  0
LINE
  8
0
 10
12.4
 20
-38.3
 11
7.59999
 21
-38.3
  0
LINE
  8
0
 10
7.59999
 20
-38.3
 11
7.59999
 21
-35
  0
LINE
  8
0
 10
7.59999
 20
-35
 11
2.39999
 21
-35
  0
LINE
  8
0
 10
2.39999
 20
-35
 11
2.39999
 21
-38.3
  0
LINE
  8
0
 10
2.39999
 20
-38.3
 11
-2.40001
 21
-38.3
  0
LINE
  8
0
 10
-2.40001
 20
-38.3
 11
-2.40001
 21
-35
  0
LINE
  8
0
 10
-2.40001
 20
-35
 11
-7.59999
 21
-35
  0
LINE
  8
0
 10
-7.59999
 20
-35
 11
-7.59999
 21
-38.3
  0
LINE
  8
0
 10
-7.59999
 20
-38.3
 11
-12.4
 21
-38.3
  0
LINE
  8
0
 10
-12.4
 20
-38.3
 11
-12.4
 21
-35
  0
LINE
  8
0
 10
-12.4
 20
-35
 11
-17.9176
 21
-35
  0
LINE
  8
0
 10
-17.9176
 20
-35
 11
-17.9176
 21
-42.5
  0
LINE
  8
0
 10
-17.9176
 20
-42.5
 11
-17.9276
 21
-42.5
  0
LINE
  8
0
 10
-17.9276
 20
-42.5
 11
-17.9276
 21
-35
  0
LINE
  8
0
 10
-17.9276
 20
-35
 11
-21.9176
 21
-35
  0
LINE
  8
0
 10
-21.9176
 20
-35
 11
-21.9176
 21
-42.5
  0
LINE
  8
0
 10
-21.9176
 20
-42.5
 11
-21.9276
 21
-42.5
  0
LINE
  8
0
 10
-21.9276
 20
-42.5
 11
-21.9276
 21
-35
  0
LINE
  8
0
 10
-21.9276
 20
-35
 11
-25.9176
 21
-35
  0
LINE
  8
0
 10
-25.9176
 20
-35
 11
-25.9176
 21
-42.5
  0
LINE
  8
0
 10
-25.9176
 20
-42.5
 11
-25.9276
 21
-42.5
  0
LINE
  8
0
 10
-25.9276
 20
-42.5
 11
-25.9276
 21
-35
  0
LINE
  8
0
 10
-25.9276
 20
-35
 11
-29.9176
 21
-35
  0
LINE
  8
0
 10
-29.9176
 20
-35
 11
-29.9176
 21
-42.5
  0
LINE
  8
0
 10
-29.9176
 20
-42.5
 11
-29.9276
 21
-42.5
  0
LINE
  8
0
 10
-29.9276
 20
-42.5
 11
-29.9276
 21
-35
  0
LINE
  8
0
 10
-29.9276
 20
-35
 11
-33.9176
 21
-35
  0
LINE
  8
0
 10
-33.9176
 20
-35
 11
-33.9176
 21
-42.5
  0
LINE
  8
0
 10
-33.9176
 20
-42.5
 11
-33.9276
 21
-42.5
  0
LINE
  8
0
 10
-33.9276
 20
-42.5
 11
-33.9276
 21
-35
  0
LINE
  8
0
 10
-33.9276
 20
-35
 11
-37.9176
 21
-35
  0
LINE
  8
0
 10
-37.9176
 20
-35
 11
-37.9176
 21
-42.5
  0
LINE
  8
0
 10
-37.9176
 20
-42.5
 11
-37.9276
 21
-42.5
  0
LINE
  8
0
 10
-37.9276
 20
-42.5
 11
-37.9276
 21
-35
  0
LINE
  8
0
 10
-37.9276
 20
-35
 11
-41.9176
 21
-35
  0
LINE
  8
0
 10
-41.9176
 20
-35
 11
-41.9176
 21
-42.5
  0
LINE
  8
0
 10
-41.9176
 20
-42.5
 11
-41.9276
 21
-42.5
  0
LINE
  8
0
 10
-41.9276
 20
-42.5
 11
-41.9276
 21
-35
  0
LINE
  8
0
 10
-41.9276
 20
-35
 11
-47.4451
 21
-35
  0
LINE
  8
0
 10
-47.4451
 20
-35
 11
-47.4451
 21
-38.3
  0
LINE
  8
0
 10
-47.4451
 20
-38.3
 11
-52.2451
 21
-38.3
  0
LINE
  8
0
 10
-52.2451
 20
-38.3
 11
-52.2451
 21
-35
  0
LINE
  8
0
 10
-52.2451
 20
-35
 11
-57.4451
 21
-35
  0
LINE
  8
0
 10
-57.4451
 20
-35
 11
-57.4451
 21
-38.3
  0
LINE
  8
0
 10
-57.4451
 20
-38.3
 11
-62.2451
 21
-38.3
  0
LINE
  8
0
 10
-62.2451
 20
-38.3
 11
-62.2451
 21
-35
  0
LINE
  8
0
 10
-62.2451
 20
-35
 11
-67.4451
 21
-35
  0
LINE
  8
0
 10
-67.4451
 20
-35
 11
-67.4451
 21
-38.3
  0
LINE
  8
0
 10
-67.4451
 20
-38.3
 11
-72.2451
 21
-38.3
  0
LINE
  8
0
 10
-72.2451
 20
-38.3
 11
-72.2451
 21
-35
  0
LINE
  8
0
 10
-72.2451
 20
-35
 11
-77.7627
 21
-35
  0
LINE
  8
0
 10
-77.7627
 20
-35
 11
-77.7627
 21
-42.5
  0
LINE
  8
0
 10
-77.7627
 20
-42.5
 11
-77.7727
 21
-42.5
  0
LINE
  8
0
 10
-77.7727
 20
-42.5
 11
-77.7727
 21
-35
  0
LINE
  8
0
 10
-77.7727
 20
-35
 11
-81.7627
 21
-35
  0
LINE
  8
0
 10
-81.7627
 20
-35
 11
-81.7627
 21
-42.5
  0
LINE
  8
0
 10
-81.7627
 20
-42.5
 11
-81.7727
 21
-42.5
  0
LINE
  8
0
 10
-81.7727
 20
-42.5
 11
-81.7727
 21
-35
  0
LINE
  8
0
 10
-81.7727
 20
-35
 11
-85.7627
 21
-35
  0
LINE
  8
0
 10
-85.7627
 20
-35
 11
-85.7627
 21
-42.5
  0
LINE
  8
0
 10
-85.7627
 20
-42.5
 11
-85.7727
 21
-42.5
  0
LINE
  8
0
 10
-85.7727
 20
-42.5
 11
-85.7727
 21
-35
  0
LINE
  8
0
 10
-85.7727
 20
-35
 11
-89.7627
 21
-35
  0
LINE
  8
0
 10
-89.7627
 20
-35
 11
-89.7627
 21
-42.5
  0
LINE
  8
0
 10
-89.7627
 20
-42.5
 11
-89.7727
 21
-42.5
  0
LINE
  8
0
 10
-89.7727
 20
-42.5
 11
-89.7727
 21
-35
  0
LINE
  8
0
 10
-89.7727
 20
-35
 11
-93.7627
 21
-35
  0
LINE
  8
0
 10
-93.7627
 20
-35
 11
-93.7627
 21
-42.5
  0
LINE
  8
0
 10
-93.7627
 20
-42.5
 11
-93.7727
 21
-42.5
  0
LINE
  8
0
 10
-93.7727
 20
-42.5
 11
-93.7727
 21
-35
  0
LINE
  8
0
 10
-93.7727
 20
-35
 11
-97.7627
 21
-35
  0
LINE
  8
0
 10
-97.7627
 20
-35
 11
-97.7627
 21
-42.5
  0
LINE
  8
0
 10
-97.7627
 20
-42.5
 11
-97.7727
 21
-42.5
  0
LINE
  8
0
 10
-97.7727
 20
-42.5
 11
-97.7727
 21
-35
  0
LINE
  8
0
 10
-97.7727
 20
-35
 11
-101.763
 21
-35
  0
LINE
  8
0
 10
-101.763
 20
-35
 11
-101.763
 21
-42.5
  0
LINE
  8
0
 10
-101.763
 20
-42.5
 11
-101.773
 21
-42.5
  0
LINE
  8
0
 10
-101.773
 20
-42.5
 11
-101.773
 21
-35
  0
LINE
  8
0
 10
-101.773
 20
-35
 11
-107.29
 21
-35
  0
LINE
  8
0
 10
-107.29
 20
-35
 11
-107.29
 21
-38.3
  0
LINE
  8
0
 10
-107.29
 20
-38.3
 11
-112.09
 21
-38.3
  0
LINE
  8
0
 10
-112.09
 20
-38.3
 11
-112.09
 21
-35
  0
LINE
  8
0
 10
-112.09
 20
-35
 11
-117.29
 21
-35
  0
LINE
  8
0
 10
-117.29
 20
-35
 11
-117.29
 21
-38.3
  0
LINE
  8
0
 10
-117.29
 20
-38.3
 11
-118.09
 21
-38.3
  0
LINE
  8
0
 10
-118.09
 20
-38.3
 11
-118.09
 21
-42.4
  0
LINE
  8
0
 10
-118.09
 20
-42.4
 11
-121.39
 21
-42.4
  0
LINE
  8
0
 10
-121.39
 20
-42.4
 11
-121.39
 21
-47.6
  0
LINE
  8
0
 10
-121.39
 20
-47.6
 11
-118.09
 21
-47.6
  0
LINE
  8
0
 10
-118.09
 20
-47.6
 11
-118.09
 21
-51.7
  0
LINE
  8
0
 10
-118.09
 20
-51.7
 11
-117.29
 21
-51.7
  0
LINE
  8
0
 10
-117.29
 20
-51.7
 11
-117.29
 21
-55
  0
LINE
  8
0
 10
-117.29
 20
-55
 11
-112.09
 21
-55
  0
LINE
  8
0
 10
-112.09
 20
-55
 11
-112.09
 21
-51.7
  0
LINE
  8
0
 10
-35.9276
 20
-52.5
 11
-35.9276
 21
-37.5
  0
LINE
  8
0
 10
-35.9276
 20
-37.5
 11
-35.9176
 21
-37.5
  0
LINE
  8
0
 10
-35.9176
 20
-37.5
 11
-35.9176
 21
-52.5
  0
LINE
  8
0
 10
-35.9176
 20
-52.5
 11
-35.9276
 21
-52.5
  0
LINE
  8
0
 10
-83.7727
 20
-52.5
 11
-83.7727
 21
-37.5
  0
LINE
  8
0
 10
-83.7727
 20
-37.5
 11
-83.7627
 21
-37.5
  0
LINE
  8
0
 10
-83.7627
 20
-37.5
 11
-83.7627
 21
-52.5
  0
LINE
  8
0
 10
-83.7627
 20
-52.5
 11
-83.7727
 21
-52.5
  0
LINE
  8
0
 10
-43.9276
 20
-52.5
 11
-43.9276
 21
-37.5
  0
LINE
  8
0
 10
-43.9276
 20
-37.5
 11
-43.9176
 21
-37.5
  0
LINE
  8
0
 10
-43.9176
 20
-37.5
 11
-43.9176
 21
-52.5
  0
LINE
  8
0
 10
-43.9176
 20
-52.5
 11
-43.9276
 21
-52.5
  0
LINE
  8
0
 10
-15.9276
 20
-52.5
 11
-15.9276
 21
-37.5
  0
LINE
  8
0
 10
-15.9276
 20
-37.5
 11
-15.9176
 21
-37.5
  0
LINE
  8
0
 10
-15.9176
 20
-37.5
 11
-15.9176
 21
-52.5
  0
LINE
  8
0
 10
-15.9176
 20
-52.5
 11
-15.9276
 21
-52.5
  0
LINE
  8
0
 10
-19.9276
 20
-52.5
 11
-19.9276
 21
-37.5
  0
LINE
  8
0
 10
-19.9276
 20
-37.5
 11
-19.9176
 21
-37.5
  0
LINE
  8
0
 10
-19.9176
 20
-37.5
 11
-19.9176
 21
-52.5
  0
LINE
  8
0
 10
-19.9176
 20
-52.5
 11
-19.9276
 21
-52.5
  0
LINE
  8
0
 10
-87.7727
 20
-52.5
 11
-87.7727
 21
-37.5
  0
LINE
  8
0
 10
-87.7727
 20
-37.5
 11
-87.7627
 21
-37.5
  0
LINE
  8
0
 10
-87.7627
 20
-37.5
 11
-87.7627
 21
-52.5
  0
LINE
  8
0
 10
-87.7627
 20
-52.5
 11
-87.7727
 21
-52.5
  0
LINE
  8
0
 10
87.7627
 20
-52.5
 11
87.7627
 21
-37.5
  0
LINE
  8
0
 10
87.7627
 20
-37.5
 11
87.7727
 21
-37.5
  0
LINE
  8
0
 10
87.7727
 20
-37.5
 11
87.7727
 21
-52.5
  0
LINE
  8
0
 10
87.7727
 20
-52.5
 11
87.7627
 21
-52.5
  0
LINE
  8
0
 10
-91.7727
 20
-52.5
 11
-91.7727
 21
-37.5
  0
LINE
  8
0
 10
-91.7727
 20
-37.5
 11
-91.7627
 21
-37.5
  0
LINE
  8
0
 10
-91.7627
 20
-37.5
 11
-91.7627
 21
-52.5
  0
LINE
  8
0
 10
-91.7627
 20
-52.5
 11
-91.7727
 21
-52.5
  0
LINE
  8
0
 10
-99.7727
 20
-52.5
 11
-99.7727
 21
-37.5
  0
LINE
  8
0
 10
-99.7727
 20
-37.5
 11
-99.7627
 21
-37.5
  0
LINE
  8
0
 10
-99.7627
 20
-37.5
 11
-99.7627
 21
-52.5
  0
LINE
  8
0
 10
-99.7627
 20
-52.5
 11
-99.7727
 21
-52.5
  0
LINE
  8
0
 10
19.9176
 20
-52.5
 11
19.9176
 21
-37.5
  0
LINE
  8
0
 10
19.9176
 20
-37.5
 11
19.9276
 21
-37.5
  0
LINE
  8
0
 10
19.9276
 20
-37.5
 11
19.9276
 21
-52.5
  0
LINE
  8
0
 10
19.9276
 20
-52.5
 11
19.9176
 21
-52.5
  0
LINE
  8
0
 10
27.9176
 20
-52.5
 11
27.9176
 21
-37.5
  0
LINE
  8
0
 10
27.9176
 20
-37.5
 11
27.9276
 21
-37.5
  0
LINE
  8
0
 10
27.9276
 20
-37.5
 11
27.9276
 21
-52.5
  0
LINE
  8
0
 10
27.9276
 20
-52.5
 11
27.9176
 21
-52.5
  0
LINE
  8
0
 10
31.9176
 20
-52.5
 11
31.9176
 21
-37.5
  0
LINE
  8
0
 10
31.9176
 20
-37.5
 11
31.9276
 21
-37.5
  0
LINE
  8
0
 10
31.9276
 20
-37.5
 11
31.9276
 21
-52.5
  0
LINE
  8
0
 10
31.9276
 20
-52.5
 11
31.9176
 21
-52.5
  0
LINE
  8
0
 10
35.9176
 20
-52.5
 11
35.9176
 21
-37.5
  0
LINE
  8
0
 10
35.9176
 20
-37.5
 11
35.9276
 21
-37.5
  0
LINE
  8
0
 10
35.9276
 20
-37.5
 11
35.9276
 21
-52.5
  0
LINE
  8
0
 10
35.9276
 20
-52.5
 11
35.9176
 21
-52.5
  0
LINE
  8
0
 10
39.9176
 20
-52.5
 11
39.9176
 21
-37.5
  0
LINE
  8
0
 10
39.9176
 20
-37.5
 11
39.9276
 21
-37.5
  0
LINE
  8
0
 10
39.9276
 20
-37.5
 11
39.9276
 21
-52.5
  0
LINE
  8
0
 10
39.9276
 20
-52.5
 11
39.9176
 21
-52.5
  0
LINE
  8
0
 10
43.9176
 20
-52.5
 11
43.9176
 21
-37.5
  0
LINE
  8
0
 10
43.9176
 20
-37.5
 11
43.9276
 21
-37.5
  0
LINE
  8
0
 10
43.9276
 20
-37.5
 11
43.9276
 21
-52.5
  0
LINE
  8
0
 10
43.9276
 20
-52.5
 11
43.9176
 21
-52.5
  0
LINE
  8
0
 10
15.9176
 20
-52.5
 11
15.9176
 21
-37.5
  0
LINE
  8
0
 10
15.9176
 20
-37.5
 11
15.9276
 21
-37.5
  0
LINE
  8
0
 10
15.9276
 20
-37.5
 11
15.9276
 21
-52.5
  0
LINE
  8
0
 10
15.9276
 20
-52.5
 11
15.9176
 21
-52.5
  0
LINE
  8
0
 10
23.9176
 20
-52.5
 11
23.9176
 21
-37.5
  0
LINE
  8
0
 10
23.9176
 20
-37.5
 11
23.9276
 21
-37.5
  0
LINE
  8
0
 10
23.9276
 20
-37.5
 11
23.9276
 21
-52.5
  0
LINE
  8
0
 10
23.9276
 20
-52.5
 11
23.9176
 21
-52.5
  0
LINE
  8
0
 10
99.7627
 20
-52.5
 11
99.7627
 21
-37.5
  0
LINE
  8
0
 10
99.7627
 20
-37.5
 11
99.7727
 21
-37.5
  0
LINE
  8
0
 10
99.7727
 20
-37.5
 11
99.7727
 21
-52.5
  0
LINE
  8
0
 10
99.7727
 20
-52.5
 11
99.7627
 21
-52.5
  0
LINE
  8
0
 10
95.7627
 20
-52.5
 11
95.7627
 21
-37.5
  0
LINE
  8
0
 10
95.7627
 20
-37.5
 11
95.7727
 21
-37.5
  0
LINE
  8
0
 10
95.7727
 20
-37.5
 11
95.7727
 21
-52.5
  0
LINE
  8
0
 10
95.7727
 20
-52.5
 11
95.7627
 21
-52.5
  0
LINE
  8
0
 10
91.7627
 20
-52.5
 11
91.7627
 21
-37.5
  0
LINE
  8
0
 10
91.7627
 20
-37.5
 11
91.7727
 21
-37.5
  0
LINE
  8
0
 10
91.7727
 20
-37.5
 11
91.7727
 21
-52.5
  0
LINE
  8
0
 10
91.7727
 20
-52.5
 11
91.7627
 21
-52.5
  0
LINE
  8
0
 10
79.7627
 20
-52.5
 11
79.7627
 21
-37.5
  0
LINE
  8
0
 10
79.7627
 20
-37.5
 11
79.7727
 21
-37.5
  0
LINE
  8
0
 10
79.7727
 20
-37.5
 11
79.7727
 21
-52.5
  0
LINE
  8
0
 10
79.7727
 20
-52.5
 11
79.7627
 21
-52.5
  0
LINE
  8
0
 10
-75.7727
 20
-52.5
 11
-75.7727
 21
-37.5
  0
LINE
  8
0
 10
-75.7727
 20
-37.5
 11
-75.7627
 21
-37.5
  0
LINE
  8
0
 10
-75.7627
 20
-37.5
 11
-75.7627
 21
-52.5
  0
LINE
  8
0
 10
-75.7627
 20
-52.5
 11
-75.7727
 21
-52.5
  0
LINE
  8
0
 10
-39.9276
 20
-52.5
 11
-39.9276
 21
-37.5
  0
LINE
  8
0
 10
-39.9276
 20
-37.5
 11
-39.9176
 21
-37.5
  0
LINE
  8
0
 10
-39.9176
 20
-37.5
 11
-39.9176
 21
-52.5
  0
LINE
  8
0
 10
-39.9176
 20
-52.5
 11
-39.9276
 21
-52.5
  0
LINE
  8
0
 10
-31.9276
 20
-52.5
 11
-31.9276
 21
-37.5
  0
LINE
  8
0
 10
-31.9276
 20
-37.5
 11
-31.9176
 21
-37.5
  0
LINE
  8
0
 10
-31.9176
 20
-37.5
 11
-31.9176
 21
-52.5
  0
LINE
  8
0
 10
-31.9176
 20
-52.5
 11
-31.9276
 21
-52.5
  0
LINE
  8
0
 10
-27.9276
 20
-52.5
 11
-27.9276
 21
-37.5
  0
LINE
  8
0
 10
-27.9276
 20
-37.5
 11
-27.9176
 21
-37.5
  0
LINE
  8
0
 10
-27.9176
 20
-37.5
 11
-27.9176
 21
-52.5
  0
LINE
  8
0
 10
-27.9176
 20
-52.5
 11
-27.9276
 21
-52.5
  0
LINE
  8
0
 10
-23.9276
 20
-52.5
 11
-23.9276
 21
-37.5
  0
LINE
  8
0
 10
-23.9276
 20
-37.5
 11
-23.9176
 21
-37.5
  0
LINE
  8
0
 10
-23.9176
 20
-37.5
 11
-23.9176
 21
-52.5
  0
LINE
  8
0
 10
-23.9176
 20
-52.5
 11
-23.9276
 21
-52.5
  0
LINE
  8
0
 10
83.7627
 20
-52.5
 11
83.7627
 21
-37.5
  0
LINE
  8
0
 10
83.7627
 20
-37.5
 11
83.7727
 21
-37.5
  0
LINE
  8
0
 10
83.7727
 20
-37.5
 11
83.7727
 21
-52.5
  0
LINE
  8
0
 10
83.7727
 20
-52.5
 11
83.7627
 21
-52.5
  0
LINE
  8
0
 10
-103.773
 20
-52.5
 11
-103.773
 21
-37.5
  0
LINE
  8
0
 10
-103.773
 20
-37.5
 11
-103.763
 21
-37.5
  0
LINE
  8
0
 10
-103.763
 20
-37.5
 11
-103.763
 21
-52.5
  0
LINE
  8
0
 10
-103.763
 20
-52.5
 11
-103.773
 21
-52.5
  0
LINE
  8
0
 10
-95.7727
 20
-52.5
 11
-95.7727
 21
-37.5
  0
LINE
  8
0
 10
-95.7727
 20
-37.5
 11
-95.7627
 21
-37.5
  0
LINE
  8
0
 10
-95.7627
 20
-37.5
 11
-95.7627
 21
-52.5
  0
LINE
  8
0
 10
-95.7627
 20
-52.5
 11
-95.7727
 21
-52.5
  0
LINE
  8
0
 10
75.7627
 20
-52.5
 11
75.7627
 21
-37.5
  0
LINE
  8
0
 10
75.7627
 20
-37.5
 11
75.7727
 21
-37.5
  0
LINE
  8
0
 10
75.7727
 20
-37.5
 11
75.7727
 21
-52.5
  0
LINE
  8
0
 10
75.7727
 20
-52.5
 11
75.7627
 21
-52.5
  0
LINE
  8
0
 10
103.763
 20
-52.5
 11
103.763
 21
-37.5
  0
LINE
  8
0
 10
103.763
 20
-37.5
 11
103.773
 21
-37.5
  0
LINE
  8
0
 10
103.773
 20
-37.5
 11
103.773
 21
-52.5
  0
LINE
  8
0
 10
103.773
 20
-52.5
 11
103.763
 21
-52.5
  0
LINE
  8
0
 10
-79.7727
 20
-52.5
 11
-79.7727
 21
-37.5
  0
LINE
  8
0
 10
-79.7727
 20
-37.5
 11
-79.7627
 21
-37.5
  0
LINE
  8
0
 10
-79.7627
 20
-37.5
 11
-79.7627
 21
-52.5
  0
LINE
  8
0
 10
-79.7627
 20
-52.5
 11
-79.7727
 21
-52.5
  0
LINE
  8
0
 10
-7.39999
 20
-122.2
 11
-2.59999
 21
-122.2
  0
LINE
  8
0
 10
-2.59999
 20
-122.2
 11
-2.59999
 21
-125.5
  0
LINE
  8
0
 10
-2.59999
 20
-125.5
 11
2.59998
 21
-125.5
  0
LINE
  8
0
 10
2.59998
 20
-125.5
 11
2.59998
 21
-122.2
  0
LINE
  8
0
 10
2.59998
 20
-122.2
 11
7.39998
 21
-122.2
  0
LINE
  8
0
 10
7.39998
 20
-122.2
 11
7.39998
 21
-125.5
  0
LINE
  8
0
 10
7.39998
 20
-125.5
 11
12.6
 21
-125.5
  0
LINE
  8
0
 10
12.6
 20
-125.5
 11
12.6
 21
-122.2
  0
LINE
  8
0
 10
12.6
 20
-122.2
 11
15
 21
-122.2
  0
LINE
  8
0
 10
15
 20
-122.2
 11
15
 21
-122.009
  0
LINE
  8
0
 10
15
 20
-122.009
 11
16.7352
 21
-122.009
  0
LINE
  8
0
 10
16.7352
 20
-122.009
 11
20.1297
 21
-121.288
  0
LINE
  8
0
 10
20.1297
 20
-121.288
 11
23.3
 21
-119.876
  0
LINE
  8
0
 10
23.3
 20
-119.876
 11
26.1076
 21
-117.836
  0
LINE
  8
0
 10
26.1076
 20
-117.836
 11
28.4297
 21
-115.257
  0
LINE
  8
0
 10
28.4297
 20
-115.257
 11
30.1648
 21
-112.252
  0
LINE
  8
0
 10
30.1648
 20
-112.252
 11
31.2372
 21
-108.951
  0
LINE
  8
0
 10
31.2372
 20
-108.951
 11
31.6
 21
-105.5
  0
LINE
  8
0
 10
31.6
 20
-105.5
 11
31.7
 21
-105.5
  0
LINE
  8
0
 10
31.7
 20
-105.5
 11
31.7
 21
-103.1
  0
LINE
  8
0
 10
31.7
 20
-103.1
 11
35
 21
-103.1
  0
LINE
  8
0
 10
35
 20
-103.1
 11
35
 21
-97.9
  0
LINE
  8
0
 10
35
 20
-97.9
 11
31.7
 21
-97.9
  0
LINE
  8
0
 10
31.7
 20
-97.9
 11
31.7
 21
-93.1
  0
LINE
  8
0
 10
31.7
 20
-93.1
 11
35
 21
-93.1
  0
LINE
  8
0
 10
35
 20
-93.1
 11
35
 21
-87.9
  0
LINE
  8
0
 10
35
 20
-87.9
 11
31.7
 21
-87.9
  0
LINE
  8
0
 10
31.7
 20
-87.9
 11
31.7
 21
-83.1
  0
LINE
  8
0
 10
31.7
 20
-83.1
 11
35
 21
-83.1
  0
LINE
  8
0
 10
35
 20
-83.1
 11
35
 21
-77.9
  0
LINE
  8
0
 10
35
 20
-77.9
 11
31.7
 21
-77.9
  0
LINE
  8
0
 10
31.7
 20
-77.9
 11
31.7
 21
-75.5
  0
LINE
  8
0
 10
31.7
 20
-75.5
 11
31.6
 21
-75.5
  0
LINE
  8
0
 10
31.6
 20
-75.5
 11
31.2372
 21
-72.0487
  0
LINE
  8
0
 10
31.2372
 20
-72.0487
 11
30.1648
 21
-68.7482
  0
LINE
  8
0
 10
30.1648
 20
-68.7482
 11
28.4297
 21
-65.7428
  0
LINE
  8
0
 10
28.4297
 20
-65.7428
 11
26.1076
 21
-63.1638
  0
LINE
  8
0
 10
26.1076
 20
-63.1638
 11
23.3
 21
-61.124
  0
LINE
  8
0
 10
23.3
 20
-61.124
 11
20.1297
 21
-59.7125
  0
LINE
  8
0
 10
20.1297
 20
-59.7125
 11
16.7352
 21
-58.991
  0
LINE
  8
0
 10
16.7352
 20
-58.991
 11
15
 21
-58.991
  0
LINE
  8
0
 10
15
 20
-58.991
 11
15
 21
-58.8
  0
LINE
  8
0
 10
15
 20
-58.8
 11
12.6
 21
-58.8
  0
LINE
  8
0
 10
12.6
 20
-58.8
 11
12.6
 21
-55.5
  0
LINE
  8
0
 10
12.6
 20
-55.5
 11
7.39999
 21
-55.5
  0
LINE
  8
0
 10
7.39999
 20
-55.5
 11
7.39999
 21
-58.8
  0
LINE
  8
0
 10
7.39999
 20
-58.8
 11
2.59999
 21
-58.8
  0
LINE
  8
0
 10
2.59999
 20
-58.8
 11
2.59999
 21
-55.5
  0
LINE
  8
0
 10
2.59999
 20
-55.5
 11
-2.59999
 21
-55.5
  0
LINE
  8
0
 10
-2.59999
 20
-55.5
 11
-2.59999
 21
-58.8
  0
LINE
  8
0
 10
-2.59999
 20
-58.8
 11
-7.39999
 21
-58.8
  0
LINE
  8
0
 10
-7.39999
 20
-58.8
 11
-7.39999
 21
-55.5
  0
LINE
  8
0
 10
-7.39999
 20
-55.5
 11
-12.6
 21
-55.5
  0
LINE
  8
0
 10
-12.6
 20
-55.5
 11
-12.6
 21
-58.8
  0
LINE
  8
0
 10
-12.6
 20
-58.8
 11
-15
 21
-58.8
  0
LINE
  8
0
 10
-15
 20
-58.8
 11
-15
 21
-58.991
  0
LINE
  8
0
 10
-15
 20
-58.991
 11
-16.7352
 21
-58.991
  0
LINE
  8
0
 10
-16.7352
 20
-58.991
 11
-20.1297
 21
-59.7125
  0
LINE
  8
0
 10
-20.1297
 20
-59.7125
 11
-23.3
 21
-61.124
  0
LINE
  8
0
 10
-23.3
 20
-61.124
 11
-26.1076
 21
-63.1638
  0
LINE
  8
0
 10
-26.1076
 20
-63.1638
 11
-28.4297
 21
-65.7428
  0
LINE
  8
0
 10
-28.4297
 20
-65.7428
 11
-30.1648
 21
-68.7482
  0
LINE
  8
0
 10
-30.1648
 20
-68.7482
 11
-31.2372
 21
-72.0487
  0
LINE
  8
0
 10
-31.2372
 20
-72.0487
 11
-31.6
 21
-75.5
  0
LINE
  8
0
 10
-31.6
 20
-75.5
 11
-31.7
 21
-75.5
  0
LINE
  8
0
 10
-31.7
 20
-75.5
 11
-31.7
 21
-77.9
  0
LINE
  8
0
 10
-31.7
 20
-77.9
 11
-35
 21
-77.9
  0
LINE
  8
0
 10
-35
 20
-77.9
 11
-35
 21
-83.1
  0
LINE
  8
0
 10
-35
 20
-83.1
 11
-31.7
 21
-83.1
  0
LINE
  8
0
 10
-31.7
 20
-83.1
 11
-31.7
 21
-87.9
  0
LINE
  8
0
 10
-31.7
 20
-87.9
 11
-35
 21
-87.9
  0
LINE
  8
0
 10
-35
 20
-87.9
 11
-35
 21
-93.1
  0
LINE
  8
0
 10
-35
 20
-93.1
 11
-31.7
 21
-93.1
  0
LINE
  8
0
 10
-31.7
 20
-93.1
 11
-31.7
 21
-97.9
  0
LINE
  8
0
 10
-31.7
 20
-97.9
 11
-35
 21
-97.9
  0
LINE
  8
0
 10
-35
 20
-97.9
 11
-35
 21
-103.1
  0
LINE
  8
0
 10
-35
 20
-103.1
 11
-31.7
 21
-103.1
  0
LINE
  8
0
 10
-31.7
 20
-103.1
 11
-31.7
 21
-105.5
  0
LINE
  8
0
 10
-31.7
 20
-105.5
 11
-31.6
 21
-105.5
  0
LINE
  8
0
 10
-31.6
 20
-105.5
 11
-31.2372
 21
-108.951
  0
LINE
  8
0
 10
-31.2372
 20
-108.951
 11
-30.1648
 21
-112.252
  0
LINE
  8
0
 10
-30.1648
 20
-112.252
 11
-28.4297
 21
-115.257
  0
LINE
  8
0
 10
-28.4297
 20
-115.257
 11
-26.1076
 21
-117.836
  0
LINE
  8
0
 10
-26.1076
 20
-117.836
 11
-23.3
 21
-119.876
  0
LINE
  8
0
 10
-23.3
 20
-119.876
 11
-20.1297
 21
-121.288
  0
LINE
  8
0
 10
-20.1297
 20
-121.288
 11
-16.7352
 21
-122.009
  0
LINE
  8
0
 10
-16.7352
 20
-122.009
 11
-15
 21
-122.009
  0
LINE
  8
0
 10
-15
 20
-122.009
 11
-15
 21
-122.2
  0
LINE
  8
0
 10
-15
 20
-122.2
 11
-12.6
 21
-122.2
  0
LINE
  8
0
 10
-12.6
 20
-122.2
 11
-12.6
 21
-125.5
  0
LINE
  8
0
 10
-12.6
 20
-125.5
 11
-7.39999
 21
-125.5
  0
LINE
  8
0
 10
-7.39999
 20
-125.5
 11
-7.39999
 21
-122.2
  0
ENDSEC
  0
SECTION
  2
OBJECTS
  0
DICTIONARY
  0
ENDSEC
  0
EOF
