  0
SECTION
  2
BLOCKS
  0
ENDSEC
  0
SECTION
  2
ENTITIES
  0
LINE
  8
0
 10
-11.9
 20
-36.2
 11
-4.09999
 21
-36.2
  0
LINE
  8
0
 10
-4.09999
 20
-36.2
 11
-4.09999
 21
-39.5
  0
LINE
  8
0
 10
-4.09999
 20
-39.5
 11
4.09998
 21
-39.5
  0
LINE
  8
0
 10
4.09998
 20
-39.5
 11
4.09998
 21
-36.2
  0
LINE
  8
0
 10
4.09998
 20
-36.2
 11
11.9
 21
-36.2
  0
LINE
  8
0
 10
11.9
 20
-36.2
 11
11.9
 21
-39.5
  0
LINE
  8
0
 10
11.9
 20
-39.5
 11
15
 21
-39.5
  0
LINE
  8
0
 10
15
 20
-39.5
 11
15
 21
-35.7958
  0
LINE
  8
0
 10
15
 20
-35.7958
 11
19.3254
 21
-34.8764
  0
LINE
  8
0
 10
19.3254
 20
-34.8764
 11
24.1
 21
-32.7506
  0
LINE
  8
0
 10
24.1
 20
-32.7506
 11
28.3283
 21
-29.6786
  0
LINE
  8
0
 10
28.3283
 20
-29.6786
 11
31.8254
 21
-25.7946
  0
LINE
  8
0
 10
31.8254
 20
-25.7946
 11
34.4386
 21
-21.2684
  0
LINE
  8
0
 10
34.4386
 20
-21.2684
 11
36.0537
 21
-16.2978
  0
LINE
  8
0
 10
36.0537
 20
-16.2978
 11
36.2426
 21
-14.5
  0
LINE
  8
0
 10
36.2426
 20
-14.5
 11
40
 21
-14.5
  0
LINE
  8
0
 10
40
 20
-14.5
 11
40
 21
-11.4
  0
LINE
  8
0
 10
40
 20
-11.4
 11
36.7
 21
-11.4
  0
LINE
  8
0
 10
36.7
 20
-11.4
 11
36.7
 21
-3.59998
  0
LINE
  8
0
 10
36.7
 20
-3.59998
 11
40
 21
-3.59998
  0
LINE
  8
0
 10
40
 20
-3.59998
 11
40
 21
4.59999
  0
LINE
  8
0
 10
40
 20
4.59999
 11
36.7
 21
4.59999
  0
LINE
  8
0
 10
36.7
 20
4.59999
 11
36.7
 21
12.4
  0
LINE
  8
0
 10
36.7
 20
12.4
 11
40
 21
12.4
  0
LINE
  8
0
 10
40
 20
12.4
 11
40
 21
15.5
  0
LINE
  8
0
 10
40
 20
15.5
 11
36.2426
 21
15.5
  0
LINE
  8
0
 10
36.2426
 20
15.5
 11
36.0537
 21
17.2978
  0
LINE
  8
0
 10
36.0537
 20
17.2978
 11
34.4386
 21
22.2684
  0
LINE
  8
0
 10
34.4386
 20
22.2684
 11
31.8254
 21
26.7946
  0
LINE
  8
0
 10
31.8254
 20
26.7946
 11
28.3283
 21
30.6786
  0
LINE
  8
0
 10
28.3283
 20
30.6786
 11
24.1
 21
33.7506
  0
LINE
  8
0
 10
24.1
 20
33.7506
 11
19.3254
 21
35.8764
  0
LINE
  8
0
 10
19.3254
 20
35.8764
 11
15
 21
36.7958
  0
LINE
  8
0
 10
15
 20
36.7958
 11
15
 21
40.5
  0
LINE
  8
0
 10
15
 20
40.5
 11
11.9
 21
40.5
  0
LINE
  8
0
 10
11.9
 20
40.5
 11
11.9
 21
37.2
  0
LINE
  8
0
 10
11.9
 20
37.2
 11
4.09999
 21
37.2
  0
LINE
  8
0
 10
4.09999
 20
37.2
 11
4.09999
 21
40.5
  0
LINE
  8
0
 10
4.09999
 20
40.5
 11
-4.09999
 21
40.5
  0
LINE
  8
0
 10
-4.09999
 20
40.5
 11
-4.09999
 21
37.2
  0
LINE
  8
0
 10
-4.09999
 20
37.2
 11
-11.9
 21
37.2
  0
LINE
  8
0
 10
-11.9
 20
37.2
 11
-11.9
 21
40.5
  0
LINE
  8
0
 10
-11.9
 20
40.5
 11
-15
 21
40.5
  0
LINE
  8
0
 10
-15
 20
40.5
 11
-15
 21
36.7958
  0
LINE
  8
0
 10
-15
 20
36.7958
 11
-19.3254
 21
35.8764
  0
LINE
  8
0
 10
-19.3254
 20
35.8764
 11
-24.1
 21
33.7506
  0
LINE
  8
0
 10
-24.1
 20
33.7506
 11
-28.3283
 21
30.6786
  0
LINE
  8
0
 10
-28.3283
 20
30.6786
 11
-31.8254
 21
26.7946
  0
LINE
  8
0
 10
-31.8254
 20
26.7946
 11
-34.4386
 21
22.2684
  0
LINE
  8
0
 10
-34.4386
 20
22.2684
 11
-36.0537
 21
17.2978
  0
LINE
  8
0
 10
-36.0537
 20
17.2978
 11
-36.2426
 21
15.5
  0
LINE
  8
0
 10
-36.2426
 20
15.5
 11
-40
 21
15.5
  0
LINE
  8
0
 10
-40
 20
15.5
 11
-40
 21
12.4
  0
LINE
  8
0
 10
-40
 20
12.4
 11
-36.7
 21
12.4
  0
LINE
  8
0
 10
-36.7
 20
12.4
 11
-36.7
 21
4.59999
  0
LINE
  8
0
 10
-36.7
 20
4.59999
 11
-40
 21
4.59999
  0
LINE
  8
0
 10
-40
 20
4.59999
 11
-40
 21
-3.59998
  0
LINE
  8
0
 10
-40
 20
-3.59998
 11
-36.7
 21
-3.59998
  0
LINE
  8
0
 10
-36.7
 20
-3.59998
 11
-36.7
 21
-11.4
  0
LINE
  8
0
 10
-36.7
 20
-11.4
 11
-40
 21
-11.4
  0
LINE
  8
0
 10
-40
 20
-11.4
 11
-40
 21
-14.5
  0
LINE
  8
0
 10
-40
 20
-14.5
 11
-36.2426
 21
-14.5
  0
LINE
  8
0
 10
-36.2426
 20
-14.5
 11
-36.0537
 21
-16.2978
  0
LINE
  8
0
 10
-36.0537
 20
-16.2978
 11
-34.4386
 21
-21.2684
  0
LINE
  8
0
 10
-34.4386
 20
-21.2684
 11
-31.8254
 21
-25.7946
  0
LINE
  8
0
 10
-31.8254
 20
-25.7946
 11
-28.3283
 21
-29.6786
  0
LINE
  8
0
 10
-28.3283
 20
-29.6786
 11
-24.1
 21
-32.7506
  0
LINE
  8
0
 10
-24.1
 20
-32.7506
 11
-19.3254
 21
-34.8764
  0
LINE
  8
0
 10
-19.3254
 20
-34.8764
 11
-15
 21
-35.7958
  0
LINE
  8
0
 10
-15
 20
-35.7958
 11
-15
 21
-39.5
  0
LINE
  8
0
 10
-15
 20
-39.5
 11
-11.9
 21
-39.5
  0
LINE
  8
0
 10
-11.9
 20
-39.5
 11
-11.9
 21
-36.2
  0
LINE
  8
0
 10
-5.89259
 20
-2.125
 11
-5.89259
 21
4.70699
  0
LINE
  8
0
 10
-5.89259
 20
4.70699
 11
-8.51759
 21
4.70699
  0
LINE
  8
0
 10
-8.51759
 20
4.70699
 11
-8.51759
 21
5.55499
  0
LINE
  8
0
 10
-8.51759
 20
5.55499
 11
-2.23759
 21
5.55499
  0
LINE
  8
0
 10
-2.23759
 20
5.55499
 11
-2.23759
 21
4.70699
  0
LINE
  8
0
 10
-2.23759
 20
4.70699
 11
-4.85959
 21
4.70699
  0
LINE
  8
0
 10
-4.85959
 20
4.70699
 11
-4.85959
 21
-2.125
  0
LINE
  8
0
 10
-4.85959
 20
-2.125
 11
-5.89259
 21
-2.125
  0
LINE
  8
0
 10
-0.856155
 20
-2.20355
 11
-1.38335
 21
-2.05524
  0
LINE
  8
0
 10
-1.38335
 20
-2.05524
 11
-1.83165
 21
-1.80806
  0
LINE
  8
0
 10
-1.83165
 20
-1.80806
 11
-2.2011
 21
-1.46199
  0
LINE
  8
0
 10
-2.2011
 20
-1.46199
 11
-2.48941
 21
-1.02211
  0
LINE
  8
0
 10
-2.48941
 20
-1.02211
 11
-2.69534
 21
-0.494492
  0
LINE
  8
0
 10
-2.69534
 20
-0.494492
 11
-2.81891
 21
0.12088
  0
LINE
  8
0
 10
-2.81891
 20
0.12088
 11
-2.86009
 21
0.82399
  0
LINE
  8
0
 10
-2.86009
 20
0.82399
 11
-2.6949
 21
2.1658
  0
LINE
  8
0
 10
-2.6949
 20
2.1658
 11
-2.19934
 21
3.12424
  0
LINE
  8
0
 10
-2.19934
 20
3.12424
 11
-1.37341
 21
3.69931
  0
LINE
  8
0
 10
-1.37341
 20
3.69931
 11
-0.217087
 21
3.89099
  0
LINE
  8
0
 10
-0.217087
 20
3.89099
 11
0.4142
 21
3.84424
  0
LINE
  8
0
 10
0.4142
 20
3.84424
 11
0.956146
 21
3.70399
  0
LINE
  8
0
 10
0.956146
 20
3.70399
 11
1.40871
 21
3.47025
  0
LINE
  8
0
 10
1.40871
 20
3.47025
 11
1.7719
 21
3.14299
  0
LINE
  8
0
 10
1.7719
 20
3.14299
 11
2.05101
 21
2.71793
  0
LINE
  8
0
 10
2.05101
 20
2.71793
 11
2.2504
 21
2.18974
  0
LINE
  8
0
 10
2.2504
 20
2.18974
 11
2.37001
 21
1.55843
  0
LINE
  8
0
 10
2.37001
 20
1.55843
 11
2.4099
 21
0.82399
  0
LINE
  8
0
 10
2.4099
 20
0.82399
 11
2.36732
 21
0.0961304
  0
LINE
  8
0
 10
2.36732
 20
0.0961304
 11
2.23964
 21
-0.532486
  0
LINE
  8
0
 10
2.23964
 20
-0.532486
 11
2.02682
 21
-1.06187
  0
LINE
  8
0
 10
2.02682
 20
-1.06187
 11
1.7289
 21
-1.49199
  0
LINE
  8
0
 10
1.7289
 20
-1.49199
 11
1.34982
 21
-1.82494
  0
LINE
  8
0
 10
1.34982
 20
-1.82494
 11
0.893646
 21
-2.06274
  0
LINE
  8
0
 10
0.893646
 20
-2.06274
 11
0.360321
 21
-2.20543
  0
LINE
  8
0
 10
0.360321
 20
-2.20543
 11
-0.250092
 21
-2.25299
  0
LINE
  8
0
 10
-0.250092
 20
-2.25299
 11
-0.856155
 21
-2.20355
  0
LINE
  8
0
 10
0.149323
 20
-1.49431
 11
0.496643
 21
-1.38724
  0
LINE
  8
0
 10
0.496643
 20
-1.38724
 11
0.780823
 21
-1.2088
  0
LINE
  8
0
 10
0.780823
 20
-1.2088
 11
1.00189
 21
-0.959
  0
LINE
  8
0
 10
1.00189
 20
-0.959
 11
1.16814
 21
-0.633423
  0
LINE
  8
0
 10
1.16814
 20
-0.633423
 11
1.2869
 21
-0.227737
  0
LINE
  8
0
 10
1.2869
 20
-0.227737
 11
1.35814
 21
0.258072
  0
LINE
  8
0
 10
1.35814
 20
0.258072
 11
1.3819
 21
0.82399
  0
LINE
  8
0
 10
1.3819
 20
0.82399
 11
1.35921
 21
1.39693
  0
LINE
  8
0
 10
1.35921
 20
1.39693
 11
1.29114
 21
1.88574
  0
LINE
  8
0
 10
1.29114
 20
1.88574
 11
1.1777
 21
2.29044
  0
LINE
  8
0
 10
1.1777
 20
2.29044
 11
1.01889
 21
2.61099
  0
LINE
  8
0
 10
1.01889
 20
2.61099
 11
0.806519
 21
2.85468
  0
LINE
  8
0
 10
0.806519
 20
2.85468
 11
0.532394
 21
3.02875
  0
LINE
  8
0
 10
0.532394
 20
3.02875
 11
0.196518
 21
3.13318
  0
LINE
  8
0
 10
0.196518
 20
3.13318
 11
-0.201096
 21
3.168
  0
LINE
  8
0
 10
-0.201096
 20
3.168
 11
-0.60228
 21
3.13249
  0
LINE
  8
0
 10
-0.60228
 20
3.13249
 11
-0.943848
 21
3.02599
  0
LINE
  8
0
 10
-0.943848
 20
3.02599
 11
-1.22578
 21
2.8485
  0
LINE
  8
0
 10
-1.22578
 20
2.8485
 11
-1.44809
 21
2.59999
  0
LINE
  8
0
 10
-1.44809
 20
2.59999
 11
-1.61653
 21
2.27599
  0
LINE
  8
0
 10
-1.61653
 20
2.27599
 11
-1.73685
 21
1.87199
  0
LINE
  8
0
 10
-1.73685
 20
1.87199
 11
-1.80904
 21
1.38799
  0
LINE
  8
0
 10
-1.80904
 20
1.38799
 11
-1.8331
 21
0.82399
  0
LINE
  8
0
 10
-1.8331
 20
0.82399
 11
-1.8094
 21
0.273514
  0
LINE
  8
0
 10
-1.8094
 20
0.273514
 11
-1.73834
 21
-0.203995
  0
LINE
  8
0
 10
-1.73834
 20
-0.203995
 11
-1.6199
 21
-0.60849
  0
LINE
  8
0
 10
-1.6199
 20
-0.60849
 11
-1.4541
 21
-0.939987
  0
LINE
  8
0
 10
-1.4541
 20
-0.939987
 11
-1.23703
 21
-1.19812
  0
LINE
  8
0
 10
-1.23703
 20
-1.19812
 11
-0.965851
 21
-1.38249
  0
LINE
  8
0
 10
-0.965851
 20
-1.38249
 11
-0.640533
 21
-1.49312
  0
LINE
  8
0
 10
-0.640533
 20
-1.49312
 11
-0.261093
 21
-1.53
  0
LINE
  8
0
 10
-0.261093
 20
-1.53
 11
0.149323
 21
-1.49431
  0
LINE
  8
0
 10
3.47075
 20
-4.42899
 11
3.47075
 21
2.562
  0
LINE
  8
0
 10
3.47075
 20
2.562
 11
3.46875
 21
2.97717
  0
LINE
  8
0
 10
3.46875
 20
2.97717
 11
3.46274
 21
3.31573
  0
LINE
  8
0
 10
3.46274
 20
3.31573
 11
3.45274
 21
3.57768
  0
LINE
  8
0
 10
3.45274
 20
3.57768
 11
3.43874
 21
3.76299
  0
LINE
  8
0
 10
3.43874
 20
3.76299
 11
4.38474
 21
3.76299
  0
LINE
  8
0
 10
4.38474
 20
3.76299
 11
4.39124
 21
3.71449
  0
LINE
  8
0
 10
4.39124
 20
3.71449
 11
4.41225
 21
3.44449
  0
LINE
  8
0
 10
4.41225
 20
3.44449
 11
4.43524
 21
2.97749
  0
LINE
  8
0
 10
4.43524
 20
2.97749
 11
4.43874
 21
2.83299
  0
LINE
  8
0
 10
4.43874
 20
2.83299
 11
4.46074
 21
2.83299
  0
LINE
  8
0
 10
4.46074
 20
2.83299
 11
4.60225
 21
3.08868
  0
LINE
  8
0
 10
4.60225
 20
3.08868
 11
4.76474
 21
3.30774
  0
LINE
  8
0
 10
4.76474
 20
3.30774
 11
4.94824
 21
3.49017
  0
LINE
  8
0
 10
4.94824
 20
3.49017
 11
5.15274
 21
3.63599
  0
LINE
  8
0
 10
5.15274
 20
3.63599
 11
5.3853
 21
3.74756
  0
LINE
  8
0
 10
5.3853
 20
3.74756
 11
5.65199
 21
3.82724
  0
LINE
  8
0
 10
5.65199
 20
3.82724
 11
5.9528
 21
3.87506
  0
LINE
  8
0
 10
5.9528
 20
3.87506
 11
6.28773
 21
3.89099
  0
LINE
  8
0
 10
6.28773
 20
3.89099
 11
6.79837
 21
3.84506
  0
LINE
  8
0
 10
6.79837
 20
3.84506
 11
7.24025
 21
3.70724
  0
LINE
  8
0
 10
7.24025
 20
3.70724
 11
7.61337
 21
3.47755
  0
LINE
  8
0
 10
7.61337
 20
3.47755
 11
7.91774
 21
3.15599
  0
LINE
  8
0
 10
7.91774
 20
3.15599
 11
8.15399
 21
2.73656
  0
LINE
  8
0
 10
8.15399
 20
2.73656
 11
8.32274
 21
2.21225
  0
LINE
  8
0
 10
8.32274
 20
2.21225
 11
8.424
 21
1.58305
  0
LINE
  8
0
 10
8.424
 20
1.58305
 11
8.45775
 21
0.848999
  0
LINE
  8
0
 10
8.45775
 20
0.848999
 11
8.32211
 21
-0.508118
  0
LINE
  8
0
 10
8.32211
 20
-0.508118
 11
7.91524
 21
-1.47749
  0
LINE
  8
0
 10
7.91524
 20
-1.47749
 11
7.23712
 21
-2.05911
  0
LINE
  8
0
 10
7.23712
 20
-2.05911
 11
6.28773
 21
-2.25299
  0
LINE
  8
0
 10
6.28773
 20
-2.25299
 11
5.66168
 21
-2.18861
  0
LINE
  8
0
 10
5.66168
 20
-2.18861
 11
5.14749
 21
-1.9955
  0
LINE
  8
0
 10
5.14749
 20
-1.9955
 11
4.74518
 21
-1.67361
  0
LINE
  8
0
 10
4.74518
 20
-1.67361
 11
4.45474
 21
-1.22299
  0
LINE
  8
0
 10
4.45474
 20
-1.22299
 11
4.42775
 21
-1.22299
  0
LINE
  8
0
 10
4.42775
 20
-1.22299
 11
4.43736
 21
-1.29655
  0
LINE
  8
0
 10
4.43736
 20
-1.29655
 11
4.44424
 21
-1.47424
  0
LINE
  8
0
 10
4.44424
 20
-1.47424
 11
4.44836
 21
-1.75606
  0
LINE
  8
0
 10
4.44836
 20
-1.75606
 11
4.44974
 21
-2.142
  0
LINE
  8
0
 10
4.44974
 20
-2.142
 11
4.44974
 21
-4.42899
  0
LINE
  8
0
 10
4.44974
 20
-4.42899
 11
3.47075
 21
-4.42899
  0
LINE
  8
0
 10
6.36794
 20
-1.49619
 11
6.65948
 21
-1.39474
  0
LINE
  8
0
 10
6.65948
 20
-1.39474
 11
6.90143
 21
-1.22568
  0
LINE
  8
0
 10
6.90143
 20
-1.22568
 11
7.09375
 21
-0.988998
  0
LINE
  8
0
 10
7.09375
 20
-0.988998
 11
7.24074
 21
-0.672623
  0
LINE
  8
0
 10
7.24074
 20
-0.672623
 11
7.34575
 21
-0.264496
  0
LINE
  8
0
 10
7.34575
 20
-0.264496
 11
7.40874
 21
0.235382
  0
LINE
  8
0
 10
7.40874
 20
0.235382
 11
7.42975
 21
0.826996
  0
LINE
  8
0
 10
7.42975
 20
0.826996
 11
7.40894
 21
1.40369
  0
LINE
  8
0
 10
7.40894
 20
1.40369
 11
7.3465
 21
1.89174
  0
LINE
  8
0
 10
7.3465
 20
1.89174
 11
7.24243
 21
2.29118
  0
LINE
  8
0
 10
7.24243
 20
2.29118
 11
7.09674
 21
2.60199
  0
LINE
  8
0
 10
7.09674
 20
2.60199
 11
6.90569
 21
2.83517
  0
LINE
  8
0
 10
6.90569
 20
2.83517
 11
6.6655
 21
3.00174
  0
LINE
  8
0
 10
6.6655
 20
3.00174
 11
6.37617
 21
3.10168
  0
LINE
  8
0
 10
6.37617
 20
3.10168
 11
6.03773
 21
3.13499
  0
LINE
  8
0
 10
6.03773
 20
3.13499
 11
5.76161
 21
3.11949
  0
LINE
  8
0
 10
5.76161
 20
3.11949
 11
5.51724
 21
3.073
  0
LINE
  8
0
 10
5.51724
 20
3.073
 11
5.30461
 21
2.9955
  0
LINE
  8
0
 10
5.30461
 20
2.9955
 11
5.12375
 21
2.88699
  0
LINE
  8
0
 10
5.12375
 20
2.88699
 11
4.96861
 21
2.74612
  0
LINE
  8
0
 10
4.96861
 20
2.74612
 11
4.83324
 21
2.5705
  0
LINE
  8
0
 10
4.83324
 20
2.5705
 11
4.71762
 21
2.36012
  0
LINE
  8
0
 10
4.71762
 20
2.36012
 11
4.62175
 21
2.11499
  0
LINE
  8
0
 10
4.62175
 20
2.11499
 11
4.54649
 21
1.83318
  0
LINE
  8
0
 10
4.54649
 20
1.83318
 11
4.49274
 21
1.51175
  0
LINE
  8
0
 10
4.49274
 20
1.51175
 11
4.46049
 21
1.15068
  0
LINE
  8
0
 10
4.46049
 20
1.15068
 11
4.44974
 21
0.75
  0
LINE
  8
0
 10
4.44974
 20
0.75
 11
4.47293
 21
0.203445
  0
LINE
  8
0
 10
4.47293
 20
0.203445
 11
4.5425
 21
-0.266235
  0
LINE
  8
0
 10
4.5425
 20
-0.266235
 11
4.65843
 21
-0.659058
  0
LINE
  8
0
 10
4.65843
 20
-0.659058
 11
4.82074
 21
-0.974991
  0
LINE
  8
0
 10
4.82074
 20
-0.974991
 11
5.03525
 21
-1.2178
  0
LINE
  8
0
 10
5.03525
 20
-1.2178
 11
5.30774
 21
-1.39124
  0
LINE
  8
0
 10
5.30774
 20
-1.39124
 11
5.63824
 21
-1.4953
  0
LINE
  8
0
 10
5.63824
 20
-1.4953
 11
6.02675
 21
-1.53
  0
LINE
  8
0
 10
6.02675
 20
-1.53
 11
6.36794
 21
-1.49619
  0
LINE
  8
0
 10
-126.44
 20
-136.7
 11
-123.545
 21
-136.7
  0
LINE
  8
0
 10
-123.545
 20
-136.7
 11
-123.545
 21
-140
  0
LINE
  8
0
 10
-123.545
 20
-140
 11
-120.91
 21
-140
  0
LINE
  8
0
 10
-120.91
 20
-140
 11
-120.91
 21
-130
  0
LINE
  8
0
 10
-120.91
 20
-130
 11
-120.9
 21
-130
  0
LINE
  8
0
 10
-120.9
 20
-130
 11
-120.9
 21
-140
  0
LINE
  8
0
 10
-120.9
 20
-140
 11
-116.91
 21
-140
  0
LINE
  8
0
 10
-116.91
 20
-140
 11
-116.91
 21
-130
  0
LINE
  8
0
 10
-116.91
 20
-130
 11
-116.9
 21
-130
  0
LINE
  8
0
 10
-116.9
 20
-130
 11
-116.9
 21
-140
  0
LINE
  8
0
 10
-116.9
 20
-140
 11
-112.91
 21
-140
  0
LINE
  8
0
 10
-112.91
 20
-140
 11
-112.91
 21
-130
  0
LINE
  8
0
 10
-112.91
 20
-130
 11
-112.9
 21
-130
  0
LINE
  8
0
 10
-112.9
 20
-130
 11
-112.9
 21
-140
  0
LINE
  8
0
 10
-112.9
 20
-140
 11
-108.91
 21
-140
  0
LINE
  8
0
 10
-108.91
 20
-140
 11
-108.91
 21
-130
  0
LINE
  8
0
 10
-108.91
 20
-130
 11
-108.9
 21
-130
  0
LINE
  8
0
 10
-108.9
 20
-130
 11
-108.9
 21
-140
  0
LINE
  8
0
 10
-108.9
 20
-140
 11
-104.91
 21
-140
  0
LINE
  8
0
 10
-104.91
 20
-140
 11
-104.91
 21
-130
  0
LINE
  8
0
 10
-104.91
 20
-130
 11
-104.9
 21
-130
  0
LINE
  8
0
 10
-104.9
 20
-130
 11
-104.9
 21
-140
  0
LINE
  8
0
 10
-104.9
 20
-140
 11
-100.91
 21
-140
  0
LINE
  8
0
 10
-100.91
 20
-140
 11
-100.91
 21
-130
  0
LINE
  8
0
 10
-100.91
 20
-130
 11
-100.9
 21
-130
  0
LINE
  8
0
 10
-100.9
 20
-130
 11
-100.9
 21
-140
  0
LINE
  8
0
 10
-100.9
 20
-140
 11
-96.9099
 21
-140
  0
LINE
  8
0
 10
-96.9099
 20
-140
 11
-96.9099
 21
-130
  0
LINE
  8
0
 10
-96.9099
 20
-130
 11
-96.8999
 21
-130
  0
LINE
  8
0
 10
-96.8999
 20
-130
 11
-96.8999
 21
-140
  0
LINE
  8
0
 10
-96.8999
 20
-140
 11
-92.9099
 21
-140
  0
LINE
  8
0
 10
-92.9099
 20
-140
 11
-92.9099
 21
-130
  0
LINE
  8
0
 10
-92.9099
 20
-130
 11
-92.8999
 21
-130
  0
LINE
  8
0
 10
-92.8999
 20
-130
 11
-92.8999
 21
-140
  0
LINE
  8
0
 10
-92.8999
 20
-140
 11
-88.9099
 21
-140
  0
LINE
  8
0
 10
-88.9099
 20
-140
 11
-88.9099
 21
-130
  0
LINE
  8
0
 10
-88.9099
 20
-130
 11
-88.8999
 21
-130
  0
LINE
  8
0
 10
-88.8999
 20
-130
 11
-88.8999
 21
-140
  0
LINE
  8
0
 10
-88.8999
 20
-140
 11
-84.9099
 21
-140
  0
LINE
  8
0
 10
-84.9099
 20
-140
 11
-84.9099
 21
-130
  0
LINE
  8
0
 10
-84.9099
 20
-130
 11
-84.8999
 21
-130
  0
LINE
  8
0
 10
-84.8999
 20
-130
 11
-84.8999
 21
-140
  0
LINE
  8
0
 10
-84.8999
 20
-140
 11
-84.2649
 21
-140
  0
LINE
  8
0
 10
-84.2649
 20
-140
 11
-84.2649
 21
-136.7
  0
LINE
  8
0
 10
-84.2649
 20
-136.7
 11
-81.3699
 21
-136.7
  0
LINE
  8
0
 10
-81.3699
 20
-136.7
 11
-81.3699
 21
-140
  0
LINE
  8
0
 10
-81.3699
 20
-140
 11
-73.1699
 21
-140
  0
LINE
  8
0
 10
-73.1699
 20
-140
 11
-73.1699
 21
-136.7
  0
LINE
  8
0
 10
-73.1699
 20
-136.7
 11
-65.3699
 21
-136.7
  0
LINE
  8
0
 10
-65.3699
 20
-136.7
 11
-65.3699
 21
-140
  0
LINE
  8
0
 10
-65.3699
 20
-140
 11
-57.1699
 21
-140
  0
LINE
  8
0
 10
-57.1699
 20
-140
 11
-57.1699
 21
-136.7
  0
LINE
  8
0
 10
-57.1699
 20
-136.7
 11
-54.2749
 21
-136.7
  0
LINE
  8
0
 10
-54.2749
 20
-136.7
 11
-54.2749
 21
-140
  0
LINE
  8
0
 10
-54.2749
 20
-140
 11
-51.6399
 21
-140
  0
LINE
  8
0
 10
-51.6399
 20
-140
 11
-51.6399
 21
-130
  0
LINE
  8
0
 10
-51.6399
 20
-130
 11
-51.6299
 21
-130
  0
LINE
  8
0
 10
-51.6299
 20
-130
 11
-51.6299
 21
-140
  0
LINE
  8
0
 10
-51.6299
 20
-140
 11
-47.6399
 21
-140
  0
LINE
  8
0
 10
-47.6399
 20
-140
 11
-47.6399
 21
-130
  0
LINE
  8
0
 10
-47.6399
 20
-130
 11
-47.6299
 21
-130
  0
LINE
  8
0
 10
-47.6299
 20
-130
 11
-47.6299
 21
-140
  0
LINE
  8
0
 10
-47.6299
 20
-140
 11
-43.6399
 21
-140
  0
LINE
  8
0
 10
-43.6399
 20
-140
 11
-43.6399
 21
-130
  0
LINE
  8
0
 10
-43.6399
 20
-130
 11
-43.6299
 21
-130
  0
LINE
  8
0
 10
-43.6299
 20
-130
 11
-43.6299
 21
-140
  0
LINE
  8
0
 10
-43.6299
 20
-140
 11
-39.6399
 21
-140
  0
LINE
  8
0
 10
-39.6399
 20
-140
 11
-39.6399
 21
-130
  0
LINE
  8
0
 10
-39.6399
 20
-130
 11
-39.6299
 21
-130
  0
LINE
  8
0
 10
-39.6299
 20
-130
 11
-39.6299
 21
-140
  0
LINE
  8
0
 10
-39.6299
 20
-140
 11
-35.6399
 21
-140
  0
LINE
  8
0
 10
-35.6399
 20
-140
 11
-35.6399
 21
-130
  0
LINE
  8
0
 10
-35.6399
 20
-130
 11
-35.6299
 21
-130
  0
LINE
  8
0
 10
-35.6299
 20
-130
 11
-35.6299
 21
-140
  0
LINE
  8
0
 10
-35.6299
 20
-140
 11
-31.64
 21
-140
  0
LINE
  8
0
 10
-31.64
 20
-140
 11
-31.64
 21
-130
  0
LINE
  8
0
 10
-31.64
 20
-130
 11
-31.63
 21
-130
  0
LINE
  8
0
 10
-31.63
 20
-130
 11
-31.63
 21
-140
  0
LINE
  8
0
 10
-31.63
 20
-140
 11
-27.64
 21
-140
  0
LINE
  8
0
 10
-27.64
 20
-140
 11
-27.64
 21
-130
  0
LINE
  8
0
 10
-27.64
 20
-130
 11
-27.63
 21
-130
  0
LINE
  8
0
 10
-27.63
 20
-130
 11
-27.63
 21
-140
  0
LINE
  8
0
 10
-27.63
 20
-140
 11
-23.64
 21
-140
  0
LINE
  8
0
 10
-23.64
 20
-140
 11
-23.64
 21
-130
  0
LINE
  8
0
 10
-23.64
 20
-130
 11
-23.63
 21
-130
  0
LINE
  8
0
 10
-23.63
 20
-130
 11
-23.63
 21
-140
  0
LINE
  8
0
 10
-23.63
 20
-140
 11
-19.64
 21
-140
  0
LINE
  8
0
 10
-19.64
 20
-140
 11
-19.64
 21
-130
  0
LINE
  8
0
 10
-19.64
 20
-130
 11
-19.63
 21
-130
  0
LINE
  8
0
 10
-19.63
 20
-130
 11
-19.63
 21
-140
  0
LINE
  8
0
 10
-19.63
 20
-140
 11
-15.64
 21
-140
  0
LINE
  8
0
 10
-15.64
 20
-140
 11
-15.64
 21
-130
  0
LINE
  8
0
 10
-15.64
 20
-130
 11
-15.63
 21
-130
  0
LINE
  8
0
 10
-15.63
 20
-130
 11
-15.63
 21
-140
  0
LINE
  8
0
 10
-15.63
 20
-140
 11
-14.995
 21
-140
  0
LINE
  8
0
 10
-14.995
 20
-140
 11
-14.995
 21
-136.7
  0
LINE
  8
0
 10
-14.995
 20
-136.7
 11
-12.1
 21
-136.7
  0
LINE
  8
0
 10
-12.1
 20
-136.7
 11
-12.1
 21
-140
  0
LINE
  8
0
 10
-12.1
 20
-140
 11
-3.89999
 21
-140
  0
LINE
  8
0
 10
-3.89999
 20
-140
 11
-3.89999
 21
-136.7
  0
LINE
  8
0
 10
-3.89999
 20
-136.7
 11
3.89999
 21
-136.7
  0
LINE
  8
0
 10
3.89999
 20
-136.7
 11
3.89999
 21
-140
  0
LINE
  8
0
 10
3.89999
 20
-140
 11
12.1
 21
-140
  0
LINE
  8
0
 10
12.1
 20
-140
 11
12.1
 21
-136.7
  0
LINE
  8
0
 10
12.1
 20
-136.7
 11
14.995
 21
-136.7
  0
LINE
  8
0
 10
14.995
 20
-136.7
 11
14.995
 21
-140
  0
LINE
  8
0
 10
14.995
 20
-140
 11
17.63
 21
-140
  0
LINE
  8
0
 10
17.63
 20
-140
 11
17.63
 21
-130
  0
LINE
  8
0
 10
17.63
 20
-130
 11
17.64
 21
-130
  0
LINE
  8
0
 10
17.64
 20
-130
 11
17.64
 21
-140
  0
LINE
  8
0
 10
17.64
 20
-140
 11
21.63
 21
-140
  0
LINE
  8
0
 10
21.63
 20
-140
 11
21.63
 21
-130
  0
LINE
  8
0
 10
21.63
 20
-130
 11
21.64
 21
-130
  0
LINE
  8
0
 10
21.64
 20
-130
 11
21.64
 21
-140
  0
LINE
  8
0
 10
21.64
 20
-140
 11
25.63
 21
-140
  0
LINE
  8
0
 10
25.63
 20
-140
 11
25.63
 21
-130
  0
LINE
  8
0
 10
25.63
 20
-130
 11
25.64
 21
-130
  0
LINE
  8
0
 10
25.64
 20
-130
 11
25.64
 21
-140
  0
LINE
  8
0
 10
25.64
 20
-140
 11
29.63
 21
-140
  0
LINE
  8
0
 10
29.63
 20
-140
 11
29.63
 21
-130
  0
LINE
  8
0
 10
29.63
 20
-130
 11
29.64
 21
-130
  0
LINE
  8
0
 10
29.64
 20
-130
 11
29.64
 21
-140
  0
LINE
  8
0
 10
29.64
 20
-140
 11
33.63
 21
-140
  0
LINE
  8
0
 10
33.63
 20
-140
 11
33.63
 21
-130
  0
LINE
  8
0
 10
33.63
 20
-130
 11
33.64
 21
-130
  0
LINE
  8
0
 10
33.64
 20
-130
 11
33.64
 21
-140
  0
LINE
  8
0
 10
33.64
 20
-140
 11
37.6299
 21
-140
  0
LINE
  8
0
 10
37.6299
 20
-140
 11
37.6299
 21
-130
  0
LINE
  8
0
 10
37.6299
 20
-130
 11
37.6399
 21
-130
  0
LINE
  8
0
 10
37.6399
 20
-130
 11
37.6399
 21
-140
  0
LINE
  8
0
 10
37.6399
 20
-140
 11
41.6299
 21
-140
  0
LINE
  8
0
 10
41.6299
 20
-140
 11
41.6299
 21
-130
  0
LINE
  8
0
 10
41.6299
 20
-130
 11
41.6399
 21
-130
  0
LINE
  8
0
 10
41.6399
 20
-130
 11
41.6399
 21
-140
  0
LINE
  8
0
 10
41.6399
 20
-140
 11
45.6299
 21
-140
  0
LINE
  8
0
 10
45.6299
 20
-140
 11
45.6299
 21
-130
  0
LINE
  8
0
 10
45.6299
 20
-130
 11
45.6399
 21
-130
  0
LINE
  8
0
 10
45.6399
 20
-130
 11
45.6399
 21
-140
  0
LINE
  8
0
 10
45.6399
 20
-140
 11
49.6299
 21
-140
  0
LINE
  8
0
 10
49.6299
 20
-140
 11
49.6299
 21
-130
  0
LINE
  8
0
 10
49.6299
 20
-130
 11
49.6399
 21
-130
  0
LINE
  8
0
 10
49.6399
 20
-130
 11
49.6399
 21
-140
  0
LINE
  8
0
 10
49.6399
 20
-140
 11
53.6299
 21
-140
  0
LINE
  8
0
 10
53.6299
 20
-140
 11
53.6299
 21
-130
  0
LINE
  8
0
 10
53.6299
 20
-130
 11
53.6399
 21
-130
  0
LINE
  8
0
 10
53.6399
 20
-130
 11
53.6399
 21
-140
  0
LINE
  8
0
 10
53.6399
 20
-140
 11
54.2749
 21
-140
  0
LINE
  8
0
 10
54.2749
 20
-140
 11
54.2749
 21
-136.7
  0
LINE
  8
0
 10
54.2749
 20
-136.7
 11
57.1699
 21
-136.7
  0
LINE
  8
0
 10
57.1699
 20
-136.7
 11
57.1699
 21
-140
  0
LINE
  8
0
 10
57.1699
 20
-140
 11
65.3699
 21
-140
  0
LINE
  8
0
 10
65.3699
 20
-140
 11
65.3699
 21
-136.7
  0
LINE
  8
0
 10
65.3699
 20
-136.7
 11
73.1699
 21
-136.7
  0
LINE
  8
0
 10
73.1699
 20
-136.7
 11
73.1699
 21
-140
  0
LINE
  8
0
 10
73.1699
 20
-140
 11
81.3699
 21
-140
  0
LINE
  8
0
 10
81.3699
 20
-140
 11
81.3699
 21
-136.7
  0
LINE
  8
0
 10
81.3699
 20
-136.7
 11
84.2649
 21
-136.7
  0
LINE
  8
0
 10
84.2649
 20
-136.7
 11
84.2649
 21
-140
  0
LINE
  8
0
 10
84.2649
 20
-140
 11
86.8999
 21
-140
  0
LINE
  8
0
 10
86.8999
 20
-140
 11
86.8999
 21
-130
  0
LINE
  8
0
 10
86.8999
 20
-130
 11
86.9099
 21
-130
  0
LINE
  8
0
 10
86.9099
 20
-130
 11
86.9099
 21
-140
  0
LINE
  8
0
 10
86.9099
 20
-140
 11
90.8999
 21
-140
  0
LINE
  8
0
 10
90.8999
 20
-140
 11
90.8999
 21
-130
  0
LINE
  8
0
 10
90.8999
 20
-130
 11
90.9099
 21
-130
  0
LINE
  8
0
 10
90.9099
 20
-130
 11
90.9099
 21
-140
  0
LINE
  8
0
 10
90.9099
 20
-140
 11
94.8999
 21
-140
  0
LINE
  8
0
 10
94.8999
 20
-140
 11
94.8999
 21
-130
  0
LINE
  8
0
 10
94.8999
 20
-130
 11
94.9099
 21
-130
  0
LINE
  8
0
 10
94.9099
 20
-130
 11
94.9099
 21
-140
  0
LINE
  8
0
 10
94.9099
 20
-140
 11
98.8999
 21
-140
  0
LINE
  8
0
 10
98.8999
 20
-140
 11
98.8999
 21
-130
  0
LINE
  8
0
 10
98.8999
 20
-130
 11
98.9099
 21
-130
  0
LINE
  8
0
 10
98.9099
 20
-130
 11
98.9099
 21
-140
  0
LINE
  8
0
 10
98.9099
 20
-140
 11
102.9
 21
-140
  0
LINE
  8
0
 10
102.9
 20
-140
 11
102.9
 21
-130
  0
LINE
  8
0
 10
102.9
 20
-130
 11
102.91
 21
-130
  0
LINE
  8
0
 10
102.91
 20
-130
 11
102.91
 21
-140
  0
LINE
  8
0
 10
102.91
 20
-140
 11
106.9
 21
-140
  0
LINE
  8
0
 10
106.9
 20
-140
 11
106.9
 21
-130
  0
LINE
  8
0
 10
106.9
 20
-130
 11
106.91
 21
-130
  0
LINE
  8
0
 10
106.91
 20
-130
 11
106.91
 21
-140
  0
LINE
  8
0
 10
106.91
 20
-140
 11
110.9
 21
-140
  0
LINE
  8
0
 10
110.9
 20
-140
 11
110.9
 21
-130
  0
LINE
  8
0
 10
110.9
 20
-130
 11
110.91
 21
-130
  0
LINE
  8
0
 10
110.91
 20
-130
 11
110.91
 21
-140
  0
LINE
  8
0
 10
110.91
 20
-140
 11
114.9
 21
-140
  0
LINE
  8
0
 10
114.9
 20
-140
 11
114.9
 21
-130
  0
LINE
  8
0
 10
114.9
 20
-130
 11
114.91
 21
-130
  0
LINE
  8
0
 10
114.91
 20
-130
 11
114.91
 21
-140
  0
LINE
  8
0
 10
114.91
 20
-140
 11
118.9
 21
-140
  0
LINE
  8
0
 10
118.9
 20
-140
 11
118.9
 21
-130
  0
LINE
  8
0
 10
118.9
 20
-130
 11
118.91
 21
-130
  0
LINE
  8
0
 10
118.91
 20
-130
 11
118.91
 21
-140
  0
LINE
  8
0
 10
118.91
 20
-140
 11
122.9
 21
-140
  0
LINE
  8
0
 10
122.9
 20
-140
 11
122.9
 21
-130
  0
LINE
  8
0
 10
122.9
 20
-130
 11
122.91
 21
-130
  0
LINE
  8
0
 10
122.91
 20
-130
 11
122.91
 21
-140
  0
LINE
  8
0
 10
122.91
 20
-140
 11
123.545
 21
-140
  0
LINE
  8
0
 10
123.545
 20
-140
 11
123.545
 21
-136.7
  0
LINE
  8
0
 10
123.545
 20
-136.7
 11
129.14
 21
-136.7
  0
LINE
  8
0
 10
129.14
 20
-136.7
 11
129.14
 21
-140
  0
LINE
  8
0
 10
129.14
 20
-140
 11
136.94
 21
-140
  0
LINE
  8
0
 10
136.94
 20
-140
 11
136.94
 21
-134.1
  0
LINE
  8
0
 10
136.94
 20
-134.1
 11
140.24
 21
-134.1
  0
LINE
  8
0
 10
140.24
 20
-134.1
 11
140.24
 21
-125.9
  0
LINE
  8
0
 10
140.24
 20
-125.9
 11
136.94
 21
-125.9
  0
LINE
  8
0
 10
136.94
 20
-125.9
 11
136.94
 21
-118.1
  0
LINE
  8
0
 10
136.94
 20
-118.1
 11
140.24
 21
-118.1
  0
LINE
  8
0
 10
140.24
 20
-118.1
 11
140.24
 21
-109.9
  0
LINE
  8
0
 10
140.24
 20
-109.9
 11
136.94
 21
-109.9
  0
LINE
  8
0
 10
136.94
 20
-109.9
 11
136.94
 21
-102.1
  0
LINE
  8
0
 10
136.94
 20
-102.1
 11
140.24
 21
-102.1
  0
LINE
  8
0
 10
140.24
 20
-102.1
 11
140.24
 21
-93.9
  0
LINE
  8
0
 10
140.24
 20
-93.9
 11
136.94
 21
-93.9
  0
LINE
  8
0
 10
136.94
 20
-93.9
 11
136.94
 21
-86.1
  0
LINE
  8
0
 10
136.94
 20
-86.1
 11
140.24
 21
-86.1
  0
LINE
  8
0
 10
140.24
 20
-86.1
 11
140.24
 21
-77.9
  0
LINE
  8
0
 10
140.24
 20
-77.9
 11
136.94
 21
-77.9
  0
LINE
  8
0
 10
136.94
 20
-77.9
 11
136.94
 21
-70.1
  0
LINE
  8
0
 10
136.94
 20
-70.1
 11
140.24
 21
-70.1
  0
LINE
  8
0
 10
140.24
 20
-70.1
 11
140.24
 21
-61.9
  0
LINE
  8
0
 10
140.24
 20
-61.9
 11
136.94
 21
-61.9
  0
LINE
  8
0
 10
136.94
 20
-61.9
 11
136.94
 21
-54.1
  0
LINE
  8
0
 10
136.94
 20
-54.1
 11
140.24
 21
-54.1
  0
LINE
  8
0
 10
140.24
 20
-54.1
 11
140.24
 21
-45.9
  0
LINE
  8
0
 10
140.24
 20
-45.9
 11
136.94
 21
-45.9
  0
LINE
  8
0
 10
136.94
 20
-45.9
 11
136.94
 21
-40
  0
LINE
  8
0
 10
136.94
 20
-40
 11
129.14
 21
-40
  0
LINE
  8
0
 10
129.14
 20
-40
 11
129.14
 21
-43.3
  0
LINE
  8
0
 10
129.14
 20
-43.3
 11
123.545
 21
-43.3
  0
LINE
  8
0
 10
123.545
 20
-43.3
 11
123.545
 21
-40
  0
LINE
  8
0
 10
123.545
 20
-40
 11
122.91
 21
-40
  0
LINE
  8
0
 10
122.91
 20
-40
 11
122.91
 21
-50
  0
LINE
  8
0
 10
122.91
 20
-50
 11
122.9
 21
-50
  0
LINE
  8
0
 10
122.9
 20
-50
 11
122.9
 21
-40
  0
LINE
  8
0
 10
122.9
 20
-40
 11
118.91
 21
-40
  0
LINE
  8
0
 10
118.91
 20
-40
 11
118.91
 21
-50
  0
LINE
  8
0
 10
118.91
 20
-50
 11
118.9
 21
-50
  0
LINE
  8
0
 10
118.9
 20
-50
 11
118.9
 21
-40
  0
LINE
  8
0
 10
118.9
 20
-40
 11
114.91
 21
-40
  0
LINE
  8
0
 10
114.91
 20
-40
 11
114.91
 21
-50
  0
LINE
  8
0
 10
114.91
 20
-50
 11
114.9
 21
-50
  0
LINE
  8
0
 10
114.9
 20
-50
 11
114.9
 21
-40
  0
LINE
  8
0
 10
114.9
 20
-40
 11
110.91
 21
-40
  0
LINE
  8
0
 10
110.91
 20
-40
 11
110.91
 21
-50
  0
LINE
  8
0
 10
110.91
 20
-50
 11
110.9
 21
-50
  0
LINE
  8
0
 10
110.9
 20
-50
 11
110.9
 21
-40
  0
LINE
  8
0
 10
110.9
 20
-40
 11
106.91
 21
-40
  0
LINE
  8
0
 10
106.91
 20
-40
 11
106.91
 21
-50
  0
LINE
  8
0
 10
106.91
 20
-50
 11
106.9
 21
-50
  0
LINE
  8
0
 10
106.9
 20
-50
 11
106.9
 21
-40
  0
LINE
  8
0
 10
106.9
 20
-40
 11
102.91
 21
-40
  0
LINE
  8
0
 10
102.91
 20
-40
 11
102.91
 21
-50
  0
LINE
  8
0
 10
102.91
 20
-50
 11
102.9
 21
-50
  0
LINE
  8
0
 10
102.9
 20
-50
 11
102.9
 21
-40
  0
LINE
  8
0
 10
102.9
 20
-40
 11
98.9099
 21
-40
  0
LINE
  8
0
 10
98.9099
 20
-40
 11
98.9099
 21
-50
  0
LINE
  8
0
 10
98.9099
 20
-50
 11
98.8999
 21
-50
  0
LINE
  8
0
 10
98.8999
 20
-50
 11
98.8999
 21
-40
  0
LINE
  8
0
 10
98.8999
 20
-40
 11
94.9099
 21
-40
  0
LINE
  8
0
 10
94.9099
 20
-40
 11
94.9099
 21
-50
  0
LINE
  8
0
 10
94.9099
 20
-50
 11
94.8999
 21
-50
  0
LINE
  8
0
 10
94.8999
 20
-50
 11
94.8999
 21
-40
  0
LINE
  8
0
 10
94.8999
 20
-40
 11
90.9099
 21
-40
  0
LINE
  8
0
 10
90.9099
 20
-40
 11
90.9099
 21
-50
  0
LINE
  8
0
 10
90.9099
 20
-50
 11
90.8999
 21
-50
  0
LINE
  8
0
 10
90.8999
 20
-50
 11
90.8999
 21
-40
  0
LINE
  8
0
 10
90.8999
 20
-40
 11
86.9099
 21
-40
  0
LINE
  8
0
 10
86.9099
 20
-40
 11
86.9099
 21
-50
  0
LINE
  8
0
 10
86.9099
 20
-50
 11
86.8999
 21
-50
  0
LINE
  8
0
 10
86.8999
 20
-50
 11
86.8999
 21
-40
  0
LINE
  8
0
 10
86.8999
 20
-40
 11
84.2649
 21
-40
  0
LINE
  8
0
 10
84.2649
 20
-40
 11
84.2649
 21
-43.3
  0
LINE
  8
0
 10
84.2649
 20
-43.3
 11
81.3699
 21
-43.3
  0
LINE
  8
0
 10
81.3699
 20
-43.3
 11
81.3699
 21
-40
  0
LINE
  8
0
 10
81.3699
 20
-40
 11
73.1699
 21
-40
  0
LINE
  8
0
 10
73.1699
 20
-40
 11
73.1699
 21
-43.3
  0
LINE
  8
0
 10
73.1699
 20
-43.3
 11
65.3699
 21
-43.3
  0
LINE
  8
0
 10
65.3699
 20
-43.3
 11
65.3699
 21
-40
  0
LINE
  8
0
 10
65.3699
 20
-40
 11
57.1699
 21
-40
  0
LINE
  8
0
 10
57.1699
 20
-40
 11
57.1699
 21
-43.3
  0
LINE
  8
0
 10
57.1699
 20
-43.3
 11
54.2749
 21
-43.3
  0
LINE
  8
0
 10
54.2749
 20
-43.3
 11
54.2749
 21
-40
  0
LINE
  8
0
 10
54.2749
 20
-40
 11
53.6399
 21
-40
  0
LINE
  8
0
 10
53.6399
 20
-40
 11
53.6399
 21
-50
  0
LINE
  8
0
 10
53.6399
 20
-50
 11
53.6299
 21
-50
  0
LINE
  8
0
 10
53.6299
 20
-50
 11
53.6299
 21
-40
  0
LINE
  8
0
 10
53.6299
 20
-40
 11
49.6399
 21
-40
  0
LINE
  8
0
 10
49.6399
 20
-40
 11
49.6399
 21
-50
  0
LINE
  8
0
 10
49.6399
 20
-50
 11
49.6299
 21
-50
  0
LINE
  8
0
 10
49.6299
 20
-50
 11
49.6299
 21
-40
  0
LINE
  8
0
 10
49.6299
 20
-40
 11
45.6399
 21
-40
  0
LINE
  8
0
 10
45.6399
 20
-40
 11
45.6399
 21
-50
  0
LINE
  8
0
 10
45.6399
 20
-50
 11
45.6299
 21
-50
  0
LINE
  8
0
 10
45.6299
 20
-50
 11
45.6299
 21
-40
  0
LINE
  8
0
 10
45.6299
 20
-40
 11
41.6399
 21
-40
  0
LINE
  8
0
 10
41.6399
 20
-40
 11
41.6399
 21
-50
  0
LINE
  8
0
 10
41.6399
 20
-50
 11
41.6299
 21
-50
  0
LINE
  8
0
 10
41.6299
 20
-50
 11
41.6299
 21
-40
  0
LINE
  8
0
 10
41.6299
 20
-40
 11
37.6399
 21
-40
  0
LINE
  8
0
 10
37.6399
 20
-40
 11
37.6399
 21
-50
  0
LINE
  8
0
 10
37.6399
 20
-50
 11
37.6299
 21
-50
  0
LINE
  8
0
 10
37.6299
 20
-50
 11
37.6299
 21
-40
  0
LINE
  8
0
 10
37.6299
 20
-40
 11
33.64
 21
-40
  0
LINE
  8
0
 10
33.64
 20
-40
 11
33.64
 21
-50
  0
LINE
  8
0
 10
33.64
 20
-50
 11
33.63
 21
-50
  0
LINE
  8
0
 10
33.63
 20
-50
 11
33.63
 21
-40
  0
LINE
  8
0
 10
33.63
 20
-40
 11
29.64
 21
-40
  0
LINE
  8
0
 10
29.64
 20
-40
 11
29.64
 21
-50
  0
LINE
  8
0
 10
29.64
 20
-50
 11
29.63
 21
-50
  0
LINE
  8
0
 10
29.63
 20
-50
 11
29.63
 21
-40
  0
LINE
  8
0
 10
29.63
 20
-40
 11
25.64
 21
-40
  0
LINE
  8
0
 10
25.64
 20
-40
 11
25.64
 21
-50
  0
LINE
  8
0
 10
25.64
 20
-50
 11
25.63
 21
-50
  0
LINE
  8
0
 10
25.63
 20
-50
 11
25.63
 21
-40
  0
LINE
  8
0
 10
25.63
 20
-40
 11
21.64
 21
-40
  0
LINE
  8
0
 10
21.64
 20
-40
 11
21.64
 21
-50
  0
LINE
  8
0
 10
21.64
 20
-50
 11
21.63
 21
-50
  0
LINE
  8
0
 10
21.63
 20
-50
 11
21.63
 21
-40
  0
LINE
  8
0
 10
21.63
 20
-40
 11
17.64
 21
-40
  0
LINE
  8
0
 10
17.64
 20
-40
 11
17.64
 21
-50
  0
LINE
  8
0
 10
17.64
 20
-50
 11
17.63
 21
-50
  0
LINE
  8
0
 10
17.63
 20
-50
 11
17.63
 21
-40
  0
LINE
  8
0
 10
17.63
 20
-40
 11
14.995
 21
-40
  0
LINE
  8
0
 10
14.995
 20
-40
 11
14.995
 21
-43.3
  0
LINE
  8
0
 10
14.995
 20
-43.3
 11
12.1
 21
-43.3
  0
LINE
  8
0
 10
12.1
 20
-43.3
 11
12.1
 21
-40
  0
LINE
  8
0
 10
12.1
 20
-40
 11
3.89999
 21
-40
  0
LINE
  8
0
 10
3.89999
 20
-40
 11
3.89999
 21
-43.3
  0
LINE
  8
0
 10
3.89999
 20
-43.3
 11
-3.90001
 21
-43.3
  0
LINE
  8
0
 10
-3.90001
 20
-43.3
 11
-3.90001
 21
-40
  0
LINE
  8
0
 10
-3.90001
 20
-40
 11
-12.1
 21
-40
  0
LINE
  8
0
 10
-12.1
 20
-40
 11
-12.1
 21
-43.3
  0
LINE
  8
0
 10
-12.1
 20
-43.3
 11
-14.995
 21
-43.3
  0
LINE
  8
0
 10
-14.995
 20
-43.3
 11
-14.995
 21
-40
  0
LINE
  8
0
 10
-14.995
 20
-40
 11
-15.63
 21
-40
  0
LINE
  8
0
 10
-15.63
 20
-40
 11
-15.63
 21
-50
  0
LINE
  8
0
 10
-15.63
 20
-50
 11
-15.64
 21
-50
  0
LINE
  8
0
 10
-15.64
 20
-50
 11
-15.64
 21
-40
  0
LINE
  8
0
 10
-15.64
 20
-40
 11
-19.63
 21
-40
  0
LINE
  8
0
 10
-19.63
 20
-40
 11
-19.63
 21
-50
  0
LINE
  8
0
 10
-19.63
 20
-50
 11
-19.64
 21
-50
  0
LINE
  8
0
 10
-19.64
 20
-50
 11
-19.64
 21
-40
  0
LINE
  8
0
 10
-19.64
 20
-40
 11
-23.63
 21
-40
  0
LINE
  8
0
 10
-23.63
 20
-40
 11
-23.63
 21
-50
  0
LINE
  8
0
 10
-23.63
 20
-50
 11
-23.64
 21
-50
  0
LINE
  8
0
 10
-23.64
 20
-50
 11
-23.64
 21
-40
  0
LINE
  8
0
 10
-23.64
 20
-40
 11
-27.63
 21
-40
  0
LINE
  8
0
 10
-27.63
 20
-40
 11
-27.63
 21
-50
  0
LINE
  8
0
 10
-27.63
 20
-50
 11
-27.64
 21
-50
  0
LINE
  8
0
 10
-27.64
 20
-50
 11
-27.64
 21
-40
  0
LINE
  8
0
 10
-27.64
 20
-40
 11
-31.63
 21
-40
  0
LINE
  8
0
 10
-31.63
 20
-40
 11
-31.63
 21
-50
  0
LINE
  8
0
 10
-31.63
 20
-50
 11
-31.64
 21
-50
  0
LINE
  8
0
 10
-31.64
 20
-50
 11
-31.64
 21
-40
  0
LINE
  8
0
 10
-31.64
 20
-40
 11
-35.6299
 21
-40
  0
LINE
  8
0
 10
-35.6299
 20
-40
 11
-35.6299
 21
-50
  0
LINE
  8
0
 10
-35.6299
 20
-50
 11
-35.6399
 21
-50
  0
LINE
  8
0
 10
-35.6399
 20
-50
 11
-35.6399
 21
-40
  0
LINE
  8
0
 10
-35.6399
 20
-40
 11
-39.6299
 21
-40
  0
LINE
  8
0
 10
-39.6299
 20
-40
 11
-39.6299
 21
-50
  0
LINE
  8
0
 10
-39.6299
 20
-50
 11
-39.6399
 21
-50
  0
LINE
  8
0
 10
-39.6399
 20
-50
 11
-39.6399
 21
-40
  0
LINE
  8
0
 10
-39.6399
 20
-40
 11
-43.6299
 21
-40
  0
LINE
  8
0
 10
-43.6299
 20
-40
 11
-43.6299
 21
-50
  0
LINE
  8
0
 10
-43.6299
 20
-50
 11
-43.6399
 21
-50
  0
LINE
  8
0
 10
-43.6399
 20
-50
 11
-43.6399
 21
-40
  0
LINE
  8
0
 10
-43.6399
 20
-40
 11
-47.6299
 21
-40
  0
LINE
  8
0
 10
-47.6299
 20
-40
 11
-47.6299
 21
-50
  0
LINE
  8
0
 10
-47.6299
 20
-50
 11
-47.6399
 21
-50
  0
LINE
  8
0
 10
-47.6399
 20
-50
 11
-47.6399
 21
-40
  0
LINE
  8
0
 10
-47.6399
 20
-40
 11
-51.6299
 21
-40
  0
LINE
  8
0
 10
-51.6299
 20
-40
 11
-51.6299
 21
-50
  0
LINE
  8
0
 10
-51.6299
 20
-50
 11
-51.6399
 21
-50
  0
LINE
  8
0
 10
-51.6399
 20
-50
 11
-51.6399
 21
-40
  0
LINE
  8
0
 10
-51.6399
 20
-40
 11
-54.2749
 21
-40
  0
LINE
  8
0
 10
-54.2749
 20
-40
 11
-54.2749
 21
-43.3
  0
LINE
  8
0
 10
-54.2749
 20
-43.3
 11
-57.1699
 21
-43.3
  0
LINE
  8
0
 10
-57.1699
 20
-43.3
 11
-57.1699
 21
-40
  0
LINE
  8
0
 10
-57.1699
 20
-40
 11
-65.3699
 21
-40
  0
LINE
  8
0
 10
-65.3699
 20
-40
 11
-65.3699
 21
-43.3
  0
LINE
  8
0
 10
-65.3699
 20
-43.3
 11
-73.1699
 21
-43.3
  0
LINE
  8
0
 10
-73.1699
 20
-43.3
 11
-73.1699
 21
-40
  0
LINE
  8
0
 10
-73.1699
 20
-40
 11
-81.3699
 21
-40
  0
LINE
  8
0
 10
-81.3699
 20
-40
 11
-81.3699
 21
-43.3
  0
LINE
  8
0
 10
-81.3699
 20
-43.3
 11
-84.2649
 21
-43.3
  0
LINE
  8
0
 10
-84.2649
 20
-43.3
 11
-84.2649
 21
-40
  0
LINE
  8
0
 10
-84.2649
 20
-40
 11
-84.8999
 21
-40
  0
LINE
  8
0
 10
-84.8999
 20
-40
 11
-84.8999
 21
-50
  0
LINE
  8
0
 10
-84.8999
 20
-50
 11
-84.9099
 21
-50
  0
LINE
  8
0
 10
-84.9099
 20
-50
 11
-84.9099
 21
-40
  0
LINE
  8
0
 10
-84.9099
 20
-40
 11
-88.8999
 21
-40
  0
LINE
  8
0
 10
-88.8999
 20
-40
 11
-88.8999
 21
-50
  0
LINE
  8
0
 10
-88.8999
 20
-50
 11
-88.9099
 21
-50
  0
LINE
  8
0
 10
-88.9099
 20
-50
 11
-88.9099
 21
-40
  0
LINE
  8
0
 10
-88.9099
 20
-40
 11
-92.8999
 21
-40
  0
LINE
  8
0
 10
-92.8999
 20
-40
 11
-92.8999
 21
-50
  0
LINE
  8
0
 10
-92.8999
 20
-50
 11
-92.9099
 21
-50
  0
LINE
  8
0
 10
-92.9099
 20
-50
 11
-92.9099
 21
-40
  0
LINE
  8
0
 10
-92.9099
 20
-40
 11
-96.8999
 21
-40
  0
LINE
  8
0
 10
-96.8999
 20
-40
 11
-96.8999
 21
-50
  0
LINE
  8
0
 10
-96.8999
 20
-50
 11
-96.9099
 21
-50
  0
LINE
  8
0
 10
-96.9099
 20
-50
 11
-96.9099
 21
-40
  0
LINE
  8
0
 10
-96.9099
 20
-40
 11
-100.9
 21
-40
  0
LINE
  8
0
 10
-100.9
 20
-40
 11
-100.9
 21
-50
  0
LINE
  8
0
 10
-100.9
 20
-50
 11
-100.91
 21
-50
  0
LINE
  8
0
 10
-100.91
 20
-50
 11
-100.91
 21
-40
  0
LINE
  8
0
 10
-100.91
 20
-40
 11
-104.9
 21
-40
  0
LINE
  8
0
 10
-104.9
 20
-40
 11
-104.9
 21
-50
  0
LINE
  8
0
 10
-104.9
 20
-50
 11
-104.91
 21
-50
  0
LINE
  8
0
 10
-104.91
 20
-50
 11
-104.91
 21
-40
  0
LINE
  8
0
 10
-104.91
 20
-40
 11
-108.9
 21
-40
  0
LINE
  8
0
 10
-108.9
 20
-40
 11
-108.9
 21
-50
  0
LINE
  8
0
 10
-108.9
 20
-50
 11
-108.91
 21
-50
  0
LINE
  8
0
 10
-108.91
 20
-50
 11
-108.91
 21
-40
  0
LINE
  8
0
 10
-108.91
 20
-40
 11
-112.9
 21
-40
  0
LINE
  8
0
 10
-112.9
 20
-40
 11
-112.9
 21
-50
  0
LINE
  8
0
 10
-112.9
 20
-50
 11
-112.91
 21
-50
  0
LINE
  8
0
 10
-112.91
 20
-50
 11
-112.91
 21
-40
  0
LINE
  8
0
 10
-112.91
 20
-40
 11
-116.9
 21
-40
  0
LINE
  8
0
 10
-116.9
 20
-40
 11
-116.9
 21
-50
  0
LINE
  8
0
 10
-116.9
 20
-50
 11
-116.91
 21
-50
  0
LINE
  8
0
 10
-116.91
 20
-50
 11
-116.91
 21
-40
  0
LINE
  8
0
 10
-116.91
 20
-40
 11
-120.9
 21
-40
  0
LINE
  8
0
 10
-120.9
 20
-40
 11
-120.9
 21
-50
  0
LINE
  8
0
 10
-120.9
 20
-50
 11
-120.91
 21
-50
  0
LINE
  8
0
 10
-120.91
 20
-50
 11
-120.91
 21
-40
  0
LINE
  8
0
 10
-120.91
 20
-40
 11
-123.545
 21
-40
  0
LINE
  8
0
 10
-123.545
 20
-40
 11
-123.545
 21
-43.3
  0
LINE
  8
0
 10
-123.545
 20
-43.3
 11
-126.44
 21
-43.3
  0
LINE
  8
0
 10
-126.44
 20
-43.3
 11
-126.44
 21
-40
  0
LINE
  8
0
 10
-126.44
 20
-40
 11
-134.64
 21
-40
  0
LINE
  8
0
 10
-134.64
 20
-40
 11
-134.64
 21
-43.3
  0
LINE
  8
0
 10
-134.64
 20
-43.3
 11
-140.24
 21
-43.3
  0
LINE
  8
0
 10
-140.24
 20
-43.3
 11
-140.24
 21
-46.1
  0
LINE
  8
0
 10
-140.24
 20
-46.1
 11
-136.94
 21
-46.1
  0
LINE
  8
0
 10
-136.94
 20
-46.1
 11
-136.94
 21
-53.9
  0
LINE
  8
0
 10
-136.94
 20
-53.9
 11
-140.24
 21
-53.9
  0
LINE
  8
0
 10
-140.24
 20
-53.9
 11
-140.24
 21
-62.1
  0
LINE
  8
0
 10
-140.24
 20
-62.1
 11
-136.94
 21
-62.1
  0
LINE
  8
0
 10
-136.94
 20
-62.1
 11
-136.94
 21
-69.9
  0
LINE
  8
0
 10
-136.94
 20
-69.9
 11
-140.24
 21
-69.9
  0
LINE
  8
0
 10
-140.24
 20
-69.9
 11
-140.24
 21
-78.1
  0
LINE
  8
0
 10
-140.24
 20
-78.1
 11
-136.94
 21
-78.1
  0
LINE
  8
0
 10
-136.94
 20
-78.1
 11
-136.94
 21
-85.9
  0
LINE
  8
0
 10
-136.94
 20
-85.9
 11
-140.24
 21
-85.9
  0
LINE
  8
0
 10
-140.24
 20
-85.9
 11
-140.24
 21
-94.1
  0
LINE
  8
0
 10
-140.24
 20
-94.1
 11
-136.94
 21
-94.1
  0
LINE
  8
0
 10
-136.94
 20
-94.1
 11
-136.94
 21
-101.9
  0
LINE
  8
0
 10
-136.94
 20
-101.9
 11
-140.24
 21
-101.9
  0
LINE
  8
0
 10
-140.24
 20
-101.9
 11
-140.24
 21
-110.1
  0
LINE
  8
0
 10
-140.24
 20
-110.1
 11
-136.94
 21
-110.1
  0
LINE
  8
0
 10
-136.94
 20
-110.1
 11
-136.94
 21
-117.9
  0
LINE
  8
0
 10
-136.94
 20
-117.9
 11
-140.24
 21
-117.9
  0
LINE
  8
0
 10
-140.24
 20
-117.9
 11
-140.24
 21
-126.1
  0
LINE
  8
0
 10
-140.24
 20
-126.1
 11
-136.94
 21
-126.1
  0
LINE
  8
0
 10
-136.94
 20
-126.1
 11
-136.94
 21
-133.9
  0
LINE
  8
0
 10
-136.94
 20
-133.9
 11
-140.24
 21
-133.9
  0
LINE
  8
0
 10
-140.24
 20
-133.9
 11
-140.24
 21
-136.7
  0
LINE
  8
0
 10
-140.24
 20
-136.7
 11
-134.64
 21
-136.7
  0
LINE
  8
0
 10
-134.64
 20
-136.7
 11
-134.64
 21
-140
  0
LINE
  8
0
 10
-134.64
 20
-140
 11
-126.44
 21
-140
  0
LINE
  8
0
 10
-126.44
 20
-140
 11
-126.44
 21
-136.7
  0
LINE
  8
0
 10
84.8999
 20
-62.5
 11
84.8999
 21
-42.5
  0
LINE
  8
0
 10
84.8999
 20
-42.5
 11
84.9099
 21
-42.5
  0
LINE
  8
0
 10
84.9099
 20
-42.5
 11
84.9099
 21
-62.5
  0
LINE
  8
0
 10
84.9099
 20
-62.5
 11
84.8999
 21
-62.5
  0
LINE
  8
0
 10
96.8999
 20
-62.5
 11
96.8999
 21
-42.5
  0
LINE
  8
0
 10
96.8999
 20
-42.5
 11
96.9099
 21
-42.5
  0
LINE
  8
0
 10
96.9099
 20
-42.5
 11
96.9099
 21
-62.5
  0
LINE
  8
0
 10
96.9099
 20
-62.5
 11
96.8999
 21
-62.5
  0
LINE
  8
0
 10
112.9
 20
-62.5
 11
112.9
 21
-42.5
  0
LINE
  8
0
 10
112.9
 20
-42.5
 11
112.91
 21
-42.5
  0
LINE
  8
0
 10
112.91
 20
-42.5
 11
112.91
 21
-62.5
  0
LINE
  8
0
 10
112.91
 20
-62.5
 11
112.9
 21
-62.5
  0
LINE
  8
0
 10
-98.9099
 20
-62.5
 11
-98.9099
 21
-42.5
  0
LINE
  8
0
 10
-98.9099
 20
-42.5
 11
-98.8999
 21
-42.5
  0
LINE
  8
0
 10
-98.8999
 20
-42.5
 11
-98.8999
 21
-62.5
  0
LINE
  8
0
 10
-98.8999
 20
-62.5
 11
-98.9099
 21
-62.5
  0
LINE
  8
0
 10
-90.9099
 20
-62.5
 11
-90.9099
 21
-42.5
  0
LINE
  8
0
 10
-90.9099
 20
-42.5
 11
-90.8999
 21
-42.5
  0
LINE
  8
0
 10
-90.8999
 20
-42.5
 11
-90.8999
 21
-62.5
  0
LINE
  8
0
 10
-90.8999
 20
-62.5
 11
-90.9099
 21
-62.5
  0
LINE
  8
0
 10
-106.91
 20
-62.5
 11
-106.91
 21
-42.5
  0
LINE
  8
0
 10
-106.91
 20
-42.5
 11
-106.9
 21
-42.5
  0
LINE
  8
0
 10
-106.9
 20
-42.5
 11
-106.9
 21
-62.5
  0
LINE
  8
0
 10
-106.9
 20
-62.5
 11
-106.91
 21
-62.5
  0
LINE
  8
0
 10
-29.64
 20
-62.5
 11
-29.64
 21
-42.5
  0
LINE
  8
0
 10
-29.64
 20
-42.5
 11
-29.63
 21
-42.5
  0
LINE
  8
0
 10
-29.63
 20
-42.5
 11
-29.63
 21
-62.5
  0
LINE
  8
0
 10
-29.63
 20
-62.5
 11
-29.64
 21
-62.5
  0
LINE
  8
0
 10
-21.64
 20
-62.5
 11
-21.64
 21
-42.5
  0
LINE
  8
0
 10
-21.64
 20
-42.5
 11
-21.63
 21
-42.5
  0
LINE
  8
0
 10
-21.63
 20
-42.5
 11
-21.63
 21
-62.5
  0
LINE
  8
0
 10
-21.63
 20
-62.5
 11
-21.64
 21
-62.5
  0
LINE
  8
0
 10
-37.6399
 20
-62.5
 11
-37.6399
 21
-42.5
  0
LINE
  8
0
 10
-37.6399
 20
-42.5
 11
-37.6299
 21
-42.5
  0
LINE
  8
0
 10
-37.6299
 20
-42.5
 11
-37.6299
 21
-62.5
  0
LINE
  8
0
 10
-37.6299
 20
-62.5
 11
-37.6399
 21
-62.5
  0
LINE
  8
0
 10
-86.9099
 20
-62.5
 11
-86.9099
 21
-42.5
  0
LINE
  8
0
 10
-86.9099
 20
-42.5
 11
-86.8999
 21
-42.5
  0
LINE
  8
0
 10
-86.8999
 20
-42.5
 11
-86.8999
 21
-62.5
  0
LINE
  8
0
 10
-86.8999
 20
-62.5
 11
-86.9099
 21
-62.5
  0
LINE
  8
0
 10
-114.91
 20
-62.5
 11
-114.91
 21
-42.5
  0
LINE
  8
0
 10
-114.91
 20
-42.5
 11
-114.9
 21
-42.5
  0
LINE
  8
0
 10
-114.9
 20
-42.5
 11
-114.9
 21
-62.5
  0
LINE
  8
0
 10
-114.9
 20
-62.5
 11
-114.91
 21
-62.5
  0
LINE
  8
0
 10
-118.91
 20
-62.5
 11
-118.91
 21
-42.5
  0
LINE
  8
0
 10
-118.91
 20
-42.5
 11
-118.9
 21
-42.5
  0
LINE
  8
0
 10
-118.9
 20
-42.5
 11
-118.9
 21
-62.5
  0
LINE
  8
0
 10
-118.9
 20
-62.5
 11
-118.91
 21
-62.5
  0
LINE
  8
0
 10
-102.91
 20
-62.5
 11
-102.91
 21
-42.5
  0
LINE
  8
0
 10
-102.91
 20
-42.5
 11
-102.9
 21
-42.5
  0
LINE
  8
0
 10
-102.9
 20
-42.5
 11
-102.9
 21
-62.5
  0
LINE
  8
0
 10
-102.9
 20
-62.5
 11
-102.91
 21
-62.5
  0
LINE
  8
0
 10
-122.91
 20
-62.5
 11
-122.91
 21
-42.5
  0
LINE
  8
0
 10
-122.91
 20
-42.5
 11
-122.9
 21
-42.5
  0
LINE
  8
0
 10
-122.9
 20
-42.5
 11
-122.9
 21
-62.5
  0
LINE
  8
0
 10
-122.9
 20
-62.5
 11
-122.91
 21
-62.5
  0
LINE
  8
0
 10
-110.91
 20
-62.5
 11
-110.91
 21
-42.5
  0
LINE
  8
0
 10
-110.91
 20
-42.5
 11
-110.9
 21
-42.5
  0
LINE
  8
0
 10
-110.9
 20
-42.5
 11
-110.9
 21
-62.5
  0
LINE
  8
0
 10
-110.9
 20
-62.5
 11
-110.91
 21
-62.5
  0
LINE
  8
0
 10
-94.9099
 20
-62.5
 11
-94.9099
 21
-42.5
  0
LINE
  8
0
 10
-94.9099
 20
-42.5
 11
-94.8999
 21
-42.5
  0
LINE
  8
0
 10
-94.8999
 20
-42.5
 11
-94.8999
 21
-62.5
  0
LINE
  8
0
 10
-94.8999
 20
-62.5
 11
-94.9099
 21
-62.5
  0
LINE
  8
0
 10
-17.64
 20
-62.5
 11
-17.64
 21
-42.5
  0
LINE
  8
0
 10
-17.64
 20
-42.5
 11
-17.63
 21
-42.5
  0
LINE
  8
0
 10
-17.63
 20
-42.5
 11
-17.63
 21
-62.5
  0
LINE
  8
0
 10
-17.63
 20
-62.5
 11
-17.64
 21
-62.5
  0
LINE
  8
0
 10
-45.6399
 20
-62.5
 11
-45.6399
 21
-42.5
  0
LINE
  8
0
 10
-45.6399
 20
-42.5
 11
-45.6299
 21
-42.5
  0
LINE
  8
0
 10
-45.6299
 20
-42.5
 11
-45.6299
 21
-62.5
  0
LINE
  8
0
 10
-45.6299
 20
-62.5
 11
-45.6399
 21
-62.5
  0
LINE
  8
0
 10
-49.6399
 20
-62.5
 11
-49.6399
 21
-42.5
  0
LINE
  8
0
 10
-49.6399
 20
-42.5
 11
-49.6299
 21
-42.5
  0
LINE
  8
0
 10
-49.6299
 20
-42.5
 11
-49.6299
 21
-62.5
  0
LINE
  8
0
 10
-49.6299
 20
-62.5
 11
-49.6399
 21
-62.5
  0
LINE
  8
0
 10
-33.64
 20
-62.5
 11
-33.64
 21
-42.5
  0
LINE
  8
0
 10
-33.64
 20
-42.5
 11
-33.63
 21
-42.5
  0
LINE
  8
0
 10
-33.63
 20
-42.5
 11
-33.63
 21
-62.5
  0
LINE
  8
0
 10
-33.63
 20
-62.5
 11
-33.64
 21
-62.5
  0
LINE
  8
0
 10
35.6299
 20
-62.5
 11
35.6299
 21
-42.5
  0
LINE
  8
0
 10
35.6299
 20
-42.5
 11
35.6399
 21
-42.5
  0
LINE
  8
0
 10
35.6399
 20
-42.5
 11
35.6399
 21
-62.5
  0
LINE
  8
0
 10
35.6399
 20
-62.5
 11
35.6299
 21
-62.5
  0
LINE
  8
0
 10
19.63
 20
-62.5
 11
19.63
 21
-42.5
  0
LINE
  8
0
 10
19.63
 20
-42.5
 11
19.64
 21
-42.5
  0
LINE
  8
0
 10
19.64
 20
-42.5
 11
19.64
 21
-62.5
  0
LINE
  8
0
 10
19.64
 20
-62.5
 11
19.63
 21
-62.5
  0
LINE
  8
0
 10
23.63
 20
-62.5
 11
23.63
 21
-42.5
  0
LINE
  8
0
 10
23.63
 20
-42.5
 11
23.64
 21
-42.5
  0
LINE
  8
0
 10
23.64
 20
-42.5
 11
23.64
 21
-62.5
  0
LINE
  8
0
 10
23.64
 20
-62.5
 11
23.63
 21
-62.5
  0
LINE
  8
0
 10
51.6299
 20
-62.5
 11
51.6299
 21
-42.5
  0
LINE
  8
0
 10
51.6299
 20
-42.5
 11
51.6399
 21
-42.5
  0
LINE
  8
0
 10
51.6399
 20
-42.5
 11
51.6399
 21
-62.5
  0
LINE
  8
0
 10
51.6399
 20
-62.5
 11
51.6299
 21
-62.5
  0
LINE
  8
0
 10
43.6299
 20
-62.5
 11
43.6299
 21
-42.5
  0
LINE
  8
0
 10
43.6299
 20
-42.5
 11
43.6399
 21
-42.5
  0
LINE
  8
0
 10
43.6399
 20
-42.5
 11
43.6399
 21
-62.5
  0
LINE
  8
0
 10
43.6399
 20
-62.5
 11
43.6299
 21
-62.5
  0
LINE
  8
0
 10
27.63
 20
-62.5
 11
27.63
 21
-42.5
  0
LINE
  8
0
 10
27.63
 20
-42.5
 11
27.64
 21
-42.5
  0
LINE
  8
0
 10
27.64
 20
-42.5
 11
27.64
 21
-62.5
  0
LINE
  8
0
 10
27.64
 20
-62.5
 11
27.63
 21
-62.5
  0
LINE
  8
0
 10
15.63
 20
-62.5
 11
15.63
 21
-42.5
  0
LINE
  8
0
 10
15.63
 20
-42.5
 11
15.64
 21
-42.5
  0
LINE
  8
0
 10
15.64
 20
-42.5
 11
15.64
 21
-62.5
  0
LINE
  8
0
 10
15.64
 20
-62.5
 11
15.63
 21
-62.5
  0
LINE
  8
0
 10
39.6299
 20
-62.5
 11
39.6299
 21
-42.5
  0
LINE
  8
0
 10
39.6299
 20
-42.5
 11
39.6399
 21
-42.5
  0
LINE
  8
0
 10
39.6399
 20
-42.5
 11
39.6399
 21
-62.5
  0
LINE
  8
0
 10
39.6399
 20
-62.5
 11
39.6299
 21
-62.5
  0
LINE
  8
0
 10
47.6299
 20
-62.5
 11
47.6299
 21
-42.5
  0
LINE
  8
0
 10
47.6299
 20
-42.5
 11
47.6399
 21
-42.5
  0
LINE
  8
0
 10
47.6399
 20
-42.5
 11
47.6399
 21
-62.5
  0
LINE
  8
0
 10
47.6399
 20
-62.5
 11
47.6299
 21
-62.5
  0
LINE
  8
0
 10
31.63
 20
-62.5
 11
31.63
 21
-42.5
  0
LINE
  8
0
 10
31.63
 20
-42.5
 11
31.64
 21
-42.5
  0
LINE
  8
0
 10
31.64
 20
-42.5
 11
31.64
 21
-62.5
  0
LINE
  8
0
 10
31.64
 20
-62.5
 11
31.63
 21
-62.5
  0
LINE
  8
0
 10
-25.64
 20
-62.5
 11
-25.64
 21
-42.5
  0
LINE
  8
0
 10
-25.64
 20
-42.5
 11
-25.63
 21
-42.5
  0
LINE
  8
0
 10
-25.63
 20
-42.5
 11
-25.63
 21
-62.5
  0
LINE
  8
0
 10
-25.63
 20
-62.5
 11
-25.64
 21
-62.5
  0
LINE
  8
0
 10
-41.6399
 20
-62.5
 11
-41.6399
 21
-42.5
  0
LINE
  8
0
 10
-41.6399
 20
-42.5
 11
-41.6299
 21
-42.5
  0
LINE
  8
0
 10
-41.6299
 20
-42.5
 11
-41.6299
 21
-62.5
  0
LINE
  8
0
 10
-41.6299
 20
-62.5
 11
-41.6399
 21
-62.5
  0
LINE
  8
0
 10
-53.6399
 20
-62.5
 11
-53.6399
 21
-42.5
  0
LINE
  8
0
 10
-53.6399
 20
-42.5
 11
-53.6299
 21
-42.5
  0
LINE
  8
0
 10
-53.6299
 20
-42.5
 11
-53.6299
 21
-62.5
  0
LINE
  8
0
 10
-53.6299
 20
-62.5
 11
-53.6399
 21
-62.5
  0
LINE
  8
0
 10
108.9
 20
-62.5
 11
108.9
 21
-42.5
  0
LINE
  8
0
 10
108.9
 20
-42.5
 11
108.91
 21
-42.5
  0
LINE
  8
0
 10
108.91
 20
-42.5
 11
108.91
 21
-62.5
  0
LINE
  8
0
 10
108.91
 20
-62.5
 11
108.9
 21
-62.5
  0
LINE
  8
0
 10
116.9
 20
-62.5
 11
116.9
 21
-42.5
  0
LINE
  8
0
 10
116.9
 20
-42.5
 11
116.91
 21
-42.5
  0
LINE
  8
0
 10
116.91
 20
-42.5
 11
116.91
 21
-62.5
  0
LINE
  8
0
 10
116.91
 20
-62.5
 11
116.9
 21
-62.5
  0
LINE
  8
0
 10
100.9
 20
-62.5
 11
100.9
 21
-42.5
  0
LINE
  8
0
 10
100.9
 20
-42.5
 11
100.91
 21
-42.5
  0
LINE
  8
0
 10
100.91
 20
-42.5
 11
100.91
 21
-62.5
  0
LINE
  8
0
 10
100.91
 20
-62.5
 11
100.9
 21
-62.5
  0
LINE
  8
0
 10
120.9
 20
-62.5
 11
120.9
 21
-42.5
  0
LINE
  8
0
 10
120.9
 20
-42.5
 11
120.91
 21
-42.5
  0
LINE
  8
0
 10
120.91
 20
-42.5
 11
120.91
 21
-62.5
  0
LINE
  8
0
 10
120.91
 20
-62.5
 11
120.9
 21
-62.5
  0
LINE
  8
0
 10
92.8999
 20
-62.5
 11
92.8999
 21
-42.5
  0
LINE
  8
0
 10
92.8999
 20
-42.5
 11
92.9099
 21
-42.5
  0
LINE
  8
0
 10
92.9099
 20
-42.5
 11
92.9099
 21
-62.5
  0
LINE
  8
0
 10
92.9099
 20
-62.5
 11
92.8999
 21
-62.5
  0
LINE
  8
0
 10
104.9
 20
-62.5
 11
104.9
 21
-42.5
  0
LINE
  8
0
 10
104.9
 20
-42.5
 11
104.91
 21
-42.5
  0
LINE
  8
0
 10
104.91
 20
-42.5
 11
104.91
 21
-62.5
  0
LINE
  8
0
 10
104.91
 20
-62.5
 11
104.9
 21
-62.5
  0
LINE
  8
0
 10
88.8999
 20
-62.5
 11
88.8999
 21
-42.5
  0
LINE
  8
0
 10
88.8999
 20
-42.5
 11
88.9099
 21
-42.5
  0
LINE
  8
0
 10
88.9099
 20
-42.5
 11
88.9099
 21
-62.5
  0
LINE
  8
0
 10
88.9099
 20
-62.5
 11
88.8999
 21
-62.5
  0
LINE
  8
0
 10
21.63
 20
-75
 11
21.63
 21
-55
  0
LINE
  8
0
 10
21.63
 20
-55
 11
21.64
 21
-55
  0
LINE
  8
0
 10
21.64
 20
-55
 11
21.64
 21
-75
  0
LINE
  8
0
 10
21.64
 20
-75
 11
21.63
 21
-75
  0
LINE
  8
0
 10
45.6299
 20
-75
 11
45.6299
 21
-55
  0
LINE
  8
0
 10
45.6299
 20
-55
 11
45.6399
 21
-55
  0
LINE
  8
0
 10
45.6399
 20
-55
 11
45.6399
 21
-75
  0
LINE
  8
0
 10
45.6399
 20
-75
 11
45.6299
 21
-75
  0
LINE
  8
0
 10
37.6299
 20
-75
 11
37.6299
 21
-55
  0
LINE
  8
0
 10
37.6299
 20
-55
 11
37.6399
 21
-55
  0
LINE
  8
0
 10
37.6399
 20
-55
 11
37.6399
 21
-75
  0
LINE
  8
0
 10
37.6399
 20
-75
 11
37.6299
 21
-75
  0
LINE
  8
0
 10
53.6299
 20
-75
 11
53.6299
 21
-55
  0
LINE
  8
0
 10
53.6299
 20
-55
 11
53.6399
 21
-55
  0
LINE
  8
0
 10
53.6399
 20
-55
 11
53.6399
 21
-75
  0
LINE
  8
0
 10
53.6399
 20
-75
 11
53.6299
 21
-75
  0
LINE
  8
0
 10
33.63
 20
-75
 11
33.63
 21
-55
  0
LINE
  8
0
 10
33.63
 20
-55
 11
33.64
 21
-55
  0
LINE
  8
0
 10
33.64
 20
-55
 11
33.64
 21
-75
  0
LINE
  8
0
 10
33.64
 20
-75
 11
33.63
 21
-75
  0
LINE
  8
0
 10
17.63
 20
-75
 11
17.63
 21
-55
  0
LINE
  8
0
 10
17.63
 20
-55
 11
17.64
 21
-55
  0
LINE
  8
0
 10
17.64
 20
-55
 11
17.64
 21
-75
  0
LINE
  8
0
 10
17.64
 20
-75
 11
17.63
 21
-75
  0
LINE
  8
0
 10
25.63
 20
-75
 11
25.63
 21
-55
  0
LINE
  8
0
 10
25.63
 20
-55
 11
25.64
 21
-55
  0
LINE
  8
0
 10
25.64
 20
-55
 11
25.64
 21
-75
  0
LINE
  8
0
 10
25.64
 20
-75
 11
25.63
 21
-75
  0
LINE
  8
0
 10
49.6299
 20
-75
 11
49.6299
 21
-55
  0
LINE
  8
0
 10
49.6299
 20
-55
 11
49.6399
 21
-55
  0
LINE
  8
0
 10
49.6399
 20
-55
 11
49.6399
 21
-75
  0
LINE
  8
0
 10
49.6399
 20
-75
 11
49.6299
 21
-75
  0
LINE
  8
0
 10
-19.64
 20
-75
 11
-19.64
 21
-55
  0
LINE
  8
0
 10
-19.64
 20
-55
 11
-19.63
 21
-55
  0
LINE
  8
0
 10
-19.63
 20
-55
 11
-19.63
 21
-75
  0
LINE
  8
0
 10
-19.63
 20
-75
 11
-19.64
 21
-75
  0
LINE
  8
0
 10
-43.6399
 20
-75
 11
-43.6399
 21
-55
  0
LINE
  8
0
 10
-43.6399
 20
-55
 11
-43.6299
 21
-55
  0
LINE
  8
0
 10
-43.6299
 20
-55
 11
-43.6299
 21
-75
  0
LINE
  8
0
 10
-43.6299
 20
-75
 11
-43.6399
 21
-75
  0
LINE
  8
0
 10
-51.6399
 20
-75
 11
-51.6399
 21
-55
  0
LINE
  8
0
 10
-51.6399
 20
-55
 11
-51.6299
 21
-55
  0
LINE
  8
0
 10
-51.6299
 20
-55
 11
-51.6299
 21
-75
  0
LINE
  8
0
 10
-51.6299
 20
-75
 11
-51.6399
 21
-75
  0
LINE
  8
0
 10
-35.6399
 20
-75
 11
-35.6399
 21
-55
  0
LINE
  8
0
 10
-35.6399
 20
-55
 11
-35.6299
 21
-55
  0
LINE
  8
0
 10
-35.6299
 20
-55
 11
-35.6299
 21
-75
  0
LINE
  8
0
 10
-35.6299
 20
-75
 11
-35.6399
 21
-75
  0
LINE
  8
0
 10
-15.64
 20
-75
 11
-15.64
 21
-55
  0
LINE
  8
0
 10
-15.64
 20
-55
 11
-15.63
 21
-55
  0
LINE
  8
0
 10
-15.63
 20
-55
 11
-15.63
 21
-75
  0
LINE
  8
0
 10
-15.63
 20
-75
 11
-15.64
 21
-75
  0
LINE
  8
0
 10
29.63
 20
-75
 11
29.63
 21
-55
  0
LINE
  8
0
 10
29.63
 20
-55
 11
29.64
 21
-55
  0
LINE
  8
0
 10
29.64
 20
-55
 11
29.64
 21
-75
  0
LINE
  8
0
 10
29.64
 20
-75
 11
29.63
 21
-75
  0
LINE
  8
0
 10
41.6299
 20
-75
 11
41.6299
 21
-55
  0
LINE
  8
0
 10
41.6299
 20
-55
 11
41.6399
 21
-55
  0
LINE
  8
0
 10
41.6399
 20
-55
 11
41.6399
 21
-75
  0
LINE
  8
0
 10
41.6399
 20
-75
 11
41.6299
 21
-75
  0
LINE
  8
0
 10
118.9
 20
-75
 11
118.9
 21
-55
  0
LINE
  8
0
 10
118.9
 20
-55
 11
118.91
 21
-55
  0
LINE
  8
0
 10
118.91
 20
-55
 11
118.91
 21
-75
  0
LINE
  8
0
 10
118.91
 20
-75
 11
118.9
 21
-75
  0
LINE
  8
0
 10
94.8999
 20
-75
 11
94.8999
 21
-55
  0
LINE
  8
0
 10
94.8999
 20
-55
 11
94.9099
 21
-55
  0
LINE
  8
0
 10
94.9099
 20
-55
 11
94.9099
 21
-75
  0
LINE
  8
0
 10
94.9099
 20
-75
 11
94.8999
 21
-75
  0
LINE
  8
0
 10
86.8999
 20
-75
 11
86.8999
 21
-55
  0
LINE
  8
0
 10
86.8999
 20
-55
 11
86.9099
 21
-55
  0
LINE
  8
0
 10
86.9099
 20
-55
 11
86.9099
 21
-75
  0
LINE
  8
0
 10
86.9099
 20
-75
 11
86.8999
 21
-75
  0
LINE
  8
0
 10
102.9
 20
-75
 11
102.9
 21
-55
  0
LINE
  8
0
 10
102.9
 20
-55
 11
102.91
 21
-55
  0
LINE
  8
0
 10
102.91
 20
-55
 11
102.91
 21
-75
  0
LINE
  8
0
 10
102.91
 20
-75
 11
102.9
 21
-75
  0
LINE
  8
0
 10
122.9
 20
-75
 11
122.9
 21
-55
  0
LINE
  8
0
 10
122.9
 20
-55
 11
122.91
 21
-55
  0
LINE
  8
0
 10
122.91
 20
-55
 11
122.91
 21
-75
  0
LINE
  8
0
 10
122.91
 20
-75
 11
122.9
 21
-75
  0
LINE
  8
0
 10
106.9
 20
-75
 11
106.9
 21
-55
  0
LINE
  8
0
 10
106.9
 20
-55
 11
106.91
 21
-55
  0
LINE
  8
0
 10
106.91
 20
-55
 11
106.91
 21
-75
  0
LINE
  8
0
 10
106.91
 20
-75
 11
106.9
 21
-75
  0
LINE
  8
0
 10
114.9
 20
-75
 11
114.9
 21
-55
  0
LINE
  8
0
 10
114.9
 20
-55
 11
114.91
 21
-55
  0
LINE
  8
0
 10
114.91
 20
-55
 11
114.91
 21
-75
  0
LINE
  8
0
 10
114.91
 20
-75
 11
114.9
 21
-75
  0
LINE
  8
0
 10
90.8999
 20
-75
 11
90.8999
 21
-55
  0
LINE
  8
0
 10
90.8999
 20
-55
 11
90.9099
 21
-55
  0
LINE
  8
0
 10
90.9099
 20
-55
 11
90.9099
 21
-75
  0
LINE
  8
0
 10
90.9099
 20
-75
 11
90.8999
 21
-75
  0
LINE
  8
0
 10
98.8999
 20
-75
 11
98.8999
 21
-55
  0
LINE
  8
0
 10
98.8999
 20
-55
 11
98.9099
 21
-55
  0
LINE
  8
0
 10
98.9099
 20
-55
 11
98.9099
 21
-75
  0
LINE
  8
0
 10
98.9099
 20
-75
 11
98.8999
 21
-75
  0
LINE
  8
0
 10
110.9
 20
-75
 11
110.9
 21
-55
  0
LINE
  8
0
 10
110.9
 20
-55
 11
110.91
 21
-55
  0
LINE
  8
0
 10
110.91
 20
-55
 11
110.91
 21
-75
  0
LINE
  8
0
 10
110.91
 20
-75
 11
110.9
 21
-75
  0
LINE
  8
0
 10
-27.64
 20
-75
 11
-27.64
 21
-55
  0
LINE
  8
0
 10
-27.64
 20
-55
 11
-27.63
 21
-55
  0
LINE
  8
0
 10
-27.63
 20
-55
 11
-27.63
 21
-75
  0
LINE
  8
0
 10
-27.63
 20
-75
 11
-27.64
 21
-75
  0
LINE
  8
0
 10
-39.6399
 20
-75
 11
-39.6399
 21
-55
  0
LINE
  8
0
 10
-39.6399
 20
-55
 11
-39.6299
 21
-55
  0
LINE
  8
0
 10
-39.6299
 20
-55
 11
-39.6299
 21
-75
  0
LINE
  8
0
 10
-39.6299
 20
-75
 11
-39.6399
 21
-75
  0
LINE
  8
0
 10
-23.64
 20
-75
 11
-23.64
 21
-55
  0
LINE
  8
0
 10
-23.64
 20
-55
 11
-23.63
 21
-55
  0
LINE
  8
0
 10
-23.63
 20
-55
 11
-23.63
 21
-75
  0
LINE
  8
0
 10
-23.63
 20
-75
 11
-23.64
 21
-75
  0
LINE
  8
0
 10
-47.6399
 20
-75
 11
-47.6399
 21
-55
  0
LINE
  8
0
 10
-47.6399
 20
-55
 11
-47.6299
 21
-55
  0
LINE
  8
0
 10
-47.6299
 20
-55
 11
-47.6299
 21
-75
  0
LINE
  8
0
 10
-47.6299
 20
-75
 11
-47.6399
 21
-75
  0
LINE
  8
0
 10
-104.91
 20
-75
 11
-104.91
 21
-55
  0
LINE
  8
0
 10
-104.91
 20
-55
 11
-104.9
 21
-55
  0
LINE
  8
0
 10
-104.9
 20
-55
 11
-104.9
 21
-75
  0
LINE
  8
0
 10
-104.9
 20
-75
 11
-104.91
 21
-75
  0
LINE
  8
0
 10
-84.9099
 20
-75
 11
-84.9099
 21
-55
  0
LINE
  8
0
 10
-84.9099
 20
-55
 11
-84.8999
 21
-55
  0
LINE
  8
0
 10
-84.8999
 20
-55
 11
-84.8999
 21
-75
  0
LINE
  8
0
 10
-84.8999
 20
-75
 11
-84.9099
 21
-75
  0
LINE
  8
0
 10
-88.9099
 20
-75
 11
-88.9099
 21
-55
  0
LINE
  8
0
 10
-88.9099
 20
-55
 11
-88.8999
 21
-55
  0
LINE
  8
0
 10
-88.8999
 20
-55
 11
-88.8999
 21
-75
  0
LINE
  8
0
 10
-88.8999
 20
-75
 11
-88.9099
 21
-75
  0
LINE
  8
0
 10
-112.91
 20
-75
 11
-112.91
 21
-55
  0
LINE
  8
0
 10
-112.91
 20
-55
 11
-112.9
 21
-55
  0
LINE
  8
0
 10
-112.9
 20
-55
 11
-112.9
 21
-75
  0
LINE
  8
0
 10
-112.9
 20
-75
 11
-112.91
 21
-75
  0
LINE
  8
0
 10
-100.91
 20
-75
 11
-100.91
 21
-55
  0
LINE
  8
0
 10
-100.91
 20
-55
 11
-100.9
 21
-55
  0
LINE
  8
0
 10
-100.9
 20
-55
 11
-100.9
 21
-75
  0
LINE
  8
0
 10
-100.9
 20
-75
 11
-100.91
 21
-75
  0
LINE
  8
0
 10
-92.9099
 20
-75
 11
-92.9099
 21
-55
  0
LINE
  8
0
 10
-92.9099
 20
-55
 11
-92.8999
 21
-55
  0
LINE
  8
0
 10
-92.8999
 20
-55
 11
-92.8999
 21
-75
  0
LINE
  8
0
 10
-92.8999
 20
-75
 11
-92.9099
 21
-75
  0
LINE
  8
0
 10
-116.91
 20
-75
 11
-116.91
 21
-55
  0
LINE
  8
0
 10
-116.91
 20
-55
 11
-116.9
 21
-55
  0
LINE
  8
0
 10
-116.9
 20
-55
 11
-116.9
 21
-75
  0
LINE
  8
0
 10
-116.9
 20
-75
 11
-116.91
 21
-75
  0
LINE
  8
0
 10
-108.91
 20
-75
 11
-108.91
 21
-55
  0
LINE
  8
0
 10
-108.91
 20
-55
 11
-108.9
 21
-55
  0
LINE
  8
0
 10
-108.9
 20
-55
 11
-108.9
 21
-75
  0
LINE
  8
0
 10
-108.9
 20
-75
 11
-108.91
 21
-75
  0
LINE
  8
0
 10
-96.9099
 20
-75
 11
-96.9099
 21
-55
  0
LINE
  8
0
 10
-96.9099
 20
-55
 11
-96.8999
 21
-55
  0
LINE
  8
0
 10
-96.8999
 20
-55
 11
-96.8999
 21
-75
  0
LINE
  8
0
 10
-96.8999
 20
-75
 11
-96.9099
 21
-75
  0
LINE
  8
0
 10
-120.91
 20
-75
 11
-120.91
 21
-55
  0
LINE
  8
0
 10
-120.91
 20
-55
 11
-120.9
 21
-55
  0
LINE
  8
0
 10
-120.9
 20
-55
 11
-120.9
 21
-75
  0
LINE
  8
0
 10
-120.9
 20
-75
 11
-120.91
 21
-75
  0
LINE
  8
0
 10
-31.64
 20
-75
 11
-31.64
 21
-55
  0
LINE
  8
0
 10
-31.64
 20
-55
 11
-31.63
 21
-55
  0
LINE
  8
0
 10
-31.63
 20
-55
 11
-31.63
 21
-75
  0
LINE
  8
0
 10
-31.63
 20
-75
 11
-31.64
 21
-75
  0
LINE
  8
0
 10
-94.9099
 20
-87.5
 11
-94.9099
 21
-67.5
  0
LINE
  8
0
 10
-94.9099
 20
-67.5
 11
-94.8999
 21
-67.5
  0
LINE
  8
0
 10
-94.8999
 20
-67.5
 11
-94.8999
 21
-87.5
  0
LINE
  8
0
 10
-94.8999
 20
-87.5
 11
-94.9099
 21
-87.5
  0
LINE
  8
0
 10
-86.9099
 20
-87.5
 11
-86.9099
 21
-67.5
  0
LINE
  8
0
 10
-86.9099
 20
-67.5
 11
-86.8999
 21
-67.5
  0
LINE
  8
0
 10
-86.8999
 20
-67.5
 11
-86.8999
 21
-87.5
  0
LINE
  8
0
 10
-86.8999
 20
-87.5
 11
-86.9099
 21
-87.5
  0
LINE
  8
0
 10
-118.91
 20
-87.5
 11
-118.91
 21
-67.5
  0
LINE
  8
0
 10
-118.91
 20
-67.5
 11
-118.9
 21
-67.5
  0
LINE
  8
0
 10
-118.9
 20
-67.5
 11
-118.9
 21
-87.5
  0
LINE
  8
0
 10
-118.9
 20
-87.5
 11
-118.91
 21
-87.5
  0
LINE
  8
0
 10
-114.91
 20
-87.5
 11
-114.91
 21
-67.5
  0
LINE
  8
0
 10
-114.91
 20
-67.5
 11
-114.9
 21
-67.5
  0
LINE
  8
0
 10
-114.9
 20
-67.5
 11
-114.9
 21
-87.5
  0
LINE
  8
0
 10
-114.9
 20
-87.5
 11
-114.91
 21
-87.5
  0
LINE
  8
0
 10
-90.9099
 20
-87.5
 11
-90.9099
 21
-67.5
  0
LINE
  8
0
 10
-90.9099
 20
-67.5
 11
-90.8999
 21
-67.5
  0
LINE
  8
0
 10
-90.8999
 20
-67.5
 11
-90.8999
 21
-87.5
  0
LINE
  8
0
 10
-90.8999
 20
-87.5
 11
-90.9099
 21
-87.5
  0
LINE
  8
0
 10
116.9
 20
-87.5
 11
116.9
 21
-67.5
  0
LINE
  8
0
 10
116.9
 20
-67.5
 11
116.91
 21
-67.5
  0
LINE
  8
0
 10
116.91
 20
-67.5
 11
116.91
 21
-87.5
  0
LINE
  8
0
 10
116.91
 20
-87.5
 11
116.9
 21
-87.5
  0
LINE
  8
0
 10
92.8999
 20
-87.5
 11
92.8999
 21
-67.5
  0
LINE
  8
0
 10
92.8999
 20
-67.5
 11
92.9099
 21
-67.5
  0
LINE
  8
0
 10
92.9099
 20
-67.5
 11
92.9099
 21
-87.5
  0
LINE
  8
0
 10
92.9099
 20
-87.5
 11
92.8999
 21
-87.5
  0
LINE
  8
0
 10
88.8999
 20
-87.5
 11
88.8999
 21
-67.5
  0
LINE
  8
0
 10
88.8999
 20
-67.5
 11
88.9099
 21
-67.5
  0
LINE
  8
0
 10
88.9099
 20
-67.5
 11
88.9099
 21
-87.5
  0
LINE
  8
0
 10
88.9099
 20
-87.5
 11
88.8999
 21
-87.5
  0
LINE
  8
0
 10
120.9
 20
-87.5
 11
120.9
 21
-67.5
  0
LINE
  8
0
 10
120.9
 20
-67.5
 11
120.91
 21
-67.5
  0
LINE
  8
0
 10
120.91
 20
-67.5
 11
120.91
 21
-87.5
  0
LINE
  8
0
 10
120.91
 20
-87.5
 11
120.9
 21
-87.5
  0
LINE
  8
0
 10
-21.64
 20
-87.5
 11
-21.64
 21
-67.5
  0
LINE
  8
0
 10
-21.64
 20
-67.5
 11
-21.63
 21
-67.5
  0
LINE
  8
0
 10
-21.63
 20
-67.5
 11
-21.63
 21
-87.5
  0
LINE
  8
0
 10
-21.63
 20
-87.5
 11
-21.64
 21
-87.5
  0
LINE
  8
0
 10
-45.6399
 20
-87.5
 11
-45.6399
 21
-67.5
  0
LINE
  8
0
 10
-45.6399
 20
-67.5
 11
-45.6299
 21
-67.5
  0
LINE
  8
0
 10
-45.6299
 20
-67.5
 11
-45.6299
 21
-87.5
  0
LINE
  8
0
 10
-45.6299
 20
-87.5
 11
-45.6399
 21
-87.5
  0
LINE
  8
0
 10
-49.6399
 20
-87.5
 11
-49.6399
 21
-67.5
  0
LINE
  8
0
 10
-49.6399
 20
-67.5
 11
-49.6299
 21
-67.5
  0
LINE
  8
0
 10
-49.6299
 20
-67.5
 11
-49.6299
 21
-87.5
  0
LINE
  8
0
 10
-49.6299
 20
-87.5
 11
-49.6399
 21
-87.5
  0
LINE
  8
0
 10
-17.64
 20
-87.5
 11
-17.64
 21
-67.5
  0
LINE
  8
0
 10
-17.64
 20
-67.5
 11
-17.63
 21
-67.5
  0
LINE
  8
0
 10
-17.63
 20
-67.5
 11
-17.63
 21
-87.5
  0
LINE
  8
0
 10
-17.63
 20
-87.5
 11
-17.64
 21
-87.5
  0
LINE
  8
0
 10
-25.64
 20
-87.5
 11
-25.64
 21
-67.5
  0
LINE
  8
0
 10
-25.64
 20
-67.5
 11
-25.63
 21
-67.5
  0
LINE
  8
0
 10
-25.63
 20
-67.5
 11
-25.63
 21
-87.5
  0
LINE
  8
0
 10
-25.63
 20
-87.5
 11
-25.64
 21
-87.5
  0
LINE
  8
0
 10
-41.6399
 20
-87.5
 11
-41.6399
 21
-67.5
  0
LINE
  8
0
 10
-41.6399
 20
-67.5
 11
-41.6299
 21
-67.5
  0
LINE
  8
0
 10
-41.6299
 20
-67.5
 11
-41.6299
 21
-87.5
  0
LINE
  8
0
 10
-41.6299
 20
-87.5
 11
-41.6399
 21
-87.5
  0
LINE
  8
0
 10
-53.6399
 20
-87.5
 11
-53.6399
 21
-67.5
  0
LINE
  8
0
 10
-53.6399
 20
-67.5
 11
-53.6299
 21
-67.5
  0
LINE
  8
0
 10
-53.6299
 20
-67.5
 11
-53.6299
 21
-87.5
  0
LINE
  8
0
 10
-53.6299
 20
-87.5
 11
-53.6399
 21
-87.5
  0
LINE
  8
0
 10
-37.6399
 20
-87.5
 11
-37.6399
 21
-67.5
  0
LINE
  8
0
 10
-37.6399
 20
-67.5
 11
-37.6299
 21
-67.5
  0
LINE
  8
0
 10
-37.6299
 20
-67.5
 11
-37.6299
 21
-87.5
  0
LINE
  8
0
 10
-37.6299
 20
-87.5
 11
-37.6399
 21
-87.5
  0
LINE
  8
0
 10
-29.64
 20
-87.5
 11
-29.64
 21
-67.5
  0
LINE
  8
0
 10
-29.64
 20
-67.5
 11
-29.63
 21
-67.5
  0
LINE
  8
0
 10
-29.63
 20
-67.5
 11
-29.63
 21
-87.5
  0
LINE
  8
0
 10
-29.63
 20
-87.5
 11
-29.64
 21
-87.5
  0
LINE
  8
0
 10
-33.64
 20
-87.5
 11
-33.64
 21
-67.5
  0
LINE
  8
0
 10
-33.64
 20
-67.5
 11
-33.63
 21
-67.5
  0
LINE
  8
0
 10
-33.63
 20
-67.5
 11
-33.63
 21
-87.5
  0
LINE
  8
0
 10
-33.63
 20
-87.5
 11
-33.64
 21
-87.5
  0
LINE
  8
0
 10
112.9
 20
-87.5
 11
112.9
 21
-67.5
  0
LINE
  8
0
 10
112.9
 20
-67.5
 11
112.91
 21
-67.5
  0
LINE
  8
0
 10
112.91
 20
-67.5
 11
112.91
 21
-87.5
  0
LINE
  8
0
 10
112.91
 20
-87.5
 11
112.9
 21
-87.5
  0
LINE
  8
0
 10
96.8999
 20
-87.5
 11
96.8999
 21
-67.5
  0
LINE
  8
0
 10
96.8999
 20
-67.5
 11
96.9099
 21
-67.5
  0
LINE
  8
0
 10
96.9099
 20
-67.5
 11
96.9099
 21
-87.5
  0
LINE
  8
0
 10
96.9099
 20
-87.5
 11
96.8999
 21
-87.5
  0
LINE
  8
0
 10
84.8999
 20
-87.5
 11
84.8999
 21
-67.5
  0
LINE
  8
0
 10
84.8999
 20
-67.5
 11
84.9099
 21
-67.5
  0
LINE
  8
0
 10
84.9099
 20
-67.5
 11
84.9099
 21
-87.5
  0
LINE
  8
0
 10
84.9099
 20
-87.5
 11
84.8999
 21
-87.5
  0
LINE
  8
0
 10
100.9
 20
-87.5
 11
100.9
 21
-67.5
  0
LINE
  8
0
 10
100.9
 20
-67.5
 11
100.91
 21
-67.5
  0
LINE
  8
0
 10
100.91
 20
-67.5
 11
100.91
 21
-87.5
  0
LINE
  8
0
 10
100.91
 20
-87.5
 11
100.9
 21
-87.5
  0
LINE
  8
0
 10
108.9
 20
-87.5
 11
108.9
 21
-67.5
  0
LINE
  8
0
 10
108.9
 20
-67.5
 11
108.91
 21
-67.5
  0
LINE
  8
0
 10
108.91
 20
-67.5
 11
108.91
 21
-87.5
  0
LINE
  8
0
 10
108.91
 20
-87.5
 11
108.9
 21
-87.5
  0
LINE
  8
0
 10
104.9
 20
-87.5
 11
104.9
 21
-67.5
  0
LINE
  8
0
 10
104.9
 20
-67.5
 11
104.91
 21
-67.5
  0
LINE
  8
0
 10
104.91
 20
-67.5
 11
104.91
 21
-87.5
  0
LINE
  8
0
 10
104.91
 20
-87.5
 11
104.9
 21
-87.5
  0
LINE
  8
0
 10
47.6299
 20
-87.5
 11
47.6299
 21
-67.5
  0
LINE
  8
0
 10
47.6299
 20
-67.5
 11
47.6399
 21
-67.5
  0
LINE
  8
0
 10
47.6399
 20
-67.5
 11
47.6399
 21
-87.5
  0
LINE
  8
0
 10
47.6399
 20
-87.5
 11
47.6299
 21
-87.5
  0
LINE
  8
0
 10
23.63
 20
-87.5
 11
23.63
 21
-67.5
  0
LINE
  8
0
 10
23.63
 20
-67.5
 11
23.64
 21
-67.5
  0
LINE
  8
0
 10
23.64
 20
-67.5
 11
23.64
 21
-87.5
  0
LINE
  8
0
 10
23.64
 20
-87.5
 11
23.63
 21
-87.5
  0
LINE
  8
0
 10
19.63
 20
-87.5
 11
19.63
 21
-67.5
  0
LINE
  8
0
 10
19.63
 20
-67.5
 11
19.64
 21
-67.5
  0
LINE
  8
0
 10
19.64
 20
-67.5
 11
19.64
 21
-87.5
  0
LINE
  8
0
 10
19.64
 20
-87.5
 11
19.63
 21
-87.5
  0
LINE
  8
0
 10
51.6299
 20
-87.5
 11
51.6299
 21
-67.5
  0
LINE
  8
0
 10
51.6299
 20
-67.5
 11
51.6399
 21
-67.5
  0
LINE
  8
0
 10
51.6399
 20
-67.5
 11
51.6399
 21
-87.5
  0
LINE
  8
0
 10
51.6399
 20
-87.5
 11
51.6299
 21
-87.5
  0
LINE
  8
0
 10
43.6299
 20
-87.5
 11
43.6299
 21
-67.5
  0
LINE
  8
0
 10
43.6299
 20
-67.5
 11
43.6399
 21
-67.5
  0
LINE
  8
0
 10
43.6399
 20
-67.5
 11
43.6399
 21
-87.5
  0
LINE
  8
0
 10
43.6399
 20
-87.5
 11
43.6299
 21
-87.5
  0
LINE
  8
0
 10
27.63
 20
-87.5
 11
27.63
 21
-67.5
  0
LINE
  8
0
 10
27.63
 20
-67.5
 11
27.64
 21
-67.5
  0
LINE
  8
0
 10
27.64
 20
-67.5
 11
27.64
 21
-87.5
  0
LINE
  8
0
 10
27.64
 20
-87.5
 11
27.63
 21
-87.5
  0
LINE
  8
0
 10
15.63
 20
-87.5
 11
15.63
 21
-67.5
  0
LINE
  8
0
 10
15.63
 20
-67.5
 11
15.64
 21
-67.5
  0
LINE
  8
0
 10
15.64
 20
-67.5
 11
15.64
 21
-87.5
  0
LINE
  8
0
 10
15.64
 20
-87.5
 11
15.63
 21
-87.5
  0
LINE
  8
0
 10
31.63
 20
-87.5
 11
31.63
 21
-67.5
  0
LINE
  8
0
 10
31.63
 20
-67.5
 11
31.64
 21
-67.5
  0
LINE
  8
0
 10
31.64
 20
-67.5
 11
31.64
 21
-87.5
  0
LINE
  8
0
 10
31.64
 20
-87.5
 11
31.63
 21
-87.5
  0
LINE
  8
0
 10
39.6299
 20
-87.5
 11
39.6299
 21
-67.5
  0
LINE
  8
0
 10
39.6299
 20
-67.5
 11
39.6399
 21
-67.5
  0
LINE
  8
0
 10
39.6399
 20
-67.5
 11
39.6399
 21
-87.5
  0
LINE
  8
0
 10
39.6399
 20
-87.5
 11
39.6299
 21
-87.5
  0
LINE
  8
0
 10
35.6299
 20
-87.5
 11
35.6299
 21
-67.5
  0
LINE
  8
0
 10
35.6299
 20
-67.5
 11
35.6399
 21
-67.5
  0
LINE
  8
0
 10
35.6399
 20
-67.5
 11
35.6399
 21
-87.5
  0
LINE
  8
0
 10
35.6399
 20
-87.5
 11
35.6299
 21
-87.5
  0
LINE
  8
0
 10
-102.91
 20
-87.5
 11
-102.91
 21
-67.5
  0
LINE
  8
0
 10
-102.91
 20
-67.5
 11
-102.9
 21
-67.5
  0
LINE
  8
0
 10
-102.9
 20
-67.5
 11
-102.9
 21
-87.5
  0
LINE
  8
0
 10
-102.9
 20
-87.5
 11
-102.91
 21
-87.5
  0
LINE
  8
0
 10
-98.9099
 20
-87.5
 11
-98.9099
 21
-67.5
  0
LINE
  8
0
 10
-98.9099
 20
-67.5
 11
-98.8999
 21
-67.5
  0
LINE
  8
0
 10
-98.8999
 20
-67.5
 11
-98.8999
 21
-87.5
  0
LINE
  8
0
 10
-98.8999
 20
-87.5
 11
-98.9099
 21
-87.5
  0
LINE
  8
0
 10
-106.91
 20
-87.5
 11
-106.91
 21
-67.5
  0
LINE
  8
0
 10
-106.91
 20
-67.5
 11
-106.9
 21
-67.5
  0
LINE
  8
0
 10
-106.9
 20
-67.5
 11
-106.9
 21
-87.5
  0
LINE
  8
0
 10
-106.9
 20
-87.5
 11
-106.91
 21
-87.5
  0
LINE
  8
0
 10
-122.91
 20
-87.5
 11
-122.91
 21
-67.5
  0
LINE
  8
0
 10
-122.91
 20
-67.5
 11
-122.9
 21
-67.5
  0
LINE
  8
0
 10
-122.9
 20
-67.5
 11
-122.9
 21
-87.5
  0
LINE
  8
0
 10
-122.9
 20
-87.5
 11
-122.91
 21
-87.5
  0
LINE
  8
0
 10
-110.91
 20
-87.5
 11
-110.91
 21
-67.5
  0
LINE
  8
0
 10
-110.91
 20
-67.5
 11
-110.9
 21
-67.5
  0
LINE
  8
0
 10
-110.9
 20
-67.5
 11
-110.9
 21
-87.5
  0
LINE
  8
0
 10
-110.9
 20
-87.5
 11
-110.91
 21
-87.5
  0
LINE
  8
0
 10
110.9
 20
-100
 11
110.9
 21
-80
  0
LINE
  8
0
 10
110.9
 20
-80
 11
110.91
 21
-80
  0
LINE
  8
0
 10
110.91
 20
-80
 11
110.91
 21
-100
  0
LINE
  8
0
 10
110.91
 20
-100
 11
110.9
 21
-100
  0
LINE
  8
0
 10
102.9
 20
-100
 11
102.9
 21
-80
  0
LINE
  8
0
 10
102.9
 20
-80
 11
102.91
 21
-80
  0
LINE
  8
0
 10
102.91
 20
-80
 11
102.91
 21
-100
  0
LINE
  8
0
 10
102.91
 20
-100
 11
102.9
 21
-100
  0
LINE
  8
0
 10
94.8999
 20
-100
 11
94.8999
 21
-80
  0
LINE
  8
0
 10
94.8999
 20
-80
 11
94.9099
 21
-80
  0
LINE
  8
0
 10
94.9099
 20
-80
 11
94.9099
 21
-100
  0
LINE
  8
0
 10
94.9099
 20
-100
 11
94.8999
 21
-100
  0
LINE
  8
0
 10
90.8999
 20
-100
 11
90.8999
 21
-80
  0
LINE
  8
0
 10
90.8999
 20
-80
 11
90.9099
 21
-80
  0
LINE
  8
0
 10
90.9099
 20
-80
 11
90.9099
 21
-100
  0
LINE
  8
0
 10
90.9099
 20
-100
 11
90.8999
 21
-100
  0
LINE
  8
0
 10
114.9
 20
-100
 11
114.9
 21
-80
  0
LINE
  8
0
 10
114.9
 20
-80
 11
114.91
 21
-80
  0
LINE
  8
0
 10
114.91
 20
-80
 11
114.91
 21
-100
  0
LINE
  8
0
 10
114.91
 20
-100
 11
114.9
 21
-100
  0
LINE
  8
0
 10
86.8999
 20
-100
 11
86.8999
 21
-80
  0
LINE
  8
0
 10
86.8999
 20
-80
 11
86.9099
 21
-80
  0
LINE
  8
0
 10
86.9099
 20
-80
 11
86.9099
 21
-100
  0
LINE
  8
0
 10
86.9099
 20
-100
 11
86.8999
 21
-100
  0
LINE
  8
0
 10
118.9
 20
-100
 11
118.9
 21
-80
  0
LINE
  8
0
 10
118.9
 20
-80
 11
118.91
 21
-80
  0
LINE
  8
0
 10
118.91
 20
-80
 11
118.91
 21
-100
  0
LINE
  8
0
 10
118.91
 20
-100
 11
118.9
 21
-100
  0
LINE
  8
0
 10
98.8999
 20
-100
 11
98.8999
 21
-80
  0
LINE
  8
0
 10
98.8999
 20
-80
 11
98.9099
 21
-80
  0
LINE
  8
0
 10
98.9099
 20
-80
 11
98.9099
 21
-100
  0
LINE
  8
0
 10
98.9099
 20
-100
 11
98.8999
 21
-100
  0
LINE
  8
0
 10
21.63
 20
-100
 11
21.63
 21
-80
  0
LINE
  8
0
 10
21.63
 20
-80
 11
21.64
 21
-80
  0
LINE
  8
0
 10
21.64
 20
-80
 11
21.64
 21
-100
  0
LINE
  8
0
 10
21.64
 20
-100
 11
21.63
 21
-100
  0
LINE
  8
0
 10
29.63
 20
-100
 11
29.63
 21
-80
  0
LINE
  8
0
 10
29.63
 20
-80
 11
29.64
 21
-80
  0
LINE
  8
0
 10
29.64
 20
-80
 11
29.64
 21
-100
  0
LINE
  8
0
 10
29.64
 20
-100
 11
29.63
 21
-100
  0
LINE
  8
0
 10
41.6299
 20
-100
 11
41.6299
 21
-80
  0
LINE
  8
0
 10
41.6299
 20
-80
 11
41.6399
 21
-80
  0
LINE
  8
0
 10
41.6399
 20
-80
 11
41.6399
 21
-100
  0
LINE
  8
0
 10
41.6399
 20
-100
 11
41.6299
 21
-100
  0
LINE
  8
0
 10
33.63
 20
-100
 11
33.63
 21
-80
  0
LINE
  8
0
 10
33.63
 20
-80
 11
33.64
 21
-80
  0
LINE
  8
0
 10
33.64
 20
-80
 11
33.64
 21
-100
  0
LINE
  8
0
 10
33.64
 20
-100
 11
33.63
 21
-100
  0
LINE
  8
0
 10
25.63
 20
-100
 11
25.63
 21
-80
  0
LINE
  8
0
 10
25.63
 20
-80
 11
25.64
 21
-80
  0
LINE
  8
0
 10
25.64
 20
-80
 11
25.64
 21
-100
  0
LINE
  8
0
 10
25.64
 20
-100
 11
25.63
 21
-100
  0
LINE
  8
0
 10
-43.6399
 20
-100
 11
-43.6399
 21
-80
  0
LINE
  8
0
 10
-43.6399
 20
-80
 11
-43.6299
 21
-80
  0
LINE
  8
0
 10
-43.6299
 20
-80
 11
-43.6299
 21
-100
  0
LINE
  8
0
 10
-43.6299
 20
-100
 11
-43.6399
 21
-100
  0
LINE
  8
0
 10
-47.6399
 20
-100
 11
-47.6399
 21
-80
  0
LINE
  8
0
 10
-47.6399
 20
-80
 11
-47.6299
 21
-80
  0
LINE
  8
0
 10
-47.6299
 20
-80
 11
-47.6299
 21
-100
  0
LINE
  8
0
 10
-47.6299
 20
-100
 11
-47.6399
 21
-100
  0
LINE
  8
0
 10
-51.6399
 20
-100
 11
-51.6399
 21
-80
  0
LINE
  8
0
 10
-51.6399
 20
-80
 11
-51.6299
 21
-80
  0
LINE
  8
0
 10
-51.6299
 20
-80
 11
-51.6299
 21
-100
  0
LINE
  8
0
 10
-51.6299
 20
-100
 11
-51.6399
 21
-100
  0
LINE
  8
0
 10
-15.64
 20
-100
 11
-15.64
 21
-80
  0
LINE
  8
0
 10
-15.64
 20
-80
 11
-15.63
 21
-80
  0
LINE
  8
0
 10
-15.63
 20
-80
 11
-15.63
 21
-100
  0
LINE
  8
0
 10
-15.63
 20
-100
 11
-15.64
 21
-100
  0
LINE
  8
0
 10
-31.64
 20
-100
 11
-31.64
 21
-80
  0
LINE
  8
0
 10
-31.64
 20
-80
 11
-31.63
 21
-80
  0
LINE
  8
0
 10
-31.63
 20
-80
 11
-31.63
 21
-100
  0
LINE
  8
0
 10
-31.63
 20
-100
 11
-31.64
 21
-100
  0
LINE
  8
0
 10
-19.64
 20
-100
 11
-19.64
 21
-80
  0
LINE
  8
0
 10
-19.64
 20
-80
 11
-19.63
 21
-80
  0
LINE
  8
0
 10
-19.63
 20
-80
 11
-19.63
 21
-100
  0
LINE
  8
0
 10
-19.63
 20
-100
 11
-19.64
 21
-100
  0
LINE
  8
0
 10
-23.64
 20
-100
 11
-23.64
 21
-80
  0
LINE
  8
0
 10
-23.64
 20
-80
 11
-23.63
 21
-80
  0
LINE
  8
0
 10
-23.63
 20
-80
 11
-23.63
 21
-100
  0
LINE
  8
0
 10
-23.63
 20
-100
 11
-23.64
 21
-100
  0
LINE
  8
0
 10
-35.6399
 20
-100
 11
-35.6399
 21
-80
  0
LINE
  8
0
 10
-35.6399
 20
-80
 11
-35.6299
 21
-80
  0
LINE
  8
0
 10
-35.6299
 20
-80
 11
-35.6299
 21
-100
  0
LINE
  8
0
 10
-35.6299
 20
-100
 11
-35.6399
 21
-100
  0
LINE
  8
0
 10
-27.64
 20
-100
 11
-27.64
 21
-80
  0
LINE
  8
0
 10
-27.64
 20
-80
 11
-27.63
 21
-80
  0
LINE
  8
0
 10
-27.63
 20
-80
 11
-27.63
 21
-100
  0
LINE
  8
0
 10
-27.63
 20
-100
 11
-27.64
 21
-100
  0
LINE
  8
0
 10
-39.6399
 20
-100
 11
-39.6399
 21
-80
  0
LINE
  8
0
 10
-39.6399
 20
-80
 11
-39.6299
 21
-80
  0
LINE
  8
0
 10
-39.6299
 20
-80
 11
-39.6299
 21
-100
  0
LINE
  8
0
 10
-39.6299
 20
-100
 11
-39.6399
 21
-100
  0
LINE
  8
0
 10
45.6299
 20
-100
 11
45.6299
 21
-80
  0
LINE
  8
0
 10
45.6299
 20
-80
 11
45.6399
 21
-80
  0
LINE
  8
0
 10
45.6399
 20
-80
 11
45.6399
 21
-100
  0
LINE
  8
0
 10
45.6399
 20
-100
 11
45.6299
 21
-100
  0
LINE
  8
0
 10
49.6299
 20
-100
 11
49.6299
 21
-80
  0
LINE
  8
0
 10
49.6299
 20
-80
 11
49.6399
 21
-80
  0
LINE
  8
0
 10
49.6399
 20
-80
 11
49.6399
 21
-100
  0
LINE
  8
0
 10
49.6399
 20
-100
 11
49.6299
 21
-100
  0
LINE
  8
0
 10
37.6299
 20
-100
 11
37.6299
 21
-80
  0
LINE
  8
0
 10
37.6299
 20
-80
 11
37.6399
 21
-80
  0
LINE
  8
0
 10
37.6399
 20
-80
 11
37.6399
 21
-100
  0
LINE
  8
0
 10
37.6399
 20
-100
 11
37.6299
 21
-100
  0
LINE
  8
0
 10
53.6299
 20
-100
 11
53.6299
 21
-80
  0
LINE
  8
0
 10
53.6299
 20
-80
 11
53.6399
 21
-80
  0
LINE
  8
0
 10
53.6399
 20
-80
 11
53.6399
 21
-100
  0
LINE
  8
0
 10
53.6399
 20
-100
 11
53.6299
 21
-100
  0
LINE
  8
0
 10
17.63
 20
-100
 11
17.63
 21
-80
  0
LINE
  8
0
 10
17.63
 20
-80
 11
17.64
 21
-80
  0
LINE
  8
0
 10
17.64
 20
-80
 11
17.64
 21
-100
  0
LINE
  8
0
 10
17.64
 20
-100
 11
17.63
 21
-100
  0
LINE
  8
0
 10
-120.91
 20
-100
 11
-120.91
 21
-80
  0
LINE
  8
0
 10
-120.91
 20
-80
 11
-120.9
 21
-80
  0
LINE
  8
0
 10
-120.9
 20
-80
 11
-120.9
 21
-100
  0
LINE
  8
0
 10
-120.9
 20
-100
 11
-120.91
 21
-100
  0
LINE
  8
0
 10
-84.9099
 20
-100
 11
-84.9099
 21
-80
  0
LINE
  8
0
 10
-84.9099
 20
-80
 11
-84.8999
 21
-80
  0
LINE
  8
0
 10
-84.8999
 20
-80
 11
-84.8999
 21
-100
  0
LINE
  8
0
 10
-84.8999
 20
-100
 11
-84.9099
 21
-100
  0
LINE
  8
0
 10
106.9
 20
-100
 11
106.9
 21
-80
  0
LINE
  8
0
 10
106.9
 20
-80
 11
106.91
 21
-80
  0
LINE
  8
0
 10
106.91
 20
-80
 11
106.91
 21
-100
  0
LINE
  8
0
 10
106.91
 20
-100
 11
106.9
 21
-100
  0
LINE
  8
0
 10
122.9
 20
-100
 11
122.9
 21
-80
  0
LINE
  8
0
 10
122.9
 20
-80
 11
122.91
 21
-80
  0
LINE
  8
0
 10
122.91
 20
-80
 11
122.91
 21
-100
  0
LINE
  8
0
 10
122.91
 20
-100
 11
122.9
 21
-100
  0
LINE
  8
0
 10
-108.91
 20
-100
 11
-108.91
 21
-80
  0
LINE
  8
0
 10
-108.91
 20
-80
 11
-108.9
 21
-80
  0
LINE
  8
0
 10
-108.9
 20
-80
 11
-108.9
 21
-100
  0
LINE
  8
0
 10
-108.9
 20
-100
 11
-108.91
 21
-100
  0
LINE
  8
0
 10
-96.9099
 20
-100
 11
-96.9099
 21
-80
  0
LINE
  8
0
 10
-96.9099
 20
-80
 11
-96.8999
 21
-80
  0
LINE
  8
0
 10
-96.8999
 20
-80
 11
-96.8999
 21
-100
  0
LINE
  8
0
 10
-96.8999
 20
-100
 11
-96.9099
 21
-100
  0
LINE
  8
0
 10
-104.91
 20
-100
 11
-104.91
 21
-80
  0
LINE
  8
0
 10
-104.91
 20
-80
 11
-104.9
 21
-80
  0
LINE
  8
0
 10
-104.9
 20
-80
 11
-104.9
 21
-100
  0
LINE
  8
0
 10
-104.9
 20
-100
 11
-104.91
 21
-100
  0
LINE
  8
0
 10
-112.91
 20
-100
 11
-112.91
 21
-80
  0
LINE
  8
0
 10
-112.91
 20
-80
 11
-112.9
 21
-80
  0
LINE
  8
0
 10
-112.9
 20
-80
 11
-112.9
 21
-100
  0
LINE
  8
0
 10
-112.9
 20
-100
 11
-112.91
 21
-100
  0
LINE
  8
0
 10
-116.91
 20
-100
 11
-116.91
 21
-80
  0
LINE
  8
0
 10
-116.91
 20
-80
 11
-116.9
 21
-80
  0
LINE
  8
0
 10
-116.9
 20
-80
 11
-116.9
 21
-100
  0
LINE
  8
0
 10
-116.9
 20
-100
 11
-116.91
 21
-100
  0
LINE
  8
0
 10
-92.9099
 20
-100
 11
-92.9099
 21
-80
  0
LINE
  8
0
 10
-92.9099
 20
-80
 11
-92.8999
 21
-80
  0
LINE
  8
0
 10
-92.8999
 20
-80
 11
-92.8999
 21
-100
  0
LINE
  8
0
 10
-92.8999
 20
-100
 11
-92.9099
 21
-100
  0
LINE
  8
0
 10
-88.9099
 20
-100
 11
-88.9099
 21
-80
  0
LINE
  8
0
 10
-88.9099
 20
-80
 11
-88.8999
 21
-80
  0
LINE
  8
0
 10
-88.8999
 20
-80
 11
-88.8999
 21
-100
  0
LINE
  8
0
 10
-88.8999
 20
-100
 11
-88.9099
 21
-100
  0
LINE
  8
0
 10
-100.91
 20
-100
 11
-100.91
 21
-80
  0
LINE
  8
0
 10
-100.91
 20
-80
 11
-100.9
 21
-80
  0
LINE
  8
0
 10
-100.9
 20
-80
 11
-100.9
 21
-100
  0
LINE
  8
0
 10
-100.9
 20
-100
 11
-100.91
 21
-100
  0
LINE
  8
0
 10
73.6679
 20
-92.8125
 11
73.6679
 21
-84.7485
  0
LINE
  8
0
 10
73.6679
 20
-84.7485
 11
74.6469
 21
-84.7485
  0
LINE
  8
0
 10
74.6469
 20
-84.7485
 11
74.6469
 21
-86.8315
  0
LINE
  8
0
 10
74.6469
 20
-86.8315
 11
74.6457
 21
-86.9974
  0
LINE
  8
0
 10
74.6457
 20
-86.9974
 11
74.6422
 21
-87.166
  0
LINE
  8
0
 10
74.6422
 20
-87.166
 11
74.6362
 21
-87.3374
  0
LINE
  8
0
 10
74.6362
 20
-87.3374
 11
74.6279
 21
-87.5115
  0
LINE
  8
0
 10
74.6279
 20
-87.5115
 11
74.6029
 21
-87.9155
  0
LINE
  8
0
 10
74.6029
 20
-87.9155
 11
74.6199
 21
-87.9155
  0
LINE
  8
0
 10
74.6199
 20
-87.9155
 11
74.7859
 21
-87.6453
  0
LINE
  8
0
 10
74.7859
 20
-87.6453
 11
74.9679
 21
-87.4138
  0
LINE
  8
0
 10
74.9679
 20
-87.4138
 11
75.1659
 21
-87.2208
  0
LINE
  8
0
 10
75.1659
 20
-87.2208
 11
75.3799
 21
-87.0665
  0
LINE
  8
0
 10
75.3799
 20
-87.0665
 11
75.6172
 21
-86.9484
  0
LINE
  8
0
 10
75.6172
 20
-86.9484
 11
75.8842
 21
-86.864
  0
LINE
  8
0
 10
75.8842
 20
-86.864
 11
76.1807
 21
-86.8134
  0
LINE
  8
0
 10
76.1807
 20
-86.8134
 11
76.5069
 21
-86.7965
  0
LINE
  8
0
 10
76.5069
 20
-86.7965
 11
76.9549
 21
-86.8264
  0
LINE
  8
0
 10
76.9549
 20
-86.8264
 11
77.3399
 21
-86.916
  0
LINE
  8
0
 10
77.3399
 20
-86.916
 11
77.6619
 21
-87.0654
  0
LINE
  8
0
 10
77.6619
 20
-87.0654
 11
77.9209
 21
-87.2745
  0
LINE
  8
0
 10
77.9209
 20
-87.2745
 11
78.1204
 21
-87.5535
  0
LINE
  8
0
 10
78.1204
 20
-87.5535
 11
78.2629
 21
-87.9135
  0
LINE
  8
0
 10
78.2629
 20
-87.9135
 11
78.3484
 21
-88.3545
  0
LINE
  8
0
 10
78.3484
 20
-88.3545
 11
78.3769
 21
-88.8765
  0
LINE
  8
0
 10
78.3769
 20
-88.8765
 11
78.3769
 21
-92.8125
  0
LINE
  8
0
 10
78.3769
 20
-92.8125
 11
77.3929
 21
-92.8125
  0
LINE
  8
0
 10
77.3929
 20
-92.8125
 11
77.3929
 21
-89.0655
  0
LINE
  8
0
 10
77.3929
 20
-89.0655
 11
77.3857
 21
-88.774
  0
LINE
  8
0
 10
77.3857
 20
-88.774
 11
77.3642
 21
-88.5225
  0
LINE
  8
0
 10
77.3642
 20
-88.5225
 11
77.3282
 21
-88.311
  0
LINE
  8
0
 10
77.3282
 20
-88.311
 11
77.2779
 21
-88.1395
  0
LINE
  8
0
 10
77.2779
 20
-88.1395
 11
77.2117
 21
-87.9981
  0
LINE
  8
0
 10
77.2117
 20
-87.9981
 11
77.1269
 21
-87.8768
  0
LINE
  8
0
 10
77.1269
 20
-87.8768
 11
77.0237
 21
-87.7756
  0
LINE
  8
0
 10
77.0237
 20
-87.7756
 11
76.9019
 21
-87.6945
  0
LINE
  8
0
 10
76.9019
 20
-87.6945
 11
76.7583
 21
-87.6324
  0
LINE
  8
0
 10
76.7583
 20
-87.6324
 11
76.5894
 21
-87.588
  0
LINE
  8
0
 10
76.5894
 20
-87.588
 11
76.3953
 21
-87.5614
  0
LINE
  8
0
 10
76.3953
 20
-87.5614
 11
76.1759
 21
-87.5525
  0
LINE
  8
0
 10
76.1759
 20
-87.5525
 11
75.8462
 21
-87.5826
  0
LINE
  8
0
 10
75.8462
 20
-87.5826
 11
75.5509
 21
-87.6728
  0
LINE
  8
0
 10
75.5509
 20
-87.6728
 11
75.2902
 21
-87.8231
  0
LINE
  8
0
 10
75.2902
 20
-87.8231
 11
75.0639
 21
-88.0335
  0
LINE
  8
0
 10
75.0639
 20
-88.0335
 11
74.8815
 21
-88.2944
  0
LINE
  8
0
 10
74.8815
 20
-88.2944
 11
74.7512
 21
-88.597
  0
LINE
  8
0
 10
74.7512
 20
-88.597
 11
74.673
 21
-88.9414
  0
LINE
  8
0
 10
74.673
 20
-88.9414
 11
74.6469
 21
-89.3275
  0
LINE
  8
0
 10
74.6469
 20
-89.3275
 11
74.6469
 21
-92.8125
  0
LINE
  8
0
 10
74.6469
 20
-92.8125
 11
73.6679
 21
-92.8125
  0
LINE
  8
0
 10
65.1821
 20
-85.6835
 11
65.1821
 21
-84.7485
  0
LINE
  8
0
 10
65.1821
 20
-84.7485
 11
66.1611
 21
-84.7485
  0
LINE
  8
0
 10
66.1611
 20
-84.7485
 11
66.1611
 21
-85.6835
  0
LINE
  8
0
 10
66.1611
 20
-85.6835
 11
65.1821
 21
-85.6835
  0
LINE
  8
0
 10
57.4925
 20
-92.8125
 11
57.4925
 21
-85.1325
  0
LINE
  8
0
 10
57.4925
 20
-85.1325
 11
61.1075
 21
-85.1325
  0
LINE
  8
0
 10
61.1075
 20
-85.1325
 11
61.7195
 21
-85.1686
  0
LINE
  8
0
 10
61.7195
 20
-85.1686
 11
62.2576
 21
-85.277
  0
LINE
  8
0
 10
62.2576
 20
-85.277
 11
62.7215
 21
-85.4576
  0
LINE
  8
0
 10
62.7215
 20
-85.4576
 11
63.1115
 21
-85.7105
  0
LINE
  8
0
 10
63.1115
 20
-85.7105
 11
63.4204
 21
-86.0273
  0
LINE
  8
0
 10
63.4204
 20
-86.0273
 11
63.6411
 21
-86.4008
  0
LINE
  8
0
 10
63.6411
 20
-86.4008
 11
63.7734
 21
-86.8308
  0
LINE
  8
0
 10
63.7734
 20
-86.8308
 11
63.8176
 21
-87.3175
  0
LINE
  8
0
 10
63.8176
 20
-87.3175
 11
63.7863
 21
-87.7265
  0
LINE
  8
0
 10
63.7863
 20
-87.7265
 11
63.6926
 21
-88.1015
  0
LINE
  8
0
 10
63.6926
 20
-88.1015
 11
63.5363
 21
-88.4425
  0
LINE
  8
0
 10
63.5363
 20
-88.4425
 11
63.3176
 21
-88.7495
  0
LINE
  8
0
 10
63.3176
 20
-88.7495
 11
63.0444
 21
-89.0128
  0
LINE
  8
0
 10
63.0444
 20
-89.0128
 11
62.7238
 21
-89.2225
  0
LINE
  8
0
 10
62.7238
 20
-89.2225
 11
62.3559
 21
-89.3788
  0
LINE
  8
0
 10
62.3559
 20
-89.3788
 11
61.9406
 21
-89.4815
  0
LINE
  8
0
 10
61.9406
 20
-89.4815
 11
64.1225
 21
-92.8125
  0
LINE
  8
0
 10
64.1225
 20
-92.8125
 11
62.9256
 21
-92.8125
  0
LINE
  8
0
 10
62.9256
 20
-92.8125
 11
60.9285
 21
-89.6015
  0
LINE
  8
0
 10
60.9285
 20
-89.6015
 11
58.5305
 21
-89.6015
  0
LINE
  8
0
 10
58.5305
 20
-89.6015
 11
58.5305
 21
-92.8125
  0
LINE
  8
0
 10
58.5305
 20
-92.8125
 11
57.4925
 21
-92.8125
  0
LINE
  8
0
 10
61.4366
 20
-88.7566
 11
61.7788
 21
-88.685
  0
LINE
  8
0
 10
61.7788
 20
-88.685
 11
62.0741
 21
-88.5656
  0
LINE
  8
0
 10
62.0741
 20
-88.5656
 11
62.3225
 21
-88.3985
  0
LINE
  8
0
 10
62.3225
 20
-88.3985
 11
62.5199
 21
-88.1884
  0
LINE
  8
0
 10
62.5199
 20
-88.1884
 11
62.6608
 21
-87.9403
  0
LINE
  8
0
 10
62.6608
 20
-87.9403
 11
62.7454
 21
-87.6539
  0
LINE
  8
0
 10
62.7454
 20
-87.6539
 11
62.7735
 21
-87.3295
  0
LINE
  8
0
 10
62.7735
 20
-87.3295
 11
62.745
 21
-87.0163
  0
LINE
  8
0
 10
62.745
 20
-87.0163
 11
62.6595
 21
-86.7428
  0
LINE
  8
0
 10
62.6595
 20
-86.7428
 11
62.517
 21
-86.5088
  0
LINE
  8
0
 10
62.517
 20
-86.5088
 11
62.3176
 21
-86.3145
  0
LINE
  8
0
 10
62.3176
 20
-86.3145
 11
62.0645
 21
-86.1614
  0
LINE
  8
0
 10
62.0645
 20
-86.1614
 11
61.7613
 21
-86.052
  0
LINE
  8
0
 10
61.7613
 20
-86.052
 11
61.408
 21
-85.9864
  0
LINE
  8
0
 10
61.408
 20
-85.9864
 11
61.0045
 21
-85.9645
  0
LINE
  8
0
 10
61.0045
 20
-85.9645
 11
58.5305
 21
-85.9645
  0
LINE
  8
0
 10
58.5305
 20
-85.9645
 11
58.5305
 21
-88.7805
  0
LINE
  8
0
 10
58.5305
 20
-88.7805
 11
61.0475
 21
-88.7805
  0
LINE
  8
0
 10
61.0475
 20
-88.7805
 11
61.4366
 21
-88.7566
  0
LINE
  8
0
 10
80.4396
 20
-92.7935
 11
80.0753
 21
-92.5445
  0
LINE
  8
0
 10
80.0753
 20
-92.5445
 11
79.8566
 21
-92.1295
  0
LINE
  8
0
 10
79.8566
 20
-92.1295
 11
79.7838
 21
-91.5485
  0
LINE
  8
0
 10
79.7838
 20
-91.5485
 11
79.7838
 21
-87.6365
  0
LINE
  8
0
 10
79.7838
 20
-87.6365
 11
79.1048
 21
-87.6365
  0
LINE
  8
0
 10
79.1048
 20
-87.6365
 11
79.1048
 21
-86.9245
  0
LINE
  8
0
 10
79.1048
 20
-86.9245
 11
79.8218
 21
-86.9245
  0
LINE
  8
0
 10
79.8218
 20
-86.9245
 11
80.1108
 21
-85.5805
  0
LINE
  8
0
 10
80.1108
 20
-85.5805
 11
80.7628
 21
-85.5805
  0
LINE
  8
0
 10
80.7628
 20
-85.5805
 11
80.7628
 21
-86.9245
  0
LINE
  8
0
 10
80.7628
 20
-86.9245
 11
81.8348
 21
-86.9245
  0
LINE
  8
0
 10
81.8348
 20
-86.9245
 11
81.8348
 21
-87.6365
  0
LINE
  8
0
 10
81.8348
 20
-87.6365
 11
80.7628
 21
-87.6365
  0
LINE
  8
0
 10
80.7628
 20
-87.6365
 11
80.7628
 21
-91.3345
  0
LINE
  8
0
 10
80.7628
 20
-91.3345
 11
80.7713
 21
-91.5302
  0
LINE
  8
0
 10
80.7713
 20
-91.5302
 11
80.7968
 21
-91.6945
  0
LINE
  8
0
 10
80.7968
 20
-91.6945
 11
80.8393
 21
-91.8272
  0
LINE
  8
0
 10
80.8393
 20
-91.8272
 11
80.8988
 21
-91.9285
  0
LINE
  8
0
 10
80.8988
 20
-91.9285
 11
80.9798
 21
-92.0029
  0
LINE
  8
0
 10
80.9798
 20
-92.0029
 11
81.086
 21
-92.056
  0
LINE
  8
0
 10
81.086
 20
-92.056
 11
81.2173
 21
-92.0879
  0
LINE
  8
0
 10
81.2173
 20
-92.0879
 11
81.3738
 21
-92.0985
  0
LINE
  8
0
 10
81.3738
 20
-92.0985
 11
81.481
 21
-92.0938
  0
LINE
  8
0
 10
81.481
 20
-92.0938
 11
81.6098
 21
-92.0795
  0
LINE
  8
0
 10
81.6098
 20
-92.0795
 11
81.76
 21
-92.0557
  0
LINE
  8
0
 10
81.76
 20
-92.0557
 11
81.9318
 21
-92.0225
  0
LINE
  8
0
 10
81.9318
 20
-92.0225
 11
81.9318
 21
-92.7455
  0
LINE
  8
0
 10
81.9318
 20
-92.7455
 11
81.6904
 21
-92.8028
  0
LINE
  8
0
 10
81.6904
 20
-92.8028
 11
81.4463
 21
-92.8438
  0
LINE
  8
0
 10
81.4463
 20
-92.8438
 11
81.1994
 21
-92.8683
  0
LINE
  8
0
 10
81.1994
 20
-92.8683
 11
80.9498
 21
-92.8765
  0
LINE
  8
0
 10
80.9498
 20
-92.8765
 11
80.4396
 21
-92.7935
  0
LINE
  8
0
 10
-65.2665
 20
-93.875
 11
-65.2665
 21
-88.699
  0
LINE
  8
0
 10
-65.2665
 20
-88.699
 11
-66.0865
 21
-88.699
  0
LINE
  8
0
 10
-66.0865
 20
-88.699
 11
-66.0865
 21
-87.987
  0
LINE
  8
0
 10
-66.0865
 20
-87.987
 11
-65.2665
 21
-87.987
  0
LINE
  8
0
 10
-65.2665
 20
-87.987
 11
-65.2665
 21
-87.323
  0
LINE
  8
0
 10
-65.2665
 20
-87.323
 11
-65.2446
 21
-86.9488
  0
LINE
  8
0
 10
-65.2446
 20
-86.9488
 11
-65.1788
 21
-86.631
  0
LINE
  8
0
 10
-65.1788
 20
-86.631
 11
-65.0691
 21
-86.3698
  0
LINE
  8
0
 10
-65.0691
 20
-86.3698
 11
-64.9155
 21
-86.165
  0
LINE
  8
0
 10
-64.9155
 20
-86.165
 11
-64.7168
 21
-86.0101
  0
LINE
  8
0
 10
-64.7168
 20
-86.0101
 11
-64.4715
 21
-85.8995
  0
LINE
  8
0
 10
-64.4715
 20
-85.8995
 11
-64.1798
 21
-85.8331
  0
LINE
  8
0
 10
-64.1798
 20
-85.8331
 11
-63.8415
 21
-85.811
  0
LINE
  8
0
 10
-63.8415
 20
-85.811
 11
-63.6468
 21
-85.8151
  0
LINE
  8
0
 10
-63.6468
 20
-85.8151
 11
-63.4675
 21
-85.8273
  0
LINE
  8
0
 10
-63.4675
 20
-85.8273
 11
-63.3038
 21
-85.8476
  0
LINE
  8
0
 10
-63.3038
 20
-85.8476
 11
-63.1555
 21
-85.876
  0
LINE
  8
0
 10
-63.1555
 20
-85.876
 11
-63.1555
 21
-86.622
  0
LINE
  8
0
 10
-63.1555
 20
-86.622
 11
-63.2727
 21
-86.6028
  0
LINE
  8
0
 10
-63.2727
 20
-86.6028
 11
-63.3833
 21
-86.589
  0
LINE
  8
0
 10
-63.3833
 20
-86.589
 11
-63.4872
 21
-86.5808
  0
LINE
  8
0
 10
-63.4872
 20
-86.5808
 11
-63.5845
 21
-86.578
  0
LINE
  8
0
 10
-63.5845
 20
-86.578
 11
-63.7569
 21
-86.59
  0
LINE
  8
0
 10
-63.7569
 20
-86.59
 11
-63.9038
 21
-86.6258
  0
LINE
  8
0
 10
-63.9038
 20
-86.6258
 11
-64.0253
 21
-86.6854
  0
LINE
  8
0
 10
-64.0253
 20
-86.6854
 11
-64.1215
 21
-86.769
  0
LINE
  8
0
 10
-64.1215
 20
-86.769
 11
-64.1942
 21
-86.8834
  0
LINE
  8
0
 10
-64.1942
 20
-86.8834
 11
-64.246
 21
-87.0365
  0
LINE
  8
0
 10
-64.246
 20
-87.0365
 11
-64.2772
 21
-87.2284
  0
LINE
  8
0
 10
-64.2772
 20
-87.2284
 11
-64.2875
 21
-87.459
  0
LINE
  8
0
 10
-64.2875
 20
-87.459
 11
-64.2875
 21
-87.987
  0
LINE
  8
0
 10
-64.2875
 20
-87.987
 11
-63.1555
 21
-87.987
  0
LINE
  8
0
 10
-63.1555
 20
-87.987
 11
-63.1555
 21
-88.699
  0
LINE
  8
0
 10
-63.1555
 20
-88.699
 11
-64.2875
 21
-88.699
  0
LINE
  8
0
 10
-64.2875
 20
-88.699
 11
-64.2875
 21
-93.875
  0
LINE
  8
0
 10
-64.2875
 20
-93.875
 11
-65.2665
 21
-93.875
  0
LINE
  8
0
 10
-11.7794
 20
-93.6875
 11
-11.7794
 21
-86.0075
  0
LINE
  8
0
 10
-11.7794
 20
-86.0075
 11
-6.35143
 21
-86.0075
  0
LINE
  8
0
 10
-6.35143
 20
-86.0075
 11
-6.35143
 21
-86.8555
  0
LINE
  8
0
 10
-6.35143
 20
-86.8555
 11
-10.7414
 21
-86.8555
  0
LINE
  8
0
 10
-10.7414
 20
-86.8555
 11
-10.7414
 21
-89.7195
  0
LINE
  8
0
 10
-10.7414
 20
-89.7195
 11
-6.48141
 21
-89.7195
  0
LINE
  8
0
 10
-6.48141
 20
-89.7195
 11
-6.48141
 21
-90.5785
  0
LINE
  8
0
 10
-6.48141
 20
-90.5785
 11
-10.7414
 21
-90.5785
  0
LINE
  8
0
 10
-10.7414
 20
-90.5785
 11
-10.7414
 21
-93.6875
  0
LINE
  8
0
 10
-10.7414
 20
-93.6875
 11
-11.7794
 21
-93.6875
  0
LINE
  8
0
 10
-77.4232
 20
-93.875
 11
-77.4232
 21
-86.195
  0
LINE
  8
0
 10
-77.4232
 20
-86.195
 11
-76.3852
 21
-86.195
  0
LINE
  8
0
 10
-76.3852
 20
-86.195
 11
-76.3852
 21
-93.027
  0
LINE
  8
0
 10
-76.3852
 20
-93.027
 11
-72.5022
 21
-93.027
  0
LINE
  8
0
 10
-72.5022
 20
-93.027
 11
-72.5022
 21
-93.875
  0
LINE
  8
0
 10
-72.5022
 20
-93.875
 11
-77.4232
 21
-93.875
  0
LINE
  8
0
 10
11.1668
 20
-93.6685
 11
10.8024
 21
-93.4195
  0
LINE
  8
0
 10
10.8024
 20
-93.4195
 11
10.5838
 21
-93.0045
  0
LINE
  8
0
 10
10.5838
 20
-93.0045
 11
10.5109
 21
-92.4235
  0
LINE
  8
0
 10
10.5109
 20
-92.4235
 11
10.5109
 21
-88.5115
  0
LINE
  8
0
 10
10.5109
 20
-88.5115
 11
9.83194
 21
-88.5115
  0
LINE
  8
0
 10
9.83194
 20
-88.5115
 11
9.83194
 21
-87.7995
  0
LINE
  8
0
 10
9.83194
 20
-87.7995
 11
10.5489
 21
-87.7995
  0
LINE
  8
0
 10
10.5489
 20
-87.7995
 11
10.8379
 21
-86.4555
  0
LINE
  8
0
 10
10.8379
 20
-86.4555
 11
11.4899
 21
-86.4555
  0
LINE
  8
0
 10
11.4899
 20
-86.4555
 11
11.4899
 21
-87.7995
  0
LINE
  8
0
 10
11.4899
 20
-87.7995
 11
12.5619
 21
-87.7995
  0
LINE
  8
0
 10
12.5619
 20
-87.7995
 11
12.5619
 21
-88.5115
  0
LINE
  8
0
 10
12.5619
 20
-88.5115
 11
11.4899
 21
-88.5115
  0
LINE
  8
0
 10
11.4899
 20
-88.5115
 11
11.4899
 21
-92.2095
  0
LINE
  8
0
 10
11.4899
 20
-92.2095
 11
11.4984
 21
-92.4052
  0
LINE
  8
0
 10
11.4984
 20
-92.4052
 11
11.5239
 21
-92.5695
  0
LINE
  8
0
 10
11.5239
 20
-92.5695
 11
11.5664
 21
-92.7022
  0
LINE
  8
0
 10
11.5664
 20
-92.7022
 11
11.6259
 21
-92.8035
  0
LINE
  8
0
 10
11.6259
 20
-92.8035
 11
11.707
 21
-92.8779
  0
LINE
  8
0
 10
11.707
 20
-92.8779
 11
11.8132
 21
-92.931
  0
LINE
  8
0
 10
11.8132
 20
-92.931
 11
11.9445
 21
-92.9629
  0
LINE
  8
0
 10
11.9445
 20
-92.9629
 11
12.1009
 21
-92.9735
  0
LINE
  8
0
 10
12.1009
 20
-92.9735
 11
12.2082
 21
-92.9688
  0
LINE
  8
0
 10
12.2082
 20
-92.9688
 11
12.3369
 21
-92.9545
  0
LINE
  8
0
 10
12.3369
 20
-92.9545
 11
12.4872
 21
-92.9307
  0
LINE
  8
0
 10
12.4872
 20
-92.9307
 11
12.6589
 21
-92.8975
  0
LINE
  8
0
 10
12.6589
 20
-92.8975
 11
12.6589
 21
-93.6205
  0
LINE
  8
0
 10
12.6589
 20
-93.6205
 11
12.4176
 21
-93.6778
  0
LINE
  8
0
 10
12.4176
 20
-93.6778
 11
12.1734
 21
-93.7188
  0
LINE
  8
0
 10
12.1734
 20
-93.7188
 11
11.9266
 21
-93.7433
  0
LINE
  8
0
 10
11.9266
 20
-93.7433
 11
11.6769
 21
-93.7515
  0
LINE
  8
0
 10
11.6769
 20
-93.7515
 11
11.1668
 21
-93.6685
  0
LINE
  8
0
 10
-61.7242
 20
-93.856
 11
-62.0885
 21
-93.607
  0
LINE
  8
0
 10
-62.0885
 20
-93.607
 11
-62.3072
 21
-93.192
  0
LINE
  8
0
 10
-62.3072
 20
-93.192
 11
-62.3801
 21
-92.611
  0
LINE
  8
0
 10
-62.3801
 20
-92.611
 11
-62.3801
 21
-88.699
  0
LINE
  8
0
 10
-62.3801
 20
-88.699
 11
-63.0591
 21
-88.699
  0
LINE
  8
0
 10
-63.0591
 20
-88.699
 11
-63.0591
 21
-87.987
  0
LINE
  8
0
 10
-63.0591
 20
-87.987
 11
-62.3421
 21
-87.987
  0
LINE
  8
0
 10
-62.3421
 20
-87.987
 11
-62.0531
 21
-86.643
  0
LINE
  8
0
 10
-62.0531
 20
-86.643
 11
-61.401
 21
-86.643
  0
LINE
  8
0
 10
-61.401
 20
-86.643
 11
-61.401
 21
-87.987
  0
LINE
  8
0
 10
-61.401
 20
-87.987
 11
-60.3291
 21
-87.987
  0
LINE
  8
0
 10
-60.3291
 20
-87.987
 11
-60.3291
 21
-88.699
  0
LINE
  8
0
 10
-60.3291
 20
-88.699
 11
-61.401
 21
-88.699
  0
LINE
  8
0
 10
-61.401
 20
-88.699
 11
-61.401
 21
-92.397
  0
LINE
  8
0
 10
-61.401
 20
-92.397
 11
-61.3925
 21
-92.5927
  0
LINE
  8
0
 10
-61.3925
 20
-92.5927
 11
-61.3671
 21
-92.757
  0
LINE
  8
0
 10
-61.3671
 20
-92.757
 11
-61.3246
 21
-92.8897
  0
LINE
  8
0
 10
-61.3246
 20
-92.8897
 11
-61.2651
 21
-92.991
  0
LINE
  8
0
 10
-61.2651
 20
-92.991
 11
-61.184
 21
-93.0654
  0
LINE
  8
0
 10
-61.184
 20
-93.0654
 11
-61.0778
 21
-93.1185
  0
LINE
  8
0
 10
-61.0778
 20
-93.1185
 11
-60.9465
 21
-93.1504
  0
LINE
  8
0
 10
-60.9465
 20
-93.1504
 11
-60.7901
 21
-93.161
  0
LINE
  8
0
 10
-60.7901
 20
-93.161
 11
-60.6828
 21
-93.1562
  0
LINE
  8
0
 10
-60.6828
 20
-93.1562
 11
-60.554
 21
-93.142
  0
LINE
  8
0
 10
-60.554
 20
-93.142
 11
-60.4038
 21
-93.1182
  0
LINE
  8
0
 10
-60.4038
 20
-93.1182
 11
-60.2321
 21
-93.085
  0
LINE
  8
0
 10
-60.2321
 20
-93.085
 11
-60.2321
 21
-93.808
  0
LINE
  8
0
 10
-60.2321
 20
-93.808
 11
-60.4734
 21
-93.8653
  0
LINE
  8
0
 10
-60.4734
 20
-93.8653
 11
-60.7176
 21
-93.9062
  0
LINE
  8
0
 10
-60.7176
 20
-93.9062
 11
-60.9644
 21
-93.9308
  0
LINE
  8
0
 10
-60.9644
 20
-93.9308
 11
-61.2141
 21
-93.939
  0
LINE
  8
0
 10
-61.2141
 20
-93.939
 11
-61.7242
 21
-93.856
  0
LINE
  8
0
 10
69.3751
 20
-95.0929
 11
68.9663
 21
-95.022
  0
LINE
  8
0
 10
68.9663
 20
-95.022
 11
68.6066
 21
-94.9039
  0
LINE
  8
0
 10
68.6066
 20
-94.9039
 11
68.2961
 21
-94.7385
  0
LINE
  8
0
 10
68.2961
 20
-94.7385
 11
68.0356
 21
-94.5296
  0
LINE
  8
0
 10
68.0356
 20
-94.5296
 11
67.8261
 21
-94.281
  0
LINE
  8
0
 10
67.8261
 20
-94.281
 11
67.6676
 21
-93.9926
  0
LINE
  8
0
 10
67.6676
 20
-93.9926
 11
67.5601
 21
-93.6645
  0
LINE
  8
0
 10
67.5601
 20
-93.6645
 11
68.5451
 21
-93.5235
  0
LINE
  8
0
 10
68.5451
 20
-93.5235
 11
68.6089
 21
-93.7157
  0
LINE
  8
0
 10
68.6089
 20
-93.7157
 11
68.7026
 21
-93.8845
  0
LINE
  8
0
 10
68.7026
 20
-93.8845
 11
68.826
 21
-94.0297
  0
LINE
  8
0
 10
68.826
 20
-94.0297
 11
68.9791
 21
-94.1515
  0
LINE
  8
0
 10
68.9791
 20
-94.1515
 11
69.1602
 21
-94.2477
  0
LINE
  8
0
 10
69.1602
 20
-94.2477
 11
69.3676
 21
-94.3165
  0
LINE
  8
0
 10
69.3676
 20
-94.3165
 11
69.6012
 21
-94.3577
  0
LINE
  8
0
 10
69.6012
 20
-94.3577
 11
69.8611
 21
-94.3715
  0
LINE
  8
0
 10
69.8611
 20
-94.3715
 11
70.5033
 21
-94.2655
  0
LINE
  8
0
 10
70.5033
 20
-94.2655
 11
70.9621
 21
-93.9477
  0
LINE
  8
0
 10
70.9621
 20
-93.9477
 11
71.2373
 21
-93.4181
  0
LINE
  8
0
 10
71.2373
 20
-93.4181
 11
71.3291
 21
-92.6765
  0
LINE
  8
0
 10
71.3291
 20
-92.6765
 11
71.3291
 21
-91.7405
  0
LINE
  8
0
 10
71.3291
 20
-91.7405
 11
71.3181
 21
-91.7405
  0
LINE
  8
0
 10
71.3181
 20
-91.7405
 11
71.1661
 21
-92.0056
  0
LINE
  8
0
 10
71.1661
 20
-92.0056
 11
70.9881
 21
-92.2357
  0
LINE
  8
0
 10
70.9881
 20
-92.2357
 11
70.7841
 21
-92.4311
  0
LINE
  8
0
 10
70.7841
 20
-92.4311
 11
70.5541
 21
-92.5915
  0
LINE
  8
0
 10
70.5541
 20
-92.5915
 11
70.3013
 21
-92.7162
  0
LINE
  8
0
 10
70.3013
 20
-92.7162
 11
70.0281
 21
-92.8052
  0
LINE
  8
0
 10
70.0281
 20
-92.8052
 11
69.7343
 21
-92.8587
  0
LINE
  8
0
 10
69.7343
 20
-92.8587
 11
69.4201
 21
-92.8765
  0
LINE
  8
0
 10
69.4201
 20
-92.8765
 11
68.9135
 21
-92.8317
  0
LINE
  8
0
 10
68.9135
 20
-92.8317
 11
68.4788
 21
-92.6972
  0
LINE
  8
0
 10
68.4788
 20
-92.6972
 11
68.116
 21
-92.4732
  0
LINE
  8
0
 10
68.116
 20
-92.4732
 11
67.8251
 21
-92.1595
  0
LINE
  8
0
 10
67.8251
 20
-92.1595
 11
67.602
 21
-91.7492
  0
LINE
  8
0
 10
67.602
 20
-91.7492
 11
67.4426
 21
-91.2365
  0
LINE
  8
0
 10
67.4426
 20
-91.2365
 11
67.347
 21
-90.6212
  0
LINE
  8
0
 10
67.347
 20
-90.6212
 11
67.3151
 21
-89.9035
  0
LINE
  8
0
 10
67.3151
 20
-89.9035
 11
67.3493
 21
-89.1751
  0
LINE
  8
0
 10
67.3493
 20
-89.1751
 11
67.4521
 21
-88.5488
  0
LINE
  8
0
 10
67.4521
 20
-88.5488
 11
67.6233
 21
-88.0246
  0
LINE
  8
0
 10
67.6233
 20
-88.0246
 11
67.8631
 21
-87.6025
  0
LINE
  8
0
 10
67.8631
 20
-87.6025
 11
68.1727
 21
-87.2779
  0
LINE
  8
0
 10
68.1727
 20
-87.2779
 11
68.5536
 21
-87.046
  0
LINE
  8
0
 10
68.5536
 20
-87.046
 11
69.0057
 21
-86.9069
  0
LINE
  8
0
 10
69.0057
 20
-86.9069
 11
69.5291
 21
-86.8605
  0
LINE
  8
0
 10
69.5291
 20
-86.8605
 11
69.8322
 21
-86.8784
  0
LINE
  8
0
 10
69.8322
 20
-86.8784
 11
70.1146
 21
-86.932
  0
LINE
  8
0
 10
70.1146
 20
-86.932
 11
70.3762
 21
-87.0214
  0
LINE
  8
0
 10
70.3762
 20
-87.0214
 11
70.6171
 21
-87.1465
  0
LINE
  8
0
 10
70.6171
 20
-87.1465
 11
70.8344
 21
-87.3041
  0
LINE
  8
0
 10
70.8344
 20
-87.3041
 11
71.0256
 21
-87.492
  0
LINE
  8
0
 10
71.0256
 20
-87.492
 11
71.1904
 21
-87.7101
  0
LINE
  8
0
 10
71.1904
 20
-87.7101
 11
71.3291
 21
-87.9585
  0
LINE
  8
0
 10
71.3291
 20
-87.9585
 11
71.3401
 21
-87.9585
  0
LINE
  8
0
 10
71.3401
 20
-87.9585
 11
71.3453
 21
-87.7293
  0
LINE
  8
0
 10
71.3453
 20
-87.7293
 11
71.3611
 21
-87.3775
  0
LINE
  8
0
 10
71.3611
 20
-87.3775
 11
71.3721
 21
-87.1939
  0
LINE
  8
0
 10
71.3721
 20
-87.1939
 11
71.3831
 21
-87.0573
  0
LINE
  8
0
 10
71.3831
 20
-87.0573
 11
71.3941
 21
-86.9674
  0
LINE
  8
0
 10
71.3941
 20
-86.9674
 11
71.4051
 21
-86.9245
  0
LINE
  8
0
 10
71.4051
 20
-86.9245
 11
72.3351
 21
-86.9245
  0
LINE
  8
0
 10
72.3351
 20
-86.9245
 11
72.3206
 21
-87.1109
  0
LINE
  8
0
 10
72.3206
 20
-87.1109
 11
72.3103
 21
-87.376
  0
LINE
  8
0
 10
72.3103
 20
-87.376
 11
72.3041
 21
-87.7199
  0
LINE
  8
0
 10
72.3041
 20
-87.7199
 11
72.3021
 21
-88.1425
  0
LINE
  8
0
 10
72.3021
 20
-88.1425
 11
72.3021
 21
-92.6375
  0
LINE
  8
0
 10
72.3021
 20
-92.6375
 11
72.1478
 21
-93.7221
  0
LINE
  8
0
 10
72.1478
 20
-93.7221
 11
71.6848
 21
-94.4967
  0
LINE
  8
0
 10
71.6848
 20
-94.4967
 11
70.9133
 21
-94.9615
  0
LINE
  8
0
 10
70.9133
 20
-94.9615
 11
69.8331
 21
-95.1165
  0
LINE
  8
0
 10
69.8331
 20
-95.1165
 11
69.3751
 21
-95.0929
  0
LINE
  8
0
 10
69.9766
 20
-92.1366
 11
70.1891
 21
-92.0857
  0
LINE
  8
0
 10
70.1891
 20
-92.0857
 11
70.3886
 21
-92.0011
  0
LINE
  8
0
 10
70.3886
 20
-92.0011
 11
70.5751
 21
-91.8825
  0
LINE
  8
0
 10
70.5751
 20
-91.8825
 11
70.7453
 21
-91.7317
  0
LINE
  8
0
 10
70.7453
 20
-91.7317
 11
70.8948
 21
-91.5515
  0
LINE
  8
0
 10
70.8948
 20
-91.5515
 11
71.0237
 21
-91.3417
  0
LINE
  8
0
 10
71.0237
 20
-91.3417
 11
71.1321
 21
-91.1025
  0
LINE
  8
0
 10
71.1321
 20
-91.1025
 11
71.2182
 21
-90.8364
  0
LINE
  8
0
 10
71.2182
 20
-90.8364
 11
71.2798
 21
-90.5462
  0
LINE
  8
0
 10
71.2798
 20
-90.5462
 11
71.3167
 21
-90.2319
  0
LINE
  8
0
 10
71.3167
 20
-90.2319
 11
71.3291
 21
-89.8935
  0
LINE
  8
0
 10
71.3291
 20
-89.8935
 11
71.3167
 21
-89.5474
  0
LINE
  8
0
 10
71.3167
 20
-89.5474
 11
71.2798
 21
-89.226
  0
LINE
  8
0
 10
71.2798
 20
-89.226
 11
71.2182
 21
-88.9294
  0
LINE
  8
0
 10
71.2182
 20
-88.9294
 11
71.1321
 21
-88.6575
  0
LINE
  8
0
 10
71.1321
 20
-88.6575
 11
71.0239
 21
-88.4133
  0
LINE
  8
0
 10
71.0239
 20
-88.4133
 11
70.8956
 21
-88.1998
  0
LINE
  8
0
 10
70.8956
 20
-88.1998
 11
70.7469
 21
-88.0168
  0
LINE
  8
0
 10
70.7469
 20
-88.0168
 11
70.5781
 21
-87.8645
  0
LINE
  8
0
 10
70.5781
 20
-87.8645
 11
70.3935
 21
-87.7442
  0
LINE
  8
0
 10
70.3935
 20
-87.7442
 11
70.1968
 21
-87.6583
  0
LINE
  8
0
 10
70.1968
 20
-87.6583
 11
69.988
 21
-87.6067
  0
LINE
  8
0
 10
69.988
 20
-87.6067
 11
69.7671
 21
-87.5895
  0
LINE
  8
0
 10
69.7671
 20
-87.5895
 11
69.4161
 21
-87.6235
  0
LINE
  8
0
 10
69.4161
 20
-87.6235
 11
69.1163
 21
-87.7255
  0
LINE
  8
0
 10
69.1163
 20
-87.7255
 11
68.8676
 21
-87.8955
  0
LINE
  8
0
 10
68.8676
 20
-87.8955
 11
68.6701
 21
-88.1335
  0
LINE
  8
0
 10
68.6701
 20
-88.1335
 11
68.5196
 21
-88.4471
  0
LINE
  8
0
 10
68.5196
 20
-88.4471
 11
68.4121
 21
-88.845
  0
LINE
  8
0
 10
68.4121
 20
-88.845
 11
68.3476
 21
-89.3271
  0
LINE
  8
0
 10
68.3476
 20
-89.3271
 11
68.3261
 21
-89.8935
  0
LINE
  8
0
 10
68.3261
 20
-89.8935
 11
68.3462
 21
-90.4541
  0
LINE
  8
0
 10
68.3462
 20
-90.4541
 11
68.4066
 21
-90.9297
  0
LINE
  8
0
 10
68.4066
 20
-90.9297
 11
68.5072
 21
-91.3206
  0
LINE
  8
0
 10
68.5072
 20
-91.3206
 11
68.6481
 21
-91.6265
  0
LINE
  8
0
 10
68.6481
 20
-91.6265
 11
68.8378
 21
-91.8571
  0
LINE
  8
0
 10
68.8378
 20
-91.8571
 11
69.0848
 21
-92.0217
  0
LINE
  8
0
 10
69.0848
 20
-92.0217
 11
69.3893
 21
-92.1206
  0
LINE
  8
0
 10
69.3893
 20
-92.1206
 11
69.7511
 21
-92.1535
  0
LINE
  8
0
 10
69.7511
 20
-92.1535
 11
69.9766
 21
-92.1366
  0
LINE
  8
0
 10
65.1821
 20
-92.8125
 11
65.1821
 21
-86.9245
  0
LINE
  8
0
 10
65.1821
 20
-86.9245
 11
66.1611
 21
-86.9245
  0
LINE
  8
0
 10
66.1611
 20
-86.9245
 11
66.1611
 21
-92.8125
  0
LINE
  8
0
 10
66.1611
 20
-92.8125
 11
65.1821
 21
-92.8125
  0
LINE
  8
0
 10
-5.27484
 20
-93.6875
 11
-5.27484
 21
-89.1705
  0
LINE
  8
0
 10
-5.27484
 20
-89.1705
 11
-5.27684
 21
-88.8523
  0
LINE
  8
0
 10
-5.27684
 20
-88.8523
 11
-5.28284
 21
-88.5178
  0
LINE
  8
0
 10
-5.28284
 20
-88.5178
 11
-5.29285
 21
-88.1668
  0
LINE
  8
0
 10
-5.29285
 20
-88.1668
 11
-5.30684
 21
-87.7995
  0
LINE
  8
0
 10
-5.30684
 20
-87.7995
 11
-4.38284
 21
-87.7995
  0
LINE
  8
0
 10
-4.38284
 20
-87.7995
 11
-4.36403
 21
-88.2424
  0
LINE
  8
0
 10
-4.36403
 20
-88.2424
 11
-4.34253
 21
-88.8334
  0
LINE
  8
0
 10
-4.34253
 20
-88.8334
 11
-4.33984
 21
-88.9815
  0
LINE
  8
0
 10
-4.33984
 20
-88.9815
 11
-4.31784
 21
-88.9815
  0
LINE
  8
0
 10
-4.31784
 20
-88.9815
 11
-4.19641
 21
-88.6334
  0
LINE
  8
0
 10
-4.19641
 20
-88.6334
 11
-4.0661
 21
-88.3453
  0
LINE
  8
0
 10
-4.0661
 20
-88.3453
 11
-3.92691
 21
-88.1169
  0
LINE
  8
0
 10
-3.92691
 20
-88.1169
 11
-3.77884
 21
-87.9485
  0
LINE
  8
0
 10
-3.77884
 20
-87.9485
 11
-3.61072
 21
-87.8273
  0
LINE
  8
0
 10
-3.61072
 20
-87.8273
 11
-3.41135
 21
-87.7408
  0
LINE
  8
0
 10
-3.41135
 20
-87.7408
 11
-3.18073
 21
-87.6888
  0
LINE
  8
0
 10
-3.18073
 20
-87.6888
 11
-2.91884
 21
-87.6715
  0
LINE
  8
0
 10
-2.91884
 20
-87.6715
 11
-2.82047
 21
-87.6749
  0
LINE
  8
0
 10
-2.82047
 20
-87.6749
 11
-2.72134
 21
-87.685
  0
LINE
  8
0
 10
-2.72134
 20
-87.685
 11
-2.62148
 21
-87.7019
  0
LINE
  8
0
 10
-2.62148
 20
-87.7019
 11
-2.52084
 21
-87.7255
  0
LINE
  8
0
 10
-2.52084
 20
-87.7255
 11
-2.52084
 21
-88.6225
  0
LINE
  8
0
 10
-2.52084
 20
-88.6225
 11
-2.62703
 21
-88.5989
  0
LINE
  8
0
 10
-2.62703
 20
-88.5989
 11
-2.74959
 21
-88.582
  0
LINE
  8
0
 10
-2.74959
 20
-88.582
 11
-2.88853
 21
-88.5719
  0
LINE
  8
0
 10
-2.88853
 20
-88.5719
 11
-3.04384
 21
-88.5685
  0
LINE
  8
0
 10
-3.04384
 20
-88.5685
 11
-3.33078
 21
-88.6014
  0
LINE
  8
0
 10
-3.33078
 20
-88.6014
 11
-3.58159
 21
-88.7003
  0
LINE
  8
0
 10
-3.58159
 20
-88.7003
 11
-3.79628
 21
-88.8649
  0
LINE
  8
0
 10
-3.79628
 20
-88.8649
 11
-3.97484
 21
-89.0955
  0
LINE
  8
0
 10
-3.97484
 20
-89.0955
 11
-4.11528
 21
-89.3876
  0
LINE
  8
0
 10
-4.11528
 20
-89.3876
 11
-4.21559
 21
-89.7368
  0
LINE
  8
0
 10
-4.21559
 20
-89.7368
 11
-4.27579
 21
-90.1431
  0
LINE
  8
0
 10
-4.27579
 20
-90.1431
 11
-4.29584
 21
-90.6065
  0
LINE
  8
0
 10
-4.29584
 20
-90.6065
 11
-4.29584
 21
-93.6875
  0
LINE
  8
0
 10
-4.29584
 20
-93.6875
 11
-5.27484
 21
-93.6875
  0
LINE
  8
0
 10
4.39508
 20
-93.6875
 11
4.39508
 21
-89.0565
  0
LINE
  8
0
 10
4.39508
 20
-89.0565
 11
4.39308
 21
-88.5924
  0
LINE
  8
0
 10
4.39308
 20
-88.5924
 11
4.38708
 21
-88.2283
  0
LINE
  8
0
 10
4.38708
 20
-88.2283
 11
4.37709
 21
-87.9639
  0
LINE
  8
0
 10
4.37709
 20
-87.9639
 11
4.36308
 21
-87.7995
  0
LINE
  8
0
 10
4.36308
 20
-87.7995
 11
5.28708
 21
-87.7995
  0
LINE
  8
0
 10
5.28708
 20
-87.7995
 11
5.28958
 21
-87.8187
  0
LINE
  8
0
 10
5.28958
 20
-87.8187
 11
5.31528
 21
-88.3079
  0
LINE
  8
0
 10
5.31528
 20
-88.3079
 11
5.33009
 21
-88.7905
  0
LINE
  8
0
 10
5.33009
 20
-88.7905
 11
5.34608
 21
-88.7905
  0
LINE
  8
0
 10
5.34608
 20
-88.7905
 11
5.52171
 21
-88.5073
  0
LINE
  8
0
 10
5.52171
 20
-88.5073
 11
5.71059
 21
-88.2688
  0
LINE
  8
0
 10
5.71059
 20
-88.2688
 11
5.9127
 21
-88.0748
  0
LINE
  8
0
 10
5.9127
 20
-88.0748
 11
6.12808
 21
-87.9255
  0
LINE
  8
0
 10
6.12808
 20
-87.9255
 11
6.36403
 21
-87.8144
  0
LINE
  8
0
 10
6.36403
 20
-87.8144
 11
6.62683
 21
-87.735
  0
LINE
  8
0
 10
6.62683
 20
-87.735
 11
6.91652
 21
-87.6874
  0
LINE
  8
0
 10
6.91652
 20
-87.6874
 11
7.23309
 21
-87.6715
  0
LINE
  8
0
 10
7.23309
 20
-87.6715
 11
7.68602
 21
-87.7017
  0
LINE
  8
0
 10
7.68602
 20
-87.7017
 11
8.07384
 21
-87.7923
  0
LINE
  8
0
 10
8.07384
 20
-87.7923
 11
8.39653
 21
-87.9432
  0
LINE
  8
0
 10
8.39653
 20
-87.9432
 11
8.65408
 21
-88.1545
  0
LINE
  8
0
 10
8.65408
 20
-88.1545
 11
8.85097
 21
-88.4354
  0
LINE
  8
0
 10
8.85097
 20
-88.4354
 11
8.99159
 21
-88.7953
  0
LINE
  8
0
 10
8.99159
 20
-88.7953
 11
9.07596
 21
-89.2339
  0
LINE
  8
0
 10
9.07596
 20
-89.2339
 11
9.10408
 21
-89.7515
  0
LINE
  8
0
 10
9.10408
 20
-89.7515
 11
9.10408
 21
-93.6875
  0
LINE
  8
0
 10
9.10408
 20
-93.6875
 11
8.12009
 21
-93.6875
  0
LINE
  8
0
 10
8.12009
 20
-93.6875
 11
8.12009
 21
-89.9405
  0
LINE
  8
0
 10
8.12009
 20
-89.9405
 11
8.1129
 21
-89.6649
  0
LINE
  8
0
 10
8.1129
 20
-89.6649
 11
8.09134
 21
-89.422
  0
LINE
  8
0
 10
8.09134
 20
-89.422
 11
8.0554
 21
-89.2119
  0
LINE
  8
0
 10
8.0554
 20
-89.2119
 11
8.00508
 21
-89.0345
  0
LINE
  8
0
 10
8.00508
 20
-89.0345
 11
7.93947
 21
-88.8843
  0
LINE
  8
0
 10
7.93947
 20
-88.8843
 11
7.85658
 21
-88.7568
  0
LINE
  8
0
 10
7.85658
 20
-88.7568
 11
7.75645
 21
-88.6518
  0
LINE
  8
0
 10
7.75645
 20
-88.6518
 11
7.63908
 21
-88.5695
  0
LINE
  8
0
 10
7.63908
 20
-88.5695
 11
7.49896
 21
-88.5074
  0
LINE
  8
0
 10
7.49896
 20
-88.5074
 11
7.32959
 21
-88.463
  0
LINE
  8
0
 10
7.32959
 20
-88.463
 11
7.13097
 21
-88.4364
  0
LINE
  8
0
 10
7.13097
 20
-88.4364
 11
6.90309
 21
-88.4275
  0
LINE
  8
0
 10
6.90309
 20
-88.4275
 11
6.56683
 21
-88.4579
  0
LINE
  8
0
 10
6.56683
 20
-88.4579
 11
6.26808
 21
-88.549
  0
LINE
  8
0
 10
6.26808
 20
-88.549
 11
6.00684
 21
-88.7009
  0
LINE
  8
0
 10
6.00684
 20
-88.7009
 11
5.78308
 21
-88.9135
  0
LINE
  8
0
 10
5.78308
 20
-88.9135
 11
5.60414
 21
-89.1801
  0
LINE
  8
0
 10
5.60414
 20
-89.1801
 11
5.47633
 21
-89.4938
  0
LINE
  8
0
 10
5.47633
 20
-89.4938
 11
5.39964
 21
-89.8546
  0
LINE
  8
0
 10
5.39964
 20
-89.8546
 11
5.37408
 21
-90.2625
  0
LINE
  8
0
 10
5.37408
 20
-90.2625
 11
5.37408
 21
-93.6875
  0
LINE
  8
0
 10
5.37408
 20
-93.6875
 11
4.39508
 21
-93.6875
  0
LINE
  8
0
 10
0.0461731
 20
-93.7661
 11
-0.481003
 21
-93.6177
  0
LINE
  8
0
 10
-0.481003
 20
-93.6177
 11
-0.929306
 21
-93.3706
  0
LINE
  8
0
 10
-0.929306
 20
-93.3706
 11
-1.29875
 21
-93.0245
  0
LINE
  8
0
 10
-1.29875
 20
-93.0245
 11
-1.58707
 21
-92.5846
  0
LINE
  8
0
 10
-1.58707
 20
-92.5846
 11
-1.793
 21
-92.057
  0
LINE
  8
0
 10
-1.793
 20
-92.057
 11
-1.91656
 21
-91.4416
  0
LINE
  8
0
 10
-1.91656
 20
-91.4416
 11
-1.95775
 21
-90.7385
  0
LINE
  8
0
 10
-1.95775
 20
-90.7385
 11
-1.79256
 21
-89.3967
  0
LINE
  8
0
 10
-1.79256
 20
-89.3967
 11
-1.297
 21
-88.4383
  0
LINE
  8
0
 10
-1.297
 20
-88.4383
 11
-0.471069
 21
-87.8632
  0
LINE
  8
0
 10
-0.471069
 20
-87.8632
 11
0.685242
 21
-87.6715
  0
LINE
  8
0
 10
0.685242
 20
-87.6715
 11
1.31654
 21
-87.7183
  0
LINE
  8
0
 10
1.31654
 20
-87.7183
 11
1.85849
 21
-87.8585
  0
LINE
  8
0
 10
1.85849
 20
-87.8585
 11
2.31105
 21
-88.0923
  0
LINE
  8
0
 10
2.31105
 20
-88.0923
 11
2.67424
 21
-88.4195
  0
LINE
  8
0
 10
2.67424
 20
-88.4195
 11
2.95335
 21
-88.8446
  0
LINE
  8
0
 10
2.95335
 20
-88.8446
 11
3.15274
 21
-89.3728
  0
LINE
  8
0
 10
3.15274
 20
-89.3728
 11
3.27235
 21
-90.0041
  0
LINE
  8
0
 10
3.27235
 20
-90.0041
 11
3.31224
 21
-90.7385
  0
LINE
  8
0
 10
3.31224
 20
-90.7385
 11
3.26967
 21
-91.4664
  0
LINE
  8
0
 10
3.26967
 20
-91.4664
 11
3.14198
 21
-92.095
  0
LINE
  8
0
 10
3.14198
 20
-92.095
 11
2.92917
 21
-92.6244
  0
LINE
  8
0
 10
2.92917
 20
-92.6244
 11
2.63124
 21
-93.0545
  0
LINE
  8
0
 10
2.63124
 20
-93.0545
 11
2.25217
 21
-93.3874
  0
LINE
  8
0
 10
2.25217
 20
-93.3874
 11
1.79599
 21
-93.6252
  0
LINE
  8
0
 10
1.79599
 20
-93.6252
 11
1.26266
 21
-93.7679
  0
LINE
  8
0
 10
1.26266
 20
-93.7679
 11
0.652237
 21
-93.8155
  0
LINE
  8
0
 10
0.652237
 20
-93.8155
 11
0.0461731
 21
-93.7661
  0
LINE
  8
0
 10
1.05167
 20
-93.0568
 11
1.39899
 21
-92.9497
  0
LINE
  8
0
 10
1.39899
 20
-92.9497
 11
1.68317
 21
-92.7713
  0
LINE
  8
0
 10
1.68317
 20
-92.7713
 11
1.90424
 21
-92.5215
  0
LINE
  8
0
 10
1.90424
 20
-92.5215
 11
2.07048
 21
-92.1959
  0
LINE
  8
0
 10
2.07048
 20
-92.1959
 11
2.18924
 21
-91.7902
  0
LINE
  8
0
 10
2.18924
 20
-91.7902
 11
2.26048
 21
-91.3044
  0
LINE
  8
0
 10
2.26048
 20
-91.3044
 11
2.28424
 21
-90.7385
  0
LINE
  8
0
 10
2.28424
 20
-90.7385
 11
2.26155
 21
-90.1656
  0
LINE
  8
0
 10
2.26155
 20
-90.1656
 11
2.19348
 21
-89.6768
  0
LINE
  8
0
 10
2.19348
 20
-89.6768
 11
2.08005
 21
-89.2721
  0
LINE
  8
0
 10
2.08005
 20
-89.2721
 11
1.92123
 21
-88.9515
  0
LINE
  8
0
 10
1.92123
 20
-88.9515
 11
1.70886
 21
-88.7078
  0
LINE
  8
0
 10
1.70886
 20
-88.7078
 11
1.43474
 21
-88.5338
  0
LINE
  8
0
 10
1.43474
 20
-88.5338
 11
1.09886
 21
-88.4293
  0
LINE
  8
0
 10
1.09886
 20
-88.4293
 11
0.701233
 21
-88.3945
  0
LINE
  8
0
 10
0.701233
 20
-88.3945
 11
0.300049
 21
-88.43
  0
LINE
  8
0
 10
0.300049
 20
-88.43
 11
-0.0415039
 21
-88.5365
  0
LINE
  8
0
 10
-0.0415039
 20
-88.5365
 11
-0.323441
 21
-88.714
  0
LINE
  8
0
 10
-0.323441
 20
-88.714
 11
-0.545746
 21
-88.9625
  0
LINE
  8
0
 10
-0.545746
 20
-88.9625
 11
-0.714188
 21
-89.2865
  0
LINE
  8
0
 10
-0.714188
 20
-89.2865
 11
-0.834503
 21
-89.6905
  0
LINE
  8
0
 10
-0.834503
 20
-89.6905
 11
-0.906693
 21
-90.1745
  0
LINE
  8
0
 10
-0.906693
 20
-90.1745
 11
-0.930756
 21
-90.7385
  0
LINE
  8
0
 10
-0.930756
 20
-90.7385
 11
-0.907059
 21
-91.289
  0
LINE
  8
0
 10
-0.907059
 20
-91.289
 11
-0.835999
 21
-91.7665
  0
LINE
  8
0
 10
-0.835999
 20
-91.7665
 11
-0.71756
 21
-92.171
  0
LINE
  8
0
 10
-0.71756
 20
-92.171
 11
-0.551758
 21
-92.5025
  0
LINE
  8
0
 10
-0.551758
 20
-92.5025
 11
-0.334686
 21
-92.7606
  0
LINE
  8
0
 10
-0.334686
 20
-92.7606
 11
-0.0635071
 21
-92.945
  0
LINE
  8
0
 10
-0.0635071
 20
-92.945
 11
0.261795
 21
-93.0556
  0
LINE
  8
0
 10
0.261795
 20
-93.0556
 11
0.641235
 21
-93.0925
  0
LINE
  8
0
 10
0.641235
 20
-93.0925
 11
1.05167
 21
-93.0568
  0
LINE
  8
0
 10
-69.7564
 20
-93.9541
 11
-70.2934
 21
-93.8072
  0
LINE
  8
0
 10
-70.2934
 20
-93.8072
 11
-70.7524
 21
-93.5626
  0
LINE
  8
0
 10
-70.7524
 20
-93.5626
 11
-71.1334
 21
-93.22
  0
LINE
  8
0
 10
-71.1334
 20
-93.22
 11
-71.4326
 21
-92.7809
  0
LINE
  8
0
 10
-71.4326
 20
-92.7809
 11
-71.6464
 21
-92.2467
  0
LINE
  8
0
 10
-71.6464
 20
-92.2467
 11
-71.7746
 21
-91.6174
  0
LINE
  8
0
 10
-71.7746
 20
-91.6174
 11
-71.8174
 21
-90.893
  0
LINE
  8
0
 10
-71.8174
 20
-90.893
 11
-71.7746
 21
-90.2018
  0
LINE
  8
0
 10
-71.7746
 20
-90.2018
 11
-71.6464
 21
-89.5963
  0
LINE
  8
0
 10
-71.6464
 20
-89.5963
 11
-71.4326
 21
-89.0763
  0
LINE
  8
0
 10
-71.4326
 20
-89.0763
 11
-71.1334
 21
-88.642
  0
LINE
  8
0
 10
-71.1334
 20
-88.642
 11
-70.7547
 21
-88.2994
  0
LINE
  8
0
 10
-70.7547
 20
-88.2994
 11
-70.3029
 21
-88.0548
  0
LINE
  8
0
 10
-70.3029
 20
-88.0548
 11
-69.7778
 21
-87.9079
  0
LINE
  8
0
 10
-69.7778
 20
-87.9079
 11
-69.1794
 21
-87.859
  0
LINE
  8
0
 10
-69.1794
 20
-87.859
 11
-68.0419
 21
-88.0538
  0
LINE
  8
0
 10
-68.0419
 20
-88.0538
 11
-67.2294
 21
-88.638
  0
LINE
  8
0
 10
-67.2294
 20
-88.638
 11
-66.7419
 21
-89.6118
  0
LINE
  8
0
 10
-66.7419
 20
-89.6118
 11
-66.5794
 21
-90.975
  0
LINE
  8
0
 10
-66.5794
 20
-90.975
 11
-66.5794
 21
-91.105
  0
LINE
  8
0
 10
-66.5794
 20
-91.105
 11
-70.7894
 21
-91.105
  0
LINE
  8
0
 10
-70.7894
 20
-91.105
 11
-70.7631
 21
-91.5939
  0
LINE
  8
0
 10
-70.7631
 20
-91.5939
 11
-70.6844
 21
-92.0237
  0
LINE
  8
0
 10
-70.6844
 20
-92.0237
 11
-70.5531
 21
-92.3944
  0
LINE
  8
0
 10
-70.5531
 20
-92.3944
 11
-70.3694
 21
-92.706
  0
LINE
  8
0
 10
-70.3694
 20
-92.706
 11
-70.1348
 21
-92.9523
  0
LINE
  8
0
 10
-70.1348
 20
-92.9523
 11
-69.8519
 21
-93.1282
  0
LINE
  8
0
 10
-69.8519
 20
-93.1282
 11
-69.5208
 21
-93.2338
  0
LINE
  8
0
 10
-69.5208
 20
-93.2338
 11
-69.1414
 21
-93.269
  0
LINE
  8
0
 10
-69.1414
 20
-93.269
 11
-68.8378
 21
-93.2525
  0
LINE
  8
0
 10
-68.8378
 20
-93.2525
 11
-68.5659
 21
-93.2032
  0
LINE
  8
0
 10
-68.5659
 20
-93.2032
 11
-68.3258
 21
-93.121
  0
LINE
  8
0
 10
-68.3258
 20
-93.121
 11
-68.1174
 21
-93.006
  0
LINE
  8
0
 10
-68.1174
 20
-93.006
 11
-67.9404
 21
-92.8653
  0
LINE
  8
0
 10
-67.9404
 20
-92.8653
 11
-67.7946
 21
-92.7072
  0
LINE
  8
0
 10
-67.7946
 20
-92.7072
 11
-67.6799
 21
-92.5318
  0
LINE
  8
0
 10
-67.6799
 20
-92.5318
 11
-67.5964
 21
-92.339
  0
LINE
  8
0
 10
-67.5964
 20
-92.339
 11
-66.7374
 21
-92.588
  0
LINE
  8
0
 10
-66.7374
 20
-92.588
 11
-67.086
 21
-93.2071
  0
LINE
  8
0
 10
-67.086
 20
-93.2071
 11
-67.6029
 21
-93.6492
  0
LINE
  8
0
 10
-67.6029
 20
-93.6492
 11
-68.288
 21
-93.9146
  0
LINE
  8
0
 10
-68.288
 20
-93.9146
 11
-69.1414
 21
-94.003
  0
LINE
  8
0
 10
-69.1414
 20
-94.003
 11
-69.7564
 21
-93.9541
  0
LINE
  8
0
 10
-67.6518
 20
-89.9243
 11
-67.7511
 21
-89.556
  0
LINE
  8
0
 10
-67.7511
 20
-89.556
 11
-67.8893
 21
-89.2503
  0
LINE
  8
0
 10
-67.8893
 20
-89.2503
 11
-68.0664
 21
-89.007
  0
LINE
  8
0
 10
-68.0664
 20
-89.007
 11
-68.2843
 21
-88.8211
  0
LINE
  8
0
 10
-68.2843
 20
-88.8211
 11
-68.5451
 21
-88.6883
  0
LINE
  8
0
 10
-68.5451
 20
-88.6883
 11
-68.8488
 21
-88.6086
  0
LINE
  8
0
 10
-68.8488
 20
-88.6086
 11
-69.1954
 21
-88.582
  0
LINE
  8
0
 10
-69.1954
 20
-88.582
 11
-69.5343
 21
-88.6116
  0
LINE
  8
0
 10
-69.5343
 20
-88.6116
 11
-69.8361
 21
-88.7003
  0
LINE
  8
0
 10
-69.8361
 20
-88.7003
 11
-70.1008
 21
-88.8481
  0
LINE
  8
0
 10
-70.1008
 20
-88.8481
 11
-70.3284
 21
-89.055
  0
LINE
  8
0
 10
-70.3284
 20
-89.055
 11
-70.5129
 21
-89.3136
  0
LINE
  8
0
 10
-70.5129
 20
-89.3136
 11
-70.6494
 21
-89.6165
  0
LINE
  8
0
 10
-70.6494
 20
-89.6165
 11
-70.7379
 21
-89.9636
  0
LINE
  8
0
 10
-70.7379
 20
-89.9636
 11
-70.7784
 21
-90.355
  0
LINE
  8
0
 10
-70.7784
 20
-90.355
 11
-67.5914
 21
-90.355
  0
LINE
  8
0
 10
-67.5914
 20
-90.355
 11
-67.6518
 21
-89.9243
  0
LINE
  8
0
 10
92.8999
 20
-112.5
 11
92.8999
 21
-92.5
  0
LINE
  8
0
 10
92.8999
 20
-92.5
 11
92.9099
 21
-92.5
  0
LINE
  8
0
 10
92.9099
 20
-92.5
 11
92.9099
 21
-112.5
  0
LINE
  8
0
 10
92.9099
 20
-112.5
 11
92.8999
 21
-112.5
  0
LINE
  8
0
 10
35.6299
 20
-112.5
 11
35.6299
 21
-92.5
  0
LINE
  8
0
 10
35.6299
 20
-92.5
 11
35.6399
 21
-92.5
  0
LINE
  8
0
 10
35.6399
 20
-92.5
 11
35.6399
 21
-112.5
  0
LINE
  8
0
 10
35.6399
 20
-112.5
 11
35.6299
 21
-112.5
  0
LINE
  8
0
 10
31.63
 20
-112.5
 11
31.63
 21
-92.5
  0
LINE
  8
0
 10
31.63
 20
-92.5
 11
31.64
 21
-92.5
  0
LINE
  8
0
 10
31.64
 20
-92.5
 11
31.64
 21
-112.5
  0
LINE
  8
0
 10
31.64
 20
-112.5
 11
31.63
 21
-112.5
  0
LINE
  8
0
 10
51.6299
 20
-112.5
 11
51.6299
 21
-92.5
  0
LINE
  8
0
 10
51.6299
 20
-92.5
 11
51.6399
 21
-92.5
  0
LINE
  8
0
 10
51.6399
 20
-92.5
 11
51.6399
 21
-112.5
  0
LINE
  8
0
 10
51.6399
 20
-112.5
 11
51.6299
 21
-112.5
  0
LINE
  8
0
 10
27.63
 20
-112.5
 11
27.63
 21
-92.5
  0
LINE
  8
0
 10
27.63
 20
-92.5
 11
27.64
 21
-92.5
  0
LINE
  8
0
 10
27.64
 20
-92.5
 11
27.64
 21
-112.5
  0
LINE
  8
0
 10
27.64
 20
-112.5
 11
27.63
 21
-112.5
  0
LINE
  8
0
 10
23.63
 20
-112.5
 11
23.63
 21
-92.5
  0
LINE
  8
0
 10
23.63
 20
-92.5
 11
23.64
 21
-92.5
  0
LINE
  8
0
 10
23.64
 20
-92.5
 11
23.64
 21
-112.5
  0
LINE
  8
0
 10
23.64
 20
-112.5
 11
23.63
 21
-112.5
  0
LINE
  8
0
 10
19.63
 20
-112.5
 11
19.63
 21
-92.5
  0
LINE
  8
0
 10
19.63
 20
-92.5
 11
19.64
 21
-92.5
  0
LINE
  8
0
 10
19.64
 20
-92.5
 11
19.64
 21
-112.5
  0
LINE
  8
0
 10
19.64
 20
-112.5
 11
19.63
 21
-112.5
  0
LINE
  8
0
 10
15.63
 20
-112.5
 11
15.63
 21
-92.5
  0
LINE
  8
0
 10
15.63
 20
-92.5
 11
15.64
 21
-92.5
  0
LINE
  8
0
 10
15.64
 20
-92.5
 11
15.64
 21
-112.5
  0
LINE
  8
0
 10
15.64
 20
-112.5
 11
15.63
 21
-112.5
  0
LINE
  8
0
 10
47.6299
 20
-112.5
 11
47.6299
 21
-92.5
  0
LINE
  8
0
 10
47.6299
 20
-92.5
 11
47.6399
 21
-92.5
  0
LINE
  8
0
 10
47.6399
 20
-92.5
 11
47.6399
 21
-112.5
  0
LINE
  8
0
 10
47.6399
 20
-112.5
 11
47.6299
 21
-112.5
  0
LINE
  8
0
 10
96.8999
 20
-112.5
 11
96.8999
 21
-92.5
  0
LINE
  8
0
 10
96.8999
 20
-92.5
 11
96.9099
 21
-92.5
  0
LINE
  8
0
 10
96.9099
 20
-92.5
 11
96.9099
 21
-112.5
  0
LINE
  8
0
 10
96.9099
 20
-112.5
 11
96.8999
 21
-112.5
  0
LINE
  8
0
 10
-25.64
 20
-112.5
 11
-25.64
 21
-92.5
  0
LINE
  8
0
 10
-25.64
 20
-92.5
 11
-25.63
 21
-92.5
  0
LINE
  8
0
 10
-25.63
 20
-92.5
 11
-25.63
 21
-112.5
  0
LINE
  8
0
 10
-25.63
 20
-112.5
 11
-25.64
 21
-112.5
  0
LINE
  8
0
 10
43.6299
 20
-112.5
 11
43.6299
 21
-92.5
  0
LINE
  8
0
 10
43.6299
 20
-92.5
 11
43.6399
 21
-92.5
  0
LINE
  8
0
 10
43.6399
 20
-92.5
 11
43.6399
 21
-112.5
  0
LINE
  8
0
 10
43.6399
 20
-112.5
 11
43.6299
 21
-112.5
  0
LINE
  8
0
 10
-49.6399
 20
-112.5
 11
-49.6399
 21
-92.5
  0
LINE
  8
0
 10
-49.6399
 20
-92.5
 11
-49.6299
 21
-92.5
  0
LINE
  8
0
 10
-49.6299
 20
-92.5
 11
-49.6299
 21
-112.5
  0
LINE
  8
0
 10
-49.6299
 20
-112.5
 11
-49.6399
 21
-112.5
  0
LINE
  8
0
 10
-53.6399
 20
-112.5
 11
-53.6399
 21
-92.5
  0
LINE
  8
0
 10
-53.6399
 20
-92.5
 11
-53.6299
 21
-92.5
  0
LINE
  8
0
 10
-53.6299
 20
-92.5
 11
-53.6299
 21
-112.5
  0
LINE
  8
0
 10
-53.6299
 20
-112.5
 11
-53.6399
 21
-112.5
  0
LINE
  8
0
 10
-21.64
 20
-112.5
 11
-21.64
 21
-92.5
  0
LINE
  8
0
 10
-21.64
 20
-92.5
 11
-21.63
 21
-92.5
  0
LINE
  8
0
 10
-21.63
 20
-92.5
 11
-21.63
 21
-112.5
  0
LINE
  8
0
 10
-21.63
 20
-112.5
 11
-21.64
 21
-112.5
  0
LINE
  8
0
 10
-45.6399
 20
-112.5
 11
-45.6399
 21
-92.5
  0
LINE
  8
0
 10
-45.6399
 20
-92.5
 11
-45.6299
 21
-92.5
  0
LINE
  8
0
 10
-45.6299
 20
-92.5
 11
-45.6299
 21
-112.5
  0
LINE
  8
0
 10
-45.6299
 20
-112.5
 11
-45.6399
 21
-112.5
  0
LINE
  8
0
 10
-41.6399
 20
-112.5
 11
-41.6399
 21
-92.5
  0
LINE
  8
0
 10
-41.6399
 20
-92.5
 11
-41.6299
 21
-92.5
  0
LINE
  8
0
 10
-41.6299
 20
-92.5
 11
-41.6299
 21
-112.5
  0
LINE
  8
0
 10
-41.6299
 20
-112.5
 11
-41.6399
 21
-112.5
  0
LINE
  8
0
 10
39.6299
 20
-112.5
 11
39.6299
 21
-92.5
  0
LINE
  8
0
 10
39.6299
 20
-92.5
 11
39.6399
 21
-92.5
  0
LINE
  8
0
 10
39.6399
 20
-92.5
 11
39.6399
 21
-112.5
  0
LINE
  8
0
 10
39.6399
 20
-112.5
 11
39.6299
 21
-112.5
  0
LINE
  8
0
 10
-17.64
 20
-112.5
 11
-17.64
 21
-92.5
  0
LINE
  8
0
 10
-17.64
 20
-92.5
 11
-17.63
 21
-92.5
  0
LINE
  8
0
 10
-17.63
 20
-92.5
 11
-17.63
 21
-112.5
  0
LINE
  8
0
 10
-17.63
 20
-112.5
 11
-17.64
 21
-112.5
  0
LINE
  8
0
 10
-37.6399
 20
-112.5
 11
-37.6399
 21
-92.5
  0
LINE
  8
0
 10
-37.6399
 20
-92.5
 11
-37.6299
 21
-92.5
  0
LINE
  8
0
 10
-37.6299
 20
-92.5
 11
-37.6299
 21
-112.5
  0
LINE
  8
0
 10
-37.6299
 20
-112.5
 11
-37.6399
 21
-112.5
  0
LINE
  8
0
 10
-33.64
 20
-112.5
 11
-33.64
 21
-92.5
  0
LINE
  8
0
 10
-33.64
 20
-92.5
 11
-33.63
 21
-92.5
  0
LINE
  8
0
 10
-33.63
 20
-92.5
 11
-33.63
 21
-112.5
  0
LINE
  8
0
 10
-33.63
 20
-112.5
 11
-33.64
 21
-112.5
  0
LINE
  8
0
 10
-29.64
 20
-112.5
 11
-29.64
 21
-92.5
  0
LINE
  8
0
 10
-29.64
 20
-92.5
 11
-29.63
 21
-92.5
  0
LINE
  8
0
 10
-29.63
 20
-92.5
 11
-29.63
 21
-112.5
  0
LINE
  8
0
 10
-29.63
 20
-112.5
 11
-29.64
 21
-112.5
  0
LINE
  8
0
 10
120.9
 20
-112.5
 11
120.9
 21
-92.5
  0
LINE
  8
0
 10
120.9
 20
-92.5
 11
120.91
 21
-92.5
  0
LINE
  8
0
 10
120.91
 20
-92.5
 11
120.91
 21
-112.5
  0
LINE
  8
0
 10
120.91
 20
-112.5
 11
120.9
 21
-112.5
  0
LINE
  8
0
 10
100.9
 20
-112.5
 11
100.9
 21
-92.5
  0
LINE
  8
0
 10
100.9
 20
-92.5
 11
100.91
 21
-92.5
  0
LINE
  8
0
 10
100.91
 20
-92.5
 11
100.91
 21
-112.5
  0
LINE
  8
0
 10
100.91
 20
-112.5
 11
100.9
 21
-112.5
  0
LINE
  8
0
 10
104.9
 20
-112.5
 11
104.9
 21
-92.5
  0
LINE
  8
0
 10
104.9
 20
-92.5
 11
104.91
 21
-92.5
  0
LINE
  8
0
 10
104.91
 20
-92.5
 11
104.91
 21
-112.5
  0
LINE
  8
0
 10
104.91
 20
-112.5
 11
104.9
 21
-112.5
  0
LINE
  8
0
 10
108.9
 20
-112.5
 11
108.9
 21
-92.5
  0
LINE
  8
0
 10
108.9
 20
-92.5
 11
108.91
 21
-92.5
  0
LINE
  8
0
 10
108.91
 20
-92.5
 11
108.91
 21
-112.5
  0
LINE
  8
0
 10
108.91
 20
-112.5
 11
108.9
 21
-112.5
  0
LINE
  8
0
 10
-94.9099
 20
-112.5
 11
-94.9099
 21
-92.5
  0
LINE
  8
0
 10
-94.9099
 20
-92.5
 11
-94.8999
 21
-92.5
  0
LINE
  8
0
 10
-94.8999
 20
-92.5
 11
-94.8999
 21
-112.5
  0
LINE
  8
0
 10
-94.8999
 20
-112.5
 11
-94.9099
 21
-112.5
  0
LINE
  8
0
 10
-98.9099
 20
-112.5
 11
-98.9099
 21
-92.5
  0
LINE
  8
0
 10
-98.9099
 20
-92.5
 11
-98.8999
 21
-92.5
  0
LINE
  8
0
 10
-98.8999
 20
-92.5
 11
-98.8999
 21
-112.5
  0
LINE
  8
0
 10
-98.8999
 20
-112.5
 11
-98.9099
 21
-112.5
  0
LINE
  8
0
 10
-102.91
 20
-112.5
 11
-102.91
 21
-92.5
  0
LINE
  8
0
 10
-102.91
 20
-92.5
 11
-102.9
 21
-92.5
  0
LINE
  8
0
 10
-102.9
 20
-92.5
 11
-102.9
 21
-112.5
  0
LINE
  8
0
 10
-102.9
 20
-112.5
 11
-102.91
 21
-112.5
  0
LINE
  8
0
 10
-106.91
 20
-112.5
 11
-106.91
 21
-92.5
  0
LINE
  8
0
 10
-106.91
 20
-92.5
 11
-106.9
 21
-92.5
  0
LINE
  8
0
 10
-106.9
 20
-92.5
 11
-106.9
 21
-112.5
  0
LINE
  8
0
 10
-106.9
 20
-112.5
 11
-106.91
 21
-112.5
  0
LINE
  8
0
 10
-86.9099
 20
-112.5
 11
-86.9099
 21
-92.5
  0
LINE
  8
0
 10
-86.9099
 20
-92.5
 11
-86.8999
 21
-92.5
  0
LINE
  8
0
 10
-86.8999
 20
-92.5
 11
-86.8999
 21
-112.5
  0
LINE
  8
0
 10
-86.8999
 20
-112.5
 11
-86.9099
 21
-112.5
  0
LINE
  8
0
 10
-110.91
 20
-112.5
 11
-110.91
 21
-92.5
  0
LINE
  8
0
 10
-110.91
 20
-92.5
 11
-110.9
 21
-92.5
  0
LINE
  8
0
 10
-110.9
 20
-92.5
 11
-110.9
 21
-112.5
  0
LINE
  8
0
 10
-110.9
 20
-112.5
 11
-110.91
 21
-112.5
  0
LINE
  8
0
 10
-114.91
 20
-112.5
 11
-114.91
 21
-92.5
  0
LINE
  8
0
 10
-114.91
 20
-92.5
 11
-114.9
 21
-92.5
  0
LINE
  8
0
 10
-114.9
 20
-92.5
 11
-114.9
 21
-112.5
  0
LINE
  8
0
 10
-114.9
 20
-112.5
 11
-114.91
 21
-112.5
  0
LINE
  8
0
 10
-118.91
 20
-112.5
 11
-118.91
 21
-92.5
  0
LINE
  8
0
 10
-118.91
 20
-92.5
 11
-118.9
 21
-92.5
  0
LINE
  8
0
 10
-118.9
 20
-92.5
 11
-118.9
 21
-112.5
  0
LINE
  8
0
 10
-118.9
 20
-112.5
 11
-118.91
 21
-112.5
  0
LINE
  8
0
 10
-122.91
 20
-112.5
 11
-122.91
 21
-92.5
  0
LINE
  8
0
 10
-122.91
 20
-92.5
 11
-122.9
 21
-92.5
  0
LINE
  8
0
 10
-122.9
 20
-92.5
 11
-122.9
 21
-112.5
  0
LINE
  8
0
 10
-122.9
 20
-112.5
 11
-122.91
 21
-112.5
  0
LINE
  8
0
 10
112.9
 20
-112.5
 11
112.9
 21
-92.5
  0
LINE
  8
0
 10
112.9
 20
-92.5
 11
112.91
 21
-92.5
  0
LINE
  8
0
 10
112.91
 20
-92.5
 11
112.91
 21
-112.5
  0
LINE
  8
0
 10
112.91
 20
-112.5
 11
112.9
 21
-112.5
  0
LINE
  8
0
 10
116.9
 20
-112.5
 11
116.9
 21
-92.5
  0
LINE
  8
0
 10
116.9
 20
-92.5
 11
116.91
 21
-92.5
  0
LINE
  8
0
 10
116.91
 20
-92.5
 11
116.91
 21
-112.5
  0
LINE
  8
0
 10
116.91
 20
-112.5
 11
116.9
 21
-112.5
  0
LINE
  8
0
 10
-90.9099
 20
-112.5
 11
-90.9099
 21
-92.5
  0
LINE
  8
0
 10
-90.9099
 20
-92.5
 11
-90.8999
 21
-92.5
  0
LINE
  8
0
 10
-90.8999
 20
-92.5
 11
-90.8999
 21
-112.5
  0
LINE
  8
0
 10
-90.8999
 20
-112.5
 11
-90.9099
 21
-112.5
  0
LINE
  8
0
 10
84.8999
 20
-112.5
 11
84.8999
 21
-92.5
  0
LINE
  8
0
 10
84.8999
 20
-92.5
 11
84.9099
 21
-92.5
  0
LINE
  8
0
 10
84.9099
 20
-92.5
 11
84.9099
 21
-112.5
  0
LINE
  8
0
 10
84.9099
 20
-112.5
 11
84.8999
 21
-112.5
  0
LINE
  8
0
 10
88.8999
 20
-112.5
 11
88.8999
 21
-92.5
  0
LINE
  8
0
 10
88.8999
 20
-92.5
 11
88.9099
 21
-92.5
  0
LINE
  8
0
 10
88.9099
 20
-92.5
 11
88.9099
 21
-112.5
  0
LINE
  8
0
 10
88.9099
 20
-112.5
 11
88.8999
 21
-112.5
  0
LINE
  8
0
 10
-112.91
 20
-125
 11
-112.91
 21
-105
  0
LINE
  8
0
 10
-112.91
 20
-105
 11
-112.9
 21
-105
  0
LINE
  8
0
 10
-112.9
 20
-105
 11
-112.9
 21
-125
  0
LINE
  8
0
 10
-112.9
 20
-125
 11
-112.91
 21
-125
  0
LINE
  8
0
 10
-96.9099
 20
-125
 11
-96.9099
 21
-105
  0
LINE
  8
0
 10
-96.9099
 20
-105
 11
-96.8999
 21
-105
  0
LINE
  8
0
 10
-96.8999
 20
-105
 11
-96.8999
 21
-125
  0
LINE
  8
0
 10
-96.8999
 20
-125
 11
-96.9099
 21
-125
  0
LINE
  8
0
 10
-108.91
 20
-125
 11
-108.91
 21
-105
  0
LINE
  8
0
 10
-108.91
 20
-105
 11
-108.9
 21
-105
  0
LINE
  8
0
 10
-108.9
 20
-105
 11
-108.9
 21
-125
  0
LINE
  8
0
 10
-108.9
 20
-125
 11
-108.91
 21
-125
  0
LINE
  8
0
 10
-104.91
 20
-125
 11
-104.91
 21
-105
  0
LINE
  8
0
 10
-104.91
 20
-105
 11
-104.9
 21
-105
  0
LINE
  8
0
 10
-104.9
 20
-105
 11
-104.9
 21
-125
  0
LINE
  8
0
 10
-104.9
 20
-125
 11
-104.91
 21
-125
  0
LINE
  8
0
 10
-47.6399
 20
-125
 11
-47.6399
 21
-105
  0
LINE
  8
0
 10
-47.6399
 20
-105
 11
-47.6299
 21
-105
  0
LINE
  8
0
 10
-47.6299
 20
-105
 11
-47.6299
 21
-125
  0
LINE
  8
0
 10
-47.6299
 20
-125
 11
-47.6399
 21
-125
  0
LINE
  8
0
 10
-23.64
 20
-125
 11
-23.64
 21
-105
  0
LINE
  8
0
 10
-23.64
 20
-105
 11
-23.63
 21
-105
  0
LINE
  8
0
 10
-23.63
 20
-105
 11
-23.63
 21
-125
  0
LINE
  8
0
 10
-23.63
 20
-125
 11
-23.64
 21
-125
  0
LINE
  8
0
 10
53.6299
 20
-125
 11
53.6299
 21
-105
  0
LINE
  8
0
 10
53.6299
 20
-105
 11
53.6399
 21
-105
  0
LINE
  8
0
 10
53.6399
 20
-105
 11
53.6399
 21
-125
  0
LINE
  8
0
 10
53.6399
 20
-125
 11
53.6299
 21
-125
  0
LINE
  8
0
 10
45.6299
 20
-125
 11
45.6299
 21
-105
  0
LINE
  8
0
 10
45.6299
 20
-105
 11
45.6399
 21
-105
  0
LINE
  8
0
 10
45.6399
 20
-105
 11
45.6399
 21
-125
  0
LINE
  8
0
 10
45.6399
 20
-125
 11
45.6299
 21
-125
  0
LINE
  8
0
 10
21.63
 20
-125
 11
21.63
 21
-105
  0
LINE
  8
0
 10
21.63
 20
-105
 11
21.64
 21
-105
  0
LINE
  8
0
 10
21.64
 20
-105
 11
21.64
 21
-125
  0
LINE
  8
0
 10
21.64
 20
-125
 11
21.63
 21
-125
  0
LINE
  8
0
 10
37.6299
 20
-125
 11
37.6299
 21
-105
  0
LINE
  8
0
 10
37.6299
 20
-105
 11
37.6399
 21
-105
  0
LINE
  8
0
 10
37.6399
 20
-105
 11
37.6399
 21
-125
  0
LINE
  8
0
 10
37.6399
 20
-125
 11
37.6299
 21
-125
  0
LINE
  8
0
 10
25.63
 20
-125
 11
25.63
 21
-105
  0
LINE
  8
0
 10
25.63
 20
-105
 11
25.64
 21
-105
  0
LINE
  8
0
 10
25.64
 20
-105
 11
25.64
 21
-125
  0
LINE
  8
0
 10
25.64
 20
-125
 11
25.63
 21
-125
  0
LINE
  8
0
 10
41.6299
 20
-125
 11
41.6299
 21
-105
  0
LINE
  8
0
 10
41.6299
 20
-105
 11
41.6399
 21
-105
  0
LINE
  8
0
 10
41.6399
 20
-105
 11
41.6399
 21
-125
  0
LINE
  8
0
 10
41.6399
 20
-125
 11
41.6299
 21
-125
  0
LINE
  8
0
 10
29.63
 20
-125
 11
29.63
 21
-105
  0
LINE
  8
0
 10
29.63
 20
-105
 11
29.64
 21
-105
  0
LINE
  8
0
 10
29.64
 20
-105
 11
29.64
 21
-125
  0
LINE
  8
0
 10
29.64
 20
-125
 11
29.63
 21
-125
  0
LINE
  8
0
 10
33.63
 20
-125
 11
33.63
 21
-105
  0
LINE
  8
0
 10
33.63
 20
-105
 11
33.64
 21
-105
  0
LINE
  8
0
 10
33.64
 20
-105
 11
33.64
 21
-125
  0
LINE
  8
0
 10
33.64
 20
-125
 11
33.63
 21
-125
  0
LINE
  8
0
 10
-100.91
 20
-125
 11
-100.91
 21
-105
  0
LINE
  8
0
 10
-100.91
 20
-105
 11
-100.9
 21
-105
  0
LINE
  8
0
 10
-100.9
 20
-105
 11
-100.9
 21
-125
  0
LINE
  8
0
 10
-100.9
 20
-125
 11
-100.91
 21
-125
  0
LINE
  8
0
 10
-116.91
 20
-125
 11
-116.91
 21
-105
  0
LINE
  8
0
 10
-116.91
 20
-105
 11
-116.9
 21
-105
  0
LINE
  8
0
 10
-116.9
 20
-105
 11
-116.9
 21
-125
  0
LINE
  8
0
 10
-116.9
 20
-125
 11
-116.91
 21
-125
  0
LINE
  8
0
 10
-92.9099
 20
-125
 11
-92.9099
 21
-105
  0
LINE
  8
0
 10
-92.9099
 20
-105
 11
-92.8999
 21
-105
  0
LINE
  8
0
 10
-92.8999
 20
-105
 11
-92.8999
 21
-125
  0
LINE
  8
0
 10
-92.8999
 20
-125
 11
-92.9099
 21
-125
  0
LINE
  8
0
 10
90.8999
 20
-125
 11
90.8999
 21
-105
  0
LINE
  8
0
 10
90.8999
 20
-105
 11
90.9099
 21
-105
  0
LINE
  8
0
 10
90.9099
 20
-105
 11
90.9099
 21
-125
  0
LINE
  8
0
 10
90.9099
 20
-125
 11
90.8999
 21
-125
  0
LINE
  8
0
 10
106.9
 20
-125
 11
106.9
 21
-105
  0
LINE
  8
0
 10
106.9
 20
-105
 11
106.91
 21
-105
  0
LINE
  8
0
 10
106.91
 20
-105
 11
106.91
 21
-125
  0
LINE
  8
0
 10
106.91
 20
-125
 11
106.9
 21
-125
  0
LINE
  8
0
 10
94.8999
 20
-125
 11
94.8999
 21
-105
  0
LINE
  8
0
 10
94.8999
 20
-105
 11
94.9099
 21
-105
  0
LINE
  8
0
 10
94.9099
 20
-105
 11
94.9099
 21
-125
  0
LINE
  8
0
 10
94.9099
 20
-125
 11
94.8999
 21
-125
  0
LINE
  8
0
 10
110.9
 20
-125
 11
110.9
 21
-105
  0
LINE
  8
0
 10
110.9
 20
-105
 11
110.91
 21
-105
  0
LINE
  8
0
 10
110.91
 20
-105
 11
110.91
 21
-125
  0
LINE
  8
0
 10
110.91
 20
-125
 11
110.9
 21
-125
  0
LINE
  8
0
 10
-84.9099
 20
-125
 11
-84.9099
 21
-105
  0
LINE
  8
0
 10
-84.9099
 20
-105
 11
-84.8999
 21
-105
  0
LINE
  8
0
 10
-84.8999
 20
-105
 11
-84.8999
 21
-125
  0
LINE
  8
0
 10
-84.8999
 20
-125
 11
-84.9099
 21
-125
  0
LINE
  8
0
 10
-88.9099
 20
-125
 11
-88.9099
 21
-105
  0
LINE
  8
0
 10
-88.9099
 20
-105
 11
-88.8999
 21
-105
  0
LINE
  8
0
 10
-88.8999
 20
-105
 11
-88.8999
 21
-125
  0
LINE
  8
0
 10
-88.8999
 20
-125
 11
-88.9099
 21
-125
  0
LINE
  8
0
 10
98.8999
 20
-125
 11
98.8999
 21
-105
  0
LINE
  8
0
 10
98.8999
 20
-105
 11
98.9099
 21
-105
  0
LINE
  8
0
 10
98.9099
 20
-105
 11
98.9099
 21
-125
  0
LINE
  8
0
 10
98.9099
 20
-125
 11
98.8999
 21
-125
  0
LINE
  8
0
 10
102.9
 20
-125
 11
102.9
 21
-105
  0
LINE
  8
0
 10
102.9
 20
-105
 11
102.91
 21
-105
  0
LINE
  8
0
 10
102.91
 20
-105
 11
102.91
 21
-125
  0
LINE
  8
0
 10
102.91
 20
-125
 11
102.9
 21
-125
  0
LINE
  8
0
 10
-120.91
 20
-125
 11
-120.91
 21
-105
  0
LINE
  8
0
 10
-120.91
 20
-105
 11
-120.9
 21
-105
  0
LINE
  8
0
 10
-120.9
 20
-105
 11
-120.9
 21
-125
  0
LINE
  8
0
 10
-120.9
 20
-125
 11
-120.91
 21
-125
  0
LINE
  8
0
 10
114.9
 20
-125
 11
114.9
 21
-105
  0
LINE
  8
0
 10
114.9
 20
-105
 11
114.91
 21
-105
  0
LINE
  8
0
 10
114.91
 20
-105
 11
114.91
 21
-125
  0
LINE
  8
0
 10
114.91
 20
-125
 11
114.9
 21
-125
  0
LINE
  8
0
 10
122.9
 20
-125
 11
122.9
 21
-105
  0
LINE
  8
0
 10
122.9
 20
-105
 11
122.91
 21
-105
  0
LINE
  8
0
 10
122.91
 20
-105
 11
122.91
 21
-125
  0
LINE
  8
0
 10
122.91
 20
-125
 11
122.9
 21
-125
  0
LINE
  8
0
 10
118.9
 20
-125
 11
118.9
 21
-105
  0
LINE
  8
0
 10
118.9
 20
-105
 11
118.91
 21
-105
  0
LINE
  8
0
 10
118.91
 20
-105
 11
118.91
 21
-125
  0
LINE
  8
0
 10
118.91
 20
-125
 11
118.9
 21
-125
  0
LINE
  8
0
 10
86.8999
 20
-125
 11
86.8999
 21
-105
  0
LINE
  8
0
 10
86.8999
 20
-105
 11
86.9099
 21
-105
  0
LINE
  8
0
 10
86.9099
 20
-105
 11
86.9099
 21
-125
  0
LINE
  8
0
 10
86.9099
 20
-125
 11
86.8999
 21
-125
  0
LINE
  8
0
 10
-31.64
 20
-125
 11
-31.64
 21
-105
  0
LINE
  8
0
 10
-31.64
 20
-105
 11
-31.63
 21
-105
  0
LINE
  8
0
 10
-31.63
 20
-105
 11
-31.63
 21
-125
  0
LINE
  8
0
 10
-31.63
 20
-125
 11
-31.64
 21
-125
  0
LINE
  8
0
 10
-43.6399
 20
-125
 11
-43.6399
 21
-105
  0
LINE
  8
0
 10
-43.6399
 20
-105
 11
-43.6299
 21
-105
  0
LINE
  8
0
 10
-43.6299
 20
-105
 11
-43.6299
 21
-125
  0
LINE
  8
0
 10
-43.6299
 20
-125
 11
-43.6399
 21
-125
  0
LINE
  8
0
 10
-27.64
 20
-125
 11
-27.64
 21
-105
  0
LINE
  8
0
 10
-27.64
 20
-105
 11
-27.63
 21
-105
  0
LINE
  8
0
 10
-27.63
 20
-105
 11
-27.63
 21
-125
  0
LINE
  8
0
 10
-27.63
 20
-125
 11
-27.64
 21
-125
  0
LINE
  8
0
 10
-15.64
 20
-125
 11
-15.64
 21
-105
  0
LINE
  8
0
 10
-15.64
 20
-105
 11
-15.63
 21
-105
  0
LINE
  8
0
 10
-15.63
 20
-105
 11
-15.63
 21
-125
  0
LINE
  8
0
 10
-15.63
 20
-125
 11
-15.64
 21
-125
  0
LINE
  8
0
 10
-19.64
 20
-125
 11
-19.64
 21
-105
  0
LINE
  8
0
 10
-19.64
 20
-105
 11
-19.63
 21
-105
  0
LINE
  8
0
 10
-19.63
 20
-105
 11
-19.63
 21
-125
  0
LINE
  8
0
 10
-19.63
 20
-125
 11
-19.64
 21
-125
  0
LINE
  8
0
 10
-51.6399
 20
-125
 11
-51.6399
 21
-105
  0
LINE
  8
0
 10
-51.6399
 20
-105
 11
-51.6299
 21
-105
  0
LINE
  8
0
 10
-51.6299
 20
-105
 11
-51.6299
 21
-125
  0
LINE
  8
0
 10
-51.6299
 20
-125
 11
-51.6399
 21
-125
  0
LINE
  8
0
 10
-39.6399
 20
-125
 11
-39.6399
 21
-105
  0
LINE
  8
0
 10
-39.6399
 20
-105
 11
-39.6299
 21
-105
  0
LINE
  8
0
 10
-39.6299
 20
-105
 11
-39.6299
 21
-125
  0
LINE
  8
0
 10
-39.6299
 20
-125
 11
-39.6399
 21
-125
  0
LINE
  8
0
 10
-35.6399
 20
-125
 11
-35.6399
 21
-105
  0
LINE
  8
0
 10
-35.6399
 20
-105
 11
-35.6299
 21
-105
  0
LINE
  8
0
 10
-35.6299
 20
-105
 11
-35.6299
 21
-125
  0
LINE
  8
0
 10
-35.6299
 20
-125
 11
-35.6399
 21
-125
  0
LINE
  8
0
 10
17.63
 20
-125
 11
17.63
 21
-105
  0
LINE
  8
0
 10
17.63
 20
-105
 11
17.64
 21
-105
  0
LINE
  8
0
 10
17.64
 20
-105
 11
17.64
 21
-125
  0
LINE
  8
0
 10
17.64
 20
-125
 11
17.63
 21
-125
  0
LINE
  8
0
 10
49.6299
 20
-125
 11
49.6299
 21
-105
  0
LINE
  8
0
 10
49.6299
 20
-105
 11
49.6399
 21
-105
  0
LINE
  8
0
 10
49.6399
 20
-105
 11
49.6399
 21
-125
  0
LINE
  8
0
 10
49.6399
 20
-125
 11
49.6299
 21
-125
  0
LINE
  8
0
 10
116.9
 20
-137.5
 11
116.9
 21
-117.5
  0
LINE
  8
0
 10
116.9
 20
-117.5
 11
116.91
 21
-117.5
  0
LINE
  8
0
 10
116.91
 20
-117.5
 11
116.91
 21
-137.5
  0
LINE
  8
0
 10
116.91
 20
-137.5
 11
116.9
 21
-137.5
  0
LINE
  8
0
 10
112.9
 20
-137.5
 11
112.9
 21
-117.5
  0
LINE
  8
0
 10
112.9
 20
-117.5
 11
112.91
 21
-117.5
  0
LINE
  8
0
 10
112.91
 20
-117.5
 11
112.91
 21
-137.5
  0
LINE
  8
0
 10
112.91
 20
-137.5
 11
112.9
 21
-137.5
  0
LINE
  8
0
 10
108.9
 20
-137.5
 11
108.9
 21
-117.5
  0
LINE
  8
0
 10
108.9
 20
-117.5
 11
108.91
 21
-117.5
  0
LINE
  8
0
 10
108.91
 20
-117.5
 11
108.91
 21
-137.5
  0
LINE
  8
0
 10
108.91
 20
-137.5
 11
108.9
 21
-137.5
  0
LINE
  8
0
 10
104.9
 20
-137.5
 11
104.9
 21
-117.5
  0
LINE
  8
0
 10
104.9
 20
-117.5
 11
104.91
 21
-117.5
  0
LINE
  8
0
 10
104.91
 20
-117.5
 11
104.91
 21
-137.5
  0
LINE
  8
0
 10
104.91
 20
-137.5
 11
104.9
 21
-137.5
  0
LINE
  8
0
 10
100.9
 20
-137.5
 11
100.9
 21
-117.5
  0
LINE
  8
0
 10
100.9
 20
-117.5
 11
100.91
 21
-117.5
  0
LINE
  8
0
 10
100.91
 20
-117.5
 11
100.91
 21
-137.5
  0
LINE
  8
0
 10
100.91
 20
-137.5
 11
100.9
 21
-137.5
  0
LINE
  8
0
 10
96.8999
 20
-137.5
 11
96.8999
 21
-117.5
  0
LINE
  8
0
 10
96.8999
 20
-117.5
 11
96.9099
 21
-117.5
  0
LINE
  8
0
 10
96.9099
 20
-117.5
 11
96.9099
 21
-137.5
  0
LINE
  8
0
 10
96.9099
 20
-137.5
 11
96.8999
 21
-137.5
  0
LINE
  8
0
 10
92.8999
 20
-137.5
 11
92.8999
 21
-117.5
  0
LINE
  8
0
 10
92.8999
 20
-117.5
 11
92.9099
 21
-117.5
  0
LINE
  8
0
 10
92.9099
 20
-117.5
 11
92.9099
 21
-137.5
  0
LINE
  8
0
 10
92.9099
 20
-137.5
 11
92.8999
 21
-137.5
  0
LINE
  8
0
 10
51.6299
 20
-137.5
 11
51.6299
 21
-117.5
  0
LINE
  8
0
 10
51.6299
 20
-117.5
 11
51.6399
 21
-117.5
  0
LINE
  8
0
 10
51.6399
 20
-117.5
 11
51.6399
 21
-137.5
  0
LINE
  8
0
 10
51.6399
 20
-137.5
 11
51.6299
 21
-137.5
  0
LINE
  8
0
 10
15.63
 20
-137.5
 11
15.63
 21
-117.5
  0
LINE
  8
0
 10
15.63
 20
-117.5
 11
15.64
 21
-117.5
  0
LINE
  8
0
 10
15.64
 20
-117.5
 11
15.64
 21
-137.5
  0
LINE
  8
0
 10
15.64
 20
-137.5
 11
15.63
 21
-137.5
  0
LINE
  8
0
 10
19.63
 20
-137.5
 11
19.63
 21
-117.5
  0
LINE
  8
0
 10
19.63
 20
-117.5
 11
19.64
 21
-117.5
  0
LINE
  8
0
 10
19.64
 20
-117.5
 11
19.64
 21
-137.5
  0
LINE
  8
0
 10
19.64
 20
-137.5
 11
19.63
 21
-137.5
  0
LINE
  8
0
 10
23.63
 20
-137.5
 11
23.63
 21
-117.5
  0
LINE
  8
0
 10
23.63
 20
-117.5
 11
23.64
 21
-117.5
  0
LINE
  8
0
 10
23.64
 20
-117.5
 11
23.64
 21
-137.5
  0
LINE
  8
0
 10
23.64
 20
-137.5
 11
23.63
 21
-137.5
  0
LINE
  8
0
 10
27.63
 20
-137.5
 11
27.63
 21
-117.5
  0
LINE
  8
0
 10
27.63
 20
-117.5
 11
27.64
 21
-117.5
  0
LINE
  8
0
 10
27.64
 20
-117.5
 11
27.64
 21
-137.5
  0
LINE
  8
0
 10
27.64
 20
-137.5
 11
27.63
 21
-137.5
  0
LINE
  8
0
 10
31.63
 20
-137.5
 11
31.63
 21
-117.5
  0
LINE
  8
0
 10
31.63
 20
-117.5
 11
31.64
 21
-117.5
  0
LINE
  8
0
 10
31.64
 20
-117.5
 11
31.64
 21
-137.5
  0
LINE
  8
0
 10
31.64
 20
-137.5
 11
31.63
 21
-137.5
  0
LINE
  8
0
 10
35.6299
 20
-137.5
 11
35.6299
 21
-117.5
  0
LINE
  8
0
 10
35.6299
 20
-117.5
 11
35.6399
 21
-117.5
  0
LINE
  8
0
 10
35.6399
 20
-117.5
 11
35.6399
 21
-137.5
  0
LINE
  8
0
 10
35.6399
 20
-137.5
 11
35.6299
 21
-137.5
  0
LINE
  8
0
 10
39.6299
 20
-137.5
 11
39.6299
 21
-117.5
  0
LINE
  8
0
 10
39.6299
 20
-117.5
 11
39.6399
 21
-117.5
  0
LINE
  8
0
 10
39.6399
 20
-117.5
 11
39.6399
 21
-137.5
  0
LINE
  8
0
 10
39.6399
 20
-137.5
 11
39.6299
 21
-137.5
  0
LINE
  8
0
 10
43.6299
 20
-137.5
 11
43.6299
 21
-117.5
  0
LINE
  8
0
 10
43.6299
 20
-117.5
 11
43.6399
 21
-117.5
  0
LINE
  8
0
 10
43.6399
 20
-117.5
 11
43.6399
 21
-137.5
  0
LINE
  8
0
 10
43.6399
 20
-137.5
 11
43.6299
 21
-137.5
  0
LINE
  8
0
 10
47.6299
 20
-137.5
 11
47.6299
 21
-117.5
  0
LINE
  8
0
 10
47.6299
 20
-117.5
 11
47.6399
 21
-117.5
  0
LINE
  8
0
 10
47.6399
 20
-117.5
 11
47.6399
 21
-137.5
  0
LINE
  8
0
 10
47.6399
 20
-137.5
 11
47.6299
 21
-137.5
  0
LINE
  8
0
 10
-21.64
 20
-137.5
 11
-21.64
 21
-117.5
  0
LINE
  8
0
 10
-21.64
 20
-117.5
 11
-21.63
 21
-117.5
  0
LINE
  8
0
 10
-21.63
 20
-117.5
 11
-21.63
 21
-137.5
  0
LINE
  8
0
 10
-21.63
 20
-137.5
 11
-21.64
 21
-137.5
  0
LINE
  8
0
 10
-25.64
 20
-137.5
 11
-25.64
 21
-117.5
  0
LINE
  8
0
 10
-25.64
 20
-117.5
 11
-25.63
 21
-117.5
  0
LINE
  8
0
 10
-25.63
 20
-117.5
 11
-25.63
 21
-137.5
  0
LINE
  8
0
 10
-25.63
 20
-137.5
 11
-25.64
 21
-137.5
  0
LINE
  8
0
 10
-86.9099
 20
-137.5
 11
-86.9099
 21
-117.5
  0
LINE
  8
0
 10
-86.9099
 20
-117.5
 11
-86.8999
 21
-117.5
  0
LINE
  8
0
 10
-86.8999
 20
-117.5
 11
-86.8999
 21
-137.5
  0
LINE
  8
0
 10
-86.8999
 20
-137.5
 11
-86.9099
 21
-137.5
  0
LINE
  8
0
 10
-29.64
 20
-137.5
 11
-29.64
 21
-117.5
  0
LINE
  8
0
 10
-29.64
 20
-117.5
 11
-29.63
 21
-117.5
  0
LINE
  8
0
 10
-29.63
 20
-117.5
 11
-29.63
 21
-137.5
  0
LINE
  8
0
 10
-29.63
 20
-137.5
 11
-29.64
 21
-137.5
  0
LINE
  8
0
 10
-33.64
 20
-137.5
 11
-33.64
 21
-117.5
  0
LINE
  8
0
 10
-33.64
 20
-117.5
 11
-33.63
 21
-117.5
  0
LINE
  8
0
 10
-33.63
 20
-117.5
 11
-33.63
 21
-137.5
  0
LINE
  8
0
 10
-33.63
 20
-137.5
 11
-33.64
 21
-137.5
  0
LINE
  8
0
 10
-37.6399
 20
-137.5
 11
-37.6399
 21
-117.5
  0
LINE
  8
0
 10
-37.6399
 20
-117.5
 11
-37.6299
 21
-117.5
  0
LINE
  8
0
 10
-37.6299
 20
-117.5
 11
-37.6299
 21
-137.5
  0
LINE
  8
0
 10
-37.6299
 20
-137.5
 11
-37.6399
 21
-137.5
  0
LINE
  8
0
 10
-41.6399
 20
-137.5
 11
-41.6399
 21
-117.5
  0
LINE
  8
0
 10
-41.6399
 20
-117.5
 11
-41.6299
 21
-117.5
  0
LINE
  8
0
 10
-41.6299
 20
-117.5
 11
-41.6299
 21
-137.5
  0
LINE
  8
0
 10
-41.6299
 20
-137.5
 11
-41.6399
 21
-137.5
  0
LINE
  8
0
 10
-45.6399
 20
-137.5
 11
-45.6399
 21
-117.5
  0
LINE
  8
0
 10
-45.6399
 20
-117.5
 11
-45.6299
 21
-117.5
  0
LINE
  8
0
 10
-45.6299
 20
-117.5
 11
-45.6299
 21
-137.5
  0
LINE
  8
0
 10
-45.6299
 20
-137.5
 11
-45.6399
 21
-137.5
  0
LINE
  8
0
 10
-49.6399
 20
-137.5
 11
-49.6399
 21
-117.5
  0
LINE
  8
0
 10
-49.6399
 20
-117.5
 11
-49.6299
 21
-117.5
  0
LINE
  8
0
 10
-49.6299
 20
-117.5
 11
-49.6299
 21
-137.5
  0
LINE
  8
0
 10
-49.6299
 20
-137.5
 11
-49.6399
 21
-137.5
  0
LINE
  8
0
 10
-53.6399
 20
-137.5
 11
-53.6399
 21
-117.5
  0
LINE
  8
0
 10
-53.6399
 20
-117.5
 11
-53.6299
 21
-117.5
  0
LINE
  8
0
 10
-53.6299
 20
-117.5
 11
-53.6299
 21
-137.5
  0
LINE
  8
0
 10
-53.6299
 20
-137.5
 11
-53.6399
 21
-137.5
  0
LINE
  8
0
 10
-17.64
 20
-137.5
 11
-17.64
 21
-117.5
  0
LINE
  8
0
 10
-17.64
 20
-117.5
 11
-17.63
 21
-117.5
  0
LINE
  8
0
 10
-17.63
 20
-117.5
 11
-17.63
 21
-137.5
  0
LINE
  8
0
 10
-17.63
 20
-137.5
 11
-17.64
 21
-137.5
  0
LINE
  8
0
 10
88.8999
 20
-137.5
 11
88.8999
 21
-117.5
  0
LINE
  8
0
 10
88.8999
 20
-117.5
 11
88.9099
 21
-117.5
  0
LINE
  8
0
 10
88.9099
 20
-117.5
 11
88.9099
 21
-137.5
  0
LINE
  8
0
 10
88.9099
 20
-137.5
 11
88.8999
 21
-137.5
  0
LINE
  8
0
 10
84.8999
 20
-137.5
 11
84.8999
 21
-117.5
  0
LINE
  8
0
 10
84.8999
 20
-117.5
 11
84.9099
 21
-117.5
  0
LINE
  8
0
 10
84.9099
 20
-117.5
 11
84.9099
 21
-137.5
  0
LINE
  8
0
 10
84.9099
 20
-137.5
 11
84.8999
 21
-137.5
  0
LINE
  8
0
 10
120.9
 20
-137.5
 11
120.9
 21
-117.5
  0
LINE
  8
0
 10
120.9
 20
-117.5
 11
120.91
 21
-117.5
  0
LINE
  8
0
 10
120.91
 20
-117.5
 11
120.91
 21
-137.5
  0
LINE
  8
0
 10
120.91
 20
-137.5
 11
120.9
 21
-137.5
  0
LINE
  8
0
 10
-90.9099
 20
-137.5
 11
-90.9099
 21
-117.5
  0
LINE
  8
0
 10
-90.9099
 20
-117.5
 11
-90.8999
 21
-117.5
  0
LINE
  8
0
 10
-90.8999
 20
-117.5
 11
-90.8999
 21
-137.5
  0
LINE
  8
0
 10
-90.8999
 20
-137.5
 11
-90.9099
 21
-137.5
  0
LINE
  8
0
 10
-94.9099
 20
-137.5
 11
-94.9099
 21
-117.5
  0
LINE
  8
0
 10
-94.9099
 20
-117.5
 11
-94.8999
 21
-117.5
  0
LINE
  8
0
 10
-94.8999
 20
-117.5
 11
-94.8999
 21
-137.5
  0
LINE
  8
0
 10
-94.8999
 20
-137.5
 11
-94.9099
 21
-137.5
  0
LINE
  8
0
 10
-98.9099
 20
-137.5
 11
-98.9099
 21
-117.5
  0
LINE
  8
0
 10
-98.9099
 20
-117.5
 11
-98.8999
 21
-117.5
  0
LINE
  8
0
 10
-98.8999
 20
-117.5
 11
-98.8999
 21
-137.5
  0
LINE
  8
0
 10
-98.8999
 20
-137.5
 11
-98.9099
 21
-137.5
  0
LINE
  8
0
 10
-102.91
 20
-137.5
 11
-102.91
 21
-117.5
  0
LINE
  8
0
 10
-102.91
 20
-117.5
 11
-102.9
 21
-117.5
  0
LINE
  8
0
 10
-102.9
 20
-117.5
 11
-102.9
 21
-137.5
  0
LINE
  8
0
 10
-102.9
 20
-137.5
 11
-102.91
 21
-137.5
  0
LINE
  8
0
 10
-106.91
 20
-137.5
 11
-106.91
 21
-117.5
  0
LINE
  8
0
 10
-106.91
 20
-117.5
 11
-106.9
 21
-117.5
  0
LINE
  8
0
 10
-106.9
 20
-117.5
 11
-106.9
 21
-137.5
  0
LINE
  8
0
 10
-106.9
 20
-137.5
 11
-106.91
 21
-137.5
  0
LINE
  8
0
 10
-110.91
 20
-137.5
 11
-110.91
 21
-117.5
  0
LINE
  8
0
 10
-110.91
 20
-117.5
 11
-110.9
 21
-117.5
  0
LINE
  8
0
 10
-110.9
 20
-117.5
 11
-110.9
 21
-137.5
  0
LINE
  8
0
 10
-110.9
 20
-137.5
 11
-110.91
 21
-137.5
  0
LINE
  8
0
 10
-114.91
 20
-137.5
 11
-114.91
 21
-117.5
  0
LINE
  8
0
 10
-114.91
 20
-117.5
 11
-114.9
 21
-117.5
  0
LINE
  8
0
 10
-114.9
 20
-117.5
 11
-114.9
 21
-137.5
  0
LINE
  8
0
 10
-114.9
 20
-137.5
 11
-114.91
 21
-137.5
  0
LINE
  8
0
 10
-118.91
 20
-137.5
 11
-118.91
 21
-117.5
  0
LINE
  8
0
 10
-118.91
 20
-117.5
 11
-118.9
 21
-117.5
  0
LINE
  8
0
 10
-118.9
 20
-117.5
 11
-118.9
 21
-137.5
  0
LINE
  8
0
 10
-118.9
 20
-137.5
 11
-118.91
 21
-137.5
  0
LINE
  8
0
 10
-122.91
 20
-137.5
 11
-122.91
 21
-117.5
  0
LINE
  8
0
 10
-122.91
 20
-117.5
 11
-122.9
 21
-117.5
  0
LINE
  8
0
 10
-122.9
 20
-117.5
 11
-122.9
 21
-137.5
  0
LINE
  8
0
 10
-122.9
 20
-137.5
 11
-122.91
 21
-137.5
  0
LINE
  8
0
 10
-11.9
 20
-217.2
 11
-4.09999
 21
-217.2
  0
LINE
  8
0
 10
-4.09999
 20
-217.2
 11
-4.09999
 21
-220.5
  0
LINE
  8
0
 10
-4.09999
 20
-220.5
 11
4.09998
 21
-220.5
  0
LINE
  8
0
 10
4.09998
 20
-220.5
 11
4.09998
 21
-217.2
  0
LINE
  8
0
 10
4.09998
 20
-217.2
 11
11.9
 21
-217.2
  0
LINE
  8
0
 10
11.9
 20
-217.2
 11
11.9
 21
-220.5
  0
LINE
  8
0
 10
11.9
 20
-220.5
 11
15
 21
-220.5
  0
LINE
  8
0
 10
15
 20
-220.5
 11
15
 21
-216.796
  0
LINE
  8
0
 10
15
 20
-216.796
 11
19.3254
 21
-215.876
  0
LINE
  8
0
 10
19.3254
 20
-215.876
 11
24.1
 21
-213.751
  0
LINE
  8
0
 10
24.1
 20
-213.751
 11
28.3283
 21
-210.679
  0
LINE
  8
0
 10
28.3283
 20
-210.679
 11
31.8254
 21
-206.795
  0
LINE
  8
0
 10
31.8254
 20
-206.795
 11
34.4386
 21
-202.268
  0
LINE
  8
0
 10
34.4386
 20
-202.268
 11
36.0537
 21
-197.298
  0
LINE
  8
0
 10
36.0537
 20
-197.298
 11
36.2426
 21
-195.5
  0
LINE
  8
0
 10
36.2426
 20
-195.5
 11
40
 21
-195.5
  0
LINE
  8
0
 10
40
 20
-195.5
 11
40
 21
-192.4
  0
LINE
  8
0
 10
40
 20
-192.4
 11
36.7
 21
-192.4
  0
LINE
  8
0
 10
36.7
 20
-192.4
 11
36.7
 21
-184.6
  0
LINE
  8
0
 10
36.7
 20
-184.6
 11
40
 21
-184.6
  0
LINE
  8
0
 10
40
 20
-184.6
 11
40
 21
-176.4
  0
LINE
  8
0
 10
40
 20
-176.4
 11
36.7
 21
-176.4
  0
LINE
  8
0
 10
36.7
 20
-176.4
 11
36.7
 21
-168.6
  0
LINE
  8
0
 10
36.7
 20
-168.6
 11
40
 21
-168.6
  0
LINE
  8
0
 10
40
 20
-168.6
 11
40
 21
-165.5
  0
LINE
  8
0
 10
40
 20
-165.5
 11
36.2426
 21
-165.5
  0
LINE
  8
0
 10
36.2426
 20
-165.5
 11
36.0537
 21
-163.702
  0
LINE
  8
0
 10
36.0537
 20
-163.702
 11
34.4386
 21
-158.732
  0
LINE
  8
0
 10
34.4386
 20
-158.732
 11
31.8254
 21
-154.205
  0
LINE
  8
0
 10
31.8254
 20
-154.205
 11
28.3283
 21
-150.321
  0
LINE
  8
0
 10
28.3283
 20
-150.321
 11
24.1
 21
-147.249
  0
LINE
  8
0
 10
24.1
 20
-147.249
 11
19.3254
 21
-145.124
  0
LINE
  8
0
 10
19.3254
 20
-145.124
 11
15
 21
-144.204
  0
LINE
  8
0
 10
15
 20
-144.204
 11
15
 21
-140.5
  0
LINE
  8
0
 10
15
 20
-140.5
 11
11.9
 21
-140.5
  0
LINE
  8
0
 10
11.9
 20
-140.5
 11
11.9
 21
-143.8
  0
LINE
  8
0
 10
11.9
 20
-143.8
 11
4.09999
 21
-143.8
  0
LINE
  8
0
 10
4.09999
 20
-143.8
 11
4.09999
 21
-140.5
  0
LINE
  8
0
 10
4.09999
 20
-140.5
 11
-4.09999
 21
-140.5
  0
LINE
  8
0
 10
-4.09999
 20
-140.5
 11
-4.09999
 21
-143.8
  0
LINE
  8
0
 10
-4.09999
 20
-143.8
 11
-11.9
 21
-143.8
  0
LINE
  8
0
 10
-11.9
 20
-143.8
 11
-11.9
 21
-140.5
  0
LINE
  8
0
 10
-11.9
 20
-140.5
 11
-15
 21
-140.5
  0
LINE
  8
0
 10
-15
 20
-140.5
 11
-15
 21
-144.204
  0
LINE
  8
0
 10
-15
 20
-144.204
 11
-19.3254
 21
-145.124
  0
LINE
  8
0
 10
-19.3254
 20
-145.124
 11
-24.1
 21
-147.249
  0
LINE
  8
0
 10
-24.1
 20
-147.249
 11
-28.3283
 21
-150.321
  0
LINE
  8
0
 10
-28.3283
 20
-150.321
 11
-31.8254
 21
-154.205
  0
LINE
  8
0
 10
-31.8254
 20
-154.205
 11
-34.4386
 21
-158.732
  0
LINE
  8
0
 10
-34.4386
 20
-158.732
 11
-36.0537
 21
-163.702
  0
LINE
  8
0
 10
-36.0537
 20
-163.702
 11
-36.2426
 21
-165.5
  0
LINE
  8
0
 10
-36.2426
 20
-165.5
 11
-40
 21
-165.5
  0
LINE
  8
0
 10
-40
 20
-165.5
 11
-40
 21
-168.6
  0
LINE
  8
0
 10
-40
 20
-168.6
 11
-36.7
 21
-168.6
  0
LINE
  8
0
 10
-36.7
 20
-168.6
 11
-36.7
 21
-176.4
  0
LINE
  8
0
 10
-36.7
 20
-176.4
 11
-40
 21
-176.4
  0
LINE
  8
0
 10
-40
 20
-176.4
 11
-40
 21
-184.6
  0
LINE
  8
0
 10
-40
 20
-184.6
 11
-36.7
 21
-184.6
  0
LINE
  8
0
 10
-36.7
 20
-184.6
 11
-36.7
 21
-192.4
  0
LINE
  8
0
 10
-36.7
 20
-192.4
 11
-40
 21
-192.4
  0
LINE
  8
0
 10
-40
 20
-192.4
 11
-40
 21
-195.5
  0
LINE
  8
0
 10
-40
 20
-195.5
 11
-36.2426
 21
-195.5
  0
LINE
  8
0
 10
-36.2426
 20
-195.5
 11
-36.0537
 21
-197.298
  0
LINE
  8
0
 10
-36.0537
 20
-197.298
 11
-34.4386
 21
-202.268
  0
LINE
  8
0
 10
-34.4386
 20
-202.268
 11
-31.8254
 21
-206.795
  0
LINE
  8
0
 10
-31.8254
 20
-206.795
 11
-28.3283
 21
-210.679
  0
LINE
  8
0
 10
-28.3283
 20
-210.679
 11
-24.1
 21
-213.751
  0
LINE
  8
0
 10
-24.1
 20
-213.751
 11
-19.3254
 21
-215.876
  0
LINE
  8
0
 10
-19.3254
 20
-215.876
 11
-15
 21
-216.796
  0
LINE
  8
0
 10
-15
 20
-216.796
 11
-15
 21
-220.5
  0
LINE
  8
0
 10
-15
 20
-220.5
 11
-11.9
 21
-220.5
  0
LINE
  8
0
 10
-11.9
 20
-220.5
 11
-11.9
 21
-217.2
  0
LINE
  8
0
 10
-16.3126
 20
-184.188
 11
-16.3126
 21
-176.508
  0
LINE
  8
0
 10
-16.3126
 20
-176.508
 11
-13.5306
 21
-176.508
  0
LINE
  8
0
 10
-13.5306
 20
-176.508
 11
-12.3511
 21
-176.624
  0
LINE
  8
0
 10
-12.3511
 20
-176.624
 11
-11.5086
 21
-176.973
  0
LINE
  8
0
 10
-11.5086
 20
-176.973
 11
-11.0031
 21
-177.555
  0
LINE
  8
0
 10
-11.0031
 20
-177.555
 11
-10.8346
 21
-178.371
  0
LINE
  8
0
 10
-10.8346
 20
-178.371
 11
-10.8584
 21
-178.697
  0
LINE
  8
0
 10
-10.8584
 20
-178.697
 11
-10.9298
 21
-178.997
  0
LINE
  8
0
 10
-10.9298
 20
-178.997
 11
-11.0489
 21
-179.269
  0
LINE
  8
0
 10
-11.0489
 20
-179.269
 11
-11.2156
 21
-179.515
  0
LINE
  8
0
 10
-11.2156
 20
-179.515
 11
-11.4253
 21
-179.727
  0
LINE
  8
0
 10
-11.4253
 20
-179.727
 11
-11.6743
 21
-179.901
  0
LINE
  8
0
 10
-11.6743
 20
-179.901
 11
-11.9628
 21
-180.037
  0
LINE
  8
0
 10
-11.9628
 20
-180.037
 11
-12.2906
 21
-180.136
  0
LINE
  8
0
 10
-12.2906
 20
-180.136
 11
-11.8603
 21
-180.215
  0
LINE
  8
0
 10
-11.8603
 20
-180.215
 11
-11.4823
 21
-180.344
  0
LINE
  8
0
 10
-11.4823
 20
-180.344
 11
-11.1568
 21
-180.522
  0
LINE
  8
0
 10
-11.1568
 20
-180.522
 11
-10.8836
 21
-180.749
  0
LINE
  8
0
 10
-10.8836
 20
-180.749
 11
-10.667
 21
-181.018
  0
LINE
  8
0
 10
-10.667
 20
-181.018
 11
-10.5123
 21
-181.32
  0
LINE
  8
0
 10
-10.5123
 20
-181.32
 11
-10.4195
 21
-181.655
  0
LINE
  8
0
 10
-10.4195
 20
-181.655
 11
-10.3886
 21
-182.022
  0
LINE
  8
0
 10
-10.3886
 20
-182.022
 11
-10.4351
 21
-182.507
  0
LINE
  8
0
 10
-10.4351
 20
-182.507
 11
-10.5748
 21
-182.934
  0
LINE
  8
0
 10
-10.5748
 20
-182.934
 11
-10.8076
 21
-183.304
  0
LINE
  8
0
 10
-10.8076
 20
-183.304
 11
-11.1336
 21
-183.617
  0
LINE
  8
0
 10
-11.1336
 20
-183.617
 11
-11.5419
 21
-183.867
  0
LINE
  8
0
 10
-11.5419
 20
-183.867
 11
-12.0231
 21
-184.045
  0
LINE
  8
0
 10
-12.0231
 20
-184.045
 11
-12.577
 21
-184.152
  0
LINE
  8
0
 10
-12.577
 20
-184.152
 11
-13.2036
 21
-184.188
  0
LINE
  8
0
 10
-13.2036
 20
-184.188
 11
-16.3126
 21
-184.188
  0
LINE
  8
0
 10
-13.141
 20
-179.752
 11
-12.8041
 21
-179.693
  0
LINE
  8
0
 10
-12.8041
 20
-179.693
 11
-12.52
 21
-179.595
  0
LINE
  8
0
 10
-12.52
 20
-179.595
 11
-12.2886
 21
-179.459
  0
LINE
  8
0
 10
-12.2886
 20
-179.459
 11
-12.1092
 21
-179.281
  0
LINE
  8
0
 10
-12.1092
 20
-179.281
 11
-11.9811
 21
-179.061
  0
LINE
  8
0
 10
-11.9811
 20
-179.061
 11
-11.9042
 21
-178.799
  0
LINE
  8
0
 10
-11.9042
 20
-178.799
 11
-11.8786
 21
-178.496
  0
LINE
  8
0
 10
-11.8786
 20
-178.496
 11
-11.9051
 21
-178.207
  0
LINE
  8
0
 10
-11.9051
 20
-178.207
 11
-11.9846
 21
-177.962
  0
LINE
  8
0
 10
-11.9846
 20
-177.962
 11
-12.1171
 21
-177.762
  0
LINE
  8
0
 10
-12.1171
 20
-177.762
 11
-12.3026
 21
-177.607
  0
LINE
  8
0
 10
-12.3026
 20
-177.607
 11
-12.5383
 21
-177.49
  0
LINE
  8
0
 10
-12.5383
 20
-177.49
 11
-12.8216
 21
-177.406
  0
LINE
  8
0
 10
-12.8216
 20
-177.406
 11
-13.1523
 21
-177.356
  0
LINE
  8
0
 10
-13.1523
 20
-177.356
 11
-13.5306
 21
-177.34
  0
LINE
  8
0
 10
-13.5306
 20
-177.34
 11
-15.2746
 21
-177.34
  0
LINE
  8
0
 10
-15.2746
 20
-177.34
 11
-15.2746
 21
-179.772
  0
LINE
  8
0
 10
-15.2746
 20
-179.772
 11
-13.5306
 21
-179.772
  0
LINE
  8
0
 10
-13.5306
 20
-179.772
 11
-13.141
 21
-179.752
  0
LINE
  8
0
 10
-12.8153
 20
-183.333
 11
-12.4366
 21
-183.267
  0
LINE
  8
0
 10
-12.4366
 20
-183.267
 11
-12.1223
 21
-183.156
  0
LINE
  8
0
 10
-12.1223
 20
-183.156
 11
-11.8726
 21
-183
  0
LINE
  8
0
 10
-11.8726
 20
-183
 11
-11.6823
 21
-182.801
  0
LINE
  8
0
 10
-11.6823
 20
-182.801
 11
-11.5463
 21
-182.558
  0
LINE
  8
0
 10
-11.5463
 20
-182.558
 11
-11.4648
 21
-182.272
  0
LINE
  8
0
 10
-11.4648
 20
-182.272
 11
-11.4376
 21
-181.941
  0
LINE
  8
0
 10
-11.4376
 20
-181.941
 11
-11.5565
 21
-181.346
  0
LINE
  8
0
 10
-11.5565
 20
-181.346
 11
-11.9131
 21
-180.921
  0
LINE
  8
0
 10
-11.9131
 20
-180.921
 11
-12.5074
 21
-180.666
  0
LINE
  8
0
 10
-12.5074
 20
-180.666
 11
-13.3396
 21
-180.581
  0
LINE
  8
0
 10
-13.3396
 20
-180.581
 11
-15.2746
 21
-180.581
  0
LINE
  8
0
 10
-15.2746
 20
-180.581
 11
-15.2746
 21
-183.355
  0
LINE
  8
0
 10
-15.2746
 20
-183.355
 11
-13.2586
 21
-183.355
  0
LINE
  8
0
 10
-13.2586
 20
-183.355
 11
-12.8153
 21
-183.333
  0
LINE
  8
0
 10
-2.42595
 20
-184.168
 11
-2.79031
 21
-183.919
  0
LINE
  8
0
 10
-2.79031
 20
-183.919
 11
-3.00894
 21
-183.504
  0
LINE
  8
0
 10
-3.00894
 20
-183.504
 11
-3.08182
 21
-182.923
  0
LINE
  8
0
 10
-3.08182
 20
-182.923
 11
-3.08182
 21
-179.012
  0
LINE
  8
0
 10
-3.08182
 20
-179.012
 11
-3.76082
 21
-179.012
  0
LINE
  8
0
 10
-3.76082
 20
-179.012
 11
-3.76082
 21
-178.3
  0
LINE
  8
0
 10
-3.76082
 20
-178.3
 11
-3.04382
 21
-178.3
  0
LINE
  8
0
 10
-3.04382
 20
-178.3
 11
-2.75482
 21
-176.956
  0
LINE
  8
0
 10
-2.75482
 20
-176.956
 11
-2.10281
 21
-176.956
  0
LINE
  8
0
 10
-2.10281
 20
-176.956
 11
-2.10281
 21
-178.3
  0
LINE
  8
0
 10
-2.10281
 20
-178.3
 11
-1.03082
 21
-178.3
  0
LINE
  8
0
 10
-1.03082
 20
-178.3
 11
-1.03082
 21
-179.012
  0
LINE
  8
0
 10
-1.03082
 20
-179.012
 11
-2.10281
 21
-179.012
  0
LINE
  8
0
 10
-2.10281
 20
-179.012
 11
-2.10281
 21
-182.709
  0
LINE
  8
0
 10
-2.10281
 20
-182.709
 11
-2.09431
 21
-182.905
  0
LINE
  8
0
 10
-2.09431
 20
-182.905
 11
-2.06882
 21
-183.069
  0
LINE
  8
0
 10
-2.06882
 20
-183.069
 11
-2.02632
 21
-183.202
  0
LINE
  8
0
 10
-2.02632
 20
-183.202
 11
-1.96683
 21
-183.303
  0
LINE
  8
0
 10
-1.96683
 20
-183.303
 11
-1.88576
 21
-183.378
  0
LINE
  8
0
 10
-1.88576
 20
-183.378
 11
-1.77957
 21
-183.431
  0
LINE
  8
0
 10
-1.77957
 20
-183.431
 11
-1.64825
 21
-183.463
  0
LINE
  8
0
 10
-1.64825
 20
-183.463
 11
-1.49182
 21
-183.473
  0
LINE
  8
0
 10
-1.49182
 20
-183.473
 11
-1.38457
 21
-183.469
  0
LINE
  8
0
 10
-1.38457
 20
-183.469
 11
-1.25581
 21
-183.454
  0
LINE
  8
0
 10
-1.25581
 20
-183.454
 11
-1.10558
 21
-183.431
  0
LINE
  8
0
 10
-1.10558
 20
-183.431
 11
-0.933823
 21
-183.397
  0
LINE
  8
0
 10
-0.933823
 20
-183.397
 11
-0.933823
 21
-184.12
  0
LINE
  8
0
 10
-0.933823
 20
-184.12
 11
-1.1752
 21
-184.178
  0
LINE
  8
0
 10
-1.1752
 20
-184.178
 11
-1.41933
 21
-184.219
  0
LINE
  8
0
 10
-1.41933
 20
-184.219
 11
-1.6662
 21
-184.243
  0
LINE
  8
0
 10
-1.6662
 20
-184.243
 11
-1.91582
 21
-184.251
  0
LINE
  8
0
 10
-1.91582
 20
-184.251
 11
-2.42595
 21
-184.168
  0
LINE
  8
0
 10
0.59552
 20
-184.168
 11
0.231155
 21
-183.919
  0
LINE
  8
0
 10
0.231155
 20
-183.919
 11
0.0125275
 21
-183.504
  0
LINE
  8
0
 10
0.0125275
 20
-183.504
 11
-0.0603333
 21
-182.923
  0
LINE
  8
0
 10
-0.0603333
 20
-182.923
 11
-0.0603333
 21
-179.012
  0
LINE
  8
0
 10
-0.0603333
 20
-179.012
 11
-0.739334
 21
-179.012
  0
LINE
  8
0
 10
-0.739334
 20
-179.012
 11
-0.739334
 21
-178.3
  0
LINE
  8
0
 10
-0.739334
 20
-178.3
 11
-0.0223389
 21
-178.3
  0
LINE
  8
0
 10
-0.0223389
 20
-178.3
 11
0.266647
 21
-176.956
  0
LINE
  8
0
 10
0.266647
 20
-176.956
 11
0.918655
 21
-176.956
  0
LINE
  8
0
 10
0.918655
 20
-176.956
 11
0.918655
 21
-178.3
  0
LINE
  8
0
 10
0.918655
 20
-178.3
 11
1.99065
 21
-178.3
  0
LINE
  8
0
 10
1.99065
 20
-178.3
 11
1.99065
 21
-179.012
  0
LINE
  8
0
 10
1.99065
 20
-179.012
 11
0.918655
 21
-179.012
  0
LINE
  8
0
 10
0.918655
 20
-179.012
 11
0.918655
 21
-182.709
  0
LINE
  8
0
 10
0.918655
 20
-182.709
 11
0.927155
 21
-182.905
  0
LINE
  8
0
 10
0.927155
 20
-182.905
 11
0.952652
 21
-183.069
  0
LINE
  8
0
 10
0.952652
 20
-183.069
 11
0.995148
 21
-183.202
  0
LINE
  8
0
 10
0.995148
 20
-183.202
 11
1.05464
 21
-183.303
  0
LINE
  8
0
 10
1.05464
 20
-183.303
 11
1.13571
 21
-183.378
  0
LINE
  8
0
 10
1.13571
 20
-183.378
 11
1.2419
 21
-183.431
  0
LINE
  8
0
 10
1.2419
 20
-183.431
 11
1.37321
 21
-183.463
  0
LINE
  8
0
 10
1.37321
 20
-183.463
 11
1.52965
 21
-183.473
  0
LINE
  8
0
 10
1.52965
 20
-183.473
 11
1.6369
 21
-183.469
  0
LINE
  8
0
 10
1.6369
 20
-183.469
 11
1.76566
 21
-183.454
  0
LINE
  8
0
 10
1.76566
 20
-183.454
 11
1.91589
 21
-183.431
  0
LINE
  8
0
 10
1.91589
 20
-183.431
 11
2.08765
 21
-183.397
  0
LINE
  8
0
 10
2.08765
 20
-183.397
 11
2.08765
 21
-184.12
  0
LINE
  8
0
 10
2.08765
 20
-184.12
 11
1.84627
 21
-184.178
  0
LINE
  8
0
 10
1.84627
 20
-184.178
 11
1.60214
 21
-184.219
  0
LINE
  8
0
 10
1.60214
 20
-184.219
 11
1.35527
 21
-184.243
  0
LINE
  8
0
 10
1.35527
 20
-184.243
 11
1.10565
 21
-184.251
  0
LINE
  8
0
 10
1.10565
 20
-184.251
 11
0.59552
 21
-184.168
  0
LINE
  8
0
 10
4.59207
 20
-184.266
 11
4.06488
 21
-184.118
  0
LINE
  8
0
 10
4.06488
 20
-184.118
 11
3.61658
 21
-183.871
  0
LINE
  8
0
 10
3.61658
 20
-183.871
 11
3.24713
 21
-183.524
  0
LINE
  8
0
 10
3.24713
 20
-183.524
 11
2.95882
 21
-183.085
  0
LINE
  8
0
 10
2.95882
 20
-183.085
 11
2.75288
 21
-182.557
  0
LINE
  8
0
 10
2.75288
 20
-182.557
 11
2.62932
 21
-181.942
  0
LINE
  8
0
 10
2.62932
 20
-181.942
 11
2.58813
 21
-181.238
  0
LINE
  8
0
 10
2.58813
 20
-181.238
 11
2.75333
 21
-179.897
  0
LINE
  8
0
 10
2.75333
 20
-179.897
 11
3.24889
 21
-178.938
  0
LINE
  8
0
 10
3.24889
 20
-178.938
 11
4.07481
 21
-178.363
  0
LINE
  8
0
 10
4.07481
 20
-178.363
 11
5.23114
 21
-178.172
  0
LINE
  8
0
 10
5.23114
 20
-178.172
 11
5.86244
 21
-178.218
  0
LINE
  8
0
 10
5.86244
 20
-178.218
 11
6.40439
 21
-178.359
  0
LINE
  8
0
 10
6.40439
 20
-178.359
 11
6.85695
 21
-178.592
  0
LINE
  8
0
 10
6.85695
 20
-178.592
 11
7.22014
 21
-178.92
  0
LINE
  8
0
 10
7.22014
 20
-178.92
 11
7.49925
 21
-179.345
  0
LINE
  8
0
 10
7.49925
 20
-179.345
 11
7.69864
 21
-179.873
  0
LINE
  8
0
 10
7.69864
 20
-179.873
 11
7.81825
 21
-180.504
  0
LINE
  8
0
 10
7.81825
 20
-180.504
 11
7.85814
 21
-181.238
  0
LINE
  8
0
 10
7.85814
 20
-181.238
 11
7.81557
 21
-181.966
  0
LINE
  8
0
 10
7.81557
 20
-181.966
 11
7.68788
 21
-182.595
  0
LINE
  8
0
 10
7.68788
 20
-182.595
 11
7.47507
 21
-183.124
  0
LINE
  8
0
 10
7.47507
 20
-183.124
 11
7.17714
 21
-183.554
  0
LINE
  8
0
 10
7.17714
 20
-183.554
 11
6.79807
 21
-183.887
  0
LINE
  8
0
 10
6.79807
 20
-183.887
 11
6.34189
 21
-184.125
  0
LINE
  8
0
 10
6.34189
 20
-184.125
 11
5.80856
 21
-184.268
  0
LINE
  8
0
 10
5.80856
 20
-184.268
 11
5.19814
 21
-184.315
  0
LINE
  8
0
 10
5.19814
 20
-184.315
 11
4.59207
 21
-184.266
  0
LINE
  8
0
 10
5.59756
 20
-183.557
 11
5.94489
 21
-183.45
  0
LINE
  8
0
 10
5.94489
 20
-183.45
 11
6.22906
 21
-183.271
  0
LINE
  8
0
 10
6.22906
 20
-183.271
 11
6.45013
 21
-183.021
  0
LINE
  8
0
 10
6.45013
 20
-183.021
 11
6.61638
 21
-182.696
  0
LINE
  8
0
 10
6.61638
 20
-182.696
 11
6.73514
 21
-182.29
  0
LINE
  8
0
 10
6.73514
 20
-182.29
 11
6.80638
 21
-181.804
  0
LINE
  8
0
 10
6.80638
 20
-181.804
 11
6.83014
 21
-181.238
  0
LINE
  8
0
 10
6.83014
 20
-181.238
 11
6.80745
 21
-180.666
  0
LINE
  8
0
 10
6.80745
 20
-180.666
 11
6.73938
 21
-180.177
  0
LINE
  8
0
 10
6.73938
 20
-180.177
 11
6.62595
 21
-179.772
  0
LINE
  8
0
 10
6.62595
 20
-179.772
 11
6.46713
 21
-179.452
  0
LINE
  8
0
 10
6.46713
 20
-179.452
 11
6.25476
 21
-179.208
  0
LINE
  8
0
 10
6.25476
 20
-179.208
 11
5.98064
 21
-179.034
  0
LINE
  8
0
 10
5.98064
 20
-179.034
 11
5.64476
 21
-178.929
  0
LINE
  8
0
 10
5.64476
 20
-178.929
 11
5.24713
 21
-178.895
  0
LINE
  8
0
 10
5.24713
 20
-178.895
 11
4.84595
 21
-178.93
  0
LINE
  8
0
 10
4.84595
 20
-178.93
 11
4.50438
 21
-179.037
  0
LINE
  8
0
 10
4.50438
 20
-179.037
 11
4.22244
 21
-179.214
  0
LINE
  8
0
 10
4.22244
 20
-179.214
 11
4.00014
 21
-179.463
  0
LINE
  8
0
 10
4.00014
 20
-179.463
 11
3.8317
 21
-179.787
  0
LINE
  8
0
 10
3.8317
 20
-179.787
 11
3.71138
 21
-180.191
  0
LINE
  8
0
 10
3.71138
 20
-180.191
 11
3.63919
 21
-180.674
  0
LINE
  8
0
 10
3.63919
 20
-180.674
 11
3.61513
 21
-181.238
  0
LINE
  8
0
 10
3.61513
 20
-181.238
 11
3.63882
 21
-181.789
  0
LINE
  8
0
 10
3.63882
 20
-181.789
 11
3.70988
 21
-182.266
  0
LINE
  8
0
 10
3.70988
 20
-182.266
 11
3.82832
 21
-182.671
  0
LINE
  8
0
 10
3.82832
 20
-182.671
 11
3.99414
 21
-183.002
  0
LINE
  8
0
 10
3.99414
 20
-183.002
 11
4.2112
 21
-183.261
  0
LINE
  8
0
 10
4.2112
 20
-183.261
 11
4.48238
 21
-183.445
  0
LINE
  8
0
 10
4.48238
 20
-183.445
 11
4.80769
 21
-183.556
  0
LINE
  8
0
 10
4.80769
 20
-183.556
 11
5.18713
 21
-183.592
  0
LINE
  8
0
 10
5.18713
 20
-183.592
 11
5.59756
 21
-183.557
  0
LINE
  8
0
 10
-7.49873
 20
-184.266
 11
-8.02592
 21
-184.118
  0
LINE
  8
0
 10
-8.02592
 20
-184.118
 11
-8.47423
 21
-183.871
  0
LINE
  8
0
 10
-8.47423
 20
-183.871
 11
-8.84367
 21
-183.524
  0
LINE
  8
0
 10
-8.84367
 20
-183.524
 11
-9.13199
 21
-183.085
  0
LINE
  8
0
 10
-9.13199
 20
-183.085
 11
-9.33792
 21
-182.557
  0
LINE
  8
0
 10
-9.33792
 20
-182.557
 11
-9.46149
 21
-181.942
  0
LINE
  8
0
 10
-9.46149
 20
-181.942
 11
-9.50267
 21
-181.238
  0
LINE
  8
0
 10
-9.50267
 20
-181.238
 11
-9.33748
 21
-179.897
  0
LINE
  8
0
 10
-9.33748
 20
-179.897
 11
-8.84192
 21
-178.938
  0
LINE
  8
0
 10
-8.84192
 20
-178.938
 11
-8.01599
 21
-178.363
  0
LINE
  8
0
 10
-8.01599
 20
-178.363
 11
-6.85966
 21
-178.172
  0
LINE
  8
0
 10
-6.85966
 20
-178.172
 11
-6.22836
 21
-178.218
  0
LINE
  8
0
 10
-6.22836
 20
-178.218
 11
-5.68642
 21
-178.359
  0
LINE
  8
0
 10
-5.68642
 20
-178.359
 11
-5.23386
 21
-178.592
  0
LINE
  8
0
 10
-5.23386
 20
-178.592
 11
-4.87067
 21
-178.92
  0
LINE
  8
0
 10
-4.87067
 20
-178.92
 11
-4.59155
 21
-179.345
  0
LINE
  8
0
 10
-4.59155
 20
-179.345
 11
-4.39217
 21
-179.873
  0
LINE
  8
0
 10
-4.39217
 20
-179.873
 11
-4.27255
 21
-180.504
  0
LINE
  8
0
 10
-4.27255
 20
-180.504
 11
-4.23267
 21
-181.238
  0
LINE
  8
0
 10
-4.23267
 20
-181.238
 11
-4.27524
 21
-181.966
  0
LINE
  8
0
 10
-4.27524
 20
-181.966
 11
-4.40292
 21
-182.595
  0
LINE
  8
0
 10
-4.40292
 20
-182.595
 11
-4.61574
 21
-183.124
  0
LINE
  8
0
 10
-4.61574
 20
-183.124
 11
-4.91367
 21
-183.554
  0
LINE
  8
0
 10
-4.91367
 20
-183.554
 11
-5.29274
 21
-183.887
  0
LINE
  8
0
 10
-5.29274
 20
-183.887
 11
-5.74892
 21
-184.125
  0
LINE
  8
0
 10
-5.74892
 20
-184.125
 11
-6.28224
 21
-184.268
  0
LINE
  8
0
 10
-6.28224
 20
-184.268
 11
-6.89267
 21
-184.315
  0
LINE
  8
0
 10
-6.89267
 20
-184.315
 11
-7.49873
 21
-184.266
  0
LINE
  8
0
 10
-6.49324
 20
-183.557
 11
-6.14592
 21
-183.45
  0
LINE
  8
0
 10
-6.14592
 20
-183.45
 11
-5.86174
 21
-183.271
  0
LINE
  8
0
 10
-5.86174
 20
-183.271
 11
-5.64067
 21
-183.021
  0
LINE
  8
0
 10
-5.64067
 20
-183.021
 11
-5.47443
 21
-182.696
  0
LINE
  8
0
 10
-5.47443
 20
-182.696
 11
-5.35567
 21
-182.29
  0
LINE
  8
0
 10
-5.35567
 20
-182.29
 11
-5.28442
 21
-181.804
  0
LINE
  8
0
 10
-5.28442
 20
-181.804
 11
-5.26067
 21
-181.238
  0
LINE
  8
0
 10
-5.26067
 20
-181.238
 11
-5.28336
 21
-180.666
  0
LINE
  8
0
 10
-5.28336
 20
-180.666
 11
-5.35143
 21
-180.177
  0
LINE
  8
0
 10
-5.35143
 20
-180.177
 11
-5.46486
 21
-179.772
  0
LINE
  8
0
 10
-5.46486
 20
-179.772
 11
-5.62367
 21
-179.452
  0
LINE
  8
0
 10
-5.62367
 20
-179.452
 11
-5.83604
 21
-179.208
  0
LINE
  8
0
 10
-5.83604
 20
-179.208
 11
-6.11017
 21
-179.034
  0
LINE
  8
0
 10
-6.11017
 20
-179.034
 11
-6.44604
 21
-178.929
  0
LINE
  8
0
 10
-6.44604
 20
-178.929
 11
-6.84367
 21
-178.895
  0
LINE
  8
0
 10
-6.84367
 20
-178.895
 11
-7.24486
 21
-178.93
  0
LINE
  8
0
 10
-7.24486
 20
-178.93
 11
-7.58643
 21
-179.037
  0
LINE
  8
0
 10
-7.58643
 20
-179.037
 11
-7.86836
 21
-179.214
  0
LINE
  8
0
 10
-7.86836
 20
-179.214
 11
-8.09067
 21
-179.463
  0
LINE
  8
0
 10
-8.09067
 20
-179.463
 11
-8.25911
 21
-179.787
  0
LINE
  8
0
 10
-8.25911
 20
-179.787
 11
-8.37943
 21
-180.191
  0
LINE
  8
0
 10
-8.37943
 20
-180.191
 11
-8.45161
 21
-180.674
  0
LINE
  8
0
 10
-8.45161
 20
-180.674
 11
-8.47568
 21
-181.238
  0
LINE
  8
0
 10
-8.47568
 20
-181.238
 11
-8.45198
 21
-181.789
  0
LINE
  8
0
 10
-8.45198
 20
-181.789
 11
-8.38092
 21
-182.266
  0
LINE
  8
0
 10
-8.38092
 20
-182.266
 11
-8.26248
 21
-182.671
  0
LINE
  8
0
 10
-8.26248
 20
-182.671
 11
-8.09668
 21
-183.002
  0
LINE
  8
0
 10
-8.09668
 20
-183.002
 11
-7.87961
 21
-183.261
  0
LINE
  8
0
 10
-7.87961
 20
-183.261
 11
-7.60843
 21
-183.445
  0
LINE
  8
0
 10
-7.60843
 20
-183.445
 11
-7.28311
 21
-183.556
  0
LINE
  8
0
 10
-7.28311
 20
-183.556
 11
-6.90367
 21
-183.592
  0
LINE
  8
0
 10
-6.90367
 20
-183.592
 11
-6.49324
 21
-183.557
  0
LINE
  8
0
 10
8.93898
 20
-184.188
 11
8.93898
 21
-179.557
  0
LINE
  8
0
 10
8.93898
 20
-179.557
 11
8.93698
 21
-179.092
  0
LINE
  8
0
 10
8.93698
 20
-179.092
 11
8.93098
 21
-178.728
  0
LINE
  8
0
 10
8.93098
 20
-178.728
 11
8.92099
 21
-178.464
  0
LINE
  8
0
 10
8.92099
 20
-178.464
 11
8.90698
 21
-178.3
  0
LINE
  8
0
 10
8.90698
 20
-178.3
 11
9.83098
 21
-178.3
  0
LINE
  8
0
 10
9.83098
 20
-178.3
 11
9.83673
 21
-178.349
  0
LINE
  8
0
 10
9.83673
 20
-178.349
 11
9.8596
 21
-178.808
  0
LINE
  8
0
 10
9.8596
 20
-178.808
 11
9.87498
 21
-179.291
  0
LINE
  8
0
 10
9.87498
 20
-179.291
 11
9.89099
 21
-179.291
  0
LINE
  8
0
 10
9.89099
 20
-179.291
 11
10.0547
 21
-179
  0
LINE
  8
0
 10
10.0547
 20
-179
 11
10.23
 21
-178.758
  0
LINE
  8
0
 10
10.23
 20
-178.758
 11
10.4167
 21
-178.564
  0
LINE
  8
0
 10
10.4167
 20
-178.564
 11
10.615
 21
-178.418
  0
LINE
  8
0
 10
10.615
 20
-178.418
 11
10.8302
 21
-178.31
  0
LINE
  8
0
 10
10.8302
 20
-178.31
 11
11.0677
 21
-178.233
  0
LINE
  8
0
 10
11.0677
 20
-178.233
 11
11.3277
 21
-178.187
  0
LINE
  8
0
 10
11.3277
 20
-178.187
 11
11.61
 21
-178.172
  0
LINE
  8
0
 10
11.61
 20
-178.172
 11
11.9274
 21
-178.188
  0
LINE
  8
0
 10
11.9274
 20
-178.188
 11
12.2097
 21
-178.239
  0
LINE
  8
0
 10
12.2097
 20
-178.239
 11
12.4569
 21
-178.322
  0
LINE
  8
0
 10
12.4569
 20
-178.322
 11
12.669
 21
-178.44
  0
LINE
  8
0
 10
12.669
 20
-178.44
 11
12.8487
 21
-178.593
  0
LINE
  8
0
 10
12.8487
 20
-178.593
 11
12.9987
 21
-178.786
  0
LINE
  8
0
 10
12.9987
 20
-178.786
 11
13.1192
 21
-179.018
  0
LINE
  8
0
 10
13.1192
 20
-179.018
 11
13.21
 21
-179.291
  0
LINE
  8
0
 10
13.21
 20
-179.291
 11
13.226
 21
-179.291
  0
LINE
  8
0
 10
13.226
 20
-179.291
 11
13.3864
 21
-179.014
  0
LINE
  8
0
 10
13.3864
 20
-179.014
 11
13.5627
 21
-178.779
  0
LINE
  8
0
 10
13.5627
 20
-178.779
 11
13.7549
 21
-178.585
  0
LINE
  8
0
 10
13.7549
 20
-178.585
 11
13.963
 21
-178.434
  0
LINE
  8
0
 10
13.963
 20
-178.434
 11
14.1908
 21
-178.319
  0
LINE
  8
0
 10
14.1908
 20
-178.319
 11
14.4412
 21
-178.237
  0
LINE
  8
0
 10
14.4412
 20
-178.237
 11
14.7143
 21
-178.188
  0
LINE
  8
0
 10
14.7143
 20
-178.188
 11
15.01
 21
-178.172
  0
LINE
  8
0
 10
15.01
 20
-178.172
 11
15.426
 21
-178.202
  0
LINE
  8
0
 10
15.426
 20
-178.202
 11
15.781
 21
-178.293
  0
LINE
  8
0
 10
15.781
 20
-178.293
 11
16.075
 21
-178.445
  0
LINE
  8
0
 10
16.075
 20
-178.445
 11
16.308
 21
-178.658
  0
LINE
  8
0
 10
16.308
 20
-178.658
 11
16.4852
 21
-178.939
  0
LINE
  8
0
 10
16.4852
 20
-178.939
 11
16.6117
 21
-179.299
  0
LINE
  8
0
 10
16.6117
 20
-179.299
 11
16.6877
 21
-179.736
  0
LINE
  8
0
 10
16.6877
 20
-179.736
 11
16.713
 21
-180.252
  0
LINE
  8
0
 10
16.713
 20
-180.252
 11
16.713
 21
-184.188
  0
LINE
  8
0
 10
16.713
 20
-184.188
 11
15.745
 21
-184.188
  0
LINE
  8
0
 10
15.745
 20
-184.188
 11
15.745
 21
-180.441
  0
LINE
  8
0
 10
15.745
 20
-180.441
 11
15.7304
 21
-180.045
  0
LINE
  8
0
 10
15.7304
 20
-180.045
 11
15.6865
 21
-179.715
  0
LINE
  8
0
 10
15.6865
 20
-179.715
 11
15.6134
 21
-179.452
  0
LINE
  8
0
 10
15.6134
 20
-179.452
 11
15.511
 21
-179.256
  0
LINE
  8
0
 10
15.511
 20
-179.256
 11
15.3705
 21
-179.112
  0
LINE
  8
0
 10
15.3705
 20
-179.112
 11
15.1832
 21
-179.01
  0
LINE
  8
0
 10
15.1832
 20
-179.01
 11
14.9491
 21
-178.948
  0
LINE
  8
0
 10
14.9491
 20
-178.948
 11
14.668
 21
-178.928
  0
LINE
  8
0
 10
14.668
 20
-178.928
 11
14.3648
 21
-178.957
  0
LINE
  8
0
 10
14.3648
 20
-178.957
 11
14.0972
 21
-179.047
  0
LINE
  8
0
 10
14.0972
 20
-179.047
 11
13.8653
 21
-179.196
  0
LINE
  8
0
 10
13.8653
 20
-179.196
 11
13.669
 21
-179.406
  0
LINE
  8
0
 10
13.669
 20
-179.406
 11
13.5132
 21
-179.67
  0
LINE
  8
0
 10
13.5132
 20
-179.67
 11
13.402
 21
-179.984
  0
LINE
  8
0
 10
13.402
 20
-179.984
 11
13.3352
 21
-180.348
  0
LINE
  8
0
 10
13.3352
 20
-180.348
 11
13.313
 21
-180.762
  0
LINE
  8
0
 10
13.313
 20
-180.762
 11
13.313
 21
-184.188
  0
LINE
  8
0
 10
13.313
 20
-184.188
 11
12.345
 21
-184.188
  0
LINE
  8
0
 10
12.345
 20
-184.188
 11
12.345
 21
-180.441
  0
LINE
  8
0
 10
12.345
 20
-180.441
 11
12.3304
 21
-180.045
  0
LINE
  8
0
 10
12.3304
 20
-180.045
 11
12.2865
 21
-179.715
  0
LINE
  8
0
 10
12.2865
 20
-179.715
 11
12.2134
 21
-179.452
  0
LINE
  8
0
 10
12.2134
 20
-179.452
 11
12.111
 21
-179.256
  0
LINE
  8
0
 10
12.111
 20
-179.256
 11
11.9705
 21
-179.112
  0
LINE
  8
0
 10
11.9705
 20
-179.112
 11
11.783
 21
-179.01
  0
LINE
  8
0
 10
11.783
 20
-179.01
 11
11.5485
 21
-178.948
  0
LINE
  8
0
 10
11.5485
 20
-178.948
 11
11.267
 21
-178.928
  0
LINE
  8
0
 10
11.267
 20
-178.928
 11
10.9703
 21
-178.958
  0
LINE
  8
0
 10
10.9703
 20
-178.958
 11
10.7062
 21
-179.048
  0
LINE
  8
0
 10
10.7062
 20
-179.048
 11
10.4748
 21
-179.198
  0
LINE
  8
0
 10
10.4748
 20
-179.198
 11
10.276
 21
-179.409
  0
LINE
  8
0
 10
10.276
 20
-179.409
 11
10.1167
 21
-179.673
  0
LINE
  8
0
 10
10.1167
 20
-179.673
 11
10.003
 21
-179.987
  0
LINE
  8
0
 10
10.003
 20
-179.987
 11
9.93474
 21
-180.35
  0
LINE
  8
0
 10
9.93474
 20
-180.35
 11
9.91199
 21
-180.762
  0
LINE
  8
0
 10
9.91199
 20
-180.762
 11
9.91199
 21
-184.188
  0
LINE
  8
0
 10
9.91199
 20
-184.188
 11
8.93898
 21
-184.188
  0
ENDSEC
  0
SECTION
  2
OBJECTS
  0
DICTIONARY
  0
ENDSEC
  0
EOF
