  0
SECTION
  2
BLOCKS
  0
ENDSEC
  0
SECTION
  2
ENTITIES
  0
LINE
  8
0
 10
-99.8
 20
-99.2
 11
-88
 21
-99.2
  0
LINE
  8
0
 10
-88
 20
-99.2
 11
-88
 21
-102.5
  0
LINE
  8
0
 10
-88
 20
-102.5
 11
-75.8
 21
-102.5
  0
LINE
  8
0
 10
-75.8
 20
-102.5
 11
-75.8
 21
-99.2
  0
LINE
  8
0
 10
-75.8
 20
-99.2
 11
-64
 21
-99.2
  0
LINE
  8
0
 10
-64
 20
-99.2
 11
-64
 21
-102.5
  0
LINE
  8
0
 10
-64
 20
-102.5
 11
-51.7
 21
-102.5
  0
LINE
  8
0
 10
-51.7
 20
-102.5
 11
-51.7
 21
-99.2
  0
LINE
  8
0
 10
-51.7
 20
-99.2
 11
-48.4
 21
-99.2
  0
LINE
  8
0
 10
-48.4
 20
-99.2
 11
-48.4
 21
-97.9
  0
LINE
  8
0
 10
-48.4
 20
-97.9
 11
-51.7
 21
-97.9
  0
LINE
  8
0
 10
-51.7
 20
-97.9
 11
-51.7
 21
-86.1
  0
LINE
  8
0
 10
-51.7
 20
-86.1
 11
-48.4
 21
-86.1
  0
LINE
  8
0
 10
-48.4
 20
-86.1
 11
-48.4
 21
-73.9
  0
LINE
  8
0
 10
-48.4
 20
-73.9
 11
-51.7
 21
-73.9
  0
LINE
  8
0
 10
-51.7
 20
-73.9
 11
-51.7
 21
-62.1
  0
LINE
  8
0
 10
-51.7
 20
-62.1
 11
-48.4
 21
-62.1
  0
LINE
  8
0
 10
-48.4
 20
-62.1
 11
-48.4
 21
-49.9
  0
LINE
  8
0
 10
-48.4
 20
-49.9
 11
-51.7
 21
-49.9
  0
LINE
  8
0
 10
-51.7
 20
-49.9
 11
-51.7
 21
-38.1
  0
LINE
  8
0
 10
-51.7
 20
-38.1
 11
-48.4
 21
-38.1
  0
LINE
  8
0
 10
-48.4
 20
-38.1
 11
-48.4
 21
-36.8
  0
LINE
  8
0
 10
-48.4
 20
-36.8
 11
-51.7
 21
-36.8
  0
LINE
  8
0
 10
-51.7
 20
-36.8
 11
-51.7
 21
-33.5
  0
LINE
  8
0
 10
-51.7
 20
-33.5
 11
-112.1
 21
-33.5
  0
LINE
  8
0
 10
-112.1
 20
-33.5
 11
-112.1
 21
-36.8
  0
LINE
  8
0
 10
-112.1
 20
-36.8
 11
-115.4
 21
-36.8
  0
LINE
  8
0
 10
-115.4
 20
-36.8
 11
-115.4
 21
-38.1
  0
LINE
  8
0
 10
-115.4
 20
-38.1
 11
-112.1
 21
-38.1
  0
LINE
  8
0
 10
-112.1
 20
-38.1
 11
-112.1
 21
-49.9
  0
LINE
  8
0
 10
-112.1
 20
-49.9
 11
-115.4
 21
-49.9
  0
LINE
  8
0
 10
-115.4
 20
-49.9
 11
-115.4
 21
-62.1
  0
LINE
  8
0
 10
-115.4
 20
-62.1
 11
-112.1
 21
-62.1
  0
LINE
  8
0
 10
-112.1
 20
-62.1
 11
-112.1
 21
-73.9
  0
LINE
  8
0
 10
-112.1
 20
-73.9
 11
-115.4
 21
-73.9
  0
LINE
  8
0
 10
-115.4
 20
-73.9
 11
-115.4
 21
-86.1
  0
LINE
  8
0
 10
-115.4
 20
-86.1
 11
-112.1
 21
-86.1
  0
LINE
  8
0
 10
-112.1
 20
-86.1
 11
-112.1
 21
-97.9
  0
LINE
  8
0
 10
-112.1
 20
-97.9
 11
-115.4
 21
-97.9
  0
LINE
  8
0
 10
-115.4
 20
-97.9
 11
-115.4
 21
-99.2
  0
LINE
  8
0
 10
-115.4
 20
-99.2
 11
-112
 21
-99.2
  0
LINE
  8
0
 10
-112
 20
-99.2
 11
-112
 21
-102.5
  0
LINE
  8
0
 10
-112
 20
-102.5
 11
-99.8
 21
-102.5
  0
LINE
  8
0
 10
-99.8
 20
-102.5
 11
-99.8
 21
-99.2
  0
LINE
  8
0
 10
133.9
 20
-99.2
 11
145.7
 21
-99.2
  0
LINE
  8
0
 10
145.7
 20
-99.2
 11
145.7
 21
-102.5
  0
LINE
  8
0
 10
145.7
 20
-102.5
 11
157.9
 21
-102.5
  0
LINE
  8
0
 10
157.9
 20
-102.5
 11
157.9
 21
-99.2
  0
LINE
  8
0
 10
157.9
 20
-99.2
 11
169.7
 21
-99.2
  0
LINE
  8
0
 10
169.7
 20
-99.2
 11
169.7
 21
-102.5
  0
LINE
  8
0
 10
169.7
 20
-102.5
 11
181.9
 21
-102.5
  0
LINE
  8
0
 10
181.9
 20
-102.5
 11
181.9
 21
-99.2
  0
LINE
  8
0
 10
181.9
 20
-99.2
 11
193.7
 21
-99.2
  0
LINE
  8
0
 10
193.7
 20
-99.2
 11
193.7
 21
-102.5
  0
LINE
  8
0
 10
193.7
 20
-102.5
 11
208.4
 21
-102.5
  0
LINE
  8
0
 10
208.4
 20
-102.5
 11
208.4
 21
-98.1
  0
LINE
  8
0
 10
208.4
 20
-98.1
 11
211.7
 21
-98.1
  0
LINE
  8
0
 10
211.7
 20
-98.1
 11
211.7
 21
-85.9
  0
LINE
  8
0
 10
211.7
 20
-85.9
 11
208.4
 21
-85.9
  0
LINE
  8
0
 10
208.4
 20
-85.9
 11
208.4
 21
-74.1
  0
LINE
  8
0
 10
208.4
 20
-74.1
 11
211.7
 21
-74.1
  0
LINE
  8
0
 10
211.7
 20
-74.1
 11
211.7
 21
-61.9
  0
LINE
  8
0
 10
211.7
 20
-61.9
 11
208.4
 21
-61.9
  0
LINE
  8
0
 10
208.4
 20
-61.9
 11
208.4
 21
-50.1
  0
LINE
  8
0
 10
208.4
 20
-50.1
 11
211.7
 21
-50.1
  0
LINE
  8
0
 10
211.7
 20
-50.1
 11
211.7
 21
-36.8
  0
LINE
  8
0
 10
211.7
 20
-36.8
 11
208.4
 21
-36.8
  0
LINE
  8
0
 10
208.4
 20
-36.8
 11
208.4
 21
-33.5
  0
LINE
  8
0
 10
208.4
 20
-33.5
 11
199.7
 21
-33.5
  0
LINE
  8
0
 10
199.7
 20
-33.5
 11
198.915
 21
-36.0087
  0
LINE
  8
0
 10
198.915
 20
-36.0087
 11
196.596
 21
-38.4077
  0
LINE
  8
0
 10
196.596
 20
-38.4077
 11
192.844
 21
-40.5923
  0
LINE
  8
0
 10
192.844
 20
-40.5923
 11
187.822
 21
-42.4669
  0
LINE
  8
0
 10
187.822
 20
-42.4669
 11
181.75
 21
-43.9496
  0
LINE
  8
0
 10
181.75
 20
-43.9496
 11
174.894
 21
-44.9756
  0
LINE
  8
0
 10
174.894
 20
-44.9756
 11
167.553
 21
-45.5
  0
LINE
  8
0
 10
167.553
 20
-45.5
 11
160.047
 21
-45.5
  0
LINE
  8
0
 10
160.047
 20
-45.5
 11
152.706
 21
-44.9756
  0
LINE
  8
0
 10
152.706
 20
-44.9756
 11
145.85
 21
-43.9496
  0
LINE
  8
0
 10
145.85
 20
-43.9496
 11
139.778
 21
-42.4669
  0
LINE
  8
0
 10
139.778
 20
-42.4669
 11
134.756
 21
-40.5923
  0
LINE
  8
0
 10
134.756
 20
-40.5923
 11
131.004
 21
-38.4077
  0
LINE
  8
0
 10
131.004
 20
-38.4077
 11
128.684
 21
-36.0087
  0
LINE
  8
0
 10
128.684
 20
-36.0087
 11
127.9
 21
-33.5
  0
LINE
  8
0
 10
127.9
 20
-33.5
 11
119.2
 21
-33.5
  0
LINE
  8
0
 10
119.2
 20
-33.5
 11
119.2
 21
-37.9
  0
LINE
  8
0
 10
119.2
 20
-37.9
 11
115.9
 21
-37.9
  0
LINE
  8
0
 10
115.9
 20
-37.9
 11
115.9
 21
-50.1
  0
LINE
  8
0
 10
115.9
 20
-50.1
 11
119.2
 21
-50.1
  0
LINE
  8
0
 10
119.2
 20
-50.1
 11
119.2
 21
-61.9
  0
LINE
  8
0
 10
119.2
 20
-61.9
 11
115.9
 21
-61.9
  0
LINE
  8
0
 10
115.9
 20
-61.9
 11
115.9
 21
-74.1
  0
LINE
  8
0
 10
115.9
 20
-74.1
 11
119.2
 21
-74.1
  0
LINE
  8
0
 10
119.2
 20
-74.1
 11
119.2
 21
-85.9
  0
LINE
  8
0
 10
119.2
 20
-85.9
 11
115.9
 21
-85.9
  0
LINE
  8
0
 10
115.9
 20
-85.9
 11
115.9
 21
-99.2
  0
LINE
  8
0
 10
115.9
 20
-99.2
 11
121.7
 21
-99.2
  0
LINE
  8
0
 10
121.7
 20
-99.2
 11
121.7
 21
-102.5
  0
LINE
  8
0
 10
121.7
 20
-102.5
 11
133.9
 21
-102.5
  0
LINE
  8
0
 10
133.9
 20
-102.5
 11
133.9
 21
-99.2
  0
LINE
  8
0
 10
-29.9
 20
-99.2
 11
-18.1
 21
-99.2
  0
LINE
  8
0
 10
-18.1
 20
-99.2
 11
-18.1
 21
-102.5
  0
LINE
  8
0
 10
-18.1
 20
-102.5
 11
-5.89999
 21
-102.5
  0
LINE
  8
0
 10
-5.89999
 20
-102.5
 11
-5.89999
 21
-99.2
  0
LINE
  8
0
 10
-5.89999
 20
-99.2
 11
5.89999
 21
-99.2
  0
LINE
  8
0
 10
5.89999
 20
-99.2
 11
5.89999
 21
-102.5
  0
LINE
  8
0
 10
5.89999
 20
-102.5
 11
18.1
 21
-102.5
  0
LINE
  8
0
 10
18.1
 20
-102.5
 11
18.1
 21
-99.2
  0
LINE
  8
0
 10
18.1
 20
-99.2
 11
29.9
 21
-99.2
  0
LINE
  8
0
 10
29.9
 20
-99.2
 11
29.9
 21
-102.5
  0
LINE
  8
0
 10
29.9
 20
-102.5
 11
44.6
 21
-102.5
  0
LINE
  8
0
 10
44.6
 20
-102.5
 11
44.6
 21
-98.1
  0
LINE
  8
0
 10
44.6
 20
-98.1
 11
47.9
 21
-98.1
  0
LINE
  8
0
 10
47.9
 20
-98.1
 11
47.9
 21
-85.9
  0
LINE
  8
0
 10
47.9
 20
-85.9
 11
44.6
 21
-85.9
  0
LINE
  8
0
 10
44.6
 20
-85.9
 11
44.6
 21
-74.1
  0
LINE
  8
0
 10
44.6
 20
-74.1
 11
47.9
 21
-74.1
  0
LINE
  8
0
 10
47.9
 20
-74.1
 11
47.9
 21
-61.9
  0
LINE
  8
0
 10
47.9
 20
-61.9
 11
44.6
 21
-61.9
  0
LINE
  8
0
 10
44.6
 20
-61.9
 11
44.6
 21
-50.1
  0
LINE
  8
0
 10
44.6
 20
-50.1
 11
47.9
 21
-50.1
  0
LINE
  8
0
 10
47.9
 20
-50.1
 11
47.9
 21
-36.8
  0
LINE
  8
0
 10
47.9
 20
-36.8
 11
44.6
 21
-36.8
  0
LINE
  8
0
 10
44.6
 20
-36.8
 11
44.6
 21
-33.5
  0
LINE
  8
0
 10
44.6
 20
-33.5
 11
35.9
 21
-33.5
  0
LINE
  8
0
 10
35.9
 20
-33.5
 11
35.1155
 21
-36.0087
  0
LINE
  8
0
 10
35.1155
 20
-36.0087
 11
32.7963
 21
-38.4077
  0
LINE
  8
0
 10
32.7963
 20
-38.4077
 11
29.0437
 21
-40.5923
  0
LINE
  8
0
 10
29.0437
 20
-40.5923
 11
24.0218
 21
-42.4669
  0
LINE
  8
0
 10
24.0218
 20
-42.4669
 11
17.95
 21
-43.9496
  0
LINE
  8
0
 10
17.95
 20
-43.9496
 11
11.0937
 21
-44.9756
  0
LINE
  8
0
 10
11.0937
 20
-44.9756
 11
3.75256
 21
-45.5
  0
LINE
  8
0
 10
3.75256
 20
-45.5
 11
-3.75256
 21
-45.5
  0
LINE
  8
0
 10
-3.75256
 20
-45.5
 11
-11.0937
 21
-44.9756
  0
LINE
  8
0
 10
-11.0937
 20
-44.9756
 11
-17.95
 21
-43.9496
  0
LINE
  8
0
 10
-17.95
 20
-43.9496
 11
-24.0218
 21
-42.4669
  0
LINE
  8
0
 10
-24.0218
 20
-42.4669
 11
-29.0437
 21
-40.5923
  0
LINE
  8
0
 10
-29.0437
 20
-40.5923
 11
-32.7963
 21
-38.4077
  0
LINE
  8
0
 10
-32.7963
 20
-38.4077
 11
-35.1155
 21
-36.0087
  0
LINE
  8
0
 10
-35.1155
 20
-36.0087
 11
-35.9
 21
-33.5
  0
LINE
  8
0
 10
-35.9
 20
-33.5
 11
-44.6
 21
-33.5
  0
LINE
  8
0
 10
-44.6
 20
-33.5
 11
-44.6
 21
-37.9
  0
LINE
  8
0
 10
-44.6
 20
-37.9
 11
-47.9
 21
-37.9
  0
LINE
  8
0
 10
-47.9
 20
-37.9
 11
-47.9
 21
-50.1
  0
LINE
  8
0
 10
-47.9
 20
-50.1
 11
-44.6
 21
-50.1
  0
LINE
  8
0
 10
-44.6
 20
-50.1
 11
-44.6
 21
-61.9
  0
LINE
  8
0
 10
-44.6
 20
-61.9
 11
-47.9
 21
-61.9
  0
LINE
  8
0
 10
-47.9
 20
-61.9
 11
-47.9
 21
-74.1
  0
LINE
  8
0
 10
-47.9
 20
-74.1
 11
-44.6
 21
-74.1
  0
LINE
  8
0
 10
-44.6
 20
-74.1
 11
-44.6
 21
-85.9
  0
LINE
  8
0
 10
-44.6
 20
-85.9
 11
-47.9
 21
-85.9
  0
LINE
  8
0
 10
-47.9
 20
-85.9
 11
-47.9
 21
-99.2
  0
LINE
  8
0
 10
-47.9
 20
-99.2
 11
-42.1
 21
-99.2
  0
LINE
  8
0
 10
-42.1
 20
-99.2
 11
-42.1
 21
-102.5
  0
LINE
  8
0
 10
-42.1
 20
-102.5
 11
-29.9
 21
-102.5
  0
LINE
  8
0
 10
-29.9
 20
-102.5
 11
-29.9
 21
-99.2
  0
LINE
  8
0
 10
64
 20
-99.2
 11
75.8
 21
-99.2
  0
LINE
  8
0
 10
75.8
 20
-99.2
 11
75.8
 21
-102.5
  0
LINE
  8
0
 10
75.8
 20
-102.5
 11
88
 21
-102.5
  0
LINE
  8
0
 10
88
 20
-102.5
 11
88
 21
-99.2
  0
LINE
  8
0
 10
88
 20
-99.2
 11
99.8
 21
-99.2
  0
LINE
  8
0
 10
99.8
 20
-99.2
 11
99.8
 21
-102.5
  0
LINE
  8
0
 10
99.8
 20
-102.5
 11
112.1
 21
-102.5
  0
LINE
  8
0
 10
112.1
 20
-102.5
 11
112.1
 21
-99.2
  0
LINE
  8
0
 10
112.1
 20
-99.2
 11
115.4
 21
-99.2
  0
LINE
  8
0
 10
115.4
 20
-99.2
 11
115.4
 21
-97.9
  0
LINE
  8
0
 10
115.4
 20
-97.9
 11
112.1
 21
-97.9
  0
LINE
  8
0
 10
112.1
 20
-97.9
 11
112.1
 21
-86.1
  0
LINE
  8
0
 10
112.1
 20
-86.1
 11
115.4
 21
-86.1
  0
LINE
  8
0
 10
115.4
 20
-86.1
 11
115.4
 21
-73.9
  0
LINE
  8
0
 10
115.4
 20
-73.9
 11
112.1
 21
-73.9
  0
LINE
  8
0
 10
112.1
 20
-73.9
 11
112.1
 21
-62.1
  0
LINE
  8
0
 10
112.1
 20
-62.1
 11
115.4
 21
-62.1
  0
LINE
  8
0
 10
115.4
 20
-62.1
 11
115.4
 21
-49.9
  0
LINE
  8
0
 10
115.4
 20
-49.9
 11
112.1
 21
-49.9
  0
LINE
  8
0
 10
112.1
 20
-49.9
 11
112.1
 21
-38.1
  0
LINE
  8
0
 10
112.1
 20
-38.1
 11
115.4
 21
-38.1
  0
LINE
  8
0
 10
115.4
 20
-38.1
 11
115.4
 21
-36.8
  0
LINE
  8
0
 10
115.4
 20
-36.8
 11
112.1
 21
-36.8
  0
LINE
  8
0
 10
112.1
 20
-36.8
 11
112.1
 21
-33.5
  0
LINE
  8
0
 10
112.1
 20
-33.5
 11
51.7
 21
-33.5
  0
LINE
  8
0
 10
51.7
 20
-33.5
 11
51.7
 21
-36.8
  0
LINE
  8
0
 10
51.7
 20
-36.8
 11
48.4
 21
-36.8
  0
LINE
  8
0
 10
48.4
 20
-36.8
 11
48.4
 21
-38.1
  0
LINE
  8
0
 10
48.4
 20
-38.1
 11
51.7
 21
-38.1
  0
LINE
  8
0
 10
51.7
 20
-38.1
 11
51.7
 21
-49.9
  0
LINE
  8
0
 10
51.7
 20
-49.9
 11
48.4
 21
-49.9
  0
LINE
  8
0
 10
48.4
 20
-49.9
 11
48.4
 21
-62.1
  0
LINE
  8
0
 10
48.4
 20
-62.1
 11
51.7
 21
-62.1
  0
LINE
  8
0
 10
51.7
 20
-62.1
 11
51.7
 21
-73.9
  0
LINE
  8
0
 10
51.7
 20
-73.9
 11
48.4
 21
-73.9
  0
LINE
  8
0
 10
48.4
 20
-73.9
 11
48.4
 21
-86.1
  0
LINE
  8
0
 10
48.4
 20
-86.1
 11
51.7
 21
-86.1
  0
LINE
  8
0
 10
51.7
 20
-86.1
 11
51.7
 21
-97.9
  0
LINE
  8
0
 10
51.7
 20
-97.9
 11
48.4
 21
-97.9
  0
LINE
  8
0
 10
48.4
 20
-97.9
 11
48.4
 21
-99.2
  0
LINE
  8
0
 10
48.4
 20
-99.2
 11
51.8
 21
-99.2
  0
LINE
  8
0
 10
51.8
 20
-99.2
 11
51.8
 21
-102.5
  0
LINE
  8
0
 10
51.8
 20
-102.5
 11
64
 21
-102.5
  0
LINE
  8
0
 10
64
 20
-102.5
 11
64
 21
-99.2
  0
LINE
  8
0
 10
-41.9
 20
-166.7
 11
-30.1
 21
-166.7
  0
LINE
  8
0
 10
-30.1
 20
-166.7
 11
-30.1
 21
-170
  0
LINE
  8
0
 10
-30.1
 20
-170
 11
-17.9
 21
-170
  0
LINE
  8
0
 10
-17.9
 20
-170
 11
-17.9
 21
-166.7
  0
LINE
  8
0
 10
-17.9
 20
-166.7
 11
-6.09999
 21
-166.7
  0
LINE
  8
0
 10
-6.09999
 20
-166.7
 11
-6.09999
 21
-170
  0
LINE
  8
0
 10
-6.09999
 20
-170
 11
6.09998
 21
-170
  0
LINE
  8
0
 10
6.09998
 20
-170
 11
6.09998
 21
-166.7
  0
LINE
  8
0
 10
6.09998
 20
-166.7
 11
17.9
 21
-166.7
  0
LINE
  8
0
 10
17.9
 20
-166.7
 11
17.9
 21
-170
  0
LINE
  8
0
 10
17.9
 20
-170
 11
30.1
 21
-170
  0
LINE
  8
0
 10
30.1
 20
-170
 11
30.1
 21
-166.7
  0
LINE
  8
0
 10
30.1
 20
-166.7
 11
41.9
 21
-166.7
  0
LINE
  8
0
 10
41.9
 20
-166.7
 11
41.9
 21
-170
  0
LINE
  8
0
 10
41.9
 20
-170
 11
44.6
 21
-170
  0
LINE
  8
0
 10
44.6
 20
-170
 11
44.6
 21
-166.7
  0
LINE
  8
0
 10
44.6
 20
-166.7
 11
47.9
 21
-166.7
  0
LINE
  8
0
 10
47.9
 20
-166.7
 11
47.9
 21
-166.4
  0
LINE
  8
0
 10
47.9
 20
-166.4
 11
44.6
 21
-166.4
  0
LINE
  8
0
 10
44.6
 20
-166.4
 11
44.6
 21
-154.6
  0
LINE
  8
0
 10
44.6
 20
-154.6
 11
47.9
 21
-154.6
  0
LINE
  8
0
 10
47.9
 20
-154.6
 11
47.9
 21
-142.4
  0
LINE
  8
0
 10
47.9
 20
-142.4
 11
44.6
 21
-142.4
  0
LINE
  8
0
 10
44.6
 20
-142.4
 11
44.6
 21
-130.6
  0
LINE
  8
0
 10
44.6
 20
-130.6
 11
47.9
 21
-130.6
  0
LINE
  8
0
 10
47.9
 20
-130.6
 11
47.9
 21
-118.4
  0
LINE
  8
0
 10
47.9
 20
-118.4
 11
44.6
 21
-118.4
  0
LINE
  8
0
 10
44.6
 20
-118.4
 11
44.6
 21
-106.6
  0
LINE
  8
0
 10
44.6
 20
-106.6
 11
47.9
 21
-106.6
  0
LINE
  8
0
 10
47.9
 20
-106.6
 11
47.9
 21
-106.3
  0
LINE
  8
0
 10
47.9
 20
-106.3
 11
44.6
 21
-106.3
  0
LINE
  8
0
 10
44.6
 20
-106.3
 11
44.6
 21
-103
  0
LINE
  8
0
 10
44.6
 20
-103
 11
41.9
 21
-103
  0
LINE
  8
0
 10
41.9
 20
-103
 11
41.9
 21
-106.3
  0
LINE
  8
0
 10
41.9
 20
-106.3
 11
30.1
 21
-106.3
  0
LINE
  8
0
 10
30.1
 20
-106.3
 11
30.1
 21
-103
  0
LINE
  8
0
 10
30.1
 20
-103
 11
17.9
 21
-103
  0
LINE
  8
0
 10
17.9
 20
-103
 11
17.9
 21
-106.3
  0
LINE
  8
0
 10
17.9
 20
-106.3
 11
6.09999
 21
-106.3
  0
LINE
  8
0
 10
6.09999
 20
-106.3
 11
6.09999
 21
-103
  0
LINE
  8
0
 10
6.09999
 20
-103
 11
-6.09999
 21
-103
  0
LINE
  8
0
 10
-6.09999
 20
-103
 11
-6.09999
 21
-106.3
  0
LINE
  8
0
 10
-6.09999
 20
-106.3
 11
-17.9
 21
-106.3
  0
LINE
  8
0
 10
-17.9
 20
-106.3
 11
-17.9
 21
-103
  0
LINE
  8
0
 10
-17.9
 20
-103
 11
-30.1
 21
-103
  0
LINE
  8
0
 10
-30.1
 20
-103
 11
-30.1
 21
-106.3
  0
LINE
  8
0
 10
-30.1
 20
-106.3
 11
-41.9
 21
-106.3
  0
LINE
  8
0
 10
-41.9
 20
-106.3
 11
-41.9
 21
-103
  0
LINE
  8
0
 10
-41.9
 20
-103
 11
-44.6
 21
-103
  0
LINE
  8
0
 10
-44.6
 20
-103
 11
-44.6
 21
-106.3
  0
LINE
  8
0
 10
-44.6
 20
-106.3
 11
-47.9
 21
-106.3
  0
LINE
  8
0
 10
-47.9
 20
-106.3
 11
-47.9
 21
-106.6
  0
LINE
  8
0
 10
-47.9
 20
-106.6
 11
-44.6
 21
-106.6
  0
LINE
  8
0
 10
-44.6
 20
-106.6
 11
-44.6
 21
-118.4
  0
LINE
  8
0
 10
-44.6
 20
-118.4
 11
-47.9
 21
-118.4
  0
LINE
  8
0
 10
-47.9
 20
-118.4
 11
-47.9
 21
-130.6
  0
LINE
  8
0
 10
-47.9
 20
-130.6
 11
-44.6
 21
-130.6
  0
LINE
  8
0
 10
-44.6
 20
-130.6
 11
-44.6
 21
-142.4
  0
LINE
  8
0
 10
-44.6
 20
-142.4
 11
-47.9
 21
-142.4
  0
LINE
  8
0
 10
-47.9
 20
-142.4
 11
-47.9
 21
-154.6
  0
LINE
  8
0
 10
-47.9
 20
-154.6
 11
-44.6
 21
-154.6
  0
LINE
  8
0
 10
-44.6
 20
-154.6
 11
-44.6
 21
-166.4
  0
LINE
  8
0
 10
-44.6
 20
-166.4
 11
-47.9
 21
-166.4
  0
LINE
  8
0
 10
-47.9
 20
-166.4
 11
-47.9
 21
-166.7
  0
LINE
  8
0
 10
-47.9
 20
-166.7
 11
-44.6
 21
-166.7
  0
LINE
  8
0
 10
-44.6
 20
-166.7
 11
-44.6
 21
-170
  0
LINE
  8
0
 10
-44.6
 20
-170
 11
-41.9
 21
-170
  0
LINE
  8
0
 10
-41.9
 20
-170
 11
-41.9
 21
-166.7
  0
ENDSEC
  0
SECTION
  2
OBJECTS
  0
DICTIONARY
  0
ENDSEC
  0
EOF
