  0
SECTION
  2
BLOCKS
  0
ENDSEC
  0
SECTION
  2
ENTITIES
  0
LINE
  8
0
 10
-76.9
 20
-139.7
 11
-63.1
 21
-139.7
  0
LINE
  8
0
 10
-63.1
 20
-139.7
 11
-63.1
 21
-143
  0
LINE
  8
0
 10
-63.1
 20
-143
 11
-48.9
 21
-143
  0
LINE
  8
0
 10
-48.9
 20
-143
 11
-48.9
 21
-139.7
  0
LINE
  8
0
 10
-48.9
 20
-139.7
 11
-35.1
 21
-139.7
  0
LINE
  8
0
 10
-35.1
 20
-139.7
 11
-35.1
 21
-143
  0
LINE
  8
0
 10
-35.1
 20
-143
 11
-20.9
 21
-143
  0
LINE
  8
0
 10
-20.9
 20
-143
 11
-20.9
 21
-139.7
  0
LINE
  8
0
 10
-20.9
 20
-139.7
 11
-7.09999
 21
-139.7
  0
LINE
  8
0
 10
-7.09999
 20
-139.7
 11
-7.09999
 21
-143
  0
LINE
  8
0
 10
-7.09999
 20
-143
 11
7.09998
 21
-143
  0
LINE
  8
0
 10
7.09998
 20
-143
 11
7.09998
 21
-139.7
  0
LINE
  8
0
 10
7.09998
 20
-139.7
 11
20.9
 21
-139.7
  0
LINE
  8
0
 10
20.9
 20
-139.7
 11
20.9
 21
-143
  0
LINE
  8
0
 10
20.9
 20
-143
 11
35.1
 21
-143
  0
LINE
  8
0
 10
35.1
 20
-143
 11
35.1
 21
-139.7
  0
LINE
  8
0
 10
35.1
 20
-139.7
 11
48.9
 21
-139.7
  0
LINE
  8
0
 10
48.9
 20
-139.7
 11
48.9
 21
-143
  0
LINE
  8
0
 10
48.9
 20
-143
 11
63.1
 21
-143
  0
LINE
  8
0
 10
63.1
 20
-143
 11
63.1
 21
-139.7
  0
LINE
  8
0
 10
63.1
 20
-139.7
 11
76.9
 21
-139.7
  0
LINE
  8
0
 10
76.9
 20
-139.7
 11
76.9
 21
-143
  0
LINE
  8
0
 10
76.9
 20
-143
 11
91.1
 21
-143
  0
LINE
  8
0
 10
91.1
 20
-143
 11
91.1
 21
-139.7
  0
LINE
  8
0
 10
91.1
 20
-139.7
 11
96.7
 21
-139.7
  0
LINE
  8
0
 10
96.7
 20
-139.7
 11
96.7
 21
-132.6
  0
LINE
  8
0
 10
96.7
 20
-132.6
 11
100
 21
-132.6
  0
LINE
  8
0
 10
100
 20
-132.6
 11
100
 21
-118.4
  0
LINE
  8
0
 10
100
 20
-118.4
 11
96.7
 21
-118.4
  0
LINE
  8
0
 10
96.7
 20
-118.4
 11
96.7
 21
-104.6
  0
LINE
  8
0
 10
96.7
 20
-104.6
 11
100
 21
-104.6
  0
LINE
  8
0
 10
100
 20
-104.6
 11
100
 21
-90.4
  0
LINE
  8
0
 10
100
 20
-90.4
 11
96.7
 21
-90.4
  0
LINE
  8
0
 10
96.7
 20
-90.4
 11
96.7
 21
-76.6
  0
LINE
  8
0
 10
96.7
 20
-76.6
 11
100
 21
-76.6
  0
LINE
  8
0
 10
100
 20
-76.6
 11
100
 21
-62.4
  0
LINE
  8
0
 10
100
 20
-62.4
 11
96.7
 21
-62.4
  0
LINE
  8
0
 10
96.7
 20
-62.4
 11
96.7
 21
-48.6
  0
LINE
  8
0
 10
96.7
 20
-48.6
 11
100
 21
-48.6
  0
LINE
  8
0
 10
100
 20
-48.6
 11
100
 21
-34.4
  0
LINE
  8
0
 10
100
 20
-34.4
 11
96.7
 21
-34.4
  0
LINE
  8
0
 10
96.7
 20
-34.4
 11
96.7
 21
-20.6
  0
LINE
  8
0
 10
96.7
 20
-20.6
 11
100
 21
-20.6
  0
LINE
  8
0
 10
100
 20
-20.6
 11
100
 21
-6.39998
  0
LINE
  8
0
 10
100
 20
-6.39998
 11
96.7
 21
-6.39998
  0
LINE
  8
0
 10
96.7
 20
-6.39998
 11
96.7
 21
7.40001
  0
LINE
  8
0
 10
96.7
 20
7.40001
 11
100
 21
7.40001
  0
LINE
  8
0
 10
100
 20
7.40001
 11
100
 21
21.6
  0
LINE
  8
0
 10
100
 20
21.6
 11
96.7
 21
21.6
  0
LINE
  8
0
 10
96.7
 20
21.6
 11
96.7
 21
35.4
  0
LINE
  8
0
 10
96.7
 20
35.4
 11
100
 21
35.4
  0
LINE
  8
0
 10
100
 20
35.4
 11
100
 21
49.6
  0
LINE
  8
0
 10
100
 20
49.6
 11
96.7
 21
49.6
  0
LINE
  8
0
 10
96.7
 20
49.6
 11
96.7
 21
63.4
  0
LINE
  8
0
 10
96.7
 20
63.4
 11
100
 21
63.4
  0
LINE
  8
0
 10
100
 20
63.4
 11
100
 21
77.6
  0
LINE
  8
0
 10
100
 20
77.6
 11
96.7
 21
77.6
  0
LINE
  8
0
 10
96.7
 20
77.6
 11
96.7
 21
91.4
  0
LINE
  8
0
 10
96.7
 20
91.4
 11
100
 21
91.4
  0
LINE
  8
0
 10
100
 20
91.4
 11
100
 21
105.6
  0
LINE
  8
0
 10
100
 20
105.6
 11
96.7
 21
105.6
  0
LINE
  8
0
 10
96.7
 20
105.6
 11
96.7
 21
119.4
  0
LINE
  8
0
 10
96.7
 20
119.4
 11
100
 21
119.4
  0
LINE
  8
0
 10
100
 20
119.4
 11
100
 21
133.6
  0
LINE
  8
0
 10
100
 20
133.6
 11
96.7
 21
133.6
  0
LINE
  8
0
 10
96.7
 20
133.6
 11
96.7
 21
140.7
  0
LINE
  8
0
 10
96.7
 20
140.7
 11
91.1
 21
140.7
  0
LINE
  8
0
 10
91.1
 20
140.7
 11
91.1
 21
144
  0
LINE
  8
0
 10
91.1
 20
144
 11
76.9
 21
144
  0
LINE
  8
0
 10
76.9
 20
144
 11
76.9
 21
140.7
  0
LINE
  8
0
 10
76.9
 20
140.7
 11
63.1
 21
140.7
  0
LINE
  8
0
 10
63.1
 20
140.7
 11
63.1
 21
144
  0
LINE
  8
0
 10
63.1
 20
144
 11
48.9
 21
144
  0
LINE
  8
0
 10
48.9
 20
144
 11
48.9
 21
140.7
  0
LINE
  8
0
 10
48.9
 20
140.7
 11
35.1
 21
140.7
  0
LINE
  8
0
 10
35.1
 20
140.7
 11
35.1
 21
144
  0
LINE
  8
0
 10
35.1
 20
144
 11
20.9
 21
144
  0
LINE
  8
0
 10
20.9
 20
144
 11
20.9
 21
140.7
  0
LINE
  8
0
 10
20.9
 20
140.7
 11
7.09999
 21
140.7
  0
LINE
  8
0
 10
7.09999
 20
140.7
 11
7.09999
 21
144
  0
LINE
  8
0
 10
7.09999
 20
144
 11
-7.09999
 21
144
  0
LINE
  8
0
 10
-7.09999
 20
144
 11
-7.09999
 21
140.7
  0
LINE
  8
0
 10
-7.09999
 20
140.7
 11
-20.9
 21
140.7
  0
LINE
  8
0
 10
-20.9
 20
140.7
 11
-20.9
 21
144
  0
LINE
  8
0
 10
-20.9
 20
144
 11
-35.1
 21
144
  0
LINE
  8
0
 10
-35.1
 20
144
 11
-35.1
 21
140.7
  0
LINE
  8
0
 10
-35.1
 20
140.7
 11
-48.9
 21
140.7
  0
LINE
  8
0
 10
-48.9
 20
140.7
 11
-48.9
 21
144
  0
LINE
  8
0
 10
-48.9
 20
144
 11
-63.1
 21
144
  0
LINE
  8
0
 10
-63.1
 20
144
 11
-63.1
 21
140.7
  0
LINE
  8
0
 10
-63.1
 20
140.7
 11
-76.9
 21
140.7
  0
LINE
  8
0
 10
-76.9
 20
140.7
 11
-76.9
 21
144
  0
LINE
  8
0
 10
-76.9
 20
144
 11
-91.1
 21
144
  0
LINE
  8
0
 10
-91.1
 20
144
 11
-91.1
 21
140.7
  0
LINE
  8
0
 10
-91.1
 20
140.7
 11
-96.7
 21
140.7
  0
LINE
  8
0
 10
-96.7
 20
140.7
 11
-96.7
 21
133.6
  0
LINE
  8
0
 10
-96.7
 20
133.6
 11
-100
 21
133.6
  0
LINE
  8
0
 10
-100
 20
133.6
 11
-100
 21
119.4
  0
LINE
  8
0
 10
-100
 20
119.4
 11
-96.7
 21
119.4
  0
LINE
  8
0
 10
-96.7
 20
119.4
 11
-96.7
 21
105.6
  0
LINE
  8
0
 10
-96.7
 20
105.6
 11
-100
 21
105.6
  0
LINE
  8
0
 10
-100
 20
105.6
 11
-100
 21
91.4
  0
LINE
  8
0
 10
-100
 20
91.4
 11
-96.7
 21
91.4
  0
LINE
  8
0
 10
-96.7
 20
91.4
 11
-96.7
 21
77.6
  0
LINE
  8
0
 10
-96.7
 20
77.6
 11
-100
 21
77.6
  0
LINE
  8
0
 10
-100
 20
77.6
 11
-100
 21
63.4
  0
LINE
  8
0
 10
-100
 20
63.4
 11
-96.7
 21
63.4
  0
LINE
  8
0
 10
-96.7
 20
63.4
 11
-96.7
 21
49.6
  0
LINE
  8
0
 10
-96.7
 20
49.6
 11
-100
 21
49.6
  0
LINE
  8
0
 10
-100
 20
49.6
 11
-100
 21
35.4
  0
LINE
  8
0
 10
-100
 20
35.4
 11
-96.7
 21
35.4
  0
LINE
  8
0
 10
-96.7
 20
35.4
 11
-96.7
 21
21.6
  0
LINE
  8
0
 10
-96.7
 20
21.6
 11
-100
 21
21.6
  0
LINE
  8
0
 10
-100
 20
21.6
 11
-100
 21
7.39999
  0
LINE
  8
0
 10
-100
 20
7.39999
 11
-96.7
 21
7.39999
  0
LINE
  8
0
 10
-96.7
 20
7.39999
 11
-96.7
 21
-6.39999
  0
LINE
  8
0
 10
-96.7
 20
-6.39999
 11
-100
 21
-6.39999
  0
LINE
  8
0
 10
-100
 20
-6.39999
 11
-100
 21
-20.6
  0
LINE
  8
0
 10
-100
 20
-20.6
 11
-96.7
 21
-20.6
  0
LINE
  8
0
 10
-96.7
 20
-20.6
 11
-96.7
 21
-34.4
  0
LINE
  8
0
 10
-96.7
 20
-34.4
 11
-100
 21
-34.4
  0
LINE
  8
0
 10
-100
 20
-34.4
 11
-100
 21
-48.6
  0
LINE
  8
0
 10
-100
 20
-48.6
 11
-96.7
 21
-48.6
  0
LINE
  8
0
 10
-96.7
 20
-48.6
 11
-96.7
 21
-62.4
  0
LINE
  8
0
 10
-96.7
 20
-62.4
 11
-100
 21
-62.4
  0
LINE
  8
0
 10
-100
 20
-62.4
 11
-100
 21
-76.6
  0
LINE
  8
0
 10
-100
 20
-76.6
 11
-96.7
 21
-76.6
  0
LINE
  8
0
 10
-96.7
 20
-76.6
 11
-96.7
 21
-90.4
  0
LINE
  8
0
 10
-96.7
 20
-90.4
 11
-100
 21
-90.4
  0
LINE
  8
0
 10
-100
 20
-90.4
 11
-100
 21
-104.6
  0
LINE
  8
0
 10
-100
 20
-104.6
 11
-96.7
 21
-104.6
  0
LINE
  8
0
 10
-96.7
 20
-104.6
 11
-96.7
 21
-118.4
  0
LINE
  8
0
 10
-96.7
 20
-118.4
 11
-100
 21
-118.4
  0
LINE
  8
0
 10
-100
 20
-118.4
 11
-100
 21
-132.6
  0
LINE
  8
0
 10
-100
 20
-132.6
 11
-96.7
 21
-132.6
  0
LINE
  8
0
 10
-96.7
 20
-132.6
 11
-96.7
 21
-139.7
  0
LINE
  8
0
 10
-96.7
 20
-139.7
 11
-91.1
 21
-139.7
  0
LINE
  8
0
 10
-91.1
 20
-139.7
 11
-91.1
 21
-143
  0
LINE
  8
0
 10
-91.1
 20
-143
 11
-76.9
 21
-143
  0
LINE
  8
0
 10
-76.9
 20
-143
 11
-76.9
 21
-139.7
  0
LINE
  8
0
 10
-85
 20
-128
 11
-85
 21
129
  0
LINE
  8
0
 10
-85
 20
129
 11
85
 21
129
  0
LINE
  8
0
 10
85
 20
129
 11
85
 21
-128
  0
LINE
  8
0
 10
85
 20
-128
 11
-85
 21
-128
  0
LINE
  8
0
 10
111.1
 20
-165.2
 11
124.9
 21
-165.2
  0
LINE
  8
0
 10
124.9
 20
-165.2
 11
124.9
 21
-168.5
  0
LINE
  8
0
 10
124.9
 20
-168.5
 11
139.1
 21
-168.5
  0
LINE
  8
0
 10
139.1
 20
-168.5
 11
139.1
 21
-165.2
  0
LINE
  8
0
 10
139.1
 20
-165.2
 11
152.9
 21
-165.2
  0
LINE
  8
0
 10
152.9
 20
-165.2
 11
152.9
 21
-168.5
  0
LINE
  8
0
 10
152.9
 20
-168.5
 11
167.1
 21
-168.5
  0
LINE
  8
0
 10
167.1
 20
-168.5
 11
167.1
 21
-165.2
  0
LINE
  8
0
 10
167.1
 20
-165.2
 11
180.9
 21
-165.2
  0
LINE
  8
0
 10
180.9
 20
-165.2
 11
180.9
 21
-168.5
  0
LINE
  8
0
 10
180.9
 20
-168.5
 11
195.1
 21
-168.5
  0
LINE
  8
0
 10
195.1
 20
-168.5
 11
195.1
 21
-165.2
  0
LINE
  8
0
 10
195.1
 20
-165.2
 11
208.9
 21
-165.2
  0
LINE
  8
0
 10
208.9
 20
-165.2
 11
208.9
 21
-168.5
  0
LINE
  8
0
 10
208.9
 20
-168.5
 11
223.1
 21
-168.5
  0
LINE
  8
0
 10
223.1
 20
-168.5
 11
223.1
 21
-165.2
  0
LINE
  8
0
 10
223.1
 20
-165.2
 11
236.9
 21
-165.2
  0
LINE
  8
0
 10
236.9
 20
-165.2
 11
236.9
 21
-168.5
  0
LINE
  8
0
 10
236.9
 20
-168.5
 11
251.1
 21
-168.5
  0
LINE
  8
0
 10
251.1
 20
-168.5
 11
251.1
 21
-165.2
  0
LINE
  8
0
 10
251.1
 20
-165.2
 11
264.9
 21
-165.2
  0
LINE
  8
0
 10
264.9
 20
-165.2
 11
264.9
 21
-168.5
  0
LINE
  8
0
 10
264.9
 20
-168.5
 11
279.1
 21
-168.5
  0
LINE
  8
0
 10
279.1
 20
-168.5
 11
279.1
 21
-165.2
  0
LINE
  8
0
 10
279.1
 20
-165.2
 11
292.9
 21
-165.2
  0
LINE
  8
0
 10
292.9
 20
-165.2
 11
292.9
 21
-168.5
  0
LINE
  8
0
 10
292.9
 20
-168.5
 11
307.1
 21
-168.5
  0
LINE
  8
0
 10
307.1
 20
-168.5
 11
307.1
 21
-165.2
  0
LINE
  8
0
 10
307.1
 20
-165.2
 11
320.9
 21
-165.2
  0
LINE
  8
0
 10
320.9
 20
-165.2
 11
320.9
 21
-168.5
  0
LINE
  8
0
 10
320.9
 20
-168.5
 11
335.1
 21
-168.5
  0
LINE
  8
0
 10
335.1
 20
-168.5
 11
335.1
 21
-165.2
  0
LINE
  8
0
 10
335.1
 20
-165.2
 11
348.9
 21
-165.2
  0
LINE
  8
0
 10
348.9
 20
-165.2
 11
348.9
 21
-168.5
  0
LINE
  8
0
 10
348.9
 20
-168.5
 11
363.1
 21
-168.5
  0
LINE
  8
0
 10
363.1
 20
-168.5
 11
363.1
 21
-165.2
  0
LINE
  8
0
 10
363.1
 20
-165.2
 11
376.9
 21
-165.2
  0
LINE
  8
0
 10
376.9
 20
-165.2
 11
376.9
 21
-168.5
  0
LINE
  8
0
 10
376.9
 20
-168.5
 11
384.2
 21
-168.5
  0
LINE
  8
0
 10
384.2
 20
-168.5
 11
384.2
 21
-165.2
  0
LINE
  8
0
 10
384.2
 20
-165.2
 11
387.5
 21
-165.2
  0
LINE
  8
0
 10
387.5
 20
-165.2
 11
387.5
 21
-162.9
  0
LINE
  8
0
 10
387.5
 20
-162.9
 11
384.2
 21
-162.9
  0
LINE
  8
0
 10
384.2
 20
-162.9
 11
384.2
 21
-149.1
  0
LINE
  8
0
 10
384.2
 20
-149.1
 11
387.5
 21
-149.1
  0
LINE
  8
0
 10
387.5
 20
-149.1
 11
387.5
 21
-146.8
  0
LINE
  8
0
 10
387.5
 20
-146.8
 11
384.2
 21
-146.8
  0
LINE
  8
0
 10
384.2
 20
-146.8
 11
384.2
 21
-143.5
  0
LINE
  8
0
 10
384.2
 20
-143.5
 11
376.9
 21
-143.5
  0
LINE
  8
0
 10
376.9
 20
-143.5
 11
376.9
 21
-146.8
  0
LINE
  8
0
 10
376.9
 20
-146.8
 11
363.1
 21
-146.8
  0
LINE
  8
0
 10
363.1
 20
-146.8
 11
363.1
 21
-143.5
  0
LINE
  8
0
 10
363.1
 20
-143.5
 11
348.9
 21
-143.5
  0
LINE
  8
0
 10
348.9
 20
-143.5
 11
348.9
 21
-146.8
  0
LINE
  8
0
 10
348.9
 20
-146.8
 11
335.1
 21
-146.8
  0
LINE
  8
0
 10
335.1
 20
-146.8
 11
335.1
 21
-143.5
  0
LINE
  8
0
 10
335.1
 20
-143.5
 11
320.9
 21
-143.5
  0
LINE
  8
0
 10
320.9
 20
-143.5
 11
320.9
 21
-146.8
  0
LINE
  8
0
 10
320.9
 20
-146.8
 11
307.1
 21
-146.8
  0
LINE
  8
0
 10
307.1
 20
-146.8
 11
307.1
 21
-143.5
  0
LINE
  8
0
 10
307.1
 20
-143.5
 11
292.9
 21
-143.5
  0
LINE
  8
0
 10
292.9
 20
-143.5
 11
292.9
 21
-146.8
  0
LINE
  8
0
 10
292.9
 20
-146.8
 11
279.1
 21
-146.8
  0
LINE
  8
0
 10
279.1
 20
-146.8
 11
279.1
 21
-143.5
  0
LINE
  8
0
 10
279.1
 20
-143.5
 11
264.9
 21
-143.5
  0
LINE
  8
0
 10
264.9
 20
-143.5
 11
264.9
 21
-146.8
  0
LINE
  8
0
 10
264.9
 20
-146.8
 11
251.1
 21
-146.8
  0
LINE
  8
0
 10
251.1
 20
-146.8
 11
251.1
 21
-143.5
  0
LINE
  8
0
 10
251.1
 20
-143.5
 11
236.9
 21
-143.5
  0
LINE
  8
0
 10
236.9
 20
-143.5
 11
236.9
 21
-146.8
  0
LINE
  8
0
 10
236.9
 20
-146.8
 11
223.1
 21
-146.8
  0
LINE
  8
0
 10
223.1
 20
-146.8
 11
223.1
 21
-143.5
  0
LINE
  8
0
 10
223.1
 20
-143.5
 11
208.9
 21
-143.5
  0
LINE
  8
0
 10
208.9
 20
-143.5
 11
208.9
 21
-146.8
  0
LINE
  8
0
 10
208.9
 20
-146.8
 11
195.1
 21
-146.8
  0
LINE
  8
0
 10
195.1
 20
-146.8
 11
195.1
 21
-143.5
  0
LINE
  8
0
 10
195.1
 20
-143.5
 11
180.9
 21
-143.5
  0
LINE
  8
0
 10
180.9
 20
-143.5
 11
180.9
 21
-146.8
  0
LINE
  8
0
 10
180.9
 20
-146.8
 11
167.1
 21
-146.8
  0
LINE
  8
0
 10
167.1
 20
-146.8
 11
167.1
 21
-143.5
  0
LINE
  8
0
 10
167.1
 20
-143.5
 11
152.9
 21
-143.5
  0
LINE
  8
0
 10
152.9
 20
-143.5
 11
152.9
 21
-146.8
  0
LINE
  8
0
 10
152.9
 20
-146.8
 11
139.1
 21
-146.8
  0
LINE
  8
0
 10
139.1
 20
-146.8
 11
139.1
 21
-143.5
  0
LINE
  8
0
 10
139.1
 20
-143.5
 11
124.9
 21
-143.5
  0
LINE
  8
0
 10
124.9
 20
-143.5
 11
124.9
 21
-146.8
  0
LINE
  8
0
 10
124.9
 20
-146.8
 11
111.1
 21
-146.8
  0
LINE
  8
0
 10
111.1
 20
-146.8
 11
111.1
 21
-143.5
  0
LINE
  8
0
 10
111.1
 20
-143.5
 11
103.8
 21
-143.5
  0
LINE
  8
0
 10
103.8
 20
-143.5
 11
103.8
 21
-146.8
  0
LINE
  8
0
 10
103.8
 20
-146.8
 11
100.5
 21
-146.8
  0
LINE
  8
0
 10
100.5
 20
-146.8
 11
100.5
 21
-149.1
  0
LINE
  8
0
 10
100.5
 20
-149.1
 11
103.8
 21
-149.1
  0
LINE
  8
0
 10
103.8
 20
-149.1
 11
103.8
 21
-162.9
  0
LINE
  8
0
 10
103.8
 20
-162.9
 11
100.5
 21
-162.9
  0
LINE
  8
0
 10
100.5
 20
-162.9
 11
100.5
 21
-165.2
  0
LINE
  8
0
 10
100.5
 20
-165.2
 11
103.8
 21
-165.2
  0
LINE
  8
0
 10
103.8
 20
-165.2
 11
103.8
 21
-168.5
  0
LINE
  8
0
 10
103.8
 20
-168.5
 11
111.1
 21
-168.5
  0
LINE
  8
0
 10
111.1
 20
-168.5
 11
111.1
 21
-165.2
  0
LINE
  8
0
 10
-90.9
 20
-165.2
 11
-77.1
 21
-165.2
  0
LINE
  8
0
 10
-77.1
 20
-165.2
 11
-77.1
 21
-168.5
  0
LINE
  8
0
 10
-77.1
 20
-168.5
 11
-62.9
 21
-168.5
  0
LINE
  8
0
 10
-62.9
 20
-168.5
 11
-62.9
 21
-165.2
  0
LINE
  8
0
 10
-62.9
 20
-165.2
 11
-49.1
 21
-165.2
  0
LINE
  8
0
 10
-49.1
 20
-165.2
 11
-49.1
 21
-168.5
  0
LINE
  8
0
 10
-49.1
 20
-168.5
 11
-34.9
 21
-168.5
  0
LINE
  8
0
 10
-34.9
 20
-168.5
 11
-34.9
 21
-165.2
  0
LINE
  8
0
 10
-34.9
 20
-165.2
 11
-21.1
 21
-165.2
  0
LINE
  8
0
 10
-21.1
 20
-165.2
 11
-21.1
 21
-168.5
  0
LINE
  8
0
 10
-21.1
 20
-168.5
 11
-6.89999
 21
-168.5
  0
LINE
  8
0
 10
-6.89999
 20
-168.5
 11
-6.89999
 21
-165.2
  0
LINE
  8
0
 10
-6.89999
 20
-165.2
 11
6.89999
 21
-165.2
  0
LINE
  8
0
 10
6.89999
 20
-165.2
 11
6.89999
 21
-168.5
  0
LINE
  8
0
 10
6.89999
 20
-168.5
 11
21.1
 21
-168.5
  0
LINE
  8
0
 10
21.1
 20
-168.5
 11
21.1
 21
-165.2
  0
LINE
  8
0
 10
21.1
 20
-165.2
 11
34.9
 21
-165.2
  0
LINE
  8
0
 10
34.9
 20
-165.2
 11
34.9
 21
-168.5
  0
LINE
  8
0
 10
34.9
 20
-168.5
 11
49.1
 21
-168.5
  0
LINE
  8
0
 10
49.1
 20
-168.5
 11
49.1
 21
-165.2
  0
LINE
  8
0
 10
49.1
 20
-165.2
 11
62.9
 21
-165.2
  0
LINE
  8
0
 10
62.9
 20
-165.2
 11
62.9
 21
-168.5
  0
LINE
  8
0
 10
62.9
 20
-168.5
 11
77.1
 21
-168.5
  0
LINE
  8
0
 10
77.1
 20
-168.5
 11
77.1
 21
-165.2
  0
LINE
  8
0
 10
77.1
 20
-165.2
 11
90.9
 21
-165.2
  0
LINE
  8
0
 10
90.9
 20
-165.2
 11
90.9
 21
-168.5
  0
LINE
  8
0
 10
90.9
 20
-168.5
 11
96.7
 21
-168.5
  0
LINE
  8
0
 10
96.7
 20
-168.5
 11
96.7
 21
-163.1
  0
LINE
  8
0
 10
96.7
 20
-163.1
 11
100
 21
-163.1
  0
LINE
  8
0
 10
100
 20
-163.1
 11
100
 21
-146.8
  0
LINE
  8
0
 10
100
 20
-146.8
 11
96.7
 21
-146.8
  0
LINE
  8
0
 10
96.7
 20
-146.8
 11
96.7
 21
-143.5
  0
LINE
  8
0
 10
96.7
 20
-143.5
 11
90.9
 21
-143.5
  0
LINE
  8
0
 10
90.9
 20
-143.5
 11
90.9
 21
-146.8
  0
LINE
  8
0
 10
90.9
 20
-146.8
 11
77.1
 21
-146.8
  0
LINE
  8
0
 10
77.1
 20
-146.8
 11
77.1
 21
-143.5
  0
LINE
  8
0
 10
77.1
 20
-143.5
 11
62.9
 21
-143.5
  0
LINE
  8
0
 10
62.9
 20
-143.5
 11
62.9
 21
-146.8
  0
LINE
  8
0
 10
62.9
 20
-146.8
 11
49.1
 21
-146.8
  0
LINE
  8
0
 10
49.1
 20
-146.8
 11
49.1
 21
-143.5
  0
LINE
  8
0
 10
49.1
 20
-143.5
 11
34.9
 21
-143.5
  0
LINE
  8
0
 10
34.9
 20
-143.5
 11
34.9
 21
-146.8
  0
LINE
  8
0
 10
34.9
 20
-146.8
 11
21.1
 21
-146.8
  0
LINE
  8
0
 10
21.1
 20
-146.8
 11
21.1
 21
-143.5
  0
LINE
  8
0
 10
21.1
 20
-143.5
 11
6.89999
 21
-143.5
  0
LINE
  8
0
 10
6.89999
 20
-143.5
 11
6.89999
 21
-146.8
  0
LINE
  8
0
 10
6.89999
 20
-146.8
 11
-6.90001
 21
-146.8
  0
LINE
  8
0
 10
-6.90001
 20
-146.8
 11
-6.90001
 21
-143.5
  0
LINE
  8
0
 10
-6.90001
 20
-143.5
 11
-21.1
 21
-143.5
  0
LINE
  8
0
 10
-21.1
 20
-143.5
 11
-21.1
 21
-146.8
  0
LINE
  8
0
 10
-21.1
 20
-146.8
 11
-34.9
 21
-146.8
  0
LINE
  8
0
 10
-34.9
 20
-146.8
 11
-34.9
 21
-143.5
  0
LINE
  8
0
 10
-34.9
 20
-143.5
 11
-49.1
 21
-143.5
  0
LINE
  8
0
 10
-49.1
 20
-143.5
 11
-49.1
 21
-146.8
  0
LINE
  8
0
 10
-49.1
 20
-146.8
 11
-62.9
 21
-146.8
  0
LINE
  8
0
 10
-62.9
 20
-146.8
 11
-62.9
 21
-143.5
  0
LINE
  8
0
 10
-62.9
 20
-143.5
 11
-77.1
 21
-143.5
  0
LINE
  8
0
 10
-77.1
 20
-143.5
 11
-77.1
 21
-146.8
  0
LINE
  8
0
 10
-77.1
 20
-146.8
 11
-90.9
 21
-146.8
  0
LINE
  8
0
 10
-90.9
 20
-146.8
 11
-90.9
 21
-143.5
  0
LINE
  8
0
 10
-90.9
 20
-143.5
 11
-96.7
 21
-143.5
  0
LINE
  8
0
 10
-96.7
 20
-143.5
 11
-96.7
 21
-148.9
  0
LINE
  8
0
 10
-96.7
 20
-148.9
 11
-100
 21
-148.9
  0
LINE
  8
0
 10
-100
 20
-148.9
 11
-100
 21
-165.2
  0
LINE
  8
0
 10
-100
 20
-165.2
 11
-96.7
 21
-165.2
  0
LINE
  8
0
 10
-96.7
 20
-165.2
 11
-96.7
 21
-168.5
  0
LINE
  8
0
 10
-96.7
 20
-168.5
 11
-90.9
 21
-168.5
  0
LINE
  8
0
 10
-90.9
 20
-168.5
 11
-90.9
 21
-165.2
  0
LINE
  8
0
 10
56.9837
 20
-160.344
 11
56.9837
 21
-151.32
  0
LINE
  8
0
 10
56.9837
 20
-151.32
 11
58.0807
 21
-151.32
  0
LINE
  8
0
 10
58.0807
 20
-151.32
 11
58.0807
 21
-156.951
  0
LINE
  8
0
 10
58.0807
 20
-156.951
 11
61.0017
 21
-153.752
  0
LINE
  8
0
 10
61.0017
 20
-153.752
 11
62.2877
 21
-153.752
  0
LINE
  8
0
 10
62.2877
 20
-153.752
 11
59.5987
 21
-156.585
  0
LINE
  8
0
 10
59.5987
 20
-156.585
 11
62.4287
 21
-160.344
  0
LINE
  8
0
 10
62.4287
 20
-160.344
 11
61.1437
 21
-160.344
  0
LINE
  8
0
 10
61.1437
 20
-160.344
 11
58.8977
 21
-157.334
  0
LINE
  8
0
 10
58.8977
 20
-157.334
 11
58.0807
 21
-157.998
  0
LINE
  8
0
 10
58.0807
 20
-157.998
 11
58.0807
 21
-160.344
  0
LINE
  8
0
 10
58.0807
 20
-160.344
 11
56.9837
 21
-160.344
  0
LINE
  8
0
 10
-67.4812
 20
-160.344
 11
-67.4812
 21
-151.32
  0
LINE
  8
0
 10
-67.4812
 20
-151.32
 11
-66.3842
 21
-151.32
  0
LINE
  8
0
 10
-66.3842
 20
-151.32
 11
-66.3842
 21
-156.951
  0
LINE
  8
0
 10
-66.3842
 20
-156.951
 11
-63.4632
 21
-153.752
  0
LINE
  8
0
 10
-63.4632
 20
-153.752
 11
-62.1772
 21
-153.752
  0
LINE
  8
0
 10
-62.1772
 20
-153.752
 11
-64.8662
 21
-156.585
  0
LINE
  8
0
 10
-64.8662
 20
-156.585
 11
-62.0362
 21
-160.344
  0
LINE
  8
0
 10
-62.0362
 20
-160.344
 11
-63.3212
 21
-160.344
  0
LINE
  8
0
 10
-63.3212
 20
-160.344
 11
-65.5672
 21
-157.334
  0
LINE
  8
0
 10
-65.5672
 20
-157.334
 11
-66.3842
 21
-157.998
  0
LINE
  8
0
 10
-66.3842
 20
-157.998
 11
-66.3842
 21
-160.344
  0
LINE
  8
0
 10
-66.3842
 20
-160.344
 11
-67.4812
 21
-160.344
  0
LINE
  8
0
 10
-88.975
 20
-160.344
 11
-88.975
 21
-151.768
  0
LINE
  8
0
 10
-88.975
 20
-151.768
 11
-87.811
 21
-151.768
  0
LINE
  8
0
 10
-87.811
 20
-151.768
 11
-87.811
 21
-155.416
  0
LINE
  8
0
 10
-87.811
 20
-155.416
 11
-83.159
 21
-155.416
  0
LINE
  8
0
 10
-83.159
 20
-155.416
 11
-83.159
 21
-151.768
  0
LINE
  8
0
 10
-83.159
 20
-151.768
 11
-81.995
 21
-151.768
  0
LINE
  8
0
 10
-81.995
 20
-151.768
 11
-81.995
 21
-160.344
  0
LINE
  8
0
 10
-81.995
 20
-160.344
 11
-83.159
 21
-160.344
  0
LINE
  8
0
 10
-83.159
 20
-160.344
 11
-83.159
 21
-156.391
  0
LINE
  8
0
 10
-83.159
 20
-156.391
 11
-87.811
 21
-156.391
  0
LINE
  8
0
 10
-87.811
 20
-156.391
 11
-87.811
 21
-160.344
  0
LINE
  8
0
 10
-87.811
 20
-160.344
 11
-88.975
 21
-160.344
  0
LINE
  8
0
 10
35.4899
 20
-160.344
 11
35.4899
 21
-151.768
  0
LINE
  8
0
 10
35.4899
 20
-151.768
 11
36.6539
 21
-151.768
  0
LINE
  8
0
 10
36.6539
 20
-151.768
 11
36.6539
 21
-155.416
  0
LINE
  8
0
 10
36.6539
 20
-155.416
 11
41.3058
 21
-155.416
  0
LINE
  8
0
 10
41.3058
 20
-155.416
 11
41.3058
 21
-151.768
  0
LINE
  8
0
 10
41.3058
 20
-151.768
 11
42.4698
 21
-151.768
  0
LINE
  8
0
 10
42.4698
 20
-151.768
 11
42.4698
 21
-160.344
  0
LINE
  8
0
 10
42.4698
 20
-160.344
 11
41.3058
 21
-160.344
  0
LINE
  8
0
 10
41.3058
 20
-160.344
 11
41.3058
 21
-156.391
  0
LINE
  8
0
 10
41.3058
 20
-156.391
 11
36.6539
 21
-156.391
  0
LINE
  8
0
 10
36.6539
 20
-156.391
 11
36.6539
 21
-160.344
  0
LINE
  8
0
 10
36.6539
 20
-160.344
 11
35.4899
 21
-160.344
  0
LINE
  8
0
 10
86.4531
 20
-160.446
 11
85.9408
 21
-160.37
  0
LINE
  8
0
 10
85.9408
 20
-160.37
 11
85.4991
 21
-160.244
  0
LINE
  8
0
 10
85.4991
 20
-160.244
 11
85.1283
 21
-160.067
  0
LINE
  8
0
 10
85.1283
 20
-160.067
 11
84.8221
 21
-159.835
  0
LINE
  8
0
 10
84.8221
 20
-159.835
 11
84.5745
 21
-159.547
  0
LINE
  8
0
 10
84.5745
 20
-159.547
 11
84.3856
 21
-159.203
  0
LINE
  8
0
 10
84.3856
 20
-159.203
 11
84.2553
 21
-158.802
  0
LINE
  8
0
 10
84.2553
 20
-158.802
 11
85.2243
 21
-158.613
  0
LINE
  8
0
 10
85.2243
 20
-158.613
 11
85.3136
 21
-158.86
  0
LINE
  8
0
 10
85.3136
 20
-158.86
 11
85.4405
 21
-159.072
  0
LINE
  8
0
 10
85.4405
 20
-159.072
 11
85.6051
 21
-159.249
  0
LINE
  8
0
 10
85.6051
 20
-159.249
 11
85.8073
 21
-159.39
  0
LINE
  8
0
 10
85.8073
 20
-159.39
 11
86.0503
 21
-159.498
  0
LINE
  8
0
 10
86.0503
 20
-159.498
 11
86.3363
 21
-159.575
  0
LINE
  8
0
 10
86.3363
 20
-159.575
 11
86.6653
 21
-159.621
  0
LINE
  8
0
 10
86.6653
 20
-159.621
 11
87.0373
 21
-159.637
  0
LINE
  8
0
 10
87.0373
 20
-159.637
 11
87.43
 21
-159.621
  0
LINE
  8
0
 10
87.43
 20
-159.621
 11
87.7663
 21
-159.572
  0
LINE
  8
0
 10
87.7663
 20
-159.572
 11
88.046
 21
-159.492
  0
LINE
  8
0
 10
88.046
 20
-159.492
 11
88.2693
 21
-159.379
  0
LINE
  8
0
 10
88.2693
 20
-159.379
 11
88.4399
 21
-159.234
  0
LINE
  8
0
 10
88.4399
 20
-159.234
 11
88.5618
 21
-159.056
  0
LINE
  8
0
 10
88.5618
 20
-159.056
 11
88.6349
 21
-158.847
  0
LINE
  8
0
 10
88.6349
 20
-158.847
 11
88.6593
 21
-158.605
  0
LINE
  8
0
 10
88.6593
 20
-158.605
 11
88.6424
 21
-158.418
  0
LINE
  8
0
 10
88.6424
 20
-158.418
 11
88.5918
 21
-158.25
  0
LINE
  8
0
 10
88.5918
 20
-158.25
 11
88.5074
 21
-158.1
  0
LINE
  8
0
 10
88.5074
 20
-158.1
 11
88.3893
 21
-157.969
  0
LINE
  8
0
 10
88.3893
 20
-157.969
 11
88.2336
 21
-157.852
  0
LINE
  8
0
 10
88.2336
 20
-157.852
 11
88.0365
 21
-157.745
  0
LINE
  8
0
 10
88.0365
 20
-157.745
 11
87.7981
 21
-157.65
  0
LINE
  8
0
 10
87.7981
 20
-157.65
 11
87.5183
 21
-157.565
  0
LINE
  8
0
 10
87.5183
 20
-157.565
 11
86.7273
 21
-157.357
  0
LINE
  8
0
 10
86.7273
 20
-157.357
 11
86.2861
 21
-157.235
  0
LINE
  8
0
 10
86.2861
 20
-157.235
 11
85.9135
 21
-157.114
  0
LINE
  8
0
 10
85.9135
 20
-157.114
 11
85.6096
 21
-156.995
  0
LINE
  8
0
 10
85.6096
 20
-156.995
 11
85.3743
 21
-156.877
  0
LINE
  8
0
 10
85.3743
 20
-156.877
 11
85.1842
 21
-156.752
  0
LINE
  8
0
 10
85.1842
 20
-156.752
 11
85.016
 21
-156.616
  0
LINE
  8
0
 10
85.016
 20
-156.616
 11
84.8697
 21
-156.466
  0
LINE
  8
0
 10
84.8697
 20
-156.466
 11
84.7453
 21
-156.305
  0
LINE
  8
0
 10
84.7453
 20
-156.305
 11
84.646
 21
-156.127
  0
LINE
  8
0
 10
84.646
 20
-156.127
 11
84.575
 21
-155.93
  0
LINE
  8
0
 10
84.575
 20
-155.93
 11
84.5324
 21
-155.713
  0
LINE
  8
0
 10
84.5324
 20
-155.713
 11
84.5183
 21
-155.478
  0
LINE
  8
0
 10
84.5183
 20
-155.478
 11
84.5586
 21
-155.052
  0
LINE
  8
0
 10
84.5586
 20
-155.052
 11
84.6798
 21
-154.68
  0
LINE
  8
0
 10
84.6798
 20
-154.68
 11
84.8816
 21
-154.362
  0
LINE
  8
0
 10
84.8816
 20
-154.362
 11
85.1643
 21
-154.098
  0
LINE
  8
0
 10
85.1643
 20
-154.098
 11
85.5243
 21
-153.89
  0
LINE
  8
0
 10
85.5243
 20
-153.89
 11
85.9583
 21
-153.742
  0
LINE
  8
0
 10
85.9583
 20
-153.742
 11
86.4663
 21
-153.653
  0
LINE
  8
0
 10
86.4663
 20
-153.653
 11
87.0483
 21
-153.624
  0
LINE
  8
0
 10
87.0483
 20
-153.624
 11
87.5681
 21
-153.648
  0
LINE
  8
0
 10
87.5681
 20
-153.648
 11
88.0318
 21
-153.72
  0
LINE
  8
0
 10
88.0318
 20
-153.72
 11
88.4391
 21
-153.84
  0
LINE
  8
0
 10
88.4391
 20
-153.84
 11
88.7903
 21
-154.008
  0
LINE
  8
0
 10
88.7903
 20
-154.008
 11
89.0836
 21
-154.229
  0
LINE
  8
0
 10
89.0836
 20
-154.229
 11
89.3178
 21
-154.508
  0
LINE
  8
0
 10
89.3178
 20
-154.508
 11
89.4926
 21
-154.844
  0
LINE
  8
0
 10
89.4926
 20
-154.844
 11
89.6083
 21
-155.239
  0
LINE
  8
0
 10
89.6083
 20
-155.239
 11
88.6213
 21
-155.361
  0
LINE
  8
0
 10
88.6213
 20
-155.361
 11
88.5558
 21
-155.154
  0
LINE
  8
0
 10
88.5558
 20
-155.154
 11
88.4515
 21
-154.973
  0
LINE
  8
0
 10
88.4515
 20
-154.973
 11
88.3083
 21
-154.818
  0
LINE
  8
0
 10
88.3083
 20
-154.818
 11
88.1263
 21
-154.688
  0
LINE
  8
0
 10
88.1263
 20
-154.688
 11
87.9081
 21
-154.585
  0
LINE
  8
0
 10
87.9081
 20
-154.585
 11
87.6558
 21
-154.512
  0
LINE
  8
0
 10
87.6558
 20
-154.512
 11
87.3691
 21
-154.467
  0
LINE
  8
0
 10
87.3691
 20
-154.467
 11
87.0483
 21
-154.453
  0
LINE
  8
0
 10
87.0483
 20
-154.453
 11
86.6978
 21
-154.467
  0
LINE
  8
0
 10
86.6978
 20
-154.467
 11
86.3965
 21
-154.51
  0
LINE
  8
0
 10
86.3965
 20
-154.51
 11
86.1443
 21
-154.58
  0
LINE
  8
0
 10
86.1443
 20
-154.58
 11
85.9413
 21
-154.68
  0
LINE
  8
0
 10
85.9413
 20
-154.68
 11
85.7855
 21
-154.808
  0
LINE
  8
0
 10
85.7855
 20
-154.808
 11
85.6743
 21
-154.965
  0
LINE
  8
0
 10
85.6743
 20
-154.965
 11
85.6075
 21
-155.152
  0
LINE
  8
0
 10
85.6075
 20
-155.152
 11
85.5853
 21
-155.368
  0
LINE
  8
0
 10
85.5853
 20
-155.368
 11
85.5945
 21
-155.503
  0
LINE
  8
0
 10
85.5945
 20
-155.503
 11
85.622
 21
-155.625
  0
LINE
  8
0
 10
85.622
 20
-155.625
 11
85.6679
 21
-155.736
  0
LINE
  8
0
 10
85.6679
 20
-155.736
 11
85.7323
 21
-155.834
  0
LINE
  8
0
 10
85.7323
 20
-155.834
 11
85.8146
 21
-155.922
  0
LINE
  8
0
 10
85.8146
 20
-155.922
 11
85.9145
 21
-156.003
  0
LINE
  8
0
 10
85.9145
 20
-156.003
 11
86.0321
 21
-156.078
  0
LINE
  8
0
 10
86.0321
 20
-156.078
 11
86.1673
 21
-156.146
  0
LINE
  8
0
 10
86.1673
 20
-156.146
 11
86.3516
 21
-156.216
  0
LINE
  8
0
 10
86.3516
 20
-156.216
 11
86.6155
 21
-156.298
  0
LINE
  8
0
 10
86.6155
 20
-156.298
 11
86.9591
 21
-156.393
  0
LINE
  8
0
 10
86.9591
 20
-156.393
 11
87.3823
 21
-156.5
  0
LINE
  8
0
 10
87.3823
 20
-156.5
 11
87.7901
 21
-156.608
  0
LINE
  8
0
 10
87.7901
 20
-156.608
 11
88.1365
 21
-156.711
  0
LINE
  8
0
 10
88.1365
 20
-156.711
 11
88.4216
 21
-156.811
  0
LINE
  8
0
 10
88.4216
 20
-156.811
 11
88.6453
 21
-156.907
  0
LINE
  8
0
 10
88.6453
 20
-156.907
 11
88.8286
 21
-157.003
  0
LINE
  8
0
 10
88.8286
 20
-157.003
 11
88.9915
 21
-157.104
  0
LINE
  8
0
 10
88.9915
 20
-157.104
 11
89.1341
 21
-157.21
  0
LINE
  8
0
 10
89.1341
 20
-157.21
 11
89.2563
 21
-157.321
  0
LINE
  8
0
 10
89.2563
 20
-157.321
 11
89.3619
 21
-157.438
  0
LINE
  8
0
 10
89.3619
 20
-157.438
 11
89.4548
 21
-157.564
  0
LINE
  8
0
 10
89.4548
 20
-157.564
 11
89.5349
 21
-157.7
  0
LINE
  8
0
 10
89.5349
 20
-157.7
 11
89.6023
 21
-157.844
  0
LINE
  8
0
 10
89.6023
 20
-157.844
 11
89.6561
 21
-157.997
  0
LINE
  8
0
 10
89.6561
 20
-157.997
 11
89.6945
 21
-158.161
  0
LINE
  8
0
 10
89.6945
 20
-158.161
 11
89.7176
 21
-158.335
  0
LINE
  8
0
 10
89.7176
 20
-158.335
 11
89.7253
 21
-158.52
  0
LINE
  8
0
 10
89.7253
 20
-158.52
 11
89.681
 21
-158.961
  0
LINE
  8
0
 10
89.681
 20
-158.961
 11
89.5483
 21
-159.349
  0
LINE
  8
0
 10
89.5483
 20
-159.349
 11
89.327
 21
-159.683
  0
LINE
  8
0
 10
89.327
 20
-159.683
 11
89.0173
 21
-159.964
  0
LINE
  8
0
 10
89.0173
 20
-159.964
 11
88.6283
 21
-160.186
  0
LINE
  8
0
 10
88.6283
 20
-160.186
 11
88.1685
 21
-160.345
  0
LINE
  8
0
 10
88.1685
 20
-160.345
 11
87.6378
 21
-160.44
  0
LINE
  8
0
 10
87.6378
 20
-160.44
 11
87.0363
 21
-160.472
  0
LINE
  8
0
 10
87.0363
 20
-160.472
 11
86.4531
 21
-160.446
  0
LINE
  8
0
 10
70.3729
 20
-160.439
 11
69.9709
 21
-160.34
  0
LINE
  8
0
 10
69.9709
 20
-160.34
 11
69.6304
 21
-160.176
  0
LINE
  8
0
 10
69.6304
 20
-160.176
 11
69.3512
 21
-159.946
  0
LINE
  8
0
 10
69.3512
 20
-159.946
 11
69.1337
 21
-159.658
  0
LINE
  8
0
 10
69.1337
 20
-159.658
 11
68.9784
 21
-159.322
  0
LINE
  8
0
 10
68.9784
 20
-159.322
 11
68.8852
 21
-158.936
  0
LINE
  8
0
 10
68.8852
 20
-158.936
 11
68.8542
 21
-158.502
  0
LINE
  8
0
 10
68.8542
 20
-158.502
 11
68.8961
 21
-158.018
  0
LINE
  8
0
 10
68.8961
 20
-158.018
 11
69.0217
 21
-157.593
  0
LINE
  8
0
 10
69.0217
 20
-157.593
 11
69.231
 21
-157.229
  0
LINE
  8
0
 10
69.231
 20
-157.229
 11
69.5242
 21
-156.924
  0
LINE
  8
0
 10
69.5242
 20
-156.924
 11
69.9105
 21
-156.68
  0
LINE
  8
0
 10
69.9105
 20
-156.68
 11
70.3994
 21
-156.501
  0
LINE
  8
0
 10
70.3994
 20
-156.501
 11
70.991
 21
-156.386
  0
LINE
  8
0
 10
70.991
 20
-156.386
 11
71.6852
 21
-156.336
  0
LINE
  8
0
 10
71.6852
 20
-156.336
 11
73.1582
 21
-156.312
  0
LINE
  8
0
 10
73.1582
 20
-156.312
 11
73.1582
 21
-155.954
  0
LINE
  8
0
 10
73.1582
 20
-155.954
 11
73.137
 21
-155.581
  0
LINE
  8
0
 10
73.137
 20
-155.581
 11
73.0734
 21
-155.266
  0
LINE
  8
0
 10
73.0734
 20
-155.266
 11
72.9675
 21
-155.007
  0
LINE
  8
0
 10
72.9675
 20
-155.007
 11
72.8192
 21
-154.806
  0
LINE
  8
0
 10
72.8192
 20
-154.806
 11
72.6255
 21
-154.654
  0
LINE
  8
0
 10
72.6255
 20
-154.654
 11
72.3834
 21
-154.546
  0
LINE
  8
0
 10
72.3834
 20
-154.546
 11
72.093
 21
-154.48
  0
LINE
  8
0
 10
72.093
 20
-154.48
 11
71.7542
 21
-154.459
  0
LINE
  8
0
 10
71.7542
 20
-154.459
 11
71.4131
 21
-154.474
  0
LINE
  8
0
 10
71.4131
 20
-154.474
 11
71.1219
 21
-154.52
  0
LINE
  8
0
 10
71.1219
 20
-154.52
 11
70.8806
 21
-154.596
  0
LINE
  8
0
 10
70.8806
 20
-154.596
 11
70.6892
 21
-154.703
  0
LINE
  8
0
 10
70.6892
 20
-154.703
 11
70.5397
 21
-154.842
  0
LINE
  8
0
 10
70.5397
 20
-154.842
 11
70.4234
 21
-155.019
  0
LINE
  8
0
 10
70.4234
 20
-155.019
 11
70.3402
 21
-155.231
  0
LINE
  8
0
 10
70.3402
 20
-155.231
 11
70.2902
 21
-155.48
  0
LINE
  8
0
 10
70.2902
 20
-155.48
 11
69.1452
 21
-155.378
  0
LINE
  8
0
 10
69.1452
 20
-155.378
 11
69.4144
 21
-154.61
  0
LINE
  8
0
 10
69.4144
 20
-154.61
 11
69.9432
 21
-154.062
  0
LINE
  8
0
 10
69.9432
 20
-154.062
 11
70.7314
 21
-153.733
  0
LINE
  8
0
 10
70.7314
 20
-153.733
 11
71.7792
 21
-153.624
  0
LINE
  8
0
 10
71.7792
 20
-153.624
 11
72.3599
 21
-153.659
  0
LINE
  8
0
 10
72.3599
 20
-153.659
 11
72.8639
 21
-153.767
  0
LINE
  8
0
 10
72.8639
 20
-153.767
 11
73.2914
 21
-153.945
  0
LINE
  8
0
 10
73.2914
 20
-153.945
 11
73.6422
 21
-154.195
  0
LINE
  8
0
 10
73.6422
 20
-154.195
 11
73.9156
 21
-154.512
  0
LINE
  8
0
 10
73.9156
 20
-154.512
 11
74.1109
 21
-154.892
  0
LINE
  8
0
 10
74.1109
 20
-154.892
 11
74.2281
 21
-155.337
  0
LINE
  8
0
 10
74.2281
 20
-155.337
 11
74.2672
 21
-155.845
  0
LINE
  8
0
 10
74.2672
 20
-155.845
 11
74.2672
 21
-158.689
  0
LINE
  8
0
 10
74.2672
 20
-158.689
 11
74.2751
 21
-158.918
  0
LINE
  8
0
 10
74.2751
 20
-158.918
 11
74.2989
 21
-159.116
  0
LINE
  8
0
 10
74.2989
 20
-159.116
 11
74.3386
 21
-159.285
  0
LINE
  8
0
 10
74.3386
 20
-159.285
 11
74.3942
 21
-159.424
  0
LINE
  8
0
 10
74.3942
 20
-159.424
 11
74.4725
 21
-159.532
  0
LINE
  8
0
 10
74.4725
 20
-159.532
 11
74.5797
 21
-159.609
  0
LINE
  8
0
 10
74.5797
 20
-159.609
 11
74.7156
 21
-159.655
  0
LINE
  8
0
 10
74.7156
 20
-159.655
 11
74.8802
 21
-159.671
  0
LINE
  8
0
 10
74.8802
 20
-159.671
 11
74.9618
 21
-159.668
  0
LINE
  8
0
 10
74.9618
 20
-159.668
 11
75.0487
 21
-159.66
  0
LINE
  8
0
 10
75.0487
 20
-159.66
 11
75.1408
 21
-159.647
  0
LINE
  8
0
 10
75.1408
 20
-159.647
 11
75.2382
 21
-159.628
  0
LINE
  8
0
 10
75.2382
 20
-159.628
 11
75.2382
 21
-160.311
  0
LINE
  8
0
 10
75.2382
 20
-160.311
 11
75.0301
 21
-160.353
  0
LINE
  8
0
 10
75.0301
 20
-160.353
 11
74.8197
 21
-160.383
  0
LINE
  8
0
 10
74.8197
 20
-160.383
 11
74.6071
 21
-160.402
  0
LINE
  8
0
 10
74.6071
 20
-160.402
 11
74.3922
 21
-160.408
  0
LINE
  8
0
 10
74.3922
 20
-160.408
 11
74.1089
 21
-160.388
  0
LINE
  8
0
 10
74.1089
 20
-160.388
 11
73.8669
 21
-160.328
  0
LINE
  8
0
 10
73.8669
 20
-160.328
 11
73.6664
 21
-160.228
  0
LINE
  8
0
 10
73.6664
 20
-160.228
 11
73.5072
 21
-160.089
  0
LINE
  8
0
 10
73.5072
 20
-160.089
 11
73.3837
 21
-159.906
  0
LINE
  8
0
 10
73.3837
 20
-159.906
 11
73.2904
 21
-159.678
  0
LINE
  8
0
 10
73.2904
 20
-159.678
 11
73.2272
 21
-159.405
  0
LINE
  8
0
 10
73.2272
 20
-159.405
 11
73.1942
 21
-159.087
  0
LINE
  8
0
 10
73.1942
 20
-159.087
 11
73.1582
 21
-159.087
  0
LINE
  8
0
 10
73.1582
 20
-159.087
 11
72.9402
 21
-159.438
  0
LINE
  8
0
 10
72.9402
 20
-159.438
 11
72.7052
 21
-159.733
  0
LINE
  8
0
 10
72.7052
 20
-159.733
 11
72.4532
 21
-159.973
  0
LINE
  8
0
 10
72.4532
 20
-159.973
 11
72.1842
 21
-160.158
  0
LINE
  8
0
 10
72.1842
 20
-160.158
 11
71.8922
 21
-160.295
  0
LINE
  8
0
 10
71.8922
 20
-160.295
 11
71.5702
 21
-160.393
  0
LINE
  8
0
 10
71.5702
 20
-160.393
 11
71.2182
 21
-160.452
  0
LINE
  8
0
 10
71.2182
 20
-160.452
 11
70.8362
 21
-160.472
  0
LINE
  8
0
 10
70.8362
 20
-160.472
 11
70.3729
 21
-160.439
  0
LINE
  8
0
 10
71.3804
 20
-159.631
 11
71.6549
 21
-159.58
  0
LINE
  8
0
 10
71.6549
 20
-159.58
 11
71.9129
 21
-159.493
  0
LINE
  8
0
 10
71.9129
 20
-159.493
 11
72.1542
 21
-159.373
  0
LINE
  8
0
 10
72.1542
 20
-159.373
 11
72.3749
 21
-159.222
  0
LINE
  8
0
 10
72.3749
 20
-159.222
 11
72.5709
 21
-159.045
  0
LINE
  8
0
 10
72.5709
 20
-159.045
 11
72.7424
 21
-158.843
  0
LINE
  8
0
 10
72.7424
 20
-158.843
 11
72.8892
 21
-158.616
  0
LINE
  8
0
 10
72.8892
 20
-158.616
 11
73.0069
 21
-158.373
  0
LINE
  8
0
 10
73.0069
 20
-158.373
 11
73.0909
 21
-158.128
  0
LINE
  8
0
 10
73.0909
 20
-158.128
 11
73.1414
 21
-157.878
  0
LINE
  8
0
 10
73.1414
 20
-157.878
 11
73.1582
 21
-157.626
  0
LINE
  8
0
 10
73.1582
 20
-157.626
 11
73.1582
 21
-157.08
  0
LINE
  8
0
 10
73.1582
 20
-157.08
 11
71.9662
 21
-157.105
  0
LINE
  8
0
 10
71.9662
 20
-157.105
 11
71.6054
 21
-157.119
  0
LINE
  8
0
 10
71.6054
 20
-157.119
 11
71.2909
 21
-157.15
  0
LINE
  8
0
 10
71.2909
 20
-157.15
 11
71.0229
 21
-157.199
  0
LINE
  8
0
 10
71.0229
 20
-157.199
 11
70.8012
 21
-157.264
  0
LINE
  8
0
 10
70.8012
 20
-157.264
 11
70.6147
 21
-157.347
  0
LINE
  8
0
 10
70.6147
 20
-157.347
 11
70.4512
 21
-157.451
  0
LINE
  8
0
 10
70.4512
 20
-157.451
 11
70.3107
 21
-157.574
  0
LINE
  8
0
 10
70.3107
 20
-157.574
 11
70.1932
 21
-157.718
  0
LINE
  8
0
 10
70.1932
 20
-157.718
 11
70.1009
 21
-157.883
  0
LINE
  8
0
 10
70.1009
 20
-157.883
 11
70.0349
 21
-158.071
  0
LINE
  8
0
 10
70.0349
 20
-158.071
 11
69.9954
 21
-158.284
  0
LINE
  8
0
 10
69.9954
 20
-158.284
 11
69.9822
 21
-158.521
  0
LINE
  8
0
 10
69.9822
 20
-158.521
 11
70.0001
 21
-158.775
  0
LINE
  8
0
 10
70.0001
 20
-158.775
 11
70.0539
 21
-158.999
  0
LINE
  8
0
 10
70.0539
 20
-158.999
 11
70.1436
 21
-159.192
  0
LINE
  8
0
 10
70.1436
 20
-159.192
 11
70.2692
 21
-159.355
  0
LINE
  8
0
 10
70.2692
 20
-159.355
 11
70.4284
 21
-159.483
  0
LINE
  8
0
 10
70.4284
 20
-159.483
 11
70.6182
 21
-159.575
  0
LINE
  8
0
 10
70.6182
 20
-159.575
 11
70.8384
 21
-159.63
  0
LINE
  8
0
 10
70.8384
 20
-159.63
 11
71.0892
 21
-159.649
  0
LINE
  8
0
 10
71.0892
 20
-159.649
 11
71.3804
 21
-159.631
  0
LINE
  8
0
 10
52.7781
 20
-160.417
 11
52.2064
 21
-160.253
  0
LINE
  8
0
 10
52.2064
 20
-160.253
 11
51.7171
 21
-159.979
  0
LINE
  8
0
 10
51.7171
 20
-159.979
 11
51.3099
 21
-159.596
  0
LINE
  8
0
 10
51.3099
 20
-159.596
 11
50.9897
 21
-159.108
  0
LINE
  8
0
 10
50.9897
 20
-159.108
 11
50.7609
 21
-158.519
  0
LINE
  8
0
 10
50.7609
 20
-158.519
 11
50.6237
 21
-157.831
  0
LINE
  8
0
 10
50.6237
 20
-157.831
 11
50.5779
 21
-157.042
  0
LINE
  8
0
 10
50.5779
 20
-157.042
 11
50.6239
 21
-156.258
  0
LINE
  8
0
 10
50.6239
 20
-156.258
 11
50.7617
 21
-155.573
  0
LINE
  8
0
 10
50.7617
 20
-155.573
 11
50.9914
 21
-154.987
  0
LINE
  8
0
 10
50.9914
 20
-154.987
 11
51.3129
 21
-154.5
  0
LINE
  8
0
 10
51.3129
 20
-154.5
 11
51.7202
 21
-154.117
  0
LINE
  8
0
 10
51.7202
 20
-154.117
 11
52.2072
 21
-153.843
  0
LINE
  8
0
 10
52.2072
 20
-153.843
 11
52.7737
 21
-153.679
  0
LINE
  8
0
 10
52.7737
 20
-153.679
 11
53.4199
 21
-153.624
  0
LINE
  8
0
 10
53.4199
 20
-153.624
 11
53.9064
 21
-153.656
  0
LINE
  8
0
 10
53.9064
 20
-153.656
 11
54.3497
 21
-153.755
  0
LINE
  8
0
 10
54.3497
 20
-153.755
 11
54.7499
 21
-153.918
  0
LINE
  8
0
 10
54.7499
 20
-153.918
 11
55.1069
 21
-154.147
  0
LINE
  8
0
 10
55.1069
 20
-154.147
 11
55.4112
 21
-154.433
  0
LINE
  8
0
 10
55.4112
 20
-154.433
 11
55.6529
 21
-154.768
  0
LINE
  8
0
 10
55.6529
 20
-154.768
 11
55.8322
 21
-155.153
  0
LINE
  8
0
 10
55.8322
 20
-155.153
 11
55.9489
 21
-155.587
  0
LINE
  8
0
 10
55.9489
 20
-155.587
 11
54.8219
 21
-155.672
  0
LINE
  8
0
 10
54.8219
 20
-155.672
 11
54.7624
 21
-155.413
  0
LINE
  8
0
 10
54.7624
 20
-155.413
 11
54.6697
 21
-155.182
  0
LINE
  8
0
 10
54.6697
 20
-155.182
 11
54.5439
 21
-154.979
  0
LINE
  8
0
 10
54.5439
 20
-154.979
 11
54.3849
 21
-154.805
  0
LINE
  8
0
 10
54.3849
 20
-154.805
 11
54.1915
 21
-154.664
  0
LINE
  8
0
 10
54.1915
 20
-154.664
 11
53.9612
 21
-154.563
  0
LINE
  8
0
 10
53.9612
 20
-154.563
 11
53.694
 21
-154.503
  0
LINE
  8
0
 10
53.694
 20
-154.503
 11
53.3899
 21
-154.483
  0
LINE
  8
0
 10
53.3899
 20
-154.483
 11
52.9807
 21
-154.519
  0
LINE
  8
0
 10
52.9807
 20
-154.519
 11
52.6322
 21
-154.628
  0
LINE
  8
0
 10
52.6322
 20
-154.628
 11
52.3442
 21
-154.809
  0
LINE
  8
0
 10
52.3442
 20
-154.809
 11
52.1169
 21
-155.063
  0
LINE
  8
0
 10
52.1169
 20
-155.063
 11
51.945
 21
-155.402
  0
LINE
  8
0
 10
51.945
 20
-155.402
 11
51.8222
 21
-155.842
  0
LINE
  8
0
 10
51.8222
 20
-155.842
 11
51.7485
 21
-156.38
  0
LINE
  8
0
 10
51.7485
 20
-156.38
 11
51.7239
 21
-157.018
  0
LINE
  8
0
 10
51.7239
 20
-157.018
 11
51.7501
 21
-157.634
  0
LINE
  8
0
 10
51.7501
 20
-157.634
 11
51.8284
 21
-158.166
  0
LINE
  8
0
 10
51.8284
 20
-158.166
 11
51.9591
 21
-158.611
  0
LINE
  8
0
 10
51.9591
 20
-158.611
 11
52.1419
 21
-158.972
  0
LINE
  8
0
 10
52.1419
 20
-158.972
 11
52.3774
 21
-159.25
  0
LINE
  8
0
 10
52.3774
 20
-159.25
 11
52.6659
 21
-159.448
  0
LINE
  8
0
 10
52.6659
 20
-159.448
 11
53.0074
 21
-159.567
  0
LINE
  8
0
 10
53.0074
 20
-159.567
 11
53.4019
 21
-159.607
  0
LINE
  8
0
 10
53.4019
 20
-159.607
 11
53.6848
 21
-159.587
  0
LINE
  8
0
 10
53.6848
 20
-159.587
 11
53.9434
 21
-159.526
  0
LINE
  8
0
 10
53.9434
 20
-159.526
 11
54.1778
 21
-159.426
  0
LINE
  8
0
 10
54.1778
 20
-159.426
 11
54.3879
 21
-159.286
  0
LINE
  8
0
 10
54.3879
 20
-159.286
 11
54.5674
 21
-159.103
  0
LINE
  8
0
 10
54.5674
 20
-159.103
 11
54.7087
 21
-158.877
  0
LINE
  8
0
 10
54.7087
 20
-158.877
 11
54.8119
 21
-158.608
  0
LINE
  8
0
 10
54.8119
 20
-158.608
 11
54.8769
 21
-158.296
  0
LINE
  8
0
 10
54.8769
 20
-158.296
 11
55.9859
 21
-158.37
  0
LINE
  8
0
 10
55.9859
 20
-158.37
 11
55.8866
 21
-158.825
  0
LINE
  8
0
 10
55.8866
 20
-158.825
 11
55.7177
 21
-159.232
  0
LINE
  8
0
 10
55.7177
 20
-159.232
 11
55.4791
 21
-159.591
  0
LINE
  8
0
 10
55.4791
 20
-159.591
 11
55.1709
 21
-159.901
  0
LINE
  8
0
 10
55.1709
 20
-159.901
 11
54.805
 21
-160.151
  0
LINE
  8
0
 10
54.805
 20
-160.151
 11
54.3932
 21
-160.329
  0
LINE
  8
0
 10
54.3932
 20
-160.329
 11
53.9355
 21
-160.436
  0
LINE
  8
0
 10
53.9355
 20
-160.436
 11
53.4319
 21
-160.472
  0
LINE
  8
0
 10
53.4319
 20
-160.472
 11
52.7781
 21
-160.417
  0
LINE
  8
0
 10
-79.1516
 20
-160.439
 11
-79.5535
 21
-160.34
  0
LINE
  8
0
 10
-79.5535
 20
-160.34
 11
-79.8941
 21
-160.176
  0
LINE
  8
0
 10
-79.8941
 20
-160.176
 11
-80.1732
 21
-159.946
  0
LINE
  8
0
 10
-80.1732
 20
-159.946
 11
-80.3907
 21
-159.658
  0
LINE
  8
0
 10
-80.3907
 20
-159.658
 11
-80.546
 21
-159.322
  0
LINE
  8
0
 10
-80.546
 20
-159.322
 11
-80.6392
 21
-158.936
  0
LINE
  8
0
 10
-80.6392
 20
-158.936
 11
-80.6702
 21
-158.502
  0
LINE
  8
0
 10
-80.6702
 20
-158.502
 11
-80.6284
 21
-158.018
  0
LINE
  8
0
 10
-80.6284
 20
-158.018
 11
-80.5027
 21
-157.593
  0
LINE
  8
0
 10
-80.5027
 20
-157.593
 11
-80.2934
 21
-157.229
  0
LINE
  8
0
 10
-80.2934
 20
-157.229
 11
-80.0002
 21
-156.924
  0
LINE
  8
0
 10
-80.0002
 20
-156.924
 11
-79.6139
 21
-156.68
  0
LINE
  8
0
 10
-79.6139
 20
-156.68
 11
-79.125
 21
-156.501
  0
LINE
  8
0
 10
-79.125
 20
-156.501
 11
-78.5334
 21
-156.386
  0
LINE
  8
0
 10
-78.5334
 20
-156.386
 11
-77.8392
 21
-156.336
  0
LINE
  8
0
 10
-77.8392
 20
-156.336
 11
-76.3663
 21
-156.312
  0
LINE
  8
0
 10
-76.3663
 20
-156.312
 11
-76.3663
 21
-155.954
  0
LINE
  8
0
 10
-76.3663
 20
-155.954
 11
-76.3874
 21
-155.581
  0
LINE
  8
0
 10
-76.3874
 20
-155.581
 11
-76.451
 21
-155.266
  0
LINE
  8
0
 10
-76.451
 20
-155.266
 11
-76.5569
 21
-155.007
  0
LINE
  8
0
 10
-76.5569
 20
-155.007
 11
-76.7052
 21
-154.806
  0
LINE
  8
0
 10
-76.7052
 20
-154.806
 11
-76.8989
 21
-154.654
  0
LINE
  8
0
 10
-76.8989
 20
-154.654
 11
-77.141
 21
-154.546
  0
LINE
  8
0
 10
-77.141
 20
-154.546
 11
-77.4314
 21
-154.48
  0
LINE
  8
0
 10
-77.4314
 20
-154.48
 11
-77.7702
 21
-154.459
  0
LINE
  8
0
 10
-77.7702
 20
-154.459
 11
-78.1113
 21
-154.474
  0
LINE
  8
0
 10
-78.1113
 20
-154.474
 11
-78.4025
 21
-154.52
  0
LINE
  8
0
 10
-78.4025
 20
-154.52
 11
-78.6438
 21
-154.596
  0
LINE
  8
0
 10
-78.6438
 20
-154.596
 11
-78.8353
 21
-154.703
  0
LINE
  8
0
 10
-78.8353
 20
-154.703
 11
-78.9847
 21
-154.842
  0
LINE
  8
0
 10
-78.9847
 20
-154.842
 11
-79.101
 21
-155.019
  0
LINE
  8
0
 10
-79.101
 20
-155.019
 11
-79.1842
 21
-155.231
  0
LINE
  8
0
 10
-79.1842
 20
-155.231
 11
-79.2343
 21
-155.48
  0
LINE
  8
0
 10
-79.2343
 20
-155.48
 11
-80.3793
 21
-155.378
  0
LINE
  8
0
 10
-80.3793
 20
-155.378
 11
-80.11
 21
-154.61
  0
LINE
  8
0
 10
-80.11
 20
-154.61
 11
-79.5813
 21
-154.062
  0
LINE
  8
0
 10
-79.5813
 20
-154.062
 11
-78.793
 21
-153.733
  0
LINE
  8
0
 10
-78.793
 20
-153.733
 11
-77.7453
 21
-153.624
  0
LINE
  8
0
 10
-77.7453
 20
-153.624
 11
-77.1646
 21
-153.659
  0
LINE
  8
0
 10
-77.1646
 20
-153.659
 11
-76.6605
 21
-153.767
  0
LINE
  8
0
 10
-76.6605
 20
-153.767
 11
-76.2331
 21
-153.945
  0
LINE
  8
0
 10
-76.2331
 20
-153.945
 11
-75.8822
 21
-154.195
  0
LINE
  8
0
 10
-75.8822
 20
-154.195
 11
-75.6088
 21
-154.512
  0
LINE
  8
0
 10
-75.6088
 20
-154.512
 11
-75.4135
 21
-154.892
  0
LINE
  8
0
 10
-75.4135
 20
-154.892
 11
-75.2963
 21
-155.337
  0
LINE
  8
0
 10
-75.2963
 20
-155.337
 11
-75.2572
 21
-155.845
  0
LINE
  8
0
 10
-75.2572
 20
-155.845
 11
-75.2572
 21
-158.689
  0
LINE
  8
0
 10
-75.2572
 20
-158.689
 11
-75.2493
 21
-158.918
  0
LINE
  8
0
 10
-75.2493
 20
-158.918
 11
-75.2255
 21
-159.116
  0
LINE
  8
0
 10
-75.2255
 20
-159.116
 11
-75.1858
 21
-159.285
  0
LINE
  8
0
 10
-75.1858
 20
-159.285
 11
-75.1302
 21
-159.424
  0
LINE
  8
0
 10
-75.1302
 20
-159.424
 11
-75.0519
 21
-159.532
  0
LINE
  8
0
 10
-75.0519
 20
-159.532
 11
-74.9447
 21
-159.609
  0
LINE
  8
0
 10
-74.9447
 20
-159.609
 11
-74.8089
 21
-159.655
  0
LINE
  8
0
 10
-74.8089
 20
-159.655
 11
-74.6443
 21
-159.671
  0
LINE
  8
0
 10
-74.6443
 20
-159.671
 11
-74.5626
 21
-159.668
  0
LINE
  8
0
 10
-74.5626
 20
-159.668
 11
-74.4758
 21
-159.66
  0
LINE
  8
0
 10
-74.4758
 20
-159.66
 11
-74.3836
 21
-159.647
  0
LINE
  8
0
 10
-74.3836
 20
-159.647
 11
-74.2863
 21
-159.628
  0
LINE
  8
0
 10
-74.2863
 20
-159.628
 11
-74.2863
 21
-160.311
  0
LINE
  8
0
 10
-74.2863
 20
-160.311
 11
-74.4944
 21
-160.353
  0
LINE
  8
0
 10
-74.4944
 20
-160.353
 11
-74.7047
 21
-160.383
  0
LINE
  8
0
 10
-74.7047
 20
-160.383
 11
-74.9174
 21
-160.402
  0
LINE
  8
0
 10
-74.9174
 20
-160.402
 11
-75.1322
 21
-160.408
  0
LINE
  8
0
 10
-75.1322
 20
-160.408
 11
-75.4156
 21
-160.388
  0
LINE
  8
0
 10
-75.4156
 20
-160.388
 11
-75.6575
 21
-160.328
  0
LINE
  8
0
 10
-75.6575
 20
-160.328
 11
-75.8581
 21
-160.228
  0
LINE
  8
0
 10
-75.8581
 20
-160.228
 11
-76.0172
 21
-160.089
  0
LINE
  8
0
 10
-76.0172
 20
-160.089
 11
-76.1407
 21
-159.906
  0
LINE
  8
0
 10
-76.1407
 20
-159.906
 11
-76.234
 21
-159.678
  0
LINE
  8
0
 10
-76.234
 20
-159.678
 11
-76.2972
 21
-159.405
  0
LINE
  8
0
 10
-76.2972
 20
-159.405
 11
-76.3302
 21
-159.087
  0
LINE
  8
0
 10
-76.3302
 20
-159.087
 11
-76.3663
 21
-159.087
  0
LINE
  8
0
 10
-76.3663
 20
-159.087
 11
-76.5842
 21
-159.438
  0
LINE
  8
0
 10
-76.5842
 20
-159.438
 11
-76.8192
 21
-159.733
  0
LINE
  8
0
 10
-76.8192
 20
-159.733
 11
-77.0712
 21
-159.973
  0
LINE
  8
0
 10
-77.0712
 20
-159.973
 11
-77.3403
 21
-160.158
  0
LINE
  8
0
 10
-77.3403
 20
-160.158
 11
-77.6322
 21
-160.295
  0
LINE
  8
0
 10
-77.6322
 20
-160.295
 11
-77.9543
 21
-160.393
  0
LINE
  8
0
 10
-77.9543
 20
-160.393
 11
-78.3062
 21
-160.452
  0
LINE
  8
0
 10
-78.3062
 20
-160.452
 11
-78.6882
 21
-160.472
  0
LINE
  8
0
 10
-78.6882
 20
-160.472
 11
-79.1516
 21
-160.439
  0
LINE
  8
0
 10
-78.1441
 20
-159.631
 11
-77.8695
 21
-159.58
  0
LINE
  8
0
 10
-77.8695
 20
-159.58
 11
-77.6116
 21
-159.493
  0
LINE
  8
0
 10
-77.6116
 20
-159.493
 11
-77.3703
 21
-159.373
  0
LINE
  8
0
 10
-77.3703
 20
-159.373
 11
-77.1496
 21
-159.222
  0
LINE
  8
0
 10
-77.1496
 20
-159.222
 11
-76.9535
 21
-159.045
  0
LINE
  8
0
 10
-76.9535
 20
-159.045
 11
-76.7821
 21
-158.843
  0
LINE
  8
0
 10
-76.7821
 20
-158.843
 11
-76.6353
 21
-158.616
  0
LINE
  8
0
 10
-76.6353
 20
-158.616
 11
-76.5176
 21
-158.373
  0
LINE
  8
0
 10
-76.5176
 20
-158.373
 11
-76.4335
 21
-158.128
  0
LINE
  8
0
 10
-76.4335
 20
-158.128
 11
-76.3831
 21
-157.878
  0
LINE
  8
0
 10
-76.3831
 20
-157.878
 11
-76.3663
 21
-157.626
  0
LINE
  8
0
 10
-76.3663
 20
-157.626
 11
-76.3663
 21
-157.08
  0
LINE
  8
0
 10
-76.3663
 20
-157.08
 11
-77.5582
 21
-157.105
  0
LINE
  8
0
 10
-77.5582
 20
-157.105
 11
-77.9191
 21
-157.119
  0
LINE
  8
0
 10
-77.9191
 20
-157.119
 11
-78.2335
 21
-157.15
  0
LINE
  8
0
 10
-78.2335
 20
-157.15
 11
-78.5016
 21
-157.199
  0
LINE
  8
0
 10
-78.5016
 20
-157.199
 11
-78.7233
 21
-157.264
  0
LINE
  8
0
 10
-78.7233
 20
-157.264
 11
-78.9097
 21
-157.347
  0
LINE
  8
0
 10
-78.9097
 20
-157.347
 11
-79.0732
 21
-157.451
  0
LINE
  8
0
 10
-79.0732
 20
-157.451
 11
-79.2137
 21
-157.574
  0
LINE
  8
0
 10
-79.2137
 20
-157.574
 11
-79.3313
 21
-157.718
  0
LINE
  8
0
 10
-79.3313
 20
-157.718
 11
-79.4236
 21
-157.883
  0
LINE
  8
0
 10
-79.4236
 20
-157.883
 11
-79.4895
 21
-158.071
  0
LINE
  8
0
 10
-79.4895
 20
-158.071
 11
-79.5291
 21
-158.284
  0
LINE
  8
0
 10
-79.5291
 20
-158.284
 11
-79.5423
 21
-158.521
  0
LINE
  8
0
 10
-79.5423
 20
-158.521
 11
-79.5243
 21
-158.775
  0
LINE
  8
0
 10
-79.5243
 20
-158.775
 11
-79.4705
 21
-158.999
  0
LINE
  8
0
 10
-79.4705
 20
-158.999
 11
-79.3808
 21
-159.192
  0
LINE
  8
0
 10
-79.3808
 20
-159.192
 11
-79.2552
 21
-159.355
  0
LINE
  8
0
 10
-79.2552
 20
-159.355
 11
-79.096
 21
-159.483
  0
LINE
  8
0
 10
-79.096
 20
-159.483
 11
-78.9062
 21
-159.575
  0
LINE
  8
0
 10
-78.9062
 20
-159.575
 11
-78.686
 21
-159.63
  0
LINE
  8
0
 10
-78.686
 20
-159.63
 11
-78.4353
 21
-159.649
  0
LINE
  8
0
 10
-78.4353
 20
-159.649
 11
-78.1441
 21
-159.631
  0
LINE
  8
0
 10
64.7793
 20
-160.446
 11
64.2669
 21
-160.37
  0
LINE
  8
0
 10
64.2669
 20
-160.37
 11
63.8253
 21
-160.244
  0
LINE
  8
0
 10
63.8253
 20
-160.244
 11
63.4544
 21
-160.067
  0
LINE
  8
0
 10
63.4544
 20
-160.067
 11
63.1482
 21
-159.835
  0
LINE
  8
0
 10
63.1482
 20
-159.835
 11
62.9007
 21
-159.547
  0
LINE
  8
0
 10
62.9007
 20
-159.547
 11
62.7117
 21
-159.203
  0
LINE
  8
0
 10
62.7117
 20
-159.203
 11
62.5814
 21
-158.802
  0
LINE
  8
0
 10
62.5814
 20
-158.802
 11
63.5504
 21
-158.613
  0
LINE
  8
0
 10
63.5504
 20
-158.613
 11
63.6397
 21
-158.86
  0
LINE
  8
0
 10
63.6397
 20
-158.86
 11
63.7667
 21
-159.072
  0
LINE
  8
0
 10
63.7667
 20
-159.072
 11
63.9312
 21
-159.249
  0
LINE
  8
0
 10
63.9312
 20
-159.249
 11
64.1334
 21
-159.39
  0
LINE
  8
0
 10
64.1334
 20
-159.39
 11
64.3764
 21
-159.498
  0
LINE
  8
0
 10
64.3764
 20
-159.498
 11
64.6624
 21
-159.575
  0
LINE
  8
0
 10
64.6624
 20
-159.575
 11
64.9914
 21
-159.621
  0
LINE
  8
0
 10
64.9914
 20
-159.621
 11
65.3634
 21
-159.637
  0
LINE
  8
0
 10
65.3634
 20
-159.637
 11
65.7562
 21
-159.621
  0
LINE
  8
0
 10
65.7562
 20
-159.621
 11
66.0924
 21
-159.572
  0
LINE
  8
0
 10
66.0924
 20
-159.572
 11
66.3722
 21
-159.492
  0
LINE
  8
0
 10
66.3722
 20
-159.492
 11
66.5954
 21
-159.379
  0
LINE
  8
0
 10
66.5954
 20
-159.379
 11
66.7661
 21
-159.234
  0
LINE
  8
0
 10
66.7661
 20
-159.234
 11
66.8879
 21
-159.056
  0
LINE
  8
0
 10
66.8879
 20
-159.056
 11
66.9611
 21
-158.847
  0
LINE
  8
0
 10
66.9611
 20
-158.847
 11
66.9854
 21
-158.605
  0
LINE
  8
0
 10
66.9854
 20
-158.605
 11
66.9686
 21
-158.418
  0
LINE
  8
0
 10
66.9686
 20
-158.418
 11
66.9179
 21
-158.25
  0
LINE
  8
0
 10
66.9179
 20
-158.25
 11
66.8336
 21
-158.1
  0
LINE
  8
0
 10
66.8336
 20
-158.1
 11
66.7154
 21
-157.969
  0
LINE
  8
0
 10
66.7154
 20
-157.969
 11
66.5597
 21
-157.852
  0
LINE
  8
0
 10
66.5597
 20
-157.852
 11
66.3627
 21
-157.745
  0
LINE
  8
0
 10
66.3627
 20
-157.745
 11
66.1242
 21
-157.65
  0
LINE
  8
0
 10
66.1242
 20
-157.65
 11
65.8444
 21
-157.565
  0
LINE
  8
0
 10
65.8444
 20
-157.565
 11
65.0534
 21
-157.357
  0
LINE
  8
0
 10
65.0534
 20
-157.357
 11
64.6122
 21
-157.235
  0
LINE
  8
0
 10
64.6122
 20
-157.235
 11
64.2397
 21
-157.114
  0
LINE
  8
0
 10
64.2397
 20
-157.114
 11
63.9357
 21
-156.995
  0
LINE
  8
0
 10
63.9357
 20
-156.995
 11
63.7004
 21
-156.877
  0
LINE
  8
0
 10
63.7004
 20
-156.877
 11
63.5104
 21
-156.752
  0
LINE
  8
0
 10
63.5104
 20
-156.752
 11
63.3422
 21
-156.616
  0
LINE
  8
0
 10
63.3422
 20
-156.616
 11
63.1959
 21
-156.466
  0
LINE
  8
0
 10
63.1959
 20
-156.466
 11
63.0714
 21
-156.305
  0
LINE
  8
0
 10
63.0714
 20
-156.305
 11
62.9721
 21
-156.127
  0
LINE
  8
0
 10
62.9721
 20
-156.127
 11
62.9012
 21
-155.93
  0
LINE
  8
0
 10
62.9012
 20
-155.93
 11
62.8586
 21
-155.713
  0
LINE
  8
0
 10
62.8586
 20
-155.713
 11
62.8444
 21
-155.478
  0
LINE
  8
0
 10
62.8444
 20
-155.478
 11
62.8848
 21
-155.052
  0
LINE
  8
0
 10
62.8848
 20
-155.052
 11
63.0059
 21
-154.68
  0
LINE
  8
0
 10
63.0059
 20
-154.68
 11
63.2078
 21
-154.362
  0
LINE
  8
0
 10
63.2078
 20
-154.362
 11
63.4904
 21
-154.098
  0
LINE
  8
0
 10
63.4904
 20
-154.098
 11
63.8504
 21
-153.89
  0
LINE
  8
0
 10
63.8504
 20
-153.89
 11
64.2844
 21
-153.742
  0
LINE
  8
0
 10
64.2844
 20
-153.742
 11
64.7924
 21
-153.653
  0
LINE
  8
0
 10
64.7924
 20
-153.653
 11
65.3744
 21
-153.624
  0
LINE
  8
0
 10
65.3744
 20
-153.624
 11
65.8943
 21
-153.648
  0
LINE
  8
0
 10
65.8943
 20
-153.648
 11
66.3579
 21
-153.72
  0
LINE
  8
0
 10
66.3579
 20
-153.72
 11
66.7653
 21
-153.84
  0
LINE
  8
0
 10
66.7653
 20
-153.84
 11
67.1164
 21
-154.008
  0
LINE
  8
0
 10
67.1164
 20
-154.008
 11
67.4098
 21
-154.229
  0
LINE
  8
0
 10
67.4098
 20
-154.229
 11
67.6439
 21
-154.508
  0
LINE
  8
0
 10
67.6439
 20
-154.508
 11
67.8188
 21
-154.844
  0
LINE
  8
0
 10
67.8188
 20
-154.844
 11
67.9344
 21
-155.239
  0
LINE
  8
0
 10
67.9344
 20
-155.239
 11
66.9474
 21
-155.361
  0
LINE
  8
0
 10
66.9474
 20
-155.361
 11
66.882
 21
-155.154
  0
LINE
  8
0
 10
66.882
 20
-155.154
 11
66.7777
 21
-154.973
  0
LINE
  8
0
 10
66.7777
 20
-154.973
 11
66.6345
 21
-154.818
  0
LINE
  8
0
 10
66.6345
 20
-154.818
 11
66.4524
 21
-154.688
  0
LINE
  8
0
 10
66.4524
 20
-154.688
 11
66.2343
 21
-154.585
  0
LINE
  8
0
 10
66.2343
 20
-154.585
 11
65.9819
 21
-154.512
  0
LINE
  8
0
 10
65.9819
 20
-154.512
 11
65.6953
 21
-154.467
  0
LINE
  8
0
 10
65.6953
 20
-154.467
 11
65.3744
 21
-154.453
  0
LINE
  8
0
 10
65.3744
 20
-154.453
 11
65.024
 21
-154.467
  0
LINE
  8
0
 10
65.024
 20
-154.467
 11
64.7227
 21
-154.51
  0
LINE
  8
0
 10
64.7227
 20
-154.51
 11
64.4705
 21
-154.58
  0
LINE
  8
0
 10
64.4705
 20
-154.58
 11
64.2674
 21
-154.68
  0
LINE
  8
0
 10
64.2674
 20
-154.68
 11
64.1117
 21
-154.808
  0
LINE
  8
0
 10
64.1117
 20
-154.808
 11
64.0004
 21
-154.965
  0
LINE
  8
0
 10
64.0004
 20
-154.965
 11
63.9337
 21
-155.152
  0
LINE
  8
0
 10
63.9337
 20
-155.152
 11
63.9114
 21
-155.368
  0
LINE
  8
0
 10
63.9114
 20
-155.368
 11
63.9206
 21
-155.503
  0
LINE
  8
0
 10
63.9206
 20
-155.503
 11
63.9482
 21
-155.625
  0
LINE
  8
0
 10
63.9482
 20
-155.625
 11
63.9941
 21
-155.736
  0
LINE
  8
0
 10
63.9941
 20
-155.736
 11
64.0584
 21
-155.834
  0
LINE
  8
0
 10
64.0584
 20
-155.834
 11
64.1407
 21
-155.922
  0
LINE
  8
0
 10
64.1407
 20
-155.922
 11
64.2407
 21
-156.003
  0
LINE
  8
0
 10
64.2407
 20
-156.003
 11
64.3582
 21
-156.078
  0
LINE
  8
0
 10
64.3582
 20
-156.078
 11
64.4934
 21
-156.146
  0
LINE
  8
0
 10
64.4934
 20
-156.146
 11
64.6777
 21
-156.216
  0
LINE
  8
0
 10
64.6777
 20
-156.216
 11
64.9417
 21
-156.298
  0
LINE
  8
0
 10
64.9417
 20
-156.298
 11
65.2852
 21
-156.393
  0
LINE
  8
0
 10
65.2852
 20
-156.393
 11
65.7084
 21
-156.5
  0
LINE
  8
0
 10
65.7084
 20
-156.5
 11
66.1162
 21
-156.608
  0
LINE
  8
0
 10
66.1162
 20
-156.608
 11
66.4627
 21
-156.711
  0
LINE
  8
0
 10
66.4627
 20
-156.711
 11
66.7477
 21
-156.811
  0
LINE
  8
0
 10
66.7477
 20
-156.811
 11
66.9714
 21
-156.907
  0
LINE
  8
0
 10
66.9714
 20
-156.907
 11
67.1547
 21
-157.003
  0
LINE
  8
0
 10
67.1547
 20
-157.003
 11
67.3177
 21
-157.104
  0
LINE
  8
0
 10
67.3177
 20
-157.104
 11
67.4602
 21
-157.21
  0
LINE
  8
0
 10
67.4602
 20
-157.21
 11
67.5824
 21
-157.321
  0
LINE
  8
0
 10
67.5824
 20
-157.321
 11
67.688
 21
-157.438
  0
LINE
  8
0
 10
67.688
 20
-157.438
 11
67.7809
 21
-157.564
  0
LINE
  8
0
 10
67.7809
 20
-157.564
 11
67.8611
 21
-157.7
  0
LINE
  8
0
 10
67.8611
 20
-157.7
 11
67.9284
 21
-157.844
  0
LINE
  8
0
 10
67.9284
 20
-157.844
 11
67.9822
 21
-157.997
  0
LINE
  8
0
 10
67.9822
 20
-157.997
 11
68.0207
 21
-158.161
  0
LINE
  8
0
 10
68.0207
 20
-158.161
 11
68.0437
 21
-158.335
  0
LINE
  8
0
 10
68.0437
 20
-158.335
 11
68.0514
 21
-158.52
  0
LINE
  8
0
 10
68.0514
 20
-158.52
 11
68.0072
 21
-158.961
  0
LINE
  8
0
 10
68.0072
 20
-158.961
 11
67.8744
 21
-159.349
  0
LINE
  8
0
 10
67.8744
 20
-159.349
 11
67.6532
 21
-159.683
  0
LINE
  8
0
 10
67.6532
 20
-159.683
 11
67.3434
 21
-159.964
  0
LINE
  8
0
 10
67.3434
 20
-159.964
 11
66.9545
 21
-160.186
  0
LINE
  8
0
 10
66.9545
 20
-160.186
 11
66.4947
 21
-160.345
  0
LINE
  8
0
 10
66.4947
 20
-160.345
 11
65.964
 21
-160.44
  0
LINE
  8
0
 10
65.964
 20
-160.44
 11
65.3624
 21
-160.472
  0
LINE
  8
0
 10
65.3624
 20
-160.472
 11
64.7793
 21
-160.446
  0
LINE
  8
0
 10
45.3133
 20
-160.439
 11
44.9114
 21
-160.34
  0
LINE
  8
0
 10
44.9114
 20
-160.34
 11
44.5708
 21
-160.176
  0
LINE
  8
0
 10
44.5708
 20
-160.176
 11
44.2916
 21
-159.946
  0
LINE
  8
0
 10
44.2916
 20
-159.946
 11
44.0742
 21
-159.658
  0
LINE
  8
0
 10
44.0742
 20
-159.658
 11
43.9189
 21
-159.322
  0
LINE
  8
0
 10
43.9189
 20
-159.322
 11
43.8257
 21
-158.936
  0
LINE
  8
0
 10
43.8257
 20
-158.936
 11
43.7946
 21
-158.502
  0
LINE
  8
0
 10
43.7946
 20
-158.502
 11
43.8365
 21
-158.018
  0
LINE
  8
0
 10
43.8365
 20
-158.018
 11
43.9621
 21
-157.593
  0
LINE
  8
0
 10
43.9621
 20
-157.593
 11
44.1715
 21
-157.229
  0
LINE
  8
0
 10
44.1715
 20
-157.229
 11
44.4646
 21
-156.924
  0
LINE
  8
0
 10
44.4646
 20
-156.924
 11
44.8509
 21
-156.68
  0
LINE
  8
0
 10
44.8509
 20
-156.68
 11
45.3399
 21
-156.501
  0
LINE
  8
0
 10
45.3399
 20
-156.501
 11
45.9314
 21
-156.386
  0
LINE
  8
0
 10
45.9314
 20
-156.386
 11
46.6256
 21
-156.336
  0
LINE
  8
0
 10
46.6256
 20
-156.336
 11
48.0986
 21
-156.312
  0
LINE
  8
0
 10
48.0986
 20
-156.312
 11
48.0986
 21
-155.954
  0
LINE
  8
0
 10
48.0986
 20
-155.954
 11
48.0774
 21
-155.581
  0
LINE
  8
0
 10
48.0774
 20
-155.581
 11
48.0139
 21
-155.266
  0
LINE
  8
0
 10
48.0139
 20
-155.266
 11
47.9079
 21
-155.007
  0
LINE
  8
0
 10
47.9079
 20
-155.007
 11
47.7596
 21
-154.806
  0
LINE
  8
0
 10
47.7596
 20
-154.806
 11
47.5659
 21
-154.654
  0
LINE
  8
0
 10
47.5659
 20
-154.654
 11
47.3239
 21
-154.546
  0
LINE
  8
0
 10
47.3239
 20
-154.546
 11
47.0334
 21
-154.48
  0
LINE
  8
0
 10
47.0334
 20
-154.48
 11
46.6946
 21
-154.459
  0
LINE
  8
0
 10
46.6946
 20
-154.459
 11
46.3535
 21
-154.474
  0
LINE
  8
0
 10
46.3535
 20
-154.474
 11
46.0624
 21
-154.52
  0
LINE
  8
0
 10
46.0624
 20
-154.52
 11
45.821
 21
-154.596
  0
LINE
  8
0
 10
45.821
 20
-154.596
 11
45.6296
 21
-154.703
  0
LINE
  8
0
 10
45.6296
 20
-154.703
 11
45.4802
 21
-154.842
  0
LINE
  8
0
 10
45.4802
 20
-154.842
 11
45.3639
 21
-155.019
  0
LINE
  8
0
 10
45.3639
 20
-155.019
 11
45.2807
 21
-155.231
  0
LINE
  8
0
 10
45.2807
 20
-155.231
 11
45.2306
 21
-155.48
  0
LINE
  8
0
 10
45.2306
 20
-155.48
 11
44.0856
 21
-155.378
  0
LINE
  8
0
 10
44.0856
 20
-155.378
 11
44.3549
 21
-154.61
  0
LINE
  8
0
 10
44.3549
 20
-154.61
 11
44.8836
 21
-154.062
  0
LINE
  8
0
 10
44.8836
 20
-154.062
 11
45.6719
 21
-153.733
  0
LINE
  8
0
 10
45.6719
 20
-153.733
 11
46.7196
 21
-153.624
  0
LINE
  8
0
 10
46.7196
 20
-153.624
 11
47.3003
 21
-153.659
  0
LINE
  8
0
 10
47.3003
 20
-153.659
 11
47.8044
 21
-153.767
  0
LINE
  8
0
 10
47.8044
 20
-153.767
 11
48.2318
 21
-153.945
  0
LINE
  8
0
 10
48.2318
 20
-153.945
 11
48.5826
 21
-154.195
  0
LINE
  8
0
 10
48.5826
 20
-154.195
 11
48.856
 21
-154.512
  0
LINE
  8
0
 10
48.856
 20
-154.512
 11
49.0514
 21
-154.892
  0
LINE
  8
0
 10
49.0514
 20
-154.892
 11
49.1685
 21
-155.337
  0
LINE
  8
0
 10
49.1685
 20
-155.337
 11
49.2076
 21
-155.845
  0
LINE
  8
0
 10
49.2076
 20
-155.845
 11
49.2076
 21
-158.689
  0
LINE
  8
0
 10
49.2076
 20
-158.689
 11
49.2155
 21
-158.918
  0
LINE
  8
0
 10
49.2155
 20
-158.918
 11
49.2394
 21
-159.116
  0
LINE
  8
0
 10
49.2394
 20
-159.116
 11
49.2791
 21
-159.285
  0
LINE
  8
0
 10
49.2791
 20
-159.285
 11
49.3346
 21
-159.424
  0
LINE
  8
0
 10
49.3346
 20
-159.424
 11
49.413
 21
-159.532
  0
LINE
  8
0
 10
49.413
 20
-159.532
 11
49.5201
 21
-159.609
  0
LINE
  8
0
 10
49.5201
 20
-159.609
 11
49.656
 21
-159.655
  0
LINE
  8
0
 10
49.656
 20
-159.655
 11
49.8206
 21
-159.671
  0
LINE
  8
0
 10
49.8206
 20
-159.671
 11
49.9022
 21
-159.668
  0
LINE
  8
0
 10
49.9022
 20
-159.668
 11
49.9891
 21
-159.66
  0
LINE
  8
0
 10
49.9891
 20
-159.66
 11
50.0812
 21
-159.647
  0
LINE
  8
0
 10
50.0812
 20
-159.647
 11
50.1786
 21
-159.628
  0
LINE
  8
0
 10
50.1786
 20
-159.628
 11
50.1786
 21
-160.311
  0
LINE
  8
0
 10
50.1786
 20
-160.311
 11
49.9705
 21
-160.353
  0
LINE
  8
0
 10
49.9705
 20
-160.353
 11
49.7601
 21
-160.383
  0
LINE
  8
0
 10
49.7601
 20
-160.383
 11
49.5475
 21
-160.402
  0
LINE
  8
0
 10
49.5475
 20
-160.402
 11
49.3326
 21
-160.408
  0
LINE
  8
0
 10
49.3326
 20
-160.408
 11
49.0493
 21
-160.388
  0
LINE
  8
0
 10
49.0493
 20
-160.388
 11
48.8074
 21
-160.328
  0
LINE
  8
0
 10
48.8074
 20
-160.328
 11
48.6068
 21
-160.228
  0
LINE
  8
0
 10
48.6068
 20
-160.228
 11
48.4476
 21
-160.089
  0
LINE
  8
0
 10
48.4476
 20
-160.089
 11
48.3242
 21
-159.906
  0
LINE
  8
0
 10
48.3242
 20
-159.906
 11
48.2309
 21
-159.678
  0
LINE
  8
0
 10
48.2309
 20
-159.678
 11
48.1677
 21
-159.405
  0
LINE
  8
0
 10
48.1677
 20
-159.405
 11
48.1346
 21
-159.087
  0
LINE
  8
0
 10
48.1346
 20
-159.087
 11
48.0986
 21
-159.087
  0
LINE
  8
0
 10
48.0986
 20
-159.087
 11
47.8806
 21
-159.438
  0
LINE
  8
0
 10
47.8806
 20
-159.438
 11
47.6456
 21
-159.733
  0
LINE
  8
0
 10
47.6456
 20
-159.733
 11
47.3936
 21
-159.973
  0
LINE
  8
0
 10
47.3936
 20
-159.973
 11
47.1246
 21
-160.158
  0
LINE
  8
0
 10
47.1246
 20
-160.158
 11
46.8326
 21
-160.295
  0
LINE
  8
0
 10
46.8326
 20
-160.295
 11
46.5106
 21
-160.393
  0
LINE
  8
0
 10
46.5106
 20
-160.393
 11
46.1586
 21
-160.452
  0
LINE
  8
0
 10
46.1586
 20
-160.452
 11
45.7766
 21
-160.472
  0
LINE
  8
0
 10
45.7766
 20
-160.472
 11
45.3133
 21
-160.439
  0
LINE
  8
0
 10
46.3208
 20
-159.631
 11
46.5954
 21
-159.58
  0
LINE
  8
0
 10
46.5954
 20
-159.58
 11
46.8533
 21
-159.493
  0
LINE
  8
0
 10
46.8533
 20
-159.493
 11
47.0946
 21
-159.373
  0
LINE
  8
0
 10
47.0946
 20
-159.373
 11
47.3153
 21
-159.222
  0
LINE
  8
0
 10
47.3153
 20
-159.222
 11
47.5114
 21
-159.045
  0
LINE
  8
0
 10
47.5114
 20
-159.045
 11
47.6828
 21
-158.843
  0
LINE
  8
0
 10
47.6828
 20
-158.843
 11
47.8296
 21
-158.616
  0
LINE
  8
0
 10
47.8296
 20
-158.616
 11
47.9473
 21
-158.373
  0
LINE
  8
0
 10
47.9473
 20
-158.373
 11
48.0314
 21
-158.128
  0
LINE
  8
0
 10
48.0314
 20
-158.128
 11
48.0818
 21
-157.878
  0
LINE
  8
0
 10
48.0818
 20
-157.878
 11
48.0986
 21
-157.626
  0
LINE
  8
0
 10
48.0986
 20
-157.626
 11
48.0986
 21
-157.08
  0
LINE
  8
0
 10
48.0986
 20
-157.08
 11
46.9066
 21
-157.105
  0
LINE
  8
0
 10
46.9066
 20
-157.105
 11
46.5458
 21
-157.119
  0
LINE
  8
0
 10
46.5458
 20
-157.119
 11
46.2314
 21
-157.15
  0
LINE
  8
0
 10
46.2314
 20
-157.15
 11
45.9633
 21
-157.199
  0
LINE
  8
0
 10
45.9633
 20
-157.199
 11
45.7416
 21
-157.264
  0
LINE
  8
0
 10
45.7416
 20
-157.264
 11
45.5551
 21
-157.347
  0
LINE
  8
0
 10
45.5551
 20
-157.347
 11
45.3916
 21
-157.451
  0
LINE
  8
0
 10
45.3916
 20
-157.451
 11
45.2511
 21
-157.574
  0
LINE
  8
0
 10
45.2511
 20
-157.574
 11
45.1336
 21
-157.718
  0
LINE
  8
0
 10
45.1336
 20
-157.718
 11
45.0413
 21
-157.883
  0
LINE
  8
0
 10
45.0413
 20
-157.883
 11
44.9754
 21
-158.071
  0
LINE
  8
0
 10
44.9754
 20
-158.071
 11
44.9358
 21
-158.284
  0
LINE
  8
0
 10
44.9358
 20
-158.284
 11
44.9226
 21
-158.521
  0
LINE
  8
0
 10
44.9226
 20
-158.521
 11
44.9406
 21
-158.775
  0
LINE
  8
0
 10
44.9406
 20
-158.775
 11
44.9944
 21
-158.999
  0
LINE
  8
0
 10
44.9944
 20
-158.999
 11
45.084
 21
-159.192
  0
LINE
  8
0
 10
45.084
 20
-159.192
 11
45.2096
 21
-159.355
  0
LINE
  8
0
 10
45.2096
 20
-159.355
 11
45.3689
 21
-159.483
  0
LINE
  8
0
 10
45.3689
 20
-159.483
 11
45.5586
 21
-159.575
  0
LINE
  8
0
 10
45.5586
 20
-159.575
 11
45.7789
 21
-159.63
  0
LINE
  8
0
 10
45.7789
 20
-159.63
 11
46.0296
 21
-159.649
  0
LINE
  8
0
 10
46.0296
 20
-159.649
 11
46.3208
 21
-159.631
  0
LINE
  8
0
 10
-38.0117
 20
-160.446
 11
-38.5241
 21
-160.37
  0
LINE
  8
0
 10
-38.5241
 20
-160.37
 11
-38.9657
 21
-160.244
  0
LINE
  8
0
 10
-38.9657
 20
-160.244
 11
-39.3366
 21
-160.067
  0
LINE
  8
0
 10
-39.3366
 20
-160.067
 11
-39.6428
 21
-159.835
  0
LINE
  8
0
 10
-39.6428
 20
-159.835
 11
-39.8904
 21
-159.547
  0
LINE
  8
0
 10
-39.8904
 20
-159.547
 11
-40.0793
 21
-159.203
  0
LINE
  8
0
 10
-40.0793
 20
-159.203
 11
-40.2096
 21
-158.802
  0
LINE
  8
0
 10
-40.2096
 20
-158.802
 11
-39.2406
 21
-158.613
  0
LINE
  8
0
 10
-39.2406
 20
-158.613
 11
-39.1513
 21
-158.86
  0
LINE
  8
0
 10
-39.1513
 20
-158.86
 11
-39.0244
 21
-159.072
  0
LINE
  8
0
 10
-39.0244
 20
-159.072
 11
-38.8598
 21
-159.249
  0
LINE
  8
0
 10
-38.8598
 20
-159.249
 11
-38.6576
 21
-159.39
  0
LINE
  8
0
 10
-38.6576
 20
-159.39
 11
-38.4146
 21
-159.498
  0
LINE
  8
0
 10
-38.4146
 20
-159.498
 11
-38.1286
 21
-159.575
  0
LINE
  8
0
 10
-38.1286
 20
-159.575
 11
-37.7996
 21
-159.621
  0
LINE
  8
0
 10
-37.7996
 20
-159.621
 11
-37.4276
 21
-159.637
  0
LINE
  8
0
 10
-37.4276
 20
-159.637
 11
-37.0349
 21
-159.621
  0
LINE
  8
0
 10
-37.0349
 20
-159.621
 11
-36.6986
 21
-159.572
  0
LINE
  8
0
 10
-36.6986
 20
-159.572
 11
-36.4189
 21
-159.492
  0
LINE
  8
0
 10
-36.4189
 20
-159.492
 11
-36.1956
 21
-159.379
  0
LINE
  8
0
 10
-36.1956
 20
-159.379
 11
-36.025
 21
-159.234
  0
LINE
  8
0
 10
-36.025
 20
-159.234
 11
-35.9031
 21
-159.056
  0
LINE
  8
0
 10
-35.9031
 20
-159.056
 11
-35.83
 21
-158.847
  0
LINE
  8
0
 10
-35.83
 20
-158.847
 11
-35.8056
 21
-158.605
  0
LINE
  8
0
 10
-35.8056
 20
-158.605
 11
-35.8225
 21
-158.418
  0
LINE
  8
0
 10
-35.8225
 20
-158.418
 11
-35.8731
 21
-158.25
  0
LINE
  8
0
 10
-35.8731
 20
-158.25
 11
-35.9575
 21
-158.1
  0
LINE
  8
0
 10
-35.9575
 20
-158.1
 11
-36.0756
 21
-157.969
  0
LINE
  8
0
 10
-36.0756
 20
-157.969
 11
-36.2313
 21
-157.852
  0
LINE
  8
0
 10
-36.2313
 20
-157.852
 11
-36.4283
 21
-157.745
  0
LINE
  8
0
 10
-36.4283
 20
-157.745
 11
-36.6668
 21
-157.65
  0
LINE
  8
0
 10
-36.6668
 20
-157.65
 11
-36.9466
 21
-157.565
  0
LINE
  8
0
 10
-36.9466
 20
-157.565
 11
-37.7376
 21
-157.357
  0
LINE
  8
0
 10
-37.7376
 20
-157.357
 11
-38.1788
 21
-157.235
  0
LINE
  8
0
 10
-38.1788
 20
-157.235
 11
-38.5513
 21
-157.114
  0
LINE
  8
0
 10
-38.5513
 20
-157.114
 11
-38.8553
 21
-156.995
  0
LINE
  8
0
 10
-38.8553
 20
-156.995
 11
-39.0906
 21
-156.877
  0
LINE
  8
0
 10
-39.0906
 20
-156.877
 11
-39.2807
 21
-156.752
  0
LINE
  8
0
 10
-39.2807
 20
-156.752
 11
-39.4489
 21
-156.616
  0
LINE
  8
0
 10
-39.4489
 20
-156.616
 11
-39.5952
 21
-156.466
  0
LINE
  8
0
 10
-39.5952
 20
-156.466
 11
-39.7196
 21
-156.305
  0
LINE
  8
0
 10
-39.7196
 20
-156.305
 11
-39.8189
 21
-156.127
  0
LINE
  8
0
 10
-39.8189
 20
-156.127
 11
-39.8898
 21
-155.93
  0
LINE
  8
0
 10
-39.8898
 20
-155.93
 11
-39.9324
 21
-155.713
  0
LINE
  8
0
 10
-39.9324
 20
-155.713
 11
-39.9466
 21
-155.478
  0
LINE
  8
0
 10
-39.9466
 20
-155.478
 11
-39.9062
 21
-155.052
  0
LINE
  8
0
 10
-39.9062
 20
-155.052
 11
-39.7851
 21
-154.68
  0
LINE
  8
0
 10
-39.7851
 20
-154.68
 11
-39.5832
 21
-154.362
  0
LINE
  8
0
 10
-39.5832
 20
-154.362
 11
-39.3006
 21
-154.098
  0
LINE
  8
0
 10
-39.3006
 20
-154.098
 11
-38.9406
 21
-153.89
  0
LINE
  8
0
 10
-38.9406
 20
-153.89
 11
-38.5066
 21
-153.742
  0
LINE
  8
0
 10
-38.5066
 20
-153.742
 11
-37.9986
 21
-153.653
  0
LINE
  8
0
 10
-37.9986
 20
-153.653
 11
-37.4166
 21
-153.624
  0
LINE
  8
0
 10
-37.4166
 20
-153.624
 11
-36.8967
 21
-153.648
  0
LINE
  8
0
 10
-36.8967
 20
-153.648
 11
-36.4331
 21
-153.72
  0
LINE
  8
0
 10
-36.4331
 20
-153.72
 11
-36.0257
 21
-153.84
  0
LINE
  8
0
 10
-36.0257
 20
-153.84
 11
-35.6746
 21
-154.008
  0
LINE
  8
0
 10
-35.6746
 20
-154.008
 11
-35.3812
 21
-154.229
  0
LINE
  8
0
 10
-35.3812
 20
-154.229
 11
-35.1471
 21
-154.508
  0
LINE
  8
0
 10
-35.1471
 20
-154.508
 11
-34.9722
 21
-154.844
  0
LINE
  8
0
 10
-34.9722
 20
-154.844
 11
-34.8566
 21
-155.239
  0
LINE
  8
0
 10
-34.8566
 20
-155.239
 11
-35.8436
 21
-155.361
  0
LINE
  8
0
 10
-35.8436
 20
-155.361
 11
-35.909
 21
-155.154
  0
LINE
  8
0
 10
-35.909
 20
-155.154
 11
-36.0134
 21
-154.973
  0
LINE
  8
0
 10
-36.0134
 20
-154.973
 11
-36.1565
 21
-154.818
  0
LINE
  8
0
 10
-36.1565
 20
-154.818
 11
-36.3386
 21
-154.688
  0
LINE
  8
0
 10
-36.3386
 20
-154.688
 11
-36.5567
 21
-154.585
  0
LINE
  8
0
 10
-36.5567
 20
-154.585
 11
-36.8091
 21
-154.512
  0
LINE
  8
0
 10
-36.8091
 20
-154.512
 11
-37.0957
 21
-154.467
  0
LINE
  8
0
 10
-37.0957
 20
-154.467
 11
-37.4166
 21
-154.453
  0
LINE
  8
0
 10
-37.4166
 20
-154.453
 11
-37.767
 21
-154.467
  0
LINE
  8
0
 10
-37.767
 20
-154.467
 11
-38.0683
 21
-154.51
  0
LINE
  8
0
 10
-38.0683
 20
-154.51
 11
-38.3205
 21
-154.58
  0
LINE
  8
0
 10
-38.3205
 20
-154.58
 11
-38.5236
 21
-154.68
  0
LINE
  8
0
 10
-38.5236
 20
-154.68
 11
-38.6794
 21
-154.808
  0
LINE
  8
0
 10
-38.6794
 20
-154.808
 11
-38.7906
 21
-154.965
  0
LINE
  8
0
 10
-38.7906
 20
-154.965
 11
-38.8573
 21
-155.152
  0
LINE
  8
0
 10
-38.8573
 20
-155.152
 11
-38.8796
 21
-155.368
  0
LINE
  8
0
 10
-38.8796
 20
-155.368
 11
-38.8704
 21
-155.503
  0
LINE
  8
0
 10
-38.8704
 20
-155.503
 11
-38.8428
 21
-155.625
  0
LINE
  8
0
 10
-38.8428
 20
-155.625
 11
-38.7969
 21
-155.736
  0
LINE
  8
0
 10
-38.7969
 20
-155.736
 11
-38.7326
 21
-155.834
  0
LINE
  8
0
 10
-38.7326
 20
-155.834
 11
-38.6503
 21
-155.922
  0
LINE
  8
0
 10
-38.6503
 20
-155.922
 11
-38.5504
 21
-156.003
  0
LINE
  8
0
 10
-38.5504
 20
-156.003
 11
-38.4328
 21
-156.078
  0
LINE
  8
0
 10
-38.4328
 20
-156.078
 11
-38.2976
 21
-156.146
  0
LINE
  8
0
 10
-38.2976
 20
-156.146
 11
-38.1133
 21
-156.216
  0
LINE
  8
0
 10
-38.1133
 20
-156.216
 11
-37.8493
 21
-156.298
  0
LINE
  8
0
 10
-37.8493
 20
-156.298
 11
-37.5058
 21
-156.393
  0
LINE
  8
0
 10
-37.5058
 20
-156.393
 11
-37.0826
 21
-156.5
  0
LINE
  8
0
 10
-37.0826
 20
-156.5
 11
-36.6748
 21
-156.608
  0
LINE
  8
0
 10
-36.6748
 20
-156.608
 11
-36.3284
 21
-156.711
  0
LINE
  8
0
 10
-36.3284
 20
-156.711
 11
-36.0433
 21
-156.811
  0
LINE
  8
0
 10
-36.0433
 20
-156.811
 11
-35.8196
 21
-156.907
  0
LINE
  8
0
 10
-35.8196
 20
-156.907
 11
-35.6363
 21
-157.003
  0
LINE
  8
0
 10
-35.6363
 20
-157.003
 11
-35.4734
 21
-157.104
  0
LINE
  8
0
 10
-35.4734
 20
-157.104
 11
-35.3308
 21
-157.21
  0
LINE
  8
0
 10
-35.3308
 20
-157.21
 11
-35.2086
 21
-157.321
  0
LINE
  8
0
 10
-35.2086
 20
-157.321
 11
-35.103
 21
-157.438
  0
LINE
  8
0
 10
-35.103
 20
-157.438
 11
-35.0101
 21
-157.564
  0
LINE
  8
0
 10
-35.0101
 20
-157.564
 11
-34.93
 21
-157.7
  0
LINE
  8
0
 10
-34.93
 20
-157.7
 11
-34.8626
 21
-157.844
  0
LINE
  8
0
 10
-34.8626
 20
-157.844
 11
-34.8088
 21
-157.997
  0
LINE
  8
0
 10
-34.8088
 20
-157.997
 11
-34.7704
 21
-158.161
  0
LINE
  8
0
 10
-34.7704
 20
-158.161
 11
-34.7473
 21
-158.335
  0
LINE
  8
0
 10
-34.7473
 20
-158.335
 11
-34.7396
 21
-158.52
  0
LINE
  8
0
 10
-34.7396
 20
-158.52
 11
-34.7838
 21
-158.961
  0
LINE
  8
0
 10
-34.7838
 20
-158.961
 11
-34.9166
 21
-159.349
  0
LINE
  8
0
 10
-34.9166
 20
-159.349
 11
-35.1378
 21
-159.683
  0
LINE
  8
0
 10
-35.1378
 20
-159.683
 11
-35.4476
 21
-159.964
  0
LINE
  8
0
 10
-35.4476
 20
-159.964
 11
-35.8365
 21
-160.186
  0
LINE
  8
0
 10
-35.8365
 20
-160.186
 11
-36.2964
 21
-160.345
  0
LINE
  8
0
 10
-36.2964
 20
-160.345
 11
-36.827
 21
-160.44
  0
LINE
  8
0
 10
-36.827
 20
-160.44
 11
-37.4286
 21
-160.472
  0
LINE
  8
0
 10
-37.4286
 20
-160.472
 11
-38.0117
 21
-160.446
  0
LINE
  8
0
 10
-59.6855
 20
-160.446
 11
-60.1979
 21
-160.37
  0
LINE
  8
0
 10
-60.1979
 20
-160.37
 11
-60.6396
 21
-160.244
  0
LINE
  8
0
 10
-60.6396
 20
-160.244
 11
-61.0104
 21
-160.067
  0
LINE
  8
0
 10
-61.0104
 20
-160.067
 11
-61.3166
 21
-159.835
  0
LINE
  8
0
 10
-61.3166
 20
-159.835
 11
-61.5642
 21
-159.547
  0
LINE
  8
0
 10
-61.5642
 20
-159.547
 11
-61.7531
 21
-159.203
  0
LINE
  8
0
 10
-61.7531
 20
-159.203
 11
-61.8834
 21
-158.802
  0
LINE
  8
0
 10
-61.8834
 20
-158.802
 11
-60.9144
 21
-158.613
  0
LINE
  8
0
 10
-60.9144
 20
-158.613
 11
-60.8251
 21
-158.86
  0
LINE
  8
0
 10
-60.8251
 20
-158.86
 11
-60.6982
 21
-159.072
  0
LINE
  8
0
 10
-60.6982
 20
-159.072
 11
-60.5336
 21
-159.249
  0
LINE
  8
0
 10
-60.5336
 20
-159.249
 11
-60.3314
 21
-159.39
  0
LINE
  8
0
 10
-60.3314
 20
-159.39
 11
-60.0884
 21
-159.498
  0
LINE
  8
0
 10
-60.0884
 20
-159.498
 11
-59.8024
 21
-159.575
  0
LINE
  8
0
 10
-59.8024
 20
-159.575
 11
-59.4734
 21
-159.621
  0
LINE
  8
0
 10
-59.4734
 20
-159.621
 11
-59.1014
 21
-159.637
  0
LINE
  8
0
 10
-59.1014
 20
-159.637
 11
-58.7087
 21
-159.621
  0
LINE
  8
0
 10
-58.7087
 20
-159.621
 11
-58.3724
 21
-159.572
  0
LINE
  8
0
 10
-58.3724
 20
-159.572
 11
-58.0927
 21
-159.492
  0
LINE
  8
0
 10
-58.0927
 20
-159.492
 11
-57.8694
 21
-159.379
  0
LINE
  8
0
 10
-57.8694
 20
-159.379
 11
-57.6988
 21
-159.234
  0
LINE
  8
0
 10
-57.6988
 20
-159.234
 11
-57.5769
 21
-159.056
  0
LINE
  8
0
 10
-57.5769
 20
-159.056
 11
-57.5038
 21
-158.847
  0
LINE
  8
0
 10
-57.5038
 20
-158.847
 11
-57.4794
 21
-158.605
  0
LINE
  8
0
 10
-57.4794
 20
-158.605
 11
-57.4963
 21
-158.418
  0
LINE
  8
0
 10
-57.4963
 20
-158.418
 11
-57.5469
 21
-158.25
  0
LINE
  8
0
 10
-57.5469
 20
-158.25
 11
-57.6313
 21
-158.1
  0
LINE
  8
0
 10
-57.6313
 20
-158.1
 11
-57.7494
 21
-157.969
  0
LINE
  8
0
 10
-57.7494
 20
-157.969
 11
-57.9051
 21
-157.852
  0
LINE
  8
0
 10
-57.9051
 20
-157.852
 11
-58.1022
 21
-157.745
  0
LINE
  8
0
 10
-58.1022
 20
-157.745
 11
-58.3406
 21
-157.65
  0
LINE
  8
0
 10
-58.3406
 20
-157.65
 11
-58.6204
 21
-157.565
  0
LINE
  8
0
 10
-58.6204
 20
-157.565
 11
-59.4114
 21
-157.357
  0
LINE
  8
0
 10
-59.4114
 20
-157.357
 11
-59.8526
 21
-157.235
  0
LINE
  8
0
 10
-59.8526
 20
-157.235
 11
-60.2252
 21
-157.114
  0
LINE
  8
0
 10
-60.2252
 20
-157.114
 11
-60.5291
 21
-156.995
  0
LINE
  8
0
 10
-60.5291
 20
-156.995
 11
-60.7644
 21
-156.877
  0
LINE
  8
0
 10
-60.7644
 20
-156.877
 11
-60.9545
 21
-156.752
  0
LINE
  8
0
 10
-60.9545
 20
-156.752
 11
-61.1227
 21
-156.616
  0
LINE
  8
0
 10
-61.1227
 20
-156.616
 11
-61.269
 21
-156.466
  0
LINE
  8
0
 10
-61.269
 20
-156.466
 11
-61.3934
 21
-156.305
  0
LINE
  8
0
 10
-61.3934
 20
-156.305
 11
-61.4927
 21
-156.127
  0
LINE
  8
0
 10
-61.4927
 20
-156.127
 11
-61.5637
 21
-155.93
  0
LINE
  8
0
 10
-61.5637
 20
-155.93
 11
-61.6062
 21
-155.713
  0
LINE
  8
0
 10
-61.6062
 20
-155.713
 11
-61.6204
 21
-155.478
  0
LINE
  8
0
 10
-61.6204
 20
-155.478
 11
-61.58
 21
-155.052
  0
LINE
  8
0
 10
-61.58
 20
-155.052
 11
-61.4589
 21
-154.68
  0
LINE
  8
0
 10
-61.4589
 20
-154.68
 11
-61.257
 21
-154.362
  0
LINE
  8
0
 10
-61.257
 20
-154.362
 11
-60.9744
 21
-154.098
  0
LINE
  8
0
 10
-60.9744
 20
-154.098
 11
-60.6144
 21
-153.89
  0
LINE
  8
0
 10
-60.6144
 20
-153.89
 11
-60.1804
 21
-153.742
  0
LINE
  8
0
 10
-60.1804
 20
-153.742
 11
-59.6724
 21
-153.653
  0
LINE
  8
0
 10
-59.6724
 20
-153.653
 11
-59.0904
 21
-153.624
  0
LINE
  8
0
 10
-59.0904
 20
-153.624
 11
-58.5706
 21
-153.648
  0
LINE
  8
0
 10
-58.5706
 20
-153.648
 11
-58.1069
 21
-153.72
  0
LINE
  8
0
 10
-58.1069
 20
-153.72
 11
-57.6996
 21
-153.84
  0
LINE
  8
0
 10
-57.6996
 20
-153.84
 11
-57.3484
 21
-154.008
  0
LINE
  8
0
 10
-57.3484
 20
-154.008
 11
-57.0551
 21
-154.229
  0
LINE
  8
0
 10
-57.0551
 20
-154.229
 11
-56.8209
 21
-154.508
  0
LINE
  8
0
 10
-56.8209
 20
-154.508
 11
-56.6461
 21
-154.844
  0
LINE
  8
0
 10
-56.6461
 20
-154.844
 11
-56.5304
 21
-155.239
  0
LINE
  8
0
 10
-56.5304
 20
-155.239
 11
-57.5174
 21
-155.361
  0
LINE
  8
0
 10
-57.5174
 20
-155.361
 11
-57.5829
 21
-155.154
  0
LINE
  8
0
 10
-57.5829
 20
-155.154
 11
-57.6872
 21
-154.973
  0
LINE
  8
0
 10
-57.6872
 20
-154.973
 11
-57.8304
 21
-154.818
  0
LINE
  8
0
 10
-57.8304
 20
-154.818
 11
-58.0124
 21
-154.688
  0
LINE
  8
0
 10
-58.0124
 20
-154.688
 11
-58.2306
 21
-154.585
  0
LINE
  8
0
 10
-58.2306
 20
-154.585
 11
-58.4829
 21
-154.512
  0
LINE
  8
0
 10
-58.4829
 20
-154.512
 11
-58.7696
 21
-154.467
  0
LINE
  8
0
 10
-58.7696
 20
-154.467
 11
-59.0904
 21
-154.453
  0
LINE
  8
0
 10
-59.0904
 20
-154.453
 11
-59.4409
 21
-154.467
  0
LINE
  8
0
 10
-59.4409
 20
-154.467
 11
-59.7422
 21
-154.51
  0
LINE
  8
0
 10
-59.7422
 20
-154.51
 11
-59.9944
 21
-154.58
  0
LINE
  8
0
 10
-59.9944
 20
-154.58
 11
-60.1974
 21
-154.68
  0
LINE
  8
0
 10
-60.1974
 20
-154.68
 11
-60.3532
 21
-154.808
  0
LINE
  8
0
 10
-60.3532
 20
-154.808
 11
-60.4644
 21
-154.965
  0
LINE
  8
0
 10
-60.4644
 20
-154.965
 11
-60.5312
 21
-155.152
  0
LINE
  8
0
 10
-60.5312
 20
-155.152
 11
-60.5534
 21
-155.368
  0
LINE
  8
0
 10
-60.5534
 20
-155.368
 11
-60.5442
 21
-155.503
  0
LINE
  8
0
 10
-60.5442
 20
-155.503
 11
-60.5167
 21
-155.625
  0
LINE
  8
0
 10
-60.5167
 20
-155.625
 11
-60.4707
 21
-155.736
  0
LINE
  8
0
 10
-60.4707
 20
-155.736
 11
-60.4064
 21
-155.834
  0
LINE
  8
0
 10
-60.4064
 20
-155.834
 11
-60.3241
 21
-155.922
  0
LINE
  8
0
 10
-60.3241
 20
-155.922
 11
-60.2242
 21
-156.003
  0
LINE
  8
0
 10
-60.2242
 20
-156.003
 11
-60.1066
 21
-156.078
  0
LINE
  8
0
 10
-60.1066
 20
-156.078
 11
-59.9714
 21
-156.146
  0
LINE
  8
0
 10
-59.9714
 20
-156.146
 11
-59.7871
 21
-156.216
  0
LINE
  8
0
 10
-59.7871
 20
-156.216
 11
-59.5232
 21
-156.298
  0
LINE
  8
0
 10
-59.5232
 20
-156.298
 11
-59.1796
 21
-156.393
  0
LINE
  8
0
 10
-59.1796
 20
-156.393
 11
-58.7564
 21
-156.5
  0
LINE
  8
0
 10
-58.7564
 20
-156.5
 11
-58.3486
 21
-156.608
  0
LINE
  8
0
 10
-58.3486
 20
-156.608
 11
-58.0022
 21
-156.711
  0
LINE
  8
0
 10
-58.0022
 20
-156.711
 11
-57.7171
 21
-156.811
  0
LINE
  8
0
 10
-57.7171
 20
-156.811
 11
-57.4934
 21
-156.907
  0
LINE
  8
0
 10
-57.4934
 20
-156.907
 11
-57.3101
 21
-157.003
  0
LINE
  8
0
 10
-57.3101
 20
-157.003
 11
-57.1472
 21
-157.104
  0
LINE
  8
0
 10
-57.1472
 20
-157.104
 11
-57.0046
 21
-157.21
  0
LINE
  8
0
 10
-57.0046
 20
-157.21
 11
-56.8824
 21
-157.321
  0
LINE
  8
0
 10
-56.8824
 20
-157.321
 11
-56.7768
 21
-157.438
  0
LINE
  8
0
 10
-56.7768
 20
-157.438
 11
-56.6839
 21
-157.564
  0
LINE
  8
0
 10
-56.6839
 20
-157.564
 11
-56.6038
 21
-157.7
  0
LINE
  8
0
 10
-56.6038
 20
-157.7
 11
-56.5364
 21
-157.844
  0
LINE
  8
0
 10
-56.5364
 20
-157.844
 11
-56.4826
 21
-157.997
  0
LINE
  8
0
 10
-56.4826
 20
-157.997
 11
-56.4442
 21
-158.161
  0
LINE
  8
0
 10
-56.4442
 20
-158.161
 11
-56.4211
 21
-158.335
  0
LINE
  8
0
 10
-56.4211
 20
-158.335
 11
-56.4134
 21
-158.52
  0
LINE
  8
0
 10
-56.4134
 20
-158.52
 11
-56.4577
 21
-158.961
  0
LINE
  8
0
 10
-56.4577
 20
-158.961
 11
-56.5904
 21
-159.349
  0
LINE
  8
0
 10
-56.5904
 20
-159.349
 11
-56.8117
 21
-159.683
  0
LINE
  8
0
 10
-56.8117
 20
-159.683
 11
-57.1214
 21
-159.964
  0
LINE
  8
0
 10
-57.1214
 20
-159.964
 11
-57.5104
 21
-160.186
  0
LINE
  8
0
 10
-57.5104
 20
-160.186
 11
-57.9702
 21
-160.345
  0
LINE
  8
0
 10
-57.9702
 20
-160.345
 11
-58.5009
 21
-160.44
  0
LINE
  8
0
 10
-58.5009
 20
-160.44
 11
-59.1024
 21
-160.472
  0
LINE
  8
0
 10
-59.1024
 20
-160.472
 11
-59.6855
 21
-160.446
  0
LINE
  8
0
 10
-71.6868
 20
-160.417
 11
-72.2584
 21
-160.253
  0
LINE
  8
0
 10
-72.2584
 20
-160.253
 11
-72.7478
 21
-159.979
  0
LINE
  8
0
 10
-72.7478
 20
-159.979
 11
-73.1549
 21
-159.596
  0
LINE
  8
0
 10
-73.1549
 20
-159.596
 11
-73.4752
 21
-159.108
  0
LINE
  8
0
 10
-73.4752
 20
-159.108
 11
-73.7039
 21
-158.519
  0
LINE
  8
0
 10
-73.7039
 20
-158.519
 11
-73.8412
 21
-157.831
  0
LINE
  8
0
 10
-73.8412
 20
-157.831
 11
-73.8869
 21
-157.042
  0
LINE
  8
0
 10
-73.8869
 20
-157.042
 11
-73.841
 21
-156.258
  0
LINE
  8
0
 10
-73.841
 20
-156.258
 11
-73.7032
 21
-155.573
  0
LINE
  8
0
 10
-73.7032
 20
-155.573
 11
-73.4735
 21
-154.987
  0
LINE
  8
0
 10
-73.4735
 20
-154.987
 11
-73.1519
 21
-154.5
  0
LINE
  8
0
 10
-73.1519
 20
-154.5
 11
-72.7446
 21
-154.117
  0
LINE
  8
0
 10
-72.7446
 20
-154.117
 11
-72.2577
 21
-153.843
  0
LINE
  8
0
 10
-72.2577
 20
-153.843
 11
-71.6911
 21
-153.679
  0
LINE
  8
0
 10
-71.6911
 20
-153.679
 11
-71.0449
 21
-153.624
  0
LINE
  8
0
 10
-71.0449
 20
-153.624
 11
-70.5585
 21
-153.656
  0
LINE
  8
0
 10
-70.5585
 20
-153.656
 11
-70.1152
 21
-153.755
  0
LINE
  8
0
 10
-70.1152
 20
-153.755
 11
-69.715
 21
-153.918
  0
LINE
  8
0
 10
-69.715
 20
-153.918
 11
-69.3579
 21
-154.147
  0
LINE
  8
0
 10
-69.3579
 20
-154.147
 11
-69.0537
 21
-154.433
  0
LINE
  8
0
 10
-69.0537
 20
-154.433
 11
-68.8119
 21
-154.768
  0
LINE
  8
0
 10
-68.8119
 20
-154.768
 11
-68.6327
 21
-155.153
  0
LINE
  8
0
 10
-68.6327
 20
-155.153
 11
-68.5159
 21
-155.587
  0
LINE
  8
0
 10
-68.5159
 20
-155.587
 11
-69.6429
 21
-155.672
  0
LINE
  8
0
 10
-69.6429
 20
-155.672
 11
-69.7025
 21
-155.413
  0
LINE
  8
0
 10
-69.7025
 20
-155.413
 11
-69.7952
 21
-155.182
  0
LINE
  8
0
 10
-69.7952
 20
-155.182
 11
-69.921
 21
-154.979
  0
LINE
  8
0
 10
-69.921
 20
-154.979
 11
-70.0799
 21
-154.805
  0
LINE
  8
0
 10
-70.0799
 20
-154.805
 11
-70.2734
 21
-154.664
  0
LINE
  8
0
 10
-70.2734
 20
-154.664
 11
-70.5037
 21
-154.563
  0
LINE
  8
0
 10
-70.5037
 20
-154.563
 11
-70.7709
 21
-154.503
  0
LINE
  8
0
 10
-70.7709
 20
-154.503
 11
-71.0749
 21
-154.483
  0
LINE
  8
0
 10
-71.0749
 20
-154.483
 11
-71.4841
 21
-154.519
  0
LINE
  8
0
 10
-71.4841
 20
-154.519
 11
-71.8327
 21
-154.628
  0
LINE
  8
0
 10
-71.8327
 20
-154.628
 11
-72.1206
 21
-154.809
  0
LINE
  8
0
 10
-72.1206
 20
-154.809
 11
-72.3479
 21
-155.063
  0
LINE
  8
0
 10
-72.3479
 20
-155.063
 11
-72.5199
 21
-155.402
  0
LINE
  8
0
 10
-72.5199
 20
-155.402
 11
-72.6427
 21
-155.842
  0
LINE
  8
0
 10
-72.6427
 20
-155.842
 11
-72.7164
 21
-156.38
  0
LINE
  8
0
 10
-72.7164
 20
-156.38
 11
-72.7409
 21
-157.018
  0
LINE
  8
0
 10
-72.7409
 20
-157.018
 11
-72.7148
 21
-157.634
  0
LINE
  8
0
 10
-72.7148
 20
-157.634
 11
-72.6364
 21
-158.166
  0
LINE
  8
0
 10
-72.6364
 20
-158.166
 11
-72.5058
 21
-158.611
  0
LINE
  8
0
 10
-72.5058
 20
-158.611
 11
-72.3229
 21
-158.972
  0
LINE
  8
0
 10
-72.3229
 20
-158.972
 11
-72.0874
 21
-159.25
  0
LINE
  8
0
 10
-72.0874
 20
-159.25
 11
-71.7989
 21
-159.448
  0
LINE
  8
0
 10
-71.7989
 20
-159.448
 11
-71.4574
 21
-159.567
  0
LINE
  8
0
 10
-71.4574
 20
-159.567
 11
-71.0629
 21
-159.607
  0
LINE
  8
0
 10
-71.0629
 20
-159.607
 11
-70.7801
 21
-159.587
  0
LINE
  8
0
 10
-70.7801
 20
-159.587
 11
-70.5214
 21
-159.526
  0
LINE
  8
0
 10
-70.5214
 20
-159.526
 11
-70.287
 21
-159.426
  0
LINE
  8
0
 10
-70.287
 20
-159.426
 11
-70.0769
 21
-159.286
  0
LINE
  8
0
 10
-70.0769
 20
-159.286
 11
-69.8975
 21
-159.103
  0
LINE
  8
0
 10
-69.8975
 20
-159.103
 11
-69.7562
 21
-158.877
  0
LINE
  8
0
 10
-69.7562
 20
-158.877
 11
-69.653
 21
-158.608
  0
LINE
  8
0
 10
-69.653
 20
-158.608
 11
-69.5879
 21
-158.296
  0
LINE
  8
0
 10
-69.5879
 20
-158.296
 11
-68.4789
 21
-158.37
  0
LINE
  8
0
 10
-68.4789
 20
-158.37
 11
-68.5782
 21
-158.825
  0
LINE
  8
0
 10
-68.5782
 20
-158.825
 11
-68.7472
 21
-159.232
  0
LINE
  8
0
 10
-68.7472
 20
-159.232
 11
-68.9857
 21
-159.591
  0
LINE
  8
0
 10
-68.9857
 20
-159.591
 11
-69.2939
 21
-159.901
  0
LINE
  8
0
 10
-69.2939
 20
-159.901
 11
-69.6599
 21
-160.151
  0
LINE
  8
0
 10
-69.6599
 20
-160.151
 11
-70.0717
 21
-160.329
  0
LINE
  8
0
 10
-70.0717
 20
-160.329
 11
-70.5294
 21
-160.436
  0
LINE
  8
0
 10
-70.5294
 20
-160.436
 11
-71.0329
 21
-160.472
  0
LINE
  8
0
 10
-71.0329
 20
-160.472
 11
-71.6868
 21
-160.417
  0
LINE
  8
0
 10
-54.092
 20
-160.439
 11
-54.4939
 21
-160.34
  0
LINE
  8
0
 10
-54.4939
 20
-160.34
 11
-54.8345
 21
-160.176
  0
LINE
  8
0
 10
-54.8345
 20
-160.176
 11
-55.1137
 21
-159.946
  0
LINE
  8
0
 10
-55.1137
 20
-159.946
 11
-55.3311
 21
-159.658
  0
LINE
  8
0
 10
-55.3311
 20
-159.658
 11
-55.4864
 21
-159.322
  0
LINE
  8
0
 10
-55.4864
 20
-159.322
 11
-55.5796
 21
-158.936
  0
LINE
  8
0
 10
-55.5796
 20
-158.936
 11
-55.6107
 21
-158.502
  0
LINE
  8
0
 10
-55.6107
 20
-158.502
 11
-55.5688
 21
-158.018
  0
LINE
  8
0
 10
-55.5688
 20
-158.018
 11
-55.4432
 21
-157.593
  0
LINE
  8
0
 10
-55.4432
 20
-157.593
 11
-55.2338
 21
-157.229
  0
LINE
  8
0
 10
-55.2338
 20
-157.229
 11
-54.9407
 21
-156.924
  0
LINE
  8
0
 10
-54.9407
 20
-156.924
 11
-54.5544
 21
-156.68
  0
LINE
  8
0
 10
-54.5544
 20
-156.68
 11
-54.0654
 21
-156.501
  0
LINE
  8
0
 10
-54.0654
 20
-156.501
 11
-53.4739
 21
-156.386
  0
LINE
  8
0
 10
-53.4739
 20
-156.386
 11
-52.7797
 21
-156.336
  0
LINE
  8
0
 10
-52.7797
 20
-156.336
 11
-51.3067
 21
-156.312
  0
LINE
  8
0
 10
-51.3067
 20
-156.312
 11
-51.3067
 21
-155.954
  0
LINE
  8
0
 10
-51.3067
 20
-155.954
 11
-51.3279
 21
-155.581
  0
LINE
  8
0
 10
-51.3279
 20
-155.581
 11
-51.3914
 21
-155.266
  0
LINE
  8
0
 10
-51.3914
 20
-155.266
 11
-51.4974
 21
-155.007
  0
LINE
  8
0
 10
-51.4974
 20
-155.007
 11
-51.6457
 21
-154.806
  0
LINE
  8
0
 10
-51.6457
 20
-154.806
 11
-51.8394
 21
-154.654
  0
LINE
  8
0
 10
-51.8394
 20
-154.654
 11
-52.0814
 21
-154.546
  0
LINE
  8
0
 10
-52.0814
 20
-154.546
 11
-52.3719
 21
-154.48
  0
LINE
  8
0
 10
-52.3719
 20
-154.48
 11
-52.7107
 21
-154.459
  0
LINE
  8
0
 10
-52.7107
 20
-154.459
 11
-53.0517
 21
-154.474
  0
LINE
  8
0
 10
-53.0517
 20
-154.474
 11
-53.3429
 21
-154.52
  0
LINE
  8
0
 10
-53.3429
 20
-154.52
 11
-53.5842
 21
-154.596
  0
LINE
  8
0
 10
-53.5842
 20
-154.596
 11
-53.7757
 21
-154.703
  0
LINE
  8
0
 10
-53.7757
 20
-154.703
 11
-53.9251
 21
-154.842
  0
LINE
  8
0
 10
-53.9251
 20
-154.842
 11
-54.0414
 21
-155.019
  0
LINE
  8
0
 10
-54.0414
 20
-155.019
 11
-54.1246
 21
-155.231
  0
LINE
  8
0
 10
-54.1246
 20
-155.231
 11
-54.1747
 21
-155.48
  0
LINE
  8
0
 10
-54.1747
 20
-155.48
 11
-55.3197
 21
-155.378
  0
LINE
  8
0
 10
-55.3197
 20
-155.378
 11
-55.0504
 21
-154.61
  0
LINE
  8
0
 10
-55.0504
 20
-154.61
 11
-54.5217
 21
-154.062
  0
LINE
  8
0
 10
-54.5217
 20
-154.062
 11
-53.7334
 21
-153.733
  0
LINE
  8
0
 10
-53.7334
 20
-153.733
 11
-52.6857
 21
-153.624
  0
LINE
  8
0
 10
-52.6857
 20
-153.624
 11
-52.105
 21
-153.659
  0
LINE
  8
0
 10
-52.105
 20
-153.659
 11
-51.6009
 21
-153.767
  0
LINE
  8
0
 10
-51.6009
 20
-153.767
 11
-51.1735
 21
-153.945
  0
LINE
  8
0
 10
-51.1735
 20
-153.945
 11
-50.8227
 21
-154.195
  0
LINE
  8
0
 10
-50.8227
 20
-154.195
 11
-50.5492
 21
-154.512
  0
LINE
  8
0
 10
-50.5492
 20
-154.512
 11
-50.3539
 21
-154.892
  0
LINE
  8
0
 10
-50.3539
 20
-154.892
 11
-50.2367
 21
-155.337
  0
LINE
  8
0
 10
-50.2367
 20
-155.337
 11
-50.1977
 21
-155.845
  0
LINE
  8
0
 10
-50.1977
 20
-155.845
 11
-50.1977
 21
-158.689
  0
LINE
  8
0
 10
-50.1977
 20
-158.689
 11
-50.1897
 21
-158.918
  0
LINE
  8
0
 10
-50.1897
 20
-158.918
 11
-50.1659
 21
-159.116
  0
LINE
  8
0
 10
-50.1659
 20
-159.116
 11
-50.1262
 21
-159.285
  0
LINE
  8
0
 10
-50.1262
 20
-159.285
 11
-50.0707
 21
-159.424
  0
LINE
  8
0
 10
-50.0707
 20
-159.424
 11
-49.9923
 21
-159.532
  0
LINE
  8
0
 10
-49.9923
 20
-159.532
 11
-49.8852
 21
-159.609
  0
LINE
  8
0
 10
-49.8852
 20
-159.609
 11
-49.7493
 21
-159.655
  0
LINE
  8
0
 10
-49.7493
 20
-159.655
 11
-49.5847
 21
-159.671
  0
LINE
  8
0
 10
-49.5847
 20
-159.671
 11
-49.5031
 21
-159.668
  0
LINE
  8
0
 10
-49.5031
 20
-159.668
 11
-49.4162
 21
-159.66
  0
LINE
  8
0
 10
-49.4162
 20
-159.66
 11
-49.3241
 21
-159.647
  0
LINE
  8
0
 10
-49.3241
 20
-159.647
 11
-49.2267
 21
-159.628
  0
LINE
  8
0
 10
-49.2267
 20
-159.628
 11
-49.2267
 21
-160.311
  0
LINE
  8
0
 10
-49.2267
 20
-160.311
 11
-49.4348
 21
-160.353
  0
LINE
  8
0
 10
-49.4348
 20
-160.353
 11
-49.6452
 21
-160.383
  0
LINE
  8
0
 10
-49.6452
 20
-160.383
 11
-49.8578
 21
-160.402
  0
LINE
  8
0
 10
-49.8578
 20
-160.402
 11
-50.0727
 21
-160.408
  0
LINE
  8
0
 10
-50.0727
 20
-160.408
 11
-50.356
 21
-160.388
  0
LINE
  8
0
 10
-50.356
 20
-160.388
 11
-50.5979
 21
-160.328
  0
LINE
  8
0
 10
-50.5979
 20
-160.328
 11
-50.7985
 21
-160.228
  0
LINE
  8
0
 10
-50.7985
 20
-160.228
 11
-50.9577
 21
-160.089
  0
LINE
  8
0
 10
-50.9577
 20
-160.089
 11
-51.0811
 21
-159.906
  0
LINE
  8
0
 10
-51.0811
 20
-159.906
 11
-51.1744
 21
-159.678
  0
LINE
  8
0
 10
-51.1744
 20
-159.678
 11
-51.2376
 21
-159.405
  0
LINE
  8
0
 10
-51.2376
 20
-159.405
 11
-51.2707
 21
-159.087
  0
LINE
  8
0
 10
-51.2707
 20
-159.087
 11
-51.3067
 21
-159.087
  0
LINE
  8
0
 10
-51.3067
 20
-159.087
 11
-51.5247
 21
-159.438
  0
LINE
  8
0
 10
-51.5247
 20
-159.438
 11
-51.7597
 21
-159.733
  0
LINE
  8
0
 10
-51.7597
 20
-159.733
 11
-52.0117
 21
-159.973
  0
LINE
  8
0
 10
-52.0117
 20
-159.973
 11
-52.2807
 21
-160.158
  0
LINE
  8
0
 10
-52.2807
 20
-160.158
 11
-52.5727
 21
-160.295
  0
LINE
  8
0
 10
-52.5727
 20
-160.295
 11
-52.8947
 21
-160.393
  0
LINE
  8
0
 10
-52.8947
 20
-160.393
 11
-53.2467
 21
-160.452
  0
LINE
  8
0
 10
-53.2467
 20
-160.452
 11
-53.6287
 21
-160.472
  0
LINE
  8
0
 10
-53.6287
 20
-160.472
 11
-54.092
 21
-160.439
  0
LINE
  8
0
 10
-53.0845
 20
-159.631
 11
-52.8099
 21
-159.58
  0
LINE
  8
0
 10
-52.8099
 20
-159.58
 11
-52.552
 21
-159.493
  0
LINE
  8
0
 10
-52.552
 20
-159.493
 11
-52.3107
 21
-159.373
  0
LINE
  8
0
 10
-52.3107
 20
-159.373
 11
-52.09
 21
-159.222
  0
LINE
  8
0
 10
-52.09
 20
-159.222
 11
-51.8939
 21
-159.045
  0
LINE
  8
0
 10
-51.8939
 20
-159.045
 11
-51.7225
 21
-158.843
  0
LINE
  8
0
 10
-51.7225
 20
-158.843
 11
-51.5757
 21
-158.616
  0
LINE
  8
0
 10
-51.5757
 20
-158.616
 11
-51.458
 21
-158.373
  0
LINE
  8
0
 10
-51.458
 20
-158.373
 11
-51.3739
 21
-158.128
  0
LINE
  8
0
 10
-51.3739
 20
-158.128
 11
-51.3235
 21
-157.878
  0
LINE
  8
0
 10
-51.3235
 20
-157.878
 11
-51.3067
 21
-157.626
  0
LINE
  8
0
 10
-51.3067
 20
-157.626
 11
-51.3067
 21
-157.08
  0
LINE
  8
0
 10
-51.3067
 20
-157.08
 11
-52.4987
 21
-157.105
  0
LINE
  8
0
 10
-52.4987
 20
-157.105
 11
-52.8595
 21
-157.119
  0
LINE
  8
0
 10
-52.8595
 20
-157.119
 11
-53.1739
 21
-157.15
  0
LINE
  8
0
 10
-53.1739
 20
-157.15
 11
-53.442
 21
-157.199
  0
LINE
  8
0
 10
-53.442
 20
-157.199
 11
-53.6637
 21
-157.264
  0
LINE
  8
0
 10
-53.6637
 20
-157.264
 11
-53.8502
 21
-157.347
  0
LINE
  8
0
 10
-53.8502
 20
-157.347
 11
-54.0137
 21
-157.451
  0
LINE
  8
0
 10
-54.0137
 20
-157.451
 11
-54.1542
 21
-157.574
  0
LINE
  8
0
 10
-54.1542
 20
-157.574
 11
-54.2717
 21
-157.718
  0
LINE
  8
0
 10
-54.2717
 20
-157.718
 11
-54.364
 21
-157.883
  0
LINE
  8
0
 10
-54.364
 20
-157.883
 11
-54.4299
 21
-158.071
  0
LINE
  8
0
 10
-54.4299
 20
-158.071
 11
-54.4695
 21
-158.284
  0
LINE
  8
0
 10
-54.4695
 20
-158.284
 11
-54.4827
 21
-158.521
  0
LINE
  8
0
 10
-54.4827
 20
-158.521
 11
-54.4647
 21
-158.775
  0
LINE
  8
0
 10
-54.4647
 20
-158.775
 11
-54.4109
 21
-158.999
  0
LINE
  8
0
 10
-54.4109
 20
-158.999
 11
-54.3212
 21
-159.192
  0
LINE
  8
0
 10
-54.3212
 20
-159.192
 11
-54.1957
 21
-159.355
  0
LINE
  8
0
 10
-54.1957
 20
-159.355
 11
-54.0364
 21
-159.483
  0
LINE
  8
0
 10
-54.0364
 20
-159.483
 11
-53.8467
 21
-159.575
  0
LINE
  8
0
 10
-53.8467
 20
-159.575
 11
-53.6264
 21
-159.63
  0
LINE
  8
0
 10
-53.6264
 20
-159.63
 11
-53.3757
 21
-159.649
  0
LINE
  8
0
 10
-53.3757
 20
-159.649
 11
-53.0845
 21
-159.631
  0
LINE
  8
0
 10
76.9355
 20
-160.344
 11
75.0865
 21
-153.752
  0
LINE
  8
0
 10
75.0865
 20
-153.752
 11
76.1705
 21
-153.752
  0
LINE
  8
0
 10
76.1705
 20
-153.752
 11
77.3211
 21
-158.36
  0
LINE
  8
0
 10
77.3211
 20
-158.36
 11
77.3757
 21
-158.604
  0
LINE
  8
0
 10
77.3757
 20
-158.604
 11
77.5515
 21
-159.436
  0
LINE
  8
0
 10
77.5515
 20
-159.436
 11
77.6555
 21
-158.985
  0
LINE
  8
0
 10
77.6555
 20
-158.985
 11
79.0345
 21
-153.752
  0
LINE
  8
0
 10
79.0345
 20
-153.752
 11
80.2105
 21
-153.752
  0
LINE
  8
0
 10
80.2105
 20
-153.752
 11
81.3635
 21
-158.278
  0
LINE
  8
0
 10
81.3635
 20
-158.278
 11
81.6445
 21
-159.436
  0
LINE
  8
0
 10
81.6445
 20
-159.436
 11
81.8335
 21
-158.589
  0
LINE
  8
0
 10
81.8335
 20
-158.589
 11
83.0865
 21
-153.752
  0
LINE
  8
0
 10
83.0865
 20
-153.752
 11
84.1585
 21
-153.752
  0
LINE
  8
0
 10
84.1585
 20
-153.752
 11
82.2655
 21
-160.344
  0
LINE
  8
0
 10
82.2655
 20
-160.344
 11
80.9915
 21
-160.344
  0
LINE
  8
0
 10
80.9915
 20
-160.344
 11
79.8395
 21
-155.683
  0
LINE
  8
0
 10
79.8395
 20
-155.683
 11
79.6195
 21
-154.653
  0
LINE
  8
0
 10
79.6195
 20
-154.653
 11
79.5493
 21
-154.987
  0
LINE
  8
0
 10
79.5493
 20
-154.987
 11
79.4485
 21
-155.442
  0
LINE
  8
0
 10
79.4485
 20
-155.442
 11
79.3272
 21
-155.941
  0
LINE
  8
0
 10
79.3272
 20
-155.941
 11
79.0793
 21
-156.925
  0
LINE
  8
0
 10
79.0793
 20
-156.925
 11
78.7047
 21
-158.392
  0
LINE
  8
0
 10
78.7047
 20
-158.392
 11
78.2035
 21
-160.344
  0
LINE
  8
0
 10
78.2035
 20
-160.344
 11
76.9355
 21
-160.344
  0
LINE
  8
0
 10
-47.5294
 20
-160.344
 11
-49.3784
 21
-153.752
  0
LINE
  8
0
 10
-49.3784
 20
-153.752
 11
-48.2944
 21
-153.752
  0
LINE
  8
0
 10
-48.2944
 20
-153.752
 11
-47.1438
 21
-158.36
  0
LINE
  8
0
 10
-47.1438
 20
-158.36
 11
-47.0891
 21
-158.604
  0
LINE
  8
0
 10
-47.0891
 20
-158.604
 11
-46.9134
 21
-159.436
  0
LINE
  8
0
 10
-46.9134
 20
-159.436
 11
-46.8094
 21
-158.985
  0
LINE
  8
0
 10
-46.8094
 20
-158.985
 11
-45.4304
 21
-153.752
  0
LINE
  8
0
 10
-45.4304
 20
-153.752
 11
-44.2544
 21
-153.752
  0
LINE
  8
0
 10
-44.2544
 20
-153.752
 11
-43.1014
 21
-158.278
  0
LINE
  8
0
 10
-43.1014
 20
-158.278
 11
-42.8204
 21
-159.436
  0
LINE
  8
0
 10
-42.8204
 20
-159.436
 11
-42.6314
 21
-158.589
  0
LINE
  8
0
 10
-42.6314
 20
-158.589
 11
-41.3784
 21
-153.752
  0
LINE
  8
0
 10
-41.3784
 20
-153.752
 11
-40.3064
 21
-153.752
  0
LINE
  8
0
 10
-40.3064
 20
-153.752
 11
-42.1994
 21
-160.344
  0
LINE
  8
0
 10
-42.1994
 20
-160.344
 11
-43.4734
 21
-160.344
  0
LINE
  8
0
 10
-43.4734
 20
-160.344
 11
-44.6254
 21
-155.683
  0
LINE
  8
0
 10
-44.6254
 20
-155.683
 11
-44.8454
 21
-154.653
  0
LINE
  8
0
 10
-44.8454
 20
-154.653
 11
-44.9156
 21
-154.987
  0
LINE
  8
0
 10
-44.9156
 20
-154.987
 11
-45.0164
 21
-155.442
  0
LINE
  8
0
 10
-45.0164
 20
-155.442
 11
-45.1377
 21
-155.941
  0
LINE
  8
0
 10
-45.1377
 20
-155.941
 11
-45.3856
 21
-156.925
  0
LINE
  8
0
 10
-45.3856
 20
-156.925
 11
-45.7602
 21
-158.392
  0
LINE
  8
0
 10
-45.7602
 20
-158.392
 11
-46.2614
 21
-160.344
  0
LINE
  8
0
 10
-46.2614
 20
-160.344
 11
-47.5294
 21
-160.344
  0
LINE
  8
0
 10
397.1
 20
-165.2
 11
410.9
 21
-165.2
  0
LINE
  8
0
 10
410.9
 20
-165.2
 11
410.9
 21
-168.5
  0
LINE
  8
0
 10
410.9
 20
-168.5
 11
425.1
 21
-168.5
  0
LINE
  8
0
 10
425.1
 20
-168.5
 11
425.1
 21
-165.2
  0
LINE
  8
0
 10
425.1
 20
-165.2
 11
438.9
 21
-165.2
  0
LINE
  8
0
 10
438.9
 20
-165.2
 11
438.9
 21
-168.5
  0
LINE
  8
0
 10
438.9
 20
-168.5
 11
453.1
 21
-168.5
  0
LINE
  8
0
 10
453.1
 20
-168.5
 11
453.1
 21
-165.2
  0
LINE
  8
0
 10
453.1
 20
-165.2
 11
466.9
 21
-165.2
  0
LINE
  8
0
 10
466.9
 20
-165.2
 11
466.9
 21
-168.5
  0
LINE
  8
0
 10
466.9
 20
-168.5
 11
481.1
 21
-168.5
  0
LINE
  8
0
 10
481.1
 20
-168.5
 11
481.1
 21
-165.2
  0
LINE
  8
0
 10
481.1
 20
-165.2
 11
494.9
 21
-165.2
  0
LINE
  8
0
 10
494.9
 20
-165.2
 11
494.9
 21
-168.5
  0
LINE
  8
0
 10
494.9
 20
-168.5
 11
509.1
 21
-168.5
  0
LINE
  8
0
 10
509.1
 20
-168.5
 11
509.1
 21
-165.2
  0
LINE
  8
0
 10
509.1
 20
-165.2
 11
522.9
 21
-165.2
  0
LINE
  8
0
 10
522.9
 20
-165.2
 11
522.9
 21
-168.5
  0
LINE
  8
0
 10
522.9
 20
-168.5
 11
537.1
 21
-168.5
  0
LINE
  8
0
 10
537.1
 20
-168.5
 11
537.1
 21
-165.2
  0
LINE
  8
0
 10
537.1
 20
-165.2
 11
550.9
 21
-165.2
  0
LINE
  8
0
 10
550.9
 20
-165.2
 11
550.9
 21
-168.5
  0
LINE
  8
0
 10
550.9
 20
-168.5
 11
565.1
 21
-168.5
  0
LINE
  8
0
 10
565.1
 20
-168.5
 11
565.1
 21
-165.2
  0
LINE
  8
0
 10
565.1
 20
-165.2
 11
578.9
 21
-165.2
  0
LINE
  8
0
 10
578.9
 20
-165.2
 11
578.9
 21
-168.5
  0
LINE
  8
0
 10
578.9
 20
-168.5
 11
584.7
 21
-168.5
  0
LINE
  8
0
 10
584.7
 20
-168.5
 11
584.7
 21
-163.1
  0
LINE
  8
0
 10
584.7
 20
-163.1
 11
588
 21
-163.1
  0
LINE
  8
0
 10
588
 20
-163.1
 11
588
 21
-146.8
  0
LINE
  8
0
 10
588
 20
-146.8
 11
584.7
 21
-146.8
  0
LINE
  8
0
 10
584.7
 20
-146.8
 11
584.7
 21
-143.5
  0
LINE
  8
0
 10
584.7
 20
-143.5
 11
578.9
 21
-143.5
  0
LINE
  8
0
 10
578.9
 20
-143.5
 11
578.9
 21
-146.8
  0
LINE
  8
0
 10
578.9
 20
-146.8
 11
565.1
 21
-146.8
  0
LINE
  8
0
 10
565.1
 20
-146.8
 11
565.1
 21
-143.5
  0
LINE
  8
0
 10
565.1
 20
-143.5
 11
550.9
 21
-143.5
  0
LINE
  8
0
 10
550.9
 20
-143.5
 11
550.9
 21
-146.8
  0
LINE
  8
0
 10
550.9
 20
-146.8
 11
537.1
 21
-146.8
  0
LINE
  8
0
 10
537.1
 20
-146.8
 11
537.1
 21
-143.5
  0
LINE
  8
0
 10
537.1
 20
-143.5
 11
522.9
 21
-143.5
  0
LINE
  8
0
 10
522.9
 20
-143.5
 11
522.9
 21
-146.8
  0
LINE
  8
0
 10
522.9
 20
-146.8
 11
509.1
 21
-146.8
  0
LINE
  8
0
 10
509.1
 20
-146.8
 11
509.1
 21
-143.5
  0
LINE
  8
0
 10
509.1
 20
-143.5
 11
494.9
 21
-143.5
  0
LINE
  8
0
 10
494.9
 20
-143.5
 11
494.9
 21
-146.8
  0
LINE
  8
0
 10
494.9
 20
-146.8
 11
481.1
 21
-146.8
  0
LINE
  8
0
 10
481.1
 20
-146.8
 11
481.1
 21
-143.5
  0
LINE
  8
0
 10
481.1
 20
-143.5
 11
466.9
 21
-143.5
  0
LINE
  8
0
 10
466.9
 20
-143.5
 11
466.9
 21
-146.8
  0
LINE
  8
0
 10
466.9
 20
-146.8
 11
453.1
 21
-146.8
  0
LINE
  8
0
 10
453.1
 20
-146.8
 11
453.1
 21
-143.5
  0
LINE
  8
0
 10
453.1
 20
-143.5
 11
438.9
 21
-143.5
  0
LINE
  8
0
 10
438.9
 20
-143.5
 11
438.9
 21
-146.8
  0
LINE
  8
0
 10
438.9
 20
-146.8
 11
425.1
 21
-146.8
  0
LINE
  8
0
 10
425.1
 20
-146.8
 11
425.1
 21
-143.5
  0
LINE
  8
0
 10
425.1
 20
-143.5
 11
410.9
 21
-143.5
  0
LINE
  8
0
 10
410.9
 20
-143.5
 11
410.9
 21
-146.8
  0
LINE
  8
0
 10
410.9
 20
-146.8
 11
397.1
 21
-146.8
  0
LINE
  8
0
 10
397.1
 20
-146.8
 11
397.1
 21
-143.5
  0
LINE
  8
0
 10
397.1
 20
-143.5
 11
391.3
 21
-143.5
  0
LINE
  8
0
 10
391.3
 20
-143.5
 11
391.3
 21
-148.9
  0
LINE
  8
0
 10
391.3
 20
-148.9
 11
388
 21
-148.9
  0
LINE
  8
0
 10
388
 20
-148.9
 11
388
 21
-165.2
  0
LINE
  8
0
 10
388
 20
-165.2
 11
391.3
 21
-165.2
  0
LINE
  8
0
 10
391.3
 20
-165.2
 11
391.3
 21
-168.5
  0
LINE
  8
0
 10
391.3
 20
-168.5
 11
397.1
 21
-168.5
  0
LINE
  8
0
 10
397.1
 20
-168.5
 11
397.1
 21
-165.2
  0
LINE
  8
0
 10
-376.9
 20
-165.2
 11
-363.1
 21
-165.2
  0
LINE
  8
0
 10
-363.1
 20
-165.2
 11
-363.1
 21
-168.5
  0
LINE
  8
0
 10
-363.1
 20
-168.5
 11
-348.9
 21
-168.5
  0
LINE
  8
0
 10
-348.9
 20
-168.5
 11
-348.9
 21
-165.2
  0
LINE
  8
0
 10
-348.9
 20
-165.2
 11
-335.1
 21
-165.2
  0
LINE
  8
0
 10
-335.1
 20
-165.2
 11
-335.1
 21
-168.5
  0
LINE
  8
0
 10
-335.1
 20
-168.5
 11
-320.9
 21
-168.5
  0
LINE
  8
0
 10
-320.9
 20
-168.5
 11
-320.9
 21
-165.2
  0
LINE
  8
0
 10
-320.9
 20
-165.2
 11
-307.1
 21
-165.2
  0
LINE
  8
0
 10
-307.1
 20
-165.2
 11
-307.1
 21
-168.5
  0
LINE
  8
0
 10
-307.1
 20
-168.5
 11
-292.9
 21
-168.5
  0
LINE
  8
0
 10
-292.9
 20
-168.5
 11
-292.9
 21
-165.2
  0
LINE
  8
0
 10
-292.9
 20
-165.2
 11
-279.1
 21
-165.2
  0
LINE
  8
0
 10
-279.1
 20
-165.2
 11
-279.1
 21
-168.5
  0
LINE
  8
0
 10
-279.1
 20
-168.5
 11
-264.9
 21
-168.5
  0
LINE
  8
0
 10
-264.9
 20
-168.5
 11
-264.9
 21
-165.2
  0
LINE
  8
0
 10
-264.9
 20
-165.2
 11
-251.1
 21
-165.2
  0
LINE
  8
0
 10
-251.1
 20
-165.2
 11
-251.1
 21
-168.5
  0
LINE
  8
0
 10
-251.1
 20
-168.5
 11
-236.9
 21
-168.5
  0
LINE
  8
0
 10
-236.9
 20
-168.5
 11
-236.9
 21
-165.2
  0
LINE
  8
0
 10
-236.9
 20
-165.2
 11
-223.1
 21
-165.2
  0
LINE
  8
0
 10
-223.1
 20
-165.2
 11
-223.1
 21
-168.5
  0
LINE
  8
0
 10
-223.1
 20
-168.5
 11
-208.9
 21
-168.5
  0
LINE
  8
0
 10
-208.9
 20
-168.5
 11
-208.9
 21
-165.2
  0
LINE
  8
0
 10
-208.9
 20
-165.2
 11
-195.1
 21
-165.2
  0
LINE
  8
0
 10
-195.1
 20
-165.2
 11
-195.1
 21
-168.5
  0
LINE
  8
0
 10
-195.1
 20
-168.5
 11
-180.9
 21
-168.5
  0
LINE
  8
0
 10
-180.9
 20
-168.5
 11
-180.9
 21
-165.2
  0
LINE
  8
0
 10
-180.9
 20
-165.2
 11
-167.1
 21
-165.2
  0
LINE
  8
0
 10
-167.1
 20
-165.2
 11
-167.1
 21
-168.5
  0
LINE
  8
0
 10
-167.1
 20
-168.5
 11
-152.9
 21
-168.5
  0
LINE
  8
0
 10
-152.9
 20
-168.5
 11
-152.9
 21
-165.2
  0
LINE
  8
0
 10
-152.9
 20
-165.2
 11
-139.1
 21
-165.2
  0
LINE
  8
0
 10
-139.1
 20
-165.2
 11
-139.1
 21
-168.5
  0
LINE
  8
0
 10
-139.1
 20
-168.5
 11
-124.9
 21
-168.5
  0
LINE
  8
0
 10
-124.9
 20
-168.5
 11
-124.9
 21
-165.2
  0
LINE
  8
0
 10
-124.9
 20
-165.2
 11
-111.1
 21
-165.2
  0
LINE
  8
0
 10
-111.1
 20
-165.2
 11
-111.1
 21
-168.5
  0
LINE
  8
0
 10
-111.1
 20
-168.5
 11
-103.8
 21
-168.5
  0
LINE
  8
0
 10
-103.8
 20
-168.5
 11
-103.8
 21
-165.2
  0
LINE
  8
0
 10
-103.8
 20
-165.2
 11
-100.5
 21
-165.2
  0
LINE
  8
0
 10
-100.5
 20
-165.2
 11
-100.5
 21
-162.9
  0
LINE
  8
0
 10
-100.5
 20
-162.9
 11
-103.8
 21
-162.9
  0
LINE
  8
0
 10
-103.8
 20
-162.9
 11
-103.8
 21
-149.1
  0
LINE
  8
0
 10
-103.8
 20
-149.1
 11
-100.5
 21
-149.1
  0
LINE
  8
0
 10
-100.5
 20
-149.1
 11
-100.5
 21
-146.8
  0
LINE
  8
0
 10
-100.5
 20
-146.8
 11
-103.8
 21
-146.8
  0
LINE
  8
0
 10
-103.8
 20
-146.8
 11
-103.8
 21
-143.5
  0
LINE
  8
0
 10
-103.8
 20
-143.5
 11
-111.1
 21
-143.5
  0
LINE
  8
0
 10
-111.1
 20
-143.5
 11
-111.1
 21
-146.8
  0
LINE
  8
0
 10
-111.1
 20
-146.8
 11
-124.9
 21
-146.8
  0
LINE
  8
0
 10
-124.9
 20
-146.8
 11
-124.9
 21
-143.5
  0
LINE
  8
0
 10
-124.9
 20
-143.5
 11
-139.1
 21
-143.5
  0
LINE
  8
0
 10
-139.1
 20
-143.5
 11
-139.1
 21
-146.8
  0
LINE
  8
0
 10
-139.1
 20
-146.8
 11
-152.9
 21
-146.8
  0
LINE
  8
0
 10
-152.9
 20
-146.8
 11
-152.9
 21
-143.5
  0
LINE
  8
0
 10
-152.9
 20
-143.5
 11
-167.1
 21
-143.5
  0
LINE
  8
0
 10
-167.1
 20
-143.5
 11
-167.1
 21
-146.8
  0
LINE
  8
0
 10
-167.1
 20
-146.8
 11
-180.9
 21
-146.8
  0
LINE
  8
0
 10
-180.9
 20
-146.8
 11
-180.9
 21
-143.5
  0
LINE
  8
0
 10
-180.9
 20
-143.5
 11
-195.1
 21
-143.5
  0
LINE
  8
0
 10
-195.1
 20
-143.5
 11
-195.1
 21
-146.8
  0
LINE
  8
0
 10
-195.1
 20
-146.8
 11
-208.9
 21
-146.8
  0
LINE
  8
0
 10
-208.9
 20
-146.8
 11
-208.9
 21
-143.5
  0
LINE
  8
0
 10
-208.9
 20
-143.5
 11
-223.1
 21
-143.5
  0
LINE
  8
0
 10
-223.1
 20
-143.5
 11
-223.1
 21
-146.8
  0
LINE
  8
0
 10
-223.1
 20
-146.8
 11
-236.9
 21
-146.8
  0
LINE
  8
0
 10
-236.9
 20
-146.8
 11
-236.9
 21
-143.5
  0
LINE
  8
0
 10
-236.9
 20
-143.5
 11
-251.1
 21
-143.5
  0
LINE
  8
0
 10
-251.1
 20
-143.5
 11
-251.1
 21
-146.8
  0
LINE
  8
0
 10
-251.1
 20
-146.8
 11
-264.9
 21
-146.8
  0
LINE
  8
0
 10
-264.9
 20
-146.8
 11
-264.9
 21
-143.5
  0
LINE
  8
0
 10
-264.9
 20
-143.5
 11
-279.1
 21
-143.5
  0
LINE
  8
0
 10
-279.1
 20
-143.5
 11
-279.1
 21
-146.8
  0
LINE
  8
0
 10
-279.1
 20
-146.8
 11
-292.9
 21
-146.8
  0
LINE
  8
0
 10
-292.9
 20
-146.8
 11
-292.9
 21
-143.5
  0
LINE
  8
0
 10
-292.9
 20
-143.5
 11
-307.1
 21
-143.5
  0
LINE
  8
0
 10
-307.1
 20
-143.5
 11
-307.1
 21
-146.8
  0
LINE
  8
0
 10
-307.1
 20
-146.8
 11
-320.9
 21
-146.8
  0
LINE
  8
0
 10
-320.9
 20
-146.8
 11
-320.9
 21
-143.5
  0
LINE
  8
0
 10
-320.9
 20
-143.5
 11
-335.1
 21
-143.5
  0
LINE
  8
0
 10
-335.1
 20
-143.5
 11
-335.1
 21
-146.8
  0
LINE
  8
0
 10
-335.1
 20
-146.8
 11
-348.9
 21
-146.8
  0
LINE
  8
0
 10
-348.9
 20
-146.8
 11
-348.9
 21
-143.5
  0
LINE
  8
0
 10
-348.9
 20
-143.5
 11
-363.1
 21
-143.5
  0
LINE
  8
0
 10
-363.1
 20
-143.5
 11
-363.1
 21
-146.8
  0
LINE
  8
0
 10
-363.1
 20
-146.8
 11
-376.9
 21
-146.8
  0
LINE
  8
0
 10
-376.9
 20
-146.8
 11
-376.9
 21
-143.5
  0
LINE
  8
0
 10
-376.9
 20
-143.5
 11
-384.2
 21
-143.5
  0
LINE
  8
0
 10
-384.2
 20
-143.5
 11
-384.2
 21
-146.8
  0
LINE
  8
0
 10
-384.2
 20
-146.8
 11
-387.5
 21
-146.8
  0
LINE
  8
0
 10
-387.5
 20
-146.8
 11
-387.5
 21
-149.1
  0
LINE
  8
0
 10
-387.5
 20
-149.1
 11
-384.2
 21
-149.1
  0
LINE
  8
0
 10
-384.2
 20
-149.1
 11
-384.2
 21
-162.9
  0
LINE
  8
0
 10
-384.2
 20
-162.9
 11
-387.5
 21
-162.9
  0
LINE
  8
0
 10
-387.5
 20
-162.9
 11
-387.5
 21
-165.2
  0
LINE
  8
0
 10
-387.5
 20
-165.2
 11
-384.2
 21
-165.2
  0
LINE
  8
0
 10
-384.2
 20
-165.2
 11
-384.2
 21
-168.5
  0
LINE
  8
0
 10
-384.2
 20
-168.5
 11
-376.9
 21
-168.5
  0
LINE
  8
0
 10
-376.9
 20
-168.5
 11
-376.9
 21
-165.2
  0
LINE
  8
0
 10
-76.9
 20
-452.7
 11
-63.1
 21
-452.7
  0
LINE
  8
0
 10
-63.1
 20
-452.7
 11
-63.1
 21
-456
  0
LINE
  8
0
 10
-63.1
 20
-456
 11
-48.9
 21
-456
  0
LINE
  8
0
 10
-48.9
 20
-456
 11
-48.9
 21
-452.7
  0
LINE
  8
0
 10
-48.9
 20
-452.7
 11
-35.1
 21
-452.7
  0
LINE
  8
0
 10
-35.1
 20
-452.7
 11
-35.1
 21
-456
  0
LINE
  8
0
 10
-35.1
 20
-456
 11
-20.9
 21
-456
  0
LINE
  8
0
 10
-20.9
 20
-456
 11
-20.9
 21
-452.7
  0
LINE
  8
0
 10
-20.9
 20
-452.7
 11
-7.09999
 21
-452.7
  0
LINE
  8
0
 10
-7.09999
 20
-452.7
 11
-7.09999
 21
-456
  0
LINE
  8
0
 10
-7.09999
 20
-456
 11
7.09998
 21
-456
  0
LINE
  8
0
 10
7.09998
 20
-456
 11
7.09998
 21
-452.7
  0
LINE
  8
0
 10
7.09998
 20
-452.7
 11
20.9
 21
-452.7
  0
LINE
  8
0
 10
20.9
 20
-452.7
 11
20.9
 21
-456
  0
LINE
  8
0
 10
20.9
 20
-456
 11
35.1
 21
-456
  0
LINE
  8
0
 10
35.1
 20
-456
 11
35.1
 21
-452.7
  0
LINE
  8
0
 10
35.1
 20
-452.7
 11
48.9
 21
-452.7
  0
LINE
  8
0
 10
48.9
 20
-452.7
 11
48.9
 21
-456
  0
LINE
  8
0
 10
48.9
 20
-456
 11
63.1
 21
-456
  0
LINE
  8
0
 10
63.1
 20
-456
 11
63.1
 21
-452.7
  0
LINE
  8
0
 10
63.1
 20
-452.7
 11
76.9
 21
-452.7
  0
LINE
  8
0
 10
76.9
 20
-452.7
 11
76.9
 21
-456
  0
LINE
  8
0
 10
76.9
 20
-456
 11
91.1
 21
-456
  0
LINE
  8
0
 10
91.1
 20
-456
 11
91.1
 21
-452.7
  0
LINE
  8
0
 10
91.1
 20
-452.7
 11
96.7
 21
-452.7
  0
LINE
  8
0
 10
96.7
 20
-452.7
 11
96.7
 21
-445.6
  0
LINE
  8
0
 10
96.7
 20
-445.6
 11
100
 21
-445.6
  0
LINE
  8
0
 10
100
 20
-445.6
 11
100
 21
-431.4
  0
LINE
  8
0
 10
100
 20
-431.4
 11
96.7
 21
-431.4
  0
LINE
  8
0
 10
96.7
 20
-431.4
 11
96.7
 21
-417.6
  0
LINE
  8
0
 10
96.7
 20
-417.6
 11
100
 21
-417.6
  0
LINE
  8
0
 10
100
 20
-417.6
 11
100
 21
-403.4
  0
LINE
  8
0
 10
100
 20
-403.4
 11
96.7
 21
-403.4
  0
LINE
  8
0
 10
96.7
 20
-403.4
 11
96.7
 21
-389.6
  0
LINE
  8
0
 10
96.7
 20
-389.6
 11
100
 21
-389.6
  0
LINE
  8
0
 10
100
 20
-389.6
 11
100
 21
-375.4
  0
LINE
  8
0
 10
100
 20
-375.4
 11
96.7
 21
-375.4
  0
LINE
  8
0
 10
96.7
 20
-375.4
 11
96.7
 21
-361.6
  0
LINE
  8
0
 10
96.7
 20
-361.6
 11
100
 21
-361.6
  0
LINE
  8
0
 10
100
 20
-361.6
 11
100
 21
-347.4
  0
LINE
  8
0
 10
100
 20
-347.4
 11
96.7
 21
-347.4
  0
LINE
  8
0
 10
96.7
 20
-347.4
 11
96.7
 21
-333.6
  0
LINE
  8
0
 10
96.7
 20
-333.6
 11
100
 21
-333.6
  0
LINE
  8
0
 10
100
 20
-333.6
 11
100
 21
-319.4
  0
LINE
  8
0
 10
100
 20
-319.4
 11
96.7
 21
-319.4
  0
LINE
  8
0
 10
96.7
 20
-319.4
 11
96.7
 21
-305.6
  0
LINE
  8
0
 10
96.7
 20
-305.6
 11
100
 21
-305.6
  0
LINE
  8
0
 10
100
 20
-305.6
 11
100
 21
-291.4
  0
LINE
  8
0
 10
100
 20
-291.4
 11
96.7
 21
-291.4
  0
LINE
  8
0
 10
96.7
 20
-291.4
 11
96.7
 21
-277.6
  0
LINE
  8
0
 10
96.7
 20
-277.6
 11
100
 21
-277.6
  0
LINE
  8
0
 10
100
 20
-277.6
 11
100
 21
-263.4
  0
LINE
  8
0
 10
100
 20
-263.4
 11
96.7
 21
-263.4
  0
LINE
  8
0
 10
96.7
 20
-263.4
 11
96.7
 21
-249.6
  0
LINE
  8
0
 10
96.7
 20
-249.6
 11
100
 21
-249.6
  0
LINE
  8
0
 10
100
 20
-249.6
 11
100
 21
-235.4
  0
LINE
  8
0
 10
100
 20
-235.4
 11
96.7
 21
-235.4
  0
LINE
  8
0
 10
96.7
 20
-235.4
 11
96.7
 21
-221.6
  0
LINE
  8
0
 10
96.7
 20
-221.6
 11
100
 21
-221.6
  0
LINE
  8
0
 10
100
 20
-221.6
 11
100
 21
-207.4
  0
LINE
  8
0
 10
100
 20
-207.4
 11
96.7
 21
-207.4
  0
LINE
  8
0
 10
96.7
 20
-207.4
 11
96.7
 21
-193.6
  0
LINE
  8
0
 10
96.7
 20
-193.6
 11
100
 21
-193.6
  0
LINE
  8
0
 10
100
 20
-193.6
 11
100
 21
-179.4
  0
LINE
  8
0
 10
100
 20
-179.4
 11
96.7
 21
-179.4
  0
LINE
  8
0
 10
96.7
 20
-179.4
 11
96.7
 21
-172.3
  0
LINE
  8
0
 10
96.7
 20
-172.3
 11
91.1
 21
-172.3
  0
LINE
  8
0
 10
91.1
 20
-172.3
 11
91.1
 21
-169
  0
LINE
  8
0
 10
91.1
 20
-169
 11
76.9
 21
-169
  0
LINE
  8
0
 10
76.9
 20
-169
 11
76.9
 21
-172.3
  0
LINE
  8
0
 10
76.9
 20
-172.3
 11
63.1
 21
-172.3
  0
LINE
  8
0
 10
63.1
 20
-172.3
 11
63.1
 21
-169
  0
LINE
  8
0
 10
63.1
 20
-169
 11
48.9
 21
-169
  0
LINE
  8
0
 10
48.9
 20
-169
 11
48.9
 21
-172.3
  0
LINE
  8
0
 10
48.9
 20
-172.3
 11
35.1
 21
-172.3
  0
LINE
  8
0
 10
35.1
 20
-172.3
 11
35.1
 21
-169
  0
LINE
  8
0
 10
35.1
 20
-169
 11
20.9
 21
-169
  0
LINE
  8
0
 10
20.9
 20
-169
 11
20.9
 21
-172.3
  0
LINE
  8
0
 10
20.9
 20
-172.3
 11
7.09999
 21
-172.3
  0
LINE
  8
0
 10
7.09999
 20
-172.3
 11
7.09999
 21
-169
  0
LINE
  8
0
 10
7.09999
 20
-169
 11
-7.09999
 21
-169
  0
LINE
  8
0
 10
-7.09999
 20
-169
 11
-7.09999
 21
-172.3
  0
LINE
  8
0
 10
-7.09999
 20
-172.3
 11
-20.9
 21
-172.3
  0
LINE
  8
0
 10
-20.9
 20
-172.3
 11
-20.9
 21
-169
  0
LINE
  8
0
 10
-20.9
 20
-169
 11
-35.1
 21
-169
  0
LINE
  8
0
 10
-35.1
 20
-169
 11
-35.1
 21
-172.3
  0
LINE
  8
0
 10
-35.1
 20
-172.3
 11
-48.9
 21
-172.3
  0
LINE
  8
0
 10
-48.9
 20
-172.3
 11
-48.9
 21
-169
  0
LINE
  8
0
 10
-48.9
 20
-169
 11
-63.1
 21
-169
  0
LINE
  8
0
 10
-63.1
 20
-169
 11
-63.1
 21
-172.3
  0
LINE
  8
0
 10
-63.1
 20
-172.3
 11
-76.9
 21
-172.3
  0
LINE
  8
0
 10
-76.9
 20
-172.3
 11
-76.9
 21
-169
  0
LINE
  8
0
 10
-76.9
 20
-169
 11
-91.1
 21
-169
  0
LINE
  8
0
 10
-91.1
 20
-169
 11
-91.1
 21
-172.3
  0
LINE
  8
0
 10
-91.1
 20
-172.3
 11
-96.7
 21
-172.3
  0
LINE
  8
0
 10
-96.7
 20
-172.3
 11
-96.7
 21
-179.4
  0
LINE
  8
0
 10
-96.7
 20
-179.4
 11
-100
 21
-179.4
  0
LINE
  8
0
 10
-100
 20
-179.4
 11
-100
 21
-193.6
  0
LINE
  8
0
 10
-100
 20
-193.6
 11
-96.7
 21
-193.6
  0
LINE
  8
0
 10
-96.7
 20
-193.6
 11
-96.7
 21
-207.4
  0
LINE
  8
0
 10
-96.7
 20
-207.4
 11
-100
 21
-207.4
  0
LINE
  8
0
 10
-100
 20
-207.4
 11
-100
 21
-221.6
  0
LINE
  8
0
 10
-100
 20
-221.6
 11
-96.7
 21
-221.6
  0
LINE
  8
0
 10
-96.7
 20
-221.6
 11
-96.7
 21
-235.4
  0
LINE
  8
0
 10
-96.7
 20
-235.4
 11
-100
 21
-235.4
  0
LINE
  8
0
 10
-100
 20
-235.4
 11
-100
 21
-249.6
  0
LINE
  8
0
 10
-100
 20
-249.6
 11
-96.7
 21
-249.6
  0
LINE
  8
0
 10
-96.7
 20
-249.6
 11
-96.7
 21
-263.4
  0
LINE
  8
0
 10
-96.7
 20
-263.4
 11
-100
 21
-263.4
  0
LINE
  8
0
 10
-100
 20
-263.4
 11
-100
 21
-277.6
  0
LINE
  8
0
 10
-100
 20
-277.6
 11
-96.7
 21
-277.6
  0
LINE
  8
0
 10
-96.7
 20
-277.6
 11
-96.7
 21
-291.4
  0
LINE
  8
0
 10
-96.7
 20
-291.4
 11
-100
 21
-291.4
  0
LINE
  8
0
 10
-100
 20
-291.4
 11
-100
 21
-305.6
  0
LINE
  8
0
 10
-100
 20
-305.6
 11
-96.7
 21
-305.6
  0
LINE
  8
0
 10
-96.7
 20
-305.6
 11
-96.7
 21
-319.4
  0
LINE
  8
0
 10
-96.7
 20
-319.4
 11
-100
 21
-319.4
  0
LINE
  8
0
 10
-100
 20
-319.4
 11
-100
 21
-333.6
  0
LINE
  8
0
 10
-100
 20
-333.6
 11
-96.7
 21
-333.6
  0
LINE
  8
0
 10
-96.7
 20
-333.6
 11
-96.7
 21
-347.4
  0
LINE
  8
0
 10
-96.7
 20
-347.4
 11
-100
 21
-347.4
  0
LINE
  8
0
 10
-100
 20
-347.4
 11
-100
 21
-361.6
  0
LINE
  8
0
 10
-100
 20
-361.6
 11
-96.7
 21
-361.6
  0
LINE
  8
0
 10
-96.7
 20
-361.6
 11
-96.7
 21
-375.4
  0
LINE
  8
0
 10
-96.7
 20
-375.4
 11
-100
 21
-375.4
  0
LINE
  8
0
 10
-100
 20
-375.4
 11
-100
 21
-389.6
  0
LINE
  8
0
 10
-100
 20
-389.6
 11
-96.7
 21
-389.6
  0
LINE
  8
0
 10
-96.7
 20
-389.6
 11
-96.7
 21
-403.4
  0
LINE
  8
0
 10
-96.7
 20
-403.4
 11
-100
 21
-403.4
  0
LINE
  8
0
 10
-100
 20
-403.4
 11
-100
 21
-417.6
  0
LINE
  8
0
 10
-100
 20
-417.6
 11
-96.7
 21
-417.6
  0
LINE
  8
0
 10
-96.7
 20
-417.6
 11
-96.7
 21
-431.4
  0
LINE
  8
0
 10
-96.7
 20
-431.4
 11
-100
 21
-431.4
  0
LINE
  8
0
 10
-100
 20
-431.4
 11
-100
 21
-445.6
  0
LINE
  8
0
 10
-100
 20
-445.6
 11
-96.7
 21
-445.6
  0
LINE
  8
0
 10
-96.7
 20
-445.6
 11
-96.7
 21
-452.7
  0
LINE
  8
0
 10
-96.7
 20
-452.7
 11
-91.1
 21
-452.7
  0
LINE
  8
0
 10
-91.1
 20
-452.7
 11
-91.1
 21
-456
  0
LINE
  8
0
 10
-91.1
 20
-456
 11
-76.9
 21
-456
  0
LINE
  8
0
 10
-76.9
 20
-456
 11
-76.9
 21
-452.7
  0
ENDSEC
  0
SECTION
  2
OBJECTS
  0
DICTIONARY
  0
ENDSEC
  0
EOF
