  0
SECTION
  2
BLOCKS
  0
ENDSEC
  0
SECTION
  2
ENTITIES
  0
LINE
  8
0
 10
207.113
 20
0.180588
 11
208.736
 21
1.26447
  0
LINE
  8
0
 10
208.736
 20
1.26447
 11
209.819
 21
2.88658
  0
LINE
  8
0
 10
209.819
 20
2.88658
 11
210.2
 21
4.79999
  0
LINE
  8
0
 10
210.2
 20
4.79999
 11
210.2
 21
105.2
  0
LINE
  8
0
 10
210.2
 20
105.2
 11
-0.199997
 21
105.2
  0
LINE
  8
0
 10
-0.199997
 20
105.2
 11
-0.199997
 21
4.79999
  0
LINE
  8
0
 10
-0.199997
 20
4.79999
 11
0.180588
 21
2.88658
  0
LINE
  8
0
 10
0.180588
 20
2.88658
 11
1.26447
 21
1.26447
  0
LINE
  8
0
 10
1.26447
 20
1.26447
 11
2.88658
 21
0.180588
  0
LINE
  8
0
 10
2.88658
 20
0.180588
 11
4.79999
 21
-0.199997
  0
LINE
  8
0
 10
4.79999
 20
-0.199997
 11
205.2
 21
-0.199997
  0
LINE
  8
0
 10
205.2
 20
-0.199997
 11
207.113
 21
0.180588
  0
LINE
  8
0
 10
183.75
 20
90.8
 11
183.75
 21
94.2
  0
LINE
  8
0
 10
183.75
 20
94.2
 11
201.25
 21
94.2
  0
LINE
  8
0
 10
201.25
 20
94.2
 11
201.25
 21
90.8
  0
LINE
  8
0
 10
201.25
 20
90.8
 11
183.75
 21
90.8
  0
LINE
  8
0
 10
8.75
 20
90.8
 11
8.75
 21
94.2
  0
LINE
  8
0
 10
8.75
 20
94.2
 11
26.25
 21
94.2
  0
LINE
  8
0
 10
26.25
 20
94.2
 11
26.25
 21
90.8
  0
LINE
  8
0
 10
26.25
 20
90.8
 11
8.75
 21
90.8
  0
LINE
  8
0
 10
33.75
 20
90.8
 11
33.75
 21
94.2
  0
LINE
  8
0
 10
33.75
 20
94.2
 11
51.25
 21
94.2
  0
LINE
  8
0
 10
51.25
 20
94.2
 11
51.25
 21
90.8
  0
LINE
  8
0
 10
51.25
 20
90.8
 11
33.75
 21
90.8
  0
LINE
  8
0
 10
158.75
 20
90.8
 11
158.75
 21
94.2
  0
LINE
  8
0
 10
158.75
 20
94.2
 11
176.25
 21
94.2
  0
LINE
  8
0
 10
176.25
 20
94.2
 11
176.25
 21
90.8
  0
LINE
  8
0
 10
176.25
 20
90.8
 11
158.75
 21
90.8
  0
LINE
  8
0
 10
133.75
 20
90.8
 11
133.75
 21
94.2
  0
LINE
  8
0
 10
133.75
 20
94.2
 11
151.25
 21
94.2
  0
LINE
  8
0
 10
151.25
 20
94.2
 11
151.25
 21
90.8
  0
LINE
  8
0
 10
151.25
 20
90.8
 11
133.75
 21
90.8
  0
LINE
  8
0
 10
108.75
 20
90.8
 11
108.75
 21
94.2
  0
LINE
  8
0
 10
108.75
 20
94.2
 11
126.25
 21
94.2
  0
LINE
  8
0
 10
126.25
 20
94.2
 11
126.25
 21
90.8
  0
LINE
  8
0
 10
126.25
 20
90.8
 11
108.75
 21
90.8
  0
LINE
  8
0
 10
83.75
 20
90.8
 11
83.75
 21
94.2
  0
LINE
  8
0
 10
83.75
 20
94.2
 11
101.25
 21
94.2
  0
LINE
  8
0
 10
101.25
 20
94.2
 11
101.25
 21
90.8
  0
LINE
  8
0
 10
101.25
 20
90.8
 11
83.75
 21
90.8
  0
LINE
  8
0
 10
58.75
 20
90.8
 11
58.75
 21
94.2
  0
LINE
  8
0
 10
58.75
 20
94.2
 11
76.25
 21
94.2
  0
LINE
  8
0
 10
76.25
 20
94.2
 11
76.25
 21
90.8
  0
LINE
  8
0
 10
76.25
 20
90.8
 11
58.75
 21
90.8
  0
LINE
  8
0
 10
33.75
 20
65.8
 11
33.75
 21
69.2
  0
LINE
  8
0
 10
33.75
 20
69.2
 11
51.25
 21
69.2
  0
LINE
  8
0
 10
51.25
 20
69.2
 11
51.25
 21
65.8
  0
LINE
  8
0
 10
51.25
 20
65.8
 11
33.75
 21
65.8
  0
LINE
  8
0
 10
108.75
 20
65.8
 11
108.75
 21
69.2
  0
LINE
  8
0
 10
108.75
 20
69.2
 11
126.25
 21
69.2
  0
LINE
  8
0
 10
126.25
 20
69.2
 11
126.25
 21
65.8
  0
LINE
  8
0
 10
126.25
 20
65.8
 11
108.75
 21
65.8
  0
LINE
  8
0
 10
133.75
 20
65.8
 11
133.75
 21
69.2
  0
LINE
  8
0
 10
133.75
 20
69.2
 11
151.25
 21
69.2
  0
LINE
  8
0
 10
151.25
 20
69.2
 11
151.25
 21
65.8
  0
LINE
  8
0
 10
151.25
 20
65.8
 11
133.75
 21
65.8
  0
LINE
  8
0
 10
8.75
 20
65.8
 11
8.75
 21
69.2
  0
LINE
  8
0
 10
8.75
 20
69.2
 11
26.25
 21
69.2
  0
LINE
  8
0
 10
26.25
 20
69.2
 11
26.25
 21
65.8
  0
LINE
  8
0
 10
26.25
 20
65.8
 11
8.75
 21
65.8
  0
LINE
  8
0
 10
183.75
 20
65.8
 11
183.75
 21
69.2
  0
LINE
  8
0
 10
183.75
 20
69.2
 11
201.25
 21
69.2
  0
LINE
  8
0
 10
201.25
 20
69.2
 11
201.25
 21
65.8
  0
LINE
  8
0
 10
201.25
 20
65.8
 11
183.75
 21
65.8
  0
LINE
  8
0
 10
158.75
 20
65.8
 11
158.75
 21
69.2
  0
LINE
  8
0
 10
158.75
 20
69.2
 11
176.25
 21
69.2
  0
LINE
  8
0
 10
176.25
 20
69.2
 11
176.25
 21
65.8
  0
LINE
  8
0
 10
176.25
 20
65.8
 11
158.75
 21
65.8
  0
LINE
  8
0
 10
58.75
 20
65.8
 11
58.75
 21
69.2
  0
LINE
  8
0
 10
58.75
 20
69.2
 11
76.25
 21
69.2
  0
LINE
  8
0
 10
76.25
 20
69.2
 11
76.25
 21
65.8
  0
LINE
  8
0
 10
76.25
 20
65.8
 11
58.75
 21
65.8
  0
LINE
  8
0
 10
83.75
 20
65.8
 11
83.75
 21
69.2
  0
LINE
  8
0
 10
83.75
 20
69.2
 11
101.25
 21
69.2
  0
LINE
  8
0
 10
101.25
 20
69.2
 11
101.25
 21
65.8
  0
LINE
  8
0
 10
101.25
 20
65.8
 11
83.75
 21
65.8
  0
LINE
  8
0
 10
183.75
 20
40.8
 11
183.75
 21
44.2
  0
LINE
  8
0
 10
183.75
 20
44.2
 11
201.25
 21
44.2
  0
LINE
  8
0
 10
201.25
 20
44.2
 11
201.25
 21
40.8
  0
LINE
  8
0
 10
201.25
 20
40.8
 11
183.75
 21
40.8
  0
LINE
  8
0
 10
33.75
 20
40.8
 11
33.75
 21
44.2
  0
LINE
  8
0
 10
33.75
 20
44.2
 11
51.25
 21
44.2
  0
LINE
  8
0
 10
51.25
 20
44.2
 11
51.25
 21
40.8
  0
LINE
  8
0
 10
51.25
 20
40.8
 11
33.75
 21
40.8
  0
LINE
  8
0
 10
58.75
 20
40.8
 11
58.75
 21
44.2
  0
LINE
  8
0
 10
58.75
 20
44.2
 11
76.25
 21
44.2
  0
LINE
  8
0
 10
76.25
 20
44.2
 11
76.25
 21
40.8
  0
LINE
  8
0
 10
76.25
 20
40.8
 11
58.75
 21
40.8
  0
LINE
  8
0
 10
83.75
 20
40.8
 11
83.75
 21
44.2
  0
LINE
  8
0
 10
83.75
 20
44.2
 11
101.25
 21
44.2
  0
LINE
  8
0
 10
101.25
 20
44.2
 11
101.25
 21
40.8
  0
LINE
  8
0
 10
101.25
 20
40.8
 11
83.75
 21
40.8
  0
LINE
  8
0
 10
108.75
 20
40.8
 11
108.75
 21
44.2
  0
LINE
  8
0
 10
108.75
 20
44.2
 11
126.25
 21
44.2
  0
LINE
  8
0
 10
126.25
 20
44.2
 11
126.25
 21
40.8
  0
LINE
  8
0
 10
126.25
 20
40.8
 11
108.75
 21
40.8
  0
LINE
  8
0
 10
8.75
 20
40.8
 11
8.75
 21
44.2
  0
LINE
  8
0
 10
8.75
 20
44.2
 11
26.25
 21
44.2
  0
LINE
  8
0
 10
26.25
 20
44.2
 11
26.25
 21
40.8
  0
LINE
  8
0
 10
26.25
 20
40.8
 11
8.75
 21
40.8
  0
LINE
  8
0
 10
133.75
 20
40.8
 11
133.75
 21
44.2
  0
LINE
  8
0
 10
133.75
 20
44.2
 11
151.25
 21
44.2
  0
LINE
  8
0
 10
151.25
 20
44.2
 11
151.25
 21
40.8
  0
LINE
  8
0
 10
151.25
 20
40.8
 11
133.75
 21
40.8
  0
LINE
  8
0
 10
158.75
 20
40.8
 11
158.75
 21
44.2
  0
LINE
  8
0
 10
158.75
 20
44.2
 11
176.25
 21
44.2
  0
LINE
  8
0
 10
176.25
 20
44.2
 11
176.25
 21
40.8
  0
LINE
  8
0
 10
176.25
 20
40.8
 11
158.75
 21
40.8
  0
LINE
  8
0
 10
133.75
 20
15.8
 11
133.75
 21
19.2
  0
LINE
  8
0
 10
133.75
 20
19.2
 11
151.25
 21
19.2
  0
LINE
  8
0
 10
151.25
 20
19.2
 11
151.25
 21
15.8
  0
LINE
  8
0
 10
151.25
 20
15.8
 11
133.75
 21
15.8
  0
LINE
  8
0
 10
108.75
 20
15.8
 11
108.75
 21
19.2
  0
LINE
  8
0
 10
108.75
 20
19.2
 11
126.25
 21
19.2
  0
LINE
  8
0
 10
126.25
 20
19.2
 11
126.25
 21
15.8
  0
LINE
  8
0
 10
126.25
 20
15.8
 11
108.75
 21
15.8
  0
LINE
  8
0
 10
158.75
 20
15.8
 11
158.75
 21
19.2
  0
LINE
  8
0
 10
158.75
 20
19.2
 11
176.25
 21
19.2
  0
LINE
  8
0
 10
176.25
 20
19.2
 11
176.25
 21
15.8
  0
LINE
  8
0
 10
176.25
 20
15.8
 11
158.75
 21
15.8
  0
LINE
  8
0
 10
83.75
 20
15.8
 11
83.75
 21
19.2
  0
LINE
  8
0
 10
83.75
 20
19.2
 11
101.25
 21
19.2
  0
LINE
  8
0
 10
101.25
 20
19.2
 11
101.25
 21
15.8
  0
LINE
  8
0
 10
101.25
 20
15.8
 11
83.75
 21
15.8
  0
LINE
  8
0
 10
58.75
 20
15.8
 11
58.75
 21
19.2
  0
LINE
  8
0
 10
58.75
 20
19.2
 11
76.25
 21
19.2
  0
LINE
  8
0
 10
76.25
 20
19.2
 11
76.25
 21
15.8
  0
LINE
  8
0
 10
76.25
 20
15.8
 11
58.75
 21
15.8
  0
LINE
  8
0
 10
183.75
 20
15.8
 11
183.75
 21
19.2
  0
LINE
  8
0
 10
183.75
 20
19.2
 11
201.25
 21
19.2
  0
LINE
  8
0
 10
201.25
 20
19.2
 11
201.25
 21
15.8
  0
LINE
  8
0
 10
201.25
 20
15.8
 11
183.75
 21
15.8
  0
LINE
  8
0
 10
33.75
 20
15.8
 11
33.75
 21
19.2
  0
LINE
  8
0
 10
33.75
 20
19.2
 11
51.25
 21
19.2
  0
LINE
  8
0
 10
51.25
 20
19.2
 11
51.25
 21
15.8
  0
LINE
  8
0
 10
51.25
 20
15.8
 11
33.75
 21
15.8
  0
LINE
  8
0
 10
8.75
 20
15.8
 11
8.75
 21
19.2
  0
LINE
  8
0
 10
8.75
 20
19.2
 11
26.25
 21
19.2
  0
LINE
  8
0
 10
26.25
 20
19.2
 11
26.25
 21
15.8
  0
LINE
  8
0
 10
26.25
 20
15.8
 11
8.75
 21
15.8
  0
ENDSEC
  0
SECTION
  2
OBJECTS
  0
DICTIONARY
  0
ENDSEC
  0
EOF
