  0
SECTION
  2
BLOCKS
  0
ENDSEC
  0
SECTION
  2
ENTITIES
  0
LINE
  8
0
 10
-4.34999
 20
-26.15
 11
4.34999
 21
-26.15
  0
LINE
  8
0
 10
4.34999
 20
-26.15
 11
4.34999
 21
-29.5
  0
LINE
  8
0
 10
4.34999
 20
-29.5
 11
13.65
 21
-29.5
  0
LINE
  8
0
 10
13.65
 20
-29.5
 11
13.65
 21
-26.15
  0
LINE
  8
0
 10
13.65
 20
-26.15
 11
21.65
 21
-26.15
  0
LINE
  8
0
 10
21.65
 20
-26.15
 11
21.65
 21
-22.15
  0
LINE
  8
0
 10
21.65
 20
-22.15
 11
25
 21
-22.15
  0
LINE
  8
0
 10
25
 20
-22.15
 11
25
 21
-12.85
  0
LINE
  8
0
 10
25
 20
-12.85
 11
21.65
 21
-12.85
  0
LINE
  8
0
 10
21.65
 20
-12.85
 11
21.65
 21
-4.14998
  0
LINE
  8
0
 10
21.65
 20
-4.14998
 11
25
 21
-4.14998
  0
LINE
  8
0
 10
25
 20
-4.14998
 11
25
 21
5.14999
  0
LINE
  8
0
 10
25
 20
5.14999
 11
21.65
 21
5.14999
  0
LINE
  8
0
 10
21.65
 20
5.14999
 11
21.65
 21
13.85
  0
LINE
  8
0
 10
21.65
 20
13.85
 11
25
 21
13.85
  0
LINE
  8
0
 10
25
 20
13.85
 11
25
 21
23.15
  0
LINE
  8
0
 10
25
 20
23.15
 11
21.65
 21
23.15
  0
LINE
  8
0
 10
21.65
 20
23.15
 11
21.65
 21
27.15
  0
LINE
  8
0
 10
21.65
 20
27.15
 11
13.65
 21
27.15
  0
LINE
  8
0
 10
13.65
 20
27.15
 11
13.65
 21
30.5
  0
LINE
  8
0
 10
13.65
 20
30.5
 11
4.34999
 21
30.5
  0
LINE
  8
0
 10
4.34999
 20
30.5
 11
4.34999
 21
27.15
  0
LINE
  8
0
 10
4.34999
 20
27.15
 11
-4.35001
 21
27.15
  0
LINE
  8
0
 10
-4.35001
 20
27.15
 11
-4.35001
 21
30.5
  0
LINE
  8
0
 10
-4.35001
 20
30.5
 11
-13.65
 21
30.5
  0
LINE
  8
0
 10
-13.65
 20
30.5
 11
-13.65
 21
27.15
  0
LINE
  8
0
 10
-13.65
 20
27.15
 11
-21.65
 21
27.15
  0
LINE
  8
0
 10
-21.65
 20
27.15
 11
-21.65
 21
23.15
  0
LINE
  8
0
 10
-21.65
 20
23.15
 11
-25
 21
23.15
  0
LINE
  8
0
 10
-25
 20
23.15
 11
-25
 21
13.85
  0
LINE
  8
0
 10
-25
 20
13.85
 11
-21.65
 21
13.85
  0
LINE
  8
0
 10
-21.65
 20
13.85
 11
-21.65
 21
5.14999
  0
LINE
  8
0
 10
-21.65
 20
5.14999
 11
-25
 21
5.14999
  0
LINE
  8
0
 10
-25
 20
5.14999
 11
-25
 21
-4.14998
  0
LINE
  8
0
 10
-25
 20
-4.14998
 11
-21.65
 21
-4.14998
  0
LINE
  8
0
 10
-21.65
 20
-4.14998
 11
-21.65
 21
-12.85
  0
LINE
  8
0
 10
-21.65
 20
-12.85
 11
-25
 21
-12.85
  0
LINE
  8
0
 10
-25
 20
-12.85
 11
-25
 21
-22.15
  0
LINE
  8
0
 10
-25
 20
-22.15
 11
-21.65
 21
-22.15
  0
LINE
  8
0
 10
-21.65
 20
-22.15
 11
-21.65
 21
-26.15
  0
LINE
  8
0
 10
-21.65
 20
-26.15
 11
-13.65
 21
-26.15
  0
LINE
  8
0
 10
-13.65
 20
-26.15
 11
-13.65
 21
-29.5
  0
LINE
  8
0
 10
-13.65
 20
-29.5
 11
-4.34999
 21
-29.5
  0
LINE
  8
0
 10
-4.34999
 20
-29.5
 11
-4.34999
 21
-26.15
  0
LINE
  8
0
 10
-10
 20
-1.5
 11
-10
 21
2.5
  0
LINE
  8
0
 10
-10
 20
2.5
 11
10
 21
2.5
  0
LINE
  8
0
 10
10
 20
2.5
 11
10
 21
-1.5
  0
LINE
  8
0
 10
10
 20
-1.5
 11
-10
 21
-1.5
  0
LINE
  8
0
 10
33.15
 20
-96.65
 11
41.85
 21
-96.65
  0
LINE
  8
0
 10
41.85
 20
-96.65
 11
41.85
 21
-100
  0
LINE
  8
0
 10
41.85
 20
-100
 11
51.15
 21
-100
  0
LINE
  8
0
 10
51.15
 20
-100
 11
51.15
 21
-96.65
  0
LINE
  8
0
 10
51.15
 20
-96.65
 11
59.85
 21
-96.65
  0
LINE
  8
0
 10
59.85
 20
-96.65
 11
59.85
 21
-100
  0
LINE
  8
0
 10
59.85
 20
-100
 11
69.15
 21
-100
  0
LINE
  8
0
 10
69.15
 20
-100
 11
69.15
 21
-96.65
  0
LINE
  8
0
 10
69.15
 20
-96.65
 11
77.85
 21
-96.65
  0
LINE
  8
0
 10
77.85
 20
-96.65
 11
77.85
 21
-100
  0
LINE
  8
0
 10
77.85
 20
-100
 11
85.5
 21
-100
  0
LINE
  8
0
 10
85.5
 20
-100
 11
85.5
 21
-96.35
  0
LINE
  8
0
 10
85.5
 20
-96.35
 11
82.15
 21
-96.35
  0
LINE
  8
0
 10
82.15
 20
-96.35
 11
82.15
 21
-87.65
  0
LINE
  8
0
 10
82.15
 20
-87.65
 11
85.5
 21
-87.65
  0
LINE
  8
0
 10
85.5
 20
-87.65
 11
85.5
 21
-78.35
  0
LINE
  8
0
 10
85.5
 20
-78.35
 11
82.15
 21
-78.35
  0
LINE
  8
0
 10
82.15
 20
-78.35
 11
82.15
 21
-69.65
  0
LINE
  8
0
 10
82.15
 20
-69.65
 11
85.5
 21
-69.65
  0
LINE
  8
0
 10
85.5
 20
-69.65
 11
85.5
 21
-60.35
  0
LINE
  8
0
 10
85.5
 20
-60.35
 11
82.15
 21
-60.35
  0
LINE
  8
0
 10
82.15
 20
-60.35
 11
82.15
 21
-51.65
  0
LINE
  8
0
 10
82.15
 20
-51.65
 11
85.5
 21
-51.65
  0
LINE
  8
0
 10
85.5
 20
-51.65
 11
85.5
 21
-42.35
  0
LINE
  8
0
 10
85.5
 20
-42.35
 11
82.15
 21
-42.35
  0
LINE
  8
0
 10
82.15
 20
-42.35
 11
82.15
 21
-33.65
  0
LINE
  8
0
 10
82.15
 20
-33.65
 11
85.5
 21
-33.65
  0
LINE
  8
0
 10
85.5
 20
-33.65
 11
85.5
 21
-30
  0
LINE
  8
0
 10
85.5
 20
-30
 11
77.85
 21
-30
  0
LINE
  8
0
 10
77.85
 20
-30
 11
77.85
 21
-33.35
  0
LINE
  8
0
 10
77.85
 20
-33.35
 11
69.15
 21
-33.35
  0
LINE
  8
0
 10
69.15
 20
-33.35
 11
69.15
 21
-30
  0
LINE
  8
0
 10
69.15
 20
-30
 11
59.85
 21
-30
  0
LINE
  8
0
 10
59.85
 20
-30
 11
59.85
 21
-33.35
  0
LINE
  8
0
 10
59.85
 20
-33.35
 11
51.15
 21
-33.35
  0
LINE
  8
0
 10
51.15
 20
-33.35
 11
51.15
 21
-30
  0
LINE
  8
0
 10
51.15
 20
-30
 11
41.85
 21
-30
  0
LINE
  8
0
 10
41.85
 20
-30
 11
41.85
 21
-33.35
  0
LINE
  8
0
 10
41.85
 20
-33.35
 11
33.15
 21
-33.35
  0
LINE
  8
0
 10
33.15
 20
-33.35
 11
33.15
 21
-30
  0
LINE
  8
0
 10
33.15
 20
-30
 11
25.5
 21
-30
  0
LINE
  8
0
 10
25.5
 20
-30
 11
25.5
 21
-33.65
  0
LINE
  8
0
 10
25.5
 20
-33.65
 11
28.85
 21
-33.65
  0
LINE
  8
0
 10
28.85
 20
-33.65
 11
28.85
 21
-42.35
  0
LINE
  8
0
 10
28.85
 20
-42.35
 11
25.5
 21
-42.35
  0
LINE
  8
0
 10
25.5
 20
-42.35
 11
25.5
 21
-51.65
  0
LINE
  8
0
 10
25.5
 20
-51.65
 11
28.85
 21
-51.65
  0
LINE
  8
0
 10
28.85
 20
-51.65
 11
28.85
 21
-60.35
  0
LINE
  8
0
 10
28.85
 20
-60.35
 11
25.5
 21
-60.35
  0
LINE
  8
0
 10
25.5
 20
-60.35
 11
25.5
 21
-69.65
  0
LINE
  8
0
 10
25.5
 20
-69.65
 11
28.85
 21
-69.65
  0
LINE
  8
0
 10
28.85
 20
-69.65
 11
28.85
 21
-78.35
  0
LINE
  8
0
 10
28.85
 20
-78.35
 11
25.5
 21
-78.35
  0
LINE
  8
0
 10
25.5
 20
-78.35
 11
25.5
 21
-87.65
  0
LINE
  8
0
 10
25.5
 20
-87.65
 11
28.85
 21
-87.65
  0
LINE
  8
0
 10
28.85
 20
-87.65
 11
28.85
 21
-96.35
  0
LINE
  8
0
 10
28.85
 20
-96.35
 11
25.5
 21
-96.35
  0
LINE
  8
0
 10
25.5
 20
-96.35
 11
25.5
 21
-100
  0
LINE
  8
0
 10
25.5
 20
-100
 11
33.15
 21
-100
  0
LINE
  8
0
 10
33.15
 20
-100
 11
33.15
 21
-96.65
  0
LINE
  8
0
 10
59.898
 20
-67.8125
 11
59.898
 21
-59.7485
  0
LINE
  8
0
 10
59.898
 20
-59.7485
 11
60.877
 21
-59.7485
  0
LINE
  8
0
 10
60.877
 20
-59.7485
 11
60.877
 21
-61.8315
  0
LINE
  8
0
 10
60.877
 20
-61.8315
 11
60.8758
 21
-61.9974
  0
LINE
  8
0
 10
60.8758
 20
-61.9974
 11
60.8723
 21
-62.166
  0
LINE
  8
0
 10
60.8723
 20
-62.166
 11
60.8663
 21
-62.3374
  0
LINE
  8
0
 10
60.8663
 20
-62.3374
 11
60.858
 21
-62.5115
  0
LINE
  8
0
 10
60.858
 20
-62.5115
 11
60.833
 21
-62.9155
  0
LINE
  8
0
 10
60.833
 20
-62.9155
 11
60.85
 21
-62.9155
  0
LINE
  8
0
 10
60.85
 20
-62.9155
 11
61.016
 21
-62.6453
  0
LINE
  8
0
 10
61.016
 20
-62.6453
 11
61.198
 21
-62.4138
  0
LINE
  8
0
 10
61.198
 20
-62.4138
 11
61.396
 21
-62.2208
  0
LINE
  8
0
 10
61.396
 20
-62.2208
 11
61.61
 21
-62.0665
  0
LINE
  8
0
 10
61.61
 20
-62.0665
 11
61.8473
 21
-61.9484
  0
LINE
  8
0
 10
61.8473
 20
-61.9484
 11
62.1143
 21
-61.864
  0
LINE
  8
0
 10
62.1143
 20
-61.864
 11
62.4108
 21
-61.8134
  0
LINE
  8
0
 10
62.4108
 20
-61.8134
 11
62.737
 21
-61.7965
  0
LINE
  8
0
 10
62.737
 20
-61.7965
 11
63.185
 21
-61.8264
  0
LINE
  8
0
 10
63.185
 20
-61.8264
 11
63.57
 21
-61.916
  0
LINE
  8
0
 10
63.57
 20
-61.916
 11
63.892
 21
-62.0654
  0
LINE
  8
0
 10
63.892
 20
-62.0654
 11
64.151
 21
-62.2745
  0
LINE
  8
0
 10
64.151
 20
-62.2745
 11
64.3505
 21
-62.5535
  0
LINE
  8
0
 10
64.3505
 20
-62.5535
 11
64.493
 21
-62.9135
  0
LINE
  8
0
 10
64.493
 20
-62.9135
 11
64.5785
 21
-63.3545
  0
LINE
  8
0
 10
64.5785
 20
-63.3545
 11
64.607
 21
-63.8765
  0
LINE
  8
0
 10
64.607
 20
-63.8765
 11
64.607
 21
-67.8125
  0
LINE
  8
0
 10
64.607
 20
-67.8125
 11
63.623
 21
-67.8125
  0
LINE
  8
0
 10
63.623
 20
-67.8125
 11
63.623
 21
-64.0655
  0
LINE
  8
0
 10
63.623
 20
-64.0655
 11
63.6158
 21
-63.774
  0
LINE
  8
0
 10
63.6158
 20
-63.774
 11
63.5943
 21
-63.5225
  0
LINE
  8
0
 10
63.5943
 20
-63.5225
 11
63.5583
 21
-63.311
  0
LINE
  8
0
 10
63.5583
 20
-63.311
 11
63.508
 21
-63.1395
  0
LINE
  8
0
 10
63.508
 20
-63.1395
 11
63.4418
 21
-62.9981
  0
LINE
  8
0
 10
63.4418
 20
-62.9981
 11
63.357
 21
-62.8768
  0
LINE
  8
0
 10
63.357
 20
-62.8768
 11
63.2538
 21
-62.7756
  0
LINE
  8
0
 10
63.2538
 20
-62.7756
 11
63.132
 21
-62.6945
  0
LINE
  8
0
 10
63.132
 20
-62.6945
 11
62.9884
 21
-62.6324
  0
LINE
  8
0
 10
62.9884
 20
-62.6324
 11
62.8195
 21
-62.588
  0
LINE
  8
0
 10
62.8195
 20
-62.588
 11
62.6254
 21
-62.5614
  0
LINE
  8
0
 10
62.6254
 20
-62.5614
 11
62.406
 21
-62.5525
  0
LINE
  8
0
 10
62.406
 20
-62.5525
 11
62.0763
 21
-62.5826
  0
LINE
  8
0
 10
62.0763
 20
-62.5826
 11
61.781
 21
-62.6728
  0
LINE
  8
0
 10
61.781
 20
-62.6728
 11
61.5203
 21
-62.8231
  0
LINE
  8
0
 10
61.5203
 20
-62.8231
 11
61.294
 21
-63.0335
  0
LINE
  8
0
 10
61.294
 20
-63.0335
 11
61.1116
 21
-63.2944
  0
LINE
  8
0
 10
61.1116
 20
-63.2944
 11
60.9813
 21
-63.597
  0
LINE
  8
0
 10
60.9813
 20
-63.597
 11
60.9031
 21
-63.9414
  0
LINE
  8
0
 10
60.9031
 20
-63.9414
 11
60.877
 21
-64.3275
  0
LINE
  8
0
 10
60.877
 20
-64.3275
 11
60.877
 21
-67.8125
  0
LINE
  8
0
 10
60.877
 20
-67.8125
 11
59.898
 21
-67.8125
  0
LINE
  8
0
 10
51.4122
 20
-60.6835
 11
51.4122
 21
-59.7485
  0
LINE
  8
0
 10
51.4122
 20
-59.7485
 11
52.3912
 21
-59.7485
  0
LINE
  8
0
 10
52.3912
 20
-59.7485
 11
52.3912
 21
-60.6835
  0
LINE
  8
0
 10
52.3912
 20
-60.6835
 11
51.4122
 21
-60.6835
  0
LINE
  8
0
 10
43.7226
 20
-67.8125
 11
43.7226
 21
-60.1325
  0
LINE
  8
0
 10
43.7226
 20
-60.1325
 11
47.3376
 21
-60.1325
  0
LINE
  8
0
 10
47.3376
 20
-60.1325
 11
47.9496
 21
-60.1686
  0
LINE
  8
0
 10
47.9496
 20
-60.1686
 11
48.4877
 21
-60.277
  0
LINE
  8
0
 10
48.4877
 20
-60.277
 11
48.9516
 21
-60.4576
  0
LINE
  8
0
 10
48.9516
 20
-60.4576
 11
49.3416
 21
-60.7105
  0
LINE
  8
0
 10
49.3416
 20
-60.7105
 11
49.6505
 21
-61.0273
  0
LINE
  8
0
 10
49.6505
 20
-61.0273
 11
49.8712
 21
-61.4008
  0
LINE
  8
0
 10
49.8712
 20
-61.4008
 11
50.0035
 21
-61.8308
  0
LINE
  8
0
 10
50.0035
 20
-61.8308
 11
50.0477
 21
-62.3175
  0
LINE
  8
0
 10
50.0477
 20
-62.3175
 11
50.0164
 21
-62.7265
  0
LINE
  8
0
 10
50.0164
 20
-62.7265
 11
49.9227
 21
-63.1015
  0
LINE
  8
0
 10
49.9227
 20
-63.1015
 11
49.7664
 21
-63.4425
  0
LINE
  8
0
 10
49.7664
 20
-63.4425
 11
49.5477
 21
-63.7495
  0
LINE
  8
0
 10
49.5477
 20
-63.7495
 11
49.2745
 21
-64.0128
  0
LINE
  8
0
 10
49.2745
 20
-64.0128
 11
48.9539
 21
-64.2225
  0
LINE
  8
0
 10
48.9539
 20
-64.2225
 11
48.586
 21
-64.3788
  0
LINE
  8
0
 10
48.586
 20
-64.3788
 11
48.1707
 21
-64.4815
  0
LINE
  8
0
 10
48.1707
 20
-64.4815
 11
50.3526
 21
-67.8125
  0
LINE
  8
0
 10
50.3526
 20
-67.8125
 11
49.1557
 21
-67.8125
  0
LINE
  8
0
 10
49.1557
 20
-67.8125
 11
47.1586
 21
-64.6015
  0
LINE
  8
0
 10
47.1586
 20
-64.6015
 11
44.7607
 21
-64.6015
  0
LINE
  8
0
 10
44.7607
 20
-64.6015
 11
44.7607
 21
-67.8125
  0
LINE
  8
0
 10
44.7607
 20
-67.8125
 11
43.7226
 21
-67.8125
  0
LINE
  8
0
 10
47.6667
 20
-63.7566
 11
48.0089
 21
-63.685
  0
LINE
  8
0
 10
48.0089
 20
-63.685
 11
48.3042
 21
-63.5656
  0
LINE
  8
0
 10
48.3042
 20
-63.5656
 11
48.5526
 21
-63.3985
  0
LINE
  8
0
 10
48.5526
 20
-63.3985
 11
48.75
 21
-63.1884
  0
LINE
  8
0
 10
48.75
 20
-63.1884
 11
48.8909
 21
-62.9403
  0
LINE
  8
0
 10
48.8909
 20
-62.9403
 11
48.9755
 21
-62.6539
  0
LINE
  8
0
 10
48.9755
 20
-62.6539
 11
49.0036
 21
-62.3295
  0
LINE
  8
0
 10
49.0036
 20
-62.3295
 11
48.9751
 21
-62.0163
  0
LINE
  8
0
 10
48.9751
 20
-62.0163
 11
48.8896
 21
-61.7428
  0
LINE
  8
0
 10
48.8896
 20
-61.7428
 11
48.7471
 21
-61.5088
  0
LINE
  8
0
 10
48.7471
 20
-61.5088
 11
48.5477
 21
-61.3145
  0
LINE
  8
0
 10
48.5477
 20
-61.3145
 11
48.2946
 21
-61.1614
  0
LINE
  8
0
 10
48.2946
 20
-61.1614
 11
47.9914
 21
-61.052
  0
LINE
  8
0
 10
47.9914
 20
-61.052
 11
47.6381
 21
-60.9864
  0
LINE
  8
0
 10
47.6381
 20
-60.9864
 11
47.2346
 21
-60.9645
  0
LINE
  8
0
 10
47.2346
 20
-60.9645
 11
44.7607
 21
-60.9645
  0
LINE
  8
0
 10
44.7607
 20
-60.9645
 11
44.7607
 21
-63.7805
  0
LINE
  8
0
 10
44.7607
 20
-63.7805
 11
47.2776
 21
-63.7805
  0
LINE
  8
0
 10
47.2776
 20
-63.7805
 11
47.6667
 21
-63.7566
  0
LINE
  8
0
 10
66.6697
 20
-67.7935
 11
66.3054
 21
-67.5445
  0
LINE
  8
0
 10
66.3054
 20
-67.5445
 11
66.0867
 21
-67.1295
  0
LINE
  8
0
 10
66.0867
 20
-67.1295
 11
66.0139
 21
-66.5485
  0
LINE
  8
0
 10
66.0139
 20
-66.5485
 11
66.0139
 21
-62.6365
  0
LINE
  8
0
 10
66.0139
 20
-62.6365
 11
65.3349
 21
-62.6365
  0
LINE
  8
0
 10
65.3349
 20
-62.6365
 11
65.3349
 21
-61.9245
  0
LINE
  8
0
 10
65.3349
 20
-61.9245
 11
66.0519
 21
-61.9245
  0
LINE
  8
0
 10
66.0519
 20
-61.9245
 11
66.3409
 21
-60.5805
  0
LINE
  8
0
 10
66.3409
 20
-60.5805
 11
66.9929
 21
-60.5805
  0
LINE
  8
0
 10
66.9929
 20
-60.5805
 11
66.9929
 21
-61.9245
  0
LINE
  8
0
 10
66.9929
 20
-61.9245
 11
68.0649
 21
-61.9245
  0
LINE
  8
0
 10
68.0649
 20
-61.9245
 11
68.0649
 21
-62.6365
  0
LINE
  8
0
 10
68.0649
 20
-62.6365
 11
66.9929
 21
-62.6365
  0
LINE
  8
0
 10
66.9929
 20
-62.6365
 11
66.9929
 21
-66.3345
  0
LINE
  8
0
 10
66.9929
 20
-66.3345
 11
67.0014
 21
-66.5302
  0
LINE
  8
0
 10
67.0014
 20
-66.5302
 11
67.0269
 21
-66.6945
  0
LINE
  8
0
 10
67.0269
 20
-66.6945
 11
67.0694
 21
-66.8272
  0
LINE
  8
0
 10
67.0694
 20
-66.8272
 11
67.1289
 21
-66.9285
  0
LINE
  8
0
 10
67.1289
 20
-66.9285
 11
67.2099
 21
-67.0029
  0
LINE
  8
0
 10
67.2099
 20
-67.0029
 11
67.3161
 21
-67.056
  0
LINE
  8
0
 10
67.3161
 20
-67.056
 11
67.4474
 21
-67.0879
  0
LINE
  8
0
 10
67.4474
 20
-67.0879
 11
67.6039
 21
-67.0985
  0
LINE
  8
0
 10
67.6039
 20
-67.0985
 11
67.7111
 21
-67.0938
  0
LINE
  8
0
 10
67.7111
 20
-67.0938
 11
67.8399
 21
-67.0795
  0
LINE
  8
0
 10
67.8399
 20
-67.0795
 11
67.9901
 21
-67.0557
  0
LINE
  8
0
 10
67.9901
 20
-67.0557
 11
68.1619
 21
-67.0225
  0
LINE
  8
0
 10
68.1619
 20
-67.0225
 11
68.1619
 21
-67.7455
  0
LINE
  8
0
 10
68.1619
 20
-67.7455
 11
67.9205
 21
-67.8028
  0
LINE
  8
0
 10
67.9205
 20
-67.8028
 11
67.6764
 21
-67.8438
  0
LINE
  8
0
 10
67.6764
 20
-67.8438
 11
67.4295
 21
-67.8683
  0
LINE
  8
0
 10
67.4295
 20
-67.8683
 11
67.1799
 21
-67.8765
  0
LINE
  8
0
 10
67.1799
 20
-67.8765
 11
66.6697
 21
-67.7935
  0
LINE
  8
0
 10
55.6052
 20
-70.0929
 11
55.1964
 21
-70.022
  0
LINE
  8
0
 10
55.1964
 20
-70.022
 11
54.8367
 21
-69.9039
  0
LINE
  8
0
 10
54.8367
 20
-69.9039
 11
54.5262
 21
-69.7385
  0
LINE
  8
0
 10
54.5262
 20
-69.7385
 11
54.2657
 21
-69.5296
  0
LINE
  8
0
 10
54.2657
 20
-69.5296
 11
54.0562
 21
-69.281
  0
LINE
  8
0
 10
54.0562
 20
-69.281
 11
53.8977
 21
-68.9926
  0
LINE
  8
0
 10
53.8977
 20
-68.9926
 11
53.7902
 21
-68.6645
  0
LINE
  8
0
 10
53.7902
 20
-68.6645
 11
54.7752
 21
-68.5235
  0
LINE
  8
0
 10
54.7752
 20
-68.5235
 11
54.8391
 21
-68.7157
  0
LINE
  8
0
 10
54.8391
 20
-68.7157
 11
54.9327
 21
-68.8845
  0
LINE
  8
0
 10
54.9327
 20
-68.8845
 11
55.0561
 21
-69.0297
  0
LINE
  8
0
 10
55.0561
 20
-69.0297
 11
55.2092
 21
-69.1515
  0
LINE
  8
0
 10
55.2092
 20
-69.1515
 11
55.3903
 21
-69.2477
  0
LINE
  8
0
 10
55.3903
 20
-69.2477
 11
55.5977
 21
-69.3165
  0
LINE
  8
0
 10
55.5977
 20
-69.3165
 11
55.8313
 21
-69.3577
  0
LINE
  8
0
 10
55.8313
 20
-69.3577
 11
56.0912
 21
-69.3715
  0
LINE
  8
0
 10
56.0912
 20
-69.3715
 11
56.7334
 21
-69.2655
  0
LINE
  8
0
 10
56.7334
 20
-69.2655
 11
57.1922
 21
-68.9477
  0
LINE
  8
0
 10
57.1922
 20
-68.9477
 11
57.4674
 21
-68.4181
  0
LINE
  8
0
 10
57.4674
 20
-68.4181
 11
57.5592
 21
-67.6765
  0
LINE
  8
0
 10
57.5592
 20
-67.6765
 11
57.5592
 21
-66.7405
  0
LINE
  8
0
 10
57.5592
 20
-66.7405
 11
57.5482
 21
-66.7405
  0
LINE
  8
0
 10
57.5482
 20
-66.7405
 11
57.3962
 21
-67.0056
  0
LINE
  8
0
 10
57.3962
 20
-67.0056
 11
57.2182
 21
-67.2357
  0
LINE
  8
0
 10
57.2182
 20
-67.2357
 11
57.0142
 21
-67.4311
  0
LINE
  8
0
 10
57.0142
 20
-67.4311
 11
56.7842
 21
-67.5915
  0
LINE
  8
0
 10
56.7842
 20
-67.5915
 11
56.5314
 21
-67.7162
  0
LINE
  8
0
 10
56.5314
 20
-67.7162
 11
56.2582
 21
-67.8052
  0
LINE
  8
0
 10
56.2582
 20
-67.8052
 11
55.9644
 21
-67.8587
  0
LINE
  8
0
 10
55.9644
 20
-67.8587
 11
55.6502
 21
-67.8765
  0
LINE
  8
0
 10
55.6502
 20
-67.8765
 11
55.1436
 21
-67.8317
  0
LINE
  8
0
 10
55.1436
 20
-67.8317
 11
54.7089
 21
-67.6972
  0
LINE
  8
0
 10
54.7089
 20
-67.6972
 11
54.3461
 21
-67.4732
  0
LINE
  8
0
 10
54.3461
 20
-67.4732
 11
54.0552
 21
-67.1595
  0
LINE
  8
0
 10
54.0552
 20
-67.1595
 11
53.8321
 21
-66.7492
  0
LINE
  8
0
 10
53.8321
 20
-66.7492
 11
53.6727
 21
-66.2365
  0
LINE
  8
0
 10
53.6727
 20
-66.2365
 11
53.5771
 21
-65.6212
  0
LINE
  8
0
 10
53.5771
 20
-65.6212
 11
53.5452
 21
-64.9035
  0
LINE
  8
0
 10
53.5452
 20
-64.9035
 11
53.5794
 21
-64.1751
  0
LINE
  8
0
 10
53.5794
 20
-64.1751
 11
53.6822
 21
-63.5488
  0
LINE
  8
0
 10
53.6822
 20
-63.5488
 11
53.8534
 21
-63.0246
  0
LINE
  8
0
 10
53.8534
 20
-63.0246
 11
54.0932
 21
-62.6025
  0
LINE
  8
0
 10
54.0932
 20
-62.6025
 11
54.4028
 21
-62.2779
  0
LINE
  8
0
 10
54.4028
 20
-62.2779
 11
54.7837
 21
-62.046
  0
LINE
  8
0
 10
54.7837
 20
-62.046
 11
55.2358
 21
-61.9069
  0
LINE
  8
0
 10
55.2358
 20
-61.9069
 11
55.7592
 21
-61.8605
  0
LINE
  8
0
 10
55.7592
 20
-61.8605
 11
56.0623
 21
-61.8784
  0
LINE
  8
0
 10
56.0623
 20
-61.8784
 11
56.3447
 21
-61.932
  0
LINE
  8
0
 10
56.3447
 20
-61.932
 11
56.6063
 21
-62.0214
  0
LINE
  8
0
 10
56.6063
 20
-62.0214
 11
56.8472
 21
-62.1465
  0
LINE
  8
0
 10
56.8472
 20
-62.1465
 11
57.0645
 21
-62.3041
  0
LINE
  8
0
 10
57.0645
 20
-62.3041
 11
57.2557
 21
-62.492
  0
LINE
  8
0
 10
57.2557
 20
-62.492
 11
57.4205
 21
-62.7101
  0
LINE
  8
0
 10
57.4205
 20
-62.7101
 11
57.5592
 21
-62.9585
  0
LINE
  8
0
 10
57.5592
 20
-62.9585
 11
57.5702
 21
-62.9585
  0
LINE
  8
0
 10
57.5702
 20
-62.9585
 11
57.5754
 21
-62.7293
  0
LINE
  8
0
 10
57.5754
 20
-62.7293
 11
57.5912
 21
-62.3775
  0
LINE
  8
0
 10
57.5912
 20
-62.3775
 11
57.6022
 21
-62.1939
  0
LINE
  8
0
 10
57.6022
 20
-62.1939
 11
57.6132
 21
-62.0573
  0
LINE
  8
0
 10
57.6132
 20
-62.0573
 11
57.6242
 21
-61.9674
  0
LINE
  8
0
 10
57.6242
 20
-61.9674
 11
57.6352
 21
-61.9245
  0
LINE
  8
0
 10
57.6352
 20
-61.9245
 11
58.5652
 21
-61.9245
  0
LINE
  8
0
 10
58.5652
 20
-61.9245
 11
58.5507
 21
-62.1109
  0
LINE
  8
0
 10
58.5507
 20
-62.1109
 11
58.5404
 21
-62.376
  0
LINE
  8
0
 10
58.5404
 20
-62.376
 11
58.5342
 21
-62.7199
  0
LINE
  8
0
 10
58.5342
 20
-62.7199
 11
58.5322
 21
-63.1425
  0
LINE
  8
0
 10
58.5322
 20
-63.1425
 11
58.5322
 21
-67.6375
  0
LINE
  8
0
 10
58.5322
 20
-67.6375
 11
58.3779
 21
-68.7221
  0
LINE
  8
0
 10
58.3779
 20
-68.7221
 11
57.9149
 21
-69.4967
  0
LINE
  8
0
 10
57.9149
 20
-69.4967
 11
57.1434
 21
-69.9615
  0
LINE
  8
0
 10
57.1434
 20
-69.9615
 11
56.0632
 21
-70.1165
  0
LINE
  8
0
 10
56.0632
 20
-70.1165
 11
55.6052
 21
-70.0929
  0
LINE
  8
0
 10
56.2067
 20
-67.1366
 11
56.4192
 21
-67.0857
  0
LINE
  8
0
 10
56.4192
 20
-67.0857
 11
56.6187
 21
-67.0011
  0
LINE
  8
0
 10
56.6187
 20
-67.0011
 11
56.8052
 21
-66.8825
  0
LINE
  8
0
 10
56.8052
 20
-66.8825
 11
56.9754
 21
-66.7317
  0
LINE
  8
0
 10
56.9754
 20
-66.7317
 11
57.1249
 21
-66.5515
  0
LINE
  8
0
 10
57.1249
 20
-66.5515
 11
57.2538
 21
-66.3417
  0
LINE
  8
0
 10
57.2538
 20
-66.3417
 11
57.3622
 21
-66.1025
  0
LINE
  8
0
 10
57.3622
 20
-66.1025
 11
57.4483
 21
-65.8364
  0
LINE
  8
0
 10
57.4483
 20
-65.8364
 11
57.5099
 21
-65.5462
  0
LINE
  8
0
 10
57.5099
 20
-65.5462
 11
57.5468
 21
-65.2319
  0
LINE
  8
0
 10
57.5468
 20
-65.2319
 11
57.5592
 21
-64.8935
  0
LINE
  8
0
 10
57.5592
 20
-64.8935
 11
57.5468
 21
-64.5474
  0
LINE
  8
0
 10
57.5468
 20
-64.5474
 11
57.5099
 21
-64.226
  0
LINE
  8
0
 10
57.5099
 20
-64.226
 11
57.4483
 21
-63.9294
  0
LINE
  8
0
 10
57.4483
 20
-63.9294
 11
57.3622
 21
-63.6575
  0
LINE
  8
0
 10
57.3622
 20
-63.6575
 11
57.254
 21
-63.4133
  0
LINE
  8
0
 10
57.254
 20
-63.4133
 11
57.1257
 21
-63.1998
  0
LINE
  8
0
 10
57.1257
 20
-63.1998
 11
56.977
 21
-63.0168
  0
LINE
  8
0
 10
56.977
 20
-63.0168
 11
56.8082
 21
-62.8645
  0
LINE
  8
0
 10
56.8082
 20
-62.8645
 11
56.6236
 21
-62.7442
  0
LINE
  8
0
 10
56.6236
 20
-62.7442
 11
56.4269
 21
-62.6583
  0
LINE
  8
0
 10
56.4269
 20
-62.6583
 11
56.2181
 21
-62.6067
  0
LINE
  8
0
 10
56.2181
 20
-62.6067
 11
55.9972
 21
-62.5895
  0
LINE
  8
0
 10
55.9972
 20
-62.5895
 11
55.6462
 21
-62.6235
  0
LINE
  8
0
 10
55.6462
 20
-62.6235
 11
55.3464
 21
-62.7255
  0
LINE
  8
0
 10
55.3464
 20
-62.7255
 11
55.0977
 21
-62.8955
  0
LINE
  8
0
 10
55.0977
 20
-62.8955
 11
54.9002
 21
-63.1335
  0
LINE
  8
0
 10
54.9002
 20
-63.1335
 11
54.7497
 21
-63.4471
  0
LINE
  8
0
 10
54.7497
 20
-63.4471
 11
54.6422
 21
-63.845
  0
LINE
  8
0
 10
54.6422
 20
-63.845
 11
54.5777
 21
-64.3271
  0
LINE
  8
0
 10
54.5777
 20
-64.3271
 11
54.5562
 21
-64.8935
  0
LINE
  8
0
 10
54.5562
 20
-64.8935
 11
54.5763
 21
-65.4541
  0
LINE
  8
0
 10
54.5763
 20
-65.4541
 11
54.6367
 21
-65.9297
  0
LINE
  8
0
 10
54.6367
 20
-65.9297
 11
54.7373
 21
-66.3206
  0
LINE
  8
0
 10
54.7373
 20
-66.3206
 11
54.8782
 21
-66.6265
  0
LINE
  8
0
 10
54.8782
 20
-66.6265
 11
55.0679
 21
-66.8571
  0
LINE
  8
0
 10
55.0679
 20
-66.8571
 11
55.3149
 21
-67.0217
  0
LINE
  8
0
 10
55.3149
 20
-67.0217
 11
55.6194
 21
-67.1206
  0
LINE
  8
0
 10
55.6194
 20
-67.1206
 11
55.9812
 21
-67.1535
  0
LINE
  8
0
 10
55.9812
 20
-67.1535
 11
56.2067
 21
-67.1366
  0
LINE
  8
0
 10
51.4122
 20
-67.8125
 11
51.4122
 21
-61.9245
  0
LINE
  8
0
 10
51.4122
 20
-61.9245
 11
52.3912
 21
-61.9245
  0
LINE
  8
0
 10
52.3912
 20
-61.9245
 11
52.3912
 21
-67.8125
  0
LINE
  8
0
 10
52.3912
 20
-67.8125
 11
51.4122
 21
-67.8125
  0
LINE
  8
0
 10
97.65
 20
-96.65
 11
106.35
 21
-96.65
  0
LINE
  8
0
 10
106.35
 20
-96.65
 11
106.35
 21
-100
  0
LINE
  8
0
 10
106.35
 20
-100
 11
115.65
 21
-100
  0
LINE
  8
0
 10
115.65
 20
-100
 11
115.65
 21
-96.65
  0
LINE
  8
0
 10
115.65
 20
-96.65
 11
124.35
 21
-96.65
  0
LINE
  8
0
 10
124.35
 20
-96.65
 11
124.35
 21
-100
  0
LINE
  8
0
 10
124.35
 20
-100
 11
132.65
 21
-100
  0
LINE
  8
0
 10
132.65
 20
-100
 11
132.65
 21
-96.65
  0
LINE
  8
0
 10
132.65
 20
-96.65
 11
136
 21
-96.65
  0
LINE
  8
0
 10
136
 20
-96.65
 11
136
 21
-87.35
  0
LINE
  8
0
 10
136
 20
-87.35
 11
132.65
 21
-87.35
  0
LINE
  8
0
 10
132.65
 20
-87.35
 11
132.65
 21
-78.65
  0
LINE
  8
0
 10
132.65
 20
-78.65
 11
136
 21
-78.65
  0
LINE
  8
0
 10
136
 20
-78.65
 11
136
 21
-69.35
  0
LINE
  8
0
 10
136
 20
-69.35
 11
132.65
 21
-69.35
  0
LINE
  8
0
 10
132.65
 20
-69.35
 11
132.65
 21
-60.65
  0
LINE
  8
0
 10
132.65
 20
-60.65
 11
136
 21
-60.65
  0
LINE
  8
0
 10
136
 20
-60.65
 11
136
 21
-51.35
  0
LINE
  8
0
 10
136
 20
-51.35
 11
132.65
 21
-51.35
  0
LINE
  8
0
 10
132.65
 20
-51.35
 11
132.65
 21
-42.65
  0
LINE
  8
0
 10
132.65
 20
-42.65
 11
136
 21
-42.65
  0
LINE
  8
0
 10
136
 20
-42.65
 11
136
 21
-33.35
  0
LINE
  8
0
 10
136
 20
-33.35
 11
133.65
 21
-33.35
  0
LINE
  8
0
 10
133.65
 20
-33.35
 11
133.65
 21
-30
  0
LINE
  8
0
 10
133.65
 20
-30
 11
124.35
 21
-30
  0
LINE
  8
0
 10
124.35
 20
-30
 11
124.35
 21
-33.35
  0
LINE
  8
0
 10
124.35
 20
-33.35
 11
115.65
 21
-33.35
  0
LINE
  8
0
 10
115.65
 20
-33.35
 11
115.65
 21
-30
  0
LINE
  8
0
 10
115.65
 20
-30
 11
106.35
 21
-30
  0
LINE
  8
0
 10
106.35
 20
-30
 11
106.35
 21
-33.35
  0
LINE
  8
0
 10
106.35
 20
-33.35
 11
97.65
 21
-33.35
  0
LINE
  8
0
 10
97.65
 20
-33.35
 11
97.65
 21
-30
  0
LINE
  8
0
 10
97.65
 20
-30
 11
89.35
 21
-30
  0
LINE
  8
0
 10
89.35
 20
-30
 11
89.35
 21
-33.35
  0
LINE
  8
0
 10
89.35
 20
-33.35
 11
86
 21
-33.35
  0
LINE
  8
0
 10
86
 20
-33.35
 11
86
 21
-42.65
  0
LINE
  8
0
 10
86
 20
-42.65
 11
89.35
 21
-42.65
  0
LINE
  8
0
 10
89.35
 20
-42.65
 11
89.35
 21
-51.35
  0
LINE
  8
0
 10
89.35
 20
-51.35
 11
86
 21
-51.35
  0
LINE
  8
0
 10
86
 20
-51.35
 11
86
 21
-60.65
  0
LINE
  8
0
 10
86
 20
-60.65
 11
89.35
 21
-60.65
  0
LINE
  8
0
 10
89.35
 20
-60.65
 11
89.35
 21
-69.35
  0
LINE
  8
0
 10
89.35
 20
-69.35
 11
86
 21
-69.35
  0
LINE
  8
0
 10
86
 20
-69.35
 11
86
 21
-78.65
  0
LINE
  8
0
 10
86
 20
-78.65
 11
89.35
 21
-78.65
  0
LINE
  8
0
 10
89.35
 20
-78.65
 11
89.35
 21
-87.35
  0
LINE
  8
0
 10
89.35
 20
-87.35
 11
86
 21
-87.35
  0
LINE
  8
0
 10
86
 20
-87.35
 11
86
 21
-96.65
  0
LINE
  8
0
 10
86
 20
-96.65
 11
88.35
 21
-96.65
  0
LINE
  8
0
 10
88.35
 20
-96.65
 11
88.35
 21
-100
  0
LINE
  8
0
 10
88.35
 20
-100
 11
97.65
 21
-100
  0
LINE
  8
0
 10
97.65
 20
-100
 11
97.65
 21
-96.65
  0
LINE
  8
0
 10
118.401
 20
-68.875
 11
118.401
 21
-60.811
  0
LINE
  8
0
 10
118.401
 20
-60.811
 11
119.38
 21
-60.811
  0
LINE
  8
0
 10
119.38
 20
-60.811
 11
119.38
 21
-65.844
  0
LINE
  8
0
 10
119.38
 20
-65.844
 11
121.963
 21
-62.987
  0
LINE
  8
0
 10
121.963
 20
-62.987
 11
123.11
 21
-62.987
  0
LINE
  8
0
 10
123.11
 20
-62.987
 11
120.723
 21
-65.517
  0
LINE
  8
0
 10
120.723
 20
-65.517
 11
123.235
 21
-68.875
  0
LINE
  8
0
 10
123.235
 20
-68.875
 11
122.088
 21
-68.875
  0
LINE
  8
0
 10
122.088
 20
-68.875
 11
120.098
 21
-66.187
  0
LINE
  8
0
 10
120.098
 20
-66.187
 11
119.38
 21
-66.78
  0
LINE
  8
0
 10
119.38
 20
-66.78
 11
119.38
 21
-68.875
  0
LINE
  8
0
 10
119.38
 20
-68.875
 11
118.401
 21
-68.875
  0
LINE
  8
0
 10
99.8246
 20
-68.875
 11
99.8246
 21
-61.195
  0
LINE
  8
0
 10
99.8246
 20
-61.195
 11
102.607
 21
-61.195
  0
LINE
  8
0
 10
102.607
 20
-61.195
 11
103.786
 21
-61.3114
  0
LINE
  8
0
 10
103.786
 20
-61.3114
 11
104.629
 21
-61.6608
  0
LINE
  8
0
 10
104.629
 20
-61.6608
 11
105.134
 21
-62.243
  0
LINE
  8
0
 10
105.134
 20
-62.243
 11
105.303
 21
-63.058
  0
LINE
  8
0
 10
105.303
 20
-63.058
 11
105.279
 21
-63.3849
  0
LINE
  8
0
 10
105.279
 20
-63.3849
 11
105.207
 21
-63.6845
  0
LINE
  8
0
 10
105.207
 20
-63.6845
 11
105.088
 21
-63.9569
  0
LINE
  8
0
 10
105.088
 20
-63.9569
 11
104.922
 21
-64.202
  0
LINE
  8
0
 10
104.922
 20
-64.202
 11
104.712
 21
-64.4144
  0
LINE
  8
0
 10
104.712
 20
-64.4144
 11
104.463
 21
-64.5888
  0
LINE
  8
0
 10
104.463
 20
-64.5888
 11
104.174
 21
-64.7249
  0
LINE
  8
0
 10
104.174
 20
-64.7249
 11
103.847
 21
-64.823
  0
LINE
  8
0
 10
103.847
 20
-64.823
 11
104.277
 21
-64.9023
  0
LINE
  8
0
 10
104.277
 20
-64.9023
 11
104.655
 21
-65.031
  0
LINE
  8
0
 10
104.655
 20
-65.031
 11
104.98
 21
-65.2092
  0
LINE
  8
0
 10
104.98
 20
-65.2092
 11
105.254
 21
-65.437
  0
LINE
  8
0
 10
105.254
 20
-65.437
 11
105.47
 21
-65.7056
  0
LINE
  8
0
 10
105.47
 20
-65.7056
 11
105.625
 21
-66.0072
  0
LINE
  8
0
 10
105.625
 20
-66.0072
 11
105.718
 21
-66.3421
  0
LINE
  8
0
 10
105.718
 20
-66.3421
 11
105.749
 21
-66.71
  0
LINE
  8
0
 10
105.749
 20
-66.71
 11
105.702
 21
-67.1941
  0
LINE
  8
0
 10
105.702
 20
-67.1941
 11
105.562
 21
-67.6212
  0
LINE
  8
0
 10
105.562
 20
-67.6212
 11
105.33
 21
-67.9916
  0
LINE
  8
0
 10
105.33
 20
-67.9916
 11
105.004
 21
-68.305
  0
LINE
  8
0
 10
105.004
 20
-68.305
 11
104.595
 21
-68.5544
  0
LINE
  8
0
 10
104.595
 20
-68.5544
 11
104.114
 21
-68.7325
  0
LINE
  8
0
 10
104.114
 20
-68.7325
 11
103.56
 21
-68.8394
  0
LINE
  8
0
 10
103.56
 20
-68.8394
 11
102.934
 21
-68.875
  0
LINE
  8
0
 10
102.934
 20
-68.875
 11
99.8246
 21
-68.875
  0
LINE
  8
0
 10
102.996
 20
-64.4394
 11
103.333
 21
-64.3808
  0
LINE
  8
0
 10
103.333
 20
-64.3808
 11
103.617
 21
-64.2829
  0
LINE
  8
0
 10
103.617
 20
-64.2829
 11
103.849
 21
-64.146
  0
LINE
  8
0
 10
103.849
 20
-64.146
 11
104.028
 21
-63.9681
  0
LINE
  8
0
 10
104.028
 20
-63.9681
 11
104.156
 21
-63.7483
  0
LINE
  8
0
 10
104.156
 20
-63.7483
 11
104.233
 21
-63.4866
  0
LINE
  8
0
 10
104.233
 20
-63.4866
 11
104.259
 21
-63.183
  0
LINE
  8
0
 10
104.259
 20
-63.183
 11
104.232
 21
-62.8942
  0
LINE
  8
0
 10
104.232
 20
-62.8942
 11
104.153
 21
-62.6498
  0
LINE
  8
0
 10
104.153
 20
-62.6498
 11
104.02
 21
-62.4497
  0
LINE
  8
0
 10
104.02
 20
-62.4497
 11
103.835
 21
-62.294
  0
LINE
  8
0
 10
103.835
 20
-62.294
 11
103.599
 21
-62.1772
  0
LINE
  8
0
 10
103.599
 20
-62.1772
 11
103.316
 21
-62.0938
  0
LINE
  8
0
 10
103.316
 20
-62.0938
 11
102.985
 21
-62.0437
  0
LINE
  8
0
 10
102.985
 20
-62.0437
 11
102.607
 21
-62.027
  0
LINE
  8
0
 10
102.607
 20
-62.027
 11
100.863
 21
-62.027
  0
LINE
  8
0
 10
100.863
 20
-62.027
 11
100.863
 21
-64.459
  0
LINE
  8
0
 10
100.863
 20
-64.459
 11
102.607
 21
-64.459
  0
LINE
  8
0
 10
102.607
 20
-64.459
 11
102.996
 21
-64.4394
  0
LINE
  8
0
 10
103.322
 20
-68.0208
 11
103.701
 21
-67.9542
  0
LINE
  8
0
 10
103.701
 20
-67.9542
 11
104.015
 21
-67.8433
  0
LINE
  8
0
 10
104.015
 20
-67.8433
 11
104.265
 21
-67.688
  0
LINE
  8
0
 10
104.265
 20
-67.688
 11
104.455
 21
-67.4887
  0
LINE
  8
0
 10
104.455
 20
-67.4887
 11
104.591
 21
-67.2457
  0
LINE
  8
0
 10
104.591
 20
-67.2457
 11
104.672
 21
-66.9592
  0
LINE
  8
0
 10
104.672
 20
-66.9592
 11
104.7
 21
-66.629
  0
LINE
  8
0
 10
104.7
 20
-66.629
 11
104.581
 21
-66.034
  0
LINE
  8
0
 10
104.581
 20
-66.034
 11
104.224
 21
-65.609
  0
LINE
  8
0
 10
104.224
 20
-65.609
 11
103.63
 21
-65.354
  0
LINE
  8
0
 10
103.63
 20
-65.354
 11
102.798
 21
-65.269
  0
LINE
  8
0
 10
102.798
 20
-65.269
 11
100.863
 21
-65.269
  0
LINE
  8
0
 10
100.863
 20
-65.269
 11
100.863
 21
-68.043
  0
LINE
  8
0
 10
100.863
 20
-68.043
 11
102.879
 21
-68.043
  0
LINE
  8
0
 10
102.879
 20
-68.043
 11
103.322
 21
-68.0208
  0
LINE
  8
0
 10
108.006
 20
-68.9737
 11
107.644
 21
-68.8857
  0
LINE
  8
0
 10
107.644
 20
-68.8857
 11
107.338
 21
-68.7392
  0
LINE
  8
0
 10
107.338
 20
-68.7392
 11
107.087
 21
-68.534
  0
LINE
  8
0
 10
107.087
 20
-68.534
 11
106.891
 21
-68.2772
  0
LINE
  8
0
 10
106.891
 20
-68.2772
 11
106.751
 21
-67.9767
  0
LINE
  8
0
 10
106.751
 20
-67.9767
 11
106.667
 21
-67.6327
  0
LINE
  8
0
 10
106.667
 20
-67.6327
 11
106.64
 21
-67.245
  0
LINE
  8
0
 10
106.64
 20
-67.245
 11
106.677
 21
-66.8131
  0
LINE
  8
0
 10
106.677
 20
-66.8131
 11
106.79
 21
-66.4345
  0
LINE
  8
0
 10
106.79
 20
-66.4345
 11
106.979
 21
-66.1091
  0
LINE
  8
0
 10
106.979
 20
-66.1091
 11
107.243
 21
-65.837
  0
LINE
  8
0
 10
107.243
 20
-65.837
 11
107.59
 21
-65.6201
  0
LINE
  8
0
 10
107.59
 20
-65.6201
 11
108.03
 21
-65.4605
  0
LINE
  8
0
 10
108.03
 20
-65.4605
 11
108.562
 21
-65.3581
  0
LINE
  8
0
 10
108.562
 20
-65.3581
 11
109.187
 21
-65.313
  0
LINE
  8
0
 10
109.187
 20
-65.313
 11
110.513
 21
-65.291
  0
LINE
  8
0
 10
110.513
 20
-65.291
 11
110.513
 21
-64.965
  0
LINE
  8
0
 10
110.513
 20
-64.965
 11
110.493
 21
-64.6259
  0
LINE
  8
0
 10
110.493
 20
-64.6259
 11
110.436
 21
-64.3388
  0
LINE
  8
0
 10
110.436
 20
-64.3388
 11
110.34
 21
-64.1034
  0
LINE
  8
0
 10
110.34
 20
-64.1034
 11
110.207
 21
-63.92
  0
LINE
  8
0
 10
110.207
 20
-63.92
 11
110.032
 21
-63.7818
  0
LINE
  8
0
 10
110.032
 20
-63.7818
 11
109.813
 21
-63.683
  0
LINE
  8
0
 10
109.813
 20
-63.683
 11
109.551
 21
-63.6238
  0
LINE
  8
0
 10
109.551
 20
-63.6238
 11
109.246
 21
-63.604
  0
LINE
  8
0
 10
109.246
 20
-63.604
 11
108.938
 21
-63.6177
  0
LINE
  8
0
 10
108.938
 20
-63.6177
 11
108.675
 21
-63.6588
  0
LINE
  8
0
 10
108.675
 20
-63.6588
 11
108.457
 21
-63.7272
  0
LINE
  8
0
 10
108.457
 20
-63.7272
 11
108.284
 21
-63.823
  0
LINE
  8
0
 10
108.284
 20
-63.823
 11
108.149
 21
-63.9489
  0
LINE
  8
0
 10
108.149
 20
-63.9489
 11
108.044
 21
-64.1075
  0
LINE
  8
0
 10
108.044
 20
-64.1075
 11
107.969
 21
-64.2989
  0
LINE
  8
0
 10
107.969
 20
-64.2989
 11
107.924
 21
-64.523
  0
LINE
  8
0
 10
107.924
 20
-64.523
 11
106.902
 21
-64.431
  0
LINE
  8
0
 10
106.902
 20
-64.431
 11
107.143
 21
-63.7433
  0
LINE
  8
0
 10
107.143
 20
-63.7433
 11
107.618
 21
-63.252
  0
LINE
  8
0
 10
107.618
 20
-63.252
 11
108.326
 21
-62.9573
  0
LINE
  8
0
 10
108.326
 20
-62.9573
 11
109.267
 21
-62.859
  0
LINE
  8
0
 10
109.267
 20
-62.859
 11
109.788
 21
-62.891
  0
LINE
  8
0
 10
109.788
 20
-62.891
 11
110.241
 21
-62.987
  0
LINE
  8
0
 10
110.241
 20
-62.987
 11
110.625
 21
-63.147
  0
LINE
  8
0
 10
110.625
 20
-63.147
 11
110.94
 21
-63.371
  0
LINE
  8
0
 10
110.94
 20
-63.371
 11
111.185
 21
-63.6551
  0
LINE
  8
0
 10
111.185
 20
-63.6551
 11
111.361
 21
-63.9965
  0
LINE
  8
0
 10
111.361
 20
-63.9965
 11
111.466
 21
-64.3951
  0
LINE
  8
0
 10
111.466
 20
-64.3951
 11
111.502
 21
-64.851
  0
LINE
  8
0
 10
111.502
 20
-64.851
 11
111.502
 21
-67.4
  0
LINE
  8
0
 10
111.502
 20
-67.4
 11
111.509
 21
-67.6055
  0
LINE
  8
0
 10
111.509
 20
-67.6055
 11
111.53
 21
-67.784
  0
LINE
  8
0
 10
111.53
 20
-67.784
 11
111.566
 21
-67.9355
  0
LINE
  8
0
 10
111.566
 20
-67.9355
 11
111.616
 21
-68.06
  0
LINE
  8
0
 10
111.616
 20
-68.06
 11
111.686
 21
-68.1567
  0
LINE
  8
0
 10
111.686
 20
-68.1567
 11
111.782
 21
-68.2257
  0
LINE
  8
0
 10
111.782
 20
-68.2257
 11
111.904
 21
-68.2672
  0
LINE
  8
0
 10
111.904
 20
-68.2672
 11
112.052
 21
-68.281
  0
LINE
  8
0
 10
112.052
 20
-68.281
 11
112.125
 21
-68.2786
  0
LINE
  8
0
 10
112.125
 20
-68.2786
 11
112.203
 21
-68.2715
  0
LINE
  8
0
 10
112.203
 20
-68.2715
 11
112.286
 21
-68.2596
  0
LINE
  8
0
 10
112.286
 20
-68.2596
 11
112.374
 21
-68.243
  0
LINE
  8
0
 10
112.374
 20
-68.243
 11
112.374
 21
-68.852
  0
LINE
  8
0
 10
112.374
 20
-68.852
 11
112.187
 21
-68.8901
  0
LINE
  8
0
 10
112.187
 20
-68.8901
 11
111.999
 21
-68.9172
  0
LINE
  8
0
 10
111.999
 20
-68.9172
 11
111.809
 21
-68.9335
  0
LINE
  8
0
 10
111.809
 20
-68.9335
 11
111.617
 21
-68.939
  0
LINE
  8
0
 10
111.617
 20
-68.939
 11
111.363
 21
-68.9212
  0
LINE
  8
0
 10
111.363
 20
-68.9212
 11
111.147
 21
-68.8677
  0
LINE
  8
0
 10
111.147
 20
-68.8677
 11
110.967
 21
-68.7787
  0
LINE
  8
0
 10
110.967
 20
-68.7787
 11
110.825
 21
-68.654
  0
LINE
  8
0
 10
110.825
 20
-68.654
 11
110.714
 21
-68.4912
  0
LINE
  8
0
 10
110.714
 20
-68.4912
 11
110.631
 21
-68.288
  0
LINE
  8
0
 10
110.631
 20
-68.288
 11
110.574
 21
-68.0442
  0
LINE
  8
0
 10
110.574
 20
-68.0442
 11
110.545
 21
-67.76
  0
LINE
  8
0
 10
110.545
 20
-67.76
 11
110.512
 21
-67.76
  0
LINE
  8
0
 10
110.512
 20
-67.76
 11
110.316
 21
-68.0747
  0
LINE
  8
0
 10
110.316
 20
-68.0747
 11
110.105
 21
-68.3397
  0
LINE
  8
0
 10
110.105
 20
-68.3397
 11
109.878
 21
-68.5552
  0
LINE
  8
0
 10
109.878
 20
-68.5552
 11
109.637
 21
-68.721
  0
LINE
  8
0
 10
109.637
 20
-68.721
 11
109.374
 21
-68.8444
  0
LINE
  8
0
 10
109.374
 20
-68.8444
 11
109.084
 21
-68.9325
  0
LINE
  8
0
 10
109.084
 20
-68.9325
 11
108.767
 21
-68.9854
  0
LINE
  8
0
 10
108.767
 20
-68.9854
 11
108.423
 21
-69.003
  0
LINE
  8
0
 10
108.423
 20
-69.003
 11
108.006
 21
-68.9737
  0
LINE
  8
0
 10
108.907
 20
-68.2536
 11
109.155
 21
-68.2075
  0
LINE
  8
0
 10
109.155
 20
-68.2075
 11
109.388
 21
-68.1306
  0
LINE
  8
0
 10
109.388
 20
-68.1306
 11
109.606
 21
-68.023
  0
LINE
  8
0
 10
109.606
 20
-68.023
 11
109.805
 21
-67.8881
  0
LINE
  8
0
 10
109.805
 20
-67.8881
 11
109.982
 21
-67.7305
  0
LINE
  8
0
 10
109.982
 20
-67.7305
 11
110.137
 21
-67.5501
  0
LINE
  8
0
 10
110.137
 20
-67.5501
 11
110.27
 21
-67.347
  0
LINE
  8
0
 10
110.27
 20
-67.347
 11
110.376
 21
-67.1305
  0
LINE
  8
0
 10
110.376
 20
-67.1305
 11
110.452
 21
-66.911
  0
LINE
  8
0
 10
110.452
 20
-66.911
 11
110.497
 21
-66.6885
  0
LINE
  8
0
 10
110.497
 20
-66.6885
 11
110.513
 21
-66.463
  0
LINE
  8
0
 10
110.513
 20
-66.463
 11
110.513
 21
-65.976
  0
LINE
  8
0
 10
110.513
 20
-65.976
 11
109.437
 21
-65.998
  0
LINE
  8
0
 10
109.437
 20
-65.998
 11
109.111
 21
-66.011
  0
LINE
  8
0
 10
109.111
 20
-66.011
 11
108.827
 21
-66.0392
  0
LINE
  8
0
 10
108.827
 20
-66.0392
 11
108.585
 21
-66.0826
  0
LINE
  8
0
 10
108.585
 20
-66.0826
 11
108.386
 21
-66.141
  0
LINE
  8
0
 10
108.386
 20
-66.141
 11
108.217
 21
-66.2154
  0
LINE
  8
0
 10
108.217
 20
-66.2154
 11
108.069
 21
-66.3077
  0
LINE
  8
0
 10
108.069
 20
-66.3077
 11
107.942
 21
-66.4179
  0
LINE
  8
0
 10
107.942
 20
-66.4179
 11
107.837
 21
-66.546
  0
LINE
  8
0
 10
107.837
 20
-66.546
 11
107.753
 21
-66.6931
  0
LINE
  8
0
 10
107.753
 20
-66.6931
 11
107.693
 21
-66.8615
  0
LINE
  8
0
 10
107.693
 20
-66.8615
 11
107.657
 21
-67.0511
  0
LINE
  8
0
 10
107.657
 20
-67.0511
 11
107.646
 21
-67.262
  0
LINE
  8
0
 10
107.646
 20
-67.262
 11
107.662
 21
-67.4893
  0
LINE
  8
0
 10
107.662
 20
-67.4893
 11
107.71
 21
-67.6892
  0
LINE
  8
0
 10
107.71
 20
-67.6892
 11
107.791
 21
-67.8618
  0
LINE
  8
0
 10
107.791
 20
-67.8618
 11
107.905
 21
-68.007
  0
LINE
  8
0
 10
107.905
 20
-68.007
 11
108.048
 21
-68.1216
  0
LINE
  8
0
 10
108.048
 20
-68.1216
 11
108.22
 21
-68.2035
  0
LINE
  8
0
 10
108.22
 20
-68.2035
 11
108.418
 21
-68.2526
  0
LINE
  8
0
 10
108.418
 20
-68.2526
 11
108.645
 21
-68.269
  0
LINE
  8
0
 10
108.645
 20
-68.269
 11
108.907
 21
-68.2536
  0
LINE
  8
0
 10
114.639
 20
-68.9539
 11
114.132
 21
-68.8065
  0
LINE
  8
0
 10
114.132
 20
-68.8065
 11
113.697
 21
-68.5609
  0
LINE
  8
0
 10
113.697
 20
-68.5609
 11
113.335
 21
-68.217
  0
LINE
  8
0
 10
113.335
 20
-68.217
 11
113.051
 21
-67.7791
  0
LINE
  8
0
 10
113.051
 20
-67.7791
 11
112.849
 21
-67.2512
  0
LINE
  8
0
 10
112.849
 20
-67.2512
 11
112.727
 21
-66.6336
  0
LINE
  8
0
 10
112.727
 20
-66.6336
 11
112.686
 21
-65.926
  0
LINE
  8
0
 10
112.686
 20
-65.926
 11
112.727
 21
-65.2228
  0
LINE
  8
0
 10
112.727
 20
-65.2228
 11
112.849
 21
-64.6083
  0
LINE
  8
0
 10
112.849
 20
-64.6083
 11
113.053
 21
-64.0823
  0
LINE
  8
0
 10
113.053
 20
-64.0823
 11
113.338
 21
-63.645
  0
LINE
  8
0
 10
113.338
 20
-63.645
 11
113.7
 21
-63.3011
  0
LINE
  8
0
 10
113.7
 20
-63.3011
 11
114.133
 21
-63.0555
  0
LINE
  8
0
 10
114.133
 20
-63.0555
 11
114.636
 21
-62.9081
  0
LINE
  8
0
 10
114.636
 20
-62.9081
 11
115.209
 21
-62.859
  0
LINE
  8
0
 10
115.209
 20
-62.859
 11
115.642
 21
-62.8886
  0
LINE
  8
0
 10
115.642
 20
-62.8886
 11
116.035
 21
-62.9775
  0
LINE
  8
0
 10
116.035
 20
-62.9775
 11
116.391
 21
-63.1256
  0
LINE
  8
0
 10
116.391
 20
-63.1256
 11
116.707
 21
-63.333
  0
LINE
  8
0
 10
116.707
 20
-63.333
 11
116.978
 21
-63.5919
  0
LINE
  8
0
 10
116.978
 20
-63.5919
 11
117.192
 21
-63.8958
  0
LINE
  8
0
 10
117.192
 20
-63.8958
 11
117.352
 21
-64.2444
  0
LINE
  8
0
 10
117.352
 20
-64.2444
 11
117.455
 21
-64.638
  0
LINE
  8
0
 10
117.455
 20
-64.638
 11
116.449
 21
-64.715
  0
LINE
  8
0
 10
116.449
 20
-64.715
 11
116.397
 21
-64.4779
  0
LINE
  8
0
 10
116.397
 20
-64.4779
 11
116.315
 21
-64.2665
  0
LINE
  8
0
 10
116.315
 20
-64.2665
 11
116.204
 21
-64.0809
  0
LINE
  8
0
 10
116.204
 20
-64.0809
 11
116.063
 21
-63.921
  0
LINE
  8
0
 10
116.063
 20
-63.921
 11
115.892
 21
-63.7919
  0
LINE
  8
0
 10
115.892
 20
-63.7919
 11
115.688
 21
-63.6998
  0
LINE
  8
0
 10
115.688
 20
-63.6998
 11
115.452
 21
-63.6444
  0
LINE
  8
0
 10
115.452
 20
-63.6444
 11
115.182
 21
-63.626
  0
LINE
  8
0
 10
115.182
 20
-63.626
 11
114.82
 21
-63.6586
  0
LINE
  8
0
 10
114.82
 20
-63.6586
 11
114.512
 21
-63.7565
  0
LINE
  8
0
 10
114.512
 20
-63.7565
 11
114.257
 21
-63.9196
  0
LINE
  8
0
 10
114.257
 20
-63.9196
 11
114.056
 21
-64.148
  0
LINE
  8
0
 10
114.056
 20
-64.148
 11
113.904
 21
-64.4531
  0
LINE
  8
0
 10
113.904
 20
-64.4531
 11
113.795
 21
-64.8475
  0
LINE
  8
0
 10
113.795
 20
-64.8475
 11
113.73
 21
-65.3311
  0
LINE
  8
0
 10
113.73
 20
-65.3311
 11
113.708
 21
-65.904
  0
LINE
  8
0
 10
113.708
 20
-65.904
 11
113.731
 21
-66.4581
  0
LINE
  8
0
 10
113.731
 20
-66.4581
 11
113.801
 21
-66.9355
  0
LINE
  8
0
 10
113.801
 20
-66.9355
 11
113.917
 21
-67.3361
  0
LINE
  8
0
 10
113.917
 20
-67.3361
 11
114.078
 21
-67.66
  0
LINE
  8
0
 10
114.078
 20
-67.66
 11
114.287
 21
-67.9098
  0
LINE
  8
0
 10
114.287
 20
-67.9098
 11
114.542
 21
-68.0882
  0
LINE
  8
0
 10
114.542
 20
-68.0882
 11
114.844
 21
-68.1953
  0
LINE
  8
0
 10
114.844
 20
-68.1953
 11
115.193
 21
-68.231
  0
LINE
  8
0
 10
115.193
 20
-68.231
 11
115.444
 21
-68.2134
  0
LINE
  8
0
 10
115.444
 20
-68.2134
 11
115.672
 21
-68.1607
  0
LINE
  8
0
 10
115.672
 20
-68.1607
 11
115.88
 21
-68.0729
  0
LINE
  8
0
 10
115.88
 20
-68.0729
 11
116.065
 21
-67.95
  0
LINE
  8
0
 10
116.065
 20
-67.95
 11
116.224
 21
-67.7901
  0
LINE
  8
0
 10
116.224
 20
-67.7901
 11
116.349
 21
-67.5922
  0
LINE
  8
0
 10
116.349
 20
-67.5922
 11
116.441
 21
-67.3566
  0
LINE
  8
0
 10
116.441
 20
-67.3566
 11
116.498
 21
-67.083
  0
LINE
  8
0
 10
116.498
 20
-67.083
 11
117.487
 21
-67.148
  0
LINE
  8
0
 10
117.487
 20
-67.148
 11
117.399
 21
-67.5497
  0
LINE
  8
0
 10
117.399
 20
-67.5497
 11
117.25
 21
-67.9087
  0
LINE
  8
0
 10
117.25
 20
-67.9087
 11
117.038
 21
-68.2252
  0
LINE
  8
0
 10
117.038
 20
-68.2252
 11
116.764
 21
-68.499
  0
LINE
  8
0
 10
116.764
 20
-68.499
 11
116.439
 21
-68.7195
  0
LINE
  8
0
 10
116.439
 20
-68.7195
 11
116.074
 21
-68.877
  0
LINE
  8
0
 10
116.074
 20
-68.877
 11
115.667
 21
-68.9715
  0
LINE
  8
0
 10
115.667
 20
-68.9715
 11
115.22
 21
-69.003
  0
LINE
  8
0
 10
115.22
 20
-69.003
 11
114.639
 21
-68.9539
  0
LINE
  8
0
 10
-13.35
 20
-96.65
 11
-4.64999
 21
-96.65
  0
LINE
  8
0
 10
-4.64999
 20
-96.65
 11
-4.64999
 21
-100
  0
LINE
  8
0
 10
-4.64999
 20
-100
 11
4.64998
 21
-100
  0
LINE
  8
0
 10
4.64998
 20
-100
 11
4.64998
 21
-96.65
  0
LINE
  8
0
 10
4.64998
 20
-96.65
 11
13.35
 21
-96.65
  0
LINE
  8
0
 10
13.35
 20
-96.65
 11
13.35
 21
-100
  0
LINE
  8
0
 10
13.35
 20
-100
 11
21.65
 21
-100
  0
LINE
  8
0
 10
21.65
 20
-100
 11
21.65
 21
-96.65
  0
LINE
  8
0
 10
21.65
 20
-96.65
 11
25
 21
-96.65
  0
LINE
  8
0
 10
25
 20
-96.65
 11
25
 21
-87.35
  0
LINE
  8
0
 10
25
 20
-87.35
 11
21.65
 21
-87.35
  0
LINE
  8
0
 10
21.65
 20
-87.35
 11
21.65
 21
-78.65
  0
LINE
  8
0
 10
21.65
 20
-78.65
 11
25
 21
-78.65
  0
LINE
  8
0
 10
25
 20
-78.65
 11
25
 21
-69.35
  0
LINE
  8
0
 10
25
 20
-69.35
 11
21.65
 21
-69.35
  0
LINE
  8
0
 10
21.65
 20
-69.35
 11
21.65
 21
-60.65
  0
LINE
  8
0
 10
21.65
 20
-60.65
 11
25
 21
-60.65
  0
LINE
  8
0
 10
25
 20
-60.65
 11
25
 21
-51.35
  0
LINE
  8
0
 10
25
 20
-51.35
 11
21.65
 21
-51.35
  0
LINE
  8
0
 10
21.65
 20
-51.35
 11
21.65
 21
-42.65
  0
LINE
  8
0
 10
21.65
 20
-42.65
 11
25
 21
-42.65
  0
LINE
  8
0
 10
25
 20
-42.65
 11
25
 21
-33.35
  0
LINE
  8
0
 10
25
 20
-33.35
 11
22.65
 21
-33.35
  0
LINE
  8
0
 10
22.65
 20
-33.35
 11
22.65
 21
-30
  0
LINE
  8
0
 10
22.65
 20
-30
 11
13.35
 21
-30
  0
LINE
  8
0
 10
13.35
 20
-30
 11
13.35
 21
-33.35
  0
LINE
  8
0
 10
13.35
 20
-33.35
 11
4.64999
 21
-33.35
  0
LINE
  8
0
 10
4.64999
 20
-33.35
 11
4.64999
 21
-30
  0
LINE
  8
0
 10
4.64999
 20
-30
 11
-4.64999
 21
-30
  0
LINE
  8
0
 10
-4.64999
 20
-30
 11
-4.64999
 21
-33.35
  0
LINE
  8
0
 10
-4.64999
 20
-33.35
 11
-13.35
 21
-33.35
  0
LINE
  8
0
 10
-13.35
 20
-33.35
 11
-13.35
 21
-30
  0
LINE
  8
0
 10
-13.35
 20
-30
 11
-21.65
 21
-30
  0
LINE
  8
0
 10
-21.65
 20
-30
 11
-21.65
 21
-33.35
  0
LINE
  8
0
 10
-21.65
 20
-33.35
 11
-25
 21
-33.35
  0
LINE
  8
0
 10
-25
 20
-33.35
 11
-25
 21
-42.65
  0
LINE
  8
0
 10
-25
 20
-42.65
 11
-21.65
 21
-42.65
  0
LINE
  8
0
 10
-21.65
 20
-42.65
 11
-21.65
 21
-51.35
  0
LINE
  8
0
 10
-21.65
 20
-51.35
 11
-25
 21
-51.35
  0
LINE
  8
0
 10
-25
 20
-51.35
 11
-25
 21
-60.65
  0
LINE
  8
0
 10
-25
 20
-60.65
 11
-21.65
 21
-60.65
  0
LINE
  8
0
 10
-21.65
 20
-60.65
 11
-21.65
 21
-69.35
  0
LINE
  8
0
 10
-21.65
 20
-69.35
 11
-25
 21
-69.35
  0
LINE
  8
0
 10
-25
 20
-69.35
 11
-25
 21
-78.65
  0
LINE
  8
0
 10
-25
 20
-78.65
 11
-21.65
 21
-78.65
  0
LINE
  8
0
 10
-21.65
 20
-78.65
 11
-21.65
 21
-87.35
  0
LINE
  8
0
 10
-21.65
 20
-87.35
 11
-25
 21
-87.35
  0
LINE
  8
0
 10
-25
 20
-87.35
 11
-25
 21
-96.65
  0
LINE
  8
0
 10
-25
 20
-96.65
 11
-22.65
 21
-96.65
  0
LINE
  8
0
 10
-22.65
 20
-96.65
 11
-22.65
 21
-100
  0
LINE
  8
0
 10
-22.65
 20
-100
 11
-13.35
 21
-100
  0
LINE
  8
0
 10
-13.35
 20
-100
 11
-13.35
 21
-96.65
  0
LINE
  8
0
 10
-11.7794
 20
-68.6875
 11
-11.7794
 21
-61.0075
  0
LINE
  8
0
 10
-11.7794
 20
-61.0075
 11
-6.35143
 21
-61.0075
  0
LINE
  8
0
 10
-6.35143
 20
-61.0075
 11
-6.35143
 21
-61.8555
  0
LINE
  8
0
 10
-6.35143
 20
-61.8555
 11
-10.7414
 21
-61.8555
  0
LINE
  8
0
 10
-10.7414
 20
-61.8555
 11
-10.7414
 21
-64.7195
  0
LINE
  8
0
 10
-10.7414
 20
-64.7195
 11
-6.48141
 21
-64.7195
  0
LINE
  8
0
 10
-6.48141
 20
-64.7195
 11
-6.48141
 21
-65.5785
  0
LINE
  8
0
 10
-6.48141
 20
-65.5785
 11
-10.7414
 21
-65.5785
  0
LINE
  8
0
 10
-10.7414
 20
-65.5785
 11
-10.7414
 21
-68.6875
  0
LINE
  8
0
 10
-10.7414
 20
-68.6875
 11
-11.7794
 21
-68.6875
  0
LINE
  8
0
 10
11.1668
 20
-68.6685
 11
10.8024
 21
-68.4195
  0
LINE
  8
0
 10
10.8024
 20
-68.4195
 11
10.5838
 21
-68.0045
  0
LINE
  8
0
 10
10.5838
 20
-68.0045
 11
10.5109
 21
-67.4235
  0
LINE
  8
0
 10
10.5109
 20
-67.4235
 11
10.5109
 21
-63.5115
  0
LINE
  8
0
 10
10.5109
 20
-63.5115
 11
9.83194
 21
-63.5115
  0
LINE
  8
0
 10
9.83194
 20
-63.5115
 11
9.83194
 21
-62.7995
  0
LINE
  8
0
 10
9.83194
 20
-62.7995
 11
10.5489
 21
-62.7995
  0
LINE
  8
0
 10
10.5489
 20
-62.7995
 11
10.8379
 21
-61.4555
  0
LINE
  8
0
 10
10.8379
 20
-61.4555
 11
11.4899
 21
-61.4555
  0
LINE
  8
0
 10
11.4899
 20
-61.4555
 11
11.4899
 21
-62.7995
  0
LINE
  8
0
 10
11.4899
 20
-62.7995
 11
12.5619
 21
-62.7995
  0
LINE
  8
0
 10
12.5619
 20
-62.7995
 11
12.5619
 21
-63.5115
  0
LINE
  8
0
 10
12.5619
 20
-63.5115
 11
11.4899
 21
-63.5115
  0
LINE
  8
0
 10
11.4899
 20
-63.5115
 11
11.4899
 21
-67.2095
  0
LINE
  8
0
 10
11.4899
 20
-67.2095
 11
11.4984
 21
-67.4052
  0
LINE
  8
0
 10
11.4984
 20
-67.4052
 11
11.5239
 21
-67.5695
  0
LINE
  8
0
 10
11.5239
 20
-67.5695
 11
11.5664
 21
-67.7022
  0
LINE
  8
0
 10
11.5664
 20
-67.7022
 11
11.6259
 21
-67.8035
  0
LINE
  8
0
 10
11.6259
 20
-67.8035
 11
11.707
 21
-67.8779
  0
LINE
  8
0
 10
11.707
 20
-67.8779
 11
11.8132
 21
-67.931
  0
LINE
  8
0
 10
11.8132
 20
-67.931
 11
11.9445
 21
-67.9629
  0
LINE
  8
0
 10
11.9445
 20
-67.9629
 11
12.1009
 21
-67.9735
  0
LINE
  8
0
 10
12.1009
 20
-67.9735
 11
12.2082
 21
-67.9688
  0
LINE
  8
0
 10
12.2082
 20
-67.9688
 11
12.3369
 21
-67.9545
  0
LINE
  8
0
 10
12.3369
 20
-67.9545
 11
12.4872
 21
-67.9307
  0
LINE
  8
0
 10
12.4872
 20
-67.9307
 11
12.6589
 21
-67.8975
  0
LINE
  8
0
 10
12.6589
 20
-67.8975
 11
12.6589
 21
-68.6205
  0
LINE
  8
0
 10
12.6589
 20
-68.6205
 11
12.4176
 21
-68.6778
  0
LINE
  8
0
 10
12.4176
 20
-68.6778
 11
12.1734
 21
-68.7188
  0
LINE
  8
0
 10
12.1734
 20
-68.7188
 11
11.9266
 21
-68.7433
  0
LINE
  8
0
 10
11.9266
 20
-68.7433
 11
11.6769
 21
-68.7515
  0
LINE
  8
0
 10
11.6769
 20
-68.7515
 11
11.1668
 21
-68.6685
  0
LINE
  8
0
 10
-5.27484
 20
-68.6875
 11
-5.27484
 21
-64.1705
  0
LINE
  8
0
 10
-5.27484
 20
-64.1705
 11
-5.27684
 21
-63.8523
  0
LINE
  8
0
 10
-5.27684
 20
-63.8523
 11
-5.28284
 21
-63.5178
  0
LINE
  8
0
 10
-5.28284
 20
-63.5178
 11
-5.29285
 21
-63.1668
  0
LINE
  8
0
 10
-5.29285
 20
-63.1668
 11
-5.30684
 21
-62.7995
  0
LINE
  8
0
 10
-5.30684
 20
-62.7995
 11
-4.38284
 21
-62.7995
  0
LINE
  8
0
 10
-4.38284
 20
-62.7995
 11
-4.36403
 21
-63.2424
  0
LINE
  8
0
 10
-4.36403
 20
-63.2424
 11
-4.34253
 21
-63.8334
  0
LINE
  8
0
 10
-4.34253
 20
-63.8334
 11
-4.33984
 21
-63.9815
  0
LINE
  8
0
 10
-4.33984
 20
-63.9815
 11
-4.31784
 21
-63.9815
  0
LINE
  8
0
 10
-4.31784
 20
-63.9815
 11
-4.19641
 21
-63.6334
  0
LINE
  8
0
 10
-4.19641
 20
-63.6334
 11
-4.0661
 21
-63.3453
  0
LINE
  8
0
 10
-4.0661
 20
-63.3453
 11
-3.92691
 21
-63.1169
  0
LINE
  8
0
 10
-3.92691
 20
-63.1169
 11
-3.77884
 21
-62.9485
  0
LINE
  8
0
 10
-3.77884
 20
-62.9485
 11
-3.61072
 21
-62.8273
  0
LINE
  8
0
 10
-3.61072
 20
-62.8273
 11
-3.41135
 21
-62.7408
  0
LINE
  8
0
 10
-3.41135
 20
-62.7408
 11
-3.18073
 21
-62.6888
  0
LINE
  8
0
 10
-3.18073
 20
-62.6888
 11
-2.91884
 21
-62.6715
  0
LINE
  8
0
 10
-2.91884
 20
-62.6715
 11
-2.82047
 21
-62.6749
  0
LINE
  8
0
 10
-2.82047
 20
-62.6749
 11
-2.72134
 21
-62.685
  0
LINE
  8
0
 10
-2.72134
 20
-62.685
 11
-2.62148
 21
-62.7019
  0
LINE
  8
0
 10
-2.62148
 20
-62.7019
 11
-2.52084
 21
-62.7255
  0
LINE
  8
0
 10
-2.52084
 20
-62.7255
 11
-2.52084
 21
-63.6225
  0
LINE
  8
0
 10
-2.52084
 20
-63.6225
 11
-2.62703
 21
-63.5989
  0
LINE
  8
0
 10
-2.62703
 20
-63.5989
 11
-2.74959
 21
-63.582
  0
LINE
  8
0
 10
-2.74959
 20
-63.582
 11
-2.88853
 21
-63.5719
  0
LINE
  8
0
 10
-2.88853
 20
-63.5719
 11
-3.04384
 21
-63.5685
  0
LINE
  8
0
 10
-3.04384
 20
-63.5685
 11
-3.33078
 21
-63.6014
  0
LINE
  8
0
 10
-3.33078
 20
-63.6014
 11
-3.58159
 21
-63.7003
  0
LINE
  8
0
 10
-3.58159
 20
-63.7003
 11
-3.79628
 21
-63.8649
  0
LINE
  8
0
 10
-3.79628
 20
-63.8649
 11
-3.97484
 21
-64.0955
  0
LINE
  8
0
 10
-3.97484
 20
-64.0955
 11
-4.11528
 21
-64.3876
  0
LINE
  8
0
 10
-4.11528
 20
-64.3876
 11
-4.21559
 21
-64.7368
  0
LINE
  8
0
 10
-4.21559
 20
-64.7368
 11
-4.27579
 21
-65.1431
  0
LINE
  8
0
 10
-4.27579
 20
-65.1431
 11
-4.29584
 21
-65.6065
  0
LINE
  8
0
 10
-4.29584
 20
-65.6065
 11
-4.29584
 21
-68.6875
  0
LINE
  8
0
 10
-4.29584
 20
-68.6875
 11
-5.27484
 21
-68.6875
  0
LINE
  8
0
 10
0.0461731
 20
-68.7661
 11
-0.481003
 21
-68.6177
  0
LINE
  8
0
 10
-0.481003
 20
-68.6177
 11
-0.929306
 21
-68.3706
  0
LINE
  8
0
 10
-0.929306
 20
-68.3706
 11
-1.29875
 21
-68.0245
  0
LINE
  8
0
 10
-1.29875
 20
-68.0245
 11
-1.58707
 21
-67.5846
  0
LINE
  8
0
 10
-1.58707
 20
-67.5846
 11
-1.793
 21
-67.057
  0
LINE
  8
0
 10
-1.793
 20
-67.057
 11
-1.91656
 21
-66.4416
  0
LINE
  8
0
 10
-1.91656
 20
-66.4416
 11
-1.95775
 21
-65.7385
  0
LINE
  8
0
 10
-1.95775
 20
-65.7385
 11
-1.79256
 21
-64.3967
  0
LINE
  8
0
 10
-1.79256
 20
-64.3967
 11
-1.297
 21
-63.4383
  0
LINE
  8
0
 10
-1.297
 20
-63.4383
 11
-0.471069
 21
-62.8632
  0
LINE
  8
0
 10
-0.471069
 20
-62.8632
 11
0.685242
 21
-62.6715
  0
LINE
  8
0
 10
0.685242
 20
-62.6715
 11
1.31654
 21
-62.7183
  0
LINE
  8
0
 10
1.31654
 20
-62.7183
 11
1.85849
 21
-62.8585
  0
LINE
  8
0
 10
1.85849
 20
-62.8585
 11
2.31105
 21
-63.0923
  0
LINE
  8
0
 10
2.31105
 20
-63.0923
 11
2.67424
 21
-63.4195
  0
LINE
  8
0
 10
2.67424
 20
-63.4195
 11
2.95335
 21
-63.8446
  0
LINE
  8
0
 10
2.95335
 20
-63.8446
 11
3.15274
 21
-64.3728
  0
LINE
  8
0
 10
3.15274
 20
-64.3728
 11
3.27235
 21
-65.0041
  0
LINE
  8
0
 10
3.27235
 20
-65.0041
 11
3.31224
 21
-65.7385
  0
LINE
  8
0
 10
3.31224
 20
-65.7385
 11
3.26967
 21
-66.4664
  0
LINE
  8
0
 10
3.26967
 20
-66.4664
 11
3.14198
 21
-67.095
  0
LINE
  8
0
 10
3.14198
 20
-67.095
 11
2.92917
 21
-67.6244
  0
LINE
  8
0
 10
2.92917
 20
-67.6244
 11
2.63124
 21
-68.0545
  0
LINE
  8
0
 10
2.63124
 20
-68.0545
 11
2.25217
 21
-68.3874
  0
LINE
  8
0
 10
2.25217
 20
-68.3874
 11
1.79599
 21
-68.6252
  0
LINE
  8
0
 10
1.79599
 20
-68.6252
 11
1.26266
 21
-68.7679
  0
LINE
  8
0
 10
1.26266
 20
-68.7679
 11
0.652237
 21
-68.8155
  0
LINE
  8
0
 10
0.652237
 20
-68.8155
 11
0.0461731
 21
-68.7661
  0
LINE
  8
0
 10
1.05167
 20
-68.0568
 11
1.39899
 21
-67.9497
  0
LINE
  8
0
 10
1.39899
 20
-67.9497
 11
1.68317
 21
-67.7713
  0
LINE
  8
0
 10
1.68317
 20
-67.7713
 11
1.90424
 21
-67.5215
  0
LINE
  8
0
 10
1.90424
 20
-67.5215
 11
2.07048
 21
-67.1959
  0
LINE
  8
0
 10
2.07048
 20
-67.1959
 11
2.18924
 21
-66.7902
  0
LINE
  8
0
 10
2.18924
 20
-66.7902
 11
2.26048
 21
-66.3044
  0
LINE
  8
0
 10
2.26048
 20
-66.3044
 11
2.28424
 21
-65.7385
  0
LINE
  8
0
 10
2.28424
 20
-65.7385
 11
2.26155
 21
-65.1656
  0
LINE
  8
0
 10
2.26155
 20
-65.1656
 11
2.19348
 21
-64.6768
  0
LINE
  8
0
 10
2.19348
 20
-64.6768
 11
2.08005
 21
-64.2721
  0
LINE
  8
0
 10
2.08005
 20
-64.2721
 11
1.92123
 21
-63.9515
  0
LINE
  8
0
 10
1.92123
 20
-63.9515
 11
1.70886
 21
-63.7078
  0
LINE
  8
0
 10
1.70886
 20
-63.7078
 11
1.43474
 21
-63.5338
  0
LINE
  8
0
 10
1.43474
 20
-63.5338
 11
1.09886
 21
-63.4293
  0
LINE
  8
0
 10
1.09886
 20
-63.4293
 11
0.701233
 21
-63.3945
  0
LINE
  8
0
 10
0.701233
 20
-63.3945
 11
0.300049
 21
-63.43
  0
LINE
  8
0
 10
0.300049
 20
-63.43
 11
-0.0415039
 21
-63.5365
  0
LINE
  8
0
 10
-0.0415039
 20
-63.5365
 11
-0.323441
 21
-63.714
  0
LINE
  8
0
 10
-0.323441
 20
-63.714
 11
-0.545746
 21
-63.9625
  0
LINE
  8
0
 10
-0.545746
 20
-63.9625
 11
-0.714188
 21
-64.2865
  0
LINE
  8
0
 10
-0.714188
 20
-64.2865
 11
-0.834503
 21
-64.6905
  0
LINE
  8
0
 10
-0.834503
 20
-64.6905
 11
-0.906693
 21
-65.1745
  0
LINE
  8
0
 10
-0.906693
 20
-65.1745
 11
-0.930756
 21
-65.7385
  0
LINE
  8
0
 10
-0.930756
 20
-65.7385
 11
-0.907059
 21
-66.289
  0
LINE
  8
0
 10
-0.907059
 20
-66.289
 11
-0.835999
 21
-66.7665
  0
LINE
  8
0
 10
-0.835999
 20
-66.7665
 11
-0.71756
 21
-67.171
  0
LINE
  8
0
 10
-0.71756
 20
-67.171
 11
-0.551758
 21
-67.5025
  0
LINE
  8
0
 10
-0.551758
 20
-67.5025
 11
-0.334686
 21
-67.7606
  0
LINE
  8
0
 10
-0.334686
 20
-67.7606
 11
-0.0635071
 21
-67.945
  0
LINE
  8
0
 10
-0.0635071
 20
-67.945
 11
0.261795
 21
-68.0556
  0
LINE
  8
0
 10
0.261795
 20
-68.0556
 11
0.641235
 21
-68.0925
  0
LINE
  8
0
 10
0.641235
 20
-68.0925
 11
1.05167
 21
-68.0568
  0
LINE
  8
0
 10
4.39508
 20
-68.6875
 11
4.39508
 21
-64.0565
  0
LINE
  8
0
 10
4.39508
 20
-64.0565
 11
4.39308
 21
-63.5924
  0
LINE
  8
0
 10
4.39308
 20
-63.5924
 11
4.38708
 21
-63.2283
  0
LINE
  8
0
 10
4.38708
 20
-63.2283
 11
4.37709
 21
-62.9639
  0
LINE
  8
0
 10
4.37709
 20
-62.9639
 11
4.36308
 21
-62.7995
  0
LINE
  8
0
 10
4.36308
 20
-62.7995
 11
5.28708
 21
-62.7995
  0
LINE
  8
0
 10
5.28708
 20
-62.7995
 11
5.28958
 21
-62.8187
  0
LINE
  8
0
 10
5.28958
 20
-62.8187
 11
5.31528
 21
-63.3079
  0
LINE
  8
0
 10
5.31528
 20
-63.3079
 11
5.33009
 21
-63.7905
  0
LINE
  8
0
 10
5.33009
 20
-63.7905
 11
5.34608
 21
-63.7905
  0
LINE
  8
0
 10
5.34608
 20
-63.7905
 11
5.52171
 21
-63.5073
  0
LINE
  8
0
 10
5.52171
 20
-63.5073
 11
5.71059
 21
-63.2688
  0
LINE
  8
0
 10
5.71059
 20
-63.2688
 11
5.9127
 21
-63.0748
  0
LINE
  8
0
 10
5.9127
 20
-63.0748
 11
6.12808
 21
-62.9255
  0
LINE
  8
0
 10
6.12808
 20
-62.9255
 11
6.36403
 21
-62.8144
  0
LINE
  8
0
 10
6.36403
 20
-62.8144
 11
6.62683
 21
-62.735
  0
LINE
  8
0
 10
6.62683
 20
-62.735
 11
6.91652
 21
-62.6874
  0
LINE
  8
0
 10
6.91652
 20
-62.6874
 11
7.23309
 21
-62.6715
  0
LINE
  8
0
 10
7.23309
 20
-62.6715
 11
7.68602
 21
-62.7017
  0
LINE
  8
0
 10
7.68602
 20
-62.7017
 11
8.07384
 21
-62.7923
  0
LINE
  8
0
 10
8.07384
 20
-62.7923
 11
8.39653
 21
-62.9432
  0
LINE
  8
0
 10
8.39653
 20
-62.9432
 11
8.65408
 21
-63.1545
  0
LINE
  8
0
 10
8.65408
 20
-63.1545
 11
8.85097
 21
-63.4354
  0
LINE
  8
0
 10
8.85097
 20
-63.4354
 11
8.99159
 21
-63.7953
  0
LINE
  8
0
 10
8.99159
 20
-63.7953
 11
9.07596
 21
-64.2339
  0
LINE
  8
0
 10
9.07596
 20
-64.2339
 11
9.10408
 21
-64.7515
  0
LINE
  8
0
 10
9.10408
 20
-64.7515
 11
9.10408
 21
-68.6875
  0
LINE
  8
0
 10
9.10408
 20
-68.6875
 11
8.12009
 21
-68.6875
  0
LINE
  8
0
 10
8.12009
 20
-68.6875
 11
8.12009
 21
-64.9405
  0
LINE
  8
0
 10
8.12009
 20
-64.9405
 11
8.1129
 21
-64.6649
  0
LINE
  8
0
 10
8.1129
 20
-64.6649
 11
8.09134
 21
-64.422
  0
LINE
  8
0
 10
8.09134
 20
-64.422
 11
8.0554
 21
-64.2119
  0
LINE
  8
0
 10
8.0554
 20
-64.2119
 11
8.00508
 21
-64.0345
  0
LINE
  8
0
 10
8.00508
 20
-64.0345
 11
7.93947
 21
-63.8843
  0
LINE
  8
0
 10
7.93947
 20
-63.8843
 11
7.85658
 21
-63.7568
  0
LINE
  8
0
 10
7.85658
 20
-63.7568
 11
7.75645
 21
-63.6518
  0
LINE
  8
0
 10
7.75645
 20
-63.6518
 11
7.63908
 21
-63.5695
  0
LINE
  8
0
 10
7.63908
 20
-63.5695
 11
7.49896
 21
-63.5074
  0
LINE
  8
0
 10
7.49896
 20
-63.5074
 11
7.32959
 21
-63.463
  0
LINE
  8
0
 10
7.32959
 20
-63.463
 11
7.13097
 21
-63.4364
  0
LINE
  8
0
 10
7.13097
 20
-63.4364
 11
6.90309
 21
-63.4275
  0
LINE
  8
0
 10
6.90309
 20
-63.4275
 11
6.56683
 21
-63.4579
  0
LINE
  8
0
 10
6.56683
 20
-63.4579
 11
6.26808
 21
-63.549
  0
LINE
  8
0
 10
6.26808
 20
-63.549
 11
6.00684
 21
-63.7009
  0
LINE
  8
0
 10
6.00684
 20
-63.7009
 11
5.78308
 21
-63.9135
  0
LINE
  8
0
 10
5.78308
 20
-63.9135
 11
5.60414
 21
-64.1801
  0
LINE
  8
0
 10
5.60414
 20
-64.1801
 11
5.47633
 21
-64.4938
  0
LINE
  8
0
 10
5.47633
 20
-64.4938
 11
5.39964
 21
-64.8546
  0
LINE
  8
0
 10
5.39964
 20
-64.8546
 11
5.37408
 21
-65.2625
  0
LINE
  8
0
 10
5.37408
 20
-65.2625
 11
5.37408
 21
-68.6875
  0
LINE
  8
0
 10
5.37408
 20
-68.6875
 11
4.39508
 21
-68.6875
  0
LINE
  8
0
 10
-77.85
 20
-96.65
 11
-69.15
 21
-96.65
  0
LINE
  8
0
 10
-69.15
 20
-96.65
 11
-69.15
 21
-100
  0
LINE
  8
0
 10
-69.15
 20
-100
 11
-59.85
 21
-100
  0
LINE
  8
0
 10
-59.85
 20
-100
 11
-59.85
 21
-96.65
  0
LINE
  8
0
 10
-59.85
 20
-96.65
 11
-51.15
 21
-96.65
  0
LINE
  8
0
 10
-51.15
 20
-96.65
 11
-51.15
 21
-100
  0
LINE
  8
0
 10
-51.15
 20
-100
 11
-41.85
 21
-100
  0
LINE
  8
0
 10
-41.85
 20
-100
 11
-41.85
 21
-96.65
  0
LINE
  8
0
 10
-41.85
 20
-96.65
 11
-33.15
 21
-96.65
  0
LINE
  8
0
 10
-33.15
 20
-96.65
 11
-33.15
 21
-100
  0
LINE
  8
0
 10
-33.15
 20
-100
 11
-25.5
 21
-100
  0
LINE
  8
0
 10
-25.5
 20
-100
 11
-25.5
 21
-96.35
  0
LINE
  8
0
 10
-25.5
 20
-96.35
 11
-28.85
 21
-96.35
  0
LINE
  8
0
 10
-28.85
 20
-96.35
 11
-28.85
 21
-87.65
  0
LINE
  8
0
 10
-28.85
 20
-87.65
 11
-25.5
 21
-87.65
  0
LINE
  8
0
 10
-25.5
 20
-87.65
 11
-25.5
 21
-78.35
  0
LINE
  8
0
 10
-25.5
 20
-78.35
 11
-28.85
 21
-78.35
  0
LINE
  8
0
 10
-28.85
 20
-78.35
 11
-28.85
 21
-69.65
  0
LINE
  8
0
 10
-28.85
 20
-69.65
 11
-25.5
 21
-69.65
  0
LINE
  8
0
 10
-25.5
 20
-69.65
 11
-25.5
 21
-60.35
  0
LINE
  8
0
 10
-25.5
 20
-60.35
 11
-28.85
 21
-60.35
  0
LINE
  8
0
 10
-28.85
 20
-60.35
 11
-28.85
 21
-51.65
  0
LINE
  8
0
 10
-28.85
 20
-51.65
 11
-25.5
 21
-51.65
  0
LINE
  8
0
 10
-25.5
 20
-51.65
 11
-25.5
 21
-42.35
  0
LINE
  8
0
 10
-25.5
 20
-42.35
 11
-28.85
 21
-42.35
  0
LINE
  8
0
 10
-28.85
 20
-42.35
 11
-28.85
 21
-33.65
  0
LINE
  8
0
 10
-28.85
 20
-33.65
 11
-25.5
 21
-33.65
  0
LINE
  8
0
 10
-25.5
 20
-33.65
 11
-25.5
 21
-30
  0
LINE
  8
0
 10
-25.5
 20
-30
 11
-33.15
 21
-30
  0
LINE
  8
0
 10
-33.15
 20
-30
 11
-33.15
 21
-33.35
  0
LINE
  8
0
 10
-33.15
 20
-33.35
 11
-41.85
 21
-33.35
  0
LINE
  8
0
 10
-41.85
 20
-33.35
 11
-41.85
 21
-30
  0
LINE
  8
0
 10
-41.85
 20
-30
 11
-51.15
 21
-30
  0
LINE
  8
0
 10
-51.15
 20
-30
 11
-51.15
 21
-33.35
  0
LINE
  8
0
 10
-51.15
 20
-33.35
 11
-59.85
 21
-33.35
  0
LINE
  8
0
 10
-59.85
 20
-33.35
 11
-59.85
 21
-30
  0
LINE
  8
0
 10
-59.85
 20
-30
 11
-69.15
 21
-30
  0
LINE
  8
0
 10
-69.15
 20
-30
 11
-69.15
 21
-33.35
  0
LINE
  8
0
 10
-69.15
 20
-33.35
 11
-77.85
 21
-33.35
  0
LINE
  8
0
 10
-77.85
 20
-33.35
 11
-77.85
 21
-30
  0
LINE
  8
0
 10
-77.85
 20
-30
 11
-85.5
 21
-30
  0
LINE
  8
0
 10
-85.5
 20
-30
 11
-85.5
 21
-33.65
  0
LINE
  8
0
 10
-85.5
 20
-33.65
 11
-82.15
 21
-33.65
  0
LINE
  8
0
 10
-82.15
 20
-33.65
 11
-82.15
 21
-42.35
  0
LINE
  8
0
 10
-82.15
 20
-42.35
 11
-85.5
 21
-42.35
  0
LINE
  8
0
 10
-85.5
 20
-42.35
 11
-85.5
 21
-51.65
  0
LINE
  8
0
 10
-85.5
 20
-51.65
 11
-82.15
 21
-51.65
  0
LINE
  8
0
 10
-82.15
 20
-51.65
 11
-82.15
 21
-60.35
  0
LINE
  8
0
 10
-82.15
 20
-60.35
 11
-85.5
 21
-60.35
  0
LINE
  8
0
 10
-85.5
 20
-60.35
 11
-85.5
 21
-69.65
  0
LINE
  8
0
 10
-85.5
 20
-69.65
 11
-82.15
 21
-69.65
  0
LINE
  8
0
 10
-82.15
 20
-69.65
 11
-82.15
 21
-78.35
  0
LINE
  8
0
 10
-82.15
 20
-78.35
 11
-85.5
 21
-78.35
  0
LINE
  8
0
 10
-85.5
 20
-78.35
 11
-85.5
 21
-87.65
  0
LINE
  8
0
 10
-85.5
 20
-87.65
 11
-82.15
 21
-87.65
  0
LINE
  8
0
 10
-82.15
 20
-87.65
 11
-82.15
 21
-96.35
  0
LINE
  8
0
 10
-82.15
 20
-96.35
 11
-85.5
 21
-96.35
  0
LINE
  8
0
 10
-85.5
 20
-96.35
 11
-85.5
 21
-100
  0
LINE
  8
0
 10
-85.5
 20
-100
 11
-77.85
 21
-100
  0
LINE
  8
0
 10
-77.85
 20
-100
 11
-77.85
 21
-96.65
  0
LINE
  8
0
 10
-51.4966
 20
-68.875
 11
-51.4966
 21
-63.699
  0
LINE
  8
0
 10
-51.4966
 20
-63.699
 11
-52.3166
 21
-63.699
  0
LINE
  8
0
 10
-52.3166
 20
-63.699
 11
-52.3166
 21
-62.987
  0
LINE
  8
0
 10
-52.3166
 20
-62.987
 11
-51.4966
 21
-62.987
  0
LINE
  8
0
 10
-51.4966
 20
-62.987
 11
-51.4966
 21
-62.323
  0
LINE
  8
0
 10
-51.4966
 20
-62.323
 11
-51.4747
 21
-61.9488
  0
LINE
  8
0
 10
-51.4747
 20
-61.9488
 11
-51.4089
 21
-61.631
  0
LINE
  8
0
 10
-51.4089
 20
-61.631
 11
-51.2992
 21
-61.3698
  0
LINE
  8
0
 10
-51.2992
 20
-61.3698
 11
-51.1456
 21
-61.165
  0
LINE
  8
0
 10
-51.1456
 20
-61.165
 11
-50.9469
 21
-61.0101
  0
LINE
  8
0
 10
-50.9469
 20
-61.0101
 11
-50.7016
 21
-60.8995
  0
LINE
  8
0
 10
-50.7016
 20
-60.8995
 11
-50.4099
 21
-60.8331
  0
LINE
  8
0
 10
-50.4099
 20
-60.8331
 11
-50.0716
 21
-60.811
  0
LINE
  8
0
 10
-50.0716
 20
-60.811
 11
-49.8769
 21
-60.8151
  0
LINE
  8
0
 10
-49.8769
 20
-60.8151
 11
-49.6976
 21
-60.8273
  0
LINE
  8
0
 10
-49.6976
 20
-60.8273
 11
-49.5339
 21
-60.8476
  0
LINE
  8
0
 10
-49.5339
 20
-60.8476
 11
-49.3856
 21
-60.876
  0
LINE
  8
0
 10
-49.3856
 20
-60.876
 11
-49.3856
 21
-61.622
  0
LINE
  8
0
 10
-49.3856
 20
-61.622
 11
-49.5028
 21
-61.6028
  0
LINE
  8
0
 10
-49.5028
 20
-61.6028
 11
-49.6134
 21
-61.589
  0
LINE
  8
0
 10
-49.6134
 20
-61.589
 11
-49.7173
 21
-61.5808
  0
LINE
  8
0
 10
-49.7173
 20
-61.5808
 11
-49.8146
 21
-61.578
  0
LINE
  8
0
 10
-49.8146
 20
-61.578
 11
-49.987
 21
-61.59
  0
LINE
  8
0
 10
-49.987
 20
-61.59
 11
-50.1339
 21
-61.6258
  0
LINE
  8
0
 10
-50.1339
 20
-61.6258
 11
-50.2554
 21
-61.6854
  0
LINE
  8
0
 10
-50.2554
 20
-61.6854
 11
-50.3516
 21
-61.769
  0
LINE
  8
0
 10
-50.3516
 20
-61.769
 11
-50.4243
 21
-61.8834
  0
LINE
  8
0
 10
-50.4243
 20
-61.8834
 11
-50.4761
 21
-62.0365
  0
LINE
  8
0
 10
-50.4761
 20
-62.0365
 11
-50.5073
 21
-62.2284
  0
LINE
  8
0
 10
-50.5073
 20
-62.2284
 11
-50.5176
 21
-62.459
  0
LINE
  8
0
 10
-50.5176
 20
-62.459
 11
-50.5176
 21
-62.987
  0
LINE
  8
0
 10
-50.5176
 20
-62.987
 11
-49.3856
 21
-62.987
  0
LINE
  8
0
 10
-49.3856
 20
-62.987
 11
-49.3856
 21
-63.699
  0
LINE
  8
0
 10
-49.3856
 20
-63.699
 11
-50.5176
 21
-63.699
  0
LINE
  8
0
 10
-50.5176
 20
-63.699
 11
-50.5176
 21
-68.875
  0
LINE
  8
0
 10
-50.5176
 20
-68.875
 11
-51.4966
 21
-68.875
  0
LINE
  8
0
 10
-63.6533
 20
-68.875
 11
-63.6533
 21
-61.195
  0
LINE
  8
0
 10
-63.6533
 20
-61.195
 11
-62.6153
 21
-61.195
  0
LINE
  8
0
 10
-62.6153
 20
-61.195
 11
-62.6153
 21
-68.027
  0
LINE
  8
0
 10
-62.6153
 20
-68.027
 11
-58.7323
 21
-68.027
  0
LINE
  8
0
 10
-58.7323
 20
-68.027
 11
-58.7323
 21
-68.875
  0
LINE
  8
0
 10
-58.7323
 20
-68.875
 11
-63.6533
 21
-68.875
  0
LINE
  8
0
 10
-47.9543
 20
-68.856
 11
-48.3186
 21
-68.607
  0
LINE
  8
0
 10
-48.3186
 20
-68.607
 11
-48.5373
 21
-68.192
  0
LINE
  8
0
 10
-48.5373
 20
-68.192
 11
-48.6102
 21
-67.611
  0
LINE
  8
0
 10
-48.6102
 20
-67.611
 11
-48.6102
 21
-63.699
  0
LINE
  8
0
 10
-48.6102
 20
-63.699
 11
-49.2892
 21
-63.699
  0
LINE
  8
0
 10
-49.2892
 20
-63.699
 11
-49.2892
 21
-62.987
  0
LINE
  8
0
 10
-49.2892
 20
-62.987
 11
-48.5722
 21
-62.987
  0
LINE
  8
0
 10
-48.5722
 20
-62.987
 11
-48.2832
 21
-61.643
  0
LINE
  8
0
 10
-48.2832
 20
-61.643
 11
-47.6311
 21
-61.643
  0
LINE
  8
0
 10
-47.6311
 20
-61.643
 11
-47.6311
 21
-62.987
  0
LINE
  8
0
 10
-47.6311
 20
-62.987
 11
-46.5592
 21
-62.987
  0
LINE
  8
0
 10
-46.5592
 20
-62.987
 11
-46.5592
 21
-63.699
  0
LINE
  8
0
 10
-46.5592
 20
-63.699
 11
-47.6311
 21
-63.699
  0
LINE
  8
0
 10
-47.6311
 20
-63.699
 11
-47.6311
 21
-67.397
  0
LINE
  8
0
 10
-47.6311
 20
-67.397
 11
-47.6227
 21
-67.5927
  0
LINE
  8
0
 10
-47.6227
 20
-67.5927
 11
-47.5972
 21
-67.757
  0
LINE
  8
0
 10
-47.5972
 20
-67.757
 11
-47.5547
 21
-67.8897
  0
LINE
  8
0
 10
-47.5547
 20
-67.8897
 11
-47.4952
 21
-67.991
  0
LINE
  8
0
 10
-47.4952
 20
-67.991
 11
-47.4141
 21
-68.0654
  0
LINE
  8
0
 10
-47.4141
 20
-68.0654
 11
-47.3079
 21
-68.1185
  0
LINE
  8
0
 10
-47.3079
 20
-68.1185
 11
-47.1766
 21
-68.1504
  0
LINE
  8
0
 10
-47.1766
 20
-68.1504
 11
-47.0202
 21
-68.161
  0
LINE
  8
0
 10
-47.0202
 20
-68.161
 11
-46.9129
 21
-68.1562
  0
LINE
  8
0
 10
-46.9129
 20
-68.1562
 11
-46.7841
 21
-68.142
  0
LINE
  8
0
 10
-46.7841
 20
-68.142
 11
-46.6339
 21
-68.1182
  0
LINE
  8
0
 10
-46.6339
 20
-68.1182
 11
-46.4622
 21
-68.085
  0
LINE
  8
0
 10
-46.4622
 20
-68.085
 11
-46.4622
 21
-68.808
  0
LINE
  8
0
 10
-46.4622
 20
-68.808
 11
-46.7035
 21
-68.8653
  0
LINE
  8
0
 10
-46.7035
 20
-68.8653
 11
-46.9477
 21
-68.9062
  0
LINE
  8
0
 10
-46.9477
 20
-68.9062
 11
-47.1945
 21
-68.9308
  0
LINE
  8
0
 10
-47.1945
 20
-68.9308
 11
-47.4442
 21
-68.939
  0
LINE
  8
0
 10
-47.4442
 20
-68.939
 11
-47.9543
 21
-68.856
  0
LINE
  8
0
 10
-55.9865
 20
-68.9541
 11
-56.5235
 21
-68.8072
  0
LINE
  8
0
 10
-56.5235
 20
-68.8072
 11
-56.9825
 21
-68.5626
  0
LINE
  8
0
 10
-56.9825
 20
-68.5626
 11
-57.3635
 21
-68.22
  0
LINE
  8
0
 10
-57.3635
 20
-68.22
 11
-57.6627
 21
-67.7809
  0
LINE
  8
0
 10
-57.6627
 20
-67.7809
 11
-57.8765
 21
-67.2467
  0
LINE
  8
0
 10
-57.8765
 20
-67.2467
 11
-58.0047
 21
-66.6174
  0
LINE
  8
0
 10
-58.0047
 20
-66.6174
 11
-58.0475
 21
-65.893
  0
LINE
  8
0
 10
-58.0475
 20
-65.893
 11
-58.0047
 21
-65.2018
  0
LINE
  8
0
 10
-58.0047
 20
-65.2018
 11
-57.8765
 21
-64.5963
  0
LINE
  8
0
 10
-57.8765
 20
-64.5963
 11
-57.6627
 21
-64.0763
  0
LINE
  8
0
 10
-57.6627
 20
-64.0763
 11
-57.3635
 21
-63.642
  0
LINE
  8
0
 10
-57.3635
 20
-63.642
 11
-56.9848
 21
-63.2994
  0
LINE
  8
0
 10
-56.9848
 20
-63.2994
 11
-56.533
 21
-63.0548
  0
LINE
  8
0
 10
-56.533
 20
-63.0548
 11
-56.0079
 21
-62.9079
  0
LINE
  8
0
 10
-56.0079
 20
-62.9079
 11
-55.4095
 21
-62.859
  0
LINE
  8
0
 10
-55.4095
 20
-62.859
 11
-54.272
 21
-63.0538
  0
LINE
  8
0
 10
-54.272
 20
-63.0538
 11
-53.4595
 21
-63.638
  0
LINE
  8
0
 10
-53.4595
 20
-63.638
 11
-52.972
 21
-64.6118
  0
LINE
  8
0
 10
-52.972
 20
-64.6118
 11
-52.8095
 21
-65.975
  0
LINE
  8
0
 10
-52.8095
 20
-65.975
 11
-52.8095
 21
-66.105
  0
LINE
  8
0
 10
-52.8095
 20
-66.105
 11
-57.0195
 21
-66.105
  0
LINE
  8
0
 10
-57.0195
 20
-66.105
 11
-56.9932
 21
-66.5939
  0
LINE
  8
0
 10
-56.9932
 20
-66.5939
 11
-56.9145
 21
-67.0237
  0
LINE
  8
0
 10
-56.9145
 20
-67.0237
 11
-56.7832
 21
-67.3944
  0
LINE
  8
0
 10
-56.7832
 20
-67.3944
 11
-56.5995
 21
-67.706
  0
LINE
  8
0
 10
-56.5995
 20
-67.706
 11
-56.3649
 21
-67.9523
  0
LINE
  8
0
 10
-56.3649
 20
-67.9523
 11
-56.082
 21
-68.1282
  0
LINE
  8
0
 10
-56.082
 20
-68.1282
 11
-55.7509
 21
-68.2338
  0
LINE
  8
0
 10
-55.7509
 20
-68.2338
 11
-55.3715
 21
-68.269
  0
LINE
  8
0
 10
-55.3715
 20
-68.269
 11
-55.0679
 21
-68.2525
  0
LINE
  8
0
 10
-55.0679
 20
-68.2525
 11
-54.796
 21
-68.2032
  0
LINE
  8
0
 10
-54.796
 20
-68.2032
 11
-54.5559
 21
-68.121
  0
LINE
  8
0
 10
-54.5559
 20
-68.121
 11
-54.3475
 21
-68.006
  0
LINE
  8
0
 10
-54.3475
 20
-68.006
 11
-54.1705
 21
-67.8653
  0
LINE
  8
0
 10
-54.1705
 20
-67.8653
 11
-54.0247
 21
-67.7072
  0
LINE
  8
0
 10
-54.0247
 20
-67.7072
 11
-53.91
 21
-67.5318
  0
LINE
  8
0
 10
-53.91
 20
-67.5318
 11
-53.8265
 21
-67.339
  0
LINE
  8
0
 10
-53.8265
 20
-67.339
 11
-52.9675
 21
-67.588
  0
LINE
  8
0
 10
-52.9675
 20
-67.588
 11
-53.3161
 21
-68.2071
  0
LINE
  8
0
 10
-53.3161
 20
-68.2071
 11
-53.833
 21
-68.6492
  0
LINE
  8
0
 10
-53.833
 20
-68.6492
 11
-54.5181
 21
-68.9146
  0
LINE
  8
0
 10
-54.5181
 20
-68.9146
 11
-55.3715
 21
-69.003
  0
LINE
  8
0
 10
-55.3715
 20
-69.003
 11
-55.9865
 21
-68.9541
  0
LINE
  8
0
 10
-53.8819
 20
-64.9243
 11
-53.9812
 21
-64.556
  0
LINE
  8
0
 10
-53.9812
 20
-64.556
 11
-54.1194
 21
-64.2503
  0
LINE
  8
0
 10
-54.1194
 20
-64.2503
 11
-54.2965
 21
-64.007
  0
LINE
  8
0
 10
-54.2965
 20
-64.007
 11
-54.5144
 21
-63.8211
  0
LINE
  8
0
 10
-54.5144
 20
-63.8211
 11
-54.7752
 21
-63.6883
  0
LINE
  8
0
 10
-54.7752
 20
-63.6883
 11
-55.0789
 21
-63.6086
  0
LINE
  8
0
 10
-55.0789
 20
-63.6086
 11
-55.4255
 21
-63.582
  0
LINE
  8
0
 10
-55.4255
 20
-63.582
 11
-55.7644
 21
-63.6116
  0
LINE
  8
0
 10
-55.7644
 20
-63.6116
 11
-56.0662
 21
-63.7003
  0
LINE
  8
0
 10
-56.0662
 20
-63.7003
 11
-56.3309
 21
-63.8481
  0
LINE
  8
0
 10
-56.3309
 20
-63.8481
 11
-56.5585
 21
-64.055
  0
LINE
  8
0
 10
-56.5585
 20
-64.055
 11
-56.743
 21
-64.3136
  0
LINE
  8
0
 10
-56.743
 20
-64.3136
 11
-56.8795
 21
-64.6165
  0
LINE
  8
0
 10
-56.8795
 20
-64.6165
 11
-56.968
 21
-64.9636
  0
LINE
  8
0
 10
-56.968
 20
-64.9636
 11
-57.0085
 21
-65.355
  0
LINE
  8
0
 10
-57.0085
 20
-65.355
 11
-53.8215
 21
-65.355
  0
LINE
  8
0
 10
-53.8215
 20
-65.355
 11
-53.8819
 21
-64.9243
  0
LINE
  8
0
 10
-4.34999
 20
-157.15
 11
4.34999
 21
-157.15
  0
LINE
  8
0
 10
4.34999
 20
-157.15
 11
4.34999
 21
-160.5
  0
LINE
  8
0
 10
4.34999
 20
-160.5
 11
13.65
 21
-160.5
  0
LINE
  8
0
 10
13.65
 20
-160.5
 11
13.65
 21
-157.15
  0
LINE
  8
0
 10
13.65
 20
-157.15
 11
21.65
 21
-157.15
  0
LINE
  8
0
 10
21.65
 20
-157.15
 11
21.65
 21
-153.15
  0
LINE
  8
0
 10
21.65
 20
-153.15
 11
25
 21
-153.15
  0
LINE
  8
0
 10
25
 20
-153.15
 11
25
 21
-143.85
  0
LINE
  8
0
 10
25
 20
-143.85
 11
21.65
 21
-143.85
  0
LINE
  8
0
 10
21.65
 20
-143.85
 11
21.65
 21
-135.15
  0
LINE
  8
0
 10
21.65
 20
-135.15
 11
25
 21
-135.15
  0
LINE
  8
0
 10
25
 20
-135.15
 11
25
 21
-125.85
  0
LINE
  8
0
 10
25
 20
-125.85
 11
21.65
 21
-125.85
  0
LINE
  8
0
 10
21.65
 20
-125.85
 11
21.65
 21
-117.15
  0
LINE
  8
0
 10
21.65
 20
-117.15
 11
25
 21
-117.15
  0
LINE
  8
0
 10
25
 20
-117.15
 11
25
 21
-107.85
  0
LINE
  8
0
 10
25
 20
-107.85
 11
21.65
 21
-107.85
  0
LINE
  8
0
 10
21.65
 20
-107.85
 11
21.65
 21
-103.85
  0
LINE
  8
0
 10
21.65
 20
-103.85
 11
13.65
 21
-103.85
  0
LINE
  8
0
 10
13.65
 20
-103.85
 11
13.65
 21
-100.5
  0
LINE
  8
0
 10
13.65
 20
-100.5
 11
4.34999
 21
-100.5
  0
LINE
  8
0
 10
4.34999
 20
-100.5
 11
4.34999
 21
-103.85
  0
LINE
  8
0
 10
4.34999
 20
-103.85
 11
-4.35001
 21
-103.85
  0
LINE
  8
0
 10
-4.35001
 20
-103.85
 11
-4.35001
 21
-100.5
  0
LINE
  8
0
 10
-4.35001
 20
-100.5
 11
-13.65
 21
-100.5
  0
LINE
  8
0
 10
-13.65
 20
-100.5
 11
-13.65
 21
-103.85
  0
LINE
  8
0
 10
-13.65
 20
-103.85
 11
-21.65
 21
-103.85
  0
LINE
  8
0
 10
-21.65
 20
-103.85
 11
-21.65
 21
-107.85
  0
LINE
  8
0
 10
-21.65
 20
-107.85
 11
-25
 21
-107.85
  0
LINE
  8
0
 10
-25
 20
-107.85
 11
-25
 21
-117.15
  0
LINE
  8
0
 10
-25
 20
-117.15
 11
-21.65
 21
-117.15
  0
LINE
  8
0
 10
-21.65
 20
-117.15
 11
-21.65
 21
-125.85
  0
LINE
  8
0
 10
-21.65
 20
-125.85
 11
-25
 21
-125.85
  0
LINE
  8
0
 10
-25
 20
-125.85
 11
-25
 21
-135.15
  0
LINE
  8
0
 10
-25
 20
-135.15
 11
-21.65
 21
-135.15
  0
LINE
  8
0
 10
-21.65
 20
-135.15
 11
-21.65
 21
-143.85
  0
LINE
  8
0
 10
-21.65
 20
-143.85
 11
-25
 21
-143.85
  0
LINE
  8
0
 10
-25
 20
-143.85
 11
-25
 21
-153.15
  0
LINE
  8
0
 10
-25
 20
-153.15
 11
-21.65
 21
-153.15
  0
LINE
  8
0
 10
-21.65
 20
-153.15
 11
-21.65
 21
-157.15
  0
LINE
  8
0
 10
-21.65
 20
-157.15
 11
-13.65
 21
-157.15
  0
LINE
  8
0
 10
-13.65
 20
-157.15
 11
-13.65
 21
-160.5
  0
LINE
  8
0
 10
-13.65
 20
-160.5
 11
-4.34999
 21
-160.5
  0
LINE
  8
0
 10
-4.34999
 20
-160.5
 11
-4.34999
 21
-157.15
  0
LINE
  8
0
 10
-16.3126
 20
-134.188
 11
-16.3126
 21
-126.508
  0
LINE
  8
0
 10
-16.3126
 20
-126.508
 11
-13.5306
 21
-126.508
  0
LINE
  8
0
 10
-13.5306
 20
-126.508
 11
-12.3511
 21
-126.624
  0
LINE
  8
0
 10
-12.3511
 20
-126.624
 11
-11.5086
 21
-126.973
  0
LINE
  8
0
 10
-11.5086
 20
-126.973
 11
-11.0031
 21
-127.555
  0
LINE
  8
0
 10
-11.0031
 20
-127.555
 11
-10.8346
 21
-128.371
  0
LINE
  8
0
 10
-10.8346
 20
-128.371
 11
-10.8584
 21
-128.697
  0
LINE
  8
0
 10
-10.8584
 20
-128.697
 11
-10.9298
 21
-128.997
  0
LINE
  8
0
 10
-10.9298
 20
-128.997
 11
-11.0489
 21
-129.269
  0
LINE
  8
0
 10
-11.0489
 20
-129.269
 11
-11.2156
 21
-129.515
  0
LINE
  8
0
 10
-11.2156
 20
-129.515
 11
-11.4253
 21
-129.727
  0
LINE
  8
0
 10
-11.4253
 20
-129.727
 11
-11.6743
 21
-129.901
  0
LINE
  8
0
 10
-11.6743
 20
-129.901
 11
-11.9628
 21
-130.037
  0
LINE
  8
0
 10
-11.9628
 20
-130.037
 11
-12.2906
 21
-130.136
  0
LINE
  8
0
 10
-12.2906
 20
-130.136
 11
-11.8603
 21
-130.215
  0
LINE
  8
0
 10
-11.8603
 20
-130.215
 11
-11.4823
 21
-130.344
  0
LINE
  8
0
 10
-11.4823
 20
-130.344
 11
-11.1568
 21
-130.522
  0
LINE
  8
0
 10
-11.1568
 20
-130.522
 11
-10.8836
 21
-130.749
  0
LINE
  8
0
 10
-10.8836
 20
-130.749
 11
-10.667
 21
-131.018
  0
LINE
  8
0
 10
-10.667
 20
-131.018
 11
-10.5123
 21
-131.32
  0
LINE
  8
0
 10
-10.5123
 20
-131.32
 11
-10.4195
 21
-131.655
  0
LINE
  8
0
 10
-10.4195
 20
-131.655
 11
-10.3886
 21
-132.022
  0
LINE
  8
0
 10
-10.3886
 20
-132.022
 11
-10.4351
 21
-132.507
  0
LINE
  8
0
 10
-10.4351
 20
-132.507
 11
-10.5748
 21
-132.934
  0
LINE
  8
0
 10
-10.5748
 20
-132.934
 11
-10.8076
 21
-133.304
  0
LINE
  8
0
 10
-10.8076
 20
-133.304
 11
-11.1336
 21
-133.617
  0
LINE
  8
0
 10
-11.1336
 20
-133.617
 11
-11.5419
 21
-133.867
  0
LINE
  8
0
 10
-11.5419
 20
-133.867
 11
-12.0231
 21
-134.045
  0
LINE
  8
0
 10
-12.0231
 20
-134.045
 11
-12.577
 21
-134.152
  0
LINE
  8
0
 10
-12.577
 20
-134.152
 11
-13.2036
 21
-134.188
  0
LINE
  8
0
 10
-13.2036
 20
-134.188
 11
-16.3126
 21
-134.188
  0
LINE
  8
0
 10
-13.141
 20
-129.752
 11
-12.8041
 21
-129.693
  0
LINE
  8
0
 10
-12.8041
 20
-129.693
 11
-12.52
 21
-129.595
  0
LINE
  8
0
 10
-12.52
 20
-129.595
 11
-12.2886
 21
-129.459
  0
LINE
  8
0
 10
-12.2886
 20
-129.459
 11
-12.1092
 21
-129.281
  0
LINE
  8
0
 10
-12.1092
 20
-129.281
 11
-11.9811
 21
-129.061
  0
LINE
  8
0
 10
-11.9811
 20
-129.061
 11
-11.9042
 21
-128.799
  0
LINE
  8
0
 10
-11.9042
 20
-128.799
 11
-11.8786
 21
-128.496
  0
LINE
  8
0
 10
-11.8786
 20
-128.496
 11
-11.9051
 21
-128.207
  0
LINE
  8
0
 10
-11.9051
 20
-128.207
 11
-11.9846
 21
-127.962
  0
LINE
  8
0
 10
-11.9846
 20
-127.962
 11
-12.1171
 21
-127.762
  0
LINE
  8
0
 10
-12.1171
 20
-127.762
 11
-12.3026
 21
-127.607
  0
LINE
  8
0
 10
-12.3026
 20
-127.607
 11
-12.5383
 21
-127.49
  0
LINE
  8
0
 10
-12.5383
 20
-127.49
 11
-12.8216
 21
-127.406
  0
LINE
  8
0
 10
-12.8216
 20
-127.406
 11
-13.1523
 21
-127.356
  0
LINE
  8
0
 10
-13.1523
 20
-127.356
 11
-13.5306
 21
-127.34
  0
LINE
  8
0
 10
-13.5306
 20
-127.34
 11
-15.2746
 21
-127.34
  0
LINE
  8
0
 10
-15.2746
 20
-127.34
 11
-15.2746
 21
-129.772
  0
LINE
  8
0
 10
-15.2746
 20
-129.772
 11
-13.5306
 21
-129.772
  0
LINE
  8
0
 10
-13.5306
 20
-129.772
 11
-13.141
 21
-129.752
  0
LINE
  8
0
 10
-12.8153
 20
-133.333
 11
-12.4366
 21
-133.267
  0
LINE
  8
0
 10
-12.4366
 20
-133.267
 11
-12.1223
 21
-133.156
  0
LINE
  8
0
 10
-12.1223
 20
-133.156
 11
-11.8726
 21
-133
  0
LINE
  8
0
 10
-11.8726
 20
-133
 11
-11.6823
 21
-132.801
  0
LINE
  8
0
 10
-11.6823
 20
-132.801
 11
-11.5463
 21
-132.558
  0
LINE
  8
0
 10
-11.5463
 20
-132.558
 11
-11.4648
 21
-132.272
  0
LINE
  8
0
 10
-11.4648
 20
-132.272
 11
-11.4376
 21
-131.941
  0
LINE
  8
0
 10
-11.4376
 20
-131.941
 11
-11.5565
 21
-131.346
  0
LINE
  8
0
 10
-11.5565
 20
-131.346
 11
-11.9131
 21
-130.921
  0
LINE
  8
0
 10
-11.9131
 20
-130.921
 11
-12.5074
 21
-130.666
  0
LINE
  8
0
 10
-12.5074
 20
-130.666
 11
-13.3396
 21
-130.581
  0
LINE
  8
0
 10
-13.3396
 20
-130.581
 11
-15.2746
 21
-130.581
  0
LINE
  8
0
 10
-15.2746
 20
-130.581
 11
-15.2746
 21
-133.355
  0
LINE
  8
0
 10
-15.2746
 20
-133.355
 11
-13.2586
 21
-133.355
  0
LINE
  8
0
 10
-13.2586
 20
-133.355
 11
-12.8153
 21
-133.333
  0
LINE
  8
0
 10
0.59552
 20
-134.168
 11
0.231155
 21
-133.919
  0
LINE
  8
0
 10
0.231155
 20
-133.919
 11
0.0125275
 21
-133.504
  0
LINE
  8
0
 10
0.0125275
 20
-133.504
 11
-0.0603333
 21
-132.923
  0
LINE
  8
0
 10
-0.0603333
 20
-132.923
 11
-0.0603333
 21
-129.012
  0
LINE
  8
0
 10
-0.0603333
 20
-129.012
 11
-0.739334
 21
-129.012
  0
LINE
  8
0
 10
-0.739334
 20
-129.012
 11
-0.739334
 21
-128.3
  0
LINE
  8
0
 10
-0.739334
 20
-128.3
 11
-0.0223389
 21
-128.3
  0
LINE
  8
0
 10
-0.0223389
 20
-128.3
 11
0.266647
 21
-126.956
  0
LINE
  8
0
 10
0.266647
 20
-126.956
 11
0.918655
 21
-126.956
  0
LINE
  8
0
 10
0.918655
 20
-126.956
 11
0.918655
 21
-128.3
  0
LINE
  8
0
 10
0.918655
 20
-128.3
 11
1.99065
 21
-128.3
  0
LINE
  8
0
 10
1.99065
 20
-128.3
 11
1.99065
 21
-129.012
  0
LINE
  8
0
 10
1.99065
 20
-129.012
 11
0.918655
 21
-129.012
  0
LINE
  8
0
 10
0.918655
 20
-129.012
 11
0.918655
 21
-132.709
  0
LINE
  8
0
 10
0.918655
 20
-132.709
 11
0.927155
 21
-132.905
  0
LINE
  8
0
 10
0.927155
 20
-132.905
 11
0.952652
 21
-133.069
  0
LINE
  8
0
 10
0.952652
 20
-133.069
 11
0.995148
 21
-133.202
  0
LINE
  8
0
 10
0.995148
 20
-133.202
 11
1.05464
 21
-133.303
  0
LINE
  8
0
 10
1.05464
 20
-133.303
 11
1.13571
 21
-133.378
  0
LINE
  8
0
 10
1.13571
 20
-133.378
 11
1.2419
 21
-133.431
  0
LINE
  8
0
 10
1.2419
 20
-133.431
 11
1.37321
 21
-133.463
  0
LINE
  8
0
 10
1.37321
 20
-133.463
 11
1.52965
 21
-133.473
  0
LINE
  8
0
 10
1.52965
 20
-133.473
 11
1.6369
 21
-133.469
  0
LINE
  8
0
 10
1.6369
 20
-133.469
 11
1.76566
 21
-133.454
  0
LINE
  8
0
 10
1.76566
 20
-133.454
 11
1.91589
 21
-133.431
  0
LINE
  8
0
 10
1.91589
 20
-133.431
 11
2.08765
 21
-133.397
  0
LINE
  8
0
 10
2.08765
 20
-133.397
 11
2.08765
 21
-134.12
  0
LINE
  8
0
 10
2.08765
 20
-134.12
 11
1.84627
 21
-134.178
  0
LINE
  8
0
 10
1.84627
 20
-134.178
 11
1.60214
 21
-134.219
  0
LINE
  8
0
 10
1.60214
 20
-134.219
 11
1.35527
 21
-134.243
  0
LINE
  8
0
 10
1.35527
 20
-134.243
 11
1.10565
 21
-134.251
  0
LINE
  8
0
 10
1.10565
 20
-134.251
 11
0.59552
 21
-134.168
  0
LINE
  8
0
 10
-2.42595
 20
-134.168
 11
-2.79031
 21
-133.919
  0
LINE
  8
0
 10
-2.79031
 20
-133.919
 11
-3.00894
 21
-133.504
  0
LINE
  8
0
 10
-3.00894
 20
-133.504
 11
-3.08182
 21
-132.923
  0
LINE
  8
0
 10
-3.08182
 20
-132.923
 11
-3.08182
 21
-129.012
  0
LINE
  8
0
 10
-3.08182
 20
-129.012
 11
-3.76082
 21
-129.012
  0
LINE
  8
0
 10
-3.76082
 20
-129.012
 11
-3.76082
 21
-128.3
  0
LINE
  8
0
 10
-3.76082
 20
-128.3
 11
-3.04382
 21
-128.3
  0
LINE
  8
0
 10
-3.04382
 20
-128.3
 11
-2.75482
 21
-126.956
  0
LINE
  8
0
 10
-2.75482
 20
-126.956
 11
-2.10281
 21
-126.956
  0
LINE
  8
0
 10
-2.10281
 20
-126.956
 11
-2.10281
 21
-128.3
  0
LINE
  8
0
 10
-2.10281
 20
-128.3
 11
-1.03082
 21
-128.3
  0
LINE
  8
0
 10
-1.03082
 20
-128.3
 11
-1.03082
 21
-129.012
  0
LINE
  8
0
 10
-1.03082
 20
-129.012
 11
-2.10281
 21
-129.012
  0
LINE
  8
0
 10
-2.10281
 20
-129.012
 11
-2.10281
 21
-132.709
  0
LINE
  8
0
 10
-2.10281
 20
-132.709
 11
-2.09431
 21
-132.905
  0
LINE
  8
0
 10
-2.09431
 20
-132.905
 11
-2.06882
 21
-133.069
  0
LINE
  8
0
 10
-2.06882
 20
-133.069
 11
-2.02632
 21
-133.202
  0
LINE
  8
0
 10
-2.02632
 20
-133.202
 11
-1.96683
 21
-133.303
  0
LINE
  8
0
 10
-1.96683
 20
-133.303
 11
-1.88576
 21
-133.378
  0
LINE
  8
0
 10
-1.88576
 20
-133.378
 11
-1.77957
 21
-133.431
  0
LINE
  8
0
 10
-1.77957
 20
-133.431
 11
-1.64825
 21
-133.463
  0
LINE
  8
0
 10
-1.64825
 20
-133.463
 11
-1.49182
 21
-133.473
  0
LINE
  8
0
 10
-1.49182
 20
-133.473
 11
-1.38457
 21
-133.469
  0
LINE
  8
0
 10
-1.38457
 20
-133.469
 11
-1.25581
 21
-133.454
  0
LINE
  8
0
 10
-1.25581
 20
-133.454
 11
-1.10558
 21
-133.431
  0
LINE
  8
0
 10
-1.10558
 20
-133.431
 11
-0.933823
 21
-133.397
  0
LINE
  8
0
 10
-0.933823
 20
-133.397
 11
-0.933823
 21
-134.12
  0
LINE
  8
0
 10
-0.933823
 20
-134.12
 11
-1.1752
 21
-134.178
  0
LINE
  8
0
 10
-1.1752
 20
-134.178
 11
-1.41933
 21
-134.219
  0
LINE
  8
0
 10
-1.41933
 20
-134.219
 11
-1.6662
 21
-134.243
  0
LINE
  8
0
 10
-1.6662
 20
-134.243
 11
-1.91582
 21
-134.251
  0
LINE
  8
0
 10
-1.91582
 20
-134.251
 11
-2.42595
 21
-134.168
  0
LINE
  8
0
 10
8.93898
 20
-134.188
 11
8.93898
 21
-129.557
  0
LINE
  8
0
 10
8.93898
 20
-129.557
 11
8.93698
 21
-129.092
  0
LINE
  8
0
 10
8.93698
 20
-129.092
 11
8.93098
 21
-128.728
  0
LINE
  8
0
 10
8.93098
 20
-128.728
 11
8.92099
 21
-128.464
  0
LINE
  8
0
 10
8.92099
 20
-128.464
 11
8.90698
 21
-128.3
  0
LINE
  8
0
 10
8.90698
 20
-128.3
 11
9.83098
 21
-128.3
  0
LINE
  8
0
 10
9.83098
 20
-128.3
 11
9.83673
 21
-128.349
  0
LINE
  8
0
 10
9.83673
 20
-128.349
 11
9.8596
 21
-128.808
  0
LINE
  8
0
 10
9.8596
 20
-128.808
 11
9.87498
 21
-129.291
  0
LINE
  8
0
 10
9.87498
 20
-129.291
 11
9.89099
 21
-129.291
  0
LINE
  8
0
 10
9.89099
 20
-129.291
 11
10.0547
 21
-129
  0
LINE
  8
0
 10
10.0547
 20
-129
 11
10.23
 21
-128.758
  0
LINE
  8
0
 10
10.23
 20
-128.758
 11
10.4167
 21
-128.564
  0
LINE
  8
0
 10
10.4167
 20
-128.564
 11
10.615
 21
-128.418
  0
LINE
  8
0
 10
10.615
 20
-128.418
 11
10.8302
 21
-128.31
  0
LINE
  8
0
 10
10.8302
 20
-128.31
 11
11.0677
 21
-128.233
  0
LINE
  8
0
 10
11.0677
 20
-128.233
 11
11.3277
 21
-128.187
  0
LINE
  8
0
 10
11.3277
 20
-128.187
 11
11.61
 21
-128.172
  0
LINE
  8
0
 10
11.61
 20
-128.172
 11
11.9274
 21
-128.188
  0
LINE
  8
0
 10
11.9274
 20
-128.188
 11
12.2097
 21
-128.239
  0
LINE
  8
0
 10
12.2097
 20
-128.239
 11
12.4569
 21
-128.322
  0
LINE
  8
0
 10
12.4569
 20
-128.322
 11
12.669
 21
-128.44
  0
LINE
  8
0
 10
12.669
 20
-128.44
 11
12.8487
 21
-128.593
  0
LINE
  8
0
 10
12.8487
 20
-128.593
 11
12.9987
 21
-128.786
  0
LINE
  8
0
 10
12.9987
 20
-128.786
 11
13.1192
 21
-129.018
  0
LINE
  8
0
 10
13.1192
 20
-129.018
 11
13.21
 21
-129.291
  0
LINE
  8
0
 10
13.21
 20
-129.291
 11
13.226
 21
-129.291
  0
LINE
  8
0
 10
13.226
 20
-129.291
 11
13.3864
 21
-129.014
  0
LINE
  8
0
 10
13.3864
 20
-129.014
 11
13.5627
 21
-128.779
  0
LINE
  8
0
 10
13.5627
 20
-128.779
 11
13.7549
 21
-128.585
  0
LINE
  8
0
 10
13.7549
 20
-128.585
 11
13.963
 21
-128.434
  0
LINE
  8
0
 10
13.963
 20
-128.434
 11
14.1908
 21
-128.319
  0
LINE
  8
0
 10
14.1908
 20
-128.319
 11
14.4412
 21
-128.237
  0
LINE
  8
0
 10
14.4412
 20
-128.237
 11
14.7143
 21
-128.188
  0
LINE
  8
0
 10
14.7143
 20
-128.188
 11
15.01
 21
-128.172
  0
LINE
  8
0
 10
15.01
 20
-128.172
 11
15.426
 21
-128.202
  0
LINE
  8
0
 10
15.426
 20
-128.202
 11
15.781
 21
-128.293
  0
LINE
  8
0
 10
15.781
 20
-128.293
 11
16.075
 21
-128.445
  0
LINE
  8
0
 10
16.075
 20
-128.445
 11
16.308
 21
-128.658
  0
LINE
  8
0
 10
16.308
 20
-128.658
 11
16.4852
 21
-128.939
  0
LINE
  8
0
 10
16.4852
 20
-128.939
 11
16.6117
 21
-129.299
  0
LINE
  8
0
 10
16.6117
 20
-129.299
 11
16.6877
 21
-129.736
  0
LINE
  8
0
 10
16.6877
 20
-129.736
 11
16.713
 21
-130.252
  0
LINE
  8
0
 10
16.713
 20
-130.252
 11
16.713
 21
-134.188
  0
LINE
  8
0
 10
16.713
 20
-134.188
 11
15.745
 21
-134.188
  0
LINE
  8
0
 10
15.745
 20
-134.188
 11
15.745
 21
-130.441
  0
LINE
  8
0
 10
15.745
 20
-130.441
 11
15.7304
 21
-130.045
  0
LINE
  8
0
 10
15.7304
 20
-130.045
 11
15.6865
 21
-129.715
  0
LINE
  8
0
 10
15.6865
 20
-129.715
 11
15.6134
 21
-129.452
  0
LINE
  8
0
 10
15.6134
 20
-129.452
 11
15.511
 21
-129.256
  0
LINE
  8
0
 10
15.511
 20
-129.256
 11
15.3705
 21
-129.112
  0
LINE
  8
0
 10
15.3705
 20
-129.112
 11
15.1832
 21
-129.01
  0
LINE
  8
0
 10
15.1832
 20
-129.01
 11
14.9491
 21
-128.948
  0
LINE
  8
0
 10
14.9491
 20
-128.948
 11
14.668
 21
-128.928
  0
LINE
  8
0
 10
14.668
 20
-128.928
 11
14.3648
 21
-128.957
  0
LINE
  8
0
 10
14.3648
 20
-128.957
 11
14.0972
 21
-129.047
  0
LINE
  8
0
 10
14.0972
 20
-129.047
 11
13.8653
 21
-129.196
  0
LINE
  8
0
 10
13.8653
 20
-129.196
 11
13.669
 21
-129.406
  0
LINE
  8
0
 10
13.669
 20
-129.406
 11
13.5132
 21
-129.67
  0
LINE
  8
0
 10
13.5132
 20
-129.67
 11
13.402
 21
-129.984
  0
LINE
  8
0
 10
13.402
 20
-129.984
 11
13.3352
 21
-130.348
  0
LINE
  8
0
 10
13.3352
 20
-130.348
 11
13.313
 21
-130.762
  0
LINE
  8
0
 10
13.313
 20
-130.762
 11
13.313
 21
-134.188
  0
LINE
  8
0
 10
13.313
 20
-134.188
 11
12.345
 21
-134.188
  0
LINE
  8
0
 10
12.345
 20
-134.188
 11
12.345
 21
-130.441
  0
LINE
  8
0
 10
12.345
 20
-130.441
 11
12.3304
 21
-130.045
  0
LINE
  8
0
 10
12.3304
 20
-130.045
 11
12.2865
 21
-129.715
  0
LINE
  8
0
 10
12.2865
 20
-129.715
 11
12.2134
 21
-129.452
  0
LINE
  8
0
 10
12.2134
 20
-129.452
 11
12.111
 21
-129.256
  0
LINE
  8
0
 10
12.111
 20
-129.256
 11
11.9705
 21
-129.112
  0
LINE
  8
0
 10
11.9705
 20
-129.112
 11
11.783
 21
-129.01
  0
LINE
  8
0
 10
11.783
 20
-129.01
 11
11.5485
 21
-128.948
  0
LINE
  8
0
 10
11.5485
 20
-128.948
 11
11.267
 21
-128.928
  0
LINE
  8
0
 10
11.267
 20
-128.928
 11
10.9703
 21
-128.958
  0
LINE
  8
0
 10
10.9703
 20
-128.958
 11
10.7062
 21
-129.048
  0
LINE
  8
0
 10
10.7062
 20
-129.048
 11
10.4748
 21
-129.198
  0
LINE
  8
0
 10
10.4748
 20
-129.198
 11
10.276
 21
-129.409
  0
LINE
  8
0
 10
10.276
 20
-129.409
 11
10.1167
 21
-129.673
  0
LINE
  8
0
 10
10.1167
 20
-129.673
 11
10.003
 21
-129.987
  0
LINE
  8
0
 10
10.003
 20
-129.987
 11
9.93474
 21
-130.35
  0
LINE
  8
0
 10
9.93474
 20
-130.35
 11
9.91199
 21
-130.762
  0
LINE
  8
0
 10
9.91199
 20
-130.762
 11
9.91199
 21
-134.188
  0
LINE
  8
0
 10
9.91199
 20
-134.188
 11
8.93898
 21
-134.188
  0
LINE
  8
0
 10
4.59207
 20
-134.266
 11
4.06488
 21
-134.118
  0
LINE
  8
0
 10
4.06488
 20
-134.118
 11
3.61658
 21
-133.871
  0
LINE
  8
0
 10
3.61658
 20
-133.871
 11
3.24713
 21
-133.524
  0
LINE
  8
0
 10
3.24713
 20
-133.524
 11
2.95882
 21
-133.085
  0
LINE
  8
0
 10
2.95882
 20
-133.085
 11
2.75288
 21
-132.557
  0
LINE
  8
0
 10
2.75288
 20
-132.557
 11
2.62932
 21
-131.942
  0
LINE
  8
0
 10
2.62932
 20
-131.942
 11
2.58813
 21
-131.238
  0
LINE
  8
0
 10
2.58813
 20
-131.238
 11
2.75333
 21
-129.897
  0
LINE
  8
0
 10
2.75333
 20
-129.897
 11
3.24889
 21
-128.938
  0
LINE
  8
0
 10
3.24889
 20
-128.938
 11
4.07481
 21
-128.363
  0
LINE
  8
0
 10
4.07481
 20
-128.363
 11
5.23114
 21
-128.172
  0
LINE
  8
0
 10
5.23114
 20
-128.172
 11
5.86244
 21
-128.218
  0
LINE
  8
0
 10
5.86244
 20
-128.218
 11
6.40439
 21
-128.359
  0
LINE
  8
0
 10
6.40439
 20
-128.359
 11
6.85695
 21
-128.592
  0
LINE
  8
0
 10
6.85695
 20
-128.592
 11
7.22014
 21
-128.92
  0
LINE
  8
0
 10
7.22014
 20
-128.92
 11
7.49925
 21
-129.345
  0
LINE
  8
0
 10
7.49925
 20
-129.345
 11
7.69864
 21
-129.873
  0
LINE
  8
0
 10
7.69864
 20
-129.873
 11
7.81825
 21
-130.504
  0
LINE
  8
0
 10
7.81825
 20
-130.504
 11
7.85814
 21
-131.238
  0
LINE
  8
0
 10
7.85814
 20
-131.238
 11
7.81557
 21
-131.966
  0
LINE
  8
0
 10
7.81557
 20
-131.966
 11
7.68788
 21
-132.595
  0
LINE
  8
0
 10
7.68788
 20
-132.595
 11
7.47507
 21
-133.124
  0
LINE
  8
0
 10
7.47507
 20
-133.124
 11
7.17714
 21
-133.554
  0
LINE
  8
0
 10
7.17714
 20
-133.554
 11
6.79807
 21
-133.887
  0
LINE
  8
0
 10
6.79807
 20
-133.887
 11
6.34189
 21
-134.125
  0
LINE
  8
0
 10
6.34189
 20
-134.125
 11
5.80856
 21
-134.268
  0
LINE
  8
0
 10
5.80856
 20
-134.268
 11
5.19814
 21
-134.315
  0
LINE
  8
0
 10
5.19814
 20
-134.315
 11
4.59207
 21
-134.266
  0
LINE
  8
0
 10
5.59756
 20
-133.557
 11
5.94489
 21
-133.45
  0
LINE
  8
0
 10
5.94489
 20
-133.45
 11
6.22906
 21
-133.271
  0
LINE
  8
0
 10
6.22906
 20
-133.271
 11
6.45013
 21
-133.021
  0
LINE
  8
0
 10
6.45013
 20
-133.021
 11
6.61638
 21
-132.696
  0
LINE
  8
0
 10
6.61638
 20
-132.696
 11
6.73514
 21
-132.29
  0
LINE
  8
0
 10
6.73514
 20
-132.29
 11
6.80638
 21
-131.804
  0
LINE
  8
0
 10
6.80638
 20
-131.804
 11
6.83014
 21
-131.238
  0
LINE
  8
0
 10
6.83014
 20
-131.238
 11
6.80745
 21
-130.666
  0
LINE
  8
0
 10
6.80745
 20
-130.666
 11
6.73938
 21
-130.177
  0
LINE
  8
0
 10
6.73938
 20
-130.177
 11
6.62595
 21
-129.772
  0
LINE
  8
0
 10
6.62595
 20
-129.772
 11
6.46713
 21
-129.452
  0
LINE
  8
0
 10
6.46713
 20
-129.452
 11
6.25476
 21
-129.208
  0
LINE
  8
0
 10
6.25476
 20
-129.208
 11
5.98064
 21
-129.034
  0
LINE
  8
0
 10
5.98064
 20
-129.034
 11
5.64476
 21
-128.929
  0
LINE
  8
0
 10
5.64476
 20
-128.929
 11
5.24713
 21
-128.895
  0
LINE
  8
0
 10
5.24713
 20
-128.895
 11
4.84595
 21
-128.93
  0
LINE
  8
0
 10
4.84595
 20
-128.93
 11
4.50438
 21
-129.037
  0
LINE
  8
0
 10
4.50438
 20
-129.037
 11
4.22244
 21
-129.214
  0
LINE
  8
0
 10
4.22244
 20
-129.214
 11
4.00014
 21
-129.463
  0
LINE
  8
0
 10
4.00014
 20
-129.463
 11
3.8317
 21
-129.787
  0
LINE
  8
0
 10
3.8317
 20
-129.787
 11
3.71138
 21
-130.191
  0
LINE
  8
0
 10
3.71138
 20
-130.191
 11
3.63919
 21
-130.674
  0
LINE
  8
0
 10
3.63919
 20
-130.674
 11
3.61513
 21
-131.238
  0
LINE
  8
0
 10
3.61513
 20
-131.238
 11
3.63882
 21
-131.789
  0
LINE
  8
0
 10
3.63882
 20
-131.789
 11
3.70988
 21
-132.266
  0
LINE
  8
0
 10
3.70988
 20
-132.266
 11
3.82832
 21
-132.671
  0
LINE
  8
0
 10
3.82832
 20
-132.671
 11
3.99414
 21
-133.002
  0
LINE
  8
0
 10
3.99414
 20
-133.002
 11
4.2112
 21
-133.261
  0
LINE
  8
0
 10
4.2112
 20
-133.261
 11
4.48238
 21
-133.445
  0
LINE
  8
0
 10
4.48238
 20
-133.445
 11
4.80769
 21
-133.556
  0
LINE
  8
0
 10
4.80769
 20
-133.556
 11
5.18713
 21
-133.592
  0
LINE
  8
0
 10
5.18713
 20
-133.592
 11
5.59756
 21
-133.557
  0
LINE
  8
0
 10
-7.49873
 20
-134.266
 11
-8.02592
 21
-134.118
  0
LINE
  8
0
 10
-8.02592
 20
-134.118
 11
-8.47423
 21
-133.871
  0
LINE
  8
0
 10
-8.47423
 20
-133.871
 11
-8.84367
 21
-133.524
  0
LINE
  8
0
 10
-8.84367
 20
-133.524
 11
-9.13199
 21
-133.085
  0
LINE
  8
0
 10
-9.13199
 20
-133.085
 11
-9.33792
 21
-132.557
  0
LINE
  8
0
 10
-9.33792
 20
-132.557
 11
-9.46149
 21
-131.942
  0
LINE
  8
0
 10
-9.46149
 20
-131.942
 11
-9.50267
 21
-131.238
  0
LINE
  8
0
 10
-9.50267
 20
-131.238
 11
-9.33748
 21
-129.897
  0
LINE
  8
0
 10
-9.33748
 20
-129.897
 11
-8.84192
 21
-128.938
  0
LINE
  8
0
 10
-8.84192
 20
-128.938
 11
-8.01599
 21
-128.363
  0
LINE
  8
0
 10
-8.01599
 20
-128.363
 11
-6.85966
 21
-128.172
  0
LINE
  8
0
 10
-6.85966
 20
-128.172
 11
-6.22836
 21
-128.218
  0
LINE
  8
0
 10
-6.22836
 20
-128.218
 11
-5.68642
 21
-128.359
  0
LINE
  8
0
 10
-5.68642
 20
-128.359
 11
-5.23386
 21
-128.592
  0
LINE
  8
0
 10
-5.23386
 20
-128.592
 11
-4.87067
 21
-128.92
  0
LINE
  8
0
 10
-4.87067
 20
-128.92
 11
-4.59155
 21
-129.345
  0
LINE
  8
0
 10
-4.59155
 20
-129.345
 11
-4.39217
 21
-129.873
  0
LINE
  8
0
 10
-4.39217
 20
-129.873
 11
-4.27255
 21
-130.504
  0
LINE
  8
0
 10
-4.27255
 20
-130.504
 11
-4.23267
 21
-131.238
  0
LINE
  8
0
 10
-4.23267
 20
-131.238
 11
-4.27524
 21
-131.966
  0
LINE
  8
0
 10
-4.27524
 20
-131.966
 11
-4.40292
 21
-132.595
  0
LINE
  8
0
 10
-4.40292
 20
-132.595
 11
-4.61574
 21
-133.124
  0
LINE
  8
0
 10
-4.61574
 20
-133.124
 11
-4.91367
 21
-133.554
  0
LINE
  8
0
 10
-4.91367
 20
-133.554
 11
-5.29274
 21
-133.887
  0
LINE
  8
0
 10
-5.29274
 20
-133.887
 11
-5.74892
 21
-134.125
  0
LINE
  8
0
 10
-5.74892
 20
-134.125
 11
-6.28224
 21
-134.268
  0
LINE
  8
0
 10
-6.28224
 20
-134.268
 11
-6.89267
 21
-134.315
  0
LINE
  8
0
 10
-6.89267
 20
-134.315
 11
-7.49873
 21
-134.266
  0
LINE
  8
0
 10
-6.49324
 20
-133.557
 11
-6.14592
 21
-133.45
  0
LINE
  8
0
 10
-6.14592
 20
-133.45
 11
-5.86174
 21
-133.271
  0
LINE
  8
0
 10
-5.86174
 20
-133.271
 11
-5.64067
 21
-133.021
  0
LINE
  8
0
 10
-5.64067
 20
-133.021
 11
-5.47443
 21
-132.696
  0
LINE
  8
0
 10
-5.47443
 20
-132.696
 11
-5.35567
 21
-132.29
  0
LINE
  8
0
 10
-5.35567
 20
-132.29
 11
-5.28442
 21
-131.804
  0
LINE
  8
0
 10
-5.28442
 20
-131.804
 11
-5.26067
 21
-131.238
  0
LINE
  8
0
 10
-5.26067
 20
-131.238
 11
-5.28336
 21
-130.666
  0
LINE
  8
0
 10
-5.28336
 20
-130.666
 11
-5.35143
 21
-130.177
  0
LINE
  8
0
 10
-5.35143
 20
-130.177
 11
-5.46486
 21
-129.772
  0
LINE
  8
0
 10
-5.46486
 20
-129.772
 11
-5.62367
 21
-129.452
  0
LINE
  8
0
 10
-5.62367
 20
-129.452
 11
-5.83604
 21
-129.208
  0
LINE
  8
0
 10
-5.83604
 20
-129.208
 11
-6.11017
 21
-129.034
  0
LINE
  8
0
 10
-6.11017
 20
-129.034
 11
-6.44604
 21
-128.929
  0
LINE
  8
0
 10
-6.44604
 20
-128.929
 11
-6.84367
 21
-128.895
  0
LINE
  8
0
 10
-6.84367
 20
-128.895
 11
-7.24486
 21
-128.93
  0
LINE
  8
0
 10
-7.24486
 20
-128.93
 11
-7.58643
 21
-129.037
  0
LINE
  8
0
 10
-7.58643
 20
-129.037
 11
-7.86836
 21
-129.214
  0
LINE
  8
0
 10
-7.86836
 20
-129.214
 11
-8.09067
 21
-129.463
  0
LINE
  8
0
 10
-8.09067
 20
-129.463
 11
-8.25911
 21
-129.787
  0
LINE
  8
0
 10
-8.25911
 20
-129.787
 11
-8.37943
 21
-130.191
  0
LINE
  8
0
 10
-8.37943
 20
-130.191
 11
-8.45161
 21
-130.674
  0
LINE
  8
0
 10
-8.45161
 20
-130.674
 11
-8.47568
 21
-131.238
  0
LINE
  8
0
 10
-8.47568
 20
-131.238
 11
-8.45198
 21
-131.789
  0
LINE
  8
0
 10
-8.45198
 20
-131.789
 11
-8.38092
 21
-132.266
  0
LINE
  8
0
 10
-8.38092
 20
-132.266
 11
-8.26248
 21
-132.671
  0
LINE
  8
0
 10
-8.26248
 20
-132.671
 11
-8.09668
 21
-133.002
  0
LINE
  8
0
 10
-8.09668
 20
-133.002
 11
-7.87961
 21
-133.261
  0
LINE
  8
0
 10
-7.87961
 20
-133.261
 11
-7.60843
 21
-133.445
  0
LINE
  8
0
 10
-7.60843
 20
-133.445
 11
-7.28311
 21
-133.556
  0
LINE
  8
0
 10
-7.28311
 20
-133.556
 11
-6.90367
 21
-133.592
  0
LINE
  8
0
 10
-6.90367
 20
-133.592
 11
-6.49324
 21
-133.557
  0
ENDSEC
  0
SECTION
  2
OBJECTS
  0
DICTIONARY
  0
ENDSEC
  0
EOF
