  0
SECTION
  2
BLOCKS
  0
ENDSEC
  0
SECTION
  2
ENTITIES
  0
LINE
  8
0
 10
-117.61
 20
-66.215
 11
-102.89
 21
-66.215
  0
LINE
  8
0
 10
-102.89
 20
-66.215
 11
-102.89
 21
-68.875
  0
LINE
  8
0
 10
-102.89
 20
-68.875
 11
-87.61
 21
-68.875
  0
LINE
  8
0
 10
-87.61
 20
-68.875
 11
-87.61
 21
-66.215
  0
LINE
  8
0
 10
-87.61
 20
-66.215
 11
-72.89
 21
-66.215
  0
LINE
  8
0
 10
-72.89
 20
-66.215
 11
-72.89
 21
-68.875
  0
LINE
  8
0
 10
-72.89
 20
-68.875
 11
-57.61
 21
-68.875
  0
LINE
  8
0
 10
-57.61
 20
-68.875
 11
-57.61
 21
-66.215
  0
LINE
  8
0
 10
-57.61
 20
-66.215
 11
-42.89
 21
-66.215
  0
LINE
  8
0
 10
-42.89
 20
-66.215
 11
-42.89
 21
-68.875
  0
LINE
  8
0
 10
-42.89
 20
-68.875
 11
-35.285
 21
-68.875
  0
LINE
  8
0
 10
-35.285
 20
-68.875
 11
-35.285
 21
-65.89
  0
LINE
  8
0
 10
-35.285
 20
-65.89
 11
-32.625
 21
-65.89
  0
LINE
  8
0
 10
-32.625
 20
-65.89
 11
-32.625
 21
-62.61
  0
LINE
  8
0
 10
-32.625
 20
-62.61
 11
-35.285
 21
-62.61
  0
LINE
  8
0
 10
-35.285
 20
-62.61
 11
-35.285
 21
-59.89
  0
LINE
  8
0
 10
-35.285
 20
-59.89
 11
-32.625
 21
-59.89
  0
LINE
  8
0
 10
-32.625
 20
-59.89
 11
-32.625
 21
-56.61
  0
LINE
  8
0
 10
-32.625
 20
-56.61
 11
-35.285
 21
-56.61
  0
LINE
  8
0
 10
-35.285
 20
-56.61
 11
-35.285
 21
-53.89
  0
LINE
  8
0
 10
-35.285
 20
-53.89
 11
-32.625
 21
-53.89
  0
LINE
  8
0
 10
-32.625
 20
-53.89
 11
-32.625
 21
-50.61
  0
LINE
  8
0
 10
-32.625
 20
-50.61
 11
-35.285
 21
-50.61
  0
LINE
  8
0
 10
-35.285
 20
-50.61
 11
-35.285
 21
-47.625
  0
LINE
  8
0
 10
-35.285
 20
-47.625
 11
-125.215
 21
-47.625
  0
LINE
  8
0
 10
-125.215
 20
-47.625
 11
-125.215
 21
-50.61
  0
LINE
  8
0
 10
-125.215
 20
-50.61
 11
-127.875
 21
-50.61
  0
LINE
  8
0
 10
-127.875
 20
-50.61
 11
-127.875
 21
-53.89
  0
LINE
  8
0
 10
-127.875
 20
-53.89
 11
-125.215
 21
-53.89
  0
LINE
  8
0
 10
-125.215
 20
-53.89
 11
-125.215
 21
-56.61
  0
LINE
  8
0
 10
-125.215
 20
-56.61
 11
-127.875
 21
-56.61
  0
LINE
  8
0
 10
-127.875
 20
-56.61
 11
-127.875
 21
-59.89
  0
LINE
  8
0
 10
-127.875
 20
-59.89
 11
-125.215
 21
-59.89
  0
LINE
  8
0
 10
-125.215
 20
-59.89
 11
-125.215
 21
-62.61
  0
LINE
  8
0
 10
-125.215
 20
-62.61
 11
-127.875
 21
-62.61
  0
LINE
  8
0
 10
-127.875
 20
-62.61
 11
-127.875
 21
-65.89
  0
LINE
  8
0
 10
-127.875
 20
-65.89
 11
-125.215
 21
-65.89
  0
LINE
  8
0
 10
-125.215
 20
-65.89
 11
-125.215
 21
-68.875
  0
LINE
  8
0
 10
-125.215
 20
-68.875
 11
-117.61
 21
-68.875
  0
LINE
  8
0
 10
-117.61
 20
-68.875
 11
-117.61
 21
-66.215
  0
LINE
  8
0
 10
-24.86
 20
-66.215
 11
-15.14
 21
-66.215
  0
LINE
  8
0
 10
-15.14
 20
-66.215
 11
-15.14
 21
-68.875
  0
LINE
  8
0
 10
-15.14
 20
-68.875
 11
-4.85999
 21
-68.875
  0
LINE
  8
0
 10
-4.85999
 20
-68.875
 11
-4.85999
 21
-66.215
  0
LINE
  8
0
 10
-4.85999
 20
-66.215
 11
4.85999
 21
-66.215
  0
LINE
  8
0
 10
4.85999
 20
-66.215
 11
4.85999
 21
-68.875
  0
LINE
  8
0
 10
4.85999
 20
-68.875
 11
15.14
 21
-68.875
  0
LINE
  8
0
 10
15.14
 20
-68.875
 11
15.14
 21
-66.215
  0
LINE
  8
0
 10
15.14
 20
-66.215
 11
24.86
 21
-66.215
  0
LINE
  8
0
 10
24.86
 20
-66.215
 11
24.86
 21
-68.875
  0
LINE
  8
0
 10
24.86
 20
-68.875
 11
29.465
 21
-68.875
  0
LINE
  8
0
 10
29.465
 20
-68.875
 11
29.465
 21
-66.215
  0
LINE
  8
0
 10
29.465
 20
-66.215
 11
32.125
 21
-66.215
  0
LINE
  8
0
 10
32.125
 20
-66.215
 11
32.125
 21
-65.61
  0
LINE
  8
0
 10
32.125
 20
-65.61
 11
29.465
 21
-65.61
  0
LINE
  8
0
 10
29.465
 20
-65.61
 11
29.465
 21
-62.89
  0
LINE
  8
0
 10
29.465
 20
-62.89
 11
32.125
 21
-62.89
  0
LINE
  8
0
 10
32.125
 20
-62.89
 11
32.125
 21
-59.61
  0
LINE
  8
0
 10
32.125
 20
-59.61
 11
29.465
 21
-59.61
  0
LINE
  8
0
 10
29.465
 20
-59.61
 11
29.465
 21
-56.89
  0
LINE
  8
0
 10
29.465
 20
-56.89
 11
32.125
 21
-56.89
  0
LINE
  8
0
 10
32.125
 20
-56.89
 11
32.125
 21
-53.61
  0
LINE
  8
0
 10
32.125
 20
-53.61
 11
29.465
 21
-53.61
  0
LINE
  8
0
 10
29.465
 20
-53.61
 11
29.465
 21
-50.89
  0
LINE
  8
0
 10
29.465
 20
-50.89
 11
32.125
 21
-50.89
  0
LINE
  8
0
 10
32.125
 20
-50.89
 11
32.125
 21
-50.285
  0
LINE
  8
0
 10
32.125
 20
-50.285
 11
29.465
 21
-50.285
  0
LINE
  8
0
 10
29.465
 20
-50.285
 11
29.465
 21
-47.625
  0
LINE
  8
0
 10
29.465
 20
-47.625
 11
-29.465
 21
-47.625
  0
LINE
  8
0
 10
-29.465
 20
-47.625
 11
-29.465
 21
-50.285
  0
LINE
  8
0
 10
-29.465
 20
-50.285
 11
-32.125
 21
-50.285
  0
LINE
  8
0
 10
-32.125
 20
-50.285
 11
-32.125
 21
-50.89
  0
LINE
  8
0
 10
-32.125
 20
-50.89
 11
-29.465
 21
-50.89
  0
LINE
  8
0
 10
-29.465
 20
-50.89
 11
-29.465
 21
-53.61
  0
LINE
  8
0
 10
-29.465
 20
-53.61
 11
-32.125
 21
-53.61
  0
LINE
  8
0
 10
-32.125
 20
-53.61
 11
-32.125
 21
-56.89
  0
LINE
  8
0
 10
-32.125
 20
-56.89
 11
-29.465
 21
-56.89
  0
LINE
  8
0
 10
-29.465
 20
-56.89
 11
-29.465
 21
-59.61
  0
LINE
  8
0
 10
-29.465
 20
-59.61
 11
-32.125
 21
-59.61
  0
LINE
  8
0
 10
-32.125
 20
-59.61
 11
-32.125
 21
-62.89
  0
LINE
  8
0
 10
-32.125
 20
-62.89
 11
-29.465
 21
-62.89
  0
LINE
  8
0
 10
-29.465
 20
-62.89
 11
-29.465
 21
-65.61
  0
LINE
  8
0
 10
-29.465
 20
-65.61
 11
-32.125
 21
-65.61
  0
LINE
  8
0
 10
-32.125
 20
-65.61
 11
-32.125
 21
-66.215
  0
LINE
  8
0
 10
-32.125
 20
-66.215
 11
-29.465
 21
-66.215
  0
LINE
  8
0
 10
-29.465
 20
-66.215
 11
-29.465
 21
-68.875
  0
LINE
  8
0
 10
-29.465
 20
-68.875
 11
-24.86
 21
-68.875
  0
LINE
  8
0
 10
-24.86
 20
-68.875
 11
-24.86
 21
-66.215
  0
LINE
  8
0
 10
9.12708
 20
-62.6691
 11
8.62895
 21
-62.5112
  0
LINE
  8
0
 10
8.62895
 20
-62.5112
 11
8.21307
 21
-62.2481
  0
LINE
  8
0
 10
8.21307
 20
-62.2481
 11
7.87946
 21
-61.8797
  0
LINE
  8
0
 10
7.87946
 20
-61.8797
 11
7.62352
 21
-61.4042
  0
LINE
  8
0
 10
7.62352
 20
-61.4042
 11
7.4407
 21
-60.8205
  0
LINE
  8
0
 10
7.4407
 20
-60.8205
 11
7.33101
 21
-60.1287
  0
LINE
  8
0
 10
7.33101
 20
-60.1287
 11
7.29445
 21
-59.3287
  0
LINE
  8
0
 10
7.29445
 20
-59.3287
 11
7.44527
 21
-57.8172
  0
LINE
  8
0
 10
7.44527
 20
-57.8172
 11
7.89771
 21
-56.7375
  0
LINE
  8
0
 10
7.89771
 20
-56.7375
 11
8.65176
 21
-56.0897
  0
LINE
  8
0
 10
8.65176
 20
-56.0897
 11
9.70746
 21
-55.8738
  0
LINE
  8
0
 10
9.70746
 20
-55.8738
 11
10.0649
 21
-55.8909
  0
LINE
  8
0
 10
10.0649
 20
-55.8909
 11
10.3912
 21
-55.9425
  0
LINE
  8
0
 10
10.3912
 20
-55.9425
 11
10.6864
 21
-56.0284
  0
LINE
  8
0
 10
10.6864
 20
-56.0284
 11
10.9505
 21
-56.1488
  0
LINE
  8
0
 10
10.9505
 20
-56.1488
 11
11.1868
 21
-56.306
  0
LINE
  8
0
 10
11.1868
 20
-56.306
 11
11.399
 21
-56.5038
  0
LINE
  8
0
 10
11.399
 20
-56.5038
 11
11.5868
 21
-56.742
  0
LINE
  8
0
 10
11.5868
 20
-56.742
 11
11.7505
 21
-57.0208
  0
LINE
  8
0
 10
11.7505
 20
-57.0208
 11
11.7625
 21
-57.0208
  0
LINE
  8
0
 10
11.7625
 20
-57.0208
 11
11.7505
 21
-56.2878
  0
LINE
  8
0
 10
11.7505
 20
-56.2878
 11
11.7505
 21
-53.5698
  0
LINE
  8
0
 10
11.7505
 20
-53.5698
 11
12.8475
 21
-53.5698
  0
LINE
  8
0
 10
12.8475
 20
-53.5698
 11
12.8475
 21
-61.2377
  0
LINE
  8
0
 10
12.8475
 20
-61.2377
 11
12.8497
 21
-61.708
  0
LINE
  8
0
 10
12.8497
 20
-61.708
 11
12.8565
 21
-62.0907
  0
LINE
  8
0
 10
12.8565
 20
-62.0907
 11
12.8677
 21
-62.386
  0
LINE
  8
0
 10
12.8677
 20
-62.386
 11
12.8835
 21
-62.5938
  0
LINE
  8
0
 10
12.8835
 20
-62.5938
 11
11.8354
 21
-62.5938
  0
LINE
  8
0
 10
11.8354
 20
-62.5938
 11
11.8262
 21
-62.5293
  0
LINE
  8
0
 10
11.8262
 20
-62.5293
 11
11.8165
 21
-62.433
  0
LINE
  8
0
 10
11.8165
 20
-62.433
 11
11.7955
 21
-62.1447
  0
LINE
  8
0
 10
11.7955
 20
-62.1447
 11
11.7863
 21
-61.9748
  0
LINE
  8
0
 10
11.7863
 20
-61.9748
 11
11.7797
 21
-61.817
  0
LINE
  8
0
 10
11.7797
 20
-61.817
 11
11.7758
 21
-61.6713
  0
LINE
  8
0
 10
11.7758
 20
-61.6713
 11
11.7745
 21
-61.5377
  0
LINE
  8
0
 10
11.7745
 20
-61.5377
 11
11.7505
 21
-61.5377
  0
LINE
  8
0
 10
11.7505
 20
-61.5377
 11
11.5866
 21
-61.8327
  0
LINE
  8
0
 10
11.5866
 20
-61.8327
 11
11.3982
 21
-62.0827
  0
LINE
  8
0
 10
11.3982
 20
-62.0827
 11
11.1851
 21
-62.2877
  0
LINE
  8
0
 10
11.1851
 20
-62.2877
 11
10.9474
 21
-62.4477
  0
LINE
  8
0
 10
10.9474
 20
-62.4477
 11
10.6824
 21
-62.5676
  0
LINE
  8
0
 10
10.6824
 20
-62.5676
 11
10.3875
 21
-62.6532
  0
LINE
  8
0
 10
10.3875
 20
-62.6532
 11
10.0625
 21
-62.7046
  0
LINE
  8
0
 10
10.0625
 20
-62.7046
 11
9.70746
 21
-62.7217
  0
LINE
  8
0
 10
9.70746
 20
-62.7217
 11
9.12708
 21
-62.6691
  0
LINE
  8
0
 10
10.4206
 20
-61.8343
 11
10.7882
 21
-61.713
  0
LINE
  8
0
 10
10.7882
 20
-61.713
 11
11.0921
 21
-61.5108
  0
LINE
  8
0
 10
11.0921
 20
-61.5108
 11
11.3325
 21
-61.2277
  0
LINE
  8
0
 10
11.3325
 20
-61.2277
 11
11.5153
 21
-60.8591
  0
LINE
  8
0
 10
11.5153
 20
-60.8591
 11
11.646
 21
-60.4012
  0
LINE
  8
0
 10
11.646
 20
-60.4012
 11
11.7243
 21
-59.8541
  0
LINE
  8
0
 10
11.7243
 20
-59.8541
 11
11.7505
 21
-59.2177
  0
LINE
  8
0
 10
11.7505
 20
-59.2177
 11
11.7243
 21
-58.6052
  0
LINE
  8
0
 10
11.7243
 20
-58.6052
 11
11.646
 21
-58.0805
  0
LINE
  8
0
 10
11.646
 20
-58.0805
 11
11.5153
 21
-57.6437
  0
LINE
  8
0
 10
11.5153
 20
-57.6437
 11
11.3325
 21
-57.2948
  0
LINE
  8
0
 10
11.3325
 20
-57.2948
 11
11.0929
 21
-57.0275
  0
LINE
  8
0
 10
11.0929
 20
-57.0275
 11
10.7912
 21
-56.8365
  0
LINE
  8
0
 10
10.7912
 20
-56.8365
 11
10.4274
 21
-56.7219
  0
LINE
  8
0
 10
10.4274
 20
-56.7219
 11
10.0014
 21
-56.6838
  0
LINE
  8
0
 10
10.0014
 20
-56.6838
 11
9.61852
 21
-56.7221
  0
LINE
  8
0
 10
9.61852
 20
-56.7221
 11
9.29271
 21
-56.8373
  0
LINE
  8
0
 10
9.29271
 20
-56.8373
 11
9.02402
 21
-57.0291
  0
LINE
  8
0
 10
9.02402
 20
-57.0291
 11
8.81245
 21
-57.2978
  0
LINE
  8
0
 10
8.81245
 20
-57.2978
 11
8.65233
 21
-57.6526
  0
LINE
  8
0
 10
8.65233
 20
-57.6526
 11
8.53795
 21
-58.1033
  0
LINE
  8
0
 10
8.53795
 20
-58.1033
 11
8.46933
 21
-58.6496
  0
LINE
  8
0
 10
8.46933
 20
-58.6496
 11
8.44646
 21
-59.2917
  0
LINE
  8
0
 10
8.44646
 20
-59.2917
 11
8.46915
 21
-59.9356
  0
LINE
  8
0
 10
8.46915
 20
-59.9356
 11
8.5372
 21
-60.481
  0
LINE
  8
0
 10
8.5372
 20
-60.481
 11
8.65063
 21
-60.9281
  0
LINE
  8
0
 10
8.65063
 20
-60.9281
 11
8.80945
 21
-61.2767
  0
LINE
  8
0
 10
8.80945
 20
-61.2767
 11
9.01933
 21
-61.5384
  0
LINE
  8
0
 10
9.01933
 20
-61.5384
 11
9.28595
 21
-61.7252
  0
LINE
  8
0
 10
9.28595
 20
-61.7252
 11
9.60933
 21
-61.8374
  0
LINE
  8
0
 10
9.60933
 20
-61.8374
 11
9.98946
 21
-61.8747
  0
LINE
  8
0
 10
9.98946
 20
-61.8747
 11
10.4206
 21
-61.8343
  0
LINE
  8
0
 10
4.89944
 20
-62.5938
 11
4.89944
 21
-53.5698
  0
LINE
  8
0
 10
4.89944
 20
-53.5698
 11
5.99644
 21
-53.5698
  0
LINE
  8
0
 10
5.99644
 20
-53.5698
 11
5.99644
 21
-62.5938
  0
LINE
  8
0
 10
5.99644
 20
-62.5938
 11
4.89944
 21
-62.5938
  0
LINE
  8
0
 10
2.18544
 20
-54.6178
 11
2.18544
 21
-53.5698
  0
LINE
  8
0
 10
2.18544
 20
-53.5698
 11
3.28244
 21
-53.5698
  0
LINE
  8
0
 10
3.28244
 20
-53.5698
 11
3.28244
 21
-54.6178
  0
LINE
  8
0
 10
3.28244
 20
-54.6178
 11
2.18544
 21
-54.6178
  0
LINE
  8
0
 10
-12.5278
 20
-62.5938
 11
-12.5278
 21
-54.0178
  0
LINE
  8
0
 10
-12.5278
 20
-54.0178
 11
-9.40877
 21
-54.0178
  0
LINE
  8
0
 10
-9.40877
 20
-54.0178
 11
-8.08708
 21
-54.1479
  0
LINE
  8
0
 10
-8.08708
 20
-54.1479
 11
-7.14302
 21
-54.5385
  0
LINE
  8
0
 10
-7.14302
 20
-54.5385
 11
-6.57658
 21
-55.1894
  0
LINE
  8
0
 10
-6.57658
 20
-55.1894
 11
-6.38777
 21
-56.1008
  0
LINE
  8
0
 10
-6.38777
 20
-56.1008
 11
-6.41446
 21
-56.4661
  0
LINE
  8
0
 10
-6.41446
 20
-56.4661
 11
-6.49452
 21
-56.801
  0
LINE
  8
0
 10
-6.49452
 20
-56.801
 11
-6.62796
 21
-57.1056
  0
LINE
  8
0
 10
-6.62796
 20
-57.1056
 11
-6.81477
 21
-57.3798
  0
LINE
  8
0
 10
-6.81477
 20
-57.3798
 11
-7.04984
 21
-57.617
  0
LINE
  8
0
 10
-7.04984
 20
-57.617
 11
-7.32903
 21
-57.8118
  0
LINE
  8
0
 10
-7.32903
 20
-57.8118
 11
-7.65234
 21
-57.964
  0
LINE
  8
0
 10
-7.65234
 20
-57.964
 11
-8.01978
 21
-58.0738
  0
LINE
  8
0
 10
-8.01978
 20
-58.0738
 11
-7.53758
 21
-58.1623
  0
LINE
  8
0
 10
-7.53758
 20
-58.1623
 11
-7.11403
 21
-58.306
  0
LINE
  8
0
 10
-7.11403
 20
-58.306
 11
-6.74908
 21
-58.5048
  0
LINE
  8
0
 10
-6.74908
 20
-58.5048
 11
-6.44278
 21
-58.7587
  0
LINE
  8
0
 10
-6.44278
 20
-58.7587
 11
-6.20039
 21
-59.0582
  0
LINE
  8
0
 10
-6.20039
 20
-59.0582
 11
-6.02727
 21
-59.3947
  0
LINE
  8
0
 10
-6.02727
 20
-59.3947
 11
-5.9234
 21
-59.7682
  0
LINE
  8
0
 10
-5.9234
 20
-59.7682
 11
-5.88878
 21
-60.1787
  0
LINE
  8
0
 10
-5.88878
 20
-60.1787
 11
-5.94096
 21
-60.719
  0
LINE
  8
0
 10
-5.94096
 20
-60.719
 11
-6.09752
 21
-61.1957
  0
LINE
  8
0
 10
-6.09752
 20
-61.1957
 11
-6.35846
 21
-61.609
  0
LINE
  8
0
 10
-6.35846
 20
-61.609
 11
-6.72377
 21
-61.9587
  0
LINE
  8
0
 10
-6.72377
 20
-61.9587
 11
-7.18152
 21
-62.2366
  0
LINE
  8
0
 10
-7.18152
 20
-62.2366
 11
-7.72078
 21
-62.435
  0
LINE
  8
0
 10
-7.72078
 20
-62.435
 11
-8.34152
 21
-62.5541
  0
LINE
  8
0
 10
-8.34152
 20
-62.5541
 11
-9.04378
 21
-62.5938
  0
LINE
  8
0
 10
-9.04378
 20
-62.5938
 11
-12.5278
 21
-62.5938
  0
LINE
  8
0
 10
-8.97272
 20
-57.6439
 11
-8.59552
 21
-57.5783
  0
LINE
  8
0
 10
-8.59552
 20
-57.5783
 11
-8.27721
 21
-57.4689
  0
LINE
  8
0
 10
-8.27721
 20
-57.4689
 11
-8.01778
 21
-57.3158
  0
LINE
  8
0
 10
-8.01778
 20
-57.3158
 11
-7.81653
 21
-57.1173
  0
LINE
  8
0
 10
-7.81653
 20
-57.1173
 11
-7.67278
 21
-56.872
  0
LINE
  8
0
 10
-7.67278
 20
-56.872
 11
-7.58652
 21
-56.5798
  0
LINE
  8
0
 10
-7.58652
 20
-56.5798
 11
-7.55777
 21
-56.2408
  0
LINE
  8
0
 10
-7.55777
 20
-56.2408
 11
-7.58746
 21
-55.9185
  0
LINE
  8
0
 10
-7.58746
 20
-55.9185
 11
-7.67653
 21
-55.6458
  0
LINE
  8
0
 10
-7.67653
 20
-55.6458
 11
-7.82497
 21
-55.4225
  0
LINE
  8
0
 10
-7.82497
 20
-55.4225
 11
-8.03278
 21
-55.2488
  0
LINE
  8
0
 10
-8.03278
 20
-55.2488
 11
-8.29691
 21
-55.118
  0
LINE
  8
0
 10
-8.29691
 20
-55.118
 11
-8.61427
 21
-55.0245
  0
LINE
  8
0
 10
-8.61427
 20
-55.0245
 11
-8.98489
 21
-54.9684
  0
LINE
  8
0
 10
-8.98489
 20
-54.9684
 11
-9.40877
 21
-54.9498
  0
LINE
  8
0
 10
-9.40877
 20
-54.9498
 11
-11.3638
 21
-54.9498
  0
LINE
  8
0
 10
-11.3638
 20
-54.9498
 11
-11.3638
 21
-57.6658
  0
LINE
  8
0
 10
-11.3638
 20
-57.6658
 11
-9.40877
 21
-57.6658
  0
LINE
  8
0
 10
-9.40877
 20
-57.6658
 11
-8.97272
 21
-57.6439
  0
LINE
  8
0
 10
-8.60796
 20
-61.6371
 11
-8.18352
 21
-61.563
  0
LINE
  8
0
 10
-8.18352
 20
-61.563
 11
-7.83147
 21
-61.4396
  0
LINE
  8
0
 10
-7.83147
 20
-61.4396
 11
-7.55177
 21
-61.2667
  0
LINE
  8
0
 10
-7.55177
 20
-61.2667
 11
-7.33871
 21
-61.0449
  0
LINE
  8
0
 10
-7.33871
 20
-61.0449
 11
-7.18652
 21
-60.7745
  0
LINE
  8
0
 10
-7.18652
 20
-60.7745
 11
-7.09521
 21
-60.4554
  0
LINE
  8
0
 10
-7.09521
 20
-60.4554
 11
-7.06477
 21
-60.0877
  0
LINE
  8
0
 10
-7.06477
 20
-60.0877
 11
-7.19797
 21
-59.4254
  0
LINE
  8
0
 10
-7.19797
 20
-59.4254
 11
-7.59752
 21
-58.9522
  0
LINE
  8
0
 10
-7.59752
 20
-58.9522
 11
-8.26346
 21
-58.6684
  0
LINE
  8
0
 10
-8.26346
 20
-58.6684
 11
-9.19577
 21
-58.5737
  0
LINE
  8
0
 10
-9.19577
 20
-58.5737
 11
-11.3638
 21
-58.5737
  0
LINE
  8
0
 10
-11.3638
 20
-58.5737
 11
-11.3638
 21
-61.6617
  0
LINE
  8
0
 10
-11.3638
 20
-61.6617
 11
-9.10477
 21
-61.6617
  0
LINE
  8
0
 10
-9.10477
 20
-61.6617
 11
-8.60796
 21
-61.6371
  0
LINE
  8
0
 10
-3.03918
 20
-62.688
 11
-3.47012
 21
-62.587
  0
LINE
  8
0
 10
-3.47012
 20
-62.587
 11
-3.82867
 21
-62.4185
  0
LINE
  8
0
 10
-3.82867
 20
-62.4185
 11
-4.11487
 21
-62.1827
  0
LINE
  8
0
 10
-4.11487
 20
-62.1827
 11
-4.33362
 21
-61.8687
  0
LINE
  8
0
 10
-4.33362
 20
-61.8687
 11
-4.48987
 21
-61.4667
  0
LINE
  8
0
 10
-4.48987
 20
-61.4667
 11
-4.58362
 21
-60.9767
  0
LINE
  8
0
 10
-4.58362
 20
-60.9767
 11
-4.61487
 21
-60.3987
  0
LINE
  8
0
 10
-4.61487
 20
-60.3987
 11
-4.61487
 21
-56.0018
  0
LINE
  8
0
 10
-4.61487
 20
-56.0018
 11
-3.51187
 21
-56.0018
  0
LINE
  8
0
 10
-3.51187
 20
-56.0018
 11
-3.51187
 21
-60.1857
  0
LINE
  8
0
 10
-3.51187
 20
-60.1857
 11
-3.50394
 21
-60.4935
  0
LINE
  8
0
 10
-3.50394
 20
-60.4935
 11
-3.48012
 21
-60.7647
  0
LINE
  8
0
 10
-3.48012
 20
-60.7647
 11
-3.44043
 21
-60.9995
  0
LINE
  8
0
 10
-3.44043
 20
-60.9995
 11
-3.38487
 21
-61.1977
  0
LINE
  8
0
 10
-3.38487
 20
-61.1977
 11
-3.31194
 21
-61.3652
  0
LINE
  8
0
 10
-3.31194
 20
-61.3652
 11
-3.22012
 21
-61.5075
  0
LINE
  8
0
 10
-3.22012
 20
-61.5075
 11
-3.10944
 21
-61.6247
  0
LINE
  8
0
 10
-3.10944
 20
-61.6247
 11
-2.97987
 21
-61.7167
  0
LINE
  8
0
 10
-2.97987
 20
-61.7167
 11
-2.82411
 21
-61.7859
  0
LINE
  8
0
 10
-2.82411
 20
-61.7859
 11
-2.63586
 21
-61.8352
  0
LINE
  8
0
 10
-2.63586
 20
-61.8352
 11
-2.41512
 21
-61.8649
  0
LINE
  8
0
 10
-2.41512
 20
-61.8649
 11
-2.16187
 21
-61.8747
  0
LINE
  8
0
 10
-2.16187
 20
-61.8747
 11
-1.78961
 21
-61.8408
  0
LINE
  8
0
 10
-1.78961
 20
-61.8408
 11
-1.45886
 21
-61.739
  0
LINE
  8
0
 10
-1.45886
 20
-61.739
 11
-1.16962
 21
-61.5693
  0
LINE
  8
0
 10
-1.16962
 20
-61.5693
 11
-0.921875
 21
-61.3317
  0
LINE
  8
0
 10
-0.921875
 20
-61.3317
 11
-0.723236
 21
-61.034
  0
LINE
  8
0
 10
-0.723236
 20
-61.034
 11
-0.58136
 21
-60.6837
  0
LINE
  8
0
 10
-0.58136
 20
-60.6837
 11
-0.496246
 21
-60.281
  0
LINE
  8
0
 10
-0.496246
 20
-60.281
 11
-0.467865
 21
-59.8257
  0
LINE
  8
0
 10
-0.467865
 20
-59.8257
 11
-0.467865
 21
-56.0018
  0
LINE
  8
0
 10
-0.467865
 20
-56.0018
 11
0.628113
 21
-56.0018
  0
LINE
  8
0
 10
0.628113
 20
-56.0018
 11
0.628113
 21
-61.1867
  0
LINE
  8
0
 10
0.628113
 20
-61.1867
 11
0.630432
 21
-61.7063
  0
LINE
  8
0
 10
0.630432
 20
-61.7063
 11
0.637375
 21
-62.114
  0
LINE
  8
0
 10
0.637375
 20
-62.114
 11
0.648926
 21
-62.4098
  0
LINE
  8
0
 10
0.648926
 20
-62.4098
 11
0.665115
 21
-62.5938
  0
LINE
  8
0
 10
0.665115
 20
-62.5938
 11
-0.370865
 21
-62.5938
  0
LINE
  8
0
 10
-0.370865
 20
-62.5938
 11
-0.377121
 21
-62.538
  0
LINE
  8
0
 10
-0.377121
 20
-62.538
 11
-0.403549
 21
-62.0191
  0
LINE
  8
0
 10
-0.403549
 20
-62.0191
 11
-0.419861
 21
-61.4727
  0
LINE
  8
0
 10
-0.419861
 20
-61.4727
 11
-0.437866
 21
-61.4727
  0
LINE
  8
0
 10
-0.437866
 20
-61.4727
 11
-0.63324
 21
-61.7889
  0
LINE
  8
0
 10
-0.63324
 20
-61.7889
 11
-0.843369
 21
-62.0552
  0
LINE
  8
0
 10
-0.843369
 20
-62.0552
 11
-1.06824
 21
-62.2719
  0
LINE
  8
0
 10
-1.06824
 20
-62.2719
 11
-1.30786
 21
-62.4387
  0
LINE
  8
0
 10
-1.30786
 20
-62.4387
 11
-1.56987
 21
-62.5626
  0
LINE
  8
0
 10
-1.56987
 20
-62.5626
 11
-1.86186
 21
-62.651
  0
LINE
  8
0
 10
-1.86186
 20
-62.651
 11
-2.18387
 21
-62.7041
  0
LINE
  8
0
 10
-2.18387
 20
-62.7041
 11
-2.53587
 21
-62.7217
  0
LINE
  8
0
 10
-2.53587
 20
-62.7217
 11
-3.03918
 21
-62.688
  0
LINE
  8
0
 10
2.18544
 20
-62.5938
 11
2.18544
 21
-56.0018
  0
LINE
  8
0
 10
2.18544
 20
-56.0018
 11
3.28244
 21
-56.0018
  0
LINE
  8
0
 10
3.28244
 20
-56.0018
 11
3.28244
 21
-62.5938
  0
LINE
  8
0
 10
3.28244
 20
-62.5938
 11
2.18544
 21
-62.5938
  0
LINE
  8
0
 10
135.64
 20
-66.215
 11
145.36
 21
-66.215
  0
LINE
  8
0
 10
145.36
 20
-66.215
 11
145.36
 21
-68.875
  0
LINE
  8
0
 10
145.36
 20
-68.875
 11
155.64
 21
-68.875
  0
LINE
  8
0
 10
155.64
 20
-68.875
 11
155.64
 21
-66.215
  0
LINE
  8
0
 10
155.64
 20
-66.215
 11
165.36
 21
-66.215
  0
LINE
  8
0
 10
165.36
 20
-66.215
 11
165.36
 21
-68.875
  0
LINE
  8
0
 10
165.36
 20
-68.875
 11
175.64
 21
-68.875
  0
LINE
  8
0
 10
175.64
 20
-68.875
 11
175.64
 21
-66.215
  0
LINE
  8
0
 10
175.64
 20
-66.215
 11
185.36
 21
-66.215
  0
LINE
  8
0
 10
185.36
 20
-66.215
 11
185.36
 21
-68.875
  0
LINE
  8
0
 10
185.36
 20
-68.875
 11
189.965
 21
-68.875
  0
LINE
  8
0
 10
189.965
 20
-68.875
 11
189.965
 21
-66.215
  0
LINE
  8
0
 10
189.965
 20
-66.215
 11
192.625
 21
-66.215
  0
LINE
  8
0
 10
192.625
 20
-66.215
 11
192.625
 21
-65.61
  0
LINE
  8
0
 10
192.625
 20
-65.61
 11
189.965
 21
-65.61
  0
LINE
  8
0
 10
189.965
 20
-65.61
 11
189.965
 21
-62.89
  0
LINE
  8
0
 10
189.965
 20
-62.89
 11
192.625
 21
-62.89
  0
LINE
  8
0
 10
192.625
 20
-62.89
 11
192.625
 21
-59.61
  0
LINE
  8
0
 10
192.625
 20
-59.61
 11
189.965
 21
-59.61
  0
LINE
  8
0
 10
189.965
 20
-59.61
 11
189.965
 21
-56.89
  0
LINE
  8
0
 10
189.965
 20
-56.89
 11
192.625
 21
-56.89
  0
LINE
  8
0
 10
192.625
 20
-56.89
 11
192.625
 21
-53.61
  0
LINE
  8
0
 10
192.625
 20
-53.61
 11
189.965
 21
-53.61
  0
LINE
  8
0
 10
189.965
 20
-53.61
 11
189.965
 21
-50.89
  0
LINE
  8
0
 10
189.965
 20
-50.89
 11
192.625
 21
-50.89
  0
LINE
  8
0
 10
192.625
 20
-50.89
 11
192.625
 21
-50.285
  0
LINE
  8
0
 10
192.625
 20
-50.285
 11
189.965
 21
-50.285
  0
LINE
  8
0
 10
189.965
 20
-50.285
 11
189.965
 21
-47.625
  0
LINE
  8
0
 10
189.965
 20
-47.625
 11
131.035
 21
-47.625
  0
LINE
  8
0
 10
131.035
 20
-47.625
 11
131.035
 21
-50.285
  0
LINE
  8
0
 10
131.035
 20
-50.285
 11
128.375
 21
-50.285
  0
LINE
  8
0
 10
128.375
 20
-50.285
 11
128.375
 21
-50.89
  0
LINE
  8
0
 10
128.375
 20
-50.89
 11
131.035
 21
-50.89
  0
LINE
  8
0
 10
131.035
 20
-50.89
 11
131.035
 21
-53.61
  0
LINE
  8
0
 10
131.035
 20
-53.61
 11
128.375
 21
-53.61
  0
LINE
  8
0
 10
128.375
 20
-53.61
 11
128.375
 21
-56.89
  0
LINE
  8
0
 10
128.375
 20
-56.89
 11
131.035
 21
-56.89
  0
LINE
  8
0
 10
131.035
 20
-56.89
 11
131.035
 21
-59.61
  0
LINE
  8
0
 10
131.035
 20
-59.61
 11
128.375
 21
-59.61
  0
LINE
  8
0
 10
128.375
 20
-59.61
 11
128.375
 21
-62.89
  0
LINE
  8
0
 10
128.375
 20
-62.89
 11
131.035
 21
-62.89
  0
LINE
  8
0
 10
131.035
 20
-62.89
 11
131.035
 21
-65.61
  0
LINE
  8
0
 10
131.035
 20
-65.61
 11
128.375
 21
-65.61
  0
LINE
  8
0
 10
128.375
 20
-65.61
 11
128.375
 21
-66.215
  0
LINE
  8
0
 10
128.375
 20
-66.215
 11
131.035
 21
-66.215
  0
LINE
  8
0
 10
131.035
 20
-66.215
 11
131.035
 21
-68.875
  0
LINE
  8
0
 10
131.035
 20
-68.875
 11
135.64
 21
-68.875
  0
LINE
  8
0
 10
135.64
 20
-68.875
 11
135.64
 21
-66.215
  0
LINE
  8
0
 10
42.89
 20
-66.215
 11
57.61
 21
-66.215
  0
LINE
  8
0
 10
57.61
 20
-66.215
 11
57.61
 21
-68.875
  0
LINE
  8
0
 10
57.61
 20
-68.875
 11
72.89
 21
-68.875
  0
LINE
  8
0
 10
72.89
 20
-68.875
 11
72.89
 21
-66.215
  0
LINE
  8
0
 10
72.89
 20
-66.215
 11
87.61
 21
-66.215
  0
LINE
  8
0
 10
87.61
 20
-66.215
 11
87.61
 21
-68.875
  0
LINE
  8
0
 10
87.61
 20
-68.875
 11
102.89
 21
-68.875
  0
LINE
  8
0
 10
102.89
 20
-68.875
 11
102.89
 21
-66.215
  0
LINE
  8
0
 10
102.89
 20
-66.215
 11
117.61
 21
-66.215
  0
LINE
  8
0
 10
117.61
 20
-66.215
 11
117.61
 21
-68.875
  0
LINE
  8
0
 10
117.61
 20
-68.875
 11
125.215
 21
-68.875
  0
LINE
  8
0
 10
125.215
 20
-68.875
 11
125.215
 21
-65.89
  0
LINE
  8
0
 10
125.215
 20
-65.89
 11
127.875
 21
-65.89
  0
LINE
  8
0
 10
127.875
 20
-65.89
 11
127.875
 21
-62.61
  0
LINE
  8
0
 10
127.875
 20
-62.61
 11
125.215
 21
-62.61
  0
LINE
  8
0
 10
125.215
 20
-62.61
 11
125.215
 21
-59.89
  0
LINE
  8
0
 10
125.215
 20
-59.89
 11
127.875
 21
-59.89
  0
LINE
  8
0
 10
127.875
 20
-59.89
 11
127.875
 21
-56.61
  0
LINE
  8
0
 10
127.875
 20
-56.61
 11
125.215
 21
-56.61
  0
LINE
  8
0
 10
125.215
 20
-56.61
 11
125.215
 21
-53.89
  0
LINE
  8
0
 10
125.215
 20
-53.89
 11
127.875
 21
-53.89
  0
LINE
  8
0
 10
127.875
 20
-53.89
 11
127.875
 21
-50.61
  0
LINE
  8
0
 10
127.875
 20
-50.61
 11
125.215
 21
-50.61
  0
LINE
  8
0
 10
125.215
 20
-50.61
 11
125.215
 21
-47.625
  0
LINE
  8
0
 10
125.215
 20
-47.625
 11
35.285
 21
-47.625
  0
LINE
  8
0
 10
35.285
 20
-47.625
 11
35.285
 21
-50.61
  0
LINE
  8
0
 10
35.285
 20
-50.61
 11
32.625
 21
-50.61
  0
LINE
  8
0
 10
32.625
 20
-50.61
 11
32.625
 21
-53.89
  0
LINE
  8
0
 10
32.625
 20
-53.89
 11
35.285
 21
-53.89
  0
LINE
  8
0
 10
35.285
 20
-53.89
 11
35.285
 21
-56.61
  0
LINE
  8
0
 10
35.285
 20
-56.61
 11
32.625
 21
-56.61
  0
LINE
  8
0
 10
32.625
 20
-56.61
 11
32.625
 21
-59.89
  0
LINE
  8
0
 10
32.625
 20
-59.89
 11
35.285
 21
-59.89
  0
LINE
  8
0
 10
35.285
 20
-59.89
 11
35.285
 21
-62.61
  0
LINE
  8
0
 10
35.285
 20
-62.61
 11
32.625
 21
-62.61
  0
LINE
  8
0
 10
32.625
 20
-62.61
 11
32.625
 21
-65.89
  0
LINE
  8
0
 10
32.625
 20
-65.89
 11
35.285
 21
-65.89
  0
LINE
  8
0
 10
35.285
 20
-65.89
 11
35.285
 21
-68.875
  0
LINE
  8
0
 10
35.285
 20
-68.875
 11
42.89
 21
-68.875
  0
LINE
  8
0
 10
42.89
 20
-68.875
 11
42.89
 21
-66.215
  0
LINE
  8
0
 10
-14.86
 20
-161.965
 11
-5.14
 21
-161.965
  0
LINE
  8
0
 10
-5.14
 20
-161.965
 11
-5.14
 21
-164.625
  0
LINE
  8
0
 10
-5.14
 20
-164.625
 11
5.13998
 21
-164.625
  0
LINE
  8
0
 10
5.13998
 20
-164.625
 11
5.13998
 21
-161.965
  0
LINE
  8
0
 10
5.13998
 20
-161.965
 11
14.86
 21
-161.965
  0
LINE
  8
0
 10
14.86
 20
-161.965
 11
14.86
 21
-164.625
  0
LINE
  8
0
 10
14.86
 20
-164.625
 11
25.14
 21
-164.625
  0
LINE
  8
0
 10
25.14
 20
-164.625
 11
25.14
 21
-161.965
  0
LINE
  8
0
 10
25.14
 20
-161.965
 11
29.465
 21
-161.965
  0
LINE
  8
0
 10
29.465
 20
-161.965
 11
29.465
 21
-154.64
  0
LINE
  8
0
 10
29.465
 20
-154.64
 11
32.125
 21
-154.64
  0
LINE
  8
0
 10
32.125
 20
-154.64
 11
32.125
 21
-139.36
  0
LINE
  8
0
 10
32.125
 20
-139.36
 11
29.465
 21
-139.36
  0
LINE
  8
0
 10
29.465
 20
-139.36
 11
29.465
 21
-124.64
  0
LINE
  8
0
 10
29.465
 20
-124.64
 11
32.125
 21
-124.64
  0
LINE
  8
0
 10
32.125
 20
-124.64
 11
32.125
 21
-109.36
  0
LINE
  8
0
 10
32.125
 20
-109.36
 11
29.465
 21
-109.36
  0
LINE
  8
0
 10
29.465
 20
-109.36
 11
29.465
 21
-94.64
  0
LINE
  8
0
 10
29.465
 20
-94.64
 11
32.125
 21
-94.64
  0
LINE
  8
0
 10
32.125
 20
-94.64
 11
32.125
 21
-79.36
  0
LINE
  8
0
 10
32.125
 20
-79.36
 11
29.465
 21
-79.36
  0
LINE
  8
0
 10
29.465
 20
-79.36
 11
29.465
 21
-72.035
  0
LINE
  8
0
 10
29.465
 20
-72.035
 11
25.14
 21
-72.035
  0
LINE
  8
0
 10
25.14
 20
-72.035
 11
25.14
 21
-69.375
  0
LINE
  8
0
 10
25.14
 20
-69.375
 11
14.86
 21
-69.375
  0
LINE
  8
0
 10
14.86
 20
-69.375
 11
14.86
 21
-72.035
  0
LINE
  8
0
 10
14.86
 20
-72.035
 11
5.14
 21
-72.035
  0
LINE
  8
0
 10
5.14
 20
-72.035
 11
5.14
 21
-69.375
  0
LINE
  8
0
 10
5.14
 20
-69.375
 11
-5.14
 21
-69.375
  0
LINE
  8
0
 10
-5.14
 20
-69.375
 11
-5.14
 21
-72.035
  0
LINE
  8
0
 10
-5.14
 20
-72.035
 11
-14.86
 21
-72.035
  0
LINE
  8
0
 10
-14.86
 20
-72.035
 11
-14.86
 21
-69.375
  0
LINE
  8
0
 10
-14.86
 20
-69.375
 11
-25.14
 21
-69.375
  0
LINE
  8
0
 10
-25.14
 20
-69.375
 11
-25.14
 21
-72.035
  0
LINE
  8
0
 10
-25.14
 20
-72.035
 11
-29.465
 21
-72.035
  0
LINE
  8
0
 10
-29.465
 20
-72.035
 11
-29.465
 21
-79.36
  0
LINE
  8
0
 10
-29.465
 20
-79.36
 11
-32.125
 21
-79.36
  0
LINE
  8
0
 10
-32.125
 20
-79.36
 11
-32.125
 21
-94.64
  0
LINE
  8
0
 10
-32.125
 20
-94.64
 11
-29.465
 21
-94.64
  0
LINE
  8
0
 10
-29.465
 20
-94.64
 11
-29.465
 21
-109.36
  0
LINE
  8
0
 10
-29.465
 20
-109.36
 11
-32.125
 21
-109.36
  0
LINE
  8
0
 10
-32.125
 20
-109.36
 11
-32.125
 21
-124.64
  0
LINE
  8
0
 10
-32.125
 20
-124.64
 11
-29.465
 21
-124.64
  0
LINE
  8
0
 10
-29.465
 20
-124.64
 11
-29.465
 21
-139.36
  0
LINE
  8
0
 10
-29.465
 20
-139.36
 11
-32.125
 21
-139.36
  0
LINE
  8
0
 10
-32.125
 20
-139.36
 11
-32.125
 21
-154.64
  0
LINE
  8
0
 10
-32.125
 20
-154.64
 11
-29.465
 21
-154.64
  0
LINE
  8
0
 10
-29.465
 20
-154.64
 11
-29.465
 21
-161.965
  0
LINE
  8
0
 10
-29.465
 20
-161.965
 11
-25.14
 21
-161.965
  0
LINE
  8
0
 10
-25.14
 20
-161.965
 11
-25.14
 21
-164.625
  0
LINE
  8
0
 10
-25.14
 20
-164.625
 11
-14.86
 21
-164.625
  0
LINE
  8
0
 10
-14.86
 20
-164.625
 11
-14.86
 21
-161.965
  0
ENDSEC
  0
SECTION
  2
OBJECTS
  0
DICTIONARY
  0
ENDSEC
  0
EOF
