  0
SECTION
  2
BLOCKS
  0
ENDSEC
  0
SECTION
  2
ENTITIES
  0
LINE
  8
0
 10
-113.11
 20
-61.715
 11
-100.39
 21
-61.715
  0
LINE
  8
0
 10
-100.39
 20
-61.715
 11
-100.39
 21
-64.375
  0
LINE
  8
0
 10
-100.39
 20
-64.375
 11
-87.11
 21
-64.375
  0
LINE
  8
0
 10
-87.11
 20
-64.375
 11
-87.11
 21
-61.715
  0
LINE
  8
0
 10
-87.11
 20
-61.715
 11
-74.39
 21
-61.715
  0
LINE
  8
0
 10
-74.39
 20
-61.715
 11
-74.39
 21
-64.375
  0
LINE
  8
0
 10
-74.39
 20
-64.375
 11
-61.11
 21
-64.375
  0
LINE
  8
0
 10
-61.11
 20
-64.375
 11
-61.11
 21
-61.715
  0
LINE
  8
0
 10
-61.11
 20
-61.715
 11
-48.39
 21
-61.715
  0
LINE
  8
0
 10
-48.39
 20
-61.715
 11
-48.39
 21
-64.375
  0
LINE
  8
0
 10
-48.39
 20
-64.375
 11
-43.285
 21
-64.375
  0
LINE
  8
0
 10
-43.285
 20
-64.375
 11
-43.285
 21
-61.715
  0
LINE
  8
0
 10
-43.285
 20
-61.715
 11
-40.625
 21
-61.715
  0
LINE
  8
0
 10
-40.625
 20
-61.715
 11
-40.625
 21
-58.11
  0
LINE
  8
0
 10
-40.625
 20
-58.11
 11
-43.285
 21
-58.11
  0
LINE
  8
0
 10
-43.285
 20
-58.11
 11
-43.285
 21
-54.39
  0
LINE
  8
0
 10
-43.285
 20
-54.39
 11
-40.625
 21
-54.39
  0
LINE
  8
0
 10
-40.625
 20
-54.39
 11
-40.625
 21
-50.11
  0
LINE
  8
0
 10
-40.625
 20
-50.11
 11
-43.285
 21
-50.11
  0
LINE
  8
0
 10
-43.285
 20
-50.11
 11
-43.285
 21
-46.39
  0
LINE
  8
0
 10
-43.285
 20
-46.39
 11
-40.625
 21
-46.39
  0
LINE
  8
0
 10
-40.625
 20
-46.39
 11
-40.625
 21
-42.785
  0
LINE
  8
0
 10
-40.625
 20
-42.785
 11
-43.285
 21
-42.785
  0
LINE
  8
0
 10
-43.285
 20
-42.785
 11
-43.285
 21
-40.125
  0
LINE
  8
0
 10
-43.285
 20
-40.125
 11
-118.215
 21
-40.125
  0
LINE
  8
0
 10
-118.215
 20
-40.125
 11
-118.215
 21
-42.785
  0
LINE
  8
0
 10
-118.215
 20
-42.785
 11
-120.875
 21
-42.785
  0
LINE
  8
0
 10
-120.875
 20
-42.785
 11
-120.875
 21
-46.39
  0
LINE
  8
0
 10
-120.875
 20
-46.39
 11
-118.215
 21
-46.39
  0
LINE
  8
0
 10
-118.215
 20
-46.39
 11
-118.215
 21
-50.11
  0
LINE
  8
0
 10
-118.215
 20
-50.11
 11
-120.875
 21
-50.11
  0
LINE
  8
0
 10
-120.875
 20
-50.11
 11
-120.875
 21
-54.39
  0
LINE
  8
0
 10
-120.875
 20
-54.39
 11
-118.215
 21
-54.39
  0
LINE
  8
0
 10
-118.215
 20
-54.39
 11
-118.215
 21
-58.11
  0
LINE
  8
0
 10
-118.215
 20
-58.11
 11
-120.875
 21
-58.11
  0
LINE
  8
0
 10
-120.875
 20
-58.11
 11
-120.875
 21
-61.715
  0
LINE
  8
0
 10
-120.875
 20
-61.715
 11
-118.215
 21
-61.715
  0
LINE
  8
0
 10
-118.215
 20
-61.715
 11
-118.215
 21
-64.375
  0
LINE
  8
0
 10
-118.215
 20
-64.375
 11
-113.11
 21
-64.375
  0
LINE
  8
0
 10
-113.11
 20
-64.375
 11
-113.11
 21
-61.715
  0
LINE
  8
0
 10
129.14
 20
-61.715
 11
141.86
 21
-61.715
  0
LINE
  8
0
 10
141.86
 20
-61.715
 11
141.86
 21
-64.375
  0
LINE
  8
0
 10
141.86
 20
-64.375
 11
155.14
 21
-64.375
  0
LINE
  8
0
 10
155.14
 20
-64.375
 11
155.14
 21
-61.715
  0
LINE
  8
0
 10
155.14
 20
-61.715
 11
167.86
 21
-61.715
  0
LINE
  8
0
 10
167.86
 20
-61.715
 11
167.86
 21
-64.375
  0
LINE
  8
0
 10
167.86
 20
-64.375
 11
181.14
 21
-64.375
  0
LINE
  8
0
 10
181.14
 20
-64.375
 11
181.14
 21
-61.715
  0
LINE
  8
0
 10
181.14
 20
-61.715
 11
193.86
 21
-61.715
  0
LINE
  8
0
 10
193.86
 20
-61.715
 11
193.86
 21
-64.375
  0
LINE
  8
0
 10
193.86
 20
-64.375
 11
198.965
 21
-64.375
  0
LINE
  8
0
 10
198.965
 20
-64.375
 11
198.965
 21
-58.39
  0
LINE
  8
0
 10
198.965
 20
-58.39
 11
201.625
 21
-58.39
  0
LINE
  8
0
 10
201.625
 20
-58.39
 11
201.625
 21
-54.11
  0
LINE
  8
0
 10
201.625
 20
-54.11
 11
198.965
 21
-54.11
  0
LINE
  8
0
 10
198.965
 20
-54.11
 11
198.965
 21
-50.39
  0
LINE
  8
0
 10
198.965
 20
-50.39
 11
201.625
 21
-50.39
  0
LINE
  8
0
 10
201.625
 20
-50.39
 11
201.625
 21
-46.11
  0
LINE
  8
0
 10
201.625
 20
-46.11
 11
198.965
 21
-46.11
  0
LINE
  8
0
 10
198.965
 20
-46.11
 11
198.965
 21
-40.125
  0
LINE
  8
0
 10
198.965
 20
-40.125
 11
124.035
 21
-40.125
  0
LINE
  8
0
 10
124.035
 20
-40.125
 11
124.035
 21
-46.11
  0
LINE
  8
0
 10
124.035
 20
-46.11
 11
121.375
 21
-46.11
  0
LINE
  8
0
 10
121.375
 20
-46.11
 11
121.375
 21
-50.39
  0
LINE
  8
0
 10
121.375
 20
-50.39
 11
124.035
 21
-50.39
  0
LINE
  8
0
 10
124.035
 20
-50.39
 11
124.035
 21
-54.11
  0
LINE
  8
0
 10
124.035
 20
-54.11
 11
121.375
 21
-54.11
  0
LINE
  8
0
 10
121.375
 20
-54.11
 11
121.375
 21
-58.39
  0
LINE
  8
0
 10
121.375
 20
-58.39
 11
124.035
 21
-58.39
  0
LINE
  8
0
 10
124.035
 20
-58.39
 11
124.035
 21
-64.375
  0
LINE
  8
0
 10
124.035
 20
-64.375
 11
129.14
 21
-64.375
  0
LINE
  8
0
 10
129.14
 20
-64.375
 11
129.14
 21
-61.715
  0
LINE
  8
0
 10
48.39
 20
-61.715
 11
61.11
 21
-61.715
  0
LINE
  8
0
 10
61.11
 20
-61.715
 11
61.11
 21
-64.375
  0
LINE
  8
0
 10
61.11
 20
-64.375
 11
74.39
 21
-64.375
  0
LINE
  8
0
 10
74.39
 20
-64.375
 11
74.39
 21
-61.715
  0
LINE
  8
0
 10
74.39
 20
-61.715
 11
87.11
 21
-61.715
  0
LINE
  8
0
 10
87.11
 20
-61.715
 11
87.11
 21
-64.375
  0
LINE
  8
0
 10
87.11
 20
-64.375
 11
100.39
 21
-64.375
  0
LINE
  8
0
 10
100.39
 20
-64.375
 11
100.39
 21
-61.715
  0
LINE
  8
0
 10
100.39
 20
-61.715
 11
113.11
 21
-61.715
  0
LINE
  8
0
 10
113.11
 20
-61.715
 11
113.11
 21
-64.375
  0
LINE
  8
0
 10
113.11
 20
-64.375
 11
118.215
 21
-64.375
  0
LINE
  8
0
 10
118.215
 20
-64.375
 11
118.215
 21
-61.715
  0
LINE
  8
0
 10
118.215
 20
-61.715
 11
120.875
 21
-61.715
  0
LINE
  8
0
 10
120.875
 20
-61.715
 11
120.875
 21
-58.11
  0
LINE
  8
0
 10
120.875
 20
-58.11
 11
118.215
 21
-58.11
  0
LINE
  8
0
 10
118.215
 20
-58.11
 11
118.215
 21
-54.39
  0
LINE
  8
0
 10
118.215
 20
-54.39
 11
120.875
 21
-54.39
  0
LINE
  8
0
 10
120.875
 20
-54.39
 11
120.875
 21
-50.11
  0
LINE
  8
0
 10
120.875
 20
-50.11
 11
118.215
 21
-50.11
  0
LINE
  8
0
 10
118.215
 20
-50.11
 11
118.215
 21
-46.39
  0
LINE
  8
0
 10
118.215
 20
-46.39
 11
120.875
 21
-46.39
  0
LINE
  8
0
 10
120.875
 20
-46.39
 11
120.875
 21
-42.785
  0
LINE
  8
0
 10
120.875
 20
-42.785
 11
118.215
 21
-42.785
  0
LINE
  8
0
 10
118.215
 20
-42.785
 11
118.215
 21
-40.125
  0
LINE
  8
0
 10
118.215
 20
-40.125
 11
43.285
 21
-40.125
  0
LINE
  8
0
 10
43.285
 20
-40.125
 11
43.285
 21
-42.785
  0
LINE
  8
0
 10
43.285
 20
-42.785
 11
40.625
 21
-42.785
  0
LINE
  8
0
 10
40.625
 20
-42.785
 11
40.625
 21
-46.39
  0
LINE
  8
0
 10
40.625
 20
-46.39
 11
43.285
 21
-46.39
  0
LINE
  8
0
 10
43.285
 20
-46.39
 11
43.285
 21
-50.11
  0
LINE
  8
0
 10
43.285
 20
-50.11
 11
40.625
 21
-50.11
  0
LINE
  8
0
 10
40.625
 20
-50.11
 11
40.625
 21
-54.39
  0
LINE
  8
0
 10
40.625
 20
-54.39
 11
43.285
 21
-54.39
  0
LINE
  8
0
 10
43.285
 20
-54.39
 11
43.285
 21
-58.11
  0
LINE
  8
0
 10
43.285
 20
-58.11
 11
40.625
 21
-58.11
  0
LINE
  8
0
 10
40.625
 20
-58.11
 11
40.625
 21
-61.715
  0
LINE
  8
0
 10
40.625
 20
-61.715
 11
43.285
 21
-61.715
  0
LINE
  8
0
 10
43.285
 20
-61.715
 11
43.285
 21
-64.375
  0
LINE
  8
0
 10
43.285
 20
-64.375
 11
48.39
 21
-64.375
  0
LINE
  8
0
 10
48.39
 20
-64.375
 11
48.39
 21
-61.715
  0
LINE
  8
0
 10
-32.36
 20
-61.715
 11
-19.64
 21
-61.715
  0
LINE
  8
0
 10
-19.64
 20
-61.715
 11
-19.64
 21
-64.375
  0
LINE
  8
0
 10
-19.64
 20
-64.375
 11
-6.35999
 21
-64.375
  0
LINE
  8
0
 10
-6.35999
 20
-64.375
 11
-6.35999
 21
-61.715
  0
LINE
  8
0
 10
-6.35999
 20
-61.715
 11
6.35999
 21
-61.715
  0
LINE
  8
0
 10
6.35999
 20
-61.715
 11
6.35999
 21
-64.375
  0
LINE
  8
0
 10
6.35999
 20
-64.375
 11
19.64
 21
-64.375
  0
LINE
  8
0
 10
19.64
 20
-64.375
 11
19.64
 21
-61.715
  0
LINE
  8
0
 10
19.64
 20
-61.715
 11
32.36
 21
-61.715
  0
LINE
  8
0
 10
32.36
 20
-61.715
 11
32.36
 21
-64.375
  0
LINE
  8
0
 10
32.36
 20
-64.375
 11
37.465
 21
-64.375
  0
LINE
  8
0
 10
37.465
 20
-64.375
 11
37.465
 21
-58.39
  0
LINE
  8
0
 10
37.465
 20
-58.39
 11
40.125
 21
-58.39
  0
LINE
  8
0
 10
40.125
 20
-58.39
 11
40.125
 21
-54.11
  0
LINE
  8
0
 10
40.125
 20
-54.11
 11
37.465
 21
-54.11
  0
LINE
  8
0
 10
37.465
 20
-54.11
 11
37.465
 21
-50.39
  0
LINE
  8
0
 10
37.465
 20
-50.39
 11
40.125
 21
-50.39
  0
LINE
  8
0
 10
40.125
 20
-50.39
 11
40.125
 21
-46.11
  0
LINE
  8
0
 10
40.125
 20
-46.11
 11
37.465
 21
-46.11
  0
LINE
  8
0
 10
37.465
 20
-46.11
 11
37.465
 21
-40.125
  0
LINE
  8
0
 10
37.465
 20
-40.125
 11
-37.465
 21
-40.125
  0
LINE
  8
0
 10
-37.465
 20
-40.125
 11
-37.465
 21
-46.11
  0
LINE
  8
0
 10
-37.465
 20
-46.11
 11
-40.125
 21
-46.11
  0
LINE
  8
0
 10
-40.125
 20
-46.11
 11
-40.125
 21
-50.39
  0
LINE
  8
0
 10
-40.125
 20
-50.39
 11
-37.465
 21
-50.39
  0
LINE
  8
0
 10
-37.465
 20
-50.39
 11
-37.465
 21
-54.11
  0
LINE
  8
0
 10
-37.465
 20
-54.11
 11
-40.125
 21
-54.11
  0
LINE
  8
0
 10
-40.125
 20
-54.11
 11
-40.125
 21
-58.39
  0
LINE
  8
0
 10
-40.125
 20
-58.39
 11
-37.465
 21
-58.39
  0
LINE
  8
0
 10
-37.465
 20
-58.39
 11
-37.465
 21
-64.375
  0
LINE
  8
0
 10
-37.465
 20
-64.375
 11
-32.36
 21
-64.375
  0
LINE
  8
0
 10
-32.36
 20
-64.375
 11
-32.36
 21
-61.715
  0
LINE
  8
0
 10
-16.2479
 20
-56.375
 11
-16.2479
 21
-47.799
  0
LINE
  8
0
 10
-16.2479
 20
-47.799
 11
-15.0839
 21
-47.799
  0
LINE
  8
0
 10
-15.0839
 20
-47.799
 11
-15.0839
 21
-51.447
  0
LINE
  8
0
 10
-15.0839
 20
-51.447
 11
-10.4319
 21
-51.447
  0
LINE
  8
0
 10
-10.4319
 20
-51.447
 11
-10.4319
 21
-47.799
  0
LINE
  8
0
 10
-10.4319
 20
-47.799
 11
-9.26794
 21
-47.799
  0
LINE
  8
0
 10
-9.26794
 20
-47.799
 11
-9.26794
 21
-56.375
  0
LINE
  8
0
 10
-9.26794
 20
-56.375
 11
-10.4319
 21
-56.375
  0
LINE
  8
0
 10
-10.4319
 20
-56.375
 11
-10.4319
 21
-52.422
  0
LINE
  8
0
 10
-10.4319
 20
-52.422
 11
-15.0839
 21
-52.422
  0
LINE
  8
0
 10
-15.0839
 20
-52.422
 11
-15.0839
 21
-56.375
  0
LINE
  8
0
 10
-15.0839
 20
-56.375
 11
-16.2479
 21
-56.375
  0
LINE
  8
0
 10
-5.64824
 20
-56.4484
 11
-6.24643
 21
-56.2847
  0
LINE
  8
0
 10
-6.24643
 20
-56.2847
 11
-6.75775
 21
-56.0119
  0
LINE
  8
0
 10
-6.75775
 20
-56.0119
 11
-7.18219
 21
-55.63
  0
LINE
  8
0
 10
-7.18219
 20
-55.63
 11
-7.51512
 21
-55.1405
  0
LINE
  8
0
 10
-7.51512
 20
-55.1405
 11
-7.75293
 21
-54.545
  0
LINE
  8
0
 10
-7.75293
 20
-54.545
 11
-7.89561
 21
-53.8435
  0
LINE
  8
0
 10
-7.89561
 20
-53.8435
 11
-7.94318
 21
-53.036
  0
LINE
  8
0
 10
-7.94318
 20
-53.036
 11
-7.89561
 21
-52.2661
  0
LINE
  8
0
 10
-7.89561
 20
-52.2661
 11
-7.75293
 21
-51.5915
  0
LINE
  8
0
 10
-7.75293
 20
-51.5915
 11
-7.51512
 21
-51.0121
  0
LINE
  8
0
 10
-7.51512
 20
-51.0121
 11
-7.18219
 21
-50.528
  0
LINE
  8
0
 10
-7.18219
 20
-50.528
 11
-6.76044
 21
-50.1461
  0
LINE
  8
0
 10
-6.76044
 20
-50.1461
 11
-6.25719
 21
-49.8733
  0
LINE
  8
0
 10
-6.25719
 20
-49.8733
 11
-5.67244
 21
-49.7096
  0
LINE
  8
0
 10
-5.67244
 20
-49.7096
 11
-5.00618
 21
-49.655
  0
LINE
  8
0
 10
-5.00618
 20
-49.655
 11
-3.73962
 21
-49.8744
  0
LINE
  8
0
 10
-3.73962
 20
-49.8744
 11
-2.83493
 21
-50.5325
  0
LINE
  8
0
 10
-2.83493
 20
-50.5325
 11
-2.29211
 21
-51.6294
  0
LINE
  8
0
 10
-2.29211
 20
-51.6294
 11
-2.11119
 21
-53.165
  0
LINE
  8
0
 10
-2.11119
 20
-53.165
 11
-2.11119
 21
-53.312
  0
LINE
  8
0
 10
-2.11119
 20
-53.312
 11
-6.79118
 21
-53.312
  0
LINE
  8
0
 10
-6.79118
 20
-53.312
 11
-6.76205
 21
-53.8471
  0
LINE
  8
0
 10
-6.76205
 20
-53.8471
 11
-6.67468
 21
-54.3175
  0
LINE
  8
0
 10
-6.67468
 20
-54.3175
 11
-6.52905
 21
-54.7231
  0
LINE
  8
0
 10
-6.52905
 20
-54.7231
 11
-6.32518
 21
-55.064
  0
LINE
  8
0
 10
-6.32518
 20
-55.064
 11
-6.06531
 21
-55.3335
  0
LINE
  8
0
 10
-6.06531
 20
-55.3335
 11
-5.75168
 21
-55.526
  0
LINE
  8
0
 10
-5.75168
 20
-55.526
 11
-5.38431
 21
-55.6415
  0
LINE
  8
0
 10
-5.38431
 20
-55.6415
 11
-4.96318
 21
-55.68
  0
LINE
  8
0
 10
-4.96318
 20
-55.68
 11
-4.62674
 21
-55.6617
  0
LINE
  8
0
 10
-4.62674
 20
-55.6617
 11
-4.32544
 21
-55.607
  0
LINE
  8
0
 10
-4.32544
 20
-55.607
 11
-4.05925
 21
-55.5157
  0
LINE
  8
0
 10
-4.05925
 20
-55.5157
 11
-3.82819
 21
-55.388
  0
LINE
  8
0
 10
-3.82819
 20
-55.388
 11
-3.63193
 21
-55.2318
  0
LINE
  8
0
 10
-3.63193
 20
-55.2318
 11
-3.47018
 21
-55.0562
  0
LINE
  8
0
 10
-3.47018
 20
-55.0562
 11
-3.34294
 21
-54.8613
  0
LINE
  8
0
 10
-3.34294
 20
-54.8613
 11
-3.25018
 21
-54.647
  0
LINE
  8
0
 10
-3.25018
 20
-54.647
 11
-2.28719
 21
-54.924
  0
LINE
  8
0
 10
-2.28719
 20
-54.924
 11
-2.67531
 21
-55.6148
  0
LINE
  8
0
 10
-2.67531
 20
-55.6148
 11
-3.25069
 21
-56.1082
  0
LINE
  8
0
 10
-3.25069
 20
-56.1082
 11
-4.01331
 21
-56.4043
  0
LINE
  8
0
 10
-4.01331
 20
-56.4043
 11
-4.96318
 21
-56.503
  0
LINE
  8
0
 10
-4.96318
 20
-56.503
 11
-5.64824
 21
-56.4484
  0
LINE
  8
0
 10
-3.31125
 20
-51.9834
 11
-3.42143
 21
-51.5665
  0
LINE
  8
0
 10
-3.42143
 20
-51.5665
 11
-3.57475
 21
-51.2204
  0
LINE
  8
0
 10
-3.57475
 20
-51.2204
 11
-3.77118
 21
-50.945
  0
LINE
  8
0
 10
-3.77118
 20
-50.945
 11
-4.01262
 21
-50.735
  0
LINE
  8
0
 10
-4.01262
 20
-50.735
 11
-4.30194
 21
-50.585
  0
LINE
  8
0
 10
-4.30194
 20
-50.585
 11
-4.63911
 21
-50.495
  0
LINE
  8
0
 10
-4.63911
 20
-50.495
 11
-5.02419
 21
-50.465
  0
LINE
  8
0
 10
-5.02419
 20
-50.465
 11
-5.40005
 21
-50.4984
  0
LINE
  8
0
 10
-5.40005
 20
-50.4984
 11
-5.73468
 21
-50.5988
  0
LINE
  8
0
 10
-5.73468
 20
-50.5988
 11
-6.02806
 21
-50.7659
  0
LINE
  8
0
 10
-6.02806
 20
-50.7659
 11
-6.28018
 21
-51
  0
LINE
  8
0
 10
-6.28018
 20
-51
 11
-6.485
 21
-51.2926
  0
LINE
  8
0
 10
-6.485
 20
-51.2926
 11
-6.63643
 21
-51.6353
  0
LINE
  8
0
 10
-6.63643
 20
-51.6353
 11
-6.7345
 21
-52.0281
  0
LINE
  8
0
 10
-6.7345
 20
-52.0281
 11
-6.77919
 21
-52.471
  0
LINE
  8
0
 10
-6.77919
 20
-52.471
 11
-3.24419
 21
-52.471
  0
LINE
  8
0
 10
-3.24419
 20
-52.471
 11
-3.31125
 21
-51.9834
  0
LINE
  8
0
 10
7.22382
 20
-56.4484
 11
6.62563
 21
-56.2847
  0
LINE
  8
0
 10
6.62563
 20
-56.2847
 11
6.1143
 21
-56.0119
  0
LINE
  8
0
 10
6.1143
 20
-56.0119
 11
5.68987
 21
-55.63
  0
LINE
  8
0
 10
5.68987
 20
-55.63
 11
5.35693
 21
-55.1405
  0
LINE
  8
0
 10
5.35693
 20
-55.1405
 11
5.11913
 21
-54.545
  0
LINE
  8
0
 10
5.11913
 20
-54.545
 11
4.97644
 21
-53.8435
  0
LINE
  8
0
 10
4.97644
 20
-53.8435
 11
4.92888
 21
-53.036
  0
LINE
  8
0
 10
4.92888
 20
-53.036
 11
4.97644
 21
-52.2661
  0
LINE
  8
0
 10
4.97644
 20
-52.2661
 11
5.11913
 21
-51.5915
  0
LINE
  8
0
 10
5.11913
 20
-51.5915
 11
5.35693
 21
-51.0121
  0
LINE
  8
0
 10
5.35693
 20
-51.0121
 11
5.68987
 21
-50.528
  0
LINE
  8
0
 10
5.68987
 20
-50.528
 11
6.11162
 21
-50.1461
  0
LINE
  8
0
 10
6.11162
 20
-50.1461
 11
6.61487
 21
-49.8733
  0
LINE
  8
0
 10
6.61487
 20
-49.8733
 11
7.19962
 21
-49.7096
  0
LINE
  8
0
 10
7.19962
 20
-49.7096
 11
7.86588
 21
-49.655
  0
LINE
  8
0
 10
7.86588
 20
-49.655
 11
9.13243
 21
-49.8744
  0
LINE
  8
0
 10
9.13243
 20
-49.8744
 11
10.0371
 21
-50.5325
  0
LINE
  8
0
 10
10.0371
 20
-50.5325
 11
10.5799
 21
-51.6294
  0
LINE
  8
0
 10
10.5799
 20
-51.6294
 11
10.7609
 21
-53.165
  0
LINE
  8
0
 10
10.7609
 20
-53.165
 11
10.7609
 21
-53.312
  0
LINE
  8
0
 10
10.7609
 20
-53.312
 11
6.08087
 21
-53.312
  0
LINE
  8
0
 10
6.08087
 20
-53.312
 11
6.11
 21
-53.8471
  0
LINE
  8
0
 10
6.11
 20
-53.8471
 11
6.19737
 21
-54.3175
  0
LINE
  8
0
 10
6.19737
 20
-54.3175
 11
6.343
 21
-54.7231
  0
LINE
  8
0
 10
6.343
 20
-54.7231
 11
6.54688
 21
-55.064
  0
LINE
  8
0
 10
6.54688
 20
-55.064
 11
6.80675
 21
-55.3335
  0
LINE
  8
0
 10
6.80675
 20
-55.3335
 11
7.12038
 21
-55.526
  0
LINE
  8
0
 10
7.12038
 20
-55.526
 11
7.48775
 21
-55.6415
  0
LINE
  8
0
 10
7.48775
 20
-55.6415
 11
7.90887
 21
-55.68
  0
LINE
  8
0
 10
7.90887
 20
-55.68
 11
8.24532
 21
-55.6617
  0
LINE
  8
0
 10
8.24532
 20
-55.6617
 11
8.54662
 21
-55.607
  0
LINE
  8
0
 10
8.54662
 20
-55.607
 11
8.81281
 21
-55.5157
  0
LINE
  8
0
 10
8.81281
 20
-55.5157
 11
9.04387
 21
-55.388
  0
LINE
  8
0
 10
9.04387
 20
-55.388
 11
9.24013
 21
-55.2318
  0
LINE
  8
0
 10
9.24013
 20
-55.2318
 11
9.40187
 21
-55.0562
  0
LINE
  8
0
 10
9.40187
 20
-55.0562
 11
9.52911
 21
-54.8613
  0
LINE
  8
0
 10
9.52911
 20
-54.8613
 11
9.62187
 21
-54.647
  0
LINE
  8
0
 10
9.62187
 20
-54.647
 11
10.5849
 21
-54.924
  0
LINE
  8
0
 10
10.5849
 20
-54.924
 11
10.1967
 21
-55.6148
  0
LINE
  8
0
 10
10.1967
 20
-55.6148
 11
9.62137
 21
-56.1082
  0
LINE
  8
0
 10
9.62137
 20
-56.1082
 11
8.85875
 21
-56.4043
  0
LINE
  8
0
 10
8.85875
 20
-56.4043
 11
7.90887
 21
-56.503
  0
LINE
  8
0
 10
7.90887
 20
-56.503
 11
7.22382
 21
-56.4484
  0
LINE
  8
0
 10
9.56081
 20
-51.9834
 11
9.45062
 21
-51.5665
  0
LINE
  8
0
 10
9.45062
 20
-51.5665
 11
9.2973
 21
-51.2204
  0
LINE
  8
0
 10
9.2973
 20
-51.2204
 11
9.10088
 21
-50.945
  0
LINE
  8
0
 10
9.10088
 20
-50.945
 11
8.85944
 21
-50.735
  0
LINE
  8
0
 10
8.85944
 20
-50.735
 11
8.57011
 21
-50.585
  0
LINE
  8
0
 10
8.57011
 20
-50.585
 11
8.23294
 21
-50.495
  0
LINE
  8
0
 10
8.23294
 20
-50.495
 11
7.84787
 21
-50.465
  0
LINE
  8
0
 10
7.84787
 20
-50.465
 11
7.472
 21
-50.4984
  0
LINE
  8
0
 10
7.472
 20
-50.4984
 11
7.13737
 21
-50.5988
  0
LINE
  8
0
 10
7.13737
 20
-50.5988
 11
6.84399
 21
-50.7659
  0
LINE
  8
0
 10
6.84399
 20
-50.7659
 11
6.59187
 21
-51
  0
LINE
  8
0
 10
6.59187
 20
-51
 11
6.38705
 21
-51.2926
  0
LINE
  8
0
 10
6.38705
 20
-51.2926
 11
6.23563
 21
-51.6353
  0
LINE
  8
0
 10
6.23563
 20
-51.6353
 11
6.13756
 21
-52.0281
  0
LINE
  8
0
 10
6.13756
 20
-52.0281
 11
6.09286
 21
-52.471
  0
LINE
  8
0
 10
6.09286
 20
-52.471
 11
9.62787
 21
-52.471
  0
LINE
  8
0
 10
9.62787
 20
-52.471
 11
9.56081
 21
-51.9834
  0
LINE
  8
0
 10
13.7261
 20
-56.4777
 11
13.2137
 21
-56.4017
  0
LINE
  8
0
 10
13.2137
 20
-56.4017
 11
12.7721
 21
-56.2752
  0
LINE
  8
0
 10
12.7721
 20
-56.2752
 11
12.4012
 21
-56.098
  0
LINE
  8
0
 10
12.4012
 20
-56.098
 11
12.095
 21
-55.8667
  0
LINE
  8
0
 10
12.095
 20
-55.8667
 11
11.8474
 21
-55.5787
  0
LINE
  8
0
 10
11.8474
 20
-55.5787
 11
11.6585
 21
-55.2342
  0
LINE
  8
0
 10
11.6585
 20
-55.2342
 11
11.5282
 21
-54.833
  0
LINE
  8
0
 10
11.5282
 20
-54.833
 11
12.4972
 21
-54.644
  0
LINE
  8
0
 10
12.4972
 20
-54.644
 11
12.5865
 21
-54.8913
  0
LINE
  8
0
 10
12.5865
 20
-54.8913
 11
12.7134
 21
-55.1032
  0
LINE
  8
0
 10
12.7134
 20
-55.1032
 11
12.878
 21
-55.2798
  0
LINE
  8
0
 10
12.878
 20
-55.2798
 11
13.0802
 21
-55.421
  0
LINE
  8
0
 10
13.0802
 20
-55.421
 11
13.3232
 21
-55.5291
  0
LINE
  8
0
 10
13.3232
 20
-55.5291
 11
13.6092
 21
-55.6062
  0
LINE
  8
0
 10
13.6092
 20
-55.6062
 11
13.9382
 21
-55.6526
  0
LINE
  8
0
 10
13.9382
 20
-55.6526
 11
14.3102
 21
-55.668
  0
LINE
  8
0
 10
14.3102
 20
-55.668
 11
14.7029
 21
-55.6519
  0
LINE
  8
0
 10
14.7029
 20
-55.6519
 11
15.0392
 21
-55.6035
  0
LINE
  8
0
 10
15.0392
 20
-55.6035
 11
15.3189
 21
-55.5229
  0
LINE
  8
0
 10
15.3189
 20
-55.5229
 11
15.5422
 21
-55.41
  0
LINE
  8
0
 10
15.5422
 20
-55.41
 11
15.7128
 21
-55.2649
  0
LINE
  8
0
 10
15.7128
 20
-55.2649
 11
15.8347
 21
-55.0875
  0
LINE
  8
0
 10
15.8347
 20
-55.0875
 11
15.9078
 21
-54.8779
  0
LINE
  8
0
 10
15.9078
 20
-54.8779
 11
15.9322
 21
-54.636
  0
LINE
  8
0
 10
15.9322
 20
-54.636
 11
15.9153
 21
-54.4492
  0
LINE
  8
0
 10
15.9153
 20
-54.4492
 11
15.8647
 21
-54.281
  0
LINE
  8
0
 10
15.8647
 20
-54.281
 11
15.7803
 21
-54.1312
  0
LINE
  8
0
 10
15.7803
 20
-54.1312
 11
15.6622
 21
-54
  0
LINE
  8
0
 10
15.6622
 20
-54
 11
15.5065
 21
-53.8829
  0
LINE
  8
0
 10
15.5065
 20
-53.8829
 11
15.3094
 21
-53.7765
  0
LINE
  8
0
 10
15.3094
 20
-53.7765
 11
15.071
 21
-53.6809
  0
LINE
  8
0
 10
15.071
 20
-53.6809
 11
14.7912
 21
-53.596
  0
LINE
  8
0
 10
14.7912
 20
-53.596
 11
14.0002
 21
-53.388
  0
LINE
  8
0
 10
14.0002
 20
-53.388
 11
13.559
 21
-53.2661
  0
LINE
  8
0
 10
13.559
 20
-53.2661
 11
13.1864
 21
-53.1455
  0
LINE
  8
0
 10
13.1864
 20
-53.1455
 11
12.8825
 21
-53.0261
  0
LINE
  8
0
 10
12.8825
 20
-53.0261
 11
12.6472
 21
-52.908
  0
LINE
  8
0
 10
12.6472
 20
-52.908
 11
12.4571
 21
-52.7837
  0
LINE
  8
0
 10
12.4571
 20
-52.7837
 11
12.2889
 21
-52.647
  0
LINE
  8
0
 10
12.2889
 20
-52.647
 11
12.1426
 21
-52.4977
  0
LINE
  8
0
 10
12.1426
 20
-52.4977
 11
12.0182
 21
-52.336
  0
LINE
  8
0
 10
12.0182
 20
-52.336
 11
11.9189
 21
-52.1579
  0
LINE
  8
0
 10
11.9189
 20
-52.1579
 11
11.8479
 21
-51.9608
  0
LINE
  8
0
 10
11.8479
 20
-51.9608
 11
11.8054
 21
-51.7444
  0
LINE
  8
0
 10
11.8054
 20
-51.7444
 11
11.7912
 21
-51.509
  0
LINE
  8
0
 10
11.7912
 20
-51.509
 11
11.8316
 21
-51.083
  0
LINE
  8
0
 10
11.8316
 20
-51.083
 11
11.9527
 21
-50.711
  0
LINE
  8
0
 10
11.9527
 20
-50.711
 11
12.1546
 21
-50.393
  0
LINE
  8
0
 10
12.1546
 20
-50.393
 11
12.4372
 21
-50.129
  0
LINE
  8
0
 10
12.4372
 20
-50.129
 11
12.7972
 21
-49.9216
  0
LINE
  8
0
 10
12.7972
 20
-49.9216
 11
13.2312
 21
-49.7735
  0
LINE
  8
0
 10
13.2312
 20
-49.7735
 11
13.7392
 21
-49.6846
  0
LINE
  8
0
 10
13.7392
 20
-49.6846
 11
14.3212
 21
-49.655
  0
LINE
  8
0
 10
14.3212
 20
-49.655
 11
14.8411
 21
-49.679
  0
LINE
  8
0
 10
14.8411
 20
-49.679
 11
15.3047
 21
-49.751
  0
LINE
  8
0
 10
15.3047
 20
-49.751
 11
15.7121
 21
-49.871
  0
LINE
  8
0
 10
15.7121
 20
-49.871
 11
16.0632
 21
-50.039
  0
LINE
  8
0
 10
16.0632
 20
-50.039
 11
16.3566
 21
-50.2599
  0
LINE
  8
0
 10
16.3566
 20
-50.2599
 11
16.5907
 21
-50.5388
  0
LINE
  8
0
 10
16.5907
 20
-50.5388
 11
16.7656
 21
-50.8754
  0
LINE
  8
0
 10
16.7656
 20
-50.8754
 11
16.8812
 21
-51.27
  0
LINE
  8
0
 10
16.8812
 20
-51.27
 11
15.8942
 21
-51.392
  0
LINE
  8
0
 10
15.8942
 20
-51.392
 11
15.8288
 21
-51.1853
  0
LINE
  8
0
 10
15.8288
 20
-51.1853
 11
15.7244
 21
-51.0043
  0
LINE
  8
0
 10
15.7244
 20
-51.0043
 11
15.5813
 21
-50.8488
  0
LINE
  8
0
 10
15.5813
 20
-50.8488
 11
15.3992
 21
-50.719
  0
LINE
  8
0
 10
15.3992
 20
-50.719
 11
15.1811
 21
-50.6162
  0
LINE
  8
0
 10
15.1811
 20
-50.6162
 11
14.9287
 21
-50.5428
  0
LINE
  8
0
 10
14.9287
 20
-50.5428
 11
14.6421
 21
-50.4987
  0
LINE
  8
0
 10
14.6421
 20
-50.4987
 11
14.3212
 21
-50.484
  0
LINE
  8
0
 10
14.3212
 20
-50.484
 11
13.9707
 21
-50.4982
  0
LINE
  8
0
 10
13.9707
 20
-50.4982
 11
13.6694
 21
-50.5408
  0
LINE
  8
0
 10
13.6694
 20
-50.5408
 11
13.4173
 21
-50.6117
  0
LINE
  8
0
 10
13.4173
 20
-50.6117
 11
13.2142
 21
-50.711
  0
LINE
  8
0
 10
13.2142
 20
-50.711
 11
13.0584
 21
-50.8391
  0
LINE
  8
0
 10
13.0584
 20
-50.8391
 11
12.9472
 21
-50.9965
  0
LINE
  8
0
 10
12.9472
 20
-50.9965
 11
12.8804
 21
-51.1831
  0
LINE
  8
0
 10
12.8804
 20
-51.1831
 11
12.8582
 21
-51.399
  0
LINE
  8
0
 10
12.8582
 20
-51.399
 11
12.8674
 21
-51.5339
  0
LINE
  8
0
 10
12.8674
 20
-51.5339
 11
12.8949
 21
-51.6565
  0
LINE
  8
0
 10
12.8949
 20
-51.6565
 11
12.9409
 21
-51.7669
  0
LINE
  8
0
 10
12.9409
 20
-51.7669
 11
13.0052
 21
-51.865
  0
LINE
  8
0
 10
13.0052
 20
-51.865
 11
13.0875
 21
-51.9531
  0
LINE
  8
0
 10
13.0875
 20
-51.9531
 11
13.1874
 21
-52.0345
  0
LINE
  8
0
 10
13.1874
 20
-52.0345
 11
13.305
 21
-52.1091
  0
LINE
  8
0
 10
13.305
 20
-52.1091
 11
13.4402
 21
-52.177
  0
LINE
  8
0
 10
13.4402
 20
-52.177
 11
13.6245
 21
-52.2471
  0
LINE
  8
0
 10
13.6245
 20
-52.2471
 11
13.8884
 21
-52.3295
  0
LINE
  8
0
 10
13.8884
 20
-52.3295
 11
14.232
 21
-52.4241
  0
LINE
  8
0
 10
14.232
 20
-52.4241
 11
14.6552
 21
-52.531
  0
LINE
  8
0
 10
14.6552
 20
-52.531
 11
15.063
 21
-52.6389
  0
LINE
  8
0
 10
15.063
 20
-52.6389
 11
15.4094
 21
-52.7427
  0
LINE
  8
0
 10
15.4094
 20
-52.7427
 11
15.6945
 21
-52.8424
  0
LINE
  8
0
 10
15.6945
 20
-52.8424
 11
15.9182
 21
-52.938
  0
LINE
  8
0
 10
15.9182
 20
-52.938
 11
16.1015
 21
-53.034
  0
LINE
  8
0
 10
16.1015
 20
-53.034
 11
16.2644
 21
-53.135
  0
LINE
  8
0
 10
16.2644
 20
-53.135
 11
16.407
 21
-53.241
  0
LINE
  8
0
 10
16.407
 20
-53.241
 11
16.5292
 21
-53.352
  0
LINE
  8
0
 10
16.5292
 20
-53.352
 11
16.6348
 21
-53.4694
  0
LINE
  8
0
 10
16.6348
 20
-53.4694
 11
16.7277
 21
-53.5957
  0
LINE
  8
0
 10
16.7277
 20
-53.5957
 11
16.8078
 21
-53.7309
  0
LINE
  8
0
 10
16.8078
 20
-53.7309
 11
16.8752
 21
-53.875
  0
LINE
  8
0
 10
16.8752
 20
-53.875
 11
16.929
 21
-54.0282
  0
LINE
  8
0
 10
16.929
 20
-54.0282
 11
16.9674
 21
-54.192
  0
LINE
  8
0
 10
16.9674
 20
-54.192
 11
16.9905
 21
-54.3662
  0
LINE
  8
0
 10
16.9905
 20
-54.3662
 11
16.9982
 21
-54.551
  0
LINE
  8
0
 10
16.9982
 20
-54.551
 11
16.9539
 21
-54.9922
  0
LINE
  8
0
 10
16.9539
 20
-54.9922
 11
16.8212
 21
-55.38
  0
LINE
  8
0
 10
16.8212
 20
-55.38
 11
16.5999
 21
-55.7142
  0
LINE
  8
0
 10
16.5999
 20
-55.7142
 11
16.2902
 21
-55.995
  0
LINE
  8
0
 10
16.2902
 20
-55.995
 11
15.9013
 21
-56.2172
  0
LINE
  8
0
 10
15.9013
 20
-56.2172
 11
15.4414
 21
-56.376
  0
LINE
  8
0
 10
15.4414
 20
-56.376
 11
14.9108
 21
-56.4712
  0
LINE
  8
0
 10
14.9108
 20
-56.4712
 11
14.3092
 21
-56.503
  0
LINE
  8
0
 10
14.3092
 20
-56.503
 11
13.7261
 21
-56.4777
  0
LINE
  8
0
 10
-1.55186
 20
-56.375
 11
0.809128
 21
-52.988
  0
LINE
  8
0
 10
0.809128
 20
-52.988
 11
-1.44186
 21
-49.783
  0
LINE
  8
0
 10
-1.44186
 20
-49.783
 11
-0.228867
 21
-49.783
  0
LINE
  8
0
 10
-0.228867
 20
-49.783
 11
1.43112
 21
-52.348
  0
LINE
  8
0
 10
1.43112
 20
-52.348
 11
3.07812
 21
-49.783
  0
LINE
  8
0
 10
3.07812
 20
-49.783
 11
4.30312
 21
-49.783
  0
LINE
  8
0
 10
4.30312
 20
-49.783
 11
2.05212
 21
-52.976
  0
LINE
  8
0
 10
2.05212
 20
-52.976
 11
4.44412
 21
-56.375
  0
LINE
  8
0
 10
4.44412
 20
-56.375
 11
3.21912
 21
-56.375
  0
LINE
  8
0
 10
3.21912
 20
-56.375
 11
1.43112
 21
-53.67
  0
LINE
  8
0
 10
1.43112
 20
-53.67
 11
-0.369858
 21
-56.375
  0
LINE
  8
0
 10
-0.369858
 20
-56.375
 11
-1.55186
 21
-56.375
  0
LINE
  8
0
 10
-19.36
 20
-142.465
 11
-6.64
 21
-142.465
  0
LINE
  8
0
 10
-6.64
 20
-142.465
 11
-6.64
 21
-145.125
  0
LINE
  8
0
 10
-6.64
 20
-145.125
 11
6.63998
 21
-145.125
  0
LINE
  8
0
 10
6.63998
 20
-145.125
 11
6.63998
 21
-142.465
  0
LINE
  8
0
 10
6.63998
 20
-142.465
 11
19.36
 21
-142.465
  0
LINE
  8
0
 10
19.36
 20
-142.465
 11
19.36
 21
-145.125
  0
LINE
  8
0
 10
19.36
 20
-145.125
 11
32.64
 21
-145.125
  0
LINE
  8
0
 10
32.64
 20
-145.125
 11
32.64
 21
-142.465
  0
LINE
  8
0
 10
32.64
 20
-142.465
 11
37.465
 21
-142.465
  0
LINE
  8
0
 10
37.465
 20
-142.465
 11
37.465
 21
-137.64
  0
LINE
  8
0
 10
37.465
 20
-137.64
 11
40.125
 21
-137.64
  0
LINE
  8
0
 10
40.125
 20
-137.64
 11
40.125
 21
-124.36
  0
LINE
  8
0
 10
40.125
 20
-124.36
 11
37.465
 21
-124.36
  0
LINE
  8
0
 10
37.465
 20
-124.36
 11
37.465
 21
-111.64
  0
LINE
  8
0
 10
37.465
 20
-111.64
 11
40.125
 21
-111.64
  0
LINE
  8
0
 10
40.125
 20
-111.64
 11
40.125
 21
-98.36
  0
LINE
  8
0
 10
40.125
 20
-98.36
 11
37.465
 21
-98.36
  0
LINE
  8
0
 10
37.465
 20
-98.36
 11
37.465
 21
-85.64
  0
LINE
  8
0
 10
37.465
 20
-85.64
 11
40.125
 21
-85.64
  0
LINE
  8
0
 10
40.125
 20
-85.64
 11
40.125
 21
-72.36
  0
LINE
  8
0
 10
40.125
 20
-72.36
 11
37.465
 21
-72.36
  0
LINE
  8
0
 10
37.465
 20
-72.36
 11
37.465
 21
-67.535
  0
LINE
  8
0
 10
37.465
 20
-67.535
 11
32.64
 21
-67.535
  0
LINE
  8
0
 10
32.64
 20
-67.535
 11
32.64
 21
-64.875
  0
LINE
  8
0
 10
32.64
 20
-64.875
 11
19.36
 21
-64.875
  0
LINE
  8
0
 10
19.36
 20
-64.875
 11
19.36
 21
-67.535
  0
LINE
  8
0
 10
19.36
 20
-67.535
 11
6.64
 21
-67.535
  0
LINE
  8
0
 10
6.64
 20
-67.535
 11
6.64
 21
-64.875
  0
LINE
  8
0
 10
6.64
 20
-64.875
 11
-6.64
 21
-64.875
  0
LINE
  8
0
 10
-6.64
 20
-64.875
 11
-6.64
 21
-67.535
  0
LINE
  8
0
 10
-6.64
 20
-67.535
 11
-19.36
 21
-67.535
  0
LINE
  8
0
 10
-19.36
 20
-67.535
 11
-19.36
 21
-64.875
  0
LINE
  8
0
 10
-19.36
 20
-64.875
 11
-32.64
 21
-64.875
  0
LINE
  8
0
 10
-32.64
 20
-64.875
 11
-32.64
 21
-67.535
  0
LINE
  8
0
 10
-32.64
 20
-67.535
 11
-37.465
 21
-67.535
  0
LINE
  8
0
 10
-37.465
 20
-67.535
 11
-37.465
 21
-72.36
  0
LINE
  8
0
 10
-37.465
 20
-72.36
 11
-40.125
 21
-72.36
  0
LINE
  8
0
 10
-40.125
 20
-72.36
 11
-40.125
 21
-85.64
  0
LINE
  8
0
 10
-40.125
 20
-85.64
 11
-37.465
 21
-85.64
  0
LINE
  8
0
 10
-37.465
 20
-85.64
 11
-37.465
 21
-98.36
  0
LINE
  8
0
 10
-37.465
 20
-98.36
 11
-40.125
 21
-98.36
  0
LINE
  8
0
 10
-40.125
 20
-98.36
 11
-40.125
 21
-111.64
  0
LINE
  8
0
 10
-40.125
 20
-111.64
 11
-37.465
 21
-111.64
  0
LINE
  8
0
 10
-37.465
 20
-111.64
 11
-37.465
 21
-124.36
  0
LINE
  8
0
 10
-37.465
 20
-124.36
 11
-40.125
 21
-124.36
  0
LINE
  8
0
 10
-40.125
 20
-124.36
 11
-40.125
 21
-137.64
  0
LINE
  8
0
 10
-40.125
 20
-137.64
 11
-37.465
 21
-137.64
  0
LINE
  8
0
 10
-37.465
 20
-137.64
 11
-37.465
 21
-142.465
  0
LINE
  8
0
 10
-37.465
 20
-142.465
 11
-32.64
 21
-142.465
  0
LINE
  8
0
 10
-32.64
 20
-142.465
 11
-32.64
 21
-145.125
  0
LINE
  8
0
 10
-32.64
 20
-145.125
 11
-19.36
 21
-145.125
  0
LINE
  8
0
 10
-19.36
 20
-145.125
 11
-19.36
 21
-142.465
  0
ENDSEC
  0
SECTION
  2
OBJECTS
  0
DICTIONARY
  0
ENDSEC
  0
EOF
