  0
SECTION
  2
BLOCKS
  0
ENDSEC
  0
SECTION
  2
ENTITIES
  0
LINE
  8
0
 10
259.64
 20
-156.715
 11
267.36
 21
-156.715
  0
LINE
  8
0
 10
267.36
 20
-156.715
 11
267.36
 21
-159.375
  0
LINE
  8
0
 10
267.36
 20
-159.375
 11
275.64
 21
-159.375
  0
LINE
  8
0
 10
275.64
 20
-159.375
 11
275.64
 21
-156.715
  0
LINE
  8
0
 10
275.64
 20
-156.715
 11
283.36
 21
-156.715
  0
LINE
  8
0
 10
283.36
 20
-156.715
 11
283.36
 21
-159.375
  0
LINE
  8
0
 10
283.36
 20
-159.375
 11
291.64
 21
-159.375
  0
LINE
  8
0
 10
291.64
 20
-159.375
 11
291.64
 21
-156.715
  0
LINE
  8
0
 10
291.64
 20
-156.715
 11
299.36
 21
-156.715
  0
LINE
  8
0
 10
299.36
 20
-156.715
 11
299.36
 21
-159.375
  0
LINE
  8
0
 10
299.36
 20
-159.375
 11
301.965
 21
-159.375
  0
LINE
  8
0
 10
301.965
 20
-159.375
 11
301.965
 21
-156.715
  0
LINE
  8
0
 10
301.965
 20
-156.715
 11
304.625
 21
-156.715
  0
LINE
  8
0
 10
304.625
 20
-156.715
 11
304.625
 21
-154.11
  0
LINE
  8
0
 10
304.625
 20
-154.11
 11
301.965
 21
-154.11
  0
LINE
  8
0
 10
301.965
 20
-154.11
 11
301.965
 21
-147.39
  0
LINE
  8
0
 10
301.965
 20
-147.39
 11
304.625
 21
-147.39
  0
LINE
  8
0
 10
304.625
 20
-147.39
 11
304.625
 21
-140.11
  0
LINE
  8
0
 10
304.625
 20
-140.11
 11
301.965
 21
-140.11
  0
LINE
  8
0
 10
301.965
 20
-140.11
 11
301.965
 21
-133.39
  0
LINE
  8
0
 10
301.965
 20
-133.39
 11
304.625
 21
-133.39
  0
LINE
  8
0
 10
304.625
 20
-133.39
 11
304.625
 21
-126.11
  0
LINE
  8
0
 10
304.625
 20
-126.11
 11
301.965
 21
-126.11
  0
LINE
  8
0
 10
301.965
 20
-126.11
 11
301.965
 21
-119.39
  0
LINE
  8
0
 10
301.965
 20
-119.39
 11
304.625
 21
-119.39
  0
LINE
  8
0
 10
304.625
 20
-119.39
 11
304.625
 21
-116.785
  0
LINE
  8
0
 10
304.625
 20
-116.785
 11
301.965
 21
-116.785
  0
LINE
  8
0
 10
301.965
 20
-116.785
 11
301.965
 21
-114.125
  0
LINE
  8
0
 10
301.965
 20
-114.125
 11
257.035
 21
-114.125
  0
LINE
  8
0
 10
257.035
 20
-114.125
 11
257.035
 21
-116.785
  0
LINE
  8
0
 10
257.035
 20
-116.785
 11
254.375
 21
-116.785
  0
LINE
  8
0
 10
254.375
 20
-116.785
 11
254.375
 21
-119.39
  0
LINE
  8
0
 10
254.375
 20
-119.39
 11
257.035
 21
-119.39
  0
LINE
  8
0
 10
257.035
 20
-119.39
 11
257.035
 21
-126.11
  0
LINE
  8
0
 10
257.035
 20
-126.11
 11
254.375
 21
-126.11
  0
LINE
  8
0
 10
254.375
 20
-126.11
 11
254.375
 21
-133.39
  0
LINE
  8
0
 10
254.375
 20
-133.39
 11
257.035
 21
-133.39
  0
LINE
  8
0
 10
257.035
 20
-133.39
 11
257.035
 21
-140.11
  0
LINE
  8
0
 10
257.035
 20
-140.11
 11
254.375
 21
-140.11
  0
LINE
  8
0
 10
254.375
 20
-140.11
 11
254.375
 21
-147.39
  0
LINE
  8
0
 10
254.375
 20
-147.39
 11
257.035
 21
-147.39
  0
LINE
  8
0
 10
257.035
 20
-147.39
 11
257.035
 21
-154.11
  0
LINE
  8
0
 10
257.035
 20
-154.11
 11
254.375
 21
-154.11
  0
LINE
  8
0
 10
254.375
 20
-154.11
 11
254.375
 21
-156.715
  0
LINE
  8
0
 10
254.375
 20
-156.715
 11
257.035
 21
-156.715
  0
LINE
  8
0
 10
257.035
 20
-156.715
 11
257.035
 21
-159.375
  0
LINE
  8
0
 10
257.035
 20
-159.375
 11
259.64
 21
-159.375
  0
LINE
  8
0
 10
259.64
 20
-159.375
 11
259.64
 21
-156.715
  0
LINE
  8
0
 10
37.89
 20
-156.715
 11
49.61
 21
-156.715
  0
LINE
  8
0
 10
49.61
 20
-156.715
 11
49.61
 21
-159.375
  0
LINE
  8
0
 10
49.61
 20
-159.375
 11
61.89
 21
-159.375
  0
LINE
  8
0
 10
61.89
 20
-159.375
 11
61.89
 21
-156.715
  0
LINE
  8
0
 10
61.89
 20
-156.715
 11
73.61
 21
-156.715
  0
LINE
  8
0
 10
73.61
 20
-156.715
 11
73.61
 21
-159.375
  0
LINE
  8
0
 10
73.61
 20
-159.375
 11
85.89
 21
-159.375
  0
LINE
  8
0
 10
85.89
 20
-159.375
 11
85.89
 21
-156.715
  0
LINE
  8
0
 10
85.89
 20
-156.715
 11
97.61
 21
-156.715
  0
LINE
  8
0
 10
97.61
 20
-156.715
 11
97.61
 21
-159.375
  0
LINE
  8
0
 10
97.61
 20
-159.375
 11
100.568
 21
-159.375
  0
LINE
  8
0
 10
100.568
 20
-159.375
 11
100.568
 21
-154.39
  0
LINE
  8
0
 10
100.568
 20
-154.39
 11
104.368
 21
-154.39
  0
LINE
  8
0
 10
104.368
 20
-154.39
 11
104.368
 21
-159.375
  0
LINE
  8
0
 10
104.368
 20
-159.375
 11
109.89
 21
-159.375
  0
LINE
  8
0
 10
109.89
 20
-159.375
 11
109.89
 21
-156.715
  0
LINE
  8
0
 10
109.89
 20
-156.715
 11
121.61
 21
-156.715
  0
LINE
  8
0
 10
121.61
 20
-156.715
 11
121.61
 21
-159.375
  0
LINE
  8
0
 10
121.61
 20
-159.375
 11
133.89
 21
-159.375
  0
LINE
  8
0
 10
133.89
 20
-159.375
 11
133.89
 21
-156.715
  0
LINE
  8
0
 10
133.89
 20
-156.715
 11
145.61
 21
-156.715
  0
LINE
  8
0
 10
145.61
 20
-156.715
 11
145.61
 21
-159.375
  0
LINE
  8
0
 10
145.61
 20
-159.375
 11
157.89
 21
-159.375
  0
LINE
  8
0
 10
157.89
 20
-159.375
 11
157.89
 21
-156.715
  0
LINE
  8
0
 10
157.89
 20
-156.715
 11
169.61
 21
-156.715
  0
LINE
  8
0
 10
169.61
 20
-156.715
 11
169.61
 21
-159.375
  0
LINE
  8
0
 10
169.61
 20
-159.375
 11
176.652
 21
-159.375
  0
LINE
  8
0
 10
176.652
 20
-159.375
 11
176.652
 21
-154.39
  0
LINE
  8
0
 10
176.652
 20
-154.39
 11
180.452
 21
-154.39
  0
LINE
  8
0
 10
180.452
 20
-154.39
 11
180.452
 21
-159.375
  0
LINE
  8
0
 10
180.452
 20
-159.375
 11
181.89
 21
-159.375
  0
LINE
  8
0
 10
181.89
 20
-159.375
 11
181.89
 21
-156.715
  0
LINE
  8
0
 10
181.89
 20
-156.715
 11
193.61
 21
-156.715
  0
LINE
  8
0
 10
193.61
 20
-156.715
 11
193.61
 21
-159.375
  0
LINE
  8
0
 10
193.61
 20
-159.375
 11
205.89
 21
-159.375
  0
LINE
  8
0
 10
205.89
 20
-159.375
 11
205.89
 21
-156.715
  0
LINE
  8
0
 10
205.89
 20
-156.715
 11
217.61
 21
-156.715
  0
LINE
  8
0
 10
217.61
 20
-156.715
 11
217.61
 21
-159.375
  0
LINE
  8
0
 10
217.61
 20
-159.375
 11
229.89
 21
-159.375
  0
LINE
  8
0
 10
229.89
 20
-159.375
 11
229.89
 21
-156.715
  0
LINE
  8
0
 10
229.89
 20
-156.715
 11
241.61
 21
-156.715
  0
LINE
  8
0
 10
241.61
 20
-156.715
 11
241.61
 21
-159.375
  0
LINE
  8
0
 10
241.61
 20
-159.375
 11
251.215
 21
-159.375
  0
LINE
  8
0
 10
251.215
 20
-159.375
 11
251.215
 21
-154.39
  0
LINE
  8
0
 10
251.215
 20
-154.39
 11
253.875
 21
-154.39
  0
LINE
  8
0
 10
253.875
 20
-154.39
 11
253.875
 21
-147.11
  0
LINE
  8
0
 10
253.875
 20
-147.11
 11
251.215
 21
-147.11
  0
LINE
  8
0
 10
251.215
 20
-147.11
 11
251.215
 21
-140.39
  0
LINE
  8
0
 10
251.215
 20
-140.39
 11
253.875
 21
-140.39
  0
LINE
  8
0
 10
253.875
 20
-140.39
 11
253.875
 21
-133.11
  0
LINE
  8
0
 10
253.875
 20
-133.11
 11
251.215
 21
-133.11
  0
LINE
  8
0
 10
251.215
 20
-133.11
 11
251.215
 21
-126.39
  0
LINE
  8
0
 10
251.215
 20
-126.39
 11
253.875
 21
-126.39
  0
LINE
  8
0
 10
253.875
 20
-126.39
 11
253.875
 21
-119.11
  0
LINE
  8
0
 10
253.875
 20
-119.11
 11
251.215
 21
-119.11
  0
LINE
  8
0
 10
251.215
 20
-119.11
 11
251.215
 21
-114.125
  0
LINE
  8
0
 10
251.215
 20
-114.125
 11
180.452
 21
-114.125
  0
LINE
  8
0
 10
180.452
 20
-114.125
 11
180.452
 21
-119.11
  0
LINE
  8
0
 10
180.452
 20
-119.11
 11
176.652
 21
-119.11
  0
LINE
  8
0
 10
176.652
 20
-119.11
 11
176.652
 21
-114.125
  0
LINE
  8
0
 10
176.652
 20
-114.125
 11
104.368
 21
-114.125
  0
LINE
  8
0
 10
104.368
 20
-114.125
 11
104.368
 21
-119.11
  0
LINE
  8
0
 10
104.368
 20
-119.11
 11
100.568
 21
-119.11
  0
LINE
  8
0
 10
100.568
 20
-119.11
 11
100.568
 21
-114.125
  0
LINE
  8
0
 10
100.568
 20
-114.125
 11
28.285
 21
-114.125
  0
LINE
  8
0
 10
28.285
 20
-114.125
 11
28.285
 21
-119.11
  0
LINE
  8
0
 10
28.285
 20
-119.11
 11
25.625
 21
-119.11
  0
LINE
  8
0
 10
25.625
 20
-119.11
 11
25.625
 21
-126.39
  0
LINE
  8
0
 10
25.625
 20
-126.39
 11
28.285
 21
-126.39
  0
LINE
  8
0
 10
28.285
 20
-126.39
 11
28.285
 21
-133.11
  0
LINE
  8
0
 10
28.285
 20
-133.11
 11
25.625
 21
-133.11
  0
LINE
  8
0
 10
25.625
 20
-133.11
 11
25.625
 21
-140.39
  0
LINE
  8
0
 10
25.625
 20
-140.39
 11
28.285
 21
-140.39
  0
LINE
  8
0
 10
28.285
 20
-140.39
 11
28.285
 21
-147.11
  0
LINE
  8
0
 10
28.285
 20
-147.11
 11
25.625
 21
-147.11
  0
LINE
  8
0
 10
25.625
 20
-147.11
 11
25.625
 21
-154.39
  0
LINE
  8
0
 10
25.625
 20
-154.39
 11
28.285
 21
-154.39
  0
LINE
  8
0
 10
28.285
 20
-154.39
 11
28.285
 21
-159.375
  0
LINE
  8
0
 10
28.285
 20
-159.375
 11
37.89
 21
-159.375
  0
LINE
  8
0
 10
37.89
 20
-159.375
 11
37.89
 21
-156.715
  0
LINE
  8
0
 10
100.568
 20
-133.11
 11
100.568
 21
-126.39
  0
LINE
  8
0
 10
100.568
 20
-126.39
 11
104.368
 21
-126.39
  0
LINE
  8
0
 10
104.368
 20
-126.39
 11
104.368
 21
-133.11
  0
LINE
  8
0
 10
104.368
 20
-133.11
 11
100.568
 21
-133.11
  0
LINE
  8
0
 10
176.652
 20
-133.11
 11
176.652
 21
-126.39
  0
LINE
  8
0
 10
176.652
 20
-126.39
 11
180.452
 21
-126.39
  0
LINE
  8
0
 10
180.452
 20
-126.39
 11
180.452
 21
-133.11
  0
LINE
  8
0
 10
180.452
 20
-133.11
 11
176.652
 21
-133.11
  0
LINE
  8
0
 10
176.652
 20
-147.11
 11
176.652
 21
-140.39
  0
LINE
  8
0
 10
176.652
 20
-140.39
 11
180.452
 21
-140.39
  0
LINE
  8
0
 10
180.452
 20
-140.39
 11
180.452
 21
-147.11
  0
LINE
  8
0
 10
180.452
 20
-147.11
 11
176.652
 21
-147.11
  0
LINE
  8
0
 10
100.568
 20
-147.11
 11
100.568
 21
-140.39
  0
LINE
  8
0
 10
100.568
 20
-140.39
 11
104.368
 21
-140.39
  0
LINE
  8
0
 10
104.368
 20
-140.39
 11
104.368
 21
-147.11
  0
LINE
  8
0
 10
104.368
 20
-147.11
 11
100.568
 21
-147.11
  0
LINE
  8
0
 10
-241.61
 20
-156.715
 11
-229.89
 21
-156.715
  0
LINE
  8
0
 10
-229.89
 20
-156.715
 11
-229.89
 21
-159.375
  0
LINE
  8
0
 10
-229.89
 20
-159.375
 11
-217.61
 21
-159.375
  0
LINE
  8
0
 10
-217.61
 20
-159.375
 11
-217.61
 21
-156.715
  0
LINE
  8
0
 10
-217.61
 20
-156.715
 11
-205.89
 21
-156.715
  0
LINE
  8
0
 10
-205.89
 20
-156.715
 11
-205.89
 21
-159.375
  0
LINE
  8
0
 10
-205.89
 20
-159.375
 11
-193.61
 21
-159.375
  0
LINE
  8
0
 10
-193.61
 20
-159.375
 11
-193.61
 21
-156.715
  0
LINE
  8
0
 10
-193.61
 20
-156.715
 11
-181.89
 21
-156.715
  0
LINE
  8
0
 10
-181.89
 20
-156.715
 11
-181.89
 21
-159.375
  0
LINE
  8
0
 10
-181.89
 20
-159.375
 11
-178.932
 21
-159.375
  0
LINE
  8
0
 10
-178.932
 20
-159.375
 11
-178.932
 21
-154.39
  0
LINE
  8
0
 10
-178.932
 20
-154.39
 11
-175.132
 21
-154.39
  0
LINE
  8
0
 10
-175.132
 20
-154.39
 11
-175.132
 21
-159.375
  0
LINE
  8
0
 10
-175.132
 20
-159.375
 11
-169.61
 21
-159.375
  0
LINE
  8
0
 10
-169.61
 20
-159.375
 11
-169.61
 21
-156.715
  0
LINE
  8
0
 10
-169.61
 20
-156.715
 11
-157.89
 21
-156.715
  0
LINE
  8
0
 10
-157.89
 20
-156.715
 11
-157.89
 21
-159.375
  0
LINE
  8
0
 10
-157.89
 20
-159.375
 11
-145.61
 21
-159.375
  0
LINE
  8
0
 10
-145.61
 20
-159.375
 11
-145.61
 21
-156.715
  0
LINE
  8
0
 10
-145.61
 20
-156.715
 11
-133.89
 21
-156.715
  0
LINE
  8
0
 10
-133.89
 20
-156.715
 11
-133.89
 21
-159.375
  0
LINE
  8
0
 10
-133.89
 20
-159.375
 11
-121.61
 21
-159.375
  0
LINE
  8
0
 10
-121.61
 20
-159.375
 11
-121.61
 21
-156.715
  0
LINE
  8
0
 10
-121.61
 20
-156.715
 11
-109.89
 21
-156.715
  0
LINE
  8
0
 10
-109.89
 20
-156.715
 11
-109.89
 21
-159.375
  0
LINE
  8
0
 10
-109.89
 20
-159.375
 11
-102.848
 21
-159.375
  0
LINE
  8
0
 10
-102.848
 20
-159.375
 11
-102.848
 21
-154.39
  0
LINE
  8
0
 10
-102.848
 20
-154.39
 11
-99.0483
 21
-154.39
  0
LINE
  8
0
 10
-99.0483
 20
-154.39
 11
-99.0483
 21
-159.375
  0
LINE
  8
0
 10
-99.0483
 20
-159.375
 11
-97.61
 21
-159.375
  0
LINE
  8
0
 10
-97.61
 20
-159.375
 11
-97.61
 21
-156.715
  0
LINE
  8
0
 10
-97.61
 20
-156.715
 11
-85.89
 21
-156.715
  0
LINE
  8
0
 10
-85.89
 20
-156.715
 11
-85.89
 21
-159.375
  0
LINE
  8
0
 10
-85.89
 20
-159.375
 11
-73.61
 21
-159.375
  0
LINE
  8
0
 10
-73.61
 20
-159.375
 11
-73.61
 21
-156.715
  0
LINE
  8
0
 10
-73.61
 20
-156.715
 11
-61.89
 21
-156.715
  0
LINE
  8
0
 10
-61.89
 20
-156.715
 11
-61.89
 21
-159.375
  0
LINE
  8
0
 10
-61.89
 20
-159.375
 11
-49.61
 21
-159.375
  0
LINE
  8
0
 10
-49.61
 20
-159.375
 11
-49.61
 21
-156.715
  0
LINE
  8
0
 10
-49.61
 20
-156.715
 11
-37.89
 21
-156.715
  0
LINE
  8
0
 10
-37.89
 20
-156.715
 11
-37.89
 21
-159.375
  0
LINE
  8
0
 10
-37.89
 20
-159.375
 11
-28.285
 21
-159.375
  0
LINE
  8
0
 10
-28.285
 20
-159.375
 11
-28.285
 21
-154.39
  0
LINE
  8
0
 10
-28.285
 20
-154.39
 11
-25.625
 21
-154.39
  0
LINE
  8
0
 10
-25.625
 20
-154.39
 11
-25.625
 21
-147.11
  0
LINE
  8
0
 10
-25.625
 20
-147.11
 11
-28.285
 21
-147.11
  0
LINE
  8
0
 10
-28.285
 20
-147.11
 11
-28.285
 21
-140.39
  0
LINE
  8
0
 10
-28.285
 20
-140.39
 11
-25.625
 21
-140.39
  0
LINE
  8
0
 10
-25.625
 20
-140.39
 11
-25.625
 21
-133.11
  0
LINE
  8
0
 10
-25.625
 20
-133.11
 11
-28.285
 21
-133.11
  0
LINE
  8
0
 10
-28.285
 20
-133.11
 11
-28.285
 21
-126.39
  0
LINE
  8
0
 10
-28.285
 20
-126.39
 11
-25.625
 21
-126.39
  0
LINE
  8
0
 10
-25.625
 20
-126.39
 11
-25.625
 21
-119.11
  0
LINE
  8
0
 10
-25.625
 20
-119.11
 11
-28.285
 21
-119.11
  0
LINE
  8
0
 10
-28.285
 20
-119.11
 11
-28.285
 21
-114.125
  0
LINE
  8
0
 10
-28.285
 20
-114.125
 11
-99.0483
 21
-114.125
  0
LINE
  8
0
 10
-99.0483
 20
-114.125
 11
-99.0483
 21
-119.11
  0
LINE
  8
0
 10
-99.0483
 20
-119.11
 11
-102.848
 21
-119.11
  0
LINE
  8
0
 10
-102.848
 20
-119.11
 11
-102.848
 21
-114.125
  0
LINE
  8
0
 10
-102.848
 20
-114.125
 11
-175.132
 21
-114.125
  0
LINE
  8
0
 10
-175.132
 20
-114.125
 11
-175.132
 21
-119.11
  0
LINE
  8
0
 10
-175.132
 20
-119.11
 11
-178.932
 21
-119.11
  0
LINE
  8
0
 10
-178.932
 20
-119.11
 11
-178.932
 21
-114.125
  0
LINE
  8
0
 10
-178.932
 20
-114.125
 11
-251.215
 21
-114.125
  0
LINE
  8
0
 10
-251.215
 20
-114.125
 11
-251.215
 21
-119.11
  0
LINE
  8
0
 10
-251.215
 20
-119.11
 11
-253.875
 21
-119.11
  0
LINE
  8
0
 10
-253.875
 20
-119.11
 11
-253.875
 21
-126.39
  0
LINE
  8
0
 10
-253.875
 20
-126.39
 11
-251.215
 21
-126.39
  0
LINE
  8
0
 10
-251.215
 20
-126.39
 11
-251.215
 21
-133.11
  0
LINE
  8
0
 10
-251.215
 20
-133.11
 11
-253.875
 21
-133.11
  0
LINE
  8
0
 10
-253.875
 20
-133.11
 11
-253.875
 21
-140.39
  0
LINE
  8
0
 10
-253.875
 20
-140.39
 11
-251.215
 21
-140.39
  0
LINE
  8
0
 10
-251.215
 20
-140.39
 11
-251.215
 21
-147.11
  0
LINE
  8
0
 10
-251.215
 20
-147.11
 11
-253.875
 21
-147.11
  0
LINE
  8
0
 10
-253.875
 20
-147.11
 11
-253.875
 21
-154.39
  0
LINE
  8
0
 10
-253.875
 20
-154.39
 11
-251.215
 21
-154.39
  0
LINE
  8
0
 10
-251.215
 20
-154.39
 11
-251.215
 21
-159.375
  0
LINE
  8
0
 10
-251.215
 20
-159.375
 11
-241.61
 21
-159.375
  0
LINE
  8
0
 10
-241.61
 20
-159.375
 11
-241.61
 21
-156.715
  0
LINE
  8
0
 10
-178.932
 20
-133.11
 11
-178.932
 21
-126.39
  0
LINE
  8
0
 10
-178.932
 20
-126.39
 11
-175.132
 21
-126.39
  0
LINE
  8
0
 10
-175.132
 20
-126.39
 11
-175.132
 21
-133.11
  0
LINE
  8
0
 10
-175.132
 20
-133.11
 11
-178.932
 21
-133.11
  0
LINE
  8
0
 10
-102.848
 20
-133.11
 11
-102.848
 21
-126.39
  0
LINE
  8
0
 10
-102.848
 20
-126.39
 11
-99.0483
 21
-126.39
  0
LINE
  8
0
 10
-99.0483
 20
-126.39
 11
-99.0483
 21
-133.11
  0
LINE
  8
0
 10
-99.0483
 20
-133.11
 11
-102.848
 21
-133.11
  0
LINE
  8
0
 10
-117.082
 20
-141.169
 11
-117.583
 21
-141.011
  0
LINE
  8
0
 10
-117.583
 20
-141.011
 11
-118.001
 21
-140.748
  0
LINE
  8
0
 10
-118.001
 20
-140.748
 11
-118.336
 21
-140.38
  0
LINE
  8
0
 10
-118.336
 20
-140.38
 11
-118.593
 21
-139.904
  0
LINE
  8
0
 10
-118.593
 20
-139.904
 11
-118.777
 21
-139.32
  0
LINE
  8
0
 10
-118.777
 20
-139.32
 11
-118.887
 21
-138.629
  0
LINE
  8
0
 10
-118.887
 20
-138.629
 11
-118.924
 21
-137.829
  0
LINE
  8
0
 10
-118.924
 20
-137.829
 11
-118.772
 21
-136.317
  0
LINE
  8
0
 10
-118.772
 20
-136.317
 11
-118.318
 21
-135.238
  0
LINE
  8
0
 10
-118.318
 20
-135.238
 11
-117.559
 21
-134.59
  0
LINE
  8
0
 10
-117.559
 20
-134.59
 11
-116.498
 21
-134.374
  0
LINE
  8
0
 10
-116.498
 20
-134.374
 11
-116.139
 21
-134.391
  0
LINE
  8
0
 10
-116.139
 20
-134.391
 11
-115.811
 21
-134.444
  0
LINE
  8
0
 10
-115.811
 20
-134.444
 11
-115.514
 21
-134.531
  0
LINE
  8
0
 10
-115.514
 20
-134.531
 11
-115.249
 21
-134.654
  0
LINE
  8
0
 10
-115.249
 20
-134.654
 11
-115.011
 21
-134.814
  0
LINE
  8
0
 10
-115.011
 20
-134.814
 11
-114.798
 21
-135.015
  0
LINE
  8
0
 10
-114.798
 20
-135.015
 11
-114.609
 21
-135.257
  0
LINE
  8
0
 10
-114.609
 20
-135.257
 11
-114.444
 21
-135.541
  0
LINE
  8
0
 10
-114.444
 20
-135.541
 11
-114.432
 21
-135.541
  0
LINE
  8
0
 10
-114.432
 20
-135.541
 11
-114.442
 21
-135.004
  0
LINE
  8
0
 10
-114.442
 20
-135.004
 11
-114.444
 21
-132.07
  0
LINE
  8
0
 10
-114.444
 20
-132.07
 11
-113.356
 21
-132.07
  0
LINE
  8
0
 10
-113.356
 20
-132.07
 11
-113.356
 21
-139.738
  0
LINE
  8
0
 10
-113.356
 20
-139.738
 11
-113.349
 21
-140.404
  0
LINE
  8
0
 10
-113.349
 20
-140.404
 11
-113.332
 21
-140.909
  0
LINE
  8
0
 10
-113.332
 20
-140.909
 11
-113.32
 21
-141.094
  0
LINE
  8
0
 10
-113.32
 20
-141.094
 11
-114.359
 21
-141.094
  0
LINE
  8
0
 10
-114.359
 20
-141.094
 11
-114.365
 21
-141.061
  0
LINE
  8
0
 10
-114.365
 20
-141.061
 11
-114.381
 21
-140.924
  0
LINE
  8
0
 10
-114.381
 20
-140.924
 11
-114.399
 21
-140.67
  0
LINE
  8
0
 10
-114.399
 20
-140.67
 11
-114.417
 21
-140.289
  0
LINE
  8
0
 10
-114.417
 20
-140.289
 11
-114.42
 21
-140.055
  0
LINE
  8
0
 10
-114.42
 20
-140.055
 11
-114.444
 21
-140.055
  0
LINE
  8
0
 10
-114.444
 20
-140.055
 11
-114.609
 21
-140.346
  0
LINE
  8
0
 10
-114.609
 20
-140.346
 11
-114.799
 21
-140.592
  0
LINE
  8
0
 10
-114.799
 20
-140.592
 11
-115.013
 21
-140.794
  0
LINE
  8
0
 10
-115.013
 20
-140.794
 11
-115.252
 21
-140.952
  0
LINE
  8
0
 10
-115.252
 20
-140.952
 11
-115.518
 21
-141.07
  0
LINE
  8
0
 10
-115.518
 20
-141.07
 11
-115.815
 21
-141.154
  0
LINE
  8
0
 10
-115.815
 20
-141.154
 11
-116.141
 21
-141.205
  0
LINE
  8
0
 10
-116.141
 20
-141.205
 11
-116.498
 21
-141.222
  0
LINE
  8
0
 10
-116.498
 20
-141.222
 11
-117.082
 21
-141.169
  0
LINE
  8
0
 10
-116.008
 20
-140.381
 11
-115.81
 21
-140.355
  0
LINE
  8
0
 10
-115.81
 20
-140.355
 11
-115.625
 21
-140.311
  0
LINE
  8
0
 10
-115.625
 20
-140.311
 11
-115.453
 21
-140.25
  0
LINE
  8
0
 10
-115.453
 20
-140.25
 11
-115.294
 21
-140.168
  0
LINE
  8
0
 10
-115.294
 20
-140.168
 11
-115.149
 21
-140.065
  0
LINE
  8
0
 10
-115.149
 20
-140.065
 11
-115.017
 21
-139.941
  0
LINE
  8
0
 10
-115.017
 20
-139.941
 11
-114.899
 21
-139.795
  0
LINE
  8
0
 10
-114.899
 20
-139.795
 11
-114.794
 21
-139.626
  0
LINE
  8
0
 10
-114.794
 20
-139.626
 11
-114.703
 21
-139.433
  0
LINE
  8
0
 10
-114.703
 20
-139.433
 11
-114.625
 21
-139.216
  0
LINE
  8
0
 10
-114.625
 20
-139.216
 11
-114.56
 21
-138.975
  0
LINE
  8
0
 10
-114.56
 20
-138.975
 11
-114.509
 21
-138.708
  0
LINE
  8
0
 10
-114.509
 20
-138.708
 11
-114.473
 21
-138.412
  0
LINE
  8
0
 10
-114.473
 20
-138.412
 11
-114.451
 21
-138.089
  0
LINE
  8
0
 10
-114.451
 20
-138.089
 11
-114.444
 21
-137.737
  0
LINE
  8
0
 10
-114.444
 20
-137.737
 11
-114.451
 21
-137.4
  0
LINE
  8
0
 10
-114.451
 20
-137.4
 11
-114.473
 21
-137.09
  0
LINE
  8
0
 10
-114.473
 20
-137.09
 11
-114.509
 21
-136.807
  0
LINE
  8
0
 10
-114.509
 20
-136.807
 11
-114.56
 21
-136.551
  0
LINE
  8
0
 10
-114.56
 20
-136.551
 11
-114.625
 21
-136.32
  0
LINE
  8
0
 10
-114.625
 20
-136.32
 11
-114.704
 21
-136.112
  0
LINE
  8
0
 10
-114.704
 20
-136.112
 11
-114.796
 21
-135.928
  0
LINE
  8
0
 10
-114.796
 20
-135.928
 11
-114.902
 21
-135.767
  0
LINE
  8
0
 10
-114.902
 20
-135.767
 11
-115.021
 21
-135.628
  0
LINE
  8
0
 10
-115.021
 20
-135.628
 11
-115.152
 21
-135.51
  0
LINE
  8
0
 10
-115.152
 20
-135.51
 11
-115.296
 21
-135.413
  0
LINE
  8
0
 10
-115.296
 20
-135.413
 11
-115.453
 21
-135.337
  0
LINE
  8
0
 10
-115.453
 20
-135.337
 11
-115.622
 21
-135.279
  0
LINE
  8
0
 10
-115.622
 20
-135.279
 11
-115.804
 21
-135.239
  0
LINE
  8
0
 10
-115.804
 20
-135.239
 11
-115.999
 21
-135.214
  0
LINE
  8
0
 10
-115.999
 20
-135.214
 11
-116.206
 21
-135.206
  0
LINE
  8
0
 10
-116.206
 20
-135.206
 11
-116.4
 21
-135.215
  0
LINE
  8
0
 10
-116.4
 20
-135.215
 11
-116.581
 21
-135.241
  0
LINE
  8
0
 10
-116.581
 20
-135.241
 11
-116.748
 21
-135.285
  0
LINE
  8
0
 10
-116.748
 20
-135.285
 11
-116.901
 21
-135.347
  0
LINE
  8
0
 10
-116.901
 20
-135.347
 11
-117.041
 21
-135.427
  0
LINE
  8
0
 10
-117.041
 20
-135.427
 11
-117.169
 21
-135.53
  0
LINE
  8
0
 10
-117.169
 20
-135.53
 11
-117.284
 21
-135.653
  0
LINE
  8
0
 10
-117.284
 20
-135.653
 11
-117.388
 21
-135.798
  0
LINE
  8
0
 10
-117.388
 20
-135.798
 11
-117.479
 21
-135.965
  0
LINE
  8
0
 10
-117.479
 20
-135.965
 11
-117.558
 21
-136.155
  0
LINE
  8
0
 10
-117.558
 20
-136.155
 11
-117.624
 21
-136.369
  0
LINE
  8
0
 10
-117.624
 20
-136.369
 11
-117.678
 21
-136.606
  0
LINE
  8
0
 10
-117.678
 20
-136.606
 11
-117.719
 21
-136.867
  0
LINE
  8
0
 10
-117.719
 20
-136.867
 11
-117.749
 21
-137.155
  0
LINE
  8
0
 10
-117.749
 20
-137.155
 11
-117.766
 21
-137.469
  0
LINE
  8
0
 10
-117.766
 20
-137.469
 11
-117.772
 21
-137.81
  0
LINE
  8
0
 10
-117.772
 20
-137.81
 11
-117.767
 21
-138.139
  0
LINE
  8
0
 10
-117.767
 20
-138.139
 11
-117.751
 21
-138.444
  0
LINE
  8
0
 10
-117.751
 20
-138.444
 11
-117.724
 21
-138.725
  0
LINE
  8
0
 10
-117.724
 20
-138.725
 11
-117.687
 21
-138.981
  0
LINE
  8
0
 10
-117.687
 20
-138.981
 11
-117.638
 21
-139.214
  0
LINE
  8
0
 10
-117.638
 20
-139.214
 11
-117.575
 21
-139.425
  0
LINE
  8
0
 10
-117.575
 20
-139.425
 11
-117.5
 21
-139.615
  0
LINE
  8
0
 10
-117.5
 20
-139.615
 11
-117.412
 21
-139.783
  0
LINE
  8
0
 10
-117.412
 20
-139.783
 11
-117.311
 21
-139.929
  0
LINE
  8
0
 10
-117.311
 20
-139.929
 11
-117.197
 21
-140.055
  0
LINE
  8
0
 10
-117.197
 20
-140.055
 11
-117.071
 21
-140.16
  0
LINE
  8
0
 10
-117.071
 20
-140.16
 11
-116.931
 21
-140.244
  0
LINE
  8
0
 10
-116.931
 20
-140.244
 11
-116.777
 21
-140.308
  0
LINE
  8
0
 10
-116.777
 20
-140.308
 11
-116.606
 21
-140.353
  0
LINE
  8
0
 10
-116.606
 20
-140.353
 11
-116.42
 21
-140.381
  0
LINE
  8
0
 10
-116.42
 20
-140.381
 11
-116.218
 21
-140.39
  0
LINE
  8
0
 10
-116.218
 20
-140.39
 11
-116.008
 21
-140.381
  0
LINE
  8
0
 10
-147.044
 20
-141.094
 11
-147.044
 21
-132.07
  0
LINE
  8
0
 10
-147.044
 20
-132.07
 11
-145.956
 21
-132.07
  0
LINE
  8
0
 10
-145.956
 20
-132.07
 11
-145.956
 21
-141.094
  0
LINE
  8
0
 10
-145.956
 20
-141.094
 11
-147.044
 21
-141.094
  0
LINE
  8
0
 10
-144.336
 20
-141.094
 11
-144.336
 21
-132.07
  0
LINE
  8
0
 10
-144.336
 20
-132.07
 11
-143.248
 21
-132.07
  0
LINE
  8
0
 10
-143.248
 20
-132.07
 11
-143.248
 21
-141.094
  0
LINE
  8
0
 10
-143.248
 20
-141.094
 11
-144.336
 21
-141.094
  0
LINE
  8
0
 10
-134.738
 20
-141.201
 11
-135.212
 21
-141.139
  0
LINE
  8
0
 10
-135.212
 20
-141.139
 11
-135.654
 21
-141.035
  0
LINE
  8
0
 10
-135.654
 20
-141.035
 11
-136.064
 21
-140.89
  0
LINE
  8
0
 10
-136.064
 20
-140.89
 11
-136.441
 21
-140.707
  0
LINE
  8
0
 10
-136.441
 20
-140.707
 11
-136.786
 21
-140.492
  0
LINE
  8
0
 10
-136.786
 20
-140.492
 11
-137.099
 21
-140.244
  0
LINE
  8
0
 10
-137.099
 20
-140.244
 11
-137.38
 21
-139.964
  0
LINE
  8
0
 10
-137.38
 20
-139.964
 11
-137.628
 21
-139.653
  0
LINE
  8
0
 10
-137.628
 20
-139.653
 11
-137.842
 21
-139.314
  0
LINE
  8
0
 10
-137.842
 20
-139.314
 11
-138.024
 21
-138.948
  0
LINE
  8
0
 10
-138.024
 20
-138.948
 11
-138.172
 21
-138.554
  0
LINE
  8
0
 10
-138.172
 20
-138.554
 11
-138.287
 21
-138.136
  0
LINE
  8
0
 10
-138.287
 20
-138.136
 11
-138.369
 21
-137.699
  0
LINE
  8
0
 10
-138.369
 20
-137.699
 11
-138.418
 21
-137.244
  0
LINE
  8
0
 10
-138.418
 20
-137.244
 11
-138.435
 21
-136.769
  0
LINE
  8
0
 10
-138.435
 20
-136.769
 11
-138.417
 21
-136.278
  0
LINE
  8
0
 10
-138.417
 20
-136.278
 11
-138.365
 21
-135.812
  0
LINE
  8
0
 10
-138.365
 20
-135.812
 11
-138.278
 21
-135.371
  0
LINE
  8
0
 10
-138.278
 20
-135.371
 11
-138.157
 21
-134.954
  0
LINE
  8
0
 10
-138.157
 20
-134.954
 11
-138.001
 21
-134.564
  0
LINE
  8
0
 10
-138.001
 20
-134.564
 11
-137.814
 21
-134.204
  0
LINE
  8
0
 10
-137.814
 20
-134.204
 11
-137.594
 21
-133.874
  0
LINE
  8
0
 10
-137.594
 20
-133.874
 11
-137.343
 21
-133.575
  0
LINE
  8
0
 10
-137.343
 20
-133.575
 11
-137.059
 21
-133.306
  0
LINE
  8
0
 10
-137.059
 20
-133.306
 11
-136.745
 21
-133.071
  0
LINE
  8
0
 10
-136.745
 20
-133.071
 11
-136.4
 21
-132.868
  0
LINE
  8
0
 10
-136.4
 20
-132.868
 11
-136.024
 21
-132.698
  0
LINE
  8
0
 10
-136.024
 20
-132.698
 11
-135.618
 21
-132.563
  0
LINE
  8
0
 10
-135.618
 20
-132.563
 11
-135.185
 21
-132.467
  0
LINE
  8
0
 10
-135.185
 20
-132.467
 11
-134.725
 21
-132.409
  0
LINE
  8
0
 10
-134.725
 20
-132.409
 11
-134.237
 21
-132.39
  0
LINE
  8
0
 10
-134.237
 20
-132.39
 11
-133.577
 21
-132.423
  0
LINE
  8
0
 10
-133.577
 20
-132.423
 11
-132.973
 21
-132.524
  0
LINE
  8
0
 10
-132.973
 20
-132.524
 11
-132.426
 21
-132.692
  0
LINE
  8
0
 10
-132.426
 20
-132.692
 11
-131.936
 21
-132.927
  0
LINE
  8
0
 10
-131.936
 20
-132.927
 11
-131.504
 21
-133.228
  0
LINE
  8
0
 10
-131.504
 20
-133.228
 11
-131.134
 21
-133.594
  0
LINE
  8
0
 10
-131.134
 20
-133.594
 11
-130.825
 21
-134.024
  0
LINE
  8
0
 10
-130.825
 20
-134.024
 11
-130.578
 21
-134.52
  0
LINE
  8
0
 10
-130.578
 20
-134.52
 11
-131.681
 21
-134.886
  0
LINE
  8
0
 10
-131.681
 20
-134.886
 11
-131.747
 21
-134.736
  0
LINE
  8
0
 10
-131.747
 20
-134.736
 11
-131.824
 21
-134.589
  0
LINE
  8
0
 10
-131.824
 20
-134.589
 11
-131.912
 21
-134.446
  0
LINE
  8
0
 10
-131.912
 20
-134.446
 11
-132.01
 21
-134.306
  0
LINE
  8
0
 10
-132.01
 20
-134.306
 11
-132.12
 21
-134.172
  0
LINE
  8
0
 10
-132.12
 20
-134.172
 11
-132.243
 21
-134.046
  0
LINE
  8
0
 10
-132.243
 20
-134.046
 11
-132.379
 21
-133.928
  0
LINE
  8
0
 10
-132.379
 20
-133.928
 11
-132.528
 21
-133.818
  0
LINE
  8
0
 10
-132.528
 20
-133.818
 11
-132.689
 21
-133.717
  0
LINE
  8
0
 10
-132.689
 20
-133.717
 11
-132.865
 21
-133.626
  0
LINE
  8
0
 10
-132.865
 20
-133.626
 11
-133.053
 21
-133.547
  0
LINE
  8
0
 10
-133.053
 20
-133.547
 11
-133.256
 21
-133.478
  0
LINE
  8
0
 10
-133.256
 20
-133.478
 11
-133.472
 21
-133.422
  0
LINE
  8
0
 10
-133.472
 20
-133.422
 11
-133.702
 21
-133.382
  0
LINE
  8
0
 10
-133.702
 20
-133.382
 11
-133.948
 21
-133.358
  0
LINE
  8
0
 10
-133.948
 20
-133.358
 11
-134.209
 21
-133.35
  0
LINE
  8
0
 10
-134.209
 20
-133.35
 11
-134.564
 21
-133.365
  0
LINE
  8
0
 10
-134.564
 20
-133.365
 11
-134.898
 21
-133.411
  0
LINE
  8
0
 10
-134.898
 20
-133.411
 11
-135.211
 21
-133.486
  0
LINE
  8
0
 10
-135.211
 20
-133.486
 11
-135.504
 21
-133.593
  0
LINE
  8
0
 10
-135.504
 20
-133.593
 11
-135.774
 21
-133.727
  0
LINE
  8
0
 10
-135.774
 20
-133.727
 11
-136.021
 21
-133.888
  0
LINE
  8
0
 10
-136.021
 20
-133.888
 11
-136.246
 21
-134.074
  0
LINE
  8
0
 10
-136.246
 20
-134.074
 11
-136.448
 21
-134.286
  0
LINE
  8
0
 10
-136.448
 20
-134.286
 11
-136.627
 21
-134.522
  0
LINE
  8
0
 10
-136.627
 20
-134.522
 11
-136.782
 21
-134.782
  0
LINE
  8
0
 10
-136.782
 20
-134.782
 11
-136.915
 21
-135.064
  0
LINE
  8
0
 10
-136.915
 20
-135.064
 11
-137.024
 21
-135.369
  0
LINE
  8
0
 10
-137.024
 20
-135.369
 11
-137.109
 21
-135.694
  0
LINE
  8
0
 10
-137.109
 20
-135.694
 11
-137.17
 21
-136.036
  0
LINE
  8
0
 10
-137.17
 20
-136.036
 11
-137.207
 21
-136.396
  0
LINE
  8
0
 10
-137.207
 20
-136.396
 11
-137.219
 21
-136.773
  0
LINE
  8
0
 10
-137.219
 20
-136.773
 11
-137.206
 21
-137.151
  0
LINE
  8
0
 10
-137.206
 20
-137.151
 11
-137.166
 21
-137.512
  0
LINE
  8
0
 10
-137.166
 20
-137.512
 11
-137.101
 21
-137.857
  0
LINE
  8
0
 10
-137.101
 20
-137.857
 11
-137.009
 21
-138.186
  0
LINE
  8
0
 10
-137.009
 20
-138.186
 11
-136.892
 21
-138.495
  0
LINE
  8
0
 10
-136.892
 20
-138.495
 11
-136.753
 21
-138.782
  0
LINE
  8
0
 10
-136.753
 20
-138.782
 11
-136.591
 21
-139.047
  0
LINE
  8
0
 10
-136.591
 20
-139.047
 11
-136.406
 21
-139.289
  0
LINE
  8
0
 10
-136.406
 20
-139.289
 11
-136.198
 21
-139.507
  0
LINE
  8
0
 10
-136.198
 20
-139.507
 11
-135.968
 21
-139.699
  0
LINE
  8
0
 10
-135.968
 20
-139.699
 11
-135.717
 21
-139.866
  0
LINE
  8
0
 10
-135.717
 20
-139.866
 11
-135.443
 21
-140.007
  0
LINE
  8
0
 10
-135.443
 20
-140.007
 11
-135.149
 21
-140.118
  0
LINE
  8
0
 10
-135.149
 20
-140.118
 11
-134.837
 21
-140.198
  0
LINE
  8
0
 10
-134.837
 20
-140.198
 11
-134.508
 21
-140.246
  0
LINE
  8
0
 10
-134.508
 20
-140.246
 11
-134.161
 21
-140.262
  0
LINE
  8
0
 10
-134.161
 20
-140.262
 11
-133.916
 21
-140.254
  0
LINE
  8
0
 10
-133.916
 20
-140.254
 11
-133.683
 21
-140.229
  0
LINE
  8
0
 10
-133.683
 20
-140.229
 11
-133.461
 21
-140.188
  0
LINE
  8
0
 10
-133.461
 20
-140.188
 11
-133.25
 21
-140.131
  0
LINE
  8
0
 10
-133.25
 20
-140.131
 11
-133.049
 21
-140.058
  0
LINE
  8
0
 10
-133.049
 20
-140.058
 11
-132.858
 21
-139.972
  0
LINE
  8
0
 10
-132.858
 20
-139.972
 11
-132.678
 21
-139.873
  0
LINE
  8
0
 10
-132.678
 20
-139.873
 11
-132.507
 21
-139.761
  0
LINE
  8
0
 10
-132.507
 20
-139.761
 11
-132.345
 21
-139.636
  0
LINE
  8
0
 10
-132.345
 20
-139.636
 11
-132.191
 21
-139.5
  0
LINE
  8
0
 10
-132.191
 20
-139.5
 11
-132.047
 21
-139.353
  0
LINE
  8
0
 10
-132.047
 20
-139.353
 11
-131.912
 21
-139.195
  0
LINE
  8
0
 10
-131.912
 20
-139.195
 11
-131.785
 21
-139.027
  0
LINE
  8
0
 10
-131.785
 20
-139.027
 11
-131.665
 21
-138.85
  0
LINE
  8
0
 10
-131.665
 20
-138.85
 11
-131.553
 21
-138.664
  0
LINE
  8
0
 10
-131.553
 20
-138.664
 11
-131.449
 21
-138.47
  0
LINE
  8
0
 10
-131.449
 20
-138.47
 11
-130.499
 21
-138.947
  0
LINE
  8
0
 10
-130.499
 20
-138.947
 11
-130.622
 21
-139.184
  0
LINE
  8
0
 10
-130.622
 20
-139.184
 11
-130.759
 21
-139.413
  0
LINE
  8
0
 10
-130.759
 20
-139.413
 11
-130.91
 21
-139.634
  0
LINE
  8
0
 10
-130.91
 20
-139.634
 11
-131.075
 21
-139.846
  0
LINE
  8
0
 10
-131.075
 20
-139.846
 11
-131.253
 21
-140.047
  0
LINE
  8
0
 10
-131.253
 20
-140.047
 11
-131.447
 21
-140.234
  0
LINE
  8
0
 10
-131.447
 20
-140.234
 11
-131.655
 21
-140.408
  0
LINE
  8
0
 10
-131.655
 20
-140.408
 11
-131.879
 21
-140.568
  0
LINE
  8
0
 10
-131.879
 20
-140.568
 11
-132.117
 21
-140.712
  0
LINE
  8
0
 10
-132.117
 20
-140.712
 11
-132.371
 21
-140.84
  0
LINE
  8
0
 10
-132.371
 20
-140.84
 11
-132.64
 21
-140.952
  0
LINE
  8
0
 10
-132.64
 20
-140.952
 11
-132.925
 21
-141.048
  0
LINE
  8
0
 10
-132.925
 20
-141.048
 11
-133.225
 21
-141.124
  0
LINE
  8
0
 10
-133.225
 20
-141.124
 11
-133.543
 21
-141.178
  0
LINE
  8
0
 10
-133.543
 20
-141.178
 11
-133.878
 21
-141.211
  0
LINE
  8
0
 10
-133.878
 20
-141.211
 11
-134.231
 21
-141.222
  0
LINE
  8
0
 10
-134.231
 20
-141.222
 11
-134.738
 21
-141.201
  0
LINE
  8
0
 10
-169.485
 20
-141.187
 11
-170.153
 21
-141.082
  0
LINE
  8
0
 10
-170.153
 20
-141.082
 11
-170.732
 21
-140.907
  0
LINE
  8
0
 10
-170.732
 20
-140.907
 11
-171.223
 21
-140.662
  0
LINE
  8
0
 10
-171.223
 20
-140.662
 11
-171.629
 21
-140.35
  0
LINE
  8
0
 10
-171.629
 20
-140.35
 11
-171.954
 21
-139.976
  0
LINE
  8
0
 10
-171.954
 20
-139.976
 11
-172.198
 21
-139.539
  0
LINE
  8
0
 10
-172.198
 20
-139.539
 11
-172.36
 21
-139.04
  0
LINE
  8
0
 10
-172.36
 20
-139.04
 11
-171.208
 21
-138.815
  0
LINE
  8
0
 10
-171.208
 20
-138.815
 11
-171.16
 21
-138.98
  0
LINE
  8
0
 10
-171.16
 20
-138.98
 11
-171.101
 21
-139.137
  0
LINE
  8
0
 10
-171.101
 20
-139.137
 11
-171.03
 21
-139.287
  0
LINE
  8
0
 10
-171.03
 20
-139.287
 11
-170.948
 21
-139.43
  0
LINE
  8
0
 10
-170.948
 20
-139.43
 11
-170.853
 21
-139.563
  0
LINE
  8
0
 10
-170.853
 20
-139.563
 11
-170.742
 21
-139.687
  0
LINE
  8
0
 10
-170.742
 20
-139.687
 11
-170.616
 21
-139.801
  0
LINE
  8
0
 10
-170.616
 20
-139.801
 11
-170.474
 21
-139.906
  0
LINE
  8
0
 10
-170.474
 20
-139.906
 11
-170.316
 21
-140
  0
LINE
  8
0
 10
-170.316
 20
-140
 11
-170.14
 21
-140.083
  0
LINE
  8
0
 10
-170.14
 20
-140.083
 11
-169.946
 21
-140.155
  0
LINE
  8
0
 10
-169.946
 20
-140.155
 11
-169.734
 21
-140.216
  0
LINE
  8
0
 10
-169.734
 20
-140.216
 11
-169.503
 21
-140.264
  0
LINE
  8
0
 10
-169.503
 20
-140.264
 11
-169.249
 21
-140.298
  0
LINE
  8
0
 10
-169.249
 20
-140.298
 11
-168.974
 21
-140.319
  0
LINE
  8
0
 10
-168.974
 20
-140.319
 11
-168.676
 21
-140.326
  0
LINE
  8
0
 10
-168.676
 20
-140.326
 11
-168.425
 21
-140.32
  0
LINE
  8
0
 10
-168.425
 20
-140.32
 11
-168.184
 21
-140.303
  0
LINE
  8
0
 10
-168.184
 20
-140.303
 11
-167.954
 21
-140.276
  0
LINE
  8
0
 10
-167.954
 20
-140.276
 11
-167.734
 21
-140.237
  0
LINE
  8
0
 10
-167.734
 20
-140.237
 11
-167.527
 21
-140.186
  0
LINE
  8
0
 10
-167.527
 20
-140.186
 11
-167.335
 21
-140.124
  0
LINE
  8
0
 10
-167.335
 20
-140.124
 11
-167.159
 21
-140.05
  0
LINE
  8
0
 10
-167.159
 20
-140.05
 11
-166.997
 21
-139.964
  0
LINE
  8
0
 10
-166.997
 20
-139.964
 11
-166.851
 21
-139.865
  0
LINE
  8
0
 10
-166.851
 20
-139.865
 11
-166.722
 21
-139.753
  0
LINE
  8
0
 10
-166.722
 20
-139.753
 11
-166.611
 21
-139.628
  0
LINE
  8
0
 10
-166.611
 20
-139.628
 11
-166.516
 21
-139.489
  0
LINE
  8
0
 10
-166.516
 20
-139.489
 11
-166.441
 21
-139.336
  0
LINE
  8
0
 10
-166.441
 20
-139.336
 11
-166.387
 21
-139.168
  0
LINE
  8
0
 10
-166.387
 20
-139.168
 11
-166.355
 21
-138.987
  0
LINE
  8
0
 10
-166.355
 20
-138.987
 11
-166.344
 21
-138.792
  0
LINE
  8
0
 10
-166.344
 20
-138.792
 11
-166.356
 21
-138.592
  0
LINE
  8
0
 10
-166.356
 20
-138.592
 11
-166.392
 21
-138.411
  0
LINE
  8
0
 10
-166.392
 20
-138.411
 11
-166.452
 21
-138.251
  0
LINE
  8
0
 10
-166.452
 20
-138.251
 11
-166.536
 21
-138.11
  0
LINE
  8
0
 10
-166.536
 20
-138.11
 11
-166.642
 21
-137.984
  0
LINE
  8
0
 10
-166.642
 20
-137.984
 11
-166.767
 21
-137.871
  0
LINE
  8
0
 10
-166.767
 20
-137.871
 11
-166.912
 21
-137.768
  0
LINE
  8
0
 10
-166.912
 20
-137.768
 11
-167.076
 21
-137.678
  0
LINE
  8
0
 10
-167.076
 20
-137.678
 11
-167.258
 21
-137.596
  0
LINE
  8
0
 10
-167.258
 20
-137.596
 11
-167.457
 21
-137.52
  0
LINE
  8
0
 10
-167.457
 20
-137.52
 11
-167.672
 21
-137.452
  0
LINE
  8
0
 10
-167.672
 20
-137.452
 11
-167.905
 21
-137.391
  0
LINE
  8
0
 10
-167.905
 20
-137.391
 11
-168.412
 21
-137.27
  0
LINE
  8
0
 10
-168.412
 20
-137.27
 11
-169.332
 21
-137.058
  0
LINE
  8
0
 10
-169.332
 20
-137.058
 11
-169.694
 21
-136.968
  0
LINE
  8
0
 10
-169.694
 20
-136.968
 11
-169.873
 21
-136.918
  0
LINE
  8
0
 10
-169.873
 20
-136.918
 11
-170.049
 21
-136.864
  0
LINE
  8
0
 10
-170.049
 20
-136.864
 11
-170.22
 21
-136.805
  0
LINE
  8
0
 10
-170.22
 20
-136.805
 11
-170.388
 21
-136.742
  0
LINE
  8
0
 10
-170.388
 20
-136.742
 11
-170.552
 21
-136.673
  0
LINE
  8
0
 10
-170.552
 20
-136.673
 11
-170.71
 21
-136.6
  0
LINE
  8
0
 10
-170.71
 20
-136.6
 11
-170.864
 21
-136.52
  0
LINE
  8
0
 10
-170.864
 20
-136.52
 11
-171.013
 21
-136.435
  0
LINE
  8
0
 10
-171.013
 20
-136.435
 11
-171.155
 21
-136.342
  0
LINE
  8
0
 10
-171.155
 20
-136.342
 11
-171.286
 21
-136.241
  0
LINE
  8
0
 10
-171.286
 20
-136.241
 11
-171.408
 21
-136.13
  0
LINE
  8
0
 10
-171.408
 20
-136.13
 11
-171.519
 21
-136.012
  0
LINE
  8
0
 10
-171.519
 20
-136.012
 11
-171.62
 21
-135.883
  0
LINE
  8
0
 10
-171.62
 20
-135.883
 11
-171.709
 21
-135.745
  0
LINE
  8
0
 10
-171.709
 20
-135.745
 11
-171.787
 21
-135.597
  0
LINE
  8
0
 10
-171.787
 20
-135.597
 11
-171.854
 21
-135.439
  0
LINE
  8
0
 10
-171.854
 20
-135.439
 11
-171.907
 21
-135.269
  0
LINE
  8
0
 10
-171.907
 20
-135.269
 11
-171.946
 21
-135.088
  0
LINE
  8
0
 10
-171.946
 20
-135.088
 11
-171.968
 21
-134.893
  0
LINE
  8
0
 10
-171.968
 20
-134.893
 11
-171.976
 21
-134.686
  0
LINE
  8
0
 10
-171.976
 20
-134.686
 11
-171.961
 21
-134.392
  0
LINE
  8
0
 10
-171.961
 20
-134.392
 11
-171.914
 21
-134.12
  0
LINE
  8
0
 10
-171.914
 20
-134.12
 11
-171.837
 21
-133.87
  0
LINE
  8
0
 10
-171.837
 20
-133.87
 11
-171.729
 21
-133.642
  0
LINE
  8
0
 10
-171.729
 20
-133.642
 11
-171.594
 21
-133.434
  0
LINE
  8
0
 10
-171.594
 20
-133.434
 11
-171.434
 21
-133.245
  0
LINE
  8
0
 10
-171.434
 20
-133.245
 11
-171.251
 21
-133.076
  0
LINE
  8
0
 10
-171.251
 20
-133.076
 11
-171.043
 21
-132.926
  0
LINE
  8
0
 10
-171.043
 20
-132.926
 11
-170.813
 21
-132.795
  0
LINE
  8
0
 10
-170.813
 20
-132.795
 11
-170.564
 21
-132.684
  0
LINE
  8
0
 10
-170.564
 20
-132.684
 11
-170.294
 21
-132.591
  0
LINE
  8
0
 10
-170.294
 20
-132.591
 11
-170.005
 21
-132.518
  0
LINE
  8
0
 10
-170.005
 20
-132.518
 11
-169.7
 21
-132.462
  0
LINE
  8
0
 10
-169.7
 20
-132.462
 11
-169.382
 21
-132.422
  0
LINE
  8
0
 10
-169.382
 20
-132.422
 11
-169.053
 21
-132.398
  0
LINE
  8
0
 10
-169.053
 20
-132.398
 11
-168.711
 21
-132.39
  0
LINE
  8
0
 10
-168.711
 20
-132.39
 11
-168.326
 21
-132.398
  0
LINE
  8
0
 10
-168.326
 20
-132.398
 11
-167.969
 21
-132.421
  0
LINE
  8
0
 10
-167.969
 20
-132.421
 11
-167.642
 21
-132.46
  0
LINE
  8
0
 10
-167.642
 20
-132.46
 11
-167.344
 21
-132.515
  0
LINE
  8
0
 10
-167.344
 20
-132.515
 11
-167.071
 21
-132.585
  0
LINE
  8
0
 10
-167.071
 20
-132.585
 11
-166.82
 21
-132.671
  0
LINE
  8
0
 10
-166.82
 20
-132.671
 11
-166.592
 21
-132.773
  0
LINE
  8
0
 10
-166.592
 20
-132.773
 11
-166.385
 21
-132.89
  0
LINE
  8
0
 10
-166.385
 20
-132.89
 11
-166.199
 21
-133.022
  0
LINE
  8
0
 10
-166.199
 20
-133.022
 11
-166.033
 21
-133.169
  0
LINE
  8
0
 10
-166.033
 20
-133.169
 11
-165.886
 21
-133.331
  0
LINE
  8
0
 10
-165.886
 20
-133.331
 11
-165.759
 21
-133.508
  0
LINE
  8
0
 10
-165.759
 20
-133.508
 11
-165.647
 21
-133.7
  0
LINE
  8
0
 10
-165.647
 20
-133.7
 11
-165.548
 21
-133.906
  0
LINE
  8
0
 10
-165.548
 20
-133.906
 11
-165.46
 21
-134.128
  0
LINE
  8
0
 10
-165.46
 20
-134.128
 11
-165.384
 21
-134.364
  0
LINE
  8
0
 10
-165.384
 20
-134.364
 11
-166.536
 21
-134.565
  0
LINE
  8
0
 10
-166.536
 20
-134.565
 11
-166.583
 21
-134.416
  0
LINE
  8
0
 10
-166.583
 20
-134.416
 11
-166.64
 21
-134.275
  0
LINE
  8
0
 10
-166.64
 20
-134.275
 11
-166.706
 21
-134.143
  0
LINE
  8
0
 10
-166.706
 20
-134.143
 11
-166.782
 21
-134.019
  0
LINE
  8
0
 10
-166.782
 20
-134.019
 11
-166.869
 21
-133.903
  0
LINE
  8
0
 10
-166.869
 20
-133.903
 11
-166.968
 21
-133.798
  0
LINE
  8
0
 10
-166.968
 20
-133.798
 11
-167.08
 21
-133.702
  0
LINE
  8
0
 10
-167.08
 20
-133.702
 11
-167.204
 21
-133.616
  0
LINE
  8
0
 10
-167.204
 20
-133.616
 11
-167.342
 21
-133.54
  0
LINE
  8
0
 10
-167.342
 20
-133.54
 11
-167.493
 21
-133.473
  0
LINE
  8
0
 10
-167.493
 20
-133.473
 11
-167.659
 21
-133.417
  0
LINE
  8
0
 10
-167.659
 20
-133.417
 11
-167.839
 21
-133.37
  0
LINE
  8
0
 10
-167.839
 20
-133.37
 11
-168.034
 21
-133.333
  0
LINE
  8
0
 10
-168.034
 20
-133.333
 11
-168.245
 21
-133.307
  0
LINE
  8
0
 10
-168.245
 20
-133.307
 11
-168.472
 21
-133.291
  0
LINE
  8
0
 10
-168.472
 20
-133.291
 11
-168.716
 21
-133.286
  0
LINE
  8
0
 10
-168.716
 20
-133.286
 11
-169.002
 21
-133.292
  0
LINE
  8
0
 10
-169.002
 20
-133.292
 11
-169.264
 21
-133.312
  0
LINE
  8
0
 10
-169.264
 20
-133.312
 11
-169.502
 21
-133.345
  0
LINE
  8
0
 10
-169.502
 20
-133.345
 11
-169.716
 21
-133.391
  0
LINE
  8
0
 10
-169.716
 20
-133.391
 11
-169.908
 21
-133.448
  0
LINE
  8
0
 10
-169.908
 20
-133.448
 11
-170.08
 21
-133.515
  0
LINE
  8
0
 10
-170.08
 20
-133.515
 11
-170.232
 21
-133.59
  0
LINE
  8
0
 10
-170.232
 20
-133.59
 11
-170.365
 21
-133.676
  0
LINE
  8
0
 10
-170.365
 20
-133.676
 11
-170.479
 21
-133.77
  0
LINE
  8
0
 10
-170.479
 20
-133.77
 11
-170.576
 21
-133.872
  0
LINE
  8
0
 10
-170.576
 20
-133.872
 11
-170.656
 21
-133.982
  0
LINE
  8
0
 10
-170.656
 20
-133.982
 11
-170.718
 21
-134.1
  0
LINE
  8
0
 10
-170.718
 20
-134.1
 11
-170.764
 21
-134.224
  0
LINE
  8
0
 10
-170.764
 20
-134.224
 11
-170.798
 21
-134.353
  0
LINE
  8
0
 10
-170.798
 20
-134.353
 11
-170.817
 21
-134.486
  0
LINE
  8
0
 10
-170.817
 20
-134.486
 11
-170.824
 21
-134.625
  0
LINE
  8
0
 10
-170.824
 20
-134.625
 11
-170.812
 21
-134.808
  0
LINE
  8
0
 10
-170.812
 20
-134.808
 11
-170.776
 21
-134.975
  0
LINE
  8
0
 10
-170.776
 20
-134.975
 11
-170.717
 21
-135.124
  0
LINE
  8
0
 10
-170.717
 20
-135.124
 11
-170.633
 21
-135.256
  0
LINE
  8
0
 10
-170.633
 20
-135.256
 11
-170.529
 21
-135.374
  0
LINE
  8
0
 10
-170.529
 20
-135.374
 11
-170.407
 21
-135.482
  0
LINE
  8
0
 10
-170.407
 20
-135.482
 11
-170.269
 21
-135.579
  0
LINE
  8
0
 10
-170.269
 20
-135.579
 11
-170.113
 21
-135.667
  0
LINE
  8
0
 10
-170.113
 20
-135.667
 11
-169.943
 21
-135.745
  0
LINE
  8
0
 10
-169.943
 20
-135.745
 11
-169.759
 21
-135.817
  0
LINE
  8
0
 10
-169.759
 20
-135.817
 11
-169.563
 21
-135.882
  0
LINE
  8
0
 10
-169.563
 20
-135.882
 11
-169.354
 21
-135.941
  0
LINE
  8
0
 10
-169.354
 20
-135.941
 11
-168.909
 21
-136.05
  0
LINE
  8
0
 10
-168.909
 20
-136.05
 11
-168.436
 21
-136.16
  0
LINE
  8
0
 10
-168.436
 20
-136.16
 11
-167.65
 21
-136.346
  0
LINE
  8
0
 10
-167.65
 20
-136.346
 11
-167.456
 21
-136.395
  0
LINE
  8
0
 10
-167.456
 20
-136.395
 11
-167.267
 21
-136.449
  0
LINE
  8
0
 10
-167.267
 20
-136.449
 11
-167.081
 21
-136.508
  0
LINE
  8
0
 10
-167.081
 20
-136.508
 11
-166.9
 21
-136.571
  0
LINE
  8
0
 10
-166.9
 20
-136.571
 11
-166.723
 21
-136.639
  0
LINE
  8
0
 10
-166.723
 20
-136.639
 11
-166.553
 21
-136.713
  0
LINE
  8
0
 10
-166.553
 20
-136.713
 11
-166.387
 21
-136.793
  0
LINE
  8
0
 10
-166.387
 20
-136.793
 11
-166.228
 21
-136.879
  0
LINE
  8
0
 10
-166.228
 20
-136.879
 11
-166.077
 21
-136.972
  0
LINE
  8
0
 10
-166.077
 20
-136.972
 11
-165.936
 21
-137.075
  0
LINE
  8
0
 10
-165.936
 20
-137.075
 11
-165.805
 21
-137.188
  0
LINE
  8
0
 10
-165.805
 20
-137.188
 11
-165.684
 21
-137.311
  0
LINE
  8
0
 10
-165.684
 20
-137.311
 11
-165.575
 21
-137.444
  0
LINE
  8
0
 10
-165.575
 20
-137.444
 11
-165.478
 21
-137.59
  0
LINE
  8
0
 10
-165.478
 20
-137.59
 11
-165.394
 21
-137.746
  0
LINE
  8
0
 10
-165.394
 20
-137.746
 11
-165.323
 21
-137.915
  0
LINE
  8
0
 10
-165.323
 20
-137.915
 11
-165.266
 21
-138.096
  0
LINE
  8
0
 10
-165.266
 20
-138.096
 11
-165.225
 21
-138.292
  0
LINE
  8
0
 10
-165.225
 20
-138.292
 11
-165.2
 21
-138.504
  0
LINE
  8
0
 10
-165.2
 20
-138.504
 11
-165.192
 21
-138.731
  0
LINE
  8
0
 10
-165.192
 20
-138.731
 11
-165.205
 21
-138.996
  0
LINE
  8
0
 10
-165.205
 20
-138.996
 11
-165.245
 21
-139.251
  0
LINE
  8
0
 10
-165.245
 20
-139.251
 11
-165.31
 21
-139.496
  0
LINE
  8
0
 10
-165.31
 20
-139.496
 11
-165.402
 21
-139.73
  0
LINE
  8
0
 10
-165.402
 20
-139.73
 11
-165.521
 21
-139.95
  0
LINE
  8
0
 10
-165.521
 20
-139.95
 11
-165.669
 21
-140.155
  0
LINE
  8
0
 10
-165.669
 20
-140.155
 11
-165.845
 21
-140.344
  0
LINE
  8
0
 10
-165.845
 20
-140.344
 11
-166.05
 21
-140.518
  0
LINE
  8
0
 10
-166.05
 20
-140.518
 11
-166.283
 21
-140.675
  0
LINE
  8
0
 10
-166.283
 20
-140.675
 11
-166.544
 21
-140.813
  0
LINE
  8
0
 10
-166.544
 20
-140.813
 11
-166.834
 21
-140.934
  0
LINE
  8
0
 10
-166.834
 20
-140.934
 11
-167.153
 21
-141.036
  0
LINE
  8
0
 10
-167.153
 20
-141.036
 11
-167.501
 21
-141.117
  0
LINE
  8
0
 10
-167.501
 20
-141.117
 11
-167.88
 21
-141.175
  0
LINE
  8
0
 10
-167.88
 20
-141.175
 11
-168.289
 21
-141.21
  0
LINE
  8
0
 10
-168.289
 20
-141.21
 11
-168.73
 21
-141.222
  0
LINE
  8
0
 10
-168.73
 20
-141.222
 11
-169.485
 21
-141.187
  0
LINE
  8
0
 10
-122.599
 20
-141.094
 11
-122.599
 21
-136.037
  0
LINE
  8
0
 10
-122.599
 20
-136.037
 11
-122.605
 21
-135.402
  0
LINE
  8
0
 10
-122.605
 20
-135.402
 11
-122.635
 21
-134.502
  0
LINE
  8
0
 10
-122.635
 20
-134.502
 11
-121.608
 21
-134.502
  0
LINE
  8
0
 10
-121.608
 20
-134.502
 11
-121.565
 21
-135.46
  0
LINE
  8
0
 10
-121.565
 20
-135.46
 11
-121.56
 21
-135.842
  0
LINE
  8
0
 10
-121.56
 20
-135.842
 11
-121.536
 21
-135.842
  0
LINE
  8
0
 10
-121.536
 20
-135.842
 11
-121.477
 21
-135.659
  0
LINE
  8
0
 10
-121.477
 20
-135.659
 11
-121.416
 21
-135.489
  0
LINE
  8
0
 10
-121.416
 20
-135.489
 11
-121.353
 21
-135.332
  0
LINE
  8
0
 10
-121.353
 20
-135.332
 11
-121.289
 21
-135.187
  0
LINE
  8
0
 10
-121.289
 20
-135.187
 11
-121.22
 21
-135.054
  0
LINE
  8
0
 10
-121.22
 20
-135.054
 11
-121.146
 21
-134.934
  0
LINE
  8
0
 10
-121.146
 20
-134.934
 11
-121.067
 21
-134.826
  0
LINE
  8
0
 10
-121.067
 20
-134.826
 11
-120.982
 21
-134.731
  0
LINE
  8
0
 10
-120.982
 20
-134.731
 11
-120.889
 21
-134.647
  0
LINE
  8
0
 10
-120.889
 20
-134.647
 11
-120.788
 21
-134.574
  0
LINE
  8
0
 10
-120.788
 20
-134.574
 11
-120.679
 21
-134.513
  0
LINE
  8
0
 10
-120.679
 20
-134.513
 11
-120.562
 21
-134.463
  0
LINE
  8
0
 10
-120.562
 20
-134.463
 11
-120.433
 21
-134.424
  0
LINE
  8
0
 10
-120.433
 20
-134.424
 11
-120.292
 21
-134.396
  0
LINE
  8
0
 10
-120.292
 20
-134.396
 11
-120.138
 21
-134.379
  0
LINE
  8
0
 10
-120.138
 20
-134.379
 11
-119.971
 21
-134.374
  0
LINE
  8
0
 10
-119.971
 20
-134.374
 11
-119.904
 21
-134.375
  0
LINE
  8
0
 10
-119.904
 20
-134.375
 11
-119.84
 21
-134.379
  0
LINE
  8
0
 10
-119.84
 20
-134.379
 11
-119.777
 21
-134.386
  0
LINE
  8
0
 10
-119.777
 20
-134.386
 11
-119.716
 21
-134.396
  0
LINE
  8
0
 10
-119.716
 20
-134.396
 11
-119.607
 21
-134.416
  0
LINE
  8
0
 10
-119.607
 20
-134.416
 11
-119.527
 21
-134.436
  0
LINE
  8
0
 10
-119.527
 20
-134.436
 11
-119.527
 21
-135.459
  0
LINE
  8
0
 10
-119.527
 20
-135.459
 11
-119.584
 21
-135.445
  0
LINE
  8
0
 10
-119.584
 20
-135.445
 11
-119.646
 21
-135.433
  0
LINE
  8
0
 10
-119.646
 20
-135.433
 11
-119.712
 21
-135.422
  0
LINE
  8
0
 10
-119.712
 20
-135.422
 11
-119.858
 21
-135.407
  0
LINE
  8
0
 10
-119.858
 20
-135.407
 11
-119.938
 21
-135.402
  0
LINE
  8
0
 10
-119.938
 20
-135.402
 11
-120.022
 21
-135.399
  0
LINE
  8
0
 10
-120.022
 20
-135.399
 11
-120.111
 21
-135.398
  0
LINE
  8
0
 10
-120.111
 20
-135.398
 11
-120.293
 21
-135.408
  0
LINE
  8
0
 10
-120.293
 20
-135.408
 11
-120.46
 21
-135.44
  0
LINE
  8
0
 10
-120.46
 20
-135.44
 11
-120.614
 21
-135.493
  0
LINE
  8
0
 10
-120.614
 20
-135.493
 11
-120.754
 21
-135.568
  0
LINE
  8
0
 10
-120.754
 20
-135.568
 11
-120.88
 21
-135.661
  0
LINE
  8
0
 10
-120.88
 20
-135.661
 11
-120.994
 21
-135.771
  0
LINE
  8
0
 10
-120.994
 20
-135.771
 11
-121.096
 21
-135.896
  0
LINE
  8
0
 10
-121.096
 20
-135.896
 11
-121.186
 21
-136.039
  0
LINE
  8
0
 10
-121.186
 20
-136.039
 11
-121.264
 21
-136.197
  0
LINE
  8
0
 10
-121.264
 20
-136.197
 11
-121.331
 21
-136.369
  0
LINE
  8
0
 10
-121.331
 20
-136.369
 11
-121.387
 21
-136.556
  0
LINE
  8
0
 10
-121.387
 20
-136.556
 11
-121.432
 21
-136.757
  0
LINE
  8
0
 10
-121.432
 20
-136.757
 11
-121.466
 21
-136.969
  0
LINE
  8
0
 10
-121.466
 20
-136.969
 11
-121.491
 21
-137.192
  0
LINE
  8
0
 10
-121.491
 20
-137.192
 11
-121.506
 21
-137.423
  0
LINE
  8
0
 10
-121.506
 20
-137.423
 11
-121.511
 21
-137.665
  0
LINE
  8
0
 10
-121.511
 20
-137.665
 11
-121.511
 21
-141.094
  0
LINE
  8
0
 10
-121.511
 20
-141.094
 11
-122.599
 21
-141.094
  0
LINE
  8
0
 10
-152.63
 20
-141.189
 11
-153.03
 21
-141.09
  0
LINE
  8
0
 10
-153.03
 20
-141.09
 11
-153.37
 21
-140.926
  0
LINE
  8
0
 10
-153.37
 20
-140.926
 11
-153.648
 21
-140.696
  0
LINE
  8
0
 10
-153.648
 20
-140.696
 11
-153.864
 21
-140.408
  0
LINE
  8
0
 10
-153.864
 20
-140.408
 11
-154.019
 21
-140.072
  0
LINE
  8
0
 10
-154.019
 20
-140.072
 11
-154.112
 21
-139.686
  0
LINE
  8
0
 10
-154.112
 20
-139.686
 11
-154.143
 21
-139.252
  0
LINE
  8
0
 10
-154.143
 20
-139.252
 11
-154.128
 21
-138.939
  0
LINE
  8
0
 10
-154.128
 20
-138.939
 11
-154.082
 21
-138.656
  0
LINE
  8
0
 10
-154.082
 20
-138.656
 11
-154.006
 21
-138.403
  0
LINE
  8
0
 10
-154.006
 20
-138.403
 11
-153.899
 21
-138.179
  0
LINE
  8
0
 10
-153.899
 20
-138.179
 11
-153.767
 21
-137.98
  0
LINE
  8
0
 10
-153.767
 20
-137.98
 11
-153.616
 21
-137.804
  0
LINE
  8
0
 10
-153.616
 20
-137.804
 11
-153.447
 21
-137.651
  0
LINE
  8
0
 10
-153.447
 20
-137.651
 11
-153.259
 21
-137.521
  0
LINE
  8
0
 10
-153.259
 20
-137.521
 11
-153.054
 21
-137.41
  0
LINE
  8
0
 10
-153.054
 20
-137.41
 11
-152.835
 21
-137.319
  0
LINE
  8
0
 10
-152.835
 20
-137.319
 11
-152.602
 21
-137.245
  0
LINE
  8
0
 10
-152.602
 20
-137.245
 11
-152.356
 21
-137.191
  0
LINE
  8
0
 10
-152.356
 20
-137.191
 11
-152.101
 21
-137.15
  0
LINE
  8
0
 10
-152.101
 20
-137.15
 11
-151.844
 21
-137.118
  0
LINE
  8
0
 10
-151.844
 20
-137.118
 11
-151.584
 21
-137.097
  0
LINE
  8
0
 10
-151.584
 20
-137.097
 11
-151.323
 21
-137.086
  0
LINE
  8
0
 10
-151.323
 20
-137.086
 11
-149.855
 21
-137.062
  0
LINE
  8
0
 10
-149.855
 20
-137.062
 11
-149.855
 21
-136.703
  0
LINE
  8
0
 10
-149.855
 20
-136.703
 11
-149.86
 21
-136.506
  0
LINE
  8
0
 10
-149.86
 20
-136.506
 11
-149.876
 21
-136.325
  0
LINE
  8
0
 10
-149.876
 20
-136.325
 11
-149.901
 21
-136.159
  0
LINE
  8
0
 10
-149.901
 20
-136.159
 11
-149.938
 21
-136.009
  0
LINE
  8
0
 10
-149.938
 20
-136.009
 11
-149.985
 21
-135.873
  0
LINE
  8
0
 10
-149.985
 20
-135.873
 11
-150.043
 21
-135.75
  0
LINE
  8
0
 10
-150.043
 20
-135.75
 11
-150.113
 21
-135.642
  0
LINE
  8
0
 10
-150.113
 20
-135.642
 11
-150.194
 21
-135.547
  0
LINE
  8
0
 10
-150.194
 20
-135.547
 11
-150.285
 21
-135.464
  0
LINE
  8
0
 10
-150.285
 20
-135.464
 11
-150.388
 21
-135.394
  0
LINE
  8
0
 10
-150.388
 20
-135.394
 11
-150.501
 21
-135.335
  0
LINE
  8
0
 10
-150.501
 20
-135.335
 11
-150.625
 21
-135.288
  0
LINE
  8
0
 10
-150.625
 20
-135.288
 11
-150.76
 21
-135.252
  0
LINE
  8
0
 10
-150.76
 20
-135.252
 11
-150.906
 21
-135.226
  0
LINE
  8
0
 10
-150.906
 20
-135.226
 11
-151.064
 21
-135.211
  0
LINE
  8
0
 10
-151.064
 20
-135.211
 11
-151.233
 21
-135.206
  0
LINE
  8
0
 10
-151.233
 20
-135.206
 11
-151.384
 21
-135.209
  0
LINE
  8
0
 10
-151.384
 20
-135.209
 11
-151.527
 21
-135.217
  0
LINE
  8
0
 10
-151.527
 20
-135.217
 11
-151.663
 21
-135.231
  0
LINE
  8
0
 10
-151.663
 20
-135.231
 11
-151.792
 21
-135.251
  0
LINE
  8
0
 10
-151.792
 20
-135.251
 11
-151.912
 21
-135.277
  0
LINE
  8
0
 10
-151.912
 20
-135.277
 11
-152.025
 21
-135.313
  0
LINE
  8
0
 10
-152.025
 20
-135.313
 11
-152.129
 21
-135.357
  0
LINE
  8
0
 10
-152.129
 20
-135.357
 11
-152.226
 21
-135.411
  0
LINE
  8
0
 10
-152.226
 20
-135.411
 11
-152.313
 21
-135.474
  0
LINE
  8
0
 10
-152.313
 20
-135.474
 11
-152.392
 21
-135.548
  0
LINE
  8
0
 10
-152.392
 20
-135.548
 11
-152.462
 21
-135.632
  0
LINE
  8
0
 10
-152.462
 20
-135.632
 11
-152.523
 21
-135.727
  0
LINE
  8
0
 10
-152.523
 20
-135.727
 11
-152.574
 21
-135.833
  0
LINE
  8
0
 10
-152.574
 20
-135.833
 11
-152.616
 21
-135.952
  0
LINE
  8
0
 10
-152.616
 20
-135.952
 11
-152.648
 21
-136.084
  0
LINE
  8
0
 10
-152.648
 20
-136.084
 11
-152.671
 21
-136.23
  0
LINE
  8
0
 10
-152.671
 20
-136.23
 11
-153.823
 21
-136.128
  0
LINE
  8
0
 10
-153.823
 20
-136.128
 11
-153.786
 21
-135.939
  0
LINE
  8
0
 10
-153.786
 20
-135.939
 11
-153.736
 21
-135.759
  0
LINE
  8
0
 10
-153.736
 20
-135.759
 11
-153.673
 21
-135.586
  0
LINE
  8
0
 10
-153.673
 20
-135.586
 11
-153.596
 21
-135.422
  0
LINE
  8
0
 10
-153.596
 20
-135.422
 11
-153.503
 21
-135.267
  0
LINE
  8
0
 10
-153.503
 20
-135.267
 11
-153.393
 21
-135.123
  0
LINE
  8
0
 10
-153.393
 20
-135.123
 11
-153.265
 21
-134.989
  0
LINE
  8
0
 10
-153.265
 20
-134.989
 11
-153.12
 21
-134.867
  0
LINE
  8
0
 10
-153.12
 20
-134.867
 11
-152.956
 21
-134.756
  0
LINE
  8
0
 10
-152.956
 20
-134.756
 11
-152.772
 21
-134.658
  0
LINE
  8
0
 10
-152.772
 20
-134.658
 11
-152.569
 21
-134.574
  0
LINE
  8
0
 10
-152.569
 20
-134.574
 11
-152.347
 21
-134.503
  0
LINE
  8
0
 10
-152.347
 20
-134.503
 11
-152.102
 21
-134.446
  0
LINE
  8
0
 10
-152.102
 20
-134.446
 11
-151.833
 21
-134.406
  0
LINE
  8
0
 10
-151.833
 20
-134.406
 11
-151.54
 21
-134.382
  0
LINE
  8
0
 10
-151.54
 20
-134.382
 11
-151.223
 21
-134.374
  0
LINE
  8
0
 10
-151.223
 20
-134.374
 11
-150.65
 21
-134.409
  0
LINE
  8
0
 10
-150.65
 20
-134.409
 11
-150.152
 21
-134.516
  0
LINE
  8
0
 10
-150.152
 20
-134.516
 11
-149.73
 21
-134.693
  0
LINE
  8
0
 10
-149.73
 20
-134.693
 11
-149.384
 21
-134.942
  0
LINE
  8
0
 10
-149.384
 20
-134.942
 11
-149.114
 21
-135.257
  0
LINE
  8
0
 10
-149.114
 20
-135.257
 11
-148.921
 21
-135.636
  0
LINE
  8
0
 10
-148.921
 20
-135.636
 11
-148.805
 21
-136.078
  0
LINE
  8
0
 10
-148.805
 20
-136.078
 11
-148.767
 21
-136.584
  0
LINE
  8
0
 10
-148.767
 20
-136.584
 11
-148.767
 21
-139.413
  0
LINE
  8
0
 10
-148.767
 20
-139.413
 11
-148.759
 21
-139.64
  0
LINE
  8
0
 10
-148.759
 20
-139.64
 11
-148.735
 21
-139.838
  0
LINE
  8
0
 10
-148.735
 20
-139.838
 11
-148.696
 21
-140.006
  0
LINE
  8
0
 10
-148.696
 20
-140.006
 11
-148.641
 21
-140.144
  0
LINE
  8
0
 10
-148.641
 20
-140.144
 11
-148.564
 21
-140.251
  0
LINE
  8
0
 10
-148.564
 20
-140.251
 11
-148.458
 21
-140.328
  0
LINE
  8
0
 10
-148.458
 20
-140.328
 11
-148.324
 21
-140.374
  0
LINE
  8
0
 10
-148.324
 20
-140.374
 11
-148.161
 21
-140.39
  0
LINE
  8
0
 10
-148.161
 20
-140.39
 11
-148.116
 21
-140.389
  0
LINE
  8
0
 10
-148.116
 20
-140.389
 11
-148.026
 21
-140.383
  0
LINE
  8
0
 10
-148.026
 20
-140.383
 11
-147.936
 21
-140.371
  0
LINE
  8
0
 10
-147.936
 20
-140.371
 11
-147.807
 21
-140.347
  0
LINE
  8
0
 10
-147.807
 20
-140.347
 11
-147.807
 21
-141.056
  0
LINE
  8
0
 10
-147.807
 20
-141.056
 11
-147.909
 21
-141.08
  0
LINE
  8
0
 10
-147.909
 20
-141.08
 11
-148.01
 21
-141.1
  0
LINE
  8
0
 10
-148.01
 20
-141.1
 11
-148.111
 21
-141.118
  0
LINE
  8
0
 10
-148.111
 20
-141.118
 11
-148.212
 21
-141.132
  0
LINE
  8
0
 10
-148.212
 20
-141.132
 11
-148.313
 21
-141.143
  0
LINE
  8
0
 10
-148.313
 20
-141.143
 11
-148.419
 21
-141.151
  0
LINE
  8
0
 10
-148.419
 20
-141.151
 11
-148.527
 21
-141.156
  0
LINE
  8
0
 10
-148.527
 20
-141.156
 11
-148.639
 21
-141.158
  0
LINE
  8
0
 10
-148.639
 20
-141.158
 11
-148.786
 21
-141.153
  0
LINE
  8
0
 10
-148.786
 20
-141.153
 11
-148.923
 21
-141.137
  0
LINE
  8
0
 10
-148.923
 20
-141.137
 11
-149.049
 21
-141.112
  0
LINE
  8
0
 10
-149.049
 20
-141.112
 11
-149.164
 21
-141.076
  0
LINE
  8
0
 10
-149.164
 20
-141.076
 11
-149.268
 21
-141.029
  0
LINE
  8
0
 10
-149.268
 20
-141.029
 11
-149.362
 21
-140.971
  0
LINE
  8
0
 10
-149.362
 20
-140.971
 11
-149.446
 21
-140.903
  0
LINE
  8
0
 10
-149.446
 20
-140.903
 11
-149.52
 21
-140.825
  0
LINE
  8
0
 10
-149.52
 20
-140.825
 11
-149.584
 21
-140.735
  0
LINE
  8
0
 10
-149.584
 20
-140.735
 11
-149.641
 21
-140.636
  0
LINE
  8
0
 10
-149.641
 20
-140.636
 11
-149.689
 21
-140.527
  0
LINE
  8
0
 10
-149.689
 20
-140.527
 11
-149.729
 21
-140.408
  0
LINE
  8
0
 10
-149.729
 20
-140.408
 11
-149.761
 21
-140.279
  0
LINE
  8
0
 10
-149.761
 20
-140.279
 11
-149.787
 21
-140.139
  0
LINE
  8
0
 10
-149.787
 20
-140.139
 11
-149.806
 21
-139.99
  0
LINE
  8
0
 10
-149.806
 20
-139.99
 11
-149.819
 21
-139.83
  0
LINE
  8
0
 10
-149.819
 20
-139.83
 11
-149.855
 21
-139.83
  0
LINE
  8
0
 10
-149.855
 20
-139.83
 11
-149.944
 21
-139.985
  0
LINE
  8
0
 10
-149.944
 20
-139.985
 11
-150.038
 21
-140.133
  0
LINE
  8
0
 10
-150.038
 20
-140.133
 11
-150.136
 21
-140.274
  0
LINE
  8
0
 10
-150.136
 20
-140.274
 11
-150.239
 21
-140.407
  0
LINE
  8
0
 10
-150.239
 20
-140.407
 11
-150.347
 21
-140.53
  0
LINE
  8
0
 10
-150.347
 20
-140.53
 11
-150.464
 21
-140.645
  0
LINE
  8
0
 10
-150.464
 20
-140.645
 11
-150.59
 21
-140.749
  0
LINE
  8
0
 10
-150.59
 20
-140.749
 11
-150.725
 21
-140.845
  0
LINE
  8
0
 10
-150.725
 20
-140.845
 11
-150.868
 21
-140.93
  0
LINE
  8
0
 10
-150.868
 20
-140.93
 11
-151.021
 21
-141.005
  0
LINE
  8
0
 10
-151.021
 20
-141.005
 11
-151.184
 21
-141.07
  0
LINE
  8
0
 10
-151.184
 20
-141.07
 11
-151.356
 21
-141.124
  0
LINE
  8
0
 10
-151.356
 20
-141.124
 11
-151.539
 21
-141.167
  0
LINE
  8
0
 10
-151.539
 20
-141.167
 11
-151.735
 21
-141.197
  0
LINE
  8
0
 10
-151.735
 20
-141.197
 11
-151.945
 21
-141.216
  0
LINE
  8
0
 10
-151.945
 20
-141.216
 11
-152.168
 21
-141.222
  0
LINE
  8
0
 10
-152.168
 20
-141.222
 11
-152.63
 21
-141.189
  0
LINE
  8
0
 10
-151.649
 20
-140.378
 11
-151.416
 21
-140.342
  0
LINE
  8
0
 10
-151.416
 20
-140.342
 11
-151.199
 21
-140.282
  0
LINE
  8
0
 10
-151.199
 20
-140.282
 11
-150.999
 21
-140.198
  0
LINE
  8
0
 10
-150.999
 20
-140.198
 11
-150.814
 21
-140.095
  0
LINE
  8
0
 10
-150.814
 20
-140.095
 11
-150.647
 21
-139.978
  0
LINE
  8
0
 10
-150.647
 20
-139.978
 11
-150.495
 21
-139.849
  0
LINE
  8
0
 10
-150.495
 20
-139.849
 11
-150.36
 21
-139.706
  0
LINE
  8
0
 10
-150.36
 20
-139.706
 11
-150.241
 21
-139.552
  0
LINE
  8
0
 10
-150.241
 20
-139.552
 11
-150.138
 21
-139.392
  0
LINE
  8
0
 10
-150.138
 20
-139.392
 11
-150.051
 21
-139.225
  0
LINE
  8
0
 10
-150.051
 20
-139.225
 11
-149.981
 21
-139.052
  0
LINE
  8
0
 10
-149.981
 20
-139.052
 11
-149.926
 21
-138.877
  0
LINE
  8
0
 10
-149.926
 20
-138.877
 11
-149.886
 21
-138.705
  0
LINE
  8
0
 10
-149.886
 20
-138.705
 11
-149.863
 21
-138.538
  0
LINE
  8
0
 10
-149.863
 20
-138.538
 11
-149.855
 21
-138.374
  0
LINE
  8
0
 10
-149.855
 20
-138.374
 11
-149.855
 21
-137.83
  0
LINE
  8
0
 10
-149.855
 20
-137.83
 11
-151.032
 21
-137.854
  0
LINE
  8
0
 10
-151.032
 20
-137.854
 11
-151.226
 21
-137.86
  0
LINE
  8
0
 10
-151.226
 20
-137.86
 11
-151.416
 21
-137.872
  0
LINE
  8
0
 10
-151.416
 20
-137.872
 11
-151.601
 21
-137.89
  0
LINE
  8
0
 10
-151.601
 20
-137.89
 11
-151.782
 21
-137.913
  0
LINE
  8
0
 10
-151.782
 20
-137.913
 11
-151.954
 21
-137.945
  0
LINE
  8
0
 10
-151.954
 20
-137.945
 11
-152.115
 21
-137.989
  0
LINE
  8
0
 10
-152.115
 20
-137.989
 11
-152.266
 21
-138.047
  0
LINE
  8
0
 10
-152.266
 20
-138.047
 11
-152.406
 21
-138.117
  0
LINE
  8
0
 10
-152.406
 20
-138.117
 11
-152.533
 21
-138.201
  0
LINE
  8
0
 10
-152.533
 20
-138.201
 11
-152.647
 21
-138.3
  0
LINE
  8
0
 10
-152.647
 20
-138.3
 11
-152.746
 21
-138.415
  0
LINE
  8
0
 10
-152.746
 20
-138.415
 11
-152.833
 21
-138.545
  0
LINE
  8
0
 10
-152.833
 20
-138.545
 11
-152.902
 21
-138.693
  0
LINE
  8
0
 10
-152.902
 20
-138.693
 11
-152.951
 21
-138.862
  0
LINE
  8
0
 10
-152.951
 20
-138.862
 11
-152.981
 21
-139.053
  0
LINE
  8
0
 10
-152.981
 20
-139.053
 11
-152.991
 21
-139.266
  0
LINE
  8
0
 10
-152.991
 20
-139.266
 11
-152.973
 21
-139.519
  0
LINE
  8
0
 10
-152.973
 20
-139.519
 11
-152.92
 21
-139.742
  0
LINE
  8
0
 10
-152.92
 20
-139.742
 11
-152.832
 21
-139.935
  0
LINE
  8
0
 10
-152.832
 20
-139.935
 11
-152.708
 21
-140.097
  0
LINE
  8
0
 10
-152.708
 20
-140.097
 11
-152.551
 21
-140.225
  0
LINE
  8
0
 10
-152.551
 20
-140.225
 11
-152.363
 21
-140.316
  0
LINE
  8
0
 10
-152.363
 20
-140.316
 11
-152.146
 21
-140.371
  0
LINE
  8
0
 10
-152.146
 20
-140.371
 11
-151.898
 21
-140.39
  0
LINE
  8
0
 10
-151.898
 20
-140.39
 11
-151.649
 21
-140.378
  0
LINE
  8
0
 10
-109.787
 20
-141.216
 11
-110.052
 21
-141.2
  0
LINE
  8
0
 10
-110.052
 20
-141.2
 11
-110.304
 21
-141.172
  0
LINE
  8
0
 10
-110.304
 20
-141.172
 11
-110.541
 21
-141.134
  0
LINE
  8
0
 10
-110.541
 20
-141.134
 11
-110.764
 21
-141.083
  0
LINE
  8
0
 10
-110.764
 20
-141.083
 11
-110.972
 21
-141.019
  0
LINE
  8
0
 10
-110.972
 20
-141.019
 11
-111.167
 21
-140.942
  0
LINE
  8
0
 10
-111.167
 20
-140.942
 11
-111.348
 21
-140.851
  0
LINE
  8
0
 10
-111.348
 20
-140.851
 11
-111.514
 21
-140.745
  0
LINE
  8
0
 10
-111.514
 20
-140.745
 11
-111.667
 21
-140.625
  0
LINE
  8
0
 10
-111.667
 20
-140.625
 11
-111.805
 21
-140.488
  0
LINE
  8
0
 10
-111.805
 20
-140.488
 11
-111.93
 21
-140.337
  0
LINE
  8
0
 10
-111.93
 20
-140.337
 11
-112.039
 21
-140.168
  0
LINE
  8
0
 10
-112.039
 20
-140.168
 11
-112.133
 21
-139.981
  0
LINE
  8
0
 10
-112.133
 20
-139.981
 11
-112.211
 21
-139.777
  0
LINE
  8
0
 10
-112.211
 20
-139.777
 11
-112.274
 21
-139.555
  0
LINE
  8
0
 10
-112.274
 20
-139.555
 11
-111.314
 21
-139.366
  0
LINE
  8
0
 10
-111.314
 20
-139.366
 11
-111.225
 21
-139.613
  0
LINE
  8
0
 10
-111.225
 20
-139.613
 11
-111.1
 21
-139.825
  0
LINE
  8
0
 10
-111.1
 20
-139.825
 11
-110.937
 21
-140.002
  0
LINE
  8
0
 10
-110.937
 20
-140.002
 11
-110.738
 21
-140.143
  0
LINE
  8
0
 10
-110.738
 20
-140.143
 11
-110.498
 21
-140.251
  0
LINE
  8
0
 10
-110.498
 20
-140.251
 11
-110.216
 21
-140.328
  0
LINE
  8
0
 10
-110.216
 20
-140.328
 11
-109.891
 21
-140.374
  0
LINE
  8
0
 10
-109.891
 20
-140.374
 11
-109.524
 21
-140.39
  0
LINE
  8
0
 10
-109.524
 20
-140.39
 11
-109.351
 21
-140.387
  0
LINE
  8
0
 10
-109.351
 20
-140.387
 11
-109.186
 21
-140.377
  0
LINE
  8
0
 10
-109.186
 20
-140.377
 11
-109.028
 21
-140.362
  0
LINE
  8
0
 10
-109.028
 20
-140.362
 11
-108.878
 21
-140.341
  0
LINE
  8
0
 10
-108.878
 20
-140.341
 11
-108.735
 21
-140.311
  0
LINE
  8
0
 10
-108.735
 20
-140.311
 11
-108.603
 21
-140.273
  0
LINE
  8
0
 10
-108.603
 20
-140.273
 11
-108.482
 21
-140.226
  0
LINE
  8
0
 10
-108.482
 20
-140.226
 11
-108.371
 21
-140.171
  0
LINE
  8
0
 10
-108.371
 20
-140.171
 11
-108.271
 21
-140.106
  0
LINE
  8
0
 10
-108.271
 20
-140.106
 11
-108.182
 21
-140.031
  0
LINE
  8
0
 10
-108.182
 20
-140.031
 11
-108.106
 21
-139.946
  0
LINE
  8
0
 10
-108.106
 20
-139.946
 11
-108.041
 21
-139.851
  0
LINE
  8
0
 10
-108.041
 20
-139.851
 11
-107.989
 21
-139.745
  0
LINE
  8
0
 10
-107.989
 20
-139.745
 11
-107.951
 21
-139.627
  0
LINE
  8
0
 10
-107.951
 20
-139.627
 11
-107.929
 21
-139.497
  0
LINE
  8
0
 10
-107.929
 20
-139.497
 11
-107.922
 21
-139.355
  0
LINE
  8
0
 10
-107.922
 20
-139.355
 11
-107.93
 21
-139.211
  0
LINE
  8
0
 10
-107.93
 20
-139.211
 11
-107.957
 21
-139.082
  0
LINE
  8
0
 10
-107.957
 20
-139.082
 11
-108
 21
-138.965
  0
LINE
  8
0
 10
-108
 20
-138.965
 11
-108.062
 21
-138.863
  0
LINE
  8
0
 10
-108.062
 20
-138.863
 11
-108.138
 21
-138.77
  0
LINE
  8
0
 10
-108.138
 20
-138.77
 11
-108.228
 21
-138.686
  0
LINE
  8
0
 10
-108.228
 20
-138.686
 11
-108.332
 21
-138.61
  0
LINE
  8
0
 10
-108.332
 20
-138.61
 11
-108.45
 21
-138.542
  0
LINE
  8
0
 10
-108.45
 20
-138.542
 11
-108.581
 21
-138.479
  0
LINE
  8
0
 10
-108.581
 20
-138.479
 11
-108.725
 21
-138.421
  0
LINE
  8
0
 10
-108.725
 20
-138.421
 11
-108.883
 21
-138.367
  0
LINE
  8
0
 10
-108.883
 20
-138.367
 11
-109.054
 21
-138.318
  0
LINE
  8
0
 10
-109.054
 20
-138.318
 11
-110.03
 21
-138.053
  0
LINE
  8
0
 10
-110.03
 20
-138.053
 11
-110.226
 21
-137.997
  0
LINE
  8
0
 10
-110.226
 20
-137.997
 11
-110.422
 21
-137.937
  0
LINE
  8
0
 10
-110.422
 20
-137.937
 11
-110.617
 21
-137.875
  0
LINE
  8
0
 10
-110.617
 20
-137.875
 11
-110.806
 21
-137.805
  0
LINE
  8
0
 10
-110.806
 20
-137.805
 11
-110.986
 21
-137.725
  0
LINE
  8
0
 10
-110.986
 20
-137.725
 11
-111.157
 21
-137.635
  0
LINE
  8
0
 10
-111.157
 20
-137.635
 11
-111.318
 21
-137.535
  0
LINE
  8
0
 10
-111.318
 20
-137.535
 11
-111.466
 21
-137.422
  0
LINE
  8
0
 10
-111.466
 20
-137.422
 11
-111.6
 21
-137.298
  0
LINE
  8
0
 10
-111.6
 20
-137.298
 11
-111.719
 21
-137.16
  0
LINE
  8
0
 10
-111.719
 20
-137.16
 11
-111.824
 21
-137.011
  0
LINE
  8
0
 10
-111.824
 20
-137.011
 11
-111.909
 21
-136.845
  0
LINE
  8
0
 10
-111.909
 20
-136.845
 11
-111.969
 21
-136.659
  0
LINE
  8
0
 10
-111.969
 20
-136.659
 11
-112.006
 21
-136.453
  0
LINE
  8
0
 10
-112.006
 20
-136.453
 11
-112.018
 21
-136.228
  0
LINE
  8
0
 10
-112.018
 20
-136.228
 11
-111.978
 21
-135.802
  0
LINE
  8
0
 10
-111.978
 20
-135.802
 11
-111.857
 21
-135.43
  0
LINE
  8
0
 10
-111.857
 20
-135.43
 11
-111.657
 21
-135.112
  0
LINE
  8
0
 10
-111.657
 20
-135.112
 11
-111.376
 21
-134.848
  0
LINE
  8
0
 10
-111.376
 20
-134.848
 11
-111.018
 21
-134.64
  0
LINE
  8
0
 10
-111.018
 20
-134.64
 11
-110.587
 21
-134.492
  0
LINE
  8
0
 10
-110.587
 20
-134.492
 11
-110.083
 21
-134.403
  0
LINE
  8
0
 10
-110.083
 20
-134.403
 11
-109.505
 21
-134.374
  0
LINE
  8
0
 10
-109.505
 20
-134.374
 11
-108.988
 21
-134.398
  0
LINE
  8
0
 10
-108.988
 20
-134.398
 11
-108.527
 21
-134.469
  0
LINE
  8
0
 10
-108.527
 20
-134.469
 11
-108.123
 21
-134.589
  0
LINE
  8
0
 10
-108.123
 20
-134.589
 11
-107.774
 21
-134.756
  0
LINE
  8
0
 10
-107.774
 20
-134.756
 11
-107.482
 21
-134.976
  0
LINE
  8
0
 10
-107.482
 20
-134.976
 11
-107.25
 21
-135.253
  0
LINE
  8
0
 10
-107.25
 20
-135.253
 11
-107.076
 21
-135.588
  0
LINE
  8
0
 10
-107.076
 20
-135.588
 11
-106.962
 21
-135.981
  0
LINE
  8
0
 10
-106.962
 20
-135.981
 11
-107.922
 21
-136.102
  0
LINE
  8
0
 10
-107.922
 20
-136.102
 11
-107.955
 21
-135.98
  0
LINE
  8
0
 10
-107.955
 20
-135.98
 11
-107.999
 21
-135.869
  0
LINE
  8
0
 10
-107.999
 20
-135.869
 11
-108.055
 21
-135.768
  0
LINE
  8
0
 10
-108.055
 20
-135.768
 11
-108.123
 21
-135.678
  0
LINE
  8
0
 10
-108.123
 20
-135.678
 11
-108.2
 21
-135.596
  0
LINE
  8
0
 10
-108.2
 20
-135.596
 11
-108.284
 21
-135.523
  0
LINE
  8
0
 10
-108.284
 20
-135.523
 11
-108.376
 21
-135.458
  0
LINE
  8
0
 10
-108.376
 20
-135.458
 11
-108.476
 21
-135.402
  0
LINE
  8
0
 10
-108.476
 20
-135.402
 11
-108.582
 21
-135.353
  0
LINE
  8
0
 10
-108.582
 20
-135.353
 11
-108.696
 21
-135.311
  0
LINE
  8
0
 10
-108.696
 20
-135.311
 11
-108.815
 21
-135.277
  0
LINE
  8
0
 10
-108.815
 20
-135.277
 11
-108.942
 21
-135.251
  0
LINE
  8
0
 10
-108.942
 20
-135.251
 11
-109.073
 21
-135.231
  0
LINE
  8
0
 10
-109.073
 20
-135.231
 11
-109.206
 21
-135.217
  0
LINE
  8
0
 10
-109.206
 20
-135.217
 11
-109.342
 21
-135.209
  0
LINE
  8
0
 10
-109.342
 20
-135.209
 11
-109.481
 21
-135.206
  0
LINE
  8
0
 10
-109.481
 20
-135.206
 11
-109.828
 21
-135.22
  0
LINE
  8
0
 10
-109.828
 20
-135.22
 11
-110.126
 21
-135.263
  0
LINE
  8
0
 10
-110.126
 20
-135.263
 11
-110.376
 21
-135.333
  0
LINE
  8
0
 10
-110.376
 20
-135.333
 11
-110.577
 21
-135.433
  0
LINE
  8
0
 10
-110.577
 20
-135.433
 11
-110.731
 21
-135.56
  0
LINE
  8
0
 10
-110.731
 20
-135.56
 11
-110.841
 21
-135.717
  0
LINE
  8
0
 10
-110.841
 20
-135.717
 11
-110.908
 21
-135.903
  0
LINE
  8
0
 10
-110.908
 20
-135.903
 11
-110.93
 21
-136.118
  0
LINE
  8
0
 10
-110.93
 20
-136.118
 11
-110.922
 21
-136.246
  0
LINE
  8
0
 10
-110.922
 20
-136.246
 11
-110.897
 21
-136.363
  0
LINE
  8
0
 10
-110.897
 20
-136.363
 11
-110.857
 21
-136.468
  0
LINE
  8
0
 10
-110.857
 20
-136.468
 11
-110.8
 21
-136.562
  0
LINE
  8
0
 10
-110.8
 20
-136.562
 11
-110.728
 21
-136.645
  0
LINE
  8
0
 10
-110.728
 20
-136.645
 11
-110.643
 21
-136.722
  0
LINE
  8
0
 10
-110.643
 20
-136.722
 11
-110.546
 21
-136.792
  0
LINE
  8
0
 10
-110.546
 20
-136.792
 11
-110.436
 21
-136.856
  0
LINE
  8
0
 10
-110.436
 20
-136.856
 11
-110.313
 21
-136.913
  0
LINE
  8
0
 10
-110.313
 20
-136.913
 11
-110.178
 21
-136.967
  0
LINE
  8
0
 10
-110.178
 20
-136.967
 11
-110.032
 21
-137.017
  0
LINE
  8
0
 10
-110.032
 20
-137.017
 11
-109.874
 21
-137.064
  0
LINE
  8
0
 10
-109.874
 20
-137.064
 11
-109.706
 21
-137.108
  0
LINE
  8
0
 10
-109.706
 20
-137.108
 11
-109.152
 21
-137.25
  0
LINE
  8
0
 10
-109.152
 20
-137.25
 11
-108.618
 21
-137.394
  0
LINE
  8
0
 10
-108.618
 20
-137.394
 11
-108.482
 21
-137.434
  0
LINE
  8
0
 10
-108.482
 20
-137.434
 11
-108.348
 21
-137.478
  0
LINE
  8
0
 10
-108.348
 20
-137.478
 11
-108.217
 21
-137.526
  0
LINE
  8
0
 10
-108.217
 20
-137.526
 11
-108.087
 21
-137.578
  0
LINE
  8
0
 10
-108.087
 20
-137.578
 11
-107.96
 21
-137.634
  0
LINE
  8
0
 10
-107.96
 20
-137.634
 11
-107.836
 21
-137.694
  0
LINE
  8
0
 10
-107.836
 20
-137.694
 11
-107.717
 21
-137.759
  0
LINE
  8
0
 10
-107.717
 20
-137.759
 11
-107.602
 21
-137.829
  0
LINE
  8
0
 10
-107.602
 20
-137.829
 11
-107.491
 21
-137.904
  0
LINE
  8
0
 10
-107.491
 20
-137.904
 11
-107.388
 21
-137.986
  0
LINE
  8
0
 10
-107.388
 20
-137.986
 11
-107.292
 21
-138.076
  0
LINE
  8
0
 10
-107.292
 20
-138.076
 11
-107.204
 21
-138.174
  0
LINE
  8
0
 10
-107.204
 20
-138.174
 11
-107.123
 21
-138.279
  0
LINE
  8
0
 10
-107.123
 20
-138.279
 11
-107.051
 21
-138.393
  0
LINE
  8
0
 10
-107.051
 20
-138.393
 11
-106.988
 21
-138.515
  0
LINE
  8
0
 10
-106.988
 20
-138.515
 11
-106.934
 21
-138.646
  0
LINE
  8
0
 10
-106.934
 20
-138.646
 11
-106.89
 21
-138.786
  0
LINE
  8
0
 10
-106.89
 20
-138.786
 11
-106.859
 21
-138.936
  0
LINE
  8
0
 10
-106.859
 20
-138.936
 11
-106.84
 21
-139.098
  0
LINE
  8
0
 10
-106.84
 20
-139.098
 11
-106.834
 21
-139.27
  0
LINE
  8
0
 10
-106.834
 20
-139.27
 11
-106.845
 21
-139.496
  0
LINE
  8
0
 10
-106.845
 20
-139.496
 11
-106.879
 21
-139.709
  0
LINE
  8
0
 10
-106.879
 20
-139.709
 11
-106.935
 21
-139.91
  0
LINE
  8
0
 10
-106.935
 20
-139.91
 11
-107.014
 21
-140.099
  0
LINE
  8
0
 10
-107.014
 20
-140.099
 11
-107.113
 21
-140.273
  0
LINE
  8
0
 10
-107.113
 20
-140.273
 11
-107.233
 21
-140.434
  0
LINE
  8
0
 10
-107.233
 20
-140.434
 11
-107.374
 21
-140.579
  0
LINE
  8
0
 10
-107.374
 20
-140.579
 11
-107.535
 21
-140.711
  0
LINE
  8
0
 10
-107.535
 20
-140.711
 11
-107.715
 21
-140.827
  0
LINE
  8
0
 10
-107.715
 20
-140.827
 11
-107.915
 21
-140.93
  0
LINE
  8
0
 10
-107.915
 20
-140.93
 11
-108.134
 21
-141.017
  0
LINE
  8
0
 10
-108.134
 20
-141.017
 11
-108.373
 21
-141.091
  0
LINE
  8
0
 10
-108.373
 20
-141.091
 11
-108.63
 21
-141.148
  0
LINE
  8
0
 10
-108.63
 20
-141.148
 11
-108.904
 21
-141.189
  0
LINE
  8
0
 10
-108.904
 20
-141.189
 11
-109.197
 21
-141.214
  0
LINE
  8
0
 10
-109.197
 20
-141.214
 11
-109.508
 21
-141.222
  0
LINE
  8
0
 10
-109.508
 20
-141.222
 11
-109.787
 21
-141.216
  0
LINE
  8
0
 10
-163.911
 20
-141.094
 11
-163.911
 21
-135.804
  0
LINE
  8
0
 10
-163.911
 20
-135.804
 11
-163.92
 21
-135.144
  0
LINE
  8
0
 10
-163.92
 20
-135.144
 11
-163.938
 21
-134.624
  0
LINE
  8
0
 10
-163.938
 20
-134.624
 11
-163.947
 21
-134.502
  0
LINE
  8
0
 10
-163.947
 20
-134.502
 11
-162.915
 21
-134.502
  0
LINE
  8
0
 10
-162.915
 20
-134.502
 11
-162.909
 21
-134.557
  0
LINE
  8
0
 10
-162.909
 20
-134.557
 11
-162.872
 21
-135.312
  0
LINE
  8
0
 10
-162.872
 20
-135.312
 11
-162.866
 21
-135.608
  0
LINE
  8
0
 10
-162.866
 20
-135.608
 11
-162.848
 21
-135.608
  0
LINE
  8
0
 10
-162.848
 20
-135.608
 11
-162.773
 21
-135.47
  0
LINE
  8
0
 10
-162.773
 20
-135.47
 11
-162.694
 21
-135.339
  0
LINE
  8
0
 10
-162.694
 20
-135.339
 11
-162.613
 21
-135.214
  0
LINE
  8
0
 10
-162.613
 20
-135.214
 11
-162.528
 21
-135.097
  0
LINE
  8
0
 10
-162.528
 20
-135.097
 11
-162.438
 21
-134.987
  0
LINE
  8
0
 10
-162.438
 20
-134.987
 11
-162.342
 21
-134.885
  0
LINE
  8
0
 10
-162.342
 20
-134.885
 11
-162.238
 21
-134.793
  0
LINE
  8
0
 10
-162.238
 20
-134.793
 11
-162.126
 21
-134.709
  0
LINE
  8
0
 10
-162.126
 20
-134.709
 11
-162.006
 21
-134.633
  0
LINE
  8
0
 10
-162.006
 20
-134.633
 11
-161.878
 21
-134.567
  0
LINE
  8
0
 10
-161.878
 20
-134.567
 11
-161.742
 21
-134.51
  0
LINE
  8
0
 10
-161.742
 20
-134.51
 11
-161.597
 21
-134.462
  0
LINE
  8
0
 10
-161.597
 20
-134.462
 11
-161.442
 21
-134.423
  0
LINE
  8
0
 10
-161.442
 20
-134.423
 11
-161.275
 21
-134.396
  0
LINE
  8
0
 10
-161.275
 20
-134.396
 11
-161.097
 21
-134.379
  0
LINE
  8
0
 10
-161.097
 20
-134.379
 11
-160.906
 21
-134.374
  0
LINE
  8
0
 10
-160.906
 20
-134.374
 11
-160.548
 21
-134.392
  0
LINE
  8
0
 10
-160.548
 20
-134.392
 11
-160.229
 21
-134.448
  0
LINE
  8
0
 10
-160.229
 20
-134.448
 11
-159.95
 21
-134.54
  0
LINE
  8
0
 10
-159.95
 20
-134.54
 11
-159.711
 21
-134.669
  0
LINE
  8
0
 10
-159.711
 20
-134.669
 11
-159.508
 21
-134.838
  0
LINE
  8
0
 10
-159.508
 20
-134.838
 11
-159.338
 21
-135.051
  0
LINE
  8
0
 10
-159.338
 20
-135.051
 11
-159.202
 21
-135.308
  0
LINE
  8
0
 10
-159.202
 20
-135.308
 11
-159.099
 21
-135.608
  0
LINE
  8
0
 10
-159.099
 20
-135.608
 11
-159.081
 21
-135.608
  0
LINE
  8
0
 10
-159.081
 20
-135.608
 11
-159.006
 21
-135.47
  0
LINE
  8
0
 10
-159.006
 20
-135.47
 11
-158.927
 21
-135.339
  0
LINE
  8
0
 10
-158.927
 20
-135.339
 11
-158.843
 21
-135.214
  0
LINE
  8
0
 10
-158.843
 20
-135.214
 11
-158.755
 21
-135.097
  0
LINE
  8
0
 10
-158.755
 20
-135.097
 11
-158.66
 21
-134.987
  0
LINE
  8
0
 10
-158.66
 20
-134.987
 11
-158.558
 21
-134.885
  0
LINE
  8
0
 10
-158.558
 20
-134.885
 11
-158.449
 21
-134.793
  0
LINE
  8
0
 10
-158.449
 20
-134.793
 11
-158.332
 21
-134.709
  0
LINE
  8
0
 10
-158.332
 20
-134.709
 11
-158.207
 21
-134.633
  0
LINE
  8
0
 10
-158.207
 20
-134.633
 11
-158.075
 21
-134.567
  0
LINE
  8
0
 10
-158.075
 20
-134.567
 11
-157.935
 21
-134.51
  0
LINE
  8
0
 10
-157.935
 20
-134.51
 11
-157.788
 21
-134.462
  0
LINE
  8
0
 10
-157.788
 20
-134.462
 11
-157.631
 21
-134.423
  0
LINE
  8
0
 10
-157.631
 20
-134.423
 11
-157.464
 21
-134.396
  0
LINE
  8
0
 10
-157.464
 20
-134.396
 11
-157.287
 21
-134.379
  0
LINE
  8
0
 10
-157.287
 20
-134.379
 11
-157.099
 21
-134.374
  0
LINE
  8
0
 10
-157.099
 20
-134.374
 11
-156.86
 21
-134.382
  0
LINE
  8
0
 10
-156.86
 20
-134.382
 11
-156.637
 21
-134.407
  0
LINE
  8
0
 10
-156.637
 20
-134.407
 11
-156.432
 21
-134.449
  0
LINE
  8
0
 10
-156.432
 20
-134.449
 11
-156.244
 21
-134.508
  0
LINE
  8
0
 10
-156.244
 20
-134.508
 11
-156.072
 21
-134.584
  0
LINE
  8
0
 10
-156.072
 20
-134.584
 11
-155.917
 21
-134.679
  0
LINE
  8
0
 10
-155.917
 20
-134.679
 11
-155.778
 21
-134.791
  0
LINE
  8
0
 10
-155.778
 20
-134.791
 11
-155.655
 21
-134.923
  0
LINE
  8
0
 10
-155.655
 20
-134.923
 11
-155.548
 21
-135.073
  0
LINE
  8
0
 10
-155.548
 20
-135.073
 11
-155.455
 21
-135.244
  0
LINE
  8
0
 10
-155.455
 20
-135.244
 11
-155.378
 21
-135.434
  0
LINE
  8
0
 10
-155.378
 20
-135.434
 11
-155.316
 21
-135.646
  0
LINE
  8
0
 10
-155.316
 20
-135.646
 11
-155.268
 21
-135.877
  0
LINE
  8
0
 10
-155.268
 20
-135.877
 11
-155.234
 21
-136.13
  0
LINE
  8
0
 10
-155.234
 20
-136.13
 11
-155.214
 21
-136.403
  0
LINE
  8
0
 10
-155.214
 20
-136.403
 11
-155.207
 21
-136.697
  0
LINE
  8
0
 10
-155.207
 20
-136.697
 11
-155.207
 21
-141.094
  0
LINE
  8
0
 10
-155.207
 20
-141.094
 11
-156.295
 21
-141.094
  0
LINE
  8
0
 10
-156.295
 20
-141.094
 11
-156.295
 21
-136.9
  0
LINE
  8
0
 10
-156.295
 20
-136.9
 11
-156.299
 21
-136.668
  0
LINE
  8
0
 10
-156.299
 20
-136.668
 11
-156.31
 21
-136.457
  0
LINE
  8
0
 10
-156.31
 20
-136.457
 11
-156.329
 21
-136.265
  0
LINE
  8
0
 10
-156.329
 20
-136.265
 11
-156.355
 21
-136.093
  0
LINE
  8
0
 10
-156.355
 20
-136.093
 11
-156.39
 21
-135.939
  0
LINE
  8
0
 10
-156.39
 20
-135.939
 11
-156.436
 21
-135.8
  0
LINE
  8
0
 10
-156.436
 20
-135.8
 11
-156.491
 21
-135.677
  0
LINE
  8
0
 10
-156.491
 20
-135.677
 11
-156.557
 21
-135.57
  0
LINE
  8
0
 10
-156.557
 20
-135.57
 11
-156.633
 21
-135.478
  0
LINE
  8
0
 10
-156.633
 20
-135.478
 11
-156.72
 21
-135.4
  0
LINE
  8
0
 10
-156.72
 20
-135.4
 11
-156.818
 21
-135.337
  0
LINE
  8
0
 10
-156.818
 20
-135.337
 11
-156.927
 21
-135.289
  0
LINE
  8
0
 10
-156.927
 20
-135.289
 11
-157.048
 21
-135.252
  0
LINE
  8
0
 10
-157.048
 20
-135.252
 11
-157.181
 21
-135.227
  0
LINE
  8
0
 10
-157.181
 20
-135.227
 11
-157.327
 21
-135.211
  0
LINE
  8
0
 10
-157.327
 20
-135.211
 11
-157.486
 21
-135.206
  0
LINE
  8
0
 10
-157.486
 20
-135.206
 11
-157.653
 21
-135.214
  0
LINE
  8
0
 10
-157.653
 20
-135.214
 11
-157.812
 21
-135.239
  0
LINE
  8
0
 10
-157.812
 20
-135.239
 11
-157.963
 21
-135.28
  0
LINE
  8
0
 10
-157.963
 20
-135.28
 11
-158.105
 21
-135.338
  0
LINE
  8
0
 10
-158.105
 20
-135.338
 11
-158.239
 21
-135.411
  0
LINE
  8
0
 10
-158.239
 20
-135.411
 11
-158.362
 21
-135.5
  0
LINE
  8
0
 10
-158.362
 20
-135.5
 11
-158.475
 21
-135.605
  0
LINE
  8
0
 10
-158.475
 20
-135.605
 11
-158.578
 21
-135.726
  0
LINE
  8
0
 10
-158.578
 20
-135.726
 11
-158.67
 21
-135.862
  0
LINE
  8
0
 10
-158.67
 20
-135.862
 11
-158.751
 21
-136.015
  0
LINE
  8
0
 10
-158.751
 20
-136.015
 11
-158.82
 21
-136.183
  0
LINE
  8
0
 10
-158.82
 20
-136.183
 11
-158.878
 21
-136.368
  0
LINE
  8
0
 10
-158.878
 20
-136.368
 11
-158.924
 21
-136.568
  0
LINE
  8
0
 10
-158.924
 20
-136.568
 11
-158.957
 21
-136.783
  0
LINE
  8
0
 10
-158.957
 20
-136.783
 11
-158.977
 21
-137.014
  0
LINE
  8
0
 10
-158.977
 20
-137.014
 11
-158.983
 21
-137.26
  0
LINE
  8
0
 10
-158.983
 20
-137.26
 11
-158.983
 21
-141.094
  0
LINE
  8
0
 10
-158.983
 20
-141.094
 11
-160.071
 21
-141.094
  0
LINE
  8
0
 10
-160.071
 20
-141.094
 11
-160.071
 21
-136.9
  0
LINE
  8
0
 10
-160.071
 20
-136.9
 11
-160.075
 21
-136.668
  0
LINE
  8
0
 10
-160.075
 20
-136.668
 11
-160.087
 21
-136.457
  0
LINE
  8
0
 10
-160.087
 20
-136.457
 11
-160.106
 21
-136.265
  0
LINE
  8
0
 10
-160.106
 20
-136.265
 11
-160.133
 21
-136.093
  0
LINE
  8
0
 10
-160.133
 20
-136.093
 11
-160.169
 21
-135.939
  0
LINE
  8
0
 10
-160.169
 20
-135.939
 11
-160.215
 21
-135.8
  0
LINE
  8
0
 10
-160.215
 20
-135.8
 11
-160.272
 21
-135.677
  0
LINE
  8
0
 10
-160.272
 20
-135.677
 11
-160.339
 21
-135.57
  0
LINE
  8
0
 10
-160.339
 20
-135.57
 11
-160.417
 21
-135.478
  0
LINE
  8
0
 10
-160.417
 20
-135.478
 11
-160.506
 21
-135.4
  0
LINE
  8
0
 10
-160.506
 20
-135.4
 11
-160.606
 21
-135.337
  0
LINE
  8
0
 10
-160.606
 20
-135.337
 11
-160.717
 21
-135.289
  0
LINE
  8
0
 10
-160.717
 20
-135.289
 11
-160.841
 21
-135.252
  0
LINE
  8
0
 10
-160.841
 20
-135.252
 11
-160.977
 21
-135.227
  0
LINE
  8
0
 10
-160.977
 20
-135.227
 11
-161.127
 21
-135.211
  0
LINE
  8
0
 10
-161.127
 20
-135.211
 11
-161.29
 21
-135.206
  0
LINE
  8
0
 10
-161.29
 20
-135.206
 11
-161.461
 21
-135.214
  0
LINE
  8
0
 10
-161.461
 20
-135.214
 11
-161.624
 21
-135.24
  0
LINE
  8
0
 10
-161.624
 20
-135.24
 11
-161.778
 21
-135.283
  0
LINE
  8
0
 10
-161.778
 20
-135.283
 11
-161.924
 21
-135.344
  0
LINE
  8
0
 10
-161.924
 20
-135.344
 11
-162.061
 21
-135.42
  0
LINE
  8
0
 10
-162.061
 20
-135.42
 11
-162.187
 21
-135.512
  0
LINE
  8
0
 10
-162.187
 20
-135.512
 11
-162.302
 21
-135.618
  0
LINE
  8
0
 10
-162.302
 20
-135.618
 11
-162.408
 21
-135.741
  0
LINE
  8
0
 10
-162.408
 20
-135.741
 11
-162.502
 21
-135.878
  0
LINE
  8
0
 10
-162.502
 20
-135.878
 11
-162.585
 21
-136.031
  0
LINE
  8
0
 10
-162.585
 20
-136.031
 11
-162.656
 21
-136.199
  0
LINE
  8
0
 10
-162.656
 20
-136.199
 11
-162.716
 21
-136.383
  0
LINE
  8
0
 10
-162.716
 20
-136.383
 11
-162.763
 21
-136.581
  0
LINE
  8
0
 10
-162.763
 20
-136.581
 11
-162.796
 21
-136.793
  0
LINE
  8
0
 10
-162.796
 20
-136.793
 11
-162.816
 21
-137.019
  0
LINE
  8
0
 10
-162.816
 20
-137.019
 11
-162.823
 21
-137.26
  0
LINE
  8
0
 10
-162.823
 20
-137.26
 11
-162.823
 21
-141.094
  0
LINE
  8
0
 10
-162.823
 20
-141.094
 11
-163.911
 21
-141.094
  0
LINE
  8
0
 10
-128.248
 20
-141.189
 11
-128.648
 21
-141.09
  0
LINE
  8
0
 10
-128.648
 20
-141.09
 11
-128.988
 21
-140.926
  0
LINE
  8
0
 10
-128.988
 20
-140.926
 11
-129.266
 21
-140.696
  0
LINE
  8
0
 10
-129.266
 20
-140.696
 11
-129.483
 21
-140.408
  0
LINE
  8
0
 10
-129.483
 20
-140.408
 11
-129.637
 21
-140.072
  0
LINE
  8
0
 10
-129.637
 20
-140.072
 11
-129.73
 21
-139.686
  0
LINE
  8
0
 10
-129.73
 20
-139.686
 11
-129.761
 21
-139.252
  0
LINE
  8
0
 10
-129.761
 20
-139.252
 11
-129.746
 21
-138.939
  0
LINE
  8
0
 10
-129.746
 20
-138.939
 11
-129.7
 21
-138.656
  0
LINE
  8
0
 10
-129.7
 20
-138.656
 11
-129.624
 21
-138.403
  0
LINE
  8
0
 10
-129.624
 20
-138.403
 11
-129.517
 21
-138.179
  0
LINE
  8
0
 10
-129.517
 20
-138.179
 11
-129.385
 21
-137.98
  0
LINE
  8
0
 10
-129.385
 20
-137.98
 11
-129.234
 21
-137.804
  0
LINE
  8
0
 10
-129.234
 20
-137.804
 11
-129.065
 21
-137.651
  0
LINE
  8
0
 10
-129.065
 20
-137.651
 11
-128.877
 21
-137.521
  0
LINE
  8
0
 10
-128.877
 20
-137.521
 11
-128.672
 21
-137.41
  0
LINE
  8
0
 10
-128.672
 20
-137.41
 11
-128.453
 21
-137.319
  0
LINE
  8
0
 10
-128.453
 20
-137.319
 11
-128.221
 21
-137.245
  0
LINE
  8
0
 10
-128.221
 20
-137.245
 11
-127.974
 21
-137.191
  0
LINE
  8
0
 10
-127.974
 20
-137.191
 11
-127.719
 21
-137.15
  0
LINE
  8
0
 10
-127.719
 20
-137.15
 11
-127.462
 21
-137.118
  0
LINE
  8
0
 10
-127.462
 20
-137.118
 11
-127.202
 21
-137.097
  0
LINE
  8
0
 10
-127.202
 20
-137.097
 11
-126.941
 21
-137.086
  0
LINE
  8
0
 10
-126.941
 20
-137.086
 11
-125.473
 21
-137.062
  0
LINE
  8
0
 10
-125.473
 20
-137.062
 11
-125.473
 21
-136.703
  0
LINE
  8
0
 10
-125.473
 20
-136.703
 11
-125.478
 21
-136.506
  0
LINE
  8
0
 10
-125.478
 20
-136.506
 11
-125.494
 21
-136.325
  0
LINE
  8
0
 10
-125.494
 20
-136.325
 11
-125.52
 21
-136.159
  0
LINE
  8
0
 10
-125.52
 20
-136.159
 11
-125.556
 21
-136.009
  0
LINE
  8
0
 10
-125.556
 20
-136.009
 11
-125.603
 21
-135.873
  0
LINE
  8
0
 10
-125.603
 20
-135.873
 11
-125.661
 21
-135.75
  0
LINE
  8
0
 10
-125.661
 20
-135.75
 11
-125.731
 21
-135.642
  0
LINE
  8
0
 10
-125.731
 20
-135.642
 11
-125.812
 21
-135.547
  0
LINE
  8
0
 10
-125.812
 20
-135.547
 11
-125.903
 21
-135.464
  0
LINE
  8
0
 10
-125.903
 20
-135.464
 11
-126.006
 21
-135.394
  0
LINE
  8
0
 10
-126.006
 20
-135.394
 11
-126.119
 21
-135.335
  0
LINE
  8
0
 10
-126.119
 20
-135.335
 11
-126.243
 21
-135.288
  0
LINE
  8
0
 10
-126.243
 20
-135.288
 11
-126.378
 21
-135.252
  0
LINE
  8
0
 10
-126.378
 20
-135.252
 11
-126.524
 21
-135.226
  0
LINE
  8
0
 10
-126.524
 20
-135.226
 11
-126.682
 21
-135.211
  0
LINE
  8
0
 10
-126.682
 20
-135.211
 11
-126.851
 21
-135.206
  0
LINE
  8
0
 10
-126.851
 20
-135.206
 11
-127.002
 21
-135.209
  0
LINE
  8
0
 10
-127.002
 20
-135.209
 11
-127.145
 21
-135.217
  0
LINE
  8
0
 10
-127.145
 20
-135.217
 11
-127.281
 21
-135.231
  0
LINE
  8
0
 10
-127.281
 20
-135.231
 11
-127.41
 21
-135.251
  0
LINE
  8
0
 10
-127.41
 20
-135.251
 11
-127.53
 21
-135.277
  0
LINE
  8
0
 10
-127.53
 20
-135.277
 11
-127.643
 21
-135.313
  0
LINE
  8
0
 10
-127.643
 20
-135.313
 11
-127.747
 21
-135.357
  0
LINE
  8
0
 10
-127.747
 20
-135.357
 11
-127.844
 21
-135.411
  0
LINE
  8
0
 10
-127.844
 20
-135.411
 11
-127.932
 21
-135.474
  0
LINE
  8
0
 10
-127.932
 20
-135.474
 11
-128.01
 21
-135.548
  0
LINE
  8
0
 10
-128.01
 20
-135.548
 11
-128.08
 21
-135.632
  0
LINE
  8
0
 10
-128.08
 20
-135.632
 11
-128.141
 21
-135.727
  0
LINE
  8
0
 10
-128.141
 20
-135.727
 11
-128.192
 21
-135.833
  0
LINE
  8
0
 10
-128.192
 20
-135.833
 11
-128.234
 21
-135.952
  0
LINE
  8
0
 10
-128.234
 20
-135.952
 11
-128.266
 21
-136.084
  0
LINE
  8
0
 10
-128.266
 20
-136.084
 11
-128.289
 21
-136.23
  0
LINE
  8
0
 10
-128.289
 20
-136.23
 11
-129.441
 21
-136.128
  0
LINE
  8
0
 10
-129.441
 20
-136.128
 11
-129.404
 21
-135.939
  0
LINE
  8
0
 10
-129.404
 20
-135.939
 11
-129.354
 21
-135.759
  0
LINE
  8
0
 10
-129.354
 20
-135.759
 11
-129.291
 21
-135.586
  0
LINE
  8
0
 10
-129.291
 20
-135.586
 11
-129.214
 21
-135.422
  0
LINE
  8
0
 10
-129.214
 20
-135.422
 11
-129.121
 21
-135.267
  0
LINE
  8
0
 10
-129.121
 20
-135.267
 11
-129.011
 21
-135.123
  0
LINE
  8
0
 10
-129.011
 20
-135.123
 11
-128.883
 21
-134.989
  0
LINE
  8
0
 10
-128.883
 20
-134.989
 11
-128.738
 21
-134.867
  0
LINE
  8
0
 10
-128.738
 20
-134.867
 11
-128.574
 21
-134.756
  0
LINE
  8
0
 10
-128.574
 20
-134.756
 11
-128.39
 21
-134.658
  0
LINE
  8
0
 10
-128.39
 20
-134.658
 11
-128.187
 21
-134.574
  0
LINE
  8
0
 10
-128.187
 20
-134.574
 11
-127.965
 21
-134.503
  0
LINE
  8
0
 10
-127.965
 20
-134.503
 11
-127.72
 21
-134.446
  0
LINE
  8
0
 10
-127.72
 20
-134.446
 11
-127.451
 21
-134.406
  0
LINE
  8
0
 10
-127.451
 20
-134.406
 11
-127.158
 21
-134.382
  0
LINE
  8
0
 10
-127.158
 20
-134.382
 11
-126.841
 21
-134.374
  0
LINE
  8
0
 10
-126.841
 20
-134.374
 11
-126.268
 21
-134.409
  0
LINE
  8
0
 10
-126.268
 20
-134.409
 11
-125.77
 21
-134.516
  0
LINE
  8
0
 10
-125.77
 20
-134.516
 11
-125.348
 21
-134.693
  0
LINE
  8
0
 10
-125.348
 20
-134.693
 11
-125.002
 21
-134.942
  0
LINE
  8
0
 10
-125.002
 20
-134.942
 11
-124.732
 21
-135.257
  0
LINE
  8
0
 10
-124.732
 20
-135.257
 11
-124.539
 21
-135.636
  0
LINE
  8
0
 10
-124.539
 20
-135.636
 11
-124.424
 21
-136.078
  0
LINE
  8
0
 10
-124.424
 20
-136.078
 11
-124.385
 21
-136.584
  0
LINE
  8
0
 10
-124.385
 20
-136.584
 11
-124.385
 21
-139.413
  0
LINE
  8
0
 10
-124.385
 20
-139.413
 11
-124.377
 21
-139.64
  0
LINE
  8
0
 10
-124.377
 20
-139.64
 11
-124.353
 21
-139.838
  0
LINE
  8
0
 10
-124.353
 20
-139.838
 11
-124.314
 21
-140.006
  0
LINE
  8
0
 10
-124.314
 20
-140.006
 11
-124.259
 21
-140.144
  0
LINE
  8
0
 10
-124.259
 20
-140.144
 11
-124.182
 21
-140.251
  0
LINE
  8
0
 10
-124.182
 20
-140.251
 11
-124.076
 21
-140.328
  0
LINE
  8
0
 10
-124.076
 20
-140.328
 11
-123.942
 21
-140.374
  0
LINE
  8
0
 10
-123.942
 20
-140.374
 11
-123.779
 21
-140.39
  0
LINE
  8
0
 10
-123.779
 20
-140.39
 11
-123.734
 21
-140.389
  0
LINE
  8
0
 10
-123.734
 20
-140.389
 11
-123.644
 21
-140.383
  0
LINE
  8
0
 10
-123.644
 20
-140.383
 11
-123.554
 21
-140.371
  0
LINE
  8
0
 10
-123.554
 20
-140.371
 11
-123.425
 21
-140.347
  0
LINE
  8
0
 10
-123.425
 20
-140.347
 11
-123.425
 21
-141.056
  0
LINE
  8
0
 10
-123.425
 20
-141.056
 11
-123.527
 21
-141.08
  0
LINE
  8
0
 10
-123.527
 20
-141.08
 11
-123.628
 21
-141.1
  0
LINE
  8
0
 10
-123.628
 20
-141.1
 11
-123.729
 21
-141.118
  0
LINE
  8
0
 10
-123.729
 20
-141.118
 11
-123.83
 21
-141.132
  0
LINE
  8
0
 10
-123.83
 20
-141.132
 11
-123.932
 21
-141.143
  0
LINE
  8
0
 10
-123.932
 20
-141.143
 11
-124.037
 21
-141.151
  0
LINE
  8
0
 10
-124.037
 20
-141.151
 11
-124.145
 21
-141.156
  0
LINE
  8
0
 10
-124.145
 20
-141.156
 11
-124.257
 21
-141.158
  0
LINE
  8
0
 10
-124.257
 20
-141.158
 11
-124.405
 21
-141.153
  0
LINE
  8
0
 10
-124.405
 20
-141.153
 11
-124.541
 21
-141.137
  0
LINE
  8
0
 10
-124.541
 20
-141.137
 11
-124.667
 21
-141.112
  0
LINE
  8
0
 10
-124.667
 20
-141.112
 11
-124.782
 21
-141.076
  0
LINE
  8
0
 10
-124.782
 20
-141.076
 11
-124.886
 21
-141.029
  0
LINE
  8
0
 10
-124.886
 20
-141.029
 11
-124.98
 21
-140.971
  0
LINE
  8
0
 10
-124.98
 20
-140.971
 11
-125.064
 21
-140.903
  0
LINE
  8
0
 10
-125.064
 20
-140.903
 11
-125.138
 21
-140.825
  0
LINE
  8
0
 10
-125.138
 20
-140.825
 11
-125.202
 21
-140.735
  0
LINE
  8
0
 10
-125.202
 20
-140.735
 11
-125.259
 21
-140.636
  0
LINE
  8
0
 10
-125.259
 20
-140.636
 11
-125.307
 21
-140.527
  0
LINE
  8
0
 10
-125.307
 20
-140.527
 11
-125.347
 21
-140.408
  0
LINE
  8
0
 10
-125.347
 20
-140.408
 11
-125.38
 21
-140.279
  0
LINE
  8
0
 10
-125.38
 20
-140.279
 11
-125.405
 21
-140.139
  0
LINE
  8
0
 10
-125.405
 20
-140.139
 11
-125.425
 21
-139.99
  0
LINE
  8
0
 10
-125.425
 20
-139.99
 11
-125.437
 21
-139.83
  0
LINE
  8
0
 10
-125.437
 20
-139.83
 11
-125.473
 21
-139.83
  0
LINE
  8
0
 10
-125.473
 20
-139.83
 11
-125.563
 21
-139.985
  0
LINE
  8
0
 10
-125.563
 20
-139.985
 11
-125.656
 21
-140.133
  0
LINE
  8
0
 10
-125.656
 20
-140.133
 11
-125.755
 21
-140.274
  0
LINE
  8
0
 10
-125.755
 20
-140.274
 11
-125.857
 21
-140.407
  0
LINE
  8
0
 10
-125.857
 20
-140.407
 11
-125.965
 21
-140.53
  0
LINE
  8
0
 10
-125.965
 20
-140.53
 11
-126.082
 21
-140.645
  0
LINE
  8
0
 10
-126.082
 20
-140.645
 11
-126.208
 21
-140.749
  0
LINE
  8
0
 10
-126.208
 20
-140.749
 11
-126.343
 21
-140.845
  0
LINE
  8
0
 10
-126.343
 20
-140.845
 11
-126.486
 21
-140.93
  0
LINE
  8
0
 10
-126.486
 20
-140.93
 11
-126.639
 21
-141.005
  0
LINE
  8
0
 10
-126.639
 20
-141.005
 11
-126.802
 21
-141.07
  0
LINE
  8
0
 10
-126.802
 20
-141.07
 11
-126.974
 21
-141.124
  0
LINE
  8
0
 10
-126.974
 20
-141.124
 11
-127.157
 21
-141.167
  0
LINE
  8
0
 10
-127.157
 20
-141.167
 11
-127.353
 21
-141.197
  0
LINE
  8
0
 10
-127.353
 20
-141.197
 11
-127.563
 21
-141.216
  0
LINE
  8
0
 10
-127.563
 20
-141.216
 11
-127.786
 21
-141.222
  0
LINE
  8
0
 10
-127.786
 20
-141.222
 11
-128.248
 21
-141.189
  0
LINE
  8
0
 10
-127.267
 20
-140.378
 11
-127.034
 21
-140.342
  0
LINE
  8
0
 10
-127.034
 20
-140.342
 11
-126.818
 21
-140.282
  0
LINE
  8
0
 10
-126.818
 20
-140.282
 11
-126.617
 21
-140.198
  0
LINE
  8
0
 10
-126.617
 20
-140.198
 11
-126.433
 21
-140.095
  0
LINE
  8
0
 10
-126.433
 20
-140.095
 11
-126.265
 21
-139.978
  0
LINE
  8
0
 10
-126.265
 20
-139.978
 11
-126.113
 21
-139.849
  0
LINE
  8
0
 10
-126.113
 20
-139.849
 11
-125.978
 21
-139.706
  0
LINE
  8
0
 10
-125.978
 20
-139.706
 11
-125.859
 21
-139.552
  0
LINE
  8
0
 10
-125.859
 20
-139.552
 11
-125.756
 21
-139.392
  0
LINE
  8
0
 10
-125.756
 20
-139.392
 11
-125.67
 21
-139.225
  0
LINE
  8
0
 10
-125.67
 20
-139.225
 11
-125.599
 21
-139.052
  0
LINE
  8
0
 10
-125.599
 20
-139.052
 11
-125.544
 21
-138.877
  0
LINE
  8
0
 10
-125.544
 20
-138.877
 11
-125.504
 21
-138.705
  0
LINE
  8
0
 10
-125.504
 20
-138.705
 11
-125.481
 21
-138.538
  0
LINE
  8
0
 10
-125.481
 20
-138.538
 11
-125.473
 21
-138.374
  0
LINE
  8
0
 10
-125.473
 20
-138.374
 11
-125.473
 21
-137.83
  0
LINE
  8
0
 10
-125.473
 20
-137.83
 11
-126.65
 21
-137.854
  0
LINE
  8
0
 10
-126.65
 20
-137.854
 11
-126.845
 21
-137.86
  0
LINE
  8
0
 10
-126.845
 20
-137.86
 11
-127.034
 21
-137.872
  0
LINE
  8
0
 10
-127.034
 20
-137.872
 11
-127.22
 21
-137.89
  0
LINE
  8
0
 10
-127.22
 20
-137.89
 11
-127.4
 21
-137.913
  0
LINE
  8
0
 10
-127.4
 20
-137.913
 11
-127.572
 21
-137.945
  0
LINE
  8
0
 10
-127.572
 20
-137.945
 11
-127.733
 21
-137.989
  0
LINE
  8
0
 10
-127.733
 20
-137.989
 11
-127.884
 21
-138.047
  0
LINE
  8
0
 10
-127.884
 20
-138.047
 11
-128.024
 21
-138.117
  0
LINE
  8
0
 10
-128.024
 20
-138.117
 11
-128.151
 21
-138.201
  0
LINE
  8
0
 10
-128.151
 20
-138.201
 11
-128.265
 21
-138.3
  0
LINE
  8
0
 10
-128.265
 20
-138.3
 11
-128.365
 21
-138.415
  0
LINE
  8
0
 10
-128.365
 20
-138.415
 11
-128.451
 21
-138.545
  0
LINE
  8
0
 10
-128.451
 20
-138.545
 11
-128.52
 21
-138.693
  0
LINE
  8
0
 10
-128.52
 20
-138.693
 11
-128.569
 21
-138.862
  0
LINE
  8
0
 10
-128.569
 20
-138.862
 11
-128.599
 21
-139.053
  0
LINE
  8
0
 10
-128.599
 20
-139.053
 11
-128.609
 21
-139.266
  0
LINE
  8
0
 10
-128.609
 20
-139.266
 11
-128.591
 21
-139.519
  0
LINE
  8
0
 10
-128.591
 20
-139.519
 11
-128.538
 21
-139.742
  0
LINE
  8
0
 10
-128.538
 20
-139.742
 11
-128.45
 21
-139.935
  0
LINE
  8
0
 10
-128.45
 20
-139.935
 11
-128.326
 21
-140.097
  0
LINE
  8
0
 10
-128.326
 20
-140.097
 11
-128.169
 21
-140.225
  0
LINE
  8
0
 10
-128.169
 20
-140.225
 11
-127.981
 21
-140.316
  0
LINE
  8
0
 10
-127.981
 20
-140.316
 11
-127.764
 21
-140.371
  0
LINE
  8
0
 10
-127.764
 20
-140.371
 11
-127.516
 21
-140.39
  0
LINE
  8
0
 10
-127.516
 20
-140.39
 11
-127.267
 21
-140.378
  0
LINE
  8
0
 10
-102.848
 20
-147.11
 11
-102.848
 21
-140.39
  0
LINE
  8
0
 10
-102.848
 20
-140.39
 11
-99.0483
 21
-140.39
  0
LINE
  8
0
 10
-99.0483
 20
-140.39
 11
-99.0483
 21
-147.11
  0
LINE
  8
0
 10
-99.0483
 20
-147.11
 11
-102.848
 21
-147.11
  0
LINE
  8
0
 10
-178.932
 20
-147.11
 11
-178.932
 21
-140.39
  0
LINE
  8
0
 10
-178.932
 20
-140.39
 11
-175.132
 21
-140.39
  0
LINE
  8
0
 10
-175.132
 20
-140.39
 11
-175.132
 21
-147.11
  0
LINE
  8
0
 10
-175.132
 20
-147.11
 11
-178.932
 21
-147.11
  0
LINE
  8
0
 10
-19.86
 20
-156.715
 11
-12.14
 21
-156.715
  0
LINE
  8
0
 10
-12.14
 20
-156.715
 11
-12.14
 21
-159.375
  0
LINE
  8
0
 10
-12.14
 20
-159.375
 11
-3.85999
 21
-159.375
  0
LINE
  8
0
 10
-3.85999
 20
-159.375
 11
-3.85999
 21
-156.715
  0
LINE
  8
0
 10
-3.85999
 20
-156.715
 11
3.85999
 21
-156.715
  0
LINE
  8
0
 10
3.85999
 20
-156.715
 11
3.85999
 21
-159.375
  0
LINE
  8
0
 10
3.85999
 20
-159.375
 11
12.14
 21
-159.375
  0
LINE
  8
0
 10
12.14
 20
-159.375
 11
12.14
 21
-156.715
  0
LINE
  8
0
 10
12.14
 20
-156.715
 11
19.86
 21
-156.715
  0
LINE
  8
0
 10
19.86
 20
-156.715
 11
19.86
 21
-159.375
  0
LINE
  8
0
 10
19.86
 20
-159.375
 11
22.465
 21
-159.375
  0
LINE
  8
0
 10
22.465
 20
-159.375
 11
22.465
 21
-156.715
  0
LINE
  8
0
 10
22.465
 20
-156.715
 11
25.125
 21
-156.715
  0
LINE
  8
0
 10
25.125
 20
-156.715
 11
25.125
 21
-154.11
  0
LINE
  8
0
 10
25.125
 20
-154.11
 11
22.465
 21
-154.11
  0
LINE
  8
0
 10
22.465
 20
-154.11
 11
22.465
 21
-147.39
  0
LINE
  8
0
 10
22.465
 20
-147.39
 11
25.125
 21
-147.39
  0
LINE
  8
0
 10
25.125
 20
-147.39
 11
25.125
 21
-140.11
  0
LINE
  8
0
 10
25.125
 20
-140.11
 11
22.465
 21
-140.11
  0
LINE
  8
0
 10
22.465
 20
-140.11
 11
22.465
 21
-133.39
  0
LINE
  8
0
 10
22.465
 20
-133.39
 11
25.125
 21
-133.39
  0
LINE
  8
0
 10
25.125
 20
-133.39
 11
25.125
 21
-126.11
  0
LINE
  8
0
 10
25.125
 20
-126.11
 11
22.465
 21
-126.11
  0
LINE
  8
0
 10
22.465
 20
-126.11
 11
22.465
 21
-119.39
  0
LINE
  8
0
 10
22.465
 20
-119.39
 11
25.125
 21
-119.39
  0
LINE
  8
0
 10
25.125
 20
-119.39
 11
25.125
 21
-116.785
  0
LINE
  8
0
 10
25.125
 20
-116.785
 11
22.465
 21
-116.785
  0
LINE
  8
0
 10
22.465
 20
-116.785
 11
22.465
 21
-114.125
  0
LINE
  8
0
 10
22.465
 20
-114.125
 11
-22.465
 21
-114.125
  0
LINE
  8
0
 10
-22.465
 20
-114.125
 11
-22.465
 21
-116.785
  0
LINE
  8
0
 10
-22.465
 20
-116.785
 11
-25.125
 21
-116.785
  0
LINE
  8
0
 10
-25.125
 20
-116.785
 11
-25.125
 21
-119.39
  0
LINE
  8
0
 10
-25.125
 20
-119.39
 11
-22.465
 21
-119.39
  0
LINE
  8
0
 10
-22.465
 20
-119.39
 11
-22.465
 21
-126.11
  0
LINE
  8
0
 10
-22.465
 20
-126.11
 11
-25.125
 21
-126.11
  0
LINE
  8
0
 10
-25.125
 20
-126.11
 11
-25.125
 21
-133.39
  0
LINE
  8
0
 10
-25.125
 20
-133.39
 11
-22.465
 21
-133.39
  0
LINE
  8
0
 10
-22.465
 20
-133.39
 11
-22.465
 21
-140.11
  0
LINE
  8
0
 10
-22.465
 20
-140.11
 11
-25.125
 21
-140.11
  0
LINE
  8
0
 10
-25.125
 20
-140.11
 11
-25.125
 21
-147.39
  0
LINE
  8
0
 10
-25.125
 20
-147.39
 11
-22.465
 21
-147.39
  0
LINE
  8
0
 10
-22.465
 20
-147.39
 11
-22.465
 21
-154.11
  0
LINE
  8
0
 10
-22.465
 20
-154.11
 11
-25.125
 21
-154.11
  0
LINE
  8
0
 10
-25.125
 20
-154.11
 11
-25.125
 21
-156.715
  0
LINE
  8
0
 10
-25.125
 20
-156.715
 11
-22.465
 21
-156.715
  0
LINE
  8
0
 10
-22.465
 20
-156.715
 11
-22.465
 21
-159.375
  0
LINE
  8
0
 10
-22.465
 20
-159.375
 11
-19.86
 21
-159.375
  0
LINE
  8
0
 10
-19.86
 20
-159.375
 11
-19.86
 21
-156.715
  0
LINE
  8
0
 10
-11.86
 20
-385.465
 11
-4.14
 21
-385.465
  0
LINE
  8
0
 10
-4.14
 20
-385.465
 11
-4.14
 21
-388.125
  0
LINE
  8
0
 10
-4.14
 20
-388.125
 11
4.13998
 21
-388.125
  0
LINE
  8
0
 10
4.13998
 20
-388.125
 11
4.13998
 21
-385.465
  0
LINE
  8
0
 10
4.13998
 20
-385.465
 11
11.86
 21
-385.465
  0
LINE
  8
0
 10
11.86
 20
-385.465
 11
11.86
 21
-388.125
  0
LINE
  8
0
 10
11.86
 20
-388.125
 11
20.14
 21
-388.125
  0
LINE
  8
0
 10
20.14
 20
-388.125
 11
20.14
 21
-385.465
  0
LINE
  8
0
 10
20.14
 20
-385.465
 11
22.465
 21
-385.465
  0
LINE
  8
0
 10
22.465
 20
-385.465
 11
22.465
 21
-376.14
  0
LINE
  8
0
 10
22.465
 20
-376.14
 11
25.125
 21
-376.14
  0
LINE
  8
0
 10
25.125
 20
-376.14
 11
25.125
 21
-363.86
  0
LINE
  8
0
 10
25.125
 20
-363.86
 11
22.465
 21
-363.86
  0
LINE
  8
0
 10
22.465
 20
-363.86
 11
22.465
 21
-352.14
  0
LINE
  8
0
 10
22.465
 20
-352.14
 11
25.125
 21
-352.14
  0
LINE
  8
0
 10
25.125
 20
-352.14
 11
25.125
 21
-339.86
  0
LINE
  8
0
 10
25.125
 20
-339.86
 11
22.465
 21
-339.86
  0
LINE
  8
0
 10
22.465
 20
-339.86
 11
22.465
 21
-328.14
  0
LINE
  8
0
 10
22.465
 20
-328.14
 11
25.125
 21
-328.14
  0
LINE
  8
0
 10
25.125
 20
-328.14
 11
25.125
 21
-315.86
  0
LINE
  8
0
 10
25.125
 20
-315.86
 11
22.465
 21
-315.86
  0
LINE
  8
0
 10
22.465
 20
-315.86
 11
22.465
 21
-313.182
  0
LINE
  8
0
 10
22.465
 20
-313.182
 11
20.14
 21
-313.182
  0
LINE
  8
0
 10
20.14
 20
-313.182
 11
20.14
 21
-309.382
  0
LINE
  8
0
 10
20.14
 20
-309.382
 11
22.465
 21
-309.382
  0
LINE
  8
0
 10
22.465
 20
-309.382
 11
22.465
 21
-304.14
  0
LINE
  8
0
 10
22.465
 20
-304.14
 11
25.125
 21
-304.14
  0
LINE
  8
0
 10
25.125
 20
-304.14
 11
25.125
 21
-291.86
  0
LINE
  8
0
 10
25.125
 20
-291.86
 11
22.465
 21
-291.86
  0
LINE
  8
0
 10
22.465
 20
-291.86
 11
22.465
 21
-280.14
  0
LINE
  8
0
 10
22.465
 20
-280.14
 11
25.125
 21
-280.14
  0
LINE
  8
0
 10
25.125
 20
-280.14
 11
25.125
 21
-267.86
  0
LINE
  8
0
 10
25.125
 20
-267.86
 11
22.465
 21
-267.86
  0
LINE
  8
0
 10
22.465
 20
-267.86
 11
22.465
 21
-256.14
  0
LINE
  8
0
 10
22.465
 20
-256.14
 11
25.125
 21
-256.14
  0
LINE
  8
0
 10
25.125
 20
-256.14
 11
25.125
 21
-243.86
  0
LINE
  8
0
 10
25.125
 20
-243.86
 11
22.465
 21
-243.86
  0
LINE
  8
0
 10
22.465
 20
-243.86
 11
22.465
 21
-237.098
  0
LINE
  8
0
 10
22.465
 20
-237.098
 11
20.14
 21
-237.098
  0
LINE
  8
0
 10
20.14
 20
-237.098
 11
20.14
 21
-233.298
  0
LINE
  8
0
 10
20.14
 20
-233.298
 11
22.465
 21
-233.298
  0
LINE
  8
0
 10
22.465
 20
-233.298
 11
22.465
 21
-232.14
  0
LINE
  8
0
 10
22.465
 20
-232.14
 11
25.125
 21
-232.14
  0
LINE
  8
0
 10
25.125
 20
-232.14
 11
25.125
 21
-219.86
  0
LINE
  8
0
 10
25.125
 20
-219.86
 11
22.465
 21
-219.86
  0
LINE
  8
0
 10
22.465
 20
-219.86
 11
22.465
 21
-208.14
  0
LINE
  8
0
 10
22.465
 20
-208.14
 11
25.125
 21
-208.14
  0
LINE
  8
0
 10
25.125
 20
-208.14
 11
25.125
 21
-195.86
  0
LINE
  8
0
 10
25.125
 20
-195.86
 11
22.465
 21
-195.86
  0
LINE
  8
0
 10
22.465
 20
-195.86
 11
22.465
 21
-184.14
  0
LINE
  8
0
 10
22.465
 20
-184.14
 11
25.125
 21
-184.14
  0
LINE
  8
0
 10
25.125
 20
-184.14
 11
25.125
 21
-171.86
  0
LINE
  8
0
 10
25.125
 20
-171.86
 11
22.465
 21
-171.86
  0
LINE
  8
0
 10
22.465
 20
-171.86
 11
22.465
 21
-162.535
  0
LINE
  8
0
 10
22.465
 20
-162.535
 11
20.14
 21
-162.535
  0
LINE
  8
0
 10
20.14
 20
-162.535
 11
20.14
 21
-159.875
  0
LINE
  8
0
 10
20.14
 20
-159.875
 11
11.86
 21
-159.875
  0
LINE
  8
0
 10
11.86
 20
-159.875
 11
11.86
 21
-162.535
  0
LINE
  8
0
 10
11.86
 20
-162.535
 11
4.14
 21
-162.535
  0
LINE
  8
0
 10
4.14
 20
-162.535
 11
4.14
 21
-159.875
  0
LINE
  8
0
 10
4.14
 20
-159.875
 11
-4.14
 21
-159.875
  0
LINE
  8
0
 10
-4.14
 20
-159.875
 11
-4.14
 21
-162.535
  0
LINE
  8
0
 10
-4.14
 20
-162.535
 11
-11.86
 21
-162.535
  0
LINE
  8
0
 10
-11.86
 20
-162.535
 11
-11.86
 21
-159.875
  0
LINE
  8
0
 10
-11.86
 20
-159.875
 11
-20.14
 21
-159.875
  0
LINE
  8
0
 10
-20.14
 20
-159.875
 11
-20.14
 21
-162.535
  0
LINE
  8
0
 10
-20.14
 20
-162.535
 11
-22.465
 21
-162.535
  0
LINE
  8
0
 10
-22.465
 20
-162.535
 11
-22.465
 21
-171.86
  0
LINE
  8
0
 10
-22.465
 20
-171.86
 11
-25.125
 21
-171.86
  0
LINE
  8
0
 10
-25.125
 20
-171.86
 11
-25.125
 21
-184.14
  0
LINE
  8
0
 10
-25.125
 20
-184.14
 11
-22.465
 21
-184.14
  0
LINE
  8
0
 10
-22.465
 20
-184.14
 11
-22.465
 21
-195.86
  0
LINE
  8
0
 10
-22.465
 20
-195.86
 11
-25.125
 21
-195.86
  0
LINE
  8
0
 10
-25.125
 20
-195.86
 11
-25.125
 21
-208.14
  0
LINE
  8
0
 10
-25.125
 20
-208.14
 11
-22.465
 21
-208.14
  0
LINE
  8
0
 10
-22.465
 20
-208.14
 11
-22.465
 21
-219.86
  0
LINE
  8
0
 10
-22.465
 20
-219.86
 11
-25.125
 21
-219.86
  0
LINE
  8
0
 10
-25.125
 20
-219.86
 11
-25.125
 21
-232.14
  0
LINE
  8
0
 10
-25.125
 20
-232.14
 11
-22.465
 21
-232.14
  0
LINE
  8
0
 10
-22.465
 20
-232.14
 11
-22.465
 21
-233.298
  0
LINE
  8
0
 10
-22.465
 20
-233.298
 11
-20.14
 21
-233.298
  0
LINE
  8
0
 10
-20.14
 20
-233.298
 11
-20.14
 21
-237.098
  0
LINE
  8
0
 10
-20.14
 20
-237.098
 11
-22.465
 21
-237.098
  0
LINE
  8
0
 10
-22.465
 20
-237.098
 11
-22.465
 21
-243.86
  0
LINE
  8
0
 10
-22.465
 20
-243.86
 11
-25.125
 21
-243.86
  0
LINE
  8
0
 10
-25.125
 20
-243.86
 11
-25.125
 21
-256.14
  0
LINE
  8
0
 10
-25.125
 20
-256.14
 11
-22.465
 21
-256.14
  0
LINE
  8
0
 10
-22.465
 20
-256.14
 11
-22.465
 21
-267.86
  0
LINE
  8
0
 10
-22.465
 20
-267.86
 11
-25.125
 21
-267.86
  0
LINE
  8
0
 10
-25.125
 20
-267.86
 11
-25.125
 21
-280.14
  0
LINE
  8
0
 10
-25.125
 20
-280.14
 11
-22.465
 21
-280.14
  0
LINE
  8
0
 10
-22.465
 20
-280.14
 11
-22.465
 21
-291.86
  0
LINE
  8
0
 10
-22.465
 20
-291.86
 11
-25.125
 21
-291.86
  0
LINE
  8
0
 10
-25.125
 20
-291.86
 11
-25.125
 21
-304.14
  0
LINE
  8
0
 10
-25.125
 20
-304.14
 11
-22.465
 21
-304.14
  0
LINE
  8
0
 10
-22.465
 20
-304.14
 11
-22.465
 21
-309.382
  0
LINE
  8
0
 10
-22.465
 20
-309.382
 11
-20.14
 21
-309.382
  0
LINE
  8
0
 10
-20.14
 20
-309.382
 11
-20.14
 21
-313.182
  0
LINE
  8
0
 10
-20.14
 20
-313.182
 11
-22.465
 21
-313.182
  0
LINE
  8
0
 10
-22.465
 20
-313.182
 11
-22.465
 21
-315.86
  0
LINE
  8
0
 10
-22.465
 20
-315.86
 11
-25.125
 21
-315.86
  0
LINE
  8
0
 10
-25.125
 20
-315.86
 11
-25.125
 21
-328.14
  0
LINE
  8
0
 10
-25.125
 20
-328.14
 11
-22.465
 21
-328.14
  0
LINE
  8
0
 10
-22.465
 20
-328.14
 11
-22.465
 21
-339.86
  0
LINE
  8
0
 10
-22.465
 20
-339.86
 11
-25.125
 21
-339.86
  0
LINE
  8
0
 10
-25.125
 20
-339.86
 11
-25.125
 21
-352.14
  0
LINE
  8
0
 10
-25.125
 20
-352.14
 11
-22.465
 21
-352.14
  0
LINE
  8
0
 10
-22.465
 20
-352.14
 11
-22.465
 21
-363.86
  0
LINE
  8
0
 10
-22.465
 20
-363.86
 11
-25.125
 21
-363.86
  0
LINE
  8
0
 10
-25.125
 20
-363.86
 11
-25.125
 21
-376.14
  0
LINE
  8
0
 10
-25.125
 20
-376.14
 11
-22.465
 21
-376.14
  0
LINE
  8
0
 10
-22.465
 20
-376.14
 11
-22.465
 21
-385.465
  0
LINE
  8
0
 10
-22.465
 20
-385.465
 11
-20.14
 21
-385.465
  0
LINE
  8
0
 10
-20.14
 20
-385.465
 11
-20.14
 21
-388.125
  0
LINE
  8
0
 10
-20.14
 20
-388.125
 11
-11.86
 21
-388.125
  0
LINE
  8
0
 10
-11.86
 20
-388.125
 11
-11.86
 21
-385.465
  0
LINE
  8
0
 10
-11.86
 20
-237.098
 11
-11.86
 21
-233.298
  0
LINE
  8
0
 10
-11.86
 20
-233.298
 11
-4.14
 21
-233.298
  0
LINE
  8
0
 10
-4.14
 20
-233.298
 11
-4.14
 21
-237.098
  0
LINE
  8
0
 10
-4.14
 20
-237.098
 11
-11.86
 21
-237.098
  0
LINE
  8
0
 10
4.13998
 20
-237.098
 11
4.13998
 21
-233.298
  0
LINE
  8
0
 10
4.13998
 20
-233.298
 11
11.86
 21
-233.298
  0
LINE
  8
0
 10
11.86
 20
-233.298
 11
11.86
 21
-237.098
  0
LINE
  8
0
 10
11.86
 20
-237.098
 11
4.13998
 21
-237.098
  0
LINE
  8
0
 10
4.13998
 20
-313.182
 11
4.13998
 21
-309.382
  0
LINE
  8
0
 10
4.13998
 20
-309.382
 11
11.86
 21
-309.382
  0
LINE
  8
0
 10
11.86
 20
-309.382
 11
11.86
 21
-313.182
  0
LINE
  8
0
 10
11.86
 20
-313.182
 11
4.13998
 21
-313.182
  0
LINE
  8
0
 10
-11.86
 20
-313.182
 11
-11.86
 21
-309.382
  0
LINE
  8
0
 10
-11.86
 20
-309.382
 11
-4.14
 21
-309.382
  0
LINE
  8
0
 10
-4.14
 20
-309.382
 11
-4.14
 21
-313.182
  0
LINE
  8
0
 10
-4.14
 20
-313.182
 11
-11.86
 21
-313.182
  0
LINE
  8
0
 10
259.64
 20
-248.215
 11
267.36
 21
-248.215
  0
LINE
  8
0
 10
267.36
 20
-248.215
 11
267.36
 21
-250.875
  0
LINE
  8
0
 10
267.36
 20
-250.875
 11
275.64
 21
-250.875
  0
LINE
  8
0
 10
275.64
 20
-250.875
 11
275.64
 21
-248.215
  0
LINE
  8
0
 10
275.64
 20
-248.215
 11
283.36
 21
-248.215
  0
LINE
  8
0
 10
283.36
 20
-248.215
 11
283.36
 21
-250.875
  0
LINE
  8
0
 10
283.36
 20
-250.875
 11
291.64
 21
-250.875
  0
LINE
  8
0
 10
291.64
 20
-250.875
 11
291.64
 21
-248.215
  0
LINE
  8
0
 10
291.64
 20
-248.215
 11
299.36
 21
-248.215
  0
LINE
  8
0
 10
299.36
 20
-248.215
 11
299.36
 21
-250.875
  0
LINE
  8
0
 10
299.36
 20
-250.875
 11
301.965
 21
-250.875
  0
LINE
  8
0
 10
301.965
 20
-250.875
 11
301.965
 21
-248.215
  0
LINE
  8
0
 10
301.965
 20
-248.215
 11
304.625
 21
-248.215
  0
LINE
  8
0
 10
304.625
 20
-248.215
 11
304.625
 21
-245.61
  0
LINE
  8
0
 10
304.625
 20
-245.61
 11
301.965
 21
-245.61
  0
LINE
  8
0
 10
301.965
 20
-245.61
 11
301.965
 21
-238.89
  0
LINE
  8
0
 10
301.965
 20
-238.89
 11
304.625
 21
-238.89
  0
LINE
  8
0
 10
304.625
 20
-238.89
 11
304.625
 21
-231.61
  0
LINE
  8
0
 10
304.625
 20
-231.61
 11
301.965
 21
-231.61
  0
LINE
  8
0
 10
301.965
 20
-231.61
 11
301.965
 21
-224.89
  0
LINE
  8
0
 10
301.965
 20
-224.89
 11
304.625
 21
-224.89
  0
LINE
  8
0
 10
304.625
 20
-224.89
 11
304.625
 21
-217.61
  0
LINE
  8
0
 10
304.625
 20
-217.61
 11
301.965
 21
-217.61
  0
LINE
  8
0
 10
301.965
 20
-217.61
 11
301.965
 21
-210.89
  0
LINE
  8
0
 10
301.965
 20
-210.89
 11
304.625
 21
-210.89
  0
LINE
  8
0
 10
304.625
 20
-210.89
 11
304.625
 21
-208.285
  0
LINE
  8
0
 10
304.625
 20
-208.285
 11
301.965
 21
-208.285
  0
LINE
  8
0
 10
301.965
 20
-208.285
 11
301.965
 21
-205.625
  0
LINE
  8
0
 10
301.965
 20
-205.625
 11
257.035
 21
-205.625
  0
LINE
  8
0
 10
257.035
 20
-205.625
 11
257.035
 21
-208.285
  0
LINE
  8
0
 10
257.035
 20
-208.285
 11
254.375
 21
-208.285
  0
LINE
  8
0
 10
254.375
 20
-208.285
 11
254.375
 21
-210.89
  0
LINE
  8
0
 10
254.375
 20
-210.89
 11
257.035
 21
-210.89
  0
LINE
  8
0
 10
257.035
 20
-210.89
 11
257.035
 21
-217.61
  0
LINE
  8
0
 10
257.035
 20
-217.61
 11
254.375
 21
-217.61
  0
LINE
  8
0
 10
254.375
 20
-217.61
 11
254.375
 21
-224.89
  0
LINE
  8
0
 10
254.375
 20
-224.89
 11
257.035
 21
-224.89
  0
LINE
  8
0
 10
257.035
 20
-224.89
 11
257.035
 21
-231.61
  0
LINE
  8
0
 10
257.035
 20
-231.61
 11
254.375
 21
-231.61
  0
LINE
  8
0
 10
254.375
 20
-231.61
 11
254.375
 21
-238.89
  0
LINE
  8
0
 10
254.375
 20
-238.89
 11
257.035
 21
-238.89
  0
LINE
  8
0
 10
257.035
 20
-238.89
 11
257.035
 21
-245.61
  0
LINE
  8
0
 10
257.035
 20
-245.61
 11
254.375
 21
-245.61
  0
LINE
  8
0
 10
254.375
 20
-245.61
 11
254.375
 21
-248.215
  0
LINE
  8
0
 10
254.375
 20
-248.215
 11
257.035
 21
-248.215
  0
LINE
  8
0
 10
257.035
 20
-248.215
 11
257.035
 21
-250.875
  0
LINE
  8
0
 10
257.035
 20
-250.875
 11
259.64
 21
-250.875
  0
LINE
  8
0
 10
259.64
 20
-250.875
 11
259.64
 21
-248.215
  0
LINE
  8
0
 10
259.64
 20
-362.34
 11
267.36
 21
-362.34
  0
LINE
  8
0
 10
267.36
 20
-362.34
 11
267.36
 21
-365
  0
LINE
  8
0
 10
267.36
 20
-365
 11
275.64
 21
-365
  0
LINE
  8
0
 10
275.64
 20
-365
 11
275.64
 21
-362.34
  0
LINE
  8
0
 10
275.64
 20
-362.34
 11
283.36
 21
-362.34
  0
LINE
  8
0
 10
283.36
 20
-362.34
 11
283.36
 21
-365
  0
LINE
  8
0
 10
283.36
 20
-365
 11
291.64
 21
-365
  0
LINE
  8
0
 10
291.64
 20
-365
 11
291.64
 21
-362.34
  0
LINE
  8
0
 10
291.64
 20
-362.34
 11
299.36
 21
-362.34
  0
LINE
  8
0
 10
299.36
 20
-362.34
 11
299.36
 21
-365
  0
LINE
  8
0
 10
299.36
 20
-365
 11
301.965
 21
-365
  0
LINE
  8
0
 10
301.965
 20
-365
 11
301.965
 21
-362.34
  0
LINE
  8
0
 10
301.965
 20
-362.34
 11
304.625
 21
-362.34
  0
LINE
  8
0
 10
304.625
 20
-362.34
 11
304.625
 21
-359.735
  0
LINE
  8
0
 10
304.625
 20
-359.735
 11
301.965
 21
-359.735
  0
LINE
  8
0
 10
301.965
 20
-359.735
 11
301.965
 21
-353.015
  0
LINE
  8
0
 10
301.965
 20
-353.015
 11
304.625
 21
-353.015
  0
LINE
  8
0
 10
304.625
 20
-353.015
 11
304.625
 21
-345.735
  0
LINE
  8
0
 10
304.625
 20
-345.735
 11
301.965
 21
-345.735
  0
LINE
  8
0
 10
301.965
 20
-345.735
 11
301.965
 21
-339.015
  0
LINE
  8
0
 10
301.965
 20
-339.015
 11
304.625
 21
-339.015
  0
LINE
  8
0
 10
304.625
 20
-339.015
 11
304.625
 21
-331.735
  0
LINE
  8
0
 10
304.625
 20
-331.735
 11
301.965
 21
-331.735
  0
LINE
  8
0
 10
301.965
 20
-331.735
 11
301.965
 21
-325.015
  0
LINE
  8
0
 10
301.965
 20
-325.015
 11
304.625
 21
-325.015
  0
LINE
  8
0
 10
304.625
 20
-325.015
 11
304.625
 21
-322.41
  0
LINE
  8
0
 10
304.625
 20
-322.41
 11
301.965
 21
-322.41
  0
LINE
  8
0
 10
301.965
 20
-322.41
 11
301.965
 21
-319.75
  0
LINE
  8
0
 10
301.965
 20
-319.75
 11
257.035
 21
-319.75
  0
LINE
  8
0
 10
257.035
 20
-319.75
 11
257.035
 21
-322.41
  0
LINE
  8
0
 10
257.035
 20
-322.41
 11
254.375
 21
-322.41
  0
LINE
  8
0
 10
254.375
 20
-322.41
 11
254.375
 21
-325.015
  0
LINE
  8
0
 10
254.375
 20
-325.015
 11
257.035
 21
-325.015
  0
LINE
  8
0
 10
257.035
 20
-325.015
 11
257.035
 21
-331.735
  0
LINE
  8
0
 10
257.035
 20
-331.735
 11
254.375
 21
-331.735
  0
LINE
  8
0
 10
254.375
 20
-331.735
 11
254.375
 21
-339.015
  0
LINE
  8
0
 10
254.375
 20
-339.015
 11
257.035
 21
-339.015
  0
LINE
  8
0
 10
257.035
 20
-339.015
 11
257.035
 21
-345.735
  0
LINE
  8
0
 10
257.035
 20
-345.735
 11
254.375
 21
-345.735
  0
LINE
  8
0
 10
254.375
 20
-345.735
 11
254.375
 21
-353.015
  0
LINE
  8
0
 10
254.375
 20
-353.015
 11
257.035
 21
-353.015
  0
LINE
  8
0
 10
257.035
 20
-353.015
 11
257.035
 21
-359.735
  0
LINE
  8
0
 10
257.035
 20
-359.735
 11
254.375
 21
-359.735
  0
LINE
  8
0
 10
254.375
 20
-359.735
 11
254.375
 21
-362.34
  0
LINE
  8
0
 10
254.375
 20
-362.34
 11
257.035
 21
-362.34
  0
LINE
  8
0
 10
257.035
 20
-362.34
 11
257.035
 21
-365
  0
LINE
  8
0
 10
257.035
 20
-365
 11
259.64
 21
-365
  0
LINE
  8
0
 10
259.64
 20
-365
 11
259.64
 21
-362.34
  0
ENDSEC
  0
SECTION
  2
OBJECTS
  0
DICTIONARY
  0
ENDSEC
  0
EOF
