  0
SECTION
  2
BLOCKS
  0
ENDSEC
  0
SECTION
  2
ENTITIES
  0
LINE
  8
0
 10
-128.11
 20
-61.715
 11
-115.39
 21
-61.715
  0
LINE
  8
0
 10
-115.39
 20
-61.715
 11
-115.39
 21
-64.375
  0
LINE
  8
0
 10
-115.39
 20
-64.375
 11
-102.11
 21
-64.375
  0
LINE
  8
0
 10
-102.11
 20
-64.375
 11
-102.11
 21
-61.715
  0
LINE
  8
0
 10
-102.11
 20
-61.715
 11
-89.39
 21
-61.715
  0
LINE
  8
0
 10
-89.39
 20
-61.715
 11
-89.39
 21
-64.375
  0
LINE
  8
0
 10
-89.39
 20
-64.375
 11
-76.11
 21
-64.375
  0
LINE
  8
0
 10
-76.11
 20
-64.375
 11
-76.11
 21
-61.715
  0
LINE
  8
0
 10
-76.11
 20
-61.715
 11
-63.39
 21
-61.715
  0
LINE
  8
0
 10
-63.39
 20
-61.715
 11
-63.39
 21
-64.375
  0
LINE
  8
0
 10
-63.39
 20
-64.375
 11
-58.285
 21
-64.375
  0
LINE
  8
0
 10
-58.285
 20
-64.375
 11
-58.285
 21
-61.715
  0
LINE
  8
0
 10
-58.285
 20
-61.715
 11
-55.625
 21
-61.715
  0
LINE
  8
0
 10
-55.625
 20
-61.715
 11
-55.625
 21
-58.11
  0
LINE
  8
0
 10
-55.625
 20
-58.11
 11
-58.285
 21
-58.11
  0
LINE
  8
0
 10
-58.285
 20
-58.11
 11
-58.285
 21
-54.39
  0
LINE
  8
0
 10
-58.285
 20
-54.39
 11
-55.625
 21
-54.39
  0
LINE
  8
0
 10
-55.625
 20
-54.39
 11
-55.625
 21
-50.11
  0
LINE
  8
0
 10
-55.625
 20
-50.11
 11
-58.285
 21
-50.11
  0
LINE
  8
0
 10
-58.285
 20
-50.11
 11
-58.285
 21
-46.39
  0
LINE
  8
0
 10
-58.285
 20
-46.39
 11
-55.625
 21
-46.39
  0
LINE
  8
0
 10
-55.625
 20
-46.39
 11
-55.625
 21
-42.785
  0
LINE
  8
0
 10
-55.625
 20
-42.785
 11
-58.285
 21
-42.785
  0
LINE
  8
0
 10
-58.285
 20
-42.785
 11
-58.285
 21
-40.125
  0
LINE
  8
0
 10
-58.285
 20
-40.125
 11
-133.215
 21
-40.125
  0
LINE
  8
0
 10
-133.215
 20
-40.125
 11
-133.215
 21
-42.785
  0
LINE
  8
0
 10
-133.215
 20
-42.785
 11
-135.875
 21
-42.785
  0
LINE
  8
0
 10
-135.875
 20
-42.785
 11
-135.875
 21
-46.39
  0
LINE
  8
0
 10
-135.875
 20
-46.39
 11
-133.215
 21
-46.39
  0
LINE
  8
0
 10
-133.215
 20
-46.39
 11
-133.215
 21
-50.11
  0
LINE
  8
0
 10
-133.215
 20
-50.11
 11
-135.875
 21
-50.11
  0
LINE
  8
0
 10
-135.875
 20
-50.11
 11
-135.875
 21
-54.39
  0
LINE
  8
0
 10
-135.875
 20
-54.39
 11
-133.215
 21
-54.39
  0
LINE
  8
0
 10
-133.215
 20
-54.39
 11
-133.215
 21
-58.11
  0
LINE
  8
0
 10
-133.215
 20
-58.11
 11
-135.875
 21
-58.11
  0
LINE
  8
0
 10
-135.875
 20
-58.11
 11
-135.875
 21
-61.715
  0
LINE
  8
0
 10
-135.875
 20
-61.715
 11
-133.215
 21
-61.715
  0
LINE
  8
0
 10
-133.215
 20
-61.715
 11
-133.215
 21
-64.375
  0
LINE
  8
0
 10
-133.215
 20
-64.375
 11
-128.11
 21
-64.375
  0
LINE
  8
0
 10
-128.11
 20
-64.375
 11
-128.11
 21
-61.715
  0
LINE
  8
0
 10
146.64
 20
-61.715
 11
164.36
 21
-61.715
  0
LINE
  8
0
 10
164.36
 20
-61.715
 11
164.36
 21
-64.375
  0
LINE
  8
0
 10
164.36
 20
-64.375
 11
182.64
 21
-64.375
  0
LINE
  8
0
 10
182.64
 20
-64.375
 11
182.64
 21
-61.715
  0
LINE
  8
0
 10
182.64
 20
-61.715
 11
200.36
 21
-61.715
  0
LINE
  8
0
 10
200.36
 20
-61.715
 11
200.36
 21
-64.375
  0
LINE
  8
0
 10
200.36
 20
-64.375
 11
218.64
 21
-64.375
  0
LINE
  8
0
 10
218.64
 20
-64.375
 11
218.64
 21
-61.715
  0
LINE
  8
0
 10
218.64
 20
-61.715
 11
236.36
 21
-61.715
  0
LINE
  8
0
 10
236.36
 20
-61.715
 11
236.36
 21
-64.375
  0
LINE
  8
0
 10
236.36
 20
-64.375
 11
243.965
 21
-64.375
  0
LINE
  8
0
 10
243.965
 20
-64.375
 11
243.965
 21
-58.39
  0
LINE
  8
0
 10
243.965
 20
-58.39
 11
246.625
 21
-58.39
  0
LINE
  8
0
 10
246.625
 20
-58.39
 11
246.625
 21
-54.11
  0
LINE
  8
0
 10
246.625
 20
-54.11
 11
243.965
 21
-54.11
  0
LINE
  8
0
 10
243.965
 20
-54.11
 11
243.965
 21
-50.39
  0
LINE
  8
0
 10
243.965
 20
-50.39
 11
246.625
 21
-50.39
  0
LINE
  8
0
 10
246.625
 20
-50.39
 11
246.625
 21
-46.11
  0
LINE
  8
0
 10
246.625
 20
-46.11
 11
243.965
 21
-46.11
  0
LINE
  8
0
 10
243.965
 20
-46.11
 11
243.965
 21
-40.125
  0
LINE
  8
0
 10
243.965
 20
-40.125
 11
139.035
 21
-40.125
  0
LINE
  8
0
 10
139.035
 20
-40.125
 11
139.035
 21
-46.11
  0
LINE
  8
0
 10
139.035
 20
-46.11
 11
136.375
 21
-46.11
  0
LINE
  8
0
 10
136.375
 20
-46.11
 11
136.375
 21
-50.39
  0
LINE
  8
0
 10
136.375
 20
-50.39
 11
139.035
 21
-50.39
  0
LINE
  8
0
 10
139.035
 20
-50.39
 11
139.035
 21
-54.11
  0
LINE
  8
0
 10
139.035
 20
-54.11
 11
136.375
 21
-54.11
  0
LINE
  8
0
 10
136.375
 20
-54.11
 11
136.375
 21
-58.39
  0
LINE
  8
0
 10
136.375
 20
-58.39
 11
139.035
 21
-58.39
  0
LINE
  8
0
 10
139.035
 20
-58.39
 11
139.035
 21
-64.375
  0
LINE
  8
0
 10
139.035
 20
-64.375
 11
146.64
 21
-64.375
  0
LINE
  8
0
 10
146.64
 20
-64.375
 11
146.64
 21
-61.715
  0
LINE
  8
0
 10
63.39
 20
-61.715
 11
76.11
 21
-61.715
  0
LINE
  8
0
 10
76.11
 20
-61.715
 11
76.11
 21
-64.375
  0
LINE
  8
0
 10
76.11
 20
-64.375
 11
89.39
 21
-64.375
  0
LINE
  8
0
 10
89.39
 20
-64.375
 11
89.39
 21
-61.715
  0
LINE
  8
0
 10
89.39
 20
-61.715
 11
102.11
 21
-61.715
  0
LINE
  8
0
 10
102.11
 20
-61.715
 11
102.11
 21
-64.375
  0
LINE
  8
0
 10
102.11
 20
-64.375
 11
115.39
 21
-64.375
  0
LINE
  8
0
 10
115.39
 20
-64.375
 11
115.39
 21
-61.715
  0
LINE
  8
0
 10
115.39
 20
-61.715
 11
128.11
 21
-61.715
  0
LINE
  8
0
 10
128.11
 20
-61.715
 11
128.11
 21
-64.375
  0
LINE
  8
0
 10
128.11
 20
-64.375
 11
133.215
 21
-64.375
  0
LINE
  8
0
 10
133.215
 20
-64.375
 11
133.215
 21
-61.715
  0
LINE
  8
0
 10
133.215
 20
-61.715
 11
135.875
 21
-61.715
  0
LINE
  8
0
 10
135.875
 20
-61.715
 11
135.875
 21
-58.11
  0
LINE
  8
0
 10
135.875
 20
-58.11
 11
133.215
 21
-58.11
  0
LINE
  8
0
 10
133.215
 20
-58.11
 11
133.215
 21
-54.39
  0
LINE
  8
0
 10
133.215
 20
-54.39
 11
135.875
 21
-54.39
  0
LINE
  8
0
 10
135.875
 20
-54.39
 11
135.875
 21
-50.11
  0
LINE
  8
0
 10
135.875
 20
-50.11
 11
133.215
 21
-50.11
  0
LINE
  8
0
 10
133.215
 20
-50.11
 11
133.215
 21
-46.39
  0
LINE
  8
0
 10
133.215
 20
-46.39
 11
135.875
 21
-46.39
  0
LINE
  8
0
 10
135.875
 20
-46.39
 11
135.875
 21
-42.785
  0
LINE
  8
0
 10
135.875
 20
-42.785
 11
133.215
 21
-42.785
  0
LINE
  8
0
 10
133.215
 20
-42.785
 11
133.215
 21
-40.125
  0
LINE
  8
0
 10
133.215
 20
-40.125
 11
58.285
 21
-40.125
  0
LINE
  8
0
 10
58.285
 20
-40.125
 11
58.285
 21
-42.785
  0
LINE
  8
0
 10
58.285
 20
-42.785
 11
55.625
 21
-42.785
  0
LINE
  8
0
 10
55.625
 20
-42.785
 11
55.625
 21
-46.39
  0
LINE
  8
0
 10
55.625
 20
-46.39
 11
58.285
 21
-46.39
  0
LINE
  8
0
 10
58.285
 20
-46.39
 11
58.285
 21
-50.11
  0
LINE
  8
0
 10
58.285
 20
-50.11
 11
55.625
 21
-50.11
  0
LINE
  8
0
 10
55.625
 20
-50.11
 11
55.625
 21
-54.39
  0
LINE
  8
0
 10
55.625
 20
-54.39
 11
58.285
 21
-54.39
  0
LINE
  8
0
 10
58.285
 20
-54.39
 11
58.285
 21
-58.11
  0
LINE
  8
0
 10
58.285
 20
-58.11
 11
55.625
 21
-58.11
  0
LINE
  8
0
 10
55.625
 20
-58.11
 11
55.625
 21
-61.715
  0
LINE
  8
0
 10
55.625
 20
-61.715
 11
58.285
 21
-61.715
  0
LINE
  8
0
 10
58.285
 20
-61.715
 11
58.285
 21
-64.375
  0
LINE
  8
0
 10
58.285
 20
-64.375
 11
63.39
 21
-64.375
  0
LINE
  8
0
 10
63.39
 20
-64.375
 11
63.39
 21
-61.715
  0
LINE
  8
0
 10
-44.86
 20
-61.715
 11
-27.14
 21
-61.715
  0
LINE
  8
0
 10
-27.14
 20
-61.715
 11
-27.14
 21
-64.375
  0
LINE
  8
0
 10
-27.14
 20
-64.375
 11
-8.85999
 21
-64.375
  0
LINE
  8
0
 10
-8.85999
 20
-64.375
 11
-8.85999
 21
-61.715
  0
LINE
  8
0
 10
-8.85999
 20
-61.715
 11
8.85999
 21
-61.715
  0
LINE
  8
0
 10
8.85999
 20
-61.715
 11
8.85999
 21
-64.375
  0
LINE
  8
0
 10
8.85999
 20
-64.375
 11
27.14
 21
-64.375
  0
LINE
  8
0
 10
27.14
 20
-64.375
 11
27.14
 21
-61.715
  0
LINE
  8
0
 10
27.14
 20
-61.715
 11
44.86
 21
-61.715
  0
LINE
  8
0
 10
44.86
 20
-61.715
 11
44.86
 21
-64.375
  0
LINE
  8
0
 10
44.86
 20
-64.375
 11
52.465
 21
-64.375
  0
LINE
  8
0
 10
52.465
 20
-64.375
 11
52.465
 21
-58.39
  0
LINE
  8
0
 10
52.465
 20
-58.39
 11
55.125
 21
-58.39
  0
LINE
  8
0
 10
55.125
 20
-58.39
 11
55.125
 21
-54.11
  0
LINE
  8
0
 10
55.125
 20
-54.11
 11
52.465
 21
-54.11
  0
LINE
  8
0
 10
52.465
 20
-54.11
 11
52.465
 21
-50.39
  0
LINE
  8
0
 10
52.465
 20
-50.39
 11
55.125
 21
-50.39
  0
LINE
  8
0
 10
55.125
 20
-50.39
 11
55.125
 21
-46.11
  0
LINE
  8
0
 10
55.125
 20
-46.11
 11
52.465
 21
-46.11
  0
LINE
  8
0
 10
52.465
 20
-46.11
 11
52.465
 21
-40.125
  0
LINE
  8
0
 10
52.465
 20
-40.125
 11
-52.465
 21
-40.125
  0
LINE
  8
0
 10
-52.465
 20
-40.125
 11
-52.465
 21
-46.11
  0
LINE
  8
0
 10
-52.465
 20
-46.11
 11
-55.125
 21
-46.11
  0
LINE
  8
0
 10
-55.125
 20
-46.11
 11
-55.125
 21
-50.39
  0
LINE
  8
0
 10
-55.125
 20
-50.39
 11
-52.465
 21
-50.39
  0
LINE
  8
0
 10
-52.465
 20
-50.39
 11
-52.465
 21
-54.11
  0
LINE
  8
0
 10
-52.465
 20
-54.11
 11
-55.125
 21
-54.11
  0
LINE
  8
0
 10
-55.125
 20
-54.11
 11
-55.125
 21
-58.39
  0
LINE
  8
0
 10
-55.125
 20
-58.39
 11
-52.465
 21
-58.39
  0
LINE
  8
0
 10
-52.465
 20
-58.39
 11
-52.465
 21
-64.375
  0
LINE
  8
0
 10
-52.465
 20
-64.375
 11
-44.86
 21
-64.375
  0
LINE
  8
0
 10
-44.86
 20
-64.375
 11
-44.86
 21
-61.715
  0
LINE
  8
0
 10
-17.2675
 20
-56.375
 11
-17.2675
 21
-47.799
  0
LINE
  8
0
 10
-17.2675
 20
-47.799
 11
-13.6555
 21
-47.799
  0
LINE
  8
0
 10
-13.6555
 20
-47.799
 11
-12.9747
 21
-47.841
  0
LINE
  8
0
 10
-12.9747
 20
-47.841
 11
-12.3753
 21
-47.967
  0
LINE
  8
0
 10
-12.3753
 20
-47.967
 11
-11.8572
 21
-48.177
  0
LINE
  8
0
 10
-11.8572
 20
-48.177
 11
-11.4205
 21
-48.471
  0
LINE
  8
0
 10
-11.4205
 20
-48.471
 11
-11.074
 21
-48.8415
  0
LINE
  8
0
 10
-11.074
 20
-48.8415
 11
-10.8265
 21
-49.281
  0
LINE
  8
0
 10
-10.8265
 20
-49.281
 11
-10.678
 21
-49.7895
  0
LINE
  8
0
 10
-10.678
 20
-49.7895
 11
-10.6285
 21
-50.367
  0
LINE
  8
0
 10
-10.6285
 20
-50.367
 11
-10.6782
 21
-50.9415
  0
LINE
  8
0
 10
-10.6782
 20
-50.9415
 11
-10.8273
 21
-51.454
  0
LINE
  8
0
 10
-10.8273
 20
-51.454
 11
-11.0757
 21
-51.9045
  0
LINE
  8
0
 10
-11.0757
 20
-51.9045
 11
-11.4235
 21
-52.293
  0
LINE
  8
0
 10
-11.4235
 20
-52.293
 11
-11.8566
 21
-52.6054
  0
LINE
  8
0
 10
-11.8566
 20
-52.6054
 11
-12.3608
 21
-52.8285
  0
LINE
  8
0
 10
-12.3608
 20
-52.8285
 11
-12.9361
 21
-52.9624
  0
LINE
  8
0
 10
-12.9361
 20
-52.9624
 11
-13.5825
 21
-53.007
  0
LINE
  8
0
 10
-13.5825
 20
-53.007
 11
-16.1035
 21
-53.007
  0
LINE
  8
0
 10
-16.1035
 20
-53.007
 11
-16.1035
 21
-56.375
  0
LINE
  8
0
 10
-16.1035
 20
-56.375
 11
-17.2675
 21
-56.375
  0
LINE
  8
0
 10
-12.8948
 20
-51.9803
 11
-12.2858
 21
-51.66
  0
LINE
  8
0
 10
-12.2858
 20
-51.66
 11
-11.9203
 21
-51.1263
  0
LINE
  8
0
 10
-11.9203
 20
-51.1263
 11
-11.7985
 21
-50.379
  0
LINE
  8
0
 10
-11.7985
 20
-50.379
 11
-11.9233
 21
-49.658
  0
LINE
  8
0
 10
-11.9233
 20
-49.658
 11
-12.2978
 21
-49.143
  0
LINE
  8
0
 10
-12.2978
 20
-49.143
 11
-12.9218
 21
-48.834
  0
LINE
  8
0
 10
-12.9218
 20
-48.834
 11
-13.7955
 21
-48.731
  0
LINE
  8
0
 10
-13.7955
 20
-48.731
 11
-16.1035
 21
-48.731
  0
LINE
  8
0
 10
-16.1035
 20
-48.731
 11
-16.1035
 21
-52.087
  0
LINE
  8
0
 10
-16.1035
 20
-52.087
 11
-13.7475
 21
-52.087
  0
LINE
  8
0
 10
-13.7475
 20
-52.087
 11
-12.8948
 21
-51.9803
  0
LINE
  8
0
 10
6.28046
 20
-56.375
 11
6.28046
 21
-51.19
  0
LINE
  8
0
 10
6.28046
 20
-51.19
 11
6.2782
 21
-50.6704
  0
LINE
  8
0
 10
6.2782
 20
-50.6704
 11
6.27145
 21
-50.2628
  0
LINE
  8
0
 10
6.27145
 20
-50.2628
 11
6.26019
 21
-49.9669
  0
LINE
  8
0
 10
6.26019
 20
-49.9669
 11
6.24445
 21
-49.783
  0
LINE
  8
0
 10
6.24445
 20
-49.783
 11
7.27945
 21
-49.783
  0
LINE
  8
0
 10
7.27945
 20
-49.783
 11
7.28545
 21
-49.839
  0
LINE
  8
0
 10
7.28545
 20
-49.839
 11
7.31213
 21
-50.3586
  0
LINE
  8
0
 10
7.31213
 20
-50.3586
 11
7.32845
 21
-50.905
  0
LINE
  8
0
 10
7.32845
 20
-50.905
 11
7.34645
 21
-50.905
  0
LINE
  8
0
 10
7.34645
 20
-50.905
 11
7.54182
 21
-50.5885
  0
LINE
  8
0
 10
7.54182
 20
-50.5885
 11
7.75195
 21
-50.322
  0
LINE
  8
0
 10
7.75195
 20
-50.322
 11
7.97682
 21
-50.1055
  0
LINE
  8
0
 10
7.97682
 20
-50.1055
 11
8.21645
 21
-49.939
  0
LINE
  8
0
 10
8.21645
 20
-49.939
 11
8.47845
 21
-49.8148
  0
LINE
  8
0
 10
8.47845
 20
-49.8148
 11
8.77045
 21
-49.726
  0
LINE
  8
0
 10
8.77045
 20
-49.726
 11
9.09245
 21
-49.6728
  0
LINE
  8
0
 10
9.09245
 20
-49.6728
 11
9.44444
 21
-49.655
  0
LINE
  8
0
 10
9.44444
 20
-49.655
 11
9.94777
 21
-49.6888
  0
LINE
  8
0
 10
9.94777
 20
-49.6888
 11
10.3787
 21
-49.79
  0
LINE
  8
0
 10
10.3787
 20
-49.79
 11
10.7373
 21
-49.9588
  0
LINE
  8
0
 10
10.7373
 20
-49.9588
 11
11.0235
 21
-50.195
  0
LINE
  8
0
 10
11.0235
 20
-50.195
 11
11.2422
 21
-50.5086
  0
LINE
  8
0
 10
11.2422
 20
-50.5086
 11
11.3985
 21
-50.9103
  0
LINE
  8
0
 10
11.3985
 20
-50.9103
 11
11.4922
 21
-51.4001
  0
LINE
  8
0
 10
11.4922
 20
-51.4001
 11
11.5235
 21
-51.978
  0
LINE
  8
0
 10
11.5235
 20
-51.978
 11
11.5235
 21
-56.375
  0
LINE
  8
0
 10
11.5235
 20
-56.375
 11
10.4205
 21
-56.375
  0
LINE
  8
0
 10
10.4205
 20
-56.375
 11
10.4205
 21
-52.191
  0
LINE
  8
0
 10
10.4205
 20
-52.191
 11
10.4125
 21
-51.8833
  0
LINE
  8
0
 10
10.4125
 20
-51.8833
 11
10.3887
 21
-51.612
  0
LINE
  8
0
 10
10.3887
 20
-51.612
 11
10.349
 21
-51.3773
  0
LINE
  8
0
 10
10.349
 20
-51.3773
 11
10.2935
 21
-51.179
  0
LINE
  8
0
 10
10.2935
 20
-51.179
 11
10.2204
 21
-51.0116
  0
LINE
  8
0
 10
10.2204
 20
-51.0116
 11
10.1284
 21
-50.8695
  0
LINE
  8
0
 10
10.1284
 20
-50.8695
 11
10.0175
 21
-50.7526
  0
LINE
  8
0
 10
10.0175
 20
-50.7526
 11
9.88745
 21
-50.661
  0
LINE
  8
0
 10
9.88745
 20
-50.661
 11
9.73219
 21
-50.5914
  0
LINE
  8
0
 10
9.73219
 20
-50.5914
 11
9.54445
 21
-50.5418
  0
LINE
  8
0
 10
9.54445
 20
-50.5418
 11
9.3242
 21
-50.5119
  0
LINE
  8
0
 10
9.3242
 20
-50.5119
 11
9.07146
 21
-50.502
  0
LINE
  8
0
 10
9.07146
 20
-50.502
 11
8.69876
 21
-50.5359
  0
LINE
  8
0
 10
8.69876
 20
-50.5359
 11
8.36771
 21
-50.6378
  0
LINE
  8
0
 10
8.36771
 20
-50.6378
 11
8.07826
 21
-50.8074
  0
LINE
  8
0
 10
8.07826
 20
-50.8074
 11
7.83044
 21
-51.045
  0
LINE
  8
0
 10
7.83044
 20
-51.045
 11
7.63226
 21
-51.3428
  0
LINE
  8
0
 10
7.63226
 20
-51.3428
 11
7.49069
 21
-51.693
  0
LINE
  8
0
 10
7.49069
 20
-51.693
 11
7.40576
 21
-52.0958
  0
LINE
  8
0
 10
7.40576
 20
-52.0958
 11
7.37746
 21
-52.551
  0
LINE
  8
0
 10
7.37746
 20
-52.551
 11
7.37746
 21
-56.375
  0
LINE
  8
0
 10
7.37746
 20
-56.375
 11
6.28046
 21
-56.375
  0
LINE
  8
0
 10
-8.11493
 20
-56.4701
 11
-8.51686
 21
-56.3715
  0
LINE
  8
0
 10
-8.51686
 20
-56.3715
 11
-8.85742
 21
-56.2071
  0
LINE
  8
0
 10
-8.85742
 20
-56.2071
 11
-9.13661
 21
-55.977
  0
LINE
  8
0
 10
-9.13661
 20
-55.977
 11
-9.35405
 21
-55.6895
  0
LINE
  8
0
 10
-9.35405
 20
-55.6895
 11
-9.50937
 21
-55.353
  0
LINE
  8
0
 10
-9.50937
 20
-55.353
 11
-9.60255
 21
-54.9675
  0
LINE
  8
0
 10
-9.60255
 20
-54.9675
 11
-9.63361
 21
-54.533
  0
LINE
  8
0
 10
-9.63361
 20
-54.533
 11
-9.59174
 21
-54.0489
  0
LINE
  8
0
 10
-9.59174
 20
-54.0489
 11
-9.46611
 21
-53.6245
  0
LINE
  8
0
 10
-9.46611
 20
-53.6245
 11
-9.25674
 21
-53.2599
  0
LINE
  8
0
 10
-9.25674
 20
-53.2599
 11
-8.96361
 21
-52.955
  0
LINE
  8
0
 10
-8.96361
 20
-52.955
 11
-8.5773
 21
-52.7116
  0
LINE
  8
0
 10
-8.5773
 20
-52.7116
 11
-8.08836
 21
-52.5325
  0
LINE
  8
0
 10
-8.08836
 20
-52.5325
 11
-7.4968
 21
-52.4176
  0
LINE
  8
0
 10
-7.4968
 20
-52.4176
 11
-6.80261
 21
-52.367
  0
LINE
  8
0
 10
-6.80261
 20
-52.367
 11
-5.32962
 21
-52.343
  0
LINE
  8
0
 10
-5.32962
 20
-52.343
 11
-5.32962
 21
-51.985
  0
LINE
  8
0
 10
-5.32962
 20
-51.985
 11
-5.3508
 21
-51.6125
  0
LINE
  8
0
 10
-5.3508
 20
-51.6125
 11
-5.41437
 21
-51.297
  0
LINE
  8
0
 10
-5.41437
 20
-51.297
 11
-5.52029
 21
-51.0385
  0
LINE
  8
0
 10
-5.52029
 20
-51.0385
 11
-5.66861
 21
-50.837
  0
LINE
  8
0
 10
-5.66861
 20
-50.837
 11
-5.8623
 21
-50.6852
  0
LINE
  8
0
 10
-5.8623
 20
-50.6852
 11
-6.10437
 21
-50.5768
  0
LINE
  8
0
 10
-6.10437
 20
-50.5768
 11
-6.39481
 21
-50.5117
  0
LINE
  8
0
 10
-6.39481
 20
-50.5117
 11
-6.73361
 21
-50.49
  0
LINE
  8
0
 10
-6.73361
 20
-50.49
 11
-7.07468
 21
-50.5053
  0
LINE
  8
0
 10
-7.07468
 20
-50.5053
 11
-7.36586
 21
-50.551
  0
LINE
  8
0
 10
-7.36586
 20
-50.551
 11
-7.60718
 21
-50.6273
  0
LINE
  8
0
 10
-7.60718
 20
-50.6273
 11
-7.79861
 21
-50.734
  0
LINE
  8
0
 10
-7.79861
 20
-50.734
 11
-7.94804
 21
-50.8737
  0
LINE
  8
0
 10
-7.94804
 20
-50.8737
 11
-8.06436
 21
-51.0498
  0
LINE
  8
0
 10
-8.06436
 20
-51.0498
 11
-8.14755
 21
-51.2622
  0
LINE
  8
0
 10
-8.14755
 20
-51.2622
 11
-8.19762
 21
-51.511
  0
LINE
  8
0
 10
-8.19762
 20
-51.511
 11
-9.34262
 21
-51.409
  0
LINE
  8
0
 10
-9.34262
 20
-51.409
 11
-9.07336
 21
-50.6416
  0
LINE
  8
0
 10
-9.07336
 20
-50.6416
 11
-8.54462
 21
-50.0935
  0
LINE
  8
0
 10
-8.54462
 20
-50.0935
 11
-7.75636
 21
-49.7646
  0
LINE
  8
0
 10
-7.75636
 20
-49.7646
 11
-6.70862
 21
-49.655
  0
LINE
  8
0
 10
-6.70862
 20
-49.655
 11
-6.12793
 21
-49.6907
  0
LINE
  8
0
 10
-6.12793
 20
-49.6907
 11
-5.62387
 21
-49.7978
  0
LINE
  8
0
 10
-5.62387
 20
-49.7978
 11
-5.19643
 21
-49.9762
  0
LINE
  8
0
 10
-5.19643
 20
-49.9762
 11
-4.84561
 21
-50.226
  0
LINE
  8
0
 10
-4.84561
 20
-50.226
 11
-4.57217
 21
-50.5429
  0
LINE
  8
0
 10
-4.57217
 20
-50.5429
 11
-4.37686
 21
-50.9235
  0
LINE
  8
0
 10
-4.37686
 20
-50.9235
 11
-4.25967
 21
-51.3679
  0
LINE
  8
0
 10
-4.25967
 20
-51.3679
 11
-4.22061
 21
-51.876
  0
LINE
  8
0
 10
-4.22061
 20
-51.876
 11
-4.22061
 21
-54.72
  0
LINE
  8
0
 10
-4.22061
 20
-54.72
 11
-4.21268
 21
-54.9489
  0
LINE
  8
0
 10
-4.21268
 20
-54.9489
 11
-4.18886
 21
-55.1477
  0
LINE
  8
0
 10
-4.18886
 20
-55.1477
 11
-4.14917
 21
-55.3164
  0
LINE
  8
0
 10
-4.14917
 20
-55.3164
 11
-4.09361
 21
-55.455
  0
LINE
  8
0
 10
-4.09361
 20
-55.455
 11
-4.01524
 21
-55.563
  0
LINE
  8
0
 10
-4.01524
 20
-55.563
 11
-3.90811
 21
-55.6402
  0
LINE
  8
0
 10
-3.90811
 20
-55.6402
 11
-3.77223
 21
-55.6866
  0
LINE
  8
0
 10
-3.77223
 20
-55.6866
 11
-3.60762
 21
-55.702
  0
LINE
  8
0
 10
-3.60762
 20
-55.702
 11
-3.52599
 21
-55.6993
  0
LINE
  8
0
 10
-3.52599
 20
-55.6993
 11
-3.43912
 21
-55.6912
  0
LINE
  8
0
 10
-3.43912
 20
-55.6912
 11
-3.34698
 21
-55.6778
  0
LINE
  8
0
 10
-3.34698
 20
-55.6778
 11
-3.24962
 21
-55.659
  0
LINE
  8
0
 10
-3.24962
 20
-55.659
 11
-3.24962
 21
-56.342
  0
LINE
  8
0
 10
-3.24962
 20
-56.342
 11
-3.45773
 21
-56.3844
  0
LINE
  8
0
 10
-3.45773
 20
-56.3844
 11
-3.66811
 21
-56.4147
  0
LINE
  8
0
 10
-3.66811
 20
-56.4147
 11
-3.88074
 21
-56.4329
  0
LINE
  8
0
 10
-3.88074
 20
-56.4329
 11
-4.09561
 21
-56.439
  0
LINE
  8
0
 10
-4.09561
 20
-56.439
 11
-4.37892
 21
-56.4191
  0
LINE
  8
0
 10
-4.37892
 20
-56.4191
 11
-4.62086
 21
-56.3592
  0
LINE
  8
0
 10
-4.62086
 20
-56.3592
 11
-4.82143
 21
-56.2596
  0
LINE
  8
0
 10
-4.82143
 20
-56.2596
 11
-4.98061
 21
-56.12
  0
LINE
  8
0
 10
-4.98061
 20
-56.12
 11
-5.10405
 21
-55.9374
  0
LINE
  8
0
 10
-5.10405
 20
-55.9374
 11
-5.19736
 21
-55.7095
  0
LINE
  8
0
 10
-5.19736
 20
-55.7095
 11
-5.26054
 21
-55.4364
  0
LINE
  8
0
 10
-5.26054
 20
-55.4364
 11
-5.29361
 21
-55.118
  0
LINE
  8
0
 10
-5.29361
 20
-55.118
 11
-5.32962
 21
-55.118
  0
LINE
  8
0
 10
-5.32962
 20
-55.118
 11
-5.54761
 21
-55.4688
  0
LINE
  8
0
 10
-5.54761
 20
-55.4688
 11
-5.78261
 21
-55.7642
  0
LINE
  8
0
 10
-5.78261
 20
-55.7642
 11
-6.03461
 21
-56.0043
  0
LINE
  8
0
 10
-6.03461
 20
-56.0043
 11
-6.30362
 21
-56.189
  0
LINE
  8
0
 10
-6.30362
 20
-56.189
 11
-6.59561
 21
-56.3264
  0
LINE
  8
0
 10
-6.59561
 20
-56.3264
 11
-6.91762
 21
-56.4245
  0
LINE
  8
0
 10
-6.91762
 20
-56.4245
 11
-7.26961
 21
-56.4834
  0
LINE
  8
0
 10
-7.26961
 20
-56.4834
 11
-7.65161
 21
-56.503
  0
LINE
  8
0
 10
-7.65161
 20
-56.503
 11
-8.11493
 21
-56.4701
  0
LINE
  8
0
 10
-7.10742
 20
-55.6627
 11
-6.83287
 21
-55.611
  0
LINE
  8
0
 10
-6.83287
 20
-55.611
 11
-6.57492
 21
-55.5247
  0
LINE
  8
0
 10
-6.57492
 20
-55.5247
 11
-6.33362
 21
-55.404
  0
LINE
  8
0
 10
-6.33362
 20
-55.404
 11
-6.11293
 21
-55.2532
  0
LINE
  8
0
 10
-6.11293
 20
-55.2532
 11
-5.91687
 21
-55.0767
  0
LINE
  8
0
 10
-5.91687
 20
-55.0767
 11
-5.74542
 21
-54.8747
  0
LINE
  8
0
 10
-5.74542
 20
-54.8747
 11
-5.59862
 21
-54.647
  0
LINE
  8
0
 10
-5.59862
 20
-54.647
 11
-5.48093
 21
-54.4047
  0
LINE
  8
0
 10
-5.48093
 20
-54.4047
 11
-5.39687
 21
-54.159
  0
LINE
  8
0
 10
-5.39687
 20
-54.159
 11
-5.34642
 21
-53.9097
  0
LINE
  8
0
 10
-5.34642
 20
-53.9097
 11
-5.32962
 21
-53.657
  0
LINE
  8
0
 10
-5.32962
 20
-53.657
 11
-5.32962
 21
-53.111
  0
LINE
  8
0
 10
-5.32962
 20
-53.111
 11
-6.52161
 21
-53.136
  0
LINE
  8
0
 10
-6.52161
 20
-53.136
 11
-6.88243
 21
-53.1504
  0
LINE
  8
0
 10
-6.88243
 20
-53.1504
 11
-7.19687
 21
-53.1817
  0
LINE
  8
0
 10
-7.19687
 20
-53.1817
 11
-7.46492
 21
-53.2299
  0
LINE
  8
0
 10
-7.46492
 20
-53.2299
 11
-7.68661
 21
-53.295
  0
LINE
  8
0
 10
-7.68661
 20
-53.295
 11
-7.87311
 21
-53.3785
  0
LINE
  8
0
 10
-7.87311
 20
-53.3785
 11
-8.03662
 21
-53.482
  0
LINE
  8
0
 10
-8.03662
 20
-53.482
 11
-8.17711
 21
-53.6055
  0
LINE
  8
0
 10
-8.17711
 20
-53.6055
 11
-8.29462
 21
-53.749
  0
LINE
  8
0
 10
-8.29462
 20
-53.749
 11
-8.38693
 21
-53.9139
  0
LINE
  8
0
 10
-8.38693
 20
-53.9139
 11
-8.45287
 21
-54.1027
  0
LINE
  8
0
 10
-8.45287
 20
-54.1027
 11
-8.49243
 21
-54.3154
  0
LINE
  8
0
 10
-8.49243
 20
-54.3154
 11
-8.50562
 21
-54.552
  0
LINE
  8
0
 10
-8.50562
 20
-54.552
 11
-8.48767
 21
-54.8062
  0
LINE
  8
0
 10
-8.48767
 20
-54.8062
 11
-8.43387
 21
-55.03
  0
LINE
  8
0
 10
-8.43387
 20
-55.03
 11
-8.34418
 21
-55.2232
  0
LINE
  8
0
 10
-8.34418
 20
-55.2232
 11
-8.21861
 21
-55.386
  0
LINE
  8
0
 10
-8.21861
 20
-55.386
 11
-8.05936
 21
-55.5146
  0
LINE
  8
0
 10
-8.05936
 20
-55.5146
 11
-7.86961
 21
-55.6065
  0
LINE
  8
0
 10
-7.86961
 20
-55.6065
 11
-7.64937
 21
-55.6616
  0
LINE
  8
0
 10
-7.64937
 20
-55.6616
 11
-7.39862
 21
-55.68
  0
LINE
  8
0
 10
-7.39862
 20
-55.68
 11
-7.10742
 21
-55.6627
  0
LINE
  8
0
 10
14.7437
 20
-56.4777
 11
14.2313
 21
-56.4017
  0
LINE
  8
0
 10
14.2313
 20
-56.4017
 11
13.7896
 21
-56.2752
  0
LINE
  8
0
 10
13.7896
 20
-56.2752
 11
13.4188
 21
-56.098
  0
LINE
  8
0
 10
13.4188
 20
-56.098
 11
13.1126
 21
-55.8667
  0
LINE
  8
0
 10
13.1126
 20
-55.8667
 11
12.865
 21
-55.5787
  0
LINE
  8
0
 10
12.865
 20
-55.5787
 11
12.6761
 21
-55.2342
  0
LINE
  8
0
 10
12.6761
 20
-55.2342
 11
12.5458
 21
-54.833
  0
LINE
  8
0
 10
12.5458
 20
-54.833
 11
13.5148
 21
-54.644
  0
LINE
  8
0
 10
13.5148
 20
-54.644
 11
13.6041
 21
-54.8913
  0
LINE
  8
0
 10
13.6041
 20
-54.8913
 11
13.731
 21
-55.1032
  0
LINE
  8
0
 10
13.731
 20
-55.1032
 11
13.8956
 21
-55.2798
  0
LINE
  8
0
 10
13.8956
 20
-55.2798
 11
14.0978
 21
-55.421
  0
LINE
  8
0
 10
14.0978
 20
-55.421
 11
14.3408
 21
-55.5291
  0
LINE
  8
0
 10
14.3408
 20
-55.5291
 11
14.6268
 21
-55.6062
  0
LINE
  8
0
 10
14.6268
 20
-55.6062
 11
14.9558
 21
-55.6526
  0
LINE
  8
0
 10
14.9558
 20
-55.6526
 11
15.3278
 21
-55.668
  0
LINE
  8
0
 10
15.3278
 20
-55.668
 11
15.7205
 21
-55.6519
  0
LINE
  8
0
 10
15.7205
 20
-55.6519
 11
16.0568
 21
-55.6035
  0
LINE
  8
0
 10
16.0568
 20
-55.6035
 11
16.3365
 21
-55.5229
  0
LINE
  8
0
 10
16.3365
 20
-55.5229
 11
16.5598
 21
-55.41
  0
LINE
  8
0
 10
16.5598
 20
-55.41
 11
16.7304
 21
-55.2649
  0
LINE
  8
0
 10
16.7304
 20
-55.2649
 11
16.8523
 21
-55.0875
  0
LINE
  8
0
 10
16.8523
 20
-55.0875
 11
16.9254
 21
-54.8779
  0
LINE
  8
0
 10
16.9254
 20
-54.8779
 11
16.9498
 21
-54.636
  0
LINE
  8
0
 10
16.9498
 20
-54.636
 11
16.9329
 21
-54.4492
  0
LINE
  8
0
 10
16.9329
 20
-54.4492
 11
16.8823
 21
-54.281
  0
LINE
  8
0
 10
16.8823
 20
-54.281
 11
16.7979
 21
-54.1312
  0
LINE
  8
0
 10
16.7979
 20
-54.1312
 11
16.6798
 21
-54
  0
LINE
  8
0
 10
16.6798
 20
-54
 11
16.5241
 21
-53.8829
  0
LINE
  8
0
 10
16.5241
 20
-53.8829
 11
16.327
 21
-53.7765
  0
LINE
  8
0
 10
16.327
 20
-53.7765
 11
16.0886
 21
-53.6809
  0
LINE
  8
0
 10
16.0886
 20
-53.6809
 11
15.8088
 21
-53.596
  0
LINE
  8
0
 10
15.8088
 20
-53.596
 11
15.0178
 21
-53.388
  0
LINE
  8
0
 10
15.0178
 20
-53.388
 11
14.5766
 21
-53.2661
  0
LINE
  8
0
 10
14.5766
 20
-53.2661
 11
14.204
 21
-53.1455
  0
LINE
  8
0
 10
14.204
 20
-53.1455
 11
13.9001
 21
-53.0261
  0
LINE
  8
0
 10
13.9001
 20
-53.0261
 11
13.6648
 21
-52.908
  0
LINE
  8
0
 10
13.6648
 20
-52.908
 11
13.4747
 21
-52.7837
  0
LINE
  8
0
 10
13.4747
 20
-52.7837
 11
13.3065
 21
-52.647
  0
LINE
  8
0
 10
13.3065
 20
-52.647
 11
13.1602
 21
-52.4977
  0
LINE
  8
0
 10
13.1602
 20
-52.4977
 11
13.0358
 21
-52.336
  0
LINE
  8
0
 10
13.0358
 20
-52.336
 11
12.9365
 21
-52.1579
  0
LINE
  8
0
 10
12.9365
 20
-52.1579
 11
12.8655
 21
-51.9608
  0
LINE
  8
0
 10
12.8655
 20
-51.9608
 11
12.823
 21
-51.7444
  0
LINE
  8
0
 10
12.823
 20
-51.7444
 11
12.8088
 21
-51.509
  0
LINE
  8
0
 10
12.8088
 20
-51.509
 11
12.8492
 21
-51.083
  0
LINE
  8
0
 10
12.8492
 20
-51.083
 11
12.9703
 21
-50.711
  0
LINE
  8
0
 10
12.9703
 20
-50.711
 11
13.1721
 21
-50.393
  0
LINE
  8
0
 10
13.1721
 20
-50.393
 11
13.4548
 21
-50.129
  0
LINE
  8
0
 10
13.4548
 20
-50.129
 11
13.8148
 21
-49.9216
  0
LINE
  8
0
 10
13.8148
 20
-49.9216
 11
14.2488
 21
-49.7735
  0
LINE
  8
0
 10
14.2488
 20
-49.7735
 11
14.7568
 21
-49.6846
  0
LINE
  8
0
 10
14.7568
 20
-49.6846
 11
15.3388
 21
-49.655
  0
LINE
  8
0
 10
15.3388
 20
-49.655
 11
15.8586
 21
-49.679
  0
LINE
  8
0
 10
15.8586
 20
-49.679
 11
16.3223
 21
-49.751
  0
LINE
  8
0
 10
16.3223
 20
-49.751
 11
16.7296
 21
-49.871
  0
LINE
  8
0
 10
16.7296
 20
-49.871
 11
17.0808
 21
-50.039
  0
LINE
  8
0
 10
17.0808
 20
-50.039
 11
17.3741
 21
-50.2599
  0
LINE
  8
0
 10
17.3741
 20
-50.2599
 11
17.6083
 21
-50.5388
  0
LINE
  8
0
 10
17.6083
 20
-50.5388
 11
17.7831
 21
-50.8754
  0
LINE
  8
0
 10
17.7831
 20
-50.8754
 11
17.8988
 21
-51.27
  0
LINE
  8
0
 10
17.8988
 20
-51.27
 11
16.9118
 21
-51.392
  0
LINE
  8
0
 10
16.9118
 20
-51.392
 11
16.8463
 21
-51.1853
  0
LINE
  8
0
 10
16.8463
 20
-51.1853
 11
16.742
 21
-51.0043
  0
LINE
  8
0
 10
16.742
 20
-51.0043
 11
16.5988
 21
-50.8488
  0
LINE
  8
0
 10
16.5988
 20
-50.8488
 11
16.4168
 21
-50.719
  0
LINE
  8
0
 10
16.4168
 20
-50.719
 11
16.1986
 21
-50.6162
  0
LINE
  8
0
 10
16.1986
 20
-50.6162
 11
15.9463
 21
-50.5428
  0
LINE
  8
0
 10
15.9463
 20
-50.5428
 11
15.6596
 21
-50.4987
  0
LINE
  8
0
 10
15.6596
 20
-50.4987
 11
15.3388
 21
-50.484
  0
LINE
  8
0
 10
15.3388
 20
-50.484
 11
14.9883
 21
-50.4982
  0
LINE
  8
0
 10
14.9883
 20
-50.4982
 11
14.687
 21
-50.5408
  0
LINE
  8
0
 10
14.687
 20
-50.5408
 11
14.4348
 21
-50.6117
  0
LINE
  8
0
 10
14.4348
 20
-50.6117
 11
14.2318
 21
-50.711
  0
LINE
  8
0
 10
14.2318
 20
-50.711
 11
14.076
 21
-50.8391
  0
LINE
  8
0
 10
14.076
 20
-50.8391
 11
13.9648
 21
-50.9965
  0
LINE
  8
0
 10
13.9648
 20
-50.9965
 11
13.898
 21
-51.1831
  0
LINE
  8
0
 10
13.898
 20
-51.1831
 11
13.8758
 21
-51.399
  0
LINE
  8
0
 10
13.8758
 20
-51.399
 11
13.885
 21
-51.5339
  0
LINE
  8
0
 10
13.885
 20
-51.5339
 11
13.9125
 21
-51.6565
  0
LINE
  8
0
 10
13.9125
 20
-51.6565
 11
13.9585
 21
-51.7669
  0
LINE
  8
0
 10
13.9585
 20
-51.7669
 11
14.0228
 21
-51.865
  0
LINE
  8
0
 10
14.0228
 20
-51.865
 11
14.1051
 21
-51.9531
  0
LINE
  8
0
 10
14.1051
 20
-51.9531
 11
14.205
 21
-52.0345
  0
LINE
  8
0
 10
14.205
 20
-52.0345
 11
14.3226
 21
-52.1091
  0
LINE
  8
0
 10
14.3226
 20
-52.1091
 11
14.4578
 21
-52.177
  0
LINE
  8
0
 10
14.4578
 20
-52.177
 11
14.6421
 21
-52.2471
  0
LINE
  8
0
 10
14.6421
 20
-52.2471
 11
14.906
 21
-52.3295
  0
LINE
  8
0
 10
14.906
 20
-52.3295
 11
15.2496
 21
-52.4241
  0
LINE
  8
0
 10
15.2496
 20
-52.4241
 11
15.6728
 21
-52.531
  0
LINE
  8
0
 10
15.6728
 20
-52.531
 11
16.0806
 21
-52.6389
  0
LINE
  8
0
 10
16.0806
 20
-52.6389
 11
16.427
 21
-52.7427
  0
LINE
  8
0
 10
16.427
 20
-52.7427
 11
16.7121
 21
-52.8424
  0
LINE
  8
0
 10
16.7121
 20
-52.8424
 11
16.9358
 21
-52.938
  0
LINE
  8
0
 10
16.9358
 20
-52.938
 11
17.1191
 21
-53.034
  0
LINE
  8
0
 10
17.1191
 20
-53.034
 11
17.282
 21
-53.135
  0
LINE
  8
0
 10
17.282
 20
-53.135
 11
17.4246
 21
-53.241
  0
LINE
  8
0
 10
17.4246
 20
-53.241
 11
17.5468
 21
-53.352
  0
LINE
  8
0
 10
17.5468
 20
-53.352
 11
17.6524
 21
-53.4694
  0
LINE
  8
0
 10
17.6524
 20
-53.4694
 11
17.7453
 21
-53.5957
  0
LINE
  8
0
 10
17.7453
 20
-53.5957
 11
17.8254
 21
-53.7309
  0
LINE
  8
0
 10
17.8254
 20
-53.7309
 11
17.8928
 21
-53.875
  0
LINE
  8
0
 10
17.8928
 20
-53.875
 11
17.9466
 21
-54.0282
  0
LINE
  8
0
 10
17.9466
 20
-54.0282
 11
17.985
 21
-54.192
  0
LINE
  8
0
 10
17.985
 20
-54.192
 11
18.0081
 21
-54.3662
  0
LINE
  8
0
 10
18.0081
 20
-54.3662
 11
18.0158
 21
-54.551
  0
LINE
  8
0
 10
18.0158
 20
-54.551
 11
17.9715
 21
-54.9922
  0
LINE
  8
0
 10
17.9715
 20
-54.9922
 11
17.8388
 21
-55.38
  0
LINE
  8
0
 10
17.8388
 20
-55.38
 11
17.6175
 21
-55.7142
  0
LINE
  8
0
 10
17.6175
 20
-55.7142
 11
17.3078
 21
-55.995
  0
LINE
  8
0
 10
17.3078
 20
-55.995
 11
16.9188
 21
-56.2172
  0
LINE
  8
0
 10
16.9188
 20
-56.2172
 11
16.459
 21
-56.376
  0
LINE
  8
0
 10
16.459
 20
-56.376
 11
15.9283
 21
-56.4712
  0
LINE
  8
0
 10
15.9283
 20
-56.4712
 11
15.3268
 21
-56.503
  0
LINE
  8
0
 10
15.3268
 20
-56.503
 11
14.7437
 21
-56.4777
  0
LINE
  8
0
 10
-1.55229
 20
-56.375
 11
-3.40129
 21
-49.783
  0
LINE
  8
0
 10
-3.40129
 20
-49.783
 11
-2.31729
 21
-49.783
  0
LINE
  8
0
 10
-2.31729
 20
-49.783
 11
-1.16673
 21
-54.3911
  0
LINE
  8
0
 10
-1.16673
 20
-54.3911
 11
-1.11205
 21
-54.6355
  0
LINE
  8
0
 10
-1.11205
 20
-54.6355
 11
-0.936295
 21
-55.467
  0
LINE
  8
0
 10
-0.936295
 20
-55.467
 11
-0.832291
 21
-55.016
  0
LINE
  8
0
 10
-0.832291
 20
-55.016
 11
0.546692
 21
-49.783
  0
LINE
  8
0
 10
0.546692
 20
-49.783
 11
1.72269
 21
-49.783
  0
LINE
  8
0
 10
1.72269
 20
-49.783
 11
2.87569
 21
-54.309
  0
LINE
  8
0
 10
2.87569
 20
-54.309
 11
3.15669
 21
-55.467
  0
LINE
  8
0
 10
3.15669
 20
-55.467
 11
3.34569
 21
-54.62
  0
LINE
  8
0
 10
3.34569
 20
-54.62
 11
4.59869
 21
-49.783
  0
LINE
  8
0
 10
4.59869
 20
-49.783
 11
5.67068
 21
-49.783
  0
LINE
  8
0
 10
5.67068
 20
-49.783
 11
3.77769
 21
-56.375
  0
LINE
  8
0
 10
3.77769
 20
-56.375
 11
2.50369
 21
-56.375
  0
LINE
  8
0
 10
2.50369
 20
-56.375
 11
1.35168
 21
-51.714
  0
LINE
  8
0
 10
1.35168
 20
-51.714
 11
1.1317
 21
-50.684
  0
LINE
  8
0
 10
1.1317
 20
-50.684
 11
1.06145
 21
-51.0183
  0
LINE
  8
0
 10
1.06145
 20
-51.0183
 11
0.960693
 21
-51.473
  0
LINE
  8
0
 10
0.960693
 20
-51.473
 11
0.839386
 21
-51.9725
  0
LINE
  8
0
 10
0.839386
 20
-51.9725
 11
0.591446
 21
-52.956
  0
LINE
  8
0
 10
0.591446
 20
-52.956
 11
0.216873
 21
-54.4235
  0
LINE
  8
0
 10
0.216873
 20
-54.4235
 11
-0.284286
 21
-56.375
  0
LINE
  8
0
 10
-0.284286
 20
-56.375
 11
-1.55229
 21
-56.375
  0
LINE
  8
0
 10
-26.86
 20
-142.465
 11
-9.14
 21
-142.465
  0
LINE
  8
0
 10
-9.14
 20
-142.465
 11
-9.14
 21
-145.125
  0
LINE
  8
0
 10
-9.14
 20
-145.125
 11
9.13998
 21
-145.125
  0
LINE
  8
0
 10
9.13998
 20
-145.125
 11
9.13998
 21
-142.465
  0
LINE
  8
0
 10
9.13998
 20
-142.465
 11
26.86
 21
-142.465
  0
LINE
  8
0
 10
26.86
 20
-142.465
 11
26.86
 21
-145.125
  0
LINE
  8
0
 10
26.86
 20
-145.125
 11
45.14
 21
-145.125
  0
LINE
  8
0
 10
45.14
 20
-145.125
 11
45.14
 21
-142.465
  0
LINE
  8
0
 10
45.14
 20
-142.465
 11
52.465
 21
-142.465
  0
LINE
  8
0
 10
52.465
 20
-142.465
 11
52.465
 21
-137.64
  0
LINE
  8
0
 10
52.465
 20
-137.64
 11
55.125
 21
-137.64
  0
LINE
  8
0
 10
55.125
 20
-137.64
 11
55.125
 21
-124.36
  0
LINE
  8
0
 10
55.125
 20
-124.36
 11
52.465
 21
-124.36
  0
LINE
  8
0
 10
52.465
 20
-124.36
 11
52.465
 21
-111.64
  0
LINE
  8
0
 10
52.465
 20
-111.64
 11
55.125
 21
-111.64
  0
LINE
  8
0
 10
55.125
 20
-111.64
 11
55.125
 21
-98.36
  0
LINE
  8
0
 10
55.125
 20
-98.36
 11
52.465
 21
-98.36
  0
LINE
  8
0
 10
52.465
 20
-98.36
 11
52.465
 21
-85.64
  0
LINE
  8
0
 10
52.465
 20
-85.64
 11
55.125
 21
-85.64
  0
LINE
  8
0
 10
55.125
 20
-85.64
 11
55.125
 21
-72.36
  0
LINE
  8
0
 10
55.125
 20
-72.36
 11
52.465
 21
-72.36
  0
LINE
  8
0
 10
52.465
 20
-72.36
 11
52.465
 21
-67.535
  0
LINE
  8
0
 10
52.465
 20
-67.535
 11
45.14
 21
-67.535
  0
LINE
  8
0
 10
45.14
 20
-67.535
 11
45.14
 21
-64.875
  0
LINE
  8
0
 10
45.14
 20
-64.875
 11
26.86
 21
-64.875
  0
LINE
  8
0
 10
26.86
 20
-64.875
 11
26.86
 21
-67.535
  0
LINE
  8
0
 10
26.86
 20
-67.535
 11
9.14
 21
-67.535
  0
LINE
  8
0
 10
9.14
 20
-67.535
 11
9.14
 21
-64.875
  0
LINE
  8
0
 10
9.14
 20
-64.875
 11
-9.14
 21
-64.875
  0
LINE
  8
0
 10
-9.14
 20
-64.875
 11
-9.14
 21
-67.535
  0
LINE
  8
0
 10
-9.14
 20
-67.535
 11
-26.86
 21
-67.535
  0
LINE
  8
0
 10
-26.86
 20
-67.535
 11
-26.86
 21
-64.875
  0
LINE
  8
0
 10
-26.86
 20
-64.875
 11
-45.14
 21
-64.875
  0
LINE
  8
0
 10
-45.14
 20
-64.875
 11
-45.14
 21
-67.535
  0
LINE
  8
0
 10
-45.14
 20
-67.535
 11
-52.465
 21
-67.535
  0
LINE
  8
0
 10
-52.465
 20
-67.535
 11
-52.465
 21
-72.36
  0
LINE
  8
0
 10
-52.465
 20
-72.36
 11
-55.125
 21
-72.36
  0
LINE
  8
0
 10
-55.125
 20
-72.36
 11
-55.125
 21
-85.64
  0
LINE
  8
0
 10
-55.125
 20
-85.64
 11
-52.465
 21
-85.64
  0
LINE
  8
0
 10
-52.465
 20
-85.64
 11
-52.465
 21
-98.36
  0
LINE
  8
0
 10
-52.465
 20
-98.36
 11
-55.125
 21
-98.36
  0
LINE
  8
0
 10
-55.125
 20
-98.36
 11
-55.125
 21
-111.64
  0
LINE
  8
0
 10
-55.125
 20
-111.64
 11
-52.465
 21
-111.64
  0
LINE
  8
0
 10
-52.465
 20
-111.64
 11
-52.465
 21
-124.36
  0
LINE
  8
0
 10
-52.465
 20
-124.36
 11
-55.125
 21
-124.36
  0
LINE
  8
0
 10
-55.125
 20
-124.36
 11
-55.125
 21
-137.64
  0
LINE
  8
0
 10
-55.125
 20
-137.64
 11
-52.465
 21
-137.64
  0
LINE
  8
0
 10
-52.465
 20
-137.64
 11
-52.465
 21
-142.465
  0
LINE
  8
0
 10
-52.465
 20
-142.465
 11
-45.14
 21
-142.465
  0
LINE
  8
0
 10
-45.14
 20
-142.465
 11
-45.14
 21
-145.125
  0
LINE
  8
0
 10
-45.14
 20
-145.125
 11
-26.86
 21
-145.125
  0
LINE
  8
0
 10
-26.86
 20
-145.125
 11
-26.86
 21
-142.465
  0
ENDSEC
  0
SECTION
  2
OBJECTS
  0
DICTIONARY
  0
ENDSEC
  0
EOF
