  0
SECTION
  2
BLOCKS
  0
ENDSEC
  0
SECTION
  2
ENTITIES
  0
LINE
  8
0
 10
347.64
 20
-156.715
 11
359.36
 21
-156.715
  0
LINE
  8
0
 10
359.36
 20
-156.715
 11
359.36
 21
-159.375
  0
LINE
  8
0
 10
359.36
 20
-159.375
 11
371.64
 21
-159.375
  0
LINE
  8
0
 10
371.64
 20
-159.375
 11
371.64
 21
-156.715
  0
LINE
  8
0
 10
371.64
 20
-156.715
 11
383.36
 21
-156.715
  0
LINE
  8
0
 10
383.36
 20
-156.715
 11
383.36
 21
-159.375
  0
LINE
  8
0
 10
383.36
 20
-159.375
 11
395.64
 21
-159.375
  0
LINE
  8
0
 10
395.64
 20
-159.375
 11
395.64
 21
-156.715
  0
LINE
  8
0
 10
395.64
 20
-156.715
 11
407.36
 21
-156.715
  0
LINE
  8
0
 10
407.36
 20
-156.715
 11
407.36
 21
-159.375
  0
LINE
  8
0
 10
407.36
 20
-159.375
 11
415.535
 21
-159.375
  0
LINE
  8
0
 10
415.535
 20
-159.375
 11
415.535
 21
-156.715
  0
LINE
  8
0
 10
415.535
 20
-156.715
 11
419.335
 21
-156.715
  0
LINE
  8
0
 10
419.335
 20
-156.715
 11
419.335
 21
-159.375
  0
LINE
  8
0
 10
419.335
 20
-159.375
 11
419.64
 21
-159.375
  0
LINE
  8
0
 10
419.64
 20
-159.375
 11
419.64
 21
-156.715
  0
LINE
  8
0
 10
419.64
 20
-156.715
 11
431.36
 21
-156.715
  0
LINE
  8
0
 10
431.36
 20
-156.715
 11
431.36
 21
-159.375
  0
LINE
  8
0
 10
431.36
 20
-159.375
 11
443.64
 21
-159.375
  0
LINE
  8
0
 10
443.64
 20
-159.375
 11
443.64
 21
-156.715
  0
LINE
  8
0
 10
443.64
 20
-156.715
 11
455.36
 21
-156.715
  0
LINE
  8
0
 10
455.36
 20
-156.715
 11
455.36
 21
-159.375
  0
LINE
  8
0
 10
455.36
 20
-159.375
 11
457.185
 21
-159.375
  0
LINE
  8
0
 10
457.185
 20
-159.375
 11
457.185
 21
-156.715
  0
LINE
  8
0
 10
457.185
 20
-156.715
 11
460.985
 21
-156.715
  0
LINE
  8
0
 10
460.985
 20
-156.715
 11
460.985
 21
-159.375
  0
LINE
  8
0
 10
460.985
 20
-159.375
 11
467.64
 21
-159.375
  0
LINE
  8
0
 10
467.64
 20
-159.375
 11
467.64
 21
-156.715
  0
LINE
  8
0
 10
467.64
 20
-156.715
 11
479.36
 21
-156.715
  0
LINE
  8
0
 10
479.36
 20
-156.715
 11
479.36
 21
-159.375
  0
LINE
  8
0
 10
479.36
 20
-159.375
 11
491.64
 21
-159.375
  0
LINE
  8
0
 10
491.64
 20
-159.375
 11
491.64
 21
-156.715
  0
LINE
  8
0
 10
491.64
 20
-156.715
 11
503.36
 21
-156.715
  0
LINE
  8
0
 10
503.36
 20
-156.715
 11
503.36
 21
-159.375
  0
LINE
  8
0
 10
503.36
 20
-159.375
 11
515.64
 21
-159.375
  0
LINE
  8
0
 10
515.64
 20
-159.375
 11
515.64
 21
-156.715
  0
LINE
  8
0
 10
515.64
 20
-156.715
 11
527.36
 21
-156.715
  0
LINE
  8
0
 10
527.36
 20
-156.715
 11
527.36
 21
-159.375
  0
LINE
  8
0
 10
527.36
 20
-159.375
 11
538.965
 21
-159.375
  0
LINE
  8
0
 10
538.965
 20
-159.375
 11
538.965
 21
-156.715
  0
LINE
  8
0
 10
538.965
 20
-156.715
 11
541.625
 21
-156.715
  0
LINE
  8
0
 10
541.625
 20
-156.715
 11
541.625
 21
-154.11
  0
LINE
  8
0
 10
541.625
 20
-154.11
 11
538.965
 21
-154.11
  0
LINE
  8
0
 10
538.965
 20
-154.11
 11
538.965
 21
-147.39
  0
LINE
  8
0
 10
538.965
 20
-147.39
 11
541.625
 21
-147.39
  0
LINE
  8
0
 10
541.625
 20
-147.39
 11
541.625
 21
-140.11
  0
LINE
  8
0
 10
541.625
 20
-140.11
 11
538.965
 21
-140.11
  0
LINE
  8
0
 10
538.965
 20
-140.11
 11
538.965
 21
-133.39
  0
LINE
  8
0
 10
538.965
 20
-133.39
 11
541.625
 21
-133.39
  0
LINE
  8
0
 10
541.625
 20
-133.39
 11
541.625
 21
-126.11
  0
LINE
  8
0
 10
541.625
 20
-126.11
 11
538.965
 21
-126.11
  0
LINE
  8
0
 10
538.965
 20
-126.11
 11
538.965
 21
-119.39
  0
LINE
  8
0
 10
538.965
 20
-119.39
 11
541.625
 21
-119.39
  0
LINE
  8
0
 10
541.625
 20
-119.39
 11
541.625
 21
-116.785
  0
LINE
  8
0
 10
541.625
 20
-116.785
 11
538.965
 21
-116.785
  0
LINE
  8
0
 10
538.965
 20
-116.785
 11
538.965
 21
-114.125
  0
LINE
  8
0
 10
538.965
 20
-114.125
 11
502.635
 21
-114.125
  0
LINE
  8
0
 10
502.635
 20
-114.125
 11
502.635
 21
-116.785
  0
LINE
  8
0
 10
502.635
 20
-116.785
 11
498.835
 21
-116.785
  0
LINE
  8
0
 10
498.835
 20
-116.785
 11
498.835
 21
-114.125
  0
LINE
  8
0
 10
498.835
 20
-114.125
 11
460.985
 21
-114.125
  0
LINE
  8
0
 10
460.985
 20
-114.125
 11
460.985
 21
-116.785
  0
LINE
  8
0
 10
460.985
 20
-116.785
 11
457.185
 21
-116.785
  0
LINE
  8
0
 10
457.185
 20
-116.785
 11
457.185
 21
-114.125
  0
LINE
  8
0
 10
457.185
 20
-114.125
 11
419.335
 21
-114.125
  0
LINE
  8
0
 10
419.335
 20
-114.125
 11
419.335
 21
-116.785
  0
LINE
  8
0
 10
419.335
 20
-116.785
 11
415.535
 21
-116.785
  0
LINE
  8
0
 10
415.535
 20
-116.785
 11
415.535
 21
-114.125
  0
LINE
  8
0
 10
415.535
 20
-114.125
 11
377.685
 21
-114.125
  0
LINE
  8
0
 10
377.685
 20
-114.125
 11
377.685
 21
-116.785
  0
LINE
  8
0
 10
377.685
 20
-116.785
 11
373.885
 21
-116.785
  0
LINE
  8
0
 10
373.885
 20
-116.785
 11
373.885
 21
-114.125
  0
LINE
  8
0
 10
373.885
 20
-114.125
 11
336.035
 21
-114.125
  0
LINE
  8
0
 10
336.035
 20
-114.125
 11
336.035
 21
-116.785
  0
LINE
  8
0
 10
336.035
 20
-116.785
 11
333.375
 21
-116.785
  0
LINE
  8
0
 10
333.375
 20
-116.785
 11
333.375
 21
-119.39
  0
LINE
  8
0
 10
333.375
 20
-119.39
 11
336.035
 21
-119.39
  0
LINE
  8
0
 10
336.035
 20
-119.39
 11
336.035
 21
-126.11
  0
LINE
  8
0
 10
336.035
 20
-126.11
 11
333.375
 21
-126.11
  0
LINE
  8
0
 10
333.375
 20
-126.11
 11
333.375
 21
-133.39
  0
LINE
  8
0
 10
333.375
 20
-133.39
 11
336.035
 21
-133.39
  0
LINE
  8
0
 10
336.035
 20
-133.39
 11
336.035
 21
-140.11
  0
LINE
  8
0
 10
336.035
 20
-140.11
 11
333.375
 21
-140.11
  0
LINE
  8
0
 10
333.375
 20
-140.11
 11
333.375
 21
-147.39
  0
LINE
  8
0
 10
333.375
 20
-147.39
 11
336.035
 21
-147.39
  0
LINE
  8
0
 10
336.035
 20
-147.39
 11
336.035
 21
-154.11
  0
LINE
  8
0
 10
336.035
 20
-154.11
 11
333.375
 21
-154.11
  0
LINE
  8
0
 10
333.375
 20
-154.11
 11
333.375
 21
-156.715
  0
LINE
  8
0
 10
333.375
 20
-156.715
 11
336.035
 21
-156.715
  0
LINE
  8
0
 10
336.035
 20
-156.715
 11
336.035
 21
-159.375
  0
LINE
  8
0
 10
336.035
 20
-159.375
 11
347.64
 21
-159.375
  0
LINE
  8
0
 10
347.64
 20
-159.375
 11
347.64
 21
-156.715
  0
LINE
  8
0
 10
373.885
 20
-126.11
 11
373.885
 21
-119.39
  0
LINE
  8
0
 10
373.885
 20
-119.39
 11
377.685
 21
-119.39
  0
LINE
  8
0
 10
377.685
 20
-119.39
 11
377.685
 21
-126.11
  0
LINE
  8
0
 10
377.685
 20
-126.11
 11
373.885
 21
-126.11
  0
LINE
  8
0
 10
415.535
 20
-126.11
 11
415.535
 21
-119.39
  0
LINE
  8
0
 10
415.535
 20
-119.39
 11
419.335
 21
-119.39
  0
LINE
  8
0
 10
419.335
 20
-119.39
 11
419.335
 21
-126.11
  0
LINE
  8
0
 10
419.335
 20
-126.11
 11
415.535
 21
-126.11
  0
LINE
  8
0
 10
457.185
 20
-126.11
 11
457.185
 21
-119.39
  0
LINE
  8
0
 10
457.185
 20
-119.39
 11
460.985
 21
-119.39
  0
LINE
  8
0
 10
460.985
 20
-119.39
 11
460.985
 21
-126.11
  0
LINE
  8
0
 10
460.985
 20
-126.11
 11
457.185
 21
-126.11
  0
LINE
  8
0
 10
498.835
 20
-126.11
 11
498.835
 21
-119.39
  0
LINE
  8
0
 10
498.835
 20
-119.39
 11
502.635
 21
-119.39
  0
LINE
  8
0
 10
502.635
 20
-119.39
 11
502.635
 21
-126.11
  0
LINE
  8
0
 10
502.635
 20
-126.11
 11
498.835
 21
-126.11
  0
LINE
  8
0
 10
373.885
 20
-140.11
 11
373.885
 21
-133.39
  0
LINE
  8
0
 10
373.885
 20
-133.39
 11
377.685
 21
-133.39
  0
LINE
  8
0
 10
377.685
 20
-133.39
 11
377.685
 21
-140.11
  0
LINE
  8
0
 10
377.685
 20
-140.11
 11
373.885
 21
-140.11
  0
LINE
  8
0
 10
457.185
 20
-140.11
 11
457.185
 21
-133.39
  0
LINE
  8
0
 10
457.185
 20
-133.39
 11
460.985
 21
-133.39
  0
LINE
  8
0
 10
460.985
 20
-133.39
 11
460.985
 21
-140.11
  0
LINE
  8
0
 10
460.985
 20
-140.11
 11
457.185
 21
-140.11
  0
LINE
  8
0
 10
415.535
 20
-140.11
 11
415.535
 21
-133.39
  0
LINE
  8
0
 10
415.535
 20
-133.39
 11
419.335
 21
-133.39
  0
LINE
  8
0
 10
419.335
 20
-133.39
 11
419.335
 21
-140.11
  0
LINE
  8
0
 10
419.335
 20
-140.11
 11
415.535
 21
-140.11
  0
LINE
  8
0
 10
498.835
 20
-140.11
 11
498.835
 21
-133.39
  0
LINE
  8
0
 10
498.835
 20
-133.39
 11
502.635
 21
-133.39
  0
LINE
  8
0
 10
502.635
 20
-133.39
 11
502.635
 21
-140.11
  0
LINE
  8
0
 10
502.635
 20
-140.11
 11
498.835
 21
-140.11
  0
LINE
  8
0
 10
457.185
 20
-154.11
 11
457.185
 21
-147.39
  0
LINE
  8
0
 10
457.185
 20
-147.39
 11
460.985
 21
-147.39
  0
LINE
  8
0
 10
460.985
 20
-147.39
 11
460.985
 21
-154.11
  0
LINE
  8
0
 10
460.985
 20
-154.11
 11
457.185
 21
-154.11
  0
LINE
  8
0
 10
415.535
 20
-154.11
 11
415.535
 21
-147.39
  0
LINE
  8
0
 10
415.535
 20
-147.39
 11
419.335
 21
-147.39
  0
LINE
  8
0
 10
419.335
 20
-147.39
 11
419.335
 21
-154.11
  0
LINE
  8
0
 10
419.335
 20
-154.11
 11
415.535
 21
-154.11
  0
LINE
  8
0
 10
373.885
 20
-154.11
 11
373.885
 21
-147.39
  0
LINE
  8
0
 10
373.885
 20
-147.39
 11
377.685
 21
-147.39
  0
LINE
  8
0
 10
377.685
 20
-147.39
 11
377.685
 21
-154.11
  0
LINE
  8
0
 10
377.685
 20
-154.11
 11
373.885
 21
-154.11
  0
LINE
  8
0
 10
498.835
 20
-154.11
 11
498.835
 21
-147.39
  0
LINE
  8
0
 10
498.835
 20
-147.39
 11
502.635
 21
-147.39
  0
LINE
  8
0
 10
502.635
 20
-147.39
 11
502.635
 21
-154.11
  0
LINE
  8
0
 10
502.635
 20
-154.11
 11
498.835
 21
-154.11
  0
LINE
  8
0
 10
-89.86
 20
-156.715
 11
-78.14
 21
-156.715
  0
LINE
  8
0
 10
-78.14
 20
-156.715
 11
-78.14
 21
-159.375
  0
LINE
  8
0
 10
-78.14
 20
-159.375
 11
-65.86
 21
-159.375
  0
LINE
  8
0
 10
-65.86
 20
-159.375
 11
-65.86
 21
-156.715
  0
LINE
  8
0
 10
-65.86
 20
-156.715
 11
-54.14
 21
-156.715
  0
LINE
  8
0
 10
-54.14
 20
-156.715
 11
-54.14
 21
-159.375
  0
LINE
  8
0
 10
-54.14
 20
-159.375
 11
-41.86
 21
-159.375
  0
LINE
  8
0
 10
-41.86
 20
-159.375
 11
-41.86
 21
-156.715
  0
LINE
  8
0
 10
-41.86
 20
-156.715
 11
-30.14
 21
-156.715
  0
LINE
  8
0
 10
-30.14
 20
-156.715
 11
-30.14
 21
-159.375
  0
LINE
  8
0
 10
-30.14
 20
-159.375
 11
-21.965
 21
-159.375
  0
LINE
  8
0
 10
-21.965
 20
-159.375
 11
-21.965
 21
-156.715
  0
LINE
  8
0
 10
-21.965
 20
-156.715
 11
-18.165
 21
-156.715
  0
LINE
  8
0
 10
-18.165
 20
-156.715
 11
-18.165
 21
-159.375
  0
LINE
  8
0
 10
-18.165
 20
-159.375
 11
-17.86
 21
-159.375
  0
LINE
  8
0
 10
-17.86
 20
-159.375
 11
-17.86
 21
-156.715
  0
LINE
  8
0
 10
-17.86
 20
-156.715
 11
-6.14
 21
-156.715
  0
LINE
  8
0
 10
-6.14
 20
-156.715
 11
-6.14
 21
-159.375
  0
LINE
  8
0
 10
-6.14
 20
-159.375
 11
6.13998
 21
-159.375
  0
LINE
  8
0
 10
6.13998
 20
-159.375
 11
6.13998
 21
-156.715
  0
LINE
  8
0
 10
6.13998
 20
-156.715
 11
17.86
 21
-156.715
  0
LINE
  8
0
 10
17.86
 20
-156.715
 11
17.86
 21
-159.375
  0
LINE
  8
0
 10
17.86
 20
-159.375
 11
19.685
 21
-159.375
  0
LINE
  8
0
 10
19.685
 20
-159.375
 11
19.685
 21
-156.715
  0
LINE
  8
0
 10
19.685
 20
-156.715
 11
23.485
 21
-156.715
  0
LINE
  8
0
 10
23.485
 20
-156.715
 11
23.485
 21
-159.375
  0
LINE
  8
0
 10
23.485
 20
-159.375
 11
30.14
 21
-159.375
  0
LINE
  8
0
 10
30.14
 20
-159.375
 11
30.14
 21
-156.715
  0
LINE
  8
0
 10
30.14
 20
-156.715
 11
41.86
 21
-156.715
  0
LINE
  8
0
 10
41.86
 20
-156.715
 11
41.86
 21
-159.375
  0
LINE
  8
0
 10
41.86
 20
-159.375
 11
54.14
 21
-159.375
  0
LINE
  8
0
 10
54.14
 20
-159.375
 11
54.14
 21
-156.715
  0
LINE
  8
0
 10
54.14
 20
-156.715
 11
65.86
 21
-156.715
  0
LINE
  8
0
 10
65.86
 20
-156.715
 11
65.86
 21
-159.375
  0
LINE
  8
0
 10
65.86
 20
-159.375
 11
78.14
 21
-159.375
  0
LINE
  8
0
 10
78.14
 20
-159.375
 11
78.14
 21
-156.715
  0
LINE
  8
0
 10
78.14
 20
-156.715
 11
89.86
 21
-156.715
  0
LINE
  8
0
 10
89.86
 20
-156.715
 11
89.86
 21
-159.375
  0
LINE
  8
0
 10
89.86
 20
-159.375
 11
101.465
 21
-159.375
  0
LINE
  8
0
 10
101.465
 20
-159.375
 11
101.465
 21
-156.715
  0
LINE
  8
0
 10
101.465
 20
-156.715
 11
104.125
 21
-156.715
  0
LINE
  8
0
 10
104.125
 20
-156.715
 11
104.125
 21
-154.11
  0
LINE
  8
0
 10
104.125
 20
-154.11
 11
101.465
 21
-154.11
  0
LINE
  8
0
 10
101.465
 20
-154.11
 11
101.465
 21
-147.39
  0
LINE
  8
0
 10
101.465
 20
-147.39
 11
104.125
 21
-147.39
  0
LINE
  8
0
 10
104.125
 20
-147.39
 11
104.125
 21
-140.11
  0
LINE
  8
0
 10
104.125
 20
-140.11
 11
101.465
 21
-140.11
  0
LINE
  8
0
 10
101.465
 20
-140.11
 11
101.465
 21
-133.39
  0
LINE
  8
0
 10
101.465
 20
-133.39
 11
104.125
 21
-133.39
  0
LINE
  8
0
 10
104.125
 20
-133.39
 11
104.125
 21
-126.11
  0
LINE
  8
0
 10
104.125
 20
-126.11
 11
101.465
 21
-126.11
  0
LINE
  8
0
 10
101.465
 20
-126.11
 11
101.465
 21
-119.39
  0
LINE
  8
0
 10
101.465
 20
-119.39
 11
104.125
 21
-119.39
  0
LINE
  8
0
 10
104.125
 20
-119.39
 11
104.125
 21
-116.785
  0
LINE
  8
0
 10
104.125
 20
-116.785
 11
101.465
 21
-116.785
  0
LINE
  8
0
 10
101.465
 20
-116.785
 11
101.465
 21
-114.125
  0
LINE
  8
0
 10
101.465
 20
-114.125
 11
65.135
 21
-114.125
  0
LINE
  8
0
 10
65.135
 20
-114.125
 11
65.135
 21
-116.785
  0
LINE
  8
0
 10
65.135
 20
-116.785
 11
61.335
 21
-116.785
  0
LINE
  8
0
 10
61.335
 20
-116.785
 11
61.335
 21
-114.125
  0
LINE
  8
0
 10
61.335
 20
-114.125
 11
23.485
 21
-114.125
  0
LINE
  8
0
 10
23.485
 20
-114.125
 11
23.485
 21
-116.785
  0
LINE
  8
0
 10
23.485
 20
-116.785
 11
19.685
 21
-116.785
  0
LINE
  8
0
 10
19.685
 20
-116.785
 11
19.685
 21
-114.125
  0
LINE
  8
0
 10
19.685
 20
-114.125
 11
-18.165
 21
-114.125
  0
LINE
  8
0
 10
-18.165
 20
-114.125
 11
-18.165
 21
-116.785
  0
LINE
  8
0
 10
-18.165
 20
-116.785
 11
-21.965
 21
-116.785
  0
LINE
  8
0
 10
-21.965
 20
-116.785
 11
-21.965
 21
-114.125
  0
LINE
  8
0
 10
-21.965
 20
-114.125
 11
-59.815
 21
-114.125
  0
LINE
  8
0
 10
-59.815
 20
-114.125
 11
-59.815
 21
-116.785
  0
LINE
  8
0
 10
-59.815
 20
-116.785
 11
-63.615
 21
-116.785
  0
LINE
  8
0
 10
-63.615
 20
-116.785
 11
-63.615
 21
-114.125
  0
LINE
  8
0
 10
-63.615
 20
-114.125
 11
-101.465
 21
-114.125
  0
LINE
  8
0
 10
-101.465
 20
-114.125
 11
-101.465
 21
-116.785
  0
LINE
  8
0
 10
-101.465
 20
-116.785
 11
-104.125
 21
-116.785
  0
LINE
  8
0
 10
-104.125
 20
-116.785
 11
-104.125
 21
-119.39
  0
LINE
  8
0
 10
-104.125
 20
-119.39
 11
-101.465
 21
-119.39
  0
LINE
  8
0
 10
-101.465
 20
-119.39
 11
-101.465
 21
-126.11
  0
LINE
  8
0
 10
-101.465
 20
-126.11
 11
-104.125
 21
-126.11
  0
LINE
  8
0
 10
-104.125
 20
-126.11
 11
-104.125
 21
-133.39
  0
LINE
  8
0
 10
-104.125
 20
-133.39
 11
-101.465
 21
-133.39
  0
LINE
  8
0
 10
-101.465
 20
-133.39
 11
-101.465
 21
-140.11
  0
LINE
  8
0
 10
-101.465
 20
-140.11
 11
-104.125
 21
-140.11
  0
LINE
  8
0
 10
-104.125
 20
-140.11
 11
-104.125
 21
-147.39
  0
LINE
  8
0
 10
-104.125
 20
-147.39
 11
-101.465
 21
-147.39
  0
LINE
  8
0
 10
-101.465
 20
-147.39
 11
-101.465
 21
-154.11
  0
LINE
  8
0
 10
-101.465
 20
-154.11
 11
-104.125
 21
-154.11
  0
LINE
  8
0
 10
-104.125
 20
-154.11
 11
-104.125
 21
-156.715
  0
LINE
  8
0
 10
-104.125
 20
-156.715
 11
-101.465
 21
-156.715
  0
LINE
  8
0
 10
-101.465
 20
-156.715
 11
-101.465
 21
-159.375
  0
LINE
  8
0
 10
-101.465
 20
-159.375
 11
-89.86
 21
-159.375
  0
LINE
  8
0
 10
-89.86
 20
-159.375
 11
-89.86
 21
-156.715
  0
LINE
  8
0
 10
-63.615
 20
-126.11
 11
-63.615
 21
-119.39
  0
LINE
  8
0
 10
-63.615
 20
-119.39
 11
-59.815
 21
-119.39
  0
LINE
  8
0
 10
-59.815
 20
-119.39
 11
-59.815
 21
-126.11
  0
LINE
  8
0
 10
-59.815
 20
-126.11
 11
-63.615
 21
-126.11
  0
LINE
  8
0
 10
61.335
 20
-126.11
 11
61.335
 21
-119.39
  0
LINE
  8
0
 10
61.335
 20
-119.39
 11
65.135
 21
-119.39
  0
LINE
  8
0
 10
65.135
 20
-119.39
 11
65.135
 21
-126.11
  0
LINE
  8
0
 10
65.135
 20
-126.11
 11
61.335
 21
-126.11
  0
LINE
  8
0
 10
-21.965
 20
-126.11
 11
-21.965
 21
-119.39
  0
LINE
  8
0
 10
-21.965
 20
-119.39
 11
-18.165
 21
-119.39
  0
LINE
  8
0
 10
-18.165
 20
-119.39
 11
-18.165
 21
-126.11
  0
LINE
  8
0
 10
-18.165
 20
-126.11
 11
-21.965
 21
-126.11
  0
LINE
  8
0
 10
19.685
 20
-126.11
 11
19.685
 21
-119.39
  0
LINE
  8
0
 10
19.685
 20
-119.39
 11
23.485
 21
-119.39
  0
LINE
  8
0
 10
23.485
 20
-119.39
 11
23.485
 21
-126.11
  0
LINE
  8
0
 10
23.485
 20
-126.11
 11
19.685
 21
-126.11
  0
LINE
  8
0
 10
19.685
 20
-140.11
 11
19.685
 21
-133.39
  0
LINE
  8
0
 10
19.685
 20
-133.39
 11
23.485
 21
-133.39
  0
LINE
  8
0
 10
23.485
 20
-133.39
 11
23.485
 21
-140.11
  0
LINE
  8
0
 10
23.485
 20
-140.11
 11
19.685
 21
-140.11
  0
LINE
  8
0
 10
-63.615
 20
-140.11
 11
-63.615
 21
-133.39
  0
LINE
  8
0
 10
-63.615
 20
-133.39
 11
-59.815
 21
-133.39
  0
LINE
  8
0
 10
-59.815
 20
-133.39
 11
-59.815
 21
-140.11
  0
LINE
  8
0
 10
-59.815
 20
-140.11
 11
-63.615
 21
-140.11
  0
LINE
  8
0
 10
-21.965
 20
-140.11
 11
-21.965
 21
-133.39
  0
LINE
  8
0
 10
-21.965
 20
-133.39
 11
-18.165
 21
-133.39
  0
LINE
  8
0
 10
-18.165
 20
-133.39
 11
-18.165
 21
-140.11
  0
LINE
  8
0
 10
-18.165
 20
-140.11
 11
-21.965
 21
-140.11
  0
LINE
  8
0
 10
61.335
 20
-140.11
 11
61.335
 21
-133.39
  0
LINE
  8
0
 10
61.335
 20
-133.39
 11
65.135
 21
-133.39
  0
LINE
  8
0
 10
65.135
 20
-133.39
 11
65.135
 21
-140.11
  0
LINE
  8
0
 10
65.135
 20
-140.11
 11
61.335
 21
-140.11
  0
LINE
  8
0
 10
-21.965
 20
-154.11
 11
-21.965
 21
-147.39
  0
LINE
  8
0
 10
-21.965
 20
-147.39
 11
-18.165
 21
-147.39
  0
LINE
  8
0
 10
-18.165
 20
-147.39
 11
-18.165
 21
-154.11
  0
LINE
  8
0
 10
-18.165
 20
-154.11
 11
-21.965
 21
-154.11
  0
LINE
  8
0
 10
19.685
 20
-154.11
 11
19.685
 21
-147.39
  0
LINE
  8
0
 10
19.685
 20
-147.39
 11
23.485
 21
-147.39
  0
LINE
  8
0
 10
23.485
 20
-147.39
 11
23.485
 21
-154.11
  0
LINE
  8
0
 10
23.485
 20
-154.11
 11
19.685
 21
-154.11
  0
LINE
  8
0
 10
-63.615
 20
-154.11
 11
-63.615
 21
-147.39
  0
LINE
  8
0
 10
-63.615
 20
-147.39
 11
-59.815
 21
-147.39
  0
LINE
  8
0
 10
-59.815
 20
-147.39
 11
-59.815
 21
-154.11
  0
LINE
  8
0
 10
-59.815
 20
-154.11
 11
-63.615
 21
-154.11
  0
LINE
  8
0
 10
61.335
 20
-154.11
 11
61.335
 21
-147.39
  0
LINE
  8
0
 10
61.335
 20
-147.39
 11
65.135
 21
-147.39
  0
LINE
  8
0
 10
65.135
 20
-147.39
 11
65.135
 21
-154.11
  0
LINE
  8
0
 10
65.135
 20
-154.11
 11
61.335
 21
-154.11
  0
LINE
  8
0
 10
-320.61
 20
-156.715
 11
-308.89
 21
-156.715
  0
LINE
  8
0
 10
-308.89
 20
-156.715
 11
-308.89
 21
-159.375
  0
LINE
  8
0
 10
-308.89
 20
-159.375
 11
-296.61
 21
-159.375
  0
LINE
  8
0
 10
-296.61
 20
-159.375
 11
-296.61
 21
-156.715
  0
LINE
  8
0
 10
-296.61
 20
-156.715
 11
-284.89
 21
-156.715
  0
LINE
  8
0
 10
-284.89
 20
-156.715
 11
-284.89
 21
-159.375
  0
LINE
  8
0
 10
-284.89
 20
-159.375
 11
-276.952
 21
-159.375
  0
LINE
  8
0
 10
-276.952
 20
-159.375
 11
-276.952
 21
-154.39
  0
LINE
  8
0
 10
-276.952
 20
-154.39
 11
-273.152
 21
-154.39
  0
LINE
  8
0
 10
-273.152
 20
-154.39
 11
-273.152
 21
-159.375
  0
LINE
  8
0
 10
-273.152
 20
-159.375
 11
-272.61
 21
-159.375
  0
LINE
  8
0
 10
-272.61
 20
-159.375
 11
-272.61
 21
-156.715
  0
LINE
  8
0
 10
-272.61
 20
-156.715
 11
-260.89
 21
-156.715
  0
LINE
  8
0
 10
-260.89
 20
-156.715
 11
-260.89
 21
-159.375
  0
LINE
  8
0
 10
-260.89
 20
-159.375
 11
-248.61
 21
-159.375
  0
LINE
  8
0
 10
-248.61
 20
-159.375
 11
-248.61
 21
-156.715
  0
LINE
  8
0
 10
-248.61
 20
-156.715
 11
-236.89
 21
-156.715
  0
LINE
  8
0
 10
-236.89
 20
-156.715
 11
-236.89
 21
-159.375
  0
LINE
  8
0
 10
-236.89
 20
-159.375
 11
-224.61
 21
-159.375
  0
LINE
  8
0
 10
-224.61
 20
-159.375
 11
-224.61
 21
-156.715
  0
LINE
  8
0
 10
-224.61
 20
-156.715
 11
-219.89
 21
-156.715
  0
LINE
  8
0
 10
-219.89
 20
-156.715
 11
-219.89
 21
-154.39
  0
LINE
  8
0
 10
-219.89
 20
-154.39
 11
-216.09
 21
-154.39
  0
LINE
  8
0
 10
-216.09
 20
-154.39
 11
-216.09
 21
-156.715
  0
LINE
  8
0
 10
-216.09
 20
-156.715
 11
-212.89
 21
-156.715
  0
LINE
  8
0
 10
-212.89
 20
-156.715
 11
-212.89
 21
-159.375
  0
LINE
  8
0
 10
-212.89
 20
-159.375
 11
-200.61
 21
-159.375
  0
LINE
  8
0
 10
-200.61
 20
-159.375
 11
-200.61
 21
-156.715
  0
LINE
  8
0
 10
-200.61
 20
-156.715
 11
-188.89
 21
-156.715
  0
LINE
  8
0
 10
-188.89
 20
-156.715
 11
-188.89
 21
-159.375
  0
LINE
  8
0
 10
-188.89
 20
-159.375
 11
-176.61
 21
-159.375
  0
LINE
  8
0
 10
-176.61
 20
-159.375
 11
-176.61
 21
-156.715
  0
LINE
  8
0
 10
-176.61
 20
-156.715
 11
-164.89
 21
-156.715
  0
LINE
  8
0
 10
-164.89
 20
-156.715
 11
-164.89
 21
-159.375
  0
LINE
  8
0
 10
-164.89
 20
-159.375
 11
-162.827
 21
-159.375
  0
LINE
  8
0
 10
-162.827
 20
-159.375
 11
-162.827
 21
-154.39
  0
LINE
  8
0
 10
-162.827
 20
-154.39
 11
-159.027
 21
-154.39
  0
LINE
  8
0
 10
-159.027
 20
-154.39
 11
-159.027
 21
-159.375
  0
LINE
  8
0
 10
-159.027
 20
-159.375
 11
-152.61
 21
-159.375
  0
LINE
  8
0
 10
-152.61
 20
-159.375
 11
-152.61
 21
-156.715
  0
LINE
  8
0
 10
-152.61
 20
-156.715
 11
-140.89
 21
-156.715
  0
LINE
  8
0
 10
-140.89
 20
-156.715
 11
-140.89
 21
-159.375
  0
LINE
  8
0
 10
-140.89
 20
-159.375
 11
-128.61
 21
-159.375
  0
LINE
  8
0
 10
-128.61
 20
-159.375
 11
-128.61
 21
-156.715
  0
LINE
  8
0
 10
-128.61
 20
-156.715
 11
-116.89
 21
-156.715
  0
LINE
  8
0
 10
-116.89
 20
-156.715
 11
-116.89
 21
-159.375
  0
LINE
  8
0
 10
-116.89
 20
-159.375
 11
-107.285
 21
-159.375
  0
LINE
  8
0
 10
-107.285
 20
-159.375
 11
-107.285
 21
-154.39
  0
LINE
  8
0
 10
-107.285
 20
-154.39
 11
-104.625
 21
-154.39
  0
LINE
  8
0
 10
-104.625
 20
-154.39
 11
-104.625
 21
-147.11
  0
LINE
  8
0
 10
-104.625
 20
-147.11
 11
-107.285
 21
-147.11
  0
LINE
  8
0
 10
-107.285
 20
-147.11
 11
-107.285
 21
-140.39
  0
LINE
  8
0
 10
-107.285
 20
-140.39
 11
-104.625
 21
-140.39
  0
LINE
  8
0
 10
-104.625
 20
-140.39
 11
-104.625
 21
-133.11
  0
LINE
  8
0
 10
-104.625
 20
-133.11
 11
-107.285
 21
-133.11
  0
LINE
  8
0
 10
-107.285
 20
-133.11
 11
-107.285
 21
-126.39
  0
LINE
  8
0
 10
-107.285
 20
-126.39
 11
-104.625
 21
-126.39
  0
LINE
  8
0
 10
-104.625
 20
-126.39
 11
-104.625
 21
-119.11
  0
LINE
  8
0
 10
-104.625
 20
-119.11
 11
-107.285
 21
-119.11
  0
LINE
  8
0
 10
-107.285
 20
-119.11
 11
-107.285
 21
-114.125
  0
LINE
  8
0
 10
-107.285
 20
-114.125
 11
-159.027
 21
-114.125
  0
LINE
  8
0
 10
-159.027
 20
-114.125
 11
-159.027
 21
-119.11
  0
LINE
  8
0
 10
-159.027
 20
-119.11
 11
-162.827
 21
-119.11
  0
LINE
  8
0
 10
-162.827
 20
-119.11
 11
-162.827
 21
-114.125
  0
LINE
  8
0
 10
-162.827
 20
-114.125
 11
-216.09
 21
-114.125
  0
LINE
  8
0
 10
-216.09
 20
-114.125
 11
-216.09
 21
-119.11
  0
LINE
  8
0
 10
-216.09
 20
-119.11
 11
-219.89
 21
-119.11
  0
LINE
  8
0
 10
-219.89
 20
-119.11
 11
-219.89
 21
-114.125
  0
LINE
  8
0
 10
-219.89
 20
-114.125
 11
-273.152
 21
-114.125
  0
LINE
  8
0
 10
-273.152
 20
-114.125
 11
-273.152
 21
-119.11
  0
LINE
  8
0
 10
-273.152
 20
-119.11
 11
-276.952
 21
-119.11
  0
LINE
  8
0
 10
-276.952
 20
-119.11
 11
-276.952
 21
-114.125
  0
LINE
  8
0
 10
-276.952
 20
-114.125
 11
-330.215
 21
-114.125
  0
LINE
  8
0
 10
-330.215
 20
-114.125
 11
-330.215
 21
-119.11
  0
LINE
  8
0
 10
-330.215
 20
-119.11
 11
-332.875
 21
-119.11
  0
LINE
  8
0
 10
-332.875
 20
-119.11
 11
-332.875
 21
-126.39
  0
LINE
  8
0
 10
-332.875
 20
-126.39
 11
-330.215
 21
-126.39
  0
LINE
  8
0
 10
-330.215
 20
-126.39
 11
-330.215
 21
-133.11
  0
LINE
  8
0
 10
-330.215
 20
-133.11
 11
-332.875
 21
-133.11
  0
LINE
  8
0
 10
-332.875
 20
-133.11
 11
-332.875
 21
-140.39
  0
LINE
  8
0
 10
-332.875
 20
-140.39
 11
-330.215
 21
-140.39
  0
LINE
  8
0
 10
-330.215
 20
-140.39
 11
-330.215
 21
-147.11
  0
LINE
  8
0
 10
-330.215
 20
-147.11
 11
-332.875
 21
-147.11
  0
LINE
  8
0
 10
-332.875
 20
-147.11
 11
-332.875
 21
-154.39
  0
LINE
  8
0
 10
-332.875
 20
-154.39
 11
-330.215
 21
-154.39
  0
LINE
  8
0
 10
-330.215
 20
-154.39
 11
-330.215
 21
-159.375
  0
LINE
  8
0
 10
-330.215
 20
-159.375
 11
-320.61
 21
-159.375
  0
LINE
  8
0
 10
-320.61
 20
-159.375
 11
-320.61
 21
-156.715
  0
LINE
  8
0
 10
-162.827
 20
-133.11
 11
-162.827
 21
-126.39
  0
LINE
  8
0
 10
-162.827
 20
-126.39
 11
-159.027
 21
-126.39
  0
LINE
  8
0
 10
-159.027
 20
-126.39
 11
-159.027
 21
-133.11
  0
LINE
  8
0
 10
-159.027
 20
-133.11
 11
-162.827
 21
-133.11
  0
LINE
  8
0
 10
-219.89
 20
-133.11
 11
-219.89
 21
-126.39
  0
LINE
  8
0
 10
-219.89
 20
-126.39
 11
-216.09
 21
-126.39
  0
LINE
  8
0
 10
-216.09
 20
-126.39
 11
-216.09
 21
-133.11
  0
LINE
  8
0
 10
-216.09
 20
-133.11
 11
-219.89
 21
-133.11
  0
LINE
  8
0
 10
-276.952
 20
-133.11
 11
-276.952
 21
-126.39
  0
LINE
  8
0
 10
-276.952
 20
-126.39
 11
-273.152
 21
-126.39
  0
LINE
  8
0
 10
-273.152
 20
-126.39
 11
-273.152
 21
-133.11
  0
LINE
  8
0
 10
-273.152
 20
-133.11
 11
-276.952
 21
-133.11
  0
LINE
  8
0
 10
-162.827
 20
-147.11
 11
-162.827
 21
-140.39
  0
LINE
  8
0
 10
-162.827
 20
-140.39
 11
-159.027
 21
-140.39
  0
LINE
  8
0
 10
-159.027
 20
-140.39
 11
-159.027
 21
-147.11
  0
LINE
  8
0
 10
-159.027
 20
-147.11
 11
-162.827
 21
-147.11
  0
LINE
  8
0
 10
-219.89
 20
-147.11
 11
-219.89
 21
-140.39
  0
LINE
  8
0
 10
-219.89
 20
-140.39
 11
-216.09
 21
-140.39
  0
LINE
  8
0
 10
-216.09
 20
-140.39
 11
-216.09
 21
-147.11
  0
LINE
  8
0
 10
-216.09
 20
-147.11
 11
-219.89
 21
-147.11
  0
LINE
  8
0
 10
-276.952
 20
-147.11
 11
-276.952
 21
-140.39
  0
LINE
  8
0
 10
-276.952
 20
-140.39
 11
-273.152
 21
-140.39
  0
LINE
  8
0
 10
-273.152
 20
-140.39
 11
-273.152
 21
-147.11
  0
LINE
  8
0
 10
-273.152
 20
-147.11
 11
-276.952
 21
-147.11
  0
LINE
  8
0
 10
116.89
 20
-156.715
 11
128.61
 21
-156.715
  0
LINE
  8
0
 10
128.61
 20
-156.715
 11
128.61
 21
-159.375
  0
LINE
  8
0
 10
128.61
 20
-159.375
 11
140.89
 21
-159.375
  0
LINE
  8
0
 10
140.89
 20
-159.375
 11
140.89
 21
-156.715
  0
LINE
  8
0
 10
140.89
 20
-156.715
 11
152.61
 21
-156.715
  0
LINE
  8
0
 10
152.61
 20
-156.715
 11
152.61
 21
-159.375
  0
LINE
  8
0
 10
152.61
 20
-159.375
 11
160.548
 21
-159.375
  0
LINE
  8
0
 10
160.548
 20
-159.375
 11
160.548
 21
-154.39
  0
LINE
  8
0
 10
160.548
 20
-154.39
 11
164.348
 21
-154.39
  0
LINE
  8
0
 10
164.348
 20
-154.39
 11
164.348
 21
-159.375
  0
LINE
  8
0
 10
164.348
 20
-159.375
 11
164.89
 21
-159.375
  0
LINE
  8
0
 10
164.89
 20
-159.375
 11
164.89
 21
-156.715
  0
LINE
  8
0
 10
164.89
 20
-156.715
 11
176.61
 21
-156.715
  0
LINE
  8
0
 10
176.61
 20
-156.715
 11
176.61
 21
-159.375
  0
LINE
  8
0
 10
176.61
 20
-159.375
 11
188.89
 21
-159.375
  0
LINE
  8
0
 10
188.89
 20
-159.375
 11
188.89
 21
-156.715
  0
LINE
  8
0
 10
188.89
 20
-156.715
 11
200.61
 21
-156.715
  0
LINE
  8
0
 10
200.61
 20
-156.715
 11
200.61
 21
-159.375
  0
LINE
  8
0
 10
200.61
 20
-159.375
 11
212.89
 21
-159.375
  0
LINE
  8
0
 10
212.89
 20
-159.375
 11
212.89
 21
-156.715
  0
LINE
  8
0
 10
212.89
 20
-156.715
 11
217.61
 21
-156.715
  0
LINE
  8
0
 10
217.61
 20
-156.715
 11
217.61
 21
-154.39
  0
LINE
  8
0
 10
217.61
 20
-154.39
 11
221.41
 21
-154.39
  0
LINE
  8
0
 10
221.41
 20
-154.39
 11
221.41
 21
-156.715
  0
LINE
  8
0
 10
221.41
 20
-156.715
 11
224.61
 21
-156.715
  0
LINE
  8
0
 10
224.61
 20
-156.715
 11
224.61
 21
-159.375
  0
LINE
  8
0
 10
224.61
 20
-159.375
 11
236.89
 21
-159.375
  0
LINE
  8
0
 10
236.89
 20
-159.375
 11
236.89
 21
-156.715
  0
LINE
  8
0
 10
236.89
 20
-156.715
 11
248.61
 21
-156.715
  0
LINE
  8
0
 10
248.61
 20
-156.715
 11
248.61
 21
-159.375
  0
LINE
  8
0
 10
248.61
 20
-159.375
 11
260.89
 21
-159.375
  0
LINE
  8
0
 10
260.89
 20
-159.375
 11
260.89
 21
-156.715
  0
LINE
  8
0
 10
260.89
 20
-156.715
 11
272.61
 21
-156.715
  0
LINE
  8
0
 10
272.61
 20
-156.715
 11
272.61
 21
-159.375
  0
LINE
  8
0
 10
272.61
 20
-159.375
 11
274.673
 21
-159.375
  0
LINE
  8
0
 10
274.673
 20
-159.375
 11
274.673
 21
-154.39
  0
LINE
  8
0
 10
274.673
 20
-154.39
 11
278.473
 21
-154.39
  0
LINE
  8
0
 10
278.473
 20
-154.39
 11
278.473
 21
-159.375
  0
LINE
  8
0
 10
278.473
 20
-159.375
 11
284.89
 21
-159.375
  0
LINE
  8
0
 10
284.89
 20
-159.375
 11
284.89
 21
-156.715
  0
LINE
  8
0
 10
284.89
 20
-156.715
 11
296.61
 21
-156.715
  0
LINE
  8
0
 10
296.61
 20
-156.715
 11
296.61
 21
-159.375
  0
LINE
  8
0
 10
296.61
 20
-159.375
 11
308.89
 21
-159.375
  0
LINE
  8
0
 10
308.89
 20
-159.375
 11
308.89
 21
-156.715
  0
LINE
  8
0
 10
308.89
 20
-156.715
 11
320.61
 21
-156.715
  0
LINE
  8
0
 10
320.61
 20
-156.715
 11
320.61
 21
-159.375
  0
LINE
  8
0
 10
320.61
 20
-159.375
 11
330.215
 21
-159.375
  0
LINE
  8
0
 10
330.215
 20
-159.375
 11
330.215
 21
-154.39
  0
LINE
  8
0
 10
330.215
 20
-154.39
 11
332.875
 21
-154.39
  0
LINE
  8
0
 10
332.875
 20
-154.39
 11
332.875
 21
-147.11
  0
LINE
  8
0
 10
332.875
 20
-147.11
 11
330.215
 21
-147.11
  0
LINE
  8
0
 10
330.215
 20
-147.11
 11
330.215
 21
-140.39
  0
LINE
  8
0
 10
330.215
 20
-140.39
 11
332.875
 21
-140.39
  0
LINE
  8
0
 10
332.875
 20
-140.39
 11
332.875
 21
-133.11
  0
LINE
  8
0
 10
332.875
 20
-133.11
 11
330.215
 21
-133.11
  0
LINE
  8
0
 10
330.215
 20
-133.11
 11
330.215
 21
-126.39
  0
LINE
  8
0
 10
330.215
 20
-126.39
 11
332.875
 21
-126.39
  0
LINE
  8
0
 10
332.875
 20
-126.39
 11
332.875
 21
-119.11
  0
LINE
  8
0
 10
332.875
 20
-119.11
 11
330.215
 21
-119.11
  0
LINE
  8
0
 10
330.215
 20
-119.11
 11
330.215
 21
-114.125
  0
LINE
  8
0
 10
330.215
 20
-114.125
 11
278.473
 21
-114.125
  0
LINE
  8
0
 10
278.473
 20
-114.125
 11
278.473
 21
-119.11
  0
LINE
  8
0
 10
278.473
 20
-119.11
 11
274.673
 21
-119.11
  0
LINE
  8
0
 10
274.673
 20
-119.11
 11
274.673
 21
-114.125
  0
LINE
  8
0
 10
274.673
 20
-114.125
 11
221.41
 21
-114.125
  0
LINE
  8
0
 10
221.41
 20
-114.125
 11
221.41
 21
-119.11
  0
LINE
  8
0
 10
221.41
 20
-119.11
 11
217.61
 21
-119.11
  0
LINE
  8
0
 10
217.61
 20
-119.11
 11
217.61
 21
-114.125
  0
LINE
  8
0
 10
217.61
 20
-114.125
 11
164.348
 21
-114.125
  0
LINE
  8
0
 10
164.348
 20
-114.125
 11
164.348
 21
-119.11
  0
LINE
  8
0
 10
164.348
 20
-119.11
 11
160.548
 21
-119.11
  0
LINE
  8
0
 10
160.548
 20
-119.11
 11
160.548
 21
-114.125
  0
LINE
  8
0
 10
160.548
 20
-114.125
 11
107.285
 21
-114.125
  0
LINE
  8
0
 10
107.285
 20
-114.125
 11
107.285
 21
-119.11
  0
LINE
  8
0
 10
107.285
 20
-119.11
 11
104.625
 21
-119.11
  0
LINE
  8
0
 10
104.625
 20
-119.11
 11
104.625
 21
-126.39
  0
LINE
  8
0
 10
104.625
 20
-126.39
 11
107.285
 21
-126.39
  0
LINE
  8
0
 10
107.285
 20
-126.39
 11
107.285
 21
-133.11
  0
LINE
  8
0
 10
107.285
 20
-133.11
 11
104.625
 21
-133.11
  0
LINE
  8
0
 10
104.625
 20
-133.11
 11
104.625
 21
-140.39
  0
LINE
  8
0
 10
104.625
 20
-140.39
 11
107.285
 21
-140.39
  0
LINE
  8
0
 10
107.285
 20
-140.39
 11
107.285
 21
-147.11
  0
LINE
  8
0
 10
107.285
 20
-147.11
 11
104.625
 21
-147.11
  0
LINE
  8
0
 10
104.625
 20
-147.11
 11
104.625
 21
-154.39
  0
LINE
  8
0
 10
104.625
 20
-154.39
 11
107.285
 21
-154.39
  0
LINE
  8
0
 10
107.285
 20
-154.39
 11
107.285
 21
-159.375
  0
LINE
  8
0
 10
107.285
 20
-159.375
 11
116.89
 21
-159.375
  0
LINE
  8
0
 10
116.89
 20
-159.375
 11
116.89
 21
-156.715
  0
LINE
  8
0
 10
160.548
 20
-133.11
 11
160.548
 21
-126.39
  0
LINE
  8
0
 10
160.548
 20
-126.39
 11
164.348
 21
-126.39
  0
LINE
  8
0
 10
164.348
 20
-126.39
 11
164.348
 21
-133.11
  0
LINE
  8
0
 10
164.348
 20
-133.11
 11
160.548
 21
-133.11
  0
LINE
  8
0
 10
217.61
 20
-133.11
 11
217.61
 21
-126.39
  0
LINE
  8
0
 10
217.61
 20
-126.39
 11
221.41
 21
-126.39
  0
LINE
  8
0
 10
221.41
 20
-126.39
 11
221.41
 21
-133.11
  0
LINE
  8
0
 10
221.41
 20
-133.11
 11
217.61
 21
-133.11
  0
LINE
  8
0
 10
274.673
 20
-133.11
 11
274.673
 21
-126.39
  0
LINE
  8
0
 10
274.673
 20
-126.39
 11
278.473
 21
-126.39
  0
LINE
  8
0
 10
278.473
 20
-126.39
 11
278.473
 21
-133.11
  0
LINE
  8
0
 10
278.473
 20
-133.11
 11
274.673
 21
-133.11
  0
LINE
  8
0
 10
217.61
 20
-147.11
 11
217.61
 21
-140.39
  0
LINE
  8
0
 10
217.61
 20
-140.39
 11
221.41
 21
-140.39
  0
LINE
  8
0
 10
221.41
 20
-140.39
 11
221.41
 21
-147.11
  0
LINE
  8
0
 10
221.41
 20
-147.11
 11
217.61
 21
-147.11
  0
LINE
  8
0
 10
274.673
 20
-147.11
 11
274.673
 21
-140.39
  0
LINE
  8
0
 10
274.673
 20
-140.39
 11
278.473
 21
-140.39
  0
LINE
  8
0
 10
278.473
 20
-140.39
 11
278.473
 21
-147.11
  0
LINE
  8
0
 10
278.473
 20
-147.11
 11
274.673
 21
-147.11
  0
LINE
  8
0
 10
160.548
 20
-147.11
 11
160.548
 21
-140.39
  0
LINE
  8
0
 10
160.548
 20
-140.39
 11
164.348
 21
-140.39
  0
LINE
  8
0
 10
164.348
 20
-140.39
 11
164.348
 21
-147.11
  0
LINE
  8
0
 10
164.348
 20
-147.11
 11
160.548
 21
-147.11
  0
LINE
  8
0
 10
-77.86
 20
-385.465
 11
-66.14
 21
-385.465
  0
LINE
  8
0
 10
-66.14
 20
-385.465
 11
-66.14
 21
-388.125
  0
LINE
  8
0
 10
-66.14
 20
-388.125
 11
-63.615
 21
-388.125
  0
LINE
  8
0
 10
-63.615
 20
-388.125
 11
-63.615
 21
-376.14
  0
LINE
  8
0
 10
-63.615
 20
-376.14
 11
-59.815
 21
-376.14
  0
LINE
  8
0
 10
-59.815
 20
-376.14
 11
-59.815
 21
-388.125
  0
LINE
  8
0
 10
-59.815
 20
-388.125
 11
-53.86
 21
-388.125
  0
LINE
  8
0
 10
-53.86
 20
-388.125
 11
-53.86
 21
-385.465
  0
LINE
  8
0
 10
-53.86
 20
-385.465
 11
-42.14
 21
-385.465
  0
LINE
  8
0
 10
-42.14
 20
-385.465
 11
-42.14
 21
-388.125
  0
LINE
  8
0
 10
-42.14
 20
-388.125
 11
-29.86
 21
-388.125
  0
LINE
  8
0
 10
-29.86
 20
-388.125
 11
-29.86
 21
-385.465
  0
LINE
  8
0
 10
-29.86
 20
-385.465
 11
-21.965
 21
-385.465
  0
LINE
  8
0
 10
-21.965
 20
-385.465
 11
-21.965
 21
-376.14
  0
LINE
  8
0
 10
-21.965
 20
-376.14
 11
-18.165
 21
-376.14
  0
LINE
  8
0
 10
-18.165
 20
-376.14
 11
-18.165
 21
-385.465
  0
LINE
  8
0
 10
-18.165
 20
-385.465
 11
-18.14
 21
-385.465
  0
LINE
  8
0
 10
-18.14
 20
-385.465
 11
-18.14
 21
-388.125
  0
LINE
  8
0
 10
-18.14
 20
-388.125
 11
-5.85999
 21
-388.125
  0
LINE
  8
0
 10
-5.85999
 20
-388.125
 11
-5.85999
 21
-385.465
  0
LINE
  8
0
 10
-5.85999
 20
-385.465
 11
5.85999
 21
-385.465
  0
LINE
  8
0
 10
5.85999
 20
-385.465
 11
5.85999
 21
-388.125
  0
LINE
  8
0
 10
5.85999
 20
-388.125
 11
18.14
 21
-388.125
  0
LINE
  8
0
 10
18.14
 20
-388.125
 11
18.14
 21
-385.465
  0
LINE
  8
0
 10
18.14
 20
-385.465
 11
19.685
 21
-385.465
  0
LINE
  8
0
 10
19.685
 20
-385.465
 11
19.685
 21
-376.14
  0
LINE
  8
0
 10
19.685
 20
-376.14
 11
23.485
 21
-376.14
  0
LINE
  8
0
 10
23.485
 20
-376.14
 11
23.485
 21
-385.465
  0
LINE
  8
0
 10
23.485
 20
-385.465
 11
29.86
 21
-385.465
  0
LINE
  8
0
 10
29.86
 20
-385.465
 11
29.86
 21
-388.125
  0
LINE
  8
0
 10
29.86
 20
-388.125
 11
42.14
 21
-388.125
  0
LINE
  8
0
 10
42.14
 20
-388.125
 11
42.14
 21
-385.465
  0
LINE
  8
0
 10
42.14
 20
-385.465
 11
53.86
 21
-385.465
  0
LINE
  8
0
 10
53.86
 20
-385.465
 11
53.86
 21
-388.125
  0
LINE
  8
0
 10
53.86
 20
-388.125
 11
61.335
 21
-388.125
  0
LINE
  8
0
 10
61.335
 20
-388.125
 11
61.335
 21
-376.14
  0
LINE
  8
0
 10
61.335
 20
-376.14
 11
65.135
 21
-376.14
  0
LINE
  8
0
 10
65.135
 20
-376.14
 11
65.135
 21
-388.125
  0
LINE
  8
0
 10
65.135
 20
-388.125
 11
66.14
 21
-388.125
  0
LINE
  8
0
 10
66.14
 20
-388.125
 11
66.14
 21
-385.465
  0
LINE
  8
0
 10
66.14
 20
-385.465
 11
77.86
 21
-385.465
  0
LINE
  8
0
 10
77.86
 20
-385.465
 11
77.86
 21
-388.125
  0
LINE
  8
0
 10
77.86
 20
-388.125
 11
90.14
 21
-388.125
  0
LINE
  8
0
 10
90.14
 20
-388.125
 11
90.14
 21
-385.465
  0
LINE
  8
0
 10
90.14
 20
-385.465
 11
101.465
 21
-385.465
  0
LINE
  8
0
 10
101.465
 20
-385.465
 11
101.465
 21
-376.14
  0
LINE
  8
0
 10
101.465
 20
-376.14
 11
104.125
 21
-376.14
  0
LINE
  8
0
 10
104.125
 20
-376.14
 11
104.125
 21
-363.86
  0
LINE
  8
0
 10
104.125
 20
-363.86
 11
101.465
 21
-363.86
  0
LINE
  8
0
 10
101.465
 20
-363.86
 11
101.465
 21
-352.14
  0
LINE
  8
0
 10
101.465
 20
-352.14
 11
104.125
 21
-352.14
  0
LINE
  8
0
 10
104.125
 20
-352.14
 11
104.125
 21
-339.86
  0
LINE
  8
0
 10
104.125
 20
-339.86
 11
101.465
 21
-339.86
  0
LINE
  8
0
 10
101.465
 20
-339.86
 11
101.465
 21
-332.202
  0
LINE
  8
0
 10
101.465
 20
-332.202
 11
90.14
 21
-332.202
  0
LINE
  8
0
 10
90.14
 20
-332.202
 11
90.14
 21
-328.402
  0
LINE
  8
0
 10
90.14
 20
-328.402
 11
101.465
 21
-328.402
  0
LINE
  8
0
 10
101.465
 20
-328.402
 11
101.465
 21
-328.14
  0
LINE
  8
0
 10
101.465
 20
-328.14
 11
104.125
 21
-328.14
  0
LINE
  8
0
 10
104.125
 20
-328.14
 11
104.125
 21
-315.86
  0
LINE
  8
0
 10
104.125
 20
-315.86
 11
101.465
 21
-315.86
  0
LINE
  8
0
 10
101.465
 20
-315.86
 11
101.465
 21
-304.14
  0
LINE
  8
0
 10
101.465
 20
-304.14
 11
104.125
 21
-304.14
  0
LINE
  8
0
 10
104.125
 20
-304.14
 11
104.125
 21
-291.86
  0
LINE
  8
0
 10
104.125
 20
-291.86
 11
101.465
 21
-291.86
  0
LINE
  8
0
 10
101.465
 20
-291.86
 11
101.465
 21
-280.14
  0
LINE
  8
0
 10
101.465
 20
-280.14
 11
104.125
 21
-280.14
  0
LINE
  8
0
 10
104.125
 20
-280.14
 11
104.125
 21
-275.14
  0
LINE
  8
0
 10
104.125
 20
-275.14
 11
90.14
 21
-275.14
  0
LINE
  8
0
 10
90.14
 20
-275.14
 11
90.14
 21
-271.34
  0
LINE
  8
0
 10
90.14
 20
-271.34
 11
104.125
 21
-271.34
  0
LINE
  8
0
 10
104.125
 20
-271.34
 11
104.125
 21
-267.86
  0
LINE
  8
0
 10
104.125
 20
-267.86
 11
101.465
 21
-267.86
  0
LINE
  8
0
 10
101.465
 20
-267.86
 11
101.465
 21
-256.14
  0
LINE
  8
0
 10
101.465
 20
-256.14
 11
104.125
 21
-256.14
  0
LINE
  8
0
 10
104.125
 20
-256.14
 11
104.125
 21
-243.86
  0
LINE
  8
0
 10
104.125
 20
-243.86
 11
101.465
 21
-243.86
  0
LINE
  8
0
 10
101.465
 20
-243.86
 11
101.465
 21
-232.14
  0
LINE
  8
0
 10
101.465
 20
-232.14
 11
104.125
 21
-232.14
  0
LINE
  8
0
 10
104.125
 20
-232.14
 11
104.125
 21
-219.86
  0
LINE
  8
0
 10
104.125
 20
-219.86
 11
101.465
 21
-219.86
  0
LINE
  8
0
 10
101.465
 20
-219.86
 11
101.465
 21
-218.078
  0
LINE
  8
0
 10
101.465
 20
-218.078
 11
90.14
 21
-218.077
  0
LINE
  8
0
 10
90.14
 20
-218.077
 11
90.14
 21
-214.278
  0
LINE
  8
0
 10
90.14
 20
-214.278
 11
101.465
 21
-214.278
  0
LINE
  8
0
 10
101.465
 20
-214.278
 11
101.465
 21
-208.14
  0
LINE
  8
0
 10
101.465
 20
-208.14
 11
104.125
 21
-208.14
  0
LINE
  8
0
 10
104.125
 20
-208.14
 11
104.125
 21
-195.86
  0
LINE
  8
0
 10
104.125
 20
-195.86
 11
101.465
 21
-195.86
  0
LINE
  8
0
 10
101.465
 20
-195.86
 11
101.465
 21
-184.14
  0
LINE
  8
0
 10
101.465
 20
-184.14
 11
104.125
 21
-184.14
  0
LINE
  8
0
 10
104.125
 20
-184.14
 11
104.125
 21
-171.86
  0
LINE
  8
0
 10
104.125
 20
-171.86
 11
101.465
 21
-171.86
  0
LINE
  8
0
 10
101.465
 20
-171.86
 11
101.465
 21
-162.535
  0
LINE
  8
0
 10
101.465
 20
-162.535
 11
90.14
 21
-162.535
  0
LINE
  8
0
 10
90.14
 20
-162.535
 11
90.14
 21
-159.875
  0
LINE
  8
0
 10
90.14
 20
-159.875
 11
77.86
 21
-159.875
  0
LINE
  8
0
 10
77.86
 20
-159.875
 11
77.86
 21
-162.535
  0
LINE
  8
0
 10
77.86
 20
-162.535
 11
66.14
 21
-162.535
  0
LINE
  8
0
 10
66.14
 20
-162.535
 11
66.14
 21
-159.875
  0
LINE
  8
0
 10
66.14
 20
-159.875
 11
65.135
 21
-159.875
  0
LINE
  8
0
 10
65.135
 20
-159.875
 11
65.135
 21
-171.86
  0
LINE
  8
0
 10
65.135
 20
-171.86
 11
61.335
 21
-171.86
  0
LINE
  8
0
 10
61.335
 20
-171.86
 11
61.335
 21
-159.875
  0
LINE
  8
0
 10
61.335
 20
-159.875
 11
53.86
 21
-159.875
  0
LINE
  8
0
 10
53.86
 20
-159.875
 11
53.86
 21
-162.535
  0
LINE
  8
0
 10
53.86
 20
-162.535
 11
42.14
 21
-162.535
  0
LINE
  8
0
 10
42.14
 20
-162.535
 11
42.14
 21
-159.875
  0
LINE
  8
0
 10
42.14
 20
-159.875
 11
29.86
 21
-159.875
  0
LINE
  8
0
 10
29.86
 20
-159.875
 11
29.86
 21
-162.535
  0
LINE
  8
0
 10
29.86
 20
-162.535
 11
23.485
 21
-162.535
  0
LINE
  8
0
 10
23.485
 20
-162.535
 11
23.485
 21
-171.86
  0
LINE
  8
0
 10
23.485
 20
-171.86
 11
19.685
 21
-171.86
  0
LINE
  8
0
 10
19.685
 20
-171.86
 11
19.685
 21
-162.535
  0
LINE
  8
0
 10
19.685
 20
-162.535
 11
18.14
 21
-162.535
  0
LINE
  8
0
 10
18.14
 20
-162.535
 11
18.14
 21
-159.875
  0
LINE
  8
0
 10
18.14
 20
-159.875
 11
5.85999
 21
-159.875
  0
LINE
  8
0
 10
5.85999
 20
-159.875
 11
5.85999
 21
-162.535
  0
LINE
  8
0
 10
5.85999
 20
-162.535
 11
-5.86
 21
-162.535
  0
LINE
  8
0
 10
-5.86
 20
-162.535
 11
-5.86
 21
-159.875
  0
LINE
  8
0
 10
-5.86
 20
-159.875
 11
-18.14
 21
-159.875
  0
LINE
  8
0
 10
-18.14
 20
-159.875
 11
-18.14
 21
-162.535
  0
LINE
  8
0
 10
-18.14
 20
-162.535
 11
-18.165
 21
-162.535
  0
LINE
  8
0
 10
-18.165
 20
-162.535
 11
-18.165
 21
-171.86
  0
LINE
  8
0
 10
-18.165
 20
-171.86
 11
-21.965
 21
-171.86
  0
LINE
  8
0
 10
-21.965
 20
-171.86
 11
-21.965
 21
-162.535
  0
LINE
  8
0
 10
-21.965
 20
-162.535
 11
-29.86
 21
-162.535
  0
LINE
  8
0
 10
-29.86
 20
-162.535
 11
-29.86
 21
-159.875
  0
LINE
  8
0
 10
-29.86
 20
-159.875
 11
-42.14
 21
-159.875
  0
LINE
  8
0
 10
-42.14
 20
-159.875
 11
-42.14
 21
-162.535
  0
LINE
  8
0
 10
-42.14
 20
-162.535
 11
-53.86
 21
-162.535
  0
LINE
  8
0
 10
-53.86
 20
-162.535
 11
-53.86
 21
-159.875
  0
LINE
  8
0
 10
-53.86
 20
-159.875
 11
-59.815
 21
-159.875
  0
LINE
  8
0
 10
-59.815
 20
-159.875
 11
-59.815
 21
-171.86
  0
LINE
  8
0
 10
-59.815
 20
-171.86
 11
-63.615
 21
-171.86
  0
LINE
  8
0
 10
-63.615
 20
-171.86
 11
-63.615
 21
-159.875
  0
LINE
  8
0
 10
-63.615
 20
-159.875
 11
-66.14
 21
-159.875
  0
LINE
  8
0
 10
-66.14
 20
-159.875
 11
-66.14
 21
-162.535
  0
LINE
  8
0
 10
-66.14
 20
-162.535
 11
-77.86
 21
-162.535
  0
LINE
  8
0
 10
-77.86
 20
-162.535
 11
-77.86
 21
-159.875
  0
LINE
  8
0
 10
-77.86
 20
-159.875
 11
-90.14
 21
-159.875
  0
LINE
  8
0
 10
-90.14
 20
-159.875
 11
-90.14
 21
-162.535
  0
LINE
  8
0
 10
-90.14
 20
-162.535
 11
-101.465
 21
-162.535
  0
LINE
  8
0
 10
-101.465
 20
-162.535
 11
-101.465
 21
-171.86
  0
LINE
  8
0
 10
-101.465
 20
-171.86
 11
-104.125
 21
-171.86
  0
LINE
  8
0
 10
-104.125
 20
-171.86
 11
-104.125
 21
-184.14
  0
LINE
  8
0
 10
-104.125
 20
-184.14
 11
-101.465
 21
-184.14
  0
LINE
  8
0
 10
-101.465
 20
-184.14
 11
-101.465
 21
-195.86
  0
LINE
  8
0
 10
-101.465
 20
-195.86
 11
-104.125
 21
-195.86
  0
LINE
  8
0
 10
-104.125
 20
-195.86
 11
-104.125
 21
-208.14
  0
LINE
  8
0
 10
-104.125
 20
-208.14
 11
-101.465
 21
-208.14
  0
LINE
  8
0
 10
-101.465
 20
-208.14
 11
-101.465
 21
-214.277
  0
LINE
  8
0
 10
-101.465
 20
-214.277
 11
-90.14
 21
-214.277
  0
LINE
  8
0
 10
-90.14
 20
-214.277
 11
-90.14
 21
-218.077
  0
LINE
  8
0
 10
-90.14
 20
-218.077
 11
-101.465
 21
-218.077
  0
LINE
  8
0
 10
-101.465
 20
-218.077
 11
-101.465
 21
-219.86
  0
LINE
  8
0
 10
-101.465
 20
-219.86
 11
-104.125
 21
-219.86
  0
LINE
  8
0
 10
-104.125
 20
-219.86
 11
-104.125
 21
-232.14
  0
LINE
  8
0
 10
-104.125
 20
-232.14
 11
-101.465
 21
-232.14
  0
LINE
  8
0
 10
-101.465
 20
-232.14
 11
-101.465
 21
-243.86
  0
LINE
  8
0
 10
-101.465
 20
-243.86
 11
-104.125
 21
-243.86
  0
LINE
  8
0
 10
-104.125
 20
-243.86
 11
-104.125
 21
-256.14
  0
LINE
  8
0
 10
-104.125
 20
-256.14
 11
-101.465
 21
-256.14
  0
LINE
  8
0
 10
-101.465
 20
-256.14
 11
-101.465
 21
-267.86
  0
LINE
  8
0
 10
-101.465
 20
-267.86
 11
-104.125
 21
-267.86
  0
LINE
  8
0
 10
-104.125
 20
-267.86
 11
-104.125
 21
-271.34
  0
LINE
  8
0
 10
-104.125
 20
-271.34
 11
-90.14
 21
-271.34
  0
LINE
  8
0
 10
-90.14
 20
-271.34
 11
-90.14
 21
-275.14
  0
LINE
  8
0
 10
-90.14
 20
-275.14
 11
-104.125
 21
-275.14
  0
LINE
  8
0
 10
-104.125
 20
-275.14
 11
-104.125
 21
-280.14
  0
LINE
  8
0
 10
-104.125
 20
-280.14
 11
-101.465
 21
-280.14
  0
LINE
  8
0
 10
-101.465
 20
-280.14
 11
-101.465
 21
-291.86
  0
LINE
  8
0
 10
-101.465
 20
-291.86
 11
-104.125
 21
-291.86
  0
LINE
  8
0
 10
-104.125
 20
-291.86
 11
-104.125
 21
-304.14
  0
LINE
  8
0
 10
-104.125
 20
-304.14
 11
-101.465
 21
-304.14
  0
LINE
  8
0
 10
-101.465
 20
-304.14
 11
-101.465
 21
-315.86
  0
LINE
  8
0
 10
-101.465
 20
-315.86
 11
-104.125
 21
-315.86
  0
LINE
  8
0
 10
-104.125
 20
-315.86
 11
-104.125
 21
-328.14
  0
LINE
  8
0
 10
-104.125
 20
-328.14
 11
-101.465
 21
-328.14
  0
LINE
  8
0
 10
-101.465
 20
-328.14
 11
-101.465
 21
-328.402
  0
LINE
  8
0
 10
-101.465
 20
-328.402
 11
-90.14
 21
-328.402
  0
LINE
  8
0
 10
-90.14
 20
-328.402
 11
-90.14
 21
-332.202
  0
LINE
  8
0
 10
-90.14
 20
-332.202
 11
-101.465
 21
-332.202
  0
LINE
  8
0
 10
-101.465
 20
-332.202
 11
-101.465
 21
-339.86
  0
LINE
  8
0
 10
-101.465
 20
-339.86
 11
-104.125
 21
-339.86
  0
LINE
  8
0
 10
-104.125
 20
-339.86
 11
-104.125
 21
-352.14
  0
LINE
  8
0
 10
-104.125
 20
-352.14
 11
-101.465
 21
-352.14
  0
LINE
  8
0
 10
-101.465
 20
-352.14
 11
-101.465
 21
-363.86
  0
LINE
  8
0
 10
-101.465
 20
-363.86
 11
-104.125
 21
-363.86
  0
LINE
  8
0
 10
-104.125
 20
-363.86
 11
-104.125
 21
-376.14
  0
LINE
  8
0
 10
-104.125
 20
-376.14
 11
-101.465
 21
-376.14
  0
LINE
  8
0
 10
-101.465
 20
-376.14
 11
-101.465
 21
-385.465
  0
LINE
  8
0
 10
-101.465
 20
-385.465
 11
-90.14
 21
-385.465
  0
LINE
  8
0
 10
-90.14
 20
-385.465
 11
-90.14
 21
-388.125
  0
LINE
  8
0
 10
-90.14
 20
-388.125
 11
-77.86
 21
-388.125
  0
LINE
  8
0
 10
-77.86
 20
-388.125
 11
-77.86
 21
-385.465
  0
LINE
  8
0
 10
61.335
 20
-195.86
 11
61.335
 21
-184.14
  0
LINE
  8
0
 10
61.335
 20
-184.14
 11
65.135
 21
-184.14
  0
LINE
  8
0
 10
65.135
 20
-184.14
 11
65.135
 21
-195.86
  0
LINE
  8
0
 10
65.135
 20
-195.86
 11
61.335
 21
-195.86
  0
LINE
  8
0
 10
19.685
 20
-195.86
 11
19.685
 21
-184.14
  0
LINE
  8
0
 10
19.685
 20
-184.14
 11
23.485
 21
-184.14
  0
LINE
  8
0
 10
23.485
 20
-184.14
 11
23.485
 21
-195.86
  0
LINE
  8
0
 10
23.485
 20
-195.86
 11
19.685
 21
-195.86
  0
LINE
  8
0
 10
-63.615
 20
-195.86
 11
-63.615
 21
-184.14
  0
LINE
  8
0
 10
-63.615
 20
-184.14
 11
-59.815
 21
-184.14
  0
LINE
  8
0
 10
-59.815
 20
-184.14
 11
-59.815
 21
-195.86
  0
LINE
  8
0
 10
-59.815
 20
-195.86
 11
-63.615
 21
-195.86
  0
LINE
  8
0
 10
-21.965
 20
-195.86
 11
-21.965
 21
-184.14
  0
LINE
  8
0
 10
-21.965
 20
-184.14
 11
-18.165
 21
-184.14
  0
LINE
  8
0
 10
-18.165
 20
-184.14
 11
-18.165
 21
-195.86
  0
LINE
  8
0
 10
-18.165
 20
-195.86
 11
-21.965
 21
-195.86
  0
LINE
  8
0
 10
19.685
 20
-219.86
 11
19.685
 21
-218.077
  0
LINE
  8
0
 10
19.685
 20
-218.077
 11
18.14
 21
-218.077
  0
LINE
  8
0
 10
18.14
 20
-218.077
 11
18.14
 21
-214.277
  0
LINE
  8
0
 10
18.14
 20
-214.277
 11
19.685
 21
-214.277
  0
LINE
  8
0
 10
19.685
 20
-214.277
 11
19.685
 21
-208.14
  0
LINE
  8
0
 10
19.685
 20
-208.14
 11
23.485
 21
-208.14
  0
LINE
  8
0
 10
23.485
 20
-208.14
 11
23.485
 21
-214.277
  0
LINE
  8
0
 10
23.485
 20
-214.277
 11
29.86
 21
-214.277
  0
LINE
  8
0
 10
29.86
 20
-214.277
 11
29.86
 21
-218.077
  0
LINE
  8
0
 10
29.86
 20
-218.077
 11
23.485
 21
-218.077
  0
LINE
  8
0
 10
23.485
 20
-218.077
 11
23.485
 21
-219.86
  0
LINE
  8
0
 10
23.485
 20
-219.86
 11
19.685
 21
-219.86
  0
LINE
  8
0
 10
61.335
 20
-219.86
 11
61.335
 21
-208.14
  0
LINE
  8
0
 10
61.335
 20
-208.14
 11
65.135
 21
-208.14
  0
LINE
  8
0
 10
65.135
 20
-208.14
 11
65.135
 21
-219.86
  0
LINE
  8
0
 10
65.135
 20
-219.86
 11
61.335
 21
-219.86
  0
LINE
  8
0
 10
-63.615
 20
-219.86
 11
-63.615
 21
-208.14
  0
LINE
  8
0
 10
-63.615
 20
-208.14
 11
-59.815
 21
-208.14
  0
LINE
  8
0
 10
-59.815
 20
-208.14
 11
-59.815
 21
-219.86
  0
LINE
  8
0
 10
-59.815
 20
-219.86
 11
-63.615
 21
-219.86
  0
LINE
  8
0
 10
-21.965
 20
-219.86
 11
-21.965
 21
-218.077
  0
LINE
  8
0
 10
-21.965
 20
-218.077
 11
-29.86
 21
-218.077
  0
LINE
  8
0
 10
-29.86
 20
-218.077
 11
-29.86
 21
-214.277
  0
LINE
  8
0
 10
-29.86
 20
-214.277
 11
-21.965
 21
-214.277
  0
LINE
  8
0
 10
-21.965
 20
-214.277
 11
-21.965
 21
-208.14
  0
LINE
  8
0
 10
-21.965
 20
-208.14
 11
-18.165
 21
-208.14
  0
LINE
  8
0
 10
-18.165
 20
-208.14
 11
-18.165
 21
-214.277
  0
LINE
  8
0
 10
-18.165
 20
-214.277
 11
-18.14
 21
-214.277
  0
LINE
  8
0
 10
-18.14
 20
-214.277
 11
-18.14
 21
-218.077
  0
LINE
  8
0
 10
-18.14
 20
-218.077
 11
-18.165
 21
-218.077
  0
LINE
  8
0
 10
-18.165
 20
-218.077
 11
-18.165
 21
-219.86
  0
LINE
  8
0
 10
-18.165
 20
-219.86
 11
-21.965
 21
-219.86
  0
LINE
  8
0
 10
-53.86
 20
-218.077
 11
-53.86
 21
-214.277
  0
LINE
  8
0
 10
-53.86
 20
-214.277
 11
-42.14
 21
-214.277
  0
LINE
  8
0
 10
-42.14
 20
-214.277
 11
-42.14
 21
-218.077
  0
LINE
  8
0
 10
-42.14
 20
-218.077
 11
-53.86
 21
-218.077
  0
LINE
  8
0
 10
-5.85999
 20
-218.077
 11
-5.85999
 21
-214.277
  0
LINE
  8
0
 10
-5.85999
 20
-214.277
 11
5.85999
 21
-214.277
  0
LINE
  8
0
 10
5.85999
 20
-214.277
 11
5.85999
 21
-218.077
  0
LINE
  8
0
 10
5.85999
 20
-218.077
 11
-5.85999
 21
-218.077
  0
LINE
  8
0
 10
42.14
 20
-218.077
 11
42.14
 21
-214.277
  0
LINE
  8
0
 10
42.14
 20
-214.277
 11
53.86
 21
-214.277
  0
LINE
  8
0
 10
53.86
 20
-214.277
 11
53.86
 21
-218.077
  0
LINE
  8
0
 10
53.86
 20
-218.077
 11
42.14
 21
-218.077
  0
LINE
  8
0
 10
-77.86
 20
-218.077
 11
-77.86
 21
-214.277
  0
LINE
  8
0
 10
-77.86
 20
-214.277
 11
-66.14
 21
-214.277
  0
LINE
  8
0
 10
-66.14
 20
-214.277
 11
-66.14
 21
-218.077
  0
LINE
  8
0
 10
-66.14
 20
-218.077
 11
-77.86
 21
-218.077
  0
LINE
  8
0
 10
66.14
 20
-218.077
 11
66.14
 21
-214.278
  0
LINE
  8
0
 10
66.14
 20
-214.278
 11
77.86
 21
-214.278
  0
LINE
  8
0
 10
77.86
 20
-214.278
 11
77.86
 21
-218.077
  0
LINE
  8
0
 10
77.86
 20
-218.077
 11
66.14
 21
-218.077
  0
LINE
  8
0
 10
19.685
 20
-243.86
 11
19.685
 21
-232.14
  0
LINE
  8
0
 10
19.685
 20
-232.14
 11
23.485
 21
-232.14
  0
LINE
  8
0
 10
23.485
 20
-232.14
 11
23.485
 21
-243.86
  0
LINE
  8
0
 10
23.485
 20
-243.86
 11
19.685
 21
-243.86
  0
LINE
  8
0
 10
-21.965
 20
-243.86
 11
-21.965
 21
-232.14
  0
LINE
  8
0
 10
-21.965
 20
-232.14
 11
-18.165
 21
-232.14
  0
LINE
  8
0
 10
-18.165
 20
-232.14
 11
-18.165
 21
-243.86
  0
LINE
  8
0
 10
-18.165
 20
-243.86
 11
-21.965
 21
-243.86
  0
LINE
  8
0
 10
61.335
 20
-243.86
 11
61.335
 21
-232.14
  0
LINE
  8
0
 10
61.335
 20
-232.14
 11
65.135
 21
-232.14
  0
LINE
  8
0
 10
65.135
 20
-232.14
 11
65.135
 21
-243.86
  0
LINE
  8
0
 10
65.135
 20
-243.86
 11
61.335
 21
-243.86
  0
LINE
  8
0
 10
-63.615
 20
-243.86
 11
-63.615
 21
-232.14
  0
LINE
  8
0
 10
-63.615
 20
-232.14
 11
-59.815
 21
-232.14
  0
LINE
  8
0
 10
-59.815
 20
-232.14
 11
-59.815
 21
-243.86
  0
LINE
  8
0
 10
-59.815
 20
-243.86
 11
-63.615
 21
-243.86
  0
LINE
  8
0
 10
19.685
 20
-267.86
 11
19.685
 21
-256.14
  0
LINE
  8
0
 10
19.685
 20
-256.14
 11
23.485
 21
-256.14
  0
LINE
  8
0
 10
23.485
 20
-256.14
 11
23.485
 21
-267.86
  0
LINE
  8
0
 10
23.485
 20
-267.86
 11
19.685
 21
-267.86
  0
LINE
  8
0
 10
-63.615
 20
-267.86
 11
-63.615
 21
-256.14
  0
LINE
  8
0
 10
-63.615
 20
-256.14
 11
-59.815
 21
-256.14
  0
LINE
  8
0
 10
-59.815
 20
-256.14
 11
-59.815
 21
-267.86
  0
LINE
  8
0
 10
-59.815
 20
-267.86
 11
-63.615
 21
-267.86
  0
LINE
  8
0
 10
61.335
 20
-267.86
 11
61.335
 21
-256.14
  0
LINE
  8
0
 10
61.335
 20
-256.14
 11
65.135
 21
-256.14
  0
LINE
  8
0
 10
65.135
 20
-256.14
 11
65.135
 21
-267.86
  0
LINE
  8
0
 10
65.135
 20
-267.86
 11
61.335
 21
-267.86
  0
LINE
  8
0
 10
-21.965
 20
-267.86
 11
-21.965
 21
-256.14
  0
LINE
  8
0
 10
-21.965
 20
-256.14
 11
-18.165
 21
-256.14
  0
LINE
  8
0
 10
-18.165
 20
-256.14
 11
-18.165
 21
-267.86
  0
LINE
  8
0
 10
-18.165
 20
-267.86
 11
-21.965
 21
-267.86
  0
LINE
  8
0
 10
42.14
 20
-275.14
 11
42.14
 21
-271.34
  0
LINE
  8
0
 10
42.14
 20
-271.34
 11
53.86
 21
-271.34
  0
LINE
  8
0
 10
53.86
 20
-271.34
 11
53.86
 21
-275.14
  0
LINE
  8
0
 10
53.86
 20
-275.14
 11
42.14
 21
-275.14
  0
LINE
  8
0
 10
-5.85999
 20
-275.14
 11
-5.85999
 21
-271.34
  0
LINE
  8
0
 10
-5.85999
 20
-271.34
 11
5.85999
 21
-271.34
  0
LINE
  8
0
 10
5.85999
 20
-271.34
 11
5.85999
 21
-275.14
  0
LINE
  8
0
 10
5.85999
 20
-275.14
 11
-5.85999
 21
-275.14
  0
LINE
  8
0
 10
-53.86
 20
-275.14
 11
-53.86
 21
-271.34
  0
LINE
  8
0
 10
-53.86
 20
-271.34
 11
-42.14
 21
-271.34
  0
LINE
  8
0
 10
-42.14
 20
-271.34
 11
-42.14
 21
-275.14
  0
LINE
  8
0
 10
-42.14
 20
-275.14
 11
-53.86
 21
-275.14
  0
LINE
  8
0
 10
-77.86
 20
-275.14
 11
-77.86
 21
-271.34
  0
LINE
  8
0
 10
-77.86
 20
-271.34
 11
-66.14
 21
-271.34
  0
LINE
  8
0
 10
-66.14
 20
-271.34
 11
-66.14
 21
-275.14
  0
LINE
  8
0
 10
-66.14
 20
-275.14
 11
-77.86
 21
-275.14
  0
LINE
  8
0
 10
-29.86
 20
-275.14
 11
-29.86
 21
-271.34
  0
LINE
  8
0
 10
-29.86
 20
-271.34
 11
-18.14
 21
-271.34
  0
LINE
  8
0
 10
-18.14
 20
-271.34
 11
-18.14
 21
-275.14
  0
LINE
  8
0
 10
-18.14
 20
-275.14
 11
-29.86
 21
-275.14
  0
LINE
  8
0
 10
18.14
 20
-275.14
 11
18.14
 21
-271.34
  0
LINE
  8
0
 10
18.14
 20
-271.34
 11
29.86
 21
-271.34
  0
LINE
  8
0
 10
29.86
 20
-271.34
 11
29.86
 21
-275.14
  0
LINE
  8
0
 10
29.86
 20
-275.14
 11
18.14
 21
-275.14
  0
LINE
  8
0
 10
66.14
 20
-275.14
 11
66.14
 21
-271.34
  0
LINE
  8
0
 10
66.14
 20
-271.34
 11
77.86
 21
-271.34
  0
LINE
  8
0
 10
77.86
 20
-271.34
 11
77.86
 21
-275.14
  0
LINE
  8
0
 10
77.86
 20
-275.14
 11
66.14
 21
-275.14
  0
LINE
  8
0
 10
19.685
 20
-291.86
 11
19.685
 21
-280.14
  0
LINE
  8
0
 10
19.685
 20
-280.14
 11
23.485
 21
-280.14
  0
LINE
  8
0
 10
23.485
 20
-280.14
 11
23.485
 21
-291.86
  0
LINE
  8
0
 10
23.485
 20
-291.86
 11
19.685
 21
-291.86
  0
LINE
  8
0
 10
-21.965
 20
-291.86
 11
-21.965
 21
-280.14
  0
LINE
  8
0
 10
-21.965
 20
-280.14
 11
-18.165
 21
-280.14
  0
LINE
  8
0
 10
-18.165
 20
-280.14
 11
-18.165
 21
-291.86
  0
LINE
  8
0
 10
-18.165
 20
-291.86
 11
-21.965
 21
-291.86
  0
LINE
  8
0
 10
61.335
 20
-291.86
 11
61.335
 21
-280.14
  0
LINE
  8
0
 10
61.335
 20
-280.14
 11
65.135
 21
-280.14
  0
LINE
  8
0
 10
65.135
 20
-280.14
 11
65.135
 21
-291.86
  0
LINE
  8
0
 10
65.135
 20
-291.86
 11
61.335
 21
-291.86
  0
LINE
  8
0
 10
-63.615
 20
-291.86
 11
-63.615
 21
-280.14
  0
LINE
  8
0
 10
-63.615
 20
-280.14
 11
-59.815
 21
-280.14
  0
LINE
  8
0
 10
-59.815
 20
-280.14
 11
-59.815
 21
-291.86
  0
LINE
  8
0
 10
-59.815
 20
-291.86
 11
-63.615
 21
-291.86
  0
LINE
  8
0
 10
61.335
 20
-315.86
 11
61.335
 21
-304.14
  0
LINE
  8
0
 10
61.335
 20
-304.14
 11
65.135
 21
-304.14
  0
LINE
  8
0
 10
65.135
 20
-304.14
 11
65.135
 21
-315.86
  0
LINE
  8
0
 10
65.135
 20
-315.86
 11
61.335
 21
-315.86
  0
LINE
  8
0
 10
-63.615
 20
-315.86
 11
-63.615
 21
-304.14
  0
LINE
  8
0
 10
-63.615
 20
-304.14
 11
-59.815
 21
-304.14
  0
LINE
  8
0
 10
-59.815
 20
-304.14
 11
-59.815
 21
-315.86
  0
LINE
  8
0
 10
-59.815
 20
-315.86
 11
-63.615
 21
-315.86
  0
LINE
  8
0
 10
-21.965
 20
-315.86
 11
-21.965
 21
-304.14
  0
LINE
  8
0
 10
-21.965
 20
-304.14
 11
-18.165
 21
-304.14
  0
LINE
  8
0
 10
-18.165
 20
-304.14
 11
-18.165
 21
-315.86
  0
LINE
  8
0
 10
-18.165
 20
-315.86
 11
-21.965
 21
-315.86
  0
LINE
  8
0
 10
19.685
 20
-315.86
 11
19.685
 21
-304.14
  0
LINE
  8
0
 10
19.685
 20
-304.14
 11
23.485
 21
-304.14
  0
LINE
  8
0
 10
23.485
 20
-304.14
 11
23.485
 21
-315.86
  0
LINE
  8
0
 10
23.485
 20
-315.86
 11
19.685
 21
-315.86
  0
LINE
  8
0
 10
-21.965
 20
-339.86
 11
-21.965
 21
-332.202
  0
LINE
  8
0
 10
-21.965
 20
-332.202
 11
-29.86
 21
-332.202
  0
LINE
  8
0
 10
-29.86
 20
-332.202
 11
-29.86
 21
-328.402
  0
LINE
  8
0
 10
-29.86
 20
-328.402
 11
-21.965
 21
-328.402
  0
LINE
  8
0
 10
-21.965
 20
-328.402
 11
-21.965
 21
-328.14
  0
LINE
  8
0
 10
-21.965
 20
-328.14
 11
-18.165
 21
-328.14
  0
LINE
  8
0
 10
-18.165
 20
-328.14
 11
-18.165
 21
-328.402
  0
LINE
  8
0
 10
-18.165
 20
-328.402
 11
-18.14
 21
-328.402
  0
LINE
  8
0
 10
-18.14
 20
-328.402
 11
-18.14
 21
-332.202
  0
LINE
  8
0
 10
-18.14
 20
-332.202
 11
-18.165
 21
-332.202
  0
LINE
  8
0
 10
-18.165
 20
-332.202
 11
-18.165
 21
-339.86
  0
LINE
  8
0
 10
-18.165
 20
-339.86
 11
-21.965
 21
-339.86
  0
LINE
  8
0
 10
61.335
 20
-339.86
 11
61.335
 21
-328.14
  0
LINE
  8
0
 10
61.335
 20
-328.14
 11
65.135
 21
-328.14
  0
LINE
  8
0
 10
65.135
 20
-328.14
 11
65.135
 21
-339.86
  0
LINE
  8
0
 10
65.135
 20
-339.86
 11
61.335
 21
-339.86
  0
LINE
  8
0
 10
-63.615
 20
-339.86
 11
-63.615
 21
-328.14
  0
LINE
  8
0
 10
-63.615
 20
-328.14
 11
-59.815
 21
-328.14
  0
LINE
  8
0
 10
-59.815
 20
-328.14
 11
-59.815
 21
-339.86
  0
LINE
  8
0
 10
-59.815
 20
-339.86
 11
-63.615
 21
-339.86
  0
LINE
  8
0
 10
19.685
 20
-339.86
 11
19.685
 21
-332.202
  0
LINE
  8
0
 10
19.685
 20
-332.202
 11
18.14
 21
-332.202
  0
LINE
  8
0
 10
18.14
 20
-332.202
 11
18.14
 21
-328.402
  0
LINE
  8
0
 10
18.14
 20
-328.402
 11
19.685
 21
-328.402
  0
LINE
  8
0
 10
19.685
 20
-328.402
 11
19.685
 21
-328.14
  0
LINE
  8
0
 10
19.685
 20
-328.14
 11
23.485
 21
-328.14
  0
LINE
  8
0
 10
23.485
 20
-328.14
 11
23.485
 21
-328.402
  0
LINE
  8
0
 10
23.485
 20
-328.402
 11
29.86
 21
-328.402
  0
LINE
  8
0
 10
29.86
 20
-328.402
 11
29.86
 21
-332.202
  0
LINE
  8
0
 10
29.86
 20
-332.202
 11
23.485
 21
-332.202
  0
LINE
  8
0
 10
23.485
 20
-332.202
 11
23.485
 21
-339.86
  0
LINE
  8
0
 10
23.485
 20
-339.86
 11
19.685
 21
-339.86
  0
LINE
  8
0
 10
-77.86
 20
-332.202
 11
-77.86
 21
-328.402
  0
LINE
  8
0
 10
-77.86
 20
-328.402
 11
-66.14
 21
-328.402
  0
LINE
  8
0
 10
-66.14
 20
-328.402
 11
-66.14
 21
-332.202
  0
LINE
  8
0
 10
-66.14
 20
-332.202
 11
-77.86
 21
-332.202
  0
LINE
  8
0
 10
42.14
 20
-332.202
 11
42.14
 21
-328.402
  0
LINE
  8
0
 10
42.14
 20
-328.402
 11
53.86
 21
-328.402
  0
LINE
  8
0
 10
53.86
 20
-328.402
 11
53.86
 21
-332.202
  0
LINE
  8
0
 10
53.86
 20
-332.202
 11
42.14
 21
-332.202
  0
LINE
  8
0
 10
66.14
 20
-332.202
 11
66.14
 21
-328.402
  0
LINE
  8
0
 10
66.14
 20
-328.402
 11
77.86
 21
-328.402
  0
LINE
  8
0
 10
77.86
 20
-328.402
 11
77.86
 21
-332.202
  0
LINE
  8
0
 10
77.86
 20
-332.202
 11
66.14
 21
-332.202
  0
LINE
  8
0
 10
-5.85999
 20
-332.202
 11
-5.85999
 21
-328.402
  0
LINE
  8
0
 10
-5.85999
 20
-328.402
 11
5.85999
 21
-328.402
  0
LINE
  8
0
 10
5.85999
 20
-328.402
 11
5.85999
 21
-332.202
  0
LINE
  8
0
 10
5.85999
 20
-332.202
 11
-5.85999
 21
-332.202
  0
LINE
  8
0
 10
-53.86
 20
-332.202
 11
-53.86
 21
-328.402
  0
LINE
  8
0
 10
-53.86
 20
-328.402
 11
-42.14
 21
-328.402
  0
LINE
  8
0
 10
-42.14
 20
-328.402
 11
-42.14
 21
-332.202
  0
LINE
  8
0
 10
-42.14
 20
-332.202
 11
-53.86
 21
-332.202
  0
LINE
  8
0
 10
19.685
 20
-363.86
 11
19.685
 21
-352.14
  0
LINE
  8
0
 10
19.685
 20
-352.14
 11
23.485
 21
-352.14
  0
LINE
  8
0
 10
23.485
 20
-352.14
 11
23.485
 21
-363.86
  0
LINE
  8
0
 10
23.485
 20
-363.86
 11
19.685
 21
-363.86
  0
LINE
  8
0
 10
-63.615
 20
-363.86
 11
-63.615
 21
-352.14
  0
LINE
  8
0
 10
-63.615
 20
-352.14
 11
-59.815
 21
-352.14
  0
LINE
  8
0
 10
-59.815
 20
-352.14
 11
-59.815
 21
-363.86
  0
LINE
  8
0
 10
-59.815
 20
-363.86
 11
-63.615
 21
-363.86
  0
LINE
  8
0
 10
-21.965
 20
-363.86
 11
-21.965
 21
-352.14
  0
LINE
  8
0
 10
-21.965
 20
-352.14
 11
-18.165
 21
-352.14
  0
LINE
  8
0
 10
-18.165
 20
-352.14
 11
-18.165
 21
-363.86
  0
LINE
  8
0
 10
-18.165
 20
-363.86
 11
-21.965
 21
-363.86
  0
LINE
  8
0
 10
61.335
 20
-363.86
 11
61.335
 21
-352.14
  0
LINE
  8
0
 10
61.335
 20
-352.14
 11
65.135
 21
-352.14
  0
LINE
  8
0
 10
65.135
 20
-352.14
 11
65.135
 21
-363.86
  0
LINE
  8
0
 10
65.135
 20
-363.86
 11
61.335
 21
-363.86
  0
LINE
  8
0
 10
-320.61
 20
-245.415
 11
-308.89
 21
-245.415
  0
LINE
  8
0
 10
-308.89
 20
-245.415
 11
-308.89
 21
-248.075
  0
LINE
  8
0
 10
-308.89
 20
-248.075
 11
-296.61
 21
-248.075
  0
LINE
  8
0
 10
-296.61
 20
-248.075
 11
-296.61
 21
-245.415
  0
LINE
  8
0
 10
-296.61
 20
-245.415
 11
-284.89
 21
-245.415
  0
LINE
  8
0
 10
-284.89
 20
-245.415
 11
-284.89
 21
-248.075
  0
LINE
  8
0
 10
-284.89
 20
-248.075
 11
-272.61
 21
-248.075
  0
LINE
  8
0
 10
-272.61
 20
-248.075
 11
-272.61
 21
-245.415
  0
LINE
  8
0
 10
-272.61
 20
-245.415
 11
-260.89
 21
-245.415
  0
LINE
  8
0
 10
-260.89
 20
-245.415
 11
-260.89
 21
-248.075
  0
LINE
  8
0
 10
-260.89
 20
-248.075
 11
-248.61
 21
-248.075
  0
LINE
  8
0
 10
-248.61
 20
-248.075
 11
-248.61
 21
-245.415
  0
LINE
  8
0
 10
-248.61
 20
-245.415
 11
-236.89
 21
-245.415
  0
LINE
  8
0
 10
-236.89
 20
-245.415
 11
-236.89
 21
-248.075
  0
LINE
  8
0
 10
-236.89
 20
-248.075
 11
-224.61
 21
-248.075
  0
LINE
  8
0
 10
-224.61
 20
-248.075
 11
-224.61
 21
-245.415
  0
LINE
  8
0
 10
-224.61
 20
-245.415
 11
-212.89
 21
-245.415
  0
LINE
  8
0
 10
-212.89
 20
-245.415
 11
-212.89
 21
-248.075
  0
LINE
  8
0
 10
-212.89
 20
-248.075
 11
-200.61
 21
-248.075
  0
LINE
  8
0
 10
-200.61
 20
-248.075
 11
-200.61
 21
-245.415
  0
LINE
  8
0
 10
-200.61
 20
-245.415
 11
-188.89
 21
-245.415
  0
LINE
  8
0
 10
-188.89
 20
-245.415
 11
-188.89
 21
-248.075
  0
LINE
  8
0
 10
-188.89
 20
-248.075
 11
-176.61
 21
-248.075
  0
LINE
  8
0
 10
-176.61
 20
-248.075
 11
-176.61
 21
-245.415
  0
LINE
  8
0
 10
-176.61
 20
-245.415
 11
-164.89
 21
-245.415
  0
LINE
  8
0
 10
-164.89
 20
-245.415
 11
-164.89
 21
-248.075
  0
LINE
  8
0
 10
-164.89
 20
-248.075
 11
-152.61
 21
-248.075
  0
LINE
  8
0
 10
-152.61
 20
-248.075
 11
-152.61
 21
-245.415
  0
LINE
  8
0
 10
-152.61
 20
-245.415
 11
-140.89
 21
-245.415
  0
LINE
  8
0
 10
-140.89
 20
-245.415
 11
-140.89
 21
-248.075
  0
LINE
  8
0
 10
-140.89
 20
-248.075
 11
-128.61
 21
-248.075
  0
LINE
  8
0
 10
-128.61
 20
-248.075
 11
-128.61
 21
-245.415
  0
LINE
  8
0
 10
-128.61
 20
-245.415
 11
-116.89
 21
-245.415
  0
LINE
  8
0
 10
-116.89
 20
-245.415
 11
-116.89
 21
-248.075
  0
LINE
  8
0
 10
-116.89
 20
-248.075
 11
-107.285
 21
-248.075
  0
LINE
  8
0
 10
-107.285
 20
-248.075
 11
-107.285
 21
-243.09
  0
LINE
  8
0
 10
-107.285
 20
-243.09
 11
-104.625
 21
-243.09
  0
LINE
  8
0
 10
-104.625
 20
-243.09
 11
-104.625
 21
-235.81
  0
LINE
  8
0
 10
-104.625
 20
-235.81
 11
-107.285
 21
-235.81
  0
LINE
  8
0
 10
-107.285
 20
-235.81
 11
-107.285
 21
-229.09
  0
LINE
  8
0
 10
-107.285
 20
-229.09
 11
-104.625
 21
-229.09
  0
LINE
  8
0
 10
-104.625
 20
-229.09
 11
-104.625
 21
-221.81
  0
LINE
  8
0
 10
-104.625
 20
-221.81
 11
-107.285
 21
-221.81
  0
LINE
  8
0
 10
-107.285
 20
-221.81
 11
-107.285
 21
-215.09
  0
LINE
  8
0
 10
-107.285
 20
-215.09
 11
-104.625
 21
-215.09
  0
LINE
  8
0
 10
-104.625
 20
-215.09
 11
-104.625
 21
-207.81
  0
LINE
  8
0
 10
-104.625
 20
-207.81
 11
-107.285
 21
-207.81
  0
LINE
  8
0
 10
-107.285
 20
-207.81
 11
-107.285
 21
-202.825
  0
LINE
  8
0
 10
-107.285
 20
-202.825
 11
-157.888
 21
-202.825
  0
LINE
  8
0
 10
-157.888
 20
-202.825
 11
-157.888
 21
-225.45
  0
LINE
  8
0
 10
-157.888
 20
-225.45
 11
-161.688
 21
-225.45
  0
LINE
  8
0
 10
-161.688
 20
-225.45
 11
-161.688
 21
-202.825
  0
LINE
  8
0
 10
-161.688
 20
-202.825
 11
-214.95
 21
-202.825
  0
LINE
  8
0
 10
-214.95
 20
-202.825
 11
-214.95
 21
-225.45
  0
LINE
  8
0
 10
-214.95
 20
-225.45
 11
-218.75
 21
-225.45
  0
LINE
  8
0
 10
-218.75
 20
-225.45
 11
-218.75
 21
-202.825
  0
LINE
  8
0
 10
-218.75
 20
-202.825
 11
-272.012
 21
-202.825
  0
LINE
  8
0
 10
-272.012
 20
-202.825
 11
-272.012
 21
-225.45
  0
LINE
  8
0
 10
-272.012
 20
-225.45
 11
-275.812
 21
-225.45
  0
LINE
  8
0
 10
-275.812
 20
-225.45
 11
-275.812
 21
-202.825
  0
LINE
  8
0
 10
-275.812
 20
-202.825
 11
-330.215
 21
-202.825
  0
LINE
  8
0
 10
-330.215
 20
-202.825
 11
-330.215
 21
-207.81
  0
LINE
  8
0
 10
-330.215
 20
-207.81
 11
-332.875
 21
-207.81
  0
LINE
  8
0
 10
-332.875
 20
-207.81
 11
-332.875
 21
-215.09
  0
LINE
  8
0
 10
-332.875
 20
-215.09
 11
-330.215
 21
-215.09
  0
LINE
  8
0
 10
-330.215
 20
-215.09
 11
-330.215
 21
-221.81
  0
LINE
  8
0
 10
-330.215
 20
-221.81
 11
-332.875
 21
-221.81
  0
LINE
  8
0
 10
-332.875
 20
-221.81
 11
-332.875
 21
-229.09
  0
LINE
  8
0
 10
-332.875
 20
-229.09
 11
-330.215
 21
-229.09
  0
LINE
  8
0
 10
-330.215
 20
-229.09
 11
-330.215
 21
-235.81
  0
LINE
  8
0
 10
-330.215
 20
-235.81
 11
-332.875
 21
-235.81
  0
LINE
  8
0
 10
-332.875
 20
-235.81
 11
-332.875
 21
-243.09
  0
LINE
  8
0
 10
-332.875
 20
-243.09
 11
-330.215
 21
-243.09
  0
LINE
  8
0
 10
-330.215
 20
-243.09
 11
-330.215
 21
-248.075
  0
LINE
  8
0
 10
-330.215
 20
-248.075
 11
-320.61
 21
-248.075
  0
LINE
  8
0
 10
-320.61
 20
-248.075
 11
-320.61
 21
-245.415
  0
LINE
  8
0
 10
347.64
 20
-248.215
 11
359.36
 21
-248.215
  0
LINE
  8
0
 10
359.36
 20
-248.215
 11
359.36
 21
-250.875
  0
LINE
  8
0
 10
359.36
 20
-250.875
 11
371.64
 21
-250.875
  0
LINE
  8
0
 10
371.64
 20
-250.875
 11
371.64
 21
-248.215
  0
LINE
  8
0
 10
371.64
 20
-248.215
 11
375.025
 21
-248.215
  0
LINE
  8
0
 10
375.025
 20
-248.215
 11
375.025
 21
-228.25
  0
LINE
  8
0
 10
375.025
 20
-228.25
 11
378.825
 21
-228.25
  0
LINE
  8
0
 10
378.825
 20
-228.25
 11
378.825
 21
-248.215
  0
LINE
  8
0
 10
378.825
 20
-248.215
 11
383.36
 21
-248.215
  0
LINE
  8
0
 10
383.36
 20
-248.215
 11
383.36
 21
-250.875
  0
LINE
  8
0
 10
383.36
 20
-250.875
 11
395.64
 21
-250.875
  0
LINE
  8
0
 10
395.64
 20
-250.875
 11
395.64
 21
-248.215
  0
LINE
  8
0
 10
395.64
 20
-248.215
 11
407.36
 21
-248.215
  0
LINE
  8
0
 10
407.36
 20
-248.215
 11
407.36
 21
-250.875
  0
LINE
  8
0
 10
407.36
 20
-250.875
 11
416.675
 21
-250.875
  0
LINE
  8
0
 10
416.675
 20
-250.875
 11
416.675
 21
-228.25
  0
LINE
  8
0
 10
416.675
 20
-228.25
 11
420.475
 21
-228.25
  0
LINE
  8
0
 10
420.475
 20
-228.25
 11
420.475
 21
-248.215
  0
LINE
  8
0
 10
420.475
 20
-248.215
 11
431.36
 21
-248.215
  0
LINE
  8
0
 10
431.36
 20
-248.215
 11
431.36
 21
-250.875
  0
LINE
  8
0
 10
431.36
 20
-250.875
 11
443.64
 21
-250.875
  0
LINE
  8
0
 10
443.64
 20
-250.875
 11
443.64
 21
-248.215
  0
LINE
  8
0
 10
443.64
 20
-248.215
 11
455.36
 21
-248.215
  0
LINE
  8
0
 10
455.36
 20
-248.215
 11
455.36
 21
-250.875
  0
LINE
  8
0
 10
455.36
 20
-250.875
 11
458.325
 21
-250.875
  0
LINE
  8
0
 10
458.325
 20
-250.875
 11
458.325
 21
-228.25
  0
LINE
  8
0
 10
458.325
 20
-228.25
 11
462.125
 21
-228.25
  0
LINE
  8
0
 10
462.125
 20
-228.25
 11
462.125
 21
-250.875
  0
LINE
  8
0
 10
462.125
 20
-250.875
 11
467.64
 21
-250.875
  0
LINE
  8
0
 10
467.64
 20
-250.875
 11
467.64
 21
-248.215
  0
LINE
  8
0
 10
467.64
 20
-248.215
 11
479.36
 21
-248.215
  0
LINE
  8
0
 10
479.36
 20
-248.215
 11
479.36
 21
-250.875
  0
LINE
  8
0
 10
479.36
 20
-250.875
 11
491.64
 21
-250.875
  0
LINE
  8
0
 10
491.64
 20
-250.875
 11
491.64
 21
-248.215
  0
LINE
  8
0
 10
491.64
 20
-248.215
 11
499.975
 21
-248.215
  0
LINE
  8
0
 10
499.975
 20
-248.215
 11
499.975
 21
-228.25
  0
LINE
  8
0
 10
499.975
 20
-228.25
 11
503.775
 21
-228.25
  0
LINE
  8
0
 10
503.775
 20
-228.25
 11
503.775
 21
-250.875
  0
LINE
  8
0
 10
503.775
 20
-250.875
 11
515.64
 21
-250.875
  0
LINE
  8
0
 10
515.64
 20
-250.875
 11
515.64
 21
-248.215
  0
LINE
  8
0
 10
515.64
 20
-248.215
 11
527.36
 21
-248.215
  0
LINE
  8
0
 10
527.36
 20
-248.215
 11
527.36
 21
-250.875
  0
LINE
  8
0
 10
527.36
 20
-250.875
 11
538.965
 21
-250.875
  0
LINE
  8
0
 10
538.965
 20
-250.875
 11
538.965
 21
-248.215
  0
LINE
  8
0
 10
538.965
 20
-248.215
 11
541.625
 21
-248.215
  0
LINE
  8
0
 10
541.625
 20
-248.215
 11
541.625
 21
-245.61
  0
LINE
  8
0
 10
541.625
 20
-245.61
 11
538.965
 21
-245.61
  0
LINE
  8
0
 10
538.965
 20
-245.61
 11
538.965
 21
-238.89
  0
LINE
  8
0
 10
538.965
 20
-238.89
 11
541.625
 21
-238.89
  0
LINE
  8
0
 10
541.625
 20
-238.89
 11
541.625
 21
-231.61
  0
LINE
  8
0
 10
541.625
 20
-231.61
 11
538.965
 21
-231.61
  0
LINE
  8
0
 10
538.965
 20
-231.61
 11
538.965
 21
-224.89
  0
LINE
  8
0
 10
538.965
 20
-224.89
 11
541.625
 21
-224.89
  0
LINE
  8
0
 10
541.625
 20
-224.89
 11
541.625
 21
-217.61
  0
LINE
  8
0
 10
541.625
 20
-217.61
 11
538.965
 21
-217.61
  0
LINE
  8
0
 10
538.965
 20
-217.61
 11
538.965
 21
-210.89
  0
LINE
  8
0
 10
538.965
 20
-210.89
 11
541.625
 21
-210.89
  0
LINE
  8
0
 10
541.625
 20
-210.89
 11
541.625
 21
-208.285
  0
LINE
  8
0
 10
541.625
 20
-208.285
 11
538.965
 21
-208.285
  0
LINE
  8
0
 10
538.965
 20
-208.285
 11
538.965
 21
-205.625
  0
LINE
  8
0
 10
538.965
 20
-205.625
 11
336.035
 21
-205.625
  0
LINE
  8
0
 10
336.035
 20
-205.625
 11
336.035
 21
-208.285
  0
LINE
  8
0
 10
336.035
 20
-208.285
 11
333.375
 21
-208.285
  0
LINE
  8
0
 10
333.375
 20
-208.285
 11
333.375
 21
-210.89
  0
LINE
  8
0
 10
333.375
 20
-210.89
 11
336.035
 21
-210.89
  0
LINE
  8
0
 10
336.035
 20
-210.89
 11
336.035
 21
-217.61
  0
LINE
  8
0
 10
336.035
 20
-217.61
 11
333.375
 21
-217.61
  0
LINE
  8
0
 10
333.375
 20
-217.61
 11
333.375
 21
-224.89
  0
LINE
  8
0
 10
333.375
 20
-224.89
 11
336.035
 21
-224.89
  0
LINE
  8
0
 10
336.035
 20
-224.89
 11
336.035
 21
-231.61
  0
LINE
  8
0
 10
336.035
 20
-231.61
 11
333.375
 21
-231.61
  0
LINE
  8
0
 10
333.375
 20
-231.61
 11
333.375
 21
-238.89
  0
LINE
  8
0
 10
333.375
 20
-238.89
 11
336.035
 21
-238.89
  0
LINE
  8
0
 10
336.035
 20
-238.89
 11
336.035
 21
-245.61
  0
LINE
  8
0
 10
336.035
 20
-245.61
 11
333.375
 21
-245.61
  0
LINE
  8
0
 10
333.375
 20
-245.61
 11
333.375
 21
-248.215
  0
LINE
  8
0
 10
333.375
 20
-248.215
 11
336.035
 21
-248.215
  0
LINE
  8
0
 10
336.035
 20
-248.215
 11
336.035
 21
-250.875
  0
LINE
  8
0
 10
336.035
 20
-250.875
 11
347.64
 21
-250.875
  0
LINE
  8
0
 10
347.64
 20
-250.875
 11
347.64
 21
-248.215
  0
LINE
  8
0
 10
347.64
 20
-362.34
 11
359.36
 21
-362.34
  0
LINE
  8
0
 10
359.36
 20
-362.34
 11
359.36
 21
-365
  0
LINE
  8
0
 10
359.36
 20
-365
 11
371.64
 21
-365
  0
LINE
  8
0
 10
371.64
 20
-365
 11
371.64
 21
-362.34
  0
LINE
  8
0
 10
371.64
 20
-362.34
 11
375.025
 21
-362.34
  0
LINE
  8
0
 10
375.025
 20
-362.34
 11
375.025
 21
-342.375
  0
LINE
  8
0
 10
375.025
 20
-342.375
 11
378.825
 21
-342.375
  0
LINE
  8
0
 10
378.825
 20
-342.375
 11
378.825
 21
-362.34
  0
LINE
  8
0
 10
378.825
 20
-362.34
 11
383.36
 21
-362.34
  0
LINE
  8
0
 10
383.36
 20
-362.34
 11
383.36
 21
-365
  0
LINE
  8
0
 10
383.36
 20
-365
 11
395.64
 21
-365
  0
LINE
  8
0
 10
395.64
 20
-365
 11
395.64
 21
-362.34
  0
LINE
  8
0
 10
395.64
 20
-362.34
 11
407.36
 21
-362.34
  0
LINE
  8
0
 10
407.36
 20
-362.34
 11
407.36
 21
-365
  0
LINE
  8
0
 10
407.36
 20
-365
 11
416.675
 21
-365
  0
LINE
  8
0
 10
416.675
 20
-365
 11
416.675
 21
-342.375
  0
LINE
  8
0
 10
416.675
 20
-342.375
 11
420.475
 21
-342.375
  0
LINE
  8
0
 10
420.475
 20
-342.375
 11
420.475
 21
-362.34
  0
LINE
  8
0
 10
420.475
 20
-362.34
 11
431.36
 21
-362.34
  0
LINE
  8
0
 10
431.36
 20
-362.34
 11
431.36
 21
-365
  0
LINE
  8
0
 10
431.36
 20
-365
 11
443.64
 21
-365
  0
LINE
  8
0
 10
443.64
 20
-365
 11
443.64
 21
-362.34
  0
LINE
  8
0
 10
443.64
 20
-362.34
 11
455.36
 21
-362.34
  0
LINE
  8
0
 10
455.36
 20
-362.34
 11
455.36
 21
-365
  0
LINE
  8
0
 10
455.36
 20
-365
 11
458.325
 21
-365
  0
LINE
  8
0
 10
458.325
 20
-365
 11
458.325
 21
-342.375
  0
LINE
  8
0
 10
458.325
 20
-342.375
 11
462.125
 21
-342.375
  0
LINE
  8
0
 10
462.125
 20
-342.375
 11
462.125
 21
-365
  0
LINE
  8
0
 10
462.125
 20
-365
 11
467.64
 21
-365
  0
LINE
  8
0
 10
467.64
 20
-365
 11
467.64
 21
-362.34
  0
LINE
  8
0
 10
467.64
 20
-362.34
 11
479.36
 21
-362.34
  0
LINE
  8
0
 10
479.36
 20
-362.34
 11
479.36
 21
-365
  0
LINE
  8
0
 10
479.36
 20
-365
 11
491.64
 21
-365
  0
LINE
  8
0
 10
491.64
 20
-365
 11
491.64
 21
-362.34
  0
LINE
  8
0
 10
491.64
 20
-362.34
 11
499.975
 21
-362.34
  0
LINE
  8
0
 10
499.975
 20
-362.34
 11
499.975
 21
-342.375
  0
LINE
  8
0
 10
499.975
 20
-342.375
 11
503.775
 21
-342.375
  0
LINE
  8
0
 10
503.775
 20
-342.375
 11
503.775
 21
-365
  0
LINE
  8
0
 10
503.775
 20
-365
 11
515.64
 21
-365
  0
LINE
  8
0
 10
515.64
 20
-365
 11
515.64
 21
-362.34
  0
LINE
  8
0
 10
515.64
 20
-362.34
 11
527.36
 21
-362.34
  0
LINE
  8
0
 10
527.36
 20
-362.34
 11
527.36
 21
-365
  0
LINE
  8
0
 10
527.36
 20
-365
 11
538.965
 21
-365
  0
LINE
  8
0
 10
538.965
 20
-365
 11
538.965
 21
-362.34
  0
LINE
  8
0
 10
538.965
 20
-362.34
 11
541.625
 21
-362.34
  0
LINE
  8
0
 10
541.625
 20
-362.34
 11
541.625
 21
-359.735
  0
LINE
  8
0
 10
541.625
 20
-359.735
 11
538.965
 21
-359.735
  0
LINE
  8
0
 10
538.965
 20
-359.735
 11
538.965
 21
-353.015
  0
LINE
  8
0
 10
538.965
 20
-353.015
 11
541.625
 21
-353.015
  0
LINE
  8
0
 10
541.625
 20
-353.015
 11
541.625
 21
-345.735
  0
LINE
  8
0
 10
541.625
 20
-345.735
 11
538.965
 21
-345.735
  0
LINE
  8
0
 10
538.965
 20
-345.735
 11
538.965
 21
-339.015
  0
LINE
  8
0
 10
538.965
 20
-339.015
 11
541.625
 21
-339.015
  0
LINE
  8
0
 10
541.625
 20
-339.015
 11
541.625
 21
-331.735
  0
LINE
  8
0
 10
541.625
 20
-331.735
 11
538.965
 21
-331.735
  0
LINE
  8
0
 10
538.965
 20
-331.735
 11
538.965
 21
-325.015
  0
LINE
  8
0
 10
538.965
 20
-325.015
 11
541.625
 21
-325.015
  0
LINE
  8
0
 10
541.625
 20
-325.015
 11
541.625
 21
-322.41
  0
LINE
  8
0
 10
541.625
 20
-322.41
 11
538.965
 21
-322.41
  0
LINE
  8
0
 10
538.965
 20
-322.41
 11
538.965
 21
-319.75
  0
LINE
  8
0
 10
538.965
 20
-319.75
 11
336.035
 21
-319.75
  0
LINE
  8
0
 10
336.035
 20
-319.75
 11
336.035
 21
-322.41
  0
LINE
  8
0
 10
336.035
 20
-322.41
 11
333.375
 21
-322.41
  0
LINE
  8
0
 10
333.375
 20
-322.41
 11
333.375
 21
-325.015
  0
LINE
  8
0
 10
333.375
 20
-325.015
 11
336.035
 21
-325.015
  0
LINE
  8
0
 10
336.035
 20
-325.015
 11
336.035
 21
-331.735
  0
LINE
  8
0
 10
336.035
 20
-331.735
 11
333.375
 21
-331.735
  0
LINE
  8
0
 10
333.375
 20
-331.735
 11
333.375
 21
-339.015
  0
LINE
  8
0
 10
333.375
 20
-339.015
 11
336.035
 21
-339.015
  0
LINE
  8
0
 10
336.035
 20
-339.015
 11
336.035
 21
-345.735
  0
LINE
  8
0
 10
336.035
 20
-345.735
 11
333.375
 21
-345.735
  0
LINE
  8
0
 10
333.375
 20
-345.735
 11
333.375
 21
-353.015
  0
LINE
  8
0
 10
333.375
 20
-353.015
 11
336.035
 21
-353.015
  0
LINE
  8
0
 10
336.035
 20
-353.015
 11
336.035
 21
-359.735
  0
LINE
  8
0
 10
336.035
 20
-359.735
 11
333.375
 21
-359.735
  0
LINE
  8
0
 10
333.375
 20
-359.735
 11
333.375
 21
-362.34
  0
LINE
  8
0
 10
333.375
 20
-362.34
 11
336.035
 21
-362.34
  0
LINE
  8
0
 10
336.035
 20
-362.34
 11
336.035
 21
-365
  0
LINE
  8
0
 10
336.035
 20
-365
 11
347.64
 21
-365
  0
LINE
  8
0
 10
347.64
 20
-365
 11
347.64
 21
-362.34
  0
LINE
  8
0
 10
-320.61
 20
-473.665
 11
-308.89
 21
-473.665
  0
LINE
  8
0
 10
-308.89
 20
-473.665
 11
-308.89
 21
-476.325
  0
LINE
  8
0
 10
-308.89
 20
-476.325
 11
-296.61
 21
-476.325
  0
LINE
  8
0
 10
-296.61
 20
-476.325
 11
-296.61
 21
-473.665
  0
LINE
  8
0
 10
-296.61
 20
-473.665
 11
-284.89
 21
-473.665
  0
LINE
  8
0
 10
-284.89
 20
-473.665
 11
-284.89
 21
-476.325
  0
LINE
  8
0
 10
-284.89
 20
-476.325
 11
-272.61
 21
-476.325
  0
LINE
  8
0
 10
-272.61
 20
-476.325
 11
-272.61
 21
-473.665
  0
LINE
  8
0
 10
-272.61
 20
-473.665
 11
-260.89
 21
-473.665
  0
LINE
  8
0
 10
-260.89
 20
-473.665
 11
-260.89
 21
-476.325
  0
LINE
  8
0
 10
-260.89
 20
-476.325
 11
-248.61
 21
-476.325
  0
LINE
  8
0
 10
-248.61
 20
-476.325
 11
-248.61
 21
-473.665
  0
LINE
  8
0
 10
-248.61
 20
-473.665
 11
-236.89
 21
-473.665
  0
LINE
  8
0
 10
-236.89
 20
-473.665
 11
-236.89
 21
-476.325
  0
LINE
  8
0
 10
-236.89
 20
-476.325
 11
-224.61
 21
-476.325
  0
LINE
  8
0
 10
-224.61
 20
-476.325
 11
-224.61
 21
-473.665
  0
LINE
  8
0
 10
-224.61
 20
-473.665
 11
-212.89
 21
-473.665
  0
LINE
  8
0
 10
-212.89
 20
-473.665
 11
-212.89
 21
-476.325
  0
LINE
  8
0
 10
-212.89
 20
-476.325
 11
-200.61
 21
-476.325
  0
LINE
  8
0
 10
-200.61
 20
-476.325
 11
-200.61
 21
-473.665
  0
LINE
  8
0
 10
-200.61
 20
-473.665
 11
-188.89
 21
-473.665
  0
LINE
  8
0
 10
-188.89
 20
-473.665
 11
-188.89
 21
-476.325
  0
LINE
  8
0
 10
-188.89
 20
-476.325
 11
-176.61
 21
-476.325
  0
LINE
  8
0
 10
-176.61
 20
-476.325
 11
-176.61
 21
-473.665
  0
LINE
  8
0
 10
-176.61
 20
-473.665
 11
-164.89
 21
-473.665
  0
LINE
  8
0
 10
-164.89
 20
-473.665
 11
-164.89
 21
-476.325
  0
LINE
  8
0
 10
-164.89
 20
-476.325
 11
-152.61
 21
-476.325
  0
LINE
  8
0
 10
-152.61
 20
-476.325
 11
-152.61
 21
-473.665
  0
LINE
  8
0
 10
-152.61
 20
-473.665
 11
-140.89
 21
-473.665
  0
LINE
  8
0
 10
-140.89
 20
-473.665
 11
-140.89
 21
-476.325
  0
LINE
  8
0
 10
-140.89
 20
-476.325
 11
-128.61
 21
-476.325
  0
LINE
  8
0
 10
-128.61
 20
-476.325
 11
-128.61
 21
-473.665
  0
LINE
  8
0
 10
-128.61
 20
-473.665
 11
-116.89
 21
-473.665
  0
LINE
  8
0
 10
-116.89
 20
-473.665
 11
-116.89
 21
-476.325
  0
LINE
  8
0
 10
-116.89
 20
-476.325
 11
-107.285
 21
-476.325
  0
LINE
  8
0
 10
-107.285
 20
-476.325
 11
-107.285
 21
-471.34
  0
LINE
  8
0
 10
-107.285
 20
-471.34
 11
-104.625
 21
-471.34
  0
LINE
  8
0
 10
-104.625
 20
-471.34
 11
-104.625
 21
-464.06
  0
LINE
  8
0
 10
-104.625
 20
-464.06
 11
-107.285
 21
-464.06
  0
LINE
  8
0
 10
-107.285
 20
-464.06
 11
-107.285
 21
-457.34
  0
LINE
  8
0
 10
-107.285
 20
-457.34
 11
-104.625
 21
-457.34
  0
LINE
  8
0
 10
-104.625
 20
-457.34
 11
-104.625
 21
-450.06
  0
LINE
  8
0
 10
-104.625
 20
-450.06
 11
-107.285
 21
-450.06
  0
LINE
  8
0
 10
-107.285
 20
-450.06
 11
-107.285
 21
-443.34
  0
LINE
  8
0
 10
-107.285
 20
-443.34
 11
-104.625
 21
-443.34
  0
LINE
  8
0
 10
-104.625
 20
-443.34
 11
-104.625
 21
-436.06
  0
LINE
  8
0
 10
-104.625
 20
-436.06
 11
-107.285
 21
-436.06
  0
LINE
  8
0
 10
-107.285
 20
-436.06
 11
-107.285
 21
-431.075
  0
LINE
  8
0
 10
-107.285
 20
-431.075
 11
-157.888
 21
-431.075
  0
LINE
  8
0
 10
-157.888
 20
-431.075
 11
-157.888
 21
-453.7
  0
LINE
  8
0
 10
-157.888
 20
-453.7
 11
-161.688
 21
-453.7
  0
LINE
  8
0
 10
-161.688
 20
-453.7
 11
-161.688
 21
-431.075
  0
LINE
  8
0
 10
-161.688
 20
-431.075
 11
-214.95
 21
-431.075
  0
LINE
  8
0
 10
-214.95
 20
-431.075
 11
-214.95
 21
-453.7
  0
LINE
  8
0
 10
-214.95
 20
-453.7
 11
-218.75
 21
-453.7
  0
LINE
  8
0
 10
-218.75
 20
-453.7
 11
-218.75
 21
-431.075
  0
LINE
  8
0
 10
-218.75
 20
-431.075
 11
-272.012
 21
-431.075
  0
LINE
  8
0
 10
-272.012
 20
-431.075
 11
-272.012
 21
-453.7
  0
LINE
  8
0
 10
-272.012
 20
-453.7
 11
-275.812
 21
-453.7
  0
LINE
  8
0
 10
-275.812
 20
-453.7
 11
-275.812
 21
-431.075
  0
LINE
  8
0
 10
-275.812
 20
-431.075
 11
-330.215
 21
-431.075
  0
LINE
  8
0
 10
-330.215
 20
-431.075
 11
-330.215
 21
-436.06
  0
LINE
  8
0
 10
-330.215
 20
-436.06
 11
-332.875
 21
-436.06
  0
LINE
  8
0
 10
-332.875
 20
-436.06
 11
-332.875
 21
-443.34
  0
LINE
  8
0
 10
-332.875
 20
-443.34
 11
-330.215
 21
-443.34
  0
LINE
  8
0
 10
-330.215
 20
-443.34
 11
-330.215
 21
-450.06
  0
LINE
  8
0
 10
-330.215
 20
-450.06
 11
-332.875
 21
-450.06
  0
LINE
  8
0
 10
-332.875
 20
-450.06
 11
-332.875
 21
-457.34
  0
LINE
  8
0
 10
-332.875
 20
-457.34
 11
-330.215
 21
-457.34
  0
LINE
  8
0
 10
-330.215
 20
-457.34
 11
-330.215
 21
-464.06
  0
LINE
  8
0
 10
-330.215
 20
-464.06
 11
-332.875
 21
-464.06
  0
LINE
  8
0
 10
-332.875
 20
-464.06
 11
-332.875
 21
-471.34
  0
LINE
  8
0
 10
-332.875
 20
-471.34
 11
-330.215
 21
-471.34
  0
LINE
  8
0
 10
-330.215
 20
-471.34
 11
-330.215
 21
-476.325
  0
LINE
  8
0
 10
-330.215
 20
-476.325
 11
-320.61
 21
-476.325
  0
LINE
  8
0
 10
-320.61
 20
-476.325
 11
-320.61
 21
-473.665
  0
LINE
  8
0
 10
347.64
 20
-476.465
 11
359.36
 21
-476.465
  0
LINE
  8
0
 10
359.36
 20
-476.465
 11
359.36
 21
-479.125
  0
LINE
  8
0
 10
359.36
 20
-479.125
 11
371.64
 21
-479.125
  0
LINE
  8
0
 10
371.64
 20
-479.125
 11
371.64
 21
-476.465
  0
LINE
  8
0
 10
371.64
 20
-476.465
 11
375.025
 21
-476.465
  0
LINE
  8
0
 10
375.025
 20
-476.465
 11
375.025
 21
-456.5
  0
LINE
  8
0
 10
375.025
 20
-456.5
 11
378.825
 21
-456.5
  0
LINE
  8
0
 10
378.825
 20
-456.5
 11
378.825
 21
-476.465
  0
LINE
  8
0
 10
378.825
 20
-476.465
 11
383.36
 21
-476.465
  0
LINE
  8
0
 10
383.36
 20
-476.465
 11
383.36
 21
-479.125
  0
LINE
  8
0
 10
383.36
 20
-479.125
 11
395.64
 21
-479.125
  0
LINE
  8
0
 10
395.64
 20
-479.125
 11
395.64
 21
-476.465
  0
LINE
  8
0
 10
395.64
 20
-476.465
 11
407.36
 21
-476.465
  0
LINE
  8
0
 10
407.36
 20
-476.465
 11
407.36
 21
-479.125
  0
LINE
  8
0
 10
407.36
 20
-479.125
 11
416.675
 21
-479.125
  0
LINE
  8
0
 10
416.675
 20
-479.125
 11
416.675
 21
-456.5
  0
LINE
  8
0
 10
416.675
 20
-456.5
 11
420.475
 21
-456.5
  0
LINE
  8
0
 10
420.475
 20
-456.5
 11
420.475
 21
-476.465
  0
LINE
  8
0
 10
420.475
 20
-476.465
 11
431.36
 21
-476.465
  0
LINE
  8
0
 10
431.36
 20
-476.465
 11
431.36
 21
-479.125
  0
LINE
  8
0
 10
431.36
 20
-479.125
 11
443.64
 21
-479.125
  0
LINE
  8
0
 10
443.64
 20
-479.125
 11
443.64
 21
-476.465
  0
LINE
  8
0
 10
443.64
 20
-476.465
 11
455.36
 21
-476.465
  0
LINE
  8
0
 10
455.36
 20
-476.465
 11
455.36
 21
-479.125
  0
LINE
  8
0
 10
455.36
 20
-479.125
 11
458.325
 21
-479.125
  0
LINE
  8
0
 10
458.325
 20
-479.125
 11
458.325
 21
-456.5
  0
LINE
  8
0
 10
458.325
 20
-456.5
 11
462.125
 21
-456.5
  0
LINE
  8
0
 10
462.125
 20
-456.5
 11
462.125
 21
-479.125
  0
LINE
  8
0
 10
462.125
 20
-479.125
 11
467.64
 21
-479.125
  0
LINE
  8
0
 10
467.64
 20
-479.125
 11
467.64
 21
-476.465
  0
LINE
  8
0
 10
467.64
 20
-476.465
 11
479.36
 21
-476.465
  0
LINE
  8
0
 10
479.36
 20
-476.465
 11
479.36
 21
-479.125
  0
LINE
  8
0
 10
479.36
 20
-479.125
 11
491.64
 21
-479.125
  0
LINE
  8
0
 10
491.64
 20
-479.125
 11
491.64
 21
-476.465
  0
LINE
  8
0
 10
491.64
 20
-476.465
 11
499.975
 21
-476.465
  0
LINE
  8
0
 10
499.975
 20
-476.465
 11
499.975
 21
-456.5
  0
LINE
  8
0
 10
499.975
 20
-456.5
 11
503.775
 21
-456.5
  0
LINE
  8
0
 10
503.775
 20
-456.5
 11
503.775
 21
-479.125
  0
LINE
  8
0
 10
503.775
 20
-479.125
 11
515.64
 21
-479.125
  0
LINE
  8
0
 10
515.64
 20
-479.125
 11
515.64
 21
-476.465
  0
LINE
  8
0
 10
515.64
 20
-476.465
 11
527.36
 21
-476.465
  0
LINE
  8
0
 10
527.36
 20
-476.465
 11
527.36
 21
-479.125
  0
LINE
  8
0
 10
527.36
 20
-479.125
 11
538.965
 21
-479.125
  0
LINE
  8
0
 10
538.965
 20
-479.125
 11
538.965
 21
-476.465
  0
LINE
  8
0
 10
538.965
 20
-476.465
 11
541.625
 21
-476.465
  0
LINE
  8
0
 10
541.625
 20
-476.465
 11
541.625
 21
-473.86
  0
LINE
  8
0
 10
541.625
 20
-473.86
 11
538.965
 21
-473.86
  0
LINE
  8
0
 10
538.965
 20
-473.86
 11
538.965
 21
-467.14
  0
LINE
  8
0
 10
538.965
 20
-467.14
 11
541.625
 21
-467.14
  0
LINE
  8
0
 10
541.625
 20
-467.14
 11
541.625
 21
-459.86
  0
LINE
  8
0
 10
541.625
 20
-459.86
 11
538.965
 21
-459.86
  0
LINE
  8
0
 10
538.965
 20
-459.86
 11
538.965
 21
-453.14
  0
LINE
  8
0
 10
538.965
 20
-453.14
 11
541.625
 21
-453.14
  0
LINE
  8
0
 10
541.625
 20
-453.14
 11
541.625
 21
-445.86
  0
LINE
  8
0
 10
541.625
 20
-445.86
 11
538.965
 21
-445.86
  0
LINE
  8
0
 10
538.965
 20
-445.86
 11
538.965
 21
-439.14
  0
LINE
  8
0
 10
538.965
 20
-439.14
 11
541.625
 21
-439.14
  0
LINE
  8
0
 10
541.625
 20
-439.14
 11
541.625
 21
-436.535
  0
LINE
  8
0
 10
541.625
 20
-436.535
 11
538.965
 21
-436.535
  0
LINE
  8
0
 10
538.965
 20
-436.535
 11
538.965
 21
-433.875
  0
LINE
  8
0
 10
538.965
 20
-433.875
 11
336.035
 21
-433.875
  0
LINE
  8
0
 10
336.035
 20
-433.875
 11
336.035
 21
-436.535
  0
LINE
  8
0
 10
336.035
 20
-436.535
 11
333.375
 21
-436.535
  0
LINE
  8
0
 10
333.375
 20
-436.535
 11
333.375
 21
-439.14
  0
LINE
  8
0
 10
333.375
 20
-439.14
 11
336.035
 21
-439.14
  0
LINE
  8
0
 10
336.035
 20
-439.14
 11
336.035
 21
-445.86
  0
LINE
  8
0
 10
336.035
 20
-445.86
 11
333.375
 21
-445.86
  0
LINE
  8
0
 10
333.375
 20
-445.86
 11
333.375
 21
-453.14
  0
LINE
  8
0
 10
333.375
 20
-453.14
 11
336.035
 21
-453.14
  0
LINE
  8
0
 10
336.035
 20
-453.14
 11
336.035
 21
-459.86
  0
LINE
  8
0
 10
336.035
 20
-459.86
 11
333.375
 21
-459.86
  0
LINE
  8
0
 10
333.375
 20
-459.86
 11
333.375
 21
-467.14
  0
LINE
  8
0
 10
333.375
 20
-467.14
 11
336.035
 21
-467.14
  0
LINE
  8
0
 10
336.035
 20
-467.14
 11
336.035
 21
-473.86
  0
LINE
  8
0
 10
336.035
 20
-473.86
 11
333.375
 21
-473.86
  0
LINE
  8
0
 10
333.375
 20
-473.86
 11
333.375
 21
-476.465
  0
LINE
  8
0
 10
333.375
 20
-476.465
 11
336.035
 21
-476.465
  0
LINE
  8
0
 10
336.035
 20
-476.465
 11
336.035
 21
-479.125
  0
LINE
  8
0
 10
336.035
 20
-479.125
 11
347.64
 21
-479.125
  0
LINE
  8
0
 10
347.64
 20
-479.125
 11
347.64
 21
-476.465
  0
LINE
  8
0
 10
-320.61
 20
-701.915
 11
-308.89
 21
-701.915
  0
LINE
  8
0
 10
-308.89
 20
-701.915
 11
-308.89
 21
-704.575
  0
LINE
  8
0
 10
-308.89
 20
-704.575
 11
-296.61
 21
-704.575
  0
LINE
  8
0
 10
-296.61
 20
-704.575
 11
-296.61
 21
-701.915
  0
LINE
  8
0
 10
-296.61
 20
-701.915
 11
-284.89
 21
-701.915
  0
LINE
  8
0
 10
-284.89
 20
-701.915
 11
-284.89
 21
-704.575
  0
LINE
  8
0
 10
-284.89
 20
-704.575
 11
-272.61
 21
-704.575
  0
LINE
  8
0
 10
-272.61
 20
-704.575
 11
-272.61
 21
-701.915
  0
LINE
  8
0
 10
-272.61
 20
-701.915
 11
-260.89
 21
-701.915
  0
LINE
  8
0
 10
-260.89
 20
-701.915
 11
-260.89
 21
-704.575
  0
LINE
  8
0
 10
-260.89
 20
-704.575
 11
-248.61
 21
-704.575
  0
LINE
  8
0
 10
-248.61
 20
-704.575
 11
-248.61
 21
-701.915
  0
LINE
  8
0
 10
-248.61
 20
-701.915
 11
-236.89
 21
-701.915
  0
LINE
  8
0
 10
-236.89
 20
-701.915
 11
-236.89
 21
-704.575
  0
LINE
  8
0
 10
-236.89
 20
-704.575
 11
-224.61
 21
-704.575
  0
LINE
  8
0
 10
-224.61
 20
-704.575
 11
-224.61
 21
-701.915
  0
LINE
  8
0
 10
-224.61
 20
-701.915
 11
-212.89
 21
-701.915
  0
LINE
  8
0
 10
-212.89
 20
-701.915
 11
-212.89
 21
-704.575
  0
LINE
  8
0
 10
-212.89
 20
-704.575
 11
-200.61
 21
-704.575
  0
LINE
  8
0
 10
-200.61
 20
-704.575
 11
-200.61
 21
-701.915
  0
LINE
  8
0
 10
-200.61
 20
-701.915
 11
-188.89
 21
-701.915
  0
LINE
  8
0
 10
-188.89
 20
-701.915
 11
-188.89
 21
-704.575
  0
LINE
  8
0
 10
-188.89
 20
-704.575
 11
-176.61
 21
-704.575
  0
LINE
  8
0
 10
-176.61
 20
-704.575
 11
-176.61
 21
-701.915
  0
LINE
  8
0
 10
-176.61
 20
-701.915
 11
-164.89
 21
-701.915
  0
LINE
  8
0
 10
-164.89
 20
-701.915
 11
-164.89
 21
-704.575
  0
LINE
  8
0
 10
-164.89
 20
-704.575
 11
-152.61
 21
-704.575
  0
LINE
  8
0
 10
-152.61
 20
-704.575
 11
-152.61
 21
-701.915
  0
LINE
  8
0
 10
-152.61
 20
-701.915
 11
-140.89
 21
-701.915
  0
LINE
  8
0
 10
-140.89
 20
-701.915
 11
-140.89
 21
-704.575
  0
LINE
  8
0
 10
-140.89
 20
-704.575
 11
-128.61
 21
-704.575
  0
LINE
  8
0
 10
-128.61
 20
-704.575
 11
-128.61
 21
-701.915
  0
LINE
  8
0
 10
-128.61
 20
-701.915
 11
-116.89
 21
-701.915
  0
LINE
  8
0
 10
-116.89
 20
-701.915
 11
-116.89
 21
-704.575
  0
LINE
  8
0
 10
-116.89
 20
-704.575
 11
-107.285
 21
-704.575
  0
LINE
  8
0
 10
-107.285
 20
-704.575
 11
-107.285
 21
-699.59
  0
LINE
  8
0
 10
-107.285
 20
-699.59
 11
-104.625
 21
-699.59
  0
LINE
  8
0
 10
-104.625
 20
-699.59
 11
-104.625
 21
-692.31
  0
LINE
  8
0
 10
-104.625
 20
-692.31
 11
-107.285
 21
-692.31
  0
LINE
  8
0
 10
-107.285
 20
-692.31
 11
-107.285
 21
-685.59
  0
LINE
  8
0
 10
-107.285
 20
-685.59
 11
-104.625
 21
-685.59
  0
LINE
  8
0
 10
-104.625
 20
-685.59
 11
-104.625
 21
-678.31
  0
LINE
  8
0
 10
-104.625
 20
-678.31
 11
-107.285
 21
-678.31
  0
LINE
  8
0
 10
-107.285
 20
-678.31
 11
-107.285
 21
-671.59
  0
LINE
  8
0
 10
-107.285
 20
-671.59
 11
-104.625
 21
-671.59
  0
LINE
  8
0
 10
-104.625
 20
-671.59
 11
-104.625
 21
-664.31
  0
LINE
  8
0
 10
-104.625
 20
-664.31
 11
-107.285
 21
-664.31
  0
LINE
  8
0
 10
-107.285
 20
-664.31
 11
-107.285
 21
-659.325
  0
LINE
  8
0
 10
-107.285
 20
-659.325
 11
-157.888
 21
-659.325
  0
LINE
  8
0
 10
-157.888
 20
-659.325
 11
-157.888
 21
-681.95
  0
LINE
  8
0
 10
-157.888
 20
-681.95
 11
-161.688
 21
-681.95
  0
LINE
  8
0
 10
-161.688
 20
-681.95
 11
-161.688
 21
-659.325
  0
LINE
  8
0
 10
-161.688
 20
-659.325
 11
-214.95
 21
-659.325
  0
LINE
  8
0
 10
-214.95
 20
-659.325
 11
-214.95
 21
-681.95
  0
LINE
  8
0
 10
-214.95
 20
-681.95
 11
-218.75
 21
-681.95
  0
LINE
  8
0
 10
-218.75
 20
-681.95
 11
-218.75
 21
-659.325
  0
LINE
  8
0
 10
-218.75
 20
-659.325
 11
-272.012
 21
-659.325
  0
LINE
  8
0
 10
-272.012
 20
-659.325
 11
-272.012
 21
-681.95
  0
LINE
  8
0
 10
-272.012
 20
-681.95
 11
-275.812
 21
-681.95
  0
LINE
  8
0
 10
-275.812
 20
-681.95
 11
-275.812
 21
-659.325
  0
LINE
  8
0
 10
-275.812
 20
-659.325
 11
-330.215
 21
-659.325
  0
LINE
  8
0
 10
-330.215
 20
-659.325
 11
-330.215
 21
-664.31
  0
LINE
  8
0
 10
-330.215
 20
-664.31
 11
-332.875
 21
-664.31
  0
LINE
  8
0
 10
-332.875
 20
-664.31
 11
-332.875
 21
-671.59
  0
LINE
  8
0
 10
-332.875
 20
-671.59
 11
-330.215
 21
-671.59
  0
LINE
  8
0
 10
-330.215
 20
-671.59
 11
-330.215
 21
-678.31
  0
LINE
  8
0
 10
-330.215
 20
-678.31
 11
-332.875
 21
-678.31
  0
LINE
  8
0
 10
-332.875
 20
-678.31
 11
-332.875
 21
-685.59
  0
LINE
  8
0
 10
-332.875
 20
-685.59
 11
-330.215
 21
-685.59
  0
LINE
  8
0
 10
-330.215
 20
-685.59
 11
-330.215
 21
-692.31
  0
LINE
  8
0
 10
-330.215
 20
-692.31
 11
-332.875
 21
-692.31
  0
LINE
  8
0
 10
-332.875
 20
-692.31
 11
-332.875
 21
-699.59
  0
LINE
  8
0
 10
-332.875
 20
-699.59
 11
-330.215
 21
-699.59
  0
LINE
  8
0
 10
-330.215
 20
-699.59
 11
-330.215
 21
-704.575
  0
LINE
  8
0
 10
-330.215
 20
-704.575
 11
-320.61
 21
-704.575
  0
LINE
  8
0
 10
-320.61
 20
-704.575
 11
-320.61
 21
-701.915
  0
LINE
  8
0
 10
-320.61
 20
-930.165
 11
-308.89
 21
-930.165
  0
LINE
  8
0
 10
-308.89
 20
-930.165
 11
-308.89
 21
-932.825
  0
LINE
  8
0
 10
-308.89
 20
-932.825
 11
-296.61
 21
-932.825
  0
LINE
  8
0
 10
-296.61
 20
-932.825
 11
-296.61
 21
-930.165
  0
LINE
  8
0
 10
-296.61
 20
-930.165
 11
-284.89
 21
-930.165
  0
LINE
  8
0
 10
-284.89
 20
-930.165
 11
-284.89
 21
-932.825
  0
LINE
  8
0
 10
-284.89
 20
-932.825
 11
-272.61
 21
-932.825
  0
LINE
  8
0
 10
-272.61
 20
-932.825
 11
-272.61
 21
-930.165
  0
LINE
  8
0
 10
-272.61
 20
-930.165
 11
-260.89
 21
-930.165
  0
LINE
  8
0
 10
-260.89
 20
-930.165
 11
-260.89
 21
-932.825
  0
LINE
  8
0
 10
-260.89
 20
-932.825
 11
-248.61
 21
-932.825
  0
LINE
  8
0
 10
-248.61
 20
-932.825
 11
-248.61
 21
-930.165
  0
LINE
  8
0
 10
-248.61
 20
-930.165
 11
-236.89
 21
-930.165
  0
LINE
  8
0
 10
-236.89
 20
-930.165
 11
-236.89
 21
-932.825
  0
LINE
  8
0
 10
-236.89
 20
-932.825
 11
-224.61
 21
-932.825
  0
LINE
  8
0
 10
-224.61
 20
-932.825
 11
-224.61
 21
-930.165
  0
LINE
  8
0
 10
-224.61
 20
-930.165
 11
-212.89
 21
-930.165
  0
LINE
  8
0
 10
-212.89
 20
-930.165
 11
-212.89
 21
-932.825
  0
LINE
  8
0
 10
-212.89
 20
-932.825
 11
-200.61
 21
-932.825
  0
LINE
  8
0
 10
-200.61
 20
-932.825
 11
-200.61
 21
-930.165
  0
LINE
  8
0
 10
-200.61
 20
-930.165
 11
-188.89
 21
-930.165
  0
LINE
  8
0
 10
-188.89
 20
-930.165
 11
-188.89
 21
-932.825
  0
LINE
  8
0
 10
-188.89
 20
-932.825
 11
-176.61
 21
-932.825
  0
LINE
  8
0
 10
-176.61
 20
-932.825
 11
-176.61
 21
-930.165
  0
LINE
  8
0
 10
-176.61
 20
-930.165
 11
-164.89
 21
-930.165
  0
LINE
  8
0
 10
-164.89
 20
-930.165
 11
-164.89
 21
-932.825
  0
LINE
  8
0
 10
-164.89
 20
-932.825
 11
-152.61
 21
-932.825
  0
LINE
  8
0
 10
-152.61
 20
-932.825
 11
-152.61
 21
-930.165
  0
LINE
  8
0
 10
-152.61
 20
-930.165
 11
-140.89
 21
-930.165
  0
LINE
  8
0
 10
-140.89
 20
-930.165
 11
-140.89
 21
-932.825
  0
LINE
  8
0
 10
-140.89
 20
-932.825
 11
-128.61
 21
-932.825
  0
LINE
  8
0
 10
-128.61
 20
-932.825
 11
-128.61
 21
-930.165
  0
LINE
  8
0
 10
-128.61
 20
-930.165
 11
-116.89
 21
-930.165
  0
LINE
  8
0
 10
-116.89
 20
-930.165
 11
-116.89
 21
-932.825
  0
LINE
  8
0
 10
-116.89
 20
-932.825
 11
-107.285
 21
-932.825
  0
LINE
  8
0
 10
-107.285
 20
-932.825
 11
-107.285
 21
-927.84
  0
LINE
  8
0
 10
-107.285
 20
-927.84
 11
-104.625
 21
-927.84
  0
LINE
  8
0
 10
-104.625
 20
-927.84
 11
-104.625
 21
-920.56
  0
LINE
  8
0
 10
-104.625
 20
-920.56
 11
-107.285
 21
-920.56
  0
LINE
  8
0
 10
-107.285
 20
-920.56
 11
-107.285
 21
-913.84
  0
LINE
  8
0
 10
-107.285
 20
-913.84
 11
-104.625
 21
-913.84
  0
LINE
  8
0
 10
-104.625
 20
-913.84
 11
-104.625
 21
-906.56
  0
LINE
  8
0
 10
-104.625
 20
-906.56
 11
-107.285
 21
-906.56
  0
LINE
  8
0
 10
-107.285
 20
-906.56
 11
-107.285
 21
-899.84
  0
LINE
  8
0
 10
-107.285
 20
-899.84
 11
-104.625
 21
-899.84
  0
LINE
  8
0
 10
-104.625
 20
-899.84
 11
-104.625
 21
-892.56
  0
LINE
  8
0
 10
-104.625
 20
-892.56
 11
-107.285
 21
-892.56
  0
LINE
  8
0
 10
-107.285
 20
-892.56
 11
-107.285
 21
-887.575
  0
LINE
  8
0
 10
-107.285
 20
-887.575
 11
-157.888
 21
-887.575
  0
LINE
  8
0
 10
-157.888
 20
-887.575
 11
-157.888
 21
-910.2
  0
LINE
  8
0
 10
-157.888
 20
-910.2
 11
-161.688
 21
-910.2
  0
LINE
  8
0
 10
-161.688
 20
-910.2
 11
-161.688
 21
-887.575
  0
LINE
  8
0
 10
-161.688
 20
-887.575
 11
-214.95
 21
-887.575
  0
LINE
  8
0
 10
-214.95
 20
-887.575
 11
-214.95
 21
-910.2
  0
LINE
  8
0
 10
-214.95
 20
-910.2
 11
-218.75
 21
-910.2
  0
LINE
  8
0
 10
-218.75
 20
-910.2
 11
-218.75
 21
-887.575
  0
LINE
  8
0
 10
-218.75
 20
-887.575
 11
-272.012
 21
-887.575
  0
LINE
  8
0
 10
-272.012
 20
-887.575
 11
-272.012
 21
-910.2
  0
LINE
  8
0
 10
-272.012
 20
-910.2
 11
-275.812
 21
-910.2
  0
LINE
  8
0
 10
-275.812
 20
-910.2
 11
-275.812
 21
-887.575
  0
LINE
  8
0
 10
-275.812
 20
-887.575
 11
-330.215
 21
-887.575
  0
LINE
  8
0
 10
-330.215
 20
-887.575
 11
-330.215
 21
-892.56
  0
LINE
  8
0
 10
-330.215
 20
-892.56
 11
-332.875
 21
-892.56
  0
LINE
  8
0
 10
-332.875
 20
-892.56
 11
-332.875
 21
-899.84
  0
LINE
  8
0
 10
-332.875
 20
-899.84
 11
-330.215
 21
-899.84
  0
LINE
  8
0
 10
-330.215
 20
-899.84
 11
-330.215
 21
-906.56
  0
LINE
  8
0
 10
-330.215
 20
-906.56
 11
-332.875
 21
-906.56
  0
LINE
  8
0
 10
-332.875
 20
-906.56
 11
-332.875
 21
-913.84
  0
LINE
  8
0
 10
-332.875
 20
-913.84
 11
-330.215
 21
-913.84
  0
LINE
  8
0
 10
-330.215
 20
-913.84
 11
-330.215
 21
-920.56
  0
LINE
  8
0
 10
-330.215
 20
-920.56
 11
-332.875
 21
-920.56
  0
LINE
  8
0
 10
-332.875
 20
-920.56
 11
-332.875
 21
-927.84
  0
LINE
  8
0
 10
-332.875
 20
-927.84
 11
-330.215
 21
-927.84
  0
LINE
  8
0
 10
-330.215
 20
-927.84
 11
-330.215
 21
-932.825
  0
LINE
  8
0
 10
-330.215
 20
-932.825
 11
-320.61
 21
-932.825
  0
LINE
  8
0
 10
-320.61
 20
-932.825
 11
-320.61
 21
-930.165
  0
ENDSEC
  0
SECTION
  2
OBJECTS
  0
DICTIONARY
  0
ENDSEC
  0
EOF
