  0
SECTION
  2
BLOCKS
  0
ENDSEC
  0
SECTION
  2
ENTITIES
  0
LINE
  8
0
 10
48.39
 20
-149.215
 11
90.11
 21
-149.215
  0
LINE
  8
0
 10
90.11
 20
-149.215
 11
90.11
 21
-151.875
  0
LINE
  8
0
 10
90.11
 20
-151.875
 11
132.39
 21
-151.875
  0
LINE
  8
0
 10
132.39
 20
-151.875
 11
132.39
 21
-149.215
  0
LINE
  8
0
 10
132.39
 20
-149.215
 11
174.11
 21
-149.215
  0
LINE
  8
0
 10
174.11
 20
-149.215
 11
174.11
 21
-151.875
  0
LINE
  8
0
 10
174.11
 20
-151.875
 11
216.39
 21
-151.875
  0
LINE
  8
0
 10
216.39
 20
-151.875
 11
216.39
 21
-149.215
  0
LINE
  8
0
 10
216.39
 20
-149.215
 11
258.11
 21
-149.215
  0
LINE
  8
0
 10
258.11
 20
-149.215
 11
258.11
 21
-151.875
  0
LINE
  8
0
 10
258.11
 20
-151.875
 11
278.215
 21
-151.875
  0
LINE
  8
0
 10
278.215
 20
-151.875
 11
278.215
 21
-149.215
  0
LINE
  8
0
 10
278.215
 20
-149.215
 11
280.875
 21
-149.215
  0
LINE
  8
0
 10
280.875
 20
-149.215
 11
280.875
 21
-145.61
  0
LINE
  8
0
 10
280.875
 20
-145.61
 11
278.215
 21
-145.61
  0
LINE
  8
0
 10
278.215
 20
-145.61
 11
278.215
 21
-141.89
  0
LINE
  8
0
 10
278.215
 20
-141.89
 11
280.875
 21
-141.89
  0
LINE
  8
0
 10
280.875
 20
-141.89
 11
280.875
 21
-137.61
  0
LINE
  8
0
 10
280.875
 20
-137.61
 11
278.215
 21
-137.61
  0
LINE
  8
0
 10
278.215
 20
-137.61
 11
278.215
 21
-133.89
  0
LINE
  8
0
 10
278.215
 20
-133.89
 11
280.875
 21
-133.89
  0
LINE
  8
0
 10
280.875
 20
-133.89
 11
280.875
 21
-130.285
  0
LINE
  8
0
 10
280.875
 20
-130.285
 11
278.215
 21
-130.285
  0
LINE
  8
0
 10
278.215
 20
-130.285
 11
278.215
 21
-127.625
  0
LINE
  8
0
 10
278.215
 20
-127.625
 11
155.91
 21
-127.625
  0
LINE
  8
0
 10
155.91
 20
-127.625
 11
155.91
 21
-130.285
  0
LINE
  8
0
 10
155.91
 20
-130.285
 11
152.11
 21
-130.285
  0
LINE
  8
0
 10
152.11
 20
-130.285
 11
152.11
 21
-127.625
  0
LINE
  8
0
 10
152.11
 20
-127.625
 11
28.285
 21
-127.625
  0
LINE
  8
0
 10
28.285
 20
-127.625
 11
28.285
 21
-130.285
  0
LINE
  8
0
 10
28.285
 20
-130.285
 11
25.625
 21
-130.285
  0
LINE
  8
0
 10
25.625
 20
-130.285
 11
25.625
 21
-133.89
  0
LINE
  8
0
 10
25.625
 20
-133.89
 11
28.285
 21
-133.89
  0
LINE
  8
0
 10
28.285
 20
-133.89
 11
28.285
 21
-137.61
  0
LINE
  8
0
 10
28.285
 20
-137.61
 11
25.625
 21
-137.61
  0
LINE
  8
0
 10
25.625
 20
-137.61
 11
25.625
 21
-141.89
  0
LINE
  8
0
 10
25.625
 20
-141.89
 11
28.285
 21
-141.89
  0
LINE
  8
0
 10
28.285
 20
-141.89
 11
28.285
 21
-145.61
  0
LINE
  8
0
 10
28.285
 20
-145.61
 11
25.625
 21
-145.61
  0
LINE
  8
0
 10
25.625
 20
-145.61
 11
25.625
 21
-149.215
  0
LINE
  8
0
 10
25.625
 20
-149.215
 11
28.285
 21
-149.215
  0
LINE
  8
0
 10
28.285
 20
-149.215
 11
28.285
 21
-151.875
  0
LINE
  8
0
 10
28.285
 20
-151.875
 11
48.39
 21
-151.875
  0
LINE
  8
0
 10
48.39
 20
-151.875
 11
48.39
 21
-149.215
  0
LINE
  8
0
 10
152.11
 20
-137.61
 11
152.11
 21
-133.89
  0
LINE
  8
0
 10
152.11
 20
-133.89
 11
155.91
 21
-133.89
  0
LINE
  8
0
 10
155.91
 20
-133.89
 11
155.91
 21
-137.61
  0
LINE
  8
0
 10
155.91
 20
-137.61
 11
152.11
 21
-137.61
  0
LINE
  8
0
 10
152.11
 20
-145.61
 11
152.11
 21
-141.89
  0
LINE
  8
0
 10
152.11
 20
-141.89
 11
155.91
 21
-141.89
  0
LINE
  8
0
 10
155.91
 20
-141.89
 11
155.91
 21
-145.61
  0
LINE
  8
0
 10
155.91
 20
-145.61
 11
152.11
 21
-145.61
  0
LINE
  8
0
 10
-258.11
 20
-149.215
 11
-216.39
 21
-149.215
  0
LINE
  8
0
 10
-216.39
 20
-149.215
 11
-216.39
 21
-151.875
  0
LINE
  8
0
 10
-216.39
 20
-151.875
 11
-174.11
 21
-151.875
  0
LINE
  8
0
 10
-174.11
 20
-151.875
 11
-174.11
 21
-149.215
  0
LINE
  8
0
 10
-174.11
 20
-149.215
 11
-132.39
 21
-149.215
  0
LINE
  8
0
 10
-132.39
 20
-149.215
 11
-132.39
 21
-151.875
  0
LINE
  8
0
 10
-132.39
 20
-151.875
 11
-90.11
 21
-151.875
  0
LINE
  8
0
 10
-90.11
 20
-151.875
 11
-90.11
 21
-149.215
  0
LINE
  8
0
 10
-90.11
 20
-149.215
 11
-48.39
 21
-149.215
  0
LINE
  8
0
 10
-48.39
 20
-149.215
 11
-48.39
 21
-151.875
  0
LINE
  8
0
 10
-48.39
 20
-151.875
 11
-28.285
 21
-151.875
  0
LINE
  8
0
 10
-28.285
 20
-151.875
 11
-28.285
 21
-149.215
  0
LINE
  8
0
 10
-28.285
 20
-149.215
 11
-25.625
 21
-149.215
  0
LINE
  8
0
 10
-25.625
 20
-149.215
 11
-25.625
 21
-145.61
  0
LINE
  8
0
 10
-25.625
 20
-145.61
 11
-28.285
 21
-145.61
  0
LINE
  8
0
 10
-28.285
 20
-145.61
 11
-28.285
 21
-141.89
  0
LINE
  8
0
 10
-28.285
 20
-141.89
 11
-25.625
 21
-141.89
  0
LINE
  8
0
 10
-25.625
 20
-141.89
 11
-25.625
 21
-137.61
  0
LINE
  8
0
 10
-25.625
 20
-137.61
 11
-28.285
 21
-137.61
  0
LINE
  8
0
 10
-28.285
 20
-137.61
 11
-28.285
 21
-133.89
  0
LINE
  8
0
 10
-28.285
 20
-133.89
 11
-25.625
 21
-133.89
  0
LINE
  8
0
 10
-25.625
 20
-133.89
 11
-25.625
 21
-130.285
  0
LINE
  8
0
 10
-25.625
 20
-130.285
 11
-28.285
 21
-130.285
  0
LINE
  8
0
 10
-28.285
 20
-130.285
 11
-28.285
 21
-127.625
  0
LINE
  8
0
 10
-28.285
 20
-127.625
 11
-150.59
 21
-127.625
  0
LINE
  8
0
 10
-150.59
 20
-127.625
 11
-150.59
 21
-130.285
  0
LINE
  8
0
 10
-150.59
 20
-130.285
 11
-154.39
 21
-130.285
  0
LINE
  8
0
 10
-154.39
 20
-130.285
 11
-154.39
 21
-127.625
  0
LINE
  8
0
 10
-154.39
 20
-127.625
 11
-278.215
 21
-127.625
  0
LINE
  8
0
 10
-278.215
 20
-127.625
 11
-278.215
 21
-130.285
  0
LINE
  8
0
 10
-278.215
 20
-130.285
 11
-280.875
 21
-130.285
  0
LINE
  8
0
 10
-280.875
 20
-130.285
 11
-280.875
 21
-133.89
  0
LINE
  8
0
 10
-280.875
 20
-133.89
 11
-278.215
 21
-133.89
  0
LINE
  8
0
 10
-278.215
 20
-133.89
 11
-278.215
 21
-137.61
  0
LINE
  8
0
 10
-278.215
 20
-137.61
 11
-280.875
 21
-137.61
  0
LINE
  8
0
 10
-280.875
 20
-137.61
 11
-280.875
 21
-141.89
  0
LINE
  8
0
 10
-280.875
 20
-141.89
 11
-278.215
 21
-141.89
  0
LINE
  8
0
 10
-278.215
 20
-141.89
 11
-278.215
 21
-145.61
  0
LINE
  8
0
 10
-278.215
 20
-145.61
 11
-280.875
 21
-145.61
  0
LINE
  8
0
 10
-280.875
 20
-145.61
 11
-280.875
 21
-149.215
  0
LINE
  8
0
 10
-280.875
 20
-149.215
 11
-278.215
 21
-149.215
  0
LINE
  8
0
 10
-278.215
 20
-149.215
 11
-278.215
 21
-151.875
  0
LINE
  8
0
 10
-278.215
 20
-151.875
 11
-258.11
 21
-151.875
  0
LINE
  8
0
 10
-258.11
 20
-151.875
 11
-258.11
 21
-149.215
  0
LINE
  8
0
 10
-154.39
 20
-137.61
 11
-154.39
 21
-133.89
  0
LINE
  8
0
 10
-154.39
 20
-133.89
 11
-150.59
 21
-133.89
  0
LINE
  8
0
 10
-150.59
 20
-133.89
 11
-150.59
 21
-137.61
  0
LINE
  8
0
 10
-150.59
 20
-137.61
 11
-154.39
 21
-137.61
  0
LINE
  8
0
 10
-127.196
 20
-144.169
 11
-127.694
 21
-144.011
  0
LINE
  8
0
 10
-127.694
 20
-144.011
 11
-128.11
 21
-143.748
  0
LINE
  8
0
 10
-128.11
 20
-143.748
 11
-128.443
 21
-143.38
  0
LINE
  8
0
 10
-128.443
 20
-143.38
 11
-128.699
 21
-142.904
  0
LINE
  8
0
 10
-128.699
 20
-142.904
 11
-128.882
 21
-142.32
  0
LINE
  8
0
 10
-128.882
 20
-142.32
 11
-128.992
 21
-141.629
  0
LINE
  8
0
 10
-128.992
 20
-141.629
 11
-129.028
 21
-140.829
  0
LINE
  8
0
 10
-129.028
 20
-140.829
 11
-128.877
 21
-139.317
  0
LINE
  8
0
 10
-128.877
 20
-139.317
 11
-128.425
 21
-138.238
  0
LINE
  8
0
 10
-128.425
 20
-138.238
 11
-127.671
 21
-137.59
  0
LINE
  8
0
 10
-127.671
 20
-137.59
 11
-126.615
 21
-137.374
  0
LINE
  8
0
 10
-126.615
 20
-137.374
 11
-126.258
 21
-137.391
  0
LINE
  8
0
 10
-126.258
 20
-137.391
 11
-125.932
 21
-137.443
  0
LINE
  8
0
 10
-125.932
 20
-137.443
 11
-125.636
 21
-137.528
  0
LINE
  8
0
 10
-125.636
 20
-137.528
 11
-125.372
 21
-137.649
  0
LINE
  8
0
 10
-125.372
 20
-137.649
 11
-125.136
 21
-137.806
  0
LINE
  8
0
 10
-125.136
 20
-137.806
 11
-124.924
 21
-138.004
  0
LINE
  8
0
 10
-124.924
 20
-138.004
 11
-124.736
 21
-138.242
  0
LINE
  8
0
 10
-124.736
 20
-138.242
 11
-124.572
 21
-138.521
  0
LINE
  8
0
 10
-124.572
 20
-138.521
 11
-124.56
 21
-138.521
  0
LINE
  8
0
 10
-124.56
 20
-138.521
 11
-124.572
 21
-137.788
  0
LINE
  8
0
 10
-124.572
 20
-137.788
 11
-124.572
 21
-135.07
  0
LINE
  8
0
 10
-124.572
 20
-135.07
 11
-123.475
 21
-135.07
  0
LINE
  8
0
 10
-123.475
 20
-135.07
 11
-123.475
 21
-142.738
  0
LINE
  8
0
 10
-123.475
 20
-142.738
 11
-123.473
 21
-143.208
  0
LINE
  8
0
 10
-123.473
 20
-143.208
 11
-123.466
 21
-143.591
  0
LINE
  8
0
 10
-123.466
 20
-143.591
 11
-123.455
 21
-143.886
  0
LINE
  8
0
 10
-123.455
 20
-143.886
 11
-123.439
 21
-144.094
  0
LINE
  8
0
 10
-123.439
 20
-144.094
 11
-124.487
 21
-144.094
  0
LINE
  8
0
 10
-124.487
 20
-144.094
 11
-124.497
 21
-144.029
  0
LINE
  8
0
 10
-124.497
 20
-144.029
 11
-124.506
 21
-143.933
  0
LINE
  8
0
 10
-124.506
 20
-143.933
 11
-124.527
 21
-143.645
  0
LINE
  8
0
 10
-124.527
 20
-143.645
 11
-124.536
 21
-143.475
  0
LINE
  8
0
 10
-124.536
 20
-143.475
 11
-124.543
 21
-143.317
  0
LINE
  8
0
 10
-124.543
 20
-143.317
 11
-124.547
 21
-143.171
  0
LINE
  8
0
 10
-124.547
 20
-143.171
 11
-124.548
 21
-143.038
  0
LINE
  8
0
 10
-124.548
 20
-143.038
 11
-124.572
 21
-143.038
  0
LINE
  8
0
 10
-124.572
 20
-143.038
 11
-124.736
 21
-143.333
  0
LINE
  8
0
 10
-124.736
 20
-143.333
 11
-124.925
 21
-143.583
  0
LINE
  8
0
 10
-124.925
 20
-143.583
 11
-125.138
 21
-143.788
  0
LINE
  8
0
 10
-125.138
 20
-143.788
 11
-125.375
 21
-143.948
  0
LINE
  8
0
 10
-125.375
 20
-143.948
 11
-125.64
 21
-144.068
  0
LINE
  8
0
 10
-125.64
 20
-144.068
 11
-125.935
 21
-144.153
  0
LINE
  8
0
 10
-125.935
 20
-144.153
 11
-126.26
 21
-144.205
  0
LINE
  8
0
 10
-126.26
 20
-144.205
 11
-126.615
 21
-144.222
  0
LINE
  8
0
 10
-126.615
 20
-144.222
 11
-127.196
 21
-144.169
  0
LINE
  8
0
 10
-125.902
 20
-143.334
 11
-125.535
 21
-143.213
  0
LINE
  8
0
 10
-125.535
 20
-143.213
 11
-125.231
 21
-143.011
  0
LINE
  8
0
 10
-125.231
 20
-143.011
 11
-124.99
 21
-142.728
  0
LINE
  8
0
 10
-124.99
 20
-142.728
 11
-124.807
 21
-142.359
  0
LINE
  8
0
 10
-124.807
 20
-142.359
 11
-124.677
 21
-141.901
  0
LINE
  8
0
 10
-124.677
 20
-141.901
 11
-124.598
 21
-141.354
  0
LINE
  8
0
 10
-124.598
 20
-141.354
 11
-124.572
 21
-140.718
  0
LINE
  8
0
 10
-124.572
 20
-140.718
 11
-124.598
 21
-140.105
  0
LINE
  8
0
 10
-124.598
 20
-140.105
 11
-124.677
 21
-139.581
  0
LINE
  8
0
 10
-124.677
 20
-139.581
 11
-124.807
 21
-139.144
  0
LINE
  8
0
 10
-124.807
 20
-139.144
 11
-124.99
 21
-138.795
  0
LINE
  8
0
 10
-124.99
 20
-138.795
 11
-125.23
 21
-138.527
  0
LINE
  8
0
 10
-125.23
 20
-138.527
 11
-125.532
 21
-138.337
  0
LINE
  8
0
 10
-125.532
 20
-138.337
 11
-125.895
 21
-138.222
  0
LINE
  8
0
 10
-125.895
 20
-138.222
 11
-126.321
 21
-138.184
  0
LINE
  8
0
 10
-126.321
 20
-138.184
 11
-126.704
 21
-138.222
  0
LINE
  8
0
 10
-126.704
 20
-138.222
 11
-127.03
 21
-138.337
  0
LINE
  8
0
 10
-127.03
 20
-138.337
 11
-127.299
 21
-138.529
  0
LINE
  8
0
 10
-127.299
 20
-138.529
 11
-127.51
 21
-138.798
  0
LINE
  8
0
 10
-127.51
 20
-138.798
 11
-127.67
 21
-139.153
  0
LINE
  8
0
 10
-127.67
 20
-139.153
 11
-127.785
 21
-139.603
  0
LINE
  8
0
 10
-127.785
 20
-139.603
 11
-127.853
 21
-140.15
  0
LINE
  8
0
 10
-127.853
 20
-140.15
 11
-127.876
 21
-140.792
  0
LINE
  8
0
 10
-127.876
 20
-140.792
 11
-127.854
 21
-141.436
  0
LINE
  8
0
 10
-127.854
 20
-141.436
 11
-127.786
 21
-141.981
  0
LINE
  8
0
 10
-127.786
 20
-141.981
 11
-127.672
 21
-142.428
  0
LINE
  8
0
 10
-127.672
 20
-142.428
 11
-127.513
 21
-142.777
  0
LINE
  8
0
 10
-127.513
 20
-142.777
 11
-127.303
 21
-143.038
  0
LINE
  8
0
 10
-127.303
 20
-143.038
 11
-127.037
 21
-143.225
  0
LINE
  8
0
 10
-127.037
 20
-143.225
 11
-126.713
 21
-143.337
  0
LINE
  8
0
 10
-126.713
 20
-143.337
 11
-126.333
 21
-143.375
  0
LINE
  8
0
 10
-126.333
 20
-143.375
 11
-125.902
 21
-143.334
  0
LINE
  8
0
 10
-163.927
 20
-144.094
 11
-163.927
 21
-135.07
  0
LINE
  8
0
 10
-163.927
 20
-135.07
 11
-162.83
 21
-135.07
  0
LINE
  8
0
 10
-162.83
 20
-135.07
 11
-162.83
 21
-144.094
  0
LINE
  8
0
 10
-162.83
 20
-144.094
 11
-163.927
 21
-144.094
  0
LINE
  8
0
 10
-161.219
 20
-144.094
 11
-161.219
 21
-135.07
  0
LINE
  8
0
 10
-161.219
 20
-135.07
 11
-160.122
 21
-135.07
  0
LINE
  8
0
 10
-160.122
 20
-135.07
 11
-160.122
 21
-144.094
  0
LINE
  8
0
 10
-160.122
 20
-144.094
 11
-161.219
 21
-144.094
  0
LINE
  8
0
 10
-144.991
 20
-144.188
 11
-145.574
 21
-144.087
  0
LINE
  8
0
 10
-145.574
 20
-144.087
 11
-146.115
 21
-143.919
  0
LINE
  8
0
 10
-146.115
 20
-143.919
 11
-146.611
 21
-143.683
  0
LINE
  8
0
 10
-146.611
 20
-143.683
 11
-147.057
 21
-143.384
  0
LINE
  8
0
 10
-147.057
 20
-143.384
 11
-147.447
 21
-143.028
  0
LINE
  8
0
 10
-147.447
 20
-143.028
 11
-147.78
 21
-142.614
  0
LINE
  8
0
 10
-147.78
 20
-142.614
 11
-148.057
 21
-142.142
  0
LINE
  8
0
 10
-148.057
 20
-142.142
 11
-148.274
 21
-141.618
  0
LINE
  8
0
 10
-148.274
 20
-141.618
 11
-148.43
 21
-141.047
  0
LINE
  8
0
 10
-148.43
 20
-141.047
 11
-148.523
 21
-140.431
  0
LINE
  8
0
 10
-148.523
 20
-140.431
 11
-148.554
 21
-139.769
  0
LINE
  8
0
 10
-148.554
 20
-139.769
 11
-148.485
 21
-138.798
  0
LINE
  8
0
 10
-148.485
 20
-138.798
 11
-148.276
 21
-137.939
  0
LINE
  8
0
 10
-148.276
 20
-137.939
 11
-147.93
 21
-137.191
  0
LINE
  8
0
 10
-147.93
 20
-137.191
 11
-147.444
 21
-136.554
  0
LINE
  8
0
 10
-147.444
 20
-136.554
 11
-146.835
 21
-136.045
  0
LINE
  8
0
 10
-146.835
 20
-136.045
 11
-146.12
 21
-135.681
  0
LINE
  8
0
 10
-146.12
 20
-135.681
 11
-145.298
 21
-135.463
  0
LINE
  8
0
 10
-145.298
 20
-135.463
 11
-144.369
 21
-135.39
  0
LINE
  8
0
 10
-144.369
 20
-135.39
 11
-143.711
 21
-135.423
  0
LINE
  8
0
 10
-143.711
 20
-135.423
 11
-143.109
 21
-135.524
  0
LINE
  8
0
 10
-143.109
 20
-135.524
 11
-142.564
 21
-135.692
  0
LINE
  8
0
 10
-142.564
 20
-135.692
 11
-142.075
 21
-135.927
  0
LINE
  8
0
 10
-142.075
 20
-135.927
 11
-141.645
 21
-136.228
  0
LINE
  8
0
 10
-141.645
 20
-136.228
 11
-141.275
 21
-136.594
  0
LINE
  8
0
 10
-141.275
 20
-136.594
 11
-140.967
 21
-137.024
  0
LINE
  8
0
 10
-140.967
 20
-137.024
 11
-140.72
 21
-137.52
  0
LINE
  8
0
 10
-140.72
 20
-137.52
 11
-141.823
 21
-137.886
  0
LINE
  8
0
 10
-141.823
 20
-137.886
 11
-141.995
 21
-137.532
  0
LINE
  8
0
 10
-141.995
 20
-137.532
 11
-142.213
 21
-137.223
  0
LINE
  8
0
 10
-142.213
 20
-137.223
 11
-142.476
 21
-136.958
  0
LINE
  8
0
 10
-142.476
 20
-136.958
 11
-142.785
 21
-136.738
  0
LINE
  8
0
 10
-142.785
 20
-136.738
 11
-143.131
 21
-136.564
  0
LINE
  8
0
 10
-143.131
 20
-136.564
 11
-143.509
 21
-136.44
  0
LINE
  8
0
 10
-143.509
 20
-136.44
 11
-143.917
 21
-136.366
  0
LINE
  8
0
 10
-143.917
 20
-136.366
 11
-144.356
 21
-136.341
  0
LINE
  8
0
 10
-144.356
 20
-136.341
 11
-145.031
 21
-136.398
  0
LINE
  8
0
 10
-145.031
 20
-136.398
 11
-145.626
 21
-136.57
  0
LINE
  8
0
 10
-145.626
 20
-136.57
 11
-146.142
 21
-136.857
  0
LINE
  8
0
 10
-146.142
 20
-136.857
 11
-146.579
 21
-137.258
  0
LINE
  8
0
 10
-146.579
 20
-137.258
 11
-146.926
 21
-137.758
  0
LINE
  8
0
 10
-146.926
 20
-137.758
 11
-147.174
 21
-138.344
  0
LINE
  8
0
 10
-147.174
 20
-138.344
 11
-147.322
 21
-139.014
  0
LINE
  8
0
 10
-147.322
 20
-139.014
 11
-147.372
 21
-139.77
  0
LINE
  8
0
 10
-147.372
 20
-139.77
 11
-147.32
 21
-140.52
  0
LINE
  8
0
 10
-147.32
 20
-140.52
 11
-147.165
 21
-141.192
  0
LINE
  8
0
 10
-147.165
 20
-141.192
 11
-146.907
 21
-141.788
  0
LINE
  8
0
 10
-146.907
 20
-141.788
 11
-146.545
 21
-142.306
  0
LINE
  8
0
 10
-146.545
 20
-142.306
 11
-146.095
 21
-142.725
  0
LINE
  8
0
 10
-146.095
 20
-142.725
 11
-145.572
 21
-143.025
  0
LINE
  8
0
 10
-145.572
 20
-143.025
 11
-144.977
 21
-143.205
  0
LINE
  8
0
 10
-144.977
 20
-143.205
 11
-144.308
 21
-143.265
  0
LINE
  8
0
 10
-144.308
 20
-143.265
 11
-143.461
 21
-143.153
  0
LINE
  8
0
 10
-143.461
 20
-143.153
 11
-142.725
 21
-142.816
  0
LINE
  8
0
 10
-142.725
 20
-142.816
 11
-142.102
 21
-142.255
  0
LINE
  8
0
 10
-142.102
 20
-142.255
 11
-141.591
 21
-141.47
  0
LINE
  8
0
 10
-141.591
 20
-141.47
 11
-140.641
 21
-141.947
  0
LINE
  8
0
 10
-140.641
 20
-141.947
 11
-140.933
 21
-142.47
  0
LINE
  8
0
 10
-140.933
 20
-142.47
 11
-141.279
 21
-142.927
  0
LINE
  8
0
 10
-141.279
 20
-142.927
 11
-141.679
 21
-143.317
  0
LINE
  8
0
 10
-141.679
 20
-143.317
 11
-142.133
 21
-143.641
  0
LINE
  8
0
 10
-142.133
 20
-143.641
 11
-142.633
 21
-143.895
  0
LINE
  8
0
 10
-142.633
 20
-143.895
 11
-143.171
 21
-144.076
  0
LINE
  8
0
 10
-143.171
 20
-144.076
 11
-143.748
 21
-144.185
  0
LINE
  8
0
 10
-143.748
 20
-144.185
 11
-144.363
 21
-144.222
  0
LINE
  8
0
 10
-144.363
 20
-144.222
 11
-144.991
 21
-144.188
  0
LINE
  8
0
 10
-187.023
 20
-144.085
 11
-188.097
 21
-143.676
  0
LINE
  8
0
 10
-188.097
 20
-143.676
 11
-188.841
 21
-142.994
  0
LINE
  8
0
 10
-188.841
 20
-142.994
 11
-189.256
 21
-142.04
  0
LINE
  8
0
 10
-189.256
 20
-142.04
 11
-188.129
 21
-141.815
  0
LINE
  8
0
 10
-188.129
 20
-141.815
 11
-188.004
 21
-142.176
  0
LINE
  8
0
 10
-188.004
 20
-142.176
 11
-187.824
 21
-142.486
  0
LINE
  8
0
 10
-187.824
 20
-142.486
 11
-187.59
 21
-142.745
  0
LINE
  8
0
 10
-187.59
 20
-142.745
 11
-187.301
 21
-142.952
  0
LINE
  8
0
 10
-187.301
 20
-142.952
 11
-186.955
 21
-143.11
  0
LINE
  8
0
 10
-186.955
 20
-143.11
 11
-186.553
 21
-143.223
  0
LINE
  8
0
 10
-186.553
 20
-143.223
 11
-186.093
 21
-143.291
  0
LINE
  8
0
 10
-186.093
 20
-143.291
 11
-185.577
 21
-143.314
  0
LINE
  8
0
 10
-185.577
 20
-143.314
 11
-185.045
 21
-143.29
  0
LINE
  8
0
 10
-185.045
 20
-143.29
 11
-184.579
 21
-143.217
  0
LINE
  8
0
 10
-184.579
 20
-143.217
 11
-184.176
 21
-143.097
  0
LINE
  8
0
 10
-184.176
 20
-143.097
 11
-183.838
 21
-142.928
  0
LINE
  8
0
 10
-183.838
 20
-142.928
 11
-183.57
 21
-142.712
  0
LINE
  8
0
 10
-183.57
 20
-142.712
 11
-183.379
 21
-142.45
  0
LINE
  8
0
 10
-183.379
 20
-142.45
 11
-183.264
 21
-142.144
  0
LINE
  8
0
 10
-183.264
 20
-142.144
 11
-183.226
 21
-141.792
  0
LINE
  8
0
 10
-183.226
 20
-141.792
 11
-183.238
 21
-141.592
  0
LINE
  8
0
 10
-183.238
 20
-141.592
 11
-183.274
 21
-141.411
  0
LINE
  8
0
 10
-183.274
 20
-141.411
 11
-183.334
 21
-141.251
  0
LINE
  8
0
 10
-183.334
 20
-141.251
 11
-183.418
 21
-141.11
  0
LINE
  8
0
 10
-183.418
 20
-141.11
 11
-183.523
 21
-140.984
  0
LINE
  8
0
 10
-183.523
 20
-140.984
 11
-183.649
 21
-140.871
  0
LINE
  8
0
 10
-183.649
 20
-140.871
 11
-183.793
 21
-140.768
  0
LINE
  8
0
 10
-183.793
 20
-140.768
 11
-183.957
 21
-140.678
  0
LINE
  8
0
 10
-183.957
 20
-140.678
 11
-184.139
 21
-140.596
  0
LINE
  8
0
 10
-184.139
 20
-140.596
 11
-184.337
 21
-140.52
  0
LINE
  8
0
 10
-184.337
 20
-140.52
 11
-184.553
 21
-140.452
  0
LINE
  8
0
 10
-184.553
 20
-140.452
 11
-184.785
 21
-140.391
  0
LINE
  8
0
 10
-184.785
 20
-140.391
 11
-185.032
 21
-140.332
  0
LINE
  8
0
 10
-185.032
 20
-140.332
 11
-186.329
 21
-140.028
  0
LINE
  8
0
 10
-186.329
 20
-140.028
 11
-186.745
 21
-139.916
  0
LINE
  8
0
 10
-186.745
 20
-139.916
 11
-187.101
 21
-139.803
  0
LINE
  8
0
 10
-187.101
 20
-139.803
 11
-187.395
 21
-139.691
  0
LINE
  8
0
 10
-187.395
 20
-139.691
 11
-187.644
 21
-139.575
  0
LINE
  8
0
 10
-187.644
 20
-139.575
 11
-187.866
 21
-139.452
  0
LINE
  8
0
 10
-187.866
 20
-139.452
 11
-188.06
 21
-139.323
  0
LINE
  8
0
 10
-188.06
 20
-139.323
 11
-188.227
 21
-139.188
  0
LINE
  8
0
 10
-188.227
 20
-139.188
 11
-188.37
 21
-139.043
  0
LINE
  8
0
 10
-188.37
 20
-139.043
 11
-188.495
 21
-138.887
  0
LINE
  8
0
 10
-188.495
 20
-138.887
 11
-188.603
 21
-138.719
  0
LINE
  8
0
 10
-188.603
 20
-138.719
 11
-188.693
 21
-138.54
  0
LINE
  8
0
 10
-188.693
 20
-138.54
 11
-188.763
 21
-138.347
  0
LINE
  8
0
 10
-188.763
 20
-138.347
 11
-188.814
 21
-138.14
  0
LINE
  8
0
 10
-188.814
 20
-138.14
 11
-188.844
 21
-137.92
  0
LINE
  8
0
 10
-188.844
 20
-137.92
 11
-188.854
 21
-137.686
  0
LINE
  8
0
 10
-188.854
 20
-137.686
 11
-188.801
 21
-137.166
  0
LINE
  8
0
 10
-188.801
 20
-137.166
 11
-188.643
 21
-136.71
  0
LINE
  8
0
 10
-188.643
 20
-136.71
 11
-188.38
 21
-136.317
  0
LINE
  8
0
 10
-188.38
 20
-136.317
 11
-188.011
 21
-135.987
  0
LINE
  8
0
 10
-188.011
 20
-135.987
 11
-187.543
 21
-135.726
  0
LINE
  8
0
 10
-187.543
 20
-135.726
 11
-186.985
 21
-135.539
  0
LINE
  8
0
 10
-186.985
 20
-135.539
 11
-186.335
 21
-135.427
  0
LINE
  8
0
 10
-186.335
 20
-135.427
 11
-185.595
 21
-135.39
  0
LINE
  8
0
 10
-185.595
 20
-135.39
 11
-184.907
 21
-135.418
  0
LINE
  8
0
 10
-184.907
 20
-135.418
 11
-184.306
 21
-135.502
  0
LINE
  8
0
 10
-184.306
 20
-135.502
 11
-183.79
 21
-135.642
  0
LINE
  8
0
 10
-183.79
 20
-135.642
 11
-183.361
 21
-135.838
  0
LINE
  8
0
 10
-183.361
 20
-135.838
 11
-183.003
 21
-136.101
  0
LINE
  8
0
 10
-183.003
 20
-136.101
 11
-182.703
 21
-136.443
  0
LINE
  8
0
 10
-182.703
 20
-136.443
 11
-182.46
 21
-136.864
  0
LINE
  8
0
 10
-182.46
 20
-136.864
 11
-182.276
 21
-137.364
  0
LINE
  8
0
 10
-182.276
 20
-137.364
 11
-183.421
 21
-137.565
  0
LINE
  8
0
 10
-183.421
 20
-137.565
 11
-183.537
 21
-137.247
  0
LINE
  8
0
 10
-183.537
 20
-137.247
 11
-183.695
 21
-136.977
  0
LINE
  8
0
 10
-183.695
 20
-136.977
 11
-183.896
 21
-136.753
  0
LINE
  8
0
 10
-183.896
 20
-136.753
 11
-184.14
 21
-136.576
  0
LINE
  8
0
 10
-184.14
 20
-136.576
 11
-184.43
 21
-136.441
  0
LINE
  8
0
 10
-184.43
 20
-136.441
 11
-184.772
 21
-136.345
  0
LINE
  8
0
 10
-184.772
 20
-136.345
 11
-185.164
 21
-136.287
  0
LINE
  8
0
 10
-185.164
 20
-136.287
 11
-185.608
 21
-136.268
  0
LINE
  8
0
 10
-185.608
 20
-136.268
 11
-186.092
 21
-136.289
  0
LINE
  8
0
 10
-186.092
 20
-136.289
 11
-186.515
 21
-136.353
  0
LINE
  8
0
 10
-186.515
 20
-136.353
 11
-186.877
 21
-136.46
  0
LINE
  8
0
 10
-186.877
 20
-136.46
 11
-187.179
 21
-136.609
  0
LINE
  8
0
 10
-187.179
 20
-136.609
 11
-187.416
 21
-136.8
  0
LINE
  8
0
 10
-187.416
 20
-136.8
 11
-187.585
 21
-137.033
  0
LINE
  8
0
 10
-187.585
 20
-137.033
 11
-187.687
 21
-137.308
  0
LINE
  8
0
 10
-187.687
 20
-137.308
 11
-187.721
 21
-137.625
  0
LINE
  8
0
 10
-187.721
 20
-137.625
 11
-187.708
 21
-137.814
  0
LINE
  8
0
 10
-187.708
 20
-137.814
 11
-187.668
 21
-137.987
  0
LINE
  8
0
 10
-187.668
 20
-137.987
 11
-187.603
 21
-138.142
  0
LINE
  8
0
 10
-187.603
 20
-138.142
 11
-187.511
 21
-138.28
  0
LINE
  8
0
 10
-187.511
 20
-138.28
 11
-187.394
 21
-138.404
  0
LINE
  8
0
 10
-187.394
 20
-138.404
 11
-187.254
 21
-138.519
  0
LINE
  8
0
 10
-187.254
 20
-138.519
 11
-187.091
 21
-138.624
  0
LINE
  8
0
 10
-187.091
 20
-138.624
 11
-186.905
 21
-138.719
  0
LINE
  8
0
 10
-186.905
 20
-138.719
 11
-186.658
 21
-138.813
  0
LINE
  8
0
 10
-186.658
 20
-138.813
 11
-186.312
 21
-138.919
  0
LINE
  8
0
 10
-186.312
 20
-138.919
 11
-185.869
 21
-139.034
  0
LINE
  8
0
 10
-185.869
 20
-139.034
 11
-185.327
 21
-139.16
  0
LINE
  8
0
 10
-185.327
 20
-139.16
 11
-184.539
 21
-139.346
  0
LINE
  8
0
 10
-184.539
 20
-139.346
 11
-184.344
 21
-139.395
  0
LINE
  8
0
 10
-184.344
 20
-139.395
 11
-184.154
 21
-139.449
  0
LINE
  8
0
 10
-184.154
 20
-139.449
 11
-183.968
 21
-139.508
  0
LINE
  8
0
 10
-183.968
 20
-139.508
 11
-183.787
 21
-139.571
  0
LINE
  8
0
 10
-183.787
 20
-139.571
 11
-183.61
 21
-139.639
  0
LINE
  8
0
 10
-183.61
 20
-139.639
 11
-183.439
 21
-139.713
  0
LINE
  8
0
 10
-183.439
 20
-139.713
 11
-183.273
 21
-139.793
  0
LINE
  8
0
 10
-183.273
 20
-139.793
 11
-183.114
 21
-139.879
  0
LINE
  8
0
 10
-183.114
 20
-139.879
 11
-182.962
 21
-139.972
  0
LINE
  8
0
 10
-182.962
 20
-139.972
 11
-182.821
 21
-140.075
  0
LINE
  8
0
 10
-182.821
 20
-140.075
 11
-182.689
 21
-140.188
  0
LINE
  8
0
 10
-182.689
 20
-140.188
 11
-182.569
 21
-140.311
  0
LINE
  8
0
 10
-182.569
 20
-140.311
 11
-182.459
 21
-140.444
  0
LINE
  8
0
 10
-182.459
 20
-140.444
 11
-182.362
 21
-140.59
  0
LINE
  8
0
 10
-182.362
 20
-140.59
 11
-182.278
 21
-140.746
  0
LINE
  8
0
 10
-182.278
 20
-140.746
 11
-182.206
 21
-140.915
  0
LINE
  8
0
 10
-182.206
 20
-140.915
 11
-182.148
 21
-141.096
  0
LINE
  8
0
 10
-182.148
 20
-141.096
 11
-182.108
 21
-141.292
  0
LINE
  8
0
 10
-182.108
 20
-141.292
 11
-182.083
 21
-141.504
  0
LINE
  8
0
 10
-182.083
 20
-141.504
 11
-182.075
 21
-141.731
  0
LINE
  8
0
 10
-182.075
 20
-141.731
 11
-182.133
 21
-142.291
  0
LINE
  8
0
 10
-182.133
 20
-142.291
 11
-182.307
 21
-142.784
  0
LINE
  8
0
 10
-182.307
 20
-142.784
 11
-182.597
 21
-143.21
  0
LINE
  8
0
 10
-182.597
 20
-143.21
 11
-183.004
 21
-143.57
  0
LINE
  8
0
 10
-183.004
 20
-143.57
 11
-183.516
 21
-143.855
  0
LINE
  8
0
 10
-183.516
 20
-143.855
 11
-184.122
 21
-144.059
  0
LINE
  8
0
 10
-184.122
 20
-144.059
 11
-184.824
 21
-144.181
  0
LINE
  8
0
 10
-184.824
 20
-144.181
 11
-185.62
 21
-144.222
  0
LINE
  8
0
 10
-185.62
 20
-144.222
 11
-187.023
 21
-144.085
  0
LINE
  8
0
 10
-180.83
 20
-144.094
 11
-180.83
 21
-138.909
  0
LINE
  8
0
 10
-180.83
 20
-138.909
 11
-180.832
 21
-138.389
  0
LINE
  8
0
 10
-180.832
 20
-138.389
 11
-180.839
 21
-137.982
  0
LINE
  8
0
 10
-180.839
 20
-137.982
 11
-180.85
 21
-137.686
  0
LINE
  8
0
 10
-180.85
 20
-137.686
 11
-180.866
 21
-137.502
  0
LINE
  8
0
 10
-180.866
 20
-137.502
 11
-179.83
 21
-137.502
  0
LINE
  8
0
 10
-179.83
 20
-137.502
 11
-179.824
 21
-137.558
  0
LINE
  8
0
 10
-179.824
 20
-137.558
 11
-179.798
 21
-138.077
  0
LINE
  8
0
 10
-179.798
 20
-138.077
 11
-179.781
 21
-138.624
  0
LINE
  8
0
 10
-179.781
 20
-138.624
 11
-179.763
 21
-138.624
  0
LINE
  8
0
 10
-179.763
 20
-138.624
 11
-179.58
 21
-138.3
  0
LINE
  8
0
 10
-179.58
 20
-138.3
 11
-179.385
 21
-138.03
  0
LINE
  8
0
 10
-179.385
 20
-138.03
 11
-179.176
 21
-137.812
  0
LINE
  8
0
 10
-179.176
 20
-137.812
 11
-178.955
 21
-137.649
  0
LINE
  8
0
 10
-178.955
 20
-137.649
 11
-178.714
 21
-137.528
  0
LINE
  8
0
 10
-178.714
 20
-137.528
 11
-178.449
 21
-137.443
  0
LINE
  8
0
 10
-178.449
 20
-137.443
 11
-178.158
 21
-137.391
  0
LINE
  8
0
 10
-178.158
 20
-137.391
 11
-177.843
 21
-137.374
  0
LINE
  8
0
 10
-177.843
 20
-137.374
 11
-177.489
 21
-137.392
  0
LINE
  8
0
 10
-177.489
 20
-137.392
 11
-177.174
 21
-137.449
  0
LINE
  8
0
 10
-177.174
 20
-137.449
 11
-176.898
 21
-137.542
  0
LINE
  8
0
 10
-176.898
 20
-137.542
 11
-176.662
 21
-137.673
  0
LINE
  8
0
 10
-176.662
 20
-137.673
 11
-176.461
 21
-137.844
  0
LINE
  8
0
 10
-176.461
 20
-137.844
 11
-176.293
 21
-138.06
  0
LINE
  8
0
 10
-176.293
 20
-138.06
 11
-176.158
 21
-138.32
  0
LINE
  8
0
 10
-176.158
 20
-138.32
 11
-176.057
 21
-138.624
  0
LINE
  8
0
 10
-176.057
 20
-138.624
 11
-176.039
 21
-138.624
  0
LINE
  8
0
 10
-176.039
 20
-138.624
 11
-175.86
 21
-138.315
  0
LINE
  8
0
 10
-175.86
 20
-138.315
 11
-175.663
 21
-138.052
  0
LINE
  8
0
 10
-175.663
 20
-138.052
 11
-175.448
 21
-137.836
  0
LINE
  8
0
 10
-175.448
 20
-137.836
 11
-175.216
 21
-137.667
  0
LINE
  8
0
 10
-175.216
 20
-137.667
 11
-174.962
 21
-137.539
  0
LINE
  8
0
 10
-174.962
 20
-137.539
 11
-174.682
 21
-137.447
  0
LINE
  8
0
 10
-174.682
 20
-137.447
 11
-174.377
 21
-137.392
  0
LINE
  8
0
 10
-174.377
 20
-137.392
 11
-174.046
 21
-137.374
  0
LINE
  8
0
 10
-174.046
 20
-137.374
 11
-173.582
 21
-137.408
  0
LINE
  8
0
 10
-173.582
 20
-137.408
 11
-173.186
 21
-137.51
  0
LINE
  8
0
 10
-173.186
 20
-137.51
 11
-172.858
 21
-137.679
  0
LINE
  8
0
 10
-172.858
 20
-137.679
 11
-172.598
 21
-137.917
  0
LINE
  8
0
 10
-172.598
 20
-137.917
 11
-172.4
 21
-138.231
  0
LINE
  8
0
 10
-172.4
 20
-138.231
 11
-172.258
 21
-138.633
  0
LINE
  8
0
 10
-172.258
 20
-138.633
 11
-172.173
 21
-139.121
  0
LINE
  8
0
 10
-172.173
 20
-139.121
 11
-172.145
 21
-139.697
  0
LINE
  8
0
 10
-172.145
 20
-139.697
 11
-172.145
 21
-144.094
  0
LINE
  8
0
 10
-172.145
 20
-144.094
 11
-173.229
 21
-144.094
  0
LINE
  8
0
 10
-173.229
 20
-144.094
 11
-173.229
 21
-139.91
  0
LINE
  8
0
 10
-173.229
 20
-139.91
 11
-173.245
 21
-139.468
  0
LINE
  8
0
 10
-173.245
 20
-139.468
 11
-173.294
 21
-139.101
  0
LINE
  8
0
 10
-173.294
 20
-139.101
 11
-173.376
 21
-138.807
  0
LINE
  8
0
 10
-173.376
 20
-138.807
 11
-173.49
 21
-138.587
  0
LINE
  8
0
 10
-173.49
 20
-138.587
 11
-173.646
 21
-138.427
  0
LINE
  8
0
 10
-173.646
 20
-138.427
 11
-173.855
 21
-138.312
  0
LINE
  8
0
 10
-173.855
 20
-138.312
 11
-174.116
 21
-138.244
  0
LINE
  8
0
 10
-174.116
 20
-138.244
 11
-174.43
 21
-138.221
  0
LINE
  8
0
 10
-174.43
 20
-138.221
 11
-174.768
 21
-138.254
  0
LINE
  8
0
 10
-174.768
 20
-138.254
 11
-175.066
 21
-138.354
  0
LINE
  8
0
 10
-175.066
 20
-138.354
 11
-175.325
 21
-138.521
  0
LINE
  8
0
 10
-175.325
 20
-138.521
 11
-175.544
 21
-138.755
  0
LINE
  8
0
 10
-175.544
 20
-138.755
 11
-175.718
 21
-139.049
  0
LINE
  8
0
 10
-175.718
 20
-139.049
 11
-175.842
 21
-139.4
  0
LINE
  8
0
 10
-175.842
 20
-139.4
 11
-175.916
 21
-139.807
  0
LINE
  8
0
 10
-175.916
 20
-139.807
 11
-175.941
 21
-140.27
  0
LINE
  8
0
 10
-175.941
 20
-140.27
 11
-175.941
 21
-144.094
  0
LINE
  8
0
 10
-175.941
 20
-144.094
 11
-177.026
 21
-144.094
  0
LINE
  8
0
 10
-177.026
 20
-144.094
 11
-177.026
 21
-139.91
  0
LINE
  8
0
 10
-177.026
 20
-139.91
 11
-177.042
 21
-139.468
  0
LINE
  8
0
 10
-177.042
 20
-139.468
 11
-177.091
 21
-139.101
  0
LINE
  8
0
 10
-177.091
 20
-139.101
 11
-177.173
 21
-138.807
  0
LINE
  8
0
 10
-177.173
 20
-138.807
 11
-177.287
 21
-138.587
  0
LINE
  8
0
 10
-177.287
 20
-138.587
 11
-177.444
 21
-138.427
  0
LINE
  8
0
 10
-177.444
 20
-138.427
 11
-177.653
 21
-138.312
  0
LINE
  8
0
 10
-177.653
 20
-138.312
 11
-177.914
 21
-138.244
  0
LINE
  8
0
 10
-177.914
 20
-138.244
 11
-178.228
 21
-138.221
  0
LINE
  8
0
 10
-178.228
 20
-138.221
 11
-178.559
 21
-138.254
  0
LINE
  8
0
 10
-178.559
 20
-138.254
 11
-178.853
 21
-138.355
  0
LINE
  8
0
 10
-178.853
 20
-138.355
 11
-179.111
 21
-138.523
  0
LINE
  8
0
 10
-179.111
 20
-138.523
 11
-179.333
 21
-138.758
  0
LINE
  8
0
 10
-179.333
 20
-138.758
 11
-179.51
 21
-139.053
  0
LINE
  8
0
 10
-179.51
 20
-139.053
 11
-179.637
 21
-139.404
  0
LINE
  8
0
 10
-179.637
 20
-139.404
 11
-179.713
 21
-139.809
  0
LINE
  8
0
 10
-179.713
 20
-139.809
 11
-179.739
 21
-140.27
  0
LINE
  8
0
 10
-179.739
 20
-140.27
 11
-179.739
 21
-144.094
  0
LINE
  8
0
 10
-179.739
 20
-144.094
 11
-180.83
 21
-144.094
  0
LINE
  8
0
 10
-138.341
 20
-144.189
 11
-138.742
 21
-144.09
  0
LINE
  8
0
 10
-138.742
 20
-144.09
 11
-139.083
 21
-143.926
  0
LINE
  8
0
 10
-139.083
 20
-143.926
 11
-139.362
 21
-143.696
  0
LINE
  8
0
 10
-139.362
 20
-143.696
 11
-139.58
 21
-143.408
  0
LINE
  8
0
 10
-139.58
 20
-143.408
 11
-139.735
 21
-143.072
  0
LINE
  8
0
 10
-139.735
 20
-143.072
 11
-139.828
 21
-142.686
  0
LINE
  8
0
 10
-139.828
 20
-142.686
 11
-139.859
 21
-142.252
  0
LINE
  8
0
 10
-139.859
 20
-142.252
 11
-139.817
 21
-141.768
  0
LINE
  8
0
 10
-139.817
 20
-141.768
 11
-139.692
 21
-141.343
  0
LINE
  8
0
 10
-139.692
 20
-141.343
 11
-139.482
 21
-140.979
  0
LINE
  8
0
 10
-139.482
 20
-140.979
 11
-139.189
 21
-140.674
  0
LINE
  8
0
 10
-139.189
 20
-140.674
 11
-138.803
 21
-140.43
  0
LINE
  8
0
 10
-138.803
 20
-140.43
 11
-138.314
 21
-140.251
  0
LINE
  8
0
 10
-138.314
 20
-140.251
 11
-137.722
 21
-140.136
  0
LINE
  8
0
 10
-137.722
 20
-140.136
 11
-137.028
 21
-140.086
  0
LINE
  8
0
 10
-137.028
 20
-140.086
 11
-135.555
 21
-140.062
  0
LINE
  8
0
 10
-135.555
 20
-140.062
 11
-135.555
 21
-139.704
  0
LINE
  8
0
 10
-135.555
 20
-139.704
 11
-135.576
 21
-139.331
  0
LINE
  8
0
 10
-135.576
 20
-139.331
 11
-135.64
 21
-139.016
  0
LINE
  8
0
 10
-135.64
 20
-139.016
 11
-135.746
 21
-138.757
  0
LINE
  8
0
 10
-135.746
 20
-138.757
 11
-135.894
 21
-138.556
  0
LINE
  8
0
 10
-135.894
 20
-138.556
 11
-136.088
 21
-138.404
  0
LINE
  8
0
 10
-136.088
 20
-138.404
 11
-136.33
 21
-138.296
  0
LINE
  8
0
 10
-136.33
 20
-138.296
 11
-136.62
 21
-138.23
  0
LINE
  8
0
 10
-136.62
 20
-138.23
 11
-136.959
 21
-138.209
  0
LINE
  8
0
 10
-136.959
 20
-138.209
 11
-137.3
 21
-138.224
  0
LINE
  8
0
 10
-137.3
 20
-138.224
 11
-137.591
 21
-138.27
  0
LINE
  8
0
 10
-137.591
 20
-138.27
 11
-137.833
 21
-138.346
  0
LINE
  8
0
 10
-137.833
 20
-138.346
 11
-138.024
 21
-138.453
  0
LINE
  8
0
 10
-138.024
 20
-138.453
 11
-138.174
 21
-138.592
  0
LINE
  8
0
 10
-138.174
 20
-138.592
 11
-138.29
 21
-138.769
  0
LINE
  8
0
 10
-138.29
 20
-138.769
 11
-138.373
 21
-138.981
  0
LINE
  8
0
 10
-138.373
 20
-138.981
 11
-138.423
 21
-139.23
  0
LINE
  8
0
 10
-138.423
 20
-139.23
 11
-139.568
 21
-139.128
  0
LINE
  8
0
 10
-139.568
 20
-139.128
 11
-139.299
 21
-138.36
  0
LINE
  8
0
 10
-139.299
 20
-138.36
 11
-138.77
 21
-137.812
  0
LINE
  8
0
 10
-138.77
 20
-137.812
 11
-137.982
 21
-137.483
  0
LINE
  8
0
 10
-137.982
 20
-137.483
 11
-136.934
 21
-137.374
  0
LINE
  8
0
 10
-136.934
 20
-137.374
 11
-136.354
 21
-137.409
  0
LINE
  8
0
 10
-136.354
 20
-137.409
 11
-135.849
 21
-137.517
  0
LINE
  8
0
 10
-135.849
 20
-137.517
 11
-135.422
 21
-137.695
  0
LINE
  8
0
 10
-135.422
 20
-137.695
 11
-135.071
 21
-137.945
  0
LINE
  8
0
 10
-135.071
 20
-137.945
 11
-134.798
 21
-138.262
  0
LINE
  8
0
 10
-134.798
 20
-138.262
 11
-134.602
 21
-138.642
  0
LINE
  8
0
 10
-134.602
 20
-138.642
 11
-134.485
 21
-139.087
  0
LINE
  8
0
 10
-134.485
 20
-139.087
 11
-134.446
 21
-139.595
  0
LINE
  8
0
 10
-134.446
 20
-139.595
 11
-134.446
 21
-142.439
  0
LINE
  8
0
 10
-134.446
 20
-142.439
 11
-134.438
 21
-142.668
  0
LINE
  8
0
 10
-134.438
 20
-142.668
 11
-134.414
 21
-142.866
  0
LINE
  8
0
 10
-134.414
 20
-142.866
 11
-134.375
 21
-143.035
  0
LINE
  8
0
 10
-134.375
 20
-143.035
 11
-134.319
 21
-143.174
  0
LINE
  8
0
 10
-134.319
 20
-143.174
 11
-134.241
 21
-143.282
  0
LINE
  8
0
 10
-134.241
 20
-143.282
 11
-134.134
 21
-143.359
  0
LINE
  8
0
 10
-134.134
 20
-143.359
 11
-133.998
 21
-143.405
  0
LINE
  8
0
 10
-133.998
 20
-143.405
 11
-133.833
 21
-143.421
  0
LINE
  8
0
 10
-133.833
 20
-143.421
 11
-133.752
 21
-143.418
  0
LINE
  8
0
 10
-133.752
 20
-143.418
 11
-133.665
 21
-143.41
  0
LINE
  8
0
 10
-133.665
 20
-143.41
 11
-133.573
 21
-143.397
  0
LINE
  8
0
 10
-133.573
 20
-143.397
 11
-133.475
 21
-143.378
  0
LINE
  8
0
 10
-133.475
 20
-143.378
 11
-133.475
 21
-144.061
  0
LINE
  8
0
 10
-133.475
 20
-144.061
 11
-133.683
 21
-144.103
  0
LINE
  8
0
 10
-133.683
 20
-144.103
 11
-133.894
 21
-144.133
  0
LINE
  8
0
 10
-133.894
 20
-144.133
 11
-134.106
 21
-144.152
  0
LINE
  8
0
 10
-134.106
 20
-144.152
 11
-134.321
 21
-144.158
  0
LINE
  8
0
 10
-134.321
 20
-144.158
 11
-134.605
 21
-144.138
  0
LINE
  8
0
 10
-134.605
 20
-144.138
 11
-134.846
 21
-144.078
  0
LINE
  8
0
 10
-134.846
 20
-144.078
 11
-135.047
 21
-143.978
  0
LINE
  8
0
 10
-135.047
 20
-143.978
 11
-135.206
 21
-143.839
  0
LINE
  8
0
 10
-135.206
 20
-143.839
 11
-135.33
 21
-143.656
  0
LINE
  8
0
 10
-135.33
 20
-143.656
 11
-135.423
 21
-143.428
  0
LINE
  8
0
 10
-135.423
 20
-143.428
 11
-135.486
 21
-143.155
  0
LINE
  8
0
 10
-135.486
 20
-143.155
 11
-135.519
 21
-142.837
  0
LINE
  8
0
 10
-135.519
 20
-142.837
 11
-135.555
 21
-142.837
  0
LINE
  8
0
 10
-135.555
 20
-142.837
 11
-135.773
 21
-143.188
  0
LINE
  8
0
 10
-135.773
 20
-143.188
 11
-136.008
 21
-143.483
  0
LINE
  8
0
 10
-136.008
 20
-143.483
 11
-136.26
 21
-143.723
  0
LINE
  8
0
 10
-136.26
 20
-143.723
 11
-136.529
 21
-143.908
  0
LINE
  8
0
 10
-136.529
 20
-143.908
 11
-136.821
 21
-144.045
  0
LINE
  8
0
 10
-136.821
 20
-144.045
 11
-137.143
 21
-144.143
  0
LINE
  8
0
 10
-137.143
 20
-144.143
 11
-137.495
 21
-144.202
  0
LINE
  8
0
 10
-137.495
 20
-144.202
 11
-137.877
 21
-144.222
  0
LINE
  8
0
 10
-137.877
 20
-144.222
 11
-138.341
 21
-144.189
  0
LINE
  8
0
 10
-137.333
 20
-143.381
 11
-137.058
 21
-143.33
  0
LINE
  8
0
 10
-137.058
 20
-143.33
 11
-136.801
 21
-143.243
  0
LINE
  8
0
 10
-136.801
 20
-143.243
 11
-136.559
 21
-143.123
  0
LINE
  8
0
 10
-136.559
 20
-143.123
 11
-136.339
 21
-142.972
  0
LINE
  8
0
 10
-136.339
 20
-142.972
 11
-136.142
 21
-142.795
  0
LINE
  8
0
 10
-136.142
 20
-142.795
 11
-135.971
 21
-142.593
  0
LINE
  8
0
 10
-135.971
 20
-142.593
 11
-135.824
 21
-142.366
  0
LINE
  8
0
 10
-135.824
 20
-142.366
 11
-135.707
 21
-142.123
  0
LINE
  8
0
 10
-135.707
 20
-142.123
 11
-135.622
 21
-141.878
  0
LINE
  8
0
 10
-135.622
 20
-141.878
 11
-135.572
 21
-141.628
  0
LINE
  8
0
 10
-135.572
 20
-141.628
 11
-135.555
 21
-141.376
  0
LINE
  8
0
 10
-135.555
 20
-141.376
 11
-135.555
 21
-140.83
  0
LINE
  8
0
 10
-135.555
 20
-140.83
 11
-136.747
 21
-140.855
  0
LINE
  8
0
 10
-136.747
 20
-140.855
 11
-137.108
 21
-140.869
  0
LINE
  8
0
 10
-137.108
 20
-140.869
 11
-137.422
 21
-140.9
  0
LINE
  8
0
 10
-137.422
 20
-140.9
 11
-137.691
 21
-140.949
  0
LINE
  8
0
 10
-137.691
 20
-140.949
 11
-137.912
 21
-141.014
  0
LINE
  8
0
 10
-137.912
 20
-141.014
 11
-138.099
 21
-141.097
  0
LINE
  8
0
 10
-138.099
 20
-141.097
 11
-138.262
 21
-141.201
  0
LINE
  8
0
 10
-138.262
 20
-141.201
 11
-138.403
 21
-141.324
  0
LINE
  8
0
 10
-138.403
 20
-141.324
 11
-138.52
 21
-141.468
  0
LINE
  8
0
 10
-138.52
 20
-141.468
 11
-138.613
 21
-141.633
  0
LINE
  8
0
 10
-138.613
 20
-141.633
 11
-138.678
 21
-141.821
  0
LINE
  8
0
 10
-138.678
 20
-141.821
 11
-138.718
 21
-142.034
  0
LINE
  8
0
 10
-138.718
 20
-142.034
 11
-138.731
 21
-142.271
  0
LINE
  8
0
 10
-138.731
 20
-142.271
 11
-138.713
 21
-142.525
  0
LINE
  8
0
 10
-138.713
 20
-142.525
 11
-138.659
 21
-142.749
  0
LINE
  8
0
 10
-138.659
 20
-142.749
 11
-138.57
 21
-142.942
  0
LINE
  8
0
 10
-138.57
 20
-142.942
 11
-138.444
 21
-143.105
  0
LINE
  8
0
 10
-138.444
 20
-143.105
 11
-138.285
 21
-143.233
  0
LINE
  8
0
 10
-138.285
 20
-143.233
 11
-138.095
 21
-143.325
  0
LINE
  8
0
 10
-138.095
 20
-143.325
 11
-137.875
 21
-143.38
  0
LINE
  8
0
 10
-137.875
 20
-143.38
 11
-137.624
 21
-143.399
  0
LINE
  8
0
 10
-137.624
 20
-143.399
 11
-137.333
 21
-143.381
  0
LINE
  8
0
 10
-169.494
 20
-144.189
 11
-169.896
 21
-144.09
  0
LINE
  8
0
 10
-169.896
 20
-144.09
 11
-170.236
 21
-143.926
  0
LINE
  8
0
 10
-170.236
 20
-143.926
 11
-170.516
 21
-143.696
  0
LINE
  8
0
 10
-170.516
 20
-143.696
 11
-170.733
 21
-143.408
  0
LINE
  8
0
 10
-170.733
 20
-143.408
 11
-170.888
 21
-143.072
  0
LINE
  8
0
 10
-170.888
 20
-143.072
 11
-170.981
 21
-142.686
  0
LINE
  8
0
 10
-170.981
 20
-142.686
 11
-171.013
 21
-142.252
  0
LINE
  8
0
 10
-171.013
 20
-142.252
 11
-170.971
 21
-141.768
  0
LINE
  8
0
 10
-170.971
 20
-141.768
 11
-170.845
 21
-141.343
  0
LINE
  8
0
 10
-170.845
 20
-141.343
 11
-170.636
 21
-140.979
  0
LINE
  8
0
 10
-170.636
 20
-140.979
 11
-170.343
 21
-140.674
  0
LINE
  8
0
 10
-170.343
 20
-140.674
 11
-169.956
 21
-140.43
  0
LINE
  8
0
 10
-169.956
 20
-140.43
 11
-169.467
 21
-140.251
  0
LINE
  8
0
 10
-169.467
 20
-140.251
 11
-168.876
 21
-140.136
  0
LINE
  8
0
 10
-168.876
 20
-140.136
 11
-168.182
 21
-140.086
  0
LINE
  8
0
 10
-168.182
 20
-140.086
 11
-166.709
 21
-140.062
  0
LINE
  8
0
 10
-166.709
 20
-140.062
 11
-166.709
 21
-139.704
  0
LINE
  8
0
 10
-166.709
 20
-139.704
 11
-166.73
 21
-139.331
  0
LINE
  8
0
 10
-166.73
 20
-139.331
 11
-166.793
 21
-139.016
  0
LINE
  8
0
 10
-166.793
 20
-139.016
 11
-166.899
 21
-138.757
  0
LINE
  8
0
 10
-166.899
 20
-138.757
 11
-167.048
 21
-138.556
  0
LINE
  8
0
 10
-167.048
 20
-138.556
 11
-167.241
 21
-138.404
  0
LINE
  8
0
 10
-167.241
 20
-138.404
 11
-167.483
 21
-138.296
  0
LINE
  8
0
 10
-167.483
 20
-138.296
 11
-167.774
 21
-138.23
  0
LINE
  8
0
 10
-167.774
 20
-138.23
 11
-168.113
 21
-138.209
  0
LINE
  8
0
 10
-168.113
 20
-138.209
 11
-168.454
 21
-138.224
  0
LINE
  8
0
 10
-168.454
 20
-138.224
 11
-168.745
 21
-138.27
  0
LINE
  8
0
 10
-168.745
 20
-138.27
 11
-168.986
 21
-138.346
  0
LINE
  8
0
 10
-168.986
 20
-138.346
 11
-169.178
 21
-138.453
  0
LINE
  8
0
 10
-169.178
 20
-138.453
 11
-169.327
 21
-138.592
  0
LINE
  8
0
 10
-169.327
 20
-138.592
 11
-169.443
 21
-138.769
  0
LINE
  8
0
 10
-169.443
 20
-138.769
 11
-169.526
 21
-138.981
  0
LINE
  8
0
 10
-169.526
 20
-138.981
 11
-169.577
 21
-139.23
  0
LINE
  8
0
 10
-169.577
 20
-139.23
 11
-170.722
 21
-139.128
  0
LINE
  8
0
 10
-170.722
 20
-139.128
 11
-170.452
 21
-138.36
  0
LINE
  8
0
 10
-170.452
 20
-138.36
 11
-169.924
 21
-137.812
  0
LINE
  8
0
 10
-169.924
 20
-137.812
 11
-169.135
 21
-137.483
  0
LINE
  8
0
 10
-169.135
 20
-137.483
 11
-168.088
 21
-137.374
  0
LINE
  8
0
 10
-168.088
 20
-137.374
 11
-167.507
 21
-137.409
  0
LINE
  8
0
 10
-167.507
 20
-137.409
 11
-167.003
 21
-137.517
  0
LINE
  8
0
 10
-167.003
 20
-137.517
 11
-166.575
 21
-137.695
  0
LINE
  8
0
 10
-166.575
 20
-137.695
 11
-166.225
 21
-137.945
  0
LINE
  8
0
 10
-166.225
 20
-137.945
 11
-165.951
 21
-138.262
  0
LINE
  8
0
 10
-165.951
 20
-138.262
 11
-165.756
 21
-138.642
  0
LINE
  8
0
 10
-165.756
 20
-138.642
 11
-165.639
 21
-139.087
  0
LINE
  8
0
 10
-165.639
 20
-139.087
 11
-165.6
 21
-139.595
  0
LINE
  8
0
 10
-165.6
 20
-139.595
 11
-165.6
 21
-142.439
  0
LINE
  8
0
 10
-165.6
 20
-142.439
 11
-165.592
 21
-142.668
  0
LINE
  8
0
 10
-165.592
 20
-142.668
 11
-165.568
 21
-142.866
  0
LINE
  8
0
 10
-165.568
 20
-142.866
 11
-165.528
 21
-143.035
  0
LINE
  8
0
 10
-165.528
 20
-143.035
 11
-165.473
 21
-143.174
  0
LINE
  8
0
 10
-165.473
 20
-143.174
 11
-165.394
 21
-143.282
  0
LINE
  8
0
 10
-165.394
 20
-143.282
 11
-165.287
 21
-143.359
  0
LINE
  8
0
 10
-165.287
 20
-143.359
 11
-165.151
 21
-143.405
  0
LINE
  8
0
 10
-165.151
 20
-143.405
 11
-164.987
 21
-143.421
  0
LINE
  8
0
 10
-164.987
 20
-143.421
 11
-164.905
 21
-143.418
  0
LINE
  8
0
 10
-164.905
 20
-143.418
 11
-164.818
 21
-143.41
  0
LINE
  8
0
 10
-164.818
 20
-143.41
 11
-164.726
 21
-143.397
  0
LINE
  8
0
 10
-164.726
 20
-143.397
 11
-164.629
 21
-143.378
  0
LINE
  8
0
 10
-164.629
 20
-143.378
 11
-164.629
 21
-144.061
  0
LINE
  8
0
 10
-164.629
 20
-144.061
 11
-164.837
 21
-144.103
  0
LINE
  8
0
 10
-164.837
 20
-144.103
 11
-165.047
 21
-144.133
  0
LINE
  8
0
 10
-165.047
 20
-144.133
 11
-165.26
 21
-144.152
  0
LINE
  8
0
 10
-165.26
 20
-144.152
 11
-165.475
 21
-144.158
  0
LINE
  8
0
 10
-165.475
 20
-144.158
 11
-165.758
 21
-144.138
  0
LINE
  8
0
 10
-165.758
 20
-144.138
 11
-166
 21
-144.078
  0
LINE
  8
0
 10
-166
 20
-144.078
 11
-166.2
 21
-143.978
  0
LINE
  8
0
 10
-166.2
 20
-143.978
 11
-166.36
 21
-143.839
  0
LINE
  8
0
 10
-166.36
 20
-143.839
 11
-166.483
 21
-143.656
  0
LINE
  8
0
 10
-166.483
 20
-143.656
 11
-166.576
 21
-143.428
  0
LINE
  8
0
 10
-166.576
 20
-143.428
 11
-166.639
 21
-143.155
  0
LINE
  8
0
 10
-166.639
 20
-143.155
 11
-166.673
 21
-142.837
  0
LINE
  8
0
 10
-166.673
 20
-142.837
 11
-166.709
 21
-142.837
  0
LINE
  8
0
 10
-166.709
 20
-142.837
 11
-166.927
 21
-143.188
  0
LINE
  8
0
 10
-166.927
 20
-143.188
 11
-167.162
 21
-143.483
  0
LINE
  8
0
 10
-167.162
 20
-143.483
 11
-167.414
 21
-143.723
  0
LINE
  8
0
 10
-167.414
 20
-143.723
 11
-167.683
 21
-143.908
  0
LINE
  8
0
 10
-167.683
 20
-143.908
 11
-167.975
 21
-144.045
  0
LINE
  8
0
 10
-167.975
 20
-144.045
 11
-168.297
 21
-144.143
  0
LINE
  8
0
 10
-168.297
 20
-144.143
 11
-168.649
 21
-144.202
  0
LINE
  8
0
 10
-168.649
 20
-144.202
 11
-169.031
 21
-144.222
  0
LINE
  8
0
 10
-169.031
 20
-144.222
 11
-169.494
 21
-144.189
  0
LINE
  8
0
 10
-168.486
 20
-143.381
 11
-168.212
 21
-143.33
  0
LINE
  8
0
 10
-168.212
 20
-143.33
 11
-167.954
 21
-143.243
  0
LINE
  8
0
 10
-167.954
 20
-143.243
 11
-167.713
 21
-143.123
  0
LINE
  8
0
 10
-167.713
 20
-143.123
 11
-167.492
 21
-142.972
  0
LINE
  8
0
 10
-167.492
 20
-142.972
 11
-167.296
 21
-142.795
  0
LINE
  8
0
 10
-167.296
 20
-142.795
 11
-167.124
 21
-142.593
  0
LINE
  8
0
 10
-167.124
 20
-142.593
 11
-166.978
 21
-142.366
  0
LINE
  8
0
 10
-166.978
 20
-142.366
 11
-166.86
 21
-142.123
  0
LINE
  8
0
 10
-166.86
 20
-142.123
 11
-166.776
 21
-141.878
  0
LINE
  8
0
 10
-166.776
 20
-141.878
 11
-166.725
 21
-141.628
  0
LINE
  8
0
 10
-166.725
 20
-141.628
 11
-166.709
 21
-141.376
  0
LINE
  8
0
 10
-166.709
 20
-141.376
 11
-166.709
 21
-140.83
  0
LINE
  8
0
 10
-166.709
 20
-140.83
 11
-167.901
 21
-140.855
  0
LINE
  8
0
 10
-167.901
 20
-140.855
 11
-168.261
 21
-140.869
  0
LINE
  8
0
 10
-168.261
 20
-140.869
 11
-168.576
 21
-140.9
  0
LINE
  8
0
 10
-168.576
 20
-140.9
 11
-168.844
 21
-140.949
  0
LINE
  8
0
 10
-168.844
 20
-140.949
 11
-169.066
 21
-141.014
  0
LINE
  8
0
 10
-169.066
 20
-141.014
 11
-169.252
 21
-141.097
  0
LINE
  8
0
 10
-169.252
 20
-141.097
 11
-169.416
 21
-141.201
  0
LINE
  8
0
 10
-169.416
 20
-141.201
 11
-169.556
 21
-141.324
  0
LINE
  8
0
 10
-169.556
 20
-141.324
 11
-169.674
 21
-141.468
  0
LINE
  8
0
 10
-169.674
 20
-141.468
 11
-169.766
 21
-141.633
  0
LINE
  8
0
 10
-169.766
 20
-141.633
 11
-169.832
 21
-141.821
  0
LINE
  8
0
 10
-169.832
 20
-141.821
 11
-169.871
 21
-142.034
  0
LINE
  8
0
 10
-169.871
 20
-142.034
 11
-169.885
 21
-142.271
  0
LINE
  8
0
 10
-169.885
 20
-142.271
 11
-169.867
 21
-142.525
  0
LINE
  8
0
 10
-169.867
 20
-142.525
 11
-169.813
 21
-142.749
  0
LINE
  8
0
 10
-169.813
 20
-142.749
 11
-169.723
 21
-142.942
  0
LINE
  8
0
 10
-169.723
 20
-142.942
 11
-169.598
 21
-143.105
  0
LINE
  8
0
 10
-169.598
 20
-143.105
 11
-169.438
 21
-143.233
  0
LINE
  8
0
 10
-169.438
 20
-143.233
 11
-169.249
 21
-143.325
  0
LINE
  8
0
 10
-169.249
 20
-143.325
 11
-169.028
 21
-143.38
  0
LINE
  8
0
 10
-169.028
 20
-143.38
 11
-168.778
 21
-143.399
  0
LINE
  8
0
 10
-168.778
 20
-143.399
 11
-168.486
 21
-143.381
  0
LINE
  8
0
 10
-120.225
 20
-144.196
 11
-120.737
 21
-144.12
  0
LINE
  8
0
 10
-120.737
 20
-144.12
 11
-121.179
 21
-143.994
  0
LINE
  8
0
 10
-121.179
 20
-143.994
 11
-121.55
 21
-143.817
  0
LINE
  8
0
 10
-121.55
 20
-143.817
 11
-121.856
 21
-143.585
  0
LINE
  8
0
 10
-121.856
 20
-143.585
 11
-122.104
 21
-143.297
  0
LINE
  8
0
 10
-122.104
 20
-143.297
 11
-122.293
 21
-142.953
  0
LINE
  8
0
 10
-122.293
 20
-142.953
 11
-122.423
 21
-142.552
  0
LINE
  8
0
 10
-122.423
 20
-142.552
 11
-121.454
 21
-142.363
  0
LINE
  8
0
 10
-121.454
 20
-142.363
 11
-121.365
 21
-142.61
  0
LINE
  8
0
 10
-121.365
 20
-142.61
 11
-121.238
 21
-142.822
  0
LINE
  8
0
 10
-121.238
 20
-142.822
 11
-121.073
 21
-142.999
  0
LINE
  8
0
 10
-121.073
 20
-142.999
 11
-120.871
 21
-143.14
  0
LINE
  8
0
 10
-120.871
 20
-143.14
 11
-120.628
 21
-143.248
  0
LINE
  8
0
 10
-120.628
 20
-143.248
 11
-120.342
 21
-143.325
  0
LINE
  8
0
 10
-120.342
 20
-143.325
 11
-120.013
 21
-143.371
  0
LINE
  8
0
 10
-120.013
 20
-143.371
 11
-119.641
 21
-143.387
  0
LINE
  8
0
 10
-119.641
 20
-143.387
 11
-119.248
 21
-143.371
  0
LINE
  8
0
 10
-119.248
 20
-143.371
 11
-118.912
 21
-143.322
  0
LINE
  8
0
 10
-118.912
 20
-143.322
 11
-118.632
 21
-143.242
  0
LINE
  8
0
 10
-118.632
 20
-143.242
 11
-118.409
 21
-143.129
  0
LINE
  8
0
 10
-118.409
 20
-143.129
 11
-118.238
 21
-142.984
  0
LINE
  8
0
 10
-118.238
 20
-142.984
 11
-118.116
 21
-142.806
  0
LINE
  8
0
 10
-118.116
 20
-142.806
 11
-118.043
 21
-142.597
  0
LINE
  8
0
 10
-118.043
 20
-142.597
 11
-118.019
 21
-142.355
  0
LINE
  8
0
 10
-118.019
 20
-142.355
 11
-118.036
 21
-142.168
  0
LINE
  8
0
 10
-118.036
 20
-142.168
 11
-118.086
 21
-142
  0
LINE
  8
0
 10
-118.086
 20
-142
 11
-118.171
 21
-141.85
  0
LINE
  8
0
 10
-118.171
 20
-141.85
 11
-118.289
 21
-141.719
  0
LINE
  8
0
 10
-118.289
 20
-141.719
 11
-118.445
 21
-141.602
  0
LINE
  8
0
 10
-118.445
 20
-141.602
 11
-118.642
 21
-141.495
  0
LINE
  8
0
 10
-118.642
 20
-141.495
 11
-118.88
 21
-141.4
  0
LINE
  8
0
 10
-118.88
 20
-141.4
 11
-119.16
 21
-141.315
  0
LINE
  8
0
 10
-119.16
 20
-141.315
 11
-119.951
 21
-141.107
  0
LINE
  8
0
 10
-119.951
 20
-141.107
 11
-120.392
 21
-140.985
  0
LINE
  8
0
 10
-120.392
 20
-140.985
 11
-120.765
 21
-140.864
  0
LINE
  8
0
 10
-120.765
 20
-140.864
 11
-121.069
 21
-140.745
  0
LINE
  8
0
 10
-121.069
 20
-140.745
 11
-121.304
 21
-140.627
  0
LINE
  8
0
 10
-121.304
 20
-140.627
 11
-121.494
 21
-140.502
  0
LINE
  8
0
 10
-121.494
 20
-140.502
 11
-121.662
 21
-140.366
  0
LINE
  8
0
 10
-121.662
 20
-140.366
 11
-121.809
 21
-140.216
  0
LINE
  8
0
 10
-121.809
 20
-140.216
 11
-121.933
 21
-140.055
  0
LINE
  8
0
 10
-121.933
 20
-140.055
 11
-122.032
 21
-139.877
  0
LINE
  8
0
 10
-122.032
 20
-139.877
 11
-122.103
 21
-139.68
  0
LINE
  8
0
 10
-122.103
 20
-139.68
 11
-122.146
 21
-139.463
  0
LINE
  8
0
 10
-122.146
 20
-139.463
 11
-122.16
 21
-139.228
  0
LINE
  8
0
 10
-122.16
 20
-139.228
 11
-122.12
 21
-138.802
  0
LINE
  8
0
 10
-122.12
 20
-138.802
 11
-121.998
 21
-138.43
  0
LINE
  8
0
 10
-121.998
 20
-138.43
 11
-121.797
 21
-138.112
  0
LINE
  8
0
 10
-121.797
 20
-138.112
 11
-121.514
 21
-137.848
  0
LINE
  8
0
 10
-121.514
 20
-137.848
 11
-121.154
 21
-137.64
  0
LINE
  8
0
 10
-121.154
 20
-137.64
 11
-120.72
 21
-137.492
  0
LINE
  8
0
 10
-120.72
 20
-137.492
 11
-120.212
 21
-137.403
  0
LINE
  8
0
 10
-120.212
 20
-137.403
 11
-119.63
 21
-137.374
  0
LINE
  8
0
 10
-119.63
 20
-137.374
 11
-119.11
 21
-137.398
  0
LINE
  8
0
 10
-119.11
 20
-137.398
 11
-118.646
 21
-137.47
  0
LINE
  8
0
 10
-118.646
 20
-137.47
 11
-118.239
 21
-137.59
  0
LINE
  8
0
 10
-118.239
 20
-137.59
 11
-117.888
 21
-137.758
  0
LINE
  8
0
 10
-117.888
 20
-137.758
 11
-117.595
 21
-137.979
  0
LINE
  8
0
 10
-117.595
 20
-137.979
 11
-117.36
 21
-138.258
  0
LINE
  8
0
 10
-117.36
 20
-138.258
 11
-117.186
 21
-138.594
  0
LINE
  8
0
 10
-117.186
 20
-138.594
 11
-117.07
 21
-138.989
  0
LINE
  8
0
 10
-117.07
 20
-138.989
 11
-118.057
 21
-139.111
  0
LINE
  8
0
 10
-118.057
 20
-139.111
 11
-118.122
 21
-138.904
  0
LINE
  8
0
 10
-118.122
 20
-138.904
 11
-118.227
 21
-138.723
  0
LINE
  8
0
 10
-118.227
 20
-138.723
 11
-118.37
 21
-138.568
  0
LINE
  8
0
 10
-118.37
 20
-138.568
 11
-118.552
 21
-138.438
  0
LINE
  8
0
 10
-118.552
 20
-138.438
 11
-118.77
 21
-138.335
  0
LINE
  8
0
 10
-118.77
 20
-138.335
 11
-119.022
 21
-138.262
  0
LINE
  8
0
 10
-119.022
 20
-138.262
 11
-119.309
 21
-138.217
  0
LINE
  8
0
 10
-119.309
 20
-138.217
 11
-119.63
 21
-138.203
  0
LINE
  8
0
 10
-119.63
 20
-138.203
 11
-119.98
 21
-138.217
  0
LINE
  8
0
 10
-119.98
 20
-138.217
 11
-120.282
 21
-138.26
  0
LINE
  8
0
 10
-120.282
 20
-138.26
 11
-120.534
 21
-138.33
  0
LINE
  8
0
 10
-120.534
 20
-138.33
 11
-120.737
 21
-138.43
  0
LINE
  8
0
 10
-120.737
 20
-138.43
 11
-120.893
 21
-138.558
  0
LINE
  8
0
 10
-120.893
 20
-138.558
 11
-121.004
 21
-138.715
  0
LINE
  8
0
 10
-121.004
 20
-138.715
 11
-121.071
 21
-138.902
  0
LINE
  8
0
 10
-121.071
 20
-138.902
 11
-121.093
 21
-139.118
  0
LINE
  8
0
 10
-121.093
 20
-139.118
 11
-121.084
 21
-139.253
  0
LINE
  8
0
 10
-121.084
 20
-139.253
 11
-121.056
 21
-139.375
  0
LINE
  8
0
 10
-121.056
 20
-139.375
 11
-121.01
 21
-139.486
  0
LINE
  8
0
 10
-121.01
 20
-139.486
 11
-120.946
 21
-139.584
  0
LINE
  8
0
 10
-120.946
 20
-139.584
 11
-120.864
 21
-139.672
  0
LINE
  8
0
 10
-120.864
 20
-139.672
 11
-120.764
 21
-139.753
  0
LINE
  8
0
 10
-120.764
 20
-139.753
 11
-120.646
 21
-139.828
  0
LINE
  8
0
 10
-120.646
 20
-139.828
 11
-120.511
 21
-139.896
  0
LINE
  8
0
 10
-120.511
 20
-139.896
 11
-120.327
 21
-139.966
  0
LINE
  8
0
 10
-120.327
 20
-139.966
 11
-120.063
 21
-140.048
  0
LINE
  8
0
 10
-120.063
 20
-140.048
 11
-119.719
 21
-140.143
  0
LINE
  8
0
 10
-119.719
 20
-140.143
 11
-119.296
 21
-140.25
  0
LINE
  8
0
 10
-119.296
 20
-140.25
 11
-118.888
 21
-140.358
  0
LINE
  8
0
 10
-118.888
 20
-140.358
 11
-118.542
 21
-140.461
  0
LINE
  8
0
 10
-118.542
 20
-140.461
 11
-118.257
 21
-140.561
  0
LINE
  8
0
 10
-118.257
 20
-140.561
 11
-118.033
 21
-140.657
  0
LINE
  8
0
 10
-118.033
 20
-140.657
 11
-117.85
 21
-140.753
  0
LINE
  8
0
 10
-117.85
 20
-140.753
 11
-117.687
 21
-140.854
  0
LINE
  8
0
 10
-117.687
 20
-140.854
 11
-117.544
 21
-140.96
  0
LINE
  8
0
 10
-117.544
 20
-140.96
 11
-117.422
 21
-141.071
  0
LINE
  8
0
 10
-117.422
 20
-141.071
 11
-117.316
 21
-141.188
  0
LINE
  8
0
 10
-117.316
 20
-141.188
 11
-117.223
 21
-141.314
  0
LINE
  8
0
 10
-117.223
 20
-141.314
 11
-117.143
 21
-141.45
  0
LINE
  8
0
 10
-117.143
 20
-141.45
 11
-117.076
 21
-141.594
  0
LINE
  8
0
 10
-117.076
 20
-141.594
 11
-117.022
 21
-141.747
  0
LINE
  8
0
 10
-117.022
 20
-141.747
 11
-116.984
 21
-141.911
  0
LINE
  8
0
 10
-116.984
 20
-141.911
 11
-116.961
 21
-142.085
  0
LINE
  8
0
 10
-116.961
 20
-142.085
 11
-116.953
 21
-142.27
  0
LINE
  8
0
 10
-116.953
 20
-142.27
 11
-116.997
 21
-142.711
  0
LINE
  8
0
 10
-116.997
 20
-142.711
 11
-117.13
 21
-143.099
  0
LINE
  8
0
 10
-117.13
 20
-143.099
 11
-117.351
 21
-143.433
  0
LINE
  8
0
 10
-117.351
 20
-143.433
 11
-117.661
 21
-143.714
  0
LINE
  8
0
 10
-117.661
 20
-143.714
 11
-118.05
 21
-143.936
  0
LINE
  8
0
 10
-118.05
 20
-143.936
 11
-118.51
 21
-144.095
  0
LINE
  8
0
 10
-118.51
 20
-144.095
 11
-119.04
 21
-144.19
  0
LINE
  8
0
 10
-119.04
 20
-144.19
 11
-119.642
 21
-144.222
  0
LINE
  8
0
 10
-119.642
 20
-144.222
 11
-120.225
 21
-144.196
  0
LINE
  8
0
 10
-132.743
 20
-144.094
 11
-132.743
 21
-139.037
  0
LINE
  8
0
 10
-132.743
 20
-139.037
 11
-132.745
 21
-138.681
  0
LINE
  8
0
 10
-132.745
 20
-138.681
 11
-132.752
 21
-138.306
  0
LINE
  8
0
 10
-132.752
 20
-138.306
 11
-132.763
 21
-137.913
  0
LINE
  8
0
 10
-132.763
 20
-137.913
 11
-132.779
 21
-137.502
  0
LINE
  8
0
 10
-132.779
 20
-137.502
 11
-131.744
 21
-137.502
  0
LINE
  8
0
 10
-131.744
 20
-137.502
 11
-131.707
 21
-138.395
  0
LINE
  8
0
 10
-131.707
 20
-138.395
 11
-131.698
 21
-138.674
  0
LINE
  8
0
 10
-131.698
 20
-138.674
 11
-131.695
 21
-138.842
  0
LINE
  8
0
 10
-131.695
 20
-138.842
 11
-131.671
 21
-138.842
  0
LINE
  8
0
 10
-131.671
 20
-138.842
 11
-131.534
 21
-138.452
  0
LINE
  8
0
 10
-131.534
 20
-138.452
 11
-131.388
 21
-138.129
  0
LINE
  8
0
 10
-131.388
 20
-138.129
 11
-131.232
 21
-137.873
  0
LINE
  8
0
 10
-131.232
 20
-137.873
 11
-131.066
 21
-137.685
  0
LINE
  8
0
 10
-131.066
 20
-137.685
 11
-130.877
 21
-137.549
  0
LINE
  8
0
 10
-130.877
 20
-137.549
 11
-130.654
 21
-137.452
  0
LINE
  8
0
 10
-130.654
 20
-137.452
 11
-130.395
 21
-137.393
  0
LINE
  8
0
 10
-130.395
 20
-137.393
 11
-130.102
 21
-137.374
  0
LINE
  8
0
 10
-130.102
 20
-137.374
 11
-129.992
 21
-137.378
  0
LINE
  8
0
 10
-129.992
 20
-137.378
 11
-129.88
 21
-137.389
  0
LINE
  8
0
 10
-129.88
 20
-137.389
 11
-129.769
 21
-137.408
  0
LINE
  8
0
 10
-129.769
 20
-137.408
 11
-129.656
 21
-137.435
  0
LINE
  8
0
 10
-129.656
 20
-137.435
 11
-129.656
 21
-138.44
  0
LINE
  8
0
 10
-129.656
 20
-138.44
 11
-129.775
 21
-138.413
  0
LINE
  8
0
 10
-129.775
 20
-138.413
 11
-129.912
 21
-138.394
  0
LINE
  8
0
 10
-129.912
 20
-138.394
 11
-130.068
 21
-138.383
  0
LINE
  8
0
 10
-130.068
 20
-138.383
 11
-130.242
 21
-138.379
  0
LINE
  8
0
 10
-130.242
 20
-138.379
 11
-130.564
 21
-138.416
  0
LINE
  8
0
 10
-130.564
 20
-138.416
 11
-130.845
 21
-138.526
  0
LINE
  8
0
 10
-130.845
 20
-138.526
 11
-131.086
 21
-138.71
  0
LINE
  8
0
 10
-131.086
 20
-138.71
 11
-131.286
 21
-138.968
  0
LINE
  8
0
 10
-131.286
 20
-138.968
 11
-131.443
 21
-139.294
  0
LINE
  8
0
 10
-131.443
 20
-139.294
 11
-131.556
 21
-139.683
  0
LINE
  8
0
 10
-131.556
 20
-139.683
 11
-131.623
 21
-140.137
  0
LINE
  8
0
 10
-131.623
 20
-140.137
 11
-131.646
 21
-140.654
  0
LINE
  8
0
 10
-131.646
 20
-140.654
 11
-131.646
 21
-144.094
  0
LINE
  8
0
 10
-131.646
 20
-144.094
 11
-132.743
 21
-144.094
  0
LINE
  8
0
 10
-154.39
 20
-145.61
 11
-154.39
 21
-141.89
  0
LINE
  8
0
 10
-154.39
 20
-141.89
 11
-150.59
 21
-141.89
  0
LINE
  8
0
 10
-150.59
 20
-141.89
 11
-150.59
 21
-145.61
  0
LINE
  8
0
 10
-150.59
 20
-145.61
 11
-154.39
 21
-145.61
  0
LINE
  8
0
 10
286.64
 20
-149.215
 11
294.36
 21
-149.215
  0
LINE
  8
0
 10
294.36
 20
-149.215
 11
294.36
 21
-151.875
  0
LINE
  8
0
 10
294.36
 20
-151.875
 11
302.64
 21
-151.875
  0
LINE
  8
0
 10
302.64
 20
-151.875
 11
302.64
 21
-149.215
  0
LINE
  8
0
 10
302.64
 20
-149.215
 11
310.36
 21
-149.215
  0
LINE
  8
0
 10
310.36
 20
-149.215
 11
310.36
 21
-151.875
  0
LINE
  8
0
 10
310.36
 20
-151.875
 11
318.64
 21
-151.875
  0
LINE
  8
0
 10
318.64
 20
-151.875
 11
318.64
 21
-149.215
  0
LINE
  8
0
 10
318.64
 20
-149.215
 11
326.36
 21
-149.215
  0
LINE
  8
0
 10
326.36
 20
-149.215
 11
326.36
 21
-151.875
  0
LINE
  8
0
 10
326.36
 20
-151.875
 11
328.965
 21
-151.875
  0
LINE
  8
0
 10
328.965
 20
-151.875
 11
328.965
 21
-145.89
  0
LINE
  8
0
 10
328.965
 20
-145.89
 11
331.625
 21
-145.89
  0
LINE
  8
0
 10
331.625
 20
-145.89
 11
331.625
 21
-141.61
  0
LINE
  8
0
 10
331.625
 20
-141.61
 11
328.965
 21
-141.61
  0
LINE
  8
0
 10
328.965
 20
-141.61
 11
328.965
 21
-137.89
  0
LINE
  8
0
 10
328.965
 20
-137.89
 11
331.625
 21
-137.89
  0
LINE
  8
0
 10
331.625
 20
-137.89
 11
331.625
 21
-133.61
  0
LINE
  8
0
 10
331.625
 20
-133.61
 11
328.965
 21
-133.61
  0
LINE
  8
0
 10
328.965
 20
-133.61
 11
328.965
 21
-127.625
  0
LINE
  8
0
 10
328.965
 20
-127.625
 11
284.035
 21
-127.625
  0
LINE
  8
0
 10
284.035
 20
-127.625
 11
284.035
 21
-133.61
  0
LINE
  8
0
 10
284.035
 20
-133.61
 11
281.375
 21
-133.61
  0
LINE
  8
0
 10
281.375
 20
-133.61
 11
281.375
 21
-137.89
  0
LINE
  8
0
 10
281.375
 20
-137.89
 11
284.035
 21
-137.89
  0
LINE
  8
0
 10
284.035
 20
-137.89
 11
284.035
 21
-141.61
  0
LINE
  8
0
 10
284.035
 20
-141.61
 11
281.375
 21
-141.61
  0
LINE
  8
0
 10
281.375
 20
-141.61
 11
281.375
 21
-145.89
  0
LINE
  8
0
 10
281.375
 20
-145.89
 11
284.035
 21
-145.89
  0
LINE
  8
0
 10
284.035
 20
-145.89
 11
284.035
 21
-151.875
  0
LINE
  8
0
 10
284.035
 20
-151.875
 11
286.64
 21
-151.875
  0
LINE
  8
0
 10
286.64
 20
-151.875
 11
286.64
 21
-149.215
  0
LINE
  8
0
 10
-19.86
 20
-149.215
 11
-12.14
 21
-149.215
  0
LINE
  8
0
 10
-12.14
 20
-149.215
 11
-12.14
 21
-151.875
  0
LINE
  8
0
 10
-12.14
 20
-151.875
 11
-3.85999
 21
-151.875
  0
LINE
  8
0
 10
-3.85999
 20
-151.875
 11
-3.85999
 21
-149.215
  0
LINE
  8
0
 10
-3.85999
 20
-149.215
 11
3.85999
 21
-149.215
  0
LINE
  8
0
 10
3.85999
 20
-149.215
 11
3.85999
 21
-151.875
  0
LINE
  8
0
 10
3.85999
 20
-151.875
 11
12.14
 21
-151.875
  0
LINE
  8
0
 10
12.14
 20
-151.875
 11
12.14
 21
-149.215
  0
LINE
  8
0
 10
12.14
 20
-149.215
 11
19.86
 21
-149.215
  0
LINE
  8
0
 10
19.86
 20
-149.215
 11
19.86
 21
-151.875
  0
LINE
  8
0
 10
19.86
 20
-151.875
 11
22.465
 21
-151.875
  0
LINE
  8
0
 10
22.465
 20
-151.875
 11
22.465
 21
-145.89
  0
LINE
  8
0
 10
22.465
 20
-145.89
 11
25.125
 21
-145.89
  0
LINE
  8
0
 10
25.125
 20
-145.89
 11
25.125
 21
-141.61
  0
LINE
  8
0
 10
25.125
 20
-141.61
 11
22.465
 21
-141.61
  0
LINE
  8
0
 10
22.465
 20
-141.61
 11
22.465
 21
-137.89
  0
LINE
  8
0
 10
22.465
 20
-137.89
 11
25.125
 21
-137.89
  0
LINE
  8
0
 10
25.125
 20
-137.89
 11
25.125
 21
-133.61
  0
LINE
  8
0
 10
25.125
 20
-133.61
 11
22.465
 21
-133.61
  0
LINE
  8
0
 10
22.465
 20
-133.61
 11
22.465
 21
-127.625
  0
LINE
  8
0
 10
22.465
 20
-127.625
 11
-22.465
 21
-127.625
  0
LINE
  8
0
 10
-22.465
 20
-127.625
 11
-22.465
 21
-133.61
  0
LINE
  8
0
 10
-22.465
 20
-133.61
 11
-25.125
 21
-133.61
  0
LINE
  8
0
 10
-25.125
 20
-133.61
 11
-25.125
 21
-137.89
  0
LINE
  8
0
 10
-25.125
 20
-137.89
 11
-22.465
 21
-137.89
  0
LINE
  8
0
 10
-22.465
 20
-137.89
 11
-22.465
 21
-141.61
  0
LINE
  8
0
 10
-22.465
 20
-141.61
 11
-25.125
 21
-141.61
  0
LINE
  8
0
 10
-25.125
 20
-141.61
 11
-25.125
 21
-145.89
  0
LINE
  8
0
 10
-25.125
 20
-145.89
 11
-22.465
 21
-145.89
  0
LINE
  8
0
 10
-22.465
 20
-145.89
 11
-22.465
 21
-151.875
  0
LINE
  8
0
 10
-22.465
 20
-151.875
 11
-19.86
 21
-151.875
  0
LINE
  8
0
 10
-19.86
 20
-151.875
 11
-19.86
 21
-149.215
  0
LINE
  8
0
 10
-11.86
 20
-404.965
 11
-4.14
 21
-404.965
  0
LINE
  8
0
 10
-4.14
 20
-404.965
 11
-4.14
 21
-407.625
  0
LINE
  8
0
 10
-4.14
 20
-407.625
 11
4.13998
 21
-407.625
  0
LINE
  8
0
 10
4.13998
 20
-407.625
 11
4.13998
 21
-404.965
  0
LINE
  8
0
 10
4.13998
 20
-404.965
 11
11.86
 21
-404.965
  0
LINE
  8
0
 10
11.86
 20
-404.965
 11
11.86
 21
-407.625
  0
LINE
  8
0
 10
11.86
 20
-407.625
 11
20.14
 21
-407.625
  0
LINE
  8
0
 10
20.14
 20
-407.625
 11
20.14
 21
-404.965
  0
LINE
  8
0
 10
20.14
 20
-404.965
 11
22.465
 21
-404.965
  0
LINE
  8
0
 10
22.465
 20
-404.965
 11
22.465
 21
-385.14
  0
LINE
  8
0
 10
22.465
 20
-385.14
 11
25.125
 21
-385.14
  0
LINE
  8
0
 10
25.125
 20
-385.14
 11
25.125
 21
-342.86
  0
LINE
  8
0
 10
25.125
 20
-342.86
 11
22.465
 21
-342.86
  0
LINE
  8
0
 10
22.465
 20
-342.86
 11
22.465
 21
-301.14
  0
LINE
  8
0
 10
22.465
 20
-301.14
 11
25.125
 21
-301.14
  0
LINE
  8
0
 10
25.125
 20
-301.14
 11
25.125
 21
-281.14
  0
LINE
  8
0
 10
25.125
 20
-281.14
 11
20.14
 21
-281.14
  0
LINE
  8
0
 10
20.14
 20
-281.14
 11
20.14
 21
-277.34
  0
LINE
  8
0
 10
20.14
 20
-277.34
 11
25.125
 21
-277.34
  0
LINE
  8
0
 10
25.125
 20
-277.34
 11
25.125
 21
-258.86
  0
LINE
  8
0
 10
25.125
 20
-258.86
 11
22.465
 21
-258.86
  0
LINE
  8
0
 10
22.465
 20
-258.86
 11
22.465
 21
-217.14
  0
LINE
  8
0
 10
22.465
 20
-217.14
 11
25.125
 21
-217.14
  0
LINE
  8
0
 10
25.125
 20
-217.14
 11
25.125
 21
-174.86
  0
LINE
  8
0
 10
25.125
 20
-174.86
 11
22.465
 21
-174.86
  0
LINE
  8
0
 10
22.465
 20
-174.86
 11
22.465
 21
-155.035
  0
LINE
  8
0
 10
22.465
 20
-155.035
 11
20.14
 21
-155.035
  0
LINE
  8
0
 10
20.14
 20
-155.035
 11
20.14
 21
-152.375
  0
LINE
  8
0
 10
20.14
 20
-152.375
 11
11.86
 21
-152.375
  0
LINE
  8
0
 10
11.86
 20
-152.375
 11
11.86
 21
-155.035
  0
LINE
  8
0
 10
11.86
 20
-155.035
 11
4.14
 21
-155.035
  0
LINE
  8
0
 10
4.14
 20
-155.035
 11
4.14
 21
-152.375
  0
LINE
  8
0
 10
4.14
 20
-152.375
 11
-4.14
 21
-152.375
  0
LINE
  8
0
 10
-4.14
 20
-152.375
 11
-4.14
 21
-155.035
  0
LINE
  8
0
 10
-4.14
 20
-155.035
 11
-11.86
 21
-155.035
  0
LINE
  8
0
 10
-11.86
 20
-155.035
 11
-11.86
 21
-152.375
  0
LINE
  8
0
 10
-11.86
 20
-152.375
 11
-20.14
 21
-152.375
  0
LINE
  8
0
 10
-20.14
 20
-152.375
 11
-20.14
 21
-155.035
  0
LINE
  8
0
 10
-20.14
 20
-155.035
 11
-22.465
 21
-155.035
  0
LINE
  8
0
 10
-22.465
 20
-155.035
 11
-22.465
 21
-174.86
  0
LINE
  8
0
 10
-22.465
 20
-174.86
 11
-25.125
 21
-174.86
  0
LINE
  8
0
 10
-25.125
 20
-174.86
 11
-25.125
 21
-217.14
  0
LINE
  8
0
 10
-25.125
 20
-217.14
 11
-22.465
 21
-217.14
  0
LINE
  8
0
 10
-22.465
 20
-217.14
 11
-22.465
 21
-258.86
  0
LINE
  8
0
 10
-22.465
 20
-258.86
 11
-25.125
 21
-258.86
  0
LINE
  8
0
 10
-25.125
 20
-258.86
 11
-25.125
 21
-277.34
  0
LINE
  8
0
 10
-25.125
 20
-277.34
 11
-20.14
 21
-277.34
  0
LINE
  8
0
 10
-20.14
 20
-277.34
 11
-20.14
 21
-281.14
  0
LINE
  8
0
 10
-20.14
 20
-281.14
 11
-25.125
 21
-281.14
  0
LINE
  8
0
 10
-25.125
 20
-281.14
 11
-25.125
 21
-301.14
  0
LINE
  8
0
 10
-25.125
 20
-301.14
 11
-22.465
 21
-301.14
  0
LINE
  8
0
 10
-22.465
 20
-301.14
 11
-22.465
 21
-342.86
  0
LINE
  8
0
 10
-22.465
 20
-342.86
 11
-25.125
 21
-342.86
  0
LINE
  8
0
 10
-25.125
 20
-342.86
 11
-25.125
 21
-385.14
  0
LINE
  8
0
 10
-25.125
 20
-385.14
 11
-22.465
 21
-385.14
  0
LINE
  8
0
 10
-22.465
 20
-385.14
 11
-22.465
 21
-404.965
  0
LINE
  8
0
 10
-22.465
 20
-404.965
 11
-20.14
 21
-404.965
  0
LINE
  8
0
 10
-20.14
 20
-404.965
 11
-20.14
 21
-407.625
  0
LINE
  8
0
 10
-20.14
 20
-407.625
 11
-11.86
 21
-407.625
  0
LINE
  8
0
 10
-11.86
 20
-407.625
 11
-11.86
 21
-404.965
  0
LINE
  8
0
 10
-11.86
 20
-281.14
 11
-11.86
 21
-277.34
  0
LINE
  8
0
 10
-11.86
 20
-277.34
 11
-4.14
 21
-277.34
  0
LINE
  8
0
 10
-4.14
 20
-277.34
 11
-4.14
 21
-281.14
  0
LINE
  8
0
 10
-4.14
 20
-281.14
 11
-11.86
 21
-281.14
  0
LINE
  8
0
 10
4.13998
 20
-281.14
 11
4.13998
 21
-277.34
  0
LINE
  8
0
 10
4.13998
 20
-277.34
 11
11.86
 21
-277.34
  0
LINE
  8
0
 10
11.86
 20
-277.34
 11
11.86
 21
-281.14
  0
LINE
  8
0
 10
11.86
 20
-281.14
 11
4.13998
 21
-281.14
  0
LINE
  8
0
 10
286.64
 20
-264.715
 11
294.36
 21
-264.715
  0
LINE
  8
0
 10
294.36
 20
-264.715
 11
294.36
 21
-267.375
  0
LINE
  8
0
 10
294.36
 20
-267.375
 11
302.64
 21
-267.375
  0
LINE
  8
0
 10
302.64
 20
-267.375
 11
302.64
 21
-264.715
  0
LINE
  8
0
 10
302.64
 20
-264.715
 11
310.36
 21
-264.715
  0
LINE
  8
0
 10
310.36
 20
-264.715
 11
310.36
 21
-267.375
  0
LINE
  8
0
 10
310.36
 20
-267.375
 11
318.64
 21
-267.375
  0
LINE
  8
0
 10
318.64
 20
-267.375
 11
318.64
 21
-264.715
  0
LINE
  8
0
 10
318.64
 20
-264.715
 11
326.36
 21
-264.715
  0
LINE
  8
0
 10
326.36
 20
-264.715
 11
326.36
 21
-267.375
  0
LINE
  8
0
 10
326.36
 20
-267.375
 11
328.965
 21
-267.375
  0
LINE
  8
0
 10
328.965
 20
-267.375
 11
328.965
 21
-261.39
  0
LINE
  8
0
 10
328.965
 20
-261.39
 11
331.625
 21
-261.39
  0
LINE
  8
0
 10
331.625
 20
-261.39
 11
331.625
 21
-257.11
  0
LINE
  8
0
 10
331.625
 20
-257.11
 11
328.965
 21
-257.11
  0
LINE
  8
0
 10
328.965
 20
-257.11
 11
328.965
 21
-253.39
  0
LINE
  8
0
 10
328.965
 20
-253.39
 11
331.625
 21
-253.39
  0
LINE
  8
0
 10
331.625
 20
-253.39
 11
331.625
 21
-249.11
  0
LINE
  8
0
 10
331.625
 20
-249.11
 11
328.965
 21
-249.11
  0
LINE
  8
0
 10
328.965
 20
-249.11
 11
328.965
 21
-243.125
  0
LINE
  8
0
 10
328.965
 20
-243.125
 11
284.035
 21
-243.125
  0
LINE
  8
0
 10
284.035
 20
-243.125
 11
284.035
 21
-249.11
  0
LINE
  8
0
 10
284.035
 20
-249.11
 11
281.375
 21
-249.11
  0
LINE
  8
0
 10
281.375
 20
-249.11
 11
281.375
 21
-253.39
  0
LINE
  8
0
 10
281.375
 20
-253.39
 11
284.035
 21
-253.39
  0
LINE
  8
0
 10
284.035
 20
-253.39
 11
284.035
 21
-257.11
  0
LINE
  8
0
 10
284.035
 20
-257.11
 11
281.375
 21
-257.11
  0
LINE
  8
0
 10
281.375
 20
-257.11
 11
281.375
 21
-261.39
  0
LINE
  8
0
 10
281.375
 20
-261.39
 11
284.035
 21
-261.39
  0
LINE
  8
0
 10
284.035
 20
-261.39
 11
284.035
 21
-267.375
  0
LINE
  8
0
 10
284.035
 20
-267.375
 11
286.64
 21
-267.375
  0
LINE
  8
0
 10
286.64
 20
-267.375
 11
286.64
 21
-264.715
  0
ENDSEC
  0
SECTION
  2
OBJECTS
  0
DICTIONARY
  0
ENDSEC
  0
EOF
