  0
SECTION
  2
BLOCKS
  0
ENDSEC
  0
SECTION
  2
ENTITIES
  0
LINE
  8
0
 10
-117.61
 20
-63.215
 11
-102.89
 21
-63.215
  0
LINE
  8
0
 10
-102.89
 20
-63.215
 11
-102.89
 21
-65.875
  0
LINE
  8
0
 10
-102.89
 20
-65.875
 11
-87.61
 21
-65.875
  0
LINE
  8
0
 10
-87.61
 20
-65.875
 11
-87.61
 21
-63.215
  0
LINE
  8
0
 10
-87.61
 20
-63.215
 11
-72.89
 21
-63.215
  0
LINE
  8
0
 10
-72.89
 20
-63.215
 11
-72.89
 21
-65.875
  0
LINE
  8
0
 10
-72.89
 20
-65.875
 11
-57.61
 21
-65.875
  0
LINE
  8
0
 10
-57.61
 20
-65.875
 11
-57.61
 21
-63.215
  0
LINE
  8
0
 10
-57.61
 20
-63.215
 11
-42.89
 21
-63.215
  0
LINE
  8
0
 10
-42.89
 20
-63.215
 11
-42.89
 21
-65.875
  0
LINE
  8
0
 10
-42.89
 20
-65.875
 11
-35.285
 21
-65.875
  0
LINE
  8
0
 10
-35.285
 20
-65.875
 11
-35.285
 21
-63.215
  0
LINE
  8
0
 10
-35.285
 20
-63.215
 11
-32.625
 21
-63.215
  0
LINE
  8
0
 10
-32.625
 20
-63.215
 11
-32.625
 21
-61.11
  0
LINE
  8
0
 10
-32.625
 20
-61.11
 11
-35.285
 21
-61.11
  0
LINE
  8
0
 10
-35.285
 20
-61.11
 11
-35.285
 21
-58.39
  0
LINE
  8
0
 10
-35.285
 20
-58.39
 11
-32.625
 21
-58.39
  0
LINE
  8
0
 10
-32.625
 20
-58.39
 11
-32.625
 21
-55.11
  0
LINE
  8
0
 10
-32.625
 20
-55.11
 11
-35.285
 21
-55.11
  0
LINE
  8
0
 10
-35.285
 20
-55.11
 11
-35.285
 21
-52.39
  0
LINE
  8
0
 10
-35.285
 20
-52.39
 11
-32.625
 21
-52.39
  0
LINE
  8
0
 10
-32.625
 20
-52.39
 11
-32.625
 21
-50.285
  0
LINE
  8
0
 10
-32.625
 20
-50.285
 11
-35.285
 21
-50.285
  0
LINE
  8
0
 10
-35.285
 20
-50.285
 11
-35.285
 21
-47.625
  0
LINE
  8
0
 10
-35.285
 20
-47.625
 11
-125.215
 21
-47.625
  0
LINE
  8
0
 10
-125.215
 20
-47.625
 11
-125.215
 21
-50.285
  0
LINE
  8
0
 10
-125.215
 20
-50.285
 11
-127.875
 21
-50.285
  0
LINE
  8
0
 10
-127.875
 20
-50.285
 11
-127.875
 21
-52.39
  0
LINE
  8
0
 10
-127.875
 20
-52.39
 11
-125.215
 21
-52.39
  0
LINE
  8
0
 10
-125.215
 20
-52.39
 11
-125.215
 21
-55.11
  0
LINE
  8
0
 10
-125.215
 20
-55.11
 11
-127.875
 21
-55.11
  0
LINE
  8
0
 10
-127.875
 20
-55.11
 11
-127.875
 21
-58.39
  0
LINE
  8
0
 10
-127.875
 20
-58.39
 11
-125.215
 21
-58.39
  0
LINE
  8
0
 10
-125.215
 20
-58.39
 11
-125.215
 21
-61.11
  0
LINE
  8
0
 10
-125.215
 20
-61.11
 11
-127.875
 21
-61.11
  0
LINE
  8
0
 10
-127.875
 20
-61.11
 11
-127.875
 21
-63.215
  0
LINE
  8
0
 10
-127.875
 20
-63.215
 11
-125.215
 21
-63.215
  0
LINE
  8
0
 10
-125.215
 20
-63.215
 11
-125.215
 21
-65.875
  0
LINE
  8
0
 10
-125.215
 20
-65.875
 11
-117.61
 21
-65.875
  0
LINE
  8
0
 10
-117.61
 20
-65.875
 11
-117.61
 21
-63.215
  0
LINE
  8
0
 10
42.89
 20
-63.215
 11
57.61
 21
-63.215
  0
LINE
  8
0
 10
57.61
 20
-63.215
 11
57.61
 21
-65.875
  0
LINE
  8
0
 10
57.61
 20
-65.875
 11
72.89
 21
-65.875
  0
LINE
  8
0
 10
72.89
 20
-65.875
 11
72.89
 21
-63.215
  0
LINE
  8
0
 10
72.89
 20
-63.215
 11
87.61
 21
-63.215
  0
LINE
  8
0
 10
87.61
 20
-63.215
 11
87.61
 21
-65.875
  0
LINE
  8
0
 10
87.61
 20
-65.875
 11
102.89
 21
-65.875
  0
LINE
  8
0
 10
102.89
 20
-65.875
 11
102.89
 21
-63.215
  0
LINE
  8
0
 10
102.89
 20
-63.215
 11
117.61
 21
-63.215
  0
LINE
  8
0
 10
117.61
 20
-63.215
 11
117.61
 21
-65.875
  0
LINE
  8
0
 10
117.61
 20
-65.875
 11
125.215
 21
-65.875
  0
LINE
  8
0
 10
125.215
 20
-65.875
 11
125.215
 21
-63.215
  0
LINE
  8
0
 10
125.215
 20
-63.215
 11
127.875
 21
-63.215
  0
LINE
  8
0
 10
127.875
 20
-63.215
 11
127.875
 21
-61.11
  0
LINE
  8
0
 10
127.875
 20
-61.11
 11
125.215
 21
-61.11
  0
LINE
  8
0
 10
125.215
 20
-61.11
 11
125.215
 21
-58.39
  0
LINE
  8
0
 10
125.215
 20
-58.39
 11
127.875
 21
-58.39
  0
LINE
  8
0
 10
127.875
 20
-58.39
 11
127.875
 21
-55.11
  0
LINE
  8
0
 10
127.875
 20
-55.11
 11
125.215
 21
-55.11
  0
LINE
  8
0
 10
125.215
 20
-55.11
 11
125.215
 21
-52.39
  0
LINE
  8
0
 10
125.215
 20
-52.39
 11
127.875
 21
-52.39
  0
LINE
  8
0
 10
127.875
 20
-52.39
 11
127.875
 21
-50.285
  0
LINE
  8
0
 10
127.875
 20
-50.285
 11
125.215
 21
-50.285
  0
LINE
  8
0
 10
125.215
 20
-50.285
 11
125.215
 21
-47.625
  0
LINE
  8
0
 10
125.215
 20
-47.625
 11
35.285
 21
-47.625
  0
LINE
  8
0
 10
35.285
 20
-47.625
 11
35.285
 21
-50.285
  0
LINE
  8
0
 10
35.285
 20
-50.285
 11
32.625
 21
-50.285
  0
LINE
  8
0
 10
32.625
 20
-50.285
 11
32.625
 21
-52.39
  0
LINE
  8
0
 10
32.625
 20
-52.39
 11
35.285
 21
-52.39
  0
LINE
  8
0
 10
35.285
 20
-52.39
 11
35.285
 21
-55.11
  0
LINE
  8
0
 10
35.285
 20
-55.11
 11
32.625
 21
-55.11
  0
LINE
  8
0
 10
32.625
 20
-55.11
 11
32.625
 21
-58.39
  0
LINE
  8
0
 10
32.625
 20
-58.39
 11
35.285
 21
-58.39
  0
LINE
  8
0
 10
35.285
 20
-58.39
 11
35.285
 21
-61.11
  0
LINE
  8
0
 10
35.285
 20
-61.11
 11
32.625
 21
-61.11
  0
LINE
  8
0
 10
32.625
 20
-61.11
 11
32.625
 21
-63.215
  0
LINE
  8
0
 10
32.625
 20
-63.215
 11
35.285
 21
-63.215
  0
LINE
  8
0
 10
35.285
 20
-63.215
 11
35.285
 21
-65.875
  0
LINE
  8
0
 10
35.285
 20
-65.875
 11
42.89
 21
-65.875
  0
LINE
  8
0
 10
42.89
 20
-65.875
 11
42.89
 21
-63.215
  0
LINE
  8
0
 10
-24.86
 20
-63.215
 11
-15.14
 21
-63.215
  0
LINE
  8
0
 10
-15.14
 20
-63.215
 11
-15.14
 21
-65.875
  0
LINE
  8
0
 10
-15.14
 20
-65.875
 11
-4.85999
 21
-65.875
  0
LINE
  8
0
 10
-4.85999
 20
-65.875
 11
-4.85999
 21
-63.215
  0
LINE
  8
0
 10
-4.85999
 20
-63.215
 11
4.85999
 21
-63.215
  0
LINE
  8
0
 10
4.85999
 20
-63.215
 11
4.85999
 21
-65.875
  0
LINE
  8
0
 10
4.85999
 20
-65.875
 11
15.14
 21
-65.875
  0
LINE
  8
0
 10
15.14
 20
-65.875
 11
15.14
 21
-63.215
  0
LINE
  8
0
 10
15.14
 20
-63.215
 11
24.86
 21
-63.215
  0
LINE
  8
0
 10
24.86
 20
-63.215
 11
24.86
 21
-65.875
  0
LINE
  8
0
 10
24.86
 20
-65.875
 11
29.465
 21
-65.875
  0
LINE
  8
0
 10
29.465
 20
-65.875
 11
29.465
 21
-61.39
  0
LINE
  8
0
 10
29.465
 20
-61.39
 11
32.125
 21
-61.39
  0
LINE
  8
0
 10
32.125
 20
-61.39
 11
32.125
 21
-58.11
  0
LINE
  8
0
 10
32.125
 20
-58.11
 11
29.465
 21
-58.11
  0
LINE
  8
0
 10
29.465
 20
-58.11
 11
29.465
 21
-55.39
  0
LINE
  8
0
 10
29.465
 20
-55.39
 11
32.125
 21
-55.39
  0
LINE
  8
0
 10
32.125
 20
-55.39
 11
32.125
 21
-52.11
  0
LINE
  8
0
 10
32.125
 20
-52.11
 11
29.465
 21
-52.11
  0
LINE
  8
0
 10
29.465
 20
-52.11
 11
29.465
 21
-47.625
  0
LINE
  8
0
 10
29.465
 20
-47.625
 11
-29.465
 21
-47.625
  0
LINE
  8
0
 10
-29.465
 20
-47.625
 11
-29.465
 21
-52.11
  0
LINE
  8
0
 10
-29.465
 20
-52.11
 11
-32.125
 21
-52.11
  0
LINE
  8
0
 10
-32.125
 20
-52.11
 11
-32.125
 21
-55.39
  0
LINE
  8
0
 10
-32.125
 20
-55.39
 11
-29.465
 21
-55.39
  0
LINE
  8
0
 10
-29.465
 20
-55.39
 11
-29.465
 21
-58.11
  0
LINE
  8
0
 10
-29.465
 20
-58.11
 11
-32.125
 21
-58.11
  0
LINE
  8
0
 10
-32.125
 20
-58.11
 11
-32.125
 21
-61.39
  0
LINE
  8
0
 10
-32.125
 20
-61.39
 11
-29.465
 21
-61.39
  0
LINE
  8
0
 10
-29.465
 20
-61.39
 11
-29.465
 21
-65.875
  0
LINE
  8
0
 10
-29.465
 20
-65.875
 11
-24.86
 21
-65.875
  0
LINE
  8
0
 10
-24.86
 20
-65.875
 11
-24.86
 21
-63.215
  0
LINE
  8
0
 10
-2.56015
 20
-53.1178
 11
-2.56015
 21
-52.0698
  0
LINE
  8
0
 10
-2.56015
 20
-52.0698
 11
-1.46315
 21
-52.0698
  0
LINE
  8
0
 10
-1.46315
 20
-52.0698
 11
-1.46315
 21
-53.1178
  0
LINE
  8
0
 10
-1.46315
 20
-53.1178
 11
-2.56015
 21
-53.1178
  0
LINE
  8
0
 10
-11.1659
 20
-61.0938
 11
-11.1659
 21
-52.5178
  0
LINE
  8
0
 10
-11.1659
 20
-52.5178
 11
-8.32291
 21
-52.5178
  0
LINE
  8
0
 10
-8.32291
 20
-52.5178
 11
-7.29285
 21
-52.5861
  0
LINE
  8
0
 10
-7.29285
 20
-52.5861
 11
-6.38766
 21
-52.791
  0
LINE
  8
0
 10
-6.38766
 20
-52.791
 11
-5.60735
 21
-53.1326
  0
LINE
  8
0
 10
-5.60735
 20
-53.1326
 11
-4.9519
 21
-53.6108
  0
LINE
  8
0
 10
-4.9519
 20
-53.6108
 11
-4.4326
 21
-54.2144
  0
LINE
  8
0
 10
-4.4326
 20
-54.2144
 11
-4.06166
 21
-54.9335
  0
LINE
  8
0
 10
-4.06166
 20
-54.9335
 11
-3.8391
 21
-55.7679
  0
LINE
  8
0
 10
-3.8391
 20
-55.7679
 11
-3.76491
 21
-56.7178
  0
LINE
  8
0
 10
-3.76491
 20
-56.7178
 11
-3.79735
 21
-57.3605
  0
LINE
  8
0
 10
-3.79735
 20
-57.3605
 11
-3.89465
 21
-57.9617
  0
LINE
  8
0
 10
-3.89465
 20
-57.9617
 11
-4.05685
 21
-58.5215
  0
LINE
  8
0
 10
-4.05685
 20
-58.5215
 11
-4.28391
 21
-59.0397
  0
LINE
  8
0
 10
-4.28391
 20
-59.0397
 11
-4.57004
 21
-59.5082
  0
LINE
  8
0
 10
-4.57004
 20
-59.5082
 11
-4.91042
 21
-59.9185
  0
LINE
  8
0
 10
-4.91042
 20
-59.9185
 11
-5.30504
 21
-60.2707
  0
LINE
  8
0
 10
-5.30504
 20
-60.2707
 11
-5.75391
 21
-60.5647
  0
LINE
  8
0
 10
-5.75391
 20
-60.5647
 11
-6.24823
 21
-60.7962
  0
LINE
  8
0
 10
-6.24823
 20
-60.7962
 11
-6.77916
 21
-60.9615
  0
LINE
  8
0
 10
-6.77916
 20
-60.9615
 11
-7.34673
 21
-61.0607
  0
LINE
  8
0
 10
-7.34673
 20
-61.0607
 11
-7.95091
 21
-61.0938
  0
LINE
  8
0
 10
-7.95091
 20
-61.0938
 11
-11.1659
 21
-61.0938
  0
LINE
  8
0
 10
-7.62622
 20
-60.1359
 11
-7.19617
 21
-60.0582
  0
LINE
  8
0
 10
-7.19617
 20
-60.0582
 11
-6.79472
 21
-59.9289
  0
LINE
  8
0
 10
-6.79472
 20
-59.9289
 11
-6.42191
 21
-59.7477
  0
LINE
  8
0
 10
-6.42191
 20
-59.7477
 11
-6.08379
 21
-59.518
  0
LINE
  8
0
 10
-6.08379
 20
-59.518
 11
-5.78741
 21
-59.2427
  0
LINE
  8
0
 10
-5.78741
 20
-59.2427
 11
-5.53279
 21
-58.922
  0
LINE
  8
0
 10
-5.53279
 20
-58.922
 11
-5.31992
 21
-58.5557
  0
LINE
  8
0
 10
-5.31992
 20
-58.5557
 11
-5.15147
 21
-58.1487
  0
LINE
  8
0
 10
-5.15147
 20
-58.1487
 11
-5.03116
 21
-57.7067
  0
LINE
  8
0
 10
-5.03116
 20
-57.7067
 11
-4.95897
 21
-57.2297
  0
LINE
  8
0
 10
-4.95897
 20
-57.2297
 11
-4.93491
 21
-56.7178
  0
LINE
  8
0
 10
-4.93491
 20
-56.7178
 11
-4.98965
 21
-55.9677
  0
LINE
  8
0
 10
-4.98965
 20
-55.9677
 11
-5.15392
 21
-55.3125
  0
LINE
  8
0
 10
-5.15392
 20
-55.3125
 11
-5.42766
 21
-54.7522
  0
LINE
  8
0
 10
-5.42766
 20
-54.7522
 11
-5.81091
 21
-54.2868
  0
LINE
  8
0
 10
-5.81091
 20
-54.2868
 11
-6.29797
 21
-53.9206
  0
LINE
  8
0
 10
-6.29797
 20
-53.9206
 11
-6.88316
 21
-53.659
  0
LINE
  8
0
 10
-6.88316
 20
-53.659
 11
-7.56647
 21
-53.5021
  0
LINE
  8
0
 10
-7.56647
 20
-53.5021
 11
-8.34792
 21
-53.4498
  0
LINE
  8
0
 10
-8.34792
 20
-53.4498
 11
-10.0019
 21
-53.4498
  0
LINE
  8
0
 10
-10.0019
 20
-53.4498
 11
-10.0019
 21
-60.1617
  0
LINE
  8
0
 10
-10.0019
 20
-60.1617
 11
-8.08492
 21
-60.1617
  0
LINE
  8
0
 10
-8.08492
 20
-60.1617
 11
-7.62622
 21
-60.1359
  0
LINE
  8
0
 10
8.23553
 20
-61.1672
 11
7.63734
 21
-61.0035
  0
LINE
  8
0
 10
7.63734
 20
-61.0035
 11
7.12602
 21
-60.7307
  0
LINE
  8
0
 10
7.12602
 20
-60.7307
 11
6.70158
 21
-60.3487
  0
LINE
  8
0
 10
6.70158
 20
-60.3487
 11
6.36865
 21
-59.8592
  0
LINE
  8
0
 10
6.36865
 20
-59.8592
 11
6.13084
 21
-59.2637
  0
LINE
  8
0
 10
6.13084
 20
-59.2637
 11
5.98816
 21
-58.5622
  0
LINE
  8
0
 10
5.98816
 20
-58.5622
 11
5.9406
 21
-57.7547
  0
LINE
  8
0
 10
5.9406
 20
-57.7547
 11
5.98816
 21
-56.9849
  0
LINE
  8
0
 10
5.98816
 20
-56.9849
 11
6.13084
 21
-56.3103
  0
LINE
  8
0
 10
6.13084
 20
-56.3103
 11
6.36865
 21
-55.7309
  0
LINE
  8
0
 10
6.36865
 20
-55.7309
 11
6.70158
 21
-55.2468
  0
LINE
  8
0
 10
6.70158
 20
-55.2468
 11
7.12334
 21
-54.8648
  0
LINE
  8
0
 10
7.12334
 20
-54.8648
 11
7.62659
 21
-54.592
  0
LINE
  8
0
 10
7.62659
 20
-54.592
 11
8.21133
 21
-54.4283
  0
LINE
  8
0
 10
8.21133
 20
-54.4283
 11
8.87759
 21
-54.3738
  0
LINE
  8
0
 10
8.87759
 20
-54.3738
 11
10.1441
 21
-54.5931
  0
LINE
  8
0
 10
10.1441
 20
-54.5931
 11
11.0488
 21
-55.2513
  0
LINE
  8
0
 10
11.0488
 20
-55.2513
 11
11.5917
 21
-56.3481
  0
LINE
  8
0
 10
11.5917
 20
-56.3481
 11
11.7726
 21
-57.8837
  0
LINE
  8
0
 10
11.7726
 20
-57.8837
 11
11.7726
 21
-58.0307
  0
LINE
  8
0
 10
11.7726
 20
-58.0307
 11
7.09259
 21
-58.0307
  0
LINE
  8
0
 10
7.09259
 20
-58.0307
 11
7.12172
 21
-58.5659
  0
LINE
  8
0
 10
7.12172
 20
-58.5659
 11
7.20909
 21
-59.0362
  0
LINE
  8
0
 10
7.20909
 20
-59.0362
 11
7.35472
 21
-59.4419
  0
LINE
  8
0
 10
7.35472
 20
-59.4419
 11
7.55859
 21
-59.7827
  0
LINE
  8
0
 10
7.55859
 20
-59.7827
 11
7.81847
 21
-60.0522
  0
LINE
  8
0
 10
7.81847
 20
-60.0522
 11
8.1321
 21
-60.2447
  0
LINE
  8
0
 10
8.1321
 20
-60.2447
 11
8.49947
 21
-60.3602
  0
LINE
  8
0
 10
8.49947
 20
-60.3602
 11
8.92059
 21
-60.3987
  0
LINE
  8
0
 10
8.92059
 20
-60.3987
 11
9.25703
 21
-60.3805
  0
LINE
  8
0
 10
9.25703
 20
-60.3805
 11
9.55833
 21
-60.3257
  0
LINE
  8
0
 10
9.55833
 20
-60.3257
 11
9.82452
 21
-60.2345
  0
LINE
  8
0
 10
9.82452
 20
-60.2345
 11
10.0556
 21
-60.1067
  0
LINE
  8
0
 10
10.0556
 20
-60.1067
 11
10.2518
 21
-59.9506
  0
LINE
  8
0
 10
10.2518
 20
-59.9506
 11
10.4136
 21
-59.775
  0
LINE
  8
0
 10
10.4136
 20
-59.775
 11
10.5408
 21
-59.58
  0
LINE
  8
0
 10
10.5408
 20
-59.58
 11
10.6336
 21
-59.3657
  0
LINE
  8
0
 10
10.6336
 20
-59.3657
 11
11.5966
 21
-59.6427
  0
LINE
  8
0
 10
11.5966
 20
-59.6427
 11
11.2085
 21
-60.3336
  0
LINE
  8
0
 10
11.2085
 20
-60.3336
 11
10.6331
 21
-60.827
  0
LINE
  8
0
 10
10.6331
 20
-60.827
 11
9.87047
 21
-61.1231
  0
LINE
  8
0
 10
9.87047
 20
-61.1231
 11
8.92059
 21
-61.2217
  0
LINE
  8
0
 10
8.92059
 20
-61.2217
 11
8.23553
 21
-61.1672
  0
LINE
  8
0
 10
10.5725
 20
-56.7021
 11
10.4623
 21
-56.2853
  0
LINE
  8
0
 10
10.4623
 20
-56.2853
 11
10.309
 21
-55.9391
  0
LINE
  8
0
 10
10.309
 20
-55.9391
 11
10.1126
 21
-55.6638
  0
LINE
  8
0
 10
10.1126
 20
-55.6638
 11
9.87115
 21
-55.4538
  0
LINE
  8
0
 10
9.87115
 20
-55.4538
 11
9.58183
 21
-55.3038
  0
LINE
  8
0
 10
9.58183
 20
-55.3038
 11
9.24466
 21
-55.2138
  0
LINE
  8
0
 10
9.24466
 20
-55.2138
 11
8.85959
 21
-55.1838
  0
LINE
  8
0
 10
8.85959
 20
-55.1838
 11
8.48372
 21
-55.2172
  0
LINE
  8
0
 10
8.48372
 20
-55.2172
 11
8.14909
 21
-55.3175
  0
LINE
  8
0
 10
8.14909
 20
-55.3175
 11
7.85571
 21
-55.4847
  0
LINE
  8
0
 10
7.85571
 20
-55.4847
 11
7.60359
 21
-55.7188
  0
LINE
  8
0
 10
7.60359
 20
-55.7188
 11
7.39877
 21
-56.0113
  0
LINE
  8
0
 10
7.39877
 20
-56.0113
 11
7.24734
 21
-56.354
  0
LINE
  8
0
 10
7.24734
 20
-56.354
 11
7.14928
 21
-56.7468
  0
LINE
  8
0
 10
7.14928
 20
-56.7468
 11
7.10458
 21
-57.1897
  0
LINE
  8
0
 10
7.10458
 20
-57.1897
 11
10.6396
 21
-57.1897
  0
LINE
  8
0
 10
10.6396
 20
-57.1897
 11
10.5725
 21
-56.7021
  0
LINE
  8
0
 10
2.05197
 20
-61.167
 11
1.48035
 21
-61.0027
  0
LINE
  8
0
 10
1.48035
 20
-61.0027
 11
0.990967
 21
-60.729
  0
LINE
  8
0
 10
0.990967
 20
-60.729
 11
0.583847
 21
-60.3457
  0
LINE
  8
0
 10
0.583847
 20
-60.3457
 11
0.263596
 21
-59.8576
  0
LINE
  8
0
 10
0.263596
 20
-59.8576
 11
0.0348358
 21
-59.2692
  0
LINE
  8
0
 10
0.0348358
 20
-59.2692
 11
-0.102402
 21
-58.5806
  0
LINE
  8
0
 10
-0.102402
 20
-58.5806
 11
-0.148148
 21
-57.7917
  0
LINE
  8
0
 10
-0.148148
 20
-57.7917
 11
-0.102203
 21
-57.0081
  0
LINE
  8
0
 10
-0.102203
 20
-57.0081
 11
0.0355835
 21
-56.3233
  0
LINE
  8
0
 10
0.0355835
 20
-56.3233
 11
0.265274
 21
-55.7371
  0
LINE
  8
0
 10
0.265274
 20
-55.7371
 11
0.586838
 21
-55.2498
  0
LINE
  8
0
 10
0.586838
 20
-55.2498
 11
0.994156
 21
-54.8665
  0
LINE
  8
0
 10
0.994156
 20
-54.8665
 11
1.48109
 21
-54.5928
  0
LINE
  8
0
 10
1.48109
 20
-54.5928
 11
2.04765
 21
-54.4285
  0
LINE
  8
0
 10
2.04765
 20
-54.4285
 11
2.69385
 21
-54.3738
  0
LINE
  8
0
 10
2.69385
 20
-54.3738
 11
3.18028
 21
-54.4064
  0
LINE
  8
0
 10
3.18028
 20
-54.4064
 11
3.6236
 21
-54.5045
  0
LINE
  8
0
 10
3.6236
 20
-54.5045
 11
4.02377
 21
-54.6679
  0
LINE
  8
0
 10
4.02377
 20
-54.6679
 11
4.38084
 21
-54.8968
  0
LINE
  8
0
 10
4.38084
 20
-54.8968
 11
4.68509
 21
-55.1825
  0
LINE
  8
0
 10
4.68509
 20
-55.1825
 11
4.92683
 21
-55.5178
  0
LINE
  8
0
 10
4.92683
 20
-55.5178
 11
5.10609
 21
-55.9025
  0
LINE
  8
0
 10
5.10609
 20
-55.9025
 11
5.22284
 21
-56.3368
  0
LINE
  8
0
 10
5.22284
 20
-56.3368
 11
4.09584
 21
-56.4218
  0
LINE
  8
0
 10
4.09584
 20
-56.4218
 11
4.03627
 21
-56.1628
  0
LINE
  8
0
 10
4.03627
 20
-56.1628
 11
3.94359
 21
-55.932
  0
LINE
  8
0
 10
3.94359
 20
-55.932
 11
3.81778
 21
-55.7293
  0
LINE
  8
0
 10
3.81778
 20
-55.7293
 11
3.65884
 21
-55.5548
  0
LINE
  8
0
 10
3.65884
 20
-55.5548
 11
3.46541
 21
-55.4139
  0
LINE
  8
0
 10
3.46541
 20
-55.4139
 11
3.23509
 21
-55.3133
  0
LINE
  8
0
 10
3.23509
 20
-55.3133
 11
2.9679
 21
-55.2529
  0
LINE
  8
0
 10
2.9679
 20
-55.2529
 11
2.66383
 21
-55.2328
  0
LINE
  8
0
 10
2.66383
 20
-55.2328
 11
2.25465
 21
-55.269
  0
LINE
  8
0
 10
2.25465
 20
-55.269
 11
1.9061
 21
-55.3778
  0
LINE
  8
0
 10
1.9061
 20
-55.3778
 11
1.61815
 21
-55.559
  0
LINE
  8
0
 10
1.61815
 20
-55.559
 11
1.39084
 21
-55.8128
  0
LINE
  8
0
 10
1.39084
 20
-55.8128
 11
1.2189
 21
-56.1525
  0
LINE
  8
0
 10
1.2189
 20
-56.1525
 11
1.09608
 21
-56.5915
  0
LINE
  8
0
 10
1.09608
 20
-56.5915
 11
1.0224
 21
-57.1299
  0
LINE
  8
0
 10
1.0224
 20
-57.1299
 11
0.997833
 21
-57.7677
  0
LINE
  8
0
 10
0.997833
 20
-57.7677
 11
1.02397
 21
-58.3845
  0
LINE
  8
0
 10
1.02397
 20
-58.3845
 11
1.10234
 21
-58.9157
  0
LINE
  8
0
 10
1.10234
 20
-58.9157
 11
1.23297
 21
-59.3615
  0
LINE
  8
0
 10
1.23297
 20
-59.3615
 11
1.41583
 21
-59.7217
  0
LINE
  8
0
 10
1.41583
 20
-59.7217
 11
1.65134
 21
-59.9996
  0
LINE
  8
0
 10
1.65134
 20
-59.9996
 11
1.93983
 21
-60.198
  0
LINE
  8
0
 10
1.93983
 20
-60.198
 11
2.28134
 21
-60.3171
  0
LINE
  8
0
 10
2.28134
 20
-60.3171
 11
2.67584
 21
-60.3567
  0
LINE
  8
0
 10
2.67584
 20
-60.3567
 11
2.95871
 21
-60.3367
  0
LINE
  8
0
 10
2.95871
 20
-60.3367
 11
3.21735
 21
-60.2765
  0
LINE
  8
0
 10
3.21735
 20
-60.2765
 11
3.45172
 21
-60.1762
  0
LINE
  8
0
 10
3.45172
 20
-60.1762
 11
3.66183
 21
-60.0357
  0
LINE
  8
0
 10
3.66183
 20
-60.0357
 11
3.84128
 21
-59.8531
  0
LINE
  8
0
 10
3.84128
 20
-59.8531
 11
3.98259
 21
-59.6272
  0
LINE
  8
0
 10
3.98259
 20
-59.6272
 11
4.08578
 21
-59.3581
  0
LINE
  8
0
 10
4.08578
 20
-59.3581
 11
4.15083
 21
-59.0457
  0
LINE
  8
0
 10
4.15083
 20
-59.0457
 11
5.25984
 21
-59.1197
  0
LINE
  8
0
 10
5.25984
 20
-59.1197
 11
5.16052
 21
-59.5751
  0
LINE
  8
0
 10
5.16052
 20
-59.5751
 11
4.99159
 21
-59.982
  0
LINE
  8
0
 10
4.99159
 20
-59.982
 11
4.75302
 21
-60.3406
  0
LINE
  8
0
 10
4.75302
 20
-60.3406
 11
4.44484
 21
-60.6507
  0
LINE
  8
0
 10
4.44484
 20
-60.6507
 11
4.0789
 21
-60.9006
  0
LINE
  8
0
 10
4.0789
 20
-60.9006
 11
3.66708
 21
-61.079
  0
LINE
  8
0
 10
3.66708
 20
-61.079
 11
3.2094
 21
-61.1861
  0
LINE
  8
0
 10
3.2094
 20
-61.1861
 11
2.70584
 21
-61.2217
  0
LINE
  8
0
 10
2.70584
 20
-61.2217
 11
2.05197
 21
-61.167
  0
LINE
  8
0
 10
-2.56015
 20
-61.0938
 11
-2.56015
 21
-54.5018
  0
LINE
  8
0
 10
-2.56015
 20
-54.5018
 11
-1.46315
 21
-54.5018
  0
LINE
  8
0
 10
-1.46315
 20
-54.5018
 11
-1.46315
 21
-61.0938
  0
LINE
  8
0
 10
-1.46315
 20
-61.0938
 11
-2.56015
 21
-61.0938
  0
LINE
  8
0
 10
135.64
 20
-63.215
 11
145.36
 21
-63.215
  0
LINE
  8
0
 10
145.36
 20
-63.215
 11
145.36
 21
-65.875
  0
LINE
  8
0
 10
145.36
 20
-65.875
 11
155.64
 21
-65.875
  0
LINE
  8
0
 10
155.64
 20
-65.875
 11
155.64
 21
-63.215
  0
LINE
  8
0
 10
155.64
 20
-63.215
 11
165.36
 21
-63.215
  0
LINE
  8
0
 10
165.36
 20
-63.215
 11
165.36
 21
-65.875
  0
LINE
  8
0
 10
165.36
 20
-65.875
 11
175.64
 21
-65.875
  0
LINE
  8
0
 10
175.64
 20
-65.875
 11
175.64
 21
-63.215
  0
LINE
  8
0
 10
175.64
 20
-63.215
 11
185.36
 21
-63.215
  0
LINE
  8
0
 10
185.36
 20
-63.215
 11
185.36
 21
-65.875
  0
LINE
  8
0
 10
185.36
 20
-65.875
 11
189.965
 21
-65.875
  0
LINE
  8
0
 10
189.965
 20
-65.875
 11
189.965
 21
-61.39
  0
LINE
  8
0
 10
189.965
 20
-61.39
 11
192.625
 21
-61.39
  0
LINE
  8
0
 10
192.625
 20
-61.39
 11
192.625
 21
-58.11
  0
LINE
  8
0
 10
192.625
 20
-58.11
 11
189.965
 21
-58.11
  0
LINE
  8
0
 10
189.965
 20
-58.11
 11
189.965
 21
-55.39
  0
LINE
  8
0
 10
189.965
 20
-55.39
 11
192.625
 21
-55.39
  0
LINE
  8
0
 10
192.625
 20
-55.39
 11
192.625
 21
-52.11
  0
LINE
  8
0
 10
192.625
 20
-52.11
 11
189.965
 21
-52.11
  0
LINE
  8
0
 10
189.965
 20
-52.11
 11
189.965
 21
-47.625
  0
LINE
  8
0
 10
189.965
 20
-47.625
 11
131.035
 21
-47.625
  0
LINE
  8
0
 10
131.035
 20
-47.625
 11
131.035
 21
-52.11
  0
LINE
  8
0
 10
131.035
 20
-52.11
 11
128.375
 21
-52.11
  0
LINE
  8
0
 10
128.375
 20
-52.11
 11
128.375
 21
-55.39
  0
LINE
  8
0
 10
128.375
 20
-55.39
 11
131.035
 21
-55.39
  0
LINE
  8
0
 10
131.035
 20
-55.39
 11
131.035
 21
-58.11
  0
LINE
  8
0
 10
131.035
 20
-58.11
 11
128.375
 21
-58.11
  0
LINE
  8
0
 10
128.375
 20
-58.11
 11
128.375
 21
-61.39
  0
LINE
  8
0
 10
128.375
 20
-61.39
 11
131.035
 21
-61.39
  0
LINE
  8
0
 10
131.035
 20
-61.39
 11
131.035
 21
-65.875
  0
LINE
  8
0
 10
131.035
 20
-65.875
 11
135.64
 21
-65.875
  0
LINE
  8
0
 10
135.64
 20
-65.875
 11
135.64
 21
-63.215
  0
LINE
  8
0
 10
-14.86
 20
-158.965
 11
-5.14
 21
-158.965
  0
LINE
  8
0
 10
-5.14
 20
-158.965
 11
-5.14
 21
-161.625
  0
LINE
  8
0
 10
-5.14
 20
-161.625
 11
5.13998
 21
-161.625
  0
LINE
  8
0
 10
5.13998
 20
-161.625
 11
5.13998
 21
-158.965
  0
LINE
  8
0
 10
5.13998
 20
-158.965
 11
14.86
 21
-158.965
  0
LINE
  8
0
 10
14.86
 20
-158.965
 11
14.86
 21
-161.625
  0
LINE
  8
0
 10
14.86
 20
-161.625
 11
25.14
 21
-161.625
  0
LINE
  8
0
 10
25.14
 20
-161.625
 11
25.14
 21
-158.965
  0
LINE
  8
0
 10
25.14
 20
-158.965
 11
29.465
 21
-158.965
  0
LINE
  8
0
 10
29.465
 20
-158.965
 11
29.465
 21
-151.64
  0
LINE
  8
0
 10
29.465
 20
-151.64
 11
32.125
 21
-151.64
  0
LINE
  8
0
 10
32.125
 20
-151.64
 11
32.125
 21
-136.36
  0
LINE
  8
0
 10
32.125
 20
-136.36
 11
29.465
 21
-136.36
  0
LINE
  8
0
 10
29.465
 20
-136.36
 11
29.465
 21
-121.64
  0
LINE
  8
0
 10
29.465
 20
-121.64
 11
32.125
 21
-121.64
  0
LINE
  8
0
 10
32.125
 20
-121.64
 11
32.125
 21
-106.36
  0
LINE
  8
0
 10
32.125
 20
-106.36
 11
29.465
 21
-106.36
  0
LINE
  8
0
 10
29.465
 20
-106.36
 11
29.465
 21
-91.64
  0
LINE
  8
0
 10
29.465
 20
-91.64
 11
32.125
 21
-91.64
  0
LINE
  8
0
 10
32.125
 20
-91.64
 11
32.125
 21
-76.36
  0
LINE
  8
0
 10
32.125
 20
-76.36
 11
29.465
 21
-76.36
  0
LINE
  8
0
 10
29.465
 20
-76.36
 11
29.465
 21
-69.035
  0
LINE
  8
0
 10
29.465
 20
-69.035
 11
25.14
 21
-69.035
  0
LINE
  8
0
 10
25.14
 20
-69.035
 11
25.14
 21
-66.375
  0
LINE
  8
0
 10
25.14
 20
-66.375
 11
14.86
 21
-66.375
  0
LINE
  8
0
 10
14.86
 20
-66.375
 11
14.86
 21
-69.035
  0
LINE
  8
0
 10
14.86
 20
-69.035
 11
5.14
 21
-69.035
  0
LINE
  8
0
 10
5.14
 20
-69.035
 11
5.14
 21
-66.375
  0
LINE
  8
0
 10
5.14
 20
-66.375
 11
-5.14
 21
-66.375
  0
LINE
  8
0
 10
-5.14
 20
-66.375
 11
-5.14
 21
-69.035
  0
LINE
  8
0
 10
-5.14
 20
-69.035
 11
-14.86
 21
-69.035
  0
LINE
  8
0
 10
-14.86
 20
-69.035
 11
-14.86
 21
-66.375
  0
LINE
  8
0
 10
-14.86
 20
-66.375
 11
-25.14
 21
-66.375
  0
LINE
  8
0
 10
-25.14
 20
-66.375
 11
-25.14
 21
-69.035
  0
LINE
  8
0
 10
-25.14
 20
-69.035
 11
-29.465
 21
-69.035
  0
LINE
  8
0
 10
-29.465
 20
-69.035
 11
-29.465
 21
-76.36
  0
LINE
  8
0
 10
-29.465
 20
-76.36
 11
-32.125
 21
-76.36
  0
LINE
  8
0
 10
-32.125
 20
-76.36
 11
-32.125
 21
-91.64
  0
LINE
  8
0
 10
-32.125
 20
-91.64
 11
-29.465
 21
-91.64
  0
LINE
  8
0
 10
-29.465
 20
-91.64
 11
-29.465
 21
-106.36
  0
LINE
  8
0
 10
-29.465
 20
-106.36
 11
-32.125
 21
-106.36
  0
LINE
  8
0
 10
-32.125
 20
-106.36
 11
-32.125
 21
-121.64
  0
LINE
  8
0
 10
-32.125
 20
-121.64
 11
-29.465
 21
-121.64
  0
LINE
  8
0
 10
-29.465
 20
-121.64
 11
-29.465
 21
-136.36
  0
LINE
  8
0
 10
-29.465
 20
-136.36
 11
-32.125
 21
-136.36
  0
LINE
  8
0
 10
-32.125
 20
-136.36
 11
-32.125
 21
-151.64
  0
LINE
  8
0
 10
-32.125
 20
-151.64
 11
-29.465
 21
-151.64
  0
LINE
  8
0
 10
-29.465
 20
-151.64
 11
-29.465
 21
-158.965
  0
LINE
  8
0
 10
-29.465
 20
-158.965
 11
-25.14
 21
-158.965
  0
LINE
  8
0
 10
-25.14
 20
-158.965
 11
-25.14
 21
-161.625
  0
LINE
  8
0
 10
-25.14
 20
-161.625
 11
-14.86
 21
-161.625
  0
LINE
  8
0
 10
-14.86
 20
-161.625
 11
-14.86
 21
-158.965
  0
ENDSEC
  0
SECTION
  2
OBJECTS
  0
DICTIONARY
  0
ENDSEC
  0
EOF
