  0
SECTION
  2
BLOCKS
  0
ENDSEC
  0
SECTION
  2
ENTITIES
  0
LINE
  8
0
 10
136.15
 20
-66.6
 11
145.85
 21
-66.6
  0
LINE
  8
0
 10
145.85
 20
-66.6
 11
145.85
 21
-69.25
  0
LINE
  8
0
 10
145.85
 20
-69.25
 11
156.15
 21
-69.25
  0
LINE
  8
0
 10
156.15
 20
-69.25
 11
156.15
 21
-66.6
  0
LINE
  8
0
 10
156.15
 20
-66.6
 11
165.85
 21
-66.6
  0
LINE
  8
0
 10
165.85
 20
-66.6
 11
165.85
 21
-69.25
  0
LINE
  8
0
 10
165.85
 20
-69.25
 11
176.15
 21
-69.25
  0
LINE
  8
0
 10
176.15
 20
-69.25
 11
176.15
 21
-66.6
  0
LINE
  8
0
 10
176.15
 20
-66.6
 11
185.85
 21
-66.6
  0
LINE
  8
0
 10
185.85
 20
-66.6
 11
185.85
 21
-69.25
  0
LINE
  8
0
 10
185.85
 20
-69.25
 11
190.6
 21
-69.25
  0
LINE
  8
0
 10
190.6
 20
-69.25
 11
190.6
 21
-66.6
  0
LINE
  8
0
 10
190.6
 20
-66.6
 11
193.25
 21
-66.6
  0
LINE
  8
0
 10
193.25
 20
-66.6
 11
193.25
 21
-65.85
  0
LINE
  8
0
 10
193.25
 20
-65.85
 11
190.6
 21
-65.85
  0
LINE
  8
0
 10
190.6
 20
-65.85
 11
190.6
 21
-63.15
  0
LINE
  8
0
 10
190.6
 20
-63.15
 11
193.25
 21
-63.15
  0
LINE
  8
0
 10
193.25
 20
-63.15
 11
193.25
 21
-59.85
  0
LINE
  8
0
 10
193.25
 20
-59.85
 11
190.6
 21
-59.85
  0
LINE
  8
0
 10
190.6
 20
-59.85
 11
190.6
 21
-57.15
  0
LINE
  8
0
 10
190.6
 20
-57.15
 11
193.25
 21
-57.15
  0
LINE
  8
0
 10
193.25
 20
-57.15
 11
193.25
 21
-53.85
  0
LINE
  8
0
 10
193.25
 20
-53.85
 11
190.6
 21
-53.85
  0
LINE
  8
0
 10
190.6
 20
-53.85
 11
190.6
 21
-51.15
  0
LINE
  8
0
 10
190.6
 20
-51.15
 11
193.25
 21
-51.15
  0
LINE
  8
0
 10
193.25
 20
-51.15
 11
193.25
 21
-50.4
  0
LINE
  8
0
 10
193.25
 20
-50.4
 11
190.6
 21
-50.4
  0
LINE
  8
0
 10
190.6
 20
-50.4
 11
190.6
 21
-47.75
  0
LINE
  8
0
 10
190.6
 20
-47.75
 11
131.4
 21
-47.75
  0
LINE
  8
0
 10
131.4
 20
-47.75
 11
131.4
 21
-50.4
  0
LINE
  8
0
 10
131.4
 20
-50.4
 11
128.75
 21
-50.4
  0
LINE
  8
0
 10
128.75
 20
-50.4
 11
128.75
 21
-51.15
  0
LINE
  8
0
 10
128.75
 20
-51.15
 11
131.4
 21
-51.15
  0
LINE
  8
0
 10
131.4
 20
-51.15
 11
131.4
 21
-53.85
  0
LINE
  8
0
 10
131.4
 20
-53.85
 11
128.75
 21
-53.85
  0
LINE
  8
0
 10
128.75
 20
-53.85
 11
128.75
 21
-57.15
  0
LINE
  8
0
 10
128.75
 20
-57.15
 11
131.4
 21
-57.15
  0
LINE
  8
0
 10
131.4
 20
-57.15
 11
131.4
 21
-59.85
  0
LINE
  8
0
 10
131.4
 20
-59.85
 11
128.75
 21
-59.85
  0
LINE
  8
0
 10
128.75
 20
-59.85
 11
128.75
 21
-63.15
  0
LINE
  8
0
 10
128.75
 20
-63.15
 11
131.4
 21
-63.15
  0
LINE
  8
0
 10
131.4
 20
-63.15
 11
131.4
 21
-65.85
  0
LINE
  8
0
 10
131.4
 20
-65.85
 11
128.75
 21
-65.85
  0
LINE
  8
0
 10
128.75
 20
-65.85
 11
128.75
 21
-66.6
  0
LINE
  8
0
 10
128.75
 20
-66.6
 11
131.4
 21
-66.6
  0
LINE
  8
0
 10
131.4
 20
-66.6
 11
131.4
 21
-69.25
  0
LINE
  8
0
 10
131.4
 20
-69.25
 11
136.15
 21
-69.25
  0
LINE
  8
0
 10
136.15
 20
-69.25
 11
136.15
 21
-66.6
  0
LINE
  8
0
 10
-117.85
 20
-66.6
 11
-103.15
 21
-66.6
  0
LINE
  8
0
 10
-103.15
 20
-66.6
 11
-103.15
 21
-69.25
  0
LINE
  8
0
 10
-103.15
 20
-69.25
 11
-87.85
 21
-69.25
  0
LINE
  8
0
 10
-87.85
 20
-69.25
 11
-87.85
 21
-66.6
  0
LINE
  8
0
 10
-87.85
 20
-66.6
 11
-73.15
 21
-66.6
  0
LINE
  8
0
 10
-73.15
 20
-66.6
 11
-73.15
 21
-69.25
  0
LINE
  8
0
 10
-73.15
 20
-69.25
 11
-57.85
 21
-69.25
  0
LINE
  8
0
 10
-57.85
 20
-69.25
 11
-57.85
 21
-66.6
  0
LINE
  8
0
 10
-57.85
 20
-66.6
 11
-43.15
 21
-66.6
  0
LINE
  8
0
 10
-43.15
 20
-66.6
 11
-43.15
 21
-69.25
  0
LINE
  8
0
 10
-43.15
 20
-69.25
 11
-35.4
 21
-69.25
  0
LINE
  8
0
 10
-35.4
 20
-69.25
 11
-35.4
 21
-66.15
  0
LINE
  8
0
 10
-35.4
 20
-66.15
 11
-32.75
 21
-66.15
  0
LINE
  8
0
 10
-32.75
 20
-66.15
 11
-32.75
 21
-62.85
  0
LINE
  8
0
 10
-32.75
 20
-62.85
 11
-35.4
 21
-62.85
  0
LINE
  8
0
 10
-35.4
 20
-62.85
 11
-35.4
 21
-60.15
  0
LINE
  8
0
 10
-35.4
 20
-60.15
 11
-32.75
 21
-60.15
  0
LINE
  8
0
 10
-32.75
 20
-60.15
 11
-32.75
 21
-56.85
  0
LINE
  8
0
 10
-32.75
 20
-56.85
 11
-35.4
 21
-56.85
  0
LINE
  8
0
 10
-35.4
 20
-56.85
 11
-35.4
 21
-54.15
  0
LINE
  8
0
 10
-35.4
 20
-54.15
 11
-32.75
 21
-54.15
  0
LINE
  8
0
 10
-32.75
 20
-54.15
 11
-32.75
 21
-50.85
  0
LINE
  8
0
 10
-32.75
 20
-50.85
 11
-35.4
 21
-50.85
  0
LINE
  8
0
 10
-35.4
 20
-50.85
 11
-35.4
 21
-47.75
  0
LINE
  8
0
 10
-35.4
 20
-47.75
 11
-125.6
 21
-47.75
  0
LINE
  8
0
 10
-125.6
 20
-47.75
 11
-125.6
 21
-50.85
  0
LINE
  8
0
 10
-125.6
 20
-50.85
 11
-128.25
 21
-50.85
  0
LINE
  8
0
 10
-128.25
 20
-50.85
 11
-128.25
 21
-54.15
  0
LINE
  8
0
 10
-128.25
 20
-54.15
 11
-125.6
 21
-54.15
  0
LINE
  8
0
 10
-125.6
 20
-54.15
 11
-125.6
 21
-56.85
  0
LINE
  8
0
 10
-125.6
 20
-56.85
 11
-128.25
 21
-56.85
  0
LINE
  8
0
 10
-128.25
 20
-56.85
 11
-128.25
 21
-60.15
  0
LINE
  8
0
 10
-128.25
 20
-60.15
 11
-125.6
 21
-60.15
  0
LINE
  8
0
 10
-125.6
 20
-60.15
 11
-125.6
 21
-62.85
  0
LINE
  8
0
 10
-125.6
 20
-62.85
 11
-128.25
 21
-62.85
  0
LINE
  8
0
 10
-128.25
 20
-62.85
 11
-128.25
 21
-66.15
  0
LINE
  8
0
 10
-128.25
 20
-66.15
 11
-125.6
 21
-66.15
  0
LINE
  8
0
 10
-125.6
 20
-66.15
 11
-125.6
 21
-69.25
  0
LINE
  8
0
 10
-125.6
 20
-69.25
 11
-117.85
 21
-69.25
  0
LINE
  8
0
 10
-117.85
 20
-69.25
 11
-117.85
 21
-66.6
  0
LINE
  8
0
 10
-24.85
 20
-66.6
 11
-15.15
 21
-66.6
  0
LINE
  8
0
 10
-15.15
 20
-66.6
 11
-15.15
 21
-69.25
  0
LINE
  8
0
 10
-15.15
 20
-69.25
 11
-4.84999
 21
-69.25
  0
LINE
  8
0
 10
-4.84999
 20
-69.25
 11
-4.84999
 21
-66.6
  0
LINE
  8
0
 10
-4.84999
 20
-66.6
 11
4.84999
 21
-66.6
  0
LINE
  8
0
 10
4.84999
 20
-66.6
 11
4.84999
 21
-69.25
  0
LINE
  8
0
 10
4.84999
 20
-69.25
 11
15.15
 21
-69.25
  0
LINE
  8
0
 10
15.15
 20
-69.25
 11
15.15
 21
-66.6
  0
LINE
  8
0
 10
15.15
 20
-66.6
 11
24.85
 21
-66.6
  0
LINE
  8
0
 10
24.85
 20
-66.6
 11
24.85
 21
-69.25
  0
LINE
  8
0
 10
24.85
 20
-69.25
 11
29.6
 21
-69.25
  0
LINE
  8
0
 10
29.6
 20
-69.25
 11
29.6
 21
-66.6
  0
LINE
  8
0
 10
29.6
 20
-66.6
 11
32.25
 21
-66.6
  0
LINE
  8
0
 10
32.25
 20
-66.6
 11
32.25
 21
-65.85
  0
LINE
  8
0
 10
32.25
 20
-65.85
 11
29.6
 21
-65.85
  0
LINE
  8
0
 10
29.6
 20
-65.85
 11
29.6
 21
-63.15
  0
LINE
  8
0
 10
29.6
 20
-63.15
 11
32.25
 21
-63.15
  0
LINE
  8
0
 10
32.25
 20
-63.15
 11
32.25
 21
-59.85
  0
LINE
  8
0
 10
32.25
 20
-59.85
 11
29.6
 21
-59.85
  0
LINE
  8
0
 10
29.6
 20
-59.85
 11
29.6
 21
-57.15
  0
LINE
  8
0
 10
29.6
 20
-57.15
 11
32.25
 21
-57.15
  0
LINE
  8
0
 10
32.25
 20
-57.15
 11
32.25
 21
-53.85
  0
LINE
  8
0
 10
32.25
 20
-53.85
 11
29.6
 21
-53.85
  0
LINE
  8
0
 10
29.6
 20
-53.85
 11
29.6
 21
-51.15
  0
LINE
  8
0
 10
29.6
 20
-51.15
 11
32.25
 21
-51.15
  0
LINE
  8
0
 10
32.25
 20
-51.15
 11
32.25
 21
-50.4
  0
LINE
  8
0
 10
32.25
 20
-50.4
 11
29.6
 21
-50.4
  0
LINE
  8
0
 10
29.6
 20
-50.4
 11
29.6
 21
-47.75
  0
LINE
  8
0
 10
29.6
 20
-47.75
 11
-29.6
 21
-47.75
  0
LINE
  8
0
 10
-29.6
 20
-47.75
 11
-29.6
 21
-50.4
  0
LINE
  8
0
 10
-29.6
 20
-50.4
 11
-32.25
 21
-50.4
  0
LINE
  8
0
 10
-32.25
 20
-50.4
 11
-32.25
 21
-51.15
  0
LINE
  8
0
 10
-32.25
 20
-51.15
 11
-29.6
 21
-51.15
  0
LINE
  8
0
 10
-29.6
 20
-51.15
 11
-29.6
 21
-53.85
  0
LINE
  8
0
 10
-29.6
 20
-53.85
 11
-32.25
 21
-53.85
  0
LINE
  8
0
 10
-32.25
 20
-53.85
 11
-32.25
 21
-57.15
  0
LINE
  8
0
 10
-32.25
 20
-57.15
 11
-29.6
 21
-57.15
  0
LINE
  8
0
 10
-29.6
 20
-57.15
 11
-29.6
 21
-59.85
  0
LINE
  8
0
 10
-29.6
 20
-59.85
 11
-32.25
 21
-59.85
  0
LINE
  8
0
 10
-32.25
 20
-59.85
 11
-32.25
 21
-63.15
  0
LINE
  8
0
 10
-32.25
 20
-63.15
 11
-29.6
 21
-63.15
  0
LINE
  8
0
 10
-29.6
 20
-63.15
 11
-29.6
 21
-65.85
  0
LINE
  8
0
 10
-29.6
 20
-65.85
 11
-32.25
 21
-65.85
  0
LINE
  8
0
 10
-32.25
 20
-65.85
 11
-32.25
 21
-66.6
  0
LINE
  8
0
 10
-32.25
 20
-66.6
 11
-29.6
 21
-66.6
  0
LINE
  8
0
 10
-29.6
 20
-66.6
 11
-29.6
 21
-69.25
  0
LINE
  8
0
 10
-29.6
 20
-69.25
 11
-24.85
 21
-69.25
  0
LINE
  8
0
 10
-24.85
 20
-69.25
 11
-24.85
 21
-66.6
  0
LINE
  8
0
 10
5.73792
 20
-62.9191
 11
5.23979
 21
-62.7612
  0
LINE
  8
0
 10
5.23979
 20
-62.7612
 11
4.82391
 21
-62.4981
  0
LINE
  8
0
 10
4.82391
 20
-62.4981
 11
4.4903
 21
-62.1297
  0
LINE
  8
0
 10
4.4903
 20
-62.1297
 11
4.23436
 21
-61.6542
  0
LINE
  8
0
 10
4.23436
 20
-61.6542
 11
4.05154
 21
-61.0705
  0
LINE
  8
0
 10
4.05154
 20
-61.0705
 11
3.94185
 21
-60.3787
  0
LINE
  8
0
 10
3.94185
 20
-60.3787
 11
3.90529
 21
-59.5787
  0
LINE
  8
0
 10
3.90529
 20
-59.5787
 11
4.05611
 21
-58.0672
  0
LINE
  8
0
 10
4.05611
 20
-58.0672
 11
4.50854
 21
-56.9875
  0
LINE
  8
0
 10
4.50854
 20
-56.9875
 11
5.2626
 21
-56.3397
  0
LINE
  8
0
 10
5.2626
 20
-56.3397
 11
6.3183
 21
-56.1238
  0
LINE
  8
0
 10
6.3183
 20
-56.1238
 11
6.67574
 21
-56.1409
  0
LINE
  8
0
 10
6.67574
 20
-56.1409
 11
7.00204
 21
-56.1925
  0
LINE
  8
0
 10
7.00204
 20
-56.1925
 11
7.29723
 21
-56.2784
  0
LINE
  8
0
 10
7.29723
 20
-56.2784
 11
7.56129
 21
-56.3988
  0
LINE
  8
0
 10
7.56129
 20
-56.3988
 11
7.79767
 21
-56.556
  0
LINE
  8
0
 10
7.79767
 20
-56.556
 11
8.0098
 21
-56.7538
  0
LINE
  8
0
 10
8.0098
 20
-56.7538
 11
8.19766
 21
-56.992
  0
LINE
  8
0
 10
8.19766
 20
-56.992
 11
8.3613
 21
-57.2708
  0
LINE
  8
0
 10
8.3613
 20
-57.2708
 11
8.37329
 21
-57.2708
  0
LINE
  8
0
 10
8.37329
 20
-57.2708
 11
8.3613
 21
-56.5378
  0
LINE
  8
0
 10
8.3613
 20
-56.5378
 11
8.3613
 21
-53.8198
  0
LINE
  8
0
 10
8.3613
 20
-53.8198
 11
9.4583
 21
-53.8198
  0
LINE
  8
0
 10
9.4583
 20
-53.8198
 11
9.4583
 21
-61.4877
  0
LINE
  8
0
 10
9.4583
 20
-61.4877
 11
9.46054
 21
-61.958
  0
LINE
  8
0
 10
9.46054
 20
-61.958
 11
9.4673
 21
-62.3407
  0
LINE
  8
0
 10
9.4673
 20
-62.3407
 11
9.47855
 21
-62.636
  0
LINE
  8
0
 10
9.47855
 20
-62.636
 11
9.49429
 21
-62.8438
  0
LINE
  8
0
 10
9.49429
 20
-62.8438
 11
8.44629
 21
-62.8438
  0
LINE
  8
0
 10
8.44629
 20
-62.8438
 11
8.43704
 21
-62.7793
  0
LINE
  8
0
 10
8.43704
 20
-62.7793
 11
8.42729
 21
-62.683
  0
LINE
  8
0
 10
8.42729
 20
-62.683
 11
8.4063
 21
-62.3947
  0
LINE
  8
0
 10
8.4063
 20
-62.3947
 11
8.39711
 21
-62.2248
  0
LINE
  8
0
 10
8.39711
 20
-62.2248
 11
8.39055
 21
-62.067
  0
LINE
  8
0
 10
8.39055
 20
-62.067
 11
8.38661
 21
-61.9213
  0
LINE
  8
0
 10
8.38661
 20
-61.9213
 11
8.3853
 21
-61.7877
  0
LINE
  8
0
 10
8.3853
 20
-61.7877
 11
8.3613
 21
-61.7877
  0
LINE
  8
0
 10
8.3613
 20
-61.7877
 11
8.19748
 21
-62.0827
  0
LINE
  8
0
 10
8.19748
 20
-62.0827
 11
8.00905
 21
-62.3327
  0
LINE
  8
0
 10
8.00905
 20
-62.3327
 11
7.79597
 21
-62.5377
  0
LINE
  8
0
 10
7.79597
 20
-62.5377
 11
7.55829
 21
-62.6977
  0
LINE
  8
0
 10
7.55829
 20
-62.6977
 11
7.29329
 21
-62.8176
  0
LINE
  8
0
 10
7.29329
 20
-62.8176
 11
6.99829
 21
-62.9032
  0
LINE
  8
0
 10
6.99829
 20
-62.9032
 11
6.67329
 21
-62.9546
  0
LINE
  8
0
 10
6.67329
 20
-62.9546
 11
6.3183
 21
-62.9717
  0
LINE
  8
0
 10
6.3183
 20
-62.9717
 11
5.73792
 21
-62.9191
  0
LINE
  8
0
 10
7.03148
 20
-62.0843
 11
7.39905
 21
-61.963
  0
LINE
  8
0
 10
7.39905
 20
-61.963
 11
7.70299
 21
-61.7608
  0
LINE
  8
0
 10
7.70299
 20
-61.7608
 11
7.9433
 21
-61.4777
  0
LINE
  8
0
 10
7.9433
 20
-61.4777
 11
8.12617
 21
-61.1091
  0
LINE
  8
0
 10
8.12617
 20
-61.1091
 11
8.25679
 21
-60.6512
  0
LINE
  8
0
 10
8.25679
 20
-60.6512
 11
8.33517
 21
-60.1041
  0
LINE
  8
0
 10
8.33517
 20
-60.1041
 11
8.3613
 21
-59.4677
  0
LINE
  8
0
 10
8.3613
 20
-59.4677
 11
8.33517
 21
-58.8552
  0
LINE
  8
0
 10
8.33517
 20
-58.8552
 11
8.25679
 21
-58.3305
  0
LINE
  8
0
 10
8.25679
 20
-58.3305
 11
8.12617
 21
-57.8937
  0
LINE
  8
0
 10
8.12617
 20
-57.8937
 11
7.9433
 21
-57.5448
  0
LINE
  8
0
 10
7.9433
 20
-57.5448
 11
7.70374
 21
-57.2775
  0
LINE
  8
0
 10
7.70374
 20
-57.2775
 11
7.40204
 21
-57.0865
  0
LINE
  8
0
 10
7.40204
 20
-57.0865
 11
7.03822
 21
-56.9719
  0
LINE
  8
0
 10
7.03822
 20
-56.9719
 11
6.61229
 21
-56.9338
  0
LINE
  8
0
 10
6.61229
 20
-56.9338
 11
6.22935
 21
-56.9721
  0
LINE
  8
0
 10
6.22935
 20
-56.9721
 11
5.90355
 21
-57.0873
  0
LINE
  8
0
 10
5.90355
 20
-57.0873
 11
5.63486
 21
-57.2791
  0
LINE
  8
0
 10
5.63486
 20
-57.2791
 11
5.42329
 21
-57.5478
  0
LINE
  8
0
 10
5.42329
 20
-57.5478
 11
5.26317
 21
-57.9026
  0
LINE
  8
0
 10
5.26317
 20
-57.9026
 11
5.14879
 21
-58.3533
  0
LINE
  8
0
 10
5.14879
 20
-58.3533
 11
5.08017
 21
-58.8996
  0
LINE
  8
0
 10
5.08017
 20
-58.8996
 11
5.0573
 21
-59.5417
  0
LINE
  8
0
 10
5.0573
 20
-59.5417
 11
5.07999
 21
-60.1856
  0
LINE
  8
0
 10
5.07999
 20
-60.1856
 11
5.14804
 21
-60.731
  0
LINE
  8
0
 10
5.14804
 20
-60.731
 11
5.26147
 21
-61.1781
  0
LINE
  8
0
 10
5.26147
 20
-61.1781
 11
5.42029
 21
-61.5267
  0
LINE
  8
0
 10
5.42029
 20
-61.5267
 11
5.63017
 21
-61.7884
  0
LINE
  8
0
 10
5.63017
 20
-61.7884
 11
5.89679
 21
-61.9752
  0
LINE
  8
0
 10
5.89679
 20
-61.9752
 11
6.22017
 21
-62.0874
  0
LINE
  8
0
 10
6.22017
 20
-62.0874
 11
6.6003
 21
-62.1247
  0
LINE
  8
0
 10
6.6003
 20
-62.1247
 11
7.03148
 21
-62.0843
  0
LINE
  8
0
 10
-12.057
 20
-62.938
 11
-12.6409
 21
-62.837
  0
LINE
  8
0
 10
-12.6409
 20
-62.837
 11
-13.181
 21
-62.6685
  0
LINE
  8
0
 10
-13.181
 20
-62.6685
 11
-13.6774
 21
-62.4327
  0
LINE
  8
0
 10
-13.6774
 20
-62.4327
 11
-14.1236
 21
-62.1343
  0
LINE
  8
0
 10
-14.1236
 20
-62.1343
 11
-14.5134
 21
-61.778
  0
LINE
  8
0
 10
-14.5134
 20
-61.778
 11
-14.8466
 21
-61.3638
  0
LINE
  8
0
 10
-14.8466
 20
-61.3638
 11
-15.1234
 21
-60.8917
  0
LINE
  8
0
 10
-15.1234
 20
-60.8917
 11
-15.3408
 21
-60.3677
  0
LINE
  8
0
 10
-15.3408
 20
-60.3677
 11
-15.4961
 21
-59.7975
  0
LINE
  8
0
 10
-15.4961
 20
-59.7975
 11
-15.5893
 21
-59.1812
  0
LINE
  8
0
 10
-15.5893
 20
-59.1812
 11
-15.6204
 21
-58.5187
  0
LINE
  8
0
 10
-15.6204
 20
-58.5187
 11
-15.551
 21
-57.5483
  0
LINE
  8
0
 10
-15.551
 20
-57.5483
 11
-15.3429
 21
-56.689
  0
LINE
  8
0
 10
-15.3429
 20
-56.689
 11
-14.996
 21
-55.9408
  0
LINE
  8
0
 10
-14.996
 20
-55.9408
 11
-14.5104
 21
-55.3038
  0
LINE
  8
0
 10
-14.5104
 20
-55.3038
 11
-13.9016
 21
-54.7945
  0
LINE
  8
0
 10
-13.9016
 20
-54.7945
 11
-13.1861
 21
-54.4308
  0
LINE
  8
0
 10
-13.1861
 20
-54.4308
 11
-12.364
 21
-54.2125
  0
LINE
  8
0
 10
-12.364
 20
-54.2125
 11
-11.4354
 21
-54.1398
  0
LINE
  8
0
 10
-11.4354
 20
-54.1398
 11
-10.7771
 21
-54.1733
  0
LINE
  8
0
 10
-10.7771
 20
-54.1733
 11
-10.1754
 21
-54.274
  0
LINE
  8
0
 10
-10.1754
 20
-54.274
 11
-9.63011
 21
-54.4418
  0
LINE
  8
0
 10
-9.63011
 20
-54.4418
 11
-9.14136
 21
-54.6768
  0
LINE
  8
0
 10
-9.14136
 20
-54.6768
 11
-8.71092
 21
-54.9777
  0
LINE
  8
0
 10
-8.71092
 20
-54.9777
 11
-8.34161
 21
-55.3435
  0
LINE
  8
0
 10
-8.34161
 20
-55.3435
 11
-8.03343
 21
-55.7742
  0
LINE
  8
0
 10
-8.03343
 20
-55.7742
 11
-7.78636
 21
-56.2698
  0
LINE
  8
0
 10
-7.78636
 20
-56.2698
 11
-8.88936
 21
-56.6358
  0
LINE
  8
0
 10
-8.88936
 20
-56.6358
 11
-9.06161
 21
-56.2824
  0
LINE
  8
0
 10
-9.06161
 20
-56.2824
 11
-9.27936
 21
-55.9733
  0
LINE
  8
0
 10
-9.27936
 20
-55.9733
 11
-9.54262
 21
-55.7084
  0
LINE
  8
0
 10
-9.54262
 20
-55.7084
 11
-9.85136
 21
-55.4878
  0
LINE
  8
0
 10
-9.85136
 20
-55.4878
 11
-10.1978
 21
-55.3141
  0
LINE
  8
0
 10
-10.1978
 20
-55.3141
 11
-10.5751
 21
-55.19
  0
LINE
  8
0
 10
-10.5751
 20
-55.19
 11
-10.9833
 21
-55.1156
  0
LINE
  8
0
 10
-10.9833
 20
-55.1156
 11
-11.4224
 21
-55.0908
  0
LINE
  8
0
 10
-11.4224
 20
-55.0908
 11
-12.0972
 21
-55.1481
  0
LINE
  8
0
 10
-12.0972
 20
-55.1481
 11
-12.6926
 21
-55.32
  0
LINE
  8
0
 10
-12.6926
 20
-55.32
 11
-13.2087
 21
-55.6066
  0
LINE
  8
0
 10
-13.2087
 20
-55.6066
 11
-13.6454
 21
-56.0078
  0
LINE
  8
0
 10
-13.6454
 20
-56.0078
 11
-13.9923
 21
-56.5083
  0
LINE
  8
0
 10
-13.9923
 20
-56.5083
 11
-14.2401
 21
-57.0938
  0
LINE
  8
0
 10
-14.2401
 20
-57.0938
 11
-14.3888
 21
-57.7643
  0
LINE
  8
0
 10
-14.3888
 20
-57.7643
 11
-14.4384
 21
-58.5197
  0
LINE
  8
0
 10
-14.4384
 20
-58.5197
 11
-14.3867
 21
-59.2696
  0
LINE
  8
0
 10
-14.3867
 20
-59.2696
 11
-14.2316
 21
-59.9422
  0
LINE
  8
0
 10
-14.2316
 20
-59.9422
 11
-13.9732
 21
-60.5376
  0
LINE
  8
0
 10
-13.9732
 20
-60.5376
 11
-13.6114
 21
-61.0557
  0
LINE
  8
0
 10
-13.6114
 20
-61.0557
 11
-13.1614
 21
-61.4753
  0
LINE
  8
0
 10
-13.1614
 20
-61.4753
 11
-12.6386
 21
-61.775
  0
LINE
  8
0
 10
-12.6386
 20
-61.775
 11
-12.0429
 21
-61.9548
  0
LINE
  8
0
 10
-12.0429
 20
-61.9548
 11
-11.3744
 21
-62.0147
  0
LINE
  8
0
 10
-11.3744
 20
-62.0147
 11
-10.5269
 21
-61.9026
  0
LINE
  8
0
 10
-10.5269
 20
-61.9026
 11
-9.79161
 21
-61.566
  0
LINE
  8
0
 10
-9.79161
 20
-61.566
 11
-9.16843
 21
-61.0051
  0
LINE
  8
0
 10
-9.16843
 20
-61.0051
 11
-8.65736
 21
-60.2197
  0
LINE
  8
0
 10
-8.65736
 20
-60.2197
 11
-7.70737
 21
-60.6967
  0
LINE
  8
0
 10
-7.70737
 20
-60.6967
 11
-7.99974
 21
-61.22
  0
LINE
  8
0
 10
-7.99974
 20
-61.22
 11
-8.34587
 21
-61.6767
  0
LINE
  8
0
 10
-8.34587
 20
-61.6767
 11
-8.74574
 21
-62.067
  0
LINE
  8
0
 10
-8.74574
 20
-62.067
 11
-9.19936
 21
-62.3907
  0
LINE
  8
0
 10
-9.19936
 20
-62.3907
 11
-9.69911
 21
-62.6449
  0
LINE
  8
0
 10
-9.69911
 20
-62.6449
 11
-10.2374
 21
-62.8265
  0
LINE
  8
0
 10
-10.2374
 20
-62.8265
 11
-10.8141
 21
-62.9354
  0
LINE
  8
0
 10
-10.8141
 20
-62.9354
 11
-11.4294
 21
-62.9717
  0
LINE
  8
0
 10
-11.4294
 20
-62.9717
 11
-12.057
 21
-62.938
  0
LINE
  8
0
 10
12.7085
 20
-62.9464
 11
12.1961
 21
-62.8705
  0
LINE
  8
0
 10
12.1961
 20
-62.8705
 11
11.7545
 21
-62.7439
  0
LINE
  8
0
 10
11.7545
 20
-62.7439
 11
11.3836
 21
-62.5667
  0
LINE
  8
0
 10
11.3836
 20
-62.5667
 11
11.0774
 21
-62.3354
  0
LINE
  8
0
 10
11.0774
 20
-62.3354
 11
10.8299
 21
-62.0475
  0
LINE
  8
0
 10
10.8299
 20
-62.0475
 11
10.6409
 21
-61.7029
  0
LINE
  8
0
 10
10.6409
 20
-61.7029
 11
10.5106
 21
-61.3017
  0
LINE
  8
0
 10
10.5106
 20
-61.3017
 11
11.4796
 21
-61.1127
  0
LINE
  8
0
 10
11.4796
 20
-61.1127
 11
11.5689
 21
-61.3601
  0
LINE
  8
0
 10
11.5689
 20
-61.3601
 11
11.6959
 21
-61.572
  0
LINE
  8
0
 10
11.6959
 20
-61.572
 11
11.8604
 21
-61.7486
  0
LINE
  8
0
 10
11.8604
 20
-61.7486
 11
12.0626
 21
-61.8897
  0
LINE
  8
0
 10
12.0626
 20
-61.8897
 11
12.3056
 21
-61.9978
  0
LINE
  8
0
 10
12.3056
 20
-61.9978
 11
12.5916
 21
-62.075
  0
LINE
  8
0
 10
12.5916
 20
-62.075
 11
12.9206
 21
-62.1213
  0
LINE
  8
0
 10
12.9206
 20
-62.1213
 11
13.2926
 21
-62.1367
  0
LINE
  8
0
 10
13.2926
 20
-62.1367
 11
13.6854
 21
-62.1206
  0
LINE
  8
0
 10
13.6854
 20
-62.1206
 11
14.0216
 21
-62.0722
  0
LINE
  8
0
 10
14.0216
 20
-62.0722
 11
14.3014
 21
-61.9916
  0
LINE
  8
0
 10
14.3014
 20
-61.9916
 11
14.5246
 21
-61.8787
  0
LINE
  8
0
 10
14.5246
 20
-61.8787
 11
14.6952
 21
-61.7336
  0
LINE
  8
0
 10
14.6952
 20
-61.7336
 11
14.8171
 21
-61.5562
  0
LINE
  8
0
 10
14.8171
 20
-61.5562
 11
14.8902
 21
-61.3466
  0
LINE
  8
0
 10
14.8902
 20
-61.3466
 11
14.9146
 21
-61.1047
  0
LINE
  8
0
 10
14.9146
 20
-61.1047
 11
14.8977
 21
-60.918
  0
LINE
  8
0
 10
14.8977
 20
-60.918
 11
14.8471
 21
-60.7497
  0
LINE
  8
0
 10
14.8471
 20
-60.7497
 11
14.7627
 21
-60.6
  0
LINE
  8
0
 10
14.7627
 20
-60.6
 11
14.6446
 21
-60.4688
  0
LINE
  8
0
 10
14.6446
 20
-60.4688
 11
14.4889
 21
-60.3516
  0
LINE
  8
0
 10
14.4889
 20
-60.3516
 11
14.2919
 21
-60.2452
  0
LINE
  8
0
 10
14.2919
 20
-60.2452
 11
14.0534
 21
-60.1496
  0
LINE
  8
0
 10
14.0534
 20
-60.1496
 11
13.7736
 21
-60.0647
  0
LINE
  8
0
 10
13.7736
 20
-60.0647
 11
12.9826
 21
-59.8567
  0
LINE
  8
0
 10
12.9826
 20
-59.8567
 11
12.5414
 21
-59.7349
  0
LINE
  8
0
 10
12.5414
 20
-59.7349
 11
12.1689
 21
-59.6142
  0
LINE
  8
0
 10
12.1689
 20
-59.6142
 11
11.8649
 21
-59.4949
  0
LINE
  8
0
 10
11.8649
 20
-59.4949
 11
11.6296
 21
-59.3767
  0
LINE
  8
0
 10
11.6296
 20
-59.3767
 11
11.4395
 21
-59.2525
  0
LINE
  8
0
 10
11.4395
 20
-59.2525
 11
11.2714
 21
-59.1157
  0
LINE
  8
0
 10
11.2714
 20
-59.1157
 11
11.125
 21
-58.9665
  0
LINE
  8
0
 10
11.125
 20
-58.9665
 11
11.0006
 21
-58.8047
  0
LINE
  8
0
 10
11.0006
 20
-58.8047
 11
10.9013
 21
-58.6267
  0
LINE
  8
0
 10
10.9013
 20
-58.6267
 11
10.8304
 21
-58.4295
  0
LINE
  8
0
 10
10.8304
 20
-58.4295
 11
10.7878
 21
-58.2132
  0
LINE
  8
0
 10
10.7878
 20
-58.2132
 11
10.7736
 21
-57.9778
  0
LINE
  8
0
 10
10.7736
 20
-57.9778
 11
10.814
 21
-57.5518
  0
LINE
  8
0
 10
10.814
 20
-57.5518
 11
10.9351
 21
-57.1798
  0
LINE
  8
0
 10
10.9351
 20
-57.1798
 11
11.137
 21
-56.8618
  0
LINE
  8
0
 10
11.137
 20
-56.8618
 11
11.4196
 21
-56.5978
  0
LINE
  8
0
 10
11.4196
 20
-56.5978
 11
11.7796
 21
-56.3904
  0
LINE
  8
0
 10
11.7796
 20
-56.3904
 11
12.2136
 21
-56.2423
  0
LINE
  8
0
 10
12.2136
 20
-56.2423
 11
12.7216
 21
-56.1534
  0
LINE
  8
0
 10
12.7216
 20
-56.1534
 11
13.3036
 21
-56.1238
  0
LINE
  8
0
 10
13.3036
 20
-56.1238
 11
13.8235
 21
-56.1478
  0
LINE
  8
0
 10
13.8235
 20
-56.1478
 11
14.2871
 21
-56.2198
  0
LINE
  8
0
 10
14.2871
 20
-56.2198
 11
14.6945
 21
-56.3398
  0
LINE
  8
0
 10
14.6945
 20
-56.3398
 11
15.0456
 21
-56.5078
  0
LINE
  8
0
 10
15.0456
 20
-56.5078
 11
15.339
 21
-56.7287
  0
LINE
  8
0
 10
15.339
 20
-56.7287
 11
15.5731
 21
-57.0075
  0
LINE
  8
0
 10
15.5731
 20
-57.0075
 11
15.748
 21
-57.3442
  0
LINE
  8
0
 10
15.748
 20
-57.3442
 11
15.8636
 21
-57.7388
  0
LINE
  8
0
 10
15.8636
 20
-57.7388
 11
14.8766
 21
-57.8608
  0
LINE
  8
0
 10
14.8766
 20
-57.8608
 11
14.8112
 21
-57.6541
  0
LINE
  8
0
 10
14.8112
 20
-57.6541
 11
14.7069
 21
-57.473
  0
LINE
  8
0
 10
14.7069
 20
-57.473
 11
14.5637
 21
-57.3176
  0
LINE
  8
0
 10
14.5637
 20
-57.3176
 11
14.3816
 21
-57.1878
  0
LINE
  8
0
 10
14.3816
 20
-57.1878
 11
14.1635
 21
-57.0849
  0
LINE
  8
0
 10
14.1635
 20
-57.0849
 11
13.9111
 21
-57.0115
  0
LINE
  8
0
 10
13.9111
 20
-57.0115
 11
13.6245
 21
-56.9674
  0
LINE
  8
0
 10
13.6245
 20
-56.9674
 11
13.3036
 21
-56.9528
  0
LINE
  8
0
 10
13.3036
 20
-56.9528
 11
12.9532
 21
-56.9669
  0
LINE
  8
0
 10
12.9532
 20
-56.9669
 11
12.6519
 21
-57.0095
  0
LINE
  8
0
 10
12.6519
 20
-57.0095
 11
12.3997
 21
-57.0804
  0
LINE
  8
0
 10
12.3997
 20
-57.0804
 11
12.1966
 21
-57.1798
  0
LINE
  8
0
 10
12.1966
 20
-57.1798
 11
12.0409
 21
-57.3079
  0
LINE
  8
0
 10
12.0409
 20
-57.3079
 11
11.9296
 21
-57.4653
  0
LINE
  8
0
 10
11.9296
 20
-57.4653
 11
11.8629
 21
-57.6519
  0
LINE
  8
0
 10
11.8629
 20
-57.6519
 11
11.8406
 21
-57.8678
  0
LINE
  8
0
 10
11.8406
 20
-57.8678
 11
11.8498
 21
-58.0026
  0
LINE
  8
0
 10
11.8498
 20
-58.0026
 11
11.8774
 21
-58.1253
  0
LINE
  8
0
 10
11.8774
 20
-58.1253
 11
11.9233
 21
-58.2356
  0
LINE
  8
0
 10
11.9233
 20
-58.2356
 11
11.9876
 21
-58.3338
  0
LINE
  8
0
 10
11.9876
 20
-58.3338
 11
12.0699
 21
-58.4219
  0
LINE
  8
0
 10
12.0699
 20
-58.4219
 11
12.1699
 21
-58.5032
  0
LINE
  8
0
 10
12.1699
 20
-58.5032
 11
12.2874
 21
-58.5779
  0
LINE
  8
0
 10
12.2874
 20
-58.5779
 11
12.4226
 21
-58.6457
  0
LINE
  8
0
 10
12.4226
 20
-58.6457
 11
12.6069
 21
-58.7159
  0
LINE
  8
0
 10
12.6069
 20
-58.7159
 11
12.8709
 21
-58.7982
  0
LINE
  8
0
 10
12.8709
 20
-58.7982
 11
13.2144
 21
-58.8929
  0
LINE
  8
0
 10
13.2144
 20
-58.8929
 11
13.6376
 21
-58.9997
  0
LINE
  8
0
 10
13.6376
 20
-58.9997
 11
14.0454
 21
-59.1077
  0
LINE
  8
0
 10
14.0454
 20
-59.1077
 11
14.3919
 21
-59.2115
  0
LINE
  8
0
 10
14.3919
 20
-59.2115
 11
14.6769
 21
-59.3112
  0
LINE
  8
0
 10
14.6769
 20
-59.3112
 11
14.9006
 21
-59.4067
  0
LINE
  8
0
 10
14.9006
 20
-59.4067
 11
15.0839
 21
-59.5027
  0
LINE
  8
0
 10
15.0839
 20
-59.5027
 11
15.2469
 21
-59.6037
  0
LINE
  8
0
 10
15.2469
 20
-59.6037
 11
15.3894
 21
-59.7097
  0
LINE
  8
0
 10
15.3894
 20
-59.7097
 11
15.5116
 21
-59.8207
  0
LINE
  8
0
 10
15.5116
 20
-59.8207
 11
15.6172
 21
-59.9382
  0
LINE
  8
0
 10
15.6172
 20
-59.9382
 11
15.7101
 21
-60.0645
  0
LINE
  8
0
 10
15.7101
 20
-60.0645
 11
15.7902
 21
-60.1997
  0
LINE
  8
0
 10
15.7902
 20
-60.1997
 11
15.8576
 21
-60.3438
  0
LINE
  8
0
 10
15.8576
 20
-60.3438
 11
15.9114
 21
-60.497
  0
LINE
  8
0
 10
15.9114
 20
-60.497
 11
15.9499
 21
-60.6607
  0
LINE
  8
0
 10
15.9499
 20
-60.6607
 11
15.9729
 21
-60.835
  0
LINE
  8
0
 10
15.9729
 20
-60.835
 11
15.9806
 21
-61.0197
  0
LINE
  8
0
 10
15.9806
 20
-61.0197
 11
15.9364
 21
-61.461
  0
LINE
  8
0
 10
15.9364
 20
-61.461
 11
15.8036
 21
-61.8487
  0
LINE
  8
0
 10
15.8036
 20
-61.8487
 11
15.5824
 21
-62.183
  0
LINE
  8
0
 10
15.5824
 20
-62.183
 11
15.2726
 21
-62.4637
  0
LINE
  8
0
 10
15.2726
 20
-62.4637
 11
14.8837
 21
-62.686
  0
LINE
  8
0
 10
14.8837
 20
-62.686
 11
14.4239
 21
-62.8447
  0
LINE
  8
0
 10
14.4239
 20
-62.8447
 11
13.8932
 21
-62.94
  0
LINE
  8
0
 10
13.8932
 20
-62.94
 11
13.2916
 21
-62.9717
  0
LINE
  8
0
 10
13.2916
 20
-62.9717
 11
12.7085
 21
-62.9464
  0
LINE
  8
0
 10
-5.40692
 20
-62.9389
 11
-5.80885
 21
-62.8402
  0
LINE
  8
0
 10
-5.80885
 20
-62.8402
 11
-6.14941
 21
-62.6759
  0
LINE
  8
0
 10
-6.14941
 20
-62.6759
 11
-6.4286
 21
-62.4457
  0
LINE
  8
0
 10
-6.4286
 20
-62.4457
 11
-6.64604
 21
-62.1582
  0
LINE
  8
0
 10
-6.64604
 20
-62.1582
 11
-6.80136
 21
-61.8217
  0
LINE
  8
0
 10
-6.80136
 20
-61.8217
 11
-6.89455
 21
-61.4362
  0
LINE
  8
0
 10
-6.89455
 20
-61.4362
 11
-6.9256
 21
-61.0017
  0
LINE
  8
0
 10
-6.9256
 20
-61.0017
 11
-6.88373
 21
-60.5176
  0
LINE
  8
0
 10
-6.88373
 20
-60.5176
 11
-6.7581
 21
-60.0932
  0
LINE
  8
0
 10
-6.7581
 20
-60.0932
 11
-6.54874
 21
-59.7286
  0
LINE
  8
0
 10
-6.54874
 20
-59.7286
 11
-6.2556
 21
-59.4237
  0
LINE
  8
0
 10
-6.2556
 20
-59.4237
 11
-5.86929
 21
-59.1804
  0
LINE
  8
0
 10
-5.86929
 20
-59.1804
 11
-5.38036
 21
-59.0012
  0
LINE
  8
0
 10
-5.38036
 20
-59.0012
 11
-4.78879
 21
-58.8864
  0
LINE
  8
0
 10
-4.78879
 20
-58.8864
 11
-4.0946
 21
-58.8357
  0
LINE
  8
0
 10
-4.0946
 20
-58.8357
 11
-2.62161
 21
-58.8117
  0
LINE
  8
0
 10
-2.62161
 20
-58.8117
 11
-2.62161
 21
-58.4538
  0
LINE
  8
0
 10
-2.62161
 20
-58.4538
 11
-2.64279
 21
-58.0813
  0
LINE
  8
0
 10
-2.64279
 20
-58.0813
 11
-2.70636
 21
-57.7658
  0
LINE
  8
0
 10
-2.70636
 20
-57.7658
 11
-2.81229
 21
-57.5073
  0
LINE
  8
0
 10
-2.81229
 20
-57.5073
 11
-2.9606
 21
-57.3058
  0
LINE
  8
0
 10
-2.9606
 20
-57.3058
 11
-3.1543
 21
-57.1539
  0
LINE
  8
0
 10
-3.1543
 20
-57.1539
 11
-3.39636
 21
-57.0455
  0
LINE
  8
0
 10
-3.39636
 20
-57.0455
 11
-3.6868
 21
-56.9804
  0
LINE
  8
0
 10
-3.6868
 20
-56.9804
 11
-4.0256
 21
-56.9588
  0
LINE
  8
0
 10
-4.0256
 20
-56.9588
 11
-4.36667
 21
-56.974
  0
LINE
  8
0
 10
-4.36667
 20
-56.974
 11
-4.65785
 21
-57.0198
  0
LINE
  8
0
 10
-4.65785
 20
-57.0198
 11
-4.89917
 21
-57.096
  0
LINE
  8
0
 10
-4.89917
 20
-57.096
 11
-5.09061
 21
-57.2028
  0
LINE
  8
0
 10
-5.09061
 20
-57.2028
 11
-5.24004
 21
-57.3424
  0
LINE
  8
0
 10
-5.24004
 20
-57.3424
 11
-5.35635
 21
-57.5185
  0
LINE
  8
0
 10
-5.35635
 20
-57.5185
 11
-5.43954
 21
-57.7309
  0
LINE
  8
0
 10
-5.43954
 20
-57.7309
 11
-5.48961
 21
-57.9798
  0
LINE
  8
0
 10
-5.48961
 20
-57.9798
 11
-6.63461
 21
-57.8778
  0
LINE
  8
0
 10
-6.63461
 20
-57.8778
 11
-6.36536
 21
-57.1104
  0
LINE
  8
0
 10
-6.36536
 20
-57.1104
 11
-5.83661
 21
-56.5623
  0
LINE
  8
0
 10
-5.83661
 20
-56.5623
 11
-5.04836
 21
-56.2334
  0
LINE
  8
0
 10
-5.04836
 20
-56.2334
 11
-4.00061
 21
-56.1238
  0
LINE
  8
0
 10
-4.00061
 20
-56.1238
 11
-3.41992
 21
-56.1594
  0
LINE
  8
0
 10
-3.41992
 20
-56.1594
 11
-2.91586
 21
-56.2665
  0
LINE
  8
0
 10
-2.91586
 20
-56.2665
 11
-2.48842
 21
-56.4449
  0
LINE
  8
0
 10
-2.48842
 20
-56.4449
 11
-2.1376
 21
-56.6948
  0
LINE
  8
0
 10
-2.1376
 20
-56.6948
 11
-1.86417
 21
-57.0116
  0
LINE
  8
0
 10
-1.86417
 20
-57.0116
 11
-1.66885
 21
-57.3923
  0
LINE
  8
0
 10
-1.66885
 20
-57.3923
 11
-1.55167
 21
-57.8366
  0
LINE
  8
0
 10
-1.55167
 20
-57.8366
 11
-1.5126
 21
-58.3448
  0
LINE
  8
0
 10
-1.5126
 20
-58.3448
 11
-1.5126
 21
-61.1887
  0
LINE
  8
0
 10
-1.5126
 20
-61.1887
 11
-1.50467
 21
-61.4177
  0
LINE
  8
0
 10
-1.50467
 20
-61.4177
 11
-1.48085
 21
-61.6165
  0
LINE
  8
0
 10
-1.48085
 20
-61.6165
 11
-1.44116
 21
-61.7852
  0
LINE
  8
0
 10
-1.44116
 20
-61.7852
 11
-1.3856
 21
-61.9237
  0
LINE
  8
0
 10
-1.3856
 20
-61.9237
 11
-1.30724
 21
-62.0318
  0
LINE
  8
0
 10
-1.30724
 20
-62.0318
 11
-1.2001
 21
-62.109
  0
LINE
  8
0
 10
-1.2001
 20
-62.109
 11
-1.06422
 21
-62.1553
  0
LINE
  8
0
 10
-1.06422
 20
-62.1553
 11
-0.899612
 21
-62.1707
  0
LINE
  8
0
 10
-0.899612
 20
-62.1707
 11
-0.817978
 21
-62.1681
  0
LINE
  8
0
 10
-0.817978
 20
-62.1681
 11
-0.73111
 21
-62.16
  0
LINE
  8
0
 10
-0.73111
 20
-62.16
 11
-0.638977
 21
-62.1466
  0
LINE
  8
0
 10
-0.638977
 20
-62.1466
 11
-0.541611
 21
-62.1277
  0
LINE
  8
0
 10
-0.541611
 20
-62.1277
 11
-0.541611
 21
-62.8107
  0
LINE
  8
0
 10
-0.541611
 20
-62.8107
 11
-0.749725
 21
-62.8532
  0
LINE
  8
0
 10
-0.749725
 20
-62.8532
 11
-0.960098
 21
-62.8835
  0
LINE
  8
0
 10
-0.960098
 20
-62.8835
 11
-1.17273
 21
-62.9017
  0
LINE
  8
0
 10
-1.17273
 20
-62.9017
 11
-1.3876
 21
-62.9077
  0
LINE
  8
0
 10
-1.3876
 20
-62.9077
 11
-1.67091
 21
-62.8878
  0
LINE
  8
0
 10
-1.67091
 20
-62.8878
 11
-1.91286
 21
-62.828
  0
LINE
  8
0
 10
-1.91286
 20
-62.828
 11
-2.11342
 21
-62.7283
  0
LINE
  8
0
 10
-2.11342
 20
-62.7283
 11
-2.2726
 21
-62.5887
  0
LINE
  8
0
 10
-2.2726
 20
-62.5887
 11
-2.39604
 21
-62.4061
  0
LINE
  8
0
 10
-2.39604
 20
-62.4061
 11
-2.48935
 21
-62.1782
  0
LINE
  8
0
 10
-2.48935
 20
-62.1782
 11
-2.55254
 21
-61.9051
  0
LINE
  8
0
 10
-2.55254
 20
-61.9051
 11
-2.5856
 21
-61.5867
  0
LINE
  8
0
 10
-2.5856
 20
-61.5867
 11
-2.62161
 21
-61.5867
  0
LINE
  8
0
 10
-2.62161
 20
-61.5867
 11
-2.8396
 21
-61.9376
  0
LINE
  8
0
 10
-2.8396
 20
-61.9376
 11
-3.0746
 21
-62.233
  0
LINE
  8
0
 10
-3.0746
 20
-62.233
 11
-3.3266
 21
-62.4731
  0
LINE
  8
0
 10
-3.3266
 20
-62.4731
 11
-3.59561
 21
-62.6577
  0
LINE
  8
0
 10
-3.59561
 20
-62.6577
 11
-3.8876
 21
-62.7951
  0
LINE
  8
0
 10
-3.8876
 20
-62.7951
 11
-4.20961
 21
-62.8932
  0
LINE
  8
0
 10
-4.20961
 20
-62.8932
 11
-4.5616
 21
-62.9521
  0
LINE
  8
0
 10
-4.5616
 20
-62.9521
 11
-4.9436
 21
-62.9717
  0
LINE
  8
0
 10
-4.9436
 20
-62.9717
 11
-5.40692
 21
-62.9389
  0
LINE
  8
0
 10
-4.39941
 20
-62.1315
 11
-4.12486
 21
-62.0797
  0
LINE
  8
0
 10
-4.12486
 20
-62.0797
 11
-3.86691
 21
-61.9935
  0
LINE
  8
0
 10
-3.86691
 20
-61.9935
 11
-3.62561
 21
-61.8727
  0
LINE
  8
0
 10
-3.62561
 20
-61.8727
 11
-3.40492
 21
-61.7219
  0
LINE
  8
0
 10
-3.40492
 20
-61.7219
 11
-3.20886
 21
-61.5455
  0
LINE
  8
0
 10
-3.20886
 20
-61.5455
 11
-3.03741
 21
-61.3434
  0
LINE
  8
0
 10
-3.03741
 20
-61.3434
 11
-2.89061
 21
-61.1157
  0
LINE
  8
0
 10
-2.89061
 20
-61.1157
 11
-2.77292
 21
-60.8735
  0
LINE
  8
0
 10
-2.77292
 20
-60.8735
 11
-2.68886
 21
-60.6277
  0
LINE
  8
0
 10
-2.68886
 20
-60.6277
 11
-2.63841
 21
-60.3785
  0
LINE
  8
0
 10
-2.63841
 20
-60.3785
 11
-2.62161
 21
-60.1257
  0
LINE
  8
0
 10
-2.62161
 20
-60.1257
 11
-2.62161
 21
-59.5797
  0
LINE
  8
0
 10
-2.62161
 20
-59.5797
 11
-3.8136
 21
-59.6047
  0
LINE
  8
0
 10
-3.8136
 20
-59.6047
 11
-4.17442
 21
-59.6192
  0
LINE
  8
0
 10
-4.17442
 20
-59.6192
 11
-4.48886
 21
-59.6505
  0
LINE
  8
0
 10
-4.48886
 20
-59.6505
 11
-4.75691
 21
-59.6987
  0
LINE
  8
0
 10
-4.75691
 20
-59.6987
 11
-4.97861
 21
-59.7637
  0
LINE
  8
0
 10
-4.97861
 20
-59.7637
 11
-5.1651
 21
-59.8472
  0
LINE
  8
0
 10
-5.1651
 20
-59.8472
 11
-5.32861
 21
-59.9507
  0
LINE
  8
0
 10
-5.32861
 20
-59.9507
 11
-5.4691
 21
-60.0742
  0
LINE
  8
0
 10
-5.4691
 20
-60.0742
 11
-5.58661
 21
-60.2177
  0
LINE
  8
0
 10
-5.58661
 20
-60.2177
 11
-5.67892
 21
-60.3827
  0
LINE
  8
0
 10
-5.67892
 20
-60.3827
 11
-5.74486
 21
-60.5715
  0
LINE
  8
0
 10
-5.74486
 20
-60.5715
 11
-5.78442
 21
-60.7842
  0
LINE
  8
0
 10
-5.78442
 20
-60.7842
 11
-5.79761
 21
-61.0207
  0
LINE
  8
0
 10
-5.79761
 20
-61.0207
 11
-5.77966
 21
-61.275
  0
LINE
  8
0
 10
-5.77966
 20
-61.275
 11
-5.72586
 21
-61.4987
  0
LINE
  8
0
 10
-5.72586
 20
-61.4987
 11
-5.63617
 21
-61.692
  0
LINE
  8
0
 10
-5.63617
 20
-61.692
 11
-5.5106
 21
-61.8547
  0
LINE
  8
0
 10
-5.5106
 20
-61.8547
 11
-5.35135
 21
-61.9834
  0
LINE
  8
0
 10
-5.35135
 20
-61.9834
 11
-5.16161
 21
-62.0752
  0
LINE
  8
0
 10
-5.16161
 20
-62.0752
 11
-4.94136
 21
-62.1304
  0
LINE
  8
0
 10
-4.94136
 20
-62.1304
 11
-4.69061
 21
-62.1487
  0
LINE
  8
0
 10
-4.69061
 20
-62.1487
 11
-4.39941
 21
-62.1315
  0
LINE
  8
0
 10
0.190704
 20
-62.8438
 11
0.190704
 21
-57.7868
  0
LINE
  8
0
 10
0.190704
 20
-57.7868
 11
0.188446
 21
-57.4306
  0
LINE
  8
0
 10
0.188446
 20
-57.4306
 11
0.181702
 21
-57.056
  0
LINE
  8
0
 10
0.181702
 20
-57.056
 11
0.170456
 21
-56.6631
  0
LINE
  8
0
 10
0.170456
 20
-56.6631
 11
0.154694
 21
-56.2518
  0
LINE
  8
0
 10
0.154694
 20
-56.2518
 11
1.1897
 21
-56.2518
  0
LINE
  8
0
 10
1.1897
 20
-56.2518
 11
1.22646
 21
-57.1448
  0
LINE
  8
0
 10
1.22646
 20
-57.1448
 11
1.23564
 21
-57.424
  0
LINE
  8
0
 10
1.23564
 20
-57.424
 11
1.23869
 21
-57.5918
  0
LINE
  8
0
 10
1.23869
 20
-57.5918
 11
1.2627
 21
-57.5918
  0
LINE
  8
0
 10
1.2627
 20
-57.5918
 11
1.39914
 21
-57.2018
  0
LINE
  8
0
 10
1.39914
 20
-57.2018
 11
1.54546
 21
-56.879
  0
LINE
  8
0
 10
1.54546
 20
-56.879
 11
1.70163
 21
-56.6233
  0
LINE
  8
0
 10
1.70163
 20
-56.6233
 11
1.86771
 21
-56.4348
  0
LINE
  8
0
 10
1.86771
 20
-56.4348
 11
2.0562
 21
-56.2987
  0
LINE
  8
0
 10
2.0562
 20
-56.2987
 11
2.27969
 21
-56.2015
  0
LINE
  8
0
 10
2.27969
 20
-56.2015
 11
2.53819
 21
-56.1432
  0
LINE
  8
0
 10
2.53819
 20
-56.1432
 11
2.8317
 21
-56.1238
  0
LINE
  8
0
 10
2.8317
 20
-56.1238
 11
2.94208
 21
-56.1276
  0
LINE
  8
0
 10
2.94208
 20
-56.1276
 11
3.05319
 21
-56.139
  0
LINE
  8
0
 10
3.05319
 20
-56.139
 11
3.16507
 21
-56.1581
  0
LINE
  8
0
 10
3.16507
 20
-56.1581
 11
3.27769
 21
-56.1848
  0
LINE
  8
0
 10
3.27769
 20
-56.1848
 11
3.27769
 21
-57.1898
  0
LINE
  8
0
 10
3.27769
 20
-57.1898
 11
3.15857
 21
-57.1631
  0
LINE
  8
0
 10
3.15857
 20
-57.1631
 11
3.02119
 21
-57.144
  0
LINE
  8
0
 10
3.02119
 20
-57.144
 11
2.86557
 21
-57.1326
  0
LINE
  8
0
 10
2.86557
 20
-57.1326
 11
2.6917
 21
-57.1288
  0
LINE
  8
0
 10
2.6917
 20
-57.1288
 11
2.36995
 21
-57.1656
  0
LINE
  8
0
 10
2.36995
 20
-57.1656
 11
2.0887
 21
-57.276
  0
LINE
  8
0
 10
2.0887
 20
-57.276
 11
1.84795
 21
-57.4601
  0
LINE
  8
0
 10
1.84795
 20
-57.4601
 11
1.64771
 21
-57.7178
  0
LINE
  8
0
 10
1.64771
 20
-57.7178
 11
1.4902
 21
-58.0436
  0
LINE
  8
0
 10
1.4902
 20
-58.0436
 11
1.3777
 21
-58.4333
  0
LINE
  8
0
 10
1.3777
 20
-58.4333
 11
1.3102
 21
-58.8866
  0
LINE
  8
0
 10
1.3102
 20
-58.8866
 11
1.2877
 21
-59.4037
  0
LINE
  8
0
 10
1.2877
 20
-59.4037
 11
1.2877
 21
-62.8438
  0
LINE
  8
0
 10
1.2877
 20
-62.8438
 11
0.190704
 21
-62.8438
  0
LINE
  8
0
 10
43.15
 20
-66.6
 11
57.85
 21
-66.6
  0
LINE
  8
0
 10
57.85
 20
-66.6
 11
57.85
 21
-69.25
  0
LINE
  8
0
 10
57.85
 20
-69.25
 11
73.15
 21
-69.25
  0
LINE
  8
0
 10
73.15
 20
-69.25
 11
73.15
 21
-66.6
  0
LINE
  8
0
 10
73.15
 20
-66.6
 11
87.85
 21
-66.6
  0
LINE
  8
0
 10
87.85
 20
-66.6
 11
87.85
 21
-69.25
  0
LINE
  8
0
 10
87.85
 20
-69.25
 11
103.15
 21
-69.25
  0
LINE
  8
0
 10
103.15
 20
-69.25
 11
103.15
 21
-66.6
  0
LINE
  8
0
 10
103.15
 20
-66.6
 11
117.85
 21
-66.6
  0
LINE
  8
0
 10
117.85
 20
-66.6
 11
117.85
 21
-69.25
  0
LINE
  8
0
 10
117.85
 20
-69.25
 11
125.6
 21
-69.25
  0
LINE
  8
0
 10
125.6
 20
-69.25
 11
125.6
 21
-66.15
  0
LINE
  8
0
 10
125.6
 20
-66.15
 11
128.25
 21
-66.15
  0
LINE
  8
0
 10
128.25
 20
-66.15
 11
128.25
 21
-62.85
  0
LINE
  8
0
 10
128.25
 20
-62.85
 11
125.6
 21
-62.85
  0
LINE
  8
0
 10
125.6
 20
-62.85
 11
125.6
 21
-60.15
  0
LINE
  8
0
 10
125.6
 20
-60.15
 11
128.25
 21
-60.15
  0
LINE
  8
0
 10
128.25
 20
-60.15
 11
128.25
 21
-56.85
  0
LINE
  8
0
 10
128.25
 20
-56.85
 11
125.6
 21
-56.85
  0
LINE
  8
0
 10
125.6
 20
-56.85
 11
125.6
 21
-54.15
  0
LINE
  8
0
 10
125.6
 20
-54.15
 11
128.25
 21
-54.15
  0
LINE
  8
0
 10
128.25
 20
-54.15
 11
128.25
 21
-50.85
  0
LINE
  8
0
 10
128.25
 20
-50.85
 11
125.6
 21
-50.85
  0
LINE
  8
0
 10
125.6
 20
-50.85
 11
125.6
 21
-47.75
  0
LINE
  8
0
 10
125.6
 20
-47.75
 11
35.4
 21
-47.75
  0
LINE
  8
0
 10
35.4
 20
-47.75
 11
35.4
 21
-50.85
  0
LINE
  8
0
 10
35.4
 20
-50.85
 11
32.75
 21
-50.85
  0
LINE
  8
0
 10
32.75
 20
-50.85
 11
32.75
 21
-54.15
  0
LINE
  8
0
 10
32.75
 20
-54.15
 11
35.4
 21
-54.15
  0
LINE
  8
0
 10
35.4
 20
-54.15
 11
35.4
 21
-56.85
  0
LINE
  8
0
 10
35.4
 20
-56.85
 11
32.75
 21
-56.85
  0
LINE
  8
0
 10
32.75
 20
-56.85
 11
32.75
 21
-60.15
  0
LINE
  8
0
 10
32.75
 20
-60.15
 11
35.4
 21
-60.15
  0
LINE
  8
0
 10
35.4
 20
-60.15
 11
35.4
 21
-62.85
  0
LINE
  8
0
 10
35.4
 20
-62.85
 11
32.75
 21
-62.85
  0
LINE
  8
0
 10
32.75
 20
-62.85
 11
32.75
 21
-66.15
  0
LINE
  8
0
 10
32.75
 20
-66.15
 11
35.4
 21
-66.15
  0
LINE
  8
0
 10
35.4
 20
-66.15
 11
35.4
 21
-69.25
  0
LINE
  8
0
 10
35.4
 20
-69.25
 11
43.15
 21
-69.25
  0
LINE
  8
0
 10
43.15
 20
-69.25
 11
43.15
 21
-66.6
  0
LINE
  8
0
 10
-14.85
 20
-162.6
 11
-5.14999
 21
-162.6
  0
LINE
  8
0
 10
-5.14999
 20
-162.6
 11
-5.14999
 21
-165.25
  0
LINE
  8
0
 10
-5.14999
 20
-165.25
 11
5.14998
 21
-165.25
  0
LINE
  8
0
 10
5.14998
 20
-165.25
 11
5.14998
 21
-162.6
  0
LINE
  8
0
 10
5.14998
 20
-162.6
 11
14.85
 21
-162.6
  0
LINE
  8
0
 10
14.85
 20
-162.6
 11
14.85
 21
-165.25
  0
LINE
  8
0
 10
14.85
 20
-165.25
 11
25.15
 21
-165.25
  0
LINE
  8
0
 10
25.15
 20
-165.25
 11
25.15
 21
-162.6
  0
LINE
  8
0
 10
25.15
 20
-162.6
 11
29.6
 21
-162.6
  0
LINE
  8
0
 10
29.6
 20
-162.6
 11
29.6
 21
-155.15
  0
LINE
  8
0
 10
29.6
 20
-155.15
 11
32.25
 21
-155.15
  0
LINE
  8
0
 10
32.25
 20
-155.15
 11
32.25
 21
-139.85
  0
LINE
  8
0
 10
32.25
 20
-139.85
 11
29.6
 21
-139.85
  0
LINE
  8
0
 10
29.6
 20
-139.85
 11
29.6
 21
-125.15
  0
LINE
  8
0
 10
29.6
 20
-125.15
 11
32.25
 21
-125.15
  0
LINE
  8
0
 10
32.25
 20
-125.15
 11
32.25
 21
-109.85
  0
LINE
  8
0
 10
32.25
 20
-109.85
 11
29.6
 21
-109.85
  0
LINE
  8
0
 10
29.6
 20
-109.85
 11
29.6
 21
-95.15
  0
LINE
  8
0
 10
29.6
 20
-95.15
 11
32.25
 21
-95.15
  0
LINE
  8
0
 10
32.25
 20
-95.15
 11
32.25
 21
-79.85
  0
LINE
  8
0
 10
32.25
 20
-79.85
 11
29.6
 21
-79.85
  0
LINE
  8
0
 10
29.6
 20
-79.85
 11
29.6
 21
-72.4
  0
LINE
  8
0
 10
29.6
 20
-72.4
 11
25.15
 21
-72.4
  0
LINE
  8
0
 10
25.15
 20
-72.4
 11
25.15
 21
-69.75
  0
LINE
  8
0
 10
25.15
 20
-69.75
 11
14.85
 21
-69.75
  0
LINE
  8
0
 10
14.85
 20
-69.75
 11
14.85
 21
-72.4
  0
LINE
  8
0
 10
14.85
 20
-72.4
 11
5.14999
 21
-72.4
  0
LINE
  8
0
 10
5.14999
 20
-72.4
 11
5.14999
 21
-69.75
  0
LINE
  8
0
 10
5.14999
 20
-69.75
 11
-5.14999
 21
-69.75
  0
LINE
  8
0
 10
-5.14999
 20
-69.75
 11
-5.14999
 21
-72.4
  0
LINE
  8
0
 10
-5.14999
 20
-72.4
 11
-14.85
 21
-72.4
  0
LINE
  8
0
 10
-14.85
 20
-72.4
 11
-14.85
 21
-69.75
  0
LINE
  8
0
 10
-14.85
 20
-69.75
 11
-25.15
 21
-69.75
  0
LINE
  8
0
 10
-25.15
 20
-69.75
 11
-25.15
 21
-72.4
  0
LINE
  8
0
 10
-25.15
 20
-72.4
 11
-29.6
 21
-72.4
  0
LINE
  8
0
 10
-29.6
 20
-72.4
 11
-29.6
 21
-79.85
  0
LINE
  8
0
 10
-29.6
 20
-79.85
 11
-32.25
 21
-79.85
  0
LINE
  8
0
 10
-32.25
 20
-79.85
 11
-32.25
 21
-95.15
  0
LINE
  8
0
 10
-32.25
 20
-95.15
 11
-29.6
 21
-95.15
  0
LINE
  8
0
 10
-29.6
 20
-95.15
 11
-29.6
 21
-109.85
  0
LINE
  8
0
 10
-29.6
 20
-109.85
 11
-32.25
 21
-109.85
  0
LINE
  8
0
 10
-32.25
 20
-109.85
 11
-32.25
 21
-125.15
  0
LINE
  8
0
 10
-32.25
 20
-125.15
 11
-29.6
 21
-125.15
  0
LINE
  8
0
 10
-29.6
 20
-125.15
 11
-29.6
 21
-139.85
  0
LINE
  8
0
 10
-29.6
 20
-139.85
 11
-32.25
 21
-139.85
  0
LINE
  8
0
 10
-32.25
 20
-139.85
 11
-32.25
 21
-155.15
  0
LINE
  8
0
 10
-32.25
 20
-155.15
 11
-29.6
 21
-155.15
  0
LINE
  8
0
 10
-29.6
 20
-155.15
 11
-29.6
 21
-162.6
  0
LINE
  8
0
 10
-29.6
 20
-162.6
 11
-25.15
 21
-162.6
  0
LINE
  8
0
 10
-25.15
 20
-162.6
 11
-25.15
 21
-165.25
  0
LINE
  8
0
 10
-25.15
 20
-165.25
 11
-14.85
 21
-165.25
  0
LINE
  8
0
 10
-14.85
 20
-165.25
 11
-14.85
 21
-162.6
  0
ENDSEC
  0
SECTION
  2
OBJECTS
  0
DICTIONARY
  0
ENDSEC
  0
EOF
