  0
SECTION
  2
BLOCKS
  0
ENDSEC
  0
SECTION
  2
ENTITIES
  0
LINE
  8
0
 10
135.64
 20
-72.215
 11
145.36
 21
-72.215
  0
LINE
  8
0
 10
145.36
 20
-72.215
 11
145.36
 21
-74.875
  0
LINE
  8
0
 10
145.36
 20
-74.875
 11
155.64
 21
-74.875
  0
LINE
  8
0
 10
155.64
 20
-74.875
 11
155.64
 21
-72.215
  0
LINE
  8
0
 10
155.64
 20
-72.215
 11
165.36
 21
-72.215
  0
LINE
  8
0
 10
165.36
 20
-72.215
 11
165.36
 21
-74.875
  0
LINE
  8
0
 10
165.36
 20
-74.875
 11
175.64
 21
-74.875
  0
LINE
  8
0
 10
175.64
 20
-74.875
 11
175.64
 21
-72.215
  0
LINE
  8
0
 10
175.64
 20
-72.215
 11
185.36
 21
-72.215
  0
LINE
  8
0
 10
185.36
 20
-72.215
 11
185.36
 21
-74.875
  0
LINE
  8
0
 10
185.36
 20
-74.875
 11
189.965
 21
-74.875
  0
LINE
  8
0
 10
189.965
 20
-74.875
 11
189.965
 21
-72.215
  0
LINE
  8
0
 10
189.965
 20
-72.215
 11
192.625
 21
-72.215
  0
LINE
  8
0
 10
192.625
 20
-72.215
 11
192.625
 21
-71.11
  0
LINE
  8
0
 10
192.625
 20
-71.11
 11
189.965
 21
-71.11
  0
LINE
  8
0
 10
189.965
 20
-71.11
 11
189.965
 21
-67.39
  0
LINE
  8
0
 10
189.965
 20
-67.39
 11
192.625
 21
-67.39
  0
LINE
  8
0
 10
192.625
 20
-67.39
 11
192.625
 21
-63.11
  0
LINE
  8
0
 10
192.625
 20
-63.11
 11
189.965
 21
-63.11
  0
LINE
  8
0
 10
189.965
 20
-63.11
 11
189.965
 21
-59.39
  0
LINE
  8
0
 10
189.965
 20
-59.39
 11
192.625
 21
-59.39
  0
LINE
  8
0
 10
192.625
 20
-59.39
 11
192.625
 21
-55.11
  0
LINE
  8
0
 10
192.625
 20
-55.11
 11
189.965
 21
-55.11
  0
LINE
  8
0
 10
189.965
 20
-55.11
 11
189.965
 21
-51.39
  0
LINE
  8
0
 10
189.965
 20
-51.39
 11
192.625
 21
-51.39
  0
LINE
  8
0
 10
192.625
 20
-51.39
 11
192.625
 21
-50.285
  0
LINE
  8
0
 10
192.625
 20
-50.285
 11
189.965
 21
-50.285
  0
LINE
  8
0
 10
189.965
 20
-50.285
 11
189.965
 21
-47.625
  0
LINE
  8
0
 10
189.965
 20
-47.625
 11
131.035
 21
-47.625
  0
LINE
  8
0
 10
131.035
 20
-47.625
 11
131.035
 21
-50.285
  0
LINE
  8
0
 10
131.035
 20
-50.285
 11
128.375
 21
-50.285
  0
LINE
  8
0
 10
128.375
 20
-50.285
 11
128.375
 21
-51.39
  0
LINE
  8
0
 10
128.375
 20
-51.39
 11
131.035
 21
-51.39
  0
LINE
  8
0
 10
131.035
 20
-51.39
 11
131.035
 21
-55.11
  0
LINE
  8
0
 10
131.035
 20
-55.11
 11
128.375
 21
-55.11
  0
LINE
  8
0
 10
128.375
 20
-55.11
 11
128.375
 21
-59.39
  0
LINE
  8
0
 10
128.375
 20
-59.39
 11
131.035
 21
-59.39
  0
LINE
  8
0
 10
131.035
 20
-59.39
 11
131.035
 21
-63.11
  0
LINE
  8
0
 10
131.035
 20
-63.11
 11
128.375
 21
-63.11
  0
LINE
  8
0
 10
128.375
 20
-63.11
 11
128.375
 21
-67.39
  0
LINE
  8
0
 10
128.375
 20
-67.39
 11
131.035
 21
-67.39
  0
LINE
  8
0
 10
131.035
 20
-67.39
 11
131.035
 21
-71.11
  0
LINE
  8
0
 10
131.035
 20
-71.11
 11
128.375
 21
-71.11
  0
LINE
  8
0
 10
128.375
 20
-71.11
 11
128.375
 21
-72.215
  0
LINE
  8
0
 10
128.375
 20
-72.215
 11
131.035
 21
-72.215
  0
LINE
  8
0
 10
131.035
 20
-72.215
 11
131.035
 21
-74.875
  0
LINE
  8
0
 10
131.035
 20
-74.875
 11
135.64
 21
-74.875
  0
LINE
  8
0
 10
135.64
 20
-74.875
 11
135.64
 21
-72.215
  0
LINE
  8
0
 10
-117.61
 20
-72.215
 11
-102.89
 21
-72.215
  0
LINE
  8
0
 10
-102.89
 20
-72.215
 11
-102.89
 21
-74.875
  0
LINE
  8
0
 10
-102.89
 20
-74.875
 11
-87.61
 21
-74.875
  0
LINE
  8
0
 10
-87.61
 20
-74.875
 11
-87.61
 21
-72.215
  0
LINE
  8
0
 10
-87.61
 20
-72.215
 11
-72.89
 21
-72.215
  0
LINE
  8
0
 10
-72.89
 20
-72.215
 11
-72.89
 21
-74.875
  0
LINE
  8
0
 10
-72.89
 20
-74.875
 11
-57.61
 21
-74.875
  0
LINE
  8
0
 10
-57.61
 20
-74.875
 11
-57.61
 21
-72.215
  0
LINE
  8
0
 10
-57.61
 20
-72.215
 11
-42.89
 21
-72.215
  0
LINE
  8
0
 10
-42.89
 20
-72.215
 11
-42.89
 21
-74.875
  0
LINE
  8
0
 10
-42.89
 20
-74.875
 11
-35.285
 21
-74.875
  0
LINE
  8
0
 10
-35.285
 20
-74.875
 11
-35.285
 21
-71.39
  0
LINE
  8
0
 10
-35.285
 20
-71.39
 11
-32.625
 21
-71.39
  0
LINE
  8
0
 10
-32.625
 20
-71.39
 11
-32.625
 21
-67.11
  0
LINE
  8
0
 10
-32.625
 20
-67.11
 11
-35.285
 21
-67.11
  0
LINE
  8
0
 10
-35.285
 20
-67.11
 11
-35.285
 21
-63.39
  0
LINE
  8
0
 10
-35.285
 20
-63.39
 11
-32.625
 21
-63.39
  0
LINE
  8
0
 10
-32.625
 20
-63.39
 11
-32.625
 21
-59.11
  0
LINE
  8
0
 10
-32.625
 20
-59.11
 11
-35.285
 21
-59.11
  0
LINE
  8
0
 10
-35.285
 20
-59.11
 11
-35.285
 21
-55.39
  0
LINE
  8
0
 10
-35.285
 20
-55.39
 11
-32.625
 21
-55.39
  0
LINE
  8
0
 10
-32.625
 20
-55.39
 11
-32.625
 21
-51.11
  0
LINE
  8
0
 10
-32.625
 20
-51.11
 11
-35.285
 21
-51.11
  0
LINE
  8
0
 10
-35.285
 20
-51.11
 11
-35.285
 21
-47.625
  0
LINE
  8
0
 10
-35.285
 20
-47.625
 11
-125.215
 21
-47.625
  0
LINE
  8
0
 10
-125.215
 20
-47.625
 11
-125.215
 21
-51.11
  0
LINE
  8
0
 10
-125.215
 20
-51.11
 11
-127.875
 21
-51.11
  0
LINE
  8
0
 10
-127.875
 20
-51.11
 11
-127.875
 21
-55.39
  0
LINE
  8
0
 10
-127.875
 20
-55.39
 11
-125.215
 21
-55.39
  0
LINE
  8
0
 10
-125.215
 20
-55.39
 11
-125.215
 21
-59.11
  0
LINE
  8
0
 10
-125.215
 20
-59.11
 11
-127.875
 21
-59.11
  0
LINE
  8
0
 10
-127.875
 20
-59.11
 11
-127.875
 21
-63.39
  0
LINE
  8
0
 10
-127.875
 20
-63.39
 11
-125.215
 21
-63.39
  0
LINE
  8
0
 10
-125.215
 20
-63.39
 11
-125.215
 21
-67.11
  0
LINE
  8
0
 10
-125.215
 20
-67.11
 11
-127.875
 21
-67.11
  0
LINE
  8
0
 10
-127.875
 20
-67.11
 11
-127.875
 21
-71.39
  0
LINE
  8
0
 10
-127.875
 20
-71.39
 11
-125.215
 21
-71.39
  0
LINE
  8
0
 10
-125.215
 20
-71.39
 11
-125.215
 21
-74.875
  0
LINE
  8
0
 10
-125.215
 20
-74.875
 11
-117.61
 21
-74.875
  0
LINE
  8
0
 10
-117.61
 20
-74.875
 11
-117.61
 21
-72.215
  0
LINE
  8
0
 10
-24.86
 20
-72.215
 11
-15.14
 21
-72.215
  0
LINE
  8
0
 10
-15.14
 20
-72.215
 11
-15.14
 21
-74.875
  0
LINE
  8
0
 10
-15.14
 20
-74.875
 11
-4.85999
 21
-74.875
  0
LINE
  8
0
 10
-4.85999
 20
-74.875
 11
-4.85999
 21
-72.215
  0
LINE
  8
0
 10
-4.85999
 20
-72.215
 11
4.85999
 21
-72.215
  0
LINE
  8
0
 10
4.85999
 20
-72.215
 11
4.85999
 21
-74.875
  0
LINE
  8
0
 10
4.85999
 20
-74.875
 11
15.14
 21
-74.875
  0
LINE
  8
0
 10
15.14
 20
-74.875
 11
15.14
 21
-72.215
  0
LINE
  8
0
 10
15.14
 20
-72.215
 11
24.86
 21
-72.215
  0
LINE
  8
0
 10
24.86
 20
-72.215
 11
24.86
 21
-74.875
  0
LINE
  8
0
 10
24.86
 20
-74.875
 11
29.465
 21
-74.875
  0
LINE
  8
0
 10
29.465
 20
-74.875
 11
29.465
 21
-72.215
  0
LINE
  8
0
 10
29.465
 20
-72.215
 11
32.125
 21
-72.215
  0
LINE
  8
0
 10
32.125
 20
-72.215
 11
32.125
 21
-71.11
  0
LINE
  8
0
 10
32.125
 20
-71.11
 11
29.465
 21
-71.11
  0
LINE
  8
0
 10
29.465
 20
-71.11
 11
29.465
 21
-67.39
  0
LINE
  8
0
 10
29.465
 20
-67.39
 11
32.125
 21
-67.39
  0
LINE
  8
0
 10
32.125
 20
-67.39
 11
32.125
 21
-63.11
  0
LINE
  8
0
 10
32.125
 20
-63.11
 11
29.465
 21
-63.11
  0
LINE
  8
0
 10
29.465
 20
-63.11
 11
29.465
 21
-59.39
  0
LINE
  8
0
 10
29.465
 20
-59.39
 11
32.125
 21
-59.39
  0
LINE
  8
0
 10
32.125
 20
-59.39
 11
32.125
 21
-55.11
  0
LINE
  8
0
 10
32.125
 20
-55.11
 11
29.465
 21
-55.11
  0
LINE
  8
0
 10
29.465
 20
-55.11
 11
29.465
 21
-51.39
  0
LINE
  8
0
 10
29.465
 20
-51.39
 11
32.125
 21
-51.39
  0
LINE
  8
0
 10
32.125
 20
-51.39
 11
32.125
 21
-50.285
  0
LINE
  8
0
 10
32.125
 20
-50.285
 11
29.465
 21
-50.285
  0
LINE
  8
0
 10
29.465
 20
-50.285
 11
29.465
 21
-47.625
  0
LINE
  8
0
 10
29.465
 20
-47.625
 11
-29.465
 21
-47.625
  0
LINE
  8
0
 10
-29.465
 20
-47.625
 11
-29.465
 21
-50.285
  0
LINE
  8
0
 10
-29.465
 20
-50.285
 11
-32.125
 21
-50.285
  0
LINE
  8
0
 10
-32.125
 20
-50.285
 11
-32.125
 21
-51.39
  0
LINE
  8
0
 10
-32.125
 20
-51.39
 11
-29.465
 21
-51.39
  0
LINE
  8
0
 10
-29.465
 20
-51.39
 11
-29.465
 21
-55.11
  0
LINE
  8
0
 10
-29.465
 20
-55.11
 11
-32.125
 21
-55.11
  0
LINE
  8
0
 10
-32.125
 20
-55.11
 11
-32.125
 21
-59.39
  0
LINE
  8
0
 10
-32.125
 20
-59.39
 11
-29.465
 21
-59.39
  0
LINE
  8
0
 10
-29.465
 20
-59.39
 11
-29.465
 21
-63.11
  0
LINE
  8
0
 10
-29.465
 20
-63.11
 11
-32.125
 21
-63.11
  0
LINE
  8
0
 10
-32.125
 20
-63.11
 11
-32.125
 21
-67.39
  0
LINE
  8
0
 10
-32.125
 20
-67.39
 11
-29.465
 21
-67.39
  0
LINE
  8
0
 10
-29.465
 20
-67.39
 11
-29.465
 21
-71.11
  0
LINE
  8
0
 10
-29.465
 20
-71.11
 11
-32.125
 21
-71.11
  0
LINE
  8
0
 10
-32.125
 20
-71.11
 11
-32.125
 21
-72.215
  0
LINE
  8
0
 10
-32.125
 20
-72.215
 11
-29.465
 21
-72.215
  0
LINE
  8
0
 10
-29.465
 20
-72.215
 11
-29.465
 21
-74.875
  0
LINE
  8
0
 10
-29.465
 20
-74.875
 11
-24.86
 21
-74.875
  0
LINE
  8
0
 10
-24.86
 20
-74.875
 11
-24.86
 21
-72.215
  0
LINE
  8
0
 10
-17.6064
 20
-65.375
 11
-17.6064
 21
-56.799
  0
LINE
  8
0
 10
-17.6064
 20
-56.799
 11
-11.0954
 21
-56.799
  0
LINE
  8
0
 10
-11.0954
 20
-56.799
 11
-11.0954
 21
-57.75
  0
LINE
  8
0
 10
-11.0954
 20
-57.75
 11
-16.4424
 21
-57.75
  0
LINE
  8
0
 10
-16.4424
 20
-57.75
 11
-16.4424
 21
-60.511
  0
LINE
  8
0
 10
-16.4424
 20
-60.511
 11
-11.4604
 21
-60.511
  0
LINE
  8
0
 10
-11.4604
 20
-60.511
 11
-11.4604
 21
-61.449
  0
LINE
  8
0
 10
-11.4604
 20
-61.449
 11
-16.4424
 21
-61.449
  0
LINE
  8
0
 10
-16.4424
 20
-61.449
 11
-16.4424
 21
-64.424
  0
LINE
  8
0
 10
-16.4424
 20
-64.424
 11
-10.8454
 21
-64.424
  0
LINE
  8
0
 10
-10.8454
 20
-64.424
 11
-10.8454
 21
-65.375
  0
LINE
  8
0
 10
-10.8454
 20
-65.375
 11
-17.6064
 21
-65.375
  0
LINE
  8
0
 10
10.8359
 20
-65.4092
 11
10.4259
 21
-65.128
  0
LINE
  8
0
 10
10.4259
 20
-65.128
 11
10.1799
 21
-64.6592
  0
LINE
  8
0
 10
10.1799
 20
-64.6592
 11
10.0979
 21
-64.003
  0
LINE
  8
0
 10
10.0979
 20
-64.003
 11
10.0979
 21
-59.581
  0
LINE
  8
0
 10
10.0979
 20
-59.581
 11
9.33589
 21
-59.581
  0
LINE
  8
0
 10
9.33589
 20
-59.581
 11
9.33589
 21
-58.783
  0
LINE
  8
0
 10
9.33589
 20
-58.783
 11
10.1409
 21
-58.783
  0
LINE
  8
0
 10
10.1409
 20
-58.783
 11
10.4629
 21
-57.311
  0
LINE
  8
0
 10
10.4629
 20
-57.311
 11
11.1949
 21
-57.311
  0
LINE
  8
0
 10
11.1949
 20
-57.311
 11
11.1949
 21
-58.783
  0
LINE
  8
0
 10
11.1949
 20
-58.783
 11
12.4049
 21
-58.783
  0
LINE
  8
0
 10
12.4049
 20
-58.783
 11
12.4049
 21
-59.581
  0
LINE
  8
0
 10
12.4049
 20
-59.581
 11
11.1949
 21
-59.581
  0
LINE
  8
0
 10
11.1949
 20
-59.581
 11
11.1949
 21
-63.768
  0
LINE
  8
0
 10
11.1949
 20
-63.768
 11
11.2045
 21
-63.9892
  0
LINE
  8
0
 10
11.2045
 20
-63.9892
 11
11.2334
 21
-64.1747
  0
LINE
  8
0
 10
11.2334
 20
-64.1747
 11
11.2815
 21
-64.3247
  0
LINE
  8
0
 10
11.2815
 20
-64.3247
 11
11.3489
 21
-64.439
  0
LINE
  8
0
 10
11.3489
 20
-64.439
 11
11.4405
 21
-64.5234
  0
LINE
  8
0
 10
11.4405
 20
-64.5234
 11
11.5604
 21
-64.5837
  0
LINE
  8
0
 10
11.5604
 20
-64.5837
 11
11.7085
 21
-64.6199
  0
LINE
  8
0
 10
11.7085
 20
-64.6199
 11
11.8849
 21
-64.632
  0
LINE
  8
0
 10
11.8849
 20
-64.632
 11
12.006
 21
-64.6267
  0
LINE
  8
0
 10
12.006
 20
-64.6267
 11
12.1514
 21
-64.6107
  0
LINE
  8
0
 10
12.1514
 20
-64.6107
 11
12.321
 21
-64.5842
  0
LINE
  8
0
 10
12.321
 20
-64.5842
 11
12.5149
 21
-64.547
  0
LINE
  8
0
 10
12.5149
 20
-64.547
 11
12.5149
 21
-65.357
  0
LINE
  8
0
 10
12.5149
 20
-65.357
 11
12.2433
 21
-65.4209
  0
LINE
  8
0
 10
12.2433
 20
-65.4209
 11
11.9686
 21
-65.4665
  0
LINE
  8
0
 10
11.9686
 20
-65.4665
 11
11.6908
 21
-65.4939
  0
LINE
  8
0
 10
11.6908
 20
-65.4939
 11
11.4099
 21
-65.503
  0
LINE
  8
0
 10
11.4099
 20
-65.503
 11
10.8359
 21
-65.4092
  0
LINE
  8
0
 10
3.23358
 20
-65.375
 11
3.23358
 21
-60.19
  0
LINE
  8
0
 10
3.23358
 20
-60.19
 11
3.23132
 21
-59.6704
  0
LINE
  8
0
 10
3.23132
 20
-59.6704
 11
3.22458
 21
-59.2628
  0
LINE
  8
0
 10
3.22458
 20
-59.2628
 11
3.21332
 21
-58.9669
  0
LINE
  8
0
 10
3.21332
 20
-58.9669
 11
3.19757
 21
-58.783
  0
LINE
  8
0
 10
3.19757
 20
-58.783
 11
4.23257
 21
-58.783
  0
LINE
  8
0
 10
4.23257
 20
-58.783
 11
4.23857
 21
-58.839
  0
LINE
  8
0
 10
4.23857
 20
-58.839
 11
4.26526
 21
-59.3586
  0
LINE
  8
0
 10
4.26526
 20
-59.3586
 11
4.28157
 21
-59.905
  0
LINE
  8
0
 10
4.28157
 20
-59.905
 11
4.29958
 21
-59.905
  0
LINE
  8
0
 10
4.29958
 20
-59.905
 11
4.49495
 21
-59.5885
  0
LINE
  8
0
 10
4.49495
 20
-59.5885
 11
4.70508
 21
-59.322
  0
LINE
  8
0
 10
4.70508
 20
-59.322
 11
4.92995
 21
-59.1055
  0
LINE
  8
0
 10
4.92995
 20
-59.1055
 11
5.16957
 21
-58.939
  0
LINE
  8
0
 10
5.16957
 20
-58.939
 11
5.43158
 21
-58.8148
  0
LINE
  8
0
 10
5.43158
 20
-58.8148
 11
5.72357
 21
-58.726
  0
LINE
  8
0
 10
5.72357
 20
-58.726
 11
6.04558
 21
-58.6728
  0
LINE
  8
0
 10
6.04558
 20
-58.6728
 11
6.39757
 21
-58.655
  0
LINE
  8
0
 10
6.39757
 20
-58.655
 11
6.90089
 21
-58.6888
  0
LINE
  8
0
 10
6.90089
 20
-58.6888
 11
7.33182
 21
-58.79
  0
LINE
  8
0
 10
7.33182
 20
-58.79
 11
7.69038
 21
-58.9588
  0
LINE
  8
0
 10
7.69038
 20
-58.9588
 11
7.97658
 21
-59.195
  0
LINE
  8
0
 10
7.97658
 20
-59.195
 11
8.19533
 21
-59.5086
  0
LINE
  8
0
 10
8.19533
 20
-59.5086
 11
8.35158
 21
-59.9103
  0
LINE
  8
0
 10
8.35158
 20
-59.9103
 11
8.44533
 21
-60.4001
  0
LINE
  8
0
 10
8.44533
 20
-60.4001
 11
8.47658
 21
-60.978
  0
LINE
  8
0
 10
8.47658
 20
-60.978
 11
8.47658
 21
-65.375
  0
LINE
  8
0
 10
8.47658
 20
-65.375
 11
7.37358
 21
-65.375
  0
LINE
  8
0
 10
7.37358
 20
-65.375
 11
7.37358
 21
-61.191
  0
LINE
  8
0
 10
7.37358
 20
-61.191
 11
7.36563
 21
-60.8833
  0
LINE
  8
0
 10
7.36563
 20
-60.8833
 11
7.34183
 21
-60.612
  0
LINE
  8
0
 10
7.34183
 20
-60.612
 11
7.30214
 21
-60.3773
  0
LINE
  8
0
 10
7.30214
 20
-60.3773
 11
7.24658
 21
-60.179
  0
LINE
  8
0
 10
7.24658
 20
-60.179
 11
7.17357
 21
-60.0116
  0
LINE
  8
0
 10
7.17357
 20
-60.0116
 11
7.08157
 21
-59.8695
  0
LINE
  8
0
 10
7.08157
 20
-59.8695
 11
6.97058
 21
-59.7526
  0
LINE
  8
0
 10
6.97058
 20
-59.7526
 11
6.84058
 21
-59.661
  0
LINE
  8
0
 10
6.84058
 20
-59.661
 11
6.68532
 21
-59.5914
  0
LINE
  8
0
 10
6.68532
 20
-59.5914
 11
6.49757
 21
-59.5418
  0
LINE
  8
0
 10
6.49757
 20
-59.5418
 11
6.27733
 21
-59.5119
  0
LINE
  8
0
 10
6.27733
 20
-59.5119
 11
6.02458
 21
-59.502
  0
LINE
  8
0
 10
6.02458
 20
-59.502
 11
5.65189
 21
-59.5359
  0
LINE
  8
0
 10
5.65189
 20
-59.5359
 11
5.32083
 21
-59.6378
  0
LINE
  8
0
 10
5.32083
 20
-59.6378
 11
5.03139
 21
-59.8074
  0
LINE
  8
0
 10
5.03139
 20
-59.8074
 11
4.78357
 21
-60.045
  0
LINE
  8
0
 10
4.78357
 20
-60.045
 11
4.58539
 21
-60.3428
  0
LINE
  8
0
 10
4.58539
 20
-60.3428
 11
4.44382
 21
-60.693
  0
LINE
  8
0
 10
4.44382
 20
-60.693
 11
4.35889
 21
-61.0958
  0
LINE
  8
0
 10
4.35889
 20
-61.0958
 11
4.33058
 21
-61.551
  0
LINE
  8
0
 10
4.33058
 20
-61.551
 11
4.33058
 21
-65.375
  0
LINE
  8
0
 10
4.33058
 20
-65.375
 11
3.23358
 21
-65.375
  0
LINE
  8
0
 10
15.0825
 20
-65.4777
 11
14.5701
 21
-65.4017
  0
LINE
  8
0
 10
14.5701
 20
-65.4017
 11
14.1285
 21
-65.2752
  0
LINE
  8
0
 10
14.1285
 20
-65.2752
 11
13.7576
 21
-65.098
  0
LINE
  8
0
 10
13.7576
 20
-65.098
 11
13.4514
 21
-64.8667
  0
LINE
  8
0
 10
13.4514
 20
-64.8667
 11
13.2039
 21
-64.5787
  0
LINE
  8
0
 10
13.2039
 20
-64.5787
 11
13.015
 21
-64.2342
  0
LINE
  8
0
 10
13.015
 20
-64.2342
 11
12.8846
 21
-63.833
  0
LINE
  8
0
 10
12.8846
 20
-63.833
 11
13.8536
 21
-63.644
  0
LINE
  8
0
 10
13.8536
 20
-63.644
 11
13.9429
 21
-63.8913
  0
LINE
  8
0
 10
13.9429
 20
-63.8913
 11
14.0699
 21
-64.1032
  0
LINE
  8
0
 10
14.0699
 20
-64.1032
 11
14.2345
 21
-64.2798
  0
LINE
  8
0
 10
14.2345
 20
-64.2798
 11
14.4366
 21
-64.421
  0
LINE
  8
0
 10
14.4366
 20
-64.421
 11
14.6796
 21
-64.5291
  0
LINE
  8
0
 10
14.6796
 20
-64.5291
 11
14.9656
 21
-64.6062
  0
LINE
  8
0
 10
14.9656
 20
-64.6062
 11
15.2946
 21
-64.6526
  0
LINE
  8
0
 10
15.2946
 20
-64.6526
 11
15.6666
 21
-64.668
  0
LINE
  8
0
 10
15.6666
 20
-64.668
 11
16.0594
 21
-64.6519
  0
LINE
  8
0
 10
16.0594
 20
-64.6519
 11
16.3956
 21
-64.6035
  0
LINE
  8
0
 10
16.3956
 20
-64.6035
 11
16.6754
 21
-64.5229
  0
LINE
  8
0
 10
16.6754
 20
-64.5229
 11
16.8986
 21
-64.41
  0
LINE
  8
0
 10
16.8986
 20
-64.41
 11
17.0693
 21
-64.2649
  0
LINE
  8
0
 10
17.0693
 20
-64.2649
 11
17.1911
 21
-64.0875
  0
LINE
  8
0
 10
17.1911
 20
-64.0875
 11
17.2643
 21
-63.8779
  0
LINE
  8
0
 10
17.2643
 20
-63.8779
 11
17.2886
 21
-63.636
  0
LINE
  8
0
 10
17.2886
 20
-63.636
 11
17.2718
 21
-63.4492
  0
LINE
  8
0
 10
17.2718
 20
-63.4492
 11
17.2211
 21
-63.281
  0
LINE
  8
0
 10
17.2211
 20
-63.281
 11
17.1368
 21
-63.1312
  0
LINE
  8
0
 10
17.1368
 20
-63.1312
 11
17.0186
 21
-63
  0
LINE
  8
0
 10
17.0186
 20
-63
 11
16.8629
 21
-62.8829
  0
LINE
  8
0
 10
16.8629
 20
-62.8829
 11
16.6659
 21
-62.7765
  0
LINE
  8
0
 10
16.6659
 20
-62.7765
 11
16.4274
 21
-62.6809
  0
LINE
  8
0
 10
16.4274
 20
-62.6809
 11
16.1476
 21
-62.596
  0
LINE
  8
0
 10
16.1476
 20
-62.596
 11
15.3566
 21
-62.388
  0
LINE
  8
0
 10
15.3566
 20
-62.388
 11
14.9155
 21
-62.2661
  0
LINE
  8
0
 10
14.9155
 20
-62.2661
 11
14.5429
 21
-62.1455
  0
LINE
  8
0
 10
14.5429
 20
-62.1455
 11
14.239
 21
-62.0261
  0
LINE
  8
0
 10
14.239
 20
-62.0261
 11
14.0036
 21
-61.908
  0
LINE
  8
0
 10
14.0036
 20
-61.908
 11
13.8136
 21
-61.7837
  0
LINE
  8
0
 10
13.8136
 20
-61.7837
 11
13.6454
 21
-61.647
  0
LINE
  8
0
 10
13.6454
 20
-61.647
 11
13.4991
 21
-61.4977
  0
LINE
  8
0
 10
13.4991
 20
-61.4977
 11
13.3746
 21
-61.336
  0
LINE
  8
0
 10
13.3746
 20
-61.336
 11
13.2753
 21
-61.1579
  0
LINE
  8
0
 10
13.2753
 20
-61.1579
 11
13.2044
 21
-60.9608
  0
LINE
  8
0
 10
13.2044
 20
-60.9608
 11
13.1618
 21
-60.7444
  0
LINE
  8
0
 10
13.1618
 20
-60.7444
 11
13.1476
 21
-60.509
  0
LINE
  8
0
 10
13.1476
 20
-60.509
 11
13.188
 21
-60.083
  0
LINE
  8
0
 10
13.188
 20
-60.083
 11
13.3091
 21
-59.711
  0
LINE
  8
0
 10
13.3091
 20
-59.711
 11
13.511
 21
-59.393
  0
LINE
  8
0
 10
13.511
 20
-59.393
 11
13.7936
 21
-59.129
  0
LINE
  8
0
 10
13.7936
 20
-59.129
 11
14.1536
 21
-58.9216
  0
LINE
  8
0
 10
14.1536
 20
-58.9216
 11
14.5876
 21
-58.7735
  0
LINE
  8
0
 10
14.5876
 20
-58.7735
 11
15.0956
 21
-58.6846
  0
LINE
  8
0
 10
15.0956
 20
-58.6846
 11
15.6776
 21
-58.655
  0
LINE
  8
0
 10
15.6776
 20
-58.655
 11
16.1975
 21
-58.679
  0
LINE
  8
0
 10
16.1975
 20
-58.679
 11
16.6611
 21
-58.751
  0
LINE
  8
0
 10
16.6611
 20
-58.751
 11
17.0685
 21
-58.871
  0
LINE
  8
0
 10
17.0685
 20
-58.871
 11
17.4196
 21
-59.039
  0
LINE
  8
0
 10
17.4196
 20
-59.039
 11
17.713
 21
-59.2599
  0
LINE
  8
0
 10
17.713
 20
-59.2599
 11
17.9471
 21
-59.5388
  0
LINE
  8
0
 10
17.9471
 20
-59.5388
 11
18.122
 21
-59.8754
  0
LINE
  8
0
 10
18.122
 20
-59.8754
 11
18.2376
 21
-60.27
  0
LINE
  8
0
 10
18.2376
 20
-60.27
 11
17.2506
 21
-60.392
  0
LINE
  8
0
 10
17.2506
 20
-60.392
 11
17.1852
 21
-60.1853
  0
LINE
  8
0
 10
17.1852
 20
-60.1853
 11
17.0809
 21
-60.0043
  0
LINE
  8
0
 10
17.0809
 20
-60.0043
 11
16.9377
 21
-59.8488
  0
LINE
  8
0
 10
16.9377
 20
-59.8488
 11
16.7556
 21
-59.719
  0
LINE
  8
0
 10
16.7556
 20
-59.719
 11
16.5375
 21
-59.6162
  0
LINE
  8
0
 10
16.5375
 20
-59.6162
 11
16.2851
 21
-59.5428
  0
LINE
  8
0
 10
16.2851
 20
-59.5428
 11
15.9985
 21
-59.4987
  0
LINE
  8
0
 10
15.9985
 20
-59.4987
 11
15.6776
 21
-59.484
  0
LINE
  8
0
 10
15.6776
 20
-59.484
 11
15.3272
 21
-59.4982
  0
LINE
  8
0
 10
15.3272
 20
-59.4982
 11
15.0259
 21
-59.5408
  0
LINE
  8
0
 10
15.0259
 20
-59.5408
 11
14.7737
 21
-59.6117
  0
LINE
  8
0
 10
14.7737
 20
-59.6117
 11
14.5706
 21
-59.711
  0
LINE
  8
0
 10
14.5706
 20
-59.711
 11
14.4149
 21
-59.8391
  0
LINE
  8
0
 10
14.4149
 20
-59.8391
 11
14.3036
 21
-59.9965
  0
LINE
  8
0
 10
14.3036
 20
-59.9965
 11
14.2369
 21
-60.1831
  0
LINE
  8
0
 10
14.2369
 20
-60.1831
 11
14.2146
 21
-60.399
  0
LINE
  8
0
 10
14.2146
 20
-60.399
 11
14.2238
 21
-60.5339
  0
LINE
  8
0
 10
14.2238
 20
-60.5339
 11
14.2514
 21
-60.6565
  0
LINE
  8
0
 10
14.2514
 20
-60.6565
 11
14.2973
 21
-60.7669
  0
LINE
  8
0
 10
14.2973
 20
-60.7669
 11
14.3616
 21
-60.865
  0
LINE
  8
0
 10
14.3616
 20
-60.865
 11
14.444
 21
-60.9531
  0
LINE
  8
0
 10
14.444
 20
-60.9531
 11
14.5439
 21
-61.0345
  0
LINE
  8
0
 10
14.5439
 20
-61.0345
 11
14.6615
 21
-61.1091
  0
LINE
  8
0
 10
14.6615
 20
-61.1091
 11
14.7966
 21
-61.177
  0
LINE
  8
0
 10
14.7966
 20
-61.177
 11
14.981
 21
-61.2471
  0
LINE
  8
0
 10
14.981
 20
-61.2471
 11
15.2449
 21
-61.3295
  0
LINE
  8
0
 10
15.2449
 20
-61.3295
 11
15.5885
 21
-61.4241
  0
LINE
  8
0
 10
15.5885
 20
-61.4241
 11
16.0116
 21
-61.531
  0
LINE
  8
0
 10
16.0116
 20
-61.531
 11
16.4194
 21
-61.6389
  0
LINE
  8
0
 10
16.4194
 20
-61.6389
 11
16.7659
 21
-61.7427
  0
LINE
  8
0
 10
16.7659
 20
-61.7427
 11
17.0509
 21
-61.8424
  0
LINE
  8
0
 10
17.0509
 20
-61.8424
 11
17.2746
 21
-61.938
  0
LINE
  8
0
 10
17.2746
 20
-61.938
 11
17.4579
 21
-62.034
  0
LINE
  8
0
 10
17.4579
 20
-62.034
 11
17.6209
 21
-62.135
  0
LINE
  8
0
 10
17.6209
 20
-62.135
 11
17.7634
 21
-62.241
  0
LINE
  8
0
 10
17.7634
 20
-62.241
 11
17.8856
 21
-62.352
  0
LINE
  8
0
 10
17.8856
 20
-62.352
 11
17.9913
 21
-62.4694
  0
LINE
  8
0
 10
17.9913
 20
-62.4694
 11
18.0841
 21
-62.5957
  0
LINE
  8
0
 10
18.0841
 20
-62.5957
 11
18.1643
 21
-62.7309
  0
LINE
  8
0
 10
18.1643
 20
-62.7309
 11
18.2316
 21
-62.875
  0
LINE
  8
0
 10
18.2316
 20
-62.875
 11
18.2854
 21
-63.0282
  0
LINE
  8
0
 10
18.2854
 20
-63.0282
 11
18.3239
 21
-63.192
  0
LINE
  8
0
 10
18.3239
 20
-63.192
 11
18.347
 21
-63.3662
  0
LINE
  8
0
 10
18.347
 20
-63.3662
 11
18.3546
 21
-63.551
  0
LINE
  8
0
 10
18.3546
 20
-63.551
 11
18.3104
 21
-63.9922
  0
LINE
  8
0
 10
18.3104
 20
-63.9922
 11
18.1776
 21
-64.38
  0
LINE
  8
0
 10
18.1776
 20
-64.38
 11
17.9564
 21
-64.7142
  0
LINE
  8
0
 10
17.9564
 20
-64.7142
 11
17.6466
 21
-64.995
  0
LINE
  8
0
 10
17.6466
 20
-64.995
 11
17.2577
 21
-65.2172
  0
LINE
  8
0
 10
17.2577
 20
-65.2172
 11
16.7979
 21
-65.376
  0
LINE
  8
0
 10
16.7979
 20
-65.376
 11
16.2672
 21
-65.4712
  0
LINE
  8
0
 10
16.2672
 20
-65.4712
 11
15.6656
 21
-65.503
  0
LINE
  8
0
 10
15.6656
 20
-65.503
 11
15.0825
 21
-65.4777
  0
LINE
  8
0
 10
-1.58379
 20
-65.4484
 11
-2.18198
 21
-65.2847
  0
LINE
  8
0
 10
-2.18198
 20
-65.2847
 11
-2.6933
 21
-65.0119
  0
LINE
  8
0
 10
-2.6933
 20
-65.0119
 11
-3.11774
 21
-64.63
  0
LINE
  8
0
 10
-3.11774
 20
-64.63
 11
-3.45067
 21
-64.1405
  0
LINE
  8
0
 10
-3.45067
 20
-64.1405
 11
-3.68848
 21
-63.545
  0
LINE
  8
0
 10
-3.68848
 20
-63.545
 11
-3.83116
 21
-62.8435
  0
LINE
  8
0
 10
-3.83116
 20
-62.8435
 11
-3.87872
 21
-62.036
  0
LINE
  8
0
 10
-3.87872
 20
-62.036
 11
-3.83116
 21
-61.2661
  0
LINE
  8
0
 10
-3.83116
 20
-61.2661
 11
-3.68848
 21
-60.5915
  0
LINE
  8
0
 10
-3.68848
 20
-60.5915
 11
-3.45067
 21
-60.0121
  0
LINE
  8
0
 10
-3.45067
 20
-60.0121
 11
-3.11774
 21
-59.528
  0
LINE
  8
0
 10
-3.11774
 20
-59.528
 11
-2.69598
 21
-59.1461
  0
LINE
  8
0
 10
-2.69598
 20
-59.1461
 11
-2.19273
 21
-58.8733
  0
LINE
  8
0
 10
-2.19273
 20
-58.8733
 11
-1.60799
 21
-58.7096
  0
LINE
  8
0
 10
-1.60799
 20
-58.7096
 11
-0.941727
 21
-58.655
  0
LINE
  8
0
 10
-0.941727
 20
-58.655
 11
0.324814
 21
-58.8744
  0
LINE
  8
0
 10
0.324814
 20
-58.8744
 11
1.22951
 21
-59.5325
  0
LINE
  8
0
 10
1.22951
 20
-59.5325
 11
1.77232
 21
-60.6294
  0
LINE
  8
0
 10
1.77232
 20
-60.6294
 11
1.95325
 21
-62.165
  0
LINE
  8
0
 10
1.95325
 20
-62.165
 11
1.95325
 21
-62.312
  0
LINE
  8
0
 10
1.95325
 20
-62.312
 11
-2.72673
 21
-62.312
  0
LINE
  8
0
 10
-2.72673
 20
-62.312
 11
-2.6976
 21
-62.8471
  0
LINE
  8
0
 10
-2.6976
 20
-62.8471
 11
-2.61023
 21
-63.3175
  0
LINE
  8
0
 10
-2.61023
 20
-63.3175
 11
-2.4646
 21
-63.7231
  0
LINE
  8
0
 10
-2.4646
 20
-63.7231
 11
-2.26073
 21
-64.064
  0
LINE
  8
0
 10
-2.26073
 20
-64.064
 11
-2.00085
 21
-64.3335
  0
LINE
  8
0
 10
-2.00085
 20
-64.3335
 11
-1.68723
 21
-64.526
  0
LINE
  8
0
 10
-1.68723
 20
-64.526
 11
-1.31985
 21
-64.6415
  0
LINE
  8
0
 10
-1.31985
 20
-64.6415
 11
-0.898727
 21
-64.68
  0
LINE
  8
0
 10
-0.898727
 20
-64.68
 11
-0.562286
 21
-64.6617
  0
LINE
  8
0
 10
-0.562286
 20
-64.6617
 11
-0.260986
 21
-64.607
  0
LINE
  8
0
 10
-0.260986
 20
-64.607
 11
0.00518799
 21
-64.5157
  0
LINE
  8
0
 10
0.00518799
 20
-64.5157
 11
0.236252
 21
-64.388
  0
LINE
  8
0
 10
0.236252
 20
-64.388
 11
0.43251
 21
-64.2318
  0
LINE
  8
0
 10
0.43251
 20
-64.2318
 11
0.594254
 21
-64.0562
  0
LINE
  8
0
 10
0.594254
 20
-64.0562
 11
0.721497
 21
-63.8613
  0
LINE
  8
0
 10
0.721497
 20
-63.8613
 11
0.814255
 21
-63.647
  0
LINE
  8
0
 10
0.814255
 20
-63.647
 11
1.77725
 21
-63.924
  0
LINE
  8
0
 10
1.77725
 20
-63.924
 11
1.38913
 21
-64.6148
  0
LINE
  8
0
 10
1.38913
 20
-64.6148
 11
0.813751
 21
-65.1082
  0
LINE
  8
0
 10
0.813751
 20
-65.1082
 11
0.0511322
 21
-65.4043
  0
LINE
  8
0
 10
0.0511322
 20
-65.4043
 11
-0.898727
 21
-65.503
  0
LINE
  8
0
 10
-0.898727
 20
-65.503
 11
-1.58379
 21
-65.4484
  0
LINE
  8
0
 10
0.753189
 20
-60.9834
 11
0.643005
 21
-60.5665
  0
LINE
  8
0
 10
0.643005
 20
-60.5665
 11
0.489685
 21
-60.2204
  0
LINE
  8
0
 10
0.489685
 20
-60.2204
 11
0.293259
 21
-59.945
  0
LINE
  8
0
 10
0.293259
 20
-59.945
 11
0.0518188
 21
-59.735
  0
LINE
  8
0
 10
0.0518188
 20
-59.735
 11
-0.237488
 21
-59.585
  0
LINE
  8
0
 10
-0.237488
 20
-59.585
 11
-0.574661
 21
-59.495
  0
LINE
  8
0
 10
-0.574661
 20
-59.495
 11
-0.959732
 21
-59.465
  0
LINE
  8
0
 10
-0.959732
 20
-59.465
 11
-1.3356
 21
-59.4984
  0
LINE
  8
0
 10
-1.3356
 20
-59.4984
 11
-1.67023
 21
-59.5988
  0
LINE
  8
0
 10
-1.67023
 20
-59.5988
 11
-1.96361
 21
-59.7659
  0
LINE
  8
0
 10
-1.96361
 20
-59.7659
 11
-2.21573
 21
-60
  0
LINE
  8
0
 10
-2.21573
 20
-60
 11
-2.42055
 21
-60.2926
  0
LINE
  8
0
 10
-2.42055
 20
-60.2926
 11
-2.57198
 21
-60.6353
  0
LINE
  8
0
 10
-2.57198
 20
-60.6353
 11
-2.67004
 21
-61.0281
  0
LINE
  8
0
 10
-2.67004
 20
-61.0281
 11
-2.71474
 21
-61.471
  0
LINE
  8
0
 10
-2.71474
 20
-61.471
 11
0.820251
 21
-61.471
  0
LINE
  8
0
 10
0.820251
 20
-61.471
 11
0.753189
 21
-60.9834
  0
LINE
  8
0
 10
-8.04648
 20
-65.375
 11
-10.4575
 21
-58.783
  0
LINE
  8
0
 10
-10.4575
 20
-58.783
 11
-9.28748
 21
-58.783
  0
LINE
  8
0
 10
-9.28748
 20
-58.783
 11
-7.82549
 21
-63.072
  0
LINE
  8
0
 10
-7.82549
 20
-63.072
 11
-7.76898
 21
-63.2537
  0
LINE
  8
0
 10
-7.76898
 20
-63.2537
 11
-7.67947
 21
-63.555
  0
LINE
  8
0
 10
-7.67947
 20
-63.555
 11
-7.40147
 21
-64.516
  0
LINE
  8
0
 10
-7.40147
 20
-64.516
 11
-7.18648
 21
-63.803
  0
LINE
  8
0
 10
-7.18648
 20
-63.803
 11
-6.94649
 21
-63.084
  0
LINE
  8
0
 10
-6.94649
 20
-63.084
 11
-5.43549
 21
-58.783
  0
LINE
  8
0
 10
-5.43549
 20
-58.783
 11
-4.27148
 21
-58.783
  0
LINE
  8
0
 10
-4.27148
 20
-58.783
 11
-6.74948
 21
-65.375
  0
LINE
  8
0
 10
-6.74948
 20
-65.375
 11
-8.04648
 21
-65.375
  0
LINE
  8
0
 10
42.89
 20
-72.215
 11
57.61
 21
-72.215
  0
LINE
  8
0
 10
57.61
 20
-72.215
 11
57.61
 21
-74.875
  0
LINE
  8
0
 10
57.61
 20
-74.875
 11
72.89
 21
-74.875
  0
LINE
  8
0
 10
72.89
 20
-74.875
 11
72.89
 21
-72.215
  0
LINE
  8
0
 10
72.89
 20
-72.215
 11
87.61
 21
-72.215
  0
LINE
  8
0
 10
87.61
 20
-72.215
 11
87.61
 21
-74.875
  0
LINE
  8
0
 10
87.61
 20
-74.875
 11
102.89
 21
-74.875
  0
LINE
  8
0
 10
102.89
 20
-74.875
 11
102.89
 21
-72.215
  0
LINE
  8
0
 10
102.89
 20
-72.215
 11
117.61
 21
-72.215
  0
LINE
  8
0
 10
117.61
 20
-72.215
 11
117.61
 21
-74.875
  0
LINE
  8
0
 10
117.61
 20
-74.875
 11
125.215
 21
-74.875
  0
LINE
  8
0
 10
125.215
 20
-74.875
 11
125.215
 21
-71.39
  0
LINE
  8
0
 10
125.215
 20
-71.39
 11
127.875
 21
-71.39
  0
LINE
  8
0
 10
127.875
 20
-71.39
 11
127.875
 21
-67.11
  0
LINE
  8
0
 10
127.875
 20
-67.11
 11
125.215
 21
-67.11
  0
LINE
  8
0
 10
125.215
 20
-67.11
 11
125.215
 21
-63.39
  0
LINE
  8
0
 10
125.215
 20
-63.39
 11
127.875
 21
-63.39
  0
LINE
  8
0
 10
127.875
 20
-63.39
 11
127.875
 21
-59.11
  0
LINE
  8
0
 10
127.875
 20
-59.11
 11
125.215
 21
-59.11
  0
LINE
  8
0
 10
125.215
 20
-59.11
 11
125.215
 21
-55.39
  0
LINE
  8
0
 10
125.215
 20
-55.39
 11
127.875
 21
-55.39
  0
LINE
  8
0
 10
127.875
 20
-55.39
 11
127.875
 21
-51.11
  0
LINE
  8
0
 10
127.875
 20
-51.11
 11
125.215
 21
-51.11
  0
LINE
  8
0
 10
125.215
 20
-51.11
 11
125.215
 21
-47.625
  0
LINE
  8
0
 10
125.215
 20
-47.625
 11
35.285
 21
-47.625
  0
LINE
  8
0
 10
35.285
 20
-47.625
 11
35.285
 21
-51.11
  0
LINE
  8
0
 10
35.285
 20
-51.11
 11
32.625
 21
-51.11
  0
LINE
  8
0
 10
32.625
 20
-51.11
 11
32.625
 21
-55.39
  0
LINE
  8
0
 10
32.625
 20
-55.39
 11
35.285
 21
-55.39
  0
LINE
  8
0
 10
35.285
 20
-55.39
 11
35.285
 21
-59.11
  0
LINE
  8
0
 10
35.285
 20
-59.11
 11
32.625
 21
-59.11
  0
LINE
  8
0
 10
32.625
 20
-59.11
 11
32.625
 21
-63.39
  0
LINE
  8
0
 10
32.625
 20
-63.39
 11
35.285
 21
-63.39
  0
LINE
  8
0
 10
35.285
 20
-63.39
 11
35.285
 21
-67.11
  0
LINE
  8
0
 10
35.285
 20
-67.11
 11
32.625
 21
-67.11
  0
LINE
  8
0
 10
32.625
 20
-67.11
 11
32.625
 21
-71.39
  0
LINE
  8
0
 10
32.625
 20
-71.39
 11
35.285
 21
-71.39
  0
LINE
  8
0
 10
35.285
 20
-71.39
 11
35.285
 21
-74.875
  0
LINE
  8
0
 10
35.285
 20
-74.875
 11
42.89
 21
-74.875
  0
LINE
  8
0
 10
42.89
 20
-74.875
 11
42.89
 21
-72.215
  0
LINE
  8
0
 10
-14.86
 20
-167.965
 11
-5.14
 21
-167.965
  0
LINE
  8
0
 10
-5.14
 20
-167.965
 11
-5.14
 21
-170.625
  0
LINE
  8
0
 10
-5.14
 20
-170.625
 11
5.13998
 21
-170.625
  0
LINE
  8
0
 10
5.13998
 20
-170.625
 11
5.13998
 21
-167.965
  0
LINE
  8
0
 10
5.13998
 20
-167.965
 11
14.86
 21
-167.965
  0
LINE
  8
0
 10
14.86
 20
-167.965
 11
14.86
 21
-170.625
  0
LINE
  8
0
 10
14.86
 20
-170.625
 11
25.14
 21
-170.625
  0
LINE
  8
0
 10
25.14
 20
-170.625
 11
25.14
 21
-167.965
  0
LINE
  8
0
 10
25.14
 20
-167.965
 11
29.465
 21
-167.965
  0
LINE
  8
0
 10
29.465
 20
-167.965
 11
29.465
 21
-160.64
  0
LINE
  8
0
 10
29.465
 20
-160.64
 11
32.125
 21
-160.64
  0
LINE
  8
0
 10
32.125
 20
-160.64
 11
32.125
 21
-145.36
  0
LINE
  8
0
 10
32.125
 20
-145.36
 11
29.465
 21
-145.36
  0
LINE
  8
0
 10
29.465
 20
-145.36
 11
29.465
 21
-130.64
  0
LINE
  8
0
 10
29.465
 20
-130.64
 11
32.125
 21
-130.64
  0
LINE
  8
0
 10
32.125
 20
-130.64
 11
32.125
 21
-115.36
  0
LINE
  8
0
 10
32.125
 20
-115.36
 11
29.465
 21
-115.36
  0
LINE
  8
0
 10
29.465
 20
-115.36
 11
29.465
 21
-100.64
  0
LINE
  8
0
 10
29.465
 20
-100.64
 11
32.125
 21
-100.64
  0
LINE
  8
0
 10
32.125
 20
-100.64
 11
32.125
 21
-85.36
  0
LINE
  8
0
 10
32.125
 20
-85.36
 11
29.465
 21
-85.36
  0
LINE
  8
0
 10
29.465
 20
-85.36
 11
29.465
 21
-78.035
  0
LINE
  8
0
 10
29.465
 20
-78.035
 11
25.14
 21
-78.035
  0
LINE
  8
0
 10
25.14
 20
-78.035
 11
25.14
 21
-75.375
  0
LINE
  8
0
 10
25.14
 20
-75.375
 11
14.86
 21
-75.375
  0
LINE
  8
0
 10
14.86
 20
-75.375
 11
14.86
 21
-78.035
  0
LINE
  8
0
 10
14.86
 20
-78.035
 11
5.14
 21
-78.035
  0
LINE
  8
0
 10
5.14
 20
-78.035
 11
5.14
 21
-75.375
  0
LINE
  8
0
 10
5.14
 20
-75.375
 11
-5.14
 21
-75.375
  0
LINE
  8
0
 10
-5.14
 20
-75.375
 11
-5.14
 21
-78.035
  0
LINE
  8
0
 10
-5.14
 20
-78.035
 11
-14.86
 21
-78.035
  0
LINE
  8
0
 10
-14.86
 20
-78.035
 11
-14.86
 21
-75.375
  0
LINE
  8
0
 10
-14.86
 20
-75.375
 11
-25.14
 21
-75.375
  0
LINE
  8
0
 10
-25.14
 20
-75.375
 11
-25.14
 21
-78.035
  0
LINE
  8
0
 10
-25.14
 20
-78.035
 11
-29.465
 21
-78.035
  0
LINE
  8
0
 10
-29.465
 20
-78.035
 11
-29.465
 21
-85.36
  0
LINE
  8
0
 10
-29.465
 20
-85.36
 11
-32.125
 21
-85.36
  0
LINE
  8
0
 10
-32.125
 20
-85.36
 11
-32.125
 21
-100.64
  0
LINE
  8
0
 10
-32.125
 20
-100.64
 11
-29.465
 21
-100.64
  0
LINE
  8
0
 10
-29.465
 20
-100.64
 11
-29.465
 21
-115.36
  0
LINE
  8
0
 10
-29.465
 20
-115.36
 11
-32.125
 21
-115.36
  0
LINE
  8
0
 10
-32.125
 20
-115.36
 11
-32.125
 21
-130.64
  0
LINE
  8
0
 10
-32.125
 20
-130.64
 11
-29.465
 21
-130.64
  0
LINE
  8
0
 10
-29.465
 20
-130.64
 11
-29.465
 21
-145.36
  0
LINE
  8
0
 10
-29.465
 20
-145.36
 11
-32.125
 21
-145.36
  0
LINE
  8
0
 10
-32.125
 20
-145.36
 11
-32.125
 21
-160.64
  0
LINE
  8
0
 10
-32.125
 20
-160.64
 11
-29.465
 21
-160.64
  0
LINE
  8
0
 10
-29.465
 20
-160.64
 11
-29.465
 21
-167.965
  0
LINE
  8
0
 10
-29.465
 20
-167.965
 11
-25.14
 21
-167.965
  0
LINE
  8
0
 10
-25.14
 20
-167.965
 11
-25.14
 21
-170.625
  0
LINE
  8
0
 10
-25.14
 20
-170.625
 11
-14.86
 21
-170.625
  0
LINE
  8
0
 10
-14.86
 20
-170.625
 11
-14.86
 21
-167.965
  0
ENDSEC
  0
SECTION
  2
OBJECTS
  0
DICTIONARY
  0
ENDSEC
  0
EOF
