  0
SECTION
  2
BLOCKS
  0
ENDSEC
  0
SECTION
  2
ENTITIES
  0
LINE
  8
0
 10
-117.4
 20
-65.2
 11
-102.6
 21
-65.2
  0
LINE
  8
0
 10
-102.6
 20
-65.2
 11
-102.6
 21
-68.5
  0
LINE
  8
0
 10
-102.6
 20
-68.5
 11
-87.4
 21
-68.5
  0
LINE
  8
0
 10
-87.4
 20
-68.5
 11
-87.4
 21
-65.2
  0
LINE
  8
0
 10
-87.4
 20
-65.2
 11
-72.6
 21
-65.2
  0
LINE
  8
0
 10
-72.6
 20
-65.2
 11
-72.6
 21
-68.5
  0
LINE
  8
0
 10
-72.6
 20
-68.5
 11
-57.4
 21
-68.5
  0
LINE
  8
0
 10
-57.4
 20
-68.5
 11
-57.4
 21
-65.2
  0
LINE
  8
0
 10
-57.4
 20
-65.2
 11
-42.6
 21
-65.2
  0
LINE
  8
0
 10
-42.6
 20
-65.2
 11
-42.6
 21
-68.5
  0
LINE
  8
0
 10
-42.6
 20
-68.5
 11
-35.8
 21
-68.5
  0
LINE
  8
0
 10
-35.8
 20
-68.5
 11
-35.8
 21
-65.2
  0
LINE
  8
0
 10
-35.8
 20
-65.2
 11
-32.5
 21
-65.2
  0
LINE
  8
0
 10
-32.5
 20
-65.2
 11
-32.5
 21
-62.4
  0
LINE
  8
0
 10
-32.5
 20
-62.4
 11
-35.8
 21
-62.4
  0
LINE
  8
0
 10
-35.8
 20
-62.4
 11
-35.8
 21
-59.6
  0
LINE
  8
0
 10
-35.8
 20
-59.6
 11
-32.5
 21
-59.6
  0
LINE
  8
0
 10
-32.5
 20
-59.6
 11
-32.5
 21
-56.4
  0
LINE
  8
0
 10
-32.5
 20
-56.4
 11
-35.8
 21
-56.4
  0
LINE
  8
0
 10
-35.8
 20
-56.4
 11
-35.8
 21
-53.6
  0
LINE
  8
0
 10
-35.8
 20
-53.6
 11
-32.5
 21
-53.6
  0
LINE
  8
0
 10
-32.5
 20
-53.6
 11
-32.5
 21
-50.8
  0
LINE
  8
0
 10
-32.5
 20
-50.8
 11
-35.8
 21
-50.8
  0
LINE
  8
0
 10
-35.8
 20
-50.8
 11
-35.8
 21
-47.5
  0
LINE
  8
0
 10
-35.8
 20
-47.5
 11
-124.2
 21
-47.5
  0
LINE
  8
0
 10
-124.2
 20
-47.5
 11
-124.2
 21
-50.8
  0
LINE
  8
0
 10
-124.2
 20
-50.8
 11
-127.5
 21
-50.8
  0
LINE
  8
0
 10
-127.5
 20
-50.8
 11
-127.5
 21
-53.6
  0
LINE
  8
0
 10
-127.5
 20
-53.6
 11
-124.2
 21
-53.6
  0
LINE
  8
0
 10
-124.2
 20
-53.6
 11
-124.2
 21
-56.4
  0
LINE
  8
0
 10
-124.2
 20
-56.4
 11
-127.5
 21
-56.4
  0
LINE
  8
0
 10
-127.5
 20
-56.4
 11
-127.5
 21
-59.6
  0
LINE
  8
0
 10
-127.5
 20
-59.6
 11
-124.2
 21
-59.6
  0
LINE
  8
0
 10
-124.2
 20
-59.6
 11
-124.2
 21
-62.4
  0
LINE
  8
0
 10
-124.2
 20
-62.4
 11
-127.5
 21
-62.4
  0
LINE
  8
0
 10
-127.5
 20
-62.4
 11
-127.5
 21
-65.2
  0
LINE
  8
0
 10
-127.5
 20
-65.2
 11
-124.2
 21
-65.2
  0
LINE
  8
0
 10
-124.2
 20
-65.2
 11
-124.2
 21
-68.5
  0
LINE
  8
0
 10
-124.2
 20
-68.5
 11
-117.4
 21
-68.5
  0
LINE
  8
0
 10
-117.4
 20
-68.5
 11
-117.4
 21
-65.2
  0
LINE
  8
0
 10
42.6
 20
-65.2
 11
57.4
 21
-65.2
  0
LINE
  8
0
 10
57.4
 20
-65.2
 11
57.4
 21
-68.5
  0
LINE
  8
0
 10
57.4
 20
-68.5
 11
72.6
 21
-68.5
  0
LINE
  8
0
 10
72.6
 20
-68.5
 11
72.6
 21
-65.2
  0
LINE
  8
0
 10
72.6
 20
-65.2
 11
87.4
 21
-65.2
  0
LINE
  8
0
 10
87.4
 20
-65.2
 11
87.4
 21
-68.5
  0
LINE
  8
0
 10
87.4
 20
-68.5
 11
102.6
 21
-68.5
  0
LINE
  8
0
 10
102.6
 20
-68.5
 11
102.6
 21
-65.2
  0
LINE
  8
0
 10
102.6
 20
-65.2
 11
117.4
 21
-65.2
  0
LINE
  8
0
 10
117.4
 20
-65.2
 11
117.4
 21
-68.5
  0
LINE
  8
0
 10
117.4
 20
-68.5
 11
124.2
 21
-68.5
  0
LINE
  8
0
 10
124.2
 20
-68.5
 11
124.2
 21
-65.2
  0
LINE
  8
0
 10
124.2
 20
-65.2
 11
127.5
 21
-65.2
  0
LINE
  8
0
 10
127.5
 20
-65.2
 11
127.5
 21
-62.4
  0
LINE
  8
0
 10
127.5
 20
-62.4
 11
124.2
 21
-62.4
  0
LINE
  8
0
 10
124.2
 20
-62.4
 11
124.2
 21
-59.6
  0
LINE
  8
0
 10
124.2
 20
-59.6
 11
127.5
 21
-59.6
  0
LINE
  8
0
 10
127.5
 20
-59.6
 11
127.5
 21
-56.4
  0
LINE
  8
0
 10
127.5
 20
-56.4
 11
124.2
 21
-56.4
  0
LINE
  8
0
 10
124.2
 20
-56.4
 11
124.2
 21
-53.6
  0
LINE
  8
0
 10
124.2
 20
-53.6
 11
127.5
 21
-53.6
  0
LINE
  8
0
 10
127.5
 20
-53.6
 11
127.5
 21
-50.8
  0
LINE
  8
0
 10
127.5
 20
-50.8
 11
124.2
 21
-50.8
  0
LINE
  8
0
 10
124.2
 20
-50.8
 11
124.2
 21
-47.5
  0
LINE
  8
0
 10
124.2
 20
-47.5
 11
35.8
 21
-47.5
  0
LINE
  8
0
 10
35.8
 20
-47.5
 11
35.8
 21
-50.8
  0
LINE
  8
0
 10
35.8
 20
-50.8
 11
32.5
 21
-50.8
  0
LINE
  8
0
 10
32.5
 20
-50.8
 11
32.5
 21
-53.6
  0
LINE
  8
0
 10
32.5
 20
-53.6
 11
35.8
 21
-53.6
  0
LINE
  8
0
 10
35.8
 20
-53.6
 11
35.8
 21
-56.4
  0
LINE
  8
0
 10
35.8
 20
-56.4
 11
32.5
 21
-56.4
  0
LINE
  8
0
 10
32.5
 20
-56.4
 11
32.5
 21
-59.6
  0
LINE
  8
0
 10
32.5
 20
-59.6
 11
35.8
 21
-59.6
  0
LINE
  8
0
 10
35.8
 20
-59.6
 11
35.8
 21
-62.4
  0
LINE
  8
0
 10
35.8
 20
-62.4
 11
32.5
 21
-62.4
  0
LINE
  8
0
 10
32.5
 20
-62.4
 11
32.5
 21
-65.2
  0
LINE
  8
0
 10
32.5
 20
-65.2
 11
35.8
 21
-65.2
  0
LINE
  8
0
 10
35.8
 20
-65.2
 11
35.8
 21
-68.5
  0
LINE
  8
0
 10
35.8
 20
-68.5
 11
42.6
 21
-68.5
  0
LINE
  8
0
 10
42.6
 20
-68.5
 11
42.6
 21
-65.2
  0
LINE
  8
0
 10
-24.9
 20
-65.2
 11
-15.1
 21
-65.2
  0
LINE
  8
0
 10
-15.1
 20
-65.2
 11
-15.1
 21
-68.5
  0
LINE
  8
0
 10
-15.1
 20
-68.5
 11
-4.89999
 21
-68.5
  0
LINE
  8
0
 10
-4.89999
 20
-68.5
 11
-4.89999
 21
-65.2
  0
LINE
  8
0
 10
-4.89999
 20
-65.2
 11
4.89999
 21
-65.2
  0
LINE
  8
0
 10
4.89999
 20
-65.2
 11
4.89999
 21
-68.5
  0
LINE
  8
0
 10
4.89999
 20
-68.5
 11
15.1
 21
-68.5
  0
LINE
  8
0
 10
15.1
 20
-68.5
 11
15.1
 21
-65.2
  0
LINE
  8
0
 10
15.1
 20
-65.2
 11
24.9
 21
-65.2
  0
LINE
  8
0
 10
24.9
 20
-65.2
 11
24.9
 21
-68.5
  0
LINE
  8
0
 10
24.9
 20
-68.5
 11
28.7
 21
-68.5
  0
LINE
  8
0
 10
28.7
 20
-68.5
 11
28.7
 21
-62.6
  0
LINE
  8
0
 10
28.7
 20
-62.6
 11
32
 21
-62.6
  0
LINE
  8
0
 10
32
 20
-62.6
 11
32
 21
-59.4
  0
LINE
  8
0
 10
32
 20
-59.4
 11
28.7
 21
-59.4
  0
LINE
  8
0
 10
28.7
 20
-59.4
 11
28.7
 21
-56.6
  0
LINE
  8
0
 10
28.7
 20
-56.6
 11
32
 21
-56.6
  0
LINE
  8
0
 10
32
 20
-56.6
 11
32
 21
-53.4
  0
LINE
  8
0
 10
32
 20
-53.4
 11
28.7
 21
-53.4
  0
LINE
  8
0
 10
28.7
 20
-53.4
 11
28.7
 21
-47.5
  0
LINE
  8
0
 10
28.7
 20
-47.5
 11
-28.7
 21
-47.5
  0
LINE
  8
0
 10
-28.7
 20
-47.5
 11
-28.7
 21
-53.4
  0
LINE
  8
0
 10
-28.7
 20
-53.4
 11
-32
 21
-53.4
  0
LINE
  8
0
 10
-32
 20
-53.4
 11
-32
 21
-56.6
  0
LINE
  8
0
 10
-32
 20
-56.6
 11
-28.7
 21
-56.6
  0
LINE
  8
0
 10
-28.7
 20
-56.6
 11
-28.7
 21
-59.4
  0
LINE
  8
0
 10
-28.7
 20
-59.4
 11
-32
 21
-59.4
  0
LINE
  8
0
 10
-32
 20
-59.4
 11
-32
 21
-62.6
  0
LINE
  8
0
 10
-32
 20
-62.6
 11
-28.7
 21
-62.6
  0
LINE
  8
0
 10
-28.7
 20
-62.6
 11
-28.7
 21
-68.5
  0
LINE
  8
0
 10
-28.7
 20
-68.5
 11
-24.9
 21
-68.5
  0
LINE
  8
0
 10
-24.9
 20
-68.5
 11
-24.9
 21
-65.2
  0
LINE
  8
0
 10
5.73792
 20
-62.4191
 11
5.23979
 21
-62.2612
  0
LINE
  8
0
 10
5.23979
 20
-62.2612
 11
4.82391
 21
-61.9981
  0
LINE
  8
0
 10
4.82391
 20
-61.9981
 11
4.4903
 21
-61.6297
  0
LINE
  8
0
 10
4.4903
 20
-61.6297
 11
4.23436
 21
-61.1542
  0
LINE
  8
0
 10
4.23436
 20
-61.1542
 11
4.05154
 21
-60.5705
  0
LINE
  8
0
 10
4.05154
 20
-60.5705
 11
3.94185
 21
-59.8787
  0
LINE
  8
0
 10
3.94185
 20
-59.8787
 11
3.90529
 21
-59.0787
  0
LINE
  8
0
 10
3.90529
 20
-59.0787
 11
4.05611
 21
-57.5672
  0
LINE
  8
0
 10
4.05611
 20
-57.5672
 11
4.50854
 21
-56.4875
  0
LINE
  8
0
 10
4.50854
 20
-56.4875
 11
5.2626
 21
-55.8397
  0
LINE
  8
0
 10
5.2626
 20
-55.8397
 11
6.3183
 21
-55.6238
  0
LINE
  8
0
 10
6.3183
 20
-55.6238
 11
6.67574
 21
-55.6409
  0
LINE
  8
0
 10
6.67574
 20
-55.6409
 11
7.00204
 21
-55.6925
  0
LINE
  8
0
 10
7.00204
 20
-55.6925
 11
7.29723
 21
-55.7784
  0
LINE
  8
0
 10
7.29723
 20
-55.7784
 11
7.56129
 21
-55.8988
  0
LINE
  8
0
 10
7.56129
 20
-55.8988
 11
7.79767
 21
-56.056
  0
LINE
  8
0
 10
7.79767
 20
-56.056
 11
8.0098
 21
-56.2538
  0
LINE
  8
0
 10
8.0098
 20
-56.2538
 11
8.19766
 21
-56.492
  0
LINE
  8
0
 10
8.19766
 20
-56.492
 11
8.3613
 21
-56.7708
  0
LINE
  8
0
 10
8.3613
 20
-56.7708
 11
8.37329
 21
-56.7708
  0
LINE
  8
0
 10
8.37329
 20
-56.7708
 11
8.3613
 21
-56.0378
  0
LINE
  8
0
 10
8.3613
 20
-56.0378
 11
8.3613
 21
-53.3198
  0
LINE
  8
0
 10
8.3613
 20
-53.3198
 11
9.4583
 21
-53.3198
  0
LINE
  8
0
 10
9.4583
 20
-53.3198
 11
9.4583
 21
-60.9877
  0
LINE
  8
0
 10
9.4583
 20
-60.9877
 11
9.46054
 21
-61.458
  0
LINE
  8
0
 10
9.46054
 20
-61.458
 11
9.4673
 21
-61.8407
  0
LINE
  8
0
 10
9.4673
 20
-61.8407
 11
9.47855
 21
-62.136
  0
LINE
  8
0
 10
9.47855
 20
-62.136
 11
9.49429
 21
-62.3438
  0
LINE
  8
0
 10
9.49429
 20
-62.3438
 11
8.44629
 21
-62.3438
  0
LINE
  8
0
 10
8.44629
 20
-62.3438
 11
8.43704
 21
-62.2793
  0
LINE
  8
0
 10
8.43704
 20
-62.2793
 11
8.42729
 21
-62.183
  0
LINE
  8
0
 10
8.42729
 20
-62.183
 11
8.4063
 21
-61.8947
  0
LINE
  8
0
 10
8.4063
 20
-61.8947
 11
8.39711
 21
-61.7248
  0
LINE
  8
0
 10
8.39711
 20
-61.7248
 11
8.39055
 21
-61.567
  0
LINE
  8
0
 10
8.39055
 20
-61.567
 11
8.38661
 21
-61.4213
  0
LINE
  8
0
 10
8.38661
 20
-61.4213
 11
8.3853
 21
-61.2877
  0
LINE
  8
0
 10
8.3853
 20
-61.2877
 11
8.3613
 21
-61.2877
  0
LINE
  8
0
 10
8.3613
 20
-61.2877
 11
8.19748
 21
-61.5827
  0
LINE
  8
0
 10
8.19748
 20
-61.5827
 11
8.00905
 21
-61.8327
  0
LINE
  8
0
 10
8.00905
 20
-61.8327
 11
7.79597
 21
-62.0377
  0
LINE
  8
0
 10
7.79597
 20
-62.0377
 11
7.55829
 21
-62.1977
  0
LINE
  8
0
 10
7.55829
 20
-62.1977
 11
7.29329
 21
-62.3176
  0
LINE
  8
0
 10
7.29329
 20
-62.3176
 11
6.99829
 21
-62.4032
  0
LINE
  8
0
 10
6.99829
 20
-62.4032
 11
6.67329
 21
-62.4546
  0
LINE
  8
0
 10
6.67329
 20
-62.4546
 11
6.3183
 21
-62.4717
  0
LINE
  8
0
 10
6.3183
 20
-62.4717
 11
5.73792
 21
-62.4191
  0
LINE
  8
0
 10
7.03148
 20
-61.5843
 11
7.39905
 21
-61.463
  0
LINE
  8
0
 10
7.39905
 20
-61.463
 11
7.70299
 21
-61.2608
  0
LINE
  8
0
 10
7.70299
 20
-61.2608
 11
7.9433
 21
-60.9777
  0
LINE
  8
0
 10
7.9433
 20
-60.9777
 11
8.12617
 21
-60.6091
  0
LINE
  8
0
 10
8.12617
 20
-60.6091
 11
8.25679
 21
-60.1512
  0
LINE
  8
0
 10
8.25679
 20
-60.1512
 11
8.33517
 21
-59.6041
  0
LINE
  8
0
 10
8.33517
 20
-59.6041
 11
8.3613
 21
-58.9677
  0
LINE
  8
0
 10
8.3613
 20
-58.9677
 11
8.33517
 21
-58.3552
  0
LINE
  8
0
 10
8.33517
 20
-58.3552
 11
8.25679
 21
-57.8305
  0
LINE
  8
0
 10
8.25679
 20
-57.8305
 11
8.12617
 21
-57.3937
  0
LINE
  8
0
 10
8.12617
 20
-57.3937
 11
7.9433
 21
-57.0448
  0
LINE
  8
0
 10
7.9433
 20
-57.0448
 11
7.70374
 21
-56.7775
  0
LINE
  8
0
 10
7.70374
 20
-56.7775
 11
7.40204
 21
-56.5865
  0
LINE
  8
0
 10
7.40204
 20
-56.5865
 11
7.03822
 21
-56.4719
  0
LINE
  8
0
 10
7.03822
 20
-56.4719
 11
6.61229
 21
-56.4338
  0
LINE
  8
0
 10
6.61229
 20
-56.4338
 11
6.22935
 21
-56.4721
  0
LINE
  8
0
 10
6.22935
 20
-56.4721
 11
5.90355
 21
-56.5873
  0
LINE
  8
0
 10
5.90355
 20
-56.5873
 11
5.63486
 21
-56.7791
  0
LINE
  8
0
 10
5.63486
 20
-56.7791
 11
5.42329
 21
-57.0478
  0
LINE
  8
0
 10
5.42329
 20
-57.0478
 11
5.26317
 21
-57.4026
  0
LINE
  8
0
 10
5.26317
 20
-57.4026
 11
5.14879
 21
-57.8533
  0
LINE
  8
0
 10
5.14879
 20
-57.8533
 11
5.08017
 21
-58.3996
  0
LINE
  8
0
 10
5.08017
 20
-58.3996
 11
5.0573
 21
-59.0417
  0
LINE
  8
0
 10
5.0573
 20
-59.0417
 11
5.07999
 21
-59.6856
  0
LINE
  8
0
 10
5.07999
 20
-59.6856
 11
5.14804
 21
-60.231
  0
LINE
  8
0
 10
5.14804
 20
-60.231
 11
5.26147
 21
-60.6781
  0
LINE
  8
0
 10
5.26147
 20
-60.6781
 11
5.42029
 21
-61.0267
  0
LINE
  8
0
 10
5.42029
 20
-61.0267
 11
5.63017
 21
-61.2884
  0
LINE
  8
0
 10
5.63017
 20
-61.2884
 11
5.89679
 21
-61.4752
  0
LINE
  8
0
 10
5.89679
 20
-61.4752
 11
6.22017
 21
-61.5874
  0
LINE
  8
0
 10
6.22017
 20
-61.5874
 11
6.6003
 21
-61.6247
  0
LINE
  8
0
 10
6.6003
 20
-61.6247
 11
7.03148
 21
-61.5843
  0
LINE
  8
0
 10
-12.057
 20
-62.438
 11
-12.6409
 21
-62.337
  0
LINE
  8
0
 10
-12.6409
 20
-62.337
 11
-13.181
 21
-62.1685
  0
LINE
  8
0
 10
-13.181
 20
-62.1685
 11
-13.6774
 21
-61.9327
  0
LINE
  8
0
 10
-13.6774
 20
-61.9327
 11
-14.1236
 21
-61.6343
  0
LINE
  8
0
 10
-14.1236
 20
-61.6343
 11
-14.5134
 21
-61.278
  0
LINE
  8
0
 10
-14.5134
 20
-61.278
 11
-14.8466
 21
-60.8638
  0
LINE
  8
0
 10
-14.8466
 20
-60.8638
 11
-15.1234
 21
-60.3917
  0
LINE
  8
0
 10
-15.1234
 20
-60.3917
 11
-15.3408
 21
-59.8677
  0
LINE
  8
0
 10
-15.3408
 20
-59.8677
 11
-15.4961
 21
-59.2975
  0
LINE
  8
0
 10
-15.4961
 20
-59.2975
 11
-15.5893
 21
-58.6812
  0
LINE
  8
0
 10
-15.5893
 20
-58.6812
 11
-15.6204
 21
-58.0187
  0
LINE
  8
0
 10
-15.6204
 20
-58.0187
 11
-15.551
 21
-57.0483
  0
LINE
  8
0
 10
-15.551
 20
-57.0483
 11
-15.3429
 21
-56.189
  0
LINE
  8
0
 10
-15.3429
 20
-56.189
 11
-14.996
 21
-55.4408
  0
LINE
  8
0
 10
-14.996
 20
-55.4408
 11
-14.5104
 21
-54.8038
  0
LINE
  8
0
 10
-14.5104
 20
-54.8038
 11
-13.9016
 21
-54.2945
  0
LINE
  8
0
 10
-13.9016
 20
-54.2945
 11
-13.1861
 21
-53.9308
  0
LINE
  8
0
 10
-13.1861
 20
-53.9308
 11
-12.364
 21
-53.7125
  0
LINE
  8
0
 10
-12.364
 20
-53.7125
 11
-11.4354
 21
-53.6398
  0
LINE
  8
0
 10
-11.4354
 20
-53.6398
 11
-10.7771
 21
-53.6733
  0
LINE
  8
0
 10
-10.7771
 20
-53.6733
 11
-10.1754
 21
-53.774
  0
LINE
  8
0
 10
-10.1754
 20
-53.774
 11
-9.63011
 21
-53.9418
  0
LINE
  8
0
 10
-9.63011
 20
-53.9418
 11
-9.14136
 21
-54.1768
  0
LINE
  8
0
 10
-9.14136
 20
-54.1768
 11
-8.71092
 21
-54.4777
  0
LINE
  8
0
 10
-8.71092
 20
-54.4777
 11
-8.34161
 21
-54.8435
  0
LINE
  8
0
 10
-8.34161
 20
-54.8435
 11
-8.03343
 21
-55.2742
  0
LINE
  8
0
 10
-8.03343
 20
-55.2742
 11
-7.78636
 21
-55.7698
  0
LINE
  8
0
 10
-7.78636
 20
-55.7698
 11
-8.88936
 21
-56.1358
  0
LINE
  8
0
 10
-8.88936
 20
-56.1358
 11
-9.06161
 21
-55.7824
  0
LINE
  8
0
 10
-9.06161
 20
-55.7824
 11
-9.27936
 21
-55.4733
  0
LINE
  8
0
 10
-9.27936
 20
-55.4733
 11
-9.54262
 21
-55.2084
  0
LINE
  8
0
 10
-9.54262
 20
-55.2084
 11
-9.85136
 21
-54.9878
  0
LINE
  8
0
 10
-9.85136
 20
-54.9878
 11
-10.1978
 21
-54.8141
  0
LINE
  8
0
 10
-10.1978
 20
-54.8141
 11
-10.5751
 21
-54.69
  0
LINE
  8
0
 10
-10.5751
 20
-54.69
 11
-10.9833
 21
-54.6156
  0
LINE
  8
0
 10
-10.9833
 20
-54.6156
 11
-11.4224
 21
-54.5908
  0
LINE
  8
0
 10
-11.4224
 20
-54.5908
 11
-12.0972
 21
-54.6481
  0
LINE
  8
0
 10
-12.0972
 20
-54.6481
 11
-12.6926
 21
-54.82
  0
LINE
  8
0
 10
-12.6926
 20
-54.82
 11
-13.2087
 21
-55.1066
  0
LINE
  8
0
 10
-13.2087
 20
-55.1066
 11
-13.6454
 21
-55.5078
  0
LINE
  8
0
 10
-13.6454
 20
-55.5078
 11
-13.9923
 21
-56.0083
  0
LINE
  8
0
 10
-13.9923
 20
-56.0083
 11
-14.2401
 21
-56.5938
  0
LINE
  8
0
 10
-14.2401
 20
-56.5938
 11
-14.3888
 21
-57.2643
  0
LINE
  8
0
 10
-14.3888
 20
-57.2643
 11
-14.4384
 21
-58.0197
  0
LINE
  8
0
 10
-14.4384
 20
-58.0197
 11
-14.3867
 21
-58.7696
  0
LINE
  8
0
 10
-14.3867
 20
-58.7696
 11
-14.2316
 21
-59.4422
  0
LINE
  8
0
 10
-14.2316
 20
-59.4422
 11
-13.9732
 21
-60.0376
  0
LINE
  8
0
 10
-13.9732
 20
-60.0376
 11
-13.6114
 21
-60.5557
  0
LINE
  8
0
 10
-13.6114
 20
-60.5557
 11
-13.1614
 21
-60.9753
  0
LINE
  8
0
 10
-13.1614
 20
-60.9753
 11
-12.6386
 21
-61.275
  0
LINE
  8
0
 10
-12.6386
 20
-61.275
 11
-12.0429
 21
-61.4548
  0
LINE
  8
0
 10
-12.0429
 20
-61.4548
 11
-11.3744
 21
-61.5147
  0
LINE
  8
0
 10
-11.3744
 20
-61.5147
 11
-10.5269
 21
-61.4026
  0
LINE
  8
0
 10
-10.5269
 20
-61.4026
 11
-9.79161
 21
-61.066
  0
LINE
  8
0
 10
-9.79161
 20
-61.066
 11
-9.16843
 21
-60.5051
  0
LINE
  8
0
 10
-9.16843
 20
-60.5051
 11
-8.65736
 21
-59.7197
  0
LINE
  8
0
 10
-8.65736
 20
-59.7197
 11
-7.70737
 21
-60.1967
  0
LINE
  8
0
 10
-7.70737
 20
-60.1967
 11
-7.99974
 21
-60.72
  0
LINE
  8
0
 10
-7.99974
 20
-60.72
 11
-8.34587
 21
-61.1767
  0
LINE
  8
0
 10
-8.34587
 20
-61.1767
 11
-8.74574
 21
-61.567
  0
LINE
  8
0
 10
-8.74574
 20
-61.567
 11
-9.19936
 21
-61.8907
  0
LINE
  8
0
 10
-9.19936
 20
-61.8907
 11
-9.69911
 21
-62.1449
  0
LINE
  8
0
 10
-9.69911
 20
-62.1449
 11
-10.2374
 21
-62.3265
  0
LINE
  8
0
 10
-10.2374
 20
-62.3265
 11
-10.8141
 21
-62.4354
  0
LINE
  8
0
 10
-10.8141
 20
-62.4354
 11
-11.4294
 21
-62.4717
  0
LINE
  8
0
 10
-11.4294
 20
-62.4717
 11
-12.057
 21
-62.438
  0
LINE
  8
0
 10
12.7085
 20
-62.4464
 11
12.1961
 21
-62.3705
  0
LINE
  8
0
 10
12.1961
 20
-62.3705
 11
11.7545
 21
-62.2439
  0
LINE
  8
0
 10
11.7545
 20
-62.2439
 11
11.3836
 21
-62.0667
  0
LINE
  8
0
 10
11.3836
 20
-62.0667
 11
11.0774
 21
-61.8354
  0
LINE
  8
0
 10
11.0774
 20
-61.8354
 11
10.8299
 21
-61.5475
  0
LINE
  8
0
 10
10.8299
 20
-61.5475
 11
10.6409
 21
-61.2029
  0
LINE
  8
0
 10
10.6409
 20
-61.2029
 11
10.5106
 21
-60.8017
  0
LINE
  8
0
 10
10.5106
 20
-60.8017
 11
11.4796
 21
-60.6127
  0
LINE
  8
0
 10
11.4796
 20
-60.6127
 11
11.5689
 21
-60.8601
  0
LINE
  8
0
 10
11.5689
 20
-60.8601
 11
11.6959
 21
-61.072
  0
LINE
  8
0
 10
11.6959
 20
-61.072
 11
11.8604
 21
-61.2486
  0
LINE
  8
0
 10
11.8604
 20
-61.2486
 11
12.0626
 21
-61.3897
  0
LINE
  8
0
 10
12.0626
 20
-61.3897
 11
12.3056
 21
-61.4978
  0
LINE
  8
0
 10
12.3056
 20
-61.4978
 11
12.5916
 21
-61.575
  0
LINE
  8
0
 10
12.5916
 20
-61.575
 11
12.9206
 21
-61.6213
  0
LINE
  8
0
 10
12.9206
 20
-61.6213
 11
13.2926
 21
-61.6367
  0
LINE
  8
0
 10
13.2926
 20
-61.6367
 11
13.6854
 21
-61.6206
  0
LINE
  8
0
 10
13.6854
 20
-61.6206
 11
14.0216
 21
-61.5722
  0
LINE
  8
0
 10
14.0216
 20
-61.5722
 11
14.3014
 21
-61.4916
  0
LINE
  8
0
 10
14.3014
 20
-61.4916
 11
14.5246
 21
-61.3787
  0
LINE
  8
0
 10
14.5246
 20
-61.3787
 11
14.6952
 21
-61.2336
  0
LINE
  8
0
 10
14.6952
 20
-61.2336
 11
14.8171
 21
-61.0562
  0
LINE
  8
0
 10
14.8171
 20
-61.0562
 11
14.8902
 21
-60.8466
  0
LINE
  8
0
 10
14.8902
 20
-60.8466
 11
14.9146
 21
-60.6047
  0
LINE
  8
0
 10
14.9146
 20
-60.6047
 11
14.8977
 21
-60.418
  0
LINE
  8
0
 10
14.8977
 20
-60.418
 11
14.8471
 21
-60.2497
  0
LINE
  8
0
 10
14.8471
 20
-60.2497
 11
14.7627
 21
-60.1
  0
LINE
  8
0
 10
14.7627
 20
-60.1
 11
14.6446
 21
-59.9688
  0
LINE
  8
0
 10
14.6446
 20
-59.9688
 11
14.4889
 21
-59.8516
  0
LINE
  8
0
 10
14.4889
 20
-59.8516
 11
14.2919
 21
-59.7452
  0
LINE
  8
0
 10
14.2919
 20
-59.7452
 11
14.0534
 21
-59.6496
  0
LINE
  8
0
 10
14.0534
 20
-59.6496
 11
13.7736
 21
-59.5647
  0
LINE
  8
0
 10
13.7736
 20
-59.5647
 11
12.9826
 21
-59.3567
  0
LINE
  8
0
 10
12.9826
 20
-59.3567
 11
12.5414
 21
-59.2349
  0
LINE
  8
0
 10
12.5414
 20
-59.2349
 11
12.1689
 21
-59.1142
  0
LINE
  8
0
 10
12.1689
 20
-59.1142
 11
11.8649
 21
-58.9949
  0
LINE
  8
0
 10
11.8649
 20
-58.9949
 11
11.6296
 21
-58.8767
  0
LINE
  8
0
 10
11.6296
 20
-58.8767
 11
11.4395
 21
-58.7525
  0
LINE
  8
0
 10
11.4395
 20
-58.7525
 11
11.2714
 21
-58.6157
  0
LINE
  8
0
 10
11.2714
 20
-58.6157
 11
11.125
 21
-58.4665
  0
LINE
  8
0
 10
11.125
 20
-58.4665
 11
11.0006
 21
-58.3047
  0
LINE
  8
0
 10
11.0006
 20
-58.3047
 11
10.9013
 21
-58.1267
  0
LINE
  8
0
 10
10.9013
 20
-58.1267
 11
10.8304
 21
-57.9295
  0
LINE
  8
0
 10
10.8304
 20
-57.9295
 11
10.7878
 21
-57.7132
  0
LINE
  8
0
 10
10.7878
 20
-57.7132
 11
10.7736
 21
-57.4778
  0
LINE
  8
0
 10
10.7736
 20
-57.4778
 11
10.814
 21
-57.0518
  0
LINE
  8
0
 10
10.814
 20
-57.0518
 11
10.9351
 21
-56.6798
  0
LINE
  8
0
 10
10.9351
 20
-56.6798
 11
11.137
 21
-56.3618
  0
LINE
  8
0
 10
11.137
 20
-56.3618
 11
11.4196
 21
-56.0978
  0
LINE
  8
0
 10
11.4196
 20
-56.0978
 11
11.7796
 21
-55.8904
  0
LINE
  8
0
 10
11.7796
 20
-55.8904
 11
12.2136
 21
-55.7423
  0
LINE
  8
0
 10
12.2136
 20
-55.7423
 11
12.7216
 21
-55.6534
  0
LINE
  8
0
 10
12.7216
 20
-55.6534
 11
13.3036
 21
-55.6238
  0
LINE
  8
0
 10
13.3036
 20
-55.6238
 11
13.8235
 21
-55.6478
  0
LINE
  8
0
 10
13.8235
 20
-55.6478
 11
14.2871
 21
-55.7198
  0
LINE
  8
0
 10
14.2871
 20
-55.7198
 11
14.6945
 21
-55.8398
  0
LINE
  8
0
 10
14.6945
 20
-55.8398
 11
15.0456
 21
-56.0078
  0
LINE
  8
0
 10
15.0456
 20
-56.0078
 11
15.339
 21
-56.2287
  0
LINE
  8
0
 10
15.339
 20
-56.2287
 11
15.5731
 21
-56.5075
  0
LINE
  8
0
 10
15.5731
 20
-56.5075
 11
15.748
 21
-56.8442
  0
LINE
  8
0
 10
15.748
 20
-56.8442
 11
15.8636
 21
-57.2388
  0
LINE
  8
0
 10
15.8636
 20
-57.2388
 11
14.8766
 21
-57.3608
  0
LINE
  8
0
 10
14.8766
 20
-57.3608
 11
14.8112
 21
-57.1541
  0
LINE
  8
0
 10
14.8112
 20
-57.1541
 11
14.7069
 21
-56.973
  0
LINE
  8
0
 10
14.7069
 20
-56.973
 11
14.5637
 21
-56.8176
  0
LINE
  8
0
 10
14.5637
 20
-56.8176
 11
14.3816
 21
-56.6878
  0
LINE
  8
0
 10
14.3816
 20
-56.6878
 11
14.1635
 21
-56.5849
  0
LINE
  8
0
 10
14.1635
 20
-56.5849
 11
13.9111
 21
-56.5115
  0
LINE
  8
0
 10
13.9111
 20
-56.5115
 11
13.6245
 21
-56.4674
  0
LINE
  8
0
 10
13.6245
 20
-56.4674
 11
13.3036
 21
-56.4528
  0
LINE
  8
0
 10
13.3036
 20
-56.4528
 11
12.9532
 21
-56.4669
  0
LINE
  8
0
 10
12.9532
 20
-56.4669
 11
12.6519
 21
-56.5095
  0
LINE
  8
0
 10
12.6519
 20
-56.5095
 11
12.3997
 21
-56.5804
  0
LINE
  8
0
 10
12.3997
 20
-56.5804
 11
12.1966
 21
-56.6798
  0
LINE
  8
0
 10
12.1966
 20
-56.6798
 11
12.0409
 21
-56.8079
  0
LINE
  8
0
 10
12.0409
 20
-56.8079
 11
11.9296
 21
-56.9653
  0
LINE
  8
0
 10
11.9296
 20
-56.9653
 11
11.8629
 21
-57.1519
  0
LINE
  8
0
 10
11.8629
 20
-57.1519
 11
11.8406
 21
-57.3678
  0
LINE
  8
0
 10
11.8406
 20
-57.3678
 11
11.8498
 21
-57.5026
  0
LINE
  8
0
 10
11.8498
 20
-57.5026
 11
11.8774
 21
-57.6253
  0
LINE
  8
0
 10
11.8774
 20
-57.6253
 11
11.9233
 21
-57.7356
  0
LINE
  8
0
 10
11.9233
 20
-57.7356
 11
11.9876
 21
-57.8338
  0
LINE
  8
0
 10
11.9876
 20
-57.8338
 11
12.0699
 21
-57.9219
  0
LINE
  8
0
 10
12.0699
 20
-57.9219
 11
12.1699
 21
-58.0032
  0
LINE
  8
0
 10
12.1699
 20
-58.0032
 11
12.2874
 21
-58.0779
  0
LINE
  8
0
 10
12.2874
 20
-58.0779
 11
12.4226
 21
-58.1457
  0
LINE
  8
0
 10
12.4226
 20
-58.1457
 11
12.6069
 21
-58.2159
  0
LINE
  8
0
 10
12.6069
 20
-58.2159
 11
12.8709
 21
-58.2982
  0
LINE
  8
0
 10
12.8709
 20
-58.2982
 11
13.2144
 21
-58.3929
  0
LINE
  8
0
 10
13.2144
 20
-58.3929
 11
13.6376
 21
-58.4997
  0
LINE
  8
0
 10
13.6376
 20
-58.4997
 11
14.0454
 21
-58.6077
  0
LINE
  8
0
 10
14.0454
 20
-58.6077
 11
14.3919
 21
-58.7115
  0
LINE
  8
0
 10
14.3919
 20
-58.7115
 11
14.6769
 21
-58.8112
  0
LINE
  8
0
 10
14.6769
 20
-58.8112
 11
14.9006
 21
-58.9067
  0
LINE
  8
0
 10
14.9006
 20
-58.9067
 11
15.0839
 21
-59.0027
  0
LINE
  8
0
 10
15.0839
 20
-59.0027
 11
15.2469
 21
-59.1037
  0
LINE
  8
0
 10
15.2469
 20
-59.1037
 11
15.3894
 21
-59.2097
  0
LINE
  8
0
 10
15.3894
 20
-59.2097
 11
15.5116
 21
-59.3207
  0
LINE
  8
0
 10
15.5116
 20
-59.3207
 11
15.6172
 21
-59.4382
  0
LINE
  8
0
 10
15.6172
 20
-59.4382
 11
15.7101
 21
-59.5645
  0
LINE
  8
0
 10
15.7101
 20
-59.5645
 11
15.7902
 21
-59.6997
  0
LINE
  8
0
 10
15.7902
 20
-59.6997
 11
15.8576
 21
-59.8438
  0
LINE
  8
0
 10
15.8576
 20
-59.8438
 11
15.9114
 21
-59.997
  0
LINE
  8
0
 10
15.9114
 20
-59.997
 11
15.9499
 21
-60.1607
  0
LINE
  8
0
 10
15.9499
 20
-60.1607
 11
15.9729
 21
-60.335
  0
LINE
  8
0
 10
15.9729
 20
-60.335
 11
15.9806
 21
-60.5197
  0
LINE
  8
0
 10
15.9806
 20
-60.5197
 11
15.9364
 21
-60.961
  0
LINE
  8
0
 10
15.9364
 20
-60.961
 11
15.8036
 21
-61.3487
  0
LINE
  8
0
 10
15.8036
 20
-61.3487
 11
15.5824
 21
-61.683
  0
LINE
  8
0
 10
15.5824
 20
-61.683
 11
15.2726
 21
-61.9637
  0
LINE
  8
0
 10
15.2726
 20
-61.9637
 11
14.8837
 21
-62.186
  0
LINE
  8
0
 10
14.8837
 20
-62.186
 11
14.4239
 21
-62.3447
  0
LINE
  8
0
 10
14.4239
 20
-62.3447
 11
13.8932
 21
-62.44
  0
LINE
  8
0
 10
13.8932
 20
-62.44
 11
13.2916
 21
-62.4717
  0
LINE
  8
0
 10
13.2916
 20
-62.4717
 11
12.7085
 21
-62.4464
  0
LINE
  8
0
 10
-5.40692
 20
-62.4389
 11
-5.80885
 21
-62.3402
  0
LINE
  8
0
 10
-5.80885
 20
-62.3402
 11
-6.14941
 21
-62.1759
  0
LINE
  8
0
 10
-6.14941
 20
-62.1759
 11
-6.4286
 21
-61.9457
  0
LINE
  8
0
 10
-6.4286
 20
-61.9457
 11
-6.64604
 21
-61.6582
  0
LINE
  8
0
 10
-6.64604
 20
-61.6582
 11
-6.80136
 21
-61.3217
  0
LINE
  8
0
 10
-6.80136
 20
-61.3217
 11
-6.89455
 21
-60.9362
  0
LINE
  8
0
 10
-6.89455
 20
-60.9362
 11
-6.9256
 21
-60.5017
  0
LINE
  8
0
 10
-6.9256
 20
-60.5017
 11
-6.88373
 21
-60.0176
  0
LINE
  8
0
 10
-6.88373
 20
-60.0176
 11
-6.7581
 21
-59.5932
  0
LINE
  8
0
 10
-6.7581
 20
-59.5932
 11
-6.54874
 21
-59.2286
  0
LINE
  8
0
 10
-6.54874
 20
-59.2286
 11
-6.2556
 21
-58.9237
  0
LINE
  8
0
 10
-6.2556
 20
-58.9237
 11
-5.86929
 21
-58.6804
  0
LINE
  8
0
 10
-5.86929
 20
-58.6804
 11
-5.38036
 21
-58.5012
  0
LINE
  8
0
 10
-5.38036
 20
-58.5012
 11
-4.78879
 21
-58.3864
  0
LINE
  8
0
 10
-4.78879
 20
-58.3864
 11
-4.0946
 21
-58.3357
  0
LINE
  8
0
 10
-4.0946
 20
-58.3357
 11
-2.62161
 21
-58.3117
  0
LINE
  8
0
 10
-2.62161
 20
-58.3117
 11
-2.62161
 21
-57.9538
  0
LINE
  8
0
 10
-2.62161
 20
-57.9538
 11
-2.64279
 21
-57.5813
  0
LINE
  8
0
 10
-2.64279
 20
-57.5813
 11
-2.70636
 21
-57.2658
  0
LINE
  8
0
 10
-2.70636
 20
-57.2658
 11
-2.81229
 21
-57.0073
  0
LINE
  8
0
 10
-2.81229
 20
-57.0073
 11
-2.9606
 21
-56.8058
  0
LINE
  8
0
 10
-2.9606
 20
-56.8058
 11
-3.1543
 21
-56.6539
  0
LINE
  8
0
 10
-3.1543
 20
-56.6539
 11
-3.39636
 21
-56.5455
  0
LINE
  8
0
 10
-3.39636
 20
-56.5455
 11
-3.6868
 21
-56.4804
  0
LINE
  8
0
 10
-3.6868
 20
-56.4804
 11
-4.0256
 21
-56.4588
  0
LINE
  8
0
 10
-4.0256
 20
-56.4588
 11
-4.36667
 21
-56.474
  0
LINE
  8
0
 10
-4.36667
 20
-56.474
 11
-4.65785
 21
-56.5198
  0
LINE
  8
0
 10
-4.65785
 20
-56.5198
 11
-4.89917
 21
-56.596
  0
LINE
  8
0
 10
-4.89917
 20
-56.596
 11
-5.09061
 21
-56.7028
  0
LINE
  8
0
 10
-5.09061
 20
-56.7028
 11
-5.24004
 21
-56.8424
  0
LINE
  8
0
 10
-5.24004
 20
-56.8424
 11
-5.35635
 21
-57.0185
  0
LINE
  8
0
 10
-5.35635
 20
-57.0185
 11
-5.43954
 21
-57.2309
  0
LINE
  8
0
 10
-5.43954
 20
-57.2309
 11
-5.48961
 21
-57.4798
  0
LINE
  8
0
 10
-5.48961
 20
-57.4798
 11
-6.63461
 21
-57.3778
  0
LINE
  8
0
 10
-6.63461
 20
-57.3778
 11
-6.36536
 21
-56.6104
  0
LINE
  8
0
 10
-6.36536
 20
-56.6104
 11
-5.83661
 21
-56.0623
  0
LINE
  8
0
 10
-5.83661
 20
-56.0623
 11
-5.04836
 21
-55.7334
  0
LINE
  8
0
 10
-5.04836
 20
-55.7334
 11
-4.00061
 21
-55.6238
  0
LINE
  8
0
 10
-4.00061
 20
-55.6238
 11
-3.41992
 21
-55.6594
  0
LINE
  8
0
 10
-3.41992
 20
-55.6594
 11
-2.91586
 21
-55.7665
  0
LINE
  8
0
 10
-2.91586
 20
-55.7665
 11
-2.48842
 21
-55.9449
  0
LINE
  8
0
 10
-2.48842
 20
-55.9449
 11
-2.1376
 21
-56.1948
  0
LINE
  8
0
 10
-2.1376
 20
-56.1948
 11
-1.86417
 21
-56.5116
  0
LINE
  8
0
 10
-1.86417
 20
-56.5116
 11
-1.66885
 21
-56.8923
  0
LINE
  8
0
 10
-1.66885
 20
-56.8923
 11
-1.55167
 21
-57.3366
  0
LINE
  8
0
 10
-1.55167
 20
-57.3366
 11
-1.5126
 21
-57.8448
  0
LINE
  8
0
 10
-1.5126
 20
-57.8448
 11
-1.5126
 21
-60.6887
  0
LINE
  8
0
 10
-1.5126
 20
-60.6887
 11
-1.50467
 21
-60.9177
  0
LINE
  8
0
 10
-1.50467
 20
-60.9177
 11
-1.48085
 21
-61.1165
  0
LINE
  8
0
 10
-1.48085
 20
-61.1165
 11
-1.44116
 21
-61.2852
  0
LINE
  8
0
 10
-1.44116
 20
-61.2852
 11
-1.3856
 21
-61.4237
  0
LINE
  8
0
 10
-1.3856
 20
-61.4237
 11
-1.30724
 21
-61.5318
  0
LINE
  8
0
 10
-1.30724
 20
-61.5318
 11
-1.2001
 21
-61.609
  0
LINE
  8
0
 10
-1.2001
 20
-61.609
 11
-1.06422
 21
-61.6553
  0
LINE
  8
0
 10
-1.06422
 20
-61.6553
 11
-0.899612
 21
-61.6707
  0
LINE
  8
0
 10
-0.899612
 20
-61.6707
 11
-0.817978
 21
-61.6681
  0
LINE
  8
0
 10
-0.817978
 20
-61.6681
 11
-0.73111
 21
-61.66
  0
LINE
  8
0
 10
-0.73111
 20
-61.66
 11
-0.638977
 21
-61.6466
  0
LINE
  8
0
 10
-0.638977
 20
-61.6466
 11
-0.541611
 21
-61.6277
  0
LINE
  8
0
 10
-0.541611
 20
-61.6277
 11
-0.541611
 21
-62.3107
  0
LINE
  8
0
 10
-0.541611
 20
-62.3107
 11
-0.749725
 21
-62.3532
  0
LINE
  8
0
 10
-0.749725
 20
-62.3532
 11
-0.960098
 21
-62.3835
  0
LINE
  8
0
 10
-0.960098
 20
-62.3835
 11
-1.17273
 21
-62.4017
  0
LINE
  8
0
 10
-1.17273
 20
-62.4017
 11
-1.3876
 21
-62.4077
  0
LINE
  8
0
 10
-1.3876
 20
-62.4077
 11
-1.67091
 21
-62.3878
  0
LINE
  8
0
 10
-1.67091
 20
-62.3878
 11
-1.91286
 21
-62.328
  0
LINE
  8
0
 10
-1.91286
 20
-62.328
 11
-2.11342
 21
-62.2283
  0
LINE
  8
0
 10
-2.11342
 20
-62.2283
 11
-2.2726
 21
-62.0887
  0
LINE
  8
0
 10
-2.2726
 20
-62.0887
 11
-2.39604
 21
-61.9061
  0
LINE
  8
0
 10
-2.39604
 20
-61.9061
 11
-2.48935
 21
-61.6782
  0
LINE
  8
0
 10
-2.48935
 20
-61.6782
 11
-2.55254
 21
-61.4051
  0
LINE
  8
0
 10
-2.55254
 20
-61.4051
 11
-2.5856
 21
-61.0867
  0
LINE
  8
0
 10
-2.5856
 20
-61.0867
 11
-2.62161
 21
-61.0867
  0
LINE
  8
0
 10
-2.62161
 20
-61.0867
 11
-2.8396
 21
-61.4376
  0
LINE
  8
0
 10
-2.8396
 20
-61.4376
 11
-3.0746
 21
-61.733
  0
LINE
  8
0
 10
-3.0746
 20
-61.733
 11
-3.3266
 21
-61.9731
  0
LINE
  8
0
 10
-3.3266
 20
-61.9731
 11
-3.59561
 21
-62.1577
  0
LINE
  8
0
 10
-3.59561
 20
-62.1577
 11
-3.8876
 21
-62.2951
  0
LINE
  8
0
 10
-3.8876
 20
-62.2951
 11
-4.20961
 21
-62.3932
  0
LINE
  8
0
 10
-4.20961
 20
-62.3932
 11
-4.5616
 21
-62.4521
  0
LINE
  8
0
 10
-4.5616
 20
-62.4521
 11
-4.9436
 21
-62.4717
  0
LINE
  8
0
 10
-4.9436
 20
-62.4717
 11
-5.40692
 21
-62.4389
  0
LINE
  8
0
 10
-4.39941
 20
-61.6315
 11
-4.12486
 21
-61.5797
  0
LINE
  8
0
 10
-4.12486
 20
-61.5797
 11
-3.86691
 21
-61.4935
  0
LINE
  8
0
 10
-3.86691
 20
-61.4935
 11
-3.62561
 21
-61.3727
  0
LINE
  8
0
 10
-3.62561
 20
-61.3727
 11
-3.40492
 21
-61.2219
  0
LINE
  8
0
 10
-3.40492
 20
-61.2219
 11
-3.20886
 21
-61.0455
  0
LINE
  8
0
 10
-3.20886
 20
-61.0455
 11
-3.03741
 21
-60.8434
  0
LINE
  8
0
 10
-3.03741
 20
-60.8434
 11
-2.89061
 21
-60.6157
  0
LINE
  8
0
 10
-2.89061
 20
-60.6157
 11
-2.77292
 21
-60.3735
  0
LINE
  8
0
 10
-2.77292
 20
-60.3735
 11
-2.68886
 21
-60.1277
  0
LINE
  8
0
 10
-2.68886
 20
-60.1277
 11
-2.63841
 21
-59.8785
  0
LINE
  8
0
 10
-2.63841
 20
-59.8785
 11
-2.62161
 21
-59.6257
  0
LINE
  8
0
 10
-2.62161
 20
-59.6257
 11
-2.62161
 21
-59.0797
  0
LINE
  8
0
 10
-2.62161
 20
-59.0797
 11
-3.8136
 21
-59.1047
  0
LINE
  8
0
 10
-3.8136
 20
-59.1047
 11
-4.17442
 21
-59.1192
  0
LINE
  8
0
 10
-4.17442
 20
-59.1192
 11
-4.48886
 21
-59.1505
  0
LINE
  8
0
 10
-4.48886
 20
-59.1505
 11
-4.75691
 21
-59.1987
  0
LINE
  8
0
 10
-4.75691
 20
-59.1987
 11
-4.97861
 21
-59.2637
  0
LINE
  8
0
 10
-4.97861
 20
-59.2637
 11
-5.1651
 21
-59.3472
  0
LINE
  8
0
 10
-5.1651
 20
-59.3472
 11
-5.32861
 21
-59.4507
  0
LINE
  8
0
 10
-5.32861
 20
-59.4507
 11
-5.4691
 21
-59.5742
  0
LINE
  8
0
 10
-5.4691
 20
-59.5742
 11
-5.58661
 21
-59.7177
  0
LINE
  8
0
 10
-5.58661
 20
-59.7177
 11
-5.67892
 21
-59.8827
  0
LINE
  8
0
 10
-5.67892
 20
-59.8827
 11
-5.74486
 21
-60.0715
  0
LINE
  8
0
 10
-5.74486
 20
-60.0715
 11
-5.78442
 21
-60.2842
  0
LINE
  8
0
 10
-5.78442
 20
-60.2842
 11
-5.79761
 21
-60.5207
  0
LINE
  8
0
 10
-5.79761
 20
-60.5207
 11
-5.77966
 21
-60.775
  0
LINE
  8
0
 10
-5.77966
 20
-60.775
 11
-5.72586
 21
-60.9987
  0
LINE
  8
0
 10
-5.72586
 20
-60.9987
 11
-5.63617
 21
-61.192
  0
LINE
  8
0
 10
-5.63617
 20
-61.192
 11
-5.5106
 21
-61.3547
  0
LINE
  8
0
 10
-5.5106
 20
-61.3547
 11
-5.35135
 21
-61.4834
  0
LINE
  8
0
 10
-5.35135
 20
-61.4834
 11
-5.16161
 21
-61.5752
  0
LINE
  8
0
 10
-5.16161
 20
-61.5752
 11
-4.94136
 21
-61.6304
  0
LINE
  8
0
 10
-4.94136
 20
-61.6304
 11
-4.69061
 21
-61.6487
  0
LINE
  8
0
 10
-4.69061
 20
-61.6487
 11
-4.39941
 21
-61.6315
  0
LINE
  8
0
 10
0.190704
 20
-62.3438
 11
0.190704
 21
-57.2868
  0
LINE
  8
0
 10
0.190704
 20
-57.2868
 11
0.188446
 21
-56.9306
  0
LINE
  8
0
 10
0.188446
 20
-56.9306
 11
0.181702
 21
-56.556
  0
LINE
  8
0
 10
0.181702
 20
-56.556
 11
0.170456
 21
-56.1631
  0
LINE
  8
0
 10
0.170456
 20
-56.1631
 11
0.154694
 21
-55.7518
  0
LINE
  8
0
 10
0.154694
 20
-55.7518
 11
1.1897
 21
-55.7518
  0
LINE
  8
0
 10
1.1897
 20
-55.7518
 11
1.22646
 21
-56.6448
  0
LINE
  8
0
 10
1.22646
 20
-56.6448
 11
1.23564
 21
-56.924
  0
LINE
  8
0
 10
1.23564
 20
-56.924
 11
1.23869
 21
-57.0918
  0
LINE
  8
0
 10
1.23869
 20
-57.0918
 11
1.2627
 21
-57.0918
  0
LINE
  8
0
 10
1.2627
 20
-57.0918
 11
1.39914
 21
-56.7018
  0
LINE
  8
0
 10
1.39914
 20
-56.7018
 11
1.54546
 21
-56.379
  0
LINE
  8
0
 10
1.54546
 20
-56.379
 11
1.70163
 21
-56.1233
  0
LINE
  8
0
 10
1.70163
 20
-56.1233
 11
1.86771
 21
-55.9348
  0
LINE
  8
0
 10
1.86771
 20
-55.9348
 11
2.0562
 21
-55.7987
  0
LINE
  8
0
 10
2.0562
 20
-55.7987
 11
2.27969
 21
-55.7015
  0
LINE
  8
0
 10
2.27969
 20
-55.7015
 11
2.53819
 21
-55.6432
  0
LINE
  8
0
 10
2.53819
 20
-55.6432
 11
2.8317
 21
-55.6238
  0
LINE
  8
0
 10
2.8317
 20
-55.6238
 11
2.94208
 21
-55.6276
  0
LINE
  8
0
 10
2.94208
 20
-55.6276
 11
3.05319
 21
-55.639
  0
LINE
  8
0
 10
3.05319
 20
-55.639
 11
3.16507
 21
-55.6581
  0
LINE
  8
0
 10
3.16507
 20
-55.6581
 11
3.27769
 21
-55.6848
  0
LINE
  8
0
 10
3.27769
 20
-55.6848
 11
3.27769
 21
-56.6898
  0
LINE
  8
0
 10
3.27769
 20
-56.6898
 11
3.15857
 21
-56.6631
  0
LINE
  8
0
 10
3.15857
 20
-56.6631
 11
3.02119
 21
-56.644
  0
LINE
  8
0
 10
3.02119
 20
-56.644
 11
2.86557
 21
-56.6326
  0
LINE
  8
0
 10
2.86557
 20
-56.6326
 11
2.6917
 21
-56.6288
  0
LINE
  8
0
 10
2.6917
 20
-56.6288
 11
2.36995
 21
-56.6656
  0
LINE
  8
0
 10
2.36995
 20
-56.6656
 11
2.0887
 21
-56.776
  0
LINE
  8
0
 10
2.0887
 20
-56.776
 11
1.84795
 21
-56.9601
  0
LINE
  8
0
 10
1.84795
 20
-56.9601
 11
1.64771
 21
-57.2178
  0
LINE
  8
0
 10
1.64771
 20
-57.2178
 11
1.4902
 21
-57.5436
  0
LINE
  8
0
 10
1.4902
 20
-57.5436
 11
1.3777
 21
-57.9333
  0
LINE
  8
0
 10
1.3777
 20
-57.9333
 11
1.3102
 21
-58.3866
  0
LINE
  8
0
 10
1.3102
 20
-58.3866
 11
1.2877
 21
-58.9037
  0
LINE
  8
0
 10
1.2877
 20
-58.9037
 11
1.2877
 21
-62.3438
  0
LINE
  8
0
 10
1.2877
 20
-62.3438
 11
0.190704
 21
-62.3438
  0
LINE
  8
0
 10
135.1
 20
-65.2
 11
144.9
 21
-65.2
  0
LINE
  8
0
 10
144.9
 20
-65.2
 11
144.9
 21
-68.5
  0
LINE
  8
0
 10
144.9
 20
-68.5
 11
155.1
 21
-68.5
  0
LINE
  8
0
 10
155.1
 20
-68.5
 11
155.1
 21
-65.2
  0
LINE
  8
0
 10
155.1
 20
-65.2
 11
164.9
 21
-65.2
  0
LINE
  8
0
 10
164.9
 20
-65.2
 11
164.9
 21
-68.5
  0
LINE
  8
0
 10
164.9
 20
-68.5
 11
175.1
 21
-68.5
  0
LINE
  8
0
 10
175.1
 20
-68.5
 11
175.1
 21
-65.2
  0
LINE
  8
0
 10
175.1
 20
-65.2
 11
184.9
 21
-65.2
  0
LINE
  8
0
 10
184.9
 20
-65.2
 11
184.9
 21
-68.5
  0
LINE
  8
0
 10
184.9
 20
-68.5
 11
188.7
 21
-68.5
  0
LINE
  8
0
 10
188.7
 20
-68.5
 11
188.7
 21
-62.6
  0
LINE
  8
0
 10
188.7
 20
-62.6
 11
192
 21
-62.6
  0
LINE
  8
0
 10
192
 20
-62.6
 11
192
 21
-59.4
  0
LINE
  8
0
 10
192
 20
-59.4
 11
188.7
 21
-59.4
  0
LINE
  8
0
 10
188.7
 20
-59.4
 11
188.7
 21
-56.6
  0
LINE
  8
0
 10
188.7
 20
-56.6
 11
192
 21
-56.6
  0
LINE
  8
0
 10
192
 20
-56.6
 11
192
 21
-53.4
  0
LINE
  8
0
 10
192
 20
-53.4
 11
188.7
 21
-53.4
  0
LINE
  8
0
 10
188.7
 20
-53.4
 11
188.7
 21
-47.5
  0
LINE
  8
0
 10
188.7
 20
-47.5
 11
131.3
 21
-47.5
  0
LINE
  8
0
 10
131.3
 20
-47.5
 11
131.3
 21
-53.4
  0
LINE
  8
0
 10
131.3
 20
-53.4
 11
128
 21
-53.4
  0
LINE
  8
0
 10
128
 20
-53.4
 11
128
 21
-56.6
  0
LINE
  8
0
 10
128
 20
-56.6
 11
131.3
 21
-56.6
  0
LINE
  8
0
 10
131.3
 20
-56.6
 11
131.3
 21
-59.4
  0
LINE
  8
0
 10
131.3
 20
-59.4
 11
128
 21
-59.4
  0
LINE
  8
0
 10
128
 20
-59.4
 11
128
 21
-62.6
  0
LINE
  8
0
 10
128
 20
-62.6
 11
131.3
 21
-62.6
  0
LINE
  8
0
 10
131.3
 20
-62.6
 11
131.3
 21
-68.5
  0
LINE
  8
0
 10
131.3
 20
-68.5
 11
135.1
 21
-68.5
  0
LINE
  8
0
 10
135.1
 20
-68.5
 11
135.1
 21
-65.2
  0
LINE
  8
0
 10
-14.9
 20
-160.7
 11
-5.09999
 21
-160.7
  0
LINE
  8
0
 10
-5.09999
 20
-160.7
 11
-5.09999
 21
-164
  0
LINE
  8
0
 10
-5.09999
 20
-164
 11
5.09998
 21
-164
  0
LINE
  8
0
 10
5.09998
 20
-164
 11
5.09998
 21
-160.7
  0
LINE
  8
0
 10
5.09998
 20
-160.7
 11
14.9
 21
-160.7
  0
LINE
  8
0
 10
14.9
 20
-160.7
 11
14.9
 21
-164
  0
LINE
  8
0
 10
14.9
 20
-164
 11
25.1
 21
-164
  0
LINE
  8
0
 10
25.1
 20
-164
 11
25.1
 21
-160.7
  0
LINE
  8
0
 10
25.1
 20
-160.7
 11
28.7
 21
-160.7
  0
LINE
  8
0
 10
28.7
 20
-160.7
 11
28.7
 21
-154.1
  0
LINE
  8
0
 10
28.7
 20
-154.1
 11
32
 21
-154.1
  0
LINE
  8
0
 10
32
 20
-154.1
 11
32
 21
-138.9
  0
LINE
  8
0
 10
32
 20
-138.9
 11
28.7
 21
-138.9
  0
LINE
  8
0
 10
28.7
 20
-138.9
 11
28.7
 21
-124.1
  0
LINE
  8
0
 10
28.7
 20
-124.1
 11
32
 21
-124.1
  0
LINE
  8
0
 10
32
 20
-124.1
 11
32
 21
-108.9
  0
LINE
  8
0
 10
32
 20
-108.9
 11
28.7
 21
-108.9
  0
LINE
  8
0
 10
28.7
 20
-108.9
 11
28.7
 21
-94.1
  0
LINE
  8
0
 10
28.7
 20
-94.1
 11
32
 21
-94.1
  0
LINE
  8
0
 10
32
 20
-94.1
 11
32
 21
-78.9
  0
LINE
  8
0
 10
32
 20
-78.9
 11
28.7
 21
-78.9
  0
LINE
  8
0
 10
28.7
 20
-78.9
 11
28.7
 21
-72.3
  0
LINE
  8
0
 10
28.7
 20
-72.3
 11
25.1
 21
-72.3
  0
LINE
  8
0
 10
25.1
 20
-72.3
 11
25.1
 21
-69
  0
LINE
  8
0
 10
25.1
 20
-69
 11
14.9
 21
-69
  0
LINE
  8
0
 10
14.9
 20
-69
 11
14.9
 21
-72.3
  0
LINE
  8
0
 10
14.9
 20
-72.3
 11
5.09999
 21
-72.3
  0
LINE
  8
0
 10
5.09999
 20
-72.3
 11
5.09999
 21
-69
  0
LINE
  8
0
 10
5.09999
 20
-69
 11
-5.09999
 21
-69
  0
LINE
  8
0
 10
-5.09999
 20
-69
 11
-5.09999
 21
-72.3
  0
LINE
  8
0
 10
-5.09999
 20
-72.3
 11
-14.9
 21
-72.3
  0
LINE
  8
0
 10
-14.9
 20
-72.3
 11
-14.9
 21
-69
  0
LINE
  8
0
 10
-14.9
 20
-69
 11
-25.1
 21
-69
  0
LINE
  8
0
 10
-25.1
 20
-69
 11
-25.1
 21
-72.3
  0
LINE
  8
0
 10
-25.1
 20
-72.3
 11
-28.7
 21
-72.3
  0
LINE
  8
0
 10
-28.7
 20
-72.3
 11
-28.7
 21
-78.9
  0
LINE
  8
0
 10
-28.7
 20
-78.9
 11
-32
 21
-78.9
  0
LINE
  8
0
 10
-32
 20
-78.9
 11
-32
 21
-94.1
  0
LINE
  8
0
 10
-32
 20
-94.1
 11
-28.7
 21
-94.1
  0
LINE
  8
0
 10
-28.7
 20
-94.1
 11
-28.7
 21
-108.9
  0
LINE
  8
0
 10
-28.7
 20
-108.9
 11
-32
 21
-108.9
  0
LINE
  8
0
 10
-32
 20
-108.9
 11
-32
 21
-124.1
  0
LINE
  8
0
 10
-32
 20
-124.1
 11
-28.7
 21
-124.1
  0
LINE
  8
0
 10
-28.7
 20
-124.1
 11
-28.7
 21
-138.9
  0
LINE
  8
0
 10
-28.7
 20
-138.9
 11
-32
 21
-138.9
  0
LINE
  8
0
 10
-32
 20
-138.9
 11
-32
 21
-154.1
  0
LINE
  8
0
 10
-32
 20
-154.1
 11
-28.7
 21
-154.1
  0
LINE
  8
0
 10
-28.7
 20
-154.1
 11
-28.7
 21
-160.7
  0
LINE
  8
0
 10
-28.7
 20
-160.7
 11
-25.1
 21
-160.7
  0
LINE
  8
0
 10
-25.1
 20
-160.7
 11
-25.1
 21
-164
  0
LINE
  8
0
 10
-25.1
 20
-164
 11
-14.9
 21
-164
  0
LINE
  8
0
 10
-14.9
 20
-164
 11
-14.9
 21
-160.7
  0
ENDSEC
  0
SECTION
  2
OBJECTS
  0
DICTIONARY
  0
ENDSEC
  0
EOF
