  0
SECTION
  2
BLOCKS
  0
ENDSEC
  0
SECTION
  2
ENTITIES
  0
LINE
  8
0
 10
269.14
 20
-170.215
 11
271.86
 21
-170.215
  0
LINE
  8
0
 10
271.86
 20
-170.215
 11
271.86
 21
-172.875
  0
LINE
  8
0
 10
271.86
 20
-172.875
 11
275.14
 21
-172.875
  0
LINE
  8
0
 10
275.14
 20
-172.875
 11
275.14
 21
-170.215
  0
LINE
  8
0
 10
275.14
 20
-170.215
 11
277.86
 21
-170.215
  0
LINE
  8
0
 10
277.86
 20
-170.215
 11
277.86
 21
-172.875
  0
LINE
  8
0
 10
277.86
 20
-172.875
 11
281.14
 21
-172.875
  0
LINE
  8
0
 10
281.14
 20
-172.875
 11
281.14
 21
-170.215
  0
LINE
  8
0
 10
281.14
 20
-170.215
 11
283.86
 21
-170.215
  0
LINE
  8
0
 10
283.86
 20
-170.215
 11
283.86
 21
-172.875
  0
LINE
  8
0
 10
283.86
 20
-172.875
 11
283.965
 21
-172.875
  0
LINE
  8
0
 10
283.965
 20
-172.875
 11
283.965
 21
-170.215
  0
LINE
  8
0
 10
283.965
 20
-170.215
 11
286.625
 21
-170.215
  0
LINE
  8
0
 10
286.625
 20
-170.215
 11
286.625
 21
-167.61
  0
LINE
  8
0
 10
286.625
 20
-167.61
 11
283.965
 21
-167.61
  0
LINE
  8
0
 10
283.965
 20
-167.61
 11
283.965
 21
-160.89
  0
LINE
  8
0
 10
283.965
 20
-160.89
 11
286.625
 21
-160.89
  0
LINE
  8
0
 10
286.625
 20
-160.89
 11
286.625
 21
-153.61
  0
LINE
  8
0
 10
286.625
 20
-153.61
 11
283.965
 21
-153.61
  0
LINE
  8
0
 10
283.965
 20
-153.61
 11
283.965
 21
-146.89
  0
LINE
  8
0
 10
283.965
 20
-146.89
 11
286.625
 21
-146.89
  0
LINE
  8
0
 10
286.625
 20
-146.89
 11
286.625
 21
-139.61
  0
LINE
  8
0
 10
286.625
 20
-139.61
 11
283.965
 21
-139.61
  0
LINE
  8
0
 10
283.965
 20
-139.61
 11
283.965
 21
-132.89
  0
LINE
  8
0
 10
283.965
 20
-132.89
 11
286.625
 21
-132.89
  0
LINE
  8
0
 10
286.625
 20
-132.89
 11
286.625
 21
-130.285
  0
LINE
  8
0
 10
286.625
 20
-130.285
 11
283.965
 21
-130.285
  0
LINE
  8
0
 10
283.965
 20
-130.285
 11
283.965
 21
-127.625
  0
LINE
  8
0
 10
283.965
 20
-127.625
 11
269.035
 21
-127.625
  0
LINE
  8
0
 10
269.035
 20
-127.625
 11
269.035
 21
-130.285
  0
LINE
  8
0
 10
269.035
 20
-130.285
 11
266.375
 21
-130.285
  0
LINE
  8
0
 10
266.375
 20
-130.285
 11
266.375
 21
-132.89
  0
LINE
  8
0
 10
266.375
 20
-132.89
 11
269.035
 21
-132.89
  0
LINE
  8
0
 10
269.035
 20
-132.89
 11
269.035
 21
-139.61
  0
LINE
  8
0
 10
269.035
 20
-139.61
 11
266.375
 21
-139.61
  0
LINE
  8
0
 10
266.375
 20
-139.61
 11
266.375
 21
-146.89
  0
LINE
  8
0
 10
266.375
 20
-146.89
 11
269.035
 21
-146.89
  0
LINE
  8
0
 10
269.035
 20
-146.89
 11
269.035
 21
-153.61
  0
LINE
  8
0
 10
269.035
 20
-153.61
 11
266.375
 21
-153.61
  0
LINE
  8
0
 10
266.375
 20
-153.61
 11
266.375
 21
-160.89
  0
LINE
  8
0
 10
266.375
 20
-160.89
 11
269.035
 21
-160.89
  0
LINE
  8
0
 10
269.035
 20
-160.89
 11
269.035
 21
-167.61
  0
LINE
  8
0
 10
269.035
 20
-167.61
 11
266.375
 21
-167.61
  0
LINE
  8
0
 10
266.375
 20
-167.61
 11
266.375
 21
-170.215
  0
LINE
  8
0
 10
266.375
 20
-170.215
 11
269.035
 21
-170.215
  0
LINE
  8
0
 10
269.035
 20
-170.215
 11
269.035
 21
-172.875
  0
LINE
  8
0
 10
269.035
 20
-172.875
 11
269.14
 21
-172.875
  0
LINE
  8
0
 10
269.14
 20
-172.875
 11
269.14
 21
-170.215
  0
LINE
  8
0
 10
-7.35999
 20
-170.215
 11
-4.64
 21
-170.215
  0
LINE
  8
0
 10
-4.64
 20
-170.215
 11
-4.64
 21
-172.875
  0
LINE
  8
0
 10
-4.64
 20
-172.875
 11
-1.35999
 21
-172.875
  0
LINE
  8
0
 10
-1.35999
 20
-172.875
 11
-1.35999
 21
-170.215
  0
LINE
  8
0
 10
-1.35999
 20
-170.215
 11
1.35999
 21
-170.215
  0
LINE
  8
0
 10
1.35999
 20
-170.215
 11
1.35999
 21
-172.875
  0
LINE
  8
0
 10
1.35999
 20
-172.875
 11
4.63998
 21
-172.875
  0
LINE
  8
0
 10
4.63998
 20
-172.875
 11
4.63998
 21
-170.215
  0
LINE
  8
0
 10
4.63998
 20
-170.215
 11
7.35997
 21
-170.215
  0
LINE
  8
0
 10
7.35997
 20
-170.215
 11
7.35997
 21
-172.875
  0
LINE
  8
0
 10
7.35997
 20
-172.875
 11
7.46498
 21
-172.875
  0
LINE
  8
0
 10
7.46498
 20
-172.875
 11
7.465
 21
-170.215
  0
LINE
  8
0
 10
7.465
 20
-170.215
 11
10.125
 21
-170.215
  0
LINE
  8
0
 10
10.125
 20
-170.215
 11
10.125
 21
-167.61
  0
LINE
  8
0
 10
10.125
 20
-167.61
 11
7.465
 21
-167.61
  0
LINE
  8
0
 10
7.465
 20
-167.61
 11
7.465
 21
-160.89
  0
LINE
  8
0
 10
7.465
 20
-160.89
 11
10.125
 21
-160.89
  0
LINE
  8
0
 10
10.125
 20
-160.89
 11
10.125
 21
-153.61
  0
LINE
  8
0
 10
10.125
 20
-153.61
 11
7.465
 21
-153.61
  0
LINE
  8
0
 10
7.465
 20
-153.61
 11
7.46498
 21
-146.89
  0
LINE
  8
0
 10
7.46498
 20
-146.89
 11
10.125
 21
-146.89
  0
LINE
  8
0
 10
10.125
 20
-146.89
 11
10.125
 21
-139.61
  0
LINE
  8
0
 10
10.125
 20
-139.61
 11
7.46498
 21
-139.61
  0
LINE
  8
0
 10
7.46498
 20
-139.61
 11
7.46498
 21
-132.89
  0
LINE
  8
0
 10
7.46498
 20
-132.89
 11
10.125
 21
-132.89
  0
LINE
  8
0
 10
10.125
 20
-132.89
 11
10.125
 21
-130.285
  0
LINE
  8
0
 10
10.125
 20
-130.285
 11
7.46498
 21
-130.285
  0
LINE
  8
0
 10
7.46498
 20
-130.285
 11
7.46498
 21
-127.625
  0
LINE
  8
0
 10
7.46498
 20
-127.625
 11
-7.46498
 21
-127.625
  0
LINE
  8
0
 10
-7.46498
 20
-127.625
 11
-7.46498
 21
-130.285
  0
LINE
  8
0
 10
-7.46498
 20
-130.285
 11
-10.125
 21
-130.285
  0
LINE
  8
0
 10
-10.125
 20
-130.285
 11
-10.125
 21
-132.89
  0
LINE
  8
0
 10
-10.125
 20
-132.89
 11
-7.46498
 21
-132.89
  0
LINE
  8
0
 10
-7.46498
 20
-132.89
 11
-7.46498
 21
-139.61
  0
LINE
  8
0
 10
-7.46498
 20
-139.61
 11
-10.125
 21
-139.61
  0
LINE
  8
0
 10
-10.125
 20
-139.61
 11
-10.125
 21
-146.89
  0
LINE
  8
0
 10
-10.125
 20
-146.89
 11
-7.46498
 21
-146.89
  0
LINE
  8
0
 10
-7.46498
 20
-146.89
 11
-7.465
 21
-153.61
  0
LINE
  8
0
 10
-7.465
 20
-153.61
 11
-10.125
 21
-153.61
  0
LINE
  8
0
 10
-10.125
 20
-153.61
 11
-10.125
 21
-160.89
  0
LINE
  8
0
 10
-10.125
 20
-160.89
 11
-7.465
 21
-160.89
  0
LINE
  8
0
 10
-7.465
 20
-160.89
 11
-7.465
 21
-167.61
  0
LINE
  8
0
 10
-7.465
 20
-167.61
 11
-10.125
 21
-167.61
  0
LINE
  8
0
 10
-10.125
 20
-167.61
 11
-10.125
 21
-170.215
  0
LINE
  8
0
 10
-10.125
 20
-170.215
 11
-7.465
 21
-170.215
  0
LINE
  8
0
 10
-7.465
 20
-170.215
 11
-7.465
 21
-172.875
  0
LINE
  8
0
 10
-7.465
 20
-172.875
 11
-7.35999
 21
-172.875
  0
LINE
  8
0
 10
-7.35999
 20
-172.875
 11
-7.35999
 21
-170.215
  0
LINE
  8
0
 10
33.39
 20
-170.215
 11
75.11
 21
-170.215
  0
LINE
  8
0
 10
75.11
 20
-170.215
 11
75.11
 21
-172.875
  0
LINE
  8
0
 10
75.11
 20
-172.875
 11
117.39
 21
-172.875
  0
LINE
  8
0
 10
117.39
 20
-172.875
 11
117.39
 21
-170.215
  0
LINE
  8
0
 10
117.39
 20
-170.215
 11
137.11
 21
-170.215
  0
LINE
  8
0
 10
137.11
 20
-170.215
 11
137.11
 21
-167.89
  0
LINE
  8
0
 10
137.11
 20
-167.89
 11
140.91
 21
-167.89
  0
LINE
  8
0
 10
140.91
 20
-167.89
 11
140.91
 21
-170.215
  0
LINE
  8
0
 10
140.91
 20
-170.215
 11
159.11
 21
-170.215
  0
LINE
  8
0
 10
159.11
 20
-170.215
 11
159.11
 21
-172.875
  0
LINE
  8
0
 10
159.11
 20
-172.875
 11
201.39
 21
-172.875
  0
LINE
  8
0
 10
201.39
 20
-172.875
 11
201.39
 21
-170.215
  0
LINE
  8
0
 10
201.39
 20
-170.215
 11
243.11
 21
-170.215
  0
LINE
  8
0
 10
243.11
 20
-170.215
 11
243.11
 21
-172.875
  0
LINE
  8
0
 10
243.11
 20
-172.875
 11
263.215
 21
-172.875
  0
LINE
  8
0
 10
263.215
 20
-172.875
 11
263.215
 21
-167.89
  0
LINE
  8
0
 10
263.215
 20
-167.89
 11
265.875
 21
-167.89
  0
LINE
  8
0
 10
265.875
 20
-167.89
 11
265.875
 21
-160.61
  0
LINE
  8
0
 10
265.875
 20
-160.61
 11
263.215
 21
-160.61
  0
LINE
  8
0
 10
263.215
 20
-160.61
 11
263.215
 21
-153.89
  0
LINE
  8
0
 10
263.215
 20
-153.89
 11
265.875
 21
-153.89
  0
LINE
  8
0
 10
265.875
 20
-153.89
 11
265.875
 21
-146.61
  0
LINE
  8
0
 10
265.875
 20
-146.61
 11
263.215
 21
-146.61
  0
LINE
  8
0
 10
263.215
 20
-146.61
 11
263.215
 21
-139.89
  0
LINE
  8
0
 10
263.215
 20
-139.89
 11
265.875
 21
-139.89
  0
LINE
  8
0
 10
265.875
 20
-139.89
 11
265.875
 21
-132.61
  0
LINE
  8
0
 10
265.875
 20
-132.61
 11
263.215
 21
-132.61
  0
LINE
  8
0
 10
263.215
 20
-132.61
 11
263.215
 21
-127.625
  0
LINE
  8
0
 10
263.215
 20
-127.625
 11
140.91
 21
-127.625
  0
LINE
  8
0
 10
140.91
 20
-127.625
 11
140.91
 21
-132.61
  0
LINE
  8
0
 10
140.91
 20
-132.61
 11
137.11
 21
-132.61
  0
LINE
  8
0
 10
137.11
 20
-132.61
 11
137.11
 21
-127.625
  0
LINE
  8
0
 10
137.11
 20
-127.625
 11
13.285
 21
-127.625
  0
LINE
  8
0
 10
13.285
 20
-127.625
 11
13.285
 21
-132.61
  0
LINE
  8
0
 10
13.285
 20
-132.61
 11
10.625
 21
-132.61
  0
LINE
  8
0
 10
10.625
 20
-132.61
 11
10.625
 21
-139.89
  0
LINE
  8
0
 10
10.625
 20
-139.89
 11
13.285
 21
-139.89
  0
LINE
  8
0
 10
13.285
 20
-139.89
 11
13.285
 21
-146.61
  0
LINE
  8
0
 10
13.285
 20
-146.61
 11
10.625
 21
-146.61
  0
LINE
  8
0
 10
10.625
 20
-146.61
 11
10.625
 21
-153.89
  0
LINE
  8
0
 10
10.625
 20
-153.89
 11
13.285
 21
-153.89
  0
LINE
  8
0
 10
13.285
 20
-153.89
 11
13.285
 21
-160.61
  0
LINE
  8
0
 10
13.285
 20
-160.61
 11
10.625
 21
-160.61
  0
LINE
  8
0
 10
10.625
 20
-160.61
 11
10.625
 21
-167.89
  0
LINE
  8
0
 10
10.625
 20
-167.89
 11
13.285
 21
-167.89
  0
LINE
  8
0
 10
13.285
 20
-167.89
 11
13.285
 21
-172.875
  0
LINE
  8
0
 10
13.285
 20
-172.875
 11
33.39
 21
-172.875
  0
LINE
  8
0
 10
33.39
 20
-172.875
 11
33.39
 21
-170.215
  0
LINE
  8
0
 10
137.11
 20
-146.61
 11
137.11
 21
-139.89
  0
LINE
  8
0
 10
137.11
 20
-139.89
 11
140.91
 21
-139.89
  0
LINE
  8
0
 10
140.91
 20
-139.89
 11
140.91
 21
-146.61
  0
LINE
  8
0
 10
140.91
 20
-146.61
 11
137.11
 21
-146.61
  0
LINE
  8
0
 10
137.11
 20
-160.61
 11
137.11
 21
-153.89
  0
LINE
  8
0
 10
137.11
 20
-153.89
 11
140.91
 21
-153.89
  0
LINE
  8
0
 10
140.91
 20
-153.89
 11
140.91
 21
-160.61
  0
LINE
  8
0
 10
140.91
 20
-160.61
 11
137.11
 21
-160.61
  0
LINE
  8
0
 10
-243.11
 20
-170.215
 11
-201.39
 21
-170.215
  0
LINE
  8
0
 10
-201.39
 20
-170.215
 11
-201.39
 21
-172.875
  0
LINE
  8
0
 10
-201.39
 20
-172.875
 11
-159.11
 21
-172.875
  0
LINE
  8
0
 10
-159.11
 20
-172.875
 11
-159.11
 21
-170.215
  0
LINE
  8
0
 10
-159.11
 20
-170.215
 11
-139.39
 21
-170.215
  0
LINE
  8
0
 10
-139.39
 20
-170.215
 11
-139.39
 21
-167.89
  0
LINE
  8
0
 10
-139.39
 20
-167.89
 11
-135.59
 21
-167.89
  0
LINE
  8
0
 10
-135.59
 20
-167.89
 11
-135.59
 21
-170.215
  0
LINE
  8
0
 10
-135.59
 20
-170.215
 11
-117.39
 21
-170.215
  0
LINE
  8
0
 10
-117.39
 20
-170.215
 11
-117.39
 21
-172.875
  0
LINE
  8
0
 10
-117.39
 20
-172.875
 11
-75.11
 21
-172.875
  0
LINE
  8
0
 10
-75.11
 20
-172.875
 11
-75.11
 21
-170.215
  0
LINE
  8
0
 10
-75.11
 20
-170.215
 11
-33.39
 21
-170.215
  0
LINE
  8
0
 10
-33.39
 20
-170.215
 11
-33.39
 21
-172.875
  0
LINE
  8
0
 10
-33.39
 20
-172.875
 11
-13.285
 21
-172.875
  0
LINE
  8
0
 10
-13.285
 20
-172.875
 11
-13.285
 21
-167.89
  0
LINE
  8
0
 10
-13.285
 20
-167.89
 11
-10.625
 21
-167.89
  0
LINE
  8
0
 10
-10.625
 20
-167.89
 11
-10.625
 21
-160.61
  0
LINE
  8
0
 10
-10.625
 20
-160.61
 11
-13.285
 21
-160.61
  0
LINE
  8
0
 10
-13.285
 20
-160.61
 11
-13.285
 21
-153.89
  0
LINE
  8
0
 10
-13.285
 20
-153.89
 11
-10.625
 21
-153.89
  0
LINE
  8
0
 10
-10.625
 20
-153.89
 11
-10.625
 21
-146.61
  0
LINE
  8
0
 10
-10.625
 20
-146.61
 11
-13.285
 21
-146.61
  0
LINE
  8
0
 10
-13.285
 20
-146.61
 11
-13.285
 21
-139.89
  0
LINE
  8
0
 10
-13.285
 20
-139.89
 11
-10.625
 21
-139.89
  0
LINE
  8
0
 10
-10.625
 20
-139.89
 11
-10.625
 21
-132.61
  0
LINE
  8
0
 10
-10.625
 20
-132.61
 11
-13.285
 21
-132.61
  0
LINE
  8
0
 10
-13.285
 20
-132.61
 11
-13.285
 21
-127.625
  0
LINE
  8
0
 10
-13.285
 20
-127.625
 11
-135.59
 21
-127.625
  0
LINE
  8
0
 10
-135.59
 20
-127.625
 11
-135.59
 21
-132.61
  0
LINE
  8
0
 10
-135.59
 20
-132.61
 11
-139.39
 21
-132.61
  0
LINE
  8
0
 10
-139.39
 20
-132.61
 11
-139.39
 21
-127.625
  0
LINE
  8
0
 10
-139.39
 20
-127.625
 11
-263.215
 21
-127.625
  0
LINE
  8
0
 10
-263.215
 20
-127.625
 11
-263.215
 21
-132.61
  0
LINE
  8
0
 10
-263.215
 20
-132.61
 11
-265.875
 21
-132.61
  0
LINE
  8
0
 10
-265.875
 20
-132.61
 11
-265.875
 21
-139.89
  0
LINE
  8
0
 10
-265.875
 20
-139.89
 11
-263.215
 21
-139.89
  0
LINE
  8
0
 10
-263.215
 20
-139.89
 11
-263.215
 21
-146.61
  0
LINE
  8
0
 10
-263.215
 20
-146.61
 11
-265.875
 21
-146.61
  0
LINE
  8
0
 10
-265.875
 20
-146.61
 11
-265.875
 21
-153.89
  0
LINE
  8
0
 10
-265.875
 20
-153.89
 11
-263.215
 21
-153.89
  0
LINE
  8
0
 10
-263.215
 20
-153.89
 11
-263.215
 21
-160.61
  0
LINE
  8
0
 10
-263.215
 20
-160.61
 11
-265.875
 21
-160.61
  0
LINE
  8
0
 10
-265.875
 20
-160.61
 11
-265.875
 21
-167.89
  0
LINE
  8
0
 10
-265.875
 20
-167.89
 11
-263.215
 21
-167.89
  0
LINE
  8
0
 10
-263.215
 20
-167.89
 11
-263.215
 21
-172.875
  0
LINE
  8
0
 10
-263.215
 20
-172.875
 11
-243.11
 21
-172.875
  0
LINE
  8
0
 10
-243.11
 20
-172.875
 11
-243.11
 21
-170.215
  0
LINE
  8
0
 10
-139.39
 20
-146.61
 11
-139.39
 21
-139.89
  0
LINE
  8
0
 10
-139.39
 20
-139.89
 11
-135.59
 21
-139.89
  0
LINE
  8
0
 10
-135.59
 20
-139.89
 11
-135.59
 21
-146.61
  0
LINE
  8
0
 10
-135.59
 20
-146.61
 11
-139.39
 21
-146.61
  0
LINE
  8
0
 10
-139.39
 20
-160.61
 11
-139.39
 21
-154.594
  0
LINE
  8
0
 10
-139.39
 20
-154.594
 11
-139.681
 21
-154.594
  0
LINE
  8
0
 10
-139.681
 20
-154.594
 11
-141.927
 21
-151.584
  0
LINE
  8
0
 10
-141.927
 20
-151.584
 11
-142.744
 21
-152.248
  0
LINE
  8
0
 10
-142.744
 20
-152.248
 11
-142.744
 21
-154.594
  0
LINE
  8
0
 10
-142.744
 20
-154.594
 11
-143.841
 21
-154.594
  0
LINE
  8
0
 10
-143.841
 20
-154.594
 11
-143.841
 21
-145.57
  0
LINE
  8
0
 10
-143.841
 20
-145.57
 11
-142.744
 21
-145.57
  0
LINE
  8
0
 10
-142.744
 20
-145.57
 11
-142.744
 21
-151.201
  0
LINE
  8
0
 10
-142.744
 20
-151.201
 11
-139.823
 21
-148.002
  0
LINE
  8
0
 10
-139.823
 20
-148.002
 11
-138.537
 21
-148.002
  0
LINE
  8
0
 10
-138.537
 20
-148.002
 11
-141.226
 21
-150.835
  0
LINE
  8
0
 10
-141.226
 20
-150.835
 11
-138.926
 21
-153.89
  0
LINE
  8
0
 10
-138.926
 20
-153.89
 11
-137.257
 21
-153.89
  0
LINE
  8
0
 10
-137.257
 20
-153.89
 11
-137.303
 21
-153.849
  0
LINE
  8
0
 10
-137.303
 20
-153.849
 11
-137.636
 21
-153.359
  0
LINE
  8
0
 10
-137.636
 20
-153.359
 11
-137.874
 21
-152.764
  0
LINE
  8
0
 10
-137.874
 20
-152.764
 11
-138.017
 21
-152.062
  0
LINE
  8
0
 10
-138.017
 20
-152.062
 11
-138.064
 21
-151.255
  0
LINE
  8
0
 10
-138.064
 20
-151.255
 11
-138.017
 21
-150.485
  0
LINE
  8
0
 10
-138.017
 20
-150.485
 11
-137.874
 21
-149.81
  0
LINE
  8
0
 10
-137.874
 20
-149.81
 11
-137.636
 21
-149.231
  0
LINE
  8
0
 10
-137.636
 20
-149.231
 11
-137.303
 21
-148.747
  0
LINE
  8
0
 10
-137.303
 20
-148.747
 11
-136.882
 21
-148.365
  0
LINE
  8
0
 10
-136.882
 20
-148.365
 11
-136.378
 21
-148.092
  0
LINE
  8
0
 10
-136.378
 20
-148.092
 11
-135.794
 21
-147.928
  0
LINE
  8
0
 10
-135.794
 20
-147.928
 11
-135.127
 21
-147.874
  0
LINE
  8
0
 10
-135.127
 20
-147.874
 11
-133.861
 21
-148.093
  0
LINE
  8
0
 10
-133.861
 20
-148.093
 11
-132.956
 21
-148.751
  0
LINE
  8
0
 10
-132.956
 20
-148.751
 11
-132.413
 21
-149.848
  0
LINE
  8
0
 10
-132.413
 20
-149.848
 11
-132.232
 21
-151.384
  0
LINE
  8
0
 10
-132.232
 20
-151.384
 11
-132.232
 21
-151.531
  0
LINE
  8
0
 10
-132.232
 20
-151.531
 11
-136.912
 21
-151.531
  0
LINE
  8
0
 10
-136.912
 20
-151.531
 11
-136.883
 21
-152.066
  0
LINE
  8
0
 10
-136.883
 20
-152.066
 11
-136.796
 21
-152.536
  0
LINE
  8
0
 10
-136.796
 20
-152.536
 11
-136.65
 21
-152.942
  0
LINE
  8
0
 10
-136.65
 20
-152.942
 11
-136.446
 21
-153.283
  0
LINE
  8
0
 10
-136.446
 20
-153.283
 11
-136.186
 21
-153.552
  0
LINE
  8
0
 10
-136.186
 20
-153.552
 11
-135.873
 21
-153.745
  0
LINE
  8
0
 10
-135.873
 20
-153.745
 11
-135.505
 21
-153.86
  0
LINE
  8
0
 10
-135.505
 20
-153.86
 11
-135.084
 21
-153.899
  0
LINE
  8
0
 10
-135.084
 20
-153.899
 11
-134.748
 21
-153.88
  0
LINE
  8
0
 10
-134.748
 20
-153.88
 11
-134.447
 21
-153.826
  0
LINE
  8
0
 10
-134.447
 20
-153.826
 11
-134.18
 21
-153.734
  0
LINE
  8
0
 10
-134.18
 20
-153.734
 11
-133.949
 21
-153.607
  0
LINE
  8
0
 10
-133.949
 20
-153.607
 11
-133.753
 21
-153.451
  0
LINE
  8
0
 10
-133.753
 20
-153.451
 11
-133.591
 21
-153.275
  0
LINE
  8
0
 10
-133.591
 20
-153.275
 11
-133.464
 21
-153.08
  0
LINE
  8
0
 10
-133.464
 20
-153.08
 11
-133.371
 21
-152.866
  0
LINE
  8
0
 10
-133.371
 20
-152.866
 11
-132.408
 21
-153.143
  0
LINE
  8
0
 10
-132.408
 20
-153.143
 11
-132.796
 21
-153.834
  0
LINE
  8
0
 10
-132.796
 20
-153.834
 11
-133.372
 21
-154.327
  0
LINE
  8
0
 10
-133.372
 20
-154.327
 11
-134.134
 21
-154.623
  0
LINE
  8
0
 10
-134.134
 20
-154.623
 11
-135.084
 21
-154.722
  0
LINE
  8
0
 10
-135.084
 20
-154.722
 11
-135.59
 21
-154.681
  0
LINE
  8
0
 10
-135.59
 20
-154.681
 11
-135.59
 21
-160.61
  0
LINE
  8
0
 10
-135.59
 20
-160.61
 11
-139.39
 21
-160.61
  0
LINE
  8
0
 10
-133.432
 20
-150.202
 11
-133.543
 21
-149.785
  0
LINE
  8
0
 10
-133.543
 20
-149.785
 11
-133.696
 21
-149.439
  0
LINE
  8
0
 10
-133.696
 20
-149.439
 11
-133.892
 21
-149.164
  0
LINE
  8
0
 10
-133.892
 20
-149.164
 11
-134.134
 21
-148.954
  0
LINE
  8
0
 10
-134.134
 20
-148.954
 11
-134.423
 21
-148.804
  0
LINE
  8
0
 10
-134.423
 20
-148.804
 11
-134.76
 21
-148.714
  0
LINE
  8
0
 10
-134.76
 20
-148.714
 11
-135.145
 21
-148.684
  0
LINE
  8
0
 10
-135.145
 20
-148.684
 11
-135.521
 21
-148.717
  0
LINE
  8
0
 10
-135.521
 20
-148.717
 11
-135.856
 21
-148.818
  0
LINE
  8
0
 10
-135.856
 20
-148.818
 11
-136.149
 21
-148.985
  0
LINE
  8
0
 10
-136.149
 20
-148.985
 11
-136.401
 21
-149.219
  0
LINE
  8
0
 10
-136.401
 20
-149.219
 11
-136.606
 21
-149.511
  0
LINE
  8
0
 10
-136.606
 20
-149.511
 11
-136.758
 21
-149.854
  0
LINE
  8
0
 10
-136.758
 20
-149.854
 11
-136.856
 21
-150.247
  0
LINE
  8
0
 10
-136.856
 20
-150.247
 11
-136.9
 21
-150.69
  0
LINE
  8
0
 10
-136.9
 20
-150.69
 11
-133.365
 21
-150.69
  0
LINE
  8
0
 10
-133.365
 20
-150.69
 11
-133.432
 21
-150.202
  0
LINE
  8
0
 10
-154.331
 20
-154.594
 11
-154.331
 21
-146.969
  0
LINE
  8
0
 10
-154.331
 20
-146.969
 11
-157.278
 21
-146.969
  0
LINE
  8
0
 10
-157.278
 20
-146.969
 11
-157.278
 21
-146.018
  0
LINE
  8
0
 10
-157.278
 20
-146.018
 11
-150.228
 21
-146.018
  0
LINE
  8
0
 10
-150.228
 20
-146.018
 11
-150.228
 21
-146.969
  0
LINE
  8
0
 10
-150.228
 20
-146.969
 11
-153.173
 21
-146.969
  0
LINE
  8
0
 10
-153.173
 20
-146.969
 11
-153.173
 21
-154.594
  0
LINE
  8
0
 10
-153.173
 20
-154.594
 11
-154.331
 21
-154.594
  0
LINE
  8
0
 10
-148.71
 20
-154.667
 11
-149.298
 21
-154.501
  0
LINE
  8
0
 10
-149.298
 20
-154.501
 11
-149.797
 21
-154.226
  0
LINE
  8
0
 10
-149.797
 20
-154.226
 11
-150.208
 21
-153.84
  0
LINE
  8
0
 10
-150.208
 20
-153.84
 11
-150.529
 21
-153.35
  0
LINE
  8
0
 10
-150.529
 20
-153.35
 11
-150.759
 21
-152.762
  0
LINE
  8
0
 10
-150.759
 20
-152.762
 11
-150.896
 21
-152.076
  0
LINE
  8
0
 10
-150.896
 20
-152.076
 11
-150.942
 21
-151.292
  0
LINE
  8
0
 10
-150.942
 20
-151.292
 11
-150.758
 21
-149.796
  0
LINE
  8
0
 10
-150.758
 20
-149.796
 11
-150.207
 21
-148.728
  0
LINE
  8
0
 10
-150.207
 20
-148.728
 11
-149.287
 21
-148.087
  0
LINE
  8
0
 10
-149.287
 20
-148.087
 11
-147.999
 21
-147.874
  0
LINE
  8
0
 10
-147.999
 20
-147.874
 11
-147.297
 21
-147.926
  0
LINE
  8
0
 10
-147.297
 20
-147.926
 11
-146.693
 21
-148.082
  0
LINE
  8
0
 10
-146.693
 20
-148.082
 11
-146.189
 21
-148.342
  0
LINE
  8
0
 10
-146.189
 20
-148.342
 11
-145.784
 21
-148.707
  0
LINE
  8
0
 10
-145.784
 20
-148.707
 11
-145.474
 21
-149.181
  0
LINE
  8
0
 10
-145.474
 20
-149.181
 11
-145.252
 21
-149.77
  0
LINE
  8
0
 10
-145.252
 20
-149.77
 11
-145.119
 21
-150.473
  0
LINE
  8
0
 10
-145.119
 20
-150.473
 11
-145.074
 21
-151.292
  0
LINE
  8
0
 10
-145.074
 20
-151.292
 11
-145.122
 21
-152.103
  0
LINE
  8
0
 10
-145.122
 20
-152.103
 11
-145.264
 21
-152.804
  0
LINE
  8
0
 10
-145.264
 20
-152.804
 11
-145.501
 21
-153.394
  0
LINE
  8
0
 10
-145.501
 20
-153.394
 11
-145.833
 21
-153.874
  0
LINE
  8
0
 10
-145.833
 20
-153.874
 11
-146.255
 21
-154.245
  0
LINE
  8
0
 10
-146.255
 20
-154.245
 11
-146.763
 21
-154.51
  0
LINE
  8
0
 10
-146.763
 20
-154.51
 11
-147.356
 21
-154.669
  0
LINE
  8
0
 10
-147.356
 20
-154.669
 11
-148.035
 21
-154.722
  0
LINE
  8
0
 10
-148.035
 20
-154.722
 11
-148.71
 21
-154.667
  0
LINE
  8
0
 10
-147.592
 20
-153.872
 11
-147.207
 21
-153.753
  0
LINE
  8
0
 10
-147.207
 20
-153.753
 11
-146.892
 21
-153.555
  0
LINE
  8
0
 10
-146.892
 20
-153.555
 11
-146.647
 21
-153.277
  0
LINE
  8
0
 10
-146.647
 20
-153.277
 11
-146.463
 21
-152.915
  0
LINE
  8
0
 10
-146.463
 20
-152.915
 11
-146.332
 21
-152.463
  0
LINE
  8
0
 10
-146.332
 20
-152.463
 11
-146.253
 21
-151.922
  0
LINE
  8
0
 10
-146.253
 20
-151.922
 11
-146.226
 21
-151.292
  0
LINE
  8
0
 10
-146.226
 20
-151.292
 11
-146.252
 21
-150.654
  0
LINE
  8
0
 10
-146.252
 20
-150.654
 11
-146.327
 21
-150.111
  0
LINE
  8
0
 10
-146.327
 20
-150.111
 11
-146.453
 21
-149.661
  0
LINE
  8
0
 10
-146.453
 20
-149.661
 11
-146.629
 21
-149.304
  0
LINE
  8
0
 10
-146.629
 20
-149.304
 11
-146.865
 21
-149.033
  0
LINE
  8
0
 10
-146.865
 20
-149.033
 11
-147.168
 21
-148.839
  0
LINE
  8
0
 10
-147.168
 20
-148.839
 11
-147.541
 21
-148.723
  0
LINE
  8
0
 10
-147.541
 20
-148.723
 11
-147.981
 21
-148.684
  0
LINE
  8
0
 10
-147.981
 20
-148.684
 11
-148.426
 21
-148.723
  0
LINE
  8
0
 10
-148.426
 20
-148.723
 11
-148.805
 21
-148.842
  0
LINE
  8
0
 10
-148.805
 20
-148.842
 11
-149.118
 21
-149.039
  0
LINE
  8
0
 10
-149.118
 20
-149.039
 11
-149.364
 21
-149.316
  0
LINE
  8
0
 10
-149.364
 20
-149.316
 11
-149.551
 21
-149.676
  0
LINE
  8
0
 10
-149.551
 20
-149.676
 11
-149.684
 21
-150.126
  0
LINE
  8
0
 10
-149.684
 20
-150.126
 11
-149.764
 21
-150.664
  0
LINE
  8
0
 10
-149.764
 20
-150.664
 11
-149.79
 21
-151.292
  0
LINE
  8
0
 10
-149.79
 20
-151.292
 11
-149.764
 21
-151.905
  0
LINE
  8
0
 10
-149.764
 20
-151.905
 11
-149.685
 21
-152.436
  0
LINE
  8
0
 10
-149.685
 20
-152.436
 11
-149.554
 21
-152.887
  0
LINE
  8
0
 10
-149.554
 20
-152.887
 11
-149.37
 21
-153.256
  0
LINE
  8
0
 10
-149.37
 20
-153.256
 11
-149.13
 21
-153.543
  0
LINE
  8
0
 10
-149.13
 20
-153.543
 11
-148.829
 21
-153.748
  0
LINE
  8
0
 10
-148.829
 20
-153.748
 11
-148.468
 21
-153.871
  0
LINE
  8
0
 10
-148.468
 20
-153.871
 11
-148.047
 21
-153.912
  0
LINE
  8
0
 10
-148.047
 20
-153.912
 11
-147.592
 21
-153.872
  0
LINE
  8
0
 10
-130.952
 20
-154.594
 11
-130.952
 21
-149.409
  0
LINE
  8
0
 10
-130.952
 20
-149.409
 11
-130.954
 21
-148.889
  0
LINE
  8
0
 10
-130.954
 20
-148.889
 11
-130.961
 21
-148.482
  0
LINE
  8
0
 10
-130.961
 20
-148.482
 11
-130.972
 21
-148.186
  0
LINE
  8
0
 10
-130.972
 20
-148.186
 11
-130.988
 21
-148.002
  0
LINE
  8
0
 10
-130.988
 20
-148.002
 11
-129.953
 21
-148.002
  0
LINE
  8
0
 10
-129.953
 20
-148.002
 11
-129.947
 21
-148.058
  0
LINE
  8
0
 10
-129.947
 20
-148.058
 11
-129.92
 21
-148.577
  0
LINE
  8
0
 10
-129.92
 20
-148.577
 11
-129.904
 21
-149.124
  0
LINE
  8
0
 10
-129.904
 20
-149.124
 11
-129.886
 21
-149.124
  0
LINE
  8
0
 10
-129.886
 20
-149.124
 11
-129.691
 21
-148.807
  0
LINE
  8
0
 10
-129.691
 20
-148.807
 11
-129.48
 21
-148.541
  0
LINE
  8
0
 10
-129.48
 20
-148.541
 11
-129.256
 21
-148.324
  0
LINE
  8
0
 10
-129.256
 20
-148.324
 11
-129.016
 21
-148.158
  0
LINE
  8
0
 10
-129.016
 20
-148.158
 11
-128.754
 21
-148.034
  0
LINE
  8
0
 10
-128.754
 20
-148.034
 11
-128.462
 21
-147.945
  0
LINE
  8
0
 10
-128.462
 20
-147.945
 11
-128.14
 21
-147.892
  0
LINE
  8
0
 10
-128.14
 20
-147.892
 11
-127.788
 21
-147.874
  0
LINE
  8
0
 10
-127.788
 20
-147.874
 11
-127.285
 21
-147.908
  0
LINE
  8
0
 10
-127.285
 20
-147.908
 11
-126.854
 21
-148.009
  0
LINE
  8
0
 10
-126.854
 20
-148.009
 11
-126.495
 21
-148.178
  0
LINE
  8
0
 10
-126.495
 20
-148.178
 11
-126.209
 21
-148.414
  0
LINE
  8
0
 10
-126.209
 20
-148.414
 11
-125.99
 21
-148.727
  0
LINE
  8
0
 10
-125.99
 20
-148.727
 11
-125.834
 21
-149.129
  0
LINE
  8
0
 10
-125.834
 20
-149.129
 11
-125.74
 21
-149.619
  0
LINE
  8
0
 10
-125.74
 20
-149.619
 11
-125.709
 21
-150.197
  0
LINE
  8
0
 10
-125.709
 20
-150.197
 11
-125.709
 21
-154.594
  0
LINE
  8
0
 10
-125.709
 20
-154.594
 11
-126.812
 21
-154.594
  0
LINE
  8
0
 10
-126.812
 20
-154.594
 11
-126.812
 21
-150.41
  0
LINE
  8
0
 10
-126.812
 20
-150.41
 11
-126.82
 21
-150.102
  0
LINE
  8
0
 10
-126.82
 20
-150.102
 11
-126.844
 21
-149.831
  0
LINE
  8
0
 10
-126.844
 20
-149.831
 11
-126.883
 21
-149.596
  0
LINE
  8
0
 10
-126.883
 20
-149.596
 11
-126.939
 21
-149.398
  0
LINE
  8
0
 10
-126.939
 20
-149.398
 11
-127.012
 21
-149.23
  0
LINE
  8
0
 10
-127.012
 20
-149.23
 11
-127.104
 21
-149.088
  0
LINE
  8
0
 10
-127.104
 20
-149.088
 11
-127.215
 21
-148.971
  0
LINE
  8
0
 10
-127.215
 20
-148.971
 11
-127.345
 21
-148.88
  0
LINE
  8
0
 10
-127.345
 20
-148.88
 11
-127.5
 21
-148.81
  0
LINE
  8
0
 10
-127.5
 20
-148.81
 11
-127.688
 21
-148.761
  0
LINE
  8
0
 10
-127.688
 20
-148.761
 11
-127.908
 21
-148.731
  0
LINE
  8
0
 10
-127.908
 20
-148.731
 11
-128.161
 21
-148.721
  0
LINE
  8
0
 10
-128.161
 20
-148.721
 11
-128.534
 21
-148.755
  0
LINE
  8
0
 10
-128.534
 20
-148.755
 11
-128.865
 21
-148.857
  0
LINE
  8
0
 10
-128.865
 20
-148.857
 11
-129.154
 21
-149.026
  0
LINE
  8
0
 10
-129.154
 20
-149.026
 11
-129.402
 21
-149.264
  0
LINE
  8
0
 10
-129.402
 20
-149.264
 11
-129.6
 21
-149.562
  0
LINE
  8
0
 10
-129.6
 20
-149.562
 11
-129.742
 21
-149.912
  0
LINE
  8
0
 10
-129.742
 20
-149.912
 11
-129.827
 21
-150.314
  0
LINE
  8
0
 10
-129.827
 20
-150.314
 11
-129.855
 21
-150.77
  0
LINE
  8
0
 10
-129.855
 20
-150.77
 11
-129.855
 21
-154.594
  0
LINE
  8
0
 10
-129.855
 20
-154.594
 11
-130.952
 21
-154.594
  0
LINE
  8
0
 10
-122.489
 20
-154.696
 11
-123.001
 21
-154.62
  0
LINE
  8
0
 10
-123.001
 20
-154.62
 11
-123.443
 21
-154.494
  0
LINE
  8
0
 10
-123.443
 20
-154.494
 11
-123.814
 21
-154.317
  0
LINE
  8
0
 10
-123.814
 20
-154.317
 11
-124.12
 21
-154.085
  0
LINE
  8
0
 10
-124.12
 20
-154.085
 11
-124.367
 21
-153.797
  0
LINE
  8
0
 10
-124.367
 20
-153.797
 11
-124.556
 21
-153.453
  0
LINE
  8
0
 10
-124.556
 20
-153.453
 11
-124.687
 21
-153.052
  0
LINE
  8
0
 10
-124.687
 20
-153.052
 11
-123.718
 21
-152.863
  0
LINE
  8
0
 10
-123.718
 20
-152.863
 11
-123.628
 21
-153.11
  0
LINE
  8
0
 10
-123.628
 20
-153.11
 11
-123.501
 21
-153.322
  0
LINE
  8
0
 10
-123.501
 20
-153.322
 11
-123.337
 21
-153.499
  0
LINE
  8
0
 10
-123.337
 20
-153.499
 11
-123.135
 21
-153.64
  0
LINE
  8
0
 10
-123.135
 20
-153.64
 11
-122.892
 21
-153.748
  0
LINE
  8
0
 10
-122.892
 20
-153.748
 11
-122.606
 21
-153.825
  0
LINE
  8
0
 10
-122.606
 20
-153.825
 11
-122.277
 21
-153.871
  0
LINE
  8
0
 10
-122.277
 20
-153.871
 11
-121.905
 21
-153.887
  0
LINE
  8
0
 10
-121.905
 20
-153.887
 11
-121.512
 21
-153.871
  0
LINE
  8
0
 10
-121.512
 20
-153.871
 11
-121.176
 21
-153.822
  0
LINE
  8
0
 10
-121.176
 20
-153.822
 11
-120.896
 21
-153.742
  0
LINE
  8
0
 10
-120.896
 20
-153.742
 11
-120.673
 21
-153.629
  0
LINE
  8
0
 10
-120.673
 20
-153.629
 11
-120.502
 21
-153.484
  0
LINE
  8
0
 10
-120.502
 20
-153.484
 11
-120.38
 21
-153.306
  0
LINE
  8
0
 10
-120.38
 20
-153.306
 11
-120.307
 21
-153.097
  0
LINE
  8
0
 10
-120.307
 20
-153.097
 11
-120.283
 21
-152.855
  0
LINE
  8
0
 10
-120.283
 20
-152.855
 11
-120.3
 21
-152.668
  0
LINE
  8
0
 10
-120.3
 20
-152.668
 11
-120.35
 21
-152.5
  0
LINE
  8
0
 10
-120.35
 20
-152.5
 11
-120.435
 21
-152.35
  0
LINE
  8
0
 10
-120.435
 20
-152.35
 11
-120.553
 21
-152.219
  0
LINE
  8
0
 10
-120.553
 20
-152.219
 11
-120.708
 21
-152.102
  0
LINE
  8
0
 10
-120.708
 20
-152.102
 11
-120.905
 21
-151.995
  0
LINE
  8
0
 10
-120.905
 20
-151.995
 11
-121.144
 21
-151.9
  0
LINE
  8
0
 10
-121.144
 20
-151.9
 11
-121.424
 21
-151.815
  0
LINE
  8
0
 10
-121.424
 20
-151.815
 11
-122.215
 21
-151.607
  0
LINE
  8
0
 10
-122.215
 20
-151.607
 11
-122.656
 21
-151.485
  0
LINE
  8
0
 10
-122.656
 20
-151.485
 11
-123.028
 21
-151.364
  0
LINE
  8
0
 10
-123.028
 20
-151.364
 11
-123.332
 21
-151.245
  0
LINE
  8
0
 10
-123.332
 20
-151.245
 11
-123.568
 21
-151.127
  0
LINE
  8
0
 10
-123.568
 20
-151.127
 11
-123.758
 21
-151.002
  0
LINE
  8
0
 10
-123.758
 20
-151.002
 11
-123.926
 21
-150.866
  0
LINE
  8
0
 10
-123.926
 20
-150.866
 11
-124.072
 21
-150.716
  0
LINE
  8
0
 10
-124.072
 20
-150.716
 11
-124.197
 21
-150.555
  0
LINE
  8
0
 10
-124.197
 20
-150.555
 11
-124.296
 21
-150.377
  0
LINE
  8
0
 10
-124.296
 20
-150.377
 11
-124.367
 21
-150.18
  0
LINE
  8
0
 10
-124.367
 20
-150.18
 11
-124.409
 21
-149.963
  0
LINE
  8
0
 10
-124.409
 20
-149.963
 11
-124.424
 21
-149.728
  0
LINE
  8
0
 10
-124.424
 20
-149.728
 11
-124.383
 21
-149.302
  0
LINE
  8
0
 10
-124.383
 20
-149.302
 11
-124.262
 21
-148.93
  0
LINE
  8
0
 10
-124.262
 20
-148.93
 11
-124.06
 21
-148.612
  0
LINE
  8
0
 10
-124.06
 20
-148.612
 11
-123.778
 21
-148.348
  0
LINE
  8
0
 10
-123.778
 20
-148.348
 11
-123.418
 21
-148.14
  0
LINE
  8
0
 10
-123.418
 20
-148.14
 11
-122.984
 21
-147.992
  0
LINE
  8
0
 10
-122.984
 20
-147.992
 11
-122.476
 21
-147.903
  0
LINE
  8
0
 10
-122.476
 20
-147.903
 11
-121.894
 21
-147.874
  0
LINE
  8
0
 10
-121.894
 20
-147.874
 11
-121.374
 21
-147.898
  0
LINE
  8
0
 10
-121.374
 20
-147.898
 11
-120.91
 21
-147.97
  0
LINE
  8
0
 10
-120.91
 20
-147.97
 11
-120.503
 21
-148.09
  0
LINE
  8
0
 10
-120.503
 20
-148.09
 11
-120.152
 21
-148.258
  0
LINE
  8
0
 10
-120.152
 20
-148.258
 11
-119.858
 21
-148.479
  0
LINE
  8
0
 10
-119.858
 20
-148.479
 11
-119.624
 21
-148.758
  0
LINE
  8
0
 10
-119.624
 20
-148.758
 11
-119.449
 21
-149.094
  0
LINE
  8
0
 10
-119.449
 20
-149.094
 11
-119.334
 21
-149.489
  0
LINE
  8
0
 10
-119.334
 20
-149.489
 11
-120.321
 21
-149.611
  0
LINE
  8
0
 10
-120.321
 20
-149.611
 11
-120.386
 21
-149.404
  0
LINE
  8
0
 10
-120.386
 20
-149.404
 11
-120.49
 21
-149.223
  0
LINE
  8
0
 10
-120.49
 20
-149.223
 11
-120.634
 21
-149.068
  0
LINE
  8
0
 10
-120.634
 20
-149.068
 11
-120.816
 21
-148.938
  0
LINE
  8
0
 10
-120.816
 20
-148.938
 11
-121.034
 21
-148.835
  0
LINE
  8
0
 10
-121.034
 20
-148.835
 11
-121.286
 21
-148.762
  0
LINE
  8
0
 10
-121.286
 20
-148.762
 11
-121.573
 21
-148.717
  0
LINE
  8
0
 10
-121.573
 20
-148.717
 11
-121.894
 21
-148.703
  0
LINE
  8
0
 10
-121.894
 20
-148.703
 11
-122.244
 21
-148.717
  0
LINE
  8
0
 10
-122.244
 20
-148.717
 11
-122.545
 21
-148.76
  0
LINE
  8
0
 10
-122.545
 20
-148.76
 11
-122.798
 21
-148.83
  0
LINE
  8
0
 10
-122.798
 20
-148.83
 11
-123.001
 21
-148.93
  0
LINE
  8
0
 10
-123.001
 20
-148.93
 11
-123.156
 21
-149.058
  0
LINE
  8
0
 10
-123.156
 20
-149.058
 11
-123.268
 21
-149.215
  0
LINE
  8
0
 10
-123.268
 20
-149.215
 11
-123.334
 21
-149.402
  0
LINE
  8
0
 10
-123.334
 20
-149.402
 11
-123.357
 21
-149.618
  0
LINE
  8
0
 10
-123.357
 20
-149.618
 11
-123.347
 21
-149.753
  0
LINE
  8
0
 10
-123.347
 20
-149.753
 11
-123.32
 21
-149.875
  0
LINE
  8
0
 10
-123.32
 20
-149.875
 11
-123.274
 21
-149.986
  0
LINE
  8
0
 10
-123.274
 20
-149.986
 11
-123.21
 21
-150.084
  0
LINE
  8
0
 10
-123.21
 20
-150.084
 11
-123.127
 21
-150.172
  0
LINE
  8
0
 10
-123.127
 20
-150.172
 11
-123.027
 21
-150.253
  0
LINE
  8
0
 10
-123.027
 20
-150.253
 11
-122.91
 21
-150.328
  0
LINE
  8
0
 10
-122.91
 20
-150.328
 11
-122.775
 21
-150.396
  0
LINE
  8
0
 10
-122.775
 20
-150.396
 11
-122.59
 21
-150.466
  0
LINE
  8
0
 10
-122.59
 20
-150.466
 11
-122.326
 21
-150.548
  0
LINE
  8
0
 10
-122.326
 20
-150.548
 11
-121.983
 21
-150.643
  0
LINE
  8
0
 10
-121.983
 20
-150.643
 11
-121.56
 21
-150.75
  0
LINE
  8
0
 10
-121.56
 20
-150.75
 11
-121.152
 21
-150.858
  0
LINE
  8
0
 10
-121.152
 20
-150.858
 11
-120.805
 21
-150.961
  0
LINE
  8
0
 10
-120.805
 20
-150.961
 11
-120.52
 21
-151.061
  0
LINE
  8
0
 10
-120.52
 20
-151.061
 11
-120.297
 21
-151.157
  0
LINE
  8
0
 10
-120.297
 20
-151.157
 11
-120.113
 21
-151.253
  0
LINE
  8
0
 10
-120.113
 20
-151.253
 11
-119.95
 21
-151.354
  0
LINE
  8
0
 10
-119.95
 20
-151.354
 11
-119.808
 21
-151.46
  0
LINE
  8
0
 10
-119.808
 20
-151.46
 11
-119.686
 21
-151.571
  0
LINE
  8
0
 10
-119.686
 20
-151.571
 11
-119.58
 21
-151.688
  0
LINE
  8
0
 10
-119.58
 20
-151.688
 11
-119.487
 21
-151.814
  0
LINE
  8
0
 10
-119.487
 20
-151.814
 11
-119.407
 21
-151.95
  0
LINE
  8
0
 10
-119.407
 20
-151.95
 11
-119.34
 21
-152.094
  0
LINE
  8
0
 10
-119.34
 20
-152.094
 11
-119.286
 21
-152.247
  0
LINE
  8
0
 10
-119.286
 20
-152.247
 11
-119.247
 21
-152.411
  0
LINE
  8
0
 10
-119.247
 20
-152.411
 11
-119.224
 21
-152.585
  0
LINE
  8
0
 10
-119.224
 20
-152.585
 11
-119.217
 21
-152.77
  0
LINE
  8
0
 10
-119.217
 20
-152.77
 11
-119.261
 21
-153.211
  0
LINE
  8
0
 10
-119.261
 20
-153.211
 11
-119.394
 21
-153.599
  0
LINE
  8
0
 10
-119.394
 20
-153.599
 11
-119.615
 21
-153.933
  0
LINE
  8
0
 10
-119.615
 20
-153.933
 11
-119.925
 21
-154.214
  0
LINE
  8
0
 10
-119.925
 20
-154.214
 11
-120.314
 21
-154.436
  0
LINE
  8
0
 10
-120.314
 20
-154.436
 11
-120.773
 21
-154.595
  0
LINE
  8
0
 10
-120.773
 20
-154.595
 11
-121.304
 21
-154.69
  0
LINE
  8
0
 10
-121.304
 20
-154.69
 11
-121.906
 21
-154.722
  0
LINE
  8
0
 10
-121.906
 20
-154.722
 11
-122.489
 21
-154.696
  0
LINE
  8
0
 10
-4.35999
 20
-425.965
 11
-1.64
 21
-425.965
  0
LINE
  8
0
 10
-1.64
 20
-425.965
 11
-1.64
 21
-428.625
  0
LINE
  8
0
 10
-1.64
 20
-428.625
 11
1.63998
 21
-428.625
  0
LINE
  8
0
 10
1.63998
 20
-428.625
 11
1.63998
 21
-425.965
  0
LINE
  8
0
 10
1.63998
 20
-425.965
 11
4.35997
 21
-425.965
  0
LINE
  8
0
 10
4.35997
 20
-425.965
 11
4.35997
 21
-428.625
  0
LINE
  8
0
 10
4.35997
 20
-428.625
 11
7.46498
 21
-428.625
  0
LINE
  8
0
 10
7.46498
 20
-428.625
 11
7.465
 21
-406.14
  0
LINE
  8
0
 10
7.465
 20
-406.14
 11
10.125
 21
-406.14
  0
LINE
  8
0
 10
10.125
 20
-406.14
 11
10.125
 21
-363.86
  0
LINE
  8
0
 10
10.125
 20
-363.86
 11
7.465
 21
-363.86
  0
LINE
  8
0
 10
7.465
 20
-363.86
 11
7.465
 21
-322.14
  0
LINE
  8
0
 10
7.465
 20
-322.14
 11
10.125
 21
-322.14
  0
LINE
  8
0
 10
10.125
 20
-322.14
 11
10.125
 21
-302.14
  0
LINE
  8
0
 10
10.125
 20
-302.14
 11
7.46498
 21
-302.14
  0
LINE
  8
0
 10
7.46498
 20
-302.14
 11
7.46498
 21
-298.34
  0
LINE
  8
0
 10
7.46498
 20
-298.34
 11
10.125
 21
-298.34
  0
LINE
  8
0
 10
10.125
 20
-298.34
 11
10.125
 21
-279.86
  0
LINE
  8
0
 10
10.125
 20
-279.86
 11
7.46498
 21
-279.86
  0
LINE
  8
0
 10
7.46498
 20
-279.86
 11
7.46498
 21
-238.14
  0
LINE
  8
0
 10
7.46498
 20
-238.14
 11
10.125
 21
-238.14
  0
LINE
  8
0
 10
10.125
 20
-238.14
 11
10.125
 21
-195.86
  0
LINE
  8
0
 10
10.125
 20
-195.86
 11
7.46498
 21
-195.86
  0
LINE
  8
0
 10
7.46498
 20
-195.86
 11
7.46498
 21
-173.375
  0
LINE
  8
0
 10
7.46498
 20
-173.375
 11
4.35999
 21
-173.375
  0
LINE
  8
0
 10
4.35999
 20
-173.375
 11
4.35999
 21
-176.035
  0
LINE
  8
0
 10
4.35999
 20
-176.035
 11
1.64
 21
-176.035
  0
LINE
  8
0
 10
1.64
 20
-176.035
 11
1.64
 21
-173.375
  0
LINE
  8
0
 10
1.64
 20
-173.375
 11
-1.64
 21
-173.375
  0
LINE
  8
0
 10
-1.64
 20
-173.375
 11
-1.64
 21
-176.035
  0
LINE
  8
0
 10
-1.64
 20
-176.035
 11
-4.35999
 21
-176.035
  0
LINE
  8
0
 10
-4.35999
 20
-176.035
 11
-4.35999
 21
-173.375
  0
LINE
  8
0
 10
-4.35999
 20
-173.375
 11
-7.46498
 21
-173.375
  0
LINE
  8
0
 10
-7.46498
 20
-173.375
 11
-7.46498
 21
-195.86
  0
LINE
  8
0
 10
-7.46498
 20
-195.86
 11
-10.125
 21
-195.86
  0
LINE
  8
0
 10
-10.125
 20
-195.86
 11
-10.125
 21
-238.14
  0
LINE
  8
0
 10
-10.125
 20
-238.14
 11
-7.46498
 21
-238.14
  0
LINE
  8
0
 10
-7.46498
 20
-238.14
 11
-7.46498
 21
-279.86
  0
LINE
  8
0
 10
-7.46498
 20
-279.86
 11
-10.125
 21
-279.86
  0
LINE
  8
0
 10
-10.125
 20
-279.86
 11
-10.125
 21
-298.34
  0
LINE
  8
0
 10
-10.125
 20
-298.34
 11
-7.465
 21
-298.34
  0
LINE
  8
0
 10
-7.465
 20
-298.34
 11
-7.465
 21
-302.14
  0
LINE
  8
0
 10
-7.465
 20
-302.14
 11
-10.125
 21
-302.14
  0
LINE
  8
0
 10
-10.125
 20
-302.14
 11
-10.125
 21
-322.14
  0
LINE
  8
0
 10
-10.125
 20
-322.14
 11
-7.465
 21
-322.14
  0
LINE
  8
0
 10
-7.465
 20
-322.14
 11
-7.465
 21
-363.86
  0
LINE
  8
0
 10
-7.465
 20
-363.86
 11
-10.125
 21
-363.86
  0
LINE
  8
0
 10
-10.125
 20
-363.86
 11
-10.125
 21
-406.14
  0
LINE
  8
0
 10
-10.125
 20
-406.14
 11
-7.465
 21
-406.14
  0
LINE
  8
0
 10
-7.465
 20
-406.14
 11
-7.465
 21
-428.625
  0
LINE
  8
0
 10
-7.465
 20
-428.625
 11
-4.35999
 21
-428.625
  0
LINE
  8
0
 10
-4.35999
 20
-428.625
 11
-4.35999
 21
-425.965
  0
LINE
  8
0
 10
1.63998
 20
-302.14
 11
1.63998
 21
-298.34
  0
LINE
  8
0
 10
1.63998
 20
-298.34
 11
4.35997
 21
-298.34
  0
LINE
  8
0
 10
4.35997
 20
-298.34
 11
4.35997
 21
-302.14
  0
LINE
  8
0
 10
4.35997
 20
-302.14
 11
1.63998
 21
-302.14
  0
LINE
  8
0
 10
-4.35999
 20
-302.14
 11
-4.35999
 21
-298.34
  0
LINE
  8
0
 10
-4.35999
 20
-298.34
 11
-1.64
 21
-298.34
  0
LINE
  8
0
 10
-1.64
 20
-298.34
 11
-1.64
 21
-302.14
  0
LINE
  8
0
 10
-1.64
 20
-302.14
 11
-4.35999
 21
-302.14
  0
LINE
  8
0
 10
269.14
 20
-275.215
 11
271.86
 21
-275.215
  0
LINE
  8
0
 10
271.86
 20
-275.215
 11
271.86
 21
-277.875
  0
LINE
  8
0
 10
271.86
 20
-277.875
 11
275.14
 21
-277.875
  0
LINE
  8
0
 10
275.14
 20
-277.875
 11
275.14
 21
-275.215
  0
LINE
  8
0
 10
275.14
 20
-275.215
 11
277.86
 21
-275.215
  0
LINE
  8
0
 10
277.86
 20
-275.215
 11
277.86
 21
-277.875
  0
LINE
  8
0
 10
277.86
 20
-277.875
 11
281.14
 21
-277.875
  0
LINE
  8
0
 10
281.14
 20
-277.875
 11
281.14
 21
-275.215
  0
LINE
  8
0
 10
281.14
 20
-275.215
 11
283.86
 21
-275.215
  0
LINE
  8
0
 10
283.86
 20
-275.215
 11
283.86
 21
-277.875
  0
LINE
  8
0
 10
283.86
 20
-277.875
 11
283.965
 21
-277.875
  0
LINE
  8
0
 10
283.965
 20
-277.875
 11
283.965
 21
-275.215
  0
LINE
  8
0
 10
283.965
 20
-275.215
 11
286.625
 21
-275.215
  0
LINE
  8
0
 10
286.625
 20
-275.215
 11
286.625
 21
-272.61
  0
LINE
  8
0
 10
286.625
 20
-272.61
 11
283.965
 21
-272.61
  0
LINE
  8
0
 10
283.965
 20
-272.61
 11
283.965
 21
-265.89
  0
LINE
  8
0
 10
283.965
 20
-265.89
 11
286.625
 21
-265.89
  0
LINE
  8
0
 10
286.625
 20
-265.89
 11
286.625
 21
-258.61
  0
LINE
  8
0
 10
286.625
 20
-258.61
 11
283.965
 21
-258.61
  0
LINE
  8
0
 10
283.965
 20
-258.61
 11
283.965
 21
-251.89
  0
LINE
  8
0
 10
283.965
 20
-251.89
 11
286.625
 21
-251.89
  0
LINE
  8
0
 10
286.625
 20
-251.89
 11
286.625
 21
-244.61
  0
LINE
  8
0
 10
286.625
 20
-244.61
 11
283.965
 21
-244.61
  0
LINE
  8
0
 10
283.965
 20
-244.61
 11
283.965
 21
-237.89
  0
LINE
  8
0
 10
283.965
 20
-237.89
 11
286.625
 21
-237.89
  0
LINE
  8
0
 10
286.625
 20
-237.89
 11
286.625
 21
-235.285
  0
LINE
  8
0
 10
286.625
 20
-235.285
 11
283.965
 21
-235.285
  0
LINE
  8
0
 10
283.965
 20
-235.285
 11
283.965
 21
-232.625
  0
LINE
  8
0
 10
283.965
 20
-232.625
 11
269.035
 21
-232.625
  0
LINE
  8
0
 10
269.035
 20
-232.625
 11
269.035
 21
-235.285
  0
LINE
  8
0
 10
269.035
 20
-235.285
 11
266.375
 21
-235.285
  0
LINE
  8
0
 10
266.375
 20
-235.285
 11
266.375
 21
-237.89
  0
LINE
  8
0
 10
266.375
 20
-237.89
 11
269.035
 21
-237.89
  0
LINE
  8
0
 10
269.035
 20
-237.89
 11
269.035
 21
-244.61
  0
LINE
  8
0
 10
269.035
 20
-244.61
 11
266.375
 21
-244.61
  0
LINE
  8
0
 10
266.375
 20
-244.61
 11
266.375
 21
-251.89
  0
LINE
  8
0
 10
266.375
 20
-251.89
 11
269.035
 21
-251.89
  0
LINE
  8
0
 10
269.035
 20
-251.89
 11
269.035
 21
-258.61
  0
LINE
  8
0
 10
269.035
 20
-258.61
 11
266.375
 21
-258.61
  0
LINE
  8
0
 10
266.375
 20
-258.61
 11
266.375
 21
-265.89
  0
LINE
  8
0
 10
266.375
 20
-265.89
 11
269.035
 21
-265.89
  0
LINE
  8
0
 10
269.035
 20
-265.89
 11
269.035
 21
-272.61
  0
LINE
  8
0
 10
269.035
 20
-272.61
 11
266.375
 21
-272.61
  0
LINE
  8
0
 10
266.375
 20
-272.61
 11
266.375
 21
-275.215
  0
LINE
  8
0
 10
266.375
 20
-275.215
 11
269.035
 21
-275.215
  0
LINE
  8
0
 10
269.035
 20
-275.215
 11
269.035
 21
-277.875
  0
LINE
  8
0
 10
269.035
 20
-277.875
 11
269.14
 21
-277.875
  0
LINE
  8
0
 10
269.14
 20
-277.875
 11
269.14
 21
-275.215
  0
ENDSEC
  0
SECTION
  2
OBJECTS
  0
DICTIONARY
  0
ENDSEC
  0
EOF
