  0
SECTION
  2
BLOCKS
  0
ENDSEC
  0
SECTION
  2
ENTITIES
  0
LINE
  8
0
 10
-117.61
 20
-66.215
 11
-102.89
 21
-66.215
  0
LINE
  8
0
 10
-102.89
 20
-66.215
 11
-102.89
 21
-68.875
  0
LINE
  8
0
 10
-102.89
 20
-68.875
 11
-87.61
 21
-68.875
  0
LINE
  8
0
 10
-87.61
 20
-68.875
 11
-87.61
 21
-66.215
  0
LINE
  8
0
 10
-87.61
 20
-66.215
 11
-72.89
 21
-66.215
  0
LINE
  8
0
 10
-72.89
 20
-66.215
 11
-72.89
 21
-68.875
  0
LINE
  8
0
 10
-72.89
 20
-68.875
 11
-57.61
 21
-68.875
  0
LINE
  8
0
 10
-57.61
 20
-68.875
 11
-57.61
 21
-66.215
  0
LINE
  8
0
 10
-57.61
 20
-66.215
 11
-42.89
 21
-66.215
  0
LINE
  8
0
 10
-42.89
 20
-66.215
 11
-42.89
 21
-68.875
  0
LINE
  8
0
 10
-42.89
 20
-68.875
 11
-35.285
 21
-68.875
  0
LINE
  8
0
 10
-35.285
 20
-68.875
 11
-35.285
 21
-65.89
  0
LINE
  8
0
 10
-35.285
 20
-65.89
 11
-32.625
 21
-65.89
  0
LINE
  8
0
 10
-32.625
 20
-65.89
 11
-32.625
 21
-62.61
  0
LINE
  8
0
 10
-32.625
 20
-62.61
 11
-35.285
 21
-62.61
  0
LINE
  8
0
 10
-35.285
 20
-62.61
 11
-35.285
 21
-59.89
  0
LINE
  8
0
 10
-35.285
 20
-59.89
 11
-32.625
 21
-59.89
  0
LINE
  8
0
 10
-32.625
 20
-59.89
 11
-32.625
 21
-56.61
  0
LINE
  8
0
 10
-32.625
 20
-56.61
 11
-35.285
 21
-56.61
  0
LINE
  8
0
 10
-35.285
 20
-56.61
 11
-35.285
 21
-53.89
  0
LINE
  8
0
 10
-35.285
 20
-53.89
 11
-32.625
 21
-53.89
  0
LINE
  8
0
 10
-32.625
 20
-53.89
 11
-32.625
 21
-50.61
  0
LINE
  8
0
 10
-32.625
 20
-50.61
 11
-35.285
 21
-50.61
  0
LINE
  8
0
 10
-35.285
 20
-50.61
 11
-35.285
 21
-47.625
  0
LINE
  8
0
 10
-35.285
 20
-47.625
 11
-125.215
 21
-47.625
  0
LINE
  8
0
 10
-125.215
 20
-47.625
 11
-125.215
 21
-50.61
  0
LINE
  8
0
 10
-125.215
 20
-50.61
 11
-127.875
 21
-50.61
  0
LINE
  8
0
 10
-127.875
 20
-50.61
 11
-127.875
 21
-53.89
  0
LINE
  8
0
 10
-127.875
 20
-53.89
 11
-125.215
 21
-53.89
  0
LINE
  8
0
 10
-125.215
 20
-53.89
 11
-125.215
 21
-56.61
  0
LINE
  8
0
 10
-125.215
 20
-56.61
 11
-127.875
 21
-56.61
  0
LINE
  8
0
 10
-127.875
 20
-56.61
 11
-127.875
 21
-59.89
  0
LINE
  8
0
 10
-127.875
 20
-59.89
 11
-125.215
 21
-59.89
  0
LINE
  8
0
 10
-125.215
 20
-59.89
 11
-125.215
 21
-62.61
  0
LINE
  8
0
 10
-125.215
 20
-62.61
 11
-127.875
 21
-62.61
  0
LINE
  8
0
 10
-127.875
 20
-62.61
 11
-127.875
 21
-65.89
  0
LINE
  8
0
 10
-127.875
 20
-65.89
 11
-125.215
 21
-65.89
  0
LINE
  8
0
 10
-125.215
 20
-65.89
 11
-125.215
 21
-68.875
  0
LINE
  8
0
 10
-125.215
 20
-68.875
 11
-117.61
 21
-68.875
  0
LINE
  8
0
 10
-117.61
 20
-68.875
 11
-117.61
 21
-66.215
  0
LINE
  8
0
 10
-24.86
 20
-66.215
 11
-15.14
 21
-66.215
  0
LINE
  8
0
 10
-15.14
 20
-66.215
 11
-15.14
 21
-68.875
  0
LINE
  8
0
 10
-15.14
 20
-68.875
 11
-4.85999
 21
-68.875
  0
LINE
  8
0
 10
-4.85999
 20
-68.875
 11
-4.85999
 21
-66.215
  0
LINE
  8
0
 10
-4.85999
 20
-66.215
 11
4.85999
 21
-66.215
  0
LINE
  8
0
 10
4.85999
 20
-66.215
 11
4.85999
 21
-68.875
  0
LINE
  8
0
 10
4.85999
 20
-68.875
 11
15.14
 21
-68.875
  0
LINE
  8
0
 10
15.14
 20
-68.875
 11
15.14
 21
-66.215
  0
LINE
  8
0
 10
15.14
 20
-66.215
 11
24.86
 21
-66.215
  0
LINE
  8
0
 10
24.86
 20
-66.215
 11
24.86
 21
-68.875
  0
LINE
  8
0
 10
24.86
 20
-68.875
 11
29.465
 21
-68.875
  0
LINE
  8
0
 10
29.465
 20
-68.875
 11
29.465
 21
-66.215
  0
LINE
  8
0
 10
29.465
 20
-66.215
 11
32.125
 21
-66.215
  0
LINE
  8
0
 10
32.125
 20
-66.215
 11
32.125
 21
-65.61
  0
LINE
  8
0
 10
32.125
 20
-65.61
 11
29.465
 21
-65.61
  0
LINE
  8
0
 10
29.465
 20
-65.61
 11
29.465
 21
-62.89
  0
LINE
  8
0
 10
29.465
 20
-62.89
 11
32.125
 21
-62.89
  0
LINE
  8
0
 10
32.125
 20
-62.89
 11
32.125
 21
-59.61
  0
LINE
  8
0
 10
32.125
 20
-59.61
 11
29.465
 21
-59.61
  0
LINE
  8
0
 10
29.465
 20
-59.61
 11
29.465
 21
-56.89
  0
LINE
  8
0
 10
29.465
 20
-56.89
 11
32.125
 21
-56.89
  0
LINE
  8
0
 10
32.125
 20
-56.89
 11
32.125
 21
-53.61
  0
LINE
  8
0
 10
32.125
 20
-53.61
 11
29.465
 21
-53.61
  0
LINE
  8
0
 10
29.465
 20
-53.61
 11
29.465
 21
-50.89
  0
LINE
  8
0
 10
29.465
 20
-50.89
 11
32.125
 21
-50.89
  0
LINE
  8
0
 10
32.125
 20
-50.89
 11
32.125
 21
-50.285
  0
LINE
  8
0
 10
32.125
 20
-50.285
 11
29.465
 21
-50.285
  0
LINE
  8
0
 10
29.465
 20
-50.285
 11
29.465
 21
-47.625
  0
LINE
  8
0
 10
29.465
 20
-47.625
 11
-29.465
 21
-47.625
  0
LINE
  8
0
 10
-29.465
 20
-47.625
 11
-29.465
 21
-50.285
  0
LINE
  8
0
 10
-29.465
 20
-50.285
 11
-32.125
 21
-50.285
  0
LINE
  8
0
 10
-32.125
 20
-50.285
 11
-32.125
 21
-50.89
  0
LINE
  8
0
 10
-32.125
 20
-50.89
 11
-29.465
 21
-50.89
  0
LINE
  8
0
 10
-29.465
 20
-50.89
 11
-29.465
 21
-53.61
  0
LINE
  8
0
 10
-29.465
 20
-53.61
 11
-32.125
 21
-53.61
  0
LINE
  8
0
 10
-32.125
 20
-53.61
 11
-32.125
 21
-56.89
  0
LINE
  8
0
 10
-32.125
 20
-56.89
 11
-29.465
 21
-56.89
  0
LINE
  8
0
 10
-29.465
 20
-56.89
 11
-29.465
 21
-59.61
  0
LINE
  8
0
 10
-29.465
 20
-59.61
 11
-32.125
 21
-59.61
  0
LINE
  8
0
 10
-32.125
 20
-59.61
 11
-32.125
 21
-62.89
  0
LINE
  8
0
 10
-32.125
 20
-62.89
 11
-29.465
 21
-62.89
  0
LINE
  8
0
 10
-29.465
 20
-62.89
 11
-29.465
 21
-65.61
  0
LINE
  8
0
 10
-29.465
 20
-65.61
 11
-32.125
 21
-65.61
  0
LINE
  8
0
 10
-32.125
 20
-65.61
 11
-32.125
 21
-66.215
  0
LINE
  8
0
 10
-32.125
 20
-66.215
 11
-29.465
 21
-66.215
  0
LINE
  8
0
 10
-29.465
 20
-66.215
 11
-29.465
 21
-68.875
  0
LINE
  8
0
 10
-29.465
 20
-68.875
 11
-24.86
 21
-68.875
  0
LINE
  8
0
 10
-24.86
 20
-68.875
 11
-24.86
 21
-66.215
  0
LINE
  8
0
 10
1.17386
 20
-61.4062
 11
1.17386
 21
-52.3823
  0
LINE
  8
0
 10
1.17386
 20
-52.3823
 11
2.27086
 21
-52.3823
  0
LINE
  8
0
 10
2.27086
 20
-52.3823
 11
2.27086
 21
-61.4062
  0
LINE
  8
0
 10
2.27086
 20
-61.4062
 11
1.17386
 21
-61.4062
  0
LINE
  8
0
 10
-19.6391
 20
-61.4062
 11
-19.6391
 21
-52.8303
  0
LINE
  8
0
 10
-19.6391
 20
-52.8303
 11
-13.1281
 21
-52.8303
  0
LINE
  8
0
 10
-13.1281
 20
-52.8303
 11
-13.1281
 21
-53.7812
  0
LINE
  8
0
 10
-13.1281
 20
-53.7812
 11
-18.4751
 21
-53.7812
  0
LINE
  8
0
 10
-18.4751
 20
-53.7812
 11
-18.4751
 21
-56.5423
  0
LINE
  8
0
 10
-18.4751
 20
-56.5423
 11
-13.4931
 21
-56.5423
  0
LINE
  8
0
 10
-13.4931
 20
-56.5423
 11
-13.4931
 21
-57.4803
  0
LINE
  8
0
 10
-13.4931
 20
-57.4803
 11
-18.4751
 21
-57.4803
  0
LINE
  8
0
 10
-18.4751
 20
-57.4803
 11
-18.4751
 21
-60.4552
  0
LINE
  8
0
 10
-18.4751
 20
-60.4552
 11
-12.8781
 21
-60.4552
  0
LINE
  8
0
 10
-12.8781
 20
-60.4552
 11
-12.8781
 21
-61.4062
  0
LINE
  8
0
 10
-12.8781
 20
-61.4062
 11
-19.6391
 21
-61.4062
  0
LINE
  8
0
 10
16.7067
 20
-61.4797
 11
16.1085
 21
-61.316
  0
LINE
  8
0
 10
16.1085
 20
-61.316
 11
15.5972
 21
-61.0432
  0
LINE
  8
0
 10
15.5972
 20
-61.0432
 11
15.1728
 21
-60.6612
  0
LINE
  8
0
 10
15.1728
 20
-60.6612
 11
14.8398
 21
-60.1717
  0
LINE
  8
0
 10
14.8398
 20
-60.1717
 11
14.602
 21
-59.5762
  0
LINE
  8
0
 10
14.602
 20
-59.5762
 11
14.4594
 21
-58.8747
  0
LINE
  8
0
 10
14.4594
 20
-58.8747
 11
14.4118
 21
-58.0673
  0
LINE
  8
0
 10
14.4118
 20
-58.0673
 11
14.4594
 21
-57.2974
  0
LINE
  8
0
 10
14.4594
 20
-57.2974
 11
14.602
 21
-56.6228
  0
LINE
  8
0
 10
14.602
 20
-56.6228
 11
14.8398
 21
-56.0434
  0
LINE
  8
0
 10
14.8398
 20
-56.0434
 11
15.1728
 21
-55.5593
  0
LINE
  8
0
 10
15.1728
 20
-55.5593
 11
15.5945
 21
-55.1773
  0
LINE
  8
0
 10
15.5945
 20
-55.1773
 11
16.0978
 21
-54.9045
  0
LINE
  8
0
 10
16.0978
 20
-54.9045
 11
16.6825
 21
-54.7408
  0
LINE
  8
0
 10
16.6825
 20
-54.7408
 11
17.3488
 21
-54.6863
  0
LINE
  8
0
 10
17.3488
 20
-54.6863
 11
18.6153
 21
-54.9056
  0
LINE
  8
0
 10
18.6153
 20
-54.9056
 11
19.52
 21
-55.5638
  0
LINE
  8
0
 10
19.52
 20
-55.5638
 11
20.0629
 21
-56.6606
  0
LINE
  8
0
 10
20.0629
 20
-56.6606
 11
20.2438
 21
-58.1963
  0
LINE
  8
0
 10
20.2438
 20
-58.1963
 11
20.2438
 21
-58.3432
  0
LINE
  8
0
 10
20.2438
 20
-58.3432
 11
15.5638
 21
-58.3432
  0
LINE
  8
0
 10
15.5638
 20
-58.3432
 11
15.5929
 21
-58.8784
  0
LINE
  8
0
 10
15.5929
 20
-58.8784
 11
15.6803
 21
-59.3487
  0
LINE
  8
0
 10
15.6803
 20
-59.3487
 11
15.8259
 21
-59.7544
  0
LINE
  8
0
 10
15.8259
 20
-59.7544
 11
16.0298
 21
-60.0952
  0
LINE
  8
0
 10
16.0298
 20
-60.0952
 11
16.2897
 21
-60.3647
  0
LINE
  8
0
 10
16.2897
 20
-60.3647
 11
16.6033
 21
-60.5572
  0
LINE
  8
0
 10
16.6033
 20
-60.5572
 11
16.9707
 21
-60.6727
  0
LINE
  8
0
 10
16.9707
 20
-60.6727
 11
17.3918
 21
-60.7112
  0
LINE
  8
0
 10
17.3918
 20
-60.7112
 11
17.7282
 21
-60.693
  0
LINE
  8
0
 10
17.7282
 20
-60.693
 11
18.0295
 21
-60.6382
  0
LINE
  8
0
 10
18.0295
 20
-60.6382
 11
18.2957
 21
-60.547
  0
LINE
  8
0
 10
18.2957
 20
-60.547
 11
18.5268
 21
-60.4192
  0
LINE
  8
0
 10
18.5268
 20
-60.4192
 11
18.723
 21
-60.2631
  0
LINE
  8
0
 10
18.723
 20
-60.2631
 11
18.8848
 21
-60.0875
  0
LINE
  8
0
 10
18.8848
 20
-60.0875
 11
19.012
 21
-59.8925
  0
LINE
  8
0
 10
19.012
 20
-59.8925
 11
19.1048
 21
-59.6782
  0
LINE
  8
0
 10
19.1048
 20
-59.6782
 11
20.0678
 21
-59.9552
  0
LINE
  8
0
 10
20.0678
 20
-59.9552
 11
19.6797
 21
-60.6461
  0
LINE
  8
0
 10
19.6797
 20
-60.6461
 11
19.1043
 21
-61.1395
  0
LINE
  8
0
 10
19.1043
 20
-61.1395
 11
18.3417
 21
-61.4356
  0
LINE
  8
0
 10
18.3417
 20
-61.4356
 11
17.3918
 21
-61.5342
  0
LINE
  8
0
 10
17.3918
 20
-61.5342
 11
16.7067
 21
-61.4797
  0
LINE
  8
0
 10
19.0437
 20
-57.0146
 11
18.9335
 21
-56.5978
  0
LINE
  8
0
 10
18.9335
 20
-56.5978
 11
18.7802
 21
-56.2516
  0
LINE
  8
0
 10
18.7802
 20
-56.2516
 11
18.5838
 21
-55.9763
  0
LINE
  8
0
 10
18.5838
 20
-55.9763
 11
18.3423
 21
-55.7663
  0
LINE
  8
0
 10
18.3423
 20
-55.7663
 11
18.053
 21
-55.6163
  0
LINE
  8
0
 10
18.053
 20
-55.6163
 11
17.7159
 21
-55.5263
  0
LINE
  8
0
 10
17.7159
 20
-55.5263
 11
17.3308
 21
-55.4963
  0
LINE
  8
0
 10
17.3308
 20
-55.4963
 11
16.9549
 21
-55.5297
  0
LINE
  8
0
 10
16.9549
 20
-55.5297
 11
16.6203
 21
-55.63
  0
LINE
  8
0
 10
16.6203
 20
-55.63
 11
16.3269
 21
-55.7972
  0
LINE
  8
0
 10
16.3269
 20
-55.7972
 11
16.0748
 21
-56.0312
  0
LINE
  8
0
 10
16.0748
 20
-56.0312
 11
15.87
 21
-56.3238
  0
LINE
  8
0
 10
15.87
 20
-56.3238
 11
15.7185
 21
-56.6665
  0
LINE
  8
0
 10
15.7185
 20
-56.6665
 11
15.6205
 21
-57.0593
  0
LINE
  8
0
 10
15.6205
 20
-57.0593
 11
15.5758
 21
-57.5023
  0
LINE
  8
0
 10
15.5758
 20
-57.5023
 11
19.1108
 21
-57.5023
  0
LINE
  8
0
 10
19.1108
 20
-57.5023
 11
19.0437
 21
-57.0146
  0
LINE
  8
0
 10
-5.60245
 20
-63.9662
 11
-5.60245
 21
-56.1562
  0
LINE
  8
0
 10
-5.60245
 20
-56.1562
 11
-5.60475
 21
-55.6921
  0
LINE
  8
0
 10
-5.60475
 20
-55.6921
 11
-5.61169
 21
-55.3138
  0
LINE
  8
0
 10
-5.61169
 20
-55.3138
 11
-5.62326
 21
-55.0211
  0
LINE
  8
0
 10
-5.62326
 20
-55.0211
 11
-5.63945
 21
-54.8143
  0
LINE
  8
0
 10
-5.63945
 20
-54.8143
 11
-4.57845
 21
-54.8143
  0
LINE
  8
0
 10
-4.57845
 20
-54.8143
 11
-4.57507
 21
-54.834
  0
LINE
  8
0
 10
-4.57507
 20
-54.834
 11
-4.55382
 21
-55.0703
  0
LINE
  8
0
 10
-4.55382
 20
-55.0703
 11
-4.53983
 21
-55.2983
  0
LINE
  8
0
 10
-4.53983
 20
-55.2983
 11
-4.52119
 21
-55.702
  0
LINE
  8
0
 10
-4.52119
 20
-55.702
 11
-4.51744
 21
-55.8653
  0
LINE
  8
0
 10
-4.51744
 20
-55.8653
 11
-4.49344
 21
-55.8653
  0
LINE
  8
0
 10
-4.49344
 20
-55.8653
 11
-4.3362
 21
-55.5802
  0
LINE
  8
0
 10
-4.3362
 20
-55.5802
 11
-4.15544
 21
-55.336
  0
LINE
  8
0
 10
-4.15544
 20
-55.336
 11
-3.9512
 21
-55.1327
  0
LINE
  8
0
 10
-3.9512
 20
-55.1327
 11
-3.72345
 21
-54.9703
  0
LINE
  8
0
 10
-3.72345
 20
-54.9703
 11
-3.46501
 21
-54.846
  0
LINE
  8
0
 10
-3.46501
 20
-54.846
 11
-3.1687
 21
-54.7573
  0
LINE
  8
0
 10
-3.1687
 20
-54.7573
 11
-2.8345
 21
-54.704
  0
LINE
  8
0
 10
-2.8345
 20
-54.704
 11
-2.46245
 21
-54.6863
  0
LINE
  8
0
 10
-2.46245
 20
-54.6863
 11
-1.89426
 21
-54.7374
  0
LINE
  8
0
 10
-1.89426
 20
-54.7374
 11
-1.40269
 21
-54.891
  0
LINE
  8
0
 10
-1.40269
 20
-54.891
 11
-0.987762
 21
-55.1469
  0
LINE
  8
0
 10
-0.987762
 20
-55.1469
 11
-0.649445
 21
-55.5053
  0
LINE
  8
0
 10
-0.649445
 20
-55.5053
 11
-0.386948
 21
-55.9727
  0
LINE
  8
0
 10
-0.386948
 20
-55.9727
 11
-0.199448
 21
-56.557
  0
LINE
  8
0
 10
-0.199448
 20
-56.557
 11
-0.0869446
 21
-57.2582
  0
LINE
  8
0
 10
-0.0869446
 20
-57.2582
 11
-0.0494385
 21
-58.0763
  0
LINE
  8
0
 10
-0.0494385
 20
-58.0763
 11
-0.200256
 21
-59.5891
  0
LINE
  8
0
 10
-0.200256
 20
-59.5891
 11
-0.652695
 21
-60.6697
  0
LINE
  8
0
 10
-0.652695
 20
-60.6697
 11
-1.40675
 21
-61.3181
  0
LINE
  8
0
 10
-1.40675
 20
-61.3181
 11
-2.46245
 21
-61.5342
  0
LINE
  8
0
 10
-2.46245
 20
-61.5342
 11
-3.15826
 21
-61.4625
  0
LINE
  8
0
 10
-3.15826
 20
-61.4625
 11
-3.72969
 21
-61.2472
  0
LINE
  8
0
 10
-3.72969
 20
-61.2472
 11
-4.17676
 21
-60.8885
  0
LINE
  8
0
 10
-4.17676
 20
-60.8885
 11
-4.49945
 21
-60.3862
  0
LINE
  8
0
 10
-4.49945
 20
-60.3862
 11
-4.53044
 21
-60.3862
  0
LINE
  8
0
 10
-4.53044
 20
-60.3862
 11
-4.5195
 21
-60.4684
  0
LINE
  8
0
 10
-4.5195
 20
-60.4684
 11
-4.51169
 21
-60.6667
  0
LINE
  8
0
 10
-4.51169
 20
-60.6667
 11
-4.507
 21
-60.9814
  0
LINE
  8
0
 10
-4.507
 20
-60.9814
 11
-4.50545
 21
-61.4122
  0
LINE
  8
0
 10
-4.50545
 20
-61.4122
 11
-4.50545
 21
-63.9662
  0
LINE
  8
0
 10
-4.50545
 20
-63.9662
 11
-5.60245
 21
-63.9662
  0
LINE
  8
0
 10
-2.37839
 20
-60.6866
 11
-2.05519
 21
-60.5737
  0
LINE
  8
0
 10
-2.05519
 20
-60.5737
 11
-1.78688
 21
-60.3856
  0
LINE
  8
0
 10
-1.78688
 20
-60.3856
 11
-1.57344
 21
-60.1222
  0
LINE
  8
0
 10
-1.57344
 20
-60.1222
 11
-1.41069
 21
-59.7698
  0
LINE
  8
0
 10
-1.41069
 20
-59.7698
 11
-1.29445
 21
-59.3155
  0
LINE
  8
0
 10
-1.29445
 20
-59.3155
 11
-1.2247
 21
-58.7593
  0
LINE
  8
0
 10
-1.2247
 20
-58.7593
 11
-1.20145
 21
-58.1013
  0
LINE
  8
0
 10
-1.20145
 20
-58.1013
 11
-1.2245
 21
-57.4596
  0
LINE
  8
0
 10
-1.2245
 20
-57.4596
 11
-1.2937
 21
-56.9165
  0
LINE
  8
0
 10
-1.2937
 20
-56.9165
 11
-1.40901
 21
-56.4721
  0
LINE
  8
0
 10
-1.40901
 20
-56.4721
 11
-1.57045
 21
-56.1263
  0
LINE
  8
0
 10
-1.57045
 20
-56.1263
 11
-1.7822
 21
-55.8668
  0
LINE
  8
0
 10
-1.7822
 20
-55.8668
 11
-2.04845
 21
-55.6815
  0
LINE
  8
0
 10
-2.04845
 20
-55.6815
 11
-2.3692
 21
-55.5703
  0
LINE
  8
0
 10
-2.3692
 20
-55.5703
 11
-2.74445
 21
-55.5333
  0
LINE
  8
0
 10
-2.74445
 20
-55.5333
 11
-3.05083
 21
-55.5504
  0
LINE
  8
0
 10
-3.05083
 20
-55.5504
 11
-3.32195
 21
-55.602
  0
LINE
  8
0
 10
-3.32195
 20
-55.602
 11
-3.55782
 21
-55.6879
  0
LINE
  8
0
 10
-3.55782
 20
-55.6879
 11
-3.75844
 21
-55.8083
  0
LINE
  8
0
 10
-3.75844
 20
-55.8083
 11
-3.93051
 21
-55.9651
  0
LINE
  8
0
 10
-3.93051
 20
-55.9651
 11
-4.08069
 21
-56.1605
  0
LINE
  8
0
 10
-4.08069
 20
-56.1605
 11
-4.20901
 21
-56.3946
  0
LINE
  8
0
 10
-4.20901
 20
-56.3946
 11
-4.31544
 21
-56.6673
  0
LINE
  8
0
 10
-4.31544
 20
-56.6673
 11
-4.39857
 21
-56.9813
  0
LINE
  8
0
 10
-4.39857
 20
-56.9813
 11
-4.45795
 21
-57.3393
  0
LINE
  8
0
 10
-4.45795
 20
-57.3393
 11
-4.49358
 21
-57.7413
  0
LINE
  8
0
 10
-4.49358
 20
-57.7413
 11
-4.50545
 21
-58.1873
  0
LINE
  8
0
 10
-4.50545
 20
-58.1873
 11
-4.47975
 21
-58.7955
  0
LINE
  8
0
 10
-4.47975
 20
-58.7955
 11
-4.40269
 21
-59.3182
  0
LINE
  8
0
 10
-4.40269
 20
-59.3182
 11
-4.27426
 21
-59.7555
  0
LINE
  8
0
 10
-4.27426
 20
-59.7555
 11
-4.09445
 21
-60.1072
  0
LINE
  8
0
 10
-4.09445
 20
-60.1072
 11
-3.85632
 21
-60.3772
  0
LINE
  8
0
 10
-3.85632
 20
-60.3772
 11
-3.55394
 21
-60.57
  0
LINE
  8
0
 10
-3.55394
 20
-60.57
 11
-3.18732
 21
-60.6857
  0
LINE
  8
0
 10
-3.18732
 20
-60.6857
 11
-2.75644
 21
-60.7242
  0
LINE
  8
0
 10
-2.75644
 20
-60.7242
 11
-2.37839
 21
-60.6866
  0
LINE
  8
0
 10
5.80081
 20
-61.4791
 11
5.21362
 21
-61.3137
  0
LINE
  8
0
 10
5.21362
 20
-61.3137
 11
4.71431
 21
-61.0381
  0
LINE
  8
0
 10
4.71431
 20
-61.0381
 11
4.30287
 21
-60.6522
  0
LINE
  8
0
 10
4.30287
 20
-60.6522
 11
3.98174
 21
-60.1622
  0
LINE
  8
0
 10
3.98174
 20
-60.1622
 11
3.75237
 21
-59.5742
  0
LINE
  8
0
 10
3.75237
 20
-59.5742
 11
3.61475
 21
-58.8882
  0
LINE
  8
0
 10
3.61475
 20
-58.8882
 11
3.56886
 21
-58.1043
  0
LINE
  8
0
 10
3.56886
 20
-58.1043
 11
3.75281
 21
-56.6089
  0
LINE
  8
0
 10
3.75281
 20
-56.6089
 11
4.30461
 21
-55.5408
  0
LINE
  8
0
 10
4.30461
 20
-55.5408
 11
5.2243
 21
-54.8999
  0
LINE
  8
0
 10
5.2243
 20
-54.8999
 11
6.51187
 21
-54.6863
  0
LINE
  8
0
 10
6.51187
 20
-54.6863
 11
7.21468
 21
-54.7383
  0
LINE
  8
0
 10
7.21468
 20
-54.7383
 11
7.81812
 21
-54.8945
  0
LINE
  8
0
 10
7.81812
 20
-54.8945
 11
8.32217
 21
-55.1548
  0
LINE
  8
0
 10
8.32217
 20
-55.1548
 11
8.72687
 21
-55.5193
  0
LINE
  8
0
 10
8.72687
 20
-55.5193
 11
9.03749
 21
-55.9932
  0
LINE
  8
0
 10
9.03749
 20
-55.9932
 11
9.25937
 21
-56.582
  0
LINE
  8
0
 10
9.25937
 20
-56.582
 11
9.39249
 21
-57.2857
  0
LINE
  8
0
 10
9.39249
 20
-57.2857
 11
9.43687
 21
-58.1043
  0
LINE
  8
0
 10
9.43687
 20
-58.1043
 11
9.38943
 21
-58.9155
  0
LINE
  8
0
 10
9.38943
 20
-58.9155
 11
9.24712
 21
-59.6162
  0
LINE
  8
0
 10
9.24712
 20
-59.6162
 11
9.00993
 21
-60.2065
  0
LINE
  8
0
 10
9.00993
 20
-60.2065
 11
8.67787
 21
-60.6862
  0
LINE
  8
0
 10
8.67787
 20
-60.6862
 11
8.256
 21
-61.0572
  0
LINE
  8
0
 10
8.256
 20
-61.0572
 11
7.74837
 21
-61.3222
  0
LINE
  8
0
 10
7.74837
 20
-61.3222
 11
7.155
 21
-61.4812
  0
LINE
  8
0
 10
7.155
 20
-61.4812
 11
6.47586
 21
-61.5342
  0
LINE
  8
0
 10
6.47586
 20
-61.5342
 11
5.80081
 21
-61.4791
  0
LINE
  8
0
 10
6.91887
 20
-60.6846
 11
7.30386
 21
-60.5655
  0
LINE
  8
0
 10
7.30386
 20
-60.5655
 11
7.61887
 21
-60.3671
  0
LINE
  8
0
 10
7.61887
 20
-60.3671
 11
7.86386
 21
-60.0892
  0
LINE
  8
0
 10
7.86386
 20
-60.0892
 11
8.04805
 21
-59.7271
  0
LINE
  8
0
 10
8.04805
 20
-59.7271
 11
8.17961
 21
-59.2755
  0
LINE
  8
0
 10
8.17961
 20
-59.2755
 11
8.25856
 21
-58.7346
  0
LINE
  8
0
 10
8.25856
 20
-58.7346
 11
8.28487
 21
-58.1043
  0
LINE
  8
0
 10
8.28487
 20
-58.1043
 11
8.25967
 21
-57.467
  0
LINE
  8
0
 10
8.25967
 20
-57.467
 11
8.18411
 21
-56.9233
  0
LINE
  8
0
 10
8.18411
 20
-56.9233
 11
8.05818
 21
-56.473
  0
LINE
  8
0
 10
8.05818
 20
-56.473
 11
7.88187
 21
-56.1163
  0
LINE
  8
0
 10
7.88187
 20
-56.1163
 11
7.64662
 21
-55.845
  0
LINE
  8
0
 10
7.64662
 20
-55.845
 11
7.34286
 21
-55.6513
  0
LINE
  8
0
 10
7.34286
 20
-55.6513
 11
6.97061
 21
-55.535
  0
LINE
  8
0
 10
6.97061
 20
-55.535
 11
6.52986
 21
-55.4963
  0
LINE
  8
0
 10
6.52986
 20
-55.4963
 11
6.08493
 21
-55.5358
  0
LINE
  8
0
 10
6.08493
 20
-55.5358
 11
5.70612
 21
-55.6543
  0
LINE
  8
0
 10
5.70612
 20
-55.6543
 11
5.39343
 21
-55.8518
  0
LINE
  8
0
 10
5.39343
 20
-55.8518
 11
5.14687
 21
-56.1283
  0
LINE
  8
0
 10
5.14687
 20
-56.1283
 11
4.96049
 21
-56.4888
  0
LINE
  8
0
 10
4.96049
 20
-56.4888
 11
4.82736
 21
-56.9383
  0
LINE
  8
0
 10
4.82736
 20
-56.9383
 11
4.7475
 21
-57.4768
  0
LINE
  8
0
 10
4.7475
 20
-57.4768
 11
4.72087
 21
-58.1043
  0
LINE
  8
0
 10
4.72087
 20
-58.1043
 11
4.74712
 21
-58.7171
  0
LINE
  8
0
 10
4.74712
 20
-58.7171
 11
4.82587
 21
-59.2487
  0
LINE
  8
0
 10
4.82587
 20
-59.2487
 11
4.95712
 21
-59.6991
  0
LINE
  8
0
 10
4.95712
 20
-59.6991
 11
5.14087
 21
-60.0682
  0
LINE
  8
0
 10
5.14087
 20
-60.0682
 11
5.38142
 21
-60.3552
  0
LINE
  8
0
 10
5.38142
 20
-60.3552
 11
5.68211
 21
-60.5602
  0
LINE
  8
0
 10
5.68211
 20
-60.5602
 11
6.04292
 21
-60.6832
  0
LINE
  8
0
 10
6.04292
 20
-60.6832
 11
6.46387
 21
-60.7242
  0
LINE
  8
0
 10
6.46387
 20
-60.7242
 11
6.91887
 21
-60.6846
  0
LINE
  8
0
 10
10.6912
 20
-61.4062
 11
10.6912
 21
-56.3493
  0
LINE
  8
0
 10
10.6912
 20
-56.3493
 11
10.6889
 21
-55.9931
  0
LINE
  8
0
 10
10.6889
 20
-55.9931
 11
10.6822
 21
-55.6185
  0
LINE
  8
0
 10
10.6822
 20
-55.6185
 11
10.6709
 21
-55.2256
  0
LINE
  8
0
 10
10.6709
 20
-55.2256
 11
10.6552
 21
-54.8143
  0
LINE
  8
0
 10
10.6552
 20
-54.8143
 11
11.6902
 21
-54.8143
  0
LINE
  8
0
 10
11.6902
 20
-54.8143
 11
11.7269
 21
-55.7073
  0
LINE
  8
0
 10
11.7269
 20
-55.7073
 11
11.7361
 21
-55.9865
  0
LINE
  8
0
 10
11.7361
 20
-55.9865
 11
11.7392
 21
-56.1543
  0
LINE
  8
0
 10
11.7392
 20
-56.1543
 11
11.7632
 21
-56.1543
  0
LINE
  8
0
 10
11.7632
 20
-56.1543
 11
11.8996
 21
-55.7643
  0
LINE
  8
0
 10
11.8996
 20
-55.7643
 11
12.0459
 21
-55.4415
  0
LINE
  8
0
 10
12.0459
 20
-55.4415
 11
12.2021
 21
-55.1858
  0
LINE
  8
0
 10
12.2021
 20
-55.1858
 11
12.3682
 21
-54.9973
  0
LINE
  8
0
 10
12.3682
 20
-54.9973
 11
12.5567
 21
-54.8612
  0
LINE
  8
0
 10
12.5567
 20
-54.8612
 11
12.7802
 21
-54.764
  0
LINE
  8
0
 10
12.7802
 20
-54.764
 11
13.0387
 21
-54.7057
  0
LINE
  8
0
 10
13.0387
 20
-54.7057
 11
13.3322
 21
-54.6863
  0
LINE
  8
0
 10
13.3322
 20
-54.6863
 11
13.4426
 21
-54.6901
  0
LINE
  8
0
 10
13.4426
 20
-54.6901
 11
13.5537
 21
-54.7015
  0
LINE
  8
0
 10
13.5537
 20
-54.7015
 11
13.6656
 21
-54.7206
  0
LINE
  8
0
 10
13.6656
 20
-54.7206
 11
13.7782
 21
-54.7473
  0
LINE
  8
0
 10
13.7782
 20
-54.7473
 11
13.7782
 21
-55.7523
  0
LINE
  8
0
 10
13.7782
 20
-55.7523
 11
13.6591
 21
-55.7256
  0
LINE
  8
0
 10
13.6591
 20
-55.7256
 11
13.5217
 21
-55.7065
  0
LINE
  8
0
 10
13.5217
 20
-55.7065
 11
13.3661
 21
-55.6951
  0
LINE
  8
0
 10
13.3661
 20
-55.6951
 11
13.1922
 21
-55.6913
  0
LINE
  8
0
 10
13.1922
 20
-55.6913
 11
12.8704
 21
-55.7281
  0
LINE
  8
0
 10
12.8704
 20
-55.7281
 11
12.5892
 21
-55.8385
  0
LINE
  8
0
 10
12.5892
 20
-55.8385
 11
12.3484
 21
-56.0226
  0
LINE
  8
0
 10
12.3484
 20
-56.0226
 11
12.1482
 21
-56.2803
  0
LINE
  8
0
 10
12.1482
 20
-56.2803
 11
11.9907
 21
-56.6061
  0
LINE
  8
0
 10
11.9907
 20
-56.6061
 11
11.8782
 21
-56.9958
  0
LINE
  8
0
 10
11.8782
 20
-56.9958
 11
11.8107
 21
-57.4491
  0
LINE
  8
0
 10
11.8107
 20
-57.4491
 11
11.7882
 21
-57.9663
  0
LINE
  8
0
 10
11.7882
 20
-57.9663
 11
11.7882
 21
-61.4062
  0
LINE
  8
0
 10
11.7882
 20
-61.4062
 11
10.6912
 21
-61.4062
  0
LINE
  8
0
 10
-12.3922
 20
-61.4062
 11
-10.0312
 21
-58.0193
  0
LINE
  8
0
 10
-10.0312
 20
-58.0193
 11
-12.2822
 21
-54.8143
  0
LINE
  8
0
 10
-12.2822
 20
-54.8143
 11
-11.0692
 21
-54.8143
  0
LINE
  8
0
 10
-11.0692
 20
-54.8143
 11
-9.40919
 21
-57.3793
  0
LINE
  8
0
 10
-9.40919
 20
-57.3793
 11
-7.76219
 21
-54.8143
  0
LINE
  8
0
 10
-7.76219
 20
-54.8143
 11
-6.5372
 21
-54.8143
  0
LINE
  8
0
 10
-6.5372
 20
-54.8143
 11
-8.78819
 21
-58.0073
  0
LINE
  8
0
 10
-8.78819
 20
-58.0073
 11
-6.39619
 21
-61.4062
  0
LINE
  8
0
 10
-6.39619
 20
-61.4062
 11
-7.6212
 21
-61.4062
  0
LINE
  8
0
 10
-7.6212
 20
-61.4062
 11
-9.40919
 21
-58.7012
  0
LINE
  8
0
 10
-9.40919
 20
-58.7012
 11
-11.2102
 21
-61.4062
  0
LINE
  8
0
 10
-11.2102
 20
-61.4062
 11
-12.3922
 21
-61.4062
  0
LINE
  8
0
 10
135.64
 20
-66.215
 11
145.36
 21
-66.215
  0
LINE
  8
0
 10
145.36
 20
-66.215
 11
145.36
 21
-68.875
  0
LINE
  8
0
 10
145.36
 20
-68.875
 11
155.64
 21
-68.875
  0
LINE
  8
0
 10
155.64
 20
-68.875
 11
155.64
 21
-66.215
  0
LINE
  8
0
 10
155.64
 20
-66.215
 11
165.36
 21
-66.215
  0
LINE
  8
0
 10
165.36
 20
-66.215
 11
165.36
 21
-68.875
  0
LINE
  8
0
 10
165.36
 20
-68.875
 11
175.64
 21
-68.875
  0
LINE
  8
0
 10
175.64
 20
-68.875
 11
175.64
 21
-66.215
  0
LINE
  8
0
 10
175.64
 20
-66.215
 11
185.36
 21
-66.215
  0
LINE
  8
0
 10
185.36
 20
-66.215
 11
185.36
 21
-68.875
  0
LINE
  8
0
 10
185.36
 20
-68.875
 11
189.965
 21
-68.875
  0
LINE
  8
0
 10
189.965
 20
-68.875
 11
189.965
 21
-66.215
  0
LINE
  8
0
 10
189.965
 20
-66.215
 11
192.625
 21
-66.215
  0
LINE
  8
0
 10
192.625
 20
-66.215
 11
192.625
 21
-65.61
  0
LINE
  8
0
 10
192.625
 20
-65.61
 11
189.965
 21
-65.61
  0
LINE
  8
0
 10
189.965
 20
-65.61
 11
189.965
 21
-62.89
  0
LINE
  8
0
 10
189.965
 20
-62.89
 11
192.625
 21
-62.89
  0
LINE
  8
0
 10
192.625
 20
-62.89
 11
192.625
 21
-59.61
  0
LINE
  8
0
 10
192.625
 20
-59.61
 11
189.965
 21
-59.61
  0
LINE
  8
0
 10
189.965
 20
-59.61
 11
189.965
 21
-56.89
  0
LINE
  8
0
 10
189.965
 20
-56.89
 11
192.625
 21
-56.89
  0
LINE
  8
0
 10
192.625
 20
-56.89
 11
192.625
 21
-53.61
  0
LINE
  8
0
 10
192.625
 20
-53.61
 11
189.965
 21
-53.61
  0
LINE
  8
0
 10
189.965
 20
-53.61
 11
189.965
 21
-50.89
  0
LINE
  8
0
 10
189.965
 20
-50.89
 11
192.625
 21
-50.89
  0
LINE
  8
0
 10
192.625
 20
-50.89
 11
192.625
 21
-50.285
  0
LINE
  8
0
 10
192.625
 20
-50.285
 11
189.965
 21
-50.285
  0
LINE
  8
0
 10
189.965
 20
-50.285
 11
189.965
 21
-47.625
  0
LINE
  8
0
 10
189.965
 20
-47.625
 11
131.035
 21
-47.625
  0
LINE
  8
0
 10
131.035
 20
-47.625
 11
131.035
 21
-50.285
  0
LINE
  8
0
 10
131.035
 20
-50.285
 11
128.375
 21
-50.285
  0
LINE
  8
0
 10
128.375
 20
-50.285
 11
128.375
 21
-50.89
  0
LINE
  8
0
 10
128.375
 20
-50.89
 11
131.035
 21
-50.89
  0
LINE
  8
0
 10
131.035
 20
-50.89
 11
131.035
 21
-53.61
  0
LINE
  8
0
 10
131.035
 20
-53.61
 11
128.375
 21
-53.61
  0
LINE
  8
0
 10
128.375
 20
-53.61
 11
128.375
 21
-56.89
  0
LINE
  8
0
 10
128.375
 20
-56.89
 11
131.035
 21
-56.89
  0
LINE
  8
0
 10
131.035
 20
-56.89
 11
131.035
 21
-59.61
  0
LINE
  8
0
 10
131.035
 20
-59.61
 11
128.375
 21
-59.61
  0
LINE
  8
0
 10
128.375
 20
-59.61
 11
128.375
 21
-62.89
  0
LINE
  8
0
 10
128.375
 20
-62.89
 11
131.035
 21
-62.89
  0
LINE
  8
0
 10
131.035
 20
-62.89
 11
131.035
 21
-65.61
  0
LINE
  8
0
 10
131.035
 20
-65.61
 11
128.375
 21
-65.61
  0
LINE
  8
0
 10
128.375
 20
-65.61
 11
128.375
 21
-66.215
  0
LINE
  8
0
 10
128.375
 20
-66.215
 11
131.035
 21
-66.215
  0
LINE
  8
0
 10
131.035
 20
-66.215
 11
131.035
 21
-68.875
  0
LINE
  8
0
 10
131.035
 20
-68.875
 11
135.64
 21
-68.875
  0
LINE
  8
0
 10
135.64
 20
-68.875
 11
135.64
 21
-66.215
  0
LINE
  8
0
 10
42.89
 20
-66.215
 11
57.61
 21
-66.215
  0
LINE
  8
0
 10
57.61
 20
-66.215
 11
57.61
 21
-68.875
  0
LINE
  8
0
 10
57.61
 20
-68.875
 11
72.89
 21
-68.875
  0
LINE
  8
0
 10
72.89
 20
-68.875
 11
72.89
 21
-66.215
  0
LINE
  8
0
 10
72.89
 20
-66.215
 11
87.61
 21
-66.215
  0
LINE
  8
0
 10
87.61
 20
-66.215
 11
87.61
 21
-68.875
  0
LINE
  8
0
 10
87.61
 20
-68.875
 11
102.89
 21
-68.875
  0
LINE
  8
0
 10
102.89
 20
-68.875
 11
102.89
 21
-66.215
  0
LINE
  8
0
 10
102.89
 20
-66.215
 11
117.61
 21
-66.215
  0
LINE
  8
0
 10
117.61
 20
-66.215
 11
117.61
 21
-68.875
  0
LINE
  8
0
 10
117.61
 20
-68.875
 11
125.215
 21
-68.875
  0
LINE
  8
0
 10
125.215
 20
-68.875
 11
125.215
 21
-65.89
  0
LINE
  8
0
 10
125.215
 20
-65.89
 11
127.875
 21
-65.89
  0
LINE
  8
0
 10
127.875
 20
-65.89
 11
127.875
 21
-62.61
  0
LINE
  8
0
 10
127.875
 20
-62.61
 11
125.215
 21
-62.61
  0
LINE
  8
0
 10
125.215
 20
-62.61
 11
125.215
 21
-59.89
  0
LINE
  8
0
 10
125.215
 20
-59.89
 11
127.875
 21
-59.89
  0
LINE
  8
0
 10
127.875
 20
-59.89
 11
127.875
 21
-56.61
  0
LINE
  8
0
 10
127.875
 20
-56.61
 11
125.215
 21
-56.61
  0
LINE
  8
0
 10
125.215
 20
-56.61
 11
125.215
 21
-53.89
  0
LINE
  8
0
 10
125.215
 20
-53.89
 11
127.875
 21
-53.89
  0
LINE
  8
0
 10
127.875
 20
-53.89
 11
127.875
 21
-50.61
  0
LINE
  8
0
 10
127.875
 20
-50.61
 11
125.215
 21
-50.61
  0
LINE
  8
0
 10
125.215
 20
-50.61
 11
125.215
 21
-47.625
  0
LINE
  8
0
 10
125.215
 20
-47.625
 11
35.285
 21
-47.625
  0
LINE
  8
0
 10
35.285
 20
-47.625
 11
35.285
 21
-50.61
  0
LINE
  8
0
 10
35.285
 20
-50.61
 11
32.625
 21
-50.61
  0
LINE
  8
0
 10
32.625
 20
-50.61
 11
32.625
 21
-53.89
  0
LINE
  8
0
 10
32.625
 20
-53.89
 11
35.285
 21
-53.89
  0
LINE
  8
0
 10
35.285
 20
-53.89
 11
35.285
 21
-56.61
  0
LINE
  8
0
 10
35.285
 20
-56.61
 11
32.625
 21
-56.61
  0
LINE
  8
0
 10
32.625
 20
-56.61
 11
32.625
 21
-59.89
  0
LINE
  8
0
 10
32.625
 20
-59.89
 11
35.285
 21
-59.89
  0
LINE
  8
0
 10
35.285
 20
-59.89
 11
35.285
 21
-62.61
  0
LINE
  8
0
 10
35.285
 20
-62.61
 11
32.625
 21
-62.61
  0
LINE
  8
0
 10
32.625
 20
-62.61
 11
32.625
 21
-65.89
  0
LINE
  8
0
 10
32.625
 20
-65.89
 11
35.285
 21
-65.89
  0
LINE
  8
0
 10
35.285
 20
-65.89
 11
35.285
 21
-68.875
  0
LINE
  8
0
 10
35.285
 20
-68.875
 11
42.89
 21
-68.875
  0
LINE
  8
0
 10
42.89
 20
-68.875
 11
42.89
 21
-66.215
  0
LINE
  8
0
 10
-14.86
 20
-161.965
 11
-5.14
 21
-161.965
  0
LINE
  8
0
 10
-5.14
 20
-161.965
 11
-5.14
 21
-164.625
  0
LINE
  8
0
 10
-5.14
 20
-164.625
 11
5.13998
 21
-164.625
  0
LINE
  8
0
 10
5.13998
 20
-164.625
 11
5.13998
 21
-161.965
  0
LINE
  8
0
 10
5.13998
 20
-161.965
 11
14.86
 21
-161.965
  0
LINE
  8
0
 10
14.86
 20
-161.965
 11
14.86
 21
-164.625
  0
LINE
  8
0
 10
14.86
 20
-164.625
 11
25.14
 21
-164.625
  0
LINE
  8
0
 10
25.14
 20
-164.625
 11
25.14
 21
-161.965
  0
LINE
  8
0
 10
25.14
 20
-161.965
 11
29.465
 21
-161.965
  0
LINE
  8
0
 10
29.465
 20
-161.965
 11
29.465
 21
-154.64
  0
LINE
  8
0
 10
29.465
 20
-154.64
 11
32.125
 21
-154.64
  0
LINE
  8
0
 10
32.125
 20
-154.64
 11
32.125
 21
-139.36
  0
LINE
  8
0
 10
32.125
 20
-139.36
 11
29.465
 21
-139.36
  0
LINE
  8
0
 10
29.465
 20
-139.36
 11
29.465
 21
-124.64
  0
LINE
  8
0
 10
29.465
 20
-124.64
 11
32.125
 21
-124.64
  0
LINE
  8
0
 10
32.125
 20
-124.64
 11
32.125
 21
-109.36
  0
LINE
  8
0
 10
32.125
 20
-109.36
 11
29.465
 21
-109.36
  0
LINE
  8
0
 10
29.465
 20
-109.36
 11
29.465
 21
-94.64
  0
LINE
  8
0
 10
29.465
 20
-94.64
 11
32.125
 21
-94.64
  0
LINE
  8
0
 10
32.125
 20
-94.64
 11
32.125
 21
-79.36
  0
LINE
  8
0
 10
32.125
 20
-79.36
 11
29.465
 21
-79.36
  0
LINE
  8
0
 10
29.465
 20
-79.36
 11
29.465
 21
-72.035
  0
LINE
  8
0
 10
29.465
 20
-72.035
 11
25.14
 21
-72.035
  0
LINE
  8
0
 10
25.14
 20
-72.035
 11
25.14
 21
-69.375
  0
LINE
  8
0
 10
25.14
 20
-69.375
 11
14.86
 21
-69.375
  0
LINE
  8
0
 10
14.86
 20
-69.375
 11
14.86
 21
-72.035
  0
LINE
  8
0
 10
14.86
 20
-72.035
 11
5.14
 21
-72.035
  0
LINE
  8
0
 10
5.14
 20
-72.035
 11
5.14
 21
-69.375
  0
LINE
  8
0
 10
5.14
 20
-69.375
 11
-5.14
 21
-69.375
  0
LINE
  8
0
 10
-5.14
 20
-69.375
 11
-5.14
 21
-72.035
  0
LINE
  8
0
 10
-5.14
 20
-72.035
 11
-14.86
 21
-72.035
  0
LINE
  8
0
 10
-14.86
 20
-72.035
 11
-14.86
 21
-69.375
  0
LINE
  8
0
 10
-14.86
 20
-69.375
 11
-25.14
 21
-69.375
  0
LINE
  8
0
 10
-25.14
 20
-69.375
 11
-25.14
 21
-72.035
  0
LINE
  8
0
 10
-25.14
 20
-72.035
 11
-29.465
 21
-72.035
  0
LINE
  8
0
 10
-29.465
 20
-72.035
 11
-29.465
 21
-79.36
  0
LINE
  8
0
 10
-29.465
 20
-79.36
 11
-32.125
 21
-79.36
  0
LINE
  8
0
 10
-32.125
 20
-79.36
 11
-32.125
 21
-94.64
  0
LINE
  8
0
 10
-32.125
 20
-94.64
 11
-29.465
 21
-94.64
  0
LINE
  8
0
 10
-29.465
 20
-94.64
 11
-29.465
 21
-109.36
  0
LINE
  8
0
 10
-29.465
 20
-109.36
 11
-32.125
 21
-109.36
  0
LINE
  8
0
 10
-32.125
 20
-109.36
 11
-32.125
 21
-124.64
  0
LINE
  8
0
 10
-32.125
 20
-124.64
 11
-29.465
 21
-124.64
  0
LINE
  8
0
 10
-29.465
 20
-124.64
 11
-29.465
 21
-139.36
  0
LINE
  8
0
 10
-29.465
 20
-139.36
 11
-32.125
 21
-139.36
  0
LINE
  8
0
 10
-32.125
 20
-139.36
 11
-32.125
 21
-154.64
  0
LINE
  8
0
 10
-32.125
 20
-154.64
 11
-29.465
 21
-154.64
  0
LINE
  8
0
 10
-29.465
 20
-154.64
 11
-29.465
 21
-161.965
  0
LINE
  8
0
 10
-29.465
 20
-161.965
 11
-25.14
 21
-161.965
  0
LINE
  8
0
 10
-25.14
 20
-161.965
 11
-25.14
 21
-164.625
  0
LINE
  8
0
 10
-25.14
 20
-164.625
 11
-14.86
 21
-164.625
  0
LINE
  8
0
 10
-14.86
 20
-164.625
 11
-14.86
 21
-161.965
  0
ENDSEC
  0
SECTION
  2
OBJECTS
  0
DICTIONARY
  0
ENDSEC
  0
EOF
