  0
SECTION
  2
BLOCKS
  0
ENDSEC
  0
SECTION
  2
ENTITIES
  0
LINE
  8
0
 10
-21.85
 20
-27.35
 11
-19.15
 21
-27.35
  0
LINE
  8
0
 10
-19.15
 20
-27.35
 11
-19.15
 21
-30
  0
LINE
  8
0
 10
-19.15
 20
-30
 11
-15.85
 21
-30
  0
LINE
  8
0
 10
-15.85
 20
-30
 11
-15.85
 21
-27.35
  0
LINE
  8
0
 10
-15.85
 20
-27.35
 11
-10.5
 21
-27.35
  0
LINE
  8
0
 10
-10.5
 20
-27.35
 11
-10.5
 21
-24.35
  0
LINE
  8
0
 10
-10.5
 20
-24.35
 11
-13.15
 21
-24.35
  0
LINE
  8
0
 10
-13.15
 20
-24.35
 11
-13.15
 21
-21.65
  0
LINE
  8
0
 10
-13.15
 20
-21.65
 11
-10.5
 21
-21.65
  0
LINE
  8
0
 10
-10.5
 20
-21.65
 11
-10.5
 21
-18.35
  0
LINE
  8
0
 10
-10.5
 20
-18.35
 11
-13.15
 21
-18.35
  0
LINE
  8
0
 10
-13.15
 20
-18.35
 11
-13.15
 21
-15.65
  0
LINE
  8
0
 10
-13.15
 20
-15.65
 11
-10.5
 21
-15.65
  0
LINE
  8
0
 10
-10.5
 20
-15.65
 11
-10.5
 21
-12.65
  0
LINE
  8
0
 10
-10.5
 20
-12.65
 11
-13.15
 21
-12.65
  0
LINE
  8
0
 10
-13.15
 20
-12.65
 11
-13.15
 21
-10
  0
LINE
  8
0
 10
-13.15
 20
-10
 11
-27.85
 21
-10
  0
LINE
  8
0
 10
-27.85
 20
-10
 11
-27.85
 21
-12.65
  0
LINE
  8
0
 10
-27.85
 20
-12.65
 11
-30.5
 21
-12.65
  0
LINE
  8
0
 10
-30.5
 20
-12.65
 11
-30.5
 21
-15.65
  0
LINE
  8
0
 10
-30.5
 20
-15.65
 11
-27.85
 21
-15.65
  0
LINE
  8
0
 10
-27.85
 20
-15.65
 11
-27.85
 21
-18.35
  0
LINE
  8
0
 10
-27.85
 20
-18.35
 11
-30.5
 21
-18.35
  0
LINE
  8
0
 10
-30.5
 20
-18.35
 11
-30.5
 21
-21.65
  0
LINE
  8
0
 10
-30.5
 20
-21.65
 11
-27.85
 21
-21.65
  0
LINE
  8
0
 10
-27.85
 20
-21.65
 11
-27.85
 21
-24.35
  0
LINE
  8
0
 10
-27.85
 20
-24.35
 11
-30.5
 21
-24.35
  0
LINE
  8
0
 10
-30.5
 20
-24.35
 11
-30.5
 21
-27.35
  0
LINE
  8
0
 10
-30.5
 20
-27.35
 11
-25.15
 21
-27.35
  0
LINE
  8
0
 10
-25.15
 20
-27.35
 11
-25.15
 21
-30
  0
LINE
  8
0
 10
-25.15
 20
-30
 11
-21.85
 21
-30
  0
LINE
  8
0
 10
-21.85
 20
-30
 11
-21.85
 21
-27.35
  0
LINE
  8
0
 10
-1.34999
 20
-27.35
 11
1.34999
 21
-27.35
  0
LINE
  8
0
 10
1.34999
 20
-27.35
 11
1.34999
 21
-30
  0
LINE
  8
0
 10
1.34999
 20
-30
 11
4.64998
 21
-30
  0
LINE
  8
0
 10
4.64998
 20
-30
 11
4.64998
 21
-27.35
  0
LINE
  8
0
 10
4.64998
 20
-27.35
 11
7.34999
 21
-27.35
  0
LINE
  8
0
 10
7.34999
 20
-27.35
 11
7.34999
 21
-24.65
  0
LINE
  8
0
 10
7.34999
 20
-24.65
 11
10
 21
-24.65
  0
LINE
  8
0
 10
10
 20
-24.65
 11
10
 21
-21.35
  0
LINE
  8
0
 10
10
 20
-21.35
 11
7.34999
 21
-21.35
  0
LINE
  8
0
 10
7.34999
 20
-21.35
 11
7.34999
 21
-18.65
  0
LINE
  8
0
 10
7.34999
 20
-18.65
 11
10
 21
-18.65
  0
LINE
  8
0
 10
10
 20
-18.65
 11
10
 21
-15.35
  0
LINE
  8
0
 10
10
 20
-15.35
 11
7.34998
 21
-15.35
  0
LINE
  8
0
 10
7.34998
 20
-15.35
 11
7.34998
 21
-10
  0
LINE
  8
0
 10
7.34998
 20
-10
 11
-7.34998
 21
-10
  0
LINE
  8
0
 10
-7.34998
 20
-10
 11
-7.34998
 21
-15.35
  0
LINE
  8
0
 10
-7.34998
 20
-15.35
 11
-10
 21
-15.35
  0
LINE
  8
0
 10
-10
 20
-15.35
 11
-10
 21
-18.65
  0
LINE
  8
0
 10
-10
 20
-18.65
 11
-7.34999
 21
-18.65
  0
LINE
  8
0
 10
-7.34999
 20
-18.65
 11
-7.34999
 21
-21.35
  0
LINE
  8
0
 10
-7.34999
 20
-21.35
 11
-10
 21
-21.35
  0
LINE
  8
0
 10
-10
 20
-21.35
 11
-10
 21
-24.65
  0
LINE
  8
0
 10
-10
 20
-24.65
 11
-7.34999
 21
-24.65
  0
LINE
  8
0
 10
-7.34999
 20
-24.65
 11
-7.34999
 21
-27.35
  0
LINE
  8
0
 10
-7.34999
 20
-27.35
 11
-4.64999
 21
-27.35
  0
LINE
  8
0
 10
-4.64999
 20
-27.35
 11
-4.64999
 21
-30
  0
LINE
  8
0
 10
-4.64999
 20
-30
 11
-1.34999
 21
-30
  0
LINE
  8
0
 10
-1.34999
 20
-30
 11
-1.34999
 21
-27.35
  0
LINE
  8
0
 10
19.15
 20
-27.35
 11
21.85
 21
-27.35
  0
LINE
  8
0
 10
21.85
 20
-27.35
 11
21.85
 21
-30
  0
LINE
  8
0
 10
21.85
 20
-30
 11
25.15
 21
-30
  0
LINE
  8
0
 10
25.15
 20
-30
 11
25.15
 21
-27.35
  0
LINE
  8
0
 10
25.15
 20
-27.35
 11
30.5
 21
-27.35
  0
LINE
  8
0
 10
30.5
 20
-27.35
 11
30.5
 21
-24.35
  0
LINE
  8
0
 10
30.5
 20
-24.35
 11
27.85
 21
-24.35
  0
LINE
  8
0
 10
27.85
 20
-24.35
 11
27.85
 21
-21.65
  0
LINE
  8
0
 10
27.85
 20
-21.65
 11
30.5
 21
-21.65
  0
LINE
  8
0
 10
30.5
 20
-21.65
 11
30.5
 21
-18.35
  0
LINE
  8
0
 10
30.5
 20
-18.35
 11
27.85
 21
-18.35
  0
LINE
  8
0
 10
27.85
 20
-18.35
 11
27.85
 21
-15.65
  0
LINE
  8
0
 10
27.85
 20
-15.65
 11
30.5
 21
-15.65
  0
LINE
  8
0
 10
30.5
 20
-15.65
 11
30.5
 21
-12.65
  0
LINE
  8
0
 10
30.5
 20
-12.65
 11
27.85
 21
-12.65
  0
LINE
  8
0
 10
27.85
 20
-12.65
 11
27.85
 21
-10
  0
LINE
  8
0
 10
27.85
 20
-10
 11
13.15
 21
-10
  0
LINE
  8
0
 10
13.15
 20
-10
 11
13.15
 21
-12.65
  0
LINE
  8
0
 10
13.15
 20
-12.65
 11
10.5
 21
-12.65
  0
LINE
  8
0
 10
10.5
 20
-12.65
 11
10.5
 21
-15.65
  0
LINE
  8
0
 10
10.5
 20
-15.65
 11
13.15
 21
-15.65
  0
LINE
  8
0
 10
13.15
 20
-15.65
 11
13.15
 21
-18.35
  0
LINE
  8
0
 10
13.15
 20
-18.35
 11
10.5
 21
-18.35
  0
LINE
  8
0
 10
10.5
 20
-18.35
 11
10.5
 21
-21.65
  0
LINE
  8
0
 10
10.5
 20
-21.65
 11
13.15
 21
-21.65
  0
LINE
  8
0
 10
13.15
 20
-21.65
 11
13.15
 21
-24.35
  0
LINE
  8
0
 10
13.15
 20
-24.35
 11
10.5
 21
-24.35
  0
LINE
  8
0
 10
10.5
 20
-24.35
 11
10.5
 21
-27.35
  0
LINE
  8
0
 10
10.5
 20
-27.35
 11
15.85
 21
-27.35
  0
LINE
  8
0
 10
15.85
 20
-27.35
 11
15.85
 21
-30
  0
LINE
  8
0
 10
15.85
 20
-30
 11
19.15
 21
-30
  0
LINE
  8
0
 10
19.15
 20
-30
 11
19.15
 21
-27.35
  0
LINE
  8
0
 10
39.65
 20
-27.35
 11
42.35
 21
-27.35
  0
LINE
  8
0
 10
42.35
 20
-27.35
 11
42.35
 21
-30
  0
LINE
  8
0
 10
42.35
 20
-30
 11
45.65
 21
-30
  0
LINE
  8
0
 10
45.65
 20
-30
 11
45.65
 21
-27.35
  0
LINE
  8
0
 10
45.65
 20
-27.35
 11
48.35
 21
-27.35
  0
LINE
  8
0
 10
48.35
 20
-27.35
 11
48.35
 21
-24.65
  0
LINE
  8
0
 10
48.35
 20
-24.65
 11
51
 21
-24.65
  0
LINE
  8
0
 10
51
 20
-24.65
 11
51
 21
-21.35
  0
LINE
  8
0
 10
51
 20
-21.35
 11
48.35
 21
-21.35
  0
LINE
  8
0
 10
48.35
 20
-21.35
 11
48.35
 21
-18.65
  0
LINE
  8
0
 10
48.35
 20
-18.65
 11
51
 21
-18.65
  0
LINE
  8
0
 10
51
 20
-18.65
 11
51
 21
-15.35
  0
LINE
  8
0
 10
51
 20
-15.35
 11
48.35
 21
-15.35
  0
LINE
  8
0
 10
48.35
 20
-15.35
 11
48.35
 21
-10
  0
LINE
  8
0
 10
48.35
 20
-10
 11
33.65
 21
-10
  0
LINE
  8
0
 10
33.65
 20
-10
 11
33.65
 21
-15.35
  0
LINE
  8
0
 10
33.65
 20
-15.35
 11
31
 21
-15.35
  0
LINE
  8
0
 10
31
 20
-15.35
 11
31
 21
-18.65
  0
LINE
  8
0
 10
31
 20
-18.65
 11
33.65
 21
-18.65
  0
LINE
  8
0
 10
33.65
 20
-18.65
 11
33.65
 21
-21.35
  0
LINE
  8
0
 10
33.65
 20
-21.35
 11
31
 21
-21.35
  0
LINE
  8
0
 10
31
 20
-21.35
 11
31
 21
-24.65
  0
LINE
  8
0
 10
31
 20
-24.65
 11
33.65
 21
-24.65
  0
LINE
  8
0
 10
33.65
 20
-24.65
 11
33.65
 21
-27.35
  0
LINE
  8
0
 10
33.65
 20
-27.35
 11
36.35
 21
-27.35
  0
LINE
  8
0
 10
36.35
 20
-27.35
 11
36.35
 21
-30
  0
LINE
  8
0
 10
36.35
 20
-30
 11
39.65
 21
-30
  0
LINE
  8
0
 10
39.65
 20
-30
 11
39.65
 21
-27.35
  0
LINE
  8
0
 10
-4.34999
 20
-47.85
 11
-1.64999
 21
-47.85
  0
LINE
  8
0
 10
-1.64999
 20
-47.85
 11
-1.64999
 21
-50.5
  0
LINE
  8
0
 10
-1.64999
 20
-50.5
 11
1.64998
 21
-50.5
  0
LINE
  8
0
 10
1.64998
 20
-50.5
 11
1.64998
 21
-47.85
  0
LINE
  8
0
 10
1.64998
 20
-47.85
 11
4.34998
 21
-47.85
  0
LINE
  8
0
 10
4.34998
 20
-47.85
 11
4.34998
 21
-50.5
  0
LINE
  8
0
 10
4.34998
 20
-50.5
 11
7.34998
 21
-50.5
  0
LINE
  8
0
 10
7.34998
 20
-50.5
 11
7.34999
 21
-47.85
  0
LINE
  8
0
 10
7.34999
 20
-47.85
 11
10
 21
-47.85
  0
LINE
  8
0
 10
10
 20
-47.85
 11
10
 21
-44.85
  0
LINE
  8
0
 10
10
 20
-44.85
 11
7.34999
 21
-44.85
  0
LINE
  8
0
 10
7.34999
 20
-44.85
 11
7.34999
 21
-42.15
  0
LINE
  8
0
 10
7.34999
 20
-42.15
 11
10
 21
-42.15
  0
LINE
  8
0
 10
10
 20
-42.15
 11
10
 21
-38.85
  0
LINE
  8
0
 10
10
 20
-38.85
 11
7.34999
 21
-38.85
  0
LINE
  8
0
 10
7.34999
 20
-38.85
 11
7.34998
 21
-36.15
  0
LINE
  8
0
 10
7.34998
 20
-36.15
 11
10
 21
-36.15
  0
LINE
  8
0
 10
10
 20
-36.15
 11
10
 21
-33.15
  0
LINE
  8
0
 10
10
 20
-33.15
 11
7.34998
 21
-33.15
  0
LINE
  8
0
 10
7.34998
 20
-33.15
 11
7.34998
 21
-30.5
  0
LINE
  8
0
 10
7.34998
 20
-30.5
 11
4.34999
 21
-30.5
  0
LINE
  8
0
 10
4.34999
 20
-30.5
 11
4.34999
 21
-33.15
  0
LINE
  8
0
 10
4.34999
 20
-33.15
 11
1.64999
 21
-33.15
  0
LINE
  8
0
 10
1.64999
 20
-33.15
 11
1.64999
 21
-30.5
  0
LINE
  8
0
 10
1.64999
 20
-30.5
 11
-1.64999
 21
-30.5
  0
LINE
  8
0
 10
-1.64999
 20
-30.5
 11
-1.64999
 21
-33.15
  0
LINE
  8
0
 10
-1.64999
 20
-33.15
 11
-4.34999
 21
-33.15
  0
LINE
  8
0
 10
-4.34999
 20
-33.15
 11
-4.34999
 21
-30.5
  0
LINE
  8
0
 10
-4.34999
 20
-30.5
 11
-7.34998
 21
-30.5
  0
LINE
  8
0
 10
-7.34998
 20
-30.5
 11
-7.34998
 21
-33.15
  0
LINE
  8
0
 10
-7.34998
 20
-33.15
 11
-10
 21
-33.15
  0
LINE
  8
0
 10
-10
 20
-33.15
 11
-10
 21
-36.15
  0
LINE
  8
0
 10
-10
 20
-36.15
 11
-7.34998
 21
-36.15
  0
LINE
  8
0
 10
-7.34998
 20
-36.15
 11
-7.34999
 21
-38.85
  0
LINE
  8
0
 10
-7.34999
 20
-38.85
 11
-10
 21
-38.85
  0
LINE
  8
0
 10
-10
 20
-38.85
 11
-10
 21
-42.15
  0
LINE
  8
0
 10
-10
 20
-42.15
 11
-7.34999
 21
-42.15
  0
LINE
  8
0
 10
-7.34999
 20
-42.15
 11
-7.34999
 21
-44.85
  0
LINE
  8
0
 10
-7.34999
 20
-44.85
 11
-10
 21
-44.85
  0
LINE
  8
0
 10
-10
 20
-44.85
 11
-10
 21
-47.85
  0
LINE
  8
0
 10
-10
 20
-47.85
 11
-7.34999
 21
-47.85
  0
LINE
  8
0
 10
-7.34999
 20
-47.85
 11
-7.34999
 21
-50.5
  0
LINE
  8
0
 10
-7.34999
 20
-50.5
 11
-4.34999
 21
-50.5
  0
LINE
  8
0
 10
-4.34999
 20
-50.5
 11
-4.34999
 21
-47.85
  0
ENDSEC
  0
SECTION
  2
OBJECTS
  0
DICTIONARY
  0
ENDSEC
  0
EOF
