  0
SECTION
  2
HEADER
  9
$ACADVER
  1
AC1014
  9
$HANDSEED
  5
FFFF
  9
$MEASUREMENT
 70
     1
  0
ENDSEC
  0
SECTION
  2
TABLES
  0
TABLE
  2
VPORT
  5
8
330
0
100
AcDbSymbolTable
 70
     4
  0
VPORT
  5
2E
330
8
100
AcDbSymbolTableRecord
100
AcDbViewportTableRecord
  2
*ACTIVE
 70
     0
 10
0.0
 20
0.0
 11
1.0
 21
1.0
 12
210.0
 22
148.5
 13
0.0
 23
0.0
 14
10.0
 24
10.0
 15
10.0
 25
10.0
 16
0.0
 26
0.0
 36
1.0
 17
0.0
 27
0.0
 37
0.0
 40
341.0
 41
1.24
 42
50.0
 43
0.0
 44
0.0
 50
0.0
 51
0.0
 71
     0
 72
   100
 73
     1
 74
     3
 75
     0
 76
     0
 77
     0
 78
     0
  0
ENDTAB
  0
TABLE
  2
LTYPE
  5
5
330
0
100
AcDbSymbolTable
 70
     1
  0
LTYPE
  5
14
330
5
100
AcDbSymbolTableRecord
100
AcDbLinetypeTableRecord
  2
BYBLOCK
 70
     0
  3

 72
    65
 73
     0
 40
0.0
  0
LTYPE
  5
15
330
5
100
AcDbSymbolTableRecord
100
AcDbLinetypeTableRecord
  2
BYLAYER
 70
     0
  3

 72
    65
 73
     0
 40
0.0
  0
LTYPE
  5
16
330
5
100
AcDbSymbolTableRecord
100
AcDbLinetypeTableRecord
  2
CONTINUOUS
 70
     0
  3
Solid line
 72
    65
 73
     0
 40
0.0
  0
ENDTAB
  0
TABLE
  2
LAYER
  5
2
100
AcDbSymbolTable
 70
2
  0
LAYER
  5
50
100
AcDbSymbolTableRecord
100
AcDbLayerTableRecord
  2
0
 70
0
  6
CONTINUOUS
  0
LAYER
  5
51
100
AcDbSymbolTableRecord
100
AcDbLayerTableRecord
  2
Layer_1
 70
0
  6
CONTINUOUS
  0
ENDTAB
  0
TABLE
  2
STYLE
  5
3
330
0
100
AcDbSymbolTable
 70
     1
  0
STYLE
  5
11
330
3
100
AcDbSymbolTableRecord
100
AcDbTextStyleTableRecord
  2
STANDARD
 70
     0
 40
0.0
 41
1.0
 50
0.0
 71
     0
 42
2.5
  3
txt
  4

  0
ENDTAB
  0
TABLE
  2
VIEW
  5
6
330
0
100
AcDbSymbolTable
 70
     0
  0
ENDTAB
  0
TABLE
  2
UCS
  5
7
330
0
100
AcDbSymbolTable
 70
     0
  0
ENDTAB
  0
TABLE
  2
APPID
  5
9
330
0
100
AcDbSymbolTable
 70
     2
  0
APPID
  5
12
330
9
100
AcDbSymbolTableRecord
100
AcDbRegAppTableRecord
  2
ACAD
 70
     0
  0
ENDTAB
  0
TABLE
  2
DIMSTYLE
  5
A
330
0
100
AcDbSymbolTable
 70
     1
  0
DIMSTYLE
105
27
330
A
100
AcDbSymbolTableRecord
100
AcDbDimStyleTableRecord
  2
ISO-25
 70
     0
  3

  4

  5

  6

  7

 40
1.0
 41
2.5
 42
0.625
 43
3.75
 44
1.25
 45
0.0
 46
0.0
 47
0.0
 48
0.0
140
2.5
141
2.5
142
0.0
143
0.03937007874016
144
1.0
145
0.0
146
1.0
147
0.625
 71
     0
 72
     0
 73
     0
 74
     0
 75
     0
 76
     0
 77
     1
 78
     8
170
     0
171
     3
172
     1
173
     0
174
     0
175
     0
176
     0
177
     0
178
     0
270
     2
271
     2
272
     2
273
     2
274
     3
340
11
275
     0
280
     0
281
     0
282
     0
283
     0
284
     8
285
     0
286
     0
287
     3
288
     0
  0
ENDTAB
  0
TABLE
  2
BLOCK_RECORD
  5
1
330
0
100
AcDbSymbolTable
 70
     1
  0
BLOCK_RECORD
  5
1F
330
1
100
AcDbSymbolTableRecord
100
AcDbBlockTableRecord
  2
*MODEL_SPACE
  0
BLOCK_RECORD
  5
1B
330
1
100
AcDbSymbolTableRecord
100
AcDbBlockTableRecord
  2
*PAPER_SPACE
  0
ENDTAB
  0
ENDSEC
  0
SECTION
  2
BLOCKS
  0
BLOCK
  5
20
330
1F
100
AcDbEntity
  8
0
100
AcDbBlockBegin
  2
*MODEL_SPACE
 70
     0
 10
0.0
 20
0.0
 30
0.0
  3
*MODEL_SPACE
  1

  0
ENDBLK
  5
21
330
1F
100
AcDbEntity
  8
0
100
AcDbBlockEnd
  0
BLOCK
  5
1C
330
1B
100
AcDbEntity
 67
     1
  8
0
100
AcDbBlockBegin
  2
*PAPER_SPACE
  1

  0
ENDBLK
  5
1D
330
1B
100
AcDbEntity
 67
     1
  8
0
100
AcDbBlockEnd
  0
ENDSEC
  0
SECTION
  2
ENTITIES
  0
LINE
  5
100
100
AcDbEntity
  8
Layer_1
 62
7
100
AcDbLine
 10
549.127891
 20
420.785392
 30
0.0
 11
5.538627
 21
420.785392
 31
0.0
  0
LINE
  5
101
100
AcDbEntity
  8
Layer_1
 62
7
100
AcDbLine
 10
431.995986
 20
283.610589
 30
0.0
 11
433.831587
 21
276.020083
 31
0.0
  0
LINE
  5
102
100
AcDbEntity
  8
Layer_1
 62
7
100
AcDbLine
 10
31.782919
 20
359.466022
 30
0.0
 11
22.555248
 21
358.473800
 31
0.0
  0
LINE
  5
103
100
AcDbEntity
  8
Layer_1
 62
7
100
AcDbLine
 10
22.555248
 20
358.473800
 30
0.0
 11
28.607806
 21
287.232202
 31
0.0
  0
LINE
  5
104
100
AcDbEntity
  8
Layer_1
 62
7
100
AcDbLine
 10
40.067982
 20
269.322580
 30
0.0
 11
16.949189
 21
266.842022
 31
0.0
  0
LINE
  5
105
100
AcDbEntity
  8
Layer_1
 62
7
100
AcDbLine
 10
16.949189
 20
266.842022
 30
0.0
 11
23.497859
 21
178.732637
 31
0.0
  0
LINE
  5
106
100
AcDbEntity
  8
Layer_1
 62
7
100
AcDbLine
 10
23.497859
 20
178.732637
 30
0.0
 11
212.913194
 21
194.757037
 31
0.0
  0
LINE
  5
107
100
AcDbEntity
  8
Layer_1
 62
7
100
AcDbLine
 10
212.913194
 20
194.757037
 30
0.0
 11
316.898141
 21
213.311602
 31
0.0
  0
LINE
  5
108
100
AcDbEntity
  8
Layer_1
 62
7
100
AcDbLine
 10
316.898141
 20
213.311602
 30
0.0
 11
315.409813
 21
247.146401
 31
0.0
  0
LINE
  5
109
100
AcDbEntity
  8
Layer_1
 62
7
100
AcDbLine
 10
552.997553
 20
280.584308
 30
0.0
 11
552.600664
 21
294.326595
 31
0.0
  0
LINE
  5
10a
100
AcDbEntity
  8
Layer_1
 62
7
100
AcDbLine
 10
8.812962
 20
376.532255
 30
0.0
 11
5.538627
 21
420.785392
 31
0.0
  0
LINE
  5
10b
100
AcDbEntity
  8
Layer_1
 62
7
100
AcDbLine
 10
546.498511
 20
299.138875
 30
0.0
 11
433.831587
 21
276.020083
 31
0.0
  0
LINE
  5
10c
100
AcDbEntity
  8
Layer_1
 62
7
100
AcDbLine
 10
427.630205
 20
274.779804
 30
0.0
 11
319.676364
 21
252.603625
 31
0.0
  0
SPLINE
  5
10d
100
AcDbEntity
  8
Layer_1
 62
7
100
AcDbSpline
 70
8
 71
3
 72
8
 73
4
 74
0
 40
0
 40
0
 40
0
 40
0
 40
1
 40
1
 40
1
 40
1
 10
319.720560
 20
252.643596
 30
0.0
 10
317.154483
 20
252.117035
 30
0.0
 10
315.350716
 20
249.804813
 30
0.0
 10
315.464452
 20
247.187702
 30
0.0
  0
SPLINE
  5
10e
100
AcDbEntity
  8
Layer_1
 62
7
100
AcDbSpline
 70
8
 71
3
 72
8
 73
4
 74
0
 40
0
 40
0
 40
0
 40
0
 40
1
 40
1
 40
1
 40
1
 10
552.648134
 20
294.350259
 30
0.0
 10
552.604502
 20
295.851700
 30
0.0
 10
551.899313
 20
297.257045
 30
0.0
 10
550.721656
 20
298.189432
 30
0.0
  0
SPLINE
  5
10f
100
AcDbEntity
  8
Layer_1
 62
7
100
AcDbSpline
 70
8
 71
3
 72
8
 73
4
 74
0
 40
0
 40
0
 40
0
 40
0
 40
1
 40
1
 40
1
 40
1
 10
550.721656
 20
298.189432
 30
0.0
 10
549.544028
 20
299.121823
 30
0.0
 10
548.014411
 20
299.485835
 30
0.0
 10
546.542961
 20
299.183907
 30
0.0
  0
LINE
  5
110
100
AcDbEntity
  8
Layer_1
 62
7
100
AcDbLine
 10
28.607806
 20
287.232202
 30
0.0
 11
38.480425
 21
288.323646
 31
0.0
  0
LINE
  5
111
100
AcDbEntity
  8
Layer_1
 62
7
100
AcDbLine
 10
38.480425
 20
288.323646
 30
0.0
 11
40.067982
 21
269.322580
 31
0.0
  0
LINE
  5
112
100
AcDbEntity
  8
Layer_1
 62
7
100
AcDbLine
 10
8.812962
 20
376.532255
 30
0.0
 11
30.493031
 21
378.367865
 31
0.0
  0
LINE
  5
113
100
AcDbEntity
  8
Layer_1
 62
7
100
AcDbLine
 10
30.493031
 20
378.367865
 30
0.0
 11
31.782919
 21
359.466022
 31
0.0
  0
LINE
  5
114
100
AcDbEntity
  8
Layer_1
 62
7
100
AcDbLine
 10
427.630205
 20
274.779804
 30
0.0
 11
425.844218
 21
282.122253
 31
0.0
  0
SPLINE
  5
115
100
AcDbEntity
  8
Layer_1
 62
7
100
AcDbSpline
 70
8
 71
3
 72
8
 73
4
 74
0
 40
0
 40
0
 40
0
 40
0
 40
1
 40
1
 40
1
 40
1
 10
432.053390
 20
283.650579
 30
0.0
 10
431.634036
 20
285.367349
 30
0.0
 10
429.902348
 20
286.419115
 30
0.0
 10
428.185562
 20
285.999746
 30
0.0
  0
SPLINE
  5
116
100
AcDbEntity
  8
Layer_1
 62
7
100
AcDbSpline
 70
8
 71
3
 72
8
 73
4
 74
0
 40
0
 40
0
 40
0
 40
0
 40
1
 40
1
 40
1
 40
1
 10
428.185562
 20
285.999746
 30
0.0
 10
426.468748
 20
285.580353
 30
0.0
 10
425.416990
 20
283.848663
 30
0.0
 10
425.836429
 20
282.131868
 30
0.0
  0
LINE
  5
117
100
AcDbEntity
  8
Layer_1
 62
7
100
AcDbLine
 10
552.997553
 20
280.584308
 30
0.0
 11
557.611407
 21
283.809033
 31
0.0
  0
LINE
  5
118
100
AcDbEntity
  8
Layer_1
 62
7
100
AcDbLine
 10
557.611407
 20
283.809033
 30
0.0
 11
559.943127
 21
285.446201
 31
0.0
  0
LINE
  5
119
100
AcDbEntity
  8
Layer_1
 62
7
100
AcDbLine
 10
559.943127
 20
285.446201
 30
0.0
 11
562.175617
 21
287.132979
 31
0.0
  0
LINE
  5
11a
100
AcDbEntity
  8
Layer_1
 62
7
100
AcDbLine
 10
562.175617
 20
287.132979
 30
0.0
 11
564.408108
 21
288.869368
 31
0.0
  0
LINE
  5
11b
100
AcDbEntity
  8
Layer_1
 62
7
100
AcDbLine
 10
564.408108
 20
288.869368
 30
0.0
 11
566.591012
 21
290.655369
 31
0.0
  0
LINE
  5
11c
100
AcDbEntity
  8
Layer_1
 62
7
100
AcDbLine
 10
566.591012
 20
290.655369
 30
0.0
 11
568.724302
 21
292.490982
 31
0.0
  0
LINE
  5
11d
100
AcDbEntity
  8
Layer_1
 62
7
100
AcDbLine
 10
568.724302
 20
292.490982
 30
0.0
 11
570.807949
 21
294.376207
 31
0.0
  0
LINE
  5
11e
100
AcDbEntity
  8
Layer_1
 62
7
100
AcDbLine
 10
570.807949
 20
294.376207
 30
0.0
 11
572.891624
 21
296.311040
 31
0.0
  0
LINE
  5
11f
100
AcDbEntity
  8
Layer_1
 62
7
100
AcDbLine
 10
572.891624
 20
296.311040
 30
0.0
 11
574.876069
 21
298.295485
 31
0.0
  0
LINE
  5
120
100
AcDbEntity
  8
Layer_1
 62
7
100
AcDbLine
 10
574.876069
 20
298.295485
 30
0.0
 11
576.810900
 21
300.329542
 31
0.0
  0
LINE
  5
121
100
AcDbEntity
  8
Layer_1
 62
7
100
AcDbLine
 10
576.810900
 20
300.329542
 30
0.0
 11
578.696116
 21
302.413210
 31
0.0
  0
LINE
  5
122
100
AcDbEntity
  8
Layer_1
 62
7
100
AcDbLine
 10
578.696116
 20
302.413210
 30
0.0
 11
580.531746
 21
304.596100
 31
0.0
  0
LINE
  5
123
100
AcDbEntity
  8
Layer_1
 62
7
100
AcDbLine
 10
580.531746
 20
304.596100
 30
0.0
 11
582.317733
 21
306.778990
 31
0.0
  0
LINE
  5
124
100
AcDbEntity
  8
Layer_1
 62
7
100
AcDbLine
 10
582.317733
 20
306.778990
 30
0.0
 11
584.004519
 21
309.061103
 31
0.0
  0
LINE
  5
125
100
AcDbEntity
  8
Layer_1
 62
7
100
AcDbLine
 10
584.004519
 20
309.061103
 30
0.0
 11
585.641690
 21
311.343215
 31
0.0
  0
LINE
  5
126
100
AcDbEntity
  8
Layer_1
 62
7
100
AcDbLine
 10
585.641690
 20
311.343215
 30
0.0
 11
587.179632
 21
313.724550
 31
0.0
  0
LINE
  5
127
100
AcDbEntity
  8
Layer_1
 62
7
100
AcDbLine
 10
587.179632
 20
313.724550
 30
0.0
 11
588.618344
 21
316.155496
 31
0.0
  0
LINE
  5
128
100
AcDbEntity
  8
Layer_1
 62
7
100
AcDbLine
 10
588.618344
 20
316.155496
 30
0.0
 11
590.007470
 21
318.586442
 31
0.0
  0
LINE
  5
129
100
AcDbEntity
  8
Layer_1
 62
7
100
AcDbLine
 10
590.007470
 20
318.586442
 30
0.0
 11
591.297367
 21
321.116610
 31
0.0
  0
LINE
  5
12a
100
AcDbEntity
  8
Layer_1
 62
7
100
AcDbLine
 10
591.297367
 20
321.116610
 30
0.0
 11
592.488034
 21
323.696389
 31
0.0
  0
LINE
  5
12b
100
AcDbEntity
  8
Layer_1
 62
7
100
AcDbLine
 10
592.488034
 20
323.696389
 30
0.0
 11
593.579473
 21
326.276168
 31
0.0
  0
LINE
  5
12c
100
AcDbEntity
  8
Layer_1
 62
7
100
AcDbLine
 10
593.579473
 20
326.276168
 30
0.0
 11
594.571681
 21
328.905559
 31
0.0
  0
LINE
  5
12d
100
AcDbEntity
  8
Layer_1
 62
7
100
AcDbLine
 10
594.571681
 20
328.905559
 30
0.0
 11
595.464689
 21
331.634172
 31
0.0
  0
LINE
  5
12e
100
AcDbEntity
  8
Layer_1
 62
7
100
AcDbLine
 10
595.464689
 20
331.634172
 30
0.0
 11
596.208852
 21
334.313173
 31
0.0
  0
LINE
  5
12f
100
AcDbEntity
  8
Layer_1
 62
7
100
AcDbLine
 10
596.208852
 20
334.313173
 30
0.0
 11
596.903429
 21
337.091397
 31
0.0
  0
LINE
  5
130
100
AcDbEntity
  8
Layer_1
 62
7
100
AcDbLine
 10
596.903429
 20
337.091397
 30
0.0
 11
597.449134
 21
339.820010
 31
0.0
  0
LINE
  5
131
100
AcDbEntity
  8
Layer_1
 62
7
100
AcDbLine
 10
597.449134
 20
339.820010
 30
0.0
 11
597.895638
 21
342.647845
 31
0.0
  0
LINE
  5
132
100
AcDbEntity
  8
Layer_1
 62
7
100
AcDbLine
 10
597.895638
 20
342.647845
 30
0.0
 11
598.242913
 21
345.426069
 31
0.0
  0
LINE
  5
133
100
AcDbEntity
  8
Layer_1
 62
7
100
AcDbLine
 10
598.242913
 20
345.426069
 30
0.0
 11
598.441371
 21
348.253903
 31
0.0
  0
LINE
  5
134
100
AcDbEntity
  8
Layer_1
 62
7
100
AcDbLine
 10
598.441371
 20
348.253903
 30
0.0
 11
598.590187
 21
351.081739
 31
0.0
  0
LINE
  5
135
100
AcDbEntity
  8
Layer_1
 62
7
100
AcDbLine
 10
598.590187
 20
351.081739
 30
0.0
 11
598.540572
 21
353.909575
 31
0.0
  0
LINE
  5
136
100
AcDbEntity
  8
Layer_1
 62
7
100
AcDbLine
 10
598.540572
 20
353.909575
 30
0.0
 11
598.441371
 21
356.737408
 31
0.0
  0
LINE
  5
137
100
AcDbEntity
  8
Layer_1
 62
7
100
AcDbLine
 10
598.441371
 20
356.737408
 30
0.0
 11
598.242913
 21
359.515631
 31
0.0
  0
LINE
  5
138
100
AcDbEntity
  8
Layer_1
 62
7
100
AcDbLine
 10
598.242913
 20
359.515631
 30
0.0
 11
597.945253
 21
362.343467
 31
0.0
  0
LINE
  5
139
100
AcDbEntity
  8
Layer_1
 62
7
100
AcDbLine
 10
597.945253
 20
362.343467
 30
0.0
 11
597.597978
 21
365.121691
 31
0.0
  0
LINE
  5
13a
100
AcDbEntity
  8
Layer_1
 62
7
100
AcDbLine
 10
597.597978
 20
365.121691
 30
0.0
 11
597.151475
 21
367.949527
 31
0.0
  0
LINE
  5
13b
100
AcDbEntity
  8
Layer_1
 62
7
100
AcDbLine
 10
597.151475
 20
367.949527
 30
0.0
 11
596.605741
 21
370.727751
 31
0.0
  0
LINE
  5
13c
100
AcDbEntity
  8
Layer_1
 62
7
100
AcDbLine
 10
596.605741
 20
370.727751
 30
0.0
 11
596.010422
 21
373.456363
 31
0.0
  0
LINE
  5
13d
100
AcDbEntity
  8
Layer_1
 62
7
100
AcDbLine
 10
596.010422
 20
373.456363
 30
0.0
 11
595.315873
 21
376.184975
 31
0.0
  0
LINE
  5
13e
100
AcDbEntity
  8
Layer_1
 62
7
100
AcDbLine
 10
595.315873
 20
376.184975
 30
0.0
 11
594.522095
 21
378.913589
 31
0.0
  0
LINE
  5
13f
100
AcDbEntity
  8
Layer_1
 62
7
100
AcDbLine
 10
594.522095
 20
378.913589
 30
0.0
 11
593.579473
 21
381.592590
 31
0.0
  0
LINE
  5
140
100
AcDbEntity
  8
Layer_1
 62
7
100
AcDbLine
 10
593.579473
 20
381.592590
 30
0.0
 11
592.587236
 21
384.221981
 31
0.0
  0
LINE
  5
141
100
AcDbEntity
  8
Layer_1
 62
7
100
AcDbLine
 10
592.587236
 20
384.221981
 30
0.0
 11
591.495798
 21
386.801760
 31
0.0
  0
LINE
  5
142
100
AcDbEntity
  8
Layer_1
 62
7
100
AcDbLine
 10
591.495798
 20
386.801760
 30
0.0
 11
590.255516
 21
389.381539
 31
0.0
  0
LINE
  5
143
100
AcDbEntity
  8
Layer_1
 62
7
100
AcDbLine
 10
590.255516
 20
389.381539
 30
0.0
 11
588.965647
 21
391.862095
 31
0.0
  0
LINE
  5
144
100
AcDbEntity
  8
Layer_1
 62
7
100
AcDbLine
 10
588.965647
 20
391.862095
 30
0.0
 11
587.526906
 21
394.293041
 31
0.0
  0
LINE
  5
145
100
AcDbEntity
  8
Layer_1
 62
7
100
AcDbLine
 10
587.526906
 20
394.293041
 30
0.0
 11
585.988965
 21
396.674376
 31
0.0
  0
LINE
  5
146
100
AcDbEntity
  8
Layer_1
 62
7
100
AcDbLine
 10
585.988965
 20
396.674376
 30
0.0
 11
584.351793
 21
399.006099
 31
0.0
  0
LINE
  5
147
100
AcDbEntity
  8
Layer_1
 62
7
100
AcDbLine
 10
584.351793
 20
399.006099
 30
0.0
 11
582.615421
 21
401.238601
 31
0.0
  0
LINE
  5
148
100
AcDbEntity
  8
Layer_1
 62
7
100
AcDbLine
 10
582.615421
 20
401.238601
 30
0.0
 11
580.779791
 21
403.371879
 31
0.0
  0
LINE
  5
149
100
AcDbEntity
  8
Layer_1
 62
7
100
AcDbLine
 10
580.779791
 20
403.371879
 30
0.0
 11
578.795346
 21
405.405937
 31
0.0
  0
LINE
  5
14a
100
AcDbEntity
  8
Layer_1
 62
7
100
AcDbLine
 10
578.795346
 20
405.405937
 30
0.0
 11
576.761285
 21
407.340771
 31
0.0
  0
LINE
  5
14b
100
AcDbEntity
  8
Layer_1
 62
7
100
AcDbLine
 10
576.761285
 20
407.340771
 30
0.0
 11
574.578409
 21
409.176383
 31
0.0
  0
LINE
  5
14c
100
AcDbEntity
  8
Layer_1
 62
7
100
AcDbLine
 10
574.578409
 20
409.176383
 30
0.0
 11
572.345890
 21
410.863164
 31
0.0
  0
LINE
  5
14d
100
AcDbEntity
  8
Layer_1
 62
7
100
AcDbLine
 10
572.345890
 20
410.863164
 30
0.0
 11
570.014170
 21
412.450720
 31
0.0
  0
LINE
  5
14e
100
AcDbEntity
  8
Layer_1
 62
7
100
AcDbLine
 10
570.014170
 20
412.450720
 30
0.0
 11
567.583221
 21
413.939053
 31
0.0
  0
LINE
  5
14f
100
AcDbEntity
  8
Layer_1
 62
7
100
AcDbLine
 10
567.583221
 20
413.939053
 30
0.0
 11
565.102685
 21
415.328165
 31
0.0
  0
LINE
  5
150
100
AcDbEntity
  8
Layer_1
 62
7
100
AcDbLine
 10
565.102685
 20
415.328165
 30
0.0
 11
562.572506
 21
416.568444
 31
0.0
  0
LINE
  5
151
100
AcDbEntity
  8
Layer_1
 62
7
100
AcDbLine
 10
562.572506
 20
416.568444
 30
0.0
 11
559.992741
 21
417.709500
 31
0.0
  0
LINE
  5
152
100
AcDbEntity
  8
Layer_1
 62
7
100
AcDbLine
 10
559.992741
 20
417.709500
 30
0.0
 11
557.363333
 21
418.701722
 31
0.0
  0
LINE
  5
153
100
AcDbEntity
  8
Layer_1
 62
7
100
AcDbLine
 10
557.363333
 20
418.701722
 30
0.0
 11
554.634724
 21
419.545112
 31
0.0
  0
LINE
  5
154
100
AcDbEntity
  8
Layer_1
 62
7
100
AcDbLine
 10
554.634724
 20
419.545112
 30
0.0
 11
551.906115
 21
420.190058
 31
0.0
  0
LINE
  5
155
100
AcDbEntity
  8
Layer_1
 62
7
100
AcDbLine
 10
551.906115
 20
420.190058
 30
0.0
 11
549.127891
 21
420.785392
 31
0.0
  0
LINE
  5
156
100
AcDbEntity
  8
Layer_1
 62
7
100
AcDbLine
 10
396.808955
 20
347.102602
 30
0.0
 11
396.911274
 21
346.801183
 31
0.0
  0
SPLINE
  5
157
100
AcDbEntity
  8
Layer_1
 62
7
100
AcDbSpline
 70
8
 71
3
 72
8
 73
4
 74
0
 40
0
 40
0
 40
0
 40
0
 40
1
 40
1
 40
1
 40
1
 10
396.911274
 20
346.801183
 30
0.0
 10
396.791421
 20
346.756363
 30
0.0
 10
396.698126
 20
346.697825
 30
0.0
 10
396.631389
 20
346.625570
 30
0.0
  0
SPLINE
  5
158
100
AcDbEntity
  8
Layer_1
 62
7
100
AcDbSpline
 70
8
 71
3
 72
8
 73
4
 74
0
 40
0
 40
0
 40
0
 40
0
 40
1
 40
1
 40
1
 40
1
 10
396.631389
 20
346.625570
 30
0.0
 10
396.566040
 20
346.552470
 30
0.0
 10
396.522421
 20
346.453769
 30
0.0
 10
396.500532
 20
346.329467
 30
0.0
  0
SPLINE
  5
159
100
AcDbEntity
  8
Layer_1
 62
7
100
AcDbSpline
 70
8
 71
3
 72
8
 73
4
 74
0
 40
0
 40
0
 40
0
 40
0
 40
1
 40
1
 40
1
 40
1
 10
396.500532
 20
346.329467
 30
0.0
 10
396.479776
 20
346.205443
 30
0.0
 10
396.486579
 20
346.073304
 30
0.0
 10
396.520939
 20
345.933050
 30
0.0
  0
SPLINE
  5
15a
100
AcDbEntity
  8
Layer_1
 62
7
100
AcDbSpline
 70
8
 71
3
 72
8
 73
4
 74
0
 40
0
 40
0
 40
0
 40
0
 40
1
 40
1
 40
1
 40
1
 10
396.520939
 20
345.933050
 30
0.0
 10
396.551451
 20
345.808502
 30
0.0
 10
396.596902
 20
345.703077
 30
0.0
 10
396.657291
 20
345.616773
 30
0.0
  0
SPLINE
  5
15b
100
AcDbEntity
  8
Layer_1
 62
7
100
AcDbSpline
 70
8
 71
3
 72
8
 73
4
 74
0
 40
0
 40
0
 40
0
 40
0
 40
1
 40
1
 40
1
 40
1
 10
396.657291
 20
345.616773
 30
0.0
 10
396.717699
 20
345.530474
 30
0.0
 10
396.785509
 20
345.472154
 30
0.0
 10
396.860721
 20
345.441815
 30
0.0
  0
SPLINE
  5
15c
100
AcDbEntity
  8
Layer_1
 62
7
100
AcDbSpline
 70
8
 71
3
 72
8
 73
4
 74
0
 40
0
 40
0
 40
0
 40
0
 40
1
 40
1
 40
1
 40
1
 10
396.860721
 20
345.441815
 30
0.0
 10
396.937360
 20
345.410636
 30
0.0
 10
397.013827
 20
345.404392
 30
0.0
 10
397.090123
 20
345.423084
 30
0.0
  0
SPLINE
  5
15d
100
AcDbEntity
  8
Layer_1
 62
7
100
AcDbSpline
 70
8
 71
3
 72
8
 73
4
 74
0
 40
0
 40
0
 40
0
 40
0
 40
1
 40
1
 40
1
 40
1
 10
397.090123
 20
345.423084
 30
0.0
 10
397.167533
 20
345.442048
 30
0.0
 10
397.229358
 20
345.480982
 30
0.0
 10
397.275598
 20
345.539886
 30
0.0
  0
SPLINE
  5
15e
100
AcDbEntity
  8
Layer_1
 62
7
100
AcDbSpline
 70
8
 71
3
 72
8
 73
4
 74
0
 40
0
 40
0
 40
0
 40
0
 40
1
 40
1
 40
1
 40
1
 10
397.275598
 20
345.539886
 30
0.0
 10
397.322953
 20
345.599063
 30
0.0
 10
397.353622
 20
345.685076
 30
0.0
 10
397.367604
 20
345.797926
 30
0.0
  0
SPLINE
  5
15f
100
AcDbEntity
  8
Layer_1
 62
7
100
AcDbSpline
 70
8
 71
3
 72
8
 73
4
 74
0
 40
0
 40
0
 40
0
 40
0
 40
1
 40
1
 40
1
 40
1
 10
397.367604
 20
345.797926
 30
0.0
 10
397.377189
 20
345.870448
 30
0.0
 10
397.381146
 20
346.026632
 30
0.0
 10
397.379474
 20
346.266478
 30
0.0
  0
SPLINE
  5
160
100
AcDbEntity
  8
Layer_1
 62
7
100
AcDbSpline
 70
8
 71
3
 72
8
 73
4
 74
0
 40
0
 40
0
 40
0
 40
0
 40
1
 40
1
 40
1
 40
1
 10
397.379474
 20
346.266478
 30
0.0
 10
397.378934
 20
346.506603
 30
0.0
 10
397.391654
 20
346.678018
 30
0.0
 10
397.417633
 20
346.780723
 30
0.0
  0
SPLINE
  5
161
100
AcDbEntity
  8
Layer_1
 62
7
100
AcDbSpline
 70
8
 71
3
 72
8
 73
4
 74
0
 40
0
 40
0
 40
0
 40
0
 40
1
 40
1
 40
1
 40
1
 10
397.417633
 20
346.780723
 30
0.0
 10
397.450482
 20
346.913657
 30
0.0
 10
397.505200
 20
347.020428
 30
0.0
 10
397.581785
 20
347.101037
 30
0.0
  0
SPLINE
  5
162
100
AcDbEntity
  8
Layer_1
 62
7
100
AcDbSpline
 70
8
 71
3
 72
8
 73
4
 74
0
 40
0
 40
0
 40
0
 40
0
 40
1
 40
1
 40
1
 40
1
 10
397.581785
 20
347.101037
 30
0.0
 10
397.659777
 20
347.180803
 30
0.0
 10
397.755433
 20
347.234567
 30
0.0
 10
397.868753
 20
347.262329
 30
0.0
  0
SPLINE
  5
163
100
AcDbEntity
  8
Layer_1
 62
7
100
AcDbSpline
 70
8
 71
3
 72
8
 73
4
 74
0
 40
0
 40
0
 40
0
 40
0
 40
1
 40
1
 40
1
 40
1
 10
397.868753
 20
347.262329
 30
0.0
 10
397.993311
 20
347.292844
 30
0.0
 10
398.118104
 20
347.285950
 30
0.0
 10
398.243131
 20
347.241649
 30
0.0
  0
SPLINE
  5
164
100
AcDbEntity
  8
Layer_1
 62
7
100
AcDbSpline
 70
8
 71
3
 72
8
 73
4
 74
0
 40
0
 40
0
 40
0
 40
0
 40
1
 40
1
 40
1
 40
1
 10
398.243131
 20
347.241649
 30
0.0
 10
398.369291
 20
347.197626
 30
0.0
 10
398.477052
 20
347.114603
 30
0.0
 10
398.566416
 20
346.992580
 30
0.0
  0
SPLINE
  5
165
100
AcDbEntity
  8
Layer_1
 62
7
100
AcDbSpline
 70
8
 71
3
 72
8
 73
4
 74
0
 40
0
 40
0
 40
0
 40
0
 40
1
 40
1
 40
1
 40
1
 10
398.566416
 20
346.992580
 30
0.0
 10
398.655780
 20
346.870556
 30
0.0
 10
398.720803
 20
346.726513
 30
0.0
 10
398.761486
 20
346.560449
 30
0.0
  0
SPLINE
  5
166
100
AcDbEntity
  8
Layer_1
 62
7
100
AcDbSpline
 70
8
 71
3
 72
8
 73
4
 74
0
 40
0
 40
0
 40
0
 40
0
 40
1
 40
1
 40
1
 40
1
 10
398.761486
 20
346.560449
 30
0.0
 10
398.806292
 20
346.377557
 30
0.0
 10
398.816006
 20
346.209260
 30
0.0
 10
398.790627
 20
346.055558
 30
0.0
  0
SPLINE
  5
167
100
AcDbEntity
  8
Layer_1
 62
7
100
AcDbSpline
 70
8
 71
3
 72
8
 73
4
 74
0
 40
0
 40
0
 40
0
 40
0
 40
1
 40
1
 40
1
 40
1
 10
398.790627
 20
346.055558
 30
0.0
 10
398.766637
 20
345.901007
 30
0.0
 10
398.706625
 20
345.772124
 30
0.0
 10
398.610589
 20
345.668909
 30
0.0
  0
SPLINE
  5
168
100
AcDbEntity
  8
Layer_1
 62
7
100
AcDbSpline
 70
8
 71
3
 72
8
 73
4
 74
0
 40
0
 40
0
 40
0
 40
0
 40
1
 40
1
 40
1
 40
1
 10
398.610589
 20
345.668909
 30
0.0
 10
398.514554
 20
345.565693
 30
0.0
 10
398.394857
 20
345.493551
 30
0.0
 10
398.251498
 20
345.452483
 30
0.0
  0
LINE
  5
169
100
AcDbEntity
  8
Layer_1
 62
7
100
AcDbLine
 10
398.251498
 20
345.452483
 30
0.0
 11
398.151232
 21
345.759756
 31
0.0
  0
SPLINE
  5
16a
100
AcDbEntity
  8
Layer_1
 62
7
100
AcDbSpline
 70
8
 71
3
 72
8
 73
4
 74
0
 40
0
 40
0
 40
0
 40
0
 40
1
 40
1
 40
1
 40
1
 10
398.151232
 20
345.759756
 30
0.0
 10
398.303080
 20
345.814798
 30
0.0
 10
398.406876
 20
345.900886
 30
0.0
 10
398.462619
 20
346.018019
 30
0.0
  0
SPLINE
  5
16b
100
AcDbEntity
  8
Layer_1
 62
7
100
AcDbSpline
 70
8
 71
3
 72
8
 73
4
 74
0
 40
0
 40
0
 40
0
 40
0
 40
1
 40
1
 40
1
 40
1
 10
398.462619
 20
346.018019
 30
0.0
 10
398.518637
 20
346.134030
 30
0.0
 10
398.523418
 20
346.286849
 30
0.0
 10
398.476962
 20
346.476475
 30
0.0
  0
SPLINE
  5
16c
100
AcDbEntity
  8
Layer_1
 62
7
100
AcDbSpline
 70
8
 71
3
 72
8
 73
4
 74
0
 40
0
 40
0
 40
0
 40
0
 40
1
 40
1
 40
1
 40
1
 10
398.476962
 20
346.476475
 30
0.0
 10
398.428583
 20
346.673954
 30
0.0
 10
398.356794
 20
346.809203
 30
0.0
 10
398.261595
 20
346.882221
 30
0.0
  0
SPLINE
  5
16d
100
AcDbEntity
  8
Layer_1
 62
7
100
AcDbSpline
 70
8
 71
3
 72
8
 73
4
 74
0
 40
0
 40
0
 40
0
 40
0
 40
1
 40
1
 40
1
 40
1
 10
398.261595
 20
346.882221
 30
0.0
 10
398.167804
 20
346.954395
 30
0.0
 10
398.069849
 20
346.977973
 30
0.0
 10
397.967732
 20
346.952956
 30
0.0
  0
SPLINE
  5
16e
100
AcDbEntity
  8
Layer_1
 62
7
100
AcDbSpline
 70
8
 71
3
 72
8
 73
4
 74
0
 40
0
 40
0
 40
0
 40
0
 40
1
 40
1
 40
1
 40
1
 10
397.967732
 20
346.952956
 30
0.0
 10
397.879101
 20
346.931242
 30
0.0
 10
397.814002
 20
346.881396
 30
0.0
 10
397.772435
 20
346.803418
 30
0.0
  0
SPLINE
  5
16f
100
AcDbEntity
  8
Layer_1
 62
7
100
AcDbSpline
 70
8
 71
3
 72
8
 73
4
 74
0
 40
0
 40
0
 40
0
 40
0
 40
1
 40
1
 40
1
 40
1
 10
397.772435
 20
346.803418
 30
0.0
 10
397.730612
 20
346.726566
 30
0.0
 10
397.711837
 20
346.548316
 30
0.0
 10
397.716112
 20
346.268669
 30
0.0
  0
SPLINE
  5
170
100
AcDbEntity
  8
Layer_1
 62
7
100
AcDbSpline
 70
8
 71
3
 72
8
 73
4
 74
0
 40
0
 40
0
 40
0
 40
0
 40
1
 40
1
 40
1
 40
1
 10
397.716112
 20
346.268669
 30
0.0
 10
397.721795
 20
345.988175
 30
0.0
 10
397.714291
 20
345.793060
 30
0.0
 10
397.693599
 20
345.683325
 30
0.0
  0
SPLINE
  5
171
100
AcDbEntity
  8
Layer_1
 62
7
100
AcDbSpline
 70
8
 71
3
 72
8
 73
4
 74
0
 40
0
 40
0
 40
0
 40
0
 40
1
 40
1
 40
1
 40
1
 10
397.693599
 20
345.683325
 30
0.0
 10
397.662594
 20
345.523489
 30
0.0
 10
397.604417
 20
345.396839
 30
0.0
 10
397.519068
 20
345.303377
 30
0.0
  0
SPLINE
  5
172
100
AcDbEntity
  8
Layer_1
 62
7
100
AcDbSpline
 70
8
 71
3
 72
8
 73
4
 74
0
 40
0
 40
0
 40
0
 40
0
 40
1
 40
1
 40
1
 40
1
 10
397.519068
 20
345.303377
 30
0.0
 10
397.434851
 20
345.210192
 30
0.0
 10
397.326544
 20
345.147382
 30
0.0
 10
397.194146
 20
345.114946
 30
0.0
  0
SPLINE
  5
173
100
AcDbEntity
  8
Layer_1
 62
7
100
AcDbSpline
 70
8
 71
3
 72
8
 73
4
 74
0
 40
0
 40
0
 40
0
 40
0
 40
1
 40
1
 40
1
 40
1
 10
397.194146
 20
345.114946
 30
0.0
 10
397.062863
 20
345.082784
 30
0.0
 10
396.929671
 20
345.089998
 30
0.0
 10
396.794572
 20
345.136590
 30
0.0
  0
SPLINE
  5
174
100
AcDbEntity
  8
Layer_1
 62
7
100
AcDbSpline
 70
8
 71
3
 72
8
 73
4
 74
0
 40
0
 40
0
 40
0
 40
0
 40
1
 40
1
 40
1
 40
1
 10
396.794572
 20
345.136590
 30
0.0
 10
396.660587
 20
345.183455
 30
0.0
 10
396.543730
 20
345.269602
 30
0.0
 10
396.444002
 20
345.395032
 30
0.0
  0
SPLINE
  5
175
100
AcDbEntity
  8
Layer_1
 62
7
100
AcDbSpline
 70
8
 71
3
 72
8
 73
4
 74
0
 40
0
 40
0
 40
0
 40
0
 40
1
 40
1
 40
1
 40
1
 10
396.444002
 20
345.395032
 30
0.0
 10
396.345699
 20
345.519623
 30
0.0
 10
396.274969
 20
345.669999
 30
0.0
 10
396.231812
 20
345.846161
 30
0.0
  0
SPLINE
  5
176
100
AcDbEntity
  8
Layer_1
 62
7
100
AcDbSpline
 70
8
 71
3
 72
8
 73
4
 74
0
 40
0
 40
0
 40
0
 40
0
 40
1
 40
1
 40
1
 40
1
 10
396.231812
 20
345.846161
 30
0.0
 10
396.177110
 20
346.069447
 30
0.0
 10
396.163741
 20
346.264799
 30
0.0
 10
396.191707
 20
346.432218
 30
0.0
  0
SPLINE
  5
177
100
AcDbEntity
  8
Layer_1
 62
7
100
AcDbSpline
 70
8
 71
3
 72
8
 73
4
 74
0
 40
0
 40
0
 40
0
 40
0
 40
1
 40
1
 40
1
 40
1
 10
396.191707
 20
346.432218
 30
0.0
 10
396.219948
 20
346.598513
 30
0.0
 10
396.288560
 20
346.740802
 30
0.0
 10
396.397544
 20
346.859085
 30
0.0
  0
SPLINE
  5
178
100
AcDbEntity
  8
Layer_1
 62
7
100
AcDbSpline
 70
8
 71
3
 72
8
 73
4
 74
0
 40
0
 40
0
 40
0
 40
0
 40
1
 40
1
 40
1
 40
1
 10
396.397544
 20
346.859085
 30
0.0
 10
396.507936
 20
346.976523
 30
0.0
 10
396.645055
 20
347.057691
 30
0.0
 10
396.808900
 20
347.102588
 30
0.0
  0
LINE
  5
179
100
AcDbEntity
  8
Layer_1
 62
7
100
AcDbLine
 10
396.808900
 20
347.102588
 30
0.0
 11
396.808955
 21
347.102602
 31
0.0
  0
LINE
  5
17a
100
AcDbEntity
  8
Layer_1
 62
7
100
AcDbLine
 10
396.540313
 20
344.769195
 30
0.0
 11
399.239828
 21
344.426100
 31
0.0
  0
LINE
  5
17b
100
AcDbEntity
  8
Layer_1
 62
7
100
AcDbLine
 10
399.239828
 20
344.426100
 30
0.0
 11
399.326004
 21
344.074341
 31
0.0
  0
LINE
  5
17c
100
AcDbEntity
  8
Layer_1
 62
7
100
AcDbLine
 10
399.326004
 20
344.074341
 30
0.0
 11
397.106027
 21
342.460027
 31
0.0
  0
LINE
  5
17d
100
AcDbEntity
  8
Layer_1
 62
7
100
AcDbLine
 10
397.106027
 20
342.460027
 30
0.0
 11
397.014902
 21
342.831987
 31
0.0
  0
LINE
  5
17e
100
AcDbEntity
  8
Layer_1
 62
7
100
AcDbLine
 10
397.014902
 20
342.831987
 30
0.0
 11
397.691663
 21
343.302860
 31
0.0
  0
LINE
  5
17f
100
AcDbEntity
  8
Layer_1
 62
7
100
AcDbLine
 10
397.691663
 20
343.302860
 30
0.0
 11
397.438906
 21
344.334581
 31
0.0
  0
LINE
  5
180
100
AcDbEntity
  8
Layer_1
 62
7
100
AcDbLine
 10
397.438906
 20
344.334581
 30
0.0
 11
396.625253
 21
344.422485
 31
0.0
  0
LINE
  5
181
100
AcDbEntity
  8
Layer_1
 62
7
100
AcDbLine
 10
396.625253
 20
344.422485
 30
0.0
 11
396.540313
 21
344.769195
 31
0.0
  0
LINE
  5
182
100
AcDbEntity
  8
Layer_1
 62
7
100
AcDbLine
 10
397.727916
 20
344.305475
 30
0.0
 11
397.932843
 21
343.468991
 31
0.0
  0
LINE
  5
183
100
AcDbEntity
  8
Layer_1
 62
7
100
AcDbLine
 10
397.932843
 20
343.468991
 30
0.0
 11
398.553101
 21
343.893911
 31
0.0
  0
SPLINE
  5
184
100
AcDbEntity
  8
Layer_1
 62
7
100
AcDbSpline
 70
8
 71
3
 72
8
 73
4
 74
0
 40
0
 40
0
 40
0
 40
0
 40
1
 40
1
 40
1
 40
1
 10
398.553101
 20
343.893911
 30
0.0
 10
398.741438
 20
344.023308
 30
0.0
 10
398.897689
 20
344.123436
 30
0.0
 10
399.021856
 20
344.194294
 30
0.0
  0
SPLINE
  5
185
100
AcDbEntity
  8
Layer_1
 62
7
100
AcDbSpline
 70
8
 71
3
 72
8
 73
4
 74
0
 40
0
 40
0
 40
0
 40
0
 40
1
 40
1
 40
1
 40
1
 10
399.021856
 20
344.194294
 30
0.0
 10
398.855958
 20
344.186954
 30
0.0
 10
398.688013
 20
344.192790
 30
0.0
 10
398.518022
 20
344.211802
 30
0.0
  0
LINE
  5
186
100
AcDbEntity
  8
Layer_1
 62
7
100
AcDbLine
 10
398.518022
 20
344.211802
 30
0.0
 11
397.727916
 21
344.305475
 31
0.0
  0
LINE
  5
187
100
AcDbEntity
  8
Layer_1
 62
7
100
AcDbLine
 10
397.342709
 20
341.493924
 30
0.0
 11
399.575881
 21
343.054377
 31
0.0
  0
LINE
  5
188
100
AcDbEntity
  8
Layer_1
 62
7
100
AcDbLine
 10
399.575881
 20
343.054377
 30
0.0
 11
399.662470
 21
342.700934
 31
0.0
  0
LINE
  5
189
100
AcDbEntity
  8
Layer_1
 62
7
100
AcDbLine
 10
399.662470
 20
342.700934
 30
0.0
 11
398.027094
 21
341.620555
 31
0.0
  0
SPLINE
  5
18a
100
AcDbEntity
  8
Layer_1
 62
7
100
AcDbSpline
 70
8
 71
3
 72
8
 73
4
 74
0
 40
0
 40
0
 40
0
 40
0
 40
1
 40
1
 40
1
 40
1
 10
398.027094
 20
341.620555
 30
0.0
 10
397.896120
 20
341.533756
 30
0.0
 10
397.772057
 20
341.457571
 30
0.0
 10
397.654906
 20
341.391999
 30
0.0
  0
SPLINE
  5
18b
100
AcDbEntity
  8
Layer_1
 62
7
100
AcDbSpline
 70
8
 71
3
 72
8
 73
4
 74
0
 40
0
 40
0
 40
0
 40
0
 40
1
 40
1
 40
1
 40
1
 10
397.654906
 20
341.391999
 30
0.0
 10
397.798898
 20
341.386836
 30
0.0
 10
397.944402
 20
341.375502
 30
0.0
 10
398.091417
 20
341.357996
 30
0.0
  0
LINE
  5
18c
100
AcDbEntity
  8
Layer_1
 62
7
100
AcDbLine
 10
398.091417
 20
341.357996
 30
0.0
 11
400.047172
 21
341.130632
 31
0.0
  0
LINE
  5
18d
100
AcDbEntity
  8
Layer_1
 62
7
100
AcDbLine
 10
400.047172
 20
341.130632
 30
0.0
 11
400.128813
 21
340.797384
 31
0.0
  0
LINE
  5
18e
100
AcDbEntity
  8
Layer_1
 62
7
100
AcDbLine
 10
400.128813
 20
340.797384
 30
0.0
 11
397.424763
 21
341.158993
 31
0.0
  0
LINE
  5
18f
100
AcDbEntity
  8
Layer_1
 62
7
100
AcDbLine
 10
397.424763
 20
341.158993
 30
0.0
 11
397.342709
 21
341.493924
 31
0.0
  0
LINE
  5
190
100
AcDbEntity
  8
Layer_1
 62
7
100
AcDbLine
 10
397.734841
 20
339.893295
 30
0.0
 11
400.202215
 21
340.497767
 31
0.0
  0
LINE
  5
191
100
AcDbEntity
  8
Layer_1
 62
7
100
AcDbLine
 10
400.202215
 20
340.497767
 30
0.0
 11
400.639283
 21
338.713715
 31
0.0
  0
LINE
  5
192
100
AcDbEntity
  8
Layer_1
 62
7
100
AcDbLine
 10
400.639283
 20
338.713715
 30
0.0
 11
400.348117
 21
338.642383
 31
0.0
  0
LINE
  5
193
100
AcDbEntity
  8
Layer_1
 62
7
100
AcDbLine
 10
400.348117
 20
338.642383
 30
0.0
 11
399.991041
 21
340.099919
 31
0.0
  0
LINE
  5
194
100
AcDbEntity
  8
Layer_1
 62
7
100
AcDbLine
 10
399.991041
 20
340.099919
 30
0.0
 11
399.235330
 21
339.914780
 31
0.0
  0
LINE
  5
195
100
AcDbEntity
  8
Layer_1
 62
7
100
AcDbLine
 10
399.235330
 20
339.914780
 30
0.0
 11
399.569728
 21
338.549814
 31
0.0
  0
LINE
  5
196
100
AcDbEntity
  8
Layer_1
 62
7
100
AcDbLine
 10
399.569728
 20
338.549814
 30
0.0
 11
399.280234
 21
338.478892
 31
0.0
  0
LINE
  5
197
100
AcDbEntity
  8
Layer_1
 62
7
100
AcDbLine
 10
399.280234
 20
338.478892
 30
0.0
 11
398.945836
 21
339.843858
 31
0.0
  0
LINE
  5
198
100
AcDbEntity
  8
Layer_1
 62
7
100
AcDbLine
 10
398.945836
 20
339.843858
 30
0.0
 11
398.105999
 21
339.638110
 31
0.0
  0
LINE
  5
199
100
AcDbEntity
  8
Layer_1
 62
7
100
AcDbLine
 10
398.105999
 20
339.638110
 30
0.0
 11
398.477094
 21
338.123350
 31
0.0
  0
LINE
  5
19a
100
AcDbEntity
  8
Layer_1
 62
7
100
AcDbLine
 10
398.477094
 20
338.123350
 30
0.0
 11
398.185928
 21
338.052018
 31
0.0
  0
LINE
  5
19b
100
AcDbEntity
  8
Layer_1
 62
7
100
AcDbLine
 10
398.185928
 20
338.052018
 30
0.0
 11
397.734841
 21
339.893295
 31
0.0
  0
LINE
  5
19c
100
AcDbEntity
  8
Layer_1
 62
7
100
AcDbLine
 10
398.535317
 20
336.625858
 30
0.0
 11
401.002691
 21
337.230330
 31
0.0
  0
LINE
  5
19d
100
AcDbEntity
  8
Layer_1
 62
7
100
AcDbLine
 10
401.002691
 20
337.230330
 30
0.0
 11
401.410484
 21
335.565777
 31
0.0
  0
LINE
  5
19e
100
AcDbEntity
  8
Layer_1
 62
7
100
AcDbLine
 10
401.410484
 20
335.565777
 30
0.0
 11
401.119318
 21
335.494445
 31
0.0
  0
LINE
  5
19f
100
AcDbEntity
  8
Layer_1
 62
7
100
AcDbLine
 10
401.119318
 20
335.494445
 30
0.0
 11
400.791517
 21
336.832482
 31
0.0
  0
LINE
  5
1a0
100
AcDbEntity
  8
Layer_1
 62
7
100
AcDbLine
 10
400.791517
 20
336.832482
 30
0.0
 11
400.027391
 21
336.645282
 31
0.0
  0
LINE
  5
1a1
100
AcDbEntity
  8
Layer_1
 62
7
100
AcDbLine
 10
400.027391
 20
336.645282
 30
0.0
 11
400.311072
 21
335.487333
 31
0.0
  0
LINE
  5
1a2
100
AcDbEntity
  8
Layer_1
 62
7
100
AcDbLine
 10
400.311072
 20
335.487333
 30
0.0
 11
400.019906
 21
335.416002
 31
0.0
  0
LINE
  5
1a3
100
AcDbEntity
  8
Layer_1
 62
7
100
AcDbLine
 10
400.019906
 20
335.416002
 30
0.0
 11
399.736225
 21
336.573951
 31
0.0
  0
LINE
  5
1a4
100
AcDbEntity
  8
Layer_1
 62
7
100
AcDbLine
 10
399.736225
 20
336.573951
 30
0.0
 11
398.615309
 21
336.299342
 31
0.0
  0
LINE
  5
1a5
100
AcDbEntity
  8
Layer_1
 62
7
100
AcDbLine
 10
398.615309
 20
336.299342
 30
0.0
 11
398.535317
 21
336.625858
 31
0.0
  0
SPLINE
  5
1a6
100
AcDbEntity
  8
Layer_1
 62
7
100
AcDbSpline
 70
8
 71
3
 72
8
 73
4
 74
0
 40
0
 40
0
 40
0
 40
0
 40
1
 40
1
 40
1
 40
1
 10
400.224523
 20
334.930317
 30
0.0
 10
400.634070
 20
335.030650
 30
0.0
 10
400.981350
 20
334.999169
 30
0.0
 10
401.266362
 20
334.835875
 30
0.0
  0
SPLINE
  5
1a7
100
AcDbEntity
  8
Layer_1
 62
7
100
AcDbSpline
 70
8
 71
3
 72
8
 73
4
 74
0
 40
0
 40
0
 40
0
 40
0
 40
1
 40
1
 40
1
 40
1
 10
401.266362
 20
334.835875
 30
0.0
 10
401.552508
 20
334.672855
 30
0.0
 10
401.738187
 20
334.417429
 30
0.0
 10
401.823402
 20
334.069596
 30
0.0
  0
SPLINE
  5
1a8
100
AcDbEntity
  8
Layer_1
 62
7
100
AcDbSpline
 70
8
 71
3
 72
8
 73
4
 74
0
 40
0
 40
0
 40
0
 40
0
 40
1
 40
1
 40
1
 40
1
 10
401.823402
 20
334.069596
 30
0.0
 10
401.879204
 20
333.841820
 30
0.0
 10
401.875086
 20
333.623154
 30
0.0
 10
401.811050
 20
333.413597
 30
0.0
  0
SPLINE
  5
1a9
100
AcDbEntity
  8
Layer_1
 62
7
100
AcDbSpline
 70
8
 71
3
 72
8
 73
4
 74
0
 40
0
 40
0
 40
0
 40
0
 40
1
 40
1
 40
1
 40
1
 10
401.811050
 20
333.413597
 30
0.0
 10
401.747032
 20
333.204042
 30
0.0
 10
401.629084
 20
333.027662
 30
0.0
 10
401.457206
 20
332.884456
 30
0.0
  0
SPLINE
  5
1aa
100
AcDbEntity
  8
Layer_1
 62
7
100
AcDbSpline
 70
8
 71
3
 72
8
 73
4
 74
0
 40
0
 40
0
 40
0
 40
0
 40
1
 40
1
 40
1
 40
1
 10
401.457206
 20
332.884456
 30
0.0
 10
401.286735
 20
332.740407
 30
0.0
 10
401.078074
 20
332.638145
 30
0.0
 10
400.831223
 20
332.577670
 30
0.0
  0
SPLINE
  5
1ab
100
AcDbEntity
  8
Layer_1
 62
7
100
AcDbSpline
 70
8
 71
3
 72
8
 73
4
 74
0
 40
0
 40
0
 40
0
 40
0
 40
1
 40
1
 40
1
 40
1
 10
400.831223
 20
332.577670
 30
0.0
 10
400.581010
 20
332.516372
 30
0.0
 10
400.344788
 20
332.512022
 30
0.0
 10
400.122557
 20
332.564622
 30
0.0
  0
SPLINE
  5
1ac
100
AcDbEntity
  8
Layer_1
 62
7
100
AcDbSpline
 70
8
 71
3
 72
8
 73
4
 74
0
 40
0
 40
0
 40
0
 40
0
 40
1
 40
1
 40
1
 40
1
 10
400.122557
 20
332.564622
 30
0.0
 10
399.900344
 20
332.617228
 30
0.0
 10
399.715510
 20
332.723594
 30
0.0
 10
399.568055
 20
332.883719
 30
0.0
  0
SPLINE
  5
1ad
100
AcDbEntity
  8
Layer_1
 62
7
100
AcDbSpline
 70
8
 71
3
 72
8
 73
4
 74
0
 40
0
 40
0
 40
0
 40
0
 40
1
 40
1
 40
1
 40
1
 10
399.568055
 20
332.883719
 30
0.0
 10
399.421715
 20
333.044116
 30
0.0
 10
399.322293
 20
333.231469
 30
0.0
 10
399.269790
 20
333.445781
 30
0.0
  0
SPLINE
  5
1ae
100
AcDbEntity
  8
Layer_1
 62
7
100
AcDbSpline
 70
8
 71
3
 72
8
 73
4
 74
0
 40
0
 40
0
 40
0
 40
0
 40
1
 40
1
 40
1
 40
1
 10
399.269790
 20
333.445781
 30
0.0
 10
399.212889
 20
333.678043
 30
0.0
 10
399.218137
 20
333.899365
 30
0.0
 10
399.285536
 20
334.109748
 30
0.0
  0
SPLINE
  5
1af
100
AcDbEntity
  8
Layer_1
 62
7
100
AcDbSpline
 70
8
 71
3
 72
8
 73
4
 74
0
 40
0
 40
0
 40
0
 40
0
 40
1
 40
1
 40
1
 40
1
 10
399.285536
 20
334.109748
 30
0.0
 10
399.352934
 20
334.320130
 30
0.0
 10
399.472144
 20
334.496224
 30
0.0
 10
399.643165
 20
334.638029
 30
0.0
  0
SPLINE
  5
1b0
100
AcDbEntity
  8
Layer_1
 62
7
100
AcDbSpline
 70
8
 71
3
 72
8
 73
4
 74
0
 40
0
 40
0
 40
0
 40
0
 40
1
 40
1
 40
1
 40
1
 10
399.643165
 20
334.638029
 30
0.0
 10
399.814185
 20
334.779835
 30
0.0
 10
400.007971
 20
334.877265
 30
0.0
 10
400.224523
 20
334.930317
 30
0.0
  0
LINE
  5
1b1
100
AcDbEntity
  8
Layer_1
 62
7
100
AcDbLine
 10
400.224523
 20
334.930317
 30
0.0
 11
400.224523
 21
334.930317
 31
0.0
  0
SPLINE
  5
1b2
100
AcDbEntity
  8
Layer_1
 62
7
100
AcDbSpline
 70
8
 71
3
 72
8
 73
4
 74
0
 40
0
 40
0
 40
0
 40
0
 40
1
 40
1
 40
1
 40
1
 10
400.302054
 20
334.592496
 30
0.0
 10
400.004711
 20
334.519651
 30
0.0
 10
399.789721
 20
334.382535
 30
0.0
 10
399.657085
 20
334.181147
 30
0.0
  0
SPLINE
  5
1b3
100
AcDbEntity
  8
Layer_1
 62
7
100
AcDbSpline
 70
8
 71
3
 72
8
 73
4
 74
0
 40
0
 40
0
 40
0
 40
0
 40
1
 40
1
 40
1
 40
1
 10
399.657085
 20
334.181147
 30
0.0
 10
399.525839
 20
333.978911
 30
0.0
 10
399.489766
 20
333.757173
 30
0.0
 10
399.548866
 20
333.515935
 30
0.0
  0
SPLINE
  5
1b4
100
AcDbEntity
  8
Layer_1
 62
7
100
AcDbSpline
 70
8
 71
3
 72
8
 73
4
 74
0
 40
0
 40
0
 40
0
 40
0
 40
1
 40
1
 40
1
 40
1
 10
399.548866
 20
333.515935
 30
0.0
 10
399.609066
 20
333.270206
 30
0.0
 10
399.744947
 20
333.089405
 30
0.0
 10
399.956508
 20
332.973532
 30
0.0
  0
SPLINE
  5
1b5
100
AcDbEntity
  8
Layer_1
 62
7
100
AcDbSpline
 70
8
 71
3
 72
8
 73
4
 74
0
 40
0
 40
0
 40
0
 40
0
 40
1
 40
1
 40
1
 40
1
 10
399.956508
 20
332.973532
 30
0.0
 10
400.168327
 20
332.856531
 30
0.0
 10
400.433004
 20
332.836927
 30
0.0
 10
400.750540
 20
332.914719
 30
0.0
  0
SPLINE
  5
1b6
100
AcDbEntity
  8
Layer_1
 62
7
100
AcDbSpline
 70
8
 71
3
 72
8
 73
4
 74
0
 40
0
 40
0
 40
0
 40
0
 40
1
 40
1
 40
1
 40
1
 10
400.750540
 20
332.914719
 30
0.0
 10
400.951394
 20
332.963925
 30
0.0
 10
401.118051
 20
333.041030
 30
0.0
 10
401.250512
 20
333.146034
 30
0.0
  0
SPLINE
  5
1b7
100
AcDbEntity
  8
Layer_1
 62
7
100
AcDbSpline
 70
8
 71
3
 72
8
 73
4
 74
0
 40
0
 40
0
 40
0
 40
0
 40
1
 40
1
 40
1
 40
1
 10
401.250512
 20
333.146034
 30
0.0
 10
401.384381
 20
333.250194
 30
0.0
 10
401.476187
 20
333.377946
 30
0.0
 10
401.525931
 20
333.529292
 30
0.0
  0
SPLINE
  5
1b8
100
AcDbEntity
  8
Layer_1
 62
7
100
AcDbSpline
 70
8
 71
3
 72
8
 73
4
 74
0
 40
0
 40
0
 40
0
 40
0
 40
1
 40
1
 40
1
 40
1
 10
401.525931
 20
333.529292
 30
0.0
 10
401.577066
 20
333.679786
 30
0.0
 10
401.582704
 20
333.836382
 30
0.0
 10
401.542845
 20
333.999079
 30
0.0
  0
SPLINE
  5
1b9
100
AcDbEntity
  8
Layer_1
 62
7
100
AcDbSpline
 70
8
 71
3
 72
8
 73
4
 74
0
 40
0
 40
0
 40
0
 40
0
 40
1
 40
1
 40
1
 40
1
 10
401.542845
 20
333.999079
 30
0.0
 10
401.486219
 20
334.230220
 30
0.0
 10
401.357769
 20
334.409867
 30
0.0
 10
401.157494
 20
334.538022
 30
0.0
  0
SPLINE
  5
1ba
100
AcDbEntity
  8
Layer_1
 62
7
100
AcDbSpline
 70
8
 71
3
 72
8
 73
4
 74
0
 40
0
 40
0
 40
0
 40
0
 40
1
 40
1
 40
1
 40
1
 10
401.157494
 20
334.538022
 30
0.0
 10
400.958591
 20
334.665324
 30
0.0
 10
400.673444
 20
334.683482
 30
0.0
 10
400.302054
 20
334.592496
 30
0.0
  0
LINE
  5
1bb
100
AcDbEntity
  8
Layer_1
 62
7
100
AcDbLine
 10
400.302054
 20
334.592496
 30
0.0
 11
400.302054
 21
334.592496
 31
0.0
  0
LINE
  5
1bc
100
AcDbEntity
  8
Layer_1
 62
7
100
AcDbLine
 10
399.705368
 20
331.849867
 30
0.0
 11
402.172742
 21
332.454339
 31
0.0
  0
LINE
  5
1bd
100
AcDbEntity
  8
Layer_1
 62
7
100
AcDbLine
 10
402.172742
 20
332.454339
 30
0.0
 11
402.440755
 21
331.360347
 31
0.0
  0
SPLINE
  5
1be
100
AcDbEntity
  8
Layer_1
 62
7
100
AcDbSpline
 70
8
 71
3
 72
8
 73
4
 74
0
 40
0
 40
0
 40
0
 40
0
 40
1
 40
1
 40
1
 40
1
 10
402.440755
 20
331.360347
 30
0.0
 10
402.494633
 20
331.140426
 30
0.0
 10
402.513150
 20
330.967744
 30
0.0
 10
402.496306
 20
330.842301
 30
0.0
  0
SPLINE
  5
1bf
100
AcDbEntity
  8
Layer_1
 62
7
100
AcDbSpline
 70
8
 71
3
 72
8
 73
4
 74
0
 40
0
 40
0
 40
0
 40
0
 40
1
 40
1
 40
1
 40
1
 10
402.496306
 20
330.842301
 30
0.0
 10
402.480577
 20
330.717130
 30
0.0
 10
402.424994
 20
330.606577
 30
0.0
 10
402.329557
 20
330.510644
 30
0.0
  0
SPLINE
  5
1c0
100
AcDbEntity
  8
Layer_1
 62
7
100
AcDbSpline
 70
8
 71
3
 72
8
 73
4
 74
0
 40
0
 40
0
 40
0
 40
0
 40
1
 40
1
 40
1
 40
1
 10
402.329557
 20
330.510644
 30
0.0
 10
402.234120
 20
330.414710
 30
0.0
 10
402.118522
 20
330.350114
 30
0.0
 10
401.982761
 20
330.316854
 30
0.0
  0
SPLINE
  5
1c1
100
AcDbEntity
  8
Layer_1
 62
7
100
AcDbSpline
 70
8
 71
3
 72
8
 73
4
 74
0
 40
0
 40
0
 40
0
 40
0
 40
1
 40
1
 40
1
 40
1
 10
401.982761
 20
330.316854
 30
0.0
 10
401.807711
 20
330.273969
 30
0.0
 10
401.646281
 20
330.294486
 30
0.0
 10
401.498473
 20
330.378403
 30
0.0
  0
SPLINE
  5
1c2
100
AcDbEntity
  8
Layer_1
 62
7
100
AcDbSpline
 70
8
 71
3
 72
8
 73
4
 74
0
 40
0
 40
0
 40
0
 40
0
 40
1
 40
1
 40
1
 40
1
 10
401.498473
 20
330.378403
 30
0.0
 10
401.350647
 20
330.462317
 30
0.0
 10
401.231460
 20
330.618662
 30
0.0
 10
401.140913
 20
330.847439
 30
0.0
  0
SPLINE
  5
1c3
100
AcDbEntity
  8
Layer_1
 62
7
100
AcDbSpline
 70
8
 71
3
 72
8
 73
4
 74
0
 40
0
 40
0
 40
0
 40
0
 40
1
 40
1
 40
1
 40
1
 10
401.140913
 20
330.847439
 30
0.0
 10
401.120578
 20
330.750874
 30
0.0
 10
401.095706
 20
330.675201
 30
0.0
 10
401.066296
 20
330.620420
 30
0.0
  0
SPLINE
  5
1c4
100
AcDbEntity
  8
Layer_1
 62
7
100
AcDbSpline
 70
8
 71
3
 72
8
 73
4
 74
0
 40
0
 40
0
 40
0
 40
0
 40
1
 40
1
 40
1
 40
1
 10
401.066296
 20
330.620420
 30
0.0
 10
401.002145
 20
330.503608
 30
0.0
 10
400.914874
 20
330.386482
 30
0.0
 10
400.804482
 20
330.269044
 30
0.0
  0
LINE
  5
1c5
100
AcDbEntity
  8
Layer_1
 62
7
100
AcDbLine
 10
400.804482
 20
330.269044
 30
0.0
 11
400.238096
 21
329.675345
 31
0.0
  0
LINE
  5
1c6
100
AcDbEntity
  8
Layer_1
 62
7
100
AcDbLine
 10
400.238096
 20
329.675345
 30
0.0
 11
400.137488
 21
330.086015
 31
0.0
  0
LINE
  5
1c7
100
AcDbEntity
  8
Layer_1
 62
7
100
AcDbLine
 10
400.137488
 20
330.086015
 30
0.0
 11
400.570834
 21
330.538289
 31
0.0
  0
SPLINE
  5
1c8
100
AcDbEntity
  8
Layer_1
 62
7
100
AcDbSpline
 70
8
 71
3
 72
8
 73
4
 74
0
 40
0
 40
0
 40
0
 40
0
 40
1
 40
1
 40
1
 40
1
 10
400.570834
 20
330.538289
 30
0.0
 10
400.695564
 20
330.669944
 30
0.0
 10
400.789642
 20
330.776249
 30
0.0
 10
400.853066
 20
330.857204
 30
0.0
  0
SPLINE
  5
1c9
100
AcDbEntity
  8
Layer_1
 62
7
100
AcDbSpline
 70
8
 71
3
 72
8
 73
4
 74
0
 40
0
 40
0
 40
0
 40
0
 40
1
 40
1
 40
1
 40
1
 10
400.853066
 20
330.857204
 30
0.0
 10
400.916491
 20
330.938159
 30
0.0
 10
400.957872
 20
331.007172
 30
0.0
 10
400.977209
 20
331.064242
 30
0.0
  0
SPLINE
  5
1ca
100
AcDbEntity
  8
Layer_1
 62
7
100
AcDbSpline
 70
8
 71
3
 72
8
 73
4
 74
0
 40
0
 40
0
 40
0
 40
0
 40
1
 40
1
 40
1
 40
1
 10
400.977209
 20
331.064242
 30
0.0
 10
400.996802
 20
331.120186
 30
0.0
 10
401.006582
 20
331.174915
 30
0.0
 10
401.006547
 20
331.228429
 30
0.0
  0
SPLINE
  5
1cb
100
AcDbEntity
  8
Layer_1
 62
7
100
AcDbSpline
 70
8
 71
3
 72
8
 73
4
 74
0
 40
0
 40
0
 40
0
 40
0
 40
1
 40
1
 40
1
 40
1
 10
401.006547
 20
331.228429
 30
0.0
 10
401.005334
 20
331.267380
 30
0.0
 10
400.994420
 20
331.328932
 30
0.0
 10
400.973803
 20
331.413086
 30
0.0
  0
LINE
  5
1cc
100
AcDbEntity
  8
Layer_1
 62
7
100
AcDbLine
 10
400.973803
 20
331.413086
 30
0.0
 11
400.881029
 21
331.791777
 31
0.0
  0
LINE
  5
1cd
100
AcDbEntity
  8
Layer_1
 62
7
100
AcDbLine
 10
400.881029
 20
331.791777
 30
0.0
 11
399.785360
 21
331.523354
 31
0.0
  0
LINE
  5
1ce
100
AcDbEntity
  8
Layer_1
 62
7
100
AcDbLine
 10
399.785360
 20
331.523354
 30
0.0
 11
399.705368
 21
331.849867
 31
0.0
  0
LINE
  5
1cf
100
AcDbEntity
  8
Layer_1
 62
7
100
AcDbLine
 10
401.163780
 20
331.861047
 30
0.0
 11
401.335721
 21
331.159209
 31
0.0
  0
SPLINE
  5
1d0
100
AcDbEntity
  8
Layer_1
 62
7
100
AcDbSpline
 70
8
 71
3
 72
8
 73
4
 74
0
 40
0
 40
0
 40
0
 40
0
 40
1
 40
1
 40
1
 40
1
 10
401.335721
 20
331.159209
 30
0.0
 10
401.372280
 20
331.009976
 30
0.0
 10
401.416018
 20
330.896995
 30
0.0
 10
401.466934
 20
330.820264
 30
0.0
  0
SPLINE
  5
1d1
100
AcDbEntity
  8
Layer_1
 62
7
100
AcDbSpline
 70
8
 71
3
 72
8
 73
4
 74
0
 40
0
 40
0
 40
0
 40
0
 40
1
 40
1
 40
1
 40
1
 10
401.466934
 20
330.820264
 30
0.0
 10
401.518964
 20
330.743806
 30
0.0
 10
401.584000
 20
330.691945
 30
0.0
 10
401.662043
 20
330.664680
 30
0.0
  0
SPLINE
  5
1d2
100
AcDbEntity
  8
Layer_1
 62
7
100
AcDbSpline
 70
8
 71
3
 72
8
 73
4
 74
0
 40
0
 40
0
 40
0
 40
0
 40
1
 40
1
 40
1
 40
1
 10
401.662043
 20
330.664680
 30
0.0
 10
401.741202
 20
330.637686
 30
0.0
 10
401.820619
 20
330.633949
 30
0.0
 10
401.900295
 20
330.653469
 30
0.0
  0
SPLINE
  5
1d3
100
AcDbEntity
  8
Layer_1
 62
7
100
AcDbSpline
 70
8
 71
3
 72
8
 73
4
 74
0
 40
0
 40
0
 40
0
 40
0
 40
1
 40
1
 40
1
 40
1
 10
401.900295
 20
330.653469
 30
0.0
 10
402.016977
 20
330.682054
 30
0.0
 10
402.102463
 20
330.748193
 30
0.0
 10
402.156753
 20
330.851885
 30
0.0
  0
SPLINE
  5
1d4
100
AcDbEntity
  8
Layer_1
 62
7
100
AcDbSpline
 70
8
 71
3
 72
8
 73
4
 74
0
 40
0
 40
0
 40
0
 40
0
 40
1
 40
1
 40
1
 40
1
 10
402.156753
 20
330.851885
 30
0.0
 10
402.211318
 20
330.954457
 30
0.0
 10
402.216197
 20
331.097190
 30
0.0
 10
402.171390
 20
331.280084
 30
0.0
  0
LINE
  5
1d5
100
AcDbEntity
  8
Layer_1
 62
7
100
AcDbLine
 10
402.171390
 20
331.280084
 30
0.0
 11
401.980070
 21
332.061027
 31
0.0
  0
LINE
  5
1d6
100
AcDbEntity
  8
Layer_1
 62
7
100
AcDbLine
 10
401.980070
 20
332.061027
 30
0.0
 11
401.163780
 21
331.861047
 31
0.0
  0
LINE
  5
1d7
100
AcDbEntity
  8
Layer_1
 62
7
100
AcDbLine
 10
391.138211
 20
348.846990
 30
0.0
 11
393.445306
 21
350.105962
 31
0.0
  0
LINE
  5
1d8
100
AcDbEntity
  8
Layer_1
 62
7
100
AcDbLine
 10
393.445306
 20
350.105962
 30
0.0
 11
393.527328
 21
349.771026
 31
0.0
  0
LINE
  5
1d9
100
AcDbEntity
  8
Layer_1
 62
7
100
AcDbLine
 10
393.527328
 20
349.771026
 30
0.0
 11
392.001783
 21
348.999598
 31
0.0
  0
SPLINE
  5
1da
100
AcDbEntity
  8
Layer_1
 62
7
100
AcDbSpline
 70
8
 71
3
 72
8
 73
4
 74
0
 40
0
 40
0
 40
0
 40
0
 40
1
 40
1
 40
1
 40
1
 10
392.001783
 20
348.999598
 30
0.0
 10
391.842231
 20
348.917708
 30
0.0
 10
391.682438
 20
348.841707
 30
0.0
 10
391.522405
 20
348.771593
 30
0.0
  0
SPLINE
  5
1db
100
AcDbEntity
  8
Layer_1
 62
7
100
AcDbSpline
 70
8
 71
3
 72
8
 73
4
 74
0
 40
0
 40
0
 40
0
 40
0
 40
1
 40
1
 40
1
 40
1
 10
391.522405
 20
348.771593
 30
0.0
 10
391.801480
 20
348.773331
 30
0.0
 10
391.962585
 20
348.773534
 30
0.0
 10
392.005720
 20
348.772204
 30
0.0
  0
LINE
  5
1dc
100
AcDbEntity
  8
Layer_1
 62
7
100
AcDbLine
 10
392.005720
 20
348.772204
 30
0.0
 11
393.786995
 21
348.710674
 31
0.0
  0
LINE
  5
1dd
100
AcDbEntity
  8
Layer_1
 62
7
100
AcDbLine
 10
393.786995
 20
348.710674
 30
0.0
 11
393.883443
 21
348.316829
 31
0.0
  0
LINE
  5
1de
100
AcDbEntity
  8
Layer_1
 62
7
100
AcDbLine
 10
393.883443
 20
348.316829
 30
0.0
 11
392.721125
 21
347.657544
 31
0.0
  0
SPLINE
  5
1df
100
AcDbEntity
  8
Layer_1
 62
7
100
AcDbSpline
 70
8
 71
3
 72
8
 73
4
 74
0
 40
0
 40
0
 40
0
 40
0
 40
1
 40
1
 40
1
 40
1
 10
392.721125
 20
347.657544
 30
0.0
 10
392.433148
 20
347.493061
 30
0.0
 10
392.157638
 20
347.357798
 30
0.0
 10
391.894595
 20
347.251755
 30
0.0
  0
SPLINE
  5
1e0
100
AcDbEntity
  8
Layer_1
 62
7
100
AcDbSpline
 70
8
 71
3
 72
8
 73
4
 74
0
 40
0
 40
0
 40
0
 40
0
 40
1
 40
1
 40
1
 40
1
 10
391.894595
 20
347.251755
 30
0.0
 10
392.058246
 20
347.258529
 30
0.0
 10
392.247241
 20
347.261400
 30
0.0
 10
392.461579
 20
347.260370
 30
0.0
  0
LINE
  5
1e1
100
AcDbEntity
  8
Layer_1
 62
7
100
AcDbLine
 10
392.461579
 20
347.260370
 30
0.0
 11
394.141874
 21
347.261526
 31
0.0
  0
LINE
  5
1e2
100
AcDbEntity
  8
Layer_1
 62
7
100
AcDbLine
 10
394.141874
 20
347.261526
 30
0.0
 11
394.222248
 21
346.933322
 31
0.0
  0
LINE
  5
1e3
100
AcDbEntity
  8
Layer_1
 62
7
100
AcDbLine
 10
394.222248
 20
346.933322
 30
0.0
 11
391.589125
 21
347.005683
 31
0.0
  0
LINE
  5
1e4
100
AcDbEntity
  8
Layer_1
 62
7
100
AcDbLine
 10
391.589125
 20
347.005683
 30
0.0
 11
391.512049
 21
347.320422
 31
0.0
  0
LINE
  5
1e5
100
AcDbEntity
  8
Layer_1
 62
7
100
AcDbLine
 10
391.512049
 20
347.320422
 30
0.0
 11
393.264702
 21
348.300891
 31
0.0
  0
SPLINE
  5
1e6
100
AcDbEntity
  8
Layer_1
 62
7
100
AcDbSpline
 70
8
 71
3
 72
8
 73
4
 74
0
 40
0
 40
0
 40
0
 40
0
 40
1
 40
1
 40
1
 40
1
 10
393.264702
 20
348.300891
 30
0.0
 10
393.411076
 20
348.383121
 30
0.0
 10
393.501256
 20
348.432561
 30
0.0
 10
393.535243
 20
348.449209
 30
0.0
  0
SPLINE
  5
1e7
100
AcDbEntity
  8
Layer_1
 62
7
100
AcDbSpline
 70
8
 71
3
 72
8
 73
4
 74
0
 40
0
 40
0
 40
0
 40
0
 40
1
 40
1
 40
1
 40
1
 10
393.535243
 20
348.449209
 30
0.0
 10
393.415582
 20
348.447261
 30
0.0
 10
393.313174
 20
348.447754
 30
0.0
 10
393.228019
 20
348.450688
 30
0.0
  0
LINE
  5
1e8
100
AcDbEntity
  8
Layer_1
 62
7
100
AcDbLine
 10
393.228019
 20
348.450688
 30
0.0
 11
391.219821
 21
348.513737
 31
0.0
  0
LINE
  5
1e9
100
AcDbEntity
  8
Layer_1
 62
7
100
AcDbLine
 10
391.219821
 20
348.513737
 30
0.0
 11
391.138211
 21
348.846990
 31
0.0
  0
LINE
  5
1ea
100
AcDbEntity
  8
Layer_1
 62
7
100
AcDbLine
 10
391.843151
 20
345.968371
 30
0.0
 11
394.310581
 21
346.572616
 31
0.0
  0
LINE
  5
1eb
100
AcDbEntity
  8
Layer_1
 62
7
100
AcDbLine
 10
394.310581
 20
346.572616
 30
0.0
 11
394.390542
 21
346.246095
 31
0.0
  0
LINE
  5
1ec
100
AcDbEntity
  8
Layer_1
 62
7
100
AcDbLine
 10
394.390542
 20
346.246095
 30
0.0
 11
391.923112
 21
345.641850
 31
0.0
  0
LINE
  5
1ed
100
AcDbEntity
  8
Layer_1
 62
7
100
AcDbLine
 10
391.923112
 20
345.641850
 30
0.0
 11
391.843151
 21
345.968371
 31
0.0
  0
LINE
  5
1ee
100
AcDbEntity
  8
Layer_1
 62
7
100
AcDbLine
 10
392.063392
 20
345.069017
 30
0.0
 11
394.530822
 21
345.673262
 31
0.0
  0
LINE
  5
1ef
100
AcDbEntity
  8
Layer_1
 62
7
100
AcDbLine
 10
394.530822
 20
345.673262
 30
0.0
 11
394.612844
 21
345.338325
 31
0.0
  0
LINE
  5
1f0
100
AcDbEntity
  8
Layer_1
 62
7
100
AcDbLine
 10
394.612844
 20
345.338325
 30
0.0
 11
392.992965
 21
343.567931
 31
0.0
  0
LINE
  5
1f1
100
AcDbEntity
  8
Layer_1
 62
7
100
AcDbLine
 10
392.992965
 20
343.567931
 30
0.0
 11
394.930215
 21
344.042341
 31
0.0
  0
LINE
  5
1f2
100
AcDbEntity
  8
Layer_1
 62
7
100
AcDbLine
 10
394.930215
 20
344.042341
 30
0.0
 11
395.006879
 21
343.729285
 31
0.0
  0
LINE
  5
1f3
100
AcDbEntity
  8
Layer_1
 62
7
100
AcDbLine
 10
395.006879
 20
343.729285
 30
0.0
 11
392.539449
 21
343.125040
 31
0.0
  0
LINE
  5
1f4
100
AcDbEntity
  8
Layer_1
 62
7
100
AcDbLine
 10
392.539449
 20
343.125040
 30
0.0
 11
392.457427
 21
343.459977
 31
0.0
  0
LINE
  5
1f5
100
AcDbEntity
  8
Layer_1
 62
7
100
AcDbLine
 10
392.457427
 20
343.459977
 30
0.0
 11
394.078978
 21
345.230780
 31
0.0
  0
LINE
  5
1f6
100
AcDbEntity
  8
Layer_1
 62
7
100
AcDbLine
 10
394.078978
 20
345.230780
 30
0.0
 11
392.140056
 21
344.755961
 31
0.0
  0
LINE
  5
1f7
100
AcDbEntity
  8
Layer_1
 62
7
100
AcDbLine
 10
392.140056
 20
344.755961
 30
0.0
 11
392.063392
 21
345.069017
 31
0.0
  0
LINE
  5
1f8
100
AcDbEntity
  8
Layer_1
 62
7
100
AcDbLine
 10
393.924214
 20
341.659322
 30
0.0
 11
394.213687
 21
341.730210
 31
0.0
  0
LINE
  5
1f9
100
AcDbEntity
  8
Layer_1
 62
7
100
AcDbLine
 10
394.213687
 20
341.730210
 30
0.0
 11
394.472386
 21
340.685678
 31
0.0
  0
LINE
  5
1fa
100
AcDbEntity
  8
Layer_1
 62
7
100
AcDbLine
 10
394.472386
 20
340.685678
 30
0.0
 11
393.556763
 21
340.461452
 31
0.0
  0
SPLINE
  5
1fb
100
AcDbEntity
  8
Layer_1
 62
7
100
AcDbSpline
 70
8
 71
3
 72
8
 73
4
 74
0
 40
0
 40
0
 40
0
 40
0
 40
1
 40
1
 40
1
 40
1
 10
393.556763
 20
340.461452
 30
0.0
 10
393.389564
 20
340.590585
 30
0.0
 10
393.252543
 20
340.732459
 30
0.0
 10
393.145700
 20
340.887076
 30
0.0
  0
SPLINE
  5
1fc
100
AcDbEntity
  8
Layer_1
 62
7
100
AcDbSpline
 70
8
 71
3
 72
8
 73
4
 74
0
 40
0
 40
0
 40
0
 40
0
 40
1
 40
1
 40
1
 40
1
 10
393.145700
 20
340.887076
 30
0.0
 10
393.039971
 20
341.041968
 30
0.0
 10
392.965124
 20
341.209179
 30
0.0
 10
392.921159
 20
341.388709
 30
0.0
  0
SPLINE
  5
1fd
100
AcDbEntity
  8
Layer_1
 62
7
100
AcDbSpline
 70
8
 71
3
 72
8
 73
4
 74
0
 40
0
 40
0
 40
0
 40
0
 40
1
 40
1
 40
1
 40
1
 10
392.921159
 20
341.388709
 30
0.0
 10
392.861807
 20
341.631075
 30
0.0
 10
392.859430
 20
341.864201
 30
0.0
 10
392.914028
 20
342.088087
 30
0.0
  0
SPLINE
  5
1fe
100
AcDbEntity
  8
Layer_1
 62
7
100
AcDbSpline
 70
8
 71
3
 72
8
 73
4
 74
0
 40
0
 40
0
 40
0
 40
0
 40
1
 40
1
 40
1
 40
1
 10
392.914028
 20
342.088087
 30
0.0
 10
392.970016
 20
342.311124
 30
0.0
 10
393.083826
 20
342.497180
 30
0.0
 10
393.255459
 20
342.646253
 30
0.0
  0
SPLINE
  5
1ff
100
AcDbEntity
  8
Layer_1
 62
7
100
AcDbSpline
 70
8
 71
3
 72
8
 73
4
 74
0
 40
0
 40
0
 40
0
 40
0
 40
1
 40
1
 40
1
 40
1
 10
393.255459
 20
342.646253
 30
0.0
 10
393.427092
 20
342.795325
 30
0.0
 10
393.634088
 20
342.899537
 30
0.0
 10
393.876449
 20
342.958888
 30
0.0
  0
SPLINE
  5
200
100
AcDbEntity
  8
Layer_1
 62
7
100
AcDbSpline
 70
8
 71
3
 72
8
 73
4
 74
0
 40
0
 40
0
 40
0
 40
0
 40
1
 40
1
 40
1
 40
1
 10
393.876449
 20
342.958888
 30
0.0
 10
394.116562
 20
343.017689
 30
0.0
 10
394.352638
 20
343.022575
 30
0.0
 10
394.584677
 20
342.973547
 30
0.0
  0
SPLINE
  5
201
100
AcDbEntity
  8
Layer_1
 62
7
100
AcDbSpline
 70
8
 71
3
 72
8
 73
4
 74
0
 40
0
 40
0
 40
0
 40
0
 40
1
 40
1
 40
1
 40
1
 10
394.584677
 20
342.973547
 30
0.0
 10
394.818124
 20
342.923673
 30
0.0
 10
395.008422
 20
342.816848
 30
0.0
 10
395.155572
 20
342.653071
 30
0.0
  0
SPLINE
  5
202
100
AcDbEntity
  8
Layer_1
 62
7
100
AcDbSpline
 70
8
 71
3
 72
8
 73
4
 74
0
 40
0
 40
0
 40
0
 40
0
 40
1
 40
1
 40
1
 40
1
 10
395.155572
 20
342.653071
 30
0.0
 10
395.302722
 20
342.489295
 30
0.0
 10
395.406385
 20
342.284541
 30
0.0
 10
395.466562
 20
342.038809
 30
0.0
  0
SPLINE
  5
203
100
AcDbEntity
  8
Layer_1
 62
7
100
AcDbSpline
 70
8
 71
3
 72
8
 73
4
 74
0
 40
0
 40
0
 40
0
 40
0
 40
1
 40
1
 40
1
 40
1
 10
395.466562
 20
342.038809
 30
0.0
 10
395.510252
 20
341.860401
 30
0.0
 10
395.520507
 20
341.692239
 30
0.0
 10
395.497328
 20
341.534324
 30
0.0
  0
SPLINE
  5
204
100
AcDbEntity
  8
Layer_1
 62
7
100
AcDbSpline
 70
8
 71
3
 72
8
 73
4
 74
0
 40
0
 40
0
 40
0
 40
0
 40
1
 40
1
 40
1
 40
1
 10
395.497328
 20
341.534324
 30
0.0
 10
395.475538
 20
341.375562
 30
0.0
 10
395.423064
 20
341.242587
 30
0.0
 10
395.339907
 20
341.135399
 30
0.0
  0
SPLINE
  5
205
100
AcDbEntity
  8
Layer_1
 62
7
100
AcDbSpline
 70
8
 71
3
 72
8
 73
4
 74
0
 40
0
 40
0
 40
0
 40
0
 40
1
 40
1
 40
1
 40
1
 10
395.339907
 20
341.135399
 30
0.0
 10
395.256732
 20
341.028207
 30
0.0
 10
395.137333
 20
340.932958
 30
0.0
 10
394.981711
 20
340.849654
 30
0.0
  0
LINE
  5
206
100
AcDbEntity
  8
Layer_1
 62
7
100
AcDbLine
 10
394.981711
 20
340.849654
 30
0.0
 11
394.828798
 21
341.124413
 31
0.0
  0
SPLINE
  5
207
100
AcDbEntity
  8
Layer_1
 62
7
100
AcDbSpline
 70
8
 71
3
 72
8
 73
4
 74
0
 40
0
 40
0
 40
0
 40
0
 40
1
 40
1
 40
1
 40
1
 10
394.828798
 20
341.124413
 30
0.0
 10
394.945387
 20
341.192214
 30
0.0
 10
395.032860
 20
341.262398
 30
0.0
 10
395.091217
 20
341.334965
 30
0.0
  0
SPLINE
  5
208
100
AcDbEntity
  8
Layer_1
 62
7
100
AcDbSpline
 70
8
 71
3
 72
8
 73
4
 74
0
 40
0
 40
0
 40
0
 40
0
 40
1
 40
1
 40
1
 40
1
 10
395.091217
 20
341.334965
 30
0.0
 10
395.149554
 20
341.407530
 30
0.0
 10
395.187547
 20
341.500090
 30
0.0
 10
395.205195
 20
341.612644
 30
0.0
  0
SPLINE
  5
209
100
AcDbEntity
  8
Layer_1
 62
7
100
AcDbSpline
 70
8
 71
3
 72
8
 73
4
 74
0
 40
0
 40
0
 40
0
 40
0
 40
1
 40
1
 40
1
 40
1
 10
395.205195
 20
341.612644
 30
0.0
 10
395.223940
 20
341.725465
 30
0.0
 10
395.218062
 20
341.844150
 30
0.0
 10
395.187561
 20
341.968701
 30
0.0
  0
SPLINE
  5
20a
100
AcDbEntity
  8
Layer_1
 62
7
100
AcDbSpline
 70
8
 71
3
 72
8
 73
4
 74
0
 40
0
 40
0
 40
0
 40
0
 40
1
 40
1
 40
1
 40
1
 10
395.187561
 20
341.968701
 30
0.0
 10
395.151016
 20
342.117935
 30
0.0
 10
395.096417
 20
342.241340
 30
0.0
 10
395.023765
 20
342.338917
 30
0.0
  0
SPLINE
  5
20b
100
AcDbEntity
  8
Layer_1
 62
7
100
AcDbSpline
 70
8
 71
3
 72
8
 73
4
 74
0
 40
0
 40
0
 40
0
 40
0
 40
1
 40
1
 40
1
 40
1
 10
395.023765
 20
342.338917
 30
0.0
 10
394.952229
 20
342.436765
 30
0.0
 10
394.871183
 20
342.510282
 30
0.0
 10
394.780628
 20
342.559468
 30
0.0
  0
SPLINE
  5
20c
100
AcDbEntity
  8
Layer_1
 62
7
100
AcDbSpline
 70
8
 71
3
 72
8
 73
4
 74
0
 40
0
 40
0
 40
0
 40
0
 40
1
 40
1
 40
1
 40
1
 10
394.780628
 20
342.559468
 30
0.0
 10
394.690367
 20
342.607537
 30
0.0
 10
394.596386
 20
342.639232
 30
0.0
 10
394.498685
 20
342.654553
 30
0.0
  0
SPLINE
  5
20d
100
AcDbEntity
  8
Layer_1
 62
7
100
AcDbSpline
 70
8
 71
3
 72
8
 73
4
 74
0
 40
0
 40
0
 40
0
 40
0
 40
1
 40
1
 40
1
 40
1
 10
394.498685
 20
342.654553
 30
0.0
 10
394.330685
 20
342.680016
 30
0.0
 10
394.157485
 20
342.670904
 30
0.0
 10
393.979086
 20
342.627216
 30
0.0
  0
SPLINE
  5
20e
100
AcDbEntity
  8
Layer_1
 62
7
100
AcDbSpline
 70
8
 71
3
 72
8
 73
4
 74
0
 40
0
 40
0
 40
0
 40
0
 40
1
 40
1
 40
1
 40
1
 10
393.979086
 20
342.627216
 30
0.0
 10
393.759149
 20
342.573356
 30
0.0
 10
393.584335
 20
342.490702
 30
0.0
 10
393.454647
 20
342.379256
 30
0.0
  0
SPLINE
  5
20f
100
AcDbEntity
  8
Layer_1
 62
7
100
AcDbSpline
 70
8
 71
3
 72
8
 73
4
 74
0
 40
0
 40
0
 40
0
 40
0
 40
1
 40
1
 40
1
 40
1
 10
393.454647
 20
342.379256
 30
0.0
 10
393.325214
 20
342.266684
 30
0.0
 10
393.242311
 20
342.129231
 30
0.0
 10
393.205938
 20
341.966895
 30
0.0
  0
SPLINE
  5
210
100
AcDbEntity
  8
Layer_1
 62
7
100
AcDbSpline
 70
8
 71
3
 72
8
 73
4
 74
0
 40
0
 40
0
 40
0
 40
0
 40
1
 40
1
 40
1
 40
1
 10
393.205938
 20
341.966895
 30
0.0
 10
393.169583
 20
341.804566
 30
0.0
 10
393.171327
 20
341.642052
 30
0.0
 10
393.211170
 20
341.479353
 30
0.0
  0
SPLINE
  5
211
100
AcDbEntity
  8
Layer_1
 62
7
100
AcDbSpline
 70
8
 71
3
 72
8
 73
4
 74
0
 40
0
 40
0
 40
0
 40
0
 40
1
 40
1
 40
1
 40
1
 10
393.211170
 20
341.479353
 30
0.0
 10
393.245793
 20
341.337972
 30
0.0
 10
393.306519
 20
341.206552
 30
0.0
 10
393.393348
 20
341.085094
 30
0.0
  0
SPLINE
  5
212
100
AcDbEntity
  8
Layer_1
 62
7
100
AcDbSpline
 70
8
 71
3
 72
8
 73
4
 74
0
 40
0
 40
0
 40
0
 40
0
 40
1
 40
1
 40
1
 40
1
 10
393.393348
 20
341.085094
 30
0.0
 10
393.481310
 20
340.963913
 30
0.0
 10
393.564667
 20
340.876095
 30
0.0
 10
393.643417
 20
340.821639
 30
0.0
  0
LINE
  5
213
100
AcDbEntity
  8
Layer_1
 62
7
100
AcDbLine
 10
393.643417
 20
340.821639
 30
0.0
 11
394.102901
 21
340.934161
 31
0.0
  0
LINE
  5
214
100
AcDbEntity
  8
Layer_1
 62
7
100
AcDbLine
 10
394.102901
 20
340.934161
 30
0.0
 11
393.924214
 21
341.659322
 31
0.0
  0
LINE
  5
215
100
AcDbEntity
  8
Layer_1
 62
7
100
AcDbLine
 10
394.330603
 20
339.242131
 30
0.0
 11
394.432894
 21
338.940704
 31
0.0
  0
SPLINE
  5
216
100
AcDbEntity
  8
Layer_1
 62
7
100
AcDbSpline
 70
8
 71
3
 72
8
 73
4
 74
0
 40
0
 40
0
 40
0
 40
0
 40
1
 40
1
 40
1
 40
1
 10
394.432894
 20
338.940704
 30
0.0
 10
394.313037
 20
338.895894
 30
0.0
 10
394.219737
 20
338.837365
 30
0.0
 10
394.152992
 20
338.765116
 30
0.0
  0
SPLINE
  5
217
100
AcDbEntity
  8
Layer_1
 62
7
100
AcDbSpline
 70
8
 71
3
 72
8
 73
4
 74
0
 40
0
 40
0
 40
0
 40
0
 40
1
 40
1
 40
1
 40
1
 10
394.152992
 20
338.765116
 30
0.0
 10
394.087636
 20
338.692024
 30
0.0
 10
394.044017
 20
338.593330
 30
0.0
 10
394.022135
 20
338.469035
 30
0.0
  0
SPLINE
  5
218
100
AcDbEntity
  8
Layer_1
 62
7
100
AcDbSpline
 70
8
 71
3
 72
8
 73
4
 74
0
 40
0
 40
0
 40
0
 40
0
 40
1
 40
1
 40
1
 40
1
 10
394.022135
 20
338.469035
 30
0.0
 10
394.001349
 20
338.345010
 30
0.0
 10
394.008130
 20
338.212868
 30
0.0
 10
394.042478
 20
338.072608
 30
0.0
  0
SPLINE
  5
219
100
AcDbEntity
  8
Layer_1
 62
7
100
AcDbSpline
 70
8
 71
3
 72
8
 73
4
 74
0
 40
0
 40
0
 40
0
 40
0
 40
1
 40
1
 40
1
 40
1
 10
394.042478
 20
338.072608
 30
0.0
 10
394.072978
 20
337.948060
 30
0.0
 10
394.118428
 20
337.842633
 30
0.0
 10
394.178828
 20
337.756329
 30
0.0
  0
SPLINE
  5
21a
100
AcDbEntity
  8
Layer_1
 62
7
100
AcDbSpline
 70
8
 71
3
 72
8
 73
4
 74
0
 40
0
 40
0
 40
0
 40
0
 40
1
 40
1
 40
1
 40
1
 10
394.178828
 20
337.756329
 30
0.0
 10
394.239209
 20
337.670021
 30
0.0
 10
394.307013
 20
337.611697
 30
0.0
 10
394.382241
 20
337.581355
 30
0.0
  0
SPLINE
  5
21b
100
AcDbEntity
  8
Layer_1
 62
7
100
AcDbSpline
 70
8
 71
3
 72
8
 73
4
 74
0
 40
0
 40
0
 40
0
 40
0
 40
1
 40
1
 40
1
 40
1
 10
394.382241
 20
337.581355
 30
0.0
 10
394.458859
 20
337.550164
 30
0.0
 10
394.535316
 20
337.543911
 30
0.0
 10
394.611614
 20
337.562596
 30
0.0
  0
SPLINE
  5
21c
100
AcDbEntity
  8
Layer_1
 62
7
100
AcDbSpline
 70
8
 71
3
 72
8
 73
4
 74
0
 40
0
 40
0
 40
0
 40
0
 40
1
 40
1
 40
1
 40
1
 10
394.611614
 20
337.562596
 30
0.0
 10
394.689026
 20
337.581553
 30
0.0
 10
394.750855
 20
337.620481
 30
0.0
 10
394.797100
 20
337.679381
 30
0.0
  0
SPLINE
  5
21d
100
AcDbEntity
  8
Layer_1
 62
7
100
AcDbSpline
 70
8
 71
3
 72
8
 73
4
 74
0
 40
0
 40
0
 40
0
 40
0
 40
1
 40
1
 40
1
 40
1
 10
394.797100
 20
337.679381
 30
0.0
 10
394.844460
 20
337.738553
 30
0.0
 10
394.875137
 20
337.824563
 30
0.0
 10
394.889130
 20
337.937409
 30
0.0
  0
SPLINE
  5
21e
100
AcDbEntity
  8
Layer_1
 62
7
100
AcDbSpline
 70
8
 71
3
 72
8
 73
4
 74
0
 40
0
 40
0
 40
0
 40
0
 40
1
 40
1
 40
1
 40
1
 10
394.889130
 20
337.937409
 30
0.0
 10
394.898722
 20
338.009931
 30
0.0
 10
394.902693
 20
338.166114
 30
0.0
 10
394.901043
 20
338.405960
 30
0.0
  0
SPLINE
  5
21f
100
AcDbEntity
  8
Layer_1
 62
7
100
AcDbSpline
 70
8
 71
3
 72
8
 73
4
 74
0
 40
0
 40
0
 40
0
 40
0
 40
1
 40
1
 40
1
 40
1
 10
394.901043
 20
338.405960
 30
0.0
 10
394.900526
 20
338.646083
 30
0.0
 10
394.913262
 20
338.817496
 30
0.0
 10
394.939250
 20
338.920199
 30
0.0
  0
SPLINE
  5
220
100
AcDbEntity
  8
Layer_1
 62
7
100
AcDbSpline
 70
8
 71
3
 72
8
 73
4
 74
0
 40
0
 40
0
 40
0
 40
0
 40
1
 40
1
 40
1
 40
1
 10
394.939250
 20
338.920199
 30
0.0
 10
394.972112
 20
339.053128
 30
0.0
 10
395.026839
 20
339.159894
 30
0.0
 10
395.103431
 20
339.240498
 30
0.0
  0
SPLINE
  5
221
100
AcDbEntity
  8
Layer_1
 62
7
100
AcDbSpline
 70
8
 71
3
 72
8
 73
4
 74
0
 40
0
 40
0
 40
0
 40
0
 40
1
 40
1
 40
1
 40
1
 10
395.103431
 20
339.240498
 30
0.0
 10
395.181431
 20
339.320257
 30
0.0
 10
395.277092
 20
339.374012
 30
0.0
 10
395.390414
 20
339.401763
 30
0.0
  0
SPLINE
  5
222
100
AcDbEntity
  8
Layer_1
 62
7
100
AcDbSpline
 70
8
 71
3
 72
8
 73
4
 74
0
 40
0
 40
0
 40
0
 40
0
 40
1
 40
1
 40
1
 40
1
 10
395.390414
 20
339.401763
 30
0.0
 10
395.514957
 20
339.432262
 30
0.0
 10
395.639749
 20
339.425357
 30
0.0
 10
395.764791
 20
339.381049
 30
0.0
  0
SPLINE
  5
223
100
AcDbEntity
  8
Layer_1
 62
7
100
AcDbSpline
 70
8
 71
3
 72
8
 73
4
 74
0
 40
0
 40
0
 40
0
 40
0
 40
1
 40
1
 40
1
 40
1
 10
395.764791
 20
339.381049
 30
0.0
 10
395.890947
 20
339.337013
 30
0.0
 10
395.998701
 20
339.253980
 30
0.0
 10
396.088053
 20
339.131950
 30
0.0
  0
SPLINE
  5
224
100
AcDbEntity
  8
Layer_1
 62
7
100
AcDbSpline
 70
8
 71
3
 72
8
 73
4
 74
0
 40
0
 40
0
 40
0
 40
0
 40
1
 40
1
 40
1
 40
1
 10
396.088053
 20
339.131950
 30
0.0
 10
396.177405
 20
339.009918
 30
0.0
 10
396.242415
 20
338.865869
 30
0.0
 10
396.283083
 20
338.699804
 30
0.0
  0
SPLINE
  5
225
100
AcDbEntity
  8
Layer_1
 62
7
100
AcDbSpline
 70
8
 71
3
 72
8
 73
4
 74
0
 40
0
 40
0
 40
0
 40
0
 40
1
 40
1
 40
1
 40
1
 10
396.283083
 20
338.699804
 30
0.0
 10
396.327872
 20
338.516908
 30
0.0
 10
396.337561
 20
338.348608
 30
0.0
 10
396.312149
 20
338.194904
 30
0.0
  0
SPLINE
  5
226
100
AcDbEntity
  8
Layer_1
 62
7
100
AcDbSpline
 70
8
 71
3
 72
8
 73
4
 74
0
 40
0
 40
0
 40
0
 40
0
 40
1
 40
1
 40
1
 40
1
 10
396.312149
 20
338.194904
 30
0.0
 10
396.288163
 20
338.040361
 30
0.0
 10
396.228148
 20
337.911486
 30
0.0
 10
396.132103
 20
337.808278
 30
0.0
  0
SPLINE
  5
227
100
AcDbEntity
  8
Layer_1
 62
7
100
AcDbSpline
 70
8
 71
3
 72
8
 73
4
 74
0
 40
0
 40
0
 40
0
 40
0
 40
1
 40
1
 40
1
 40
1
 10
396.132103
 20
337.808278
 30
0.0
 10
396.036058
 20
337.705072
 30
0.0
 10
395.916354
 20
337.632942
 30
0.0
 10
395.772992
 20
337.591888
 30
0.0
  0
LINE
  5
228
100
AcDbEntity
  8
Layer_1
 62
7
100
AcDbLine
 10
395.772992
 20
337.591888
 30
0.0
 11
395.672753
 21
337.899170
 31
0.0
  0
SPLINE
  5
229
100
AcDbEntity
  8
Layer_1
 62
7
100
AcDbSpline
 70
8
 71
3
 72
8
 73
4
 74
0
 40
0
 40
0
 40
0
 40
0
 40
1
 40
1
 40
1
 40
1
 10
395.672753
 20
337.899170
 30
0.0
 10
395.824589
 20
337.954194
 30
0.0
 10
395.928393
 20
338.040271
 30
0.0
 10
395.984166
 20
338.157401
 30
0.0
  0
SPLINE
  5
22a
100
AcDbEntity
  8
Layer_1
 62
7
100
AcDbSpline
 70
8
 71
3
 72
8
 73
4
 74
0
 40
0
 40
0
 40
0
 40
0
 40
1
 40
1
 40
1
 40
1
 10
395.984166
 20
338.157401
 30
0.0
 10
396.040194
 20
338.273408
 30
0.0
 10
396.044990
 20
338.426225
 30
0.0
 10
395.998552
 20
338.615854
 30
0.0
  0
SPLINE
  5
22b
100
AcDbEntity
  8
Layer_1
 62
7
100
AcDbSpline
 70
8
 71
3
 72
8
 73
4
 74
0
 40
0
 40
0
 40
0
 40
0
 40
1
 40
1
 40
1
 40
1
 10
395.998552
 20
338.615854
 30
0.0
 10
395.950190
 20
338.813337
 30
0.0
 10
395.878414
 20
338.948592
 30
0.0
 10
395.783221
 20
339.021619
 30
0.0
  0
SPLINE
  5
22c
100
AcDbEntity
  8
Layer_1
 62
7
100
AcDbSpline
 70
8
 71
3
 72
8
 73
4
 74
0
 40
0
 40
0
 40
0
 40
0
 40
1
 40
1
 40
1
 40
1
 10
395.783221
 20
339.021619
 30
0.0
 10
395.689437
 20
339.093800
 30
0.0
 10
395.591486
 20
339.117386
 30
0.0
 10
395.489366
 20
339.092378
 30
0.0
  0
SPLINE
  5
22d
100
AcDbEntity
  8
Layer_1
 62
7
100
AcDbSpline
 70
8
 71
3
 72
8
 73
4
 74
0
 40
0
 40
0
 40
0
 40
0
 40
1
 40
1
 40
1
 40
1
 10
395.489366
 20
339.092378
 30
0.0
 10
395.400733
 20
339.070673
 30
0.0
 10
395.335629
 20
339.020834
 30
0.0
 10
395.294055
 20
338.942861
 30
0.0
  0
SPLINE
  5
22e
100
AcDbEntity
  8
Layer_1
 62
7
100
AcDbSpline
 70
8
 71
3
 72
8
 73
4
 74
0
 40
0
 40
0
 40
0
 40
0
 40
1
 40
1
 40
1
 40
1
 10
395.294055
 20
338.942861
 30
0.0
 10
395.252224
 20
338.866013
 30
0.0
 10
395.233433
 20
338.687765
 30
0.0
 10
395.237682
 20
338.408117
 30
0.0
  0
SPLINE
  5
22f
100
AcDbEntity
  8
Layer_1
 62
7
100
AcDbSpline
 70
8
 71
3
 72
8
 73
4
 74
0
 40
0
 40
0
 40
0
 40
0
 40
1
 40
1
 40
1
 40
1
 10
395.237682
 20
338.408117
 30
0.0
 10
395.243339
 20
338.127625
 30
0.0
 10
395.235816
 20
337.932513
 30
0.0
 10
395.215114
 20
337.822781
 30
0.0
  0
SPLINE
  5
230
100
AcDbEntity
  8
Layer_1
 62
7
100
AcDbSpline
 70
8
 71
3
 72
8
 73
4
 74
0
 40
0
 40
0
 40
0
 40
0
 40
1
 40
1
 40
1
 40
1
 10
395.215114
 20
337.822781
 30
0.0
 10
395.184094
 20
337.662946
 30
0.0
 10
395.125906
 20
337.536302
 30
0.0
 10
395.040547
 20
337.442849
 30
0.0
  0
SPLINE
  5
231
100
AcDbEntity
  8
Layer_1
 62
7
100
AcDbSpline
 70
8
 71
3
 72
8
 73
4
 74
0
 40
0
 40
0
 40
0
 40
0
 40
1
 40
1
 40
1
 40
1
 10
395.040547
 20
337.442849
 30
0.0
 10
394.956322
 20
337.349672
 30
0.0
 10
394.848009
 20
337.286872
 30
0.0
 10
394.715608
 20
337.254449
 30
0.0
  0
SPLINE
  5
232
100
AcDbEntity
  8
Layer_1
 62
7
100
AcDbSpline
 70
8
 71
3
 72
8
 73
4
 74
0
 40
0
 40
0
 40
0
 40
0
 40
1
 40
1
 40
1
 40
1
 10
394.715608
 20
337.254449
 30
0.0
 10
394.584340
 20
337.222303
 30
0.0
 10
394.451150
 20
337.229530
 30
0.0
 10
394.316036
 20
337.276129
 30
0.0
  0
SPLINE
  5
233
100
AcDbEntity
  8
Layer_1
 62
7
100
AcDbSpline
 70
8
 71
3
 72
8
 73
4
 74
0
 40
0
 40
0
 40
0
 40
0
 40
1
 40
1
 40
1
 40
1
 10
394.316036
 20
337.276129
 30
0.0
 10
394.182056
 20
337.323005
 30
0.0
 10
394.065217
 20
337.409165
 30
0.0
 10
393.965517
 20
337.534610
 30
0.0
  0
SPLINE
  5
234
100
AcDbEntity
  8
Layer_1
 62
7
100
AcDbSpline
 70
8
 71
3
 72
8
 73
4
 74
0
 40
0
 40
0
 40
0
 40
0
 40
1
 40
1
 40
1
 40
1
 10
393.965517
 20
337.534610
 30
0.0
 10
393.867208
 20
337.659204
 30
0.0
 10
393.796483
 20
337.809582
 30
0.0
 10
393.753343
 20
337.985746
 30
0.0
  0
SPLINE
  5
235
100
AcDbEntity
  8
Layer_1
 62
7
100
AcDbSpline
 70
8
 71
3
 72
8
 73
4
 74
0
 40
0
 40
0
 40
0
 40
0
 40
1
 40
1
 40
1
 40
1
 10
393.753343
 20
337.985746
 30
0.0
 10
393.698661
 20
338.209037
 30
0.0
 10
393.685311
 20
338.404391
 30
0.0
 10
393.713292
 20
338.571807
 30
0.0
  0
SPLINE
  5
236
100
AcDbEntity
  8
Layer_1
 62
7
100
AcDbSpline
 70
8
 71
3
 72
8
 73
4
 74
0
 40
0
 40
0
 40
0
 40
0
 40
1
 40
1
 40
1
 40
1
 10
393.713292
 20
338.571807
 30
0.0
 10
393.741548
 20
338.738100
 30
0.0
 10
393.810183
 20
338.880385
 30
0.0
 10
393.919196
 20
338.998662
 30
0.0
  0
SPLINE
  5
237
100
AcDbEntity
  8
Layer_1
 62
7
100
AcDbSpline
 70
8
 71
3
 72
8
 73
4
 74
0
 40
0
 40
0
 40
0
 40
0
 40
1
 40
1
 40
1
 40
1
 10
393.919196
 20
338.998662
 30
0.0
 10
394.029581
 20
339.116084
 30
0.0
 10
394.166699
 20
339.197236
 30
0.0
 10
394.330548
 20
339.242118
 30
0.0
  0
LINE
  5
238
100
AcDbEntity
  8
Layer_1
 62
7
100
AcDbLine
 10
394.330548
 20
339.242118
 30
0.0
 11
394.330603
 21
339.242131
 31
0.0
  0
LINE
  5
239
100
AcDbEntity
  8
Layer_1
 62
7
100
AcDbLine
 10
394.128103
 20
336.637780
 30
0.0
 11
396.595533
 21
337.242024
 31
0.0
  0
LINE
  5
23a
100
AcDbEntity
  8
Layer_1
 62
7
100
AcDbLine
 10
396.595533
 20
337.242024
 30
0.0
 11
396.823464
 21
336.311269
 31
0.0
  0
SPLINE
  5
23b
100
AcDbEntity
  8
Layer_1
 62
7
100
AcDbSpline
 70
8
 71
3
 72
8
 73
4
 74
0
 40
0
 40
0
 40
0
 40
0
 40
1
 40
1
 40
1
 40
1
 10
396.823464
 20
336.311269
 30
0.0
 10
396.863582
 20
336.147448
 30
0.0
 10
396.886361
 20
336.020415
 30
0.0
 10
396.891803
 20
335.930168
 30
0.0
  0
SPLINE
  5
23c
100
AcDbEntity
  8
Layer_1
 62
7
100
AcDbSpline
 70
8
 71
3
 72
8
 73
4
 74
0
 40
0
 40
0
 40
0
 40
0
 40
1
 40
1
 40
1
 40
1
 10
396.891803
 20
335.930168
 30
0.0
 10
396.901286
 20
335.804039
 30
0.0
 10
396.887438
 20
335.693010
 30
0.0
 10
396.850261
 20
335.597082
 30
0.0
  0
SPLINE
  5
23d
100
AcDbEntity
  8
Layer_1
 62
7
100
AcDbSpline
 70
8
 71
3
 72
8
 73
4
 74
0
 40
0
 40
0
 40
0
 40
0
 40
1
 40
1
 40
1
 40
1
 10
396.850261
 20
335.597082
 30
0.0
 10
396.814216
 20
335.501434
 30
0.0
 10
396.751188
 20
335.416422
 30
0.0
 10
396.661177
 20
335.342047
 30
0.0
  0
SPLINE
  5
23e
100
AcDbEntity
  8
Layer_1
 62
7
100
AcDbSpline
 70
8
 71
3
 72
8
 73
4
 74
0
 40
0
 40
0
 40
0
 40
0
 40
1
 40
1
 40
1
 40
1
 10
396.661177
 20
335.342047
 30
0.0
 10
396.571440
 20
335.266550
 30
0.0
 10
396.465416
 20
335.213825
 30
0.0
 10
396.343102
 20
335.183872
 30
0.0
  0
SPLINE
  5
23f
100
AcDbEntity
  8
Layer_1
 62
7
100
AcDbSpline
 70
8
 71
3
 72
8
 73
4
 74
0
 40
0
 40
0
 40
0
 40
0
 40
1
 40
1
 40
1
 40
1
 10
396.343102
 20
335.183872
 30
0.0
 10
396.133271
 20
335.132487
 30
0.0
 10
395.939080
 20
335.155699
 30
0.0
 10
395.760529
 20
335.253509
 30
0.0
  0
SPLINE
  5
240
100
AcDbEntity
  8
Layer_1
 62
7
100
AcDbSpline
 70
8
 71
3
 72
8
 73
4
 74
0
 40
0
 40
0
 40
0
 40
0
 40
1
 40
1
 40
1
 40
1
 10
395.760529
 20
335.253509
 30
0.0
 10
395.583076
 20
335.351585
 30
0.0
 10
395.451621
 20
335.575105
 30
0.0
 10
395.366164
 20
335.924068
 30
0.0
  0
LINE
  5
241
100
AcDbEntity
  8
Layer_1
 62
7
100
AcDbLine
 10
395.366164
 20
335.924068
 30
0.0
 11
395.211187
 21
336.556912
 31
0.0
  0
LINE
  5
242
100
AcDbEntity
  8
Layer_1
 62
7
100
AcDbLine
 10
395.211187
 20
336.556912
 30
0.0
 11
394.208064
 21
336.311259
 31
0.0
  0
LINE
  5
243
100
AcDbEntity
  8
Layer_1
 62
7
100
AcDbLine
 10
394.208064
 20
336.311259
 30
0.0
 11
394.128103
 21
336.637780
 31
0.0
  0
LINE
  5
244
100
AcDbEntity
  8
Layer_1
 62
7
100
AcDbLine
 10
395.502360
 20
336.628217
 30
0.0
 11
395.658573
 21
335.990323
 31
0.0
  0
SPLINE
  5
245
100
AcDbEntity
  8
Layer_1
 62
7
100
AcDbSpline
 70
8
 71
3
 72
8
 73
4
 74
0
 40
0
 40
0
 40
0
 40
0
 40
1
 40
1
 40
1
 40
1
 10
395.658573
 20
335.990323
 30
0.0
 10
395.710232
 20
335.779375
 30
0.0
 10
395.786187
 20
335.639197
 30
0.0
 10
395.886440
 20
335.569788
 30
0.0
  0
SPLINE
  5
246
100
AcDbEntity
  8
Layer_1
 62
7
100
AcDbSpline
 70
8
 71
3
 72
8
 73
4
 74
0
 40
0
 40
0
 40
0
 40
0
 40
1
 40
1
 40
1
 40
1
 10
395.886440
 20
335.569788
 30
0.0
 10
395.986693
 20
335.500378
 30
0.0
 10
396.108073
 20
335.483123
 30
0.0
 10
396.250580
 20
335.518021
 30
0.0
  0
SPLINE
  5
247
100
AcDbEntity
  8
Layer_1
 62
7
100
AcDbSpline
 70
8
 71
3
 72
8
 73
4
 74
0
 40
0
 40
0
 40
0
 40
0
 40
1
 40
1
 40
1
 40
1
 10
396.250580
 20
335.518021
 30
0.0
 10
396.353815
 20
335.543302
 30
0.0
 10
396.435433
 20
335.591240
 30
0.0
 10
396.495435
 20
335.661834
 30
0.0
  0
SPLINE
  5
248
100
AcDbEntity
  8
Layer_1
 62
7
100
AcDbSpline
 70
8
 71
3
 72
8
 73
4
 74
0
 40
0
 40
0
 40
0
 40
0
 40
1
 40
1
 40
1
 40
1
 10
396.495435
 20
335.661834
 30
0.0
 10
396.556863
 20
335.731587
 30
0.0
 10
396.588913
 20
335.811986
 30
0.0
 10
396.591586
 20
335.903031
 30
0.0
  0
SPLINE
  5
249
100
AcDbEntity
  8
Layer_1
 62
7
100
AcDbSpline
 70
8
 71
3
 72
8
 73
4
 74
0
 40
0
 40
0
 40
0
 40
0
 40
1
 40
1
 40
1
 40
1
 10
396.591586
 20
335.903031
 30
0.0
 10
396.592742
 20
335.961593
 30
0.0
 10
396.575184
 20
336.064931
 30
0.0
 10
396.538913
 20
336.213044
 30
0.0
  0
LINE
  5
24a
100
AcDbEntity
  8
Layer_1
 62
7
100
AcDbLine
 10
396.538913
 20
336.213044
 30
0.0
 11
396.384349
 21
336.844205
 31
0.0
  0
LINE
  5
24b
100
AcDbEntity
  8
Layer_1
 62
7
100
AcDbLine
 10
396.384349
 20
336.844205
 30
0.0
 11
395.502360
 21
336.628217
 31
0.0
  0
LINE
  5
24c
100
AcDbEntity
  8
Layer_1
 62
7
100
AcDbLine
 10
394.624778
 20
334.609612
 30
0.0
 11
397.324259
 21
334.266273
 31
0.0
  0
LINE
  5
24d
100
AcDbEntity
  8
Layer_1
 62
7
100
AcDbLine
 10
397.324259
 20
334.266273
 30
0.0
 11
397.410403
 21
333.914506
 31
0.0
  0
LINE
  5
24e
100
AcDbEntity
  8
Layer_1
 62
7
100
AcDbLine
 10
397.410403
 20
333.914506
 30
0.0
 11
395.190276
 21
332.300403
 31
0.0
  0
LINE
  5
24f
100
AcDbEntity
  8
Layer_1
 62
7
100
AcDbLine
 10
395.190276
 20
332.300403
 30
0.0
 11
395.099186
 21
332.672368
 31
0.0
  0
LINE
  5
250
100
AcDbEntity
  8
Layer_1
 62
7
100
AcDbLine
 10
395.099186
 20
332.672368
 30
0.0
 11
395.775990
 21
333.143178
 31
0.0
  0
LINE
  5
251
100
AcDbEntity
  8
Layer_1
 62
7
100
AcDbLine
 10
395.775990
 20
333.143178
 30
0.0
 11
395.523329
 21
334.174917
 31
0.0
  0
LINE
  5
252
100
AcDbEntity
  8
Layer_1
 62
7
100
AcDbLine
 10
395.523329
 20
334.174917
 30
0.0
 11
394.709685
 21
334.262894
 31
0.0
  0
LINE
  5
253
100
AcDbEntity
  8
Layer_1
 62
7
100
AcDbLine
 10
394.709685
 20
334.262894
 30
0.0
 11
394.624778
 21
334.609612
 31
0.0
  0
LINE
  5
254
100
AcDbEntity
  8
Layer_1
 62
7
100
AcDbLine
 10
395.812337
 20
334.145785
 30
0.0
 11
396.017185
 21
333.309287
 31
0.0
  0
LINE
  5
255
100
AcDbEntity
  8
Layer_1
 62
7
100
AcDbLine
 10
396.017185
 20
333.309287
 30
0.0
 11
396.637483
 21
333.734147
 31
0.0
  0
SPLINE
  5
256
100
AcDbEntity
  8
Layer_1
 62
7
100
AcDbSpline
 70
8
 71
3
 72
8
 73
4
 74
0
 40
0
 40
0
 40
0
 40
0
 40
1
 40
1
 40
1
 40
1
 10
396.637483
 20
333.734147
 30
0.0
 10
396.825814
 20
333.863522
 30
0.0
 10
396.982075
 20
333.963635
 30
0.0
 10
397.106267
 20
334.034485
 30
0.0
  0
SPLINE
  5
257
100
AcDbEntity
  8
Layer_1
 62
7
100
AcDbSpline
 70
8
 71
3
 72
8
 73
4
 74
0
 40
0
 40
0
 40
0
 40
0
 40
1
 40
1
 40
1
 40
1
 10
397.106267
 20
334.034485
 30
0.0
 10
396.940368
 20
334.027160
 30
0.0
 10
396.772423
 20
334.033012
 30
0.0
 10
396.602434
 20
334.052042
 30
0.0
  0
LINE
  5
258
100
AcDbEntity
  8
Layer_1
 62
7
100
AcDbLine
 10
396.602434
 20
334.052042
 30
0.0
 11
395.812337
 21
334.145785
 31
0.0
  0
LINE
  5
259
100
AcDbEntity
  8
Layer_1
 62
7
100
AcDbLine
 10
396.550402
 20
330.490829
 30
0.0
 11
396.547907
 21
330.144116
 31
0.0
  0
SPLINE
  5
25a
100
AcDbEntity
  8
Layer_1
 62
7
100
AcDbSpline
 70
8
 71
3
 72
8
 73
4
 74
0
 40
0
 40
0
 40
0
 40
0
 40
1
 40
1
 40
1
 40
1
 10
396.547907
 20
330.144116
 30
0.0
 10
396.262963
 20
330.146887
 30
0.0
 10
396.027958
 20
330.220167
 30
0.0
 10
395.842894
 20
330.363954
 30
0.0
  0
SPLINE
  5
25b
100
AcDbEntity
  8
Layer_1
 62
7
100
AcDbSpline
 70
8
 71
3
 72
8
 73
4
 74
0
 40
0
 40
0
 40
0
 40
0
 40
1
 40
1
 40
1
 40
1
 10
395.842894
 20
330.363954
 30
0.0
 10
395.659220
 20
330.506892
 30
0.0
 10
395.535920
 20
330.706837
 30
0.0
 10
395.472995
 20
330.963791
 30
0.0
  0
SPLINE
  5
25c
100
AcDbEntity
  8
Layer_1
 62
7
100
AcDbSpline
 70
8
 71
3
 72
8
 73
4
 74
0
 40
0
 40
0
 40
0
 40
0
 40
1
 40
1
 40
1
 40
1
 10
395.472995
 20
330.963791
 30
0.0
 10
395.407872
 20
331.229720
 30
0.0
 10
395.408696
 20
331.459467
 30
0.0
 10
395.475465
 20
331.653032
 30
0.0
  0
SPLINE
  5
25d
100
AcDbEntity
  8
Layer_1
 62
7
100
AcDbSpline
 70
8
 71
3
 72
8
 73
4
 74
0
 40
0
 40
0
 40
0
 40
0
 40
1
 40
1
 40
1
 40
1
 10
395.475465
 20
331.653032
 30
0.0
 10
395.543642
 20
331.845754
 30
0.0
 10
395.669682
 20
332.011017
 30
0.0
 10
395.853586
 20
332.148821
 30
0.0
  0
SPLINE
  5
25e
100
AcDbEntity
  8
Layer_1
 62
7
100
AcDbSpline
 70
8
 71
3
 72
8
 73
4
 74
0
 40
0
 40
0
 40
0
 40
0
 40
1
 40
1
 40
1
 40
1
 10
395.853586
 20
332.148821
 30
0.0
 10
396.037763
 20
332.285505
 30
0.0
 10
396.247670
 20
332.382699
 30
0.0
 10
396.483305
 20
332.440404
 30
0.0
  0
SPLINE
  5
25f
100
AcDbEntity
  8
Layer_1
 62
7
100
AcDbSpline
 70
8
 71
3
 72
8
 73
4
 74
0
 40
0
 40
0
 40
0
 40
0
 40
1
 40
1
 40
1
 40
1
 10
396.483305
 20
332.440404
 30
0.0
 10
396.740268
 20
332.503331
 30
0.0
 10
396.976078
 20
332.509341
 30
0.0
 10
397.190737
 20
332.458433
 30
0.0
  0
SPLINE
  5
260
100
AcDbEntity
  8
Layer_1
 62
7
100
AcDbSpline
 70
8
 71
3
 72
8
 73
4
 74
0
 40
0
 40
0
 40
0
 40
0
 40
1
 40
1
 40
1
 40
1
 10
397.190737
 20
332.458433
 30
0.0
 10
397.406784
 20
332.406679
 30
0.0
 10
397.586298
 20
332.302565
 30
0.0
 10
397.729276
 20
332.146093
 30
0.0
  0
SPLINE
  5
261
100
AcDbEntity
  8
Layer_1
 62
7
100
AcDbSpline
 70
8
 71
3
 72
8
 73
4
 74
0
 40
0
 40
0
 40
0
 40
0
 40
1
 40
1
 40
1
 40
1
 10
397.729276
 20
332.146093
 30
0.0
 10
397.873663
 20
331.988775
 30
0.0
 10
397.972510
 20
331.801275
 30
0.0
 10
398.025817
 20
331.583594
 30
0.0
  0
SPLINE
  5
262
100
AcDbEntity
  8
Layer_1
 62
7
100
AcDbSpline
 70
8
 71
3
 72
8
 73
4
 74
0
 40
0
 40
0
 40
0
 40
0
 40
1
 40
1
 40
1
 40
1
 10
398.025817
 20
331.583594
 30
0.0
 10
398.086269
 20
331.336740
 30
0.0
 10
398.074265
 20
331.113770
 30
0.0
 10
397.989806
 20
330.914684
 30
0.0
  0
SPLINE
  5
263
100
AcDbEntity
  8
Layer_1
 62
7
100
AcDbSpline
 70
8
 71
3
 72
8
 73
4
 74
0
 40
0
 40
0
 40
0
 40
0
 40
1
 40
1
 40
1
 40
1
 10
397.989806
 20
330.914684
 30
0.0
 10
397.905347
 20
330.715598
 30
0.0
 10
397.757335
 20
330.555064
 30
0.0
 10
397.545770
 20
330.433082
 30
0.0
  0
LINE
  5
264
100
AcDbEntity
  8
Layer_1
 62
7
100
AcDbLine
 10
397.545770
 20
330.433082
 30
0.0
 11
397.391305
 21
330.736005
 31
0.0
  0
SPLINE
  5
265
100
AcDbEntity
  8
Layer_1
 62
7
100
AcDbSpline
 70
8
 71
3
 72
8
 73
4
 74
0
 40
0
 40
0
 40
0
 40
0
 40
1
 40
1
 40
1
 40
1
 10
397.391305
 20
330.736005
 30
0.0
 10
397.556823
 20
330.837196
 30
0.0
 10
397.667209
 20
330.952241
 30
0.0
 10
397.722464
 20
331.081138
 30
0.0
  0
SPLINE
  5
266
100
AcDbEntity
  8
Layer_1
 62
7
100
AcDbSpline
 70
8
 71
3
 72
8
 73
4
 74
0
 40
0
 40
0
 40
0
 40
0
 40
1
 40
1
 40
1
 40
1
 10
397.722464
 20
331.081138
 30
0.0
 10
397.777718
 20
331.210038
 30
0.0
 10
397.785148
 20
331.356959
 30
0.0
 10
397.744756
 20
331.521902
 30
0.0
  0
SPLINE
  5
267
100
AcDbEntity
  8
Layer_1
 62
7
100
AcDbSpline
 70
8
 71
3
 72
8
 73
4
 74
0
 40
0
 40
0
 40
0
 40
0
 40
1
 40
1
 40
1
 40
1
 10
397.744756
 20
331.521902
 30
0.0
 10
397.698318
 20
331.711531
 30
0.0
 10
397.613996
 20
331.859175
 30
0.0
 10
397.491790
 20
331.964836
 30
0.0
  0
SPLINE
  5
268
100
AcDbEntity
  8
Layer_1
 62
7
100
AcDbSpline
 70
8
 71
3
 72
8
 73
4
 74
0
 40
0
 40
0
 40
0
 40
0
 40
1
 40
1
 40
1
 40
1
 10
397.491790
 20
331.964836
 30
0.0
 10
397.369841
 20
332.069369
 30
0.0
 10
397.225692
 20
332.128622
 30
0.0
 10
397.059342
 20
332.142596
 30
0.0
  0
SPLINE
  5
269
100
AcDbEntity
  8
Layer_1
 62
7
100
AcDbSpline
 70
8
 71
3
 72
8
 73
4
 74
0
 40
0
 40
0
 40
0
 40
0
 40
1
 40
1
 40
1
 40
1
 10
397.059342
 20
332.142596
 30
0.0
 10
396.894089
 20
332.156838
 30
0.0
 10
396.730112
 20
332.144037
 30
0.0
 10
396.567412
 20
332.104194
 30
0.0
  0
SPLINE
  5
26a
100
AcDbEntity
  8
Layer_1
 62
7
100
AcDbSpline
 70
8
 71
3
 72
8
 73
4
 74
0
 40
0
 40
0
 40
0
 40
0
 40
1
 40
1
 40
1
 40
1
 10
396.567412
 20
332.104194
 30
0.0
 10
396.357598
 20
332.052813
 30
0.0
 10
396.181566
 20
331.977592
 30
0.0
 10
396.039314
 20
331.878530
 30
0.0
  0
SPLINE
  5
26b
100
AcDbEntity
  8
Layer_1
 62
7
100
AcDbSpline
 70
8
 71
3
 72
8
 73
4
 74
0
 40
0
 40
0
 40
0
 40
0
 40
1
 40
1
 40
1
 40
1
 10
396.039314
 20
331.878530
 30
0.0
 10
395.898451
 20
331.778619
 30
0.0
 10
395.805114
 20
331.654667
 30
0.0
 10
395.759301
 20
331.506673
 30
0.0
  0
SPLINE
  5
26c
100
AcDbEntity
  8
Layer_1
 62
7
100
AcDbSpline
 70
8
 71
3
 72
8
 73
4
 74
0
 40
0
 40
0
 40
0
 40
0
 40
1
 40
1
 40
1
 40
1
 10
395.759301
 20
331.506673
 30
0.0
 10
395.713471
 20
331.358673
 30
0.0
 10
395.708966
 20
331.209495
 30
0.0
 10
395.745786
 20
331.059139
 30
0.0
  0
SPLINE
  5
26d
100
AcDbEntity
  8
Layer_1
 62
7
100
AcDbSpline
 70
8
 71
3
 72
8
 73
4
 74
0
 40
0
 40
0
 40
0
 40
0
 40
1
 40
1
 40
1
 40
1
 10
395.745786
 20
331.059139
 30
0.0
 10
395.790575
 20
330.876242
 30
0.0
 10
395.881236
 20
330.734313
 30
0.0
 10
396.017769
 20
330.633350
 30
0.0
  0
SPLINE
  5
26e
100
AcDbEntity
  8
Layer_1
 62
7
100
AcDbSpline
 70
8
 71
3
 72
8
 73
4
 74
0
 40
0
 40
0
 40
0
 40
0
 40
1
 40
1
 40
1
 40
1
 10
396.017769
 20
330.633350
 30
0.0
 10
396.154283
 20
330.532384
 30
0.0
 10
396.331827
 20
330.484877
 30
0.0
 10
396.550402
 20
330.490829
 30
0.0
  0
LINE
  5
26f
100
AcDbEntity
  8
Layer_1
 62
7
100
AcDbLine
 10
396.550402
 20
330.490829
 30
0.0
 11
396.550402
 21
330.490829
 31
0.0
  0
LINE
  5
270
100
AcDbEntity
  8
Layer_1
 62
7
100
AcDbLine
 10
395.865275
 20
329.544045
 30
0.0
 11
398.332705
 21
330.148290
 31
0.0
  0
LINE
  5
271
100
AcDbEntity
  8
Layer_1
 62
7
100
AcDbLine
 10
398.332705
 20
330.148290
 30
0.0
 11
398.769606
 21
328.364209
 31
0.0
  0
LINE
  5
272
100
AcDbEntity
  8
Layer_1
 62
7
100
AcDbLine
 10
398.769606
 20
328.364209
 30
0.0
 11
398.478406
 21
328.292897
 31
0.0
  0
LINE
  5
273
100
AcDbEntity
  8
Layer_1
 62
7
100
AcDbLine
 10
398.478406
 20
328.292897
 30
0.0
 11
398.121466
 21
329.750458
 31
0.0
  0
LINE
  5
274
100
AcDbEntity
  8
Layer_1
 62
7
100
AcDbLine
 10
398.121466
 20
329.750458
 30
0.0
 11
397.365766
 21
329.565396
 31
0.0
  0
LINE
  5
275
100
AcDbEntity
  8
Layer_1
 62
7
100
AcDbLine
 10
397.365766
 20
329.565396
 30
0.0
 11
397.700036
 21
328.200404
 31
0.0
  0
LINE
  5
276
100
AcDbEntity
  8
Layer_1
 62
7
100
AcDbLine
 10
397.700036
 20
328.200404
 30
0.0
 11
397.410536
 21
328.129508
 31
0.0
  0
LINE
  5
277
100
AcDbEntity
  8
Layer_1
 62
7
100
AcDbLine
 10
397.410536
 20
328.129508
 30
0.0
 11
397.076265
 21
329.494500
 31
0.0
  0
LINE
  5
278
100
AcDbEntity
  8
Layer_1
 62
7
100
AcDbLine
 10
397.076265
 20
329.494500
 30
0.0
 11
396.236409
 21
329.288829
 31
0.0
  0
LINE
  5
279
100
AcDbEntity
  8
Layer_1
 62
7
100
AcDbLine
 10
396.236409
 20
329.288829
 30
0.0
 11
396.607363
 21
327.774043
 31
0.0
  0
LINE
  5
27a
100
AcDbEntity
  8
Layer_1
 62
7
100
AcDbLine
 10
396.607363
 20
327.774043
 30
0.0
 11
396.316190
 21
327.702738
 31
0.0
  0
LINE
  5
27b
100
AcDbEntity
  8
Layer_1
 62
7
100
AcDbLine
 10
396.316190
 20
327.702738
 30
0.0
 11
395.865275
 21
329.544045
 31
0.0
  0
LINE
  5
27c
100
AcDbEntity
  8
Layer_1
 62
7
100
AcDbLine
 10
396.427894
 20
327.246593
 30
0.0
 11
398.895324
 21
327.850838
 31
0.0
  0
LINE
  5
27d
100
AcDbEntity
  8
Layer_1
 62
7
100
AcDbLine
 10
398.895324
 20
327.850838
 30
0.0
 11
399.163235
 21
326.756824
 31
0.0
  0
SPLINE
  5
27e
100
AcDbEntity
  8
Layer_1
 62
7
100
AcDbSpline
 70
8
 71
3
 72
8
 73
4
 74
0
 40
0
 40
0
 40
0
 40
0
 40
1
 40
1
 40
1
 40
1
 10
399.163235
 20
326.756824
 30
0.0
 10
399.217092
 20
326.536899
 30
0.0
 10
399.235593
 20
326.364216
 30
0.0
 10
399.218738
 20
326.238773
 30
0.0
  0
SPLINE
  5
27f
100
AcDbEntity
  8
Layer_1
 62
7
100
AcDbSpline
 70
8
 71
3
 72
8
 73
4
 74
0
 40
0
 40
0
 40
0
 40
0
 40
1
 40
1
 40
1
 40
1
 10
399.218738
 20
326.238773
 30
0.0
 10
399.202997
 20
326.113605
 30
0.0
 10
399.147404
 20
326.003058
 30
0.0
 10
399.051958
 20
325.907134
 30
0.0
  0
SPLINE
  5
280
100
AcDbEntity
  8
Layer_1
 62
7
100
AcDbSpline
 70
8
 71
3
 72
8
 73
4
 74
0
 40
0
 40
0
 40
0
 40
0
 40
1
 40
1
 40
1
 40
1
 10
399.051958
 20
325.907134
 30
0.0
 10
398.956513
 20
325.811209
 30
0.0
 10
398.840908
 20
325.746623
 30
0.0
 10
398.705144
 20
325.713376
 30
0.0
  0
SPLINE
  5
281
100
AcDbEntity
  8
Layer_1
 62
7
100
AcDbSpline
 70
8
 71
3
 72
8
 73
4
 74
0
 40
0
 40
0
 40
0
 40
0
 40
1
 40
1
 40
1
 40
1
 10
398.705144
 20
325.713376
 30
0.0
 10
398.530090
 20
325.670507
 30
0.0
 10
398.368663
 20
325.691039
 30
0.0
 10
398.220862
 20
325.774970
 30
0.0
  0
SPLINE
  5
282
100
AcDbEntity
  8
Layer_1
 62
7
100
AcDbSpline
 70
8
 71
3
 72
8
 73
4
 74
0
 40
0
 40
0
 40
0
 40
0
 40
1
 40
1
 40
1
 40
1
 10
398.220862
 20
325.774970
 30
0.0
 10
398.073044
 20
325.858895
 30
0.0
 10
397.953872
 20
326.015250
 30
0.0
 10
397.863346
 20
326.244035
 30
0.0
  0
SPLINE
  5
283
100
AcDbEntity
  8
Layer_1
 62
7
100
AcDbSpline
 70
8
 71
3
 72
8
 73
4
 74
0
 40
0
 40
0
 40
0
 40
0
 40
1
 40
1
 40
1
 40
1
 10
397.863346
 20
326.244035
 30
0.0
 10
397.843001
 20
326.147474
 30
0.0
 10
397.818122
 20
326.071804
 30
0.0
 10
397.788708
 20
326.017027
 30
0.0
  0
SPLINE
  5
284
100
AcDbEntity
  8
Layer_1
 62
7
100
AcDbSpline
 70
8
 71
3
 72
8
 73
4
 74
0
 40
0
 40
0
 40
0
 40
0
 40
1
 40
1
 40
1
 40
1
 10
397.788708
 20
326.017027
 30
0.0
 10
397.724546
 20
325.900218
 30
0.0
 10
397.637264
 20
325.783101
 30
0.0
 10
397.526860
 20
325.665675
 30
0.0
  0
LINE
  5
285
100
AcDbEntity
  8
Layer_1
 62
7
100
AcDbLine
 10
397.526860
 20
325.665675
 30
0.0
 11
396.960419
 21
325.072031
 31
0.0
  0
LINE
  5
286
100
AcDbEntity
  8
Layer_1
 62
7
100
AcDbLine
 10
396.960419
 20
325.072031
 30
0.0
 11
396.859850
 21
325.482707
 31
0.0
  0
LINE
  5
287
100
AcDbEntity
  8
Layer_1
 62
7
100
AcDbLine
 10
396.859850
 20
325.482707
 30
0.0
 11
397.293237
 21
325.934941
 31
0.0
  0
SPLINE
  5
288
100
AcDbEntity
  8
Layer_1
 62
7
100
AcDbSpline
 70
8
 71
3
 72
8
 73
4
 74
0
 40
0
 40
0
 40
0
 40
0
 40
1
 40
1
 40
1
 40
1
 10
397.293237
 20
325.934941
 30
0.0
 10
397.417980
 20
326.066583
 30
0.0
 10
397.512068
 20
326.172879
 30
0.0
 10
397.575500
 20
326.253827
 30
0.0
  0
SPLINE
  5
289
100
AcDbEntity
  8
Layer_1
 62
7
100
AcDbSpline
 70
8
 71
3
 72
8
 73
4
 74
0
 40
0
 40
0
 40
0
 40
0
 40
1
 40
1
 40
1
 40
1
 10
397.575500
 20
326.253827
 30
0.0
 10
397.638932
 20
326.334776
 30
0.0
 10
397.680319
 20
326.403785
 30
0.0
 10
397.699662
 20
326.460854
 30
0.0
  0
SPLINE
  5
28a
100
AcDbEntity
  8
Layer_1
 62
7
100
AcDbSpline
 70
8
 71
3
 72
8
 73
4
 74
0
 40
0
 40
0
 40
0
 40
0
 40
1
 40
1
 40
1
 40
1
 10
397.699662
 20
326.460854
 30
0.0
 10
397.719261
 20
326.516794
 30
0.0
 10
397.729046
 20
326.571521
 30
0.0
 10
397.729016
 20
326.625036
 30
0.0
  0
SPLINE
  5
28b
100
AcDbEntity
  8
Layer_1
 62
7
100
AcDbSpline
 70
8
 71
3
 72
8
 73
4
 74
0
 40
0
 40
0
 40
0
 40
0
 40
1
 40
1
 40
1
 40
1
 10
397.729016
 20
326.625036
 30
0.0
 10
397.727806
 20
326.663988
 30
0.0
 10
397.716897
 20
326.725543
 30
0.0
 10
397.696288
 20
326.809698
 30
0.0
  0
LINE
  5
28c
100
AcDbEntity
  8
Layer_1
 62
7
100
AcDbLine
 10
397.696288
 20
326.809698
 30
0.0
 11
397.603550
 21
327.188395
 31
0.0
  0
LINE
  5
28d
100
AcDbEntity
  8
Layer_1
 62
7
100
AcDbLine
 10
397.603550
 20
327.188395
 30
0.0
 11
396.507856
 21
326.920073
 31
0.0
  0
LINE
  5
28e
100
AcDbEntity
  8
Layer_1
 62
7
100
AcDbLine
 10
396.507856
 20
326.920073
 30
0.0
 11
396.427894
 21
327.246593
 31
0.0
  0
LINE
  5
28f
100
AcDbEntity
  8
Layer_1
 62
7
100
AcDbLine
 10
397.886307
 20
327.257639
 30
0.0
 11
398.058182
 21
326.555787
 31
0.0
  0
SPLINE
  5
290
100
AcDbEntity
  8
Layer_1
 62
7
100
AcDbSpline
 70
8
 71
3
 72
8
 73
4
 74
0
 40
0
 40
0
 40
0
 40
0
 40
1
 40
1
 40
1
 40
1
 10
398.058182
 20
326.555787
 30
0.0
 10
398.094728
 20
326.406552
 30
0.0
 10
398.138455
 20
326.293567
 30
0.0
 10
398.189363
 20
326.216833
 30
0.0
  0
SPLINE
  5
291
100
AcDbEntity
  8
Layer_1
 62
7
100
AcDbSpline
 70
8
 71
3
 72
8
 73
4
 74
0
 40
0
 40
0
 40
0
 40
0
 40
1
 40
1
 40
1
 40
1
 10
398.189363
 20
326.216833
 30
0.0
 10
398.241386
 20
326.140371
 30
0.0
 10
398.306418
 20
326.088502
 30
0.0
 10
398.384459
 20
326.061229
 30
0.0
  0
SPLINE
  5
292
100
AcDbEntity
  8
Layer_1
 62
7
100
AcDbSpline
 70
8
 71
3
 72
8
 73
4
 74
0
 40
0
 40
0
 40
0
 40
0
 40
1
 40
1
 40
1
 40
1
 10
398.384459
 20
326.061229
 30
0.0
 10
398.463615
 20
326.034228
 30
0.0
 10
398.543032
 20
326.030483
 30
0.0
 10
398.622710
 20
326.049996
 30
0.0
  0
SPLINE
  5
293
100
AcDbEntity
  8
Layer_1
 62
7
100
AcDbSpline
 70
8
 71
3
 72
8
 73
4
 74
0
 40
0
 40
0
 40
0
 40
0
 40
1
 40
1
 40
1
 40
1
 10
398.622710
 20
326.049996
 30
0.0
 10
398.739395
 20
326.078570
 30
0.0
 10
398.824887
 20
326.144702
 30
0.0
 10
398.879186
 20
326.248391
 30
0.0
  0
SPLINE
  5
294
100
AcDbEntity
  8
Layer_1
 62
7
100
AcDbSpline
 70
8
 71
3
 72
8
 73
4
 74
0
 40
0
 40
0
 40
0
 40
0
 40
1
 40
1
 40
1
 40
1
 10
398.879186
 20
326.248391
 30
0.0
 10
398.933760
 20
326.350958
 30
0.0
 10
398.938652
 20
326.493689
 30
0.0
 10
398.893863
 20
326.676586
 30
0.0
  0
LINE
  5
295
100
AcDbEntity
  8
Layer_1
 62
7
100
AcDbLine
 10
398.893863
 20
326.676586
 30
0.0
 11
398.702616
 21
327.457544
 31
0.0
  0
LINE
  5
296
100
AcDbEntity
  8
Layer_1
 62
7
100
AcDbLine
 10
398.702616
 20
327.457544
 30
0.0
 11
397.886307
 21
327.257639
 31
0.0
  0
LINE
  5
297
100
AcDbEntity
  8
Layer_1
 62
3
100
AcDbLine
 10
376.332279
 20
352.024350
 30
0.0
 11
385.163069
 21
315.758606
 31
0.0
  0
LINE
  5
298
100
AcDbEntity
  8
Layer_1
 62
3
100
AcDbLine
 10
385.163069
 20
315.758606
 30
0.0
 11
418.352912
 21
323.845222
 31
0.0
  0
LINE
  5
299
100
AcDbEntity
  8
Layer_1
 62
3
100
AcDbLine
 10
418.352912
 20
323.845222
 30
0.0
 11
409.472535
 21
360.110965
 31
0.0
  0
LINE
  5
29a
100
AcDbEntity
  8
Layer_1
 62
3
100
AcDbLine
 10
409.472535
 20
360.110965
 30
0.0
 11
376.332279
 21
352.024350
 31
0.0
  0
LINE
  5
29b
100
AcDbEntity
  8
Layer_1
 62
3
100
AcDbLine
 10
188.131740
 20
420.777729
 30
0.0
 11
188.131740
 21
192.641059
 31
0.0
  0
LINE
  5
29c
100
AcDbEntity
  8
Layer_1
 62
7
100
AcDbLine
 10
9.754074
 20
35.805532
 30
0.0
 11
132.690472
 21
35.805532
 31
0.0
  0
LINE
  5
29d
100
AcDbEntity
  8
Layer_1
 62
7
100
AcDbLine
 10
9.754074
 20
35.805532
 30
0.0
 11
9.754074
 21
162.810051
 31
0.0
  0
LINE
  5
29e
100
AcDbEntity
  8
Layer_1
 62
7
100
AcDbLine
 10
9.754074
 20
162.810051
 30
0.0
 11
132.690472
 21
162.810051
 31
0.0
  0
LINE
  5
29f
100
AcDbEntity
  8
Layer_1
 62
7
100
AcDbLine
 10
132.690472
 20
162.810051
 30
0.0
 11
132.690472
 21
35.805532
 31
0.0
  0
LINE
  5
2a0
100
AcDbEntity
  8
Layer_1
 62
3
100
AcDbLine
 10
58.472207
 20
106.799070
 30
0.0
 11
61.002386
 21
106.799070
 31
0.0
  0
LINE
  5
2a1
100
AcDbEntity
  8
Layer_1
 62
3
100
AcDbLine
 10
81.342960
 20
106.799070
 30
0.0
 11
83.873111
 21
106.799070
 31
0.0
  0
LINE
  5
2a2
100
AcDbEntity
  8
Layer_1
 62
3
100
AcDbLine
 10
58.472207
 20
90.923506
 30
0.0
 11
83.873111
 21
90.923506
 31
0.0
  0
LINE
  5
2a3
100
AcDbEntity
  8
Layer_1
 62
3
100
AcDbLine
 10
58.472207
 20
106.799070
 30
0.0
 11
58.472207
 21
88.393327
 31
0.0
  0
LINE
  5
2a4
100
AcDbEntity
  8
Layer_1
 62
3
100
AcDbLine
 10
58.472207
 20
88.393327
 30
0.0
 11
83.873111
 21
88.393327
 31
0.0
  0
LINE
  5
2a5
100
AcDbEntity
  8
Layer_1
 62
3
100
AcDbLine
 10
61.002386
 20
90.923506
 30
0.0
 11
61.002386
 21
106.799070
 31
0.0
  0
LINE
  5
2a6
100
AcDbEntity
  8
Layer_1
 62
3
100
AcDbLine
 10
81.342960
 20
106.799070
 30
0.0
 11
81.342960
 21
90.923506
 31
0.0
  0
LINE
  5
2a7
100
AcDbEntity
  8
Layer_1
 62
3
100
AcDbLine
 10
83.873111
 20
106.799070
 30
0.0
 11
83.873111
 21
88.393327
 31
0.0
  0
LINE
  5
2a8
100
AcDbEntity
  8
Layer_1
 62
3
100
AcDbLine
 10
72.214510
 20
105.261129
 30
0.0
 11
69.981991
 21
105.261129
 31
0.0
  0
LINE
  5
2a9
100
AcDbEntity
  8
Layer_1
 62
3
100
AcDbLine
 10
69.981991
 20
105.261129
 30
0.0
 11
65.368166
 21
92.560677
 31
0.0
  0
LINE
  5
2aa
100
AcDbEntity
  8
Layer_1
 62
3
100
AcDbLine
 10
65.368166
 20
92.560677
 30
0.0
 11
67.054952
 21
92.560677
 31
0.0
  0
LINE
  5
2ab
100
AcDbEntity
  8
Layer_1
 62
3
100
AcDbLine
 10
67.054952
 20
92.560677
 30
0.0
 11
68.295206
 21
96.083064
 31
0.0
  0
LINE
  5
2ac
100
AcDbEntity
  8
Layer_1
 62
3
100
AcDbLine
 10
68.295206
 20
96.083064
 30
0.0
 11
73.802067
 21
96.083064
 31
0.0
  0
LINE
  5
2ad
100
AcDbEntity
  8
Layer_1
 62
3
100
AcDbLine
 10
68.840939
 20
97.521777
 30
0.0
 11
71.073429
 21
103.772773
 31
0.0
  0
LINE
  5
2ae
100
AcDbEntity
  8
Layer_1
 62
3
100
AcDbLine
 10
71.073429
 20
103.772773
 30
0.0
 11
73.305948
 21
97.521777
 31
0.0
  0
LINE
  5
2af
100
AcDbEntity
  8
Layer_1
 62
3
100
AcDbLine
 10
73.305948
 20
97.521777
 30
0.0
 11
68.840939
 21
97.521777
 31
0.0
  0
LINE
  5
2b0
100
AcDbEntity
  8
Layer_1
 62
3
100
AcDbLine
 10
73.802067
 20
96.083064
 30
0.0
 11
75.042321
 21
92.560677
 31
0.0
  0
LINE
  5
2b1
100
AcDbEntity
  8
Layer_1
 62
3
100
AcDbLine
 10
75.042321
 20
92.560677
 30
0.0
 11
76.828336
 21
92.560677
 31
0.0
  0
LINE
  5
2b2
100
AcDbEntity
  8
Layer_1
 62
3
100
AcDbLine
 10
76.828336
 20
92.560677
 30
0.0
 11
72.214510
 21
105.261129
 31
0.0
  0
LINE
  5
2b3
100
AcDbEntity
  8
Layer_1
 62
1
100
AcDbLine
 10
41.753249
 20
162.810051
 30
0.0
 11
41.753249
 21
35.795626
 31
0.0
  0
LINE
  5
2b4
100
AcDbEntity
  8
Layer_1
 62
1
100
AcDbLine
 10
46.069415
 20
162.810051
 30
0.0
 11
46.069415
 21
35.795655
 31
0.0
  0
LINE
  5
2b5
100
AcDbEntity
  8
Layer_1
 62
1
100
AcDbLine
 10
96.375132
 20
162.810051
 30
0.0
 11
96.375132
 21
35.795626
 31
0.0
  0
LINE
  5
2b6
100
AcDbEntity
  8
Layer_1
 62
1
100
AcDbLine
 10
100.691298
 20
162.810051
 30
0.0
 11
100.691298
 21
35.795626
 31
0.0
  0
LINE
  5
2b7
100
AcDbEntity
  8
Layer_1
 62
7
100
AcDbLine
 10
295.277186
 20
32.308206
 30
0.0
 11
673.214830
 21
32.308206
 31
0.0
  0
LINE
  5
2b8
100
AcDbEntity
  8
Layer_1
 62
7
100
AcDbLine
 10
411.516084
 20
189.178638
 30
0.0
 11
405.463518
 21
213.835379
 31
0.0
  0
LINE
  5
2b9
100
AcDbEntity
  8
Layer_1
 62
7
100
AcDbLine
 10
294.235334
 20
62.074890
 30
0.0
 11
295.277186
 21
32.308206
 31
0.0
  0
LINE
  5
2ba
100
AcDbEntity
  8
Layer_1
 62
7
100
AcDbLine
 10
288.827731
 20
192.452981
 30
0.0
 11
290.365673
 21
154.351625
 31
0.0
  0
LINE
  5
2bb
100
AcDbEntity
  8
Layer_1
 62
7
100
AcDbLine
 10
333.279312
 20
215.026046
 30
0.0
 11
614.227195
 21
278.181031
 31
0.0
  0
LINE
  5
2bc
100
AcDbEntity
  8
Layer_1
 62
7
100
AcDbLine
 10
673.214830
 20
32.308206
 30
0.0
 11
663.342217
 21
278.181031
 31
0.0
  0
LINE
  5
2bd
100
AcDbEntity
  8
Layer_1
 62
7
100
AcDbLine
 10
294.235334
 20
62.074890
 30
0.0
 11
292.498962
 21
62.422165
 31
0.0
  0
LINE
  5
2be
100
AcDbEntity
  8
Layer_1
 62
7
100
AcDbLine
 10
292.498962
 20
62.422165
 30
0.0
 11
290.812176
 21
62.918283
 31
0.0
  0
LINE
  5
2bf
100
AcDbEntity
  8
Layer_1
 62
7
100
AcDbLine
 10
290.812176
 20
62.918283
 30
0.0
 11
289.125390
 21
63.513631
 31
0.0
  0
LINE
  5
2c0
100
AcDbEntity
  8
Layer_1
 62
7
100
AcDbLine
 10
289.125390
 20
63.513631
 30
0.0
 11
287.488219
 21
64.208180
 31
0.0
  0
LINE
  5
2c1
100
AcDbEntity
  8
Layer_1
 62
7
100
AcDbLine
 10
287.488219
 20
64.208180
 30
0.0
 11
285.900663
 21
64.952344
 31
0.0
  0
LINE
  5
2c2
100
AcDbEntity
  8
Layer_1
 62
7
100
AcDbLine
 10
285.900663
 20
64.952344
 30
0.0
 11
284.362721
 21
65.845351
 31
0.0
  0
LINE
  5
2c3
100
AcDbEntity
  8
Layer_1
 62
7
100
AcDbLine
 10
284.362721
 20
65.845351
 30
0.0
 11
282.874394
 21
66.787945
 31
0.0
  0
LINE
  5
2c4
100
AcDbEntity
  8
Layer_1
 62
7
100
AcDbLine
 10
282.874394
 20
66.787945
 30
0.0
 11
281.435681
 21
67.780182
 31
0.0
  0
LINE
  5
2c5
100
AcDbEntity
  8
Layer_1
 62
7
100
AcDbLine
 10
281.435681
 20
67.780182
 30
0.0
 11
280.046555
 21
68.871620
 31
0.0
  0
LINE
  5
2c6
100
AcDbEntity
  8
Layer_1
 62
7
100
AcDbLine
 10
280.046555
 20
68.871620
 30
0.0
 11
278.707072
 21
70.012673
 31
0.0
  0
LINE
  5
2c7
100
AcDbEntity
  8
Layer_1
 62
7
100
AcDbLine
 10
278.707072
 20
70.012673
 30
0.0
 11
277.417176
 21
71.252955
 31
0.0
  0
LINE
  5
2c8
100
AcDbEntity
  8
Layer_1
 62
7
100
AcDbLine
 10
277.417176
 20
71.252955
 30
0.0
 11
276.176894
 21
72.542852
 31
0.0
  0
LINE
  5
2c9
100
AcDbEntity
  8
Layer_1
 62
7
100
AcDbLine
 10
276.176894
 20
72.542852
 30
0.0
 11
275.035841
 21
73.882335
 31
0.0
  0
LINE
  5
2ca
100
AcDbEntity
  8
Layer_1
 62
7
100
AcDbLine
 10
275.035841
 20
73.882335
 30
0.0
 11
273.944403
 21
75.271461
 31
0.0
  0
LINE
  5
2cb
100
AcDbEntity
  8
Layer_1
 62
7
100
AcDbLine
 10
273.944403
 20
75.271461
 30
0.0
 11
272.952166
 21
76.710173
 31
0.0
  0
LINE
  5
2cc
100
AcDbEntity
  8
Layer_1
 62
7
100
AcDbLine
 10
272.952166
 20
76.710173
 30
0.0
 11
272.009544
 21
78.198529
 31
0.0
  0
LINE
  5
2cd
100
AcDbEntity
  8
Layer_1
 62
7
100
AcDbLine
 10
272.009544
 20
78.198529
 30
0.0
 11
271.116564
 21
79.736470
 31
0.0
  0
LINE
  5
2ce
100
AcDbEntity
  8
Layer_1
 62
7
100
AcDbLine
 10
271.116564
 20
79.736470
 30
0.0
 11
270.322786
 21
81.324027
 31
0.0
  0
LINE
  5
2cf
100
AcDbEntity
  8
Layer_1
 62
7
100
AcDbLine
 10
270.322786
 20
81.324027
 30
0.0
 11
269.628209
 21
82.961198
 31
0.0
  0
LINE
  5
2d0
100
AcDbEntity
  8
Layer_1
 62
7
100
AcDbLine
 10
269.628209
 20
82.961198
 30
0.0
 11
269.032889
 21
84.598341
 31
0.0
  0
LINE
  5
2d1
100
AcDbEntity
  8
Layer_1
 62
7
100
AcDbLine
 10
269.032889
 20
84.598341
 30
0.0
 11
268.586386
 21
86.334741
 31
0.0
  0
LINE
  5
2d2
100
AcDbEntity
  8
Layer_1
 62
7
100
AcDbLine
 10
268.586386
 20
86.334741
 30
0.0
 11
268.239111
 21
88.071142
 31
0.0
  0
LINE
  5
2d3
100
AcDbEntity
  8
Layer_1
 62
7
100
AcDbLine
 10
268.239111
 20
88.071142
 30
0.0
 11
267.792607
 21
91.543915
 31
0.0
  0
LINE
  5
2d4
100
AcDbEntity
  8
Layer_1
 62
7
100
AcDbLine
 10
267.792607
 20
91.543915
 30
0.0
 11
267.346104
 21
95.066302
 31
0.0
  0
LINE
  5
2d5
100
AcDbEntity
  8
Layer_1
 62
7
100
AcDbLine
 10
267.346104
 20
95.066302
 30
0.0
 11
267.048444
 21
98.588690
 31
0.0
  0
LINE
  5
2d6
100
AcDbEntity
  8
Layer_1
 62
7
100
AcDbLine
 10
267.048444
 20
98.588690
 30
0.0
 11
266.899600
 21
102.111077
 31
0.0
  0
LINE
  5
2d7
100
AcDbEntity
  8
Layer_1
 62
7
100
AcDbLine
 10
266.899600
 20
102.111077
 30
0.0
 11
266.800399
 21
105.633464
 31
0.0
  0
LINE
  5
2d8
100
AcDbEntity
  8
Layer_1
 62
7
100
AcDbLine
 10
266.800399
 20
105.633464
 30
0.0
 11
266.899600
 21
109.155880
 31
0.0
  0
LINE
  5
2d9
100
AcDbEntity
  8
Layer_1
 62
7
100
AcDbLine
 10
266.899600
 20
109.155880
 30
0.0
 11
267.098058
 21
112.678267
 31
0.0
  0
LINE
  5
2da
100
AcDbEntity
  8
Layer_1
 62
7
100
AcDbLine
 10
267.098058
 20
112.678267
 30
0.0
 11
267.494948
 21
116.200655
 31
0.0
  0
LINE
  5
2db
100
AcDbEntity
  8
Layer_1
 62
7
100
AcDbLine
 10
267.494948
 20
116.200655
 30
0.0
 11
267.792607
 21
117.937027
 31
0.0
  0
LINE
  5
2dc
100
AcDbEntity
  8
Layer_1
 62
7
100
AcDbLine
 10
267.792607
 20
117.937027
 30
0.0
 11
268.139882
 21
119.673428
 31
0.0
  0
LINE
  5
2dd
100
AcDbEntity
  8
Layer_1
 62
7
100
AcDbLine
 10
268.139882
 20
119.673428
 30
0.0
 11
268.487156
 21
121.409828
 31
0.0
  0
LINE
  5
2de
100
AcDbEntity
  8
Layer_1
 62
7
100
AcDbLine
 10
268.487156
 20
121.409828
 30
0.0
 11
268.933660
 21
123.096586
 31
0.0
  0
LINE
  5
2df
100
AcDbEntity
  8
Layer_1
 62
7
100
AcDbLine
 10
268.933660
 20
123.096586
 30
0.0
 11
269.429778
 21
124.783371
 31
0.0
  0
LINE
  5
2e0
100
AcDbEntity
  8
Layer_1
 62
7
100
AcDbLine
 10
269.429778
 20
124.783371
 30
0.0
 11
269.975512
 21
126.470157
 31
0.0
  0
LINE
  5
2e1
100
AcDbEntity
  8
Layer_1
 62
7
100
AcDbLine
 10
269.975512
 20
126.470157
 30
0.0
 11
271.166179
 21
129.794114
 31
0.0
  0
LINE
  5
2e2
100
AcDbEntity
  8
Layer_1
 62
7
100
AcDbLine
 10
271.166179
 20
129.794114
 30
0.0
 11
272.555277
 21
133.068428
 31
0.0
  0
LINE
  5
2e3
100
AcDbEntity
  8
Layer_1
 62
7
100
AcDbLine
 10
272.555277
 20
133.068428
 30
0.0
 11
274.093219
 21
136.293156
 31
0.0
  0
LINE
  5
2e4
100
AcDbEntity
  8
Layer_1
 62
7
100
AcDbLine
 10
274.093219
 20
136.293156
 30
0.0
 11
275.780004
 21
139.418654
 31
0.0
  0
LINE
  5
2e5
100
AcDbEntity
  8
Layer_1
 62
7
100
AcDbLine
 10
275.780004
 20
139.418654
 30
0.0
 11
276.673012
 21
140.956596
 31
0.0
  0
LINE
  5
2e6
100
AcDbEntity
  8
Layer_1
 62
7
100
AcDbLine
 10
276.673012
 20
140.956596
 30
0.0
 11
277.615606
 21
142.444951
 31
0.0
  0
LINE
  5
2e7
100
AcDbEntity
  8
Layer_1
 62
7
100
AcDbLine
 10
277.615606
 20
142.444951
 30
0.0
 11
278.657458
 21
143.982893
 31
0.0
  0
LINE
  5
2e8
100
AcDbEntity
  8
Layer_1
 62
7
100
AcDbLine
 10
278.657458
 20
143.982893
 30
0.0
 11
279.748896
 21
145.471220
 31
0.0
  0
LINE
  5
2e9
100
AcDbEntity
  8
Layer_1
 62
7
100
AcDbLine
 10
279.748896
 20
145.471220
 30
0.0
 11
280.939563
 21
146.909933
 31
0.0
  0
LINE
  5
2ea
100
AcDbEntity
  8
Layer_1
 62
7
100
AcDbLine
 10
280.939563
 20
146.909933
 30
0.0
 11
282.179845
 21
148.348674
 31
0.0
  0
LINE
  5
2eb
100
AcDbEntity
  8
Layer_1
 62
7
100
AcDbLine
 10
282.179845
 20
148.348674
 30
0.0
 11
283.469742
 21
149.688157
 31
0.0
  0
LINE
  5
2ec
100
AcDbEntity
  8
Layer_1
 62
7
100
AcDbLine
 10
283.469742
 20
149.688157
 30
0.0
 11
284.809225
 21
150.928439
 31
0.0
  0
LINE
  5
2ed
100
AcDbEntity
  8
Layer_1
 62
7
100
AcDbLine
 10
284.809225
 20
150.928439
 30
0.0
 11
286.148736
 21
151.970290
 31
0.0
  0
LINE
  5
2ee
100
AcDbEntity
  8
Layer_1
 62
7
100
AcDbLine
 10
286.148736
 20
151.970290
 30
0.0
 11
286.793670
 21
152.416794
 31
0.0
  0
LINE
  5
2ef
100
AcDbEntity
  8
Layer_1
 62
7
100
AcDbLine
 10
286.793670
 20
152.416794
 30
0.0
 11
287.438633
 21
152.813683
 31
0.0
  0
LINE
  5
2f0
100
AcDbEntity
  8
Layer_1
 62
7
100
AcDbLine
 10
287.438633
 20
152.813683
 30
0.0
 11
288.033952
 21
153.111343
 31
0.0
  0
LINE
  5
2f1
100
AcDbEntity
  8
Layer_1
 62
7
100
AcDbLine
 10
288.033952
 20
153.111343
 30
0.0
 11
288.480456
 21
153.359388
 31
0.0
  0
LINE
  5
2f2
100
AcDbEntity
  8
Layer_1
 62
7
100
AcDbLine
 10
288.480456
 20
153.359388
 30
0.0
 11
288.728501
 21
153.508232
 31
0.0
  0
LINE
  5
2f3
100
AcDbEntity
  8
Layer_1
 62
7
100
AcDbLine
 10
288.728501
 20
153.508232
 30
0.0
 11
289.075776
 21
153.657048
 31
0.0
  0
LINE
  5
2f4
100
AcDbEntity
  8
Layer_1
 62
7
100
AcDbLine
 10
289.075776
 20
153.657048
 30
0.0
 11
289.323849
 21
153.805892
 31
0.0
  0
LINE
  5
2f5
100
AcDbEntity
  8
Layer_1
 62
7
100
AcDbLine
 10
289.323849
 20
153.805892
 30
0.0
 11
289.571894
 21
153.954736
 31
0.0
  0
LINE
  5
2f6
100
AcDbEntity
  8
Layer_1
 62
7
100
AcDbLine
 10
289.571894
 20
153.954736
 30
0.0
 11
289.919169
 21
154.103552
 31
0.0
  0
LINE
  5
2f7
100
AcDbEntity
  8
Layer_1
 62
7
100
AcDbLine
 10
289.919169
 20
154.103552
 30
0.0
 11
290.365673
 21
154.351625
 31
0.0
  0
LINE
  5
2f8
100
AcDbEntity
  8
Layer_1
 62
7
100
AcDbLine
 10
663.342217
 20
278.181031
 30
0.0
 11
614.227195
 21
278.181031
 31
0.0
  0
LINE
  5
2f9
100
AcDbEntity
  8
Layer_1
 62
7
100
AcDbLine
 10
288.827731
 20
192.452981
 30
0.0
 11
291.159451
 21
194.586242
 31
0.0
  0
LINE
  5
2fa
100
AcDbEntity
  8
Layer_1
 62
7
100
AcDbLine
 10
291.159451
 20
194.586242
 30
0.0
 11
293.540785
 21
196.669917
 31
0.0
  0
LINE
  5
2fb
100
AcDbEntity
  8
Layer_1
 62
7
100
AcDbLine
 10
293.540785
 20
196.669917
 30
0.0
 11
296.021350
 21
198.604748
 31
0.0
  0
LINE
  5
2fc
100
AcDbEntity
  8
Layer_1
 62
7
100
AcDbLine
 10
296.021350
 20
198.604748
 30
0.0
 11
298.551528
 21
200.489964
 31
0.0
  0
LINE
  5
2fd
100
AcDbEntity
  8
Layer_1
 62
7
100
AcDbLine
 10
298.551528
 20
200.489964
 30
0.0
 11
301.180908
 21
202.226365
 31
0.0
  0
LINE
  5
2fe
100
AcDbEntity
  8
Layer_1
 62
7
100
AcDbLine
 10
301.180908
 20
202.226365
 30
0.0
 11
303.909517
 21
203.813921
 31
0.0
  0
LINE
  5
2ff
100
AcDbEntity
  8
Layer_1
 62
7
100
AcDbLine
 10
303.909517
 20
203.813921
 30
0.0
 11
306.638126
 21
205.351863
 31
0.0
  0
LINE
  5
300
100
AcDbEntity
  8
Layer_1
 62
7
100
AcDbLine
 10
306.638126
 20
205.351863
 30
0.0
 11
309.465965
 21
206.740989
 31
0.0
  0
LINE
  5
301
100
AcDbEntity
  8
Layer_1
 62
7
100
AcDbLine
 10
309.465965
 20
206.740989
 30
0.0
 11
312.343418
 21
208.030858
 31
0.0
  0
LINE
  5
302
100
AcDbEntity
  8
Layer_1
 62
7
100
AcDbLine
 10
312.343418
 20
208.030858
 30
0.0
 11
315.270458
 21
209.221525
 31
0.0
  0
LINE
  5
303
100
AcDbEntity
  8
Layer_1
 62
7
100
AcDbLine
 10
315.270458
 20
209.221525
 30
0.0
 11
318.247140
 21
210.362578
 31
0.0
  0
LINE
  5
304
100
AcDbEntity
  8
Layer_1
 62
7
100
AcDbLine
 10
318.247140
 20
210.362578
 30
0.0
 11
321.223795
 21
211.404429
 31
0.0
  0
LINE
  5
305
100
AcDbEntity
  8
Layer_1
 62
7
100
AcDbLine
 10
321.223795
 20
211.404429
 30
0.0
 11
324.200477
 21
212.347023
 31
0.0
  0
LINE
  5
306
100
AcDbEntity
  8
Layer_1
 62
7
100
AcDbLine
 10
324.200477
 20
212.347023
 30
0.0
 11
327.226746
 21
213.289645
 31
0.0
  0
LINE
  5
307
100
AcDbEntity
  8
Layer_1
 62
7
100
AcDbLine
 10
327.226746
 20
213.289645
 30
0.0
 11
333.279312
 21
215.026046
 31
0.0
  0
LINE
  5
308
100
AcDbEntity
  8
Layer_1
 62
1
100
AcDbLine
 10
290.365673
 20
155.244604
 30
0.0
 11
525.026372
 21
205.897596
 31
0.0
  0
LINE
  5
309
100
AcDbEntity
  8
Layer_1
 62
1
100
AcDbLine
 10
525.026372
 20
205.897596
 30
0.0
 11
522.744267
 21
257.592383
 31
0.0
  0
LINE
  5
30a
100
AcDbEntity
  8
Layer_1
 62
3
100
AcDbLine
 10
665.723551
 20
218.895708
 30
0.0
 11
525.026372
 21
205.897596
 31
0.0
  0
LINE
  5
30b
100
AcDbEntity
  8
Layer_1
 62
1
100
AcDbLine
 10
341.365939
 20
74.180023
 30
0.0
 11
354.066391
 21
74.676113
 31
0.0
  0
LINE
  5
30c
100
AcDbEntity
  8
Layer_1
 62
1
100
AcDbLine
 10
354.066391
 20
74.676113
 30
0.0
 11
354.264821
 21
70.111902
 31
0.0
  0
LINE
  5
30d
100
AcDbEntity
  8
Layer_1
 62
1
100
AcDbLine
 10
354.264821
 20
70.111902
 30
0.0
 11
341.564369
 21
69.615784
 31
0.0
  0
LINE
  5
30e
100
AcDbEntity
  8
Layer_1
 62
1
100
AcDbLine
 10
341.564369
 20
69.615784
 30
0.0
 11
341.365939
 21
74.180023
 31
0.0
  0
LINE
  5
30f
100
AcDbEntity
  8
Layer_1
 62
1
100
AcDbLine
 10
643.547375
 20
87.277364
 30
0.0
 11
656.247827
 21
87.823069
 31
0.0
  0
LINE
  5
310
100
AcDbEntity
  8
Layer_1
 62
1
100
AcDbLine
 10
656.247827
 20
87.823069
 30
0.0
 11
656.446286
 21
83.258858
 31
0.0
  0
LINE
  5
311
100
AcDbEntity
  8
Layer_1
 62
1
100
AcDbLine
 10
656.446286
 20
83.258858
 30
0.0
 11
643.745834
 21
82.713125
 31
0.0
  0
LINE
  5
312
100
AcDbEntity
  8
Layer_1
 62
1
100
AcDbLine
 10
643.745834
 20
82.713125
 30
0.0
 11
643.547375
 21
87.277364
 31
0.0
  0
LINE
  5
313
100
AcDbEntity
  8
Layer_1
 62
7
100
AcDbLine
 10
170.878246
 20
88.775731
 30
0.0
 11
170.019487
 21
92.151593
 31
0.0
  0
LINE
  5
314
100
AcDbEntity
  8
Layer_1
 62
7
100
AcDbLine
 10
170.019487
 20
92.151593
 30
0.0
 11
169.694924
 21
93.848704
 31
0.0
  0
LINE
  5
315
100
AcDbEntity
  8
Layer_1
 62
7
100
AcDbLine
 10
169.694924
 20
93.848704
 30
0.0
 11
169.510160
 21
95.558046
 31
0.0
  0
LINE
  5
316
100
AcDbEntity
  8
Layer_1
 62
7
100
AcDbLine
 10
169.510160
 20
95.558046
 30
0.0
 11
169.357286
 21
97.305395
 31
0.0
  0
LINE
  5
317
100
AcDbEntity
  8
Layer_1
 62
7
100
AcDbLine
 10
169.357286
 20
97.305395
 30
0.0
 11
169.312319
 21
99.026968
 31
0.0
  0
LINE
  5
318
100
AcDbEntity
  8
Layer_1
 62
7
100
AcDbLine
 10
169.312319
 20
99.026968
 30
0.0
 11
169.299225
 21
100.786526
 31
0.0
  0
LINE
  5
319
100
AcDbEntity
  8
Layer_1
 62
7
100
AcDbLine
 10
169.299225
 20
100.786526
 30
0.0
 11
169.394055
 21
102.520330
 31
0.0
  0
LINE
  5
31a
100
AcDbEntity
  8
Layer_1
 62
7
100
AcDbLine
 10
169.394055
 20
102.520330
 30
0.0
 11
169.558744
 21
104.260245
 31
0.0
  0
LINE
  5
31b
100
AcDbEntity
  8
Layer_1
 62
7
100
AcDbLine
 10
169.558744
 20
104.260245
 30
0.0
 11
169.723473
 21
106.000164
 31
0.0
  0
LINE
  5
31c
100
AcDbEntity
  8
Layer_1
 62
7
100
AcDbLine
 10
169.723473
 20
106.000164
 30
0.0
 11
169.996067
 21
107.714303
 31
0.0
  0
LINE
  5
31d
100
AcDbEntity
  8
Layer_1
 62
7
100
AcDbLine
 10
169.996067
 20
107.714303
 30
0.0
 11
170.268662
 21
109.428442
 31
0.0
  0
LINE
  5
31e
100
AcDbEntity
  8
Layer_1
 62
7
100
AcDbLine
 10
170.268662
 20
109.428442
 30
0.0
 11
170.649163
 21
111.116804
 31
0.0
  0
LINE
  5
31f
100
AcDbEntity
  8
Layer_1
 62
7
100
AcDbLine
 10
170.649163
 20
111.116804
 30
0.0
 11
171.099562
 21
112.811282
 31
0.0
  0
LINE
  5
320
100
AcDbEntity
  8
Layer_1
 62
7
100
AcDbLine
 10
171.099562
 20
112.811282
 30
0.0
 11
171.549961
 21
114.505760
 31
0.0
  0
LINE
  5
321
100
AcDbEntity
  8
Layer_1
 62
7
100
AcDbLine
 10
171.549961
 20
114.505760
 30
0.0
 11
172.076375
 21
116.136455
 31
0.0
  0
LINE
  5
322
100
AcDbEntity
  8
Layer_1
 62
7
100
AcDbLine
 10
172.076375
 20
116.136455
 30
0.0
 11
172.672665
 21
117.773283
 31
0.0
  0
LINE
  5
323
100
AcDbEntity
  8
Layer_1
 62
7
100
AcDbLine
 10
172.672665
 20
117.773283
 30
0.0
 11
173.268956
 21
119.410111
 31
0.0
  0
LINE
  5
324
100
AcDbEntity
  8
Layer_1
 62
7
100
AcDbLine
 10
173.268956
 20
119.410111
 30
0.0
 11
173.973173
 21
121.021144
 31
0.0
  0
LINE
  5
325
100
AcDbEntity
  8
Layer_1
 62
7
100
AcDbLine
 10
173.973173
 20
121.021144
 30
0.0
 11
174.715359
 21
122.600283
 31
0.0
  0
LINE
  5
326
100
AcDbEntity
  8
Layer_1
 62
7
100
AcDbLine
 10
174.715359
 20
122.600283
 30
0.0
 11
176.351799
 21
125.631042
 31
0.0
  0
LINE
  5
327
100
AcDbEntity
  8
Layer_1
 62
7
100
AcDbLine
 10
176.351799
 20
125.631042
 30
0.0
 11
178.096099
 21
128.636016
 31
0.0
  0
LINE
  5
328
100
AcDbEntity
  8
Layer_1
 62
7
100
AcDbLine
 10
178.096099
 20
128.636016
 30
0.0
 11
179.954439
 21
131.545336
 31
0.0
  0
LINE
  5
329
100
AcDbEntity
  8
Layer_1
 62
7
100
AcDbLine
 10
179.954439
 20
131.545336
 30
0.0
 11
181.920667
 21
134.428858
 31
0.0
  0
LINE
  5
32a
100
AcDbEntity
  8
Layer_1
 62
7
100
AcDbLine
 10
181.920667
 20
134.428858
 30
0.0
 11
183.962909
 21
137.248596
 31
0.0
  0
LINE
  5
32b
100
AcDbEntity
  8
Layer_1
 62
7
100
AcDbLine
 10
183.962909
 20
137.248596
 30
0.0
 11
186.005129
 21
140.068353
 31
0.0
  0
LINE
  5
32c
100
AcDbEntity
  8
Layer_1
 62
7
100
AcDbLine
 10
186.005129
 20
140.068353
 30
0.0
 11
188.161410
 21
142.792438
 31
0.0
  0
LINE
  5
32d
100
AcDbEntity
  8
Layer_1
 62
7
100
AcDbLine
 10
188.161410
 20
142.792438
 30
0.0
 11
190.399759
 21
145.382856
 31
0.0
  0
LINE
  5
32e
100
AcDbEntity
  8
Layer_1
 62
7
100
AcDbLine
 10
190.399759
 20
145.382856
 30
0.0
 11
192.746035
 21
147.947479
 31
0.0
  0
LINE
  5
32f
100
AcDbEntity
  8
Layer_1
 62
7
100
AcDbLine
 10
192.746035
 20
147.947479
 30
0.0
 11
195.244318
 21
150.384554
 31
0.0
  0
LINE
  5
330
100
AcDbEntity
  8
Layer_1
 62
7
100
AcDbLine
 10
195.244318
 20
150.384554
 30
0.0
 11
197.786742
 21
152.719859
 31
0.0
  0
LINE
  5
331
100
AcDbEntity
  8
Layer_1
 62
7
100
AcDbLine
 10
197.786742
 20
152.719859
 30
0.0
 11
199.092895
 21
153.890539
 31
0.0
  0
LINE
  5
332
100
AcDbEntity
  8
Layer_1
 62
7
100
AcDbLine
 10
199.092895
 20
153.890539
 30
0.0
 11
200.475060
 21
154.997475
 31
0.0
  0
LINE
  5
333
100
AcDbEntity
  8
Layer_1
 62
7
100
AcDbLine
 10
200.475060
 20
154.997475
 30
0.0
 11
201.863340
 21
156.034513
 31
0.0
  0
LINE
  5
334
100
AcDbEntity
  8
Layer_1
 62
7
100
AcDbLine
 10
201.863340
 20
156.034513
 30
0.0
 11
203.289605
 21
157.039677
 31
0.0
  0
LINE
  5
335
100
AcDbEntity
  8
Layer_1
 62
7
100
AcDbLine
 10
203.289605
 20
157.039677
 30
0.0
 11
204.759996
 21
157.943011
 31
0.0
  0
LINE
  5
336
100
AcDbEntity
  8
Layer_1
 62
7
100
AcDbLine
 10
204.759996
 20
157.943011
 30
0.0
 11
206.274506
 21
158.744594
 31
0.0
  0
LINE
  5
337
100
AcDbEntity
  8
Layer_1
 62
7
100
AcDbLine
 10
206.274506
 20
158.744594
 30
0.0
 11
207.865051
 21
159.482375
 31
0.0
  0
LINE
  5
338
100
AcDbEntity
  8
Layer_1
 62
7
100
AcDbLine
 10
207.865051
 20
159.482375
 30
0.0
 11
209.505810
 21
160.048526
 31
0.0
  0
LINE
  5
339
100
AcDbEntity
  8
Layer_1
 62
7
100
AcDbLine
 10
209.505810
 20
160.048526
 30
0.0
 11
211.152687
 21
160.544737
 31
0.0
  0
LINE
  5
33a
100
AcDbEntity
  8
Layer_1
 62
7
100
AcDbLine
 10
211.152687
 20
160.544737
 30
0.0
 11
212.875556
 21
160.977184
 31
0.0
  0
LINE
  5
33b
100
AcDbEntity
  8
Layer_1
 62
7
100
AcDbLine
 10
212.875556
 20
160.977184
 30
0.0
 11
214.572689
 21
161.301728
 31
0.0
  0
LINE
  5
33c
100
AcDbEntity
  8
Layer_1
 62
7
100
AcDbLine
 10
214.572689
 20
161.301728
 30
0.0
 11
216.313923
 21
161.524500
 31
0.0
  0
LINE
  5
33d
100
AcDbEntity
  8
Layer_1
 62
7
100
AcDbLine
 10
216.313923
 20
161.524500
 30
0.0
 11
217.991373
 21
161.671258
 31
0.0
  0
LINE
  5
33e
100
AcDbEntity
  8
Layer_1
 62
7
100
AcDbLine
 10
217.991373
 20
161.671258
 30
0.0
 11
219.744816
 21
161.754251
 31
0.0
  0
LINE
  5
33f
100
AcDbEntity
  8
Layer_1
 62
7
100
AcDbLine
 10
219.744816
 20
161.754251
 30
0.0
 11
221.504396
 21
161.767326
 31
0.0
  0
LINE
  5
340
100
AcDbEntity
  8
Layer_1
 62
7
100
AcDbLine
 10
221.504396
 20
161.767326
 30
0.0
 11
223.200192
 21
161.704388
 31
0.0
  0
LINE
  5
341
100
AcDbEntity
  8
Layer_1
 62
7
100
AcDbLine
 10
223.200192
 20
161.704388
 30
0.0
 11
224.933992
 21
161.609598
 31
0.0
  0
LINE
  5
342
100
AcDbEntity
  8
Layer_1
 62
7
100
AcDbLine
 10
224.933992
 20
161.609598
 30
0.0
 11
226.673889
 21
161.444887
 31
0.0
  0
LINE
  5
343
100
AcDbEntity
  8
Layer_1
 62
7
100
AcDbLine
 10
226.673889
 20
161.444887
 30
0.0
 11
228.419942
 21
161.210281
 31
0.0
  0
LINE
  5
344
100
AcDbEntity
  8
Layer_1
 62
7
100
AcDbLine
 10
228.419942
 20
161.210281
 30
0.0
 11
230.102189
 21
160.899680
 31
0.0
  0
LINE
  5
345
100
AcDbEntity
  8
Layer_1
 62
7
100
AcDbLine
 10
230.102189
 20
160.899680
 30
0.0
 11
233.478914
 21
160.138679
 31
0.0
  0
LINE
  5
346
100
AcDbEntity
  8
Layer_1
 62
7
100
AcDbLine
 10
233.478914
 20
160.138679
 30
0.0
 11
250.376421
 21
184.752866
 31
0.0
  0
LINE
  5
347
100
AcDbEntity
  8
Layer_1
 62
7
100
AcDbLine
 10
250.376421
 20
184.752866
 30
0.0
 11
247.528273
 21
185.912240
 31
0.0
  0
LINE
  5
348
100
AcDbEntity
  8
Layer_1
 62
7
100
AcDbLine
 10
247.528273
 20
185.912240
 30
0.0
 11
244.718128
 21
187.039762
 31
0.0
  0
LINE
  5
349
100
AcDbEntity
  8
Layer_1
 62
7
100
AcDbLine
 10
244.718128
 20
187.039762
 30
0.0
 11
241.818405
 21
187.983343
 31
0.0
  0
LINE
  5
34a
100
AcDbEntity
  8
Layer_1
 62
7
100
AcDbLine
 10
241.818405
 20
187.983343
 30
0.0
 11
238.892943
 21
188.819061
 31
0.0
  0
LINE
  5
34b
100
AcDbEntity
  8
Layer_1
 62
7
100
AcDbLine
 10
238.892943
 20
188.819061
 30
0.0
 11
235.877902
 21
189.470838
 31
0.0
  0
LINE
  5
34c
100
AcDbEntity
  8
Layer_1
 62
7
100
AcDbLine
 10
235.877902
 20
189.470838
 30
0.0
 11
232.875110
 21
189.982839
 31
0.0
  0
LINE
  5
34d
100
AcDbEntity
  8
Layer_1
 62
7
100
AcDbLine
 10
232.875110
 20
189.982839
 30
0.0
 11
229.820744
 21
190.279047
 31
0.0
  0
LINE
  5
34e
100
AcDbEntity
  8
Layer_1
 62
7
100
AcDbLine
 10
229.820744
 20
190.279047
 30
0.0
 11
226.772512
 21
190.505377
 31
0.0
  0
LINE
  5
34f
100
AcDbEntity
  8
Layer_1
 62
7
100
AcDbLine
 10
226.772512
 20
190.505377
 30
0.0
 11
223.710733
 21
190.484005
 31
0.0
  0
LINE
  5
350
100
AcDbEntity
  8
Layer_1
 62
7
100
AcDbLine
 10
223.710733
 20
190.484005
 30
0.0
 11
220.661186
 21
190.322834
 31
0.0
  0
LINE
  5
351
100
AcDbEntity
  8
Layer_1
 62
7
100
AcDbLine
 10
220.661186
 20
190.322834
 30
0.0
 11
217.629981
 21
189.952008
 31
0.0
  0
LINE
  5
352
100
AcDbEntity
  8
Layer_1
 62
7
100
AcDbLine
 10
217.629981
 20
189.952008
 30
0.0
 11
214.579115
 21
189.403377
 31
0.0
  0
LINE
  5
353
100
AcDbEntity
  8
Layer_1
 62
7
100
AcDbLine
 10
214.579115
 20
189.403377
 30
0.0
 11
211.648385
 21
188.689172
 31
0.0
  0
LINE
  5
354
100
AcDbEntity
  8
Layer_1
 62
7
100
AcDbLine
 10
211.648385
 20
188.689172
 30
0.0
 11
208.697973
 21
187.797180
 31
0.0
  0
LINE
  5
355
100
AcDbEntity
  8
Layer_1
 62
7
100
AcDbLine
 10
208.697973
 20
187.797180
 30
0.0
 11
205.797817
 21
186.733521
 31
0.0
  0
LINE
  5
356
100
AcDbEntity
  8
Layer_1
 62
7
100
AcDbLine
 10
205.797817
 20
186.733521
 30
0.0
 11
203.017775
 21
185.504307
 31
0.0
  0
LINE
  5
357
100
AcDbEntity
  8
Layer_1
 62
7
100
AcDbLine
 10
203.017775
 20
185.504307
 30
0.0
 11
200.287972
 21
184.103403
 31
0.0
  0
LINE
  5
358
100
AcDbEntity
  8
Layer_1
 62
7
100
AcDbLine
 10
200.287972
 20
184.103403
 30
0.0
 11
197.640298
 21
182.568817
 31
0.0
  0
LINE
  5
359
100
AcDbEntity
  8
Layer_1
 62
7
100
AcDbLine
 10
197.640298
 20
182.568817
 30
0.0
 11
195.112756
 21
180.868697
 31
0.0
  0
LINE
  5
35a
100
AcDbEntity
  8
Layer_1
 62
7
100
AcDbLine
 10
195.112756
 20
180.868697
 30
0.0
 11
192.705312
 21
179.003000
 31
0.0
  0
LINE
  5
35b
100
AcDbEntity
  8
Layer_1
 62
7
100
AcDbLine
 10
192.705312
 20
179.003000
 30
0.0
 11
190.335914
 21
177.105414
 31
0.0
  0
LINE
  5
35c
100
AcDbEntity
  8
Layer_1
 62
7
100
AcDbLine
 10
190.335914
 20
177.105414
 30
0.0
 11
188.010599
 21
175.106035
 31
0.0
  0
LINE
  5
35d
100
AcDbEntity
  8
Layer_1
 62
7
100
AcDbLine
 10
188.010599
 20
175.106035
 30
0.0
 11
183.436019
 21
171.043536
 31
0.0
  0
LINE
  5
35e
100
AcDbEntity
  8
Layer_1
 62
7
100
AcDbLine
 10
183.436019
 20
171.043536
 30
0.0
 11
179.013449
 21
166.853449
 31
0.0
  0
LINE
  5
35f
100
AcDbEntity
  8
Layer_1
 62
7
100
AcDbLine
 10
179.013449
 20
166.853449
 30
0.0
 11
176.846296
 21
164.656626
 31
0.0
  0
LINE
  5
360
100
AcDbEntity
  8
Layer_1
 62
7
100
AcDbLine
 10
176.846296
 20
164.656626
 30
0.0
 11
174.711016
 21
162.497788
 31
0.0
  0
LINE
  5
361
100
AcDbEntity
  8
Layer_1
 62
7
100
AcDbLine
 10
174.711016
 20
162.497788
 30
0.0
 11
172.651746
 21
160.275207
 31
0.0
  0
LINE
  5
362
100
AcDbEntity
  8
Layer_1
 62
7
100
AcDbLine
 10
172.651746
 20
160.275207
 30
0.0
 11
170.598592
 21
157.982726
 31
0.0
  0
LINE
  5
363
100
AcDbEntity
  8
Layer_1
 62
7
100
AcDbLine
 10
170.598592
 20
157.982726
 30
0.0
 11
168.583427
 21
155.658333
 31
0.0
  0
LINE
  5
364
100
AcDbEntity
  8
Layer_1
 62
7
100
AcDbLine
 10
168.583427
 20
155.658333
 30
0.0
 11
166.638179
 21
153.340076
 31
0.0
  0
LINE
  5
365
100
AcDbEntity
  8
Layer_1
 62
7
100
AcDbLine
 10
166.638179
 20
153.340076
 30
0.0
 11
164.775060
 21
150.888138
 31
0.0
  0
LINE
  5
366
100
AcDbEntity
  8
Layer_1
 62
7
100
AcDbLine
 10
164.775060
 20
150.888138
 30
0.0
 11
162.981801
 21
148.442311
 31
0.0
  0
LINE
  5
367
100
AcDbEntity
  8
Layer_1
 62
7
100
AcDbLine
 10
162.981801
 20
148.442311
 30
0.0
 11
161.232703
 21
145.894697
 31
0.0
  0
LINE
  5
368
100
AcDbEntity
  8
Layer_1
 62
7
100
AcDbLine
 10
161.232703
 20
145.894697
 30
0.0
 11
159.553482
 21
143.353217
 31
0.0
  0
LINE
  5
369
100
AcDbEntity
  8
Layer_1
 62
7
100
AcDbLine
 10
159.553482
 20
143.353217
 30
0.0
 11
157.988243
 21
140.716058
 31
0.0
  0
LINE
  5
36a
100
AcDbEntity
  8
Layer_1
 62
7
100
AcDbLine
 10
157.988243
 20
140.716058
 30
0.0
 11
156.461045
 21
138.047005
 31
0.0
  0
LINE
  5
36b
100
AcDbEntity
  8
Layer_1
 62
7
100
AcDbLine
 10
156.461045
 20
138.047005
 30
0.0
 11
155.041737
 21
135.352199
 31
0.0
  0
LINE
  5
36c
100
AcDbEntity
  8
Layer_1
 62
7
100
AcDbLine
 10
155.041737
 20
135.352199
 30
0.0
 11
153.698447
 21
132.593571
 31
0.0
  0
LINE
  5
36d
100
AcDbEntity
  8
Layer_1
 62
7
100
AcDbLine
 10
153.698447
 20
132.593571
 30
0.0
 11
152.463037
 21
129.809224
 31
0.0
  0
LINE
  5
36e
100
AcDbEntity
  8
Layer_1
 62
7
100
AcDbLine
 10
152.463037
 20
129.809224
 30
0.0
 11
151.265637
 21
126.992946
 31
0.0
  0
LINE
  5
36f
100
AcDbEntity
  8
Layer_1
 62
7
100
AcDbLine
 10
151.265637
 20
126.992946
 30
0.0
 11
150.144252
 21
124.112884
 31
0.0
  0
LINE
  5
370
100
AcDbEntity
  8
Layer_1
 62
7
100
AcDbLine
 10
150.144252
 20
124.112884
 30
0.0
 11
149.162642
 21
121.245072
 31
0.0
  0
LINE
  5
371
100
AcDbEntity
  8
Layer_1
 62
7
100
AcDbLine
 10
149.162642
 20
121.245072
 30
0.0
 11
148.219058
 21
118.345389
 31
0.0
  0
LINE
  5
372
100
AcDbEntity
  8
Layer_1
 62
7
100
AcDbLine
 10
148.219058
 20
118.345389
 30
0.0
 11
147.351470
 21
115.381901
 31
0.0
  0
LINE
  5
373
100
AcDbEntity
  8
Layer_1
 62
7
100
AcDbLine
 10
147.351470
 20
115.381901
 30
0.0
 11
146.623679
 21
112.430644
 31
0.0
  0
LINE
  5
374
100
AcDbEntity
  8
Layer_1
 62
7
100
AcDbLine
 10
146.623679
 20
112.430644
 30
0.0
 11
145.933855
 21
109.447491
 31
0.0
  0
LINE
  5
375
100
AcDbEntity
  8
Layer_1
 62
7
100
AcDbLine
 10
145.933855
 20
109.447491
 30
0.0
 11
145.313970
 21
106.470458
 31
0.0
  0
LINE
  5
376
100
AcDbEntity
  8
Layer_1
 62
7
100
AcDbLine
 10
145.313970
 20
106.470458
 30
0.0
 11
144.770077
 21
103.429659
 31
0.0
  0
LINE
  5
377
100
AcDbEntity
  8
Layer_1
 62
7
100
AcDbLine
 10
144.770077
 20
103.429659
 30
0.0
 11
144.296083
 21
100.394975
 31
0.0
  0
LINE
  5
378
100
AcDbEntity
  8
Layer_1
 62
7
100
AcDbLine
 10
144.296083
 20
100.394975
 30
0.0
 11
143.891948
 21
97.366404
 31
0.0
  0
LINE
  5
379
100
AcDbEntity
  8
Layer_1
 62
7
100
AcDbLine
 10
143.891948
 20
97.366404
 30
0.0
 11
143.557734
 21
94.343929
 31
0.0
  0
LINE
  5
37a
100
AcDbEntity
  8
Layer_1
 62
7
100
AcDbLine
 10
143.557734
 20
94.343929
 30
0.0
 11
143.293436
 21
91.327592
 31
0.0
  0
LINE
  5
37b
100
AcDbEntity
  8
Layer_1
 62
7
100
AcDbLine
 10
143.293436
 20
91.327592
 30
0.0
 11
143.067105
 21
88.279359
 31
0.0
  0
LINE
  5
37c
100
AcDbEntity
  8
Layer_1
 62
7
100
AcDbLine
 10
143.067105
 20
88.279359
 30
0.0
 11
142.948702
 21
85.205332
 31
0.0
  0
LINE
  5
37d
100
AcDbEntity
  8
Layer_1
 62
7
100
AcDbLine
 10
142.948702
 20
85.205332
 30
0.0
 11
142.830278
 21
82.131323
 31
0.0
  0
LINE
  5
37e
100
AcDbEntity
  8
Layer_1
 62
7
100
AcDbLine
 10
142.830278
 20
82.131323
 30
0.0
 11
142.775636
 21
79.133328
 31
0.0
  0
LINE
  5
37f
100
AcDbEntity
  8
Layer_1
 62
7
100
AcDbLine
 10
142.775636
 20
79.133328
 30
0.0
 11
142.765117
 21
76.033543
 31
0.0
  0
LINE
  5
380
100
AcDbEntity
  8
Layer_1
 62
7
100
AcDbLine
 10
142.765117
 20
76.033543
 30
0.0
 11
142.818382
 21
73.009772
 31
0.0
  0
LINE
  5
381
100
AcDbEntity
  8
Layer_1
 62
7
100
AcDbLine
 10
142.818382
 20
73.009772
 30
0.0
 11
142.947660
 21
69.922217
 31
0.0
  0
LINE
  5
382
100
AcDbEntity
  8
Layer_1
 62
7
100
AcDbLine
 10
142.947660
 20
69.922217
 30
0.0
 11
143.140704
 21
66.910655
 31
0.0
  0
LINE
  5
383
100
AcDbEntity
  8
Layer_1
 62
7
100
AcDbLine
 10
143.140704
 20
66.910655
 30
0.0
 11
143.640809
 21
60.791896
 31
0.0
  0
LINE
  5
384
100
AcDbEntity
  8
Layer_1
 62
7
100
AcDbLine
 10
143.640809
 20
60.791896
 30
0.0
 11
144.558162
 21
61.576451
 31
0.0
  0
LINE
  5
385
100
AcDbEntity
  8
Layer_1
 62
7
100
AcDbLine
 10
144.558162
 20
61.576451
 30
0.0
 11
145.469421
 21
62.430887
 31
0.0
  0
LINE
  5
386
100
AcDbEntity
  8
Layer_1
 62
7
100
AcDbLine
 10
145.469421
 20
62.430887
 30
0.0
 11
147.184012
 21
64.165554
 31
0.0
  0
LINE
  5
387
100
AcDbEntity
  8
Layer_1
 62
7
100
AcDbLine
 10
147.184012
 20
64.165554
 30
0.0
 11
150.613215
 21
67.634869
 31
0.0
  0
LINE
  5
388
100
AcDbEntity
  8
Layer_1
 62
7
100
AcDbLine
 10
150.613215
 20
67.634869
 30
0.0
 11
157.395610
 21
74.637243
 31
0.0
  0
LINE
  5
389
100
AcDbEntity
  8
Layer_1
 62
7
100
AcDbLine
 10
157.395610
 20
74.637243
 30
0.0
 11
170.878246
 21
88.775731
 31
0.0
  0
LINE
  5
38a
100
AcDbEntity
  8
Layer_1
 62
7
100
AcDbLine
 10
171.573409
 20
70.605168
 30
0.0
 11
175.008038
 21
70.400344
 31
0.0
  0
LINE
  5
38b
100
AcDbEntity
  8
Layer_1
 62
7
100
AcDbLine
 10
175.008038
 20
70.400344
 30
0.0
 11
176.761350
 21
70.396833
 31
0.0
  0
LINE
  5
38c
100
AcDbEntity
  8
Layer_1
 62
7
100
AcDbLine
 10
176.761350
 20
70.396833
 30
0.0
 11
178.493706
 21
70.438263
 31
0.0
  0
LINE
  5
38d
100
AcDbEntity
  8
Layer_1
 62
7
100
AcDbLine
 10
178.493706
 20
70.438263
 30
0.0
 11
180.208112
 21
70.635585
 31
0.0
  0
LINE
  5
38e
100
AcDbEntity
  8
Layer_1
 62
7
100
AcDbLine
 10
180.208112
 20
70.635585
 30
0.0
 11
181.922529
 21
70.832881
 31
0.0
  0
LINE
  5
38f
100
AcDbEntity
  8
Layer_1
 62
7
100
AcDbLine
 10
181.922529
 20
70.832881
 30
0.0
 11
183.639977
 21
71.141077
 31
0.0
  0
LINE
  5
390
100
AcDbEntity
  8
Layer_1
 62
7
100
AcDbLine
 10
183.639977
 20
71.141077
 30
0.0
 11
185.360429
 21
71.560162
 31
0.0
  0
LINE
  5
391
100
AcDbEntity
  8
Layer_1
 62
7
100
AcDbLine
 10
185.360429
 20
71.560162
 30
0.0
 11
187.014973
 21
72.003258
 31
0.0
  0
LINE
  5
392
100
AcDbEntity
  8
Layer_1
 62
7
100
AcDbLine
 10
187.014973
 20
72.003258
 30
0.0
 11
188.714483
 21
72.467321
 31
0.0
  0
LINE
  5
393
100
AcDbEntity
  8
Layer_1
 62
7
100
AcDbLine
 10
188.714483
 20
72.467321
 30
0.0
 11
190.372043
 21
73.021279
 31
0.0
  0
LINE
  5
394
100
AcDbEntity
  8
Layer_1
 62
7
100
AcDbLine
 10
190.372043
 20
73.021279
 30
0.0
 11
192.008648
 21
73.620240
 31
0.0
  0
LINE
  5
395
100
AcDbEntity
  8
Layer_1
 62
7
100
AcDbLine
 10
192.008648
 20
73.620240
 30
0.0
 11
193.603330
 21
74.309109
 31
0.0
  0
LINE
  5
396
100
AcDbEntity
  8
Layer_1
 62
7
100
AcDbLine
 10
193.603330
 20
74.309109
 30
0.0
 11
195.197985
 21
74.997965
 31
0.0
  0
LINE
  5
397
100
AcDbEntity
  8
Layer_1
 62
7
100
AcDbLine
 10
195.197985
 20
74.997965
 30
0.0
 11
196.816665
 21
75.752768
 31
0.0
  0
LINE
  5
398
100
AcDbEntity
  8
Layer_1
 62
7
100
AcDbLine
 10
196.816665
 20
75.752768
 30
0.0
 11
198.348416
 21
76.576523
 31
0.0
  0
LINE
  5
399
100
AcDbEntity
  8
Layer_1
 62
7
100
AcDbLine
 10
198.348416
 20
76.576523
 30
0.0
 11
199.814271
 21
77.424262
 31
0.0
  0
LINE
  5
39a
100
AcDbEntity
  8
Layer_1
 62
7
100
AcDbLine
 10
199.814271
 20
77.424262
 30
0.0
 11
201.325080
 21
78.292995
 31
0.0
  0
LINE
  5
39b
100
AcDbEntity
  8
Layer_1
 62
7
100
AcDbLine
 10
201.325080
 20
78.292995
 30
0.0
 11
202.793940
 21
79.251623
 31
0.0
  0
LINE
  5
39c
100
AcDbEntity
  8
Layer_1
 62
7
100
AcDbLine
 10
202.793940
 20
79.251623
 30
0.0
 11
204.175922
 21
80.279227
 31
0.0
  0
LINE
  5
39d
100
AcDbEntity
  8
Layer_1
 62
7
100
AcDbLine
 10
204.175922
 20
80.279227
 30
0.0
 11
206.918919
 21
82.379401
 31
0.0
  0
LINE
  5
39e
100
AcDbEntity
  8
Layer_1
 62
7
100
AcDbLine
 10
206.918919
 20
82.379401
 30
0.0
 11
209.578019
 21
84.659428
 31
0.0
  0
LINE
  5
39f
100
AcDbEntity
  8
Layer_1
 62
7
100
AcDbLine
 10
209.578019
 20
84.659428
 30
0.0
 11
212.105287
 21
86.987438
 31
0.0
  0
LINE
  5
3a0
100
AcDbEntity
  8
Layer_1
 62
7
100
AcDbLine
 10
212.105287
 20
86.987438
 30
0.0
 11
214.635573
 21
89.426373
 31
0.0
  0
LINE
  5
3a1
100
AcDbEntity
  8
Layer_1
 62
7
100
AcDbLine
 10
214.635573
 20
89.426373
 30
0.0
 11
217.054946
 21
91.868301
 31
0.0
  0
LINE
  5
3a2
100
AcDbEntity
  8
Layer_1
 62
7
100
AcDbLine
 10
217.054946
 20
91.868301
 30
0.0
 11
219.432420
 21
94.400148
 31
0.0
  0
LINE
  5
3a3
100
AcDbEntity
  8
Layer_1
 62
7
100
AcDbLine
 10
219.432420
 20
94.400148
 30
0.0
 11
221.767945
 21
97.021952
 31
0.0
  0
LINE
  5
3a4
100
AcDbEntity
  8
Layer_1
 62
7
100
AcDbLine
 10
221.767945
 20
97.021952
 30
0.0
 11
223.971615
 21
99.691727
 31
0.0
  0
LINE
  5
3a5
100
AcDbEntity
  8
Layer_1
 62
7
100
AcDbLine
 10
223.971615
 20
99.691727
 30
0.0
 11
226.043441
 21
102.409511
 31
0.0
  0
LINE
  5
3a6
100
AcDbEntity
  8
Layer_1
 62
7
100
AcDbLine
 10
226.043441
 20
102.409511
 30
0.0
 11
228.052338
 21
105.262181
 31
0.0
  0
LINE
  5
3a7
100
AcDbEntity
  8
Layer_1
 62
7
100
AcDbLine
 10
228.052338
 20
105.262181
 30
0.0
 11
229.908435
 21
108.207799
 31
0.0
  0
LINE
  5
3a8
100
AcDbEntity
  8
Layer_1
 62
7
100
AcDbLine
 10
229.908435
 20
108.207799
 30
0.0
 11
230.813982
 21
109.670131
 31
0.0
  0
LINE
  5
3a9
100
AcDbEntity
  8
Layer_1
 62
7
100
AcDbLine
 10
230.813982
 20
109.670131
 30
0.0
 11
231.677605
 21
111.222370
 31
0.0
  0
LINE
  5
3aa
100
AcDbEntity
  8
Layer_1
 62
7
100
AcDbLine
 10
231.677605
 20
111.222370
 30
0.0
 11
232.475319
 21
112.798619
 31
0.0
  0
LINE
  5
3ab
100
AcDbEntity
  8
Layer_1
 62
7
100
AcDbLine
 10
232.475319
 20
112.798619
 30
0.0
 11
233.183101
 21
114.332931
 31
0.0
  0
LINE
  5
3ac
100
AcDbEntity
  8
Layer_1
 62
7
100
AcDbLine
 10
233.183101
 20
114.332931
 30
0.0
 11
233.848921
 21
115.957164
 31
0.0
  0
LINE
  5
3ad
100
AcDbEntity
  8
Layer_1
 62
7
100
AcDbLine
 10
233.848921
 20
115.957164
 30
0.0
 11
234.382898
 21
117.629406
 31
0.0
  0
LINE
  5
3ae
100
AcDbEntity
  8
Layer_1
 62
7
100
AcDbLine
 10
234.382898
 20
117.629406
 30
0.0
 11
234.806000
 21
119.304689
 31
0.0
  0
LINE
  5
3af
100
AcDbEntity
  8
Layer_1
 62
7
100
AcDbLine
 10
234.806000
 20
119.304689
 30
0.0
 11
235.118189
 21
120.982964
 31
0.0
  0
LINE
  5
3b0
100
AcDbEntity
  8
Layer_1
 62
7
100
AcDbLine
 10
235.118189
 20
120.982964
 30
0.0
 11
235.343488
 21
122.730242
 31
0.0
  0
LINE
  5
3b1
100
AcDbEntity
  8
Layer_1
 62
7
100
AcDbLine
 10
235.343488
 20
122.730242
 30
0.0
 11
235.412934
 21
124.459556
 31
0.0
  0
LINE
  5
3b2
100
AcDbEntity
  8
Layer_1
 62
7
100
AcDbLine
 10
235.412934
 20
124.459556
 30
0.0
 11
235.437412
 21
126.167902
 31
0.0
  0
LINE
  5
3b3
100
AcDbEntity
  8
Layer_1
 62
7
100
AcDbLine
 10
235.437412
 20
126.167902
 30
0.0
 11
235.374989
 21
127.945212
 31
0.0
  0
LINE
  5
3b4
100
AcDbEntity
  8
Layer_1
 62
7
100
AcDbLine
 10
235.374989
 20
127.945212
 30
0.0
 11
235.222659
 21
129.680597
 31
0.0
  0
LINE
  5
3b5
100
AcDbEntity
  8
Layer_1
 62
7
100
AcDbLine
 10
235.222659
 20
129.680597
 30
0.0
 11
235.025349
 21
131.394978
 31
0.0
  0
LINE
  5
3b6
100
AcDbEntity
  8
Layer_1
 62
7
100
AcDbLine
 10
235.025349
 20
131.394978
 30
0.0
 11
234.717153
 21
133.112425
 31
0.0
  0
LINE
  5
3b7
100
AcDbEntity
  8
Layer_1
 62
7
100
AcDbLine
 10
234.717153
 20
133.112425
 30
0.0
 11
234.363990
 21
134.808905
 31
0.0
  0
LINE
  5
3b8
100
AcDbEntity
  8
Layer_1
 62
7
100
AcDbLine
 10
234.363990
 20
134.808905
 30
0.0
 11
233.965861
 21
136.484417
 31
0.0
  0
LINE
  5
3b9
100
AcDbEntity
  8
Layer_1
 62
7
100
AcDbLine
 10
233.965861
 20
136.484417
 30
0.0
 11
233.501810
 21
138.183901
 31
0.0
  0
LINE
  5
3ba
100
AcDbEntity
  8
Layer_1
 62
7
100
AcDbLine
 10
233.501810
 20
138.183901
 30
0.0
 11
232.968808
 21
139.796520
 31
0.0
  0
LINE
  5
3bb
100
AcDbEntity
  8
Layer_1
 62
7
100
AcDbLine
 10
232.968808
 20
139.796520
 30
0.0
 11
232.369872
 21
141.433138
 31
0.0
  0
LINE
  5
3bc
100
AcDbEntity
  8
Layer_1
 62
7
100
AcDbLine
 10
232.369872
 20
141.433138
 30
0.0
 11
230.992121
 21
144.622463
 31
0.0
  0
LINE
  5
3bd
100
AcDbEntity
  8
Layer_1
 62
7
100
AcDbLine
 10
230.992121
 20
144.622463
 30
0.0
 11
252.337769
 21
165.524069
 31
0.0
  0
LINE
  5
3be
100
AcDbEntity
  8
Layer_1
 62
7
100
AcDbLine
 10
252.337769
 20
165.524069
 30
0.0
 11
253.976429
 21
162.949071
 31
0.0
  0
LINE
  5
3bf
100
AcDbEntity
  8
Layer_1
 62
7
100
AcDbLine
 10
253.976429
 20
162.949071
 30
0.0
 11
255.570135
 21
160.353079
 31
0.0
  0
LINE
  5
3c0
100
AcDbEntity
  8
Layer_1
 62
7
100
AcDbLine
 10
255.570135
 20
160.353079
 30
0.0
 11
257.049925
 21
157.649254
 31
0.0
  0
LINE
  5
3c1
100
AcDbEntity
  8
Layer_1
 62
7
100
AcDbLine
 10
257.049925
 20
157.649254
 30
0.0
 11
258.328881
 21
154.906523
 31
0.0
  0
LINE
  5
3c2
100
AcDbEntity
  8
Layer_1
 62
7
100
AcDbLine
 10
258.328881
 20
154.906523
 30
0.0
 11
259.538885
 21
152.076864
 31
0.0
  0
LINE
  5
3c3
100
AcDbEntity
  8
Layer_1
 62
7
100
AcDbLine
 10
259.538885
 20
152.076864
 30
0.0
 11
260.503104
 21
149.187368
 31
0.0
  0
LINE
  5
3c4
100
AcDbEntity
  8
Layer_1
 62
7
100
AcDbLine
 10
260.503104
 20
149.187368
 30
0.0
 11
261.377391
 21
146.255936
 31
0.0
  0
LINE
  5
3c5
100
AcDbEntity
  8
Layer_1
 62
7
100
AcDbLine
 10
261.377391
 20
146.255936
 30
0.0
 11
262.116817
 21
143.261586
 31
0.0
  0
LINE
  5
3c6
100
AcDbEntity
  8
Layer_1
 62
7
100
AcDbLine
 10
262.116817
 20
143.261586
 30
0.0
 11
262.634430
 21
140.273322
 31
0.0
  0
LINE
  5
3c7
100
AcDbEntity
  8
Layer_1
 62
7
100
AcDbLine
 10
262.634430
 20
140.273322
 30
0.0
 11
262.972190
 21
137.201161
 31
0.0
  0
LINE
  5
3c8
100
AcDbEntity
  8
Layer_1
 62
7
100
AcDbLine
 10
262.972190
 20
137.201161
 30
0.0
 11
263.133141
 21
134.156039
 31
0.0
  0
LINE
  5
3c9
100
AcDbEntity
  8
Layer_1
 62
7
100
AcDbLine
 10
263.133141
 20
134.156039
 30
0.0
 11
263.138226
 21
131.092979
 31
0.0
  0
LINE
  5
3ca
100
AcDbEntity
  8
Layer_1
 62
7
100
AcDbLine
 10
263.138226
 20
131.092979
 30
0.0
 11
262.921535
 21
128.035991
 31
0.0
  0
LINE
  5
3cb
100
AcDbEntity
  8
Layer_1
 62
7
100
AcDbLine
 10
262.921535
 20
128.035991
 30
0.0
 11
262.572988
 21
125.026974
 31
0.0
  0
LINE
  5
3cc
100
AcDbEntity
  8
Layer_1
 62
7
100
AcDbLine
 10
262.572988
 20
125.026974
 30
0.0
 11
262.023622
 21
121.979088
 31
0.0
  0
LINE
  5
3cd
100
AcDbEntity
  8
Layer_1
 62
7
100
AcDbLine
 10
262.023622
 20
121.979088
 30
0.0
 11
261.276440
 21
119.003159
 31
0.0
  0
LINE
  5
3ce
100
AcDbEntity
  8
Layer_1
 62
7
100
AcDbLine
 10
261.276440
 20
119.003159
 30
0.0
 11
260.397452
 21
116.075225
 31
0.0
  0
LINE
  5
3cf
100
AcDbEntity
  8
Layer_1
 62
7
100
AcDbLine
 10
260.397452
 20
116.075225
 30
0.0
 11
259.320624
 21
113.219298
 31
0.0
  0
LINE
  5
3d0
100
AcDbEntity
  8
Layer_1
 62
7
100
AcDbLine
 10
259.320624
 20
113.219298
 30
0.0
 11
258.090997
 21
110.456320
 31
0.0
  0
LINE
  5
3d1
100
AcDbEntity
  8
Layer_1
 62
7
100
AcDbLine
 10
258.090997
 20
110.456320
 30
0.0
 11
256.684536
 21
107.720370
 31
0.0
  0
LINE
  5
3d2
100
AcDbEntity
  8
Layer_1
 62
7
100
AcDbLine
 10
256.684536
 20
107.720370
 30
0.0
 11
255.191184
 21
105.053359
 31
0.0
  0
LINE
  5
3d3
100
AcDbEntity
  8
Layer_1
 62
7
100
AcDbLine
 10
255.191184
 20
105.053359
 30
0.0
 11
253.631923
 21
102.410358
 31
0.0
  0
LINE
  5
3d4
100
AcDbEntity
  8
Layer_1
 62
7
100
AcDbLine
 10
253.631923
 20
102.410358
 30
0.0
 11
250.405494
 21
97.238300
 31
0.0
  0
LINE
  5
3d5
100
AcDbEntity
  8
Layer_1
 62
7
100
AcDbLine
 10
250.405494
 20
97.238300
 30
0.0
 11
247.047209
 21
92.114213
 31
0.0
  0
LINE
  5
3d6
100
AcDbEntity
  8
Layer_1
 62
7
100
AcDbLine
 10
247.047209
 20
92.114213
 30
0.0
 11
245.314118
 21
89.609128
 31
0.0
  0
LINE
  5
3d7
100
AcDbEntity
  8
Layer_1
 62
7
100
AcDbLine
 10
245.314118
 20
89.609128
 30
0.0
 11
243.494163
 21
87.172994
 31
0.0
  0
LINE
  5
3d8
100
AcDbEntity
  8
Layer_1
 62
7
100
AcDbLine
 10
243.494163
 20
87.172994
 30
0.0
 11
241.674195
 21
84.736886
 31
0.0
  0
LINE
  5
3d9
100
AcDbEntity
  8
Layer_1
 62
7
100
AcDbLine
 10
241.674195
 20
84.736886
 30
0.0
 11
239.788294
 21
82.324776
 31
0.0
  0
LINE
  5
3da
100
AcDbEntity
  8
Layer_1
 62
7
100
AcDbLine
 10
239.788294
 20
82.324776
 30
0.0
 11
237.881410
 21
79.957594
 31
0.0
  0
LINE
  5
3db
100
AcDbEntity
  8
Layer_1
 62
7
100
AcDbLine
 10
237.881410
 20
79.957594
 30
0.0
 11
235.887676
 21
77.659400
 31
0.0
  0
LINE
  5
3dc
100
AcDbEntity
  8
Layer_1
 62
7
100
AcDbLine
 10
235.887676
 20
77.659400
 30
0.0
 11
233.827982
 21
75.385193
 31
0.0
  0
LINE
  5
3dd
100
AcDbEntity
  8
Layer_1
 62
7
100
AcDbLine
 10
233.827982
 20
75.385193
 30
0.0
 11
231.702353
 21
73.134984
 31
0.0
  0
LINE
  5
3de
100
AcDbEntity
  8
Layer_1
 62
7
100
AcDbLine
 10
231.702353
 20
73.134984
 30
0.0
 11
229.513832
 21
71.019648
 31
0.0
  0
LINE
  5
3df
100
AcDbEntity
  8
Layer_1
 62
7
100
AcDbLine
 10
229.513832
 20
71.019648
 30
0.0
 11
227.259365
 21
68.928335
 31
0.0
  0
LINE
  5
3e0
100
AcDbEntity
  8
Layer_1
 62
7
100
AcDbLine
 10
227.259365
 20
68.928335
 30
0.0
 11
224.963000
 21
66.926941
 31
0.0
  0
LINE
  5
3e1
100
AcDbEntity
  8
Layer_1
 62
7
100
AcDbLine
 10
224.963000
 20
66.926941
 30
0.0
 11
222.600674
 21
64.949533
 31
0.0
  0
LINE
  5
3e2
100
AcDbEntity
  8
Layer_1
 62
7
100
AcDbLine
 10
222.600674
 20
64.949533
 30
0.0
 11
220.175470
 21
63.107036
 31
0.0
  0
LINE
  5
3e3
100
AcDbEntity
  8
Layer_1
 62
7
100
AcDbLine
 10
220.175470
 20
63.107036
 30
0.0
 11
217.684344
 21
61.288511
 31
0.0
  0
LINE
  5
3e4
100
AcDbEntity
  8
Layer_1
 62
7
100
AcDbLine
 10
217.684344
 20
61.288511
 30
0.0
 11
215.151256
 21
59.559907
 31
0.0
  0
LINE
  5
3e5
100
AcDbEntity
  8
Layer_1
 62
7
100
AcDbLine
 10
215.151256
 20
59.559907
 30
0.0
 11
212.576258
 21
57.921246
 31
0.0
  0
LINE
  5
3e6
100
AcDbEntity
  8
Layer_1
 62
7
100
AcDbLine
 10
212.576258
 20
57.921246
 30
0.0
 11
209.980265
 21
56.327540
 31
0.0
  0
LINE
  5
3e7
100
AcDbEntity
  8
Layer_1
 62
7
100
AcDbLine
 10
209.980265
 20
56.327540
 30
0.0
 11
207.276428
 21
54.847777
 31
0.0
  0
LINE
  5
3e8
100
AcDbEntity
  8
Layer_1
 62
7
100
AcDbLine
 10
207.276428
 20
54.847777
 30
0.0
 11
204.596602
 21
53.433922
 31
0.0
  0
LINE
  5
3e9
100
AcDbEntity
  8
Layer_1
 62
7
100
AcDbLine
 10
204.596602
 20
53.433922
 30
0.0
 11
201.829847
 21
52.089019
 31
0.0
  0
LINE
  5
3ea
100
AcDbEntity
  8
Layer_1
 62
7
100
AcDbLine
 10
201.829847
 20
52.089019
 30
0.0
 11
199.042149
 21
50.789094
 31
0.0
  0
LINE
  5
3eb
100
AcDbEntity
  8
Layer_1
 62
7
100
AcDbLine
 10
199.042149
 20
50.789094
 30
0.0
 11
196.236514
 21
49.645036
 31
0.0
  0
LINE
  5
3ec
100
AcDbEntity
  8
Layer_1
 62
7
100
AcDbLine
 10
196.236514
 20
49.645036
 30
0.0
 11
193.385925
 21
48.479985
 31
0.0
  0
LINE
  5
3ed
100
AcDbEntity
  8
Layer_1
 62
7
100
AcDbLine
 10
193.385925
 20
48.479985
 30
0.0
 11
190.517359
 21
47.470813
 31
0.0
  0
LINE
  5
3ee
100
AcDbEntity
  8
Layer_1
 62
7
100
AcDbLine
 10
190.517359
 20
47.470813
 30
0.0
 11
187.648832
 21
46.461628
 31
0.0
  0
LINE
  5
3ef
100
AcDbEntity
  8
Layer_1
 62
7
100
AcDbLine
 10
187.648832
 20
46.461628
 30
0.0
 11
184.717400
 21
45.587341
 31
0.0
  0
LINE
  5
3f0
100
AcDbEntity
  8
Layer_1
 62
7
100
AcDbLine
 10
184.717400
 20
45.587341
 30
0.0
 11
181.785943
 21
44.713043
 31
0.0
  0
LINE
  5
3f1
100
AcDbEntity
  8
Layer_1
 62
7
100
AcDbLine
 10
181.785943
 20
44.713043
 30
0.0
 11
178.812587
 21
43.928663
 31
0.0
  0
LINE
  5
3f2
100
AcDbEntity
  8
Layer_1
 62
7
100
AcDbLine
 10
178.812587
 20
43.928663
 30
0.0
 11
175.884159
 21
43.165265
 31
0.0
  0
LINE
  5
3f3
100
AcDbEntity
  8
Layer_1
 62
7
100
AcDbLine
 10
175.884159
 20
43.165265
 30
0.0
 11
172.913834
 21
42.491785
 31
0.0
  0
LINE
  5
3f4
100
AcDbEntity
  8
Layer_1
 62
7
100
AcDbLine
 10
172.913834
 20
42.491785
 30
0.0
 11
169.922502
 21
41.863285
 31
0.0
  0
LINE
  5
3f5
100
AcDbEntity
  8
Layer_1
 62
7
100
AcDbLine
 10
169.922502
 20
41.863285
 30
0.0
 11
166.910240
 21
41.279738
 31
0.0
  0
LINE
  5
3f6
100
AcDbEntity
  8
Layer_1
 62
7
100
AcDbLine
 10
166.910240
 20
41.279738
 30
0.0
 11
163.876984
 21
40.741145
 31
0.0
  0
LINE
  5
3f7
100
AcDbEntity
  8
Layer_1
 62
7
100
AcDbLine
 10
163.876984
 20
40.741145
 30
0.0
 11
160.867752
 21
40.268498
 31
0.0
  0
LINE
  5
3f8
100
AcDbEntity
  8
Layer_1
 62
7
100
AcDbLine
 10
160.867752
 20
40.268498
 30
0.0
 11
157.837538
 21
39.840780
 31
0.0
  0
LINE
  5
3f9
100
AcDbEntity
  8
Layer_1
 62
7
100
AcDbLine
 10
157.837538
 20
39.840780
 30
0.0
 11
154.810343
 21
39.523988
 31
0.0
  0
LINE
  5
3fa
100
AcDbEntity
  8
Layer_1
 62
7
100
AcDbLine
 10
154.810343
 20
39.523988
 30
0.0
 11
148.714053
 21
38.980322
 31
0.0
  0
LINE
  5
3fb
100
AcDbEntity
  8
Layer_1
 62
7
100
AcDbLine
 10
148.714053
 20
38.980322
 30
0.0
 11
149.319770
 21
40.029123
 31
0.0
  0
LINE
  5
3fc
100
AcDbEntity
  8
Layer_1
 62
7
100
AcDbLine
 10
149.319770
 20
40.029123
 30
0.0
 11
150.036414
 21
41.074905
 31
0.0
  0
LINE
  5
3fd
100
AcDbEntity
  8
Layer_1
 62
7
100
AcDbLine
 10
150.036414
 20
41.074905
 30
0.0
 11
151.421641
 21
43.034603
 31
0.0
  0
LINE
  5
3fe
100
AcDbEntity
  8
Layer_1
 62
7
100
AcDbLine
 10
151.421641
 20
43.034603
 30
0.0
 11
154.216145
 21
47.019958
 31
0.0
  0
LINE
  5
3ff
100
AcDbEntity
  8
Layer_1
 62
7
100
AcDbLine
 10
154.216145
 20
47.019958
 30
0.0
 11
159.957939
 21
54.897681
 31
0.0
  0
LINE
  5
400
100
AcDbEntity
  8
Layer_1
 62
7
100
AcDbLine
 10
159.957939
 20
54.897681
 30
0.0
 11
171.573409
 21
70.605168
 31
0.0
  0
ENDSEC
  0
SECTION
  2
OBJECTS
  0
DICTIONARY
  5
C
330
0
100
AcDbDictionary
  3
ACAD_GROUP
350
D
  3
ACAD_MLINESTYLE
350
17
  0
DICTIONARY
  5
D
330
C
100
AcDbDictionary
  0
DICTIONARY
  5
1A
330
C
100
AcDbDictionary
  0
DICTIONARY
  5
17
330
C
100
AcDbDictionary
  3
STANDARD
350
18
  0
DICTIONARY
  5
19
330
C
100
AcDbDictionary
  0
ENDSEC
  0
EOF
