  0
SECTION
  2
HEADER
  9
$ACADVER
  1
AC1014
  9
$HANDSEED
  5
FFFF
  9
$MEASUREMENT
 70
     1
  0
ENDSEC
  0
SECTION
  2
TABLES
  0
TABLE
  2
VPORT
  5
8
330
0
100
AcDbSymbolTable
 70
     4
  0
VPORT
  5
2E
330
8
100
AcDbSymbolTableRecord
100
AcDbViewportTableRecord
  2
*ACTIVE
 70
     0
 10
0.0
 20
0.0
 11
1.0
 21
1.0
 12
210.0
 22
148.5
 13
0.0
 23
0.0
 14
10.0
 24
10.0
 15
10.0
 25
10.0
 16
0.0
 26
0.0
 36
1.0
 17
0.0
 27
0.0
 37
0.0
 40
341.0
 41
1.24
 42
50.0
 43
0.0
 44
0.0
 50
0.0
 51
0.0
 71
     0
 72
   100
 73
     1
 74
     3
 75
     0
 76
     0
 77
     0
 78
     0
  0
ENDTAB
  0
TABLE
  2
LTYPE
  5
5
330
0
100
AcDbSymbolTable
 70
     1
  0
LTYPE
  5
14
330
5
100
AcDbSymbolTableRecord
100
AcDbLinetypeTableRecord
  2
BYBLOCK
 70
     0
  3

 72
    65
 73
     0
 40
0.0
  0
LTYPE
  5
15
330
5
100
AcDbSymbolTableRecord
100
AcDbLinetypeTableRecord
  2
BYLAYER
 70
     0
  3

 72
    65
 73
     0
 40
0.0
  0
LTYPE
  5
16
330
5
100
AcDbSymbolTableRecord
100
AcDbLinetypeTableRecord
  2
CONTINUOUS
 70
     0
  3
Solid line
 72
    65
 73
     0
 40
0.0
  0
ENDTAB
  0
TABLE
  2
LAYER
  5
2
100
AcDbSymbolTable
 70
2
  0
LAYER
  5
50
100
AcDbSymbolTableRecord
100
AcDbLayerTableRecord
  2
0
 70
0
  6
CONTINUOUS
  0
LAYER
  5
51
100
AcDbSymbolTableRecord
100
AcDbLayerTableRecord
  2
Layer_1
 70
0
  6
CONTINUOUS
  0
ENDTAB
  0
TABLE
  2
STYLE
  5
3
330
0
100
AcDbSymbolTable
 70
     1
  0
STYLE
  5
11
330
3
100
AcDbSymbolTableRecord
100
AcDbTextStyleTableRecord
  2
STANDARD
 70
     0
 40
0.0
 41
1.0
 50
0.0
 71
     0
 42
2.5
  3
txt
  4

  0
ENDTAB
  0
TABLE
  2
VIEW
  5
6
330
0
100
AcDbSymbolTable
 70
     0
  0
ENDTAB
  0
TABLE
  2
UCS
  5
7
330
0
100
AcDbSymbolTable
 70
     0
  0
ENDTAB
  0
TABLE
  2
APPID
  5
9
330
0
100
AcDbSymbolTable
 70
     2
  0
APPID
  5
12
330
9
100
AcDbSymbolTableRecord
100
AcDbRegAppTableRecord
  2
ACAD
 70
     0
  0
ENDTAB
  0
TABLE
  2
DIMSTYLE
  5
A
330
0
100
AcDbSymbolTable
 70
     1
  0
DIMSTYLE
105
27
330
A
100
AcDbSymbolTableRecord
100
AcDbDimStyleTableRecord
  2
ISO-25
 70
     0
  3

  4

  5

  6

  7

 40
1.0
 41
2.5
 42
0.625
 43
3.75
 44
1.25
 45
0.0
 46
0.0
 47
0.0
 48
0.0
140
2.5
141
2.5
142
0.0
143
0.03937007874016
144
1.0
145
0.0
146
1.0
147
0.625
 71
     0
 72
     0
 73
     0
 74
     0
 75
     0
 76
     0
 77
     1
 78
     8
170
     0
171
     3
172
     1
173
     0
174
     0
175
     0
176
     0
177
     0
178
     0
270
     2
271
     2
272
     2
273
     2
274
     3
340
11
275
     0
280
     0
281
     0
282
     0
283
     0
284
     8
285
     0
286
     0
287
     3
288
     0
  0
ENDTAB
  0
TABLE
  2
BLOCK_RECORD
  5
1
330
0
100
AcDbSymbolTable
 70
     1
  0
BLOCK_RECORD
  5
1F
330
1
100
AcDbSymbolTableRecord
100
AcDbBlockTableRecord
  2
*MODEL_SPACE
  0
BLOCK_RECORD
  5
1B
330
1
100
AcDbSymbolTableRecord
100
AcDbBlockTableRecord
  2
*PAPER_SPACE
  0
ENDTAB
  0
ENDSEC
  0
SECTION
  2
BLOCKS
  0
BLOCK
  5
20
330
1F
100
AcDbEntity
  8
0
100
AcDbBlockBegin
  2
*MODEL_SPACE
 70
     0
 10
0.0
 20
0.0
 30
0.0
  3
*MODEL_SPACE
  1

  0
ENDBLK
  5
21
330
1F
100
AcDbEntity
  8
0
100
AcDbBlockEnd
  0
BLOCK
  5
1C
330
1B
100
AcDbEntity
 67
     1
  8
0
100
AcDbBlockBegin
  2
*PAPER_SPACE
  1

  0
ENDBLK
  5
1D
330
1B
100
AcDbEntity
 67
     1
  8
0
100
AcDbBlockEnd
  0
ENDSEC
  0
SECTION
  2
ENTITIES
  0
LINE
  5
100
100
AcDbEntity
  8
Layer_1
 62
7
100
AcDbLine
 10
132.452819
 20
419.783119
 30
0.0
 11
676.042083
 21
419.783119
 31
0.0
  0
LINE
  5
101
100
AcDbEntity
  8
Layer_1
 62
7
100
AcDbLine
 10
249.584724
 20
282.608316
 30
0.0
 11
247.749123
 21
275.017811
 31
0.0
  0
LINE
  5
102
100
AcDbEntity
  8
Layer_1
 62
7
100
AcDbLine
 10
649.797791
 20
358.463750
 30
0.0
 11
659.025462
 21
357.471527
 31
0.0
  0
LINE
  5
103
100
AcDbEntity
  8
Layer_1
 62
7
100
AcDbLine
 10
659.025462
 20
357.471527
 30
0.0
 11
652.972904
 21
286.229930
 31
0.0
  0
LINE
  5
104
100
AcDbEntity
  8
Layer_1
 62
7
100
AcDbLine
 10
641.512728
 20
268.320308
 30
0.0
 11
664.631521
 21
265.839749
 31
0.0
  0
LINE
  5
105
100
AcDbEntity
  8
Layer_1
 62
7
100
AcDbLine
 10
664.631521
 20
265.839749
 30
0.0
 11
658.082850
 21
177.730364
 31
0.0
  0
LINE
  5
106
100
AcDbEntity
  8
Layer_1
 62
7
100
AcDbLine
 10
658.082850
 20
177.730364
 30
0.0
 11
468.667516
 21
193.754765
 31
0.0
  0
LINE
  5
107
100
AcDbEntity
  8
Layer_1
 62
7
100
AcDbLine
 10
468.667516
 20
193.754765
 30
0.0
 11
364.682569
 21
212.309330
 31
0.0
  0
LINE
  5
108
100
AcDbEntity
  8
Layer_1
 62
7
100
AcDbLine
 10
364.682569
 20
212.309330
 30
0.0
 11
366.170896
 21
246.144129
 31
0.0
  0
LINE
  5
109
100
AcDbEntity
  8
Layer_1
 62
7
100
AcDbLine
 10
128.583157
 20
279.582036
 30
0.0
 11
128.980046
 21
293.324322
 31
0.0
  0
LINE
  5
10a
100
AcDbEntity
  8
Layer_1
 62
7
100
AcDbLine
 10
672.767748
 20
375.529982
 30
0.0
 11
676.042083
 21
419.783119
 31
0.0
  0
LINE
  5
10b
100
AcDbEntity
  8
Layer_1
 62
7
100
AcDbLine
 10
135.082199
 20
298.136602
 30
0.0
 11
247.749123
 21
275.017811
 31
0.0
  0
LINE
  5
10c
100
AcDbEntity
  8
Layer_1
 62
7
100
AcDbLine
 10
253.950504
 20
273.777532
 30
0.0
 11
361.904345
 21
251.601353
 31
0.0
  0
SPLINE
  5
10d
100
AcDbEntity
  8
Layer_1
 62
7
100
AcDbSpline
 70
8
 71
3
 72
8
 73
4
 74
0
 40
0
 40
0
 40
0
 40
0
 40
1
 40
1
 40
1
 40
1
 10
361.860149
 20
251.641324
 30
0.0
 10
364.426227
 20
251.114762
 30
0.0
 10
366.229994
 20
248.802541
 30
0.0
 10
366.116258
 20
246.185429
 30
0.0
  0
SPLINE
  5
10e
100
AcDbEntity
  8
Layer_1
 62
7
100
AcDbSpline
 70
8
 71
3
 72
8
 73
4
 74
0
 40
0
 40
0
 40
0
 40
0
 40
1
 40
1
 40
1
 40
1
 10
128.932576
 20
293.347987
 30
0.0
 10
128.976208
 20
294.849427
 30
0.0
 10
129.681397
 20
296.254772
 30
0.0
 10
130.859053
 20
297.187159
 30
0.0
  0
SPLINE
  5
10f
100
AcDbEntity
  8
Layer_1
 62
7
100
AcDbSpline
 70
8
 71
3
 72
8
 73
4
 74
0
 40
0
 40
0
 40
0
 40
0
 40
1
 40
1
 40
1
 40
1
 10
130.859053
 20
297.187159
 30
0.0
 10
132.036682
 20
298.119551
 30
0.0
 10
133.566298
 20
298.483562
 30
0.0
 10
135.037749
 20
298.181634
 30
0.0
  0
LINE
  5
110
100
AcDbEntity
  8
Layer_1
 62
7
100
AcDbLine
 10
652.972904
 20
286.229930
 30
0.0
 11
643.100285
 21
287.321374
 31
0.0
  0
LINE
  5
111
100
AcDbEntity
  8
Layer_1
 62
7
100
AcDbLine
 10
643.100285
 20
287.321374
 30
0.0
 11
641.512728
 21
268.320308
 31
0.0
  0
LINE
  5
112
100
AcDbEntity
  8
Layer_1
 62
7
100
AcDbLine
 10
672.767748
 20
375.529982
 30
0.0
 11
651.087679
 21
377.365592
 31
0.0
  0
LINE
  5
113
100
AcDbEntity
  8
Layer_1
 62
7
100
AcDbLine
 10
651.087679
 20
377.365592
 30
0.0
 11
649.797791
 21
358.463750
 31
0.0
  0
LINE
  5
114
100
AcDbEntity
  8
Layer_1
 62
7
100
AcDbLine
 10
253.950504
 20
273.777532
 30
0.0
 11
255.736491
 21
281.119980
 31
0.0
  0
SPLINE
  5
115
100
AcDbEntity
  8
Layer_1
 62
7
100
AcDbSpline
 70
8
 71
3
 72
8
 73
4
 74
0
 40
0
 40
0
 40
0
 40
0
 40
1
 40
1
 40
1
 40
1
 10
249.527320
 20
282.648307
 30
0.0
 10
249.946674
 20
284.365076
 30
0.0
 10
251.678361
 20
285.416842
 30
0.0
 10
253.395148
 20
284.997474
 30
0.0
  0
SPLINE
  5
116
100
AcDbEntity
  8
Layer_1
 62
7
100
AcDbSpline
 70
8
 71
3
 72
8
 73
4
 74
0
 40
0
 40
0
 40
0
 40
0
 40
1
 40
1
 40
1
 40
1
 10
253.395148
 20
284.997474
 30
0.0
 10
255.111962
 20
284.578080
 30
0.0
 10
256.163719
 20
282.846390
 30
0.0
 10
255.744281
 20
281.129596
 30
0.0
  0
LINE
  5
117
100
AcDbEntity
  8
Layer_1
 62
7
100
AcDbLine
 10
128.583157
 20
279.582036
 30
0.0
 11
123.969303
 21
282.806761
 31
0.0
  0
LINE
  5
118
100
AcDbEntity
  8
Layer_1
 62
7
100
AcDbLine
 10
123.969303
 20
282.806761
 30
0.0
 11
121.637583
 21
284.443929
 31
0.0
  0
LINE
  5
119
100
AcDbEntity
  8
Layer_1
 62
7
100
AcDbLine
 10
121.637583
 20
284.443929
 30
0.0
 11
119.405092
 21
286.130706
 31
0.0
  0
LINE
  5
11a
100
AcDbEntity
  8
Layer_1
 62
7
100
AcDbLine
 10
119.405092
 20
286.130706
 30
0.0
 11
117.172602
 21
287.867095
 31
0.0
  0
LINE
  5
11b
100
AcDbEntity
  8
Layer_1
 62
7
100
AcDbLine
 10
117.172602
 20
287.867095
 30
0.0
 11
114.989697
 21
289.653096
 31
0.0
  0
LINE
  5
11c
100
AcDbEntity
  8
Layer_1
 62
7
100
AcDbLine
 10
114.989697
 20
289.653096
 30
0.0
 11
112.856408
 21
291.488709
 31
0.0
  0
LINE
  5
11d
100
AcDbEntity
  8
Layer_1
 62
7
100
AcDbLine
 10
112.856408
 20
291.488709
 30
0.0
 11
110.772761
 21
293.373934
 31
0.0
  0
LINE
  5
11e
100
AcDbEntity
  8
Layer_1
 62
7
100
AcDbLine
 10
110.772761
 20
293.373934
 30
0.0
 11
108.689086
 21
295.308767
 31
0.0
  0
LINE
  5
11f
100
AcDbEntity
  8
Layer_1
 62
7
100
AcDbLine
 10
108.689086
 20
295.308767
 30
0.0
 11
106.704641
 21
297.293213
 31
0.0
  0
LINE
  5
120
100
AcDbEntity
  8
Layer_1
 62
7
100
AcDbLine
 10
106.704641
 20
297.293213
 30
0.0
 11
104.769810
 21
299.327270
 31
0.0
  0
LINE
  5
121
100
AcDbEntity
  8
Layer_1
 62
7
100
AcDbLine
 10
104.769810
 20
299.327270
 30
0.0
 11
102.884593
 21
301.410937
 31
0.0
  0
LINE
  5
122
100
AcDbEntity
  8
Layer_1
 62
7
100
AcDbLine
 10
102.884593
 20
301.410937
 30
0.0
 11
101.048964
 21
303.593828
 31
0.0
  0
LINE
  5
123
100
AcDbEntity
  8
Layer_1
 62
7
100
AcDbLine
 10
101.048964
 20
303.593828
 30
0.0
 11
99.262977
 21
305.776718
 31
0.0
  0
LINE
  5
124
100
AcDbEntity
  8
Layer_1
 62
7
100
AcDbLine
 10
99.262977
 20
305.776718
 30
0.0
 11
97.576191
 21
308.058830
 31
0.0
  0
LINE
  5
125
100
AcDbEntity
  8
Layer_1
 62
7
100
AcDbLine
 10
97.576191
 20
308.058830
 30
0.0
 11
95.939020
 21
310.340943
 31
0.0
  0
LINE
  5
126
100
AcDbEntity
  8
Layer_1
 62
7
100
AcDbLine
 10
95.939020
 20
310.340943
 30
0.0
 11
94.401078
 21
312.722277
 31
0.0
  0
LINE
  5
127
100
AcDbEntity
  8
Layer_1
 62
7
100
AcDbLine
 10
94.401078
 20
312.722277
 30
0.0
 11
92.962365
 21
315.153223
 31
0.0
  0
LINE
  5
128
100
AcDbEntity
  8
Layer_1
 62
7
100
AcDbLine
 10
92.962365
 20
315.153223
 30
0.0
 11
91.573239
 21
317.584169
 31
0.0
  0
LINE
  5
129
100
AcDbEntity
  8
Layer_1
 62
7
100
AcDbLine
 10
91.573239
 20
317.584169
 30
0.0
 11
90.283343
 21
320.114337
 31
0.0
  0
LINE
  5
12a
100
AcDbEntity
  8
Layer_1
 62
7
100
AcDbLine
 10
90.283343
 20
320.114337
 30
0.0
 11
89.092675
 21
322.694117
 31
0.0
  0
LINE
  5
12b
100
AcDbEntity
  8
Layer_1
 62
7
100
AcDbLine
 10
89.092675
 20
322.694117
 30
0.0
 11
88.001237
 21
325.273896
 31
0.0
  0
LINE
  5
12c
100
AcDbEntity
  8
Layer_1
 62
7
100
AcDbLine
 10
88.001237
 20
325.273896
 30
0.0
 11
87.009029
 21
327.903286
 31
0.0
  0
LINE
  5
12d
100
AcDbEntity
  8
Layer_1
 62
7
100
AcDbLine
 10
87.009029
 20
327.903286
 30
0.0
 11
86.116021
 21
330.631899
 31
0.0
  0
LINE
  5
12e
100
AcDbEntity
  8
Layer_1
 62
7
100
AcDbLine
 10
86.116021
 20
330.631899
 30
0.0
 11
85.371857
 21
333.310901
 31
0.0
  0
LINE
  5
12f
100
AcDbEntity
  8
Layer_1
 62
7
100
AcDbLine
 10
85.371857
 20
333.310901
 30
0.0
 11
84.677280
 21
336.089124
 31
0.0
  0
LINE
  5
130
100
AcDbEntity
  8
Layer_1
 62
7
100
AcDbLine
 10
84.677280
 20
336.089124
 30
0.0
 11
84.131575
 21
338.817737
 31
0.0
  0
LINE
  5
131
100
AcDbEntity
  8
Layer_1
 62
7
100
AcDbLine
 10
84.131575
 20
338.817737
 30
0.0
 11
83.685072
 21
341.645572
 31
0.0
  0
LINE
  5
132
100
AcDbEntity
  8
Layer_1
 62
7
100
AcDbLine
 10
83.685072
 20
341.645572
 30
0.0
 11
83.337797
 21
344.423796
 31
0.0
  0
LINE
  5
133
100
AcDbEntity
  8
Layer_1
 62
7
100
AcDbLine
 10
83.337797
 20
344.423796
 30
0.0
 11
83.139338
 21
347.251631
 31
0.0
  0
LINE
  5
134
100
AcDbEntity
  8
Layer_1
 62
7
100
AcDbLine
 10
83.139338
 20
347.251631
 30
0.0
 11
82.990523
 21
350.079466
 31
0.0
  0
LINE
  5
135
100
AcDbEntity
  8
Layer_1
 62
7
100
AcDbLine
 10
82.990523
 20
350.079466
 30
0.0
 11
83.040137
 21
352.907302
 31
0.0
  0
LINE
  5
136
100
AcDbEntity
  8
Layer_1
 62
7
100
AcDbLine
 10
83.040137
 20
352.907302
 30
0.0
 11
83.139338
 21
355.735135
 31
0.0
  0
LINE
  5
137
100
AcDbEntity
  8
Layer_1
 62
7
100
AcDbLine
 10
83.139338
 20
355.735135
 30
0.0
 11
83.337797
 21
358.513359
 31
0.0
  0
LINE
  5
138
100
AcDbEntity
  8
Layer_1
 62
7
100
AcDbLine
 10
83.337797
 20
358.513359
 30
0.0
 11
83.635457
 21
361.341195
 31
0.0
  0
LINE
  5
139
100
AcDbEntity
  8
Layer_1
 62
7
100
AcDbLine
 10
83.635457
 20
361.341195
 30
0.0
 11
83.982731
 21
364.119418
 31
0.0
  0
LINE
  5
13a
100
AcDbEntity
  8
Layer_1
 62
7
100
AcDbLine
 10
83.982731
 20
364.119418
 30
0.0
 11
84.429235
 21
366.947254
 31
0.0
  0
LINE
  5
13b
100
AcDbEntity
  8
Layer_1
 62
7
100
AcDbLine
 10
84.429235
 20
366.947254
 30
0.0
 11
84.974968
 21
369.725478
 31
0.0
  0
LINE
  5
13c
100
AcDbEntity
  8
Layer_1
 62
7
100
AcDbLine
 10
84.974968
 20
369.725478
 30
0.0
 11
85.570288
 21
372.454090
 31
0.0
  0
LINE
  5
13d
100
AcDbEntity
  8
Layer_1
 62
7
100
AcDbLine
 10
85.570288
 20
372.454090
 30
0.0
 11
86.264837
 21
375.182702
 31
0.0
  0
LINE
  5
13e
100
AcDbEntity
  8
Layer_1
 62
7
100
AcDbLine
 10
86.264837
 20
375.182702
 30
0.0
 11
87.058615
 21
377.911317
 31
0.0
  0
LINE
  5
13f
100
AcDbEntity
  8
Layer_1
 62
7
100
AcDbLine
 10
87.058615
 20
377.911317
 30
0.0
 11
88.001237
 21
380.590317
 31
0.0
  0
LINE
  5
140
100
AcDbEntity
  8
Layer_1
 62
7
100
AcDbLine
 10
88.001237
 20
380.590317
 30
0.0
 11
88.993474
 21
383.219708
 31
0.0
  0
LINE
  5
141
100
AcDbEntity
  8
Layer_1
 62
7
100
AcDbLine
 10
88.993474
 20
383.219708
 30
0.0
 11
90.084912
 21
385.799487
 31
0.0
  0
LINE
  5
142
100
AcDbEntity
  8
Layer_1
 62
7
100
AcDbLine
 10
90.084912
 20
385.799487
 30
0.0
 11
91.325194
 21
388.379267
 31
0.0
  0
LINE
  5
143
100
AcDbEntity
  8
Layer_1
 62
7
100
AcDbLine
 10
91.325194
 20
388.379267
 30
0.0
 11
92.615063
 21
390.859822
 31
0.0
  0
LINE
  5
144
100
AcDbEntity
  8
Layer_1
 62
7
100
AcDbLine
 10
92.615063
 20
390.859822
 30
0.0
 11
94.053803
 21
393.290769
 31
0.0
  0
LINE
  5
145
100
AcDbEntity
  8
Layer_1
 62
7
100
AcDbLine
 10
94.053803
 20
393.290769
 30
0.0
 11
95.591745
 21
395.672104
 31
0.0
  0
LINE
  5
146
100
AcDbEntity
  8
Layer_1
 62
7
100
AcDbLine
 10
95.591745
 20
395.672104
 30
0.0
 11
97.228916
 21
398.003826
 31
0.0
  0
LINE
  5
147
100
AcDbEntity
  8
Layer_1
 62
7
100
AcDbLine
 10
97.228916
 20
398.003826
 30
0.0
 11
98.965289
 21
400.236328
 31
0.0
  0
LINE
  5
148
100
AcDbEntity
  8
Layer_1
 62
7
100
AcDbLine
 10
98.965289
 20
400.236328
 30
0.0
 11
100.800918
 21
402.369607
 31
0.0
  0
LINE
  5
149
100
AcDbEntity
  8
Layer_1
 62
7
100
AcDbLine
 10
100.800918
 20
402.369607
 30
0.0
 11
102.785364
 21
404.403664
 31
0.0
  0
LINE
  5
14a
100
AcDbEntity
  8
Layer_1
 62
7
100
AcDbLine
 10
102.785364
 20
404.403664
 30
0.0
 11
104.819424
 21
406.338498
 31
0.0
  0
LINE
  5
14b
100
AcDbEntity
  8
Layer_1
 62
7
100
AcDbLine
 10
104.819424
 20
406.338498
 30
0.0
 11
107.002300
 21
408.174111
 31
0.0
  0
LINE
  5
14c
100
AcDbEntity
  8
Layer_1
 62
7
100
AcDbLine
 10
107.002300
 20
408.174111
 30
0.0
 11
109.234819
 21
409.860891
 31
0.0
  0
LINE
  5
14d
100
AcDbEntity
  8
Layer_1
 62
7
100
AcDbLine
 10
109.234819
 20
409.860891
 30
0.0
 11
111.566539
 21
411.448448
 31
0.0
  0
LINE
  5
14e
100
AcDbEntity
  8
Layer_1
 62
7
100
AcDbLine
 10
111.566539
 20
411.448448
 30
0.0
 11
113.997489
 21
412.936780
 31
0.0
  0
LINE
  5
14f
100
AcDbEntity
  8
Layer_1
 62
7
100
AcDbLine
 10
113.997489
 20
412.936780
 30
0.0
 11
116.478025
 21
414.325892
 31
0.0
  0
LINE
  5
150
100
AcDbEntity
  8
Layer_1
 62
7
100
AcDbLine
 10
116.478025
 20
414.325892
 30
0.0
 11
119.008203
 21
415.566171
 31
0.0
  0
LINE
  5
151
100
AcDbEntity
  8
Layer_1
 62
7
100
AcDbLine
 10
119.008203
 20
415.566171
 30
0.0
 11
121.587969
 21
416.707227
 31
0.0
  0
LINE
  5
152
100
AcDbEntity
  8
Layer_1
 62
7
100
AcDbLine
 10
121.587969
 20
416.707227
 30
0.0
 11
124.217377
 21
417.699450
 31
0.0
  0
LINE
  5
153
100
AcDbEntity
  8
Layer_1
 62
7
100
AcDbLine
 10
124.217377
 20
417.699450
 30
0.0
 11
126.945986
 21
418.542840
 31
0.0
  0
LINE
  5
154
100
AcDbEntity
  8
Layer_1
 62
7
100
AcDbLine
 10
126.945986
 20
418.542840
 30
0.0
 11
129.674595
 21
419.187785
 31
0.0
  0
LINE
  5
155
100
AcDbEntity
  8
Layer_1
 62
7
100
AcDbLine
 10
129.674595
 20
419.187785
 30
0.0
 11
132.452819
 21
419.783119
 31
0.0
  0
LINE
  5
156
100
AcDbEntity
  8
Layer_1
 62
7
100
AcDbLine
 10
284.771755
 20
346.100329
 30
0.0
 11
284.669436
 21
345.798911
 31
0.0
  0
SPLINE
  5
157
100
AcDbEntity
  8
Layer_1
 62
7
100
AcDbSpline
 70
8
 71
3
 72
8
 73
4
 74
0
 40
0
 40
0
 40
0
 40
0
 40
1
 40
1
 40
1
 40
1
 10
284.669436
 20
345.798911
 30
0.0
 10
284.789288
 20
345.754090
 30
0.0
 10
284.882584
 20
345.695553
 30
0.0
 10
284.949321
 20
345.623298
 30
0.0
  0
SPLINE
  5
158
100
AcDbEntity
  8
Layer_1
 62
7
100
AcDbSpline
 70
8
 71
3
 72
8
 73
4
 74
0
 40
0
 40
0
 40
0
 40
0
 40
1
 40
1
 40
1
 40
1
 10
284.949321
 20
345.623298
 30
0.0
 10
285.014670
 20
345.550197
 30
0.0
 10
285.058289
 20
345.451496
 30
0.0
 10
285.080178
 20
345.327195
 30
0.0
  0
SPLINE
  5
159
100
AcDbEntity
  8
Layer_1
 62
7
100
AcDbSpline
 70
8
 71
3
 72
8
 73
4
 74
0
 40
0
 40
0
 40
0
 40
0
 40
1
 40
1
 40
1
 40
1
 10
285.080178
 20
345.327195
 30
0.0
 10
285.100934
 20
345.203171
 30
0.0
 10
285.094131
 20
345.071031
 30
0.0
 10
285.059771
 20
344.930777
 30
0.0
  0
SPLINE
  5
15a
100
AcDbEntity
  8
Layer_1
 62
7
100
AcDbSpline
 70
8
 71
3
 72
8
 73
4
 74
0
 40
0
 40
0
 40
0
 40
0
 40
1
 40
1
 40
1
 40
1
 10
285.059771
 20
344.930777
 30
0.0
 10
285.029259
 20
344.806230
 30
0.0
 10
284.983808
 20
344.700804
 30
0.0
 10
284.923418
 20
344.614500
 30
0.0
  0
SPLINE
  5
15b
100
AcDbEntity
  8
Layer_1
 62
7
100
AcDbSpline
 70
8
 71
3
 72
8
 73
4
 74
0
 40
0
 40
0
 40
0
 40
0
 40
1
 40
1
 40
1
 40
1
 10
284.923418
 20
344.614500
 30
0.0
 10
284.863011
 20
344.528201
 30
0.0
 10
284.795201
 20
344.469882
 30
0.0
 10
284.719988
 20
344.439543
 30
0.0
  0
SPLINE
  5
15c
100
AcDbEntity
  8
Layer_1
 62
7
100
AcDbSpline
 70
8
 71
3
 72
8
 73
4
 74
0
 40
0
 40
0
 40
0
 40
0
 40
1
 40
1
 40
1
 40
1
 10
284.719988
 20
344.439543
 30
0.0
 10
284.643350
 20
344.408364
 30
0.0
 10
284.566883
 20
344.402120
 30
0.0
 10
284.490587
 20
344.420811
 30
0.0
  0
SPLINE
  5
15d
100
AcDbEntity
  8
Layer_1
 62
7
100
AcDbSpline
 70
8
 71
3
 72
8
 73
4
 74
0
 40
0
 40
0
 40
0
 40
0
 40
1
 40
1
 40
1
 40
1
 10
284.490587
 20
344.420811
 30
0.0
 10
284.413177
 20
344.439776
 30
0.0
 10
284.351351
 20
344.478710
 30
0.0
 10
284.305111
 20
344.537614
 30
0.0
  0
SPLINE
  5
15e
100
AcDbEntity
  8
Layer_1
 62
7
100
AcDbSpline
 70
8
 71
3
 72
8
 73
4
 74
0
 40
0
 40
0
 40
0
 40
0
 40
1
 40
1
 40
1
 40
1
 10
284.305111
 20
344.537614
 30
0.0
 10
284.257757
 20
344.596791
 30
0.0
 10
284.227088
 20
344.682804
 30
0.0
 10
284.213106
 20
344.795653
 30
0.0
  0
SPLINE
  5
15f
100
AcDbEntity
  8
Layer_1
 62
7
100
AcDbSpline
 70
8
 71
3
 72
8
 73
4
 74
0
 40
0
 40
0
 40
0
 40
0
 40
1
 40
1
 40
1
 40
1
 10
284.213106
 20
344.795653
 30
0.0
 10
284.203521
 20
344.868176
 30
0.0
 10
284.199564
 20
345.024360
 30
0.0
 10
284.201236
 20
345.264205
 30
0.0
  0
SPLINE
  5
160
100
AcDbEntity
  8
Layer_1
 62
7
100
AcDbSpline
 70
8
 71
3
 72
8
 73
4
 74
0
 40
0
 40
0
 40
0
 40
0
 40
1
 40
1
 40
1
 40
1
 10
284.201236
 20
345.264205
 30
0.0
 10
284.201775
 20
345.504330
 30
0.0
 10
284.189056
 20
345.675745
 30
0.0
 10
284.163077
 20
345.778451
 30
0.0
  0
SPLINE
  5
161
100
AcDbEntity
  8
Layer_1
 62
7
100
AcDbSpline
 70
8
 71
3
 72
8
 73
4
 74
0
 40
0
 40
0
 40
0
 40
0
 40
1
 40
1
 40
1
 40
1
 10
284.163077
 20
345.778451
 30
0.0
 10
284.130227
 20
345.911384
 30
0.0
 10
284.075510
 20
346.018156
 30
0.0
 10
283.998925
 20
346.098764
 30
0.0
  0
SPLINE
  5
162
100
AcDbEntity
  8
Layer_1
 62
7
100
AcDbSpline
 70
8
 71
3
 72
8
 73
4
 74
0
 40
0
 40
0
 40
0
 40
0
 40
1
 40
1
 40
1
 40
1
 10
283.998925
 20
346.098764
 30
0.0
 10
283.920933
 20
346.178530
 30
0.0
 10
283.825277
 20
346.232294
 30
0.0
 10
283.711957
 20
346.260056
 30
0.0
  0
SPLINE
  5
163
100
AcDbEntity
  8
Layer_1
 62
7
100
AcDbSpline
 70
8
 71
3
 72
8
 73
4
 74
0
 40
0
 40
0
 40
0
 40
0
 40
1
 40
1
 40
1
 40
1
 10
283.711957
 20
346.260056
 30
0.0
 10
283.587399
 20
346.290571
 30
0.0
 10
283.462606
 20
346.283678
 30
0.0
 10
283.337579
 20
346.239376
 30
0.0
  0
SPLINE
  5
164
100
AcDbEntity
  8
Layer_1
 62
7
100
AcDbSpline
 70
8
 71
3
 72
8
 73
4
 74
0
 40
0
 40
0
 40
0
 40
0
 40
1
 40
1
 40
1
 40
1
 10
283.337579
 20
346.239376
 30
0.0
 10
283.211419
 20
346.195354
 30
0.0
 10
283.103657
 20
346.112331
 30
0.0
 10
283.014294
 20
345.990307
 30
0.0
  0
SPLINE
  5
165
100
AcDbEntity
  8
Layer_1
 62
7
100
AcDbSpline
 70
8
 71
3
 72
8
 73
4
 74
0
 40
0
 40
0
 40
0
 40
0
 40
1
 40
1
 40
1
 40
1
 10
283.014294
 20
345.990307
 30
0.0
 10
282.924930
 20
345.868284
 30
0.0
 10
282.859907
 20
345.724240
 30
0.0
 10
282.819223
 20
345.558177
 30
0.0
  0
SPLINE
  5
166
100
AcDbEntity
  8
Layer_1
 62
7
100
AcDbSpline
 70
8
 71
3
 72
8
 73
4
 74
0
 40
0
 40
0
 40
0
 40
0
 40
1
 40
1
 40
1
 40
1
 10
282.819223
 20
345.558177
 30
0.0
 10
282.774417
 20
345.375285
 30
0.0
 10
282.764704
 20
345.206988
 30
0.0
 10
282.790083
 20
345.053286
 30
0.0
  0
SPLINE
  5
167
100
AcDbEntity
  8
Layer_1
 62
7
100
AcDbSpline
 70
8
 71
3
 72
8
 73
4
 74
0
 40
0
 40
0
 40
0
 40
0
 40
1
 40
1
 40
1
 40
1
 10
282.790083
 20
345.053286
 30
0.0
 10
282.814072
 20
344.898735
 30
0.0
 10
282.874085
 20
344.769852
 30
0.0
 10
282.970121
 20
344.666637
 30
0.0
  0
SPLINE
  5
168
100
AcDbEntity
  8
Layer_1
 62
7
100
AcDbSpline
 70
8
 71
3
 72
8
 73
4
 74
0
 40
0
 40
0
 40
0
 40
0
 40
1
 40
1
 40
1
 40
1
 10
282.970121
 20
344.666637
 30
0.0
 10
283.066156
 20
344.563420
 30
0.0
 10
283.185853
 20
344.491278
 30
0.0
 10
283.329212
 20
344.450210
 30
0.0
  0
LINE
  5
169
100
AcDbEntity
  8
Layer_1
 62
7
100
AcDbLine
 10
283.329212
 20
344.450210
 30
0.0
 11
283.429478
 21
344.757484
 31
0.0
  0
SPLINE
  5
16a
100
AcDbEntity
  8
Layer_1
 62
7
100
AcDbSpline
 70
8
 71
3
 72
8
 73
4
 74
0
 40
0
 40
0
 40
0
 40
0
 40
1
 40
1
 40
1
 40
1
 10
283.429478
 20
344.757484
 30
0.0
 10
283.277630
 20
344.812526
 30
0.0
 10
283.173834
 20
344.898613
 30
0.0
 10
283.118091
 20
345.015746
 30
0.0
  0
SPLINE
  5
16b
100
AcDbEntity
  8
Layer_1
 62
7
100
AcDbSpline
 70
8
 71
3
 72
8
 73
4
 74
0
 40
0
 40
0
 40
0
 40
0
 40
1
 40
1
 40
1
 40
1
 10
283.118091
 20
345.015746
 30
0.0
 10
283.062073
 20
345.131758
 30
0.0
 10
283.057292
 20
345.284577
 30
0.0
 10
283.103747
 20
345.474203
 30
0.0
  0
SPLINE
  5
16c
100
AcDbEntity
  8
Layer_1
 62
7
100
AcDbSpline
 70
8
 71
3
 72
8
 73
4
 74
0
 40
0
 40
0
 40
0
 40
0
 40
1
 40
1
 40
1
 40
1
 10
283.103747
 20
345.474203
 30
0.0
 10
283.152127
 20
345.671681
 30
0.0
 10
283.223916
 20
345.806930
 30
0.0
 10
283.319115
 20
345.879948
 30
0.0
  0
SPLINE
  5
16d
100
AcDbEntity
  8
Layer_1
 62
7
100
AcDbSpline
 70
8
 71
3
 72
8
 73
4
 74
0
 40
0
 40
0
 40
0
 40
0
 40
1
 40
1
 40
1
 40
1
 10
283.319115
 20
345.879948
 30
0.0
 10
283.412906
 20
345.952122
 30
0.0
 10
283.510860
 20
345.975700
 30
0.0
 10
283.612978
 20
345.950683
 30
0.0
  0
SPLINE
  5
16e
100
AcDbEntity
  8
Layer_1
 62
7
100
AcDbSpline
 70
8
 71
3
 72
8
 73
4
 74
0
 40
0
 40
0
 40
0
 40
0
 40
1
 40
1
 40
1
 40
1
 10
283.612978
 20
345.950683
 30
0.0
 10
283.701609
 20
345.928970
 30
0.0
 10
283.766707
 20
345.879124
 30
0.0
 10
283.808274
 20
345.801145
 30
0.0
  0
SPLINE
  5
16f
100
AcDbEntity
  8
Layer_1
 62
7
100
AcDbSpline
 70
8
 71
3
 72
8
 73
4
 74
0
 40
0
 40
0
 40
0
 40
0
 40
1
 40
1
 40
1
 40
1
 10
283.808274
 20
345.801145
 30
0.0
 10
283.850098
 20
345.724293
 30
0.0
 10
283.868872
 20
345.546043
 30
0.0
 10
283.864598
 20
345.266396
 30
0.0
  0
SPLINE
  5
170
100
AcDbEntity
  8
Layer_1
 62
7
100
AcDbSpline
 70
8
 71
3
 72
8
 73
4
 74
0
 40
0
 40
0
 40
0
 40
0
 40
1
 40
1
 40
1
 40
1
 10
283.864598
 20
345.266396
 30
0.0
 10
283.858914
 20
344.985902
 30
0.0
 10
283.866419
 20
344.790788
 30
0.0
 10
283.887111
 20
344.681052
 30
0.0
  0
SPLINE
  5
171
100
AcDbEntity
  8
Layer_1
 62
7
100
AcDbSpline
 70
8
 71
3
 72
8
 73
4
 74
0
 40
0
 40
0
 40
0
 40
0
 40
1
 40
1
 40
1
 40
1
 10
283.887111
 20
344.681052
 30
0.0
 10
283.918116
 20
344.521216
 30
0.0
 10
283.976293
 20
344.394567
 30
0.0
 10
284.061642
 20
344.301105
 30
0.0
  0
SPLINE
  5
172
100
AcDbEntity
  8
Layer_1
 62
7
100
AcDbSpline
 70
8
 71
3
 72
8
 73
4
 74
0
 40
0
 40
0
 40
0
 40
0
 40
1
 40
1
 40
1
 40
1
 10
284.061642
 20
344.301105
 30
0.0
 10
284.145858
 20
344.207920
 30
0.0
 10
284.254166
 20
344.145110
 30
0.0
 10
284.386564
 20
344.112674
 30
0.0
  0
SPLINE
  5
173
100
AcDbEntity
  8
Layer_1
 62
7
100
AcDbSpline
 70
8
 71
3
 72
8
 73
4
 74
0
 40
0
 40
0
 40
0
 40
0
 40
1
 40
1
 40
1
 40
1
 10
284.386564
 20
344.112674
 30
0.0
 10
284.517847
 20
344.080511
 30
0.0
 10
284.651039
 20
344.087726
 30
0.0
 10
284.786138
 20
344.134318
 30
0.0
  0
SPLINE
  5
174
100
AcDbEntity
  8
Layer_1
 62
7
100
AcDbSpline
 70
8
 71
3
 72
8
 73
4
 74
0
 40
0
 40
0
 40
0
 40
0
 40
1
 40
1
 40
1
 40
1
 10
284.786138
 20
344.134318
 30
0.0
 10
284.920123
 20
344.181183
 30
0.0
 10
285.036979
 20
344.267330
 30
0.0
 10
285.136708
 20
344.392759
 30
0.0
  0
SPLINE
  5
175
100
AcDbEntity
  8
Layer_1
 62
7
100
AcDbSpline
 70
8
 71
3
 72
8
 73
4
 74
0
 40
0
 40
0
 40
0
 40
0
 40
1
 40
1
 40
1
 40
1
 10
285.136708
 20
344.392759
 30
0.0
 10
285.235011
 20
344.517350
 30
0.0
 10
285.305741
 20
344.667727
 30
0.0
 10
285.348898
 20
344.843888
 30
0.0
  0
SPLINE
  5
176
100
AcDbEntity
  8
Layer_1
 62
7
100
AcDbSpline
 70
8
 71
3
 72
8
 73
4
 74
0
 40
0
 40
0
 40
0
 40
0
 40
1
 40
1
 40
1
 40
1
 10
285.348898
 20
344.843888
 30
0.0
 10
285.403600
 20
345.067174
 30
0.0
 10
285.416968
 20
345.262526
 30
0.0
 10
285.389003
 20
345.429946
 30
0.0
  0
SPLINE
  5
177
100
AcDbEntity
  8
Layer_1
 62
7
100
AcDbSpline
 70
8
 71
3
 72
8
 73
4
 74
0
 40
0
 40
0
 40
0
 40
0
 40
1
 40
1
 40
1
 40
1
 10
285.389003
 20
345.429946
 30
0.0
 10
285.360762
 20
345.596241
 30
0.0
 10
285.292149
 20
345.738530
 30
0.0
 10
285.183165
 20
345.856812
 30
0.0
  0
SPLINE
  5
178
100
AcDbEntity
  8
Layer_1
 62
7
100
AcDbSpline
 70
8
 71
3
 72
8
 73
4
 74
0
 40
0
 40
0
 40
0
 40
0
 40
1
 40
1
 40
1
 40
1
 10
285.183165
 20
345.856812
 30
0.0
 10
285.072773
 20
345.974251
 30
0.0
 10
284.935655
 20
346.055419
 30
0.0
 10
284.771809
 20
346.100316
 30
0.0
  0
LINE
  5
179
100
AcDbEntity
  8
Layer_1
 62
7
100
AcDbLine
 10
284.771809
 20
346.100316
 30
0.0
 11
284.771755
 21
346.100329
 31
0.0
  0
LINE
  5
17a
100
AcDbEntity
  8
Layer_1
 62
7
100
AcDbLine
 10
285.040396
 20
343.766923
 30
0.0
 11
282.340882
 21
343.423828
 31
0.0
  0
LINE
  5
17b
100
AcDbEntity
  8
Layer_1
 62
7
100
AcDbLine
 10
282.340882
 20
343.423828
 30
0.0
 11
282.254706
 21
343.072068
 31
0.0
  0
LINE
  5
17c
100
AcDbEntity
  8
Layer_1
 62
7
100
AcDbLine
 10
282.254706
 20
343.072068
 30
0.0
 11
284.474683
 21
341.457755
 31
0.0
  0
LINE
  5
17d
100
AcDbEntity
  8
Layer_1
 62
7
100
AcDbLine
 10
284.474683
 20
341.457755
 30
0.0
 11
284.565807
 21
341.829714
 31
0.0
  0
LINE
  5
17e
100
AcDbEntity
  8
Layer_1
 62
7
100
AcDbLine
 10
284.565807
 20
341.829714
 30
0.0
 11
283.889047
 21
342.300587
 31
0.0
  0
LINE
  5
17f
100
AcDbEntity
  8
Layer_1
 62
7
100
AcDbLine
 10
283.889047
 20
342.300587
 30
0.0
 11
284.141804
 21
343.332308
 31
0.0
  0
LINE
  5
180
100
AcDbEntity
  8
Layer_1
 62
7
100
AcDbLine
 10
284.141804
 20
343.332308
 30
0.0
 11
284.955457
 21
343.420213
 31
0.0
  0
LINE
  5
181
100
AcDbEntity
  8
Layer_1
 62
7
100
AcDbLine
 10
284.955457
 20
343.420213
 30
0.0
 11
285.040396
 21
343.766923
 31
0.0
  0
LINE
  5
182
100
AcDbEntity
  8
Layer_1
 62
7
100
AcDbLine
 10
283.852794
 20
343.303203
 30
0.0
 11
283.647867
 21
342.466718
 31
0.0
  0
LINE
  5
183
100
AcDbEntity
  8
Layer_1
 62
7
100
AcDbLine
 10
283.647867
 20
342.466718
 30
0.0
 11
283.027609
 21
342.891638
 31
0.0
  0
SPLINE
  5
184
100
AcDbEntity
  8
Layer_1
 62
7
100
AcDbSpline
 70
8
 71
3
 72
8
 73
4
 74
0
 40
0
 40
0
 40
0
 40
0
 40
1
 40
1
 40
1
 40
1
 10
283.027609
 20
342.891638
 30
0.0
 10
282.839272
 20
343.021035
 30
0.0
 10
282.683020
 20
343.121163
 30
0.0
 10
282.558854
 20
343.192022
 30
0.0
  0
SPLINE
  5
185
100
AcDbEntity
  8
Layer_1
 62
7
100
AcDbSpline
 70
8
 71
3
 72
8
 73
4
 74
0
 40
0
 40
0
 40
0
 40
0
 40
1
 40
1
 40
1
 40
1
 10
282.558854
 20
343.192022
 30
0.0
 10
282.724752
 20
343.184682
 30
0.0
 10
282.892697
 20
343.190518
 30
0.0
 10
283.062687
 20
343.209529
 30
0.0
  0
LINE
  5
186
100
AcDbEntity
  8
Layer_1
 62
7
100
AcDbLine
 10
283.062687
 20
343.209529
 30
0.0
 11
283.852794
 21
343.303203
 31
0.0
  0
LINE
  5
187
100
AcDbEntity
  8
Layer_1
 62
7
100
AcDbLine
 10
284.238001
 20
340.491652
 30
0.0
 11
282.004829
 21
342.052104
 31
0.0
  0
LINE
  5
188
100
AcDbEntity
  8
Layer_1
 62
7
100
AcDbLine
 10
282.004829
 20
342.052104
 30
0.0
 11
281.918240
 21
341.698661
 31
0.0
  0
LINE
  5
189
100
AcDbEntity
  8
Layer_1
 62
7
100
AcDbLine
 10
281.918240
 20
341.698661
 30
0.0
 11
283.553616
 21
340.618283
 31
0.0
  0
SPLINE
  5
18a
100
AcDbEntity
  8
Layer_1
 62
7
100
AcDbSpline
 70
8
 71
3
 72
8
 73
4
 74
0
 40
0
 40
0
 40
0
 40
0
 40
1
 40
1
 40
1
 40
1
 10
283.553616
 20
340.618283
 30
0.0
 10
283.684590
 20
340.531484
 30
0.0
 10
283.808652
 20
340.455299
 30
0.0
 10
283.925804
 20
340.389727
 30
0.0
  0
SPLINE
  5
18b
100
AcDbEntity
  8
Layer_1
 62
7
100
AcDbSpline
 70
8
 71
3
 72
8
 73
4
 74
0
 40
0
 40
0
 40
0
 40
0
 40
1
 40
1
 40
1
 40
1
 10
283.925804
 20
340.389727
 30
0.0
 10
283.781812
 20
340.384564
 30
0.0
 10
283.636308
 20
340.373229
 30
0.0
 10
283.489293
 20
340.355723
 30
0.0
  0
LINE
  5
18c
100
AcDbEntity
  8
Layer_1
 62
7
100
AcDbLine
 10
283.489293
 20
340.355723
 30
0.0
 11
281.533538
 21
340.128360
 31
0.0
  0
LINE
  5
18d
100
AcDbEntity
  8
Layer_1
 62
7
100
AcDbLine
 10
281.533538
 20
340.128360
 30
0.0
 11
281.451897
 21
339.795111
 31
0.0
  0
LINE
  5
18e
100
AcDbEntity
  8
Layer_1
 62
7
100
AcDbLine
 10
281.451897
 20
339.795111
 30
0.0
 11
284.155947
 21
340.156720
 31
0.0
  0
LINE
  5
18f
100
AcDbEntity
  8
Layer_1
 62
7
100
AcDbLine
 10
284.155947
 20
340.156720
 30
0.0
 11
284.238001
 21
340.491652
 31
0.0
  0
LINE
  5
190
100
AcDbEntity
  8
Layer_1
 62
7
100
AcDbLine
 10
283.845869
 20
338.891022
 30
0.0
 11
281.378495
 21
339.495494
 31
0.0
  0
LINE
  5
191
100
AcDbEntity
  8
Layer_1
 62
7
100
AcDbLine
 10
281.378495
 20
339.495494
 30
0.0
 11
280.941427
 21
337.711442
 31
0.0
  0
LINE
  5
192
100
AcDbEntity
  8
Layer_1
 62
7
100
AcDbLine
 10
280.941427
 20
337.711442
 30
0.0
 11
281.232593
 21
337.640111
 31
0.0
  0
LINE
  5
193
100
AcDbEntity
  8
Layer_1
 62
7
100
AcDbLine
 10
281.232593
 20
337.640111
 30
0.0
 11
281.589669
 21
339.097647
 31
0.0
  0
LINE
  5
194
100
AcDbEntity
  8
Layer_1
 62
7
100
AcDbLine
 10
281.589669
 20
339.097647
 30
0.0
 11
282.345380
 21
338.912508
 31
0.0
  0
LINE
  5
195
100
AcDbEntity
  8
Layer_1
 62
7
100
AcDbLine
 10
282.345380
 20
338.912508
 30
0.0
 11
282.010982
 21
337.547541
 31
0.0
  0
LINE
  5
196
100
AcDbEntity
  8
Layer_1
 62
7
100
AcDbLine
 10
282.010982
 20
337.547541
 30
0.0
 11
282.300476
 21
337.476619
 31
0.0
  0
LINE
  5
197
100
AcDbEntity
  8
Layer_1
 62
7
100
AcDbLine
 10
282.300476
 20
337.476619
 30
0.0
 11
282.634874
 21
338.841586
 31
0.0
  0
LINE
  5
198
100
AcDbEntity
  8
Layer_1
 62
7
100
AcDbLine
 10
282.634874
 20
338.841586
 30
0.0
 11
283.474711
 21
338.635838
 31
0.0
  0
LINE
  5
199
100
AcDbEntity
  8
Layer_1
 62
7
100
AcDbLine
 10
283.474711
 20
338.635838
 30
0.0
 11
283.103616
 21
337.121077
 31
0.0
  0
LINE
  5
19a
100
AcDbEntity
  8
Layer_1
 62
7
100
AcDbLine
 10
283.103616
 20
337.121077
 30
0.0
 11
283.394782
 21
337.049746
 31
0.0
  0
LINE
  5
19b
100
AcDbEntity
  8
Layer_1
 62
7
100
AcDbLine
 10
283.394782
 20
337.049746
 30
0.0
 11
283.845869
 21
338.891022
 31
0.0
  0
LINE
  5
19c
100
AcDbEntity
  8
Layer_1
 62
7
100
AcDbLine
 10
283.045392
 20
335.623585
 30
0.0
 11
280.578019
 21
336.228058
 31
0.0
  0
LINE
  5
19d
100
AcDbEntity
  8
Layer_1
 62
7
100
AcDbLine
 10
280.578019
 20
336.228058
 30
0.0
 11
280.170226
 21
334.563504
 31
0.0
  0
LINE
  5
19e
100
AcDbEntity
  8
Layer_1
 62
7
100
AcDbLine
 10
280.170226
 20
334.563504
 30
0.0
 11
280.461392
 21
334.492172
 31
0.0
  0
LINE
  5
19f
100
AcDbEntity
  8
Layer_1
 62
7
100
AcDbLine
 10
280.461392
 20
334.492172
 30
0.0
 11
280.789193
 21
335.830210
 31
0.0
  0
LINE
  5
1a0
100
AcDbEntity
  8
Layer_1
 62
7
100
AcDbLine
 10
280.789193
 20
335.830210
 30
0.0
 11
281.553319
 21
335.643010
 31
0.0
  0
LINE
  5
1a1
100
AcDbEntity
  8
Layer_1
 62
7
100
AcDbLine
 10
281.553319
 20
335.643010
 30
0.0
 11
281.269638
 21
334.485061
 31
0.0
  0
LINE
  5
1a2
100
AcDbEntity
  8
Layer_1
 62
7
100
AcDbLine
 10
281.269638
 20
334.485061
 30
0.0
 11
281.560804
 21
334.413729
 31
0.0
  0
LINE
  5
1a3
100
AcDbEntity
  8
Layer_1
 62
7
100
AcDbLine
 10
281.560804
 20
334.413729
 30
0.0
 11
281.844485
 21
335.571678
 31
0.0
  0
LINE
  5
1a4
100
AcDbEntity
  8
Layer_1
 62
7
100
AcDbLine
 10
281.844485
 20
335.571678
 30
0.0
 11
282.965401
 21
335.297069
 31
0.0
  0
LINE
  5
1a5
100
AcDbEntity
  8
Layer_1
 62
7
100
AcDbLine
 10
282.965401
 20
335.297069
 30
0.0
 11
283.045392
 21
335.623585
 31
0.0
  0
SPLINE
  5
1a6
100
AcDbEntity
  8
Layer_1
 62
7
100
AcDbSpline
 70
8
 71
3
 72
8
 73
4
 74
0
 40
0
 40
0
 40
0
 40
0
 40
1
 40
1
 40
1
 40
1
 10
281.356187
 20
333.928044
 30
0.0
 10
280.946639
 20
334.028378
 30
0.0
 10
280.599360
 20
333.996897
 30
0.0
 10
280.314348
 20
333.833602
 30
0.0
  0
SPLINE
  5
1a7
100
AcDbEntity
  8
Layer_1
 62
7
100
AcDbSpline
 70
8
 71
3
 72
8
 73
4
 74
0
 40
0
 40
0
 40
0
 40
0
 40
1
 40
1
 40
1
 40
1
 10
280.314348
 20
333.833602
 30
0.0
 10
280.028202
 20
333.670583
 30
0.0
 10
279.842522
 20
333.415157
 30
0.0
 10
279.757308
 20
333.067323
 30
0.0
  0
SPLINE
  5
1a8
100
AcDbEntity
  8
Layer_1
 62
7
100
AcDbSpline
 70
8
 71
3
 72
8
 73
4
 74
0
 40
0
 40
0
 40
0
 40
0
 40
1
 40
1
 40
1
 40
1
 10
279.757308
 20
333.067323
 30
0.0
 10
279.701506
 20
332.839547
 30
0.0
 10
279.705623
 20
332.620881
 30
0.0
 10
279.769660
 20
332.411324
 30
0.0
  0
SPLINE
  5
1a9
100
AcDbEntity
  8
Layer_1
 62
7
100
AcDbSpline
 70
8
 71
3
 72
8
 73
4
 74
0
 40
0
 40
0
 40
0
 40
0
 40
1
 40
1
 40
1
 40
1
 10
279.769660
 20
332.411324
 30
0.0
 10
279.833677
 20
332.201770
 30
0.0
 10
279.951625
 20
332.025390
 30
0.0
 10
280.123504
 20
331.882183
 30
0.0
  0
SPLINE
  5
1aa
100
AcDbEntity
  8
Layer_1
 62
7
100
AcDbSpline
 70
8
 71
3
 72
8
 73
4
 74
0
 40
0
 40
0
 40
0
 40
0
 40
1
 40
1
 40
1
 40
1
 10
280.123504
 20
331.882183
 30
0.0
 10
280.293975
 20
331.738135
 30
0.0
 10
280.502636
 20
331.635873
 30
0.0
 10
280.749486
 20
331.575398
 30
0.0
  0
SPLINE
  5
1ab
100
AcDbEntity
  8
Layer_1
 62
7
100
AcDbSpline
 70
8
 71
3
 72
8
 73
4
 74
0
 40
0
 40
0
 40
0
 40
0
 40
1
 40
1
 40
1
 40
1
 10
280.749486
 20
331.575398
 30
0.0
 10
280.999700
 20
331.514099
 30
0.0
 10
281.235922
 20
331.509750
 30
0.0
 10
281.458152
 20
331.562350
 30
0.0
  0
SPLINE
  5
1ac
100
AcDbEntity
  8
Layer_1
 62
7
100
AcDbSpline
 70
8
 71
3
 72
8
 73
4
 74
0
 40
0
 40
0
 40
0
 40
0
 40
1
 40
1
 40
1
 40
1
 10
281.458152
 20
331.562350
 30
0.0
 10
281.680365
 20
331.614956
 30
0.0
 10
281.865200
 20
331.721321
 30
0.0
 10
282.012655
 20
331.881447
 30
0.0
  0
SPLINE
  5
1ad
100
AcDbEntity
  8
Layer_1
 62
7
100
AcDbSpline
 70
8
 71
3
 72
8
 73
4
 74
0
 40
0
 40
0
 40
0
 40
0
 40
1
 40
1
 40
1
 40
1
 10
282.012655
 20
331.881447
 30
0.0
 10
282.158995
 20
332.041843
 30
0.0
 10
282.258417
 20
332.229197
 30
0.0
 10
282.310920
 20
332.443508
 30
0.0
  0
SPLINE
  5
1ae
100
AcDbEntity
  8
Layer_1
 62
7
100
AcDbSpline
 70
8
 71
3
 72
8
 73
4
 74
0
 40
0
 40
0
 40
0
 40
0
 40
1
 40
1
 40
1
 40
1
 10
282.310920
 20
332.443508
 30
0.0
 10
282.367821
 20
332.675770
 30
0.0
 10
282.362572
 20
332.897093
 30
0.0
 10
282.295174
 20
333.107475
 30
0.0
  0
SPLINE
  5
1af
100
AcDbEntity
  8
Layer_1
 62
7
100
AcDbSpline
 70
8
 71
3
 72
8
 73
4
 74
0
 40
0
 40
0
 40
0
 40
0
 40
1
 40
1
 40
1
 40
1
 10
282.295174
 20
333.107475
 30
0.0
 10
282.227776
 20
333.317858
 30
0.0
 10
282.108566
 20
333.493951
 30
0.0
 10
281.937545
 20
333.635756
 30
0.0
  0
SPLINE
  5
1b0
100
AcDbEntity
  8
Layer_1
 62
7
100
AcDbSpline
 70
8
 71
3
 72
8
 73
4
 74
0
 40
0
 40
0
 40
0
 40
0
 40
1
 40
1
 40
1
 40
1
 10
281.937545
 20
333.635756
 30
0.0
 10
281.766525
 20
333.777563
 30
0.0
 10
281.572739
 20
333.874992
 30
0.0
 10
281.356187
 20
333.928044
 30
0.0
  0
LINE
  5
1b1
100
AcDbEntity
  8
Layer_1
 62
7
100
AcDbLine
 10
281.356187
 20
333.928044
 30
0.0
 11
281.356187
 21
333.928044
 31
0.0
  0
SPLINE
  5
1b2
100
AcDbEntity
  8
Layer_1
 62
7
100
AcDbSpline
 70
8
 71
3
 72
8
 73
4
 74
0
 40
0
 40
0
 40
0
 40
0
 40
1
 40
1
 40
1
 40
1
 10
281.278656
 20
333.590224
 30
0.0
 10
281.575999
 20
333.517379
 30
0.0
 10
281.790988
 20
333.380262
 30
0.0
 10
281.923624
 20
333.178875
 30
0.0
  0
SPLINE
  5
1b3
100
AcDbEntity
  8
Layer_1
 62
7
100
AcDbSpline
 70
8
 71
3
 72
8
 73
4
 74
0
 40
0
 40
0
 40
0
 40
0
 40
1
 40
1
 40
1
 40
1
 10
281.923624
 20
333.178875
 30
0.0
 10
282.054871
 20
332.976638
 30
0.0
 10
282.090944
 20
332.754901
 30
0.0
 10
282.031844
 20
332.513662
 30
0.0
  0
SPLINE
  5
1b4
100
AcDbEntity
  8
Layer_1
 62
7
100
AcDbSpline
 70
8
 71
3
 72
8
 73
4
 74
0
 40
0
 40
0
 40
0
 40
0
 40
1
 40
1
 40
1
 40
1
 10
282.031844
 20
332.513662
 30
0.0
 10
281.971644
 20
332.267933
 30
0.0
 10
281.835763
 20
332.087133
 30
0.0
 10
281.624202
 20
331.971260
 30
0.0
  0
SPLINE
  5
1b5
100
AcDbEntity
  8
Layer_1
 62
7
100
AcDbSpline
 70
8
 71
3
 72
8
 73
4
 74
0
 40
0
 40
0
 40
0
 40
0
 40
1
 40
1
 40
1
 40
1
 10
281.624202
 20
331.971260
 30
0.0
 10
281.412383
 20
331.854259
 30
0.0
 10
281.147706
 20
331.834654
 30
0.0
 10
280.830170
 20
331.912446
 30
0.0
  0
SPLINE
  5
1b6
100
AcDbEntity
  8
Layer_1
 62
7
100
AcDbSpline
 70
8
 71
3
 72
8
 73
4
 74
0
 40
0
 40
0
 40
0
 40
0
 40
1
 40
1
 40
1
 40
1
 10
280.830170
 20
331.912446
 30
0.0
 10
280.629316
 20
331.961653
 30
0.0
 10
280.462658
 20
332.038758
 30
0.0
 10
280.330198
 20
332.143762
 30
0.0
  0
SPLINE
  5
1b7
100
AcDbEntity
  8
Layer_1
 62
7
100
AcDbSpline
 70
8
 71
3
 72
8
 73
4
 74
0
 40
0
 40
0
 40
0
 40
0
 40
1
 40
1
 40
1
 40
1
 10
280.330198
 20
332.143762
 30
0.0
 10
280.196329
 20
332.247921
 30
0.0
 10
280.104523
 20
332.375674
 30
0.0
 10
280.054778
 20
332.527019
 30
0.0
  0
SPLINE
  5
1b8
100
AcDbEntity
  8
Layer_1
 62
7
100
AcDbSpline
 70
8
 71
3
 72
8
 73
4
 74
0
 40
0
 40
0
 40
0
 40
0
 40
1
 40
1
 40
1
 40
1
 10
280.054778
 20
332.527019
 30
0.0
 10
280.003644
 20
332.677514
 30
0.0
 10
279.998006
 20
332.834110
 30
0.0
 10
280.037865
 20
332.996807
 30
0.0
  0
SPLINE
  5
1b9
100
AcDbEntity
  8
Layer_1
 62
7
100
AcDbSpline
 70
8
 71
3
 72
8
 73
4
 74
0
 40
0
 40
0
 40
0
 40
0
 40
1
 40
1
 40
1
 40
1
 10
280.037865
 20
332.996807
 30
0.0
 10
280.094491
 20
333.227947
 30
0.0
 10
280.222941
 20
333.407595
 30
0.0
 10
280.423215
 20
333.535750
 30
0.0
  0
SPLINE
  5
1ba
100
AcDbEntity
  8
Layer_1
 62
7
100
AcDbSpline
 70
8
 71
3
 72
8
 73
4
 74
0
 40
0
 40
0
 40
0
 40
0
 40
1
 40
1
 40
1
 40
1
 10
280.423215
 20
333.535750
 30
0.0
 10
280.622118
 20
333.663051
 30
0.0
 10
280.907265
 20
333.681209
 30
0.0
 10
281.278656
 20
333.590224
 30
0.0
  0
LINE
  5
1bb
100
AcDbEntity
  8
Layer_1
 62
7
100
AcDbLine
 10
281.278656
 20
333.590224
 30
0.0
 11
281.278656
 21
333.590224
 31
0.0
  0
LINE
  5
1bc
100
AcDbEntity
  8
Layer_1
 62
7
100
AcDbLine
 10
281.875341
 20
330.847595
 30
0.0
 11
279.407967
 21
331.452067
 31
0.0
  0
LINE
  5
1bd
100
AcDbEntity
  8
Layer_1
 62
7
100
AcDbLine
 10
279.407967
 20
331.452067
 30
0.0
 11
279.139955
 21
330.358075
 31
0.0
  0
SPLINE
  5
1be
100
AcDbEntity
  8
Layer_1
 62
7
100
AcDbSpline
 70
8
 71
3
 72
8
 73
4
 74
0
 40
0
 40
0
 40
0
 40
0
 40
1
 40
1
 40
1
 40
1
 10
279.139955
 20
330.358075
 30
0.0
 10
279.086077
 20
330.138153
 30
0.0
 10
279.067560
 20
329.965471
 30
0.0
 10
279.084404
 20
329.840029
 30
0.0
  0
SPLINE
  5
1bf
100
AcDbEntity
  8
Layer_1
 62
7
100
AcDbSpline
 70
8
 71
3
 72
8
 73
4
 74
0
 40
0
 40
0
 40
0
 40
0
 40
1
 40
1
 40
1
 40
1
 10
279.084404
 20
329.840029
 30
0.0
 10
279.100133
 20
329.714857
 30
0.0
 10
279.155716
 20
329.604305
 30
0.0
 10
279.251153
 20
329.508371
 30
0.0
  0
SPLINE
  5
1c0
100
AcDbEntity
  8
Layer_1
 62
7
100
AcDbSpline
 70
8
 71
3
 72
8
 73
4
 74
0
 40
0
 40
0
 40
0
 40
0
 40
1
 40
1
 40
1
 40
1
 10
279.251153
 20
329.508371
 30
0.0
 10
279.346589
 20
329.412438
 30
0.0
 10
279.462188
 20
329.347841
 30
0.0
 10
279.597949
 20
329.314582
 30
0.0
  0
SPLINE
  5
1c1
100
AcDbEntity
  8
Layer_1
 62
7
100
AcDbSpline
 70
8
 71
3
 72
8
 73
4
 74
0
 40
0
 40
0
 40
0
 40
0
 40
1
 40
1
 40
1
 40
1
 10
279.597949
 20
329.314582
 30
0.0
 10
279.772999
 20
329.271697
 30
0.0
 10
279.934428
 20
329.292213
 30
0.0
 10
280.082237
 20
329.376131
 30
0.0
  0
SPLINE
  5
1c2
100
AcDbEntity
  8
Layer_1
 62
7
100
AcDbSpline
 70
8
 71
3
 72
8
 73
4
 74
0
 40
0
 40
0
 40
0
 40
0
 40
1
 40
1
 40
1
 40
1
 10
280.082237
 20
329.376131
 30
0.0
 10
280.230063
 20
329.460044
 30
0.0
 10
280.349250
 20
329.616389
 30
0.0
 10
280.439797
 20
329.845166
 30
0.0
  0
SPLINE
  5
1c3
100
AcDbEntity
  8
Layer_1
 62
7
100
AcDbSpline
 70
8
 71
3
 72
8
 73
4
 74
0
 40
0
 40
0
 40
0
 40
0
 40
1
 40
1
 40
1
 40
1
 10
280.439797
 20
329.845166
 30
0.0
 10
280.460132
 20
329.748601
 30
0.0
 10
280.485004
 20
329.672928
 30
0.0
 10
280.514413
 20
329.618148
 30
0.0
  0
SPLINE
  5
1c4
100
AcDbEntity
  8
Layer_1
 62
7
100
AcDbSpline
 70
8
 71
3
 72
8
 73
4
 74
0
 40
0
 40
0
 40
0
 40
0
 40
1
 40
1
 40
1
 40
1
 10
280.514413
 20
329.618148
 30
0.0
 10
280.578565
 20
329.501335
 30
0.0
 10
280.665836
 20
329.384210
 30
0.0
 10
280.776228
 20
329.266772
 30
0.0
  0
LINE
  5
1c5
100
AcDbEntity
  8
Layer_1
 62
7
100
AcDbLine
 10
280.776228
 20
329.266772
 30
0.0
 11
281.342614
 21
328.673073
 31
0.0
  0
LINE
  5
1c6
100
AcDbEntity
  8
Layer_1
 62
7
100
AcDbLine
 10
281.342614
 20
328.673073
 30
0.0
 11
281.443222
 21
329.083742
 31
0.0
  0
LINE
  5
1c7
100
AcDbEntity
  8
Layer_1
 62
7
100
AcDbLine
 10
281.443222
 20
329.083742
 30
0.0
 11
281.009876
 21
329.536016
 31
0.0
  0
SPLINE
  5
1c8
100
AcDbEntity
  8
Layer_1
 62
7
100
AcDbSpline
 70
8
 71
3
 72
8
 73
4
 74
0
 40
0
 40
0
 40
0
 40
0
 40
1
 40
1
 40
1
 40
1
 10
281.009876
 20
329.536016
 30
0.0
 10
280.885146
 20
329.667672
 30
0.0
 10
280.791068
 20
329.773977
 30
0.0
 10
280.727644
 20
329.854932
 30
0.0
  0
SPLINE
  5
1c9
100
AcDbEntity
  8
Layer_1
 62
7
100
AcDbSpline
 70
8
 71
3
 72
8
 73
4
 74
0
 40
0
 40
0
 40
0
 40
0
 40
1
 40
1
 40
1
 40
1
 10
280.727644
 20
329.854932
 30
0.0
 10
280.664219
 20
329.935886
 30
0.0
 10
280.622838
 20
330.004899
 30
0.0
 10
280.603501
 20
330.061970
 30
0.0
  0
SPLINE
  5
1ca
100
AcDbEntity
  8
Layer_1
 62
7
100
AcDbSpline
 70
8
 71
3
 72
8
 73
4
 74
0
 40
0
 40
0
 40
0
 40
0
 40
1
 40
1
 40
1
 40
1
 10
280.603501
 20
330.061970
 30
0.0
 10
280.583907
 20
330.117914
 30
0.0
 10
280.574128
 20
330.172643
 30
0.0
 10
280.574163
 20
330.226157
 30
0.0
  0
SPLINE
  5
1cb
100
AcDbEntity
  8
Layer_1
 62
7
100
AcDbSpline
 70
8
 71
3
 72
8
 73
4
 74
0
 40
0
 40
0
 40
0
 40
0
 40
1
 40
1
 40
1
 40
1
 10
280.574163
 20
330.226157
 30
0.0
 10
280.575375
 20
330.265108
 30
0.0
 10
280.586290
 20
330.326660
 30
0.0
 10
280.606907
 20
330.410814
 30
0.0
  0
LINE
  5
1cc
100
AcDbEntity
  8
Layer_1
 62
7
100
AcDbLine
 10
280.606907
 20
330.410814
 30
0.0
 11
280.699681
 21
330.789505
 31
0.0
  0
LINE
  5
1cd
100
AcDbEntity
  8
Layer_1
 62
7
100
AcDbLine
 10
280.699681
 20
330.789505
 30
0.0
 11
281.795350
 21
330.521081
 31
0.0
  0
LINE
  5
1ce
100
AcDbEntity
  8
Layer_1
 62
7
100
AcDbLine
 10
281.795350
 20
330.521081
 30
0.0
 11
281.875341
 21
330.847595
 31
0.0
  0
LINE
  5
1cf
100
AcDbEntity
  8
Layer_1
 62
7
100
AcDbLine
 10
280.416930
 20
330.858775
 30
0.0
 11
280.244989
 21
330.156936
 31
0.0
  0
SPLINE
  5
1d0
100
AcDbEntity
  8
Layer_1
 62
7
100
AcDbSpline
 70
8
 71
3
 72
8
 73
4
 74
0
 40
0
 40
0
 40
0
 40
0
 40
1
 40
1
 40
1
 40
1
 10
280.244989
 20
330.156936
 30
0.0
 10
280.208429
 20
330.007704
 30
0.0
 10
280.164692
 20
329.894722
 30
0.0
 10
280.113776
 20
329.817991
 30
0.0
  0
SPLINE
  5
1d1
100
AcDbEntity
  8
Layer_1
 62
7
100
AcDbSpline
 70
8
 71
3
 72
8
 73
4
 74
0
 40
0
 40
0
 40
0
 40
0
 40
1
 40
1
 40
1
 40
1
 10
280.113776
 20
329.817991
 30
0.0
 10
280.061746
 20
329.741534
 30
0.0
 10
279.996709
 20
329.689672
 30
0.0
 10
279.918666
 20
329.662407
 30
0.0
  0
SPLINE
  5
1d2
100
AcDbEntity
  8
Layer_1
 62
7
100
AcDbSpline
 70
8
 71
3
 72
8
 73
4
 74
0
 40
0
 40
0
 40
0
 40
0
 40
1
 40
1
 40
1
 40
1
 10
279.918666
 20
329.662407
 30
0.0
 10
279.839508
 20
329.635414
 30
0.0
 10
279.760091
 20
329.631677
 30
0.0
 10
279.680414
 20
329.651196
 30
0.0
  0
SPLINE
  5
1d3
100
AcDbEntity
  8
Layer_1
 62
7
100
AcDbSpline
 70
8
 71
3
 72
8
 73
4
 74
0
 40
0
 40
0
 40
0
 40
0
 40
1
 40
1
 40
1
 40
1
 10
279.680414
 20
329.651196
 30
0.0
 10
279.563732
 20
329.679782
 30
0.0
 10
279.478246
 20
329.745921
 30
0.0
 10
279.423956
 20
329.849613
 30
0.0
  0
SPLINE
  5
1d4
100
AcDbEntity
  8
Layer_1
 62
7
100
AcDbSpline
 70
8
 71
3
 72
8
 73
4
 74
0
 40
0
 40
0
 40
0
 40
0
 40
1
 40
1
 40
1
 40
1
 10
279.423956
 20
329.849613
 30
0.0
 10
279.369392
 20
329.952185
 30
0.0
 10
279.364513
 20
330.094918
 30
0.0
 10
279.409319
 20
330.277812
 30
0.0
  0
LINE
  5
1d5
100
AcDbEntity
  8
Layer_1
 62
7
100
AcDbLine
 10
279.409319
 20
330.277812
 30
0.0
 11
279.600640
 21
331.058755
 31
0.0
  0
LINE
  5
1d6
100
AcDbEntity
  8
Layer_1
 62
7
100
AcDbLine
 10
279.600640
 20
331.058755
 30
0.0
 11
280.416930
 21
330.858775
 31
0.0
  0
LINE
  5
1d7
100
AcDbEntity
  8
Layer_1
 62
7
100
AcDbLine
 10
290.442499
 20
347.844717
 30
0.0
 11
288.135404
 21
349.103689
 31
0.0
  0
LINE
  5
1d8
100
AcDbEntity
  8
Layer_1
 62
7
100
AcDbLine
 10
288.135404
 20
349.103689
 30
0.0
 11
288.053382
 21
348.768753
 31
0.0
  0
LINE
  5
1d9
100
AcDbEntity
  8
Layer_1
 62
7
100
AcDbLine
 10
288.053382
 20
348.768753
 30
0.0
 11
289.578927
 21
347.997325
 31
0.0
  0
SPLINE
  5
1da
100
AcDbEntity
  8
Layer_1
 62
7
100
AcDbSpline
 70
8
 71
3
 72
8
 73
4
 74
0
 40
0
 40
0
 40
0
 40
0
 40
1
 40
1
 40
1
 40
1
 10
289.578927
 20
347.997325
 30
0.0
 10
289.738479
 20
347.915436
 30
0.0
 10
289.898272
 20
347.839434
 30
0.0
 10
290.058305
 20
347.769320
 30
0.0
  0
SPLINE
  5
1db
100
AcDbEntity
  8
Layer_1
 62
7
100
AcDbSpline
 70
8
 71
3
 72
8
 73
4
 74
0
 40
0
 40
0
 40
0
 40
0
 40
1
 40
1
 40
1
 40
1
 10
290.058305
 20
347.769320
 30
0.0
 10
289.779230
 20
347.771058
 30
0.0
 10
289.618125
 20
347.771262
 30
0.0
 10
289.574990
 20
347.769931
 30
0.0
  0
LINE
  5
1dc
100
AcDbEntity
  8
Layer_1
 62
7
100
AcDbLine
 10
289.574990
 20
347.769931
 30
0.0
 11
287.793715
 21
347.708401
 31
0.0
  0
LINE
  5
1dd
100
AcDbEntity
  8
Layer_1
 62
7
100
AcDbLine
 10
287.793715
 20
347.708401
 30
0.0
 11
287.697267
 21
347.314556
 31
0.0
  0
LINE
  5
1de
100
AcDbEntity
  8
Layer_1
 62
7
100
AcDbLine
 10
287.697267
 20
347.314556
 30
0.0
 11
288.859584
 21
346.655271
 31
0.0
  0
SPLINE
  5
1df
100
AcDbEntity
  8
Layer_1
 62
7
100
AcDbSpline
 70
8
 71
3
 72
8
 73
4
 74
0
 40
0
 40
0
 40
0
 40
0
 40
1
 40
1
 40
1
 40
1
 10
288.859584
 20
346.655271
 30
0.0
 10
289.147562
 20
346.490789
 30
0.0
 10
289.423072
 20
346.355526
 30
0.0
 10
289.686115
 20
346.249482
 30
0.0
  0
SPLINE
  5
1e0
100
AcDbEntity
  8
Layer_1
 62
7
100
AcDbSpline
 70
8
 71
3
 72
8
 73
4
 74
0
 40
0
 40
0
 40
0
 40
0
 40
1
 40
1
 40
1
 40
1
 10
289.686115
 20
346.249482
 30
0.0
 10
289.522463
 20
346.256256
 30
0.0
 10
289.333469
 20
346.259128
 30
0.0
 10
289.119131
 20
346.258097
 30
0.0
  0
LINE
  5
1e1
100
AcDbEntity
  8
Layer_1
 62
7
100
AcDbLine
 10
289.119131
 20
346.258097
 30
0.0
 11
287.438835
 21
346.259254
 31
0.0
  0
LINE
  5
1e2
100
AcDbEntity
  8
Layer_1
 62
7
100
AcDbLine
 10
287.438835
 20
346.259254
 30
0.0
 11
287.358462
 21
345.931050
 31
0.0
  0
LINE
  5
1e3
100
AcDbEntity
  8
Layer_1
 62
7
100
AcDbLine
 10
287.358462
 20
345.931050
 30
0.0
 11
289.991584
 21
346.003410
 31
0.0
  0
LINE
  5
1e4
100
AcDbEntity
  8
Layer_1
 62
7
100
AcDbLine
 10
289.991584
 20
346.003410
 30
0.0
 11
290.068660
 21
346.318149
 31
0.0
  0
LINE
  5
1e5
100
AcDbEntity
  8
Layer_1
 62
7
100
AcDbLine
 10
290.068660
 20
346.318149
 30
0.0
 11
288.316008
 21
347.298618
 31
0.0
  0
SPLINE
  5
1e6
100
AcDbEntity
  8
Layer_1
 62
7
100
AcDbSpline
 70
8
 71
3
 72
8
 73
4
 74
0
 40
0
 40
0
 40
0
 40
0
 40
1
 40
1
 40
1
 40
1
 10
288.316008
 20
347.298618
 30
0.0
 10
288.169634
 20
347.380849
 30
0.0
 10
288.079454
 20
347.430288
 30
0.0
 10
288.045467
 20
347.446937
 30
0.0
  0
SPLINE
  5
1e7
100
AcDbEntity
  8
Layer_1
 62
7
100
AcDbSpline
 70
8
 71
3
 72
8
 73
4
 74
0
 40
0
 40
0
 40
0
 40
0
 40
1
 40
1
 40
1
 40
1
 10
288.045467
 20
347.446937
 30
0.0
 10
288.165128
 20
347.444989
 30
0.0
 10
288.267536
 20
347.445482
 30
0.0
 10
288.352691
 20
347.448415
 30
0.0
  0
LINE
  5
1e8
100
AcDbEntity
  8
Layer_1
 62
7
100
AcDbLine
 10
288.352691
 20
347.448415
 30
0.0
 11
290.360889
 21
347.511464
 31
0.0
  0
LINE
  5
1e9
100
AcDbEntity
  8
Layer_1
 62
7
100
AcDbLine
 10
290.360889
 20
347.511464
 30
0.0
 11
290.442499
 21
347.844717
 31
0.0
  0
LINE
  5
1ea
100
AcDbEntity
  8
Layer_1
 62
7
100
AcDbLine
 10
289.737559
 20
344.966099
 30
0.0
 11
287.270129
 21
345.570343
 31
0.0
  0
LINE
  5
1eb
100
AcDbEntity
  8
Layer_1
 62
7
100
AcDbLine
 10
287.270129
 20
345.570343
 30
0.0
 11
287.190168
 21
345.243822
 31
0.0
  0
LINE
  5
1ec
100
AcDbEntity
  8
Layer_1
 62
7
100
AcDbLine
 10
287.190168
 20
345.243822
 30
0.0
 11
289.657598
 21
344.639578
 31
0.0
  0
LINE
  5
1ed
100
AcDbEntity
  8
Layer_1
 62
7
100
AcDbLine
 10
289.657598
 20
344.639578
 30
0.0
 11
289.737559
 21
344.966099
 31
0.0
  0
LINE
  5
1ee
100
AcDbEntity
  8
Layer_1
 62
7
100
AcDbLine
 10
289.517318
 20
344.066745
 30
0.0
 11
287.049888
 21
344.670989
 31
0.0
  0
LINE
  5
1ef
100
AcDbEntity
  8
Layer_1
 62
7
100
AcDbLine
 10
287.049888
 20
344.670989
 30
0.0
 11
286.967866
 21
344.336053
 31
0.0
  0
LINE
  5
1f0
100
AcDbEntity
  8
Layer_1
 62
7
100
AcDbLine
 10
286.967866
 20
344.336053
 30
0.0
 11
288.587744
 21
342.565659
 31
0.0
  0
LINE
  5
1f1
100
AcDbEntity
  8
Layer_1
 62
7
100
AcDbLine
 10
288.587744
 20
342.565659
 30
0.0
 11
286.650495
 21
343.040068
 31
0.0
  0
LINE
  5
1f2
100
AcDbEntity
  8
Layer_1
 62
7
100
AcDbLine
 10
286.650495
 20
343.040068
 30
0.0
 11
286.573831
 21
342.727012
 31
0.0
  0
LINE
  5
1f3
100
AcDbEntity
  8
Layer_1
 62
7
100
AcDbLine
 10
286.573831
 20
342.727012
 30
0.0
 11
289.041261
 21
342.122768
 31
0.0
  0
LINE
  5
1f4
100
AcDbEntity
  8
Layer_1
 62
7
100
AcDbLine
 10
289.041261
 20
342.122768
 30
0.0
 11
289.123283
 21
342.457704
 31
0.0
  0
LINE
  5
1f5
100
AcDbEntity
  8
Layer_1
 62
7
100
AcDbLine
 10
289.123283
 20
342.457704
 30
0.0
 11
287.501732
 21
344.228508
 31
0.0
  0
LINE
  5
1f6
100
AcDbEntity
  8
Layer_1
 62
7
100
AcDbLine
 10
287.501732
 20
344.228508
 30
0.0
 11
289.440654
 21
343.753689
 31
0.0
  0
LINE
  5
1f7
100
AcDbEntity
  8
Layer_1
 62
7
100
AcDbLine
 10
289.440654
 20
343.753689
 30
0.0
 11
289.517318
 21
344.066745
 31
0.0
  0
LINE
  5
1f8
100
AcDbEntity
  8
Layer_1
 62
7
100
AcDbLine
 10
287.656496
 20
340.657049
 30
0.0
 11
287.367023
 21
340.727938
 31
0.0
  0
LINE
  5
1f9
100
AcDbEntity
  8
Layer_1
 62
7
100
AcDbLine
 10
287.367023
 20
340.727938
 30
0.0
 11
287.108323
 21
339.683405
 31
0.0
  0
LINE
  5
1fa
100
AcDbEntity
  8
Layer_1
 62
7
100
AcDbLine
 10
287.108323
 20
339.683405
 30
0.0
 11
288.023947
 21
339.459180
 31
0.0
  0
SPLINE
  5
1fb
100
AcDbEntity
  8
Layer_1
 62
7
100
AcDbSpline
 70
8
 71
3
 72
8
 73
4
 74
0
 40
0
 40
0
 40
0
 40
0
 40
1
 40
1
 40
1
 40
1
 10
288.023947
 20
339.459180
 30
0.0
 10
288.191146
 20
339.588312
 30
0.0
 10
288.328167
 20
339.730187
 30
0.0
 10
288.435010
 20
339.884803
 30
0.0
  0
SPLINE
  5
1fc
100
AcDbEntity
  8
Layer_1
 62
7
100
AcDbSpline
 70
8
 71
3
 72
8
 73
4
 74
0
 40
0
 40
0
 40
0
 40
0
 40
1
 40
1
 40
1
 40
1
 10
288.435010
 20
339.884803
 30
0.0
 10
288.540739
 20
340.039695
 30
0.0
 10
288.615586
 20
340.206906
 30
0.0
 10
288.659550
 20
340.386436
 30
0.0
  0
SPLINE
  5
1fd
100
AcDbEntity
  8
Layer_1
 62
7
100
AcDbSpline
 70
8
 71
3
 72
8
 73
4
 74
0
 40
0
 40
0
 40
0
 40
0
 40
1
 40
1
 40
1
 40
1
 10
288.659550
 20
340.386436
 30
0.0
 10
288.718903
 20
340.628802
 30
0.0
 10
288.721280
 20
340.861928
 30
0.0
 10
288.666682
 20
341.085815
 30
0.0
  0
SPLINE
  5
1fe
100
AcDbEntity
  8
Layer_1
 62
7
100
AcDbSpline
 70
8
 71
3
 72
8
 73
4
 74
0
 40
0
 40
0
 40
0
 40
0
 40
1
 40
1
 40
1
 40
1
 10
288.666682
 20
341.085815
 30
0.0
 10
288.610694
 20
341.308852
 30
0.0
 10
288.496884
 20
341.494907
 30
0.0
 10
288.325251
 20
341.643981
 30
0.0
  0
SPLINE
  5
1ff
100
AcDbEntity
  8
Layer_1
 62
7
100
AcDbSpline
 70
8
 71
3
 72
8
 73
4
 74
0
 40
0
 40
0
 40
0
 40
0
 40
1
 40
1
 40
1
 40
1
 10
288.325251
 20
341.643981
 30
0.0
 10
288.153618
 20
341.793052
 30
0.0
 10
287.946621
 20
341.897264
 30
0.0
 10
287.704261
 20
341.956615
 30
0.0
  0
SPLINE
  5
200
100
AcDbEntity
  8
Layer_1
 62
7
100
AcDbSpline
 70
8
 71
3
 72
8
 73
4
 74
0
 40
0
 40
0
 40
0
 40
0
 40
1
 40
1
 40
1
 40
1
 10
287.704261
 20
341.956615
 30
0.0
 10
287.464148
 20
342.015416
 30
0.0
 10
287.228072
 20
342.020303
 30
0.0
 10
286.996033
 20
341.971275
 30
0.0
  0
SPLINE
  5
201
100
AcDbEntity
  8
Layer_1
 62
7
100
AcDbSpline
 70
8
 71
3
 72
8
 73
4
 74
0
 40
0
 40
0
 40
0
 40
0
 40
1
 40
1
 40
1
 40
1
 10
286.996033
 20
341.971275
 30
0.0
 10
286.762586
 20
341.921400
 30
0.0
 10
286.572287
 20
341.814575
 30
0.0
 10
286.425138
 20
341.650799
 30
0.0
  0
SPLINE
  5
202
100
AcDbEntity
  8
Layer_1
 62
7
100
AcDbSpline
 70
8
 71
3
 72
8
 73
4
 74
0
 40
0
 40
0
 40
0
 40
0
 40
1
 40
1
 40
1
 40
1
 10
286.425138
 20
341.650799
 30
0.0
 10
286.277988
 20
341.487023
 30
0.0
 10
286.174325
 20
341.282268
 30
0.0
 10
286.114148
 20
341.036536
 30
0.0
  0
SPLINE
  5
203
100
AcDbEntity
  8
Layer_1
 62
7
100
AcDbSpline
 70
8
 71
3
 72
8
 73
4
 74
0
 40
0
 40
0
 40
0
 40
0
 40
1
 40
1
 40
1
 40
1
 10
286.114148
 20
341.036536
 30
0.0
 10
286.070458
 20
340.858128
 30
0.0
 10
286.060202
 20
340.689967
 30
0.0
 10
286.083382
 20
340.532052
 30
0.0
  0
SPLINE
  5
204
100
AcDbEntity
  8
Layer_1
 62
7
100
AcDbSpline
 70
8
 71
3
 72
8
 73
4
 74
0
 40
0
 40
0
 40
0
 40
0
 40
1
 40
1
 40
1
 40
1
 10
286.083382
 20
340.532052
 30
0.0
 10
286.105172
 20
340.373289
 30
0.0
 10
286.157646
 20
340.240314
 30
0.0
 10
286.240803
 20
340.133126
 30
0.0
  0
SPLINE
  5
205
100
AcDbEntity
  8
Layer_1
 62
7
100
AcDbSpline
 70
8
 71
3
 72
8
 73
4
 74
0
 40
0
 40
0
 40
0
 40
0
 40
1
 40
1
 40
1
 40
1
 10
286.240803
 20
340.133126
 30
0.0
 10
286.323978
 20
340.025934
 30
0.0
 10
286.443377
 20
339.930686
 30
0.0
 10
286.598999
 20
339.847382
 30
0.0
  0
LINE
  5
206
100
AcDbEntity
  8
Layer_1
 62
7
100
AcDbLine
 10
286.598999
 20
339.847382
 30
0.0
 11
286.751912
 21
340.122141
 31
0.0
  0
SPLINE
  5
207
100
AcDbEntity
  8
Layer_1
 62
7
100
AcDbSpline
 70
8
 71
3
 72
8
 73
4
 74
0
 40
0
 40
0
 40
0
 40
0
 40
1
 40
1
 40
1
 40
1
 10
286.751912
 20
340.122141
 30
0.0
 10
286.635322
 20
340.189941
 30
0.0
 10
286.547849
 20
340.260125
 30
0.0
 10
286.489493
 20
340.332693
 30
0.0
  0
SPLINE
  5
208
100
AcDbEntity
  8
Layer_1
 62
7
100
AcDbSpline
 70
8
 71
3
 72
8
 73
4
 74
0
 40
0
 40
0
 40
0
 40
0
 40
1
 40
1
 40
1
 40
1
 10
286.489493
 20
340.332693
 30
0.0
 10
286.431156
 20
340.405258
 30
0.0
 10
286.393163
 20
340.497817
 30
0.0
 10
286.375515
 20
340.610372
 30
0.0
  0
SPLINE
  5
209
100
AcDbEntity
  8
Layer_1
 62
7
100
AcDbSpline
 70
8
 71
3
 72
8
 73
4
 74
0
 40
0
 40
0
 40
0
 40
0
 40
1
 40
1
 40
1
 40
1
 10
286.375515
 20
340.610372
 30
0.0
 10
286.356770
 20
340.723192
 30
0.0
 10
286.362648
 20
340.841878
 30
0.0
 10
286.393148
 20
340.966428
 30
0.0
  0
SPLINE
  5
20a
100
AcDbEntity
  8
Layer_1
 62
7
100
AcDbSpline
 70
8
 71
3
 72
8
 73
4
 74
0
 40
0
 40
0
 40
0
 40
0
 40
1
 40
1
 40
1
 40
1
 10
286.393148
 20
340.966428
 30
0.0
 10
286.429694
 20
341.115662
 30
0.0
 10
286.484293
 20
341.239067
 30
0.0
 10
286.556944
 20
341.336644
 30
0.0
  0
SPLINE
  5
20b
100
AcDbEntity
  8
Layer_1
 62
7
100
AcDbSpline
 70
8
 71
3
 72
8
 73
4
 74
0
 40
0
 40
0
 40
0
 40
0
 40
1
 40
1
 40
1
 40
1
 10
286.556944
 20
341.336644
 30
0.0
 10
286.628481
 20
341.434492
 30
0.0
 10
286.709526
 20
341.508009
 30
0.0
 10
286.800081
 20
341.557196
 30
0.0
  0
SPLINE
  5
20c
100
AcDbEntity
  8
Layer_1
 62
7
100
AcDbSpline
 70
8
 71
3
 72
8
 73
4
 74
0
 40
0
 40
0
 40
0
 40
0
 40
1
 40
1
 40
1
 40
1
 10
286.800081
 20
341.557196
 30
0.0
 10
286.890343
 20
341.605264
 30
0.0
 10
286.984324
 20
341.636959
 30
0.0
 10
287.082024
 20
341.652280
 30
0.0
  0
SPLINE
  5
20d
100
AcDbEntity
  8
Layer_1
 62
7
100
AcDbSpline
 70
8
 71
3
 72
8
 73
4
 74
0
 40
0
 40
0
 40
0
 40
0
 40
1
 40
1
 40
1
 40
1
 10
287.082024
 20
341.652280
 30
0.0
 10
287.250025
 20
341.677743
 30
0.0
 10
287.423225
 20
341.668631
 30
0.0
 10
287.601624
 20
341.624943
 30
0.0
  0
SPLINE
  5
20e
100
AcDbEntity
  8
Layer_1
 62
7
100
AcDbSpline
 70
8
 71
3
 72
8
 73
4
 74
0
 40
0
 40
0
 40
0
 40
0
 40
1
 40
1
 40
1
 40
1
 10
287.601624
 20
341.624943
 30
0.0
 10
287.821561
 20
341.571083
 30
0.0
 10
287.996374
 20
341.488430
 30
0.0
 10
288.126063
 20
341.376983
 30
0.0
  0
SPLINE
  5
20f
100
AcDbEntity
  8
Layer_1
 62
7
100
AcDbSpline
 70
8
 71
3
 72
8
 73
4
 74
0
 40
0
 40
0
 40
0
 40
0
 40
1
 40
1
 40
1
 40
1
 10
288.126063
 20
341.376983
 30
0.0
 10
288.255496
 20
341.264412
 30
0.0
 10
288.338399
 20
341.126958
 30
0.0
 10
288.374772
 20
340.964623
 30
0.0
  0
SPLINE
  5
210
100
AcDbEntity
  8
Layer_1
 62
7
100
AcDbSpline
 70
8
 71
3
 72
8
 73
4
 74
0
 40
0
 40
0
 40
0
 40
0
 40
1
 40
1
 40
1
 40
1
 10
288.374772
 20
340.964623
 30
0.0
 10
288.411127
 20
340.802294
 30
0.0
 10
288.409383
 20
340.639780
 30
0.0
 10
288.369540
 20
340.477081
 30
0.0
  0
SPLINE
  5
211
100
AcDbEntity
  8
Layer_1
 62
7
100
AcDbSpline
 70
8
 71
3
 72
8
 73
4
 74
0
 40
0
 40
0
 40
0
 40
0
 40
1
 40
1
 40
1
 40
1
 10
288.369540
 20
340.477081
 30
0.0
 10
288.334917
 20
340.335699
 30
0.0
 10
288.274191
 20
340.204280
 30
0.0
 10
288.187362
 20
340.082821
 30
0.0
  0
SPLINE
  5
212
100
AcDbEntity
  8
Layer_1
 62
7
100
AcDbSpline
 70
8
 71
3
 72
8
 73
4
 74
0
 40
0
 40
0
 40
0
 40
0
 40
1
 40
1
 40
1
 40
1
 10
288.187362
 20
340.082821
 30
0.0
 10
288.099399
 20
339.961640
 30
0.0
 10
288.016043
 20
339.873822
 30
0.0
 10
287.937292
 20
339.819367
 30
0.0
  0
LINE
  5
213
100
AcDbEntity
  8
Layer_1
 62
7
100
AcDbLine
 10
287.937292
 20
339.819367
 30
0.0
 11
287.477809
 21
339.931889
 31
0.0
  0
LINE
  5
214
100
AcDbEntity
  8
Layer_1
 62
7
100
AcDbLine
 10
287.477809
 20
339.931889
 30
0.0
 11
287.656496
 21
340.657049
 31
0.0
  0
LINE
  5
215
100
AcDbEntity
  8
Layer_1
 62
7
100
AcDbLine
 10
287.250107
 20
338.239859
 30
0.0
 11
287.147816
 21
337.938431
 31
0.0
  0
SPLINE
  5
216
100
AcDbEntity
  8
Layer_1
 62
7
100
AcDbSpline
 70
8
 71
3
 72
8
 73
4
 74
0
 40
0
 40
0
 40
0
 40
0
 40
1
 40
1
 40
1
 40
1
 10
287.147816
 20
337.938431
 30
0.0
 10
287.267673
 20
337.893622
 30
0.0
 10
287.360973
 20
337.835092
 30
0.0
 10
287.427718
 20
337.762844
 30
0.0
  0
SPLINE
  5
217
100
AcDbEntity
  8
Layer_1
 62
7
100
AcDbSpline
 70
8
 71
3
 72
8
 73
4
 74
0
 40
0
 40
0
 40
0
 40
0
 40
1
 40
1
 40
1
 40
1
 10
287.427718
 20
337.762844
 30
0.0
 10
287.493074
 20
337.689751
 30
0.0
 10
287.536693
 20
337.591057
 30
0.0
 10
287.558575
 20
337.466762
 30
0.0
  0
SPLINE
  5
218
100
AcDbEntity
  8
Layer_1
 62
7
100
AcDbSpline
 70
8
 71
3
 72
8
 73
4
 74
0
 40
0
 40
0
 40
0
 40
0
 40
1
 40
1
 40
1
 40
1
 10
287.558575
 20
337.466762
 30
0.0
 10
287.579361
 20
337.342737
 30
0.0
 10
287.572580
 20
337.210595
 30
0.0
 10
287.538232
 20
337.070336
 30
0.0
  0
SPLINE
  5
219
100
AcDbEntity
  8
Layer_1
 62
7
100
AcDbSpline
 70
8
 71
3
 72
8
 73
4
 74
0
 40
0
 40
0
 40
0
 40
0
 40
1
 40
1
 40
1
 40
1
 10
287.538232
 20
337.070336
 30
0.0
 10
287.507731
 20
336.945788
 30
0.0
 10
287.462281
 20
336.840361
 30
0.0
 10
287.401882
 20
336.754056
 30
0.0
  0
SPLINE
  5
21a
100
AcDbEntity
  8
Layer_1
 62
7
100
AcDbSpline
 70
8
 71
3
 72
8
 73
4
 74
0
 40
0
 40
0
 40
0
 40
0
 40
1
 40
1
 40
1
 40
1
 10
287.401882
 20
336.754056
 30
0.0
 10
287.341501
 20
336.667749
 30
0.0
 10
287.273696
 20
336.609424
 30
0.0
 10
287.198468
 20
336.579082
 30
0.0
  0
SPLINE
  5
21b
100
AcDbEntity
  8
Layer_1
 62
7
100
AcDbSpline
 70
8
 71
3
 72
8
 73
4
 74
0
 40
0
 40
0
 40
0
 40
0
 40
1
 40
1
 40
1
 40
1
 10
287.198468
 20
336.579082
 30
0.0
 10
287.121851
 20
336.547892
 30
0.0
 10
287.045394
 20
336.541639
 30
0.0
 10
286.969096
 20
336.560323
 30
0.0
  0
SPLINE
  5
21c
100
AcDbEntity
  8
Layer_1
 62
7
100
AcDbSpline
 70
8
 71
3
 72
8
 73
4
 74
0
 40
0
 40
0
 40
0
 40
0
 40
1
 40
1
 40
1
 40
1
 10
286.969096
 20
336.560323
 30
0.0
 10
286.891684
 20
336.579280
 30
0.0
 10
286.829855
 20
336.618209
 30
0.0
 10
286.783610
 20
336.677108
 30
0.0
  0
SPLINE
  5
21d
100
AcDbEntity
  8
Layer_1
 62
7
100
AcDbSpline
 70
8
 71
3
 72
8
 73
4
 74
0
 40
0
 40
0
 40
0
 40
0
 40
1
 40
1
 40
1
 40
1
 10
286.783610
 20
336.677108
 30
0.0
 10
286.736250
 20
336.736281
 30
0.0
 10
286.705573
 20
336.822290
 30
0.0
 10
286.691580
 20
336.935137
 30
0.0
  0
SPLINE
  5
21e
100
AcDbEntity
  8
Layer_1
 62
7
100
AcDbSpline
 70
8
 71
3
 72
8
 73
4
 74
0
 40
0
 40
0
 40
0
 40
0
 40
1
 40
1
 40
1
 40
1
 10
286.691580
 20
336.935137
 30
0.0
 10
286.681988
 20
337.007658
 30
0.0
 10
286.678017
 20
337.163842
 30
0.0
 10
286.679667
 20
337.403688
 30
0.0
  0
SPLINE
  5
21f
100
AcDbEntity
  8
Layer_1
 62
7
100
AcDbSpline
 70
8
 71
3
 72
8
 73
4
 74
0
 40
0
 40
0
 40
0
 40
0
 40
1
 40
1
 40
1
 40
1
 10
286.679667
 20
337.403688
 30
0.0
 10
286.680184
 20
337.643811
 30
0.0
 10
286.667448
 20
337.815224
 30
0.0
 10
286.641460
 20
337.917927
 30
0.0
  0
SPLINE
  5
220
100
AcDbEntity
  8
Layer_1
 62
7
100
AcDbSpline
 70
8
 71
3
 72
8
 73
4
 74
0
 40
0
 40
0
 40
0
 40
0
 40
1
 40
1
 40
1
 40
1
 10
286.641460
 20
337.917927
 30
0.0
 10
286.608597
 20
338.050856
 30
0.0
 10
286.553870
 20
338.157622
 30
0.0
 10
286.477278
 20
338.238225
 30
0.0
  0
SPLINE
  5
221
100
AcDbEntity
  8
Layer_1
 62
7
100
AcDbSpline
 70
8
 71
3
 72
8
 73
4
 74
0
 40
0
 40
0
 40
0
 40
0
 40
1
 40
1
 40
1
 40
1
 10
286.477278
 20
338.238225
 30
0.0
 10
286.399279
 20
338.317984
 30
0.0
 10
286.303618
 20
338.371739
 30
0.0
 10
286.190295
 20
338.399491
 30
0.0
  0
SPLINE
  5
222
100
AcDbEntity
  8
Layer_1
 62
7
100
AcDbSpline
 70
8
 71
3
 72
8
 73
4
 74
0
 40
0
 40
0
 40
0
 40
0
 40
1
 40
1
 40
1
 40
1
 10
286.190295
 20
338.399491
 30
0.0
 10
286.065752
 20
338.429990
 30
0.0
 10
285.940960
 20
338.423085
 30
0.0
 10
285.815919
 20
338.378776
 30
0.0
  0
SPLINE
  5
223
100
AcDbEntity
  8
Layer_1
 62
7
100
AcDbSpline
 70
8
 71
3
 72
8
 73
4
 74
0
 40
0
 40
0
 40
0
 40
0
 40
1
 40
1
 40
1
 40
1
 10
285.815919
 20
338.378776
 30
0.0
 10
285.689763
 20
338.334740
 30
0.0
 10
285.582009
 20
338.251707
 30
0.0
 10
285.492657
 20
338.129677
 30
0.0
  0
SPLINE
  5
224
100
AcDbEntity
  8
Layer_1
 62
7
100
AcDbSpline
 70
8
 71
3
 72
8
 73
4
 74
0
 40
0
 40
0
 40
0
 40
0
 40
1
 40
1
 40
1
 40
1
 10
285.492657
 20
338.129677
 30
0.0
 10
285.403304
 20
338.007645
 30
0.0
 10
285.338294
 20
337.863597
 30
0.0
 10
285.297627
 20
337.697532
 30
0.0
  0
SPLINE
  5
225
100
AcDbEntity
  8
Layer_1
 62
7
100
AcDbSpline
 70
8
 71
3
 72
8
 73
4
 74
0
 40
0
 40
0
 40
0
 40
0
 40
1
 40
1
 40
1
 40
1
 10
285.297627
 20
337.697532
 30
0.0
 10
285.252838
 20
337.514636
 30
0.0
 10
285.243149
 20
337.346335
 30
0.0
 10
285.268561
 20
337.192631
 30
0.0
  0
SPLINE
  5
226
100
AcDbEntity
  8
Layer_1
 62
7
100
AcDbSpline
 70
8
 71
3
 72
8
 73
4
 74
0
 40
0
 40
0
 40
0
 40
0
 40
1
 40
1
 40
1
 40
1
 10
285.268561
 20
337.192631
 30
0.0
 10
285.292546
 20
337.038089
 30
0.0
 10
285.352562
 20
336.909213
 30
0.0
 10
285.448606
 20
336.806006
 30
0.0
  0
SPLINE
  5
227
100
AcDbEntity
  8
Layer_1
 62
7
100
AcDbSpline
 70
8
 71
3
 72
8
 73
4
 74
0
 40
0
 40
0
 40
0
 40
0
 40
1
 40
1
 40
1
 40
1
 10
285.448606
 20
336.806006
 30
0.0
 10
285.544652
 20
336.702800
 30
0.0
 10
285.664356
 20
336.630670
 30
0.0
 10
285.807718
 20
336.589615
 30
0.0
  0
LINE
  5
228
100
AcDbEntity
  8
Layer_1
 62
7
100
AcDbLine
 10
285.807718
 20
336.589615
 30
0.0
 11
285.907956
 21
336.896898
 31
0.0
  0
SPLINE
  5
229
100
AcDbEntity
  8
Layer_1
 62
7
100
AcDbSpline
 70
8
 71
3
 72
8
 73
4
 74
0
 40
0
 40
0
 40
0
 40
0
 40
1
 40
1
 40
1
 40
1
 10
285.907956
 20
336.896898
 30
0.0
 10
285.756121
 20
336.951921
 30
0.0
 10
285.652317
 20
337.037998
 30
0.0
 10
285.596544
 20
337.155129
 30
0.0
  0
SPLINE
  5
22a
100
AcDbEntity
  8
Layer_1
 62
7
100
AcDbSpline
 70
8
 71
3
 72
8
 73
4
 74
0
 40
0
 40
0
 40
0
 40
0
 40
1
 40
1
 40
1
 40
1
 10
285.596544
 20
337.155129
 30
0.0
 10
285.540516
 20
337.271135
 30
0.0
 10
285.535720
 20
337.423952
 30
0.0
 10
285.582158
 20
337.613581
 30
0.0
  0
SPLINE
  5
22b
100
AcDbEntity
  8
Layer_1
 62
7
100
AcDbSpline
 70
8
 71
3
 72
8
 73
4
 74
0
 40
0
 40
0
 40
0
 40
0
 40
1
 40
1
 40
1
 40
1
 10
285.582158
 20
337.613581
 30
0.0
 10
285.630519
 20
337.811064
 30
0.0
 10
285.702296
 20
337.946319
 30
0.0
 10
285.797488
 20
338.019347
 30
0.0
  0
SPLINE
  5
22c
100
AcDbEntity
  8
Layer_1
 62
7
100
AcDbSpline
 70
8
 71
3
 72
8
 73
4
 74
0
 40
0
 40
0
 40
0
 40
0
 40
1
 40
1
 40
1
 40
1
 10
285.797488
 20
338.019347
 30
0.0
 10
285.891272
 20
338.091527
 30
0.0
 10
285.989224
 20
338.115114
 30
0.0
 10
286.091344
 20
338.090106
 30
0.0
  0
SPLINE
  5
22d
100
AcDbEntity
  8
Layer_1
 62
7
100
AcDbSpline
 70
8
 71
3
 72
8
 73
4
 74
0
 40
0
 40
0
 40
0
 40
0
 40
1
 40
1
 40
1
 40
1
 10
286.091344
 20
338.090106
 30
0.0
 10
286.179977
 20
338.068401
 30
0.0
 10
286.245080
 20
338.018562
 30
0.0
 10
286.286655
 20
337.940589
 30
0.0
  0
SPLINE
  5
22e
100
AcDbEntity
  8
Layer_1
 62
7
100
AcDbSpline
 70
8
 71
3
 72
8
 73
4
 74
0
 40
0
 40
0
 40
0
 40
0
 40
1
 40
1
 40
1
 40
1
 10
286.286655
 20
337.940589
 30
0.0
 10
286.328486
 20
337.863740
 30
0.0
 10
286.347276
 20
337.685492
 30
0.0
 10
286.343027
 20
337.405845
 30
0.0
  0
SPLINE
  5
22f
100
AcDbEntity
  8
Layer_1
 62
7
100
AcDbSpline
 70
8
 71
3
 72
8
 73
4
 74
0
 40
0
 40
0
 40
0
 40
0
 40
1
 40
1
 40
1
 40
1
 10
286.343027
 20
337.405845
 30
0.0
 10
286.337371
 20
337.125352
 30
0.0
 10
286.344894
 20
336.930240
 30
0.0
 10
286.365596
 20
336.820508
 30
0.0
  0
SPLINE
  5
230
100
AcDbEntity
  8
Layer_1
 62
7
100
AcDbSpline
 70
8
 71
3
 72
8
 73
4
 74
0
 40
0
 40
0
 40
0
 40
0
 40
1
 40
1
 40
1
 40
1
 10
286.365596
 20
336.820508
 30
0.0
 10
286.396615
 20
336.660673
 30
0.0
 10
286.454804
 20
336.534029
 30
0.0
 10
286.540162
 20
336.440577
 30
0.0
  0
SPLINE
  5
231
100
AcDbEntity
  8
Layer_1
 62
7
100
AcDbSpline
 70
8
 71
3
 72
8
 73
4
 74
0
 40
0
 40
0
 40
0
 40
0
 40
1
 40
1
 40
1
 40
1
 10
286.540162
 20
336.440577
 30
0.0
 10
286.624387
 20
336.347400
 30
0.0
 10
286.732700
 20
336.284600
 30
0.0
 10
286.865101
 20
336.252176
 30
0.0
  0
SPLINE
  5
232
100
AcDbEntity
  8
Layer_1
 62
7
100
AcDbSpline
 70
8
 71
3
 72
8
 73
4
 74
0
 40
0
 40
0
 40
0
 40
0
 40
1
 40
1
 40
1
 40
1
 10
286.865101
 20
336.252176
 30
0.0
 10
286.996370
 20
336.220030
 30
0.0
 10
287.129560
 20
336.227257
 30
0.0
 10
287.264674
 20
336.273857
 30
0.0
  0
SPLINE
  5
233
100
AcDbEntity
  8
Layer_1
 62
7
100
AcDbSpline
 70
8
 71
3
 72
8
 73
4
 74
0
 40
0
 40
0
 40
0
 40
0
 40
1
 40
1
 40
1
 40
1
 10
287.264674
 20
336.273857
 30
0.0
 10
287.398654
 20
336.320732
 30
0.0
 10
287.515493
 20
336.406892
 30
0.0
 10
287.615193
 20
336.532337
 30
0.0
  0
SPLINE
  5
234
100
AcDbEntity
  8
Layer_1
 62
7
100
AcDbSpline
 70
8
 71
3
 72
8
 73
4
 74
0
 40
0
 40
0
 40
0
 40
0
 40
1
 40
1
 40
1
 40
1
 10
287.615193
 20
336.532337
 30
0.0
 10
287.713502
 20
336.656931
 30
0.0
 10
287.784227
 20
336.807310
 30
0.0
 10
287.827367
 20
336.983474
 30
0.0
  0
SPLINE
  5
235
100
AcDbEntity
  8
Layer_1
 62
7
100
AcDbSpline
 70
8
 71
3
 72
8
 73
4
 74
0
 40
0
 40
0
 40
0
 40
0
 40
1
 40
1
 40
1
 40
1
 10
287.827367
 20
336.983474
 30
0.0
 10
287.882048
 20
337.206765
 30
0.0
 10
287.895399
 20
337.402118
 30
0.0
 10
287.867418
 20
337.569535
 30
0.0
  0
SPLINE
  5
236
100
AcDbEntity
  8
Layer_1
 62
7
100
AcDbSpline
 70
8
 71
3
 72
8
 73
4
 74
0
 40
0
 40
0
 40
0
 40
0
 40
1
 40
1
 40
1
 40
1
 10
287.867418
 20
337.569535
 30
0.0
 10
287.839161
 20
337.735827
 30
0.0
 10
287.770527
 20
337.878112
 30
0.0
 10
287.661513
 20
337.996389
 30
0.0
  0
SPLINE
  5
237
100
AcDbEntity
  8
Layer_1
 62
7
100
AcDbSpline
 70
8
 71
3
 72
8
 73
4
 74
0
 40
0
 40
0
 40
0
 40
0
 40
1
 40
1
 40
1
 40
1
 10
287.661513
 20
337.996389
 30
0.0
 10
287.551128
 20
338.113811
 30
0.0
 10
287.414011
 20
338.194963
 30
0.0
 10
287.250162
 20
338.239845
 30
0.0
  0
LINE
  5
238
100
AcDbEntity
  8
Layer_1
 62
7
100
AcDbLine
 10
287.250162
 20
338.239845
 30
0.0
 11
287.250107
 21
338.239859
 31
0.0
  0
LINE
  5
239
100
AcDbEntity
  8
Layer_1
 62
7
100
AcDbLine
 10
287.452607
 20
335.635507
 30
0.0
 11
284.985177
 21
336.239752
 31
0.0
  0
LINE
  5
23a
100
AcDbEntity
  8
Layer_1
 62
7
100
AcDbLine
 10
284.985177
 20
336.239752
 30
0.0
 11
284.757246
 21
335.308997
 31
0.0
  0
SPLINE
  5
23b
100
AcDbEntity
  8
Layer_1
 62
7
100
AcDbSpline
 70
8
 71
3
 72
8
 73
4
 74
0
 40
0
 40
0
 40
0
 40
0
 40
1
 40
1
 40
1
 40
1
 10
284.757246
 20
335.308997
 30
0.0
 10
284.717128
 20
335.145176
 30
0.0
 10
284.694348
 20
335.018142
 30
0.0
 10
284.688907
 20
334.927896
 30
0.0
  0
SPLINE
  5
23c
100
AcDbEntity
  8
Layer_1
 62
7
100
AcDbSpline
 70
8
 71
3
 72
8
 73
4
 74
0
 40
0
 40
0
 40
0
 40
0
 40
1
 40
1
 40
1
 40
1
 10
284.688907
 20
334.927896
 30
0.0
 10
284.679424
 20
334.801766
 30
0.0
 10
284.693272
 20
334.690738
 30
0.0
 10
284.730449
 20
334.594810
 30
0.0
  0
SPLINE
  5
23d
100
AcDbEntity
  8
Layer_1
 62
7
100
AcDbSpline
 70
8
 71
3
 72
8
 73
4
 74
0
 40
0
 40
0
 40
0
 40
0
 40
1
 40
1
 40
1
 40
1
 10
284.730449
 20
334.594810
 30
0.0
 10
284.766494
 20
334.499161
 30
0.0
 10
284.829522
 20
334.414149
 30
0.0
 10
284.919533
 20
334.339775
 30
0.0
  0
SPLINE
  5
23e
100
AcDbEntity
  8
Layer_1
 62
7
100
AcDbSpline
 70
8
 71
3
 72
8
 73
4
 74
0
 40
0
 40
0
 40
0
 40
0
 40
1
 40
1
 40
1
 40
1
 10
284.919533
 20
334.339775
 30
0.0
 10
285.009269
 20
334.264278
 30
0.0
 10
285.115294
 20
334.211553
 30
0.0
 10
285.237607
 20
334.181600
 30
0.0
  0
SPLINE
  5
23f
100
AcDbEntity
  8
Layer_1
 62
7
100
AcDbSpline
 70
8
 71
3
 72
8
 73
4
 74
0
 40
0
 40
0
 40
0
 40
0
 40
1
 40
1
 40
1
 40
1
 10
285.237607
 20
334.181600
 30
0.0
 10
285.447439
 20
334.130215
 30
0.0
 10
285.641630
 20
334.153427
 30
0.0
 10
285.820180
 20
334.251236
 30
0.0
  0
SPLINE
  5
240
100
AcDbEntity
  8
Layer_1
 62
7
100
AcDbSpline
 70
8
 71
3
 72
8
 73
4
 74
0
 40
0
 40
0
 40
0
 40
0
 40
1
 40
1
 40
1
 40
1
 10
285.820180
 20
334.251236
 30
0.0
 10
285.997634
 20
334.349312
 30
0.0
 10
286.129089
 20
334.572832
 30
0.0
 10
286.214546
 20
334.921795
 30
0.0
  0
LINE
  5
241
100
AcDbEntity
  8
Layer_1
 62
7
100
AcDbLine
 10
286.214546
 20
334.921795
 30
0.0
 11
286.369522
 21
335.554639
 31
0.0
  0
LINE
  5
242
100
AcDbEntity
  8
Layer_1
 62
7
100
AcDbLine
 10
286.369522
 20
335.554639
 30
0.0
 11
287.372646
 21
335.308986
 31
0.0
  0
LINE
  5
243
100
AcDbEntity
  8
Layer_1
 62
7
100
AcDbLine
 10
287.372646
 20
335.308986
 30
0.0
 11
287.452607
 21
335.635507
 31
0.0
  0
LINE
  5
244
100
AcDbEntity
  8
Layer_1
 62
7
100
AcDbLine
 10
286.078350
 20
335.625944
 30
0.0
 11
285.922137
 21
334.988051
 31
0.0
  0
SPLINE
  5
245
100
AcDbEntity
  8
Layer_1
 62
7
100
AcDbSpline
 70
8
 71
3
 72
8
 73
4
 74
0
 40
0
 40
0
 40
0
 40
0
 40
1
 40
1
 40
1
 40
1
 10
285.922137
 20
334.988051
 30
0.0
 10
285.870478
 20
334.777103
 30
0.0
 10
285.794522
 20
334.636924
 30
0.0
 10
285.694269
 20
334.567515
 30
0.0
  0
SPLINE
  5
246
100
AcDbEntity
  8
Layer_1
 62
7
100
AcDbSpline
 70
8
 71
3
 72
8
 73
4
 74
0
 40
0
 40
0
 40
0
 40
0
 40
1
 40
1
 40
1
 40
1
 10
285.694269
 20
334.567515
 30
0.0
 10
285.594016
 20
334.498106
 30
0.0
 10
285.472636
 20
334.480851
 30
0.0
 10
285.330129
 20
334.515749
 30
0.0
  0
SPLINE
  5
247
100
AcDbEntity
  8
Layer_1
 62
7
100
AcDbSpline
 70
8
 71
3
 72
8
 73
4
 74
0
 40
0
 40
0
 40
0
 40
0
 40
1
 40
1
 40
1
 40
1
 10
285.330129
 20
334.515749
 30
0.0
 10
285.226895
 20
334.541030
 30
0.0
 10
285.145277
 20
334.588967
 30
0.0
 10
285.085275
 20
334.659561
 30
0.0
  0
SPLINE
  5
248
100
AcDbEntity
  8
Layer_1
 62
7
100
AcDbSpline
 70
8
 71
3
 72
8
 73
4
 74
0
 40
0
 40
0
 40
0
 40
0
 40
1
 40
1
 40
1
 40
1
 10
285.085275
 20
334.659561
 30
0.0
 10
285.023847
 20
334.729315
 30
0.0
 10
284.991797
 20
334.809714
 30
0.0
 10
284.989123
 20
334.900758
 30
0.0
  0
SPLINE
  5
249
100
AcDbEntity
  8
Layer_1
 62
7
100
AcDbSpline
 70
8
 71
3
 72
8
 73
4
 74
0
 40
0
 40
0
 40
0
 40
0
 40
1
 40
1
 40
1
 40
1
 10
284.989123
 20
334.900758
 30
0.0
 10
284.987968
 20
334.959320
 30
0.0
 10
285.005526
 20
335.062658
 30
0.0
 10
285.041797
 20
335.210772
 30
0.0
  0
LINE
  5
24a
100
AcDbEntity
  8
Layer_1
 62
7
100
AcDbLine
 10
285.041797
 20
335.210772
 30
0.0
 11
285.196361
 21
335.841933
 31
0.0
  0
LINE
  5
24b
100
AcDbEntity
  8
Layer_1
 62
7
100
AcDbLine
 10
285.196361
 20
335.841933
 30
0.0
 11
286.078350
 21
335.625944
 31
0.0
  0
LINE
  5
24c
100
AcDbEntity
  8
Layer_1
 62
7
100
AcDbLine
 10
286.955932
 20
333.607339
 30
0.0
 11
284.256450
 21
333.264001
 31
0.0
  0
LINE
  5
24d
100
AcDbEntity
  8
Layer_1
 62
7
100
AcDbLine
 10
284.256450
 20
333.264001
 30
0.0
 11
284.170307
 21
332.912233
 31
0.0
  0
LINE
  5
24e
100
AcDbEntity
  8
Layer_1
 62
7
100
AcDbLine
 10
284.170307
 20
332.912233
 30
0.0
 11
286.390434
 21
331.298130
 31
0.0
  0
LINE
  5
24f
100
AcDbEntity
  8
Layer_1
 62
7
100
AcDbLine
 10
286.390434
 20
331.298130
 30
0.0
 11
286.481524
 21
331.670095
 31
0.0
  0
LINE
  5
250
100
AcDbEntity
  8
Layer_1
 62
7
100
AcDbLine
 10
286.481524
 20
331.670095
 30
0.0
 11
285.804720
 21
332.140906
 31
0.0
  0
LINE
  5
251
100
AcDbEntity
  8
Layer_1
 62
7
100
AcDbLine
 10
285.804720
 20
332.140906
 30
0.0
 11
286.057381
 21
333.172644
 31
0.0
  0
LINE
  5
252
100
AcDbEntity
  8
Layer_1
 62
7
100
AcDbLine
 10
286.057381
 20
333.172644
 30
0.0
 11
286.871025
 21
333.260621
 31
0.0
  0
LINE
  5
253
100
AcDbEntity
  8
Layer_1
 62
7
100
AcDbLine
 10
286.871025
 20
333.260621
 30
0.0
 11
286.955932
 21
333.607339
 31
0.0
  0
LINE
  5
254
100
AcDbEntity
  8
Layer_1
 62
7
100
AcDbLine
 10
285.768373
 20
333.143512
 30
0.0
 11
285.563524
 21
332.307014
 31
0.0
  0
LINE
  5
255
100
AcDbEntity
  8
Layer_1
 62
7
100
AcDbLine
 10
285.563524
 20
332.307014
 30
0.0
 11
284.943227
 21
332.731874
 31
0.0
  0
SPLINE
  5
256
100
AcDbEntity
  8
Layer_1
 62
7
100
AcDbSpline
 70
8
 71
3
 72
8
 73
4
 74
0
 40
0
 40
0
 40
0
 40
0
 40
1
 40
1
 40
1
 40
1
 10
284.943227
 20
332.731874
 30
0.0
 10
284.754896
 20
332.861250
 30
0.0
 10
284.598635
 20
332.961362
 30
0.0
 10
284.474443
 20
333.032212
 30
0.0
  0
SPLINE
  5
257
100
AcDbEntity
  8
Layer_1
 62
7
100
AcDbSpline
 70
8
 71
3
 72
8
 73
4
 74
0
 40
0
 40
0
 40
0
 40
0
 40
1
 40
1
 40
1
 40
1
 10
284.474443
 20
333.032212
 30
0.0
 10
284.640342
 20
333.024888
 30
0.0
 10
284.808286
 20
333.030740
 30
0.0
 10
284.978276
 20
333.049769
 30
0.0
  0
LINE
  5
258
100
AcDbEntity
  8
Layer_1
 62
7
100
AcDbLine
 10
284.978276
 20
333.049769
 30
0.0
 11
285.768373
 21
333.143512
 31
0.0
  0
LINE
  5
259
100
AcDbEntity
  8
Layer_1
 62
7
100
AcDbLine
 10
285.030308
 20
329.488556
 30
0.0
 11
285.032802
 21
329.141843
 31
0.0
  0
SPLINE
  5
25a
100
AcDbEntity
  8
Layer_1
 62
7
100
AcDbSpline
 70
8
 71
3
 72
8
 73
4
 74
0
 40
0
 40
0
 40
0
 40
0
 40
1
 40
1
 40
1
 40
1
 10
285.032802
 20
329.141843
 30
0.0
 10
285.317747
 20
329.144615
 30
0.0
 10
285.552752
 20
329.217894
 30
0.0
 10
285.737816
 20
329.361681
 30
0.0
  0
SPLINE
  5
25b
100
AcDbEntity
  8
Layer_1
 62
7
100
AcDbSpline
 70
8
 71
3
 72
8
 73
4
 74
0
 40
0
 40
0
 40
0
 40
0
 40
1
 40
1
 40
1
 40
1
 10
285.737816
 20
329.361681
 30
0.0
 10
285.921490
 20
329.504619
 30
0.0
 10
286.044790
 20
329.704565
 30
0.0
 10
286.107714
 20
329.961518
 30
0.0
  0
SPLINE
  5
25c
100
AcDbEntity
  8
Layer_1
 62
7
100
AcDbSpline
 70
8
 71
3
 72
8
 73
4
 74
0
 40
0
 40
0
 40
0
 40
0
 40
1
 40
1
 40
1
 40
1
 10
286.107714
 20
329.961518
 30
0.0
 10
286.172838
 20
330.227448
 30
0.0
 10
286.172014
 20
330.457195
 30
0.0
 10
286.105245
 20
330.650759
 30
0.0
  0
SPLINE
  5
25d
100
AcDbEntity
  8
Layer_1
 62
7
100
AcDbSpline
 70
8
 71
3
 72
8
 73
4
 74
0
 40
0
 40
0
 40
0
 40
0
 40
1
 40
1
 40
1
 40
1
 10
286.105245
 20
330.650759
 30
0.0
 10
286.037068
 20
330.843481
 30
0.0
 10
285.911028
 20
331.008744
 30
0.0
 10
285.727124
 20
331.146548
 30
0.0
  0
SPLINE
  5
25e
100
AcDbEntity
  8
Layer_1
 62
7
100
AcDbSpline
 70
8
 71
3
 72
8
 73
4
 74
0
 40
0
 40
0
 40
0
 40
0
 40
1
 40
1
 40
1
 40
1
 10
285.727124
 20
331.146548
 30
0.0
 10
285.542947
 20
331.283233
 30
0.0
 10
285.333040
 20
331.380427
 30
0.0
 10
285.097405
 20
331.438131
 30
0.0
  0
SPLINE
  5
25f
100
AcDbEntity
  8
Layer_1
 62
7
100
AcDbSpline
 70
8
 71
3
 72
8
 73
4
 74
0
 40
0
 40
0
 40
0
 40
0
 40
1
 40
1
 40
1
 40
1
 10
285.097405
 20
331.438131
 30
0.0
 10
284.840442
 20
331.501058
 30
0.0
 10
284.604632
 20
331.507068
 30
0.0
 10
284.389973
 20
331.456161
 30
0.0
  0
SPLINE
  5
260
100
AcDbEntity
  8
Layer_1
 62
7
100
AcDbSpline
 70
8
 71
3
 72
8
 73
4
 74
0
 40
0
 40
0
 40
0
 40
0
 40
1
 40
1
 40
1
 40
1
 10
284.389973
 20
331.456161
 30
0.0
 10
284.173925
 20
331.404406
 30
0.0
 10
283.994412
 20
331.300293
 30
0.0
 10
283.851434
 20
331.143821
 30
0.0
  0
SPLINE
  5
261
100
AcDbEntity
  8
Layer_1
 62
7
100
AcDbSpline
 70
8
 71
3
 72
8
 73
4
 74
0
 40
0
 40
0
 40
0
 40
0
 40
1
 40
1
 40
1
 40
1
 10
283.851434
 20
331.143821
 30
0.0
 10
283.707047
 20
330.986502
 30
0.0
 10
283.608200
 20
330.799002
 30
0.0
 10
283.554893
 20
330.581322
 30
0.0
  0
SPLINE
  5
262
100
AcDbEntity
  8
Layer_1
 62
7
100
AcDbSpline
 70
8
 71
3
 72
8
 73
4
 74
0
 40
0
 40
0
 40
0
 40
0
 40
1
 40
1
 40
1
 40
1
 10
283.554893
 20
330.581322
 30
0.0
 10
283.494441
 20
330.334468
 30
0.0
 10
283.506445
 20
330.111497
 30
0.0
 10
283.590904
 20
329.912412
 30
0.0
  0
SPLINE
  5
263
100
AcDbEntity
  8
Layer_1
 62
7
100
AcDbSpline
 70
8
 71
3
 72
8
 73
4
 74
0
 40
0
 40
0
 40
0
 40
0
 40
1
 40
1
 40
1
 40
1
 10
283.590904
 20
329.912412
 30
0.0
 10
283.675362
 20
329.713326
 30
0.0
 10
283.823375
 20
329.552792
 30
0.0
 10
284.034940
 20
329.430809
 30
0.0
  0
LINE
  5
264
100
AcDbEntity
  8
Layer_1
 62
7
100
AcDbLine
 10
284.034940
 20
329.430809
 30
0.0
 11
284.189404
 21
329.733733
 31
0.0
  0
SPLINE
  5
265
100
AcDbEntity
  8
Layer_1
 62
7
100
AcDbSpline
 70
8
 71
3
 72
8
 73
4
 74
0
 40
0
 40
0
 40
0
 40
0
 40
1
 40
1
 40
1
 40
1
 10
284.189404
 20
329.733733
 30
0.0
 10
284.023886
 20
329.834924
 30
0.0
 10
283.913500
 20
329.949968
 30
0.0
 10
283.858246
 20
330.078866
 30
0.0
  0
SPLINE
  5
266
100
AcDbEntity
  8
Layer_1
 62
7
100
AcDbSpline
 70
8
 71
3
 72
8
 73
4
 74
0
 40
0
 40
0
 40
0
 40
0
 40
1
 40
1
 40
1
 40
1
 10
283.858246
 20
330.078866
 30
0.0
 10
283.802992
 20
330.207765
 30
0.0
 10
283.795562
 20
330.354686
 30
0.0
 10
283.835954
 20
330.519629
 30
0.0
  0
SPLINE
  5
267
100
AcDbEntity
  8
Layer_1
 62
7
100
AcDbSpline
 70
8
 71
3
 72
8
 73
4
 74
0
 40
0
 40
0
 40
0
 40
0
 40
1
 40
1
 40
1
 40
1
 10
283.835954
 20
330.519629
 30
0.0
 10
283.882392
 20
330.709258
 30
0.0
 10
283.966714
 20
330.856903
 30
0.0
 10
284.088920
 20
330.962564
 30
0.0
  0
SPLINE
  5
268
100
AcDbEntity
  8
Layer_1
 62
7
100
AcDbSpline
 70
8
 71
3
 72
8
 73
4
 74
0
 40
0
 40
0
 40
0
 40
0
 40
1
 40
1
 40
1
 40
1
 10
284.088920
 20
330.962564
 30
0.0
 10
284.210869
 20
331.067096
 30
0.0
 10
284.355018
 20
331.126349
 30
0.0
 10
284.521368
 20
331.140323
 30
0.0
  0
SPLINE
  5
269
100
AcDbEntity
  8
Layer_1
 62
7
100
AcDbSpline
 70
8
 71
3
 72
8
 73
4
 74
0
 40
0
 40
0
 40
0
 40
0
 40
1
 40
1
 40
1
 40
1
 10
284.521368
 20
331.140323
 30
0.0
 10
284.686621
 20
331.154565
 30
0.0
 10
284.850598
 20
331.141765
 30
0.0
 10
285.013298
 20
331.101921
 30
0.0
  0
SPLINE
  5
26a
100
AcDbEntity
  8
Layer_1
 62
7
100
AcDbSpline
 70
8
 71
3
 72
8
 73
4
 74
0
 40
0
 40
0
 40
0
 40
0
 40
1
 40
1
 40
1
 40
1
 10
285.013298
 20
331.101921
 30
0.0
 10
285.223111
 20
331.050540
 30
0.0
 10
285.399144
 20
330.975319
 30
0.0
 10
285.541396
 20
330.876258
 30
0.0
  0
SPLINE
  5
26b
100
AcDbEntity
  8
Layer_1
 62
7
100
AcDbSpline
 70
8
 71
3
 72
8
 73
4
 74
0
 40
0
 40
0
 40
0
 40
0
 40
1
 40
1
 40
1
 40
1
 10
285.541396
 20
330.876258
 30
0.0
 10
285.682259
 20
330.776347
 30
0.0
 10
285.775596
 20
330.652395
 30
0.0
 10
285.821409
 20
330.504401
 30
0.0
  0
SPLINE
  5
26c
100
AcDbEntity
  8
Layer_1
 62
7
100
AcDbSpline
 70
8
 71
3
 72
8
 73
4
 74
0
 40
0
 40
0
 40
0
 40
0
 40
1
 40
1
 40
1
 40
1
 10
285.821409
 20
330.504401
 30
0.0
 10
285.867239
 20
330.356400
 30
0.0
 10
285.871744
 20
330.207222
 30
0.0
 10
285.834924
 20
330.056866
 30
0.0
  0
SPLINE
  5
26d
100
AcDbEntity
  8
Layer_1
 62
7
100
AcDbSpline
 70
8
 71
3
 72
8
 73
4
 74
0
 40
0
 40
0
 40
0
 40
0
 40
1
 40
1
 40
1
 40
1
 10
285.834924
 20
330.056866
 30
0.0
 10
285.790135
 20
329.873970
 30
0.0
 10
285.699474
 20
329.732040
 30
0.0
 10
285.562941
 20
329.631077
 30
0.0
  0
SPLINE
  5
26e
100
AcDbEntity
  8
Layer_1
 62
7
100
AcDbSpline
 70
8
 71
3
 72
8
 73
4
 74
0
 40
0
 40
0
 40
0
 40
0
 40
1
 40
1
 40
1
 40
1
 10
285.562941
 20
329.631077
 30
0.0
 10
285.426427
 20
329.530112
 30
0.0
 10
285.248883
 20
329.482605
 30
0.0
 10
285.030308
 20
329.488556
 30
0.0
  0
LINE
  5
26f
100
AcDbEntity
  8
Layer_1
 62
7
100
AcDbLine
 10
285.030308
 20
329.488556
 30
0.0
 11
285.030308
 21
329.488556
 31
0.0
  0
LINE
  5
270
100
AcDbEntity
  8
Layer_1
 62
7
100
AcDbLine
 10
285.715434
 20
328.541773
 30
0.0
 11
283.248005
 21
329.146017
 31
0.0
  0
LINE
  5
271
100
AcDbEntity
  8
Layer_1
 62
7
100
AcDbLine
 10
283.248005
 20
329.146017
 30
0.0
 11
282.811104
 21
327.361936
 31
0.0
  0
LINE
  5
272
100
AcDbEntity
  8
Layer_1
 62
7
100
AcDbLine
 10
282.811104
 20
327.361936
 30
0.0
 11
283.102304
 21
327.290625
 31
0.0
  0
LINE
  5
273
100
AcDbEntity
  8
Layer_1
 62
7
100
AcDbLine
 10
283.102304
 20
327.290625
 30
0.0
 11
283.459244
 21
328.748185
 31
0.0
  0
LINE
  5
274
100
AcDbEntity
  8
Layer_1
 62
7
100
AcDbLine
 10
283.459244
 20
328.748185
 30
0.0
 11
284.214944
 21
328.563123
 31
0.0
  0
LINE
  5
275
100
AcDbEntity
  8
Layer_1
 62
7
100
AcDbLine
 10
284.214944
 20
328.563123
 30
0.0
 11
283.880674
 21
327.198131
 31
0.0
  0
LINE
  5
276
100
AcDbEntity
  8
Layer_1
 62
7
100
AcDbLine
 10
283.880674
 20
327.198131
 30
0.0
 11
284.170174
 21
327.127236
 31
0.0
  0
LINE
  5
277
100
AcDbEntity
  8
Layer_1
 62
7
100
AcDbLine
 10
284.170174
 20
327.127236
 30
0.0
 11
284.504445
 21
328.492228
 31
0.0
  0
LINE
  5
278
100
AcDbEntity
  8
Layer_1
 62
7
100
AcDbLine
 10
284.504445
 20
328.492228
 30
0.0
 11
285.344301
 21
328.286557
 31
0.0
  0
LINE
  5
279
100
AcDbEntity
  8
Layer_1
 62
7
100
AcDbLine
 10
285.344301
 20
328.286557
 30
0.0
 11
284.973347
 21
326.771771
 31
0.0
  0
LINE
  5
27a
100
AcDbEntity
  8
Layer_1
 62
7
100
AcDbLine
 10
284.973347
 20
326.771771
 30
0.0
 11
285.264520
 21
326.700466
 31
0.0
  0
LINE
  5
27b
100
AcDbEntity
  8
Layer_1
 62
7
100
AcDbLine
 10
285.264520
 20
326.700466
 30
0.0
 11
285.715434
 21
328.541773
 31
0.0
  0
LINE
  5
27c
100
AcDbEntity
  8
Layer_1
 62
7
100
AcDbLine
 10
285.152815
 20
326.244321
 30
0.0
 11
282.685386
 21
326.848566
 31
0.0
  0
LINE
  5
27d
100
AcDbEntity
  8
Layer_1
 62
7
100
AcDbLine
 10
282.685386
 20
326.848566
 30
0.0
 11
282.417474
 21
325.754552
 31
0.0
  0
SPLINE
  5
27e
100
AcDbEntity
  8
Layer_1
 62
7
100
AcDbSpline
 70
8
 71
3
 72
8
 73
4
 74
0
 40
0
 40
0
 40
0
 40
0
 40
1
 40
1
 40
1
 40
1
 10
282.417474
 20
325.754552
 30
0.0
 10
282.363617
 20
325.534627
 30
0.0
 10
282.345117
 20
325.361943
 30
0.0
 10
282.361972
 20
325.236500
 30
0.0
  0
SPLINE
  5
27f
100
AcDbEntity
  8
Layer_1
 62
7
100
AcDbSpline
 70
8
 71
3
 72
8
 73
4
 74
0
 40
0
 40
0
 40
0
 40
0
 40
1
 40
1
 40
1
 40
1
 10
282.361972
 20
325.236500
 30
0.0
 10
282.377712
 20
325.111332
 30
0.0
 10
282.433306
 20
325.000786
 30
0.0
 10
282.528751
 20
324.904861
 30
0.0
  0
SPLINE
  5
280
100
AcDbEntity
  8
Layer_1
 62
7
100
AcDbSpline
 70
8
 71
3
 72
8
 73
4
 74
0
 40
0
 40
0
 40
0
 40
0
 40
1
 40
1
 40
1
 40
1
 10
282.528751
 20
324.904861
 30
0.0
 10
282.624197
 20
324.808936
 30
0.0
 10
282.739802
 20
324.744350
 30
0.0
 10
282.875565
 20
324.711104
 30
0.0
  0
SPLINE
  5
281
100
AcDbEntity
  8
Layer_1
 62
7
100
AcDbSpline
 70
8
 71
3
 72
8
 73
4
 74
0
 40
0
 40
0
 40
0
 40
0
 40
1
 40
1
 40
1
 40
1
 10
282.875565
 20
324.711104
 30
0.0
 10
283.050620
 20
324.668235
 30
0.0
 10
283.212047
 20
324.688766
 30
0.0
 10
283.359848
 20
324.772697
 30
0.0
  0
SPLINE
  5
282
100
AcDbEntity
  8
Layer_1
 62
7
100
AcDbSpline
 70
8
 71
3
 72
8
 73
4
 74
0
 40
0
 40
0
 40
0
 40
0
 40
1
 40
1
 40
1
 40
1
 10
283.359848
 20
324.772697
 30
0.0
 10
283.507666
 20
324.856622
 30
0.0
 10
283.626838
 20
325.012977
 30
0.0
 10
283.717364
 20
325.241763
 30
0.0
  0
SPLINE
  5
283
100
AcDbEntity
  8
Layer_1
 62
7
100
AcDbSpline
 70
8
 71
3
 72
8
 73
4
 74
0
 40
0
 40
0
 40
0
 40
0
 40
1
 40
1
 40
1
 40
1
 10
283.717364
 20
325.241763
 30
0.0
 10
283.737708
 20
325.145201
 30
0.0
 10
283.762588
 20
325.069532
 30
0.0
 10
283.792002
 20
325.014754
 30
0.0
  0
SPLINE
  5
284
100
AcDbEntity
  8
Layer_1
 62
7
100
AcDbSpline
 70
8
 71
3
 72
8
 73
4
 74
0
 40
0
 40
0
 40
0
 40
0
 40
1
 40
1
 40
1
 40
1
 10
283.792002
 20
325.014754
 30
0.0
 10
283.856164
 20
324.897946
 30
0.0
 10
283.943446
 20
324.780828
 30
0.0
 10
284.053849
 20
324.663402
 30
0.0
  0
LINE
  5
285
100
AcDbEntity
  8
Layer_1
 62
7
100
AcDbLine
 10
284.053849
 20
324.663402
 30
0.0
 11
284.620290
 21
324.069758
 31
0.0
  0
LINE
  5
286
100
AcDbEntity
  8
Layer_1
 62
7
100
AcDbLine
 10
284.620290
 20
324.069758
 30
0.0
 11
284.720860
 21
324.480434
 31
0.0
  0
LINE
  5
287
100
AcDbEntity
  8
Layer_1
 62
7
100
AcDbLine
 10
284.720860
 20
324.480434
 30
0.0
 11
284.287472
 21
324.932668
 31
0.0
  0
SPLINE
  5
288
100
AcDbEntity
  8
Layer_1
 62
7
100
AcDbSpline
 70
8
 71
3
 72
8
 73
4
 74
0
 40
0
 40
0
 40
0
 40
0
 40
1
 40
1
 40
1
 40
1
 10
284.287472
 20
324.932668
 30
0.0
 10
284.162729
 20
325.064310
 30
0.0
 10
284.068642
 20
325.170606
 30
0.0
 10
284.005210
 20
325.251555
 30
0.0
  0
SPLINE
  5
289
100
AcDbEntity
  8
Layer_1
 62
7
100
AcDbSpline
 70
8
 71
3
 72
8
 73
4
 74
0
 40
0
 40
0
 40
0
 40
0
 40
1
 40
1
 40
1
 40
1
 10
284.005210
 20
325.251555
 30
0.0
 10
283.941778
 20
325.332504
 30
0.0
 10
283.900390
 20
325.401513
 30
0.0
 10
283.881048
 20
325.458581
 30
0.0
  0
SPLINE
  5
28a
100
AcDbEntity
  8
Layer_1
 62
7
100
AcDbSpline
 70
8
 71
3
 72
8
 73
4
 74
0
 40
0
 40
0
 40
0
 40
0
 40
1
 40
1
 40
1
 40
1
 10
283.881048
 20
325.458581
 30
0.0
 10
283.861449
 20
325.514522
 30
0.0
 10
283.851664
 20
325.569249
 30
0.0
 10
283.851694
 20
325.622763
 30
0.0
  0
SPLINE
  5
28b
100
AcDbEntity
  8
Layer_1
 62
7
100
AcDbSpline
 70
8
 71
3
 72
8
 73
4
 74
0
 40
0
 40
0
 40
0
 40
0
 40
1
 40
1
 40
1
 40
1
 10
283.851694
 20
325.622763
 30
0.0
 10
283.852904
 20
325.661716
 30
0.0
 10
283.863813
 20
325.723270
 30
0.0
 10
283.884421
 20
325.807426
 30
0.0
  0
LINE
  5
28c
100
AcDbEntity
  8
Layer_1
 62
7
100
AcDbLine
 10
283.884421
 20
325.807426
 30
0.0
 11
283.977160
 21
326.186123
 31
0.0
  0
LINE
  5
28d
100
AcDbEntity
  8
Layer_1
 62
7
100
AcDbLine
 10
283.977160
 20
326.186123
 30
0.0
 11
285.072854
 21
325.917800
 31
0.0
  0
LINE
  5
28e
100
AcDbEntity
  8
Layer_1
 62
7
100
AcDbLine
 10
285.072854
 20
325.917800
 30
0.0
 11
285.152815
 21
326.244321
 31
0.0
  0
LINE
  5
28f
100
AcDbEntity
  8
Layer_1
 62
7
100
AcDbLine
 10
283.694403
 20
326.255367
 30
0.0
 11
283.522528
 21
325.553515
 31
0.0
  0
SPLINE
  5
290
100
AcDbEntity
  8
Layer_1
 62
7
100
AcDbSpline
 70
8
 71
3
 72
8
 73
4
 74
0
 40
0
 40
0
 40
0
 40
0
 40
1
 40
1
 40
1
 40
1
 10
283.522528
 20
325.553515
 30
0.0
 10
283.485981
 20
325.404279
 30
0.0
 10
283.442254
 20
325.291294
 30
0.0
 10
283.391347
 20
325.214561
 30
0.0
  0
SPLINE
  5
291
100
AcDbEntity
  8
Layer_1
 62
7
100
AcDbSpline
 70
8
 71
3
 72
8
 73
4
 74
0
 40
0
 40
0
 40
0
 40
0
 40
1
 40
1
 40
1
 40
1
 10
283.391347
 20
325.214561
 30
0.0
 10
283.339323
 20
325.138098
 30
0.0
 10
283.274291
 20
325.086230
 30
0.0
 10
283.196250
 20
325.058956
 30
0.0
  0
SPLINE
  5
292
100
AcDbEntity
  8
Layer_1
 62
7
100
AcDbSpline
 70
8
 71
3
 72
8
 73
4
 74
0
 40
0
 40
0
 40
0
 40
0
 40
1
 40
1
 40
1
 40
1
 10
283.196250
 20
325.058956
 30
0.0
 10
283.117095
 20
325.031955
 30
0.0
 10
283.037678
 20
325.028211
 30
0.0
 10
282.957999
 20
325.047723
 30
0.0
  0
SPLINE
  5
293
100
AcDbEntity
  8
Layer_1
 62
7
100
AcDbSpline
 70
8
 71
3
 72
8
 73
4
 74
0
 40
0
 40
0
 40
0
 40
0
 40
1
 40
1
 40
1
 40
1
 10
282.957999
 20
325.047723
 30
0.0
 10
282.841315
 20
325.076298
 30
0.0
 10
282.755823
 20
325.142430
 30
0.0
 10
282.701524
 20
325.246118
 30
0.0
  0
SPLINE
  5
294
100
AcDbEntity
  8
Layer_1
 62
7
100
AcDbSpline
 70
8
 71
3
 72
8
 73
4
 74
0
 40
0
 40
0
 40
0
 40
0
 40
1
 40
1
 40
1
 40
1
 10
282.701524
 20
325.246118
 30
0.0
 10
282.646950
 20
325.348685
 30
0.0
 10
282.642057
 20
325.491417
 30
0.0
 10
282.686847
 20
325.674313
 30
0.0
  0
LINE
  5
295
100
AcDbEntity
  8
Layer_1
 62
7
100
AcDbLine
 10
282.686847
 20
325.674313
 30
0.0
 11
282.878094
 21
326.455271
 31
0.0
  0
LINE
  5
296
100
AcDbEntity
  8
Layer_1
 62
7
100
AcDbLine
 10
282.878094
 20
326.455271
 30
0.0
 11
283.694403
 21
326.255367
 31
0.0
  0
LINE
  5
297
100
AcDbEntity
  8
Layer_1
 62
3
100
AcDbLine
 10
305.248430
 20
351.022078
 30
0.0
 11
296.417640
 21
314.756333
 31
0.0
  0
LINE
  5
298
100
AcDbEntity
  8
Layer_1
 62
3
100
AcDbLine
 10
296.417640
 20
314.756333
 30
0.0
 11
263.227798
 21
322.842950
 31
0.0
  0
LINE
  5
299
100
AcDbEntity
  8
Layer_1
 62
3
100
AcDbLine
 10
263.227798
 20
322.842950
 30
0.0
 11
272.108175
 21
359.108693
 31
0.0
  0
LINE
  5
29a
100
AcDbEntity
  8
Layer_1
 62
3
100
AcDbLine
 10
272.108175
 20
359.108693
 30
0.0
 11
305.248430
 21
351.022078
 31
0.0
  0
LINE
  5
29b
100
AcDbEntity
  8
Layer_1
 62
3
100
AcDbLine
 10
493.448970
 20
419.775457
 30
0.0
 11
493.448970
 21
191.638787
 31
0.0
  0
LINE
  5
29c
100
AcDbEntity
  8
Layer_1
 62
7
100
AcDbLine
 10
383.181954
 20
31.858533
 30
0.0
 11
5.244310
 21
31.858533
 31
0.0
  0
LINE
  5
29d
100
AcDbEntity
  8
Layer_1
 62
7
100
AcDbLine
 10
266.943056
 20
188.778560
 30
0.0
 11
272.995622
 21
213.435297
 31
0.0
  0
LINE
  5
29e
100
AcDbEntity
  8
Layer_1
 62
7
100
AcDbLine
 10
384.223806
 20
61.625209
 30
0.0
 11
383.181954
 21
31.858533
 31
0.0
  0
LINE
  5
29f
100
AcDbEntity
  8
Layer_1
 62
7
100
AcDbLine
 10
389.631409
 20
192.052894
 30
0.0
 11
388.093467
 21
153.901929
 31
0.0
  0
LINE
  5
2a0
100
AcDbEntity
  8
Layer_1
 62
7
100
AcDbLine
 10
345.179828
 20
214.576353
 30
0.0
 11
64.231945
 21
277.780947
 31
0.0
  0
LINE
  5
2a1
100
AcDbEntity
  8
Layer_1
 62
7
100
AcDbLine
 10
5.244310
 20
31.858533
 30
0.0
 11
15.116923
 21
277.780947
 31
0.0
  0
LINE
  5
2a2
100
AcDbEntity
  8
Layer_1
 62
7
100
AcDbLine
 10
384.223806
 20
61.625209
 30
0.0
 11
385.960178
 21
62.022098
 31
0.0
  0
LINE
  5
2a3
100
AcDbEntity
  8
Layer_1
 62
7
100
AcDbLine
 10
385.960178
 20
62.022098
 30
0.0
 11
387.646964
 21
62.518208
 31
0.0
  0
LINE
  5
2a4
100
AcDbEntity
  8
Layer_1
 62
7
100
AcDbLine
 10
387.646964
 20
62.518208
 30
0.0
 11
389.333750
 21
63.113542
 31
0.0
  0
LINE
  5
2a5
100
AcDbEntity
  8
Layer_1
 62
7
100
AcDbLine
 10
389.333750
 20
63.113542
 30
0.0
 11
390.970921
 21
63.758487
 31
0.0
  0
LINE
  5
2a6
100
AcDbEntity
  8
Layer_1
 62
7
100
AcDbLine
 10
390.970921
 20
63.758487
 30
0.0
 11
392.558477
 21
64.552265
 31
0.0
  0
LINE
  5
2a7
100
AcDbEntity
  8
Layer_1
 62
7
100
AcDbLine
 10
392.558477
 20
64.552265
 30
0.0
 11
394.096419
 21
65.395655
 31
0.0
  0
LINE
  5
2a8
100
AcDbEntity
  8
Layer_1
 62
7
100
AcDbLine
 10
394.096419
 20
65.395655
 30
0.0
 11
395.584746
 21
66.338266
 31
0.0
  0
LINE
  5
2a9
100
AcDbEntity
  8
Layer_1
 62
7
100
AcDbLine
 10
395.584746
 20
66.338266
 30
0.0
 11
397.023459
 21
67.380101
 31
0.0
  0
LINE
  5
2aa
100
AcDbEntity
  8
Layer_1
 62
7
100
AcDbLine
 10
397.023459
 20
67.380101
 30
0.0
 11
398.412585
 21
68.471545
 31
0.0
  0
LINE
  5
2ab
100
AcDbEntity
  8
Layer_1
 62
7
100
AcDbLine
 10
398.412585
 20
68.471545
 30
0.0
 11
399.752068
 21
69.612600
 31
0.0
  0
LINE
  5
2ac
100
AcDbEntity
  8
Layer_1
 62
7
100
AcDbLine
 10
399.752068
 20
69.612600
 30
0.0
 11
401.041964
 21
70.852879
 31
0.0
  0
LINE
  5
2ad
100
AcDbEntity
  8
Layer_1
 62
7
100
AcDbLine
 10
401.041964
 20
70.852879
 30
0.0
 11
402.282247
 21
72.093159
 31
0.0
  0
LINE
  5
2ae
100
AcDbEntity
  8
Layer_1
 62
7
100
AcDbLine
 10
402.282247
 20
72.093159
 30
0.0
 11
403.423299
 21
73.432659
 31
0.0
  0
LINE
  5
2af
100
AcDbEntity
  8
Layer_1
 62
7
100
AcDbLine
 10
403.423299
 20
73.432659
 30
0.0
 11
404.514737
 21
74.821771
 31
0.0
  0
LINE
  5
2b0
100
AcDbEntity
  8
Layer_1
 62
7
100
AcDbLine
 10
404.514737
 20
74.821771
 30
0.0
 11
405.506974
 21
76.260494
 31
0.0
  0
LINE
  5
2b1
100
AcDbEntity
  8
Layer_1
 62
7
100
AcDbLine
 10
405.506974
 20
76.260494
 30
0.0
 11
406.449596
 21
77.748827
 31
0.0
  0
LINE
  5
2b2
100
AcDbEntity
  8
Layer_1
 62
7
100
AcDbLine
 10
406.449596
 20
77.748827
 30
0.0
 11
407.342576
 21
79.336384
 31
0.0
  0
LINE
  5
2b3
100
AcDbEntity
  8
Layer_1
 62
7
100
AcDbLine
 10
407.342576
 20
79.336384
 30
0.0
 11
408.136354
 21
80.923940
 31
0.0
  0
LINE
  5
2b4
100
AcDbEntity
  8
Layer_1
 62
7
100
AcDbLine
 10
408.136354
 20
80.923940
 30
0.0
 11
408.830931
 21
82.561108
 31
0.0
  0
LINE
  5
2b5
100
AcDbEntity
  8
Layer_1
 62
7
100
AcDbLine
 10
408.830931
 20
82.561108
 30
0.0
 11
409.426251
 21
84.198277
 31
0.0
  0
LINE
  5
2b6
100
AcDbEntity
  8
Layer_1
 62
7
100
AcDbLine
 10
409.426251
 20
84.198277
 30
0.0
 11
409.872754
 21
85.885054
 31
0.0
  0
LINE
  5
2b7
100
AcDbEntity
  8
Layer_1
 62
7
100
AcDbLine
 10
409.872754
 20
85.885054
 30
0.0
 11
410.220029
 21
87.621443
 31
0.0
  0
LINE
  5
2b8
100
AcDbEntity
  8
Layer_1
 62
7
100
AcDbLine
 10
410.220029
 20
87.621443
 30
0.0
 11
410.666533
 21
91.143836
 31
0.0
  0
LINE
  5
2b9
100
AcDbEntity
  8
Layer_1
 62
7
100
AcDbLine
 10
410.666533
 20
91.143836
 30
0.0
 11
411.113037
 21
94.666227
 31
0.0
  0
LINE
  5
2ba
100
AcDbEntity
  8
Layer_1
 62
7
100
AcDbLine
 10
411.113037
 20
94.666227
 30
0.0
 11
411.410696
 21
98.139005
 31
0.0
  0
LINE
  5
2bb
100
AcDbEntity
  8
Layer_1
 62
7
100
AcDbLine
 10
411.410696
 20
98.139005
 30
0.0
 11
411.559540
 21
101.661398
 31
0.0
  0
LINE
  5
2bc
100
AcDbEntity
  8
Layer_1
 62
7
100
AcDbLine
 10
411.559540
 20
101.661398
 30
0.0
 11
411.658741
 21
105.233400
 31
0.0
  0
LINE
  5
2bd
100
AcDbEntity
  8
Layer_1
 62
7
100
AcDbLine
 10
411.658741
 20
105.233400
 30
0.0
 11
411.559540
 21
108.755790
 31
0.0
  0
LINE
  5
2be
100
AcDbEntity
  8
Layer_1
 62
7
100
AcDbLine
 10
411.559540
 20
108.755790
 30
0.0
 11
411.361082
 21
112.278181
 31
0.0
  0
LINE
  5
2bf
100
AcDbEntity
  8
Layer_1
 62
7
100
AcDbLine
 10
411.361082
 20
112.278181
 30
0.0
 11
410.964192
 21
115.800571
 31
0.0
  0
LINE
  5
2c0
100
AcDbEntity
  8
Layer_1
 62
7
100
AcDbLine
 10
410.964192
 20
115.800571
 30
0.0
 11
410.666533
 21
117.536963
 31
0.0
  0
LINE
  5
2c1
100
AcDbEntity
  8
Layer_1
 62
7
100
AcDbLine
 10
410.666533
 20
117.536963
 30
0.0
 11
410.319258
 21
119.273352
 31
0.0
  0
LINE
  5
2c2
100
AcDbEntity
  8
Layer_1
 62
7
100
AcDbLine
 10
410.319258
 20
119.273352
 30
0.0
 11
409.971984
 21
120.960130
 31
0.0
  0
LINE
  5
2c3
100
AcDbEntity
  8
Layer_1
 62
7
100
AcDbLine
 10
409.971984
 20
120.960130
 30
0.0
 11
409.525480
 21
122.696522
 31
0.0
  0
LINE
  5
2c4
100
AcDbEntity
  8
Layer_1
 62
7
100
AcDbLine
 10
409.525480
 20
122.696522
 30
0.0
 11
409.029362
 21
124.383299
 31
0.0
  0
LINE
  5
2c5
100
AcDbEntity
  8
Layer_1
 62
7
100
AcDbLine
 10
409.029362
 20
124.383299
 30
0.0
 11
408.483628
 21
126.070079
 31
0.0
  0
LINE
  5
2c6
100
AcDbEntity
  8
Layer_1
 62
7
100
AcDbLine
 10
408.483628
 20
126.070079
 30
0.0
 11
407.292961
 21
129.394025
 31
0.0
  0
LINE
  5
2c7
100
AcDbEntity
  8
Layer_1
 62
7
100
AcDbLine
 10
407.292961
 20
129.394025
 30
0.0
 11
405.903863
 21
132.668359
 31
0.0
  0
LINE
  5
2c8
100
AcDbEntity
  8
Layer_1
 62
7
100
AcDbLine
 10
405.903863
 20
132.668359
 30
0.0
 11
404.365921
 21
135.843472
 31
0.0
  0
LINE
  5
2c9
100
AcDbEntity
  8
Layer_1
 62
7
100
AcDbLine
 10
404.365921
 20
135.843472
 30
0.0
 11
402.679136
 21
139.018587
 31
0.0
  0
LINE
  5
2ca
100
AcDbEntity
  8
Layer_1
 62
7
100
AcDbLine
 10
402.679136
 20
139.018587
 30
0.0
 11
401.786128
 21
140.556532
 31
0.0
  0
LINE
  5
2cb
100
AcDbEntity
  8
Layer_1
 62
7
100
AcDbLine
 10
401.786128
 20
140.556532
 30
0.0
 11
400.843534
 21
142.044865
 31
0.0
  0
LINE
  5
2cc
100
AcDbEntity
  8
Layer_1
 62
7
100
AcDbLine
 10
400.843534
 20
142.044865
 30
0.0
 11
399.801682
 21
143.533200
 31
0.0
  0
LINE
  5
2cd
100
AcDbEntity
  8
Layer_1
 62
7
100
AcDbLine
 10
399.801682
 20
143.533200
 30
0.0
 11
398.710244
 21
145.021536
 31
0.0
  0
LINE
  5
2ce
100
AcDbEntity
  8
Layer_1
 62
7
100
AcDbLine
 10
398.710244
 20
145.021536
 30
0.0
 11
397.519577
 21
146.509869
 31
0.0
  0
LINE
  5
2cf
100
AcDbEntity
  8
Layer_1
 62
7
100
AcDbLine
 10
397.519577
 20
146.509869
 30
0.0
 11
396.279295
 21
147.948593
 31
0.0
  0
LINE
  5
2d0
100
AcDbEntity
  8
Layer_1
 62
7
100
AcDbLine
 10
396.279295
 20
147.948593
 30
0.0
 11
394.989398
 21
149.288093
 31
0.0
  0
LINE
  5
2d1
100
AcDbEntity
  8
Layer_1
 62
7
100
AcDbLine
 10
394.989398
 20
149.288093
 30
0.0
 11
393.649915
 21
150.528372
 31
0.0
  0
LINE
  5
2d2
100
AcDbEntity
  8
Layer_1
 62
7
100
AcDbLine
 10
393.649915
 20
150.528372
 30
0.0
 11
392.310404
 21
151.570204
 31
0.0
  0
LINE
  5
2d3
100
AcDbEntity
  8
Layer_1
 62
7
100
AcDbLine
 10
392.310404
 20
151.570204
 30
0.0
 11
391.665470
 21
152.016705
 31
0.0
  0
LINE
  5
2d4
100
AcDbEntity
  8
Layer_1
 62
7
100
AcDbLine
 10
391.665470
 20
152.016705
 30
0.0
 11
391.020507
 21
152.413594
 31
0.0
  0
LINE
  5
2d5
100
AcDbEntity
  8
Layer_1
 62
7
100
AcDbLine
 10
391.020507
 20
152.413594
 30
0.0
 11
390.425188
 21
152.711262
 31
0.0
  0
LINE
  5
2d6
100
AcDbEntity
  8
Layer_1
 62
7
100
AcDbLine
 10
390.425188
 20
152.711262
 30
0.0
 11
389.978684
 21
152.959318
 31
0.0
  0
LINE
  5
2d7
100
AcDbEntity
  8
Layer_1
 62
7
100
AcDbLine
 10
389.978684
 20
152.959318
 30
0.0
 11
389.730639
 21
153.058539
 31
0.0
  0
LINE
  5
2d8
100
AcDbEntity
  8
Layer_1
 62
7
100
AcDbLine
 10
389.730639
 20
153.058539
 30
0.0
 11
389.383364
 21
153.256984
 31
0.0
  0
LINE
  5
2d9
100
AcDbEntity
  8
Layer_1
 62
7
100
AcDbLine
 10
389.383364
 20
153.256984
 30
0.0
 11
389.135291
 21
153.356205
 31
0.0
  0
LINE
  5
2da
100
AcDbEntity
  8
Layer_1
 62
7
100
AcDbLine
 10
389.135291
 20
153.356205
 30
0.0
 11
388.887246
 21
153.505040
 31
0.0
  0
LINE
  5
2db
100
AcDbEntity
  8
Layer_1
 62
7
100
AcDbLine
 10
388.887246
 20
153.505040
 30
0.0
 11
388.539971
 21
153.703485
 31
0.0
  0
LINE
  5
2dc
100
AcDbEntity
  8
Layer_1
 62
7
100
AcDbLine
 10
388.539971
 20
153.703485
 30
0.0
 11
388.093467
 21
153.901929
 31
0.0
  0
LINE
  5
2dd
100
AcDbEntity
  8
Layer_1
 62
7
100
AcDbLine
 10
15.116923
 20
277.780947
 30
0.0
 11
64.231945
 21
277.780947
 31
0.0
  0
LINE
  5
2de
100
AcDbEntity
  8
Layer_1
 62
7
100
AcDbLine
 10
389.631409
 20
192.052894
 30
0.0
 11
387.299689
 21
194.186175
 31
0.0
  0
LINE
  5
2df
100
AcDbEntity
  8
Layer_1
 62
7
100
AcDbLine
 10
387.299689
 20
194.186175
 30
0.0
 11
384.918355
 21
196.269842
 31
0.0
  0
LINE
  5
2e0
100
AcDbEntity
  8
Layer_1
 62
7
100
AcDbLine
 10
384.918355
 20
196.269842
 30
0.0
 11
382.437790
 21
198.204675
 31
0.0
  0
LINE
  5
2e1
100
AcDbEntity
  8
Layer_1
 62
7
100
AcDbLine
 10
382.437790
 20
198.204675
 30
0.0
 11
379.907612
 21
200.040288
 31
0.0
  0
LINE
  5
2e2
100
AcDbEntity
  8
Layer_1
 62
7
100
AcDbLine
 10
379.907612
 20
200.040288
 30
0.0
 11
377.278232
 21
201.776677
 31
0.0
  0
LINE
  5
2e3
100
AcDbEntity
  8
Layer_1
 62
7
100
AcDbLine
 10
377.278232
 20
201.776677
 30
0.0
 11
374.549623
 21
203.413846
 31
0.0
  0
LINE
  5
2e4
100
AcDbEntity
  8
Layer_1
 62
7
100
AcDbLine
 10
374.549623
 20
203.413846
 30
0.0
 11
371.821014
 21
204.951793
 31
0.0
  0
LINE
  5
2e5
100
AcDbEntity
  8
Layer_1
 62
7
100
AcDbLine
 10
371.821014
 20
204.951793
 30
0.0
 11
368.993175
 21
206.340902
 31
0.0
  0
LINE
  5
2e6
100
AcDbEntity
  8
Layer_1
 62
7
100
AcDbLine
 10
368.993175
 20
206.340902
 30
0.0
 11
366.115722
 21
207.630793
 31
0.0
  0
LINE
  5
2e7
100
AcDbEntity
  8
Layer_1
 62
7
100
AcDbLine
 10
366.115722
 20
207.630793
 30
0.0
 11
363.188682
 21
208.821461
 31
0.0
  0
LINE
  5
2e8
100
AcDbEntity
  8
Layer_1
 62
7
100
AcDbLine
 10
363.188682
 20
208.821461
 30
0.0
 11
360.212000
 21
209.912904
 31
0.0
  0
LINE
  5
2e9
100
AcDbEntity
  8
Layer_1
 62
7
100
AcDbLine
 10
360.212000
 20
209.912904
 30
0.0
 11
357.235345
 21
210.954739
 31
0.0
  0
LINE
  5
2ea
100
AcDbEntity
  8
Layer_1
 62
7
100
AcDbLine
 10
357.235345
 20
210.954739
 30
0.0
 11
354.258663
 21
211.946962
 31
0.0
  0
LINE
  5
2eb
100
AcDbEntity
  8
Layer_1
 62
7
100
AcDbLine
 10
354.258663
 20
211.946962
 30
0.0
 11
351.232394
 21
212.889576
 31
0.0
  0
LINE
  5
2ec
100
AcDbEntity
  8
Layer_1
 62
7
100
AcDbLine
 10
351.232394
 20
212.889576
 30
0.0
 11
345.179828
 21
214.576353
 31
0.0
  0
LINE
  5
2ed
100
AcDbEntity
  8
Layer_1
 62
1
100
AcDbLine
 10
155.714873
 20
257.192322
 30
0.0
 11
153.432768
 21
205.497515
 31
0.0
  0
LINE
  5
2ee
100
AcDbEntity
  8
Layer_1
 62
1
100
AcDbLine
 10
153.432768
 20
205.497515
 30
0.0
 11
388.093467
 21
154.794937
 31
0.0
  0
LINE
  5
2ef
100
AcDbEntity
  8
Layer_1
 62
3
100
AcDbLine
 10
153.432768
 20
205.497515
 30
0.0
 11
12.735589
 21
218.446021
 31
0.0
  0
LINE
  5
2f0
100
AcDbEntity
  8
Layer_1
 62
1
100
AcDbLine
 10
22.211313
 20
87.422999
 30
0.0
 11
34.911765
 21
86.877269
 31
0.0
  0
LINE
  5
2f1
100
AcDbEntity
  8
Layer_1
 62
1
100
AcDbLine
 10
34.911765
 20
86.877269
 30
0.0
 11
34.713306
 21
82.313046
 31
0.0
  0
LINE
  5
2f2
100
AcDbEntity
  8
Layer_1
 62
1
100
AcDbLine
 10
34.713306
 20
82.313046
 30
0.0
 11
22.012854
 21
82.858777
 31
0.0
  0
LINE
  5
2f3
100
AcDbEntity
  8
Layer_1
 62
1
100
AcDbLine
 10
22.012854
 20
82.858777
 30
0.0
 11
22.211313
 21
87.422999
 31
0.0
  0
LINE
  5
2f4
100
AcDbEntity
  8
Layer_1
 62
1
100
AcDbLine
 10
324.392749
 20
74.276038
 30
0.0
 11
337.093201
 21
73.730335
 31
0.0
  0
LINE
  5
2f5
100
AcDbEntity
  8
Layer_1
 62
1
100
AcDbLine
 10
337.093201
 20
73.730335
 30
0.0
 11
336.894771
 21
69.166113
 31
0.0
  0
LINE
  5
2f6
100
AcDbEntity
  8
Layer_1
 62
1
100
AcDbLine
 10
336.894771
 20
69.166113
 30
0.0
 11
324.194319
 21
69.711815
 31
0.0
  0
LINE
  5
2f7
100
AcDbEntity
  8
Layer_1
 62
1
100
AcDbLine
 10
324.194319
 20
69.711815
 30
0.0
 11
324.392749
 21
74.276038
 31
0.0
  0
LINE
  5
2f8
100
AcDbEntity
  8
Layer_1
 62
7
100
AcDbLine
 10
503.132328
 20
124.132635
 30
0.0
 11
418.247671
 21
124.132635
 31
0.0
  0
LINE
  5
2f9
100
AcDbEntity
  8
Layer_1
 62
7
100
AcDbLine
 10
643.383032
 20
165.409103
 30
0.0
 11
643.383032
 21
124.132635
 31
0.0
  0
LINE
  5
2fa
100
AcDbEntity
  8
Layer_1
 62
7
100
AcDbLine
 10
643.383032
 20
124.132635
 30
0.0
 11
668.635091
 21
124.132635
 31
0.0
  0
LINE
  5
2fb
100
AcDbEntity
  8
Layer_1
 62
7
100
AcDbLine
 10
418.247671
 20
124.132635
 30
0.0
 11
418.247671
 21
47.830703
 31
0.0
  0
LINE
  5
2fc
100
AcDbEntity
  8
Layer_1
 62
7
100
AcDbLine
 10
418.247671
 20
47.830703
 30
0.0
 11
492.217891
 21
47.830703
 31
0.0
  0
LINE
  5
2fd
100
AcDbEntity
  8
Layer_1
 62
7
100
AcDbLine
 10
492.217891
 20
47.830703
 30
0.0
 11
492.217891
 21
38.404585
 31
0.0
  0
LINE
  5
2fe
100
AcDbEntity
  8
Layer_1
 62
7
100
AcDbLine
 10
492.217891
 20
38.404585
 30
0.0
 11
654.198267
 21
38.404585
 31
0.0
  0
LINE
  5
2ff
100
AcDbEntity
  8
Layer_1
 62
7
100
AcDbLine
 10
654.198267
 20
38.404585
 30
0.0
 11
654.198267
 21
47.731479
 31
0.0
  0
LINE
  5
300
100
AcDbEntity
  8
Layer_1
 62
7
100
AcDbLine
 10
654.198267
 20
47.731479
 30
0.0
 11
668.635091
 21
47.731479
 31
0.0
  0
LINE
  5
301
100
AcDbEntity
  8
Layer_1
 62
7
100
AcDbLine
 10
503.132328
 20
165.409103
 30
0.0
 11
503.132328
 21
124.132635
 31
0.0
  0
LINE
  5
302
100
AcDbEntity
  8
Layer_1
 62
7
100
AcDbLine
 10
668.635091
 20
124.132635
 30
0.0
 11
668.635091
 21
47.731479
 31
0.0
  0
LINE
  5
303
100
AcDbEntity
  8
Layer_1
 62
7
100
AcDbLine
 10
643.383032
 20
165.409103
 30
0.0
 11
503.132328
 21
165.409103
 31
0.0
  0
LINE
  5
304
100
AcDbEntity
  8
Layer_1
 62
3
100
AcDbLine
 10
560.383591
 20
108.902015
 30
0.0
 11
562.913770
 21
108.902015
 31
0.0
  0
LINE
  5
305
100
AcDbEntity
  8
Layer_1
 62
3
100
AcDbLine
 10
583.254344
 20
108.902015
 30
0.0
 11
585.784495
 21
108.902015
 31
0.0
  0
LINE
  5
306
100
AcDbEntity
  8
Layer_1
 62
3
100
AcDbLine
 10
560.383591
 20
93.026451
 30
0.0
 11
585.784495
 21
93.026451
 31
0.0
  0
LINE
  5
307
100
AcDbEntity
  8
Layer_1
 62
3
100
AcDbLine
 10
560.383591
 20
108.902015
 30
0.0
 11
560.383591
 21
90.446671
 31
0.0
  0
LINE
  5
308
100
AcDbEntity
  8
Layer_1
 62
3
100
AcDbLine
 10
560.383591
 20
90.446671
 30
0.0
 11
585.784495
 21
90.446671
 31
0.0
  0
LINE
  5
309
100
AcDbEntity
  8
Layer_1
 62
3
100
AcDbLine
 10
562.913770
 20
93.026451
 30
0.0
 11
562.913770
 21
108.902015
 31
0.0
  0
LINE
  5
30a
100
AcDbEntity
  8
Layer_1
 62
3
100
AcDbLine
 10
583.254344
 20
108.902015
 30
0.0
 11
583.254344
 21
93.026451
 31
0.0
  0
LINE
  5
30b
100
AcDbEntity
  8
Layer_1
 62
3
100
AcDbLine
 10
585.784495
 20
108.902015
 30
0.0
 11
585.784495
 21
90.446671
 31
0.0
  0
LINE
  5
30c
100
AcDbEntity
  8
Layer_1
 62
3
100
AcDbLine
 10
574.125894
 20
107.314459
 30
0.0
 11
571.893375
 21
107.314459
 31
0.0
  0
LINE
  5
30d
100
AcDbEntity
  8
Layer_1
 62
3
100
AcDbLine
 10
571.893375
 20
107.314459
 30
0.0
 11
567.279550
 21
94.614007
 31
0.0
  0
LINE
  5
30e
100
AcDbEntity
  8
Layer_1
 62
3
100
AcDbLine
 10
567.279550
 20
94.614007
 30
0.0
 11
568.966336
 21
94.614007
 31
0.0
  0
LINE
  5
30f
100
AcDbEntity
  8
Layer_1
 62
3
100
AcDbLine
 10
568.966336
 20
94.614007
 30
0.0
 11
570.206590
 21
98.136397
 31
0.0
  0
LINE
  5
310
100
AcDbEntity
  8
Layer_1
 62
3
100
AcDbLine
 10
570.206590
 20
98.136397
 30
0.0
 11
575.713451
 21
98.136397
 31
0.0
  0
LINE
  5
311
100
AcDbEntity
  8
Layer_1
 62
3
100
AcDbLine
 10
570.752323
 20
99.575121
 30
0.0
 11
572.984813
 21
105.826123
 31
0.0
  0
LINE
  5
312
100
AcDbEntity
  8
Layer_1
 62
3
100
AcDbLine
 10
572.984813
 20
105.826123
 30
0.0
 11
575.217332
 21
99.575121
 31
0.0
  0
LINE
  5
313
100
AcDbEntity
  8
Layer_1
 62
3
100
AcDbLine
 10
575.217332
 20
99.575121
 30
0.0
 11
570.752323
 21
99.575121
 31
0.0
  0
LINE
  5
314
100
AcDbEntity
  8
Layer_1
 62
3
100
AcDbLine
 10
575.713451
 20
98.136397
 30
0.0
 11
576.953705
 21
94.614007
 31
0.0
  0
LINE
  5
315
100
AcDbEntity
  8
Layer_1
 62
3
100
AcDbLine
 10
576.953705
 20
94.614007
 30
0.0
 11
578.739720
 21
94.614007
 31
0.0
  0
LINE
  5
316
100
AcDbEntity
  8
Layer_1
 62
3
100
AcDbLine
 10
578.739720
 20
94.614007
 30
0.0
 11
574.125894
 21
107.314459
 31
0.0
  0
LINE
  5
317
100
AcDbEntity
  8
Layer_1
 62
1
100
AcDbLine
 10
477.681838
 20
124.132635
 30
0.0
 11
477.681838
 21
47.830697
 31
0.0
  0
LINE
  5
318
100
AcDbEntity
  8
Layer_1
 62
1
100
AcDbLine
 10
481.998004
 20
124.132635
 30
0.0
 11
481.998004
 21
47.830697
 31
0.0
  0
LINE
  5
319
100
AcDbEntity
  8
Layer_1
 62
1
100
AcDbLine
 10
664.318926
 20
124.132635
 30
0.0
 11
664.318926
 21
47.731476
 31
0.0
  0
LINE
  5
31a
100
AcDbEntity
  8
Layer_1
 62
1
100
AcDbLine
 10
607.266122
 20
165.409103
 30
0.0
 11
607.266122
 21
38.404599
 31
0.0
  0
LINE
  5
31b
100
AcDbEntity
  8
Layer_1
 62
1
100
AcDbLine
 10
602.949956
 20
165.409103
 30
0.0
 11
602.949956
 21
38.404599
 31
0.0
  0
LINE
  5
31c
100
AcDbEntity
  8
Layer_1
 62
1
100
AcDbLine
 10
543.515817
 20
165.409103
 30
0.0
 11
543.515817
 21
38.404599
 31
0.0
  0
LINE
  5
31d
100
AcDbEntity
  8
Layer_1
 62
1
100
AcDbLine
 10
539.199623
 20
165.409103
 30
0.0
 11
539.199623
 21
38.404599
 31
0.0
  0
ENDSEC
  0
SECTION
  2
OBJECTS
  0
DICTIONARY
  5
C
330
0
100
AcDbDictionary
  3
ACAD_GROUP
350
D
  3
ACAD_MLINESTYLE
350
17
  0
DICTIONARY
  5
D
330
C
100
AcDbDictionary
  0
DICTIONARY
  5
1A
330
C
100
AcDbDictionary
  0
DICTIONARY
  5
17
330
C
100
AcDbDictionary
  3
STANDARD
350
18
  0
DICTIONARY
  5
19
330
C
100
AcDbDictionary
  0
ENDSEC
  0
EOF
