<?xml version="1.0" encoding="UTF-8" standalone="no"?>
<!-- Created with Inkscape (http://www.inkscape.org/) -->

<svg
   xmlns:dc="http://purl.org/dc/elements/1.1/"
   xmlns:cc="http://creativecommons.org/ns#"
   xmlns:rdf="http://www.w3.org/1999/02/22-rdf-syntax-ns#"
   xmlns:svg="http://www.w3.org/2000/svg"
   xmlns="http://www.w3.org/2000/svg"
   xmlns:sodipodi="http://sodipodi.sourceforge.net/DTD/sodipodi-0.dtd"
   xmlns:inkscape="http://www.inkscape.org/namespaces/inkscape"
   width="500mm"
   height="380mm"
   viewBox="0 0 500 380"
   version="1.1"
   id="svg191099"
   inkscape:version="0.92.4 (5da689c313, 2019-01-14)"
   sodipodi:docname="3-ShapelyParts.svg">
  <defs
     id="defs191093" />
  <sodipodi:namedview
     id="base"
     pagecolor="#ffffff"
     bordercolor="#666666"
     borderopacity="1.0"
     inkscape:pageopacity="0.0"
     inkscape:pageshadow="2"
     inkscape:zoom="0.7"
     inkscape:cx="1068.2869"
     inkscape:cy="704.86477"
     inkscape:document-units="mm"
     inkscape:current-layer="layer1"
     showgrid="false"
     inkscape:window-width="1914"
     inkscape:window-height="2099"
     inkscape:window-x="4438"
     inkscape:window-y="0"
     inkscape:window-maximized="0" />
  <metadata
     id="metadata191096">
    <rdf:RDF>
      <cc:Work
         rdf:about="">
        <dc:format>image/svg+xml</dc:format>
        <dc:type
           rdf:resource="http://purl.org/dc/dcmitype/StillImage" />
        <dc:title />
      </cc:Work>
    </rdf:RDF>
  </metadata>
  <g
     inkscape:label="Layer 1"
     inkscape:groupmode="layer"
     id="layer1"
     transform="translate(0,83)">
    <g
       id="g190791"
       transform="matrix(0.28222223,0,0,0.28222223,-644.09769,-203.83278)">
      <path
         inkscape:connector-curvature="0"
         id="path145856"
         style="fill:none;stroke:#000000;stroke-width:1.05472505;stroke-linecap:round;stroke-linejoin:round;stroke-miterlimit:10;stroke-dasharray:none;stroke-opacity:1"
         d="m 2952.9635,597.17465 -169.6349,-5.80099 4.5705,-129.20381 38.1459,1.23051 38.1459,1.05473 38.3216,0.70315 38.1459,0.35157 38.3217,0.17579 38.1459,-0.17579 38.1459,-0.52736 38.3216,-0.70315 76.2918,-2.10945 76.4676,-2.63681 76.4675,-2.8126 38.1459,-1.58209 19.1609,-0.35157 h 18.985" />
      <path
         inkscape:connector-curvature="0"
         id="path145858"
         style="fill:none;stroke:#000000;stroke-width:1.05472505;stroke-linecap:round;stroke-linejoin:round;stroke-miterlimit:10;stroke-dasharray:none;stroke-opacity:1"
         d="m 3120.1375,589.52789 c 0,-1.21351 -0.9838,-2.19734 -2.1974,-2.19734 -1.2136,0 -2.1973,0.98383 -2.1973,2.19734 0,1.21352 0.9837,2.19735 2.1973,2.19735 1.2136,0 2.1974,-0.98383 2.1974,-2.19735" />
      <path
         inkscape:connector-curvature="0"
         id="path145860"
         style="fill:none;stroke:#000000;stroke-width:1.05472505;stroke-linecap:round;stroke-linejoin:round;stroke-miterlimit:10;stroke-dasharray:none;stroke-opacity:1"
         d="m 2952.9635,597.17465 10.3715,26.54391 9.8441,26.89549 4.7463,13.35985 4.7462,13.53564 4.3947,13.53563 4.2189,13.71143 4.0431,13.71142 3.6916,13.71143 3.6915,13.88721 3.34,13.88722 3.3399,13.88721 2.8126,13.88721 2.8126,14.063 2.4611,14.063 2.2852,14.063 2.1094,14.063 1.7579,14.23879 1.5821,14.23879 1.4063,14.23878 1.2305,14.23879 0.879,14.23879 0.7031,14.23879 0.5274,14.23878 0.3515,14.41458 0.1758,14.23879 v 14.23878 l -0.5273,28.65334 -1.2305,28.6534 -1.9337,28.4776 -2.461,28.6533 -2.9884,28.3018 -3.34,28.3018 -4.0431,28.3018 -4.3947,28.3018 -4.7462,28.126 -5.2737,27.9502 -5.6252,27.9502 -5.9767,27.9502 -6.1526,27.9502 -6.5041,27.7745 -13.5357,55.373 -13.8872,55.3731 56.4278,-0.7032 56.4278,-1.0547 56.4278,-1.4063 28.126,-0.5274 28.3018,-0.1757 28.126,-0.3516 28.3017,-1.0547 28.126,-1.2306 28.126,-1.0547 56.4278,-1.5821 28.3018,-0.3515 28.126,-0.1758" />
      <path
         inkscape:connector-curvature="0"
         id="path145862"
         style="fill:none;stroke:#000000;stroke-width:1.05472505;stroke-linecap:round;stroke-linejoin:round;stroke-miterlimit:10;stroke-dasharray:none;stroke-opacity:1"
         d="m 3845.4367,597.17465 169.6349,-5.80099 -4.5705,-129.20381 -38.1458,1.23051 -38.3217,1.05473 -38.1459,0.70315 -38.3217,0.35157 -38.1459,0.17579 -38.1459,-0.17579 -38.3216,-0.52736 -38.1459,-0.70315 -76.4676,-2.10945 -76.4676,-2.63681 -76.2917,-2.8126 -38.1459,-1.58209 -19.1608,-0.35157 h -19.1609" />
      <path
         inkscape:connector-curvature="0"
         id="path145864"
         style="fill:none;stroke:#000000;stroke-width:1.05472505;stroke-linecap:round;stroke-linejoin:round;stroke-miterlimit:10;stroke-dasharray:none;stroke-opacity:1"
         d="m 3682.6575,589.52789 c 0,-1.21351 -0.9839,-2.19734 -2.1974,-2.19734 -1.2135,0 -2.1973,0.98383 -2.1973,2.19734 0,1.21352 0.9838,2.19735 2.1973,2.19735 1.2135,0 2.1974,-0.98383 2.1974,-2.19735" />
      <path
         inkscape:connector-curvature="0"
         id="path145866"
         style="fill:none;stroke:#000000;stroke-width:1.05472505;stroke-linecap:round;stroke-linejoin:round;stroke-miterlimit:10;stroke-dasharray:none;stroke-opacity:1"
         d="m 3845.4367,597.17465 -10.3715,26.54391 -10.0199,26.89549 -4.7462,13.35985 -4.5705,13.53564 -4.3947,13.53563 -4.2189,13.71143 -4.0431,13.71142 -3.8673,13.71143 -3.5158,13.88721 -3.5157,13.88722 -3.1642,13.88721 -2.9884,13.88721 -2.8126,14.063 -2.461,14.063 -2.2853,14.063 -2.1094,14.063 -1.7579,14.23879 -1.5821,14.23879 -1.4063,14.23878 -1.0547,14.23879 -1.0547,14.23879 -0.7032,14.23879 -0.5273,14.23878 -0.3516,14.41458 -0.1758,14.23879 0.1758,14.23878 0.5274,28.65334 1.2305,28.6534 1.7578,28.4776 2.4611,28.6533 2.9884,28.3018 3.5157,28.3018 3.8673,28.3018 4.3947,28.3018 4.9221,28.126 5.2736,27.9502 5.4494,27.9502 5.9768,27.9502 6.3283,27.9502 6.3284,27.7745 13.5356,55.373 13.8872,55.3731 -56.4278,-0.7032 -56.4277,-1.0547 -56.4278,-1.4063 -28.126,-0.5274 -28.126,-0.1757 -28.3018,-0.3516 -28.126,-1.0547 -28.3018,-1.2306 -28.126,-1.0547 -56.4278,-1.5821 -28.126,-0.3515 -28.3018,-0.1758" />
    </g>
    <text
       xml:space="preserve"
       style="font-style:normal;font-weight:normal;font-size:10.58333302px;line-height:1.25;font-family:sans-serif;letter-spacing:0px;word-spacing:0px;fill:#000000;fill-opacity:1;stroke:none;stroke-width:0.26458332"
       x="2.0305197"
       y="310.53922"
       id="text61630"><tspan
         sodipodi:role="line"
         id="tspan61628"
         x="2.0305197"
         y="310.53922"
         style="stroke-width:0.26458332">1/2 Board (500mm x 380mm)</tspan></text>
    <g
       id="g190954"
       transform="matrix(0.11927227,-0.25578021,0.25578021,0.11927227,-249.8699,963.44615)">
      <path
         inkscape:connector-curvature="0"
         id="path106596"
         style="fill:none;stroke:#000000;stroke-width:1.05472505;stroke-linecap:round;stroke-linejoin:round;stroke-miterlimit:10;stroke-dasharray:none;stroke-opacity:1"
         d="m 2867.355,421.56294 43.068,7.0315" />
      <path
         inkscape:connector-curvature="0"
         id="path106598"
         style="fill:none;stroke:#000000;stroke-width:1.05472505;stroke-linecap:round;stroke-linejoin:round;stroke-miterlimit:10;stroke-dasharray:none;stroke-opacity:1"
         d="m 3792.1731,-116.34681 13.0082,-41.66164" />
      <path
         inkscape:connector-curvature="0"
         id="path145918"
         style="fill:none;stroke:#000000;stroke-width:1.05472505;stroke-linecap:round;stroke-linejoin:round;stroke-miterlimit:10;stroke-dasharray:none;stroke-opacity:1"
         d="m 2910.423,428.59444 2.8126,-18.10611 3.1641,-17.93033 3.34,-17.93033 4.2189,-17.93032 4.5705,-17.57875 5.2736,-17.57875 5.801,-17.40296 6.3283,-17.05139 6.68,-17.05139 7.383,-16.69981 7.7347,-16.69981 8.262,-16.17245 8.6136,-16.17245 9.3167,-15.82088 9.6683,-15.4693 10.0199,-15.29351 10.7231,-14.76615 10.8988,-14.59036 11.602,-14.41458 11.7777,-13.88721 12.3051,-13.535638 12.481,-13.184062 13.0082,-12.832488 13.3599,-12.480912 13.7114,-12.129338 14.063,-11.777762 14.2388,-11.426188 14.7662,-10.8988245 14.9419,-10.54725 15.1177,-10.1956755 15.4693,-9.8441 15.6451,-9.316737 15.9967,-8.965163 15.9966,-8.613587 16.3483,-8.086225 16.524,-7.910438 16.6998,-7.383074 17.0514,-6.855713 17.0514,-6.679925 17.2272,-6.152563 17.2271,-5.625197 17.5788,-5.44942 17.5787,-4.92205 17.5788,-4.39468 17.9303,-4.2189 17.9303,-3.69154 17.9304,-3.16417 18.1061,-2.8126 18.1061,-2.46103 18.1061,-1.93366 18.2819,-1.58209 18.1061,-1.05472 18.2819,-0.52737 18.2819,-0.17579 18.2819,0.35158 18.2819,0.70315 18.2819,1.23051 18.1061,1.58209 18.2819,2.10945 17.9303,2.8126 18.1062,3.16417 17.7545,3.86733 17.7545,4.2189 17.7546,4.39469" />
      <path
         inkscape:connector-curvature="0"
         id="path145920"
         style="fill:none;stroke:#000000;stroke-width:1.05472505;stroke-linecap:round;stroke-linejoin:round;stroke-miterlimit:10;stroke-dasharray:none;stroke-opacity:1"
         d="m 2867.355,421.56294 3.1642,-19.16084 3.34,-19.16084 3.6915,-19.16083 4.2189,-18.98505 5.0978,-18.63348 5.4495,-18.63348 6.1525,-18.45768 6.6799,-18.2819 7.2073,-18.10611 7.7347,-17.93033 8.262,-17.57875 8.7894,-17.22718 9.1409,-17.22717 9.8441,-16.69981 10.3715,-16.52403 10.723,-16.17245 11.2504,-15.82087 11.7778,-15.4693 12.1293,-15.293515 12.6567,-14.76615 13.0083,-14.414575 13.3598,-14.063 13.8873,-13.711425 14.2387,-13.184063 14.4146,-13.0082745 14.942,-12.4809125 15.2935,-11.95355 15.4693,-11.777762 15.9966,-11.250401 15.9967,-10.723037 16.524,-10.371462 16.6998,-10.019888 16.8756,-9.492525 17.2272,-9.14095 17.403,-8.78937 17.5787,-8.26202 17.7546,-7.73465 17.9303,-7.55886 18.1061,-6.85571 18.2819,-6.67993 18.4577,-5.97677 18.6335,-5.80099 18.6334,-5.27363 18.9851,-4.74626 18.8092,-4.39468 19.1609,-3.86733 18.985,-3.51575 19.3367,-2.98839 19.1608,-2.46102 19.3366,-2.10945 19.3366,-1.58209 19.5125,-1.23051 19.3366,-0.70315 19.5124,-0.17579 19.3366,0.35158 19.5124,0.87893 19.3366,1.23051 19.3367,1.93367 19.3366,2.28524 19.1608,2.8126 19.1609,3.33996 18.985,3.86732 18.9851,4.39469 18.8092,4.92205" />
    </g>
    <g
       id="g62966"
       transform="matrix(-0.02459729,-0.28114829,0.28114829,-0.02459729,-532.80729,736.68076)">
      <path
         inkscape:connector-curvature="0"
         id="path22742"
         style="fill:none;stroke:#000000;stroke-width:1.05472505;stroke-linecap:round;stroke-linejoin:round;stroke-miterlimit:10;stroke-dasharray:none;stroke-opacity:1"
         d="m 1504.7131,2291.6397 -9.8652,52.2511" />
      <path
         inkscape:connector-curvature="0"
         id="path22744"
         style="fill:none;stroke:#000000;stroke-width:1.05472505;stroke-linecap:round;stroke-linejoin:round;stroke-miterlimit:10;stroke-dasharray:none;stroke-opacity:1"
         d="m 1578.7161,2304.996 -9.8652,52.2511" />
      <path
         inkscape:connector-curvature="0"
         id="path22746"
         style="fill:none;stroke:#000000;stroke-width:1.05472505;stroke-linecap:round;stroke-linejoin:round;stroke-miterlimit:10;stroke-dasharray:none;stroke-opacity:1"
         d="m 1617.1415,2311.5341 -9.8651,52.251" />
      <path
         inkscape:connector-curvature="0"
         id="path26940"
         style="fill:none;stroke:#000000;stroke-width:1.05472505;stroke-linecap:round;stroke-linejoin:round;stroke-miterlimit:10;stroke-dasharray:none;stroke-opacity:1"
         d="m 1941.2342,2409.0604 4.6422,-53.0609" />
      <path
         inkscape:connector-curvature="0"
         id="path26942"
         style="fill:none;stroke:#000000;stroke-width:1.05472505;stroke-linecap:round;stroke-linejoin:round;stroke-miterlimit:10;stroke-dasharray:none;stroke-opacity:1"
         d="m 1887.1591,2349.4507 -5.1675,53.015" />
      <path
         inkscape:connector-curvature="0"
         id="path26944"
         style="fill:none;stroke:#000000;stroke-width:1.05472505;stroke-linecap:round;stroke-linejoin:round;stroke-miterlimit:10;stroke-dasharray:none;stroke-opacity:1"
         d="m 1702.2536,2324.98 -8.6547,52.5334" />
      <path
         inkscape:connector-curvature="0"
         id="path26946"
         style="fill:none;stroke:#000000;stroke-width:1.05472505;stroke-linecap:round;stroke-linejoin:round;stroke-miterlimit:10;stroke-dasharray:none;stroke-opacity:1"
         d="m 1744.1382,2384.7584 7.9541,-52.5947" />
      <path
         inkscape:connector-curvature="0"
         id="path26948"
         style="fill:none;stroke:#000000;stroke-width:1.05472505;stroke-linecap:round;stroke-linejoin:round;stroke-miterlimit:10;stroke-dasharray:none;stroke-opacity:1"
         d="m 1837.6341,2397.1732 7.2536,-52.656" />
      <path
         inkscape:connector-curvature="0"
         id="path26950"
         style="fill:none;stroke:#000000;stroke-width:1.05472505;stroke-linecap:round;stroke-linejoin:round;stroke-miterlimit:10;stroke-dasharray:none;stroke-opacity:1"
         d="m 2685.584,2436.7733 -61.889,1.4673 -62.0028,0.7515 -62.132,0.2109 -61.8803,-0.6495 -62.0094,-1.1901 -62.1233,-1.9059 -61.8716,-2.7662 -62.0007,-3.3068 -61.9394,-4.0073 -61.7031,-4.6925 -61.8168,-5.4083 -61.7555,-6.1087 -61.6943,-6.8093 -61.4579,-7.4943 -61.5871,-8.0351 -61.3353,-8.8953 -61.274,-9.5958 -61.2281,-10.1212 -60.9763,-10.9814 -60.9304,-11.5068 -60.8692,-12.2072 51.2544,-251.0285 60.8691,12.2073 61.2806,11.5374 61.1668,10.8217 61.4032,10.1364 61.4644,9.436 61.5411,8.5604 61.7622,8.0504 61.8388,7.1748 61.7096,6.6341 61.9613,5.7738 62.0226,5.0734 62.0993,4.1977 62.1452,3.6725 62.0467,2.7815 62.0925,2.2561 62.3444,1.3959 62.0554,0.6647 62.2918,-0.02 62.178,-0.7362 62.2392,-1.4367" />
      <path
         inkscape:connector-curvature="0"
         id="path26986"
         style="fill:none;stroke:#000000;stroke-width:1.05472505;stroke-linecap:round;stroke-linejoin:round;stroke-miterlimit:10;stroke-dasharray:none;stroke-opacity:1"
         d="m 1758.312,2305.4449 c 0.1057,-1.2089 -0.7886,-2.2747 -1.9975,-2.3805 -1.2088,-0.1057 -2.2746,0.7886 -2.3804,1.9975 -0.1058,1.2089 0.7885,2.2747 1.9974,2.3805 1.2089,0.1058 2.2747,-0.7886 2.3805,-1.9975" />
      <path
         inkscape:connector-curvature="0"
         id="path26988"
         style="fill:none;stroke:#000000;stroke-width:1.05472505;stroke-linecap:round;stroke-linejoin:round;stroke-miterlimit:10;stroke-dasharray:none;stroke-opacity:1"
         d="m 2579.2407,2385.6487 0.6419,53.1703" />
      <path
         inkscape:connector-curvature="0"
         id="path26990"
         style="fill:none;stroke:#000000;stroke-width:1.05472505;stroke-linecap:round;stroke-linejoin:round;stroke-miterlimit:10;stroke-dasharray:none;stroke-opacity:1"
         d="m 2504.0426,2385.9516 0.6419,53.1703" />
      <path
         inkscape:connector-curvature="0"
         id="path26992"
         style="fill:none;stroke:#000000;stroke-width:1.05472505;stroke-linecap:round;stroke-linejoin:round;stroke-miterlimit:10;stroke-dasharray:none;stroke-opacity:1"
         d="m 2465.0657,2385.7178 0.6419,53.1703" />
      <path
         inkscape:connector-curvature="0"
         id="path26994"
         style="fill:none;stroke:#000000;stroke-width:1.05472505;stroke-linecap:round;stroke-linejoin:round;stroke-miterlimit:10;stroke-dasharray:none;stroke-opacity:1"
         d="m 2129.1364,2425.4997 4.6422,-53.0609" />
      <path
         inkscape:connector-curvature="0"
         id="path26996"
         style="fill:none;stroke:#000000;stroke-width:1.05472505;stroke-linecap:round;stroke-linejoin:round;stroke-miterlimit:10;stroke-dasharray:none;stroke-opacity:1"
         d="m 2192.5659,2376.1704 -3.9417,53.1222" />
      <path
         inkscape:connector-curvature="0"
         id="path26998"
         style="fill:none;stroke:#000000;stroke-width:1.05472505;stroke-linecap:round;stroke-linejoin:round;stroke-miterlimit:10;stroke-dasharray:none;stroke-opacity:1"
         d="m 2379.0869,2384.1952 -0.7743,53.2229" />
      <path
         inkscape:connector-curvature="0"
         id="path27000"
         style="fill:none;stroke:#000000;stroke-width:1.05472505;stroke-linecap:round;stroke-linejoin:round;stroke-miterlimit:10;stroke-dasharray:none;stroke-opacity:1"
         d="m 2327.4581,2435.7923 1.2998,-53.1769" />
      <path
         inkscape:connector-curvature="0"
         id="path27002"
         style="fill:none;stroke:#000000;stroke-width:1.05472505;stroke-linecap:round;stroke-linejoin:round;stroke-miterlimit:10;stroke-dasharray:none;stroke-opacity:1"
         d="m 2233.0517,2431.7678 2.1753,-53.1003" />
      <path
         inkscape:connector-curvature="0"
         id="path27004"
         style="fill:none;stroke:#000000;stroke-width:1.05472505;stroke-linecap:round;stroke-linejoin:round;stroke-miterlimit:10;stroke-dasharray:none;stroke-opacity:1"
         d="m 2685.584,2436.7733 -6.7099,-256.0997" />
      <path
         inkscape:connector-curvature="0"
         id="path27040"
         style="fill:none;stroke:#000000;stroke-width:1.05472505;stroke-linecap:round;stroke-linejoin:round;stroke-miterlimit:10;stroke-dasharray:none;stroke-opacity:1"
         d="m 2331.6502,2355.6055 c 0.1058,-1.2089 -0.7886,-2.2747 -1.9974,-2.3805 -1.2089,-0.1057 -2.2748,0.7886 -2.3806,1.9975 -0.1057,1.2089 0.7887,2.2747 1.9976,2.3805 1.2088,0.1057 2.2747,-0.7886 2.3804,-1.9975" />
      <path
         inkscape:connector-curvature="0"
         id="path62940"
         d="m 1945.8764,2355.9995 -58.7173,-6.5488 -42.2714,-4.9335 -92.7954,-12.3535 -49.8387,-7.1837 -85.1121,-13.4459 -38.4254,-6.5381 -74.003,-13.3563 -102.1795,-22.5962"
         style="fill:none;stroke:#fa0000;stroke-width:0.93749994px;stroke-linecap:butt;stroke-linejoin:miter;stroke-opacity:1" />
      <path
         inkscape:connector-curvature="0"
         id="path62942"
         d="m 2133.7786,2372.4388 58.7873,3.7316 42.6611,2.4971 93.5309,3.9479 50.329,1.5798 85.9788,1.5226 38.9769,0.2338 75.1981,-0.3029 105.001,-2.107"
         style="fill:none;stroke:#ff0000;stroke-width:0.93749994px;stroke-linecap:butt;stroke-linejoin:miter;stroke-opacity:1" />
    </g>
    <g
       id="g190218"
       transform="matrix(0,0.28222223,-0.28222223,0,508.79984,-855.13312)">
      <path
         inkscape:connector-curvature="0"
         id="path145868"
         style="fill:none;stroke:#000000;stroke-width:1.05472505;stroke-linecap:round;stroke-linejoin:round;stroke-miterlimit:10;stroke-dasharray:none;stroke-opacity:1"
         d="M 3992.5708,981.09455 V 859.97696" />
      <path
         inkscape:connector-curvature="0"
         id="path145870"
         style="fill:none;stroke:#000000;stroke-width:1.05472505;stroke-linecap:round;stroke-linejoin:round;stroke-miterlimit:10;stroke-dasharray:none;stroke-opacity:1"
         d="M 3860.3786,859.97696 V 981.09455" />
      <path
         inkscape:connector-curvature="0"
         id="path145872"
         style="fill:none;stroke:#000000;stroke-width:1.05472505;stroke-linecap:round;stroke-linejoin:round;stroke-miterlimit:10;stroke-dasharray:none;stroke-opacity:1"
         d="m 3968.1364,899.88072 h -83.6749" />
      <path
         inkscape:connector-curvature="0"
         id="path145874"
         style="fill:none;stroke:#000000;stroke-width:1.05472505;stroke-linecap:round;stroke-linejoin:round;stroke-miterlimit:10;stroke-dasharray:none;stroke-opacity:1"
         d="m 3884.4615,899.88072 v 41.31007 h 83.6749 v -41.31007" />
      <path
         inkscape:connector-curvature="0"
         id="path145876"
         style="fill:none;stroke:#000000;stroke-width:1.05472505;stroke-linecap:round;stroke-linejoin:round;stroke-miterlimit:10;stroke-dasharray:none;stroke-opacity:1"
         d="m 3860.3786,981.09455 h 132.1922" />
      <path
         inkscape:connector-curvature="0"
         id="path145878"
         style="fill:none;stroke:#000000;stroke-width:1.05472505;stroke-linecap:round;stroke-linejoin:round;stroke-miterlimit:10;stroke-dasharray:none;stroke-opacity:1"
         d="m 3860.3786,859.97696 h 132.1922" />
    </g>
    <g
       id="g190226"
       transform="matrix(0,0.28222223,-0.28222223,0,499.73966,-855.30452)">
      <path
         inkscape:connector-curvature="0"
         id="path145880"
         style="fill:none;stroke:#000000;stroke-width:1.05472505;stroke-linecap:round;stroke-linejoin:round;stroke-miterlimit:10;stroke-dasharray:none;stroke-opacity:1"
         d="M 3992.5708,801.08815 V 679.97056" />
      <path
         inkscape:connector-curvature="0"
         id="path145882"
         style="fill:none;stroke:#000000;stroke-width:1.05472505;stroke-linecap:round;stroke-linejoin:round;stroke-miterlimit:10;stroke-dasharray:none;stroke-opacity:1"
         d="M 3860.3786,679.97056 V 801.08815" />
      <path
         inkscape:connector-curvature="0"
         id="path145884"
         style="fill:none;stroke:#000000;stroke-width:1.05472505;stroke-linecap:round;stroke-linejoin:round;stroke-miterlimit:10;stroke-dasharray:none;stroke-opacity:1"
         d="m 3968.1364,719.87432 h -83.6749" />
      <path
         inkscape:connector-curvature="0"
         id="path145886"
         style="fill:none;stroke:#000000;stroke-width:1.05472505;stroke-linecap:round;stroke-linejoin:round;stroke-miterlimit:10;stroke-dasharray:none;stroke-opacity:1"
         d="m 3884.4615,719.87432 v 41.31007 h 83.6749 v -41.31007" />
      <path
         inkscape:connector-curvature="0"
         id="path145888"
         style="fill:none;stroke:#000000;stroke-width:1.05472505;stroke-linecap:round;stroke-linejoin:round;stroke-miterlimit:10;stroke-dasharray:none;stroke-opacity:1"
         d="m 3860.3786,801.08815 h 132.1922" />
      <path
         inkscape:connector-curvature="0"
         id="path145890"
         style="fill:none;stroke:#000000;stroke-width:1.05472505;stroke-linecap:round;stroke-linejoin:round;stroke-miterlimit:10;stroke-dasharray:none;stroke-opacity:1"
         d="m 3860.3786,679.97056 h 132.1922" />
    </g>
    <g
       id="g190783"
       transform="matrix(0.28222223,0,0,0.28222223,-848.83631,53.228155)">
      <path
         inkscape:connector-curvature="0"
         id="path105746"
         style="fill:none;stroke:#000000;stroke-width:1.05472505;stroke-linecap:round;stroke-linejoin:round;stroke-miterlimit:10;stroke-dasharray:none;stroke-opacity:1"
         d="m 4336.7627,698.60404 v 30.76281" />
      <path
         inkscape:connector-curvature="0"
         id="path105748"
         style="fill:none;stroke:#000000;stroke-width:1.05472505;stroke-linecap:round;stroke-linejoin:round;stroke-miterlimit:10;stroke-dasharray:none;stroke-opacity:1"
         d="m 4124.2357,698.60404 v 30.76281" />
      <path
         inkscape:connector-curvature="0"
         id="path106600"
         style="fill:none;stroke:#000000;stroke-width:1.05472505;stroke-linecap:round;stroke-linejoin:round;stroke-miterlimit:10;stroke-dasharray:none;stroke-opacity:1"
         d="m 4230.4113,670.30225 v -6.50414" />
      <path
         inkscape:connector-curvature="0"
         id="path145912"
         style="fill:none;stroke:#000000;stroke-width:1.05472505;stroke-linecap:round;stroke-linejoin:round;stroke-miterlimit:10;stroke-dasharray:none;stroke-opacity:1"
         d="m 4124.2733,729.25552 c 63.1655,46.5563 149.2863,46.5563 212.4518,0" />
      <path
         inkscape:connector-curvature="0"
         id="path145914"
         style="fill:none;stroke:#000000;stroke-width:1.05472505;stroke-linecap:round;stroke-linejoin:round;stroke-miterlimit:10;stroke-dasharray:none;stroke-opacity:1"
         d="m 4336.7251,698.53958 c -63.1655,-46.5563 -149.2863,-46.5563 -212.4518,0" />
      <path
         inkscape:connector-curvature="0"
         id="path145916"
         style="fill:none;stroke:#000000;stroke-width:1.05472505;stroke-linecap:round;stroke-linejoin:round;stroke-miterlimit:10;stroke-dasharray:none;stroke-opacity:1"
         d="m 4230.4113,757.66864 v 6.50413" />
      <path
         inkscape:connector-curvature="0"
         id="path190228"
         d="m 4124.2357,698.60401 h 212.527"
         style="fill:none;stroke:#fe0000;stroke-width:0.93749994px;stroke-linecap:butt;stroke-linejoin:miter;stroke-opacity:1" />
      <path
         inkscape:connector-curvature="0"
         id="path190230"
         d="m 4124.2357,729.36685 h 212.527"
         style="fill:none;stroke:#fe0000;stroke-width:0.93749994px;stroke-linecap:butt;stroke-linejoin:miter;stroke-opacity:1" />
    </g>
    <g
       id="g62722"
       transform="matrix(0.28222223,0,0,0.28222223,-117.22906,42.998953)">
      <path
         inkscape:connector-curvature="0"
         id="path27216"
         style="fill:none;stroke:#000000;stroke-width:1.05472505;stroke-linecap:round;stroke-linejoin:round;stroke-miterlimit:10;stroke-dasharray:none;stroke-opacity:1"
         d="m 1770.8891,748.3442 0.1758,8.0862 0.3515,8.0862 0.7032,8.0862 0.5274,4.0432 0.3515,1.9336 0.879,1.9337 2.6368,3.1642 2.8126,2.8126 3.1642,2.461 3.5157,2.2852 3.5158,1.9337 3.6915,1.7578 3.6915,1.5821 3.6916,1.4063 7.9104,2.2853 7.9104,1.9336 7.9105,1.4063 8.0862,1.0548 7.9104,0.8789 8.0863,0.5274 8.0862,0.3515 8.262,0.1758 h 7.9104 l 2.4611,-12.8325 1.9336,-12.8324 1.2305,-13.0083 0.7032,-13.0083 V 741.84 l -0.7032,-13.0082 -1.2305,-12.8325 -1.9336,-12.8325 -2.4611,-12.8325" />
      <path
         inkscape:connector-curvature="0"
         id="path27218"
         style="fill:none;stroke:#000000;stroke-width:1.05472505;stroke-linecap:round;stroke-linejoin:round;stroke-miterlimit:10;stroke-dasharray:none;stroke-opacity:1"
         d="m 1872.67,690.3343 h -7.9104 l -8.262,0.1758 -8.0862,0.1758 -8.0863,0.7031 -7.9104,0.7032 -8.0862,1.2305 -7.9105,1.4063 -7.9104,1.7578 -7.9104,2.4611 -3.6916,1.4063 -3.6915,1.5821 -3.6915,1.7578 -3.5158,1.9337 -3.5157,2.2852 -3.1642,2.4611 -2.8126,2.8126 -2.6368,3.1641 -0.879,1.7579 -0.3515,2.1095 -0.5274,4.0431 -0.7032,7.9104 -0.3515,8.262 -0.1758,8.0863" />
    </g>
    <g
       id="g62680"
       transform="matrix(0,0.28222223,-0.28222223,0,678.7417,-183.2906)">
      <path
         inkscape:connector-curvature="0"
         id="path5120"
         style="fill:none;stroke:#000000;stroke-width:1.05472505;stroke-linecap:round;stroke-linejoin:round;stroke-miterlimit:10;stroke-dasharray:none;stroke-opacity:1"
         d="M 1056.4417,1899.9304 H 940.77347 l -142.0363,-66.4477" />
      <path
         inkscape:connector-curvature="0"
         id="path27042"
         style="fill:none;stroke:#000000;stroke-width:1.05472505;stroke-linecap:round;stroke-linejoin:round;stroke-miterlimit:10;stroke-dasharray:none;stroke-opacity:1"
         d="m 1056.4417,1899.9304 142.2121,-66.4477 -9.3168,-11.602 -4.7462,-5.4494 -4.9221,-5.6252 -10.3714,-10.5472 -10.7231,-10.0199 -11.2504,-9.6683 -5.801,-4.5705 -5.801,-4.5705 -5.9767,-4.2189 -6.1526,-4.2189 -6.1526,-3.8673 -6.3283,-3.8673 -6.5041,-3.6916 -6.5042,-3.3399 -6.6799,-3.34 -6.6799,-2.9884 -6.8557,-2.8126 -6.8558,-2.6368 -7.0314,-2.461 -7.0315,-2.1095 -7.2073,-1.9336 -7.2073,-1.7579 -7.2073,-1.4063 -7.2073,-1.2305 -7.3831,-0.879 -7.383,-0.7031 -7.3831,-0.3516 -7.38313,-0.1758 -7.3831,0.1758 -7.383,0.3516 -7.3831,0.7031 -7.2073,0.879 -7.3831,1.2305 -7.2073,1.4063 -7.2073,1.7579 -7.2072,1.9336 -7.0315,2.1095 -6.8558,2.461 -7.0315,2.461 -6.8557,2.9884 -6.6799,2.9884 -6.6799,3.34 -6.5042,3.3399 -6.3283,3.6916 -6.3284,3.8673 -6.3283,3.8673 -5.9768,4.2189 -5.9768,4.2189 -5.9767,4.5705 -5.801,4.5705 -11.2504,9.6683 -10.7231,10.0199 -5.2736,5.2736 -5.0978,5.2736 -4.9221,5.6252 -4.7462,5.6252 -9.141,11.4262" />
    </g>
  </g>
</svg>
