  0
SECTION
  2
HEADER
  9
$ACADVER
  1
AC1014
  9
$HANDSEED
  5
FFFF
  9
$MEASUREMENT
 70
     1
  0
ENDSEC
  0
SECTION
  2
TABLES
  0
TABLE
  2
VPORT
  5
8
330
0
100
AcDbSymbolTable
 70
     4
  0
VPORT
  5
2E
330
8
100
AcDbSymbolTableRecord
100
AcDbViewportTableRecord
  2
*ACTIVE
 70
     0
 10
0.0
 20
0.0
 11
1.0
 21
1.0
 12
210.0
 22
148.5
 13
0.0
 23
0.0
 14
10.0
 24
10.0
 15
10.0
 25
10.0
 16
0.0
 26
0.0
 36
1.0
 17
0.0
 27
0.0
 37
0.0
 40
341.0
 41
1.24
 42
50.0
 43
0.0
 44
0.0
 50
0.0
 51
0.0
 71
     0
 72
   100
 73
     1
 74
     3
 75
     0
 76
     0
 77
     0
 78
     0
  0
ENDTAB
  0
TABLE
  2
LTYPE
  5
5
330
0
100
AcDbSymbolTable
 70
     1
  0
LTYPE
  5
14
330
5
100
AcDbSymbolTableRecord
100
AcDbLinetypeTableRecord
  2
BYBLOCK
 70
     0
  3

 72
    65
 73
     0
 40
0.0
  0
LTYPE
  5
15
330
5
100
AcDbSymbolTableRecord
100
AcDbLinetypeTableRecord
  2
BYLAYER
 70
     0
  3

 72
    65
 73
     0
 40
0.0
  0
LTYPE
  5
16
330
5
100
AcDbSymbolTableRecord
100
AcDbLinetypeTableRecord
  2
CONTINUOUS
 70
     0
  3
Solid line
 72
    65
 73
     0
 40
0.0
  0
ENDTAB
  0
TABLE
  2
LAYER
  5
2
100
AcDbSymbolTable
 70
2
  0
LAYER
  5
50
100
AcDbSymbolTableRecord
100
AcDbLayerTableRecord
  2
0
 70
0
  6
CONTINUOUS
  0
LAYER
  5
51
100
AcDbSymbolTableRecord
100
AcDbLayerTableRecord
  2
Layer_1
 70
0
  6
CONTINUOUS
  0
ENDTAB
  0
TABLE
  2
STYLE
  5
3
330
0
100
AcDbSymbolTable
 70
     1
  0
STYLE
  5
11
330
3
100
AcDbSymbolTableRecord
100
AcDbTextStyleTableRecord
  2
STANDARD
 70
     0
 40
0.0
 41
1.0
 50
0.0
 71
     0
 42
2.5
  3
txt
  4

  0
ENDTAB
  0
TABLE
  2
VIEW
  5
6
330
0
100
AcDbSymbolTable
 70
     0
  0
ENDTAB
  0
TABLE
  2
UCS
  5
7
330
0
100
AcDbSymbolTable
 70
     0
  0
ENDTAB
  0
TABLE
  2
APPID
  5
9
330
0
100
AcDbSymbolTable
 70
     2
  0
APPID
  5
12
330
9
100
AcDbSymbolTableRecord
100
AcDbRegAppTableRecord
  2
ACAD
 70
     0
  0
ENDTAB
  0
TABLE
  2
DIMSTYLE
  5
A
330
0
100
AcDbSymbolTable
 70
     1
  0
DIMSTYLE
105
27
330
A
100
AcDbSymbolTableRecord
100
AcDbDimStyleTableRecord
  2
ISO-25
 70
     0
  3

  4

  5

  6

  7

 40
1.0
 41
2.5
 42
0.625
 43
3.75
 44
1.25
 45
0.0
 46
0.0
 47
0.0
 48
0.0
140
2.5
141
2.5
142
0.0
143
0.03937007874016
144
1.0
145
0.0
146
1.0
147
0.625
 71
     0
 72
     0
 73
     0
 74
     0
 75
     0
 76
     0
 77
     1
 78
     8
170
     0
171
     3
172
     1
173
     0
174
     0
175
     0
176
     0
177
     0
178
     0
270
     2
271
     2
272
     2
273
     2
274
     3
340
11
275
     0
280
     0
281
     0
282
     0
283
     0
284
     8
285
     0
286
     0
287
     3
288
     0
  0
ENDTAB
  0
TABLE
  2
BLOCK_RECORD
  5
1
330
0
100
AcDbSymbolTable
 70
     1
  0
BLOCK_RECORD
  5
1F
330
1
100
AcDbSymbolTableRecord
100
AcDbBlockTableRecord
  2
*MODEL_SPACE
  0
BLOCK_RECORD
  5
1B
330
1
100
AcDbSymbolTableRecord
100
AcDbBlockTableRecord
  2
*PAPER_SPACE
  0
ENDTAB
  0
ENDSEC
  0
SECTION
  2
BLOCKS
  0
BLOCK
  5
20
330
1F
100
AcDbEntity
  8
0
100
AcDbBlockBegin
  2
*MODEL_SPACE
 70
     0
 10
0.0
 20
0.0
 30
0.0
  3
*MODEL_SPACE
  1

  0
ENDBLK
  5
21
330
1F
100
AcDbEntity
  8
0
100
AcDbBlockEnd
  0
BLOCK
  5
1C
330
1B
100
AcDbEntity
 67
     1
  8
0
100
AcDbBlockBegin
  2
*PAPER_SPACE
  1

  0
ENDBLK
  5
1D
330
1B
100
AcDbEntity
 67
     1
  8
0
100
AcDbBlockEnd
  0
ENDSEC
  0
SECTION
  2
ENTITIES
  0
LINE
  5
100
100
AcDbEntity
  8
Layer_1
 62
7
100
AcDbLine
 10
189.294254
 20
332.296819
 30
0.0
 11
141.419514
 21
333.933987
 31
0.0
  0
LINE
  5
101
100
AcDbEntity
  8
Layer_1
 62
7
100
AcDbLine
 10
141.419514
 20
333.933987
 30
0.0
 11
142.709411
 21
370.398174
 31
0.0
  0
LINE
  5
102
100
AcDbEntity
  8
Layer_1
 62
7
100
AcDbLine
 10
142.709411
 20
370.398174
 30
0.0
 11
153.475032
 21
370.050897
 31
0.0
  0
LINE
  5
103
100
AcDbEntity
  8
Layer_1
 62
7
100
AcDbLine
 10
153.475032
 20
370.050897
 30
0.0
 11
164.240653
 21
369.753229
 31
0.0
  0
LINE
  5
104
100
AcDbEntity
  8
Layer_1
 62
7
100
AcDbLine
 10
164.240653
 20
369.753229
 30
0.0
 11
175.055860
 21
369.554784
 31
0.0
  0
LINE
  5
105
100
AcDbEntity
  8
Layer_1
 62
7
100
AcDbLine
 10
175.055860
 20
369.554784
 30
0.0
 11
185.821481
 21
369.455563
 31
0.0
  0
LINE
  5
106
100
AcDbEntity
  8
Layer_1
 62
7
100
AcDbLine
 10
185.821481
 20
369.455563
 30
0.0
 11
196.636717
 21
369.405951
 31
0.0
  0
LINE
  5
107
100
AcDbEntity
  8
Layer_1
 62
7
100
AcDbLine
 10
196.636717
 20
369.405951
 30
0.0
 11
207.402338
 21
369.455563
 31
0.0
  0
LINE
  5
108
100
AcDbEntity
  8
Layer_1
 62
7
100
AcDbLine
 10
207.402338
 20
369.455563
 30
0.0
 11
218.167959
 21
369.604396
 31
0.0
  0
LINE
  5
109
100
AcDbEntity
  8
Layer_1
 62
7
100
AcDbLine
 10
218.167959
 20
369.604396
 30
0.0
 11
228.983166
 21
369.802841
 31
0.0
  0
LINE
  5
10a
100
AcDbEntity
  8
Layer_1
 62
7
100
AcDbLine
 10
228.983166
 20
369.802841
 30
0.0
 11
250.514408
 21
370.398174
 31
0.0
  0
LINE
  5
10b
100
AcDbEntity
  8
Layer_1
 62
7
100
AcDbLine
 10
250.514408
 20
370.398174
 30
0.0
 11
272.095265
 21
371.142341
 31
0.0
  0
LINE
  5
10c
100
AcDbEntity
  8
Layer_1
 62
7
100
AcDbLine
 10
272.095265
 20
371.142341
 30
0.0
 11
293.676093
 21
371.936119
 31
0.0
  0
LINE
  5
10d
100
AcDbEntity
  8
Layer_1
 62
7
100
AcDbLine
 10
293.676093
 20
371.936119
 30
0.0
 11
304.441714
 21
372.382620
 31
0.0
  0
LINE
  5
10e
100
AcDbEntity
  8
Layer_1
 62
7
100
AcDbLine
 10
304.441714
 20
372.382620
 30
0.0
 11
309.849346
 21
372.481841
 31
0.0
  0
LINE
  5
10f
100
AcDbEntity
  8
Layer_1
 62
7
100
AcDbLine
 10
309.849346
 20
372.481841
 30
0.0
 11
315.207335
 21
372.481841
 31
0.0
  0
SPLINE
  5
110
100
AcDbEntity
  8
Layer_1
 62
7
100
AcDbSpline
 70
8
 71
3
 72
8
 73
4
 74
0
 40
0
 40
0
 40
0
 40
0
 40
1
 40
1
 40
1
 40
1
 10
236.474473
 20
334.454904
 30
0.0
 10
236.474473
 20
334.797384
 30
0.0
 10
236.196823
 20
335.075042
 30
0.0
 10
235.854318
 20
335.075042
 30
0.0
  0
SPLINE
  5
111
100
AcDbEntity
  8
Layer_1
 62
7
100
AcDbSpline
 70
8
 71
3
 72
8
 73
4
 74
0
 40
0
 40
0
 40
0
 40
0
 40
1
 40
1
 40
1
 40
1
 10
235.854318
 20
335.075042
 30
0.0
 10
235.511813
 20
335.075042
 30
0.0
 10
235.234191
 20
334.797384
 30
0.0
 10
235.234191
 20
334.454904
 30
0.0
  0
SPLINE
  5
112
100
AcDbEntity
  8
Layer_1
 62
7
100
AcDbSpline
 70
8
 71
3
 72
8
 73
4
 74
0
 40
0
 40
0
 40
0
 40
0
 40
1
 40
1
 40
1
 40
1
 10
235.234191
 20
334.454904
 30
0.0
 10
235.234191
 20
334.112422
 30
0.0
 10
235.511813
 20
333.834763
 30
0.0
 10
235.854318
 20
333.834763
 30
0.0
  0
SPLINE
  5
113
100
AcDbEntity
  8
Layer_1
 62
7
100
AcDbSpline
 70
8
 71
3
 72
8
 73
4
 74
0
 40
0
 40
0
 40
0
 40
0
 40
1
 40
1
 40
1
 40
1
 10
235.854318
 20
333.834763
 30
0.0
 10
236.196823
 20
333.834763
 30
0.0
 10
236.474473
 20
334.112422
 30
0.0
 10
236.474473
 20
334.454904
 30
0.0
  0
LINE
  5
114
100
AcDbEntity
  8
Layer_1
 62
7
100
AcDbLine
 10
189.294254
 20
332.296819
 30
0.0
 11
192.221322
 21
324.805537
 31
0.0
  0
LINE
  5
115
100
AcDbEntity
  8
Layer_1
 62
7
100
AcDbLine
 10
192.221322
 20
324.805537
 30
0.0
 11
194.999546
 21
317.215032
 31
0.0
  0
LINE
  5
116
100
AcDbEntity
  8
Layer_1
 62
7
100
AcDbLine
 10
194.999546
 20
317.215032
 30
0.0
 11
196.339057
 21
313.444585
 31
0.0
  0
LINE
  5
117
100
AcDbEntity
  8
Layer_1
 62
7
100
AcDbLine
 10
196.339057
 20
313.444585
 30
0.0
 11
197.678540
 21
309.624527
 31
0.0
  0
LINE
  5
118
100
AcDbEntity
  8
Layer_1
 62
7
100
AcDbLine
 10
197.678540
 20
309.624527
 30
0.0
 11
198.918822
 21
305.804471
 31
0.0
  0
LINE
  5
119
100
AcDbEntity
  8
Layer_1
 62
7
100
AcDbLine
 10
198.918822
 20
305.804471
 30
0.0
 11
200.109490
 21
301.934801
 31
0.0
  0
LINE
  5
11a
100
AcDbEntity
  8
Layer_1
 62
7
100
AcDbLine
 10
200.109490
 20
301.934801
 30
0.0
 11
201.250542
 21
298.065133
 31
0.0
  0
LINE
  5
11b
100
AcDbEntity
  8
Layer_1
 62
7
100
AcDbLine
 10
201.250542
 20
298.065133
 30
0.0
 11
202.292394
 21
294.195463
 31
0.0
  0
LINE
  5
11c
100
AcDbEntity
  8
Layer_1
 62
7
100
AcDbLine
 10
202.292394
 20
294.195463
 30
0.0
 11
203.334217
 21
290.276183
 31
0.0
  0
LINE
  5
11d
100
AcDbEntity
  8
Layer_1
 62
7
100
AcDbLine
 10
203.334217
 20
290.276183
 30
0.0
 11
204.276840
 21
286.356901
 31
0.0
  0
LINE
  5
11e
100
AcDbEntity
  8
Layer_1
 62
7
100
AcDbLine
 10
204.276840
 20
286.356901
 30
0.0
 11
205.219434
 21
282.437622
 31
0.0
  0
LINE
  5
11f
100
AcDbEntity
  8
Layer_1
 62
7
100
AcDbLine
 10
205.219434
 20
282.437622
 30
0.0
 11
206.013212
 21
278.518343
 31
0.0
  0
LINE
  5
120
100
AcDbEntity
  8
Layer_1
 62
7
100
AcDbLine
 10
206.013212
 20
278.518343
 30
0.0
 11
206.806990
 21
274.549451
 31
0.0
  0
LINE
  5
121
100
AcDbEntity
  8
Layer_1
 62
7
100
AcDbLine
 10
206.806990
 20
274.549451
 30
0.0
 11
207.501567
 21
270.580560
 31
0.0
  0
LINE
  5
122
100
AcDbEntity
  8
Layer_1
 62
7
100
AcDbLine
 10
207.501567
 20
270.580560
 30
0.0
 11
208.146501
 21
266.611669
 31
0.0
  0
LINE
  5
123
100
AcDbEntity
  8
Layer_1
 62
7
100
AcDbLine
 10
208.146501
 20
266.611669
 30
0.0
 11
208.741821
 21
262.642778
 31
0.0
  0
LINE
  5
124
100
AcDbEntity
  8
Layer_1
 62
7
100
AcDbLine
 10
208.741821
 20
262.642778
 30
0.0
 11
209.237940
 21
258.624275
 31
0.0
  0
LINE
  5
125
100
AcDbEntity
  8
Layer_1
 62
7
100
AcDbLine
 10
209.237940
 20
258.624275
 30
0.0
 11
209.684443
 21
254.605772
 31
0.0
  0
LINE
  5
126
100
AcDbEntity
  8
Layer_1
 62
7
100
AcDbLine
 10
209.684443
 20
254.605772
 30
0.0
 11
210.081332
 21
250.587271
 31
0.0
  0
LINE
  5
127
100
AcDbEntity
  8
Layer_1
 62
7
100
AcDbLine
 10
210.081332
 20
250.587271
 30
0.0
 11
210.428607
 21
246.568768
 31
0.0
  0
LINE
  5
128
100
AcDbEntity
  8
Layer_1
 62
7
100
AcDbLine
 10
210.428607
 20
246.568768
 30
0.0
 11
210.676680
 21
242.550265
 31
0.0
  0
LINE
  5
129
100
AcDbEntity
  8
Layer_1
 62
7
100
AcDbLine
 10
210.676680
 20
242.550265
 30
0.0
 11
210.875111
 21
238.531762
 31
0.0
  0
LINE
  5
12a
100
AcDbEntity
  8
Layer_1
 62
7
100
AcDbLine
 10
210.875111
 20
238.531762
 30
0.0
 11
211.023955
 21
234.513262
 31
0.0
  0
LINE
  5
12b
100
AcDbEntity
  8
Layer_1
 62
7
100
AcDbLine
 10
211.023955
 20
234.513262
 30
0.0
 11
211.123156
 21
230.445147
 31
0.0
  0
LINE
  5
12c
100
AcDbEntity
  8
Layer_1
 62
7
100
AcDbLine
 10
211.123156
 20
230.445147
 30
0.0
 11
211.172770
 21
226.426644
 31
0.0
  0
LINE
  5
12d
100
AcDbEntity
  8
Layer_1
 62
7
100
AcDbLine
 10
211.172770
 20
226.426644
 30
0.0
 11
211.172770
 21
222.408144
 31
0.0
  0
LINE
  5
12e
100
AcDbEntity
  8
Layer_1
 62
7
100
AcDbLine
 10
211.172770
 20
222.408144
 30
0.0
 11
211.023955
 21
214.321534
 31
0.0
  0
LINE
  5
12f
100
AcDbEntity
  8
Layer_1
 62
7
100
AcDbLine
 10
211.023955
 20
214.321534
 30
0.0
 11
210.676680
 21
206.234908
 31
0.0
  0
LINE
  5
130
100
AcDbEntity
  8
Layer_1
 62
7
100
AcDbLine
 10
210.676680
 20
206.234908
 30
0.0
 11
210.130947
 21
198.197896
 31
0.0
  0
LINE
  5
131
100
AcDbEntity
  8
Layer_1
 62
7
100
AcDbLine
 10
210.130947
 20
198.197896
 30
0.0
 11
209.436398
 21
190.111298
 31
0.0
  0
LINE
  5
132
100
AcDbEntity
  8
Layer_1
 62
7
100
AcDbLine
 10
209.436398
 20
190.111298
 30
0.0
 11
208.593005
 21
182.123901
 31
0.0
  0
LINE
  5
133
100
AcDbEntity
  8
Layer_1
 62
7
100
AcDbLine
 10
208.593005
 20
182.123901
 30
0.0
 11
207.650383
 21
174.136503
 31
0.0
  0
LINE
  5
134
100
AcDbEntity
  8
Layer_1
 62
7
100
AcDbLine
 10
207.650383
 20
174.136503
 30
0.0
 11
206.509330
 21
166.149106
 31
0.0
  0
LINE
  5
135
100
AcDbEntity
  8
Layer_1
 62
7
100
AcDbLine
 10
206.509330
 20
166.149106
 30
0.0
 11
205.269048
 21
158.161709
 31
0.0
  0
LINE
  5
136
100
AcDbEntity
  8
Layer_1
 62
7
100
AcDbLine
 10
205.269048
 20
158.161709
 30
0.0
 11
203.929565
 21
150.223927
 31
0.0
  0
LINE
  5
137
100
AcDbEntity
  8
Layer_1
 62
7
100
AcDbLine
 10
203.929565
 20
150.223927
 30
0.0
 11
202.441210
 21
142.335759
 31
0.0
  0
LINE
  5
138
100
AcDbEntity
  8
Layer_1
 62
7
100
AcDbLine
 10
202.441210
 20
142.335759
 30
0.0
 11
200.853653
 21
134.447591
 31
0.0
  0
LINE
  5
139
100
AcDbEntity
  8
Layer_1
 62
7
100
AcDbLine
 10
200.853653
 20
134.447591
 30
0.0
 11
199.166896
 21
126.559423
 31
0.0
  0
LINE
  5
13a
100
AcDbEntity
  8
Layer_1
 62
7
100
AcDbLine
 10
199.166896
 20
126.559423
 30
0.0
 11
197.430495
 21
118.671256
 31
0.0
  0
LINE
  5
13b
100
AcDbEntity
  8
Layer_1
 62
7
100
AcDbLine
 10
197.430495
 20
118.671256
 30
0.0
 11
195.594894
 21
110.832674
 31
0.0
  0
LINE
  5
13c
100
AcDbEntity
  8
Layer_1
 62
7
100
AcDbLine
 10
195.594894
 20
110.832674
 30
0.0
 11
191.774818
 21
95.205183
 31
0.0
  0
LINE
  5
13d
100
AcDbEntity
  8
Layer_1
 62
7
100
AcDbLine
 10
191.774818
 20
95.205183
 30
0.0
 11
187.855542
 21
79.577663
 31
0.0
  0
LINE
  5
13e
100
AcDbEntity
  8
Layer_1
 62
7
100
AcDbLine
 10
187.855542
 20
79.577663
 30
0.0
 11
203.780721
 21
79.776122
 31
0.0
  0
LINE
  5
13f
100
AcDbEntity
  8
Layer_1
 62
7
100
AcDbLine
 10
203.780721
 20
79.776122
 30
0.0
 11
219.705901
 21
80.073782
 31
0.0
  0
LINE
  5
140
100
AcDbEntity
  8
Layer_1
 62
7
100
AcDbLine
 10
219.705901
 20
80.073782
 30
0.0
 11
235.631080
 21
80.470671
 31
0.0
  0
LINE
  5
141
100
AcDbEntity
  8
Layer_1
 62
7
100
AcDbLine
 10
235.631080
 20
80.470671
 30
0.0
 11
243.568863
 21
80.619515
 31
0.0
  0
LINE
  5
142
100
AcDbEntity
  8
Layer_1
 62
7
100
AcDbLine
 10
243.568863
 20
80.619515
 30
0.0
 11
251.556260
 21
80.669101
 31
0.0
  0
LINE
  5
143
100
AcDbEntity
  8
Layer_1
 62
7
100
AcDbLine
 10
251.556260
 20
80.669101
 30
0.0
 11
259.494042
 21
80.768330
 31
0.0
  0
LINE
  5
144
100
AcDbEntity
  8
Layer_1
 62
7
100
AcDbLine
 10
259.494042
 20
80.768330
 30
0.0
 11
267.481411
 21
81.065990
 31
0.0
  0
LINE
  5
145
100
AcDbEntity
  8
Layer_1
 62
7
100
AcDbLine
 10
267.481411
 20
81.065990
 30
0.0
 11
275.419194
 21
81.413293
 31
0.0
  0
LINE
  5
146
100
AcDbEntity
  8
Layer_1
 62
7
100
AcDbLine
 10
275.419194
 20
81.413293
 30
0.0
 11
283.356976
 21
81.710953
 31
0.0
  0
LINE
  5
147
100
AcDbEntity
  8
Layer_1
 62
7
100
AcDbLine
 10
283.356976
 20
81.710953
 30
0.0
 11
299.282156
 21
82.157456
 31
0.0
  0
LINE
  5
148
100
AcDbEntity
  8
Layer_1
 62
7
100
AcDbLine
 10
299.282156
 20
82.157456
 30
0.0
 11
307.269553
 21
82.256658
 31
0.0
  0
LINE
  5
149
100
AcDbEntity
  8
Layer_1
 62
7
100
AcDbLine
 10
307.269553
 20
82.256658
 30
0.0
 11
315.207335
 21
82.306272
 31
0.0
  0
LINE
  5
14a
100
AcDbEntity
  8
Layer_1
 62
7
100
AcDbLine
 10
441.170031
 20
332.296819
 30
0.0
 11
489.044771
 21
333.933987
 31
0.0
  0
LINE
  5
14b
100
AcDbEntity
  8
Layer_1
 62
7
100
AcDbLine
 10
489.044771
 20
333.933987
 30
0.0
 11
487.754874
 21
370.398174
 31
0.0
  0
LINE
  5
14c
100
AcDbEntity
  8
Layer_1
 62
7
100
AcDbLine
 10
487.754874
 20
370.398174
 30
0.0
 11
476.989281
 21
370.050897
 31
0.0
  0
LINE
  5
14d
100
AcDbEntity
  8
Layer_1
 62
7
100
AcDbLine
 10
476.989281
 20
370.050897
 30
0.0
 11
466.174045
 21
369.753229
 31
0.0
  0
LINE
  5
14e
100
AcDbEntity
  8
Layer_1
 62
7
100
AcDbLine
 10
466.174045
 20
369.753229
 30
0.0
 11
455.408425
 21
369.554784
 31
0.0
  0
LINE
  5
14f
100
AcDbEntity
  8
Layer_1
 62
7
100
AcDbLine
 10
455.408425
 20
369.554784
 30
0.0
 11
444.593189
 21
369.455563
 31
0.0
  0
LINE
  5
150
100
AcDbEntity
  8
Layer_1
 62
7
100
AcDbLine
 10
444.593189
 20
369.455563
 30
0.0
 11
433.827568
 21
369.405951
 31
0.0
  0
LINE
  5
151
100
AcDbEntity
  8
Layer_1
 62
7
100
AcDbLine
 10
433.827568
 20
369.405951
 30
0.0
 11
423.061947
 21
369.455563
 31
0.0
  0
LINE
  5
152
100
AcDbEntity
  8
Layer_1
 62
7
100
AcDbLine
 10
423.061947
 20
369.455563
 30
0.0
 11
412.246740
 21
369.604396
 31
0.0
  0
LINE
  5
153
100
AcDbEntity
  8
Layer_1
 62
7
100
AcDbLine
 10
412.246740
 20
369.604396
 30
0.0
 11
401.481119
 21
369.802841
 31
0.0
  0
LINE
  5
154
100
AcDbEntity
  8
Layer_1
 62
7
100
AcDbLine
 10
401.481119
 20
369.802841
 30
0.0
 11
379.900262
 21
370.398174
 31
0.0
  0
LINE
  5
155
100
AcDbEntity
  8
Layer_1
 62
7
100
AcDbLine
 10
379.900262
 20
370.398174
 30
0.0
 11
358.319405
 21
371.142341
 31
0.0
  0
LINE
  5
156
100
AcDbEntity
  8
Layer_1
 62
7
100
AcDbLine
 10
358.319405
 20
371.142341
 30
0.0
 11
336.788192
 21
371.936119
 31
0.0
  0
LINE
  5
157
100
AcDbEntity
  8
Layer_1
 62
7
100
AcDbLine
 10
336.788192
 20
371.936119
 30
0.0
 11
326.022571
 21
372.382620
 31
0.0
  0
LINE
  5
158
100
AcDbEntity
  8
Layer_1
 62
7
100
AcDbLine
 10
326.022571
 20
372.382620
 30
0.0
 11
320.614967
 21
372.481841
 31
0.0
  0
LINE
  5
159
100
AcDbEntity
  8
Layer_1
 62
7
100
AcDbLine
 10
320.614967
 20
372.481841
 30
0.0
 11
315.207335
 21
372.481841
 31
0.0
  0
SPLINE
  5
15a
100
AcDbEntity
  8
Layer_1
 62
7
100
AcDbSpline
 70
8
 71
3
 72
8
 73
4
 74
0
 40
0
 40
0
 40
0
 40
0
 40
1
 40
1
 40
1
 40
1
 10
395.230122
 20
334.454904
 30
0.0
 10
395.230122
 20
334.797384
 30
0.0
 10
394.952444
 20
335.075042
 30
0.0
 10
394.609967
 20
335.075042
 30
0.0
  0
SPLINE
  5
15b
100
AcDbEntity
  8
Layer_1
 62
7
100
AcDbSpline
 70
8
 71
3
 72
8
 73
4
 74
0
 40
0
 40
0
 40
0
 40
0
 40
1
 40
1
 40
1
 40
1
 10
394.609967
 20
335.075042
 30
0.0
 10
394.267490
 20
335.075042
 30
0.0
 10
393.989840
 20
334.797384
 30
0.0
 10
393.989840
 20
334.454904
 30
0.0
  0
SPLINE
  5
15c
100
AcDbEntity
  8
Layer_1
 62
7
100
AcDbSpline
 70
8
 71
3
 72
8
 73
4
 74
0
 40
0
 40
0
 40
0
 40
0
 40
1
 40
1
 40
1
 40
1
 10
393.989840
 20
334.454904
 30
0.0
 10
393.989840
 20
334.112422
 30
0.0
 10
394.267490
 20
333.834763
 30
0.0
 10
394.609967
 20
333.834763
 30
0.0
  0
SPLINE
  5
15d
100
AcDbEntity
  8
Layer_1
 62
7
100
AcDbSpline
 70
8
 71
3
 72
8
 73
4
 74
0
 40
0
 40
0
 40
0
 40
0
 40
1
 40
1
 40
1
 40
1
 10
394.609967
 20
333.834763
 30
0.0
 10
394.952444
 20
333.834763
 30
0.0
 10
395.230122
 20
334.112422
 30
0.0
 10
395.230122
 20
334.454904
 30
0.0
  0
LINE
  5
15e
100
AcDbEntity
  8
Layer_1
 62
7
100
AcDbLine
 10
441.170031
 20
332.296819
 30
0.0
 11
438.242963
 21
324.805537
 31
0.0
  0
LINE
  5
15f
100
AcDbEntity
  8
Layer_1
 62
7
100
AcDbLine
 10
438.242963
 20
324.805537
 30
0.0
 11
435.415124
 21
317.215032
 31
0.0
  0
LINE
  5
160
100
AcDbEntity
  8
Layer_1
 62
7
100
AcDbLine
 10
435.415124
 20
317.215032
 30
0.0
 11
434.075641
 21
313.444585
 31
0.0
  0
LINE
  5
161
100
AcDbEntity
  8
Layer_1
 62
7
100
AcDbLine
 10
434.075641
 20
313.444585
 30
0.0
 11
432.785745
 21
309.624527
 31
0.0
  0
LINE
  5
162
100
AcDbEntity
  8
Layer_1
 62
7
100
AcDbLine
 10
432.785745
 20
309.624527
 30
0.0
 11
431.545463
 21
305.804471
 31
0.0
  0
LINE
  5
163
100
AcDbEntity
  8
Layer_1
 62
7
100
AcDbLine
 10
431.545463
 20
305.804471
 30
0.0
 11
430.354795
 21
301.934801
 31
0.0
  0
LINE
  5
164
100
AcDbEntity
  8
Layer_1
 62
7
100
AcDbLine
 10
430.354795
 20
301.934801
 30
0.0
 11
429.213742
 21
298.065133
 31
0.0
  0
LINE
  5
165
100
AcDbEntity
  8
Layer_1
 62
7
100
AcDbLine
 10
429.213742
 20
298.065133
 30
0.0
 11
428.122304
 21
294.195463
 31
0.0
  0
LINE
  5
166
100
AcDbEntity
  8
Layer_1
 62
7
100
AcDbLine
 10
428.122304
 20
294.195463
 30
0.0
 11
427.130068
 21
290.276183
 31
0.0
  0
LINE
  5
167
100
AcDbEntity
  8
Layer_1
 62
7
100
AcDbLine
 10
427.130068
 20
290.276183
 30
0.0
 11
426.137859
 21
286.356901
 31
0.0
  0
LINE
  5
168
100
AcDbEntity
  8
Layer_1
 62
7
100
AcDbLine
 10
426.137859
 20
286.356901
 30
0.0
 11
425.244851
 21
282.437622
 31
0.0
  0
LINE
  5
169
100
AcDbEntity
  8
Layer_1
 62
7
100
AcDbLine
 10
425.244851
 20
282.437622
 30
0.0
 11
424.401458
 21
278.518343
 31
0.0
  0
LINE
  5
16a
100
AcDbEntity
  8
Layer_1
 62
7
100
AcDbLine
 10
424.401458
 20
278.518343
 30
0.0
 11
423.607680
 21
274.549451
 31
0.0
  0
LINE
  5
16b
100
AcDbEntity
  8
Layer_1
 62
7
100
AcDbLine
 10
423.607680
 20
274.549451
 30
0.0
 11
422.913131
 21
270.580560
 31
0.0
  0
LINE
  5
16c
100
AcDbEntity
  8
Layer_1
 62
7
100
AcDbLine
 10
422.913131
 20
270.580560
 30
0.0
 11
422.268169
 21
266.611669
 31
0.0
  0
LINE
  5
16d
100
AcDbEntity
  8
Layer_1
 62
7
100
AcDbLine
 10
422.268169
 20
266.611669
 30
0.0
 11
421.672849
 21
262.642778
 31
0.0
  0
LINE
  5
16e
100
AcDbEntity
  8
Layer_1
 62
7
100
AcDbLine
 10
421.672849
 20
262.642778
 30
0.0
 11
421.176731
 21
258.624275
 31
0.0
  0
LINE
  5
16f
100
AcDbEntity
  8
Layer_1
 62
7
100
AcDbLine
 10
421.176731
 20
258.624275
 30
0.0
 11
420.730227
 21
254.605772
 31
0.0
  0
LINE
  5
170
100
AcDbEntity
  8
Layer_1
 62
7
100
AcDbLine
 10
420.730227
 20
254.605772
 30
0.0
 11
420.333338
 21
250.587271
 31
0.0
  0
LINE
  5
171
100
AcDbEntity
  8
Layer_1
 62
7
100
AcDbLine
 10
420.333338
 20
250.587271
 30
0.0
 11
420.035678
 21
246.568768
 31
0.0
  0
LINE
  5
172
100
AcDbEntity
  8
Layer_1
 62
7
100
AcDbLine
 10
420.035678
 20
246.568768
 30
0.0
 11
419.738018
 21
242.550265
 31
0.0
  0
LINE
  5
173
100
AcDbEntity
  8
Layer_1
 62
7
100
AcDbLine
 10
419.738018
 20
242.550265
 30
0.0
 11
419.539560
 21
238.531762
 31
0.0
  0
LINE
  5
174
100
AcDbEntity
  8
Layer_1
 62
7
100
AcDbLine
 10
419.539560
 20
238.531762
 30
0.0
 11
419.390744
 21
234.513262
 31
0.0
  0
LINE
  5
175
100
AcDbEntity
  8
Layer_1
 62
7
100
AcDbLine
 10
419.390744
 20
234.513262
 30
0.0
 11
419.291514
 21
230.445147
 31
0.0
  0
LINE
  5
176
100
AcDbEntity
  8
Layer_1
 62
7
100
AcDbLine
 10
419.291514
 20
230.445147
 30
0.0
 11
419.241900
 21
226.426644
 31
0.0
  0
LINE
  5
177
100
AcDbEntity
  8
Layer_1
 62
7
100
AcDbLine
 10
419.241900
 20
226.426644
 30
0.0
 11
419.291514
 21
222.408144
 31
0.0
  0
LINE
  5
178
100
AcDbEntity
  8
Layer_1
 62
7
100
AcDbLine
 10
419.291514
 20
222.408144
 30
0.0
 11
419.440358
 21
214.321534
 31
0.0
  0
LINE
  5
179
100
AcDbEntity
  8
Layer_1
 62
7
100
AcDbLine
 10
419.440358
 20
214.321534
 30
0.0
 11
419.787633
 21
206.234908
 31
0.0
  0
LINE
  5
17a
100
AcDbEntity
  8
Layer_1
 62
7
100
AcDbLine
 10
419.787633
 20
206.234908
 30
0.0
 11
420.283723
 21
198.197896
 31
0.0
  0
LINE
  5
17b
100
AcDbEntity
  8
Layer_1
 62
7
100
AcDbLine
 10
420.283723
 20
198.197896
 30
0.0
 11
420.978300
 21
190.111298
 31
0.0
  0
LINE
  5
17c
100
AcDbEntity
  8
Layer_1
 62
7
100
AcDbLine
 10
420.978300
 20
190.111298
 30
0.0
 11
421.821693
 21
182.123901
 31
0.0
  0
LINE
  5
17d
100
AcDbEntity
  8
Layer_1
 62
7
100
AcDbLine
 10
421.821693
 20
182.123901
 30
0.0
 11
422.813902
 21
174.136503
 31
0.0
  0
LINE
  5
17e
100
AcDbEntity
  8
Layer_1
 62
7
100
AcDbLine
 10
422.813902
 20
174.136503
 30
0.0
 11
423.905340
 21
166.149106
 31
0.0
  0
LINE
  5
17f
100
AcDbEntity
  8
Layer_1
 62
7
100
AcDbLine
 10
423.905340
 20
166.149106
 30
0.0
 11
425.145622
 21
158.161709
 31
0.0
  0
LINE
  5
180
100
AcDbEntity
  8
Layer_1
 62
7
100
AcDbLine
 10
425.145622
 20
158.161709
 30
0.0
 11
426.534748
 21
150.223927
 31
0.0
  0
LINE
  5
181
100
AcDbEntity
  8
Layer_1
 62
7
100
AcDbLine
 10
426.534748
 20
150.223927
 30
0.0
 11
428.023075
 21
142.335759
 31
0.0
  0
LINE
  5
182
100
AcDbEntity
  8
Layer_1
 62
7
100
AcDbLine
 10
428.023075
 20
142.335759
 30
0.0
 11
429.561017
 21
134.447591
 31
0.0
  0
LINE
  5
183
100
AcDbEntity
  8
Layer_1
 62
7
100
AcDbLine
 10
429.561017
 20
134.447591
 30
0.0
 11
431.247803
 21
126.559423
 31
0.0
  0
LINE
  5
184
100
AcDbEntity
  8
Layer_1
 62
7
100
AcDbLine
 10
431.247803
 20
126.559423
 30
0.0
 11
433.033790
 21
118.671256
 31
0.0
  0
LINE
  5
185
100
AcDbEntity
  8
Layer_1
 62
7
100
AcDbLine
 10
433.033790
 20
118.671256
 30
0.0
 11
434.819805
 21
110.832674
 31
0.0
  0
LINE
  5
186
100
AcDbEntity
  8
Layer_1
 62
7
100
AcDbLine
 10
434.819805
 20
110.832674
 30
0.0
 11
438.639852
 21
95.205183
 31
0.0
  0
LINE
  5
187
100
AcDbEntity
  8
Layer_1
 62
7
100
AcDbLine
 10
438.639852
 20
95.205183
 30
0.0
 11
442.559129
 21
79.577663
 31
0.0
  0
LINE
  5
188
100
AcDbEntity
  8
Layer_1
 62
7
100
AcDbLine
 10
442.559129
 20
79.577663
 30
0.0
 11
426.633949
 21
79.776122
 31
0.0
  0
LINE
  5
189
100
AcDbEntity
  8
Layer_1
 62
7
100
AcDbLine
 10
426.633949
 20
79.776122
 30
0.0
 11
410.708798
 21
80.073782
 31
0.0
  0
LINE
  5
18a
100
AcDbEntity
  8
Layer_1
 62
7
100
AcDbLine
 10
410.708798
 20
80.073782
 30
0.0
 11
394.783618
 21
80.470671
 31
0.0
  0
LINE
  5
18b
100
AcDbEntity
  8
Layer_1
 62
7
100
AcDbLine
 10
394.783618
 20
80.470671
 30
0.0
 11
386.845836
 21
80.619515
 31
0.0
  0
LINE
  5
18c
100
AcDbEntity
  8
Layer_1
 62
7
100
AcDbLine
 10
386.845836
 20
80.619515
 30
0.0
 11
378.908053
 21
80.669101
 31
0.0
  0
LINE
  5
18d
100
AcDbEntity
  8
Layer_1
 62
7
100
AcDbLine
 10
378.908053
 20
80.669101
 30
0.0
 11
370.920656
 21
80.768330
 31
0.0
  0
LINE
  5
18e
100
AcDbEntity
  8
Layer_1
 62
7
100
AcDbLine
 10
370.920656
 20
80.768330
 30
0.0
 11
362.982874
 21
81.065990
 31
0.0
  0
LINE
  5
18f
100
AcDbEntity
  8
Layer_1
 62
7
100
AcDbLine
 10
362.982874
 20
81.065990
 30
0.0
 11
354.995477
 21
81.413293
 31
0.0
  0
LINE
  5
190
100
AcDbEntity
  8
Layer_1
 62
7
100
AcDbLine
 10
354.995477
 20
81.413293
 30
0.0
 11
347.057694
 21
81.710953
 31
0.0
  0
LINE
  5
191
100
AcDbEntity
  8
Layer_1
 62
7
100
AcDbLine
 10
347.057694
 20
81.710953
 30
0.0
 11
331.132515
 21
82.157456
 31
0.0
  0
LINE
  5
192
100
AcDbEntity
  8
Layer_1
 62
7
100
AcDbLine
 10
331.132515
 20
82.157456
 30
0.0
 11
323.194732
 21
82.256658
 31
0.0
  0
LINE
  5
193
100
AcDbEntity
  8
Layer_1
 62
7
100
AcDbLine
 10
323.194732
 20
82.256658
 30
0.0
 11
315.207335
 21
82.306272
 31
0.0
  0
LINE
  5
194
100
AcDbEntity
  8
Layer_1
 62
7
100
AcDbLine
 10
199.953497
 20
16.685745
 30
0.0
 11
206.888834
 21
26.863024
 31
0.0
  0
LINE
  5
195
100
AcDbEntity
  8
Layer_1
 62
7
100
AcDbLine
 10
172.671982
 20
317.393630
 30
0.0
 11
163.567277
 21
325.689949
 31
0.0
  0
LINE
  5
196
100
AcDbEntity
  8
Layer_1
 62
7
100
AcDbLine
 10
206.888834
 20
26.863024
 30
0.0
 11
202.593114
 21
29.741989
 31
0.0
  0
LINE
  5
197
100
AcDbEntity
  8
Layer_1
 62
7
100
AcDbLine
 10
202.593114
 20
29.741989
 30
0.0
 11
198.384280
 21
32.689894
 31
0.0
  0
LINE
  5
198
100
AcDbEntity
  8
Layer_1
 62
7
100
AcDbLine
 10
198.384280
 20
32.689894
 30
0.0
 11
194.196426
 21
35.682791
 31
0.0
  0
LINE
  5
199
100
AcDbEntity
  8
Layer_1
 62
7
100
AcDbLine
 10
194.196426
 20
35.682791
 30
0.0
 11
190.113403
 21
38.900492
 31
0.0
  0
LINE
  5
19a
100
AcDbEntity
  8
Layer_1
 62
7
100
AcDbLine
 10
190.113403
 20
38.900492
 30
0.0
 11
186.162240
 21
42.166193
 31
0.0
  0
LINE
  5
19b
100
AcDbEntity
  8
Layer_1
 62
7
100
AcDbLine
 10
186.162240
 20
42.166193
 30
0.0
 11
182.294938
 21
45.611733
 31
0.0
  0
LINE
  5
19c
100
AcDbEntity
  8
Layer_1
 62
7
100
AcDbLine
 10
182.294938
 20
45.611733
 30
0.0
 11
178.535504
 21
49.171204
 31
0.0
  0
LINE
  5
19d
100
AcDbEntity
  8
Layer_1
 62
7
100
AcDbLine
 10
178.535504
 20
49.171204
 30
0.0
 11
174.928886
 21
52.823616
 31
0.0
  0
LINE
  5
19e
100
AcDbEntity
  8
Layer_1
 62
7
100
AcDbLine
 10
174.928886
 20
52.823616
 30
0.0
 11
171.364217
 21
56.565986
 31
0.0
  0
LINE
  5
19f
100
AcDbEntity
  8
Layer_1
 62
7
100
AcDbLine
 10
171.364217
 20
56.565986
 30
0.0
 11
167.973323
 21
60.446236
 31
0.0
  0
LINE
  5
1a0
100
AcDbEntity
  8
Layer_1
 62
7
100
AcDbLine
 10
167.973323
 20
60.446236
 30
0.0
 11
164.624378
 21
64.416443
 31
0.0
  0
LINE
  5
1a1
100
AcDbEntity
  8
Layer_1
 62
7
100
AcDbLine
 10
164.624378
 20
64.416443
 30
0.0
 11
161.473212
 21
68.458624
 31
0.0
  0
LINE
  5
1a2
100
AcDbEntity
  8
Layer_1
 62
7
100
AcDbLine
 10
161.473212
 20
68.458624
 30
0.0
 11
158.363983
 21
72.590737
 31
0.0
  0
LINE
  5
1a3
100
AcDbEntity
  8
Layer_1
 62
7
100
AcDbLine
 10
158.363983
 20
72.590737
 30
0.0
 11
155.428539
 21
76.860757
 31
0.0
  0
LINE
  5
1a4
100
AcDbEntity
  8
Layer_1
 62
7
100
AcDbLine
 10
155.428539
 20
76.860757
 30
0.0
 11
152.624959
 21
81.178775
 31
0.0
  0
LINE
  5
1a5
100
AcDbEntity
  8
Layer_1
 62
7
100
AcDbLine
 10
152.624959
 20
81.178775
 30
0.0
 11
149.908278
 21
85.565759
 31
0.0
  0
LINE
  5
1a6
100
AcDbEntity
  8
Layer_1
 62
7
100
AcDbLine
 10
149.908278
 20
85.565759
 30
0.0
 11
147.410357
 21
90.069708
 31
0.0
  0
LINE
  5
1a7
100
AcDbEntity
  8
Layer_1
 62
7
100
AcDbLine
 10
147.410357
 20
90.069708
 30
0.0
 11
144.978356
 21
94.597631
 31
0.0
  0
LINE
  5
1a8
100
AcDbEntity
  8
Layer_1
 62
7
100
AcDbLine
 10
144.978356
 20
94.597631
 30
0.0
 11
142.675189
 21
99.284453
 31
0.0
  0
LINE
  5
1a9
100
AcDbEntity
  8
Layer_1
 62
7
100
AcDbLine
 10
142.675189
 20
99.284453
 30
0.0
 11
140.527869
 21
103.953314
 31
0.0
  0
LINE
  5
1aa
100
AcDbEntity
  8
Layer_1
 62
7
100
AcDbLine
 10
140.527869
 20
103.953314
 30
0.0
 11
138.533377
 21
108.715141
 31
0.0
  0
LINE
  5
1ab
100
AcDbEntity
  8
Layer_1
 62
7
100
AcDbLine
 10
138.533377
 20
108.715141
 30
0.0
 11
136.649793
 21
113.480027
 31
0.0
  0
LINE
  5
1ac
100
AcDbEntity
  8
Layer_1
 62
7
100
AcDbLine
 10
136.649793
 20
113.480027
 30
0.0
 11
134.919014
 21
118.337827
 31
0.0
  0
LINE
  5
1ad
100
AcDbEntity
  8
Layer_1
 62
7
100
AcDbLine
 10
134.919014
 20
118.337827
 30
0.0
 11
133.320109
 21
123.243652
 31
0.0
  0
LINE
  5
1ae
100
AcDbEntity
  8
Layer_1
 62
7
100
AcDbLine
 10
133.320109
 20
123.243652
 30
0.0
 11
131.853054
 21
128.197451
 31
0.0
  0
LINE
  5
1af
100
AcDbEntity
  8
Layer_1
 62
7
100
AcDbLine
 10
131.853054
 20
128.197451
 30
0.0
 11
130.517862
 21
133.199248
 31
0.0
  0
LINE
  5
1b0
100
AcDbEntity
  8
Layer_1
 62
7
100
AcDbLine
 10
130.517862
 20
133.199248
 30
0.0
 11
129.293563
 21
138.204079
 31
0.0
  0
LINE
  5
1b1
100
AcDbEntity
  8
Layer_1
 62
7
100
AcDbLine
 10
129.293563
 20
138.204079
 30
0.0
 11
128.267057
 21
143.280908
 31
0.0
  0
LINE
  5
1b2
100
AcDbEntity
  8
Layer_1
 62
7
100
AcDbLine
 10
128.267057
 20
143.280908
 30
0.0
 11
127.351434
 21
148.360745
 31
0.0
  0
LINE
  5
1b3
100
AcDbEntity
  8
Layer_1
 62
7
100
AcDbLine
 10
127.351434
 20
148.360745
 30
0.0
 11
126.546704
 21
153.443615
 31
0.0
  0
LINE
  5
1b4
100
AcDbEntity
  8
Layer_1
 62
7
100
AcDbLine
 10
126.546704
 20
153.443615
 30
0.0
 11
125.873837
 21
158.574484
 31
0.0
  0
LINE
  5
1b5
100
AcDbEntity
  8
Layer_1
 62
7
100
AcDbLine
 10
125.873837
 20
158.574484
 30
0.0
 11
125.356826
 21
163.687419
 31
0.0
  0
LINE
  5
1b6
100
AcDbEntity
  8
Layer_1
 62
7
100
AcDbLine
 10
125.356826
 20
163.687419
 30
0.0
 11
124.971678
 21
168.848354
 31
0.0
  0
LINE
  5
1b7
100
AcDbEntity
  8
Layer_1
 62
7
100
AcDbLine
 10
124.971678
 20
168.848354
 30
0.0
 11
124.676444
 21
173.967329
 31
0.0
  0
LINE
  5
1b8
100
AcDbEntity
  8
Layer_1
 62
7
100
AcDbLine
 10
124.676444
 20
173.967329
 30
0.0
 11
124.558046
 21
179.113363
 31
0.0
  0
LINE
  5
1b9
100
AcDbEntity
  8
Layer_1
 62
7
100
AcDbLine
 10
124.558046
 20
179.113363
 30
0.0
 11
124.505568
 21
184.283371
 31
0.0
  0
LINE
  5
1ba
100
AcDbEntity
  8
Layer_1
 62
7
100
AcDbLine
 10
124.505568
 20
184.283371
 30
0.0
 11
124.608946
 21
189.435446
 31
0.0
  0
LINE
  5
1bb
100
AcDbEntity
  8
Layer_1
 62
7
100
AcDbLine
 10
124.608946
 20
189.435446
 30
0.0
 11
124.889150
 21
194.614553
 31
0.0
  0
LINE
  5
1bc
100
AcDbEntity
  8
Layer_1
 62
7
100
AcDbLine
 10
124.889150
 20
194.614553
 30
0.0
 11
125.214317
 21
199.772693
 31
0.0
  0
LINE
  5
1bd
100
AcDbEntity
  8
Layer_1
 62
7
100
AcDbLine
 10
125.214317
 20
199.772693
 30
0.0
 11
125.695340
 21
204.912900
 31
0.0
  0
LINE
  5
1be
100
AcDbEntity
  8
Layer_1
 62
7
100
AcDbLine
 10
125.695340
 20
204.912900
 30
0.0
 11
126.311241
 21
209.990182
 31
0.0
  0
LINE
  5
1bf
100
AcDbEntity
  8
Layer_1
 62
7
100
AcDbLine
 10
126.311241
 20
209.990182
 30
0.0
 11
127.014051
 21
215.136455
 31
0.0
  0
LINE
  5
1c0
100
AcDbEntity
  8
Layer_1
 62
7
100
AcDbLine
 10
127.014051
 20
215.136455
 30
0.0
 11
127.851739
 21
220.219803
 31
0.0
  0
LINE
  5
1c1
100
AcDbEntity
  8
Layer_1
 62
7
100
AcDbLine
 10
127.851739
 20
220.219803
 30
0.0
 11
128.824330
 21
225.240276
 31
0.0
  0
LINE
  5
1c2
100
AcDbEntity
  8
Layer_1
 62
7
100
AcDbLine
 10
128.824330
 20
225.240276
 30
0.0
 11
129.883807
 21
230.329689
 31
0.0
  0
LINE
  5
1c3
100
AcDbEntity
  8
Layer_1
 62
7
100
AcDbLine
 10
129.883807
 20
230.329689
 30
0.0
 11
131.078172
 21
235.356204
 31
0.0
  0
LINE
  5
1c4
100
AcDbEntity
  8
Layer_1
 62
7
100
AcDbLine
 10
131.078172
 20
235.356204
 30
0.0
 11
132.407439
 21
240.319843
 31
0.0
  0
LINE
  5
1c5
100
AcDbEntity
  8
Layer_1
 62
7
100
AcDbLine
 10
132.407439
 20
240.319843
 30
0.0
 11
133.847587
 21
245.286490
 31
0.0
  0
LINE
  5
1c6
100
AcDbEntity
  8
Layer_1
 62
7
100
AcDbLine
 10
133.847587
 20
245.286490
 30
0.0
 11
135.377660
 21
250.211205
 31
0.0
  0
LINE
  5
1c7
100
AcDbEntity
  8
Layer_1
 62
7
100
AcDbLine
 10
135.377660
 20
250.211205
 30
0.0
 11
137.042624
 21
255.073019
 31
0.0
  0
LINE
  5
1c8
100
AcDbEntity
  8
Layer_1
 62
7
100
AcDbLine
 10
137.042624
 20
255.073019
 30
0.0
 11
138.818480
 21
259.937867
 31
0.0
  0
LINE
  5
1c9
100
AcDbEntity
  8
Layer_1
 62
7
100
AcDbLine
 10
138.818480
 20
259.937867
 30
0.0
 11
140.708259
 21
264.694848
 31
0.0
  0
LINE
  5
1ca
100
AcDbEntity
  8
Layer_1
 62
7
100
AcDbLine
 10
140.708259
 20
264.694848
 30
0.0
 11
142.753892
 21
269.433896
 31
0.0
  0
LINE
  5
1cb
100
AcDbEntity
  8
Layer_1
 62
7
100
AcDbLine
 10
142.753892
 20
269.433896
 30
0.0
 11
144.889452
 21
274.131011
 31
0.0
  0
LINE
  5
1cc
100
AcDbEntity
  8
Layer_1
 62
7
100
AcDbLine
 10
144.889452
 20
274.131011
 30
0.0
 11
147.159903
 21
278.765226
 31
0.0
  0
LINE
  5
1cd
100
AcDbEntity
  8
Layer_1
 62
7
100
AcDbLine
 10
147.159903
 20
278.765226
 30
0.0
 11
149.520279
 21
283.357508
 31
0.0
  0
LINE
  5
1ce
100
AcDbEntity
  8
Layer_1
 62
7
100
AcDbLine
 10
149.520279
 20
283.357508
 30
0.0
 11
152.015543
 21
287.886890
 31
0.0
  0
LINE
  5
1cf
100
AcDbEntity
  8
Layer_1
 62
7
100
AcDbLine
 10
152.015543
 20
287.886890
 30
0.0
 11
154.579766
 21
292.329373
 31
0.0
  0
LINE
  5
1d0
100
AcDbEntity
  8
Layer_1
 62
7
100
AcDbLine
 10
154.579766
 20
292.329373
 30
0.0
 11
157.299845
 21
296.753922
 31
0.0
  0
LINE
  5
1d1
100
AcDbEntity
  8
Layer_1
 62
7
100
AcDbLine
 10
157.299845
 20
296.753922
 30
0.0
 11
160.157840
 21
301.004673
 31
0.0
  0
LINE
  5
1d2
100
AcDbEntity
  8
Layer_1
 62
7
100
AcDbLine
 10
160.157840
 20
301.004673
 30
0.0
 11
163.126740
 21
305.258483
 31
0.0
  0
LINE
  5
1d3
100
AcDbEntity
  8
Layer_1
 62
7
100
AcDbLine
 10
163.126740
 20
305.258483
 30
0.0
 11
166.233546
 21
309.338467
 31
0.0
  0
LINE
  5
1d4
100
AcDbEntity
  8
Layer_1
 62
7
100
AcDbLine
 10
166.233546
 20
309.338467
 30
0.0
 11
169.430276
 21
313.376519
 31
0.0
  0
LINE
  5
1d5
100
AcDbEntity
  8
Layer_1
 62
7
100
AcDbLine
 10
169.430276
 20
313.376519
 30
0.0
 11
172.671982
 21
317.393630
 31
0.0
  0
LINE
  5
1d6
100
AcDbEntity
  8
Layer_1
 62
7
100
AcDbLine
 10
199.953497
 20
16.685745
 30
0.0
 11
195.429935
 21
19.780442
 31
0.0
  0
LINE
  5
1d7
100
AcDbEntity
  8
Layer_1
 62
7
100
AcDbLine
 10
195.429935
 20
19.780442
 30
0.0
 11
190.927340
 21
22.920105
 31
0.0
  0
LINE
  5
1d8
100
AcDbEntity
  8
Layer_1
 62
7
100
AcDbLine
 10
190.927340
 20
22.920105
 30
0.0
 11
186.466673
 21
26.149673
 31
0.0
  0
LINE
  5
1d9
100
AcDbEntity
  8
Layer_1
 62
7
100
AcDbLine
 10
186.466673
 20
26.149673
 30
0.0
 11
182.113871
 21
29.493174
 31
0.0
  0
LINE
  5
1da
100
AcDbEntity
  8
Layer_1
 62
7
100
AcDbLine
 10
182.113871
 20
29.493174
 30
0.0
 11
177.955821
 21
33.019548
 31
0.0
  0
LINE
  5
1db
100
AcDbEntity
  8
Layer_1
 62
7
100
AcDbLine
 10
177.955821
 20
33.019548
 30
0.0
 11
173.839720
 21
36.635880
 31
0.0
  0
LINE
  5
1dc
100
AcDbEntity
  8
Layer_1
 62
7
100
AcDbLine
 10
173.839720
 20
36.635880
 30
0.0
 11
169.852434
 21
40.411057
 31
0.0
  0
LINE
  5
1dd
100
AcDbEntity
  8
Layer_1
 62
7
100
AcDbLine
 10
169.852434
 20
40.411057
 30
0.0
 11
165.973012
 21
44.300167
 31
0.0
  0
LINE
  5
1de
100
AcDbEntity
  8
Layer_1
 62
7
100
AcDbLine
 10
165.973012
 20
44.300167
 30
0.0
 11
162.201459
 21
48.303208
 31
0.0
  0
LINE
  5
1df
100
AcDbEntity
  8
Layer_1
 62
7
100
AcDbLine
 10
162.201459
 20
48.303208
 30
0.0
 11
158.537770
 21
52.420183
 31
0.0
  0
LINE
  5
1e0
100
AcDbEntity
  8
Layer_1
 62
7
100
AcDbLine
 10
158.537770
 20
52.420183
 30
0.0
 11
155.026901
 21
56.630096
 31
0.0
  0
LINE
  5
1e1
100
AcDbEntity
  8
Layer_1
 62
7
100
AcDbLine
 10
155.026901
 20
56.630096
 30
0.0
 11
151.668861
 21
60.932976
 31
0.0
  0
LINE
  5
1e2
100
AcDbEntity
  8
Layer_1
 62
7
100
AcDbLine
 10
151.668861
 20
60.932976
 30
0.0
 11
148.352748
 21
65.325761
 31
0.0
  0
LINE
  5
1e3
100
AcDbEntity
  8
Layer_1
 62
7
100
AcDbLine
 10
148.352748
 20
65.325761
 30
0.0
 11
145.255395
 21
69.835511
 31
0.0
  0
LINE
  5
1e4
100
AcDbEntity
  8
Layer_1
 62
7
100
AcDbLine
 10
145.255395
 20
69.835511
 30
0.0
 11
142.265908
 21
74.459194
 31
0.0
  0
LINE
  5
1e5
100
AcDbEntity
  8
Layer_1
 62
7
100
AcDbLine
 10
142.265908
 20
74.459194
 30
0.0
 11
139.408272
 21
79.130850
 31
0.0
  0
LINE
  5
1e6
100
AcDbEntity
  8
Layer_1
 62
7
100
AcDbLine
 10
139.408272
 20
79.130850
 30
0.0
 11
136.703467
 21
83.895471
 31
0.0
  0
LINE
  5
1e7
100
AcDbEntity
  8
Layer_1
 62
7
100
AcDbLine
 10
136.703467
 20
83.895471
 30
0.0
 11
134.151491
 21
88.753057
 31
0.0
  0
LINE
  5
1e8
100
AcDbEntity
  8
Layer_1
 62
7
100
AcDbLine
 10
134.151491
 20
88.753057
 30
0.0
 11
131.686402
 21
93.679584
 31
0.0
  0
LINE
  5
1e9
100
AcDbEntity
  8
Layer_1
 62
7
100
AcDbLine
 10
131.686402
 20
93.679584
 30
0.0
 11
129.419106
 21
98.678110
 31
0.0
  0
LINE
  5
1ea
100
AcDbEntity
  8
Layer_1
 62
7
100
AcDbLine
 10
129.419106
 20
98.678110
 30
0.0
 11
127.283673
 21
103.724635
 31
0.0
  0
LINE
  5
1eb
100
AcDbEntity
  8
Layer_1
 62
7
100
AcDbLine
 10
127.283673
 20
103.724635
 30
0.0
 11
125.280089
 21
108.819133
 31
0.0
  0
LINE
  5
1ec
100
AcDbEntity
  8
Layer_1
 62
7
100
AcDbLine
 10
125.280089
 20
108.819133
 30
0.0
 11
123.429348
 21
114.006622
 31
0.0
  0
LINE
  5
1ed
100
AcDbEntity
  8
Layer_1
 62
7
100
AcDbLine
 10
123.429348
 20
114.006622
 30
0.0
 11
121.755407
 21
119.221093
 31
0.0
  0
LINE
  5
1ee
100
AcDbEntity
  8
Layer_1
 62
7
100
AcDbLine
 10
121.755407
 20
119.221093
 30
0.0
 11
120.147410
 21
124.459589
 31
0.0
  0
LINE
  5
1ef
100
AcDbEntity
  8
Layer_1
 62
7
100
AcDbLine
 10
120.147410
 20
124.459589
 30
0.0
 11
118.737206
 21
129.770084
 31
0.0
  0
LINE
  5
1f0
100
AcDbEntity
  8
Layer_1
 62
7
100
AcDbLine
 10
118.737206
 20
129.770084
 30
0.0
 11
117.503815
 21
135.107585
 31
0.0
  0
LINE
  5
1f1
100
AcDbEntity
  8
Layer_1
 62
7
100
AcDbLine
 10
117.503815
 20
135.107585
 30
0.0
 11
116.336355
 21
140.469087
 31
0.0
  0
LINE
  5
1f2
100
AcDbEntity
  8
Layer_1
 62
7
100
AcDbLine
 10
116.336355
 20
140.469087
 30
0.0
 11
115.366676
 21
145.902561
 31
0.0
  0
LINE
  5
1f3
100
AcDbEntity
  8
Layer_1
 62
7
100
AcDbLine
 10
115.366676
 20
145.902561
 30
0.0
 11
114.531898
 21
151.273161
 31
0.0
  0
LINE
  5
1f4
100
AcDbEntity
  8
Layer_1
 62
7
100
AcDbLine
 10
114.531898
 20
151.273161
 30
0.0
 11
113.849938
 21
156.736702
 31
0.0
  0
LINE
  5
1f5
100
AcDbEntity
  8
Layer_1
 62
7
100
AcDbLine
 10
113.849938
 20
156.736702
 30
0.0
 11
113.278872
 21
162.203275
 31
0.0
  0
LINE
  5
1f6
100
AcDbEntity
  8
Layer_1
 62
7
100
AcDbLine
 10
113.278872
 20
162.203275
 30
0.0
 11
112.863663
 21
167.651914
 31
0.0
  0
LINE
  5
1f7
100
AcDbEntity
  8
Layer_1
 62
7
100
AcDbLine
 10
112.863663
 20
167.651914
 30
0.0
 11
112.580317
 21
173.148553
 31
0.0
  0
LINE
  5
1f8
100
AcDbEntity
  8
Layer_1
 62
7
100
AcDbLine
 10
112.580317
 20
173.148553
 30
0.0
 11
112.407865
 21
178.648224
 31
0.0
  0
LINE
  5
1f9
100
AcDbEntity
  8
Layer_1
 62
7
100
AcDbLine
 10
112.407865
 20
178.648224
 30
0.0
 11
112.391255
 21
184.129937
 31
0.0
  0
LINE
  5
1fa
100
AcDbEntity
  8
Layer_1
 62
7
100
AcDbLine
 10
112.391255
 20
184.129937
 30
0.0
 11
112.530516
 21
189.593742
 31
0.0
  0
LINE
  5
1fb
100
AcDbEntity
  8
Layer_1
 62
7
100
AcDbLine
 10
112.530516
 20
189.593742
 30
0.0
 11
112.735697
 21
195.081520
 31
0.0
  0
LINE
  5
1fc
100
AcDbEntity
  8
Layer_1
 62
7
100
AcDbLine
 10
112.735697
 20
195.081520
 30
0.0
 11
113.141698
 21
200.530398
 31
0.0
  0
LINE
  5
1fd
100
AcDbEntity
  8
Layer_1
 62
7
100
AcDbLine
 10
113.141698
 20
200.530398
 30
0.0
 11
113.613628
 21
206.003277
 31
0.0
  0
LINE
  5
1fe
100
AcDbEntity
  8
Layer_1
 62
7
100
AcDbLine
 10
113.613628
 20
206.003277
 30
0.0
 11
114.286380
 21
211.437254
 31
0.0
  0
LINE
  5
1ff
100
AcDbEntity
  8
Layer_1
 62
7
100
AcDbLine
 10
114.286380
 20
211.437254
 30
0.0
 11
115.025061
 21
216.895232
 31
0.0
  0
LINE
  5
200
100
AcDbEntity
  8
Layer_1
 62
7
100
AcDbLine
 10
115.025061
 20
216.895232
 30
0.0
 11
115.898619
 21
222.290285
 31
0.0
  0
LINE
  5
201
100
AcDbEntity
  8
Layer_1
 62
7
100
AcDbLine
 10
115.898619
 20
222.290285
 30
0.0
 11
116.949016
 21
227.712395
 31
0.0
  0
LINE
  5
202
100
AcDbEntity
  8
Layer_1
 62
7
100
AcDbLine
 10
116.949016
 20
227.712395
 30
0.0
 11
118.068359
 21
233.047580
 31
0.0
  0
LINE
  5
203
100
AcDbEntity
  8
Layer_1
 62
7
100
AcDbLine
 10
118.068359
 20
233.047580
 30
0.0
 11
119.364537
 21
238.409824
 31
0.0
  0
LINE
  5
204
100
AcDbEntity
  8
Layer_1
 62
7
100
AcDbLine
 10
119.364537
 20
238.409824
 30
0.0
 11
120.729662
 21
243.685143
 31
0.0
  0
LINE
  5
205
100
AcDbEntity
  8
Layer_1
 62
7
100
AcDbLine
 10
120.729662
 20
243.685143
 30
0.0
 11
122.271623
 21
248.987520
 31
0.0
  0
LINE
  5
206
100
AcDbEntity
  8
Layer_1
 62
7
100
AcDbLine
 10
122.271623
 20
248.987520
 30
0.0
 11
123.927495
 21
254.182005
 31
0.0
  0
LINE
  5
207
100
AcDbEntity
  8
Layer_1
 62
7
100
AcDbLine
 10
123.927495
 20
254.182005
 30
0.0
 11
125.694259
 21
259.379523
 31
0.0
  0
LINE
  5
208
100
AcDbEntity
  8
Layer_1
 62
7
100
AcDbLine
 10
125.694259
 20
259.379523
 30
0.0
 11
127.595912
 21
264.514142
 31
0.0
  0
LINE
  5
209
100
AcDbEntity
  8
Layer_1
 62
7
100
AcDbLine
 10
127.595912
 20
264.514142
 30
0.0
 11
129.608472
 21
269.651819
 31
0.0
  0
LINE
  5
20a
100
AcDbEntity
  8
Layer_1
 62
7
100
AcDbLine
 10
129.608472
 20
269.651819
 30
0.0
 11
131.734941
 21
274.681605
 31
0.0
  0
LINE
  5
20b
100
AcDbEntity
  8
Layer_1
 62
7
100
AcDbLine
 10
131.734941
 20
274.681605
 30
0.0
 11
134.017265
 21
279.693458
 31
0.0
  0
LINE
  5
20c
100
AcDbEntity
  8
Layer_1
 62
7
100
AcDbLine
 10
134.017265
 20
279.693458
 30
0.0
 11
136.413513
 21
284.597444
 31
0.0
  0
LINE
  5
20d
100
AcDbEntity
  8
Layer_1
 62
7
100
AcDbLine
 10
136.413513
 20
284.597444
 30
0.0
 11
138.965614
 21
289.483498
 31
0.0
  0
LINE
  5
20e
100
AcDbEntity
  8
Layer_1
 62
7
100
AcDbLine
 10
138.965614
 20
289.483498
 30
0.0
 11
141.586674
 21
294.282652
 31
0.0
  0
LINE
  5
20f
100
AcDbEntity
  8
Layer_1
 62
7
100
AcDbLine
 10
141.586674
 20
294.282652
 30
0.0
 11
144.387601
 21
298.997963
 31
0.0
  0
LINE
  5
210
100
AcDbEntity
  8
Layer_1
 62
7
100
AcDbLine
 10
144.387601
 20
298.997963
 30
0.0
 11
147.278440
 21
303.671317
 31
0.0
  0
LINE
  5
211
100
AcDbEntity
  8
Layer_1
 62
7
100
AcDbLine
 10
147.278440
 20
303.671317
 30
0.0
 11
150.283200
 21
308.236806
 31
0.0
  0
LINE
  5
212
100
AcDbEntity
  8
Layer_1
 62
7
100
AcDbLine
 10
150.283200
 20
308.236806
 30
0.0
 11
153.422859
 21
312.739420
 31
0.0
  0
LINE
  5
213
100
AcDbEntity
  8
Layer_1
 62
7
100
AcDbLine
 10
153.422859
 20
312.739420
 30
0.0
 11
156.676427
 21
317.134143
 31
0.0
  0
LINE
  5
214
100
AcDbEntity
  8
Layer_1
 62
7
100
AcDbLine
 10
156.676427
 20
317.134143
 30
0.0
 11
160.064898
 21
321.465991
 31
0.0
  0
LINE
  5
215
100
AcDbEntity
  8
Layer_1
 62
7
100
AcDbLine
 10
160.064898
 20
321.465991
 30
0.0
 11
163.567277
 21
325.689949
 31
0.0
  0
LINE
  5
216
100
AcDbEntity
  8
Layer_1
 62
7
100
AcDbLine
 10
74.471428
 20
39.734881
 30
0.0
 11
89.404393
 21
38.246533
 31
0.0
  0
LINE
  5
217
100
AcDbEntity
  8
Layer_1
 62
7
100
AcDbLine
 10
76.406256
 20
60.869227
 30
0.0
 11
91.339221
 21
59.380878
 31
0.0
  0
LINE
  5
218
100
AcDbEntity
  8
Layer_1
 62
7
100
AcDbLine
 10
77.299271
 20
71.833282
 30
0.0
 11
92.232205
 21
70.344959
 31
0.0
  0
LINE
  5
219
100
AcDbEntity
  8
Layer_1
 62
7
100
AcDbLine
 10
96.746821
 20
165.350273
 30
0.0
 11
81.714655
 21
165.350265
 31
0.0
  0
LINE
  5
21a
100
AcDbEntity
  8
Layer_1
 62
7
100
AcDbLine
 10
81.317757
 20
148.680914
 30
0.0
 11
96.349940
 21
148.532106
 31
0.0
  0
LINE
  5
21b
100
AcDbEntity
  8
Layer_1
 62
7
100
AcDbLine
 10
78.986036
 20
96.093136
 30
0.0
 11
93.968594
 21
94.952061
 31
0.0
  0
LINE
  5
21c
100
AcDbEntity
  8
Layer_1
 62
7
100
AcDbLine
 10
94.762383
 20
109.339306
 30
0.0
 11
79.779824
 21
110.281901
 31
0.0
  0
LINE
  5
21d
100
AcDbEntity
  8
Layer_1
 62
7
100
AcDbLine
 10
95.953037
 20
135.930889
 30
0.0
 11
80.970474
 21
136.675032
 31
0.0
  0
LINE
  5
21e
100
AcDbEntity
  8
Layer_1
 62
7
100
AcDbLine
 10
86.229268
 20
375.304609
 30
0.0
 11
88.164099
 21
357.940714
 31
0.0
  0
LINE
  5
21f
100
AcDbEntity
  8
Layer_1
 62
7
100
AcDbLine
 10
88.164099
 20
357.940714
 30
0.0
 11
89.900482
 21
340.527218
 31
0.0
  0
LINE
  5
220
100
AcDbEntity
  8
Layer_1
 62
7
100
AcDbLine
 10
89.900482
 20
340.527218
 30
0.0
 11
91.488055
 21
323.064100
 31
0.0
  0
LINE
  5
221
100
AcDbEntity
  8
Layer_1
 62
7
100
AcDbLine
 10
91.488055
 20
323.064100
 30
0.0
 11
92.827537
 21
305.650583
 31
0.0
  0
LINE
  5
222
100
AcDbEntity
  8
Layer_1
 62
7
100
AcDbLine
 10
92.827537
 20
305.650583
 30
0.0
 11
94.018206
 21
288.187473
 31
0.0
  0
LINE
  5
223
100
AcDbEntity
  8
Layer_1
 62
7
100
AcDbLine
 10
94.018206
 20
288.187473
 30
0.0
 11
95.010430
 21
270.674734
 31
0.0
  0
LINE
  5
224
100
AcDbEntity
  8
Layer_1
 62
7
100
AcDbLine
 10
95.010430
 20
270.674734
 30
0.0
 11
95.754591
 21
253.211598
 31
0.0
  0
LINE
  5
225
100
AcDbEntity
  8
Layer_1
 62
7
100
AcDbLine
 10
95.754591
 20
253.211598
 30
0.0
 11
96.349939
 21
235.698869
 31
0.0
  0
LINE
  5
226
100
AcDbEntity
  8
Layer_1
 62
7
100
AcDbLine
 10
96.349939
 20
235.698869
 30
0.0
 11
96.746835
 21
218.186144
 31
0.0
  0
LINE
  5
227
100
AcDbEntity
  8
Layer_1
 62
7
100
AcDbLine
 10
96.746835
 20
218.186144
 30
0.0
 11
96.945276
 21
200.723000
 31
0.0
  0
LINE
  5
228
100
AcDbEntity
  8
Layer_1
 62
7
100
AcDbLine
 10
96.945276
 20
200.723000
 30
0.0
 11
96.945267
 21
183.210283
 31
0.0
  0
LINE
  5
229
100
AcDbEntity
  8
Layer_1
 62
7
100
AcDbLine
 10
96.945267
 20
183.210283
 30
0.0
 11
96.746835
 21
165.697572
 31
0.0
  0
LINE
  5
22a
100
AcDbEntity
  8
Layer_1
 62
7
100
AcDbLine
 10
96.746835
 20
165.697572
 30
0.0
 11
96.349924
 21
148.184835
 31
0.0
  0
LINE
  5
22b
100
AcDbEntity
  8
Layer_1
 62
7
100
AcDbLine
 10
96.349924
 20
148.184835
 30
0.0
 11
95.754612
 21
130.721712
 31
0.0
  0
LINE
  5
22c
100
AcDbEntity
  8
Layer_1
 62
7
100
AcDbLine
 10
95.754612
 20
130.721712
 30
0.0
 11
95.010434
 21
113.208962
 31
0.0
  0
LINE
  5
22d
100
AcDbEntity
  8
Layer_1
 62
7
100
AcDbLine
 10
95.010434
 20
113.208962
 30
0.0
 11
94.018217
 21
95.745847
 31
0.0
  0
LINE
  5
22e
100
AcDbEntity
  8
Layer_1
 62
7
100
AcDbLine
 10
94.018217
 20
95.745847
 30
0.0
 11
92.827549
 21
78.282736
 31
0.0
  0
LINE
  5
22f
100
AcDbEntity
  8
Layer_1
 62
7
100
AcDbLine
 10
92.827549
 20
78.282736
 30
0.0
 11
91.488036
 21
60.819607
 31
0.0
  0
LINE
  5
230
100
AcDbEntity
  8
Layer_1
 62
7
100
AcDbLine
 10
91.488036
 20
60.819607
 30
0.0
 11
89.900486
 21
43.406111
 31
0.0
  0
LINE
  5
231
100
AcDbEntity
  8
Layer_1
 62
7
100
AcDbLine
 10
89.900486
 20
43.406111
 30
0.0
 11
88.164092
 21
25.992598
 31
0.0
  0
LINE
  5
232
100
AcDbEntity
  8
Layer_1
 62
7
100
AcDbLine
 10
88.164092
 20
25.992598
 30
0.0
 11
86.229276
 21
8.579062
 31
0.0
  0
LINE
  5
233
100
AcDbEntity
  8
Layer_1
 62
7
100
AcDbLine
 10
86.229276
 20
8.579062
 30
0.0
 11
14.392323
 21
16.814528
 31
0.0
  0
LINE
  5
234
100
AcDbEntity
  8
Layer_1
 62
7
100
AcDbLine
 10
14.392323
 20
16.814528
 30
0.0
 11
16.327169
 21
34.228038
 31
0.0
  0
LINE
  5
235
100
AcDbEntity
  8
Layer_1
 62
7
100
AcDbLine
 10
16.327169
 20
34.228038
 30
0.0
 11
18.063553
 21
51.740763
 31
0.0
  0
LINE
  5
236
100
AcDbEntity
  8
Layer_1
 62
7
100
AcDbLine
 10
18.063553
 20
51.740763
 30
0.0
 11
19.601518
 21
69.203888
 31
0.0
  0
LINE
  5
237
100
AcDbEntity
  8
Layer_1
 62
7
100
AcDbLine
 10
19.601518
 20
69.203888
 30
0.0
 11
20.940997
 21
86.716621
 31
0.0
  0
LINE
  5
238
100
AcDbEntity
  8
Layer_1
 62
7
100
AcDbLine
 10
20.940997
 20
86.716621
 30
0.0
 11
22.082055
 21
104.229332
 31
0.0
  0
LINE
  5
239
100
AcDbEntity
  8
Layer_1
 62
7
100
AcDbLine
 10
22.082055
 20
104.229332
 30
0.0
 11
22.975052
 21
121.742070
 31
0.0
  0
LINE
  5
23a
100
AcDbEntity
  8
Layer_1
 62
7
100
AcDbLine
 10
22.975052
 20
121.742070
 30
0.0
 11
23.719226
 21
139.304425
 31
0.0
  0
LINE
  5
23b
100
AcDbEntity
  8
Layer_1
 62
7
100
AcDbLine
 10
23.719226
 20
139.304425
 30
0.0
 11
24.215342
 21
156.866778
 31
0.0
  0
LINE
  5
23c
100
AcDbEntity
  8
Layer_1
 62
7
100
AcDbLine
 10
24.215342
 20
156.866778
 30
0.0
 11
24.562619
 21
174.379508
 31
0.0
  0
LINE
  5
23d
100
AcDbEntity
  8
Layer_1
 62
7
100
AcDbLine
 10
24.562619
 20
174.379508
 30
0.0
 11
24.661832
 21
191.941841
 31
0.0
  0
LINE
  5
23e
100
AcDbEntity
  8
Layer_1
 62
7
100
AcDbLine
 10
24.661832
 20
191.941841
 30
0.0
 11
24.562622
 21
209.504181
 31
0.0
  0
LINE
  5
23f
100
AcDbEntity
  8
Layer_1
 62
7
100
AcDbLine
 10
24.562622
 20
209.504181
 30
0.0
 11
24.215324
 21
227.066545
 31
0.0
  0
LINE
  5
240
100
AcDbEntity
  8
Layer_1
 62
7
100
AcDbLine
 10
24.215324
 20
227.066545
 30
0.0
 11
23.719238
 21
244.628895
 31
0.0
  0
LINE
  5
241
100
AcDbEntity
  8
Layer_1
 62
7
100
AcDbLine
 10
23.719238
 20
244.628895
 30
0.0
 11
22.975071
 21
262.141636
 31
0.0
  0
LINE
  5
242
100
AcDbEntity
  8
Layer_1
 62
7
100
AcDbLine
 10
22.975071
 20
262.141636
 30
0.0
 11
22.082062
 21
279.654330
 31
0.0
  0
LINE
  5
243
100
AcDbEntity
  8
Layer_1
 62
7
100
AcDbLine
 10
22.082062
 20
279.654330
 30
0.0
 11
20.941014
 21
297.216687
 31
0.0
  0
LINE
  5
244
100
AcDbEntity
  8
Layer_1
 62
7
100
AcDbLine
 10
20.941014
 20
297.216687
 30
0.0
 11
19.601499
 21
314.679806
 31
0.0
  0
LINE
  5
245
100
AcDbEntity
  8
Layer_1
 62
7
100
AcDbLine
 10
19.601499
 20
314.679806
 30
0.0
 11
18.063666
 21
332.192548
 31
0.0
  0
LINE
  5
246
100
AcDbEntity
  8
Layer_1
 62
7
100
AcDbLine
 10
18.063666
 20
332.192548
 30
0.0
 11
16.327274
 21
349.655677
 31
0.0
  0
LINE
  5
247
100
AcDbEntity
  8
Layer_1
 62
7
100
AcDbLine
 10
16.327274
 20
349.655677
 30
0.0
 11
14.392433
 21
367.118783
 31
0.0
  0
SPLINE
  5
248
100
AcDbEntity
  8
Layer_1
 62
7
100
AcDbSpline
 70
8
 71
3
 72
8
 73
4
 74
0
 40
0
 40
0
 40
0
 40
0
 40
1
 40
1
 40
1
 40
1
 10
72.114891
 20
111.373349
 30
0.0
 10
71.772411
 20
111.373331
 30
0.0
 10
71.494761
 20
111.095684
 30
0.0
 10
71.494751
 20
110.753201
 30
0.0
  0
SPLINE
  5
249
100
AcDbEntity
  8
Layer_1
 62
7
100
AcDbSpline
 70
8
 71
3
 72
8
 73
4
 74
0
 40
0
 40
0
 40
0
 40
0
 40
1
 40
1
 40
1
 40
1
 10
71.494751
 20
110.753201
 30
0.0
 10
71.494767
 20
110.410749
 30
0.0
 10
71.772413
 20
110.133099
 30
0.0
 10
72.114896
 20
110.133089
 30
0.0
  0
SPLINE
  5
24a
100
AcDbEntity
  8
Layer_1
 62
7
100
AcDbSpline
 70
8
 71
3
 72
8
 73
4
 74
0
 40
0
 40
0
 40
0
 40
0
 40
1
 40
1
 40
1
 40
1
 10
72.114896
 20
110.133089
 30
0.0
 10
72.457378
 20
110.133079
 30
0.0
 10
72.735029
 20
110.410726
 30
0.0
 10
72.735039
 20
110.753208
 30
0.0
  0
SPLINE
  5
24b
100
AcDbEntity
  8
Layer_1
 62
7
100
AcDbSpline
 70
8
 71
3
 72
8
 73
4
 74
0
 40
0
 40
0
 40
0
 40
0
 40
1
 40
1
 40
1
 40
1
 10
72.735039
 20
110.753208
 30
0.0
 10
72.735049
 20
111.095691
 30
0.0
 10
72.457374
 20
111.373339
 30
0.0
 10
72.114891
 20
111.373349
 30
0.0
  0
LINE
  5
24c
100
AcDbEntity
  8
Layer_1
 62
7
100
AcDbLine
 10
74.471431
 20
344.148845
 30
0.0
 11
89.404381
 21
345.637160
 31
0.0
  0
LINE
  5
24d
100
AcDbEntity
  8
Layer_1
 62
7
100
AcDbLine
 10
76.406260
 20
323.014479
 30
0.0
 11
91.339210
 21
324.502793
 31
0.0
  0
LINE
  5
24e
100
AcDbEntity
  8
Layer_1
 62
7
100
AcDbLine
 10
77.299254
 20
312.050439
 30
0.0
 11
92.232204
 21
313.538753
 31
0.0
  0
LINE
  5
24f
100
AcDbEntity
  8
Layer_1
 62
7
100
AcDbLine
 10
96.746818
 20
218.583018
 30
0.0
 11
81.714651
 21
218.583010
 31
0.0
  0
LINE
  5
250
100
AcDbEntity
  8
Layer_1
 62
7
100
AcDbLine
 10
81.317775
 20
235.202746
 30
0.0
 11
96.349946
 21
235.401206
 31
0.0
  0
LINE
  5
251
100
AcDbEntity
  8
Layer_1
 62
7
100
AcDbLine
 10
78.986023
 20
287.840194
 30
0.0
 11
93.968596
 21
288.931640
 31
0.0
  0
LINE
  5
252
100
AcDbEntity
  8
Layer_1
 62
7
100
AcDbLine
 10
94.762388
 20
274.593994
 30
0.0
 11
79.779822
 21
273.651423
 31
0.0
  0
LINE
  5
253
100
AcDbEntity
  8
Layer_1
 62
7
100
AcDbLine
 10
95.953048
 20
247.952805
 30
0.0
 11
80.970483
 21
247.258263
 31
0.0
  0
LINE
  5
254
100
AcDbEntity
  8
Layer_1
 62
7
100
AcDbLine
 10
86.229268
 20
375.304609
 30
0.0
 11
14.392321
 21
367.118773
 31
0.0
  0
SPLINE
  5
255
100
AcDbEntity
  8
Layer_1
 62
7
100
AcDbSpline
 70
8
 71
3
 72
8
 73
4
 74
0
 40
0
 40
0
 40
0
 40
0
 40
1
 40
1
 40
1
 40
1
 10
72.114892
 20
273.800218
 30
0.0
 10
71.772410
 20
273.800228
 30
0.0
 10
71.494762
 20
273.522553
 30
0.0
 10
71.494749
 20
273.180099
 30
0.0
  0
SPLINE
  5
256
100
AcDbEntity
  8
Layer_1
 62
7
100
AcDbSpline
 70
8
 71
3
 72
8
 73
4
 74
0
 40
0
 40
0
 40
0
 40
0
 40
1
 40
1
 40
1
 40
1
 10
71.494749
 20
273.180099
 30
0.0
 10
71.494768
 20
272.837619
 30
0.0
 10
71.772417
 20
272.559940
 30
0.0
 10
72.114899
 20
272.559930
 30
0.0
  0
SPLINE
  5
257
100
AcDbEntity
  8
Layer_1
 62
7
100
AcDbSpline
 70
8
 71
3
 72
8
 73
4
 74
0
 40
0
 40
0
 40
0
 40
0
 40
1
 40
1
 40
1
 40
1
 10
72.114899
 20
272.559930
 30
0.0
 10
72.457379
 20
272.559949
 30
0.0
 10
72.735027
 20
272.837623
 30
0.0
 10
72.735037
 20
273.180106
 30
0.0
  0
SPLINE
  5
258
100
AcDbEntity
  8
Layer_1
 62
7
100
AcDbSpline
 70
8
 71
3
 72
8
 73
4
 74
0
 40
0
 40
0
 40
0
 40
0
 40
1
 40
1
 40
1
 40
1
 10
72.735037
 20
273.180106
 30
0.0
 10
72.735021
 20
273.522558
 30
0.0
 10
72.457372
 20
273.800237
 30
0.0
 10
72.114892
 20
273.800218
 30
0.0
  0
LINE
  5
259
100
AcDbEntity
  8
Layer_1
 62
1
100
AcDbLine
 10
81.714655
 20
165.350265
 30
0.0
 11
81.317757
 21
148.680914
 31
0.0
  0
LINE
  5
25a
100
AcDbEntity
  8
Layer_1
 62
1
100
AcDbLine
 10
81.317757
 20
148.680914
 30
0.0
 11
80.970474
 21
136.675032
 31
0.0
  0
LINE
  5
25b
100
AcDbEntity
  8
Layer_1
 62
1
100
AcDbLine
 10
80.970474
 20
136.675032
 30
0.0
 11
79.779824
 21
110.281901
 31
0.0
  0
LINE
  5
25c
100
AcDbEntity
  8
Layer_1
 62
1
100
AcDbLine
 10
79.779824
 20
110.281901
 30
0.0
 11
78.986036
 21
96.093136
 31
0.0
  0
LINE
  5
25d
100
AcDbEntity
  8
Layer_1
 62
1
100
AcDbLine
 10
78.986036
 20
96.093136
 30
0.0
 11
77.299271
 21
71.833282
 31
0.0
  0
LINE
  5
25e
100
AcDbEntity
  8
Layer_1
 62
1
100
AcDbLine
 10
77.299271
 20
71.833282
 30
0.0
 11
76.406256
 21
60.869227
 31
0.0
  0
LINE
  5
25f
100
AcDbEntity
  8
Layer_1
 62
1
100
AcDbLine
 10
76.406256
 20
60.869227
 30
0.0
 11
74.471428
 21
39.734881
 31
0.0
  0
LINE
  5
260
100
AcDbEntity
  8
Layer_1
 62
1
100
AcDbLine
 10
74.471428
 20
39.734881
 30
0.0
 11
70.631884
 21
10.451484
 31
0.0
  0
LINE
  5
261
100
AcDbEntity
  8
Layer_1
 62
1
100
AcDbLine
 10
81.714651
 20
218.583010
 30
0.0
 11
81.317775
 21
235.202746
 31
0.0
  0
LINE
  5
262
100
AcDbEntity
  8
Layer_1
 62
1
100
AcDbLine
 10
81.317775
 20
235.202746
 30
0.0
 11
80.970483
 21
247.258263
 31
0.0
  0
LINE
  5
263
100
AcDbEntity
  8
Layer_1
 62
1
100
AcDbLine
 10
80.970483
 20
247.258263
 30
0.0
 11
79.779822
 21
273.651423
 31
0.0
  0
LINE
  5
264
100
AcDbEntity
  8
Layer_1
 62
1
100
AcDbLine
 10
79.779822
 20
273.651423
 30
0.0
 11
78.986023
 21
287.840194
 31
0.0
  0
LINE
  5
265
100
AcDbEntity
  8
Layer_1
 62
1
100
AcDbLine
 10
78.986023
 20
287.840194
 30
0.0
 11
77.299254
 21
312.050439
 31
0.0
  0
LINE
  5
266
100
AcDbEntity
  8
Layer_1
 62
1
100
AcDbLine
 10
77.299254
 20
312.050439
 30
0.0
 11
76.406260
 21
323.014479
 31
0.0
  0
LINE
  5
267
100
AcDbEntity
  8
Layer_1
 62
1
100
AcDbLine
 10
76.406260
 20
323.014479
 30
0.0
 11
74.471431
 21
344.148845
 31
0.0
  0
LINE
  5
268
100
AcDbEntity
  8
Layer_1
 62
1
100
AcDbLine
 10
74.471431
 20
344.148845
 30
0.0
 11
71.296312
 21
373.617870
 31
0.0
  0
LINE
  5
269
100
AcDbEntity
  8
Layer_1
 62
7
100
AcDbLine
 10
231.913148
 20
25.340885
 30
0.0
 11
266.095225
 21
25.340885
 31
0.0
  0
LINE
  5
26a
100
AcDbEntity
  8
Layer_1
 62
7
100
AcDbLine
 10
266.095225
 20
62.648463
 30
0.0
 11
231.913148
 21
62.648463
 31
0.0
  0
LINE
  5
26b
100
AcDbEntity
  8
Layer_1
 62
7
100
AcDbLine
 10
254.833496
 20
32.236816
 30
0.0
 11
254.833496
 21
55.851733
 31
0.0
  0
LINE
  5
26c
100
AcDbEntity
  8
Layer_1
 62
7
100
AcDbLine
 10
254.833496
 20
55.851733
 30
0.0
 11
243.174876
 21
55.851733
 31
0.0
  0
LINE
  5
26d
100
AcDbEntity
  8
Layer_1
 62
7
100
AcDbLine
 10
243.174876
 20
55.851733
 30
0.0
 11
243.174876
 21
32.236816
 31
0.0
  0
LINE
  5
26e
100
AcDbEntity
  8
Layer_1
 62
7
100
AcDbLine
 10
243.174876
 20
32.236816
 30
0.0
 11
254.833496
 21
32.236816
 31
0.0
  0
LINE
  5
26f
100
AcDbEntity
  8
Layer_1
 62
7
100
AcDbLine
 10
231.913148
 20
62.648463
 30
0.0
 11
231.913148
 21
25.340885
 31
0.0
  0
LINE
  5
270
100
AcDbEntity
  8
Layer_1
 62
7
100
AcDbLine
 10
266.095225
 20
62.648463
 30
0.0
 11
266.095225
 21
25.340885
 31
0.0
  0
LINE
  5
271
100
AcDbEntity
  8
Layer_1
 62
7
100
AcDbLine
 10
273.654776
 20
25.512285
 30
0.0
 11
307.836852
 21
25.512285
 31
0.0
  0
LINE
  5
272
100
AcDbEntity
  8
Layer_1
 62
7
100
AcDbLine
 10
307.836852
 20
62.819863
 30
0.0
 11
273.654776
 21
62.819863
 31
0.0
  0
LINE
  5
273
100
AcDbEntity
  8
Layer_1
 62
7
100
AcDbLine
 10
296.575124
 20
32.408216
 30
0.0
 11
296.575124
 21
56.023133
 31
0.0
  0
LINE
  5
274
100
AcDbEntity
  8
Layer_1
 62
7
100
AcDbLine
 10
296.575124
 20
56.023133
 30
0.0
 11
284.916504
 21
56.023133
 31
0.0
  0
LINE
  5
275
100
AcDbEntity
  8
Layer_1
 62
7
100
AcDbLine
 10
284.916504
 20
56.023133
 30
0.0
 11
284.916504
 21
32.408216
 31
0.0
  0
LINE
  5
276
100
AcDbEntity
  8
Layer_1
 62
7
100
AcDbLine
 10
284.916504
 20
32.408216
 30
0.0
 11
296.575124
 21
32.408216
 31
0.0
  0
LINE
  5
277
100
AcDbEntity
  8
Layer_1
 62
7
100
AcDbLine
 10
273.654776
 20
62.819863
 30
0.0
 11
273.654776
 21
25.512285
 31
0.0
  0
LINE
  5
278
100
AcDbEntity
  8
Layer_1
 62
7
100
AcDbLine
 10
307.836852
 20
62.819863
 30
0.0
 11
307.836852
 21
25.512285
 31
0.0
  0
LINE
  5
279
100
AcDbEntity
  8
Layer_1
 62
7
100
AcDbLine
 10
375.094530
 20
46.610255
 30
0.0
 11
375.094530
 21
37.928306
 31
0.0
  0
LINE
  5
27a
100
AcDbEntity
  8
Layer_1
 62
7
100
AcDbLine
 10
315.114686
 20
46.610255
 30
0.0
 11
315.114686
 21
37.928306
 31
0.0
  0
LINE
  5
27b
100
AcDbEntity
  8
Layer_1
 62
7
100
AcDbLine
 10
345.079801
 20
54.597649
 30
0.0
 11
345.079801
 21
56.433262
 31
0.0
  0
SPLINE
  5
27c
100
AcDbEntity
  8
Layer_1
 62
7
100
AcDbSpline
 70
8
 71
3
 72
8
 73
4
 74
0
 40
0
 40
0
 40
0
 40
0
 40
1
 40
1
 40
1
 40
1
 10
315.125298
 20
37.959726
 30
0.0
 10
332.952006
 20
24.820503
 30
0.0
 10
357.257210
 20
24.820503
 30
0.0
 10
375.083919
 20
37.959726
 30
0.0
  0
SPLINE
  5
27d
100
AcDbEntity
  8
Layer_1
 62
7
100
AcDbSpline
 70
8
 71
3
 72
8
 73
4
 74
0
 40
0
 40
0
 40
0
 40
0
 40
1
 40
1
 40
1
 40
1
 10
375.083919
 20
46.628447
 30
0.0
 10
357.257210
 20
59.767670
 30
0.0
 10
332.952006
 20
59.767670
 30
0.0
 10
315.125298
 20
46.628447
 30
0.0
  0
LINE
  5
27e
100
AcDbEntity
  8
Layer_1
 62
7
100
AcDbLine
 10
345.079801
 20
29.940912
 30
0.0
 11
345.079801
 21
28.105302
 31
0.0
  0
LINE
  5
27f
100
AcDbEntity
  8
Layer_1
 62
1
100
AcDbLine
 10
315.114686
 20
46.610263
 30
0.0
 11
375.094530
 21
46.610263
 31
0.0
  0
LINE
  5
280
100
AcDbEntity
  8
Layer_1
 62
1
100
AcDbLine
 10
315.114686
 20
37.928306
 30
0.0
 11
375.094530
 21
37.928306
 31
0.0
  0
LINE
  5
281
100
AcDbEntity
  8
Layer_1
 62
7
100
AcDbLine
 10
382.555211
 20
42.801678
 30
0.0
 11
382.604826
 21
40.519573
 31
0.0
  0
LINE
  5
282
100
AcDbEntity
  8
Layer_1
 62
7
100
AcDbLine
 10
382.604826
 20
40.519573
 30
0.0
 11
382.704027
 21
38.237467
 31
0.0
  0
LINE
  5
283
100
AcDbEntity
  8
Layer_1
 62
7
100
AcDbLine
 10
382.704027
 20
38.237467
 30
0.0
 11
382.902485
 21
35.955362
 31
0.0
  0
LINE
  5
284
100
AcDbEntity
  8
Layer_1
 62
7
100
AcDbLine
 10
382.902485
 20
35.955362
 30
0.0
 11
383.051329
 21
34.814281
 31
0.0
  0
LINE
  5
285
100
AcDbEntity
  8
Layer_1
 62
7
100
AcDbLine
 10
383.051329
 20
34.814281
 30
0.0
 11
383.150530
 21
34.268576
 31
0.0
  0
LINE
  5
286
100
AcDbEntity
  8
Layer_1
 62
7
100
AcDbLine
 10
383.150530
 20
34.268576
 30
0.0
 11
383.398604
 21
33.722843
 31
0.0
  0
LINE
  5
287
100
AcDbEntity
  8
Layer_1
 62
7
100
AcDbLine
 10
383.398604
 20
33.722843
 30
0.0
 11
384.142767
 21
32.829835
 31
0.0
  0
LINE
  5
288
100
AcDbEntity
  8
Layer_1
 62
7
100
AcDbLine
 10
384.142767
 20
32.829835
 30
0.0
 11
384.936546
 21
32.036057
 31
0.0
  0
LINE
  5
289
100
AcDbEntity
  8
Layer_1
 62
7
100
AcDbLine
 10
384.936546
 20
32.036057
 30
0.0
 11
385.829553
 21
31.341508
 31
0.0
  0
LINE
  5
28a
100
AcDbEntity
  8
Layer_1
 62
7
100
AcDbLine
 10
385.829553
 20
31.341508
 30
0.0
 11
386.821762
 21
30.696574
 31
0.0
  0
LINE
  5
28b
100
AcDbEntity
  8
Layer_1
 62
7
100
AcDbLine
 10
386.821762
 20
30.696574
 30
0.0
 11
387.813999
 21
30.150841
 31
0.0
  0
LINE
  5
28c
100
AcDbEntity
  8
Layer_1
 62
7
100
AcDbLine
 10
387.813999
 20
30.150841
 30
0.0
 11
388.855822
 21
29.654751
 31
0.0
  0
LINE
  5
28d
100
AcDbEntity
  8
Layer_1
 62
7
100
AcDbLine
 10
388.855822
 20
29.654751
 30
0.0
 11
389.897646
 21
29.208247
 31
0.0
  0
LINE
  5
28e
100
AcDbEntity
  8
Layer_1
 62
7
100
AcDbLine
 10
389.897646
 20
29.208247
 30
0.0
 11
390.939497
 21
28.811358
 31
0.0
  0
LINE
  5
28f
100
AcDbEntity
  8
Layer_1
 62
7
100
AcDbLine
 10
390.939497
 20
28.811358
 30
0.0
 11
393.171988
 21
28.166395
 31
0.0
  0
LINE
  5
290
100
AcDbEntity
  8
Layer_1
 62
7
100
AcDbLine
 10
393.171988
 20
28.166395
 30
0.0
 11
395.404479
 21
27.620690
 31
0.0
  0
LINE
  5
291
100
AcDbEntity
  8
Layer_1
 62
7
100
AcDbLine
 10
395.404479
 20
27.620690
 30
0.0
 11
397.636998
 21
27.223801
 31
0.0
  0
LINE
  5
292
100
AcDbEntity
  8
Layer_1
 62
7
100
AcDbLine
 10
397.636998
 20
27.223801
 30
0.0
 11
399.919103
 21
26.926113
 31
0.0
  0
LINE
  5
293
100
AcDbEntity
  8
Layer_1
 62
7
100
AcDbLine
 10
399.919103
 20
26.926113
 30
0.0
 11
402.151594
 21
26.678068
 31
0.0
  0
LINE
  5
294
100
AcDbEntity
  8
Layer_1
 62
7
100
AcDbLine
 10
402.151594
 20
26.678068
 30
0.0
 11
404.433727
 21
26.529224
 31
0.0
  0
LINE
  5
295
100
AcDbEntity
  8
Layer_1
 62
7
100
AcDbLine
 10
404.433727
 20
26.529224
 30
0.0
 11
406.715833
 21
26.430023
 31
0.0
  0
LINE
  5
296
100
AcDbEntity
  8
Layer_1
 62
7
100
AcDbLine
 10
406.715833
 20
26.430023
 30
0.0
 11
409.047553
 21
26.380408
 31
0.0
  0
LINE
  5
297
100
AcDbEntity
  8
Layer_1
 62
7
100
AcDbLine
 10
409.047553
 20
26.380408
 30
0.0
 11
411.280043
 21
26.380408
 31
0.0
  0
LINE
  5
298
100
AcDbEntity
  8
Layer_1
 62
7
100
AcDbLine
 10
411.280043
 20
26.380408
 30
0.0
 11
411.974621
 21
30.002025
 31
0.0
  0
LINE
  5
299
100
AcDbEntity
  8
Layer_1
 62
7
100
AcDbLine
 10
411.974621
 20
30.002025
 30
0.0
 11
412.520325
 21
33.623614
 31
0.0
  0
LINE
  5
29a
100
AcDbEntity
  8
Layer_1
 62
7
100
AcDbLine
 10
412.520325
 20
33.623614
 30
0.0
 11
412.867600
 21
37.294845
 31
0.0
  0
LINE
  5
29b
100
AcDbEntity
  8
Layer_1
 62
7
100
AcDbLine
 10
412.867600
 20
37.294845
 30
0.0
 11
413.066059
 21
40.966076
 31
0.0
  0
LINE
  5
29c
100
AcDbEntity
  8
Layer_1
 62
7
100
AcDbLine
 10
413.066059
 20
40.966076
 30
0.0
 11
413.066059
 21
44.637308
 31
0.0
  0
LINE
  5
29d
100
AcDbEntity
  8
Layer_1
 62
7
100
AcDbLine
 10
413.066059
 20
44.637308
 30
0.0
 11
412.867600
 21
48.308511
 31
0.0
  0
LINE
  5
29e
100
AcDbEntity
  8
Layer_1
 62
7
100
AcDbLine
 10
412.867600
 20
48.308511
 30
0.0
 11
412.520325
 21
51.930128
 31
0.0
  0
LINE
  5
29f
100
AcDbEntity
  8
Layer_1
 62
7
100
AcDbLine
 10
412.520325
 20
51.930128
 30
0.0
 11
411.974621
 21
55.551745
 31
0.0
  0
LINE
  5
2a0
100
AcDbEntity
  8
Layer_1
 62
7
100
AcDbLine
 10
411.974621
 20
55.551745
 30
0.0
 11
411.280043
 21
59.173361
 31
0.0
  0
LINE
  5
2a1
100
AcDbEntity
  8
Layer_1
 62
7
100
AcDbLine
 10
411.280043
 20
59.173361
 30
0.0
 11
409.047553
 21
59.173361
 31
0.0
  0
LINE
  5
2a2
100
AcDbEntity
  8
Layer_1
 62
7
100
AcDbLine
 10
409.047553
 20
59.173361
 30
0.0
 11
406.715833
 21
59.123747
 31
0.0
  0
LINE
  5
2a3
100
AcDbEntity
  8
Layer_1
 62
7
100
AcDbLine
 10
406.715833
 20
59.123747
 30
0.0
 11
404.433727
 21
59.074132
 31
0.0
  0
LINE
  5
2a4
100
AcDbEntity
  8
Layer_1
 62
7
100
AcDbLine
 10
404.433727
 20
59.074132
 30
0.0
 11
402.151594
 21
58.875702
 31
0.0
  0
LINE
  5
2a5
100
AcDbEntity
  8
Layer_1
 62
7
100
AcDbLine
 10
402.151594
 20
58.875702
 30
0.0
 11
399.919103
 21
58.677243
 31
0.0
  0
LINE
  5
2a6
100
AcDbEntity
  8
Layer_1
 62
7
100
AcDbLine
 10
399.919103
 20
58.677243
 30
0.0
 11
397.636998
 21
58.329968
 31
0.0
  0
LINE
  5
2a7
100
AcDbEntity
  8
Layer_1
 62
7
100
AcDbLine
 10
397.636998
 20
58.329968
 30
0.0
 11
395.404479
 21
57.933079
 31
0.0
  0
LINE
  5
2a8
100
AcDbEntity
  8
Layer_1
 62
7
100
AcDbLine
 10
395.404479
 20
57.933079
 30
0.0
 11
393.171988
 21
57.436989
 31
0.0
  0
LINE
  5
2a9
100
AcDbEntity
  8
Layer_1
 62
7
100
AcDbLine
 10
393.171988
 20
57.436989
 30
0.0
 11
390.939497
 21
56.742412
 31
0.0
  0
LINE
  5
2aa
100
AcDbEntity
  8
Layer_1
 62
7
100
AcDbLine
 10
390.939497
 20
56.742412
 30
0.0
 11
389.897646
 21
56.345523
 31
0.0
  0
LINE
  5
2ab
100
AcDbEntity
  8
Layer_1
 62
7
100
AcDbLine
 10
389.897646
 20
56.345523
 30
0.0
 11
388.855822
 21
55.899019
 31
0.0
  0
LINE
  5
2ac
100
AcDbEntity
  8
Layer_1
 62
7
100
AcDbLine
 10
388.855822
 20
55.899019
 30
0.0
 11
387.813999
 21
55.402929
 31
0.0
  0
LINE
  5
2ad
100
AcDbEntity
  8
Layer_1
 62
7
100
AcDbLine
 10
387.813999
 20
55.402929
 30
0.0
 11
386.821762
 21
54.857196
 31
0.0
  0
LINE
  5
2ae
100
AcDbEntity
  8
Layer_1
 62
7
100
AcDbLine
 10
386.821762
 20
54.857196
 30
0.0
 11
385.829553
 21
54.212261
 31
0.0
  0
LINE
  5
2af
100
AcDbEntity
  8
Layer_1
 62
7
100
AcDbLine
 10
385.829553
 20
54.212261
 30
0.0
 11
384.936546
 21
53.517684
 31
0.0
  0
LINE
  5
2b0
100
AcDbEntity
  8
Layer_1
 62
7
100
AcDbLine
 10
384.936546
 20
53.517684
 30
0.0
 11
384.142767
 21
52.723906
 31
0.0
  0
LINE
  5
2b1
100
AcDbEntity
  8
Layer_1
 62
7
100
AcDbLine
 10
384.142767
 20
52.723906
 30
0.0
 11
383.398604
 21
51.830927
 31
0.0
  0
LINE
  5
2b2
100
AcDbEntity
  8
Layer_1
 62
7
100
AcDbLine
 10
383.398604
 20
51.830927
 30
0.0
 11
383.150530
 21
51.334808
 31
0.0
  0
LINE
  5
2b3
100
AcDbEntity
  8
Layer_1
 62
7
100
AcDbLine
 10
383.150530
 20
51.334808
 30
0.0
 11
383.051329
 21
50.739461
 31
0.0
  0
LINE
  5
2b4
100
AcDbEntity
  8
Layer_1
 62
7
100
AcDbLine
 10
383.051329
 20
50.739461
 30
0.0
 11
382.902485
 21
49.598408
 31
0.0
  0
LINE
  5
2b5
100
AcDbEntity
  8
Layer_1
 62
7
100
AcDbLine
 10
382.902485
 20
49.598408
 30
0.0
 11
382.704027
 21
47.365917
 31
0.0
  0
LINE
  5
2b6
100
AcDbEntity
  8
Layer_1
 62
7
100
AcDbLine
 10
382.704027
 20
47.365917
 30
0.0
 11
382.604826
 21
45.034197
 31
0.0
  0
LINE
  5
2b7
100
AcDbEntity
  8
Layer_1
 62
7
100
AcDbLine
 10
382.604826
 20
45.034197
 30
0.0
 11
382.555211
 21
42.752063
 31
0.0
  0
LINE
  5
2b8
100
AcDbEntity
  8
Layer_1
 62
7
100
AcDbLine
 10
142.539106
 20
182.139268
 30
0.0
 11
142.539106
 21
214.783413
 31
0.0
  0
LINE
  5
2b9
100
AcDbEntity
  8
Layer_1
 62
7
100
AcDbLine
 10
142.539106
 20
214.783413
 30
0.0
 11
161.292124
 21
254.869215
 31
0.0
  0
LINE
  5
2ba
100
AcDbEntity
  8
Layer_1
 62
7
100
AcDbLine
 10
142.539106
 20
182.139268
 30
0.0
 11
161.292124
 21
142.003852
 31
0.0
  0
LINE
  5
2bb
100
AcDbEntity
  8
Layer_1
 62
7
100
AcDbLine
 10
161.292124
 20
142.003852
 30
0.0
 11
164.566466
 21
144.633260
 31
0.0
  0
LINE
  5
2bc
100
AcDbEntity
  8
Layer_1
 62
7
100
AcDbLine
 10
164.566466
 20
144.633260
 30
0.0
 11
166.104408
 21
145.972743
 31
0.0
  0
LINE
  5
2bd
100
AcDbEntity
  8
Layer_1
 62
7
100
AcDbLine
 10
166.104408
 20
145.972743
 30
0.0
 11
167.691964
 21
147.361869
 31
0.0
  0
LINE
  5
2be
100
AcDbEntity
  8
Layer_1
 62
7
100
AcDbLine
 10
167.691964
 20
147.361869
 30
0.0
 11
170.668619
 21
150.288908
 31
0.0
  0
LINE
  5
2bf
100
AcDbEntity
  8
Layer_1
 62
7
100
AcDbLine
 10
170.668619
 20
150.288908
 30
0.0
 11
173.496457
 21
153.315206
 31
0.0
  0
LINE
  5
2c0
100
AcDbEntity
  8
Layer_1
 62
7
100
AcDbLine
 10
173.496457
 20
153.315206
 30
0.0
 11
176.225066
 21
156.490319
 31
0.0
  0
LINE
  5
2c1
100
AcDbEntity
  8
Layer_1
 62
7
100
AcDbLine
 10
176.225066
 20
156.490319
 30
0.0
 11
177.514963
 21
158.127490
 31
0.0
  0
LINE
  5
2c2
100
AcDbEntity
  8
Layer_1
 62
7
100
AcDbLine
 10
177.514963
 20
158.127490
 30
0.0
 11
178.804860
 21
159.764661
 31
0.0
  0
LINE
  5
2c3
100
AcDbEntity
  8
Layer_1
 62
7
100
AcDbLine
 10
178.804860
 20
159.764661
 30
0.0
 11
179.995527
 21
161.451419
 31
0.0
  0
LINE
  5
2c4
100
AcDbEntity
  8
Layer_1
 62
7
100
AcDbLine
 10
179.995527
 20
161.451419
 30
0.0
 11
181.186195
 21
163.187819
 31
0.0
  0
LINE
  5
2c5
100
AcDbEntity
  8
Layer_1
 62
7
100
AcDbLine
 10
181.186195
 20
163.187819
 30
0.0
 11
182.277633
 21
164.924220
 31
0.0
  0
LINE
  5
2c6
100
AcDbEntity
  8
Layer_1
 62
7
100
AcDbLine
 10
182.277633
 20
164.924220
 30
0.0
 11
183.369071
 21
166.710206
 31
0.0
  0
LINE
  5
2c7
100
AcDbEntity
  8
Layer_1
 62
7
100
AcDbLine
 10
183.369071
 20
166.710206
 30
0.0
 11
184.410922
 21
168.545808
 31
0.0
  0
LINE
  5
2c8
100
AcDbEntity
  8
Layer_1
 62
7
100
AcDbLine
 10
184.410922
 20
168.545808
 30
0.0
 11
185.353516
 21
170.381438
 31
0.0
  0
LINE
  5
2c9
100
AcDbEntity
  8
Layer_1
 62
7
100
AcDbLine
 10
185.353516
 20
170.381438
 30
0.0
 11
186.296138
 21
172.266654
 31
0.0
  0
LINE
  5
2ca
100
AcDbEntity
  8
Layer_1
 62
7
100
AcDbLine
 10
186.296138
 20
172.266654
 30
0.0
 11
187.139531
 21
174.151870
 31
0.0
  0
LINE
  5
2cb
100
AcDbEntity
  8
Layer_1
 62
7
100
AcDbLine
 10
187.139531
 20
174.151870
 30
0.0
 11
187.933310
 21
176.086701
 31
0.0
  0
LINE
  5
2cc
100
AcDbEntity
  8
Layer_1
 62
7
100
AcDbLine
 10
187.933310
 20
176.086701
 30
0.0
 11
188.677473
 21
178.021561
 31
0.0
  0
LINE
  5
2cd
100
AcDbEntity
  8
Layer_1
 62
7
100
AcDbLine
 10
188.677473
 20
178.021561
 30
0.0
 11
189.372022
 21
180.005978
 31
0.0
  0
LINE
  5
2ce
100
AcDbEntity
  8
Layer_1
 62
7
100
AcDbLine
 10
189.372022
 20
180.005978
 30
0.0
 11
189.967370
 21
181.990424
 31
0.0
  0
LINE
  5
2cf
100
AcDbEntity
  8
Layer_1
 62
7
100
AcDbLine
 10
189.967370
 20
181.990424
 30
0.0
 11
190.513075
 21
184.024484
 31
0.0
  0
LINE
  5
2d0
100
AcDbEntity
  8
Layer_1
 62
7
100
AcDbLine
 10
190.513075
 20
184.024484
 30
0.0
 11
191.009193
 21
186.058544
 31
0.0
  0
LINE
  5
2d1
100
AcDbEntity
  8
Layer_1
 62
7
100
AcDbLine
 10
191.009193
 20
186.058544
 30
0.0
 11
191.406082
 21
188.092604
 31
0.0
  0
LINE
  5
2d2
100
AcDbEntity
  8
Layer_1
 62
7
100
AcDbLine
 10
191.406082
 20
188.092604
 30
0.0
 11
191.753357
 21
190.126665
 31
0.0
  0
LINE
  5
2d3
100
AcDbEntity
  8
Layer_1
 62
7
100
AcDbLine
 10
191.753357
 20
190.126665
 30
0.0
 11
192.001430
 21
192.210340
 31
0.0
  0
LINE
  5
2d4
100
AcDbEntity
  8
Layer_1
 62
7
100
AcDbLine
 10
192.001430
 20
192.210340
 30
0.0
 11
192.199861
 21
194.293986
 31
0.0
  0
LINE
  5
2d5
100
AcDbEntity
  8
Layer_1
 62
7
100
AcDbLine
 10
192.199861
 20
194.293986
 30
0.0
 11
192.299090
 21
196.377661
 31
0.0
  0
LINE
  5
2d6
100
AcDbEntity
  8
Layer_1
 62
7
100
AcDbLine
 10
192.299090
 20
196.377661
 30
0.0
 11
192.348705
 21
198.461345
 31
0.0
  0
LINE
  5
2d7
100
AcDbEntity
  8
Layer_1
 62
7
100
AcDbLine
 10
192.348705
 20
198.461345
 30
0.0
 11
192.299090
 21
200.545020
 31
0.0
  0
LINE
  5
2d8
100
AcDbEntity
  8
Layer_1
 62
7
100
AcDbLine
 10
192.299090
 20
200.545020
 30
0.0
 11
192.199861
 21
202.628666
 31
0.0
  0
LINE
  5
2d9
100
AcDbEntity
  8
Layer_1
 62
7
100
AcDbLine
 10
192.199861
 20
202.628666
 30
0.0
 11
192.001430
 21
204.712341
 31
0.0
  0
LINE
  5
2da
100
AcDbEntity
  8
Layer_1
 62
7
100
AcDbLine
 10
192.001430
 20
204.712341
 30
0.0
 11
191.753357
 21
206.746402
 31
0.0
  0
LINE
  5
2db
100
AcDbEntity
  8
Layer_1
 62
7
100
AcDbLine
 10
191.753357
 20
206.746402
 30
0.0
 11
191.406082
 21
208.830077
 31
0.0
  0
LINE
  5
2dc
100
AcDbEntity
  8
Layer_1
 62
7
100
AcDbLine
 10
191.406082
 20
208.830077
 30
0.0
 11
191.009193
 21
210.864137
 31
0.0
  0
LINE
  5
2dd
100
AcDbEntity
  8
Layer_1
 62
7
100
AcDbLine
 10
191.009193
 20
210.864137
 30
0.0
 11
190.513075
 21
212.898197
 31
0.0
  0
LINE
  5
2de
100
AcDbEntity
  8
Layer_1
 62
7
100
AcDbLine
 10
190.513075
 20
212.898197
 30
0.0
 11
189.967370
 21
214.932229
 31
0.0
  0
LINE
  5
2df
100
AcDbEntity
  8
Layer_1
 62
7
100
AcDbLine
 10
189.967370
 20
214.932229
 30
0.0
 11
189.372022
 21
216.916675
 31
0.0
  0
LINE
  5
2e0
100
AcDbEntity
  8
Layer_1
 62
7
100
AcDbLine
 10
189.372022
 20
216.916675
 30
0.0
 11
188.677473
 21
218.851534
 31
0.0
  0
LINE
  5
2e1
100
AcDbEntity
  8
Layer_1
 62
7
100
AcDbLine
 10
188.677473
 20
218.851534
 30
0.0
 11
187.982924
 21
220.835980
 31
0.0
  0
LINE
  5
2e2
100
AcDbEntity
  8
Layer_1
 62
7
100
AcDbLine
 10
187.982924
 20
220.835980
 30
0.0
 11
187.139531
 21
222.770810
 31
0.0
  0
LINE
  5
2e3
100
AcDbEntity
  8
Layer_1
 62
7
100
AcDbLine
 10
187.139531
 20
222.770810
 30
0.0
 11
186.296138
 21
224.656027
 31
0.0
  0
LINE
  5
2e4
100
AcDbEntity
  8
Layer_1
 62
7
100
AcDbLine
 10
186.296138
 20
224.656027
 30
0.0
 11
185.353516
 21
226.541243
 31
0.0
  0
LINE
  5
2e5
100
AcDbEntity
  8
Layer_1
 62
7
100
AcDbLine
 10
185.353516
 20
226.541243
 30
0.0
 11
184.410922
 21
228.376873
 31
0.0
  0
LINE
  5
2e6
100
AcDbEntity
  8
Layer_1
 62
7
100
AcDbLine
 10
184.410922
 20
228.376873
 30
0.0
 11
183.369071
 21
230.162860
 31
0.0
  0
LINE
  5
2e7
100
AcDbEntity
  8
Layer_1
 62
7
100
AcDbLine
 10
183.369071
 20
230.162860
 30
0.0
 11
182.277633
 21
231.948875
 31
0.0
  0
LINE
  5
2e8
100
AcDbEntity
  8
Layer_1
 62
7
100
AcDbLine
 10
182.277633
 20
231.948875
 30
0.0
 11
181.186195
 21
233.734862
 31
0.0
  0
LINE
  5
2e9
100
AcDbEntity
  8
Layer_1
 62
7
100
AcDbLine
 10
181.186195
 20
233.734862
 30
0.0
 11
179.995527
 21
235.421648
 31
0.0
  0
LINE
  5
2ea
100
AcDbEntity
  8
Layer_1
 62
7
100
AcDbLine
 10
179.995527
 20
235.421648
 30
0.0
 11
178.804860
 21
237.108434
 31
0.0
  0
LINE
  5
2eb
100
AcDbEntity
  8
Layer_1
 62
7
100
AcDbLine
 10
178.804860
 20
237.108434
 30
0.0
 11
177.514963
 21
238.795191
 31
0.0
  0
LINE
  5
2ec
100
AcDbEntity
  8
Layer_1
 62
7
100
AcDbLine
 10
177.514963
 20
238.795191
 30
0.0
 11
176.225066
 21
240.432362
 31
0.0
  0
LINE
  5
2ed
100
AcDbEntity
  8
Layer_1
 62
7
100
AcDbLine
 10
176.225066
 20
240.432362
 30
0.0
 11
173.496457
 21
243.607475
 31
0.0
  0
LINE
  5
2ee
100
AcDbEntity
  8
Layer_1
 62
7
100
AcDbLine
 10
173.496457
 20
243.607475
 30
0.0
 11
170.668619
 21
246.633772
 31
0.0
  0
LINE
  5
2ef
100
AcDbEntity
  8
Layer_1
 62
7
100
AcDbLine
 10
170.668619
 20
246.633772
 30
0.0
 11
169.180292
 21
248.122100
 31
0.0
  0
LINE
  5
2f0
100
AcDbEntity
  8
Layer_1
 62
7
100
AcDbLine
 10
169.180292
 20
248.122100
 30
0.0
 11
167.691964
 21
249.560812
 31
0.0
  0
LINE
  5
2f1
100
AcDbEntity
  8
Layer_1
 62
7
100
AcDbLine
 10
167.691964
 20
249.560812
 30
0.0
 11
166.104408
 21
250.949938
 31
0.0
  0
LINE
  5
2f2
100
AcDbEntity
  8
Layer_1
 62
7
100
AcDbLine
 10
166.104408
 20
250.949938
 30
0.0
 11
164.516851
 21
252.289421
 31
0.0
  0
LINE
  5
2f3
100
AcDbEntity
  8
Layer_1
 62
7
100
AcDbLine
 10
164.516851
 20
252.289421
 30
0.0
 11
161.292124
 21
254.869215
 31
0.0
  0
ENDSEC
  0
SECTION
  2
OBJECTS
  0
DICTIONARY
  5
C
330
0
100
AcDbDictionary
  3
ACAD_GROUP
350
D
  3
ACAD_MLINESTYLE
350
17
  0
DICTIONARY
  5
D
330
C
100
AcDbDictionary
  0
DICTIONARY
  5
1A
330
C
100
AcDbDictionary
  0
DICTIONARY
  5
17
330
C
100
AcDbDictionary
  3
STANDARD
350
18
  0
DICTIONARY
  5
19
330
C
100
AcDbDictionary
  0
ENDSEC
  0
EOF
