  0
SECTION
  2
HEADER
  9
$ACADVER
  1
AC1014
  9
$HANDSEED
  5
FFFF
  9
$MEASUREMENT
 70
     1
  0
ENDSEC
  0
SECTION
  2
TABLES
  0
TABLE
  2
VPORT
  5
8
330
0
100
AcDbSymbolTable
 70
     4
  0
VPORT
  5
2E
330
8
100
AcDbSymbolTableRecord
100
AcDbViewportTableRecord
  2
*ACTIVE
 70
     0
 10
0.0
 20
0.0
 11
1.0
 21
1.0
 12
210.0
 22
148.5
 13
0.0
 23
0.0
 14
10.0
 24
10.0
 15
10.0
 25
10.0
 16
0.0
 26
0.0
 36
1.0
 17
0.0
 27
0.0
 37
0.0
 40
341.0
 41
1.24
 42
50.0
 43
0.0
 44
0.0
 50
0.0
 51
0.0
 71
     0
 72
   100
 73
     1
 74
     3
 75
     0
 76
     0
 77
     0
 78
     0
  0
ENDTAB
  0
TABLE
  2
LTYPE
  5
5
330
0
100
AcDbSymbolTable
 70
     1
  0
LTYPE
  5
14
330
5
100
AcDbSymbolTableRecord
100
AcDbLinetypeTableRecord
  2
BYBLOCK
 70
     0
  3

 72
    65
 73
     0
 40
0.0
  0
LTYPE
  5
15
330
5
100
AcDbSymbolTableRecord
100
AcDbLinetypeTableRecord
  2
BYLAYER
 70
     0
  3

 72
    65
 73
     0
 40
0.0
  0
LTYPE
  5
16
330
5
100
AcDbSymbolTableRecord
100
AcDbLinetypeTableRecord
  2
CONTINUOUS
 70
     0
  3
Solid line
 72
    65
 73
     0
 40
0.0
  0
ENDTAB
  0
TABLE
  2
LAYER
  5
2
100
AcDbSymbolTable
 70
2
  0
LAYER
  5
50
100
AcDbSymbolTableRecord
100
AcDbLayerTableRecord
  2
0
 70
0
  6
CONTINUOUS
  0
LAYER
  5
51
100
AcDbSymbolTableRecord
100
AcDbLayerTableRecord
  2
Layer_1
 70
0
  6
CONTINUOUS
  0
ENDTAB
  0
TABLE
  2
STYLE
  5
3
330
0
100
AcDbSymbolTable
 70
     1
  0
STYLE
  5
11
330
3
100
AcDbSymbolTableRecord
100
AcDbTextStyleTableRecord
  2
STANDARD
 70
     0
 40
0.0
 41
1.0
 50
0.0
 71
     0
 42
2.5
  3
txt
  4

  0
ENDTAB
  0
TABLE
  2
VIEW
  5
6
330
0
100
AcDbSymbolTable
 70
     0
  0
ENDTAB
  0
TABLE
  2
UCS
  5
7
330
0
100
AcDbSymbolTable
 70
     0
  0
ENDTAB
  0
TABLE
  2
APPID
  5
9
330
0
100
AcDbSymbolTable
 70
     2
  0
APPID
  5
12
330
9
100
AcDbSymbolTableRecord
100
AcDbRegAppTableRecord
  2
ACAD
 70
     0
  0
ENDTAB
  0
TABLE
  2
DIMSTYLE
  5
A
330
0
100
AcDbSymbolTable
 70
     1
  0
DIMSTYLE
105
27
330
A
100
AcDbSymbolTableRecord
100
AcDbDimStyleTableRecord
  2
ISO-25
 70
     0
  3

  4

  5

  6

  7

 40
1.0
 41
2.5
 42
0.625
 43
3.75
 44
1.25
 45
0.0
 46
0.0
 47
0.0
 48
0.0
140
2.5
141
2.5
142
0.0
143
0.03937007874016
144
1.0
145
0.0
146
1.0
147
0.625
 71
     0
 72
     0
 73
     0
 74
     0
 75
     0
 76
     0
 77
     1
 78
     8
170
     0
171
     3
172
     1
173
     0
174
     0
175
     0
176
     0
177
     0
178
     0
270
     2
271
     2
272
     2
273
     2
274
     3
340
11
275
     0
280
     0
281
     0
282
     0
283
     0
284
     8
285
     0
286
     0
287
     3
288
     0
  0
ENDTAB
  0
TABLE
  2
BLOCK_RECORD
  5
1
330
0
100
AcDbSymbolTable
 70
     1
  0
BLOCK_RECORD
  5
1F
330
1
100
AcDbSymbolTableRecord
100
AcDbBlockTableRecord
  2
*MODEL_SPACE
  0
BLOCK_RECORD
  5
1B
330
1
100
AcDbSymbolTableRecord
100
AcDbBlockTableRecord
  2
*PAPER_SPACE
  0
ENDTAB
  0
ENDSEC
  0
SECTION
  2
BLOCKS
  0
BLOCK
  5
20
330
1F
100
AcDbEntity
  8
0
100
AcDbBlockBegin
  2
*MODEL_SPACE
 70
     0
 10
0.0
 20
0.0
 30
0.0
  3
*MODEL_SPACE
  1

  0
ENDBLK
  5
21
330
1F
100
AcDbEntity
  8
0
100
AcDbBlockEnd
  0
BLOCK
  5
1C
330
1B
100
AcDbEntity
 67
     1
  8
0
100
AcDbBlockBegin
  2
*PAPER_SPACE
  1

  0
ENDBLK
  5
1D
330
1B
100
AcDbEntity
 67
     1
  8
0
100
AcDbBlockEnd
  0
ENDSEC
  0
SECTION
  2
ENTITIES
  0
LINE
  5
100
100
AcDbEntity
  8
Layer_1
 62
7
100
AcDbLine
 10
411.492339
 20
308.495608
 30
0.0
 11
386.091435
 21
308.495608
 31
0.0
  0
LINE
  5
101
100
AcDbEntity
  8
Layer_1
 62
7
100
AcDbLine
 10
493.598772
 20
309.140542
 30
0.0
 11
486.603612
 21
311.373032
 31
0.0
  0
LINE
  5
102
100
AcDbEntity
  8
Layer_1
 62
7
100
AcDbLine
 10
419.132461
 20
319.856548
 30
0.0
 11
331.618396
 21
319.856548
 31
0.0
  0
LINE
  5
103
100
AcDbEntity
  8
Layer_1
 62
7
100
AcDbLine
 10
318.223395
 20
342.727273
 30
0.0
 11
486.603612
 21
311.373032
 31
0.0
  0
SPLINE
  5
104
100
AcDbEntity
  8
Layer_1
 62
7
100
AcDbSpline
 70
8
 71
3
 72
8
 73
4
 74
0
 40
0
 40
0
 40
0
 40
0
 40
1
 40
1
 40
1
 40
1
 10
329.371597
 20
331.704124
 30
0.0
 10
328.267628
 20
337.318851
 30
0.0
 10
323.850229
 20
341.691997
 30
0.0
 10
318.224693
 20
342.739409
 30
0.0
  0
LINE
  5
105
100
AcDbEntity
  8
Layer_1
 62
7
100
AcDbLine
 10
354.141875
 20
205.800526
 30
0.0
 11
329.385905
 21
331.713607
 31
0.0
  0
LINE
  5
106
100
AcDbEntity
  8
Layer_1
 62
7
100
AcDbLine
 10
446.319352
 20
183.773194
 30
0.0
 11
453.860246
 21
181.391859
 31
0.0
  0
LINE
  5
107
100
AcDbEntity
  8
Layer_1
 62
7
100
AcDbLine
 10
453.860246
 20
181.391859
 30
0.0
 11
493.598772
 21
309.140542
 31
0.0
  0
LINE
  5
108
100
AcDbEntity
  8
Layer_1
 62
7
100
AcDbLine
 10
354.141875
 20
205.800526
 30
0.0
 11
355.183698
 21
202.377368
 31
0.0
  0
LINE
  5
109
100
AcDbEntity
  8
Layer_1
 62
7
100
AcDbLine
 10
355.183698
 20
202.377368
 30
0.0
 11
356.324751
 21
198.954210
 31
0.0
  0
LINE
  5
10a
100
AcDbEntity
  8
Layer_1
 62
7
100
AcDbLine
 10
356.324751
 20
198.954210
 30
0.0
 11
356.920099
 21
197.267424
 31
0.0
  0
LINE
  5
10b
100
AcDbEntity
  8
Layer_1
 62
7
100
AcDbLine
 10
356.920099
 20
197.267424
 30
0.0
 11
357.614648
 21
195.630253
 31
0.0
  0
LINE
  5
10c
100
AcDbEntity
  8
Layer_1
 62
7
100
AcDbLine
 10
357.614648
 20
195.630253
 30
0.0
 11
358.358811
 21
193.993082
 31
0.0
  0
LINE
  5
10d
100
AcDbEntity
  8
Layer_1
 62
7
100
AcDbLine
 10
358.358811
 20
193.993082
 30
0.0
 11
359.152589
 21
192.355911
 31
0.0
  0
LINE
  5
10e
100
AcDbEntity
  8
Layer_1
 62
7
100
AcDbLine
 10
359.152589
 20
192.355911
 30
0.0
 11
360.045597
 21
190.817969
 31
0.0
  0
LINE
  5
10f
100
AcDbEntity
  8
Layer_1
 62
7
100
AcDbLine
 10
360.045597
 20
190.817969
 30
0.0
 11
360.988191
 21
189.280027
 31
0.0
  0
LINE
  5
110
100
AcDbEntity
  8
Layer_1
 62
7
100
AcDbLine
 10
360.988191
 20
189.280027
 30
0.0
 11
362.030043
 21
187.841314
 31
0.0
  0
LINE
  5
111
100
AcDbEntity
  8
Layer_1
 62
7
100
AcDbLine
 10
362.030043
 20
187.841314
 30
0.0
 11
363.121481
 21
186.402574
 31
0.0
  0
LINE
  5
112
100
AcDbEntity
  8
Layer_1
 62
7
100
AcDbLine
 10
363.121481
 20
186.402574
 30
0.0
 11
364.312148
 21
185.013476
 31
0.0
  0
LINE
  5
113
100
AcDbEntity
  8
Layer_1
 62
7
100
AcDbLine
 10
364.312148
 20
185.013476
 30
0.0
 11
365.502815
 21
183.673965
 31
0.0
  0
LINE
  5
114
100
AcDbEntity
  8
Layer_1
 62
7
100
AcDbLine
 10
365.502815
 20
183.673965
 30
0.0
 11
366.792712
 21
182.384068
 31
0.0
  0
LINE
  5
115
100
AcDbEntity
  8
Layer_1
 62
7
100
AcDbLine
 10
366.792712
 20
182.384068
 30
0.0
 11
368.132195
 21
181.193400
 31
0.0
  0
LINE
  5
116
100
AcDbEntity
  8
Layer_1
 62
7
100
AcDbLine
 10
368.132195
 20
181.193400
 30
0.0
 11
369.521321
 21
180.002733
 31
0.0
  0
LINE
  5
117
100
AcDbEntity
  8
Layer_1
 62
7
100
AcDbLine
 10
369.521321
 20
180.002733
 30
0.0
 11
370.910419
 21
178.861680
 31
0.0
  0
LINE
  5
118
100
AcDbEntity
  8
Layer_1
 62
7
100
AcDbLine
 10
370.910419
 20
178.861680
 30
0.0
 11
372.349160
 21
177.770242
 31
0.0
  0
LINE
  5
119
100
AcDbEntity
  8
Layer_1
 62
7
100
AcDbLine
 10
372.349160
 20
177.770242
 30
0.0
 11
373.837487
 21
176.778034
 31
0.0
  0
LINE
  5
11a
100
AcDbEntity
  8
Layer_1
 62
7
100
AcDbLine
 10
373.837487
 20
176.778034
 30
0.0
 11
375.375429
 21
175.785797
 31
0.0
  0
LINE
  5
11b
100
AcDbEntity
  8
Layer_1
 62
7
100
AcDbLine
 10
375.375429
 20
175.785797
 30
0.0
 11
376.913371
 21
174.892789
 31
0.0
  0
LINE
  5
11c
100
AcDbEntity
  8
Layer_1
 62
7
100
AcDbLine
 10
376.913371
 20
174.892789
 30
0.0
 11
378.451312
 21
173.999810
 31
0.0
  0
LINE
  5
11d
100
AcDbEntity
  8
Layer_1
 62
7
100
AcDbLine
 10
378.451312
 20
173.999810
 30
0.0
 11
380.088483
 21
173.206032
 31
0.0
  0
LINE
  5
11e
100
AcDbEntity
  8
Layer_1
 62
7
100
AcDbLine
 10
380.088483
 20
173.206032
 30
0.0
 11
381.725655
 21
172.461840
 31
0.0
  0
LINE
  5
11f
100
AcDbEntity
  8
Layer_1
 62
7
100
AcDbLine
 10
381.725655
 20
172.461840
 30
0.0
 11
383.362826
 21
171.767291
 31
0.0
  0
LINE
  5
120
100
AcDbEntity
  8
Layer_1
 62
7
100
AcDbLine
 10
383.362826
 20
171.767291
 30
0.0
 11
385.049612
 21
171.122357
 31
0.0
  0
LINE
  5
121
100
AcDbEntity
  8
Layer_1
 62
7
100
AcDbLine
 10
385.049612
 20
171.122357
 30
0.0
 11
386.736369
 21
170.527009
 31
0.0
  0
LINE
  5
122
100
AcDbEntity
  8
Layer_1
 62
7
100
AcDbLine
 10
386.736369
 20
170.527009
 30
0.0
 11
388.472770
 21
169.981304
 31
0.0
  0
LINE
  5
123
100
AcDbEntity
  8
Layer_1
 62
7
100
AcDbLine
 10
388.472770
 20
169.981304
 30
0.0
 11
390.209170
 21
169.485185
 31
0.0
  0
LINE
  5
124
100
AcDbEntity
  8
Layer_1
 62
7
100
AcDbLine
 10
390.209170
 20
169.485185
 30
0.0
 11
391.945542
 21
169.038682
 31
0.0
  0
LINE
  5
125
100
AcDbEntity
  8
Layer_1
 62
7
100
AcDbLine
 10
391.945542
 20
169.038682
 30
0.0
 11
393.731558
 21
168.641793
 31
0.0
  0
LINE
  5
126
100
AcDbEntity
  8
Layer_1
 62
7
100
AcDbLine
 10
393.731558
 20
168.641793
 30
0.0
 11
395.517545
 21
168.294518
 31
0.0
  0
LINE
  5
127
100
AcDbEntity
  8
Layer_1
 62
7
100
AcDbLine
 10
395.517545
 20
168.294518
 30
0.0
 11
397.303560
 21
168.046473
 31
0.0
  0
LINE
  5
128
100
AcDbEntity
  8
Layer_1
 62
7
100
AcDbLine
 10
397.303560
 20
168.046473
 30
0.0
 11
399.089547
 21
167.798400
 31
0.0
  0
LINE
  5
129
100
AcDbEntity
  8
Layer_1
 62
7
100
AcDbLine
 10
399.089547
 20
167.798400
 30
0.0
 11
400.875562
 21
167.599969
 31
0.0
  0
LINE
  5
12a
100
AcDbEntity
  8
Layer_1
 62
7
100
AcDbLine
 10
400.875562
 20
167.599969
 30
0.0
 11
402.661549
 21
167.500740
 31
0.0
  0
LINE
  5
12b
100
AcDbEntity
  8
Layer_1
 62
7
100
AcDbLine
 10
402.661549
 20
167.500740
 30
0.0
 11
404.447564
 21
167.401511
 31
0.0
  0
LINE
  5
12c
100
AcDbEntity
  8
Layer_1
 62
7
100
AcDbLine
 10
404.447564
 20
167.401511
 30
0.0
 11
408.069181
 21
167.401511
 31
0.0
  0
LINE
  5
12d
100
AcDbEntity
  8
Layer_1
 62
7
100
AcDbLine
 10
408.069181
 20
167.401511
 30
0.0
 11
411.641183
 21
167.550355
 31
0.0
  0
LINE
  5
12e
100
AcDbEntity
  8
Layer_1
 62
7
100
AcDbLine
 10
411.641183
 20
167.550355
 30
0.0
 11
415.213185
 21
167.947244
 31
0.0
  0
LINE
  5
12f
100
AcDbEntity
  8
Layer_1
 62
7
100
AcDbLine
 10
415.213185
 20
167.947244
 30
0.0
 11
418.785187
 21
168.492949
 31
0.0
  0
LINE
  5
130
100
AcDbEntity
  8
Layer_1
 62
7
100
AcDbLine
 10
418.785187
 20
168.492949
 30
0.0
 11
420.521559
 21
168.840251
 31
0.0
  0
LINE
  5
131
100
AcDbEntity
  8
Layer_1
 62
7
100
AcDbLine
 10
420.521559
 20
168.840251
 30
0.0
 11
422.257960
 21
169.237140
 31
0.0
  0
LINE
  5
132
100
AcDbEntity
  8
Layer_1
 62
7
100
AcDbLine
 10
422.257960
 20
169.237140
 30
0.0
 11
424.043947
 21
169.683616
 31
0.0
  0
LINE
  5
133
100
AcDbEntity
  8
Layer_1
 62
7
100
AcDbLine
 10
424.043947
 20
169.683616
 30
0.0
 11
425.730733
 21
170.229349
 31
0.0
  0
LINE
  5
134
100
AcDbEntity
  8
Layer_1
 62
7
100
AcDbLine
 10
425.730733
 20
170.229349
 30
0.0
 11
427.467133
 21
170.775082
 31
0.0
  0
LINE
  5
135
100
AcDbEntity
  8
Layer_1
 62
7
100
AcDbLine
 10
427.467133
 20
170.775082
 30
0.0
 11
429.153891
 21
171.370402
 31
0.0
  0
LINE
  5
136
100
AcDbEntity
  8
Layer_1
 62
7
100
AcDbLine
 10
429.153891
 20
171.370402
 30
0.0
 11
430.840676
 21
172.015364
 31
0.0
  0
LINE
  5
137
100
AcDbEntity
  8
Layer_1
 62
7
100
AcDbLine
 10
430.840676
 20
172.015364
 30
0.0
 11
432.477848
 21
172.759528
 31
0.0
  0
LINE
  5
138
100
AcDbEntity
  8
Layer_1
 62
7
100
AcDbLine
 10
432.477848
 20
172.759528
 30
0.0
 11
434.115019
 21
173.503691
 31
0.0
  0
LINE
  5
139
100
AcDbEntity
  8
Layer_1
 62
7
100
AcDbLine
 10
434.115019
 20
173.503691
 30
0.0
 11
435.702575
 21
174.347084
 31
0.0
  0
LINE
  5
13a
100
AcDbEntity
  8
Layer_1
 62
7
100
AcDbLine
 10
435.702575
 20
174.347084
 30
0.0
 11
437.240517
 21
175.240064
 31
0.0
  0
LINE
  5
13b
100
AcDbEntity
  8
Layer_1
 62
7
100
AcDbLine
 10
437.240517
 20
175.240064
 30
0.0
 11
438.728844
 21
176.232301
 31
0.0
  0
LINE
  5
13c
100
AcDbEntity
  8
Layer_1
 62
7
100
AcDbLine
 10
438.728844
 20
176.232301
 30
0.0
 11
440.217200
 21
177.274124
 31
0.0
  0
LINE
  5
13d
100
AcDbEntity
  8
Layer_1
 62
7
100
AcDbLine
 10
440.217200
 20
177.274124
 30
0.0
 11
441.606297
 21
178.365590
 31
0.0
  0
LINE
  5
13e
100
AcDbEntity
  8
Layer_1
 62
7
100
AcDbLine
 10
441.606297
 20
178.365590
 30
0.0
 11
442.945809
 21
179.556258
 31
0.0
  0
LINE
  5
13f
100
AcDbEntity
  8
Layer_1
 62
7
100
AcDbLine
 10
442.945809
 20
179.556258
 30
0.0
 11
444.186091
 21
180.895741
 31
0.0
  0
LINE
  5
140
100
AcDbEntity
  8
Layer_1
 62
7
100
AcDbLine
 10
444.186091
 20
180.895741
 30
0.0
 11
445.277529
 21
182.284867
 31
0.0
  0
LINE
  5
141
100
AcDbEntity
  8
Layer_1
 62
7
100
AcDbLine
 10
445.277529
 20
182.284867
 30
0.0
 11
446.319352
 21
183.773194
 31
0.0
  0
LINE
  5
142
100
AcDbEntity
  8
Layer_1
 62
1
100
AcDbLine
 10
419.132461
 20
319.856548
 30
0.0
 11
419.132461
 21
168.651546
 31
0.0
  0
LINE
  5
143
100
AcDbEntity
  8
Layer_1
 62
1
100
AcDbLine
 10
414.468993
 20
319.727894
 30
0.0
 11
414.468993
 21
167.970185
 31
0.0
  0
LINE
  5
144
100
AcDbEntity
  8
Layer_1
 62
1
100
AcDbLine
 10
484.123048
 20
311.869151
 30
0.0
 11
443.888403
 21
184.517372
 31
0.0
  0
LINE
  5
145
100
AcDbEntity
  8
Layer_1
 62
1
100
AcDbLine
 10
443.888403
 20
184.517372
 30
0.0
 11
446.319352
 21
183.773202
 31
0.0
  0
LINE
  5
146
100
AcDbEntity
  8
Layer_1
 62
1
100
AcDbLine
 10
446.319352
 20
183.773202
 30
0.0
 11
486.603612
 21
311.373032
 31
0.0
  0
LINE
  5
147
100
AcDbEntity
  8
Layer_1
 62
7
100
AcDbLine
 10
146.704570
 20
113.422580
 30
0.0
 11
11.663050
 21
113.422580
 31
0.0
  0
LINE
  5
148
100
AcDbEntity
  8
Layer_1
 62
7
100
AcDbLine
 10
146.704570
 20
113.422580
 30
0.0
 11
147.647190
 21
115.258200
 31
0.0
  0
LINE
  5
149
100
AcDbEntity
  8
Layer_1
 62
7
100
AcDbLine
 10
147.647190
 20
115.258200
 30
0.0
 11
148.490570
 21
117.143420
 31
0.0
  0
LINE
  5
14a
100
AcDbEntity
  8
Layer_1
 62
7
100
AcDbLine
 10
148.490570
 20
117.143420
 30
0.0
 11
149.234740
 21
119.078250
 31
0.0
  0
LINE
  5
14b
100
AcDbEntity
  8
Layer_1
 62
7
100
AcDbLine
 10
149.234740
 20
119.078250
 30
0.0
 11
149.830080
 21
121.013090
 31
0.0
  0
LINE
  5
14c
100
AcDbEntity
  8
Layer_1
 62
7
100
AcDbLine
 10
149.830080
 20
121.013090
 30
0.0
 11
150.375800
 21
123.047140
 31
0.0
  0
LINE
  5
14d
100
AcDbEntity
  8
Layer_1
 62
7
100
AcDbLine
 10
150.375800
 20
123.047140
 30
0.0
 11
150.822300
 21
125.031590
 31
0.0
  0
LINE
  5
14e
100
AcDbEntity
  8
Layer_1
 62
7
100
AcDbLine
 10
150.822300
 20
125.031590
 30
0.0
 11
151.616080
 21
129.099700
 31
0.0
  0
LINE
  5
14f
100
AcDbEntity
  8
Layer_1
 62
7
100
AcDbLine
 10
151.616080
 20
129.099700
 30
0.0
 11
152.261020
 21
133.217430
 31
0.0
  0
LINE
  5
150
100
AcDbEntity
  8
Layer_1
 62
7
100
AcDbLine
 10
152.261020
 20
133.217430
 30
0.0
 11
152.856350
 21
137.285540
 31
0.0
  0
LINE
  5
151
100
AcDbEntity
  8
Layer_1
 62
7
100
AcDbLine
 10
152.856350
 20
137.285540
 30
0.0
 11
153.302850
 21
141.403270
 31
0.0
  0
LINE
  5
152
100
AcDbEntity
  8
Layer_1
 62
7
100
AcDbLine
 10
153.302850
 20
141.403270
 30
0.0
 11
153.650130
 21
145.471380
 31
0.0
  0
LINE
  5
153
100
AcDbEntity
  8
Layer_1
 62
7
100
AcDbLine
 10
153.650130
 20
145.471380
 30
0.0
 11
153.997410
 21
149.589100
 31
0.0
  0
LINE
  5
154
100
AcDbEntity
  8
Layer_1
 62
7
100
AcDbLine
 10
153.997410
 20
149.589100
 30
0.0
 11
154.245470
 21
153.706830
 31
0.0
  0
LINE
  5
155
100
AcDbEntity
  8
Layer_1
 62
7
100
AcDbLine
 10
154.245470
 20
153.706830
 30
0.0
 11
154.592740
 21
161.942280
 31
0.0
  0
LINE
  5
156
100
AcDbEntity
  8
Layer_1
 62
7
100
AcDbLine
 10
154.592740
 20
161.942280
 30
0.0
 11
154.791190
 21
170.177730
 31
0.0
  0
LINE
  5
157
100
AcDbEntity
  8
Layer_1
 62
7
100
AcDbLine
 10
154.791190
 20
170.177730
 30
0.0
 11
154.840790
 21
178.413180
 31
0.0
  0
LINE
  5
158
100
AcDbEntity
  8
Layer_1
 62
7
100
AcDbLine
 10
154.840790
 20
178.413180
 30
0.0
 11
154.840790
 21
186.648630
 31
0.0
  0
LINE
  5
159
100
AcDbEntity
  8
Layer_1
 62
7
100
AcDbLine
 10
154.840790
 20
186.648630
 30
0.0
 11
154.691960
 21
194.884080
 31
0.0
  0
LINE
  5
15a
100
AcDbEntity
  8
Layer_1
 62
7
100
AcDbLine
 10
154.691960
 20
194.884080
 30
0.0
 11
154.493510
 21
203.119520
 31
0.0
  0
LINE
  5
15b
100
AcDbEntity
  8
Layer_1
 62
7
100
AcDbLine
 10
154.493510
 20
203.119520
 30
0.0
 11
154.195850
 21
211.354970
 31
0.0
  0
LINE
  5
15c
100
AcDbEntity
  8
Layer_1
 62
7
100
AcDbLine
 10
154.195850
 20
211.354970
 30
0.0
 11
153.898180
 21
219.590420
 31
0.0
  0
LINE
  5
15d
100
AcDbEntity
  8
Layer_1
 62
7
100
AcDbLine
 10
153.898180
 20
219.590420
 30
0.0
 11
153.501290
 21
227.825870
 31
0.0
  0
LINE
  5
15e
100
AcDbEntity
  8
Layer_1
 62
7
100
AcDbLine
 10
153.501290
 20
227.825870
 30
0.0
 11
152.558680
 21
244.296770
 31
0.0
  0
LINE
  5
15f
100
AcDbEntity
  8
Layer_1
 62
7
100
AcDbLine
 10
152.558680
 20
244.296770
 30
0.0
 11
151.467230
 21
260.767670
 31
0.0
  0
LINE
  5
160
100
AcDbEntity
  8
Layer_1
 62
7
100
AcDbLine
 10
151.467230
 20
260.767670
 30
0.0
 11
150.276570
 21
277.188960
 31
0.0
  0
LINE
  5
161
100
AcDbEntity
  8
Layer_1
 62
7
100
AcDbLine
 10
150.276570
 20
277.188960
 30
0.0
 11
148.887450
 21
293.610240
 31
0.0
  0
LINE
  5
162
100
AcDbEntity
  8
Layer_1
 62
7
100
AcDbLine
 10
148.887450
 20
293.610240
 30
0.0
 11
147.448730
 21
310.031530
 31
0.0
  0
LINE
  5
163
100
AcDbEntity
  8
Layer_1
 62
7
100
AcDbLine
 10
147.448730
 20
310.031530
 30
0.0
 11
145.861170
 21
326.452820
 31
0.0
  0
LINE
  5
164
100
AcDbEntity
  8
Layer_1
 62
7
100
AcDbLine
 10
145.861170
 20
326.452820
 30
0.0
 11
144.174400
 21
342.874110
 31
0.0
  0
LINE
  5
165
100
AcDbEntity
  8
Layer_1
 62
7
100
AcDbLine
 10
144.174400
 20
342.874110
 30
0.0
 11
142.438010
 21
359.245780
 31
0.0
  0
LINE
  5
166
100
AcDbEntity
  8
Layer_1
 62
7
100
AcDbLine
 10
142.438010
 20
359.245780
 30
0.0
 11
140.552780
 21
375.617460
 31
0.0
  0
LINE
  5
167
100
AcDbEntity
  8
Layer_1
 62
7
100
AcDbLine
 10
140.552780
 20
375.617460
 30
0.0
 11
139.461340
 21
375.567860
 31
0.0
  0
LINE
  5
168
100
AcDbEntity
  8
Layer_1
 62
7
100
AcDbLine
 10
139.461340
 20
375.567860
 30
0.0
 11
138.419500
 21
375.468660
 31
0.0
  0
LINE
  5
169
100
AcDbEntity
  8
Layer_1
 62
7
100
AcDbLine
 10
138.419500
 20
375.468660
 30
0.0
 11
136.335840
 21
375.220600
 31
0.0
  0
LINE
  5
16a
100
AcDbEntity
  8
Layer_1
 62
7
100
AcDbLine
 10
136.335840
 20
375.220600
 30
0.0
 11
132.118890
 21
374.774100
 31
0.0
  0
LINE
  5
16b
100
AcDbEntity
  8
Layer_1
 62
7
100
AcDbLine
 10
132.118890
 20
374.774100
 30
0.0
 11
123.684990
 21
373.781880
 31
0.0
  0
LINE
  5
16c
100
AcDbEntity
  8
Layer_1
 62
7
100
AcDbLine
 10
123.684990
 20
373.781880
 30
0.0
 11
106.866820
 21
371.747820
 31
0.0
  0
LINE
  5
16d
100
AcDbEntity
  8
Layer_1
 62
7
100
AcDbLine
 10
106.866820
 20
371.747820
 30
0.0
 11
73.230470
 21
367.630100
 31
0.0
  0
LINE
  5
16e
100
AcDbEntity
  8
Layer_1
 62
7
100
AcDbLine
 10
73.230470
 20
367.630100
 30
0.0
 11
5.957760
 21
359.295420
 31
0.0
  0
LINE
  5
16f
100
AcDbEntity
  8
Layer_1
 62
7
100
AcDbLine
 10
5.957760
 20
359.295420
 30
0.0
 11
9.033650
 21
328.586130
 31
0.0
  0
LINE
  5
170
100
AcDbEntity
  8
Layer_1
 62
7
100
AcDbLine
 10
9.033650
 20
328.586130
 30
0.0
 11
12.010320
 21
297.876830
 31
0.0
  0
LINE
  5
171
100
AcDbEntity
  8
Layer_1
 62
7
100
AcDbLine
 10
12.010320
 20
297.876830
 30
0.0
 11
13.449040
 21
282.497380
 31
0.0
  0
LINE
  5
172
100
AcDbEntity
  8
Layer_1
 62
7
100
AcDbLine
 10
13.449040
 20
282.497380
 30
0.0
 11
14.788540
 21
267.117930
 31
0.0
  0
LINE
  5
173
100
AcDbEntity
  8
Layer_1
 62
7
100
AcDbLine
 10
14.788540
 20
267.117930
 30
0.0
 11
16.078430
 21
251.738470
 31
0.0
  0
LINE
  5
174
100
AcDbEntity
  8
Layer_1
 62
7
100
AcDbLine
 10
16.078430
 20
251.738470
 30
0.0
 11
17.169880
 21
236.359020
 31
0.0
  0
LINE
  5
175
100
AcDbEntity
  8
Layer_1
 62
7
100
AcDbLine
 10
17.169880
 20
236.359020
 30
0.0
 11
17.715600
 21
228.669290
 31
0.0
  0
LINE
  5
176
100
AcDbEntity
  8
Layer_1
 62
7
100
AcDbLine
 10
17.715600
 20
228.669290
 30
0.0
 11
18.162100
 21
220.979570
 31
0.0
  0
LINE
  5
177
100
AcDbEntity
  8
Layer_1
 62
7
100
AcDbLine
 10
18.162100
 20
220.979570
 30
0.0
 11
18.509380
 21
213.240230
 31
0.0
  0
LINE
  5
178
100
AcDbEntity
  8
Layer_1
 62
7
100
AcDbLine
 10
18.509380
 20
213.240230
 30
0.0
 11
18.807040
 21
205.550500
 31
0.0
  0
LINE
  5
179
100
AcDbEntity
  8
Layer_1
 62
7
100
AcDbLine
 10
18.807040
 20
205.550500
 30
0.0
 11
19.055100
 21
197.811160
 31
0.0
  0
LINE
  5
17a
100
AcDbEntity
  8
Layer_1
 62
7
100
AcDbLine
 10
19.055100
 20
197.811160
 30
0.0
 11
19.154300
 21
190.121440
 31
0.0
  0
LINE
  5
17b
100
AcDbEntity
  8
Layer_1
 62
7
100
AcDbLine
 10
19.154300
 20
190.121440
 30
0.0
 11
19.104700
 21
182.382100
 31
0.0
  0
LINE
  5
17c
100
AcDbEntity
  8
Layer_1
 62
7
100
AcDbLine
 10
19.104700
 20
182.382100
 30
0.0
 11
18.955870
 21
174.692370
 31
0.0
  0
LINE
  5
17d
100
AcDbEntity
  8
Layer_1
 62
7
100
AcDbLine
 10
18.955870
 20
174.692370
 30
0.0
 11
18.608590
 21
166.953030
 31
0.0
  0
LINE
  5
17e
100
AcDbEntity
  8
Layer_1
 62
7
100
AcDbLine
 10
18.608590
 20
166.953030
 30
0.0
 11
18.062870
 21
159.263310
 31
0.0
  0
LINE
  5
17f
100
AcDbEntity
  8
Layer_1
 62
7
100
AcDbLine
 10
18.062870
 20
159.263310
 30
0.0
 11
17.368310
 21
151.573580
 31
0.0
  0
LINE
  5
180
100
AcDbEntity
  8
Layer_1
 62
7
100
AcDbLine
 10
17.368310
 20
151.573580
 30
0.0
 11
16.475310
 21
143.933460
 31
0.0
  0
LINE
  5
181
100
AcDbEntity
  8
Layer_1
 62
7
100
AcDbLine
 10
16.475310
 20
143.933460
 30
0.0
 11
15.433480
 21
136.243740
 31
0.0
  0
LINE
  5
182
100
AcDbEntity
  8
Layer_1
 62
7
100
AcDbLine
 10
15.433480
 20
136.243740
 30
0.0
 11
14.242810
 21
128.653230
 31
0.0
  0
LINE
  5
183
100
AcDbEntity
  8
Layer_1
 62
7
100
AcDbLine
 10
14.242810
 20
128.653230
 30
0.0
 11
13.002530
 21
121.013120
 31
0.0
  0
LINE
  5
184
100
AcDbEntity
  8
Layer_1
 62
7
100
AcDbLine
 10
13.002530
 20
121.013120
 30
0.0
 11
11.663030
 21
113.422610
 31
0.0
  0
LINE
  5
185
100
AcDbEntity
  8
Layer_1
 62
3
100
AcDbLine
 10
11.762260
 20
300.655050
 30
0.0
 11
146.803790
 21
316.877870
 31
0.0
  0
LINE
  5
186
100
AcDbEntity
  8
Layer_1
 62
7
100
AcDbLine
 10
309.889290
 20
358.760850
 30
0.0
 11
242.616590
 21
367.095530
 31
0.0
  0
LINE
  5
187
100
AcDbEntity
  8
Layer_1
 62
7
100
AcDbLine
 10
242.616590
 20
367.095530
 30
0.0
 11
208.980250
 21
371.213250
 31
0.0
  0
LINE
  5
188
100
AcDbEntity
  8
Layer_1
 62
7
100
AcDbLine
 10
208.980250
 20
371.213250
 30
0.0
 11
192.162070
 21
373.247310
 31
0.0
  0
LINE
  5
189
100
AcDbEntity
  8
Layer_1
 62
7
100
AcDbLine
 10
192.162070
 20
373.247310
 30
0.0
 11
183.728180
 21
374.239530
 31
0.0
  0
LINE
  5
18a
100
AcDbEntity
  8
Layer_1
 62
7
100
AcDbLine
 10
183.728180
 20
374.239530
 30
0.0
 11
179.511230
 21
374.686030
 31
0.0
  0
LINE
  5
18b
100
AcDbEntity
  8
Layer_1
 62
7
100
AcDbLine
 10
179.511230
 20
374.686030
 30
0.0
 11
177.427570
 21
374.934090
 31
0.0
  0
LINE
  5
18c
100
AcDbEntity
  8
Layer_1
 62
7
100
AcDbLine
 10
177.427570
 20
374.934090
 30
0.0
 11
176.385730
 21
375.033290
 31
0.0
  0
LINE
  5
18d
100
AcDbEntity
  8
Layer_1
 62
7
100
AcDbLine
 10
176.385730
 20
375.033290
 30
0.0
 11
175.294290
 21
375.082890
 31
0.0
  0
LINE
  5
18e
100
AcDbEntity
  8
Layer_1
 62
7
100
AcDbLine
 10
175.294290
 20
375.082890
 30
0.0
 11
173.409060
 21
358.711210
 31
0.0
  0
LINE
  5
18f
100
AcDbEntity
  8
Layer_1
 62
7
100
AcDbLine
 10
173.409060
 20
358.711210
 30
0.0
 11
171.672670
 21
342.339540
 31
0.0
  0
LINE
  5
190
100
AcDbEntity
  8
Layer_1
 62
7
100
AcDbLine
 10
171.672670
 20
342.339540
 30
0.0
 11
169.985890
 21
325.918250
 31
0.0
  0
LINE
  5
191
100
AcDbEntity
  8
Layer_1
 62
7
100
AcDbLine
 10
169.985890
 20
325.918250
 30
0.0
 11
168.398340
 21
309.496960
 31
0.0
  0
LINE
  5
192
100
AcDbEntity
  8
Layer_1
 62
7
100
AcDbLine
 10
168.398340
 20
309.496960
 30
0.0
 11
166.959620
 21
293.075670
 31
0.0
  0
LINE
  5
193
100
AcDbEntity
  8
Layer_1
 62
7
100
AcDbLine
 10
166.959620
 20
293.075670
 30
0.0
 11
165.570500
 21
276.654390
 31
0.0
  0
LINE
  5
194
100
AcDbEntity
  8
Layer_1
 62
7
100
AcDbLine
 10
165.570500
 20
276.654390
 30
0.0
 11
164.379840
 21
260.233100
 31
0.0
  0
LINE
  5
195
100
AcDbEntity
  8
Layer_1
 62
7
100
AcDbLine
 10
164.379840
 20
260.233100
 30
0.0
 11
163.288390
 21
243.762200
 31
0.0
  0
LINE
  5
196
100
AcDbEntity
  8
Layer_1
 62
7
100
AcDbLine
 10
163.288390
 20
243.762200
 30
0.0
 11
162.345780
 21
227.291300
 31
0.0
  0
LINE
  5
197
100
AcDbEntity
  8
Layer_1
 62
7
100
AcDbLine
 10
162.345780
 20
227.291300
 30
0.0
 11
161.948890
 21
219.055850
 31
0.0
  0
LINE
  5
198
100
AcDbEntity
  8
Layer_1
 62
7
100
AcDbLine
 10
161.948890
 20
219.055850
 30
0.0
 11
161.651220
 21
210.820400
 31
0.0
  0
LINE
  5
199
100
AcDbEntity
  8
Layer_1
 62
7
100
AcDbLine
 10
161.651220
 20
210.820400
 30
0.0
 11
161.353560
 21
202.584950
 31
0.0
  0
LINE
  5
19a
100
AcDbEntity
  8
Layer_1
 62
7
100
AcDbLine
 10
161.353560
 20
202.584950
 30
0.0
 11
161.155110
 21
194.349510
 31
0.0
  0
LINE
  5
19b
100
AcDbEntity
  8
Layer_1
 62
7
100
AcDbLine
 10
161.155110
 20
194.349510
 30
0.0
 11
161.006280
 21
186.114060
 31
0.0
  0
LINE
  5
19c
100
AcDbEntity
  8
Layer_1
 62
7
100
AcDbLine
 10
161.006280
 20
186.114060
 30
0.0
 11
161.006280
 21
177.878610
 31
0.0
  0
LINE
  5
19d
100
AcDbEntity
  8
Layer_1
 62
7
100
AcDbLine
 10
161.006280
 20
177.878610
 30
0.0
 11
161.055880
 21
169.643160
 31
0.0
  0
LINE
  5
19e
100
AcDbEntity
  8
Layer_1
 62
7
100
AcDbLine
 10
161.055880
 20
169.643160
 30
0.0
 11
161.254320
 21
161.407710
 31
0.0
  0
LINE
  5
19f
100
AcDbEntity
  8
Layer_1
 62
7
100
AcDbLine
 10
161.254320
 20
161.407710
 30
0.0
 11
161.601600
 21
153.172260
 31
0.0
  0
LINE
  5
1a0
100
AcDbEntity
  8
Layer_1
 62
7
100
AcDbLine
 10
161.601600
 20
153.172260
 30
0.0
 11
161.849660
 21
149.054530
 31
0.0
  0
LINE
  5
1a1
100
AcDbEntity
  8
Layer_1
 62
7
100
AcDbLine
 10
161.849660
 20
149.054530
 30
0.0
 11
162.147320
 21
144.936810
 31
0.0
  0
LINE
  5
1a2
100
AcDbEntity
  8
Layer_1
 62
7
100
AcDbLine
 10
162.147320
 20
144.936810
 30
0.0
 11
162.544210
 21
140.868700
 31
0.0
  0
LINE
  5
1a3
100
AcDbEntity
  8
Layer_1
 62
7
100
AcDbLine
 10
162.544210
 20
140.868700
 30
0.0
 11
162.990710
 21
136.750970
 31
0.0
  0
LINE
  5
1a4
100
AcDbEntity
  8
Layer_1
 62
7
100
AcDbLine
 10
162.990710
 20
136.750970
 30
0.0
 11
163.586050
 21
132.682860
 31
0.0
  0
LINE
  5
1a5
100
AcDbEntity
  8
Layer_1
 62
7
100
AcDbLine
 10
163.586050
 20
132.682860
 30
0.0
 11
164.230990
 21
128.565130
 31
0.0
  0
LINE
  5
1a6
100
AcDbEntity
  8
Layer_1
 62
7
100
AcDbLine
 10
164.230990
 20
128.565130
 30
0.0
 11
165.024770
 21
124.497020
 31
0.0
  0
LINE
  5
1a7
100
AcDbEntity
  8
Layer_1
 62
7
100
AcDbLine
 10
165.024770
 20
124.497020
 30
0.0
 11
165.471270
 21
122.512570
 31
0.0
  0
LINE
  5
1a8
100
AcDbEntity
  8
Layer_1
 62
7
100
AcDbLine
 10
165.471270
 20
122.512570
 30
0.0
 11
166.016990
 21
120.478520
 31
0.0
  0
LINE
  5
1a9
100
AcDbEntity
  8
Layer_1
 62
7
100
AcDbLine
 10
166.016990
 20
120.478520
 30
0.0
 11
166.612330
 21
118.543680
 31
0.0
  0
LINE
  5
1aa
100
AcDbEntity
  8
Layer_1
 62
7
100
AcDbLine
 10
166.612330
 20
118.543680
 30
0.0
 11
167.356490
 21
116.608850
 31
0.0
  0
LINE
  5
1ab
100
AcDbEntity
  8
Layer_1
 62
7
100
AcDbLine
 10
167.356490
 20
116.608850
 30
0.0
 11
168.199880
 21
114.723630
 31
0.0
  0
LINE
  5
1ac
100
AcDbEntity
  8
Layer_1
 62
7
100
AcDbLine
 10
168.199880
 20
114.723630
 30
0.0
 11
169.142500
 21
112.888010
 31
0.0
  0
LINE
  5
1ad
100
AcDbEntity
  8
Layer_1
 62
7
100
AcDbLine
 10
169.142500
 20
112.888010
 30
0.0
 11
304.183990
 21
112.888010
 31
0.0
  0
LINE
  5
1ae
100
AcDbEntity
  8
Layer_1
 62
7
100
AcDbLine
 10
304.183990
 20
112.888010
 30
0.0
 11
302.844490
 21
120.478520
 31
0.0
  0
LINE
  5
1af
100
AcDbEntity
  8
Layer_1
 62
7
100
AcDbLine
 10
302.844490
 20
120.478520
 30
0.0
 11
301.554590
 21
128.118630
 31
0.0
  0
LINE
  5
1b0
100
AcDbEntity
  8
Layer_1
 62
7
100
AcDbLine
 10
301.554590
 20
128.118630
 30
0.0
 11
300.413590
 21
135.709140
 31
0.0
  0
LINE
  5
1b1
100
AcDbEntity
  8
Layer_1
 62
7
100
AcDbLine
 10
300.413590
 20
135.709140
 30
0.0
 11
299.371690
 21
143.398860
 31
0.0
  0
LINE
  5
1b2
100
AcDbEntity
  8
Layer_1
 62
7
100
AcDbLine
 10
299.371690
 20
143.398860
 30
0.0
 11
298.478690
 21
151.038980
 31
0.0
  0
LINE
  5
1b3
100
AcDbEntity
  8
Layer_1
 62
7
100
AcDbLine
 10
298.478690
 20
151.038980
 30
0.0
 11
297.784190
 21
158.728710
 31
0.0
  0
LINE
  5
1b4
100
AcDbEntity
  8
Layer_1
 62
7
100
AcDbLine
 10
297.784190
 20
158.728710
 30
0.0
 11
297.238490
 21
166.418430
 31
0.0
  0
LINE
  5
1b5
100
AcDbEntity
  8
Layer_1
 62
7
100
AcDbLine
 10
297.238490
 20
166.418430
 30
0.0
 11
296.891190
 21
174.157770
 31
0.0
  0
LINE
  5
1b6
100
AcDbEntity
  8
Layer_1
 62
7
100
AcDbLine
 10
296.891190
 20
174.157770
 30
0.0
 11
296.742390
 21
181.847500
 31
0.0
  0
LINE
  5
1b7
100
AcDbEntity
  8
Layer_1
 62
7
100
AcDbLine
 10
296.742390
 20
181.847500
 30
0.0
 11
296.692390
 21
189.586840
 31
0.0
  0
LINE
  5
1b8
100
AcDbEntity
  8
Layer_1
 62
7
100
AcDbLine
 10
296.692390
 20
189.586840
 30
0.0
 11
296.791390
 21
197.276560
 31
0.0
  0
LINE
  5
1b9
100
AcDbEntity
  8
Layer_1
 62
7
100
AcDbLine
 10
296.791390
 20
197.276560
 30
0.0
 11
296.989790
 21
205.015900
 31
0.0
  0
LINE
  5
1ba
100
AcDbEntity
  8
Layer_1
 62
7
100
AcDbLine
 10
296.989790
 20
205.015900
 30
0.0
 11
297.337090
 21
212.705630
 31
0.0
  0
LINE
  5
1bb
100
AcDbEntity
  8
Layer_1
 62
7
100
AcDbLine
 10
297.337090
 20
212.705630
 30
0.0
 11
297.684390
 21
220.444970
 31
0.0
  0
LINE
  5
1bc
100
AcDbEntity
  8
Layer_1
 62
7
100
AcDbLine
 10
297.684390
 20
220.444970
 30
0.0
 11
298.130890
 21
228.134690
 31
0.0
  0
LINE
  5
1bd
100
AcDbEntity
  8
Layer_1
 62
7
100
AcDbLine
 10
298.130890
 20
228.134690
 30
0.0
 11
298.626990
 21
235.824420
 31
0.0
  0
LINE
  5
1be
100
AcDbEntity
  8
Layer_1
 62
7
100
AcDbLine
 10
298.626990
 20
235.824420
 30
0.0
 11
299.767990
 21
251.203870
 31
0.0
  0
LINE
  5
1bf
100
AcDbEntity
  8
Layer_1
 62
7
100
AcDbLine
 10
299.767990
 20
251.203870
 30
0.0
 11
301.057890
 21
266.583330
 31
0.0
  0
LINE
  5
1c0
100
AcDbEntity
  8
Layer_1
 62
7
100
AcDbLine
 10
301.057890
 20
266.583330
 30
0.0
 11
302.397390
 21
281.962780
 31
0.0
  0
LINE
  5
1c1
100
AcDbEntity
  8
Layer_1
 62
7
100
AcDbLine
 10
302.397390
 20
281.962780
 30
0.0
 11
303.836090
 21
297.342230
 31
0.0
  0
LINE
  5
1c2
100
AcDbEntity
  8
Layer_1
 62
7
100
AcDbLine
 10
303.836090
 20
297.342230
 30
0.0
 11
306.812790
 21
328.051530
 31
0.0
  0
LINE
  5
1c3
100
AcDbEntity
  8
Layer_1
 62
7
100
AcDbLine
 10
306.812790
 20
328.051530
 30
0.0
 11
309.888690
 21
358.760820
 31
0.0
  0
LINE
  5
1c4
100
AcDbEntity
  8
Layer_1
 62
3
100
AcDbLine
 10
169.043260
 20
316.343330
 30
0.0
 11
304.084790
 21
300.120510
 31
0.0
  0
LINE
  5
1c5
100
AcDbEntity
  8
Layer_1
 62
7
100
AcDbLine
 10
40.983124
 20
102.307089
 30
0.0
 11
16.921732
 21
78.543354
 31
0.0
  0
LINE
  5
1c6
100
AcDbEntity
  8
Layer_1
 62
7
100
AcDbLine
 10
336.764750
 20
78.493742
 30
0.0
 11
312.455284
 21
102.307089
 31
0.0
  0
LINE
  5
1c7
100
AcDbEntity
  8
Layer_1
 62
7
100
AcDbLine
 10
202.864272
 20
25.856321
 30
0.0
 11
202.814657
 21
12.610148
 31
0.0
  0
LINE
  5
1c8
100
AcDbEntity
  8
Layer_1
 62
7
100
AcDbLine
 10
149.581928
 20
12.213259
 30
0.0
 11
149.631514
 21
25.856321
 31
0.0
  0
SPLINE
  5
1c9
100
AcDbEntity
  8
Layer_1
 62
7
100
AcDbSpline
 70
8
 71
3
 72
8
 73
4
 74
0
 40
0
 40
0
 40
0
 40
0
 40
1
 40
1
 40
1
 40
1
 10
40.980951
 20
102.277199
 30
0.0
 10
76.286472
 20
65.151957
 30
0.0
 10
125.499058
 20
44.468273
 30
0.0
 10
176.725893
 20
45.224674
 30
0.0
  0
SPLINE
  5
1ca
100
AcDbEntity
  8
Layer_1
 62
7
100
AcDbSpline
 70
8
 71
3
 72
8
 73
4
 74
0
 40
0
 40
0
 40
0
 40
0
 40
1
 40
1
 40
1
 40
1
 10
176.691405
 20
45.221598
 30
0.0
 10
227.637993
 20
45.890792
 30
0.0
 10
276.325900
 20
66.353936
 30
0.0
 10
312.453703
 20
102.281410
 30
0.0
  0
LINE
  5
1cb
100
AcDbEntity
  8
Layer_1
 62
7
100
AcDbLine
 10
202.864272
 20
25.856321
 30
0.0
 11
149.631514
 21
25.856321
 31
0.0
  0
SPLINE
  5
1cc
100
AcDbEntity
  8
Layer_1
 62
7
100
AcDbSpline
 70
8
 71
3
 72
8
 73
4
 74
0
 40
0
 40
0
 40
0
 40
0
 40
1
 40
1
 40
1
 40
1
 10
16.899493
 20
78.526906
 30
0.0
 10
51.831888
 20
41.339671
 30
0.0
 10
98.873677
 20
17.818906
 30
0.0
 10
149.582888
 20
12.185519
 30
0.0
  0
SPLINE
  5
1cd
100
AcDbEntity
  8
Layer_1
 62
7
100
AcDbSpline
 70
8
 71
3
 72
8
 73
4
 74
0
 40
0
 40
0
 40
0
 40
0
 40
1
 40
1
 40
1
 40
1
 10
202.812145
 20
12.592560
 30
0.0
 10
253.506031
 20
19.156129
 30
0.0
 10
300.604462
 20
42.305853
 30
0.0
 10
336.767007
 20
78.433710
 30
0.0
  0
LINE
  5
1ce
100
AcDbEntity
  8
Layer_1
 62
7
100
AcDbLine
 10
314.602468
 20
142.396053
 30
0.0
 11
323.532488
 21
132.027321
 31
0.0
  0
LINE
  5
1cf
100
AcDbEntity
  8
Layer_1
 62
7
100
AcDbLine
 10
323.532488
 20
43.074543
 30
0.0
 11
314.602468
 21
32.656196
 31
0.0
  0
LINE
  5
1d0
100
AcDbEntity
  8
Layer_1
 62
7
100
AcDbLine
 10
314.602468
 20
32.656196
 30
0.0
 11
318.869048
 21
29.778743
 31
0.0
  0
LINE
  5
1d1
100
AcDbEntity
  8
Layer_1
 62
7
100
AcDbLine
 10
318.869048
 20
29.778743
 30
0.0
 11
321.051924
 21
28.389645
 31
0.0
  0
LINE
  5
1d2
100
AcDbEntity
  8
Layer_1
 62
7
100
AcDbLine
 10
321.051924
 20
28.389645
 30
0.0
 11
323.234828
 21
27.050134
 31
0.0
  0
LINE
  5
1d3
100
AcDbEntity
  8
Layer_1
 62
7
100
AcDbLine
 10
323.234828
 20
27.050134
 30
0.0
 11
325.516933
 21
25.859467
 31
0.0
  0
LINE
  5
1d4
100
AcDbEntity
  8
Layer_1
 62
7
100
AcDbLine
 10
325.516933
 20
25.859467
 30
0.0
 11
327.799039
 21
24.718414
 31
0.0
  0
LINE
  5
1d5
100
AcDbEntity
  8
Layer_1
 62
7
100
AcDbLine
 10
327.799039
 20
24.718414
 30
0.0
 11
330.180376
 21
23.676590
 31
0.0
  0
LINE
  5
1d6
100
AcDbEntity
  8
Layer_1
 62
7
100
AcDbLine
 10
330.180376
 20
23.676590
 30
0.0
 11
332.561711
 21
22.733968
 31
0.0
  0
LINE
  5
1d7
100
AcDbEntity
  8
Layer_1
 62
7
100
AcDbLine
 10
332.561711
 20
22.733968
 30
0.0
 11
334.992658
 21
21.840961
 31
0.0
  0
LINE
  5
1d8
100
AcDbEntity
  8
Layer_1
 62
7
100
AcDbLine
 10
334.992658
 20
21.840961
 30
0.0
 11
337.473213
 21
21.096797
 31
0.0
  0
LINE
  5
1d9
100
AcDbEntity
  8
Layer_1
 62
7
100
AcDbLine
 10
337.473213
 20
21.096797
 30
0.0
 11
339.953772
 21
20.402248
 31
0.0
  0
LINE
  5
1da
100
AcDbEntity
  8
Layer_1
 62
7
100
AcDbLine
 10
339.953772
 20
20.402248
 30
0.0
 11
342.434327
 21
19.757286
 31
0.0
  0
LINE
  5
1db
100
AcDbEntity
  8
Layer_1
 62
7
100
AcDbLine
 10
342.434327
 20
19.757286
 30
0.0
 11
344.964497
 21
19.261195
 31
0.0
  0
LINE
  5
1dc
100
AcDbEntity
  8
Layer_1
 62
7
100
AcDbLine
 10
344.964497
 20
19.261195
 30
0.0
 11
347.494665
 21
18.814692
 31
0.0
  0
LINE
  5
1dd
100
AcDbEntity
  8
Layer_1
 62
7
100
AcDbLine
 10
347.494665
 20
18.814692
 30
0.0
 11
350.074444
 21
18.467417
 31
0.0
  0
LINE
  5
1de
100
AcDbEntity
  8
Layer_1
 62
7
100
AcDbLine
 10
350.074444
 20
18.467417
 30
0.0
 11
352.654223
 21
18.219344
 31
0.0
  0
LINE
  5
1df
100
AcDbEntity
  8
Layer_1
 62
7
100
AcDbLine
 10
352.654223
 20
18.219344
 30
0.0
 11
355.184391
 21
18.020913
 31
0.0
  0
LINE
  5
1e0
100
AcDbEntity
  8
Layer_1
 62
7
100
AcDbLine
 10
355.184391
 20
18.020913
 30
0.0
 11
357.764170
 21
17.921684
 31
0.0
  0
LINE
  5
1e1
100
AcDbEntity
  8
Layer_1
 62
7
100
AcDbLine
 10
357.764170
 20
17.921684
 30
0.0
 11
360.343949
 21
17.921684
 31
0.0
  0
LINE
  5
1e2
100
AcDbEntity
  8
Layer_1
 62
7
100
AcDbLine
 10
360.343949
 20
17.921684
 30
0.0
 11
362.923729
 21
18.020913
 31
0.0
  0
LINE
  5
1e3
100
AcDbEntity
  8
Layer_1
 62
7
100
AcDbLine
 10
362.923729
 20
18.020913
 30
0.0
 11
365.503508
 21
18.219344
 31
0.0
  0
LINE
  5
1e4
100
AcDbEntity
  8
Layer_1
 62
7
100
AcDbLine
 10
365.503508
 20
18.219344
 30
0.0
 11
368.083287
 21
18.467417
 31
0.0
  0
LINE
  5
1e5
100
AcDbEntity
  8
Layer_1
 62
7
100
AcDbLine
 10
368.083287
 20
18.467417
 30
0.0
 11
370.663067
 21
18.814692
 31
0.0
  0
LINE
  5
1e6
100
AcDbEntity
  8
Layer_1
 62
7
100
AcDbLine
 10
370.663067
 20
18.814692
 30
0.0
 11
373.193234
 21
19.261195
 31
0.0
  0
LINE
  5
1e7
100
AcDbEntity
  8
Layer_1
 62
7
100
AcDbLine
 10
373.193234
 20
19.261195
 30
0.0
 11
375.723404
 21
19.806900
 31
0.0
  0
LINE
  5
1e8
100
AcDbEntity
  8
Layer_1
 62
7
100
AcDbLine
 10
375.723404
 20
19.806900
 30
0.0
 11
378.203960
 21
20.451863
 31
0.0
  0
LINE
  5
1e9
100
AcDbEntity
  8
Layer_1
 62
7
100
AcDbLine
 10
378.203960
 20
20.451863
 30
0.0
 11
380.684518
 21
21.146412
 31
0.0
  0
LINE
  5
1ea
100
AcDbEntity
  8
Layer_1
 62
7
100
AcDbLine
 10
380.684518
 20
21.146412
 30
0.0
 11
383.165074
 21
21.940190
 31
0.0
  0
LINE
  5
1eb
100
AcDbEntity
  8
Layer_1
 62
7
100
AcDbLine
 10
383.165074
 20
21.940190
 30
0.0
 11
385.596021
 21
22.783583
 31
0.0
  0
LINE
  5
1ec
100
AcDbEntity
  8
Layer_1
 62
7
100
AcDbLine
 10
385.596021
 20
22.783583
 30
0.0
 11
387.977355
 21
23.775792
 31
0.0
  0
LINE
  5
1ed
100
AcDbEntity
  8
Layer_1
 62
7
100
AcDbLine
 10
387.977355
 20
23.775792
 30
0.0
 11
390.358690
 21
24.817643
 31
0.0
  0
LINE
  5
1ee
100
AcDbEntity
  8
Layer_1
 62
7
100
AcDbLine
 10
390.358690
 20
24.817643
 30
0.0
 11
392.640801
 21
25.909081
 31
0.0
  0
LINE
  5
1ef
100
AcDbEntity
  8
Layer_1
 62
7
100
AcDbLine
 10
392.640801
 20
25.909081
 30
0.0
 11
394.922915
 21
27.099749
 31
0.0
  0
LINE
  5
1f0
100
AcDbEntity
  8
Layer_1
 62
7
100
AcDbLine
 10
394.922915
 20
27.099749
 30
0.0
 11
397.205026
 21
28.389645
 31
0.0
  0
LINE
  5
1f1
100
AcDbEntity
  8
Layer_1
 62
7
100
AcDbLine
 10
397.205026
 20
28.389645
 30
0.0
 11
399.387916
 21
29.729128
 31
0.0
  0
LINE
  5
1f2
100
AcDbEntity
  8
Layer_1
 62
7
100
AcDbLine
 10
399.387916
 20
29.729128
 30
0.0
 11
401.521197
 21
31.167869
 31
0.0
  0
LINE
  5
1f3
100
AcDbEntity
  8
Layer_1
 62
7
100
AcDbLine
 10
401.521197
 20
31.167869
 30
0.0
 11
403.654476
 21
32.656196
 31
0.0
  0
LINE
  5
1f4
100
AcDbEntity
  8
Layer_1
 62
7
100
AcDbLine
 10
403.654476
 20
32.656196
 30
0.0
 11
405.688533
 21
34.194138
 31
0.0
  0
LINE
  5
1f5
100
AcDbEntity
  8
Layer_1
 62
7
100
AcDbLine
 10
405.688533
 20
34.194138
 30
0.0
 11
407.672979
 21
35.831309
 31
0.0
  0
LINE
  5
1f6
100
AcDbEntity
  8
Layer_1
 62
7
100
AcDbLine
 10
407.672979
 20
35.831309
 30
0.0
 11
409.657424
 21
37.567710
 31
0.0
  0
LINE
  5
1f7
100
AcDbEntity
  8
Layer_1
 62
7
100
AcDbLine
 10
409.657424
 20
37.567710
 30
0.0
 11
411.542646
 21
39.304082
 31
0.0
  0
LINE
  5
1f8
100
AcDbEntity
  8
Layer_1
 62
7
100
AcDbLine
 10
411.542646
 20
39.304082
 30
0.0
 11
413.328647
 21
41.139712
 31
0.0
  0
LINE
  5
1f9
100
AcDbEntity
  8
Layer_1
 62
7
100
AcDbLine
 10
413.328647
 20
41.139712
 30
0.0
 11
415.114648
 21
43.024928
 31
0.0
  0
LINE
  5
1fa
100
AcDbEntity
  8
Layer_1
 62
7
100
AcDbLine
 10
415.114648
 20
43.024928
 30
0.0
 11
416.801429
 21
45.009374
 31
0.0
  0
LINE
  5
1fb
100
AcDbEntity
  8
Layer_1
 62
7
100
AcDbLine
 10
416.801429
 20
45.009374
 30
0.0
 11
418.438597
 21
46.993819
 31
0.0
  0
LINE
  5
1fc
100
AcDbEntity
  8
Layer_1
 62
7
100
AcDbLine
 10
418.438597
 20
46.993819
 30
0.0
 11
419.976541
 21
49.077494
 31
0.0
  0
LINE
  5
1fd
100
AcDbEntity
  8
Layer_1
 62
7
100
AcDbLine
 10
419.976541
 20
49.077494
 30
0.0
 11
421.464874
 21
51.161141
 31
0.0
  0
LINE
  5
1fe
100
AcDbEntity
  8
Layer_1
 62
7
100
AcDbLine
 10
421.464874
 20
51.161141
 30
0.0
 11
422.853986
 21
53.344045
 31
0.0
  0
LINE
  5
1ff
100
AcDbEntity
  8
Layer_1
 62
7
100
AcDbLine
 10
422.853986
 20
53.344045
 30
0.0
 11
424.193489
 21
55.526921
 31
0.0
  0
LINE
  5
200
100
AcDbEntity
  8
Layer_1
 62
7
100
AcDbLine
 10
424.193489
 20
55.526921
 30
0.0
 11
425.433766
 21
57.809055
 31
0.0
  0
LINE
  5
201
100
AcDbEntity
  8
Layer_1
 62
7
100
AcDbLine
 10
425.433766
 20
57.809055
 30
0.0
 11
426.624433
 21
60.091160
 31
0.0
  0
LINE
  5
202
100
AcDbEntity
  8
Layer_1
 62
7
100
AcDbLine
 10
426.624433
 20
60.091160
 30
0.0
 11
427.666268
 21
62.422880
 31
0.0
  0
LINE
  5
203
100
AcDbEntity
  8
Layer_1
 62
7
100
AcDbLine
 10
427.666268
 20
62.422880
 30
0.0
 11
428.708102
 21
64.804215
 31
0.0
  0
LINE
  5
204
100
AcDbEntity
  8
Layer_1
 62
7
100
AcDbLine
 10
428.708102
 20
64.804215
 30
0.0
 11
429.601101
 21
67.235165
 31
0.0
  0
LINE
  5
205
100
AcDbEntity
  8
Layer_1
 62
7
100
AcDbLine
 10
429.601101
 20
67.235165
 30
0.0
 11
430.444491
 21
69.666114
 31
0.0
  0
LINE
  5
206
100
AcDbEntity
  8
Layer_1
 62
7
100
AcDbLine
 10
430.444491
 20
69.666114
 30
0.0
 11
431.238270
 21
72.097063
 31
0.0
  0
LINE
  5
207
100
AcDbEntity
  8
Layer_1
 62
7
100
AcDbLine
 10
431.238270
 20
72.097063
 30
0.0
 11
431.883215
 21
74.627214
 31
0.0
  0
LINE
  5
208
100
AcDbEntity
  8
Layer_1
 62
7
100
AcDbLine
 10
431.883215
 20
74.627214
 30
0.0
 11
432.478549
 21
77.107778
 31
0.0
  0
LINE
  5
209
100
AcDbEntity
  8
Layer_1
 62
7
100
AcDbLine
 10
432.478549
 20
77.107778
 30
0.0
 11
432.974659
 21
79.637957
 31
0.0
  0
LINE
  5
20a
100
AcDbEntity
  8
Layer_1
 62
7
100
AcDbLine
 10
432.974659
 20
79.637957
 30
0.0
 11
433.371548
 21
82.217722
 31
0.0
  0
LINE
  5
20b
100
AcDbEntity
  8
Layer_1
 62
7
100
AcDbLine
 10
433.371548
 20
82.217722
 30
0.0
 11
433.669216
 21
84.747901
 31
0.0
  0
LINE
  5
20c
100
AcDbEntity
  8
Layer_1
 62
7
100
AcDbLine
 10
433.669216
 20
84.747901
 30
0.0
 11
433.867661
 21
87.327666
 31
0.0
  0
LINE
  5
20d
100
AcDbEntity
  8
Layer_1
 62
7
100
AcDbLine
 10
433.867661
 20
87.327666
 30
0.0
 11
434.016493
 21
89.907459
 31
0.0
  0
LINE
  5
20e
100
AcDbEntity
  8
Layer_1
 62
7
100
AcDbLine
 10
434.016493
 20
89.907459
 30
0.0
 11
434.066105
 21
92.487224
 31
0.0
  0
LINE
  5
20f
100
AcDbEntity
  8
Layer_1
 62
7
100
AcDbLine
 10
434.066105
 20
92.487224
 30
0.0
 11
434.016493
 21
95.067018
 31
0.0
  0
LINE
  5
210
100
AcDbEntity
  8
Layer_1
 62
7
100
AcDbLine
 10
434.016493
 20
95.067018
 30
0.0
 11
433.867661
 21
97.646783
 31
0.0
  0
LINE
  5
211
100
AcDbEntity
  8
Layer_1
 62
7
100
AcDbLine
 10
433.867661
 20
97.646783
 30
0.0
 11
433.619604
 21
100.226576
 31
0.0
  0
LINE
  5
212
100
AcDbEntity
  8
Layer_1
 62
7
100
AcDbLine
 10
433.619604
 20
100.226576
 30
0.0
 11
433.272327
 21
102.756727
 31
0.0
  0
LINE
  5
213
100
AcDbEntity
  8
Layer_1
 62
7
100
AcDbLine
 10
433.272327
 20
102.756727
 30
0.0
 11
432.875438
 21
105.336520
 31
0.0
  0
LINE
  5
214
100
AcDbEntity
  8
Layer_1
 62
7
100
AcDbLine
 10
432.875438
 20
105.336520
 30
0.0
 11
432.329716
 21
107.866671
 31
0.0
  0
LINE
  5
215
100
AcDbEntity
  8
Layer_1
 62
7
100
AcDbLine
 10
432.329716
 20
107.866671
 30
0.0
 11
431.734380
 21
110.347235
 31
0.0
  0
LINE
  5
216
100
AcDbEntity
  8
Layer_1
 62
7
100
AcDbLine
 10
431.734380
 20
110.347235
 30
0.0
 11
431.039825
 21
112.827799
 31
0.0
  0
LINE
  5
217
100
AcDbEntity
  8
Layer_1
 62
7
100
AcDbLine
 10
431.039825
 20
112.827799
 30
0.0
 11
430.246047
 21
115.308363
 31
0.0
  0
LINE
  5
218
100
AcDbEntity
  8
Layer_1
 62
7
100
AcDbLine
 10
430.246047
 20
115.308363
 30
0.0
 11
429.402657
 21
117.689698
 31
0.0
  0
LINE
  5
219
100
AcDbEntity
  8
Layer_1
 62
7
100
AcDbLine
 10
429.402657
 20
117.689698
 30
0.0
 11
428.410434
 21
120.120647
 31
0.0
  0
LINE
  5
21a
100
AcDbEntity
  8
Layer_1
 62
7
100
AcDbLine
 10
428.410434
 20
120.120647
 30
0.0
 11
427.368602
 21
122.452367
 31
0.0
  0
LINE
  5
21b
100
AcDbEntity
  8
Layer_1
 62
7
100
AcDbLine
 10
427.368602
 20
122.452367
 30
0.0
 11
426.227544
 21
124.784087
 31
0.0
  0
LINE
  5
21c
100
AcDbEntity
  8
Layer_1
 62
7
100
AcDbLine
 10
426.227544
 20
124.784087
 30
0.0
 11
425.036876
 21
127.066193
 31
0.0
  0
LINE
  5
21d
100
AcDbEntity
  8
Layer_1
 62
7
100
AcDbLine
 10
425.036876
 20
127.066193
 30
0.0
 11
423.697376
 21
129.249097
 31
0.0
  0
LINE
  5
21e
100
AcDbEntity
  8
Layer_1
 62
7
100
AcDbLine
 10
423.697376
 20
129.249097
 30
0.0
 11
422.357876
 21
131.431973
 31
0.0
  0
LINE
  5
21f
100
AcDbEntity
  8
Layer_1
 62
7
100
AcDbLine
 10
422.357876
 20
131.431973
 30
0.0
 11
420.869541
 21
133.565263
 31
0.0
  0
LINE
  5
220
100
AcDbEntity
  8
Layer_1
 62
7
100
AcDbLine
 10
420.869541
 20
133.565263
 30
0.0
 11
419.331596
 21
135.648938
 31
0.0
  0
LINE
  5
221
100
AcDbEntity
  8
Layer_1
 62
7
100
AcDbLine
 10
419.331596
 20
135.648938
 30
0.0
 11
417.694428
 21
137.682970
 31
0.0
  0
LINE
  5
222
100
AcDbEntity
  8
Layer_1
 62
7
100
AcDbLine
 10
417.694428
 20
137.682970
 30
0.0
 11
416.007650
 21
139.617829
 31
0.0
  0
LINE
  5
223
100
AcDbEntity
  8
Layer_1
 62
7
100
AcDbLine
 10
416.007650
 20
139.617829
 30
0.0
 11
414.271258
 21
141.503045
 31
0.0
  0
LINE
  5
224
100
AcDbEntity
  8
Layer_1
 62
7
100
AcDbLine
 10
414.271258
 20
141.503045
 30
0.0
 11
412.435648
 21
143.338647
 31
0.0
  0
LINE
  5
225
100
AcDbEntity
  8
Layer_1
 62
7
100
AcDbLine
 10
412.435648
 20
143.338647
 30
0.0
 11
410.550423
 21
145.075047
 31
0.0
  0
LINE
  5
226
100
AcDbEntity
  8
Layer_1
 62
7
100
AcDbLine
 10
410.550423
 20
145.075047
 30
0.0
 11
408.565978
 21
146.761805
 31
0.0
  0
LINE
  5
227
100
AcDbEntity
  8
Layer_1
 62
7
100
AcDbLine
 10
408.565978
 20
146.761805
 30
0.0
 11
406.581532
 21
148.398976
 31
0.0
  0
LINE
  5
228
100
AcDbEntity
  8
Layer_1
 62
7
100
AcDbLine
 10
406.581532
 20
148.398976
 30
0.0
 11
404.497866
 21
149.936946
 31
0.0
  0
LINE
  5
229
100
AcDbEntity
  8
Layer_1
 62
7
100
AcDbLine
 10
404.497866
 20
149.936946
 30
0.0
 11
402.364587
 21
151.375658
 31
0.0
  0
LINE
  5
22a
100
AcDbEntity
  8
Layer_1
 62
7
100
AcDbLine
 10
402.364587
 20
151.375658
 30
0.0
 11
400.181697
 21
152.764756
 31
0.0
  0
LINE
  5
22b
100
AcDbEntity
  8
Layer_1
 62
7
100
AcDbLine
 10
400.181697
 20
152.764756
 30
0.0
 11
397.949195
 21
154.054653
 31
0.0
  0
LINE
  5
22c
100
AcDbEntity
  8
Layer_1
 62
7
100
AcDbLine
 10
397.949195
 20
154.054653
 30
0.0
 11
395.667081
 21
155.245320
 31
0.0
  0
LINE
  5
22d
100
AcDbEntity
  8
Layer_1
 62
7
100
AcDbLine
 10
395.667081
 20
155.245320
 30
0.0
 11
393.335358
 21
156.386373
 31
0.0
  0
LINE
  5
22e
100
AcDbEntity
  8
Layer_1
 62
7
100
AcDbLine
 10
393.335358
 20
156.386373
 30
0.0
 11
390.954024
 21
157.428225
 31
0.0
  0
LINE
  5
22f
100
AcDbEntity
  8
Layer_1
 62
7
100
AcDbLine
 10
390.954024
 20
157.428225
 30
0.0
 11
388.572689
 21
158.370819
 31
0.0
  0
LINE
  5
230
100
AcDbEntity
  8
Layer_1
 62
7
100
AcDbLine
 10
388.572689
 20
158.370819
 30
0.0
 11
386.141742
 21
159.214212
 31
0.0
  0
LINE
  5
231
100
AcDbEntity
  8
Layer_1
 62
7
100
AcDbLine
 10
386.141742
 20
159.214212
 30
0.0
 11
383.661187
 21
160.007990
 31
0.0
  0
LINE
  5
232
100
AcDbEntity
  8
Layer_1
 62
7
100
AcDbLine
 10
383.661187
 20
160.007990
 30
0.0
 11
381.180628
 21
160.652924
 31
0.0
  0
LINE
  5
233
100
AcDbEntity
  8
Layer_1
 62
7
100
AcDbLine
 10
381.180628
 20
160.652924
 30
0.0
 11
378.700073
 21
161.248272
 31
0.0
  0
LINE
  5
234
100
AcDbEntity
  8
Layer_1
 62
7
100
AcDbLine
 10
378.700073
 20
161.248272
 30
0.0
 11
376.120294
 21
161.744390
 31
0.0
  0
LINE
  5
235
100
AcDbEntity
  8
Layer_1
 62
7
100
AcDbLine
 10
376.120294
 20
161.744390
 30
0.0
 11
373.590123
 21
162.141279
 31
0.0
  0
LINE
  5
236
100
AcDbEntity
  8
Layer_1
 62
7
100
AcDbLine
 10
373.590123
 20
162.141279
 30
0.0
 11
371.010344
 21
162.438939
 31
0.0
  0
LINE
  5
237
100
AcDbEntity
  8
Layer_1
 62
7
100
AcDbLine
 10
371.010344
 20
162.438939
 30
0.0
 11
368.480176
 21
162.637398
 31
0.0
  0
LINE
  5
238
100
AcDbEntity
  8
Layer_1
 62
7
100
AcDbLine
 10
368.480176
 20
162.637398
 30
0.0
 11
365.900397
 21
162.736599
 31
0.0
  0
LINE
  5
239
100
AcDbEntity
  8
Layer_1
 62
7
100
AcDbLine
 10
365.900397
 20
162.736599
 30
0.0
 11
363.320618
 21
162.786214
 31
0.0
  0
LINE
  5
23a
100
AcDbEntity
  8
Layer_1
 62
7
100
AcDbLine
 10
363.320618
 20
162.786214
 30
0.0
 11
360.740839
 21
162.686984
 31
0.0
  0
LINE
  5
23b
100
AcDbEntity
  8
Layer_1
 62
7
100
AcDbLine
 10
360.740839
 20
162.686984
 30
0.0
 11
358.161059
 21
162.488554
 31
0.0
  0
LINE
  5
23c
100
AcDbEntity
  8
Layer_1
 62
7
100
AcDbLine
 10
358.161059
 20
162.488554
 30
0.0
 11
355.581280
 21
162.240481
 31
0.0
  0
LINE
  5
23d
100
AcDbEntity
  8
Layer_1
 62
7
100
AcDbLine
 10
355.581280
 20
162.240481
 30
0.0
 11
353.051113
 21
161.893206
 31
0.0
  0
LINE
  5
23e
100
AcDbEntity
  8
Layer_1
 62
7
100
AcDbLine
 10
353.051113
 20
161.893206
 30
0.0
 11
350.520945
 21
161.397116
 31
0.0
  0
LINE
  5
23f
100
AcDbEntity
  8
Layer_1
 62
7
100
AcDbLine
 10
350.520945
 20
161.397116
 30
0.0
 11
347.990775
 21
160.851383
 31
0.0
  0
LINE
  5
240
100
AcDbEntity
  8
Layer_1
 62
7
100
AcDbLine
 10
347.990775
 20
160.851383
 30
0.0
 11
345.510219
 21
160.256063
 31
0.0
  0
LINE
  5
241
100
AcDbEntity
  8
Layer_1
 62
7
100
AcDbLine
 10
345.510219
 20
160.256063
 30
0.0
 11
343.029664
 21
159.511871
 31
0.0
  0
LINE
  5
242
100
AcDbEntity
  8
Layer_1
 62
7
100
AcDbLine
 10
343.029664
 20
159.511871
 30
0.0
 11
340.598717
 21
158.718093
 31
0.0
  0
LINE
  5
243
100
AcDbEntity
  8
Layer_1
 62
7
100
AcDbLine
 10
340.598717
 20
158.718093
 30
0.0
 11
338.167770
 21
157.775499
 31
0.0
  0
LINE
  5
244
100
AcDbEntity
  8
Layer_1
 62
7
100
AcDbLine
 10
338.167770
 20
157.775499
 30
0.0
 11
335.786436
 21
156.783262
 31
0.0
  0
LINE
  5
245
100
AcDbEntity
  8
Layer_1
 62
7
100
AcDbLine
 10
335.786436
 20
156.783262
 30
0.0
 11
333.454713
 21
155.691824
 31
0.0
  0
LINE
  5
246
100
AcDbEntity
  8
Layer_1
 62
7
100
AcDbLine
 10
333.454713
 20
155.691824
 30
0.0
 11
331.172599
 21
154.550771
 31
0.0
  0
LINE
  5
247
100
AcDbEntity
  8
Layer_1
 62
7
100
AcDbLine
 10
331.172599
 20
154.550771
 30
0.0
 11
328.890488
 21
153.260875
 31
0.0
  0
LINE
  5
248
100
AcDbEntity
  8
Layer_1
 62
7
100
AcDbLine
 10
328.890488
 20
153.260875
 30
0.0
 11
326.707601
 21
151.970978
 31
0.0
  0
LINE
  5
249
100
AcDbEntity
  8
Layer_1
 62
7
100
AcDbLine
 10
326.707601
 20
151.970978
 30
0.0
 11
324.524696
 21
150.532266
 31
0.0
  0
LINE
  5
24a
100
AcDbEntity
  8
Layer_1
 62
7
100
AcDbLine
 10
324.524696
 20
150.532266
 30
0.0
 11
322.441050
 21
149.093553
 31
0.0
  0
LINE
  5
24b
100
AcDbEntity
  8
Layer_1
 62
7
100
AcDbLine
 10
322.441050
 20
149.093553
 30
0.0
 11
320.357375
 21
147.505997
 31
0.0
  0
LINE
  5
24c
100
AcDbEntity
  8
Layer_1
 62
7
100
AcDbLine
 10
320.357375
 20
147.505997
 30
0.0
 11
318.372929
 21
145.868825
 31
0.0
  0
LINE
  5
24d
100
AcDbEntity
  8
Layer_1
 62
7
100
AcDbLine
 10
318.372929
 20
145.868825
 30
0.0
 11
316.438098
 21
144.182040
 31
0.0
  0
LINE
  5
24e
100
AcDbEntity
  8
Layer_1
 62
7
100
AcDbLine
 10
316.438098
 20
144.182040
 30
0.0
 11
314.602468
 21
142.396053
 31
0.0
  0
LINE
  5
24f
100
AcDbEntity
  8
Layer_1
 62
7
100
AcDbLine
 10
323.532488
 20
132.027321
 30
0.0
 11
326.608371
 21
134.805545
 31
0.0
  0
LINE
  5
250
100
AcDbEntity
  8
Layer_1
 62
7
100
AcDbLine
 10
326.608371
 20
134.805545
 30
0.0
 11
328.245542
 21
136.145028
 31
0.0
  0
LINE
  5
251
100
AcDbEntity
  8
Layer_1
 62
7
100
AcDbLine
 10
328.245542
 20
136.145028
 30
0.0
 11
329.882711
 21
137.434925
 31
0.0
  0
LINE
  5
252
100
AcDbEntity
  8
Layer_1
 62
7
100
AcDbLine
 10
329.882711
 20
137.434925
 30
0.0
 11
331.569488
 21
138.625592
 31
0.0
  0
LINE
  5
253
100
AcDbEntity
  8
Layer_1
 62
7
100
AcDbLine
 10
331.569488
 20
138.625592
 30
0.0
 11
333.305877
 21
139.766645
 31
0.0
  0
LINE
  5
254
100
AcDbEntity
  8
Layer_1
 62
7
100
AcDbLine
 10
333.305877
 20
139.766645
 30
0.0
 11
335.141490
 21
140.808496
 31
0.0
  0
LINE
  5
255
100
AcDbEntity
  8
Layer_1
 62
7
100
AcDbLine
 10
335.141490
 20
140.808496
 30
0.0
 11
336.977103
 21
141.850320
 31
0.0
  0
LINE
  5
256
100
AcDbEntity
  8
Layer_1
 62
7
100
AcDbLine
 10
336.977103
 20
141.850320
 30
0.0
 11
338.812716
 21
142.792914
 31
0.0
  0
LINE
  5
257
100
AcDbEntity
  8
Layer_1
 62
7
100
AcDbLine
 10
338.812716
 20
142.792914
 30
0.0
 11
340.697938
 21
143.636306
 31
0.0
  0
LINE
  5
258
100
AcDbEntity
  8
Layer_1
 62
7
100
AcDbLine
 10
340.697938
 20
143.636306
 30
0.0
 11
342.632772
 21
144.479699
 31
0.0
  0
LINE
  5
259
100
AcDbEntity
  8
Layer_1
 62
7
100
AcDbLine
 10
342.632772
 20
144.479699
 30
0.0
 11
344.617217
 21
145.174277
 31
0.0
  0
LINE
  5
25a
100
AcDbEntity
  8
Layer_1
 62
7
100
AcDbLine
 10
344.617217
 20
145.174277
 30
0.0
 11
346.601666
 21
145.868825
 31
0.0
  0
LINE
  5
25b
100
AcDbEntity
  8
Layer_1
 62
7
100
AcDbLine
 10
346.601666
 20
145.868825
 30
0.0
 11
348.586109
 21
146.464145
 31
0.0
  0
LINE
  5
25c
100
AcDbEntity
  8
Layer_1
 62
7
100
AcDbLine
 10
348.586109
 20
146.464145
 30
0.0
 11
350.620166
 21
146.960263
 31
0.0
  0
LINE
  5
25d
100
AcDbEntity
  8
Layer_1
 62
7
100
AcDbLine
 10
350.620166
 20
146.960263
 30
0.0
 11
352.654223
 21
147.406767
 31
0.0
  0
LINE
  5
25e
100
AcDbEntity
  8
Layer_1
 62
7
100
AcDbLine
 10
352.654223
 20
147.406767
 30
0.0
 11
354.688281
 21
147.803656
 31
0.0
  0
LINE
  5
25f
100
AcDbEntity
  8
Layer_1
 62
7
100
AcDbLine
 10
354.688281
 20
147.803656
 30
0.0
 11
356.771947
 21
148.051701
 31
0.0
  0
LINE
  5
260
100
AcDbEntity
  8
Layer_1
 62
7
100
AcDbLine
 10
356.771947
 20
148.051701
 30
0.0
 11
358.855617
 21
148.299775
 31
0.0
  0
LINE
  5
261
100
AcDbEntity
  8
Layer_1
 62
7
100
AcDbLine
 10
358.855617
 20
148.299775
 30
0.0
 11
360.939283
 21
148.448591
 31
0.0
  0
LINE
  5
262
100
AcDbEntity
  8
Layer_1
 62
7
100
AcDbLine
 10
360.939283
 20
148.448591
 30
0.0
 11
363.022952
 21
148.498205
 31
0.0
  0
LINE
  5
263
100
AcDbEntity
  8
Layer_1
 62
7
100
AcDbLine
 10
363.022952
 20
148.498205
 30
0.0
 11
365.106619
 21
148.498205
 31
0.0
  0
LINE
  5
264
100
AcDbEntity
  8
Layer_1
 62
7
100
AcDbLine
 10
365.106619
 20
148.498205
 30
0.0
 11
367.190288
 21
148.398976
 31
0.0
  0
LINE
  5
265
100
AcDbEntity
  8
Layer_1
 62
7
100
AcDbLine
 10
367.190288
 20
148.398976
 30
0.0
 11
369.273955
 21
148.250160
 31
0.0
  0
LINE
  5
266
100
AcDbEntity
  8
Layer_1
 62
7
100
AcDbLine
 10
369.273955
 20
148.250160
 30
0.0
 11
371.357624
 21
148.002087
 31
0.0
  0
LINE
  5
267
100
AcDbEntity
  8
Layer_1
 62
7
100
AcDbLine
 10
371.357624
 20
148.002087
 30
0.0
 11
373.441291
 21
147.654812
 31
0.0
  0
LINE
  5
268
100
AcDbEntity
  8
Layer_1
 62
7
100
AcDbLine
 10
373.441291
 20
147.654812
 30
0.0
 11
375.475348
 21
147.257923
 31
0.0
  0
LINE
  5
269
100
AcDbEntity
  8
Layer_1
 62
7
100
AcDbLine
 10
375.475348
 20
147.257923
 30
0.0
 11
377.509405
 21
146.811419
 31
0.0
  0
LINE
  5
26a
100
AcDbEntity
  8
Layer_1
 62
7
100
AcDbLine
 10
377.509405
 20
146.811419
 30
0.0
 11
379.543463
 21
146.216100
 31
0.0
  0
LINE
  5
26b
100
AcDbEntity
  8
Layer_1
 62
7
100
AcDbLine
 10
379.543463
 20
146.216100
 30
0.0
 11
381.527906
 21
145.620752
 31
0.0
  0
LINE
  5
26c
100
AcDbEntity
  8
Layer_1
 62
7
100
AcDbLine
 10
381.527906
 20
145.620752
 30
0.0
 11
383.462742
 21
144.926203
 31
0.0
  0
LINE
  5
26d
100
AcDbEntity
  8
Layer_1
 62
7
100
AcDbLine
 10
383.462742
 20
144.926203
 30
0.0
 11
385.447188
 21
144.132425
 31
0.0
  0
LINE
  5
26e
100
AcDbEntity
  8
Layer_1
 62
7
100
AcDbLine
 10
385.447188
 20
144.132425
 30
0.0
 11
387.332410
 21
143.338647
 31
0.0
  0
LINE
  5
26f
100
AcDbEntity
  8
Layer_1
 62
7
100
AcDbLine
 10
387.332410
 20
143.338647
 30
0.0
 11
389.217635
 21
142.396053
 31
0.0
  0
LINE
  5
270
100
AcDbEntity
  8
Layer_1
 62
7
100
AcDbLine
 10
389.217635
 20
142.396053
 30
0.0
 11
391.053245
 21
141.453430
 31
0.0
  0
LINE
  5
271
100
AcDbEntity
  8
Layer_1
 62
7
100
AcDbLine
 10
391.053245
 20
141.453430
 30
0.0
 11
392.888857
 21
140.411579
 31
0.0
  0
LINE
  5
272
100
AcDbEntity
  8
Layer_1
 62
7
100
AcDbLine
 10
392.888857
 20
140.411579
 30
0.0
 11
394.674859
 21
139.270526
 31
0.0
  0
LINE
  5
273
100
AcDbEntity
  8
Layer_1
 62
7
100
AcDbLine
 10
394.674859
 20
139.270526
 30
0.0
 11
396.361639
 21
138.079859
 31
0.0
  0
LINE
  5
274
100
AcDbEntity
  8
Layer_1
 62
7
100
AcDbLine
 10
396.361639
 20
138.079859
 30
0.0
 11
398.048416
 21
136.839605
 31
0.0
  0
LINE
  5
275
100
AcDbEntity
  8
Layer_1
 62
7
100
AcDbLine
 10
398.048416
 20
136.839605
 30
0.0
 11
399.685584
 21
135.549708
 31
0.0
  0
LINE
  5
276
100
AcDbEntity
  8
Layer_1
 62
7
100
AcDbLine
 10
399.685584
 20
135.549708
 30
0.0
 11
401.273141
 21
134.210197
 31
0.0
  0
LINE
  5
277
100
AcDbEntity
  8
Layer_1
 62
7
100
AcDbLine
 10
401.273141
 20
134.210197
 30
0.0
 11
402.811086
 21
132.771484
 31
0.0
  0
LINE
  5
278
100
AcDbEntity
  8
Layer_1
 62
7
100
AcDbLine
 10
402.811086
 20
132.771484
 30
0.0
 11
404.299421
 21
131.283129
 31
0.0
  0
LINE
  5
279
100
AcDbEntity
  8
Layer_1
 62
7
100
AcDbLine
 10
404.299421
 20
131.283129
 30
0.0
 11
405.738142
 21
129.745187
 31
0.0
  0
LINE
  5
27a
100
AcDbEntity
  8
Layer_1
 62
7
100
AcDbLine
 10
405.738142
 20
129.745187
 30
0.0
 11
407.077645
 21
128.207245
 31
0.0
  0
LINE
  5
27b
100
AcDbEntity
  8
Layer_1
 62
7
100
AcDbLine
 10
407.077645
 20
128.207245
 30
0.0
 11
408.367533
 21
126.570074
 31
0.0
  0
LINE
  5
27c
100
AcDbEntity
  8
Layer_1
 62
7
100
AcDbLine
 10
408.367533
 20
126.570074
 30
0.0
 11
409.607812
 21
124.883317
 31
0.0
  0
LINE
  5
27d
100
AcDbEntity
  8
Layer_1
 62
7
100
AcDbLine
 10
409.607812
 20
124.883317
 30
0.0
 11
410.798480
 21
123.146916
 31
0.0
  0
LINE
  5
27e
100
AcDbEntity
  8
Layer_1
 62
7
100
AcDbLine
 10
410.798480
 20
123.146916
 30
0.0
 11
411.939535
 21
121.410516
 31
0.0
  0
LINE
  5
27f
100
AcDbEntity
  8
Layer_1
 62
7
100
AcDbLine
 10
411.939535
 20
121.410516
 30
0.0
 11
412.981370
 21
119.574914
 31
0.0
  0
LINE
  5
280
100
AcDbEntity
  8
Layer_1
 62
7
100
AcDbLine
 10
412.981370
 20
119.574914
 30
0.0
 11
413.973593
 21
117.739312
 31
0.0
  0
LINE
  5
281
100
AcDbEntity
  8
Layer_1
 62
7
100
AcDbLine
 10
413.973593
 20
117.739312
 30
0.0
 11
414.916204
 21
115.854068
 31
0.0
  0
LINE
  5
282
100
AcDbEntity
  8
Layer_1
 62
7
100
AcDbLine
 10
414.916204
 20
115.854068
 30
0.0
 11
415.759594
 21
113.968852
 31
0.0
  0
LINE
  5
283
100
AcDbEntity
  8
Layer_1
 62
7
100
AcDbLine
 10
415.759594
 20
113.968852
 30
0.0
 11
416.553372
 21
112.034021
 31
0.0
  0
LINE
  5
284
100
AcDbEntity
  8
Layer_1
 62
7
100
AcDbLine
 10
416.553372
 20
112.034021
 30
0.0
 11
417.247927
 21
110.049575
 31
0.0
  0
LINE
  5
285
100
AcDbEntity
  8
Layer_1
 62
7
100
AcDbLine
 10
417.247927
 20
110.049575
 30
0.0
 11
417.892872
 21
108.065129
 31
0.0
  0
LINE
  5
286
100
AcDbEntity
  8
Layer_1
 62
7
100
AcDbLine
 10
417.892872
 20
108.065129
 30
0.0
 11
418.438597
 21
106.080684
 31
0.0
  0
LINE
  5
287
100
AcDbEntity
  8
Layer_1
 62
7
100
AcDbLine
 10
418.438597
 20
106.080684
 30
0.0
 11
418.934707
 21
104.046624
 31
0.0
  0
LINE
  5
288
100
AcDbEntity
  8
Layer_1
 62
7
100
AcDbLine
 10
418.934707
 20
104.046624
 30
0.0
 11
419.381208
 21
101.962949
 31
0.0
  0
LINE
  5
289
100
AcDbEntity
  8
Layer_1
 62
7
100
AcDbLine
 10
419.381208
 20
101.962949
 30
0.0
 11
419.728485
 21
99.928888
 31
0.0
  0
LINE
  5
28a
100
AcDbEntity
  8
Layer_1
 62
7
100
AcDbLine
 10
419.728485
 20
99.928888
 30
0.0
 11
419.976541
 21
97.845242
 31
0.0
  0
LINE
  5
28b
100
AcDbEntity
  8
Layer_1
 62
7
100
AcDbLine
 10
419.976541
 20
97.845242
 30
0.0
 11
420.174986
 21
95.761567
 31
0.0
  0
LINE
  5
28c
100
AcDbEntity
  8
Layer_1
 62
7
100
AcDbLine
 10
420.174986
 20
95.761567
 30
0.0
 11
420.323819
 21
93.677892
 31
0.0
  0
LINE
  5
28d
100
AcDbEntity
  8
Layer_1
 62
7
100
AcDbLine
 10
420.323819
 20
93.677892
 30
0.0
 11
420.323819
 21
91.594245
 31
0.0
  0
LINE
  5
28e
100
AcDbEntity
  8
Layer_1
 62
7
100
AcDbLine
 10
420.323819
 20
91.594245
 30
0.0
 11
420.323819
 21
89.510570
 31
0.0
  0
LINE
  5
28f
100
AcDbEntity
  8
Layer_1
 62
7
100
AcDbLine
 10
420.323819
 20
89.510570
 30
0.0
 11
420.224598
 21
87.426895
 31
0.0
  0
LINE
  5
290
100
AcDbEntity
  8
Layer_1
 62
7
100
AcDbLine
 10
420.224598
 20
87.426895
 30
0.0
 11
420.026151
 21
85.343220
 31
0.0
  0
LINE
  5
291
100
AcDbEntity
  8
Layer_1
 62
7
100
AcDbLine
 10
420.026151
 20
85.343220
 30
0.0
 11
419.778097
 21
83.259545
 31
0.0
  0
LINE
  5
292
100
AcDbEntity
  8
Layer_1
 62
7
100
AcDbLine
 10
419.778097
 20
83.259545
 30
0.0
 11
419.480429
 21
81.175899
 31
0.0
  0
LINE
  5
293
100
AcDbEntity
  8
Layer_1
 62
7
100
AcDbLine
 10
419.480429
 20
81.175899
 30
0.0
 11
419.083540
 21
79.141838
 31
0.0
  0
LINE
  5
294
100
AcDbEntity
  8
Layer_1
 62
7
100
AcDbLine
 10
419.083540
 20
79.141838
 30
0.0
 11
418.587430
 21
77.107778
 31
0.0
  0
LINE
  5
295
100
AcDbEntity
  8
Layer_1
 62
7
100
AcDbLine
 10
418.587430
 20
77.107778
 30
0.0
 11
418.041708
 21
75.073718
 31
0.0
  0
LINE
  5
296
100
AcDbEntity
  8
Layer_1
 62
7
100
AcDbLine
 10
418.041708
 20
75.073718
 30
0.0
 11
417.446371
 21
73.089272
 31
0.0
  0
LINE
  5
297
100
AcDbEntity
  8
Layer_1
 62
7
100
AcDbLine
 10
417.446371
 20
73.089272
 30
0.0
 11
416.751817
 21
71.104826
 31
0.0
  0
LINE
  5
298
100
AcDbEntity
  8
Layer_1
 62
7
100
AcDbLine
 10
416.751817
 20
71.104826
 30
0.0
 11
416.007650
 21
69.120381
 31
0.0
  0
LINE
  5
299
100
AcDbEntity
  8
Layer_1
 62
7
100
AcDbLine
 10
416.007650
 20
69.120381
 30
0.0
 11
415.213872
 21
67.235165
 31
0.0
  0
LINE
  5
29a
100
AcDbEntity
  8
Layer_1
 62
7
100
AcDbLine
 10
415.213872
 20
67.235165
 30
0.0
 11
414.320870
 21
65.300334
 31
0.0
  0
LINE
  5
29b
100
AcDbEntity
  8
Layer_1
 62
7
100
AcDbLine
 10
414.320870
 20
65.300334
 30
0.0
 11
413.378259
 21
63.464704
 31
0.0
  0
LINE
  5
29c
100
AcDbEntity
  8
Layer_1
 62
7
100
AcDbLine
 10
413.378259
 20
63.464704
 30
0.0
 11
412.336424
 21
61.629102
 31
0.0
  0
LINE
  5
29d
100
AcDbEntity
  8
Layer_1
 62
7
100
AcDbLine
 10
412.336424
 20
61.629102
 30
0.0
 11
411.294593
 21
59.843087
 31
0.0
  0
LINE
  5
29e
100
AcDbEntity
  8
Layer_1
 62
7
100
AcDbLine
 10
411.294593
 20
59.843087
 30
0.0
 11
410.153534
 21
58.106715
 31
0.0
  0
LINE
  5
29f
100
AcDbEntity
  8
Layer_1
 62
7
100
AcDbLine
 10
410.153534
 20
58.106715
 30
0.0
 11
408.962867
 21
56.370314
 31
0.0
  0
LINE
  5
2a0
100
AcDbEntity
  8
Layer_1
 62
7
100
AcDbLine
 10
408.962867
 20
56.370314
 30
0.0
 11
407.672979
 21
54.733143
 31
0.0
  0
LINE
  5
2a1
100
AcDbEntity
  8
Layer_1
 62
7
100
AcDbLine
 10
407.672979
 20
54.733143
 30
0.0
 11
406.383088
 21
53.096000
 31
0.0
  0
LINE
  5
2a2
100
AcDbEntity
  8
Layer_1
 62
7
100
AcDbLine
 10
406.383088
 20
53.096000
 30
0.0
 11
404.993976
 21
51.508415
 31
0.0
  0
LINE
  5
2a3
100
AcDbEntity
  8
Layer_1
 62
7
100
AcDbLine
 10
404.993976
 20
51.508415
 30
0.0
 11
403.604864
 21
49.970474
 31
0.0
  0
LINE
  5
2a4
100
AcDbEntity
  8
Layer_1
 62
7
100
AcDbLine
 10
403.604864
 20
49.970474
 30
0.0
 11
402.116531
 21
48.482147
 31
0.0
  0
LINE
  5
2a5
100
AcDbEntity
  8
Layer_1
 62
7
100
AcDbLine
 10
402.116531
 20
48.482147
 30
0.0
 11
400.578586
 21
47.043434
 31
0.0
  0
LINE
  5
2a6
100
AcDbEntity
  8
Layer_1
 62
7
100
AcDbLine
 10
400.578586
 20
47.043434
 30
0.0
 11
398.991027
 21
45.654308
 31
0.0
  0
LINE
  5
2a7
100
AcDbEntity
  8
Layer_1
 62
7
100
AcDbLine
 10
398.991027
 20
45.654308
 30
0.0
 11
397.403473
 21
44.314825
 31
0.0
  0
LINE
  5
2a8
100
AcDbEntity
  8
Layer_1
 62
7
100
AcDbLine
 10
397.403473
 20
44.314825
 30
0.0
 11
395.716693
 21
43.074543
 31
0.0
  0
LINE
  5
2a9
100
AcDbEntity
  8
Layer_1
 62
7
100
AcDbLine
 10
395.716693
 20
43.074543
 30
0.0
 11
394.029913
 21
41.834261
 31
0.0
  0
LINE
  5
2aa
100
AcDbEntity
  8
Layer_1
 62
7
100
AcDbLine
 10
394.029913
 20
41.834261
 30
0.0
 11
392.293524
 21
40.693208
 31
0.0
  0
LINE
  5
2ab
100
AcDbEntity
  8
Layer_1
 62
7
100
AcDbLine
 10
392.293524
 20
40.693208
 30
0.0
 11
390.507523
 21
39.601770
 31
0.0
  0
LINE
  5
2ac
100
AcDbEntity
  8
Layer_1
 62
7
100
AcDbLine
 10
390.507523
 20
39.601770
 30
0.0
 11
388.671910
 21
38.559918
 31
0.0
  0
LINE
  5
2ad
100
AcDbEntity
  8
Layer_1
 62
7
100
AcDbLine
 10
388.671910
 20
38.559918
 30
0.0
 11
386.836300
 21
37.617296
 31
0.0
  0
LINE
  5
2ae
100
AcDbEntity
  8
Layer_1
 62
7
100
AcDbLine
 10
386.836300
 20
37.617296
 30
0.0
 11
384.951075
 21
36.724317
 31
0.0
  0
LINE
  5
2af
100
AcDbEntity
  8
Layer_1
 62
7
100
AcDbLine
 10
384.951075
 20
36.724317
 30
0.0
 11
383.065853
 21
35.880924
 31
0.0
  0
LINE
  5
2b0
100
AcDbEntity
  8
Layer_1
 62
7
100
AcDbLine
 10
383.065853
 20
35.880924
 30
0.0
 11
381.081408
 21
35.087146
 31
0.0
  0
LINE
  5
2b1
100
AcDbEntity
  8
Layer_1
 62
7
100
AcDbLine
 10
381.081408
 20
35.087146
 30
0.0
 11
379.146574
 21
34.392597
 31
0.0
  0
LINE
  5
2b2
100
AcDbEntity
  8
Layer_1
 62
7
100
AcDbLine
 10
379.146574
 20
34.392597
 30
0.0
 11
377.112516
 21
33.747634
 31
0.0
  0
LINE
  5
2b3
100
AcDbEntity
  8
Layer_1
 62
7
100
AcDbLine
 10
377.112516
 20
33.747634
 30
0.0
 11
375.128071
 21
33.152315
 31
0.0
  0
LINE
  5
2b4
100
AcDbEntity
  8
Layer_1
 62
7
100
AcDbLine
 10
375.128071
 20
33.152315
 30
0.0
 11
373.094013
 21
32.656196
 31
0.0
  0
LINE
  5
2b5
100
AcDbEntity
  8
Layer_1
 62
7
100
AcDbLine
 10
373.094013
 20
32.656196
 30
0.0
 11
371.059956
 21
32.209693
 31
0.0
  0
LINE
  5
2b6
100
AcDbEntity
  8
Layer_1
 62
7
100
AcDbLine
 10
371.059956
 20
32.209693
 30
0.0
 11
368.976289
 21
31.862418
 31
0.0
  0
LINE
  5
2b7
100
AcDbEntity
  8
Layer_1
 62
7
100
AcDbLine
 10
368.976289
 20
31.862418
 30
0.0
 11
366.942232
 21
31.564758
 31
0.0
  0
LINE
  5
2b8
100
AcDbEntity
  8
Layer_1
 62
7
100
AcDbLine
 10
366.942232
 20
31.564758
 30
0.0
 11
364.858565
 21
31.366300
 31
0.0
  0
LINE
  5
2b9
100
AcDbEntity
  8
Layer_1
 62
7
100
AcDbLine
 10
364.858565
 20
31.366300
 30
0.0
 11
362.774896
 21
31.217484
 31
0.0
  0
LINE
  5
2ba
100
AcDbEntity
  8
Layer_1
 62
7
100
AcDbLine
 10
362.774896
 20
31.217484
 30
0.0
 11
360.641618
 21
31.118254
 31
0.0
  0
LINE
  5
2bb
100
AcDbEntity
  8
Layer_1
 62
7
100
AcDbLine
 10
360.641618
 20
31.118254
 30
0.0
 11
358.557948
 21
31.118254
 31
0.0
  0
LINE
  5
2bc
100
AcDbEntity
  8
Layer_1
 62
7
100
AcDbLine
 10
358.557948
 20
31.118254
 30
0.0
 11
356.474282
 21
31.217484
 31
0.0
  0
LINE
  5
2bd
100
AcDbEntity
  8
Layer_1
 62
7
100
AcDbLine
 10
356.474282
 20
31.217484
 30
0.0
 11
354.390613
 21
31.366300
 31
0.0
  0
LINE
  5
2be
100
AcDbEntity
  8
Layer_1
 62
7
100
AcDbLine
 10
354.390613
 20
31.366300
 30
0.0
 11
352.306946
 21
31.564758
 31
0.0
  0
LINE
  5
2bf
100
AcDbEntity
  8
Layer_1
 62
7
100
AcDbLine
 10
352.306946
 20
31.564758
 30
0.0
 11
350.223277
 21
31.862418
 31
0.0
  0
LINE
  5
2c0
100
AcDbEntity
  8
Layer_1
 62
7
100
AcDbLine
 10
350.223277
 20
31.862418
 30
0.0
 11
348.189219
 21
32.209693
 31
0.0
  0
LINE
  5
2c1
100
AcDbEntity
  8
Layer_1
 62
7
100
AcDbLine
 10
348.189219
 20
32.209693
 30
0.0
 11
346.105553
 21
32.606582
 31
0.0
  0
LINE
  5
2c2
100
AcDbEntity
  8
Layer_1
 62
7
100
AcDbLine
 10
346.105553
 20
32.606582
 30
0.0
 11
344.071495
 21
33.102700
 31
0.0
  0
LINE
  5
2c3
100
AcDbEntity
  8
Layer_1
 62
7
100
AcDbLine
 10
344.071495
 20
33.102700
 30
0.0
 11
342.087050
 21
33.698020
 31
0.0
  0
LINE
  5
2c4
100
AcDbEntity
  8
Layer_1
 62
7
100
AcDbLine
 10
342.087050
 20
33.698020
 30
0.0
 11
340.052992
 21
34.293367
 31
0.0
  0
LINE
  5
2c5
100
AcDbEntity
  8
Layer_1
 62
7
100
AcDbLine
 10
340.052992
 20
34.293367
 30
0.0
 11
338.118159
 21
35.037531
 31
0.0
  0
LINE
  5
2c6
100
AcDbEntity
  8
Layer_1
 62
7
100
AcDbLine
 10
338.118159
 20
35.037531
 30
0.0
 11
336.133713
 21
35.781695
 31
0.0
  0
LINE
  5
2c7
100
AcDbEntity
  8
Layer_1
 62
7
100
AcDbLine
 10
336.133713
 20
35.781695
 30
0.0
 11
334.248491
 21
36.625088
 31
0.0
  0
LINE
  5
2c8
100
AcDbEntity
  8
Layer_1
 62
7
100
AcDbLine
 10
334.248491
 20
36.625088
 30
0.0
 11
332.363266
 21
37.518095
 31
0.0
  0
LINE
  5
2c9
100
AcDbEntity
  8
Layer_1
 62
7
100
AcDbLine
 10
332.363266
 20
37.518095
 30
0.0
 11
330.527656
 21
38.510304
 31
0.0
  0
LINE
  5
2ca
100
AcDbEntity
  8
Layer_1
 62
7
100
AcDbLine
 10
330.527656
 20
38.510304
 30
0.0
 11
328.741655
 21
39.552155
 31
0.0
  0
LINE
  5
2cb
100
AcDbEntity
  8
Layer_1
 62
7
100
AcDbLine
 10
328.741655
 20
39.552155
 30
0.0
 11
326.955646
 21
40.693208
 31
0.0
  0
LINE
  5
2cc
100
AcDbEntity
  8
Layer_1
 62
7
100
AcDbLine
 10
326.955646
 20
40.693208
 30
0.0
 11
323.532488
 21
43.074543
 31
0.0
  0
ENDSEC
  0
SECTION
  2
OBJECTS
  0
DICTIONARY
  5
C
330
0
100
AcDbDictionary
  3
ACAD_GROUP
350
D
  3
ACAD_MLINESTYLE
350
17
  0
DICTIONARY
  5
D
330
C
100
AcDbDictionary
  0
DICTIONARY
  5
1A
330
C
100
AcDbDictionary
  0
DICTIONARY
  5
17
330
C
100
AcDbDictionary
  3
STANDARD
350
18
  0
DICTIONARY
  5
19
330
C
100
AcDbDictionary
  0
ENDSEC
  0
EOF
