  0
SECTION
  2
HEADER
  9
$ACADVER
  1
AC1014
  9
$HANDSEED
  5
FFFF
  9
$MEASUREMENT
 70
     1
  0
ENDSEC
  0
SECTION
  2
TABLES
  0
TABLE
  2
VPORT
  5
8
330
0
100
AcDbSymbolTable
 70
     4
  0
VPORT
  5
2E
330
8
100
AcDbSymbolTableRecord
100
AcDbViewportTableRecord
  2
*ACTIVE
 70
     0
 10
0.0
 20
0.0
 11
1.0
 21
1.0
 12
210.0
 22
148.5
 13
0.0
 23
0.0
 14
10.0
 24
10.0
 15
10.0
 25
10.0
 16
0.0
 26
0.0
 36
1.0
 17
0.0
 27
0.0
 37
0.0
 40
341.0
 41
1.24
 42
50.0
 43
0.0
 44
0.0
 50
0.0
 51
0.0
 71
     0
 72
   100
 73
     1
 74
     3
 75
     0
 76
     0
 77
     0
 78
     0
  0
ENDTAB
  0
TABLE
  2
LTYPE
  5
5
330
0
100
AcDbSymbolTable
 70
     1
  0
LTYPE
  5
14
330
5
100
AcDbSymbolTableRecord
100
AcDbLinetypeTableRecord
  2
BYBLOCK
 70
     0
  3

 72
    65
 73
     0
 40
0.0
  0
LTYPE
  5
15
330
5
100
AcDbSymbolTableRecord
100
AcDbLinetypeTableRecord
  2
BYLAYER
 70
     0
  3

 72
    65
 73
     0
 40
0.0
  0
LTYPE
  5
16
330
5
100
AcDbSymbolTableRecord
100
AcDbLinetypeTableRecord
  2
CONTINUOUS
 70
     0
  3
Solid line
 72
    65
 73
     0
 40
0.0
  0
ENDTAB
  0
TABLE
  2
LAYER
  5
2
100
AcDbSymbolTable
 70
2
  0
LAYER
  5
50
100
AcDbSymbolTableRecord
100
AcDbLayerTableRecord
  2
0
 70
0
  6
CONTINUOUS
  0
LAYER
  5
51
100
AcDbSymbolTableRecord
100
AcDbLayerTableRecord
  2
Layer_1
 70
0
  6
CONTINUOUS
  0
ENDTAB
  0
TABLE
  2
STYLE
  5
3
330
0
100
AcDbSymbolTable
 70
     1
  0
STYLE
  5
11
330
3
100
AcDbSymbolTableRecord
100
AcDbTextStyleTableRecord
  2
STANDARD
 70
     0
 40
0.0
 41
1.0
 50
0.0
 71
     0
 42
2.5
  3
txt
  4

  0
ENDTAB
  0
TABLE
  2
VIEW
  5
6
330
0
100
AcDbSymbolTable
 70
     0
  0
ENDTAB
  0
TABLE
  2
UCS
  5
7
330
0
100
AcDbSymbolTable
 70
     0
  0
ENDTAB
  0
TABLE
  2
APPID
  5
9
330
0
100
AcDbSymbolTable
 70
     2
  0
APPID
  5
12
330
9
100
AcDbSymbolTableRecord
100
AcDbRegAppTableRecord
  2
ACAD
 70
     0
  0
ENDTAB
  0
TABLE
  2
DIMSTYLE
  5
A
330
0
100
AcDbSymbolTable
 70
     1
  0
DIMSTYLE
105
27
330
A
100
AcDbSymbolTableRecord
100
AcDbDimStyleTableRecord
  2
ISO-25
 70
     0
  3

  4

  5

  6

  7

 40
1.0
 41
2.5
 42
0.625
 43
3.75
 44
1.25
 45
0.0
 46
0.0
 47
0.0
 48
0.0
140
2.5
141
2.5
142
0.0
143
0.03937007874016
144
1.0
145
0.0
146
1.0
147
0.625
 71
     0
 72
     0
 73
     0
 74
     0
 75
     0
 76
     0
 77
     1
 78
     8
170
     0
171
     3
172
     1
173
     0
174
     0
175
     0
176
     0
177
     0
178
     0
270
     2
271
     2
272
     2
273
     2
274
     3
340
11
275
     0
280
     0
281
     0
282
     0
283
     0
284
     8
285
     0
286
     0
287
     3
288
     0
  0
ENDTAB
  0
TABLE
  2
BLOCK_RECORD
  5
1
330
0
100
AcDbSymbolTable
 70
     1
  0
BLOCK_RECORD
  5
1F
330
1
100
AcDbSymbolTableRecord
100
AcDbBlockTableRecord
  2
*MODEL_SPACE
  0
BLOCK_RECORD
  5
1B
330
1
100
AcDbSymbolTableRecord
100
AcDbBlockTableRecord
  2
*PAPER_SPACE
  0
ENDTAB
  0
ENDSEC
  0
SECTION
  2
BLOCKS
  0
BLOCK
  5
20
330
1F
100
AcDbEntity
  8
0
100
AcDbBlockBegin
  2
*MODEL_SPACE
 70
     0
 10
0.0
 20
0.0
 30
0.0
  3
*MODEL_SPACE
  1

  0
ENDBLK
  5
21
330
1F
100
AcDbEntity
  8
0
100
AcDbBlockEnd
  0
BLOCK
  5
1C
330
1B
100
AcDbEntity
 67
     1
  8
0
100
AcDbBlockBegin
  2
*PAPER_SPACE
  1

  0
ENDBLK
  5
1D
330
1B
100
AcDbEntity
 67
     1
  8
0
100
AcDbBlockEnd
  0
ENDSEC
  0
SECTION
  2
ENTITIES
  0
LINE
  5
100
100
AcDbEntity
  8
Layer_1
 62
7
100
AcDbLine
 10
229.246709
 20
389.917118
 30
0.0
 11
229.246709
 21
364.516217
 31
0.0
  0
LINE
  5
101
100
AcDbEntity
  8
Layer_1
 62
7
100
AcDbLine
 10
266.851949
 20
356.925706
 30
0.0
 11
241.550269
 21
356.925706
 31
0.0
  0
LINE
  5
102
100
AcDbEntity
  8
Layer_1
 62
7
100
AcDbLine
 10
243.385879
 20
376.968607
 30
0.0
 11
265.016339
 21
376.968607
 31
0.0
  0
LINE
  5
103
100
AcDbEntity
  8
Layer_1
 62
7
100
AcDbLine
 10
243.385879
 20
376.968607
 30
0.0
 11
241.550269
 21
356.925706
 31
0.0
  0
LINE
  5
104
100
AcDbEntity
  8
Layer_1
 62
7
100
AcDbLine
 10
230.090088
 20
198.318899
 30
0.0
 11
252.861609
 21
271.445718
 31
0.0
  0
LINE
  5
105
100
AcDbEntity
  8
Layer_1
 62
7
100
AcDbLine
 10
47.818769
 20
302.651129
 30
0.0
 11
49.158269
 21
311.481908
 31
0.0
  0
LINE
  5
106
100
AcDbEntity
  8
Layer_1
 62
7
100
AcDbLine
 10
254.201109
 20
280.326109
 30
0.0
 11
252.861609
 21
271.445718
 31
0.0
  0
LINE
  5
107
100
AcDbEntity
  8
Layer_1
 62
7
100
AcDbLine
 10
254.201109
 20
419.088468
 30
0.0
 11
52.581439
 21
401.476517
 31
0.0
  0
SPLINE
  5
108
100
AcDbEntity
  8
Layer_1
 62
7
100
AcDbSpline
 70
8
 71
3
 72
8
 73
4
 74
0
 40
0
 40
0
 40
0
 40
0
 40
1
 40
1
 40
1
 40
1
 10
52.613948
 20
401.474818
 30
0.0
 10
43.679289
 20
399.806888
 30
0.0
 10
35.635989
 20
394.997948
 30
0.0
 10
29.937609
 20
387.917116
 30
0.0
  0
SPLINE
  5
109
100
AcDbEntity
  8
Layer_1
 62
7
100
AcDbSpline
 70
8
 71
3
 72
8
 73
4
 74
0
 40
0
 40
0
 40
0
 40
0
 40
1
 40
1
 40
1
 40
1
 10
29.888217
 20
387.950458
 30
0.0
 10
25.393907
 20
382.365757
 30
0.0
 10
22.031608
 20
375.958367
 30
0.0
 10
19.989538
 20
369.086888
 30
0.0
  0
SPLINE
  5
10a
100
AcDbEntity
  8
Layer_1
 62
7
100
AcDbSpline
 70
8
 71
3
 72
8
 73
4
 74
0
 40
0
 40
0
 40
0
 40
0
 40
1
 40
1
 40
1
 40
1
 10
20.056309
 20
369.037857
 30
0.0
 10
19.191199
 20
366.126876
 30
0.0
 10
18.477569
 20
363.172989
 30
0.0
 10
17.918278
 20
360.188077
 30
0.0
  0
SPLINE
  5
10b
100
AcDbEntity
  8
Layer_1
 62
7
100
AcDbSpline
 70
8
 71
3
 72
8
 73
4
 74
0
 40
0
 40
0
 40
0
 40
0
 40
1
 40
1
 40
1
 40
1
 10
17.898068
 20
360.202177
 30
0.0
 10
17.550159
 20
358.345346
 30
0.0
 10
17.386419
 20
356.458767
 30
0.0
 10
17.409239
 20
354.569757
 30
0.0
  0
SPLINE
  5
10c
100
AcDbEntity
  8
Layer_1
 62
7
100
AcDbSpline
 70
8
 71
3
 72
8
 73
4
 74
0
 40
0
 40
0
 40
0
 40
0
 40
1
 40
1
 40
1
 40
1
 10
17.409719
 20
354.588077
 30
0.0
 10
17.425919
 20
353.245037
 30
0.0
 10
17.518598
 20
351.904039
 30
0.0
 10
17.687240
 20
350.571507
 30
0.0
  0
LINE
  5
10d
100
AcDbEntity
  8
Layer_1
 62
7
100
AcDbLine
 10
17.655199
 20
350.525877
 30
0.0
 11
18.151309
 21
347.201929
 31
0.0
  0
LINE
  5
10e
100
AcDbEntity
  8
Layer_1
 62
7
100
AcDbLine
 10
18.151309
 20
347.201929
 30
0.0
 11
18.746640
 21
343.927586
 31
0.0
  0
SPLINE
  5
10f
100
AcDbEntity
  8
Layer_1
 62
7
100
AcDbSpline
 70
8
 71
3
 72
8
 73
4
 74
0
 40
0
 40
0
 40
0
 40
0
 40
1
 40
1
 40
1
 40
1
 10
18.783379
 20
343.947457
 30
0.0
 10
20.148968
 20
337.282796
 30
0.0
 10
23.159218
 20
331.065328
 30
0.0
 10
27.540289
 20
325.860608
 30
0.0
  0
SPLINE
  5
110
100
AcDbEntity
  8
Layer_1
 62
7
100
AcDbSpline
 70
8
 71
3
 72
8
 73
4
 74
0
 40
0
 40
0
 40
0
 40
0
 40
1
 40
1
 40
1
 40
1
 10
27.509019
 20
325.835948
 30
0.0
 10
30.745109
 20
321.991429
 30
0.0
 10
34.576750
 20
318.690727
 30
0.0
 10
38.857988
 20
316.059499
 30
0.0
  0
SPLINE
  5
111
100
AcDbEntity
  8
Layer_1
 62
7
100
AcDbSpline
 70
8
 71
3
 72
8
 73
4
 74
0
 40
0
 40
0
 40
0
 40
0
 40
1
 40
1
 40
1
 40
1
 10
38.899528
 20
316.126168
 30
0.0
 10
42.113478
 20
314.150897
 30
0.0
 10
45.578359
 20
312.616619
 30
0.0
 10
49.201108
 20
311.564537
 30
0.0
  0
LINE
  5
112
100
AcDbEntity
  8
Layer_1
 62
7
100
AcDbLine
 10
4.012128
 20
268.717109
 30
0.0
 11
203.200857
 21
206.703180
 31
0.0
  0
LINE
  5
113
100
AcDbEntity
  8
Layer_1
 62
7
100
AcDbLine
 10
211.237858
 20
211.068959
 30
0.0
 11
209.253418
 21
204.817961
 31
0.0
  0
LINE
  5
114
100
AcDbEntity
  8
Layer_1
 62
7
100
AcDbLine
 10
209.253418
 20
204.817961
 30
0.0
 11
230.090088
 21
198.318899
 31
0.0
  0
LINE
  5
115
100
AcDbEntity
  8
Layer_1
 62
7
100
AcDbLine
 10
203.200857
 20
206.703180
 30
0.0
 11
205.135688
 21
212.954180
 31
0.0
  0
SPLINE
  5
116
100
AcDbEntity
  8
Layer_1
 62
7
100
AcDbSpline
 70
8
 71
3
 72
8
 73
4
 74
0
 40
0
 40
0
 40
0
 40
0
 40
1
 40
1
 40
1
 40
1
 10
211.242049
 20
211.085210
 30
0.0
 10
211.767377
 20
212.772600
 30
0.0
 10
210.825348
 20
214.566350
 30
0.0
 10
209.137938
 20
215.091659
 30
0.0
  0
SPLINE
  5
117
100
AcDbEntity
  8
Layer_1
 62
7
100
AcDbSpline
 70
8
 71
3
 72
8
 73
4
 74
0
 40
0
 40
0
 40
0
 40
0
 40
1
 40
1
 40
1
 40
1
 10
209.137938
 20
215.091659
 30
0.0
 10
207.450560
 20
215.616979
 30
0.0
 10
205.656797
 20
214.674950
 30
0.0
 10
205.131497
 20
212.987540
 30
0.0
  0
SPLINE
  5
118
100
AcDbEntity
  8
Layer_1
 62
7
100
AcDbSpline
 70
8
 71
3
 72
8
 73
4
 74
0
 40
0
 40
0
 40
0
 40
0
 40
1
 40
1
 40
1
 40
1
 10
4.670270
 20
271.005099
 30
0.0
 10
4.427539
 20
270.257379
 30
0.0
 10
4.215630
 20
269.499979
 30
0.0
 10
4.035089
 20
268.734838
 30
0.0
  0
SPLINE
  5
119
100
AcDbEntity
  8
Layer_1
 62
7
100
AcDbSpline
 70
8
 71
3
 72
8
 73
4
 74
0
 40
0
 40
0
 40
0
 40
0
 40
1
 40
1
 40
1
 40
1
 10
6.158730
 20
274.741899
 30
0.0
 10
5.601640
 20
273.519750
 30
0.0
 10
5.114550
 20
272.266869
 30
0.0
 10
4.699850
 20
270.989359
 30
0.0
  0
SPLINE
  5
11a
100
AcDbEntity
  8
Layer_1
 62
7
100
AcDbSpline
 70
8
 71
3
 72
8
 73
4
 74
0
 40
0
 40
0
 40
0
 40
0
 40
1
 40
1
 40
1
 40
1
 10
9.144209
 20
280.764877
 30
0.0
 10
8.064698
 20
278.807107
 30
0.0
 10
7.060198
 20
276.808909
 30
0.0
 10
6.132909
 20
274.774608
 30
0.0
  0
SPLINE
  5
11b
100
AcDbEntity
  8
Layer_1
 62
7
100
AcDbSpline
 70
8
 71
3
 72
8
 73
4
 74
0
 40
0
 40
0
 40
0
 40
0
 40
1
 40
1
 40
1
 40
1
 10
22.867939
 20
295.419399
 30
0.0
 10
17.139268
 20
291.752398
 30
0.0
 10
12.418120
 20
286.711536
 30
0.0
 10
9.133818
 20
280.755188
 30
0.0
  0
SPLINE
  5
11c
100
AcDbEntity
  8
Layer_1
 62
7
100
AcDbSpline
 70
8
 71
3
 72
8
 73
4
 74
0
 40
0
 40
0
 40
0
 40
0
 40
1
 40
1
 40
1
 40
1
 10
36.644019
 20
301.396696
 30
0.0
 10
31.772689
 20
300.156637
 30
0.0
 10
27.131809
 20
298.143219
 30
0.0
 10
22.898188
 20
295.433239
 30
0.0
  0
SPLINE
  5
11d
100
AcDbEntity
  8
Layer_1
 62
7
100
AcDbSpline
 70
8
 71
3
 72
8
 73
4
 74
0
 40
0
 40
0
 40
0
 40
0
 40
1
 40
1
 40
1
 40
1
 10
47.856909
 20
302.643399
 30
0.0
 10
44.085178
 20
302.715699
 30
0.0
 10
40.320839
 20
302.280707
 30
0.0
 10
36.665019
 20
301.350068
 30
0.0
  0
LINE
  5
11e
100
AcDbEntity
  8
Layer_1
 62
7
100
AcDbLine
 10
265.016339
 20
376.968607
 30
0.0
 11
266.851949
 21
356.925706
 31
0.0
  0
LINE
  5
11f
100
AcDbEntity
  8
Layer_1
 62
7
100
AcDbLine
 10
278.312128
 20
198.318899
 30
0.0
 11
255.540609
 21
271.445718
 31
0.0
  0
LINE
  5
120
100
AcDbEntity
  8
Layer_1
 62
7
100
AcDbLine
 10
460.583452
 20
302.651129
 30
0.0
 11
459.243941
 21
311.481908
 31
0.0
  0
LINE
  5
121
100
AcDbEntity
  8
Layer_1
 62
7
100
AcDbLine
 10
254.201109
 20
419.088468
 30
0.0
 11
455.820783
 21
401.476517
 31
0.0
  0
SPLINE
  5
122
100
AcDbEntity
  8
Layer_1
 62
7
100
AcDbSpline
 70
8
 71
3
 72
8
 73
4
 74
0
 40
0
 40
0
 40
0
 40
0
 40
1
 40
1
 40
1
 40
1
 10
478.514216
 20
387.917116
 30
0.0
 10
472.815838
 20
394.997948
 30
0.0
 10
464.772533
 20
399.806888
 30
0.0
 10
455.837914
 20
401.474818
 30
0.0
  0
SPLINE
  5
123
100
AcDbEntity
  8
Layer_1
 62
7
100
AcDbSpline
 70
8
 71
3
 72
8
 73
4
 74
0
 40
0
 40
0
 40
0
 40
0
 40
1
 40
1
 40
1
 40
1
 10
488.412681
 20
369.086888
 30
0.0
 10
486.370633
 20
375.958367
 30
0.0
 10
483.008351
 20
382.365757
 30
0.0
 10
478.514018
 20
387.950458
 30
0.0
  0
SPLINE
  5
124
100
AcDbEntity
  8
Layer_1
 62
7
100
AcDbSpline
 70
8
 71
3
 72
8
 73
4
 74
0
 40
0
 40
0
 40
0
 40
0
 40
1
 40
1
 40
1
 40
1
 10
490.533552
 20
360.188077
 30
0.0
 10
489.974301
 20
363.172989
 30
0.0
 10
489.260646
 20
366.126876
 30
0.0
 10
488.395550
 20
369.037857
 30
0.0
  0
SPLINE
  5
125
100
AcDbEntity
  8
Layer_1
 62
7
100
AcDbSpline
 70
8
 71
3
 72
8
 73
4
 74
0
 40
0
 40
0
 40
0
 40
0
 40
1
 40
1
 40
1
 40
1
 10
491.042625
 20
354.569757
 30
0.0
 10
491.065485
 20
356.458767
 30
0.0
 10
490.901683
 20
358.345346
 30
0.0
 10
490.553731
 20
360.202177
 30
0.0
  0
SPLINE
  5
126
100
AcDbEntity
  8
Layer_1
 62
7
100
AcDbSpline
 70
8
 71
3
 72
8
 73
4
 74
0
 40
0
 40
0
 40
0
 40
0
 40
1
 40
1
 40
1
 40
1
 10
490.764580
 20
350.571507
 30
0.0
 10
490.933236
 20
351.904039
 30
0.0
 10
491.025889
 20
353.245037
 30
0.0
 10
491.042117
 20
354.588077
 30
0.0
  0
LINE
  5
127
100
AcDbEntity
  8
Layer_1
 62
7
100
AcDbLine
 10
489.655587
 20
343.927586
 30
0.0
 11
490.250935
 21
347.201929
 31
0.0
  0
LINE
  5
128
100
AcDbEntity
  8
Layer_1
 62
7
100
AcDbLine
 10
490.250935
 20
347.201929
 30
0.0
 11
490.747025
 21
350.525877
 31
0.0
  0
SPLINE
  5
129
100
AcDbEntity
  8
Layer_1
 62
7
100
AcDbSpline
 70
8
 71
3
 72
8
 73
4
 74
0
 40
0
 40
0
 40
0
 40
0
 40
1
 40
1
 40
1
 40
1
 10
480.911524
 20
325.860608
 30
0.0
 10
485.292629
 20
331.065328
 30
0.0
 10
488.302840
 20
337.282796
 30
0.0
 10
489.668485
 20
343.947457
 30
0.0
  0
SPLINE
  5
12a
100
AcDbEntity
  8
Layer_1
 62
7
100
AcDbSpline
 70
8
 71
3
 72
8
 73
4
 74
0
 40
0
 40
0
 40
0
 40
0
 40
1
 40
1
 40
1
 40
1
 10
469.593820
 20
316.059499
 30
0.0
 10
473.875075
 20
318.690727
 30
0.0
 10
477.706693
 20
321.991429
 30
0.0
 10
480.942823
 20
325.835948
 30
0.0
  0
SPLINE
  5
12b
100
AcDbEntity
  8
Layer_1
 62
7
100
AcDbSpline
 70
8
 71
3
 72
8
 73
4
 74
0
 40
0
 40
0
 40
0
 40
0
 40
1
 40
1
 40
1
 40
1
 10
459.250742
 20
311.564537
 30
0.0
 10
462.873460
 20
312.616619
 30
0.0
 10
466.338358
 20
314.150897
 30
0.0
 10
469.552305
 20
316.126168
 30
0.0
  0
LINE
  5
12c
100
AcDbEntity
  8
Layer_1
 62
7
100
AcDbLine
 10
504.340485
 20
268.717109
 30
0.0
 11
278.312128
 21
198.318899
 31
0.0
  0
SPLINE
  5
12d
100
AcDbEntity
  8
Layer_1
 62
7
100
AcDbSpline
 70
8
 71
3
 72
8
 73
4
 74
0
 40
0
 40
0
 40
0
 40
0
 40
1
 40
1
 40
1
 40
1
 10
504.367127
 20
268.734838
 30
0.0
 10
504.186589
 20
269.499979
 30
0.0
 10
503.974697
 20
270.257379
 30
0.0
 10
503.731957
 20
271.005099
 30
0.0
  0
SPLINE
  5
12e
100
AcDbEntity
  8
Layer_1
 62
7
100
AcDbSpline
 70
8
 71
3
 72
8
 73
4
 74
0
 40
0
 40
0
 40
0
 40
0
 40
1
 40
1
 40
1
 40
1
 10
503.751995
 20
270.989359
 30
0.0
 10
503.337241
 20
272.266869
 30
0.0
 10
502.850210
 20
273.519750
 30
0.0
 10
502.293075
 20
274.741899
 30
0.0
  0
SPLINE
  5
12f
100
AcDbEntity
  8
Layer_1
 62
7
100
AcDbSpline
 70
8
 71
3
 72
8
 73
4
 74
0
 40
0
 40
0
 40
0
 40
0
 40
1
 40
1
 40
1
 40
1
 10
502.318927
 20
274.774608
 30
0.0
 10
501.391629
 20
276.808909
 30
0.0
 10
500.387116
 20
278.807107
 30
0.0
 10
499.307644
 20
280.764877
 30
0.0
  0
SPLINE
  5
130
100
AcDbEntity
  8
Layer_1
 62
7
100
AcDbSpline
 70
8
 71
3
 72
8
 73
4
 74
0
 40
0
 40
0
 40
0
 40
0
 40
1
 40
1
 40
1
 40
1
 10
499.268443
 20
280.755188
 30
0.0
 10
495.984139
 20
286.711536
 30
0.0
 10
491.262928
 20
291.752398
 30
0.0
 10
485.534296
 20
295.419399
 30
0.0
  0
SPLINE
  5
131
100
AcDbEntity
  8
Layer_1
 62
7
100
AcDbSpline
 70
8
 71
3
 72
8
 73
4
 74
0
 40
0
 40
0
 40
0
 40
0
 40
1
 40
1
 40
1
 40
1
 10
485.553657
 20
295.433239
 30
0.0
 10
481.320013
 20
298.143219
 30
0.0
 10
476.679150
 20
300.156637
 30
0.0
 10
471.807825
 20
301.396696
 30
0.0
  0
SPLINE
  5
132
100
AcDbEntity
  8
Layer_1
 62
7
100
AcDbSpline
 70
8
 71
3
 72
8
 73
4
 74
0
 40
0
 40
0
 40
0
 40
0
 40
1
 40
1
 40
1
 40
1
 10
471.786800
 20
301.350068
 30
0.0
 10
468.131006
 20
302.280707
 30
0.0
 10
464.366641
 20
302.715707
 30
0.0
 10
460.594910
 20
302.643399
 30
0.0
  0
LINE
  5
133
100
AcDbEntity
  8
Layer_1
 62
7
100
AcDbLine
 10
254.201109
 20
280.326109
 30
0.0
 11
255.540609
 21
271.445718
 31
0.0
  0
LINE
  5
134
100
AcDbEntity
  8
Layer_1
 62
3
100
AcDbLine
 10
348.363057
 20
304.189068
 30
0.0
 11
365.082010
 21
306.719238
 31
0.0
  0
LINE
  5
135
100
AcDbEntity
  8
Layer_1
 62
3
100
AcDbLine
 10
364.685118
 20
309.249408
 30
0.0
 11
347.966168
 21
306.669626
 31
0.0
  0
LINE
  5
136
100
AcDbEntity
  8
Layer_1
 62
3
100
AcDbLine
 10
362.204559
 20
308.852516
 30
0.0
 11
361.807679
 21
311.333078
 31
0.0
  0
LINE
  5
137
100
AcDbEntity
  8
Layer_1
 62
3
100
AcDbLine
 10
361.807679
 20
311.333078
 30
0.0
 11
347.569279
 21
309.199797
 31
0.0
  0
LINE
  5
138
100
AcDbEntity
  8
Layer_1
 62
3
100
AcDbLine
 10
347.569279
 20
309.199797
 30
0.0
 11
347.966168
 21
306.669626
 31
0.0
  0
LINE
  5
139
100
AcDbEntity
  8
Layer_1
 62
3
100
AcDbLine
 10
347.966168
 20
306.669626
 30
0.0
 11
348.363057
 21
304.189068
 31
0.0
  0
LINE
  5
13a
100
AcDbEntity
  8
Layer_1
 62
3
100
AcDbLine
 10
353.820279
 20
326.017967
 30
0.0
 11
352.877668
 21
325.769919
 31
0.0
  0
LINE
  5
13b
100
AcDbEntity
  8
Layer_1
 62
3
100
AcDbLine
 10
352.877668
 20
325.769919
 30
0.0
 11
351.984669
 21
325.472248
 31
0.0
  0
LINE
  5
13c
100
AcDbEntity
  8
Layer_1
 62
3
100
AcDbLine
 10
351.984669
 20
325.472248
 30
0.0
 11
351.190888
 21
325.075359
 31
0.0
  0
LINE
  5
13d
100
AcDbEntity
  8
Layer_1
 62
3
100
AcDbLine
 10
351.190888
 20
325.075359
 30
0.0
 11
350.496339
 21
324.579249
 31
0.0
  0
LINE
  5
13e
100
AcDbEntity
  8
Layer_1
 62
3
100
AcDbLine
 10
350.496339
 20
324.579249
 30
0.0
 11
349.851387
 21
323.983918
 31
0.0
  0
LINE
  5
13f
100
AcDbEntity
  8
Layer_1
 62
3
100
AcDbLine
 10
349.851387
 20
323.983918
 30
0.0
 11
349.256059
 21
323.289358
 31
0.0
  0
LINE
  5
140
100
AcDbEntity
  8
Layer_1
 62
3
100
AcDbLine
 10
349.256059
 20
323.289358
 30
0.0
 11
349.107218
 21
323.041298
 31
0.0
  0
LINE
  5
141
100
AcDbEntity
  8
Layer_1
 62
3
100
AcDbLine
 10
349.107218
 20
323.041298
 30
0.0
 11
348.660717
 21
322.247529
 31
0.0
  0
LINE
  5
142
100
AcDbEntity
  8
Layer_1
 62
3
100
AcDbLine
 10
348.660717
 20
322.247529
 30
0.0
 11
348.313448
 21
321.453747
 31
0.0
  0
LINE
  5
143
100
AcDbEntity
  8
Layer_1
 62
3
100
AcDbLine
 10
348.313448
 20
321.453747
 30
0.0
 11
348.114998
 21
320.610357
 31
0.0
  0
LINE
  5
144
100
AcDbEntity
  8
Layer_1
 62
3
100
AcDbLine
 10
348.114998
 20
320.610357
 30
0.0
 11
347.966168
 21
319.717358
 31
0.0
  0
LINE
  5
145
100
AcDbEntity
  8
Layer_1
 62
3
100
AcDbLine
 10
347.966168
 20
319.717358
 30
0.0
 11
347.966168
 21
318.774747
 31
0.0
  0
LINE
  5
146
100
AcDbEntity
  8
Layer_1
 62
3
100
AcDbLine
 10
347.966168
 20
318.774747
 30
0.0
 11
348.065369
 21
317.782519
 31
0.0
  0
LINE
  5
147
100
AcDbEntity
  8
Layer_1
 62
3
100
AcDbLine
 10
348.065369
 20
317.782519
 30
0.0
 11
348.214199
 21
316.939129
 31
0.0
  0
LINE
  5
148
100
AcDbEntity
  8
Layer_1
 62
3
100
AcDbLine
 10
348.214199
 20
316.939129
 30
0.0
 11
348.511868
 21
315.996518
 31
0.0
  0
LINE
  5
149
100
AcDbEntity
  8
Layer_1
 62
3
100
AcDbLine
 10
348.511868
 20
315.996518
 30
0.0
 11
348.908760
 21
315.153128
 31
0.0
  0
LINE
  5
14a
100
AcDbEntity
  8
Layer_1
 62
3
100
AcDbLine
 10
348.908760
 20
315.153128
 30
0.0
 11
349.355258
 21
314.458579
 31
0.0
  0
LINE
  5
14b
100
AcDbEntity
  8
Layer_1
 62
3
100
AcDbLine
 10
349.355258
 20
314.458579
 30
0.0
 11
349.900980
 21
313.764019
 31
0.0
  0
LINE
  5
14c
100
AcDbEntity
  8
Layer_1
 62
3
100
AcDbLine
 10
349.900980
 20
313.764019
 30
0.0
 11
350.595540
 21
313.218297
 31
0.0
  0
LINE
  5
14d
100
AcDbEntity
  8
Layer_1
 62
3
100
AcDbLine
 10
350.595540
 20
313.218297
 30
0.0
 11
351.240480
 21
312.771799
 31
0.0
  0
LINE
  5
14e
100
AcDbEntity
  8
Layer_1
 62
3
100
AcDbLine
 10
351.240480
 20
312.771799
 30
0.0
 11
351.984649
 21
312.424519
 31
0.0
  0
LINE
  5
14f
100
AcDbEntity
  8
Layer_1
 62
3
100
AcDbLine
 10
351.984649
 20
312.424519
 30
0.0
 11
352.828039
 21
312.176457
 31
0.0
  0
LINE
  5
150
100
AcDbEntity
  8
Layer_1
 62
3
100
AcDbLine
 10
352.828039
 20
312.176457
 30
0.0
 11
353.721038
 21
312.027627
 31
0.0
  0
LINE
  5
151
100
AcDbEntity
  8
Layer_1
 62
3
100
AcDbLine
 10
353.721038
 20
312.027627
 30
0.0
 11
354.663649
 21
312.027627
 31
0.0
  0
LINE
  5
152
100
AcDbEntity
  8
Layer_1
 62
3
100
AcDbLine
 10
354.663649
 20
312.027627
 30
0.0
 11
355.705489
 21
312.126828
 31
0.0
  0
LINE
  5
153
100
AcDbEntity
  8
Layer_1
 62
3
100
AcDbLine
 10
355.705489
 20
312.126828
 30
0.0
 11
356.003149
 21
312.176428
 31
0.0
  0
LINE
  5
154
100
AcDbEntity
  8
Layer_1
 62
3
100
AcDbLine
 10
356.003149
 20
312.176428
 30
0.0
 11
357.044989
 21
312.374879
 31
0.0
  0
LINE
  5
155
100
AcDbEntity
  8
Layer_1
 62
3
100
AcDbLine
 10
357.044989
 20
312.374879
 30
0.0
 11
357.937988
 21
312.672547
 31
0.0
  0
LINE
  5
156
100
AcDbEntity
  8
Layer_1
 62
3
100
AcDbLine
 10
357.937988
 20
312.672547
 30
0.0
 11
358.731758
 21
313.019818
 31
0.0
  0
LINE
  5
157
100
AcDbEntity
  8
Layer_1
 62
3
100
AcDbLine
 10
358.731758
 20
313.019818
 30
0.0
 11
359.426318
 21
313.416708
 31
0.0
  0
LINE
  5
158
100
AcDbEntity
  8
Layer_1
 62
3
100
AcDbLine
 10
359.426318
 20
313.416708
 30
0.0
 11
358.979817
 21
316.194937
 31
0.0
  0
LINE
  5
159
100
AcDbEntity
  8
Layer_1
 62
3
100
AcDbLine
 10
358.979817
 20
316.194937
 30
0.0
 11
358.483707
 21
315.798048
 31
0.0
  0
LINE
  5
15a
100
AcDbEntity
  8
Layer_1
 62
3
100
AcDbLine
 10
358.483707
 20
315.798048
 30
0.0
 11
357.689929
 21
315.351547
 31
0.0
  0
LINE
  5
15b
100
AcDbEntity
  8
Layer_1
 62
3
100
AcDbLine
 10
357.689929
 20
315.351547
 30
0.0
 11
356.796927
 21
315.053879
 31
0.0
  0
LINE
  5
15c
100
AcDbEntity
  8
Layer_1
 62
3
100
AcDbLine
 10
356.796927
 20
315.053879
 30
0.0
 11
355.903928
 21
314.855437
 31
0.0
  0
LINE
  5
15d
100
AcDbEntity
  8
Layer_1
 62
3
100
AcDbLine
 10
355.903928
 20
314.855437
 30
0.0
 11
355.308597
 21
314.756239
 31
0.0
  0
LINE
  5
15e
100
AcDbEntity
  8
Layer_1
 62
3
100
AcDbLine
 10
355.308597
 20
314.756239
 30
0.0
 11
354.365978
 21
314.805836
 31
0.0
  0
LINE
  5
15f
100
AcDbEntity
  8
Layer_1
 62
3
100
AcDbLine
 10
354.365978
 20
314.805836
 30
0.0
 11
353.522599
 21
315.103499
 31
0.0
  0
LINE
  5
160
100
AcDbEntity
  8
Layer_1
 62
3
100
AcDbLine
 10
353.522599
 20
315.103499
 30
0.0
 11
352.778430
 21
315.549997
 31
0.0
  0
LINE
  5
161
100
AcDbEntity
  8
Layer_1
 62
3
100
AcDbLine
 10
352.778430
 20
315.549997
 30
0.0
 11
352.331929
 21
315.946886
 31
0.0
  0
LINE
  5
162
100
AcDbEntity
  8
Layer_1
 62
3
100
AcDbLine
 10
352.331929
 20
315.946886
 30
0.0
 11
351.786210
 21
316.641446
 31
0.0
  0
LINE
  5
163
100
AcDbEntity
  8
Layer_1
 62
3
100
AcDbLine
 10
351.786210
 20
316.641446
 30
0.0
 11
351.438930
 21
317.484837
 31
0.0
  0
LINE
  5
164
100
AcDbEntity
  8
Layer_1
 62
3
100
AcDbLine
 10
351.438930
 20
317.484837
 30
0.0
 11
351.240480
 21
318.477057
 31
0.0
  0
LINE
  5
165
100
AcDbEntity
  8
Layer_1
 62
3
100
AcDbLine
 10
351.240480
 20
318.477057
 30
0.0
 11
351.141278
 21
319.370058
 31
0.0
  0
LINE
  5
166
100
AcDbEntity
  8
Layer_1
 62
3
100
AcDbLine
 10
351.141278
 20
319.370058
 30
0.0
 11
351.190879
 21
320.263058
 31
0.0
  0
LINE
  5
167
100
AcDbEntity
  8
Layer_1
 62
3
100
AcDbLine
 10
351.190879
 20
320.263058
 30
0.0
 11
351.488547
 21
321.106448
 31
0.0
  0
LINE
  5
168
100
AcDbEntity
  8
Layer_1
 62
3
100
AcDbLine
 10
351.488547
 20
321.106448
 30
0.0
 11
351.885439
 21
321.850617
 31
0.0
  0
LINE
  5
169
100
AcDbEntity
  8
Layer_1
 62
3
100
AcDbLine
 10
351.885439
 20
321.850617
 30
0.0
 11
352.282328
 21
322.346727
 31
0.0
  0
LINE
  5
16a
100
AcDbEntity
  8
Layer_1
 62
3
100
AcDbLine
 10
352.282328
 20
322.346727
 30
0.0
 11
352.976877
 21
322.892449
 31
0.0
  0
LINE
  5
16b
100
AcDbEntity
  8
Layer_1
 62
3
100
AcDbLine
 10
352.976877
 20
322.892449
 30
0.0
 11
353.820267
 21
323.289338
 31
0.0
  0
LINE
  5
16c
100
AcDbEntity
  8
Layer_1
 62
3
100
AcDbLine
 10
353.820267
 20
323.289338
 30
0.0
 11
354.762878
 21
323.487777
 31
0.0
  0
LINE
  5
16d
100
AcDbEntity
  8
Layer_1
 62
3
100
AcDbLine
 10
354.762878
 20
323.487777
 30
0.0
 11
355.259000
 21
323.537377
 31
0.0
  0
LINE
  5
16e
100
AcDbEntity
  8
Layer_1
 62
3
100
AcDbLine
 10
355.259000
 20
323.537377
 30
0.0
 11
356.151999
 21
323.586978
 31
0.0
  0
LINE
  5
16f
100
AcDbEntity
  8
Layer_1
 62
3
100
AcDbLine
 10
356.151999
 20
323.586978
 30
0.0
 11
357.094610
 21
323.438137
 31
0.0
  0
LINE
  5
170
100
AcDbEntity
  8
Layer_1
 62
3
100
AcDbLine
 10
357.094610
 20
323.438137
 30
0.0
 11
357.938000
 21
323.140477
 31
0.0
  0
LINE
  5
171
100
AcDbEntity
  8
Layer_1
 62
3
100
AcDbLine
 10
357.938000
 20
323.140477
 30
0.0
 11
357.491499
 21
326.067528
 31
0.0
  0
LINE
  5
172
100
AcDbEntity
  8
Layer_1
 62
3
100
AcDbLine
 10
357.491499
 20
326.067528
 30
0.0
 11
356.995377
 21
326.166729
 31
0.0
  0
LINE
  5
173
100
AcDbEntity
  8
Layer_1
 62
3
100
AcDbLine
 10
356.995377
 20
326.166729
 30
0.0
 11
356.102378
 21
326.216327
 31
0.0
  0
LINE
  5
174
100
AcDbEntity
  8
Layer_1
 62
3
100
AcDbLine
 10
356.102378
 20
326.216327
 30
0.0
 11
355.159767
 21
326.166729
 31
0.0
  0
LINE
  5
175
100
AcDbEntity
  8
Layer_1
 62
3
100
AcDbLine
 10
355.159767
 20
326.166729
 30
0.0
 11
354.117938
 21
326.067528
 31
0.0
  0
LINE
  5
176
100
AcDbEntity
  8
Layer_1
 62
3
100
AcDbLine
 10
354.117938
 20
326.067528
 30
0.0
 11
353.820267
 21
326.017927
 31
0.0
  0
LINE
  5
177
100
AcDbEntity
  8
Layer_1
 62
3
100
AcDbLine
 10
364.685118
 20
309.249408
 30
0.0
 11
365.082010
 21
306.719238
 31
0.0
  0
LINE
  5
178
100
AcDbEntity
  8
Layer_1
 62
3
100
AcDbLine
 10
143.320209
 20
306.719238
 30
0.0
 11
160.039158
 21
304.189068
 31
0.0
  0
LINE
  5
179
100
AcDbEntity
  8
Layer_1
 62
3
100
AcDbLine
 10
160.436047
 20
306.669626
 30
0.0
 11
143.667489
 21
309.249408
 31
0.0
  0
LINE
  5
17a
100
AcDbEntity
  8
Layer_1
 62
3
100
AcDbLine
 10
157.905888
 20
307.066518
 30
0.0
 11
158.302769
 21
309.596689
 31
0.0
  0
LINE
  5
17b
100
AcDbEntity
  8
Layer_1
 62
3
100
AcDbLine
 10
158.302769
 20
309.596689
 30
0.0
 11
144.064378
 21
311.729958
 31
0.0
  0
LINE
  5
17c
100
AcDbEntity
  8
Layer_1
 62
3
100
AcDbLine
 10
144.064378
 20
311.729958
 30
0.0
 11
143.667489
 21
309.249408
 31
0.0
  0
LINE
  5
17d
100
AcDbEntity
  8
Layer_1
 62
3
100
AcDbLine
 10
143.667489
 20
309.249408
 30
0.0
 11
143.320209
 21
306.719238
 31
0.0
  0
LINE
  5
17e
100
AcDbEntity
  8
Layer_1
 62
3
100
AcDbLine
 10
155.028438
 20
325.918749
 30
0.0
 11
154.036218
 21
326.017947
 31
0.0
  0
LINE
  5
17f
100
AcDbEntity
  8
Layer_1
 62
3
100
AcDbLine
 10
154.036218
 20
326.017947
 30
0.0
 11
153.143219
 21
325.968346
 31
0.0
  0
LINE
  5
180
100
AcDbEntity
  8
Layer_1
 62
3
100
AcDbLine
 10
153.143219
 20
325.968346
 30
0.0
 11
152.250220
 21
325.819517
 31
0.0
  0
LINE
  5
181
100
AcDbEntity
  8
Layer_1
 62
3
100
AcDbLine
 10
152.250220
 20
325.819517
 30
0.0
 11
151.406830
 21
325.571457
 31
0.0
  0
LINE
  5
182
100
AcDbEntity
  8
Layer_1
 62
3
100
AcDbLine
 10
151.406830
 20
325.571457
 30
0.0
 11
150.613049
 21
325.174568
 31
0.0
  0
LINE
  5
183
100
AcDbEntity
  8
Layer_1
 62
3
100
AcDbLine
 10
150.613049
 20
325.174568
 30
0.0
 11
149.868880
 21
324.678458
 31
0.0
  0
LINE
  5
184
100
AcDbEntity
  8
Layer_1
 62
3
100
AcDbLine
 10
149.868880
 20
324.678458
 30
0.0
 11
149.620829
 21
324.480016
 31
0.0
  0
LINE
  5
185
100
AcDbEntity
  8
Layer_1
 62
3
100
AcDbLine
 10
149.620829
 20
324.480016
 30
0.0
 11
148.975878
 21
323.884677
 31
0.0
  0
LINE
  5
186
100
AcDbEntity
  8
Layer_1
 62
3
100
AcDbLine
 10
148.975878
 20
323.884677
 30
0.0
 11
148.430159
 21
323.239737
 31
0.0
  0
LINE
  5
187
100
AcDbEntity
  8
Layer_1
 62
3
100
AcDbLine
 10
148.430159
 20
323.239737
 30
0.0
 11
147.934049
 21
322.495568
 31
0.0
  0
LINE
  5
188
100
AcDbEntity
  8
Layer_1
 62
3
100
AcDbLine
 10
147.934049
 20
322.495568
 30
0.0
 11
147.586769
 21
321.652178
 31
0.0
  0
LINE
  5
189
100
AcDbEntity
  8
Layer_1
 62
3
100
AcDbLine
 10
147.586769
 20
321.652178
 30
0.0
 11
147.289097
 21
320.759179
 31
0.0
  0
LINE
  5
18a
100
AcDbEntity
  8
Layer_1
 62
3
100
AcDbLine
 10
147.289097
 20
320.759179
 30
0.0
 11
147.090659
 21
319.766959
 31
0.0
  0
LINE
  5
18b
100
AcDbEntity
  8
Layer_1
 62
3
100
AcDbLine
 10
147.090659
 20
319.766959
 30
0.0
 11
146.991457
 21
318.923569
 31
0.0
  0
LINE
  5
18c
100
AcDbEntity
  8
Layer_1
 62
3
100
AcDbLine
 10
146.991457
 20
318.923569
 30
0.0
 11
146.991457
 21
317.980958
 31
0.0
  0
LINE
  5
18d
100
AcDbEntity
  8
Layer_1
 62
3
100
AcDbLine
 10
146.991457
 20
317.980958
 30
0.0
 11
147.090659
 21
317.038347
 31
0.0
  0
LINE
  5
18e
100
AcDbEntity
  8
Layer_1
 62
3
100
AcDbLine
 10
147.090659
 20
317.038347
 30
0.0
 11
147.338709
 21
316.194957
 31
0.0
  0
LINE
  5
18f
100
AcDbEntity
  8
Layer_1
 62
3
100
AcDbLine
 10
147.338709
 20
316.194957
 30
0.0
 11
147.685989
 21
315.450788
 31
0.0
  0
LINE
  5
190
100
AcDbEntity
  8
Layer_1
 62
3
100
AcDbLine
 10
147.685989
 20
315.450788
 30
0.0
 11
148.132488
 21
314.657006
 31
0.0
  0
LINE
  5
191
100
AcDbEntity
  8
Layer_1
 62
3
100
AcDbLine
 10
148.132488
 20
314.657006
 30
0.0
 11
148.628598
 21
314.061678
 31
0.0
  0
LINE
  5
192
100
AcDbEntity
  8
Layer_1
 62
3
100
AcDbLine
 10
148.628598
 20
314.061678
 30
0.0
 11
149.223940
 21
313.515957
 31
0.0
  0
LINE
  5
193
100
AcDbEntity
  8
Layer_1
 62
3
100
AcDbLine
 10
149.223940
 20
313.515957
 30
0.0
 11
149.968098
 21
313.019838
 31
0.0
  0
LINE
  5
194
100
AcDbEntity
  8
Layer_1
 62
3
100
AcDbLine
 10
149.968098
 20
313.019838
 30
0.0
 11
150.761879
 21
312.622958
 31
0.0
  0
LINE
  5
195
100
AcDbEntity
  8
Layer_1
 62
3
100
AcDbLine
 10
150.761879
 20
312.622958
 30
0.0
 11
151.704490
 21
312.325286
 31
0.0
  0
LINE
  5
196
100
AcDbEntity
  8
Layer_1
 62
3
100
AcDbLine
 10
151.704490
 20
312.325286
 30
0.0
 11
152.696718
 21
312.126836
 31
0.0
  0
LINE
  5
197
100
AcDbEntity
  8
Layer_1
 62
3
100
AcDbLine
 10
152.696718
 20
312.126836
 30
0.0
 11
152.994378
 21
312.077238
 31
0.0
  0
LINE
  5
198
100
AcDbEntity
  8
Layer_1
 62
3
100
AcDbLine
 10
152.994378
 20
312.077238
 30
0.0
 11
154.036218
 21
311.978037
 31
0.0
  0
LINE
  5
199
100
AcDbEntity
  8
Layer_1
 62
3
100
AcDbLine
 10
154.036218
 20
311.978037
 30
0.0
 11
154.978829
 21
311.978037
 31
0.0
  0
LINE
  5
19a
100
AcDbEntity
  8
Layer_1
 62
3
100
AcDbLine
 10
154.978829
 20
311.978037
 30
0.0
 11
155.871828
 21
312.077238
 31
0.0
  0
LINE
  5
19b
100
AcDbEntity
  8
Layer_1
 62
3
100
AcDbLine
 10
155.871828
 20
312.077238
 30
0.0
 11
156.615997
 21
312.275689
 31
0.0
  0
LINE
  5
19c
100
AcDbEntity
  8
Layer_1
 62
3
100
AcDbLine
 10
156.615997
 20
312.275689
 30
0.0
 11
157.062498
 21
315.004298
 31
0.0
  0
LINE
  5
19d
100
AcDbEntity
  8
Layer_1
 62
3
100
AcDbLine
 10
157.062498
 20
315.004298
 30
0.0
 11
156.417547
 21
314.805859
 31
0.0
  0
LINE
  5
19e
100
AcDbEntity
  8
Layer_1
 62
3
100
AcDbLine
 10
156.417547
 20
314.805859
 30
0.0
 11
155.524548
 21
314.607409
 31
0.0
  0
LINE
  5
19f
100
AcDbEntity
  8
Layer_1
 62
3
100
AcDbLine
 10
155.524548
 20
314.607409
 30
0.0
 11
154.631549
 21
314.557808
 31
0.0
  0
LINE
  5
1a0
100
AcDbEntity
  8
Layer_1
 62
3
100
AcDbLine
 10
154.631549
 20
314.557808
 30
0.0
 11
153.688938
 21
314.657006
 31
0.0
  0
LINE
  5
1a1
100
AcDbEntity
  8
Layer_1
 62
3
100
AcDbLine
 10
153.688938
 20
314.657006
 30
0.0
 11
153.093607
 21
314.756208
 31
0.0
  0
LINE
  5
1a2
100
AcDbEntity
  8
Layer_1
 62
3
100
AcDbLine
 10
153.093607
 20
314.756208
 30
0.0
 11
152.200600
 21
315.103488
 31
0.0
  0
LINE
  5
1a3
100
AcDbEntity
  8
Layer_1
 62
3
100
AcDbLine
 10
152.200600
 20
315.103488
 30
0.0
 11
151.506048
 21
315.599598
 31
0.0
  0
LINE
  5
1a4
100
AcDbEntity
  8
Layer_1
 62
3
100
AcDbLine
 10
151.506048
 20
315.599598
 30
0.0
 11
150.910709
 21
316.244549
 31
0.0
  0
LINE
  5
1a5
100
AcDbEntity
  8
Layer_1
 62
3
100
AcDbLine
 10
150.910709
 20
316.244549
 30
0.0
 11
150.613049
 21
316.790268
 31
0.0
  0
LINE
  5
1a6
100
AcDbEntity
  8
Layer_1
 62
3
100
AcDbLine
 10
150.613049
 20
316.790268
 30
0.0
 11
150.315378
 21
317.584049
 31
0.0
  0
LINE
  5
1a7
100
AcDbEntity
  8
Layer_1
 62
3
100
AcDbLine
 10
150.315378
 20
317.584049
 30
0.0
 11
150.216179
 21
318.526657
 31
0.0
  0
LINE
  5
1a8
100
AcDbEntity
  8
Layer_1
 62
3
100
AcDbLine
 10
150.216179
 20
318.526657
 30
0.0
 11
150.315378
 21
319.518877
 31
0.0
  0
LINE
  5
1a9
100
AcDbEntity
  8
Layer_1
 62
3
100
AcDbLine
 10
150.315378
 20
319.518877
 30
0.0
 11
150.464208
 21
320.411879
 31
0.0
  0
LINE
  5
1aa
100
AcDbEntity
  8
Layer_1
 62
3
100
AcDbLine
 10
150.464208
 20
320.411879
 30
0.0
 11
150.811488
 21
321.255266
 31
0.0
  0
LINE
  5
1ab
100
AcDbEntity
  8
Layer_1
 62
3
100
AcDbLine
 10
150.811488
 20
321.255266
 30
0.0
 11
151.307598
 21
321.949826
 31
0.0
  0
LINE
  5
1ac
100
AcDbEntity
  8
Layer_1
 62
3
100
AcDbLine
 10
151.307598
 20
321.949826
 30
0.0
 11
151.952549
 21
322.545157
 31
0.0
  0
LINE
  5
1ad
100
AcDbEntity
  8
Layer_1
 62
3
100
AcDbLine
 10
151.952549
 20
322.545157
 30
0.0
 11
152.498268
 21
322.892437
 31
0.0
  0
LINE
  5
1ae
100
AcDbEntity
  8
Layer_1
 62
3
100
AcDbLine
 10
152.498268
 20
322.892437
 30
0.0
 11
153.292049
 21
323.190108
 31
0.0
  0
LINE
  5
1af
100
AcDbEntity
  8
Layer_1
 62
3
100
AcDbLine
 10
153.292049
 20
323.190108
 30
0.0
 11
154.185048
 21
323.338938
 31
0.0
  0
LINE
  5
1b0
100
AcDbEntity
  8
Layer_1
 62
3
100
AcDbLine
 10
154.185048
 20
323.338938
 30
0.0
 11
155.177268
 21
323.289338
 31
0.0
  0
LINE
  5
1b1
100
AcDbEntity
  8
Layer_1
 62
3
100
AcDbLine
 10
155.177268
 20
323.289338
 30
0.0
 11
155.673378
 21
323.190137
 31
0.0
  0
LINE
  5
1b2
100
AcDbEntity
  8
Layer_1
 62
3
100
AcDbLine
 10
155.673378
 20
323.190137
 30
0.0
 11
156.566380
 21
322.892468
 31
0.0
  0
LINE
  5
1b3
100
AcDbEntity
  8
Layer_1
 62
3
100
AcDbLine
 10
156.566380
 20
322.892468
 30
0.0
 11
157.360158
 21
322.545188
 31
0.0
  0
LINE
  5
1b4
100
AcDbEntity
  8
Layer_1
 62
3
100
AcDbLine
 10
157.360158
 20
322.545188
 30
0.0
 11
158.104327
 21
321.999467
 31
0.0
  0
LINE
  5
1b5
100
AcDbEntity
  8
Layer_1
 62
3
100
AcDbLine
 10
158.104327
 20
321.999467
 30
0.0
 11
158.550828
 21
324.926529
 31
0.0
  0
LINE
  5
1b6
100
AcDbEntity
  8
Layer_1
 62
3
100
AcDbLine
 10
158.550828
 20
324.926529
 30
0.0
 11
158.054718
 21
325.174577
 31
0.0
  0
LINE
  5
1b7
100
AcDbEntity
  8
Layer_1
 62
3
100
AcDbLine
 10
158.054718
 20
325.174577
 30
0.0
 11
157.260937
 21
325.472248
 31
0.0
  0
LINE
  5
1b8
100
AcDbEntity
  8
Layer_1
 62
3
100
AcDbLine
 10
157.260937
 20
325.472248
 30
0.0
 11
156.318329
 21
325.720307
 31
0.0
  0
LINE
  5
1b9
100
AcDbEntity
  8
Layer_1
 62
3
100
AcDbLine
 10
156.318329
 20
325.720307
 30
0.0
 11
155.326109
 21
325.918749
 31
0.0
  0
LINE
  5
1ba
100
AcDbEntity
  8
Layer_1
 62
3
100
AcDbLine
 10
155.326109
 20
325.918749
 30
0.0
 11
155.028438
 21
325.918749
 31
0.0
  0
LINE
  5
1bb
100
AcDbEntity
  8
Layer_1
 62
3
100
AcDbLine
 10
160.436047
 20
306.669626
 30
0.0
 11
160.039158
 21
304.189068
 31
0.0
  0
LINE
  5
1bc
100
AcDbEntity
  8
Layer_1
 62
1
100
AcDbLine
 10
17.456737
 20
356.925706
 30
0.0
 11
490.945456
 21
356.925706
 31
0.0
  0
LINE
  5
1bd
100
AcDbEntity
  8
Layer_1
 62
1
100
AcDbLine
 10
49.158258
 20
311.481908
 30
0.0
 11
254.201109
 21
280.326109
 31
0.0
  0
LINE
  5
1be
100
AcDbEntity
  8
Layer_1
 62
1
100
AcDbLine
 10
254.201109
 20
280.326109
 30
0.0
 11
459.243941
 21
311.481908
 31
0.0
  0
LINE
  5
1bf
100
AcDbEntity
  8
Layer_1
 62
1
100
AcDbLine
 10
460.594910
 20
302.643399
 30
0.0
 11
255.540590
 21
271.445718
 31
0.0
  0
LINE
  5
1c0
100
AcDbEntity
  8
Layer_1
 62
1
100
AcDbLine
 10
252.861609
 20
271.445718
 30
0.0
 11
47.856909
 21
302.643399
 31
0.0
  0
LINE
  5
1c1
100
AcDbEntity
  8
Layer_1
 62
7
100
AcDbLine
 10
171.202495
 20
138.223964
 30
0.0
 11
167.382448
 21
138.223964
 31
0.0
  0
LINE
  5
1c2
100
AcDbEntity
  8
Layer_1
 62
7
100
AcDbLine
 10
541.797733
 20
186.594826
 30
0.0
 11
169.515738
 21
141.250243
 31
0.0
  0
LINE
  5
1c3
100
AcDbEntity
  8
Layer_1
 62
7
100
AcDbLine
 10
45.785533
 20
157.770753
 30
0.0
 11
164.256950
 21
123.291011
 31
0.0
  0
LINE
  5
1c4
100
AcDbEntity
  8
Layer_1
 62
7
100
AcDbLine
 10
175.022571
 20
122.546844
 30
0.0
 11
543.385290
 21
176.672598
 31
0.0
  0
SPLINE
  5
1c5
100
AcDbEntity
  8
Layer_1
 62
7
100
AcDbSpline
 70
8
 71
3
 72
8
 73
4
 74
0
 40
0
 40
0
 40
0
 40
0
 40
1
 40
1
 40
1
 40
1
 10
164.221587
 20
123.262038
 30
0.0
 10
167.727098
 20
122.241814
 30
0.0
 10
171.411283
 20
121.988525
 30
0.0
 10
175.023474
 20
122.519374
 30
0.0
  0
LINE
  5
1c6
100
AcDbEntity
  8
Layer_1
 62
7
100
AcDbLine
 10
9.867082
 20
185.503380
 30
0.0
 11
9.867082
 21
157.770753
 31
0.0
  0
LINE
  5
1c7
100
AcDbEntity
  8
Layer_1
 62
7
100
AcDbLine
 10
543.385290
 20
176.672598
 30
0.0
 11
543.137216
 21
178.408987
 31
0.0
  0
LINE
  5
1c8
100
AcDbEntity
  8
Layer_1
 62
7
100
AcDbLine
 10
543.137216
 20
178.408987
 30
0.0
 11
539.366784
 21
177.813654
 31
0.0
  0
LINE
  5
1c9
100
AcDbEntity
  8
Layer_1
 62
7
100
AcDbLine
 10
539.366784
 20
177.813654
 30
0.0
 11
538.374547
 21
183.766990
 31
0.0
  0
LINE
  5
1ca
100
AcDbEntity
  8
Layer_1
 62
7
100
AcDbLine
 10
538.374547
 20
183.766990
 30
0.0
 11
542.145007
 21
184.411936
 31
0.0
  0
LINE
  5
1cb
100
AcDbEntity
  8
Layer_1
 62
7
100
AcDbLine
 10
542.145007
 20
184.411936
 30
0.0
 11
541.797733
 21
186.594826
 31
0.0
  0
LINE
  5
1cc
100
AcDbEntity
  8
Layer_1
 62
7
100
AcDbLine
 10
169.515738
 20
141.250243
 30
0.0
 11
47.373090
 21
185.503380
 31
0.0
  0
LINE
  5
1cd
100
AcDbEntity
  8
Layer_1
 62
7
100
AcDbLine
 10
171.252110
 20
125.523512
 30
0.0
 11
171.202495
 21
138.223964
 31
0.0
  0
LINE
  5
1ce
100
AcDbEntity
  8
Layer_1
 62
7
100
AcDbLine
 10
167.382448
 20
138.223964
 30
0.0
 11
167.432063
 21
125.523512
 31
0.0
  0
LINE
  5
1cf
100
AcDbEntity
  8
Layer_1
 62
7
100
AcDbLine
 10
167.432063
 20
125.523512
 30
0.0
 11
171.252110
 21
125.523512
 31
0.0
  0
LINE
  5
1d0
100
AcDbEntity
  8
Layer_1
 62
7
100
AcDbLine
 10
9.867082
 20
185.503380
 30
0.0
 11
47.373090
 21
185.503380
 31
0.0
  0
LINE
  5
1d1
100
AcDbEntity
  8
Layer_1
 62
7
100
AcDbLine
 10
9.867082
 20
157.770753
 30
0.0
 11
45.785533
 21
157.770753
 31
0.0
  0
LINE
  5
1d2
100
AcDbEntity
  8
Layer_1
 62
7
100
AcDbLine
 10
171.202495
 20
173.199817
 30
0.0
 11
167.382448
 21
173.199817
 31
0.0
  0
LINE
  5
1d3
100
AcDbEntity
  8
Layer_1
 62
7
100
AcDbLine
 10
541.797733
 20
221.570681
 30
0.0
 11
169.515738
 21
176.275709
 31
0.0
  0
LINE
  5
1d4
100
AcDbEntity
  8
Layer_1
 62
7
100
AcDbLine
 10
45.785533
 20
192.796219
 30
0.0
 11
164.256950
 21
158.316475
 31
0.0
  0
LINE
  5
1d5
100
AcDbEntity
  8
Layer_1
 62
7
100
AcDbLine
 10
175.022571
 20
157.572308
 30
0.0
 11
543.385290
 21
211.698062
 31
0.0
  0
SPLINE
  5
1d6
100
AcDbEntity
  8
Layer_1
 62
7
100
AcDbSpline
 70
8
 71
3
 72
8
 73
4
 74
0
 40
0
 40
0
 40
0
 40
0
 40
1
 40
1
 40
1
 40
1
 10
164.221587
 20
158.237916
 30
0.0
 10
167.727098
 20
157.217668
 30
0.0
 10
171.411283
 20
156.964379
 30
0.0
 10
175.023474
 20
157.495253
 30
0.0
  0
LINE
  5
1d7
100
AcDbEntity
  8
Layer_1
 62
7
100
AcDbLine
 10
9.867082
 20
220.528846
 30
0.0
 11
9.867082
 21
192.746608
 31
0.0
  0
LINE
  5
1d8
100
AcDbEntity
  8
Layer_1
 62
7
100
AcDbLine
 10
543.385290
 20
211.698062
 30
0.0
 11
543.137216
 21
213.434454
 31
0.0
  0
LINE
  5
1d9
100
AcDbEntity
  8
Layer_1
 62
7
100
AcDbLine
 10
543.137216
 20
213.434454
 30
0.0
 11
539.366784
 21
212.839117
 31
0.0
  0
LINE
  5
1da
100
AcDbEntity
  8
Layer_1
 62
7
100
AcDbLine
 10
539.366784
 20
212.839117
 30
0.0
 11
538.374547
 21
218.792457
 31
0.0
  0
LINE
  5
1db
100
AcDbEntity
  8
Layer_1
 62
7
100
AcDbLine
 10
538.374547
 20
218.792457
 30
0.0
 11
542.145007
 21
219.387788
 31
0.0
  0
LINE
  5
1dc
100
AcDbEntity
  8
Layer_1
 62
7
100
AcDbLine
 10
542.145007
 20
219.387788
 30
0.0
 11
541.797733
 21
221.570681
 31
0.0
  0
LINE
  5
1dd
100
AcDbEntity
  8
Layer_1
 62
7
100
AcDbLine
 10
169.515738
 20
176.275709
 30
0.0
 11
47.373090
 21
220.528846
 31
0.0
  0
LINE
  5
1de
100
AcDbEntity
  8
Layer_1
 62
7
100
AcDbLine
 10
171.252110
 20
160.548977
 30
0.0
 11
171.202495
 21
173.199817
 31
0.0
  0
LINE
  5
1df
100
AcDbEntity
  8
Layer_1
 62
7
100
AcDbLine
 10
167.382448
 20
173.199817
 30
0.0
 11
167.432063
 21
160.548977
 31
0.0
  0
LINE
  5
1e0
100
AcDbEntity
  8
Layer_1
 62
7
100
AcDbLine
 10
167.432063
 20
160.548977
 30
0.0
 11
171.252110
 21
160.548977
 31
0.0
  0
LINE
  5
1e1
100
AcDbEntity
  8
Layer_1
 62
7
100
AcDbLine
 10
9.867082
 20
220.528846
 30
0.0
 11
47.373090
 21
220.528846
 31
0.0
  0
LINE
  5
1e2
100
AcDbEntity
  8
Layer_1
 62
7
100
AcDbLine
 10
9.867082
 20
192.746608
 30
0.0
 11
45.785533
 21
192.796219
 31
0.0
  0
LINE
  5
1e3
100
AcDbEntity
  8
Layer_1
 62
7
100
AcDbLine
 10
382.691254
 20
88.740206
 30
0.0
 11
386.511330
 21
88.740206
 31
0.0
  0
LINE
  5
1e4
100
AcDbEntity
  8
Layer_1
 62
7
100
AcDbLine
 10
386.511330
 20
88.740206
 30
0.0
 11
386.511330
 21
76.039754
 31
0.0
  0
LINE
  5
1e5
100
AcDbEntity
  8
Layer_1
 62
7
100
AcDbLine
 10
506.570275
 20
136.416513
 30
0.0
 11
544.026696
 21
136.416513
 31
0.0
  0
LINE
  5
1e6
100
AcDbEntity
  8
Layer_1
 62
7
100
AcDbLine
 10
69.049648
 20
129.421341
 30
0.0
 11
356.794260
 21
95.090432
 31
0.0
  0
LINE
  5
1e7
100
AcDbEntity
  8
Layer_1
 62
7
100
AcDbLine
 10
56.746085
 20
133.539068
 30
0.0
 11
69.396922
 21
132.050732
 31
0.0
  0
LINE
  5
1e8
100
AcDbEntity
  8
Layer_1
 62
7
100
AcDbLine
 10
69.396922
 20
132.050732
 30
0.0
 11
69.049648
 21
129.421341
 31
0.0
  0
LINE
  5
1e9
100
AcDbEntity
  8
Layer_1
 62
7
100
AcDbLine
 10
508.306675
 20
108.683886
 30
0.0
 11
389.686443
 21
73.856867
 31
0.0
  0
SPLINE
  5
1ea
100
AcDbEntity
  8
Layer_1
 62
7
100
AcDbSpline
 70
8
 71
3
 72
8
 73
4
 74
0
 40
0
 40
0
 40
0
 40
0
 40
1
 40
1
 40
1
 40
1
 10
378.883371
 20
73.026510
 30
0.0
 10
382.496888
 20
72.504625
 30
0.0
 10
386.180424
 20
72.767117
 30
0.0
 10
389.683451
 20
73.796113
 30
0.0
  0
LINE
  5
1eb
100
AcDbEntity
  8
Layer_1
 62
7
100
AcDbLine
 10
544.026696
 20
108.683886
 30
0.0
 11
508.306675
 21
108.683886
 31
0.0
  0
LINE
  5
1ec
100
AcDbEntity
  8
Layer_1
 62
7
100
AcDbLine
 10
378.920822
 20
73.063089
 30
0.0
 11
10.409287
 21
126.295840
 31
0.0
  0
LINE
  5
1ed
100
AcDbEntity
  8
Layer_1
 62
7
100
AcDbLine
 10
10.409287
 20
126.295840
 30
0.0
 11
10.706947
 21
128.032229
 31
0.0
  0
LINE
  5
1ee
100
AcDbEntity
  8
Layer_1
 62
7
100
AcDbLine
 10
10.706947
 20
128.032229
 30
0.0
 11
14.477379
 21
127.436895
 31
0.0
  0
LINE
  5
1ef
100
AcDbEntity
  8
Layer_1
 62
7
100
AcDbLine
 10
14.477379
 20
127.436895
 30
0.0
 11
15.420002
 21
133.390232
 31
0.0
  0
LINE
  5
1f0
100
AcDbEntity
  8
Layer_1
 62
7
100
AcDbLine
 10
15.420002
 20
133.390232
 30
0.0
 11
11.649541
 21
133.985566
 31
0.0
  0
LINE
  5
1f1
100
AcDbEntity
  8
Layer_1
 62
7
100
AcDbLine
 10
11.649541
 20
133.985566
 30
0.0
 11
11.996844
 21
136.218068
 31
0.0
  0
LINE
  5
1f2
100
AcDbEntity
  8
Layer_1
 62
7
100
AcDbLine
 10
11.996844
 20
136.218068
 30
0.0
 11
56.448397
 21
130.909677
 31
0.0
  0
LINE
  5
1f3
100
AcDbEntity
  8
Layer_1
 62
7
100
AcDbLine
 10
56.448397
 20
130.909677
 30
0.0
 11
56.746085
 21
133.539068
 31
0.0
  0
LINE
  5
1f4
100
AcDbEntity
  8
Layer_1
 62
7
100
AcDbLine
 10
369.395483
 20
93.552487
 30
0.0
 11
384.378040
 21
91.766486
 31
0.0
  0
LINE
  5
1f5
100
AcDbEntity
  8
Layer_1
 62
7
100
AcDbLine
 10
384.378040
 20
91.766486
 30
0.0
 11
506.570275
 21
136.416513
 31
0.0
  0
LINE
  5
1f6
100
AcDbEntity
  8
Layer_1
 62
7
100
AcDbLine
 10
356.794260
 20
95.090432
 30
0.0
 11
357.091920
 21
97.670211
 31
0.0
  0
LINE
  5
1f7
100
AcDbEntity
  8
Layer_1
 62
7
100
AcDbLine
 10
357.091920
 20
97.670211
 30
0.0
 11
369.643528
 21
96.132267
 31
0.0
  0
LINE
  5
1f8
100
AcDbEntity
  8
Layer_1
 62
7
100
AcDbLine
 10
369.643528
 20
96.132267
 30
0.0
 11
369.395483
 21
93.552487
 31
0.0
  0
LINE
  5
1f9
100
AcDbEntity
  8
Layer_1
 62
7
100
AcDbLine
 10
386.511330
 20
76.039754
 30
0.0
 11
382.691254
 21
76.039754
 31
0.0
  0
LINE
  5
1fa
100
AcDbEntity
  8
Layer_1
 62
7
100
AcDbLine
 10
382.691254
 20
76.039754
 30
0.0
 11
382.691254
 21
88.740206
 31
0.0
  0
LINE
  5
1fb
100
AcDbEntity
  8
Layer_1
 62
7
100
AcDbLine
 10
544.026696
 20
108.683886
 30
0.0
 11
544.026696
 21
136.416513
 31
0.0
  0
LINE
  5
1fc
100
AcDbEntity
  8
Layer_1
 62
7
100
AcDbLine
 10
382.691254
 20
53.913187
 30
0.0
 11
386.511330
 21
53.913187
 31
0.0
  0
LINE
  5
1fd
100
AcDbEntity
  8
Layer_1
 62
7
100
AcDbLine
 10
386.511330
 20
53.913187
 30
0.0
 11
386.511330
 21
41.212735
 31
0.0
  0
LINE
  5
1fe
100
AcDbEntity
  8
Layer_1
 62
7
100
AcDbLine
 10
506.570275
 20
101.589494
 30
0.0
 11
544.026696
 21
101.589494
 31
0.0
  0
LINE
  5
1ff
100
AcDbEntity
  8
Layer_1
 62
7
100
AcDbLine
 10
69.049648
 20
94.594322
 30
0.0
 11
356.794260
 21
60.263413
 31
0.0
  0
LINE
  5
200
100
AcDbEntity
  8
Layer_1
 62
7
100
AcDbLine
 10
56.746085
 20
98.712046
 30
0.0
 11
69.396922
 21
97.223713
 31
0.0
  0
LINE
  5
201
100
AcDbEntity
  8
Layer_1
 62
7
100
AcDbLine
 10
69.396922
 20
97.223713
 30
0.0
 11
69.049648
 21
94.594322
 31
0.0
  0
LINE
  5
202
100
AcDbEntity
  8
Layer_1
 62
7
100
AcDbLine
 10
508.306675
 20
73.856867
 30
0.0
 11
389.686443
 21
39.029845
 31
0.0
  0
SPLINE
  5
203
100
AcDbEntity
  8
Layer_1
 62
7
100
AcDbSpline
 70
8
 71
3
 72
8
 73
4
 74
0
 40
0
 40
0
 40
0
 40
0
 40
1
 40
1
 40
1
 40
1
 10
378.883371
 20
38.199502
 30
0.0
 10
382.496888
 20
37.677594
 30
0.0
 10
386.180424
 20
37.940086
 30
0.0
 10
389.683451
 20
38.969071
 30
0.0
  0
LINE
  5
204
100
AcDbEntity
  8
Layer_1
 62
7
100
AcDbLine
 10
544.026696
 20
73.856867
 30
0.0
 11
508.306675
 21
73.856867
 31
0.0
  0
LINE
  5
205
100
AcDbEntity
  8
Layer_1
 62
7
100
AcDbLine
 10
378.920822
 20
38.236067
 30
0.0
 11
10.409287
 21
91.468821
 31
0.0
  0
LINE
  5
206
100
AcDbEntity
  8
Layer_1
 62
7
100
AcDbLine
 10
10.409287
 20
91.468821
 30
0.0
 11
10.706947
 21
93.205210
 31
0.0
  0
LINE
  5
207
100
AcDbEntity
  8
Layer_1
 62
7
100
AcDbLine
 10
10.706947
 20
93.205210
 30
0.0
 11
14.477379
 21
92.609876
 31
0.0
  0
LINE
  5
208
100
AcDbEntity
  8
Layer_1
 62
7
100
AcDbLine
 10
14.477379
 20
92.609876
 30
0.0
 11
15.420002
 21
98.563213
 31
0.0
  0
LINE
  5
209
100
AcDbEntity
  8
Layer_1
 62
7
100
AcDbLine
 10
15.420002
 20
98.563213
 30
0.0
 11
11.649541
 21
99.158547
 31
0.0
  0
LINE
  5
20a
100
AcDbEntity
  8
Layer_1
 62
7
100
AcDbLine
 10
11.649541
 20
99.158547
 30
0.0
 11
11.996844
 21
101.341437
 31
0.0
  0
LINE
  5
20b
100
AcDbEntity
  8
Layer_1
 62
7
100
AcDbLine
 10
11.996844
 20
101.341437
 30
0.0
 11
56.448397
 21
96.082655
 31
0.0
  0
LINE
  5
20c
100
AcDbEntity
  8
Layer_1
 62
7
100
AcDbLine
 10
56.448397
 20
96.082655
 30
0.0
 11
56.746085
 21
98.712046
 31
0.0
  0
LINE
  5
20d
100
AcDbEntity
  8
Layer_1
 62
7
100
AcDbLine
 10
369.395483
 20
58.725469
 30
0.0
 11
384.378040
 21
56.939467
 31
0.0
  0
LINE
  5
20e
100
AcDbEntity
  8
Layer_1
 62
7
100
AcDbLine
 10
384.378040
 20
56.939467
 30
0.0
 11
506.570275
 21
101.589494
 31
0.0
  0
LINE
  5
20f
100
AcDbEntity
  8
Layer_1
 62
7
100
AcDbLine
 10
356.794260
 20
60.263413
 30
0.0
 11
357.091920
 21
62.843192
 31
0.0
  0
LINE
  5
210
100
AcDbEntity
  8
Layer_1
 62
7
100
AcDbLine
 10
357.091920
 20
62.843192
 30
0.0
 11
369.643528
 21
61.305248
 31
0.0
  0
LINE
  5
211
100
AcDbEntity
  8
Layer_1
 62
7
100
AcDbLine
 10
369.643528
 20
61.305248
 30
0.0
 11
369.395483
 21
58.725469
 31
0.0
  0
LINE
  5
212
100
AcDbEntity
  8
Layer_1
 62
7
100
AcDbLine
 10
386.511330
 20
41.212735
 30
0.0
 11
382.691254
 21
41.212735
 31
0.0
  0
LINE
  5
213
100
AcDbEntity
  8
Layer_1
 62
7
100
AcDbLine
 10
382.691254
 20
41.212735
 30
0.0
 11
382.691254
 21
53.913187
 31
0.0
  0
LINE
  5
214
100
AcDbEntity
  8
Layer_1
 62
7
100
AcDbLine
 10
544.026696
 20
73.856867
 30
0.0
 11
544.026696
 21
101.589494
 31
0.0
  0
LINE
  5
215
100
AcDbEntity
  8
Layer_1
 62
7
100
AcDbLine
 10
556.907403
 20
296.113668
 30
0.0
 11
567.375336
 21
89.384048
 31
0.0
  0
LINE
  5
216
100
AcDbEntity
  8
Layer_1
 62
7
100
AcDbLine
 10
567.375336
 20
89.384048
 30
0.0
 11
560.032901
 21
45.527800
 31
0.0
  0
LINE
  5
217
100
AcDbEntity
  8
Layer_1
 62
7
100
AcDbLine
 10
560.032901
 20
45.527800
 30
0.0
 11
642.982728
 21
45.527800
 31
0.0
  0
LINE
  5
218
100
AcDbEntity
  8
Layer_1
 62
7
100
AcDbLine
 10
642.982728
 20
45.527800
 30
0.0
 11
635.689880
 21
89.384048
 31
0.0
  0
LINE
  5
219
100
AcDbEntity
  8
Layer_1
 62
7
100
AcDbLine
 10
635.689880
 20
89.384048
 30
0.0
 11
646.108226
 21
296.113668
 31
0.0
  0
LINE
  5
21a
100
AcDbEntity
  8
Layer_1
 62
7
100
AcDbLine
 10
556.907403
 20
296.113668
 30
0.0
 11
646.108226
 21
296.113668
 31
0.0
  0
LINE
  5
21b
100
AcDbEntity
  8
Layer_1
 62
7
100
AcDbLine
 10
502.278832
 20
387.412023
 30
0.0
 11
502.278832
 21
384.236910
 31
0.0
  0
LINE
  5
21c
100
AcDbEntity
  8
Layer_1
 62
7
100
AcDbLine
 10
502.278832
 20
384.236910
 30
0.0
 11
578.481543
 21
384.236910
 31
0.0
  0
LINE
  5
21d
100
AcDbEntity
  8
Layer_1
 62
7
100
AcDbLine
 10
502.278832
 20
375.604573
 30
0.0
 11
502.278832
 21
355.908950
 31
0.0
  0
LINE
  5
21e
100
AcDbEntity
  8
Layer_1
 62
7
100
AcDbLine
 10
502.278832
 20
403.982145
 30
0.0
 11
502.278832
 21
400.112475
 31
0.0
  0
LINE
  5
21f
100
AcDbEntity
  8
Layer_1
 62
7
100
AcDbLine
 10
502.278832
 20
400.112475
 30
0.0
 11
498.458784
 21
400.112475
 31
0.0
  0
LINE
  5
220
100
AcDbEntity
  8
Layer_1
 62
7
100
AcDbLine
 10
498.458784
 20
400.112475
 30
0.0
 11
498.458784
 21
387.412023
 31
0.0
  0
LINE
  5
221
100
AcDbEntity
  8
Layer_1
 62
7
100
AcDbLine
 10
498.458784
 20
387.412023
 30
0.0
 11
502.278832
 21
387.412023
 31
0.0
  0
SPLINE
  5
222
100
AcDbEntity
  8
Layer_1
 62
7
100
AcDbSpline
 70
8
 71
3
 72
8
 73
4
 74
0
 40
0
 40
0
 40
0
 40
0
 40
1
 40
1
 40
1
 40
1
 10
521.021972
 20
406.372952
 30
0.0
 10
514.732988
 20
405.902978
 30
0.0
 10
508.470787
 20
405.124824
 30
0.0
 10
502.258060
 20
404.041277
 30
0.0
  0
SPLINE
  5
223
100
AcDbEntity
  8
Layer_1
 62
7
100
AcDbSpline
 70
8
 71
3
 72
8
 73
4
 74
0
 40
0
 40
0
 40
0
 40
0
 40
1
 40
1
 40
1
 40
1
 10
546.246571
 20
406.838852
 30
0.0
 10
537.848343
 20
407.167528
 30
0.0
 10
529.438177
 20
407.018332
 30
0.0
 10
521.056855
 20
406.392016
 30
0.0
  0
LINE
  5
224
100
AcDbEntity
  8
Layer_1
 62
7
100
AcDbLine
 10
578.481543
 20
403.734089
 30
0.0
 11
565.533046
 21
405.272034
 31
0.0
  0
LINE
  5
225
100
AcDbEntity
  8
Layer_1
 62
7
100
AcDbLine
 10
565.533046
 20
405.272034
 30
0.0
 11
559.083591
 21
405.966591
 31
0.0
  0
LINE
  5
226
100
AcDbEntity
  8
Layer_1
 62
7
100
AcDbLine
 10
559.083591
 20
405.966591
 30
0.0
 11
552.634164
 21
406.462701
 31
0.0
  0
LINE
  5
227
100
AcDbEntity
  8
Layer_1
 62
7
100
AcDbLine
 10
552.634164
 20
406.462701
 30
0.0
 11
546.184708
 21
406.760369
 31
0.0
  0
LINE
  5
228
100
AcDbEntity
  8
Layer_1
 62
7
100
AcDbLine
 10
578.481543
 20
387.412023
 30
0.0
 11
578.481543
 21
384.236910
 31
0.0
  0
LINE
  5
229
100
AcDbEntity
  8
Layer_1
 62
7
100
AcDbLine
 10
578.481543
 20
375.604573
 30
0.0
 11
578.481543
 21
356.107394
 31
0.0
  0
LINE
  5
22a
100
AcDbEntity
  8
Layer_1
 62
7
100
AcDbLine
 10
578.481543
 20
403.734089
 30
0.0
 11
578.481543
 21
400.112475
 31
0.0
  0
LINE
  5
22b
100
AcDbEntity
  8
Layer_1
 62
7
100
AcDbLine
 10
578.481543
 20
400.112475
 30
0.0
 11
582.252004
 21
400.112475
 31
0.0
  0
LINE
  5
22c
100
AcDbEntity
  8
Layer_1
 62
7
100
AcDbLine
 10
582.252004
 20
400.112475
 30
0.0
 11
582.252004
 21
387.412023
 31
0.0
  0
LINE
  5
22d
100
AcDbEntity
  8
Layer_1
 62
7
100
AcDbLine
 10
582.252004
 20
387.412023
 30
0.0
 11
578.481543
 21
387.412023
 31
0.0
  0
LINE
  5
22e
100
AcDbEntity
  8
Layer_1
 62
7
100
AcDbLine
 10
502.278832
 20
375.604573
 30
0.0
 11
578.481543
 21
375.604573
 31
0.0
  0
LINE
  5
22f
100
AcDbEntity
  8
Layer_1
 62
7
100
AcDbLine
 10
502.278832
 20
355.908950
 30
0.0
 11
508.480242
 21
354.916727
 31
0.0
  0
LINE
  5
230
100
AcDbEntity
  8
Layer_1
 62
7
100
AcDbLine
 10
508.480242
 20
354.916727
 30
0.0
 11
514.731238
 21
354.122949
 31
0.0
  0
LINE
  5
231
100
AcDbEntity
  8
Layer_1
 62
7
100
AcDbLine
 10
514.731238
 20
354.122949
 30
0.0
 11
521.031850
 21
353.577227
 31
0.0
  0
LINE
  5
232
100
AcDbEntity
  8
Layer_1
 62
7
100
AcDbLine
 10
521.031850
 20
353.577227
 30
0.0
 11
527.282846
 21
353.180338
 31
0.0
  0
LINE
  5
233
100
AcDbEntity
  8
Layer_1
 62
7
100
AcDbLine
 10
527.282846
 20
353.180338
 30
0.0
 11
533.583486
 21
352.981893
 31
0.0
  0
LINE
  5
234
100
AcDbEntity
  8
Layer_1
 62
7
100
AcDbLine
 10
533.583486
 20
352.981893
 30
0.0
 11
539.884097
 21
352.932282
 31
0.0
  0
LINE
  5
235
100
AcDbEntity
  8
Layer_1
 62
7
100
AcDbLine
 10
539.884097
 20
352.932282
 30
0.0
 11
546.184708
 21
353.130726
 31
0.0
  0
LINE
  5
236
100
AcDbEntity
  8
Layer_1
 62
7
100
AcDbLine
 10
546.184708
 20
353.130726
 30
0.0
 11
552.634164
 21
353.428392
 31
0.0
  0
LINE
  5
237
100
AcDbEntity
  8
Layer_1
 62
7
100
AcDbLine
 10
552.634164
 20
353.428392
 30
0.0
 11
559.083591
 21
353.924504
 31
0.0
  0
LINE
  5
238
100
AcDbEntity
  8
Layer_1
 62
7
100
AcDbLine
 10
559.083591
 20
353.924504
 30
0.0
 11
565.533046
 21
354.619059
 31
0.0
  0
LINE
  5
239
100
AcDbEntity
  8
Layer_1
 62
7
100
AcDbLine
 10
565.533046
 20
354.619059
 30
0.0
 11
578.481543
 21
356.107394
 31
0.0
  0
LINE
  5
23a
100
AcDbEntity
  8
Layer_1
 62
7
100
AcDbLine
 10
595.398959
 20
387.412023
 30
0.0
 11
595.398959
 21
384.236910
 31
0.0
  0
LINE
  5
23b
100
AcDbEntity
  8
Layer_1
 62
7
100
AcDbLine
 10
595.398959
 20
384.236910
 30
0.0
 11
671.601670
 21
384.236910
 31
0.0
  0
LINE
  5
23c
100
AcDbEntity
  8
Layer_1
 62
7
100
AcDbLine
 10
595.398959
 20
375.604573
 30
0.0
 11
595.398959
 21
355.908950
 31
0.0
  0
LINE
  5
23d
100
AcDbEntity
  8
Layer_1
 62
7
100
AcDbLine
 10
595.398959
 20
403.982145
 30
0.0
 11
595.398959
 21
400.112475
 31
0.0
  0
LINE
  5
23e
100
AcDbEntity
  8
Layer_1
 62
7
100
AcDbLine
 10
595.398959
 20
400.112475
 30
0.0
 11
591.578884
 21
400.112475
 31
0.0
  0
LINE
  5
23f
100
AcDbEntity
  8
Layer_1
 62
7
100
AcDbLine
 10
591.578884
 20
400.112475
 30
0.0
 11
591.578884
 21
387.412023
 31
0.0
  0
LINE
  5
240
100
AcDbEntity
  8
Layer_1
 62
7
100
AcDbLine
 10
591.578884
 20
387.412023
 30
0.0
 11
595.398959
 21
387.412023
 31
0.0
  0
SPLINE
  5
241
100
AcDbEntity
  8
Layer_1
 62
7
100
AcDbSpline
 70
8
 71
3
 72
8
 73
4
 74
0
 40
0
 40
0
 40
0
 40
0
 40
1
 40
1
 40
1
 40
1
 10
614.191714
 20
406.372952
 30
0.0
 10
607.902702
 20
405.902978
 30
0.0
 10
601.640530
 20
405.124824
 30
0.0
 10
595.427774
 20
404.041277
 30
0.0
  0
SPLINE
  5
242
100
AcDbEntity
  8
Layer_1
 62
7
100
AcDbSpline
 70
8
 71
3
 72
8
 73
4
 74
0
 40
0
 40
0
 40
0
 40
0
 40
1
 40
1
 40
1
 40
1
 10
639.366671
 20
406.838852
 30
0.0
 10
630.968443
 20
407.167528
 30
0.0
 10
622.558277
 20
407.018332
 30
0.0
 10
614.176982
 20
406.392016
 30
0.0
  0
LINE
  5
243
100
AcDbEntity
  8
Layer_1
 62
7
100
AcDbLine
 10
671.601670
 20
403.734089
 30
0.0
 11
658.653173
 21
405.272034
 31
0.0
  0
LINE
  5
244
100
AcDbEntity
  8
Layer_1
 62
7
100
AcDbLine
 10
658.653173
 20
405.272034
 30
0.0
 11
652.203718
 21
405.966591
 31
0.0
  0
LINE
  5
245
100
AcDbEntity
  8
Layer_1
 62
7
100
AcDbLine
 10
652.203718
 20
405.966591
 30
0.0
 11
645.803878
 21
406.462701
 31
0.0
  0
LINE
  5
246
100
AcDbEntity
  8
Layer_1
 62
7
100
AcDbLine
 10
645.803878
 20
406.462701
 30
0.0
 11
639.354422
 21
406.760369
 31
0.0
  0
LINE
  5
247
100
AcDbEntity
  8
Layer_1
 62
7
100
AcDbLine
 10
671.601670
 20
387.412023
 30
0.0
 11
671.601670
 21
384.236910
 31
0.0
  0
LINE
  5
248
100
AcDbEntity
  8
Layer_1
 62
7
100
AcDbLine
 10
671.601670
 20
375.604573
 30
0.0
 11
671.601670
 21
356.107394
 31
0.0
  0
LINE
  5
249
100
AcDbEntity
  8
Layer_1
 62
7
100
AcDbLine
 10
671.601670
 20
403.734089
 30
0.0
 11
671.601670
 21
400.112475
 31
0.0
  0
LINE
  5
24a
100
AcDbEntity
  8
Layer_1
 62
7
100
AcDbLine
 10
671.601670
 20
400.112475
 30
0.0
 11
675.421718
 21
400.112475
 31
0.0
  0
LINE
  5
24b
100
AcDbEntity
  8
Layer_1
 62
7
100
AcDbLine
 10
675.421718
 20
400.112475
 30
0.0
 11
675.421718
 21
387.412023
 31
0.0
  0
LINE
  5
24c
100
AcDbEntity
  8
Layer_1
 62
7
100
AcDbLine
 10
675.421718
 20
387.412023
 30
0.0
 11
671.601670
 21
387.412023
 31
0.0
  0
LINE
  5
24d
100
AcDbEntity
  8
Layer_1
 62
7
100
AcDbLine
 10
595.398959
 20
375.604573
 30
0.0
 11
671.601670
 21
375.604573
 31
0.0
  0
LINE
  5
24e
100
AcDbEntity
  8
Layer_1
 62
7
100
AcDbLine
 10
595.398959
 20
355.908950
 30
0.0
 11
601.600341
 21
354.916727
 31
0.0
  0
LINE
  5
24f
100
AcDbEntity
  8
Layer_1
 62
7
100
AcDbLine
 10
601.600341
 20
354.916727
 30
0.0
 11
607.851338
 21
354.122949
 31
0.0
  0
LINE
  5
250
100
AcDbEntity
  8
Layer_1
 62
7
100
AcDbLine
 10
607.851338
 20
354.122949
 30
0.0
 11
614.151977
 21
353.577227
 31
0.0
  0
LINE
  5
251
100
AcDbEntity
  8
Layer_1
 62
7
100
AcDbLine
 10
614.151977
 20
353.577227
 30
0.0
 11
620.452589
 21
353.180338
 31
0.0
  0
LINE
  5
252
100
AcDbEntity
  8
Layer_1
 62
7
100
AcDbLine
 10
620.452589
 20
353.180338
 30
0.0
 11
626.753200
 21
352.981893
 31
0.0
  0
LINE
  5
253
100
AcDbEntity
  8
Layer_1
 62
7
100
AcDbLine
 10
626.753200
 20
352.981893
 30
0.0
 11
633.053811
 21
352.932282
 31
0.0
  0
LINE
  5
254
100
AcDbEntity
  8
Layer_1
 62
7
100
AcDbLine
 10
633.053811
 20
352.932282
 30
0.0
 11
639.354422
 21
353.130726
 31
0.0
  0
LINE
  5
255
100
AcDbEntity
  8
Layer_1
 62
7
100
AcDbLine
 10
639.354422
 20
353.130726
 30
0.0
 11
645.803878
 21
353.428392
 31
0.0
  0
LINE
  5
256
100
AcDbEntity
  8
Layer_1
 62
7
100
AcDbLine
 10
645.803878
 20
353.428392
 30
0.0
 11
652.203718
 21
353.924504
 31
0.0
  0
LINE
  5
257
100
AcDbEntity
  8
Layer_1
 62
7
100
AcDbLine
 10
652.203718
 20
353.924504
 30
0.0
 11
658.653173
 21
354.619059
 31
0.0
  0
LINE
  5
258
100
AcDbEntity
  8
Layer_1
 62
7
100
AcDbLine
 10
658.653173
 20
354.619059
 30
0.0
 11
671.601670
 21
356.107394
 31
0.0
  0
LINE
  5
259
100
AcDbEntity
  8
Layer_1
 62
7
100
AcDbLine
 10
606.734472
 20
330.001824
 30
0.0
 11
649.300809
 21
330.001824
 31
0.0
  0
LINE
  5
25a
100
AcDbEntity
  8
Layer_1
 62
7
100
AcDbLine
 10
606.734472
 20
311.348030
 30
0.0
 11
606.734472
 21
321.369487
 31
0.0
  0
LINE
  5
25b
100
AcDbEntity
  8
Layer_1
 62
7
100
AcDbLine
 10
606.734472
 20
330.001824
 30
0.0
 11
606.734472
 21
331.837437
 31
0.0
  0
LINE
  5
25c
100
AcDbEntity
  8
Layer_1
 62
7
100
AcDbLine
 10
606.734472
 20
337.889998
 30
0.0
 11
606.734472
 21
340.023276
 31
0.0
  0
LINE
  5
25d
100
AcDbEntity
  8
Layer_1
 62
7
100
AcDbLine
 10
606.734472
 20
331.837437
 30
0.0
 11
602.914396
 21
331.837437
 31
0.0
  0
LINE
  5
25e
100
AcDbEntity
  8
Layer_1
 62
7
100
AcDbLine
 10
606.734472
 20
337.889998
 30
0.0
 11
602.914396
 21
337.889998
 31
0.0
  0
LINE
  5
25f
100
AcDbEntity
  8
Layer_1
 62
7
100
AcDbLine
 10
602.914396
 20
337.889998
 30
0.0
 11
602.914396
 21
331.837437
 31
0.0
  0
LINE
  5
260
100
AcDbEntity
  8
Layer_1
 62
7
100
AcDbLine
 10
649.300809
 20
311.348030
 30
0.0
 11
649.300809
 21
321.369487
 31
0.0
  0
LINE
  5
261
100
AcDbEntity
  8
Layer_1
 62
7
100
AcDbLine
 10
649.300809
 20
330.001824
 30
0.0
 11
649.300809
 21
331.837437
 31
0.0
  0
LINE
  5
262
100
AcDbEntity
  8
Layer_1
 62
7
100
AcDbLine
 10
649.300809
 20
337.889998
 30
0.0
 11
649.300809
 21
339.973664
 31
0.0
  0
LINE
  5
263
100
AcDbEntity
  8
Layer_1
 62
7
100
AcDbLine
 10
649.300809
 20
331.837437
 30
0.0
 11
653.120884
 21
331.837437
 31
0.0
  0
LINE
  5
264
100
AcDbEntity
  8
Layer_1
 62
7
100
AcDbLine
 10
649.300809
 20
337.889998
 30
0.0
 11
653.120884
 21
337.889998
 31
0.0
  0
LINE
  5
265
100
AcDbEntity
  8
Layer_1
 62
7
100
AcDbLine
 10
653.120884
 20
337.889998
 30
0.0
 11
653.120884
 21
331.837437
 31
0.0
  0
LINE
  5
266
100
AcDbEntity
  8
Layer_1
 62
7
100
AcDbLine
 10
620.824021
 20
341.065111
 30
0.0
 11
612.439735
 21
340.519389
 31
0.0
  0
LINE
  5
267
100
AcDbEntity
  8
Layer_1
 62
7
100
AcDbLine
 10
612.439735
 20
340.519389
 30
0.0
 11
606.734472
 21
340.023276
 31
0.0
  0
SPLINE
  5
268
100
AcDbEntity
  8
Layer_1
 62
7
100
AcDbSpline
 70
8
 71
3
 72
8
 73
4
 74
0
 40
0
 40
0
 40
0
 40
0
 40
1
 40
1
 40
1
 40
1
 10
628.745322
 20
341.101083
 30
0.0
 10
626.119159
 20
341.196550
 30
0.0
 10
623.490259
 20
341.183943
 30
0.0
 10
620.865197
 20
341.063304
 30
0.0
  0
LINE
  5
269
100
AcDbEntity
  8
Layer_1
 62
7
100
AcDbLine
 10
628.712189
 20
341.065111
 30
0.0
 11
635.112030
 21
340.866666
 31
0.0
  0
SPLINE
  5
26a
100
AcDbEntity
  8
Layer_1
 62
7
100
AcDbSpline
 70
8
 71
3
 72
8
 73
4
 74
0
 40
0
 40
0
 40
0
 40
0
 40
1
 40
1
 40
1
 40
1
 10
643.411028
 20
340.450566
 30
0.0
 10
640.651205
 20
340.682355
 30
0.0
 10
637.885399
 20
340.836045
 30
0.0
 10
635.116940
 20
340.911443
 30
0.0
  0
LINE
  5
26b
100
AcDbEntity
  8
Layer_1
 62
7
100
AcDbLine
 10
643.397086
 20
340.420165
 30
0.0
 11
649.300809
 21
339.973664
 31
0.0
  0
LINE
  5
26c
100
AcDbEntity
  8
Layer_1
 62
7
100
AcDbLine
 10
606.734472
 20
321.369487
 30
0.0
 11
649.300809
 21
321.369487
 31
0.0
  0
LINE
  5
26d
100
AcDbEntity
  8
Layer_1
 62
7
100
AcDbLine
 10
606.734472
 20
311.348030
 30
0.0
 11
612.439735
 21
310.802325
 31
0.0
  0
LINE
  5
26e
100
AcDbEntity
  8
Layer_1
 62
7
100
AcDbLine
 10
612.439735
 20
310.802325
 30
0.0
 11
620.824021
 21
310.306207
 31
0.0
  0
SPLINE
  5
26f
100
AcDbEntity
  8
Layer_1
 62
7
100
AcDbSpline
 70
8
 71
3
 72
8
 73
4
 74
0
 40
0
 40
0
 40
0
 40
0
 40
1
 40
1
 40
1
 40
1
 10
620.865197
 20
310.308013
 30
0.0
 10
623.490259
 20
310.187363
 30
0.0
 10
626.119159
 20
310.174776
 30
0.0
 10
628.745322
 20
310.270223
 30
0.0
  0
LINE
  5
270
100
AcDbEntity
  8
Layer_1
 62
7
100
AcDbLine
 10
635.112030
 20
310.455022
 30
0.0
 11
628.712189
 21
310.256592
 31
0.0
  0
SPLINE
  5
271
100
AcDbEntity
  8
Layer_1
 62
7
100
AcDbSpline
 70
8
 71
3
 72
8
 73
4
 74
0
 40
0
 40
0
 40
0
 40
0
 40
1
 40
1
 40
1
 40
1
 10
635.116940
 20
310.509491
 30
0.0
 10
637.885399
 20
310.584873
 30
0.0
 10
640.651205
 20
310.738571
 30
0.0
 10
643.411028
 20
310.970360
 30
0.0
  0
LINE
  5
272
100
AcDbEntity
  8
Layer_1
 62
7
100
AcDbLine
 10
649.300809
 20
311.348030
 30
0.0
 11
643.397086
 21
310.901526
 31
0.0
  0
LINE
  5
273
100
AcDbEntity
  8
Layer_1
 62
7
100
AcDbLine
 10
549.334365
 20
330.001824
 30
0.0
 11
591.900730
 21
330.001824
 31
0.0
  0
LINE
  5
274
100
AcDbEntity
  8
Layer_1
 62
7
100
AcDbLine
 10
549.334365
 20
311.348030
 30
0.0
 11
549.334365
 21
321.369487
 31
0.0
  0
LINE
  5
275
100
AcDbEntity
  8
Layer_1
 62
7
100
AcDbLine
 10
549.334365
 20
330.001824
 30
0.0
 11
549.334365
 21
331.837437
 31
0.0
  0
LINE
  5
276
100
AcDbEntity
  8
Layer_1
 62
7
100
AcDbLine
 10
549.334365
 20
337.889998
 30
0.0
 11
549.334365
 21
340.023276
 31
0.0
  0
LINE
  5
277
100
AcDbEntity
  8
Layer_1
 62
7
100
AcDbLine
 10
549.334365
 20
331.837437
 30
0.0
 11
545.514318
 21
331.837437
 31
0.0
  0
LINE
  5
278
100
AcDbEntity
  8
Layer_1
 62
7
100
AcDbLine
 10
549.334365
 20
337.889998
 30
0.0
 11
545.514318
 21
337.889998
 31
0.0
  0
LINE
  5
279
100
AcDbEntity
  8
Layer_1
 62
7
100
AcDbLine
 10
545.514318
 20
337.889998
 30
0.0
 11
545.514318
 21
331.837437
 31
0.0
  0
LINE
  5
27a
100
AcDbEntity
  8
Layer_1
 62
7
100
AcDbLine
 10
591.900730
 20
311.348030
 30
0.0
 11
591.900730
 21
321.369487
 31
0.0
  0
LINE
  5
27b
100
AcDbEntity
  8
Layer_1
 62
7
100
AcDbLine
 10
591.900730
 20
330.001824
 30
0.0
 11
591.900730
 21
331.837437
 31
0.0
  0
LINE
  5
27c
100
AcDbEntity
  8
Layer_1
 62
7
100
AcDbLine
 10
591.900730
 20
337.889998
 30
0.0
 11
591.900730
 21
339.973664
 31
0.0
  0
LINE
  5
27d
100
AcDbEntity
  8
Layer_1
 62
7
100
AcDbLine
 10
591.900730
 20
331.837437
 30
0.0
 11
595.671163
 21
331.837437
 31
0.0
  0
LINE
  5
27e
100
AcDbEntity
  8
Layer_1
 62
7
100
AcDbLine
 10
591.900730
 20
337.889998
 30
0.0
 11
595.671163
 21
337.889998
 31
0.0
  0
LINE
  5
27f
100
AcDbEntity
  8
Layer_1
 62
7
100
AcDbLine
 10
595.671163
 20
337.889998
 30
0.0
 11
595.671163
 21
331.837437
 31
0.0
  0
LINE
  5
280
100
AcDbEntity
  8
Layer_1
 62
7
100
AcDbLine
 10
563.423943
 20
341.065111
 30
0.0
 11
555.039656
 21
340.519389
 31
0.0
  0
LINE
  5
281
100
AcDbEntity
  8
Layer_1
 62
7
100
AcDbLine
 10
555.039656
 20
340.519389
 30
0.0
 11
549.334365
 21
340.023276
 31
0.0
  0
SPLINE
  5
282
100
AcDbEntity
  8
Layer_1
 62
7
100
AcDbSpline
 70
8
 71
3
 72
8
 73
4
 74
0
 40
0
 40
0
 40
0
 40
0
 40
1
 40
1
 40
1
 40
1
 10
571.345243
 20
341.101083
 30
0.0
 10
568.719081
 20
341.196550
 30
0.0
 10
566.090181
 20
341.183943
 30
0.0
 10
563.465119
 20
341.063304
 30
0.0
  0
LINE
  5
283
100
AcDbEntity
  8
Layer_1
 62
7
100
AcDbLine
 10
571.312110
 20
341.065111
 30
0.0
 11
577.662336
 21
340.866666
 31
0.0
  0
SPLINE
  5
284
100
AcDbEntity
  8
Layer_1
 62
7
100
AcDbSpline
 70
8
 71
3
 72
8
 73
4
 74
0
 40
0
 40
0
 40
0
 40
0
 40
1
 40
1
 40
1
 40
1
 10
586.010950
 20
340.450566
 30
0.0
 10
583.251127
 20
340.682355
 30
0.0
 10
580.485292
 20
340.836045
 30
0.0
 10
577.716862
 20
340.911443
 30
0.0
  0
LINE
  5
285
100
AcDbEntity
  8
Layer_1
 62
7
100
AcDbLine
 10
585.997008
 20
340.420165
 30
0.0
 11
591.900730
 21
339.973664
 31
0.0
  0
LINE
  5
286
100
AcDbEntity
  8
Layer_1
 62
7
100
AcDbLine
 10
549.334365
 20
321.369487
 30
0.0
 11
591.900730
 21
321.369487
 31
0.0
  0
LINE
  5
287
100
AcDbEntity
  8
Layer_1
 62
7
100
AcDbLine
 10
549.334365
 20
311.348030
 30
0.0
 11
555.039656
 21
310.802325
 31
0.0
  0
LINE
  5
288
100
AcDbEntity
  8
Layer_1
 62
7
100
AcDbLine
 10
555.039656
 20
310.802325
 30
0.0
 11
563.423943
 21
310.306207
 31
0.0
  0
SPLINE
  5
289
100
AcDbEntity
  8
Layer_1
 62
7
100
AcDbSpline
 70
8
 71
3
 72
8
 73
4
 74
0
 40
0
 40
0
 40
0
 40
0
 40
1
 40
1
 40
1
 40
1
 10
563.465119
 20
310.308013
 30
0.0
 10
566.090181
 20
310.187363
 30
0.0
 10
568.719081
 20
310.174776
 30
0.0
 10
571.345243
 20
310.270223
 30
0.0
  0
LINE
  5
28a
100
AcDbEntity
  8
Layer_1
 62
7
100
AcDbLine
 10
577.662336
 20
310.455022
 30
0.0
 11
571.312110
 21
310.256592
 31
0.0
  0
SPLINE
  5
28b
100
AcDbEntity
  8
Layer_1
 62
7
100
AcDbSpline
 70
8
 71
3
 72
8
 73
4
 74
0
 40
0
 40
0
 40
0
 40
0
 40
1
 40
1
 40
1
 40
1
 10
577.716862
 20
310.509491
 30
0.0
 10
580.485292
 20
310.584873
 30
0.0
 10
583.251127
 20
310.738571
 30
0.0
 10
586.010950
 20
310.970360
 30
0.0
  0
LINE
  5
28c
100
AcDbEntity
  8
Layer_1
 62
7
100
AcDbLine
 10
591.900730
 20
311.348030
 30
0.0
 11
585.997008
 21
310.901526
 31
0.0
  0
ENDSEC
  0
SECTION
  2
OBJECTS
  0
DICTIONARY
  5
C
330
0
100
AcDbDictionary
  3
ACAD_GROUP
350
D
  3
ACAD_MLINESTYLE
350
17
  0
DICTIONARY
  5
D
330
C
100
AcDbDictionary
  0
DICTIONARY
  5
1A
330
C
100
AcDbDictionary
  0
DICTIONARY
  5
17
330
C
100
AcDbDictionary
  3
STANDARD
350
18
  0
DICTIONARY
  5
19
330
C
100
AcDbDictionary
  0
ENDSEC
  0
EOF
