  0
SECTION
  2
HEADER
  9
$ACADVER
  1
AC1014
  9
$HANDSEED
  5
FFFF
  9
$MEASUREMENT
 70
     1
  0
ENDSEC
  0
SECTION
  2
TABLES
  0
TABLE
  2
VPORT
  5
8
330
0
100
AcDbSymbolTable
 70
     4
  0
VPORT
  5
2E
330
8
100
AcDbSymbolTableRecord
100
AcDbViewportTableRecord
  2
*ACTIVE
 70
     0
 10
0.0
 20
0.0
 11
1.0
 21
1.0
 12
210.0
 22
148.5
 13
0.0
 23
0.0
 14
10.0
 24
10.0
 15
10.0
 25
10.0
 16
0.0
 26
0.0
 36
1.0
 17
0.0
 27
0.0
 37
0.0
 40
341.0
 41
1.24
 42
50.0
 43
0.0
 44
0.0
 50
0.0
 51
0.0
 71
     0
 72
   100
 73
     1
 74
     3
 75
     0
 76
     0
 77
     0
 78
     0
  0
ENDTAB
  0
TABLE
  2
LTYPE
  5
5
330
0
100
AcDbSymbolTable
 70
     1
  0
LTYPE
  5
14
330
5
100
AcDbSymbolTableRecord
100
AcDbLinetypeTableRecord
  2
BYBLOCK
 70
     0
  3

 72
    65
 73
     0
 40
0.0
  0
LTYPE
  5
15
330
5
100
AcDbSymbolTableRecord
100
AcDbLinetypeTableRecord
  2
BYLAYER
 70
     0
  3

 72
    65
 73
     0
 40
0.0
  0
LTYPE
  5
16
330
5
100
AcDbSymbolTableRecord
100
AcDbLinetypeTableRecord
  2
CONTINUOUS
 70
     0
  3
Solid line
 72
    65
 73
     0
 40
0.0
  0
ENDTAB
  0
TABLE
  2
LAYER
  5
2
100
AcDbSymbolTable
 70
2
  0
LAYER
  5
50
100
AcDbSymbolTableRecord
100
AcDbLayerTableRecord
  2
0
 70
0
  6
CONTINUOUS
  0
LAYER
  5
51
100
AcDbSymbolTableRecord
100
AcDbLayerTableRecord
  2
Layer_1
 70
0
  6
CONTINUOUS
  0
ENDTAB
  0
TABLE
  2
STYLE
  5
3
330
0
100
AcDbSymbolTable
 70
     1
  0
STYLE
  5
11
330
3
100
AcDbSymbolTableRecord
100
AcDbTextStyleTableRecord
  2
STANDARD
 70
     0
 40
0.0
 41
1.0
 50
0.0
 71
     0
 42
2.5
  3
txt
  4

  0
ENDTAB
  0
TABLE
  2
VIEW
  5
6
330
0
100
AcDbSymbolTable
 70
     0
  0
ENDTAB
  0
TABLE
  2
UCS
  5
7
330
0
100
AcDbSymbolTable
 70
     0
  0
ENDTAB
  0
TABLE
  2
APPID
  5
9
330
0
100
AcDbSymbolTable
 70
     2
  0
APPID
  5
12
330
9
100
AcDbSymbolTableRecord
100
AcDbRegAppTableRecord
  2
ACAD
 70
     0
  0
ENDTAB
  0
TABLE
  2
DIMSTYLE
  5
A
330
0
100
AcDbSymbolTable
 70
     1
  0
DIMSTYLE
105
27
330
A
100
AcDbSymbolTableRecord
100
AcDbDimStyleTableRecord
  2
ISO-25
 70
     0
  3

  4

  5

  6

  7

 40
1.0
 41
2.5
 42
0.625
 43
3.75
 44
1.25
 45
0.0
 46
0.0
 47
0.0
 48
0.0
140
2.5
141
2.5
142
0.0
143
0.03937007874016
144
1.0
145
0.0
146
1.0
147
0.625
 71
     0
 72
     0
 73
     0
 74
     0
 75
     0
 76
     0
 77
     1
 78
     8
170
     0
171
     3
172
     1
173
     0
174
     0
175
     0
176
     0
177
     0
178
     0
270
     2
271
     2
272
     2
273
     2
274
     3
340
11
275
     0
280
     0
281
     0
282
     0
283
     0
284
     8
285
     0
286
     0
287
     3
288
     0
  0
ENDTAB
  0
TABLE
  2
BLOCK_RECORD
  5
1
330
0
100
AcDbSymbolTable
 70
     1
  0
BLOCK_RECORD
  5
1F
330
1
100
AcDbSymbolTableRecord
100
AcDbBlockTableRecord
  2
*MODEL_SPACE
  0
BLOCK_RECORD
  5
1B
330
1
100
AcDbSymbolTableRecord
100
AcDbBlockTableRecord
  2
*PAPER_SPACE
  0
ENDTAB
  0
ENDSEC
  0
SECTION
  2
BLOCKS
  0
BLOCK
  5
20
330
1F
100
AcDbEntity
  8
0
100
AcDbBlockBegin
  2
*MODEL_SPACE
 70
     0
 10
0.0
 20
0.0
 30
0.0
  3
*MODEL_SPACE
  1

  0
ENDBLK
  5
21
330
1F
100
AcDbEntity
  8
0
100
AcDbBlockEnd
  0
BLOCK
  5
1C
330
1B
100
AcDbEntity
 67
     1
  8
0
100
AcDbBlockBegin
  2
*PAPER_SPACE
  1

  0
ENDBLK
  5
1D
330
1B
100
AcDbEntity
 67
     1
  8
0
100
AcDbBlockEnd
  0
ENDSEC
  0
SECTION
  2
ENTITIES
  0
LINE
  5
100
100
AcDbEntity
  8
Layer_1
 62
7
100
AcDbLine
 10
464.637635
 20
167.192250
 30
0.0
 11
446.331115
 21
174.088200
 31
0.0
  0
SPLINE
  5
101
100
AcDbEntity
  8
Layer_1
 62
7
100
AcDbSpline
 70
8
 71
3
 72
8
 73
4
 74
0
 40
0
 40
0
 40
0
 40
0
 40
1
 40
1
 40
1
 40
1
 10
439.088555
 20
184.603460
 30
0.0
 10
439.037355
 20
179.917220
 30
0.0
 10
441.925165
 20
175.700230
 30
0.0
 10
446.313005
 20
174.053900
 30
0.0
  0
LINE
  5
102
100
AcDbEntity
  8
Layer_1
 62
7
100
AcDbLine
 10
366.258735
 20
3.078610
 30
0.0
 11
210.578985
 21
61.222860
 31
0.0
  0
LINE
  5
103
100
AcDbEntity
  8
Layer_1
 62
7
100
AcDbLine
 10
456.253345
 20
122.790280
 30
0.0
 11
464.637635
 21
167.192250
 31
0.0
  0
LINE
  5
104
100
AcDbEntity
  8
Layer_1
 62
7
100
AcDbLine
 10
456.253345
 20
122.790280
 30
0.0
 11
441.121945
 21
125.816560
 31
0.0
  0
LINE
  5
105
100
AcDbEntity
  8
Layer_1
 62
7
100
AcDbLine
 10
441.121945
 20
125.816560
 30
0.0
 11
425.940945
 21
128.842840
 31
0.0
  0
LINE
  5
106
100
AcDbEntity
  8
Layer_1
 62
7
100
AcDbLine
 10
425.940945
 20
128.842840
 30
0.0
 11
410.859155
 21
132.067570
 31
0.0
  0
LINE
  5
107
100
AcDbEntity
  8
Layer_1
 62
7
100
AcDbLine
 10
410.859155
 20
132.067570
 30
0.0
 11
403.318265
 21
133.754340
 31
0.0
  0
LINE
  5
108
100
AcDbEntity
  8
Layer_1
 62
7
100
AcDbLine
 10
403.318265
 20
133.754340
 30
0.0
 11
399.547815
 21
134.647340
 31
0.0
  0
LINE
  5
109
100
AcDbEntity
  8
Layer_1
 62
7
100
AcDbLine
 10
399.547815
 20
134.647340
 30
0.0
 11
395.826975
 21
135.639570
 31
0.0
  0
LINE
  5
10a
100
AcDbEntity
  8
Layer_1
 62
7
100
AcDbLine
 10
395.826975
 20
135.639570
 30
0.0
 11
393.147975
 21
118.821390
 31
0.0
  0
LINE
  5
10b
100
AcDbEntity
  8
Layer_1
 62
7
100
AcDbLine
 10
393.147975
 20
118.821390
 30
0.0
 11
390.617805
 21
102.003210
 31
0.0
  0
LINE
  5
10c
100
AcDbEntity
  8
Layer_1
 62
7
100
AcDbLine
 10
390.617805
 20
102.003210
 30
0.0
 11
389.278305
 21
93.618930
 31
0.0
  0
LINE
  5
10d
100
AcDbEntity
  8
Layer_1
 62
7
100
AcDbLine
 10
389.278305
 20
93.618930
 30
0.0
 11
387.839585
 21
85.234650
 31
0.0
  0
LINE
  5
10e
100
AcDbEntity
  8
Layer_1
 62
7
100
AcDbLine
 10
387.839585
 20
85.234650
 30
0.0
 11
386.301645
 21
76.899980
 31
0.0
  0
LINE
  5
10f
100
AcDbEntity
  8
Layer_1
 62
7
100
AcDbLine
 10
386.301645
 20
76.899980
 30
0.0
 11
384.664475
 21
68.565310
 31
0.0
  0
LINE
  5
110
100
AcDbEntity
  8
Layer_1
 62
7
100
AcDbLine
 10
384.664475
 20
68.565310
 30
0.0
 11
382.878475
 21
60.230640
 31
0.0
  0
LINE
  5
111
100
AcDbEntity
  8
Layer_1
 62
7
100
AcDbLine
 10
382.878475
 20
60.230640
 30
0.0
 11
380.943635
 21
51.945580
 31
0.0
  0
LINE
  5
112
100
AcDbEntity
  8
Layer_1
 62
7
100
AcDbLine
 10
380.943635
 20
51.945580
 30
0.0
 11
378.859965
 21
43.710130
 31
0.0
  0
LINE
  5
113
100
AcDbEntity
  8
Layer_1
 62
7
100
AcDbLine
 10
378.859965
 20
43.710130
 30
0.0
 11
376.577855
 21
35.524290
 31
0.0
  0
LINE
  5
114
100
AcDbEntity
  8
Layer_1
 62
7
100
AcDbLine
 10
376.577855
 20
35.524290
 30
0.0
 11
374.196525
 21
27.338450
 31
0.0
  0
LINE
  5
115
100
AcDbEntity
  8
Layer_1
 62
7
100
AcDbLine
 10
374.196525
 20
27.338450
 30
0.0
 11
371.715965
 21
19.202230
 31
0.0
  0
LINE
  5
116
100
AcDbEntity
  8
Layer_1
 62
7
100
AcDbLine
 10
371.715965
 20
19.202230
 30
0.0
 11
369.086575
 21
11.115610
 31
0.0
  0
LINE
  5
117
100
AcDbEntity
  8
Layer_1
 62
7
100
AcDbLine
 10
369.086575
 20
11.115610
 30
0.0
 11
366.258735
 21
3.078610
 31
0.0
  0
LINE
  5
118
100
AcDbEntity
  8
Layer_1
 62
7
100
AcDbLine
 10
210.578985
 20
61.222860
 30
0.0
 11
213.208375
 21
68.862970
 31
0.0
  0
LINE
  5
119
100
AcDbEntity
  8
Layer_1
 62
7
100
AcDbLine
 10
213.208375
 20
68.862970
 30
0.0
 11
214.498265
 21
72.732640
 31
0.0
  0
LINE
  5
11a
100
AcDbEntity
  8
Layer_1
 62
7
100
AcDbLine
 10
214.498265
 20
72.732640
 30
0.0
 11
215.688925
 21
76.602310
 31
0.0
  0
LINE
  5
11b
100
AcDbEntity
  8
Layer_1
 62
7
100
AcDbLine
 10
215.688925
 20
76.602310
 30
0.0
 11
216.829985
 21
80.471980
 31
0.0
  0
LINE
  5
11c
100
AcDbEntity
  8
Layer_1
 62
7
100
AcDbLine
 10
216.829985
 20
80.471980
 30
0.0
 11
217.921435
 21
84.391260
 31
0.0
  0
LINE
  5
11d
100
AcDbEntity
  8
Layer_1
 62
7
100
AcDbLine
 10
217.921435
 20
84.391260
 30
0.0
 11
218.963265
 21
88.310540
 31
0.0
  0
LINE
  5
11e
100
AcDbEntity
  8
Layer_1
 62
7
100
AcDbLine
 10
218.963265
 20
88.310540
 30
0.0
 11
219.905875
 21
92.229820
 31
0.0
  0
LINE
  5
11f
100
AcDbEntity
  8
Layer_1
 62
7
100
AcDbLine
 10
219.905875
 20
92.229820
 30
0.0
 11
221.691875
 21
100.117990
 31
0.0
  0
LINE
  5
120
100
AcDbEntity
  8
Layer_1
 62
7
100
AcDbLine
 10
221.691875
 20
100.117990
 30
0.0
 11
223.329045
 21
108.105390
 31
0.0
  0
LINE
  5
121
100
AcDbEntity
  8
Layer_1
 62
7
100
AcDbLine
 10
223.329045
 20
108.105390
 30
0.0
 11
224.817375
 21
116.043170
 31
0.0
  0
LINE
  5
122
100
AcDbEntity
  8
Layer_1
 62
7
100
AcDbLine
 10
224.817375
 20
116.043170
 30
0.0
 11
226.256105
 21
124.030560
 31
0.0
  0
LINE
  5
123
100
AcDbEntity
  8
Layer_1
 62
7
100
AcDbLine
 10
226.256105
 20
124.030560
 30
0.0
 11
228.935105
 21
140.005350
 31
0.0
  0
LINE
  5
124
100
AcDbEntity
  8
Layer_1
 62
7
100
AcDbLine
 10
228.935105
 20
140.005350
 30
0.0
 11
231.514885
 21
156.029750
 31
0.0
  0
LINE
  5
125
100
AcDbEntity
  8
Layer_1
 62
7
100
AcDbLine
 10
231.514885
 20
156.029750
 30
0.0
 11
232.755165
 21
164.017140
 31
0.0
  0
LINE
  5
126
100
AcDbEntity
  8
Layer_1
 62
7
100
AcDbLine
 10
232.755165
 20
164.017140
 30
0.0
 11
233.945825
 21
172.054140
 31
0.0
  0
LINE
  5
127
100
AcDbEntity
  8
Layer_1
 62
7
100
AcDbLine
 10
233.945825
 20
172.054140
 30
0.0
 11
234.491555
 21
176.072650
 31
0.0
  0
LINE
  5
128
100
AcDbEntity
  8
Layer_1
 62
7
100
AcDbLine
 10
234.491555
 20
176.072650
 30
0.0
 11
234.938055
 21
180.091150
 31
0.0
  0
LINE
  5
129
100
AcDbEntity
  8
Layer_1
 62
7
100
AcDbLine
 10
234.938055
 20
180.091150
 30
0.0
 11
235.334945
 21
184.109650
 31
0.0
  0
LINE
  5
12a
100
AcDbEntity
  8
Layer_1
 62
7
100
AcDbLine
 10
235.334945
 20
184.109650
 30
0.0
 11
235.483775
 21
186.143710
 31
0.0
  0
LINE
  5
12b
100
AcDbEntity
  8
Layer_1
 62
7
100
AcDbLine
 10
235.483775
 20
186.143710
 30
0.0
 11
235.533375
 21
188.177770
 31
0.0
  0
LINE
  5
12c
100
AcDbEntity
  8
Layer_1
 62
7
100
AcDbLine
 10
235.533375
 20
188.177770
 30
0.0
 11
235.533375
 21
190.906380
 31
0.0
  0
LINE
  5
12d
100
AcDbEntity
  8
Layer_1
 62
7
100
AcDbLine
 10
439.137505
 20
184.605760
 30
0.0
 11
439.137505
 21
194.478380
 31
0.0
  0
LINE
  5
12e
100
AcDbEntity
  8
Layer_1
 62
7
100
AcDbLine
 10
464.637635
 20
211.842280
 30
0.0
 11
446.331115
 21
204.995940
 31
0.0
  0
SPLINE
  5
12f
100
AcDbEntity
  8
Layer_1
 62
7
100
AcDbSpline
 70
8
 71
3
 72
8
 73
4
 74
0
 40
0
 40
0
 40
0
 40
0
 40
1
 40
1
 40
1
 40
1
 10
446.313005
 20
205.030240
 30
0.0
 10
441.925165
 20
203.383920
 30
0.0
 10
439.037335
 20
199.166930
 30
0.0
 10
439.088555
 20
194.480680
 30
0.0
  0
LINE
  5
130
100
AcDbEntity
  8
Layer_1
 62
7
100
AcDbLine
 10
366.258735
 20
375.955930
 30
0.0
 11
210.578985
 21
317.861290
 31
0.0
  0
LINE
  5
131
100
AcDbEntity
  8
Layer_1
 62
7
100
AcDbLine
 10
366.258735
 20
375.955930
 30
0.0
 11
369.086575
 21
367.918930
 31
0.0
  0
LINE
  5
132
100
AcDbEntity
  8
Layer_1
 62
7
100
AcDbLine
 10
369.086575
 20
367.918930
 30
0.0
 11
371.715965
 21
359.832310
 31
0.0
  0
LINE
  5
133
100
AcDbEntity
  8
Layer_1
 62
7
100
AcDbLine
 10
371.715965
 20
359.832310
 30
0.0
 11
374.196525
 21
351.696090
 31
0.0
  0
LINE
  5
134
100
AcDbEntity
  8
Layer_1
 62
7
100
AcDbLine
 10
374.196525
 20
351.696090
 30
0.0
 11
376.577855
 21
343.559860
 31
0.0
  0
LINE
  5
135
100
AcDbEntity
  8
Layer_1
 62
7
100
AcDbLine
 10
376.577855
 20
343.559860
 30
0.0
 11
378.859965
 21
335.374020
 31
0.0
  0
LINE
  5
136
100
AcDbEntity
  8
Layer_1
 62
7
100
AcDbLine
 10
378.859965
 20
335.374020
 30
0.0
 11
380.943635
 21
327.138570
 31
0.0
  0
LINE
  5
137
100
AcDbEntity
  8
Layer_1
 62
7
100
AcDbLine
 10
380.943635
 20
327.138570
 30
0.0
 11
382.878475
 21
318.853510
 31
0.0
  0
LINE
  5
138
100
AcDbEntity
  8
Layer_1
 62
7
100
AcDbLine
 10
382.878475
 20
318.853510
 30
0.0
 11
384.664475
 21
310.518840
 31
0.0
  0
LINE
  5
139
100
AcDbEntity
  8
Layer_1
 62
7
100
AcDbLine
 10
384.664475
 20
310.518840
 30
0.0
 11
386.301645
 21
302.184170
 31
0.0
  0
LINE
  5
13a
100
AcDbEntity
  8
Layer_1
 62
7
100
AcDbLine
 10
386.301645
 20
302.184170
 30
0.0
 11
387.839585
 21
293.799890
 31
0.0
  0
LINE
  5
13b
100
AcDbEntity
  8
Layer_1
 62
7
100
AcDbLine
 10
387.839585
 20
293.799890
 30
0.0
 11
389.278305
 21
285.415600
 31
0.0
  0
LINE
  5
13c
100
AcDbEntity
  8
Layer_1
 62
7
100
AcDbLine
 10
389.278305
 20
285.415600
 30
0.0
 11
390.617805
 21
277.031320
 31
0.0
  0
LINE
  5
13d
100
AcDbEntity
  8
Layer_1
 62
7
100
AcDbLine
 10
390.617805
 20
277.031320
 30
0.0
 11
393.147975
 21
260.213140
 31
0.0
  0
LINE
  5
13e
100
AcDbEntity
  8
Layer_1
 62
7
100
AcDbLine
 10
393.147975
 20
260.213140
 30
0.0
 11
395.826975
 21
243.444570
 31
0.0
  0
LINE
  5
13f
100
AcDbEntity
  8
Layer_1
 62
7
100
AcDbLine
 10
395.826975
 20
243.444570
 30
0.0
 11
399.547815
 21
244.436800
 31
0.0
  0
LINE
  5
140
100
AcDbEntity
  8
Layer_1
 62
7
100
AcDbLine
 10
399.547815
 20
244.436800
 30
0.0
 11
403.318265
 21
245.329800
 31
0.0
  0
LINE
  5
141
100
AcDbEntity
  8
Layer_1
 62
7
100
AcDbLine
 10
403.318265
 20
245.329800
 30
0.0
 11
410.859155
 21
247.016580
 31
0.0
  0
LINE
  5
142
100
AcDbEntity
  8
Layer_1
 62
7
100
AcDbLine
 10
410.859155
 20
247.016580
 30
0.0
 11
425.940945
 21
250.191690
 31
0.0
  0
LINE
  5
143
100
AcDbEntity
  8
Layer_1
 62
7
100
AcDbLine
 10
425.940945
 20
250.191690
 30
0.0
 11
441.121945
 21
253.267580
 31
0.0
  0
LINE
  5
144
100
AcDbEntity
  8
Layer_1
 62
7
100
AcDbLine
 10
441.121945
 20
253.267580
 30
0.0
 11
456.253345
 21
256.244250
 31
0.0
  0
LINE
  5
145
100
AcDbEntity
  8
Layer_1
 62
7
100
AcDbLine
 10
456.253345
 20
256.244250
 30
0.0
 11
464.637635
 21
211.842280
 31
0.0
  0
LINE
  5
146
100
AcDbEntity
  8
Layer_1
 62
7
100
AcDbLine
 10
210.578985
 20
317.861290
 30
0.0
 11
213.208375
 21
310.221170
 31
0.0
  0
LINE
  5
147
100
AcDbEntity
  8
Layer_1
 62
7
100
AcDbLine
 10
213.208375
 20
310.221170
 30
0.0
 11
214.498265
 21
306.351500
 31
0.0
  0
LINE
  5
148
100
AcDbEntity
  8
Layer_1
 62
7
100
AcDbLine
 10
214.498265
 20
306.351500
 30
0.0
 11
215.688925
 21
302.481840
 31
0.0
  0
LINE
  5
149
100
AcDbEntity
  8
Layer_1
 62
7
100
AcDbLine
 10
215.688925
 20
302.481840
 30
0.0
 11
216.829985
 21
298.612170
 31
0.0
  0
LINE
  5
14a
100
AcDbEntity
  8
Layer_1
 62
7
100
AcDbLine
 10
216.829985
 20
298.612170
 30
0.0
 11
217.921435
 21
294.692890
 31
0.0
  0
LINE
  5
14b
100
AcDbEntity
  8
Layer_1
 62
7
100
AcDbLine
 10
217.921435
 20
294.692890
 30
0.0
 11
218.963265
 21
290.773610
 31
0.0
  0
LINE
  5
14c
100
AcDbEntity
  8
Layer_1
 62
7
100
AcDbLine
 10
218.963265
 20
290.773610
 30
0.0
 11
219.905875
 21
286.854330
 31
0.0
  0
LINE
  5
14d
100
AcDbEntity
  8
Layer_1
 62
7
100
AcDbLine
 10
219.905875
 20
286.854330
 30
0.0
 11
221.691875
 21
278.916540
 31
0.0
  0
LINE
  5
14e
100
AcDbEntity
  8
Layer_1
 62
7
100
AcDbLine
 10
221.691875
 20
278.916540
 30
0.0
 11
223.329045
 21
270.978760
 31
0.0
  0
LINE
  5
14f
100
AcDbEntity
  8
Layer_1
 62
7
100
AcDbLine
 10
223.329045
 20
270.978760
 30
0.0
 11
224.817375
 21
263.040980
 31
0.0
  0
LINE
  5
150
100
AcDbEntity
  8
Layer_1
 62
7
100
AcDbLine
 10
224.817375
 20
263.040980
 30
0.0
 11
226.256105
 21
255.053580
 31
0.0
  0
LINE
  5
151
100
AcDbEntity
  8
Layer_1
 62
7
100
AcDbLine
 10
226.256105
 20
255.053580
 30
0.0
 11
228.935105
 21
239.029180
 31
0.0
  0
LINE
  5
152
100
AcDbEntity
  8
Layer_1
 62
7
100
AcDbLine
 10
228.935105
 20
239.029180
 30
0.0
 11
231.514885
 21
223.054400
 31
0.0
  0
LINE
  5
153
100
AcDbEntity
  8
Layer_1
 62
7
100
AcDbLine
 10
231.514885
 20
223.054400
 30
0.0
 11
232.755165
 21
215.017390
 31
0.0
  0
LINE
  5
154
100
AcDbEntity
  8
Layer_1
 62
7
100
AcDbLine
 10
232.755165
 20
215.017390
 30
0.0
 11
233.945825
 21
207.030000
 31
0.0
  0
LINE
  5
155
100
AcDbEntity
  8
Layer_1
 62
7
100
AcDbLine
 10
233.945825
 20
207.030000
 30
0.0
 11
234.491555
 21
203.011500
 31
0.0
  0
LINE
  5
156
100
AcDbEntity
  8
Layer_1
 62
7
100
AcDbLine
 10
234.491555
 20
203.011500
 30
0.0
 11
234.938055
 21
198.992990
 31
0.0
  0
LINE
  5
157
100
AcDbEntity
  8
Layer_1
 62
7
100
AcDbLine
 10
234.938055
 20
198.992990
 30
0.0
 11
235.334945
 21
194.924880
 31
0.0
  0
LINE
  5
158
100
AcDbEntity
  8
Layer_1
 62
7
100
AcDbLine
 10
235.334945
 20
194.924880
 30
0.0
 11
235.483775
 21
192.940430
 31
0.0
  0
LINE
  5
159
100
AcDbEntity
  8
Layer_1
 62
7
100
AcDbLine
 10
235.483775
 20
192.940430
 30
0.0
 11
235.533375
 21
190.906380
 31
0.0
  0
LINE
  5
15a
100
AcDbEntity
  8
Layer_1
 62
7
100
AcDbLine
 10
207.732210
 20
209.882450
 30
0.0
 11
209.170940
 21
210.031280
 31
0.0
  0
LINE
  5
15b
100
AcDbEntity
  8
Layer_1
 62
7
100
AcDbLine
 10
187.093980
 20
207.401890
 30
0.0
 11
188.731150
 21
207.600340
 31
0.0
  0
LINE
  5
15c
100
AcDbEntity
  8
Layer_1
 62
7
100
AcDbLine
 10
197.561930
 20
129.562020
 30
0.0
 11
200.985100
 21
128.917070
 31
0.0
  0
LINE
  5
15d
100
AcDbEntity
  8
Layer_1
 62
7
100
AcDbLine
 10
143.188120
 20
139.484240
 30
0.0
 11
146.611290
 21
138.839300
 31
0.0
  0
LINE
  5
15e
100
AcDbEntity
  8
Layer_1
 62
7
100
AcDbLine
 10
119.722050
 20
152.135080
 30
0.0
 11
119.920500
 21
153.325750
 31
0.0
  0
LINE
  5
15f
100
AcDbEntity
  8
Layer_1
 62
7
100
AcDbLine
 10
46.297560
 20
169.995090
 30
0.0
 11
46.049510
 21
168.556370
 31
0.0
  0
LINE
  5
160
100
AcDbEntity
  8
Layer_1
 62
7
100
AcDbLine
 10
121.557660
 20
162.255760
 30
0.0
 11
121.260000
 21
160.717810
 31
0.0
  0
LINE
  5
161
100
AcDbEntity
  8
Layer_1
 62
7
100
AcDbLine
 10
47.140950
 20
165.381260
 30
0.0
 11
45.503790
 21
165.678930
 31
0.0
  0
LINE
  5
162
100
AcDbEntity
  8
Layer_1
 62
7
100
AcDbLine
 10
45.503790
 20
165.678930
 30
0.0
 11
45.751840
 21
166.919200
 31
0.0
  0
LINE
  5
163
100
AcDbEntity
  8
Layer_1
 62
7
100
AcDbLine
 10
34.440500
 20
172.128370
 30
0.0
 11
33.051390
 21
172.326820
 31
0.0
  0
LINE
  5
164
100
AcDbEntity
  8
Layer_1
 62
7
100
AcDbLine
 10
34.539720
 20
176.494150
 30
0.0
 11
33.150610
 21
176.692600
 31
0.0
  0
LINE
  5
165
100
AcDbEntity
  8
Layer_1
 62
7
100
AcDbLine
 10
6.310980
 20
148.612690
 30
0.0
 11
200.092100
 21
58.965360
 31
0.0
  0
LINE
  5
166
100
AcDbEntity
  8
Layer_1
 62
7
100
AcDbLine
 10
119.920500
 20
162.553420
 30
0.0
 11
121.557660
 21
162.255760
 31
0.0
  0
LINE
  5
167
100
AcDbEntity
  8
Layer_1
 62
7
100
AcDbLine
 10
44.213900
 20
170.391980
 30
0.0
 11
46.297560
 21
169.995090
 31
0.0
  0
LINE
  5
168
100
AcDbEntity
  8
Layer_1
 62
7
100
AcDbLine
 10
117.936050
 20
152.482360
 30
0.0
 11
119.722050
 21
152.135080
 31
0.0
  0
LINE
  5
169
100
AcDbEntity
  8
Layer_1
 62
7
100
AcDbLine
 10
200.092100
 20
58.965360
 30
0.0
 11
201.729270
 21
62.686200
 31
0.0
  0
LINE
  5
16a
100
AcDbEntity
  8
Layer_1
 62
7
100
AcDbLine
 10
201.729270
 20
62.686200
 30
0.0
 11
203.316820
 21
66.506260
 31
0.0
  0
LINE
  5
16b
100
AcDbEntity
  8
Layer_1
 62
7
100
AcDbLine
 10
203.316820
 20
66.506260
 30
0.0
 11
204.805160
 21
70.276700
 31
0.0
  0
LINE
  5
16c
100
AcDbEntity
  8
Layer_1
 62
7
100
AcDbLine
 10
204.805160
 20
70.276700
 30
0.0
 11
206.243880
 21
74.146370
 31
0.0
  0
LINE
  5
16d
100
AcDbEntity
  8
Layer_1
 62
7
100
AcDbLine
 10
206.243880
 20
74.146370
 30
0.0
 11
207.583380
 21
78.016040
 31
0.0
  0
LINE
  5
16e
100
AcDbEntity
  8
Layer_1
 62
7
100
AcDbLine
 10
207.583380
 20
78.016040
 30
0.0
 11
208.823660
 21
81.935320
 31
0.0
  0
LINE
  5
16f
100
AcDbEntity
  8
Layer_1
 62
7
100
AcDbLine
 10
208.823660
 20
81.935320
 30
0.0
 11
209.964710
 21
85.854600
 31
0.0
  0
LINE
  5
170
100
AcDbEntity
  8
Layer_1
 62
7
100
AcDbLine
 10
209.964710
 20
85.854600
 30
0.0
 11
211.006550
 21
89.823490
 31
0.0
  0
LINE
  5
171
100
AcDbEntity
  8
Layer_1
 62
7
100
AcDbLine
 10
211.006550
 20
89.823490
 30
0.0
 11
211.998770
 21
93.792380
 31
0.0
  0
LINE
  5
172
100
AcDbEntity
  8
Layer_1
 62
7
100
AcDbLine
 10
211.998770
 20
93.792380
 30
0.0
 11
212.941380
 21
97.810890
 31
0.0
  0
LINE
  5
173
100
AcDbEntity
  8
Layer_1
 62
7
100
AcDbLine
 10
212.941380
 20
97.810890
 30
0.0
 11
214.727380
 21
105.798280
 31
0.0
  0
LINE
  5
174
100
AcDbEntity
  8
Layer_1
 62
7
100
AcDbLine
 10
214.727380
 20
105.798280
 30
0.0
 11
216.314940
 21
113.884900
 31
0.0
  0
LINE
  5
175
100
AcDbEntity
  8
Layer_1
 62
7
100
AcDbLine
 10
216.314940
 20
113.884900
 30
0.0
 11
217.902500
 21
121.921900
 31
0.0
  0
LINE
  5
176
100
AcDbEntity
  8
Layer_1
 62
7
100
AcDbLine
 10
217.902500
 20
121.921900
 30
0.0
 11
220.879170
 21
138.045520
 31
0.0
  0
LINE
  5
177
100
AcDbEntity
  8
Layer_1
 62
7
100
AcDbLine
 10
220.879170
 20
138.045520
 30
0.0
 11
223.707000
 21
154.218750
 31
0.0
  0
LINE
  5
178
100
AcDbEntity
  8
Layer_1
 62
7
100
AcDbLine
 10
223.707000
 20
154.218750
 30
0.0
 11
225.046500
 21
162.305370
 31
0.0
  0
LINE
  5
179
100
AcDbEntity
  8
Layer_1
 62
7
100
AcDbLine
 10
225.046500
 20
162.305370
 30
0.0
 11
226.336390
 21
170.391980
 31
0.0
  0
LINE
  5
17a
100
AcDbEntity
  8
Layer_1
 62
7
100
AcDbLine
 10
226.336390
 20
170.391980
 30
0.0
 11
226.882110
 21
174.460100
 31
0.0
  0
LINE
  5
17b
100
AcDbEntity
  8
Layer_1
 62
7
100
AcDbLine
 10
226.882110
 20
174.460100
 30
0.0
 11
227.427840
 21
178.528210
 31
0.0
  0
LINE
  5
17c
100
AcDbEntity
  8
Layer_1
 62
7
100
AcDbLine
 10
227.427840
 20
178.528210
 30
0.0
 11
227.775110
 21
182.596320
 31
0.0
  0
LINE
  5
17d
100
AcDbEntity
  8
Layer_1
 62
7
100
AcDbLine
 10
227.775110
 20
182.596320
 30
0.0
 11
227.874310
 21
184.630380
 31
0.0
  0
LINE
  5
17e
100
AcDbEntity
  8
Layer_1
 62
7
100
AcDbLine
 10
227.874310
 20
184.630380
 30
0.0
 11
227.923910
 21
186.714050
 31
0.0
  0
LINE
  5
17f
100
AcDbEntity
  8
Layer_1
 62
7
100
AcDbLine
 10
227.923910
 20
186.714050
 30
0.0
 11
226.782850
 21
186.714050
 31
0.0
  0
LINE
  5
180
100
AcDbEntity
  8
Layer_1
 62
7
100
AcDbLine
 10
32.158390
 20
204.871730
 30
0.0
 11
32.158390
 21
168.556370
 31
0.0
  0
LINE
  5
181
100
AcDbEntity
  8
Layer_1
 62
7
100
AcDbLine
 10
55.922120
 20
186.714050
 30
0.0
 11
55.029120
 21
186.714050
 31
0.0
  0
SPLINE
  5
182
100
AcDbEntity
  8
Layer_1
 62
7
100
AcDbSpline
 70
8
 71
3
 72
8
 73
4
 74
0
 40
0
 40
0
 40
0
 40
0
 40
1
 40
1
 40
1
 40
1
 10
32.144730
 20
168.605930
 30
0.0
 10
19.999440
 20
168.588430
 30
0.0
 10
9.388360
 20
160.395540
 30
0.0
 10
6.298580
 20
148.649900
 30
0.0
  0
LINE
  5
183
100
AcDbEntity
  8
Layer_1
 62
3
100
AcDbLine
 10
138.177400
 20
187.954330
 30
0.0
 11
138.871950
 21
189.988380
 31
0.0
  0
LINE
  5
184
100
AcDbEntity
  8
Layer_1
 62
3
100
AcDbLine
 10
138.871950
 20
189.988380
 30
0.0
 11
139.516900
 21
190.682940
 31
0.0
  0
LINE
  5
185
100
AcDbEntity
  8
Layer_1
 62
3
100
AcDbLine
 10
139.516900
 20
190.682940
 30
0.0
 11
140.906010
 21
191.377500
 31
0.0
  0
LINE
  5
186
100
AcDbEntity
  8
Layer_1
 62
3
100
AcDbLine
 10
140.906010
 20
191.377500
 30
0.0
 11
142.940060
 21
191.377500
 31
0.0
  0
LINE
  5
187
100
AcDbEntity
  8
Layer_1
 62
3
100
AcDbLine
 10
142.940060
 20
191.377500
 30
0.0
 11
144.279570
 21
190.682940
 31
0.0
  0
LINE
  5
188
100
AcDbEntity
  8
Layer_1
 62
3
100
AcDbLine
 10
144.279570
 20
190.682940
 30
0.0
 11
144.974120
 21
189.988380
 31
0.0
  0
LINE
  5
189
100
AcDbEntity
  8
Layer_1
 62
3
100
AcDbLine
 10
144.974120
 20
189.988380
 30
0.0
 11
145.668680
 21
187.954330
 31
0.0
  0
LINE
  5
18a
100
AcDbEntity
  8
Layer_1
 62
3
100
AcDbLine
 10
145.668680
 20
187.954330
 30
0.0
 11
145.668680
 21
181.852160
 31
0.0
  0
LINE
  5
18b
100
AcDbEntity
  8
Layer_1
 62
3
100
AcDbLine
 10
145.668680
 20
181.852160
 30
0.0
 11
131.380670
 21
181.852160
 31
0.0
  0
LINE
  5
18c
100
AcDbEntity
  8
Layer_1
 62
3
100
AcDbLine
 10
131.380670
 20
181.852160
 30
0.0
 11
131.380670
 21
187.954330
 31
0.0
  0
LINE
  5
18d
100
AcDbEntity
  8
Layer_1
 62
3
100
AcDbLine
 10
131.380670
 20
187.954330
 30
0.0
 11
132.025610
 21
189.988380
 31
0.0
  0
LINE
  5
18e
100
AcDbEntity
  8
Layer_1
 62
3
100
AcDbLine
 10
132.025610
 20
189.988380
 30
0.0
 11
132.720170
 21
190.682940
 31
0.0
  0
LINE
  5
18f
100
AcDbEntity
  8
Layer_1
 62
3
100
AcDbLine
 10
132.720170
 20
190.682940
 30
0.0
 11
134.109280
 21
191.377500
 31
0.0
  0
LINE
  5
190
100
AcDbEntity
  8
Layer_1
 62
3
100
AcDbLine
 10
134.109280
 20
191.377500
 30
0.0
 11
135.448780
 21
191.377500
 31
0.0
  0
LINE
  5
191
100
AcDbEntity
  8
Layer_1
 62
3
100
AcDbLine
 10
135.448780
 20
191.377500
 30
0.0
 11
136.788280
 21
190.682940
 31
0.0
  0
LINE
  5
192
100
AcDbEntity
  8
Layer_1
 62
3
100
AcDbLine
 10
136.788280
 20
190.682940
 30
0.0
 11
137.482840
 21
189.988380
 31
0.0
  0
LINE
  5
193
100
AcDbEntity
  8
Layer_1
 62
3
100
AcDbLine
 10
137.482840
 20
189.988380
 30
0.0
 11
138.177400
 21
187.954330
 31
0.0
  0
LINE
  5
194
100
AcDbEntity
  8
Layer_1
 62
3
100
AcDbLine
 10
138.177400
 20
187.954330
 30
0.0
 11
138.177400
 21
181.852160
 31
0.0
  0
LINE
  5
195
100
AcDbEntity
  8
Layer_1
 62
7
100
AcDbLine
 10
179.553090
 20
186.714050
 30
0.0
 11
178.660090
 21
186.714050
 31
0.0
  0
LINE
  5
196
100
AcDbEntity
  8
Layer_1
 62
7
100
AcDbLine
 10
32.158390
 20
186.714050
 30
0.0
 11
33.299450
 21
186.714050
 31
0.0
  0
LINE
  5
197
100
AcDbEntity
  8
Layer_1
 62
7
100
AcDbLine
 10
119.722050
 20
221.243360
 30
0.0
 11
119.920500
 21
220.052760
 31
0.0
  0
LINE
  5
198
100
AcDbEntity
  8
Layer_1
 62
7
100
AcDbLine
 10
46.297560
 20
203.383390
 30
0.0
 11
46.049510
 21
204.871730
 31
0.0
  0
LINE
  5
199
100
AcDbEntity
  8
Layer_1
 62
7
100
AcDbLine
 10
121.557660
 20
211.122730
 30
0.0
 11
121.260000
 21
212.710290
 31
0.0
  0
LINE
  5
19a
100
AcDbEntity
  8
Layer_1
 62
7
100
AcDbLine
 10
47.140950
 20
208.046840
 30
0.0
 11
45.503790
 21
207.749170
 31
0.0
  0
LINE
  5
19b
100
AcDbEntity
  8
Layer_1
 62
7
100
AcDbLine
 10
45.503790
 20
207.749170
 30
0.0
 11
45.751840
 21
206.508890
 31
0.0
  0
LINE
  5
19c
100
AcDbEntity
  8
Layer_1
 62
7
100
AcDbLine
 10
34.440500
 20
201.299720
 30
0.0
 11
33.051390
 21
201.051670
 31
0.0
  0
LINE
  5
19d
100
AcDbEntity
  8
Layer_1
 62
7
100
AcDbLine
 10
34.539720
 20
196.933940
 30
0.0
 11
33.150610
 21
196.685890
 31
0.0
  0
LINE
  5
19e
100
AcDbEntity
  8
Layer_1
 62
7
100
AcDbLine
 10
6.310980
 20
224.815360
 30
0.0
 11
200.092100
 21
314.462760
 31
0.0
  0
LINE
  5
19f
100
AcDbEntity
  8
Layer_1
 62
7
100
AcDbLine
 10
119.920500
 20
210.874670
 30
0.0
 11
121.557660
 21
211.122730
 31
0.0
  0
LINE
  5
1a0
100
AcDbEntity
  8
Layer_1
 62
7
100
AcDbLine
 10
44.213900
 20
203.036110
 30
0.0
 11
46.297560
 21
203.383390
 31
0.0
  0
LINE
  5
1a1
100
AcDbEntity
  8
Layer_1
 62
7
100
AcDbLine
 10
117.936050
 20
220.945760
 30
0.0
 11
119.722050
 21
221.243360
 31
0.0
  0
SPLINE
  5
1a2
100
AcDbEntity
  8
Layer_1
 62
7
100
AcDbSpline
 70
8
 71
3
 72
8
 73
4
 74
0
 40
0
 40
0
 40
0
 40
0
 40
1
 40
1
 40
1
 40
1
 10
6.298580
 20
224.827760
 30
0.0
 10
9.388360
 20
213.082170
 30
0.0
 10
19.999440
 20
204.889240
 30
0.0
 10
32.144730
 20
204.871780
 30
0.0
  0
LINE
  5
1a3
100
AcDbEntity
  8
Layer_1
 62
7
100
AcDbLine
 10
200.092100
 20
314.462760
 30
0.0
 11
201.729270
 21
310.692260
 31
0.0
  0
LINE
  5
1a4
100
AcDbEntity
  8
Layer_1
 62
7
100
AcDbLine
 10
201.729270
 20
310.692260
 30
0.0
 11
203.316820
 21
306.921860
 31
0.0
  0
LINE
  5
1a5
100
AcDbEntity
  8
Layer_1
 62
7
100
AcDbLine
 10
203.316820
 20
306.921860
 30
0.0
 11
204.805160
 21
303.101760
 31
0.0
  0
LINE
  5
1a6
100
AcDbEntity
  8
Layer_1
 62
7
100
AcDbLine
 10
204.805160
 20
303.101760
 30
0.0
 11
206.243880
 21
299.281760
 31
0.0
  0
LINE
  5
1a7
100
AcDbEntity
  8
Layer_1
 62
7
100
AcDbLine
 10
206.243880
 20
299.281760
 30
0.0
 11
207.583380
 21
295.362460
 31
0.0
  0
LINE
  5
1a8
100
AcDbEntity
  8
Layer_1
 62
7
100
AcDbLine
 10
207.583380
 20
295.362460
 30
0.0
 11
208.823660
 21
291.492760
 31
0.0
  0
LINE
  5
1a9
100
AcDbEntity
  8
Layer_1
 62
7
100
AcDbLine
 10
208.823660
 20
291.492760
 30
0.0
 11
209.964710
 21
287.523860
 31
0.0
  0
LINE
  5
1aa
100
AcDbEntity
  8
Layer_1
 62
7
100
AcDbLine
 10
209.964710
 20
287.523860
 30
0.0
 11
211.006550
 21
283.554960
 31
0.0
  0
LINE
  5
1ab
100
AcDbEntity
  8
Layer_1
 62
7
100
AcDbLine
 10
211.006550
 20
283.554960
 30
0.0
 11
211.998770
 21
279.586060
 31
0.0
  0
LINE
  5
1ac
100
AcDbEntity
  8
Layer_1
 62
7
100
AcDbLine
 10
211.998770
 20
279.586060
 30
0.0
 11
212.941380
 21
275.617160
 31
0.0
  0
LINE
  5
1ad
100
AcDbEntity
  8
Layer_1
 62
7
100
AcDbLine
 10
212.941380
 20
275.617160
 30
0.0
 11
214.727380
 21
267.580160
 31
0.0
  0
LINE
  5
1ae
100
AcDbEntity
  8
Layer_1
 62
7
100
AcDbLine
 10
214.727380
 20
267.580160
 30
0.0
 11
216.314940
 21
259.543160
 31
0.0
  0
LINE
  5
1af
100
AcDbEntity
  8
Layer_1
 62
7
100
AcDbLine
 10
216.314940
 20
259.543160
 30
0.0
 11
217.902500
 21
251.506160
 31
0.0
  0
LINE
  5
1b0
100
AcDbEntity
  8
Layer_1
 62
7
100
AcDbLine
 10
217.902500
 20
251.506160
 30
0.0
 11
220.879170
 21
235.382560
 31
0.0
  0
LINE
  5
1b1
100
AcDbEntity
  8
Layer_1
 62
7
100
AcDbLine
 10
220.879170
 20
235.382560
 30
0.0
 11
223.707000
 21
219.209360
 31
0.0
  0
LINE
  5
1b2
100
AcDbEntity
  8
Layer_1
 62
7
100
AcDbLine
 10
223.707000
 20
219.209360
 30
0.0
 11
225.046500
 21
211.122730
 31
0.0
  0
LINE
  5
1b3
100
AcDbEntity
  8
Layer_1
 62
7
100
AcDbLine
 10
225.046500
 20
211.122730
 30
0.0
 11
226.336390
 21
203.036110
 31
0.0
  0
LINE
  5
1b4
100
AcDbEntity
  8
Layer_1
 62
7
100
AcDbLine
 10
226.336390
 20
203.036110
 30
0.0
 11
226.882110
 21
198.968000
 31
0.0
  0
LINE
  5
1b5
100
AcDbEntity
  8
Layer_1
 62
7
100
AcDbLine
 10
226.882110
 20
198.968000
 30
0.0
 11
227.427840
 21
194.899890
 31
0.0
  0
LINE
  5
1b6
100
AcDbEntity
  8
Layer_1
 62
7
100
AcDbLine
 10
227.427840
 20
194.899890
 30
0.0
 11
227.775110
 21
190.782160
 31
0.0
  0
LINE
  5
1b7
100
AcDbEntity
  8
Layer_1
 62
7
100
AcDbLine
 10
227.775110
 20
190.782160
 30
0.0
 11
227.874310
 21
188.748110
 31
0.0
  0
LINE
  5
1b8
100
AcDbEntity
  8
Layer_1
 62
7
100
AcDbLine
 10
227.874310
 20
188.748110
 30
0.0
 11
227.923910
 21
186.714050
 31
0.0
  0
LINE
  5
1b9
100
AcDbEntity
  8
Layer_1
 62
7
100
AcDbLine
 10
62.081364
 20
368.433920
 30
0.0
 11
62.081364
 21
370.815254
 31
0.0
  0
LINE
  5
1ba
100
AcDbEntity
  8
Layer_1
 62
7
100
AcDbLine
 10
62.081364
 20
267.822541
 30
0.0
 11
62.081364
 21
270.154261
 31
0.0
  0
LINE
  5
1bb
100
AcDbEntity
  8
Layer_1
 62
7
100
AcDbLine
 10
91.798433
 20
343.826794
 30
0.0
 11
91.798433
 21
294.811002
 31
0.0
  0
LINE
  5
1bc
100
AcDbEntity
  8
Layer_1
 62
7
100
AcDbLine
 10
91.798433
 20
294.811002
 30
0.0
 11
32.364294
 21
294.811002
 31
0.0
  0
LINE
  5
1bd
100
AcDbEntity
  8
Layer_1
 62
7
100
AcDbLine
 10
32.364294
 20
294.811002
 30
0.0
 11
32.364294
 21
343.826794
 31
0.0
  0
LINE
  5
1be
100
AcDbEntity
  8
Layer_1
 62
7
100
AcDbLine
 10
32.364294
 20
343.826794
 30
0.0
 11
91.798433
 21
343.826794
 31
0.0
  0
LINE
  5
1bf
100
AcDbEntity
  8
Layer_1
 62
3
100
AcDbLine
 10
58.162087
 20
349.432856
 30
0.0
 11
58.162087
 21
362.133308
 31
0.0
  0
LINE
  5
1c0
100
AcDbEntity
  8
Layer_1
 62
3
100
AcDbLine
 10
58.162087
 20
362.133308
 30
0.0
 11
66.050255
 21
362.133308
 31
0.0
  0
LINE
  5
1c1
100
AcDbEntity
  8
Layer_1
 62
3
100
AcDbLine
 10
58.162087
 20
356.080742
 30
0.0
 11
63.023986
 21
356.080742
 31
0.0
  0
SPLINE
  5
1c2
100
AcDbEntity
  8
Layer_1
 62
7
100
AcDbSpline
 70
8
 71
3
 72
8
 73
4
 74
0
 40
0
 40
0
 40
0
 40
0
 40
1
 40
1
 40
1
 40
1
 10
113.577720
 20
319.343705
 30
0.0
 10
113.577720
 20
347.798084
 30
0.0
 10
90.533147
 20
370.864869
 30
0.0
 10
62.106171
 20
370.864869
 30
0.0
  0
SPLINE
  5
1c3
100
AcDbEntity
  8
Layer_1
 62
7
100
AcDbSpline
 70
8
 71
3
 72
8
 73
4
 74
0
 40
0
 40
0
 40
0
 40
0
 40
1
 40
1
 40
1
 40
1
 10
62.106171
 20
370.864869
 30
0.0
 10
33.679196
 20
370.864869
 30
0.0
 10
10.634622
 20
347.798084
 30
0.0
 10
10.634622
 20
319.343705
 30
0.0
  0
SPLINE
  5
1c4
100
AcDbEntity
  8
Layer_1
 62
7
100
AcDbSpline
 70
8
 71
3
 72
8
 73
4
 74
0
 40
0
 40
0
 40
0
 40
0
 40
1
 40
1
 40
1
 40
1
 10
10.634622
 20
319.343705
 30
0.0
 10
10.634622
 20
290.889354
 30
0.0
 10
33.679196
 20
267.822541
 30
0.0
 10
62.106171
 20
267.822541
 30
0.0
  0
SPLINE
  5
1c5
100
AcDbEntity
  8
Layer_1
 62
7
100
AcDbSpline
 70
8
 71
3
 72
8
 73
4
 74
0
 40
0
 40
0
 40
0
 40
0
 40
1
 40
1
 40
1
 40
1
 10
62.106171
 20
267.822541
 30
0.0
 10
90.533147
 20
267.822541
 30
0.0
 10
113.577720
 20
290.889354
 30
0.0
 10
113.577720
 20
319.343705
 30
0.0
  0
LINE
  5
1c6
100
AcDbEntity
  8
Layer_1
 62
7
100
AcDbLine
 10
62.584613
 20
107.899671
 30
0.0
 11
62.584613
 21
110.231391
 31
0.0
  0
LINE
  5
1c7
100
AcDbEntity
  8
Layer_1
 62
7
100
AcDbLine
 10
62.584613
 20
7.238650
 30
0.0
 11
62.584613
 21
9.619985
 31
0.0
  0
LINE
  5
1c8
100
AcDbEntity
  8
Layer_1
 62
7
100
AcDbLine
 10
92.301682
 20
83.242931
 30
0.0
 11
92.301682
 21
34.227110
 31
0.0
  0
LINE
  5
1c9
100
AcDbEntity
  8
Layer_1
 62
7
100
AcDbLine
 10
92.301682
 20
34.227110
 30
0.0
 11
32.867543
 21
34.227110
 31
0.0
  0
LINE
  5
1ca
100
AcDbEntity
  8
Layer_1
 62
7
100
AcDbLine
 10
32.867543
 20
34.227110
 30
0.0
 11
32.867543
 21
83.242931
 31
0.0
  0
LINE
  5
1cb
100
AcDbEntity
  8
Layer_1
 62
7
100
AcDbLine
 10
32.867543
 20
83.242931
 30
0.0
 11
92.301682
 21
83.242931
 31
0.0
  0
LINE
  5
1cc
100
AcDbEntity
  8
Layer_1
 62
3
100
AcDbLine
 10
58.665336
 20
88.848993
 30
0.0
 11
58.665336
 21
101.549445
 31
0.0
  0
LINE
  5
1cd
100
AcDbEntity
  8
Layer_1
 62
3
100
AcDbLine
 10
58.665336
 20
101.549445
 30
0.0
 11
66.503889
 21
101.549445
 31
0.0
  0
LINE
  5
1ce
100
AcDbEntity
  8
Layer_1
 62
3
100
AcDbLine
 10
58.665336
 20
95.496879
 30
0.0
 11
63.477620
 21
95.496879
 31
0.0
  0
SPLINE
  5
1cf
100
AcDbEntity
  8
Layer_1
 62
7
100
AcDbSpline
 70
8
 71
3
 72
8
 73
4
 74
0
 40
0
 40
0
 40
0
 40
0
 40
1
 40
1
 40
1
 40
1
 10
114.080969
 20
58.759842
 30
0.0
 10
114.080969
 20
87.214193
 30
0.0
 10
91.036367
 20
110.281006
 30
0.0
 10
62.609420
 20
110.281006
 30
0.0
  0
SPLINE
  5
1d0
100
AcDbEntity
  8
Layer_1
 62
7
100
AcDbSpline
 70
8
 71
3
 72
8
 73
4
 74
0
 40
0
 40
0
 40
0
 40
0
 40
1
 40
1
 40
1
 40
1
 10
62.609420
 20
110.281006
 30
0.0
 10
34.182445
 20
110.281006
 30
0.0
 10
11.137843
 20
87.214193
 30
0.0
 10
11.137843
 20
58.759842
 30
0.0
  0
SPLINE
  5
1d1
100
AcDbEntity
  8
Layer_1
 62
7
100
AcDbSpline
 70
8
 71
3
 72
8
 73
4
 74
0
 40
0
 40
0
 40
0
 40
0
 40
1
 40
1
 40
1
 40
1
 10
11.137843
 20
58.759842
 30
0.0
 10
11.137843
 20
30.305463
 30
0.0
 10
34.182445
 20
7.238650
 30
0.0
 10
62.609420
 20
7.238650
 30
0.0
  0
SPLINE
  5
1d2
100
AcDbEntity
  8
Layer_1
 62
7
100
AcDbSpline
 70
8
 71
3
 72
8
 73
4
 74
0
 40
0
 40
0
 40
0
 40
0
 40
1
 40
1
 40
1
 40
1
 10
62.609420
 20
7.238650
 30
0.0
 10
91.036367
 20
7.238650
 30
0.0
 10
114.080969
 20
30.305463
 30
0.0
 10
114.080969
 20
58.759842
 30
0.0
  0
LINE
  5
1d3
100
AcDbEntity
  8
Layer_1
 62
7
100
AcDbLine
 10
413.859134
 20
374.310428
 30
0.0
 11
413.859134
 21
373.318205
 31
0.0
  0
LINE
  5
1d4
100
AcDbEntity
  8
Layer_1
 62
7
100
AcDbLine
 10
422.888355
 20
303.564941
 30
0.0
 11
404.978730
 21
303.564941
 31
0.0
  0
LINE
  5
1d5
100
AcDbEntity
  8
Layer_1
 62
7
100
AcDbLine
 10
404.978730
 20
337.300516
 30
0.0
 11
422.888355
 21
337.300516
 31
0.0
  0
SPLINE
  5
1d6
100
AcDbEntity
  8
Layer_1
 62
7
100
AcDbSpline
 70
8
 71
3
 72
8
 73
4
 74
0
 40
0
 40
0
 40
0
 40
0
 40
1
 40
1
 40
1
 40
1
 10
405.003537
 20
337.300516
 30
0.0
 10
403.592510
 20
337.300516
 30
0.0
 10
402.448579
 20
336.156604
 30
0.0
 10
402.448579
 20
334.745544
 30
0.0
  0
LINE
  5
1d7
100
AcDbEntity
  8
Layer_1
 62
7
100
AcDbLine
 10
402.448579
 20
306.095110
 30
0.0
 11
402.448579
 21
334.720737
 31
0.0
  0
SPLINE
  5
1d8
100
AcDbEntity
  8
Layer_1
 62
7
100
AcDbSpline
 70
8
 71
3
 72
8
 73
4
 74
0
 40
0
 40
0
 40
0
 40
0
 40
1
 40
1
 40
1
 40
1
 10
402.448579
 20
306.119915
 30
0.0
 10
402.448579
 20
304.708855
 30
0.0
 10
403.592510
 20
303.564941
 30
0.0
 10
405.003537
 20
303.564941
 30
0.0
  0
LINE
  5
1d9
100
AcDbEntity
  8
Layer_1
 62
7
100
AcDbLine
 10
425.468148
 20
334.720737
 30
0.0
 11
425.468148
 21
306.095110
 31
0.0
  0
SPLINE
  5
1da
100
AcDbEntity
  8
Layer_1
 62
7
100
AcDbSpline
 70
8
 71
3
 72
8
 73
4
 74
0
 40
0
 40
0
 40
0
 40
0
 40
1
 40
1
 40
1
 40
1
 10
422.913162
 20
303.564941
 30
0.0
 10
424.324189
 20
303.564941
 30
0.0
 10
425.468148
 20
304.708855
 30
0.0
 10
425.468148
 20
306.119915
 30
0.0
  0
SPLINE
  5
1db
100
AcDbEntity
  8
Layer_1
 62
7
100
AcDbSpline
 70
8
 71
3
 72
8
 73
4
 74
0
 40
0
 40
0
 40
0
 40
0
 40
1
 40
1
 40
1
 40
1
 10
425.468148
 20
334.745544
 30
0.0
 10
425.468148
 20
336.156604
 30
0.0
 10
424.324189
 20
337.300516
 30
0.0
 10
422.913162
 20
337.300516
 30
0.0
  0
SPLINE
  5
1dc
100
AcDbEntity
  8
Layer_1
 62
7
100
AcDbSpline
 70
8
 71
3
 72
8
 73
4
 74
0
 40
0
 40
0
 40
0
 40
0
 40
1
 40
1
 40
1
 40
1
 10
422.987584
 20
298.479799
 30
0.0
 10
422.987584
 20
299.178473
 30
0.0
 10
422.421164
 20
299.744884
 30
0.0
 10
421.722495
 20
299.744884
 30
0.0
  0
SPLINE
  5
1dd
100
AcDbEntity
  8
Layer_1
 62
7
100
AcDbSpline
 70
8
 71
3
 72
8
 73
4
 74
0
 40
0
 40
0
 40
0
 40
0
 40
1
 40
1
 40
1
 40
1
 10
421.722495
 20
299.744884
 30
0.0
 10
421.023825
 20
299.744884
 30
0.0
 10
420.457405
 20
299.178473
 30
0.0
 10
420.457405
 20
298.479799
 30
0.0
  0
SPLINE
  5
1de
100
AcDbEntity
  8
Layer_1
 62
7
100
AcDbSpline
 70
8
 71
3
 72
8
 73
4
 74
0
 40
0
 40
0
 40
0
 40
0
 40
1
 40
1
 40
1
 40
1
 10
420.457405
 20
298.479799
 30
0.0
 10
420.457405
 20
297.781126
 30
0.0
 10
421.023825
 20
297.214716
 30
0.0
 10
421.722495
 20
297.214716
 30
0.0
  0
SPLINE
  5
1df
100
AcDbEntity
  8
Layer_1
 62
7
100
AcDbSpline
 70
8
 71
3
 72
8
 73
4
 74
0
 40
0
 40
0
 40
0
 40
0
 40
1
 40
1
 40
1
 40
1
 10
421.722495
 20
297.214716
 30
0.0
 10
422.421164
 20
297.214716
 30
0.0
 10
422.987584
 20
297.781126
 30
0.0
 10
422.987584
 20
298.479799
 30
0.0
  0
SPLINE
  5
1e0
100
AcDbEntity
  8
Layer_1
 62
7
100
AcDbSpline
 70
8
 71
3
 72
8
 73
4
 74
0
 40
0
 40
0
 40
0
 40
0
 40
1
 40
1
 40
1
 40
1
 10
432.612152
 20
329.635597
 30
0.0
 10
432.612152
 20
330.334269
 30
0.0
 10
432.045732
 20
330.900681
 30
0.0
 10
431.347063
 20
330.900681
 30
0.0
  0
SPLINE
  5
1e1
100
AcDbEntity
  8
Layer_1
 62
7
100
AcDbSpline
 70
8
 71
3
 72
8
 73
4
 74
0
 40
0
 40
0
 40
0
 40
0
 40
1
 40
1
 40
1
 40
1
 10
431.347063
 20
330.900681
 30
0.0
 10
430.648394
 20
330.900681
 30
0.0
 10
430.081974
 20
330.334269
 30
0.0
 10
430.081974
 20
329.635597
 30
0.0
  0
SPLINE
  5
1e2
100
AcDbEntity
  8
Layer_1
 62
7
100
AcDbSpline
 70
8
 71
3
 72
8
 73
4
 74
0
 40
0
 40
0
 40
0
 40
0
 40
1
 40
1
 40
1
 40
1
 10
430.081974
 20
329.635597
 30
0.0
 10
430.081974
 20
328.936922
 30
0.0
 10
430.648394
 20
328.370511
 30
0.0
 10
431.347063
 20
328.370511
 30
0.0
  0
SPLINE
  5
1e3
100
AcDbEntity
  8
Layer_1
 62
7
100
AcDbSpline
 70
8
 71
3
 72
8
 73
4
 74
0
 40
0
 40
0
 40
0
 40
0
 40
1
 40
1
 40
1
 40
1
 10
431.347063
 20
328.370511
 30
0.0
 10
432.045732
 20
328.370511
 30
0.0
 10
432.612152
 20
328.936922
 30
0.0
 10
432.612152
 20
329.635597
 30
0.0
  0
SPLINE
  5
1e4
100
AcDbEntity
  8
Layer_1
 62
7
100
AcDbSpline
 70
8
 71
3
 72
8
 73
4
 74
0
 40
0
 40
0
 40
0
 40
0
 40
1
 40
1
 40
1
 40
1
 10
407.459294
 20
298.479799
 30
0.0
 10
407.459294
 20
299.178473
 30
0.0
 10
406.892874
 20
299.744884
 30
0.0
 10
406.194204
 20
299.744884
 30
0.0
  0
SPLINE
  5
1e5
100
AcDbEntity
  8
Layer_1
 62
7
100
AcDbSpline
 70
8
 71
3
 72
8
 73
4
 74
0
 40
0
 40
0
 40
0
 40
0
 40
1
 40
1
 40
1
 40
1
 10
406.194204
 20
299.744884
 30
0.0
 10
405.495535
 20
299.744884
 30
0.0
 10
404.929115
 20
299.178473
 30
0.0
 10
404.929115
 20
298.479799
 30
0.0
  0
SPLINE
  5
1e6
100
AcDbEntity
  8
Layer_1
 62
7
100
AcDbSpline
 70
8
 71
3
 72
8
 73
4
 74
0
 40
0
 40
0
 40
0
 40
0
 40
1
 40
1
 40
1
 40
1
 10
404.929115
 20
298.479799
 30
0.0
 10
404.929115
 20
297.781126
 30
0.0
 10
405.495535
 20
297.214716
 30
0.0
 10
406.194204
 20
297.214716
 30
0.0
  0
SPLINE
  5
1e7
100
AcDbEntity
  8
Layer_1
 62
7
100
AcDbSpline
 70
8
 71
3
 72
8
 73
4
 74
0
 40
0
 40
0
 40
0
 40
0
 40
1
 40
1
 40
1
 40
1
 10
406.194204
 20
297.214716
 30
0.0
 10
406.892874
 20
297.214716
 30
0.0
 10
407.459294
 20
297.781126
 30
0.0
 10
407.459294
 20
298.479799
 30
0.0
  0
SPLINE
  5
1e8
100
AcDbEntity
  8
Layer_1
 62
7
100
AcDbSpline
 70
8
 71
3
 72
8
 73
4
 74
0
 40
0
 40
0
 40
0
 40
0
 40
1
 40
1
 40
1
 40
1
 10
397.834725
 20
329.635597
 30
0.0
 10
397.834725
 20
330.334269
 30
0.0
 10
397.268305
 20
330.900681
 30
0.0
 10
396.569636
 20
330.900681
 30
0.0
  0
SPLINE
  5
1e9
100
AcDbEntity
  8
Layer_1
 62
7
100
AcDbSpline
 70
8
 71
3
 72
8
 73
4
 74
0
 40
0
 40
0
 40
0
 40
0
 40
1
 40
1
 40
1
 40
1
 10
396.569636
 20
330.900681
 30
0.0
 10
395.870967
 20
330.900681
 30
0.0
 10
395.304547
 20
330.334269
 30
0.0
 10
395.304547
 20
329.635597
 30
0.0
  0
SPLINE
  5
1ea
100
AcDbEntity
  8
Layer_1
 62
7
100
AcDbSpline
 70
8
 71
3
 72
8
 73
4
 74
0
 40
0
 40
0
 40
0
 40
0
 40
1
 40
1
 40
1
 40
1
 10
395.304547
 20
329.635597
 30
0.0
 10
395.304547
 20
328.936922
 30
0.0
 10
395.870967
 20
328.370511
 30
0.0
 10
396.569636
 20
328.370511
 30
0.0
  0
SPLINE
  5
1eb
100
AcDbEntity
  8
Layer_1
 62
7
100
AcDbSpline
 70
8
 71
3
 72
8
 73
4
 74
0
 40
0
 40
0
 40
0
 40
0
 40
1
 40
1
 40
1
 40
1
 10
396.569636
 20
328.370511
 30
0.0
 10
397.268305
 20
328.370511
 30
0.0
 10
397.834725
 20
328.936922
 30
0.0
 10
397.834725
 20
329.635597
 30
0.0
  0
LINE
  5
1ec
100
AcDbEntity
  8
Layer_1
 62
3
100
AcDbLine
 10
418.770619
 20
359.327865
 30
0.0
 11
413.958364
 21
346.627413
 31
0.0
  0
LINE
  5
1ed
100
AcDbEntity
  8
Layer_1
 62
3
100
AcDbLine
 10
413.958364
 20
346.627413
 30
0.0
 11
409.096465
 21
359.327865
 31
0.0
  0
LINE
  5
1ee
100
AcDbEntity
  8
Layer_1
 62
3
100
AcDbLine
 10
416.984633
 20
355.110917
 30
0.0
 11
410.932066
 21
355.110917
 31
0.0
  0
LINE
  5
1ef
100
AcDbEntity
  8
Layer_1
 62
7
100
AcDbLine
 10
413.859134
 20
277.022982
 30
0.0
 11
412.916512
 21
277.072593
 31
0.0
  0
LINE
  5
1f0
100
AcDbEntity
  8
Layer_1
 62
7
100
AcDbLine
 10
412.916512
 20
277.072593
 30
0.0
 11
412.023504
 21
277.320648
 31
0.0
  0
LINE
  5
1f1
100
AcDbEntity
  8
Layer_1
 62
7
100
AcDbLine
 10
412.023504
 20
277.320648
 30
0.0
 11
411.130525
 21
277.667926
 31
0.0
  0
LINE
  5
1f2
100
AcDbEntity
  8
Layer_1
 62
7
100
AcDbLine
 10
411.130525
 20
277.667926
 30
0.0
 11
410.287132
 21
278.114427
 31
0.0
  0
LINE
  5
1f3
100
AcDbEntity
  8
Layer_1
 62
7
100
AcDbLine
 10
410.287132
 20
278.114427
 30
0.0
 11
409.493354
 21
278.610538
 31
0.0
  0
LINE
  5
1f4
100
AcDbEntity
  8
Layer_1
 62
7
100
AcDbLine
 10
409.493354
 20
278.610538
 30
0.0
 11
408.749190
 21
279.156260
 31
0.0
  0
LINE
  5
1f5
100
AcDbEntity
  8
Layer_1
 62
7
100
AcDbLine
 10
408.749190
 20
279.156260
 30
0.0
 11
407.360064
 21
280.446150
 31
0.0
  0
LINE
  5
1f6
100
AcDbEntity
  8
Layer_1
 62
7
100
AcDbLine
 10
407.360064
 20
280.446150
 30
0.0
 11
406.070168
 21
281.835262
 31
0.0
  0
LINE
  5
1f7
100
AcDbEntity
  8
Layer_1
 62
7
100
AcDbLine
 10
406.070168
 20
281.835262
 30
0.0
 11
404.929115
 21
283.323596
 31
0.0
  0
LINE
  5
1f8
100
AcDbEntity
  8
Layer_1
 62
7
100
AcDbLine
 10
404.929115
 20
283.323596
 30
0.0
 11
403.788062
 21
284.861541
 31
0.0
  0
LINE
  5
1f9
100
AcDbEntity
  8
Layer_1
 62
7
100
AcDbLine
 10
403.788062
 20
284.861541
 30
0.0
 11
402.795853
 21
286.449098
 31
0.0
  0
LINE
  5
1fa
100
AcDbEntity
  8
Layer_1
 62
7
100
AcDbLine
 10
402.795853
 20
286.449098
 30
0.0
 11
401.803617
 21
288.086266
 31
0.0
  0
LINE
  5
1fb
100
AcDbEntity
  8
Layer_1
 62
7
100
AcDbLine
 10
401.803617
 20
288.086266
 30
0.0
 11
400.910609
 21
289.723433
 31
0.0
  0
LINE
  5
1fc
100
AcDbEntity
  8
Layer_1
 62
7
100
AcDbLine
 10
400.910609
 20
289.723433
 30
0.0
 11
399.174237
 21
293.096991
 31
0.0
  0
LINE
  5
1fd
100
AcDbEntity
  8
Layer_1
 62
7
100
AcDbLine
 10
399.174237
 20
293.096991
 30
0.0
 11
397.636295
 21
296.520160
 31
0.0
  0
LINE
  5
1fe
100
AcDbEntity
  8
Layer_1
 62
7
100
AcDbLine
 10
397.636295
 20
296.520160
 30
0.0
 11
396.247169
 21
300.042551
 31
0.0
  0
LINE
  5
1ff
100
AcDbEntity
  8
Layer_1
 62
7
100
AcDbLine
 10
396.247169
 20
300.042551
 30
0.0
 11
394.957272
 21
303.614553
 31
0.0
  0
LINE
  5
200
100
AcDbEntity
  8
Layer_1
 62
7
100
AcDbLine
 10
394.957272
 20
303.614553
 30
0.0
 11
393.816219
 21
307.186555
 31
0.0
  0
LINE
  5
201
100
AcDbEntity
  8
Layer_1
 62
7
100
AcDbLine
 10
393.816219
 20
307.186555
 30
0.0
 11
392.675167
 21
310.808168
 31
0.0
  0
LINE
  5
202
100
AcDbEntity
  8
Layer_1
 62
7
100
AcDbLine
 10
392.675167
 20
310.808168
 30
0.0
 11
391.633343
 21
314.429781
 31
0.0
  0
LINE
  5
203
100
AcDbEntity
  8
Layer_1
 62
7
100
AcDbLine
 10
391.633343
 20
314.429781
 30
0.0
 11
390.690721
 21
318.051394
 31
0.0
  0
LINE
  5
204
100
AcDbEntity
  8
Layer_1
 62
7
100
AcDbLine
 10
390.690721
 20
318.051394
 30
0.0
 11
389.797714
 21
321.722619
 31
0.0
  0
LINE
  5
205
100
AcDbEntity
  8
Layer_1
 62
7
100
AcDbLine
 10
389.797714
 20
321.722619
 30
0.0
 11
389.003935
 21
325.443454
 31
0.0
  0
LINE
  5
206
100
AcDbEntity
  8
Layer_1
 62
7
100
AcDbLine
 10
389.003935
 20
325.443454
 30
0.0
 11
388.309386
 21
329.164292
 31
0.0
  0
LINE
  5
207
100
AcDbEntity
  8
Layer_1
 62
7
100
AcDbLine
 10
388.309386
 20
329.164292
 30
0.0
 11
387.714067
 21
332.885127
 31
0.0
  0
LINE
  5
208
100
AcDbEntity
  8
Layer_1
 62
7
100
AcDbLine
 10
387.714067
 20
332.885127
 30
0.0
 11
387.267563
 21
336.605961
 31
0.0
  0
LINE
  5
209
100
AcDbEntity
  8
Layer_1
 62
7
100
AcDbLine
 10
387.267563
 20
336.605961
 30
0.0
 11
387.019490
 21
340.376408
 31
0.0
  0
LINE
  5
20a
100
AcDbEntity
  8
Layer_1
 62
7
100
AcDbLine
 10
387.019490
 20
340.376408
 30
0.0
 11
386.969875
 21
342.261633
 31
0.0
  0
LINE
  5
20b
100
AcDbEntity
  8
Layer_1
 62
7
100
AcDbLine
 10
386.969875
 20
342.261633
 30
0.0
 11
386.969875
 21
344.146855
 31
0.0
  0
LINE
  5
20c
100
AcDbEntity
  8
Layer_1
 62
7
100
AcDbLine
 10
386.969875
 20
344.146855
 30
0.0
 11
387.019490
 21
346.081688
 31
0.0
  0
LINE
  5
20d
100
AcDbEntity
  8
Layer_1
 62
7
100
AcDbLine
 10
387.019490
 20
346.081688
 30
0.0
 11
387.118719
 21
347.966913
 31
0.0
  0
LINE
  5
20e
100
AcDbEntity
  8
Layer_1
 62
7
100
AcDbLine
 10
387.118719
 20
347.966913
 30
0.0
 11
387.366764
 21
349.802523
 31
0.0
  0
LINE
  5
20f
100
AcDbEntity
  8
Layer_1
 62
7
100
AcDbLine
 10
387.366764
 20
349.802523
 30
0.0
 11
387.664452
 21
351.687748
 31
0.0
  0
LINE
  5
210
100
AcDbEntity
  8
Layer_1
 62
7
100
AcDbLine
 10
387.664452
 20
351.687748
 30
0.0
 11
388.011727
 21
353.523361
 31
0.0
  0
LINE
  5
211
100
AcDbEntity
  8
Layer_1
 62
7
100
AcDbLine
 10
388.011727
 20
353.523361
 30
0.0
 11
388.507845
 21
355.358971
 31
0.0
  0
LINE
  5
212
100
AcDbEntity
  8
Layer_1
 62
7
100
AcDbLine
 10
388.507845
 20
355.358971
 30
0.0
 11
389.103165
 21
357.144972
 31
0.0
  0
LINE
  5
213
100
AcDbEntity
  8
Layer_1
 62
7
100
AcDbLine
 10
389.103165
 20
357.144972
 30
0.0
 11
389.797714
 21
358.930973
 31
0.0
  0
LINE
  5
214
100
AcDbEntity
  8
Layer_1
 62
7
100
AcDbLine
 10
389.797714
 20
358.930973
 30
0.0
 11
390.591492
 21
360.617753
 31
0.0
  0
LINE
  5
215
100
AcDbEntity
  8
Layer_1
 62
7
100
AcDbLine
 10
390.591492
 20
360.617753
 30
0.0
 11
391.534114
 21
362.254922
 31
0.0
  0
LINE
  5
216
100
AcDbEntity
  8
Layer_1
 62
7
100
AcDbLine
 10
391.534114
 20
362.254922
 30
0.0
 11
392.575937
 21
363.842478
 31
0.0
  0
LINE
  5
217
100
AcDbEntity
  8
Layer_1
 62
7
100
AcDbLine
 10
392.575937
 20
363.842478
 30
0.0
 11
393.716990
 21
365.330811
 31
0.0
  0
LINE
  5
218
100
AcDbEntity
  8
Layer_1
 62
7
100
AcDbLine
 10
393.716990
 20
365.330811
 30
0.0
 11
395.006887
 21
366.719923
 31
0.0
  0
LINE
  5
219
100
AcDbEntity
  8
Layer_1
 62
7
100
AcDbLine
 10
395.006887
 20
366.719923
 30
0.0
 11
396.445628
 21
368.009814
 31
0.0
  0
LINE
  5
21a
100
AcDbEntity
  8
Layer_1
 62
7
100
AcDbLine
 10
396.445628
 20
368.009814
 30
0.0
 11
397.933955
 21
369.150869
 31
0.0
  0
LINE
  5
21b
100
AcDbEntity
  8
Layer_1
 62
7
100
AcDbLine
 10
397.933955
 20
369.150869
 30
0.0
 11
399.521511
 21
370.192704
 31
0.0
  0
LINE
  5
21c
100
AcDbEntity
  8
Layer_1
 62
7
100
AcDbLine
 10
399.521511
 20
370.192704
 30
0.0
 11
401.158682
 21
371.085703
 31
0.0
  0
LINE
  5
21d
100
AcDbEntity
  8
Layer_1
 62
7
100
AcDbLine
 10
401.158682
 20
371.085703
 30
0.0
 11
402.845440
 21
371.929093
 31
0.0
  0
LINE
  5
21e
100
AcDbEntity
  8
Layer_1
 62
7
100
AcDbLine
 10
402.845440
 20
371.929093
 30
0.0
 11
404.631455
 21
372.623651
 31
0.0
  0
LINE
  5
21f
100
AcDbEntity
  8
Layer_1
 62
7
100
AcDbLine
 10
404.631455
 20
372.623651
 30
0.0
 11
406.417442
 21
373.218982
 31
0.0
  0
LINE
  5
220
100
AcDbEntity
  8
Layer_1
 62
7
100
AcDbLine
 10
406.417442
 20
373.218982
 30
0.0
 11
408.253072
 21
373.665482
 31
0.0
  0
LINE
  5
221
100
AcDbEntity
  8
Layer_1
 62
7
100
AcDbLine
 10
408.253072
 20
373.665482
 30
0.0
 11
410.088673
 21
374.062372
 31
0.0
  0
LINE
  5
222
100
AcDbEntity
  8
Layer_1
 62
7
100
AcDbLine
 10
410.088673
 20
374.062372
 30
0.0
 11
411.973890
 21
374.360040
 31
0.0
  0
LINE
  5
223
100
AcDbEntity
  8
Layer_1
 62
7
100
AcDbLine
 10
411.973890
 20
374.360040
 30
0.0
 11
413.859134
 21
374.608096
 31
0.0
  0
LINE
  5
224
100
AcDbEntity
  8
Layer_1
 62
7
100
AcDbLine
 10
413.859134
 20
374.608096
 30
0.0
 11
413.908749
 21
374.608096
 31
0.0
  0
LINE
  5
225
100
AcDbEntity
  8
Layer_1
 62
7
100
AcDbLine
 10
413.908749
 20
374.608096
 30
0.0
 11
415.793965
 21
374.360040
 31
0.0
  0
LINE
  5
226
100
AcDbEntity
  8
Layer_1
 62
7
100
AcDbLine
 10
415.793965
 20
374.360040
 30
0.0
 11
417.629567
 21
374.062372
 31
0.0
  0
LINE
  5
227
100
AcDbEntity
  8
Layer_1
 62
7
100
AcDbLine
 10
417.629567
 20
374.062372
 30
0.0
 11
419.514783
 21
373.665482
 31
0.0
  0
LINE
  5
228
100
AcDbEntity
  8
Layer_1
 62
7
100
AcDbLine
 10
419.514783
 20
373.665482
 30
0.0
 11
421.300798
 21
373.218982
 31
0.0
  0
LINE
  5
229
100
AcDbEntity
  8
Layer_1
 62
7
100
AcDbLine
 10
421.300798
 20
373.218982
 30
0.0
 11
423.136400
 21
372.623651
 31
0.0
  0
LINE
  5
22a
100
AcDbEntity
  8
Layer_1
 62
7
100
AcDbLine
 10
423.136400
 20
372.623651
 30
0.0
 11
424.872800
 21
371.929093
 31
0.0
  0
LINE
  5
22b
100
AcDbEntity
  8
Layer_1
 62
7
100
AcDbLine
 10
424.872800
 20
371.929093
 30
0.0
 11
426.609201
 21
371.085703
 31
0.0
  0
LINE
  5
22c
100
AcDbEntity
  8
Layer_1
 62
7
100
AcDbLine
 10
426.609201
 20
371.085703
 30
0.0
 11
428.246372
 21
370.192704
 31
0.0
  0
LINE
  5
22d
100
AcDbEntity
  8
Layer_1
 62
7
100
AcDbLine
 10
428.246372
 20
370.192704
 30
0.0
 11
429.833900
 21
369.150869
 31
0.0
  0
LINE
  5
22e
100
AcDbEntity
  8
Layer_1
 62
7
100
AcDbLine
 10
429.833900
 20
369.150869
 30
0.0
 11
431.322256
 21
368.009814
 31
0.0
  0
LINE
  5
22f
100
AcDbEntity
  8
Layer_1
 62
7
100
AcDbLine
 10
431.322256
 20
368.009814
 30
0.0
 11
432.711353
 21
366.719923
 31
0.0
  0
LINE
  5
230
100
AcDbEntity
  8
Layer_1
 62
7
100
AcDbLine
 10
432.711353
 20
366.719923
 30
0.0
 11
434.001250
 21
365.330811
 31
0.0
  0
LINE
  5
231
100
AcDbEntity
  8
Layer_1
 62
7
100
AcDbLine
 10
434.001250
 20
365.330811
 30
0.0
 11
435.191917
 21
363.842478
 31
0.0
  0
LINE
  5
232
100
AcDbEntity
  8
Layer_1
 62
7
100
AcDbLine
 10
435.191917
 20
363.842478
 30
0.0
 11
436.233741
 21
362.254922
 31
0.0
  0
LINE
  5
233
100
AcDbEntity
  8
Layer_1
 62
7
100
AcDbLine
 10
436.233741
 20
362.254922
 30
0.0
 11
437.176363
 21
360.617753
 31
0.0
  0
LINE
  5
234
100
AcDbEntity
  8
Layer_1
 62
7
100
AcDbLine
 10
437.176363
 20
360.617753
 30
0.0
 11
437.970141
 21
358.930973
 31
0.0
  0
LINE
  5
235
100
AcDbEntity
  8
Layer_1
 62
7
100
AcDbLine
 10
437.970141
 20
358.930973
 30
0.0
 11
438.664690
 21
357.144972
 31
0.0
  0
LINE
  5
236
100
AcDbEntity
  8
Layer_1
 62
7
100
AcDbLine
 10
438.664690
 20
357.144972
 30
0.0
 11
439.260038
 21
355.358971
 31
0.0
  0
LINE
  5
237
100
AcDbEntity
  8
Layer_1
 62
7
100
AcDbLine
 10
439.260038
 20
355.358971
 30
0.0
 11
439.706542
 21
353.523361
 31
0.0
  0
LINE
  5
238
100
AcDbEntity
  8
Layer_1
 62
7
100
AcDbLine
 10
439.706542
 20
353.523361
 30
0.0
 11
440.103431
 21
351.687748
 31
0.0
  0
LINE
  5
239
100
AcDbEntity
  8
Layer_1
 62
7
100
AcDbLine
 10
440.103431
 20
351.687748
 30
0.0
 11
440.401091
 21
349.802523
 31
0.0
  0
LINE
  5
23a
100
AcDbEntity
  8
Layer_1
 62
7
100
AcDbLine
 10
440.401091
 20
349.802523
 30
0.0
 11
440.599521
 21
347.966913
 31
0.0
  0
LINE
  5
23b
100
AcDbEntity
  8
Layer_1
 62
7
100
AcDbLine
 10
440.599521
 20
347.966913
 30
0.0
 11
440.748365
 21
346.081688
 31
0.0
  0
LINE
  5
23c
100
AcDbEntity
  8
Layer_1
 62
7
100
AcDbLine
 10
440.748365
 20
346.081688
 30
0.0
 11
440.797980
 21
344.146855
 31
0.0
  0
LINE
  5
23d
100
AcDbEntity
  8
Layer_1
 62
7
100
AcDbLine
 10
440.797980
 20
344.146855
 30
0.0
 11
440.797980
 21
342.261633
 31
0.0
  0
LINE
  5
23e
100
AcDbEntity
  8
Layer_1
 62
7
100
AcDbLine
 10
440.797980
 20
342.261633
 30
0.0
 11
440.748365
 21
340.376408
 31
0.0
  0
LINE
  5
23f
100
AcDbEntity
  8
Layer_1
 62
7
100
AcDbLine
 10
440.748365
 20
340.376408
 30
0.0
 11
440.450705
 21
336.605961
 31
0.0
  0
LINE
  5
240
100
AcDbEntity
  8
Layer_1
 62
7
100
AcDbLine
 10
440.450705
 20
336.605961
 30
0.0
 11
440.053816
 21
332.885127
 31
0.0
  0
LINE
  5
241
100
AcDbEntity
  8
Layer_1
 62
7
100
AcDbLine
 10
440.053816
 20
332.885127
 30
0.0
 11
439.458469
 21
329.164292
 31
0.0
  0
LINE
  5
242
100
AcDbEntity
  8
Layer_1
 62
7
100
AcDbLine
 10
439.458469
 20
329.164292
 30
0.0
 11
438.763920
 21
325.443454
 31
0.0
  0
LINE
  5
243
100
AcDbEntity
  8
Layer_1
 62
7
100
AcDbLine
 10
438.763920
 20
325.443454
 30
0.0
 11
437.970141
 21
321.722619
 31
0.0
  0
LINE
  5
244
100
AcDbEntity
  8
Layer_1
 62
7
100
AcDbLine
 10
437.970141
 20
321.722619
 30
0.0
 11
437.077134
 21
318.051394
 31
0.0
  0
LINE
  5
245
100
AcDbEntity
  8
Layer_1
 62
7
100
AcDbLine
 10
437.077134
 20
318.051394
 30
0.0
 11
436.084925
 21
314.429781
 31
0.0
  0
LINE
  5
246
100
AcDbEntity
  8
Layer_1
 62
7
100
AcDbLine
 10
436.084925
 20
314.429781
 30
0.0
 11
435.043073
 21
310.808168
 31
0.0
  0
LINE
  5
247
100
AcDbEntity
  8
Layer_1
 62
7
100
AcDbLine
 10
435.043073
 20
310.808168
 30
0.0
 11
433.951635
 21
307.186555
 31
0.0
  0
LINE
  5
248
100
AcDbEntity
  8
Layer_1
 62
7
100
AcDbLine
 10
433.951635
 20
307.186555
 30
0.0
 11
432.760968
 21
303.614553
 31
0.0
  0
LINE
  5
249
100
AcDbEntity
  8
Layer_1
 62
7
100
AcDbLine
 10
432.760968
 20
303.614553
 30
0.0
 11
431.520686
 21
300.042551
 31
0.0
  0
LINE
  5
24a
100
AcDbEntity
  8
Layer_1
 62
7
100
AcDbLine
 10
431.520686
 20
300.042551
 30
0.0
 11
430.131588
 21
296.520160
 31
0.0
  0
LINE
  5
24b
100
AcDbEntity
  8
Layer_1
 62
7
100
AcDbLine
 10
430.131588
 20
296.520160
 30
0.0
 11
428.593646
 21
293.096991
 31
0.0
  0
LINE
  5
24c
100
AcDbEntity
  8
Layer_1
 62
7
100
AcDbLine
 10
428.593646
 20
293.096991
 30
0.0
 11
426.857246
 21
289.723433
 31
0.0
  0
LINE
  5
24d
100
AcDbEntity
  8
Layer_1
 62
7
100
AcDbLine
 10
426.857246
 20
289.723433
 30
0.0
 11
425.964238
 21
288.086266
 31
0.0
  0
LINE
  5
24e
100
AcDbEntity
  8
Layer_1
 62
7
100
AcDbLine
 10
425.964238
 20
288.086266
 30
0.0
 11
424.972030
 21
286.449098
 31
0.0
  0
LINE
  5
24f
100
AcDbEntity
  8
Layer_1
 62
7
100
AcDbLine
 10
424.972030
 20
286.449098
 30
0.0
 11
423.930178
 21
284.861541
 31
0.0
  0
LINE
  5
250
100
AcDbEntity
  8
Layer_1
 62
7
100
AcDbLine
 10
423.930178
 20
284.861541
 30
0.0
 11
422.838740
 21
283.323596
 31
0.0
  0
LINE
  5
251
100
AcDbEntity
  8
Layer_1
 62
7
100
AcDbLine
 10
422.838740
 20
283.323596
 30
0.0
 11
421.648073
 21
281.835262
 31
0.0
  0
LINE
  5
252
100
AcDbEntity
  8
Layer_1
 62
7
100
AcDbLine
 10
421.648073
 20
281.835262
 30
0.0
 11
420.407791
 21
280.446150
 31
0.0
  0
LINE
  5
253
100
AcDbEntity
  8
Layer_1
 62
7
100
AcDbLine
 10
420.407791
 20
280.446150
 30
0.0
 11
418.969078
 21
279.156260
 31
0.0
  0
LINE
  5
254
100
AcDbEntity
  8
Layer_1
 62
7
100
AcDbLine
 10
418.969078
 20
279.156260
 30
0.0
 11
418.224915
 21
278.610538
 31
0.0
  0
LINE
  5
255
100
AcDbEntity
  8
Layer_1
 62
7
100
AcDbLine
 10
418.224915
 20
278.610538
 30
0.0
 11
417.431136
 21
278.114427
 31
0.0
  0
LINE
  5
256
100
AcDbEntity
  8
Layer_1
 62
7
100
AcDbLine
 10
417.431136
 20
278.114427
 30
0.0
 11
416.587743
 21
277.667926
 31
0.0
  0
LINE
  5
257
100
AcDbEntity
  8
Layer_1
 62
7
100
AcDbLine
 10
416.587743
 20
277.667926
 30
0.0
 11
415.744351
 21
277.320648
 31
0.0
  0
LINE
  5
258
100
AcDbEntity
  8
Layer_1
 62
7
100
AcDbLine
 10
415.744351
 20
277.320648
 30
0.0
 11
414.801728
 21
277.072593
 31
0.0
  0
LINE
  5
259
100
AcDbEntity
  8
Layer_1
 62
7
100
AcDbLine
 10
414.801728
 20
277.072593
 30
0.0
 11
413.859134
 21
277.022982
 31
0.0
  0
LINE
  5
25a
100
AcDbEntity
  8
Layer_1
 62
7
100
AcDbLine
 10
457.015421
 20
333.702860
 30
0.0
 11
474.925046
 21
333.702860
 31
0.0
  0
LINE
  5
25b
100
AcDbEntity
  8
Layer_1
 62
7
100
AcDbLine
 10
474.925046
 20
299.967284
 30
0.0
 11
457.015421
 21
299.967284
 31
0.0
  0
SPLINE
  5
25c
100
AcDbEntity
  8
Layer_1
 62
7
100
AcDbSpline
 70
8
 71
3
 72
8
 73
4
 74
0
 40
0
 40
0
 40
0
 40
0
 40
1
 40
1
 40
1
 40
1
 10
474.949854
 20
299.967284
 30
0.0
 10
476.360880
 20
299.967284
 30
0.0
 10
477.504812
 20
301.111173
 30
0.0
 10
477.504812
 20
302.522259
 30
0.0
  0
LINE
  5
25d
100
AcDbEntity
  8
Layer_1
 62
7
100
AcDbLine
 10
477.455197
 20
331.172692
 30
0.0
 11
477.455197
 21
302.497452
 31
0.0
  0
SPLINE
  5
25e
100
AcDbEntity
  8
Layer_1
 62
7
100
AcDbSpline
 70
8
 71
3
 72
8
 73
4
 74
0
 40
0
 40
0
 40
0
 40
0
 40
1
 40
1
 40
1
 40
1
 10
477.504812
 20
331.197497
 30
0.0
 10
477.504812
 20
332.608557
 30
0.0
 10
476.360880
 20
333.752471
 30
0.0
 10
474.949854
 20
333.752471
 30
0.0
  0
LINE
  5
25f
100
AcDbEntity
  8
Layer_1
 62
7
100
AcDbLine
 10
454.485243
 20
302.497452
 30
0.0
 11
454.485243
 21
331.172692
 31
0.0
  0
SPLINE
  5
260
100
AcDbEntity
  8
Layer_1
 62
7
100
AcDbSpline
 70
8
 71
3
 72
8
 73
4
 74
0
 40
0
 40
0
 40
0
 40
0
 40
1
 40
1
 40
1
 40
1
 10
457.040229
 20
333.752471
 30
0.0
 10
455.629174
 20
333.752471
 30
0.0
 10
454.485243
 20
332.608557
 30
0.0
 10
454.485243
 20
331.197497
 30
0.0
  0
SPLINE
  5
261
100
AcDbEntity
  8
Layer_1
 62
7
100
AcDbSpline
 70
8
 71
3
 72
8
 73
4
 74
0
 40
0
 40
0
 40
0
 40
0
 40
1
 40
1
 40
1
 40
1
 10
454.485243
 20
302.522259
 30
0.0
 10
454.485243
 20
301.111173
 30
0.0
 10
455.629174
 20
299.967284
 30
0.0
 10
457.040229
 20
299.967284
 30
0.0
  0
SPLINE
  5
262
100
AcDbEntity
  8
Layer_1
 62
7
100
AcDbSpline
 70
8
 71
3
 72
8
 73
4
 74
0
 40
0
 40
0
 40
0
 40
0
 40
1
 40
1
 40
1
 40
1
 10
459.495985
 20
338.788002
 30
0.0
 10
459.495985
 20
339.486674
 30
0.0
 10
458.929565
 20
340.053086
 30
0.0
 10
458.230896
 20
340.053086
 30
0.0
  0
SPLINE
  5
263
100
AcDbEntity
  8
Layer_1
 62
7
100
AcDbSpline
 70
8
 71
3
 72
8
 73
4
 74
0
 40
0
 40
0
 40
0
 40
0
 40
1
 40
1
 40
1
 40
1
 10
458.230896
 20
340.053086
 30
0.0
 10
457.532227
 20
340.053086
 30
0.0
 10
456.965807
 20
339.486674
 30
0.0
 10
456.965807
 20
338.788002
 30
0.0
  0
SPLINE
  5
264
100
AcDbEntity
  8
Layer_1
 62
7
100
AcDbSpline
 70
8
 71
3
 72
8
 73
4
 74
0
 40
0
 40
0
 40
0
 40
0
 40
1
 40
1
 40
1
 40
1
 10
456.965807
 20
338.788002
 30
0.0
 10
456.965807
 20
338.089327
 30
0.0
 10
457.532227
 20
337.522918
 30
0.0
 10
458.230896
 20
337.522918
 30
0.0
  0
SPLINE
  5
265
100
AcDbEntity
  8
Layer_1
 62
7
100
AcDbSpline
 70
8
 71
3
 72
8
 73
4
 74
0
 40
0
 40
0
 40
0
 40
0
 40
1
 40
1
 40
1
 40
1
 10
458.230896
 20
337.522918
 30
0.0
 10
458.929565
 20
337.522918
 30
0.0
 10
459.495985
 20
338.089327
 30
0.0
 10
459.495985
 20
338.788002
 30
0.0
  0
SPLINE
  5
266
100
AcDbEntity
  8
Layer_1
 62
7
100
AcDbSpline
 70
8
 71
3
 72
8
 73
4
 74
0
 40
0
 40
0
 40
0
 40
0
 40
1
 40
1
 40
1
 40
1
 10
449.871417
 20
307.681818
 30
0.0
 10
449.871417
 20
308.380490
 30
0.0
 10
449.304997
 20
308.946901
 30
0.0
 10
448.606328
 20
308.946901
 30
0.0
  0
SPLINE
  5
267
100
AcDbEntity
  8
Layer_1
 62
7
100
AcDbSpline
 70
8
 71
3
 72
8
 73
4
 74
0
 40
0
 40
0
 40
0
 40
0
 40
1
 40
1
 40
1
 40
1
 10
448.606328
 20
308.946901
 30
0.0
 10
447.907658
 20
308.946901
 30
0.0
 10
447.341238
 20
308.380490
 30
0.0
 10
447.341238
 20
307.681818
 30
0.0
  0
SPLINE
  5
268
100
AcDbEntity
  8
Layer_1
 62
7
100
AcDbSpline
 70
8
 71
3
 72
8
 73
4
 74
0
 40
0
 40
0
 40
0
 40
0
 40
1
 40
1
 40
1
 40
1
 10
447.341238
 20
307.681818
 30
0.0
 10
447.341238
 20
306.983143
 30
0.0
 10
447.907658
 20
306.416734
 30
0.0
 10
448.606328
 20
306.416734
 30
0.0
  0
SPLINE
  5
269
100
AcDbEntity
  8
Layer_1
 62
7
100
AcDbSpline
 70
8
 71
3
 72
8
 73
4
 74
0
 40
0
 40
0
 40
0
 40
0
 40
1
 40
1
 40
1
 40
1
 10
448.606328
 20
306.416734
 30
0.0
 10
449.304997
 20
306.416734
 30
0.0
 10
449.871417
 20
306.983143
 30
0.0
 10
449.871417
 20
307.681818
 30
0.0
  0
SPLINE
  5
26a
100
AcDbEntity
  8
Layer_1
 62
7
100
AcDbSpline
 70
8
 71
3
 72
8
 73
4
 74
0
 40
0
 40
0
 40
0
 40
0
 40
1
 40
1
 40
1
 40
1
 10
475.024248
 20
338.788002
 30
0.0
 10
475.024248
 20
339.486674
 30
0.0
 10
474.457856
 20
340.053086
 30
0.0
 10
473.759186
 20
340.053086
 30
0.0
  0
SPLINE
  5
26b
100
AcDbEntity
  8
Layer_1
 62
7
100
AcDbSpline
 70
8
 71
3
 72
8
 73
4
 74
0
 40
0
 40
0
 40
0
 40
0
 40
1
 40
1
 40
1
 40
1
 10
473.759186
 20
340.053086
 30
0.0
 10
473.060517
 20
340.053086
 30
0.0
 10
472.494097
 20
339.486674
 30
0.0
 10
472.494097
 20
338.788002
 30
0.0
  0
SPLINE
  5
26c
100
AcDbEntity
  8
Layer_1
 62
7
100
AcDbSpline
 70
8
 71
3
 72
8
 73
4
 74
0
 40
0
 40
0
 40
0
 40
0
 40
1
 40
1
 40
1
 40
1
 10
472.494097
 20
338.788002
 30
0.0
 10
472.494097
 20
338.089327
 30
0.0
 10
473.060517
 20
337.522918
 30
0.0
 10
473.759186
 20
337.522918
 30
0.0
  0
SPLINE
  5
26d
100
AcDbEntity
  8
Layer_1
 62
7
100
AcDbSpline
 70
8
 71
3
 72
8
 73
4
 74
0
 40
0
 40
0
 40
0
 40
0
 40
1
 40
1
 40
1
 40
1
 10
473.759186
 20
337.522918
 30
0.0
 10
474.457856
 20
337.522918
 30
0.0
 10
475.024248
 20
338.089327
 30
0.0
 10
475.024248
 20
338.788002
 30
0.0
  0
SPLINE
  5
26e
100
AcDbEntity
  8
Layer_1
 62
7
100
AcDbSpline
 70
8
 71
3
 72
8
 73
4
 74
0
 40
0
 40
0
 40
0
 40
0
 40
1
 40
1
 40
1
 40
1
 10
484.648816
 20
307.681818
 30
0.0
 10
484.648816
 20
308.380490
 30
0.0
 10
484.082424
 20
308.946901
 30
0.0
 10
483.383726
 20
308.946901
 30
0.0
  0
SPLINE
  5
26f
100
AcDbEntity
  8
Layer_1
 62
7
100
AcDbSpline
 70
8
 71
3
 72
8
 73
4
 74
0
 40
0
 40
0
 40
0
 40
0
 40
1
 40
1
 40
1
 40
1
 10
483.383726
 20
308.946901
 30
0.0
 10
482.685057
 20
308.946901
 30
0.0
 10
482.118665
 20
308.380490
 30
0.0
 10
482.118665
 20
307.681818
 30
0.0
  0
SPLINE
  5
270
100
AcDbEntity
  8
Layer_1
 62
7
100
AcDbSpline
 70
8
 71
3
 72
8
 73
4
 74
0
 40
0
 40
0
 40
0
 40
0
 40
1
 40
1
 40
1
 40
1
 10
482.118665
 20
307.681818
 30
0.0
 10
482.118665
 20
306.983143
 30
0.0
 10
482.685057
 20
306.416734
 30
0.0
 10
483.383726
 20
306.416734
 30
0.0
  0
SPLINE
  5
271
100
AcDbEntity
  8
Layer_1
 62
7
100
AcDbSpline
 70
8
 71
3
 72
8
 73
4
 74
0
 40
0
 40
0
 40
0
 40
0
 40
1
 40
1
 40
1
 40
1
 10
483.383726
 20
306.416734
 30
0.0
 10
484.082424
 20
306.416734
 30
0.0
 10
484.648816
 20
306.983143
 30
0.0
 10
484.648816
 20
307.681818
 30
0.0
  0
LINE
  5
272
100
AcDbEntity
  8
Layer_1
 62
3
100
AcDbLine
 10
461.133128
 20
277.890326
 30
0.0
 11
465.995027
 21
290.590778
 31
0.0
  0
LINE
  5
273
100
AcDbEntity
  8
Layer_1
 62
3
100
AcDbLine
 10
465.995027
 20
290.590778
 30
0.0
 11
470.807311
 21
277.890326
 31
0.0
  0
LINE
  5
274
100
AcDbEntity
  8
Layer_1
 62
3
100
AcDbLine
 10
462.968758
 20
282.156886
 30
0.0
 11
469.021324
 21
282.156886
 31
0.0
  0
LINE
  5
275
100
AcDbEntity
  8
Layer_1
 62
7
100
AcDbLine
 10
466.044642
 20
360.244819
 30
0.0
 11
466.987264
 21
360.145597
 31
0.0
  0
LINE
  5
276
100
AcDbEntity
  8
Layer_1
 62
7
100
AcDbLine
 10
466.987264
 20
360.145597
 30
0.0
 11
467.880243
 21
359.947152
 31
0.0
  0
LINE
  5
277
100
AcDbEntity
  8
Layer_1
 62
7
100
AcDbLine
 10
467.880243
 20
359.947152
 30
0.0
 11
468.773251
 21
359.599874
 31
0.0
  0
LINE
  5
278
100
AcDbEntity
  8
Layer_1
 62
7
100
AcDbLine
 10
468.773251
 20
359.599874
 30
0.0
 11
469.616644
 21
359.153374
 31
0.0
  0
LINE
  5
279
100
AcDbEntity
  8
Layer_1
 62
7
100
AcDbLine
 10
469.616644
 20
359.153374
 30
0.0
 11
470.410422
 21
358.657263
 31
0.0
  0
LINE
  5
27a
100
AcDbEntity
  8
Layer_1
 62
7
100
AcDbLine
 10
470.410422
 20
358.657263
 30
0.0
 11
471.154586
 21
358.061929
 31
0.0
  0
LINE
  5
27b
100
AcDbEntity
  8
Layer_1
 62
7
100
AcDbLine
 10
471.154586
 20
358.061929
 30
0.0
 11
472.543712
 21
356.821650
 31
0.0
  0
LINE
  5
27c
100
AcDbEntity
  8
Layer_1
 62
7
100
AcDbLine
 10
472.543712
 20
356.821650
 30
0.0
 11
473.833580
 21
355.382927
 31
0.0
  0
LINE
  5
27d
100
AcDbEntity
  8
Layer_1
 62
7
100
AcDbLine
 10
473.833580
 20
355.382927
 30
0.0
 11
475.024248
 21
353.944204
 31
0.0
  0
LINE
  5
27e
100
AcDbEntity
  8
Layer_1
 62
7
100
AcDbLine
 10
475.024248
 20
353.944204
 30
0.0
 11
476.115714
 21
352.406259
 31
0.0
  0
LINE
  5
27f
100
AcDbEntity
  8
Layer_1
 62
7
100
AcDbLine
 10
476.115714
 20
352.406259
 30
0.0
 11
477.157537
 21
350.818702
 31
0.0
  0
LINE
  5
280
100
AcDbEntity
  8
Layer_1
 62
7
100
AcDbLine
 10
477.157537
 20
350.818702
 30
0.0
 11
478.100159
 21
349.181535
 31
0.0
  0
LINE
  5
281
100
AcDbEntity
  8
Layer_1
 62
7
100
AcDbLine
 10
478.100159
 20
349.181535
 30
0.0
 11
479.042753
 21
347.544367
 31
0.0
  0
LINE
  5
282
100
AcDbEntity
  8
Layer_1
 62
7
100
AcDbLine
 10
479.042753
 20
347.544367
 30
0.0
 11
480.729539
 21
344.170810
 31
0.0
  0
LINE
  5
283
100
AcDbEntity
  8
Layer_1
 62
7
100
AcDbLine
 10
480.729539
 20
344.170810
 30
0.0
 11
482.267481
 21
340.698031
 31
0.0
  0
LINE
  5
284
100
AcDbEntity
  8
Layer_1
 62
7
100
AcDbLine
 10
482.267481
 20
340.698031
 30
0.0
 11
483.656607
 21
337.225250
 31
0.0
  0
LINE
  5
285
100
AcDbEntity
  8
Layer_1
 62
7
100
AcDbLine
 10
483.656607
 20
337.225250
 30
0.0
 11
484.946504
 21
333.653248
 31
0.0
  0
LINE
  5
286
100
AcDbEntity
  8
Layer_1
 62
7
100
AcDbLine
 10
484.946504
 20
333.653248
 30
0.0
 11
486.137143
 21
330.081246
 31
0.0
  0
LINE
  5
287
100
AcDbEntity
  8
Layer_1
 62
7
100
AcDbLine
 10
486.137143
 20
330.081246
 30
0.0
 11
487.228609
 21
326.459632
 31
0.0
  0
LINE
  5
288
100
AcDbEntity
  8
Layer_1
 62
7
100
AcDbLine
 10
487.228609
 20
326.459632
 30
0.0
 11
488.270433
 21
322.838021
 31
0.0
  0
LINE
  5
289
100
AcDbEntity
  8
Layer_1
 62
7
100
AcDbLine
 10
488.270433
 20
322.838021
 30
0.0
 11
489.262670
 21
319.166795
 31
0.0
  0
LINE
  5
28a
100
AcDbEntity
  8
Layer_1
 62
7
100
AcDbLine
 10
489.262670
 20
319.166795
 30
0.0
 11
490.155649
 21
315.495572
 31
0.0
  0
LINE
  5
28b
100
AcDbEntity
  8
Layer_1
 62
7
100
AcDbLine
 10
490.155649
 20
315.495572
 30
0.0
 11
490.949427
 21
311.824346
 31
0.0
  0
LINE
  5
28c
100
AcDbEntity
  8
Layer_1
 62
7
100
AcDbLine
 10
490.949427
 20
311.824346
 30
0.0
 11
491.644004
 21
308.103511
 31
0.0
  0
LINE
  5
28d
100
AcDbEntity
  8
Layer_1
 62
7
100
AcDbLine
 10
491.644004
 20
308.103511
 30
0.0
 11
492.189709
 21
304.382676
 31
0.0
  0
LINE
  5
28e
100
AcDbEntity
  8
Layer_1
 62
7
100
AcDbLine
 10
492.189709
 20
304.382676
 30
0.0
 11
492.636213
 21
300.612230
 31
0.0
  0
LINE
  5
28f
100
AcDbEntity
  8
Layer_1
 62
7
100
AcDbLine
 10
492.636213
 20
300.612230
 30
0.0
 11
492.884286
 21
296.841783
 31
0.0
  0
LINE
  5
290
100
AcDbEntity
  8
Layer_1
 62
7
100
AcDbLine
 10
492.884286
 20
296.841783
 30
0.0
 11
492.983487
 21
294.956558
 31
0.0
  0
LINE
  5
291
100
AcDbEntity
  8
Layer_1
 62
7
100
AcDbLine
 10
492.983487
 20
294.956558
 30
0.0
 11
492.983487
 21
293.071336
 31
0.0
  0
LINE
  5
292
100
AcDbEntity
  8
Layer_1
 62
7
100
AcDbLine
 10
492.983487
 20
293.071336
 30
0.0
 11
492.884286
 21
291.186112
 31
0.0
  0
LINE
  5
293
100
AcDbEntity
  8
Layer_1
 62
7
100
AcDbLine
 10
492.884286
 20
291.186112
 30
0.0
 11
492.785057
 21
289.300890
 31
0.0
  0
LINE
  5
294
100
AcDbEntity
  8
Layer_1
 62
7
100
AcDbLine
 10
492.785057
 20
289.300890
 30
0.0
 11
492.586598
 21
287.415665
 31
0.0
  0
LINE
  5
295
100
AcDbEntity
  8
Layer_1
 62
7
100
AcDbLine
 10
492.586598
 20
287.415665
 30
0.0
 11
492.288938
 21
285.580055
 31
0.0
  0
LINE
  5
296
100
AcDbEntity
  8
Layer_1
 62
7
100
AcDbLine
 10
492.288938
 20
285.580055
 30
0.0
 11
491.892049
 21
283.694830
 31
0.0
  0
LINE
  5
297
100
AcDbEntity
  8
Layer_1
 62
7
100
AcDbLine
 10
491.892049
 20
283.694830
 30
0.0
 11
491.395931
 21
281.859217
 31
0.0
  0
LINE
  5
298
100
AcDbEntity
  8
Layer_1
 62
7
100
AcDbLine
 10
491.395931
 20
281.859217
 30
0.0
 11
490.850226
 21
280.073216
 31
0.0
  0
LINE
  5
299
100
AcDbEntity
  8
Layer_1
 62
7
100
AcDbLine
 10
490.850226
 20
280.073216
 30
0.0
 11
490.155649
 21
278.336827
 31
0.0
  0
LINE
  5
29a
100
AcDbEntity
  8
Layer_1
 62
7
100
AcDbLine
 10
490.155649
 20
278.336827
 30
0.0
 11
489.312256
 21
276.600438
 31
0.0
  0
LINE
  5
29b
100
AcDbEntity
  8
Layer_1
 62
7
100
AcDbLine
 10
489.312256
 20
276.600438
 30
0.0
 11
488.419277
 21
274.963270
 31
0.0
  0
LINE
  5
29c
100
AcDbEntity
  8
Layer_1
 62
7
100
AcDbLine
 10
488.419277
 20
274.963270
 30
0.0
 11
487.327810
 21
273.425325
 31
0.0
  0
LINE
  5
29d
100
AcDbEntity
  8
Layer_1
 62
7
100
AcDbLine
 10
487.327810
 20
273.425325
 30
0.0
 11
486.186758
 21
271.936989
 31
0.0
  0
LINE
  5
29e
100
AcDbEntity
  8
Layer_1
 62
7
100
AcDbLine
 10
486.186758
 20
271.936989
 30
0.0
 11
484.896889
 21
270.547877
 31
0.0
  0
LINE
  5
29f
100
AcDbEntity
  8
Layer_1
 62
7
100
AcDbLine
 10
484.896889
 20
270.547877
 30
0.0
 11
483.507763
 21
269.257989
 31
0.0
  0
LINE
  5
2a0
100
AcDbEntity
  8
Layer_1
 62
7
100
AcDbLine
 10
483.507763
 20
269.257989
 30
0.0
 11
481.969821
 21
268.116931
 31
0.0
  0
LINE
  5
2a1
100
AcDbEntity
  8
Layer_1
 62
7
100
AcDbLine
 10
481.969821
 20
268.116931
 30
0.0
 11
480.431879
 21
267.075099
 31
0.0
  0
LINE
  5
2a2
100
AcDbEntity
  8
Layer_1
 62
7
100
AcDbLine
 10
480.431879
 20
267.075099
 30
0.0
 11
478.745094
 21
266.132488
 31
0.0
  0
LINE
  5
2a3
100
AcDbEntity
  8
Layer_1
 62
7
100
AcDbLine
 10
478.745094
 20
266.132488
 30
0.0
 11
477.058308
 21
265.338710
 31
0.0
  0
LINE
  5
2a4
100
AcDbEntity
  8
Layer_1
 62
7
100
AcDbLine
 10
477.058308
 20
265.338710
 30
0.0
 11
475.272321
 21
264.644152
 31
0.0
  0
LINE
  5
2a5
100
AcDbEntity
  8
Layer_1
 62
7
100
AcDbLine
 10
475.272321
 20
264.644152
 30
0.0
 11
473.486306
 21
264.048819
 31
0.0
  0
LINE
  5
2a6
100
AcDbEntity
  8
Layer_1
 62
7
100
AcDbLine
 10
473.486306
 20
264.048819
 30
0.0
 11
471.650704
 21
263.552709
 31
0.0
  0
LINE
  5
2a7
100
AcDbEntity
  8
Layer_1
 62
7
100
AcDbLine
 10
471.650704
 20
263.552709
 30
0.0
 11
469.815103
 21
263.155820
 31
0.0
  0
LINE
  5
2a8
100
AcDbEntity
  8
Layer_1
 62
7
100
AcDbLine
 10
469.815103
 20
263.155820
 30
0.0
 11
467.979473
 21
262.858151
 31
0.0
  0
LINE
  5
2a9
100
AcDbEntity
  8
Layer_1
 62
7
100
AcDbLine
 10
467.979473
 20
262.858151
 30
0.0
 11
466.094256
 21
262.659707
 31
0.0
  0
LINE
  5
2aa
100
AcDbEntity
  8
Layer_1
 62
7
100
AcDbLine
 10
466.094256
 20
262.659707
 30
0.0
 11
465.995027
 21
262.659707
 31
0.0
  0
LINE
  5
2ab
100
AcDbEntity
  8
Layer_1
 62
7
100
AcDbLine
 10
465.995027
 20
262.659707
 30
0.0
 11
464.109811
 21
262.858151
 31
0.0
  0
LINE
  5
2ac
100
AcDbEntity
  8
Layer_1
 62
7
100
AcDbLine
 10
464.109811
 20
262.858151
 30
0.0
 11
462.274209
 21
263.155820
 31
0.0
  0
LINE
  5
2ad
100
AcDbEntity
  8
Layer_1
 62
7
100
AcDbLine
 10
462.274209
 20
263.155820
 30
0.0
 11
460.438579
 21
263.552709
 31
0.0
  0
LINE
  5
2ae
100
AcDbEntity
  8
Layer_1
 62
7
100
AcDbLine
 10
460.438579
 20
263.552709
 30
0.0
 11
458.602978
 21
264.048819
 31
0.0
  0
LINE
  5
2af
100
AcDbEntity
  8
Layer_1
 62
7
100
AcDbLine
 10
458.602978
 20
264.048819
 30
0.0
 11
456.816963
 21
264.644152
 31
0.0
  0
LINE
  5
2b0
100
AcDbEntity
  8
Layer_1
 62
7
100
AcDbLine
 10
456.816963
 20
264.644152
 30
0.0
 11
455.030976
 21
265.338710
 31
0.0
  0
LINE
  5
2b1
100
AcDbEntity
  8
Layer_1
 62
7
100
AcDbLine
 10
455.030976
 20
265.338710
 30
0.0
 11
453.344190
 21
266.132488
 31
0.0
  0
LINE
  5
2b2
100
AcDbEntity
  8
Layer_1
 62
7
100
AcDbLine
 10
453.344190
 20
266.132488
 30
0.0
 11
451.657404
 21
267.075099
 31
0.0
  0
LINE
  5
2b3
100
AcDbEntity
  8
Layer_1
 62
7
100
AcDbLine
 10
451.657404
 20
267.075099
 30
0.0
 11
450.069848
 21
268.116931
 31
0.0
  0
LINE
  5
2b4
100
AcDbEntity
  8
Layer_1
 62
7
100
AcDbLine
 10
450.069848
 20
268.116931
 30
0.0
 11
448.581520
 21
269.257989
 31
0.0
  0
LINE
  5
2b5
100
AcDbEntity
  8
Layer_1
 62
7
100
AcDbLine
 10
448.581520
 20
269.257989
 30
0.0
 11
447.192423
 21
270.547877
 31
0.0
  0
LINE
  5
2b6
100
AcDbEntity
  8
Layer_1
 62
7
100
AcDbLine
 10
447.192423
 20
270.547877
 30
0.0
 11
445.902526
 21
271.936989
 31
0.0
  0
LINE
  5
2b7
100
AcDbEntity
  8
Layer_1
 62
7
100
AcDbLine
 10
445.902526
 20
271.936989
 30
0.0
 11
444.711859
 21
273.425325
 31
0.0
  0
LINE
  5
2b8
100
AcDbEntity
  8
Layer_1
 62
7
100
AcDbLine
 10
444.711859
 20
273.425325
 30
0.0
 11
443.670035
 21
274.963270
 31
0.0
  0
LINE
  5
2b9
100
AcDbEntity
  8
Layer_1
 62
7
100
AcDbLine
 10
443.670035
 20
274.963270
 30
0.0
 11
442.727413
 21
276.600438
 31
0.0
  0
LINE
  5
2ba
100
AcDbEntity
  8
Layer_1
 62
7
100
AcDbLine
 10
442.727413
 20
276.600438
 30
0.0
 11
441.933635
 21
278.336827
 31
0.0
  0
LINE
  5
2bb
100
AcDbEntity
  8
Layer_1
 62
7
100
AcDbLine
 10
441.933635
 20
278.336827
 30
0.0
 11
441.239086
 21
280.073216
 31
0.0
  0
LINE
  5
2bc
100
AcDbEntity
  8
Layer_1
 62
7
100
AcDbLine
 10
441.239086
 20
280.073216
 30
0.0
 11
440.643738
 21
281.859217
 31
0.0
  0
LINE
  5
2bd
100
AcDbEntity
  8
Layer_1
 62
7
100
AcDbLine
 10
440.643738
 20
281.859217
 30
0.0
 11
440.197234
 21
283.694830
 31
0.0
  0
LINE
  5
2be
100
AcDbEntity
  8
Layer_1
 62
7
100
AcDbLine
 10
440.197234
 20
283.694830
 30
0.0
 11
439.800345
 21
285.580055
 31
0.0
  0
LINE
  5
2bf
100
AcDbEntity
  8
Layer_1
 62
7
100
AcDbLine
 10
439.800345
 20
285.580055
 30
0.0
 11
439.502685
 21
287.415665
 31
0.0
  0
LINE
  5
2c0
100
AcDbEntity
  8
Layer_1
 62
7
100
AcDbLine
 10
439.502685
 20
287.415665
 30
0.0
 11
439.304227
 21
289.300890
 31
0.0
  0
LINE
  5
2c1
100
AcDbEntity
  8
Layer_1
 62
7
100
AcDbLine
 10
439.304227
 20
289.300890
 30
0.0
 11
439.155411
 21
291.186112
 31
0.0
  0
LINE
  5
2c2
100
AcDbEntity
  8
Layer_1
 62
7
100
AcDbLine
 10
439.155411
 20
291.186112
 30
0.0
 11
439.105796
 21
293.071336
 31
0.0
  0
LINE
  5
2c3
100
AcDbEntity
  8
Layer_1
 62
7
100
AcDbLine
 10
439.105796
 20
293.071336
 30
0.0
 11
439.105796
 21
294.956558
 31
0.0
  0
LINE
  5
2c4
100
AcDbEntity
  8
Layer_1
 62
7
100
AcDbLine
 10
439.105796
 20
294.956558
 30
0.0
 11
439.155411
 21
296.841783
 31
0.0
  0
LINE
  5
2c5
100
AcDbEntity
  8
Layer_1
 62
7
100
AcDbLine
 10
439.155411
 20
296.841783
 30
0.0
 11
439.453071
 21
300.612230
 31
0.0
  0
LINE
  5
2c6
100
AcDbEntity
  8
Layer_1
 62
7
100
AcDbLine
 10
439.453071
 20
300.612230
 30
0.0
 11
439.899574
 21
304.382676
 31
0.0
  0
LINE
  5
2c7
100
AcDbEntity
  8
Layer_1
 62
7
100
AcDbLine
 10
439.899574
 20
304.382676
 30
0.0
 11
440.445308
 21
308.103511
 31
0.0
  0
LINE
  5
2c8
100
AcDbEntity
  8
Layer_1
 62
7
100
AcDbLine
 10
440.445308
 20
308.103511
 30
0.0
 11
441.139856
 21
311.824346
 31
0.0
  0
LINE
  5
2c9
100
AcDbEntity
  8
Layer_1
 62
7
100
AcDbLine
 10
441.139856
 20
311.824346
 30
0.0
 11
441.933635
 21
315.495572
 31
0.0
  0
LINE
  5
2ca
100
AcDbEntity
  8
Layer_1
 62
7
100
AcDbLine
 10
441.933635
 20
315.495572
 30
0.0
 11
442.826642
 21
319.166795
 31
0.0
  0
LINE
  5
2cb
100
AcDbEntity
  8
Layer_1
 62
7
100
AcDbLine
 10
442.826642
 20
319.166795
 30
0.0
 11
443.818851
 21
322.838018
 31
0.0
  0
LINE
  5
2cc
100
AcDbEntity
  8
Layer_1
 62
7
100
AcDbLine
 10
443.818851
 20
322.838018
 30
0.0
 11
444.860703
 21
326.459632
 31
0.0
  0
LINE
  5
2cd
100
AcDbEntity
  8
Layer_1
 62
7
100
AcDbLine
 10
444.860703
 20
326.459632
 30
0.0
 11
445.952141
 21
330.081246
 31
0.0
  0
LINE
  5
2ce
100
AcDbEntity
  8
Layer_1
 62
7
100
AcDbLine
 10
445.952141
 20
330.081246
 30
0.0
 11
447.142808
 21
333.653248
 31
0.0
  0
LINE
  5
2cf
100
AcDbEntity
  8
Layer_1
 62
7
100
AcDbLine
 10
447.142808
 20
333.653248
 30
0.0
 11
448.432676
 21
337.225250
 31
0.0
  0
LINE
  5
2d0
100
AcDbEntity
  8
Layer_1
 62
7
100
AcDbLine
 10
448.432676
 20
337.225250
 30
0.0
 11
449.821802
 21
340.698031
 31
0.0
  0
LINE
  5
2d1
100
AcDbEntity
  8
Layer_1
 62
7
100
AcDbLine
 10
449.821802
 20
340.698031
 30
0.0
 11
451.359744
 21
344.170810
 31
0.0
  0
LINE
  5
2d2
100
AcDbEntity
  8
Layer_1
 62
7
100
AcDbLine
 10
451.359744
 20
344.170810
 30
0.0
 11
453.046530
 21
347.544367
 31
0.0
  0
LINE
  5
2d3
100
AcDbEntity
  8
Layer_1
 62
7
100
AcDbLine
 10
453.046530
 20
347.544367
 30
0.0
 11
453.989152
 21
349.181535
 31
0.0
  0
LINE
  5
2d4
100
AcDbEntity
  8
Layer_1
 62
7
100
AcDbLine
 10
453.989152
 20
349.181535
 30
0.0
 11
454.931746
 21
350.818702
 31
0.0
  0
LINE
  5
2d5
100
AcDbEntity
  8
Layer_1
 62
7
100
AcDbLine
 10
454.931746
 20
350.818702
 30
0.0
 11
455.973570
 21
352.406259
 31
0.0
  0
LINE
  5
2d6
100
AcDbEntity
  8
Layer_1
 62
7
100
AcDbLine
 10
455.973570
 20
352.406259
 30
0.0
 11
457.065036
 21
353.944204
 31
0.0
  0
LINE
  5
2d7
100
AcDbEntity
  8
Layer_1
 62
7
100
AcDbLine
 10
457.065036
 20
353.944204
 30
0.0
 11
458.255703
 21
355.382927
 31
0.0
  0
LINE
  5
2d8
100
AcDbEntity
  8
Layer_1
 62
7
100
AcDbLine
 10
458.255703
 20
355.382927
 30
0.0
 11
459.545572
 21
356.821650
 31
0.0
  0
LINE
  5
2d9
100
AcDbEntity
  8
Layer_1
 62
7
100
AcDbLine
 10
459.545572
 20
356.821650
 30
0.0
 11
460.934698
 21
358.061929
 31
0.0
  0
LINE
  5
2da
100
AcDbEntity
  8
Layer_1
 62
7
100
AcDbLine
 10
460.934698
 20
358.061929
 30
0.0
 11
461.678861
 21
358.657263
 31
0.0
  0
LINE
  5
2db
100
AcDbEntity
  8
Layer_1
 62
7
100
AcDbLine
 10
461.678861
 20
358.657263
 30
0.0
 11
462.472640
 21
359.153374
 31
0.0
  0
LINE
  5
2dc
100
AcDbEntity
  8
Layer_1
 62
7
100
AcDbLine
 10
462.472640
 20
359.153374
 30
0.0
 11
463.316033
 21
359.599874
 31
0.0
  0
LINE
  5
2dd
100
AcDbEntity
  8
Layer_1
 62
7
100
AcDbLine
 10
463.316033
 20
359.599874
 30
0.0
 11
464.209040
 21
359.947152
 31
0.0
  0
LINE
  5
2de
100
AcDbEntity
  8
Layer_1
 62
7
100
AcDbLine
 10
464.209040
 20
359.947152
 30
0.0
 11
465.102020
 21
360.145597
 31
0.0
  0
LINE
  5
2df
100
AcDbEntity
  8
Layer_1
 62
7
100
AcDbLine
 10
465.102020
 20
360.145597
 30
0.0
 11
466.044642
 21
360.244819
 31
0.0
  0
LINE
  5
2e0
100
AcDbEntity
  8
Layer_1
 62
7
100
AcDbLine
 10
459.249022
 20
80.834398
 30
0.0
 11
477.158647
 21
80.834398
 31
0.0
  0
LINE
  5
2e1
100
AcDbEntity
  8
Layer_1
 62
7
100
AcDbLine
 10
456.718871
 20
49.678602
 30
0.0
 11
456.718871
 21
78.304231
 31
0.0
  0
LINE
  5
2e2
100
AcDbEntity
  8
Layer_1
 62
7
100
AcDbLine
 10
468.228656
 20
117.794698
 30
0.0
 11
468.228656
 21
116.901699
 31
0.0
  0
SPLINE
  5
2e3
100
AcDbEntity
  8
Layer_1
 62
7
100
AcDbSpline
 70
8
 71
3
 72
8
 73
4
 74
0
 40
0
 40
0
 40
0
 40
0
 40
1
 40
1
 40
1
 40
1
 10
456.669257
 20
49.653797
 30
0.0
 10
456.669257
 20
48.242712
 30
0.0
 10
457.813188
 20
47.098823
 30
0.0
 10
459.224215
 20
47.098823
 30
0.0
  0
LINE
  5
2e4
100
AcDbEntity
  8
Layer_1
 62
7
100
AcDbLine
 10
477.158647
 20
47.098823
 30
0.0
 11
459.249022
 21
47.098823
 31
0.0
  0
SPLINE
  5
2e5
100
AcDbEntity
  8
Layer_1
 62
7
100
AcDbSpline
 70
8
 71
3
 72
8
 73
4
 74
0
 40
0
 40
0
 40
0
 40
0
 40
1
 40
1
 40
1
 40
1
 10
459.224215
 20
80.834398
 30
0.0
 10
457.813188
 20
80.834398
 30
0.0
 10
456.669257
 20
79.690512
 30
0.0
 10
456.669257
 20
78.279426
 30
0.0
  0
SPLINE
  5
2e6
100
AcDbEntity
  8
Layer_1
 62
7
100
AcDbSpline
 70
8
 71
3
 72
8
 73
4
 74
0
 40
0
 40
0
 40
0
 40
0
 40
1
 40
1
 40
1
 40
1
 10
479.688826
 20
78.279426
 30
0.0
 10
479.688826
 20
79.690512
 30
0.0
 10
478.544894
 20
80.834398
 30
0.0
 10
477.133840
 20
80.834398
 30
0.0
  0
SPLINE
  5
2e7
100
AcDbEntity
  8
Layer_1
 62
7
100
AcDbSpline
 70
8
 71
3
 72
8
 73
4
 74
0
 40
0
 40
0
 40
0
 40
0
 40
1
 40
1
 40
1
 40
1
 10
477.133840
 20
47.098823
 30
0.0
 10
478.544894
 20
47.098823
 30
0.0
 10
479.688826
 20
48.242712
 30
0.0
 10
479.688826
 20
49.653797
 30
0.0
  0
LINE
  5
2e8
100
AcDbEntity
  8
Layer_1
 62
7
100
AcDbLine
 10
479.688826
 20
78.304231
 30
0.0
 11
479.688826
 21
49.678602
 31
0.0
  0
LINE
  5
2e9
100
AcDbEntity
  8
Layer_1
 62
3
100
AcDbLine
 10
470.609991
 20
96.263465
 30
0.0
 11
468.823976
 21
96.858798
 31
0.0
  0
LINE
  5
2ea
100
AcDbEntity
  8
Layer_1
 62
3
100
AcDbLine
 10
468.823976
 20
96.858798
 30
0.0
 11
468.228656
 21
97.454132
 31
0.0
  0
LINE
  5
2eb
100
AcDbEntity
  8
Layer_1
 62
3
100
AcDbLine
 10
468.228656
 20
97.454132
 30
0.0
 11
467.583694
 21
98.694408
 31
0.0
  0
LINE
  5
2ec
100
AcDbEntity
  8
Layer_1
 62
3
100
AcDbLine
 10
467.583694
 20
98.694408
 30
0.0
 11
467.583694
 21
100.480410
 31
0.0
  0
LINE
  5
2ed
100
AcDbEntity
  8
Layer_1
 62
3
100
AcDbLine
 10
467.583694
 20
100.480410
 30
0.0
 11
468.228656
 21
101.720689
 31
0.0
  0
LINE
  5
2ee
100
AcDbEntity
  8
Layer_1
 62
3
100
AcDbLine
 10
468.228656
 20
101.720689
 30
0.0
 11
468.823976
 21
102.316022
 31
0.0
  0
LINE
  5
2ef
100
AcDbEntity
  8
Layer_1
 62
3
100
AcDbLine
 10
468.823976
 20
102.316022
 30
0.0
 11
470.609991
 21
102.911356
 31
0.0
  0
LINE
  5
2f0
100
AcDbEntity
  8
Layer_1
 62
3
100
AcDbLine
 10
470.609991
 20
102.911356
 30
0.0
 11
476.067209
 21
102.911356
 31
0.0
  0
LINE
  5
2f1
100
AcDbEntity
  8
Layer_1
 62
3
100
AcDbLine
 10
476.067209
 20
102.911356
 30
0.0
 11
476.067209
 21
90.210904
 31
0.0
  0
LINE
  5
2f2
100
AcDbEntity
  8
Layer_1
 62
3
100
AcDbLine
 10
476.067209
 20
90.210904
 30
0.0
 11
470.609991
 21
90.210904
 31
0.0
  0
LINE
  5
2f3
100
AcDbEntity
  8
Layer_1
 62
3
100
AcDbLine
 10
470.609991
 20
90.210904
 30
0.0
 11
468.823976
 21
90.806238
 31
0.0
  0
LINE
  5
2f4
100
AcDbEntity
  8
Layer_1
 62
3
100
AcDbLine
 10
468.823976
 20
90.806238
 30
0.0
 11
468.228656
 21
91.401572
 31
0.0
  0
LINE
  5
2f5
100
AcDbEntity
  8
Layer_1
 62
3
100
AcDbLine
 10
468.228656
 20
91.401572
 30
0.0
 11
467.583694
 21
92.641851
 31
0.0
  0
LINE
  5
2f6
100
AcDbEntity
  8
Layer_1
 62
3
100
AcDbLine
 10
467.583694
 20
92.641851
 30
0.0
 11
467.583694
 21
93.832518
 31
0.0
  0
LINE
  5
2f7
100
AcDbEntity
  8
Layer_1
 62
3
100
AcDbLine
 10
467.583694
 20
93.832518
 30
0.0
 11
468.228656
 21
95.072797
 31
0.0
  0
LINE
  5
2f8
100
AcDbEntity
  8
Layer_1
 62
3
100
AcDbLine
 10
468.228656
 20
95.072797
 30
0.0
 11
468.823976
 21
95.668131
 31
0.0
  0
LINE
  5
2f9
100
AcDbEntity
  8
Layer_1
 62
3
100
AcDbLine
 10
468.823976
 20
95.668131
 30
0.0
 11
470.609991
 21
96.263465
 31
0.0
  0
LINE
  5
2fa
100
AcDbEntity
  8
Layer_1
 62
3
100
AcDbLine
 10
470.609991
 20
96.263465
 30
0.0
 11
476.067209
 21
96.263465
 31
0.0
  0
LINE
  5
2fb
100
AcDbEntity
  8
Layer_1
 62
3
100
AcDbLine
 10
463.366757
 20
92.641851
 30
0.0
 11
462.176090
 21
92.046517
 31
0.0
  0
LINE
  5
2fc
100
AcDbEntity
  8
Layer_1
 62
3
100
AcDbLine
 10
462.176090
 20
92.046517
 30
0.0
 11
460.340488
 21
90.210904
 31
0.0
  0
LINE
  5
2fd
100
AcDbEntity
  8
Layer_1
 62
3
100
AcDbLine
 10
460.340488
 20
90.210904
 30
0.0
 11
460.340488
 21
102.911356
 31
0.0
  0
LINE
  5
2fe
100
AcDbEntity
  8
Layer_1
 62
7
100
AcDbLine
 10
468.179041
 20
118.191587
 30
0.0
 11
468.228656
 21
118.191587
 31
0.0
  0
LINE
  5
2ff
100
AcDbEntity
  8
Layer_1
 62
7
100
AcDbLine
 10
468.228656
 20
118.191587
 30
0.0
 11
470.113872
 21
117.943534
 31
0.0
  0
LINE
  5
300
100
AcDbEntity
  8
Layer_1
 62
7
100
AcDbLine
 10
470.113872
 20
117.943534
 30
0.0
 11
471.999089
 21
117.645865
 31
0.0
  0
LINE
  5
301
100
AcDbEntity
  8
Layer_1
 62
7
100
AcDbLine
 10
471.999089
 20
117.645865
 30
0.0
 11
473.834718
 21
117.248976
 31
0.0
  0
LINE
  5
302
100
AcDbEntity
  8
Layer_1
 62
7
100
AcDbLine
 10
473.834718
 20
117.248976
 30
0.0
 11
475.670320
 21
116.752864
 31
0.0
  0
LINE
  5
303
100
AcDbEntity
  8
Layer_1
 62
7
100
AcDbLine
 10
475.670320
 20
116.752864
 30
0.0
 11
477.456307
 21
116.157533
 31
0.0
  0
LINE
  5
304
100
AcDbEntity
  8
Layer_1
 62
7
100
AcDbLine
 10
477.456307
 20
116.157533
 30
0.0
 11
479.192707
 21
115.462975
 31
0.0
  0
LINE
  5
305
100
AcDbEntity
  8
Layer_1
 62
7
100
AcDbLine
 10
479.192707
 20
115.462975
 30
0.0
 11
480.929108
 21
114.669197
 31
0.0
  0
LINE
  5
306
100
AcDbEntity
  8
Layer_1
 62
7
100
AcDbLine
 10
480.929108
 20
114.669197
 30
0.0
 11
482.566279
 21
113.726586
 31
0.0
  0
LINE
  5
307
100
AcDbEntity
  8
Layer_1
 62
7
100
AcDbLine
 10
482.566279
 20
113.726586
 30
0.0
 11
484.153807
 21
112.684751
 31
0.0
  0
LINE
  5
308
100
AcDbEntity
  8
Layer_1
 62
7
100
AcDbLine
 10
484.153807
 20
112.684751
 30
0.0
 11
485.642163
 21
111.543696
 31
0.0
  0
LINE
  5
309
100
AcDbEntity
  8
Layer_1
 62
7
100
AcDbLine
 10
485.642163
 20
111.543696
 30
0.0
 11
487.031261
 21
110.253805
 31
0.0
  0
LINE
  5
30a
100
AcDbEntity
  8
Layer_1
 62
7
100
AcDbLine
 10
487.031261
 20
110.253805
 30
0.0
 11
488.370772
 21
108.914305
 31
0.0
  0
LINE
  5
30b
100
AcDbEntity
  8
Layer_1
 62
7
100
AcDbLine
 10
488.370772
 20
108.914305
 30
0.0
 11
489.511825
 21
107.425969
 31
0.0
  0
LINE
  5
30c
100
AcDbEntity
  8
Layer_1
 62
7
100
AcDbLine
 10
489.511825
 20
107.425969
 30
0.0
 11
490.553648
 21
105.838413
 31
0.0
  0
LINE
  5
30d
100
AcDbEntity
  8
Layer_1
 62
7
100
AcDbLine
 10
490.553648
 20
105.838413
 30
0.0
 11
491.496270
 21
104.201247
 31
0.0
  0
LINE
  5
30e
100
AcDbEntity
  8
Layer_1
 62
7
100
AcDbLine
 10
491.496270
 20
104.201247
 30
0.0
 11
492.339663
 21
102.464855
 31
0.0
  0
LINE
  5
30f
100
AcDbEntity
  8
Layer_1
 62
7
100
AcDbLine
 10
492.339663
 20
102.464855
 30
0.0
 11
492.984597
 21
100.728466
 31
0.0
  0
LINE
  5
310
100
AcDbEntity
  8
Layer_1
 62
7
100
AcDbLine
 10
492.984597
 20
100.728466
 30
0.0
 11
493.579945
 21
98.892853
 31
0.0
  0
LINE
  5
311
100
AcDbEntity
  8
Layer_1
 62
7
100
AcDbLine
 10
493.579945
 20
98.892853
 30
0.0
 11
494.076064
 21
97.057243
 31
0.0
  0
LINE
  5
312
100
AcDbEntity
  8
Layer_1
 62
7
100
AcDbLine
 10
494.076064
 20
97.057243
 30
0.0
 11
494.423338
 21
95.221630
 31
0.0
  0
LINE
  5
313
100
AcDbEntity
  8
Layer_1
 62
7
100
AcDbLine
 10
494.423338
 20
95.221630
 30
0.0
 11
494.720998
 21
93.386017
 31
0.0
  0
LINE
  5
314
100
AcDbEntity
  8
Layer_1
 62
7
100
AcDbLine
 10
494.720998
 20
93.386017
 30
0.0
 11
494.919428
 21
91.500795
 31
0.0
  0
LINE
  5
315
100
AcDbEntity
  8
Layer_1
 62
7
100
AcDbLine
 10
494.919428
 20
91.500795
 30
0.0
 11
495.068272
 21
89.615571
 31
0.0
  0
LINE
  5
316
100
AcDbEntity
  8
Layer_1
 62
7
100
AcDbLine
 10
495.068272
 20
89.615571
 30
0.0
 11
495.117887
 21
87.730349
 31
0.0
  0
LINE
  5
317
100
AcDbEntity
  8
Layer_1
 62
7
100
AcDbLine
 10
495.117887
 20
87.730349
 30
0.0
 11
495.117887
 21
85.845124
 31
0.0
  0
LINE
  5
318
100
AcDbEntity
  8
Layer_1
 62
7
100
AcDbLine
 10
495.117887
 20
85.845124
 30
0.0
 11
495.068272
 21
83.910290
 31
0.0
  0
LINE
  5
319
100
AcDbEntity
  8
Layer_1
 62
7
100
AcDbLine
 10
495.068272
 20
83.910290
 30
0.0
 11
494.820227
 21
80.189455
 31
0.0
  0
LINE
  5
31a
100
AcDbEntity
  8
Layer_1
 62
7
100
AcDbLine
 10
494.820227
 20
80.189455
 30
0.0
 11
494.373723
 21
76.419009
 31
0.0
  0
LINE
  5
31b
100
AcDbEntity
  8
Layer_1
 62
7
100
AcDbLine
 10
494.373723
 20
76.419009
 30
0.0
 11
493.778376
 21
72.698174
 31
0.0
  0
LINE
  5
31c
100
AcDbEntity
  8
Layer_1
 62
7
100
AcDbLine
 10
493.778376
 20
72.698174
 30
0.0
 11
493.083827
 21
68.977336
 31
0.0
  0
LINE
  5
31d
100
AcDbEntity
  8
Layer_1
 62
7
100
AcDbLine
 10
493.083827
 20
68.977336
 30
0.0
 11
492.290048
 21
65.306113
 31
0.0
  0
LINE
  5
31e
100
AcDbEntity
  8
Layer_1
 62
7
100
AcDbLine
 10
492.290048
 20
65.306113
 30
0.0
 11
491.397041
 21
61.634887
 31
0.0
  0
LINE
  5
31f
100
AcDbEntity
  8
Layer_1
 62
7
100
AcDbLine
 10
491.397041
 20
61.634887
 30
0.0
 11
490.454447
 21
57.963664
 31
0.0
  0
LINE
  5
320
100
AcDbEntity
  8
Layer_1
 62
7
100
AcDbLine
 10
490.454447
 20
57.963664
 30
0.0
 11
489.362981
 21
54.342051
 31
0.0
  0
LINE
  5
321
100
AcDbEntity
  8
Layer_1
 62
7
100
AcDbLine
 10
489.362981
 20
54.342051
 30
0.0
 11
488.271543
 21
50.720437
 31
0.0
  0
LINE
  5
322
100
AcDbEntity
  8
Layer_1
 62
7
100
AcDbLine
 10
488.271543
 20
50.720437
 30
0.0
 11
487.080875
 21
47.148434
 31
0.0
  0
LINE
  5
323
100
AcDbEntity
  8
Layer_1
 62
7
100
AcDbLine
 10
487.080875
 20
47.148434
 30
0.0
 11
485.840593
 21
43.576432
 31
0.0
  0
LINE
  5
324
100
AcDbEntity
  8
Layer_1
 62
7
100
AcDbLine
 10
485.840593
 20
43.576432
 30
0.0
 11
484.451495
 21
40.103654
 31
0.0
  0
LINE
  5
325
100
AcDbEntity
  8
Layer_1
 62
7
100
AcDbLine
 10
484.451495
 20
40.103654
 30
0.0
 11
482.913554
 21
36.630873
 31
0.0
  0
LINE
  5
326
100
AcDbEntity
  8
Layer_1
 62
7
100
AcDbLine
 10
482.913554
 20
36.630873
 30
0.0
 11
481.177153
 21
33.257315
 31
0.0
  0
LINE
  5
327
100
AcDbEntity
  8
Layer_1
 62
7
100
AcDbLine
 10
481.177153
 20
33.257315
 30
0.0
 11
480.234531
 21
31.620150
 31
0.0
  0
LINE
  5
328
100
AcDbEntity
  8
Layer_1
 62
7
100
AcDbLine
 10
480.234531
 20
31.620150
 30
0.0
 11
479.291937
 21
30.032590
 31
0.0
  0
LINE
  5
329
100
AcDbEntity
  8
Layer_1
 62
7
100
AcDbLine
 10
479.291937
 20
30.032590
 30
0.0
 11
478.250085
 21
28.445034
 31
0.0
  0
LINE
  5
32a
100
AcDbEntity
  8
Layer_1
 62
7
100
AcDbLine
 10
478.250085
 20
28.445034
 30
0.0
 11
477.158647
 21
26.907089
 31
0.0
  0
LINE
  5
32b
100
AcDbEntity
  8
Layer_1
 62
7
100
AcDbLine
 10
477.158647
 20
26.907089
 30
0.0
 11
475.967980
 21
25.418756
 31
0.0
  0
LINE
  5
32c
100
AcDbEntity
  8
Layer_1
 62
7
100
AcDbLine
 10
475.967980
 20
25.418756
 30
0.0
 11
474.727698
 21
24.029645
 31
0.0
  0
LINE
  5
32d
100
AcDbEntity
  8
Layer_1
 62
7
100
AcDbLine
 10
474.727698
 20
24.029645
 30
0.0
 11
473.338600
 21
22.739753
 31
0.0
  0
LINE
  5
32e
100
AcDbEntity
  8
Layer_1
 62
7
100
AcDbLine
 10
473.338600
 20
22.739753
 30
0.0
 11
472.594436
 21
22.144420
 31
0.0
  0
LINE
  5
32f
100
AcDbEntity
  8
Layer_1
 62
7
100
AcDbLine
 10
472.594436
 20
22.144420
 30
0.0
 11
471.800658
 21
21.648310
 31
0.0
  0
LINE
  5
330
100
AcDbEntity
  8
Layer_1
 62
7
100
AcDbLine
 10
471.800658
 20
21.648310
 30
0.0
 11
470.957265
 21
21.201809
 31
0.0
  0
LINE
  5
331
100
AcDbEntity
  8
Layer_1
 62
7
100
AcDbLine
 10
470.957265
 20
21.201809
 30
0.0
 11
470.064258
 21
20.854532
 31
0.0
  0
LINE
  5
332
100
AcDbEntity
  8
Layer_1
 62
7
100
AcDbLine
 10
470.064258
 20
20.854532
 30
0.0
 11
469.121635
 21
20.656087
 31
0.0
  0
LINE
  5
333
100
AcDbEntity
  8
Layer_1
 62
7
100
AcDbLine
 10
469.121635
 20
20.656087
 30
0.0
 11
468.228656
 21
20.556863
 31
0.0
  0
SPLINE
  5
334
100
AcDbEntity
  8
Layer_1
 62
7
100
AcDbSpline
 70
8
 71
3
 72
8
 73
4
 74
0
 40
0
 40
0
 40
0
 40
0
 40
1
 40
1
 40
1
 40
1
 10
474.678083
 20
42.013683
 30
0.0
 10
474.678083
 20
41.314983
 30
0.0
 10
475.244503
 20
40.748597
 30
0.0
 10
475.943172
 20
40.748597
 30
0.0
  0
SPLINE
  5
335
100
AcDbEntity
  8
Layer_1
 62
7
100
AcDbSpline
 70
8
 71
3
 72
8
 73
4
 74
0
 40
0
 40
0
 40
0
 40
0
 40
1
 40
1
 40
1
 40
1
 10
475.943172
 20
40.748597
 30
0.0
 10
476.641842
 20
40.748597
 30
0.0
 10
477.208262
 20
41.314983
 30
0.0
 10
477.208262
 20
42.013683
 30
0.0
  0
SPLINE
  5
336
100
AcDbEntity
  8
Layer_1
 62
7
100
AcDbSpline
 70
8
 71
3
 72
8
 73
4
 74
0
 40
0
 40
0
 40
0
 40
0
 40
1
 40
1
 40
1
 40
1
 10
477.208262
 20
42.013683
 30
0.0
 10
477.208262
 20
42.712381
 30
0.0
 10
476.641842
 20
43.278767
 30
0.0
 10
475.943172
 20
43.278767
 30
0.0
  0
SPLINE
  5
337
100
AcDbEntity
  8
Layer_1
 62
7
100
AcDbSpline
 70
8
 71
3
 72
8
 73
4
 74
0
 40
0
 40
0
 40
0
 40
0
 40
1
 40
1
 40
1
 40
1
 10
475.943172
 20
43.278767
 30
0.0
 10
475.244503
 20
43.278767
 30
0.0
 10
474.678083
 20
42.712381
 30
0.0
 10
474.678083
 20
42.013683
 30
0.0
  0
SPLINE
  5
338
100
AcDbEntity
  8
Layer_1
 62
7
100
AcDbSpline
 70
8
 71
3
 72
8
 73
4
 74
0
 40
0
 40
0
 40
0
 40
0
 40
1
 40
1
 40
1
 40
1
 10
484.302651
 20
73.169479
 30
0.0
 10
484.302651
 20
72.470779
 30
0.0
 10
484.869071
 20
71.904393
 30
0.0
 10
485.567741
 20
71.904393
 30
0.0
  0
SPLINE
  5
339
100
AcDbEntity
  8
Layer_1
 62
7
100
AcDbSpline
 70
8
 71
3
 72
8
 73
4
 74
0
 40
0
 40
0
 40
0
 40
0
 40
1
 40
1
 40
1
 40
1
 10
485.567741
 20
71.904393
 30
0.0
 10
486.266410
 20
71.904393
 30
0.0
 10
486.832830
 20
72.470779
 30
0.0
 10
486.832830
 20
73.169479
 30
0.0
  0
SPLINE
  5
33a
100
AcDbEntity
  8
Layer_1
 62
7
100
AcDbSpline
 70
8
 71
3
 72
8
 73
4
 74
0
 40
0
 40
0
 40
0
 40
0
 40
1
 40
1
 40
1
 40
1
 10
486.832830
 20
73.169479
 30
0.0
 10
486.832830
 20
73.868177
 30
0.0
 10
486.266410
 20
74.434563
 30
0.0
 10
485.567741
 20
74.434563
 30
0.0
  0
SPLINE
  5
33b
100
AcDbEntity
  8
Layer_1
 62
7
100
AcDbSpline
 70
8
 71
3
 72
8
 73
4
 74
0
 40
0
 40
0
 40
0
 40
0
 40
1
 40
1
 40
1
 40
1
 10
485.567741
 20
74.434563
 30
0.0
 10
484.869071
 20
74.434563
 30
0.0
 10
484.302651
 20
73.868177
 30
0.0
 10
484.302651
 20
73.169479
 30
0.0
  0
LINE
  5
33c
100
AcDbEntity
  8
Layer_1
 62
7
100
AcDbLine
 10
468.179041
 20
118.191587
 30
0.0
 11
466.293797
 21
117.943534
 31
0.0
  0
LINE
  5
33d
100
AcDbEntity
  8
Layer_1
 62
7
100
AcDbLine
 10
466.293797
 20
117.943534
 30
0.0
 11
464.408581
 21
117.645865
 31
0.0
  0
LINE
  5
33e
100
AcDbEntity
  8
Layer_1
 62
7
100
AcDbLine
 10
464.408581
 20
117.645865
 30
0.0
 11
462.572979
 21
117.248976
 31
0.0
  0
LINE
  5
33f
100
AcDbEntity
  8
Layer_1
 62
7
100
AcDbLine
 10
462.572979
 20
117.248976
 30
0.0
 11
460.737377
 21
116.752864
 31
0.0
  0
LINE
  5
340
100
AcDbEntity
  8
Layer_1
 62
7
100
AcDbLine
 10
460.737377
 20
116.752864
 30
0.0
 11
458.951362
 21
116.157533
 31
0.0
  0
LINE
  5
341
100
AcDbEntity
  8
Layer_1
 62
7
100
AcDbLine
 10
458.951362
 20
116.157533
 30
0.0
 11
457.214962
 21
115.462975
 31
0.0
  0
LINE
  5
342
100
AcDbEntity
  8
Layer_1
 62
7
100
AcDbLine
 10
457.214962
 20
115.462975
 30
0.0
 11
455.478589
 21
114.669197
 31
0.0
  0
LINE
  5
343
100
AcDbEntity
  8
Layer_1
 62
7
100
AcDbLine
 10
455.478589
 20
114.669197
 30
0.0
 11
453.841418
 21
113.726586
 31
0.0
  0
LINE
  5
344
100
AcDbEntity
  8
Layer_1
 62
7
100
AcDbLine
 10
453.841418
 20
113.726586
 30
0.0
 11
452.253862
 21
112.684751
 31
0.0
  0
LINE
  5
345
100
AcDbEntity
  8
Layer_1
 62
7
100
AcDbLine
 10
452.253862
 20
112.684751
 30
0.0
 11
450.765535
 21
111.543696
 31
0.0
  0
LINE
  5
346
100
AcDbEntity
  8
Layer_1
 62
7
100
AcDbLine
 10
450.765535
 20
111.543696
 30
0.0
 11
449.376409
 21
110.253805
 31
0.0
  0
LINE
  5
347
100
AcDbEntity
  8
Layer_1
 62
7
100
AcDbLine
 10
449.376409
 20
110.253805
 30
0.0
 11
448.086512
 21
108.914305
 31
0.0
  0
LINE
  5
348
100
AcDbEntity
  8
Layer_1
 62
7
100
AcDbLine
 10
448.086512
 20
108.914305
 30
0.0
 11
446.895845
 21
107.425969
 31
0.0
  0
LINE
  5
349
100
AcDbEntity
  8
Layer_1
 62
7
100
AcDbLine
 10
446.895845
 20
107.425969
 30
0.0
 11
445.854021
 21
105.838413
 31
0.0
  0
LINE
  5
34a
100
AcDbEntity
  8
Layer_1
 62
7
100
AcDbLine
 10
445.854021
 20
105.838413
 30
0.0
 11
444.911399
 21
104.201247
 31
0.0
  0
LINE
  5
34b
100
AcDbEntity
  8
Layer_1
 62
7
100
AcDbLine
 10
444.911399
 20
104.201247
 30
0.0
 11
444.117621
 21
102.464855
 31
0.0
  0
LINE
  5
34c
100
AcDbEntity
  8
Layer_1
 62
7
100
AcDbLine
 10
444.117621
 20
102.464855
 30
0.0
 11
443.423072
 21
100.728466
 31
0.0
  0
LINE
  5
34d
100
AcDbEntity
  8
Layer_1
 62
7
100
AcDbLine
 10
443.423072
 20
100.728466
 30
0.0
 11
442.827752
 21
98.892853
 31
0.0
  0
LINE
  5
34e
100
AcDbEntity
  8
Layer_1
 62
7
100
AcDbLine
 10
442.827752
 20
98.892853
 30
0.0
 11
442.331634
 21
97.057243
 31
0.0
  0
LINE
  5
34f
100
AcDbEntity
  8
Layer_1
 62
7
100
AcDbLine
 10
442.331634
 20
97.057243
 30
0.0
 11
441.984359
 21
95.221630
 31
0.0
  0
LINE
  5
350
100
AcDbEntity
  8
Layer_1
 62
7
100
AcDbLine
 10
441.984359
 20
95.221630
 30
0.0
 11
441.686671
 21
93.386017
 31
0.0
  0
LINE
  5
351
100
AcDbEntity
  8
Layer_1
 62
7
100
AcDbLine
 10
441.686671
 20
93.386017
 30
0.0
 11
441.488241
 21
91.500795
 31
0.0
  0
LINE
  5
352
100
AcDbEntity
  8
Layer_1
 62
7
100
AcDbLine
 10
441.488241
 20
91.500795
 30
0.0
 11
441.339397
 21
89.615571
 31
0.0
  0
LINE
  5
353
100
AcDbEntity
  8
Layer_1
 62
7
100
AcDbLine
 10
441.339397
 20
89.615571
 30
0.0
 11
441.289782
 21
87.730349
 31
0.0
  0
LINE
  5
354
100
AcDbEntity
  8
Layer_1
 62
7
100
AcDbLine
 10
441.289782
 20
87.730349
 30
0.0
 11
441.289782
 21
85.845124
 31
0.0
  0
LINE
  5
355
100
AcDbEntity
  8
Layer_1
 62
7
100
AcDbLine
 10
441.289782
 20
85.845124
 30
0.0
 11
441.339397
 21
83.910290
 31
0.0
  0
LINE
  5
356
100
AcDbEntity
  8
Layer_1
 62
7
100
AcDbLine
 10
441.339397
 20
83.910290
 30
0.0
 11
441.587470
 21
80.189455
 31
0.0
  0
LINE
  5
357
100
AcDbEntity
  8
Layer_1
 62
7
100
AcDbLine
 10
441.587470
 20
80.189455
 30
0.0
 11
442.033974
 21
76.419009
 31
0.0
  0
LINE
  5
358
100
AcDbEntity
  8
Layer_1
 62
7
100
AcDbLine
 10
442.033974
 20
76.419009
 30
0.0
 11
442.629294
 21
72.698174
 31
0.0
  0
LINE
  5
359
100
AcDbEntity
  8
Layer_1
 62
7
100
AcDbLine
 10
442.629294
 20
72.698174
 30
0.0
 11
443.323842
 21
68.977336
 31
0.0
  0
LINE
  5
35a
100
AcDbEntity
  8
Layer_1
 62
7
100
AcDbLine
 10
443.323842
 20
68.977336
 30
0.0
 11
444.117621
 21
65.306113
 31
0.0
  0
LINE
  5
35b
100
AcDbEntity
  8
Layer_1
 62
7
100
AcDbLine
 10
444.117621
 20
65.306113
 30
0.0
 11
445.010628
 21
61.634887
 31
0.0
  0
LINE
  5
35c
100
AcDbEntity
  8
Layer_1
 62
7
100
AcDbLine
 10
445.010628
 20
61.634887
 30
0.0
 11
445.953250
 21
57.963664
 31
0.0
  0
LINE
  5
35d
100
AcDbEntity
  8
Layer_1
 62
7
100
AcDbLine
 10
445.953250
 20
57.963664
 30
0.0
 11
447.044689
 21
54.342051
 31
0.0
  0
LINE
  5
35e
100
AcDbEntity
  8
Layer_1
 62
7
100
AcDbLine
 10
447.044689
 20
54.342051
 30
0.0
 11
448.136127
 21
50.720437
 31
0.0
  0
LINE
  5
35f
100
AcDbEntity
  8
Layer_1
 62
7
100
AcDbLine
 10
448.136127
 20
50.720437
 30
0.0
 11
449.326794
 21
47.148434
 31
0.0
  0
LINE
  5
360
100
AcDbEntity
  8
Layer_1
 62
7
100
AcDbLine
 10
449.326794
 20
47.148434
 30
0.0
 11
450.567076
 21
43.576432
 31
0.0
  0
LINE
  5
361
100
AcDbEntity
  8
Layer_1
 62
7
100
AcDbLine
 10
450.567076
 20
43.576432
 30
0.0
 11
451.956202
 21
40.103654
 31
0.0
  0
LINE
  5
362
100
AcDbEntity
  8
Layer_1
 62
7
100
AcDbLine
 10
451.956202
 20
40.103654
 30
0.0
 11
453.494144
 21
36.630873
 31
0.0
  0
LINE
  5
363
100
AcDbEntity
  8
Layer_1
 62
7
100
AcDbLine
 10
453.494144
 20
36.630873
 30
0.0
 11
455.230516
 21
33.257315
 31
0.0
  0
LINE
  5
364
100
AcDbEntity
  8
Layer_1
 62
7
100
AcDbLine
 10
455.230516
 20
33.257315
 30
0.0
 11
456.173138
 21
31.620150
 31
0.0
  0
LINE
  5
365
100
AcDbEntity
  8
Layer_1
 62
7
100
AcDbLine
 10
456.173138
 20
31.620150
 30
0.0
 11
457.115761
 21
30.032590
 31
0.0
  0
LINE
  5
366
100
AcDbEntity
  8
Layer_1
 62
7
100
AcDbLine
 10
457.115761
 20
30.032590
 30
0.0
 11
458.157584
 21
28.445034
 31
0.0
  0
LINE
  5
367
100
AcDbEntity
  8
Layer_1
 62
7
100
AcDbLine
 10
458.157584
 20
28.445034
 30
0.0
 11
459.249022
 21
26.907089
 31
0.0
  0
LINE
  5
368
100
AcDbEntity
  8
Layer_1
 62
7
100
AcDbLine
 10
459.249022
 20
26.907089
 30
0.0
 11
460.439689
 21
25.418756
 31
0.0
  0
LINE
  5
369
100
AcDbEntity
  8
Layer_1
 62
7
100
AcDbLine
 10
460.439689
 20
25.418756
 30
0.0
 11
461.679971
 21
24.029645
 31
0.0
  0
LINE
  5
36a
100
AcDbEntity
  8
Layer_1
 62
7
100
AcDbLine
 10
461.679971
 20
24.029645
 30
0.0
 11
463.069097
 21
22.739753
 31
0.0
  0
LINE
  5
36b
100
AcDbEntity
  8
Layer_1
 62
7
100
AcDbLine
 10
463.069097
 20
22.739753
 30
0.0
 11
463.813261
 21
22.144420
 31
0.0
  0
LINE
  5
36c
100
AcDbEntity
  8
Layer_1
 62
7
100
AcDbLine
 10
463.813261
 20
22.144420
 30
0.0
 11
464.656654
 21
21.648310
 31
0.0
  0
LINE
  5
36d
100
AcDbEntity
  8
Layer_1
 62
7
100
AcDbLine
 10
464.656654
 20
21.648310
 30
0.0
 11
465.450432
 21
21.201809
 31
0.0
  0
LINE
  5
36e
100
AcDbEntity
  8
Layer_1
 62
7
100
AcDbLine
 10
465.450432
 20
21.201809
 30
0.0
 11
466.343411
 21
20.854532
 31
0.0
  0
LINE
  5
36f
100
AcDbEntity
  8
Layer_1
 62
7
100
AcDbLine
 10
466.343411
 20
20.854532
 30
0.0
 11
467.286034
 21
20.656087
 31
0.0
  0
LINE
  5
370
100
AcDbEntity
  8
Layer_1
 62
7
100
AcDbLine
 10
467.286034
 20
20.656087
 30
0.0
 11
468.228656
 21
20.556863
 31
0.0
  0
SPLINE
  5
371
100
AcDbEntity
  8
Layer_1
 62
7
100
AcDbSpline
 70
8
 71
3
 72
8
 73
4
 74
0
 40
0
 40
0
 40
0
 40
0
 40
1
 40
1
 40
1
 40
1
 10
459.149821
 20
42.013683
 30
0.0
 10
459.149821
 20
41.314983
 30
0.0
 10
459.716213
 20
40.748597
 30
0.0
 10
460.414882
 20
40.748597
 30
0.0
  0
SPLINE
  5
372
100
AcDbEntity
  8
Layer_1
 62
7
100
AcDbSpline
 70
8
 71
3
 72
8
 73
4
 74
0
 40
0
 40
0
 40
0
 40
0
 40
1
 40
1
 40
1
 40
1
 10
460.414882
 20
40.748597
 30
0.0
 10
461.113551
 20
40.748597
 30
0.0
 10
461.679971
 20
41.314983
 30
0.0
 10
461.679971
 20
42.013683
 30
0.0
  0
SPLINE
  5
373
100
AcDbEntity
  8
Layer_1
 62
7
100
AcDbSpline
 70
8
 71
3
 72
8
 73
4
 74
0
 40
0
 40
0
 40
0
 40
0
 40
1
 40
1
 40
1
 40
1
 10
461.679971
 20
42.013683
 30
0.0
 10
461.679971
 20
42.712381
 30
0.0
 10
461.113551
 20
43.278767
 30
0.0
 10
460.414882
 20
43.278767
 30
0.0
  0
SPLINE
  5
374
100
AcDbEntity
  8
Layer_1
 62
7
100
AcDbSpline
 70
8
 71
3
 72
8
 73
4
 74
0
 40
0
 40
0
 40
0
 40
0
 40
1
 40
1
 40
1
 40
1
 10
460.414882
 20
43.278767
 30
0.0
 10
459.716213
 20
43.278767
 30
0.0
 10
459.149821
 20
42.712381
 30
0.0
 10
459.149821
 20
42.013683
 30
0.0
  0
SPLINE
  5
375
100
AcDbEntity
  8
Layer_1
 62
7
100
AcDbSpline
 70
8
 71
3
 72
8
 73
4
 74
0
 40
0
 40
0
 40
0
 40
0
 40
1
 40
1
 40
1
 40
1
 10
449.525253
 20
73.169479
 30
0.0
 10
449.525253
 20
72.470779
 30
0.0
 10
450.091644
 20
71.904393
 30
0.0
 10
450.790342
 20
71.904393
 30
0.0
  0
SPLINE
  5
376
100
AcDbEntity
  8
Layer_1
 62
7
100
AcDbSpline
 70
8
 71
3
 72
8
 73
4
 74
0
 40
0
 40
0
 40
0
 40
0
 40
1
 40
1
 40
1
 40
1
 10
450.790342
 20
71.904393
 30
0.0
 10
451.489011
 20
71.904393
 30
0.0
 10
452.055403
 20
72.470779
 30
0.0
 10
452.055403
 20
73.169479
 30
0.0
  0
SPLINE
  5
377
100
AcDbEntity
  8
Layer_1
 62
7
100
AcDbSpline
 70
8
 71
3
 72
8
 73
4
 74
0
 40
0
 40
0
 40
0
 40
0
 40
1
 40
1
 40
1
 40
1
 10
452.055403
 20
73.169479
 30
0.0
 10
452.055403
 20
73.868177
 30
0.0
 10
451.489011
 20
74.434563
 30
0.0
 10
450.790342
 20
74.434563
 30
0.0
  0
SPLINE
  5
378
100
AcDbEntity
  8
Layer_1
 62
7
100
AcDbSpline
 70
8
 71
3
 72
8
 73
4
 74
0
 40
0
 40
0
 40
0
 40
0
 40
1
 40
1
 40
1
 40
1
 10
450.790342
 20
74.434563
 30
0.0
 10
450.091644
 20
74.434563
 30
0.0
 10
449.525253
 20
73.868177
 30
0.0
 10
449.525253
 20
73.169479
 30
0.0
  0
LINE
  5
379
100
AcDbEntity
  8
Layer_1
 62
7
100
AcDbLine
 10
416.781861
 20
3.356575
 30
0.0
 11
416.781861
 21
4.150353
 31
0.0
  0
LINE
  5
37a
100
AcDbEntity
  8
Layer_1
 62
7
100
AcDbLine
 10
407.802247
 20
73.258675
 30
0.0
 11
425.711867
 21
73.258675
 31
0.0
  0
LINE
  5
37b
100
AcDbEntity
  8
Layer_1
 62
7
100
AcDbLine
 10
425.711867
 20
39.572714
 30
0.0
 11
407.802247
 21
39.572714
 31
0.0
  0
SPLINE
  5
37c
100
AcDbEntity
  8
Layer_1
 62
7
100
AcDbSpline
 70
8
 71
3
 72
8
 73
4
 74
0
 40
0
 40
0
 40
0
 40
0
 40
1
 40
1
 40
1
 40
1
 10
425.736674
 20
39.523099
 30
0.0
 10
427.147760
 20
39.523099
 30
0.0
 10
428.291646
 20
40.667003
 30
0.0
 10
428.291646
 20
42.078086
 30
0.0
  0
LINE
  5
37d
100
AcDbEntity
  8
Layer_1
 62
7
100
AcDbLine
 10
428.242037
 20
70.728524
 30
0.0
 11
428.242037
 21
42.102893
 31
0.0
  0
SPLINE
  5
37e
100
AcDbEntity
  8
Layer_1
 62
7
100
AcDbSpline
 70
8
 71
3
 72
8
 73
4
 74
0
 40
0
 40
0
 40
0
 40
0
 40
1
 40
1
 40
1
 40
1
 10
428.291646
 20
70.703717
 30
0.0
 10
428.291646
 20
72.114772
 30
0.0
 10
427.147760
 20
73.258675
 30
0.0
 10
425.736674
 20
73.258675
 30
0.0
  0
LINE
  5
37f
100
AcDbEntity
  8
Layer_1
 62
7
100
AcDbLine
 10
405.222468
 20
42.102893
 30
0.0
 11
405.222468
 21
70.728524
 31
0.0
  0
SPLINE
  5
380
100
AcDbEntity
  8
Layer_1
 62
7
100
AcDbSpline
 70
8
 71
3
 72
8
 73
4
 74
0
 40
0
 40
0
 40
0
 40
0
 40
1
 40
1
 40
1
 40
1
 10
407.827052
 20
73.258675
 30
0.0
 10
406.415966
 20
73.258675
 30
0.0
 10
405.272077
 20
72.114772
 30
0.0
 10
405.272077
 20
70.703717
 30
0.0
  0
SPLINE
  5
381
100
AcDbEntity
  8
Layer_1
 62
7
100
AcDbSpline
 70
8
 71
3
 72
8
 73
4
 74
0
 40
0
 40
0
 40
0
 40
0
 40
1
 40
1
 40
1
 40
1
 10
405.272077
 20
42.078086
 30
0.0
 10
405.272077
 20
40.667003
 30
0.0
 10
406.415966
 20
39.523099
 30
0.0
 10
407.827052
 20
39.523099
 30
0.0
  0
SPLINE
  5
382
100
AcDbEntity
  8
Layer_1
 62
7
100
AcDbSpline
 70
8
 71
3
 72
8
 73
4
 74
0
 40
0
 40
0
 40
0
 40
0
 40
1
 40
1
 40
1
 40
1
 10
409.017719
 20
77.078750
 30
0.0
 10
409.716417
 20
77.078750
 30
0.0
 10
410.282803
 20
77.645142
 30
0.0
 10
410.282803
 20
78.343840
 30
0.0
  0
SPLINE
  5
383
100
AcDbEntity
  8
Layer_1
 62
7
100
AcDbSpline
 70
8
 71
3
 72
8
 73
4
 74
0
 40
0
 40
0
 40
0
 40
0
 40
1
 40
1
 40
1
 40
1
 10
410.282803
 20
78.343840
 30
0.0
 10
410.282803
 20
79.042509
 30
0.0
 10
409.716417
 20
79.608901
 30
0.0
 10
409.017719
 20
79.608901
 30
0.0
  0
SPLINE
  5
384
100
AcDbEntity
  8
Layer_1
 62
7
100
AcDbSpline
 70
8
 71
3
 72
8
 73
4
 74
0
 40
0
 40
0
 40
0
 40
0
 40
1
 40
1
 40
1
 40
1
 10
409.017719
 20
79.608901
 30
0.0
 10
408.319021
 20
79.608901
 30
0.0
 10
407.752635
 20
79.042509
 30
0.0
 10
407.752635
 20
78.343840
 30
0.0
  0
SPLINE
  5
385
100
AcDbEntity
  8
Layer_1
 62
7
100
AcDbSpline
 70
8
 71
3
 72
8
 73
4
 74
0
 40
0
 40
0
 40
0
 40
0
 40
1
 40
1
 40
1
 40
1
 10
407.752635
 20
78.343840
 30
0.0
 10
407.752635
 20
77.645142
 30
0.0
 10
408.319021
 20
77.078750
 30
0.0
 10
409.017719
 20
77.078750
 30
0.0
  0
SPLINE
  5
386
100
AcDbEntity
  8
Layer_1
 62
7
100
AcDbSpline
 70
8
 71
3
 72
8
 73
4
 74
0
 40
0
 40
0
 40
0
 40
0
 40
1
 40
1
 40
1
 40
1
 10
399.393159
 20
45.922940
 30
0.0
 10
400.091857
 20
45.922940
 30
0.0
 10
400.658243
 20
46.489332
 30
0.0
 10
400.658243
 20
47.188029
 30
0.0
  0
SPLINE
  5
387
100
AcDbEntity
  8
Layer_1
 62
7
100
AcDbSpline
 70
8
 71
3
 72
8
 73
4
 74
0
 40
0
 40
0
 40
0
 40
0
 40
1
 40
1
 40
1
 40
1
 10
400.658243
 20
47.188029
 30
0.0
 10
400.658243
 20
47.886727
 30
0.0
 10
400.091857
 20
48.453119
 30
0.0
 10
399.393159
 20
48.453119
 30
0.0
  0
SPLINE
  5
388
100
AcDbEntity
  8
Layer_1
 62
7
100
AcDbSpline
 70
8
 71
3
 72
8
 73
4
 74
0
 40
0
 40
0
 40
0
 40
0
 40
1
 40
1
 40
1
 40
1
 10
399.393159
 20
48.453119
 30
0.0
 10
398.694459
 20
48.453119
 30
0.0
 10
398.128073
 20
47.886727
 30
0.0
 10
398.128073
 20
47.188029
 30
0.0
  0
SPLINE
  5
389
100
AcDbEntity
  8
Layer_1
 62
7
100
AcDbSpline
 70
8
 71
3
 72
8
 73
4
 74
0
 40
0
 40
0
 40
0
 40
0
 40
1
 40
1
 40
1
 40
1
 10
398.128073
 20
47.188029
 30
0.0
 10
398.128073
 20
46.489332
 30
0.0
 10
398.694459
 20
45.922940
 30
0.0
 10
399.393159
 20
45.922940
 30
0.0
  0
SPLINE
  5
38a
100
AcDbEntity
  8
Layer_1
 62
7
100
AcDbSpline
 70
8
 71
3
 72
8
 73
4
 74
0
 40
0
 40
0
 40
0
 40
0
 40
1
 40
1
 40
1
 40
1
 10
424.546007
 20
77.078750
 30
0.0
 10
425.244704
 20
77.078750
 30
0.0
 10
425.811090
 20
77.645142
 30
0.0
 10
425.811090
 20
78.343840
 30
0.0
  0
SPLINE
  5
38b
100
AcDbEntity
  8
Layer_1
 62
7
100
AcDbSpline
 70
8
 71
3
 72
8
 73
4
 74
0
 40
0
 40
0
 40
0
 40
0
 40
1
 40
1
 40
1
 40
1
 10
425.811090
 20
78.343840
 30
0.0
 10
425.811090
 20
79.042509
 30
0.0
 10
425.244704
 20
79.608901
 30
0.0
 10
424.546007
 20
79.608901
 30
0.0
  0
SPLINE
  5
38c
100
AcDbEntity
  8
Layer_1
 62
7
100
AcDbSpline
 70
8
 71
3
 72
8
 73
4
 74
0
 40
0
 40
0
 40
0
 40
0
 40
1
 40
1
 40
1
 40
1
 10
424.546007
 20
79.608901
 30
0.0
 10
423.847309
 20
79.608901
 30
0.0
 10
423.280923
 20
79.042509
 30
0.0
 10
423.280923
 20
78.343840
 30
0.0
  0
SPLINE
  5
38d
100
AcDbEntity
  8
Layer_1
 62
7
100
AcDbSpline
 70
8
 71
3
 72
8
 73
4
 74
0
 40
0
 40
0
 40
0
 40
0
 40
1
 40
1
 40
1
 40
1
 10
423.280923
 20
78.343840
 30
0.0
 10
423.280923
 20
77.645142
 30
0.0
 10
423.847309
 20
77.078750
 30
0.0
 10
424.546007
 20
77.078750
 30
0.0
  0
SPLINE
  5
38e
100
AcDbEntity
  8
Layer_1
 62
7
100
AcDbSpline
 70
8
 71
3
 72
8
 73
4
 74
0
 40
0
 40
0
 40
0
 40
0
 40
1
 40
1
 40
1
 40
1
 10
434.170566
 20
45.922940
 30
0.0
 10
434.869267
 20
45.922940
 30
0.0
 10
435.435650
 20
46.489332
 30
0.0
 10
435.435650
 20
47.188029
 30
0.0
  0
SPLINE
  5
38f
100
AcDbEntity
  8
Layer_1
 62
7
100
AcDbSpline
 70
8
 71
3
 72
8
 73
4
 74
0
 40
0
 40
0
 40
0
 40
0
 40
1
 40
1
 40
1
 40
1
 10
435.435650
 20
47.188029
 30
0.0
 10
435.435650
 20
47.886727
 30
0.0
 10
434.869267
 20
48.453119
 30
0.0
 10
434.170566
 20
48.453119
 30
0.0
  0
SPLINE
  5
390
100
AcDbEntity
  8
Layer_1
 62
7
100
AcDbSpline
 70
8
 71
3
 72
8
 73
4
 74
0
 40
0
 40
0
 40
0
 40
0
 40
1
 40
1
 40
1
 40
1
 10
434.170566
 20
48.453119
 30
0.0
 10
433.471869
 20
48.453119
 30
0.0
 10
432.905483
 20
47.886727
 30
0.0
 10
432.905483
 20
47.188029
 30
0.0
  0
SPLINE
  5
391
100
AcDbEntity
  8
Layer_1
 62
7
100
AcDbSpline
 70
8
 71
3
 72
8
 73
4
 74
0
 40
0
 40
0
 40
0
 40
0
 40
1
 40
1
 40
1
 40
1
 10
432.905483
 20
47.188029
 30
0.0
 10
432.905483
 20
46.489332
 30
0.0
 10
433.471869
 20
45.922940
 30
0.0
 10
434.170566
 20
45.922940
 30
0.0
  0
LINE
  5
392
100
AcDbEntity
  8
Layer_1
 62
3
100
AcDbLine
 10
411.622303
 20
24.143653
 30
0.0
 11
413.457916
 21
23.548333
 31
0.0
  0
LINE
  5
393
100
AcDbEntity
  8
Layer_1
 62
3
100
AcDbLine
 10
413.457916
 20
23.548333
 30
0.0
 11
414.053249
 21
22.903371
 31
0.0
  0
LINE
  5
394
100
AcDbEntity
  8
Layer_1
 62
3
100
AcDbLine
 10
414.053249
 20
22.903371
 30
0.0
 11
414.648583
 21
21.712704
 31
0.0
  0
LINE
  5
395
100
AcDbEntity
  8
Layer_1
 62
3
100
AcDbLine
 10
414.648583
 20
21.712704
 30
0.0
 11
414.648583
 21
19.877102
 31
0.0
  0
LINE
  5
396
100
AcDbEntity
  8
Layer_1
 62
3
100
AcDbLine
 10
414.648583
 20
19.877102
 30
0.0
 11
414.053249
 21
18.686435
 31
0.0
  0
LINE
  5
397
100
AcDbEntity
  8
Layer_1
 62
3
100
AcDbLine
 10
414.053249
 20
18.686435
 30
0.0
 11
413.457916
 21
18.091087
 31
0.0
  0
LINE
  5
398
100
AcDbEntity
  8
Layer_1
 62
3
100
AcDbLine
 10
413.457916
 20
18.091087
 30
0.0
 11
411.622303
 21
17.495767
 31
0.0
  0
LINE
  5
399
100
AcDbEntity
  8
Layer_1
 62
3
100
AcDbLine
 10
411.622303
 20
17.495767
 30
0.0
 11
406.165079
 21
17.495767
 31
0.0
  0
LINE
  5
39a
100
AcDbEntity
  8
Layer_1
 62
3
100
AcDbLine
 10
406.165079
 20
17.495767
 30
0.0
 11
406.165079
 21
30.196219
 31
0.0
  0
LINE
  5
39b
100
AcDbEntity
  8
Layer_1
 62
3
100
AcDbLine
 10
406.165079
 20
30.196219
 30
0.0
 11
411.622303
 21
30.196219
 31
0.0
  0
LINE
  5
39c
100
AcDbEntity
  8
Layer_1
 62
3
100
AcDbLine
 10
411.622303
 20
30.196219
 30
0.0
 11
413.457916
 21
29.600871
 31
0.0
  0
LINE
  5
39d
100
AcDbEntity
  8
Layer_1
 62
3
100
AcDbLine
 10
413.457916
 20
29.600871
 30
0.0
 11
414.053249
 21
28.955937
 31
0.0
  0
LINE
  5
39e
100
AcDbEntity
  8
Layer_1
 62
3
100
AcDbLine
 10
414.053249
 20
28.955937
 30
0.0
 11
414.648583
 21
27.765270
 31
0.0
  0
LINE
  5
39f
100
AcDbEntity
  8
Layer_1
 62
3
100
AcDbLine
 10
414.648583
 20
27.765270
 30
0.0
 11
414.648583
 21
26.574602
 31
0.0
  0
LINE
  5
3a0
100
AcDbEntity
  8
Layer_1
 62
3
100
AcDbLine
 10
414.648583
 20
26.574602
 30
0.0
 11
414.053249
 21
25.334320
 31
0.0
  0
LINE
  5
3a1
100
AcDbEntity
  8
Layer_1
 62
3
100
AcDbLine
 10
414.053249
 20
25.334320
 30
0.0
 11
413.457916
 21
24.739001
 31
0.0
  0
LINE
  5
3a2
100
AcDbEntity
  8
Layer_1
 62
3
100
AcDbLine
 10
413.457916
 20
24.739001
 30
0.0
 11
411.622303
 21
24.143653
 31
0.0
  0
LINE
  5
3a3
100
AcDbEntity
  8
Layer_1
 62
3
100
AcDbLine
 10
411.622303
 20
24.143653
 30
0.0
 11
406.165079
 21
24.143653
 31
0.0
  0
LINE
  5
3a4
100
AcDbEntity
  8
Layer_1
 62
3
100
AcDbLine
 10
419.510476
 20
27.169922
 30
0.0
 11
419.510476
 21
27.765270
 31
0.0
  0
LINE
  5
3a5
100
AcDbEntity
  8
Layer_1
 62
3
100
AcDbLine
 10
419.510476
 20
27.765270
 30
0.0
 11
420.105810
 21
28.955937
 31
0.0
  0
LINE
  5
3a6
100
AcDbEntity
  8
Layer_1
 62
3
100
AcDbLine
 10
420.105810
 20
28.955937
 30
0.0
 11
420.701144
 21
29.600871
 31
0.0
  0
LINE
  5
3a7
100
AcDbEntity
  8
Layer_1
 62
3
100
AcDbLine
 10
420.701144
 20
29.600871
 30
0.0
 11
421.891811
 21
30.196219
 31
0.0
  0
LINE
  5
3a8
100
AcDbEntity
  8
Layer_1
 62
3
100
AcDbLine
 10
421.891811
 20
30.196219
 30
0.0
 11
424.322758
 21
30.196219
 31
0.0
  0
LINE
  5
3a9
100
AcDbEntity
  8
Layer_1
 62
3
100
AcDbLine
 10
424.322758
 20
30.196219
 30
0.0
 11
425.513422
 21
29.600871
 31
0.0
  0
LINE
  5
3aa
100
AcDbEntity
  8
Layer_1
 62
3
100
AcDbLine
 10
425.513422
 20
29.600871
 30
0.0
 11
426.158368
 21
28.955937
 31
0.0
  0
LINE
  5
3ab
100
AcDbEntity
  8
Layer_1
 62
3
100
AcDbLine
 10
426.158368
 20
28.955937
 30
0.0
 11
426.753701
 21
27.765270
 31
0.0
  0
LINE
  5
3ac
100
AcDbEntity
  8
Layer_1
 62
3
100
AcDbLine
 10
426.753701
 20
27.765270
 30
0.0
 11
426.753701
 21
26.574602
 31
0.0
  0
LINE
  5
3ad
100
AcDbEntity
  8
Layer_1
 62
3
100
AcDbLine
 10
426.753701
 20
26.574602
 30
0.0
 11
426.158368
 21
25.334320
 31
0.0
  0
LINE
  5
3ae
100
AcDbEntity
  8
Layer_1
 62
3
100
AcDbLine
 10
426.158368
 20
25.334320
 30
0.0
 11
424.918088
 21
23.548333
 31
0.0
  0
LINE
  5
3af
100
AcDbEntity
  8
Layer_1
 62
3
100
AcDbLine
 10
424.918088
 20
23.548333
 30
0.0
 11
418.865531
 21
17.495767
 31
0.0
  0
LINE
  5
3b0
100
AcDbEntity
  8
Layer_1
 62
3
100
AcDbLine
 10
418.865531
 20
17.495767
 30
0.0
 11
427.349035
 21
17.495767
 31
0.0
  0
LINE
  5
3b1
100
AcDbEntity
  8
Layer_1
 62
7
100
AcDbLine
 10
416.781861
 20
99.254926
 30
0.0
 11
417.674863
 21
99.155697
 31
0.0
  0
LINE
  5
3b2
100
AcDbEntity
  8
Layer_1
 62
7
100
AcDbLine
 10
417.674863
 20
99.155697
 30
0.0
 11
418.617474
 21
98.957267
 31
0.0
  0
LINE
  5
3b3
100
AcDbEntity
  8
Layer_1
 62
7
100
AcDbLine
 10
418.617474
 20
98.957267
 30
0.0
 11
419.460864
 21
98.609964
 31
0.0
  0
LINE
  5
3b4
100
AcDbEntity
  8
Layer_1
 62
7
100
AcDbLine
 10
419.460864
 20
98.609964
 30
0.0
 11
420.304255
 21
98.163488
 31
0.0
  0
LINE
  5
3b5
100
AcDbEntity
  8
Layer_1
 62
7
100
AcDbLine
 10
420.304255
 20
98.163488
 30
0.0
 11
421.048421
 21
97.617755
 31
0.0
  0
LINE
  5
3b6
100
AcDbEntity
  8
Layer_1
 62
7
100
AcDbLine
 10
421.048421
 20
97.617755
 30
0.0
 11
421.792587
 21
97.072022
 31
0.0
  0
LINE
  5
3b7
100
AcDbEntity
  8
Layer_1
 62
7
100
AcDbLine
 10
421.792587
 20
97.072022
 30
0.0
 11
423.181699
 21
95.782154
 31
0.0
  0
LINE
  5
3b8
100
AcDbEntity
  8
Layer_1
 62
7
100
AcDbLine
 10
423.181699
 20
95.782154
 30
0.0
 11
424.421978
 21
94.393028
 31
0.0
  0
LINE
  5
3b9
100
AcDbEntity
  8
Layer_1
 62
7
100
AcDbLine
 10
424.421978
 20
94.393028
 30
0.0
 11
425.612646
 21
92.954315
 31
0.0
  0
LINE
  5
3ba
100
AcDbEntity
  8
Layer_1
 62
7
100
AcDbLine
 10
425.612646
 20
92.954315
 30
0.0
 11
426.654480
 21
91.416373
 31
0.0
  0
LINE
  5
3bb
100
AcDbEntity
  8
Layer_1
 62
7
100
AcDbLine
 10
426.654480
 20
91.416373
 30
0.0
 11
427.696312
 21
89.878403
 31
0.0
  0
LINE
  5
3bc
100
AcDbEntity
  8
Layer_1
 62
7
100
AcDbLine
 10
427.696312
 20
89.878403
 30
0.0
 11
428.638926
 21
88.241260
 31
0.0
  0
LINE
  5
3bd
100
AcDbEntity
  8
Layer_1
 62
7
100
AcDbLine
 10
428.638926
 20
88.241260
 30
0.0
 11
429.581537
 21
86.653704
 31
0.0
  0
LINE
  5
3be
100
AcDbEntity
  8
Layer_1
 62
7
100
AcDbLine
 10
429.581537
 20
86.653704
 30
0.0
 11
431.268314
 21
83.329747
 31
0.0
  0
LINE
  5
3bf
100
AcDbEntity
  8
Layer_1
 62
7
100
AcDbLine
 10
431.268314
 20
83.329747
 30
0.0
 11
432.806262
 21
79.906589
 31
0.0
  0
LINE
  5
3c0
100
AcDbEntity
  8
Layer_1
 62
7
100
AcDbLine
 10
432.806262
 20
79.906589
 30
0.0
 11
434.145762
 21
76.433788
 31
0.0
  0
LINE
  5
3c1
100
AcDbEntity
  8
Layer_1
 62
7
100
AcDbLine
 10
434.145762
 20
76.433788
 30
0.0
 11
435.386041
 21
72.911400
 31
0.0
  0
LINE
  5
3c2
100
AcDbEntity
  8
Layer_1
 62
7
100
AcDbLine
 10
435.386041
 20
72.911400
 30
0.0
 11
436.576709
 21
69.389013
 31
0.0
  0
LINE
  5
3c3
100
AcDbEntity
  8
Layer_1
 62
7
100
AcDbLine
 10
436.576709
 20
69.389013
 30
0.0
 11
437.668152
 21
65.817011
 31
0.0
  0
LINE
  5
3c4
100
AcDbEntity
  8
Layer_1
 62
7
100
AcDbLine
 10
437.668152
 20
65.817011
 30
0.0
 11
438.709987
 21
62.245009
 31
0.0
  0
LINE
  5
3c5
100
AcDbEntity
  8
Layer_1
 62
7
100
AcDbLine
 10
438.709987
 20
62.245009
 30
0.0
 11
439.702210
 21
58.623392
 31
0.0
  0
LINE
  5
3c6
100
AcDbEntity
  8
Layer_1
 62
7
100
AcDbLine
 10
439.702210
 20
58.623392
 30
0.0
 11
440.545600
 21
55.001775
 31
0.0
  0
LINE
  5
3c7
100
AcDbEntity
  8
Layer_1
 62
7
100
AcDbLine
 10
440.545600
 20
55.001775
 30
0.0
 11
441.339378
 21
51.330572
 31
0.0
  0
LINE
  5
3c8
100
AcDbEntity
  8
Layer_1
 62
7
100
AcDbLine
 10
441.339378
 20
51.330572
 30
0.0
 11
442.033933
 21
47.659341
 31
0.0
  0
LINE
  5
3c9
100
AcDbEntity
  8
Layer_1
 62
7
100
AcDbLine
 10
442.033933
 20
47.659341
 30
0.0
 11
442.629266
 21
43.988109
 31
0.0
  0
LINE
  5
3ca
100
AcDbEntity
  8
Layer_1
 62
7
100
AcDbLine
 10
442.629266
 20
43.988109
 30
0.0
 11
443.075767
 21
40.267263
 31
0.0
  0
LINE
  5
3cb
100
AcDbEntity
  8
Layer_1
 62
7
100
AcDbLine
 10
443.075767
 20
40.267263
 30
0.0
 11
443.323824
 21
36.546445
 31
0.0
  0
LINE
  5
3cc
100
AcDbEntity
  8
Layer_1
 62
7
100
AcDbLine
 10
443.323824
 20
36.546445
 30
0.0
 11
443.373433
 21
34.710815
 31
0.0
  0
LINE
  5
3cd
100
AcDbEntity
  8
Layer_1
 62
7
100
AcDbLine
 10
443.373433
 20
34.710815
 30
0.0
 11
443.373433
 21
32.825599
 31
0.0
  0
LINE
  5
3ce
100
AcDbEntity
  8
Layer_1
 62
7
100
AcDbLine
 10
443.373433
 20
32.825599
 30
0.0
 11
443.323824
 21
30.940383
 31
0.0
  0
LINE
  5
3cf
100
AcDbEntity
  8
Layer_1
 62
7
100
AcDbLine
 10
443.323824
 20
30.940383
 30
0.0
 11
443.174991
 21
29.104781
 31
0.0
  0
LINE
  5
3d0
100
AcDbEntity
  8
Layer_1
 62
7
100
AcDbLine
 10
443.174991
 20
29.104781
 30
0.0
 11
442.976546
 21
27.219537
 31
0.0
  0
LINE
  5
3d1
100
AcDbEntity
  8
Layer_1
 62
7
100
AcDbLine
 10
442.976546
 20
27.219537
 30
0.0
 11
442.678878
 21
25.383935
 31
0.0
  0
LINE
  5
3d2
100
AcDbEntity
  8
Layer_1
 62
7
100
AcDbLine
 10
442.678878
 20
25.383935
 30
0.0
 11
442.331601
 21
23.548333
 31
0.0
  0
LINE
  5
3d3
100
AcDbEntity
  8
Layer_1
 62
7
100
AcDbLine
 10
442.331601
 20
23.548333
 30
0.0
 11
441.835488
 21
21.762318
 31
0.0
  0
LINE
  5
3d4
100
AcDbEntity
  8
Layer_1
 62
7
100
AcDbLine
 10
441.835488
 20
21.762318
 30
0.0
 11
441.240154
 21
19.976331
 31
0.0
  0
LINE
  5
3d5
100
AcDbEntity
  8
Layer_1
 62
7
100
AcDbLine
 10
441.240154
 20
19.976331
 30
0.0
 11
440.545600
 21
18.239931
 31
0.0
  0
LINE
  5
3d6
100
AcDbEntity
  8
Layer_1
 62
7
100
AcDbLine
 10
440.545600
 20
18.239931
 30
0.0
 11
439.751822
 21
16.553145
 31
0.0
  0
LINE
  5
3d7
100
AcDbEntity
  8
Layer_1
 62
7
100
AcDbLine
 10
439.751822
 20
16.553145
 30
0.0
 11
438.858820
 21
14.915974
 31
0.0
  0
LINE
  5
3d8
100
AcDbEntity
  8
Layer_1
 62
7
100
AcDbLine
 10
438.858820
 20
14.915974
 30
0.0
 11
437.816988
 21
13.378032
 31
0.0
  0
LINE
  5
3d9
100
AcDbEntity
  8
Layer_1
 62
7
100
AcDbLine
 10
437.816988
 20
13.378032
 30
0.0
 11
436.626318
 21
11.889705
 31
0.0
  0
LINE
  5
3da
100
AcDbEntity
  8
Layer_1
 62
7
100
AcDbLine
 10
436.626318
 20
11.889705
 30
0.0
 11
435.386041
 21
10.550194
 31
0.0
  0
LINE
  5
3db
100
AcDbEntity
  8
Layer_1
 62
7
100
AcDbLine
 10
435.386041
 20
10.550194
 30
0.0
 11
433.996929
 21
9.309912
 31
0.0
  0
LINE
  5
3dc
100
AcDbEntity
  8
Layer_1
 62
7
100
AcDbLine
 10
433.996929
 20
9.309912
 30
0.0
 11
432.508594
 21
8.168859
 31
0.0
  0
LINE
  5
3dd
100
AcDbEntity
  8
Layer_1
 62
7
100
AcDbLine
 10
432.508594
 20
8.168859
 30
0.0
 11
430.921037
 21
7.127035
 31
0.0
  0
LINE
  5
3de
100
AcDbEntity
  8
Layer_1
 62
7
100
AcDbLine
 10
430.921037
 20
7.127035
 30
0.0
 11
429.283869
 21
6.234028
 31
0.0
  0
LINE
  5
3df
100
AcDbEntity
  8
Layer_1
 62
7
100
AcDbLine
 10
429.283869
 20
6.234028
 30
0.0
 11
427.597091
 21
5.440250
 31
0.0
  0
LINE
  5
3e0
100
AcDbEntity
  8
Layer_1
 62
7
100
AcDbLine
 10
427.597091
 20
5.440250
 30
0.0
 11
425.860702
 21
4.745701
 31
0.0
  0
LINE
  5
3e1
100
AcDbEntity
  8
Layer_1
 62
7
100
AcDbLine
 10
425.860702
 20
4.745701
 30
0.0
 11
424.074701
 21
4.150353
 31
0.0
  0
LINE
  5
3e2
100
AcDbEntity
  8
Layer_1
 62
7
100
AcDbLine
 10
424.074701
 20
4.150353
 30
0.0
 11
422.288700
 21
3.703877
 31
0.0
  0
LINE
  5
3e3
100
AcDbEntity
  8
Layer_1
 62
7
100
AcDbLine
 10
422.288700
 20
3.703877
 30
0.0
 11
420.453087
 21
3.306988
 31
0.0
  0
LINE
  5
3e4
100
AcDbEntity
  8
Layer_1
 62
7
100
AcDbLine
 10
420.453087
 20
3.306988
 30
0.0
 11
418.617474
 21
3.009300
 31
0.0
  0
LINE
  5
3e5
100
AcDbEntity
  8
Layer_1
 62
7
100
AcDbLine
 10
418.617474
 20
3.009300
 30
0.0
 11
416.781861
 21
2.761255
 31
0.0
  0
LINE
  5
3e6
100
AcDbEntity
  8
Layer_1
 62
7
100
AcDbLine
 10
416.781861
 20
2.761255
 30
0.0
 11
414.896640
 21
3.009300
 31
0.0
  0
LINE
  5
3e7
100
AcDbEntity
  8
Layer_1
 62
7
100
AcDbLine
 10
414.896640
 20
3.009300
 30
0.0
 11
413.061027
 21
3.306988
 31
0.0
  0
LINE
  5
3e8
100
AcDbEntity
  8
Layer_1
 62
7
100
AcDbLine
 10
413.061027
 20
3.306988
 30
0.0
 11
411.225414
 21
3.703877
 31
0.0
  0
LINE
  5
3e9
100
AcDbEntity
  8
Layer_1
 62
7
100
AcDbLine
 10
411.225414
 20
3.703877
 30
0.0
 11
409.439413
 21
4.150353
 31
0.0
  0
LINE
  5
3ea
100
AcDbEntity
  8
Layer_1
 62
7
100
AcDbLine
 10
409.439413
 20
4.150353
 30
0.0
 11
407.653412
 21
4.745701
 31
0.0
  0
LINE
  5
3eb
100
AcDbEntity
  8
Layer_1
 62
7
100
AcDbLine
 10
407.653412
 20
4.745701
 30
0.0
 11
405.917022
 21
5.440250
 31
0.0
  0
LINE
  5
3ec
100
AcDbEntity
  8
Layer_1
 62
7
100
AcDbLine
 10
405.917022
 20
5.440250
 30
0.0
 11
404.230245
 21
6.234028
 31
0.0
  0
LINE
  5
3ed
100
AcDbEntity
  8
Layer_1
 62
7
100
AcDbLine
 10
404.230245
 20
6.234028
 30
0.0
 11
402.593077
 21
7.127035
 31
0.0
  0
LINE
  5
3ee
100
AcDbEntity
  8
Layer_1
 62
7
100
AcDbLine
 10
402.593077
 20
7.127035
 30
0.0
 11
401.005520
 21
8.168859
 31
0.0
  0
LINE
  5
3ef
100
AcDbEntity
  8
Layer_1
 62
7
100
AcDbLine
 10
401.005520
 20
8.168859
 30
0.0
 11
399.566796
 21
9.309912
 31
0.0
  0
LINE
  5
3f0
100
AcDbEntity
  8
Layer_1
 62
7
100
AcDbLine
 10
399.566796
 20
9.309912
 30
0.0
 11
398.177685
 21
10.550194
 31
0.0
  0
LINE
  5
3f1
100
AcDbEntity
  8
Layer_1
 62
7
100
AcDbLine
 10
398.177685
 20
10.550194
 30
0.0
 11
396.887796
 21
11.889705
 31
0.0
  0
LINE
  5
3f2
100
AcDbEntity
  8
Layer_1
 62
7
100
AcDbLine
 10
396.887796
 20
11.889705
 30
0.0
 11
395.697129
 21
13.378032
 31
0.0
  0
LINE
  5
3f3
100
AcDbEntity
  8
Layer_1
 62
7
100
AcDbLine
 10
395.697129
 20
13.378032
 30
0.0
 11
394.655294
 21
14.915974
 31
0.0
  0
LINE
  5
3f4
100
AcDbEntity
  8
Layer_1
 62
7
100
AcDbLine
 10
394.655294
 20
14.915974
 30
0.0
 11
393.762292
 21
16.553145
 31
0.0
  0
LINE
  5
3f5
100
AcDbEntity
  8
Layer_1
 62
7
100
AcDbLine
 10
393.762292
 20
16.553145
 30
0.0
 11
392.968517
 21
18.239931
 31
0.0
  0
LINE
  5
3f6
100
AcDbEntity
  8
Layer_1
 62
7
100
AcDbLine
 10
392.968517
 20
18.239931
 30
0.0
 11
392.273960
 21
19.976331
 31
0.0
  0
LINE
  5
3f7
100
AcDbEntity
  8
Layer_1
 62
7
100
AcDbLine
 10
392.273960
 20
19.976331
 30
0.0
 11
391.678626
 21
21.762318
 31
0.0
  0
LINE
  5
3f8
100
AcDbEntity
  8
Layer_1
 62
7
100
AcDbLine
 10
391.678626
 20
21.762318
 30
0.0
 11
391.232125
 21
23.548333
 31
0.0
  0
LINE
  5
3f9
100
AcDbEntity
  8
Layer_1
 62
7
100
AcDbLine
 10
391.232125
 20
23.548333
 30
0.0
 11
390.835236
 21
25.383935
 31
0.0
  0
LINE
  5
3fa
100
AcDbEntity
  8
Layer_1
 62
7
100
AcDbLine
 10
390.835236
 20
25.383935
 30
0.0
 11
390.537570
 21
27.219537
 31
0.0
  0
LINE
  5
3fb
100
AcDbEntity
  8
Layer_1
 62
7
100
AcDbLine
 10
390.537570
 20
27.219537
 30
0.0
 11
390.339126
 21
29.104781
 31
0.0
  0
LINE
  5
3fc
100
AcDbEntity
  8
Layer_1
 62
7
100
AcDbLine
 10
390.339126
 20
29.104781
 30
0.0
 11
390.190290
 21
30.940383
 31
0.0
  0
LINE
  5
3fd
100
AcDbEntity
  8
Layer_1
 62
7
100
AcDbLine
 10
390.190290
 20
30.940383
 30
0.0
 11
390.140681
 21
32.825599
 31
0.0
  0
LINE
  5
3fe
100
AcDbEntity
  8
Layer_1
 62
7
100
AcDbLine
 10
390.140681
 20
32.825599
 30
0.0
 11
390.140681
 21
34.710815
 31
0.0
  0
LINE
  5
3ff
100
AcDbEntity
  8
Layer_1
 62
7
100
AcDbLine
 10
390.140681
 20
34.710815
 30
0.0
 11
390.190290
 21
36.546445
 31
0.0
  0
LINE
  5
400
100
AcDbEntity
  8
Layer_1
 62
7
100
AcDbLine
 10
390.190290
 20
36.546445
 30
0.0
 11
390.487959
 21
40.267263
 31
0.0
  0
LINE
  5
401
100
AcDbEntity
  8
Layer_1
 62
7
100
AcDbLine
 10
390.487959
 20
40.267263
 30
0.0
 11
390.884848
 21
43.988109
 31
0.0
  0
LINE
  5
402
100
AcDbEntity
  8
Layer_1
 62
7
100
AcDbLine
 10
390.884848
 20
43.988109
 30
0.0
 11
391.480181
 21
47.659341
 31
0.0
  0
LINE
  5
403
100
AcDbEntity
  8
Layer_1
 62
7
100
AcDbLine
 10
391.480181
 20
47.659341
 30
0.0
 11
392.174739
 21
51.330572
 31
0.0
  0
LINE
  5
404
100
AcDbEntity
  8
Layer_1
 62
7
100
AcDbLine
 10
392.174739
 20
51.330572
 30
0.0
 11
392.968517
 21
55.001775
 31
0.0
  0
LINE
  5
405
100
AcDbEntity
  8
Layer_1
 62
7
100
AcDbLine
 10
392.968517
 20
55.001775
 30
0.0
 11
393.861516
 21
58.623392
 31
0.0
  0
LINE
  5
406
100
AcDbEntity
  8
Layer_1
 62
7
100
AcDbLine
 10
393.861516
 20
58.623392
 30
0.0
 11
394.804127
 21
62.245009
 31
0.0
  0
LINE
  5
407
100
AcDbEntity
  8
Layer_1
 62
7
100
AcDbLine
 10
394.804127
 20
62.245009
 30
0.0
 11
395.845962
 21
65.817011
 31
0.0
  0
LINE
  5
408
100
AcDbEntity
  8
Layer_1
 62
7
100
AcDbLine
 10
395.845962
 20
65.817011
 30
0.0
 11
396.937408
 21
69.389013
 31
0.0
  0
LINE
  5
409
100
AcDbEntity
  8
Layer_1
 62
7
100
AcDbLine
 10
396.937408
 20
69.389013
 30
0.0
 11
398.128073
 21
72.911400
 31
0.0
  0
LINE
  5
40a
100
AcDbEntity
  8
Layer_1
 62
7
100
AcDbLine
 10
398.128073
 20
72.911400
 30
0.0
 11
399.368352
 21
76.433788
 31
0.0
  0
LINE
  5
40b
100
AcDbEntity
  8
Layer_1
 62
7
100
AcDbLine
 10
399.368352
 20
76.433788
 30
0.0
 11
400.757464
 21
79.906589
 31
0.0
  0
LINE
  5
40c
100
AcDbEntity
  8
Layer_1
 62
7
100
AcDbLine
 10
400.757464
 20
79.906589
 30
0.0
 11
402.295408
 21
83.329747
 31
0.0
  0
LINE
  5
40d
100
AcDbEntity
  8
Layer_1
 62
7
100
AcDbLine
 10
402.295408
 20
83.329747
 30
0.0
 11
403.982189
 21
86.653704
 31
0.0
  0
LINE
  5
40e
100
AcDbEntity
  8
Layer_1
 62
7
100
AcDbLine
 10
403.982189
 20
86.653704
 30
0.0
 11
404.875191
 21
88.241260
 31
0.0
  0
LINE
  5
40f
100
AcDbEntity
  8
Layer_1
 62
7
100
AcDbLine
 10
404.875191
 20
88.241260
 30
0.0
 11
405.817802
 21
89.878403
 31
0.0
  0
LINE
  5
410
100
AcDbEntity
  8
Layer_1
 62
7
100
AcDbLine
 10
405.817802
 20
89.878403
 30
0.0
 11
406.859633
 21
91.416373
 31
0.0
  0
LINE
  5
411
100
AcDbEntity
  8
Layer_1
 62
7
100
AcDbLine
 10
406.859633
 20
91.416373
 30
0.0
 11
407.951080
 21
92.954315
 31
0.0
  0
LINE
  5
412
100
AcDbEntity
  8
Layer_1
 62
7
100
AcDbLine
 10
407.951080
 20
92.954315
 30
0.0
 11
409.092135
 21
94.393028
 31
0.0
  0
LINE
  5
413
100
AcDbEntity
  8
Layer_1
 62
7
100
AcDbLine
 10
409.092135
 20
94.393028
 30
0.0
 11
410.332415
 21
95.782154
 31
0.0
  0
LINE
  5
414
100
AcDbEntity
  8
Layer_1
 62
7
100
AcDbLine
 10
410.332415
 20
95.782154
 30
0.0
 11
411.721527
 21
97.072022
 31
0.0
  0
LINE
  5
415
100
AcDbEntity
  8
Layer_1
 62
7
100
AcDbLine
 10
411.721527
 20
97.072022
 30
0.0
 11
412.465693
 21
97.617755
 31
0.0
  0
LINE
  5
416
100
AcDbEntity
  8
Layer_1
 62
7
100
AcDbLine
 10
412.465693
 20
97.617755
 30
0.0
 11
413.259471
 21
98.163488
 31
0.0
  0
LINE
  5
417
100
AcDbEntity
  8
Layer_1
 62
7
100
AcDbLine
 10
413.259471
 20
98.163488
 30
0.0
 11
414.053249
 21
98.609964
 31
0.0
  0
LINE
  5
418
100
AcDbEntity
  8
Layer_1
 62
7
100
AcDbLine
 10
414.053249
 20
98.609964
 30
0.0
 11
414.946251
 21
98.957267
 31
0.0
  0
LINE
  5
419
100
AcDbEntity
  8
Layer_1
 62
7
100
AcDbLine
 10
414.946251
 20
98.957267
 30
0.0
 11
415.839250
 21
99.155697
 31
0.0
  0
LINE
  5
41a
100
AcDbEntity
  8
Layer_1
 62
7
100
AcDbLine
 10
415.839250
 20
99.155697
 30
0.0
 11
416.781861
 21
99.254926
 31
0.0
  0
ENDSEC
  0
SECTION
  2
OBJECTS
  0
DICTIONARY
  5
C
330
0
100
AcDbDictionary
  3
ACAD_GROUP
350
D
  3
ACAD_MLINESTYLE
350
17
  0
DICTIONARY
  5
D
330
C
100
AcDbDictionary
  0
DICTIONARY
  5
1A
330
C
100
AcDbDictionary
  0
DICTIONARY
  5
17
330
C
100
AcDbDictionary
  3
STANDARD
350
18
  0
DICTIONARY
  5
19
330
C
100
AcDbDictionary
  0
ENDSEC
  0
EOF
