  0
SECTION
  2
HEADER
  9
$ACADVER
  1
AC1014
  9
$HANDSEED
  5
FFFF
  9
$MEASUREMENT
 70
     1
  0
ENDSEC
  0
SECTION
  2
TABLES
  0
TABLE
  2
VPORT
  5
8
330
0
100
AcDbSymbolTable
 70
     4
  0
VPORT
  5
2E
330
8
100
AcDbSymbolTableRecord
100
AcDbViewportTableRecord
  2
*ACTIVE
 70
     0
 10
0.0
 20
0.0
 11
1.0
 21
1.0
 12
210.0
 22
148.5
 13
0.0
 23
0.0
 14
10.0
 24
10.0
 15
10.0
 25
10.0
 16
0.0
 26
0.0
 36
1.0
 17
0.0
 27
0.0
 37
0.0
 40
341.0
 41
1.24
 42
50.0
 43
0.0
 44
0.0
 50
0.0
 51
0.0
 71
     0
 72
   100
 73
     1
 74
     3
 75
     0
 76
     0
 77
     0
 78
     0
  0
ENDTAB
  0
TABLE
  2
LTYPE
  5
5
330
0
100
AcDbSymbolTable
 70
     1
  0
LTYPE
  5
14
330
5
100
AcDbSymbolTableRecord
100
AcDbLinetypeTableRecord
  2
BYBLOCK
 70
     0
  3

 72
    65
 73
     0
 40
0.0
  0
LTYPE
  5
15
330
5
100
AcDbSymbolTableRecord
100
AcDbLinetypeTableRecord
  2
BYLAYER
 70
     0
  3

 72
    65
 73
     0
 40
0.0
  0
LTYPE
  5
16
330
5
100
AcDbSymbolTableRecord
100
AcDbLinetypeTableRecord
  2
CONTINUOUS
 70
     0
  3
Solid line
 72
    65
 73
     0
 40
0.0
  0
ENDTAB
  0
TABLE
  2
LAYER
  5
2
100
AcDbSymbolTable
 70
2
  0
LAYER
  5
50
100
AcDbSymbolTableRecord
100
AcDbLayerTableRecord
  2
0
 70
0
  6
CONTINUOUS
  0
LAYER
  5
51
100
AcDbSymbolTableRecord
100
AcDbLayerTableRecord
  2
Layer_1
 70
0
  6
CONTINUOUS
  0
ENDTAB
  0
TABLE
  2
STYLE
  5
3
330
0
100
AcDbSymbolTable
 70
     1
  0
STYLE
  5
11
330
3
100
AcDbSymbolTableRecord
100
AcDbTextStyleTableRecord
  2
STANDARD
 70
     0
 40
0.0
 41
1.0
 50
0.0
 71
     0
 42
2.5
  3
txt
  4

  0
ENDTAB
  0
TABLE
  2
VIEW
  5
6
330
0
100
AcDbSymbolTable
 70
     0
  0
ENDTAB
  0
TABLE
  2
UCS
  5
7
330
0
100
AcDbSymbolTable
 70
     0
  0
ENDTAB
  0
TABLE
  2
APPID
  5
9
330
0
100
AcDbSymbolTable
 70
     2
  0
APPID
  5
12
330
9
100
AcDbSymbolTableRecord
100
AcDbRegAppTableRecord
  2
ACAD
 70
     0
  0
ENDTAB
  0
TABLE
  2
DIMSTYLE
  5
A
330
0
100
AcDbSymbolTable
 70
     1
  0
DIMSTYLE
105
27
330
A
100
AcDbSymbolTableRecord
100
AcDbDimStyleTableRecord
  2
ISO-25
 70
     0
  3

  4

  5

  6

  7

 40
1.0
 41
2.5
 42
0.625
 43
3.75
 44
1.25
 45
0.0
 46
0.0
 47
0.0
 48
0.0
140
2.5
141
2.5
142
0.0
143
0.03937007874016
144
1.0
145
0.0
146
1.0
147
0.625
 71
     0
 72
     0
 73
     0
 74
     0
 75
     0
 76
     0
 77
     1
 78
     8
170
     0
171
     3
172
     1
173
     0
174
     0
175
     0
176
     0
177
     0
178
     0
270
     2
271
     2
272
     2
273
     2
274
     3
340
11
275
     0
280
     0
281
     0
282
     0
283
     0
284
     8
285
     0
286
     0
287
     3
288
     0
  0
ENDTAB
  0
TABLE
  2
BLOCK_RECORD
  5
1
330
0
100
AcDbSymbolTable
 70
     1
  0
BLOCK_RECORD
  5
1F
330
1
100
AcDbSymbolTableRecord
100
AcDbBlockTableRecord
  2
*MODEL_SPACE
  0
BLOCK_RECORD
  5
1B
330
1
100
AcDbSymbolTableRecord
100
AcDbBlockTableRecord
  2
*PAPER_SPACE
  0
ENDTAB
  0
ENDSEC
  0
SECTION
  2
BLOCKS
  0
BLOCK
  5
20
330
1F
100
AcDbEntity
  8
0
100
AcDbBlockBegin
  2
*MODEL_SPACE
 70
     0
 10
0.0
 20
0.0
 30
0.0
  3
*MODEL_SPACE
  1

  0
ENDBLK
  5
21
330
1F
100
AcDbEntity
  8
0
100
AcDbBlockEnd
  0
BLOCK
  5
1C
330
1B
100
AcDbEntity
 67
     1
  8
0
100
AcDbBlockBegin
  2
*PAPER_SPACE
  1

  0
ENDBLK
  5
1D
330
1B
100
AcDbEntity
 67
     1
  8
0
100
AcDbBlockEnd
  0
ENDSEC
  0
SECTION
  2
ENTITIES
  0
LINE
  5
100
100
AcDbEntity
  8
Layer_1
 62
7
100
AcDbLine
 10
113.207639
 20
-296.672625
 30
0.0
 11
129.376316
 21
-296.516780
 31
0.0
  0
LINE
  5
101
100
AcDbEntity
  8
Layer_1
 62
7
100
AcDbLine
 10
109.876830
 20
-40.310917
 30
0.0
 11
145.737061
 21
-158.550120
 31
0.0
  0
SPLINE
  5
102
100
AcDbEntity
  8
Layer_1
 62
7
100
AcDbSpline
 70
8
 71
3
 72
8
 73
4
 74
0
 40
0
 40
0
 40
0
 40
0
 40
1
 40
1
 40
1
 40
1
 10
146.627341
 20
-169.344794
 30
0.0
 10
147.117320
 20
-165.726805
 30
0.0
 10
146.822334
 20
-162.045751
 30
0.0
 10
145.762499
 20
-158.551959
 30
0.0
  0
LINE
  5
103
100
AcDbEntity
  8
Layer_1
 62
7
100
AcDbLine
 10
146.620920
 20
-169.341153
 30
0.0
 11
129.376316
 21
-296.516780
 31
0.0
  0
LINE
  5
104
100
AcDbEntity
  8
Layer_1
 62
7
100
AcDbLine
 10
82.140270
 20
-42.213918
 30
0.0
 11
127.836308
 21
-164.052494
 31
0.0
  0
LINE
  5
105
100
AcDbEntity
  8
Layer_1
 62
7
100
AcDbLine
 10
127.836308
 20
-164.052494
 30
0.0
 11
113.207639
 21
-296.672625
 31
0.0
  0
LINE
  5
106
100
AcDbEntity
  8
Layer_1
 62
7
100
AcDbLine
 10
81.459142
 20
32.382969
 30
0.0
 11
82.140270
 21
-42.213918
 31
0.0
  0
LINE
  5
107
100
AcDbEntity
  8
Layer_1
 62
7
100
AcDbLine
 10
109.193419
 20
30.969436
 30
0.0
 11
109.876830
 21
-40.310917
 31
0.0
  0
LINE
  5
108
100
AcDbEntity
  8
Layer_1
 62
7
100
AcDbLine
 10
107.815916
 20
287.398077
 30
0.0
 11
123.966004
 21
287.507927
 31
0.0
  0
LINE
  5
109
100
AcDbEntity
  8
Layer_1
 62
7
100
AcDbLine
 10
109.193419
 20
30.969436
 30
0.0
 11
142.899985
 21
149.888776
 31
0.0
  0
SPLINE
  5
10a
100
AcDbEntity
  8
Layer_1
 62
7
100
AcDbSpline
 70
8
 71
3
 72
8
 73
4
 74
0
 40
0
 40
0
 40
0
 40
0
 40
1
 40
1
 40
1
 40
1
 10
142.914111
 20
149.921541
 30
0.0
 10
143.909084
 20
153.434357
 30
0.0
 10
144.135887
 20
157.120236
 30
0.0
 10
143.579058
 20
160.728530
 30
0.0
  0
LINE
  5
10b
100
AcDbEntity
  8
Layer_1
 62
7
100
AcDbLine
 10
143.573104
 20
160.692842
 30
0.0
 11
123.966004
 21
287.507927
 31
0.0
  0
LINE
  5
10c
100
AcDbEntity
  8
Layer_1
 62
7
100
AcDbLine
 10
81.459142
 20
32.382969
 30
0.0
 11
124.907104
 21
155.018074
 31
0.0
  0
LINE
  5
10d
100
AcDbEntity
  8
Layer_1
 62
7
100
AcDbLine
 10
124.907104
 20
155.018074
 30
0.0
 11
107.815916
 21
287.398077
 31
0.0
  0
LINE
  5
10e
100
AcDbEntity
  8
Layer_1
 62
7
100
AcDbLine
 10
181.760170
 20
-168.067473
 30
0.0
 11
173.077531
 21
-226.162011
 31
0.0
  0
LINE
  5
10f
100
AcDbEntity
  8
Layer_1
 62
7
100
AcDbLine
 10
173.077531
 20
-226.162011
 30
0.0
 11
155.201063
 21
-226.091935
 31
0.0
  0
LINE
  5
110
100
AcDbEntity
  8
Layer_1
 62
7
100
AcDbLine
 10
155.201063
 20
-226.091935
 30
0.0
 11
163.071410
 21
-162.509380
 31
0.0
  0
LINE
  5
111
100
AcDbEntity
  8
Layer_1
 62
7
100
AcDbLine
 10
146.767315
 20
-38.516681
 30
0.0
 11
181.051522
 21
-157.319592
 31
0.0
  0
SPLINE
  5
112
100
AcDbEntity
  8
Layer_1
 62
7
100
AcDbSpline
 70
8
 71
3
 72
8
 73
4
 74
0
 40
0
 40
0
 40
0
 40
0
 40
1
 40
1
 40
1
 40
1
 10
181.782003
 20
-168.056977
 30
0.0
 10
182.321086
 20
-164.445967
 30
0.0
 10
182.076174
 20
-160.761240
 30
0.0
 10
181.063916
 20
-157.253367
 30
0.0
  0
LINE
  5
113
100
AcDbEntity
  8
Layer_1
 62
7
100
AcDbLine
 10
147.131938
 20
32.755917
 30
0.0
 11
146.767315
 21
-38.516681
 31
0.0
  0
LINE
  5
114
100
AcDbEntity
  8
Layer_1
 62
7
100
AcDbLine
 10
119.012658
 20
-40.043677
 30
0.0
 11
163.071410
 21
-162.509380
 31
0.0
  0
LINE
  5
115
100
AcDbEntity
  8
Layer_1
 62
7
100
AcDbLine
 10
119.356729
 20
34.555391
 30
0.0
 11
119.012658
 21
-40.043677
 31
0.0
  0
LINE
  5
116
100
AcDbEntity
  8
Layer_1
 62
7
100
AcDbLine
 10
183.316797
 20
161.971097
 30
0.0
 11
175.220812
 21
220.163223
 31
0.0
  0
LINE
  5
117
100
AcDbEntity
  8
Layer_1
 62
7
100
AcDbLine
 10
175.220812
 20
220.163223
 30
0.0
 11
157.296892
 21
220.247806
 31
0.0
  0
LINE
  5
118
100
AcDbEntity
  8
Layer_1
 62
7
100
AcDbLine
 10
157.296892
 20
220.247806
 30
0.0
 11
164.603878
 21
156.590332
 31
0.0
  0
LINE
  5
119
100
AcDbEntity
  8
Layer_1
 62
7
100
AcDbLine
 10
147.131938
 20
32.755917
 30
0.0
 11
182.519037
 21
151.216871
 31
0.0
  0
SPLINE
  5
11a
100
AcDbEntity
  8
Layer_1
 62
7
100
AcDbSpline
 70
8
 71
3
 72
8
 73
4
 74
0
 40
0
 40
0
 40
0
 40
0
 40
1
 40
1
 40
1
 40
1
 10
182.514125
 20
151.202447
 30
0.0
 10
183.559765
 20
154.700563
 30
0.0
 10
183.839859
 20
158.382776
 30
0.0
 10
183.335232
 20
161.998766
 30
0.0
  0
LINE
  5
11b
100
AcDbEntity
  8
Layer_1
 62
7
100
AcDbLine
 10
119.356729
 20
34.555391
 30
0.0
 11
164.603878
 21
156.590332
 31
0.0
  0
LINE
  5
11c
100
AcDbEntity
  8
Layer_1
 62
7
100
AcDbLine
 10
49.475750
 20
221.147006
 30
0.0
 11
14.946390
 21
233.946680
 31
0.0
  0
LINE
  5
11d
100
AcDbEntity
  8
Layer_1
 62
7
100
AcDbLine
 10
23.628340
 20
217.674226
 30
0.0
 11
23.628340
 21
219.261782
 31
0.0
  0
LINE
  5
11e
100
AcDbEntity
  8
Layer_1
 62
7
100
AcDbLine
 10
47.937800
 20
214.499113
 30
0.0
 11
40.694580
 21
214.499113
 31
0.0
  0
LINE
  5
11f
100
AcDbEntity
  8
Layer_1
 62
7
100
AcDbLine
 10
32.161460
 20
214.499113
 30
0.0
 11
24.918230
 21
214.499113
 31
0.0
  0
LINE
  5
120
100
AcDbEntity
  8
Layer_1
 62
7
100
AcDbLine
 10
50.418360
 20
220.154783
 30
0.0
 11
50.716030
 21
219.261782
 31
0.0
  0
LINE
  5
121
100
AcDbEntity
  8
Layer_1
 62
7
100
AcDbLine
 10
50.716030
 20
219.261782
 30
0.0
 11
49.227690
 21
219.261782
 31
0.0
  0
SPLINE
  5
122
100
AcDbEntity
  8
Layer_1
 62
7
100
AcDbSpline
 70
8
 71
3
 72
8
 73
4
 74
0
 40
0
 40
0
 40
0
 40
0
 40
1
 40
1
 40
1
 40
1
 10
50.495270
 20
220.159630
 30
0.0
 10
50.347090
 20
220.639026
 30
0.0
 10
49.984210
 20
221.022056
 30
0.0
 10
49.513560
 20
221.195936
 30
0.0
  0
LINE
  5
123
100
AcDbEntity
  8
Layer_1
 62
7
100
AcDbLine
 10
33.451350
 20
217.723837
 30
0.0
 11
39.404690
 21
217.723837
 31
0.0
  0
LINE
  5
124
100
AcDbEntity
  8
Layer_1
 62
7
100
AcDbLine
 10
47.937800
 20
214.499113
 30
0.0
 11
49.227690
 21
217.674226
 31
0.0
  0
LINE
  5
125
100
AcDbEntity
  8
Layer_1
 62
7
100
AcDbLine
 10
39.404690
 20
217.723837
 30
0.0
 11
40.694580
 21
214.499113
 31
0.0
  0
LINE
  5
126
100
AcDbEntity
  8
Layer_1
 62
7
100
AcDbLine
 10
32.161460
 20
214.499113
 30
0.0
 11
33.451350
 21
217.723837
 31
0.0
  0
LINE
  5
127
100
AcDbEntity
  8
Layer_1
 62
7
100
AcDbLine
 10
23.628340
 20
217.674226
 30
0.0
 11
24.918230
 21
214.499113
 31
0.0
  0
SPLINE
  5
128
100
AcDbEntity
  8
Layer_1
 62
7
100
AcDbSpline
 70
8
 71
3
 72
8
 73
4
 74
0
 40
0
 40
0
 40
0
 40
0
 40
1
 40
1
 40
1
 40
1
 10
14.984210
 20
233.995610
 30
0.0
 10
14.489470
 20
234.178360
 30
0.0
 10
13.936610
 20
234.107630
 30
0.0
 10
13.503850
 20
233.806130
 30
0.0
  0
SPLINE
  5
129
100
AcDbEntity
  8
Layer_1
 62
7
100
AcDbSpline
 70
8
 71
3
 72
8
 73
4
 74
0
 40
0
 40
0
 40
0
 40
0
 40
1
 40
1
 40
1
 40
1
 10
13.503850
 20
233.806130
 30
0.0
 10
13.071080
 20
233.504640
 30
0.0
 10
12.813120
 20
233.010570
 30
0.0
 10
12.813120
 20
232.483146
 30
0.0
  0
LINE
  5
12a
100
AcDbEntity
  8
Layer_1
 62
7
100
AcDbLine
 10
12.813120
 20
224.024446
 30
0.0
 11
12.813120
 21
232.458346
 31
0.0
  0
LINE
  5
12b
100
AcDbEntity
  8
Layer_1
 62
7
100
AcDbLine
 10
49.227690
 20
217.674226
 30
0.0
 11
49.227690
 21
219.261782
 31
0.0
  0
LINE
  5
12c
100
AcDbEntity
  8
Layer_1
 62
7
100
AcDbLine
 10
19.758670
 20
219.261782
 30
0.0
 11
23.628340
 21
219.261782
 31
0.0
  0
SPLINE
  5
12d
100
AcDbEntity
  8
Layer_1
 62
7
100
AcDbSpline
 70
8
 71
3
 72
8
 73
4
 74
0
 40
0
 40
0
 40
0
 40
0
 40
1
 40
1
 40
1
 40
1
 10
19.826260
 20
219.267259
 30
0.0
 10
19.182320
 20
220.551086
 30
0.0
 10
18.123700
 20
221.579896
 30
0.0
 10
16.821950
 20
222.186896
 30
0.0
  0
LINE
  5
12e
100
AcDbEntity
  8
Layer_1
 62
7
100
AcDbLine
 10
12.813120
 20
224.024446
 30
0.0
 11
16.782010
 21
222.139226
 31
0.0
  0
SPLINE
  5
12f
100
AcDbEntity
  8
Layer_1
 62
7
100
AcDbSpline
 70
8
 71
3
 72
8
 73
4
 74
0
 40
0
 40
0
 40
0
 40
0
 40
1
 40
1
 40
1
 40
1
 10
15.740170
 20
225.636816
 30
0.0
 10
15.740170
 20
225.924496
 30
0.0
 10
15.506960
 20
226.157726
 30
0.0
 10
15.219260
 20
226.157726
 30
0.0
  0
SPLINE
  5
130
100
AcDbEntity
  8
Layer_1
 62
7
100
AcDbSpline
 70
8
 71
3
 72
8
 73
4
 74
0
 40
0
 40
0
 40
0
 40
0
 40
1
 40
1
 40
1
 40
1
 10
15.219260
 20
226.157726
 30
0.0
 10
14.931560
 20
226.157726
 30
0.0
 10
14.698340
 20
225.924496
 30
0.0
 10
14.698340
 20
225.636816
 30
0.0
  0
SPLINE
  5
131
100
AcDbEntity
  8
Layer_1
 62
7
100
AcDbSpline
 70
8
 71
3
 72
8
 73
4
 74
0
 40
0
 40
0
 40
0
 40
0
 40
1
 40
1
 40
1
 40
1
 10
14.698340
 20
225.636816
 30
0.0
 10
14.698340
 20
225.349126
 30
0.0
 10
14.931560
 20
225.115896
 30
0.0
 10
15.219260
 20
225.115896
 30
0.0
  0
SPLINE
  5
132
100
AcDbEntity
  8
Layer_1
 62
7
100
AcDbSpline
 70
8
 71
3
 72
8
 73
4
 74
0
 40
0
 40
0
 40
0
 40
0
 40
1
 40
1
 40
1
 40
1
 10
15.219260
 20
225.115896
 30
0.0
 10
15.506960
 20
225.115896
 30
0.0
 10
15.740170
 20
225.349126
 30
0.0
 10
15.740170
 20
225.636816
 30
0.0
  0
SPLINE
  5
133
100
AcDbEntity
  8
Layer_1
 62
7
100
AcDbSpline
 70
8
 71
3
 72
8
 73
4
 74
0
 40
0
 40
0
 40
0
 40
0
 40
1
 40
1
 40
1
 40
1
 10
15.740170
 20
228.811926
 30
0.0
 10
15.740170
 20
229.099616
 30
0.0
 10
15.506960
 20
229.332846
 30
0.0
 10
15.219260
 20
229.332846
 30
0.0
  0
SPLINE
  5
134
100
AcDbEntity
  8
Layer_1
 62
7
100
AcDbSpline
 70
8
 71
3
 72
8
 73
4
 74
0
 40
0
 40
0
 40
0
 40
0
 40
1
 40
1
 40
1
 40
1
 10
15.219260
 20
229.332846
 30
0.0
 10
14.931560
 20
229.332846
 30
0.0
 10
14.698340
 20
229.099616
 30
0.0
 10
14.698340
 20
228.811926
 30
0.0
  0
SPLINE
  5
135
100
AcDbEntity
  8
Layer_1
 62
7
100
AcDbSpline
 70
8
 71
3
 72
8
 73
4
 74
0
 40
0
 40
0
 40
0
 40
0
 40
1
 40
1
 40
1
 40
1
 10
14.698340
 20
228.811926
 30
0.0
 10
14.698340
 20
228.524236
 30
0.0
 10
14.931560
 20
228.291006
 30
0.0
 10
15.219260
 20
228.291006
 30
0.0
  0
SPLINE
  5
136
100
AcDbEntity
  8
Layer_1
 62
7
100
AcDbSpline
 70
8
 71
3
 72
8
 73
4
 74
0
 40
0
 40
0
 40
0
 40
0
 40
1
 40
1
 40
1
 40
1
 10
15.219260
 20
228.291006
 30
0.0
 10
15.506960
 20
228.291006
 30
0.0
 10
15.740170
 20
228.524236
 30
0.0
 10
15.740170
 20
228.811926
 30
0.0
  0
SPLINE
  5
137
100
AcDbEntity
  8
Layer_1
 62
7
100
AcDbSpline
 70
8
 71
3
 72
8
 73
4
 74
0
 40
0
 40
0
 40
0
 40
0
 40
1
 40
1
 40
1
 40
1
 10
15.740170
 20
231.987036
 30
0.0
 10
15.740170
 20
232.274726
 30
0.0
 10
15.506960
 20
232.507956
 30
0.0
 10
15.219260
 20
232.507956
 30
0.0
  0
SPLINE
  5
138
100
AcDbEntity
  8
Layer_1
 62
7
100
AcDbSpline
 70
8
 71
3
 72
8
 73
4
 74
0
 40
0
 40
0
 40
0
 40
0
 40
1
 40
1
 40
1
 40
1
 10
15.219260
 20
232.507956
 30
0.0
 10
14.931560
 20
232.507956
 30
0.0
 10
14.698340
 20
232.274726
 30
0.0
 10
14.698340
 20
231.987036
 30
0.0
  0
SPLINE
  5
139
100
AcDbEntity
  8
Layer_1
 62
7
100
AcDbSpline
 70
8
 71
3
 72
8
 73
4
 74
0
 40
0
 40
0
 40
0
 40
0
 40
1
 40
1
 40
1
 40
1
 10
14.698340
 20
231.987036
 30
0.0
 10
14.698340
 20
231.699356
 30
0.0
 10
14.931560
 20
231.466126
 30
0.0
 10
15.219260
 20
231.466126
 30
0.0
  0
SPLINE
  5
13a
100
AcDbEntity
  8
Layer_1
 62
7
100
AcDbSpline
 70
8
 71
3
 72
8
 73
4
 74
0
 40
0
 40
0
 40
0
 40
0
 40
1
 40
1
 40
1
 40
1
 10
15.219260
 20
231.466126
 30
0.0
 10
15.506960
 20
231.466126
 30
0.0
 10
15.740170
 20
231.699356
 30
0.0
 10
15.740170
 20
231.987036
 30
0.0
  0
LINE
  5
13b
100
AcDbEntity
  8
Layer_1
 62
7
100
AcDbLine
 10
11.552710
 20
168.194862
 30
0.0
 11
62.354520
 21
168.194862
 31
0.0
  0
LINE
  5
13c
100
AcDbEntity
  8
Layer_1
 62
7
100
AcDbLine
 10
62.354520
 20
168.194862
 30
0.0
 11
62.354520
 21
211.058887
 31
0.0
  0
LINE
  5
13d
100
AcDbEntity
  8
Layer_1
 62
7
100
AcDbLine
 10
62.354520
 20
211.058887
 30
0.0
 11
11.552710
 21
211.058887
 31
0.0
  0
LINE
  5
13e
100
AcDbEntity
  8
Layer_1
 62
7
100
AcDbLine
 10
11.552710
 20
211.058887
 30
0.0
 11
11.552710
 21
168.194862
 31
0.0
  0
LINE
  5
13f
100
AcDbEntity
  8
Layer_1
 62
7
100
AcDbLine
 10
15.918490
 20
177.372923
 30
0.0
 11
15.918490
 21
174.941977
 31
0.0
  0
SPLINE
  5
140
100
AcDbEntity
  8
Layer_1
 62
7
100
AcDbSpline
 70
8
 71
3
 72
8
 73
4
 74
0
 40
0
 40
0
 40
0
 40
0
 40
1
 40
1
 40
1
 40
1
 10
18.523070
 20
179.952702
 30
0.0
 10
17.112000
 20
179.952702
 30
0.0
 10
15.968100
 20
178.808813
 30
0.0
 10
15.968100
 20
177.397729
 30
0.0
  0
LINE
  5
141
100
AcDbEntity
  8
Layer_1
 62
7
100
AcDbLine
 10
21.127660
 20
179.952702
 30
0.0
 11
18.498270
 21
179.952702
 31
0.0
  0
LINE
  5
142
100
AcDbEntity
  8
Layer_1
 62
7
100
AcDbLine
 10
23.657830
 20
174.941977
 30
0.0
 11
23.657830
 21
177.372923
 31
0.0
  0
SPLINE
  5
143
100
AcDbEntity
  8
Layer_1
 62
7
100
AcDbSpline
 70
8
 71
3
 72
8
 73
4
 74
0
 40
0
 40
0
 40
0
 40
0
 40
1
 40
1
 40
1
 40
1
 10
21.152460
 20
172.411809
 30
0.0
 10
22.563530
 20
172.411809
 30
0.0
 10
23.707440
 20
173.555698
 30
0.0
 10
23.707440
 20
174.966783
 30
0.0
  0
SPLINE
  5
144
100
AcDbEntity
  8
Layer_1
 62
7
100
AcDbSpline
 70
8
 71
3
 72
8
 73
4
 74
0
 40
0
 40
0
 40
0
 40
0
 40
1
 40
1
 40
1
 40
1
 10
23.707440
 20
177.397729
 30
0.0
 10
23.707440
 20
178.808813
 30
0.0
 10
22.563530
 20
179.952702
 30
0.0
 10
21.152460
 20
179.952702
 30
0.0
  0
LINE
  5
145
100
AcDbEntity
  8
Layer_1
 62
7
100
AcDbLine
 10
18.498270
 20
172.411809
 30
0.0
 11
21.127660
 21
172.411809
 31
0.0
  0
SPLINE
  5
146
100
AcDbEntity
  8
Layer_1
 62
7
100
AcDbSpline
 70
8
 71
3
 72
8
 73
4
 74
0
 40
0
 40
0
 40
0
 40
0
 40
1
 40
1
 40
1
 40
1
 10
15.968100
 20
174.966783
 30
0.0
 10
15.968100
 20
173.555698
 30
0.0
 10
17.112000
 20
172.411809
 30
0.0
 10
18.523070
 20
172.411809
 30
0.0
  0
SPLINE
  5
147
100
AcDbEntity
  8
Layer_1
 62
7
100
AcDbSpline
 70
8
 71
3
 72
8
 73
4
 74
0
 40
0
 40
0
 40
0
 40
0
 40
1
 40
1
 40
1
 40
1
 10
41.418620
 20
188.064124
 30
0.0
 10
41.418620
 20
190.516387
 30
0.0
 10
39.430670
 20
192.504321
 30
0.0
 10
36.978420
 20
192.504321
 30
0.0
  0
SPLINE
  5
148
100
AcDbEntity
  8
Layer_1
 62
7
100
AcDbSpline
 70
8
 71
3
 72
8
 73
4
 74
0
 40
0
 40
0
 40
0
 40
0
 40
1
 40
1
 40
1
 40
1
 10
36.978420
 20
192.504321
 30
0.0
 10
34.526170
 20
192.504321
 30
0.0
 10
32.538220
 20
190.516387
 30
0.0
 10
32.538220
 20
188.064124
 30
0.0
  0
SPLINE
  5
149
100
AcDbEntity
  8
Layer_1
 62
7
100
AcDbSpline
 70
8
 71
3
 72
8
 73
4
 74
0
 40
0
 40
0
 40
0
 40
0
 40
1
 40
1
 40
1
 40
1
 10
32.538220
 20
188.064124
 30
0.0
 10
32.538220
 20
185.611860
 30
0.0
 10
34.526170
 20
183.623927
 30
0.0
 10
36.978420
 20
183.623927
 30
0.0
  0
SPLINE
  5
14a
100
AcDbEntity
  8
Layer_1
 62
7
100
AcDbSpline
 70
8
 71
3
 72
8
 73
4
 74
0
 40
0
 40
0
 40
0
 40
0
 40
1
 40
1
 40
1
 40
1
 10
36.978420
 20
183.623927
 30
0.0
 10
39.430670
 20
183.623927
 30
0.0
 10
41.418620
 20
185.611860
 30
0.0
 10
41.418620
 20
188.064124
 30
0.0
  0
SPLINE
  5
14b
100
AcDbEntity
  8
Layer_1
 62
7
100
AcDbSpline
 70
8
 71
3
 72
8
 73
4
 74
0
 40
0
 40
0
 40
0
 40
0
 40
1
 40
1
 40
1
 40
1
 10
26.336830
 20
206.420245
 30
0.0
 10
26.336830
 20
207.584728
 30
0.0
 10
25.392840
 20
208.528719
 30
0.0
 10
24.228360
 20
208.528719
 30
0.0
  0
SPLINE
  5
14c
100
AcDbEntity
  8
Layer_1
 62
7
100
AcDbSpline
 70
8
 71
3
 72
8
 73
4
 74
0
 40
0
 40
0
 40
0
 40
0
 40
1
 40
1
 40
1
 40
1
 10
24.228360
 20
208.528719
 30
0.0
 10
23.063870
 20
208.528719
 30
0.0
 10
22.119880
 20
207.584728
 30
0.0
 10
22.119880
 20
206.420245
 30
0.0
  0
SPLINE
  5
14d
100
AcDbEntity
  8
Layer_1
 62
7
100
AcDbSpline
 70
8
 71
3
 72
8
 73
4
 74
0
 40
0
 40
0
 40
0
 40
0
 40
1
 40
1
 40
1
 40
1
 10
22.119880
 20
206.420245
 30
0.0
 10
22.119880
 20
205.255763
 30
0.0
 10
23.063870
 20
204.311772
 30
0.0
 10
24.228360
 20
204.311772
 30
0.0
  0
SPLINE
  5
14e
100
AcDbEntity
  8
Layer_1
 62
7
100
AcDbSpline
 70
8
 71
3
 72
8
 73
4
 74
0
 40
0
 40
0
 40
0
 40
0
 40
1
 40
1
 40
1
 40
1
 10
24.228360
 20
204.311772
 30
0.0
 10
25.392840
 20
204.311772
 30
0.0
 10
26.336830
 20
205.255763
 30
0.0
 10
26.336830
 20
206.420245
 30
0.0
  0
SPLINE
  5
14f
100
AcDbEntity
  8
Layer_1
 62
7
100
AcDbSpline
 70
8
 71
3
 72
8
 73
4
 74
0
 40
0
 40
0
 40
0
 40
0
 40
1
 40
1
 40
1
 40
1
 10
51.936180
 20
206.420245
 30
0.0
 10
51.936180
 20
207.584728
 30
0.0
 10
50.992190
 20
208.528719
 30
0.0
 10
49.827700
 20
208.528719
 30
0.0
  0
SPLINE
  5
150
100
AcDbEntity
  8
Layer_1
 62
7
100
AcDbSpline
 70
8
 71
3
 72
8
 73
4
 74
0
 40
0
 40
0
 40
0
 40
0
 40
1
 40
1
 40
1
 40
1
 10
49.827700
 20
208.528719
 30
0.0
 10
48.663220
 20
208.528719
 30
0.0
 10
47.719230
 20
207.584728
 30
0.0
 10
47.719230
 20
206.420245
 30
0.0
  0
SPLINE
  5
151
100
AcDbEntity
  8
Layer_1
 62
7
100
AcDbSpline
 70
8
 71
3
 72
8
 73
4
 74
0
 40
0
 40
0
 40
0
 40
0
 40
1
 40
1
 40
1
 40
1
 10
47.719230
 20
206.420245
 30
0.0
 10
47.719230
 20
205.255763
 30
0.0
 10
48.663220
 20
204.311772
 30
0.0
 10
49.827700
 20
204.311772
 30
0.0
  0
SPLINE
  5
152
100
AcDbEntity
  8
Layer_1
 62
7
100
AcDbSpline
 70
8
 71
3
 72
8
 73
4
 74
0
 40
0
 40
0
 40
0
 40
0
 40
1
 40
1
 40
1
 40
1
 10
49.827700
 20
204.311772
 30
0.0
 10
50.992190
 20
204.311772
 30
0.0
 10
51.936180
 20
205.255763
 30
0.0
 10
51.936180
 20
206.420245
 30
0.0
  0
SPLINE
  5
153
100
AcDbEntity
  8
Layer_1
 62
7
100
AcDbSpline
 70
8
 71
3
 72
8
 73
4
 74
0
 40
0
 40
0
 40
0
 40
0
 40
1
 40
1
 40
1
 40
1
 10
38.392340
 20
180.027119
 30
0.0
 10
38.392340
 20
180.808008
 30
0.0
 10
37.759310
 20
181.441036
 30
0.0
 10
36.978420
 20
181.441036
 30
0.0
  0
SPLINE
  5
154
100
AcDbEntity
  8
Layer_1
 62
7
100
AcDbSpline
 70
8
 71
3
 72
8
 73
4
 74
0
 40
0
 40
0
 40
0
 40
0
 40
1
 40
1
 40
1
 40
1
 10
36.978420
 20
181.441036
 30
0.0
 10
36.197530
 20
181.441036
 30
0.0
 10
35.564500
 20
180.808008
 30
0.0
 10
35.564500
 20
180.027119
 30
0.0
  0
SPLINE
  5
155
100
AcDbEntity
  8
Layer_1
 62
7
100
AcDbSpline
 70
8
 71
3
 72
8
 73
4
 74
0
 40
0
 40
0
 40
0
 40
0
 40
1
 40
1
 40
1
 40
1
 10
35.564500
 20
180.027119
 30
0.0
 10
35.564500
 20
179.246230
 30
0.0
 10
36.197530
 20
178.613202
 30
0.0
 10
36.978420
 20
178.613202
 30
0.0
  0
SPLINE
  5
156
100
AcDbEntity
  8
Layer_1
 62
7
100
AcDbSpline
 70
8
 71
3
 72
8
 73
4
 74
0
 40
0
 40
0
 40
0
 40
0
 40
1
 40
1
 40
1
 40
1
 10
36.978420
 20
178.613202
 30
0.0
 10
37.759310
 20
178.613202
 30
0.0
 10
38.392340
 20
179.246230
 30
0.0
 10
38.392340
 20
180.027119
 30
0.0
  0
SPLINE
  5
157
100
AcDbEntity
  8
Layer_1
 62
7
100
AcDbSpline
 70
8
 71
3
 72
8
 73
4
 74
0
 40
0
 40
0
 40
0
 40
0
 40
1
 40
1
 40
1
 40
1
 10
47.917670
 20
188.064124
 30
0.0
 10
47.917670
 20
188.845013
 30
0.0
 10
47.284650
 20
189.478041
 30
0.0
 10
46.503760
 20
189.478041
 30
0.0
  0
SPLINE
  5
158
100
AcDbEntity
  8
Layer_1
 62
7
100
AcDbSpline
 70
8
 71
3
 72
8
 73
4
 74
0
 40
0
 40
0
 40
0
 40
0
 40
1
 40
1
 40
1
 40
1
 10
46.503760
 20
189.478041
 30
0.0
 10
45.722870
 20
189.478041
 30
0.0
 10
45.089840
 20
188.845013
 30
0.0
 10
45.089840
 20
188.064124
 30
0.0
  0
SPLINE
  5
159
100
AcDbEntity
  8
Layer_1
 62
7
100
AcDbSpline
 70
8
 71
3
 72
8
 73
4
 74
0
 40
0
 40
0
 40
0
 40
0
 40
1
 40
1
 40
1
 40
1
 10
45.089840
 20
188.064124
 30
0.0
 10
45.089840
 20
187.283234
 30
0.0
 10
45.722870
 20
186.650206
 30
0.0
 10
46.503760
 20
186.650206
 30
0.0
  0
SPLINE
  5
15a
100
AcDbEntity
  8
Layer_1
 62
7
100
AcDbSpline
 70
8
 71
3
 72
8
 73
4
 74
0
 40
0
 40
0
 40
0
 40
0
 40
1
 40
1
 40
1
 40
1
 10
46.503760
 20
186.650206
 30
0.0
 10
47.284650
 20
186.650206
 30
0.0
 10
47.917670
 20
187.283234
 30
0.0
 10
47.917670
 20
188.064124
 30
0.0
  0
SPLINE
  5
15b
100
AcDbEntity
  8
Layer_1
 62
7
100
AcDbSpline
 70
8
 71
3
 72
8
 73
4
 74
0
 40
0
 40
0
 40
0
 40
0
 40
1
 40
1
 40
1
 40
1
 10
28.867000
 20
188.064124
 30
0.0
 10
28.867000
 20
188.845013
 30
0.0
 10
28.233970
 20
189.478041
 30
0.0
 10
27.453080
 20
189.478041
 30
0.0
  0
SPLINE
  5
15c
100
AcDbEntity
  8
Layer_1
 62
7
100
AcDbSpline
 70
8
 71
3
 72
8
 73
4
 74
0
 40
0
 40
0
 40
0
 40
0
 40
1
 40
1
 40
1
 40
1
 10
27.453080
 20
189.478041
 30
0.0
 10
26.672190
 20
189.478041
 30
0.0
 10
26.039160
 20
188.845013
 30
0.0
 10
26.039160
 20
188.064124
 30
0.0
  0
SPLINE
  5
15d
100
AcDbEntity
  8
Layer_1
 62
7
100
AcDbSpline
 70
8
 71
3
 72
8
 73
4
 74
0
 40
0
 40
0
 40
0
 40
0
 40
1
 40
1
 40
1
 40
1
 10
26.039160
 20
188.064124
 30
0.0
 10
26.039160
 20
187.283234
 30
0.0
 10
26.672190
 20
186.650206
 30
0.0
 10
27.453080
 20
186.650206
 30
0.0
  0
SPLINE
  5
15e
100
AcDbEntity
  8
Layer_1
 62
7
100
AcDbSpline
 70
8
 71
3
 72
8
 73
4
 74
0
 40
0
 40
0
 40
0
 40
0
 40
1
 40
1
 40
1
 40
1
 10
27.453080
 20
186.650206
 30
0.0
 10
28.233970
 20
186.650206
 30
0.0
 10
28.867000
 20
187.283234
 30
0.0
 10
28.867000
 20
188.064124
 30
0.0
  0
SPLINE
  5
15f
100
AcDbEntity
  8
Layer_1
 62
7
100
AcDbSpline
 70
8
 71
3
 72
8
 73
4
 74
0
 40
0
 40
0
 40
0
 40
0
 40
1
 40
1
 40
1
 40
1
 10
45.288280
 20
195.803461
 30
0.0
 10
45.288280
 20
196.091147
 30
0.0
 10
45.055070
 20
196.324378
 30
0.0
 10
44.767370
 20
196.324378
 30
0.0
  0
SPLINE
  5
160
100
AcDbEntity
  8
Layer_1
 62
7
100
AcDbSpline
 70
8
 71
3
 72
8
 73
4
 74
0
 40
0
 40
0
 40
0
 40
0
 40
1
 40
1
 40
1
 40
1
 10
44.767370
 20
196.324378
 30
0.0
 10
44.479670
 20
196.324378
 30
0.0
 10
44.246450
 20
196.091147
 30
0.0
 10
44.246450
 20
195.803461
 30
0.0
  0
SPLINE
  5
161
100
AcDbEntity
  8
Layer_1
 62
7
100
AcDbSpline
 70
8
 71
3
 72
8
 73
4
 74
0
 40
0
 40
0
 40
0
 40
0
 40
1
 40
1
 40
1
 40
1
 10
44.246450
 20
195.803461
 30
0.0
 10
44.246450
 20
195.515776
 30
0.0
 10
44.479670
 20
195.282544
 30
0.0
 10
44.767370
 20
195.282544
 30
0.0
  0
SPLINE
  5
162
100
AcDbEntity
  8
Layer_1
 62
7
100
AcDbSpline
 70
8
 71
3
 72
8
 73
4
 74
0
 40
0
 40
0
 40
0
 40
0
 40
1
 40
1
 40
1
 40
1
 10
44.767370
 20
195.282544
 30
0.0
 10
45.055070
 20
195.282544
 30
0.0
 10
45.288280
 20
195.515776
 30
0.0
 10
45.288280
 20
195.803461
 30
0.0
  0
SPLINE
  5
163
100
AcDbEntity
  8
Layer_1
 62
7
100
AcDbSpline
 70
8
 71
3
 72
8
 73
4
 74
0
 40
0
 40
0
 40
0
 40
0
 40
1
 40
1
 40
1
 40
1
 10
29.710390
 20
195.803461
 30
0.0
 10
29.710390
 20
196.091147
 30
0.0
 10
29.477170
 20
196.324378
 30
0.0
 10
29.189470
 20
196.324378
 30
0.0
  0
SPLINE
  5
164
100
AcDbEntity
  8
Layer_1
 62
7
100
AcDbSpline
 70
8
 71
3
 72
8
 73
4
 74
0
 40
0
 40
0
 40
0
 40
0
 40
1
 40
1
 40
1
 40
1
 10
29.189470
 20
196.324378
 30
0.0
 10
28.901770
 20
196.324378
 30
0.0
 10
28.668550
 20
196.091147
 30
0.0
 10
28.668550
 20
195.803461
 30
0.0
  0
SPLINE
  5
165
100
AcDbEntity
  8
Layer_1
 62
7
100
AcDbSpline
 70
8
 71
3
 72
8
 73
4
 74
0
 40
0
 40
0
 40
0
 40
0
 40
1
 40
1
 40
1
 40
1
 10
28.668550
 20
195.803461
 30
0.0
 10
28.668550
 20
195.515776
 30
0.0
 10
28.901770
 20
195.282544
 30
0.0
 10
29.189470
 20
195.282544
 30
0.0
  0
SPLINE
  5
166
100
AcDbEntity
  8
Layer_1
 62
7
100
AcDbSpline
 70
8
 71
3
 72
8
 73
4
 74
0
 40
0
 40
0
 40
0
 40
0
 40
1
 40
1
 40
1
 40
1
 10
29.189470
 20
195.282544
 30
0.0
 10
29.477170
 20
195.282544
 30
0.0
 10
29.710390
 20
195.515776
 30
0.0
 10
29.710390
 20
195.803461
 30
0.0
  0
SPLINE
  5
167
100
AcDbEntity
  8
Layer_1
 62
7
100
AcDbSpline
 70
8
 71
3
 72
8
 73
4
 74
0
 40
0
 40
0
 40
0
 40
0
 40
1
 40
1
 40
1
 40
1
 10
29.710390
 20
180.275175
 30
0.0
 10
29.710390
 20
180.562860
 30
0.0
 10
29.477170
 20
180.796092
 30
0.0
 10
29.189470
 20
180.796092
 30
0.0
  0
SPLINE
  5
168
100
AcDbEntity
  8
Layer_1
 62
7
100
AcDbSpline
 70
8
 71
3
 72
8
 73
4
 74
0
 40
0
 40
0
 40
0
 40
0
 40
1
 40
1
 40
1
 40
1
 10
29.189470
 20
180.796092
 30
0.0
 10
28.901770
 20
180.796092
 30
0.0
 10
28.668550
 20
180.562860
 30
0.0
 10
28.668550
 20
180.275175
 30
0.0
  0
SPLINE
  5
169
100
AcDbEntity
  8
Layer_1
 62
7
100
AcDbSpline
 70
8
 71
3
 72
8
 73
4
 74
0
 40
0
 40
0
 40
0
 40
0
 40
1
 40
1
 40
1
 40
1
 10
28.668550
 20
180.275175
 30
0.0
 10
28.668550
 20
179.987490
 30
0.0
 10
28.901770
 20
179.754258
 30
0.0
 10
29.189470
 20
179.754258
 30
0.0
  0
SPLINE
  5
16a
100
AcDbEntity
  8
Layer_1
 62
7
100
AcDbSpline
 70
8
 71
3
 72
8
 73
4
 74
0
 40
0
 40
0
 40
0
 40
0
 40
1
 40
1
 40
1
 40
1
 10
29.189470
 20
179.754258
 30
0.0
 10
29.477170
 20
179.754258
 30
0.0
 10
29.710390
 20
179.987490
 30
0.0
 10
29.710390
 20
180.275175
 30
0.0
  0
SPLINE
  5
16b
100
AcDbEntity
  8
Layer_1
 62
7
100
AcDbSpline
 70
8
 71
3
 72
8
 73
4
 74
0
 40
0
 40
0
 40
0
 40
0
 40
1
 40
1
 40
1
 40
1
 10
45.288280
 20
180.275175
 30
0.0
 10
45.288280
 20
180.562860
 30
0.0
 10
45.055070
 20
180.796092
 30
0.0
 10
44.767370
 20
180.796092
 30
0.0
  0
SPLINE
  5
16c
100
AcDbEntity
  8
Layer_1
 62
7
100
AcDbSpline
 70
8
 71
3
 72
8
 73
4
 74
0
 40
0
 40
0
 40
0
 40
0
 40
1
 40
1
 40
1
 40
1
 10
44.767370
 20
180.796092
 30
0.0
 10
44.479670
 20
180.796092
 30
0.0
 10
44.246450
 20
180.562860
 30
0.0
 10
44.246450
 20
180.275175
 30
0.0
  0
SPLINE
  5
16d
100
AcDbEntity
  8
Layer_1
 62
7
100
AcDbSpline
 70
8
 71
3
 72
8
 73
4
 74
0
 40
0
 40
0
 40
0
 40
0
 40
1
 40
1
 40
1
 40
1
 10
44.246450
 20
180.275175
 30
0.0
 10
44.246450
 20
179.987490
 30
0.0
 10
44.479670
 20
179.754258
 30
0.0
 10
44.767370
 20
179.754258
 30
0.0
  0
SPLINE
  5
16e
100
AcDbEntity
  8
Layer_1
 62
7
100
AcDbSpline
 70
8
 71
3
 72
8
 73
4
 74
0
 40
0
 40
0
 40
0
 40
0
 40
1
 40
1
 40
1
 40
1
 10
44.767370
 20
179.754258
 30
0.0
 10
45.055070
 20
179.754258
 30
0.0
 10
45.288280
 20
179.987490
 30
0.0
 10
45.288280
 20
180.275175
 30
0.0
  0
SPLINE
  5
16f
100
AcDbEntity
  8
Layer_1
 62
7
100
AcDbSpline
 70
8
 71
3
 72
8
 73
4
 74
0
 40
0
 40
0
 40
0
 40
0
 40
1
 40
1
 40
1
 40
1
 10
38.392340
 20
196.051517
 30
0.0
 10
38.392340
 20
196.832406
 30
0.0
 10
37.759310
 20
197.465435
 30
0.0
 10
36.978420
 20
197.465435
 30
0.0
  0
SPLINE
  5
170
100
AcDbEntity
  8
Layer_1
 62
7
100
AcDbSpline
 70
8
 71
3
 72
8
 73
4
 74
0
 40
0
 40
0
 40
0
 40
0
 40
1
 40
1
 40
1
 40
1
 10
36.978420
 20
197.465435
 30
0.0
 10
36.197530
 20
197.465435
 30
0.0
 10
35.564500
 20
196.832406
 30
0.0
 10
35.564500
 20
196.051517
 30
0.0
  0
SPLINE
  5
171
100
AcDbEntity
  8
Layer_1
 62
7
100
AcDbSpline
 70
8
 71
3
 72
8
 73
4
 74
0
 40
0
 40
0
 40
0
 40
0
 40
1
 40
1
 40
1
 40
1
 10
35.564500
 20
196.051517
 30
0.0
 10
35.564500
 20
195.270628
 30
0.0
 10
36.197530
 20
194.637600
 30
0.0
 10
36.978420
 20
194.637600
 30
0.0
  0
SPLINE
  5
172
100
AcDbEntity
  8
Layer_1
 62
7
100
AcDbSpline
 70
8
 71
3
 72
8
 73
4
 74
0
 40
0
 40
0
 40
0
 40
0
 40
1
 40
1
 40
1
 40
1
 10
36.978420
 20
194.637600
 30
0.0
 10
37.759310
 20
194.637600
 30
0.0
 10
38.392340
 20
195.270628
 30
0.0
 10
38.392340
 20
196.051517
 30
0.0
  0
SPLINE
  5
173
100
AcDbEntity
  8
Layer_1
 62
7
100
AcDbSpline
 70
8
 71
3
 72
8
 73
4
 74
0
 40
0
 40
0
 40
0
 40
0
 40
1
 40
1
 40
1
 40
1
 10
54.267900
 20
188.113735
 30
0.0
 10
54.267900
 20
188.401420
 30
0.0
 10
54.034680
 20
188.634652
 30
0.0
 10
53.746980
 20
188.634652
 30
0.0
  0
SPLINE
  5
174
100
AcDbEntity
  8
Layer_1
 62
7
100
AcDbSpline
 70
8
 71
3
 72
8
 73
4
 74
0
 40
0
 40
0
 40
0
 40
0
 40
1
 40
1
 40
1
 40
1
 10
53.746980
 20
188.634652
 30
0.0
 10
53.459280
 20
188.634652
 30
0.0
 10
53.226070
 20
188.401420
 30
0.0
 10
53.226070
 20
188.113735
 30
0.0
  0
SPLINE
  5
175
100
AcDbEntity
  8
Layer_1
 62
7
100
AcDbSpline
 70
8
 71
3
 72
8
 73
4
 74
0
 40
0
 40
0
 40
0
 40
0
 40
1
 40
1
 40
1
 40
1
 10
53.226070
 20
188.113735
 30
0.0
 10
53.226070
 20
187.826050
 30
0.0
 10
53.459280
 20
187.592818
 30
0.0
 10
53.746980
 20
187.592818
 30
0.0
  0
SPLINE
  5
176
100
AcDbEntity
  8
Layer_1
 62
7
100
AcDbSpline
 70
8
 71
3
 72
8
 73
4
 74
0
 40
0
 40
0
 40
0
 40
0
 40
1
 40
1
 40
1
 40
1
 10
53.746980
 20
187.592818
 30
0.0
 10
54.034680
 20
187.592818
 30
0.0
 10
54.267900
 20
187.826050
 30
0.0
 10
54.267900
 20
188.113735
 30
0.0
  0
SPLINE
  5
177
100
AcDbEntity
  8
Layer_1
 62
7
100
AcDbSpline
 70
8
 71
3
 72
8
 73
4
 74
0
 40
0
 40
0
 40
0
 40
0
 40
1
 40
1
 40
1
 40
1
 10
37.499340
 20
204.832689
 30
0.0
 10
37.499340
 20
205.120374
 30
0.0
 10
37.266120
 20
205.353606
 30
0.0
 10
36.978420
 20
205.353606
 30
0.0
  0
SPLINE
  5
178
100
AcDbEntity
  8
Layer_1
 62
7
100
AcDbSpline
 70
8
 71
3
 72
8
 73
4
 74
0
 40
0
 40
0
 40
0
 40
0
 40
1
 40
1
 40
1
 40
1
 10
36.978420
 20
205.353606
 30
0.0
 10
36.690720
 20
205.353606
 30
0.0
 10
36.457500
 20
205.120374
 30
0.0
 10
36.457500
 20
204.832689
 30
0.0
  0
SPLINE
  5
179
100
AcDbEntity
  8
Layer_1
 62
7
100
AcDbSpline
 70
8
 71
3
 72
8
 73
4
 74
0
 40
0
 40
0
 40
0
 40
0
 40
1
 40
1
 40
1
 40
1
 10
36.457500
 20
204.832689
 30
0.0
 10
36.457500
 20
204.545004
 30
0.0
 10
36.690720
 20
204.311772
 30
0.0
 10
36.978420
 20
204.311772
 30
0.0
  0
SPLINE
  5
17a
100
AcDbEntity
  8
Layer_1
 62
7
100
AcDbSpline
 70
8
 71
3
 72
8
 73
4
 74
0
 40
0
 40
0
 40
0
 40
0
 40
1
 40
1
 40
1
 40
1
 10
36.978420
 20
204.311772
 30
0.0
 10
37.266120
 20
204.311772
 30
0.0
 10
37.499340
 20
204.545004
 30
0.0
 10
37.499340
 20
204.832689
 30
0.0
  0
SPLINE
  5
17b
100
AcDbEntity
  8
Layer_1
 62
7
100
AcDbSpline
 70
8
 71
3
 72
8
 73
4
 74
0
 40
0
 40
0
 40
0
 40
0
 40
1
 40
1
 40
1
 40
1
 10
20.730770
 20
188.064124
 30
0.0
 10
20.730770
 20
188.351809
 30
0.0
 10
20.497550
 20
188.585041
 30
0.0
 10
20.209850
 20
188.585041
 30
0.0
  0
SPLINE
  5
17c
100
AcDbEntity
  8
Layer_1
 62
7
100
AcDbSpline
 70
8
 71
3
 72
8
 73
4
 74
0
 40
0
 40
0
 40
0
 40
0
 40
1
 40
1
 40
1
 40
1
 10
20.209850
 20
188.585041
 30
0.0
 10
19.922150
 20
188.585041
 30
0.0
 10
19.688940
 20
188.351809
 30
0.0
 10
19.688940
 20
188.064124
 30
0.0
  0
SPLINE
  5
17d
100
AcDbEntity
  8
Layer_1
 62
7
100
AcDbSpline
 70
8
 71
3
 72
8
 73
4
 74
0
 40
0
 40
0
 40
0
 40
0
 40
1
 40
1
 40
1
 40
1
 10
19.688940
 20
188.064124
 30
0.0
 10
19.688940
 20
187.776439
 30
0.0
 10
19.922150
 20
187.543207
 30
0.0
 10
20.209850
 20
187.543207
 30
0.0
  0
SPLINE
  5
17e
100
AcDbEntity
  8
Layer_1
 62
7
100
AcDbSpline
 70
8
 71
3
 72
8
 73
4
 74
0
 40
0
 40
0
 40
0
 40
0
 40
1
 40
1
 40
1
 40
1
 10
20.209850
 20
187.543207
 30
0.0
 10
20.497550
 20
187.543207
 30
0.0
 10
20.730770
 20
187.776439
 30
0.0
 10
20.730770
 20
188.064124
 30
0.0
  0
SPLINE
  5
17f
100
AcDbEntity
  8
Layer_1
 62
7
100
AcDbSpline
 70
8
 71
3
 72
8
 73
4
 74
0
 40
0
 40
0
 40
0
 40
0
 40
1
 40
1
 40
1
 40
1
 10
37.548950
 20
171.295558
 30
0.0
 10
37.548950
 20
171.583243
 30
0.0
 10
37.315730
 20
171.816475
 30
0.0
 10
37.028030
 20
171.816475
 30
0.0
  0
SPLINE
  5
180
100
AcDbEntity
  8
Layer_1
 62
7
100
AcDbSpline
 70
8
 71
3
 72
8
 73
4
 74
0
 40
0
 40
0
 40
0
 40
0
 40
1
 40
1
 40
1
 40
1
 10
37.028030
 20
171.816475
 30
0.0
 10
36.740330
 20
171.816475
 30
0.0
 10
36.507110
 20
171.583243
 30
0.0
 10
36.507110
 20
171.295558
 30
0.0
  0
SPLINE
  5
181
100
AcDbEntity
  8
Layer_1
 62
7
100
AcDbSpline
 70
8
 71
3
 72
8
 73
4
 74
0
 40
0
 40
0
 40
0
 40
0
 40
1
 40
1
 40
1
 40
1
 10
36.507110
 20
171.295558
 30
0.0
 10
36.507110
 20
171.007873
 30
0.0
 10
36.740330
 20
170.774641
 30
0.0
 10
37.028030
 20
170.774641
 30
0.0
  0
SPLINE
  5
182
100
AcDbEntity
  8
Layer_1
 62
7
100
AcDbSpline
 70
8
 71
3
 72
8
 73
4
 74
0
 40
0
 40
0
 40
0
 40
0
 40
1
 40
1
 40
1
 40
1
 10
37.028030
 20
170.774641
 30
0.0
 10
37.315730
 20
170.774641
 30
0.0
 10
37.548950
 20
171.007873
 30
0.0
 10
37.548950
 20
171.295558
 30
0.0
  0
LINE
  5
183
100
AcDbEntity
  8
Layer_1
 62
7
100
AcDbLine
 10
15.135390
 20
236.330770
 30
0.0
 11
49.664750
 21
223.580710
 31
0.0
  0
LINE
  5
184
100
AcDbEntity
  8
Layer_1
 62
7
100
AcDbLine
 10
40.982800
 20
239.853160
 30
0.0
 11
40.982800
 21
238.265600
 31
0.0
  0
LINE
  5
185
100
AcDbEntity
  8
Layer_1
 62
7
100
AcDbLine
 10
16.673340
 20
243.028270
 30
0.0
 11
23.916570
 21
243.028270
 31
0.0
  0
LINE
  5
186
100
AcDbEntity
  8
Layer_1
 62
7
100
AcDbLine
 10
32.449680
 20
243.028270
 30
0.0
 11
39.692910
 21
243.028270
 31
0.0
  0
LINE
  5
187
100
AcDbEntity
  8
Layer_1
 62
7
100
AcDbLine
 10
14.192780
 20
237.372600
 30
0.0
 11
13.895120
 21
238.265600
 31
0.0
  0
LINE
  5
188
100
AcDbEntity
  8
Layer_1
 62
7
100
AcDbLine
 10
13.895120
 20
238.265600
 30
0.0
 11
15.383450
 21
238.265600
 31
0.0
  0
SPLINE
  5
189
100
AcDbEntity
  8
Layer_1
 62
7
100
AcDbSpline
 70
8
 71
3
 72
8
 73
4
 74
0
 40
0
 40
0
 40
0
 40
0
 40
1
 40
1
 40
1
 40
1
 10
14.165480
 20
237.367760
 30
0.0
 10
14.313650
 20
236.888360
 30
0.0
 10
14.676540
 20
236.505330
 30
0.0
 10
15.147190
 20
236.331450
 30
0.0
  0
LINE
  5
18a
100
AcDbEntity
  8
Layer_1
 62
7
100
AcDbLine
 10
31.159790
 20
239.803550
 30
0.0
 11
25.206460
 21
239.803550
 31
0.0
  0
LINE
  5
18b
100
AcDbEntity
  8
Layer_1
 62
7
100
AcDbLine
 10
16.673340
 20
243.028270
 30
0.0
 11
15.383450
 21
239.853160
 31
0.0
  0
LINE
  5
18c
100
AcDbEntity
  8
Layer_1
 62
7
100
AcDbLine
 10
25.206460
 20
239.803550
 30
0.0
 11
23.916570
 21
243.028270
 31
0.0
  0
LINE
  5
18d
100
AcDbEntity
  8
Layer_1
 62
7
100
AcDbLine
 10
32.449680
 20
243.028270
 30
0.0
 11
31.159790
 21
239.803550
 31
0.0
  0
LINE
  5
18e
100
AcDbEntity
  8
Layer_1
 62
7
100
AcDbLine
 10
40.982800
 20
239.853160
 30
0.0
 11
39.692910
 21
243.028270
 31
0.0
  0
SPLINE
  5
18f
100
AcDbEntity
  8
Layer_1
 62
7
100
AcDbSpline
 70
8
 71
3
 72
8
 73
4
 74
0
 40
0
 40
0
 40
0
 40
0
 40
1
 40
1
 40
1
 40
1
 10
49.676550
 20
223.581390
 30
0.0
 10
50.171300
 20
223.398640
 30
0.0
 10
50.724140
 20
223.469370
 30
0.0
 10
51.156910
 20
223.770870
 30
0.0
  0
SPLINE
  5
190
100
AcDbEntity
  8
Layer_1
 62
7
100
AcDbSpline
 70
8
 71
3
 72
8
 73
4
 74
0
 40
0
 40
0
 40
0
 40
0
 40
1
 40
1
 40
1
 40
1
 10
51.156910
 20
223.770870
 30
0.0
 10
51.589670
 20
224.072360
 30
0.0
 10
51.847640
 20
224.566440
 30
0.0
 10
51.847640
 20
225.093850
 30
0.0
  0
LINE
  5
191
100
AcDbEntity
  8
Layer_1
 62
7
100
AcDbLine
 10
51.798030
 20
233.502930
 30
0.0
 11
51.798030
 21
225.069040
 31
0.0
  0
LINE
  5
192
100
AcDbEntity
  8
Layer_1
 62
7
100
AcDbLine
 10
15.383450
 20
239.853160
 30
0.0
 11
15.383450
 21
238.265600
 31
0.0
  0
LINE
  5
193
100
AcDbEntity
  8
Layer_1
 62
7
100
AcDbLine
 10
44.852470
 20
238.265600
 30
0.0
 11
40.982800
 21
238.265600
 31
0.0
  0
SPLINE
  5
194
100
AcDbEntity
  8
Layer_1
 62
7
100
AcDbSpline
 70
8
 71
3
 72
8
 73
4
 74
0
 40
0
 40
0
 40
0
 40
0
 40
1
 40
1
 40
1
 40
1
 10
44.834490
 20
238.260130
 30
0.0
 10
45.478420
 20
236.976290
 30
0.0
 10
46.537040
 20
235.947490
 30
0.0
 10
47.838800
 20
235.340490
 30
0.0
  0
LINE
  5
195
100
AcDbEntity
  8
Layer_1
 62
7
100
AcDbLine
 10
51.798030
 20
233.502930
 30
0.0
 11
47.829140
 21
235.338550
 31
0.0
  0
SPLINE
  5
196
100
AcDbEntity
  8
Layer_1
 62
7
100
AcDbSpline
 70
8
 71
3
 72
8
 73
4
 74
0
 40
0
 40
0
 40
0
 40
0
 40
1
 40
1
 40
1
 40
1
 10
49.962410
 20
231.940180
 30
0.0
 10
49.962410
 20
232.227870
 30
0.0
 10
49.729180
 20
232.461100
 30
0.0
 10
49.441500
 20
232.461100
 30
0.0
  0
SPLINE
  5
197
100
AcDbEntity
  8
Layer_1
 62
7
100
AcDbSpline
 70
8
 71
3
 72
8
 73
4
 74
0
 40
0
 40
0
 40
0
 40
0
 40
1
 40
1
 40
1
 40
1
 10
49.441500
 20
232.461100
 30
0.0
 10
49.153810
 20
232.461100
 30
0.0
 10
48.920580
 20
232.227870
 30
0.0
 10
48.920580
 20
231.940180
 30
0.0
  0
SPLINE
  5
198
100
AcDbEntity
  8
Layer_1
 62
7
100
AcDbSpline
 70
8
 71
3
 72
8
 73
4
 74
0
 40
0
 40
0
 40
0
 40
0
 40
1
 40
1
 40
1
 40
1
 10
48.920580
 20
231.940180
 30
0.0
 10
48.920580
 20
231.652500
 30
0.0
 10
49.153810
 20
231.419270
 30
0.0
 10
49.441500
 20
231.419270
 30
0.0
  0
SPLINE
  5
199
100
AcDbEntity
  8
Layer_1
 62
7
100
AcDbSpline
 70
8
 71
3
 72
8
 73
4
 74
0
 40
0
 40
0
 40
0
 40
0
 40
1
 40
1
 40
1
 40
1
 10
49.441500
 20
231.419270
 30
0.0
 10
49.729180
 20
231.419270
 30
0.0
 10
49.962410
 20
231.652500
 30
0.0
 10
49.962410
 20
231.940180
 30
0.0
  0
SPLINE
  5
19a
100
AcDbEntity
  8
Layer_1
 62
7
100
AcDbSpline
 70
8
 71
3
 72
8
 73
4
 74
0
 40
0
 40
0
 40
0
 40
0
 40
1
 40
1
 40
1
 40
1
 10
49.962410
 20
228.765070
 30
0.0
 10
49.962410
 20
229.052760
 30
0.0
 10
49.729180
 20
229.285990
 30
0.0
 10
49.441500
 20
229.285990
 30
0.0
  0
SPLINE
  5
19b
100
AcDbEntity
  8
Layer_1
 62
7
100
AcDbSpline
 70
8
 71
3
 72
8
 73
4
 74
0
 40
0
 40
0
 40
0
 40
0
 40
1
 40
1
 40
1
 40
1
 10
49.441500
 20
229.285990
 30
0.0
 10
49.153810
 20
229.285990
 30
0.0
 10
48.920580
 20
229.052760
 30
0.0
 10
48.920580
 20
228.765070
 30
0.0
  0
SPLINE
  5
19c
100
AcDbEntity
  8
Layer_1
 62
7
100
AcDbSpline
 70
8
 71
3
 72
8
 73
4
 74
0
 40
0
 40
0
 40
0
 40
0
 40
1
 40
1
 40
1
 40
1
 10
48.920580
 20
228.765070
 30
0.0
 10
48.920580
 20
228.477390
 30
0.0
 10
49.153810
 20
228.244150
 30
0.0
 10
49.441500
 20
228.244150
 30
0.0
  0
SPLINE
  5
19d
100
AcDbEntity
  8
Layer_1
 62
7
100
AcDbSpline
 70
8
 71
3
 72
8
 73
4
 74
0
 40
0
 40
0
 40
0
 40
0
 40
1
 40
1
 40
1
 40
1
 10
49.441500
 20
228.244150
 30
0.0
 10
49.729180
 20
228.244150
 30
0.0
 10
49.962410
 20
228.477390
 30
0.0
 10
49.962410
 20
228.765070
 30
0.0
  0
SPLINE
  5
19e
100
AcDbEntity
  8
Layer_1
 62
7
100
AcDbSpline
 70
8
 71
3
 72
8
 73
4
 74
0
 40
0
 40
0
 40
0
 40
0
 40
1
 40
1
 40
1
 40
1
 10
49.962410
 20
225.540350
 30
0.0
 10
49.962410
 20
225.828030
 30
0.0
 10
49.729180
 20
226.061260
 30
0.0
 10
49.441500
 20
226.061260
 30
0.0
  0
SPLINE
  5
19f
100
AcDbEntity
  8
Layer_1
 62
7
100
AcDbSpline
 70
8
 71
3
 72
8
 73
4
 74
0
 40
0
 40
0
 40
0
 40
0
 40
1
 40
1
 40
1
 40
1
 10
49.441500
 20
226.061260
 30
0.0
 10
49.153810
 20
226.061260
 30
0.0
 10
48.920580
 20
225.828030
 30
0.0
 10
48.920580
 20
225.540350
 30
0.0
  0
SPLINE
  5
1a0
100
AcDbEntity
  8
Layer_1
 62
7
100
AcDbSpline
 70
8
 71
3
 72
8
 73
4
 74
0
 40
0
 40
0
 40
0
 40
0
 40
1
 40
1
 40
1
 40
1
 10
48.920580
 20
225.540350
 30
0.0
 10
48.920580
 20
225.252660
 30
0.0
 10
49.153810
 20
225.019430
 30
0.0
 10
49.441500
 20
225.019430
 30
0.0
  0
SPLINE
  5
1a1
100
AcDbEntity
  8
Layer_1
 62
7
100
AcDbSpline
 70
8
 71
3
 72
8
 73
4
 74
0
 40
0
 40
0
 40
0
 40
0
 40
1
 40
1
 40
1
 40
1
 10
49.441500
 20
225.019430
 30
0.0
 10
49.729180
 20
225.019430
 30
0.0
 10
49.962410
 20
225.252660
 30
0.0
 10
49.962410
 20
225.540350
 30
0.0
  0
LINE
  5
1a2
100
AcDbEntity
  8
Layer_1
 62
7
100
AcDbLine
 10
48.531380
 20
251.574090
 30
0.0
 11
14.002020
 21
264.373760
 31
0.0
  0
LINE
  5
1a3
100
AcDbEntity
  8
Layer_1
 62
7
100
AcDbLine
 10
22.683970
 20
248.101310
 30
0.0
 11
22.683970
 21
249.688866
 31
0.0
  0
LINE
  5
1a4
100
AcDbEntity
  8
Layer_1
 62
7
100
AcDbLine
 10
46.993430
 20
244.926197
 30
0.0
 11
39.750200
 21
244.926197
 31
0.0
  0
LINE
  5
1a5
100
AcDbEntity
  8
Layer_1
 62
7
100
AcDbLine
 10
31.217090
 20
244.926197
 30
0.0
 11
23.973860
 21
244.926197
 31
0.0
  0
LINE
  5
1a6
100
AcDbEntity
  8
Layer_1
 62
7
100
AcDbLine
 10
49.523600
 20
250.581867
 30
0.0
 11
49.771650
 21
249.688866
 31
0.0
  0
LINE
  5
1a7
100
AcDbEntity
  8
Layer_1
 62
7
100
AcDbLine
 10
49.771650
 20
249.688866
 30
0.0
 11
48.283320
 21
249.688866
 31
0.0
  0
SPLINE
  5
1a8
100
AcDbEntity
  8
Layer_1
 62
7
100
AcDbSpline
 70
8
 71
3
 72
8
 73
4
 74
0
 40
0
 40
0
 40
0
 40
0
 40
1
 40
1
 40
1
 40
1
 10
49.550900
 20
250.586714
 30
0.0
 10
49.402730
 20
251.066110
 30
0.0
 10
49.039840
 20
251.449140
 30
0.0
 10
48.569190
 20
251.623020
 30
0.0
  0
LINE
  5
1a9
100
AcDbEntity
  8
Layer_1
 62
7
100
AcDbLine
 10
32.506980
 20
248.150921
 30
0.0
 11
38.460310
 21
248.150921
 31
0.0
  0
LINE
  5
1aa
100
AcDbEntity
  8
Layer_1
 62
7
100
AcDbLine
 10
46.993430
 20
244.926197
 30
0.0
 11
48.283320
 21
248.101310
 31
0.0
  0
LINE
  5
1ab
100
AcDbEntity
  8
Layer_1
 62
7
100
AcDbLine
 10
38.460310
 20
248.150921
 30
0.0
 11
39.750200
 21
244.926197
 31
0.0
  0
LINE
  5
1ac
100
AcDbEntity
  8
Layer_1
 62
7
100
AcDbLine
 10
31.217090
 20
244.926197
 30
0.0
 11
32.506980
 21
248.150921
 31
0.0
  0
LINE
  5
1ad
100
AcDbEntity
  8
Layer_1
 62
7
100
AcDbLine
 10
22.683970
 20
248.101310
 30
0.0
 11
23.973860
 21
244.926197
 31
0.0
  0
SPLINE
  5
1ae
100
AcDbEntity
  8
Layer_1
 62
7
100
AcDbSpline
 70
8
 71
3
 72
8
 73
4
 74
0
 40
0
 40
0
 40
0
 40
0
 40
1
 40
1
 40
1
 40
1
 10
14.039840
 20
264.422690
 30
0.0
 10
13.545090
 20
264.605440
 30
0.0
 10
12.992240
 20
264.534710
 30
0.0
 10
12.559470
 20
264.233210
 30
0.0
  0
SPLINE
  5
1af
100
AcDbEntity
  8
Layer_1
 62
7
100
AcDbSpline
 70
8
 71
3
 72
8
 73
4
 74
0
 40
0
 40
0
 40
0
 40
0
 40
1
 40
1
 40
1
 40
1
 10
12.559470
 20
264.233210
 30
0.0
 10
12.126710
 20
263.931720
 30
0.0
 10
11.868740
 20
263.437650
 30
0.0
 10
11.868740
 20
262.910230
 30
0.0
  0
LINE
  5
1b0
100
AcDbEntity
  8
Layer_1
 62
7
100
AcDbLine
 10
11.868740
 20
254.451530
 30
0.0
 11
11.868740
 21
262.885430
 31
0.0
  0
LINE
  5
1b1
100
AcDbEntity
  8
Layer_1
 62
7
100
AcDbLine
 10
48.283320
 20
248.101310
 30
0.0
 11
48.283320
 21
249.688866
 31
0.0
  0
LINE
  5
1b2
100
AcDbEntity
  8
Layer_1
 62
7
100
AcDbLine
 10
18.863910
 20
249.688866
 30
0.0
 11
22.683970
 21
249.688866
 31
0.0
  0
SPLINE
  5
1b3
100
AcDbEntity
  8
Layer_1
 62
7
100
AcDbSpline
 70
8
 71
3
 72
8
 73
4
 74
0
 40
0
 40
0
 40
0
 40
0
 40
1
 40
1
 40
1
 40
1
 10
18.881890
 20
249.694343
 30
0.0
 10
18.237950
 20
250.978170
 30
0.0
 10
17.179330
 20
252.006980
 30
0.0
 10
15.877580
 20
252.613980
 30
0.0
  0
LINE
  5
1b4
100
AcDbEntity
  8
Layer_1
 62
7
100
AcDbLine
 10
11.868740
 20
254.451530
 30
0.0
 11
15.837630
 21
252.566310
 31
0.0
  0
SPLINE
  5
1b5
100
AcDbEntity
  8
Layer_1
 62
7
100
AcDbSpline
 70
8
 71
3
 72
8
 73
4
 74
0
 40
0
 40
0
 40
0
 40
0
 40
1
 40
1
 40
1
 40
1
 10
14.795800
 20
256.063900
 30
0.0
 10
14.795800
 20
256.351580
 30
0.0
 10
14.562580
 20
256.584810
 30
0.0
 10
14.274880
 20
256.584810
 30
0.0
  0
SPLINE
  5
1b6
100
AcDbEntity
  8
Layer_1
 62
7
100
AcDbSpline
 70
8
 71
3
 72
8
 73
4
 74
0
 40
0
 40
0
 40
0
 40
0
 40
1
 40
1
 40
1
 40
1
 10
14.274880
 20
256.584810
 30
0.0
 10
13.987180
 20
256.584810
 30
0.0
 10
13.753970
 20
256.351580
 30
0.0
 10
13.753970
 20
256.063900
 30
0.0
  0
SPLINE
  5
1b7
100
AcDbEntity
  8
Layer_1
 62
7
100
AcDbSpline
 70
8
 71
3
 72
8
 73
4
 74
0
 40
0
 40
0
 40
0
 40
0
 40
1
 40
1
 40
1
 40
1
 10
13.753970
 20
256.063900
 30
0.0
 10
13.753970
 20
255.776210
 30
0.0
 10
13.987180
 20
255.542980
 30
0.0
 10
14.274880
 20
255.542980
 30
0.0
  0
SPLINE
  5
1b8
100
AcDbEntity
  8
Layer_1
 62
7
100
AcDbSpline
 70
8
 71
3
 72
8
 73
4
 74
0
 40
0
 40
0
 40
0
 40
0
 40
1
 40
1
 40
1
 40
1
 10
14.274880
 20
255.542980
 30
0.0
 10
14.562580
 20
255.542980
 30
0.0
 10
14.795800
 20
255.776210
 30
0.0
 10
14.795800
 20
256.063900
 30
0.0
  0
SPLINE
  5
1b9
100
AcDbEntity
  8
Layer_1
 62
7
100
AcDbSpline
 70
8
 71
3
 72
8
 73
4
 74
0
 40
0
 40
0
 40
0
 40
0
 40
1
 40
1
 40
1
 40
1
 10
14.795800
 20
259.239010
 30
0.0
 10
14.795800
 20
259.526700
 30
0.0
 10
14.562580
 20
259.759930
 30
0.0
 10
14.274880
 20
259.759930
 30
0.0
  0
SPLINE
  5
1ba
100
AcDbEntity
  8
Layer_1
 62
7
100
AcDbSpline
 70
8
 71
3
 72
8
 73
4
 74
0
 40
0
 40
0
 40
0
 40
0
 40
1
 40
1
 40
1
 40
1
 10
14.274880
 20
259.759930
 30
0.0
 10
13.987180
 20
259.759930
 30
0.0
 10
13.753970
 20
259.526700
 30
0.0
 10
13.753970
 20
259.239010
 30
0.0
  0
SPLINE
  5
1bb
100
AcDbEntity
  8
Layer_1
 62
7
100
AcDbSpline
 70
8
 71
3
 72
8
 73
4
 74
0
 40
0
 40
0
 40
0
 40
0
 40
1
 40
1
 40
1
 40
1
 10
13.753970
 20
259.239010
 30
0.0
 10
13.753970
 20
258.951320
 30
0.0
 10
13.987180
 20
258.718090
 30
0.0
 10
14.274880
 20
258.718090
 30
0.0
  0
SPLINE
  5
1bc
100
AcDbEntity
  8
Layer_1
 62
7
100
AcDbSpline
 70
8
 71
3
 72
8
 73
4
 74
0
 40
0
 40
0
 40
0
 40
0
 40
1
 40
1
 40
1
 40
1
 10
14.274880
 20
258.718090
 30
0.0
 10
14.562580
 20
258.718090
 30
0.0
 10
14.795800
 20
258.951320
 30
0.0
 10
14.795800
 20
259.239010
 30
0.0
  0
SPLINE
  5
1bd
100
AcDbEntity
  8
Layer_1
 62
7
100
AcDbSpline
 70
8
 71
3
 72
8
 73
4
 74
0
 40
0
 40
0
 40
0
 40
0
 40
1
 40
1
 40
1
 40
1
 10
14.795800
 20
262.414120
 30
0.0
 10
14.795800
 20
262.701810
 30
0.0
 10
14.562580
 20
262.935040
 30
0.0
 10
14.274880
 20
262.935040
 30
0.0
  0
SPLINE
  5
1be
100
AcDbEntity
  8
Layer_1
 62
7
100
AcDbSpline
 70
8
 71
3
 72
8
 73
4
 74
0
 40
0
 40
0
 40
0
 40
0
 40
1
 40
1
 40
1
 40
1
 10
14.274880
 20
262.935040
 30
0.0
 10
13.987180
 20
262.935040
 30
0.0
 10
13.753970
 20
262.701810
 30
0.0
 10
13.753970
 20
262.414120
 30
0.0
  0
SPLINE
  5
1bf
100
AcDbEntity
  8
Layer_1
 62
7
100
AcDbSpline
 70
8
 71
3
 72
8
 73
4
 74
0
 40
0
 40
0
 40
0
 40
0
 40
1
 40
1
 40
1
 40
1
 10
13.753970
 20
262.414120
 30
0.0
 10
13.753970
 20
262.126440
 30
0.0
 10
13.987180
 20
261.893210
 30
0.0
 10
14.274880
 20
261.893210
 30
0.0
  0
SPLINE
  5
1c0
100
AcDbEntity
  8
Layer_1
 62
7
100
AcDbSpline
 70
8
 71
3
 72
8
 73
4
 74
0
 40
0
 40
0
 40
0
 40
0
 40
1
 40
1
 40
1
 40
1
 10
14.274880
 20
261.893210
 30
0.0
 10
14.562580
 20
261.893210
 30
0.0
 10
14.795800
 20
262.126440
 30
0.0
 10
14.795800
 20
262.414120
 30
0.0
  0
LINE
  5
1c1
100
AcDbEntity
  8
Layer_1
 62
7
100
AcDbLine
 10
13.340560
 20
267.324820
 30
0.0
 11
47.869920
 21
254.574760
 31
0.0
  0
LINE
  5
1c2
100
AcDbEntity
  8
Layer_1
 62
7
100
AcDbLine
 10
39.187970
 20
270.847210
 30
0.0
 11
39.187970
 21
269.259650
 31
0.0
  0
LINE
  5
1c3
100
AcDbEntity
  8
Layer_1
 62
7
100
AcDbLine
 10
14.928120
 20
274.022320
 30
0.0
 11
22.121730
 21
274.022320
 31
0.0
  0
LINE
  5
1c4
100
AcDbEntity
  8
Layer_1
 62
7
100
AcDbLine
 10
30.654850
 20
274.022320
 30
0.0
 11
37.898080
 21
274.022320
 31
0.0
  0
LINE
  5
1c5
100
AcDbEntity
  8
Layer_1
 62
7
100
AcDbLine
 10
12.397950
 20
268.366650
 30
0.0
 11
12.100280
 21
269.259650
 31
0.0
  0
LINE
  5
1c6
100
AcDbEntity
  8
Layer_1
 62
7
100
AcDbLine
 10
12.100280
 20
269.259650
 30
0.0
 11
13.638230
 21
269.259650
 31
0.0
  0
SPLINE
  5
1c7
100
AcDbEntity
  8
Layer_1
 62
7
100
AcDbSpline
 70
8
 71
3
 72
8
 73
4
 74
0
 40
0
 40
0
 40
0
 40
0
 40
1
 40
1
 40
1
 40
1
 10
12.370650
 20
268.361810
 30
0.0
 10
12.518820
 20
267.882410
 30
0.0
 10
12.881710
 20
267.499380
 30
0.0
 10
13.352360
 20
267.325500
 30
0.0
  0
LINE
  5
1c8
100
AcDbEntity
  8
Layer_1
 62
7
100
AcDbLine
 10
29.364960
 20
270.797600
 30
0.0
 11
23.461240
 21
270.797600
 31
0.0
  0
LINE
  5
1c9
100
AcDbEntity
  8
Layer_1
 62
7
100
AcDbLine
 10
14.928120
 20
274.022320
 30
0.0
 11
13.638230
 21
270.847210
 31
0.0
  0
LINE
  5
1ca
100
AcDbEntity
  8
Layer_1
 62
7
100
AcDbLine
 10
23.461240
 20
270.797600
 30
0.0
 11
22.121730
 21
274.022320
 31
0.0
  0
LINE
  5
1cb
100
AcDbEntity
  8
Layer_1
 62
7
100
AcDbLine
 10
30.654850
 20
274.022320
 30
0.0
 11
29.364960
 21
270.797600
 31
0.0
  0
LINE
  5
1cc
100
AcDbEntity
  8
Layer_1
 62
7
100
AcDbLine
 10
39.187970
 20
270.847210
 30
0.0
 11
37.898080
 21
274.022320
 31
0.0
  0
SPLINE
  5
1cd
100
AcDbEntity
  8
Layer_1
 62
7
100
AcDbSpline
 70
8
 71
3
 72
8
 73
4
 74
0
 40
0
 40
0
 40
0
 40
0
 40
1
 40
1
 40
1
 40
1
 10
47.881710
 20
254.575440
 30
0.0
 10
48.376460
 20
254.392690
 30
0.0
 10
48.929310
 20
254.463420
 30
0.0
 10
49.362080
 20
254.764920
 30
0.0
  0
SPLINE
  5
1ce
100
AcDbEntity
  8
Layer_1
 62
7
100
AcDbSpline
 70
8
 71
3
 72
8
 73
4
 74
0
 40
0
 40
0
 40
0
 40
0
 40
1
 40
1
 40
1
 40
1
 10
49.362080
 20
254.764920
 30
0.0
 10
49.794840
 20
255.066410
 30
0.0
 10
50.052810
 20
255.560490
 30
0.0
 10
50.052810
 20
256.087900
 30
0.0
  0
LINE
  5
1cf
100
AcDbEntity
  8
Layer_1
 62
7
100
AcDbLine
 10
50.003200
 20
264.496980
 30
0.0
 11
50.003200
 21
256.063090
 31
0.0
  0
LINE
  5
1d0
100
AcDbEntity
  8
Layer_1
 62
7
100
AcDbLine
 10
13.638230
 20
270.847210
 30
0.0
 11
13.638230
 21
269.259650
 31
0.0
  0
LINE
  5
1d1
100
AcDbEntity
  8
Layer_1
 62
7
100
AcDbLine
 10
43.057640
 20
269.259650
 30
0.0
 11
39.187970
 21
269.259650
 31
0.0
  0
SPLINE
  5
1d2
100
AcDbEntity
  8
Layer_1
 62
7
100
AcDbSpline
 70
8
 71
3
 72
8
 73
4
 74
0
 40
0
 40
0
 40
0
 40
0
 40
1
 40
1
 40
1
 40
1
 10
43.039660
 20
269.254180
 30
0.0
 10
43.683600
 20
267.970340
 30
0.0
 10
44.742220
 20
266.941540
 30
0.0
 10
46.043970
 20
266.334540
 30
0.0
  0
LINE
  5
1d3
100
AcDbEntity
  8
Layer_1
 62
7
100
AcDbLine
 10
50.003200
 20
264.496980
 30
0.0
 11
46.034300
 21
266.332600
 31
0.0
  0
SPLINE
  5
1d4
100
AcDbEntity
  8
Layer_1
 62
7
100
AcDbSpline
 70
8
 71
3
 72
8
 73
4
 74
0
 40
0
 40
0
 40
0
 40
0
 40
1
 40
1
 40
1
 40
1
 10
48.167580
 20
262.934230
 30
0.0
 10
48.167580
 20
263.221920
 30
0.0
 10
47.934370
 20
263.455150
 30
0.0
 10
47.646670
 20
263.455150
 30
0.0
  0
SPLINE
  5
1d5
100
AcDbEntity
  8
Layer_1
 62
7
100
AcDbSpline
 70
8
 71
3
 72
8
 73
4
 74
0
 40
0
 40
0
 40
0
 40
0
 40
1
 40
1
 40
1
 40
1
 10
47.646670
 20
263.455150
 30
0.0
 10
47.358970
 20
263.455150
 30
0.0
 10
47.125750
 20
263.221920
 30
0.0
 10
47.125750
 20
262.934230
 30
0.0
  0
SPLINE
  5
1d6
100
AcDbEntity
  8
Layer_1
 62
7
100
AcDbSpline
 70
8
 71
3
 72
8
 73
4
 74
0
 40
0
 40
0
 40
0
 40
0
 40
1
 40
1
 40
1
 40
1
 10
47.125750
 20
262.934230
 30
0.0
 10
47.125750
 20
262.646550
 30
0.0
 10
47.358970
 20
262.413320
 30
0.0
 10
47.646670
 20
262.413320
 30
0.0
  0
SPLINE
  5
1d7
100
AcDbEntity
  8
Layer_1
 62
7
100
AcDbSpline
 70
8
 71
3
 72
8
 73
4
 74
0
 40
0
 40
0
 40
0
 40
0
 40
1
 40
1
 40
1
 40
1
 10
47.646670
 20
262.413320
 30
0.0
 10
47.934370
 20
262.413320
 30
0.0
 10
48.167580
 20
262.646550
 30
0.0
 10
48.167580
 20
262.934230
 30
0.0
  0
SPLINE
  5
1d8
100
AcDbEntity
  8
Layer_1
 62
7
100
AcDbSpline
 70
8
 71
3
 72
8
 73
4
 74
0
 40
0
 40
0
 40
0
 40
0
 40
1
 40
1
 40
1
 40
1
 10
48.167580
 20
259.759120
 30
0.0
 10
48.167580
 20
260.046810
 30
0.0
 10
47.934370
 20
260.280040
 30
0.0
 10
47.646670
 20
260.280040
 30
0.0
  0
SPLINE
  5
1d9
100
AcDbEntity
  8
Layer_1
 62
7
100
AcDbSpline
 70
8
 71
3
 72
8
 73
4
 74
0
 40
0
 40
0
 40
0
 40
0
 40
1
 40
1
 40
1
 40
1
 10
47.646670
 20
260.280040
 30
0.0
 10
47.358970
 20
260.280040
 30
0.0
 10
47.125750
 20
260.046810
 30
0.0
 10
47.125750
 20
259.759120
 30
0.0
  0
SPLINE
  5
1da
100
AcDbEntity
  8
Layer_1
 62
7
100
AcDbSpline
 70
8
 71
3
 72
8
 73
4
 74
0
 40
0
 40
0
 40
0
 40
0
 40
1
 40
1
 40
1
 40
1
 10
47.125750
 20
259.759120
 30
0.0
 10
47.125750
 20
259.471440
 30
0.0
 10
47.358970
 20
259.238200
 30
0.0
 10
47.646670
 20
259.238200
 30
0.0
  0
SPLINE
  5
1db
100
AcDbEntity
  8
Layer_1
 62
7
100
AcDbSpline
 70
8
 71
3
 72
8
 73
4
 74
0
 40
0
 40
0
 40
0
 40
0
 40
1
 40
1
 40
1
 40
1
 10
47.646670
 20
259.238200
 30
0.0
 10
47.934370
 20
259.238200
 30
0.0
 10
48.167580
 20
259.471440
 30
0.0
 10
48.167580
 20
259.759120
 30
0.0
  0
SPLINE
  5
1dc
100
AcDbEntity
  8
Layer_1
 62
7
100
AcDbSpline
 70
8
 71
3
 72
8
 73
4
 74
0
 40
0
 40
0
 40
0
 40
0
 40
1
 40
1
 40
1
 40
1
 10
48.167580
 20
256.534400
 30
0.0
 10
48.167580
 20
256.822080
 30
0.0
 10
47.934370
 20
257.055310
 30
0.0
 10
47.646670
 20
257.055310
 30
0.0
  0
SPLINE
  5
1dd
100
AcDbEntity
  8
Layer_1
 62
7
100
AcDbSpline
 70
8
 71
3
 72
8
 73
4
 74
0
 40
0
 40
0
 40
0
 40
0
 40
1
 40
1
 40
1
 40
1
 10
47.646670
 20
257.055310
 30
0.0
 10
47.358970
 20
257.055310
 30
0.0
 10
47.125750
 20
256.822080
 30
0.0
 10
47.125750
 20
256.534400
 30
0.0
  0
SPLINE
  5
1de
100
AcDbEntity
  8
Layer_1
 62
7
100
AcDbSpline
 70
8
 71
3
 72
8
 73
4
 74
0
 40
0
 40
0
 40
0
 40
0
 40
1
 40
1
 40
1
 40
1
 10
47.125750
 20
256.534400
 30
0.0
 10
47.125750
 20
256.246710
 30
0.0
 10
47.358970
 20
256.013480
 30
0.0
 10
47.646670
 20
256.013480
 30
0.0
  0
SPLINE
  5
1df
100
AcDbEntity
  8
Layer_1
 62
7
100
AcDbSpline
 70
8
 71
3
 72
8
 73
4
 74
0
 40
0
 40
0
 40
0
 40
0
 40
1
 40
1
 40
1
 40
1
 10
47.646670
 20
256.013480
 30
0.0
 10
47.934370
 20
256.013480
 30
0.0
 10
48.167580
 20
256.246710
 30
0.0
 10
48.167580
 20
256.534400
 30
0.0
  0
ENDSEC
  0
SECTION
  2
OBJECTS
  0
DICTIONARY
  5
C
330
0
100
AcDbDictionary
  3
ACAD_GROUP
350
D
  3
ACAD_MLINESTYLE
350
17
  0
DICTIONARY
  5
D
330
C
100
AcDbDictionary
  0
DICTIONARY
  5
1A
330
C
100
AcDbDictionary
  0
DICTIONARY
  5
17
330
C
100
AcDbDictionary
  3
STANDARD
350
18
  0
DICTIONARY
  5
19
330
C
100
AcDbDictionary
  0
ENDSEC
  0
EOF
